<?xml version="1.0" standalone="no"?>
<!DOCTYPE svg PUBLIC "-//W3C//DTD SVG 20010904//EN"
 "http://www.w3.org/TR/2001/REC-SVG-20010904/DTD/svg10.dtd">
<svg version="1.0" xmlns="http://www.w3.org/2000/svg"
 width="423.000000pt" height="312.000000pt" viewBox="0 0 423.000000 312.000000"
 preserveAspectRatio="xMidYMid meet">
<metadata>
Created by potrace 1.16, written by Peter Selinger 2001-2019
</metadata>
<g transform="translate(0.000000,312.000000) scale(0.100000,-0.100000)"
fill="#000000" stroke="none">
<path d="M0 3094 c0 -30 73 -104 103 -104 23 0 59 -19 74 -39 8 -12 34 -17
100 -19 l88 -4 23 -21 24 -22 111 -5 112 -5 33 -24 33 -23 87 -5 87 -5 27 -29
27 -29 75 0 76 0 52 -27 c29 -15 60 -30 68 -33 11 -5 15 -23 15 -66 l0 -58
-42 -16 c-23 -8 -58 -29 -77 -46 -42 -38 -51 -82 -44 -232 l5 -105 27 -22 c17
-13 29 -35 33 -58 l5 -36 152 -150 c207 -205 214 -211 238 -211 11 0 36 -13
55 -30 l34 -30 118 0 118 0 71 74 72 74 0 92 0 92 -98 99 -98 99 -68 0 -69 0
-43 -44 -44 -43 0 -56 c0 -37 6 -62 18 -77 l17 -21 90 -7 90 -7 0 -35 0 -35
-86 -3 -85 -3 -51 56 c-36 39 -58 55 -76 55 -30 0 -57 24 -57 50 0 10 -23 46
-52 80 l-52 63 -4 58 -4 57 -29 28 c-23 22 -29 37 -29 69 0 22 5 46 12 53 7 7
43 12 91 12 l79 0 30 -25 30 -25 58 0 59 0 15 22 c9 12 16 38 16 56 l0 34
-134 137 -134 136 -11 41 c-11 41 -25 54 -59 54 -9 0 -33 12 -54 27 l-39 26
-82 5 c-64 3 -87 9 -104 24 -17 16 -41 21 -110 25 l-88 6 -28 23 -29 24 -78 0
-79 0 -31 30 -31 30 -135 0 -135 0 -23 25 -23 25 -117 0 -116 0 0 -26z"/>
<path d="M111 2651 c-18 -17 -44 -31 -70 -35 l-41 -6 0 -134 0 -133 156 -157
c118 -117 163 -156 181 -156 14 0 38 -11 55 -25 l30 -25 148 0 148 0 33 27
c38 32 59 78 59 130 0 21 9 51 20 68 25 38 25 57 1 79 -10 9 -21 30 -24 45 -3
16 -18 46 -32 66 -14 21 -25 48 -25 60 0 31 -77 100 -121 109 -24 4 -52 23
-89 61 l-54 55 -173 0 -172 0 -30 -29z m175 -148 l25 -16 32 15 32 15 35 -18
c19 -11 42 -19 51 -19 9 0 35 -20 58 -45 l41 -45 0 -94 c0 -73 -4 -98 -16
-110 -8 -9 -20 -16 -25 -16 -14 0 -51 20 -67 37 -8 8 -27 17 -43 20 -40 8
-219 182 -219 212 0 19 51 81 66 81 3 0 16 -7 30 -17z"/>
<path d="M2598 2158 c-10 -8 -18 -36 -21 -72 -4 -40 -12 -65 -26 -80 -31 -33
-26 -54 29 -112 35 -37 50 -61 50 -80 0 -22 17 -44 77 -101 50 -48 84 -73 100
-73 17 0 63 -39 161 -135 98 -97 146 -137 168 -141 21 -4 67 -41 150 -119
l119 -113 5 -149 5 -149 28 -33 27 -33 0 -75 0 -75 54 -61 c32 -35 57 -74 60
-92 4 -18 15 -40 26 -50 11 -10 23 -34 26 -54 10 -50 231 -274 286 -289 21 -6
50 -20 64 -31 15 -12 41 -21 61 -21 l35 0 74 72 74 71 0 170 0 169 -54 61
c-29 34 -56 74 -60 90 -4 17 -89 111 -238 262 -128 129 -236 242 -241 250 -6
11 -3 24 7 40 l16 24 0 204 0 204 -25 23 c-16 15 -25 34 -25 53 l0 29 -102
104 c-68 69 -110 104 -125 104 -12 0 -49 22 -82 50 l-60 50 -58 6 c-43 5 -66
14 -91 35 l-33 29 -72 0 -73 0 -34 25 -34 25 -116 0 c-78 0 -121 -4 -132 -12z
m259 -152 c20 -16 44 -25 84 -28 36 -3 66 -12 83 -25 14 -11 41 -24 59 -27 19
-3 44 -18 57 -31 13 -14 40 -30 59 -35 42 -11 138 -95 216 -187 l55 -64 0 -90
c0 -116 -7 -129 -69 -129 l-49 0 -88 85 c-64 62 -95 85 -114 85 -20 0 -65 39
-203 178 l-177 178 0 38 c0 75 34 96 87 52z m994 -1273 l119 -118 6 -36 c5
-27 21 -51 60 -90 l54 -53 0 -101 c0 -65 -4 -105 -12 -113 -21 -21 -64 -14
-82 13 -9 14 -30 27 -49 30 -47 9 -117 75 -117 109 0 19 -16 44 -50 80 -40 42
-50 60 -50 87 0 51 -16 98 -41 117 -16 14 -23 34 -28 84 -4 36 -13 73 -20 82
l-13 16 23 10 c49 20 77 4 200 -117z"/>
</g>
</svg>
