<?xml version="1.0" standalone="no"?>
<!DOCTYPE svg PUBLIC "-//W3C//DTD SVG 20010904//EN"
 "http://www.w3.org/TR/2001/REC-SVG-20010904/DTD/svg10.dtd">
<svg version="1.0" xmlns="http://www.w3.org/2000/svg"
 width="492.000000pt" height="597.000000pt" viewBox="0 0 492.000000 597.000000"
 preserveAspectRatio="xMidYMid meet">
<metadata>
Created by potrace 1.16, written by Peter Selinger 2001-2019
</metadata>
<g transform="translate(0.000000,597.000000) scale(0.100000,-0.100000)"
fill="#000000" stroke="none">
<path d="M117 5940 c-10 -16 -40 -48 -67 -71 l-50 -42 0 -142 0 -143 28 -18
c15 -9 55 -48 89 -84 l63 -68 83 -26 c57 -18 98 -39 131 -66 32 -27 58 -40 77
-40 16 0 46 -7 66 -15 19 -8 45 -15 56 -15 12 0 62 -13 112 -29 156 -50 177
-54 307 -58 l127 -4 48 24 c26 13 88 37 136 52 64 20 93 35 105 53 31 45 70
82 88 82 9 0 36 -20 58 -44 23 -24 60 -53 82 -64 23 -12 66 -43 95 -69 30 -27
67 -57 84 -68 16 -10 50 -37 75 -60 25 -22 64 -53 86 -68 55 -37 317 -304 337
-344 10 -18 42 -48 72 -68 63 -42 123 -108 132 -145 3 -14 21 -42 40 -63 35
-40 143 -247 143 -276 0 -9 14 -36 30 -61 16 -25 30 -57 30 -71 0 -15 7 -43
15 -62 8 -20 15 -47 15 -61 0 -13 15 -55 33 -92 l32 -69 -3 -140 -3 -140 -19
-30 c-10 -16 -33 -43 -50 -60 -36 -34 -70 -94 -70 -124 0 -11 11 -37 25 -57
14 -20 25 -45 25 -55 0 -10 13 -33 29 -51 38 -45 117 -161 143 -212 11 -22 39
-61 63 -86 23 -25 50 -59 60 -75 11 -17 47 -60 82 -98 34 -37 75 -91 89 -119
15 -29 43 -73 64 -98 49 -60 100 -143 100 -163 0 -9 25 -44 55 -78 31 -34 58
-74 62 -88 11 -48 45 -106 94 -159 27 -29 53 -69 58 -88 5 -19 33 -60 61 -91
32 -35 72 -98 106 -166 31 -60 73 -132 95 -159 42 -54 43 -56 30 -77 l-9 -14
-32 12 c-18 6 -69 11 -112 11 l-80 0 -29 -29 -29 -29 0 -47 c0 -80 48 -200
107 -270 18 -22 36 -51 40 -65 12 -50 47 -106 103 -165 31 -33 69 -79 83 -102
15 -23 41 -50 58 -59 17 -8 68 -50 113 -93 44 -43 114 -99 153 -125 40 -26 82
-61 94 -77 11 -16 39 -39 61 -50 22 -11 59 -34 81 -50 25 -18 52 -29 74 -29
23 0 42 -8 59 -25 l25 -25 94 0 95 0 0 34 c0 41 -45 80 -118 101 -26 8 -63 26
-82 40 -19 15 -57 38 -84 51 -26 14 -66 39 -89 55 -22 16 -46 29 -53 29 -18 0
-358 344 -399 404 -19 28 -46 65 -59 81 -22 27 -58 113 -73 173 -7 30 22 30
38 0 16 -33 61 -78 75 -78 7 0 23 -14 36 -31 31 -42 99 -110 131 -132 15 -10
30 -30 33 -45 12 -51 31 -62 106 -62 l70 0 29 29 c16 16 29 37 29 46 0 30 -42
140 -64 170 -13 17 -33 50 -46 75 -13 25 -38 63 -57 85 -18 22 -36 51 -40 65
-12 51 -74 157 -129 220 -31 36 -112 156 -134 200 -10 21 -58 95 -105 166 -47
70 -85 136 -85 146 0 9 -25 45 -55 79 -30 33 -59 76 -64 95 -5 19 -25 53 -45
76 -20 23 -40 57 -45 75 -5 18 -25 52 -45 75 -20 23 -40 57 -45 75 -6 20 -38
64 -75 104 -36 38 -78 93 -92 122 -15 28 -40 67 -56 85 -16 19 -39 50 -52 70
-13 21 -43 50 -67 65 -52 33 -85 78 -105 142 -7 26 -27 62 -44 81 -30 34 -100
139 -100 150 0 3 7 30 16 59 10 38 31 72 70 115 l54 61 0 165 0 165 -19 57
c-11 31 -31 82 -45 112 -14 30 -26 62 -26 70 0 8 -14 35 -30 60 -22 33 -30 57
-30 90 l0 45 -61 89 c-33 50 -70 108 -81 130 -11 23 -49 71 -84 108 -41 44
-67 81 -74 107 -7 26 -24 50 -51 72 -46 39 -62 55 -201 203 -57 59 -120 119
-140 132 -21 13 -49 42 -62 63 -14 22 -47 52 -78 70 -29 17 -90 62 -136 99
-114 93 -174 138 -267 201 -44 29 -101 73 -127 97 -35 33 -55 44 -79 44 -41 0
-85 22 -189 92 -57 39 -95 58 -115 58 -16 0 -43 9 -60 21 -16 11 -55 34 -85
50 -30 17 -79 45 -107 63 -29 19 -85 44 -125 56 -40 13 -94 36 -119 51 -25 16
-53 29 -62 29 -9 0 -19 5 -22 10 -4 6 -98 10 -248 10 l-243 0 -17 -30z m390
-115 c19 -8 47 -15 60 -15 14 0 52 -13 86 -28 34 -16 73 -32 87 -35 14 -4 47
-24 74 -47 l48 -40 45 0 45 0 51 -45 c74 -64 155 -105 210 -105 l45 0 31 -42
c17 -23 31 -48 31 -55 0 -7 -18 -24 -39 -37 -21 -14 -48 -38 -59 -53 -14 -19
-39 -34 -81 -47 l-61 -19 -38 11 c-28 9 -48 9 -69 1 -24 -8 -39 -7 -68 5 -21
9 -47 16 -58 16 -11 0 -107 29 -214 65 l-194 65 -83 55 c-45 30 -90 55 -100
55 -27 0 -73 52 -87 98 -15 50 -1 107 34 146 49 56 223 85 304 51z"/>
</g>
</svg>
