<?xml version="1.0" standalone="no"?>
<!DOCTYPE svg PUBLIC "-//W3C//DTD SVG 20010904//EN"
 "http://www.w3.org/TR/2001/REC-SVG-20010904/DTD/svg10.dtd">
<svg version="1.0" xmlns="http://www.w3.org/2000/svg"
 width="273.000000pt" height="363.000000pt" viewBox="0 0 273.000000 363.000000"
 preserveAspectRatio="xMidYMid meet">
<metadata>
Created by potrace 1.16, written by Peter Selinger 2001-2019
</metadata>
<g transform="translate(0.000000,363.000000) scale(0.100000,-0.100000)"
fill="#000000" stroke="none">
<path d="M270 3621 c-8 -5 -53 -26 -99 -47 -63 -29 -94 -51 -127 -89 l-44 -50
0 -102 c0 -57 4 -111 9 -121 5 -9 14 -29 20 -44 5 -15 29 -39 52 -54 24 -14
63 -46 88 -69 50 -47 177 -115 213 -115 13 0 43 -6 68 -14 116 -37 142 -40
346 -43 l211 -4 109 36 c145 49 202 79 246 128 l36 42 39 -14 c21 -7 58 -30
83 -50 25 -20 61 -47 80 -60 19 -13 50 -43 68 -67 18 -25 41 -44 51 -44 12 0
36 -23 63 -61 47 -67 81 -105 120 -131 14 -9 38 -41 53 -70 15 -29 46 -73 69
-98 23 -25 59 -71 79 -102 20 -31 51 -74 70 -95 37 -42 127 -185 127 -203 0
-19 31 -74 59 -105 37 -40 151 -381 151 -450 0 -26 8 -69 17 -96 l18 -49 -18
-49 c-9 -27 -17 -65 -17 -86 0 -20 -13 -66 -30 -102 -16 -35 -30 -70 -30 -77
0 -7 -13 -25 -29 -40 -16 -15 -32 -40 -35 -54 -3 -15 -12 -35 -19 -44 -19 -24
-149 -108 -167 -108 -26 0 -59 -29 -81 -71 l-20 -41 15 -23 c9 -13 27 -32 42
-42 14 -10 51 -38 81 -62 31 -24 71 -47 89 -53 37 -10 141 -101 186 -162 l28
-39 0 -74 0 -74 -25 -24 c-18 -19 -35 -25 -65 -25 -88 0 -107 -47 -41 -99 l39
-31 61 0 60 0 71 68 70 67 0 113 0 113 -21 42 c-34 65 -80 126 -120 155 -19
15 -64 53 -99 85 l-64 58 19 36 c11 20 43 54 72 75 64 48 164 193 193 277 14
42 20 86 20 145 0 47 5 88 10 91 13 8 13 192 0 200 -5 3 -10 46 -10 94 0 56
-6 102 -15 124 -8 20 -15 49 -15 65 0 16 -13 47 -28 68 -16 21 -56 95 -91 163
-34 69 -80 145 -101 169 -22 24 -42 60 -46 78 -3 19 -19 52 -34 73 -16 21 -37
56 -48 77 -11 22 -45 64 -76 94 -31 30 -56 62 -56 72 0 9 -29 39 -64 66 -73
58 -128 120 -165 188 -14 26 -33 50 -41 54 -69 32 -88 44 -105 71 -19 29 -112
108 -185 157 -19 13 -53 41 -75 63 -27 25 -59 44 -95 55 -42 12 -66 27 -101
65 -25 27 -52 49 -60 49 -8 0 -41 13 -74 28 -33 16 -71 32 -85 35 -14 3 -44
22 -66 41 -38 33 -142 76 -182 76 -10 0 -56 13 -102 30 -47 16 -97 30 -112 30
-15 0 -30 5 -33 10 -7 12 -363 13 -385 1z m327 -136 c19 -8 44 -15 56 -15 11
0 88 -23 172 -51 117 -39 163 -60 197 -88 25 -20 65 -45 89 -55 24 -10 51 -21
59 -26 22 -10 25 -86 5 -116 -18 -28 -90 -66 -188 -100 l-72 -24 -138 0 c-100
0 -147 4 -174 15 -19 8 -47 15 -62 15 -14 0 -51 12 -81 26 -30 14 -76 32 -101
40 -56 17 -130 72 -170 126 -34 47 -39 109 -13 147 9 12 62 45 117 72 l100 49
84 0 c52 0 97 -6 120 -15z"/>
</g>
</svg>
