<?xml version="1.0" standalone="no"?>
<!DOCTYPE svg PUBLIC "-//W3C//DTD SVG 20010904//EN"
 "http://www.w3.org/TR/2001/REC-SVG-20010904/DTD/svg10.dtd">
<svg version="1.0" xmlns="http://www.w3.org/2000/svg"
 width="339.000000pt" height="399.000000pt" viewBox="0 0 339.000000 399.000000"
 preserveAspectRatio="xMidYMid meet">
<metadata>
Created by potrace 1.16, written by Peter Selinger 2001-2019
</metadata>
<g transform="translate(0.000000,399.000000) scale(0.100000,-0.100000)"
fill="#000000" stroke="none">
<path d="M245 3963 c-22 -15 -70 -46 -107 -70 -36 -24 -78 -57 -92 -74 l-26
-31 0 -78 c0 -43 -4 -82 -10 -85 -12 -8 -13 -59 -1 -83 5 -9 19 -41 32 -70 24
-56 59 -92 89 -92 10 0 30 -16 44 -35 32 -42 77 -66 187 -102 45 -14 117 -43
161 -64 43 -22 90 -39 104 -39 13 0 41 -7 61 -15 19 -8 46 -15 59 -15 13 0 42
-7 65 -17 l41 -16 47 16 c33 12 79 17 159 17 l113 0 62 31 c34 17 87 47 117
66 93 59 172 103 184 103 6 0 33 -18 60 -40 26 -22 52 -40 57 -40 8 0 215
-190 291 -267 61 -61 245 -262 286 -310 23 -29 42 -59 42 -68 0 -9 19 -37 43
-63 69 -74 77 -91 71 -134 l-6 -37 27 -33 c38 -45 135 -245 135 -278 0 -15 7
-44 15 -63 11 -28 15 -78 15 -203 l0 -167 -36 -107 c-26 -78 -47 -121 -75
-155 -21 -26 -39 -51 -39 -56 0 -5 -45 -55 -99 -112 l-99 -103 -21 -61 c-12
-35 -21 -85 -21 -113 0 -61 33 -163 67 -208 13 -18 23 -42 21 -55 l-3 -22 -77
-3 c-52 -2 -88 2 -114 13 -25 10 -70 15 -151 15 -78 0 -125 5 -150 15 -26 11
-74 15 -180 15 -105 0 -153 4 -180 15 -19 8 -62 15 -94 15 l-58 0 -11 19 c-5
11 -10 43 -10 71 l0 50 -54 108 c-30 59 -64 121 -75 137 -12 17 -21 37 -21 46
0 27 -116 164 -155 182 -20 9 -40 17 -46 17 -6 0 -35 11 -65 25 -120 55 -166
65 -299 65 l-126 0 -132 -45 c-73 -25 -145 -45 -160 -45 -16 0 -38 -10 -52
-24 l-24 -25 10 -29 c19 -54 39 -64 116 -59 66 4 110 14 203 43 59 18 183 18
240 -1 25 -8 61 -17 80 -20 23 -3 59 -24 100 -58 100 -81 128 -113 171 -199
53 -105 119 -302 119 -355 0 -45 20 -68 81 -93 l31 -13 46 16 c62 23 247 24
299 2 27 -12 79 -15 225 -15 145 0 197 -3 225 -15 23 -10 69 -15 135 -15 l100
0 65 -30 c35 -16 74 -30 85 -30 35 0 145 -41 168 -62 11 -11 32 -37 45 -58 14
-23 44 -49 75 -66 27 -15 62 -42 76 -61 33 -43 112 -83 165 -83 24 0 67 -12
106 -30 35 -16 71 -30 78 -30 8 0 17 -4 20 -10 8 -13 132 -13 140 0 3 6 20 10
37 10 23 0 40 11 74 48 l44 47 0 66 0 66 -48 40 c-55 47 -181 113 -215 113
-13 0 -61 13 -107 30 -47 16 -101 30 -120 30 -34 0 -210 55 -277 86 -36 16
-78 55 -141 132 -106 128 -100 177 54 409 51 76 89 123 115 139 46 29 59 51
59 101 0 22 13 77 30 123 18 52 30 105 30 137 0 29 7 71 16 94 24 58 10 197
-32 329 -8 25 -14 70 -14 100 l0 55 -30 45 c-16 25 -30 52 -30 60 0 8 -18 41
-39 73 -22 32 -43 72 -46 90 -11 46 -42 105 -85 157 -21 25 -49 68 -63 96 -14
28 -42 64 -62 80 -20 16 -49 43 -65 59 -38 39 -266 266 -305 304 -16 16 -41
43 -54 61 -13 17 -42 43 -65 57 -22 15 -68 52 -101 83 -33 31 -73 65 -90 75
-16 10 -50 37 -75 60 -25 23 -79 63 -120 90 -41 27 -88 61 -105 76 -34 30
-107 69 -128 69 -8 0 -33 15 -57 33 -109 81 -167 117 -190 117 -35 0 -129 33
-227 80 -46 22 -96 40 -112 40 -16 0 -33 5 -36 10 -4 6 -77 10 -188 9 l-182 0
-40 -26z m382 -148 c19 -8 47 -15 61 -15 13 0 64 -18 111 -41 100 -47 190 -79
224 -79 13 0 34 -12 48 -26 13 -14 44 -36 69 -49 46 -24 149 -106 163 -132 19
-32 -80 -138 -165 -176 -24 -12 -63 -17 -121 -17 -53 0 -98 -6 -120 -15 -20
-8 -51 -15 -70 -15 -42 0 -140 34 -186 66 -19 13 -49 24 -66 24 -17 0 -50 13
-75 30 -25 16 -58 30 -75 30 -38 0 -63 17 -159 107 l-76 71 0 39 c0 56 37 103
127 162 l78 51 98 0 c64 0 110 -5 134 -15z m2483 -3610 l12 -15 -15 0 c-23 0
-47 11 -47 21 0 15 37 10 50 -6z"/>
</g>
</svg>
