<?xml version="1.0" standalone="no"?>
<!DOCTYPE svg PUBLIC "-//W3C//DTD SVG 20010904//EN"
 "http://www.w3.org/TR/2001/REC-SVG-20010904/DTD/svg10.dtd">
<svg version="1.0" xmlns="http://www.w3.org/2000/svg"
 width="468.000000pt" height="480.000000pt" viewBox="0 0 468.000000 480.000000"
 preserveAspectRatio="xMidYMid meet">
<metadata>
Created by potrace 1.16, written by Peter Selinger 2001-2019
</metadata>
<g transform="translate(0.000000,480.000000) scale(0.100000,-0.100000)"
fill="#000000" stroke="none">
<path d="M1355 4790 c-3 -5 -27 -10 -53 -10 l-47 0 -60 -41 c-105 -71 -123
-95 -164 -217 -15 -43 -21 -87 -21 -149 l0 -87 44 -65 c24 -37 55 -76 68 -88
40 -37 198 -109 356 -162 l153 -51 282 0 282 0 115 78 115 77 15 46 c21 63 47
99 72 99 53 0 105 -25 163 -80 33 -31 74 -65 90 -75 17 -10 57 -44 90 -75 33
-31 76 -67 96 -80 20 -13 46 -38 59 -57 12 -18 44 -49 69 -67 25 -19 86 -76
134 -128 49 -51 112 -118 141 -148 30 -30 65 -78 80 -107 14 -28 41 -63 60
-78 19 -15 50 -57 72 -98 21 -40 64 -111 97 -159 32 -48 65 -108 73 -134 8
-26 25 -61 38 -78 32 -42 72 -123 85 -171 6 -23 29 -71 51 -107 29 -48 40 -78
40 -106 0 -22 7 -56 15 -75 25 -61 20 -207 -11 -297 -14 -41 -32 -85 -39 -97
-40 -60 -118 -103 -188 -103 -85 0 -120 -57 -77 -127 22 -38 51 -54 154 -87
42 -14 93 -37 113 -51 21 -14 45 -25 54 -25 8 0 30 -18 48 -40 21 -26 44 -43
71 -50 24 -7 46 -21 57 -38 10 -15 51 -59 91 -99 39 -40 72 -79 72 -88 0 -8
22 -39 49 -69 67 -74 76 -89 105 -176 32 -93 32 -115 1 -145 -32 -33 -70 -32
-125 5 -25 16 -53 30 -62 30 -20 0 -45 33 -86 115 -35 70 -120 155 -154 155
-36 0 -66 -26 -93 -80 l-25 -49 0 -82 c0 -160 -60 -264 -209 -363 -37 -24 -90
-63 -116 -86 -55 -48 -82 -60 -131 -60 -36 0 -127 -28 -198 -60 -89 -41 -161
-60 -227 -60 -39 0 -83 -7 -105 -16 l-39 -17 -528 2 -528 1 -36 15 c-19 8 -53
15 -75 15 -21 0 -55 7 -75 15 -19 8 -60 15 -90 15 -29 0 -70 7 -90 15 -19 8
-45 15 -57 15 -12 0 -60 13 -106 30 -62 21 -104 30 -153 30 -37 0 -84 7 -104
15 -19 8 -47 15 -62 15 -14 0 -55 14 -89 30 -35 17 -75 30 -89 30 -14 0 -54
13 -90 30 -35 16 -76 30 -90 30 -13 0 -54 13 -90 30 -35 16 -76 30 -91 30 -15
0 -67 20 -117 43 -49 24 -101 47 -115 50 -14 3 -47 24 -74 47 l-48 40 -49 0
-49 0 0 -85 0 -85 37 -19 c56 -29 116 -84 156 -143 40 -60 152 -171 214 -212
51 -34 151 -137 185 -192 15 -22 52 -64 84 -92 l58 -52 43 0 43 0 0 48 0 47
-70 105 c-43 65 -86 117 -113 136 -43 31 -82 96 -73 120 7 19 106 18 153 -1
19 -8 54 -15 77 -15 29 0 54 -9 86 -30 25 -16 56 -30 70 -30 14 0 64 -13 110
-30 67 -23 102 -30 165 -30 44 0 100 -6 125 -14 60 -19 125 -35 182 -46 26 -5
56 -13 67 -19 11 -6 52 -11 91 -11 40 0 86 -6 107 -15 19 -8 53 -15 74 -15 21
0 50 -5 66 -12 22 -10 274 -27 388 -27 114 0 366 17 388 27 17 7 75 12 141 12
78 0 125 5 149 15 20 8 62 15 92 15 31 0 65 5 76 11 11 6 41 14 67 19 57 11
122 27 182 46 25 8 70 14 100 14 l55 0 61 43 c33 23 80 57 104 74 24 18 49 33
57 33 27 0 78 33 124 79 25 25 60 56 77 69 18 13 48 48 68 78 20 30 49 64 66
75 l29 21 47 -12 c26 -7 68 -26 93 -41 l46 -29 77 0 77 0 48 24 c65 34 111 87
111 131 0 18 5 37 10 40 6 3 10 35 10 70 0 35 -4 67 -10 70 -5 3 -10 28 -10
54 l0 48 -47 61 c-27 33 -68 89 -93 123 -80 111 -273 301 -369 364 -49 32 -96
71 -105 87 l-17 28 22 65 c16 49 31 73 58 94 36 30 38 33 81 191 21 78 23 137
6 180 -10 24 -16 70 -16 114 l0 73 -49 61 c-38 47 -56 83 -81 159 -17 53 -41
111 -54 128 -13 17 -54 90 -90 163 -37 73 -86 157 -109 187 -47 60 -110 143
-177 235 -25 34 -111 131 -192 216 -82 84 -148 158 -148 163 0 17 -52 72 -93
98 -22 14 -71 53 -108 87 -37 33 -95 81 -129 106 -34 25 -85 63 -113 85 -29
22 -65 48 -80 58 -15 10 -53 40 -83 68 -30 27 -61 49 -70 49 -15 0 -104 49
-205 114 -30 20 -62 36 -70 36 -22 0 -191 84 -239 119 -33 24 -54 31 -87 31
-26 0 -67 10 -99 25 -86 39 -170 65 -213 65 -22 0 -43 5 -46 10 -4 6 -63 10
-145 10 -82 0 -141 -4 -145 -10z m232 -135 c19 -8 53 -15 75 -15 23 0 67 -13
105 -30 35 -16 76 -30 91 -30 15 0 56 -14 90 -30 35 -17 68 -30 74 -30 24 0
155 -69 181 -95 31 -32 34 -40 42 -154 l6 -84 -23 -32 c-26 -39 -67 -65 -101
-65 -13 0 -41 -7 -62 -15 -22 -10 -45 -13 -58 -9 -26 9 -57 11 -287 22 l-175
8 -52 27 c-29 15 -58 27 -63 27 -19 0 -92 38 -150 78 l-55 38 -24 71 -25 72
23 70 c13 39 35 82 49 96 40 40 104 65 165 65 30 0 70 7 88 15 43 18 42 18 86
0z"/>
</g>
</svg>
