<?xml version="1.0" standalone="no"?>
<!DOCTYPE svg PUBLIC "-//W3C//DTD SVG 20010904//EN"
 "http://www.w3.org/TR/2001/REC-SVG-20010904/DTD/svg10.dtd">
<svg version="1.0" xmlns="http://www.w3.org/2000/svg"
 width="594.000000pt" height="246.000000pt" viewBox="0 0 594.000000 246.000000"
 preserveAspectRatio="xMidYMid meet">
<metadata>
Created by potrace 1.16, written by Peter Selinger 2001-2019
</metadata>
<g transform="translate(0.000000,246.000000) scale(0.100000,-0.100000)"
fill="#000000" stroke="none">
<path d="M50 2418 c-19 -26 -30 -53 -30 -74 0 -18 -5 -36 -10 -39 -14 -9 -12
-69 2 -83 10 -10 10 -17 0 -32 -15 -24 -16 -196 -2 -205 6 -3 10 -33 10 -66 0
-61 18 -110 64 -173 11 -17 46 -80 77 -140 l56 -111 42 -28 c23 -16 49 -41 58
-55 9 -15 40 -52 69 -82 29 -30 64 -73 79 -95 37 -56 158 -159 236 -200 36
-19 94 -59 128 -90 48 -43 69 -55 94 -55 23 0 58 -17 115 -55 106 -70 138 -87
187 -96 22 -4 58 -11 80 -15 22 -4 58 -20 79 -35 23 -17 53 -29 70 -29 16 0
47 -12 68 -27 25 -16 55 -27 81 -29 93 -5 184 -22 224 -42 28 -15 51 -20 71
-16 19 4 39 -1 62 -15 22 -13 43 -18 57 -14 14 3 41 -3 66 -15 56 -26 108 -45
127 -44 8 1 38 4 65 8 36 4 62 2 89 -10 l38 -16 237 0 236 -1 40 -24 c22 -14
50 -25 62 -25 13 0 47 -21 77 -47 123 -107 245 -191 304 -208 25 -8 65 -28 89
-45 23 -17 65 -38 92 -46 27 -8 54 -21 61 -29 10 -12 40 -15 150 -15 l137 0
41 38 42 39 0 88 0 88 -97 99 c-54 54 -109 101 -123 105 -14 3 -49 16 -78 29
-29 13 -63 24 -75 24 -12 0 -35 9 -52 20 -23 15 -47 20 -103 20 -44 0 -87 6
-110 16 -28 12 -63 15 -142 12 l-105 -3 -13 40 c-7 22 -24 51 -36 65 -40 43
-54 73 -61 132 l-6 58 28 11 c64 25 79 37 105 84 42 76 38 88 -45 172 l-73 73
-36 0 c-42 0 -95 36 -157 106 -52 59 -61 80 -61 142 0 63 18 95 57 103 17 3
46 16 66 28 l34 21 277 0 277 0 36 -15 c19 -8 60 -15 90 -15 40 0 66 -7 97
-25 l43 -25 30 11 c24 8 39 7 68 -5 21 -9 55 -16 77 -16 21 0 55 -7 75 -15 19
-8 48 -15 64 -15 43 0 56 -32 30 -74 -11 -18 -29 -41 -41 -51 -27 -24 -25 -56
5 -101 14 -20 25 -44 25 -53 0 -45 187 -262 274 -318 22 -14 60 -45 85 -68 25
-23 80 -59 121 -80 41 -20 95 -54 120 -75 45 -37 120 -80 140 -80 6 0 41 -18
78 -40 36 -22 84 -45 107 -51 22 -6 61 -22 87 -35 28 -14 65 -24 90 -24 27 0
67 -11 106 -30 37 -18 80 -30 103 -30 22 0 56 -7 76 -15 26 -11 73 -15 172
-15 l136 0 61 43 c33 23 79 56 102 72 l41 30 1 92 c0 51 -4 95 -10 98 -6 3
-10 20 -10 36 0 41 -34 105 -85 160 -23 25 -54 64 -68 86 -14 22 -38 50 -54
62 -15 12 -54 41 -85 66 -63 49 -175 109 -226 120 -17 3 -54 22 -80 40 -84 58
-174 98 -237 107 -145 20 -173 27 -225 56 -30 18 -62 32 -70 32 -8 0 -44 14
-78 30 -37 18 -80 30 -103 30 -22 0 -56 7 -76 15 -19 8 -52 15 -72 15 -39 0
-156 37 -220 69 -22 12 -52 21 -66 21 -14 0 -42 7 -62 15 -20 8 -66 15 -105
15 -38 0 -84 7 -105 15 -19 8 -60 15 -90 15 -29 0 -70 7 -90 15 -19 8 -53 15
-74 15 -21 0 -57 7 -80 16 -30 13 -57 15 -107 11 l-67 -7 -30 20 -30 20 -215
0 -215 0 -30 -20 c-16 -11 -47 -20 -68 -20 -25 0 -50 -9 -79 -30 -23 -17 -65
-37 -94 -46 -58 -16 -72 -29 -104 -93 l-22 -45 12 -52 c7 -28 9 -57 6 -63 -4
-6 4 -31 18 -56 14 -24 26 -51 26 -61 0 -20 161 -187 213 -220 20 -13 37 -30
37 -37 0 -7 -16 -37 -36 -67 -53 -81 -55 -85 -43 -117 7 -20 7 -38 -1 -57 -8
-21 -6 -34 8 -58 65 -114 65 -121 12 -148 -50 -25 -106 -26 -145 0 l-30 20
-133 0 c-97 0 -143 4 -170 15 -24 11 -50 14 -75 10 -26 -5 -45 -2 -62 9 -13 9
-41 16 -62 16 -21 0 -47 6 -58 14 -11 7 -40 16 -65 18 -25 3 -61 11 -80 18
-85 31 -108 38 -165 50 -33 7 -78 15 -100 17 -22 2 -96 33 -166 69 -70 35
-139 64 -153 64 -39 0 -81 20 -181 89 -49 33 -96 61 -104 61 -19 0 -103 53
-163 102 -26 22 -71 46 -100 54 -35 11 -63 28 -84 51 -32 35 -50 54 -112 116
-106 105 -202 220 -212 254 -6 21 -17 47 -25 57 -8 11 -15 30 -15 42 0 30 -15
63 -69 154 l-45 75 2 206 2 206 -30 41 c-41 56 -69 56 -110 0z m4469 -1058
c24 -11 61 -20 82 -20 22 0 56 -7 76 -15 19 -8 48 -15 62 -15 15 0 69 -20 120
-45 51 -25 103 -45 117 -45 14 0 41 -7 61 -15 19 -8 47 -15 62 -15 38 0 148
-55 204 -101 26 -22 60 -44 76 -49 46 -13 162 -94 223 -157 31 -32 77 -89 102
-128 l46 -70 0 -72 c0 -47 -4 -75 -12 -80 -40 -25 -119 -43 -188 -43 l-75 0
-117 40 c-64 21 -135 48 -157 59 -22 12 -53 21 -68 21 -15 0 -57 14 -91 30
-35 17 -68 30 -74 30 -5 0 -36 16 -67 35 -32 20 -80 44 -107 53 -37 14 -56 28
-78 61 -20 30 -44 49 -85 68 -31 14 -70 32 -86 40 -37 17 -218 193 -250 242
-13 21 -26 60 -30 93 l-6 57 20 10 c11 6 39 11 63 11 26 0 55 8 73 20 37 25
49 25 104 0z m-1059 -1004 c87 -47 105 -55 142 -61 26 -4 51 -19 83 -51 52
-52 56 -71 18 -80 -19 -5 -40 0 -74 19 -26 15 -55 27 -66 27 -10 0 -34 13 -53
28 -19 16 -68 46 -107 67 -68 37 -83 52 -66 68 14 15 81 6 123 -17z"/>
</g>
</svg>
