<?xml version="1.0" standalone="no"?>
<!DOCTYPE svg PUBLIC "-//W3C//DTD SVG 20010904//EN"
 "http://www.w3.org/TR/2001/REC-SVG-20010904/DTD/svg10.dtd">
<svg version="1.0" xmlns="http://www.w3.org/2000/svg"
 width="330.000000pt" height="168.000000pt" viewBox="0 0 330.000000 168.000000"
 preserveAspectRatio="xMidYMid meet">
<metadata>
Created by potrace 1.16, written by Peter Selinger 2001-2019
</metadata>
<g transform="translate(0.000000,168.000000) scale(0.100000,-0.100000)"
fill="#000000" stroke="none">
<path d="M530 1661 c-27 -19 -146 -61 -174 -61 -22 0 -131 -37 -172 -58 -17
-9 -66 -49 -108 -89 l-76 -71 0 -38 c0 -28 7 -46 27 -66 l27 -28 47 0 47 0 44
-35 c24 -19 64 -46 89 -59 46 -25 155 -97 216 -143 34 -26 63 -78 63 -114 0
-17 -23 -46 -75 -95 l-75 -71 0 -56 0 -55 26 -31 c14 -17 50 -47 79 -66 84
-56 209 -193 250 -275 20 -40 35 -82 33 -93 l-3 -22 -99 -3 c-132 -4 -151 -21
-103 -96 l22 -35 150 0 150 0 55 37 55 37 3 46 c4 63 -55 239 -95 282 -16 18
-47 57 -70 87 -28 39 -50 58 -74 65 -24 7 -43 24 -66 60 -18 27 -33 55 -33 61
0 5 20 40 45 77 55 82 85 140 85 165 0 10 -13 37 -29 59 -16 23 -41 64 -55 92
-18 34 -41 60 -73 82 -27 17 -63 51 -81 75 l-33 44 -32 0 c-37 1 -78 19 -160
73 -69 46 -71 64 -7 88 25 9 72 29 105 45 33 17 91 40 128 53 l69 23 106 -6
c59 -3 127 -7 152 -10 171 -17 218 -24 237 -34 12 -7 40 -12 63 -12 22 0 57
-7 77 -15 19 -8 52 -15 72 -15 20 0 56 -6 81 -14 91 -29 136 -39 197 -43 39
-3 67 -10 75 -20 l13 -16 -58 -51 -57 -51 0 -126 0 -126 48 -63 c109 -147 404
-410 459 -410 13 0 40 -16 62 -35 21 -19 45 -35 52 -35 8 0 55 -27 104 -60 50
-33 97 -60 105 -60 9 0 32 -11 51 -25 32 -21 172 -71 299 -105 78 -21 137 -23
180 -6 22 9 52 16 67 16 57 0 243 152 243 199 0 11 5 23 10 26 13 8 13 252 0
260 -6 4 -20 25 -31 48 -12 23 -41 63 -64 88 -23 25 -54 64 -69 87 -15 24 -43
50 -66 62 -22 11 -56 35 -76 53 -35 31 -59 46 -174 112 -29 17 -77 47 -109 67
-31 21 -63 38 -71 38 -8 0 -57 20 -108 45 -52 25 -99 45 -105 45 -7 0 -32 14
-57 30 -25 16 -58 30 -73 30 -15 0 -44 7 -64 15 -19 8 -53 15 -75 15 -23 0
-67 13 -105 30 -47 22 -79 30 -120 30 -40 0 -72 8 -120 30 -37 17 -81 30 -104
30 -22 0 -56 7 -76 15 -20 8 -66 15 -105 15 -38 0 -84 7 -105 15 -20 8 -66 15
-105 15 -38 0 -84 7 -105 15 -19 8 -62 15 -94 15 -32 0 -61 5 -64 10 -4 6 -97
10 -248 10 l-242 -1 -25 -18z m1675 -401 c33 -12 107 -43 164 -71 57 -27 133
-59 170 -71 36 -12 80 -33 96 -48 17 -15 41 -30 55 -33 14 -4 43 -22 65 -40
22 -19 54 -41 71 -50 34 -18 170 -149 222 -214 64 -82 78 -163 44 -258 -24
-68 -29 -75 -60 -75 -14 0 -45 -7 -68 -16 l-41 -16 -38 16 c-22 10 -66 16
-109 16 l-71 0 -38 26 c-21 14 -93 53 -159 86 -67 34 -138 75 -157 93 -20 17
-54 42 -76 57 -22 14 -69 53 -104 87 -35 33 -71 61 -80 61 -9 0 -41 16 -71 36
-40 26 -70 56 -107 113 -64 94 -73 118 -73 184 0 64 17 90 73 117 60 28 210
28 292 0z"/>
</g>
</svg>
