<?xml version="1.0" standalone="no"?>
<!DOCTYPE svg PUBLIC "-//W3C//DTD SVG 20010904//EN"
 "http://www.w3.org/TR/2001/REC-SVG-20010904/DTD/svg10.dtd">
<svg version="1.0" xmlns="http://www.w3.org/2000/svg"
 width="408.000000pt" height="213.000000pt" viewBox="0 0 408.000000 213.000000"
 preserveAspectRatio="xMidYMid meet">
<metadata>
Created by potrace 1.16, written by Peter Selinger 2001-2019
</metadata>
<g transform="translate(0.000000,213.000000) scale(0.100000,-0.100000)"
fill="#000000" stroke="none">
<path d="M1295 2120 c-3 -5 -28 -10 -54 -10 l-47 0 -75 -59 c-75 -60 -109
-109 -109 -157 0 -34 35 -134 72 -208 30 -60 86 -129 183 -231 28 -28 60 -69
73 -90 26 -43 23 -72 -5 -55 -30 16 -141 50 -167 50 -13 0 -51 21 -86 48 -110
84 -125 93 -152 99 -14 3 -39 18 -54 34 l-28 29 -54 0 -54 0 -29 -29 c-67 -67
-8 -200 101 -228 14 -3 42 -21 63 -40 21 -19 63 -50 93 -69 31 -20 66 -53 81
-77 56 -91 83 -117 117 -117 40 0 56 -15 56 -53 0 -20 12 -43 36 -70 59 -65
86 -135 88 -229 l1 -80 -30 -24 c-16 -13 -46 -26 -65 -29 -19 -3 -55 -12 -80
-20 -25 -8 -57 -15 -71 -15 -31 0 -59 -28 -59 -59 0 -12 13 -36 29 -52 l29
-29 96 0 96 0 79 39 c91 46 141 97 141 144 0 18 11 56 25 85 14 30 25 62 25
72 0 10 -11 42 -25 72 -14 29 -25 66 -25 81 0 29 -28 91 -62 139 -11 16 -17
32 -13 38 3 5 33 21 65 36 34 15 76 44 95 65 l35 39 0 83 0 83 -29 28 c-16 15
-46 53 -67 84 -55 81 -121 161 -165 203 -22 20 -39 44 -39 53 0 25 -35 88 -64
115 -46 43 -31 131 23 131 16 0 45 7 64 15 22 9 68 15 117 15 49 0 95 -6 117
-15 20 -8 66 -15 105 -15 38 0 84 -7 105 -15 22 -9 67 -15 120 -15 l85 0 65
-30 c35 -16 74 -30 87 -30 12 0 60 -13 106 -30 47 -16 94 -30 105 -30 22 0
120 -32 173 -56 18 -8 39 -26 48 -39 l16 -24 -12 -37 c-16 -48 2 -131 41 -184
15 -21 37 -56 48 -79 12 -22 38 -52 59 -65 20 -13 87 -73 149 -134 61 -61 133
-124 160 -141 27 -16 59 -44 71 -60 12 -17 48 -45 80 -62 83 -44 187 -110 216
-138 27 -25 115 -60 154 -61 13 0 48 -11 78 -25 71 -33 168 -65 194 -65 45 0
145 43 191 82 l49 41 0 103 c0 59 -4 105 -10 109 -6 4 -26 38 -46 76 -58 115
-181 257 -293 339 -34 25 -89 66 -122 91 -33 26 -75 50 -93 53 -19 4 -53 24
-77 45 -54 47 -68 54 -160 85 -41 13 -101 40 -134 60 -33 20 -71 39 -85 43
-14 3 -46 18 -71 34 -25 16 -51 29 -58 29 -7 0 -37 11 -68 25 l-55 26 -34 -11
-34 -11 -87 41 c-130 61 -193 80 -270 80 l-68 0 -45 30 c-25 16 -56 30 -70 30
-14 0 -64 13 -110 30 -47 16 -102 30 -123 30 -21 0 -54 7 -74 15 -25 11 -73
15 -169 15 -78 0 -135 4 -139 10 -4 6 -63 10 -145 10 -82 0 -141 -4 -145 -10z
m1700 -539 c35 -16 82 -43 106 -60 23 -17 48 -31 56 -31 45 0 317 -166 425
-259 24 -20 62 -49 86 -64 27 -18 42 -35 42 -48 0 -20 28 -50 123 -135 l29
-25 -8 -27 c-4 -15 -8 -42 -8 -61 -2 -61 -18 -61 -196 -2 l-161 54 -26 34
c-15 19 -52 47 -84 63 -31 16 -78 48 -104 70 -27 23 -78 61 -114 85 -114 75
-283 269 -321 369 -26 70 45 87 155 37z"/>
<path d="M0 734 l0 -55 27 -35 c14 -20 49 -47 77 -61 52 -26 151 -98 175 -127
7 -9 20 -16 28 -16 25 0 86 -31 131 -68 74 -59 144 -104 176 -113 38 -12 53
-23 93 -74 17 -22 52 -51 77 -63 49 -25 83 -61 92 -99 l6 -23 89 0 89 0 0 52
0 52 -103 100 c-91 89 -133 124 -270 224 -17 12 -42 25 -56 29 -14 3 -39 18
-56 33 -16 15 -46 36 -65 45 -19 10 -48 28 -65 40 -16 13 -50 33 -75 45 -25
12 -65 39 -90 60 -70 58 -181 110 -235 110 l-45 0 0 -56z"/>
</g>
</svg>
