<?xml version="1.0" standalone="no"?>
<!DOCTYPE svg PUBLIC "-//W3C//DTD SVG 20010904//EN"
 "http://www.w3.org/TR/2001/REC-SVG-20010904/DTD/svg10.dtd">
<svg version="1.0" xmlns="http://www.w3.org/2000/svg"
 width="426.000000pt" height="324.000000pt" viewBox="0 0 426.000000 324.000000"
 preserveAspectRatio="xMidYMid meet">
<metadata>
Created by potrace 1.16, written by Peter Selinger 2001-2019
</metadata>
<g transform="translate(0.000000,324.000000) scale(0.100000,-0.100000)"
fill="#000000" stroke="none">
<path d="M1387 3233 c-12 -12 -111 -43 -137 -43 -14 0 -45 -14 -70 -30 -25
-16 -51 -30 -58 -30 -30 0 -111 -52 -155 -99 l-47 -50 0 -40 c0 -23 -5 -60
-11 -84 l-12 -43 32 -98 c22 -68 42 -111 66 -139 20 -23 38 -53 42 -67 17 -70
111 -210 142 -210 22 0 36 -16 45 -52 3 -14 30 -48 60 -75 29 -26 65 -66 79
-89 14 -23 46 -53 70 -67 28 -17 57 -45 75 -75 16 -26 45 -58 65 -72 20 -14
48 -44 63 -68 26 -41 62 -76 118 -115 15 -10 37 -40 51 -67 14 -27 42 -61 64
-76 21 -16 49 -44 62 -64 12 -19 39 -53 60 -75 40 -43 120 -158 145 -209 9
-17 28 -44 43 -61 15 -16 33 -50 40 -74 l13 -44 -14 -8 c-7 -5 -41 -9 -76 -9
-63 0 -151 -24 -222 -60 -45 -23 -121 -104 -140 -149 l-13 -33 13 -52 c14 -57
51 -136 72 -153 35 -30 139 -53 233 -53 149 0 260 43 333 129 l42 50 0 41 c0
22 9 58 20 80 28 56 25 105 -16 227 -43 130 -76 196 -120 245 -18 21 -48 66
-65 100 -18 35 -63 96 -100 137 -38 40 -69 78 -69 84 0 5 -77 89 -171 186 -94
97 -197 204 -228 239 -31 35 -86 94 -123 133 -47 48 -69 80 -74 103 -7 40 -27
60 -68 70 -42 10 -86 44 -86 66 0 10 -18 40 -41 66 -49 58 -199 355 -199 393
0 14 8 38 18 52 34 51 97 119 108 119 7 0 43 14 79 31 l67 31 289 -1 288 0 37
-16 c23 -9 67 -15 118 -15 44 0 101 -6 126 -14 60 -19 126 -36 178 -45 53 -10
152 -61 152 -78 0 -7 -9 -22 -20 -33 -11 -11 -20 -28 -20 -38 0 -10 -13 -31
-30 -47 -19 -18 -30 -39 -30 -56 0 -15 -5 -40 -10 -54 -14 -37 8 -105 73 -230
l52 -99 52 -31 c29 -16 69 -49 89 -73 20 -24 55 -55 77 -69 22 -14 61 -45 86
-68 44 -40 176 -115 204 -115 7 0 50 -25 95 -55 91 -61 144 -89 182 -98 14 -4
44 -22 66 -41 50 -43 231 -106 304 -106 27 0 68 -7 91 -16 l40 -17 40 12 c21
7 54 9 72 6 69 -13 210 47 236 100 8 17 18 38 23 47 12 25 10 226 -2 233 -5 3
-10 20 -10 36 0 47 -72 180 -122 223 -23 21 -59 61 -78 89 -25 36 -44 53 -67
59 -18 5 -40 20 -50 34 -54 77 -99 114 -223 186 -25 14 -56 38 -69 52 -14 14
-32 26 -40 26 -9 0 -58 20 -109 45 -52 25 -99 45 -106 45 -7 0 -25 14 -41 30
-19 20 -39 30 -58 30 -16 0 -58 14 -94 30 -35 17 -75 30 -89 30 -14 0 -41 7
-61 15 -19 8 -46 15 -60 15 -13 0 -49 11 -79 25 -84 38 -170 65 -209 65 -20 0
-52 7 -72 15 -19 8 -52 15 -71 15 -20 0 -77 13 -127 29 -138 44 -175 53 -245
58 -36 3 -69 9 -74 14 -11 10 -699 13 -709 2z m1731 -454 c35 -16 68 -29 74
-29 16 0 80 -32 113 -56 17 -12 85 -50 153 -84 68 -34 144 -80 168 -101 25
-21 49 -39 54 -39 5 0 40 -31 78 -70 44 -45 77 -70 91 -70 15 0 30 -14 49 -46
15 -26 45 -68 68 -93 73 -83 74 -86 74 -198 l0 -102 -30 -21 c-41 -30 -88 -35
-134 -16 -21 9 -56 16 -78 16 -21 0 -55 7 -75 15 -19 8 -48 15 -62 15 -17 0
-38 11 -56 30 -16 17 -36 30 -44 30 -9 0 -29 9 -46 21 -56 38 -124 69 -152 69
-21 0 -39 12 -71 50 -24 28 -65 61 -91 75 -27 13 -79 45 -117 71 -38 26 -92
61 -120 78 -28 17 -87 70 -131 117 l-79 87 -22 64 c-31 92 -29 131 8 158 16
12 52 25 78 29 27 4 59 15 72 24 l24 17 71 -6 c45 -4 92 -17 133 -35z m-886
-2004 c8 -19 8 -31 0 -50 l-12 -25 -89 0 -89 0 -23 18 c-49 40 16 81 129 82
l72 0 12 -25z"/>
<path d="M0 1211 l0 -59 35 -31 c20 -17 40 -31 46 -31 5 0 31 -22 57 -49 29
-30 76 -64 122 -87 41 -20 89 -47 105 -60 17 -12 72 -44 124 -70 52 -26 111
-62 130 -79 37 -33 91 -65 111 -65 25 0 122 -51 157 -83 21 -19 52 -38 70 -41
17 -4 52 -25 76 -47 25 -21 52 -39 60 -39 16 0 86 -48 132 -90 17 -15 44 -31
62 -35 17 -3 52 -24 76 -46 25 -21 51 -39 59 -39 24 0 169 -102 223 -156 31
-32 62 -54 75 -54 11 0 32 -11 46 -25 l25 -25 59 0 58 0 26 31 c27 32 34 76
16 109 -6 11 -50 45 -98 77 -48 31 -114 82 -147 113 -33 31 -76 67 -96 80 -20
13 -47 39 -60 59 -13 20 -77 89 -141 153 -70 69 -118 125 -118 136 0 11 16 32
35 46 l35 27 0 53 c0 72 -17 86 -101 86 -89 -1 -153 -36 -191 -105 -15 -28
-28 -61 -28 -75 0 -14 -4 -31 -9 -39 l-9 -14 -34 13 c-18 8 -51 27 -72 42 -21
15 -46 28 -53 28 -24 0 -83 31 -163 86 -84 57 -152 94 -173 94 -8 0 -33 15
-57 33 -93 69 -166 117 -178 117 -20 0 -82 30 -117 56 -27 20 -140 64 -165 64
-6 0 -10 -25 -10 -59z"/>
</g>
</svg>
