<?xml version="1.0" standalone="no"?>
<!DOCTYPE svg PUBLIC "-//W3C//DTD SVG 20010904//EN"
 "http://www.w3.org/TR/2001/REC-SVG-20010904/DTD/svg10.dtd">
<svg version="1.0" xmlns="http://www.w3.org/2000/svg"
 width="369.000000pt" height="165.000000pt" viewBox="0 0 369.000000 165.000000"
 preserveAspectRatio="xMidYMid meet">
<metadata>
Created by potrace 1.16, written by Peter Selinger 2001-2019
</metadata>
<g transform="translate(0.000000,165.000000) scale(0.100000,-0.100000)"
fill="#000000" stroke="none">
<path d="M605 1640 c-3 -5 -20 -10 -37 -10 -23 0 -39 -9 -62 -36 -17 -20 -52
-61 -78 -90 l-48 -54 0 -50 c0 -82 84 -230 195 -343 22 -22 45 -55 51 -71 6
-17 14 -38 18 -48 14 -32 -31 -32 -82 0 -26 17 -62 33 -80 37 -17 4 -55 22
-83 42 -28 19 -72 41 -97 49 -26 7 -69 29 -96 49 -54 39 -109 46 -173 23 l-33
-12 0 -59 0 -58 27 -35 c26 -35 146 -103 206 -118 15 -3 57 -35 95 -70 37 -35
88 -74 114 -87 57 -29 178 -128 178 -145 0 -7 14 -42 30 -77 17 -36 30 -77 30
-90 0 -39 -51 -70 -121 -75 -65 -5 -93 -25 -87 -63 4 -31 51 -61 136 -88 l69
-22 64 21 c35 12 70 27 77 33 18 14 92 162 92 182 0 8 -11 38 -25 66 -13 28
-31 76 -40 106 l-16 56 13 8 c7 5 31 9 54 9 l41 0 50 53 c28 29 53 63 57 75
17 51 -108 219 -217 294 -14 10 -38 43 -54 74 -15 31 -45 70 -65 87 -21 17
-38 36 -38 43 0 6 -16 46 -36 87 -20 42 -34 84 -32 94 1 10 23 28 48 41 l44
22 233 0 c185 0 241 -3 270 -15 24 -10 70 -15 147 -15 68 0 128 -5 156 -14 57
-18 124 -35 175 -45 22 -4 76 -19 120 -33 129 -42 165 -50 260 -58 107 -9 184
-36 204 -71 l14 -25 -32 -68 c-17 -37 -31 -78 -31 -92 0 -37 39 -145 64 -179
13 -16 35 -52 49 -80 18 -34 91 -115 229 -252 197 -195 259 -247 345 -291 22
-12 76 -46 120 -76 44 -30 125 -77 181 -105 55 -28 103 -55 107 -61 4 -6 51
-10 115 -10 l109 0 71 68 c45 43 70 75 70 89 0 12 5 25 10 28 12 8 13 102 1
109 -5 3 -11 23 -14 43 -3 21 -10 56 -16 78 -6 22 -13 51 -15 65 -3 14 -21 50
-40 80 -19 30 -48 80 -65 110 -19 37 -67 91 -143 162 -62 59 -133 127 -158
152 -26 25 -59 47 -77 51 -18 3 -75 35 -127 70 -101 68 -167 105 -188 105 -7
0 -33 14 -58 30 -25 16 -52 30 -61 30 -8 0 -57 20 -108 45 -51 25 -102 45
-114 45 -25 0 -152 42 -195 64 -68 35 -153 56 -229 56 -43 0 -98 6 -123 14
-58 18 -124 35 -175 45 -22 4 -56 12 -75 18 -78 25 -129 35 -200 42 -41 4 -85
13 -97 19 -12 7 -42 12 -67 12 -25 0 -48 5 -51 10 -4 6 -128 10 -340 10 -212
0 -336 -4 -340 -10z m1984 -509 c25 -16 61 -32 79 -36 17 -4 55 -23 84 -42 28
-20 65 -39 83 -44 17 -5 49 -24 71 -43 40 -34 114 -76 134 -76 6 0 48 -37 93
-83 45 -46 98 -94 118 -107 35 -23 93 -104 180 -252 26 -45 39 -79 39 -104 0
-20 5 -54 11 -75 l12 -38 -20 -33 c-10 -18 -29 -34 -41 -36 -36 -5 -149 38
-190 74 -22 19 -69 43 -108 56 l-69 22 -55 56 c-52 51 -88 80 -194 153 -55 39
-210 192 -244 242 -14 22 -41 57 -58 78 -42 50 -78 157 -71 213 6 56 40 104
74 104 15 0 47 -13 72 -29z"/>
</g>
</svg>
