<?xml version="1.0" standalone="no"?>
<!DOCTYPE svg PUBLIC "-//W3C//DTD SVG 20010904//EN"
 "http://www.w3.org/TR/2001/REC-SVG-20010904/DTD/svg10.dtd">
<svg version="1.0" xmlns="http://www.w3.org/2000/svg"
 width="594.000000pt" height="162.000000pt" viewBox="0 0 594.000000 162.000000"
 preserveAspectRatio="xMidYMid meet">
<metadata>
Created by potrace 1.16, written by Peter Selinger 2001-2019
</metadata>
<g transform="translate(0.000000,162.000000) scale(0.100000,-0.100000)"
fill="#000000" stroke="none">
<path d="M300 1610 c-8 -4 -34 -16 -58 -26 -56 -23 -222 -181 -222 -211 0 -12
-4 -25 -10 -28 -12 -8 -14 -252 -1 -259 4 -3 11 -18 14 -33 4 -18 41 -63 105
-125 l99 -98 32 0 c17 0 48 -7 68 -15 19 -8 47 -15 62 -15 14 0 43 -11 62 -24
51 -35 149 -66 207 -66 54 0 154 -32 163 -52 104 -227 124 -254 206 -277 18
-5 45 -18 61 -29 34 -25 141 -62 177 -62 33 0 93 31 124 64 14 14 32 26 41 26
28 0 60 30 85 80 14 27 25 54 25 60 0 24 41 100 62 114 17 12 50 16 139 16 81
0 128 5 152 15 21 9 67 15 107 15 39 0 81 5 93 12 12 7 63 15 112 19 87 7 131
15 225 45 25 8 55 14 67 14 11 0 50 13 85 30 34 16 73 30 85 30 33 0 233 69
264 91 30 21 105 49 164 60 52 10 118 27 175 45 25 8 61 14 80 14 19 0 73 14
120 30 46 17 101 30 121 30 20 0 53 7 72 15 48 20 186 20 234 0 19 -8 60 -15
90 -15 29 0 70 -7 90 -15 19 -8 53 -15 74 -15 47 0 109 -28 109 -50 0 -8 -9
-23 -20 -33 l-20 -17 0 -77 c1 -94 24 -167 68 -217 18 -20 41 -54 52 -76 12
-23 38 -51 62 -66 23 -15 72 -55 109 -90 38 -35 76 -64 86 -64 10 0 32 -9 48
-21 17 -11 95 -54 175 -95 80 -41 170 -91 200 -110 34 -21 67 -34 88 -34 18 0
101 -23 183 -50 82 -28 167 -50 189 -50 21 0 42 -4 45 -10 8 -13 222 -13 230
0 3 6 15 10 25 10 11 0 47 25 81 55 34 30 65 55 70 55 5 0 9 54 9 120 0 67 -4
120 -9 120 -19 0 -41 32 -41 60 0 19 -16 49 -50 92 -27 35 -65 86 -84 114 -20
29 -54 63 -78 77 -24 14 -52 35 -63 47 -11 12 -38 31 -60 43 -22 11 -54 31
-71 44 -17 13 -53 30 -80 38 -27 8 -65 26 -84 40 -63 48 -187 105 -227 105
-38 0 -158 36 -212 64 -53 28 -218 74 -301 85 -30 4 -71 12 -90 18 -50 16
-118 33 -172 43 -26 5 -56 13 -67 19 -11 6 -72 11 -136 11 -80 0 -127 5 -152
15 -28 12 -82 15 -247 15 l-212 0 -28 -29 c-17 -18 -42 -31 -64 -34 -41 -6
-103 -21 -172 -43 -25 -8 -61 -14 -80 -14 -19 0 -73 -14 -120 -30 -46 -17 -96
-30 -110 -30 -14 0 -51 -18 -83 -40 -33 -22 -75 -42 -95 -45 -21 -3 -57 -12
-82 -20 -25 -8 -53 -15 -62 -15 -10 0 -93 -26 -185 -57 l-168 -58 -160 -6
c-151 -6 -188 -11 -295 -45 -26 -8 -86 -14 -142 -14 l-96 0 -46 63 c-25 34
-64 88 -88 121 -24 32 -63 78 -88 102 -25 24 -58 58 -75 75 -128 130 -182 178
-265 234 -53 36 -101 65 -108 65 -7 0 -42 17 -77 39 -35 21 -97 49 -137 61
-40 13 -77 27 -83 32 -12 10 -275 9 -295 -2z m295 -200 c17 -12 91 -52 166
-91 99 -50 144 -79 164 -104 14 -19 44 -44 65 -55 61 -31 214 -191 235 -246
l18 -46 -14 -9 c-23 -15 -166 -10 -206 6 -25 11 -72 15 -165 15 -92 0 -139 4
-165 15 -19 8 -47 15 -61 15 -14 0 -55 13 -91 29 -95 41 -170 71 -218 88 -105
37 -162 168 -115 263 29 59 54 90 91 116 l36 24 115 0 115 0 30 -20z m4112
-455 c40 -13 85 -31 100 -39 44 -22 241 -86 266 -86 29 0 190 -78 247 -119 24
-17 50 -31 59 -31 8 0 29 -13 46 -29 16 -16 59 -49 95 -73 51 -35 68 -53 78
-82 7 -21 35 -63 62 -93 46 -50 90 -125 90 -153 0 -6 -11 -22 -25 -35 l-24
-25 -88 0 -88 0 -63 30 c-35 17 -75 30 -88 30 -14 0 -41 7 -61 15 -19 8 -47
15 -62 15 -14 0 -46 14 -71 30 -26 17 -58 30 -76 30 -66 0 -468 229 -512 292
-8 10 -32 39 -54 65 -44 52 -88 139 -88 176 0 37 28 64 90 86 72 25 82 25 167
-4z m-3366 -324 l24 -19 -14 -39 c-15 -43 -38 -73 -56 -73 -6 0 -52 13 -101
28 l-89 29 -20 37 -20 36 15 10 c8 5 65 10 126 10 l112 0 23 -19z"/>
</g>
</svg>
