<?xml version="1.0" standalone="no"?>
<!DOCTYPE svg PUBLIC "-//W3C//DTD SVG 20010904//EN"
 "http://www.w3.org/TR/2001/REC-SVG-20010904/DTD/svg10.dtd">
<svg version="1.0" xmlns="http://www.w3.org/2000/svg"
 width="360.000000pt" height="525.000000pt" viewBox="0 0 360.000000 525.000000"
 preserveAspectRatio="xMidYMid meet">
<metadata>
Created by potrace 1.16, written by Peter Selinger 2001-2019
</metadata>
<g transform="translate(0.000000,525.000000) scale(0.100000,-0.100000)"
fill="#000000" stroke="none">
<path d="M215 5240 c-3 -5 -18 -10 -33 -10 -45 0 -64 -22 -116 -131 -27 -57
-53 -112 -57 -121 -12 -23 -12 -213 0 -236 5 -9 17 -37 27 -61 10 -24 31 -61
46 -82 15 -21 66 -114 113 -206 46 -92 93 -184 104 -203 10 -19 55 -111 100
-203 45 -93 96 -190 114 -217 18 -26 46 -71 62 -100 65 -112 81 -138 117 -179
20 -24 40 -57 44 -75 3 -17 23 -49 43 -71 62 -68 171 -253 171 -290 0 -15 6
-36 12 -48 7 -12 15 -76 19 -142 6 -115 13 -154 45 -255 8 -25 14 -55 14 -67
0 -12 34 -90 75 -174 46 -93 75 -164 75 -183 0 -22 9 -41 29 -60 16 -15 31
-40 34 -54 3 -15 24 -57 46 -94 23 -37 41 -73 41 -81 0 -8 18 -37 41 -63 22
-27 59 -85 81 -129 22 -44 62 -104 89 -133 26 -29 61 -76 76 -104 15 -28 35
-54 43 -58 66 -30 77 -39 107 -95 20 -39 46 -71 75 -91 25 -18 54 -51 71 -82
15 -28 45 -64 67 -79 21 -15 51 -48 66 -71 16 -24 49 -57 74 -74 25 -16 58
-47 73 -68 15 -22 51 -52 80 -67 32 -17 62 -44 80 -71 16 -23 46 -52 68 -63
22 -11 68 -49 103 -84 38 -40 71 -65 84 -65 11 0 23 -4 27 -10 13 -21 157
-131 203 -155 55 -29 157 -112 157 -129 0 -18 -50 -19 -90 -2 l-37 16 -250 0
c-198 0 -256 3 -285 15 -24 10 -71 15 -150 15 -78 0 -125 5 -150 15 -20 8 -66
15 -105 15 -38 0 -84 7 -105 15 -45 19 -111 19 -156 0 -20 -8 -52 -15 -72 -15
-20 0 -52 7 -72 15 -19 8 -60 15 -90 15 -29 0 -70 7 -90 15 -24 10 -71 15
-150 15 -78 0 -125 5 -150 15 -26 11 -75 15 -192 15 -107 0 -170 4 -201 14
-87 28 -136 38 -210 45 -41 4 -85 13 -97 19 -13 7 -66 12 -132 12 l-110 0 -20
-26 c-31 -39 -28 -72 7 -79 15 -3 48 -12 73 -20 26 -8 70 -15 98 -15 28 0 68
-7 88 -15 19 -8 53 -15 75 -15 21 0 55 -7 75 -15 19 -8 53 -15 75 -15 21 0 55
-7 75 -15 19 -8 60 -15 90 -15 29 0 70 -7 90 -15 22 -9 67 -15 120 -15 52 0
97 -6 120 -15 26 -11 74 -15 180 -15 102 0 154 -4 178 -14 26 -11 83 -15 237
-14 l203 0 39 -16 c21 -9 56 -16 78 -16 21 0 55 -7 75 -15 23 -10 69 -15 135
-15 65 0 111 -5 135 -15 24 -10 71 -15 150 -15 78 0 125 -5 150 -15 26 -11 76
-15 199 -15 98 0 165 -4 169 -10 4 -6 102 -10 260 -10 l254 0 25 25 c14 14 32
25 41 25 11 0 15 11 15 43 0 34 -6 49 -28 70 -15 15 -34 27 -41 27 -6 0 -42
18 -79 40 -36 22 -82 45 -102 50 -19 5 -59 21 -88 35 -28 14 -58 25 -65 25 -7
0 -73 40 -147 90 -74 49 -142 90 -150 90 -8 0 -42 27 -75 60 -32 33 -67 60
-77 60 -9 0 -19 4 -23 10 -8 12 -142 120 -180 144 -16 11 -64 51 -105 91 -41
39 -92 82 -112 95 -20 14 -49 44 -65 69 -15 24 -45 54 -66 68 -21 13 -45 36
-55 51 -32 51 -97 134 -153 196 -31 33 -69 79 -83 101 -14 22 -45 54 -69 71
-30 21 -46 43 -56 72 -9 30 -30 57 -67 90 -30 26 -54 53 -54 60 0 21 -39 91
-97 176 -30 44 -72 113 -94 155 -21 42 -48 92 -58 111 -39 70 -81 177 -81 206
0 16 -14 49 -30 74 -16 25 -30 50 -30 57 0 6 -13 40 -30 75 l-30 63 0 78 0 77
18 0 c9 0 39 -18 66 -40 30 -25 58 -40 76 -40 15 0 42 -5 60 -12 36 -12 115 2
157 28 39 25 73 105 73 175 l0 61 -32 59 c-17 33 -65 95 -107 138 l-76 78 -94
48 c-106 53 -115 53 -238 15 l-72 -23 -33 25 c-18 14 -43 43 -56 64 -76 128
-102 174 -102 185 0 6 -16 29 -35 50 -19 21 -46 62 -61 91 -15 29 -42 70 -60
90 -41 46 -66 95 -88 172 l-17 59 13 8 c21 13 75 10 115 -6 24 -10 69 -15 138
-15 69 0 114 5 138 15 20 8 48 15 62 15 67 0 208 115 254 207 l21 42 0 95 0
95 -56 63 c-31 35 -76 102 -100 150 -28 56 -56 96 -79 113 -19 15 -35 35 -35
45 0 21 -89 94 -227 187 l-93 62 -150 51 c-83 27 -162 50 -175 50 -13 0 -27 5
-30 10 -3 6 -42 10 -85 10 -43 0 -82 -4 -85 -10z m320 -234 c123 -41 169 -62
200 -88 22 -19 59 -45 82 -56 23 -12 50 -34 60 -49 10 -15 44 -53 76 -85 41
-41 57 -64 57 -84 0 -17 13 -41 36 -66 74 -82 104 -194 67 -248 -25 -36 -40
-47 -119 -86 l-72 -34 -66 0 c-37 0 -83 7 -103 15 -19 8 -53 15 -75 15 -21 0
-55 7 -75 15 -19 8 -47 15 -60 15 -56 0 -85 31 -129 139 -10 24 -31 62 -47 84
-31 42 -87 154 -87 173 0 7 -14 41 -31 78 l-31 66 11 33 c9 25 9 42 1 63 -14
36 10 105 47 134 39 30 83 25 258 -34z m754 -1886 c22 -11 49 -36 61 -55 12
-20 40 -48 61 -62 37 -24 50 -55 29 -68 -13 -8 -60 17 -86 47 -12 12 -47 40
-77 62 -63 44 -73 59 -51 81 19 19 17 19 63 -5z"/>
</g>
</svg>
