<?xml version="1.0" standalone="no"?>
<!DOCTYPE svg PUBLIC "-//W3C//DTD SVG 20010904//EN"
 "http://www.w3.org/TR/2001/REC-SVG-20010904/DTD/svg10.dtd">
<svg version="1.0" xmlns="http://www.w3.org/2000/svg"
 width="660.000000pt" height="390.000000pt" viewBox="0 0 660.000000 390.000000"
 preserveAspectRatio="xMidYMid meet">
<metadata>
Created by potrace 1.16, written by Peter Selinger 2001-2019
</metadata>
<g transform="translate(0.000000,390.000000) scale(0.100000,-0.100000)"
fill="#000000" stroke="none">
<path d="M53 3858 l-53 -40 0 -83 0 -82 49 -41 c26 -23 65 -66 85 -96 20 -31
57 -73 81 -93 25 -20 45 -45 45 -55 0 -9 24 -35 53 -57 102 -76 260 -141 344
-141 l48 0 72 77 c42 46 73 88 75 103 l3 25 30 -1 c17 -1 50 -9 75 -18 94 -35
287 -136 334 -175 26 -23 56 -41 65 -41 9 0 34 -10 57 -23 84 -46 148 -83 197
-116 27 -18 64 -37 82 -42 17 -5 49 -24 71 -43 21 -18 59 -43 84 -56 25 -13
59 -33 75 -45 17 -13 53 -35 80 -49 28 -15 75 -43 105 -62 30 -19 66 -38 80
-41 14 -3 45 -24 70 -46 58 -50 134 -94 187 -108 24 -6 63 -29 87 -50 24 -22
50 -39 57 -39 7 0 33 -13 58 -29 25 -16 60 -32 78 -36 17 -3 51 -23 75 -44 46
-40 98 -71 121 -71 7 0 24 -12 38 -26 13 -14 44 -37 69 -51 25 -13 70 -40 100
-59 30 -19 67 -38 82 -41 14 -3 39 -18 54 -34 15 -16 35 -29 43 -29 9 0 30 -9
46 -21 17 -11 53 -32 80 -46 28 -14 71 -43 97 -64 25 -21 78 -55 117 -74 39
-20 106 -60 149 -89 85 -58 154 -96 175 -96 7 0 24 -12 38 -26 23 -25 147 -94
169 -94 25 0 122 -52 157 -83 21 -19 70 -51 108 -71 97 -51 198 -116 232 -149
16 -15 35 -27 42 -27 7 0 45 -16 85 -35 68 -34 114 -61 236 -138 30 -19 66
-40 80 -47 70 -35 194 -127 218 -163 15 -22 45 -61 67 -86 23 -25 59 -68 80
-96 78 -98 285 -297 320 -306 18 -5 68 -40 111 -78 77 -66 130 -101 154 -101
7 0 52 -25 102 -55 l90 -55 112 0 113 0 56 52 57 53 0 56 c0 68 -27 127 -72
158 -18 13 -47 42 -64 65 l-32 41 -63 19 c-35 10 -77 31 -94 45 -74 66 -134
110 -175 131 -25 12 -65 39 -90 60 -58 48 -181 110 -218 110 -29 0 -55 15
-110 62 -18 15 -40 28 -48 28 -8 0 -52 22 -97 49 -84 51 -132 102 -176 189
-11 22 -32 52 -46 66 -26 26 -31 51 -16 75 l9 15 64 -27 c42 -18 81 -27 116
-27 29 0 69 -7 89 -15 19 -8 47 -15 62 -15 40 1 158 45 222 85 31 19 62 35 69
35 32 0 139 71 207 138 l77 74 32 96 c18 54 33 109 34 125 0 30 -55 147 -103
217 -49 71 -79 100 -127 125 -25 13 -86 51 -135 84 -57 39 -100 61 -118 61
-15 0 -44 7 -64 15 -19 8 -53 15 -75 15 -21 0 -55 7 -75 15 -19 8 -53 15 -75
15 -21 0 -55 7 -75 15 -22 9 -68 15 -124 15 l-88 0 -63 -29 c-35 -16 -81 -32
-103 -36 -22 -4 -48 -9 -58 -12 -21 -5 -87 -132 -87 -166 0 -12 -13 -61 -29
-107 -16 -47 -32 -116 -35 -154 l-7 -69 17 -18 c19 -21 54 -113 54 -141 0 -30
36 -128 80 -218 22 -46 40 -97 40 -112 l0 -29 -38 7 c-20 3 -50 19 -67 34 -16
15 -49 37 -71 49 -23 11 -56 38 -74 61 -25 31 -38 40 -62 40 -41 0 -194 74
-294 143 -80 55 -213 127 -235 127 -23 0 -86 34 -132 72 -26 22 -62 44 -81 49
-18 5 -50 24 -73 44 -22 19 -73 51 -114 71 -41 20 -87 47 -104 60 -16 12 -72
44 -124 70 -52 26 -111 62 -131 81 -21 18 -43 33 -50 33 -23 0 -86 35 -209
119 -69 46 -157 99 -196 119 -68 34 -167 103 -194 136 -7 9 -21 16 -30 16 -17
0 -64 24 -152 78 -30 17 -71 37 -91 42 -47 13 -66 24 -160 87 -43 29 -110 69
-149 90 -41 22 -83 52 -100 75 -17 21 -43 41 -57 45 -29 6 -67 28 -283 158
-36 22 -90 54 -119 70 -29 17 -75 45 -103 64 -27 18 -64 37 -82 42 -17 5 -50
25 -73 45 -39 33 -348 194 -372 194 -7 0 -41 14 -77 30 -35 17 -69 30 -75 30
-16 0 -80 32 -113 56 -36 26 -170 94 -186 94 -17 0 -80 31 -114 56 -50 36
-112 64 -144 64 -16 0 -33 5 -36 10 -3 6 -41 10 -83 9 l-77 0 -52 -41z m323
-234 c33 -14 95 -37 139 -52 44 -14 93 -34 109 -45 l28 -20 -5 -38 c-3 -21
-15 -52 -27 -69 l-22 -32 -27 7 c-43 11 -145 99 -199 173 -13 18 -29 32 -36
32 -7 0 -21 9 -31 20 l-18 20 13 15 c15 19 7 20 76 -11z m4964 -1488 c76 -24
132 -37 195 -46 33 -5 92 -20 130 -34 39 -14 82 -26 97 -26 15 0 45 -15 70
-35 24 -19 54 -40 68 -46 14 -6 32 -14 40 -19 8 -4 31 -38 51 -76 21 -38 47
-79 60 -91 l22 -21 -22 -56 c-25 -60 -88 -151 -124 -177 -12 -10 -41 -22 -64
-28 -30 -8 -52 -24 -74 -51 l-32 -40 -111 0 -111 0 -105 35 c-182 62 -260 106
-300 170 l-20 32 0 221 0 222 27 17 c21 14 125 56 153 62 3 1 25 -5 50 -13z
m613 -1670 c18 -13 49 -26 69 -30 21 -4 53 -21 75 -41 50 -45 130 -105 139
-105 11 0 84 -72 84 -82 0 -23 -114 22 -175 68 -17 13 -48 29 -70 36 -24 8
-47 25 -59 43 -11 17 -42 46 -69 65 -66 47 -89 69 -82 80 7 12 47 -3 88 -34z"/>
</g>
</svg>
