<?xml version="1.0" standalone="no"?>
<!DOCTYPE svg PUBLIC "-//W3C//DTD SVG 20010904//EN"
 "http://www.w3.org/TR/2001/REC-SVG-20010904/DTD/svg10.dtd">
<svg version="1.0" xmlns="http://www.w3.org/2000/svg"
 width="390.000000pt" height="171.000000pt" viewBox="0 0 390.000000 171.000000"
 preserveAspectRatio="xMidYMid meet">
<metadata>
Created by potrace 1.16, written by Peter Selinger 2001-2019
</metadata>
<g transform="translate(0.000000,171.000000) scale(0.100000,-0.100000)"
fill="#000000" stroke="none">
<path d="M572 1680 l-32 -30 -83 0 -83 0 -67 -33 c-36 -19 -84 -50 -107 -70
-22 -21 -46 -37 -54 -37 -7 0 -31 -13 -54 -30 -29 -21 -44 -41 -52 -69 -5 -21
-17 -42 -25 -45 l-15 -5 0 -178 1 -178 35 -22 c41 -27 86 -30 108 -7 l16 15 0
140 0 140 97 99 c64 65 110 104 133 111 19 7 46 20 59 30 l24 19 417 0 417 0
29 -22 28 -23 122 -5 122 -5 21 -19 c14 -12 41 -20 88 -23 43 -3 87 -14 121
-30 51 -25 61 -36 43 -47 -5 -3 -12 -18 -15 -32 -4 -15 -18 -41 -32 -59 -30
-40 -30 -63 -1 -107 23 -36 69 -126 84 -166 14 -38 491 -510 523 -517 15 -3
51 -26 80 -51 28 -24 58 -44 65 -44 8 0 31 -15 51 -32 34 -30 106 -70 311
-171 43 -22 95 -47 115 -58 20 -10 53 -19 72 -19 22 0 45 -9 65 -26 l31 -26
75 -5 c60 -5 78 -10 86 -24 l10 -19 97 0 97 0 12 19 c8 12 29 21 64 25 33 5
63 16 82 32 15 13 36 24 46 24 21 0 51 30 51 52 0 9 11 26 25 39 l25 24 0 81
0 81 -25 23 c-19 18 -25 34 -25 66 l0 43 -47 53 c-25 29 -57 63 -70 75 -13 12
-26 36 -30 53 -6 32 -36 60 -64 60 -9 0 -47 29 -84 65 -36 36 -75 65 -86 65
-10 0 -44 23 -74 50 -30 28 -63 50 -73 50 -9 0 -35 12 -57 25 -22 14 -47 25
-55 25 -9 0 -35 20 -59 44 -24 25 -55 47 -70 51 -14 4 -34 14 -44 22 -9 9 -42
20 -73 24 -33 4 -65 16 -78 27 -11 11 -32 23 -46 27 -14 4 -39 16 -56 26 -17
11 -49 19 -71 19 -26 0 -50 8 -73 25 -19 14 -40 25 -48 25 -8 0 -25 9 -39 20
-17 13 -41 20 -69 20 -31 0 -51 7 -73 26 -20 17 -49 28 -84 33 -29 4 -64 15
-77 24 -14 9 -40 17 -60 17 -19 0 -53 12 -75 25 -31 19 -54 25 -99 25 l-58 0
-30 25 -30 25 -86 0 -87 0 -34 21 c-22 13 -59 22 -105 26 -47 4 -79 12 -95 24
l-24 19 -110 0 -111 0 -37 26 -37 25 -20 -12 -21 -13 -19 17 -19 17 -244 0
-244 -1 -33 -29z m1718 -410 c22 -11 52 -20 68 -20 16 0 50 -11 76 -25 26 -14
62 -25 80 -25 18 0 45 -9 59 -20 14 -12 41 -26 59 -32 18 -6 40 -17 49 -25 9
-8 34 -16 55 -19 35 -5 124 -40 164 -65 8 -5 31 -16 50 -24 19 -9 42 -20 50
-25 27 -17 159 -80 168 -80 5 0 29 -20 54 -44 25 -25 58 -48 74 -52 16 -4 53
-26 83 -50 29 -24 61 -44 70 -44 25 0 168 -151 177 -186 4 -16 18 -42 31 -57
12 -16 23 -37 23 -46 0 -10 9 -30 20 -44 15 -19 20 -40 20 -92 l0 -67 -29 -29
-29 -29 -56 0 c-31 0 -73 -7 -95 -16 l-39 -15 -31 15 c-17 9 -55 16 -88 16
-39 0 -67 6 -82 17 -14 9 -47 20 -74 24 -28 5 -59 17 -71 28 -12 11 -33 23
-48 26 -15 4 -32 13 -39 21 -6 8 -30 19 -52 25 -23 6 -52 19 -65 30 -14 10
-33 19 -44 19 -10 0 -40 20 -66 43 -41 38 -162 107 -188 107 -5 0 -118 109
-251 243 -165 164 -244 251 -249 271 -4 16 -29 53 -55 83 -31 34 -49 62 -49
78 0 28 32 65 55 65 8 0 29 9 47 20 43 26 117 26 168 0z"/>
</g>
</svg>
