<?xml version="1.0" standalone="no"?>
<!DOCTYPE svg PUBLIC "-//W3C//DTD SVG 20010904//EN"
 "http://www.w3.org/TR/2001/REC-SVG-20010904/DTD/svg10.dtd">
<svg version="1.0" xmlns="http://www.w3.org/2000/svg"
 width="516.000000pt" height="252.000000pt" viewBox="0 0 516.000000 252.000000"
 preserveAspectRatio="xMidYMid meet">
<metadata>
Created by potrace 1.16, written by Peter Selinger 2001-2019
</metadata>
<g transform="translate(0.000000,252.000000) scale(0.100000,-0.100000)"
fill="#000000" stroke="none">
<path d="M78 2476 c-19 -30 -28 -57 -28 -85 0 -23 -7 -58 -15 -78 -8 -19 -15
-55 -15 -79 0 -23 -4 -46 -10 -49 -13 -8 -13 -102 0 -110 5 -3 10 -46 10 -94
0 -56 6 -102 15 -124 8 -20 15 -54 15 -75 0 -22 7 -56 15 -75 8 -20 15 -56 15
-80 l0 -43 30 -29 c16 -16 30 -35 30 -42 0 -22 66 -146 125 -234 30 -46 55
-90 55 -98 0 -27 131 -211 170 -239 22 -15 51 -47 67 -71 15 -24 45 -54 65
-67 21 -13 49 -41 62 -62 27 -42 86 -99 131 -127 16 -10 50 -37 75 -59 49 -45
109 -88 181 -129 25 -14 58 -42 73 -61 17 -23 40 -39 65 -46 50 -13 67 -22
172 -93 47 -31 91 -57 99 -57 7 0 69 -27 137 -60 69 -33 134 -60 147 -60 23 0
121 -32 133 -43 11 -11 311 -8 318 3 3 5 26 10 51 10 84 0 164 64 164 130 -1
25 -46 82 -91 114 -13 9 -43 16 -67 16 -76 0 -184 58 -269 146 -40 41 -73 79
-73 84 0 17 49 22 97 10 l48 -12 57 16 c41 13 66 28 92 57 l36 39 0 83 0 82
-30 45 c-16 25 -30 53 -30 64 0 30 -177 204 -240 236 -30 15 -75 46 -100 68
-25 21 -55 42 -68 46 -28 9 -28 23 1 32 12 4 38 19 57 34 51 39 103 60 148 60
22 0 56 7 75 15 l36 15 336 0 336 0 36 -15 c26 -11 75 -15 192 -15 l157 0 84
-30 c47 -16 102 -30 122 -30 50 0 56 -16 20 -53 -30 -31 -72 -135 -72 -177 0
-75 93 -242 156 -279 19 -11 44 -36 55 -55 21 -36 101 -97 180 -136 24 -12 64
-39 89 -60 56 -47 104 -70 204 -101 55 -17 92 -35 121 -61 24 -22 54 -38 67
-38 13 0 62 -13 108 -30 47 -16 102 -30 123 -30 21 0 54 -7 74 -15 20 -8 66
-15 104 -15 41 0 86 -7 110 -17 l41 -16 47 16 c25 10 54 17 64 17 10 0 46 9
80 21 73 24 136 80 173 151 13 26 28 49 34 53 13 8 13 162 0 170 -5 3 -10 22
-10 42 l0 35 -49 48 c-27 26 -56 61 -65 78 -19 38 -89 89 -186 138 -41 20 -88
47 -105 60 -36 27 -229 124 -247 124 -7 0 -33 14 -58 30 -25 16 -58 30 -73 30
-15 0 -44 7 -64 15 -19 8 -45 15 -56 15 -11 0 -101 27 -201 59 -228 74 -255
82 -341 90 -38 4 -106 19 -150 33 -122 40 -163 49 -245 57 -41 4 -85 13 -97
19 -12 7 -47 12 -78 12 -30 0 -72 7 -92 15 l-35 15 -450 0 c-300 0 -456 -4
-469 -11 -11 -6 -41 -14 -67 -19 -121 -23 -256 -65 -300 -95 -20 -14 -49 -25
-65 -25 -41 0 -83 -25 -164 -97 -57 -50 -75 -74 -84 -106 -6 -23 -20 -59 -31
-80 l-19 -39 10 -30 c6 -17 11 -49 11 -72 1 -39 10 -60 103 -231 8 -16 21 -45
28 -63 25 -68 101 -167 207 -271 60 -58 122 -115 137 -126 14 -11 27 -29 28
-40 l2 -20 -50 3 c-32 2 -64 13 -87 28 -21 13 -73 35 -115 49 -89 29 -116 41
-158 72 -16 12 -80 47 -142 77 -67 34 -132 75 -165 105 -29 26 -76 60 -104 74
-67 34 -227 181 -237 218 -4 15 -31 49 -61 76 -29 26 -56 60 -60 75 -3 14 -30
48 -59 75 -29 26 -76 76 -103 111 -27 34 -66 84 -87 110 -45 55 -91 141 -106
198 -6 22 -29 70 -51 106 -22 37 -40 79 -40 93 0 15 -5 36 -12 48 -6 12 -14
48 -19 82 -8 62 -20 117 -45 195 -19 60 -18 191 1 237 10 24 15 70 15 139 l0
104 -42 0 -43 -1 -27 -43z m3849 -1286 c35 -16 69 -30 75 -30 5 0 39 -13 75
-30 35 -16 75 -30 89 -30 14 0 41 -7 61 -15 19 -8 47 -15 61 -15 14 0 91 -32
171 -71 80 -39 158 -75 172 -79 49 -14 229 -141 255 -178 13 -21 38 -55 54
-76 35 -45 39 -95 15 -153 -21 -50 -42 -71 -92 -94 -53 -24 -186 -26 -240 -4
-19 8 -47 15 -60 15 -14 0 -54 14 -90 30 -35 17 -75 30 -89 30 -14 0 -41 7
-61 15 -19 8 -47 15 -62 15 -28 0 -54 15 -109 62 -18 15 -40 28 -49 28 -9 0
-61 22 -117 49 -164 79 -346 250 -393 370 l-16 40 18 28 c10 15 37 49 59 75
l41 48 83 0 84 0 65 -30z m-2139 -184 c32 -19 82 -48 112 -64 l55 -29 53 -86
c50 -83 56 -109 27 -121 -21 -8 -113 28 -143 56 -15 14 -40 29 -56 32 -50 12
-83 43 -115 108 -35 69 -38 99 -15 122 20 21 17 21 82 -18z"/>
<path d="M2605 445 c-16 -8 -49 -14 -73 -15 -70 0 -162 -54 -162 -95 0 -44 8
-45 327 -45 l304 0 32 16 c90 46 91 93 2 136 -42 21 -387 23 -430 3z"/>
</g>
</svg>
