<?xml version="1.0" standalone="no"?>
<!DOCTYPE svg PUBLIC "-//W3C//DTD SVG 20010904//EN"
 "http://www.w3.org/TR/2001/REC-SVG-20010904/DTD/svg10.dtd">
<svg version="1.0" xmlns="http://www.w3.org/2000/svg"
 width="735.000000pt" height="273.000000pt" viewBox="0 0 735.000000 273.000000"
 preserveAspectRatio="xMidYMid meet">
<metadata>
Created by potrace 1.16, written by Peter Selinger 2001-2019
</metadata>
<g transform="translate(0.000000,273.000000) scale(0.100000,-0.100000)"
fill="#000000" stroke="none">
<path d="M0 2676 l0 -54 43 -37 c23 -20 71 -54 107 -75 36 -21 74 -48 85 -60
22 -24 86 -60 107 -60 8 0 51 -25 96 -55 89 -59 154 -95 172 -95 19 0 139 -58
173 -84 18 -14 64 -35 102 -47 39 -12 84 -34 100 -49 63 -57 103 -80 182 -105
50 -16 96 -39 119 -59 40 -34 114 -76 135 -76 17 0 80 -31 114 -56 47 -34 147
-82 230 -109 42 -14 108 -46 150 -74 79 -54 147 -91 165 -91 6 0 41 -18 78
-40 37 -23 78 -43 92 -47 14 -3 46 -18 71 -34 25 -16 58 -29 73 -29 32 0 87
-24 131 -56 46 -33 112 -64 137 -64 46 0 171 -48 223 -86 17 -12 78 -38 138
-58 l107 -36 108 0 c65 0 125 -6 152 -14 60 -19 125 -35 182 -46 26 -5 56 -13
67 -19 11 -6 45 -11 76 -11 30 0 72 -7 92 -15 l35 -15 283 0 283 0 35 15 c20
8 55 15 77 15 22 0 63 11 90 24 28 13 88 36 135 51 46 15 108 42 137 61 29 18
85 49 124 69 l72 35 232 0 232 0 65 -30 c38 -18 81 -30 105 -30 23 0 67 -12
105 -30 35 -16 77 -30 93 -30 40 0 72 -47 78 -114 5 -54 33 -149 59 -200 31
-60 95 -146 124 -167 16 -11 29 -29 29 -40 0 -12 22 -34 61 -62 66 -45 110
-86 148 -137 13 -17 42 -43 64 -57 22 -14 61 -45 86 -68 25 -24 80 -60 121
-81 41 -20 89 -47 105 -60 17 -12 59 -32 95 -43 36 -12 73 -26 82 -31 23 -13
255 -13 263 0 3 5 15 10 25 10 19 0 28 10 75 83 l25 38 0 100 c0 54 -4 107 -9
117 -5 9 -17 37 -27 62 -33 83 -274 313 -391 374 -17 8 -51 33 -76 54 -24 21
-59 44 -78 51 -61 23 -85 36 -270 149 -30 17 -70 37 -90 42 -19 5 -68 26 -108
45 -86 42 -213 83 -326 104 -22 4 -56 12 -75 18 -52 16 -119 33 -172 43 -26 5
-56 13 -67 19 -11 6 -38 11 -61 11 -22 0 -57 7 -77 15 -28 12 -82 15 -257 15
l-221 0 -69 -25 c-38 -13 -95 -40 -127 -60 -31 -19 -64 -35 -72 -35 -7 0 -32
-13 -53 -28 -44 -32 -106 -62 -126 -62 -7 0 -33 -14 -58 -30 l-45 -30 -320 0
c-255 0 -329 3 -365 15 -25 8 -58 17 -74 20 l-28 6 7 22 c32 105 6 168 -117
281 -58 52 -91 76 -108 76 -14 0 -64 13 -110 30 l-85 30 -163 0 -163 0 -49
-25 c-60 -30 -80 -58 -80 -110 0 -22 -4 -46 -9 -54 l-9 -14 -32 12 c-18 6 -45
11 -59 11 -44 0 -93 34 -131 91 l-36 54 -104 6 c-58 3 -118 11 -135 17 -16 6
-47 14 -68 17 -29 5 -51 19 -92 61 -30 30 -61 54 -70 54 -25 0 -137 54 -186
89 -23 17 -49 31 -57 31 -22 0 -196 85 -243 120 -23 16 -49 30 -57 30 -22 0
-196 85 -243 120 -23 16 -49 30 -57 30 -19 0 -201 90 -272 136 -30 19 -69 38
-87 43 -18 5 -45 18 -61 30 -38 27 -220 116 -252 124 -14 4 -43 22 -65 40 -45
39 -164 101 -212 111 -17 4 -51 24 -75 44 -25 22 -69 45 -103 56 -33 11 -64
23 -70 28 -5 4 -19 8 -32 8 l-23 0 0 -54z m3227 -1295 c99 -10 143 -26 213
-79 56 -42 64 -56 44 -76 -22 -22 -33 -21 -154 20 l-107 36 -51 46 c-49 45
-62 62 -44 62 4 0 48 -5 99 -9z m3068 -456 c68 -21 146 -58 196 -95 23 -16 49
-30 57 -30 33 0 161 -71 212 -118 31 -27 83 -64 117 -81 117 -60 313 -288 313
-365 0 -39 -52 -70 -126 -74 l-62 -4 -73 36 c-92 45 -197 114 -286 187 -89 74
-243 233 -276 286 -14 23 -47 58 -72 79 -33 28 -45 46 -45 65 0 15 -7 43 -15
62 -14 33 -12 67 4 67 3 0 29 -7 56 -15z"/>
</g>
</svg>
