<?xml version="1.0" standalone="no"?>
<!DOCTYPE svg PUBLIC "-//W3C//DTD SVG 20010904//EN"
 "http://www.w3.org/TR/2001/REC-SVG-20010904/DTD/svg10.dtd">
<svg version="1.0" xmlns="http://www.w3.org/2000/svg"
 width="642.000000pt" height="198.000000pt" viewBox="0 0 642.000000 198.000000"
 preserveAspectRatio="xMidYMid meet">
<metadata>
Created by potrace 1.16, written by Peter Selinger 2001-2019
</metadata>
<g transform="translate(0.000000,198.000000) scale(0.100000,-0.100000)"
fill="#000000" stroke="none">
<path d="M210 1970 c-8 -4 -34 -16 -58 -26 -24 -10 -68 -43 -98 -73 l-54 -56
0 -69 0 -68 28 -34 c79 -99 96 -114 134 -124 21 -6 52 -19 67 -28 112 -68 139
-83 161 -87 14 -3 43 -10 65 -16 22 -6 67 -14 100 -19 33 -4 84 -20 112 -34
29 -14 65 -26 79 -26 14 0 55 -13 91 -30 37 -17 81 -30 104 -30 22 0 56 -7 76
-15 22 -9 67 -15 120 -15 52 0 97 -6 120 -15 19 -8 60 -15 89 -15 29 0 71 -7
92 -15 l38 -16 334 4 c237 2 348 7 380 16 190 55 266 84 303 117 23 19 47 34
54 34 21 0 66 -25 88 -50 11 -12 41 -33 67 -46 26 -13 55 -36 65 -51 10 -14
38 -46 63 -70 57 -55 94 -92 146 -146 22 -23 53 -50 67 -60 15 -10 39 -41 53
-70 24 -46 77 -114 155 -198 44 -47 99 -50 152 -8 l27 20 0 120 c0 149 11 180
90 248 l58 51 98 0 c68 0 112 5 142 17 l44 17 44 -12 c30 -8 52 -9 69 -2 39
15 121 12 162 -5 24 -10 71 -15 149 -15 63 0 125 -5 141 -12 25 -10 134 -26
220 -31 55 -3 59 -18 24 -92 -17 -37 -31 -80 -31 -96 0 -34 54 -146 111 -230
57 -83 228 -228 331 -281 33 -17 78 -46 98 -64 21 -19 43 -34 50 -34 6 0 41
-13 77 -30 35 -16 69 -30 75 -30 17 0 81 -32 122 -62 21 -15 52 -28 68 -28 17
0 59 -14 95 -30 l64 -30 119 0 c68 0 121 -4 125 -10 8 -13 72 -13 80 0 3 6 38
10 76 10 92 0 178 29 240 82 l49 41 0 147 0 146 -37 37 c-21 20 -60 59 -88 86
-27 27 -77 62 -110 79 -34 17 -101 58 -150 91 -50 34 -97 61 -105 61 -8 0 -57
20 -108 45 -52 25 -99 45 -105 45 -7 0 -32 14 -57 30 -25 16 -56 30 -70 30
-30 0 -123 31 -198 66 -29 13 -64 24 -78 24 -14 0 -55 14 -91 30 -35 17 -75
30 -89 30 -14 0 -41 7 -61 15 -19 8 -52 15 -72 15 -20 0 -56 6 -81 14 -141 45
-308 75 -408 76 -34 0 -79 7 -99 15 -24 10 -71 15 -150 15 -78 0 -125 5 -150
15 -49 21 -227 21 -276 0 -23 -9 -68 -15 -121 -15 l-84 0 -64 -30 c-34 -16
-69 -30 -76 -30 -7 0 -48 -18 -91 -40 -55 -27 -92 -54 -124 -91 l-45 -51 -23
7 c-13 4 -116 98 -229 209 -113 110 -227 213 -253 228 -30 17 -47 34 -47 46 0
22 -30 52 -52 52 -9 0 -22 7 -29 17 -28 33 -119 93 -142 93 -16 0 -38 -14 -61
-40 l-36 -40 0 -63 c0 -71 -14 -99 -63 -121 -65 -30 -152 -56 -188 -56 -20 0
-53 -7 -72 -15 -28 -12 -80 -15 -222 -15 -142 0 -194 3 -222 15 -19 8 -60 15
-90 15 -29 0 -70 7 -90 15 -20 8 -66 15 -105 15 -38 0 -84 7 -105 15 -19 8
-53 15 -75 15 -21 0 -55 7 -75 15 -19 8 -58 15 -86 15 -33 0 -100 17 -204 52
-180 60 -190 68 -178 151 15 109 2 215 -31 247 -23 22 -156 90 -178 90 -8 0
-18 5 -21 10 -7 12 -124 12 -145 0z m104 -172 c55 -15 66 -25 66 -59 0 -15 5
-40 10 -55 12 -31 -1 -54 -32 -54 -47 0 -168 72 -168 100 0 13 60 80 72 80 6
0 29 -5 52 -12z m4892 -903 c72 -33 168 -65 195 -65 11 0 50 -13 86 -30 35
-16 76 -30 89 -30 14 0 55 -18 92 -40 37 -23 78 -43 92 -47 14 -3 46 -18 71
-34 25 -16 52 -29 61 -29 8 0 27 -13 42 -29 15 -16 40 -31 54 -34 15 -3 45
-21 67 -40 22 -19 63 -46 91 -61 29 -15 59 -35 67 -44 44 -49 60 -148 31 -190
-8 -12 -36 -31 -61 -43 l-45 -21 -132 -1 c-95 0 -145 4 -181 15 -62 20 -127
37 -185 48 -48 9 -77 22 -125 56 -44 31 -165 90 -201 98 -17 4 -56 28 -85 53
-30 25 -78 62 -107 80 -30 19 -62 49 -73 66 -10 18 -48 59 -85 92 l-66 60 4
65 c2 48 9 74 26 98 l23 32 100 0 100 0 55 -25z"/>
</g>
</svg>
