<?xml version="1.0" standalone="no"?>
<!DOCTYPE svg PUBLIC "-//W3C//DTD SVG 20010904//EN"
 "http://www.w3.org/TR/2001/REC-SVG-20010904/DTD/svg10.dtd">
<svg version="1.0" xmlns="http://www.w3.org/2000/svg"
 width="903.000000pt" height="144.000000pt" viewBox="0 0 903.000000 144.000000"
 preserveAspectRatio="xMidYMid meet">
<metadata>
Created by potrace 1.16, written by Peter Selinger 2001-2019
</metadata>
<g transform="translate(0.000000,144.000000) scale(0.100000,-0.100000)"
fill="#000000" stroke="none">
<path d="M5177 1412 l-27 -28 0 -76 c0 -41 5 -90 11 -108 l12 -32 -14 -9 c-8
-5 -151 -9 -319 -9 l-305 1 -40 24 -39 24 -44 -25 -44 -26 -42 16 -42 16 -277
0 -278 0 -36 15 c-26 11 -76 15 -195 15 -118 0 -168 4 -195 15 l-35 15 -355 0
-354 0 -36 15 -35 15 -459 0 -459 0 -41 17 -41 16 -48 -17 -48 -17 -37 15 -37
16 -568 0 -568 0 -35 -15 c-20 -8 -61 -15 -92 -15 l-55 0 0 -54 0 -53 45 -13
c36 -10 55 -10 85 -1 31 9 46 9 72 -2 25 -11 111 -14 361 -16 229 -1 337 -6
355 -14 20 -9 218 -14 722 -19 382 -4 724 -9 760 -13 59 -6 168 -9 260 -6 19
0 181 -3 360 -7 230 -5 331 -11 347 -19 15 -9 81 -13 228 -13 160 0 214 -3
242 -15 26 -11 74 -15 180 -15 105 0 153 -4 180 -15 l35 -15 265 0 264 0 36
-15 c49 -21 223 -20 279 1 l41 16 38 -16 c28 -12 73 -16 177 -16 l140 0 29 29
c49 49 33 141 -24 141 -24 0 -87 59 -87 81 0 33 56 23 157 -27 103 -50 132
-81 140 -147 11 -80 61 -154 135 -200 15 -10 43 -41 61 -70 58 -90 167 -207
217 -232 26 -13 84 -49 128 -79 86 -59 179 -96 239 -96 35 1 122 25 151 43 19
13 52 83 52 112 0 55 -41 145 -96 215 -31 38 -60 70 -65 70 -4 0 -48 38 -96
84 -48 46 -108 94 -133 106 -25 13 -58 33 -75 45 -16 12 -50 33 -75 46 -50 26
-90 58 -90 71 0 5 19 18 43 28 55 25 248 28 304 5 45 -19 81 -19 128 1 l38 16
41 -16 c28 -11 74 -16 139 -16 64 0 110 -5 134 -15 19 -8 60 -15 90 -15 29 0
70 -7 90 -15 19 -8 53 -15 75 -15 23 0 67 -13 105 -30 35 -17 70 -30 77 -30
26 0 36 -26 36 -92 0 -111 53 -246 115 -294 19 -14 35 -34 35 -44 0 -25 45
-76 92 -106 21 -13 49 -42 63 -64 19 -30 41 -48 83 -67 75 -34 71 -31 137 -84
65 -53 332 -189 426 -218 98 -29 151 -42 192 -48 20 -3 40 -9 43 -14 3 -5 93
-9 200 -9 l195 0 54 41 55 41 0 104 c0 58 -4 106 -10 109 -5 3 -10 15 -10 25
0 11 -22 45 -50 75 -27 30 -61 73 -75 94 -13 22 -35 45 -47 52 -13 6 -42 27
-66 47 -62 49 -131 96 -181 122 -24 12 -60 34 -81 48 -45 33 -184 97 -318 146
-18 7 -45 25 -60 39 -16 16 -39 27 -55 27 -15 0 -44 7 -64 15 -19 8 -45 15
-57 15 -45 0 -129 38 -153 69 -40 51 -110 81 -191 81 -50 0 -90 8 -152 30 -47
16 -94 30 -105 30 -12 0 -59 13 -105 30 -47 16 -102 30 -123 30 -21 0 -54 7
-74 15 -22 9 -67 15 -120 15 -52 0 -97 6 -120 15 -19 8 -60 15 -90 15 -29 0
-70 7 -90 15 -19 8 -48 15 -63 15 -15 0 -44 -7 -63 -15 -25 -10 -71 -15 -147
-15 -76 0 -122 5 -147 15 -19 8 -48 15 -63 15 -15 0 -44 -7 -63 -15 -23 -9
-68 -15 -120 -15 -53 0 -98 -6 -120 -15 -20 -8 -66 -15 -103 -15 -68 0 -113
15 -169 56 -16 12 -59 32 -95 43 -36 12 -73 26 -82 31 -10 6 -57 10 -106 10
l-88 0 -27 -28z m933 -532 c26 -22 53 -46 60 -55 7 -8 32 -20 56 -26 34 -9 62
-29 128 -95 81 -79 100 -113 83 -141 -14 -23 -72 -15 -114 16 -21 15 -87 76
-146 135 -58 58 -110 106 -116 106 -18 0 -51 53 -51 82 l0 30 27 -7 c15 -3 48
-24 73 -45z m1677 15 c30 -14 115 -45 187 -69 73 -24 151 -53 174 -65 23 -11
47 -21 54 -21 7 0 30 -11 50 -25 20 -14 69 -41 108 -60 38 -20 105 -60 147
-89 43 -29 93 -61 111 -70 18 -9 61 -45 96 -79 34 -34 75 -70 90 -81 35 -23
70 -98 60 -129 -4 -12 -15 -34 -26 -49 l-19 -28 -98 0 c-101 0 -157 13 -269
66 -29 13 -64 24 -79 24 -28 0 -195 80 -283 136 -30 19 -66 37 -80 41 -14 3
-41 20 -61 37 -19 17 -59 49 -88 71 -101 76 -181 172 -230 275 -37 78 -38 84
-6 115 32 33 89 33 162 0z"/>
</g>
</svg>
