<?xml version="1.0" standalone="no"?>
<!DOCTYPE svg PUBLIC "-//W3C//DTD SVG 20010904//EN"
 "http://www.w3.org/TR/2001/REC-SVG-20010904/DTD/svg10.dtd">
<svg version="1.0" xmlns="http://www.w3.org/2000/svg"
 width="1026.000000pt" height="357.000000pt" viewBox="0 0 1026.000000 357.000000"
 preserveAspectRatio="xMidYMid meet">
<metadata>
Created by potrace 1.16, written by Peter Selinger 2001-2019
</metadata>
<g transform="translate(0.000000,357.000000) scale(0.100000,-0.100000)"
fill="#000000" stroke="none">
<path d="M6125 3560 c-3 -5 -20 -10 -36 -10 -50 0 -146 -55 -212 -122 l-62
-63 -33 -100 -33 -99 4 -76 c4 -72 13 -113 43 -210 8 -25 14 -70 14 -100 l0
-55 39 -58 c22 -32 43 -72 47 -90 3 -17 22 -49 40 -69 19 -21 55 -79 80 -130
26 -51 69 -117 96 -147 27 -30 61 -77 75 -105 14 -28 44 -71 68 -96 23 -25 50
-59 60 -75 10 -17 77 -91 149 -166 72 -74 168 -178 213 -230 44 -53 107 -114
139 -135 35 -24 73 -63 96 -96 27 -39 55 -66 92 -86 29 -17 60 -42 69 -56 9
-14 38 -39 64 -56 27 -17 61 -49 77 -71 17 -25 46 -48 75 -61 62 -28 60 -27
124 -78 31 -25 95 -65 142 -89 55 -27 95 -56 112 -78 26 -34 75 -65 123 -76
14 -4 43 -22 65 -40 39 -33 174 -107 195 -107 6 0 44 -19 83 -43 40 -24 80
-46 90 -50 47 -17 22 -67 -34 -67 -14 0 -43 -7 -62 -15 -20 -8 -61 -15 -90
-15 -30 0 -71 -7 -90 -15 -27 -11 -77 -15 -195 -15 -119 0 -169 -4 -195 -15
-43 -18 -92 -19 -137 -4 -24 9 -45 9 -86 -1 l-53 -13 -43 16 c-32 13 -77 17
-171 17 -91 0 -138 4 -164 15 -19 8 -53 15 -75 15 -24 0 -56 10 -82 25 l-44
25 -26 -10 c-40 -15 -121 -12 -163 5 -19 8 -60 15 -90 15 -29 0 -70 7 -90 15
-19 8 -65 15 -102 15 -49 0 -90 8 -151 30 -47 16 -94 30 -105 30 -10 0 -60 13
-110 29 -100 32 -158 48 -225 61 -25 5 -96 34 -158 64 -62 31 -117 56 -124 56
-6 0 -49 18 -95 40 -47 22 -92 40 -100 40 -40 0 -124 -33 -143 -57 -24 -31
-25 -42 -3 -104 l17 -48 -19 -58 c-10 -32 -22 -62 -26 -67 -14 -16 -203 -76
-240 -76 -20 0 -53 -7 -72 -15 -51 -21 -273 -21 -324 0 -20 8 -66 15 -105 15
-38 0 -84 7 -105 15 -22 9 -67 15 -120 15 -52 0 -97 6 -120 15 -19 8 -51 15
-71 15 -55 0 -161 40 -179 67 l-16 23 17 43 c25 65 21 182 -7 232 l-22 40
-100 52 c-55 29 -113 52 -128 53 -15 0 -44 7 -64 15 -48 20 -155 19 -227 -2
l-59 -18 -44 -59 -44 -59 7 -61 c4 -34 15 -81 26 -105 14 -33 16 -47 7 -57
l-11 -14 -425 0 -424 0 -36 15 c-26 11 -76 15 -194 15 -103 0 -168 4 -186 12
-17 8 -106 15 -223 20 -107 3 -214 10 -237 13 -24 4 -57 2 -76 -5 l-35 -11
-37 16 c-24 9 -68 15 -122 15 -52 0 -97 6 -120 15 -27 12 -81 15 -240 15 -158
0 -212 3 -240 15 -53 22 -279 21 -344 -2 l-49 -18 0 -40 c0 -57 39 -95 98 -95
24 0 59 -7 79 -15 l35 -15 265 0 264 0 36 -15 c19 -8 60 -15 90 -15 29 0 70
-7 90 -15 27 -12 81 -15 240 -15 158 0 212 -3 240 -15 19 -8 60 -15 90 -15 29
0 68 -6 86 -14 24 -9 98 -13 285 -14 199 -2 260 -5 289 -17 l35 -15 474 0 474
0 41 -17 41 -16 49 17 48 18 88 -42 c126 -59 284 -110 343 -110 28 0 67 -7 87
-15 19 -8 53 -15 74 -15 21 0 50 -5 66 -12 28 -11 66 -18 218 -37 44 -5 177
-10 296 -10 171 -1 224 2 252 14 20 8 52 15 72 15 34 0 225 59 277 86 14 7 37
28 50 46 12 18 43 56 68 85 25 29 54 64 66 79 l21 28 49 -14 c27 -7 70 -26 95
-41 31 -20 59 -29 88 -29 23 0 58 -7 78 -15 19 -8 47 -15 60 -15 14 0 54 -13
90 -30 37 -17 81 -30 104 -30 22 0 56 -7 76 -15 19 -8 59 -15 87 -15 32 0 84
-11 136 -30 62 -21 104 -30 153 -30 37 0 84 -7 104 -15 19 -8 60 -15 90 -15
29 0 70 -7 90 -15 19 -8 53 -15 75 -15 21 0 55 -7 75 -15 27 -11 77 -15 210
-15 132 0 182 -4 210 -15 l35 -15 328 0 328 0 35 15 c20 8 55 15 77 15 23 0
51 5 63 12 12 6 48 14 82 19 62 8 117 20 195 45 25 8 75 14 111 14 37 0 83 7
102 15 46 19 98 19 144 0 19 -8 47 -15 61 -15 13 0 63 -18 110 -41 125 -58
283 -109 342 -109 28 0 67 -7 87 -15 19 -8 53 -15 75 -15 21 0 55 -7 75 -15
19 -8 55 -15 79 -15 23 0 46 -5 49 -10 8 -14 462 -14 470 0 3 6 14 10 23 10 9
0 37 14 62 30 25 16 52 30 61 30 8 0 27 13 42 28 l27 28 0 135 0 134 -70 80
c-38 44 -70 83 -70 86 0 15 -149 124 -214 156 -39 20 -84 46 -101 59 -16 12
-78 38 -138 58 -85 28 -123 36 -182 36 -41 0 -94 5 -118 12 l-44 11 -80 -26
c-44 -15 -90 -27 -102 -27 -41 0 -97 -35 -246 -153 -68 -54 -174 -122 -243
-154 l-74 -35 -41 6 c-22 4 -69 20 -104 36 -36 17 -69 30 -75 30 -16 0 -80 32
-113 56 -38 28 -162 89 -197 98 -14 3 -51 28 -81 56 -29 27 -96 70 -147 96
-51 26 -108 60 -127 77 -19 17 -52 42 -73 56 -21 14 -72 53 -112 86 -40 33
-86 68 -101 78 -15 10 -53 40 -83 68 -30 27 -59 49 -65 49 -16 0 -333 314
-394 390 -28 36 -93 108 -143 161 -49 53 -102 115 -116 137 -14 22 -39 50 -55
62 -17 12 -31 30 -31 40 0 11 -25 48 -56 82 -31 35 -67 85 -81 113 -14 27 -35
64 -47 80 -26 35 -46 80 -46 100 l0 15 319 0 319 0 35 15 c20 8 54 15 76 15
23 0 67 13 104 30 36 17 70 30 76 30 6 0 46 18 89 39 58 29 96 59 155 119 l77
80 0 68 0 68 -67 101 c-76 115 -122 167 -177 202 -22 14 -60 45 -85 68 -42 39
-175 115 -201 115 -6 0 -36 12 -67 26 -77 35 -231 81 -306 91 -20 3 -40 9 -43
14 -7 13 -461 12 -469 -1z m502 -195 c19 -8 47 -15 60 -15 14 0 54 -13 90 -30
35 -16 69 -30 75 -30 5 0 39 -13 75 -30 35 -16 70 -30 77 -30 7 0 32 -15 56
-32 24 -18 62 -46 84 -62 23 -16 47 -37 53 -47 7 -9 33 -40 57 -69 24 -28 52
-72 61 -97 l18 -47 -19 -35 c-12 -21 -30 -38 -46 -42 -15 -4 -40 -16 -56 -27
-16 -12 -75 -37 -133 -56 l-104 -36 -363 0 -363 0 -42 19 c-45 21 -78 48 -102
84 -22 35 -65 169 -65 206 0 18 -8 55 -17 82 l-17 48 18 58 c33 101 47 123
104 163 l55 40 204 0 c158 0 212 -3 240 -15z m-3240 -2642 c45 -21 52 -41 24
-65 -32 -25 -74 -23 -110 8 -35 29 -39 48 -13 63 25 15 59 13 99 -6z m6265
-65 c44 -15 86 -36 112 -59 22 -20 57 -40 75 -44 52 -11 220 -183 243 -249 12
-34 14 -54 8 -66 -15 -28 -130 -80 -177 -80 -22 0 -57 -7 -76 -15 -46 -19
-128 -19 -174 0 -19 8 -53 15 -75 15 -21 0 -55 7 -75 15 -19 8 -45 15 -57 15
-12 0 -60 13 -106 30 -47 16 -102 30 -123 30 -21 0 -54 7 -74 15 -19 8 -47 15
-62 15 -42 0 -211 89 -211 112 0 10 4 18 10 18 5 0 16 12 24 28 21 42 65 81
121 109 27 14 70 42 95 63 25 20 61 44 80 53 l35 17 168 0 169 0 70 -22z"/>
</g>
</svg>
