<?xml version="1.0" standalone="no"?>
<!DOCTYPE svg PUBLIC "-//W3C//DTD SVG 20010904//EN"
 "http://www.w3.org/TR/2001/REC-SVG-20010904/DTD/svg10.dtd">
<svg version="1.0" xmlns="http://www.w3.org/2000/svg"
 width="360.000000pt" height="345.000000pt" viewBox="0 0 360.000000 345.000000"
 preserveAspectRatio="xMidYMid meet">
<metadata>
Created by potrace 1.16, written by Peter Selinger 2001-2019
</metadata>
<g transform="translate(0.000000,345.000000) scale(0.100000,-0.100000)"
fill="#000000" stroke="none">
<path d="M13 3423 c-15 -31 -18 -214 -4 -241 5 -9 17 -37 27 -61 10 -24 36
-65 56 -90 21 -25 42 -61 47 -79 5 -18 33 -58 61 -89 28 -31 62 -78 76 -106
39 -76 102 -164 135 -188 16 -11 29 -29 29 -40 0 -10 31 -53 70 -94 43 -47 73
-89 79 -112 6 -20 28 -55 50 -77 44 -46 251 -353 251 -373 0 -8 32 -50 71 -96
39 -45 82 -104 96 -132 14 -27 35 -61 48 -75 13 -14 47 -61 77 -105 29 -44 69
-101 89 -125 20 -25 48 -68 62 -97 15 -28 40 -62 56 -75 38 -29 91 -100 121
-158 13 -25 45 -69 71 -98 27 -29 53 -69 58 -88 6 -21 36 -63 74 -104 36 -37
81 -99 101 -137 20 -38 56 -92 81 -120 25 -28 45 -58 45 -67 0 -9 31 -50 70
-92 38 -41 73 -87 77 -102 3 -14 37 -62 75 -105 37 -44 68 -83 68 -88 0 -5 20
-9 45 -9 72 0 86 51 35 122 -17 23 -37 66 -46 95 -12 40 -25 61 -54 84 -23 19
-54 61 -76 103 -21 39 -62 106 -91 150 -30 43 -63 97 -75 120 -23 45 -61 102
-125 186 -104 134 -121 158 -151 206 -18 28 -32 58 -32 66 0 8 -10 23 -21 34
-33 29 -92 112 -127 179 -18 33 -55 87 -83 119 -28 33 -63 85 -79 116 -16 31
-44 69 -64 83 -21 17 -39 41 -45 63 -5 20 -21 50 -34 67 -13 18 -34 52 -47 77
-13 25 -45 69 -72 99 -27 30 -60 75 -73 100 -12 25 -35 57 -49 70 -14 14 -26
31 -26 38 0 20 -36 87 -56 104 -27 22 -87 108 -122 174 -18 33 -55 86 -83 119
-27 32 -57 73 -66 90 -9 17 -33 51 -54 76 -40 47 -89 147 -89 180 0 12 9 22
23 25 25 7 68 -11 147 -61 30 -19 66 -37 80 -41 14 -3 39 -18 55 -33 17 -15
48 -38 70 -50 22 -11 63 -36 92 -53 28 -18 66 -41 84 -52 19 -11 63 -38 100
-60 36 -22 90 -53 119 -70 29 -16 75 -45 102 -63 27 -18 82 -49 121 -69 40
-20 86 -46 102 -58 37 -28 161 -90 195 -98 14 -4 44 -22 67 -42 23 -19 90 -60
150 -90 59 -29 130 -72 157 -94 26 -23 55 -41 63 -41 38 0 123 -52 123 -75 0
-16 -100 -85 -123 -85 -19 0 -107 -113 -107 -139 0 -9 -14 -45 -30 -79 -17
-35 -30 -70 -30 -77 0 -7 13 -42 30 -77 16 -34 30 -71 30 -80 0 -10 34 -55 75
-99 41 -45 75 -85 75 -89 0 -12 135 -117 177 -138 21 -11 49 -22 63 -25 14 -4
43 -22 65 -40 22 -19 54 -41 70 -50 41 -20 241 -87 263 -87 10 0 56 -13 102
-30 98 -34 203 -40 263 -15 20 8 55 15 77 15 63 0 211 86 258 149 l22 30 0
114 0 114 -30 26 c-16 15 -40 44 -53 64 -39 62 -208 199 -263 215 -20 5 -45
24 -61 44 -16 21 -57 52 -102 75 -42 22 -101 55 -131 74 -30 18 -83 51 -118
72 -35 21 -82 53 -105 71 -23 18 -55 40 -71 50 -15 9 -53 33 -83 54 -31 20
-70 39 -88 42 -18 4 -53 24 -78 46 -25 22 -51 40 -58 40 -7 0 -33 13 -58 29
-25 16 -57 31 -71 34 -14 4 -44 22 -67 42 -23 20 -104 67 -180 106 -76 39
-163 86 -193 105 -30 19 -66 37 -80 41 -14 3 -38 18 -55 33 -16 15 -46 36 -65
45 -19 10 -49 29 -67 42 -17 13 -47 28 -65 34 -19 5 -53 25 -75 44 -23 19 -90
60 -150 90 -59 29 -129 72 -155 93 -26 22 -63 43 -82 46 -18 4 -54 24 -78 45
-24 22 -90 62 -145 90 -57 29 -124 72 -155 100 -29 26 -73 58 -98 71 -25 12
-67 40 -95 61 -138 108 -162 126 -189 143 -16 10 -33 31 -39 47 l-11 29 -81 0
-80 0 -12 -27z m2590 -1692 c25 -11 63 -36 85 -55 22 -20 45 -36 52 -36 29 0
156 -76 245 -147 112 -89 152 -117 206 -145 34 -17 90 -58 125 -92 35 -33 77
-73 94 -88 l30 -27 0 -43 c0 -80 -42 -118 -185 -167 -71 -25 -113 -26 -162 -6
-19 8 -54 15 -77 15 -28 0 -71 15 -134 45 -52 25 -99 45 -104 45 -24 0 -179
82 -214 112 -20 18 -52 42 -69 53 -18 11 -68 59 -112 106 l-79 87 -23 67 c-37
110 -19 150 97 221 69 41 135 70 169 73 6 1 32 -8 56 -18z"/>
</g>
</svg>
