<?xml version="1.0" standalone="no"?>
<!DOCTYPE svg PUBLIC "-//W3C//DTD SVG 20010904//EN"
 "http://www.w3.org/TR/2001/REC-SVG-20010904/DTD/svg10.dtd">
<svg version="1.0" xmlns="http://www.w3.org/2000/svg"
 width="414.000000pt" height="303.000000pt" viewBox="0 0 414.000000 303.000000"
 preserveAspectRatio="xMidYMid meet">
<metadata>
Created by potrace 1.16, written by Peter Selinger 2001-2019
</metadata>
<g transform="translate(0.000000,303.000000) scale(0.100000,-0.100000)"
fill="#000000" stroke="none">
<path d="M23 3004 c-18 -19 -23 -37 -23 -77 l0 -53 35 -32 c19 -18 39 -49 44
-68 6 -22 34 -60 75 -101 36 -36 81 -89 101 -118 33 -50 59 -75 119 -118 14
-9 30 -34 35 -55 8 -28 42 -67 139 -163 71 -70 132 -138 136 -152 3 -13 24
-40 46 -58 59 -49 96 -87 175 -180 73 -87 105 -120 418 -444 107 -111 197
-210 201 -222 6 -20 37 -48 201 -184 133 -109 177 -139 234 -159 33 -11 67
-20 76 -20 8 0 35 27 60 61 l45 61 0 82 0 81 -30 45 c-16 25 -30 58 -30 73 0
42 -56 146 -106 197 -25 25 -93 96 -153 158 -60 62 -131 127 -159 145 -28 18
-85 60 -126 94 -41 34 -94 71 -118 83 -23 12 -64 40 -90 61 -25 21 -79 55
-120 75 -40 21 -86 47 -103 59 -50 38 -173 95 -203 95 -21 0 -37 11 -66 45
-21 25 -55 57 -76 70 -22 14 -58 55 -86 97 -26 40 -56 79 -66 86 -26 19 -52
72 -40 84 12 12 51 -6 145 -70 43 -29 113 -71 155 -92 42 -21 98 -56 124 -78
26 -22 63 -43 83 -46 25 -5 52 -23 90 -62 30 -30 62 -54 71 -54 27 0 86 -31
134 -70 47 -39 179 -110 203 -110 7 0 24 -12 38 -26 13 -14 42 -35 64 -46 22
-12 54 -32 72 -45 17 -13 47 -28 66 -34 19 -5 63 -34 96 -64 34 -30 69 -55 77
-55 25 0 83 -30 164 -86 42 -28 98 -63 125 -77 28 -14 77 -49 110 -78 33 -30
80 -62 105 -72 90 -37 107 -49 138 -97 18 -27 32 -52 32 -57 0 -14 -50 -63
-91 -88 -54 -35 -89 -106 -89 -182 1 -74 27 -151 68 -197 18 -20 41 -53 51
-74 22 -42 240 -255 328 -320 156 -115 189 -140 202 -155 7 -10 21 -17 30 -17
9 0 33 -11 54 -25 55 -38 204 -111 275 -134 34 -12 86 -21 116 -21 30 0 58 -4
61 -10 8 -13 282 -13 290 0 3 6 16 10 28 10 14 0 46 25 89 70 l68 71 0 44 c0
25 -4 53 -9 63 -4 9 -16 33 -25 53 -10 20 -38 59 -62 87 -24 28 -44 57 -44 66
0 8 -20 30 -44 48 -24 18 -56 50 -70 71 -15 21 -49 48 -75 62 -26 13 -95 67
-152 120 -57 53 -117 103 -134 112 -51 26 -193 123 -237 163 -24 20 -62 47
-84 58 -23 12 -66 43 -95 70 -30 26 -128 97 -219 158 -91 60 -178 120 -195
134 -46 38 -115 85 -161 108 -23 12 -79 47 -124 78 -46 31 -97 60 -115 65 -17
5 -50 25 -72 44 -23 19 -88 58 -145 86 -56 28 -123 68 -148 89 -25 20 -65 47
-90 60 -25 12 -66 40 -92 61 -25 21 -79 55 -120 75 -40 20 -94 54 -120 75 -26
22 -92 62 -148 90 -55 27 -139 77 -187 109 -48 33 -95 60 -104 60 -9 0 -24 9
-35 21 -32 36 -106 86 -184 124 -41 21 -95 54 -120 75 -25 20 -64 47 -86 58
-50 26 -167 105 -210 142 -18 15 -48 30 -67 34 -23 4 -56 25 -91 56 l-54 50
-88 -1 -89 -1 -22 -24z m1336 -1304 c24 -17 51 -30 60 -30 16 0 33 -15 120
-101 25 -26 58 -49 74 -53 34 -8 155 -121 202 -189 19 -29 49 -70 65 -91 17
-21 30 -44 30 -51 0 -7 11 -38 26 -70 14 -33 21 -62 16 -67 -5 -5 -28 7 -54
27 -25 20 -59 40 -75 44 -20 5 -38 24 -64 66 -20 33 -52 69 -72 82 -20 13 -48
40 -61 61 -23 36 -51 64 -110 105 -14 10 -30 35 -36 57 -6 23 -21 47 -36 57
-61 42 -103 86 -127 133 -30 58 -21 63 42 20z m1617 -635 c47 -23 83 -48 100
-71 15 -19 53 -48 85 -64 31 -16 79 -48 105 -71 27 -23 74 -58 104 -77 30 -20
81 -61 113 -91 33 -31 84 -70 115 -86 33 -18 68 -48 86 -73 17 -23 49 -54 71
-68 22 -15 47 -36 55 -48 14 -21 41 -48 99 -100 27 -25 61 -83 61 -106 0 -4
-24 -24 -53 -44 l-52 -36 -53 0 c-29 0 -69 7 -89 15 -19 8 -45 15 -57 15 -27
0 -215 63 -286 96 -30 14 -79 45 -107 69 -30 24 -68 46 -89 49 -26 5 -50 22
-88 62 -28 31 -74 71 -103 91 -68 45 -147 132 -180 197 -14 28 -35 64 -46 80
-11 16 -24 48 -28 70 -4 23 -13 60 -21 84 l-12 43 14 27 c16 27 110 70 159 71
13 1 57 -15 97 -34z"/>
</g>
</svg>
