<?xml version="1.0" standalone="no"?>
<!DOCTYPE svg PUBLIC "-//W3C//DTD SVG 20010904//EN"
 "http://www.w3.org/TR/2001/REC-SVG-20010904/DTD/svg10.dtd">
<svg version="1.0" xmlns="http://www.w3.org/2000/svg"
 width="639.000000pt" height="429.000000pt" viewBox="0 0 639.000000 429.000000"
 preserveAspectRatio="xMidYMid meet">
<metadata>
Created by potrace 1.16, written by Peter Selinger 2001-2019
</metadata>
<g transform="translate(0.000000,429.000000) scale(0.100000,-0.100000)"
fill="#000000" stroke="none">
<path d="M32 4257 c-7 -18 -12 -45 -12 -60 0 -14 -5 -29 -10 -32 -13 -8 -13
-192 0 -200 5 -3 10 -19 10 -36 0 -28 83 -206 121 -260 10 -15 24 -44 31 -65
9 -26 27 -47 58 -69 33 -23 49 -44 60 -75 12 -34 27 -52 66 -79 27 -18 62 -51
78 -73 15 -21 49 -49 76 -63 26 -13 82 -56 124 -95 42 -38 84 -70 94 -70 11 0
27 -9 38 -21 32 -35 106 -85 184 -125 41 -20 89 -47 105 -60 17 -12 80 -48
140 -79 61 -31 134 -71 163 -90 29 -18 91 -45 138 -60 47 -15 121 -45 165 -66
44 -22 84 -39 90 -39 6 0 40 -13 76 -30 35 -16 75 -30 89 -30 14 0 41 -7 61
-15 19 -8 45 -15 57 -15 12 0 60 -13 106 -30 53 -18 105 -30 138 -30 29 0 69
-7 89 -15 19 -8 53 -15 75 -15 21 0 55 -7 75 -15 25 -11 72 -15 165 -15 92 0
139 -4 165 -15 19 -8 54 -15 77 -15 28 0 54 -8 79 -26 21 -14 84 -48 140 -76
56 -28 122 -67 147 -88 48 -39 120 -80 143 -80 7 0 24 -12 38 -26 13 -14 44
-37 69 -51 25 -13 70 -40 100 -59 30 -19 66 -37 80 -41 14 -3 39 -18 55 -33
32 -29 132 -83 175 -93 14 -4 44 -22 67 -42 23 -19 96 -63 164 -97 67 -34 139
-75 158 -92 20 -18 63 -40 96 -51 36 -11 78 -35 105 -58 54 -47 117 -85 171
-104 49 -16 175 -98 183 -118 5 -15 -29 -45 -52 -45 -21 0 -93 -39 -147 -80
-38 -28 -58 -54 -84 -108 l-34 -70 37 -114 38 -115 128 -124 c120 -117 171
-159 280 -235 54 -37 124 -74 141 -74 6 0 30 -20 53 -45 33 -35 49 -45 75 -45
17 0 48 -7 68 -15 19 -8 53 -15 75 -15 21 0 55 -7 75 -15 19 -8 53 -15 75 -15
21 0 55 -7 75 -15 19 -8 48 -15 64 -15 15 0 31 -4 34 -10 8 -13 312 -13 320 0
3 5 20 10 36 10 37 0 157 58 175 85 54 77 64 98 64 140 0 24 -5 47 -10 50 -6
4 -21 27 -34 53 -39 77 -273 292 -391 360 -22 13 -53 36 -70 52 -16 15 -73 49
-125 75 -52 26 -115 64 -140 85 -25 20 -65 47 -90 60 -25 13 -59 34 -77 47
-17 13 -47 28 -65 34 -19 5 -52 24 -74 43 -41 35 -114 76 -136 76 -6 0 -26 13
-43 29 -16 16 -81 55 -143 86 -63 32 -133 74 -156 94 -24 21 -58 43 -77 50
-19 7 -47 19 -64 28 -96 52 -143 79 -170 99 -16 12 -64 39 -105 60 -41 20 -88
47 -105 60 -16 12 -64 39 -105 60 -41 20 -92 50 -114 65 -21 16 -46 29 -55 29
-9 0 -33 11 -52 25 -20 13 -65 38 -99 56 -35 18 -79 46 -99 64 -38 34 -92 65
-112 65 -17 0 -104 55 -159 100 -46 38 -120 80 -140 80 -18 0 -120 92 -120
108 0 8 8 26 19 40 40 58 61 112 61 159 l0 48 -41 60 c-57 85 -135 162 -199
196 -30 17 -78 45 -107 63 -85 54 -168 76 -286 76 -120 0 -135 -7 -172 -80
-41 -82 -30 -201 26 -271 19 -24 41 -57 48 -73 l12 -29 -15 -16 -16 -15 -42
13 c-24 7 -83 16 -133 20 -49 4 -100 12 -112 19 -12 7 -32 12 -44 12 -12 0
-103 27 -201 60 -98 33 -188 60 -200 60 -12 0 -77 27 -145 60 -69 33 -130 60
-136 60 -7 0 -32 14 -57 30 -25 16 -51 30 -58 30 -8 0 -40 16 -72 36 -32 20
-74 41 -94 48 -40 14 -134 65 -205 112 -26 18 -70 43 -98 57 -28 14 -74 48
-104 74 -30 27 -93 75 -141 107 -47 31 -135 105 -195 164 -61 59 -121 115
-135 124 -30 20 -101 124 -151 223 -20 39 -45 84 -56 100 -16 23 -21 46 -21
101 0 42 -6 87 -15 109 l-16 37 11 35 c7 19 9 50 6 69 l-7 34 -62 0 -63 0 -12
-33z m2891 -1486 c31 -12 196 -177 208 -208 23 -62 -60 -92 -146 -54 -26 12
-52 21 -58 21 -5 0 -28 19 -51 43 -23 23 -62 54 -87 68 -54 31 -86 87 -69 119
l11 20 84 0 c46 0 95 -4 108 -9z m2294 -1791 c35 -16 79 -41 96 -54 39 -29
171 -96 190 -96 7 0 24 -12 38 -26 13 -14 50 -39 82 -55 32 -16 74 -45 95 -63
20 -18 49 -36 64 -40 15 -3 39 -22 54 -42 25 -32 89 -74 113 -74 13 0 188
-176 223 -224 48 -67 32 -120 -47 -156 l-44 -20 -153 0 -153 0 -117 40 c-65
21 -131 46 -147 54 -16 9 -63 27 -105 40 -56 19 -118 53 -233 130 -162 107
-190 131 -239 202 -16 22 -44 60 -61 84 l-33 43 0 103 0 103 32 22 c23 17 52
25 107 29 42 4 87 12 101 18 40 17 68 14 137 -18z"/>
<path d="M2885 3582 c-37 -20 -57 -40 -77 -77 -15 -28 -28 -59 -28 -70 0 -12
22 -52 48 -90 l48 -70 53 -17 53 -17 46 12 45 12 37 50 c21 27 45 65 54 83
l17 32 -16 54 c-19 66 -33 79 -112 105 -81 27 -108 26 -168 -7z"/>
</g>
</svg>
