<?xml version="1.0" standalone="no"?>
<!DOCTYPE svg PUBLIC "-//W3C//DTD SVG 20010904//EN"
 "http://www.w3.org/TR/2001/REC-SVG-20010904/DTD/svg10.dtd">
<svg version="1.0" xmlns="http://www.w3.org/2000/svg"
 width="456.000000pt" height="306.000000pt" viewBox="0 0 456.000000 306.000000"
 preserveAspectRatio="xMidYMid meet">
<metadata>
Created by potrace 1.16, written by Peter Selinger 2001-2019
</metadata>
<g transform="translate(0.000000,306.000000) scale(0.100000,-0.100000)"
fill="#000000" stroke="none">
<path d="M37 3022 l-37 -38 0 -46 c0 -26 5 -50 10 -53 6 -3 10 -14 10 -23 0
-9 44 -82 98 -162 l97 -145 46 -24 c53 -28 90 -24 114 13 l16 24 -35 69 c-19
37 -44 82 -55 98 -22 32 -28 75 -10 75 6 0 25 -11 42 -24 18 -13 78 -48 135
-77 57 -29 108 -61 113 -71 8 -15 4 -29 -20 -67 -38 -58 -40 -105 -10 -194 23
-68 45 -97 102 -133 20 -14 62 -47 92 -74 30 -28 63 -50 73 -50 9 0 73 -27
140 -60 l124 -60 63 0 c76 0 100 16 135 89 l23 51 -11 37 -12 38 14 13 14 14
38 -18 c22 -10 77 -45 124 -76 47 -32 92 -58 100 -58 8 0 32 -12 53 -26 21
-14 84 -48 140 -76 95 -48 196 -115 226 -152 7 -9 20 -16 29 -16 28 0 182 -80
221 -115 21 -19 44 -35 51 -35 18 0 203 -93 270 -136 30 -19 66 -37 80 -41 14
-3 39 -18 55 -33 17 -15 45 -35 64 -45 19 -9 52 -30 74 -46 22 -16 47 -29 56
-29 21 0 101 -44 269 -147 104 -64 136 -88 151 -116 l14 -27 -18 -19 c-9 -11
-40 -32 -69 -47 -28 -14 -79 -53 -113 -87 l-63 -61 -16 -56 -16 -55 12 -50
c18 -69 82 -195 117 -226 15 -14 41 -33 56 -43 15 -9 53 -39 83 -67 30 -27 62
-49 72 -49 10 0 55 -25 100 -55 105 -70 155 -95 187 -95 14 0 42 -7 62 -15 19
-8 47 -15 62 -15 28 0 54 -15 109 -62 l33 -28 79 0 c43 0 82 -4 85 -10 8 -12
298 -14 323 -1 9 4 38 18 64 29 69 31 88 76 88 204 0 54 -4 106 -9 116 -5 9
-16 35 -26 58 -17 42 -158 195 -210 228 -16 11 -50 38 -75 61 -25 23 -65 53
-90 67 -25 14 -54 36 -65 48 -11 12 -38 31 -60 43 -22 11 -53 30 -70 42 -16
13 -52 34 -80 48 -27 14 -72 44 -99 66 -26 23 -56 41 -65 41 -9 0 -29 9 -46
21 -16 11 -55 34 -85 50 -30 17 -80 46 -110 65 -30 19 -66 37 -80 41 -14 3
-38 18 -55 33 -16 16 -88 58 -160 94 -71 36 -152 83 -179 105 -26 23 -55 41
-63 41 -25 0 -83 31 -173 92 -47 32 -92 58 -100 58 -8 0 -28 9 -45 21 -16 11
-55 34 -85 50 -30 17 -80 46 -110 65 -30 19 -69 38 -87 43 -17 5 -67 33 -110
62 -43 28 -112 69 -153 90 -41 21 -97 56 -124 78 -26 23 -55 41 -63 41 -24 0
-83 31 -163 86 -83 56 -152 94 -172 94 -8 0 -51 25 -96 55 -91 61 -144 89
-182 98 -14 4 -43 22 -65 40 -42 36 -115 77 -137 77 -19 0 -162 79 -251 139
-27 18 -65 38 -83 43 -18 5 -57 30 -86 57 -52 48 -124 91 -151 91 -7 0 -27 17
-44 38 -29 36 -163 112 -197 112 -8 0 -18 5 -21 10 -3 6 -41 10 -84 10 l-77 0
-37 -38z m840 -593 c59 -27 148 -116 174 -173 18 -42 17 -76 -2 -76 -18 0
-134 60 -188 98 -77 52 -116 125 -86 156 22 21 47 20 102 -5z m2770 -1530 c48
-17 71 -31 94 -60 17 -22 38 -39 47 -39 28 -1 80 -30 235 -134 81 -54 155
-109 163 -122 9 -13 47 -47 85 -75 l69 -51 46 -93 46 -92 -11 -21 c-6 -11 -36
-33 -68 -47 l-56 -27 -37 11 c-21 6 -74 11 -119 11 -50 0 -96 6 -118 15 -19 8
-52 15 -72 15 -43 0 -144 34 -182 61 -33 24 -225 119 -239 119 -6 0 -37 26
-68 58 -32 31 -70 65 -85 75 -15 10 -37 37 -48 60 -12 23 -35 57 -51 76 -19
21 -27 39 -23 50 4 9 14 41 23 71 21 68 68 117 119 125 21 3 56 12 78 20 57
20 100 18 172 -6z"/>
</g>
</svg>
