<?xml version="1.0" standalone="no"?>
<!DOCTYPE svg PUBLIC "-//W3C//DTD SVG 20010904//EN"
 "http://www.w3.org/TR/2001/REC-SVG-20010904/DTD/svg10.dtd">
<svg version="1.0" xmlns="http://www.w3.org/2000/svg"
 width="1116.000000pt" height="2016.000000pt" viewBox="0 0 1116.000000 2016.000000"
 preserveAspectRatio="xMidYMid meet">
<metadata>
Created by potrace 1.16, written by Peter Selinger 2001-2019
</metadata>
<g transform="translate(0.000000,2016.000000) scale(0.100000,-0.100000)"
fill="#000000" stroke="none">
<path d="M1507 19492 c-12 -13 -17 -37 -17 -80 l0 -61 -19 -11 c-11 -6 -88
-10 -179 -10 l-159 0 -16 -18 -17 -19 0 -166 0 -166 -19 -11 c-11 -5 -44 -10
-74 -10 -40 0 -58 -5 -70 -18 l-17 -19 0 -166 0 -166 -19 -11 c-11 -5 -44 -10
-74 -10 -40 0 -58 -5 -70 -18 l-17 -19 0 -530 0 -530 18 -16 c12 -11 36 -17
71 -17 29 0 61 -5 72 -10 l19 -11 0 -168 0 -168 18 -16 c12 -11 36 -17 71 -17
29 0 61 -5 72 -10 l19 -11 0 -258 0 -258 18 -16 c13 -12 37 -17 86 -17 37 0
76 -5 87 -10 l19 -11 0 -258 0 -258 18 -16 c12 -11 36 -17 71 -17 29 0 61 -5
72 -10 l19 -11 0 -153 0 -153 18 -16 c12 -11 36 -17 71 -17 29 0 61 -5 72 -10
l19 -11 0 -78 0 -78 18 -16 c12 -11 36 -17 71 -17 29 0 61 -5 72 -10 l19 -11
0 -258 0 -258 18 -16 c13 -12 37 -17 86 -17 37 0 76 -5 87 -10 l19 -11 0 -153
0 -153 18 -16 c12 -11 36 -17 71 -17 29 0 61 -5 72 -10 l19 -11 0 -258 0 -258
18 -16 c12 -11 36 -17 71 -17 29 0 61 -5 72 -10 l19 -11 0 -63 c0 -84 13 -96
104 -96 37 0 76 -5 87 -10 l19 -11 0 -78 0 -78 18 -16 c12 -11 36 -17 71 -17
29 0 61 -5 72 -10 l19 -11 0 -153 0 -153 18 -16 c12 -11 36 -17 71 -17 29 0
61 -5 72 -10 l19 -11 0 -168 0 -168 18 -16 c12 -11 36 -17 71 -17 29 0 61 -5
72 -10 l19 -11 0 -63 c0 -84 13 -96 104 -96 37 0 76 -5 87 -10 l19 -11 0 -168
0 -168 18 -16 c12 -11 36 -17 71 -17 29 0 61 -5 72 -10 l19 -11 0 -153 0 -153
18 -16 c12 -11 36 -17 71 -17 29 0 61 -5 72 -10 l19 -11 0 -78 0 -78 18 -16
c13 -12 37 -17 86 -17 37 0 76 -5 87 -10 l19 -11 0 -153 0 -153 18 -16 c12
-11 36 -17 71 -17 29 0 61 -5 72 -10 l19 -11 0 -168 0 -168 18 -16 c12 -11 36
-17 71 -17 29 0 61 -5 72 -10 l19 -11 0 -63 c0 -84 13 -96 104 -96 37 0 76 -5
87 -10 l19 -11 0 -168 0 -168 18 -16 c12 -11 36 -17 71 -17 29 0 61 -5 72 -10
l19 -11 0 -63 c0 -80 15 -96 89 -96 29 0 61 -5 72 -10 l19 -11 0 -168 0 -168
18 -16 c12 -11 36 -17 71 -17 29 0 61 -5 72 -10 l19 -11 0 -63 c0 -84 13 -96
104 -96 37 0 76 -5 87 -10 l19 -11 0 -168 0 -168 18 -16 c12 -11 36 -17 71
-17 29 0 61 -5 72 -10 l19 -11 0 -153 0 -153 18 -16 c12 -11 36 -17 71 -17 29
0 61 -5 72 -10 l19 -11 0 -63 c0 -84 13 -96 104 -96 37 0 76 -5 87 -10 l19
-11 0 -168 0 -168 18 -16 c12 -11 36 -17 71 -17 29 0 61 -5 72 -10 l19 -11 0
-168 0 -168 18 -16 c12 -11 36 -17 71 -17 29 0 61 -5 72 -10 l19 -11 0 -63 c0
-80 15 -96 89 -96 29 0 61 -5 72 -10 l19 -11 0 -168 0 -168 18 -16 c13 -12 37
-17 86 -17 37 0 76 -5 87 -10 l19 -11 0 -63 c0 -80 15 -96 89 -96 29 0 61 -5
72 -10 l19 -11 0 -153 0 -153 18 -16 c12 -11 36 -17 71 -17 29 0 61 -5 72 -10
l19 -11 0 -78 0 -78 18 -16 c13 -12 37 -17 86 -17 37 0 76 -5 87 -10 l19 -11
0 -153 0 -153 18 -16 c12 -11 36 -17 71 -17 29 0 61 -5 72 -10 l19 -11 0 -78
0 -78 18 -16 c12 -11 36 -17 71 -17 29 0 61 -5 72 -10 l19 -11 0 -153 0 -153
18 -16 c13 -12 37 -17 86 -17 37 0 76 -5 87 -10 l19 -11 0 -78 0 -78 18 -16
c12 -11 36 -17 71 -17 29 0 61 -5 72 -10 l19 -11 0 -153 0 -153 18 -16 c12
-11 36 -17 71 -17 29 0 61 -5 72 -10 l19 -11 0 -63 c0 -80 15 -96 89 -96 29 0
61 -5 72 -10 l19 -11 0 -168 0 -168 18 -16 c13 -12 37 -17 86 -17 37 0 76 -5
87 -10 l19 -11 0 -168 0 -168 18 -16 c12 -11 36 -17 71 -17 29 0 61 -5 72 -10
l19 -11 0 -59 0 -59 -19 -11 c-27 -14 -1625 -14 -1652 0 l-19 11 0 63 c0 48
-4 67 -18 79 l-19 17 -517 0 c-337 0 -524 4 -537 10 l-19 11 0 78 0 78 -18 16
-19 17 -532 0 c-348 0 -539 4 -552 10 l-19 11 0 63 c0 48 -4 67 -18 79 l-19
17 -532 0 c-348 0 -539 4 -552 10 l-19 11 0 63 c0 48 -4 67 -18 79 l-19 17
-532 0 c-348 0 -539 4 -552 10 l-19 11 0 78 0 78 -18 16 -19 17 -440 0 -440 0
-16 -18 -17 -19 0 -170 0 -170 18 -16 19 -17 337 0 c213 0 344 -4 357 -10 l19
-11 0 -63 c0 -48 4 -67 18 -79 l19 -17 532 0 c348 0 539 -4 552 -10 l19 -11 0
-78 0 -78 18 -16 19 -17 532 0 c348 0 539 -4 552 -10 l19 -11 0 -63 c0 -48 4
-67 18 -79 l19 -17 427 0 c275 0 434 -4 447 -10 l19 -11 0 -63 c0 -48 4 -67
18 -79 l19 -17 532 0 c348 0 539 -4 552 -10 l19 -11 0 -78 0 -78 18 -16 19
-17 247 0 c151 0 255 -4 267 -10 l19 -11 0 -153 0 -153 18 -16 c27 -25 143
-24 165 1 l17 19 0 151 0 151 19 11 c25 13 97 13 122 0 l19 -11 0 -63 c0 -48
4 -67 18 -79 l19 -17 247 0 c151 0 255 -4 267 -10 l19 -11 0 -59 0 -59 -19
-11 c-11 -5 -44 -10 -74 -10 -40 0 -58 -5 -70 -18 l-17 -19 0 -545 0 -545 18
-16 c12 -11 36 -17 71 -17 29 0 61 -5 72 -10 l19 -11 0 -168 0 -168 18 -16
c12 -11 36 -17 71 -17 29 0 61 -5 72 -10 l19 -11 0 -63 c0 -84 13 -96 104 -96
37 0 76 -5 87 -10 l19 -11 0 -63 c0 -48 4 -67 18 -79 l19 -17 142 0 c79 0 151
-5 162 -10 l19 -11 0 -63 c0 -48 4 -67 18 -79 l19 -17 247 0 c151 0 255 -4
267 -10 l19 -11 0 -78 0 -78 18 -16 19 -17 157 0 c89 0 166 -4 177 -10 l19
-11 0 -63 c0 -48 4 -67 18 -79 l19 -17 155 0 155 0 16 18 c12 13 17 37 17 80
l0 61 19 11 c11 6 88 10 179 10 l159 0 16 18 17 19 0 166 0 166 19 11 c11 5
44 10 74 10 73 0 87 16 87 102 0 82 -15 98 -89 98 -29 0 -61 5 -72 10 l-19 11
0 258 0 258 -18 16 c-12 11 -36 17 -71 17 -29 0 -61 5 -72 10 l-19 11 0 168 0
168 -18 16 c-13 12 -37 17 -86 17 -37 0 -76 5 -87 10 l-19 11 0 153 0 153 -18
16 c-12 11 -36 17 -71 17 -29 0 -61 5 -72 10 l-19 11 0 168 0 168 -18 16 c-12
11 -36 17 -71 17 -29 0 -61 5 -72 10 l-19 11 0 63 c0 84 -13 96 -104 96 -37 0
-76 5 -87 10 l-19 11 0 168 0 168 -18 16 c-12 11 -36 17 -71 17 -29 0 -61 5
-72 10 l-19 11 0 153 0 153 -18 16 c-12 11 -36 17 -71 17 -29 0 -61 5 -72 10
l-19 11 0 78 0 78 -18 16 c-12 11 -36 17 -71 17 -29 0 -61 5 -72 10 l-19 11 0
153 0 153 -18 16 c-13 12 -37 17 -86 17 -37 0 -76 5 -87 10 l-19 11 0 78 0 78
-18 16 c-12 11 -36 17 -71 17 -29 0 -61 5 -72 10 l-19 11 0 153 0 153 -18 16
c-12 11 -36 17 -71 17 -29 0 -61 5 -72 10 l-19 11 0 63 c0 84 -13 96 -104 96
-37 0 -76 5 -87 10 l-19 11 0 168 0 168 -18 16 c-12 11 -36 17 -71 17 -29 0
-61 5 -72 10 l-19 11 0 63 c0 80 -15 96 -89 96 -29 0 -61 5 -72 10 l-19 11 0
78 0 78 -18 16 c-12 11 -36 17 -71 17 -29 0 -61 5 -72 10 l-19 11 0 153 0 153
-18 16 c-13 12 -37 17 -86 17 -37 0 -76 5 -87 10 l-19 11 0 168 0 168 -18 16
c-12 11 -36 17 -71 17 -29 0 -61 5 -72 10 l-19 11 0 63 c0 80 -15 96 -89 96
-29 0 -61 5 -72 10 l-19 11 0 63 c0 84 -13 96 -104 96 -37 0 -76 5 -87 10
l-19 11 0 168 0 168 -18 16 c-12 11 -36 17 -71 17 -29 0 -61 5 -72 10 l-19 11
0 63 c0 80 -15 96 -89 96 -29 0 -61 5 -72 10 l-19 11 0 168 0 168 -18 16 c-13
12 -37 17 -86 17 -37 0 -76 5 -87 10 l-19 11 0 168 0 168 -18 16 c-12 11 -36
17 -71 17 -29 0 -61 5 -72 10 l-19 11 0 63 c0 80 -15 96 -89 96 -29 0 -61 5
-72 10 l-19 11 0 153 0 153 -18 16 c-12 11 -36 17 -71 17 -29 0 -61 5 -72 10
l-19 11 0 168 0 168 -18 16 c-13 12 -37 17 -86 17 -37 0 -76 5 -87 10 l-19 11
0 63 c0 80 -15 96 -89 96 -29 0 -61 5 -72 10 l-19 11 0 168 0 168 -18 16 c-12
11 -36 17 -71 17 -29 0 -61 5 -72 10 l-19 11 0 63 c0 84 -13 96 -104 96 -37 0
-76 5 -87 10 l-19 11 0 168 0 168 -18 16 c-12 11 -36 17 -71 17 -29 0 -61 5
-72 10 l-19 11 0 63 c0 80 -15 96 -89 96 -29 0 -61 5 -72 10 l-19 11 0 168 0
168 -18 16 c-12 11 -36 17 -71 17 -29 0 -61 5 -72 10 l-19 11 0 153 0 153 -18
16 c-13 12 -37 17 -86 17 -37 0 -76 5 -87 10 l-19 11 0 168 0 168 -18 16 c-12
11 -36 17 -71 17 -29 0 -61 5 -72 10 l-19 11 0 63 c0 80 -15 96 -89 96 -29 0
-61 5 -72 10 l-19 11 0 168 0 168 -18 16 c-13 12 -37 17 -86 17 -37 0 -76 5
-87 10 l-19 11 0 153 0 153 -18 16 c-12 11 -36 17 -71 17 -29 0 -61 5 -72 10
l-19 11 0 168 0 168 -18 16 c-12 11 -36 17 -71 17 -29 0 -61 5 -72 10 l-19 11
0 164 0 164 19 11 c13 6 172 10 449 10 l429 0 16 18 c12 13 17 37 17 80 l0 61
19 11 c12 6 116 10 269 10 l249 0 16 18 c12 13 17 37 17 80 l0 61 19 11 c12 6
116 10 269 10 l249 0 16 18 c13 14 17 38 17 95 l0 76 19 11 c11 6 88 10 179
10 l159 0 16 18 c12 13 17 37 17 80 l0 61 19 11 c11 5 44 10 74 10 72 0 87 17
87 98 l0 61 19 11 c11 5 44 10 74 10 72 0 87 17 87 98 l0 61 19 11 c11 5 44
10 74 10 40 0 58 5 70 18 l17 19 0 256 0 256 19 11 c11 5 51 10 89 10 54 0 72
4 85 18 l17 19 0 455 0 455 -18 16 c-13 12 -37 17 -86 17 -37 0 -76 5 -87 10
l-19 11 0 348 0 348 -18 16 c-12 11 -36 17 -71 17 -29 0 -61 5 -72 10 l-19 11
0 168 0 168 -18 16 c-12 11 -36 17 -71 17 -29 0 -61 5 -72 10 l-19 11 0 63 c0
80 -15 96 -89 96 -29 0 -61 5 -72 10 l-19 11 0 168 0 168 -18 16 c-13 12 -37
17 -86 17 -37 0 -76 5 -87 10 l-19 11 0 63 c0 48 -4 67 -18 79 l-19 17 -142 0
c-79 0 -151 5 -162 10 l-19 11 0 63 c0 84 -13 96 -104 96 -37 0 -76 5 -87 10
l-19 11 0 63 c0 48 -4 67 -18 79 l-19 17 -142 0 c-79 0 -151 5 -162 10 l-19
11 0 78 0 78 -18 16 c-12 11 -36 17 -71 17 -29 0 -61 5 -72 10 l-19 11 0 63
c0 48 -4 67 -18 79 l-19 17 -247 0 c-151 0 -255 4 -267 10 l-19 11 0 63 c0 48
-4 67 -18 79 l-19 17 -157 0 c-89 0 -166 4 -177 10 l-19 11 0 78 0 78 -18 16
-19 17 -157 0 c-89 0 -166 4 -177 10 l-19 11 0 63 c0 48 -4 67 -18 79 l-19 17
-635 0 -635 0 -16 -18 c-25 -27 -24 -143 1 -165 l19 -17 247 0 c151 0 255 -4
267 -10 l19 -11 0 -78 0 -78 18 -16 19 -17 247 0 c151 0 255 -4 267 -10 l19
-11 0 -63 c0 -48 4 -67 18 -79 l19 -17 247 0 c151 0 255 -4 267 -10 l19 -11 0
-63 c0 -80 15 -96 89 -96 29 0 61 -5 72 -10 l19 -11 0 -78 0 -78 18 -16 19
-17 247 0 c151 0 255 -4 267 -10 l19 -11 0 -63 c0 -48 4 -67 18 -79 l19 -17
157 0 c89 0 166 -4 177 -10 l19 -11 0 -63 c0 -80 15 -96 89 -96 29 0 61 -5 72
-10 l19 -11 0 -63 c0 -80 15 -96 89 -96 29 0 61 -5 72 -10 l19 -11 0 -78 0
-78 18 -16 c13 -12 37 -17 86 -17 37 0 76 -5 87 -10 l19 -11 0 -63 c0 -80 15
-96 89 -96 29 0 61 -5 72 -10 l19 -11 0 -63 c0 -80 15 -96 89 -96 29 0 61 -5
72 -10 l19 -11 0 -78 0 -78 18 -16 c13 -12 37 -17 86 -17 37 0 76 -5 87 -10
l19 -11 0 -153 0 -153 18 -16 c12 -11 36 -17 71 -17 29 0 61 -5 72 -10 l19
-11 0 -348 0 -348 18 -16 c12 -11 36 -17 71 -17 29 0 61 -5 72 -10 l19 -11 0
-74 0 -74 -19 -11 c-11 -5 -44 -10 -74 -10 -73 0 -87 -16 -87 -102 0 -82 15
-98 89 -98 29 0 61 -5 72 -10 l19 -11 0 -59 0 -59 -19 -11 c-11 -5 -44 -10
-74 -10 -40 0 -58 -5 -70 -18 l-17 -19 0 -256 0 -256 -19 -11 c-11 -5 -44 -10
-74 -10 -75 0 -87 -15 -87 -113 l0 -76 -19 -11 c-11 -5 -51 -10 -89 -10 -89 0
-102 -13 -102 -98 l0 -61 -19 -11 c-11 -5 -44 -10 -74 -10 -72 0 -87 -17 -87
-98 l0 -61 -19 -11 c-12 -6 -116 -10 -269 -10 l-249 0 -16 -18 c-12 -13 -17
-37 -17 -80 l0 -61 -19 -11 c-12 -6 -116 -10 -269 -10 l-249 0 -16 -18 c-13
-14 -17 -38 -17 -95 l0 -76 -19 -11 c-27 -14 -1055 -14 -1082 0 l-19 11 0 78
0 78 -18 16 -19 17 -142 0 c-79 0 -151 5 -162 10 l-19 11 0 153 0 153 -18 16
c-12 11 -36 17 -71 17 -29 0 -61 5 -72 10 l-19 11 0 168 0 168 -18 16 c-13 12
-37 17 -86 17 -37 0 -76 5 -87 10 l-19 11 0 153 0 153 -18 16 c-12 11 -36 17
-71 17 -29 0 -61 5 -72 10 l-19 11 0 168 0 168 -18 16 c-12 11 -36 17 -71 17
-29 0 -61 5 -72 10 l-19 11 0 168 0 168 -18 16 c-13 12 -37 17 -86 17 -37 0
-76 5 -87 10 l-19 11 0 153 0 153 -18 16 c-12 11 -36 17 -71 17 -29 0 -61 5
-72 10 l-19 11 0 168 0 168 -18 16 c-12 11 -36 17 -71 17 -29 0 -61 5 -72 10
l-19 11 0 348 0 348 -18 16 c-12 11 -36 17 -71 17 -29 0 -61 5 -72 10 l-19 11
0 539 0 539 19 11 c11 5 44 10 74 10 40 0 58 5 70 18 l17 19 0 151 0 151 19
11 c11 5 44 10 74 10 40 0 58 5 70 18 l17 19 0 170 0 170 -18 16 c-27 25 -143
24 -165 -1z m7704 -16272 l19 -11 0 -61 c0 -81 15 -98 87 -98 30 0 63 -5 74
-10 l19 -11 0 -166 0 -166 17 -19 c12 -13 30 -18 70 -18 30 0 63 -5 74 -10
l19 -11 0 -151 0 -151 17 -19 c13 -14 31 -18 85 -18 38 0 78 -5 89 -10 l19
-11 0 -166 0 -166 17 -19 c12 -13 30 -18 70 -18 30 0 63 -5 74 -10 l19 -11 0
-344 0 -344 -19 -11 c-26 -14 -486 -14 -512 0 l-19 11 0 61 c0 43 -5 67 -17
80 l-16 18 -144 0 c-80 0 -153 5 -164 10 l-19 11 0 61 c0 85 -13 98 -102 98
-38 0 -78 5 -89 10 l-19 11 0 76 c0 98 -12 113 -87 113 -30 0 -63 5 -74 10
l-19 11 0 61 c0 81 -15 98 -87 98 -30 0 -63 5 -74 10 l-19 11 0 166 0 166 -17
19 c-13 14 -31 18 -85 18 -38 0 -78 5 -89 10 l-19 11 0 149 0 149 19 11 c11 5
50 10 87 10 49 0 73 5 86 17 l18 16 0 168 0 168 19 11 c11 5 43 10 72 10 74 0
89 16 89 96 0 49 4 65 18 73 23 14 487 14 513 1z"/>
</g>
</svg>
