<?xml version="1.0" standalone="no"?>
<!DOCTYPE svg PUBLIC "-//W3C//DTD SVG 20010904//EN"
 "http://www.w3.org/TR/2001/REC-SVG-20010904/DTD/svg10.dtd">
<svg version="1.0" xmlns="http://www.w3.org/2000/svg"
 width="768.000000pt" height="384.000000pt" viewBox="0 0 768.000000 384.000000"
 preserveAspectRatio="xMidYMid meet">
<metadata>
Created by potrace 1.16, written by Peter Selinger 2001-2019
</metadata>
<g transform="translate(0.000000,384.000000) scale(0.100000,-0.100000)"
fill="#000000" stroke="none">
<path d="M515 3830 c-3 -5 -21 -10 -38 -10 -52 -1 -128 -49 -155 -98 l-24 -43
12 -29 c6 -16 19 -35 28 -43 30 -28 115 -65 227 -100 159 -50 192 -58 275 -66
41 -4 85 -13 97 -19 13 -7 67 -12 138 -12 80 0 127 -5 152 -15 19 -8 46 -15
60 -15 17 0 42 -19 81 -60 35 -36 66 -60 79 -60 24 0 38 -15 47 -52 3 -15 24
-42 46 -59 l40 -32 0 -54 0 -54 -72 -69 -71 -69 15 -23 c8 -13 32 -31 52 -41
l37 -17 54 16 c36 10 61 24 73 40 9 14 38 53 65 86 l47 61 0 66 0 66 -60 88
c-60 88 -71 119 -48 133 6 4 165 6 352 5 262 -2 348 -6 373 -16 l33 -14 1289
-1 1288 0 36 15 c47 19 157 19 204 0 19 -8 49 -15 65 -15 17 0 39 -10 53 -25
l25 -24 0 -71 c0 -45 8 -93 21 -133 27 -79 35 -94 75 -139 18 -20 42 -55 53
-77 13 -25 41 -53 73 -75 29 -19 75 -58 103 -86 30 -30 64 -54 85 -60 19 -5
57 -28 84 -50 26 -22 56 -40 65 -40 9 0 36 -14 61 -30 25 -16 51 -30 59 -30 8
0 53 -18 100 -41 109 -51 191 -79 235 -79 19 0 47 -5 63 -12 28 -11 116 -26
203 -33 25 -2 78 -7 117 -11 56 -5 82 -2 113 10 29 11 73 16 154 16 78 0 125
5 149 15 20 8 56 15 80 15 33 0 54 8 84 29 22 16 75 46 117 67 51 25 94 56
127 91 l49 52 0 35 c0 19 4 38 10 41 13 8 13 192 0 200 -5 3 -10 22 -10 40 0
28 -10 46 -50 90 -27 30 -61 73 -75 94 -13 22 -35 45 -47 52 -13 6 -44 29 -70
50 -57 47 -237 139 -273 139 -15 0 -51 11 -81 25 -99 45 -171 65 -239 65 -36
0 -82 7 -102 15 -28 12 -86 15 -284 15 -159 0 -258 4 -276 11 -16 7 -129 13
-273 16 -175 4 -255 9 -279 19 -44 18 -140 18 -184 -1 l-36 -15 -879 0 -880 0
-38 -16 c-28 -12 -52 -14 -89 -9 -27 4 -70 6 -95 5 -108 -4 -149 -2 -217 9
-62 10 -262 11 -673 2 -75 -2 -378 16 -393 23 -11 5 -41 3 -72 -4 l-54 -13
-43 16 c-35 14 -80 17 -216 17 -131 0 -181 4 -209 15 -19 8 -61 15 -92 15
l-56 0 -90 60 c-50 33 -96 60 -103 60 -21 0 -82 30 -126 62 -28 20 -51 28 -80
28 -38 0 -196 47 -238 70 -23 13 -225 13 -233 0z m230 -167 c22 -8 51 -20 64
-25 l25 -9 -15 -10 c-7 -5 -47 -9 -86 -9 l-73 0 -31 28 c-43 38 -32 55 29 47
26 -4 65 -13 87 -22z m5644 -359 c21 -9 70 -14 133 -14 65 0 111 -5 135 -15
21 -9 67 -15 117 -15 l81 0 105 -35 c58 -20 129 -47 158 -60 29 -14 57 -25 63
-25 20 0 83 -33 124 -64 61 -47 165 -156 176 -183 5 -13 9 -67 9 -120 l0 -96
-20 -32 c-21 -34 -65 -71 -110 -92 -44 -21 -144 -53 -166 -53 -12 0 -38 -7
-57 -15 -21 -8 -67 -15 -105 -15 -39 0 -85 -7 -105 -15 -24 -10 -70 -15 -132
-15 -62 0 -108 5 -132 15 -19 8 -59 15 -87 15 -32 0 -84 11 -136 30 -47 16
-96 30 -108 30 -30 0 -85 25 -136 62 -21 15 -46 28 -55 28 -26 1 -86 33 -141
75 -136 105 -157 122 -191 144 -35 24 -187 238 -209 295 -14 38 -13 149 3 169
16 21 47 23 432 19 246 -3 328 -7 354 -18z"/>
<path d="M275 3469 c-82 -28 -107 -45 -160 -111 -31 -38 -65 -91 -77 -116 -11
-26 -25 -55 -29 -64 -12 -24 -11 -195 1 -203 5 -3 10 -24 10 -46 0 -49 27
-131 80 -239 22 -46 40 -90 40 -97 0 -42 113 -210 239 -356 29 -34 66 -87 82
-119 19 -38 42 -65 71 -85 27 -18 54 -48 71 -80 15 -29 45 -65 66 -80 21 -15
54 -50 72 -78 25 -35 45 -53 68 -60 25 -7 43 -24 68 -62 24 -38 47 -60 83 -78
27 -14 57 -36 67 -51 41 -59 68 -87 105 -110 21 -13 49 -42 62 -63 15 -23 46
-50 79 -69 30 -17 65 -45 77 -62 12 -17 49 -44 82 -61 34 -17 95 -64 141 -108
45 -42 95 -85 112 -96 16 -10 50 -37 75 -60 43 -41 117 -85 140 -85 7 0 35
-20 63 -45 29 -25 93 -66 142 -91 50 -26 111 -64 137 -85 26 -22 92 -62 148
-90 56 -27 120 -63 142 -79 23 -17 49 -30 58 -30 9 0 99 -40 199 -90 100 -49
194 -90 208 -90 15 0 56 -13 92 -29 190 -82 298 -121 341 -121 20 0 74 -13
120 -30 47 -16 104 -30 127 -30 23 0 45 -4 48 -10 4 -6 57 -10 126 -10 l119 0
0 33 c0 62 -65 97 -181 97 l-82 0 -179 60 c-98 33 -186 60 -195 60 -35 0 -219
69 -275 103 -32 19 -102 49 -156 66 -54 17 -116 44 -138 60 -21 16 -100 59
-174 96 -74 38 -148 78 -165 91 -16 12 -77 46 -135 74 -58 29 -125 69 -150 90
-25 20 -68 49 -95 63 -28 13 -78 50 -113 81 -34 31 -70 56 -78 56 -8 0 -38 24
-67 53 -50 51 -152 134 -279 227 -55 41 -76 60 -152 140 -13 14 -51 44 -84 68
-38 26 -62 51 -64 65 -2 13 -22 34 -48 52 -25 16 -70 55 -101 85 -30 30 -67
63 -82 73 -16 11 -30 31 -34 49 -4 20 -22 42 -58 69 -29 22 -66 59 -81 82 -16
23 -70 85 -120 138 -51 53 -103 118 -117 145 -14 27 -37 60 -51 73 -14 14 -26
31 -26 38 0 23 -31 75 -71 121 -21 24 -41 58 -45 75 -3 18 -16 52 -29 77 -24
49 -87 244 -105 326 -8 35 -8 58 0 78 5 15 10 39 10 54 0 50 46 129 115 195
l67 65 -4 28 c-2 19 -14 36 -37 51 -36 24 -67 28 -116 12z"/>
</g>
</svg>
