<?xml version="1.0" standalone="no"?>
<!DOCTYPE svg PUBLIC "-//W3C//DTD SVG 20010904//EN"
 "http://www.w3.org/TR/2001/REC-SVG-20010904/DTD/svg10.dtd">
<svg version="1.0" xmlns="http://www.w3.org/2000/svg"
 width="1011.000000pt" height="129.000000pt" viewBox="0 0 1011.000000 129.000000"
 preserveAspectRatio="xMidYMid meet">
<metadata>
Created by potrace 1.16, written by Peter Selinger 2001-2019
</metadata>
<g transform="translate(0.000000,129.000000) scale(0.100000,-0.100000)"
fill="#000000" stroke="none">
<path d="M5392 1252 c-55 -39 -112 -110 -112 -139 0 -45 33 -120 68 -156 57
-59 163 -127 198 -127 17 0 39 -6 49 -14 l18 -13 -28 -19 c-34 -22 -138 -35
-223 -27 -48 4 -77 1 -118 -13 l-55 -18 -48 17 c-27 9 -72 17 -100 17 -28 0
-68 7 -88 15 -19 8 -52 15 -72 15 -20 0 -56 6 -81 14 -60 19 -125 36 -177 45
-48 9 -55 13 -140 93 l-61 58 -57 0 -58 0 -43 -44 -44 -43 0 -47 c0 -50 -20
-108 -48 -139 -17 -19 -150 -87 -170 -87 -6 0 -35 -11 -64 -24 -92 -43 -171
-66 -224 -66 -28 0 -68 -7 -87 -15 -20 -8 -61 -15 -90 -15 -30 0 -71 -7 -90
-15 -20 -8 -54 -15 -75 -15 -22 0 -56 -7 -75 -15 -21 -8 -67 -15 -105 -15 -39
0 -85 -7 -105 -15 -23 -9 -68 -15 -120 -15 -53 0 -98 -6 -120 -15 l-36 -15
-366 0 -366 0 -36 15 c-20 8 -66 15 -105 15 -38 0 -84 7 -105 15 -20 8 -66 15
-105 15 -38 0 -84 7 -105 15 -19 8 -60 15 -90 15 -29 0 -70 7 -90 15 -19 8
-53 15 -75 15 -21 0 -55 7 -75 15 -19 8 -53 15 -75 15 -21 0 -55 7 -75 15 -19
8 -45 15 -56 15 -12 0 -81 20 -154 45 -73 25 -140 45 -150 45 -31 0 -132 38
-242 91 -57 28 -137 61 -177 74 -42 14 -109 48 -157 80 -47 31 -95 55 -109 55
-14 0 -42 7 -62 15 l-37 16 3 -72 3 -71 85 -44 c46 -25 98 -57 115 -73 38 -37
56 -45 155 -77 46 -15 113 -42 151 -60 76 -37 358 -134 390 -134 12 0 50 -14
86 -30 35 -17 75 -30 89 -30 14 0 41 -7 61 -15 19 -8 53 -15 75 -15 21 0 55
-7 75 -15 20 -8 66 -15 105 -15 38 0 84 -7 105 -15 19 -8 53 -15 75 -15 21 0
55 -7 75 -15 19 -8 53 -15 75 -15 21 0 55 -7 75 -15 24 -10 71 -15 150 -15 78
0 125 -5 150 -15 52 -22 524 -22 576 0 28 12 80 15 225 15 146 0 198 3 225 15
20 8 54 15 75 15 22 0 56 7 75 15 20 8 54 15 75 15 22 0 56 7 75 15 26 11 74
15 164 15 l128 0 85 30 c46 17 94 30 107 30 12 0 58 17 101 39 44 21 116 50
161 65 56 18 97 39 129 65 51 43 167 101 201 101 12 0 38 -7 58 -15 19 -8 59
-15 87 -15 28 0 71 -6 96 -14 103 -33 142 -39 270 -45 77 -4 144 -12 157 -19
32 -18 251 -16 296 3 20 8 62 15 92 15 31 0 66 5 78 12 12 6 48 14 82 19 120
15 271 63 350 110 l64 39 261 0 261 0 36 -15 35 -15 280 0 279 0 36 -15 35
-15 375 0 374 0 24 -25 c28 -27 29 -33 15 -70 -27 -71 82 -265 149 -265 9 0
28 -12 42 -26 23 -25 147 -94 170 -94 6 0 40 -13 76 -30 35 -17 70 -30 76 -30
7 0 54 -20 105 -45 52 -25 105 -45 118 -45 14 0 41 -7 61 -15 20 -8 66 -15
105 -15 38 0 84 -7 105 -15 22 -9 68 -15 124 -15 48 0 91 -5 94 -10 8 -12 128
-13 140 -1 6 5 33 11 60 14 51 5 91 14 203 48 103 31 201 110 315 252 l27 35
0 139 0 139 -88 76 c-105 90 -137 108 -192 108 -22 0 -57 7 -77 15 -24 10 -71
15 -150 15 -78 0 -125 5 -150 15 l-35 15 -1060 0 -1059 0 -36 15 -35 15 -370
0 -369 0 -36 15 c-22 10 -68 15 -125 15 l-89 0 -25 28 c-170 192 -223 232
-375 282 -35 11 -72 25 -81 30 -10 6 -84 10 -165 9 l-148 0 -53 -37z m347
-161 c63 -21 125 -48 138 -59 l24 -21 -11 -21 c-13 -25 -73 -27 -127 -5 -20 9
-66 15 -109 15 l-73 0 -36 31 c-43 38 -42 55 5 80 47 26 58 24 189 -20z m3648
-396 c23 -10 69 -15 135 -15 65 0 111 -5 135 -15 19 -8 53 -15 75 -15 68 0
160 -54 198 -115 25 -41 27 -130 4 -165 -52 -78 -130 -141 -188 -151 -51 -9
-117 -26 -176 -45 -61 -19 -220 -18 -267 1 -19 8 -60 15 -90 15 -29 0 -70 7
-90 15 -19 8 -53 15 -75 15 -21 0 -55 7 -75 15 -19 8 -47 15 -60 15 -14 0 -54
13 -90 30 -35 16 -69 30 -76 30 -6 0 -61 25 -124 55 l-113 55 -70 71 c-121
121 -117 146 30 198 l55 19 413 1 413 1 36 -15z"/>
</g>
</svg>
