<?xml version="1.0" standalone="no"?>
<!DOCTYPE svg PUBLIC "-//W3C//DTD SVG 20010904//EN"
 "http://www.w3.org/TR/2001/REC-SVG-20010904/DTD/svg10.dtd">
<svg version="1.0" xmlns="http://www.w3.org/2000/svg"
 width="912.000000pt" height="201.000000pt" viewBox="0 0 912.000000 201.000000"
 preserveAspectRatio="xMidYMid meet">
<metadata>
Created by potrace 1.16, written by Peter Selinger 2001-2019
</metadata>
<g transform="translate(0.000000,201.000000) scale(0.100000,-0.100000)"
fill="#000000" stroke="none">
<path d="M2030 1972 l-55 -37 -3 -58 -3 -57 38 -40 c42 -44 226 -140 268 -140
14 0 42 -7 62 -15 22 -9 67 -15 120 -15 52 0 97 -6 120 -15 19 -8 53 -15 75
-15 21 0 55 -7 75 -15 19 -8 48 -15 63 -15 33 0 92 -41 147 -104 46 -52 90
-167 80 -208 -13 -50 -77 -94 -230 -157 -41 -16 -33 -49 18 -78 51 -29 107
-29 187 -2 135 45 177 81 208 180 l22 69 -16 40 c-9 22 -16 51 -16 64 0 13
-11 49 -25 81 -36 80 -30 85 107 85 74 0 120 -5 145 -15 l35 -15 1680 0 1679
0 24 -25 25 -24 0 -91 0 -90 55 -110 55 -110 39 -24 c21 -14 52 -44 68 -68 17
-26 41 -46 58 -52 56 -17 215 -96 256 -126 24 -17 55 -30 71 -30 16 0 45 -7
65 -15 19 -8 52 -15 71 -15 20 0 96 -20 169 -45 l132 -45 81 0 c49 0 95 -6
117 -15 44 -18 441 -22 474 -4 11 6 41 14 67 19 94 18 155 35 242 70 128 52
161 71 178 101 9 17 27 47 40 66 l22 34 0 132 c0 91 -4 137 -12 145 -7 7 -30
47 -53 89 l-40 77 -50 29 c-27 16 -63 41 -80 57 -39 36 -147 90 -181 90 -14 0
-55 13 -91 30 -35 16 -74 30 -87 30 -12 0 -60 13 -106 30 l-85 30 -98 0 c-64
0 -110 5 -134 15 l-36 15 -2001 1 c-1101 1 -2014 1 -2031 1 -16 0 -248 0 -514
-1 l-483 0 -44 19 c-23 11 -55 36 -70 56 -15 19 -49 46 -75 59 -25 13 -61 42
-79 65 -17 22 -38 40 -47 40 -8 0 -44 14 -80 30 -35 17 -81 30 -102 30 -35 0
-133 29 -148 43 -3 4 -74 7 -157 6 l-151 0 -55 -37z m370 -165 l25 -11 -27 -4
c-15 -2 -44 6 -65 17 l-38 21 40 -6 c22 -4 51 -12 65 -17z m5487 -332 c27 -11
77 -15 210 -15 132 0 182 -4 210 -15 19 -8 52 -15 72 -15 40 0 126 -27 209
-66 29 -13 57 -24 63 -24 36 0 165 -75 215 -124 72 -72 94 -121 94 -211 l0
-70 -54 -57 c-29 -32 -60 -58 -69 -58 -8 0 -44 -13 -79 -30 l-63 -30 -365 0
-366 0 -84 30 c-47 16 -94 30 -104 30 -30 0 -316 99 -345 119 -14 10 -56 34
-93 53 -169 89 -278 245 -278 396 l0 53 25 24 24 25 371 0 371 0 36 -15z"/>
<path d="M948 912 l-58 -59 0 -55 0 -54 29 -29 c17 -15 31 -37 33 -49 2 -11
17 -29 35 -41 17 -11 63 -40 102 -64 74 -46 126 -93 120 -108 -2 -5 -35 -37
-73 -72 -64 -57 -136 -101 -168 -101 -7 0 -33 -14 -58 -30 -25 -16 -57 -30
-72 -30 -15 0 -56 -14 -91 -30 l-65 -30 -341 0 -341 0 0 -39 0 -39 42 -31 42
-31 62 0 c35 0 66 -4 69 -10 8 -13 372 -13 380 0 3 5 39 10 79 10 43 0 89 6
109 15 20 8 47 15 61 15 14 0 54 14 89 30 36 17 71 30 77 30 26 0 188 92 237
135 28 25 59 45 69 45 9 0 34 18 55 40 l39 41 54 -16 c30 -9 71 -24 93 -35 71
-34 162 -60 211 -60 28 0 83 -13 132 -30 47 -16 94 -30 105 -30 12 0 59 -13
105 -30 68 -24 102 -30 168 -30 50 0 97 -6 119 -15 l35 -15 418 0 418 0 35 15
c20 8 55 15 77 15 51 0 103 26 187 94 l65 52 19 55 c23 66 23 96 4 142 -8 20
-15 49 -15 64 0 22 -20 50 -87 121 l-88 92 -41 0 c-86 0 -101 -75 -31 -161 24
-30 49 -69 57 -87 l12 -32 -13 -33 c-30 -74 -99 -137 -151 -137 -14 0 -42 -7
-61 -15 l-36 -15 -351 0 -351 0 -36 15 c-24 10 -70 15 -147 15 -68 0 -128 5
-156 14 -57 18 -122 35 -180 46 -25 5 -76 20 -115 34 -38 14 -86 26 -105 26
-74 0 -244 82 -270 129 -5 11 -10 45 -10 76 l0 55 -39 78 c-22 42 -52 89 -68
104 -41 38 -226 98 -305 98 l-61 0 -59 -58z m253 -163 c26 -13 45 -32 54 -52
17 -42 9 -52 -23 -31 -15 10 -39 24 -53 31 -41 21 -54 40 -39 58 16 19 13 19
61 -6z"/>
</g>
</svg>
