<?xml version="1.0" standalone="no"?>
<!DOCTYPE svg PUBLIC "-//W3C//DTD SVG 20010904//EN"
 "http://www.w3.org/TR/2001/REC-SVG-20010904/DTD/svg10.dtd">
<svg version="1.0" xmlns="http://www.w3.org/2000/svg"
 width="498.000000pt" height="375.000000pt" viewBox="0 0 498.000000 375.000000"
 preserveAspectRatio="xMidYMid meet">
<metadata>
Created by potrace 1.16, written by Peter Selinger 2001-2019
</metadata>
<g transform="translate(0.000000,375.000000) scale(0.100000,-0.100000)"
fill="#000000" stroke="none">
<path d="M275 3740 c-3 -5 -23 -10 -43 -10 l-37 0 -98 -100 -97 -99 0 -56 0
-56 38 -45 c40 -50 97 -84 137 -84 14 0 42 -7 62 -15 27 -12 79 -15 225 -15
145 0 197 -3 225 -15 19 -8 48 -15 64 -15 57 0 78 -91 31 -133 -33 -29 -133
-57 -207 -57 l-71 0 -47 -48 c-54 -55 -60 -88 -28 -150 26 -49 141 -165 220
-222 34 -25 89 -66 122 -91 33 -26 76 -50 95 -54 24 -4 52 -23 89 -61 33 -33
63 -54 76 -54 13 0 37 -16 58 -39 37 -39 126 -114 172 -143 24 -15 161 -129
222 -185 15 -14 34 -38 42 -54 8 -15 41 -45 72 -66 58 -38 175 -153 254 -251
90 -110 110 -138 135 -187 15 -27 37 -64 50 -82 28 -37 84 -151 84 -171 0 -7
9 -31 21 -53 11 -22 38 -93 59 -157 l40 -117 0 -123 c0 -87 -4 -133 -15 -159
-8 -19 -15 -47 -15 -61 0 -14 -13 -46 -29 -71 -16 -25 -32 -60 -35 -77 -4 -17
-26 -54 -50 -81 -23 -28 -59 -73 -79 -101 -35 -46 -86 -82 -119 -82 -24 0 -48
-34 -48 -68 l0 -32 84 0 85 0 28 25 c15 13 74 68 131 122 80 76 105 106 113
137 6 22 35 89 65 148 30 59 54 119 54 133 0 13 7 42 15 63 l16 39 -4 184 c-2
109 -9 202 -16 229 -37 130 -53 172 -90 249 -23 47 -41 91 -41 99 0 8 -16 32
-35 53 -19 21 -49 67 -66 101 -17 35 -60 93 -95 130 -35 37 -70 80 -78 95 -27
51 -337 348 -394 378 -29 15 -62 40 -75 56 -32 40 -138 124 -197 155 -28 15
-63 42 -77 61 -26 33 -88 73 -116 73 -7 0 -24 12 -38 26 -13 14 -42 35 -64 46
-22 12 -53 31 -70 43 -16 13 -54 35 -83 50 -29 15 -61 39 -70 53 -9 14 -34 43
-54 63 -37 38 -48 59 -28 59 5 0 22 14 37 30 18 20 36 30 55 30 43 0 106 36
127 73 58 100 128 197 152 211 36 21 175 22 226 1 l35 -15 505 0 504 0 36 -15
c27 -12 81 -15 240 -15 158 0 212 -3 240 -15 19 -8 54 -15 77 -15 52 0 112
-31 109 -56 -1 -11 -5 -40 -9 -65 l-6 -45 37 -75 c25 -50 60 -98 108 -147 65
-66 146 -122 178 -122 7 0 68 -27 136 -60 88 -42 136 -60 164 -60 22 0 56 -7
76 -15 19 -8 52 -15 72 -15 20 0 56 -6 81 -14 118 -37 141 -40 369 -43 l233
-4 47 31 c26 16 53 30 60 30 46 0 213 127 243 185 12 22 38 63 59 92 l39 52 0
82 0 81 -28 34 c-80 100 -93 111 -185 156 -115 57 -204 88 -252 88 -20 0 -52
7 -72 15 -26 11 -76 15 -195 15 -118 0 -168 4 -195 15 l-35 15 -609 0 c-464 0
-614 3 -636 13 -19 8 -127 14 -348 19 -176 4 -329 7 -340 7 -11 1 -56 -2 -101
-5 -61 -5 -89 -2 -118 10 l-38 16 -357 0 -356 0 -74 38 c-54 26 -83 49 -105
79 -32 43 -97 93 -176 133 -25 13 -58 33 -75 45 -55 41 -113 65 -159 65 -25 0
-48 5 -51 10 -3 6 -48 10 -100 10 -52 0 -97 -4 -100 -10z m224 -202 c78 -25
110 -46 133 -85 l16 -28 -136 5 c-81 3 -146 10 -159 18 -12 6 -42 12 -67 12
-35 0 -48 5 -56 20 -12 23 0 53 28 69 32 19 170 13 241 -11z m3608 -443 c27
-11 77 -15 207 -15 l172 0 59 -21 c148 -50 275 -132 275 -176 0 -59 -72 -167
-152 -228 -26 -19 -76 -49 -112 -65 l-64 -30 -171 0 c-130 0 -180 4 -208 15
-19 8 -45 15 -56 15 -12 0 -62 13 -112 29 -98 32 -158 48 -220 60 -39 8 -85
33 -229 123 -86 54 -114 82 -139 137 -23 51 -18 97 13 141 l21 30 340 0 340 0
36 -15z"/>
</g>
</svg>
