<?xml version="1.0" standalone="no"?>
<!DOCTYPE svg PUBLIC "-//W3C//DTD SVG 20010904//EN"
 "http://www.w3.org/TR/2001/REC-SVG-20010904/DTD/svg10.dtd">
<svg version="1.0" xmlns="http://www.w3.org/2000/svg"
 width="621.000000pt" height="90.000000pt" viewBox="0 0 621.000000 90.000000"
 preserveAspectRatio="xMidYMid meet">
<metadata>
Created by potrace 1.16, written by Peter Selinger 2001-2019
</metadata>
<g transform="translate(0.000000,90.000000) scale(0.100000,-0.100000)"
fill="#000000" stroke="none">
<path d="M80 890 c0 -6 -18 -30 -40 -54 -22 -24 -40 -53 -40 -66 0 -23 48 -85
130 -165 25 -25 65 -64 90 -89 25 -24 69 -56 98 -70 29 -15 69 -42 90 -60 20
-18 83 -57 140 -86 72 -37 111 -64 133 -91 l31 -39 37 0 c50 0 91 32 91 70 0
31 -67 100 -98 100 -10 0 -35 20 -55 45 -20 24 -62 60 -92 80 -51 35 -215 197
-215 214 0 30 46 31 1311 35 706 2 1295 4 1309 4 14 0 167 -1 341 -4 l317 -5
17 -19 c23 -25 37 -25 60 1 l19 20 231 -3 230 -3 33 -23 32 -23 0 -105 0 -105
21 -42 c30 -60 47 -76 91 -88 25 -6 62 -32 106 -73 70 -66 135 -106 173 -106
12 0 84 -20 158 -44 174 -56 215 -67 276 -73 28 -3 54 -9 60 -14 13 -13 552
-12 560 1 3 6 25 10 48 10 59 1 136 30 184 70 23 19 62 41 89 50 l48 15 35 50
c19 28 45 58 58 68 l23 18 0 100 0 100 -55 75 c-30 40 -62 74 -71 74 -9 0 -45
14 -81 30 -35 17 -81 30 -102 30 -20 0 -75 13 -121 30 -68 24 -102 30 -168 30
-50 0 -97 6 -119 15 -27 12 -79 15 -225 15 -145 0 -197 3 -225 15 -23 10 -69
15 -135 15 -59 0 -112 5 -131 13 -23 10 -103 14 -285 16 -159 1 -263 6 -280
13 -18 7 -156 13 -392 16 -201 2 -369 8 -375 13 -12 12 -132 11 -140 -1 -9
-14 -2431 -14 -2440 0 -9 14 -785 14 -785 0z m4777 -225 c26 -11 74 -15 180
-15 105 0 153 -4 180 -15 25 -11 72 -15 165 -15 92 0 139 -4 165 -15 21 -9 67
-15 116 -15 l80 0 108 -36 c85 -29 120 -46 161 -81 29 -25 56 -51 61 -58 13
-24 -11 -63 -86 -137 l-73 -73 -71 -23 c-39 -12 -93 -22 -121 -22 -27 0 -66
-7 -85 -15 -52 -21 -362 -21 -414 0 -19 8 -53 15 -75 15 -21 0 -55 7 -75 15
-19 8 -47 15 -62 15 -14 0 -46 14 -71 30 -25 16 -52 30 -60 30 -8 0 -57 20
-108 45 -52 25 -100 45 -107 45 -7 0 -24 15 -38 33 -13 18 -45 45 -69 61 -54
34 -78 71 -78 123 0 39 14 63 36 63 7 0 41 13 76 30 l63 29 83 1 c51 0 96 -6
119 -15z"/>
</g>
</svg>
