<?xml version="1.0" standalone="no"?>
<!DOCTYPE svg PUBLIC "-//W3C//DTD SVG 20010904//EN"
 "http://www.w3.org/TR/2001/REC-SVG-20010904/DTD/svg10.dtd">
<svg version="1.0" xmlns="http://www.w3.org/2000/svg"
 width="435.000000pt" height="330.000000pt" viewBox="0 0 435.000000 330.000000"
 preserveAspectRatio="xMidYMid meet">
<metadata>
Created by potrace 1.16, written by Peter Selinger 2001-2019
</metadata>
<g transform="translate(0.000000,330.000000) scale(0.100000,-0.100000)"
fill="#000000" stroke="none">
<path d="M378 3256 c-38 -59 -37 -108 1 -147 21 -20 39 -29 63 -29 39 0 62
-14 138 -84 69 -64 74 -71 54 -90 -28 -29 -85 -13 -168 46 -21 15 -47 28 -57
28 -10 0 -26 11 -37 25 -11 13 -65 47 -121 75 -79 39 -111 50 -149 50 l-48 0
-28 -29 -27 -28 3 -44 3 -43 115 -78 c113 -78 257 -158 282 -158 8 0 54 -27
103 -60 50 -33 97 -60 105 -60 8 0 29 -16 45 -36 17 -19 57 -50 89 -67 37 -20
71 -49 90 -75 17 -24 45 -52 63 -62 18 -10 39 -31 49 -45 9 -14 38 -41 64 -60
27 -20 64 -59 83 -88 19 -28 67 -79 107 -112 49 -40 80 -75 97 -110 14 -27 46
-70 72 -95 25 -25 59 -66 76 -90 16 -25 46 -65 66 -90 79 -100 175 -267 205
-357 13 -40 47 -119 75 -174 28 -56 55 -123 59 -148 11 -56 27 -121 46 -181 8
-25 14 -68 14 -96 0 -28 7 -68 15 -87 20 -47 19 -50 -10 -85 l-25 -30 -103 5
c-56 3 -117 12 -136 19 -18 8 -60 14 -92 14 l-59 0 -78 -39 c-95 -48 -125 -79
-151 -158 -26 -77 -26 -89 0 -166 25 -75 41 -94 90 -107 25 -7 48 -24 69 -50
17 -22 40 -40 50 -40 10 0 22 -4 25 -10 8 -13 252 -13 260 0 3 6 21 10 38 10
21 0 53 14 92 41 83 56 103 76 136 139 17 30 44 77 62 104 36 55 35 52 43 335
l5 193 -15 39 c-9 22 -16 50 -16 63 0 13 -13 53 -30 88 -16 34 -30 74 -30 88
-1 39 -46 158 -85 221 -19 31 -35 63 -35 71 0 7 -14 33 -30 58 -18 27 -30 58
-30 77 0 25 -13 46 -55 94 -31 34 -59 78 -65 98 -6 22 -29 56 -60 86 -28 28
-63 68 -78 90 -42 62 -132 171 -226 274 -47 52 -86 98 -86 102 0 15 -54 72
-92 95 -21 13 -49 42 -63 64 -14 22 -43 49 -65 60 -23 12 -58 36 -78 54 -20
19 -66 54 -102 78 -36 24 -71 56 -78 71 l-13 27 30 39 c17 21 44 44 60 51 l30
12 100 -32 c54 -17 145 -53 200 -80 55 -27 151 -66 213 -86 66 -22 124 -47
140 -62 28 -26 205 -91 249 -92 15 0 37 -12 54 -30 16 -16 36 -30 45 -30 8 0
32 -11 52 -25 20 -14 72 -36 115 -50 101 -32 119 -41 175 -87 29 -24 75 -47
125 -63 94 -31 174 -68 217 -100 17 -13 65 -40 106 -61 86 -43 170 -103 170
-121 0 -6 -23 -31 -51 -55 -54 -46 -119 -157 -119 -203 0 -28 33 -132 57 -180
9 -16 41 -57 73 -90 31 -33 69 -79 83 -102 15 -23 37 -47 49 -54 13 -6 43 -28
68 -48 25 -20 65 -49 90 -63 25 -14 55 -40 68 -57 22 -30 107 -81 135 -81 7 0
26 -14 42 -30 16 -17 35 -30 42 -30 8 0 44 -18 81 -40 37 -23 78 -43 92 -47
14 -3 46 -18 71 -34 25 -16 51 -29 58 -29 7 0 38 -12 69 -27 42 -20 82 -29
152 -35 123 -11 124 -11 200 -1 89 12 150 46 150 84 0 10 11 31 25 47 l25 30
0 100 c0 58 -4 104 -10 107 -6 4 -28 42 -50 85 l-39 78 -78 67 c-164 140 -289
240 -364 290 -157 105 -237 155 -313 193 -49 25 -106 60 -125 78 -20 17 -81
55 -136 84 -55 28 -125 67 -155 86 -30 19 -66 37 -80 41 -26 6 -116 56 -211
117 -30 20 -61 36 -68 36 -7 0 -42 18 -79 40 -37 23 -78 43 -92 47 -14 3 -46
18 -71 34 -25 16 -51 29 -58 29 -20 0 -81 31 -125 62 -21 15 -45 28 -53 28 -8
0 -44 14 -80 30 -35 17 -69 30 -75 30 -19 0 -136 58 -179 89 -23 17 -48 31
-56 31 -8 0 -44 14 -80 30 -35 17 -69 30 -75 30 -17 0 -81 32 -122 62 -21 15
-52 28 -68 28 -17 0 -59 14 -95 30 -35 17 -69 30 -75 30 -5 0 -36 16 -68 36
-33 20 -98 49 -146 65 -48 16 -99 38 -114 49 -15 11 -74 43 -131 71 -98 49
-219 131 -219 148 0 4 -24 18 -52 30 -29 13 -61 27 -70 32 -10 5 -44 9 -75 9
l-58 -1 -27 -43z m2830 -1497 c37 -17 88 -48 114 -70 25 -21 78 -55 117 -74
69 -35 176 -104 236 -152 41 -33 156 -120 215 -163 26 -19 63 -52 81 -74 18
-21 50 -49 70 -62 20 -12 57 -54 83 -92 56 -84 60 -120 17 -163 l-29 -29 -118
0 -117 0 -93 45 c-52 25 -113 58 -135 75 -23 16 -49 30 -58 30 -9 0 -54 25
-100 55 -45 31 -103 66 -129 79 -56 29 -84 54 -117 105 -14 23 -46 51 -78 69
-34 19 -63 45 -77 69 -13 21 -38 54 -55 73 -82 89 -106 165 -70 218 14 19 146
91 168 92 5 0 39 -14 75 -31z m-1390 -1407 c50 -36 45 -70 -20 -119 -62 -46
-117 -73 -148 -73 -31 0 -86 27 -147 73 l-53 39 0 35 c0 19 5 43 11 54 l10 20
157 -3 157 -3 33 -23z"/>
</g>
</svg>
