<?xml version="1.0" standalone="no"?>
<!DOCTYPE svg PUBLIC "-//W3C//DTD SVG 20010904//EN"
 "http://www.w3.org/TR/2001/REC-SVG-20010904/DTD/svg10.dtd">
<svg version="1.0" xmlns="http://www.w3.org/2000/svg"
 width="429.000000pt" height="411.000000pt" viewBox="0 0 429.000000 411.000000"
 preserveAspectRatio="xMidYMid meet">
<metadata>
Created by potrace 1.16, written by Peter Selinger 2001-2019
</metadata>
<g transform="translate(0.000000,411.000000) scale(0.100000,-0.100000)"
fill="#000000" stroke="none">
<path d="M7 4103 c-4 -3 -7 -39 -7 -80 l0 -73 88 -43 c48 -24 99 -47 114 -51
14 -3 50 -27 80 -54 29 -26 69 -58 89 -72 21 -13 51 -45 68 -71 20 -31 49 -57
86 -78 43 -24 62 -43 86 -86 19 -33 47 -66 72 -83 24 -16 53 -48 68 -75 14
-26 39 -62 55 -80 64 -69 144 -206 144 -246 0 -8 12 -27 27 -43 46 -48 63
-117 63 -258 l0 -125 -18 -26 c-9 -14 -42 -53 -72 -86 l-55 -60 -73 -23 c-99
-31 -137 -58 -137 -95 0 -22 8 -35 35 -53 36 -25 37 -25 150 -4 126 24 244
126 325 282 l45 88 0 146 0 147 -21 61 c-21 64 -74 173 -108 223 -12 17 -21
37 -21 46 0 9 -22 45 -50 80 -108 139 -122 157 -141 193 -25 46 -24 56 4 56
23 0 64 -20 158 -78 30 -17 70 -36 89 -42 19 -5 113 -48 207 -95 95 -47 178
-85 184 -85 16 0 145 -65 206 -104 29 -18 85 -44 125 -56 41 -13 86 -35 103
-51 17 -15 75 -50 130 -79 55 -28 125 -67 155 -86 30 -19 72 -39 94 -45 45
-12 56 -18 150 -82 39 -27 83 -56 98 -65 36 -22 35 -36 -5 -61 -18 -11 -43
-31 -56 -45 -14 -14 -32 -26 -41 -26 -37 0 -50 -32 -50 -126 1 -102 23 -180
64 -223 14 -15 26 -33 26 -39 0 -31 43 -93 87 -125 26 -20 66 -54 88 -77 22
-23 56 -50 76 -60 20 -11 63 -42 95 -69 32 -28 86 -65 119 -82 33 -17 81 -49
106 -70 26 -21 68 -48 95 -60 51 -22 63 -28 179 -90 101 -54 183 -79 260 -79
36 0 82 -7 102 -15 48 -20 198 -20 246 0 20 8 53 15 74 15 55 1 145 35 164 62
8 13 25 37 37 55 17 24 22 47 22 92 0 33 -5 63 -10 66 -6 4 -21 28 -34 53 -13
26 -47 67 -76 92 -28 25 -70 63 -93 86 -67 66 -152 131 -206 160 -28 14 -64
43 -80 63 -17 21 -49 45 -73 55 -56 23 -55 23 -122 77 -31 25 -90 62 -131 82
-40 20 -110 62 -155 93 -45 30 -116 73 -158 95 -42 22 -102 56 -132 75 -30 19
-66 37 -80 41 -14 3 -38 18 -55 33 -16 16 -86 56 -155 91 -69 34 -138 72 -155
85 -16 12 -86 51 -154 85 -69 34 -141 77 -162 96 -20 18 -42 33 -49 33 -6 0
-41 14 -77 30 -35 17 -70 30 -76 30 -7 0 -30 12 -51 26 -21 14 -97 56 -170 92
-72 36 -149 78 -170 94 -22 16 -52 28 -69 28 -40 0 -188 72 -236 115 -24 22
-49 35 -66 35 -33 0 -139 48 -196 89 -23 17 -48 31 -56 31 -8 0 -44 14 -80 30
-35 17 -70 30 -76 30 -13 0 -71 30 -142 74 -26 16 -86 42 -132 58 -46 15 -101
39 -121 53 -20 14 -43 25 -52 25 -8 0 -57 20 -108 45 -52 25 -100 45 -108 45
-8 0 -26 11 -40 25 l-25 25 -73 0 c-40 0 -76 -3 -79 -7z m2927 -1588 c29 -9
71 -30 92 -48 63 -52 125 -93 193 -127 35 -18 80 -47 100 -65 20 -18 79 -54
131 -80 52 -26 115 -64 140 -85 25 -20 60 -45 78 -54 18 -9 61 -46 96 -82 34
-35 71 -64 82 -64 10 0 33 -16 49 -35 17 -19 54 -50 84 -68 l53 -32 19 -55
c24 -68 24 -66 -6 -95 -18 -19 -35 -25 -68 -25 -25 0 -61 -7 -82 -16 l-37 -15
-47 15 c-57 18 -123 35 -176 45 -93 18 -269 95 -347 151 -23 17 -48 30 -55 30
-8 0 -34 17 -58 38 -23 20 -89 68 -147 106 -64 42 -113 82 -128 105 -13 20
-41 54 -61 76 -21 22 -58 72 -83 110 l-46 70 0 72 0 72 28 19 c22 16 105 47
135 51 5 1 33 -6 61 -14z"/>
<path d="M400 2781 c-63 -22 -147 -96 -177 -155 -13 -26 -38 -66 -54 -89 l-29
-40 0 -242 c0 -193 3 -250 15 -278 8 -20 15 -56 15 -81 l0 -44 40 -48 c23 -27
43 -60 47 -74 11 -49 93 -196 136 -245 24 -27 47 -62 50 -76 6 -25 53 -72 111
-112 14 -10 37 -40 51 -67 14 -27 42 -61 64 -77 22 -15 52 -48 67 -71 16 -24
49 -58 75 -74 25 -17 60 -52 77 -77 16 -26 50 -59 74 -75 23 -15 56 -45 71
-67 16 -22 50 -50 77 -64 26 -13 82 -55 123 -92 88 -79 149 -126 268 -206 48
-32 107 -75 130 -95 26 -22 69 -45 104 -56 33 -11 74 -32 90 -47 17 -15 45
-34 64 -44 19 -9 52 -30 74 -46 22 -16 47 -29 56 -29 9 0 43 -13 76 -28 33
-16 73 -32 89 -36 17 -4 42 -16 57 -27 21 -14 44 -19 98 -19 l71 0 0 20 c0 34
-61 90 -141 131 -43 21 -85 39 -92 39 -8 0 -28 18 -46 40 -17 22 -44 43 -59
46 -15 4 -47 19 -72 34 -25 15 -56 30 -70 33 -14 4 -43 22 -65 40 -22 19 -64
47 -93 62 -29 15 -65 43 -79 62 -15 19 -53 48 -85 64 -32 16 -75 44 -96 62
-61 53 -135 111 -167 132 -16 10 -57 44 -90 75 -33 31 -77 67 -97 80 -20 14
-49 44 -65 68 -15 24 -48 57 -73 74 -25 17 -57 46 -70 67 -14 20 -67 79 -119
133 -52 53 -108 116 -125 140 -17 25 -46 64 -63 88 -18 24 -33 49 -33 57 0 22
-36 86 -60 108 -35 32 -68 96 -100 191 -15 49 -40 114 -54 144 -14 30 -26 67
-26 81 0 15 -7 43 -15 62 -9 23 -15 68 -15 119 l0 83 28 60 c16 33 31 71 35
85 9 37 98 137 154 174 61 40 68 72 24 116 l-29 30 -54 -1 c-29 -1 -73 -9 -98
-18z"/>
</g>
</svg>
