<?xml version="1.0" standalone="no"?>
<!DOCTYPE svg PUBLIC "-//W3C//DTD SVG 20010904//EN"
 "http://www.w3.org/TR/2001/REC-SVG-20010904/DTD/svg10.dtd">
<svg version="1.0" xmlns="http://www.w3.org/2000/svg"
 width="432.000000pt" height="345.000000pt" viewBox="0 0 432.000000 345.000000"
 preserveAspectRatio="xMidYMid meet">
<metadata>
Created by potrace 1.16, written by Peter Selinger 2001-2019
</metadata>
<g transform="translate(0.000000,345.000000) scale(0.100000,-0.100000)"
fill="#000000" stroke="none">
<path d="M50 3400 l-50 -51 0 -90 c0 -49 4 -97 9 -107 5 -9 19 -40 31 -69 13
-29 29 -54 37 -57 7 -3 27 -27 43 -53 41 -64 222 -255 274 -288 22 -15 55 -45
72 -68 17 -24 52 -52 78 -65 25 -13 54 -35 64 -50 9 -14 35 -44 58 -66 22 -23
47 -52 53 -65 l13 -23 -16 -16 -16 -16 -45 32 c-25 18 -48 32 -51 32 -3 0 -20
11 -37 24 -18 13 -61 39 -96 56 -35 18 -81 48 -101 66 l-37 34 -80 0 -80 0
-16 -18 c-11 -12 -17 -36 -17 -69 0 -57 8 -67 88 -107 29 -15 69 -42 90 -60
20 -18 61 -45 90 -60 29 -15 69 -42 90 -60 20 -18 55 -43 78 -54 94 -48 492
-449 541 -546 14 -27 40 -71 58 -98 18 -26 36 -63 40 -80 4 -18 20 -54 36 -79
16 -25 29 -56 29 -70 0 -13 8 -43 17 -67 l17 -44 -12 -44 c-6 -24 -9 -50 -6
-59 4 -9 1 -37 -6 -63 l-13 -47 -88 -85 -89 -85 0 -56 0 -56 26 -24 c14 -13
35 -39 47 -59 11 -19 56 -74 98 -122 43 -48 93 -111 112 -140 18 -29 56 -78
83 -110 27 -31 69 -88 94 -127 l45 -70 73 -1 72 0 0 45 c0 53 -81 224 -137
290 -18 22 -37 51 -40 65 -3 14 -32 54 -64 90 -76 86 -149 199 -149 230 0 18
13 37 44 63 25 20 65 67 90 105 l46 68 0 167 0 168 -21 42 c-12 23 -31 56 -44
72 -12 17 -46 77 -75 135 -29 57 -69 124 -90 150 -21 25 -47 64 -59 87 -11 23
-38 54 -60 70 -22 15 -52 47 -67 71 -15 24 -49 57 -75 75 -25 18 -73 56 -104
85 l-58 53 32 72 c58 127 57 121 36 169 -28 63 -230 267 -333 335 -50 33 -92
70 -107 92 -22 36 -51 63 -109 104 -15 10 -36 37 -47 60 -12 23 -37 59 -56 81
-42 46 -86 137 -77 159 10 27 36 28 75 2 21 -14 69 -35 106 -47 38 -11 82 -33
98 -48 17 -15 45 -35 64 -45 19 -9 52 -30 74 -46 22 -16 47 -29 55 -29 8 0 45
-19 83 -42 l70 -43 -6 -37 -7 -36 21 -11 c28 -15 58 -14 108 5 l42 16 48 -30
c67 -43 222 -118 260 -126 17 -4 51 -24 75 -45 41 -37 155 -101 179 -101 17 0
145 -65 209 -106 30 -19 74 -40 97 -46 24 -6 62 -27 87 -49 24 -22 49 -39 56
-39 24 0 138 -59 216 -113 90 -62 203 -121 250 -131 17 -4 54 -26 82 -50 27
-23 65 -48 83 -55 68 -25 100 -45 125 -78 l26 -34 -12 -14 c-7 -8 -18 -15 -25
-15 -12 0 -117 -77 -167 -124 l-28 -25 0 -113 0 -113 38 -56 c39 -57 116 -152
163 -198 86 -87 358 -291 387 -291 21 0 139 -57 175 -84 53 -40 206 -112 320
-150 l107 -36 113 0 112 0 67 24 c120 43 196 98 245 180 17 27 23 53 23 96 0
32 -4 62 -10 65 -5 3 -10 14 -10 23 0 16 -63 117 -98 156 -9 10 -35 30 -57 44
-22 14 -67 51 -100 82 -59 56 -115 91 -165 103 -14 4 -44 22 -66 41 -23 19
-74 52 -115 72 -72 36 -122 70 -184 124 -16 14 -57 34 -90 45 -33 10 -72 30
-88 44 -15 13 -47 36 -71 50 -117 68 -183 111 -205 135 -14 14 -31 26 -39 26
-26 0 -137 57 -217 112 -86 59 -156 98 -177 98 -6 0 -26 13 -43 29 -16 16 -73
51 -125 77 -52 26 -108 57 -125 70 -16 12 -77 46 -135 75 -58 29 -119 63 -135
75 -17 13 -93 55 -170 94 -77 39 -165 87 -195 106 -30 19 -66 37 -80 41 -50
11 -191 84 -229 118 -24 22 -49 35 -66 35 -37 0 -84 24 -185 92 -47 32 -91 58
-99 58 -35 0 -250 118 -418 229 -53 35 -132 81 -174 103 -73 37 -129 80 -129
99 0 5 -49 9 -110 9 l-109 0 -51 -50z m3097 -1760 c35 -16 79 -41 96 -54 39
-29 171 -96 190 -96 8 0 27 -17 44 -37 19 -25 59 -53 114 -80 46 -23 110 -63
143 -90 67 -56 125 -93 145 -93 7 0 42 -31 78 -70 41 -44 76 -73 96 -78 33 -8
35 -11 66 -89 27 -67 27 -72 -9 -121 l-30 -42 -191 0 -192 0 -93 45 c-52 25
-113 58 -135 75 -23 16 -49 30 -58 30 -9 0 -54 25 -100 55 -45 31 -103 66
-129 80 -59 31 -71 41 -107 88 -15 21 -47 48 -69 59 -55 28 -75 46 -98 93 -11
22 -40 59 -65 82 l-45 42 4 68 c6 121 56 162 196 163 l84 0 65 -30z"/>
</g>
</svg>
