<?xml version="1.0" standalone="no"?>
<!DOCTYPE svg PUBLIC "-//W3C//DTD SVG 20010904//EN"
 "http://www.w3.org/TR/2001/REC-SVG-20010904/DTD/svg10.dtd">
<svg version="1.0" xmlns="http://www.w3.org/2000/svg"
 width="357.000000pt" height="414.000000pt" viewBox="0 0 357.000000 414.000000"
 preserveAspectRatio="xMidYMid meet">
<metadata>
Created by potrace 1.16, written by Peter Selinger 2001-2019
</metadata>
<g transform="translate(0.000000,414.000000) scale(0.100000,-0.100000)"
fill="#000000" stroke="none">
<path d="M455 4130 c-3 -5 -20 -10 -36 -10 -50 0 -190 -83 -256 -152 -53 -55
-113 -151 -113 -181 0 -15 -7 -44 -15 -64 -8 -19 -15 -62 -15 -94 0 -32 -5
-61 -10 -64 -6 -3 -10 -28 -10 -55 0 -27 4 -52 10 -55 5 -3 10 -24 10 -46 0
-40 29 -139 56 -191 24 -46 64 -171 64 -199 0 -28 27 -59 53 -59 20 0 52 -45
65 -93 6 -21 22 -53 35 -70 13 -18 33 -50 45 -72 11 -22 32 -51 46 -64 14 -14
26 -31 26 -38 0 -27 33 -79 79 -124 25 -25 66 -73 91 -107 25 -35 66 -87 92
-117 26 -30 59 -72 72 -94 14 -21 39 -49 56 -62 18 -13 46 -39 63 -57 18 -18
65 -67 105 -107 39 -41 72 -80 72 -88 0 -23 31 -57 71 -78 22 -11 69 -48 104
-82 36 -34 79 -76 97 -94 18 -17 44 -45 57 -63 13 -17 42 -43 64 -57 22 -14
61 -44 86 -67 65 -58 133 -104 177 -118 27 -9 47 -26 67 -56 16 -24 46 -51 70
-63 70 -36 267 -170 277 -190 7 -12 6 -32 -1 -61 l-11 -43 16 -56 c9 -31 33
-83 52 -115 20 -32 41 -75 47 -94 8 -22 27 -44 55 -63 24 -16 54 -46 67 -66
31 -50 235 -241 256 -241 10 0 37 -16 61 -35 44 -35 189 -115 209 -115 18 0
81 -32 123 -62 24 -17 52 -28 72 -28 18 0 36 -4 39 -10 3 -5 34 -10 69 -10
l62 0 12 33 c7 18 12 40 12 49 0 18 -31 48 -49 48 -20 0 -139 57 -174 84 -18
13 -61 39 -97 56 -122 61 -225 139 -339 255 l-111 114 -36 75 c-42 89 -42 110
4 114 24 2 47 -5 81 -27 26 -17 53 -31 60 -31 7 0 42 -13 78 -30 35 -16 74
-30 85 -30 12 0 83 -20 157 -44 182 -59 216 -68 284 -73 98 -8 256 53 266 102
5 28 20 45 40 45 10 0 29 13 44 28 36 38 37 92 2 134 -14 16 -25 36 -25 44 0
47 -90 177 -193 281 -92 91 -155 138 -260 190 -39 20 -89 49 -111 64 -21 16
-46 29 -55 29 -9 0 -29 9 -46 21 -104 71 -417 184 -607 219 -26 5 -56 13 -67
19 -11 6 -65 11 -121 11 -170 0 -278 -52 -301 -145 -6 -22 -18 -51 -28 -64
l-18 -23 -35 12 c-40 15 -134 92 -193 158 -21 24 -55 52 -75 62 -48 24 -196
171 -203 201 -4 13 -72 88 -152 167 -80 78 -145 149 -145 158 0 9 -24 39 -52
68 -29 29 -66 72 -82 97 -17 24 -40 55 -52 69 -32 36 -112 156 -136 204 -11
22 -38 61 -58 86 -21 25 -48 65 -60 90 -12 25 -33 59 -46 77 -37 50 -114 214
-114 244 0 14 -7 43 -15 62 -8 20 -15 61 -15 90 0 30 -7 71 -15 90 -8 20 -15
52 -15 72 0 20 7 52 15 72 8 19 15 61 15 92 0 35 7 68 18 88 22 40 155 159
207 185 78 39 89 62 60 118 l-16 30 -44 0 c-24 0 -47 -4 -50 -10z m1702 -2535
c19 -8 45 -15 56 -15 12 0 81 -20 154 -45 73 -25 140 -45 150 -45 28 0 134
-39 164 -61 36 -26 218 -115 251 -123 14 -3 50 -27 80 -54 29 -26 72 -60 96
-76 59 -40 170 -160 178 -193 4 -16 20 -55 36 -88 34 -73 34 -80 3 -110 l-24
-25 -84 0 -83 0 -84 30 c-47 16 -103 30 -125 30 -27 0 -54 9 -85 30 -25 16
-58 30 -73 30 -64 0 -161 66 -174 119 -9 39 -33 61 -66 61 -39 0 -76 24 -110
71 -16 22 -50 50 -77 64 -47 24 -122 90 -277 243 -82 81 -91 108 -45 140 51
36 84 40 139 17z"/>
</g>
</svg>
