<?xml version="1.0" standalone="no"?>
<!DOCTYPE svg PUBLIC "-//W3C//DTD SVG 20010904//EN"
 "http://www.w3.org/TR/2001/REC-SVG-20010904/DTD/svg10.dtd">
<svg version="1.0" xmlns="http://www.w3.org/2000/svg"
 width="393.000000pt" height="462.000000pt" viewBox="0 0 393.000000 462.000000"
 preserveAspectRatio="xMidYMid meet">
<metadata>
Created by potrace 1.16, written by Peter Selinger 2001-2019
</metadata>
<g transform="translate(0.000000,462.000000) scale(0.100000,-0.100000)"
fill="#000000" stroke="none">
<path d="M2100 4610 c-8 -4 -35 -16 -60 -26 -59 -24 -136 -97 -166 -156 l-24
-47 0 -131 0 -130 36 -106 c19 -59 46 -123 60 -143 13 -20 24 -47 24 -62 0
-14 18 -65 40 -112 l41 -87 -7 -48 -6 -48 18 -14 c9 -8 37 -26 60 -40 52 -30
136 -126 171 -195 14 -27 47 -71 73 -97 35 -33 51 -57 56 -85 l7 -38 124 -124
c68 -68 130 -136 138 -151 8 -15 36 -44 63 -64 71 -52 232 -223 232 -246 l0
-20 -43 0 c-24 0 -81 13 -127 30 -50 17 -105 30 -135 30 -27 0 -70 6 -95 14
-87 28 -136 38 -210 45 -41 4 -85 13 -97 19 -13 7 -67 12 -138 12 -80 0 -127
5 -152 15 -51 22 -405 22 -456 0 -20 -8 -66 -15 -102 -15 -107 0 -213 -45
-308 -130 -35 -30 -59 -77 -88 -165 l-22 -66 12 -27 c7 -15 17 -47 21 -72 11
-55 27 -121 46 -180 8 -25 14 -56 14 -69 0 -13 16 -41 36 -64 43 -47 110 -185
97 -198 -6 -6 -41 1 -86 16 -43 14 -85 25 -95 25 -21 0 -213 64 -269 90 -24
11 -54 20 -68 20 -14 0 -42 7 -63 16 -65 27 -151 54 -173 54 -11 0 -50 14 -86
30 -35 17 -69 30 -75 30 -5 0 -39 13 -75 30 -35 16 -75 30 -89 30 -14 0 -41 7
-61 15 -19 8 -48 15 -64 15 l-29 0 0 -54 0 -54 42 -31 c23 -17 49 -31 57 -31
8 0 79 -31 158 -70 146 -71 246 -110 284 -110 11 0 50 -14 86 -30 35 -17 76
-30 90 -30 13 0 54 -14 90 -30 35 -17 75 -30 89 -30 14 0 41 -7 61 -15 19 -8
46 -15 60 -15 13 0 53 -17 87 -38 35 -21 124 -58 197 -82 163 -53 186 -65 221
-116 15 -22 47 -53 71 -68 25 -16 56 -47 71 -70 15 -23 104 -118 199 -210 228
-221 202 -196 410 -409 114 -119 200 -198 230 -214 26 -15 59 -41 73 -60 24
-31 108 -83 135 -83 19 0 140 -61 183 -92 21 -15 47 -28 57 -28 10 0 21 -4 24
-10 3 -5 33 -10 66 -10 l60 0 35 27 c20 14 46 48 60 74 l24 48 0 91 0 90 -36
73 c-20 39 -53 90 -74 112 -21 22 -49 56 -62 75 -62 93 -126 164 -163 182 -22
11 -60 37 -85 58 -45 37 -120 80 -140 80 -18 0 -174 97 -200 125 -13 14 -30
25 -38 25 -22 0 -196 86 -243 120 -23 16 -48 30 -56 30 -8 0 -44 14 -80 30
-35 16 -70 30 -76 30 -7 0 -25 9 -42 21 -57 38 -124 69 -153 69 -39 0 -100 46
-155 117 -25 32 -52 65 -61 72 -9 7 -16 23 -16 34 0 13 -24 44 -60 79 -33 31
-60 62 -60 69 0 7 -16 38 -36 68 -74 115 -114 191 -114 214 0 14 -7 41 -15 60
-10 24 -15 70 -15 133 0 148 22 180 153 223 l69 23 313 -1 314 0 37 -16 c20
-8 61 -15 91 -15 29 0 70 -7 90 -15 19 -8 58 -15 86 -15 29 0 91 -13 142 -29
106 -34 176 -51 211 -51 14 0 93 -22 175 -50 82 -27 160 -50 172 -50 12 0 42
-14 67 -30 25 -16 51 -30 58 -30 8 0 43 -14 79 -30 35 -17 76 -30 91 -30 15 0
47 -14 72 -30 25 -16 51 -30 58 -30 7 0 43 -18 80 -40 36 -22 82 -45 102 -50
19 -5 57 -28 84 -50 l48 -40 49 0 49 0 0 72 0 72 -27 28 c-15 15 -34 28 -42
28 -8 0 -29 13 -46 28 -16 16 -58 37 -93 48 -45 13 -70 27 -84 46 -10 15 -63
57 -116 92 -53 36 -117 82 -141 103 -25 21 -65 49 -90 63 -24 14 -59 45 -76
70 -21 29 -43 49 -66 56 -25 8 -42 25 -66 65 -32 52 -72 94 -127 132 -15 10
-30 34 -36 57 -11 41 -20 50 -102 100 -31 19 -48 36 -48 49 0 13 -21 36 -55
62 -39 29 -76 73 -132 157 -113 169 -124 204 -57 183 16 -5 67 -12 114 -15
l84 -6 21 19 c15 15 39 21 100 24 77 4 117 12 215 43 25 8 55 14 68 14 12 0
57 18 100 39 137 70 201 172 202 321 l0 75 -30 45 c-16 25 -30 52 -30 60 0 40
-151 218 -225 265 -16 10 -50 37 -75 60 -45 42 -117 85 -143 85 -7 0 -24 12
-38 26 -29 32 -150 94 -182 94 -27 0 -122 32 -195 66 -29 13 -59 24 -67 24 -7
0 -17 5 -20 10 -8 12 -303 13 -325 0z m207 -165 c19 -8 46 -15 60 -15 13 0 49
-11 79 -25 31 -14 110 -43 177 -65 134 -44 157 -54 202 -86 17 -12 53 -33 82
-48 28 -14 85 -56 126 -93 41 -37 87 -76 101 -86 14 -10 29 -30 32 -45 4 -15
22 -44 41 -65 19 -21 38 -49 43 -63 16 -41 12 -156 -6 -182 -14 -20 -90 -62
-113 -62 -5 0 -39 -13 -74 -30 -38 -17 -82 -30 -105 -30 -22 0 -56 -7 -75 -15
-20 -8 -53 -15 -73 -15 -20 0 -58 -8 -85 -17 l-49 -18 -49 18 c-27 9 -65 17
-85 17 -20 0 -53 7 -73 15 -19 8 -47 15 -60 15 -36 0 -75 26 -103 68 -14 21
-41 57 -62 82 -40 48 -68 107 -68 140 0 11 -27 100 -60 198 -33 98 -60 191
-60 207 0 32 35 142 53 165 39 51 129 66 204 35z m-173 -3441 c39 -19 96 -51
126 -70 30 -19 71 -39 91 -44 20 -6 64 -35 98 -65 34 -30 69 -55 77 -55 22 0
82 -29 128 -62 21 -15 47 -28 56 -28 9 0 27 -11 40 -25 13 -14 43 -36 66 -50
23 -14 52 -42 65 -62 12 -21 39 -56 59 -78 47 -53 73 -97 95 -167 l19 -57 -12
-25 -12 -26 -43 0 c-34 0 -49 6 -68 26 -13 14 -44 37 -69 51 -25 13 -70 39
-100 58 -30 18 -71 43 -90 55 -20 12 -46 37 -59 56 -14 19 -41 47 -62 62 -21
15 -51 48 -67 73 -19 29 -51 58 -88 80 -42 24 -60 42 -65 63 -11 40 -36 65
-80 76 -23 6 -46 22 -56 37 -10 15 -36 45 -59 67 -60 61 -97 114 -90 131 8 22
21 19 100 -21z"/>
</g>
</svg>
