<?xml version="1.0" standalone="no"?>
<!DOCTYPE svg PUBLIC "-//W3C//DTD SVG 20010904//EN"
 "http://www.w3.org/TR/2001/REC-SVG-20010904/DTD/svg10.dtd">
<svg version="1.0" xmlns="http://www.w3.org/2000/svg"
 width="783.000000pt" height="336.000000pt" viewBox="0 0 783.000000 336.000000"
 preserveAspectRatio="xMidYMid meet">
<metadata>
Created by potrace 1.16, written by Peter Selinger 2001-2019
</metadata>
<g transform="translate(0.000000,336.000000) scale(0.100000,-0.100000)"
fill="#000000" stroke="none">
<path d="M5369 3323 c-14 -22 -36 -40 -53 -44 -40 -11 -65 -36 -76 -80 -7 -25
-23 -48 -46 -66 -21 -16 -49 -54 -70 -95 l-34 -68 0 -119 0 -119 30 -64 c16
-34 30 -69 30 -76 0 -25 163 -338 200 -381 21 -25 49 -69 64 -98 17 -34 40
-61 68 -80 30 -20 46 -39 53 -63 8 -26 86 -111 320 -346 171 -171 339 -333
375 -359 82 -60 133 -113 126 -131 -7 -19 -67 -18 -113 1 -25 11 -72 15 -165
15 -92 0 -139 4 -165 15 l-35 15 -355 0 -354 0 -36 15 c-24 10 -71 15 -149 15
-66 0 -124 5 -141 12 -15 7 -91 16 -168 20 -164 9 -145 9 -306 2 l-126 -6 -38
16 c-20 9 -49 16 -64 16 -41 0 -165 86 -197 137 -15 25 -51 60 -80 79 -28 19
-71 51 -95 72 -24 21 -66 55 -94 76 -27 21 -63 53 -78 72 -17 20 -43 38 -66
44 -20 5 -55 25 -77 43 -21 19 -59 44 -83 56 -24 13 -62 36 -84 52 -22 16 -47
29 -56 29 -9 0 -29 9 -46 21 -41 27 -182 99 -196 99 -17 0 -145 65 -209 106
-30 19 -71 39 -90 44 -19 5 -81 32 -137 59 -119 59 -209 91 -254 91 -43 0
-235 65 -332 112 -43 21 -89 38 -103 38 -13 0 -41 7 -61 15 -19 8 -53 15 -75
15 -21 0 -55 7 -75 15 -19 8 -45 15 -56 15 -12 0 -62 13 -112 29 -146 47 -175
53 -285 60 -58 4 -115 12 -128 19 -16 9 -69 12 -195 9 -163 -3 -196 -8 -307
-43 -25 -8 -57 -14 -71 -14 -15 0 -37 -12 -54 -30 -16 -16 -35 -30 -42 -30 -7
0 -48 -17 -91 -39 -60 -30 -91 -54 -138 -107 -60 -68 -94 -121 -94 -146 0 -7
-14 -42 -30 -76 -23 -48 -30 -78 -30 -122 0 -32 -4 -62 -10 -65 -5 -3 -10 -35
-10 -70 0 -35 5 -67 10 -70 6 -3 10 -35 10 -70 l0 -63 41 -48 c48 -57 78 -118
79 -157 0 -36 90 -215 124 -246 14 -14 26 -31 26 -38 0 -33 46 -96 154 -212
64 -68 116 -128 116 -134 0 -16 171 -187 215 -215 22 -14 67 -51 100 -82 33
-31 80 -68 105 -82 25 -14 55 -40 68 -57 22 -30 107 -81 135 -81 7 0 24 -12
38 -26 48 -51 348 -244 380 -244 24 0 160 -72 172 -90 8 -15 23 -20 53 -20
l41 0 11 39 c7 21 12 47 12 58 0 21 -108 123 -130 123 -7 0 -39 13 -73 28 -34
16 -74 32 -88 35 -14 4 -54 31 -88 62 -34 30 -70 55 -80 55 -9 0 -28 12 -42
26 -13 14 -82 65 -154 112 -71 48 -150 108 -175 133 -25 26 -59 54 -76 62 -35
18 -303 282 -346 341 -15 21 -28 47 -28 57 0 9 -18 32 -41 49 -27 22 -53 58
-79 110 -22 43 -64 115 -95 161 -30 46 -55 94 -55 107 0 35 -38 140 -66 181
-13 19 -24 48 -24 62 0 15 -7 43 -15 62 -19 47 -19 157 0 204 8 19 15 47 15
62 0 14 14 55 30 89 17 35 30 69 30 75 0 21 83 93 162 141 l77 46 69 0 c41 0
85 7 107 16 l38 16 41 -16 42 -16 232 0 c184 0 240 -3 269 -15 19 -8 53 -15
75 -15 23 0 67 -13 105 -30 35 -16 74 -30 86 -30 12 0 42 -6 67 -14 77 -24
133 -37 190 -45 35 -4 70 -17 95 -34 22 -15 53 -27 70 -27 17 0 50 -13 75 -30
25 -16 58 -30 73 -30 15 0 44 -7 64 -15 19 -8 53 -15 75 -15 45 0 144 -42 209
-89 23 -17 48 -31 56 -31 8 0 42 -13 76 -28 34 -16 73 -32 87 -35 14 -4 47
-24 74 -47 26 -22 56 -40 65 -40 22 0 154 -72 258 -142 31 -20 70 -39 88 -42
18 -4 52 -24 76 -45 24 -21 76 -54 115 -74 43 -22 103 -65 148 -107 42 -38 79
-70 84 -70 16 0 73 -64 88 -98 20 -48 4 -66 -50 -59 -23 3 -77 10 -121 16 -44
5 -184 10 -311 10 -184 1 -239 -2 -267 -14 -20 -8 -56 -15 -80 -15 l-43 0 -69
-48 -70 -48 -18 -54 -17 -55 27 -85 c17 -55 39 -98 60 -122 18 -21 46 -64 62
-96 29 -58 76 -101 231 -212 27 -19 59 -48 71 -63 20 -27 105 -77 131 -77 7 0
55 -20 106 -45 52 -25 98 -45 104 -45 5 0 39 -13 75 -30 37 -17 81 -30 104
-30 22 0 56 -7 76 -15 19 -8 48 -15 62 -15 16 0 37 -10 51 -25 30 -31 50 -31
96 0 l37 25 111 0 111 0 10 -23 c7 -14 19 -22 35 -22 l25 0 3 43 c3 33 9 46
30 59 50 31 114 98 138 145 l24 47 0 90 0 90 -60 122 c-33 67 -60 128 -60 136
0 22 -49 113 -61 113 -6 0 -9 8 -7 17 l3 18 105 8 c119 8 98 8 331 3 130 -3
186 -9 214 -20 27 -12 72 -16 167 -16 92 0 139 -4 165 -15 27 -12 79 -15 224
-15 128 0 197 -4 216 -13 19 -8 115 -14 293 -18 146 -3 304 -11 352 -17 l87
-12 35 15 c45 19 97 19 143 0 19 -8 47 -15 61 -15 13 0 64 -18 111 -41 47 -22
118 -51 156 -64 39 -13 96 -39 127 -58 52 -31 91 -45 238 -88 26 -7 118 -14
217 -16 l172 -4 60 31 61 30 0 96 0 95 -37 45 c-24 29 -62 58 -105 80 l-68 34
-205 0 c-160 0 -214 3 -242 15 -26 11 -74 15 -177 15 l-142 0 -59 20 c-80 28
-97 36 -185 96 -42 28 -96 62 -120 74 -58 29 -129 83 -157 120 -13 15 -47 42
-77 58 -37 22 -63 45 -83 79 -17 27 -46 59 -65 72 -19 13 -46 40 -59 59 -13
19 -44 48 -69 63 -26 16 -65 55 -89 88 -24 33 -61 74 -82 91 -26 21 -39 39
-39 56 0 33 22 40 73 20 58 -22 288 -23 340 -1 20 8 61 15 90 15 30 0 71 7 90
15 20 8 49 15 65 15 31 0 58 23 64 55 2 12 26 33 58 52 106 61 113 67 125 108
6 22 21 59 33 82 l22 42 0 90 0 89 -30 64 c-16 34 -30 69 -30 76 0 48 -113
186 -194 237 -16 9 -48 35 -71 56 -55 51 -156 119 -176 119 -8 0 -26 12 -40
26 -34 37 -119 78 -245 117 -180 57 -194 60 -324 64 -69 2 -129 8 -134 14 -6
5 -29 9 -51 9 l-42 0 -24 -37z m388 -198 c19 -8 52 -15 72 -15 34 0 124 -26
181 -52 14 -7 46 -29 71 -49 26 -21 75 -52 109 -70 35 -18 90 -59 124 -93 34
-33 74 -69 89 -79 16 -11 30 -31 34 -48 3 -18 21 -42 46 -61 54 -43 77 -96 77
-182 l0 -69 -42 -41 c-24 -23 -55 -63 -70 -89 l-27 -47 -30 0 c-16 0 -59 -13
-94 -30 l-65 -30 -156 0 c-117 0 -166 4 -193 15 -19 8 -60 15 -90 15 -29 0
-70 7 -90 15 -19 8 -54 15 -77 15 -44 0 -66 13 -66 40 0 9 -22 45 -50 79 -28
35 -56 83 -64 110 -8 27 -22 63 -31 80 -8 17 -34 84 -55 149 -46 136 -51 201
-19 247 11 17 33 56 49 87 33 63 61 88 101 88 15 0 42 7 60 15 45 19 160 19
206 0z m-2157 -2011 c29 -12 53 -14 83 -9 47 8 43 8 213 -3 l121 -7 81 -88
c51 -55 85 -101 91 -123 5 -20 22 -51 36 -70 14 -19 40 -63 57 -99 l30 -65 -3
-78 c-5 -97 -23 -126 -100 -154 l-54 -20 -167 1 c-126 0 -176 4 -204 16 -20 8
-54 15 -76 15 -45 0 -144 42 -209 89 -23 17 -49 31 -56 31 -44 0 -231 122
-316 206 -41 41 -97 113 -107 139 -44 111 -52 135 -47 149 8 21 82 55 118 56
15 0 42 7 60 15 26 11 80 14 221 15 l188 0 40 -16z m3940 -217 c52 -26 62 -52
27 -68 -18 -8 -32 -7 -62 5 -20 9 -49 16 -64 16 -14 1 -37 7 -51 15 -14 8 -38
14 -53 15 -16 0 -38 5 -50 12 l-22 11 20 8 c11 4 63 8 115 8 l95 1 45 -23z"/>
</g>
</svg>
