<?xml version="1.0" standalone="no"?>
<!DOCTYPE svg PUBLIC "-//W3C//DTD SVG 20010904//EN"
 "http://www.w3.org/TR/2001/REC-SVG-20010904/DTD/svg10.dtd">
<svg version="1.0" xmlns="http://www.w3.org/2000/svg"
 width="453.000000pt" height="255.000000pt" viewBox="0 0 453.000000 255.000000"
 preserveAspectRatio="xMidYMid meet">
<metadata>
Created by potrace 1.16, written by Peter Selinger 2001-2019
</metadata>
<g transform="translate(0.000000,255.000000) scale(0.100000,-0.100000)"
fill="#000000" stroke="none">
<path d="M2376 2541 c-3 -5 -23 -11 -43 -14 -34 -5 -70 -13 -152 -35 -42 -12
-123 -138 -160 -250 -25 -73 -27 -126 -6 -175 8 -20 15 -54 15 -75 0 -22 7
-56 15 -75 8 -20 15 -62 15 -94 l0 -58 30 -45 c16 -25 30 -51 30 -58 0 -23 72
-156 106 -196 19 -22 38 -55 43 -74 6 -18 21 -48 34 -65 13 -18 38 -60 56 -93
18 -34 75 -110 128 -170 52 -59 102 -119 111 -133 25 -41 84 -101 123 -127 21
-12 50 -41 65 -63 16 -22 46 -61 68 -86 l38 -45 -12 -15 -12 -15 -170 0 c-127
0 -177 4 -205 15 -24 10 -71 15 -150 15 -78 0 -125 5 -150 15 -27 11 -77 15
-209 15 -114 0 -182 4 -201 12 -15 7 -104 16 -198 20 -93 4 -190 10 -215 13
-25 3 -124 8 -220 13 -108 4 -183 12 -197 20 -14 8 -63 12 -138 12 -80 0 -127
5 -152 15 -24 10 -71 15 -150 15 -78 0 -125 5 -150 15 -19 8 -60 15 -91 15
l-55 0 -48 31 c-36 23 -57 30 -86 27 l-38 -3 -22 -40 c-12 -22 -22 -59 -22
-82 l-1 -43 26 0 c14 0 55 -13 91 -30 l64 -30 99 0 c54 0 111 -5 127 -12 33
-13 133 -29 218 -34 191 -11 293 -21 312 -32 13 -7 62 -12 123 -12 67 0 113
-5 137 -15 27 -12 79 -15 224 -15 116 0 198 -4 216 -11 15 -6 83 -13 151 -15
79 -3 135 -9 158 -19 28 -12 80 -15 226 -15 145 0 197 -3 225 -15 l35 -15 310
0 309 0 36 -15 c19 -8 45 -15 57 -15 61 0 232 -76 305 -136 36 -30 63 -44 83
-44 16 0 59 -14 95 -30 35 -17 69 -30 74 -30 6 0 40 -18 77 -40 37 -23 78 -43
92 -46 14 -2 43 -9 65 -15 22 -6 63 -13 90 -16 28 -3 54 -9 60 -14 11 -11 308
-12 321 -1 5 5 35 17 66 27 l58 19 0 112 0 112 -33 21 c-18 11 -43 31 -56 45
-14 14 -31 26 -38 26 -8 0 -40 12 -70 26 -31 14 -91 36 -132 50 -42 13 -100
36 -129 49 l-53 25 -85 0 c-53 0 -98 6 -121 15 -20 8 -66 15 -104 15 -37 0
-80 5 -96 12 -27 10 -135 29 -178 30 -11 0 -36 -3 -56 -7 -45 -9 -94 12 -162
67 -26 22 -63 44 -82 49 -19 6 -43 21 -52 36 -36 51 -99 116 -135 139 -21 14
-49 41 -62 62 -13 20 -43 50 -67 65 -25 16 -55 45 -69 65 -13 20 -34 48 -46
62 -12 14 -46 61 -76 105 -29 44 -69 101 -89 125 -53 67 -99 144 -99 166 0 10
4 25 9 33 l9 14 32 -12 c51 -17 349 -15 393 4 20 8 61 15 92 15 143 0 335 166
335 290 0 58 -34 152 -80 218 -48 71 -241 262 -265 262 -22 0 -82 28 -120 56
-49 36 -173 94 -200 94 -14 0 -42 7 -62 15 -19 8 -55 15 -79 15 -23 0 -46 5
-49 10 -8 12 -72 13 -79 1z m171 -226 c19 -8 47 -15 62 -15 14 0 43 -11 64
-25 20 -14 73 -44 117 -66 100 -49 201 -143 270 -248 73 -111 67 -139 -38
-204 l-60 -37 -154 0 -153 0 -73 25 c-41 14 -92 25 -114 25 -41 0 -135 38
-156 62 -6 7 -27 62 -47 122 l-37 108 4 101 3 102 23 33 23 32 115 0 c79 0
126 -5 151 -15z m1350 -1980 c19 -8 53 -15 75 -15 22 0 56 -8 76 -17 49 -23
127 -82 127 -96 0 -19 -49 -20 -90 -3 -21 9 -56 16 -78 16 -40 0 -130 37 -211
88 -30 18 -36 26 -25 33 22 14 86 11 126 -6z"/>
</g>
</svg>
