<?xml version="1.0" standalone="no"?>
<!DOCTYPE svg PUBLIC "-//W3C//DTD SVG 20010904//EN"
 "http://www.w3.org/TR/2001/REC-SVG-20010904/DTD/svg10.dtd">
<svg version="1.0" xmlns="http://www.w3.org/2000/svg"
 width="381.000000pt" height="366.000000pt" viewBox="0 0 381.000000 366.000000"
 preserveAspectRatio="xMidYMid meet">
<metadata>
Created by potrace 1.16, written by Peter Selinger 2001-2019
</metadata>
<g transform="translate(0.000000,366.000000) scale(0.100000,-0.100000)"
fill="#000000" stroke="none">
<path d="M2105 3650 c-3 -5 -21 -10 -40 -10 -43 0 -82 -33 -140 -119 l-45 -67
0 -62 c0 -44 6 -75 21 -103 27 -54 69 -178 69 -207 0 -19 65 -155 129 -272 29
-52 81 -175 81 -190 0 -8 12 -27 27 -43 35 -35 99 -137 154 -242 22 -44 51
-93 64 -110 12 -16 32 -50 45 -75 13 -25 38 -63 56 -84 19 -22 38 -55 43 -74
6 -18 21 -48 34 -65 13 -18 33 -50 45 -72 11 -22 32 -51 46 -64 14 -14 26 -31
26 -38 0 -23 40 -95 80 -143 47 -57 96 -138 104 -170 3 -14 27 -51 53 -84 56
-69 56 -68 79 -124 10 -24 35 -57 56 -74 21 -17 50 -53 64 -81 38 -75 102
-164 133 -187 16 -10 45 -50 64 -88 21 -40 52 -81 72 -96 19 -15 45 -46 57
-69 11 -23 38 -61 59 -85 39 -45 66 -124 54 -161 -17 -54 -193 -145 -330 -172
-52 -10 -118 -27 -175 -45 l-45 -14 -543 0 -543 0 -36 15 c-20 8 -66 15 -105
15 -38 0 -84 7 -105 15 -19 8 -59 15 -87 15 -28 0 -71 6 -96 14 -78 25 -133
37 -195 45 -34 5 -70 13 -82 19 -12 7 -47 12 -78 12 -30 0 -72 7 -92 15 -19 8
-46 15 -60 15 -13 0 -49 11 -79 25 -68 31 -168 65 -191 65 -34 0 -220 69 -269
100 -57 35 -176 79 -215 80 -15 0 -37 12 -54 30 -16 16 -36 30 -44 30 -9 0
-45 14 -79 30 -88 42 -92 41 -92 -24 l0 -55 41 -28 c23 -15 65 -47 94 -70 67
-52 96 -67 196 -99 45 -15 112 -42 150 -60 73 -36 268 -104 297 -104 24 0 215
-65 280 -95 29 -14 71 -25 93 -25 22 0 56 -7 76 -15 20 -8 66 -15 105 -15 38
0 84 -7 105 -15 19 -8 60 -15 90 -15 29 0 70 -7 90 -15 19 -8 53 -15 75 -15
21 0 55 -7 75 -15 25 -10 71 -15 154 -15 68 0 120 -4 124 -10 8 -14 822 -14
830 0 3 6 52 10 111 10 60 0 115 5 127 12 12 6 48 14 82 19 62 8 117 20 195
45 25 8 61 14 80 14 51 1 133 32 172 66 19 17 56 45 82 64 27 20 56 52 67 74
l19 40 0 113 0 113 -39 20 c-22 11 -48 32 -58 46 -10 15 -37 47 -59 73 -23 25
-54 64 -70 87 -57 81 -100 136 -151 196 -29 33 -57 76 -62 95 -6 20 -37 63
-75 103 -38 41 -69 83 -74 104 -6 19 -28 57 -50 83 -22 26 -51 71 -65 98 -14
28 -35 64 -46 80 -12 17 -21 36 -21 44 0 7 -19 34 -43 60 -42 47 -64 85 -88
150 -7 19 -58 103 -114 187 -55 84 -113 176 -130 204 -79 136 -104 187 -105
209 l0 23 28 -7 c25 -6 245 -25 322 -27 108 -2 214 45 305 136 69 69 80 85
101 154 29 97 11 193 -56 305 -22 36 -40 72 -40 79 0 19 -69 117 -129 184 -28
32 -51 61 -51 65 0 11 -137 117 -182 140 -24 12 -56 32 -73 44 -68 51 -245
125 -299 125 -14 0 -28 5 -31 10 -4 6 -73 10 -175 10 -102 0 -171 -4 -175 -10z
m172 -135 c19 -8 59 -15 87 -15 32 0 90 -13 156 -36 141 -47 179 -66 234 -113
26 -23 51 -41 55 -41 5 0 58 -50 119 -110 79 -79 113 -120 117 -143 4 -18 19
-44 33 -59 14 -15 31 -42 38 -60 6 -18 22 -56 34 -84 28 -62 23 -101 -21 -168
-37 -55 -92 -96 -130 -96 -15 0 -43 -7 -62 -15 -20 -8 -66 -15 -102 -15 -36 0
-82 7 -102 15 -19 8 -65 15 -101 15 -65 0 -168 27 -204 54 -21 15 -108 147
-108 163 0 7 -34 80 -75 164 -58 117 -75 161 -75 194 0 23 -7 59 -15 78 -10
24 -15 70 -15 136 l0 100 28 19 c50 35 61 37 109 17z"/>
</g>
</svg>
