<?xml version="1.0" standalone="no"?>
<!DOCTYPE svg PUBLIC "-//W3C//DTD SVG 20010904//EN"
 "http://www.w3.org/TR/2001/REC-SVG-20010904/DTD/svg10.dtd">
<svg version="1.0" xmlns="http://www.w3.org/2000/svg"
 width="312.000000pt" height="375.000000pt" viewBox="0 0 312.000000 375.000000"
 preserveAspectRatio="xMidYMid meet">
<metadata>
Created by potrace 1.16, written by Peter Selinger 2001-2019
</metadata>
<g transform="translate(0.000000,375.000000) scale(0.100000,-0.100000)"
fill="#000000" stroke="none">
<path d="M1432 3714 c-56 -37 -92 -94 -131 -212 -23 -66 -28 -161 -10 -193 6
-11 14 -41 19 -67 24 -127 95 -349 126 -389 31 -41 144 -271 144 -293 0 -9 13
-35 29 -57 16 -22 39 -60 52 -84 12 -24 39 -64 60 -89 37 -44 99 -162 99 -189
0 -7 16 -31 35 -52 19 -21 62 -94 96 -161 34 -68 77 -141 96 -163 18 -22 36
-51 40 -65 11 -46 101 -215 127 -239 16 -15 26 -35 26 -53 0 -24 54 -141 129
-278 10 -19 36 -73 57 -119 22 -47 54 -110 72 -140 19 -31 43 -83 54 -116 12
-33 28 -70 36 -82 18 -28 5 -30 -23 -3 -12 11 -44 33 -72 48 -89 48 -154 86
-205 120 -27 18 -82 49 -121 69 -40 19 -92 52 -117 73 -48 39 -120 80 -142 80
-8 0 -51 25 -97 55 -86 58 -212 125 -233 125 -7 0 -26 13 -43 29 -16 16 -86
57 -155 92 -69 34 -138 73 -155 85 -16 12 -77 46 -135 75 -58 29 -118 62 -135
75 -16 12 -58 32 -92 43 -80 27 -247 30 -296 5 -56 -28 -67 -44 -67 -91 0 -24
-7 -60 -15 -80 -8 -19 -15 -48 -15 -64 0 -17 35 -98 79 -187 62 -122 91 -169
132 -210 29 -29 66 -73 83 -99 21 -32 41 -49 62 -55 17 -4 58 -32 90 -60 33
-29 79 -61 104 -71 25 -10 59 -26 75 -35 17 -8 66 -35 110 -59 58 -31 92 -42
123 -43 23 0 59 -7 79 -15 24 -10 69 -15 137 -15 l101 0 70 25 c80 28 118 54
123 81 2 10 16 33 32 49 15 17 30 41 33 55 4 14 13 34 21 45 l14 20 44 -24
c23 -12 68 -38 98 -57 30 -19 72 -39 92 -45 24 -6 47 -23 64 -45 15 -19 44
-44 64 -54 43 -22 166 -104 195 -130 11 -10 41 -33 67 -52 40 -28 131 -106
241 -205 15 -14 41 -51 58 -82 16 -31 44 -75 62 -98 l32 -42 80 2 80 2 3 76 3
76 -21 34 c-12 19 -41 65 -65 103 -24 38 -47 83 -51 100 -4 17 -24 50 -45 74
-21 24 -41 58 -45 75 -8 41 -66 156 -109 219 -18 26 -36 63 -40 80 -4 18 -20
54 -36 79 -16 25 -29 51 -29 58 0 7 -17 32 -37 56 -27 29 -45 66 -62 121 -28
92 -51 140 -96 206 -19 26 -36 63 -40 80 -4 18 -20 54 -36 79 -16 25 -29 53
-29 61 0 9 -18 38 -40 64 -23 27 -44 60 -47 74 -3 14 -19 52 -35 85 -15 33
-28 67 -28 76 0 9 -18 39 -40 65 -23 27 -43 60 -46 74 -4 14 -22 50 -41 80
-133 211 -146 260 -71 260 16 0 45 -7 65 -15 28 -12 81 -15 247 -15 l211 1 80
42 80 42 42 80 42 80 0 75 c1 58 -6 94 -29 160 -17 46 -30 95 -30 108 0 36
-84 190 -135 249 -25 28 -45 58 -45 66 0 18 -25 40 -77 66 -22 11 -52 34 -65
50 -32 41 -137 125 -190 152 -24 11 -64 39 -90 60 -30 25 -73 47 -125 64 -43
14 -115 43 -160 65 -46 22 -89 40 -97 40 -8 0 -18 5 -21 10 -4 6 -57 10 -128
9 l-122 0 -53 -35z m293 -144 c100 -35 347 -160 398 -202 26 -22 63 -44 82
-49 19 -6 43 -22 52 -36 10 -15 37 -45 60 -67 162 -155 217 -219 235 -271 10
-27 18 -59 18 -71 0 -12 15 -53 32 -90 26 -54 33 -82 33 -131 l0 -61 -45 -46
c-57 -59 -95 -76 -163 -76 -29 0 -68 -5 -86 -11 l-31 -11 -81 26 c-44 14 -101
26 -127 26 -60 0 -251 64 -274 92 -10 11 -18 28 -18 37 0 9 -31 62 -69 118
-37 56 -73 121 -79 145 -6 24 -27 70 -47 103 -45 73 -75 157 -75 206 0 20 -7
53 -15 72 -10 25 -15 72 -15 152 l0 116 25 24 24 25 53 0 c30 0 81 -9 113 -20z
m-813 -2145 c51 -41 180 -110 225 -119 17 -4 51 -25 75 -46 24 -21 86 -59 138
-86 52 -26 109 -57 125 -70 17 -12 64 -39 105 -60 88 -43 146 -87 155 -115 9
-27 -11 -108 -34 -138 -39 -51 -183 -77 -258 -46 -19 8 -45 15 -57 15 -34 0
-125 35 -191 73 -210 123 -309 207 -359 305 -13 26 -36 58 -50 71 -16 15 -26
35 -26 52 0 14 -6 42 -14 60 -16 40 -23 109 -12 127 4 7 31 12 71 12 l63 0 44
-35z"/>
<path d="M27 1002 c-51 -53 -31 -104 63 -160 19 -11 45 -34 58 -51 22 -30 107
-81 135 -81 7 0 29 -20 49 -44 36 -42 105 -94 198 -148 25 -14 55 -39 67 -56
12 -16 46 -43 75 -60 30 -16 66 -46 81 -65 20 -27 41 -40 82 -52 58 -16 77
-13 118 23 39 34 3 100 -85 156 -24 15 -56 45 -71 66 -15 22 -51 52 -80 67
-32 18 -62 44 -80 71 -21 31 -45 50 -86 69 -74 34 -70 31 -135 84 -31 25 -92
63 -134 84 -42 20 -101 57 -131 81 -62 51 -87 54 -124 16z"/>
</g>
</svg>
