<?xml version="1.0" standalone="no"?>
<!DOCTYPE svg PUBLIC "-//W3C//DTD SVG 20010904//EN"
 "http://www.w3.org/TR/2001/REC-SVG-20010904/DTD/svg10.dtd">
<svg version="1.0" xmlns="http://www.w3.org/2000/svg"
 width="753.000000pt" height="192.000000pt" viewBox="0 0 753.000000 192.000000"
 preserveAspectRatio="xMidYMid meet">
<metadata>
Created by potrace 1.16, written by Peter Selinger 2001-2019
</metadata>
<g transform="translate(0.000000,192.000000) scale(0.100000,-0.100000)"
fill="#000000" stroke="none">
<path d="M3095 1910 c-4 -6 -76 -10 -184 -10 -136 0 -187 -4 -214 -15 -20 -8
-61 -15 -90 -15 -30 0 -71 -7 -90 -15 -20 -8 -52 -15 -72 -15 -36 0 -137 -30
-187 -56 -15 -8 -47 -42 -72 -76 -24 -35 -56 -74 -70 -87 -21 -20 -26 -34 -26
-70 0 -58 39 -167 85 -242 21 -34 33 -64 29 -73 -10 -25 -51 -30 -97 -12 -24
9 -66 16 -95 16 -29 0 -69 7 -89 15 -19 8 -60 15 -90 15 -29 0 -70 7 -90 15
-19 8 -53 15 -75 15 -21 0 -55 7 -75 15 -19 8 -60 15 -90 15 -29 0 -70 7 -90
15 -45 19 -273 21 -291 3 -39 -39 20 -107 118 -136 129 -39 157 -44 260 -51
58 -4 115 -12 127 -19 12 -7 47 -12 78 -12 30 0 72 -7 92 -15 19 -8 53 -15 75
-15 21 0 55 -7 75 -15 20 -8 66 -15 105 -15 38 0 84 -7 105 -15 26 -11 75 -15
188 -15 l154 0 20 26 c11 14 23 34 26 44 9 28 -19 75 -64 106 -53 39 -139 170
-163 250 l-20 66 13 29 c12 30 111 109 135 109 7 0 42 14 77 30 l65 30 115 0
c79 0 126 5 150 15 l36 15 291 0 291 0 36 -15 c19 -8 52 -15 72 -15 20 0 75
-13 121 -30 62 -21 104 -30 153 -30 37 0 84 -7 104 -15 20 -8 66 -15 105 -15
38 0 84 -7 105 -15 23 -10 69 -15 135 -15 65 0 111 -5 135 -15 19 -8 60 -15
90 -15 29 0 70 -7 90 -15 19 -8 45 -15 57 -15 12 0 60 -13 106 -30 47 -16 102
-30 123 -30 21 0 54 -7 74 -15 19 -8 58 -15 86 -15 29 0 91 -13 142 -29 99
-32 157 -48 225 -61 25 -5 77 -20 115 -34 39 -14 81 -26 96 -26 39 0 49 -18
49 -92 0 -86 27 -170 80 -247 22 -32 112 -129 200 -215 145 -141 215 -196 252
-196 7 0 35 -25 61 -55 27 -30 60 -58 75 -61 28 -7 116 -56 213 -118 30 -20
61 -36 68 -36 7 0 42 -13 78 -30 35 -16 70 -30 76 -30 7 0 41 -14 75 -30 35
-17 75 -30 88 -30 14 0 41 -7 61 -15 25 -11 73 -15 171 -15 l136 0 67 45 c37
25 79 59 93 76 l26 31 0 93 c0 52 4 97 10 100 13 8 13 72 0 80 -5 3 -24 34
-42 68 -43 82 -164 202 -247 246 -35 18 -99 58 -142 87 -51 35 -108 64 -160
81 -45 14 -112 41 -150 59 -38 19 -170 67 -293 108 -123 41 -242 84 -264 95
-23 12 -47 21 -54 21 -7 0 -30 11 -49 24 -56 38 -150 66 -222 66 -44 0 -88 9
-147 30 -47 16 -102 30 -123 30 -21 0 -54 7 -74 15 -19 8 -51 15 -71 15 -19 0
-97 20 -171 44 -148 48 -201 63 -273 76 -26 5 -56 13 -67 19 -11 6 -45 11 -76
11 -30 0 -72 7 -92 15 -19 8 -53 15 -75 15 -21 0 -55 7 -75 15 -19 8 -59 15
-87 15 -28 0 -71 6 -96 14 -78 25 -133 37 -195 45 -34 5 -70 13 -82 19 -12 7
-54 12 -93 12 -40 0 -86 6 -107 15 -22 9 -67 15 -120 15 -52 0 -97 6 -120 15
-20 8 -66 15 -105 15 -38 0 -84 7 -105 15 -26 11 -75 15 -184 15 -88 0 -150 4
-154 10 -3 6 -28 10 -55 10 -27 0 -52 -4 -55 -10z m3024 -736 c18 -8 45 -14
59 -14 13 0 64 -18 111 -41 94 -44 190 -79 219 -79 33 0 136 -41 280 -110 78
-39 148 -70 155 -70 21 0 239 -149 291 -198 26 -26 61 -65 77 -86 l29 -39 0
-87 c0 -106 -9 -120 -95 -149 -71 -25 -113 -26 -162 -6 -19 8 -54 15 -77 15
-31 0 -79 18 -194 75 -84 41 -158 75 -165 75 -7 0 -34 25 -60 55 -27 31 -60
58 -75 61 -53 13 -108 43 -167 93 -33 28 -81 62 -107 76 -26 14 -58 39 -70 56
-12 16 -45 47 -73 68 -27 21 -60 56 -73 77 -110 184 -114 194 -92 235 l11 19
72 -6 c40 -4 87 -13 106 -20z"/>
<path d="M22 1190 l-22 -9 0 -40 0 -40 42 -28 c23 -15 63 -49 88 -74 25 -26
61 -55 80 -64 19 -10 49 -29 67 -42 17 -13 47 -29 67 -34 19 -5 59 -31 88 -57
29 -27 132 -101 228 -165 96 -64 199 -136 228 -161 30 -26 57 -46 61 -46 4 0
36 -25 71 -55 36 -30 92 -69 125 -86 70 -37 124 -77 180 -134 22 -22 62 -52
89 -68 31 -17 52 -38 59 -57 l11 -30 92 0 91 0 13 40 c17 51 5 81 -48 114 -21
13 -75 56 -120 94 -45 39 -90 77 -100 84 -10 7 -34 36 -54 63 -23 34 -46 54
-69 61 l-34 11 -52 84 c-64 103 -68 141 -23 209 58 87 34 120 -86 120 l-79 0
-39 -23 c-39 -22 -45 -29 -65 -80 -6 -15 -21 -32 -35 -38 -29 -14 -79 7 -144
59 -74 59 -144 104 -176 113 -39 12 -53 23 -94 77 -19 23 -41 42 -49 42 -22 0
-199 86 -238 116 -18 13 -54 31 -81 39 -27 8 -49 15 -49 14 0 0 -10 -4 -23 -9z"/>
</g>
</svg>
