<?xml version="1.0" standalone="no"?>
<!DOCTYPE svg PUBLIC "-//W3C//DTD SVG 20010904//EN"
 "http://www.w3.org/TR/2001/REC-SVG-20010904/DTD/svg10.dtd">
<svg version="1.0" xmlns="http://www.w3.org/2000/svg"
 width="765.000000pt" height="153.000000pt" viewBox="0 0 765.000000 153.000000"
 preserveAspectRatio="xMidYMid meet">
<metadata>
Created by potrace 1.16, written by Peter Selinger 2001-2019
</metadata>
<g transform="translate(0.000000,153.000000) scale(0.100000,-0.100000)"
fill="#000000" stroke="none">
<path d="M6545 1520 c-3 -5 -20 -10 -36 -10 -54 0 -172 -67 -226 -129 -58 -66
-65 -77 -92 -158 -32 -95 -29 -205 9 -313 17 -46 30 -92 30 -102 0 -22 36
-131 55 -168 7 -14 23 -34 35 -45 12 -10 41 -47 65 -80 24 -34 59 -72 78 -85
19 -13 49 -45 66 -71 17 -26 44 -58 61 -71 17 -12 43 -33 57 -44 l27 -22 -13
-16 c-8 -9 -29 -16 -51 -16 -21 0 -54 -7 -73 -15 -51 -21 -273 -21 -324 0
l-35 15 -400 0 -399 0 -36 15 c-22 9 -67 15 -120 15 -52 0 -97 6 -120 15 -19
8 -53 15 -75 15 -21 0 -55 7 -75 15 -19 8 -52 15 -72 15 -20 0 -56 6 -81 14
-92 29 -137 38 -225 46 -88 8 -137 21 -221 60 -57 26 -159 60 -182 60 -19 0
-108 30 -129 43 -8 5 -13 31 -13 66 0 32 -7 75 -15 94 -8 20 -15 49 -15 65 0
31 -56 111 -152 216 -64 70 -174 146 -211 146 -15 0 -44 7 -64 15 -52 22 -194
19 -263 -5 -58 -19 -100 -62 -141 -143 l-20 -37 15 -49 c15 -52 79 -153 118
-186 34 -30 108 -80 148 -100 79 -40 171 -107 168 -124 -2 -9 -24 -26 -50 -39
l-47 -24 -289 1 -290 0 -37 15 c-22 9 -67 16 -107 16 -38 0 -84 7 -105 15 -20
8 -66 15 -105 15 -38 0 -84 7 -105 15 -22 9 -67 15 -117 15 -44 0 -101 7 -126
15 -25 8 -61 17 -81 20 -23 3 -54 20 -82 45 -29 25 -55 40 -72 40 -39 0 -137
48 -240 119 l-90 61 -48 0 c-47 0 -95 -18 -129 -48 -20 -17 -24 -72 -8 -102
11 -20 111 -89 200 -138 57 -31 67 -47 38 -66 -13 -7 -29 -7 -60 3 -26 9 -115
16 -223 20 -115 4 -188 10 -202 19 -14 8 -66 12 -153 12 -93 0 -141 4 -167 15
-20 8 -66 15 -105 15 -38 0 -84 7 -105 15 -19 8 -53 15 -75 15 -21 0 -55 7
-75 15 -22 9 -67 15 -120 15 -52 0 -97 6 -120 15 -19 8 -58 15 -86 15 -27 0
-67 5 -88 11 -29 9 -48 9 -84 -1 l-45 -13 0 -38 c0 -25 5 -39 13 -39 6 0 32
-14 57 -30 32 -22 57 -30 88 -30 23 0 59 -7 79 -15 23 -10 69 -15 132 -15 l97
0 84 -30 c62 -21 104 -30 153 -30 37 0 84 -7 104 -15 19 -8 53 -15 75 -15 21
0 55 -7 75 -15 22 -9 67 -15 120 -15 52 0 97 -6 120 -15 l35 -15 315 0 314 0
42 21 c23 12 58 35 77 50 19 16 43 29 53 29 10 0 65 -16 123 -35 64 -21 124
-35 154 -35 28 0 67 -7 87 -15 24 -10 71 -15 150 -15 78 0 125 -5 150 -15 23
-10 69 -15 135 -15 65 0 111 -5 135 -15 28 -12 85 -15 275 -15 151 0 247 4
259 11 11 6 41 14 67 19 67 12 124 28 227 61 103 33 131 35 195 15 88 -28 136
-38 205 -45 53 -5 80 -13 110 -34 22 -15 51 -27 64 -27 14 0 66 -13 116 -29
146 -47 175 -53 285 -60 58 -4 115 -12 127 -19 12 -7 40 -12 63 -12 22 0 57
-7 77 -15 19 -8 53 -15 75 -15 21 0 55 -7 75 -15 19 -8 60 -15 90 -15 29 0 70
-7 90 -15 27 -11 78 -15 214 -15 108 0 180 -4 184 -10 10 -15 458 -13 473 2
10 10 17 10 32 0 24 -15 286 -17 295 -2 3 6 39 10 79 10 43 0 89 6 109 15 23
9 69 15 125 15 l88 0 29 30 c16 17 39 30 52 30 33 0 134 35 205 71 145 73 303
230 360 357 11 26 25 55 29 64 13 25 11 315 -1 323 -5 3 -10 20 -10 36 0 16
-11 51 -24 77 -25 48 -146 173 -201 207 -16 10 -50 37 -75 61 l-45 42 -243 81
c-184 61 -256 81 -297 81 -30 0 -57 5 -60 10 -3 6 -35 10 -70 10 -35 0 -67 -4
-70 -10z m399 -230 c174 -58 244 -89 301 -133 158 -121 215 -225 215 -390 0
-65 -6 -108 -22 -159 l-23 -70 -65 -67 c-91 -94 -126 -117 -211 -145 -42 -14
-102 -37 -134 -51 -65 -30 -78 -28 -137 24 -20 17 -53 36 -74 43 -36 12 -44
22 -74 88 -4 8 -29 27 -56 42 -54 29 -84 61 -84 87 0 10 -14 30 -30 46 -75 72
-180 265 -180 331 0 12 -7 38 -15 57 -26 63 -19 105 34 214 27 55 60 108 72
117 l23 16 155 0 154 0 151 -50z m-3368 -375 c40 -20 81 -47 91 -61 10 -14 35
-46 55 -72 45 -55 74 -140 55 -159 -9 -10 -27 -7 -82 10 -54 17 -80 32 -115
68 -25 25 -65 57 -90 71 -48 28 -115 110 -107 132 7 17 66 45 96 46 13 0 57
-16 97 -35z"/>
</g>
</svg>
