<?xml version="1.0" standalone="no"?>
<!DOCTYPE svg PUBLIC "-//W3C//DTD SVG 20010904//EN"
 "http://www.w3.org/TR/2001/REC-SVG-20010904/DTD/svg10.dtd">
<svg version="1.0" xmlns="http://www.w3.org/2000/svg"
 width="630.000000pt" height="375.000000pt" viewBox="0 0 630.000000 375.000000"
 preserveAspectRatio="xMidYMid meet">
<metadata>
Created by potrace 1.16, written by Peter Selinger 2001-2019
</metadata>
<g transform="translate(0.000000,375.000000) scale(0.100000,-0.100000)"
fill="#000000" stroke="none">
<path d="M5255 3740 c-4 -6 -27 -21 -53 -34 -26 -13 -59 -37 -73 -53 -29 -30
-69 -104 -69 -125 0 -7 -11 -30 -25 -50 -13 -20 -34 -66 -46 -102 l-22 -65 17
-41 c11 -28 16 -72 16 -144 l0 -103 29 -40 c16 -22 50 -83 77 -136 33 -67 64
-113 102 -149 29 -29 67 -77 84 -106 17 -29 43 -63 59 -74 29 -22 89 -99 89
-116 0 -14 -107 -52 -150 -52 -21 0 -54 -7 -73 -15 -24 -10 -70 -15 -135 -15
-66 0 -112 -5 -135 -15 -28 -12 -80 -15 -225 -15 -146 0 -198 -3 -225 -15 -23
-9 -68 -15 -119 -15 l-83 0 -45 30 -45 30 -223 0 c-175 0 -230 3 -259 15 -22
9 -67 15 -120 15 -52 0 -97 6 -120 15 -23 10 -69 15 -135 15 -65 0 -111 5
-135 15 -23 10 -69 15 -135 15 -65 0 -111 5 -135 15 -19 8 -60 15 -90 15 -29
0 -70 7 -90 15 -19 8 -52 15 -72 15 -20 0 -56 6 -81 14 -60 19 -125 35 -182
46 -26 5 -56 13 -67 19 -11 6 -44 11 -73 11 -55 0 -247 59 -327 99 -22 12 -57
21 -78 21 -44 0 -145 33 -183 60 -82 58 -155 74 -198 44 -19 -13 -62 -82 -62
-99 0 -3 19 -26 42 -51 48 -52 86 -74 193 -109 43 -14 108 -46 150 -75 41 -27
108 -66 148 -86 39 -20 92 -53 117 -73 25 -21 61 -46 80 -56 77 -39 351 -229
371 -256 11 -16 42 -41 69 -54 26 -13 82 -56 124 -95 42 -38 83 -70 92 -70 15
0 82 -62 226 -208 13 -12 77 -75 143 -139 66 -64 131 -135 146 -157 14 -23 41
-59 60 -80 73 -83 229 -365 229 -416 0 -14 11 -61 24 -105 40 -132 48 -178 36
-209 -5 -15 -10 -46 -10 -70 l0 -42 -49 -46 c-57 -54 -85 -70 -184 -103 l-72
-25 -183 0 c-140 0 -191 4 -219 15 l-35 15 -385 0 -384 0 -36 15 c-28 12 -86
15 -285 15 -198 0 -256 3 -285 15 -28 12 -86 15 -285 15 -198 0 -256 3 -285
15 -28 12 -84 15 -270 15 -185 0 -241 3 -270 15 -28 12 -81 15 -244 15 l-209
0 0 -25 c0 -14 6 -25 13 -25 7 0 26 -14 42 -30 l29 -30 73 0 c43 0 89 -6 110
-15 22 -9 67 -15 120 -15 52 0 97 -6 120 -15 26 -11 74 -15 180 -15 105 0 153
-4 180 -15 l35 -15 429 0 c313 0 435 -3 456 -12 15 -7 98 -16 183 -20 85 -4
175 -10 200 -13 25 -3 164 -9 310 -13 182 -5 272 -11 287 -19 16 -10 112 -13
382 -13 229 0 362 -4 366 -10 3 -5 31 -10 62 -10 l55 0 35 28 c59 45 133 124
167 177 18 28 43 59 55 69 l21 19 0 152 c0 113 -4 162 -15 188 -8 20 -15 54
-15 76 0 28 -18 76 -60 164 -33 68 -60 130 -60 139 0 8 -12 25 -26 39 -14 13
-38 44 -53 69 -38 65 -99 145 -153 200 -25 26 -54 63 -63 81 -10 19 -93 109
-184 201 -124 124 -177 171 -206 180 -26 9 -49 27 -69 55 -17 24 -49 55 -71
69 -22 14 -51 36 -65 48 -14 12 -38 31 -55 41 -16 10 -50 37 -75 60 -25 23
-65 54 -90 69 -25 14 -72 49 -105 77 -33 28 -73 53 -88 56 -31 6 -84 74 -72
92 9 16 120 13 162 -4 19 -8 45 -15 57 -15 12 0 60 -13 106 -30 68 -24 102
-30 168 -30 50 0 97 -6 119 -15 22 -9 67 -15 120 -15 52 0 97 -6 120 -15 26
-11 76 -15 195 -15 118 0 168 -4 195 -15 23 -10 69 -15 135 -15 65 0 111 -5
135 -15 26 -11 74 -15 180 -15 105 0 153 -4 180 -15 28 -12 81 -15 243 -15
l208 0 38 16 c28 12 53 14 89 9 63 -8 72 -8 170 3 44 5 93 14 108 20 16 7 66
12 111 12 52 0 97 6 119 15 23 9 68 15 120 15 53 0 98 6 120 15 20 8 54 15 76
15 29 0 75 17 162 60 67 33 128 60 136 60 7 0 48 18 91 39 79 40 118 77 210
203 l42 57 0 177 0 176 -18 26 c-10 15 -37 64 -60 110 -44 86 -86 151 -144
224 -20 24 -45 62 -57 86 -13 24 -36 51 -53 60 -17 9 -52 31 -77 48 -26 18
-70 43 -97 57 -27 14 -71 44 -98 66 -26 23 -56 41 -66 41 -11 0 -22 5 -25 10
-8 14 -342 13 -350 0z m265 -176 c91 -31 152 -65 174 -98 9 -14 38 -39 64 -57
26 -17 59 -47 72 -68 14 -20 46 -60 73 -90 50 -56 119 -187 157 -296 14 -41
20 -85 20 -141 l0 -82 -35 -44 c-19 -24 -40 -54 -46 -68 -6 -14 -14 -31 -18
-38 -3 -8 -24 -20 -45 -27 -21 -7 -61 -28 -89 -45 -73 -45 -161 -74 -186 -61
-10 6 -41 43 -67 83 -59 91 -80 114 -126 144 -21 13 -53 48 -72 78 -19 30 -50
72 -69 93 -19 21 -37 49 -40 63 -4 14 -22 50 -41 80 -19 30 -44 75 -56 99
l-22 44 -1 106 c-1 114 8 145 65 225 15 21 28 47 28 57 0 17 37 49 70 62 36
13 120 5 190 -19z"/>
</g>
</svg>
