<?xml version="1.0" standalone="no"?>
<!DOCTYPE svg PUBLIC "-//W3C//DTD SVG 20010904//EN"
 "http://www.w3.org/TR/2001/REC-SVG-20010904/DTD/svg10.dtd">
<svg version="1.0" xmlns="http://www.w3.org/2000/svg"
 width="207.000000pt" height="180.000000pt" viewBox="0 0 207.000000 180.000000"
 preserveAspectRatio="xMidYMid meet">
<metadata>
Created by potrace 1.16, written by Peter Selinger 2001-2019
</metadata>
<g transform="translate(0.000000,180.000000) scale(0.100000,-0.100000)"
fill="#000000" stroke="none">
<path d="M37 1762 l-37 -38 0 -76 c0 -42 5 -80 10 -83 6 -4 19 -24 30 -45 11
-21 37 -51 59 -67 21 -15 49 -43 62 -62 13 -19 44 -47 69 -62 25 -16 103 -89
173 -163 71 -74 148 -146 170 -161 23 -14 55 -44 70 -66 26 -36 90 -79 118
-79 6 0 24 -11 41 -25 16 -14 37 -25 45 -25 9 0 33 -17 53 -37 57 -59 228
-205 269 -230 20 -12 52 -45 71 -74 25 -38 44 -55 67 -61 18 -5 43 -22 55 -39
12 -16 47 -49 78 -71 30 -23 76 -64 101 -92 31 -34 73 -64 125 -91 44 -21 102
-56 131 -77 41 -30 61 -38 94 -38 l42 0 68 56 69 56 0 74 c0 40 -5 76 -10 79
-6 4 -20 25 -31 48 -32 64 -98 147 -116 147 -9 0 -39 25 -67 55 -39 42 -75 66
-153 105 -111 54 -159 62 -186 32 -40 -44 -19 -76 103 -157 106 -71 191 -155
216 -213 28 -68 -8 -63 -126 17 -70 47 -155 120 -253 217 -34 34 -81 71 -104
82 -44 23 -73 56 -73 83 0 23 -29 46 -69 54 -23 5 -51 26 -90 67 -31 33 -78
71 -106 85 -27 14 -70 42 -95 62 -25 20 -64 49 -88 65 -49 34 -102 90 -102
110 0 8 16 33 35 56 l35 42 0 94 0 95 -21 42 c-55 108 -117 180 -184 214 -27
14 -63 36 -80 48 -55 41 -113 65 -159 65 -25 0 -48 5 -51 10 -3 6 -53 10 -114
10 l-107 0 -37 -38z m340 -178 c71 -32 155 -115 188 -185 29 -62 31 -91 10
-113 -19 -18 -39 -12 -59 19 -9 13 -40 40 -70 60 -30 20 -67 52 -82 73 -15 20
-52 60 -83 88 l-56 51 14 17 c20 23 74 20 138 -10z"/>
</g>
</svg>
