<?xml version="1.0" standalone="no"?>
<!DOCTYPE svg PUBLIC "-//W3C//DTD SVG 20010904//EN"
 "http://www.w3.org/TR/2001/REC-SVG-20010904/DTD/svg10.dtd">
<svg version="1.0" xmlns="http://www.w3.org/2000/svg"
 width="528.000000pt" height="81.000000pt" viewBox="0 0 528.000000 81.000000"
 preserveAspectRatio="xMidYMid meet">
<metadata>
Created by potrace 1.16, written by Peter Selinger 2001-2019
</metadata>
<g transform="translate(0.000000,81.000000) scale(0.100000,-0.100000)"
fill="#000000" stroke="none">
<path d="M4305 779 c-14 -18 -25 -41 -23 -53 4 -28 67 -69 93 -61 51 16 107
17 152 2 79 -25 135 -38 198 -46 34 -5 70 -13 82 -19 12 -7 34 -12 50 -12 16
0 56 -18 93 -43 86 -56 87 -77 9 -129 -84 -55 -158 -78 -255 -78 -50 0 -95 -6
-117 -15 -23 -9 -68 -15 -120 -15 -53 0 -98 -6 -120 -15 -21 -8 -67 -15 -105
-15 -39 0 -85 -7 -105 -15 -20 -8 -61 -15 -90 -15 -30 0 -71 -7 -91 -15 l-37
-16 -382 5 c-210 3 -409 7 -442 11 -33 3 -118 8 -190 11 l-129 6 -54 -18 -53
-18 -48 17 c-30 10 -78 17 -126 17 -57 0 -99 7 -157 26 l-80 27 -54 -13 -53
-13 -43 16 c-24 10 -67 17 -96 17 -29 0 -69 7 -89 15 -23 10 -69 15 -135 15
-67 0 -110 5 -136 16 -27 11 -53 14 -94 9 -46 -5 -67 -2 -104 15 -28 12 -68
20 -101 20 -40 0 -73 8 -120 30 -45 21 -80 30 -116 30 -29 0 -72 6 -97 14 -58
18 -123 35 -180 46 -25 5 -63 18 -86 29 -23 11 -101 40 -175 65 -74 24 -154
53 -178 64 -24 11 -50 18 -58 15 -8 -3 -21 1 -31 10 -9 8 -36 24 -59 36 -53
26 -178 30 -223 6 l-30 -16 0 -54 0 -55 50 -25 c28 -14 67 -41 88 -59 47 -42
93 -66 129 -66 42 0 114 -41 140 -78 31 -47 50 -135 35 -167 -6 -13 -36 -39
-67 -56 -69 -39 -85 -61 -85 -121 l0 -48 74 0 c41 0 78 4 81 10 3 5 21 10 40
10 42 0 81 31 133 109 56 81 82 135 82 169 0 15 5 33 12 40 17 17 81 15 125
-3 19 -8 53 -15 75 -15 21 0 55 -7 75 -15 19 -8 52 -15 72 -15 20 0 56 -6 81
-14 56 -18 123 -35 175 -45 22 -5 71 -18 110 -31 l69 -23 43 12 44 11 35 -15
c20 -8 54 -15 76 -15 21 0 55 -7 75 -15 26 -11 76 -15 195 -15 118 0 168 -4
195 -15 23 -10 69 -15 135 -15 65 0 111 -5 135 -15 l35 -15 264 0 c153 0 274
-4 289 -10 19 -7 39 -7 67 2 l40 12 52 -18 52 -18 114 6 c159 8 158 8 222 0
43 -5 68 -2 98 10 l40 16 203 0 202 0 85 30 84 30 172 0 c130 0 180 4 207 15
20 8 54 15 75 15 22 0 56 7 75 15 20 8 55 15 78 15 29 0 57 9 88 29 25 15 79
38 119 51 l73 23 59 65 60 65 0 73 0 72 -42 31 c-23 17 -49 31 -57 31 -8 0
-29 13 -46 28 -39 36 -264 109 -370 119 -27 3 -54 9 -59 14 -6 5 -92 9 -192 9
l-182 0 -27 -31z"/>
</g>
</svg>
