<?xml version="1.0" standalone="no"?>
<!DOCTYPE svg PUBLIC "-//W3C//DTD SVG 20010904//EN"
 "http://www.w3.org/TR/2001/REC-SVG-20010904/DTD/svg10.dtd">
<svg version="1.0" xmlns="http://www.w3.org/2000/svg"
 width="390.000000pt" height="315.000000pt" viewBox="0 0 390.000000 315.000000"
 preserveAspectRatio="xMidYMid meet">
<metadata>
Created by potrace 1.16, written by Peter Selinger 2001-2019
</metadata>
<g transform="translate(0.000000,315.000000) scale(0.100000,-0.100000)"
fill="#000000" stroke="none">
<path d="M60 3125 c-7 -14 -24 -32 -37 -40 -35 -23 -33 -92 4 -127 44 -40 88
-58 145 -58 58 0 156 -30 199 -61 36 -25 218 -115 249 -122 14 -4 44 -22 67
-41 22 -20 76 -53 119 -75 44 -22 115 -70 158 -108 44 -37 93 -72 110 -78 16
-6 43 -29 60 -53 20 -28 52 -55 91 -76 39 -21 70 -46 88 -74 15 -22 41 -51 58
-64 17 -13 45 -38 62 -56 18 -18 60 -61 94 -97 34 -35 70 -79 79 -97 9 -18 39
-58 67 -88 56 -62 117 -179 117 -225 0 -17 11 -47 25 -67 50 -73 85 -201 100
-361 9 -97 10 -158 4 -174 -5 -13 -9 -42 -9 -65 0 -39 -23 -103 -42 -114 -12
-8 -65 14 -103 42 -36 26 -170 94 -186 94 -22 0 -85 34 -130 71 -43 36 -146
79 -187 79 -10 0 -56 13 -102 30 -47 16 -97 30 -113 30 -36 0 -175 -70 -209
-107 -35 -38 -68 -138 -68 -211 l0 -58 29 -28 c16 -15 31 -40 34 -55 3 -15 23
-42 44 -60 72 -60 151 -119 180 -134 51 -27 151 -57 187 -57 20 0 53 -7 75
-16 46 -18 228 -15 301 6 114 32 171 51 223 74 31 14 66 26 79 26 56 -1 215
-106 254 -168 16 -25 45 -55 66 -68 63 -40 77 -96 33 -139 l-24 -25 -79 0 -79
0 -16 -18 c-20 -22 -21 -35 -5 -79 l12 -33 152 0 152 0 28 33 c16 18 42 60 58
94 l29 62 -21 66 c-13 38 -40 88 -64 119 -24 30 -51 65 -60 79 -10 14 -36 31
-59 38 -31 10 -51 26 -73 57 -20 28 -52 55 -91 76 -33 18 -66 44 -74 58 l-15
25 32 50 c18 27 32 62 32 77 0 15 7 43 15 63 8 19 15 53 15 75 0 21 7 55 15
75 26 63 19 132 -30 276 -25 73 -45 142 -45 153 -1 32 -46 151 -77 200 -15 25
-41 69 -58 98 -16 28 -57 85 -90 125 -33 40 -74 95 -91 122 -37 58 -217 243
-257 265 -15 8 -58 43 -95 77 -37 34 -86 75 -109 91 -23 15 -73 59 -112 97
-39 38 -80 69 -90 69 -10 0 -37 15 -61 33 -23 17 -68 48 -100 67 -32 19 -90
54 -129 78 -75 46 -103 78 -80 93 20 12 602 11 634 -1 17 -7 39 -6 69 2 l44
12 44 -17 44 -17 310 0 c228 0 313 -3 322 -12 7 -7 12 -32 12 -55 0 -51 25
-103 86 -182 24 -31 53 -68 64 -83 32 -42 197 -148 230 -148 18 0 174 -97 200
-125 18 -19 33 -25 68 -25 33 0 58 -9 101 -35 71 -44 183 -85 234 -85 21 0 54
-7 74 -15 19 -8 55 -15 78 -15 23 0 59 7 78 15 20 8 54 15 75 15 22 0 56 7 75
15 20 8 55 15 79 15 33 0 49 6 73 29 16 16 53 42 80 58 28 17 56 42 64 59 8
16 18 37 23 46 4 10 8 64 8 121 l0 103 -50 56 c-83 93 -231 178 -311 178 -11
0 -50 14 -86 30 -37 17 -81 30 -104 30 -22 0 -56 7 -76 15 -19 8 -60 15 -90
15 -29 0 -70 7 -90 15 -25 10 -71 15 -152 15 l-117 0 -29 30 -29 30 -73 0
c-43 0 -89 6 -110 15 -28 12 -82 15 -255 15 -172 0 -226 3 -255 15 l-35 15
-340 0 -339 0 -36 15 -35 15 -415 0 -414 0 -36 15 c-19 8 -59 15 -87 15 -47 0
-146 26 -163 43 -3 4 -27 7 -53 7 l-47 0 -13 -25z m2680 -315 c47 -16 102 -30
123 -30 21 0 54 -7 74 -15 19 -8 60 -15 90 -15 29 0 70 -7 90 -15 19 -8 65
-15 102 -15 49 0 90 -8 151 -30 47 -16 96 -30 110 -30 14 0 45 -14 70 -30 25
-16 51 -30 58 -30 27 0 101 -41 121 -65 30 -40 43 -87 32 -118 -18 -46 -102
-127 -132 -127 -15 0 -43 -7 -62 -15 -26 -11 -73 -15 -162 -15 -89 0 -136 4
-162 15 -19 8 -52 15 -72 15 -46 0 -142 33 -190 66 -19 13 -42 24 -51 24 -25
1 -86 33 -140 75 -28 22 -75 58 -103 80 -29 22 -73 53 -99 68 -30 17 -57 44
-73 70 -13 24 -36 54 -50 67 -27 25 -31 50 -15 81 l11 19 97 0 98 0 84 -30z
m-1512 -1875 c52 -25 107 -45 122 -45 17 0 45 -13 72 -35 48 -38 189 -115 212
-115 20 0 86 -58 86 -75 0 -18 -35 -38 -111 -63 -80 -27 -229 -31 -286 -7 -19
8 -45 15 -57 15 -12 0 -48 9 -81 21 -157 55 -254 195 -199 288 44 74 112 79
242 16z"/>
</g>
</svg>
