<?xml version="1.0" standalone="no"?>
<!DOCTYPE svg PUBLIC "-//W3C//DTD SVG 20010904//EN"
 "http://www.w3.org/TR/2001/REC-SVG-20010904/DTD/svg10.dtd">
<svg version="1.0" xmlns="http://www.w3.org/2000/svg"
 width="813.000000pt" height="240.000000pt" viewBox="0 0 813.000000 240.000000"
 preserveAspectRatio="xMidYMid meet">
<metadata>
Created by potrace 1.16, written by Peter Selinger 2001-2019
</metadata>
<g transform="translate(0.000000,240.000000) scale(0.100000,-0.100000)"
fill="#000000" stroke="none">
<path d="M3168 2373 c-53 -57 -59 -92 -29 -151 20 -39 176 -197 223 -225 14
-9 39 -35 55 -59 21 -31 40 -47 72 -58 32 -11 53 -27 75 -59 19 -26 51 -54 83
-71 29 -15 60 -33 69 -41 69 -57 72 -249 7 -322 -20 -21 -54 -38 -138 -66
l-59 -21 -142 0 -141 0 -39 29 c-21 15 -48 38 -59 51 -11 12 -36 31 -57 41
-20 10 -58 37 -85 59 -204 172 -324 265 -391 302 -17 9 -42 34 -56 56 -15 24
-46 51 -78 70 -29 16 -64 42 -77 56 l-24 26 -67 0 c-92 0 -100 -10 -100 -124
0 -97 -13 -132 -60 -160 -38 -22 -205 -22 -257 -1 -19 8 -53 15 -75 15 -21 0
-55 7 -75 15 -19 8 -52 15 -72 15 -20 0 -56 6 -81 14 -59 19 -125 35 -175 45
-22 4 -58 19 -80 34 -22 15 -52 27 -68 27 -16 0 -58 14 -94 30 -35 16 -74 30
-87 30 -35 0 -126 35 -191 75 -33 20 -71 38 -85 41 -14 2 -43 9 -65 15 -22 6
-60 14 -85 19 -25 5 -69 20 -97 34 -29 14 -58 26 -64 26 -5 0 -36 12 -67 27
-50 23 -144 44 -207 45 -65 1 -124 -20 -174 -63 l-51 -44 0 -41 c0 -23 6 -47
13 -53 8 -6 22 -28 31 -48 10 -21 44 -60 76 -88 60 -51 222 -144 251 -145 9 0
41 -18 72 -41 l57 -40 0 -60 0 -59 46 -93 c52 -105 69 -127 96 -127 11 0 29
-18 47 -47 45 -74 80 -112 123 -134 21 -11 56 -35 76 -54 64 -57 398 -215 455
-215 28 0 67 41 67 70 0 33 -26 57 -91 84 -24 10 -57 25 -74 33 -174 93 -281
167 -330 233 -22 29 -68 81 -103 117 -34 35 -67 75 -72 89 -14 37 -12 89 5
131 8 19 15 57 15 83 0 59 -20 80 -79 80 -26 0 -68 12 -108 30 -35 17 -69 30
-74 30 -6 0 -48 23 -95 51 -55 33 -90 62 -100 81 l-16 30 14 14 13 14 104 -35
c56 -20 119 -47 139 -60 20 -14 49 -25 65 -25 15 0 44 -7 64 -15 19 -8 54 -15
77 -15 29 0 54 -9 86 -30 25 -16 59 -30 75 -30 17 0 50 -14 75 -30 25 -16 56
-30 69 -30 30 0 307 -92 379 -125 35 -17 70 -25 105 -25 28 0 72 -6 97 -14
115 -36 142 -40 337 -43 l202 -4 102 52 c56 28 110 60 119 72 l17 21 31 -13
c17 -7 39 -22 49 -33 10 -11 36 -32 58 -46 22 -13 60 -47 84 -74 24 -27 62
-58 85 -70 90 -45 282 -182 310 -219 31 -44 54 -58 145 -89 l64 -21 106 4
c149 6 241 33 441 130 l85 42 22 40 c13 22 23 51 23 64 0 27 46 101 62 101 6
0 33 -18 60 -40 35 -28 60 -40 83 -40 21 0 39 -8 56 -26 13 -14 74 -59 135
-100 62 -41 124 -90 138 -109 15 -19 34 -35 43 -35 36 0 163 -71 189 -106 15
-19 46 -45 68 -56 23 -11 61 -37 86 -57 24 -20 81 -60 125 -89 44 -30 91 -64
105 -77 14 -13 48 -34 75 -48 28 -14 72 -44 99 -66 26 -23 56 -41 65 -41 10 0
29 -13 44 -28 15 -16 48 -39 72 -51 25 -12 57 -38 72 -57 14 -20 52 -48 83
-64 34 -17 93 -64 151 -120 52 -51 114 -108 139 -128 25 -20 79 -67 122 -104
l76 -68 87 0 86 0 52 38 c29 21 64 45 79 55 42 26 72 95 118 267 21 82 23 109
6 150 -9 22 -16 56 -16 75 0 51 -66 239 -103 295 -18 26 -45 71 -62 100 -66
114 -81 138 -112 174 -18 20 -42 54 -52 75 -19 36 -56 73 -115 114 -14 10 -29
30 -32 45 -8 34 -32 62 -53 62 -23 0 -113 65 -139 100 -12 16 -41 39 -63 50
-22 12 -68 49 -102 83 -35 34 -75 70 -90 80 -15 10 -30 30 -33 45 -10 40 -33
62 -66 62 -34 0 -166 79 -253 151 -33 28 -71 53 -85 55 -14 3 -52 30 -85 60
l-60 54 15 10 c20 13 321 13 355 0 17 -7 39 -6 69 2 l44 12 44 -17 44 -17 321
0 c228 0 330 -4 350 -12 15 -7 82 -14 148 -17 l120 -6 33 -23 32 -23 0 -60 c0
-43 7 -72 24 -107 26 -51 144 -171 214 -217 24 -16 63 -46 87 -67 24 -21 49
-38 56 -38 7 0 82 -34 166 -75 85 -41 165 -75 179 -75 13 0 41 -7 61 -15 19
-8 53 -15 75 -15 21 0 55 -7 75 -15 50 -21 286 -21 336 0 20 8 48 15 62 15 32
0 101 34 138 69 16 14 40 47 53 73 13 26 28 49 34 53 6 4 10 52 10 115 l0 109
-91 96 c-53 55 -103 98 -118 101 -14 4 -50 17 -79 30 -103 46 -323 111 -417
123 -34 5 -70 13 -82 19 -14 8 -77 12 -168 12 -107 0 -155 4 -182 15 -22 9
-67 15 -120 15 -52 0 -97 6 -120 15 -26 11 -74 15 -179 15 -90 0 -153 4 -171
12 -15 7 -95 15 -178 19 -82 4 -175 12 -205 17 -30 6 -140 11 -243 11 -143 1
-196 5 -224 16 l-35 15 -344 0 c-218 0 -345 4 -349 10 -4 6 -63 10 -145 10
l-138 0 -26 -31 c-31 -36 -35 -88 -8 -111 9 -9 69 -42 132 -74 62 -32 130 -72
150 -89 38 -35 91 -65 113 -65 7 0 24 -12 38 -26 13 -14 38 -33 54 -41 51 -26
188 -120 244 -168 29 -25 56 -45 60 -45 4 0 32 -21 62 -47 30 -25 79 -62 109
-81 30 -20 87 -66 125 -103 39 -37 89 -81 111 -96 112 -77 207 -170 268 -263
35 -52 84 -119 109 -149 26 -31 50 -69 53 -88 4 -19 24 -55 46 -81 46 -55 77
-116 78 -153 0 -15 7 -44 17 -65 13 -31 16 -70 15 -192 l-1 -152 -47 -55 c-26
-30 -52 -55 -56 -55 -5 0 -26 17 -46 37 -21 21 -58 50 -82 65 -43 27 -89 63
-263 205 -41 34 -97 73 -124 87 -26 13 -75 47 -108 75 -33 28 -78 60 -100 72
-22 12 -61 39 -87 60 -25 21 -82 57 -125 78 -43 22 -105 62 -138 90 -33 28
-78 60 -100 72 -22 12 -62 39 -90 60 -27 22 -75 58 -105 82 -65 50 -216 152
-281 189 -25 15 -58 43 -73 62 -15 20 -40 39 -60 44 -58 16 -324 200 -351 242
-13 21 -38 48 -54 60 -17 12 -31 29 -31 38 0 9 -14 37 -30 62 -18 27 -30 58
-30 78 l0 33 -63 67 c-35 37 -72 81 -82 97 -29 47 -57 75 -99 102 -21 14 -58
43 -82 65 -24 22 -69 55 -100 74 l-56 34 -117 0 -117 0 -26 -27z m4001 -299
c18 -8 58 -14 88 -14 29 0 70 -7 90 -15 19 -8 59 -15 87 -15 53 0 132 -23 224
-66 29 -13 58 -24 65 -24 6 0 32 -14 57 -30 25 -16 52 -30 60 -30 31 0 63 -35
92 -98 l30 -66 -13 -38 c-14 -42 -32 -61 -105 -106 l-51 -32 -129 0 -129 0
-63 30 c-35 17 -75 30 -88 30 -14 0 -41 7 -61 15 -19 8 -46 15 -60 15 -53 0
-383 215 -383 249 0 10 -12 28 -26 42 -25 24 -54 70 -54 87 0 9 83 72 110 83
25 11 222 -3 259 -17z"/>
</g>
</svg>
