<?xml version="1.0" standalone="no"?>
<!DOCTYPE svg PUBLIC "-//W3C//DTD SVG 20010904//EN"
 "http://www.w3.org/TR/2001/REC-SVG-20010904/DTD/svg10.dtd">
<svg version="1.0" xmlns="http://www.w3.org/2000/svg"
 width="723.000000pt" height="297.000000pt" viewBox="0 0 723.000000 297.000000"
 preserveAspectRatio="xMidYMid meet">
<metadata>
Created by potrace 1.16, written by Peter Selinger 2001-2019
</metadata>
<g transform="translate(0.000000,297.000000) scale(0.100000,-0.100000)"
fill="#000000" stroke="none">
<path d="M2390 2906 c0 -76 21 -110 79 -126 20 -5 69 -25 109 -44 81 -40 361
-136 395 -136 13 0 36 -13 52 -30 19 -20 39 -30 58 -30 16 0 58 -13 94 -30 35
-16 69 -30 75 -30 19 0 136 -58 179 -89 23 -17 48 -31 56 -31 22 0 139 -56
176 -84 18 -13 55 -36 82 -50 103 -55 185 -113 221 -154 20 -24 54 -55 76 -68
21 -13 64 -47 96 -74 56 -48 71 -62 156 -151 24 -24 54 -52 69 -62 15 -10 31
-33 36 -54 6 -23 29 -55 60 -84 31 -30 51 -59 56 -80 4 -19 16 -51 27 -72 46
-92 68 -179 68 -276 l0 -94 -29 -66 c-16 -36 -37 -88 -46 -114 -26 -73 -111
-154 -214 -206 -46 -23 -96 -50 -110 -61 -32 -22 -137 -60 -167 -60 -12 0 -38
-7 -57 -15 -20 -8 -54 -15 -75 -15 -22 0 -56 -7 -75 -15 -21 -8 -67 -15 -105
-15 -39 0 -85 -7 -105 -15 l-36 -15 -276 0 -276 0 -36 15 c-22 9 -67 15 -120
15 -52 0 -97 6 -120 15 -19 8 -53 15 -75 15 -21 0 -55 7 -75 15 -19 8 -55 15
-79 15 -33 0 -46 5 -54 20 -13 24 9 49 68 79 21 11 43 25 49 33 16 18 53 133
53 160 -1 42 -37 129 -66 160 -40 42 -143 118 -161 118 -8 0 -44 14 -80 30
-35 17 -69 30 -74 30 -6 0 -35 12 -66 26 -53 24 -122 47 -223 74 -25 6 -79 15
-120 20 -48 5 -94 17 -127 34 -31 15 -70 26 -93 26 -22 0 -57 7 -77 15 -25 10
-71 15 -154 15 l-119 0 -79 -39 c-84 -43 -125 -82 -155 -148 l-19 -42 23 -71
c26 -81 58 -133 83 -138 10 -2 51 -37 91 -77 53 -53 70 -75 59 -79 -31 -12
-174 -6 -210 9 -22 9 -67 15 -120 15 -52 0 -97 6 -120 15 -26 11 -74 15 -180
15 -105 0 -153 4 -180 15 -23 10 -69 15 -135 15 -65 0 -111 5 -135 15 -19 8
-57 15 -82 15 l-47 0 -29 -30 c-16 -17 -35 -30 -42 -30 -9 0 -13 -14 -13 -44
l0 -44 53 -56 53 -56 33 0 c18 0 62 -14 98 -30 35 -17 70 -30 77 -30 7 0 23
-12 37 -26 25 -27 89 -64 111 -64 8 0 50 -38 95 -85 104 -107 115 -150 61
-227 -15 -22 -28 -28 -54 -28 -26 0 -44 -8 -65 -29 -36 -36 -37 -60 -3 -100
l26 -31 73 0 73 0 58 35 c93 56 139 107 163 181 28 86 27 113 -8 161 -16 22
-39 60 -51 84 -12 24 -49 72 -82 105 -34 35 -57 67 -54 73 11 17 189 14 233
-4 19 -8 53 -15 75 -15 21 0 55 -7 75 -15 24 -10 71 -15 150 -15 78 0 125 -5
150 -15 22 -9 67 -15 120 -15 52 0 97 -6 120 -15 20 -8 66 -15 105 -15 38 0
84 -7 105 -15 19 -8 65 -15 101 -15 l65 0 179 -60 c98 -33 194 -60 213 -60 20
0 52 -7 72 -15 22 -9 67 -15 120 -15 52 0 97 -6 120 -15 19 -8 60 -15 90 -15
29 0 70 -7 90 -15 25 -11 72 -15 165 -15 92 0 139 -4 165 -15 45 -19 81 -19
126 0 27 11 75 15 182 15 97 0 154 4 168 12 12 7 76 15 142 19 66 4 140 12
165 19 131 36 267 84 299 105 19 14 41 25 49 25 29 0 161 76 210 121 30 27 66
52 80 55 37 9 50 21 74 68 11 23 37 61 58 86 46 56 80 121 80 155 0 14 7 42
15 62 11 26 15 74 15 180 l0 144 -19 57 c-11 31 -31 82 -45 112 -14 30 -26 62
-26 71 0 8 -13 28 -30 44 -16 16 -30 36 -30 46 0 9 -35 50 -77 92 -43 41 -94
94 -113 118 -19 23 -69 72 -111 108 -99 87 -110 97 -167 156 -27 28 -73 63
-103 79 -30 16 -97 57 -149 92 -52 34 -109 65 -127 69 -17 3 -51 23 -75 44
-41 37 -155 101 -179 101 -17 0 -80 31 -114 56 -16 12 -86 41 -155 63 -131 43
-221 84 -247 113 l-16 18 976 0 976 0 11 -19 c5 -11 10 -63 10 -117 l0 -97 29
-46 c16 -25 31 -58 35 -72 7 -32 79 -99 105 -99 10 0 31 -16 45 -35 15 -19 51
-47 79 -62 29 -14 66 -36 82 -49 95 -71 385 -184 476 -184 35 0 70 -9 116 -30
l64 -30 70 0 c39 0 85 -7 106 -15 43 -18 204 -20 236 -3 12 6 48 14 82 19 62
8 117 20 195 45 25 8 55 14 68 14 28 0 145 58 223 112 32 22 81 65 109 96 l50
56 0 46 c0 25 -5 51 -11 57 -7 7 -12 52 -13 105 -3 125 -17 150 -117 203 -41
22 -89 50 -106 62 -27 20 -84 41 -203 73 -25 7 -92 15 -150 19 -58 4 -115 12
-127 19 -12 7 -47 12 -78 12 -30 0 -72 7 -92 15 -22 9 -67 15 -120 15 -52 0
-97 6 -120 15 -27 12 -79 15 -225 15 -145 0 -197 3 -225 15 -28 12 -81 15
-244 15 -128 0 -210 4 -214 10 -3 6 -35 10 -70 10 -35 0 -67 -4 -70 -10 -3 -5
-19 -10 -35 -10 -16 0 -32 5 -35 10 -4 7 -447 10 -1296 10 l-1289 0 0 -64z
m3217 -141 c23 -10 69 -15 134 -15 54 0 109 -4 124 -10 14 -5 90 -13 168 -16
82 -4 156 -12 176 -20 18 -8 58 -14 88 -14 29 0 70 -7 90 -15 22 -9 67 -15
120 -15 52 0 97 -6 120 -15 19 -8 53 -15 75 -15 43 0 148 -44 201 -84 18 -13
56 -36 85 -51 88 -46 104 -92 53 -162 -45 -62 -148 -133 -194 -133 -7 0 -32
-13 -53 -28 -74 -53 -105 -62 -212 -62 -66 0 -112 -5 -135 -15 -46 -19 -128
-19 -174 0 -19 8 -58 15 -86 15 -35 0 -109 20 -246 65 -288 96 -389 152 -528
293 -61 62 -84 92 -89 118 -14 77 17 147 78 177 42 21 156 22 205 2z m-3987
-1589 c77 -24 133 -37 190 -45 30 -4 71 -12 90 -18 49 -16 117 -33 170 -43 26
-4 62 -18 80 -29 19 -11 57 -33 83 -48 101 -58 140 -87 165 -126 l26 -39 -15
-26 c-8 -15 -35 -37 -59 -49 l-45 -23 -115 0 c-80 0 -127 -5 -156 -16 l-41
-16 -38 16 c-20 9 -50 16 -64 16 -17 0 -38 11 -56 30 -16 17 -35 30 -43 30 -7
0 -39 12 -70 26 -31 15 -69 30 -83 34 -30 9 -309 191 -329 215 -6 8 -13 29
-13 47 l-2 32 60 22 c72 27 197 31 265 10z"/>
</g>
</svg>
