<?xml version="1.0" standalone="no"?>
<!DOCTYPE svg PUBLIC "-//W3C//DTD SVG 20010904//EN"
 "http://www.w3.org/TR/2001/REC-SVG-20010904/DTD/svg10.dtd">
<svg version="1.0" xmlns="http://www.w3.org/2000/svg"
 width="615.000000pt" height="183.000000pt" viewBox="0 0 615.000000 183.000000"
 preserveAspectRatio="xMidYMid meet">
<metadata>
Created by potrace 1.16, written by Peter Selinger 2001-2019
</metadata>
<g transform="translate(0.000000,183.000000) scale(0.100000,-0.100000)"
fill="#000000" stroke="none">
<path d="M37 1792 l-37 -38 0 -61 c0 -34 4 -64 9 -67 4 -3 11 -19 14 -35 7
-35 122 -140 240 -219 73 -49 256 -122 307 -122 11 0 49 10 86 22 51 16 73 30
97 60 37 47 57 48 144 8 35 -16 77 -30 92 -30 17 0 38 -11 56 -30 16 -16 36
-30 44 -30 9 0 57 -20 106 -43 50 -24 101 -46 115 -50 14 -3 43 -21 65 -40 22
-18 62 -46 88 -61 l49 -28 -7 -21 c-4 -12 -9 -47 -12 -78 l-5 -55 36 -72 36
-71 52 -34 c29 -19 60 -42 67 -51 21 -25 178 -102 253 -125 114 -34 151 -40
173 -29 46 25 87 64 106 99 28 55 24 98 -12 148 -17 24 -29 52 -27 64 l3 22
270 -2 c149 0 299 -4 335 -8 36 -3 191 -9 345 -13 194 -5 287 -11 302 -19 16
-10 115 -13 395 -13 278 0 377 -3 386 -12 7 -7 12 -31 12 -55 0 -73 63 -183
162 -280 85 -83 191 -163 218 -163 8 0 29 -9 45 -21 79 -53 256 -129 303 -129
23 0 122 -34 190 -66 31 -14 71 -24 97 -24 24 0 47 -4 50 -10 8 -14 462 -14
470 0 3 6 12 10 20 10 7 0 43 13 78 30 36 16 70 30 76 30 32 0 115 56 165 111
l56 62 0 100 0 99 -27 34 c-16 19 -41 50 -57 70 -16 19 -54 49 -85 65 -31 17
-79 45 -108 63 -59 37 -168 76 -215 76 -18 0 -73 13 -123 29 -140 45 -173 53
-270 61 -49 4 -103 12 -120 18 -90 31 -134 36 -420 43 -165 3 -325 11 -355 17
-33 6 -238 11 -513 11 l-458 1 -36 15 -35 15 -280 0 -279 0 -36 15 c-27 12
-81 15 -239 15 -122 0 -214 4 -231 11 -15 6 -91 13 -168 16 -83 3 -154 11
-174 19 -18 8 -45 14 -58 14 -15 0 -45 18 -76 45 -52 45 -153 105 -179 105 -7
0 -30 11 -51 25 -47 33 -232 125 -249 125 -8 0 -30 11 -51 25 -45 31 -232 125
-248 125 -19 0 -199 89 -233 115 -17 13 -85 41 -151 63 -66 22 -147 56 -180
77 -33 20 -72 39 -88 42 -15 3 -30 10 -33 14 -3 5 -60 9 -128 9 l-122 0 -37
-38z m381 -234 c17 -17 15 -28 -6 -28 -19 0 -42 18 -42 32 0 12 35 9 48 -4z
m116 -58 l19 -19 -13 -15 c-7 -9 -17 -16 -22 -16 -15 0 -58 48 -58 66 0 21 46
11 74 -16z m1358 -697 c36 -33 13 -57 -33 -33 -24 13 -26 50 -2 50 9 0 25 -7
35 -17z m2905 -78 c26 -11 74 -15 177 -15 94 0 156 -5 186 -14 57 -18 124 -35
175 -45 22 -4 76 -19 120 -33 81 -26 149 -45 195 -54 14 -3 58 -15 99 -27 l74
-22 69 -69 69 -68 -7 -22 c-11 -34 -44 -76 -61 -76 -8 0 -34 -17 -58 -37 -61
-54 -157 -83 -273 -83 -50 0 -102 4 -117 10 -17 7 -39 6 -69 -2 l-44 -12 -44
17 c-24 9 -54 17 -67 17 -12 0 -52 13 -88 30 -35 16 -69 30 -75 30 -5 0 -39
14 -75 30 -35 17 -77 30 -93 30 -18 0 -45 13 -72 35 -24 19 -70 49 -102 66
-72 38 -160 123 -186 181 -22 48 -25 99 -10 129 l11 19 115 0 c79 0 126 -5
151 -15z"/>
</g>
</svg>
