<?xml version="1.0" standalone="no"?>
<!DOCTYPE svg PUBLIC "-//W3C//DTD SVG 20010904//EN"
 "http://www.w3.org/TR/2001/REC-SVG-20010904/DTD/svg10.dtd">
<svg version="1.0" xmlns="http://www.w3.org/2000/svg"
 width="522.000000pt" height="222.000000pt" viewBox="0 0 522.000000 222.000000"
 preserveAspectRatio="xMidYMid meet">
<metadata>
Created by potrace 1.16, written by Peter Selinger 2001-2019
</metadata>
<g transform="translate(0.000000,222.000000) scale(0.100000,-0.100000)"
fill="#000000" stroke="none">
<path d="M466 2189 c-37 -43 -35 -88 6 -134 36 -42 115 -85 154 -85 30 0 201
-79 248 -115 17 -13 78 -47 136 -75 58 -29 125 -69 150 -89 25 -20 61 -47 80
-60 19 -13 50 -43 68 -67 18 -24 41 -44 50 -44 21 0 103 -84 126 -127 8 -17
32 -43 53 -58 47 -36 57 -48 88 -107 14 -26 49 -84 80 -129 36 -55 55 -94 55
-114 0 -17 13 -50 30 -75 16 -25 30 -51 30 -58 0 -7 9 -31 21 -53 11 -22 31
-73 44 -112 l25 -72 0 -148 c0 -83 -5 -157 -10 -168 -15 -27 -51 -24 -127 11
-35 16 -70 30 -77 30 -7 0 -23 12 -37 26 -24 26 -207 124 -231 124 -8 0 -30
11 -51 25 -44 31 -232 125 -248 125 -5 0 -43 19 -82 43 -40 23 -106 57 -147
76 -77 34 -84 38 -205 102 -38 20 -159 67 -268 103 l-198 66 -72 0 -73 0 -42
-31 -42 -31 0 -67 0 -68 42 -33 c24 -19 67 -60 96 -91 53 -58 130 -116 218
-164 27 -14 73 -41 101 -59 105 -66 260 -96 286 -55 13 20 4 56 -25 99 -24 34
-122 91 -189 110 -22 6 -56 30 -83 57 -50 52 -48 73 5 54 17 -6 44 -11 58 -11
14 0 46 -14 71 -30 25 -16 52 -30 60 -30 8 0 35 -14 60 -30 25 -16 51 -30 59
-30 22 0 196 -86 242 -120 23 -16 48 -30 56 -30 23 0 137 -55 184 -89 23 -17
49 -31 58 -31 9 0 36 -14 61 -30 25 -16 52 -30 61 -30 8 0 26 -12 40 -26 13
-14 58 -43 101 -65 78 -39 183 -127 207 -173 l14 -26 106 1 106 0 58 88 c34
52 57 98 57 114 0 15 7 44 15 64 11 25 15 73 15 168 0 95 -4 143 -15 168 -8
20 -15 59 -15 87 0 64 -25 138 -95 280 -30 62 -55 119 -55 127 0 23 -40 95
-80 143 -21 25 -48 65 -60 90 -12 25 -55 79 -95 120 -39 41 -83 93 -97 115
-28 43 -56 71 -103 100 -16 10 -50 37 -75 60 -25 23 -74 60 -110 83 -60 38
-92 60 -173 120 -17 12 -42 25 -56 28 -36 9 -53 32 -40 55 l10 19 96 0 c52 0
113 -5 134 -12 30 -8 48 -8 79 1 l39 12 37 -16 36 -15 265 0 264 0 36 -15 c26
-11 74 -15 180 -15 105 0 153 -4 180 -15 l35 -15 300 0 299 0 24 -25 25 -24 0
-92 0 -92 43 -65 c33 -51 59 -76 127 -120 46 -31 108 -78 137 -104 29 -26 60
-48 69 -48 8 0 39 -11 69 -25 108 -49 444 -155 493 -155 26 0 67 -6 92 -14
100 -32 140 -39 260 -47 154 -11 142 -11 275 -1 61 5 123 14 138 20 16 7 44
12 63 12 35 0 138 31 184 55 14 8 44 36 68 64 24 28 54 54 67 57 l25 6 0 99
c0 55 -4 107 -9 117 -5 9 -17 37 -27 61 -19 46 -99 131 -124 131 -9 0 -32 11
-51 24 -45 31 -148 66 -192 66 -18 0 -71 13 -117 30 -47 16 -102 30 -123 30
-21 0 -54 7 -74 15 -19 8 -53 15 -75 15 -21 0 -55 7 -75 15 -20 8 -66 15 -105
15 -38 0 -84 7 -105 15 -26 11 -74 15 -180 15 -105 0 -153 4 -180 15 -20 8
-66 15 -105 15 -38 0 -84 7 -105 15 -19 8 -60 15 -90 15 -29 0 -70 7 -90 15
-25 11 -72 15 -165 15 -92 0 -139 4 -165 15 -24 10 -71 15 -149 15 -68 0 -124
5 -141 13 -20 8 -136 14 -393 19 -201 3 -385 9 -410 12 -25 4 -164 10 -310 14
-182 5 -272 11 -287 20 -16 9 -103 12 -337 12 -199 0 -317 4 -321 10 -4 6 -53
10 -115 10 l-108 0 -26 -31z m3101 -324 c23 -10 69 -15 135 -15 65 0 111 -5
135 -15 19 -8 60 -15 90 -15 29 0 70 -7 90 -15 23 -10 69 -15 135 -15 65 0
111 -5 135 -15 19 -8 52 -15 71 -15 20 0 77 -13 127 -29 120 -39 168 -51 240
-61 81 -12 133 -32 209 -82 87 -56 114 -106 86 -159 -15 -27 -110 -85 -177
-109 -32 -11 -81 -20 -109 -20 -28 0 -68 -7 -87 -15 -47 -19 -157 -19 -204 0
-19 8 -52 15 -72 15 -20 0 -56 6 -81 14 -78 25 -133 37 -195 45 -34 5 -70 13
-82 19 -12 7 -32 12 -45 12 -24 0 -123 31 -168 53 -14 6 -43 24 -64 39 -22 16
-52 28 -70 28 -35 0 -142 66 -217 134 -26 22 -58 49 -73 59 -31 21 -43 60 -27
93 8 18 18 24 44 24 24 0 41 8 62 30 32 34 59 37 112 15z"/>
</g>
</svg>
