<?xml version="1.0" standalone="no"?>
<!DOCTYPE svg PUBLIC "-//W3C//DTD SVG 20010904//EN"
 "http://www.w3.org/TR/2001/REC-SVG-20010904/DTD/svg10.dtd">
<svg version="1.0" xmlns="http://www.w3.org/2000/svg"
 width="717.000000pt" height="282.000000pt" viewBox="0 0 717.000000 282.000000"
 preserveAspectRatio="xMidYMid meet">
<metadata>
Created by potrace 1.16, written by Peter Selinger 2001-2019
</metadata>
<g transform="translate(0.000000,282.000000) scale(0.100000,-0.100000)"
fill="#000000" stroke="none">
<path d="M3605 2810 c-3 -5 -34 -10 -69 -10 l-63 0 -39 -28 c-21 -15 -73 -45
-114 -66 -96 -49 -99 -52 -140 -135 l-33 -70 13 -57 c8 -31 26 -73 41 -94 15
-21 37 -56 49 -80 12 -23 35 -49 52 -58 17 -9 53 -32 80 -50 71 -48 243 -132
270 -132 12 0 83 -20 157 -44 182 -59 213 -67 301 -75 41 -4 85 -13 97 -19 12
-7 53 -12 91 -12 50 0 73 -4 82 -15 l13 -16 -29 -30 c-29 -30 -100 -69 -127
-69 -8 0 -32 -12 -53 -28 -21 -15 -50 -33 -64 -39 -52 -26 -217 -77 -270 -84
-57 -8 -114 -21 -190 -45 -25 -8 -75 -14 -111 -14 -37 0 -83 -7 -102 -15 -20
-8 -54 -15 -75 -15 -22 0 -56 -7 -75 -15 l-36 -15 -561 0 -561 0 -36 15 c-19
8 -53 15 -75 15 -21 0 -55 7 -75 15 -19 8 -59 15 -87 15 -28 0 -71 6 -96 14
-78 25 -133 37 -195 45 -34 5 -70 13 -82 19 -12 7 -46 12 -75 12 -55 0 -215
48 -316 95 -29 14 -63 25 -75 25 -52 0 -219 70 -288 120 -23 16 -48 30 -56 30
-30 0 -142 61 -266 144 -71 47 -139 86 -150 86 -33 0 -87 -37 -87 -59 0 -10 7
-25 17 -32 9 -8 31 -38 50 -66 31 -49 90 -93 124 -93 6 0 32 -19 57 -41 57
-50 134 -95 185 -110 21 -5 51 -18 66 -27 15 -9 51 -31 79 -48 28 -16 163 -67
299 -111 302 -98 320 -103 408 -112 39 -4 106 -19 150 -33 129 -42 165 -50
260 -57 50 -4 100 -12 112 -19 12 -7 54 -12 93 -12 40 0 86 -6 107 -15 l35
-15 538 0 538 0 35 15 c22 9 68 15 117 15 l80 0 123 42 c69 24 152 45 192 49
69 7 118 18 205 45 25 8 55 14 67 14 12 0 77 27 146 60 68 33 129 60 136 60
21 0 92 40 150 86 31 24 79 62 106 83 28 22 80 53 117 70 l66 31 219 0 218 0
35 -18 c19 -11 37 -25 41 -33 3 -8 24 -51 45 -97 30 -65 50 -93 94 -131 30
-26 70 -56 89 -66 19 -9 52 -30 74 -46 22 -16 47 -29 55 -29 9 0 81 -32 161
-71 184 -90 208 -97 361 -105 69 -4 140 -13 159 -20 45 -19 169 -18 214 1 20
8 52 15 72 15 64 0 245 68 303 113 29 23 74 57 100 75 26 19 57 43 70 55 l22
20 0 133 0 132 -24 6 c-13 3 -48 28 -78 55 -59 53 -125 91 -161 91 -12 0 -61
13 -107 30 -47 16 -102 30 -123 30 -21 0 -54 7 -74 15 -22 9 -67 15 -119 15
-45 0 -95 5 -110 10 -19 7 -37 7 -59 0 -26 -8 -41 -7 -73 5 l-40 16 -99 -12
c-54 -7 -178 -14 -275 -16 l-177 -4 -37 16 c-48 20 -170 20 -219 -1 l-38 -15
-141 5 c-78 3 -168 7 -201 9 -33 1 -77 8 -98 16 l-39 13 8 22 c4 11 9 74 11
139 l5 118 -77 115 -77 114 -50 26 c-28 14 -68 39 -91 55 -22 16 -46 29 -54
29 -8 0 -39 12 -70 26 -77 35 -231 81 -306 91 -20 3 -40 9 -43 14 -7 13 -521
12 -529 -1z m592 -210 c35 -16 69 -30 75 -30 21 0 204 -93 242 -123 52 -41 96
-104 96 -137 0 -15 7 -44 16 -65 l15 -37 -17 -52 c-10 -28 -22 -57 -27 -63 -7
-10 -67 -13 -240 -13 l-231 0 -133 45 c-73 25 -142 45 -154 45 -11 0 -50 14
-86 30 -35 17 -76 30 -90 30 -27 0 -96 39 -167 94 -53 41 -96 103 -96 138 0
31 39 78 64 78 9 0 39 11 68 25 29 13 78 33 108 44 l55 19 218 1 219 1 65 -30z
m2310 -765 c19 -8 60 -15 90 -15 40 0 73 -8 120 -30 35 -16 76 -30 89 -30 56
0 155 -65 169 -111 8 -23 -4 -44 -60 -110 l-45 -52 -97 -34 c-54 -18 -108 -33
-119 -33 -12 0 -38 -7 -57 -15 -24 -10 -69 -15 -130 -15 l-93 0 -84 30 c-47
16 -101 30 -120 30 -64 0 -224 64 -301 120 -23 16 -49 30 -56 30 -26 0 -68 31
-93 68 -14 21 -39 55 -57 78 -39 48 -41 67 -11 88 l22 16 399 0 398 0 36 -15z"/>
<path d="M94 1564 c-21 -14 -51 -38 -66 -52 l-28 -26 0 -47 c0 -26 4 -51 10
-54 5 -3 10 -20 10 -36 0 -16 10 -48 21 -71 12 -23 41 -102 66 -176 24 -74 55
-150 68 -170 14 -20 25 -44 25 -53 0 -8 12 -26 26 -40 14 -13 44 -50 66 -81
22 -32 56 -69 74 -83 19 -15 45 -48 59 -75 14 -27 42 -61 64 -76 21 -16 49
-43 61 -62 13 -18 51 -53 85 -78 35 -26 73 -59 84 -75 12 -16 40 -38 62 -49
22 -12 57 -36 77 -55 50 -45 330 -185 370 -185 17 0 34 -4 37 -10 4 -6 53 -10
114 -10 l108 0 12 23 c6 12 35 38 64 57 30 21 55 46 59 60 40 150 43 173 24
220 -9 22 -16 52 -16 66 0 61 -133 246 -218 304 -20 14 -50 50 -67 79 -30 54
-36 59 -87 80 -15 5 -39 28 -53 50 -14 23 -42 49 -64 61 -22 11 -60 37 -85 59
-55 48 -178 132 -238 162 -24 12 -56 32 -73 45 -16 12 -64 39 -105 60 -41 20
-88 47 -105 59 -35 27 -169 95 -186 95 -14 0 -142 62 -185 90 l-31 20 -39 -26z
m243 -306 c15 -7 42 -22 58 -34 17 -12 66 -41 110 -64 152 -78 323 -188 349
-224 26 -35 123 -106 146 -106 9 0 31 -17 48 -39 17 -21 66 -67 108 -102 43
-35 93 -79 112 -98 41 -41 113 -184 138 -270 l17 -64 -36 -33 c-46 -42 -70
-43 -154 -4 -35 16 -69 30 -75 30 -31 0 -161 75 -216 124 -34 31 -66 56 -71
56 -12 0 -176 154 -256 241 -106 114 -164 188 -192 244 -14 27 -43 70 -64 94
-24 27 -41 57 -44 80 -3 20 -13 57 -21 84 -16 46 -13 97 6 97 5 0 22 -5 37
-12z"/>
</g>
</svg>
