<?xml version="1.0" encoding="UTF-8" standalone="no"?>
<!-- Created with Inkscape (http://www.inkscape.org/) -->

<svg
   version="1.1"
   id="svg1"
   width="410.76389"
   height="237.51271"
   viewBox="0 0 410.76389 237.51271"
   xmlns="http://www.w3.org/2000/svg"
   xmlns:svg="http://www.w3.org/2000/svg">
  <defs
     id="defs1" />
  <g
     id="g1"
     transform="translate(-0.14789692,-0.21464279)">
    <path
       style="fill:#000000"
       d="m 313.5,237.42027 c -1.65,-0.23307 -8.4,-1.1507 -15,-2.03918 C 269.73525,231.50883 235.77991,220.3411 202.97126,203.96221 160.32667,182.67297 133.62263,152.39014 83.076878,68 75.335407,55.075 69.006485,44.725 69.012607,45 c 0.0061,0.275 0.675449,2.975 1.487393,6 7.016119,26.13943 -12.744587,35.068303 -36.875968,16.662401 -3.287724,-2.507669 -3.287724,-2.507669 -0.02175,6.18732 C 47.145975,109.9071 37.287212,144 13.316677,144 5.4172144,144 -3.9030252,132.7616 2.4532588,130.90083 32.674001,122.05384 35.91374,89.845262 10.826684,47.654596 3.8304345,35.888511 -0.9862809,24.652948 0.38006239,23.286604 2.732644,20.934023 10.51419,26.864736 18.243722,36.901409 51.346413,79.884726 68.851744,73.089443 52.767097,23.5 44.417812,-2.241091 44.435138,-1.4570034 52.290012,1.9099886 57.16539,3.9998195 58.886616,6.4301497 68.997103,25.5 c 16.973346,32.0142 59.534717,98.69459 76.281197,119.50885 48.49055,60.26905 128.89171,88.17809 223.2217,77.48523 33.9546,-3.84896 39.34584,-3.15407 41.76627,5.38332 1.31054,4.6226 1.31054,4.6226 -6.72786,5.29871 -4.42113,0.37185 -14.56341,1.40568 -22.53841,2.2974 -13.58691,1.5192 -60.87222,2.88295 -67.5,1.94676 z"
       id="path1" />
  </g>
</svg>
