<?xml version="1.0" standalone="no"?>
<!DOCTYPE svg PUBLIC "-//W3C//DTD SVG 20010904//EN"
 "http://www.w3.org/TR/2001/REC-SVG-20010904/DTD/svg10.dtd">
<svg version="1.0" xmlns="http://www.w3.org/2000/svg"
 width="420.000000pt" height="255.000000pt" viewBox="0 0 420.000000 255.000000"
 preserveAspectRatio="xMidYMid meet">
<metadata>
Created by potrace 1.16, written by Peter Selinger 2001-2019
</metadata>
<g transform="translate(0.000000,255.000000) scale(0.100000,-0.100000)"
fill="#000000" stroke="none">
<path d="M3395 2540 c-4 -6 -91 -10 -229 -10 -176 0 -231 -3 -259 -15 -28 -12
-81 -15 -237 -15 -156 0 -209 3 -237 15 -50 21 -76 19 -173 -15 l-84 -30 -97
0 c-63 0 -109 -5 -132 -15 -20 -8 -61 -15 -90 -15 -30 0 -71 -7 -90 -15 -24
-10 -70 -15 -135 -15 -66 0 -112 -5 -135 -15 -38 -16 -174 -21 -192 -7 -6 4
-16 19 -22 35 -22 49 -63 31 -63 -28 0 -14 -9 -29 -19 -35 -12 -6 -101 -10
-219 -10 -155 0 -208 -3 -235 -15 -20 -8 -49 -15 -65 -15 -42 0 -62 -28 -62
-86 0 -60 17 -87 72 -115 31 -16 51 -19 80 -15 51 8 115 -10 153 -45 39 -35
87 -59 120 -59 23 0 63 -20 199 -102 21 -13 81 -65 133 -117 l95 -94 39 -81
40 -81 -3 -50 -3 -50 -47 -3 c-26 -2 -62 4 -83 12 -21 9 -61 16 -89 16 -28 0
-71 6 -96 14 -60 19 -125 35 -182 46 -26 5 -56 13 -67 19 -12 7 -107 11 -256
11 l-236 0 -61 -21 c-83 -28 -177 -76 -211 -108 -41 -37 -77 -113 -77 -160 0
-74 37 -164 89 -214 41 -41 230 -147 262 -147 6 0 40 -14 76 -30 l64 -30 70 0
c39 0 85 -7 106 -15 50 -21 316 -21 366 0 20 8 56 15 81 15 l44 0 48 40 c27
23 60 43 74 47 46 11 215 101 239 127 42 45 116 25 172 -45 17 -22 44 -42 61
-47 17 -4 35 -14 38 -22 53 -109 57 -130 40 -191 -14 -51 -53 -86 -136 -125
l-72 -34 -91 0 -92 0 -25 -25 -25 -25 11 -20 c6 -11 33 -31 60 -45 l49 -25
136 0 135 0 98 49 c104 52 116 62 125 101 4 14 24 47 47 74 l40 48 0 64 0 65
-31 62 c-17 34 -42 74 -56 88 -14 15 -39 49 -56 75 -18 27 -41 50 -52 52 -11
2 -33 16 -50 32 -16 15 -56 46 -87 70 l-58 42 0 100 c0 73 -5 114 -21 160 -28
85 -72 168 -103 197 -14 14 -26 33 -26 44 0 23 -216 239 -263 263 -47 24 -162
101 -177 118 -14 18 -5 36 19 36 10 0 35 7 54 15 21 8 67 15 105 15 39 0 85 7
105 15 20 8 61 15 90 15 30 0 71 7 90 15 23 9 68 15 120 15 53 0 98 6 120 15
24 10 70 15 137 15 l101 0 24 -25 c14 -13 25 -34 25 -46 0 -32 172 -204 240
-241 30 -16 78 -44 106 -62 71 -44 311 -120 429 -135 34 -5 70 -13 82 -19 12
-7 40 -12 63 -12 22 0 57 -7 77 -15 20 -9 66 -15 108 -15 42 0 88 6 108 15 20
8 52 15 71 15 45 0 319 91 406 135 92 46 163 105 240 196 l30 37 0 94 0 95
-21 19 c-12 10 -27 31 -35 46 -18 35 -142 118 -177 118 -15 0 -44 7 -64 15
-25 10 -71 15 -154 15 -68 0 -120 4 -124 10 -4 6 -53 10 -115 10 -62 0 -111
-4 -115 -10z m200 -180 c198 -7 229 -12 315 -52 36 -17 90 -69 90 -88 0 -22
-127 -164 -153 -171 -12 -3 -42 -16 -67 -27 -66 -31 -161 -62 -188 -62 -13 0
-33 -5 -45 -12 -33 -17 -281 -40 -313 -28 -14 6 -50 10 -80 10 -38 0 -73 8
-110 25 -72 33 -168 65 -195 65 -33 0 -207 87 -268 134 -112 87 -131 116 -98
159 l12 16 170 4 c94 2 183 9 198 16 18 7 105 11 235 12 114 0 216 4 227 9 11
5 31 7 45 3 14 -3 115 -9 225 -13z m-2698 -1005 c19 -8 52 -15 72 -15 20 0 75
-13 121 -30 47 -16 102 -30 122 -30 21 0 55 -6 75 -14 21 -8 55 -17 75 -19 41
-6 88 -33 88 -52 0 -17 -117 -113 -165 -135 -22 -11 -67 -28 -100 -39 l-59
-21 -196 0 -195 0 -101 34 c-124 43 -255 120 -269 160 -16 47 9 75 115 129
l94 47 143 0 c105 0 153 -4 180 -15z"/>
<path d="M277 652 c-44 -48 5 -212 62 -212 9 0 33 -11 53 -25 20 -13 67 -34
105 -46 37 -12 78 -32 90 -45 12 -14 64 -45 114 -71 51 -25 109 -61 128 -78
130 -116 194 -126 241 -37 17 34 -2 75 -54 114 -22 17 -59 48 -81 69 -22 21
-89 63 -150 94 -60 31 -135 72 -165 91 -30 19 -69 38 -86 43 -17 5 -70 34
-116 65 -90 60 -115 67 -141 38z"/>
<path d="M2 419 l3 -72 75 -53 c46 -32 102 -61 145 -75 39 -12 84 -34 100 -49
17 -15 45 -35 64 -45 19 -9 52 -30 74 -46 22 -16 49 -29 59 -29 10 0 30 -11
44 -25 34 -34 101 -35 132 -2 12 13 22 31 22 40 0 9 -24 47 -54 84 -43 54 -69
75 -123 103 -37 18 -84 46 -103 60 -42 31 -71 44 -168 76 -40 13 -86 32 -101
43 -25 18 -138 61 -161 61 -7 0 -10 -25 -8 -71z"/>
</g>
</svg>
