<?xml version="1.0" standalone="no"?>
<!DOCTYPE svg PUBLIC "-//W3C//DTD SVG 20010904//EN"
 "http://www.w3.org/TR/2001/REC-SVG-20010904/DTD/svg10.dtd">
<svg version="1.0" xmlns="http://www.w3.org/2000/svg"
 width="321.000000pt" height="147.000000pt" viewBox="0 0 321.000000 147.000000"
 preserveAspectRatio="xMidYMid meet">
<metadata>
Created by potrace 1.16, written by Peter Selinger 2001-2019
</metadata>
<g transform="translate(0.000000,147.000000) scale(0.100000,-0.100000)"
fill="#000000" stroke="none">
<path d="M215 1460 c-3 -5 -40 -10 -81 -10 -48 0 -86 -6 -104 -15 l-30 -16 0
-54 0 -54 30 -16 c16 -8 34 -15 40 -15 6 0 35 -11 63 -23 29 -13 76 -27 106
-30 42 -5 62 -13 86 -37 17 -16 37 -30 44 -30 21 0 156 -67 171 -85 7 -8 10
-21 7 -28 -3 -7 -52 -37 -108 -66 -124 -63 -125 -64 -150 -113 l-19 -37 11
-48 c6 -26 14 -59 17 -73 4 -14 31 -40 64 -63 76 -52 215 -197 238 -250 48
-106 -2 -267 -83 -267 -33 0 -77 -54 -77 -94 l0 -36 104 0 c59 0 108 4 111 10
3 6 15 10 26 10 24 0 93 92 138 188 l35 72 -17 48 c-9 26 -17 55 -17 64 0 10
-10 47 -22 84 l-21 65 -100 94 c-60 56 -110 95 -128 99 -38 7 -64 47 -49 75 6
12 17 21 26 21 30 0 172 80 202 115 l32 36 0 71 0 72 -65 63 c-69 66 -75 77
-49 87 9 3 170 6 359 6 l344 0 11 -19 c15 -28 12 -75 -7 -122 l-16 -41 16 -47
c10 -25 17 -57 17 -70 0 -63 164 -250 250 -285 48 -19 76 -33 155 -77 28 -16
61 -29 75 -29 14 0 64 -13 110 -30 47 -16 101 -30 120 -30 20 0 74 -13 120
-30 47 -16 101 -30 120 -30 20 0 74 -13 120 -30 97 -34 123 -36 173 -15 24 10
70 15 137 15 l101 0 47 24 c26 13 86 36 134 51 l88 27 35 39 c19 22 35 48 35
58 0 11 5 23 10 26 6 4 10 63 10 145 0 82 -4 141 -10 145 -5 3 -10 22 -10 41
l0 35 -57 60 c-89 93 -276 209 -338 209 -14 0 -42 7 -62 15 -23 10 -69 15
-132 15 -55 0 -115 6 -141 14 -94 30 -138 38 -225 45 -49 4 -100 12 -112 19
-12 7 -54 12 -93 12 -40 0 -86 6 -107 15 -19 8 -48 15 -63 15 -15 0 -44 -7
-63 -15 -46 -19 -96 -19 -145 0 l-38 16 -295 -5 c-452 -7 -858 -1 -873 14 -13
13 -223 13 -231 0z m1702 -195 c19 -8 65 -15 102 -15 36 0 86 -6 111 -14 78
-25 133 -37 195 -45 34 -5 70 -13 82 -19 12 -7 66 -12 123 -12 67 0 113 -5
137 -15 19 -8 47 -15 62 -15 16 0 63 -24 116 -60 50 -33 97 -60 106 -60 9 0
26 -8 37 -17 24 -21 62 -123 62 -168 0 -43 -34 -136 -57 -153 -39 -30 -123
-62 -162 -62 -22 0 -52 -5 -68 -11 -20 -7 -39 -7 -70 2 l-42 11 -41 -16 c-50
-20 -100 -20 -147 -1 -19 8 -45 15 -56 15 -11 0 -101 27 -199 60 -98 33 -188
60 -199 60 -28 0 -196 81 -250 120 -23 16 -50 30 -59 30 -20 0 -94 93 -116
145 -19 47 -17 102 5 151 28 60 53 74 137 74 41 0 86 6 105 15 43 18 42 18 86
0z"/>
</g>
</svg>
