<?xml version="1.0" standalone="no"?>
<!DOCTYPE svg PUBLIC "-//W3C//DTD SVG 20010904//EN"
 "http://www.w3.org/TR/2001/REC-SVG-20010904/DTD/svg10.dtd">
<svg version="1.0" xmlns="http://www.w3.org/2000/svg"
 width="405.000000pt" height="276.000000pt" viewBox="0 0 405.000000 276.000000"
 preserveAspectRatio="xMidYMid meet">
<metadata>
Created by potrace 1.16, written by Peter Selinger 2001-2019
</metadata>
<g transform="translate(0.000000,276.000000) scale(0.100000,-0.100000)"
fill="#000000" stroke="none">
<path d="M2970 2750 c-8 -4 -30 -14 -49 -21 -48 -18 -148 -85 -199 -133 -75
-71 -152 -248 -152 -351 0 -56 20 -107 69 -180 12 -16 21 -37 21 -44 0 -52
205 -281 252 -281 12 0 37 -9 53 -20 17 -11 37 -20 45 -20 8 0 28 -13 45 -28
16 -15 57 -36 90 -47 33 -10 81 -31 106 -47 31 -19 59 -28 88 -28 23 0 58 -7
78 -15 25 -10 71 -15 154 -15 l118 0 64 30 c36 16 72 30 79 30 8 0 27 14 43
30 16 17 37 30 48 30 26 0 107 82 107 108 0 11 5 24 10 27 6 4 10 70 10 167
l0 160 -25 30 c-16 18 -25 42 -25 63 0 24 -11 46 -40 81 -22 27 -45 65 -50 84
-7 26 -50 75 -162 187 l-153 152 -62 20 c-34 12 -87 21 -117 21 -30 0 -58 5
-61 10 -8 12 -363 13 -385 0z m297 -165 c19 -8 53 -15 75 -15 21 0 59 -9 83
-20 66 -30 314 -257 315 -288 0 -24 68 -147 94 -171 l26 -24 0 -100 0 -100
-21 -33 c-11 -18 -41 -49 -67 -68 -26 -19 -56 -44 -66 -55 l-19 -21 -99 0
c-65 0 -111 5 -135 15 -19 8 -47 15 -62 15 -14 0 -43 11 -63 25 -20 14 -72 36
-115 50 -110 36 -132 48 -201 107 -33 29 -81 65 -106 80 -28 17 -46 34 -46 46
0 10 -13 31 -30 47 -16 16 -30 35 -30 42 0 8 -9 32 -21 55 l-21 40 7 62 c9 76
23 110 71 175 75 100 175 149 312 150 53 1 96 -4 119 -14z"/>
<path d="M295 1855 c-16 -8 -55 -14 -86 -15 -31 0 -73 -7 -92 -15 -20 -8 -55
-15 -77 -15 l-40 0 0 -85 0 -85 59 0 c32 0 75 7 94 15 20 8 56 15 79 15 31 0
56 8 88 30 l45 30 98 0 c64 0 110 -5 134 -15 22 -9 67 -15 120 -15 52 0 97 -6
120 -15 19 -8 53 -15 75 -15 21 0 55 -7 75 -15 23 -10 69 -15 132 -15 l97 0
84 -30 c47 -16 95 -30 108 -30 13 0 48 -11 78 -25 73 -34 168 -65 196 -65 13
0 40 -11 60 -25 20 -13 67 -34 105 -46 37 -12 82 -35 98 -50 44 -40 122 -76
184 -82 42 -5 62 -13 86 -37 l31 -30 55 0 c58 0 156 -30 200 -61 37 -26 218
-115 251 -123 15 -3 39 -22 54 -42 31 -40 71 -64 108 -64 29 0 76 -51 76 -83
0 -13 23 -43 60 -79 33 -31 60 -62 60 -68 0 -23 34 -77 76 -120 191 -195 339
-352 365 -388 21 -28 52 -53 91 -73 34 -17 82 -50 108 -75 l47 -44 69 0 69 0
18 49 c27 78 22 119 -28 222 -25 51 -45 101 -45 110 0 10 -20 33 -44 51 -24
18 -55 50 -70 70 -14 20 -58 58 -97 84 -39 25 -81 63 -93 83 -26 39 -55 67
-101 96 -16 10 -50 37 -75 59 -49 45 -109 88 -181 129 -28 16 -61 47 -84 81
l-38 55 5 49 c3 29 14 63 27 81 l22 31 80 0 81 0 29 29 c32 32 38 71 13 92
-34 28 -119 48 -207 49 l-87 0 -68 -34 c-38 -19 -73 -40 -78 -48 -8 -11 -28
-69 -50 -147 -3 -8 -10 -10 -22 -6 -9 4 -35 14 -57 22 -22 8 -64 25 -93 38
-29 14 -58 25 -65 25 -6 0 -25 9 -42 21 -41 27 -182 99 -196 99 -17 0 -80 31
-114 56 -53 39 -113 64 -152 64 -42 0 -126 26 -211 66 -29 13 -57 24 -63 24
-6 0 -35 11 -65 25 -67 31 -168 65 -190 65 -10 0 -98 27 -196 60 l-178 60 -95
0 c-62 0 -108 5 -132 15 -22 9 -67 15 -120 15 -52 0 -97 6 -120 15 -49 21
-413 20 -458 0z"/>
</g>
</svg>
