<?xml version="1.0" standalone="no"?>
<!DOCTYPE svg PUBLIC "-//W3C//DTD SVG 20010904//EN"
 "http://www.w3.org/TR/2001/REC-SVG-20010904/DTD/svg10.dtd">
<svg version="1.0" xmlns="http://www.w3.org/2000/svg"
 width="597.000000pt" height="489.000000pt" viewBox="0 0 597.000000 489.000000"
 preserveAspectRatio="xMidYMid meet">
<metadata>
Created by potrace 1.16, written by Peter Selinger 2001-2019
</metadata>
<g transform="translate(0.000000,489.000000) scale(0.100000,-0.100000)"
fill="#000000" stroke="none">
<path d="M4835 4880 c-3 -5 -17 -10 -30 -10 -14 0 -73 -16 -131 -36 -77 -25
-120 -46 -153 -74 -25 -21 -70 -50 -98 -64 -35 -17 -61 -40 -78 -65 -13 -22
-38 -55 -54 -74 -45 -51 -98 -237 -81 -282 6 -15 10 -51 10 -81 0 -35 7 -69
20 -95 23 -44 308 -332 393 -396 71 -53 156 -96 254 -128 43 -14 98 -35 121
-46 l44 -20 33 11 c26 9 41 8 70 -5 26 -10 71 -15 151 -15 l113 0 153 51 c100
33 169 63 198 84 69 50 127 139 156 235 8 26 21 53 29 60 15 13 22 100 8 113
-20 20 -43 119 -43 183 l0 71 -77 77 c-43 42 -97 95 -120 118 -65 67 -146 125
-230 164 -43 20 -91 43 -108 51 -16 7 -43 32 -58 54 -29 40 -76 70 -131 83
-17 4 -42 16 -57 27 -29 20 -84 26 -94 9 -3 -5 -26 -10 -50 -10 -24 0 -47 5
-50 10 -3 6 -28 10 -55 10 -27 0 -52 -4 -55 -10z m238 -197 l48 -10 49 -55 50
-56 92 -28 92 -29 51 -50 c29 -27 70 -62 92 -77 50 -34 160 -196 168 -247 3
-20 12 -56 20 -81 20 -61 19 -125 -4 -190 l-19 -55 -43 -27 c-23 -15 -53 -37
-65 -49 -43 -40 -118 -59 -234 -59 -63 0 -123 6 -150 14 -76 24 -134 35 -160
29 -16 -3 -49 6 -84 21 -32 14 -63 26 -68 26 -16 0 -161 90 -193 120 -16 15
-49 37 -72 49 -24 12 -53 35 -65 52 -13 17 -52 53 -88 79 l-65 49 -17 54 c-24
71 -23 188 0 252 23 63 179 225 217 225 13 0 52 14 87 30 l63 30 125 -4 c69
-2 147 -8 173 -13z"/>
<path d="M2587 3922 c-36 -40 -5 -149 78 -274 30 -45 55 -88 55 -96 0 -28 41
-90 77 -117 48 -37 57 -48 92 -115 19 -36 62 -88 123 -146 106 -102 162 -169
153 -184 -10 -16 -151 -12 -192 5 -22 9 -67 15 -120 15 -52 0 -97 6 -120 15
l-35 15 -310 0 -309 0 -36 15 c-23 10 -69 15 -134 15 -68 0 -111 5 -140 17
l-41 16 -49 -17 -49 -18 -107 6 c-60 3 -128 8 -153 10 -25 3 -90 9 -145 13
-55 5 -110 14 -122 21 -32 18 -193 15 -238 -4 l-38 -16 -41 16 c-26 10 -73 16
-124 16 -51 0 -96 6 -119 15 -22 9 -67 15 -120 15 -52 0 -97 6 -120 15 -49 21
-233 21 -273 0 l-30 -16 0 -69 0 -70 25 0 c14 0 42 -7 62 -15 19 -8 47 -15 60
-15 14 0 54 -13 90 -30 35 -16 70 -30 77 -30 7 0 23 -12 37 -26 13 -14 38 -33
54 -41 75 -39 346 -227 368 -256 14 -18 45 -41 69 -51 59 -24 56 -23 140 -91
40 -33 87 -69 103 -79 17 -11 64 -51 105 -91 41 -39 94 -84 118 -100 47 -31
212 -200 212 -217 0 -6 50 -63 111 -127 202 -211 219 -231 219 -246 0 -30 39
-92 74 -119 21 -16 39 -40 45 -61 5 -19 27 -56 49 -82 22 -26 50 -67 61 -91
28 -56 101 -271 101 -298 0 -12 7 -38 15 -57 21 -51 21 -244 0 -295 -10 -24
-14 -50 -10 -74 l7 -37 -41 -70 c-27 -46 -54 -77 -78 -92 -21 -13 -57 -39 -79
-58 -49 -43 -159 -81 -232 -81 -27 0 -66 -7 -85 -15 -27 -11 -76 -15 -192 -15
-116 0 -165 4 -192 15 -22 9 -67 15 -117 15 -44 0 -101 6 -126 14 -71 22 -137
36 -175 36 -20 0 -52 7 -73 16 -20 8 -86 31 -147 51 -69 23 -121 46 -140 63
-32 30 -86 60 -106 60 -7 0 -33 13 -58 29 -25 16 -58 31 -72 35 -14 3 -54 30
-88 61 l-62 55 -39 0 c-46 0 -70 -26 -70 -77 0 -41 33 -79 84 -95 28 -9 49
-26 71 -58 22 -32 43 -49 71 -58 52 -16 81 -31 128 -64 21 -16 46 -28 55 -28
8 0 29 -13 46 -28 20 -19 69 -41 150 -67 66 -21 137 -46 157 -57 21 -10 59
-18 85 -18 26 -1 73 -9 103 -20 34 -12 82 -19 127 -20 39 0 75 -4 78 -10 8
-14 492 -14 500 0 3 5 26 10 49 10 24 0 60 7 79 15 20 8 47 15 61 15 13 0 66
20 118 45 51 25 100 45 109 45 17 0 112 70 193 142 62 55 116 159 116 223 0
25 10 74 21 108 l21 62 -6 135 c-6 134 -19 198 -51 261 -10 18 -37 91 -60 163
l-43 131 -40 30 c-41 30 -54 50 -89 135 -10 25 -42 71 -70 103 -29 33 -57 75
-63 95 -5 21 -29 54 -57 82 -26 25 -61 66 -78 90 -39 58 -192 217 -227 236
-28 15 -154 124 -225 194 -23 23 -64 58 -91 78 -27 20 -73 63 -103 96 -29 32
-71 70 -93 83 -22 14 -60 44 -85 67 -65 58 -136 106 -174 117 -18 5 -53 26
-79 46 -26 21 -68 50 -93 66 -36 21 -46 32 -43 50 l3 22 100 8 c121 9 115 9
295 -1 81 -4 155 -13 167 -20 16 -9 92 -12 272 -12 150 0 261 -4 277 -11 16
-5 105 -13 199 -16 108 -4 182 -11 204 -19 24 -10 88 -14 237 -14 133 0 212
-4 231 -12 15 -6 71 -15 123 -20 113 -10 113 -10 213 -2 61 5 88 3 123 -11 35
-13 60 -16 102 -11 80 10 100 10 161 -2 l55 -10 35 -40 c35 -39 86 -72 113
-72 7 0 34 -24 60 -54 33 -37 60 -58 90 -67 30 -10 50 -26 72 -58 24 -33 51
-54 111 -85 44 -23 119 -67 166 -98 52 -35 96 -58 113 -58 14 0 43 -7 63 -15
19 -8 48 -15 62 -15 17 0 38 -11 56 -30 16 -16 35 -30 43 -30 7 0 38 -11 67
-25 67 -30 259 -95 283 -95 10 0 58 -14 107 -31 l89 -31 55 7 c31 3 83 8 116
9 94 4 157 20 200 49 22 15 47 27 57 27 31 0 67 44 88 107 11 34 20 72 20 83
0 26 -35 131 -60 180 -21 41 -137 148 -190 175 -19 10 -48 28 -65 40 -58 44
-113 65 -167 65 -30 0 -90 12 -143 29 -103 33 -160 49 -227 61 -26 5 -56 13
-67 19 -11 6 -38 11 -60 11 -22 0 -52 6 -68 12 -17 8 -109 16 -228 20 -110 4
-227 10 -260 12 -186 14 -262 23 -282 34 -12 7 -35 12 -51 12 -29 0 -129 64
-161 103 -7 9 -20 17 -28 17 -9 0 -44 31 -80 69 -35 39 -72 73 -82 76 -39 12
-238 262 -290 364 -11 20 -31 47 -45 60 -14 14 -26 34 -26 45 0 11 -20 38 -43
60 -24 23 -47 53 -50 67 -4 14 -31 49 -61 77 l-55 52 -54 0 c-40 0 -58 -5 -70
-18z m1423 -1201 c63 -4 125 -12 137 -19 15 -8 74 -12 183 -12 120 0 170 -4
197 -15 19 -8 53 -15 75 -15 21 0 55 -7 75 -15 19 -8 47 -15 60 -15 14 0 54
-13 90 -30 35 -16 76 -30 89 -30 14 0 50 -11 80 -25 30 -14 64 -25 75 -25 11
0 52 -18 90 -40 50 -30 75 -52 94 -83 13 -24 36 -54 50 -67 29 -27 32 -60 9
-100 -27 -44 -64 -60 -140 -60 -38 0 -87 -7 -110 -16 l-41 -16 -38 16 c-20 9
-49 16 -64 16 -14 0 -43 11 -62 25 -20 13 -115 50 -210 81 -96 32 -186 65
-200 73 -14 9 -50 31 -80 49 -30 17 -70 37 -89 42 -100 27 -279 140 -335 212
-30 39 -52 57 -74 61 -17 4 -31 12 -31 18 0 7 9 9 28 4 15 -4 79 -10 142 -14z"/>
</g>
</svg>
