<?xml version="1.0" standalone="no"?>
<!DOCTYPE svg PUBLIC "-//W3C//DTD SVG 20010904//EN"
 "http://www.w3.org/TR/2001/REC-SVG-20010904/DTD/svg10.dtd">
<svg version="1.0" xmlns="http://www.w3.org/2000/svg"
 width="399.000000pt" height="297.000000pt" viewBox="0 0 399.000000 297.000000"
 preserveAspectRatio="xMidYMid meet">
<metadata>
Created by potrace 1.16, written by Peter Selinger 2001-2019
</metadata>
<g transform="translate(0.000000,297.000000) scale(0.100000,-0.100000)"
fill="#000000" stroke="none">
<path d="M2315 2960 c-3 -5 -14 -10 -22 -10 -25 0 -241 -148 -254 -173 -6 -12
-29 -43 -50 -68 -56 -68 -79 -147 -79 -269 l0 -100 39 -78 c22 -42 49 -90 60
-107 12 -16 21 -38 21 -48 0 -23 63 -90 152 -163 40 -33 92 -77 117 -99 25
-23 59 -49 74 -59 15 -9 53 -39 83 -67 37 -33 63 -49 81 -49 15 0 68 -13 118
-29 147 -47 176 -54 265 -58 l85 -4 29 30 c17 17 40 31 53 31 12 0 52 10 89
22 l66 21 76 84 c87 95 93 105 119 188 23 71 25 280 4 355 -53 186 -59 198
-107 252 -18 21 -47 64 -63 96 -33 65 -44 76 -83 86 -15 3 -39 22 -54 42 -15
19 -39 41 -54 49 -41 21 -147 55 -172 55 -13 0 -43 14 -68 30 l-45 30 -137 0
c-80 0 -139 4 -143 10 -3 6 -48 10 -100 10 -52 0 -97 -4 -100 -10z m443 -195
c52 -25 106 -45 121 -45 16 0 46 -13 67 -28 58 -42 153 -149 160 -180 4 -15
22 -58 41 -96 19 -38 46 -102 59 -142 l25 -72 -17 -41 -16 -42 11 -42 12 -42
-15 -35 c-33 -78 -149 -190 -196 -190 -9 0 -29 -13 -45 -30 -33 -35 -82 -40
-142 -15 -19 8 -47 15 -60 15 -14 0 -52 13 -86 28 -34 16 -74 32 -89 35 -14 4
-73 50 -130 102 -56 53 -134 117 -172 142 -38 26 -76 60 -85 76 -9 16 -31 54
-49 86 -49 82 -72 156 -72 228 l0 63 73 73 c39 40 80 84 90 99 10 16 48 42 90
62 l72 36 130 0 130 0 93 -45z"/>
<path d="M1236 2241 c-42 -46 2 -92 126 -131 105 -33 147 -54 202 -99 l48 -41
51 0 50 0 36 -39 c39 -42 121 -109 189 -155 24 -16 55 -47 70 -69 15 -21 51
-67 81 -101 53 -60 90 -125 91 -158 0 -9 26 -37 58 -61 55 -43 75 -71 103
-147 8 -19 42 -78 77 -130 35 -52 73 -113 84 -135 12 -22 38 -60 59 -85 49
-58 85 -138 70 -153 -18 -18 -179 -13 -225 7 -48 20 -142 21 -189 1 -46 -19
-98 -19 -144 0 -20 8 -66 15 -105 15 -38 0 -84 7 -105 15 -26 11 -76 15 -195
15 -118 0 -168 4 -195 15 -19 8 -47 15 -62 15 -40 -1 -129 -35 -156 -60 l-24
-23 -32 14 c-53 21 -147 88 -169 119 -12 16 -52 46 -91 66 -39 21 -82 53 -98
73 -19 24 -61 52 -126 85 -54 27 -114 63 -134 81 -20 18 -63 46 -96 63 -62 31
-274 170 -310 202 -39 36 -140 100 -157 100 l-18 0 0 -57 0 -56 78 -76 c43
-42 101 -93 128 -114 151 -116 210 -157 226 -157 34 0 83 -27 143 -78 33 -29
89 -68 125 -87 79 -42 88 -50 125 -98 15 -21 50 -49 75 -62 26 -13 71 -46 101
-73 30 -27 69 -57 87 -66 18 -9 50 -32 70 -50 20 -18 49 -36 63 -39 28 -7 136
-100 208 -179 29 -32 57 -51 82 -58 22 -6 46 -22 56 -36 64 -92 139 -144 208
-144 44 0 95 45 95 83 0 33 -39 79 -103 122 -77 51 -146 121 -200 203 l-48 73
12 15 c15 18 155 19 196 2 23 -11 164 -19 478 -28 11 0 56 3 101 6 61 5 89 2
118 -10 23 -9 67 -16 108 -16 38 0 84 -7 105 -15 19 -8 52 -15 72 -15 35 0
126 -27 181 -53 14 -6 47 -28 74 -49 27 -21 59 -38 71 -38 14 0 33 -13 49 -35
15 -19 34 -35 42 -35 22 0 82 -29 128 -62 21 -15 47 -28 56 -28 10 0 30 -16
44 -35 15 -19 51 -47 79 -62 29 -14 66 -36 82 -49 17 -12 59 -32 95 -43 36
-12 73 -26 82 -31 23 -13 135 -13 143 0 3 5 22 10 42 10 l36 0 39 42 38 41 0
102 0 103 -33 24 c-17 14 -52 35 -76 47 -24 13 -60 35 -81 49 -20 15 -70 42
-111 61 -83 37 -111 51 -184 92 -27 16 -63 29 -78 29 -15 0 -44 7 -64 15 -20
8 -66 15 -105 15 -38 0 -84 7 -105 15 -19 8 -61 15 -93 15 -45 0 -61 4 -76 21
-10 11 -40 36 -65 55 -48 35 -189 233 -244 344 -15 30 -43 72 -62 94 -34 37
-83 128 -83 154 0 31 -82 172 -113 196 -19 14 -46 47 -60 73 -26 48 -177 202
-230 236 -15 10 -38 35 -52 57 -17 26 -45 50 -83 70 -61 33 -134 77 -223 134
-30 20 -61 36 -68 36 -7 0 -37 11 -66 25 -185 84 -361 118 -399 76z m2169
-1821 c75 -26 100 -38 149 -72 21 -16 52 -28 68 -28 34 0 132 -57 174 -101
l28 -29 -17 -17 -17 -17 -42 13 c-24 7 -61 16 -83 20 -43 8 -122 55 -193 115
-24 20 -51 36 -59 36 -19 0 -83 29 -105 48 -10 8 -18 23 -18 34 0 24 39 24
115 -2z"/>
</g>
</svg>
