<?xml version="1.0" standalone="no"?>
<!DOCTYPE svg PUBLIC "-//W3C//DTD SVG 20010904//EN"
 "http://www.w3.org/TR/2001/REC-SVG-20010904/DTD/svg10.dtd">
<svg version="1.0" xmlns="http://www.w3.org/2000/svg"
 width="243.000000pt" height="231.000000pt" viewBox="0 0 243.000000 231.000000"
 preserveAspectRatio="xMidYMid meet">
<metadata>
Created by potrace 1.16, written by Peter Selinger 2001-2019
</metadata>
<g transform="translate(0.000000,231.000000) scale(0.100000,-0.100000)"
fill="#000000" stroke="none">
<path d="M1505 2300 c-3 -5 -19 -10 -34 -10 -16 0 -45 -7 -64 -15 -20 -8 -54
-15 -75 -15 -22 0 -56 -7 -75 -15 -20 -8 -61 -15 -91 -15 -40 0 -72 -8 -119
-30 -36 -16 -70 -30 -76 -30 -6 0 -47 -18 -91 -40 -61 -30 -86 -50 -105 -79
-13 -22 -38 -55 -54 -73 -33 -38 -71 -140 -71 -193 0 -46 65 -238 96 -284 13
-20 24 -44 24 -55 0 -11 42 -60 102 -119 95 -92 158 -137 191 -137 7 0 24 -12
38 -26 37 -39 152 -94 198 -94 22 0 52 -5 68 -12 22 -10 203 -24 358 -28 56
-2 167 14 218 31 157 52 293 200 356 387 26 75 29 211 6 265 -8 20 -15 49 -15
64 0 35 -114 208 -189 286 -51 53 -132 107 -162 107 -6 0 -37 16 -68 35 -64
40 -182 84 -223 85 -15 0 -30 5 -33 10 -3 6 -28 10 -55 10 -27 0 -52 -4 -55
-10z m193 -206 c31 -14 80 -41 107 -59 28 -18 70 -44 95 -57 45 -25 53 -33
117 -143 42 -73 103 -247 103 -295 -1 -50 -29 -106 -91 -177 -30 -34 -62 -72
-71 -86 -19 -27 -124 -67 -177 -67 -18 0 -55 -8 -82 -17 l-49 -18 -49 18 c-27
9 -65 17 -85 17 -20 0 -53 7 -73 15 -19 8 -60 15 -90 15 l-54 0 -77 46 c-42
26 -90 59 -107 74 -16 15 -46 36 -65 45 -49 24 -69 44 -92 90 -11 22 -40 58
-64 81 l-44 41 0 89 c0 101 1 104 88 199 l55 60 96 32 c53 18 106 33 119 33
13 0 33 5 45 12 12 6 48 14 82 19 63 8 124 22 190 44 61 21 111 18 173 -11z"/>
<path d="M475 595 c-16 -8 -47 -14 -68 -15 -83 -1 -323 -108 -353 -157 -9 -16
-25 -40 -35 -55 l-19 -27 0 -99 c0 -105 16 -157 59 -196 12 -11 21 -25 21 -33
0 -9 14 -13 44 -13 l44 0 26 31 c14 17 26 37 26 44 0 7 -13 42 -30 77 -34 72
-37 103 -13 138 26 37 39 47 149 100 l101 50 307 0 307 0 36 -15 c19 -8 53
-15 75 -15 21 0 55 -7 75 -15 19 -8 53 -15 75 -15 21 0 55 -7 75 -15 19 -8 52
-15 72 -15 20 0 75 -13 121 -30 54 -19 105 -30 140 -30 l55 0 45 -30 c25 -17
58 -30 75 -30 17 0 47 -11 67 -25 21 -14 74 -37 120 -52 45 -14 91 -31 103
-37 46 -24 115 -80 120 -98 l6 -18 65 0 64 0 0 67 0 67 -27 28 c-15 15 -34 28
-43 28 -8 0 -32 11 -53 25 -65 44 -235 125 -264 125 -16 0 -70 20 -121 45 -52
25 -104 45 -115 45 -12 0 -42 6 -67 14 -86 27 -135 38 -210 46 -41 4 -88 12
-105 18 -67 23 -125 35 -210 42 -55 5 -117 18 -160 34 l-70 26 -240 -1 c-181
0 -247 -4 -270 -14z"/>
</g>
</svg>
