<?xml version="1.0" standalone="no"?>
<!DOCTYPE svg PUBLIC "-//W3C//DTD SVG 20010904//EN"
 "http://www.w3.org/TR/2001/REC-SVG-20010904/DTD/svg10.dtd">
<svg version="1.0" xmlns="http://www.w3.org/2000/svg"
 width="216.000000pt" height="396.000000pt" viewBox="0 0 216.000000 396.000000"
 preserveAspectRatio="xMidYMid meet">
<metadata>
Created by potrace 1.16, written by Peter Selinger 2001-2019
</metadata>
<g transform="translate(0.000000,396.000000) scale(0.100000,-0.100000)"
fill="#000000" stroke="none">
<path d="M1175 3950 c-3 -5 -27 -10 -52 -10 -36 0 -73 -14 -180 -67 -137 -68
-203 -121 -203 -162 0 -10 -8 -25 -17 -32 -38 -32 -103 -132 -103 -160 0 -16
-7 -47 -17 -70 l-16 -41 17 -47 c15 -43 14 -81 -3 -81 -3 0 -37 27 -74 60
l-68 60 -45 0 c-25 0 -61 7 -81 15 -26 11 -75 15 -184 15 l-149 0 0 -55 0 -54
30 -16 c16 -8 41 -15 55 -15 14 0 42 -7 62 -15 19 -8 46 -15 60 -15 24 0 62
-16 157 -69 37 -20 58 -41 89 -91 43 -71 71 -150 58 -163 -4 -4 -20 -3 -35 3
-15 5 -46 10 -70 10 l-42 0 -29 30 -29 30 -73 0 c-68 0 -161 -22 -215 -51
l-18 -10 0 -102 0 -102 41 -48 c45 -52 132 -102 242 -138 l64 -21 89 31 c51
18 108 31 137 31 58 0 130 -31 154 -66 33 -48 167 -183 212 -213 46 -30 123
-117 188 -211 21 -30 56 -73 79 -95 71 -70 164 -244 164 -310 0 -11 14 -58 30
-105 40 -112 40 -178 0 -290 -17 -51 -30 -106 -30 -135 0 -71 -31 -152 -68
-181 -63 -50 -168 -114 -185 -114 -10 0 -32 -13 -48 -29 -23 -23 -29 -38 -29
-72 l0 -42 43 -41 c24 -22 55 -49 70 -59 15 -10 31 -33 37 -55 5 -20 30 -62
55 -92 25 -30 61 -78 80 -106 20 -30 53 -62 79 -78 33 -19 56 -45 86 -94 22
-37 53 -85 70 -107 16 -22 40 -55 52 -72 l23 -33 61 0 62 0 6 23 c10 39 7 58
-18 90 -13 18 -42 69 -65 114 -25 50 -53 91 -72 105 -17 13 -43 43 -57 68 -45
78 -121 188 -163 237 -47 53 -62 87 -53 116 3 11 41 56 84 101 52 55 91 107
119 161 23 44 50 94 61 110 l19 31 -11 38 -12 37 16 52 c33 105 41 163 29 197
-6 18 -11 68 -11 111 l0 79 -36 106 c-19 59 -46 123 -60 143 -13 20 -24 50
-24 68 l0 32 -60 46 c-57 44 -76 66 -172 199 -24 33 -88 105 -143 161 -55 56
-116 121 -134 146 -73 95 -123 139 -157 139 -44 0 -76 45 -81 114 -3 28 -11
70 -20 92 l-15 42 16 31 c9 17 22 31 30 31 7 0 39 -24 72 -52 32 -29 80 -68
105 -85 123 -86 395 -193 489 -193 28 0 67 -7 87 -15 45 -19 111 -19 156 0 20
8 52 15 72 15 43 0 137 31 215 70 63 32 112 88 150 175 13 28 27 58 31 67 13
25 11 405 -1 413 -6 4 -20 25 -31 48 -12 22 -31 49 -43 58 -13 10 -44 49 -69
88 -26 38 -60 79 -75 91 -15 11 -52 40 -84 64 -31 25 -78 56 -105 71 -26 14
-83 48 -126 75 l-79 50 -178 0 c-108 0 -181 -4 -185 -10z m337 -185 c24 -19
68 -48 98 -64 106 -56 160 -120 291 -343 l39 -67 0 -77 c0 -53 -7 -98 -22
-143 l-22 -66 -65 -66 -66 -65 -66 -22 c-77 -26 -173 -29 -226 -7 -19 8 -60
15 -90 15 -59 0 -104 17 -167 62 -21 15 -46 28 -55 28 -64 0 -315 274 -360
393 -26 67 -3 150 51 188 16 12 40 38 53 60 56 88 247 179 376 179 37 0 82 7
100 15 54 23 83 18 131 -20z m-1157 -999 c37 -16 39 -40 5 -51 -19 -6 -100 29
-100 44 0 25 44 28 95 7z"/>
</g>
</svg>
