<?xml version="1.0" standalone="no"?>
<!DOCTYPE svg PUBLIC "-//W3C//DTD SVG 20010904//EN"
 "http://www.w3.org/TR/2001/REC-SVG-20010904/DTD/svg10.dtd">
<svg version="1.0" xmlns="http://www.w3.org/2000/svg"
 width="360.000000pt" height="195.000000pt" viewBox="0 0 360.000000 195.000000"
 preserveAspectRatio="xMidYMid meet">
<metadata>
Created by potrace 1.16, written by Peter Selinger 2001-2019
</metadata>
<g transform="translate(0.000000,195.000000) scale(0.100000,-0.100000)"
fill="#000000" stroke="none">
<path d="M2945 1940 c-3 -6 -51 -10 -109 -10 -69 0 -115 -5 -139 -15 -20 -8
-54 -15 -75 -15 -22 0 -56 -7 -75 -15 -23 -9 -68 -15 -120 -15 -53 0 -98 -6
-120 -15 -20 -8 -54 -15 -75 -15 -22 0 -56 -7 -75 -15 -20 -8 -55 -15 -77 -15
-23 0 -51 -5 -63 -12 -12 -6 -48 -14 -82 -19 -62 -8 -117 -20 -195 -45 -25 -8
-75 -14 -111 -14 -37 0 -83 -7 -102 -15 -20 -8 -54 -15 -75 -15 -22 0 -56 -7
-75 -15 -20 -8 -55 -15 -77 -15 -23 0 -50 -5 -61 -11 -11 -6 -41 -14 -67 -19
-58 -11 -127 -28 -167 -42 -16 -6 -70 -14 -120 -18 -85 -7 -134 -17 -215 -43
-19 -6 -60 -14 -90 -18 -65 -9 -114 -21 -235 -60 -63 -20 -111 -29 -158 -29
l-68 0 -59 -30 -60 -30 0 -54 0 -54 42 -31 c48 -35 61 -37 111 -16 26 11 74
15 173 15 l138 0 65 -22 c36 -12 101 -39 144 -60 43 -21 83 -38 90 -38 7 -1
50 -24 97 -53 60 -37 88 -61 95 -81 l10 -28 -20 -14 c-10 -8 -39 -14 -64 -14
-34 0 -58 -8 -91 -30 -25 -16 -51 -30 -58 -30 -7 0 -47 -18 -90 -39 -80 -42
-202 -154 -235 -216 -22 -43 -57 -150 -57 -175 0 -26 35 -131 60 -180 18 -35
133 -146 175 -168 37 -19 144 -52 169 -52 14 0 28 -4 31 -10 7 -11 307 -14
318 -3 12 12 111 43 137 43 17 0 51 24 108 77 l83 76 38 76 c38 76 54 135 53
201 0 52 -17 161 -30 193 -7 16 -12 46 -12 68 0 63 -40 126 -152 236 -80 78
-120 110 -178 138 -41 21 -96 55 -121 76 -36 29 -77 48 -173 80 -130 43 -175
67 -162 87 4 7 25 12 47 12 22 0 50 5 62 12 12 6 48 14 82 19 70 9 118 21 240
60 50 16 100 29 112 29 11 0 37 7 56 15 25 10 72 15 150 15 79 0 126 5 150 15
20 8 61 15 92 15 l56 0 24 -25 c17 -16 25 -35 25 -57 0 -20 12 -51 30 -78 16
-25 30 -52 30 -60 0 -26 29 -59 69 -80 21 -10 65 -42 97 -69 57 -49 160 -111
184 -111 6 0 36 -11 66 -25 92 -42 171 -65 224 -65 28 0 67 -7 87 -15 28 -12
82 -15 248 -15 l212 0 39 28 c42 30 105 62 123 62 19 0 146 67 160 84 7 9 44
39 83 67 65 49 108 105 108 143 0 8 11 28 25 44 l25 30 0 152 0 152 -25 30
c-14 16 -25 37 -25 47 0 10 -8 25 -18 34 -23 21 -196 107 -216 107 -8 0 -18 5
-21 10 -4 6 -73 10 -175 10 -102 0 -171 -4 -175 -10z m232 -165 c19 -8 45 -15
57 -15 26 0 136 -37 154 -53 8 -6 25 -33 39 -60 l25 -50 -7 -61 c-6 -47 -18
-78 -54 -139 -60 -99 -137 -165 -266 -228 l-100 -49 -233 0 -234 0 -65 30
c-35 16 -70 30 -76 30 -7 0 -32 14 -57 30 -25 16 -51 30 -58 30 -27 0 -99 40
-152 85 -99 85 -126 118 -140 167 l-12 47 35 48 36 48 54 18 c29 9 84 17 121
17 37 0 77 5 89 12 12 7 63 15 112 19 87 7 131 15 225 45 25 8 82 14 126 14
50 0 95 6 115 15 47 20 218 20 266 0z m-2019 -1021 c26 -18 28 -45 5 -66 -30
-25 -148 -78 -175 -78 -14 0 -42 -7 -61 -15 -20 -8 -62 -15 -93 -15 -64 0 -94
-18 -94 -55 0 -29 19 -44 83 -66 64 -22 153 -24 200 -4 24 10 70 15 137 15
l100 0 12 -25 11 -26 -22 -69 c-28 -84 -55 -113 -147 -156 l-72 -34 -81 0
c-50 0 -96 6 -118 15 -19 8 -54 15 -77 15 -32 0 -57 11 -112 46 -90 59 -104
82 -104 171 l0 68 43 65 42 64 65 34 c36 18 90 49 122 67 39 25 68 35 96 35
22 0 55 7 73 15 46 19 138 19 167 -1z"/>
</g>
</svg>
