<?xml version="1.0" standalone="no"?>
<!DOCTYPE svg PUBLIC "-//W3C//DTD SVG 20010904//EN"
 "http://www.w3.org/TR/2001/REC-SVG-20010904/DTD/svg10.dtd">
<svg version="1.0" xmlns="http://www.w3.org/2000/svg"
 width="519.000000pt" height="249.000000pt" viewBox="0 0 519.000000 249.000000"
 preserveAspectRatio="xMidYMid meet">
<metadata>
Created by potrace 1.16, written by Peter Selinger 2001-2019
</metadata>
<g transform="translate(0.000000,249.000000) scale(0.100000,-0.100000)"
fill="#000000" stroke="none">
<path d="M3125 2480 c-3 -5 -15 -10 -26 -10 -29 0 -146 -116 -175 -172 -30
-58 -30 -110 -3 -190 60 -178 172 -306 369 -420 25 -14 56 -38 69 -52 14 -14
31 -26 39 -26 7 0 43 -13 79 -30 37 -17 81 -30 104 -30 22 0 56 -7 76 -15 24
-10 71 -15 148 -15 61 0 127 -5 145 -11 35 -13 90 -4 208 32 79 24 118 44 161
81 18 16 44 34 57 40 l24 11 37 -26 c62 -42 119 -99 141 -143 12 -23 43 -61
70 -85 l49 -44 21 -67 c12 -37 44 -100 71 -141 28 -41 57 -92 64 -113 18 -47
51 -129 83 -204 13 -30 33 -82 44 -115 l20 -59 0 -189 0 -188 -25 -24 c-13
-14 -30 -25 -37 -25 -24 0 -79 44 -223 174 -103 94 -158 141 -201 169 -23 16
-61 45 -85 65 -23 20 -56 42 -73 47 -18 6 -42 27 -59 53 -20 29 -47 52 -85 71
-61 31 -204 152 -212 180 -10 34 -96 123 -142 147 -56 28 -145 33 -201 9 -52
-21 -362 -21 -414 0 -27 12 -79 15 -227 15 l-191 0 -55 27 -55 27 -555 5
c-417 5 -560 9 -577 19 -17 9 -159 12 -618 12 l-596 0 -36 15 c-26 11 -75 15
-184 15 l-149 0 0 -40 0 -39 30 -16 c22 -11 62 -15 160 -15 93 0 141 -4 167
-15 24 -10 71 -15 149 -15 82 0 125 -5 154 -16 29 -12 53 -14 83 -9 23 4 53 6
67 6 14 -1 198 -5 410 -9 279 -5 391 -10 407 -19 17 -10 148 -13 560 -13 l538
0 63 -30 64 -30 128 0 c77 0 140 -5 157 -12 15 -6 75 -15 133 -19 58 -5 130
-12 160 -18 30 -5 106 -10 168 -10 76 -1 124 -6 149 -16 19 -8 47 -15 62 -15
44 0 113 -42 143 -87 16 -23 43 -52 60 -65 17 -13 52 -44 77 -69 25 -26 64
-56 87 -67 22 -12 88 -64 145 -117 57 -53 130 -114 162 -135 54 -37 87 -66
217 -192 29 -27 53 -61 59 -82 5 -20 25 -55 45 -78 20 -23 36 -45 36 -50 0 -4
29 -8 65 -8 l64 0 101 98 c65 64 100 106 100 119 0 12 5 25 10 28 6 4 10 98
10 250 0 152 -4 246 -10 250 -5 3 -10 19 -10 34 0 16 -7 45 -15 64 -8 20 -15
48 -15 63 0 16 -15 43 -40 71 -24 28 -42 59 -45 82 -11 68 -14 76 -49 131 -19
30 -57 98 -85 151 -62 116 -152 220 -418 480 l-190 186 -71 38 c-40 21 -83 52
-97 71 -14 19 -44 43 -66 55 -22 11 -57 35 -77 53 -36 33 -210 126 -234 126
-7 0 -33 14 -58 30 -25 16 -51 30 -58 30 -8 0 -43 14 -79 30 -40 19 -81 30
-108 30 -24 0 -47 5 -50 10 -4 6 -63 10 -145 10 -82 0 -141 -4 -145 -10z m202
-135 c19 -8 60 -15 90 -15 29 0 70 -7 90 -15 19 -8 47 -15 62 -15 14 0 40 -9
56 -21 44 -30 235 -125 267 -133 15 -3 35 -18 45 -32 40 -57 87 -105 110 -110
22 -6 203 -178 203 -194 0 -23 -45 -56 -133 -100 l-103 -50 -97 0 c-64 0 -110
5 -134 15 -19 8 -53 15 -75 15 -21 0 -55 7 -75 15 -19 8 -44 15 -55 15 -11 0
-52 10 -91 23 l-71 22 -53 53 c-29 28 -60 52 -69 52 -29 0 -72 33 -100 78 -16
24 -43 55 -60 69 l-32 24 -5 52 c-3 29 -11 71 -18 95 l-13 43 17 32 c21 38 64
67 100 67 14 0 40 7 58 15 43 18 42 18 86 0z"/>
</g>
</svg>
