<?xml version="1.0" standalone="no"?>
<!DOCTYPE svg PUBLIC "-//W3C//DTD SVG 20010904//EN"
 "http://www.w3.org/TR/2001/REC-SVG-20010904/DTD/svg10.dtd">
<svg version="1.0" xmlns="http://www.w3.org/2000/svg"
 width="234.000000pt" height="330.000000pt" viewBox="0 0 234.000000 330.000000"
 preserveAspectRatio="xMidYMid meet">
<metadata>
Created by potrace 1.16, written by Peter Selinger 2001-2019
</metadata>
<g transform="translate(0.000000,330.000000) scale(0.100000,-0.100000)"
fill="#000000" stroke="none">
<path d="M215 3290 c-3 -5 -14 -10 -24 -10 -28 0 -153 -106 -173 -147 -14 -29
-18 -61 -18 -152 l0 -116 57 -57 c32 -31 75 -77 97 -102 62 -74 261 -196 319
-196 13 0 61 -13 107 -30 47 -16 95 -30 107 -30 13 0 41 -7 64 -17 l41 -16 47
16 c25 10 74 17 109 17 97 0 188 34 310 116 71 48 78 49 136 33 30 -8 68 -39
153 -122 62 -61 129 -135 149 -164 19 -29 47 -61 61 -70 13 -9 38 -41 55 -70
17 -30 46 -65 64 -80 19 -14 34 -31 34 -39 0 -7 41 -95 90 -195 l90 -181 0
-58 c0 -32 7 -74 15 -94 12 -28 15 -68 13 -174 l-3 -137 -21 -3 c-17 -2 -32
12 -65 60 -84 120 -351 368 -418 388 -14 4 -52 23 -83 42 -76 47 -240 97 -341
105 -86 7 -185 -27 -232 -78 -39 -43 -44 -77 -17 -102 l19 -17 174 0 175 0 59
-20 c75 -26 100 -38 147 -71 21 -15 53 -30 72 -33 26 -5 58 -30 125 -97 50
-50 98 -105 107 -122 10 -18 39 -56 65 -85 27 -29 53 -70 59 -90 21 -74 73
-155 115 -179 57 -32 126 -30 189 5 65 36 73 50 59 105 l-12 45 18 51 c10 28
21 54 24 58 11 10 8 248 -2 259 -5 5 -12 45 -14 89 -2 44 -10 100 -17 125 -38
136 -84 269 -104 295 -13 17 -45 72 -71 124 -34 66 -66 112 -106 150 -31 31
-68 79 -82 108 -15 28 -40 62 -56 75 -16 12 -53 53 -81 91 -29 38 -58 67 -68
67 -23 0 -42 19 -42 42 0 20 -113 108 -139 108 -9 0 -34 20 -54 45 -21 25 -73
67 -115 94 -71 46 -100 66 -185 129 -17 12 -42 25 -56 29 -14 3 -39 18 -56 33
-29 27 -204 120 -226 120 -6 0 -40 14 -76 30 -35 17 -69 30 -75 30 -5 0 -39
14 -75 30 -40 19 -81 30 -108 30 -24 0 -47 5 -50 10 -4 6 -58 10 -130 10 -72
0 -126 -4 -130 -10z m404 -202 c36 -12 101 -39 144 -60 43 -21 82 -38 88 -38
21 0 176 -102 228 -149 l53 -50 -6 -27 c-10 -39 -44 -84 -64 -84 -9 0 -37 -14
-62 -30 -25 -16 -57 -30 -71 -30 -15 0 -43 -7 -62 -15 -20 -8 -58 -15 -84 -15
-100 0 -413 128 -469 191 -16 18 -50 54 -76 79 -26 25 -55 63 -63 84 l-17 39
17 43 c9 24 28 53 42 64 l26 20 155 0 156 0 65 -22z"/>
<path d="M760 1240 l-45 -30 -146 0 c-108 0 -156 -4 -182 -15 -20 -8 -48 -15
-62 -15 -34 0 -114 -41 -146 -77 -46 -48 -89 -147 -89 -201 0 -47 45 -204 76
-264 51 -99 301 -363 359 -379 21 -6 45 -24 61 -45 32 -42 57 -55 161 -89 91
-29 114 -40 167 -77 23 -17 52 -28 72 -28 18 0 36 -4 39 -10 8 -13 282 -13
290 0 3 6 14 10 24 10 9 0 51 27 93 60 54 43 80 71 92 102 28 67 32 73 52 77
46 8 64 61 66 191 1 84 -42 203 -111 305 -12 17 -21 38 -21 47 0 10 -22 43
-50 73 -27 30 -60 72 -74 92 -26 41 -54 69 -101 98 -16 10 -50 37 -75 60 -81
76 -247 145 -347 145 l-58 0 -45 -30z m47 -215 c19 -8 65 -15 102 -15 63 0
138 -19 217 -55 32 -15 94 -72 94 -87 0 -4 13 -22 29 -41 50 -56 121 -171 121
-194 0 -12 12 -58 26 -102 l26 -81 -11 -31 c-6 -18 -11 -44 -11 -58 0 -14 -19
-55 -43 -91 -54 -83 -102 -110 -200 -110 -38 0 -83 7 -104 15 -19 8 -47 15
-61 15 -14 0 -46 13 -71 29 -25 16 -77 44 -116 61 -38 18 -85 40 -104 49 -19
9 -61 42 -93 74 -32 31 -66 57 -77 57 -11 0 -36 23 -61 58 -24 31 -63 75 -86
98 -24 22 -44 49 -44 60 0 10 -14 39 -30 64 l-30 45 0 56 0 56 41 56 40 57 58
0 c32 0 74 7 92 15 48 20 247 20 296 0z"/>
</g>
</svg>
