<?xml version="1.0" standalone="no"?>
<!DOCTYPE svg PUBLIC "-//W3C//DTD SVG 20010904//EN"
 "http://www.w3.org/TR/2001/REC-SVG-20010904/DTD/svg10.dtd">
<svg version="1.0" xmlns="http://www.w3.org/2000/svg"
 width="438.000000pt" height="369.000000pt" viewBox="0 0 438.000000 369.000000"
 preserveAspectRatio="xMidYMid meet">
<metadata>
Created by potrace 1.16, written by Peter Selinger 2001-2019
</metadata>
<g transform="translate(0.000000,369.000000) scale(0.100000,-0.100000)"
fill="#000000" stroke="none">
<path d="M2220 3681 c-8 -4 -37 -19 -64 -32 -27 -13 -53 -31 -57 -39 -36 -78
-51 -134 -54 -198 l-3 -74 24 -35 c13 -20 24 -45 24 -56 0 -12 36 -54 93 -108
l92 -89 46 0 47 0 27 -35 c51 -68 394 -214 468 -200 18 4 61 1 97 -5 36 -7 85
-14 110 -15 25 -2 70 -7 100 -10 64 -8 123 9 261 74 47 23 97 41 109 41 17 0
51 -28 112 -90 48 -50 88 -95 88 -101 0 -26 53 -111 85 -134 25 -20 54 -65
104 -164 39 -75 79 -149 91 -166 11 -16 20 -41 20 -55 0 -13 7 -43 16 -67 35
-91 -18 -97 -132 -16 -39 28 -229 123 -246 123 -7 0 -33 14 -58 30 -32 22 -57
30 -88 30 -23 0 -59 7 -79 15 -19 8 -59 15 -87 15 -28 0 -71 6 -96 14 -106 34
-142 39 -259 43 -96 3 -132 1 -162 -11 -22 -9 -57 -16 -78 -16 -21 0 -55 -7
-74 -15 -20 -8 -48 -15 -63 -15 -42 0 -142 -60 -205 -122 -33 -32 -67 -58 -78
-58 -10 0 -41 -18 -67 -41 -56 -46 -121 -79 -157 -79 -14 0 -41 -7 -60 -15
-20 -8 -54 -15 -75 -15 -22 0 -56 -7 -75 -15 l-36 -15 -276 0 -276 0 -36 15
c-20 8 -66 15 -105 15 -38 0 -84 7 -105 15 -19 8 -65 15 -102 15 -69 0 -216
43 -329 95 -29 14 -63 25 -75 25 -24 0 -119 31 -174 56 -18 8 -45 31 -59 50
-32 41 -91 74 -131 74 -47 -1 -137 -37 -154 -62 -8 -13 -25 -37 -37 -55 l-22
-32 0 -165 c0 -99 4 -167 10 -171 6 -3 10 -21 10 -40 0 -24 11 -46 41 -81 22
-27 50 -67 61 -89 11 -22 35 -56 53 -75 18 -19 62 -78 97 -130 60 -90 196
-234 383 -405 88 -81 115 -108 115 -117 0 -4 30 -30 66 -57 36 -27 83 -69 104
-93 20 -24 77 -69 126 -101 50 -33 101 -76 117 -98 27 -37 90 -79 120 -79 7 0
27 -17 44 -38 19 -23 58 -51 105 -74 41 -20 115 -64 164 -97 49 -34 95 -61
103 -61 8 0 79 -31 158 -70 165 -81 246 -110 302 -110 22 0 43 -5 46 -10 8
-12 447 -14 473 -2 9 5 44 22 77 38 l60 29 42 80 42 80 1 108 0 107 -39 78
c-45 87 -155 203 -230 241 -24 13 -62 36 -84 52 -22 16 -46 29 -54 29 -8 0
-44 18 -81 40 -37 23 -78 43 -92 46 -14 2 -43 9 -65 15 -22 6 -67 14 -100 18
-34 5 -70 13 -82 19 -12 7 -40 12 -63 12 -22 0 -57 7 -77 15 -28 12 -82 15
-257 15 l-221 0 -85 -30 c-46 -17 -96 -30 -111 -30 -19 0 -47 -17 -91 -55 -34
-30 -68 -55 -74 -55 -7 0 -19 11 -28 24 -8 14 -42 42 -73 63 -32 21 -79 59
-105 86 -25 27 -59 52 -74 56 -28 7 -33 14 -52 63 -6 14 -33 41 -60 59 -27 17
-63 54 -81 80 -17 27 -51 65 -76 86 -27 22 -59 64 -80 104 -20 38 -50 78 -71
94 -36 27 -104 150 -104 187 0 9 -13 32 -28 50 -47 55 -62 81 -62 109 0 15 -7
43 -15 63 -30 72 21 104 109 67 28 -11 55 -21 59 -21 5 0 32 -11 62 -25 89
-40 353 -125 391 -125 19 0 51 -7 71 -15 19 -8 53 -15 75 -15 21 0 55 -7 75
-15 27 -12 79 -15 225 -15 145 0 197 -3 225 -15 43 -18 146 -20 176 -2 14 8
87 14 202 18 99 3 200 12 225 19 128 35 178 54 205 74 17 13 64 40 105 60 52
26 94 56 136 100 41 43 73 66 95 71 18 4 61 20 95 36 34 16 73 29 87 29 13 0
41 7 60 15 46 19 98 19 144 0 19 -8 59 -15 87 -15 28 0 71 -6 96 -14 78 -25
133 -37 195 -45 34 -5 70 -13 82 -19 12 -7 34 -12 50 -12 15 0 48 -14 73 -30
25 -16 51 -30 58 -30 20 0 82 -30 126 -62 21 -15 46 -28 55 -28 9 0 38 -25 64
-55 34 -39 59 -57 87 -65 23 -6 47 -22 57 -36 72 -103 142 -147 226 -142 l52
3 22 40 c23 42 30 100 13 110 -5 3 -10 26 -10 51 0 27 -9 64 -23 92 -13 26
-50 127 -82 226 -33 100 -73 201 -91 230 -18 28 -55 94 -83 146 -28 52 -74
121 -101 154 -28 32 -58 73 -67 90 -8 17 -36 51 -62 76 -25 25 -63 70 -83 101
-21 31 -53 66 -72 77 -19 11 -46 39 -60 61 -24 37 -104 91 -137 91 -6 0 -34
20 -62 45 -28 24 -78 58 -111 76 -34 17 -81 48 -106 69 -47 39 -120 80 -142
80 -7 0 -55 20 -106 45 -52 25 -105 45 -119 45 -14 0 -54 14 -90 30 -35 17
-75 30 -89 30 -14 0 -41 7 -61 15 -19 8 -48 15 -64 15 -15 0 -31 5 -34 10 -7
12 -272 13 -295 1z m327 -166 c73 -25 143 -45 155 -45 13 0 43 -14 68 -30 25
-16 58 -30 73 -30 34 0 87 -23 139 -61 21 -15 54 -30 74 -33 24 -5 52 -24 89
-62 30 -30 62 -54 71 -54 34 0 85 -34 119 -80 19 -26 35 -53 35 -59 0 -20 -43
-71 -76 -92 l-31 -19 -127 0 c-90 0 -137 4 -163 15 -19 8 -60 15 -90 15 -40 0
-73 8 -120 30 -35 17 -74 30 -87 30 -61 0 -166 52 -241 120 -16 15 -43 30 -59
34 -49 12 -74 36 -126 121 -81 136 -69 164 100 224 30 10 57 20 59 20 3 1 65
-19 138 -44z m-660 -2640 c19 -8 45 -15 57 -15 12 0 60 -13 106 -30 47 -16
102 -30 123 -30 21 0 54 -7 74 -15 19 -8 46 -15 60 -15 60 0 274 -129 340
-204 19 -23 58 -86 85 -141 l49 -100 -4 -37 c-7 -55 -40 -93 -110 -127 l-64
-31 -139 0 -140 0 -84 30 c-47 16 -94 30 -105 30 -30 0 -135 39 -166 61 -15
10 -73 42 -129 70 -55 28 -136 74 -179 104 -42 29 -100 64 -129 79 -29 14 -82
55 -119 90 -38 35 -78 68 -91 75 -31 16 -56 57 -45 74 19 34 119 106 171 125
l57 20 173 1 c133 1 181 -2 209 -14z"/>
</g>
</svg>
