<?xml version="1.0" standalone="no"?>
<!DOCTYPE svg PUBLIC "-//W3C//DTD SVG 20010904//EN"
 "http://www.w3.org/TR/2001/REC-SVG-20010904/DTD/svg10.dtd">
<svg version="1.0" xmlns="http://www.w3.org/2000/svg"
 width="453.000000pt" height="210.000000pt" viewBox="0 0 453.000000 210.000000"
 preserveAspectRatio="xMidYMid meet">
<metadata>
Created by potrace 1.16, written by Peter Selinger 2001-2019
</metadata>
<g transform="translate(0.000000,210.000000) scale(0.100000,-0.100000)"
fill="#000000" stroke="none">
<path d="M2600 2080 c-14 -11 -38 -22 -55 -26 -40 -9 -95 -37 -167 -86 l-59
-40 -40 -79 -39 -79 0 -74 0 -74 30 -64 c16 -34 30 -76 30 -91 0 -34 40 -114
72 -144 38 -35 142 -103 158 -103 8 0 29 -9 45 -21 57 -38 185 -99 210 -99 13
0 42 -7 63 -15 l39 -16 214 4 c135 2 231 8 259 16 181 52 194 60 351 199 74
65 82 68 123 53 55 -22 234 -211 316 -335 19 -30 47 -69 62 -87 14 -19 43 -81
62 -139 l36 -105 0 -104 c0 -142 -24 -216 -95 -287 -53 -53 -79 -69 -180 -104
l-60 -22 -182 1 c-141 0 -189 3 -218 15 -21 9 -60 16 -88 16 -59 0 -151 29
-260 82 -43 21 -83 38 -88 38 -6 0 -43 15 -83 34 -68 31 -162 107 -247 198
l-36 38 -37 0 c-37 0 -87 -20 -118 -48 -14 -12 -18 -31 -18 -93 0 -86 1 -84
-75 -111 -65 -23 -249 -25 -302 -3 -21 9 -67 15 -117 15 l-81 0 -105 35 c-58
20 -139 52 -180 71 -41 20 -108 47 -150 60 -86 28 -113 40 -155 70 -47 34
-147 82 -222 106 -40 13 -83 35 -106 55 -21 19 -64 50 -95 70 -31 20 -84 62
-117 93 -33 31 -79 68 -102 84 -47 31 -150 136 -178 181 -11 17 -38 51 -61 76
-23 25 -53 64 -67 86 -14 23 -40 51 -56 63 -17 12 -31 28 -31 36 0 32 -67 143
-137 228 -18 21 -43 72 -56 115 -14 42 -37 101 -51 131 -14 30 -26 62 -26 71
0 22 -32 49 -58 49 -26 0 -52 -36 -52 -72 0 -15 -4 -30 -10 -33 -17 -11 -11
-65 12 -95 14 -19 23 -49 26 -87 3 -46 10 -64 32 -88 33 -35 120 -178 120
-196 0 -17 105 -173 150 -224 19 -22 49 -58 65 -80 53 -73 147 -174 180 -194
18 -10 45 -38 61 -61 19 -28 50 -53 89 -74 38 -20 69 -46 85 -70 15 -23 62
-63 121 -102 54 -36 117 -83 142 -104 29 -26 55 -40 72 -40 15 0 55 -13 89
-29 34 -16 76 -32 93 -35 18 -4 51 -24 75 -44 31 -27 71 -47 148 -71 58 -19
133 -47 168 -63 35 -15 68 -28 74 -28 5 0 39 -14 75 -30 l64 -30 70 0 c39 0
85 -7 106 -15 28 -12 81 -15 242 -15 l206 0 69 25 c38 13 95 40 127 60 70 43
97 44 134 5 16 -17 35 -30 43 -30 7 0 43 -13 79 -30 35 -16 69 -30 75 -30 6 0
50 -18 97 -41 101 -48 190 -79 225 -79 14 0 28 -5 31 -10 8 -14 612 -14 620 0
3 6 20 10 36 10 38 0 145 52 184 91 17 16 38 29 46 29 27 0 59 31 85 82 14 27
39 68 55 91 22 31 29 51 29 88 0 26 5 51 10 54 13 8 13 239 1 263 -24 47 -71
160 -71 172 0 28 -131 207 -212 290 -46 47 -97 107 -113 135 -21 33 -48 59
-82 80 -29 16 -69 49 -89 73 -20 24 -54 55 -76 68 -21 13 -62 46 -91 72 -29
26 -86 62 -127 81 -41 18 -82 37 -90 41 -8 4 -17 16 -19 26 -5 32 -32 54 -65
54 -18 0 -50 13 -76 30 -25 16 -51 30 -58 30 -19 0 -81 30 -117 56 -47 35
-172 94 -198 94 -13 0 -61 13 -107 30 -47 16 -97 30 -112 30 -15 0 -30 5 -33
10 -3 6 -41 10 -83 10 -61 0 -82 -5 -102 -20z m266 -165 c31 -14 109 -43 175
-65 85 -28 141 -54 194 -89 84 -56 137 -85 177 -95 15 -3 35 -18 45 -32 10
-15 40 -51 66 -80 l49 -53 -25 -54 c-28 -62 -89 -128 -139 -151 -64 -29 -153
-56 -186 -56 -19 0 -56 -8 -83 -17 l-49 -18 -49 18 c-27 9 -72 17 -100 17 -28
0 -68 7 -88 15 -19 8 -46 15 -60 15 -35 0 -126 44 -170 83 -21 18 -56 44 -78
59 l-40 26 -17 54 c-10 30 -18 66 -18 79 0 13 -14 44 -30 69 -38 57 -38 86 0
138 33 46 104 102 129 102 9 0 36 14 61 30 l45 30 68 0 c52 0 82 -6 123 -25z"/>
</g>
</svg>
