<?xml version="1.0" standalone="no"?>
<!DOCTYPE svg PUBLIC "-//W3C//DTD SVG 20010904//EN"
 "http://www.w3.org/TR/2001/REC-SVG-20010904/DTD/svg10.dtd">
<svg version="1.0" xmlns="http://www.w3.org/2000/svg"
 width="330.000000pt" height="429.000000pt" viewBox="0 0 330.000000 429.000000"
 preserveAspectRatio="xMidYMid meet">
<metadata>
Created by potrace 1.16, written by Peter Selinger 2001-2019
</metadata>
<g transform="translate(0.000000,429.000000) scale(0.100000,-0.100000)"
fill="#000000" stroke="none">
<path d="M1170 4254 c-25 -18 -62 -38 -82 -44 -27 -8 -57 -33 -115 -96 -85
-93 -112 -135 -113 -175 0 -14 -5 -41 -11 -59 -13 -36 -4 -93 34 -215 l22 -69
43 -29 c24 -16 54 -47 68 -68 18 -29 44 -49 104 -79 44 -22 85 -40 91 -40 18
0 81 -32 123 -62 21 -15 51 -28 65 -28 14 0 46 -6 71 -14 60 -19 125 -35 182
-46 26 -5 56 -13 67 -19 11 -6 72 -11 135 -11 l116 0 107 36 c59 20 123 44
143 54 46 24 190 172 190 197 0 27 28 63 50 63 26 0 150 -118 195 -186 20 -30
47 -62 61 -71 14 -9 37 -37 51 -62 15 -25 44 -66 64 -91 71 -86 159 -294 159
-375 0 -28 9 -54 30 -85 l30 -45 0 -69 c0 -39 7 -89 17 -117 l18 -49 -18 -49
c-9 -27 -17 -73 -17 -102 0 -37 -8 -72 -26 -109 -14 -30 -35 -84 -47 -120 -17
-51 -34 -78 -77 -122 -30 -31 -67 -71 -82 -87 l-27 -31 -48 0 c-37 0 -59 -7
-93 -30 -25 -16 -57 -30 -71 -30 -15 0 -43 -7 -62 -15 -49 -20 -215 -20 -264
0 -19 8 -60 15 -90 15 -40 0 -73 8 -120 30 -35 16 -75 30 -89 30 -14 0 -41 7
-61 15 -19 8 -47 15 -62 15 -35 0 -424 194 -470 235 -38 34 -92 65 -113 65 -7
0 -26 16 -43 36 -16 19 -57 50 -90 68 -38 21 -70 47 -87 72 -15 22 -47 53 -71
68 -25 16 -55 46 -68 68 -25 40 -43 67 -92 135 -71 97 -217 330 -217 345 0 9
-25 45 -56 80 -30 34 -58 75 -61 90 -3 17 -22 41 -47 61 -51 40 -64 55 -72 87
-4 14 -19 46 -35 71 -16 25 -29 58 -29 73 0 15 -5 36 -10 46 -14 26 -141 110
-166 110 -11 0 -39 -14 -62 -31 l-42 -31 0 -96 0 -97 33 -15 c20 -10 41 -32
58 -62 14 -27 37 -60 51 -75 14 -16 28 -39 31 -53 4 -14 24 -55 47 -92 22 -37
40 -72 40 -78 0 -20 43 -95 80 -140 21 -25 49 -67 63 -95 15 -29 51 -73 87
-105 35 -30 76 -79 93 -108 16 -29 43 -63 59 -75 27 -20 65 -75 139 -203 14
-24 37 -57 52 -72 15 -15 27 -34 27 -41 0 -21 32 -74 71 -119 21 -24 41 -58
45 -75 11 -51 71 -164 119 -223 24 -29 51 -75 58 -102 18 -57 70 -165 102
-207 12 -17 54 -93 93 -170 39 -77 80 -153 91 -170 12 -16 21 -44 21 -62 0
-21 11 -45 36 -75 62 -74 105 -148 131 -227 13 -42 35 -90 49 -108 30 -40 114
-211 114 -233 0 -9 13 -35 29 -57 16 -22 38 -58 49 -79 11 -22 32 -50 46 -63
16 -15 26 -35 26 -53 l0 -28 59 0 59 0 26 31 c14 17 26 37 26 45 0 13 -75 167
-129 264 -30 54 -81 175 -81 192 0 8 -13 33 -29 55 -38 53 -76 128 -90 178 -6
22 -26 65 -45 95 -45 69 -106 190 -106 208 0 18 -36 87 -75 144 -19 26 -37 63
-40 80 -10 45 -35 92 -100 190 -30 45 -55 88 -55 95 0 14 -94 203 -132 264
-39 64 2 93 65 45 18 -13 52 -34 76 -46 24 -12 62 -35 84 -51 22 -16 47 -29
55 -29 8 0 67 -25 129 -55 112 -54 306 -125 341 -125 10 0 56 -13 102 -30 l85
-30 217 0 218 0 107 36 c59 20 146 55 194 79 104 52 222 144 240 188 7 17 32
55 55 83 54 65 84 125 84 163 0 16 4 33 10 36 14 8 14 552 0 560 -5 3 -10 17
-10 30 0 30 -60 211 -94 285 -14 30 -26 63 -26 72 0 10 -25 46 -56 80 -31 35
-67 85 -81 111 -26 52 -90 135 -155 202 -53 55 -127 129 -163 164 -16 16 -41
43 -54 61 -13 17 -42 43 -64 57 -22 14 -61 44 -86 67 -57 51 -121 96 -186 129
-27 14 -72 44 -99 66 -26 23 -55 41 -63 41 -20 0 -143 61 -211 104 -29 19 -91
46 -137 61 -47 15 -107 38 -135 51 -30 14 -68 24 -94 24 -25 0 -48 5 -51 10
-4 6 -67 10 -158 9 l-152 0 -45 -35z m405 -145 c33 -11 71 -29 86 -40 15 -10
64 -31 110 -46 46 -14 98 -35 114 -45 17 -10 52 -30 78 -45 59 -34 196 -124
243 -159 l34 -26 0 -36 c0 -20 -10 -65 -22 -101 -17 -51 -34 -78 -74 -118 -28
-29 -65 -55 -80 -59 -16 -4 -57 -20 -91 -36 l-61 -28 -79 0 c-62 0 -97 6 -163
30 -51 17 -106 30 -135 30 -85 0 -157 32 -349 152 -90 57 -120 88 -151 163
l-27 62 21 70 c25 84 49 116 104 144 23 12 54 33 69 47 45 41 112 60 218 61
73 1 110 -4 155 -20z"/>
</g>
</svg>
