<?xml version="1.0" standalone="no"?>
<!DOCTYPE svg PUBLIC "-//W3C//DTD SVG 20010904//EN"
 "http://www.w3.org/TR/2001/REC-SVG-20010904/DTD/svg10.dtd">
<svg version="1.0" xmlns="http://www.w3.org/2000/svg"
 width="381.000000pt" height="267.000000pt" viewBox="0 0 381.000000 267.000000"
 preserveAspectRatio="xMidYMid meet">
<metadata>
Created by potrace 1.16, written by Peter Selinger 2001-2019
</metadata>
<g transform="translate(0.000000,267.000000) scale(0.100000,-0.100000)"
fill="#000000" stroke="none">
<path d="M1835 2660 c-3 -5 -14 -10 -23 -10 -9 0 -37 -14 -62 -30 -25 -16 -53
-30 -62 -30 -10 0 -35 -16 -57 -35 -40 -36 -62 -92 -91 -225 l-12 -55 15 -51
c8 -28 24 -68 35 -90 22 -41 147 -168 197 -199 16 -10 50 -38 75 -61 35 -33
66 -49 129 -70 46 -15 114 -42 152 -60 92 -45 180 -74 224 -74 20 0 52 -7 72
-15 26 -11 74 -15 180 -15 l144 0 59 20 c33 11 84 31 114 45 64 29 93 31 126
8 34 -23 46 -39 80 -105 20 -37 44 -66 72 -85 28 -18 56 -51 78 -90 19 -33 50
-80 68 -103 18 -24 32 -55 32 -70 0 -15 7 -44 15 -63 8 -20 15 -49 15 -65 0
-18 10 -38 30 -57 19 -18 30 -39 30 -56 0 -15 13 -56 30 -91 l30 -63 0 -170 0
-171 -21 -59 c-33 -93 -95 -170 -198 -244 -33 -23 -55 -31 -86 -31 -24 0 -59
-7 -78 -15 -51 -21 -333 -21 -384 0 -20 8 -66 15 -105 15 l-70 0 -65 30 c-35
16 -70 30 -76 30 -7 0 -32 14 -57 30 -25 16 -58 30 -74 30 -30 0 -191 76 -283
133 -53 33 -70 43 -184 112 -182 109 -209 127 -229 155 -12 17 -40 40 -63 52
-23 11 -64 45 -92 76 -27 30 -66 62 -86 73 -47 24 -204 180 -228 228 -11 20
-46 61 -79 92 -45 42 -62 66 -67 93 -4 20 -21 55 -37 77 -34 48 -118 216 -118
237 0 8 -16 32 -35 53 -19 21 -48 66 -66 100 -33 66 -75 131 -131 201 -19 24
-42 55 -51 70 -18 29 -103 78 -135 78 -35 0 -82 -76 -82 -133 0 -24 8 -41 30
-62 17 -16 30 -35 30 -42 0 -23 41 -95 77 -137 18 -22 38 -56 43 -75 14 -50
60 -127 109 -183 22 -25 41 -51 41 -57 0 -21 42 -96 62 -109 10 -7 28 -32 39
-54 28 -55 15 -66 -46 -39 -26 12 -52 21 -57 21 -5 0 -35 12 -66 26 -55 26
-136 47 -177 46 -11 0 -50 -4 -86 -9 l-66 -9 -43 -37 c-24 -21 -61 -42 -81
-47 -40 -11 -79 -51 -79 -80 0 -9 -18 -42 -40 -74 l-40 -57 0 -164 c0 -98 4
-166 10 -170 6 -3 10 -14 10 -24 0 -10 13 -36 29 -58 16 -23 41 -64 55 -92 17
-33 40 -60 65 -76 22 -13 54 -37 73 -53 65 -57 242 -132 312 -132 20 0 54 -7
77 -17 l41 -16 47 16 c25 10 56 17 69 17 12 0 58 18 101 40 l79 39 46 69 c25
37 46 75 46 83 0 7 14 34 30 59 16 25 30 58 30 73 0 15 7 44 15 64 8 19 15 64
15 98 0 71 6 95 25 95 7 0 73 -57 147 -126 73 -69 151 -135 173 -146 22 -11
60 -37 85 -58 25 -20 65 -47 90 -60 25 -12 64 -38 88 -58 91 -73 204 -142 234
-142 7 0 30 -11 51 -25 44 -31 232 -125 247 -125 6 0 36 -11 65 -25 76 -34
260 -95 290 -95 13 0 27 -4 30 -10 8 -14 642 -14 650 0 3 5 20 10 37 10 23 0
64 21 142 74 116 77 131 91 183 167 45 64 93 222 100 329 3 36 9 69 14 74 16
17 10 66 -12 95 -13 18 -24 53 -29 93 -4 34 -19 97 -34 138 -14 41 -26 85 -26
98 0 26 -32 93 -65 137 -12 17 -48 81 -79 142 -39 78 -66 120 -91 138 -19 15
-35 34 -35 42 0 28 -51 113 -83 137 -19 14 -46 49 -61 76 -15 28 -40 60 -56
72 -34 25 -84 92 -125 167 l-30 56 -61 32 c-34 18 -94 62 -135 99 -41 37 -103
90 -139 119 -36 28 -71 60 -79 69 -8 10 -36 28 -62 41 -25 13 -82 48 -125 78
-104 71 -120 79 -249 121 -61 20 -118 41 -127 46 -23 13 -255 13 -263 0z m280
-171 c33 -11 72 -30 89 -42 16 -11 51 -24 78 -28 29 -5 63 -19 81 -33 18 -14
65 -51 104 -83 40 -32 93 -70 118 -85 31 -19 45 -34 45 -48 0 -26 52 -80 77
-80 35 0 61 -29 78 -86 l16 -55 -13 -36 c-16 -43 -51 -73 -88 -73 -15 0 -44
-7 -63 -15 -24 -10 -69 -15 -128 -15 l-92 0 -151 50 c-168 56 -184 63 -240
102 -21 16 -47 28 -56 28 -9 0 -25 9 -36 21 -10 11 -49 43 -86 70 -85 63 -128
140 -128 228 0 94 34 128 180 180 73 26 142 26 215 0z m-1587 -1355 c31 -15
69 -30 83 -34 43 -13 165 -98 194 -135 26 -35 55 -95 55 -115 0 -6 -11 -22
-25 -35 l-24 -25 -146 0 -146 0 -42 19 c-23 11 -64 38 -91 60 -34 29 -57 41
-80 41 -50 0 -60 -12 -52 -60 10 -61 19 -73 85 -118 142 -97 264 -142 385
-142 l85 0 11 -21 c22 -41 8 -61 -80 -116 -92 -56 -112 -61 -167 -38 -19 8
-47 15 -62 15 -49 1 -199 91 -228 138 -10 15 -32 44 -49 65 -43 51 -74 148
-74 228 0 107 46 183 164 270 l39 29 54 0 c37 0 72 -8 111 -26z"/>
</g>
</svg>
