<?xml version="1.0" standalone="no"?>
<!DOCTYPE svg PUBLIC "-//W3C//DTD SVG 20010904//EN"
 "http://www.w3.org/TR/2001/REC-SVG-20010904/DTD/svg10.dtd">
<svg version="1.0" xmlns="http://www.w3.org/2000/svg"
 width="366.000000pt" height="525.000000pt" viewBox="0 0 366.000000 525.000000"
 preserveAspectRatio="xMidYMid meet">
<metadata>
Created by potrace 1.16, written by Peter Selinger 2001-2019
</metadata>
<g transform="translate(0.000000,525.000000) scale(0.100000,-0.100000)"
fill="#000000" stroke="none">
<path d="M305 5240 c-3 -5 -20 -10 -36 -10 -69 0 -180 -85 -225 -172 -13 -26
-28 -49 -34 -53 -12 -8 -13 -148 -1 -173 5 -9 24 -50 42 -91 44 -96 62 -118
108 -131 20 -5 55 -25 77 -43 21 -19 53 -41 71 -50 55 -29 219 -75 303 -86 30
-4 71 -12 90 -18 96 -31 136 -37 266 -40 l141 -4 145 71 c80 38 150 70 156 70
16 0 117 -66 143 -93 11 -12 30 -40 41 -62 11 -22 35 -56 53 -75 49 -52 102
-136 110 -171 4 -18 20 -59 36 -93 23 -48 29 -75 29 -125 0 -95 -57 -251 -92
-251 -17 0 -81 32 -122 62 -21 15 -52 28 -68 28 -16 0 -45 7 -65 15 -25 11
-72 15 -159 15 l-124 0 -70 -69 -70 -68 -16 -52 -15 -52 18 -32 c21 -37 142
-106 185 -107 15 0 45 -7 67 -16 29 -12 65 -14 147 -11 104 4 140 10 244 43
25 8 61 14 80 14 l35 0 78 -80 c122 -125 152 -213 98 -288 -11 -16 -53 -45
-93 -66 -40 -21 -83 -49 -95 -62 -41 -45 -23 -124 27 -124 10 0 36 -21 58 -46
22 -26 61 -58 88 -73 26 -14 61 -45 78 -69 17 -24 51 -54 76 -68 25 -14 65
-48 89 -75 24 -27 61 -59 83 -70 40 -20 90 -66 278 -254 25 -25 58 -58 74 -74
15 -16 47 -48 70 -72 24 -24 55 -52 69 -62 15 -10 37 -37 48 -60 12 -23 37
-59 55 -79 18 -21 47 -64 63 -96 16 -32 37 -65 47 -73 25 -21 88 -108 113
-157 12 -24 44 -76 71 -116 29 -43 62 -109 78 -159 16 -46 42 -105 58 -131 63
-102 74 -129 74 -187 0 -31 7 -74 16 -95 25 -59 23 -305 -2 -386 l-19 -61 -81
-81 -81 -81 -64 -19 c-35 -10 -88 -35 -117 -54 l-53 -35 3 -26 3 -26 149 -3
149 -3 13 20 c8 10 33 29 56 41 62 32 162 124 208 191 45 67 80 161 80 218 0
22 4 43 10 46 13 8 14 282 1 289 -5 3 -11 23 -14 43 -13 94 -92 340 -123 380
-31 41 -114 211 -114 235 0 10 -22 42 -48 71 -26 29 -73 92 -105 139 -31 48
-70 96 -87 108 -17 12 -30 30 -30 43 0 12 -25 45 -65 83 -35 35 -73 81 -84
102 -11 22 -36 52 -56 68 -45 36 -89 80 -134 133 -19 23 -47 45 -64 49 -17 4
-33 14 -37 22 -29 62 -41 77 -87 104 -28 17 -70 52 -93 78 -23 26 -63 59 -89
73 -27 15 -65 46 -85 70 -20 24 -61 61 -91 81 -53 35 -155 138 -155 157 0 5
20 27 45 50 25 22 57 61 70 88 l25 48 0 93 0 92 -44 65 c-38 56 -108 129 -228
235 -35 31 -35 38 1 78 16 18 50 75 75 127 l47 93 -4 82 c-2 44 -9 99 -15 121
-7 22 -14 51 -16 65 -3 14 -21 50 -40 80 -19 30 -44 72 -56 93 -23 41 -84 107
-350 380 -96 98 -193 190 -214 204 -22 14 -60 45 -86 69 -25 23 -93 66 -150
95 -58 29 -123 65 -144 81 -21 15 -50 28 -64 28 -14 0 -106 27 -204 60 l-178
60 -69 0 c-39 0 -73 5 -76 10 -3 6 -28 10 -55 10 -27 0 -52 -4 -55 -10z m202
-165 c19 -8 47 -15 60 -15 14 0 54 -13 90 -30 35 -16 74 -30 85 -30 29 0 146
-40 183 -62 17 -10 52 -30 78 -45 98 -56 138 -86 173 -129 l36 -44 -7 -27 c-3
-15 -32 -52 -64 -83 l-57 -55 -71 -22 c-83 -27 -149 -29 -200 -8 -19 8 -45 15
-57 15 -11 0 -113 31 -226 69 l-205 68 -49 44 c-60 55 -116 136 -116 169 1 64
62 146 134 180 51 24 161 26 213 5z m933 -1505 c66 -34 49 -50 -51 -50 -65 0
-99 12 -99 35 0 38 88 46 150 15z"/>
</g>
</svg>
