<?xml version="1.0" standalone="no"?>
<!DOCTYPE svg PUBLIC "-//W3C//DTD SVG 20010904//EN"
 "http://www.w3.org/TR/2001/REC-SVG-20010904/DTD/svg10.dtd">
<svg version="1.0" xmlns="http://www.w3.org/2000/svg"
 width="633.000000pt" height="507.000000pt" viewBox="0 0 633.000000 507.000000"
 preserveAspectRatio="xMidYMid meet">
<metadata>
Created by potrace 1.16, written by Peter Selinger 2001-2019
</metadata>
<g transform="translate(0.000000,507.000000) scale(0.100000,-0.100000)"
fill="#000000" stroke="none">
<path d="M4385 5060 c-3 -5 -18 -10 -33 -10 -15 0 -56 -11 -92 -23 l-64 -23
-39 -54 c-71 -101 -117 -216 -117 -290 0 -80 90 -216 182 -277 35 -24 77 -56
93 -73 19 -20 39 -30 57 -30 16 0 45 -7 65 -15 19 -8 52 -15 72 -15 20 0 56
-6 81 -14 143 -45 192 -52 240 -32 22 9 63 16 90 16 30 0 92 14 157 36 l108
35 66 69 c37 38 78 72 92 75 40 10 130 -21 184 -64 26 -21 77 -67 113 -102 36
-36 84 -78 108 -94 24 -16 55 -46 70 -68 15 -21 51 -66 79 -99 29 -33 57 -77
63 -97 5 -20 26 -63 46 -96 53 -90 74 -157 74 -245 0 -87 -24 -167 -62 -208
-14 -15 -35 -45 -46 -67 -27 -54 -48 -74 -130 -129 -76 -50 -196 -96 -253 -96
-20 0 -53 -7 -72 -15 -20 -8 -54 -15 -75 -15 -22 0 -56 -7 -75 -15 -23 -9 -68
-15 -120 -15 -55 0 -98 -6 -123 -16 -40 -17 -67 -16 -234 5 -41 5 -137 10
-213 10 -99 1 -148 5 -174 16 -22 9 -67 15 -120 15 -52 0 -97 6 -120 15 -19 8
-60 15 -90 15 -29 0 -70 7 -90 15 -24 10 -70 15 -147 15 l-112 0 -84 30 c-47
16 -101 30 -120 30 -20 0 -74 13 -120 30 -62 21 -104 30 -153 30 -37 0 -84 7
-104 15 -19 8 -60 15 -90 15 -29 0 -70 7 -90 15 -19 8 -45 15 -56 15 -11 0
-82 20 -156 44 -190 61 -214 67 -316 75 -69 6 -102 14 -142 34 -29 15 -65 27
-81 27 -18 0 -38 10 -53 26 -25 27 -89 64 -111 64 -7 0 -29 11 -49 24 -46 31
-238 96 -284 96 -20 0 -52 7 -72 15 -22 9 -67 15 -120 15 -52 0 -97 6 -120 15
-50 21 -286 21 -336 0 -20 -8 -66 -15 -102 -15 -115 0 -186 -33 -336 -159 -42
-36 -79 -133 -79 -207 l0 -46 29 -29 c55 -55 141 -32 141 37 0 61 112 181 205
220 19 8 65 14 103 14 39 0 85 7 105 15 24 10 70 15 132 15 62 0 108 -5 132
-15 19 -8 60 -15 90 -15 29 0 70 -7 90 -15 19 -8 55 -15 79 -15 l43 0 21 -30
c12 -17 24 -50 27 -73 9 -68 40 -116 137 -215 72 -73 100 -94 133 -103 24 -6
63 -29 87 -50 24 -22 50 -39 58 -39 8 0 51 -18 97 -40 141 -68 280 -110 365
-110 l75 0 20 27 c31 38 35 65 20 125 -10 38 -29 69 -66 113 -29 33 -53 65
-53 72 0 25 51 27 104 3 100 -44 272 -99 309 -100 21 0 54 -7 74 -15 23 -10
69 -15 132 -15 l97 0 84 -30 c51 -18 105 -30 135 -30 30 0 85 -12 135 -30 53
-18 105 -30 138 -30 29 0 69 -7 89 -15 23 -10 69 -15 135 -15 65 0 111 -5 135
-15 23 -10 69 -15 135 -15 65 0 111 -5 135 -15 l35 -15 343 0 343 0 35 15 c23
9 68 15 120 15 53 0 98 6 120 15 20 8 66 15 102 15 105 0 193 34 329 127 43
30 96 63 117 74 23 11 50 37 65 62 15 23 39 56 55 72 44 48 89 147 89 199 0
25 5 48 10 51 6 3 10 42 10 85 0 43 -4 82 -10 85 -5 3 -10 24 -10 46 0 75 -73
251 -124 298 -14 14 -26 31 -26 38 0 30 -42 93 -79 120 -22 15 -53 48 -69 73
-17 25 -50 58 -74 73 -23 15 -59 51 -78 80 -28 41 -45 55 -78 66 -27 8 -52 26
-69 48 -25 33 -88 73 -115 73 -6 0 -25 12 -40 27 -27 25 -46 38 -168 108 -29
17 -74 44 -100 62 -58 39 -235 128 -272 137 -15 3 -35 18 -45 32 -40 58 -86
104 -105 104 -10 0 -29 -6 -41 -14 -24 -15 -116 -8 -155 13 -11 6 -61 11 -111
11 -49 0 -93 5 -96 10 -3 6 -21 10 -40 10 -19 0 -37 -4 -40 -10z m172 -195
c20 -8 66 -15 105 -15 l69 0 67 -39 c37 -22 92 -56 123 -75 30 -20 61 -36 68
-36 23 0 68 -32 85 -61 l17 -29 -18 -55 -18 -56 -55 -42 c-60 -45 -193 -97
-250 -97 -19 0 -64 14 -98 30 -35 17 -76 30 -91 30 -41 0 -159 62 -224 118
-105 89 -110 108 -63 207 39 79 65 105 107 105 15 0 42 7 60 15 44 18 71 19
116 0z"/>
<path d="M43 3082 l-43 -16 0 -68 0 -68 23 0 c13 0 61 -13 107 -29 l85 -30 40
-46 c22 -25 47 -45 56 -45 21 0 192 -84 232 -114 18 -13 79 -47 137 -76 58
-29 126 -70 152 -91 26 -22 68 -46 93 -54 25 -7 86 -40 134 -73 49 -33 111
-72 139 -86 28 -14 80 -53 116 -87 36 -33 83 -73 106 -88 23 -15 85 -70 138
-122 53 -52 118 -107 144 -122 29 -17 57 -45 76 -74 16 -27 87 -106 157 -178
70 -71 138 -146 151 -165 13 -19 44 -60 69 -90 25 -30 50 -71 55 -90 5 -19 25
-60 44 -90 53 -83 106 -194 106 -223 0 -13 7 -42 16 -63 23 -56 23 -322 0
-378 -9 -21 -16 -52 -16 -69 0 -23 -11 -40 -43 -71 -24 -23 -54 -58 -66 -79
-13 -21 -43 -49 -69 -64 -26 -15 -68 -41 -94 -59 -27 -18 -63 -36 -80 -39 -18
-4 -39 -12 -46 -18 -17 -14 -52 -82 -52 -102 l0 -15 70 0 c39 0 78 4 88 10 9
5 45 19 80 30 73 24 138 70 269 195 86 82 143 160 143 197 0 7 14 33 30 58 16
25 30 58 30 73 0 15 7 44 16 65 l16 37 -7 113 c-5 89 -12 124 -31 165 -13 29
-24 62 -24 74 0 13 -16 70 -36 129 -33 100 -53 136 -141 254 -18 23 -33 51
-33 61 0 10 -24 46 -54 79 -30 34 -60 79 -68 103 -9 30 -24 49 -56 70 -24 16
-53 45 -66 66 -13 20 -44 54 -70 76 -58 49 -83 74 -203 199 -53 55 -119 115
-147 134 -28 19 -67 49 -86 67 -19 17 -51 41 -70 53 -19 11 -45 34 -58 51 -12
17 -44 42 -71 55 -56 29 -172 107 -219 147 -18 16 -40 29 -50 29 -23 0 -131
52 -179 86 -22 16 -87 51 -144 78 -57 26 -120 57 -139 67 -136 74 -479 242
-529 259 -69 23 -71 23 -128 2z"/>
</g>
</svg>
