<?xml version="1.0" standalone="no"?>
<!DOCTYPE svg PUBLIC "-//W3C//DTD SVG 20010904//EN"
 "http://www.w3.org/TR/2001/REC-SVG-20010904/DTD/svg10.dtd">
<svg version="1.0" xmlns="http://www.w3.org/2000/svg"
 width="435.000000pt" height="543.000000pt" viewBox="0 0 435.000000 543.000000"
 preserveAspectRatio="xMidYMid meet">
<metadata>
Created by potrace 1.16, written by Peter Selinger 2001-2019
</metadata>
<g transform="translate(0.000000,543.000000) scale(0.100000,-0.100000)"
fill="#000000" stroke="none">
<path d="M1235 5422 c-6 -5 -40 -18 -78 -30 -73 -24 -175 -87 -207 -130 -11
-15 -43 -56 -70 -91 l-50 -64 0 -94 0 -94 21 -41 c27 -53 93 -149 116 -170 34
-31 138 -98 151 -98 8 0 43 -13 79 -30 35 -16 75 -30 89 -30 14 0 41 -7 61
-15 28 -12 83 -15 258 -15 175 0 230 3 258 15 20 8 49 15 65 15 16 0 47 13 69
29 22 16 60 39 84 52 24 12 59 34 76 50 45 39 140 99 158 99 8 0 22 -12 32
-26 15 -23 92 -101 224 -229 105 -102 183 -220 259 -390 29 -65 61 -160 71
-210 10 -52 27 -119 45 -175 28 -88 7 -202 -52 -289 -13 -19 -24 -48 -24 -63
0 -21 -19 -46 -82 -109 -88 -87 -108 -99 -167 -99 -21 0 -55 -7 -74 -15 -52
-22 -422 -22 -474 0 -19 8 -53 15 -75 15 -21 0 -55 7 -75 15 -19 8 -61 15 -92
15 l-56 0 -74 38 c-41 20 -79 45 -85 54 l-11 18 37 30 c27 23 41 45 53 88 l17
57 -12 50 c-16 67 -33 91 -80 115 -22 11 -56 34 -76 52 -52 46 -209 97 -299
97 -72 1 -170 -27 -237 -66 -48 -28 -87 -105 -88 -173 0 -30 -4 -61 -9 -69
l-9 -14 -32 12 c-18 6 -49 11 -69 11 -21 0 -75 13 -121 30 -47 16 -96 30 -108
30 -13 0 -53 14 -89 30 -35 17 -75 30 -89 30 -14 0 -41 7 -61 15 -19 8 -48 15
-63 15 -15 0 -44 11 -64 25 -43 29 -65 31 -109 9 -65 -33 -97 -64 -96 -92 1
-54 40 -102 109 -139 36 -19 79 -47 95 -62 17 -16 41 -34 55 -41 70 -35 194
-127 218 -163 15 -21 51 -67 81 -101 52 -59 90 -125 91 -156 0 -8 14 -35 30
-60 16 -25 30 -56 30 -70 0 -14 14 -63 30 -110 21 -59 30 -103 30 -147 0 -79
56 -254 105 -324 18 -27 37 -64 40 -81 11 -50 73 -167 115 -218 21 -25 48 -65
60 -90 13 -25 40 -65 60 -90 21 -25 47 -63 58 -85 12 -22 46 -65 76 -95 108
-107 119 -118 163 -163 92 -92 289 -266 370 -325 32 -23 89 -66 126 -95 113
-86 130 -97 156 -104 14 -3 40 -18 56 -33 17 -15 45 -35 64 -45 19 -9 51 -30
72 -45 22 -15 54 -31 73 -34 18 -4 53 -24 77 -45 44 -38 143 -93 189 -104 14
-4 47 -24 74 -47 26 -22 55 -40 63 -40 8 0 44 -13 80 -30 35 -16 77 -30 91
-30 15 0 44 -12 65 -26 21 -14 58 -31 83 -39 71 -21 94 -40 94 -78 0 -38 38
-115 61 -122 23 -8 47 4 54 26 4 10 10 19 15 19 4 0 31 15 59 34 28 19 67 41
87 48 l36 13 19 -24 19 -23 0 -101 c0 -55 5 -116 12 -134 l12 -33 137 0 137 0
6 25 c8 30 -16 81 -49 107 -45 35 -55 76 -55 227 0 97 4 152 14 178 8 21 17
55 20 76 2 20 14 51 26 67 l21 30 71 0 c78 0 115 -16 142 -60 l16 -28 0 -234
0 -234 -15 -21 c-8 -12 -31 -27 -50 -33 -36 -12 -42 -28 -29 -77 l6 -23 199 0
199 0 0 49 0 48 -40 27 -40 26 0 255 0 255 40 26 40 27 0 38 0 39 -28 0 c-18
0 -38 11 -57 30 -16 16 -39 30 -52 30 -12 0 -43 5 -68 12 l-45 12 -28 -27
c-36 -34 -59 -34 -139 3 -76 35 -140 39 -226 13 -45 -14 -73 -33 -132 -88
l-75 -70 0 -50 c0 -28 -5 -56 -12 -63 -7 -7 -39 -12 -73 -12 -47 0 -66 -4 -78
-18 -25 -27 -21 -59 11 -89 l27 -25 -45 7 c-92 14 -243 74 -304 120 -17 13
-67 35 -111 50 -106 34 -131 46 -189 95 -26 22 -55 40 -63 40 -28 0 -148 61
-193 99 -25 20 -65 49 -90 63 -25 14 -54 36 -65 48 -11 12 -33 29 -50 37 -49
25 -192 123 -237 163 -24 20 -62 47 -85 59 -23 11 -50 33 -60 48 -34 51 -100
113 -120 113 -24 0 -38 15 -46 51 -4 15 -25 42 -47 60 -76 63 -194 189 -234
250 -17 24 -40 55 -52 69 -44 50 -133 192 -140 223 -3 18 -21 49 -40 69 -18
20 -40 51 -49 68 -23 45 -65 171 -65 198 0 24 -30 89 -60 132 -30 42 -60 141
-60 196 0 28 -7 68 -15 87 -8 20 -15 48 -15 62 0 14 -21 67 -47 118 -26 50
-56 119 -68 151 l-20 60 -45 31 c-46 32 -76 77 -65 95 9 15 184 12 235 -4 86
-27 136 -38 210 -46 42 -4 93 -17 117 -29 23 -11 77 -32 120 -46 43 -14 102
-37 131 -50 29 -14 57 -25 63 -25 6 0 40 -13 76 -30 35 -16 81 -30 101 -30 20
0 57 -6 82 -14 119 -38 139 -40 394 -43 l260 -4 38 16 c24 9 71 15 126 15 l89
0 24 26 c13 14 39 35 59 46 19 12 47 33 63 47 15 14 42 30 59 36 21 6 45 29
70 65 44 63 88 143 88 162 0 7 14 33 30 58 16 25 30 57 30 72 0 15 7 46 16 68
l17 41 -11 107 c-15 140 -25 190 -47 232 -10 19 -31 74 -46 122 -31 95 -78
195 -114 243 -12 17 -41 67 -63 112 -32 63 -51 88 -84 110 -27 18 -54 48 -71
80 -15 29 -45 65 -67 80 -21 15 -51 48 -67 72 -15 24 -46 55 -68 69 -22 14
-67 51 -100 82 -33 32 -76 65 -95 75 -19 10 -53 37 -75 61 -24 25 -71 58 -115
80 -41 20 -96 54 -122 75 -30 25 -74 47 -125 64 -43 14 -97 34 -119 45 -62 29
-160 60 -188 60 -14 0 -28 5 -31 10 -8 12 -337 14 -350 2z m292 -167 c19 -8
47 -15 61 -15 37 0 366 -165 412 -206 20 -19 45 -34 53 -34 18 0 37 -29 37
-55 0 -24 -98 -181 -123 -197 -12 -8 -52 -24 -88 -36 l-65 -22 -153 0 c-112 0
-161 4 -188 15 -20 9 -66 15 -107 15 l-73 0 -24 26 c-13 14 -46 37 -72 50 -26
14 -66 43 -88 65 -49 49 -103 161 -95 195 6 24 128 154 145 154 5 0 38 13 73
30 l63 29 98 1 c65 0 110 -5 134 -15z m-141 -1663 c54 -40 99 -99 85 -115 -5
-7 -32 -21 -59 -30 l-50 -18 -47 21 c-83 38 -158 133 -128 163 3 4 41 7 83 7
l77 0 39 -28z m2101 -3118 c9 -23 -13 -40 -32 -24 -12 10 -13 16 -4 26 15 18
28 18 36 -2z"/>
</g>
</svg>
