<?xml version="1.0" standalone="no"?>
<!DOCTYPE svg PUBLIC "-//W3C//DTD SVG 20010904//EN"
 "http://www.w3.org/TR/2001/REC-SVG-20010904/DTD/svg10.dtd">
<svg version="1.0" xmlns="http://www.w3.org/2000/svg"
 width="579.000000pt" height="246.000000pt" viewBox="0 0 579.000000 246.000000"
 preserveAspectRatio="xMidYMid meet">
<metadata>
Created by potrace 1.16, written by Peter Selinger 2001-2019
</metadata>
<g transform="translate(0.000000,246.000000) scale(0.100000,-0.100000)"
fill="#000000" stroke="none">
<path d="M3605 2450 c-3 -5 -33 -10 -65 -10 l-59 0 -34 -30 c-19 -16 -42 -30
-51 -30 -26 0 -115 -89 -142 -142 l-24 -47 0 -124 0 -123 30 -29 c17 -16 30
-35 30 -42 0 -35 52 -114 92 -139 23 -15 62 -46 87 -69 88 -82 295 -168 493
-205 26 -5 56 -13 67 -19 32 -18 311 -14 354 4 20 8 56 15 80 15 33 0 54 8 84
29 22 16 60 39 84 52 24 12 73 49 108 81 l64 60 29 -6 c46 -9 116 -68 291
-244 135 -136 166 -174 173 -207 4 -25 18 -45 46 -67 30 -23 53 -58 89 -131
27 -55 49 -107 49 -116 0 -9 13 -36 30 -60 l29 -45 -5 -40 -6 -41 21 -19 c17
-15 21 -31 21 -76 0 -32 7 -74 15 -93 15 -36 12 -67 -7 -67 -5 0 -44 23 -86
52 -42 28 -121 73 -174 100 l-98 48 -90 0 c-108 0 -136 -12 -223 -93 l-59 -55
5 -58 c2 -33 11 -78 18 -101 7 -23 10 -45 6 -49 -4 -4 -62 20 -129 53 -68 33
-135 63 -149 66 -14 4 -54 30 -87 59 -34 29 -89 73 -123 98 -33 25 -84 64
-114 87 -29 22 -67 49 -84 58 -18 9 -60 45 -95 81 -34 35 -70 64 -80 64 -10 0
-37 19 -60 43 -23 23 -62 54 -86 70 -25 15 -73 48 -107 75 -79 61 -146 110
-197 146 -23 16 -62 48 -88 72 -26 24 -55 44 -65 44 -10 0 -40 25 -66 55 -35
40 -59 57 -89 65 -22 7 -50 17 -62 23 -32 18 -130 93 -145 111 -7 9 -20 16
-29 16 -21 0 -199 86 -236 115 -17 13 -66 35 -108 49 -43 14 -95 37 -115 51
-21 14 -44 25 -53 25 -8 0 -35 14 -60 30 -25 16 -56 30 -69 30 -14 0 -85 20
-158 45 -73 25 -142 45 -154 45 -11 0 -50 14 -86 30 -37 17 -81 30 -104 30
-22 0 -56 7 -76 15 -19 8 -53 15 -75 15 -21 0 -55 7 -75 15 -19 8 -60 15 -90
15 -29 0 -70 7 -90 15 -26 11 -74 15 -180 15 -105 0 -153 4 -180 15 -27 12
-79 15 -225 15 -145 0 -197 3 -225 15 -45 19 -81 19 -126 0 -22 -9 -68 -15
-117 -15 -49 0 -95 6 -117 15 -24 10 -70 15 -141 15 l-106 0 -28 -27 c-70 -67
-11 -127 184 -190 45 -14 91 -31 103 -38 72 -39 139 -91 160 -124 13 -22 38
-49 54 -61 21 -14 31 -30 31 -47 0 -14 5 -43 12 -65 l11 -38 -29 -31 c-39 -41
-103 -69 -159 -69 -35 0 -52 -6 -70 -25 -31 -30 -31 -34 -2 -76 l23 -34 83 -3
84 -3 31 29 c17 16 42 32 56 35 14 4 63 44 108 90 l82 85 0 51 c0 40 -9 69
-39 129 -22 43 -47 84 -56 92 -8 7 -30 30 -46 52 l-31 38 12 15 c15 18 96 20
137 3 15 -6 62 -14 104 -18 96 -8 124 -27 150 -100 10 -30 19 -65 19 -77 0
-13 16 -55 35 -93 27 -53 45 -76 78 -96 23 -15 62 -49 86 -76 24 -27 64 -59
90 -73 26 -13 87 -51 136 -84 50 -34 96 -61 103 -61 8 0 43 -13 79 -30 35 -16
70 -30 76 -30 7 0 54 -20 105 -45 l94 -45 54 0 c30 0 71 -7 91 -15 57 -24 246
-20 327 6 l65 22 66 67 65 68 0 46 c0 70 -65 246 -90 246 -21 0 -9 30 15 36
18 5 37 -1 65 -20 22 -15 76 -38 119 -52 48 -15 94 -38 117 -58 45 -38 106
-71 150 -80 17 -4 55 -27 84 -52 57 -49 180 -133 232 -160 78 -40 171 -109
194 -145 16 -25 42 -48 77 -65 28 -15 75 -44 102 -65 137 -106 162 -126 190
-143 16 -11 50 -38 75 -61 25 -22 58 -49 75 -60 16 -10 60 -47 97 -82 39 -37
76 -63 89 -63 12 0 40 -20 67 -48 26 -27 67 -61 92 -77 25 -16 65 -45 89 -64
75 -59 155 -111 172 -111 10 0 41 -18 70 -40 30 -22 59 -40 65 -40 6 0 17 -6
23 -14 6 -8 50 -26 96 -41 47 -15 107 -38 135 -51 27 -13 56 -24 64 -24 8 0
18 -4 21 -10 4 -6 78 -10 188 -10 l182 0 12 19 c6 10 35 30 65 45 74 39 200
165 228 230 12 28 26 59 31 68 12 23 12 345 0 352 -5 3 -11 23 -14 43 -3 21
-10 56 -16 78 -6 22 -13 51 -15 65 -3 14 -21 50 -40 80 -19 30 -57 98 -85 150
-28 52 -74 122 -101 154 -28 32 -60 76 -70 97 -11 21 -42 57 -70 81 -27 24
-50 50 -50 58 0 20 -89 107 -114 112 -10 1 -23 11 -27 21 -5 9 -13 25 -18 35
-4 9 -45 42 -91 74 -45 31 -103 77 -129 102 -54 53 -159 126 -182 126 -8 0
-28 13 -43 29 -15 16 -46 36 -69 46 -55 22 -55 22 -123 78 -33 26 -75 52 -94
57 -42 11 -134 58 -207 104 -51 32 -167 76 -201 76 -19 0 -187 55 -214 70 -23
13 -195 13 -203 0z m112 -165 c19 -8 59 -15 87 -15 52 0 213 -49 311 -94 28
-13 61 -26 75 -29 14 -4 47 -24 74 -47 26 -22 56 -40 65 -40 9 0 66 -33 126
-72 l110 -73 23 -47 24 -47 -11 -34 c-7 -19 -31 -60 -55 -92 l-42 -57 -54 -19
-54 -19 -168 0 c-127 0 -177 4 -205 15 -19 8 -54 15 -76 15 -31 0 -81 19 -202
79 -168 83 -191 99 -230 161 -13 21 -37 47 -53 59 -43 30 -62 78 -62 155 l0
66 60 60 60 60 39 0 c21 0 54 7 72 15 43 18 42 18 86 0z m-2130 -390 c19 -8
65 -15 102 -15 36 0 86 -7 111 -15 25 -8 61 -17 81 -20 23 -3 54 -20 82 -45
25 -22 50 -40 57 -40 27 0 102 -43 151 -88 30 -26 66 -55 81 -65 21 -13 108
-134 162 -224 11 -19 -10 -49 -48 -67 -47 -22 -270 -23 -323 -1 -19 8 -61 15
-92 15 -44 0 -65 6 -94 25 -48 33 -224 120 -260 129 -15 3 -57 35 -95 69 -37
34 -86 75 -109 91 -93 63 -148 181 -113 247 l11 19 130 0 c93 0 140 -4 166
-15z m3635 -1413 c58 -28 165 -121 184 -160 32 -67 -21 -117 -99 -93 -23 7
-60 16 -82 20 -23 4 -46 10 -52 14 -28 17 -123 180 -112 192 7 6 103 44 114
44 6 0 27 -8 47 -17z"/>
</g>
</svg>
