<?xml version="1.0" standalone="no"?>
<!DOCTYPE svg PUBLIC "-//W3C//DTD SVG 20010904//EN"
 "http://www.w3.org/TR/2001/REC-SVG-20010904/DTD/svg10.dtd">
<svg version="1.0" xmlns="http://www.w3.org/2000/svg"
 width="531.000000pt" height="387.000000pt" viewBox="0 0 531.000000 387.000000"
 preserveAspectRatio="xMidYMid meet">
<metadata>
Created by potrace 1.16, written by Peter Selinger 2001-2019
</metadata>
<g transform="translate(0.000000,387.000000) scale(0.100000,-0.100000)"
fill="#000000" stroke="none">
<path d="M4415 3860 c-3 -5 -33 -10 -66 -10 -81 0 -136 -30 -226 -122 -82 -84
-140 -189 -197 -361 l-36 -107 0 -95 c0 -108 13 -158 80 -297 l42 -86 -12 -21
-11 -21 -85 0 c-53 0 -98 6 -121 15 -20 8 -66 15 -105 15 -38 0 -84 7 -105 15
-19 8 -45 15 -57 15 -60 0 -323 119 -384 175 -21 18 -55 42 -77 54 -22 12 -65
38 -95 57 -30 19 -64 36 -75 38 -11 3 -45 10 -75 16 l-55 12 -57 -17 c-69 -20
-98 -51 -98 -106 0 -30 8 -48 35 -78 l35 -39 83 -26 c57 -18 98 -39 131 -66
27 -22 55 -40 63 -40 8 0 44 -14 80 -30 35 -17 70 -30 77 -30 7 0 31 -13 52
-30 21 -16 77 -55 124 -87 113 -76 243 -191 319 -283 21 -25 46 -44 64 -47 21
-4 38 -20 63 -58 21 -33 50 -63 79 -79 32 -19 55 -43 76 -82 19 -32 47 -65 72
-82 26 -17 53 -48 70 -79 15 -29 41 -62 57 -73 16 -12 59 -66 95 -121 36 -55
81 -116 99 -137 19 -21 42 -65 54 -105 14 -43 38 -87 66 -121 33 -40 52 -78
75 -150 17 -53 38 -110 46 -127 23 -43 65 -170 65 -195 0 -12 7 -38 15 -57 11
-28 15 -78 15 -209 l0 -173 -18 -35 c-29 -53 -44 -58 -89 -27 -21 15 -54 39
-73 52 -59 43 -161 128 -209 176 -25 26 -64 56 -86 67 -22 11 -68 45 -103 76
-34 31 -70 56 -80 56 -9 0 -42 25 -72 56 -30 31 -71 64 -90 74 -66 34 -145 91
-176 126 -38 45 -116 73 -200 74 -80 0 -94 -14 -94 -100 l0 -63 30 -48 c39
-59 34 -82 -30 -151 -67 -71 -119 -88 -277 -88 -87 0 -134 4 -160 15 -22 9
-67 15 -117 15 -55 0 -100 6 -136 19 -69 24 -81 49 -57 113 10 26 17 73 17
116 l0 72 -51 102 -51 103 -77 76 c-42 41 -96 88 -121 103 -25 15 -71 48 -102
74 -61 51 -263 157 -366 191 -34 12 -84 21 -111 21 -28 0 -69 7 -91 16 l-41
17 -65 -22 c-93 -30 -136 -55 -172 -96 l-32 -36 0 -110 0 -110 21 -42 c12 -23
41 -63 64 -88 23 -25 54 -63 67 -85 14 -22 45 -52 69 -67 24 -16 57 -46 72
-68 27 -37 90 -79 120 -79 7 0 24 -12 38 -26 13 -14 41 -35 63 -46 21 -11 57
-33 79 -49 22 -16 47 -29 56 -29 17 0 63 -24 151 -77 61 -36 196 -80 322 -103
26 -5 56 -13 67 -19 11 -6 38 -11 61 -11 25 0 67 -12 107 -30 l64 -30 85 0
c53 0 98 -6 121 -15 46 -19 140 -19 186 0 20 8 61 15 92 15 58 0 110 20 170
65 17 12 66 40 109 61 43 21 86 49 95 62 9 13 25 35 37 49 l21 26 27 -7 c14
-3 43 -22 64 -40 20 -18 53 -41 72 -51 19 -10 55 -34 79 -54 25 -19 61 -46 80
-59 46 -31 119 -94 179 -153 26 -26 66 -56 89 -68 45 -22 73 -55 73 -83 0 -10
20 -32 44 -50 25 -18 57 -52 72 -76 36 -56 60 -72 108 -72 l39 0 97 95 97 96
37 110 36 110 0 158 c0 118 -4 168 -15 194 -8 20 -15 52 -15 71 0 47 -95 330
-126 375 -13 20 -24 41 -24 49 0 18 -66 147 -105 204 -18 26 -37 63 -40 80
-12 52 -42 105 -74 127 -16 12 -51 54 -77 94 -26 39 -73 99 -104 132 -31 33
-68 79 -83 101 -14 23 -40 52 -57 65 -18 13 -45 38 -61 54 -37 39 -115 117
-154 154 -16 16 -40 43 -53 60 -13 17 -47 47 -77 66 -57 38 -110 99 -100 115
4 6 93 10 231 10 177 0 232 -3 261 -15 43 -18 146 -20 176 -3 12 7 76 15 142
19 66 4 140 12 165 19 116 32 171 51 251 89 47 23 92 41 98 41 29 0 78 37 165
123 l92 92 19 60 c10 33 22 64 27 69 11 14 10 134 -2 141 -5 3 -10 17 -10 31
0 29 -34 132 -61 185 -10 21 -41 57 -69 81 -27 24 -50 51 -50 60 0 20 -82 84
-150 118 -25 13 -58 33 -75 45 -48 36 -172 95 -200 95 -14 0 -42 7 -62 15 -19
8 -48 15 -64 15 -15 0 -31 5 -34 10 -3 6 -28 10 -55 10 -27 0 -52 -4 -55 -10z
m142 -195 c19 -8 45 -15 57 -15 40 0 123 -36 162 -69 21 -19 61 -49 90 -67 35
-23 66 -55 97 -101 25 -37 57 -79 71 -92 l26 -24 0 -117 0 -117 -31 -61 c-33
-68 -63 -94 -124 -111 -22 -6 -67 -27 -100 -47 -74 -44 -157 -74 -206 -74 -20
0 -53 -7 -72 -15 -52 -22 -158 -19 -211 4 -65 30 -94 66 -162 205 l-64 129 0
69 c0 38 7 84 15 105 8 19 15 47 15 62 0 14 9 40 21 56 11 17 34 57 50 89 44
86 120 157 194 183 73 26 124 28 172 8z m-2820 -2190 c19 -8 47 -15 61 -15 35
0 243 -103 288 -143 20 -17 57 -43 82 -57 32 -17 60 -45 90 -90 24 -36 56 -78
71 -95 15 -16 35 -53 45 -82 l18 -52 -18 -36 c-19 -41 -49 -65 -81 -65 -33 0
-170 47 -201 69 -15 10 -56 33 -92 51 -36 18 -120 69 -187 114 -90 60 -129 92
-149 124 -15 24 -46 55 -68 70 -45 30 -86 99 -86 145 0 16 10 38 25 52 l24 25
71 0 c40 0 86 -6 107 -15z"/>
<path d="M33 648 l-33 -11 0 -42 0 -42 38 -41 c22 -23 48 -42 59 -42 12 0 32
-15 48 -35 24 -32 165 -115 195 -115 6 0 41 -18 78 -40 37 -23 78 -43 92 -47
14 -3 49 -16 78 -29 71 -32 167 -64 192 -64 12 0 46 -11 76 -25 84 -38 170
-65 209 -65 20 0 52 -7 72 -15 26 -11 76 -15 199 -15 98 0 165 -4 169 -10 8
-13 222 -13 230 0 4 6 65 10 151 10 l145 0 61 21 c34 11 78 29 99 39 47 25
112 119 141 206 l22 67 -30 56 c-21 40 -41 62 -69 78 -60 34 -135 54 -157 42
-39 -21 -49 -80 -23 -142 8 -20 15 -54 15 -76 l0 -40 -27 -19 c-43 -29 -154
-62 -208 -62 -27 0 -69 -8 -93 -17 l-44 -16 -51 13 c-29 7 -128 16 -222 19
-104 4 -178 11 -192 19 -12 7 -54 12 -93 12 -40 0 -86 6 -107 15 -19 8 -47 15
-60 15 -14 0 -54 14 -90 30 -35 17 -74 30 -86 30 -79 0 -397 140 -536 235 -81
55 -191 116 -207 114 -5 -1 -24 -6 -41 -11z"/>
</g>
</svg>
