<?xml version="1.0" standalone="no"?>
<!DOCTYPE svg PUBLIC "-//W3C//DTD SVG 20010904//EN"
 "http://www.w3.org/TR/2001/REC-SVG-20010904/DTD/svg10.dtd">
<svg version="1.0" xmlns="http://www.w3.org/2000/svg"
 width="927.000000pt" height="219.000000pt" viewBox="0 0 927.000000 219.000000"
 preserveAspectRatio="xMidYMid meet">
<metadata>
Created by potrace 1.16, written by Peter Selinger 2001-2019
</metadata>
<g transform="translate(0.000000,219.000000) scale(0.100000,-0.100000)"
fill="#000000" stroke="none">
<path d="M8584 2180 c-5 -5 -57 -34 -114 -64 -84 -42 -111 -62 -134 -95 -15
-23 -46 -53 -67 -67 l-39 -24 -70 -140 -70 -140 0 -55 c0 -63 26 -147 74 -244
19 -36 41 -93 50 -125 l17 -59 -13 -8 c-7 -5 -43 -9 -79 -9 -37 0 -83 -7 -102
-15 -25 -10 -71 -15 -147 -15 -76 0 -122 5 -147 15 -26 11 -76 15 -195 15
-118 0 -168 4 -195 15 -22 9 -67 15 -120 15 -52 0 -97 6 -120 15 -20 9 -66 15
-107 15 l-71 0 -63 30 c-37 18 -80 30 -103 30 -22 0 -56 7 -76 15 -19 8 -53
15 -75 15 -21 0 -55 7 -75 15 -19 8 -60 15 -90 15 -29 0 -70 7 -90 15 -19 8
-65 15 -102 15 -36 0 -86 6 -111 14 -86 27 -135 38 -210 46 -41 4 -88 12 -105
18 -54 19 -119 33 -180 41 -34 5 -70 13 -82 19 -12 7 -59 12 -105 12 -46 0
-103 6 -128 14 -87 28 -136 38 -210 45 -41 4 -85 13 -97 19 -12 7 -47 12 -78
12 -30 0 -72 7 -92 15 -20 8 -66 15 -105 15 -38 0 -84 7 -105 15 -26 11 -74
15 -180 15 l-144 0 -47 22 c-58 27 -71 28 -421 34 l-284 5 -39 -16 c-21 -8
-68 -15 -107 -15 -38 0 -84 -7 -104 -15 -20 -8 -48 -15 -62 -15 -32 0 -101
-34 -138 -69 -16 -14 -40 -47 -53 -73 l-24 -47 0 -96 c0 -53 -5 -105 -10 -116
-13 -23 -47 -25 -97 -4 -19 8 -53 15 -75 15 -21 0 -55 7 -75 15 -19 8 -60 15
-90 15 -29 0 -70 7 -90 15 -19 8 -60 15 -90 15 -29 0 -70 7 -90 15 -22 9 -67
15 -117 15 -65 0 -99 6 -166 30 -47 16 -102 30 -123 30 -21 0 -54 7 -74 15
-19 8 -52 15 -72 15 -20 0 -56 6 -81 14 -93 29 -137 38 -225 46 -55 5 -118 18
-163 34 -95 35 -129 32 -160 -14 -13 -19 -26 -48 -29 -63 -10 -51 -35 -52
-110 -7 -38 22 -79 43 -93 47 -14 3 -38 18 -55 33 -31 29 -204 120 -228 120
-7 0 -24 12 -38 26 -13 14 -41 35 -63 46 -21 11 -57 33 -79 49 -22 16 -47 29
-56 29 -9 0 -33 11 -52 25 -49 32 -294 155 -312 155 -8 0 -34 13 -58 30 -24
16 -52 30 -61 30 l-18 0 0 -55 c0 -37 4 -55 12 -55 7 0 24 -11 38 -25 71 -70
198 -155 232 -155 8 0 51 -25 96 -55 46 -30 100 -64 121 -74 20 -11 77 -47
127 -80 49 -34 96 -61 104 -61 9 0 53 -25 99 -55 89 -60 212 -125 234 -125 8
0 27 -17 44 -37 21 -27 61 -54 139 -92 60 -29 130 -71 156 -92 45 -38 235
-139 260 -139 6 0 25 -12 40 -27 l28 -27 53 13 c73 18 94 34 124 96 l26 53
-21 66 c-12 37 -34 84 -48 106 -15 22 -24 44 -20 48 12 11 127 2 165 -14 18
-8 50 -14 70 -14 20 0 56 -6 81 -14 78 -25 133 -37 195 -45 34 -5 70 -13 82
-19 12 -7 47 -12 78 -12 30 0 72 -7 92 -15 19 -8 53 -15 75 -15 21 0 55 -7 75
-15 19 -8 53 -15 75 -15 21 0 55 -7 75 -15 19 -8 53 -15 75 -15 21 0 55 -7 75
-15 19 -8 64 -15 99 -15 l63 0 36 32 c42 36 79 103 68 121 -4 7 -22 31 -40 55
l-33 44 0 66 c0 37 4 72 8 78 4 6 27 11 51 10 30 -1 46 4 51 14 24 51 29 55
66 61 21 3 52 11 67 18 16 6 86 11 165 11 75 0 166 5 202 12 36 6 81 11 100
10 81 -1 317 -30 337 -40 12 -7 40 -12 63 -12 22 0 57 -7 77 -15 22 -9 67 -15
120 -15 52 0 97 -6 120 -15 26 -11 74 -15 180 -15 105 0 153 -4 180 -15 19 -8
60 -15 90 -15 29 0 70 -7 90 -15 19 -8 52 -15 72 -15 20 0 56 -6 81 -14 94
-30 138 -38 225 -45 50 -4 100 -12 112 -19 12 -7 54 -12 93 -12 40 0 86 -6
107 -15 19 -8 52 -15 71 -15 20 0 96 -20 169 -45 104 -35 146 -45 198 -45 36
0 82 -7 102 -15 19 -8 60 -15 90 -15 29 0 70 -7 90 -15 19 -8 53 -15 75 -15
21 0 55 -7 75 -15 19 -8 47 -15 62 -15 14 0 46 -14 71 -30 l45 -30 58 0 c32 0
74 -7 94 -15 26 -11 74 -15 180 -15 105 0 153 -4 180 -15 24 -10 71 -15 150
-15 78 0 125 -5 150 -15 26 -11 76 -15 198 -15 122 0 172 4 198 15 27 11 75
15 182 15 94 0 154 4 168 12 12 6 56 15 97 19 41 4 93 12 115 18 22 6 51 13
65 15 14 3 50 21 80 40 30 19 78 47 105 62 78 41 155 103 155 123 0 10 8 25
17 32 9 8 36 40 60 73 30 41 43 68 43 92 0 18 5 36 10 39 6 4 10 56 10 124 l0
118 -20 18 c-11 10 -36 50 -56 89 -20 39 -48 84 -63 100 -41 45 -183 156 -198
156 -8 0 -44 14 -80 30 -40 19 -81 30 -108 30 -24 0 -47 5 -50 10 -8 13 -98
13 -111 0z m264 -241 c35 -16 69 -29 76 -29 17 0 117 -121 138 -168 12 -26 18
-63 18 -123 l0 -86 -30 -39 c-16 -21 -44 -60 -61 -85 -23 -33 -64 -68 -148
-123 l-116 -76 -41 0 c-23 0 -58 -7 -77 -15 -21 -8 -67 -15 -106 -15 l-70 0
-20 28 c-11 16 -23 41 -27 58 -4 16 -34 82 -66 148 -32 65 -58 131 -58 146 0
15 23 73 50 129 63 129 127 197 232 245 40 19 82 36 93 39 44 12 151 -5 213
-34z m-7349 -648 c21 -11 45 -31 55 -45 9 -14 24 -26 34 -26 36 -1 102 -39
102 -59 0 -34 -17 -33 -76 9 -34 24 -69 40 -86 40 -30 0 -108 62 -108 86 0 20
34 17 79 -5z"/>
<path d="M2862 598 c-7 -7 -12 -21 -12 -31 0 -25 57 -97 77 -97 13 0 92 -33
112 -47 13 -9 -10 -13 -26 -5 -85 43 -217 56 -246 24 -22 -24 -22 -85 -1 -103
8 -7 67 -30 130 -51 63 -20 131 -49 151 -63 21 -14 44 -25 53 -25 8 0 29 -9
45 -21 40 -27 182 -99 195 -99 23 0 101 -42 113 -60 9 -15 23 -20 54 -20 l42
0 16 30 c36 70 9 139 -68 174 -29 12 -59 31 -67 41 l-15 18 39 -6 c22 -3 51
-18 66 -32 14 -14 36 -25 49 -25 12 0 52 -18 88 -40 37 -22 72 -40 78 -40 7 0
27 10 46 23 l34 23 3 40 c4 50 -4 58 -128 120 -52 26 -113 60 -134 76 -21 15
-51 28 -65 28 -41 0 -222 65 -277 100 -82 50 -178 80 -264 80 -46 0 -81 -5
-88 -12z m342 -230 l59 -42 -19 -7 c-39 -14 -156 53 -140 80 13 20 40 12 100
-31z"/>
</g>
</svg>
