<?xml version="1.0" standalone="no"?>
<!DOCTYPE svg PUBLIC "-//W3C//DTD SVG 20010904//EN"
 "http://www.w3.org/TR/2001/REC-SVG-20010904/DTD/svg10.dtd">
<svg version="1.0" xmlns="http://www.w3.org/2000/svg"
 width="573.000000pt" height="174.000000pt" viewBox="0 0 573.000000 174.000000"
 preserveAspectRatio="xMidYMid meet">
<metadata>
Created by potrace 1.16, written by Peter Selinger 2001-2019
</metadata>
<g transform="translate(0.000000,174.000000) scale(0.100000,-0.100000)"
fill="#000000" stroke="none">
<path d="M4895 1730 c-3 -5 -22 -10 -42 -10 l-37 0 -154 -152 c-108 -108 -162
-169 -182 -208 -16 -30 -47 -77 -69 -104 -28 -32 -41 -58 -41 -77 0 -16 -7
-46 -15 -66 -22 -52 -19 -161 6 -235 26 -80 40 -106 106 -202 33 -47 53 -87
51 -100 l-3 -21 -119 -3 c-84 -2 -133 2 -165 12 -57 18 -124 35 -176 45 -22 4
-76 19 -120 33 -112 36 -162 49 -225 57 -72 9 -175 75 -217 140 -17 25 -52 64
-78 86 -26 22 -68 60 -93 85 -148 144 -384 290 -469 290 -10 0 -39 8 -65 17
l-47 17 -52 -24 c-70 -33 -89 -60 -89 -125 l0 -53 36 -44 c20 -23 47 -60 60
-80 16 -25 44 -48 82 -67 31 -16 79 -48 106 -70 26 -23 55 -41 63 -41 8 0 44
-13 80 -30 35 -16 69 -30 74 -30 6 0 40 -18 77 -40 37 -23 78 -43 92 -47 86
-20 147 -68 186 -146 l25 -47 -9 -104 c-10 -117 -33 -166 -78 -166 -44 0 -113
39 -182 104 -37 35 -82 71 -100 80 -18 9 -61 46 -96 82 -36 37 -71 64 -82 64
-11 0 -31 12 -45 26 -13 14 -40 34 -59 44 -19 10 -92 56 -162 103 -70 48 -148
98 -175 112 -54 29 -131 76 -214 129 -30 20 -62 36 -70 36 -8 0 -34 14 -59 30
-54 36 -136 42 -162 13 -34 -39 -39 -61 -27 -106 16 -56 24 -64 83 -94 28 -14
77 -53 109 -85 46 -47 58 -65 55 -86 -4 -38 -27 -38 -103 -3 -37 17 -72 31
-78 31 -7 0 -25 9 -42 21 -42 28 -182 99 -197 99 -26 0 -241 113 -277 146 -24
21 -49 34 -66 34 -38 0 -75 25 -113 76 l-33 44 -34 0 c-18 0 -46 -5 -61 -10
-29 -11 -82 -4 -175 26 -26 8 -83 14 -128 14 -50 0 -96 6 -118 15 -50 21 -316
21 -366 0 -20 -8 -52 -15 -72 -15 -20 0 -64 -9 -98 -21 -73 -24 -164 -105
-203 -181 -13 -26 -28 -49 -34 -53 -6 -3 -10 -46 -10 -98 l0 -91 27 -28 c20
-21 36 -28 63 -28 53 0 70 23 70 95 l0 58 36 41 c20 22 47 53 59 67 30 33 136
69 202 69 28 0 67 7 86 15 46 19 98 19 144 0 23 -10 69 -15 135 -15 65 0 111
-5 135 -15 19 -8 60 -15 90 -15 40 0 73 -8 120 -30 35 -17 69 -30 75 -30 5 0
39 -14 75 -30 35 -17 69 -30 75 -30 16 0 80 -32 113 -56 37 -28 230 -124 248
-124 7 0 50 -25 95 -55 98 -65 145 -90 189 -99 17 -4 51 -24 75 -45 93 -82
139 -88 243 -33 80 42 114 90 115 157 0 22 4 46 9 54 l9 14 30 -12 c16 -7 43
-29 60 -49 17 -22 60 -53 104 -75 48 -25 87 -53 111 -82 21 -24 61 -60 91 -80
29 -19 74 -53 99 -75 25 -22 52 -40 60 -40 8 0 50 -39 93 -86 53 -57 88 -87
107 -91 17 -3 33 -16 39 -29 l11 -24 99 0 c61 0 98 4 98 10 0 6 23 32 51 58
55 50 99 125 99 167 0 14 7 42 15 62 8 19 15 52 15 73 0 21 10 64 22 95 l21
56 21 -6 c12 -3 51 -10 87 -14 36 -5 75 -13 86 -20 12 -6 41 -11 65 -11 44 0
67 -11 126 -62 25 -22 43 -28 78 -28 24 0 61 -7 81 -15 27 -12 79 -15 224 -15
l189 0 41 -17 42 -16 31 13 c17 7 72 16 121 20 175 15 387 92 534 192 88 61
140 118 156 172 8 28 29 72 48 97 18 26 41 67 51 90 10 24 22 52 27 61 12 24
11 75 -1 83 -5 3 -10 47 -10 96 l0 89 -36 71 c-19 39 -54 98 -76 130 -42 62
-177 192 -206 197 -9 2 -59 24 -110 48 -51 24 -106 44 -122 44 -16 0 -32 5
-35 10 -4 6 -53 10 -115 10 -62 0 -111 -4 -115 -10z m398 -251 c71 -47 112
-80 119 -97 6 -15 30 -70 54 -122 l44 -95 0 -100 0 -101 -22 -41 c-96 -175
-119 -206 -162 -220 -20 -7 -58 -31 -84 -52 -26 -22 -77 -53 -114 -70 l-66
-31 -147 0 -147 0 -26 29 c-124 133 -232 332 -232 426 0 17 13 69 29 115 l30
85 45 40 c24 22 54 59 65 82 12 23 33 50 48 60 25 17 86 77 138 136 l24 27
148 0 148 0 108 -71z m-2310 -418 c23 -22 39 -43 34 -47 -10 -11 -84 16 -103
37 l-17 19 13 15 c18 22 26 19 73 -24z"/>
</g>
</svg>
