<?xml version="1.0" standalone="no"?>
<!DOCTYPE svg PUBLIC "-//W3C//DTD SVG 20010904//EN"
 "http://www.w3.org/TR/2001/REC-SVG-20010904/DTD/svg10.dtd">
<svg version="1.0" xmlns="http://www.w3.org/2000/svg"
 width="489.000000pt" height="171.000000pt" viewBox="0 0 489.000000 171.000000"
 preserveAspectRatio="xMidYMid meet">
<metadata>
Created by potrace 1.16, written by Peter Selinger 2001-2019
</metadata>
<g transform="translate(0.000000,171.000000) scale(0.100000,-0.100000)"
fill="#000000" stroke="none">
<path d="M150 1701 c-8 -4 -33 -18 -55 -30 -22 -12 -52 -27 -68 -34 l-27 -11
0 -68 0 -68 42 -61 c60 -86 116 -148 162 -177 22 -13 60 -43 85 -66 25 -23 66
-54 91 -68 25 -14 56 -38 69 -52 14 -14 31 -26 39 -26 7 0 43 -13 79 -30 35
-16 70 -30 76 -30 7 0 54 -20 105 -45 52 -25 106 -45 120 -45 15 0 47 -14 72
-30 l45 -30 58 0 c32 0 74 -7 94 -15 19 -8 45 -15 57 -15 12 0 60 -13 106 -30
68 -24 102 -30 168 -30 50 0 97 -6 119 -15 l35 -15 328 0 328 0 35 15 c20 8
52 15 72 15 39 0 125 27 209 65 30 14 63 25 72 25 10 0 36 20 58 43 57 61 124
107 155 107 28 0 58 -17 101 -56 14 -12 58 -39 97 -59 77 -38 187 -109 241
-156 18 -16 42 -29 53 -29 12 0 42 -21 68 -49 26 -27 74 -66 106 -87 33 -21
80 -57 105 -80 25 -23 64 -51 86 -62 23 -12 77 -46 121 -75 86 -59 155 -97
176 -97 7 0 28 -18 46 -40 20 -25 44 -43 69 -49 20 -6 61 -22 90 -36 28 -14
57 -25 63 -25 6 0 40 -13 76 -30 35 -16 71 -30 78 -30 8 0 17 -4 20 -10 8 -13
132 -13 140 0 3 6 20 10 36 10 16 0 51 11 77 24 56 28 142 116 142 145 0 11 5
23 10 26 13 8 13 209 1 233 -5 9 -15 32 -22 51 -19 51 -107 179 -132 192 -12
6 -44 29 -72 51 -27 21 -79 61 -114 88 -35 28 -71 50 -80 50 -9 0 -36 14 -61
30 -25 16 -51 30 -58 30 -7 0 -38 11 -68 25 -30 14 -81 34 -114 45 l-59 20
-203 0 -203 -1 -55 -19 c-30 -11 -70 -19 -88 -20 -40 0 -65 -12 -115 -56 -47
-43 -77 -43 -124 0 -21 18 -67 48 -103 66 -36 18 -85 49 -110 69 -25 20 -79
59 -120 86 -41 27 -105 78 -142 112 l-67 63 -84 0 -84 0 -16 -18 c-25 -27 -21
-72 13 -144 16 -34 30 -73 30 -86 0 -15 -23 -45 -69 -90 l-69 -67 -70 -22 -70
-23 -404 0 c-320 0 -412 3 -448 14 -77 24 -133 37 -190 45 -30 4 -71 12 -90
18 -48 15 -116 33 -170 43 -25 5 -81 26 -125 48 -44 21 -92 42 -107 46 -15 3
-35 18 -44 31 l-17 25 17 43 c24 63 20 89 -23 175 -58 112 -158 206 -289 272
-55 27 -107 50 -115 50 -9 0 -19 5 -22 10 -7 12 -153 13 -175 1z m207 -211
c82 -38 124 -70 159 -123 16 -23 35 -46 41 -50 26 -16 34 -45 17 -61 -26 -26
-55 -19 -137 35 -63 41 -217 179 -217 194 0 12 35 35 52 35 11 0 49 -13 85
-30z m3630 -615 c19 -8 45 -15 57 -15 30 0 127 -34 216 -77 111 -53 208 -120
235 -163 13 -21 45 -56 70 -77 29 -24 57 -61 77 -100 l30 -62 -3 -78 c-4 -87
-32 -143 -71 -143 -32 0 -144 40 -231 82 -43 21 -83 38 -91 38 -7 0 -23 12
-37 26 -13 14 -42 35 -64 46 -22 12 -53 31 -70 43 -16 13 -50 33 -75 45 -25
12 -66 40 -92 61 -25 21 -82 57 -125 78 -71 36 -169 109 -200 149 -35 44 14
116 85 127 20 3 55 12 77 20 54 18 167 19 212 0z"/>
</g>
</svg>
