<?xml version="1.0" standalone="no"?>
<!DOCTYPE svg PUBLIC "-//W3C//DTD SVG 20010904//EN"
 "http://www.w3.org/TR/2001/REC-SVG-20010904/DTD/svg10.dtd">
<svg version="1.0" xmlns="http://www.w3.org/2000/svg"
 width="504.000000pt" height="300.000000pt" viewBox="0 0 504.000000 300.000000"
 preserveAspectRatio="xMidYMid meet">
<metadata>
Created by potrace 1.16, written by Peter Selinger 2001-2019
</metadata>
<g transform="translate(0.000000,300.000000) scale(0.100000,-0.100000)"
fill="#000000" stroke="none">
<path d="M2628 2973 c-66 -71 -73 -135 -28 -263 17 -46 30 -94 30 -107 0 -31
92 -212 120 -238 12 -11 34 -40 48 -65 14 -25 42 -63 63 -85 20 -22 50 -58 66
-81 15 -22 44 -63 63 -89 49 -69 377 -402 425 -433 22 -14 67 -51 100 -82 33
-30 80 -69 105 -85 24 -17 65 -51 90 -76 25 -25 66 -58 92 -72 26 -15 56 -41
68 -57 12 -17 45 -42 73 -57 104 -52 186 -137 209 -216 6 -23 27 -59 45 -79
18 -21 46 -65 64 -99 34 -68 77 -133 132 -201 19 -24 46 -66 61 -95 33 -66 58
-83 121 -83 54 0 75 12 75 42 0 28 -58 136 -100 188 -45 55 -100 142 -100 159
0 22 -49 108 -65 114 -8 4 -15 13 -15 22 0 20 49 20 97 0 57 -24 179 -20 228
8 44 25 85 87 85 130 0 52 -40 151 -78 190 -35 37 -208 159 -269 191 -68 35
-154 56 -227 56 l-75 0 -36 -31 c-20 -18 -43 -45 -51 -60 -8 -16 -26 -36 -40
-46 l-26 -17 -31 18 c-18 9 -46 36 -63 59 -17 24 -51 52 -78 65 -25 13 -58 39
-72 58 -15 19 -58 55 -96 80 -39 26 -80 63 -94 85 -13 21 -42 48 -64 59 -23
12 -70 49 -105 83 -35 34 -78 76 -95 92 -62 60 -143 161 -167 210 -14 27 -47
71 -73 96 -31 30 -50 59 -55 80 -4 19 -35 77 -70 129 -35 52 -68 108 -74 123
-12 31 -15 135 -5 161 10 26 27 19 86 -34 31 -27 73 -56 94 -62 27 -9 47 -26
67 -56 27 -41 106 -92 141 -92 8 0 24 -14 36 -30 12 -17 61 -56 108 -87 48
-31 121 -89 162 -128 41 -39 96 -83 121 -98 25 -14 58 -42 73 -61 15 -20 39
-39 54 -43 15 -3 49 -26 77 -50 27 -23 79 -59 116 -78 36 -19 94 -59 128 -90
34 -30 69 -55 78 -55 23 0 196 -85 244 -120 24 -17 55 -30 71 -30 16 0 45 -7
65 -15 51 -22 212 -20 286 2 l58 18 70 87 69 86 0 71 c0 39 -4 79 -9 89 -4 9
-18 39 -31 67 -12 27 -31 56 -41 63 -11 8 -34 38 -50 68 -32 56 -62 84 -89 84
-9 0 -32 20 -53 44 -33 39 -200 161 -274 200 -76 39 -210 69 -293 67 -19 -1
-125 -5 -235 -9 l-200 -7 -65 -34 c-36 -18 -78 -43 -94 -54 l-28 -20 -37 13
c-20 7 -58 30 -86 51 -27 22 -75 58 -105 82 -30 23 -89 65 -130 92 -41 27 -95
68 -120 91 -25 23 -60 49 -78 58 -18 10 -61 46 -96 82 -38 39 -71 64 -84 64
-11 0 -24 5 -27 10 -3 6 -41 10 -84 10 l-77 0 -26 -27z m1629 -568 c19 -8 54
-15 77 -15 27 0 53 -8 77 -25 20 -13 64 -38 98 -55 34 -18 82 -49 106 -70 25
-21 53 -45 64 -52 30 -21 130 -177 137 -215 9 -47 -1 -98 -26 -133 l-21 -30
-131 0 -130 0 -63 29 c-35 16 -81 43 -104 59 -22 16 -56 33 -74 36 -19 3 -57
26 -86 51 -29 25 -56 45 -61 45 -4 0 -30 15 -57 34 -27 19 -72 45 -99 59 -59
30 -198 152 -202 177 -6 33 16 60 47 60 16 0 45 7 64 15 20 8 61 15 91 15 29
0 69 7 87 15 45 19 160 19 206 0z m111 -1117 c47 -16 81 -37 130 -81 81 -73
86 -81 66 -101 -20 -21 -38 -20 -109 4 -81 28 -101 38 -162 84 -56 41 -67 70
-37 100 20 21 35 20 112 -6z"/>
<path d="M0 946 l0 -54 27 -17 c16 -10 51 -42 78 -71 38 -41 75 -66 155 -105
57 -28 118 -62 135 -74 16 -13 86 -42 153 -64 68 -23 136 -49 151 -60 28 -20
229 -91 259 -91 29 0 132 -40 171 -66 19 -13 47 -24 61 -24 14 0 45 -6 70 -14
87 -27 136 -38 205 -45 40 -4 123 -25 192 -49 78 -27 140 -42 171 -42 28 0 84
-13 132 -30 l85 -30 140 0 c93 0 155 -5 185 -14 101 -32 140 -39 255 -45 66
-4 130 -12 142 -19 13 -7 59 -12 112 -12 49 0 93 -5 96 -10 4 -6 68 -10 160
-10 92 0 156 4 160 10 3 5 39 10 79 10 43 0 89 6 109 15 20 8 47 15 61 15 14
0 54 13 89 30 36 16 71 30 79 30 7 0 33 14 58 30 25 16 53 30 62 30 9 0 24 10
33 23 29 40 74 102 95 127 11 14 31 57 45 95 l25 70 0 103 c0 82 -4 110 -19
140 -24 45 -143 142 -175 142 -22 0 -86 -59 -86 -78 0 -5 18 -38 40 -75 25
-42 40 -78 40 -99 0 -49 -32 -132 -84 -220 -48 -78 -73 -102 -122 -114 -16 -4
-57 -20 -91 -36 -34 -15 -72 -28 -86 -28 -13 0 -41 -7 -60 -15 l-36 -15 -336
0 -336 0 -36 15 c-23 10 -69 15 -135 15 -65 0 -111 5 -135 15 -19 8 -53 15
-75 15 -21 0 -55 7 -75 15 -19 8 -53 15 -75 15 -21 0 -55 7 -75 15 -23 10 -69
15 -132 15 l-97 0 -84 30 c-47 16 -94 30 -105 30 -12 0 -59 13 -105 30 -47 16
-102 30 -123 30 -21 0 -54 7 -74 15 -19 8 -52 15 -72 15 -39 0 -245 66 -310
99 -22 12 -50 21 -62 21 -36 0 -147 40 -253 93 -55 26 -132 59 -173 72 -40 14
-107 47 -148 74 -83 56 -148 91 -168 91 -7 0 -24 12 -38 26 -26 29 -89 64
-114 64 -12 0 -15 -12 -15 -54z"/>
</g>
</svg>
