<?xml version="1.0" encoding="UTF-8" standalone="no"?>
<!-- Created with Inkscape (http://www.inkscape.org/) -->

<svg
   version="1.1"
   id="svg1"
   width="373.97812"
   height="462.68982"
   viewBox="0 0 373.97812 462.68982"
   xmlns="http://www.w3.org/2000/svg"
   xmlns:svg="http://www.w3.org/2000/svg">
  <defs
     id="defs1" />
  <g
     id="g1"
     transform="translate(-1.0733663,0.63005292)">
    <path
       style="fill:#000000"
       d="m 193.63477,460.86537 c -45.56257,-5.85114 -72.79447,-28.51716 -75.25924,-62.64077 -3.02321,-41.85488 64.71242,-84.91204 142.35098,-90.48751 19.21585,-1.37995 19.27455,-0.95977 -2.22651,-15.93961 -16.5129,-11.50457 -59.25035,-34.60292 -70,-37.83296 C 48.703714,211.95873 -42.072314,84.850714 22.022256,20.856108 70.04831,-27.095042 194.95364,11.545661 195.42511,74.5 195.71318,112.96566 146.35441,137.56779 77,133.52718 c -17.528729,-1.02123 -34.315681,-2.57657 -37.759086,-3.49845 -9.533482,-2.55234 26.970881,38.26984 48.842745,54.61997 19.562131,14.62351 20.407351,14.92982 20.479381,7.42188 0.64048,-66.75279 243.6551,-59.67269 265.14255,7.72478 11.56224,36.26607 -53.45188,74.78207 -115.20559,68.25068 -4.4,-0.46536 -8.11006,-0.74354 -8.24458,-0.61817 -0.13452,0.12538 3.91548,2.80325 9,5.95084 63.37643,39.23335 87.55335,89.86662 64.70415,135.50867 -17.66764,35.29169 -76.75439,58.85751 -130.3248,51.97799 z m 51.87703,-12.39214 c 64.44451,-9.67413 88.90235,-46.39277 65.81067,-98.8018 -8.86464,-20.11924 -15.7938,-28.23497 -25.205,-29.52115 -72.0828,-9.85118 -158.16193,28.30552 -154.75586,68.59937 3.73807,44.22125 51.37817,69.14664 114.15019,59.72358 z M 316,254.76607 c 70.74941,-20.49526 55.04656,-70.57419 -28,-89.2965 -66.54326,-15.00175 -162.37285,-8.35532 -166.35143,11.5376 -4.0201,20.10049 7.70958,30.84068 62.17473,56.9298 43.16004,20.67391 101.16093,29.81399 132.1767,20.8291 z M 131.1821,119.91712 c 39.41403,-5.59606 53.11215,-15.61407 51.55486,-37.704225 C 179.95295,42.721552 129.31306,11 69.053586,11 25.565111,11 5.9549703,36.928333 15.918405,81.254808 c 4.176032,18.578812 14.319037,42.278912 16.662403,38.933282 2.582202,-3.68661 8.298127,-4.58644 14.945123,-2.35275 3.702068,1.24406 11.298417,2.42436 19.974069,3.10352 7.7,0.60278 15.8,1.25977 18,1.45999 8.040408,0.73174 32.35103,-0.58896 45.6821,-2.48173 z"
       id="path1" />
  </g>
</svg>
