<?xml version="1.0" standalone="no"?>
<!DOCTYPE svg PUBLIC "-//W3C//DTD SVG 20010904//EN"
 "http://www.w3.org/TR/2001/REC-SVG-20010904/DTD/svg10.dtd">
<svg version="1.0" xmlns="http://www.w3.org/2000/svg"
 width="252.000000pt" height="336.000000pt" viewBox="0 0 252.000000 336.000000"
 preserveAspectRatio="xMidYMid meet">
<metadata>
Created by potrace 1.16, written by Peter Selinger 2001-2019
</metadata>
<g transform="translate(0.000000,336.000000) scale(0.100000,-0.100000)"
fill="#000000" stroke="none">
<path d="M425 3350 c-3 -5 -27 -10 -53 -10 -35 0 -58 -7 -92 -30 -25 -16 -51
-30 -58 -30 -52 0 -202 -125 -202 -169 0 -11 -4 -23 -10 -26 -13 -8 -13 -102
0 -110 6 -3 10 -15 10 -25 0 -34 61 -90 141 -131 43 -21 83 -39 89 -39 6 0 37
-12 68 -26 31 -14 97 -40 147 -57 l90 -31 140 -8 c175 -10 193 -11 285 -3 l75
7 55 35 c122 77 190 113 215 113 43 0 79 -46 110 -142 l28 -87 -11 -38 c-6
-21 -31 -65 -56 -98 l-44 -60 -64 -19 c-80 -25 -98 -40 -98 -83 0 -47 14 -69
63 -100 23 -14 69 -52 102 -83 33 -31 80 -68 105 -82 25 -14 55 -40 67 -56 12
-17 44 -42 71 -57 27 -15 66 -47 86 -71 21 -25 56 -57 79 -71 23 -15 78 -61
123 -102 44 -42 99 -88 122 -104 41 -28 142 -168 142 -198 0 -19 31 -49 51
-49 22 0 39 -21 39 -49 0 -15 14 -64 30 -111 22 -60 30 -102 30 -150 l0 -66
-34 -69 c-18 -39 -46 -83 -62 -99 -48 -47 -291 -156 -350 -156 -12 0 -38 -7
-57 -15 -53 -22 -511 -22 -564 0 -19 8 -53 15 -75 15 -21 0 -55 7 -75 15 -19
8 -52 15 -72 15 -20 0 -75 13 -121 30 -47 16 -94 30 -105 30 -11 0 -67 16
-125 36 -74 25 -121 48 -158 77 -126 99 -143 104 -203 64 -63 -42 -49 -119 38
-207 125 -126 281 -296 306 -333 15 -23 47 -60 71 -83 26 -25 47 -55 51 -74 4
-19 32 -62 61 -97 30 -35 54 -68 54 -73 0 -6 20 -10 45 -10 l44 0 16 30 c21
41 19 59 -15 110 -16 25 -30 58 -30 74 0 37 -50 130 -104 192 -23 27 -49 60
-55 73 l-13 23 16 16 16 16 42 -13 c24 -7 70 -16 103 -20 34 -5 70 -13 82 -19
12 -7 47 -12 78 -12 30 0 72 -7 92 -15 l35 -15 294 0 293 0 198 66 c232 77
241 82 277 128 15 20 39 39 54 42 42 10 50 21 103 126 37 73 49 109 49 142 0
25 4 48 10 51 12 8 13 89 1 113 -4 9 -37 77 -72 151 -35 74 -81 155 -102 180
-21 25 -41 59 -44 74 -3 17 -32 52 -75 91 -39 35 -78 77 -88 94 -10 16 -41 42
-69 58 -28 15 -63 42 -77 61 -14 18 -42 42 -62 52 -37 19 -110 75 -201 156
-25 23 -66 54 -90 70 -66 45 -173 154 -167 171 3 8 21 24 41 35 43 26 125 145
125 182 0 15 7 44 15 64 19 45 19 81 0 126 -8 20 -15 49 -15 65 0 16 -13 47
-29 69 -16 23 -41 63 -55 89 -44 87 -213 234 -268 234 -7 0 -33 14 -58 30 -25
16 -52 30 -60 30 -9 0 -32 11 -51 24 -45 31 -148 66 -191 66 -18 0 -53 6 -78
14 -70 22 -131 37 -173 43 -20 3 -40 9 -43 14 -7 12 -191 11 -199 -1z m434
-212 c136 -45 194 -69 216 -90 17 -15 38 -28 48 -28 9 0 21 -9 27 -21 13 -23
2 -44 -64 -121 l-41 -48 -41 0 c-23 0 -59 -7 -79 -16 l-38 -16 -41 16 c-30 12
-77 16 -167 16 -149 0 -239 24 -326 88 -17 13 -49 28 -70 34 -81 22 -111 66
-83 119 11 19 99 81 160 111 l35 17 139 1 139 0 186 -62z"/>
</g>
</svg>
