<?xml version="1.0" standalone="no"?>
<!DOCTYPE svg PUBLIC "-//W3C//DTD SVG 20010904//EN"
 "http://www.w3.org/TR/2001/REC-SVG-20010904/DTD/svg10.dtd">
<svg version="1.0" xmlns="http://www.w3.org/2000/svg"
 width="327.000000pt" height="237.000000pt" viewBox="0 0 327.000000 237.000000"
 preserveAspectRatio="xMidYMid meet">
<metadata>
Created by potrace 1.16, written by Peter Selinger 2001-2019
</metadata>
<g transform="translate(0.000000,237.000000) scale(0.100000,-0.100000)"
fill="#000000" stroke="none">
<path d="M1355 2360 c-3 -5 -20 -10 -36 -10 -48 0 -120 -43 -186 -113 l-63
-65 0 -66 c0 -89 28 -141 122 -231 96 -93 218 -175 260 -175 7 0 33 -14 58
-30 25 -16 52 -30 60 -30 8 0 44 -14 78 -30 37 -18 80 -30 103 -30 22 0 56 -7
76 -15 22 -9 67 -15 119 -15 54 0 98 -6 125 -17 l41 -16 47 17 c62 22 240 19
251 -4 38 -75 100 -217 100 -227 0 -6 13 -40 30 -75 16 -34 30 -71 30 -80 0
-10 13 -32 29 -50 38 -44 117 -161 143 -211 11 -23 31 -50 45 -60 15 -12 23
-27 21 -41 l-3 -21 -62 -3 c-39 -2 -75 3 -98 13 -22 8 -67 15 -107 15 -38 0
-84 7 -105 15 -22 9 -67 15 -120 15 -52 0 -97 6 -120 15 -27 12 -79 15 -225
15 -145 0 -197 3 -225 15 -19 8 -60 15 -90 15 -29 0 -70 7 -90 15 -19 8 -53
15 -75 15 -21 0 -55 7 -75 15 -19 8 -54 15 -77 15 -33 0 -57 11 -119 51 -44
29 -102 75 -131 104 -36 37 -62 54 -89 59 -28 5 -53 24 -105 76 -38 39 -77 70
-86 70 -10 0 -43 26 -75 58 -32 31 -86 77 -120 102 -34 25 -86 63 -114 85 -29
22 -72 54 -97 70 -24 17 -68 54 -97 83 -29 28 -61 52 -71 52 -10 0 -33 18 -51
40 -19 24 -44 43 -61 46 -16 4 -41 19 -56 35 -15 16 -36 29 -46 29 l-18 0 0
-58 0 -58 38 -37 c20 -20 60 -59 87 -85 60 -59 132 -112 153 -112 8 0 34 -19
57 -42 41 -42 113 -99 185 -146 20 -13 46 -39 59 -57 13 -19 48 -53 79 -76 32
-23 71 -54 87 -70 17 -15 49 -37 71 -49 51 -26 73 -49 76 -81 l3 -24 -140 -5
-140 -5 -41 -22 c-60 -32 -104 -86 -104 -129 0 -41 57 -159 94 -193 14 -14 26
-32 26 -42 0 -24 45 -76 93 -106 22 -14 61 -44 86 -67 25 -23 66 -55 91 -70
25 -14 71 -48 102 -74 31 -26 92 -65 135 -86 43 -21 92 -49 108 -61 45 -34
111 -65 137 -65 24 0 189 -53 220 -70 10 -6 76 -10 146 -10 l129 0 44 43 c32
30 50 58 64 100 l19 58 -33 67 c-18 37 -45 87 -61 112 -15 25 -30 57 -34 71
-3 15 -24 42 -46 60 -52 43 -96 87 -140 139 -19 23 -45 46 -57 51 -28 10 -40
36 -25 51 11 11 73 0 163 -28 26 -8 77 -14 113 -14 37 0 83 -7 103 -15 22 -9
67 -15 119 -15 45 0 95 -5 111 -12 15 -7 80 -15 143 -19 146 -9 303 -27 355
-41 22 -5 81 -14 130 -18 55 -5 117 -18 160 -34 39 -14 80 -26 92 -26 13 0 41
-7 64 -16 l40 -17 55 19 54 18 0 68 0 67 -30 16 c-16 8 -34 15 -40 15 -42 0
-169 89 -233 162 -83 95 -127 155 -146 198 -6 14 -27 44 -46 68 -22 27 -35 54
-35 72 0 15 -13 57 -30 92 -16 34 -30 70 -30 78 0 8 -14 35 -30 60 -16 25 -30
50 -30 57 0 6 -13 40 -30 75 -16 34 -30 70 -30 79 0 9 -18 39 -41 65 -22 27
-52 72 -66 99 -30 60 -310 346 -394 405 -103 70 -263 140 -323 140 -14 0 -28
5 -31 10 -4 6 -73 10 -175 10 -102 0 -171 -4 -175 -10z m262 -135 c19 -8 45
-15 56 -15 11 0 69 -17 130 -37 l109 -37 53 -48 c29 -26 70 -53 91 -60 29 -10
47 -27 82 -78 24 -36 56 -78 71 -95 28 -30 57 -108 47 -124 -3 -5 -21 -16 -40
-25 -45 -21 -212 -22 -263 -1 -19 8 -60 15 -90 15 -29 0 -70 7 -90 15 -19 8
-45 15 -57 15 -30 0 -135 38 -166 60 -14 10 -60 35 -101 56 -139 69 -209 143
-209 220 l0 44 27 17 c40 27 233 91 276 92 21 1 54 -6 74 -14z m-750 -1410
c25 -11 72 -15 161 -15 l126 0 64 -22 c43 -14 81 -37 116 -67 28 -26 70 -59
93 -75 23 -15 61 -52 83 -82 26 -34 48 -54 61 -54 35 0 140 -129 188 -230 37
-78 38 -84 6 -115 -37 -38 -78 -32 -305 44 l-205 69 -40 34 c-22 20 -69 50
-105 68 -74 37 -162 102 -183 133 -8 13 -35 35 -59 51 -24 15 -59 49 -76 74
-18 26 -46 65 -62 86 -36 47 -37 60 -5 91 29 30 86 33 142 10z"/>
</g>
</svg>
