<?xml version="1.0" standalone="no"?>
<!DOCTYPE svg PUBLIC "-//W3C//DTD SVG 20010904//EN"
 "http://www.w3.org/TR/2001/REC-SVG-20010904/DTD/svg10.dtd">
<svg version="1.0" xmlns="http://www.w3.org/2000/svg"
 width="330.000000pt" height="453.000000pt" viewBox="0 0 330.000000 453.000000"
 preserveAspectRatio="xMidYMid meet">
<metadata>
Created by potrace 1.16, written by Peter Selinger 2001-2019
</metadata>
<g transform="translate(0.000000,453.000000) scale(0.100000,-0.100000)"
fill="#000000" stroke="none">
<path d="M245 4520 c-3 -5 -21 -10 -39 -10 -40 0 -103 -42 -163 -109 l-42 -46
-1 -104 0 -105 130 -128 c72 -70 138 -128 148 -128 9 0 59 -20 110 -45 52 -25
99 -45 105 -45 7 0 41 -14 75 -30 37 -18 80 -30 103 -30 22 0 56 -7 76 -15 26
-11 74 -15 180 -15 l144 0 61 21 c87 29 158 66 196 102 l33 32 27 -15 27 -16
37 -109 c21 -61 38 -125 38 -143 0 -35 31 -136 57 -186 9 -17 29 -70 45 -119
36 -114 41 -123 97 -178 25 -26 59 -63 75 -83 16 -21 47 -46 70 -58 22 -11 59
-40 81 -64 29 -31 76 -61 172 -109 159 -78 185 -81 243 -29 58 52 52 104 -13
104 -15 0 -58 18 -95 39 -261 153 -315 206 -408 394 -35 71 -64 142 -64 157 0
15 -7 44 -15 63 -8 20 -15 49 -15 64 0 15 -14 48 -30 73 -16 25 -30 55 -30 68
0 36 -39 144 -64 177 -13 17 -31 46 -41 65 -9 19 -38 56 -64 81 -25 25 -57 60
-70 78 -12 17 -62 57 -109 88 -47 31 -99 68 -116 83 -43 38 -110 70 -144 70
-18 0 -38 10 -57 30 -16 17 -35 30 -43 30 -7 0 -38 11 -68 25 -94 43 -171 65
-228 65 -30 0 -58 5 -61 10 -4 6 -73 10 -175 10 -102 0 -171 -4 -175 -10z
m445 -185 c117 -40 258 -105 306 -142 18 -13 48 -28 66 -34 42 -11 109 -67
139 -115 l22 -37 -19 -35 c-10 -20 -37 -48 -58 -64 l-39 -28 -144 0 c-105 0
-153 4 -180 15 -20 9 -66 15 -107 15 l-71 0 -45 30 c-25 16 -51 30 -58 30 -7
0 -47 20 -88 45 -40 25 -77 45 -82 45 -4 0 -24 11 -44 25 -41 28 -98 130 -98
176 l0 28 57 40 56 41 141 0 141 0 105 -35z"/>
<path d="M517 3112 c-25 -27 -21 -60 12 -93 20 -20 40 -29 61 -29 17 0 47 -7
67 -15 19 -8 54 -15 77 -15 l42 0 82 -55 c92 -61 144 -89 184 -99 14 -3 51
-28 80 -55 30 -28 88 -66 129 -87 41 -20 95 -54 120 -75 26 -21 75 -52 109
-70 35 -17 79 -46 99 -64 58 -52 123 -95 142 -95 10 0 27 -13 39 -30 11 -16
61 -56 110 -89 89 -59 209 -156 324 -261 34 -31 78 -67 98 -80 20 -14 49 -44
64 -68 15 -24 48 -57 73 -74 25 -17 53 -40 61 -51 8 -12 52 -63 97 -115 46
-51 91 -106 100 -120 9 -15 33 -45 54 -67 41 -44 120 -158 148 -214 11 -20 31
-47 45 -60 14 -14 26 -31 26 -38 0 -7 23 -59 51 -115 65 -130 99 -230 99 -294
0 -28 7 -68 15 -87 8 -20 15 -59 15 -87 0 -28 -7 -67 -15 -87 -8 -19 -15 -48
-15 -63 0 -15 -14 -46 -30 -69 -43 -59 -147 -161 -165 -161 -21 0 -85 -59 -85
-79 0 -10 8 -25 18 -34 20 -19 77 -23 87 -7 3 6 14 10 24 10 10 0 36 13 58 29
22 16 58 38 79 49 45 23 136 133 166 201 11 25 25 54 29 63 12 23 12 513 0
536 -4 9 -20 42 -34 72 -15 30 -35 71 -46 90 -10 19 -35 71 -56 114 -20 43
-54 100 -75 125 -21 25 -52 75 -70 111 -18 36 -47 81 -65 100 -18 19 -51 62
-73 95 -42 62 -390 415 -409 415 -6 0 -54 41 -107 90 -52 50 -99 90 -104 90
-4 0 -50 38 -102 85 -52 47 -116 97 -142 110 -26 14 -59 41 -74 61 -27 35 -76
66 -124 77 -14 4 -43 22 -65 40 -22 19 -60 44 -84 56 -24 13 -62 36 -84 52
-22 16 -48 29 -57 29 -9 0 -25 9 -36 21 -34 38 -108 87 -204 135 -51 26 -110
62 -130 81 -21 18 -43 33 -50 33 -7 0 -52 18 -99 41 -79 37 -131 56 -251 89
-25 7 -83 15 -130 17 l-86 4 -17 -19z"/>
</g>
</svg>
