<?xml version="1.0" standalone="no"?>
<!DOCTYPE svg PUBLIC "-//W3C//DTD SVG 20010904//EN"
 "http://www.w3.org/TR/2001/REC-SVG-20010904/DTD/svg10.dtd">
<svg version="1.0" xmlns="http://www.w3.org/2000/svg"
 width="510.000000pt" height="261.000000pt" viewBox="0 0 510.000000 261.000000"
 preserveAspectRatio="xMidYMid meet">
<metadata>
Created by potrace 1.16, written by Peter Selinger 2001-2019
</metadata>
<g transform="translate(0.000000,261.000000) scale(0.100000,-0.100000)"
fill="#000000" stroke="none">
<path d="M0 2562 c0 -37 5 -54 21 -68 12 -10 32 -41 46 -68 48 -94 104 -162
266 -321 150 -148 187 -179 301 -258 23 -16 59 -46 81 -66 22 -21 53 -46 70
-56 16 -10 50 -37 75 -60 25 -23 65 -54 90 -69 25 -14 71 -48 102 -74 31 -26
91 -65 134 -86 42 -21 95 -51 117 -67 22 -16 47 -29 56 -29 24 0 191 -83 241
-119 25 -18 55 -31 72 -31 17 0 59 -13 95 -30 35 -16 70 -30 76 -30 7 0 26 -9
42 -21 62 -42 126 -69 163 -69 47 0 143 -33 191 -66 19 -13 47 -24 61 -24 14
0 64 -13 110 -30 47 -16 101 -30 120 -30 19 0 55 -6 80 -14 111 -35 142 -40
255 -40 113 0 144 5 255 40 25 8 61 14 81 14 20 0 50 5 67 11 l32 11 99 -32
c68 -21 111 -41 139 -65 40 -35 230 -135 256 -135 7 0 26 -16 40 -35 15 -19
48 -46 74 -59 49 -25 255 -161 307 -203 106 -85 161 -123 176 -123 10 0 27
-14 39 -31 12 -16 40 -41 62 -55 22 -14 76 -59 120 -100 61 -57 86 -74 108
-74 38 0 60 40 60 109 0 57 -26 96 -93 138 -22 14 -61 44 -86 67 -25 23 -59
50 -76 61 -58 36 -155 138 -212 224 -31 47 -78 109 -104 138 -44 49 -93 132
-84 141 7 7 125 -28 167 -49 34 -17 95 -38 208 -69 25 -7 93 -15 151 -17 l106
-4 64 21 c35 12 78 32 94 44 17 13 53 35 82 49 72 37 83 56 83 149 0 42 4 80
10 83 13 8 13 102 0 110 -5 3 -10 24 -10 46 0 40 -29 139 -57 192 -17 34 -91
131 -125 165 -39 39 -134 109 -178 132 -23 12 -61 35 -83 51 -24 17 -53 29
-71 29 -18 0 -50 13 -76 30 -32 22 -57 30 -88 30 -23 0 -59 7 -79 15 -27 12
-80 15 -229 15 l-194 0 -73 -36 c-85 -42 -178 -128 -213 -196 l-24 -47 0 -91
0 -90 96 -193 c53 -105 106 -205 119 -222 12 -16 32 -50 45 -75 13 -25 45 -70
71 -99 59 -67 63 -91 16 -91 -23 0 -49 11 -77 32 -92 69 -166 118 -178 118
-26 0 -98 39 -146 79 -26 23 -55 41 -64 41 -19 0 -102 51 -162 100 -54 44
-121 80 -150 80 -28 0 -129 -96 -137 -129 -9 -41 -23 -51 -68 -51 -23 0 -59
-7 -78 -15 -46 -19 -148 -19 -207 -1 -57 18 -122 35 -180 46 -25 5 -76 20
-115 34 -38 14 -81 26 -95 26 -14 0 -45 14 -70 30 -25 16 -58 30 -73 30 -16 0
-54 12 -85 26 -31 14 -93 37 -136 51 -43 15 -114 43 -158 64 -43 22 -83 39
-89 39 -20 0 -137 58 -180 89 -23 17 -49 31 -58 31 -20 1 -73 26 -126 61 -22
15 -59 37 -82 50 -123 70 -184 112 -203 139 -12 17 -48 44 -79 60 -32 16 -82
51 -112 78 -30 27 -78 61 -107 76 -32 16 -99 71 -168 137 -128 123 -274 277
-274 290 0 4 -24 35 -53 68 -30 33 -69 85 -88 115 l-34 56 -52 0 -53 0 0 -48z
m4257 -817 c19 -8 45 -15 57 -15 33 0 134 -38 175 -66 19 -13 49 -24 66 -24
19 0 56 -17 100 -46 85 -56 116 -84 161 -149 19 -27 48 -68 64 -89 l30 -39 0
-163 0 -163 -27 -19 c-16 -11 -49 -29 -75 -41 l-47 -21 -141 0 c-102 0 -150 4
-177 15 -19 8 -47 15 -62 15 -14 0 -46 14 -71 30 -25 16 -52 30 -60 30 -8 0
-44 14 -78 30 -35 17 -75 30 -88 30 -74 0 -190 94 -219 178 -25 70 -32 83 -70
130 l-35 44 0 86 0 87 43 41 c64 63 127 104 157 104 15 0 43 7 61 15 46 19
189 20 236 0z"/>
</g>
</svg>
