<?xml version="1.0" standalone="no"?>
<!DOCTYPE svg PUBLIC "-//W3C//DTD SVG 20010904//EN"
 "http://www.w3.org/TR/2001/REC-SVG-20010904/DTD/svg10.dtd">
<svg version="1.0" xmlns="http://www.w3.org/2000/svg"
 width="351.000000pt" height="177.000000pt" viewBox="0 0 351.000000 177.000000"
 preserveAspectRatio="xMidYMid meet">
<metadata>
Created by potrace 1.16, written by Peter Selinger 2001-2019
</metadata>
<g transform="translate(0.000000,177.000000) scale(0.100000,-0.100000)"
fill="#000000" stroke="none">
<path d="M0 1717 l0 -53 27 -26 c36 -34 268 -190 325 -218 24 -12 63 -39 88
-60 48 -39 120 -80 143 -80 7 0 24 -12 38 -26 13 -14 51 -44 84 -65 59 -40
105 -73 212 -158 31 -24 71 -47 89 -53 19 -5 42 -21 51 -35 35 -52 133 -139
210 -186 10 -6 27 4 53 31 l40 40 0 40 0 41 -60 67 c-60 68 -81 117 -61 137
14 14 72 -6 116 -38 37 -28 170 -95 188 -95 26 0 153 -69 201 -109 26 -23 56
-41 65 -41 29 0 154 -67 205 -109 26 -23 55 -41 64 -41 18 0 100 -50 162 -99
24 -20 61 -47 82 -61 32 -21 282 -257 373 -350 157 -163 166 -170 196 -170 16
0 42 8 57 19 15 10 39 26 55 35 15 9 27 25 27 37 0 44 -190 236 -318 323 -23
16 -58 50 -76 75 -19 25 -47 56 -64 68 -27 20 -72 91 -72 113 0 17 245 12 287
-5 49 -21 257 -21 306 0 20 8 61 15 92 15 l55 0 78 39 c83 42 172 125 172 160
0 11 5 23 10 26 13 8 13 162 0 170 -5 3 -10 14 -10 23 0 47 -211 289 -304 349
-22 14 -60 45 -85 68 -46 43 -105 77 -151 88 -14 4 -47 24 -74 47 -26 22 -56
40 -65 40 -9 0 -36 14 -61 30 l-45 30 -62 0 c-34 0 -65 4 -68 10 -8 13 -342
13 -350 0 -3 -5 -22 -10 -41 -10 -70 0 -184 -141 -184 -227 0 -21 -7 -58 -16
-83 l-16 -46 31 -89 c17 -49 31 -99 31 -111 0 -13 13 -51 29 -86 36 -79 44
-118 36 -168 -10 -58 -36 -69 -84 -37 -21 14 -83 48 -137 75 -55 27 -140 77
-189 111 -61 42 -99 61 -120 61 -32 0 -134 48 -222 104 -58 37 -162 72 -233
79 -25 3 -53 8 -63 12 -14 6 -30 -5 -68 -45 l-51 -52 -31 13 c-70 28 -147 70
-232 128 -50 34 -97 61 -106 61 -9 0 -35 15 -59 33 -95 71 -166 117 -180 117
-8 0 -60 29 -115 64 -158 102 -165 106 -186 106 l-19 0 0 -53z m2577 -122 c19
-8 53 -15 75 -15 39 0 84 -23 228 -113 30 -19 67 -37 82 -41 15 -3 61 -38 102
-76 42 -39 84 -70 95 -70 12 0 38 -25 69 -68 28 -37 60 -76 71 -86 12 -11 21
-30 21 -44 0 -14 5 -41 11 -61 12 -43 -4 -91 -45 -133 -48 -47 -191 -81 -412
-95 -51 -3 -82 0 -109 11 -20 9 -62 16 -92 16 -29 0 -70 7 -90 15 -19 8 -61
15 -92 15 -86 1 -171 49 -171 97 0 7 -11 36 -25 65 -13 29 -40 102 -60 161
l-37 108 4 117 3 118 21 28 c31 43 101 64 217 65 66 1 109 -4 134 -14z"/>
</g>
</svg>
