<?xml version="1.0" standalone="no"?>
<!DOCTYPE svg PUBLIC "-//W3C//DTD SVG 20010904//EN"
 "http://www.w3.org/TR/2001/REC-SVG-20010904/DTD/svg10.dtd">
<svg version="1.0" xmlns="http://www.w3.org/2000/svg"
 width="384.000000pt" height="357.000000pt" viewBox="0 0 384.000000 357.000000"
 preserveAspectRatio="xMidYMid meet">
<metadata>
Created by potrace 1.16, written by Peter Selinger 2001-2019
</metadata>
<g transform="translate(0.000000,357.000000) scale(0.100000,-0.100000)"
fill="#000000" stroke="none">
<path d="M7 3563 c-10 -9 -8 -90 2 -111 5 -9 14 -29 19 -43 11 -28 136 -119
164 -119 8 0 34 -15 58 -32 92 -69 166 -118 178 -118 13 0 45 -25 167 -130 29
-25 77 -62 108 -83 30 -21 64 -51 75 -67 12 -16 43 -40 70 -55 27 -15 66 -47
86 -71 21 -25 55 -56 77 -70 43 -27 137 -105 183 -152 43 -44 115 -116 148
-148 17 -16 50 -57 74 -91 27 -39 51 -63 63 -63 18 0 103 -100 166 -197 17
-25 51 -67 77 -94 29 -30 66 -85 97 -148 34 -66 62 -108 85 -126 18 -14 36
-38 39 -53 3 -15 22 -52 41 -82 45 -70 136 -249 136 -267 0 -7 16 -45 36 -84
19 -39 46 -103 60 -143 l24 -71 0 -245 0 -246 -34 -69 c-19 -39 -51 -91 -73
-117 -21 -26 -46 -59 -56 -73 -10 -14 -41 -37 -68 -51 -27 -13 -53 -32 -56
-40 -3 -8 0 -35 7 -59 l13 -45 72 0 72 0 12 24 c7 13 33 36 57 51 41 26 128
117 186 195 15 19 36 63 47 97 l21 62 0 264 0 265 -15 35 c-8 20 -15 55 -15
77 0 40 -26 101 -69 165 -12 17 -21 44 -21 60 0 17 -14 50 -30 75 -17 25 -30
58 -30 76 0 21 -9 39 -30 59 -16 16 -30 37 -30 47 0 9 -13 32 -29 51 -45 51
-181 260 -181 277 0 9 -13 29 -29 44 -16 15 -46 53 -67 84 -21 31 -86 107
-145 167 -58 61 -117 131 -129 155 -27 54 -49 80 -66 80 -7 0 -55 41 -106 91
-51 50 -115 109 -143 130 -46 35 -155 150 -155 163 0 21 117 -26 175 -70 17
-12 62 -33 100 -45 39 -12 84 -34 100 -49 17 -15 45 -35 64 -45 19 -9 52 -30
74 -46 22 -16 53 -29 69 -29 28 0 99 -37 219 -114 30 -20 61 -36 68 -36 18 0
123 -63 284 -169 78 -52 174 -110 212 -129 39 -19 84 -45 100 -57 38 -28 170
-95 188 -95 7 0 24 -12 38 -26 13 -14 42 -35 64 -46 22 -12 54 -31 70 -43 17
-13 50 -33 75 -45 25 -12 66 -40 92 -61 26 -22 93 -63 150 -91 57 -28 121 -64
142 -80 21 -15 52 -28 68 -28 16 0 45 -7 65 -15 49 -21 204 -20 243 0 l30 16
0 83 0 83 -24 11 c-14 6 -26 22 -29 39 -3 18 -22 43 -47 64 -22 19 -69 61
-104 94 -34 33 -91 76 -127 94 -35 19 -77 44 -94 57 -45 33 -172 94 -196 94
-28 0 -79 -53 -79 -83 0 -31 19 -47 104 -91 65 -33 196 -131 196 -147 0 -4 21
-30 47 -59 37 -41 43 -54 32 -61 -21 -13 -28 -11 -54 15 -13 13 -43 35 -67 48
-24 12 -56 32 -73 44 -16 12 -52 33 -80 48 -27 14 -72 44 -99 66 -26 22 -55
40 -63 40 -29 0 -183 80 -222 115 -21 19 -44 35 -51 35 -27 0 -182 82 -219
115 -21 19 -44 35 -51 35 -26 0 -147 63 -190 100 -25 21 -82 56 -125 78 -44
22 -102 59 -129 81 -26 23 -55 41 -63 41 -20 0 -143 61 -213 106 -30 19 -66
37 -80 41 -34 8 -50 22 -50 43 0 29 -33 50 -81 50 -34 0 -73 14 -168 61 -69
33 -139 71 -156 84 -17 13 -93 56 -170 94 -77 38 -162 88 -189 110 -26 23 -55
41 -63 41 -25 0 -83 31 -173 92 -47 32 -91 58 -99 58 -22 0 -256 116 -303 150
-23 17 -49 30 -58 30 -9 0 -42 18 -74 40 -45 32 -66 40 -100 40 -23 0 -46 -3
-49 -7z"/>
</g>
</svg>
