<?xml version="1.0" standalone="no"?>
<!DOCTYPE svg PUBLIC "-//W3C//DTD SVG 20010904//EN"
 "http://www.w3.org/TR/2001/REC-SVG-20010904/DTD/svg10.dtd">
<svg version="1.0" xmlns="http://www.w3.org/2000/svg"
 width="675.000000pt" height="147.000000pt" viewBox="0 0 675.000000 147.000000"
 preserveAspectRatio="xMidYMid meet">
<metadata>
Created by potrace 1.16, written by Peter Selinger 2001-2019
</metadata>
<g transform="translate(0.000000,147.000000) scale(0.100000,-0.100000)"
fill="#000000" stroke="none">
<path d="M3755 1460 c-4 -6 -28 -21 -55 -35 -68 -34 -80 -56 -80 -138 l0 -68
28 -25 c95 -87 236 -173 310 -189 17 -3 55 -22 83 -42 28 -19 72 -41 97 -49
26 -7 69 -29 96 -49 27 -19 57 -35 65 -35 9 0 33 -11 52 -24 46 -32 139 -62
205 -68 56 -5 114 -39 114 -66 0 -9 14 -37 30 -62 16 -25 30 -56 30 -69 0 -13
5 -40 11 -61 l11 -37 -16 -31 c-9 -18 -21 -32 -27 -32 -7 0 -40 23 -75 51 -58
48 -94 97 -94 131 0 37 -97 108 -148 108 -10 0 -39 -22 -65 -48 l-47 -48 0
-43 c0 -60 -24 -105 -79 -145 -47 -35 -148 -76 -187 -76 -12 0 -51 -13 -86
-30 -38 -18 -79 -30 -104 -30 -23 0 -58 -7 -77 -15 -21 -8 -67 -15 -105 -15
-39 0 -85 -7 -105 -15 l-36 -15 -531 0 -531 0 -36 15 c-19 8 -60 15 -90 15
-29 0 -70 7 -90 15 -19 8 -60 15 -90 15 -29 0 -70 7 -90 15 -19 8 -61 15 -92
15 -41 0 -72 8 -119 30 -47 22 -79 30 -118 30 -30 0 -71 7 -91 15 -19 8 -45
15 -56 15 -12 0 -81 20 -154 45 -73 25 -148 45 -168 45 -20 0 -52 7 -72 15
-19 8 -45 15 -57 15 -30 0 -135 38 -166 60 -51 36 -110 60 -147 60 -67 0 -229
63 -298 116 -16 12 -61 33 -100 45 -48 16 -86 37 -120 66 -27 24 -103 71 -168
104 l-117 60 0 -76 c0 -41 4 -75 9 -75 5 0 33 -22 63 -48 91 -81 232 -170 313
-197 41 -13 92 -36 112 -50 21 -14 45 -25 53 -25 8 0 32 -11 51 -25 20 -13
117 -51 216 -84 99 -32 198 -68 221 -80 23 -12 52 -21 64 -21 13 0 43 -6 68
-14 78 -24 133 -37 195 -45 33 -5 83 -20 112 -35 29 -14 64 -26 78 -26 14 0
42 -7 62 -15 19 -8 45 -15 57 -15 12 0 60 -13 106 -30 53 -18 105 -30 138 -30
29 0 69 -7 89 -15 19 -8 53 -15 75 -15 21 0 55 -7 75 -15 22 -9 67 -15 120
-15 52 0 97 -6 120 -15 25 -11 73 -15 169 -15 78 0 135 -4 139 -10 9 -14 128
-13 143 2 10 10 17 10 32 0 25 -16 102 -16 118 0 10 10 17 10 32 0 24 -15 226
-17 235 -2 4 6 71 10 169 10 123 0 173 4 199 15 20 8 55 15 77 15 23 0 51 5
63 12 12 6 48 14 82 19 59 7 116 20 185 42 19 6 53 14 75 18 22 4 58 12 80 18
22 6 52 13 66 16 25 4 56 24 123 78 19 15 51 31 71 34 l36 6 32 -31 c52 -49
148 -92 208 -92 l51 0 65 63 c36 34 76 83 89 109 l24 47 0 105 0 105 19 11
c31 16 225 13 268 -5 46 -20 323 -21 356 -3 13 8 82 15 172 19 139 6 182 12
275 42 19 6 60 14 90 18 66 9 109 20 254 66 l110 34 54 50 c30 27 67 56 83 65
16 8 41 33 54 55 14 22 32 42 40 46 12 4 15 28 15 113 l0 108 -25 6 c-13 3
-49 26 -79 50 -65 54 -126 86 -161 86 -14 0 -42 7 -62 15 -25 10 -71 15 -155
15 l-119 0 -42 -21 c-58 -29 -77 -48 -77 -75 0 -28 27 -44 75 -44 19 0 52 -7
72 -15 19 -8 59 -15 87 -15 76 0 210 -50 255 -94 l35 -36 -13 -37 c-18 -50
-26 -59 -89 -99 -62 -40 -332 -134 -384 -134 -20 0 -52 -7 -71 -15 l-36 -15
-486 0 -486 0 -36 15 c-19 8 -47 15 -60 15 -35 0 -75 26 -103 66 -13 19 -36
44 -52 56 -16 11 -40 38 -54 59 -14 22 -42 48 -66 60 -24 12 -65 46 -93 77
-27 30 -71 65 -96 78 -53 26 -169 104 -214 143 -17 14 -64 41 -105 60 -41 18
-83 37 -92 42 -25 13 -255 11 -263 -1z m215 -169 c30 -11 82 -36 115 -56 33
-20 72 -39 87 -42 32 -6 43 -18 52 -55 8 -37 30 -56 76 -68 42 -11 80 -54 64
-70 -16 -16 -83 7 -123 43 -22 20 -56 40 -75 45 -19 6 -48 19 -63 30 -15 11
-48 30 -73 42 -51 26 -131 85 -143 105 -4 8 -1 20 9 29 19 19 9 20 74 -3z"/>
</g>
</svg>
