<?xml version="1.0" standalone="no"?>
<!DOCTYPE svg PUBLIC "-//W3C//DTD SVG 20010904//EN"
 "http://www.w3.org/TR/2001/REC-SVG-20010904/DTD/svg10.dtd">
<svg version="1.0" xmlns="http://www.w3.org/2000/svg"
 width="540.000000pt" height="135.000000pt" viewBox="0 0 540.000000 135.000000"
 preserveAspectRatio="xMidYMid meet">
<metadata>
Created by potrace 1.16, written by Peter Selinger 2001-2019
</metadata>
<g transform="translate(0.000000,135.000000) scale(0.100000,-0.100000)"
fill="#000000" stroke="none">
<path d="M275 1340 c-3 -5 -26 -10 -50 -10 -35 0 -52 -6 -78 -30 -19 -16 -42
-30 -52 -30 -23 0 -75 -54 -75 -79 0 -11 -4 -23 -10 -26 -13 -8 -13 -132 0
-140 6 -3 10 -19 10 -35 0 -18 13 -44 36 -71 19 -23 42 -56 51 -73 31 -60 95
-146 125 -168 17 -13 52 -44 77 -69 60 -60 102 -90 180 -129 35 -18 80 -47
100 -65 37 -33 91 -65 111 -65 7 0 39 -13 73 -28 34 -16 73 -32 87 -35 14 -4
47 -24 74 -47 32 -26 58 -40 77 -40 16 0 46 -7 66 -15 19 -8 46 -15 60 -15 13
0 49 -11 79 -25 84 -38 170 -65 209 -65 20 0 52 -7 72 -15 22 -9 67 -15 120
-15 52 0 97 -6 120 -15 26 -11 75 -15 184 -15 88 0 150 -4 154 -10 4 -6 78
-10 190 -10 112 0 186 4 190 10 4 6 76 10 184 10 136 0 187 4 214 15 20 8 61
15 91 15 40 0 72 8 119 30 36 16 70 30 76 30 16 0 203 94 248 125 43 29 95 33
150 10 23 -10 69 -15 135 -15 65 0 111 -5 135 -15 28 -12 86 -15 288 -15 202
0 260 3 288 15 22 9 69 15 119 15 66 0 100 6 168 30 46 17 94 30 106 30 12 0
38 7 57 15 20 8 61 15 90 15 30 0 71 7 90 15 20 8 48 15 62 15 33 0 161 66
250 128 l70 49 3 84 3 84 -71 63 -71 62 -42 0 c-23 0 -62 6 -87 14 -110 35
-144 40 -300 43 l-165 4 -55 -17 c-30 -10 -65 -28 -77 -41 -27 -28 -30 -68 -7
-77 32 -12 149 -6 192 11 l44 17 42 -11 c22 -6 52 -9 66 -7 61 12 287 -87 304
-133 3 -7 -12 -32 -33 -55 l-39 -41 -99 -33 c-54 -19 -108 -34 -121 -34 -13 0
-32 -5 -43 -11 -11 -6 -41 -14 -67 -19 -57 -11 -122 -27 -182 -46 -36 -11
-133 -14 -483 -14 l-438 0 -36 15 c-19 8 -53 15 -75 15 -21 0 -55 7 -75 15
-19 8 -53 15 -76 15 l-40 0 -42 43 c-46 46 -131 112 -180 139 -28 15 -93 37
-205 68 -25 7 -78 15 -117 17 l-73 5 -30 -30 c-35 -35 -41 -92 -14 -130 15
-21 161 -102 185 -102 18 0 81 -32 123 -62 24 -17 52 -28 72 -28 44 0 63 -30
40 -65 -21 -32 -95 -65 -144 -65 -22 0 -56 -7 -75 -15 -21 -8 -67 -15 -105
-15 -39 0 -85 -7 -105 -15 -26 -11 -73 -15 -165 -15 -95 0 -140 -4 -167 -16
l-38 -16 -41 16 c-31 12 -79 16 -184 16 -104 0 -152 4 -179 15 -19 8 -65 15
-102 15 -36 0 -88 7 -116 16 -27 9 -56 18 -64 20 -8 3 -10 10 -6 22 56 133 69
227 40 295 -8 20 -15 49 -15 65 0 18 -10 38 -30 57 -16 15 -49 58 -74 94 -63
95 -163 185 -359 329 -17 12 -42 25 -56 29 -14 3 -46 18 -71 33 -25 15 -56 30
-70 33 -14 4 -47 24 -74 47 -30 25 -58 40 -75 40 -15 0 -65 13 -111 30 -47 16
-97 30 -112 30 -15 0 -30 5 -33 10 -4 6 -68 10 -160 10 -92 0 -156 -4 -160
-10z m324 -166 c18 -8 45 -14 59 -14 14 0 46 -13 71 -28 25 -16 75 -37 109
-48 44 -13 70 -27 83 -46 24 -33 132 -107 173 -120 39 -11 54 -23 91 -71 15
-21 50 -49 76 -63 48 -24 79 -56 79 -83 0 -7 16 -31 36 -53 55 -61 116 -194
111 -240 -15 -118 -145 -162 -284 -98 -35 17 -76 30 -90 30 -30 0 -141 50
-186 84 -43 32 -164 92 -204 100 -17 4 -51 24 -75 45 -24 21 -72 53 -106 71
-50 26 -72 46 -100 88 -27 40 -47 58 -72 66 l-35 11 -72 110 -73 110 0 40 c0
72 48 111 155 125 77 10 211 1 254 -16z"/>
</g>
</svg>
