<?xml version="1.0" standalone="no"?>
<!DOCTYPE svg PUBLIC "-//W3C//DTD SVG 20010904//EN"
 "http://www.w3.org/TR/2001/REC-SVG-20010904/DTD/svg10.dtd">
<svg version="1.0" xmlns="http://www.w3.org/2000/svg"
 width="417.000000pt" height="273.000000pt" viewBox="0 0 417.000000 273.000000"
 preserveAspectRatio="xMidYMid meet">
<metadata>
Created by potrace 1.16, written by Peter Selinger 2001-2019
</metadata>
<g transform="translate(0.000000,273.000000) scale(0.100000,-0.100000)"
fill="#000000" stroke="none">
<path d="M85 2697 c-57 -93 -64 -112 -65 -174 0 -34 -5 -65 -10 -68 -13 -8
-13 -162 0 -170 5 -3 10 -19 10 -36 0 -17 39 -107 94 -217 73 -146 102 -194
130 -215 23 -18 39 -41 46 -66 10 -37 47 -78 114 -124 14 -10 29 -30 32 -45 9
-38 21 -50 75 -78 26 -13 56 -35 66 -50 42 -59 69 -87 106 -111 22 -14 71 -54
108 -89 38 -35 77 -64 88 -64 11 0 23 -4 26 -10 17 -28 170 -139 198 -144 19
-3 56 -26 84 -49 28 -24 66 -49 84 -56 19 -7 45 -18 59 -25 14 -7 40 -21 58
-30 77 -39 100 -51 147 -77 28 -16 63 -29 78 -29 15 0 44 -7 64 -15 19 -8 46
-15 60 -15 13 0 49 -12 80 -26 53 -24 118 -45 223 -74 25 -7 92 -16 150 -20
120 -9 175 -26 202 -64 11 -14 61 -53 111 -87 51 -34 106 -72 122 -86 189
-151 250 -189 372 -228 43 -14 102 -37 131 -50 29 -14 57 -25 63 -25 6 0 40
-13 76 -30 40 -19 81 -30 108 -30 24 0 47 -4 50 -10 7 -12 491 -14 499 -2 2 4
34 16 71 27 l67 20 31 40 c18 22 42 48 54 58 l23 18 0 88 0 88 -61 66 c-43 47
-71 70 -98 77 -20 5 -55 25 -77 43 -21 19 -53 41 -69 50 -53 27 -153 57 -189
57 -19 0 -47 5 -61 10 -27 10 -95 -2 -122 -23 -22 -17 -14 -52 20 -84 31 -31
135 -73 178 -73 56 0 250 -121 282 -176 12 -20 -20 -81 -57 -107 l-31 -22
-196 -3 -197 -3 -37 15 c-21 9 -54 16 -74 16 -49 0 -133 30 -269 95 -62 30
-117 55 -123 55 -23 0 -97 41 -143 79 -26 23 -55 41 -63 41 -9 0 -43 29 -76
65 -33 36 -72 72 -88 81 -16 8 -36 25 -45 39 -22 34 -7 55 68 95 82 43 98 58
98 90 0 15 5 42 12 60 8 25 8 45 -2 84 -21 82 -54 137 -123 204 -52 49 -72 62
-96 62 -18 0 -48 7 -68 15 -63 26 -119 19 -208 -28 l-80 -42 -27 -50 c-38 -69
-37 -127 3 -206 16 -33 29 -70 27 -82 l-3 -22 -77 -3 c-52 -2 -88 2 -114 13
-20 8 -47 15 -61 15 -13 0 -49 11 -79 25 -72 33 -168 65 -195 65 -27 0 -83 26
-133 62 -21 15 -46 28 -54 28 -8 0 -36 13 -61 29 -25 16 -57 31 -71 34 -14 4
-52 29 -85 56 -33 28 -94 68 -136 90 -42 22 -100 61 -130 88 -30 27 -74 62
-98 78 -25 17 -102 86 -171 155 -69 69 -138 133 -153 143 -15 10 -37 37 -49
60 -11 23 -47 71 -79 107 -65 74 -149 198 -149 220 0 9 -11 32 -24 51 -45 67
-66 144 -66 249 l0 95 30 63 c33 70 36 98 18 149 l-12 33 -61 0 -60 0 -20 -33z
m2380 -1647 c55 -25 75 -53 75 -107 0 -33 -7 -50 -31 -78 -39 -44 -64 -43 -99
6 -14 19 -40 55 -57 79 -39 52 -40 63 -8 95 29 30 62 31 120 5z"/>
</g>
</svg>
