<?xml version="1.0" standalone="no"?>
<!DOCTYPE svg PUBLIC "-//W3C//DTD SVG 20010904//EN"
 "http://www.w3.org/TR/2001/REC-SVG-20010904/DTD/svg10.dtd">
<svg version="1.0" xmlns="http://www.w3.org/2000/svg"
 width="411.000000pt" height="171.000000pt" viewBox="0 0 411.000000 171.000000"
 preserveAspectRatio="xMidYMid meet">
<metadata>
Created by potrace 1.16, written by Peter Selinger 2001-2019
</metadata>
<g transform="translate(0.000000,171.000000) scale(0.100000,-0.100000)"
fill="#000000" stroke="none">
<path d="M155 1700 c-3 -5 -22 -10 -42 -10 l-36 0 -39 -42 -38 -41 0 -78 0
-77 115 -117 c63 -65 115 -123 115 -129 -1 -6 -7 -22 -15 -36 -10 -17 -14 -58
-15 -128 0 -135 22 -205 91 -279 27 -30 53 -71 59 -91 5 -21 26 -53 46 -72 20
-19 54 -57 76 -85 76 -95 201 -227 240 -251 21 -13 63 -47 93 -74 30 -28 62
-50 71 -50 9 0 38 -20 66 -44 28 -24 67 -52 87 -62 20 -9 44 -21 53 -25 10 -5
58 -9 106 -9 l89 0 10 38 c6 20 16 58 22 85 l11 47 -44 89 c-36 71 -55 96 -93
124 -27 19 -57 45 -68 57 -11 12 -70 55 -131 96 l-110 74 -135 0 c-153 0 -166
5 -200 73 -12 23 -37 67 -56 97 -91 143 -113 189 -113 230 l0 41 47 27 c78 46
103 75 103 121 l0 41 -36 40 c-20 22 -48 43 -63 47 -14 3 -45 25 -68 47 -22
23 -59 56 -82 75 -46 37 -52 62 -19 85 31 22 204 22 255 1 23 -10 69 -15 132
-15 l97 0 84 -30 c47 -16 94 -30 105 -30 10 0 60 -13 110 -29 134 -43 173 -52
250 -60 48 -4 80 -13 100 -28 33 -23 322 -123 358 -123 12 0 42 -14 67 -30 25
-16 51 -30 58 -30 20 0 82 -30 126 -62 29 -21 51 -28 86 -28 l46 0 29 -30 c16
-16 36 -30 45 -30 8 0 31 -11 51 -24 44 -30 237 -96 281 -96 25 0 43 11 85 55
29 30 57 55 62 55 5 0 23 -17 40 -39 21 -26 42 -41 64 -45 34 -6 147 -96 187
-149 12 -15 28 -27 37 -27 30 0 139 -77 242 -172 58 -54 113 -98 122 -98 23 0
120 -72 147 -109 14 -19 37 -34 62 -41 26 -7 64 -34 115 -80 58 -55 81 -70
105 -70 17 0 47 -7 67 -15 19 -8 63 -15 97 -15 l62 0 42 31 42 31 -1 126 0
127 -115 105 c-64 58 -136 125 -160 149 l-44 44 -98 33 c-53 18 -105 33 -115
34 -26 0 -77 -54 -77 -83 0 -26 28 -57 51 -57 8 0 28 -9 44 -21 17 -11 55 -33
85 -48 98 -51 210 -166 210 -217 0 -21 -23 -54 -39 -54 -3 0 -44 25 -90 55
-45 31 -105 67 -132 80 -27 14 -79 54 -116 88 -38 35 -81 71 -98 82 -16 10
-50 37 -75 60 -25 23 -79 63 -120 90 -41 27 -88 61 -105 76 -16 14 -54 38 -82
53 -29 14 -83 55 -120 90 -38 35 -88 73 -113 86 -25 12 -65 39 -90 59 -25 20
-79 59 -120 86 -41 27 -105 78 -142 112 -37 35 -74 63 -83 63 -9 0 -42 26 -73
58 l-57 59 -59 13 -59 14 -35 -20 c-19 -10 -40 -27 -46 -36 -17 -28 5 -68 54
-103 30 -21 55 -50 75 -88 l30 -57 38 -11 c41 -11 77 -53 60 -70 -8 -8 -33 0
-84 25 -40 20 -87 36 -103 36 -17 0 -73 20 -124 45 -52 25 -99 45 -105 45 -7
0 -41 14 -75 30 -35 17 -75 30 -88 30 -14 0 -41 7 -61 15 -19 8 -47 15 -61 15
-13 0 -64 18 -111 41 -124 59 -192 79 -262 79 -46 0 -97 11 -198 44 -148 48
-201 63 -273 76 -26 5 -56 13 -67 19 -11 6 -78 11 -155 11 -79 0 -137 4 -141
10 -4 6 -53 10 -115 10 -62 0 -111 -4 -115 -10z m745 -1305 c26 -19 51 -42 54
-51 3 -8 30 -26 60 -40 30 -13 60 -31 67 -40 l12 -15 -16 -16 -16 -16 -55 38
c-31 21 -63 49 -71 62 -9 12 -25 23 -36 23 -44 0 -85 42 -73 74 9 23 21 20 74
-19z"/>
</g>
</svg>
