<?xml version="1.0" standalone="no"?>
<!DOCTYPE svg PUBLIC "-//W3C//DTD SVG 20010904//EN"
 "http://www.w3.org/TR/2001/REC-SVG-20010904/DTD/svg10.dtd">
<svg version="1.0" xmlns="http://www.w3.org/2000/svg"
 width="330.000000pt" height="369.000000pt" viewBox="0 0 330.000000 369.000000"
 preserveAspectRatio="xMidYMid meet">
<metadata>
Created by potrace 1.16, written by Peter Selinger 2001-2019
</metadata>
<g transform="translate(0.000000,369.000000) scale(0.100000,-0.100000)"
fill="#000000" stroke="none">
<path d="M275 3680 c-3 -5 -14 -10 -24 -10 -10 0 -35 -20 -55 -45 -21 -25 -42
-45 -47 -45 -25 0 -91 -54 -109 -90 -16 -31 -20 -59 -20 -129 0 -49 -4 -93
-10 -96 -13 -8 -13 -102 0 -110 6 -3 10 -39 10 -80 l0 -73 30 -64 c16 -34 30
-70 30 -78 0 -8 18 -41 40 -73 22 -33 42 -75 45 -95 16 -100 46 -166 95 -214
33 -31 51 -58 55 -81 9 -45 106 -186 214 -310 29 -34 66 -87 82 -119 19 -38
42 -65 71 -85 27 -18 54 -48 71 -80 17 -32 46 -66 76 -87 26 -20 61 -54 76
-76 15 -22 49 -56 75 -75 26 -19 60 -53 75 -75 15 -22 49 -56 74 -74 25 -19
62 -51 81 -71 19 -21 53 -49 75 -63 22 -14 67 -51 100 -82 33 -31 73 -65 90
-75 16 -10 50 -37 75 -60 25 -23 83 -67 130 -98 47 -31 101 -72 120 -92 19
-19 50 -40 70 -45 20 -5 54 -25 77 -44 22 -20 73 -52 114 -72 81 -40 139 -88
139 -115 0 -30 -40 -49 -101 -49 -31 0 -73 -7 -92 -15 -53 -22 -511 -22 -564
0 -22 9 -67 15 -120 15 -52 0 -97 6 -120 15 -19 8 -47 15 -61 15 -14 0 -81 27
-149 60 -69 33 -137 60 -152 60 -28 0 -90 39 -126 80 -26 29 -87 60 -118 60
-35 0 -121 -93 -108 -117 24 -44 122 -124 199 -164 46 -23 91 -53 100 -68 9
-14 43 -51 75 -83 l57 -57 0 -71 0 -71 -25 -24 c-14 -15 -36 -25 -53 -25 -16
0 -46 -7 -65 -15 -20 -8 -50 -15 -67 -15 -20 0 -40 -9 -56 -25 l-25 -25 22
-40 23 -40 152 0 c91 0 155 4 159 10 3 6 14 10 24 10 11 0 44 31 80 77 l61 77
0 77 c0 43 -5 90 -10 105 -8 21 -8 31 3 41 l14 14 38 -15 c27 -12 72 -16 167
-16 92 0 139 -4 165 -15 52 -22 494 -22 546 0 21 8 67 15 106 15 l70 0 64 30
c36 17 72 30 79 30 8 0 27 13 43 30 16 16 33 30 38 30 4 0 33 -11 62 -25 30
-13 102 -40 160 -60 l105 -35 212 0 211 0 39 42 38 41 0 88 0 88 -41 28 c-23
15 -65 47 -94 70 -52 41 -183 113 -206 113 -6 0 -40 14 -76 30 -81 38 -116 38
-173 0 -25 -16 -52 -30 -60 -30 -8 0 -35 -14 -60 -30 -25 -16 -52 -30 -61 -30
-8 0 -28 -13 -44 -30 l-29 -30 -57 0 -57 0 -44 35 c-47 37 -130 85 -149 85
-17 0 -105 56 -162 103 -26 21 -64 43 -83 49 -20 5 -63 35 -102 72 -37 34
-101 84 -142 111 -41 27 -100 73 -131 102 -30 29 -74 65 -98 81 -23 16 -86 71
-139 123 -53 52 -113 105 -133 119 -21 13 -50 45 -67 70 -17 25 -50 58 -74 73
-24 16 -54 45 -68 65 -13 20 -43 57 -65 82 -23 25 -50 59 -60 75 -11 17 -47
60 -81 97 -43 45 -80 101 -118 175 -60 116 -67 139 -38 128 9 -4 40 -10 69
-15 29 -5 61 -14 72 -19 13 -7 126 -11 315 -11 l295 0 145 48 c104 35 155 57
181 80 19 18 53 41 73 51 21 11 43 25 49 33 18 21 50 128 58 188 7 64 7 63 -3
205 -8 122 -10 128 -105 270 -78 116 -130 170 -192 202 -27 14 -70 42 -95 63
-46 38 -120 80 -141 80 -7 0 -51 18 -98 41 -47 22 -113 49 -146 60 -33 11 -68
24 -77 29 -24 14 -705 13 -713 0z m743 -181 c35 -16 68 -29 74 -29 17 0 81
-32 122 -62 23 -17 52 -28 71 -28 21 0 47 -12 75 -32 24 -18 62 -46 84 -62 59
-41 93 -74 132 -131 19 -27 48 -68 64 -89 l30 -39 0 -57 c0 -32 7 -75 16 -95
l16 -38 -15 -41 c-8 -23 -17 -58 -20 -79 -7 -44 -42 -97 -65 -97 -9 0 -37 -14
-62 -30 -25 -16 -50 -30 -57 -30 -6 0 -41 -14 -76 -30 l-65 -30 -306 0 -307 0
-36 15 c-19 8 -47 15 -61 15 -35 0 -221 91 -255 125 -15 16 -30 40 -34 54 -3
14 -26 66 -50 115 -23 49 -43 95 -43 102 0 7 -13 41 -30 76 l-30 63 0 148 0
148 31 27 c16 15 56 53 89 84 l58 57 108 3 c60 2 192 1 294 -1 l185 -3 63 -29z
m1955 -2838 c49 -23 112 -84 103 -100 -5 -7 -61 -11 -161 -11 l-154 0 -36 31
c-20 18 -35 39 -33 47 10 51 195 72 281 33z"/>
</g>
</svg>
