<?xml version="1.0" standalone="no"?>
<!DOCTYPE svg PUBLIC "-//W3C//DTD SVG 20010904//EN"
 "http://www.w3.org/TR/2001/REC-SVG-20010904/DTD/svg10.dtd">
<svg version="1.0" xmlns="http://www.w3.org/2000/svg"
 width="165.000000pt" height="639.000000pt" viewBox="0 0 165.000000 639.000000"
 preserveAspectRatio="xMidYMid meet">
<metadata>
Created by potrace 1.16, written by Peter Selinger 2001-2019
</metadata>
<g transform="translate(0.000000,639.000000) scale(0.100000,-0.100000)"
fill="#000000" stroke="none">
<path d="M365 6380 c-3 -5 -14 -10 -23 -10 -16 0 -118 -64 -156 -98 -29 -26
-166 -236 -166 -255 0 -8 -4 -19 -10 -22 -13 -8 -13 -372 0 -380 6 -3 10 -21
10 -39 0 -21 11 -49 31 -76 55 -76 89 -159 89 -220 1 -80 31 -158 75 -194 20
-16 48 -52 62 -80 14 -28 35 -62 48 -76 39 -43 115 -161 156 -241 24 -49 52
-88 74 -104 19 -15 35 -36 35 -46 0 -10 25 -47 56 -81 31 -35 67 -85 81 -113
14 -27 50 -85 80 -128 29 -44 63 -98 75 -121 11 -22 49 -71 84 -108 37 -40 67
-82 73 -103 5 -20 33 -61 61 -92 28 -31 63 -79 77 -107 14 -28 48 -76 76 -106
56 -62 86 -120 87 -166 0 -22 12 -46 41 -80 47 -57 78 -118 79 -155 0 -15 7
-43 15 -62 9 -23 15 -68 15 -121 l0 -84 -45 -91 -46 -91 -56 -40 c-43 -30 -66
-40 -96 -40 -22 0 -61 -8 -88 -17 l-49 -18 -49 18 c-35 12 -80 17 -162 17
l-114 0 -45 30 c-25 16 -51 30 -58 30 -20 0 -82 30 -119 58 -17 13 -47 27 -65
33 -40 11 -70 36 -103 90 -26 40 -105 89 -145 89 -12 0 -35 -13 -51 -29 l-29
-29 0 -51 0 -50 60 -122 c33 -67 60 -129 60 -137 0 -9 16 -41 36 -71 76 -119
114 -191 114 -218 0 -26 32 -80 117 -193 l33 -43 0 -47 0 -48 41 -48 c40 -48
109 -175 109 -201 0 -16 100 -215 129 -258 12 -16 21 -42 21 -58 0 -30 58
-153 97 -205 31 -41 53 -94 53 -127 0 -35 32 -96 85 -160 33 -41 51 -78 75
-154 18 -55 47 -124 66 -153 52 -81 74 -130 74 -164 0 -19 12 -48 31 -74 35
-48 89 -157 89 -180 1 -14 24 -60 65 -127 l20 -33 53 0 52 0 0 54 c0 35 -5 58
-15 66 -8 7 -22 35 -30 62 -8 27 -23 61 -34 76 -22 31 -61 136 -61 164 0 33
-41 142 -66 175 -36 47 -84 154 -84 186 0 26 -88 211 -129 272 -12 17 -21 42
-21 58 0 15 -30 87 -66 160 -37 72 -79 171 -95 218 -18 56 -48 116 -83 170
-37 54 -56 94 -56 113 0 17 -15 53 -36 85 -76 119 -114 191 -114 218 0 18 -22
60 -61 118 -70 102 -89 142 -89 183 0 16 -13 47 -29 69 -58 80 -78 143 -46
143 8 0 40 -11 71 -25 31 -14 62 -25 68 -25 6 0 40 -14 74 -30 47 -22 79 -30
118 -30 30 0 71 -7 91 -15 48 -20 198 -20 246 0 21 9 67 15 110 15 l74 0 44
32 c56 40 167 155 197 203 l22 36 0 220 c0 121 -4 227 -9 237 -4 9 -23 49 -40
87 -18 39 -46 91 -62 116 -16 25 -29 60 -29 77 0 20 -10 43 -29 64 -38 44
-117 161 -143 212 -11 22 -43 65 -70 95 -27 30 -52 67 -55 83 -3 17 -21 41
-47 61 -52 40 -61 51 -93 112 -14 28 -48 74 -75 104 -27 30 -67 89 -88 131
-24 48 -52 86 -74 104 -23 17 -51 56 -76 106 -21 43 -64 115 -95 161 -30 46
-55 91 -55 100 0 9 -18 39 -40 65 -42 50 -57 85 -45 103 4 7 71 11 189 11 141
0 192 4 219 15 23 9 69 15 124 15 l88 0 45 30 c25 16 52 30 61 30 9 0 39 18
65 40 27 22 65 45 85 50 40 11 109 79 109 108 0 9 14 37 30 62 22 32 30 57 30
88 0 23 7 59 15 79 24 57 5 169 -49 283 -14 30 -26 70 -26 89 l0 34 -117 119
c-159 161 -345 288 -440 301 -23 3 -55 14 -72 26 l-29 21 -240 0 c-150 0 -243
-4 -247 -10z m603 -245 l193 -96 73 -69 c40 -38 79 -84 88 -102 9 -18 37 -78
62 -133 l46 -100 0 -55 c0 -42 -8 -72 -34 -125 -29 -62 -87 -135 -107 -135 -4
0 -29 -18 -55 -41 -77 -63 -120 -79 -217 -79 -53 0 -98 -6 -120 -15 -27 -11
-75 -15 -177 -15 -102 0 -150 4 -177 15 -19 8 -61 15 -93 15 -40 0 -64 5 -79
18 -12 10 -36 64 -60 137 -22 67 -58 159 -80 205 l-41 84 0 131 0 131 35 72
c46 97 121 171 217 217 l73 35 130 0 129 0 194 -95z"/>
</g>
</svg>
