<?xml version="1.0" standalone="no"?>
<!DOCTYPE svg PUBLIC "-//W3C//DTD SVG 20010904//EN"
 "http://www.w3.org/TR/2001/REC-SVG-20010904/DTD/svg10.dtd">
<svg version="1.0" xmlns="http://www.w3.org/2000/svg"
 width="273.000000pt" height="603.000000pt" viewBox="0 0 273.000000 603.000000"
 preserveAspectRatio="xMidYMid meet">
<metadata>
Created by potrace 1.16, written by Peter Selinger 2001-2019
</metadata>
<g transform="translate(0.000000,603.000000) scale(0.100000,-0.100000)"
fill="#000000" stroke="none">
<path d="M300 6021 c-8 -5 -36 -18 -62 -30 -53 -23 -143 -93 -200 -154 l-38
-40 0 -160 0 -159 18 -26 c10 -15 44 -78 75 -140 32 -63 75 -135 96 -160 21
-26 49 -67 61 -92 12 -25 48 -72 79 -105 31 -33 79 -94 106 -135 27 -41 67
-95 90 -120 23 -25 50 -59 60 -75 11 -17 38 -51 61 -76 23 -25 53 -64 67 -86
24 -37 52 -64 111 -106 14 -10 30 -35 36 -57 7 -25 22 -48 41 -62 17 -13 53
-53 80 -89 27 -37 64 -77 82 -89 19 -13 45 -39 58 -59 13 -20 61 -76 106 -124
46 -48 83 -92 83 -97 0 -6 34 -47 75 -91 41 -45 75 -86 75 -90 0 -5 32 -43 70
-85 39 -42 82 -99 97 -127 14 -28 43 -72 63 -97 21 -25 65 -102 99 -171 l61
-125 0 -82 c0 -98 -10 -126 -52 -152 -26 -16 -51 -20 -117 -20 -100 0 -129 14
-189 94 -28 37 -50 55 -70 59 -31 6 -66 39 -104 97 -16 23 -38 40 -68 50 -33
11 -52 27 -73 58 -18 26 -47 52 -76 67 -57 28 -176 108 -211 141 -24 22 -195
84 -232 84 -22 0 -115 -45 -141 -68 -26 -23 -23 -111 4 -146 12 -15 29 -48 38
-74 13 -36 28 -54 68 -82 28 -19 78 -61 111 -93 33 -31 69 -57 80 -57 10 0 29
-12 43 -26 13 -14 41 -35 63 -46 21 -11 57 -33 79 -49 30 -22 51 -29 86 -29
51 0 140 -37 211 -89 26 -19 55 -31 74 -31 30 0 155 -55 186 -82 8 -7 30 -32
48 -56 19 -23 41 -42 51 -42 21 0 41 -19 41 -40 0 -19 58 -104 135 -198 33
-40 74 -95 91 -122 17 -26 51 -71 77 -100 26 -29 50 -64 54 -79 9 -40 40 -98
97 -181 54 -78 86 -139 86 -161 0 -8 25 -50 55 -94 33 -49 64 -110 79 -157 14
-43 34 -97 45 -120 29 -62 91 -249 91 -274 0 -12 7 -38 15 -57 11 -28 15 -78
15 -205 l0 -168 -21 -59 c-11 -33 -27 -75 -36 -94 -23 -51 -97 -117 -151 -136
-26 -9 -85 -35 -132 -58 -90 -45 -105 -64 -74 -98 l17 -19 93 0 c51 0 96 4 99
10 3 5 16 10 28 10 12 0 48 8 81 17 l58 18 46 60 c25 33 65 78 89 101 33 31
43 48 43 73 0 17 7 48 15 68 8 19 15 48 15 64 0 15 4 31 10 34 13 8 13 372 0
380 -5 3 -10 37 -10 75 0 79 -53 256 -96 319 -13 20 -24 41 -24 48 0 6 -13 41
-30 76 -17 36 -30 78 -30 95 0 16 -13 46 -29 68 -15 22 -44 72 -64 111 -20 40
-61 108 -91 153 -30 44 -71 111 -90 149 -31 61 -140 210 -166 226 -6 4 -10 15
-10 26 0 10 -32 53 -70 95 -42 45 -73 88 -77 106 -4 20 -23 42 -67 75 -78 59
-88 71 -76 93 5 10 44 36 87 58 102 53 155 109 182 189 29 85 27 130 -9 206
-17 36 -30 70 -30 75 0 6 -20 52 -45 104 -25 51 -45 101 -45 110 0 9 -16 29
-35 44 -33 25 -104 122 -138 190 -9 17 -33 44 -54 59 -49 37 -57 48 -94 118
-19 36 -42 65 -61 75 -55 31 -76 52 -83 83 -4 16 -24 50 -45 74 -21 24 -53 65
-71 90 -18 25 -54 61 -79 79 -25 18 -58 52 -75 77 -16 24 -58 74 -92 111 -34
37 -69 81 -78 98 -9 16 -33 41 -55 55 -22 14 -47 37 -57 52 -9 16 -33 46 -54
68 -20 22 -50 58 -66 81 -67 97 -101 140 -145 184 -25 26 -54 63 -63 81 -10
19 -37 54 -60 79 -23 25 -50 59 -61 75 -10 17 -35 50 -55 75 -20 25 -48 68
-62 95 -14 28 -35 64 -46 80 -12 17 -21 36 -21 44 0 8 -11 28 -23 45 -29 37
-49 81 -77 163 l-21 62 20 44 c24 52 107 147 155 176 24 15 42 19 70 14 44 -7
56 4 56 56 0 27 -8 42 -42 73 -42 38 -82 48 -118 29z m560 -2881 c12 -17 60
-56 107 -86 46 -31 93 -70 103 -86 10 -16 27 -36 39 -44 32 -23 25 -34 -18
-34 -30 0 -50 9 -88 38 -26 21 -86 63 -134 95 -78 52 -129 102 -129 126 0 13
19 19 62 20 l37 1 21 -30z"/>
</g>
</svg>
