<?xml version="1.0" standalone="no"?>
<!DOCTYPE svg PUBLIC "-//W3C//DTD SVG 20010904//EN"
 "http://www.w3.org/TR/2001/REC-SVG-20010904/DTD/svg10.dtd">
<svg version="1.0" xmlns="http://www.w3.org/2000/svg"
 width="594.000000pt" height="168.000000pt" viewBox="0 0 594.000000 168.000000"
 preserveAspectRatio="xMidYMid meet">
<metadata>
Created by potrace 1.16, written by Peter Selinger 2001-2019
</metadata>
<g transform="translate(0.000000,168.000000) scale(0.100000,-0.100000)"
fill="#000000" stroke="none">
<path d="M3283 1657 c-18 -12 -47 -31 -65 -42 -25 -15 -37 -35 -55 -85 -12
-36 -23 -74 -23 -84 0 -11 20 -38 45 -62 25 -23 45 -49 45 -59 0 -9 26 -44 58
-78 104 -110 111 -133 62 -207 -35 -53 -37 -68 -11 -118 11 -20 25 -64 32 -97
l13 -60 61 -65 c34 -36 70 -78 80 -93 9 -15 39 -43 66 -62 26 -20 58 -52 70
-72 l22 -36 -17 -31 c-17 -32 -62 -66 -88 -66 -7 0 -30 -11 -50 -25 -39 -26
-229 -95 -264 -95 -12 0 -38 -7 -57 -15 l-36 -15 -561 0 -561 0 -36 15 c-19 8
-65 15 -102 15 -36 0 -86 6 -111 14 -60 19 -125 35 -182 46 -26 5 -56 13 -67
19 -11 6 -38 11 -61 11 -22 0 -57 7 -77 15 -19 8 -60 15 -90 15 -29 0 -70 7
-90 15 -19 8 -47 15 -62 15 -14 0 -46 14 -71 30 -25 17 -58 30 -75 30 -16 0
-59 14 -93 30 -39 18 -80 30 -105 30 -26 0 -54 8 -72 21 -58 39 -166 90 -255
119 -68 21 -119 48 -207 107 -65 43 -131 90 -148 104 -50 44 -90 60 -119 49
l-26 -10 0 -43 0 -44 23 -12 c12 -7 34 -29 49 -50 17 -24 80 -74 162 -129 162
-109 172 -114 283 -150 48 -16 107 -39 130 -51 23 -11 48 -21 55 -21 7 0 42
-14 76 -30 35 -17 76 -30 90 -30 15 0 47 -14 72 -30 25 -16 52 -30 60 -30 8 0
44 -14 78 -30 35 -17 75 -30 88 -30 14 0 41 -7 61 -15 20 -8 66 -15 105 -15
38 0 84 -7 105 -15 19 -8 53 -15 75 -15 21 0 55 -7 75 -15 19 -8 45 -15 57
-15 12 0 60 -13 106 -30 62 -21 104 -30 153 -30 37 0 84 -7 104 -15 l35 -15
299 0 c188 0 300 -4 304 -10 3 -6 48 -10 100 -10 52 0 97 4 100 10 4 6 86 10
213 10 l207 0 85 30 c46 17 101 30 121 30 24 0 71 16 130 45 51 25 100 45 110
45 27 0 139 87 139 109 0 10 16 31 35 45 42 32 85 112 85 158 -1 82 -83 158
-171 158 -53 0 -94 26 -170 106 -73 78 -79 90 -79 170 l0 71 29 41 c16 22 34
43 40 47 27 16 10 59 -46 120 -174 185 -203 246 -148 300 l24 25 131 0 c93 0
141 -4 167 -15 19 -8 53 -15 75 -15 21 0 55 -7 75 -15 19 -8 45 -15 56 -15 12
0 81 -20 154 -45 73 -25 150 -45 171 -45 25 0 70 -15 131 -45 51 -25 99 -45
107 -45 8 0 26 -11 39 -25 l25 -24 0 -139 0 -139 48 -63 c93 -124 363 -382
475 -453 15 -10 53 -40 83 -68 30 -27 62 -49 72 -49 9 0 37 -14 62 -30 25 -16
52 -30 60 -30 8 0 35 -14 60 -30 l45 -30 139 0 140 0 65 44 c37 24 76 58 89
75 l22 30 0 136 0 136 -113 112 c-123 121 -198 182 -274 221 -26 13 -70 43
-97 65 -26 23 -56 41 -65 41 -23 0 -193 83 -234 114 -49 37 -113 66 -144 66
-29 0 -60 16 -103 56 -24 21 -222 94 -258 94 -21 0 -241 74 -280 94 -48 25
-150 56 -183 56 -18 0 -94 20 -168 44 -174 56 -215 67 -276 73 -27 3 -54 9
-60 14 -5 5 -90 9 -190 8 l-180 -1 -32 -21z m1656 -552 c40 -19 85 -35 100
-35 28 0 90 -39 126 -80 24 -27 82 -57 147 -76 26 -8 73 -35 102 -59 30 -24
76 -55 103 -69 46 -23 113 -81 113 -98 0 -4 25 -26 55 -49 30 -23 64 -56 75
-74 39 -63 19 -143 -44 -181 l-31 -19 -94 2 -94 2 -63 30 c-35 17 -79 42 -98
56 -19 14 -50 31 -70 36 -20 5 -44 22 -53 36 -10 15 -38 45 -62 69 -55 53 -89
87 -144 144 -24 25 -55 53 -69 62 -14 9 -38 41 -53 69 -15 29 -40 69 -55 89
-17 21 -30 54 -35 84 l-7 48 23 24 c30 31 41 30 128 -11z"/>
</g>
</svg>
