<?xml version="1.0" standalone="no"?>
<!DOCTYPE svg PUBLIC "-//W3C//DTD SVG 20010904//EN"
 "http://www.w3.org/TR/2001/REC-SVG-20010904/DTD/svg10.dtd">
<svg version="1.0" xmlns="http://www.w3.org/2000/svg"
 width="492.000000pt" height="381.000000pt" viewBox="0 0 492.000000 381.000000"
 preserveAspectRatio="xMidYMid meet">
<metadata>
Created by potrace 1.16, written by Peter Selinger 2001-2019
</metadata>
<g transform="translate(0.000000,381.000000) scale(0.100000,-0.100000)"
fill="#000000" stroke="none">
<path d="M1820 3777 c0 -49 25 -67 94 -67 67 0 144 -31 201 -81 38 -34 121
-68 165 -69 30 0 197 -79 245 -115 18 -15 49 -31 69 -36 19 -5 60 -32 89 -59
30 -27 71 -55 91 -62 35 -12 54 -26 181 -125 29 -23 76 -54 104 -68 28 -15 63
-43 79 -62 15 -19 50 -47 77 -62 28 -16 62 -45 77 -67 15 -22 46 -53 70 -68
24 -15 59 -50 78 -79 25 -36 45 -55 69 -62 23 -7 47 -28 82 -76 27 -37 64 -77
82 -89 19 -13 44 -39 57 -59 14 -20 66 -78 117 -130 111 -113 203 -244 203
-290 0 -34 24 -86 64 -140 24 -32 61 -138 85 -244 12 -51 7 -74 -12 -59 -7 5
-52 22 -102 37 -49 15 -125 45 -167 66 -43 22 -89 39 -103 39 -14 0 -42 7 -62
15 -25 10 -71 15 -154 15 l-119 0 -73 -36 c-87 -44 -121 -74 -153 -136 -35
-69 -33 -147 6 -230 16 -34 30 -76 30 -91 0 -42 35 -102 78 -133 21 -15 51
-45 66 -66 31 -43 91 -78 133 -78 16 0 45 -11 64 -24 69 -47 148 -66 273 -66
l114 0 64 30 c34 16 70 30 78 30 8 1 51 20 95 43 l79 42 34 58 c34 59 43 64
78 44 43 -24 193 -198 210 -243 25 -66 11 -74 -68 -41 l-63 27 -108 0 -108 0
-53 -50 -54 -51 -22 -68 -21 -68 21 -63 c44 -131 91 -187 207 -251 38 -20 69
-43 71 -51 2 -11 -30 -32 -99 -67 l-102 -51 -102 0 c-69 0 -115 -5 -138 -15
-29 -12 -85 -15 -270 -15 -186 0 -242 -3 -270 -15 l-36 -15 -261 0 -261 0 -36
15 c-25 11 -72 15 -165 15 -92 0 -139 4 -165 15 -19 8 -53 15 -75 15 -21 0
-55 7 -75 15 -19 8 -52 15 -72 15 -20 0 -75 13 -121 30 -50 17 -106 30 -135
30 -27 0 -90 13 -140 29 -100 32 -160 49 -220 60 -22 4 -62 16 -88 26 l-48 18
6 21 c4 12 9 53 12 91 l5 70 -31 65 c-17 36 -31 72 -31 80 0 16 -54 99 -111
171 -19 24 -42 55 -51 69 -8 14 -35 38 -59 53 -24 15 -60 51 -79 80 -28 41
-45 55 -78 66 -24 7 -66 35 -95 61 -56 51 -112 83 -164 95 -18 3 -58 24 -90
46 -33 22 -70 39 -86 39 -15 0 -44 7 -64 15 -20 8 -66 15 -105 15 -38 0 -84 7
-105 15 -24 10 -69 15 -142 15 l-106 -1 -41 -22 c-23 -12 -69 -47 -103 -78
l-61 -56 0 -41 c0 -22 5 -44 10 -47 6 -3 10 -20 10 -36 0 -57 45 -121 162
-232 155 -147 168 -160 206 -206 19 -23 48 -44 66 -50 18 -4 73 -35 123 -68
50 -33 106 -65 124 -72 19 -7 48 -19 64 -28 93 -50 144 -80 179 -105 29 -21
51 -28 83 -28 50 0 145 -40 214 -89 l42 -31 89 0 c56 0 102 -5 125 -15 20 -8
66 -15 105 -15 38 0 84 -7 105 -15 19 -8 45 -15 57 -15 12 0 60 -13 106 -30
47 -16 101 -30 120 -30 20 0 74 -13 120 -30 68 -24 102 -30 168 -30 50 0 97
-6 119 -15 19 -8 53 -15 75 -15 21 0 55 -7 75 -15 24 -10 71 -15 150 -15 78 0
125 -5 150 -15 l35 -15 269 0 c168 0 270 -4 274 -10 8 -13 102 -13 110 0 8 13
62 13 70 0 8 -13 72 -13 80 0 3 6 40 10 81 10 42 0 85 5 97 12 20 11 150 24
317 31 43 2 101 16 170 40 58 20 115 37 128 37 46 0 156 68 239 147 65 62 91
95 123 159 22 45 49 89 60 99 l20 18 0 133 c0 78 -4 135 -10 139 -5 3 -10 14
-10 23 0 9 -14 37 -30 62 -16 25 -30 52 -30 61 0 33 -154 217 -219 260 -24 17
-73 56 -108 87 l-62 57 -1 68 c0 53 -9 96 -45 200 -25 73 -45 151 -45 173 0
30 -9 53 -35 90 -20 27 -42 70 -50 96 -7 26 -25 64 -39 85 -14 21 -26 44 -26
53 -1 21 -38 87 -85 149 -51 69 -602 628 -635 646 -14 7 -66 50 -115 94 -50
45 -111 93 -137 106 -26 14 -59 41 -74 61 -15 19 -46 45 -68 56 -23 11 -60 36
-84 56 -94 75 -189 132 -242 145 -14 4 -44 22 -66 41 -30 25 -74 46 -162 75
-67 22 -139 52 -159 66 -21 14 -44 25 -52 25 -14 0 -128 47 -183 76 -62 32
-94 48 -110 56 -10 4 -63 8 -118 8 l-100 0 0 -33z m1927 -2152 c19 -8 54 -15
77 -15 34 0 48 -6 70 -29 15 -16 43 -32 61 -35 18 -4 59 -24 92 -46 32 -22 66
-40 76 -40 19 0 70 -73 88 -127 20 -62 5 -98 -72 -171 -38 -36 -81 -74 -96
-84 l-28 -18 -108 0 c-134 0 -228 26 -291 81 -22 20 -53 39 -67 42 -14 4 -37
18 -51 32 -34 34 -98 225 -98 293 l0 51 57 40 56 41 99 0 c65 0 111 -5 135
-15z m-3390 -300 c26 -11 75 -15 182 -15 l146 0 40 -20 c116 -59 309 -189 335
-226 12 -19 44 -50 70 -69 33 -24 74 -74 133 -163 98 -146 102 -154 112 -240
l7 -62 -17 -26 -17 -26 -29 6 c-17 3 -44 16 -62 29 -18 13 -52 35 -77 48 -65
34 -79 48 -90 89 -13 47 -108 140 -143 140 -37 0 -55 -29 -59 -90 l-3 -55 -22
-3 c-13 -2 -37 8 -55 21 -39 29 -91 57 -129 67 -57 17 -255 160 -341 247 -105
106 -178 214 -178 261 0 49 16 72 49 72 16 0 44 7 62 15 43 18 42 18 86 0z
m4200 -606 c72 -45 106 -142 68 -196 -31 -44 -147 -54 -203 -17 -49 32 -80
162 -52 215 l11 19 71 0 c54 0 78 -5 105 -21z"/>
</g>
</svg>
