<?xml version="1.0" standalone="no"?>
<!DOCTYPE svg PUBLIC "-//W3C//DTD SVG 20010904//EN"
 "http://www.w3.org/TR/2001/REC-SVG-20010904/DTD/svg10.dtd">
<svg version="1.0" xmlns="http://www.w3.org/2000/svg"
 width="465.000000pt" height="360.000000pt" viewBox="0 0 465.000000 360.000000"
 preserveAspectRatio="xMidYMid meet">
<metadata>
Created by potrace 1.16, written by Peter Selinger 2001-2019
</metadata>
<g transform="translate(0.000000,360.000000) scale(0.100000,-0.100000)"
fill="#000000" stroke="none">
<path d="M500 3566 c0 -22 8 -44 23 -60 27 -31 130 -66 195 -66 28 0 83 -13
132 -30 54 -19 105 -30 139 -30 42 0 64 -6 100 -29 25 -16 60 -32 78 -36 17
-3 51 -23 75 -44 24 -21 58 -42 77 -46 21 -4 51 -25 80 -55 29 -31 76 -64 129
-90 l83 -41 117 -112 c64 -61 118 -119 120 -129 2 -10 29 -38 60 -62 82 -63
181 -170 237 -256 27 -41 70 -99 97 -128 26 -29 52 -68 57 -87 5 -19 27 -56
49 -82 22 -26 49 -67 61 -91 21 -42 134 -210 191 -286 17 -22 30 -51 30 -68 0
-43 36 -107 90 -160 34 -32 51 -58 56 -82 4 -26 18 -45 45 -67 46 -37 75 -94
58 -115 -16 -19 -130 -18 -176 1 -19 8 -45 15 -57 15 -12 0 -60 13 -106 30
l-85 30 -113 0 c-77 0 -124 5 -149 15 -45 19 -111 19 -156 0 -20 -8 -61 -15
-90 -15 -30 0 -71 -7 -90 -15 -20 -8 -56 -15 -79 -15 -31 0 -56 -8 -88 -30
-25 -16 -57 -30 -72 -30 -14 0 -68 -20 -120 -45 -63 -30 -106 -45 -134 -45
-23 0 -58 -7 -77 -15 -52 -22 -422 -22 -474 0 -19 8 -45 15 -57 15 -12 0 -60
13 -106 30 -47 16 -101 30 -120 30 -45 0 -142 34 -189 66 -19 13 -42 24 -51
24 -8 0 -44 14 -78 30 l-64 30 -74 0 -74 0 0 -22 c0 -44 146 -148 207 -148 15
0 42 -9 58 -21 110 -74 257 -129 350 -129 36 0 82 -7 102 -15 19 -8 60 -15 90
-15 29 0 70 -7 90 -15 51 -22 405 -22 456 0 20 8 52 15 72 15 20 0 77 13 128
29 122 39 189 53 218 46 17 -4 41 5 78 27 29 18 72 43 95 55 l41 23 203 0
c158 0 211 -3 239 -15 19 -8 45 -15 57 -15 11 0 41 -6 66 -14 108 -34 194 -52
330 -70 118 -16 159 -33 196 -81 13 -18 40 -43 58 -56 18 -12 43 -38 56 -58
13 -20 49 -63 80 -96 31 -33 68 -79 83 -101 14 -23 40 -52 57 -65 18 -13 45
-37 60 -54 219 -230 379 -386 405 -393 36 -11 124 -66 183 -116 24 -20 50 -36
58 -36 19 0 101 -37 136 -61 l26 -19 102 0 101 0 37 25 c20 14 40 25 45 25 4
0 26 14 48 32 l39 31 0 126 0 125 -21 22 c-11 12 -33 46 -49 75 -19 37 -43 65
-77 88 -27 19 -65 57 -84 85 -25 37 -45 54 -73 63 -20 7 -71 35 -111 63 -98
65 -148 90 -182 90 -16 0 -45 11 -66 25 -62 42 -212 114 -296 141 -48 15 -94
38 -117 58 -50 42 -116 76 -149 76 -14 0 -42 7 -62 15 -19 8 -47 15 -60 15
-36 0 -75 26 -103 68 -24 35 -81 111 -133 177 -56 71 -122 176 -169 269 -28
56 -60 115 -73 131 -12 17 -39 64 -60 105 -21 41 -59 99 -86 128 -27 30 -53
70 -59 91 -5 21 -19 46 -30 56 -31 28 -111 154 -121 191 -9 30 -52 75 -113
117 -14 10 -30 34 -35 55 -8 30 -57 83 -243 267 -129 127 -255 242 -281 257
-30 18 -47 34 -47 46 0 33 -39 71 -85 83 -27 7 -66 30 -107 65 -62 53 -163
114 -189 114 -7 0 -64 25 -127 55 -161 78 -216 95 -310 95 -70 0 -168 22 -189
43 -3 4 -60 7 -125 7 l-118 0 0 -34z m3005 -2602 c18 -8 46 -32 63 -53 l31
-38 73 -23 c40 -13 94 -36 119 -51 25 -16 51 -29 58 -29 20 0 81 -31 125 -62
23 -17 52 -28 71 -28 21 0 39 -9 56 -26 13 -14 44 -37 69 -50 115 -61 182
-118 241 -204 33 -47 64 -100 70 -117 l10 -33 -17 -28 c-24 -42 -64 -62 -124
-62 l-51 0 -67 40 c-36 22 -83 45 -102 50 -21 6 -73 41 -123 84 -48 42 -108
90 -132 107 -25 18 -52 43 -60 55 -8 13 -37 37 -63 55 -26 17 -59 47 -72 68
-13 20 -43 56 -65 81 -23 25 -50 59 -61 75 -10 17 -34 50 -54 75 -19 25 -44
60 -54 79 l-18 33 13 9 c19 12 26 11 64 -7z"/>
</g>
</svg>
