<?xml version="1.0" standalone="no"?>
<!DOCTYPE svg PUBLIC "-//W3C//DTD SVG 20010904//EN"
 "http://www.w3.org/TR/2001/REC-SVG-20010904/DTD/svg10.dtd">
<svg version="1.0" xmlns="http://www.w3.org/2000/svg"
 width="2304.000000pt" height="1680.000000pt" viewBox="0 0 2304.000000 1680.000000"
 preserveAspectRatio="xMidYMid meet">
<metadata>
Created by potrace 1.16, written by Peter Selinger 2001-2019
</metadata>
<g transform="translate(0.000000,1680.000000) scale(0.100000,-0.100000)"
fill="#000000" stroke="none">
<path d="M9487 16402 c-25 -27 -24 -143 1 -165 l19 -17 166 0 166 0 11 -19 c5
-11 10 -44 10 -74 0 -40 5 -58 18 -70 l19 -17 166 0 166 0 11 -19 c5 -11 10
-51 10 -89 0 -54 4 -72 18 -85 l19 -17 166 0 166 0 11 -19 c5 -11 10 -44 10
-74 0 -72 17 -87 98 -87 l61 0 11 -19 c5 -11 10 -51 10 -89 0 -54 4 -72 18
-85 l19 -17 166 0 166 0 11 -19 c5 -11 10 -44 10 -74 0 -40 5 -58 18 -70 l19
-17 151 0 151 0 11 -19 c5 -11 10 -44 10 -74 0 -75 15 -87 113 -87 l76 0 11
-19 c5 -11 10 -51 10 -89 0 -54 4 -72 18 -85 l19 -17 151 0 151 0 11 -19 c5
-11 10 -44 10 -74 0 -75 15 -87 113 -87 l76 0 11 -19 c5 -11 10 -44 10 -74 0
-40 5 -58 18 -70 l19 -17 151 0 151 0 11 -19 c5 -11 10 -51 10 -89 0 -54 4
-72 18 -85 l19 -17 166 0 166 0 11 -19 c5 -11 10 -44 10 -74 0 -75 15 -87 113
-87 l76 0 11 -19 c5 -11 10 -44 10 -74 0 -40 5 -58 18 -70 l19 -17 151 0 151
0 11 -19 c5 -11 10 -51 10 -89 0 -92 11 -102 113 -102 l76 0 11 -19 c5 -11 10
-44 10 -74 0 -40 5 -58 18 -70 l19 -17 151 0 151 0 11 -19 c5 -11 10 -44 10
-74 0 -75 15 -87 113 -87 l76 0 11 -19 c5 -11 10 -51 10 -89 0 -89 13 -102 98
-102 l61 0 11 -19 c5 -11 10 -44 10 -74 0 -40 5 -58 18 -70 l19 -17 166 0 166
0 11 -19 c5 -11 10 -44 10 -74 0 -72 17 -87 98 -87 l61 0 11 -19 c5 -11 10
-51 10 -89 0 -89 13 -102 98 -102 l61 0 11 -19 c5 -11 10 -44 10 -74 0 -75 15
-87 113 -87 l76 0 11 -19 c5 -11 10 -51 10 -89 0 -89 13 -102 98 -102 l61 0
11 -19 c5 -11 10 -44 10 -74 0 -72 17 -87 98 -87 l61 0 11 -19 c5 -11 10 -44
10 -74 0 -75 15 -87 113 -87 l76 0 11 -19 c5 -11 10 -51 10 -89 0 -54 4 -72
18 -85 l19 -17 151 0 151 0 11 -19 c5 -11 10 -44 10 -74 0 -75 15 -87 113 -87
l76 0 11 -19 c5 -11 10 -44 10 -74 0 -72 17 -87 98 -87 l61 0 11 -19 c5 -11
10 -51 10 -89 0 -92 11 -102 113 -102 l76 0 11 -19 c5 -11 10 -44 10 -74 0
-72 17 -87 98 -87 l61 0 11 -19 c5 -11 10 -44 10 -74 0 -72 17 -87 98 -87 l61
0 11 -19 c5 -11 10 -51 10 -89 0 -92 11 -102 113 -102 l76 0 11 -19 c5 -11 10
-44 10 -74 0 -72 17 -87 98 -87 l61 0 11 -19 c6 -11 10 -88 10 -179 l0 -159
18 -16 19 -17 166 0 166 0 11 -19 c5 -11 10 -84 10 -164 l0 -144 18 -16 c13
-12 37 -17 80 -17 l61 0 11 -19 c5 -11 10 -51 10 -89 0 -89 13 -102 98 -102
l61 0 11 -19 c5 -11 10 -44 10 -74 0 -75 15 -87 113 -87 l76 0 11 -19 c5 -11
10 -44 10 -74 0 -72 17 -87 98 -87 l61 0 11 -19 c6 -11 10 -88 10 -179 l0
-159 18 -16 c13 -12 37 -17 80 -17 l61 0 11 -19 c5 -11 10 -51 10 -89 0 -92
11 -102 113 -102 l76 0 11 -19 c5 -11 10 -44 10 -74 0 -72 17 -87 98 -87 l61
0 11 -19 c5 -11 10 -44 10 -74 0 -72 17 -87 98 -87 l61 0 11 -19 c5 -11 10
-51 10 -89 0 -92 11 -102 113 -102 l76 0 11 -19 c5 -11 10 -84 10 -164 l0
-144 18 -16 c13 -12 37 -17 80 -17 l61 0 11 -19 c5 -11 10 -51 10 -89 0 -89
13 -102 98 -102 l61 0 11 -19 c5 -11 10 -44 10 -74 0 -75 15 -87 113 -87 l76
0 11 -19 c5 -11 10 -44 10 -74 0 -72 17 -87 98 -87 l61 0 11 -19 c6 -11 10
-88 10 -179 l0 -159 18 -16 c14 -13 38 -17 95 -17 l76 0 11 -19 c6 -11 10 -88
10 -179 l0 -159 18 -16 c13 -12 37 -17 80 -17 l61 0 11 -19 c5 -11 10 -84 10
-164 l0 -144 18 -16 c13 -12 37 -17 80 -17 l61 0 11 -19 c6 -11 10 -88 10
-179 l0 -159 18 -16 c14 -13 38 -17 95 -17 l76 0 11 -19 c5 -11 10 -44 10 -74
0 -72 17 -87 98 -87 l61 0 11 -19 c6 -11 10 -88 10 -179 l0 -159 18 -16 c13
-12 37 -17 80 -17 l61 0 11 -19 c6 -12 10 -116 10 -269 l0 -249 18 -16 c14
-13 38 -17 95 -17 l76 0 11 -19 c6 -13 10 -149 10 -374 l0 -354 18 -16 c13
-12 37 -17 80 -17 l61 0 11 -19 c14 -27 14 -665 0 -692 l-11 -19 -63 0 c-48 0
-67 -4 -79 -18 l-17 -19 0 -157 c0 -89 -4 -166 -10 -177 l-11 -19 -168 0 -168
0 -16 -18 c-11 -12 -17 -36 -17 -71 0 -29 -5 -61 -10 -72 l-11 -19 -164 0
-164 0 -11 19 c-5 11 -10 44 -10 74 0 72 -17 87 -98 87 l-61 0 -11 19 c-5 11
-10 51 -10 89 0 89 -13 102 -98 102 l-61 0 -11 19 c-5 11 -10 44 -10 74 0 75
-15 87 -113 87 l-76 0 -11 19 c-5 11 -10 44 -10 74 0 72 -17 87 -98 87 l-61 0
-11 19 c-5 11 -10 51 -10 89 0 92 -11 102 -113 102 l-76 0 -11 19 c-5 11 -10
84 -10 164 l0 144 -18 16 c-13 12 -37 17 -80 17 l-61 0 -11 19 c-5 11 -10 51
-10 89 0 54 -4 72 -18 85 l-19 17 -260 0 -260 0 -16 -18 -17 -19 0 -260 0
-260 18 -16 c13 -12 37 -17 80 -17 l61 0 11 -19 c6 -11 10 -88 10 -179 l0
-159 18 -16 c14 -13 38 -17 95 -17 l76 0 11 -19 c6 -12 10 -112 10 -256 0
-144 -4 -244 -10 -256 l-11 -19 -78 0 -78 0 -16 -18 c-11 -12 -17 -36 -17 -71
0 -29 -5 -61 -10 -72 l-11 -19 -63 0 c-48 0 -67 -4 -79 -18 l-17 -19 0 -157
c0 -89 -4 -166 -10 -177 l-11 -19 -168 0 -168 0 -16 -18 c-12 -13 -17 -37 -17
-86 0 -37 -5 -76 -10 -87 l-11 -19 -153 0 -153 0 -16 -18 c-11 -12 -17 -36
-17 -71 0 -29 -5 -61 -10 -72 l-11 -19 -258 0 -258 0 -16 -18 c-11 -12 -17
-36 -17 -71 0 -29 -5 -61 -10 -72 l-11 -19 -453 0 -453 0 -16 -18 c-12 -13
-17 -37 -17 -86 0 -37 -5 -76 -10 -87 l-11 -19 -1408 0 c-1115 0 -1411 3
-1419 13 -5 6 -13 45 -17 85 l-7 73 -25 17 -26 16 -256 10 c-141 5 -287 8
-326 8 -38 -1 -416 -4 -840 -8 l-770 -5 -12 17 c-7 10 -13 43 -13 74 0 42 -5
61 -18 73 l-19 17 -211 0 -211 0 -15 16 c-9 8 -16 26 -16 38 0 67 -69 77 -479
70 l-326 -7 -29 32 -30 31 -348 0 -347 0 -11 19 c-5 11 -10 51 -10 89 0 54 -4
72 -18 85 l-19 17 -451 0 -451 0 -11 19 c-5 11 -10 44 -10 74 0 40 -5 58 -18
70 l-19 17 -361 0 -361 0 -11 19 c-5 11 -10 51 -10 89 0 54 -4 72 -18 85 l-19
17 -256 0 -256 0 -11 19 c-5 11 -10 44 -10 74 0 40 -5 58 -18 70 l-19 17 -346
0 -346 0 -11 19 c-5 11 -10 44 -10 74 0 40 -5 58 -18 70 l-19 17 -166 0 -166
0 -11 19 c-5 11 -10 51 -10 89 0 54 -4 72 -18 85 l-19 17 -256 0 -256 0 -11
19 c-5 11 -10 44 -10 74 0 40 -5 58 -18 70 l-19 17 -256 0 -256 0 -11 19 c-5
11 -10 44 -10 74 0 40 -5 58 -18 70 l-19 17 -256 0 -256 0 -11 19 c-5 11 -10
51 -10 89 0 54 -4 72 -18 85 l-19 17 -166 0 -166 0 -11 19 c-5 11 -10 44 -10
74 0 40 -5 58 -18 70 l-19 17 -151 0 -151 0 -11 19 c-5 11 -10 44 -10 74 0 40
-5 58 -18 70 l-19 17 -256 0 -256 0 -11 19 c-5 11 -10 51 -10 89 0 92 -11 102
-113 102 l-76 0 -11 19 c-5 11 -10 44 -10 74 0 40 -5 58 -18 70 l-19 17 -151
0 -151 0 -11 19 c-5 11 -10 44 -10 74 0 40 -5 58 -18 70 l-19 17 -166 0 -166
0 -11 19 c-5 11 -10 51 -10 89 0 54 -4 72 -18 85 l-19 17 -166 0 -166 0 -11
19 c-5 11 -10 44 -10 74 0 40 -5 58 -18 70 l-19 17 -166 0 -166 0 -11 19 c-5
11 -10 44 -10 74 0 72 -17 87 -98 87 l-61 0 -11 19 c-5 11 -10 51 -10 89 0 54
-4 72 -18 85 l-19 17 -166 0 -166 0 -11 19 c-5 11 -10 44 -10 74 0 72 -17 87
-98 87 l-61 0 -11 19 c-5 11 -10 51 -10 89 0 54 -4 72 -18 85 l-19 17 -166 0
-166 0 -11 19 c-5 11 -10 44 -10 74 0 40 -5 58 -18 70 l-19 17 -155 0 -155 0
-16 -18 c-12 -13 -17 -37 -17 -84 0 -84 14 -98 98 -98 l61 0 11 -19 c5 -11 10
-51 10 -89 0 -89 13 -102 98 -102 l61 0 11 -19 c5 -11 10 -44 10 -74 0 -40 5
-58 18 -70 l19 -17 166 0 166 0 11 -19 c5 -11 10 -51 10 -89 0 -89 13 -102 98
-102 l61 0 11 -19 c5 -11 10 -44 10 -74 0 -40 5 -58 18 -70 l19 -17 166 0 166
0 11 -19 c5 -11 10 -44 10 -74 0 -72 17 -87 98 -87 l61 0 11 -19 c5 -11 10
-51 10 -89 0 -54 4 -72 18 -85 l19 -17 166 0 166 0 11 -19 c5 -11 10 -44 10
-74 0 -40 5 -58 18 -70 l19 -17 166 0 166 0 11 -19 c5 -11 10 -44 10 -74 0
-72 17 -87 98 -87 l61 0 11 -19 c5 -11 10 -51 10 -89 0 -54 4 -72 18 -85 l19
-17 256 0 256 0 11 -19 c5 -11 10 -44 10 -74 0 -75 15 -87 113 -87 l76 0 11
-19 c5 -11 10 -44 10 -74 0 -40 5 -58 18 -70 l19 -17 256 0 256 0 11 -19 c5
-11 10 -51 10 -89 0 -54 4 -72 18 -85 l19 -17 151 0 151 0 11 -19 c5 -11 10
-44 10 -74 0 -40 5 -58 18 -70 l19 -17 256 0 256 0 11 -19 c5 -11 10 -44 10
-74 0 -40 5 -58 18 -70 l19 -17 166 0 166 0 11 -19 c5 -11 10 -51 10 -89 0
-54 4 -72 18 -85 l19 -17 256 0 256 0 11 -19 c5 -11 10 -44 10 -74 0 -40 5
-58 18 -70 l19 -17 256 0 256 0 11 -19 c5 -11 10 -44 10 -74 0 -40 5 -58 18
-70 l19 -17 256 0 256 0 11 -19 c5 -11 10 -51 10 -89 0 -54 4 -72 18 -85 l19
-17 256 0 256 0 11 -19 c5 -11 10 -44 10 -74 0 -40 5 -58 18 -70 l19 -17 256
0 256 0 11 -19 c5 -11 10 -51 10 -89 0 -54 4 -72 18 -85 l19 -17 361 0 361 0
11 -19 c5 -11 10 -44 10 -74 0 -40 5 -58 18 -70 l19 -17 346 0 346 0 11 -19
c5 -11 10 -44 10 -74 0 -40 5 -58 18 -70 l19 -17 196 0 196 0 15 -16 c11 -11
16 -35 16 -82 0 -37 4 -72 8 -79 23 -37 171 -44 337 -16 l100 17 140 -13 c89
-9 372 -15 780 -18 l640 -5 13 -16 c6 -9 12 -41 12 -72 0 -42 5 -61 18 -73
l19 -17 379 0 c282 0 383 -3 392 -12 7 -7 12 -30 12 -53 0 -52 21 -81 68 -96
24 -8 195 -14 502 -19 272 -4 484 -12 510 -18 70 -17 337 -15 396 3 l49 15
1581 0 1581 0 16 18 c11 12 17 36 17 71 0 29 5 61 10 72 l11 19 453 0 453 0
16 18 c11 12 17 36 17 71 0 29 5 61 10 72 l11 19 258 0 258 0 16 18 c12 13 17
37 17 86 0 37 5 76 10 87 l11 19 258 0 258 0 16 18 c11 12 17 36 17 71 0 29 5
61 10 72 l11 19 63 0 c80 0 96 15 96 89 0 29 5 61 10 72 l11 19 63 0 c48 0 67
4 79 18 l17 19 0 157 c0 89 4 166 10 177 l11 19 78 0 78 0 16 18 c12 13 17 37
17 86 0 37 5 76 10 87 l11 19 63 0 c80 0 96 15 96 89 0 29 5 61 10 72 l11 19
74 0 74 0 11 -19 c5 -11 10 -44 10 -74 0 -68 18 -87 83 -87 52 0 58 -6 72 -75
8 -37 16 -52 35 -61 35 -17 221 -44 300 -45 38 0 75 -6 90 -14 l25 -14 351 -1
351 0 16 18 c12 13 17 37 17 86 0 37 5 76 10 87 l11 19 63 0 c80 0 96 15 96
89 0 29 5 61 10 72 l11 19 78 0 78 0 16 18 17 19 0 442 c0 286 4 449 10 462
l11 19 63 0 c83 0 96 14 96 102 0 84 -14 98 -98 98 l-61 0 -11 19 c-6 13 -10
144 -10 359 l0 339 -18 16 c-14 13 -38 17 -95 17 l-76 0 -11 19 c-6 12 -10
116 -10 269 l0 249 -18 16 c-13 12 -37 17 -80 17 l-61 0 -11 19 c-6 12 -10
121 -10 284 l0 264 -18 16 c-13 12 -37 17 -80 17 l-61 0 -11 19 c-5 11 -10 44
-10 74 0 75 -15 87 -113 87 l-76 0 -11 19 c-6 11 -10 88 -10 179 l0 159 -18
16 c-13 12 -37 17 -80 17 l-61 0 -11 19 c-5 11 -10 84 -10 164 l0 144 -18 16
c-13 12 -37 17 -80 17 l-61 0 -11 19 c-6 11 -10 88 -10 179 l0 159 -18 16
c-14 13 -38 17 -95 17 l-76 0 -11 19 c-5 11 -10 44 -10 74 0 72 -17 87 -98 87
l-61 0 -11 19 c-5 11 -10 51 -10 89 0 89 -13 102 -98 102 l-61 0 -11 19 c-5
11 -10 84 -10 164 l0 144 -18 16 c-14 13 -38 17 -95 17 l-76 0 -11 19 c-6 11
-10 88 -10 179 l0 159 -18 16 c-13 12 -37 17 -80 17 l-61 0 -11 19 c-5 11 -10
44 -10 74 0 75 -15 87 -113 87 l-76 0 -11 19 c-5 11 -10 51 -10 89 0 89 -13
102 -98 102 l-61 0 -11 19 c-5 11 -10 84 -10 164 l0 144 -18 16 c-13 12 -37
17 -80 17 l-61 0 -11 19 c-5 11 -10 51 -10 89 0 92 -11 102 -113 102 l-76 0
-11 19 c-5 11 -10 44 -10 74 0 72 -17 87 -98 87 l-61 0 -11 19 c-5 11 -10 51
-10 89 0 89 -13 102 -98 102 l-61 0 -11 19 c-5 11 -10 84 -10 164 l0 144 -18
16 c-14 13 -38 17 -95 17 l-76 0 -11 19 c-5 11 -10 51 -10 89 0 89 -13 102
-98 102 l-61 0 -11 19 c-5 11 -10 44 -10 74 0 72 -17 87 -98 87 l-61 0 -11 19
c-5 11 -10 44 -10 74 0 75 -15 87 -113 87 l-76 0 -11 19 c-5 11 -10 51 -10 89
0 89 -13 102 -98 102 l-61 0 -11 19 c-5 11 -10 44 -10 74 0 72 -17 87 -98 87
l-61 0 -11 19 c-5 11 -10 44 -10 74 0 75 -15 87 -113 87 l-76 0 -11 19 c-6 11
-10 88 -10 179 l0 159 -18 16 -19 17 -151 0 -151 0 -11 19 c-5 11 -10 44 -10
74 0 75 -15 87 -113 87 l-76 0 -11 19 c-6 11 -10 88 -10 179 l0 159 -18 16
-19 17 -151 0 -151 0 -11 19 c-5 11 -10 44 -10 74 0 75 -15 87 -113 87 l-76 0
-11 19 c-5 11 -10 51 -10 89 0 89 -13 102 -98 102 l-61 0 -11 19 c-5 11 -10
44 -10 74 0 75 -15 87 -113 87 l-76 0 -11 19 c-5 11 -10 44 -10 74 0 72 -17
87 -98 87 l-61 0 -11 19 c-5 11 -10 51 -10 89 0 89 -13 102 -98 102 l-61 0
-11 19 c-5 11 -10 44 -10 74 0 75 -15 87 -113 87 l-76 0 -11 19 c-5 11 -10 51
-10 89 0 54 -4 72 -18 85 l-19 17 -151 0 -151 0 -11 19 c-5 11 -10 44 -10 74
0 75 -15 87 -113 87 l-76 0 -11 19 c-5 11 -10 44 -10 74 0 72 -17 87 -98 87
l-61 0 -11 19 c-5 11 -10 51 -10 89 0 89 -13 102 -98 102 l-61 0 -11 19 c-5
11 -10 44 -10 74 0 40 -5 58 -18 70 l-19 17 -166 0 -166 0 -11 19 c-5 11 -10
44 -10 74 0 40 -5 58 -18 70 l-19 17 -166 0 -166 0 -11 19 c-5 11 -10 51 -10
89 0 89 -13 102 -98 102 l-61 0 -11 19 c-5 11 -10 44 -10 74 0 72 -17 87 -98
87 l-61 0 -11 19 c-5 11 -10 44 -10 74 0 40 -5 58 -18 70 l-19 17 -166 0 -166
0 -11 19 c-5 11 -10 51 -10 89 0 89 -13 102 -98 102 l-61 0 -11 19 c-5 11 -10
44 -10 74 0 40 -5 58 -18 70 l-19 17 -166 0 -166 0 -11 19 c-5 11 -10 44 -10
74 0 40 -5 58 -18 70 l-19 17 -166 0 -166 0 -11 19 c-5 11 -10 51 -10 89 0 89
-13 102 -98 102 l-61 0 -11 19 c-5 11 -10 44 -10 74 0 40 -5 58 -18 70 l-19
17 -166 0 -166 0 -11 19 c-5 11 -10 44 -10 74 0 40 -5 58 -18 70 l-19 17 -166
0 -166 0 -11 19 c-5 11 -10 51 -10 89 0 54 -4 72 -18 85 l-19 17 -151 0 -151
0 -11 19 c-5 11 -10 44 -10 74 0 40 -5 58 -18 70 l-19 17 -166 0 -166 0 -11
19 c-5 11 -10 51 -10 89 0 89 -13 102 -98 102 l-61 0 -11 19 c-5 11 -10 44
-10 74 0 40 -5 58 -18 70 l-19 17 -166 0 -166 0 -11 19 c-5 11 -10 44 -10 74
0 40 -5 58 -18 70 l-19 17 -365 0 -365 0 -16 -18z"/>
</g>
</svg>
