<?xml version="1.0" standalone="no"?>
<!DOCTYPE svg PUBLIC "-//W3C//DTD SVG 20010904//EN"
 "http://www.w3.org/TR/2001/REC-SVG-20010904/DTD/svg10.dtd">
<svg version="1.0" xmlns="http://www.w3.org/2000/svg"
 width="504.000000pt" height="591.000000pt" viewBox="0 0 504.000000 591.000000"
 preserveAspectRatio="xMidYMid meet">
<metadata>
Created by potrace 1.16, written by Peter Selinger 2001-2019
</metadata>
<g transform="translate(0.000000,591.000000) scale(0.100000,-0.100000)"
fill="#000000" stroke="none">
<path d="M125 5900 c-3 -5 -20 -10 -36 -10 -80 0 -120 -64 -59 -95 22 -11 64
-15 175 -15 107 0 155 -4 182 -15 19 -8 53 -15 75 -15 21 0 55 -7 75 -15 19
-8 52 -15 72 -15 52 0 188 -50 240 -88 27 -20 56 -32 75 -32 35 0 139 -46 189
-84 18 -13 68 -43 112 -65 81 -43 145 -81 246 -145 30 -20 63 -36 71 -36 9 0
26 -13 38 -30 12 -16 86 -73 164 -125 l143 -95 132 -135 c72 -74 131 -139 131
-144 0 -6 13 -25 29 -43 16 -18 40 -51 55 -73 14 -22 45 -54 68 -71 25 -17 55
-54 73 -85 16 -31 45 -73 63 -95 18 -21 37 -55 42 -74 5 -19 25 -60 44 -90 52
-81 106 -194 106 -221 0 -13 14 -62 30 -109 17 -46 30 -101 30 -121 0 -20 7
-53 15 -72 22 -53 21 -276 -2 -325 -21 -48 -42 -72 -62 -72 -20 1 -70 44 -106
93 -15 20 -59 58 -97 83 -38 26 -80 63 -92 83 -30 46 -53 66 -146 127 -41 26
-88 60 -105 75 -33 29 -107 69 -127 69 -7 0 -30 11 -49 24 -95 65 -260 86
-342 45 -72 -37 -137 -90 -156 -128 -32 -64 -46 -134 -33 -171 7 -18 12 -55
12 -82 0 -100 57 -227 130 -290 27 -24 50 -51 50 -62 0 -25 82 -106 107 -106
11 0 30 -12 44 -26 13 -14 42 -35 64 -46 22 -12 54 -31 70 -44 47 -35 146 -64
220 -64 36 0 82 -7 102 -15 46 -19 140 -19 186 0 20 8 54 15 75 15 22 0 56 7
75 15 20 8 60 15 89 15 l53 -1 83 -91 c46 -50 94 -112 107 -138 13 -26 40 -59
59 -74 20 -15 48 -51 63 -79 14 -29 34 -58 44 -65 26 -18 24 -29 -15 -77 -19
-23 -45 -63 -57 -88 l-23 -47 17 -47 c9 -27 17 -66 17 -88 l0 -40 61 -89 c33
-50 69 -107 80 -129 11 -21 48 -73 82 -114 34 -41 82 -101 107 -133 25 -32 62
-75 83 -96 21 -22 75 -77 120 -124 45 -47 96 -94 112 -105 17 -10 64 -50 105
-89 89 -85 158 -134 205 -147 21 -6 46 -24 62 -45 16 -22 54 -49 97 -71 39
-19 91 -51 115 -71 72 -59 155 -112 173 -112 22 0 98 -67 98 -86 l0 -14 -275
0 -276 0 -36 15 c-19 8 -53 15 -75 15 -21 0 -55 7 -75 15 -19 8 -61 15 -93 15
l-57 0 -32 40 c-20 25 -44 43 -62 47 -16 3 -39 20 -54 39 -16 21 -57 50 -106
75 -45 22 -99 53 -121 70 -23 16 -48 29 -56 29 -9 0 -28 12 -43 26 -19 18 -76
43 -174 75 l-146 49 -100 0 -100 0 -62 -31 c-34 -17 -70 -38 -79 -47 -25 -21
-22 -78 5 -127 l22 -40 120 -62 c117 -60 314 -133 358 -133 12 0 42 -14 67
-30 25 -16 58 -30 73 -30 15 0 44 -7 64 -15 19 -8 51 -15 71 -15 20 0 65 -10
101 -22 l66 -22 66 -66 c66 -65 95 -115 118 -200 l12 -45 -15 -35 c-33 -81
-113 -129 -212 -130 -70 0 -94 -17 -94 -68 l0 -32 164 0 c101 0 167 4 171 10
4 6 27 21 53 34 48 25 126 106 155 163 11 20 17 56 17 94 l0 62 -35 64 c-19
35 -35 68 -35 74 0 23 46 31 85 15 20 -9 55 -16 77 -16 21 0 55 -7 75 -15 26
-11 74 -15 180 -15 105 0 153 -4 180 -15 47 -20 170 -20 218 1 l38 16 41 -16
c58 -22 324 -23 366 -1 l30 16 0 42 c0 59 -32 86 -140 120 -47 15 -106 42
-132 60 -46 33 -83 51 -171 82 -27 9 -67 32 -90 51 -23 19 -55 42 -71 52 -15
9 -90 58 -165 107 -75 50 -156 102 -181 117 -25 14 -55 40 -68 57 -12 17 -39
39 -60 50 -42 21 -123 86 -217 171 -33 31 -76 67 -96 80 -20 13 -47 39 -60 59
-13 20 -51 64 -85 98 -33 35 -74 82 -90 105 -16 24 -50 67 -76 96 -26 29 -52
70 -58 90 -5 21 -26 64 -46 97 -19 33 -45 86 -56 118 l-20 57 19 37 c11 20 27
40 36 45 9 4 25 12 35 17 26 12 55 67 47 90 -10 33 -85 142 -138 200 -26 30
-61 80 -77 112 -16 32 -45 70 -65 85 -19 14 -35 33 -35 41 0 28 -39 90 -74
117 -47 35 -76 100 -76 167 l0 53 26 27 c16 17 40 68 60 126 l33 98 0 160 1
160 -30 85 c-17 46 -30 94 -30 107 0 12 -11 46 -25 75 -13 29 -36 88 -50 131
-31 97 -48 130 -95 187 -21 25 -52 72 -69 106 -18 33 -52 83 -76 111 -25 28
-45 58 -45 65 0 22 -73 120 -109 146 -17 12 -42 45 -56 71 -14 28 -42 61 -64
78 -22 15 -52 48 -68 72 -15 24 -45 55 -67 68 -22 14 -70 54 -107 89 -38 35
-77 64 -88 64 -11 0 -29 13 -41 30 -19 26 -181 140 -286 201 -23 13 -65 38
-94 54 -29 17 -95 59 -148 93 -52 35 -116 70 -140 78 -25 7 -64 26 -87 43 -41
29 -326 131 -368 131 -12 0 -51 14 -85 30 -35 17 -75 30 -88 30 -14 0 -41 7
-61 15 -20 9 -66 15 -109 15 -40 0 -76 5 -79 10 -4 6 -58 10 -130 10 -72 0
-126 -4 -130 -10z m1709 -2176 c39 -25 85 -59 103 -75 19 -16 42 -29 52 -29
10 0 31 -16 45 -35 15 -20 54 -49 86 -65 32 -16 67 -42 77 -57 10 -14 38 -45
62 -69 92 -89 104 -101 157 -164 50 -58 94 -133 94 -159 0 -5 -25 -28 -57 -50
l-56 -41 -116 0 -116 0 -63 30 c-35 17 -74 30 -87 30 -37 0 -74 17 -160 75
-94 63 -146 116 -206 205 -53 78 -62 97 -89 175 -38 112 -21 172 68 235 77 56
115 55 206 -6z m1016 -2779 c16 -8 43 -15 60 -15 31 0 123 -41 135 -60 4 -6 4
-14 1 -18 -7 -6 -99 20 -151 43 -16 8 -44 16 -60 20 -17 3 -46 15 -65 27 l-35
21 20 7 c21 8 44 1 95 -25z"/>
</g>
</svg>
