<?xml version="1.0" standalone="no"?>
<!DOCTYPE svg PUBLIC "-//W3C//DTD SVG 20010904//EN"
 "http://www.w3.org/TR/2001/REC-SVG-20010904/DTD/svg10.dtd">
<svg version="1.0" xmlns="http://www.w3.org/2000/svg"
 width="543.000000pt" height="438.000000pt" viewBox="0 0 543.000000 438.000000"
 preserveAspectRatio="xMidYMid meet">
<metadata>
Created by potrace 1.16, written by Peter Selinger 2001-2019
</metadata>
<g transform="translate(0.000000,438.000000) scale(0.100000,-0.100000)"
fill="#000000" stroke="none">
<path d="M2428 4349 c-31 -54 -20 -69 48 -69 19 0 51 -7 71 -15 19 -8 45 -15
57 -15 12 0 60 -13 106 -30 47 -16 96 -30 110 -30 14 0 81 -27 148 -60 68 -33
129 -60 135 -60 7 0 32 -14 57 -30 26 -17 58 -30 76 -30 24 0 38 -9 62 -40 19
-23 46 -43 66 -48 58 -16 337 -209 374 -258 18 -24 40 -44 48 -44 26 0 69 -30
93 -65 13 -19 46 -52 74 -73 73 -55 395 -380 414 -417 8 -16 32 -48 53 -70 59
-62 280 -405 280 -435 0 -6 16 -42 36 -81 67 -134 102 -268 107 -414 l2 -40
-21 -3 c-11 -2 -43 8 -70 22 -27 14 -90 38 -139 54 -50 16 -109 39 -132 51
-23 11 -48 21 -55 21 -7 0 -31 12 -53 27 -39 27 -128 44 -235 45 -62 0 -164
-18 -197 -35 -39 -21 -113 -121 -113 -153 0 -13 -5 -44 -12 -68 l-12 -45 42
-88 c23 -49 42 -101 42 -118 0 -34 134 -242 178 -275 15 -11 56 -43 91 -70
l64 -50 152 0 c113 0 162 4 188 15 20 8 50 15 66 15 19 0 45 14 77 40 27 23
60 43 74 47 49 12 120 54 137 81 27 43 76 92 92 92 31 0 78 -38 84 -66 3 -16
24 -59 47 -97 l41 -67 -11 -20 -11 -20 -136 0 -137 0 -66 -44 c-89 -60 -150
-127 -150 -165 0 -16 -5 -42 -10 -56 -7 -19 -6 -41 5 -78 l15 -52 86 -80 c48
-44 102 -85 121 -91 20 -7 40 -17 46 -23 15 -15 -10 -41 -42 -41 -14 0 -64
-14 -111 -30 -46 -17 -94 -30 -106 -30 -12 0 -38 -7 -57 -15 -20 -8 -61 -15
-90 -15 -30 0 -71 -7 -90 -15 l-36 -15 -471 0 -471 0 -36 15 c-20 8 -66 15
-105 15 -38 0 -84 7 -105 15 -19 8 -60 15 -90 15 -29 0 -70 7 -90 15 -19 8
-60 15 -90 15 -29 0 -70 7 -90 15 -19 8 -53 15 -75 15 -21 0 -55 7 -75 15 -20
8 -66 15 -105 15 l-70 0 -65 30 c-35 17 -76 30 -90 30 -13 0 -54 14 -90 30
-35 17 -74 30 -87 30 -26 0 -122 32 -194 66 -35 16 -70 24 -105 24 -28 0 -72
6 -97 14 -78 25 -133 37 -195 45 -34 5 -70 13 -82 19 -13 7 -69 12 -138 12
-80 0 -127 5 -152 15 -22 9 -67 15 -119 15 -52 0 -98 6 -122 15 l-38 16 -245
-4 c-239 -3 -261 -6 -379 -43 -25 -8 -55 -14 -68 -14 -12 0 -58 -18 -101 -39
-80 -41 -141 -97 -141 -131 0 -10 -5 -22 -10 -25 -6 -4 -10 -58 -10 -129 0
-98 3 -126 15 -136 8 -7 22 -36 30 -64 22 -71 29 -83 118 -180 48 -52 89 -88
105 -92 15 -4 41 -19 57 -34 17 -15 46 -36 65 -45 19 -10 49 -28 65 -41 17
-12 66 -34 110 -49 91 -29 138 -50 177 -76 l26 -19 238 0 237 0 74 55 73 55 0
95 0 95 -34 68 c-21 41 -49 79 -70 96 -20 15 -47 49 -61 76 -13 27 -42 61 -63
76 -21 15 -51 45 -66 66 -15 21 -46 48 -69 59 -23 12 -64 45 -92 73 -27 28
-74 67 -103 86 -61 39 -68 66 -19 68 17 1 82 4 143 8 88 4 118 3 149 -10 22
-9 66 -16 107 -16 38 0 84 -7 105 -15 19 -8 53 -15 75 -15 21 0 55 -7 75 -15
19 -8 45 -15 57 -15 22 0 111 -29 134 -43 6 -5 12 -17 12 -27 0 -11 21 -43 48
-72 26 -29 58 -68 70 -86 13 -18 45 -44 70 -58 49 -26 120 -69 212 -127 91
-58 101 -61 200 -70 164 -14 239 -8 273 21 l18 16 -2 79 c-3 99 4 106 74 85
107 -33 162 -41 200 -29 l35 12 37 -16 c22 -8 67 -15 107 -15 38 0 84 -7 105
-15 19 -8 59 -15 88 -15 28 0 65 -5 81 -10 16 -6 83 -14 149 -20 66 -5 145
-14 175 -19 30 -5 202 -10 381 -10 l327 -1 35 15 c23 9 68 15 120 15 53 0 98
6 120 15 20 8 61 15 90 15 30 0 71 7 90 15 20 8 52 15 72 15 67 0 220 63 325
133 26 18 61 39 77 48 16 9 55 55 88 103 45 67 59 97 61 129 3 67 16 137 25
143 12 7 11 191 -1 199 -5 3 -10 20 -10 36 0 29 -58 153 -99 214 -12 17 -21
38 -21 49 0 10 -40 60 -88 110 -48 50 -94 100 -102 110 -10 13 -17 57 -21 135
-7 127 -10 142 -75 342 -24 74 -44 146 -44 158 0 26 -32 92 -66 138 -31 41
-84 152 -84 175 0 10 -21 41 -48 70 -26 29 -69 87 -96 128 -27 41 -75 102
-106 135 -31 33 -68 78 -82 100 -30 46 -349 365 -365 365 -6 0 -44 31 -84 68
-41 37 -107 89 -146 116 -43 28 -84 64 -100 89 -22 33 -39 45 -76 56 -29 9
-72 35 -110 68 -34 29 -91 67 -127 84 -36 18 -81 40 -100 51 -96 51 -200 95
-341 143 -54 19 -110 40 -126 48 -45 23 -149 57 -177 57 -14 0 -28 5 -31 10
-4 6 -58 10 -128 10 l-122 0 -17 -31z m1829 -2274 c19 -8 52 -15 72 -15 42 0
144 -33 181 -60 35 -25 160 -86 191 -93 34 -8 77 -52 95 -97 l15 -35 -12 -44
c-10 -34 -31 -62 -95 -125 l-82 -81 -70 -22 c-52 -17 -94 -23 -162 -23 -97 0
-134 11 -197 57 -72 54 -218 314 -229 408 l-6 50 22 28 c34 43 95 66 173 67
38 0 83 -6 104 -15z m893 -915 c12 -17 24 -48 27 -68 l5 -37 -40 -55 -40 -55
-56 -18 -55 -18 -43 20 c-84 40 -108 74 -108 153 l0 57 28 19 c41 29 49 30
159 31 l102 1 21 -30z m-4645 -231 c17 -11 55 -33 85 -49 30 -16 81 -50 114
-77 32 -26 81 -62 109 -78 29 -17 64 -49 80 -73 16 -23 46 -51 67 -62 21 -11
77 -59 126 -107 l87 -88 40 -83 40 -84 -17 -32 c-9 -18 -30 -40 -46 -49 l-28
-17 -141 0 c-103 0 -151 4 -178 15 -19 8 -45 15 -56 15 -42 0 -148 44 -187 77
-22 19 -57 39 -78 45 -27 7 -64 37 -134 107 l-97 97 -52 107 -52 107 16 42 c9
24 17 56 19 73 l3 29 85 53 c97 60 144 67 195 32z m1576 -199 c120 -39 146
-51 189 -92 19 -18 46 -41 60 -50 43 -29 8 -38 -63 -17 -134 41 -319 152 -301
181 7 12 11 11 115 -22z"/>
</g>
</svg>
