<?xml version="1.0" standalone="no"?>
<!DOCTYPE svg PUBLIC "-//W3C//DTD SVG 20010904//EN"
 "http://www.w3.org/TR/2001/REC-SVG-20010904/DTD/svg10.dtd">
<svg version="1.0" xmlns="http://www.w3.org/2000/svg"
 width="273.000000pt" height="414.000000pt" viewBox="0 0 273.000000 414.000000"
 preserveAspectRatio="xMidYMid meet">
<metadata>
Created by potrace 1.16, written by Peter Selinger 2001-2019
</metadata>
<g transform="translate(0.000000,414.000000) scale(0.100000,-0.100000)"
fill="#000000" stroke="none">
<path d="M0 4072 l0 -69 103 -33 c56 -18 137 -50 179 -72 43 -21 82 -38 88
-38 24 0 364 -214 420 -264 14 -13 46 -35 71 -49 25 -14 78 -57 116 -96 39
-38 89 -79 111 -90 23 -12 49 -32 59 -47 43 -61 68 -86 118 -119 29 -20 66
-52 81 -73 15 -20 48 -58 73 -83 25 -25 56 -60 69 -77 13 -17 42 -44 65 -60
29 -19 46 -40 55 -67 7 -22 24 -51 36 -65 31 -33 112 -152 138 -204 11 -22 38
-61 58 -86 40 -48 84 -132 100 -190 5 -20 26 -62 46 -95 36 -61 104 -243 104
-281 0 -12 7 -38 15 -57 8 -20 15 -54 15 -75 0 -22 7 -56 15 -75 20 -49 22
-289 2 -306 -18 -14 -180 71 -208 110 -21 29 -106 91 -185 134 -27 14 -74 42
-104 61 -30 19 -73 39 -95 45 -22 6 -61 22 -87 35 l-47 24 -106 0 -105 0 -79
-39 -78 -40 -76 -83 -77 -83 0 -108 0 -107 36 -71 c54 -108 105 -177 187 -254
132 -124 255 -209 339 -234 133 -40 156 -44 259 -48 l105 -4 109 36 c129 43
152 54 184 89 14 15 47 41 74 58 l49 31 35 -18 c52 -28 123 -131 123 -178 0
-8 18 -36 39 -62 46 -56 81 -151 81 -223 l0 -51 -20 -11 c-17 -9 -28 -7 -54
10 -19 11 -40 27 -47 36 -15 18 -162 94 -181 94 -7 0 -42 14 -76 30 -80 38
-107 38 -185 -1 -93 -47 -97 -52 -97 -127 l0 -65 30 -46 c16 -26 31 -62 32
-81 l3 -35 -82 -3 c-57 -2 -93 2 -119 13 -24 10 -69 15 -136 15 -65 0 -111 5
-135 15 -19 8 -52 15 -72 15 -20 0 -56 6 -81 14 -87 28 -136 38 -210 45 -41 4
-85 13 -97 19 -12 7 -47 12 -78 12 -30 0 -72 7 -92 15 -20 8 -66 15 -105 15
-38 0 -84 7 -105 15 -42 18 -253 21 -284 5 -41 -23 -12 -70 43 -70 13 0 52
-14 86 -30 35 -17 74 -30 86 -30 12 0 60 -13 106 -30 l85 -30 98 0 c64 0 110
-5 134 -15 20 -8 66 -15 105 -15 38 0 84 -7 105 -15 19 -8 53 -15 75 -15 21 0
55 -7 75 -15 19 -8 53 -15 75 -15 21 0 55 -7 75 -15 19 -8 53 -15 75 -15 21 0
55 -7 75 -15 19 -8 60 -15 90 -15 29 0 70 -7 90 -15 23 -10 69 -15 135 -15 65
0 111 -5 135 -15 19 -8 55 -15 79 -15 23 0 46 -5 49 -10 13 -20 68 -11 97 17
22 21 28 36 28 67 l0 40 -103 100 c-56 56 -115 109 -130 119 -32 21 -37 57 -8
57 10 0 63 -22 117 -49 95 -47 212 -137 266 -206 21 -27 106 -75 133 -75 26 0
93 39 105 59 5 11 10 51 10 90 0 38 4 73 10 76 13 8 13 102 0 110 -5 3 -10 44
-10 91 0 94 -25 187 -64 239 -13 17 -44 73 -70 125 -26 52 -59 105 -74 118
-70 61 -84 78 -107 127 l-25 53 6 73 c4 41 13 89 20 108 19 47 19 227 -1 274
-8 21 -15 67 -15 106 l0 70 -30 64 c-17 36 -30 77 -30 90 0 14 -14 55 -30 90
-16 36 -30 75 -30 86 0 25 -35 132 -57 176 -9 16 -31 48 -50 70 -18 22 -36 51
-40 65 -11 44 -65 144 -99 182 -18 21 -45 61 -60 90 -15 29 -55 85 -90 126
-35 40 -72 85 -81 100 -9 15 -35 48 -58 73 -22 25 -67 78 -99 118 -33 40 -73
79 -90 88 -16 8 -73 57 -125 107 -53 51 -109 100 -126 111 -16 10 -50 37 -75
60 -25 22 -61 51 -80 64 -20 13 -48 41 -63 62 -16 22 -46 48 -67 59 -21 10
-73 44 -117 74 -44 30 -115 73 -159 96 -43 22 -103 56 -132 74 -29 19 -92 46
-140 61 -48 15 -117 43 -153 61 -36 18 -95 42 -130 54 -35 11 -72 25 -81 30
-10 6 -34 10 -53 10 l-35 0 0 -68z m1443 -2436 c45 -30 96 -57 113 -61 17 -3
55 -26 85 -51 29 -26 79 -63 110 -84 105 -69 268 -221 291 -270 l20 -44 -18
-35 c-27 -50 -132 -155 -179 -179 -74 -36 -151 -54 -193 -43 -20 6 -53 13 -74
16 -20 3 -62 23 -93 44 -32 22 -73 42 -92 46 -27 5 -63 34 -165 138 -72 72
-144 149 -160 171 l-28 39 0 117 0 118 53 39 c72 53 102 65 151 58 l41 -7 19
21 c11 12 23 21 28 21 5 0 46 -24 91 -54z"/>
</g>
</svg>
