<?xml version="1.0" standalone="no"?>
<!DOCTYPE svg PUBLIC "-//W3C//DTD SVG 20010904//EN"
 "http://www.w3.org/TR/2001/REC-SVG-20010904/DTD/svg10.dtd">
<svg version="1.0" xmlns="http://www.w3.org/2000/svg"
 width="273.000000pt" height="306.000000pt" viewBox="0 0 273.000000 306.000000"
 preserveAspectRatio="xMidYMid meet">
<metadata>
Created by potrace 1.16, written by Peter Selinger 2001-2019
</metadata>
<g transform="translate(0.000000,306.000000) scale(0.100000,-0.100000)"
fill="#000000" stroke="none">
<path d="M0 3010 l0 -50 101 0 100 0 67 -39 c37 -22 92 -56 123 -75 30 -20 62
-36 70 -36 19 0 138 -60 209 -106 30 -19 74 -40 98 -46 42 -10 177 -94 238
-148 18 -15 48 -30 69 -34 26 -5 50 -22 83 -56 28 -29 63 -54 87 -62 28 -9 48
-26 68 -56 16 -23 43 -50 60 -58 44 -23 490 -467 533 -531 19 -29 55 -69 79
-89 24 -20 55 -59 70 -85 14 -27 41 -60 59 -74 19 -14 48 -53 66 -88 18 -34
47 -78 65 -98 17 -19 59 -91 93 -158 34 -68 71 -135 81 -150 23 -32 61 -136
61 -167 0 -12 7 -38 15 -57 8 -20 15 -54 15 -75 0 -22 7 -56 15 -75 21 -50 21
-244 0 -294 -8 -19 -15 -48 -15 -64 0 -18 -7 -32 -20 -39 l-20 -11 -67 40
c-121 70 -157 95 -198 132 -22 20 -56 44 -75 54 -19 9 -55 34 -80 55 -25 20
-65 47 -89 59 -24 13 -62 36 -84 52 -22 16 -48 29 -57 29 -9 0 -25 9 -36 21
-10 11 -48 43 -85 70 -60 45 -99 95 -99 129 0 6 -29 45 -65 86 -36 41 -72 87
-82 102 -29 47 -306 323 -345 343 -21 10 -54 33 -74 51 -53 47 -123 67 -232
68 l-94 0 -29 -29 c-89 -89 24 -243 327 -444 72 -48 145 -105 163 -127 17 -22
44 -43 59 -46 15 -4 45 -26 67 -48 22 -23 61 -53 86 -67 29 -16 51 -39 62 -61
22 -46 22 -130 0 -175 -18 -39 -85 -87 -147 -105 l-38 -12 -48 17 c-60 21 -73
21 -93 -1 -37 -40 -12 -89 63 -127 140 -71 359 21 447 188 48 91 61 97 126 56
29 -18 66 -43 82 -55 17 -12 53 -33 82 -48 28 -14 85 -57 127 -96 42 -38 84
-70 93 -70 9 0 31 -13 48 -29 16 -16 59 -49 95 -73 42 -29 73 -59 88 -86 l23
-42 74 0 74 0 71 68 70 67 0 33 c0 18 7 49 15 69 8 19 15 48 15 64 0 15 5 31
10 34 13 8 13 312 0 320 -5 3 -10 19 -10 34 0 16 -7 45 -15 64 -8 20 -15 60
-15 89 0 61 -35 167 -77 234 -44 71 -73 128 -73 142 0 21 -30 75 -60 107 -16
17 -39 48 -52 70 -35 61 -98 143 -145 190 -24 23 -43 50 -43 59 0 9 -29 47
-64 85 -35 37 -75 86 -89 108 -24 37 -52 64 -111 106 -15 10 -37 40 -51 67
-13 27 -42 61 -63 76 -21 15 -51 45 -66 66 -15 21 -49 50 -77 63 -27 14 -79
54 -116 88 -38 35 -81 71 -98 82 -16 10 -50 37 -75 60 -25 24 -64 52 -86 63
-23 12 -78 46 -121 76 -80 54 -391 216 -416 216 -21 0 -190 85 -237 119 -24
17 -51 31 -60 31 -21 0 -195 85 -204 99 -5 7 -58 11 -152 11 l-144 0 0 -50z
m913 -1712 c29 -12 80 -48 115 -80 34 -32 69 -58 76 -58 19 0 54 -41 61 -72
11 -42 -14 -36 -76 17 -29 25 -57 45 -61 45 -22 0 -177 142 -178 163 0 11 6 9
63 -15z"/>
</g>
</svg>
