<?xml version="1.0" standalone="no"?>
<!DOCTYPE svg PUBLIC "-//W3C//DTD SVG 20010904//EN"
 "http://www.w3.org/TR/2001/REC-SVG-20010904/DTD/svg10.dtd">
<svg version="1.0" xmlns="http://www.w3.org/2000/svg"
 width="294.000000pt" height="342.000000pt" viewBox="0 0 294.000000 342.000000"
 preserveAspectRatio="xMidYMid meet">
<metadata>
Created by potrace 1.16, written by Peter Selinger 2001-2019
</metadata>
<g transform="translate(0.000000,342.000000) scale(0.100000,-0.100000)"
fill="#000000" stroke="none">
<path d="M23 3406 c-18 -8 -23 -19 -23 -48 l0 -37 39 -23 c22 -13 60 -36 85
-51 54 -34 170 -76 207 -77 27 0 423 -195 519 -256 30 -19 72 -39 92 -45 20
-5 61 -31 90 -57 57 -51 117 -93 189 -135 25 -14 58 -42 73 -61 17 -23 40 -39
66 -46 23 -6 47 -21 57 -36 40 -58 87 -105 111 -111 22 -5 61 -39 204 -181
161 -159 312 -321 328 -353 11 -20 39 -50 62 -66 27 -18 54 -48 71 -80 15 -29
41 -62 57 -73 28 -20 101 -122 135 -190 10 -19 33 -53 52 -74 18 -22 37 -55
42 -74 6 -18 21 -48 34 -65 45 -59 98 -178 153 -342 30 -89 54 -172 54 -183 0
-11 7 -36 15 -55 22 -52 19 -149 -7 -225 -24 -70 -52 -98 -90 -86 -12 3 -72
55 -133 114 -60 58 -144 129 -185 155 -41 27 -88 61 -105 76 -16 14 -50 36
-75 49 -25 12 -64 38 -88 58 -68 54 -136 99 -203 134 -34 17 -78 45 -98 63
-20 18 -81 56 -136 83 -55 28 -122 69 -149 91 -26 23 -55 41 -63 41 -24 0 -83
31 -163 86 -42 28 -96 62 -120 74 -25 13 -60 34 -79 49 -47 36 -146 49 -266
35 -84 -9 -95 -21 -95 -108 l0 -70 59 -56 c32 -31 70 -75 84 -97 17 -27 45
-51 79 -70 32 -17 63 -44 80 -70 16 -24 50 -54 81 -71 28 -17 76 -53 105 -80
l52 -49 0 -61 c0 -46 7 -75 30 -124 16 -34 30 -70 30 -79 0 -9 35 -50 78 -91
42 -41 88 -90 101 -107 13 -18 42 -44 65 -58 22 -15 68 -52 101 -83 33 -32 83
-70 110 -84 28 -15 85 -49 128 -76 l79 -50 99 0 99 0 0 20 c0 29 -57 88 -111
116 -27 13 -53 24 -59 24 -31 0 -108 47 -168 103 -37 34 -83 73 -103 87 -21
13 -51 46 -68 72 -18 26 -42 55 -55 63 -36 24 -83 96 -106 163 l-21 60 16 37
c8 21 15 65 15 100 0 76 -16 95 -81 95 -35 0 -58 9 -114 45 -79 51 -260 234
-245 249 11 11 64 -9 110 -44 19 -14 92 -54 163 -89 70 -35 136 -74 146 -87
19 -24 148 -94 174 -94 8 0 33 -15 57 -32 96 -72 164 -117 203 -133 83 -34
102 -46 130 -85 18 -26 52 -52 97 -76 38 -20 81 -51 95 -70 14 -19 44 -43 66
-55 35 -18 64 -43 201 -176 18 -17 46 -48 62 -68 29 -36 110 -85 141 -85 36 0
116 51 140 90 14 22 36 47 50 56 14 9 35 35 45 57 l20 41 0 203 0 204 -20 27
c-11 15 -24 50 -29 78 -4 28 -17 65 -29 82 -13 17 -34 65 -47 107 -31 95 -49
129 -92 179 -18 22 -37 55 -42 74 -6 18 -21 48 -34 65 -13 18 -33 50 -45 72
-11 22 -32 51 -46 64 -14 14 -26 32 -26 42 0 9 -21 45 -47 79 -27 33 -63 82
-81 108 -18 26 -70 88 -116 137 -45 50 -93 106 -106 125 -37 53 -390 408 -435
438 -22 14 -67 51 -100 82 -33 31 -76 66 -95 79 -20 13 -48 41 -64 62 -17 25
-50 51 -86 69 -33 17 -76 45 -96 62 -20 18 -56 44 -80 58 -121 71 -181 111
-203 134 -14 14 -31 26 -39 26 -21 0 -199 87 -236 115 -17 13 -69 36 -116 51
-46 15 -128 49 -182 76 -111 54 -204 88 -243 88 -14 0 -37 11 -51 25 -19 19
-34 25 -67 24 -23 -1 -52 -6 -64 -13z"/>
</g>
</svg>
