<?xml version="1.0" standalone="no"?>
<!DOCTYPE svg PUBLIC "-//W3C//DTD SVG 20010904//EN"
 "http://www.w3.org/TR/2001/REC-SVG-20010904/DTD/svg10.dtd">
<svg version="1.0" xmlns="http://www.w3.org/2000/svg"
 width="507.000000pt" height="540.000000pt" viewBox="0 0 507.000000 540.000000"
 preserveAspectRatio="xMidYMid meet">
<metadata>
Created by potrace 1.16, written by Peter Selinger 2001-2019
</metadata>
<g transform="translate(0.000000,540.000000) scale(0.100000,-0.100000)"
fill="#000000" stroke="none">
<path d="M23 5370 c-14 -17 -23 -42 -23 -64 l0 -36 55 0 c31 0 72 -7 92 -15
22 -9 68 -15 123 -15 l87 0 41 -29 c22 -16 43 -34 46 -39 3 -5 45 -22 93 -37
95 -30 93 -29 208 -124 43 -35 93 -68 111 -73 19 -5 42 -21 51 -35 10 -15 38
-45 62 -69 55 -53 95 -93 147 -147 22 -23 53 -50 67 -60 15 -10 38 -40 52 -67
14 -27 42 -61 64 -76 21 -16 49 -44 62 -64 13 -19 40 -55 60 -80 20 -25 46
-63 57 -85 11 -22 32 -51 46 -64 14 -14 26 -31 26 -40 0 -8 15 -31 34 -51 38
-40 137 -183 167 -242 29 -56 93 -139 169 -217 l65 -67 28 -91 c22 -69 36 -98
63 -124 19 -19 51 -56 69 -84 19 -27 120 -135 224 -238 l191 -189 0 -29 c0
-22 6 -30 25 -35 29 -7 61 -47 71 -90 9 -38 46 -110 79 -154 14 -19 32 -56 40
-82 8 -27 32 -70 54 -96 39 -47 101 -164 101 -192 0 -8 15 -30 34 -50 41 -42
193 -267 238 -352 18 -34 60 -90 93 -124 33 -34 71 -77 84 -94 13 -17 41 -42
62 -56 22 -13 50 -41 63 -62 13 -20 44 -50 68 -66 25 -16 58 -48 72 -71 34
-53 67 -84 128 -118 26 -15 56 -40 67 -56 12 -16 45 -43 75 -60 30 -16 64 -44
76 -61 12 -17 47 -44 78 -59 32 -16 93 -60 137 -99 77 -66 131 -102 155 -102
6 0 41 -18 78 -40 37 -23 78 -43 92 -47 14 -3 46 -18 71 -34 25 -16 52 -29 61
-29 8 0 27 -13 42 -29 15 -16 41 -32 58 -35 16 -3 43 -15 59 -27 l29 -20 0
-42 c0 -23 -8 -57 -17 -74 -29 -53 -127 -128 -197 -152 l-62 -21 -300 0 -300
0 -84 30 c-47 16 -102 30 -123 30 -48 0 -95 22 -132 60 -18 18 -39 30 -55 30
-29 0 -116 28 -200 64 -75 32 -157 65 -203 82 -22 8 -76 39 -121 69 -45 30
-91 55 -103 55 -57 0 -73 -92 -24 -141 16 -16 38 -29 48 -29 10 0 56 -25 102
-55 79 -53 162 -87 243 -100 20 -3 59 -21 87 -40 28 -19 84 -46 126 -60 41
-13 92 -36 112 -50 21 -14 50 -25 66 -25 15 0 44 -7 64 -15 19 -8 54 -15 77
-15 29 0 54 -9 86 -30 l45 -30 122 0 c70 0 124 -4 128 -10 8 -13 312 -13 320
0 3 6 20 10 37 10 36 0 255 107 346 169 46 32 69 56 87 91 14 27 29 51 35 55
6 4 10 60 10 140 l0 134 -30 16 c-16 8 -41 15 -55 15 -14 0 -42 7 -62 15 -19
8 -47 15 -62 15 -14 0 -68 20 -119 45 -52 25 -99 45 -105 45 -7 0 -32 14 -57
30 -25 16 -54 30 -64 30 -11 0 -36 19 -58 42 -29 31 -55 47 -102 62 l-64 21
-42 48 c-24 27 -68 61 -100 77 -32 16 -92 61 -134 100 -42 38 -80 70 -85 70
-9 0 -153 125 -206 179 -87 89 -135 143 -168 193 -20 31 -52 65 -70 75 -22 14
-67 72 -139 179 -58 87 -111 170 -118 184 -7 14 -28 42 -46 62 -36 40 -176
306 -185 353 -4 17 -9 37 -13 47 -13 30 31 33 73 5 68 -45 240 -127 266 -127
14 0 42 -7 62 -15 19 -8 60 -15 91 -15 41 0 73 -8 124 -32 l69 -32 47 17 c26
10 57 17 70 17 34 0 159 67 178 94 22 34 64 156 63 186 0 14 -17 74 -37 135
l-38 110 -42 28 c-24 16 -53 45 -66 66 -29 45 -59 71 -115 102 -28 15 -57 44
-80 78 -25 38 -45 57 -66 63 -16 4 -52 26 -79 48 -26 22 -56 40 -65 40 -9 0
-36 14 -61 30 -25 16 -52 30 -60 30 -9 0 -31 11 -51 24 -47 32 -329 126 -378
126 -21 0 -55 -7 -74 -15 -20 -8 -49 -15 -64 -15 -15 0 -50 -13 -78 -28 l-50
-27 -59 -112 c-32 -62 -64 -113 -70 -113 -15 0 -72 54 -179 168 -50 54 -90
109 -113 155 -22 43 -55 90 -84 117 -36 34 -52 58 -64 98 -17 58 -56 119 -129
201 -26 30 -60 76 -74 104 -29 57 -74 125 -126 189 -19 24 -46 66 -61 95 -14
28 -41 63 -59 77 -19 14 -46 48 -61 76 -16 29 -44 61 -69 77 -30 21 -46 41
-57 73 -12 34 -27 52 -67 80 -29 19 -65 55 -80 78 -15 24 -48 57 -73 74 -25
17 -56 45 -69 64 -13 18 -48 52 -79 75 -32 23 -73 59 -92 80 -22 25 -73 57
-140 90 -58 29 -118 62 -135 75 -32 24 -141 64 -175 64 -12 0 -51 18 -88 41
-37 22 -79 43 -95 46 -15 3 -30 10 -33 14 -3 5 -60 9 -127 8 l-122 0 -22 -29z
m3067 -2086 c78 -26 121 -47 155 -75 26 -21 54 -39 63 -39 34 0 162 -71 187
-105 15 -19 46 -45 70 -59 26 -16 55 -45 73 -75 22 -35 46 -57 84 -77 29 -16
58 -40 64 -54 39 -81 74 -169 74 -186 0 -41 -38 -128 -65 -147 -36 -27 -104
-33 -162 -14 -60 19 -126 36 -178 46 -22 4 -58 19 -80 34 -22 15 -52 27 -68
27 -40 0 -154 54 -207 99 -25 21 -68 50 -95 65 -149 79 -189 124 -240 277 -30
92 -32 146 -4 224 29 85 44 95 142 95 l80 0 107 -36z"/>
<path d="M2598 4122 l-58 -59 0 -70 0 -70 41 -56 c45 -64 98 -97 155 -97 l38
0 73 73 73 73 0 71 0 71 -77 61 -77 61 -54 0 -55 0 -59 -58z"/>
</g>
</svg>
