<?xml version="1.0" standalone="no"?>
<!DOCTYPE svg PUBLIC "-//W3C//DTD SVG 20010904//EN"
 "http://www.w3.org/TR/2001/REC-SVG-20010904/DTD/svg10.dtd">
<svg version="1.0" xmlns="http://www.w3.org/2000/svg"
 width="249.000000pt" height="300.000000pt" viewBox="0 0 249.000000 300.000000"
 preserveAspectRatio="xMidYMid meet">
<metadata>
Created by potrace 1.16, written by Peter Selinger 2001-2019
</metadata>
<g transform="translate(0.000000,300.000000) scale(0.100000,-0.100000)"
fill="#000000" stroke="none">
<path d="M0 2950 l0 -50 25 0 c14 0 42 -7 62 -15 20 -9 66 -15 107 -15 l71 0
93 -45 c52 -25 99 -45 104 -45 6 0 57 -22 113 -49 77 -37 110 -59 134 -90 18
-23 40 -41 50 -41 9 0 55 -25 101 -56 47 -31 120 -75 163 -97 47 -24 88 -53
104 -74 25 -33 88 -73 115 -73 20 0 163 -151 186 -197 20 -37 56 -74 116 -116
15 -10 37 -40 51 -67 14 -27 42 -61 64 -76 21 -16 49 -44 62 -64 23 -34 83
-113 132 -175 94 -117 237 -356 237 -395 0 -8 18 -41 40 -73 22 -33 42 -75 45
-95 3 -21 12 -57 20 -82 8 -25 15 -55 15 -67 0 -11 13 -50 30 -85 32 -67 37
-118 18 -165 -6 -15 -14 -48 -17 -73 l-6 -45 -47 -3 c-26 -2 -62 4 -83 12 -28
12 -73 16 -172 16 l-134 0 -48 -24 c-59 -31 -98 -74 -135 -153 l-29 -62 13
-55 c28 -119 82 -178 185 -207 22 -6 52 -20 66 -30 l27 -19 102 0 102 0 27 19
c15 11 40 23 57 27 71 17 161 73 197 121 74 103 107 199 107 317 0 47 5 88 10
91 13 8 13 132 0 140 -6 3 -10 26 -10 49 0 24 -7 60 -15 79 -8 20 -15 47 -15
61 0 13 -13 53 -30 88 -16 34 -30 73 -30 86 0 65 -160 407 -230 491 -21 25
-46 61 -55 80 -10 19 -46 67 -80 106 -35 40 -71 85 -81 101 -10 16 -53 66 -95
110 -43 45 -84 95 -93 111 -8 17 -43 56 -78 88 -35 32 -65 68 -68 79 -3 12
-29 37 -57 56 -62 43 -181 140 -207 169 -11 11 -36 26 -56 31 -20 5 -55 26
-77 45 -23 20 -102 65 -175 102 -73 37 -151 79 -172 95 -25 18 -51 28 -74 28
l-35 0 -41 44 c-60 65 -218 136 -301 136 -20 0 -52 7 -72 15 -22 9 -68 15
-124 15 -48 0 -91 5 -94 10 -3 6 -31 10 -61 10 l-54 0 0 -50z m2068 -2587 c42
-19 92 -61 92 -78 0 -34 -142 -125 -194 -125 -38 0 -111 28 -158 62 -52 37
-31 102 45 138 54 25 164 27 215 3z"/>
</g>
</svg>
