<?xml version="1.0" encoding="UTF-8" standalone="no"?>
<!-- Created with Inkscape (http://www.inkscape.org/) -->

<svg
   width="284.60648mm"
   height="99.373138mm"
   viewBox="0 0 284.60648 99.373138"
   version="1.1"
   id="svg1"
   xml:space="preserve"
   xmlns="http://www.w3.org/2000/svg"
   xmlns:svg="http://www.w3.org/2000/svg"><defs
     id="defs1" /><g
     id="layer1"
     transform="translate(50.780187,-80.794947)"><path
       style="fill:#000000"
       d="m 219.97182,179.48862 c -1.64399,-1.10647 -3.69423,-2.90054 -7.37911,-6.45712 -1.89177,-1.8259 -6.41304,-5.99456 -10.04726,-9.26368 -10.70882,-9.63298 -17.95906,-16.91406 -29.23512,-29.35948 -1.64809,-1.81901 -5.28231,-5.62901 -8.07603,-8.46667 -5.89806,-5.99082 -12.95921,-13.47711 -17.4146,-18.46313 -1.71881,-1.92351 -3.17367,-3.49729 -3.23302,-3.49729 -0.0593,0 -0.5089,0.62508 -0.99899,1.38907 -2.71808,4.23708 -9.12057,7.48503 -16.53096,8.38606 -4.73432,0.57565 -9.03912,0.62948 -11.82446,0.14786 -3.84827,-0.66542 -14.31786,-3.77015 -21.523668,-6.3828 -6.672041,-2.41912 -17.946962,-6.01238 -21.860525,-6.96683 -1.302151,-0.31758 -5.350276,-1.181491 -8.995834,-1.919811 -5.62752,-1.139719 -7.107661,-1.34678 -9.803286,-1.37141 -2.931036,-0.02678 -3.292432,0.02602 -4.703278,0.687126 -3.694151,1.731044 -4.609957,2.947755 -4.352859,5.783085 0.248334,2.73866 1.31489,4.28122 6.939968,10.03724 7.656557,7.83479 8.863044,9.18044 8.863044,9.88541 0,0.34287 0.432554,1.5596 0.961231,2.70385 0.653934,1.41536 1.003193,2.60322 1.09249,3.71567 0.118438,1.47549 0.05003,1.77719 -0.70038,3.08877 -0.457401,0.79945 -1.324503,1.89882 -1.926893,2.44304 -2.010385,1.81627 -7.894468,4.20386 -14.664292,5.95035 -9.024525,2.32817 -19.923248,3.05805 -42.2249169,2.82779 -17.6303171,-0.18203 -24.3411961,-0.63868 -32.2309931,-2.19319 -3.564652,-0.70234 -18.983976,-4.95862 -20.164572,-5.56614 l -0.717695,-0.36931 0.532934,-0.90326 c 0.679427,-1.15154 1.859247,-1.60843 2.844432,-1.10152 1.172208,0.60314 16.612576,4.86193 20.150734,5.558 8.722677,1.71605 16.015509,2.14036 36.6447935,2.13206 16.4649135,-0.007 21.8249495,-0.20816 28.3967065,-1.06765 7.708517,-1.00817 16.586965,-3.58884 19.820985,-5.76132 l 1.259394,-0.84601 -0.0217,-1.84775 c -0.01788,-1.52209 -0.189044,-2.2208 -0.971172,-3.96442 -0.522206,-1.16416 -1.025446,-2.46291 -1.118311,-2.88609 -0.183845,-0.83778 -1.122298,-1.87717 -8.741393,-9.68162 -5.737405,-5.87697 -6.710258,-7.30946 -6.944306,-10.2252 -0.123407,-1.5374 -0.05385,-1.85561 0.759045,-3.4727 1.234562,-2.455904 2.921624,-4.030158 5.871051,-5.478478 3.426961,-1.682813 5.255287,-2.092195 8.520957,-1.907937 2.501563,0.141145 12.87932,2.055481 18.269953,3.370171 3.913563,0.954456 15.188485,4.547714 21.860525,6.966834 7.211661,2.61477 17.679781,5.71859 21.523661,6.38181 2.05235,0.35411 3.37541,0.41589 5.9469,0.2777 8.62779,-0.46365 12.56448,-1.56802 16.25578,-4.56026 1.83765,-1.48963 2.15584,-2.29823 1.75583,-4.46205 -0.23425,-1.26721 -0.20138,-1.55264 0.27103,-2.35332 0.34509,-0.584878 0.87315,-1.021927 1.47454,-1.220405 0.92914,-0.306642 0.9501,-0.29632 2.52276,1.242005 0.87221,0.85316 2.97283,3.09522 4.66805,4.98235 4.57927,5.09766 11.64023,12.57534 17.37173,18.39698 2.79372,2.83766 6.42793,6.64766 8.07603,8.46667 11.26796,12.43648 18.26147,19.45982 28.97133,29.0949 3.63379,3.26912 8.1547,7.43778 10.04647,9.26368 5.27298,5.08939 7.86585,7.14975 8.99765,7.14975 0.77462,0 4.50714,-3.89 5.16355,-5.38141 1.49993,-3.40798 1.88157,-9.93242 0.81499,-13.93317 -1.72088,-6.45508 -4.84239,-13.60889 -8.83178,-20.24057 -2.6648,-4.42977 -7.92988,-11.84889 -10.88825,-15.34285 -2.42827,-2.86788 -10.23584,-11.08776 -11.89019,-12.5181 -2.01766,-1.74445 -10.37853,-7.548 -17.8941,-12.420868 -3.1287,-2.028553 -7.53401,-4.901604 -9.78958,-6.384558 -2.25558,-1.482953 -5.3512,-3.334346 -6.87917,-4.114206 -3.81077,-1.94498 -8.76524,-4.187703 -9.32995,-4.223357 -0.57228,-0.03613 -0.58214,-0.215695 -0.0666,-1.212686 0.60751,-1.174796 2.15142,-1.568302 3.63958,-0.927642 4.82191,2.075856 11.70249,5.71435 15.28195,8.081194 2.25557,1.49145 6.66089,4.371453 9.78958,6.400005 7.47551,4.846888 15.86436,10.667528 17.9013,12.420868 1.64695,1.41766 9.67421,9.86553 12.14758,12.78409 2.95091,3.48206 8.22082,10.90731 10.88824,15.34144 2.56977,4.2718 6.06239,11.49459 7.18796,14.8648 2.20838,6.61246 2.67216,9.53576 2.14973,13.5504 -0.45926,3.52919 -1.07776,5.53046 -2.39389,7.74583 -1.39239,2.34374 -5.53872,6.7219 -7.00279,7.39434 -1.53903,0.70686 -3.02354,0.63898 -4.26256,-0.19493 z"
       id="path1" /></g></svg>
