<?xml version="1.0" standalone="no"?>
<!DOCTYPE svg PUBLIC "-//W3C//DTD SVG 20010904//EN"
 "http://www.w3.org/TR/2001/REC-SVG-20010904/DTD/svg10.dtd">
<svg version="1.0" xmlns="http://www.w3.org/2000/svg"
 width="678.000000pt" height="273.000000pt" viewBox="0 0 678.000000 273.000000"
 preserveAspectRatio="xMidYMid meet">
<metadata>
Created by potrace 1.16, written by Peter Selinger 2001-2019
</metadata>
<g transform="translate(0.000000,273.000000) scale(0.100000,-0.100000)"
fill="#000000" stroke="none">
<path d="M4015 2717 c-46 -27 -47 -28 -34 -44 7 -8 39 -28 71 -44 43 -22 71
-29 115 -29 41 0 74 -8 113 -26 30 -14 88 -36 128 -50 40 -13 85 -32 100 -43
47 -32 149 -80 227 -106 42 -13 89 -34 104 -45 37 -26 219 -115 251 -123 14
-4 44 -22 67 -41 22 -20 76 -53 119 -75 44 -22 104 -60 134 -85 30 -25 73 -58
95 -72 22 -15 57 -42 78 -61 21 -19 63 -50 93 -69 31 -20 65 -51 76 -70 11
-19 44 -50 73 -70 29 -19 71 -58 93 -87 22 -29 90 -104 152 -167 62 -63 119
-128 127 -145 9 -16 38 -54 64 -83 27 -29 53 -69 58 -88 5 -20 21 -50 34 -67
54 -71 147 -288 147 -343 0 -12 7 -39 16 -59 12 -29 15 -66 12 -159 l-3 -121
-23 -32 -23 -33 -38 0 c-37 0 -123 26 -197 60 -55 25 -250 90 -271 90 -9 0
-78 20 -152 44 -169 55 -211 66 -286 75 -34 5 -70 13 -82 19 -12 7 -46 12 -75
12 -29 0 -73 6 -98 14 -86 27 -135 38 -210 46 -41 4 -88 12 -105 18 -68 24
-125 35 -210 41 -49 4 -100 12 -112 19 -15 8 -93 12 -258 12 -187 0 -243 3
-272 15 -52 22 -524 22 -576 0 -23 -9 -68 -15 -120 -15 -53 0 -98 -6 -120 -15
-20 -8 -51 -15 -69 -15 l-32 0 -88 -88 -88 -88 0 -35 c0 -19 -5 -40 -12 -47
-19 -19 -408 -17 -455 3 -22 9 -67 15 -120 15 -52 0 -97 6 -120 15 -23 10 -69
15 -135 15 -65 0 -111 5 -135 15 -19 8 -60 15 -90 15 -29 0 -70 7 -90 15 -23
10 -69 15 -135 15 -65 0 -111 5 -135 15 -26 11 -74 15 -180 15 -105 0 -153 4
-180 15 -24 10 -71 15 -150 15 -78 0 -125 5 -150 15 -19 8 -59 15 -87 15 -53
0 -132 23 -224 66 -68 31 -97 30 -175 -6 l-65 -30 -105 0 -105 0 -83 -68 -84
-68 -3 -51 -3 -50 72 -77 c64 -69 146 -126 179 -126 6 0 36 -11 66 -25 84 -38
170 -65 209 -65 20 0 52 -7 72 -15 19 -8 49 -15 65 -15 45 0 119 43 172 100
l49 52 -6 94 -5 94 18 10 c27 15 85 12 127 -5 24 -10 71 -15 150 -15 78 0 125
-5 150 -15 20 -8 66 -15 105 -15 38 0 84 -7 105 -15 27 -11 77 -15 210 -15
132 0 182 -4 210 -15 20 -8 66 -15 105 -15 38 0 84 -7 105 -15 19 -8 53 -15
74 -15 21 0 50 -5 65 -10 19 -7 37 -7 60 0 25 9 40 8 69 -5 21 -8 62 -15 92
-15 29 0 70 -7 90 -15 23 -10 69 -15 135 -15 65 0 111 -5 135 -15 26 -11 75
-15 190 -15 l155 0 29 29 29 29 0 50 c0 27 -7 66 -15 85 -36 87 -1 127 124
137 42 4 89 12 104 18 16 7 72 12 126 12 65 0 111 5 134 15 47 19 157 19 204
0 27 -11 77 -15 210 -15 132 0 182 -4 210 -15 20 -8 66 -15 105 -15 38 0 84
-7 105 -15 26 -11 74 -15 180 -15 l145 0 65 -30 c45 -21 80 -30 117 -30 32 0
84 -11 136 -30 53 -18 105 -30 138 -30 29 0 69 -7 89 -15 19 -8 53 -15 75 -15
21 0 55 -7 75 -15 19 -8 45 -15 57 -15 24 0 120 -31 182 -60 62 -28 251 -90
277 -90 12 0 42 -14 67 -30 25 -16 52 -30 61 -30 9 0 35 -15 59 -32 84 -64
162 -108 191 -108 62 0 259 226 259 297 0 18 5 35 10 38 6 4 10 63 10 145 0
82 -4 141 -10 145 -5 3 -10 24 -10 46 0 50 -33 150 -66 198 -13 19 -24 49 -24
66 0 31 -25 78 -137 258 -17 29 -43 73 -57 98 -13 25 -41 58 -60 73 -20 15
-47 49 -61 76 -14 27 -42 61 -64 77 -22 15 -52 48 -67 71 -16 24 -49 57 -74
74 -25 16 -61 53 -81 81 -27 40 -45 55 -79 67 -32 11 -52 27 -73 57 -16 25
-48 53 -77 69 -28 15 -62 42 -76 61 -14 18 -51 47 -82 64 -85 45 -187 111
-219 140 -31 29 -84 59 -105 59 -7 0 -30 11 -51 25 -66 45 -236 125 -265 125
-18 0 -38 10 -57 30 -16 17 -36 30 -44 30 -9 0 -36 14 -61 30 -25 16 -51 30
-58 30 -8 0 -43 14 -79 30 -35 17 -69 30 -75 30 -6 0 -50 18 -97 41 -149 70
-185 79 -330 79 -76 0 -132 4 -136 10 -8 13 -65 11 -90 -3z m-3480 -2233 c16
-8 49 -34 72 -57 33 -33 43 -49 43 -75 0 -95 -54 -97 -230 -11 -163 80 -208
122 -162 148 29 17 242 13 277 -5z"/>
</g>
</svg>
