<?xml version="1.0" standalone="no"?>
<!DOCTYPE svg PUBLIC "-//W3C//DTD SVG 20010904//EN"
 "http://www.w3.org/TR/2001/REC-SVG-20010904/DTD/svg10.dtd">
<svg version="1.0" xmlns="http://www.w3.org/2000/svg"
 width="675.000000pt" height="300.000000pt" viewBox="0 0 675.000000 300.000000"
 preserveAspectRatio="xMidYMid meet">
<metadata>
Created by potrace 1.16, written by Peter Selinger 2001-2019
</metadata>
<g transform="translate(0.000000,300.000000) scale(0.100000,-0.100000)"
fill="#000000" stroke="none">
<path d="M3998 2969 c-47 -38 -51 -77 -12 -108 l27 -21 134 0 c96 0 144 -4
170 -15 19 -8 54 -15 77 -15 29 0 54 -9 86 -30 25 -16 52 -30 60 -30 8 0 44
-14 78 -30 35 -17 69 -30 74 -30 19 0 196 -89 238 -119 22 -16 55 -32 73 -35
34 -6 147 -96 187 -148 12 -16 28 -28 36 -28 47 0 159 -79 245 -171 20 -22 45
-39 56 -39 11 0 28 -10 39 -21 10 -12 35 -32 54 -44 54 -34 379 -365 401 -407
11 -21 33 -48 50 -60 17 -13 43 -43 57 -68 14 -25 50 -81 80 -125 58 -84 112
-189 112 -216 0 -9 14 -35 31 -59 37 -51 89 -158 89 -183 0 -10 -5 -27 -10
-38 l-11 -19 -120 0 -120 0 -47 -24 c-56 -29 -92 -65 -121 -123 l-21 -42 0
-106 0 -105 36 -73 c20 -39 59 -96 85 -126 27 -30 49 -63 49 -72 0 -27 -39
-49 -86 -49 -23 0 -58 -7 -77 -15 -24 -10 -70 -15 -132 -15 -62 0 -108 5 -132
15 -19 8 -52 15 -72 15 -40 0 -126 27 -209 66 -29 13 -64 24 -78 24 -65 0
-170 74 -244 172 l-51 68 -55 0 -56 0 -29 -29 -29 -29 0 -47 c0 -54 -21 -95
-60 -119 -39 -22 -293 -23 -347 -1 -19 8 -47 15 -61 15 -29 0 -201 80 -248
116 -18 14 -48 29 -67 35 -19 5 -62 33 -95 62 -33 28 -72 60 -86 70 -14 10
-36 37 -47 60 -12 23 -34 56 -49 72 -15 17 -37 62 -50 103 -32 103 -56 136
-105 143 -22 3 -67 22 -100 43 -33 20 -75 41 -95 46 -47 13 -136 56 -174 85
-17 13 -65 40 -106 61 -41 20 -88 47 -105 60 -16 12 -64 39 -105 60 -41 20
-88 47 -105 60 -16 12 -63 39 -102 59 -40 19 -109 61 -154 91 -44 31 -115 73
-157 95 -100 52 -204 117 -239 151 -15 14 -42 29 -60 33 -17 3 -51 23 -75 44
-24 21 -70 52 -104 69 -34 17 -98 56 -143 87 -45 31 -113 72 -151 91 -39 19
-105 59 -148 88 -42 29 -98 63 -122 76 -25 12 -65 39 -89 59 -25 20 -68 50
-97 66 -29 17 -75 44 -104 60 -29 17 -95 59 -149 94 -92 62 -279 161 -302 161
-6 0 -40 14 -76 30 -35 17 -76 30 -91 30 -15 0 -47 14 -72 30 l-45 30 -91 0
c-59 0 -104 -5 -127 -15 -20 -8 -51 -15 -68 -15 -24 0 -42 -11 -75 -44 -24
-24 -44 -53 -44 -64 0 -11 -4 -24 -10 -27 -5 -3 -10 -21 -10 -40 0 -19 5 -37
10 -40 6 -3 10 -34 10 -69 l0 -63 29 -41 c17 -22 46 -72 66 -111 38 -77 118
-182 165 -219 17 -13 34 -39 40 -61 11 -44 78 -111 109 -111 11 0 23 -4 26
-10 12 -20 169 -140 183 -140 20 0 81 -29 117 -56 27 -21 79 -39 205 -74 25
-7 85 -15 134 -17 l89 -5 69 23 c88 28 130 56 140 94 4 17 26 52 48 79 l40 48
0 57 c0 31 4 63 10 71 l9 14 73 -33 c40 -18 92 -40 115 -48 23 -8 59 -30 81
-49 21 -18 72 -50 113 -70 40 -20 91 -50 113 -65 21 -16 47 -29 56 -29 9 0 27
-12 41 -26 13 -14 50 -39 81 -55 31 -16 74 -44 94 -61 36 -32 60 -47 174 -113
29 -16 75 -45 103 -64 27 -18 96 -56 151 -84 56 -28 115 -60 131 -72 17 -13
50 -33 75 -45 25 -12 66 -40 92 -61 26 -22 93 -63 150 -91 57 -28 117 -61 133
-74 17 -12 82 -48 145 -80 128 -64 211 -135 228 -196 18 -67 149 -217 265
-305 57 -43 186 -113 209 -113 7 0 33 -14 58 -30 25 -16 51 -30 58 -30 7 0 39
-12 70 -26 31 -14 77 -33 102 -42 39 -13 222 -32 330 -33 75 -1 199 19 270 44
96 34 127 34 207 -3 35 -16 74 -30 86 -30 12 0 62 -13 112 -29 153 -49 176
-54 290 -58 61 -2 114 -8 120 -14 12 -12 72 -12 80 1 4 6 55 10 120 10 l114 0
153 51 c202 67 280 107 313 159 14 23 38 46 53 51 57 23 57 23 57 87 0 43 5
65 18 79 l17 20 0 166 c0 100 -4 168 -10 172 -5 3 -10 19 -10 34 0 16 -7 45
-15 64 -8 20 -15 49 -15 64 0 16 -11 45 -25 66 -14 20 -37 71 -50 112 -37 111
-70 172 -215 388 -121 182 -146 212 -214 260 -14 9 -30 34 -35 55 -11 38 -51
83 -104 116 -30 19 -106 83 -202 170 -175 161 -273 240 -356 288 -25 14 -58
42 -73 62 -19 26 -40 39 -71 47 -26 7 -63 27 -87 49 -24 20 -58 45 -77 55 -19
9 -52 30 -74 46 -24 17 -53 29 -72 29 -22 0 -40 9 -60 30 -16 17 -35 30 -43
30 -7 0 -38 11 -68 25 -68 31 -168 65 -191 65 -22 0 -151 43 -191 64 -44 23
-149 56 -176 56 -14 0 -28 5 -31 10 -4 6 -57 10 -128 10 l-122 -1 -37 -30z
m-3568 -369 c25 -16 56 -30 70 -30 43 0 219 -65 248 -92 48 -44 95 -75 172
-114 41 -20 89 -47 105 -60 17 -12 66 -40 110 -62 103 -52 128 -77 156 -162
l23 -70 -28 -86 c-16 -47 -38 -97 -50 -111 -41 -47 -194 -53 -321 -12 -83 27
-103 37 -155 80 -25 20 -68 48 -96 62 -50 25 -61 35 -137 122 -32 37 -75 102
-139 213 -43 74 -78 191 -78 260 0 97 38 117 120 62z m5900 -1878 c19 -11 37
-25 41 -33 40 -80 69 -163 69 -195 0 -44 -35 -122 -62 -138 -23 -14 -51 3
-119 68 l-54 51 -22 71 -23 71 18 49 c9 27 21 55 25 62 12 18 87 15 127 -6z"/>
</g>
</svg>
