<?xml version="1.0" standalone="no"?>
<!DOCTYPE svg PUBLIC "-//W3C//DTD SVG 20010904//EN"
 "http://www.w3.org/TR/2001/REC-SVG-20010904/DTD/svg10.dtd">
<svg version="1.0" xmlns="http://www.w3.org/2000/svg"
 width="594.000000pt" height="318.000000pt" viewBox="0 0 594.000000 318.000000"
 preserveAspectRatio="xMidYMid meet">
<metadata>
Created by potrace 1.16, written by Peter Selinger 2001-2019
</metadata>
<g transform="translate(0.000000,318.000000) scale(0.100000,-0.100000)"
fill="#000000" stroke="none">
<path d="M3278 3159 c-64 -32 -50 -73 39 -118 l42 -21 113 0 113 0 100 -34
c55 -19 127 -51 160 -70 33 -20 78 -41 100 -47 56 -16 118 -48 220 -118 50
-34 97 -61 106 -61 8 0 26 -12 40 -26 13 -14 56 -47 94 -72 39 -26 90 -65 115
-87 25 -23 71 -58 103 -80 32 -21 83 -67 115 -102 31 -35 75 -75 98 -89 22
-14 54 -47 71 -73 17 -26 51 -59 75 -75 25 -15 58 -49 75 -75 17 -26 51 -59
75 -74 24 -16 54 -45 68 -65 23 -34 48 -67 149 -197 21 -27 49 -70 61 -95 13
-25 39 -65 60 -90 35 -43 70 -107 70 -128 0 -6 27 -66 60 -135 33 -68 60 -135
60 -149 0 -14 7 -42 15 -61 11 -26 15 -73 15 -158 l0 -123 -22 -65 -22 -66
-80 -81 c-86 -86 -139 -119 -259 -160 l-72 -24 -243 0 c-193 0 -250 3 -279 15
-19 8 -65 15 -102 15 -36 0 -86 6 -111 14 -58 18 -124 35 -175 45 -22 4 -56
12 -75 18 -78 25 -129 35 -200 42 -41 4 -85 13 -97 19 -12 7 -34 12 -50 12
-15 0 -53 12 -83 26 -73 34 -207 74 -311 94 -26 5 -64 17 -86 28 -47 25 -247
92 -271 92 -21 0 -117 32 -192 64 -191 82 -289 116 -335 116 -23 0 -66 13
-103 30 -35 17 -69 30 -75 30 -7 0 -32 14 -57 30 -32 22 -57 30 -88 30 -23 0
-59 7 -79 15 -19 8 -52 15 -72 15 -20 0 -56 6 -81 14 -77 24 -133 37 -190 45
-30 4 -71 12 -90 18 -97 31 -137 37 -275 40 l-150 4 -68 -22 c-38 -12 -83 -32
-100 -43 l-32 -22 -3 -169 -2 -170 -17 -13 c-11 -8 -55 -12 -128 -12 l-111 0
-29 30 c-33 34 -48 36 -98 15 -52 -22 -422 -22 -474 0 -24 10 -70 15 -140 15
-123 0 -163 -14 -163 -58 1 -44 57 -72 240 -122 25 -7 86 -15 135 -19 50 -4
97 -11 105 -16 14 -10 314 -25 525 -27 204 -1 313 8 338 30 12 11 17 30 17 74
0 42 7 75 25 115 l26 56 -11 30 c-5 16 -10 47 -10 68 l0 38 32 22 c41 30 129
37 195 16 62 -20 126 -36 185 -47 26 -5 56 -13 67 -19 11 -6 44 -11 73 -11 34
0 85 -11 138 -30 47 -16 96 -30 110 -30 39 0 50 -18 50 -82 0 -68 19 -111 86
-197 24 -31 53 -69 65 -84 12 -16 39 -39 60 -53 22 -13 50 -42 64 -64 19 -30
44 -49 103 -79 42 -21 118 -66 167 -100 49 -34 97 -61 105 -61 28 0 173 -76
218 -114 l44 -36 73 0 c41 0 77 -5 80 -10 7 -12 178 -13 203 -2 9 5 31 15 47
23 22 10 41 36 70 91 l39 76 -13 53 c-8 29 -24 77 -37 106 -13 30 -24 57 -24
62 0 23 38 19 98 -9 35 -16 74 -30 85 -30 12 0 62 -13 112 -29 141 -45 174
-53 270 -60 50 -4 100 -12 112 -19 12 -7 39 -12 60 -12 21 0 58 -6 83 -14 94
-30 138 -38 225 -45 50 -4 100 -12 112 -19 34 -19 400 -16 446 3 20 8 55 15
77 15 22 0 59 10 82 21 23 12 103 41 177 65 l136 44 35 39 c19 21 54 50 77 65
26 16 51 42 64 68 12 24 39 66 60 95 l39 52 0 191 c0 105 -4 198 -10 208 -17
31 -70 196 -70 219 0 33 -65 159 -110 213 -21 25 -54 77 -74 117 -20 40 -48
80 -65 92 -16 12 -51 54 -77 94 -26 39 -92 118 -146 175 -54 56 -98 108 -98
114 0 17 -347 365 -394 395 -22 14 -60 44 -85 67 -25 23 -59 50 -76 61 -16 10
-50 37 -75 60 -25 23 -65 53 -90 67 -25 14 -54 36 -65 48 -11 12 -40 33 -65
47 -25 13 -70 40 -100 59 -30 19 -66 37 -80 41 -14 3 -38 18 -55 33 -39 36
-56 44 -162 78 -48 16 -115 43 -149 60 -74 37 -174 72 -208 72 -14 0 -28 5
-31 10 -4 6 -71 10 -173 9 l-167 -1 -37 -19z m-524 -2463 c18 -8 52 -28 76
-45 25 -18 55 -31 72 -31 32 0 163 -74 213 -120 31 -29 86 -60 105 -60 6 0 37
-26 68 -57 32 -32 70 -66 85 -76 15 -10 36 -38 47 -62 31 -68 8 -97 -57 -70
-19 8 -45 15 -57 15 -30 0 -135 38 -166 60 -14 9 -72 41 -130 70 -58 29 -125
69 -150 89 -25 20 -63 47 -85 60 -52 30 -185 175 -185 203 0 36 99 51 164 24z"/>
</g>
</svg>
