<?xml version="1.0" standalone="no"?>
<!DOCTYPE svg PUBLIC "-//W3C//DTD SVG 20010904//EN"
 "http://www.w3.org/TR/2001/REC-SVG-20010904/DTD/svg10.dtd">
<svg version="1.0" xmlns="http://www.w3.org/2000/svg"
 width="690.000000pt" height="300.000000pt" viewBox="0 0 690.000000 300.000000"
 preserveAspectRatio="xMidYMid meet">
<metadata>
Created by potrace 1.16, written by Peter Selinger 2001-2019
</metadata>
<g transform="translate(0.000000,300.000000) scale(0.100000,-0.100000)"
fill="#000000" stroke="none">
<path d="M4385 2990 c-3 -5 -24 -10 -46 -10 -50 0 -79 -15 -79 -40 0 -26 29
-40 82 -40 24 -1 54 -7 68 -15 14 -8 43 -14 65 -15 23 0 79 -13 125 -30 47
-16 94 -30 105 -30 22 0 214 -63 255 -83 14 -6 43 -24 64 -39 21 -16 52 -28
68 -28 17 0 59 -13 95 -30 35 -16 70 -30 76 -30 7 0 32 -14 57 -30 25 -16 51
-30 59 -30 27 0 182 -81 219 -114 20 -18 69 -49 107 -69 39 -20 91 -53 118
-74 26 -21 75 -58 109 -83 34 -25 82 -66 107 -91 26 -26 65 -56 88 -68 23 -11
50 -32 60 -47 41 -58 67 -85 106 -112 30 -20 46 -40 57 -71 11 -32 27 -53 60
-76 31 -22 49 -43 58 -69 7 -21 22 -51 33 -67 11 -16 25 -44 30 -62 5 -18 25
-60 45 -92 19 -33 44 -85 55 -115 l19 -54 0 -244 0 -243 -39 -67 c-22 -37 -50
-84 -63 -106 -13 -21 -65 -80 -116 -132 l-92 -93 -103 -50 c-102 -50 -386
-151 -424 -151 -11 0 -37 -7 -56 -15 -20 -8 -54 -15 -75 -15 -22 0 -56 -7 -75
-15 l-36 -15 -291 0 -291 0 -36 15 c-20 8 -66 15 -105 15 -38 0 -84 7 -105 15
-19 8 -52 15 -72 15 -20 0 -56 6 -81 14 -78 25 -133 37 -195 45 -34 5 -70 13
-82 19 -12 7 -45 12 -74 12 -58 0 -168 33 -211 62 -34 24 -37 60 -7 103 54 80
69 123 69 197 -1 86 -26 167 -64 207 -14 15 -26 34 -26 42 0 7 -13 36 -28 63
-19 36 -41 58 -77 79 -27 16 -62 41 -78 55 -26 25 -46 37 -167 107 -29 17 -74
44 -100 62 -63 42 -156 73 -220 73 -28 0 -67 7 -87 15 -49 21 -227 21 -276 0
-20 -8 -55 -15 -77 -15 -59 0 -126 -38 -197 -113 l-63 -65 0 -81 0 -82 25 -49
c14 -27 41 -61 60 -76 19 -14 35 -34 35 -44 0 -26 173 -161 270 -210 25 -13
59 -34 77 -47 17 -13 44 -28 59 -32 32 -8 50 -32 41 -55 l-6 -16 -181 0 c-138
0 -189 4 -217 15 -26 11 -74 15 -179 15 -88 0 -153 5 -171 12 -15 6 -77 15
-138 20 -60 4 -130 10 -155 13 -25 2 -103 8 -175 13 -71 4 -140 13 -152 20
-15 8 -90 12 -257 12 l-236 0 -41 17 -41 16 -47 -17 -48 -17 -29 13 c-16 7
-90 15 -164 19 -74 4 -160 12 -190 18 -30 5 -153 10 -273 10 -172 1 -225 4
-254 16 -29 12 -57 14 -123 9 -115 -9 -120 -12 -120 -79 l0 -55 55 0 c31 0 72
-7 92 -15 25 -11 72 -15 165 -15 92 0 139 -4 165 -15 27 -12 79 -15 225 -15
145 0 197 -3 225 -15 24 -10 71 -15 150 -15 78 0 125 -5 150 -15 27 -11 77
-15 209 -15 114 0 182 -4 201 -12 17 -8 108 -15 228 -20 110 -4 220 -9 245
-12 25 -3 110 -9 190 -13 80 -5 152 -12 160 -18 8 -5 62 -13 120 -17 58 -4
130 -11 160 -17 30 -5 171 -10 314 -10 165 -1 273 -5 297 -13 30 -8 48 -8 79
1 l39 12 37 -16 c23 -9 68 -15 121 -15 52 0 97 -6 120 -15 19 -8 53 -15 75
-15 23 0 67 -13 105 -30 35 -17 74 -30 87 -30 26 0 122 -32 194 -66 29 -13 71
-24 93 -24 22 0 56 -7 76 -15 25 -11 72 -15 165 -15 92 0 139 -4 165 -15 19
-8 48 -15 64 -15 15 0 31 -5 34 -10 8 -14 792 -14 800 0 3 6 32 10 64 10 32 0
75 7 94 15 20 8 66 15 101 15 52 0 97 11 218 51 84 28 167 62 185 75 37 28
154 84 177 84 8 0 43 25 77 55 34 31 74 58 88 62 36 8 49 20 73 67 11 23 37
61 58 86 50 60 106 174 113 229 3 24 15 57 26 72 l21 28 0 164 c0 89 -4 167
-9 173 -5 5 -11 32 -14 59 -5 56 -15 96 -60 240 l-31 100 -43 41 c-24 22 -43
49 -43 60 0 10 -18 46 -41 79 -46 69 -415 444 -473 482 -22 14 -60 44 -85 67
-25 23 -66 54 -91 68 -25 14 -54 36 -65 48 -21 23 -86 60 -106 60 -21 0 -84
34 -169 92 -47 32 -91 58 -98 58 -8 0 -43 14 -79 30 -35 17 -69 30 -75 30 -5
0 -36 16 -67 35 -63 39 -181 84 -220 85 -14 0 -80 27 -148 60 -69 33 -135 60
-149 60 -14 0 -41 7 -61 15 -20 9 -66 15 -109 15 -40 0 -76 5 -79 10 -3 6 -48
10 -100 10 -52 0 -97 -4 -100 -10z m-1178 -1815 c19 -8 47 -15 60 -15 14 0 53
-13 87 -29 34 -16 77 -32 95 -36 21 -4 53 -27 87 -61 29 -30 61 -54 71 -54 10
0 40 -25 66 -55 30 -34 60 -58 79 -63 34 -9 32 -6 77 -108 22 -50 31 -86 31
-124 l0 -53 -42 -44 -43 -43 -70 0 -70 0 -93 45 c-52 25 -99 45 -105 45 -20 1
-79 33 -167 92 -47 31 -100 59 -119 63 -22 5 -51 24 -81 56 -27 28 -63 54 -85
61 -25 8 -49 26 -65 49 -14 19 -40 55 -57 79 -59 77 -34 138 77 192 47 23 215
25 267 3z"/>
</g>
</svg>
