<?xml version="1.0" standalone="no"?>
<!DOCTYPE svg PUBLIC "-//W3C//DTD SVG 20010904//EN"
 "http://www.w3.org/TR/2001/REC-SVG-20010904/DTD/svg10.dtd">
<svg version="1.0" xmlns="http://www.w3.org/2000/svg"
 width="813.000000pt" height="279.000000pt" viewBox="0 0 813.000000 279.000000"
 preserveAspectRatio="xMidYMid meet">
<metadata>
Created by potrace 1.16, written by Peter Selinger 2001-2019
</metadata>
<g transform="translate(0.000000,279.000000) scale(0.100000,-0.100000)"
fill="#000000" stroke="none">
<path d="M5902 2767 c-12 -13 -22 -33 -22 -44 0 -28 45 -63 82 -63 16 0 45 -7
65 -15 19 -8 60 -15 90 -15 29 0 70 -7 90 -15 19 -8 54 -15 76 -15 30 0 80
-19 194 -75 85 -41 159 -75 164 -75 17 0 81 -31 114 -56 17 -12 53 -34 80 -48
79 -42 181 -109 212 -137 15 -15 47 -36 70 -48 23 -11 50 -33 60 -47 41 -59
87 -105 112 -111 36 -8 51 -22 51 -46 0 -12 26 -46 65 -83 35 -35 73 -81 85
-104 11 -22 38 -51 60 -65 53 -33 78 -63 89 -103 6 -18 21 -48 34 -65 59 -78
177 -346 177 -403 0 -12 7 -38 15 -57 10 -25 15 -71 15 -144 l0 -108 -25 -72
c-13 -39 -33 -90 -44 -112 -12 -22 -21 -45 -21 -50 0 -17 -178 -188 -202 -194
-13 -4 -48 -22 -78 -41 -114 -73 -194 -106 -255 -106 -31 0 -66 -5 -78 -12
-12 -6 -48 -14 -82 -19 -63 -8 -118 -21 -197 -46 l-47 -15 -391 1 -390 1 -36
15 c-20 8 -61 15 -91 15 -29 0 -70 7 -90 15 -20 8 -66 15 -105 15 -38 0 -84 7
-105 15 -19 8 -66 15 -103 15 -65 0 -188 34 -213 59 -17 17 13 41 50 41 27 0
45 10 84 47 69 65 99 126 99 203 0 85 -30 137 -137 240 -91 89 -147 132 -222
169 -24 13 -62 36 -84 52 -22 16 -46 29 -54 29 -8 0 -44 13 -80 30 -35 16 -69
30 -74 30 -6 0 -35 12 -66 26 -52 23 -111 43 -223 74 -25 7 -86 15 -136 17
l-91 4 -63 -21 c-131 -44 -231 -112 -266 -182 l-25 -50 4 -82 c2 -44 11 -103
20 -131 10 -34 11 -54 5 -62 -14 -17 -61 -16 -105 2 -19 8 -47 15 -60 15 -14
0 -54 14 -90 30 -35 16 -74 30 -86 30 -32 0 -226 68 -256 89 -41 29 -163 88
-198 95 -17 4 -51 25 -75 46 -24 21 -90 61 -145 89 -56 28 -125 72 -155 99
-29 26 -70 59 -90 72 -20 14 -49 44 -64 68 -15 24 -48 57 -73 74 -25 17 -51
38 -57 47 -7 9 -46 57 -89 106 -42 50 -93 122 -112 160 -19 39 -47 83 -61 98
-15 15 -36 58 -48 95 -33 104 -91 134 -174 92 -59 -30 -70 -53 -70 -141 l0
-76 -29 -40 c-81 -112 -227 -174 -416 -175 -123 0 -355 17 -384 28 -18 8 -63
14 -100 14 -36 0 -86 6 -111 14 -78 25 -133 37 -195 45 -34 5 -70 13 -82 19
-12 7 -40 12 -63 12 -23 0 -66 11 -97 26 -31 14 -89 36 -130 49 -40 13 -90 36
-110 50 -21 14 -51 25 -68 25 -16 0 -43 9 -60 21 -67 45 -125 69 -170 69 l-45
0 0 -69 0 -69 32 -24 c18 -14 53 -35 77 -47 24 -13 62 -36 84 -52 22 -16 46
-29 54 -29 8 0 39 -11 69 -25 51 -23 307 -109 404 -135 25 -6 79 -16 120 -20
41 -4 107 -20 145 -34 54 -20 89 -26 153 -26 45 0 97 -6 115 -13 21 -8 95 -14
212 -15 l180 -3 37 15 c21 9 60 16 88 16 64 0 137 25 282 95 139 67 174 70
227 22 20 -18 46 -39 57 -47 12 -8 35 -35 52 -60 17 -25 79 -91 139 -147 59
-57 128 -122 153 -147 25 -24 70 -56 100 -71 30 -15 73 -47 95 -71 26 -27 74
-60 134 -90 52 -26 111 -62 131 -81 24 -21 48 -33 65 -33 16 0 84 -27 152 -60
69 -33 129 -60 135 -60 5 0 39 -14 75 -30 39 -18 81 -30 106 -30 30 0 55 -9
87 -30 25 -16 58 -30 73 -30 15 0 44 -7 64 -15 19 -8 52 -15 72 -15 20 0 56
-6 81 -14 86 -27 136 -38 210 -46 77 -8 152 -38 214 -85 34 -25 142 -65 178
-65 24 0 65 -20 159 -78 30 -18 65 -35 79 -37 14 -3 43 -10 65 -16 22 -6 65
-14 95 -18 30 -4 111 -26 180 -48 137 -45 191 -60 262 -73 26 -5 56 -13 67
-19 11 -6 81 -11 166 -11 107 0 155 -4 182 -15 20 -9 66 -15 109 -15 40 0 76
-4 79 -10 4 -6 133 -10 355 -10 222 0 351 4 355 10 3 6 39 10 79 10 43 0 89 6
109 15 23 9 68 15 120 15 53 0 98 6 120 15 20 8 47 15 61 15 14 0 80 27 149
60 68 33 136 60 151 60 53 0 131 52 292 196 78 69 133 143 188 253 l36 71 0
59 c0 33 5 63 10 66 6 3 10 48 10 100 0 52 -4 97 -10 100 -5 3 -10 31 -10 60
0 95 -110 380 -185 480 -12 17 -32 50 -45 75 -12 25 -32 56 -45 70 -13 14 -35
43 -49 65 -14 22 -45 54 -69 71 -23 17 -46 44 -52 61 -12 35 -207 248 -246
269 -15 7 -51 35 -80 62 -64 57 -338 242 -360 242 -8 0 -31 11 -52 25 -45 31
-232 125 -248 125 -7 0 -51 18 -98 41 -101 48 -190 79 -225 79 -14 0 -28 5
-31 10 -4 6 -83 10 -204 10 l-198 0 -21 -23z m-1282 -1703 c58 -19 124 -44
148 -55 23 -11 75 -30 115 -43 79 -26 191 -90 250 -142 20 -19 42 -34 47 -34
13 0 84 -73 122 -124 29 -41 37 -91 18 -127 l-11 -19 -55 0 c-30 0 -71 7 -91
15 -19 8 -47 15 -62 15 -29 0 -68 23 -90 53 -47 65 -157 178 -178 183 -36 9
-120 -33 -156 -78 l-30 -38 -85 0 -85 0 -71 34 c-52 25 -84 49 -118 90 l-48
55 0 66 c0 101 19 125 135 169 65 24 129 19 245 -20z"/>
</g>
</svg>
