<?xml version="1.0" standalone="no"?>
<!DOCTYPE svg PUBLIC "-//W3C//DTD SVG 20010904//EN"
 "http://www.w3.org/TR/2001/REC-SVG-20010904/DTD/svg10.dtd">
<svg version="1.0" xmlns="http://www.w3.org/2000/svg"
 width="486.000000pt" height="285.000000pt" viewBox="0 0 486.000000 285.000000"
 preserveAspectRatio="xMidYMid meet">
<metadata>
Created by potrace 1.16, written by Peter Selinger 2001-2019
</metadata>
<g transform="translate(0.000000,285.000000) scale(0.100000,-0.100000)"
fill="#000000" stroke="none">
<path d="M2735 2840 c-3 -5 -21 -10 -38 -10 -40 0 -77 -24 -77 -50 0 -24 32
-41 137 -75 43 -14 102 -37 131 -50 29 -14 62 -25 73 -25 12 0 53 -10 92 -22
l71 -23 53 -52 c29 -29 60 -53 69 -53 30 0 181 -78 226 -118 25 -21 60 -44 79
-51 55 -21 64 -27 67 -50 4 -24 113 -111 139 -111 8 0 40 -26 71 -57 32 -32
70 -66 84 -76 16 -10 32 -33 38 -55 7 -28 42 -69 145 -170 103 -101 143 -148
166 -195 18 -34 48 -82 69 -107 21 -25 48 -64 59 -88 12 -24 44 -76 72 -117
28 -42 60 -108 74 -150 14 -42 35 -95 46 -118 27 -51 49 -186 56 -330 l5 -108
-35 -74 c-69 -145 -248 -285 -364 -285 -19 0 -76 -15 -129 -32 l-94 -33 -48
17 -47 17 -245 -1 -246 0 -38 16 c-23 10 -67 16 -110 16 l-71 0 -45 30 c-32
22 -57 30 -88 30 -23 0 -59 7 -79 15 -20 8 -66 15 -105 15 -38 0 -84 7 -105
15 -19 8 -45 15 -56 15 -12 0 -81 20 -154 45 -73 25 -142 45 -154 45 -11 0
-50 13 -86 30 -38 18 -81 30 -105 30 -23 0 -67 12 -105 30 -35 17 -77 30 -92
30 -17 0 -37 10 -52 26 -23 25 -207 124 -230 124 -6 0 -40 13 -76 30 -87 41
-123 39 -173 -6 -47 -43 -51 -70 -17 -129 26 -46 104 -94 153 -95 18 0 48 -12
72 -30 23 -17 46 -30 50 -30 5 0 19 -11 32 -25 19 -20 21 -28 12 -37 -10 -10
-23 -9 -61 5 -27 9 -66 17 -87 17 -27 0 -54 10 -84 30 -25 16 -58 30 -73 30
-16 0 -53 11 -83 25 -75 34 -168 65 -198 65 -13 0 -44 16 -68 35 -67 54 -132
85 -178 85 -22 0 -57 7 -77 15 -24 10 -71 15 -152 15 l-116 0 -45 30 -45 30
-91 0 c-59 0 -104 -5 -127 -15 -20 -8 -49 -15 -64 -15 -15 -1 -64 -20 -108
-43 l-80 -42 -27 -50 c-19 -34 -28 -65 -28 -97 0 -26 -4 -50 -10 -53 -5 -3
-10 -34 -10 -68 l0 -61 27 -28 c32 -33 90 -39 115 -10 24 27 48 79 48 104 0
42 37 131 62 148 42 30 152 60 217 60 49 0 77 -7 128 -30 47 -22 79 -30 119
-30 30 0 71 -7 91 -15 20 -8 66 -15 105 -15 72 0 116 -14 173 -56 51 -37 173
-94 202 -94 28 0 65 -17 163 -77 69 -41 222 -88 335 -102 34 -5 70 -13 82 -19
12 -7 59 -12 104 -12 l83 0 87 92 87 91 44 -16 c24 -9 54 -17 67 -17 12 0 52
-13 88 -30 35 -16 75 -30 89 -30 14 0 41 -7 61 -15 19 -8 53 -15 75 -15 23 0
67 -13 105 -30 45 -21 80 -30 116 -30 29 0 72 -6 97 -14 60 -19 125 -35 182
-46 26 -5 56 -13 67 -19 11 -6 65 -11 121 -11 67 0 113 -5 137 -15 28 -12 81
-15 244 -15 128 0 210 -4 214 -10 8 -13 132 -13 140 0 3 6 25 10 48 10 23 0
80 14 127 30 46 17 101 30 122 30 40 0 100 26 153 64 17 13 59 38 94 56 38 21
95 65 142 112 l79 78 0 59 c0 33 5 63 10 66 12 8 14 492 1 499 -4 3 -11 18
-14 33 -3 16 -24 58 -46 95 -23 37 -41 80 -41 96 0 18 -10 38 -30 57 -16 16
-30 35 -30 42 0 23 -41 95 -77 138 -18 22 -36 51 -40 65 -16 69 -111 210 -141
210 -24 0 -42 19 -42 44 0 20 -155 180 -245 251 -103 82 -171 149 -200 198
-22 37 -47 60 -87 84 -31 18 -70 52 -87 75 -46 65 -50 68 -77 68 -30 0 -86 24
-129 56 -53 40 -229 121 -273 127 -26 3 -57 16 -78 34 -73 58 -94 71 -161 90
-107 32 -155 44 -196 50 -20 3 -40 9 -43 14 -7 12 -71 11 -79 -1z"/>
</g>
</svg>
