<?xml version="1.0" standalone="no"?>
<!DOCTYPE svg PUBLIC "-//W3C//DTD SVG 20010904//EN"
 "http://www.w3.org/TR/2001/REC-SVG-20010904/DTD/svg10.dtd">
<svg version="1.0" xmlns="http://www.w3.org/2000/svg"
 width="771.000000pt" height="354.000000pt" viewBox="0 0 771.000000 354.000000"
 preserveAspectRatio="xMidYMid meet">
<metadata>
Created by potrace 1.16, written by Peter Selinger 2001-2019
</metadata>
<g transform="translate(0.000000,354.000000) scale(0.100000,-0.100000)"
fill="#000000" stroke="none">
<path d="M5195 3510 c-24 -46 -19 -61 44 -127 45 -49 65 -63 87 -63 15 0 88
-20 161 -45 73 -25 142 -45 154 -45 28 0 137 -51 190 -89 23 -17 48 -31 56
-31 28 0 138 -57 222 -115 46 -31 96 -61 111 -65 53 -15 230 -140 255 -180 14
-22 35 -44 47 -51 13 -6 44 -32 69 -58 25 -25 83 -77 129 -116 45 -38 110 -99
144 -134 145 -153 236 -253 236 -261 0 -4 18 -29 40 -56 25 -31 48 -74 64
-124 15 -47 47 -110 80 -161 31 -46 56 -89 56 -96 0 -6 20 -53 45 -104 32 -65
45 -105 45 -135 0 -23 7 -59 16 -80 l16 -38 -26 -51 c-14 -27 -28 -71 -31 -97
-7 -57 -92 -232 -131 -271 -35 -35 -103 -67 -142 -67 -16 0 -47 -12 -68 -28
-92 -64 -183 -92 -305 -92 -63 0 -109 -5 -132 -15 -47 -19 -157 -19 -204 0
-28 12 -85 15 -282 15 -185 0 -257 3 -291 14 -105 33 -143 39 -285 45 -90 4
-159 11 -172 19 -12 6 -39 12 -60 12 -22 0 -77 13 -123 30 -68 24 -102 30
-168 30 -50 0 -97 6 -119 15 -19 8 -45 15 -56 15 -12 0 -62 13 -112 29 -120
39 -168 51 -240 61 -33 5 -91 20 -130 34 -38 14 -81 26 -95 26 -14 0 -45 14
-70 30 -25 17 -58 30 -76 30 -21 0 -39 9 -59 30 l-29 30 -45 0 c-31 1 -59 9
-86 25 -79 49 -155 18 -155 -63 0 -31 10 -53 45 -101 l45 -61 48 0 c70 0 243
-92 219 -117 -4 -4 -22 -1 -40 5 -19 7 -60 12 -92 12 l-58 0 -83 40 c-122 59
-257 98 -374 109 -41 4 -85 13 -97 19 -12 7 -53 12 -90 12 -71 0 -140 19 -241
66 l-53 24 -100 0 c-66 0 -112 5 -136 15 -25 11 -73 15 -167 15 l-132 0 -29
30 c-16 17 -35 30 -43 30 -25 0 -86 32 -132 70 -25 20 -65 48 -90 63 -25 14
-79 61 -120 103 -41 41 -103 97 -138 122 -36 27 -76 67 -92 94 -21 33 -44 55
-78 72 -27 14 -73 47 -103 74 -30 27 -76 61 -104 75 -27 14 -90 59 -138 101
-49 42 -93 76 -99 76 -6 0 -70 60 -142 134 -132 135 -190 182 -283 230 -28 14
-85 57 -127 96 -42 38 -84 70 -94 70 -11 0 -27 9 -38 21 -10 11 -49 43 -86 71
-39 28 -68 57 -68 67 0 23 -27 47 -64 55 -42 10 -84 43 -88 68 -3 25 -59 67
-100 75 -14 3 -39 18 -54 34 l-28 29 -63 0 -63 0 0 -23 c0 -13 9 -32 20 -42
11 -10 24 -34 30 -54 12 -46 87 -120 157 -156 29 -15 66 -44 82 -64 16 -20 50
-47 75 -60 25 -12 54 -34 64 -48 41 -60 77 -95 123 -119 27 -15 61 -42 75 -61
14 -18 52 -47 85 -63 32 -17 89 -58 126 -93 38 -34 87 -75 111 -91 23 -16 58
-51 78 -77 21 -29 56 -59 87 -76 31 -17 63 -45 82 -73 23 -33 43 -49 73 -59
27 -8 52 -26 69 -47 14 -19 56 -50 92 -69 40 -21 82 -53 104 -80 21 -24 61
-60 90 -79 62 -41 162 -143 200 -203 15 -23 37 -47 49 -54 32 -16 98 -80 98
-95 0 -15 -39 -41 -74 -50 -17 -4 -35 0 -51 10 -33 21 -50 20 -137 -9 -40 -14
-83 -25 -96 -25 -43 0 -100 -39 -141 -97 l-41 -56 0 -64 c0 -41 6 -76 17 -96
9 -18 26 -59 38 -92 l21 -59 59 -41 c33 -22 79 -60 102 -84 23 -24 64 -56 90
-71 30 -17 60 -46 83 -81 l35 -54 36 -3 c24 -2 46 -13 65 -33 15 -16 34 -29
41 -29 8 0 44 -18 81 -40 37 -23 78 -43 92 -47 50 -11 191 -84 229 -118 21
-19 49 -35 62 -35 13 0 44 -6 69 -14 82 -26 135 -38 185 -43 28 -3 54 -9 59
-14 13 -12 133 -11 141 1 3 6 34 10 68 10 l61 0 68 46 c37 25 72 54 78 64 17
33 12 155 -11 222 -26 81 -79 179 -101 190 -10 4 -26 12 -35 17 -11 5 -20 24
-24 49 -6 45 -80 152 -105 152 -8 0 -41 26 -73 57 -32 32 -72 69 -90 83 -17
14 -32 36 -33 50 l-3 25 129 3 128 3 48 -31 c32 -20 59 -30 86 -30 22 0 78
-13 124 -30 47 -16 102 -30 123 -30 21 0 54 -7 74 -15 19 -8 52 -15 72 -15 20
0 56 -6 81 -14 65 -21 130 -37 170 -43 19 -3 47 -17 62 -30 32 -31 119 -62
171 -63 21 0 54 -7 74 -15 20 -8 66 -15 104 -15 40 0 86 -7 109 -16 l41 -16
43 12 c24 7 53 9 64 6 32 -10 98 29 127 74 14 21 33 44 44 50 29 15 146 12
188 -5 19 -8 60 -15 90 -15 29 0 70 -7 90 -15 19 -8 59 -15 87 -15 30 0 82
-11 126 -27 41 -14 107 -30 145 -34 90 -9 255 -35 276 -43 8 -4 28 -2 44 4 22
8 39 7 74 -4 119 -37 141 -40 436 -45 212 -4 306 -10 322 -18 27 -16 167 -17
194 -2 11 6 41 14 67 19 57 11 122 27 182 46 25 8 62 14 82 14 20 0 66 14 101
30 36 17 80 30 99 30 18 0 59 8 92 17 l58 18 32 41 c17 23 48 53 69 68 20 15
47 46 58 68 11 22 34 59 50 81 16 22 29 47 29 56 0 9 12 41 26 71 46 99 64
166 64 239 0 38 5 73 10 76 13 8 13 95 1 95 -18 0 -41 32 -41 56 0 31 -54 141
-88 176 -14 15 -31 42 -38 60 -6 18 -21 56 -32 83 -11 28 -26 65 -33 84 -7 19
-30 54 -51 78 -21 25 -45 59 -54 76 -9 18 -38 53 -65 79 -33 32 -50 57 -55 84
-5 29 -27 57 -103 133 -53 53 -113 107 -133 121 -20 14 -48 43 -62 65 -38 59
-195 209 -246 235 -25 12 -65 39 -90 59 -25 20 -65 49 -90 64 -25 14 -70 51
-100 82 -30 30 -61 55 -68 55 -19 0 -144 62 -209 104 -56 35 -167 76 -210 76
-18 0 -39 13 -67 45 -31 33 -49 45 -70 45 -15 0 -57 14 -93 30 -35 17 -74 30
-86 30 -12 0 -42 6 -67 14 -79 25 -134 38 -194 45 -43 5 -63 13 -76 29 -27 32
-66 29 -85 -8z m-3214 -2457 l41 -16 47 16 c90 33 165 19 255 -45 21 -15 47
-28 56 -28 21 0 35 -16 43 -51 8 -32 80 -99 106 -99 21 0 37 -17 43 -45 2 -11
26 -35 54 -55 120 -82 311 -259 357 -330 30 -47 67 -171 56 -192 l-10 -18
-127 0 c-82 0 -143 5 -172 14 -59 19 -124 35 -180 46 -48 9 -77 22 -126 57
-40 29 -221 118 -256 127 -14 3 -50 28 -80 55 -29 26 -73 58 -98 71 -66 33
-104 65 -136 113 -16 23 -51 67 -78 97 -27 30 -57 73 -67 95 -23 49 -24 113
-3 143 23 33 80 54 128 47 23 -4 52 -2 66 4 34 13 34 13 81 -6z"/>
</g>
</svg>
