<?xml version="1.0" standalone="no"?>
<!DOCTYPE svg PUBLIC "-//W3C//DTD SVG 20010904//EN"
 "http://www.w3.org/TR/2001/REC-SVG-20010904/DTD/svg10.dtd">
<svg version="1.0" xmlns="http://www.w3.org/2000/svg"
 width="792.000000pt" height="309.000000pt" viewBox="0 0 792.000000 309.000000"
 preserveAspectRatio="xMidYMid meet">
<metadata>
Created by potrace 1.16, written by Peter Selinger 2001-2019
</metadata>
<g transform="translate(0.000000,309.000000) scale(0.100000,-0.100000)"
fill="#000000" stroke="none">
<path d="M5177 3062 c-15 -15 -27 -37 -27 -48 0 -28 31 -54 64 -54 14 0 43 -7
63 -15 23 -10 69 -15 137 -15 l101 0 63 -30 c35 -17 76 -30 90 -30 15 0 47
-14 72 -30 25 -16 56 -30 70 -30 14 0 45 -7 70 -15 25 -8 61 -17 82 -20 20 -3
62 -23 95 -45 32 -22 64 -40 72 -40 8 0 35 -13 60 -29 25 -16 61 -32 79 -36
21 -4 52 -26 85 -59 36 -37 63 -55 88 -60 21 -3 57 -25 88 -51 29 -25 56 -45
60 -45 11 0 169 -106 201 -134 14 -12 45 -35 69 -52 25 -16 81 -66 126 -111
53 -55 89 -83 103 -83 17 0 30 -13 50 -47 15 -26 48 -68 74 -94 26 -26 56 -65
67 -87 11 -22 40 -53 63 -69 30 -20 47 -40 56 -67 7 -21 26 -54 42 -72 56 -64
101 -146 135 -247 19 -56 35 -112 35 -124 0 -12 14 -51 30 -86 17 -38 30 -82
30 -105 0 -22 7 -56 15 -75 9 -22 15 -68 15 -118 l0 -81 -30 -65 c-16 -35 -30
-70 -30 -77 0 -15 -163 -168 -218 -206 -21 -14 -60 -44 -89 -66 -41 -33 -82
-52 -195 -89 l-143 -47 -46 6 c-31 4 -58 1 -82 -9 -20 -8 -54 -15 -75 -15 -22
0 -56 -7 -75 -15 -20 -8 -54 -15 -75 -15 -22 0 -56 -7 -77 -15 -28 -12 -44
-14 -68 -6 -18 6 -54 10 -82 9 -27 0 -84 5 -125 11 -41 7 -84 12 -95 12 -216
-12 -269 -12 -313 2 -99 32 -140 40 -218 44 l-82 4 -28 30 -28 29 -88 0 c-56
0 -102 6 -125 15 -19 8 -52 15 -72 15 -20 0 -56 7 -81 15 -25 8 -61 17 -82 20
-20 3 -62 23 -95 45 l-58 40 -46 0 c-34 0 -70 12 -138 45 -51 25 -98 45 -104
45 -7 0 -41 14 -75 30 -35 17 -76 30 -90 30 -15 0 -71 21 -124 47 l-97 46 -66
-22 c-37 -12 -83 -33 -103 -46 -28 -19 -49 -25 -92 -25 -58 0 -94 15 -189 75
-30 19 -77 41 -105 49 -68 20 -146 70 -146 94 0 27 -32 52 -65 52 -15 0 -49
13 -74 29 -25 16 -104 57 -176 92 -71 34 -135 65 -141 68 -7 3 -49 35 -94 71
-165 131 -189 149 -229 169 -22 12 -46 21 -53 21 -24 0 -133 57 -213 112 -44
30 -100 66 -125 80 -25 14 -54 36 -65 48 -11 12 -38 31 -60 42 -22 11 -59 36
-83 56 -94 75 -189 132 -242 145 -14 4 -43 22 -65 40 -43 36 -115 77 -138 77
-7 0 -24 11 -37 25 -13 14 -42 36 -64 49 -23 13 -51 38 -64 55 -49 67 -185
104 -240 65 -26 -18 -62 -84 -62 -114 0 -34 26 -75 67 -105 21 -16 44 -37 51
-47 7 -10 44 -54 81 -97 37 -43 90 -112 117 -152 26 -41 65 -96 86 -122 23
-29 38 -60 38 -76 0 -18 12 -39 36 -62 40 -38 99 -123 126 -183 l19 -40 -15
-14 -15 -15 -63 51 c-80 65 -90 82 -97 162 l-6 65 -27 13 c-15 7 -40 29 -55
48 -14 19 -44 44 -66 55 -22 12 -58 34 -80 50 -22 16 -47 29 -56 29 -9 0 -41
12 -71 26 -68 31 -163 64 -188 64 -46 0 -138 42 -172 79 -28 30 -52 43 -120
65 -47 14 -108 42 -135 61 -26 19 -56 35 -64 35 -9 0 -45 14 -79 30 -35 17
-69 30 -76 30 -7 0 -64 25 -125 55 -118 58 -304 125 -346 125 l-25 0 0 -40 0
-40 59 -59 c40 -39 90 -74 153 -106 51 -27 111 -61 132 -77 23 -17 52 -28 71
-28 34 0 196 -75 248 -114 18 -14 77 -39 131 -57 73 -23 111 -42 151 -74 71
-59 126 -85 175 -85 54 0 104 -22 162 -71 27 -23 70 -47 100 -55 53 -16 108
-61 108 -88 0 -8 14 -44 30 -79 17 -36 30 -71 30 -79 0 -24 30 -58 70 -78 22
-11 56 -34 76 -52 50 -44 124 -67 214 -68 l75 0 78 73 77 72 0 53 0 53 -63
127 c-35 70 -87 162 -115 204 -61 90 -65 108 -22 108 39 0 187 -88 218 -129
12 -17 45 -43 73 -57 28 -14 69 -39 92 -55 22 -16 47 -29 56 -29 9 0 30 -9 46
-21 17 -11 87 -49 158 -85 70 -35 144 -79 165 -97 20 -18 57 -39 82 -46 31 -9
59 -28 90 -61 30 -32 75 -63 137 -94 51 -25 98 -46 104 -46 6 0 32 -19 57 -41
61 -54 134 -95 202 -115 42 -12 66 -27 100 -64 28 -30 57 -50 77 -55 18 -3 58
-24 90 -46 32 -21 64 -39 71 -39 7 0 43 -18 80 -40 37 -23 78 -44 92 -47 35
-9 181 -97 210 -128 15 -16 34 -25 55 -25 21 0 40 -9 56 -26 13 -14 58 -44 99
-66 41 -21 100 -55 130 -74 30 -19 64 -34 77 -34 35 0 123 67 123 94 0 27 -77
103 -141 140 -43 25 -69 59 -69 91 0 23 16 18 34 -10 l16 -25 78 0 77 0 63
-30 c39 -18 80 -30 105 -30 30 0 55 -9 87 -30 25 -16 58 -30 73 -30 15 0 44
-7 64 -15 19 -8 52 -15 72 -15 20 0 75 -13 121 -30 61 -21 104 -30 150 -30 36
0 85 -6 110 -14 101 -32 140 -39 255 -45 66 -4 130 -12 142 -19 15 -8 81 -12
217 -12 119 0 197 -4 201 -10 4 -6 53 -10 115 -10 62 0 111 4 115 10 3 6 26
10 51 10 25 0 55 5 67 12 21 11 147 25 282 32 74 4 128 13 178 32 20 8 56 14
79 14 l42 0 83 56 c46 30 114 65 152 77 l69 23 76 68 c42 37 93 93 113 123 20
30 52 72 71 92 56 59 72 100 72 185 0 41 5 78 10 81 6 4 10 73 10 175 0 102
-4 171 -10 175 -5 3 -10 41 -10 83 l0 77 -61 89 c-33 50 -70 108 -81 130 -24
47 -71 116 -120 178 -37 46 -68 106 -68 132 0 8 -16 27 -35 42 -22 17 -35 35
-35 49 0 35 -46 82 -109 115 -64 32 -79 46 -90 87 -4 16 -21 37 -39 48 -186
116 -276 181 -298 216 -19 31 -45 49 -124 89 -55 28 -117 65 -138 84 -20 18
-53 41 -72 51 -19 10 -50 29 -68 43 -18 14 -55 29 -83 33 -56 9 -109 42 -109
68 0 25 -32 51 -61 51 -35 0 -155 43 -238 84 -43 22 -85 36 -108 36 -20 0 -96
20 -167 44 -72 24 -155 46 -184 48 -33 3 -65 13 -82 27 l-29 21 -149 0 -148 0
-27 -28z"/>
</g>
</svg>
