<?xml version="1.0" standalone="no"?>
<!DOCTYPE svg PUBLIC "-//W3C//DTD SVG 20010904//EN"
 "http://www.w3.org/TR/2001/REC-SVG-20010904/DTD/svg10.dtd">
<svg version="1.0" xmlns="http://www.w3.org/2000/svg"
 width="1968.000000pt" height="1680.000000pt" viewBox="0 0 1968.000000 1680.000000"
 preserveAspectRatio="xMidYMid meet">
<metadata>
Created by potrace 1.16, written by Peter Selinger 2001-2019
</metadata>
<g transform="translate(0.000000,1680.000000) scale(0.100000,-0.100000)"
fill="#000000" stroke="none">
<path d="M2617 16192 l-17 -19 0 -170 0 -170 18 -16 19 -17 151 0 151 0 11
-19 c5 -11 10 -44 10 -74 0 -72 17 -87 98 -87 l61 0 11 -19 c5 -11 10 -44 10
-74 0 -40 5 -58 18 -70 l19 -17 166 0 166 0 11 -19 c5 -11 10 -44 10 -74 0
-72 17 -87 98 -87 l61 0 11 -19 c5 -11 10 -51 10 -89 0 -54 4 -72 18 -85 l19
-17 166 0 166 0 11 -19 c5 -11 10 -44 10 -74 0 -72 17 -87 98 -87 l61 0 11
-19 c5 -11 10 -44 10 -74 0 -72 17 -87 98 -87 l61 0 11 -19 c5 -11 10 -51 10
-89 0 -54 4 -72 18 -85 l19 -17 166 0 166 0 11 -19 c5 -11 10 -44 10 -74 0
-72 17 -87 98 -87 l61 0 11 -19 c5 -11 10 -44 10 -74 0 -72 17 -87 98 -87 l61
0 11 -19 c5 -11 10 -44 10 -74 0 -40 5 -58 18 -70 l19 -17 166 0 166 0 11 -19
c5 -11 10 -51 10 -89 0 -89 13 -102 98 -102 l61 0 11 -19 c5 -11 10 -44 10
-74 0 -75 15 -87 113 -87 l76 0 11 -19 c5 -11 10 -44 10 -74 0 -72 17 -87 98
-87 l61 0 11 -19 c5 -11 10 -44 10 -74 0 -40 5 -58 18 -70 l19 -17 151 0 151
0 11 -19 c5 -11 10 -51 10 -89 0 -92 11 -102 113 -102 l76 0 11 -19 c5 -11 10
-44 10 -74 0 -72 17 -87 98 -87 l61 0 11 -19 c5 -11 10 -44 10 -74 0 -72 17
-87 98 -87 l61 0 11 -19 c5 -11 10 -51 10 -89 0 -54 4 -72 18 -85 l19 -17 166
0 166 0 11 -19 c5 -11 10 -44 10 -74 0 -72 17 -87 98 -87 l61 0 11 -19 c5 -11
10 -44 10 -74 0 -72 17 -87 98 -87 l61 0 11 -19 c5 -11 10 -44 10 -74 0 -75
15 -87 113 -87 l76 0 11 -19 c5 -11 10 -51 10 -89 0 -89 13 -102 98 -102 l61
0 11 -19 c5 -11 10 -44 10 -74 0 -72 17 -87 98 -87 l61 0 11 -19 c5 -11 10
-44 10 -74 0 -72 17 -87 98 -87 l61 0 11 -19 c5 -11 10 -44 10 -74 0 -75 15
-87 113 -87 l76 0 11 -19 c5 -11 10 -51 10 -89 0 -89 13 -102 98 -102 l61 0
11 -19 c5 -11 10 -44 10 -74 0 -72 17 -87 98 -87 l61 0 11 -19 c5 -11 10 -44
10 -74 0 -72 17 -87 98 -87 l61 0 11 -19 c5 -11 10 -51 10 -89 0 -92 11 -102
113 -102 l76 0 11 -19 c5 -11 10 -44 10 -74 0 -72 17 -87 98 -87 l61 0 11 -19
c5 -11 10 -44 10 -74 0 -72 17 -87 98 -87 l61 0 11 -19 c5 -11 10 -44 10 -74
0 -75 15 -87 113 -87 l76 0 11 -19 c6 -11 10 -88 10 -179 l0 -159 18 -16 c13
-12 37 -17 80 -17 l61 0 11 -19 c5 -11 10 -44 10 -74 0 -72 17 -87 98 -87 l61
0 11 -19 c5 -11 10 -44 10 -74 0 -72 17 -87 98 -87 l61 0 11 -19 c5 -11 10
-51 10 -89 0 -92 11 -102 113 -102 l76 0 11 -19 c5 -11 10 -84 10 -164 l0
-144 18 -16 c13 -12 37 -17 80 -17 l61 0 11 -19 c13 -26 13 -306 0 -332 l-11
-19 -59 0 -59 0 -11 19 c-5 11 -10 44 -10 74 0 40 -5 58 -18 70 l-19 17 -256
0 -256 0 -11 19 c-5 11 -10 51 -10 89 0 54 -4 72 -18 85 l-19 17 -166 0 -166
0 -11 19 c-5 11 -10 44 -10 74 0 40 -5 58 -18 70 l-19 17 -256 0 -256 0 -11
19 c-5 11 -10 44 -10 74 0 40 -5 58 -18 70 l-19 17 -151 0 -151 0 -11 19 c-5
11 -10 51 -10 89 0 54 -4 72 -18 85 l-19 17 -256 0 -256 0 -11 19 c-5 11 -10
44 -10 74 0 40 -5 58 -18 70 l-19 17 -151 0 -151 0 -11 19 c-5 11 -10 44 -10
74 0 40 -5 58 -18 70 l-19 17 -166 0 -166 0 -11 19 c-5 11 -10 44 -10 74 0 40
-5 58 -18 70 l-19 17 -256 0 -256 0 -11 19 c-5 11 -10 51 -10 89 0 54 -4 72
-18 85 l-19 17 -151 0 -151 0 -11 19 c-5 11 -10 44 -10 74 0 40 -5 58 -18 70
l-19 17 -256 0 -256 0 -11 19 c-5 11 -10 44 -10 74 0 40 -5 58 -18 70 l-19 17
-256 0 -256 0 -11 19 c-5 11 -10 44 -10 74 0 40 -5 58 -18 70 l-19 17 -256 0
-256 0 -11 19 c-5 11 -10 51 -10 89 0 54 -4 72 -18 85 l-19 17 -256 0 -256 0
-11 19 c-5 11 -10 44 -10 74 0 40 -5 58 -18 70 l-19 17 -256 0 -256 0 -11 19
c-5 11 -10 44 -10 74 0 40 -5 58 -18 70 l-19 17 -241 0 -241 0 -11 19 c-5 11
-10 51 -10 89 0 54 -4 72 -18 85 l-19 17 -256 0 -256 0 -11 19 c-5 11 -10 44
-10 74 0 40 -5 58 -18 70 l-19 17 -346 0 -346 0 -11 19 c-5 11 -10 44 -10 74
0 40 -5 58 -18 70 l-19 17 -725 0 -725 0 -16 -18 -17 -19 0 -260 0 -260 18
-16 c13 -12 37 -17 80 -17 l61 0 11 -19 c5 -11 10 -84 10 -164 l0 -144 18 -16
c13 -12 37 -17 80 -17 l61 0 11 -19 c5 -11 10 -51 10 -89 0 -89 13 -102 98
-102 l61 0 11 -19 c5 -11 10 -44 10 -74 0 -75 15 -87 113 -87 l76 0 11 -19 c5
-11 10 -44 10 -74 0 -72 17 -87 98 -87 l61 0 11 -19 c5 -11 10 -44 10 -74 0
-40 5 -58 18 -70 l19 -17 151 0 151 0 11 -19 c5 -11 10 -51 10 -89 0 -92 11
-102 113 -102 l76 0 11 -19 c5 -11 10 -44 10 -74 0 -40 5 -58 18 -70 l19 -17
151 0 151 0 11 -19 c5 -11 10 -44 10 -74 0 -40 5 -58 18 -70 l19 -17 166 0
166 0 11 -19 c5 -11 10 -44 10 -74 0 -40 5 -58 18 -70 l19 -17 151 0 151 0 11
-19 c5 -11 10 -51 10 -89 0 -54 4 -72 18 -85 l19 -17 166 0 166 0 11 -19 c5
-11 10 -44 10 -74 0 -40 5 -58 18 -70 l19 -17 260 0 260 0 16 18 c12 13 17 37
17 84 0 88 -12 98 -113 98 l-76 0 -11 19 c-5 11 -10 51 -10 89 0 89 -13 102
-98 102 l-61 0 -11 19 c-5 11 -10 44 -10 74 0 40 -5 58 -18 70 l-19 17 -151 0
-151 0 -11 19 c-5 11 -10 44 -10 74 0 40 -5 58 -18 70 l-19 17 -166 0 -166 0
-11 19 c-5 11 -10 44 -10 74 0 72 -17 87 -98 87 l-61 0 -11 19 c-5 11 -10 51
-10 89 0 54 -4 72 -18 85 l-19 17 -166 0 -166 0 -11 19 c-5 11 -10 44 -10 74
0 72 -17 87 -98 87 l-61 0 -11 19 c-5 11 -10 44 -10 74 0 72 -17 87 -98 87
l-61 0 -11 19 c-5 11 -10 44 -10 74 0 75 -15 87 -113 87 l-76 0 -11 19 c-5 11
-10 51 -10 89 0 89 -13 102 -98 102 l-61 0 -11 19 c-5 11 -10 44 -10 74 0 72
-17 87 -98 87 l-61 0 -11 19 c-5 11 -10 38 -10 61 0 23 5 50 10 61 l11 19 434
0 434 0 11 -19 c5 -11 10 -44 10 -74 0 -40 5 -58 18 -70 l19 -17 346 0 346 0
11 -19 c5 -11 10 -44 10 -74 0 -40 5 -58 18 -70 l19 -17 166 0 166 0 11 -19
c5 -11 10 -51 10 -89 0 -54 4 -72 18 -85 l19 -17 346 0 346 0 11 -19 c5 -11
10 -44 10 -74 0 -40 5 -58 18 -70 l19 -17 166 0 166 0 11 -19 c5 -11 10 -44
10 -74 0 -40 5 -58 18 -70 l19 -17 241 0 241 0 11 -19 c5 -11 10 -44 10 -74 0
-40 5 -58 18 -70 l19 -17 256 0 256 0 11 -19 c5 -11 10 -51 10 -89 0 -54 4
-72 18 -85 l19 -17 256 0 256 0 11 -19 c5 -11 10 -44 10 -74 0 -40 5 -58 18
-70 l19 -17 166 0 166 0 11 -19 c5 -11 10 -44 10 -74 0 -40 5 -58 18 -70 l19
-17 241 0 241 0 11 -19 c5 -11 10 -44 10 -74 0 -40 5 -58 18 -70 l19 -17 166
0 166 0 11 -19 c5 -11 10 -51 10 -89 0 -54 4 -72 18 -85 l19 -17 166 0 166 0
11 -19 c5 -11 10 -44 10 -74 0 -40 5 -58 18 -70 l19 -17 241 0 241 0 11 -19
c5 -11 10 -44 10 -74 0 -40 5 -58 18 -70 l19 -17 256 0 256 0 11 -19 c5 -11
10 -51 10 -89 0 -54 4 -72 18 -85 l19 -17 166 0 166 0 11 -19 c5 -11 10 -44
10 -74 0 -40 5 -58 18 -70 l19 -17 151 0 151 0 11 -19 c5 -11 10 -44 10 -74 0
-75 15 -87 113 -87 l76 0 11 -19 c5 -11 10 -44 10 -74 0 -40 5 -58 18 -70 l19
-17 346 0 346 0 11 -19 c5 -11 10 -51 10 -89 0 -54 4 -72 18 -85 l19 -17 151
0 151 0 11 -19 c5 -11 10 -44 10 -74 0 -40 5 -58 18 -70 l19 -17 166 0 166 0
11 -19 c5 -11 10 -44 10 -74 0 -72 17 -87 98 -87 l61 0 11 -19 c6 -11 10 -88
10 -179 l0 -159 18 -16 c13 -12 37 -17 80 -17 l61 0 11 -19 c5 -11 10 -84 10
-164 l0 -144 18 -16 c14 -13 38 -17 95 -17 l76 0 11 -19 c6 -12 10 -116 10
-269 l0 -249 18 -16 c13 -12 37 -17 80 -17 l61 0 11 -19 c6 -12 10 -116 10
-269 l0 -249 18 -16 c13 -12 37 -17 80 -17 l61 0 11 -19 c14 -27 14 -1595 0
-1622 l-11 -19 -63 0 c-48 0 -67 -4 -79 -18 l-17 -19 0 -247 c0 -151 -4 -255
-10 -267 l-11 -19 -63 0 c-48 0 -67 -4 -79 -18 l-17 -19 0 -157 c0 -89 -4
-166 -10 -177 l-11 -19 -78 0 -78 0 -16 -18 -17 -19 0 -142 c0 -79 -5 -151
-10 -162 l-11 -19 -63 0 c-84 0 -96 -13 -96 -104 0 -37 -5 -76 -10 -87 l-11
-19 -63 0 c-80 0 -96 -15 -96 -89 0 -29 -5 -61 -10 -72 l-11 -19 -78 0 -78 0
-16 -18 c-11 -12 -17 -36 -17 -71 0 -29 -5 -61 -10 -72 l-11 -19 -63 0 c-80 0
-96 -15 -96 -89 0 -29 -5 -61 -10 -72 l-11 -19 -153 0 -153 0 -16 -18 c-12
-13 -17 -37 -17 -86 0 -37 -5 -76 -10 -87 l-11 -19 -168 0 -168 0 -16 -18
c-11 -12 -17 -36 -17 -71 0 -29 -5 -61 -10 -72 l-11 -19 -153 0 -153 0 -16
-18 -17 -19 0 -170 0 -170 18 -16 19 -17 245 0 245 0 16 18 c12 13 17 37 17
86 0 37 5 76 10 87 l11 19 168 0 168 0 16 18 c11 12 17 36 17 71 0 29 5 61 10
72 l11 19 153 0 153 0 16 18 c11 12 17 36 17 71 0 29 5 61 10 72 l11 19 78 0
78 0 16 18 c12 13 17 37 17 86 0 37 5 76 10 87 l11 19 63 0 c80 0 96 15 96 89
0 29 5 61 10 72 l11 19 63 0 c80 0 96 15 96 89 0 29 5 61 10 72 l11 19 78 0
78 0 16 18 c11 12 17 36 17 71 0 29 5 61 10 72 l11 19 63 0 c84 0 96 13 96
104 0 37 5 76 10 87 l11 19 63 0 c48 0 67 4 79 18 l17 19 0 142 c0 79 5 151
10 162 l11 19 63 0 c48 0 67 4 79 18 l17 19 0 157 c0 89 4 166 10 177 l11 19
78 0 78 0 16 18 17 19 0 142 c0 79 5 151 10 162 l11 19 63 0 c48 0 67 4 79 18
l17 19 0 1010 0 1010 -18 16 c-13 12 -37 17 -80 17 l-61 0 -11 19 c-6 13 -10
144 -10 359 l0 339 -18 16 c-14 13 -38 17 -95 17 l-76 0 -11 19 c-13 26 -13
306 0 332 l11 19 254 0 254 0 11 -19 c5 -11 10 -44 10 -74 0 -40 5 -58 18 -70
l19 -17 166 0 166 0 11 -19 c5 -11 10 -51 10 -89 0 -54 4 -72 18 -85 l19 -17
151 0 151 0 11 -19 c5 -11 10 -44 10 -74 0 -40 5 -58 18 -70 l19 -17 256 0
256 0 11 -19 c5 -11 10 -44 10 -74 0 -72 17 -87 98 -87 l61 0 11 -19 c5 -11
10 -44 10 -74 0 -40 5 -58 18 -70 l19 -17 166 0 166 0 11 -19 c6 -13 10 -205
10 -554 l0 -534 18 -16 c13 -12 37 -17 80 -17 l61 0 11 -19 c5 -11 10 -44 10
-74 0 -72 17 -87 98 -87 l61 0 11 -19 c5 -11 10 -51 10 -89 0 -92 11 -102 113
-102 l76 0 11 -19 c5 -11 10 -44 10 -74 0 -40 5 -58 18 -70 l19 -17 151 0 151
0 11 -19 c5 -11 10 -44 10 -74 0 -75 15 -87 113 -87 l76 0 11 -19 c5 -11 10
-44 10 -74 0 -72 17 -87 98 -87 l61 0 11 -19 c5 -11 10 -51 10 -89 0 -54 4
-72 18 -85 l19 -17 256 0 256 0 11 -19 c5 -11 10 -44 10 -74 0 -72 17 -87 98
-87 l61 0 11 -19 c5 -11 10 -44 10 -74 0 -40 5 -58 18 -70 l19 -17 346 0 346
0 11 -19 c5 -11 10 -51 10 -89 0 -54 4 -72 18 -85 l19 -17 260 0 260 0 16 18
c12 13 17 37 17 86 0 37 5 76 10 87 l11 19 153 0 153 0 16 18 17 19 0 350 0
350 -18 16 c-13 12 -37 17 -80 17 l-61 0 -11 19 c-5 11 -10 44 -10 74 0 72
-17 87 -98 87 l-61 0 -11 19 c-5 11 -10 44 -10 74 0 72 -17 87 -98 87 l-61 0
-11 19 c-5 11 -10 51 -10 89 0 92 -11 102 -113 102 l-76 0 -11 19 c-5 11 -10
44 -10 74 0 40 -5 58 -18 70 l-19 17 -151 0 -151 0 -11 19 c-5 11 -10 44 -10
74 0 75 -15 87 -113 87 l-76 0 -11 19 c-5 11 -10 44 -10 74 0 72 -17 87 -98
87 l-61 0 -11 19 c-5 11 -10 51 -10 89 0 54 -4 72 -18 85 l-19 17 -151 0 -151
0 -11 19 c-5 11 -10 44 -10 74 0 40 -5 58 -18 70 l-19 17 -166 0 -166 0 -11
19 c-5 11 -10 44 -10 74 0 40 -5 58 -18 70 l-19 17 -151 0 -151 0 -11 19 c-5
11 -10 51 -10 89 0 54 -4 72 -18 85 l-19 17 -166 0 -166 0 -11 19 c-5 11 -10
44 -10 74 0 40 -5 58 -18 70 l-19 17 -166 0 -166 0 -11 19 c-5 11 -10 44 -10
74 0 40 -5 58 -18 70 l-19 17 -151 0 -151 0 -11 19 c-5 11 -10 44 -10 74 0 40
-5 58 -18 70 l-19 17 -166 0 -166 0 -11 19 c-5 11 -10 51 -10 89 0 54 -4 72
-18 85 l-19 17 -151 0 -151 0 -11 19 c-5 11 -10 44 -10 74 0 40 -5 58 -18 70
l-19 17 -166 0 -166 0 -11 19 c-5 11 -10 44 -10 74 0 40 -5 58 -18 70 l-19 17
-151 0 -151 0 -11 19 c-5 11 -10 44 -10 74 0 40 -5 58 -18 70 l-19 17 -166 0
-166 0 -11 19 c-5 11 -10 51 -10 89 0 54 -4 72 -18 85 l-19 17 -151 0 -151 0
-11 19 c-5 11 -10 44 -10 74 0 40 -5 58 -18 70 l-19 17 -166 0 -166 0 -11 19
c-5 11 -10 44 -10 74 0 40 -5 58 -18 70 l-19 17 -151 0 -151 0 -11 19 c-6 11
-10 88 -10 179 l0 159 -18 16 c-14 13 -38 17 -95 17 l-76 0 -11 19 c-5 11 -10
44 -10 74 0 72 -17 87 -98 87 l-61 0 -11 19 c-6 11 -10 88 -10 179 l0 159 -18
16 c-13 12 -37 17 -80 17 l-61 0 -11 19 c-5 11 -10 44 -10 74 0 75 -15 87
-113 87 l-76 0 -11 19 c-6 11 -10 88 -10 179 l0 159 -18 16 c-13 12 -37 17
-80 17 l-61 0 -11 19 c-5 11 -10 44 -10 74 0 72 -17 87 -98 87 l-61 0 -11 19
c-5 11 -10 44 -10 74 0 72 -17 87 -98 87 l-61 0 -11 19 c-5 11 -10 44 -10 74
0 75 -15 87 -113 87 l-76 0 -11 19 c-6 11 -10 88 -10 179 l0 159 -18 16 c-13
12 -37 17 -80 17 l-61 0 -11 19 c-5 11 -10 44 -10 74 0 72 -17 87 -98 87 l-61
0 -11 19 c-5 11 -10 44 -10 74 0 72 -17 87 -98 87 l-61 0 -11 19 c-5 11 -10
51 -10 89 0 92 -11 102 -113 102 l-76 0 -11 19 c-5 11 -10 44 -10 74 0 72 -17
87 -98 87 l-61 0 -11 19 c-5 11 -10 44 -10 74 0 72 -17 87 -98 87 l-61 0 -11
19 c-5 11 -10 51 -10 89 0 92 -11 102 -113 102 l-76 0 -11 19 c-5 11 -10 44
-10 74 0 72 -17 87 -98 87 l-61 0 -11 19 c-5 11 -10 44 -10 74 0 72 -17 87
-98 87 l-61 0 -11 19 c-5 11 -10 44 -10 74 0 72 -17 87 -98 87 l-61 0 -11 19
c-5 11 -10 51 -10 89 0 92 -11 102 -113 102 l-76 0 -11 19 c-5 11 -10 44 -10
74 0 72 -17 87 -98 87 l-61 0 -11 19 c-5 11 -10 44 -10 74 0 72 -17 87 -98 87
l-61 0 -11 19 c-5 11 -10 44 -10 74 0 40 -5 58 -18 70 l-19 17 -166 0 -166 0
-11 19 c-5 11 -10 51 -10 89 0 89 -13 102 -98 102 l-61 0 -11 19 c-5 11 -10
44 -10 74 0 72 -17 87 -98 87 l-61 0 -11 19 c-5 11 -10 44 -10 74 0 75 -15 87
-113 87 l-76 0 -11 19 c-5 11 -10 51 -10 89 0 89 -13 102 -98 102 l-61 0 -11
19 c-5 11 -10 44 -10 74 0 40 -5 58 -18 70 l-19 17 -151 0 -151 0 -11 19 c-5
11 -10 44 -10 74 0 75 -15 87 -113 87 l-76 0 -11 19 c-5 11 -10 44 -10 74 0
72 -17 87 -98 87 l-61 0 -11 19 c-5 11 -10 51 -10 89 0 89 -13 102 -98 102
l-61 0 -11 19 c-5 11 -10 44 -10 74 0 40 -5 58 -18 70 l-19 17 -166 0 -166 0
-11 19 c-5 11 -10 44 -10 74 0 72 -17 87 -98 87 l-61 0 -11 19 c-5 11 -10 44
-10 74 0 72 -17 87 -98 87 l-61 0 -11 19 c-5 11 -10 51 -10 89 0 92 -11 102
-113 102 l-76 0 -11 19 c-5 11 -10 44 -10 74 0 40 -5 58 -18 70 l-19 17 -151
0 -151 0 -11 19 c-5 11 -10 44 -10 74 0 72 -17 87 -96 87 -65 0 -84 11 -84 48
0 39 -18 61 -78 91 -57 29 -181 111 -301 198 l-63 46 -52 5 c-65 6 -76 15 -76
64 0 22 -4 47 -9 56 -5 9 -57 67 -115 127 l-106 110 -248 3 -247 3 -12 16 c-8
10 -13 47 -13 88 0 95 -10 105 -113 105 l-76 0 -11 19 c-5 11 -10 44 -10 74 0
40 -5 58 -18 70 l-19 17 -245 0 -245 0 -16 -18z m13713 -11121 c5 -11 10 -50
10 -87 0 -91 12 -104 96 -104 l63 0 11 -19 c5 -11 10 -43 10 -72 0 -35 6 -59
17 -71 l16 -18 153 0 153 0 11 -19 c5 -11 10 -43 10 -72 0 -35 6 -59 17 -71
l16 -18 168 0 168 0 11 -19 c5 -11 10 -43 10 -72 0 -74 16 -89 96 -89 l63 0
11 -19 c5 -11 10 -50 10 -87 0 -49 5 -73 17 -86 l16 -18 168 0 168 0 11 -19
c5 -11 10 -43 10 -72 0 -74 16 -89 96 -89 l63 0 11 -19 c5 -11 10 -43 10 -72
0 -74 16 -89 96 -89 l63 0 11 -19 c5 -11 10 -84 10 -166 0 -82 -5 -155 -10
-166 l-11 -19 -149 0 -149 0 -11 19 c-5 11 -10 50 -10 87 0 49 -5 73 -17 86
l-16 18 -168 0 -168 0 -11 19 c-5 11 -10 43 -10 72 0 35 -6 59 -17 71 l-16 18
-153 0 -153 0 -11 19 c-5 11 -10 43 -10 72 0 35 -6 59 -17 71 l-16 18 -168 0
-168 0 -11 19 c-5 11 -10 43 -10 72 0 74 -16 89 -96 89 l-63 0 -11 19 c-5 11
-10 50 -10 87 0 49 -5 73 -17 86 l-16 18 -168 0 -168 0 -11 19 c-5 11 -10 43
-10 72 0 74 -16 89 -96 89 l-63 0 -11 19 c-5 11 -10 83 -10 162 l0 142 -17 19
c-12 14 -31 18 -79 18 l-63 0 -11 19 c-5 11 -10 45 -10 76 0 31 5 65 10 76
l11 19 254 0 254 0 11 -19z"/>
</g>
</svg>
