<?xml version="1.0" standalone="no"?>
<!DOCTYPE svg PUBLIC "-//W3C//DTD SVG 20010904//EN"
 "http://www.w3.org/TR/2001/REC-SVG-20010904/DTD/svg10.dtd">
<svg version="1.0" xmlns="http://www.w3.org/2000/svg"
 width="249.000000pt" height="348.000000pt" viewBox="0 0 249.000000 348.000000"
 preserveAspectRatio="xMidYMid meet">
<metadata>
Created by potrace 1.16, written by Peter Selinger 2001-2019
</metadata>
<g transform="translate(0.000000,348.000000) scale(0.100000,-0.100000)"
fill="#000000" stroke="none">
<path d="M23 3466 l-23 -11 0 -50 0 -51 205 -68 c152 -51 214 -76 242 -100 64
-53 146 -104 180 -111 17 -3 51 -23 75 -44 24 -21 62 -48 85 -60 24 -11 53
-35 65 -52 12 -16 46 -48 76 -70 29 -22 85 -74 125 -115 40 -42 95 -91 122
-109 47 -31 121 -106 261 -260 156 -172 196 -220 216 -258 11 -23 36 -59 54
-79 18 -20 42 -55 53 -77 11 -22 40 -52 63 -68 29 -19 47 -41 55 -65 6 -20 35
-70 63 -112 29 -43 61 -108 75 -151 14 -42 36 -93 50 -113 14 -20 25 -44 25
-54 0 -10 13 -32 28 -50 47 -55 62 -81 62 -109 0 -15 11 -52 25 -83 14 -32 24
-71 23 -93 -1 -21 2 -50 6 -65 l8 -27 -26 -25 c-33 -34 -46 -33 -98 9 -24 19
-68 48 -99 64 -31 16 -80 52 -110 79 -109 99 -193 118 -236 53 -41 -61 -22
-122 50 -168 45 -28 111 -89 231 -214 24 -24 54 -52 69 -62 15 -10 31 -33 37
-55 5 -21 22 -49 36 -63 46 -41 84 -101 84 -129 0 -15 7 -44 15 -63 17 -42 19
-90 5 -118 -23 -41 -114 -10 -201 69 -30 27 -74 59 -99 72 -25 12 -65 39 -90
60 -25 20 -68 49 -96 63 -28 14 -75 48 -105 74 -74 66 -144 113 -183 124 -18
5 -50 24 -72 43 -21 18 -61 45 -89 60 -106 57 -200 122 -203 141 -9 45 -31 55
-117 55 -84 0 -105 -9 -105 -42 0 -51 87 -158 128 -158 10 0 34 -20 55 -44 57
-69 350 -256 400 -256 7 0 24 -12 38 -26 13 -14 56 -46 94 -72 39 -25 104 -78
145 -117 41 -39 94 -84 118 -100 24 -16 63 -46 86 -67 24 -20 76 -54 116 -74
39 -20 77 -45 83 -55 l12 -19 88 0 88 0 35 27 c24 18 52 58 86 127 l50 100 -7
35 c-4 20 -10 54 -14 76 -5 22 -20 65 -35 95 -14 30 -26 67 -26 81 0 15 -7 43
-15 62 -23 54 -18 81 20 129 19 24 46 64 60 90 13 26 29 49 35 53 13 8 13 102
0 110 -5 3 -10 18 -10 33 0 35 -44 155 -121 333 -16 36 -29 80 -29 97 0 20
-10 43 -28 64 -47 55 -62 81 -62 111 0 47 -45 123 -92 154 -29 19 -47 41 -55
65 -6 20 -51 94 -98 165 -48 70 -95 144 -105 164 -10 20 -35 48 -54 63 -21 16
-39 40 -45 61 -6 24 -37 64 -90 117 -45 45 -93 100 -108 123 -40 60 -64 85
-108 113 -22 14 -77 61 -122 104 -45 43 -86 78 -91 78 -18 0 -197 173 -224
216 -25 39 -88 84 -118 84 -6 0 -41 18 -78 41 -37 22 -79 43 -94 46 -14 3 -39
18 -54 34 -19 20 -38 29 -59 29 -20 0 -58 18 -113 55 -59 39 -114 65 -190 90
-59 19 -115 40 -124 45 -23 13 -157 11 -185 -4z"/>
</g>
</svg>
