<?xml version="1.0" standalone="no"?>
<!DOCTYPE svg PUBLIC "-//W3C//DTD SVG 20010904//EN"
 "http://www.w3.org/TR/2001/REC-SVG-20010904/DTD/svg10.dtd">
<svg version="1.0" xmlns="http://www.w3.org/2000/svg"
 width="480.000000pt" height="276.000000pt" viewBox="0 0 480.000000 276.000000"
 preserveAspectRatio="xMidYMid meet">
<metadata>
Created by potrace 1.16, written by Peter Selinger 2001-2019
</metadata>
<g transform="translate(0.000000,276.000000) scale(0.100000,-0.100000)"
fill="#000000" stroke="none">
<path d="M1686 2738 c-19 -73 15 -108 106 -108 32 0 75 -7 95 -15 19 -8 47
-15 60 -15 14 0 54 -13 90 -30 35 -16 76 -30 91 -30 15 0 69 -20 120 -45 52
-25 105 -45 119 -45 35 0 85 -26 118 -60 16 -17 35 -30 42 -30 8 0 44 -18 81
-40 36 -22 84 -45 105 -51 21 -5 51 -18 66 -27 16 -9 50 -30 76 -46 26 -16 83
-41 126 -56 l78 -26 53 -53 c29 -29 82 -67 118 -86 62 -31 221 -132 303 -192
21 -15 58 -42 82 -58 61 -43 125 -107 125 -125 0 -26 29 -59 69 -79 43 -22
333 -309 393 -388 22 -28 50 -59 63 -67 28 -18 94 -117 106 -158 4 -15 21 -47
38 -70 18 -25 50 -101 76 -181 25 -77 57 -155 70 -175 17 -25 25 -50 25 -79 0
-23 5 -54 11 -70 14 -38 -4 -93 -47 -134 l-32 -31 -54 12 c-82 18 -181 50
-198 63 -8 7 -30 31 -48 54 -27 34 -40 43 -65 43 -18 0 -93 30 -181 73 -83 41
-163 77 -178 80 -14 4 -50 29 -80 56 -29 26 -67 55 -83 64 -45 22 -151 57
-176 57 -12 0 -61 18 -108 41 -47 22 -140 58 -206 80 -66 22 -144 51 -173 64
-29 14 -57 25 -63 25 -6 0 -40 13 -76 30 l-64 30 -85 0 -85 0 -57 26 c-103 48
-143 56 -267 59 -71 2 -132 9 -150 16 -29 13 -338 30 -540 30 -19 0 -52 0 -72
0 -77 0 -229 -18 -258 -30 -19 -9 -76 -13 -159 -13 l-130 0 -62 -29 c-34 -16
-79 -29 -98 -29 -20 0 -96 -20 -169 -45 -73 -25 -145 -45 -159 -45 -14 0 -43
-13 -65 -29 -22 -16 -59 -39 -81 -50 -22 -11 -53 -38 -68 -59 -15 -21 -45 -51
-66 -66 -21 -15 -48 -46 -59 -68 -11 -22 -34 -59 -50 -81 -16 -22 -29 -48 -29
-58 0 -9 -11 -31 -25 -47 l-25 -30 0 -111 0 -110 30 -16 c40 -21 93 -19 113 3
13 14 17 38 17 97 l0 78 44 41 c24 23 60 73 80 111 46 92 50 96 132 149 48 32
79 46 103 46 l35 0 42 45 c28 30 50 45 66 45 14 0 42 7 61 15 20 8 48 15 62
15 14 0 49 12 78 26 59 29 135 46 222 49 92 4 166 15 211 32 32 11 75 13 205
9 90 -3 188 -8 218 -12 32 -3 70 -1 92 5 l38 12 37 -16 c26 -11 73 -15 169
-15 l132 0 37 -25 c28 -19 48 -24 89 -23 90 2 143 -12 173 -43 l28 -29 88 0
c56 0 102 -6 125 -15 19 -8 54 -15 76 -15 26 0 70 -14 126 -41 47 -22 122 -52
165 -66 43 -14 114 -43 158 -64 43 -22 83 -39 89 -39 6 0 40 -13 76 -30 35
-16 69 -30 75 -30 5 0 39 -13 75 -30 35 -16 70 -30 77 -30 7 0 27 -18 44 -40
20 -24 46 -43 67 -49 36 -10 116 -63 149 -100 11 -12 26 -21 34 -21 21 0 199
-86 236 -115 44 -33 146 -65 210 -65 30 0 58 -4 61 -10 9 -14 215 -13 215 1 0
6 18 26 40 46 28 25 44 51 55 88 8 29 22 58 30 65 12 10 15 38 15 136 0 71 -4
125 -10 129 -5 3 -10 26 -10 50 0 33 -14 73 -60 166 -33 67 -60 135 -60 151 0
37 -33 101 -81 158 -44 52 -69 106 -69 149 l0 30 -67 51 c-38 28 -87 76 -109
106 -23 30 -61 74 -85 98 -24 24 -55 57 -68 75 -13 18 -41 43 -62 57 -22 13
-50 42 -63 63 -14 22 -48 52 -78 70 -29 17 -82 56 -118 87 -36 30 -87 70 -115
89 -27 19 -72 57 -100 85 -30 30 -64 54 -85 60 -20 5 -54 25 -76 43 -41 36
-160 100 -206 111 -14 3 -51 28 -81 56 -29 27 -89 68 -133 90 -43 23 -102 56
-130 74 -51 31 -242 99 -315 111 -22 3 -54 21 -80 44 -44 38 -99 71 -119 71
-6 0 -36 11 -65 25 -30 13 -103 40 -162 60 -59 19 -116 40 -125 45 -10 6 -96
10 -197 10 l-179 0 -6 -22z"/>
</g>
</svg>
