<?xml version="1.0" standalone="no"?>
<!DOCTYPE svg PUBLIC "-//W3C//DTD SVG 20010904//EN"
 "http://www.w3.org/TR/2001/REC-SVG-20010904/DTD/svg10.dtd">
<svg version="1.0" xmlns="http://www.w3.org/2000/svg"
 width="543.000000pt" height="303.000000pt" viewBox="0 0 543.000000 303.000000"
 preserveAspectRatio="xMidYMid meet">
<metadata>
Created by potrace 1.16, written by Peter Selinger 2001-2019
</metadata>
<g transform="translate(0.000000,303.000000) scale(0.100000,-0.100000)"
fill="#000000" stroke="none">
<path d="M2758 2989 c-27 -22 -48 -49 -48 -60 0 -23 66 -59 108 -59 18 0 38
-10 57 -30 17 -18 39 -30 54 -30 13 0 105 -27 203 -60 98 -33 187 -60 198 -60
12 0 51 -18 88 -40 36 -22 80 -44 97 -49 42 -11 161 -90 205 -136 19 -19 51
-40 71 -45 20 -6 64 -34 97 -63 33 -28 85 -69 115 -90 30 -21 64 -52 76 -68
12 -16 48 -42 79 -58 54 -27 122 -85 122 -103 0 -15 84 -100 124 -126 22 -13
60 -43 85 -66 25 -23 58 -50 74 -59 15 -10 38 -35 52 -57 14 -22 37 -46 53
-54 42 -21 81 -65 109 -121 14 -27 43 -70 64 -95 44 -52 69 -106 69 -149 0
-23 10 -37 43 -63 23 -18 48 -40 55 -48 23 -26 52 -94 52 -122 0 -15 20 -68
45 -119 l45 -93 0 -129 c0 -142 -9 -170 -60 -201 -36 -20 -69 -20 -99 0 -22
16 -91 145 -91 172 0 27 -50 110 -85 140 l-36 32 -56 0 -56 0 -43 -44 c-48
-47 -52 -65 -29 -119 17 -41 20 -123 5 -161 -5 -15 -32 -48 -60 -75 -28 -27
-50 -58 -50 -69 0 -24 -30 -47 -117 -91 -34 -17 -64 -35 -68 -41 -3 -5 -13
-10 -21 -10 -8 0 -34 -9 -57 -21 -23 -11 -62 -24 -87 -29 -57 -11 -122 -28
-180 -46 -25 -8 -68 -14 -96 -14 -28 0 -69 -7 -89 -16 l-38 -16 -41 16 c-33
13 -84 16 -244 16 -158 0 -211 3 -239 15 -22 9 -67 15 -117 15 -90 0 -172 23
-235 66 l-36 24 -69 0 c-50 0 -96 8 -161 29 -101 33 -161 49 -221 60 -22 4
-54 17 -70 28 -65 46 -174 93 -215 93 -45 0 -94 20 -153 62 -21 15 -46 28 -53
28 -67 0 -272 170 -333 275 -33 56 -121 138 -160 148 -14 3 -47 24 -74 47 -32
26 -58 40 -77 40 -16 0 -46 7 -66 15 -19 8 -47 15 -61 15 -30 0 -196 78 -253
120 -25 18 -54 30 -73 30 -18 0 -50 13 -76 30 -25 16 -51 30 -58 30 -8 0 -41
13 -75 28 -34 15 -97 39 -141 53 -53 16 -92 36 -120 60 -22 20 -50 41 -61 47
-50 26 -149 52 -200 52 l-55 0 0 -36 0 -37 63 -58 c43 -41 75 -62 106 -70 31
-9 60 -28 97 -66 42 -41 60 -53 84 -53 18 0 61 -14 97 -30 35 -16 70 -30 76
-30 7 0 29 -11 49 -25 20 -13 93 -43 162 -66 l126 -41 31 -39 c17 -22 38 -39
46 -39 9 0 61 -22 117 -49 105 -51 169 -101 271 -209 32 -34 70 -65 84 -69 26
-6 110 -52 211 -116 30 -19 71 -43 90 -52 19 -10 49 -28 65 -40 46 -34 172
-95 197 -95 13 0 75 -18 138 -39 84 -28 126 -48 157 -75 l41 -36 42 0 c22 0
57 -7 77 -15 19 -8 52 -15 71 -15 20 0 96 -20 169 -45 73 -25 142 -45 154 -45
12 0 37 -13 56 -30 l34 -30 239 0 c148 0 241 -4 245 -10 9 -14 99 -12 113 2
10 10 17 10 32 0 25 -15 376 -17 385 -2 3 6 45 10 93 10 l87 0 85 30 c46 17
95 30 108 30 14 0 43 17 69 39 24 22 59 43 76 47 74 15 217 110 217 143 0 10
15 30 33 43 57 44 137 98 143 98 3 0 27 -22 54 -50 38 -39 55 -50 79 -50 18 0
48 -7 68 -15 46 -19 76 -19 142 4 l55 19 52 65 c29 36 62 84 73 106 l21 40 0
96 c0 99 10 135 35 135 22 0 19 44 -4 64 -11 10 -31 54 -45 98 -32 98 -39 112
-87 166 -21 24 -41 58 -45 75 -9 44 -34 91 -99 189 -30 45 -55 90 -55 100 0
10 -21 42 -47 72 -97 109 -133 155 -133 171 0 22 -75 101 -135 140 -27 19 -72
57 -100 85 -31 32 -64 54 -87 61 -22 5 -45 21 -55 36 -10 14 -72 79 -138 143
-66 65 -140 138 -165 163 -25 25 -74 59 -110 77 -36 18 -72 38 -80 46 -9 7
-46 30 -82 51 -151 86 -206 124 -232 157 -17 23 -40 39 -64 45 -20 6 -61 22
-90 36 -28 14 -57 25 -63 25 -6 0 -40 14 -76 30 -35 17 -69 30 -75 30 -5 0
-39 14 -75 30 l-64 30 -71 0 -70 0 -65 30 c-35 17 -71 30 -79 30 -8 0 -26 11
-40 25 -36 36 -71 32 -126 -16z"/>
</g>
</svg>
