<?xml version="1.0" standalone="no"?>
<!DOCTYPE svg PUBLIC "-//W3C//DTD SVG 20010904//EN"
 "http://www.w3.org/TR/2001/REC-SVG-20010904/DTD/svg10.dtd">
<svg version="1.0" xmlns="http://www.w3.org/2000/svg"
 width="327.000000pt" height="312.000000pt" viewBox="0 0 327.000000 312.000000"
 preserveAspectRatio="xMidYMid meet">
<metadata>
Created by potrace 1.16, written by Peter Selinger 2001-2019
</metadata>
<g transform="translate(0.000000,312.000000) scale(0.100000,-0.100000)"
fill="#000000" stroke="none">
<path d="M876 3098 c-16 -62 17 -108 76 -108 40 0 85 -22 188 -92 47 -32 91
-58 99 -58 27 0 80 -41 120 -95 23 -31 50 -55 60 -55 9 0 28 -12 42 -26 13
-14 76 -60 139 -102 122 -81 230 -175 230 -200 0 -8 17 -31 38 -51 21 -20 57
-61 81 -92 23 -31 59 -69 81 -84 63 -44 196 -189 224 -243 28 -54 35 -62 81
-77 29 -10 44 -29 100 -125 67 -116 81 -139 112 -174 18 -20 42 -53 53 -74 11
-20 36 -56 55 -80 19 -24 35 -52 35 -62 0 -11 25 -47 55 -81 31 -34 58 -74 62
-88 3 -14 15 -44 26 -66 11 -22 33 -80 49 -128 15 -49 39 -105 53 -125 14 -20
25 -48 25 -62 0 -14 14 -63 30 -110 17 -46 30 -101 30 -121 0 -20 7 -53 15
-72 24 -57 19 -106 -15 -157 -16 -25 -30 -52 -30 -61 0 -44 -67 -53 -105 -14
l-25 24 0 91 c0 92 -17 150 -52 176 -31 24 -90 33 -133 22 l-43 -12 -44 17
c-28 11 -73 17 -123 17 -44 0 -100 6 -125 14 -93 29 -137 38 -225 46 -49 4
-103 12 -120 18 -70 24 -126 35 -225 42 -58 4 -118 12 -135 18 -51 18 -117 33
-180 42 -33 4 -84 20 -112 34 -29 14 -65 26 -81 26 -32 0 -60 17 -117 71 -22
20 -78 57 -125 80 -111 55 -140 76 -140 99 0 11 -10 26 -22 35 -13 9 -43 30
-66 48 -24 18 -58 42 -74 55 -17 12 -48 27 -69 32 -22 6 -46 22 -56 36 -43 62
-79 97 -123 119 -56 28 -171 106 -218 146 -18 16 -41 29 -50 29 -10 0 -31 14
-47 30 -36 38 -60 38 -114 -1 l-42 -31 3 -41 3 -40 55 -39 c30 -21 84 -56 120
-77 36 -22 75 -53 88 -70 12 -17 49 -44 81 -60 32 -17 82 -52 112 -78 30 -27
67 -57 82 -67 16 -9 38 -33 49 -52 11 -19 51 -54 92 -81 83 -54 126 -92 126
-109 0 -6 -16 -24 -35 -38 l-35 -27 0 -67 1 -67 82 -85 c45 -47 98 -96 118
-109 19 -13 51 -47 70 -75 27 -39 44 -54 76 -64 22 -7 58 -28 79 -46 40 -34
114 -76 134 -76 6 0 36 -11 66 -25 l55 -25 54 16 c78 22 95 48 95 140 0 51 -8
97 -26 154 l-27 82 14 9 c30 19 134 9 219 -21 51 -18 105 -30 135 -30 30 0 85
-12 135 -30 47 -16 102 -30 123 -30 21 0 54 -7 74 -15 19 -8 53 -15 75 -15 23
0 67 -13 105 -30 39 -18 81 -30 107 -30 l42 0 53 -62 c29 -35 65 -88 81 -119
31 -61 90 -119 120 -119 10 0 22 -4 25 -10 4 -6 63 -10 143 -10 l137 0 20 33
c10 17 30 50 42 71 13 21 37 54 53 73 19 21 30 45 30 63 0 16 4 32 10 35 6 3
10 21 10 40 0 19 -4 37 -10 40 -13 8 -13 62 0 70 6 3 10 48 10 99 0 71 -4 97
-15 106 -8 7 -21 34 -29 60 -8 26 -22 62 -31 79 -29 57 -65 175 -65 214 0 31
-8 48 -38 83 -42 47 -79 155 -67 194 l7 21 -54 52 c-30 29 -66 60 -81 70 -16
10 -31 33 -37 57 -6 24 -24 50 -44 67 -43 35 -96 104 -126 163 -13 25 -45 69
-71 98 -27 30 -52 66 -55 80 -13 52 -44 101 -83 129 -22 15 -53 49 -70 75 -17
25 -45 57 -62 70 -17 12 -45 38 -63 55 -35 37 -67 69 -114 116 -49 48 -154
168 -181 205 -12 18 -44 44 -69 57 -59 31 -71 41 -107 88 -16 22 -53 51 -86
67 -31 16 -77 46 -101 67 -24 21 -73 51 -108 67 -116 51 -125 56 -154 97 -18
25 -46 48 -75 61 -25 11 -53 24 -61 27 -8 4 -22 22 -30 39 l-15 32 -151 0
-152 0 -6 -22z m356 -2580 c37 -39 66 -74 63 -76 -10 -11 -123 53 -157 88 -46
48 -47 60 -6 60 l32 0 68 -72z"/>
</g>
</svg>
