<?xml version="1.0" standalone="no"?>
<!DOCTYPE svg PUBLIC "-//W3C//DTD SVG 20010904//EN"
 "http://www.w3.org/TR/2001/REC-SVG-20010904/DTD/svg10.dtd">
<svg version="1.0" xmlns="http://www.w3.org/2000/svg"
 width="429.000000pt" height="453.000000pt" viewBox="0 0 429.000000 453.000000"
 preserveAspectRatio="xMidYMid meet">
<metadata>
Created by potrace 1.16, written by Peter Selinger 2001-2019
</metadata>
<g transform="translate(0.000000,453.000000) scale(0.100000,-0.100000)"
fill="#000000" stroke="none">
<path d="M1206 4498 c28 -57 44 -68 91 -68 24 0 60 -7 80 -15 19 -8 61 -15 92
-15 60 0 95 -14 191 -76 30 -19 71 -39 90 -44 58 -16 142 -60 190 -100 47 -39
120 -80 142 -80 8 0 51 -25 96 -55 92 -61 144 -89 184 -99 14 -3 50 -28 80
-54 29 -26 91 -73 138 -105 47 -31 101 -72 120 -92 19 -19 51 -40 72 -46 21
-5 45 -21 55 -35 41 -59 78 -96 115 -115 21 -11 67 -49 102 -84 34 -36 70 -65
80 -65 17 0 62 -41 241 -220 25 -25 59 -60 77 -78 18 -18 51 -51 74 -75 22
-23 53 -50 67 -60 15 -10 41 -45 57 -77 16 -32 45 -70 63 -84 19 -14 46 -48
61 -76 15 -27 42 -62 61 -76 22 -17 54 -63 90 -132 31 -59 71 -126 90 -150
l35 -44 0 -57 0 -58 41 -88 41 -88 -11 -37 c-6 -21 -11 -72 -11 -114 0 -43 -5
-86 -10 -97 -21 -38 -112 -12 -151 42 -22 31 -326 239 -350 239 -8 0 -56 20
-107 45 -52 25 -99 45 -105 45 -7 0 -41 14 -75 30 -35 17 -80 30 -100 30 -21
0 -57 6 -82 14 -60 19 -125 35 -182 46 -26 5 -56 13 -67 19 -11 6 -38 11 -61
11 -22 0 -57 7 -77 15 -20 8 -66 15 -104 15 -37 0 -80 5 -94 10 -65 25 -227
-65 -270 -151 l-25 -48 0 -94 0 -94 29 -40 c16 -22 38 -58 49 -79 11 -22 30
-48 42 -59 12 -11 34 -40 48 -65 14 -25 43 -65 63 -90 20 -25 47 -64 58 -88
30 -59 113 -182 162 -238 22 -25 48 -63 59 -84 11 -22 36 -51 55 -66 19 -14
35 -35 35 -45 0 -11 31 -53 69 -94 39 -41 86 -105 105 -143 20 -37 55 -89 78
-116 31 -37 51 -75 75 -145 36 -105 41 -169 19 -228 -8 -21 -17 -55 -20 -76
-9 -70 -53 -107 -188 -161 -45 -18 -49 -42 -15 -74 l23 -22 87 0 86 0 25 25
c14 14 33 25 43 25 34 0 63 31 103 111 27 53 40 92 40 119 0 22 7 57 15 77 23
56 19 113 -15 185 -16 34 -30 69 -30 76 0 21 -39 90 -97 175 -29 44 -63 98
-75 121 -11 22 -43 65 -70 95 -27 30 -60 76 -74 103 -14 27 -53 83 -87 125
-121 146 -177 219 -204 263 -16 24 -46 63 -69 85 -39 38 -134 183 -134 204 0
5 -20 51 -45 102 -54 112 -59 161 -19 208 19 23 34 31 60 31 18 0 54 5 78 12
l44 12 44 -17 c24 -9 61 -17 81 -17 21 0 54 -7 74 -15 19 -8 45 -15 56 -15 12
0 62 -13 112 -29 101 -33 161 -49 221 -60 22 -4 54 -17 71 -29 40 -28 229
-122 246 -122 8 0 32 -13 53 -30 21 -16 83 -59 136 -96 108 -73 151 -123 174
-201 16 -56 37 -78 102 -107 45 -20 69 -17 119 14 25 15 45 45 84 127 29 60
56 116 60 125 12 25 11 364 -1 386 -5 9 -26 66 -45 125 -20 60 -51 131 -70
158 -18 27 -37 63 -40 80 -4 18 -20 59 -36 93 -16 34 -29 69 -29 78 0 10 -20
32 -44 50 -24 18 -67 69 -97 113 -29 44 -91 121 -138 170 -47 50 -117 128
-156 174 -38 46 -81 91 -95 99 -14 9 -50 40 -80 68 -227 217 -314 297 -375
346 -38 32 -81 67 -95 78 -82 67 -143 111 -181 130 -24 13 -64 39 -88 58 -96
78 -332 228 -456 290 -71 36 -148 78 -169 94 -21 15 -46 28 -55 28 -9 0 -54
25 -100 55 -50 34 -114 66 -160 81 -42 13 -100 36 -129 49 -37 18 -70 25 -112
25 -32 0 -62 5 -65 10 -4 6 -62 10 -141 10 l-135 0 17 -32z"/>
<path d="M0 948 c0 -29 80 -99 146 -129 27 -11 61 -27 77 -35 15 -8 39 -20 55
-28 68 -35 260 -105 286 -106 35 0 317 -100 354 -125 28 -19 50 -25 91 -25 33
0 91 -12 146 -29 122 -39 170 -51 240 -60 34 -5 70 -13 82 -19 12 -7 40 -12
63 -12 22 0 57 -7 77 -15 l35 -15 343 0 c271 0 350 3 376 14 19 8 64 17 101
21 93 10 167 58 226 147 l42 65 0 62 c0 93 -56 190 -110 191 -8 1 -33 9 -55
20 -91 44 -114 13 -66 -90 19 -40 31 -81 31 -107 l0 -41 -52 -39 c-99 -72
-121 -77 -414 -99 -61 -5 -89 -2 -118 10 -29 12 -72 16 -168 16 -92 0 -139 4
-165 15 -23 10 -69 15 -132 15 -55 0 -115 6 -141 14 -78 24 -133 37 -195 45
-33 5 -83 20 -112 35 -29 14 -64 26 -78 26 -14 0 -42 7 -62 15 -19 8 -47 15
-62 15 -14 0 -50 12 -80 26 -72 33 -345 124 -374 124 -12 0 -42 14 -67 30 -25
16 -52 30 -60 30 -8 0 -44 14 -78 30 -49 23 -78 30 -123 30 l-59 0 0 -22z"/>
</g>
</svg>
