<?xml version="1.0" standalone="no"?>
<!DOCTYPE svg PUBLIC "-//W3C//DTD SVG 20010904//EN"
 "http://www.w3.org/TR/2001/REC-SVG-20010904/DTD/svg10.dtd">
<svg version="1.0" xmlns="http://www.w3.org/2000/svg"
 width="282.000000pt" height="345.000000pt" viewBox="0 0 282.000000 345.000000"
 preserveAspectRatio="xMidYMid meet">
<metadata>
Created by potrace 1.16, written by Peter Selinger 2001-2019
</metadata>
<g transform="translate(0.000000,345.000000) scale(0.100000,-0.100000)"
fill="#000000" stroke="none">
<path d="M37 3422 c-73 -50 -33 -102 80 -102 45 0 66 -5 94 -25 47 -31 294
-155 311 -155 7 0 27 -9 43 -21 43 -29 175 -95 205 -102 14 -4 43 -22 65 -40
22 -19 60 -44 85 -57 25 -12 68 -40 95 -61 132 -103 163 -126 205 -154 24 -16
65 -50 90 -76 25 -25 61 -56 81 -69 21 -13 51 -45 68 -71 20 -31 48 -57 79
-74 58 -32 136 -120 167 -191 22 -50 35 -63 131 -132 51 -37 224 -217 224
-233 0 -5 21 -32 48 -61 26 -29 69 -87 97 -128 27 -41 70 -99 97 -128 26 -30
51 -66 54 -80 4 -15 22 -52 41 -82 82 -131 108 -183 154 -321 33 -97 49 -163
49 -196 l0 -50 -41 -56 -40 -57 -85 0 c-53 0 -98 6 -121 15 -22 9 -67 15 -117
15 -44 0 -101 6 -126 14 -94 30 -138 38 -225 45 -49 4 -100 12 -112 19 -12 7
-60 12 -108 12 l-87 0 -65 30 c-35 16 -69 30 -75 30 -5 0 -39 13 -75 30 -35
16 -81 30 -101 30 -20 0 -58 7 -84 17 l-47 17 -42 -19 c-63 -29 -89 -53 -89
-83 0 -49 35 -89 109 -127 39 -19 76 -35 83 -35 6 0 24 -11 38 -25 15 -14 45
-38 67 -53 126 -84 354 -298 374 -349 5 -13 9 -49 9 -79 l0 -55 -47 -27 c-63
-37 -103 -76 -103 -101 l0 -21 104 0 c59 0 108 4 111 10 3 6 15 10 25 10 37 0
72 43 83 100 11 59 11 79 1 215 -7 99 -17 119 -65 129 -40 8 -89 43 -89 64 0
9 -19 34 -42 54 l-43 37 17 17 18 18 42 -13 c24 -8 97 -17 163 -21 66 -4 134
-12 150 -18 65 -23 124 -34 210 -41 50 -4 100 -12 112 -19 14 -8 77 -12 188
-12 l166 0 42 21 c23 12 63 40 89 62 l48 40 0 163 c0 98 -4 165 -10 169 -5 3
-10 19 -10 35 0 15 -13 57 -30 92 -16 34 -30 69 -30 76 0 17 -127 271 -155
307 -12 17 -32 49 -44 73 -35 68 -162 252 -183 265 -25 15 -89 101 -116 154
-12 23 -39 54 -61 70 -21 15 -49 43 -62 63 -13 19 -41 56 -64 81 -22 25 -71
83 -110 129 -38 45 -81 90 -95 98 -14 9 -66 57 -116 107 -90 89 -232 216 -329
292 -27 22 -59 50 -69 62 -11 11 -36 26 -57 31 -25 7 -48 23 -65 46 -26 33
-89 74 -115 74 -25 0 -181 82 -217 114 -45 41 -93 66 -124 66 -38 0 -126 35
-153 60 -14 13 -76 40 -140 61 -63 21 -132 50 -152 64 -27 18 -51 25 -85 25
-26 0 -50 5 -53 10 -12 20 -98 9 -138 -18z"/>
</g>
</svg>
