<?xml version="1.0" standalone="no"?>
<!DOCTYPE svg PUBLIC "-//W3C//DTD SVG 20010904//EN"
 "http://www.w3.org/TR/2001/REC-SVG-20010904/DTD/svg10.dtd">
<svg version="1.0" xmlns="http://www.w3.org/2000/svg"
 width="357.000000pt" height="510.000000pt" viewBox="0 0 357.000000 510.000000"
 preserveAspectRatio="xMidYMid meet">
<metadata>
Created by potrace 1.16, written by Peter Selinger 2001-2019
</metadata>
<g transform="translate(0.000000,510.000000) scale(0.100000,-0.100000)"
fill="#000000" stroke="none">
<path d="M23 5086 c-18 -8 -23 -19 -23 -46 l0 -36 95 -32 c52 -18 102 -32 112
-32 41 0 168 -50 218 -86 53 -38 174 -94 203 -94 30 0 89 -38 131 -84 14 -14
41 -31 61 -36 20 -5 54 -25 76 -43 21 -19 53 -41 71 -50 17 -9 52 -34 77 -54
24 -21 63 -51 86 -68 23 -16 56 -40 73 -53 17 -12 42 -25 56 -29 27 -7 83 -50
185 -143 34 -31 80 -69 104 -84 47 -32 242 -230 242 -247 0 -5 29 -40 64 -78
35 -37 75 -86 89 -109 15 -22 46 -57 70 -77 25 -21 55 -56 67 -79 13 -22 45
-65 72 -94 26 -30 51 -66 54 -80 10 -40 39 -94 95 -177 28 -42 60 -108 74
-151 14 -41 32 -89 41 -105 8 -16 33 -82 54 -147 l40 -117 0 -125 0 -126 -22
-44 c-13 -25 -35 -52 -50 -60 l-27 -15 -34 33 c-18 17 -40 32 -49 32 -9 0 -26
13 -37 29 -26 36 -115 97 -210 145 l-71 36 -78 0 -79 0 -17 -19 c-12 -13 -17
-34 -16 -63 3 -63 2 -66 -20 -73 -27 -8 -25 -40 2 -59 16 -11 46 -16 98 -16
78 0 96 -7 150 -56 14 -12 53 -36 87 -53 39 -20 91 -61 142 -112 l81 -80 0
-121 0 -121 88 -89 c48 -50 112 -106 142 -126 30 -21 75 -57 100 -83 25 -25
62 -56 82 -69 20 -14 49 -44 64 -68 15 -24 46 -55 68 -70 27 -18 45 -40 52
-62 8 -25 26 -45 65 -71 34 -23 63 -52 78 -80 13 -24 41 -62 62 -84 20 -22 58
-71 83 -110 36 -55 46 -79 46 -112 0 -25 12 -66 30 -105 41 -86 41 -163 1
-276 -33 -97 -46 -112 -115 -148 -28 -14 -62 -36 -76 -49 -67 -59 -114 -69
-191 -39 l-40 17 -55 -19 -55 -18 -48 17 c-27 9 -72 17 -100 17 -28 0 -68 7
-88 15 -19 8 -47 15 -60 15 -14 0 -54 14 -90 30 -35 17 -69 30 -75 30 -15 0
-201 94 -268 135 -148 91 -192 120 -212 142 l-23 24 23 39 22 39 0 79 0 79
-49 64 c-102 131 -101 131 -275 217 -91 45 -178 82 -193 82 -33 -1 -125 -31
-146 -49 -8 -6 -18 -27 -21 -45 -10 -51 -33 -67 -82 -56 -50 11 -67 21 -175
93 -47 31 -92 57 -100 57 -8 0 -34 14 -59 30 -25 16 -52 30 -60 30 -9 0 -56
27 -105 60 -50 33 -96 60 -103 60 -29 0 -150 64 -201 106 l-53 44 -47 0 c-67
0 -75 -8 -66 -66 7 -52 49 -104 82 -104 11 0 32 -14 48 -30 20 -21 38 -30 60
-30 31 0 61 -16 105 -56 14 -12 75 -47 136 -78 70 -35 133 -75 172 -110 35
-31 70 -56 80 -56 18 0 65 -24 153 -78 30 -18 73 -37 96 -43 24 -6 62 -28 85
-49 45 -39 98 -70 120 -70 20 0 326 -204 373 -249 44 -41 289 -207 357 -242
24 -12 57 -32 73 -45 39 -29 263 -101 387 -124 26 -5 56 -13 67 -19 11 -6 40
-11 65 -11 25 0 48 -4 51 -10 4 -6 102 -10 262 -10 l255 0 26 19 c35 24 117
61 137 61 23 0 180 159 204 207 11 23 25 44 31 48 12 8 14 371 1 379 -4 3 -11
18 -14 33 -3 16 -23 57 -45 93 -21 36 -42 77 -45 91 -6 25 -53 72 -110 111
-14 10 -31 36 -38 60 -11 33 -25 50 -66 77 -28 20 -65 56 -82 82 -20 31 -49
57 -86 78 -43 24 -62 43 -87 87 -17 32 -45 65 -63 75 -18 11 -60 52 -94 92
-73 86 -143 148 -199 177 -61 32 -67 42 -52 95 7 24 10 57 7 72 -8 43 -27 113
-43 162 -17 52 -12 62 50 104 l48 32 35 104 34 104 -4 136 c-3 129 -9 163 -43
271 -8 25 -14 56 -14 70 0 13 -13 38 -28 55 -16 16 -38 60 -50 98 -25 77 -69
168 -115 238 -18 26 -45 70 -62 99 -16 29 -41 72 -55 96 -14 24 -45 62 -69 86
-44 43 -112 130 -175 224 -19 27 -50 61 -69 74 -19 13 -49 45 -66 71 -17 26
-45 58 -62 71 -40 30 -87 77 -118 118 -13 17 -41 42 -62 56 -22 13 -50 42 -64
64 -17 26 -43 49 -78 66 -64 32 -145 94 -206 155 -71 73 -265 199 -304 199 -7
0 -28 18 -46 40 -20 25 -44 43 -69 49 -20 6 -61 22 -90 36 -28 14 -57 25 -64
25 -7 0 -24 12 -40 26 -17 17 -68 41 -140 64 -62 21 -139 54 -170 73 -32 19
-90 45 -130 57 -40 13 -77 27 -82 32 -14 12 -187 8 -213 -6z m1533 -4222 c61
-17 84 -43 84 -91 0 -51 -30 -42 -100 29 -82 84 -80 90 16 62z"/>
</g>
</svg>
