<?xml version="1.0" standalone="no"?>
<!DOCTYPE svg PUBLIC "-//W3C//DTD SVG 20010904//EN"
 "http://www.w3.org/TR/2001/REC-SVG-20010904/DTD/svg10.dtd">
<svg version="1.0" xmlns="http://www.w3.org/2000/svg"
 width="222.000000pt" height="396.000000pt" viewBox="0 0 222.000000 396.000000"
 preserveAspectRatio="xMidYMid meet">
<metadata>
Created by potrace 1.16, written by Peter Selinger 2001-2019
</metadata>
<g transform="translate(0.000000,396.000000) scale(0.100000,-0.100000)"
fill="#000000" stroke="none">
<path d="M0 3895 l0 -65 57 0 c74 0 169 -45 213 -100 19 -24 45 -43 65 -49 19
-5 47 -18 63 -30 16 -11 64 -39 108 -61 127 -66 210 -122 250 -168 20 -24 54
-55 76 -68 88 -56 194 -156 254 -241 29 -42 51 -63 64 -63 14 0 30 -15 48 -47
15 -26 76 -96 135 -156 66 -67 118 -129 134 -160 14 -29 42 -70 62 -92 20 -22
49 -60 64 -85 62 -100 107 -180 107 -191 0 -7 16 -38 36 -68 112 -174 174
-293 174 -332 0 -15 7 -43 15 -62 8 -20 15 -54 15 -75 0 -22 12 -66 26 -98
l26 -59 -11 -36 c-6 -20 -11 -65 -11 -99 0 -79 -34 -186 -66 -207 -27 -17 -74
-14 -85 7 -4 8 -13 30 -20 49 -15 41 -81 144 -118 184 -35 38 -112 77 -154 77
-50 0 -83 -31 -101 -94 l-16 -54 25 -54 c14 -29 25 -58 25 -64 0 -7 14 -42 31
-78 34 -73 35 -112 3 -161 -23 -35 -220 -155 -256 -155 -10 0 -32 -20 -50 -44
-18 -24 -55 -59 -83 -78 l-50 -34 -16 -50 c-9 -27 -24 -65 -34 -84 -18 -34
-25 -62 -45 -187 l-10 -63 36 -107 c48 -143 94 -233 138 -266 l35 -27 59 0 60
0 6 22 c11 42 6 54 -49 139 l-55 84 0 41 c0 23 -7 58 -15 77 -19 46 -19 98 0
144 8 19 15 54 15 78 0 76 96 178 234 246 92 46 151 86 225 152 68 60 126 87
191 87 50 0 144 26 205 57 43 22 130 119 150 167 10 23 21 49 26 58 13 25 12
375 -1 383 -5 3 -10 20 -10 36 0 16 -9 48 -21 70 -27 54 -69 178 -69 207 0 22
-121 271 -159 327 -12 17 -21 37 -21 46 0 9 -10 24 -21 35 -36 32 -95 116
-129 185 -18 35 -52 82 -76 105 -24 22 -44 49 -44 60 0 10 -33 53 -72 94 -40
41 -89 97 -110 123 -35 46 -55 68 -166 180 -110 110 -151 146 -218 190 -43 29
-88 69 -112 101 -28 36 -50 55 -69 59 -16 3 -57 31 -91 61 -35 31 -70 56 -78
56 -22 0 -82 29 -121 58 -17 13 -47 28 -67 33 -19 5 -59 31 -88 58 -29 27 -77
61 -106 76 -30 15 -59 36 -65 46 l-12 19 -142 0 -143 0 0 -65z"/>
</g>
</svg>
