<?xml version="1.0" standalone="no"?>
<!DOCTYPE svg PUBLIC "-//W3C//DTD SVG 20010904//EN"
 "http://www.w3.org/TR/2001/REC-SVG-20010904/DTD/svg10.dtd">
<svg version="1.0" xmlns="http://www.w3.org/2000/svg"
 width="222.000000pt" height="357.000000pt" viewBox="0 0 222.000000 357.000000"
 preserveAspectRatio="xMidYMid meet">
<metadata>
Created by potrace 1.16, written by Peter Selinger 2001-2019
</metadata>
<g transform="translate(0.000000,357.000000) scale(0.100000,-0.100000)"
fill="#000000" stroke="none">
<path d="M7 3563 c-4 -3 -7 -32 -7 -62 l0 -56 49 -18 c27 -9 66 -17 88 -17 30
0 46 -7 66 -28 22 -23 123 -77 247 -131 25 -11 106 -58 232 -135 34 -21 83
-60 108 -87 25 -27 70 -64 100 -82 36 -21 56 -40 60 -57 3 -15 24 -37 51 -55
51 -34 201 -191 224 -235 8 -16 34 -41 57 -57 28 -18 54 -48 73 -84 17 -31 58
-84 91 -118 34 -34 75 -81 90 -104 16 -23 45 -62 65 -87 20 -25 51 -74 69
-110 18 -36 48 -82 66 -102 37 -41 87 -134 114 -213 23 -65 56 -146 88 -215
15 -33 28 -84 33 -130 7 -75 16 -117 47 -218 l16 -53 -17 -48 c-9 -27 -17 -71
-17 -99 0 -55 -17 -82 -51 -82 -36 0 -56 18 -105 92 -27 40 -73 103 -103 140
l-54 68 -34 0 c-35 0 -84 -20 -115 -48 -27 -23 -24 -102 7 -161 13 -27 45 -67
71 -90 50 -44 84 -115 84 -176 0 -35 -44 -169 -66 -203 -8 -13 -29 -32 -47
-42 -18 -10 -46 -38 -63 -62 -22 -31 -50 -53 -105 -80 -41 -21 -79 -38 -86
-38 -6 0 -42 -14 -79 -31 l-67 -31 -22 10 c-12 6 -38 23 -56 39 -19 16 -50 39
-69 52 -20 13 -48 41 -63 62 -16 22 -47 49 -70 60 -23 12 -71 53 -107 91 -40
44 -78 75 -100 82 -22 7 -44 26 -63 54 -20 29 -47 52 -86 72 -32 16 -82 51
-112 77 -73 66 -250 183 -275 183 -33 0 -74 -38 -74 -68 0 -20 26 -51 113
-137 61 -61 149 -140 195 -175 181 -141 211 -166 231 -191 10 -14 39 -37 63
-53 24 -15 54 -43 67 -62 13 -19 45 -50 72 -70 53 -39 104 -109 114 -157 4
-18 19 -44 33 -59 l26 -28 59 0 c43 0 67 5 87 20 16 11 42 23 58 26 17 3 43
19 58 35 21 22 37 29 66 29 109 0 274 88 395 212 66 67 143 173 143 198 1 8
24 53 53 100 l53 85 57 5 57 5 36 37 c38 37 47 66 61 185 3 29 12 58 19 64 11
9 14 48 14 170 0 88 -4 167 -10 177 -23 41 -70 200 -70 237 0 28 -9 54 -30 85
-16 25 -30 51 -30 59 0 8 -13 35 -29 60 -16 25 -31 57 -34 71 -4 14 -22 50
-41 80 -19 30 -47 77 -62 104 -32 60 -79 129 -127 188 -42 52 -67 105 -67 146
0 33 -22 56 -62 66 -14 3 -39 20 -55 38 -15 18 -47 50 -70 73 -23 22 -58 64
-77 94 -37 54 -154 178 -351 369 -64 63 -149 129 -196 153 -24 12 -57 32 -74
45 -16 12 -77 46 -135 74 -58 29 -125 69 -150 90 -57 47 -121 80 -157 80 -30
0 -151 72 -160 96 -4 11 -28 14 -112 14 -59 0 -111 -3 -114 -7z"/>
</g>
</svg>
