<?xml version="1.0" standalone="no"?>
<!DOCTYPE svg PUBLIC "-//W3C//DTD SVG 20010904//EN"
 "http://www.w3.org/TR/2001/REC-SVG-20010904/DTD/svg10.dtd">
<svg version="1.0" xmlns="http://www.w3.org/2000/svg"
 width="345.000000pt" height="480.000000pt" viewBox="0 0 345.000000 480.000000"
 preserveAspectRatio="xMidYMid meet">
<metadata>
Created by potrace 1.16, written by Peter Selinger 2001-2019
</metadata>
<g transform="translate(0.000000,480.000000) scale(0.100000,-0.100000)"
fill="#000000" stroke="none">
<path d="M0 4752 l0 -47 49 -18 c31 -11 78 -17 130 -17 50 0 96 -6 118 -15 23
-10 69 -15 135 -15 65 0 111 -5 135 -15 19 -8 47 -15 61 -15 14 0 81 -27 149
-60 69 -33 129 -60 135 -60 5 0 37 -13 71 -28 34 -16 73 -32 87 -35 14 -4 47
-24 74 -47 26 -22 55 -40 63 -40 26 0 181 -100 207 -135 17 -22 40 -38 65 -45
43 -11 60 -28 90 -88 12 -24 38 -52 59 -66 55 -34 355 -338 397 -402 20 -30
47 -62 61 -71 14 -9 37 -37 51 -62 15 -25 44 -66 64 -91 39 -46 129 -221 129
-249 0 -9 14 -36 30 -61 16 -25 30 -58 30 -73 0 -15 9 -45 19 -65 30 -58 41
-123 41 -240 l0 -107 -73 -110 -72 -110 -105 -52 -105 -53 -140 0 -141 0 -59
21 c-33 11 -72 30 -89 42 -16 11 -51 24 -78 28 -68 11 -99 37 -143 121 -21 40
-55 93 -76 118 -20 25 -51 74 -69 110 -18 36 -47 81 -65 100 -18 19 -74 96
-124 171 -91 137 -123 169 -262 265 -68 47 -185 104 -214 104 -14 0 -42 7 -62
15 -58 24 -92 19 -158 -26 -82 -55 -103 -76 -131 -131 l-24 -47 0 -94 0 -94
26 -24 c14 -13 37 -44 51 -69 33 -58 173 -201 239 -246 28 -19 72 -52 96 -74
54 -47 294 -169 404 -205 110 -36 154 -58 210 -105 90 -77 105 -92 129 -140
13 -25 41 -60 62 -75 49 -37 60 -52 72 -94 6 -18 36 -61 68 -95 32 -34 85 -95
118 -134 33 -40 75 -82 93 -92 18 -11 41 -34 50 -51 35 -64 58 -94 76 -97 10
-2 51 -36 92 -75 40 -40 88 -86 106 -104 18 -17 44 -45 57 -63 13 -17 42 -43
65 -57 22 -14 91 -74 152 -132 62 -58 138 -125 170 -149 33 -23 90 -66 127
-95 115 -88 131 -98 159 -104 14 -3 39 -18 54 -34 15 -16 34 -29 41 -29 22 0
180 -99 187 -116 8 -21 -19 -75 -54 -109 -17 -16 -30 -37 -30 -46 0 -24 -33
-45 -190 -123 l-136 -66 -56 0 c-30 0 -72 -7 -91 -15 -49 -20 -215 -20 -264 0
-19 8 -59 15 -87 15 -28 0 -71 6 -96 14 -78 25 -133 37 -195 45 -34 5 -70 13
-82 19 -12 7 -40 12 -63 12 -22 0 -57 7 -77 15 -19 8 -54 15 -77 15 l-42 0
-47 50 c-60 64 -71 90 -56 140 30 101 -94 325 -213 386 l-47 24 -108 0 -108 0
-50 -28 c-57 -31 -104 -104 -105 -160 0 -32 29 -97 69 -157 12 -16 21 -38 21
-47 0 -20 83 -85 150 -118 25 -12 66 -40 91 -61 36 -29 77 -48 173 -80 l126
-41 31 -39 31 -39 59 0 c33 0 76 -7 96 -15 19 -8 52 -15 72 -15 20 0 56 -6 81
-14 82 -26 135 -38 185 -43 28 -3 54 -9 59 -14 6 -5 156 -9 339 -9 l329 0 16
19 c18 22 122 61 159 61 13 0 69 23 125 51 l102 50 81 86 c44 47 90 103 102
125 12 22 31 50 42 62 17 18 21 35 21 85 l0 62 -42 50 -41 49 -71 0 c-113 0
-224 43 -308 118 -29 26 -66 56 -81 65 -15 10 -53 40 -83 68 -30 27 -62 49
-73 49 -38 0 -131 81 -341 298 -31 31 -77 85 -103 120 -27 34 -55 62 -62 62
-18 0 -299 285 -337 342 -16 23 -48 60 -71 83 -23 22 -64 73 -90 113 l-48 73
12 15 c15 19 69 18 118 -2 29 -11 63 -14 133 -11 89 4 127 11 228 43 25 8 55
14 68 14 27 0 87 30 155 76 69 48 207 188 207 210 0 11 14 48 30 82 17 35 30
75 30 88 0 13 7 42 17 65 l16 41 -16 47 c-10 25 -17 69 -17 97 0 28 -7 68 -15
87 -8 20 -15 48 -15 62 0 33 -84 201 -119 240 -15 17 -38 61 -50 99 -16 52
-34 83 -71 123 -27 30 -66 86 -87 126 -40 76 -122 166 -234 255 -36 30 -76 71
-88 93 -13 22 -41 51 -64 66 -23 14 -59 45 -80 69 -21 24 -64 61 -95 81 -31
20 -91 72 -133 114 -42 42 -96 87 -120 99 -24 12 -64 39 -89 60 -58 48 -121
80 -158 80 -17 0 -46 13 -72 33 -72 54 -112 75 -198 103 -46 14 -118 43 -160
64 -42 20 -90 40 -106 44 -17 4 -42 16 -57 27 l-27 19 -321 0 -321 0 0 -48z
m613 -1602 c81 -29 163 -84 192 -130 14 -22 36 -47 50 -56 14 -9 38 -38 52
-63 15 -25 44 -66 64 -91 20 -25 47 -65 59 -90 12 -25 32 -58 44 -75 36 -50
48 -85 35 -101 -17 -21 -50 -17 -91 11 -20 14 -95 54 -166 90 -100 51 -137 75
-166 111 -21 25 -55 56 -76 69 -46 29 -102 113 -131 195 l-20 60 17 28 c14 25
58 61 74 62 3 0 31 -9 63 -20z m640 -2490 c31 -24 62 -100 52 -129 -9 -29 -22
-26 -51 9 -14 16 -40 34 -57 38 -20 5 -39 20 -50 40 l-19 32 12 15 c18 22 83
19 113 -5z"/>
</g>
</svg>
