<?xml version="1.0" standalone="no"?>
<!DOCTYPE svg PUBLIC "-//W3C//DTD SVG 20010904//EN"
 "http://www.w3.org/TR/2001/REC-SVG-20010904/DTD/svg10.dtd">
<svg version="1.0" xmlns="http://www.w3.org/2000/svg"
 width="402.000000pt" height="384.000000pt" viewBox="0 0 402.000000 384.000000"
 preserveAspectRatio="xMidYMid meet">
<metadata>
Created by potrace 1.16, written by Peter Selinger 2001-2019
</metadata>
<g transform="translate(0.000000,384.000000) scale(0.100000,-0.100000)"
fill="#000000" stroke="none">
<path d="M1216 3816 c-3 -13 -9 -31 -12 -40 -9 -24 39 -66 77 -66 17 0 71 -18
118 -41 47 -22 120 -52 161 -65 86 -28 113 -40 155 -70 17 -12 64 -39 105 -60
41 -20 89 -47 105 -59 17 -13 50 -33 75 -45 25 -12 65 -39 90 -60 25 -20 65
-47 90 -60 25 -12 65 -39 90 -60 25 -20 65 -47 90 -60 25 -12 68 -40 95 -61
138 -108 162 -126 188 -142 16 -10 38 -34 49 -53 11 -19 44 -50 73 -70 29 -19
71 -59 93 -88 28 -37 50 -55 70 -59 17 -4 38 -18 49 -33 10 -15 36 -46 58 -68
63 -62 113 -134 130 -187 l17 -49 37 0 37 0 50 -57 c27 -31 67 -82 89 -113 89
-126 112 -156 153 -196 31 -30 42 -49 42 -71 0 -18 13 -48 31 -73 17 -23 51
-83 75 -133 l44 -91 0 -72 c0 -41 6 -87 15 -107 10 -24 15 -70 15 -132 0 -62
-5 -108 -15 -132 -8 -19 -15 -48 -15 -63 0 -33 -41 -92 -106 -149 -54 -48
-236 -141 -276 -141 -14 0 -42 -7 -61 -15 -52 -22 -392 -22 -444 0 -19 8 -46
15 -60 15 -13 0 -49 11 -79 25 -68 31 -168 65 -191 65 -29 0 -224 69 -252 89
-45 32 -148 80 -218 103 -38 12 -82 34 -98 50 -17 15 -37 28 -45 28 -8 0 -35
14 -60 30 -25 16 -58 30 -73 30 -16 0 -58 13 -94 30 -51 24 -78 30 -131 30
-37 0 -87 6 -112 14 -60 19 -125 35 -182 46 -26 5 -56 13 -67 19 -11 6 -59 11
-106 11 l-87 0 -66 31 -67 31 -50 -10 c-27 -6 -61 -11 -75 -11 -187 -8 -344
-21 -380 -31 -150 -41 -175 -52 -220 -94 -25 -23 -58 -51 -73 -61 -47 -30 -67
-87 -67 -186 0 -48 5 -91 10 -94 6 -3 10 -22 10 -41 l0 -35 51 -55 c65 -68 91
-71 143 -14 40 45 43 61 20 115 -11 28 -13 44 -5 67 6 16 8 41 5 56 -11 54 50
146 105 158 14 4 47 19 72 35 49 31 72 35 115 19 19 -7 37 -7 60 0 26 9 40 8
71 -5 28 -12 54 -15 99 -10 48 5 74 2 122 -14 36 -13 87 -21 124 -21 35 0 83
-6 108 -14 65 -20 130 -37 170 -43 46 -7 60 -19 60 -53 0 -15 7 -44 15 -63 8
-20 15 -49 15 -64 0 -18 22 -61 61 -117 33 -50 69 -107 80 -127 10 -21 33 -48
51 -60 18 -13 70 -57 115 -99 45 -41 110 -95 144 -120 35 -25 84 -66 109 -92
25 -27 52 -48 59 -48 19 0 81 -30 116 -56 34 -26 229 -124 245 -124 6 0 36
-11 66 -25 102 -46 171 -65 243 -65 38 0 73 -4 76 -10 3 -5 27 -10 51 -10 l46
0 89 71 89 71 0 110 0 109 -20 39 c-11 21 -33 48 -49 59 -40 28 -115 141 -102
154 5 5 40 7 83 3 40 -4 114 -7 163 -6 127 2 156 2 190 0 52 -4 129 15 170 43
29 19 52 27 85 27 33 0 57 8 90 30 25 16 54 30 65 30 11 0 45 26 77 60 31 33
63 60 70 60 42 0 104 97 148 231 11 35 25 72 30 81 12 22 13 280 1 294 -4 5
-20 48 -35 96 -19 61 -25 96 -21 121 l7 35 -66 78 c-36 42 -70 92 -75 111 -6
19 -21 49 -34 66 -13 18 -34 52 -47 77 -13 25 -40 65 -60 90 -21 25 -43 55
-49 67 -6 12 -32 36 -58 54 -27 17 -55 41 -63 52 -8 12 -52 64 -98 115 -46 52
-94 111 -107 131 -24 39 -52 64 -124 114 -23 16 -66 60 -96 97 -30 38 -76 86
-102 107 -26 21 -67 56 -92 78 -25 23 -62 51 -81 64 -20 13 -48 41 -64 62 -17
25 -50 51 -85 69 -32 16 -84 51 -117 79 -32 28 -86 65 -119 83 -61 32 -160
103 -184 132 -7 9 -27 16 -43 16 -41 0 -94 25 -150 72 -26 21 -93 62 -150 90
-57 28 -116 61 -133 74 -33 24 -141 64 -176 64 -11 0 -50 14 -86 30 -35 17
-71 30 -78 30 -8 0 -17 5 -20 10 -3 6 -46 10 -95 10 l-88 0 -6 -24z m519
-2831 c28 -9 74 -26 103 -40 29 -14 57 -25 63 -25 6 0 36 -12 67 -26 31 -14
91 -37 133 -51 47 -15 92 -37 117 -58 23 -20 68 -43 108 -56 38 -12 83 -34 99
-48 49 -43 127 -104 170 -133 48 -33 112 -98 152 -154 15 -22 43 -60 61 -84
42 -56 42 -91 1 -121 -49 -35 -114 -36 -184 -4 -32 14 -91 37 -132 50 -40 13
-90 36 -110 50 -21 14 -52 25 -69 25 -19 0 -38 8 -50 21 -30 33 -104 84 -173
120 -36 17 -86 53 -112 78 -26 25 -66 61 -88 80 l-41 33 0 38 0 38 -37 13
c-69 22 -83 39 -118 143 -30 88 -35 126 -16 126 3 0 29 -7 56 -15z"/>
</g>
</svg>
