<?xml version="1.0" standalone="no"?>
<!DOCTYPE svg PUBLIC "-//W3C//DTD SVG 20010904//EN"
 "http://www.w3.org/TR/2001/REC-SVG-20010904/DTD/svg10.dtd">
<svg version="1.0" xmlns="http://www.w3.org/2000/svg"
 width="432.000000pt" height="309.000000pt" viewBox="0 0 432.000000 309.000000"
 preserveAspectRatio="xMidYMid meet">
<metadata>
Created by potrace 1.16, written by Peter Selinger 2001-2019
</metadata>
<g transform="translate(0.000000,309.000000) scale(0.100000,-0.100000)"
fill="#000000" stroke="none">
<path d="M1518 3063 c-19 -21 -28 -44 -33 -87 -8 -70 -3 -76 70 -76 63 0 164
-34 293 -99 56 -28 106 -51 112 -51 6 0 41 -18 78 -40 36 -22 84 -45 106 -51
22 -6 74 -28 116 -49 41 -20 94 -40 118 -43 26 -3 57 -16 78 -34 70 -56 98
-73 138 -84 42 -11 140 -59 166 -81 8 -7 30 -32 47 -54 20 -26 44 -44 61 -47
16 -3 53 -28 83 -55 30 -27 78 -61 106 -76 29 -14 83 -55 120 -89 38 -34 84
-73 104 -87 21 -13 51 -46 68 -72 19 -29 48 -56 72 -68 22 -12 68 -49 102 -83
35 -34 75 -70 90 -80 15 -10 30 -30 33 -45 4 -15 24 -46 44 -69 20 -23 49 -61
65 -85 16 -24 48 -63 70 -88 79 -87 155 -230 155 -295 0 -11 14 -58 31 -105
l31 -85 0 -152 -1 -152 -41 -68 c-22 -37 -44 -79 -47 -92 -3 -13 -38 -55 -77
-94 -70 -70 -136 -107 -192 -107 -12 0 -38 -7 -57 -15 -25 -10 -71 -15 -148
-15 -80 0 -125 -5 -160 -17 l-49 -18 -49 18 c-27 9 -72 17 -100 17 -50 0 -111
21 -111 39 0 5 18 45 41 90 l41 82 -11 31 c-6 17 -11 50 -11 74 l0 43 -50 63
c-27 35 -62 83 -77 107 -40 64 -225 251 -249 251 -10 0 -32 9 -49 21 -51 34
-219 117 -283 138 -34 12 -76 21 -94 21 -18 0 -73 13 -123 29 -49 16 -116 35
-147 42 l-57 12 -59 -26 c-33 -15 -66 -27 -74 -27 -28 0 -128 -81 -148 -120
l-20 -39 0 -111 0 -110 21 -21 c11 -11 18 -27 15 -35 l-5 -14 -156 0 c-116 0
-165 4 -192 15 -19 8 -61 15 -92 15 -67 0 -161 40 -231 99 -58 49 -89 65 -197
100 -48 15 -115 42 -149 59 -90 45 -177 72 -234 72 -28 0 -67 7 -87 15 -21 9
-66 15 -112 15 -77 -1 -91 -5 -188 -65 l-33 -20 0 -104 0 -103 31 -39 c21 -27
43 -42 72 -50 59 -16 112 -44 156 -84 l38 -35 71 0 c39 0 83 -5 99 -12 64 -26
177 -34 295 -23 104 11 132 2 193 -62 30 -31 62 -72 72 -90 l17 -33 -40 -57
-41 -58 -54 -6 c-30 -3 -67 -11 -82 -17 -16 -7 -48 -12 -71 -12 -29 0 -48 -6
-59 -18 -28 -31 -20 -61 27 -108 l43 -44 62 0 c62 0 152 24 220 60 49 25 144
125 171 180 l23 44 -7 76 c-5 60 -3 80 10 98 l15 22 127 0 c82 0 143 -5 172
-14 91 -29 139 -36 165 -26 15 6 63 10 108 10 l82 0 60 -29 c33 -15 96 -53
141 -84 118 -81 215 -127 267 -127 30 0 69 -12 128 -41 46 -22 119 -52 162
-66 60 -19 90 -36 130 -73 78 -71 122 -90 211 -90 41 0 78 -4 81 -10 4 -6 108
-10 280 -10 172 0 276 4 280 10 3 6 20 10 36 10 29 0 96 30 154 69 19 14 46
21 76 21 l46 0 49 53 c58 62 141 167 168 211 10 17 31 49 47 72 35 51 69 151
69 203 0 22 5 43 10 46 13 8 13 282 0 290 -5 3 -10 33 -10 65 l0 59 -41 87
-41 88 15 26 c19 32 7 50 -33 50 -36 0 -67 25 -91 73 -12 23 -37 59 -55 79
-18 20 -42 54 -53 75 -10 21 -53 70 -94 110 -57 54 -77 80 -82 107 -8 39 -28
60 -67 70 -15 3 -35 18 -45 34 -50 76 -265 262 -303 262 -10 0 -28 13 -40 30
-11 16 -88 74 -171 130 -154 103 -218 140 -242 140 -7 0 -26 14 -42 30 -16 17
-36 30 -45 30 -9 0 -27 12 -41 26 -13 14 -50 39 -82 55 -32 16 -74 45 -95 63
-48 43 -120 79 -229 115 -49 15 -116 42 -150 59 -34 18 -122 51 -195 75 -73
25 -161 58 -194 75 -74 37 -174 72 -208 72 -14 0 -28 5 -31 10 -3 6 -28 10
-54 10 l-47 0 -26 -27z m582 -2067 c57 -18 123 -35 175 -45 75 -14 137 -41
211 -91 40 -27 96 -61 123 -75 28 -13 58 -36 68 -50 10 -14 35 -47 56 -73 43
-54 61 -87 82 -157 18 -62 18 -62 -2 -69 -9 -4 -32 4 -54 19 -21 14 -69 35
-106 47 -76 24 -93 34 -93 55 0 19 -119 137 -160 158 -26 13 -46 16 -94 11
-135 -15 -261 1 -343 42 -69 35 -84 54 -103 124 l-13 48 14 17 c40 48 152 66
239 39z m-1747 -91 c20 -8 49 -15 64 -15 29 0 136 -50 162 -75 l14 -14 -28 -7
c-21 -5 -60 4 -143 32 -116 39 -153 65 -122 84 18 12 11 13 53 -5z"/>
</g>
</svg>
