<?xml version="1.0" standalone="no"?>
<!DOCTYPE svg PUBLIC "-//W3C//DTD SVG 20010904//EN"
 "http://www.w3.org/TR/2001/REC-SVG-20010904/DTD/svg10.dtd">
<svg version="1.0" xmlns="http://www.w3.org/2000/svg"
 width="555.000000pt" height="315.000000pt" viewBox="0 0 555.000000 315.000000"
 preserveAspectRatio="xMidYMid meet">
<metadata>
Created by potrace 1.16, written by Peter Selinger 2001-2019
</metadata>
<g transform="translate(0.000000,315.000000) scale(0.100000,-0.100000)"
fill="#000000" stroke="none">
<path d="M3335 3140 c-3 -5 -32 -10 -64 -10 -98 0 -121 -44 -46 -87 29 -16 56
-23 100 -23 l60 0 45 -30 c25 -16 58 -30 73 -30 15 0 44 -7 64 -15 19 -8 47
-15 62 -15 14 0 46 -14 71 -30 25 -16 51 -30 59 -30 8 0 53 -18 100 -41 47
-23 98 -45 112 -49 15 -4 93 -52 173 -105 104 -69 154 -108 171 -135 14 -22
45 -49 73 -65 27 -15 66 -46 86 -70 20 -24 61 -60 90 -80 30 -20 67 -52 82
-73 15 -20 47 -57 71 -82 24 -25 63 -65 87 -90 23 -25 55 -53 69 -63 15 -10
37 -37 48 -60 12 -23 36 -58 54 -77 18 -19 74 -97 124 -172 73 -108 98 -155
121 -228 17 -50 37 -105 45 -121 40 -76 65 -175 65 -254 l0 -81 -35 -72 c-60
-126 -178 -222 -273 -222 -22 0 -56 -7 -75 -15 -51 -21 -303 -21 -354 0 -22 9
-68 15 -122 15 l-86 0 -45 30 c-25 16 -52 30 -60 30 -31 0 -40 23 -40 97 l0
73 -39 79 c-31 61 -54 90 -108 137 -168 146 -207 171 -298 194 l-50 12 -57
-17 c-61 -17 -82 -37 -112 -103 l-19 -41 22 -69 c29 -90 62 -145 140 -237 42
-49 75 -78 94 -83 34 -9 93 -83 84 -105 -3 -8 -42 -26 -87 -41 -44 -14 -97
-37 -118 -51 -20 -14 -49 -25 -63 -25 -15 0 -43 -7 -63 -15 l-37 -16 -517 5
c-284 3 -544 7 -577 9 -76 5 -168 23 -194 36 -11 6 -37 11 -58 11 -21 0 -58 6
-83 14 -98 31 -139 39 -240 45 -58 4 -115 12 -127 19 -12 7 -54 12 -93 12 -40
0 -86 6 -107 15 -19 8 -59 15 -87 15 -53 0 -132 23 -224 66 -29 13 -71 24 -93
24 -22 0 -56 7 -76 15 -19 8 -52 15 -72 15 -38 0 -124 26 -197 60 -56 26 -159
60 -180 60 -41 0 -145 45 -189 81 -26 21 -54 39 -62 39 -8 0 -39 11 -69 25
-94 43 -171 65 -229 65 l-55 0 0 -100 0 -99 30 -16 c16 -8 35 -15 42 -15 7 0
33 -14 58 -30 25 -16 52 -30 60 -30 9 0 32 -11 52 -25 20 -14 70 -35 110 -48
l73 -24 32 -54 c18 -30 48 -67 67 -84 75 -67 69 -105 -19 -105 -29 0 -69 -7
-88 -15 -20 -8 -50 -15 -67 -15 -39 0 -128 -81 -155 -141 l-19 -41 12 -44 c7
-24 12 -53 12 -64 0 -43 51 -119 125 -188 l77 -72 152 0 153 0 12 24 c7 13 32
35 56 50 52 34 84 67 117 126 15 25 38 56 52 69 30 28 32 45 11 94 -8 20 -15
59 -15 86 0 27 -12 87 -26 131 l-27 82 14 9 c22 14 190 10 239 -5 76 -24 132
-37 195 -46 33 -5 92 -20 130 -34 41 -15 92 -26 123 -26 29 0 69 -7 89 -15 20
-8 66 -15 105 -15 38 0 84 -7 105 -15 19 -8 53 -15 75 -15 21 0 55 -7 75 -15
19 -8 60 -15 90 -15 29 0 70 -7 90 -15 19 -8 53 -15 75 -15 21 0 55 -7 75 -15
26 -11 76 -15 194 -15 124 0 168 -4 200 -17 l41 -16 47 16 c58 21 100 21 152
1 l40 -17 55 19 55 18 48 -17 c60 -21 147 -22 194 -2 21 8 67 15 105 15 39 0
85 7 105 15 20 8 47 15 61 15 14 0 54 13 89 30 36 16 77 30 91 30 26 0 153 60
211 99 l30 21 85 0 85 0 45 -30 45 -30 73 0 c42 0 88 -6 109 -15 28 -12 83
-15 259 -15 l224 0 52 25 c29 14 69 30 88 35 19 5 60 25 90 44 30 19 76 46
101 60 52 28 64 41 72 77 4 14 31 54 62 88 30 34 55 70 55 81 0 10 5 22 10 25
6 4 10 73 10 175 0 102 -4 171 -10 175 -5 3 -10 33 -10 66 0 70 -19 114 -85
195 -24 30 -51 75 -58 102 -23 76 -173 292 -264 378 -24 23 -43 50 -43 62 0
27 -47 81 -102 116 -24 15 -58 47 -76 72 -20 27 -41 44 -53 44 -20 0 -52 29
-98 90 -13 17 -42 43 -65 57 -22 15 -78 61 -122 102 -71 67 -125 110 -246 198
-17 13 -46 27 -64 32 -18 5 -46 18 -62 30 -51 36 -210 111 -294 138 -44 14
-116 43 -160 64 -43 22 -90 39 -104 39 -13 0 -41 7 -61 15 -19 8 -55 15 -79
15 -23 0 -46 5 -49 10 -3 6 -28 10 -55 10 -27 0 -52 -4 -55 -10z m643 -2129
c12 -7 22 -18 22 -26 0 -30 -43 -14 -92 34 -39 36 -50 53 -44 66 l7 18 42 -40
c23 -22 52 -46 65 -52z m-3410 -648 c47 -21 102 -72 102 -93 0 -21 -24 -41
-74 -65 l-40 -18 -35 19 c-39 21 -91 87 -91 116 0 11 5 28 10 39 14 24 77 26
128 2z"/>
</g>
</svg>
