<?xml version="1.0" standalone="no"?>
<!DOCTYPE svg PUBLIC "-//W3C//DTD SVG 20010904//EN"
 "http://www.w3.org/TR/2001/REC-SVG-20010904/DTD/svg10.dtd">
<svg version="1.0" xmlns="http://www.w3.org/2000/svg"
 width="432.000000pt" height="312.000000pt" viewBox="0 0 432.000000 312.000000"
 preserveAspectRatio="xMidYMid meet">
<metadata>
Created by potrace 1.16, written by Peter Selinger 2001-2019
</metadata>
<g transform="translate(0.000000,312.000000) scale(0.100000,-0.100000)"
fill="#000000" stroke="none">
<path d="M1760 3089 c0 -45 13 -63 79 -108 40 -27 103 -55 183 -81 68 -22 147
-52 176 -65 29 -14 57 -25 63 -25 17 0 81 -32 114 -56 17 -12 73 -44 125 -70
106 -52 238 -137 302 -194 24 -20 62 -47 85 -59 24 -11 53 -35 65 -52 12 -16
47 -48 78 -71 30 -23 75 -63 99 -90 24 -27 61 -58 84 -69 46 -24 141 -120 191
-194 19 -27 68 -81 110 -119 46 -42 76 -77 76 -89 0 -11 22 -41 49 -67 27 -26
57 -63 67 -81 9 -19 34 -54 55 -79 20 -25 62 -94 93 -155 31 -60 65 -126 75
-145 43 -77 81 -179 81 -214 0 -21 14 -78 31 -128 l32 -91 -13 -52 c-10 -40
-10 -61 -1 -85 21 -62 14 -130 -23 -207 -20 -42 -46 -78 -62 -89 -16 -11 -54
-45 -86 -76 -31 -32 -61 -58 -67 -58 -5 0 -39 -13 -74 -30 l-65 -30 -126 0
c-90 0 -137 4 -163 15 -19 8 -53 15 -75 15 -21 0 -55 7 -75 15 -19 8 -60 15
-91 15 -43 0 -73 8 -141 41 -47 22 -135 57 -196 76 l-110 36 -31 36 c-20 23
-62 50 -115 75 -46 21 -95 43 -109 50 -14 6 -30 25 -35 42 -17 53 -32 64 -91
64 l-53 0 -36 -32 c-20 -17 -48 -54 -62 -82 -33 -67 -49 -84 -100 -107 -52
-23 -158 -26 -210 -4 -19 8 -47 15 -60 15 -14 0 -54 14 -90 30 -35 17 -75 30
-89 30 -14 0 -41 7 -61 15 -19 8 -47 15 -61 15 -14 0 -91 32 -170 70 -79 39
-174 80 -211 92 -36 12 -79 33 -96 48 -16 15 -43 35 -60 43 -120 61 -320 223
-367 297 -8 14 -35 38 -59 53 -25 16 -55 44 -69 63 -13 20 -47 51 -75 69 -37
23 -54 41 -58 61 -3 16 -23 58 -45 94 -21 36 -42 77 -46 92 -3 15 -24 42 -46
59 -22 18 -40 40 -40 50 0 20 -43 75 -70 89 -11 6 -30 5 -53 -2 l-37 -11 0
-83 0 -83 23 -36 c12 -20 37 -59 56 -88 18 -29 41 -68 51 -88 10 -19 26 -42
36 -50 9 -8 35 -39 56 -69 71 -98 393 -420 421 -420 11 0 39 -20 61 -44 40
-43 92 -76 119 -76 8 0 33 -15 57 -32 95 -72 166 -118 180 -118 8 0 57 -20
108 -45 52 -25 99 -45 106 -45 6 0 28 -11 47 -24 40 -27 146 -66 180 -66 11 0
50 -13 86 -30 35 -16 75 -30 89 -30 14 0 41 -7 61 -15 50 -21 316 -21 366 0
20 8 49 15 65 15 16 0 47 13 68 28 21 15 56 36 77 46 l38 17 60 -21 c34 -11
77 -32 97 -45 20 -14 43 -25 52 -25 8 0 57 -20 108 -45 52 -25 99 -45 105 -45
7 0 54 -20 105 -45 52 -25 104 -45 115 -45 12 0 42 -6 67 -14 98 -31 138 -39
215 -43 44 -2 84 -9 90 -14 12 -12 282 -12 290 1 3 6 40 10 81 10 l76 0 71 36
c40 20 86 46 102 58 17 13 49 33 71 44 27 14 60 46 94 92 30 40 59 70 69 70
26 0 44 27 66 95 10 33 22 64 27 69 12 14 10 344 -2 351 -5 3 -10 18 -10 33
-1 40 -74 244 -151 423 -16 36 -29 71 -29 77 0 7 -31 75 -70 151 -51 103 -79
147 -105 166 -20 16 -35 36 -35 48 0 12 -28 48 -68 87 -38 37 -85 93 -106 124
-23 35 -52 64 -75 76 -46 23 -179 154 -245 239 -26 33 -51 61 -55 61 -4 0 -34
24 -67 54 -32 29 -73 60 -90 69 -17 9 -66 50 -110 92 -45 44 -104 90 -137 106
-32 16 -74 44 -95 62 -20 18 -64 41 -97 52 -33 10 -73 31 -90 46 -39 35 -116
73 -212 104 -98 32 -170 66 -224 105 -23 16 -55 30 -70 30 -16 0 -46 6 -66 14
-21 8 -55 17 -76 20 -20 2 -50 14 -66 25 l-29 21 -86 0 -86 0 0 -31z"/>
</g>
</svg>
