<?xml version="1.0" standalone="no"?>
<!DOCTYPE svg PUBLIC "-//W3C//DTD SVG 20010904//EN"
 "http://www.w3.org/TR/2001/REC-SVG-20010904/DTD/svg10.dtd">
<svg version="1.0" xmlns="http://www.w3.org/2000/svg"
 width="348.000000pt" height="609.000000pt" viewBox="0 0 348.000000 609.000000"
 preserveAspectRatio="xMidYMid meet">
<metadata>
Created by potrace 1.16, written by Peter Selinger 2001-2019
</metadata>
<g transform="translate(0.000000,609.000000) scale(0.100000,-0.100000)"
fill="#000000" stroke="none">
<path d="M23 6076 c-18 -8 -23 -19 -23 -48 l0 -37 30 -16 c16 -8 48 -15 72
-15 26 0 66 -11 103 -28 33 -16 71 -32 85 -35 14 -3 47 -24 74 -47 26 -22 55
-40 63 -40 26 0 86 -32 133 -70 48 -39 120 -80 142 -80 8 0 54 -27 103 -60 50
-33 96 -60 103 -60 27 0 122 -50 159 -83 21 -19 52 -42 69 -50 60 -31 169
-109 224 -161 30 -29 74 -65 97 -80 51 -34 151 -137 185 -191 14 -22 45 -53
69 -68 40 -26 120 -129 159 -207 7 -14 33 -45 57 -70 100 -101 183 -202 192
-235 5 -19 26 -54 46 -77 19 -23 38 -54 42 -68 3 -14 18 -45 33 -70 15 -25 30
-56 33 -70 4 -14 24 -55 47 -92 22 -37 40 -71 40 -77 0 -5 13 -38 30 -73 l30
-63 0 -137 c0 -137 -4 -168 -22 -168 -5 0 -43 22 -83 50 -41 27 -93 59 -116
70 -23 12 -60 35 -82 51 l-40 29 -67 0 -68 0 -61 -45 -61 -45 0 -105 c0 -117
22 -204 66 -262 28 -36 84 -151 84 -171 0 -20 34 -83 95 -174 30 -45 55 -91
55 -101 0 -10 19 -39 43 -65 62 -67 77 -92 77 -128 0 -18 12 -47 29 -71 16
-23 41 -64 55 -91 14 -28 42 -63 61 -78 27 -20 35 -34 35 -59 0 -31 29 -74
136 -199 18 -21 36 -52 40 -70 11 -51 44 -108 95 -164 27 -29 52 -68 57 -86 5
-18 36 -71 67 -117 65 -95 85 -136 85 -176 0 -26 33 -80 118 -193 17 -24 32
-49 32 -56 0 -7 34 -81 75 -165 l75 -151 0 -58 c0 -44 7 -74 30 -122 l30 -63
0 -89 0 -89 -45 -41 c-34 -32 -45 -49 -45 -72 0 -35 -15 -58 -88 -139 -76 -82
-85 -88 -171 -96 -68 -6 -103 -13 -190 -37 -13 -4 -30 -17 -39 -30 l-15 -22
37 -35 37 -35 120 0 120 0 52 39 c29 21 73 48 97 61 144 73 222 155 244 256 4
18 22 49 40 70 18 22 40 54 49 73 19 37 23 146 7 156 -5 3 -10 31 -10 60 0 65
-78 308 -140 436 -22 46 -40 90 -40 98 0 9 -14 36 -30 61 -16 25 -30 51 -30
59 0 8 -13 35 -29 60 -16 25 -31 57 -34 71 -4 14 -22 50 -41 80 -19 30 -47 77
-62 105 -14 27 -51 85 -81 128 -29 44 -63 97 -73 118 -11 21 -45 75 -75 121
-30 45 -55 90 -55 99 0 10 -15 36 -34 58 -60 72 -128 181 -142 228 -8 28 -32
65 -59 94 -29 31 -45 57 -45 74 0 34 -53 138 -100 195 -45 55 -100 142 -100
159 0 20 -79 164 -115 209 -19 24 -35 55 -35 69 0 14 -6 46 -14 72 -23 75 -37
142 -30 152 3 5 22 -4 42 -21 20 -16 41 -30 47 -30 24 0 85 -52 85 -72 0 -13
18 -39 44 -63 33 -30 45 -50 48 -75 2 -26 11 -40 37 -57 57 -38 79 -39 140 -7
44 23 62 40 83 79 15 28 28 63 28 78 0 15 7 44 15 64 20 47 20 170 0 217 l-16
37 12 39 c9 31 9 49 1 79 -7 21 -12 54 -12 73 0 20 -7 52 -15 71 -8 20 -15 52
-15 72 0 37 -30 137 -57 190 -9 16 -33 50 -54 75 -20 25 -54 79 -74 120 -21
41 -56 95 -80 120 -23 25 -50 59 -60 75 -11 17 -41 54 -68 84 -26 30 -59 76
-73 103 -14 27 -44 74 -67 105 -61 80 -236 261 -279 289 -21 13 -49 42 -63 64
-14 22 -39 46 -55 55 -17 9 -71 53 -120 98 -108 100 -184 158 -242 188 -23 12
-56 32 -73 44 -16 13 -52 35 -80 49 -27 15 -75 43 -105 62 -30 19 -71 39 -90
44 -49 13 -133 55 -182 90 -22 17 -47 30 -55 30 -30 0 -103 42 -154 88 -62 57
-126 92 -166 92 -15 0 -48 14 -73 30 -34 23 -57 30 -92 30 -26 0 -50 5 -53 10
-8 13 -154 10 -182 -4z"/>
</g>
</svg>
