<?xml version="1.0" standalone="no"?>
<!DOCTYPE svg PUBLIC "-//W3C//DTD SVG 20010904//EN"
 "http://www.w3.org/TR/2001/REC-SVG-20010904/DTD/svg10.dtd">
<svg version="1.0" xmlns="http://www.w3.org/2000/svg"
 width="414.000000pt" height="528.000000pt" viewBox="0 0 414.000000 528.000000"
 preserveAspectRatio="xMidYMid meet">
<metadata>
Created by potrace 1.16, written by Peter Selinger 2001-2019
</metadata>
<g transform="translate(0.000000,528.000000) scale(0.100000,-0.100000)"
fill="#000000" stroke="none">
<path d="M1294 5245 c-9 -48 8 -65 63 -65 29 0 68 -11 110 -30 35 -16 76 -30
90 -30 13 0 54 -13 90 -30 35 -16 70 -30 76 -30 7 0 29 -11 48 -24 41 -28 146
-66 181 -66 28 0 57 -18 120 -77 26 -24 55 -43 65 -43 36 -1 206 -104 248
-150 10 -11 35 -25 56 -30 21 -6 61 -32 91 -59 29 -26 76 -60 104 -74 28 -14
75 -48 105 -75 30 -26 74 -60 99 -74 55 -32 122 -102 149 -157 13 -25 41 -53
73 -75 60 -40 451 -429 495 -492 38 -55 90 -124 136 -182 21 -26 40 -58 44
-72 3 -14 28 -70 56 -125 51 -104 84 -191 98 -260 4 -22 15 -66 25 -98 30 -98
25 -97 -231 40 l-80 42 -66 1 c-72 0 -82 -6 -114 -69 -23 -46 -16 -94 46 -286
20 -62 29 -112 29 -155 l0 -65 -30 -45 c-16 -25 -30 -53 -30 -62 0 -21 -44
-53 -92 -66 -21 -6 -50 -19 -66 -31 -16 -11 -76 -36 -134 -56 l-105 -35 -30
10 c-20 8 -38 8 -57 0 -15 -5 -71 -10 -125 -10 -65 0 -111 -5 -134 -15 -25
-10 -72 -15 -150 -15 -79 0 -126 -5 -150 -15 -48 -20 -156 -19 -207 1 l-41 16
-43 -12 -44 -12 -38 26 -39 26 -133 0 c-95 0 -143 4 -169 15 -19 8 -54 15 -77
15 -29 0 -54 9 -86 30 -31 21 -57 30 -85 30 -23 0 -79 13 -125 30 -53 18 -105
30 -138 30 -38 0 -73 9 -119 30 -35 16 -70 30 -76 30 -7 0 -54 20 -105 45 -52
25 -99 45 -105 45 -7 0 -54 20 -105 45 -52 25 -98 45 -104 45 -5 0 -39 14 -75
30 -35 17 -76 30 -91 30 -15 0 -40 9 -57 21 -65 44 -186 99 -218 99 -21 0 -48
-11 -75 -31 l-42 -31 0 -35 0 -34 49 -48 c27 -26 61 -72 76 -102 15 -30 56
-84 90 -120 40 -43 67 -82 76 -110 10 -30 25 -51 49 -67 60 -39 89 -72 100
-112 7 -24 24 -50 50 -71 22 -19 88 -82 147 -141 101 -100 128 -131 243 -288
81 -110 142 -179 236 -268 34 -31 73 -80 87 -109 16 -30 43 -63 66 -79 21 -16
49 -44 62 -64 26 -40 100 -124 224 -255 129 -137 235 -257 235 -267 0 -5 28
-39 63 -76 34 -37 84 -99 110 -138 26 -39 63 -84 82 -98 19 -15 38 -39 41 -54
4 -15 18 -46 33 -69 l26 -42 76 -1 77 0 6 25 c11 45 -61 167 -181 304 -21 23
-51 62 -68 85 -16 24 -45 62 -63 86 -17 24 -32 52 -32 62 0 10 -28 50 -62 87
-35 38 -79 86 -98 107 -20 22 -50 52 -68 68 -18 16 -45 52 -59 80 -14 28 -54
81 -89 118 -41 44 -67 81 -74 107 -7 26 -24 50 -51 72 -78 66 -211 211 -253
277 -14 23 -36 48 -49 57 -13 8 -43 42 -68 76 -24 33 -64 76 -90 95 -25 18
-59 53 -75 76 -15 24 -40 57 -55 74 -14 17 -51 69 -82 116 -31 47 -83 110
-116 140 l-61 55 0 31 c0 22 -11 44 -35 71 -19 21 -35 41 -35 45 0 13 42 5 96
-19 31 -14 75 -25 98 -25 40 0 77 -16 170 -73 66 -41 173 -77 230 -77 31 0
101 -17 185 -44 148 -48 201 -63 273 -76 26 -5 56 -13 67 -19 11 -6 81 -11
166 -11 107 0 155 -4 182 -15 52 -22 494 -22 546 0 25 10 72 15 150 15 79 0
126 5 150 15 22 9 68 15 117 15 l80 0 103 34 c56 19 127 46 157 60 30 14 69
26 86 26 21 0 50 15 95 49 112 87 149 123 195 191 l44 66 0 76 c0 45 -6 90
-15 111 -18 43 -20 117 -3 117 14 0 108 -45 128 -62 9 -7 29 -30 45 -51 28
-38 127 -97 161 -97 9 0 34 5 55 12 l39 11 0 193 c0 118 -4 195 -10 199 -5 3
-10 19 -10 34 0 16 -7 45 -15 64 -9 21 -15 67 -15 107 0 73 -16 119 -64 185
-20 27 -53 83 -99 170 -8 17 -23 49 -32 71 -9 23 -44 68 -76 100 -32 33 -59
67 -59 76 0 10 -24 36 -54 58 -30 22 -66 60 -82 83 -15 23 -101 116 -190 207
-89 91 -173 184 -188 207 -14 23 -36 47 -48 54 -38 19 -129 91 -175 138 -23
24 -66 61 -95 82 -29 22 -65 55 -81 74 -17 22 -43 39 -68 45 -26 7 -63 33
-107 73 -94 88 -304 227 -342 227 -6 0 -41 18 -78 40 -36 22 -82 45 -102 50
-19 5 -59 21 -88 35 -28 14 -57 25 -63 25 -5 0 -35 11 -64 25 -30 13 -103 40
-162 60 -59 19 -116 40 -125 45 -10 6 -92 10 -182 10 l-165 0 -7 -35z"/>
</g>
</svg>
