<?xml version="1.0" standalone="no"?>
<!DOCTYPE svg PUBLIC "-//W3C//DTD SVG 20010904//EN"
 "http://www.w3.org/TR/2001/REC-SVG-20010904/DTD/svg10.dtd">
<svg version="1.0" xmlns="http://www.w3.org/2000/svg"
 width="387.000000pt" height="336.000000pt" viewBox="0 0 387.000000 336.000000"
 preserveAspectRatio="xMidYMid meet">
<metadata>
Created by potrace 1.16, written by Peter Selinger 2001-2019
</metadata>
<g transform="translate(0.000000,336.000000) scale(0.100000,-0.100000)"
fill="#000000" stroke="none">
<path d="M1195 3327 c21 -18 60 -51 86 -75 27 -24 66 -48 93 -56 25 -8 90 -44
144 -80 71 -48 107 -66 131 -66 33 0 64 -25 102 -81 9 -13 50 -41 92 -61 41
-21 106 -59 143 -84 38 -26 92 -61 119 -77 28 -16 72 -53 98 -83 34 -38 60
-57 88 -64 26 -7 63 -33 107 -73 37 -35 79 -70 93 -79 82 -52 304 -283 316
-329 6 -20 29 -47 73 -82 62 -50 85 -77 199 -226 30 -39 69 -81 87 -93 32 -22
48 -46 72 -110 6 -14 33 -41 61 -59 27 -18 56 -47 64 -64 8 -16 24 -52 36 -79
12 -27 39 -69 60 -95 49 -59 106 -172 142 -283 16 -49 40 -105 54 -126 l26
-39 1 -170 2 -171 -19 -28 c-23 -37 -39 -49 -94 -75 l-44 -21 -41 16 c-23 9
-72 16 -109 16 -38 0 -84 7 -104 15 -26 11 -74 15 -180 15 -105 0 -153 4 -180
15 -19 8 -53 15 -75 15 -21 0 -55 7 -75 15 l-35 15 -514 0 -514 0 -40 -36
c-46 -42 -49 -61 -20 -129 11 -26 20 -53 20 -61 l0 -14 -165 0 c-125 0 -175 4
-202 15 -24 10 -71 15 -150 15 -78 0 -125 5 -150 15 -22 9 -67 15 -120 15 -52
0 -97 6 -120 15 -26 11 -76 15 -195 15 -118 0 -168 4 -195 15 -26 11 -76 15
-199 15 l-164 0 0 -38 0 -37 49 -18 c27 -9 65 -17 85 -17 20 0 53 -7 73 -15
24 -10 71 -15 150 -15 78 0 125 -5 150 -15 20 -8 66 -15 105 -15 38 0 84 -7
105 -15 23 -10 69 -15 135 -15 65 0 111 -5 135 -15 22 -9 67 -15 120 -15 52 0
97 -6 120 -15 22 -9 67 -15 120 -15 52 0 97 -6 120 -15 19 -8 65 -15 102 -15
46 0 88 -8 141 -27 59 -21 100 -28 195 -32 l120 -6 32 -23 31 -22 75 0 c42 0
79 4 82 10 3 5 15 10 26 10 30 0 79 53 79 85 0 38 -50 85 -90 85 -17 0 -47 7
-67 15 -19 8 -60 15 -91 15 l-55 0 -51 32 c-144 89 -140 128 13 128 51 0 96
-6 121 -16 31 -13 59 -15 127 -10 106 8 95 8 313 -2 108 -4 183 -12 197 -20
14 -8 63 -12 138 -12 80 0 127 -5 152 -15 20 -8 66 -15 105 -15 38 0 84 -7
105 -15 19 -8 59 -15 87 -15 28 0 71 -6 96 -14 88 -28 136 -38 192 -43 l57 -5
52 48 c63 60 99 128 99 188 0 25 5 48 10 51 13 8 13 252 0 260 -6 3 -10 48
-10 99 l0 93 -28 39 c-38 53 -55 99 -48 128 4 16 -2 35 -19 61 -14 20 -36 58
-50 83 -23 45 -54 90 -122 182 -18 24 -33 51 -33 61 0 11 -34 56 -75 100 -41
45 -75 86 -75 90 0 5 -34 46 -75 90 -41 45 -75 86 -75 90 0 5 -34 46 -75 90
-41 45 -75 86 -75 91 0 5 -29 39 -63 76 -35 37 -72 80 -81 95 -10 15 -48 49
-85 76 -47 35 -76 66 -95 101 -17 32 -43 61 -68 77 -23 14 -72 53 -109 87 -78
70 -141 119 -254 194 -44 30 -91 64 -105 76 -34 30 -290 200 -337 224 -21 11
-49 22 -63 25 -14 4 -43 22 -65 40 -45 39 -164 101 -212 111 -18 4 -49 19 -70
33 -21 14 -67 43 -102 64 l-63 39 -87 -1 -86 0 40 -32z"/>
</g>
</svg>
