<?xml version="1.0" standalone="no"?>
<!DOCTYPE svg PUBLIC "-//W3C//DTD SVG 20010904//EN"
 "http://www.w3.org/TR/2001/REC-SVG-20010904/DTD/svg10.dtd">
<svg version="1.0" xmlns="http://www.w3.org/2000/svg"
 width="375.000000pt" height="318.000000pt" viewBox="0 0 375.000000 318.000000"
 preserveAspectRatio="xMidYMid meet">
<metadata>
Created by potrace 1.16, written by Peter Selinger 2001-2019
</metadata>
<g transform="translate(0.000000,318.000000) scale(0.100000,-0.100000)"
fill="#000000" stroke="none">
<path d="M1050 3140 c-16 -48 -5 -80 36 -106 l26 -18 44 12 c32 9 57 9 92 1
85 -19 156 -42 217 -69 33 -15 71 -30 85 -33 14 -4 47 -24 74 -47 26 -22 55
-40 63 -40 20 0 82 -29 118 -56 17 -12 66 -40 110 -63 44 -22 106 -62 139 -88
70 -57 125 -93 146 -93 9 0 33 -20 53 -45 21 -25 76 -70 122 -100 46 -31 93
-69 105 -84 11 -16 57 -54 103 -85 86 -58 175 -142 224 -212 15 -22 43 -60 61
-84 17 -24 32 -50 32 -59 0 -8 21 -36 46 -61 96 -95 183 -201 193 -235 5 -19
27 -56 49 -82 22 -26 57 -82 77 -123 20 -41 47 -89 60 -105 37 -50 96 -175
126 -268 16 -48 36 -101 44 -118 12 -23 14 -47 9 -111 l-7 -82 -24 -24 -25
-24 -41 7 c-82 15 -172 6 -280 -27 -91 -28 -131 -56 -135 -93 -4 -37 -40 -145
-54 -162 -25 -30 -68 0 -131 91 -10 14 -34 30 -55 36 -21 5 -56 24 -78 42 -58
49 -123 92 -179 121 -28 13 -78 50 -113 81 -34 31 -71 56 -81 56 -9 0 -28 12
-42 26 -13 14 -41 35 -63 46 -21 11 -57 33 -79 49 -22 16 -47 29 -54 29 -20 0
-82 29 -118 56 -35 26 -170 94 -185 94 -29 0 -101 44 -128 77 l-30 38 -79 24
c-43 13 -90 31 -104 40 -14 9 -47 29 -73 44 -61 38 -171 77 -219 77 -21 0 -54
7 -74 15 -19 8 -45 15 -57 15 -12 0 -60 13 -106 30 -53 18 -105 30 -138 30
-39 0 -73 9 -120 31 l-67 30 -65 -4 c-64 -4 -96 -11 -218 -48 -92 -28 -118
-44 -204 -123 l-77 -71 -1 -53 0 -52 26 -10 c33 -13 71 7 144 73 30 28 87 65
126 84 l72 33 96 0 c63 0 109 -5 133 -15 19 -8 53 -15 75 -15 22 0 64 -12 95
-26 72 -33 208 -74 308 -93 91 -18 217 -71 286 -121 25 -18 54 -30 72 -30 46
0 151 -56 182 -96 24 -31 109 -84 136 -84 22 0 85 -34 129 -70 48 -39 120 -80
143 -80 7 0 71 -38 141 -85 70 -47 141 -92 158 -101 16 -8 46 -30 66 -48 20
-18 49 -36 64 -40 15 -3 61 -36 102 -74 41 -37 103 -87 136 -112 34 -25 86
-64 115 -87 29 -23 72 -51 95 -63 23 -12 59 -34 80 -49 20 -14 57 -35 81 -45
24 -10 52 -22 61 -27 23 -12 345 -12 352 0 3 4 18 11 34 14 29 6 124 104 190
196 l32 44 0 108 c0 61 4 110 10 114 14 9 13 462 -1 470 -13 9 -129 243 -129
262 0 21 -33 82 -95 175 -30 45 -55 90 -55 99 0 10 -15 36 -34 58 -19 23 -56
74 -82 114 -26 39 -70 96 -96 126 -27 30 -60 75 -73 100 -20 40 -118 146 -284
306 -17 17 -64 65 -104 109 -39 43 -90 90 -112 104 -22 14 -67 51 -100 82 -33
32 -74 65 -92 74 -17 8 -53 34 -79 57 -26 23 -92 70 -145 105 -53 35 -116 80
-139 99 -23 19 -49 35 -57 35 -24 0 -82 31 -163 86 -106 72 -153 94 -202 94
-33 0 -49 6 -73 29 -32 31 -143 91 -169 91 -8 0 -18 5 -21 10 -4 6 -78 10
-189 10 l-183 0 -13 -40z m2358 -2698 l32 -23 0 -57 c0 -65 -26 -131 -61 -156
-16 -11 -45 -16 -96 -16 l-72 0 -23 33 -23 32 -4 82 -3 82 27 26 26 27 82 -3
82 -4 33 -23z"/>
</g>
</svg>
