<?xml version="1.0" standalone="no"?>
<!DOCTYPE svg PUBLIC "-//W3C//DTD SVG 20010904//EN"
 "http://www.w3.org/TR/2001/REC-SVG-20010904/DTD/svg10.dtd">
<svg version="1.0" xmlns="http://www.w3.org/2000/svg"
 width="279.000000pt" height="321.000000pt" viewBox="0 0 279.000000 321.000000"
 preserveAspectRatio="xMidYMid meet">
<metadata>
Created by potrace 1.16, written by Peter Selinger 2001-2019
</metadata>
<g transform="translate(0.000000,321.000000) scale(0.100000,-0.100000)"
fill="#000000" stroke="none">
<path d="M0 3174 c0 -44 39 -98 91 -124 57 -30 233 -80 277 -80 10 0 48 -20
85 -45 76 -51 140 -85 159 -85 27 0 154 -69 202 -109 26 -23 55 -41 64 -41 19
0 100 -50 162 -99 25 -20 65 -50 89 -66 25 -17 68 -54 97 -82 l52 -53 35 0
c28 0 40 -6 57 -30 12 -17 60 -56 108 -87 47 -32 110 -78 138 -103 28 -25 70
-57 92 -72 22 -15 56 -51 75 -80 38 -57 61 -81 118 -118 20 -13 46 -39 59 -59
13 -20 67 -81 121 -136 92 -94 189 -224 189 -253 0 -22 41 -94 80 -142 37 -46
70 -107 70 -132 0 -7 11 -30 24 -49 33 -48 66 -144 66 -190 0 -20 7 -53 15
-72 22 -53 20 -169 -3 -197 l-19 -23 -68 18 c-38 11 -92 35 -124 57 -65 44
-102 48 -164 17 -92 -46 -131 -106 -140 -214 -8 -103 28 -205 106 -298 l40
-49 -14 -9 c-8 -5 -26 -9 -40 -9 -15 0 -43 -7 -62 -15 -51 -21 -333 -21 -384
0 -25 11 -72 15 -162 15 l-126 0 -120 40 c-66 23 -139 54 -162 71 -24 16 -64
36 -90 44 -55 16 -143 69 -143 86 0 6 14 40 30 76 36 77 36 82 9 136 -52 101
-105 166 -179 217 -108 73 -144 83 -335 91 -55 3 -130 -20 -152 -45 l-23 -27
0 -68 0 -67 33 -47 c55 -77 167 -197 210 -224 22 -14 71 -54 108 -89 38 -35
77 -64 87 -64 11 0 88 -34 171 -75 84 -41 164 -75 179 -75 15 0 41 -9 57 -21
53 -36 124 -69 148 -69 24 0 122 -32 134 -43 3 -4 241 -7 528 -7 l522 0 18 20
c9 10 40 31 67 45 66 34 157 97 185 127 25 27 93 224 93 271 0 32 30 130 43
144 11 10 8 71 -3 78 -6 4 -10 71 -10 169 0 123 -4 173 -15 199 -8 20 -15 49
-15 65 0 16 -13 47 -28 68 -16 21 -52 86 -80 143 -31 62 -73 126 -103 159 -27
30 -61 76 -74 103 -14 26 -38 57 -54 68 -16 12 -51 54 -77 94 -26 39 -80 106
-119 147 -39 41 -80 89 -90 105 -29 47 -57 75 -100 103 -22 14 -67 51 -100 82
-33 30 -78 68 -100 83 -22 14 -62 49 -90 77 -31 31 -64 54 -87 60 -20 6 -61
32 -90 59 -29 26 -72 58 -94 69 -51 26 -168 105 -212 143 -23 21 -43 29 -69
29 l-36 0 -41 44 c-26 28 -73 60 -131 89 -50 25 -131 72 -180 106 -60 41 -100
61 -120 61 -16 0 -48 12 -70 25 -22 14 -49 25 -60 25 -11 0 -38 14 -59 30 -22
17 -49 30 -61 30 -11 0 -31 8 -45 17 -22 15 -45 21 -152 39 -21 4 -43 13 -49
20 -8 10 -36 14 -90 14 l-79 0 0 -36z m535 -2450 c45 -21 117 -117 119 -158
l1 -31 -23 -3 c-17 -3 -43 17 -107 82 -47 46 -85 91 -85 99 0 29 46 34 95 11z
m1772 -195 c64 -41 133 -112 133 -136 0 -43 -60 -103 -103 -103 -24 0 -95 76
-117 124 -30 67 -23 156 13 156 7 0 40 -18 74 -41z"/>
</g>
</svg>
