<?xml version="1.0" encoding="UTF-8" standalone="no"?>
<!-- Created with Inkscape (http://www.inkscape.org/) -->

<svg
   width="73.032722mm"
   height="106.47751mm"
   viewBox="0 0 73.032722 106.47751"
   version="1.1"
   id="svg1"
   xml:space="preserve"
   xmlns="http://www.w3.org/2000/svg"
   xmlns:svg="http://www.w3.org/2000/svg"><defs
     id="defs1" /><g
     id="layer1"
     transform="translate(-70.587118,-64.565156)"><path
       style="fill:#000000"
       d="m 132.9352,170.66247 c -0.37366,-0.2032 -2.10006,-2.42829 -3.83646,-4.94464 -3.89223,-5.64056 -5.42233,-7.58915 -9.48924,-12.08462 -4.81241,-5.31953 -5.39224,-6.04996 -9.84447,-12.40136 l -4.11932,-5.87649 -0.84068,0.89139 c -0.56227,0.59618 -1.34092,1.0368 -2.35117,1.33049 l -1.51049,0.43911 1.02639,1.51142 c 3.19423,4.70372 5.22559,8.50694 6.23933,11.6816 0.94364,2.95512 0.9914,5.08846 0.14563,6.50418 -2.22252,3.72019 -5.33794,4.66823 -8.488722,2.58314 l -1.001449,-0.66273 0.521506,-0.88389 c 0.287793,-0.48777 0.878965,-1.00849 1.319135,-1.16194 0.68732,-0.2396 0.98729,-0.17166 2.16913,0.4913 0.75433,0.42315 1.71762,0.80666 2.14065,0.85226 0.65863,0.071 0.80078,-0.0311 0.98946,-0.71086 0.44216,-1.59294 -0.81547,-6.1226 -2.63803,-9.50151 -3.02508,-5.60831 -7.239547,-11.42595 -11.385859,-15.71701 l -2.381224,-2.46435 0.527657,-0.89432 c 0.333866,-0.56586 0.8689,-1.00693 1.456793,-1.20095 l 0.929135,-0.30664 2.426882,2.50633 c 1.950642,2.0145 2.816288,2.69613 4.411258,3.47351 1.091408,0.53196 2.444328,1.04149 3.006488,1.13231 l 1.02211,0.16512 -0.1932,-1.16395 c -0.26163,-1.5761 -1.13703,-3.85242 -2.60577,-6.77575 l -1.224291,-2.4368 0.540174,-0.91552 c 0.311787,-0.52844 0.888137,-1.03683 1.363157,-1.20242 0.45263,-0.15779 0.84471,-0.25659 0.87127,-0.21955 0.0266,0.037 0.9702,1.73421 2.09698,3.7715 1.12678,2.03729 2.65707,4.53761 3.40065,5.55625 0.74358,1.01865 3.0669,4.29287 5.16293,7.27604 4.2771,6.08739 4.92014,6.89567 9.57214,12.03185 4.13952,4.57037 5.69943,6.55384 9.62045,12.23272 1.72262,2.49491 3.28853,4.59625 3.47979,4.66964 0.72152,0.27688 4.06246,-9.30892 4.92039,-14.11754 0.43631,-2.44549 0.4371,-9.61742 0.001,-12.7 -1.48164,-10.48263 -5.95115,-20.36335 -14.5881,-32.24987 -3.83134,-5.27284 -6.75477,-8.59855 -12.71947,-14.46975 C 104.9169,86.666875 101.73002,84.105625 93.001042,78.564518 82.492848,71.893972 76.272367,68.47408 72.540154,67.315543 l -1.953028,-0.60625 0.508753,-0.862273 c 0.810879,-1.374338 1.950203,-1.608171 4.243212,-0.87087 3.729539,1.199207 9.949984,4.632041 20.307784,11.207118 6.096535,3.870046 8.290965,5.44044 12.010055,8.594731 3.87559,3.287019 12.8375,12.129555 15.87208,15.660671 5.10308,5.93805 10.91387,14.55932 13.8009,20.47591 4.68609,9.60354 6.29263,16.02348 6.28993,25.13542 -0.001,3.61444 -0.11578,5.04359 -0.58401,7.27604 -1.09556,5.22354 -3.66482,11.9942 -5.73053,15.10148 -1.01384,1.52503 -1.36678,1.84671 -2.41983,2.20552 -0.67807,0.23105 -1.24142,0.41532 -1.25187,0.40949 -0.0105,-0.006 -0.32474,-0.17685 -0.6984,-0.38006 z"
       id="path1" /></g></svg>
