<?xml version="1.0" standalone="no"?>
<!DOCTYPE svg PUBLIC "-//W3C//DTD SVG 20010904//EN"
 "http://www.w3.org/TR/2001/REC-SVG-20010904/DTD/svg10.dtd">
<svg version="1.0" xmlns="http://www.w3.org/2000/svg"
 width="255.000000pt" height="336.000000pt" viewBox="0 0 255.000000 336.000000"
 preserveAspectRatio="xMidYMid meet">
<metadata>
Created by potrace 1.16, written by Peter Selinger 2001-2019
</metadata>
<g transform="translate(0.000000,336.000000) scale(0.100000,-0.100000)"
fill="#000000" stroke="none">
<path d="M37 3332 l-37 -25 0 -54 0 -53 101 0 101 0 63 -29 c35 -16 82 -43
106 -60 23 -17 49 -31 58 -31 34 -1 206 -105 246 -150 10 -11 35 -25 56 -30
22 -6 46 -22 56 -36 42 -60 68 -86 116 -119 62 -40 489 -462 522 -514 12 -20
39 -48 58 -61 20 -14 48 -44 64 -68 15 -25 48 -63 74 -86 26 -22 57 -59 70
-81 13 -22 45 -64 72 -94 26 -30 59 -76 73 -104 39 -76 102 -164 135 -188 21
-15 29 -29 29 -50 0 -16 21 -70 46 -121 36 -71 43 -93 32 -99 -19 -13 -112
-11 -145 3 -24 10 -169 28 -238 29 -45 1 -133 -14 -188 -32 -99 -33 -227 -133
-227 -177 0 -10 -11 -34 -24 -53 -45 -66 -66 -149 -66 -257 0 -66 5 -112 15
-135 8 -20 15 -55 15 -77 0 -22 10 -60 22 -83 12 -23 26 -59 32 -79 13 -43
159 -207 218 -244 21 -13 63 -47 93 -74 l55 -50 43 0 c39 0 138 -28 154 -43
10 -11 221 -8 228 3 3 5 19 10 34 10 16 0 45 7 64 15 20 8 50 15 67 15 24 0
45 12 88 54 31 30 76 69 100 88 33 25 48 46 62 88 11 30 19 64 20 75 0 23 33
121 43 132 11 10 8 131 -3 138 -5 3 -10 32 -10 64 0 32 -7 75 -15 94 -8 20
-15 52 -15 72 0 46 -65 238 -96 284 -13 20 -24 46 -24 59 0 56 -104 291 -164
372 -15 19 -33 57 -41 83 -9 32 -32 68 -65 104 -28 31 -63 79 -77 107 -14 28
-51 78 -82 111 -32 33 -66 74 -76 90 -10 17 -44 57 -75 90 -31 33 -68 78 -82
100 -14 22 -42 56 -63 75 -20 19 -52 56 -71 81 -18 25 -52 59 -74 74 -22 15
-56 49 -75 75 -19 26 -52 59 -74 75 -22 15 -59 51 -81 81 -22 30 -48 54 -56
54 -27 0 -68 30 -97 71 -16 22 -50 50 -76 64 -27 13 -72 46 -102 73 -30 27
-73 59 -95 70 -23 12 -77 46 -121 75 -108 75 -155 97 -204 97 -44 0 -96 20
-146 58 -17 13 -49 28 -70 34 -21 6 -50 19 -65 29 -20 15 -42 19 -100 18 l-73
-1 -38 -26z m1730 -2187 c19 -8 45 -15 56 -15 11 0 50 -10 85 -22 l64 -22 87
-79 c103 -95 121 -124 121 -195 0 -63 -19 -101 -64 -128 l-30 -18 -205 2
c-140 2 -208 -1 -217 -9 -26 -22 -15 -54 36 -104 l50 -50 83 -8 c45 -5 111 -9
147 -9 84 0 260 17 284 27 20 9 36 -8 36 -40 0 -30 -54 -138 -100 -199 -31
-42 -57 -63 -104 -86 -71 -34 -92 -36 -143 -15 -19 8 -45 15 -57 15 -31 0
-135 38 -168 62 -16 11 -44 24 -63 29 -39 11 -128 89 -168 146 -14 21 -44 92
-66 158 l-41 120 0 79 0 79 31 71 c66 152 54 141 202 192 111 39 100 37 144
19z"/>
</g>
</svg>
