<?xml version="1.0" standalone="no"?>
<!DOCTYPE svg PUBLIC "-//W3C//DTD SVG 20010904//EN"
 "http://www.w3.org/TR/2001/REC-SVG-20010904/DTD/svg10.dtd">
<svg version="1.0" xmlns="http://www.w3.org/2000/svg"
 width="822.000000pt" height="216.000000pt" viewBox="0 0 822.000000 216.000000"
 preserveAspectRatio="xMidYMid meet">
<metadata>
Created by potrace 1.16, written by Peter Selinger 2001-2019
</metadata>
<g transform="translate(0.000000,216.000000) scale(0.100000,-0.100000)"
fill="#000000" stroke="none">
<path d="M53 2138 c-11 -13 -28 -38 -37 -57 l-16 -34 0 -174 0 -173 15 0 c25
0 35 -36 35 -130 0 -155 54 -270 158 -336 28 -19 52 -41 52 -49 0 -39 51 -115
99 -146 27 -18 62 -53 77 -77 16 -25 45 -55 66 -68 20 -13 51 -36 70 -52 34
-30 109 -72 128 -72 6 0 46 -37 89 -83 l79 -82 106 -53 c58 -28 111 -52 117
-52 6 0 37 -16 69 -36 57 -35 266 -113 305 -114 12 0 59 -13 105 -30 47 -16
96 -30 110 -30 14 0 49 -11 77 -25 l53 -24 127 -7 c71 -4 143 -13 162 -20 l33
-14 490 0 489 0 36 -15 c19 -8 53 -15 75 -15 21 0 55 -7 75 -15 19 -8 59 -15
87 -15 28 0 71 -6 96 -14 101 -32 140 -39 255 -45 66 -4 130 -12 142 -19 15
-8 74 -12 183 -12 120 0 170 -4 197 -15 l35 -15 344 0 c218 0 345 -4 349 -10
8 -13 282 -13 290 0 4 6 56 10 124 10 83 0 129 5 154 15 24 10 70 15 135 15
66 0 112 5 135 15 20 8 54 15 76 15 23 0 67 13 104 30 36 16 70 30 76 30 22 0
197 93 226 120 17 15 42 30 56 34 15 3 66 47 122 105 110 116 169 161 207 161
15 0 44 7 63 15 49 20 215 20 264 0 19 -8 61 -15 92 -15 l56 0 45 -30 c25 -16
56 -30 70 -30 14 0 45 -6 70 -14 58 -18 124 -35 180 -46 25 -5 82 -27 128 -49
55 -27 96 -41 123 -41 50 0 136 -39 186 -83 41 -37 132 -87 159 -87 9 0 34 5
55 12 l39 11 0 67 0 68 -34 26 c-19 14 -67 42 -107 62 -40 20 -91 50 -113 65
-21 16 -51 29 -65 29 -29 0 -121 30 -189 61 -62 28 -207 71 -304 89 -26 5 -56
13 -67 19 -11 6 -37 11 -58 11 -21 0 -79 14 -127 31 l-89 31 -219 -3 -219 -3
-9 14 c-6 8 -10 32 -10 53 0 21 -9 66 -21 100 l-20 62 -67 68 c-37 38 -85 80
-106 94 -22 14 -60 45 -85 68 -58 54 -144 85 -236 85 -36 0 -82 7 -102 15 -47
20 -72 19 -145 -6 -102 -34 -132 -54 -212 -142 -55 -61 -76 -92 -76 -111 0
-15 -7 -43 -15 -63 -8 -19 -15 -47 -15 -62 0 -14 -14 -55 -30 -89 l-30 -64 0
-89 c0 -129 20 -161 179 -288 42 -34 74 -51 92 -51 15 0 40 -5 56 -12 15 -6
57 -14 92 -17 37 -4 66 -11 68 -18 7 -20 -58 -53 -103 -53 -23 0 -58 -7 -77
-15 -20 -8 -61 -15 -90 -15 -30 0 -71 -7 -90 -15 -21 -8 -67 -15 -105 -15 -39
0 -85 -7 -105 -15 -24 -10 -70 -15 -135 -15 -55 0 -114 -5 -131 -11 l-33 -12
-36 21 c-55 30 -151 38 -205 17 l-44 -17 -38 16 c-29 12 -74 16 -197 16 -118
0 -168 4 -195 15 -25 11 -72 15 -165 15 -92 0 -139 4 -165 15 -26 11 -76 15
-195 15 -118 0 -168 4 -195 15 -19 8 -52 15 -71 15 -20 0 -77 13 -127 29 -103
33 -161 49 -223 60 -24 4 -51 15 -59 24 l-16 16 11 39 c18 61 15 87 -22 160
-40 78 -120 149 -236 207 l-70 35 -74 0 -74 0 -32 40 c-45 57 -100 52 -100
-10 0 -14 -13 -64 -30 -110 -16 -47 -30 -104 -30 -128 0 -54 29 -111 74 -146
43 -33 72 -92 55 -112 -17 -21 -426 -20 -476 1 -22 9 -67 15 -120 15 l-85 0
-65 30 c-47 22 -79 30 -119 30 -38 0 -73 8 -110 25 -73 34 -168 65 -196 65
-13 0 -43 14 -68 30 -25 16 -58 30 -73 30 -15 0 -58 18 -95 40 -36 22 -80 44
-97 49 -44 12 -134 72 -219 146 -41 36 -81 65 -88 65 -8 0 -25 12 -39 26 -13
14 -45 37 -71 50 -26 13 -55 36 -65 51 -10 14 -38 46 -63 70 -46 44 -64 62
-161 162 -88 89 -179 255 -179 326 0 11 -14 58 -30 105 l-30 84 0 188 0 188
-43 0 c-32 0 -49 -6 -64 -22z m5957 -1007 c86 -12 173 -56 250 -128 80 -73
120 -128 120 -163 0 -15 7 -44 15 -63 20 -49 20 -166 -1 -195 -21 -30 -94 -62
-142 -62 -22 0 -56 -7 -75 -15 -26 -11 -73 -15 -163 -15 l-126 0 -72 34 c-39
18 -84 46 -100 62 -61 61 -81 149 -51 221 8 19 15 47 15 62 0 28 56 154 90
202 26 36 117 81 150 74 14 -3 54 -10 90 -14z m-3191 -524 c16 -24 36 -49 45
-56 9 -8 16 -22 16 -33 l0 -20 -27 18 c-16 10 -39 24 -53 31 -14 7 -38 26 -54
42 l-29 30 13 16 c24 28 57 18 89 -28z"/>
</g>
</svg>
