<?xml version="1.0" standalone="no"?>
<!DOCTYPE svg PUBLIC "-//W3C//DTD SVG 20010904//EN"
 "http://www.w3.org/TR/2001/REC-SVG-20010904/DTD/svg10.dtd">
<svg version="1.0" xmlns="http://www.w3.org/2000/svg"
 width="1248.000000pt" height="1752.000000pt" viewBox="0 0 1248.000000 1752.000000"
 preserveAspectRatio="xMidYMid meet">
<metadata>
Created by potrace 1.16, written by Peter Selinger 2001-2019
</metadata>
<g transform="translate(0.000000,1752.000000) scale(0.100000,-0.100000)"
fill="#000000" stroke="none">
<path d="M1447 17122 c-11 -12 -17 -36 -17 -71 0 -29 -5 -61 -10 -72 l-11 -19
-258 0 -258 0 -16 -18 c-12 -13 -17 -37 -17 -86 0 -37 -5 -76 -10 -87 l-11
-19 -168 0 -168 0 -16 -18 -17 -19 0 -142 c0 -79 -5 -151 -10 -162 l-11 -19
-63 0 c-48 0 -67 -4 -79 -18 l-17 -19 0 -170 0 -170 18 -16 c13 -12 37 -17 80
-17 l61 0 11 -19 c6 -11 10 -88 10 -179 l0 -159 18 -16 c13 -12 37 -17 80 -17
l61 0 11 -19 c6 -11 10 -88 10 -179 l0 -159 18 -16 c14 -13 38 -17 95 -17 l76
0 11 -19 c5 -11 10 -44 10 -74 0 -72 17 -87 98 -87 l61 0 11 -19 c5 -11 10
-44 10 -74 0 -72 17 -87 98 -87 l61 0 11 -19 c5 -11 10 -51 10 -89 0 -92 11
-102 113 -102 l76 0 11 -19 c5 -11 10 -44 10 -74 0 -72 17 -87 98 -87 l61 0
11 -19 c5 -11 10 -44 10 -74 0 -72 17 -87 98 -87 l61 0 11 -19 c5 -11 10 -51
10 -89 0 -92 11 -102 113 -102 l76 0 11 -19 c5 -11 10 -44 10 -74 0 -72 17
-87 98 -87 l61 0 11 -19 c5 -11 10 -44 10 -74 0 -72 17 -87 98 -87 l61 0 11
-19 c5 -11 10 -51 10 -89 0 -54 4 -72 18 -85 l19 -17 166 0 166 0 11 -19 c5
-11 10 -44 10 -74 0 -72 17 -87 98 -87 l61 0 11 -19 c5 -11 10 -44 10 -74 0
-75 15 -87 113 -87 l76 0 11 -19 c5 -11 10 -51 10 -89 0 -89 13 -102 98 -102
l61 0 11 -19 c5 -11 10 -44 10 -74 0 -40 5 -58 18 -70 l19 -17 166 0 166 0 11
-19 c5 -11 10 -44 10 -74 0 -72 17 -87 98 -87 l61 0 11 -19 c5 -11 10 -51 10
-89 0 -92 11 -102 113 -102 l76 0 11 -19 c5 -11 10 -44 10 -74 0 -72 17 -87
98 -87 l61 0 11 -19 c5 -11 10 -51 10 -89 0 -89 13 -102 98 -102 l61 0 11 -19
c5 -11 10 -44 10 -74 0 -40 5 -58 18 -70 l19 -17 166 0 166 0 11 -19 c5 -11
10 -44 10 -74 0 -72 17 -87 98 -87 l61 0 11 -19 c5 -11 10 -51 10 -89 0 -92
11 -102 113 -102 l76 0 11 -19 c5 -11 10 -44 10 -74 0 -72 17 -87 98 -87 l61
0 11 -19 c5 -11 10 -44 10 -74 0 -40 5 -58 18 -70 l19 -17 166 0 166 0 11 -19
c5 -11 10 -51 10 -89 0 -89 13 -102 98 -102 l61 0 11 -19 c5 -11 10 -44 10
-74 0 -72 17 -87 98 -87 l61 0 11 -19 c5 -11 10 -44 10 -74 0 -75 15 -87 113
-87 l76 0 11 -19 c5 -11 10 -51 10 -89 0 -54 4 -72 18 -85 l19 -17 151 0 151
0 11 -19 c5 -11 10 -44 10 -74 0 -75 15 -87 113 -87 l76 0 11 -19 c5 -11 10
-44 10 -74 0 -72 17 -87 98 -87 l61 0 11 -19 c5 -11 10 -51 10 -89 0 -92 11
-102 113 -102 l76 0 11 -19 c5 -11 10 -44 10 -74 0 -72 17 -87 98 -87 l61 0
11 -19 c5 -11 10 -44 10 -74 0 -72 17 -87 98 -87 l61 0 11 -19 c5 -11 10 -51
10 -89 0 -92 11 -102 113 -102 l76 0 11 -19 c5 -11 10 -44 10 -74 0 -72 17
-87 98 -87 l61 0 11 -19 c5 -11 10 -44 10 -74 0 -40 5 -58 18 -70 l19 -17 166
0 166 0 11 -19 c6 -11 10 -88 10 -179 l0 -159 18 -16 c13 -12 37 -17 80 -17
l61 0 11 -19 c5 -11 10 -51 10 -89 0 -89 13 -102 98 -102 l61 0 11 -19 c5 -11
10 -44 10 -74 0 -75 15 -87 113 -87 l76 0 11 -19 c5 -11 10 -44 10 -74 0 -72
17 -87 98 -87 l61 0 11 -19 c5 -11 10 -51 10 -89 0 -89 13 -102 98 -102 l61 0
11 -19 c5 -11 10 -44 10 -74 0 -75 15 -87 113 -87 l76 0 11 -19 c5 -11 10 -44
10 -74 0 -72 17 -87 98 -87 l61 0 11 -19 c5 -11 10 -51 10 -89 0 -89 13 -102
98 -102 l61 0 11 -19 c5 -11 10 -84 10 -164 l0 -144 18 -16 c14 -13 38 -17 95
-17 l76 0 11 -19 c5 -11 10 -51 10 -89 0 -89 13 -102 98 -102 l61 0 11 -19 c5
-11 10 -44 10 -74 0 -72 17 -87 98 -87 l61 0 11 -19 c6 -11 10 -88 10 -179 l0
-159 18 -16 c14 -13 38 -17 95 -17 l76 0 11 -19 c5 -11 10 -44 10 -74 0 -72
17 -87 98 -87 l61 0 11 -19 c6 -11 10 -88 10 -179 l0 -159 18 -16 c14 -13 38
-17 95 -17 l76 0 11 -19 c6 -11 10 -88 10 -179 l0 -159 18 -16 c13 -12 37 -17
80 -17 l61 0 11 -19 c5 -11 10 -84 10 -164 l0 -144 18 -16 c13 -12 37 -17 80
-17 l61 0 11 -19 c14 -27 14 -1445 0 -1472 l-11 -19 -63 0 c-48 0 -67 -4 -79
-18 l-17 -19 0 -337 c0 -213 -4 -344 -10 -357 l-11 -19 -63 0 c-48 0 -67 -4
-79 -18 l-17 -19 0 -157 c0 -89 -4 -166 -10 -177 l-11 -19 -78 0 -78 0 -16
-18 c-11 -12 -17 -36 -17 -71 0 -29 -5 -61 -10 -72 l-11 -19 -63 0 c-84 0 -96
-13 -96 -104 0 -37 -5 -76 -10 -87 l-11 -19 -78 0 -78 0 -16 -18 -17 -19 0
-157 c0 -89 -4 -166 -10 -177 l-11 -19 -63 0 c-80 0 -96 -15 -96 -89 0 -29 -5
-61 -10 -72 l-11 -19 -168 0 -168 0 -16 -18 c-11 -12 -17 -36 -17 -71 0 -29
-5 -61 -10 -72 l-11 -19 -63 0 c-48 0 -67 -4 -79 -18 l-17 -19 0 -170 0 -170
18 -16 c13 -12 37 -17 84 -17 82 0 98 15 98 89 0 29 5 61 10 72 l11 19 258 0
258 0 16 18 c12 13 17 37 17 86 0 37 5 76 10 87 l11 19 78 0 78 0 16 18 c11
12 17 36 17 71 0 29 5 61 10 72 l11 19 63 0 c80 0 96 15 96 89 0 29 5 61 10
72 l11 19 78 0 78 0 16 18 c12 13 17 37 17 86 0 37 5 76 10 87 l11 19 63 0
c80 0 96 15 96 89 0 29 5 61 10 72 l11 19 63 0 c48 0 67 4 79 18 l17 19 0 157
c0 89 4 166 10 177 l11 19 78 0 78 0 16 18 c11 12 17 36 17 71 0 29 5 61 10
72 l11 19 63 0 c48 0 67 4 79 18 l17 19 0 247 c0 151 4 255 10 267 l11 19 63
0 c48 0 67 4 79 18 l17 19 0 637 c0 420 4 644 10 657 l11 19 78 0 78 0 16 18
c12 13 17 37 17 84 0 88 -12 98 -113 98 l-76 0 -11 19 c-6 13 -10 144 -10 359
l0 339 -18 16 c-13 12 -37 17 -80 17 l-61 0 -11 19 c-6 11 -10 88 -10 179 l0
159 -18 16 c-13 12 -37 17 -80 17 l-61 0 -11 19 c-6 11 -10 88 -10 179 l0 159
-18 16 c-14 13 -38 17 -95 17 l-76 0 -11 19 c-6 11 -10 88 -10 179 l0 159 -18
16 c-13 12 -37 17 -80 17 l-61 0 -11 19 c-5 11 -10 44 -10 74 0 72 -17 87 -98
87 l-61 0 -11 19 c-5 11 -10 44 -10 74 0 75 -15 87 -113 87 l-76 0 -11 19 c-5
11 -10 51 -10 89 0 89 -13 102 -98 102 l-61 0 -11 19 c-5 11 -10 84 -10 164
l0 144 -18 16 c-14 13 -38 17 -95 17 l-76 0 -11 19 c-5 11 -10 51 -10 89 0 89
-13 102 -98 102 l-61 0 -11 19 c-5 11 -10 44 -10 74 0 72 -17 87 -98 87 l-61
0 -11 19 c-5 11 -10 44 -10 74 0 75 -15 87 -113 87 l-76 0 -11 19 c-5 11 -10
51 -10 89 0 89 -13 102 -98 102 l-61 0 -11 19 c-5 11 -10 44 -10 74 0 72 -17
87 -98 87 l-61 0 -11 19 c-6 11 -10 88 -10 179 l0 159 -18 16 c-14 13 -38 17
-95 17 l-76 0 -11 19 c-5 11 -10 44 -10 74 0 72 -17 87 -98 87 l-61 0 -11 19
c-5 11 -10 51 -10 89 0 89 -13 102 -98 102 l-61 0 -11 19 c-5 11 -10 44 -10
74 0 75 -15 87 -113 87 l-76 0 -11 19 c-5 11 -10 44 -10 74 0 72 -17 87 -98
87 l-61 0 -11 19 c-5 11 -10 51 -10 89 0 89 -13 102 -98 102 l-61 0 -11 19
c-5 11 -10 44 -10 74 0 75 -15 87 -113 87 l-76 0 -11 19 c-5 11 -10 44 -10 74
0 72 -17 87 -98 87 l-61 0 -11 19 c-5 11 -10 51 -10 89 0 54 -4 72 -18 85
l-19 17 -166 0 -166 0 -11 19 c-5 11 -10 44 -10 74 0 72 -17 87 -98 87 l-61 0
-11 19 c-5 11 -10 44 -10 74 0 72 -17 87 -98 87 l-61 0 -11 19 c-5 11 -10 51
-10 89 0 92 -11 102 -113 102 l-76 0 -11 19 c-5 11 -10 44 -10 74 0 72 -17 87
-98 87 l-61 0 -11 19 c-5 11 -10 44 -10 74 0 75 -15 87 -113 87 l-76 0 -11 19
c-5 11 -10 51 -10 89 0 54 -4 72 -18 85 l-19 17 -151 0 -151 0 -11 19 c-5 11
-10 44 -10 74 0 75 -15 87 -113 87 l-76 0 -11 19 c-5 11 -10 44 -10 74 0 72
-17 87 -98 87 l-61 0 -11 19 c-5 11 -10 51 -10 89 0 89 -13 102 -98 102 l-61
0 -11 19 c-5 11 -10 44 -10 74 0 40 -5 58 -18 70 l-19 17 -166 0 -166 0 -11
19 c-5 11 -10 44 -10 74 0 72 -17 87 -98 87 l-61 0 -11 19 c-5 11 -10 51 -10
89 0 92 -11 102 -113 102 l-76 0 -11 19 c-5 11 -10 44 -10 74 0 72 -17 87 -98
87 l-61 0 -11 19 c-5 11 -10 51 -10 89 0 54 -4 72 -18 85 l-19 17 -166 0 -166
0 -11 19 c-5 11 -10 44 -10 74 0 72 -17 87 -98 87 l-61 0 -11 19 c-5 11 -10
44 -10 74 0 72 -17 87 -98 87 l-61 0 -11 19 c-5 11 -10 51 -10 89 0 92 -11
102 -113 102 l-76 0 -11 19 c-5 11 -10 44 -10 74 0 72 -17 87 -98 87 l-61 0
-11 19 c-5 11 -10 44 -10 74 0 40 -5 58 -18 70 l-19 17 -166 0 -166 0 -11 19
c-5 11 -10 51 -10 89 0 89 -13 102 -98 102 l-61 0 -11 19 c-5 11 -10 44 -10
74 0 75 -15 87 -113 87 l-76 0 -11 19 c-5 11 -10 44 -10 74 0 72 -17 87 -98
87 l-61 0 -11 19 c-5 11 -10 51 -10 89 0 54 -4 72 -18 85 l-19 17 -166 0 -166
0 -11 19 c-5 11 -10 44 -10 74 0 72 -17 87 -98 87 l-61 0 -11 19 c-5 11 -10
44 -10 74 0 72 -17 87 -98 87 l-61 0 -11 19 c-5 11 -10 51 -10 89 0 92 -11
102 -113 102 l-76 0 -11 19 c-5 11 -10 44 -10 74 0 72 -17 87 -98 87 l-61 0
-11 19 c-5 11 -10 44 -10 74 0 72 -17 87 -98 87 l-61 0 -11 19 c-5 11 -10 51
-10 89 0 92 -11 102 -113 102 l-76 0 -11 19 c-5 11 -10 84 -10 164 l0 144 -18
16 c-13 12 -37 17 -80 17 l-61 0 -11 19 c-6 13 -10 145 -10 361 0 216 4 348
10 361 l11 19 258 0 258 0 16 18 c11 12 17 36 17 71 0 29 5 61 10 72 l11 19
1394 0 1394 0 11 -19 c5 -11 10 -44 10 -74 0 -40 5 -58 18 -70 l19 -17 646 0
646 0 11 -19 c5 -11 10 -44 10 -74 0 -40 5 -58 18 -70 l19 -17 436 0 436 0 11
-19 c5 -11 10 -51 10 -89 0 -54 4 -72 18 -85 l19 -17 361 0 361 0 11 -19 c5
-11 10 -44 10 -74 0 -40 5 -58 18 -70 l19 -17 256 0 256 0 11 -19 c5 -11 10
-51 10 -89 0 -54 4 -72 18 -85 l19 -17 256 0 256 0 11 -19 c5 -11 10 -44 10
-74 0 -40 5 -58 18 -70 l19 -17 166 0 166 0 11 -19 c5 -11 10 -44 10 -74 0
-40 5 -58 18 -70 l19 -17 151 0 151 0 11 -19 c5 -11 10 -51 10 -89 0 -54 4
-72 18 -85 l19 -17 166 0 166 0 11 -19 c5 -11 10 -44 10 -74 0 -72 17 -87 98
-87 l61 0 11 -19 c5 -11 10 -44 10 -74 0 -75 15 -87 113 -87 l76 0 11 -19 c6
-11 10 -88 10 -179 l0 -159 18 -16 c13 -12 37 -17 80 -17 l61 0 11 -19 c5 -11
10 -44 10 -74 0 -73 16 -87 102 -87 82 0 98 15 98 89 0 29 5 61 10 72 l11 19
78 0 78 0 16 18 c12 13 17 37 17 84 0 88 -12 98 -113 98 l-76 0 -11 19 c-6 11
-10 88 -10 179 l0 159 -18 16 c-13 12 -37 17 -80 17 l-61 0 -11 19 c-5 11 -10
44 -10 74 0 72 -17 87 -98 87 l-61 0 -11 19 c-5 11 -10 51 -10 89 0 92 -11
102 -113 102 l-76 0 -11 19 c-5 11 -10 44 -10 74 0 40 -5 58 -18 70 l-19 17
-151 0 -151 0 -11 19 c-5 11 -10 44 -10 74 0 40 -5 58 -18 70 l-19 17 -166 0
-166 0 -11 19 c-5 11 -10 51 -10 89 0 54 -4 72 -18 85 l-19 17 -256 0 -256 0
-11 19 c-5 11 -10 44 -10 74 0 40 -5 58 -18 70 l-19 17 -256 0 -256 0 -11 19
c-5 11 -10 51 -10 89 0 54 -4 72 -18 85 l-19 17 -346 0 -346 0 -11 19 c-5 11
-10 44 -10 74 0 40 -5 58 -18 70 l-19 17 -361 0 -361 0 -11 19 c-5 11 -10 44
-10 74 0 40 -5 58 -18 70 l-19 17 -346 0 -346 0 -11 19 c-5 11 -10 51 -10 89
0 54 -4 72 -18 85 l-19 17 -826 0 -826 0 -11 19 c-5 11 -10 44 -10 74 0 40 -5
58 -18 70 l-19 17 -1310 0 -1310 0 -16 -18z"/>
</g>
</svg>
