<?xml version="1.0" standalone="no"?>
<!DOCTYPE svg PUBLIC "-//W3C//DTD SVG 20010904//EN"
 "http://www.w3.org/TR/2001/REC-SVG-20010904/DTD/svg10.dtd">
<svg version="1.0" xmlns="http://www.w3.org/2000/svg"
 width="522.000000pt" height="171.000000pt" viewBox="0 0 522.000000 171.000000"
 preserveAspectRatio="xMidYMid meet">
<metadata>
Created by potrace 1.16, written by Peter Selinger 2001-2019
</metadata>
<g transform="translate(0.000000,171.000000) scale(0.100000,-0.100000)"
fill="#000000" stroke="none">
<path d="M3185 1700 c-3 -5 -26 -10 -50 -10 -27 0 -68 -11 -108 -30 -36 -16
-70 -30 -77 -30 -33 0 -198 -106 -230 -148 -12 -15 -29 -38 -40 -52 l-18 -25
-64 18 c-101 29 -159 40 -223 43 -123 6 -260 20 -274 28 -7 5 -79 10 -160 11
-85 1 -164 7 -188 15 -34 10 -51 11 -83 1 l-39 -12 -37 16 c-52 21 -233 21
-277 -1 -51 -26 -67 -45 -67 -79 0 -17 -5 -36 -12 -43 -9 -9 -107 -12 -380
-12 l-369 0 -36 15 c-23 10 -69 15 -135 15 -65 0 -111 5 -135 15 -46 19 -74
19 -134 -2 l-49 -18 0 -36 0 -35 83 -27 c62 -20 112 -28 207 -33 69 -4 140
-13 159 -20 21 -9 74 -14 148 -14 78 0 125 -5 150 -15 l35 -15 440 0 440 0 29
29 c21 21 29 39 29 63 0 19 5 39 12 46 17 17 81 15 125 -3 l35 -15 307 0 307
0 50 -18 c64 -22 150 -95 180 -152 28 -55 155 -188 222 -234 26 -19 71 -45 98
-59 27 -14 71 -44 98 -66 26 -23 56 -41 65 -41 9 0 36 -14 61 -30 25 -17 58
-30 75 -30 17 0 47 -11 67 -25 33 -22 71 -36 208 -76 31 -9 135 -14 330 -16
l285 -4 67 22 67 21 65 68 66 68 0 70 0 71 -57 44 c-32 25 -67 55 -78 67 -21
23 -105 70 -126 70 -7 0 -51 18 -98 41 -125 59 -254 97 -371 108 -50 5 -92 16
-127 34 -31 16 -69 27 -93 27 -22 0 -57 7 -77 15 -19 8 -53 15 -75 15 -21 0
-55 7 -75 15 -20 8 -66 15 -105 15 -38 0 -84 7 -105 15 -22 9 -67 15 -118 15
-62 0 -86 4 -95 15 l-13 16 29 30 c16 17 43 37 59 44 54 25 149 55 173 55 13
0 33 5 45 12 18 10 204 27 307 29 65 0 227 -18 247 -29 13 -7 63 -12 120 -12
57 0 117 -6 143 -14 94 -30 138 -38 225 -45 50 -4 100 -12 112 -19 12 -7 41
-12 65 -12 29 0 55 -8 79 -24 40 -27 236 -96 273 -96 26 0 42 -15 47 -45 5
-22 60 -63 98 -72 90 -21 142 -65 163 -137 21 -75 50 -91 108 -61 l30 16 0 54
0 55 -49 68 c-68 93 -183 172 -251 172 -23 0 -40 9 -61 33 -16 17 -40 44 -53
60 l-25 27 -46 0 c-25 0 -62 7 -82 15 -19 8 -45 15 -57 15 -12 0 -60 13 -106
30 -47 16 -96 30 -108 30 -13 0 -53 14 -89 30 l-64 30 -70 0 c-39 0 -85 7
-106 15 -20 9 -66 15 -109 15 -40 0 -76 5 -79 10 -3 6 -35 10 -70 10 -35 0
-67 -4 -70 -10 -3 -5 -26 -10 -50 -10 -24 0 -47 5 -50 10 -4 6 -88 10 -220 10
-132 0 -216 -4 -220 -10z m-8 -495 c25 -11 72 -15 162 -15 l127 0 84 -30 c47
-16 96 -30 110 -30 14 0 54 -14 88 -30 35 -17 75 -30 88 -30 14 0 41 -7 61
-15 19 -8 54 -15 76 -15 47 0 177 -59 279 -126 76 -51 94 -74 79 -103 -11 -19
-68 -51 -93 -51 -7 0 -31 -12 -52 -26 l-38 -26 -35 7 c-19 3 -57 1 -83 -6
l-48 -12 -44 16 c-24 9 -61 17 -81 17 -21 0 -54 7 -74 15 -19 8 -58 15 -86 15
-64 0 -153 30 -287 96 -58 28 -120 55 -138 59 -20 4 -54 28 -86 58 -29 29 -73
64 -97 78 -33 19 -52 41 -78 88 l-33 63 13 9 c23 14 147 10 186 -6z"/>
<path d="M1586 529 c-40 -32 -34 -61 22 -102 66 -48 153 -91 249 -122 50 -16
96 -39 119 -59 49 -42 96 -66 127 -66 34 0 91 64 78 88 -15 27 -52 58 -106 86
-27 15 -75 43 -105 62 -30 19 -66 37 -80 41 -14 3 -49 16 -78 29 -63 29 -166
64 -185 64 -8 0 -26 -9 -41 -21z"/>
<path d="M1268 389 c-36 -21 -40 -45 -12 -79 25 -28 286 -170 314 -170 6 0 41
-18 78 -40 36 -22 85 -45 107 -51 22 -6 52 -20 66 -30 17 -12 44 -19 72 -19
l45 0 26 31 c30 35 32 56 10 87 -15 22 -102 72 -125 72 -7 0 -63 25 -125 55
-62 30 -152 68 -201 83 -48 16 -107 39 -130 51 -45 22 -97 27 -125 10z"/>
</g>
</svg>
