<?xml version="1.0" standalone="no"?>
<!DOCTYPE svg PUBLIC "-//W3C//DTD SVG 20010904//EN"
 "http://www.w3.org/TR/2001/REC-SVG-20010904/DTD/svg10.dtd">
<svg version="1.0" xmlns="http://www.w3.org/2000/svg"
 width="762.000000pt" height="216.000000pt" viewBox="0 0 762.000000 216.000000"
 preserveAspectRatio="xMidYMid meet">
<metadata>
Created by potrace 1.16, written by Peter Selinger 2001-2019
</metadata>
<g transform="translate(0.000000,216.000000) scale(0.100000,-0.100000)"
fill="#000000" stroke="none">
<path d="M0 2113 l1 -48 32 -16 c18 -9 70 -37 117 -62 47 -26 92 -47 100 -47
8 0 28 -13 45 -28 19 -18 67 -40 135 -62 69 -22 115 -43 135 -62 19 -17 42
-28 59 -28 15 0 57 -13 93 -30 35 -16 75 -30 89 -30 14 0 41 -7 61 -15 19 -8
65 -15 102 -15 49 0 90 -8 151 -30 68 -24 102 -30 168 -30 50 0 97 -6 119 -15
19 -8 59 -15 87 -15 28 0 79 -10 111 -21 71 -26 85 -27 415 -39 322 -12 310
-12 406 -4 62 4 89 2 118 -10 48 -20 113 -20 159 -1 21 8 67 15 105 15 39 0
85 7 105 15 20 8 48 15 62 15 64 0 298 146 381 238 l50 56 50 -14 c68 -18 94
-35 127 -81 16 -22 50 -50 76 -64 27 -13 72 -46 102 -72 30 -27 68 -57 84 -68
17 -10 57 -44 90 -75 33 -31 78 -68 100 -83 22 -14 67 -49 100 -77 33 -28 85
-67 116 -86 33 -22 68 -55 86 -83 21 -31 51 -59 89 -82 40 -23 60 -42 64 -59
4 -15 24 -37 52 -55 25 -17 70 -54 100 -82 29 -29 67 -62 83 -75 41 -31 54
-48 61 -81 4 -17 25 -42 54 -65 123 -96 209 -179 521 -504 l56 -58 42 0 c34 0
49 6 72 29 35 36 36 57 5 119 -13 26 -27 57 -30 70 l-7 22 49 49 c26 28 74 61
105 75 l56 26 377 0 378 0 91 -29 c122 -39 170 -51 240 -60 34 -5 70 -13 82
-19 12 -7 34 -12 48 -12 32 0 86 -24 139 -62 21 -15 46 -28 55 -28 9 0 36 -14
61 -30 25 -16 58 -30 73 -30 69 0 217 -110 233 -174 l6 -26 64 0 64 0 0 64 c0
47 -4 67 -16 77 -9 8 -27 31 -40 51 -15 24 -45 49 -82 68 -31 17 -82 47 -112
66 -30 19 -71 39 -90 44 -19 5 -59 21 -88 35 -28 14 -58 25 -64 25 -7 0 -33
14 -58 30 -25 16 -58 30 -73 30 -15 0 -44 7 -64 15 -19 8 -47 15 -60 15 -14 0
-54 14 -90 30 -35 17 -75 30 -89 30 -14 0 -41 7 -61 15 -19 8 -53 15 -75 15
-21 0 -55 7 -75 15 l-35 15 -328 0 -328 0 -35 -15 c-20 -8 -57 -15 -81 -15
-35 0 -53 -6 -78 -28 -56 -48 -81 -62 -114 -62 -33 0 -60 -22 -65 -54 -6 -28
-31 -40 -72 -32 -28 5 -60 31 -151 121 -63 63 -123 115 -132 115 -9 0 -35 19
-58 42 -23 24 -70 63 -104 86 -37 26 -62 51 -62 61 0 10 -35 52 -78 93 -42 41
-88 90 -101 107 -13 18 -41 43 -63 57 -21 13 -82 65 -136 115 -53 49 -122 106
-152 126 -30 21 -75 58 -101 83 -57 57 -151 137 -198 168 -20 13 -54 41 -76
61 -22 21 -56 48 -76 61 -21 13 -51 46 -68 72 -23 35 -47 56 -89 77 -74 37
-186 132 -276 234 l-25 27 -57 0 -57 0 -43 -44 c-33 -33 -44 -51 -44 -75 0
-17 -7 -48 -15 -68 -8 -19 -15 -47 -15 -60 0 -41 -29 -78 -96 -121 -79 -52
-163 -82 -230 -82 -28 0 -69 -7 -90 -16 l-39 -17 -364 2 -363 2 -35 14 c-20 8
-66 15 -105 15 -38 0 -84 7 -105 15 -25 11 -72 15 -165 15 -92 0 -139 4 -165
15 -19 8 -53 15 -75 15 -21 0 -55 7 -75 15 -19 8 -52 15 -72 15 -20 0 -56 6
-81 14 -78 25 -133 37 -195 45 -34 5 -70 13 -82 19 -12 7 -34 12 -48 12 -15 0
-56 14 -92 30 -35 17 -70 30 -76 30 -7 0 -41 14 -75 30 -35 17 -69 30 -76 30
-25 0 -276 131 -288 150 l-13 20 -82 0 -83 0 0 -47z"/>
</g>
</svg>
