<?xml version="1.0" standalone="no"?>
<!DOCTYPE svg PUBLIC "-//W3C//DTD SVG 20010904//EN"
 "http://www.w3.org/TR/2001/REC-SVG-20010904/DTD/svg10.dtd">
<svg version="1.0" xmlns="http://www.w3.org/2000/svg"
 width="318.000000pt" height="420.000000pt" viewBox="0 0 318.000000 420.000000"
 preserveAspectRatio="xMidYMid meet">
<metadata>
Created by potrace 1.16, written by Peter Selinger 2001-2019
</metadata>
<g transform="translate(0.000000,420.000000) scale(0.100000,-0.100000)"
fill="#000000" stroke="none">
<path d="M53 4158 l-53 -40 0 -127 0 -126 63 -56 c58 -52 189 -129 219 -129 7
0 65 -25 128 -56 136 -66 216 -94 267 -94 21 0 66 -13 101 -30 47 -22 79 -30
118 -30 30 0 71 -7 91 -15 19 -8 53 -15 75 -15 21 0 55 -7 75 -15 19 -8 61
-15 93 -15 32 0 74 7 93 15 20 8 46 15 57 15 37 0 104 -37 167 -92 34 -29 80
-66 103 -82 23 -15 59 -51 80 -80 22 -28 57 -73 77 -101 21 -27 59 -71 86 -96
26 -26 47 -56 47 -67 0 -11 16 -40 36 -64 85 -100 134 -201 134 -274 0 -24 8
-37 34 -55 45 -30 66 -68 66 -117 0 -22 7 -56 15 -75 11 -27 15 -77 15 -194
l0 -159 -17 -24 c-9 -14 -36 -46 -60 -72 -43 -48 -51 -74 -33 -108 19 -36 43
-41 101 -22 l53 17 42 61 c24 34 52 89 63 122 l21 61 0 201 0 201 -19 57 c-11
31 -31 82 -45 112 -14 30 -26 62 -26 71 0 8 -13 28 -30 44 -21 20 -30 38 -30
60 0 19 -12 48 -29 72 -16 22 -39 60 -51 83 -23 45 -77 119 -152 205 -26 30
-59 72 -72 94 -14 21 -39 49 -56 62 -60 45 -90 77 -90 97 0 23 -21 43 -77 71
-54 27 -83 65 -83 109 l0 36 63 58 c34 32 89 72 123 88 l61 30 97 0 c63 0 109
-5 133 -15 19 -8 59 -15 87 -15 32 0 84 -11 136 -30 47 -16 95 -30 108 -30 13
0 52 -18 88 -39 36 -22 106 -52 157 -68 l92 -28 52 -52 c29 -29 61 -53 71 -53
29 0 60 -29 90 -85 30 -56 87 -95 140 -95 l32 0 0 74 c0 41 -4 78 -10 81 -5 3
-10 15 -10 25 0 40 -96 121 -219 185 -28 15 -65 45 -82 66 -22 28 -38 39 -58
39 -49 0 -172 47 -226 86 -43 32 -146 64 -205 64 -28 0 -67 7 -87 15 -23 10
-69 15 -134 15 -68 0 -111 5 -140 17 l-41 16 -47 -16 c-25 -10 -61 -17 -79
-17 -70 0 -153 -39 -222 -104 -36 -34 -87 -74 -114 -90 -54 -31 -79 -30 -130
8 -17 13 -51 34 -76 46 -25 12 -66 39 -91 61 -26 21 -75 52 -109 70 -35 17
-79 46 -99 64 -37 33 -91 65 -111 65 -19 0 -81 32 -124 62 -21 15 -46 28 -55
28 -9 0 -36 14 -61 30 -34 23 -57 30 -92 30 -26 0 -50 5 -53 10 -4 6 -82 10
-203 9 l-197 0 -52 -41z m426 -134 c18 -8 45 -14 58 -14 31 0 138 -49 192 -88
22 -16 57 -33 77 -36 24 -5 50 -22 82 -55 26 -27 63 -57 82 -66 52 -26 163
-101 184 -124 41 -46 -18 -75 -95 -48 -26 10 -63 17 -83 17 -20 0 -53 7 -73
15 -19 8 -54 15 -77 15 -23 0 -65 11 -96 26 -30 14 -131 51 -223 81 l-168 56
-26 34 c-15 19 -48 45 -74 59 -47 23 -79 56 -79 80 0 7 11 26 25 42 l25 29
117 -5 c65 -2 133 -11 152 -18z"/>
<path d="M127 3112 c-22 -24 -22 -55 1 -73 9 -8 64 -30 122 -49 l105 -34 60
-58 c33 -32 66 -58 74 -58 18 0 103 -53 161 -100 25 -21 68 -49 95 -63 28 -14
77 -48 110 -76 33 -28 78 -60 100 -72 22 -12 60 -38 85 -58 25 -20 62 -47 82
-61 20 -14 49 -44 65 -68 15 -24 48 -58 75 -75 44 -29 60 -51 86 -119 6 -14
33 -41 59 -58 27 -18 60 -48 73 -69 13 -20 45 -57 71 -82 29 -29 49 -59 54
-80 7 -37 54 -112 122 -196 23 -29 49 -75 57 -102 8 -28 26 -67 40 -88 14 -21
26 -44 26 -53 0 -8 14 -35 30 -60 16 -25 30 -58 30 -73 0 -16 5 -38 12 -50 6
-12 15 -56 19 -97 7 -76 18 -124 47 -214 l15 -50 -1 -225 -2 -225 -30 -31
c-19 -20 -30 -41 -30 -60 0 -36 -30 -102 -58 -132 -12 -11 -59 -46 -106 -77
-83 -55 -106 -78 -106 -110 0 -24 103 -22 138 2 15 10 52 31 82 46 69 35 119
83 176 167 l44 65 0 45 c0 27 10 65 26 99 26 54 34 83 54 205 14 84 13 252 -2
278 -6 12 -15 56 -19 97 -7 74 -17 123 -45 210 -8 25 -14 60 -14 78 0 43 -35
146 -66 191 -13 19 -24 49 -24 66 0 17 -13 50 -30 75 -16 25 -30 51 -30 58 0
22 -41 95 -80 142 -21 25 -48 65 -60 90 -24 48 -64 99 -174 223 -59 66 -139
129 -221 173 -11 6 -21 23 -23 38 -6 51 -287 298 -409 359 -26 14 -76 50 -111
81 -34 31 -70 56 -79 56 -20 0 -103 51 -166 103 -26 21 -62 43 -81 48 -18 5
-50 24 -72 43 -59 50 -144 76 -252 76 l-89 0 -16 -18z"/>
</g>
</svg>
