<?xml version="1.0" standalone="no"?>
<!DOCTYPE svg PUBLIC "-//W3C//DTD SVG 20010904//EN"
 "http://www.w3.org/TR/2001/REC-SVG-20010904/DTD/svg10.dtd">
<svg version="1.0" xmlns="http://www.w3.org/2000/svg"
 width="342.000000pt" height="240.000000pt" viewBox="0 0 342.000000 240.000000"
 preserveAspectRatio="xMidYMid meet">
<metadata>
Created by potrace 1.16, written by Peter Selinger 2001-2019
</metadata>
<g transform="translate(0.000000,240.000000) scale(0.100000,-0.100000)"
fill="#000000" stroke="none">
<path d="M2135 2390 c-4 -6 -85 -10 -210 -10 l-205 0 -107 -36 c-181 -61 -273
-116 -273 -164 0 -8 -14 -35 -30 -60 -40 -61 -41 -111 -1 -151 l29 -29 64 0
65 0 24 -26 c13 -14 41 -35 63 -46 21 -11 56 -32 77 -48 21 -15 55 -31 74 -34
25 -5 53 -26 103 -76 38 -39 77 -70 87 -70 10 0 34 -15 55 -32 20 -18 57 -50
82 -70 25 -20 62 -62 82 -92 20 -31 50 -63 66 -71 38 -20 146 -120 182 -169
17 -24 28 -52 28 -71 0 -24 11 -46 41 -81 23 -27 56 -80 75 -119 l34 -69 0
-104 0 -103 -25 -24 c-32 -33 -63 -31 -142 5 -35 17 -70 30 -76 30 -7 0 -54
20 -105 45 -52 25 -99 45 -105 45 -13 0 -72 31 -142 74 -26 16 -86 42 -132 58
-46 15 -101 39 -121 53 -20 14 -43 25 -50 25 -20 0 -81 30 -126 62 -21 15 -52
28 -68 28 -17 0 -60 19 -104 45 -40 25 -77 45 -82 45 -17 0 -50 46 -85 116
-22 43 -49 81 -71 98 -20 15 -46 46 -57 69 -28 56 -48 77 -71 77 -11 0 -41 22
-66 48 -26 27 -67 61 -92 77 -25 16 -65 45 -89 64 -25 19 -70 52 -100 73 l-56
38 -73 0 c-42 0 -88 6 -109 15 -63 26 -98 20 -149 -27 -64 -59 -68 -70 -45
-115 10 -21 29 -47 41 -58 12 -11 42 -45 65 -75 29 -37 53 -58 76 -65 22 -7
43 -24 62 -53 31 -47 107 -92 154 -92 35 0 61 -17 140 -92 34 -32 69 -58 78
-58 9 0 50 -20 91 -45 40 -25 78 -45 82 -45 32 0 82 -126 82 -205 0 -52 -24
-111 -52 -129 -24 -15 -64 17 -92 73 -18 34 -45 63 -93 99 -37 28 -78 64 -90
81 -13 17 -38 34 -57 40 -19 5 -69 32 -110 60 -99 66 -173 91 -273 91 l-78 0
-72 -77 c-40 -43 -73 -85 -73 -93 0 -8 -14 -35 -30 -60 -16 -25 -30 -53 -30
-62 0 -9 -5 -20 -10 -23 -12 -8 -13 -59 -1 -83 4 -9 25 -52 45 -95 26 -57 45
-83 67 -95 59 -32 116 -72 162 -112 l45 -40 42 0 c23 0 66 -11 96 -25 114 -52
168 -65 274 -65 57 0 111 5 123 11 11 7 50 15 86 20 36 4 76 11 88 14 l22 7
32 -56 c17 -31 47 -68 65 -83 25 -19 34 -33 34 -55 0 -41 15 -65 60 -93 51
-32 88 -73 102 -112 l12 -33 61 0 61 0 12 33 c18 50 16 59 -35 125 -27 33 -64
81 -83 106 -19 25 -41 62 -48 82 -7 20 -35 61 -62 91 -72 79 -84 136 -50 233
11 30 19 70 20 89 0 45 40 161 56 168 8 3 29 -4 47 -16 19 -12 48 -21 65 -21
20 0 46 -12 74 -35 59 -47 104 -71 192 -99 42 -14 93 -37 113 -51 21 -14 44
-25 51 -25 20 0 81 -30 126 -62 23 -17 52 -28 71 -28 21 0 39 -9 56 -26 25
-27 193 -116 241 -128 14 -3 41 -24 58 -46 l32 -40 54 0 53 0 33 43 c18 24 50
57 73 74 60 46 76 107 75 303 -1 175 -15 238 -67 293 -51 54 -83 110 -83 145
l0 33 -64 68 c-35 37 -75 85 -89 107 -27 43 -52 67 -114 108 -23 16 -61 52
-83 82 -22 30 -48 54 -57 54 -9 0 -40 27 -70 59 -51 57 -117 107 -213 163 -25
14 -56 38 -69 52 -14 14 -31 26 -39 26 -20 0 -81 30 -126 62 -21 15 -47 28
-57 28 -22 0 -52 42 -47 66 4 23 61 54 118 64 25 5 65 15 90 24 89 30 143 36
305 36 129 0 174 -4 203 -16 27 -11 53 -14 94 -9 46 5 67 2 104 -15 27 -12 68
-20 98 -20 28 0 71 -6 96 -14 60 -19 125 -35 182 -46 26 -5 56 -13 67 -19 11
-6 30 -11 43 -11 24 0 121 -30 168 -52 14 -7 45 -28 69 -47 25 -19 70 -52 100
-73 l56 -38 48 0 47 0 0 53 0 53 -61 53 c-33 30 -82 69 -108 86 -103 71 -258
135 -327 135 -19 0 -65 14 -101 30 l-64 30 -85 0 c-53 0 -98 6 -121 15 -19 8
-53 15 -75 15 -21 0 -55 7 -75 15 -20 9 -66 15 -109 15 -40 0 -76 5 -79 10 -3
6 -21 10 -40 10 -19 0 -37 -4 -40 -10z m-1759 -1371 c35 -12 81 -37 102 -55
22 -18 76 -51 120 -73 44 -22 93 -55 108 -72 34 -37 66 -70 117 -117 38 -36
73 -111 64 -137 l-6 -15 -107 0 -106 0 -65 30 c-35 16 -76 30 -90 30 -15 0
-47 13 -72 29 -25 16 -57 31 -71 34 -35 9 -141 100 -163 142 l-19 34 22 63
c24 70 34 86 70 111 30 21 21 21 96 -4z"/>
</g>
</svg>
