<?xml version="1.0" standalone="no"?>
<!DOCTYPE svg PUBLIC "-//W3C//DTD SVG 20010904//EN"
 "http://www.w3.org/TR/2001/REC-SVG-20010904/DTD/svg10.dtd">
<svg version="1.0" xmlns="http://www.w3.org/2000/svg"
 width="333.000000pt" height="351.000000pt" viewBox="0 0 333.000000 351.000000"
 preserveAspectRatio="xMidYMid meet">
<metadata>
Created by potrace 1.16, written by Peter Selinger 2001-2019
</metadata>
<g transform="translate(0.000000,351.000000) scale(0.100000,-0.100000)"
fill="#000000" stroke="none">
<path d="M130 3501 c0 -5 -25 -36 -55 -70 -44 -49 -55 -69 -55 -96 0 -19 -4
-37 -10 -40 -13 -8 -13 -102 0 -110 6 -3 10 -26 10 -50 0 -24 8 -60 17 -80 18
-38 155 -155 181 -155 8 0 54 -18 101 -41 47 -22 127 -55 176 -72 l90 -31 185
-8 c318 -15 401 -11 497 19 l52 17 70 -23 c77 -25 119 -59 128 -104 4 -18 21
-40 48 -60 46 -34 122 -140 136 -190 4 -16 28 -50 52 -76 54 -58 62 -71 76
-141 7 -30 20 -64 30 -75 9 -11 26 -46 36 -77 l19 -56 -12 -40 c-9 -28 -9 -48
-2 -67 5 -14 10 -50 10 -78 0 -102 -106 -269 -180 -284 -19 -3 -42 -21 -61
-44 -17 -22 -43 -42 -57 -45 -44 -11 -62 -33 -62 -76 0 -41 21 -68 83 -111 14
-9 30 -32 35 -51 5 -18 26 -57 46 -86 62 -90 61 -130 -2 -130 l-39 0 -64 -51
-64 -52 -8 -66 -7 -66 25 -56 c14 -31 25 -63 25 -71 0 -27 32 -59 90 -88 32
-16 92 -60 133 -97 41 -37 97 -84 123 -103 107 -79 170 -120 184 -120 9 0 56
-27 105 -60 l90 -60 42 0 c24 0 60 -6 80 -14 21 -8 55 -17 76 -20 20 -2 50
-14 66 -25 l29 -21 159 0 160 0 41 38 c49 45 53 72 16 101 -32 25 -105 28
-157 6 -20 -8 -66 -15 -102 -15 l-66 0 -67 40 c-37 23 -78 43 -92 47 -14 3
-45 18 -70 33 -25 15 -56 30 -70 33 -14 4 -45 23 -68 42 -23 20 -59 41 -79 47
-25 7 -59 33 -109 84 -39 41 -78 74 -86 74 -7 0 -36 22 -63 50 l-49 49 18 7
c13 5 33 -8 75 -50 31 -31 64 -56 74 -56 9 0 37 -5 62 -12 l44 -12 36 17 c39
18 75 69 75 105 0 47 -94 188 -228 344 -29 34 -56 75 -59 90 -3 16 -21 41 -43
58 -71 56 -149 220 -121 254 7 8 36 27 64 41 70 37 75 41 104 99 14 28 36 65
48 81 45 60 65 112 65 170 0 31 7 72 15 92 19 45 19 111 0 156 -8 20 -15 54
-15 76 0 29 -17 75 -60 162 -33 67 -60 128 -60 136 0 26 -42 98 -80 138 -21
22 -51 58 -67 81 -62 90 -101 139 -166 211 -108 119 -110 138 -24 193 l62 40
56 0 c31 0 73 7 92 15 20 8 66 15 102 15 36 0 82 -7 102 -15 25 -11 72 -15
162 -15 l127 0 84 -30 c47 -16 103 -30 125 -30 41 0 65 -12 123 -62 25 -22 43
-28 78 -28 36 0 61 -9 117 -43 67 -39 189 -98 229 -111 10 -3 31 -30 49 -61
39 -69 61 -85 121 -85 l48 0 0 88 0 88 -47 52 c-33 35 -72 63 -123 88 -41 20
-95 53 -120 74 -62 51 -122 80 -167 80 -41 0 -214 55 -301 95 -29 14 -71 25
-93 25 -22 0 -56 7 -76 15 -22 9 -67 15 -120 15 -52 0 -97 6 -120 15 -26 11
-76 15 -195 15 l-159 0 -61 -21 c-33 -11 -77 -31 -97 -45 -19 -13 -48 -24 -63
-24 -14 0 -59 -16 -99 -35 -41 -19 -80 -35 -89 -35 -18 0 -109 58 -157 101
-19 16 -41 29 -49 29 -27 0 -87 31 -134 70 -57 47 -90 64 -185 95 -42 13 -88
33 -103 44 -49 34 -111 61 -141 61 -16 0 -33 5 -36 10 -8 13 -465 14 -465 1z
m360 -181 c47 -16 96 -30 110 -30 14 0 67 -20 118 -45 52 -25 106 -45 121 -45
29 0 90 -39 126 -80 11 -12 42 -33 70 -47 64 -33 98 -58 125 -95 30 -40 14
-58 -52 -58 -28 0 -72 -8 -99 -17 l-49 -18 -49 18 c-31 11 -78 17 -130 17 -50
0 -96 6 -118 15 -19 8 -45 15 -57 15 -60 0 -373 143 -401 183 -19 27 -21 162
-2 174 32 21 107 41 152 42 33 1 81 -10 135 -29z"/>
</g>
</svg>
