<?xml version="1.0" standalone="no"?>
<!DOCTYPE svg PUBLIC "-//W3C//DTD SVG 20010904//EN"
 "http://www.w3.org/TR/2001/REC-SVG-20010904/DTD/svg10.dtd">
<svg version="1.0" xmlns="http://www.w3.org/2000/svg"
 width="564.000000pt" height="294.000000pt" viewBox="0 0 564.000000 294.000000"
 preserveAspectRatio="xMidYMid meet">
<metadata>
Created by potrace 1.16, written by Peter Selinger 2001-2019
</metadata>
<g transform="translate(0.000000,294.000000) scale(0.100000,-0.100000)"
fill="#000000" stroke="none">
<path d="M1985 2930 c-3 -5 -15 -10 -26 -10 -11 0 -34 -13 -50 -29 l-29 -29 0
-84 0 -83 30 -45 c16 -25 30 -52 30 -62 0 -9 19 -31 43 -49 50 -38 96 -89 97
-106 0 -22 -49 -26 -93 -9 -24 9 -52 16 -62 16 -11 0 -53 12 -94 25 -41 14
-82 23 -90 19 -19 -7 -146 -26 -181 -26 -14 0 -44 3 -67 7 -30 5 -54 3 -83 -9
-22 -9 -58 -16 -79 -16 -23 0 -66 -13 -103 -30 -34 -16 -71 -30 -81 -30 -22 0
-103 -74 -134 -124 -14 -21 -42 -57 -64 -81 -21 -23 -57 -69 -79 -101 l-40
-59 0 -178 0 -178 20 -58 c11 -32 44 -110 75 -173 30 -63 55 -120 55 -127 0
-21 42 -95 80 -141 21 -25 50 -68 64 -97 14 -29 40 -63 57 -75 17 -13 43 -43
57 -68 14 -25 43 -66 64 -91 67 -80 44 -119 -46 -79 -28 12 -74 30 -102 40
-28 10 -69 27 -92 39 -23 12 -58 21 -79 21 -47 0 -158 37 -252 84 -39 20 -81
36 -93 36 -13 0 -43 6 -68 14 -60 19 -125 35 -182 46 -26 5 -56 13 -67 19 -11
6 -53 11 -94 11 l-75 0 -64 -30 c-34 -16 -69 -30 -75 -30 -10 0 -13 -25 -13
-90 l0 -90 102 -106 c106 -110 133 -129 236 -163 116 -39 285 -23 319 31 13
22 42 112 43 134 0 41 25 48 67 20 21 -14 50 -26 66 -26 15 0 44 -7 64 -15 19
-8 52 -15 72 -15 46 0 142 -33 190 -66 19 -13 42 -24 51 -24 8 0 44 -14 78
-30 35 -17 69 -30 75 -30 7 0 41 -14 75 -30 40 -19 80 -30 106 -30 70 0 226
-82 319 -169 42 -39 85 -71 96 -71 11 0 39 -16 63 -35 59 -47 191 -115 226
-115 30 0 67 -22 95 -57 l18 -23 100 0 99 0 0 32 c0 21 -15 55 -46 100 l-46
69 -77 38 c-42 22 -117 66 -166 100 -57 39 -100 61 -118 61 -29 0 -99 38 -244
131 -56 36 -90 67 -109 97 -15 24 -51 59 -80 78 -52 35 -224 207 -224 224 0 5
-25 37 -56 72 -31 34 -73 96 -93 138 -21 41 -63 113 -95 160 -33 51 -56 95
-56 112 0 14 -27 82 -60 151 l-60 124 0 63 c0 76 26 160 90 284 l45 90 70 48
c39 26 91 54 117 62 26 8 64 26 85 40 l38 26 175 0 175 0 45 -30 c32 -22 57
-30 88 -30 23 0 59 -7 79 -15 19 -8 60 -15 90 -15 29 0 70 -7 90 -15 19 -8 47
-15 62 -15 14 0 55 -14 89 -30 35 -17 69 -30 76 -30 7 0 54 -20 105 -45 64
-31 105 -45 134 -45 30 0 55 -9 87 -30 25 -16 52 -30 60 -30 8 0 29 -9 45 -21
56 -38 124 -69 151 -69 15 0 48 -13 73 -29 25 -16 60 -32 78 -36 18 -3 96 -49
173 -101 77 -52 160 -104 183 -115 23 -12 62 -38 87 -58 24 -20 81 -60 125
-89 44 -30 91 -64 105 -76 14 -12 42 -33 62 -46 20 -14 49 -44 65 -68 15 -24
56 -70 90 -102 46 -42 63 -64 63 -83 0 -30 24 -57 50 -57 23 0 70 -55 70 -82
0 -11 20 -40 44 -64 l43 -44 42 0 42 0 50 47 c56 52 77 87 108 181 42 124 21
321 -43 407 -13 17 -40 63 -60 104 -20 41 -51 95 -69 120 -55 78 -115 155
-140 180 -69 67 -95 94 -132 137 -22 26 -57 57 -77 70 -21 13 -49 42 -63 64
-18 28 -43 49 -87 71 -65 33 -188 145 -188 172 0 20 79 106 127 140 52 36 178
77 236 77 26 0 64 -7 84 -15 19 -8 59 -15 87 -15 32 0 84 -11 136 -30 47 -16
102 -30 123 -30 21 0 54 -7 74 -15 19 -8 52 -15 72 -15 47 0 135 -31 198 -70
56 -35 176 -79 214 -80 14 0 44 -13 65 -30 21 -16 77 -55 124 -87 47 -32 115
-86 152 -120 l67 -63 81 0 80 0 0 58 0 57 -57 35 c-32 19 -89 64 -128 100 -38
36 -90 73 -115 83 -25 10 -58 26 -75 35 -16 8 -66 35 -110 59 -44 23 -94 43
-111 43 -17 0 -82 25 -145 56 -139 68 -263 108 -384 123 -34 5 -70 13 -82 19
-13 7 -68 12 -135 12 -70 0 -130 5 -158 14 -124 39 -142 39 -288 -5 -91 -28
-131 -51 -187 -109 -129 -134 -182 -143 -293 -48 -18 15 -40 28 -50 28 -9 0
-37 14 -62 30 -25 16 -56 30 -70 30 -58 0 -217 66 -293 121 -30 22 -51 29 -86
29 -28 0 -67 10 -101 26 -68 31 -163 64 -188 64 -20 0 -118 33 -129 43 -11 11
-401 8 -408 -3z m517 -190 c65 -21 130 -46 146 -54 51 -26 151 -56 189 -56 25
0 53 -10 83 -30 25 -16 51 -30 58 -30 8 0 40 -16 72 -36 32 -20 75 -41 95 -48
62 -22 185 -100 182 -116 -1 -8 -18 -17 -37 -21 -19 -3 -48 -11 -63 -18 -41
-16 -181 -14 -224 4 -24 10 -71 15 -147 15 l-111 0 -105 35 c-58 19 -143 53
-190 74 -47 22 -106 47 -132 56 -31 11 -76 43 -140 102 -51 47 -94 92 -96 99
-2 7 8 25 22 39 l25 25 128 0 128 0 117 -40z m1090 -537 c33 -20 71 -52 85
-70 14 -18 57 -54 95 -79 38 -26 80 -63 92 -83 26 -40 52 -64 113 -105 47 -31
150 -136 178 -181 11 -16 40 -53 66 -82 35 -39 53 -71 72 -130 14 -43 37 -104
51 -135 31 -67 35 -148 10 -169 l-16 -13 -22 27 c-11 14 -32 40 -45 57 -13 18
-42 43 -65 57 -22 14 -88 71 -146 127 -106 103 -163 147 -235 184 -52 26 -260
166 -303 203 -18 16 -40 29 -50 29 -10 0 -34 12 -55 26 -21 14 -58 31 -82 39
-25 7 -89 43 -143 79 -61 42 -108 66 -125 66 -37 0 -91 23 -137 60 -21 16 -44
30 -51 30 -8 0 -21 5 -29 10 l-15 10 15 10 c9 6 117 10 262 10 l246 0 64 30
c34 16 74 30 86 30 13 0 51 -17 84 -37z m-3124 -1371 l32 -23 0 -44 c0 -50
-16 -65 -72 -65 -36 0 -60 13 -123 69 -53 46 -58 56 -38 76 l16 17 76 -4 c60
-2 83 -8 109 -26z"/>
</g>
</svg>
