<?xml version="1.0" standalone="no"?>
<!DOCTYPE svg PUBLIC "-//W3C//DTD SVG 20010904//EN"
 "http://www.w3.org/TR/2001/REC-SVG-20010904/DTD/svg10.dtd">
<svg version="1.0" xmlns="http://www.w3.org/2000/svg"
 width="306.000000pt" height="333.000000pt" viewBox="0 0 306.000000 333.000000"
 preserveAspectRatio="xMidYMid meet">
<metadata>
Created by potrace 1.16, written by Peter Selinger 2001-2019
</metadata>
<g transform="translate(0.000000,333.000000) scale(0.100000,-0.100000)"
fill="#000000" stroke="none">
<path d="M50 3316 c0 -8 -11 -28 -25 -44 -35 -42 -34 -99 3 -134 36 -34 85
-58 118 -58 15 0 48 -13 73 -29 25 -16 60 -32 77 -35 17 -4 56 -28 85 -53 30
-25 77 -61 104 -78 91 -59 158 -116 357 -306 54 -51 110 -111 125 -133 15 -23
55 -71 90 -108 35 -39 66 -82 71 -102 6 -19 28 -57 49 -83 51 -61 103 -145
103 -165 0 -8 16 -37 35 -64 22 -30 35 -61 35 -79 0 -18 15 -53 35 -85 37 -58
41 -71 50 -195 5 -59 13 -91 31 -122 13 -23 24 -53 24 -68 0 -26 32 -95 69
-150 l21 -30 0 -116 0 -117 32 -67 31 -68 -14 -26 c-11 -18 -22 -25 -40 -24
-120 10 -198 21 -216 31 -12 7 -54 12 -93 12 l-72 0 -65 30 -64 30 -70 0 c-39
0 -85 7 -106 15 -23 10 -68 15 -128 15 l-92 0 -16 -18 c-25 -27 -21 -60 12
-93 20 -20 40 -29 61 -29 17 0 47 -7 67 -15 19 -8 60 -15 90 -15 40 0 73 -8
120 -30 75 -35 75 -35 129 -14 l42 16 67 -31 c36 -17 77 -31 91 -31 14 0 41
-7 61 -15 19 -8 60 -15 90 -15 29 0 70 -7 90 -15 19 -8 47 -15 62 -15 39 0 68
-25 96 -81 31 -60 157 -249 182 -271 48 -44 140 -98 166 -98 16 0 55 -16 86
-35 64 -40 182 -84 223 -85 15 0 30 -4 33 -10 8 -14 432 -14 440 0 3 5 15 10
25 10 10 0 50 28 89 62 l71 62 0 88 c0 48 -5 90 -10 93 -15 10 -86 154 -99
202 -11 42 -77 113 -105 113 -7 0 -61 47 -120 105 -59 58 -114 105 -123 105
-21 0 -81 29 -127 62 -21 15 -46 28 -55 28 -9 0 -36 14 -61 30 -25 16 -58 30
-73 30 -16 0 -58 14 -94 30 -85 39 -162 41 -233 5 -57 -29 -80 -58 -80 -100 0
-16 -4 -37 -9 -44 -8 -12 -12 -9 -22 15 -6 16 -15 38 -20 49 -34 81 -79 238
-79 278 0 57 -30 152 -72 226 -23 42 -28 61 -23 87 4 24 -3 58 -25 121 -16 48
-30 104 -30 126 0 43 -29 107 -71 155 -16 18 -29 42 -29 53 0 12 -11 42 -24
68 -13 25 -33 66 -43 91 -10 25 -42 71 -70 104 -31 33 -57 75 -63 97 -6 22
-22 46 -37 56 -14 10 -39 32 -54 48 -140 146 -249 265 -266 291 -12 17 -39 43
-61 57 -21 15 -49 41 -61 58 l-22 30 12 16 13 15 66 -7 c136 -14 234 -1 400
51 25 8 62 14 83 14 21 0 47 5 58 11 11 6 41 14 67 19 57 11 122 27 182 46 30
9 91 14 179 14 l135 0 133 -45 c105 -36 146 -45 200 -45 l67 0 186 -91 c102
-50 205 -108 230 -129 25 -20 60 -45 78 -54 l32 -17 49 15 c122 36 121 53 -9
174 -55 50 -108 92 -117 92 -10 0 -38 14 -63 30 -25 16 -58 30 -75 30 -16 0
-50 14 -75 30 -25 16 -51 30 -58 30 -8 0 -43 14 -79 30 -47 22 -79 30 -119 30
-30 0 -71 7 -91 15 -19 8 -53 15 -75 15 -22 0 -64 11 -95 25 l-56 26 -30 -11
c-42 -14 -92 -13 -134 5 -19 8 -55 15 -78 15 -23 0 -59 -7 -78 -15 -20 -8 -54
-15 -76 -15 -23 0 -67 -13 -104 -30 -46 -21 -81 -30 -119 -30 -33 0 -85 -12
-138 -30 l-84 -30 -168 0 c-127 0 -177 4 -205 15 -19 8 -53 15 -75 15 -21 0
-55 7 -75 15 -19 8 -53 15 -75 15 -21 0 -55 7 -75 15 -19 8 -45 15 -57 15 -46
0 -233 77 -298 122 -33 23 -138 26 -138 4z m2317 -2561 c19 -8 48 -15 62 -15
17 0 37 -10 52 -26 13 -14 60 -50 104 -80 45 -29 93 -66 107 -81 38 -40 118
-165 118 -185 0 -9 16 -35 35 -59 70 -83 68 -101 -16 -130 -42 -15 -81 -19
-189 -19 l-135 0 -105 36 c-135 45 -155 55 -214 104 -26 22 -56 40 -66 40 -44
0 -113 103 -97 145 l6 15 142 0 142 0 19 17 c14 12 18 31 18 83 l0 67 -30 42
c-44 60 -27 77 47 46z"/>
</g>
</svg>
