<?xml version="1.0" standalone="no"?>
<!DOCTYPE svg PUBLIC "-//W3C//DTD SVG 20010904//EN"
 "http://www.w3.org/TR/2001/REC-SVG-20010904/DTD/svg10.dtd">
<svg version="1.0" xmlns="http://www.w3.org/2000/svg"
 width="852.000000pt" height="249.000000pt" viewBox="0 0 852.000000 249.000000"
 preserveAspectRatio="xMidYMid meet">
<metadata>
Created by potrace 1.16, written by Peter Selinger 2001-2019
</metadata>
<g transform="translate(0.000000,249.000000) scale(0.100000,-0.100000)"
fill="#000000" stroke="none">
<path d="M23 2476 c-18 -8 -23 -19 -23 -49 0 -48 29 -89 95 -132 28 -19 66
-50 84 -69 l35 -36 41 0 c33 0 56 -10 116 -50 40 -27 80 -50 87 -50 21 0 82
-30 126 -62 23 -16 52 -28 70 -28 18 0 50 -13 76 -30 26 -17 58 -30 76 -30 17
0 48 -11 68 -25 22 -15 51 -25 74 -25 20 -1 48 -7 62 -15 14 -8 34 -14 45 -15
12 0 36 -13 55 -30 26 -22 45 -29 77 -30 23 0 54 -5 70 -12 15 -6 55 -14 88
-18 40 -5 73 -16 99 -34 21 -14 49 -26 60 -26 12 0 31 -7 42 -15 10 -8 36 -15
57 -15 21 0 51 -7 66 -14 15 -8 37 -13 48 -10 11 3 52 -4 90 -15 56 -17 76
-19 100 -10 24 8 39 7 68 -5 21 -9 55 -16 77 -16 24 0 56 -10 82 -25 l43 -25
30 11 c24 8 39 7 68 -5 21 -9 55 -16 77 -16 21 0 55 -7 75 -15 26 -11 76 -15
194 -15 124 0 168 -4 200 -17 l41 -16 47 16 c52 19 184 23 227 7 l26 -10 44
25 c32 19 57 25 100 25 l58 0 42 45 41 45 67 0 68 0 86 90 86 90 23 73 c24 75
50 107 87 107 38 0 220 -68 281 -105 33 -19 71 -38 85 -42 14 -3 46 -18 71
-34 25 -16 58 -29 73 -29 44 0 107 -35 174 -94 35 -31 71 -56 82 -56 10 0 28
-14 40 -30 12 -17 81 -69 153 -117 88 -57 167 -121 237 -188 58 -56 121 -112
141 -124 19 -13 51 -47 70 -75 27 -40 44 -54 77 -65 52 -16 193 -143 265 -237
26 -35 51 -64 56 -64 5 0 45 -34 90 -75 44 -41 86 -75 92 -75 6 0 83 -71 172
-159 89 -87 171 -163 182 -169 27 -15 140 -109 191 -161 24 -23 64 -56 89 -72
l46 -29 144 0 143 0 30 28 c16 15 40 35 54 44 31 21 68 129 68 199 0 51 -27
144 -60 208 -33 64 -193 205 -356 313 -39 26 -77 54 -84 63 l-14 17 15 9 c8 5
112 9 232 9 171 0 225 -3 254 -15 19 -8 59 -15 87 -15 32 0 84 -11 136 -30 47
-16 94 -30 105 -30 12 0 59 -13 105 -30 53 -18 105 -30 138 -30 38 0 73 -9
119 -30 35 -16 81 -30 102 -30 50 0 135 -31 169 -62 15 -13 60 -35 100 -47 56
-18 86 -35 127 -73 30 -27 70 -54 90 -59 21 -6 65 -38 110 -79 l75 -70 50 0
50 0 0 69 0 70 -23 18 c-12 10 -36 35 -51 56 -16 21 -48 48 -70 59 -23 12 -54
31 -71 43 -16 13 -52 35 -80 49 -27 15 -74 42 -102 60 -29 19 -85 44 -125 56
-40 13 -92 34 -114 47 -24 13 -49 21 -58 17 -22 -8 -95 12 -174 47 -50 23 -78
29 -134 29 l-70 0 -65 30 c-35 17 -81 30 -101 30 -20 0 -57 6 -82 14 -78 25
-133 37 -195 45 -34 5 -71 13 -83 20 -16 8 -128 11 -419 8 -402 -3 -408 -4
-533 -43 -25 -8 -55 -14 -66 -14 -12 0 -47 -11 -78 -25 -31 -14 -63 -25 -70
-25 -7 0 -41 25 -75 55 -34 30 -66 55 -71 55 -5 0 -59 47 -119 105 -61 58
-114 105 -119 105 -5 0 -65 52 -133 116 -68 64 -144 126 -169 139 -25 12 -73
47 -107 76 -101 87 -213 169 -303 221 -25 14 -55 40 -68 57 -26 35 -109 81
-147 81 -25 0 -99 39 -216 114 -30 20 -66 36 -80 36 -29 0 -123 31 -197 66
-29 13 -64 24 -78 24 -14 0 -55 14 -91 30 -50 23 -78 30 -128 30 l-63 0 -61
-45 -61 -45 0 -31 c0 -17 6 -52 14 -78 8 -25 20 -69 26 -96 l11 -51 -16 -36
c-8 -20 -27 -45 -41 -55 -15 -10 -49 -40 -75 -66 l-49 -49 -65 7 -65 7 -26
-17 -27 -17 -266 0 -266 0 -43 17 c-35 14 -61 17 -126 12 l-83 -6 -24 17 c-16
11 -55 20 -114 24 -128 10 -201 22 -216 35 -8 6 -61 14 -119 17 -58 4 -127 12
-155 18 -47 10 -70 17 -155 48 -19 7 -49 12 -66 11 -20 0 -53 12 -87 33 -38
22 -74 35 -110 39 -30 3 -76 15 -103 28 -27 12 -65 26 -84 30 -51 10 -98 28
-160 59 -30 15 -79 30 -107 33 -29 3 -72 17 -96 32 -24 14 -51 25 -59 25 -8 0
-58 22 -109 50 -52 27 -101 50 -109 50 -8 0 -35 14 -60 30 -25 16 -52 30 -61
30 -8 0 -26 12 -40 26 -26 28 -89 64 -112 64 -8 0 -39 18 -70 40 -57 41 -91
48 -134 26z m6184 -1706 c35 -16 69 -30 75 -30 24 0 147 -65 188 -99 25 -21
61 -46 80 -56 73 -38 160 -151 194 -253 27 -83 27 -97 -6 -145 l-19 -27 -43 0
c-32 0 -53 7 -82 30 -21 16 -80 57 -129 91 -50 33 -103 79 -118 100 -16 22
-50 50 -77 64 -27 14 -57 36 -67 51 -41 59 -68 87 -104 110 -38 23 -109 121
-109 149 0 25 42 45 98 45 39 0 72 -8 119 -30z"/>
</g>
</svg>
