<?xml version="1.0" standalone="no"?>
<!DOCTYPE svg PUBLIC "-//W3C//DTD SVG 20010904//EN"
 "http://www.w3.org/TR/2001/REC-SVG-20010904/DTD/svg10.dtd">
<svg version="1.0" xmlns="http://www.w3.org/2000/svg"
 width="303.000000pt" height="243.000000pt" viewBox="0 0 303.000000 243.000000"
 preserveAspectRatio="xMidYMid meet">
<metadata>
Created by potrace 1.16, written by Peter Selinger 2001-2019
</metadata>
<g transform="translate(0.000000,243.000000) scale(0.100000,-0.100000)"
fill="#000000" stroke="none">
<path d="M545 2420 c-3 -5 -41 -10 -83 -10 -60 0 -84 -5 -107 -20 -16 -11 -40
-20 -52 -20 -12 0 -47 -11 -77 -25 -30 -14 -61 -25 -69 -25 -29 0 -79 -86
-117 -201 -11 -35 -25 -72 -30 -81 -15 -27 -12 -134 4 -147 16 -14 66 -157 66
-190 0 -25 32 -92 65 -136 12 -17 39 -63 59 -103 50 -100 198 -317 253 -372
74 -75 169 -184 196 -226 13 -22 45 -52 69 -68 25 -16 58 -49 74 -73 15 -25
49 -58 74 -75 25 -16 58 -47 73 -68 15 -22 51 -52 80 -67 32 -17 62 -44 80
-71 19 -28 46 -51 80 -68 29 -15 72 -43 96 -62 66 -54 154 -112 169 -112 19 0
81 -30 117 -56 47 -35 172 -94 198 -94 24 0 122 -32 134 -43 3 -4 53 -7 110
-7 l103 0 0 33 c0 44 -18 58 -110 87 -41 13 -110 41 -153 62 -43 21 -82 38
-88 38 -10 0 -103 52 -199 113 -30 19 -67 37 -82 41 -15 3 -61 36 -102 74 -76
68 -148 125 -221 174 -47 31 -395 381 -395 397 0 6 -24 38 -54 71 -128 143
-117 188 33 138 36 -12 102 -39 145 -61 l79 -38 111 4 c61 2 131 10 156 17 25
7 75 21 112 32 l67 20 51 54 50 53 0 96 0 95 -50 99 c-37 75 -59 106 -89 128
-22 15 -54 49 -71 76 -22 34 -46 55 -88 76 -31 16 -85 54 -120 85 -34 31 -70
56 -78 56 -16 0 -112 53 -194 108 -27 17 -83 43 -125 57 -91 30 -115 42 -115
59 0 23 25 26 201 26 128 0 178 -4 206 -15 19 -8 65 -15 102 -15 49 0 90 -8
151 -30 47 -16 102 -30 123 -30 21 0 54 -7 74 -15 22 -9 68 -15 122 -15 l86 0
45 -30 c25 -16 58 -30 73 -30 15 0 44 -7 64 -15 19 -8 47 -15 62 -15 14 0 46
-14 71 -30 25 -16 56 -30 70 -30 34 0 227 -67 259 -89 51 -36 171 -91 199 -91
32 0 58 -16 124 -77 36 -33 55 -43 81 -43 24 0 41 -8 61 -29 15 -16 40 -31 56
-35 16 -3 37 -17 47 -32 10 -15 30 -40 45 -55 l26 -29 51 0 51 0 0 68 0 68
-61 53 c-79 70 -144 114 -232 158 -39 20 -89 49 -111 64 -21 16 -46 29 -55 29
-9 0 -33 11 -53 25 -20 14 -72 36 -115 50 -98 32 -170 66 -224 105 l-42 30
-56 0 c-58 0 -135 22 -229 66 -29 13 -64 24 -78 24 -13 0 -41 7 -61 15 -19 8
-53 15 -75 15 -21 0 -55 7 -75 15 -19 8 -52 15 -72 15 -20 0 -75 13 -121 30
-47 16 -102 30 -123 30 -21 0 -54 7 -74 15 -26 11 -75 15 -184 15 -88 0 -150
4 -154 10 -4 6 -63 10 -145 10 -82 0 -141 -4 -145 -10z m-158 -345 c19 -8 45
-15 57 -15 12 0 60 -13 106 -30 47 -16 96 -30 108 -30 35 0 91 -28 142 -70 25
-21 65 -47 90 -60 25 -13 59 -33 75 -45 17 -13 53 -34 80 -48 101 -51 204
-162 229 -248 8 -27 24 -63 36 -78 27 -39 25 -52 -12 -87 -53 -49 -96 -64
-188 -64 l-82 0 -65 30 c-35 17 -70 30 -76 30 -7 0 -32 14 -57 30 -33 22 -57
30 -90 30 -52 0 -70 11 -156 89 -33 31 -79 68 -101 83 -40 27 -103 115 -194
270 -56 97 -50 168 20 211 32 20 34 20 78 2z"/>
</g>
</svg>
