<?xml version="1.0" standalone="no"?>
<!DOCTYPE svg PUBLIC "-//W3C//DTD SVG 20010904//EN"
 "http://www.w3.org/TR/2001/REC-SVG-20010904/DTD/svg10.dtd">
<svg version="1.0" xmlns="http://www.w3.org/2000/svg"
 width="480.000000pt" height="375.000000pt" viewBox="0 0 480.000000 375.000000"
 preserveAspectRatio="xMidYMid meet">
<metadata>
Created by potrace 1.16, written by Peter Selinger 2001-2019
</metadata>
<g transform="translate(0.000000,375.000000) scale(0.100000,-0.100000)"
fill="#000000" stroke="none">
<path d="M1940 3724 c-14 -13 -63 -59 -108 -101 -49 -46 -94 -98 -108 -125
l-24 -47 0 -124 0 -124 58 -71 c56 -71 142 -142 170 -142 7 0 43 -13 79 -30
35 -16 68 -30 72 -30 9 0 103 -40 111 -47 18 -16 -58 -23 -278 -23 l-253 0
-36 15 c-19 8 -53 15 -75 15 -21 0 -55 7 -75 15 -19 8 -48 15 -63 15 -25 0
-100 45 -114 69 -4 6 -25 15 -47 21 -26 7 -62 32 -107 74 -37 35 -90 75 -117
89 -28 13 -78 50 -113 81 -34 31 -71 56 -81 56 -10 0 -37 15 -61 33 -109 81
-167 117 -190 117 -28 0 -121 30 -187 61 -24 10 -52 19 -63 19 -12 0 -38 10
-59 22 -45 26 -65 22 -141 -26 -30 -19 -72 -44 -92 -56 l-38 -20 0 -40 c0 -22
4 -48 9 -58 5 -9 17 -37 27 -62 26 -62 98 -136 164 -170 30 -15 83 -53 118
-84 47 -42 70 -56 93 -56 35 0 89 -23 134 -56 51 -38 236 -94 309 -94 66 0
183 -35 216 -65 9 -8 35 -15 57 -15 l41 0 26 -35 c15 -19 34 -35 42 -35 29 0
71 -32 102 -79 16 -26 50 -60 75 -75 42 -27 59 -50 85 -117 6 -15 30 -40 54
-56 28 -19 53 -48 73 -85 17 -31 55 -82 86 -114 30 -33 64 -72 74 -89 11 -16
47 -60 82 -98 34 -37 75 -91 89 -119 15 -29 44 -73 64 -98 21 -25 45 -61 55
-80 9 -19 33 -60 52 -90 91 -144 113 -189 113 -230 0 -40 26 -101 69 -165 12
-16 21 -42 21 -57 0 -14 13 -55 30 -90 16 -34 30 -75 30 -89 0 -15 7 -43 15
-62 8 -20 15 -61 15 -90 0 -30 7 -71 15 -90 15 -37 21 -199 9 -231 -10 -27
-28 -18 -108 54 -42 38 -84 70 -94 70 -9 0 -59 20 -110 45 -52 25 -98 45 -103
45 -32 0 -142 -48 -186 -81 l-53 -40 0 -125 0 -124 36 -73 c20 -39 52 -89 70
-111 18 -21 40 -62 50 -92 l17 -54 122 0 123 0 5 26 c4 21 -4 36 -33 68 -46
50 -130 176 -130 195 0 8 -14 36 -31 62 -34 54 -33 80 6 105 l24 16 65 -22
c71 -24 95 -42 130 -98 13 -21 44 -50 68 -66 25 -16 58 -48 74 -73 40 -64 53
-68 106 -33 51 34 148 154 148 183 0 11 9 35 20 53 l21 33 -4 158 c-3 149 -8
183 -43 293 -8 25 -14 55 -14 67 0 11 -13 50 -30 85 -17 35 -30 80 -30 101 0
67 -44 180 -106 269 -18 27 -36 63 -39 80 -9 42 -67 157 -111 220 -18 27 -36
64 -40 82 -5 31 -42 90 -121 196 -18 24 -33 51 -33 61 0 11 -22 43 -48 72 -26
29 -74 92 -105 139 -31 48 -77 104 -101 124 -25 20 -56 59 -71 85 -15 28 -43
60 -68 76 -49 34 -85 97 -66 119 l11 14 354 0 353 0 64 30 c36 17 77 30 91 30
14 0 49 11 78 25 29 13 89 36 132 50 45 15 94 38 113 55 70 62 150 103 282
147 l136 44 36 -10 c20 -6 93 -11 163 -11 90 0 137 -4 163 -15 22 -9 67 -15
120 -15 52 0 97 -6 120 -15 22 -9 67 -15 117 -15 65 0 99 -6 166 -30 47 -16
103 -30 124 -30 68 0 230 -86 319 -169 l77 -71 35 0 c20 0 49 7 65 15 l30 16
0 52 -1 52 -99 93 c-55 50 -108 92 -117 92 -10 0 -60 20 -111 45 -59 28 -107
45 -131 45 -20 0 -75 13 -121 30 l-85 30 -98 0 c-64 0 -110 5 -134 15 -19 8
-60 15 -90 15 -29 0 -70 7 -90 15 -19 8 -60 15 -90 15 -29 0 -70 7 -90 15 -26
11 -76 15 -199 15 l-163 0 -11 19 c-5 11 -10 43 -10 71 0 64 -10 84 -62 116
-23 15 -72 55 -109 90 l-68 64 -33 0 c-20 0 -51 12 -78 30 -25 16 -51 30 -58
30 -8 0 -43 14 -79 30 -35 17 -77 30 -93 30 -16 0 -32 5 -35 10 -4 6 -111 10
-293 9 l-287 -1 -25 -24z m457 -149 c19 -8 51 -15 71 -15 45 0 144 -33 242
-81 41 -20 87 -39 101 -42 36 -9 85 -62 105 -113 25 -66 13 -105 -55 -174 -62
-64 -92 -80 -150 -80 -21 0 -55 -7 -74 -15 -20 -8 -59 -15 -87 -15 -28 0 -67
7 -87 15 -19 8 -53 15 -75 15 -21 0 -55 7 -75 15 -19 8 -45 15 -56 15 -11 0
-69 16 -129 36 -119 40 -146 60 -185 137 l-24 49 6 64 c8 74 40 126 107 174
l41 30 144 0 c105 0 153 -4 180 -15z m-1956 -284 c80 -6 82 -7 166 -81 28 -25
64 -55 80 -67 55 -42 14 -41 -112 3 -23 8 -53 14 -67 14 -15 0 -45 15 -70 35
-24 19 -58 45 -75 56 -36 23 -48 68 -15 53 9 -4 51 -10 93 -13z"/>
</g>
</svg>
