<?xml version="1.0" standalone="no"?>
<!DOCTYPE svg PUBLIC "-//W3C//DTD SVG 20010904//EN"
 "http://www.w3.org/TR/2001/REC-SVG-20010904/DTD/svg10.dtd">
<svg version="1.0" xmlns="http://www.w3.org/2000/svg"
 width="363.000000pt" height="210.000000pt" viewBox="0 0 363.000000 210.000000"
 preserveAspectRatio="xMidYMid meet">
<metadata>
Created by potrace 1.16, written by Peter Selinger 2001-2019
</metadata>
<g transform="translate(0.000000,210.000000) scale(0.100000,-0.100000)"
fill="#000000" stroke="none">
<path d="M2 2034 l3 -66 65 -34 c35 -18 83 -49 107 -69 26 -22 72 -45 123 -61
63 -21 92 -37 133 -74 52 -47 123 -90 151 -90 8 0 24 -13 36 -30 12 -16 67
-60 123 -97 56 -38 125 -92 154 -120 31 -32 61 -53 74 -53 14 0 46 -26 91 -74
38 -41 79 -76 91 -78 14 -2 34 -24 57 -61 19 -33 53 -71 75 -86 26 -17 45 -41
55 -67 8 -23 28 -61 43 -85 68 -105 107 -180 107 -202 0 -14 7 -41 15 -60 10
-25 15 -71 15 -147 0 -76 -5 -122 -15 -147 -8 -19 -15 -49 -15 -65 0 -37 -40
-78 -75 -78 -33 0 -139 48 -196 89 -23 17 -48 31 -56 31 -15 0 -114 55 -193
108 -27 17 -85 43 -127 57 -108 35 -157 59 -202 100 -24 22 -49 35 -66 35 -15
0 -56 14 -92 30 -35 17 -69 30 -75 30 -5 0 -36 16 -67 35 -32 20 -89 47 -127
60 -105 37 -154 31 -154 -20 0 -27 82 -106 140 -135 25 -13 59 -33 75 -45 35
-27 169 -95 186 -95 17 0 80 -31 114 -56 52 -39 233 -124 264 -124 19 0 45
-13 73 -35 51 -41 180 -110 225 -119 20 -5 57 -31 98 -72 l67 -64 109 0 c65 0
109 4 109 10 0 5 29 40 64 77 70 75 84 99 116 192 l21 63 -4 137 c-2 75 -9
156 -16 181 -38 132 -55 178 -75 205 -13 17 -40 64 -61 105 -24 49 -62 102
-109 150 -39 42 -102 113 -141 159 -38 46 -87 95 -109 109 -22 13 -60 44 -85
67 -25 23 -68 54 -95 68 -27 15 -68 46 -90 69 -23 24 -54 53 -71 64 -48 35
-24 48 72 40 93 -8 185 -8 393 2 l155 8 75 27 c41 15 92 27 113 27 21 0 48 5
60 12 12 6 48 14 82 19 62 8 117 20 195 45 26 8 86 14 141 14 63 0 109 5 132
15 22 9 68 15 114 15 l77 0 133 -45 132 -45 77 0 77 0 179 -60 c98 -33 186
-60 196 -60 19 0 122 -33 162 -53 14 -6 43 -24 64 -39 30 -21 51 -28 88 -28
l48 0 0 70 0 70 -37 19 c-21 11 -60 38 -87 60 l-48 41 -44 0 c-25 0 -61 7 -81
15 -19 8 -53 15 -75 15 -22 0 -64 12 -95 26 -53 24 -122 47 -223 74 -25 6 -79
15 -120 20 -41 4 -88 12 -105 18 -90 31 -132 36 -334 39 l-214 4 -39 -16 c-22
-8 -69 -15 -109 -15 -39 0 -79 -5 -90 -11 -11 -6 -41 -14 -67 -19 -67 -12
-124 -28 -227 -61 -50 -16 -100 -29 -112 -29 -11 0 -37 -7 -56 -15 l-36 -15
-276 0 -276 0 -36 15 c-19 8 -45 15 -57 15 -12 0 -60 13 -106 30 -47 16 -94
30 -105 30 -30 0 -221 66 -293 101 -35 17 -68 39 -75 50 l-12 19 -98 0 -98 0
3 -66z"/>
</g>
</svg>
