<?xml version="1.0" standalone="no"?>
<!DOCTYPE svg PUBLIC "-//W3C//DTD SVG 20010904//EN"
 "http://www.w3.org/TR/2001/REC-SVG-20010904/DTD/svg10.dtd">
<svg version="1.0" xmlns="http://www.w3.org/2000/svg"
 width="273.000000pt" height="411.000000pt" viewBox="0 0 273.000000 411.000000"
 preserveAspectRatio="xMidYMid meet">
<metadata>
Created by potrace 1.16, written by Peter Selinger 2001-2019
</metadata>
<g transform="translate(0.000000,411.000000) scale(0.100000,-0.100000)"
fill="#000000" stroke="none">
<path d="M515 4100 c-3 -5 -24 -10 -46 -10 -44 0 -124 -25 -209 -64 -30 -14
-61 -26 -69 -26 -8 0 -35 -13 -60 -28 -25 -16 -65 -35 -88 -42 l-43 -13 0
-183 c0 -111 4 -185 10 -189 6 -3 10 -14 10 -23 0 -22 65 -117 124 -183 26
-28 49 -63 53 -78 3 -14 19 -54 35 -88 15 -34 28 -67 28 -73 0 -7 16 -30 35
-51 36 -40 115 -193 115 -223 0 -9 24 -41 54 -70 34 -35 57 -66 61 -87 12 -54
44 -110 97 -168 46 -50 81 -112 90 -156 5 -28 55 -59 140 -85 40 -12 89 -33
109 -45 19 -13 63 -37 97 -54 35 -17 79 -47 100 -65 20 -18 66 -48 101 -66 73
-36 160 -99 178 -128 6 -11 40 -38 75 -62 35 -24 82 -60 105 -81 24 -22 47
-39 52 -39 4 0 92 -84 194 -186 l186 -186 7 -35 c5 -25 18 -43 49 -66 23 -18
67 -68 96 -112 29 -44 68 -98 86 -120 19 -22 37 -51 40 -65 3 -14 39 -93 80
-176 l73 -150 0 -86 c0 -53 6 -99 15 -121 24 -58 19 -105 -23 -187 l-37 -75
-35 -7 c-39 -7 -70 -39 -70 -72 0 -33 50 -76 87 -76 18 0 35 5 38 10 3 6 15
10 26 10 29 0 146 116 175 172 13 26 24 59 24 73 0 14 7 42 15 62 8 19 15 55
15 79 0 23 5 46 10 49 6 3 10 21 10 40 0 19 -4 37 -10 40 -5 3 -10 26 -10 49
0 24 -7 60 -15 79 -8 20 -15 48 -15 63 0 15 -13 48 -29 73 -16 25 -31 57 -34
71 -4 14 -24 55 -47 92 -22 37 -40 72 -40 78 0 20 -42 94 -80 140 -36 44 -70
107 -70 129 0 32 -54 113 -90 136 -22 14 -51 42 -64 63 -26 41 -52 65 -112
105 -22 15 -92 79 -155 143 -71 71 -150 139 -210 179 -53 36 -104 74 -114 85
-10 11 -34 25 -54 30 -44 12 -58 24 -96 73 -27 36 -89 77 -117 77 -8 0 -51 25
-96 55 -90 60 -154 95 -173 95 -7 0 -33 13 -58 29 -25 16 -61 32 -79 36 -37 8
-82 49 -127 116 -16 24 -46 64 -66 89 -38 47 -69 108 -69 133 0 8 -18 37 -40
63 -34 42 -70 125 -70 163 0 19 53 12 140 -19 l85 -30 148 0 147 0 73 36 c99
50 131 82 157 163 l21 68 -21 63 c-12 35 -30 80 -40 99 -24 47 -183 201 -240
233 -25 14 -54 36 -65 48 -11 12 -51 38 -88 57 -38 19 -86 46 -106 61 -40 29
-146 80 -221 106 -25 9 -56 25 -70 35 l-24 19 13 16 13 16 280 0 279 0 36 -15
c22 -9 67 -15 117 -15 65 0 99 -6 166 -30 47 -16 102 -30 123 -30 21 0 54 -7
74 -15 19 -8 60 -15 90 -15 29 0 70 -7 90 -15 19 -8 52 -15 72 -15 37 0 156
-37 209 -64 16 -8 85 -34 153 -56 137 -45 141 -47 186 -106 21 -26 44 -44 62
-47 16 -4 38 -18 48 -33 10 -15 47 -58 82 -96 64 -68 79 -75 129 -62 l22 6 0
58 0 58 -35 58 c-48 79 -85 116 -184 182 -46 30 -98 67 -115 82 -42 37 -79 55
-183 88 -48 16 -107 39 -130 51 -23 11 -53 21 -65 21 -13 0 -43 6 -68 14 -94
30 -138 38 -225 45 -49 4 -100 12 -112 19 -12 7 -40 12 -63 12 -22 0 -57 7
-77 15 -19 8 -53 15 -75 15 -21 0 -55 7 -75 15 -22 9 -68 15 -124 15 -48 0
-91 5 -94 10 -4 6 -113 10 -295 10 -182 0 -291 -4 -295 -10z m-158 -355 c39
-13 89 -32 110 -43 21 -10 73 -29 117 -43 54 -16 92 -35 120 -60 22 -20 70
-51 105 -69 74 -37 160 -100 179 -129 6 -12 30 -32 51 -46 22 -13 49 -35 61
-47 56 -59 80 -177 41 -198 -11 -5 -86 -10 -171 -10 -160 0 -190 6 -252 53
-40 30 -163 92 -200 101 -15 3 -35 18 -45 32 -10 14 -42 53 -71 86 -29 34 -55
73 -58 87 -4 14 -19 47 -35 72 -16 25 -29 51 -29 57 0 6 -13 40 -30 75 -35 76
-34 71 -14 91 21 21 36 20 121 -9z"/>
</g>
</svg>
