<?xml version="1.0" standalone="no"?>
<!DOCTYPE svg PUBLIC "-//W3C//DTD SVG 20010904//EN"
 "http://www.w3.org/TR/2001/REC-SVG-20010904/DTD/svg10.dtd">
<svg version="1.0" xmlns="http://www.w3.org/2000/svg"
 width="330.000000pt" height="153.000000pt" viewBox="0 0 330.000000 153.000000"
 preserveAspectRatio="xMidYMid meet">
<metadata>
Created by potrace 1.16, written by Peter Selinger 2001-2019
</metadata>
<g transform="translate(0.000000,153.000000) scale(0.100000,-0.100000)"
fill="#000000" stroke="none">
<path d="M150 1521 c-8 -4 -33 -18 -55 -30 -22 -12 -52 -27 -68 -34 l-27 -11
0 -68 0 -68 29 0 c16 0 45 7 64 15 26 11 73 15 164 15 l128 0 45 -30 c25 -16
59 -30 75 -30 17 0 50 -14 75 -30 27 -18 58 -30 78 -30 23 0 43 -10 69 -34
l37 -33 -12 -40 c-7 -23 -12 -99 -12 -174 l0 -134 61 -90 c33 -49 71 -110 84
-136 13 -25 40 -59 60 -75 20 -16 51 -44 68 -62 152 -158 267 -251 388 -312
24 -13 58 -33 74 -45 48 -36 112 -65 144 -65 16 0 33 -4 36 -10 7 -12 148 -13
173 -2 9 5 31 15 47 23 18 9 41 35 57 64 l28 50 0 138 0 137 -36 71 c-58 115
-170 252 -251 306 -29 19 -69 57 -89 84 -21 29 -54 59 -78 70 -22 12 -61 38
-86 59 -25 21 -69 50 -97 64 -67 35 -129 89 -119 104 4 7 34 12 75 12 38 0 84
7 104 15 20 8 52 15 72 15 20 0 52 -7 72 -15 25 -11 72 -15 165 -15 l130 0 65
-30 c35 -16 81 -30 102 -30 20 0 75 -13 121 -30 47 -16 94 -30 105 -30 26 0
124 -33 193 -66 29 -13 57 -24 63 -24 6 0 40 -13 76 -30 35 -16 69 -30 75 -30
5 0 39 -13 75 -30 35 -16 70 -30 77 -30 7 0 23 -12 37 -26 24 -26 89 -64 109
-64 14 0 92 -64 189 -156 73 -69 143 -114 176 -114 l15 0 0 98 0 98 -87 75
c-122 104 -147 122 -238 169 -44 23 -104 56 -133 75 -29 18 -91 45 -138 60
-47 15 -116 42 -155 61 -104 51 -322 118 -434 134 -65 9 -121 27 -203 65 -40
19 -69 25 -123 25 -39 0 -85 7 -106 15 -51 22 -405 22 -456 0 -20 -8 -54 -15
-76 -15 -23 0 -67 -13 -104 -30 -79 -37 -93 -37 -164 -4 -31 14 -91 36 -132
50 -42 13 -96 34 -120 45 -23 11 -80 32 -125 46 -44 14 -93 34 -108 45 l-26
18 -104 -1 c-56 0 -110 -4 -118 -8z m898 -498 c21 -9 58 -33 83 -54 26 -21 68
-48 95 -60 67 -30 63 -27 143 -92 63 -51 106 -90 216 -195 17 -16 54 -61 84
-101 30 -39 63 -79 73 -88 12 -10 18 -30 18 -56 0 -21 8 -61 17 -87 l17 -48
-12 -26 -12 -26 -70 0 c-83 0 -155 28 -217 83 -21 19 -54 42 -73 52 -119 60
-260 213 -413 445 -48 74 -92 202 -77 229 22 43 69 52 128 24z"/>
</g>
</svg>
