<?xml version="1.0" standalone="no"?>
<!DOCTYPE svg PUBLIC "-//W3C//DTD SVG 20010904//EN"
 "http://www.w3.org/TR/2001/REC-SVG-20010904/DTD/svg10.dtd">
<svg version="1.0" xmlns="http://www.w3.org/2000/svg"
 width="624.000000pt" height="174.000000pt" viewBox="0 0 624.000000 174.000000"
 preserveAspectRatio="xMidYMid meet">
<metadata>
Created by potrace 1.16, written by Peter Selinger 2001-2019
</metadata>
<g transform="translate(0.000000,174.000000) scale(0.100000,-0.100000)"
fill="#000000" stroke="none">
<path d="M215 1730 c-3 -5 -27 -10 -53 -10 -49 0 -119 -32 -132 -60 -4 -8 -12
-25 -18 -37 -15 -28 -16 -80 -2 -88 6 -4 20 -25 31 -48 37 -74 109 -131 189
-150 14 -4 44 -22 67 -41 26 -23 70 -45 123 -62 46 -15 118 -44 162 -65 43
-22 88 -39 100 -39 12 0 63 -13 113 -29 134 -43 172 -52 255 -60 41 -4 85 -13
97 -19 12 -7 40 -12 63 -12 22 0 57 -7 77 -15 20 -8 66 -15 105 -15 38 0 84
-7 105 -15 22 -9 67 -15 120 -15 52 0 97 -6 120 -15 45 -19 81 -19 128 0 29
13 44 14 69 5 23 -7 41 -7 60 0 15 5 65 10 110 10 52 0 97 6 119 15 23 9 68
15 121 15 l85 0 64 30 c36 17 70 30 75 30 6 0 40 14 75 30 36 17 68 30 72 30
14 0 162 -95 197 -126 21 -18 82 -63 137 -99 54 -35 118 -81 141 -100 23 -19
49 -35 57 -35 20 0 81 -29 118 -56 37 -27 170 -94 187 -94 7 0 55 -20 106 -45
52 -25 99 -45 105 -45 7 0 32 -14 57 -30 25 -16 56 -30 70 -30 28 0 211 -60
276 -90 79 -36 164 -60 214 -60 28 0 67 -7 87 -15 19 -8 60 -15 90 -15 29 0
70 -7 90 -15 19 -8 53 -15 75 -15 21 0 55 -7 75 -15 22 -9 67 -15 120 -15 52
0 97 -6 120 -15 24 -10 71 -15 150 -15 l114 0 56 -26 c31 -14 91 -36 132 -50
42 -13 100 -36 129 -49 31 -15 71 -25 97 -25 24 0 47 -4 50 -10 8 -13 282 -13
290 0 3 6 15 10 25 10 11 0 51 28 89 62 l71 63 0 41 c0 31 -6 46 -27 66 -37
35 -265 148 -298 148 -14 0 -42 7 -62 15 -25 10 -71 15 -152 15 l-116 0 -85
-30 c-46 -17 -100 -30 -118 -30 -47 0 -211 80 -284 138 -32 26 -78 61 -103 77
-50 35 -171 167 -180 196 -10 29 20 67 61 78 48 13 74 38 74 71 0 42 -32 64
-77 55 -21 -4 -63 -10 -93 -14 -68 -9 -127 -39 -168 -86 l-32 -36 0 -52 0 -52
40 -59 c60 -88 199 -215 313 -286 54 -34 61 -55 16 -46 -19 4 -70 11 -114 15
-44 4 -90 13 -102 19 -12 7 -39 12 -60 12 -21 0 -58 6 -83 14 -88 28 -136 38
-205 45 -53 5 -80 13 -110 34 -22 15 -52 27 -68 27 -16 0 -53 11 -83 25 -71
33 -168 65 -194 65 -12 0 -51 18 -88 40 -37 23 -78 43 -92 47 -14 3 -46 18
-71 34 -25 16 -52 29 -60 29 -22 1 -77 31 -169 92 -47 31 -99 59 -116 63 -17
3 -55 27 -85 52 -29 25 -103 78 -164 118 -125 84 -251 188 -260 214 -3 10 -30
42 -60 70 l-54 51 -36 0 c-37 0 -86 -20 -118 -48 -11 -10 -17 -30 -17 -60 0
-114 -120 -192 -296 -192 -50 0 -95 -6 -117 -15 -52 -22 -422 -22 -474 0 -23
10 -69 15 -132 15 l-97 0 -84 30 c-47 16 -102 30 -123 30 -21 0 -54 7 -74 15
-19 8 -53 15 -75 15 -21 0 -55 7 -75 15 -19 8 -49 15 -65 15 -46 0 -78 39 -78
95 0 67 -31 120 -124 208 -94 90 -193 147 -256 147 -22 0 -57 7 -77 15 -19 8
-48 15 -64 15 -15 0 -31 5 -34 10 -3 6 -21 10 -40 10 -19 0 -37 -4 -40 -10z
m198 -210 c29 0 109 -43 155 -84 23 -20 31 -66 11 -66 -39 0 -123 36 -161 69
-23 21 -62 48 -85 60 -64 32 -51 62 16 35 18 -8 47 -14 64 -14z m5374 -1275
c19 -8 48 -15 64 -15 33 0 86 -41 75 -58 -12 -19 -116 -14 -181 9 -101 35
-127 53 -108 72 12 13 113 7 150 -8z"/>
</g>
</svg>
