<?xml version="1.0" standalone="no"?>
<!DOCTYPE svg PUBLIC "-//W3C//DTD SVG 20010904//EN"
 "http://www.w3.org/TR/2001/REC-SVG-20010904/DTD/svg10.dtd">
<svg version="1.0" xmlns="http://www.w3.org/2000/svg"
 width="336.000000pt" height="411.000000pt" viewBox="0 0 336.000000 411.000000"
 preserveAspectRatio="xMidYMid meet">
<metadata>
Created by potrace 1.16, written by Peter Selinger 2001-2019
</metadata>
<g transform="translate(0.000000,411.000000) scale(0.100000,-0.100000)"
fill="#000000" stroke="none">
<path d="M0 4045 c0 -50 5 -72 20 -93 11 -15 24 -50 28 -78 10 -61 56 -124
194 -266 53 -54 121 -136 152 -182 54 -80 282 -322 339 -359 15 -10 41 -44 57
-75 17 -31 46 -76 65 -100 19 -24 35 -52 35 -62 0 -11 28 -40 66 -70 83 -65
184 -169 229 -236 18 -27 53 -63 77 -78 24 -15 54 -44 68 -64 13 -20 53 -67
87 -105 34 -37 74 -89 88 -116 14 -28 42 -62 64 -77 21 -16 49 -44 62 -64 13
-19 52 -66 87 -104 62 -66 101 -132 102 -168 0 -10 20 -32 44 -50 24 -18 54
-49 67 -68 13 -19 76 -88 141 -153 65 -65 126 -133 134 -150 34 -64 98 -149
139 -184 24 -20 55 -58 70 -85 15 -27 40 -59 57 -71 16 -12 42 -42 56 -67 14
-25 46 -65 71 -90 25 -25 59 -66 76 -90 16 -25 68 -85 115 -135 48 -49 95
-103 106 -120 10 -16 38 -53 61 -81 39 -46 55 -85 36 -84 -24 2 -140 70 -294
173 -97 64 -182 117 -190 117 -8 0 -34 14 -59 30 -25 16 -51 30 -59 30 -19 0
-202 92 -271 136 -30 19 -66 37 -80 41 -33 8 -168 88 -203 121 -26 25 -46 38
-167 107 -29 17 -75 45 -102 63 -27 18 -81 49 -121 69 -39 20 -89 49 -111 64
-21 16 -46 29 -55 29 -9 0 -54 25 -99 55 -92 61 -144 89 -184 99 -14 3 -50 27
-80 53 -63 57 -127 102 -187 132 -24 13 -62 36 -84 52 -22 16 -47 29 -55 29
-22 0 -260 117 -299 146 -17 13 -41 24 -52 24 -21 0 -41 -27 -41 -55 0 -21 76
-102 124 -133 22 -13 60 -44 85 -67 46 -42 118 -85 144 -85 7 0 25 -13 40 -28
15 -16 60 -43 100 -61 39 -18 86 -40 103 -48 17 -8 54 -34 81 -58 27 -24 100
-69 163 -101 63 -32 130 -72 150 -90 19 -17 49 -35 67 -38 17 -4 51 -24 75
-45 42 -37 214 -131 241 -131 7 0 53 -27 102 -60 50 -33 98 -60 107 -60 9 0
19 -4 23 -10 23 -38 214 -170 246 -170 18 0 80 -32 123 -62 21 -15 46 -28 55
-28 9 0 36 -14 61 -30 25 -16 51 -30 58 -30 20 0 249 -136 315 -188 23 -18 55
-40 71 -50 15 -9 54 -34 85 -54 31 -21 63 -38 72 -38 9 0 29 -16 43 -35 31
-40 74 -64 167 -94 35 -12 72 -26 81 -31 33 -19 94 -11 137 17 l41 27 0 87 c0
49 -5 91 -10 94 -6 4 -21 28 -35 55 -15 30 -40 59 -67 77 -25 16 -54 48 -68
74 -34 62 -49 79 -72 79 -12 0 -28 17 -46 47 -15 26 -55 76 -89 110 -34 34
-71 80 -83 102 -12 24 -39 53 -68 72 -26 17 -59 47 -72 68 -14 20 -39 54 -57
75 -18 22 -37 54 -42 71 -13 49 -84 146 -155 211 -35 33 -73 79 -85 101 -11
24 -39 54 -63 70 -27 18 -54 48 -71 80 -15 29 -45 65 -66 80 -21 15 -49 43
-62 63 -13 19 -48 62 -79 95 -31 33 -65 74 -75 90 -11 17 -41 54 -68 84 -27
30 -68 93 -92 142 -35 69 -53 93 -87 116 -27 18 -54 48 -71 80 -15 29 -45 65
-66 79 -20 15 -49 44 -63 63 -14 20 -89 103 -167 184 -78 82 -141 153 -141
158 0 6 -35 47 -78 92 -43 45 -99 114 -125 152 -25 39 -90 117 -142 174 -53
57 -102 116 -110 131 -19 36 -81 90 -104 90 -29 0 -59 31 -73 75 -9 28 -25 48
-56 68 -23 16 -50 41 -59 55 -9 15 -40 52 -69 82 -61 64 -144 187 -144 213 0
10 -24 43 -54 72 -29 29 -62 74 -72 99 l-19 46 -67 0 -68 0 0 -65z"/>
</g>
</svg>
