<?xml version="1.0" standalone="no"?>
<!DOCTYPE svg PUBLIC "-//W3C//DTD SVG 20010904//EN"
 "http://www.w3.org/TR/2001/REC-SVG-20010904/DTD/svg10.dtd">
<svg version="1.0" xmlns="http://www.w3.org/2000/svg"
 width="270.000000pt" height="405.000000pt" viewBox="0 0 270.000000 405.000000"
 preserveAspectRatio="xMidYMid meet">
<metadata>
Created by potrace 1.16, written by Peter Selinger 2001-2019
</metadata>
<g transform="translate(0.000000,405.000000) scale(0.100000,-0.100000)"
fill="#000000" stroke="none">
<path d="M0 4000 c0 -28 4 -58 8 -68 59 -121 79 -156 123 -206 27 -32 59 -76
70 -97 10 -21 33 -49 50 -61 17 -13 40 -39 52 -58 11 -19 38 -54 58 -78 21
-24 41 -58 45 -75 3 -18 21 -49 40 -69 18 -20 42 -55 53 -77 12 -22 43 -59 71
-83 27 -24 50 -52 50 -62 0 -11 32 -50 70 -88 39 -38 70 -73 70 -78 0 -5 18
-30 40 -55 22 -26 48 -61 57 -78 9 -18 31 -50 50 -71 18 -22 38 -56 43 -76 6
-23 27 -51 55 -77 35 -32 45 -47 45 -72 0 -18 7 -46 16 -63 21 -40 97 -134
145 -179 22 -20 39 -45 39 -56 0 -21 72 -126 103 -152 9 -7 17 -21 17 -30 0
-9 14 -36 30 -61 16 -25 30 -53 30 -62 0 -10 13 -32 29 -51 64 -73 181 -261
181 -292 0 -17 13 -50 30 -75 16 -25 30 -52 30 -61 0 -8 14 -28 30 -44 36 -35
90 -116 90 -136 0 -8 14 -34 30 -59 16 -25 30 -52 30 -62 0 -9 18 -31 40 -48
25 -20 43 -44 50 -68 11 -41 38 -87 88 -152 17 -24 32 -50 32 -60 0 -9 14 -29
30 -45 17 -16 30 -35 30 -42 0 -23 41 -95 80 -143 21 -25 49 -67 63 -95 14
-27 35 -59 47 -70 42 -37 80 -98 80 -127 0 -39 22 -79 86 -155 30 -35 54 -68
54 -73 0 -6 26 -10 58 -10 l57 0 12 27 c21 44 15 71 -26 126 -21 29 -48 72
-60 95 -12 24 -50 85 -84 137 -80 121 -137 221 -137 238 0 8 -13 32 -29 55
-17 22 -46 73 -67 114 -20 40 -46 87 -59 103 -12 17 -32 50 -45 75 -12 24 -47
80 -77 124 -30 43 -70 109 -88 147 -19 37 -59 104 -90 150 -30 46 -55 89 -55
96 0 6 -20 53 -45 104 -25 51 -45 100 -45 110 0 9 -18 39 -40 65 -22 27 -44
64 -49 82 -5 18 -33 58 -61 89 -28 30 -60 74 -72 97 -11 22 -33 55 -48 71 -35
38 -120 179 -120 199 0 9 -23 41 -50 71 -29 32 -50 65 -50 78 0 28 -45 98
-125 196 -68 84 -67 81 -91 139 -10 24 -35 57 -56 73 -24 20 -41 44 -48 67 -6
23 -29 56 -60 87 -28 28 -76 88 -107 135 -31 47 -66 96 -79 110 -12 14 -46 61
-76 105 -67 101 -122 174 -174 233 -23 26 -54 65 -70 88 -74 106 -102 141
-141 180 -24 23 -43 47 -43 53 0 20 -31 74 -58 104 l-26 27 -68 0 -68 0 0 -50z"/>
</g>
</svg>
