<?xml version="1.0" standalone="no"?>
<!DOCTYPE svg PUBLIC "-//W3C//DTD SVG 20010904//EN"
 "http://www.w3.org/TR/2001/REC-SVG-20010904/DTD/svg10.dtd">
<svg version="1.0" xmlns="http://www.w3.org/2000/svg"
 width="387.000000pt" height="213.000000pt" viewBox="0 0 387.000000 213.000000"
 preserveAspectRatio="xMidYMid meet">
<metadata>
Created by potrace 1.16, written by Peter Selinger 2001-2019
</metadata>
<g transform="translate(0.000000,213.000000) scale(0.100000,-0.100000)"
fill="#000000" stroke="none">
<path d="M1268 2105 c-6 -31 56 -131 103 -166 17 -13 44 -37 60 -54 16 -16 48
-50 72 -75 24 -25 56 -53 70 -63 15 -10 38 -40 52 -66 13 -27 42 -62 63 -77
77 -57 214 -190 239 -231 14 -24 39 -53 56 -65 18 -12 62 -50 98 -83 37 -33
78 -68 92 -78 15 -10 31 -34 37 -56 11 -42 24 -56 92 -95 27 -15 55 -41 64
-58 l16 -30 -15 -15 -14 -14 -38 15 c-28 12 -73 16 -182 16 -105 0 -153 4
-180 15 -19 8 -53 15 -75 15 -21 0 -55 7 -76 16 -26 10 -48 13 -72 7 -19 -4
-60 -8 -90 -9 -87 -3 -212 -20 -243 -32 -16 -7 -47 -12 -70 -12 -69 0 -116
-34 -159 -115 l-37 -70 -1 -62 0 -62 -30 -21 c-41 -30 -88 -35 -134 -16 -30
13 -76 16 -213 16 -132 0 -182 4 -210 15 -28 12 -86 15 -289 15 l-254 0 0 -53
0 -53 95 -32 94 -32 96 0 c62 0 108 -5 132 -15 l35 -15 355 0 355 0 65 -30
c35 -17 72 -30 82 -30 22 0 101 81 101 103 0 10 -7 31 -15 48 -23 43 -65 170
-65 195 0 12 8 31 18 42 20 25 123 62 170 62 19 0 56 8 83 17 l49 18 49 -18
c35 -12 80 -17 160 -17 77 0 123 -5 148 -15 19 -8 53 -15 75 -15 21 0 55 -7
75 -15 19 -8 60 -15 90 -15 29 0 70 -7 90 -15 19 -8 59 -15 87 -15 31 0 88
-13 147 -33 74 -25 104 -41 135 -72 22 -22 52 -48 67 -58 15 -10 30 -30 33
-45 8 -33 32 -62 51 -62 31 0 104 -42 155 -89 30 -28 91 -68 135 -90 44 -22
105 -63 135 -90 43 -39 72 -56 134 -76 43 -14 103 -37 132 -50 29 -14 59 -25
67 -25 7 0 17 -4 20 -10 8 -12 119 -13 143 -1 9 5 34 16 55 25 l37 16 0 88 0
88 -27 26 c-16 13 -44 35 -64 47 -21 12 -44 32 -53 45 -17 27 -144 116 -165
116 -18 0 -81 30 -116 56 -46 33 -112 64 -137 64 -28 0 -123 32 -196 66 -29
13 -58 24 -65 24 -7 0 -29 11 -49 25 -21 14 -74 37 -120 52 l-83 26 -188 186
c-104 102 -203 209 -222 236 -40 59 -552 568 -612 607 -22 15 -57 51 -76 80
-50 74 -132 151 -197 184 -30 15 -67 36 -82 46 -18 12 -44 18 -86 18 l-60 0
-4 -25z"/>
</g>
</svg>
