<?xml version="1.0" standalone="no"?>
<!DOCTYPE svg PUBLIC "-//W3C//DTD SVG 20010904//EN"
 "http://www.w3.org/TR/2001/REC-SVG-20010904/DTD/svg10.dtd">
<svg version="1.0" xmlns="http://www.w3.org/2000/svg"
 width="756.000000pt" height="108.000000pt" viewBox="0 0 756.000000 108.000000"
 preserveAspectRatio="xMidYMid meet">
<metadata>
Created by potrace 1.16, written by Peter Selinger 2001-2019
</metadata>
<g transform="translate(0.000000,108.000000) scale(0.100000,-0.100000)"
fill="#000000" stroke="none">
<path d="M3065 1070 c-3 -5 -15 -10 -25 -10 -29 0 -88 -57 -116 -111 -43 -85
-31 -149 50 -270 17 -25 39 -61 48 -78 18 -33 42 -39 73 -17 14 9 35 11 73 6
88 -11 96 -44 18 -80 l-45 -20 -172 0 -171 0 -49 -17 -49 -18 -49 18 -49 17
-218 0 -219 0 -45 30 -45 30 -85 0 -86 0 -84 30 c-53 18 -105 30 -138 30 -29
0 -69 7 -89 15 -25 11 -72 15 -165 15 -92 0 -139 4 -165 15 -19 8 -60 15 -90
15 -29 0 -70 7 -90 15 -19 8 -59 15 -87 15 -28 0 -71 6 -96 14 -118 37 -140
40 -379 43 l-245 4 -38 -16 c-21 -8 -53 -15 -70 -15 l-31 0 -59 -60 c-33 -33
-64 -60 -69 -60 -5 0 -9 -40 -9 -88 l0 -89 38 -41 39 -42 40 0 c52 0 73 23 73
79 0 71 52 131 113 131 13 0 41 7 62 16 29 12 44 13 67 5 17 -6 94 -14 172
-17 81 -4 155 -12 175 -20 20 -9 72 -14 133 -14 65 0 111 -5 135 -15 19 -8 53
-15 75 -15 21 0 55 -7 75 -15 20 -8 66 -15 105 -15 38 0 84 -7 105 -15 22 -9
67 -15 120 -15 52 0 97 -6 120 -15 19 -8 60 -15 90 -15 29 0 70 -7 90 -15 19
-8 59 -15 87 -15 28 0 71 -6 96 -14 60 -19 125 -35 182 -46 26 -5 56 -13 67
-19 13 -7 143 -11 379 -11 l360 0 35 15 c20 8 67 15 104 15 80 0 178 32 264
85 31 19 63 35 71 35 7 0 25 8 38 17 l25 17 195 -3 c139 -2 205 -7 229 -17 25
-11 89 -14 268 -14 l234 0 56 -25 56 -26 30 11 c42 14 92 13 134 -5 24 -10 71
-15 150 -15 78 0 125 -5 150 -15 24 -10 71 -15 150 -15 78 0 125 -5 150 -15
19 -8 46 -15 60 -15 41 0 106 -36 171 -94 35 -31 71 -56 81 -56 9 0 28 -12 42
-26 13 -14 41 -35 63 -46 21 -11 57 -33 79 -49 31 -22 51 -29 88 -29 26 0 51
-5 54 -10 8 -12 149 -13 173 -1 9 5 41 19 70 32 29 13 69 40 88 61 l34 38 0
70 0 70 -42 46 c-55 60 -167 134 -201 134 -15 0 -44 7 -64 15 -23 10 -69 15
-131 15 -52 0 -111 4 -131 10 -20 5 -71 12 -114 16 l-78 6 -11 24 c-8 18 -8
31 0 49 l12 25 89 0 c58 0 102 5 126 16 l38 16 41 -16 c30 -12 77 -16 169 -16
91 0 138 -4 164 -15 26 -11 75 -15 191 -15 l155 0 181 -59 c214 -70 252 -80
331 -91 61 -8 87 -18 140 -56 17 -12 59 -36 94 -54 35 -18 81 -48 101 -66 49
-44 95 -46 133 -6 20 21 27 38 27 69 l0 41 -24 6 c-13 3 -48 28 -78 55 -61 55
-125 91 -164 91 -19 0 -39 13 -68 45 -33 35 -49 45 -75 45 -17 0 -48 7 -68 15
-19 8 -61 15 -92 15 l-57 0 -29 30 -29 30 -56 0 c-37 0 -85 10 -140 30 -47 16
-102 30 -123 30 -21 0 -54 7 -74 15 -26 11 -76 15 -194 15 -123 0 -168 4 -199
16 -29 12 -53 14 -83 9 -46 -8 -44 -8 -195 1 -81 5 -111 3 -143 -10 -21 -9
-63 -16 -92 -16 -47 -1 -132 -23 -165 -43 -20 -13 -82 -144 -82 -175 0 -15 -5
-33 -12 -40 -17 -17 -112 -15 -155 3 -25 11 -72 15 -165 15 -92 0 -139 4 -165
15 -22 9 -67 15 -120 15 -52 0 -97 6 -120 15 -23 10 -69 15 -135 15 -65 0
-111 5 -135 15 -28 12 -84 15 -270 15 -185 0 -241 3 -270 15 -19 8 -55 15 -80
15 l-44 0 -27 47 c-39 67 -167 198 -226 232 -28 16 -62 41 -75 55 -14 15 -35
26 -51 26 -26 0 -124 31 -137 43 -10 11 -71 8 -78 -3z m185 -265 c33 -17 38
-32 15 -41 -26 -10 -65 5 -65 25 0 16 8 31 17 31 2 0 17 -7 33 -15z m2750
-549 c84 -43 85 -60 3 -64 l-62 -3 -38 34 -37 35 13 16 c20 24 50 20 121 -18z"/>
</g>
</svg>
