<?xml version="1.0" standalone="no"?>
<!DOCTYPE svg PUBLIC "-//W3C//DTD SVG 20010904//EN"
 "http://www.w3.org/TR/2001/REC-SVG-20010904/DTD/svg10.dtd">
<svg version="1.0" xmlns="http://www.w3.org/2000/svg"
 width="747.000000pt" height="114.000000pt" viewBox="0 0 747.000000 114.000000"
 preserveAspectRatio="xMidYMid meet">
<metadata>
Created by potrace 1.16, written by Peter Selinger 2001-2019
</metadata>
<g transform="translate(0.000000,114.000000) scale(0.100000,-0.100000)"
fill="#000000" stroke="none">
<path d="M108 1086 c-29 -29 -65 -69 -80 -88 l-28 -36 0 -95 0 -96 23 -37 c12
-21 43 -58 68 -83 25 -25 53 -59 63 -74 10 -16 40 -38 74 -53 60 -27 74 -34
187 -95 84 -45 182 -79 228 -79 18 0 71 -13 117 -30 47 -16 102 -30 123 -30
21 0 54 -7 74 -15 19 -8 53 -15 75 -15 21 0 55 -7 75 -15 19 -8 59 -15 89 -15
29 0 65 -6 81 -12 18 -9 118 -15 288 -20 143 -4 276 -8 295 -9 19 -1 53 2 75
6 l40 7 39 -27 40 -27 35 7 c20 4 61 10 91 14 30 3 62 11 70 16 8 6 83 13 165
16 83 3 170 12 195 19 130 35 160 46 210 78 30 18 85 51 122 73 l67 39 80 0
c44 0 92 -5 108 -12 15 -7 105 -16 198 -20 215 -10 223 -10 321 -2 62 4 89 2
118 -10 l38 -16 508 0 507 0 39 -29 c21 -16 57 -47 79 -70 22 -23 55 -46 75
-51 20 -5 54 -25 76 -43 48 -42 175 -107 207 -107 24 0 122 -32 134 -43 10
-11 191 -8 198 3 3 6 17 10 30 10 14 0 54 10 90 21 48 16 75 32 100 60 l35 39
0 55 0 54 -32 36 c-35 41 -174 115 -214 115 -14 0 -55 13 -91 30 -35 16 -74
30 -86 30 -12 0 -42 6 -67 14 -94 30 -138 38 -225 45 -83 7 -155 29 -155 49 0
5 15 22 33 39 47 46 134 73 233 73 51 0 95 6 119 15 29 13 66 15 183 12 180
-6 419 -30 449 -45 12 -7 65 -12 123 -12 67 0 113 -5 137 -15 19 -8 47 -15 60
-15 14 0 54 -14 90 -30 35 -17 74 -30 87 -30 12 0 60 -13 106 -30 47 -16 103
-30 124 -30 27 0 77 -18 160 -58 67 -32 132 -62 146 -65 28 -7 126 -87 160
-130 26 -32 89 -67 123 -67 13 0 31 6 41 13 l17 12 -3 75 -3 74 -55 44 c-30
24 -76 61 -102 83 -26 21 -52 39 -59 39 -7 0 -64 25 -128 56 -127 61 -236 98
-366 123 -22 4 -96 26 -165 48 -178 58 -204 64 -305 72 -49 4 -97 11 -105 16
-13 9 -345 26 -460 24 -25 0 -67 -1 -95 -1 -27 -1 -81 4 -120 11 l-69 12 -38
-16 c-21 -8 -68 -15 -104 -15 -102 0 -203 -38 -303 -115 -79 -62 -102 -86
-133 -138 l-27 -47 -29 0 c-16 0 -46 -7 -65 -15 -48 -20 -156 -19 -208 2 l-41
16 -47 -17 c-37 -13 -53 -14 -77 -6 -21 8 -39 8 -58 0 -40 -15 -151 -12 -193
5 l-35 15 -325 0 -324 0 -36 15 c-22 9 -67 15 -120 15 -118 0 -203 42 -203
101 0 8 -18 41 -39 71 -39 54 -161 147 -259 197 l-41 21 -121 0 -121 0 -47
-24 c-26 -13 -69 -47 -95 -75 l-47 -50 0 -51 c0 -71 26 -116 104 -177 72 -57
159 -93 225 -93 24 0 48 -8 62 -19 l24 -20 -15 -14 c-20 -19 -94 -47 -124 -47
-13 0 -40 -7 -59 -15 -21 -8 -67 -15 -105 -15 -39 0 -85 -7 -105 -15 -51 -21
-213 -20 -267 1 l-41 16 -42 -11 c-31 -9 -50 -9 -70 -2 -16 6 -104 11 -203 11
-133 0 -183 4 -211 15 -23 10 -69 15 -135 15 -104 0 -130 7 -149 41 -8 16 -6
32 7 70 l18 50 -56 113 c-45 91 -67 123 -107 157 -28 24 -51 52 -51 61 0 22
-85 85 -180 134 -41 21 -98 55 -127 76 l-52 38 -240 0 -239 0 -54 -54z m447
-126 c99 -34 103 -37 265 -163 147 -115 201 -250 118 -296 l-27 -15 -43 13
c-24 7 -70 16 -103 20 -34 5 -70 13 -82 19 -12 7 -34 12 -48 12 -15 0 -59 19
-98 43 -40 23 -106 57 -147 76 -41 18 -86 38 -100 45 -17 8 -31 30 -46 71 -38
102 -28 165 25 165 16 0 44 7 62 15 50 21 154 19 224 -5z m2163 -206 c12 -8
22 -24 22 -35 l0 -19 -48 0 c-71 0 -93 28 -44 54 35 19 43 19 70 0z m2738
-490 c38 -14 87 -29 109 -33 23 -4 47 -11 55 -16 l14 -8 -20 -8 c-10 -4 -48
-8 -84 -8 l-66 -1 -59 31 c-70 36 -80 44 -71 58 11 17 48 13 122 -15z"/>
</g>
</svg>
