<?xml version="1.0" standalone="no"?>
<!DOCTYPE svg PUBLIC "-//W3C//DTD SVG 20010904//EN"
 "http://www.w3.org/TR/2001/REC-SVG-20010904/DTD/svg10.dtd">
<svg version="1.0" xmlns="http://www.w3.org/2000/svg"
 width="948.000000pt" height="162.000000pt" viewBox="0 0 948.000000 162.000000"
 preserveAspectRatio="xMidYMid meet">
<metadata>
Created by potrace 1.16, written by Peter Selinger 2001-2019
</metadata>
<g transform="translate(0.000000,162.000000) scale(0.100000,-0.100000)"
fill="#000000" stroke="none">
<path d="M76 1567 c-34 -32 -56 -61 -56 -74 0 -12 -4 -25 -10 -28 -13 -8 -13
-72 0 -80 5 -3 10 -19 10 -36 0 -44 109 -161 192 -204 26 -14 59 -41 74 -60
15 -20 56 -51 96 -72 38 -19 78 -49 89 -65 12 -16 39 -40 60 -54 22 -13 64
-47 94 -74 30 -28 64 -50 74 -50 11 0 29 -14 41 -31 12 -16 39 -41 60 -54 47
-30 79 -62 91 -94 l10 -24 -66 -67 c-44 -46 -65 -76 -65 -92 0 -41 75 -135
129 -163 27 -13 72 -46 102 -73 30 -27 68 -56 84 -65 53 -27 153 -57 189 -57
33 0 66 -20 66 -41 0 -5 37 -9 83 -9 l82 0 18 49 c22 64 21 83 -9 166 -38 105
-41 100 48 103 52 2 88 -2 114 -13 28 -11 76 -15 211 -15 132 0 182 -4 210
-15 28 -12 84 -15 270 -15 185 0 241 -3 270 -15 l35 -15 294 0 c209 0 301 -3
321 -12 17 -8 108 -15 228 -20 110 -4 209 -8 220 -8 11 -1 43 2 70 5 36 5 61
3 89 -9 l38 -16 415 0 414 0 61 21 c77 25 130 52 148 74 8 10 17 38 20 64 l5
46 180 3 180 3 43 -17 43 -16 42 12 c31 8 50 8 70 1 16 -6 58 -11 95 -11 37 0
87 -6 112 -14 87 -28 136 -38 210 -45 41 -4 85 -13 97 -19 13 -7 65 -12 130
-12 l108 0 90 60 90 60 113 0 c77 0 124 -5 149 -15 l35 -15 268 0 268 0 35 15
c24 10 70 15 135 15 63 0 112 5 133 14 19 8 79 19 134 26 55 6 132 15 170 20
70 8 120 19 205 46 66 21 456 20 507 -1 20 -9 66 -15 107 -15 l71 0 45 -30
c25 -16 58 -30 73 -30 15 0 44 -7 64 -15 19 -8 48 -15 63 -15 15 0 45 -13 66
-30 21 -16 62 -45 90 -65 28 -19 72 -53 97 -75 50 -44 87 -51 137 -25 l30 16
0 53 0 54 -46 37 c-169 138 -392 238 -594 264 -30 4 -91 20 -134 35 l-79 28
-41 -12 c-30 -8 -49 -8 -69 -1 -43 16 -198 14 -240 -4 -20 -8 -54 -15 -75 -15
-22 0 -56 -7 -75 -15 -20 -8 -54 -15 -75 -15 -22 0 -56 -7 -75 -15 -25 -10
-72 -15 -150 -15 -79 0 -126 -5 -150 -15 -20 -8 -54 -15 -75 -15 -22 0 -56 -7
-75 -15 -20 -8 -61 -15 -90 -15 -30 0 -71 -7 -90 -15 -52 -22 -422 -22 -474 0
-19 8 -65 15 -102 15 -49 0 -90 8 -151 30 -62 22 -103 30 -153 30 -51 0 -82 6
-122 25 -96 44 -264 95 -311 95 l-46 0 -29 -29 c-22 -23 -29 -39 -29 -69 0
-49 25 -72 124 -112 24 -9 27 -13 15 -21 -23 -15 -176 -11 -216 6 -25 11 -72
15 -165 15 -92 0 -139 4 -165 15 -22 9 -67 15 -119 15 -45 0 -95 5 -109 10
-15 6 -95 13 -178 16 -84 3 -165 11 -182 17 -27 10 -193 22 -419 30 -90 3
-124 -12 -151 -64 l-17 -31 12 -29 c7 -15 19 -34 27 -40 27 -23 118 -48 174
-49 41 0 63 -5 80 -19 l24 -20 -17 -17 -16 -16 -143 -1 c-100 0 -154 -4 -177
-14 -25 -10 -42 -11 -65 -4 -18 6 -54 10 -82 10 -132 0 -372 17 -392 29 -15 8
-76 12 -198 12 -133 0 -184 4 -212 15 -45 19 -81 19 -128 -1 l-37 -15 -32 12
c-17 7 -80 16 -141 21 -141 11 -141 11 -200 3 -36 -5 -61 -3 -89 9 -29 12 -72
16 -168 16 -92 0 -139 4 -165 15 -27 11 -77 15 -206 15 -100 0 -186 5 -208 12
-30 8 -48 8 -79 -1 l-39 -12 -37 16 c-21 8 -66 15 -106 15 -38 0 -84 7 -105
15 -19 8 -59 15 -87 15 -32 0 -84 11 -136 30 -47 16 -95 30 -108 30 -42 0
-112 40 -180 103 -37 35 -80 71 -97 82 -16 10 -50 37 -75 60 -25 23 -64 52
-87 65 -23 13 -55 39 -72 59 -16 20 -51 47 -77 60 -65 33 -88 54 -109 102
l-18 39 25 28 c14 15 40 55 57 90 l31 62 -15 53 c-21 74 -57 104 -211 181
-104 52 -141 66 -177 66 -25 0 -49 5 -52 10 -3 6 -28 10 -55 10 l-48 0 -56
-53z m286 -162 c49 -33 82 -88 69 -113 -23 -43 -70 -42 -118 2 -21 18 -47 35
-57 37 -11 2 -29 19 -39 37 l-19 32 12 15 c21 25 109 19 152 -10z m802 -1047
c14 -13 28 -35 32 -50 l6 -28 -31 0 c-21 0 -41 9 -56 25 -29 28 -31 38 -9 59
21 21 28 20 58 -6z"/>
</g>
</svg>
