<?xml version="1.0" standalone="no"?>
<!DOCTYPE svg PUBLIC "-//W3C//DTD SVG 20010904//EN"
 "http://www.w3.org/TR/2001/REC-SVG-20010904/DTD/svg10.dtd">
<svg version="1.0" xmlns="http://www.w3.org/2000/svg"
 width="426.000000pt" height="558.000000pt" viewBox="0 0 426.000000 558.000000"
 preserveAspectRatio="xMidYMid meet">
<metadata>
Created by potrace 1.16, written by Peter Selinger 2001-2019
</metadata>
<g transform="translate(0.000000,558.000000) scale(0.100000,-0.100000)"
fill="#000000" stroke="none">
<path d="M125 5570 c-3 -5 -14 -10 -24 -10 -9 0 -36 -14 -59 -31 l-42 -31 0
-84 0 -85 38 -52 c21 -29 44 -62 51 -75 6 -12 31 -34 54 -49 23 -14 76 -59
117 -98 69 -67 141 -115 171 -115 7 0 33 -13 58 -29 25 -16 57 -31 71 -34 14
-4 43 -21 63 -39 l37 -33 -10 -43 c-6 -24 -22 -66 -35 -92 l-25 -49 0 -101 c0
-67 -5 -113 -15 -137 -18 -42 -19 -86 -3 -116 6 -12 14 -48 19 -82 14 -114 59
-258 108 -350 21 -38 45 -83 53 -100 9 -16 25 -50 35 -75 10 -25 30 -58 44
-75 39 -45 117 -161 144 -216 14 -26 41 -60 60 -75 20 -15 35 -35 35 -47 0
-12 26 -46 65 -83 35 -35 73 -80 84 -101 24 -46 450 -469 541 -537 36 -27 83
-69 106 -93 22 -23 49 -43 60 -43 10 0 41 -25 67 -55 35 -40 59 -57 89 -65 45
-13 63 -22 122 -62 21 -16 46 -28 56 -28 9 0 29 -13 44 -29 15 -16 41 -31 57
-35 16 -3 40 -13 54 -22 50 -32 155 -237 155 -301 0 -36 47 -120 81 -145 17
-13 40 -39 51 -58 12 -19 35 -51 53 -70 18 -19 47 -57 66 -85 18 -27 52 -70
75 -95 22 -25 49 -59 59 -75 22 -34 169 -181 208 -208 15 -10 31 -33 36 -55 6
-20 26 -62 45 -92 19 -30 60 -104 91 -164 31 -60 72 -131 90 -157 18 -27 37
-64 40 -81 9 -41 75 -171 110 -218 14 -19 32 -56 39 -81 17 -56 87 -161 126
-189 15 -11 39 -20 52 -20 l25 0 11 39 c7 21 12 45 12 53 0 32 -63 205 -86
235 -37 49 -84 154 -84 189 0 19 -12 48 -31 74 -40 55 -59 101 -59 141 l0 31
28 -6 c15 -3 51 -10 80 -16 29 -5 58 -13 65 -17 10 -7 137 -21 222 -24 42 -2
123 18 166 42 50 28 98 103 99 156 0 17 4 35 10 38 12 8 13 59 1 83 -5 9 -24
50 -42 91 -23 49 -46 83 -72 103 -21 17 -49 52 -63 79 -16 33 -38 58 -67 75
-23 15 -58 44 -77 65 -22 24 -71 57 -129 85 -52 26 -111 62 -130 79 -45 41
-93 65 -126 65 -14 0 -42 7 -62 15 -25 11 -73 15 -170 15 l-134 0 -49 -25
c-51 -26 -80 -57 -80 -87 0 -20 -35 -42 -53 -32 -62 35 -179 216 -218 337 -16
50 -26 94 -21 99 4 4 39 -2 77 -14 l70 -21 43 12 c23 6 67 11 97 11 l55 0 38
35 c21 19 47 52 56 73 l18 39 -31 62 c-33 65 -67 93 -133 111 -42 12 -71 26
-113 56 -49 35 -113 64 -139 64 -14 0 -44 7 -66 16 l-41 17 -65 -22 c-95 -31
-139 -56 -170 -96 -39 -52 -90 -46 -161 18 -21 19 -71 51 -110 71 -42 20 -102
63 -140 99 -38 34 -85 74 -105 87 -20 14 -49 44 -65 68 -15 24 -48 57 -73 74
-25 17 -57 45 -69 64 -13 19 -45 50 -72 69 -26 20 -64 60 -84 90 -20 31 -46
62 -58 70 -12 8 -44 43 -72 77 -27 34 -66 80 -86 102 -20 23 -60 76 -88 118
-29 43 -70 99 -92 124 -22 25 -55 76 -74 113 -19 36 -43 80 -54 96 -12 17 -21
37 -21 45 0 8 -13 28 -28 45 -16 16 -38 60 -50 98 -12 37 -36 95 -53 129 -17
33 -41 92 -55 132 l-24 71 0 200 1 200 17 37 c9 21 41 67 71 103 l55 65 34 0
c41 0 92 46 92 83 0 50 -73 87 -170 87 -40 0 -86 6 -107 15 -19 8 -61 15 -92
15 -58 0 -81 11 -81 40 0 25 -33 50 -65 50 -15 0 -49 13 -74 29 -25 16 -58 31
-73 35 -15 3 -35 18 -45 33 -10 15 -46 56 -81 90 -89 90 -96 119 -43 167 25
23 26 35 4 97 l-18 49 -57 0 c-31 0 -60 -4 -63 -10z m2602 -3345 c19 -8 47
-15 60 -15 41 0 153 -59 153 -80 0 -18 -48 -21 -85 -6 -21 9 -48 16 -62 16
-30 0 -105 33 -123 55 -10 12 -10 18 0 30 7 8 14 15 17 15 2 0 20 -7 40 -15z
m690 -720 c19 -8 47 -15 60 -15 29 0 86 -25 128 -56 17 -12 68 -41 114 -64
102 -51 228 -168 301 -279 l50 -76 0 -72 0 -72 -31 -22 c-18 -13 -52 -24 -80
-27 l-48 -4 -67 31 c-36 17 -71 31 -76 31 -35 0 -164 77 -241 144 -49 42 -96
81 -106 88 -35 26 -61 76 -101 193 -41 125 -47 163 -30 196 13 24 74 26 127 4z"/>
</g>
</svg>
