<?xml version="1.0" standalone="no"?>
<!DOCTYPE svg PUBLIC "-//W3C//DTD SVG 20010904//EN"
 "http://www.w3.org/TR/2001/REC-SVG-20010904/DTD/svg10.dtd">
<svg version="1.0" xmlns="http://www.w3.org/2000/svg"
 width="306.000000pt" height="435.000000pt" viewBox="0 0 306.000000 435.000000"
 preserveAspectRatio="xMidYMid meet">
<metadata>
Created by potrace 1.16, written by Peter Selinger 2001-2019
</metadata>
<g transform="translate(0.000000,435.000000) scale(0.100000,-0.100000)"
fill="#000000" stroke="none">
<path d="M390 4341 c-8 -5 -39 -19 -68 -32 -76 -33 -92 -57 -92 -136 0 -84 23
-128 114 -220 75 -76 141 -125 222 -166 27 -14 66 -40 87 -59 l38 -33 -16 -55
c-18 -58 -37 -172 -36 -205 5 -111 21 -279 31 -315 34 -125 54 -178 76 -207
28 -36 84 -151 84 -171 0 -23 40 -93 85 -148 24 -30 51 -76 59 -103 18 -62
121 -215 208 -310 37 -40 68 -77 68 -82 0 -5 40 -53 90 -105 49 -53 90 -100
90 -104 0 -5 21 -25 46 -44 84 -64 224 -199 224 -216 0 -21 23 -42 78 -69 23
-12 72 -50 110 -84 37 -35 80 -71 97 -82 16 -10 50 -37 75 -59 49 -45 109 -88
181 -129 25 -14 58 -42 73 -61 19 -26 40 -39 71 -47 26 -7 63 -27 87 -49 24
-20 70 -51 103 -68 34 -16 101 -58 150 -91 l90 -61 57 0 c31 0 69 -5 83 -10
19 -7 39 -7 66 1 l39 12 0 27 c0 37 -43 72 -115 95 -33 10 -74 31 -90 47 -17
15 -37 28 -44 28 -25 0 -86 33 -134 72 -26 22 -63 44 -82 49 -19 5 -58 31 -87
58 -51 46 -124 91 -149 91 -6 0 -30 19 -53 42 -40 40 -77 69 -184 144 -24 17
-128 114 -231 215 -102 101 -202 195 -222 209 -21 13 -51 46 -68 72 -18 26
-42 55 -55 63 -12 8 -36 34 -53 58 -17 23 -64 81 -104 128 -41 48 -93 117
-117 155 -73 117 -122 202 -122 214 0 14 -97 207 -121 242 -11 15 -30 60 -43
100 -13 40 -43 111 -65 157 -23 47 -41 97 -41 112 0 14 -7 43 -15 62 -34 83
-3 258 64 352 39 55 61 100 61 125 0 23 -46 55 -100 70 -19 5 -59 21 -88 35
-28 14 -58 25 -65 25 -8 0 -24 12 -38 26 -13 14 -42 35 -64 46 -92 47 -175
136 -175 188 0 19 11 36 39 58 48 39 57 63 41 113 l-13 39 -61 -1 c-34 0 -68
-4 -76 -8z"/>
<path d="M0 735 l0 -55 24 0 c14 0 37 -5 53 -12 23 -10 253 -29 328 -27 11 0
113 2 227 5 l208 5 25 -25 25 -25 0 -51 0 -51 57 -60 c76 -80 312 -239 354
-239 7 0 50 -18 97 -41 110 -51 282 -109 327 -109 20 0 52 -7 72 -15 19 -8 55
-15 79 -15 23 0 46 -4 49 -10 8 -13 282 -13 290 0 3 6 27 10 53 10 34 1 67 11
122 39 l75 38 48 69 c26 37 47 79 47 91 0 13 5 42 12 67 l11 43 -13 34 c-41
100 -265 269 -357 269 -21 0 -58 6 -83 14 -102 32 -198 51 -310 61 -93 9 -269
24 -380 34 -63 5 -413 10 -777 10 l-663 1 0 -55z m1253 -98 c21 -9 97 -14 227
-15 151 -3 198 -6 209 -17 l14 -14 -46 -50 c-51 -54 -56 -75 -31 -124 29 -58
43 -67 98 -67 64 0 124 32 150 81 l19 35 -25 50 -25 49 76 -6 c42 -4 90 -11
106 -17 54 -19 119 -34 175 -41 61 -7 71 -13 158 -92 43 -39 62 -63 62 -80 0
-37 -66 -124 -124 -164 l-52 -36 -150 -1 -149 -1 -76 26 c-43 14 -95 35 -118
46 -22 12 -51 21 -63 21 -13 0 -43 7 -68 15 -25 8 -61 17 -81 20 -23 3 -53 20
-80 44 -24 21 -77 55 -117 75 -83 42 -145 99 -173 159 -24 55 -24 63 6 92 28
29 34 30 78 12z"/>
</g>
</svg>
