<?xml version="1.0" standalone="no"?>
<!DOCTYPE svg PUBLIC "-//W3C//DTD SVG 20010904//EN"
 "http://www.w3.org/TR/2001/REC-SVG-20010904/DTD/svg10.dtd">
<svg version="1.0" xmlns="http://www.w3.org/2000/svg"
 width="285.000000pt" height="321.000000pt" viewBox="0 0 285.000000 321.000000"
 preserveAspectRatio="xMidYMid meet">
<metadata>
Created by potrace 1.16, written by Peter Selinger 2001-2019
</metadata>
<g transform="translate(0.000000,321.000000) scale(0.100000,-0.100000)"
fill="#000000" stroke="none">
<path d="M215 3200 c-3 -5 -20 -10 -36 -10 -43 0 -121 -43 -152 -84 l-27 -35
0 -87 0 -87 54 -66 c29 -36 59 -76 65 -89 7 -12 30 -34 53 -48 23 -15 62 -46
87 -69 45 -43 141 -85 193 -85 35 -1 103 -35 122 -61 13 -18 16 -48 16 -140 0
-81 5 -128 15 -152 8 -20 15 -56 15 -81 l0 -44 43 -58 c24 -33 51 -65 60 -73
9 -7 17 -28 17 -45 0 -22 18 -58 59 -118 33 -48 74 -115 92 -149 19 -34 59
-88 91 -120 32 -33 58 -67 58 -77 0 -22 30 -52 52 -52 9 0 42 -35 73 -78 58
-77 399 -424 548 -557 62 -55 79 -76 80 -100 l2 -30 -115 4 c-67 2 -129 9
-149 17 -50 21 -494 20 -544 -1 -20 -8 -52 -15 -72 -15 -70 0 -252 -76 -308
-129 -37 -33 -77 -112 -77 -149 0 -16 7 -46 15 -65 8 -20 15 -47 15 -61 0 -14
14 -54 30 -89 17 -36 30 -77 30 -91 l0 -26 85 0 85 0 0 74 0 75 -31 66 -30 66
17 52 c10 29 21 56 25 61 14 16 112 46 150 46 20 0 53 7 72 15 52 22 452 22
504 0 23 -10 69 -15 132 -15 107 0 184 -20 226 -60 30 -28 117 -59 168 -60 21
0 54 -7 74 -15 19 -8 47 -15 61 -15 14 0 55 -13 91 -29 100 -43 171 -72 226
-91 28 -10 83 -34 123 -54 39 -20 80 -36 90 -36 10 0 31 13 47 30 l29 30 43 0
43 0 0 40 0 39 -30 16 c-16 8 -34 15 -41 15 -7 0 -42 13 -78 29 -94 41 -170
71 -218 88 -23 8 -59 30 -80 48 -21 18 -75 51 -120 73 -50 26 -91 54 -107 75
-14 18 -52 52 -84 76 -33 23 -69 55 -80 70 -11 16 -46 42 -76 60 -44 24 -63
43 -87 86 -22 39 -47 66 -84 90 -66 45 -225 200 -225 221 0 23 -55 74 -80 74
-14 0 -29 14 -48 46 -15 26 -57 78 -94 117 -37 38 -79 88 -95 111 -15 22 -49
65 -76 95 -26 30 -64 86 -84 125 -20 39 -53 90 -74 114 -21 24 -41 58 -45 75
-3 17 -40 99 -80 182 l-74 151 0 53 c0 38 9 71 30 118 39 84 39 125 1 164 -19
18 -40 29 -58 29 -38 0 -155 41 -239 83 -38 19 -84 38 -102 42 -47 10 -183
148 -207 210 l-18 48 24 18 c13 10 43 23 66 28 57 15 83 50 83 112 l0 49 -74
0 c-41 0 -78 -4 -81 -10z"/>
</g>
</svg>
