<?xml version="1.0" standalone="no"?>
<!DOCTYPE svg PUBLIC "-//W3C//DTD SVG 20010904//EN"
 "http://www.w3.org/TR/2001/REC-SVG-20010904/DTD/svg10.dtd">
<svg version="1.0" xmlns="http://www.w3.org/2000/svg"
 width="555.000000pt" height="459.000000pt" viewBox="0 0 555.000000 459.000000"
 preserveAspectRatio="xMidYMid meet">
<metadata>
Created by potrace 1.16, written by Peter Selinger 2001-2019
</metadata>
<g transform="translate(0.000000,459.000000) scale(0.100000,-0.100000)"
fill="#000000" stroke="none">
<path d="M155 4580 c-3 -5 -14 -10 -24 -10 -10 0 -44 -21 -75 -46 l-56 -46 0
-89 c0 -49 5 -91 10 -94 6 -4 21 -28 35 -54 26 -53 86 -111 114 -111 10 0 32
-18 50 -40 20 -25 44 -43 69 -49 20 -6 61 -22 90 -36 28 -14 57 -25 63 -25 19
0 136 -58 178 -88 22 -16 57 -33 76 -36 44 -9 101 -64 110 -108 4 -18 22 -50
41 -70 18 -20 40 -51 49 -69 9 -17 37 -57 61 -88 24 -31 58 -74 75 -96 17 -22
35 -49 39 -60 31 -81 48 -110 77 -132 18 -14 54 -58 80 -97 25 -39 108 -134
184 -212 89 -90 140 -151 145 -170 9 -40 21 -52 75 -80 26 -13 59 -38 73 -56
14 -18 55 -55 92 -83 36 -27 89 -68 117 -90 29 -22 86 -63 127 -90 41 -27 88
-61 105 -76 42 -37 169 -99 202 -99 28 0 67 -18 164 -78 30 -18 65 -35 79 -38
88 -22 147 -69 187 -149 14 -27 43 -70 63 -95 49 -58 61 -82 69 -139 l6 -46
56 -36 56 -37 38 -73 c21 -41 66 -106 99 -147 34 -40 72 -90 86 -111 14 -20
42 -57 62 -81 21 -24 41 -58 44 -77 3 -18 19 -50 34 -72 15 -21 36 -53 45 -72
10 -19 30 -47 45 -64 15 -16 36 -60 48 -97 12 -37 45 -101 73 -143 28 -42 55
-91 60 -108 5 -18 24 -57 43 -87 19 -30 61 -104 92 -165 32 -62 78 -133 105
-163 27 -30 52 -65 55 -78 l6 -24 54 0 54 0 0 44 c0 28 -11 67 -30 108 -16 34
-30 69 -30 76 0 18 -67 148 -105 204 -18 26 -37 63 -40 80 -9 42 -67 157 -110
220 -18 26 -37 63 -40 80 -9 42 -67 157 -110 220 -18 26 -37 63 -40 80 -13 59
-53 125 -104 169 -57 50 -81 90 -81 135 0 33 -26 64 -53 64 -18 0 -44 34 -81
108 -25 49 -134 193 -156 207 -6 4 -10 14 -10 24 0 10 -22 46 -50 80 -30 37
-56 82 -65 114 -25 86 -55 129 -110 159 -30 17 -66 28 -89 28 -43 0 -155 34
-197 59 -14 9 -50 31 -80 49 -30 17 -70 36 -89 42 -59 16 -130 54 -250 135
-123 83 -196 144 -317 268 -42 42 -84 77 -93 77 -10 0 -37 26 -60 58 -42 55
-61 76 -190 209 -33 34 -60 69 -60 77 0 9 -32 50 -70 92 -46 50 -85 105 -112
158 -22 44 -56 99 -74 120 -18 21 -41 64 -49 94 l-16 55 13 8 c21 13 75 10
115 -6 19 -8 53 -15 75 -15 21 0 55 -7 75 -15 19 -8 47 -15 60 -15 14 0 54
-13 90 -30 35 -16 81 -30 101 -30 20 0 57 -6 82 -14 103 -33 142 -39 270 -45
77 -4 144 -12 157 -19 15 -8 73 -12 183 -12 120 0 170 -4 197 -15 26 -11 76
-15 195 -15 118 0 168 -4 195 -15 45 -19 81 -19 126 0 26 11 74 15 164 15
l128 0 85 30 c46 17 99 30 117 30 32 0 224 60 273 85 14 7 36 25 49 39 14 14
32 26 42 26 10 0 31 12 48 26 36 30 121 153 121 175 0 27 30 59 75 79 l44 20
108 0 c65 0 126 -5 153 -14 58 -18 123 -35 180 -46 25 -5 69 -20 97 -34 l53
-26 83 0 c103 0 207 -32 282 -86 17 -13 66 -40 110 -62 44 -22 109 -65 143
-96 l63 -56 49 0 50 0 0 68 0 68 -61 53 c-95 84 -153 119 -241 148 -44 14
-116 43 -160 64 -62 31 -90 39 -134 39 -30 0 -71 7 -91 15 -19 8 -45 15 -57
15 -12 0 -60 13 -106 30 -47 16 -94 30 -105 30 -12 0 -59 13 -105 30 l-85 30
-127 0 -128 0 -65 -21 -65 -22 -47 -52 c-50 -55 -111 -134 -152 -196 -13 -20
-52 -55 -87 -77 -71 -47 -249 -112 -305 -112 -20 0 -53 -7 -72 -15 -20 -8 -61
-15 -90 -15 -30 0 -71 -7 -90 -15 -29 -12 -86 -15 -282 -15 -196 0 -253 3
-282 15 -23 10 -69 15 -134 15 -54 0 -110 5 -125 10 -19 7 -37 7 -60 0 -25 -9
-40 -8 -69 5 -21 8 -55 15 -77 15 -21 0 -55 7 -75 15 -19 8 -53 15 -75 15 -21
0 -55 7 -75 15 -23 10 -69 15 -132 15 l-97 0 -84 30 c-47 16 -96 30 -108 30
-13 0 -53 14 -89 30 -47 22 -79 30 -119 30 -30 0 -71 7 -91 15 -19 8 -54 15
-76 15 -29 0 -69 14 -133 45 l-92 46 -40 53 c-22 29 -57 86 -77 127 -21 40
-62 100 -91 133 -30 33 -54 63 -54 66 0 12 -132 114 -180 141 -25 13 -63 36
-84 52 -23 16 -52 27 -72 27 -18 0 -36 5 -39 10 -3 6 -28 10 -55 10 -27 0 -52
-4 -55 -10z m155 -211 c24 -18 63 -40 86 -51 47 -20 74 -49 94 -100 7 -18 25
-45 38 -60 31 -34 21 -35 -38 -7 -24 12 -62 24 -85 26 -51 7 -64 23 -58 75 l6
40 -50 -7 -50 -6 -31 36 c-36 41 -38 48 -16 69 24 24 57 19 104 -15z"/>
</g>
</svg>
