<?xml version="1.0" standalone="no"?>
<!DOCTYPE svg PUBLIC "-//W3C//DTD SVG 20010904//EN"
 "http://www.w3.org/TR/2001/REC-SVG-20010904/DTD/svg10.dtd">
<svg version="1.0" xmlns="http://www.w3.org/2000/svg"
 width="756.000000pt" height="84.000000pt" viewBox="0 0 756.000000 84.000000"
 preserveAspectRatio="xMidYMid meet">
<metadata>
Created by potrace 1.16, written by Peter Selinger 2001-2019
</metadata>
<g transform="translate(0.000000,84.000000) scale(0.100000,-0.100000)"
fill="#000000" stroke="none">
<path d="M5850 831 c-8 -4 -42 -21 -75 -37 l-60 -29 -27 -50 c-15 -27 -28 -61
-28 -75 0 -50 -57 -189 -96 -237 -70 -85 -102 -112 -141 -118 -21 -3 -58 -12
-83 -20 -25 -8 -63 -15 -85 -15 -28 0 -54 -9 -85 -30 -25 -16 -57 -30 -71 -30
-15 0 -43 -7 -62 -15 -27 -11 -75 -15 -180 -15 -108 0 -154 -4 -182 -16 l-37
-15 -49 17 -48 18 -102 -12 c-55 -7 -105 -9 -111 -6 -5 3 -136 8 -291 11 -211
4 -290 8 -316 19 -22 9 -72 14 -148 14 -78 0 -125 5 -150 15 -20 8 -66 15
-105 15 -38 0 -84 7 -105 15 -22 9 -67 15 -120 15 -52 0 -97 6 -120 15 -21 9
-67 15 -117 15 -62 0 -99 6 -156 26 -56 20 -98 27 -166 29 l-90 2 -68 32 c-37
17 -78 31 -92 31 -14 0 -41 7 -61 15 -19 8 -47 15 -62 15 -16 0 -63 24 -116
60 l-90 60 -70 -2 -69 -3 -21 -32 c-11 -17 -31 -51 -45 -74 -14 -23 -43 -55
-64 -70 l-39 -29 -57 0 c-32 0 -75 -7 -96 -16 -26 -11 -49 -14 -74 -8 -19 4
-62 8 -95 10 -113 5 -260 22 -290 32 -54 19 -119 33 -180 41 -34 5 -70 13 -82
19 -12 7 -32 12 -45 12 -40 0 -220 67 -283 104 -32 20 -74 40 -92 45 -19 6
-56 33 -86 63 -52 52 -158 118 -191 118 -10 0 -30 -7 -46 -15 -23 -12 -30 -22
-30 -45 l0 -29 97 -101 c92 -96 212 -190 244 -190 8 0 30 -11 50 -24 53 -36
330 -126 387 -126 26 0 67 -6 92 -14 78 -25 133 -37 195 -45 34 -5 70 -13 82
-19 35 -19 431 -16 476 3 20 8 55 15 77 15 40 0 152 50 225 99 36 25 109 28
175 7 57 -18 122 -35 180 -46 25 -5 77 -20 115 -34 53 -19 90 -26 150 -26 44
0 100 -6 125 -14 94 -30 138 -38 225 -45 50 -4 100 -12 112 -19 14 -8 76 -12
183 -12 120 0 170 -4 197 -15 19 -8 60 -15 90 -15 29 0 70 -7 90 -15 28 -12
81 -15 244 -15 128 0 210 -4 214 -10 8 -13 192 -13 200 0 8 13 62 13 71 -1 4
-7 22 -9 48 -5 22 3 46 5 51 5 83 -8 324 -8 340 0 11 6 81 12 155 14 128 4
162 9 270 43 25 8 69 14 98 14 35 0 69 8 104 25 29 14 69 30 88 35 20 5 66 28
102 50 37 22 74 40 83 40 21 0 75 54 75 75 0 9 17 45 39 80 21 36 51 104 66
152 15 49 37 100 47 116 l19 27 145 0 c106 0 154 -4 181 -15 19 -8 52 -15 72
-15 20 0 75 -13 121 -30 47 -16 94 -30 105 -30 12 0 59 -13 105 -30 47 -16
103 -30 125 -30 28 0 75 -17 155 -56 63 -31 149 -67 190 -80 97 -31 116 -41
170 -85 25 -20 65 -46 90 -59 25 -12 67 -40 94 -61 26 -21 53 -36 60 -32 6 3
23 15 39 25 l27 19 0 40 c0 24 -5 39 -12 39 -7 0 -35 25 -61 55 -31 35 -60 58
-82 64 -19 5 -47 18 -62 29 -36 25 -229 122 -244 122 -6 0 -40 14 -76 30 -35
17 -69 30 -74 30 -6 0 -35 11 -65 25 -67 31 -168 65 -191 65 -9 0 -77 20 -150
45 -73 25 -148 45 -168 45 -20 0 -52 7 -72 15 -19 8 -55 15 -79 15 -23 0 -46
5 -49 10 -7 12 -302 13 -325 1z"/>
</g>
</svg>
