<?xml version="1.0" standalone="no"?>
<!DOCTYPE svg PUBLIC "-//W3C//DTD SVG 20010904//EN"
 "http://www.w3.org/TR/2001/REC-SVG-20010904/DTD/svg10.dtd">
<svg version="1.0" xmlns="http://www.w3.org/2000/svg"
 width="588.000000pt" height="315.000000pt" viewBox="0 0 588.000000 315.000000"
 preserveAspectRatio="xMidYMid meet">
<metadata>
Created by potrace 1.16, written by Peter Selinger 2001-2019
</metadata>
<g transform="translate(0.000000,315.000000) scale(0.100000,-0.100000)"
fill="#000000" stroke="none">
<path d="M4 3137 c-3 -8 -4 -44 -2 -81 l3 -68 63 -33 c35 -18 86 -50 113 -72
28 -21 74 -56 102 -78 29 -22 73 -53 98 -67 25 -15 54 -39 63 -53 9 -14 35
-37 58 -51 23 -15 71 -54 108 -88 37 -33 79 -69 94 -79 31 -21 33 -45 6 -80
-40 -51 -13 -85 38 -47 40 30 76 21 143 -37 30 -25 78 -61 107 -80 29 -19 63
-51 77 -73 13 -21 45 -55 70 -76 25 -22 45 -47 45 -58 0 -11 28 -47 65 -83 37
-36 77 -86 94 -120 16 -33 46 -72 69 -90 27 -22 46 -48 57 -80 33 -95 71 -168
110 -214 40 -47 85 -159 85 -211 0 -12 14 -43 30 -68 16 -25 30 -57 30 -72 0
-14 13 -55 30 -90 22 -46 30 -78 30 -118 0 -30 8 -74 17 -98 l17 -44 -13 -42
c-8 -22 -17 -95 -22 -161 -11 -177 -20 -216 -57 -263 -60 -76 -149 -132 -207
-132 -28 0 -99 -33 -110 -51 -4 -5 -4 -26 -1 -45 l7 -34 64 0 c35 0 67 5 70
10 3 6 21 10 38 10 19 0 51 12 77 30 25 16 51 30 58 30 35 0 94 44 136 102 24
35 56 74 70 87 20 19 26 34 26 68 0 24 7 60 15 80 8 19 15 53 15 75 0 21 7 55
15 75 19 44 21 234 3 266 -7 12 -15 63 -19 112 -4 50 -12 110 -19 135 -31 115
-51 171 -89 249 -23 47 -41 91 -41 98 0 24 -72 157 -107 198 -18 22 -36 51
-40 65 -11 46 -45 104 -88 150 -23 25 -50 59 -60 75 -10 17 -44 57 -75 90 -31
33 -65 74 -75 90 -10 17 -89 100 -175 185 -87 85 -159 164 -161 174 -5 24 -44
53 -95 70 -28 10 -45 24 -59 50 l-20 36 15 10 c24 15 166 12 207 -5 19 -8 47
-15 60 -15 14 0 54 -13 90 -30 47 -22 79 -30 119 -30 30 0 71 -7 91 -15 19 -8
53 -15 75 -15 21 0 55 -7 75 -15 19 -8 60 -15 90 -15 29 0 70 -7 90 -15 19 -8
53 -15 75 -15 21 0 55 -7 75 -15 19 -8 53 -15 75 -15 21 0 55 -7 75 -15 19 -8
53 -15 75 -15 21 0 55 -7 75 -15 23 -10 69 -15 134 -15 65 0 112 -5 137 -15
l38 -15 469 3 c477 3 478 3 605 43 25 8 63 14 85 14 28 0 54 9 85 30 25 16 51
30 58 30 7 0 56 22 110 49 67 34 107 61 126 85 15 21 40 39 59 44 34 9 73 56
84 101 3 14 18 47 34 72 16 25 29 51 29 58 0 23 32 68 60 85 36 21 148 21 197
1 21 -9 67 -15 116 -15 l80 0 241 -80 c261 -87 272 -91 330 -132 21 -16 46
-28 55 -28 9 0 36 -14 61 -30 25 -16 52 -30 61 -30 8 0 26 -12 40 -26 13 -14
55 -46 92 -71 38 -25 79 -62 92 -83 35 -56 81 -90 121 -90 l34 0 0 91 0 91
-81 79 c-45 44 -100 89 -122 100 -22 12 -58 34 -80 50 -22 16 -47 29 -55 29
-22 0 -196 85 -243 120 -32 22 -53 30 -86 30 -24 0 -60 7 -80 15 -19 8 -46 15
-60 15 -13 0 -49 12 -80 26 -76 34 -211 75 -315 94 -26 5 -56 13 -67 19 -34
19 -267 14 -335 -6 l-59 -18 -44 -59 c-28 -37 -43 -69 -43 -87 0 -16 -6 -44
-14 -62 -19 -46 -105 -169 -130 -187 -12 -8 -37 -29 -56 -46 -19 -17 -65 -40
-103 -52 -38 -13 -85 -34 -105 -47 -28 -19 -49 -25 -93 -25 -31 0 -73 -7 -92
-15 -23 -9 -68 -15 -120 -15 -53 0 -98 -6 -120 -15 -51 -21 -273 -21 -324 0
-27 11 -77 15 -210 15 -132 0 -182 4 -210 15 -26 11 -74 15 -177 15 -94 0
-156 5 -186 14 -86 27 -135 38 -210 46 -41 4 -88 12 -105 18 -54 19 -119 33
-180 41 -34 5 -70 13 -82 19 -12 7 -54 12 -93 12 -40 0 -86 6 -107 15 -19 8
-45 15 -56 15 -11 0 -82 20 -156 44 -160 52 -229 69 -243 60 -21 -13 -195 32
-296 78 -35 15 -68 28 -74 28 -5 0 -39 14 -75 30 -35 17 -69 30 -75 30 -21 0
-84 34 -128 69 -24 20 -69 51 -98 68 l-54 33 -75 0 c-52 0 -75 -4 -79 -13z"/>
</g>
</svg>
