<?xml version="1.0" standalone="no"?>
<!DOCTYPE svg PUBLIC "-//W3C//DTD SVG 20010904//EN"
 "http://www.w3.org/TR/2001/REC-SVG-20010904/DTD/svg10.dtd">
<svg version="1.0" xmlns="http://www.w3.org/2000/svg"
 width="657.000000pt" height="174.000000pt" viewBox="0 0 657.000000 174.000000"
 preserveAspectRatio="xMidYMid meet">
<metadata>
Created by potrace 1.16, written by Peter Selinger 2001-2019
</metadata>
<g transform="translate(0.000000,174.000000) scale(0.100000,-0.100000)"
fill="#000000" stroke="none">
<path d="M23 1714 l-23 -25 0 -80 0 -81 28 -35 c65 -82 150 -166 185 -184 21
-11 55 -35 75 -53 20 -18 53 -42 72 -54 20 -11 46 -32 59 -46 17 -18 35 -26
59 -26 l35 0 41 -44 c50 -53 123 -106 146 -106 9 0 27 -11 40 -25 25 -26 163
-122 240 -167 25 -14 54 -36 65 -48 11 -12 38 -31 60 -42 22 -11 60 -37 85
-57 25 -20 84 -62 131 -94 47 -31 105 -74 129 -95 24 -20 64 -48 89 -62 26
-14 58 -44 74 -68 16 -23 45 -51 65 -61 20 -11 93 -74 161 -140 l124 -121 48
0 47 0 26 31 c17 20 26 42 26 66 l0 36 -62 59 c-107 99 -122 115 -147 148 -13
17 -41 43 -63 56 -21 14 -43 37 -49 52 -6 15 -19 44 -30 64 -25 48 -25 49 14
95 43 52 71 116 64 145 -4 14 -17 40 -30 59 l-23 34 -44 7 c-25 3 -60 14 -79
24 -34 17 -121 100 -121 116 0 18 56 21 101 5 26 -10 55 -17 66 -17 22 0 120
-33 181 -61 73 -33 224 -76 317 -89 62 -9 120 -27 193 -61 41 -18 117 -43 212
-69 43 -11 152 -26 250 -34 84 -7 188 -23 201 -32 8 -5 39 -12 69 -16 234 -30
280 -37 298 -47 11 -6 53 -11 92 -11 40 0 86 -6 107 -15 46 -19 442 -22 476
-3 12 7 63 15 112 19 96 7 129 15 270 60 50 16 100 29 112 29 12 0 51 13 86
30 36 16 72 30 80 30 8 0 37 18 63 41 27 22 61 47 75 54 15 8 46 43 69 77 23
35 57 79 74 98 18 19 40 62 51 95 25 79 79 134 158 160 l57 19 53 -18 53 -18
40 12 39 12 50 -22 c28 -12 104 -39 170 -61 66 -22 171 -64 233 -94 62 -30
118 -55 124 -55 24 0 181 -83 216 -114 40 -36 92 -66 116 -66 8 0 29 -18 46
-40 34 -43 70 -52 104 -27 l17 12 -3 69 -3 69 -75 53 c-41 29 -92 58 -112 64
-20 6 -61 33 -91 59 -52 48 -145 91 -198 91 -11 0 -47 16 -78 35 -59 37 -181
84 -215 85 -11 0 -80 20 -153 45 -88 30 -149 45 -183 45 -28 0 -67 7 -87 15
-24 10 -70 15 -143 15 l-107 0 -64 -49 c-35 -27 -76 -61 -91 -75 l-28 -25 0
-48 c0 -35 -10 -68 -34 -118 -40 -81 -47 -89 -103 -133 -24 -19 -43 -42 -43
-52 0 -24 -14 -33 -90 -58 -36 -11 -99 -36 -140 -56 -41 -19 -102 -44 -135
-56 l-59 -20 -496 0 -495 0 -45 14 c-77 24 -133 37 -190 45 -30 4 -71 12 -90
18 -60 19 -131 32 -220 38 -47 3 -105 12 -130 20 -62 18 -127 35 -180 45 -25
5 -64 18 -86 29 -56 27 -201 71 -299 90 -50 10 -216 65 -271 91 -71 33 -162
60 -199 60 -20 0 -61 11 -91 25 -97 44 -171 65 -235 65 l-62 0 -53 -57 c-30
-32 -54 -64 -54 -71 0 -8 7 -37 15 -65 l15 -52 86 -80 c48 -44 115 -96 150
-115 74 -41 129 -108 120 -146 -4 -15 -14 -24 -26 -24 -19 0 -23 9 -32 65 l-4
20 -44 -2 c-57 -3 -93 10 -150 57 -25 20 -79 58 -120 85 -41 27 -95 68 -120
90 -25 23 -104 80 -176 128 -71 48 -140 101 -153 118 l-23 31 11 38 c18 61 14
145 -10 193 -58 115 -132 181 -240 216 -35 12 -72 26 -81 31 -10 6 -84 10
-165 9 l-148 -1 -22 -24z m331 -193 c45 -20 118 -80 137 -113 6 -12 4 -21 -7
-32 -22 -23 -27 -21 -88 29 -31 25 -59 45 -63 45 -17 0 -53 46 -53 67 0 28 14
29 74 4z"/>
</g>
</svg>
