<?xml version="1.0" standalone="no"?>
<!DOCTYPE svg PUBLIC "-//W3C//DTD SVG 20010904//EN"
 "http://www.w3.org/TR/2001/REC-SVG-20010904/DTD/svg10.dtd">
<svg version="1.0" xmlns="http://www.w3.org/2000/svg"
 width="654.000000pt" height="129.000000pt" viewBox="0 0 654.000000 129.000000"
 preserveAspectRatio="xMidYMid meet">
<metadata>
Created by potrace 1.16, written by Peter Selinger 2001-2019
</metadata>
<g transform="translate(0.000000,129.000000) scale(0.100000,-0.100000)"
fill="#000000" stroke="none">
<path d="M20 1261 c0 -17 -4 -33 -10 -36 -6 -3 -10 -28 -10 -55 l0 -48 72 -77
c63 -68 145 -125 178 -125 6 0 41 -18 78 -40 37 -23 78 -43 92 -47 14 -3 46
-18 71 -34 25 -16 51 -29 58 -29 7 0 39 -16 70 -35 63 -39 181 -84 221 -85 37
0 159 -85 205 -142 67 -84 144 -212 145 -240 0 -18 -9 -33 -27 -46 -38 -27
-177 -92 -195 -92 -9 0 -27 -9 -42 -21 -26 -20 -31 -44 -20 -87 l6 -22 94 0
c51 0 96 4 99 10 3 6 29 10 56 10 l51 0 65 63 c117 112 138 191 83 309 -17 37
-28 72 -24 82 10 25 50 30 97 12 27 -10 73 -16 125 -16 51 0 96 -6 119 -15 20
-8 66 -15 105 -15 38 0 84 -7 105 -15 22 -9 67 -15 120 -15 52 0 97 -6 120
-15 25 -11 72 -15 165 -15 92 0 139 -4 165 -15 l35 -15 343 0 343 0 35 15 c25
10 72 15 150 15 79 0 126 5 150 15 24 10 70 15 135 15 66 0 112 5 135 15 20 8
61 15 90 15 30 0 71 7 90 15 21 8 67 15 105 15 39 0 85 7 105 15 20 8 52 15
72 15 39 0 125 27 209 65 30 14 61 25 68 25 17 0 123 72 168 114 19 18 54 47
77 65 32 25 43 40 43 60 0 16 5 43 12 61 8 25 8 45 0 79 -6 25 -12 64 -14 85
l-3 40 33 19 33 19 42 -16 43 -16 199 0 199 0 133 -45 c73 -25 148 -45 168
-45 20 0 52 -7 72 -15 24 -10 52 -13 82 -10 l46 6 73 -35 c47 -23 88 -36 114
-36 47 0 90 -19 178 -79 109 -75 120 -84 150 -133 32 -52 89 -88 140 -88 l30
0 0 85 c0 67 -4 92 -19 113 -10 15 -25 39 -34 53 -9 15 -48 48 -88 75 -39 26
-81 62 -91 81 -24 40 -47 54 -76 46 -13 -3 -78 12 -150 35 -156 49 -211 62
-260 62 -20 0 -57 9 -81 20 -26 12 -65 20 -97 20 -30 0 -71 7 -91 15 -19 8
-53 15 -75 15 -21 0 -55 7 -75 15 -24 10 -70 15 -139 15 -58 0 -106 4 -109 10
-8 14 -732 14 -740 0 -3 -5 -17 -10 -31 -10 -57 0 -149 -41 -196 -88 -54 -52
-58 -73 -28 -132 39 -77 76 -84 216 -40 l71 22 56 -27 c32 -14 61 -35 67 -44
17 -32 -41 -171 -72 -171 -4 0 -42 -20 -82 -45 -41 -25 -86 -45 -99 -45 -14 0
-41 -7 -60 -15 -20 -8 -54 -15 -75 -15 -22 0 -56 -7 -75 -15 -20 -8 -61 -15
-90 -15 -30 0 -71 -7 -90 -15 -21 -8 -67 -15 -105 -15 -39 0 -85 -7 -105 -15
-25 -10 -72 -15 -150 -15 -79 0 -126 -5 -150 -15 -21 -8 -67 -15 -105 -15 -39
0 -85 -7 -105 -15 l-36 -15 -320 0 c-200 0 -330 4 -347 11 -16 5 -105 13 -199
16 -108 4 -182 11 -204 19 -19 8 -69 14 -115 14 -44 0 -101 6 -126 14 -94 30
-138 38 -225 45 -49 4 -100 12 -112 19 -12 7 -40 12 -63 12 -22 0 -57 7 -77
15 -19 8 -45 15 -57 15 -23 0 -123 32 -166 53 -62 30 -158 102 -183 138 -18
25 -50 51 -87 69 -33 17 -74 43 -92 59 -79 69 -162 131 -176 131 -19 0 -81 29
-117 56 -50 36 -112 64 -144 64 -16 0 -33 5 -36 10 -4 6 -67 10 -156 10 l-149
0 0 -29z"/>
</g>
</svg>
