<?xml version="1.0" standalone="no"?>
<!DOCTYPE svg PUBLIC "-//W3C//DTD SVG 20010904//EN"
 "http://www.w3.org/TR/2001/REC-SVG-20010904/DTD/svg10.dtd">
<svg version="1.0" xmlns="http://www.w3.org/2000/svg"
 width="684.000000pt" height="258.000000pt" viewBox="0 0 684.000000 258.000000"
 preserveAspectRatio="xMidYMid meet">
<metadata>
Created by potrace 1.16, written by Peter Selinger 2001-2019
</metadata>
<g transform="translate(0.000000,258.000000) scale(0.100000,-0.100000)"
fill="#000000" stroke="none">
<path d="M4566 2571 c-3 -4 -18 -11 -34 -14 -35 -7 -132 -108 -132 -137 0 -47
68 -156 154 -244 100 -103 113 -121 95 -142 -18 -22 -50 -17 -99 16 -25 16
-58 30 -73 30 -16 0 -58 14 -94 30 -35 17 -76 30 -90 30 -14 0 -64 18 -110 40
-95 45 -110 47 -156 24 -103 -52 -98 -66 93 -260 88 -89 160 -168 160 -175 0
-16 405 -425 451 -454 20 -13 58 -57 84 -97 60 -91 81 -114 126 -144 20 -12
57 -53 82 -91 25 -37 57 -79 71 -92 14 -14 26 -32 26 -40 0 -9 12 -33 26 -54
l25 -38 -12 -15 -13 -15 -140 5 c-148 6 -194 7 -251 7 -19 0 -45 0 -57 0 -13
0 -46 -3 -73 -6 -36 -5 -61 -3 -89 9 -23 9 -67 16 -108 16 -38 0 -84 7 -105
15 -19 8 -55 15 -78 15 -50 0 -105 38 -105 72 0 34 -19 57 -70 83 -27 14 -54
25 -60 25 -25 0 -122 52 -158 85 -24 21 -50 35 -66 35 -15 0 -43 7 -63 15 -27
11 -77 15 -203 15 l-168 0 -61 -45 c-40 -30 -61 -52 -61 -65 0 -38 39 -98 87
-133 63 -46 186 -107 216 -107 13 0 61 -13 107 -30 47 -16 96 -30 110 -30 14
0 45 -14 70 -30 25 -16 52 -30 60 -30 30 0 40 -23 40 -93 0 -46 -5 -78 -16
-97 -17 -28 -62 -60 -85 -60 -7 0 -25 -12 -41 -27 -28 -26 -115 -63 -153 -63
-11 0 -58 -14 -105 -30 -46 -17 -94 -30 -106 -30 -12 0 -38 -7 -57 -15 -20 -8
-54 -15 -75 -15 -22 0 -56 -7 -75 -15 l-36 -15 -621 0 -621 0 -36 15 c-23 10
-69 15 -135 15 -65 0 -111 5 -135 15 -19 8 -52 15 -72 15 -20 0 -69 11 -109
25 -43 15 -83 22 -100 19 -18 -4 -48 3 -86 20 -32 14 -70 26 -83 26 -14 0 -54
13 -90 30 -35 16 -70 30 -76 30 -7 0 -37 12 -67 26 -84 39 -165 64 -208 64
-29 0 -45 7 -67 30 -20 21 -38 30 -60 30 -32 0 -61 16 -106 57 -14 13 -39 27
-56 32 -43 12 -231 138 -250 167 -27 42 -122 104 -160 104 l-33 0 0 -25 c0
-14 4 -33 9 -43 5 -9 19 -40 31 -69 25 -57 62 -96 130 -137 25 -15 71 -48 102
-74 101 -85 514 -272 599 -272 11 0 44 -11 74 -25 86 -39 353 -125 388 -125
18 0 52 -6 77 -14 101 -32 140 -39 255 -45 66 -4 130 -12 142 -19 12 -6 46
-12 75 -12 48 0 148 -26 165 -43 11 -12 821 -8 828 3 8 13 182 13 190 0 8 -13
102 -13 110 0 3 6 31 10 61 10 39 0 94 13 187 45 73 25 149 45 168 45 18 0 72
14 119 30 46 17 101 30 122 30 44 0 107 29 156 72 19 16 50 39 70 52 21 13 50
43 65 67 16 24 48 58 71 76 30 21 45 42 50 63 3 17 15 45 27 61 l20 29 252 0
251 0 28 -27 28 -27 123 -3 c94 -2 132 1 165 14 l43 16 53 -13 c41 -10 62 -10
86 -1 18 6 52 11 75 11 59 0 75 21 75 99 0 75 -9 94 -59 125 -25 16 -40 34
-44 53 -3 18 -45 71 -110 140 -75 80 -108 124 -118 155 -11 31 -25 50 -57 71
-24 16 -55 48 -69 71 -46 73 -84 116 -104 116 -12 0 -30 17 -48 48 -38 60
-125 166 -175 212 -78 70 -107 103 -121 137 -24 57 -12 63 128 63 l120 0 43
44 c33 33 44 51 44 75 0 58 -40 153 -83 202 -175 192 -191 238 -90 254 55 8
56 8 228 -3 72 -4 140 -13 152 -20 15 -8 75 -12 183 -12 120 0 170 -4 197 -15
19 -8 65 -15 102 -15 66 0 138 -19 227 -60 94 -43 163 -60 245 -60 l81 0 65
-30 c35 -16 69 -30 74 -30 6 0 36 -12 67 -26 31 -14 92 -37 134 -51 72 -23
138 -69 138 -96 0 -4 34 -42 75 -83 l75 -74 35 0 35 0 0 74 c0 41 -4 77 -9 80
-4 3 -11 18 -14 34 -4 17 -23 42 -47 63 -23 19 -63 55 -89 80 -25 26 -55 51
-66 57 -11 5 -109 40 -218 76 -138 46 -213 66 -248 66 -27 0 -66 7 -86 15 -19
8 -45 15 -56 15 -12 0 -81 20 -154 45 -101 35 -147 45 -195 45 -35 0 -83 6
-108 14 -92 29 -137 39 -200 43 -36 3 -69 9 -74 14 -13 12 -703 12 -710 0z"/>
</g>
</svg>
