<?xml version="1.0" standalone="no"?>
<!DOCTYPE svg PUBLIC "-//W3C//DTD SVG 20010904//EN"
 "http://www.w3.org/TR/2001/REC-SVG-20010904/DTD/svg10.dtd">
<svg version="1.0" xmlns="http://www.w3.org/2000/svg"
 width="522.000000pt" height="180.000000pt" viewBox="0 0 522.000000 180.000000"
 preserveAspectRatio="xMidYMid meet">
<metadata>
Created by potrace 1.16, written by Peter Selinger 2001-2019
</metadata>
<g transform="translate(0.000000,180.000000) scale(0.100000,-0.100000)"
fill="#000000" stroke="none">
<path d="M0 1734 l0 -66 31 -39 c22 -29 43 -42 75 -50 24 -6 63 -28 86 -48
112 -95 151 -124 181 -132 18 -5 60 -31 92 -59 33 -27 78 -59 100 -71 66 -36
145 -100 145 -118 0 -10 11 -28 25 -41 31 -29 30 -67 0 -62 -50 8 -192 23
-210 23 -11 -1 -54 -3 -95 -7 l-76 -6 -79 -41 -80 -42 -27 -50 c-53 -96 -28
-236 59 -343 104 -128 130 -154 174 -177 67 -34 178 -111 224 -155 22 -21 60
-48 84 -60 24 -12 62 -35 84 -51 22 -16 46 -29 54 -29 8 0 44 -14 80 -30 35
-17 75 -30 89 -30 14 0 41 -7 61 -15 19 -8 55 -15 79 -15 23 0 46 -4 49 -10 7
-11 277 -14 288 -3 11 11 110 43 133 43 12 0 38 7 57 15 20 8 51 15 68 15 l32
0 88 89 89 90 0 81 0 81 -24 47 c-15 29 -63 85 -120 140 -53 50 -96 98 -96
106 0 9 -30 38 -67 66 -38 29 -68 57 -68 63 0 18 79 20 120 3 29 -13 78 -16
226 -16 126 0 197 -4 216 -12 16 -7 98 -15 188 -19 88 -3 196 -12 239 -19 l79
-12 54 18 54 18 48 -17 c97 -34 171 -16 171 42 0 30 -81 114 -146 151 -61 34
-71 50 -58 87 11 29 95 63 157 63 21 0 48 5 60 12 68 37 484 37 554 -1 12 -6
54 -11 93 -11 40 0 86 -6 107 -15 25 -11 72 -15 165 -15 92 0 139 -4 165 -15
19 -8 52 -15 72 -15 43 0 144 -34 181 -60 36 -26 142 -60 185 -60 20 0 52 -7
72 -15 19 -8 45 -15 57 -15 33 0 134 -38 175 -66 19 -13 42 -24 49 -24 29 0
149 -64 201 -106 58 -48 76 -52 121 -29 l30 16 0 68 0 69 -23 6 c-12 3 -40 21
-62 39 -50 43 -176 107 -210 107 -14 0 -42 7 -62 15 -19 8 -47 15 -62 15 -14
0 -39 9 -56 21 -64 43 -125 69 -165 69 -22 0 -57 7 -77 15 -19 8 -47 15 -60
15 -14 0 -54 13 -90 30 -35 16 -81 30 -101 30 -20 0 -57 6 -82 14 -104 33
-142 39 -270 45 -74 3 -141 10 -148 14 -7 5 -28 3 -46 -3 -27 -9 -42 -8 -71 5
-21 8 -62 15 -92 15 -29 0 -70 7 -90 15 -47 20 -104 19 -164 -2 l-49 -18 -49
18 c-60 21 -117 22 -164 2 -20 -8 -66 -15 -102 -15 -66 0 -153 -23 -224 -60
-74 -38 -131 -127 -131 -204 0 -59 -22 -74 -76 -51 l-36 15 -354 0 c-248 0
-361 3 -381 12 -15 6 -71 15 -123 20 -112 10 -111 10 -216 2 l-82 -6 -38 18
c-22 10 -57 31 -78 46 -21 15 -46 28 -54 28 -17 0 -151 63 -172 82 -8 7 -30
32 -48 56 l-34 42 -32 0 c-34 0 -92 36 -131 80 -11 12 -42 34 -70 47 -51 26
-107 66 -160 114 -16 15 -44 30 -62 34 -17 3 -51 23 -75 43 -161 138 -233 182
-299 182 l-49 0 0 -66z m717 -859 c24 -10 71 -15 149 -15 81 0 125 -5 154 -16
l41 -16 42 12 43 11 55 -24 c29 -13 65 -26 79 -30 14 -3 44 -22 66 -41 22 -19
69 -49 104 -67 35 -17 79 -46 99 -64 20 -18 55 -42 77 -54 23 -12 49 -30 57
-39 20 -21 97 -184 97 -203 0 -23 -39 -79 -55 -79 -8 0 -38 -11 -67 -25 -29
-13 -82 -34 -118 -46 l-65 -23 -131 1 c-95 1 -141 6 -169 17 -20 9 -47 16 -59
16 -32 0 -132 37 -174 64 -20 13 -51 27 -68 31 -18 3 -51 23 -75 43 -24 20
-60 48 -80 62 -50 33 -172 134 -213 174 -57 58 -136 187 -136 224 0 55 15 72
64 72 24 0 59 7 77 15 45 19 160 19 206 0z"/>
</g>
</svg>
