<?xml version="1.0" standalone="no"?>
<!DOCTYPE svg PUBLIC "-//W3C//DTD SVG 20010904//EN"
 "http://www.w3.org/TR/2001/REC-SVG-20010904/DTD/svg10.dtd">
<svg version="1.0" xmlns="http://www.w3.org/2000/svg"
 width="348.000000pt" height="258.000000pt" viewBox="0 0 348.000000 258.000000"
 preserveAspectRatio="xMidYMid meet">
<metadata>
Created by potrace 1.16, written by Peter Selinger 2001-2019
</metadata>
<g transform="translate(0.000000,258.000000) scale(0.100000,-0.100000)"
fill="#000000" stroke="none">
<path d="M168 2537 c-48 -77 -53 -94 -40 -143 7 -24 12 -54 12 -67 0 -55 92
-117 175 -117 77 0 175 62 175 110 0 9 11 27 25 40 14 13 25 30 25 37 0 8 -29
48 -65 90 -36 42 -65 80 -65 85 0 4 -48 8 -107 8 l-108 -1 -27 -42z"/>
<path d="M95 2023 c-16 -9 -45 -27 -63 -41 l-32 -24 0 -89 c0 -48 4 -91 10
-94 5 -3 10 -14 10 -23 0 -16 64 -117 98 -156 9 -10 41 -34 69 -53 29 -19 68
-56 88 -83 19 -26 47 -56 62 -65 14 -10 45 -35 68 -56 54 -49 156 -119 175
-119 8 0 28 -13 45 -29 16 -16 73 -50 125 -77 113 -57 126 -67 152 -119 12
-22 55 -78 97 -125 42 -47 97 -116 123 -155 25 -38 58 -81 72 -94 14 -14 26
-34 26 -45 0 -12 25 -44 60 -78 33 -31 60 -62 60 -68 0 -21 71 -152 113 -207
23 -31 79 -94 124 -140 l83 -83 45 0 45 0 0 50 0 50 -70 76 c-41 44 -73 88
-77 105 -3 18 -21 42 -44 60 -25 19 -42 44 -49 67 -11 41 -38 87 -87 152 -18
24 -33 51 -33 61 0 10 -25 46 -56 81 -30 34 -62 78 -70 97 l-15 35 15 14 14
14 97 -46 97 -46 79 0 78 0 36 32 c39 34 69 86 90 156 16 52 10 70 -35 102
-16 12 -30 28 -30 36 0 30 -70 153 -100 174 -41 29 -54 55 -40 80 l11 20 265
0 265 0 55 -25 c99 -46 320 -111 419 -125 33 -4 84 -20 112 -34 29 -14 59 -26
65 -26 7 0 55 -20 106 -45 52 -25 105 -45 119 -45 27 0 161 -77 208 -119 17
-15 44 -36 60 -46 17 -10 50 -40 74 -67 55 -62 110 -92 146 -78 l26 10 -3 86
-3 85 -66 37 c-141 78 -196 116 -238 163 -24 27 -60 58 -80 69 -51 25 -155 60
-183 60 -13 0 -65 20 -116 45 -63 30 -107 45 -134 45 -23 0 -67 12 -105 30
-47 22 -79 30 -119 30 -30 0 -71 7 -91 15 -19 8 -47 15 -62 15 -14 0 -46 14
-71 30 -25 16 -58 30 -73 30 -15 0 -44 7 -64 15 -46 19 -111 19 -158 -1 l-38
-16 -41 16 c-53 20 -143 21 -189 1 -20 -8 -62 -15 -94 -15 l-58 -1 -70 -37
-70 -37 2 -30 c2 -55 16 -120 30 -149 8 -16 47 -65 85 -110 144 -165 136 -237
-19 -185 -37 13 -80 30 -94 38 -14 9 -47 29 -73 44 -54 34 -170 76 -207 77
-14 0 -44 13 -65 28 -38 28 -50 46 -94 149 -15 33 -45 73 -84 110 -34 32 -74
79 -91 103 -16 25 -82 97 -146 161 -64 64 -124 130 -133 146 -8 17 -37 47 -63
66 -26 19 -59 47 -73 62 -29 31 -84 61 -149 81 -55 17 -49 17 -86 -3z m299
-373 c17 -25 35 -53 39 -62 8 -22 -10 -23 -37 -3 -11 8 -30 15 -42 15 -13 0
-26 6 -31 13 -9 14 -42 108 -43 120 0 19 84 -43 114 -83z m102 -157 c-7 -7
-26 7 -26 19 0 6 6 6 15 -2 9 -7 13 -15 11 -17z"/>
</g>
</svg>
