<?xml version="1.0" standalone="no"?>
<!DOCTYPE svg PUBLIC "-//W3C//DTD SVG 20010904//EN"
 "http://www.w3.org/TR/2001/REC-SVG-20010904/DTD/svg10.dtd">
<svg version="1.0" xmlns="http://www.w3.org/2000/svg"
 width="693.000000pt" height="333.000000pt" viewBox="0 0 693.000000 333.000000"
 preserveAspectRatio="xMidYMid meet">
<metadata>
Created by potrace 1.16, written by Peter Selinger 2001-2019
</metadata>
<g transform="translate(0.000000,333.000000) scale(0.100000,-0.100000)"
fill="#000000" stroke="none">
<path d="M305 3320 c-3 -5 -24 -10 -46 -10 -37 0 -138 -29 -184 -52 -11 -6
-32 -22 -48 -36 l-27 -26 0 -77 c0 -43 4 -81 10 -84 5 -3 10 -16 10 -27 0 -13
37 -59 97 -120 l98 -99 42 -11 c24 -6 62 -27 85 -48 52 -45 158 -100 194 -100
36 0 86 -25 119 -60 16 -17 35 -30 43 -30 7 0 43 -13 79 -30 35 -16 76 -30 91
-30 15 0 47 -14 72 -30 25 -16 51 -30 58 -30 8 0 43 -13 79 -30 37 -17 81 -30
104 -30 22 0 56 -7 76 -15 20 -8 66 -15 105 -15 l70 0 65 -30 c39 -18 81 -30
106 -30 29 0 71 -14 135 -45 63 -30 107 -45 134 -45 51 0 73 -12 102 -59 15
-23 46 -51 80 -69 39 -22 63 -45 82 -77 17 -29 46 -58 80 -80 39 -25 54 -41
54 -57 0 -14 24 -45 64 -84 36 -35 72 -78 82 -95 9 -18 43 -72 76 -120 41 -61
67 -113 88 -178 30 -91 76 -193 111 -242 10 -15 19 -44 19 -65 1 -22 3 -138 6
-259 l5 -220 -30 -29 c-17 -17 -31 -37 -31 -46 0 -27 -30 -60 -78 -84 -26 -13
-72 -49 -102 -80 -40 -41 -62 -56 -83 -56 -15 0 -51 -12 -80 -26 -28 -14 -72
-29 -97 -34 -57 -11 -122 -28 -180 -46 -26 -8 -86 -14 -141 -14 l-95 0 -29 30
-29 30 -78 0 -77 0 -12 21 c-7 14 -9 39 -4 68 10 60 9 102 -2 183 l-9 67 -78
83 c-43 46 -97 103 -120 128 -44 47 -138 103 -193 115 -17 3 -52 24 -76 46
-28 24 -55 39 -71 39 -15 0 -43 7 -63 15 -19 8 -60 15 -90 15 -29 0 -70 7 -90
15 -57 24 -247 20 -326 -6 -84 -28 -120 -65 -148 -151 l-22 -70 41 -83 c30
-60 55 -95 91 -126 28 -24 51 -52 51 -61 0 -35 67 -93 165 -142 54 -27 114
-63 134 -81 38 -34 91 -65 112 -65 6 0 51 -18 98 -41 108 -51 191 -79 233 -79
18 0 53 -6 78 -14 94 -30 138 -38 225 -45 50 -4 100 -12 112 -19 12 -7 42 -12
67 -12 25 0 48 -4 51 -10 4 -6 77 -10 187 -10 l180 0 30 21 c19 14 53 24 92
28 42 5 73 15 101 34 22 15 46 27 55 27 8 0 35 14 60 30 25 16 51 30 58 30 7
0 47 18 90 39 81 41 172 124 172 158 0 10 24 39 54 65 l53 47 20 68 c45 149
65 253 65 323 -1 54 -19 190 -32 240 -28 103 -52 174 -65 194 -8 11 -15 36
-15 55 0 51 -21 113 -48 142 -13 15 -38 47 -55 72 -18 25 -45 63 -60 84 -15
21 -59 85 -96 143 -38 58 -81 116 -95 129 -14 14 -26 33 -26 44 0 10 -20 39
-45 64 l-45 44 10 20 11 19 70 0 c54 0 83 -6 126 -25 l55 -26 35 12 c22 7 63
9 111 5 88 -8 73 -8 377 2 145 5 240 12 258 20 18 7 77 12 156 12 92 0 139 4
164 15 20 8 61 15 90 15 30 0 71 7 90 15 26 11 73 15 165 15 93 0 140 4 165
15 20 8 54 15 75 15 22 0 55 6 73 14 19 8 66 17 104 21 55 6 93 19 181 61 61
30 118 54 128 54 10 0 54 35 98 77 83 81 134 164 164 265 l15 47 -42 82 c-32
64 -38 84 -27 90 19 13 292 11 325 -2 16 -6 125 -13 253 -16 146 -3 241 -9
270 -18 63 -19 128 -35 175 -44 22 -4 56 -12 75 -18 49 -16 117 -33 170 -43
25 -5 96 -34 158 -64 62 -31 117 -56 124 -56 18 0 154 -68 167 -84 7 -8 16
-27 20 -43 14 -53 94 -88 142 -63 l19 11 0 71 0 71 -74 73 c-98 96 -152 134
-190 134 -17 0 -48 11 -67 24 -41 28 -146 66 -182 66 -13 0 -36 13 -52 30
l-29 30 -43 0 c-24 0 -60 7 -80 15 -19 8 -52 15 -72 15 -20 0 -56 6 -81 14
-98 31 -139 39 -240 45 -58 4 -115 12 -127 19 -14 8 -72 12 -168 12 -107 0
-155 4 -182 15 l-35 15 -279 0 -278 0 -76 -25 c-42 -13 -93 -24 -113 -24 -67
2 -166 -17 -207 -38 -22 -12 -62 -44 -88 -72 l-47 -50 0 -54 c0 -68 18 -87 82
-87 32 0 70 12 131 40 47 22 90 40 97 40 6 0 28 -11 48 -25 24 -17 50 -25 77
-25 83 0 215 -66 215 -107 0 -7 -19 -42 -41 -77 -59 -89 -201 -184 -260 -172
-16 3 -38 -3 -58 -15 -59 -35 -143 -59 -212 -59 -37 0 -83 -7 -102 -15 -20 -8
-54 -15 -75 -15 -22 0 -56 -7 -75 -15 -20 -8 -54 -15 -75 -15 -22 0 -56 -7
-75 -15 -20 -8 -66 -15 -103 -15 -37 0 -87 -8 -115 -17 l-49 -18 -49 18 c-61
21 -113 22 -169 0 l-44 -17 -43 12 c-28 7 -54 8 -72 3 -24 -8 -367 -25 -458
-23 -83 2 -264 21 -290 30 -70 24 -126 35 -220 41 -140 9 -193 30 -276 108
-42 40 -82 68 -104 74 -25 7 -65 37 -120 90 -51 50 -96 84 -117 89 -19 6 -61
32 -93 60 -33 27 -94 67 -135 89 -41 22 -97 58 -124 80 -26 23 -56 41 -65 41
-22 0 -154 73 -260 142 -32 22 -68 38 -84 38 -39 0 -76 24 -113 73 l-32 42
-58 18 c-33 9 -81 17 -107 17 -26 0 -64 7 -84 15 -19 8 -48 15 -64 15 -15 0
-31 5 -34 10 -3 6 -28 10 -55 10 -27 0 -52 -4 -55 -10z m35 -196 c89 -4 147
-15 265 -52 l119 -37 53 -52 c29 -29 60 -53 70 -53 10 0 36 -12 57 -26 21 -14
87 -50 146 -80 82 -41 128 -72 184 -124 42 -39 83 -70 91 -70 31 0 102 -40
138 -77 40 -40 51 -81 20 -68 -45 18 -123 37 -178 44 -34 4 -70 13 -82 19 -12
7 -32 12 -45 12 -28 0 -123 32 -196 66 -29 13 -64 24 -78 24 -30 0 -86 24
-129 56 -54 39 -174 94 -206 94 -25 0 -41 10 -73 44 -23 24 -52 49 -66 56 -14
7 -59 35 -102 63 -77 51 -108 88 -108 125 0 31 28 54 54 45 11 -3 41 -8 66 -9z
m437 -2294 c39 -18 81 -30 106 -30 30 0 55 -9 87 -30 25 -16 58 -30 73 -30 31
0 87 -44 300 -234 l27 -25 0 -75 0 -75 -29 -20 c-46 -33 -82 -36 -153 -12 -77
26 -104 39 -143 68 -17 12 -69 34 -115 49 -95 30 -140 57 -140 83 0 22 -22 42
-74 68 -21 11 -74 51 -117 89 l-79 69 0 42 0 42 28 19 c38 27 50 30 110 31 40
1 71 -7 119 -29z"/>
</g>
</svg>
