<?xml version="1.0" standalone="no"?>
<!DOCTYPE svg PUBLIC "-//W3C//DTD SVG 20010904//EN"
 "http://www.w3.org/TR/2001/REC-SVG-20010904/DTD/svg10.dtd">
<svg version="1.0" xmlns="http://www.w3.org/2000/svg"
 width="603.000000pt" height="84.000000pt" viewBox="0 0 603.000000 84.000000"
 preserveAspectRatio="xMidYMid meet">
<metadata>
Created by potrace 1.16, written by Peter Selinger 2001-2019
</metadata>
<g transform="translate(0.000000,84.000000) scale(0.100000,-0.100000)"
fill="#000000" stroke="none">
<path d="M0 776 l0 -64 56 -46 c31 -25 64 -46 73 -46 10 0 30 -13 46 -30 16
-16 35 -30 43 -30 9 0 67 -25 130 -55 118 -57 217 -95 250 -95 10 0 56 -13
102 -30 47 -16 96 -30 108 -30 13 0 53 -13 89 -30 35 -16 74 -30 87 -30 12 0
60 -13 106 -30 47 -16 102 -30 123 -30 21 0 54 -7 74 -15 19 -8 53 -15 75 -15
21 0 55 -7 75 -15 19 -8 53 -15 75 -15 23 0 67 -13 105 -30 l64 -30 70 0 c39
0 85 -7 106 -15 25 -11 72 -15 165 -15 92 0 139 -4 165 -15 22 -9 67 -15 120
-15 52 0 97 -6 120 -15 24 -10 70 -15 139 -15 58 0 106 -4 109 -10 7 -11 877
-15 888 -3 21 21 119 43 189 43 l78 0 105 35 c81 27 129 52 210 106 l106 71
39 79 c30 60 40 90 40 128 l0 49 -35 31 -36 31 -58 0 c-32 0 -76 -7 -96 -16
l-38 -16 -41 16 c-23 9 -67 16 -98 16 -36 0 -60 5 -68 15 -16 20 -8 29 53 59
l54 26 83 0 84 0 68 -46 c49 -33 74 -44 89 -39 l21 7 -6 33 c-5 25 -3 34 10
39 33 12 204 6 241 -9 22 -9 67 -15 120 -15 52 0 97 -6 120 -15 19 -8 53 -15
75 -15 21 0 55 -7 75 -15 19 -8 52 -15 72 -15 20 0 56 -6 81 -14 87 -27 136
-38 205 -45 80 -8 149 -30 249 -79 39 -18 104 -45 145 -58 86 -28 96 -34 136
-87 32 -43 95 -80 128 -75 27 4 65 70 66 114 1 33 -26 64 -89 102 -19 11 -45
34 -58 51 -21 29 -107 81 -133 81 -7 0 -51 18 -98 41 -80 38 -138 58 -251 89
-25 7 -85 15 -135 19 -49 4 -100 12 -112 19 -12 7 -47 12 -78 12 -30 0 -72 7
-92 15 -19 8 -53 15 -75 15 -21 0 -55 7 -75 15 -19 8 -62 15 -94 15 -32 0 -61
4 -64 10 -8 14 -732 14 -740 0 -3 -6 -17 -10 -31 -10 -37 0 -142 -38 -183 -66
-19 -13 -43 -24 -52 -24 -33 0 -79 -78 -79 -135 l0 -37 65 -68 66 -67 65 -22
c43 -14 90 -21 143 -21 58 0 82 -4 91 -15 l13 -16 -29 -30 c-36 -37 -76 -58
-134 -69 -56 -11 -122 -28 -180 -46 -25 -8 -82 -14 -126 -14 -50 0 -95 -6
-117 -15 -45 -19 -448 -22 -494 -4 -15 6 -122 14 -238 18 -136 4 -218 11 -232
19 -12 6 -40 12 -63 12 -22 0 -57 7 -77 15 -24 10 -71 15 -150 15 -78 0 -125
5 -150 15 -23 10 -69 15 -132 15 l-97 0 -84 30 c-47 16 -101 30 -120 30 -20 0
-74 13 -120 30 -47 16 -102 30 -123 30 -21 0 -54 7 -74 15 -19 8 -58 15 -86
15 -36 0 -113 21 -274 75 -123 41 -233 75 -246 75 -12 0 -42 14 -67 30 -25 16
-58 30 -75 30 -16 0 -50 14 -75 30 -25 16 -56 30 -70 30 -39 0 -128 34 -195
75 -33 20 -72 39 -88 42 -15 3 -30 10 -33 14 -3 5 -23 9 -45 9 l-39 0 0 -64z"/>
</g>
</svg>
