<?xml version="1.0" standalone="no"?>
<!DOCTYPE svg PUBLIC "-//W3C//DTD SVG 20010904//EN"
 "http://www.w3.org/TR/2001/REC-SVG-20010904/DTD/svg10.dtd">
<svg version="1.0" xmlns="http://www.w3.org/2000/svg"
 width="711.000000pt" height="72.000000pt" viewBox="0 0 711.000000 72.000000"
 preserveAspectRatio="xMidYMid meet">
<metadata>
Created by potrace 1.16, written by Peter Selinger 2001-2019
</metadata>
<g transform="translate(0.000000,72.000000) scale(0.100000,-0.100000)"
fill="#000000" stroke="none">
<path d="M335 710 c-3 -6 -52 -10 -111 -10 l-105 0 -59 -30 -60 -30 0 -87 0
-86 35 -43 c33 -40 117 -104 181 -137 57 -30 245 -87 285 -87 60 0 112 32 158
97 l41 56 0 47 c0 25 5 51 12 58 17 17 346 17 385 0 19 -9 122 -15 318 -20
408 -9 446 -14 540 -72 33 -20 71 -39 85 -42 14 -2 43 -9 65 -15 22 -6 60 -14
85 -19 25 -5 63 -17 85 -28 82 -41 345 -122 393 -122 28 0 84 -13 132 -30 68
-24 102 -30 168 -30 50 0 97 -6 119 -15 22 -9 67 -15 120 -15 52 0 97 -6 120
-15 24 -10 70 -15 139 -15 58 0 106 -4 109 -10 9 -14 1301 -14 1310 0 3 6 39
10 79 10 52 0 87 6 117 20 24 11 56 20 72 20 15 0 64 17 110 39 45 21 93 41
107 44 14 4 69 51 123 105 l97 99 0 72 c0 40 5 81 10 92 l11 19 235 0 c186 0
242 -3 271 -15 19 -8 52 -15 72 -15 20 0 75 -13 121 -30 62 -22 103 -30 153
-30 80 0 129 -19 201 -79 32 -28 58 -41 78 -41 42 0 111 -34 144 -71 90 -101
107 -109 179 -89 l45 13 0 57 c0 37 -5 62 -14 69 -8 6 -19 25 -26 41 -14 33
-127 128 -192 161 -24 12 -56 32 -73 45 -41 31 -197 78 -310 94 -33 5 -91 20
-130 34 -55 20 -89 26 -157 26 -48 0 -90 5 -93 10 -4 6 -133 10 -355 10 -222
0 -351 -4 -355 -10 -3 -5 -39 -10 -80 -10 l-74 0 -64 -30 c-36 -16 -81 -30
-101 -30 -66 0 -163 -39 -201 -81 -43 -48 -45 -81 -6 -120 l29 -29 50 0 c27 0
66 7 85 15 42 17 217 21 247 5 43 -23 46 -90 3 -90 -8 0 -33 -16 -55 -35 -44
-40 -134 -85 -171 -85 -14 0 -41 -7 -60 -15 -29 -12 -85 -15 -270 -15 -186 0
-242 -3 -270 -15 -42 -17 -240 -21 -282 -5 -17 7 -39 6 -69 -2 l-44 -12 -44
17 -44 17 -262 0 -263 0 -36 15 c-19 8 -60 15 -90 15 -29 0 -70 7 -90 15 -19
8 -60 15 -90 15 -29 0 -70 7 -90 15 -19 8 -60 15 -90 15 -29 0 -70 7 -90 15
-19 8 -53 15 -75 15 -21 0 -55 7 -75 15 -19 8 -53 15 -75 15 -23 0 -67 13
-105 30 -35 16 -69 30 -75 30 -5 0 -39 14 -75 30 -35 17 -76 30 -90 30 -14 0
-41 8 -61 17 -40 18 -139 91 -161 117 l-13 16 -210 0 c-163 0 -217 3 -245 15
l-35 15 -280 0 -279 0 -36 15 c-25 11 -72 15 -165 15 -92 0 -139 4 -165 15
-19 8 -62 15 -94 15 -32 0 -61 5 -64 10 -3 6 -42 10 -85 10 -43 0 -82 -4 -85
-10z"/>
</g>
</svg>
