<?xml version="1.0" standalone="no"?>
<!DOCTYPE svg PUBLIC "-//W3C//DTD SVG 20010904//EN"
 "http://www.w3.org/TR/2001/REC-SVG-20010904/DTD/svg10.dtd">
<svg version="1.0" xmlns="http://www.w3.org/2000/svg"
 width="237.000000pt" height="219.000000pt" viewBox="0 0 237.000000 219.000000"
 preserveAspectRatio="xMidYMid meet">
<metadata>
Created by potrace 1.16, written by Peter Selinger 2001-2019
</metadata>
<g transform="translate(0.000000,219.000000) scale(0.100000,-0.100000)"
fill="#000000" stroke="none">
<path d="M605 2180 c-3 -5 -26 -10 -49 -10 -24 0 -60 -7 -79 -15 -20 -8 -56
-15 -80 -15 -33 0 -54 -8 -84 -29 -23 -16 -63 -41 -89 -54 -59 -30 -154 -126
-183 -184 -11 -23 -25 -44 -31 -48 -12 -8 -13 -118 -1 -143 4 -9 35 -73 67
-141 76 -161 119 -226 221 -334 46 -48 83 -93 83 -100 0 -16 519 -535 553
-553 31 -17 40 -62 10 -49 -10 4 -40 11 -68 16 -27 4 -74 19 -102 33 -29 14
-63 26 -75 26 -13 0 -77 19 -143 42 -66 22 -145 44 -175 48 -30 4 -72 11 -93
15 -29 6 -42 4 -57 -10 -33 -30 -25 -60 27 -98 65 -47 187 -107 218 -107 14 0
42 -7 62 -15 19 -8 47 -15 60 -15 14 0 54 -14 90 -30 35 -17 76 -30 90 -30 13
0 54 -13 90 -30 35 -16 75 -30 89 -30 14 0 41 -7 61 -15 19 -8 45 -15 57 -15
24 0 211 -62 273 -90 22 -11 92 -36 155 -56 68 -22 125 -48 143 -64 17 -14 57
-34 90 -45 33 -10 64 -22 70 -27 5 -4 55 -8 112 -8 l103 0 0 37 0 36 -58 59
-59 58 -33 0 c-35 0 -140 48 -230 106 -30 19 -66 37 -80 41 -14 3 -38 18 -55
33 -16 15 -41 33 -53 40 -13 6 -40 26 -60 44 -21 18 -49 36 -65 40 -15 3 -57
35 -95 69 -37 34 -87 76 -111 92 -25 17 -68 53 -96 80 -29 28 -64 58 -79 68
-14 10 -37 40 -50 66 -28 54 -40 66 -78 75 -15 3 -35 18 -45 32 -10 14 -51 62
-90 106 -40 45 -73 85 -73 89 0 5 -34 45 -74 90 -49 53 -81 97 -91 127 -10 26
-21 57 -26 69 -4 12 -26 34 -48 47 -43 28 -61 53 -61 86 0 12 -14 62 -31 111
l-31 89 25 52 c13 29 33 62 43 74 20 22 225 94 269 94 29 0 101 16 166 36 l47
15 37 -15 c25 -11 69 -16 134 -16 l97 0 84 -30 c53 -18 105 -30 138 -30 29 0
69 -7 89 -15 19 -8 59 -15 87 -15 64 0 138 -25 284 -95 62 -30 119 -55 126
-55 7 0 31 -13 52 -30 21 -16 62 -46 91 -66 65 -44 147 -133 175 -188 31 -62
47 -76 87 -76 45 0 91 41 91 81 0 55 -53 120 -280 343 -41 40 -153 106 -181
106 -7 0 -51 18 -98 41 -125 59 -335 124 -446 138 -34 5 -70 13 -82 19 -12 7
-42 12 -67 12 -25 0 -48 5 -51 10 -4 6 -108 10 -280 10 -172 0 -276 -4 -280
-10z"/>
</g>
</svg>
