<?xml version="1.0" standalone="no"?>
<!DOCTYPE svg PUBLIC "-//W3C//DTD SVG 20010904//EN"
 "http://www.w3.org/TR/2001/REC-SVG-20010904/DTD/svg10.dtd">
<svg version="1.0" xmlns="http://www.w3.org/2000/svg"
 width="651.000000pt" height="147.000000pt" viewBox="0 0 651.000000 147.000000"
 preserveAspectRatio="xMidYMid meet">
<metadata>
Created by potrace 1.16, written by Peter Selinger 2001-2019
</metadata>
<g transform="translate(0.000000,147.000000) scale(0.100000,-0.100000)"
fill="#000000" stroke="none">
<path d="M23 1444 l-23 -25 0 -104 c0 -58 4 -107 10 -110 6 -3 10 -15 10 -27
0 -24 149 -177 195 -201 161 -82 353 -73 430 19 l31 37 27 -7 c15 -3 45 -22
66 -41 21 -19 45 -35 53 -35 7 0 70 -37 138 -83 69 -45 145 -95 170 -110 25
-15 68 -47 95 -70 28 -23 64 -52 80 -64 l30 -22 -14 -23 c-8 -13 -25 -42 -38
-65 l-24 -42 15 -51 c32 -106 128 -215 241 -272 44 -22 94 -51 111 -64 17 -14
54 -31 81 -39 28 -8 56 -22 63 -30 10 -12 40 -15 149 -15 l137 0 27 28 27 28
0 82 0 81 -28 33 c-34 40 -62 80 -62 90 0 3 7 14 16 22 11 11 35 16 83 16 40
0 84 7 106 16 l38 16 41 -15 c65 -24 210 -35 301 -22 37 5 61 3 89 -9 30 -12
74 -16 198 -16 118 0 168 -4 195 -15 l35 -15 297 0 296 0 54 -25 54 -26 33 11
c25 9 40 8 69 -5 26 -10 71 -15 152 -15 78 0 125 -5 150 -15 19 -8 60 -15 90
-15 29 0 70 -7 90 -15 19 -8 64 -15 100 -15 l65 0 29 30 30 30 -3 42 -3 43
-53 35 c-50 33 -81 69 -82 96 0 13 102 54 135 54 12 0 39 7 58 15 51 21 333
21 384 0 19 -8 60 -15 90 -15 29 0 70 -7 90 -15 23 -10 69 -15 135 -15 65 0
111 -5 135 -15 21 -9 67 -15 117 -15 80 0 178 -25 254 -64 16 -8 90 -35 164
-59 155 -52 214 -80 282 -136 54 -46 95 -53 146 -26 31 16 39 48 21 83 -5 9
-14 29 -20 44 -5 15 -28 39 -50 52 -22 14 -54 38 -73 54 -18 16 -47 36 -63 45
-45 23 -151 57 -177 57 -13 0 -43 14 -68 30 -32 22 -57 30 -88 30 -23 0 -59 7
-79 15 -19 8 -53 15 -75 15 -21 0 -55 7 -75 15 -19 8 -53 15 -75 15 -21 0 -55
7 -75 15 -25 11 -72 15 -165 15 -92 0 -139 4 -165 15 -22 9 -67 15 -120 15
-52 0 -97 6 -120 15 -49 21 -257 21 -306 0 -20 -8 -54 -15 -75 -15 -22 0 -56
-7 -75 -15 -20 -8 -55 -15 -77 -15 -70 0 -132 -40 -184 -118 -25 -37 -46 -75
-46 -83 0 -8 -5 -20 -12 -27 -17 -17 -141 -15 -185 3 -25 11 -72 15 -165 15
-92 0 -139 4 -165 15 -27 12 -79 15 -224 15 -128 0 -197 4 -216 12 -19 9 -120
15 -303 20 -151 4 -302 10 -335 13 -33 3 -179 9 -325 13 -146 4 -272 11 -280
17 -8 5 -46 13 -85 17 -199 19 -234 26 -292 61 -32 19 -72 43 -90 53 -121 73
-162 99 -188 124 -48 45 -195 142 -231 152 -19 5 -46 25 -64 48 -18 22 -39 40
-48 40 -10 0 -30 9 -47 21 -16 11 -52 32 -80 46 -27 14 -70 42 -95 63 -48 39
-120 80 -143 80 -7 0 -26 14 -42 30 -20 21 -38 30 -59 30 -18 0 -51 13 -76 30
-25 16 -51 30 -59 30 -13 0 -126 46 -173 71 -10 5 -64 9 -120 8 l-103 -1 -22
-24z m356 -247 c45 -14 67 -38 57 -63 -9 -24 -46 -16 -92 22 -66 54 -55 67 35
41z m1261 -826 c21 -15 54 -34 72 -41 37 -15 98 -68 98 -86 0 -23 -34 -25 -60
-4 -25 20 -63 49 -147 110 -24 17 -43 35 -43 40 0 19 41 10 80 -19z"/>
</g>
</svg>
