<?xml version="1.0" standalone="no"?>
<!DOCTYPE svg PUBLIC "-//W3C//DTD SVG 20010904//EN"
 "http://www.w3.org/TR/2001/REC-SVG-20010904/DTD/svg10.dtd">
<svg version="1.0" xmlns="http://www.w3.org/2000/svg"
 width="708.000000pt" height="258.000000pt" viewBox="0 0 708.000000 258.000000"
 preserveAspectRatio="xMidYMid meet">
<metadata>
Created by potrace 1.16, written by Peter Selinger 2001-2019
</metadata>
<g transform="translate(0.000000,258.000000) scale(0.100000,-0.100000)"
fill="#000000" stroke="none">
<path d="M5057 2558 c-18 -13 -52 -23 -90 -27 -69 -8 -129 -35 -169 -78 -29
-30 -68 -135 -68 -181 0 -55 69 -92 172 -92 l73 0 38 -25 c47 -32 232 -125
249 -125 16 0 140 -81 184 -119 17 -16 48 -31 68 -35 27 -5 56 -27 119 -89 45
-45 94 -90 108 -99 37 -24 99 -211 99 -299 l0 -65 -34 -69 c-19 -39 -50 -89
-68 -112 -34 -45 -122 -113 -144 -113 -8 0 -37 -11 -66 -25 -69 -32 -257 -95
-284 -95 -12 0 -38 -7 -57 -15 -26 -11 -73 -15 -165 -15 -93 0 -140 -4 -165
-15 -21 -8 -67 -15 -105 -15 -40 0 -85 -7 -107 -15 -29 -13 -44 -14 -69 -5
-23 7 -41 7 -60 0 -15 -5 -78 -10 -140 -10 -78 0 -125 -5 -149 -15 -54 -22
-361 -21 -418 2 l-41 16 -48 -17 -48 -17 -37 15 c-27 12 -72 16 -167 16 -92 0
-139 4 -165 15 -23 10 -69 15 -135 15 -65 0 -111 5 -135 15 -23 10 -69 15
-132 15 -55 0 -115 6 -141 14 -58 18 -123 35 -180 46 -25 5 -64 18 -87 29 -23
11 -77 32 -120 46 -43 14 -111 41 -151 61 l-72 35 -43 -12 c-23 -7 -50 -19
-60 -28 l-18 -15 3 -70 3 -70 33 -22 c17 -12 74 -35 124 -51 l93 -28 52 -53
c29 -28 61 -52 72 -52 19 0 51 -36 64 -73 11 -28 -10 -57 -41 -57 -35 0 -160
-45 -192 -68 -47 -36 -33 -132 20 -132 48 0 111 -100 90 -140 -8 -15 -21 -20
-54 -20 -24 0 -60 -7 -79 -15 -20 -8 -61 -15 -90 -15 -30 0 -71 -7 -92 -16
l-37 -15 -216 5 c-120 2 -237 7 -262 9 -173 20 -218 26 -245 35 -55 19 -119
34 -180 41 -34 5 -70 13 -82 19 -12 7 -49 12 -82 12 l-60 0 -40 57 -41 56 0
44 c0 84 -113 263 -166 263 -8 0 -40 11 -70 25 -30 14 -81 34 -114 45 l-59 20
-133 0 -133 0 -45 -30 c-25 -16 -51 -30 -57 -30 -9 0 -13 -17 -13 -51 l0 -51
30 -37 c17 -20 41 -47 54 -61 14 -14 26 -34 28 -44 2 -11 29 -38 60 -60 31
-23 84 -62 118 -89 34 -26 70 -47 79 -47 9 0 36 -14 61 -30 25 -16 51 -30 58
-30 7 0 38 -12 69 -26 73 -33 210 -74 308 -93 22 -4 56 -12 75 -18 77 -24 128
-35 200 -43 70 -8 140 -27 156 -43 11 -11 819 -8 830 2 5 5 32 11 59 14 76 7
241 54 305 87 48 24 130 142 130 185 0 16 -7 48 -16 72 l-16 42 23 38 c13 21
39 55 58 77 22 23 44 64 57 104 26 81 39 91 96 73 26 -9 115 -16 223 -20 115
-4 188 -10 202 -18 15 -9 81 -13 228 -13 160 0 214 -3 242 -15 46 -20 170 -20
216 0 42 17 94 19 133 5 18 -7 37 -7 58 -1 17 6 130 11 251 13 152 1 230 6
252 15 21 9 81 13 176 13 106 0 154 4 180 15 20 8 60 15 89 15 33 0 85 12 138
30 46 17 93 30 105 30 11 0 58 14 105 30 46 17 92 30 102 30 32 0 139 40 177
66 19 13 43 24 51 24 9 0 29 13 44 29 15 16 40 31 54 35 48 10 91 44 117 93
14 26 42 73 61 103 19 30 37 66 41 80 3 14 18 46 34 71 l29 46 0 77 c0 80 -15
125 -65 191 -12 17 -38 62 -58 101 l-36 71 -69 52 c-38 28 -76 58 -83 67 -7 9
-33 26 -58 39 -25 13 -68 42 -95 64 -26 23 -56 41 -65 41 -9 0 -33 11 -54 25
-46 32 -232 125 -249 125 -23 0 -219 102 -225 117 -9 23 24 43 73 43 23 0 58
7 78 15 l37 16 222 -4 c217 -4 381 -18 462 -38 22 -6 81 -12 130 -13 54 -2
106 -10 129 -20 21 -9 63 -16 93 -16 29 0 70 -7 90 -15 19 -8 47 -15 60 -15
14 0 54 -13 90 -30 35 -16 69 -30 75 -30 32 0 220 -103 268 -147 84 -77 135
-97 181 -73 l19 11 0 68 0 69 -52 41 c-29 23 -79 61 -110 86 -39 30 -84 54
-135 70 -43 14 -97 34 -120 45 -40 19 -213 76 -303 100 -25 6 -79 15 -120 19
-41 5 -87 14 -102 21 l-28 13 -41 -13 c-32 -11 -47 -11 -73 -2 -18 7 -71 12
-119 12 -47 0 -89 5 -92 10 -4 6 -132 10 -353 10 l-347 -1 -28 -21z m-4725
-1958 c24 -10 53 -28 63 -40 10 -11 42 -31 72 -44 38 -18 53 -30 53 -45 0 -11
-4 -23 -10 -26 -14 -9 -65 21 -84 49 -9 15 -25 26 -35 26 -25 0 -106 36 -121
55 -10 12 -10 18 0 30 15 18 9 19 62 -5z"/>
</g>
</svg>
