<?xml version="1.0" standalone="no"?>
<!DOCTYPE svg PUBLIC "-//W3C//DTD SVG 20010904//EN"
 "http://www.w3.org/TR/2001/REC-SVG-20010904/DTD/svg10.dtd">
<svg version="1.0" xmlns="http://www.w3.org/2000/svg"
 width="336.000000pt" height="234.000000pt" viewBox="0 0 336.000000 234.000000"
 preserveAspectRatio="xMidYMid meet">
<metadata>
Created by potrace 1.16, written by Peter Selinger 2001-2019
</metadata>
<g transform="translate(0.000000,234.000000) scale(0.100000,-0.100000)"
fill="#000000" stroke="none">
<path d="M1145 2330 c-3 -5 -33 -10 -66 -10 l-59 0 -123 -60 c-68 -33 -129
-60 -136 -60 -23 0 -110 -50 -125 -72 -10 -13 -16 -43 -16 -74 0 -73 15 -84
121 -84 88 0 149 -16 257 -66 29 -13 57 -24 63 -24 23 0 98 -42 149 -84 30
-25 79 -61 108 -81 33 -22 52 -42 52 -54 0 -12 22 -37 58 -64 32 -25 65 -60
74 -78 8 -19 33 -72 54 -118 22 -47 54 -110 72 -140 47 -79 74 -159 61 -182
-12 -24 -74 -26 -126 -4 -19 8 -53 15 -75 15 -21 0 -55 7 -75 15 -27 11 -78
15 -215 15 l-179 0 -42 -21 c-57 -29 -137 -108 -137 -135 0 -13 5 -35 10 -49
7 -18 7 -33 0 -46 l-11 -19 -100 0 c-66 0 -112 5 -136 15 -23 10 -69 15 -135
15 -65 0 -111 5 -135 15 -19 8 -60 15 -90 15 -40 0 -66 7 -97 25 l-44 25 -26
-10 c-15 -5 -38 -10 -52 -10 l-24 0 0 -55 c0 -37 4 -55 13 -55 6 0 54 -20 105
-45 l94 -45 54 0 c30 0 71 -7 91 -15 22 -9 67 -15 120 -15 52 0 97 -6 120 -15
22 -9 67 -15 120 -15 52 0 97 -6 120 -15 25 -11 72 -15 162 -15 l127 0 84 -30
c110 -38 143 -39 181 -1 l29 29 0 55 c0 39 -5 58 -17 68 -10 9 -71 32 -136 54
-84 27 -123 45 -133 60 -32 49 18 78 89 51 30 -11 76 -16 155 -16 78 0 124 -5
149 -15 19 -8 54 -15 77 -15 29 0 54 -9 86 -30 25 -17 58 -30 75 -30 17 0 44
-8 62 -18 36 -20 187 -181 208 -223 9 -16 33 -40 55 -54 22 -14 51 -42 64 -64
14 -21 39 -49 56 -62 37 -28 79 -70 134 -134 38 -44 203 -163 285 -205 22 -11
52 -20 66 -20 14 0 42 -7 62 -15 19 -8 48 -15 64 -15 15 0 31 -4 34 -10 8 -12
268 -13 293 -1 9 5 41 19 71 32 35 15 69 41 97 74 l44 50 0 47 c0 26 -4 50
-10 53 -5 3 -10 22 -10 40 0 27 -10 46 -48 87 -26 29 -58 68 -70 86 -23 31
-87 72 -115 72 -7 0 -24 12 -38 26 -31 34 -210 124 -246 124 -16 0 -48 14 -73
30 -25 16 -51 30 -58 30 -7 0 -38 11 -68 25 -84 38 -170 65 -210 65 -19 0 -65
13 -101 30 -35 16 -74 30 -87 30 -12 0 -49 9 -81 21 -126 43 -151 62 -166 128
-5 22 -31 69 -59 106 -27 36 -50 73 -50 81 0 22 -33 82 -95 176 -30 45 -55 89
-55 96 0 31 -68 139 -125 199 -33 34 -78 83 -99 108 -58 68 -232 181 -324 211
-144 46 -179 71 -140 98 16 12 46 16 109 16 54 0 100 6 122 15 28 12 80 15
222 15 142 0 194 -3 222 -15 19 -8 53 -15 75 -15 21 0 55 -7 75 -15 19 -8 45
-15 57 -15 27 0 123 -32 194 -66 29 -13 57 -24 63 -24 24 0 147 -64 194 -101
195 -153 205 -158 238 -121 23 25 23 138 1 170 -8 12 -41 36 -72 53 -61 32
-134 76 -223 133 -30 20 -68 36 -83 36 -15 0 -57 14 -93 30 -35 17 -75 30 -89
30 -14 0 -41 7 -61 15 -19 8 -60 15 -90 15 -29 0 -70 7 -90 15 -19 8 -48 15
-64 15 -15 0 -31 5 -34 10 -4 6 -108 10 -280 10 -172 0 -276 -4 -280 -10z
m1219 -1655 c42 -14 85 -25 94 -25 31 0 134 -39 250 -95 62 -30 117 -55 123
-55 42 0 285 -161 310 -205 31 -56 32 -73 5 -98 -14 -13 -53 -31 -86 -40 l-61
-17 -53 15 c-30 9 -77 27 -105 40 -28 14 -56 25 -61 25 -24 0 -98 42 -150 84
-30 25 -73 58 -95 72 -48 31 -218 203 -252 255 -22 33 -23 69 -3 69 4 0 42
-11 84 -25z"/>
</g>
</svg>
