<?xml version="1.0" standalone="no"?>
<!DOCTYPE svg PUBLIC "-//W3C//DTD SVG 20010904//EN"
 "http://www.w3.org/TR/2001/REC-SVG-20010904/DTD/svg10.dtd">
<svg version="1.0" xmlns="http://www.w3.org/2000/svg"
 width="684.000000pt" height="237.000000pt" viewBox="0 0 684.000000 237.000000"
 preserveAspectRatio="xMidYMid meet">
<metadata>
Created by potrace 1.16, written by Peter Selinger 2001-2019
</metadata>
<g transform="translate(0.000000,237.000000) scale(0.100000,-0.100000)"
fill="#000000" stroke="none">
<path d="M5255 2360 c-4 -6 -56 -10 -124 -10 -83 0 -129 -5 -154 -15 -20 -8
-54 -15 -75 -15 -22 0 -56 -7 -75 -15 -20 -8 -52 -15 -72 -15 -37 0 -137 -30
-189 -57 -56 -29 -145 -94 -171 -124 -32 -39 -36 -126 -7 -152 l19 -17 162 0
163 0 65 -30 c35 -16 70 -30 76 -30 7 0 29 -11 49 -25 21 -14 73 -37 117 -51
47 -15 95 -39 117 -58 22 -18 72 -54 113 -81 93 -61 150 -110 230 -199 59 -66
131 -189 131 -226 0 -8 12 -33 27 -55 26 -38 42 -116 45 -225 3 -88 -83 -299
-138 -337 -14 -10 -53 -42 -86 -71 -34 -29 -73 -55 -87 -59 -14 -3 -60 -22
-101 -42 -98 -48 -288 -111 -332 -111 -20 0 -52 -7 -71 -15 -27 -11 -75 -15
-180 -15 -106 0 -154 -4 -180 -15 l-36 -15 -261 0 -261 0 -36 15 c-25 11 -72
15 -165 15 -92 0 -139 4 -165 15 -25 11 -72 15 -165 15 -92 0 -139 4 -165 15
-19 8 -52 15 -72 15 -20 0 -75 13 -121 30 -47 16 -94 30 -105 30 -12 0 -59 13
-105 30 -49 17 -106 30 -134 30 -27 0 -65 4 -85 10 -20 5 -52 12 -72 15 -49 7
-93 54 -141 150 -27 53 -60 100 -99 138 -67 66 -215 170 -319 222 l-70 35 -75
0 -76 0 -49 -25 c-70 -36 -80 -54 -80 -153 l0 -84 78 -80 c42 -44 99 -91 126
-105 26 -13 66 -38 89 -54 22 -16 47 -29 56 -29 9 0 36 -14 61 -30 25 -16 51
-30 58 -30 19 0 83 -30 105 -48 9 -8 17 -21 17 -29 0 -26 -92 -154 -129 -178
l-36 -25 -98 0 c-111 0 -143 10 -217 69 -24 20 -74 55 -110 78 -60 39 -88 58
-173 121 -18 13 -44 26 -59 29 -14 3 -40 22 -56 42 -18 23 -58 50 -108 75 -43
21 -100 56 -126 77 -25 21 -82 57 -125 80 -80 41 -145 80 -244 143 -30 20 -62
36 -70 36 -8 0 -52 25 -97 55 -91 61 -154 95 -174 95 -7 0 -33 14 -58 30 l-45
30 -57 0 c-32 0 -87 -10 -123 -22 l-66 -21 -45 -51 -44 -51 0 -47 c0 -26 5
-50 10 -53 6 -4 21 -27 34 -53 37 -73 109 -129 267 -209 74 -37 109 -49 164
-54 39 -4 93 -11 120 -14 l50 -7 35 24 c37 25 103 58 116 58 4 0 28 -13 53
-29 25 -16 57 -31 71 -34 14 -4 47 -24 74 -47 26 -22 56 -40 65 -40 10 0 30
-13 45 -29 15 -16 41 -31 56 -35 16 -3 59 -33 97 -69 37 -36 91 -76 118 -91
78 -42 181 -109 212 -137 15 -14 44 -35 63 -47 19 -11 51 -37 69 -56 l35 -36
152 0 c91 0 155 4 159 10 3 6 14 10 23 10 9 0 37 14 62 30 25 16 52 30 62 30
9 0 36 16 60 36 23 20 59 47 78 59 20 12 48 43 64 67 41 65 69 78 165 78 50 0
96 -6 118 -15 19 -8 53 -15 75 -15 21 0 55 -7 75 -15 19 -8 60 -15 90 -15 40
0 66 -7 98 -26 25 -14 50 -22 56 -18 12 7 96 -8 170 -31 28 -9 87 -15 143 -15
63 0 109 -5 133 -15 27 -12 79 -15 225 -15 145 0 197 -3 225 -15 51 -22 435
-22 486 0 27 11 75 15 180 15 106 0 154 4 180 15 20 8 61 15 90 15 30 0 71 7
90 15 20 8 48 15 61 15 14 0 49 11 78 25 29 13 88 36 131 50 111 36 255 110
302 155 22 21 58 50 80 65 69 46 130 125 194 254 l62 123 -4 141 c-2 78 -9
160 -15 182 -6 22 -14 51 -16 65 -3 14 -21 50 -40 80 -19 30 -47 77 -61 103
-14 27 -46 74 -71 105 -24 32 -53 70 -65 85 -12 16 -40 40 -62 54 -22 14 -61
45 -86 68 -25 23 -66 53 -91 65 -25 13 -58 33 -75 46 -36 27 -229 124 -247
124 -7 0 -33 14 -58 30 -25 16 -58 30 -74 30 -32 0 -91 33 -100 55 -9 25 34
45 95 45 31 0 73 7 92 15 l36 15 306 0 306 0 36 -15 c19 -8 53 -15 75 -15 21
0 55 -7 75 -15 19 -8 53 -15 75 -15 21 0 55 -7 75 -15 19 -8 53 -15 75 -15 23
0 67 -13 105 -30 35 -16 69 -30 74 -30 6 0 40 -18 77 -40 36 -22 83 -45 104
-50 46 -13 134 -93 183 -165 23 -35 51 -63 77 -76 l40 -20 39 25 39 26 0 60
c0 32 -4 61 -9 64 -4 3 -11 18 -14 34 -4 17 -23 42 -47 63 -23 19 -63 55 -89
81 -33 33 -86 66 -187 117 -183 91 -300 128 -449 141 -49 4 -103 12 -120 18
-82 29 -132 36 -275 39 -85 2 -159 8 -164 14 -13 12 -223 12 -231 -1z m-4819
-1492 c37 -10 52 -21 71 -51 14 -22 22 -41 19 -44 -9 -9 -117 25 -137 43 -20
18 -26 64 -9 64 5 0 31 -6 56 -12z"/>
</g>
</svg>
