<?xml version="1.0" standalone="no"?>
<!DOCTYPE svg PUBLIC "-//W3C//DTD SVG 20010904//EN"
 "http://www.w3.org/TR/2001/REC-SVG-20010904/DTD/svg10.dtd">
<svg version="1.0" xmlns="http://www.w3.org/2000/svg"
 width="390.000000pt" height="219.000000pt" viewBox="0 0 390.000000 219.000000"
 preserveAspectRatio="xMidYMid meet">
<metadata>
Created by potrace 1.16, written by Peter Selinger 2001-2019
</metadata>
<g transform="translate(0.000000,219.000000) scale(0.100000,-0.100000)"
fill="#000000" stroke="none">
<path d="M2345 2180 c-3 -5 -44 -10 -91 -10 -88 0 -150 -15 -258 -65 -30 -14
-60 -25 -67 -25 -7 0 -33 -13 -58 -29 -25 -16 -58 -31 -73 -35 -15 -3 -35 -18
-45 -32 -10 -14 -37 -49 -60 -79 -78 -100 -89 -139 -50 -195 l22 -32 120 -39
c66 -22 157 -57 203 -79 46 -22 88 -40 95 -40 36 0 330 -183 425 -264 30 -25
58 -46 63 -46 5 0 35 -27 67 -60 31 -33 81 -74 111 -92 40 -25 57 -42 65 -67
7 -23 27 -45 56 -66 30 -21 57 -53 81 -96 20 -35 57 -95 82 -134 26 -39 47
-82 47 -96 0 -15 7 -43 15 -62 22 -52 20 -180 -4 -247 -20 -57 -33 -70 -163
-156 -37 -25 -70 -50 -74 -55 -3 -6 -3 -26 0 -45 l7 -34 64 0 c35 0 67 5 70
10 3 6 23 10 43 10 l37 0 83 87 c78 82 122 145 122 174 0 7 14 34 31 61 l32
49 -8 47 c-4 26 -8 70 -10 97 -2 49 -10 73 -55 185 -53 129 -77 177 -113 218
-20 24 -44 58 -53 75 -9 18 -78 93 -154 168 -100 99 -169 156 -247 207 -100
66 -135 91 -216 150 -17 12 -42 25 -56 29 -14 3 -39 18 -56 33 -39 36 -207
120 -240 120 -15 0 -56 18 -92 40 -36 21 -81 44 -99 50 -38 13 -40 19 -20 59
28 53 123 91 256 102 83 6 127 15 220 45 65 20 367 20 417 -1 22 -9 67 -15
120 -15 52 0 97 -6 120 -15 22 -9 67 -15 117 -15 86 0 175 -24 227 -60 14 -11
62 -37 106 -59 88 -44 173 -115 218 -183 71 -106 112 -129 153 -85 l22 23 0
72 c0 40 -4 80 -9 90 -5 9 -14 29 -19 44 -6 14 -33 41 -59 58 -26 18 -63 52
-81 76 -18 24 -40 44 -50 44 -9 0 -59 20 -110 45 -52 25 -99 45 -105 45 -7 0
-32 14 -57 30 l-45 30 -58 0 c-32 0 -74 7 -94 15 -25 11 -73 15 -169 15 -78 0
-135 4 -139 10 -4 6 -108 10 -280 10 -172 0 -276 -4 -280 -10z"/>
<path d="M36 1968 c-9 -12 -16 -35 -16 -50 0 -15 -5 -30 -10 -33 -13 -8 -13
-132 0 -140 6 -3 10 -18 10 -33 0 -15 14 -65 30 -112 17 -46 30 -95 30 -107 0
-13 11 -45 24 -71 13 -26 29 -65 35 -87 6 -23 29 -71 51 -107 22 -37 40 -73
40 -81 0 -8 13 -32 29 -54 16 -22 38 -58 50 -80 11 -22 36 -52 55 -67 22 -16
39 -40 46 -64 14 -51 183 -219 234 -233 20 -5 44 -21 53 -35 45 -65 87 -104
122 -114 60 -16 143 -59 193 -101 29 -25 73 -47 122 -63 42 -14 93 -37 113
-51 21 -14 44 -25 51 -25 7 0 38 -11 68 -25 31 -14 110 -43 177 -65 67 -23
142 -50 167 -62 25 -11 56 -24 70 -27 14 -4 36 -24 49 -44 28 -43 65 -50 76
-16 5 16 12 19 28 13 12 -4 87 -9 165 -11 115 -4 152 -1 183 11 22 9 58 16 82
16 58 1 96 24 183 110 l74 74 0 51 c0 68 -18 85 -90 85 l-53 0 -43 -47 c-25
-27 -55 -60 -69 -75 l-24 -28 -167 0 -167 0 -39 42 -39 42 -44 -12 c-63 -17
-68 -16 -142 18 -35 17 -75 30 -89 30 -14 0 -41 7 -61 15 -19 8 -47 15 -62 15
-14 0 -46 14 -71 30 -25 16 -52 30 -60 30 -8 0 -35 14 -60 30 -25 16 -51 30
-59 30 -28 0 -208 93 -254 132 -26 22 -63 44 -82 49 -21 6 -66 39 -110 79 -41
39 -81 70 -89 70 -20 0 -166 147 -166 167 0 9 -31 47 -69 84 -47 47 -71 79
-76 101 -4 18 -23 58 -42 88 -77 123 -106 177 -114 215 -12 62 -28 122 -60
220 -16 50 -29 99 -29 108 0 38 -42 143 -66 165 -32 28 -68 28 -88 0z"/>
</g>
</svg>
