<?xml version="1.0" standalone="no"?>
<!DOCTYPE svg PUBLIC "-//W3C//DTD SVG 20010904//EN"
 "http://www.w3.org/TR/2001/REC-SVG-20010904/DTD/svg10.dtd">
<svg version="1.0" xmlns="http://www.w3.org/2000/svg"
 width="213.000000pt" height="255.000000pt" viewBox="0 0 213.000000 255.000000"
 preserveAspectRatio="xMidYMid meet">
<metadata>
Created by potrace 1.16, written by Peter Selinger 2001-2019
</metadata>
<g transform="translate(0.000000,255.000000) scale(0.100000,-0.100000)"
fill="#000000" stroke="none">
<path d="M605 2540 c-3 -5 -46 -10 -94 -10 -56 0 -102 -6 -124 -15 -20 -8 -49
-15 -64 -15 -39 0 -221 -125 -247 -170 l-20 -33 20 -36 c25 -46 86 -81 144
-81 62 0 345 -139 421 -207 30 -27 71 -60 91 -73 20 -14 46 -40 58 -60 74
-123 100 -171 100 -186 0 -9 22 -38 49 -64 60 -58 100 -134 153 -293 l40 -121
-6 -45 c-4 -25 -8 -68 -10 -96 -4 -62 -25 -125 -48 -139 l-17 -10 -39 45 c-22
25 -60 57 -84 72 -24 16 -54 44 -67 63 -27 38 -90 88 -166 128 -27 15 -73 42
-102 60 -85 54 -168 76 -284 76 l-100 0 -48 -24 c-26 -14 -61 -41 -77 -60 -16
-20 -41 -51 -57 -70 l-27 -34 0 -85 c0 -47 4 -89 10 -92 5 -3 10 -21 10 -38 0
-18 13 -54 29 -82 41 -74 58 -107 70 -137 6 -15 28 -39 51 -53 22 -14 65 -48
95 -75 30 -28 62 -50 71 -50 9 0 45 -14 81 -30 35 -17 75 -30 89 -30 14 0 41
-7 61 -15 50 -21 316 -21 366 0 20 8 49 15 64 15 15 0 38 11 54 26 l28 27 32
-13 c19 -8 44 -33 65 -66 19 -29 38 -56 44 -59 20 -12 88 -112 120 -176 18
-35 51 -84 72 -109 22 -24 47 -57 56 -72 22 -38 63 -37 113 3 46 37 50 63 14
115 -14 20 -25 51 -25 69 0 22 -9 40 -30 60 -16 16 -30 35 -30 42 0 23 -31 76
-69 118 -60 66 -171 252 -171 287 0 13 14 52 30 86 17 37 30 80 30 103 0 21 7
56 16 78 18 46 15 228 -6 301 -36 129 -54 178 -74 205 -13 17 -40 64 -61 105
-21 41 -59 99 -86 128 -27 30 -53 70 -59 91 -15 58 -51 104 -87 113 -18 5 -40
21 -50 36 -51 78 -232 232 -273 232 -47 0 -236 118 -228 142 2 6 24 19 48 29
60 24 312 27 367 4 20 -8 66 -15 105 -15 38 0 84 -7 105 -15 23 -10 69 -15
131 -15 l95 0 241 -80 c132 -45 252 -86 266 -93 44 -21 165 -105 213 -147 50
-44 64 -47 107 -25 l30 16 0 39 c0 22 -4 48 -8 58 -5 9 -15 31 -23 47 -9 19
-35 41 -70 60 -30 17 -68 40 -85 51 -61 45 -158 85 -392 163 l-243 81 -65 0
c-35 0 -81 7 -101 15 -25 10 -71 15 -154 15 -68 0 -120 4 -124 10 -4 6 -58 10
-130 10 -72 0 -126 -4 -130 -10z m-183 -1417 l109 -36 60 -54 c33 -29 66 -53
74 -53 15 0 195 -176 195 -192 0 -6 14 -26 30 -45 17 -18 30 -38 30 -43 0 -4
-15 -28 -33 -52 l-33 -43 -79 4 c-44 1 -95 9 -114 17 -18 8 -52 14 -75 14 -22
1 -57 8 -76 18 -70 34 -179 113 -206 150 -15 20 -38 49 -52 64 -34 37 -62 121
-62 184 l0 53 28 19 c58 41 70 40 204 -5z"/>
</g>
</svg>
