<?xml version="1.0" standalone="no"?>
<!DOCTYPE svg PUBLIC "-//W3C//DTD SVG 20010904//EN"
 "http://www.w3.org/TR/2001/REC-SVG-20010904/DTD/svg10.dtd">
<svg version="1.0" xmlns="http://www.w3.org/2000/svg"
 width="483.000000pt" height="210.000000pt" viewBox="0 0 483.000000 210.000000"
 preserveAspectRatio="xMidYMid meet">
<metadata>
Created by potrace 1.16, written by Peter Selinger 2001-2019
</metadata>
<g transform="translate(0.000000,210.000000) scale(0.100000,-0.100000)"
fill="#000000" stroke="none">
<path d="M3365 2090 c-3 -5 -32 -10 -63 -10 -37 0 -86 -11 -142 -30 -46 -17
-96 -30 -111 -30 -14 0 -44 -13 -65 -28 -46 -33 -106 -62 -128 -62 -21 0 -96
-104 -96 -133 0 -27 69 -97 96 -97 9 0 45 -13 81 -30 35 -16 76 -30 90 -30 29
0 86 -25 128 -56 17 -12 77 -46 135 -74 58 -29 125 -69 150 -89 25 -20 63 -47
85 -60 22 -13 64 -50 94 -83 30 -33 72 -71 93 -84 40 -26 133 -103 181 -151
54 -53 177 -196 177 -204 0 -5 25 -37 56 -71 31 -35 67 -85 81 -113 14 -27 37
-66 51 -85 15 -19 30 -57 34 -85 15 -85 19 -179 10 -193 l-9 -13 -39 20 c-21
11 -60 38 -86 58 -26 21 -72 56 -102 77 -31 22 -63 50 -71 62 -8 13 -54 49
-101 80 -48 32 -101 70 -118 85 -17 15 -59 41 -94 59 -34 17 -83 49 -107 70
-53 46 -177 131 -234 160 -59 29 -106 27 -142 -9 -34 -35 -37 -70 -12 -141
l17 -48 -12 -39 c-17 -56 -46 -90 -97 -113 l-44 -20 -216 0 c-169 0 -223 3
-252 15 -19 8 -65 15 -102 15 -36 0 -86 6 -111 14 -58 18 -123 35 -180 46 -25
5 -63 18 -86 29 -22 11 -96 38 -165 61 -125 41 -329 134 -384 175 -68 51 -173
95 -226 95 l-52 0 -43 -44 c-56 -56 -58 -84 -7 -123 92 -71 169 -115 240 -138
89 -29 99 -37 119 -83 11 -26 11 -38 3 -48 -15 -19 -34 -18 -104 6 -75 26
-100 38 -149 72 -21 16 -46 28 -54 28 -28 0 -182 80 -220 114 -37 34 -151 96
-175 96 -7 0 -51 25 -97 57 -47 31 -138 83 -203 116 -65 32 -138 76 -163 98
-93 80 -192 138 -299 174 -58 19 -110 35 -115 35 -6 0 -10 -24 -10 -52 l0 -53
63 -56 c34 -31 93 -72 130 -92 38 -20 85 -50 105 -67 55 -47 123 -98 156 -118
15 -9 54 -34 85 -54 31 -21 62 -38 69 -38 26 0 98 -39 146 -79 26 -23 55 -41
63 -41 35 0 119 -51 198 -120 17 -14 57 -34 90 -45 33 -10 74 -31 90 -46 36
-33 110 -71 193 -98 47 -16 86 -21 164 -21 l103 0 49 28 c37 20 58 42 85 87
l36 60 42 3 c29 2 60 -5 99 -23 74 -34 210 -75 309 -94 22 -4 56 -12 75 -18
110 -35 133 -37 397 -40 l272 -4 62 21 c34 12 78 32 98 46 19 13 42 24 50 24
7 0 48 36 91 80 43 44 83 80 91 80 18 0 98 -39 134 -66 17 -12 54 -34 83 -49
29 -15 65 -43 79 -62 15 -19 53 -48 85 -64 35 -17 84 -56 121 -94 35 -36 71
-65 81 -65 9 0 44 -26 76 -58 32 -31 93 -90 134 -129 l76 -73 73 0 72 1 26 42
c52 82 73 148 70 212 -1 11 -5 76 -9 145 l-7 125 -49 95 c-26 52 -58 109 -71
125 -12 17 -32 50 -45 75 -13 25 -45 69 -72 99 -27 29 -55 66 -64 82 -8 16
-32 40 -54 54 -22 14 -51 42 -64 63 -26 41 -53 66 -106 101 -20 13 -48 41 -64
62 -15 22 -49 50 -75 64 -27 13 -73 47 -104 75 -31 29 -69 55 -84 59 -26 7
-36 18 -47 54 -3 10 -20 25 -37 35 -17 9 -57 34 -88 54 -31 21 -63 38 -71 38
-16 0 -66 26 -151 78 -30 18 -72 37 -94 43 -22 5 -51 19 -65 29 l-25 19 11 18
c6 10 31 28 55 40 l44 23 323 0 323 0 36 -15 c19 -8 53 -15 75 -15 21 0 55 -7
75 -15 19 -8 53 -15 75 -15 23 0 67 -13 105 -30 35 -16 81 -30 102 -30 86 0
322 -108 371 -170 l32 -40 34 0 c55 0 94 25 94 60 0 16 -4 32 -10 35 -5 3 -10
18 -10 33 0 39 -22 66 -72 86 -24 10 -56 25 -73 34 -16 8 -61 32 -100 53 -92
49 -236 94 -350 108 -34 5 -70 13 -82 19 -12 7 -40 12 -63 12 -22 0 -57 7 -77
15 -20 8 -66 15 -105 15 -38 0 -84 7 -105 15 -22 9 -68 15 -124 15 -48 0 -91
5 -94 10 -3 6 -48 10 -100 10 -52 0 -97 -4 -100 -10z"/>
</g>
</svg>
