<?xml version="1.0" standalone="no"?>
<!DOCTYPE svg PUBLIC "-//W3C//DTD SVG 20010904//EN"
 "http://www.w3.org/TR/2001/REC-SVG-20010904/DTD/svg10.dtd">
<svg version="1.0" xmlns="http://www.w3.org/2000/svg"
 width="264.000000pt" height="273.000000pt" viewBox="0 0 264.000000 273.000000"
 preserveAspectRatio="xMidYMid meet">
<metadata>
Created by potrace 1.16, written by Peter Selinger 2001-2019
</metadata>
<g transform="translate(0.000000,273.000000) scale(0.100000,-0.100000)"
fill="#000000" stroke="none">
<path d="M785 2720 c-3 -5 -37 -10 -76 -10 l-69 0 -178 -60 c-98 -33 -187 -60
-198 -60 -51 -1 -223 -78 -253 -114 -25 -30 -9 -68 52 -117 l58 -47 136 -43
135 -44 50 -42 c27 -24 53 -43 58 -43 4 0 31 -16 59 -35 28 -20 68 -41 88 -48
25 -8 46 -26 66 -55 20 -29 47 -52 85 -71 115 -58 320 -259 374 -366 12 -22
36 -57 55 -78 41 -46 113 -190 113 -226 0 -15 14 -64 30 -111 34 -94 40 -177
15 -187 -9 -3 -21 1 -28 10 -7 9 -41 30 -76 48 -35 17 -80 46 -100 64 -48 43
-153 95 -191 95 -33 0 -99 -30 -117 -52 -5 -7 -16 -34 -23 -60 -21 -79 17
-209 120 -419 l72 -144 -7 -54 c-7 -59 0 -71 47 -71 30 0 62 -37 74 -86 11
-48 74 -166 111 -209 18 -22 36 -50 39 -62 l6 -23 42 0 41 1 28 43 c15 24 27
51 27 59 0 9 -27 71 -60 138 -34 68 -60 135 -60 152 0 20 -19 59 -55 114 -34
50 -66 115 -81 161 -14 42 -35 90 -48 107 -32 44 -49 86 -38 97 15 15 44 -5
127 -88 59 -59 75 -81 75 -104 0 -34 52 -100 79 -100 10 0 24 14 32 32 9 21
24 35 43 40 44 11 84 55 126 138 52 105 57 136 42 300 -10 110 -34 186 -86
269 -20 33 -36 64 -36 70 0 30 -82 172 -114 196 -19 14 -36 38 -39 54 -4 18
-31 52 -75 92 -38 35 -80 82 -95 105 -14 23 -45 53 -70 67 -24 14 -52 37 -61
51 -9 14 -55 51 -104 83 -100 65 -227 183 -236 219 -9 34 -37 46 -75 33 l-31
-11 -108 53 c-82 41 -107 59 -107 74 l0 20 110 37 110 38 81 0 c50 0 96 6 117
15 29 12 83 15 252 15 169 0 223 -3 252 -15 27 -11 77 -15 210 -15 132 0 182
-4 210 -15 19 -8 51 -15 71 -15 31 0 389 -112 452 -142 14 -7 45 -28 70 -49
25 -20 69 -49 98 -64 29 -15 66 -45 83 -66 l31 -39 49 0 49 0 0 83 0 83 -67
57 c-155 131 -177 145 -290 181 -119 37 -178 53 -238 65 -22 4 -76 19 -120 33
-134 43 -167 51 -250 55 -44 2 -84 9 -89 14 -14 13 -793 12 -801 -1z"/>
</g>
</svg>
