<?xml version="1.0" standalone="no"?>
<!DOCTYPE svg PUBLIC "-//W3C//DTD SVG 20010904//EN"
 "http://www.w3.org/TR/2001/REC-SVG-20010904/DTD/svg10.dtd">
<svg version="1.0" xmlns="http://www.w3.org/2000/svg"
 width="258.000000pt" height="222.000000pt" viewBox="0 0 258.000000 222.000000"
 preserveAspectRatio="xMidYMid meet">
<metadata>
Created by potrace 1.16, written by Peter Selinger 2001-2019
</metadata>
<g transform="translate(0.000000,222.000000) scale(0.100000,-0.100000)"
fill="#000000" stroke="none">
<path d="M635 2210 c-3 -5 -46 -10 -94 -10 -55 0 -102 -6 -123 -14 -19 -8 -70
-18 -114 -21 -72 -6 -236 -50 -285 -75 l-19 -11 0 -69 0 -70 41 0 c24 0 67
-12 106 -30 35 -16 70 -30 77 -30 7 0 24 -12 39 -27 14 -16 43 -37 64 -48 43
-22 112 -71 130 -93 14 -16 8 -38 -13 -46 -8 -3 -31 1 -51 9 -26 11 -74 15
-173 15 l-138 0 -13 -16 c-22 -27 -48 -117 -49 -169 l0 -50 67 -64 c38 -35 86
-75 108 -88 22 -14 52 -37 67 -51 60 -55 230 -81 311 -47 20 8 61 15 90 15
l54 0 39 -29 c21 -16 61 -52 88 -80 27 -28 68 -62 91 -77 42 -26 135 -153 135
-184 0 -9 27 -43 60 -75 33 -33 60 -66 60 -73 0 -22 37 -86 64 -111 17 -16 26
-35 26 -55 0 -17 12 -49 26 -70 l26 -38 -11 -38 c-6 -20 -11 -54 -11 -74 0
-41 -22 -101 -48 -129 -24 -26 -95 -57 -133 -57 -24 0 -42 -10 -75 -44 -25
-24 -44 -53 -44 -65 l0 -21 134 0 c79 0 137 4 141 10 3 6 23 10 43 10 l37 0
70 75 70 76 16 57 c9 31 22 77 30 102 7 26 12 84 10 135 l-2 90 -21 22 c-24
26 -58 115 -58 154 0 17 -21 52 -65 105 -36 43 -89 111 -118 149 -30 39 -61
76 -70 84 -9 7 -17 22 -17 32 0 10 -26 38 -62 65 -145 111 -234 190 -270 238
l-28 39 0 54 c0 54 -26 146 -60 212 -28 57 -176 181 -285 240 -103 56 -105 64
-27 94 52 21 274 24 319 5 15 -6 66 -15 113 -19 164 -14 285 -31 319 -45 18
-8 57 -14 85 -14 32 0 84 -11 136 -30 47 -16 94 -30 104 -30 11 0 80 -20 153
-45 73 -25 147 -45 165 -45 62 0 223 -65 299 -120 25 -18 54 -30 73 -30 25 0
40 -10 73 -49 23 -27 56 -69 73 -95 17 -25 40 -51 50 -56 27 -15 77 -12 110 5
l30 16 0 74 0 74 -91 96 c-54 55 -103 98 -118 101 -14 4 -47 19 -72 35 -25 16
-51 29 -58 29 -7 0 -42 14 -78 30 -35 17 -74 30 -86 30 -12 0 -42 6 -67 14
-76 24 -132 37 -195 46 -33 4 -84 20 -112 34 -29 14 -70 26 -91 26 -21 0 -76
13 -122 30 -62 21 -104 30 -153 30 -37 0 -84 7 -104 15 -19 8 -53 15 -75 15
-21 0 -55 7 -75 15 -26 11 -75 15 -184 15 -88 0 -150 4 -154 10 -3 6 -28 10
-55 10 -27 0 -52 -4 -55 -10z"/>
</g>
</svg>
