<?xml version="1.0" standalone="no"?>
<!DOCTYPE svg PUBLIC "-//W3C//DTD SVG 20010904//EN"
 "http://www.w3.org/TR/2001/REC-SVG-20010904/DTD/svg10.dtd">
<svg version="1.0" xmlns="http://www.w3.org/2000/svg"
 width="636.000000pt" height="120.000000pt" viewBox="0 0 636.000000 120.000000"
 preserveAspectRatio="xMidYMid meet">
<metadata>
Created by potrace 1.16, written by Peter Selinger 2001-2019
</metadata>
<g transform="translate(0.000000,120.000000) scale(0.100000,-0.100000)"
fill="#000000" stroke="none">
<path d="M23 1186 c-18 -8 -23 -19 -23 -46 l0 -36 56 -47 c31 -26 63 -47 71
-47 8 0 44 -13 80 -30 35 -16 69 -30 75 -30 22 0 85 -35 129 -71 46 -37 147
-79 192 -79 13 0 36 -13 52 -30 16 -16 35 -30 43 -30 7 0 43 -13 79 -30 35
-16 76 -30 90 -30 13 0 53 -13 87 -29 34 -16 76 -32 93 -35 18 -4 51 -24 75
-45 24 -21 52 -43 63 -49 41 -21 145 -52 177 -52 17 0 92 -20 165 -45 73 -25
140 -45 149 -45 10 0 79 -20 153 -44 182 -59 213 -67 301 -75 41 -4 85 -13 97
-19 13 -7 67 -12 138 -12 80 0 127 -5 152 -15 19 -8 48 -15 63 -15 15 0 44 7
63 15 23 9 68 15 121 15 l84 0 73 35 c41 19 86 35 101 35 15 0 52 11 82 25 30
14 61 25 69 25 8 0 32 12 53 28 22 15 51 33 64 41 24 14 143 34 190 32 14 -1
96 -5 184 -9 l158 -7 27 -32 c32 -38 39 -39 79 -16 l30 17 63 -26 c35 -14 89
-34 119 -44 30 -10 69 -30 85 -45 48 -43 117 -89 132 -89 30 0 150 -63 202
-106 63 -52 91 -55 132 -15 40 41 38 79 -11 184 -22 47 -40 91 -40 98 0 8 9
29 20 46 l20 33 190 0 c147 0 199 -3 227 -15 19 -8 47 -15 60 -15 14 0 54 -13
90 -30 47 -22 79 -30 119 -30 30 0 71 -7 91 -15 19 -8 54 -15 77 -15 34 0 48
-6 71 -30 16 -16 35 -30 43 -30 7 0 39 -12 69 -26 31 -14 91 -36 132 -50 42
-13 100 -36 129 -49 29 -14 59 -25 67 -25 7 0 22 -10 32 -22 34 -43 121 -88
168 -88 24 0 47 5 50 10 3 6 19 10 36 10 l29 0 0 53 0 53 -27 12 c-26 11 -84
44 -224 130 -30 17 -70 36 -89 42 -19 5 -59 21 -88 35 -28 14 -61 25 -73 25
-49 0 -163 46 -204 82 -26 23 -53 38 -69 38 -15 0 -43 7 -63 15 -19 8 -53 15
-75 15 -21 0 -55 7 -75 15 -19 8 -60 15 -90 15 -29 0 -70 7 -90 15 -19 8 -53
15 -75 15 -21 0 -55 7 -75 15 -20 8 -66 15 -105 15 -38 0 -84 7 -105 15 -45
19 -111 19 -156 0 -20 -8 -48 -15 -62 -15 -44 0 -119 -46 -178 -110 l-57 -61
-54 16 c-30 9 -77 27 -105 40 -28 14 -62 25 -77 25 -14 0 -44 11 -67 24 -30
18 -64 27 -122 32 -44 3 -95 13 -114 20 -18 8 -58 14 -87 14 -29 0 -71 7 -93
16 -46 18 -197 15 -271 -6 -108 -30 -173 -51 -212 -70 -24 -11 -77 -31 -118
-44 -41 -13 -114 -43 -161 -65 -53 -25 -101 -41 -124 -41 -20 0 -59 -8 -86
-17 l-49 -18 -49 18 c-36 13 -81 17 -175 17 -90 0 -137 4 -163 15 -19 8 -52
15 -72 15 -20 0 -75 13 -121 30 -47 16 -96 30 -111 30 -38 0 -49 18 -49 82 l0
58 -40 80 c-30 59 -50 86 -78 104 -20 13 -57 40 -80 60 -24 20 -51 36 -60 36
-9 0 -30 13 -47 28 -41 38 -187 82 -296 89 l-67 5 -41 -22 c-59 -29 -84 -72
-77 -132 l5 -48 -25 -6 c-14 -4 -43 1 -67 10 -24 9 -53 16 -66 16 -14 0 -76
25 -139 55 -123 60 -218 95 -254 95 -13 0 -61 25 -106 55 -82 54 -160 87 -235
98 -20 3 -50 15 -66 26 -32 23 -100 27 -138 7z"/>
</g>
</svg>
