<?xml version="1.0" standalone="no"?>
<!DOCTYPE svg PUBLIC "-//W3C//DTD SVG 20010904//EN"
 "http://www.w3.org/TR/2001/REC-SVG-20010904/DTD/svg10.dtd">
<svg version="1.0" xmlns="http://www.w3.org/2000/svg"
 width="372.000000pt" height="123.000000pt" viewBox="0 0 372.000000 123.000000"
 preserveAspectRatio="xMidYMid meet">
<metadata>
Created by potrace 1.16, written by Peter Selinger 2001-2019
</metadata>
<g transform="translate(0.000000,123.000000) scale(0.100000,-0.100000)"
fill="#000000" stroke="none">
<path d="M575 1220 c-4 -6 -65 -10 -151 -10 l-145 0 -61 -21 c-95 -32 -116
-46 -149 -99 -17 -27 -39 -52 -50 -55 l-19 -6 0 -159 0 -159 20 -6 c11 -3 32
-27 47 -53 49 -86 87 -136 154 -207 70 -74 144 -175 184 -256 18 -34 41 -58
81 -85 31 -20 66 -52 77 -70 l22 -34 73 0 72 0 0 45 c0 60 -29 116 -100 190
-31 33 -68 78 -82 101 -25 38 -53 65 -112 107 -15 10 -38 41 -52 70 -15 29
-37 66 -50 84 -50 66 -84 154 -84 217 0 42 -6 68 -21 92 -26 43 -19 67 33 105
l41 29 87 0 c55 0 101 6 123 15 20 8 52 15 72 15 20 0 52 -7 72 -15 23 -10 69
-15 135 -15 65 0 111 -5 135 -15 23 -10 69 -15 132 -15 l97 0 84 -30 c47 -16
94 -30 105 -30 26 0 124 -33 193 -66 29 -13 58 -24 65 -24 18 0 114 -69 131
-94 15 -24 106 -90 164 -120 24 -12 37 -14 51 -7 28 15 63 61 85 109 l20 43
-18 50 c-21 57 -17 96 15 140 l20 29 58 0 c32 0 75 7 94 15 28 12 80 15 222
15 142 0 194 -3 222 -15 19 -8 52 -15 71 -15 20 0 96 -20 169 -45 73 -25 147
-45 165 -45 18 0 53 -6 78 -14 58 -18 125 -35 175 -45 54 -10 163 -83 203
-137 19 -26 41 -44 53 -44 11 0 46 14 79 30 l60 30 0 30 c0 16 -4 32 -10 35
-5 3 -10 15 -10 26 0 26 -52 79 -77 79 -11 0 -32 14 -48 30 -16 17 -36 30 -44
30 -9 0 -58 20 -109 45 -58 28 -108 45 -130 45 -20 0 -77 13 -127 29 -132 43
-172 52 -255 61 -41 4 -106 20 -145 34 l-70 26 -281 0 -282 0 -35 -15 c-20 -8
-49 -15 -64 -15 -33 0 -154 -79 -182 -119 -11 -16 -37 -36 -56 -45 l-36 -17
-62 21 c-34 11 -86 32 -115 45 -29 14 -57 25 -63 25 -6 0 -40 14 -76 30 -37
17 -81 30 -104 30 -22 0 -56 7 -76 15 -20 8 -66 15 -105 15 -38 0 -84 7 -105
15 -26 11 -76 15 -199 15 -98 0 -165 4 -169 10 -3 6 -28 10 -55 10 -27 0 -52
-4 -55 -10z"/>
</g>
</svg>
