<?xml version="1.0" standalone="no"?>
<!DOCTYPE svg PUBLIC "-//W3C//DTD SVG 20010904//EN"
 "http://www.w3.org/TR/2001/REC-SVG-20010904/DTD/svg10.dtd">
<svg version="1.0" xmlns="http://www.w3.org/2000/svg"
 width="504.000000pt" height="81.000000pt" viewBox="0 0 504.000000 81.000000"
 preserveAspectRatio="xMidYMid meet">
<metadata>
Created by potrace 1.16, written by Peter Selinger 2001-2019
</metadata>
<g transform="translate(0.000000,81.000000) scale(0.100000,-0.100000)"
fill="#000000" stroke="none">
<path d="M22 780 c-18 -23 -22 -40 -20 -72 l3 -42 65 -53 c36 -30 88 -69 116
-88 48 -33 102 -93 187 -208 29 -40 37 -59 37 -93 0 -24 -6 -46 -12 -51 -35
-21 -118 -43 -168 -43 -31 0 -61 -5 -68 -12 -23 -23 -13 -55 27 -87 l39 -31
71 0 c39 0 79 4 89 9 9 5 37 17 62 27 87 34 120 64 141 124 22 65 24 165 4
200 -19 33 -19 69 0 76 8 3 36 -1 62 -9 126 -40 136 -41 485 -44 l346 -3 104
34 c57 19 128 46 158 60 33 15 73 26 99 26 31 0 58 8 90 29 l46 29 165 5 c91
3 186 11 211 18 l47 13 44 -17 c28 -11 73 -17 126 -17 51 0 96 -6 119 -15 19
-8 46 -15 60 -15 23 0 90 -36 213 -113 30 -19 66 -37 80 -41 32 -8 47 -21 88
-73 l34 -43 40 0 c30 0 46 7 69 29 40 41 40 93 -1 149 -43 60 -47 88 -19 118
42 45 99 64 192 64 53 0 98 6 120 15 43 18 125 20 164 3 15 -6 53 -15 83 -19
30 -4 84 -12 120 -18 36 -6 100 -11 143 -11 46 0 92 -6 114 -15 19 -8 60 -15
90 -15 29 0 70 -7 90 -15 19 -8 45 -15 57 -15 44 0 170 -49 221 -87 17 -12 66
-33 110 -48 44 -14 104 -37 133 -50 61 -29 73 -30 112 -10 l30 16 0 37 0 37
-48 41 c-64 56 -144 95 -293 144 -68 22 -148 52 -177 65 -29 14 -64 25 -78 25
-13 0 -41 7 -61 15 -23 10 -69 15 -135 15 -65 0 -111 5 -135 15 -19 8 -60 15
-89 15 -29 0 -71 7 -92 15 l-39 16 -214 -4 c-207 -3 -233 -6 -349 -43 -25 -8
-55 -14 -68 -14 -29 0 -104 -40 -160 -85 -26 -21 -55 -35 -70 -35 -15 0 -69
20 -120 45 -52 25 -105 45 -118 45 -14 0 -41 7 -61 15 l-35 15 -343 0 -343 0
-64 -30 c-34 -16 -69 -30 -76 -30 -7 0 -31 -9 -53 -21 -72 -36 -183 -69 -235
-69 -28 0 -68 -7 -87 -15 -29 -12 -86 -15 -282 -15 -196 0 -253 3 -282 15 -22
9 -67 15 -117 15 -82 0 -146 16 -242 60 -63 29 -252 90 -277 90 -13 0 -49 18
-81 40 l-57 40 -57 -1 -57 0 -23 -29z"/>
</g>
</svg>
