<?xml version="1.0" standalone="no"?>
<!DOCTYPE svg PUBLIC "-//W3C//DTD SVG 20010904//EN"
 "http://www.w3.org/TR/2001/REC-SVG-20010904/DTD/svg10.dtd">
<svg version="1.0" xmlns="http://www.w3.org/2000/svg"
 width="213.000000pt" height="246.000000pt" viewBox="0 0 213.000000 246.000000"
 preserveAspectRatio="xMidYMid meet">
<metadata>
Created by potrace 1.16, written by Peter Selinger 2001-2019
</metadata>
<g transform="translate(0.000000,246.000000) scale(0.100000,-0.100000)"
fill="#000000" stroke="none">
<path d="M444 2433 l-20 -26 -59 -5 -59 -5 -55 -43 c-105 -81 -142 -118 -187
-184 -29 -43 -44 -77 -44 -97 0 -18 -5 -35 -10 -38 -13 -8 -13 -282 0 -290 5
-3 10 -17 10 -30 0 -28 64 -224 88 -270 8 -16 39 -65 69 -109 30 -43 63 -97
75 -120 11 -22 43 -65 69 -94 27 -29 53 -70 59 -90 5 -21 26 -64 45 -97 20
-32 34 -66 33 -74 -2 -8 -22 -28 -46 -44 -48 -33 -92 -108 -92 -159 0 -39 79
-162 118 -182 15 -8 48 -32 74 -54 l47 -39 62 -7 c73 -9 79 -4 79 67 l0 49
-30 26 c-16 15 -48 42 -70 61 -28 23 -40 41 -38 55 4 26 25 30 78 16 32 -9 66
-35 145 -111 57 -54 108 -99 114 -99 6 0 64 -51 129 -113 104 -100 242 -206
328 -250 16 -8 59 -25 94 -36 36 -12 73 -26 82 -31 10 -6 76 -10 148 -10 l130
0 0 73 c0 50 -8 93 -24 139 -35 99 -55 128 -113 162 -28 17 -72 55 -98 84 -26
28 -59 55 -73 59 -28 6 -116 55 -213 117 -30 20 -61 36 -69 36 -8 0 -83 34
-167 75 -86 42 -167 75 -183 75 -23 0 -45 14 -92 58 -146 137 -188 182 -213
233 -15 29 -44 74 -65 99 -48 59 -100 143 -100 162 0 8 -13 33 -29 55 -55 76
-121 235 -121 293 0 14 -14 45 -30 70 l-30 45 0 79 c0 80 26 182 58 234 17 26
142 102 169 102 10 0 36 11 58 25 l40 24 143 1 c105 0 152 -4 179 -15 19 -8
52 -15 72 -15 20 0 75 -13 121 -30 47 -16 102 -30 123 -30 22 0 68 -13 104
-30 35 -16 69 -30 75 -30 5 0 39 -13 75 -30 35 -16 69 -30 75 -30 17 0 81 -32
122 -62 21 -15 47 -28 56 -28 9 0 35 -13 56 -30 21 -16 60 -44 86 -62 25 -17
59 -51 74 -75 15 -23 49 -63 75 -88 l48 -45 66 0 65 0 0 68 0 69 -30 26 c-16
15 -41 44 -54 65 -30 48 -81 92 -106 92 -10 0 -28 13 -39 29 -39 54 -197 151
-247 151 -14 0 -52 16 -83 35 -69 43 -183 84 -231 85 -39 0 -126 27 -208 66
-29 13 -64 24 -78 24 -13 0 -41 7 -61 15 -19 8 -62 15 -94 15 -32 0 -61 5 -64
10 -4 6 -77 10 -188 9 l-182 0 -21 -26z m1021 -2133 c21 -22 35 -45 33 -56
l-3 -17 -46 39 c-25 21 -55 44 -65 51 l-19 12 14 9 c21 15 45 4 86 -38z"/>
</g>
</svg>
