<?xml version="1.0" standalone="no"?>
<!DOCTYPE svg PUBLIC "-//W3C//DTD SVG 20010904//EN"
 "http://www.w3.org/TR/2001/REC-SVG-20010904/DTD/svg10.dtd">
<svg version="1.0" xmlns="http://www.w3.org/2000/svg"
 width="267.000000pt" height="255.000000pt" viewBox="0 0 267.000000 255.000000"
 preserveAspectRatio="xMidYMid meet">
<metadata>
Created by potrace 1.16, written by Peter Selinger 2001-2019
</metadata>
<g transform="translate(0.000000,255.000000) scale(0.100000,-0.100000)"
fill="#000000" stroke="none">
<path d="M590 2495 c-47 -30 -91 -54 -98 -55 -24 0 -107 -48 -133 -77 -15 -15
-43 -61 -63 -100 l-36 -73 0 -104 c0 -69 5 -115 15 -139 8 -20 15 -54 15 -76
0 -23 12 -66 30 -103 16 -34 30 -70 30 -78 0 -8 14 -35 30 -60 16 -25 30 -52
30 -60 0 -8 27 -55 61 -104 33 -50 70 -108 81 -130 11 -23 39 -61 62 -86 23
-25 59 -71 79 -102 20 -32 74 -99 119 -149 46 -50 94 -105 106 -121 l24 -29
-12 -14 c-16 -20 -100 -20 -147 0 -19 8 -60 15 -90 15 -29 0 -70 7 -90 15 -20
8 -66 15 -105 15 -38 0 -84 7 -105 15 -27 11 -78 15 -214 15 l-179 0 0 -53 0
-53 95 -32 94 -32 96 0 c62 0 108 -5 132 -15 19 -8 53 -15 75 -15 21 0 55 -7
75 -15 19 -8 65 -15 102 -15 36 0 86 -6 111 -14 98 -31 139 -39 235 -45 153
-10 248 -48 300 -119 17 -24 67 -67 115 -98 47 -31 100 -69 118 -85 18 -16 40
-29 48 -29 27 0 87 -31 134 -70 25 -20 59 -44 75 -53 45 -23 151 -57 177 -57
13 0 40 -11 59 -24 20 -14 65 -34 100 -46 35 -11 72 -25 81 -30 21 -12 348
-14 348 -2 0 4 22 34 50 67 l49 60 1 69 0 68 -25 30 c-14 16 -25 36 -25 44 0
35 -49 106 -135 195 -51 52 -100 110 -109 127 -10 20 -49 53 -103 88 -47 32
-100 70 -118 85 -17 15 -67 46 -111 68 -43 22 -101 58 -128 80 -26 23 -55 41
-63 41 -8 0 -44 14 -80 30 -35 16 -76 30 -91 30 -15 0 -69 20 -120 45 l-94 45
-59 0 c-44 0 -73 -7 -109 -25 -64 -32 -80 -57 -80 -121 l0 -52 43 -54 c85
-105 85 -156 0 -88 -28 22 -55 40 -59 40 -17 0 -100 79 -129 122 -16 23 -48
63 -70 88 -23 25 -50 59 -60 75 -11 17 -54 67 -96 112 -43 45 -90 105 -105
135 -15 29 -42 71 -61 93 -18 22 -37 51 -40 65 -3 14 -26 65 -50 114 -23 49
-43 95 -43 102 0 7 -13 41 -30 76 -16 34 -30 75 -30 89 0 15 -7 43 -15 62 -9
23 -15 68 -15 119 l0 83 43 41 c23 22 60 54 81 70 l39 29 96 8 c53 4 107 8
121 8 45 1 166 -18 187 -30 12 -6 45 -11 74 -11 31 0 91 -12 144 -29 98 -32
158 -48 220 -60 63 -12 225 -70 254 -90 48 -34 110 -61 138 -61 29 0 60 -16
103 -56 14 -12 61 -40 105 -62 88 -45 114 -65 149 -120 13 -21 43 -50 67 -65
25 -16 55 -44 68 -63 28 -41 46 -43 83 -7 32 31 34 45 12 119 l-15 53 -116
111 c-64 60 -123 110 -131 110 -25 0 -86 32 -132 70 -46 38 -120 80 -140 80
-7 0 -41 14 -77 30 -35 17 -70 30 -76 30 -7 0 -54 20 -105 45 -52 25 -105 45
-118 45 -14 0 -41 7 -61 15 -19 8 -52 15 -72 15 -20 0 -56 6 -81 14 -87 28
-136 38 -210 45 -41 4 -85 13 -97 19 -12 7 -55 12 -97 12 -41 0 -78 5 -81 10
-3 6 -41 10 -83 9 l-77 -1 -85 -53z m1173 -1635 c15 -17 73 -52 130 -79 62
-29 123 -67 155 -96 29 -26 70 -59 91 -74 80 -54 219 -198 265 -274 47 -77 56
-119 36 -158 l-11 -19 -70 0 -71 0 -65 30 c-35 17 -70 30 -76 30 -7 0 -29 11
-49 25 -20 14 -71 36 -113 50 -42 14 -108 46 -150 74 -41 28 -93 60 -117 72
-58 30 -92 56 -118 91 -34 46 -16 58 90 58 l87 0 15 18 c23 26 48 78 48 101 0
27 -48 81 -72 81 -26 0 -87 28 -115 53 -38 34 -29 47 30 47 l54 0 26 -30z"/>
</g>
</svg>
