<?xml version="1.0" standalone="no"?>
<!DOCTYPE svg PUBLIC "-//W3C//DTD SVG 20010904//EN"
 "http://www.w3.org/TR/2001/REC-SVG-20010904/DTD/svg10.dtd">
<svg version="1.0" xmlns="http://www.w3.org/2000/svg"
 width="300.000000pt" height="327.000000pt" viewBox="0 0 300.000000 327.000000"
 preserveAspectRatio="xMidYMid meet">
<metadata>
Created by potrace 1.16, written by Peter Selinger 2001-2019
</metadata>
<g transform="translate(0.000000,327.000000) scale(0.100000,-0.100000)"
fill="#000000" stroke="none">
<path d="M1235 3260 c-3 -5 -48 -10 -98 -10 l-92 0 -45 -30 c-28 -19 -58 -30
-79 -30 l-35 0 -88 -88 -88 -88 0 -126 c0 -89 4 -136 15 -161 8 -20 15 -49 15
-64 0 -16 17 -53 38 -84 20 -32 51 -80 67 -109 58 -100 100 -168 133 -210 17
-24 32 -51 32 -61 0 -10 16 -30 35 -45 45 -34 119 -144 106 -157 -5 -5 -40 -7
-83 -3 -40 4 -82 6 -93 6 -11 -1 -164 -4 -340 -8 l-320 -7 -33 -23 c-18 -13
-47 -28 -65 -33 -42 -11 -197 -167 -197 -197 0 -12 -5 -24 -10 -27 -13 -8 -13
-102 0 -110 6 -3 10 -19 10 -35 0 -16 20 -70 45 -121 25 -51 45 -101 45 -110
0 -10 13 -33 29 -51 16 -18 66 -89 112 -158 107 -159 148 -213 231 -306 38
-42 71 -89 77 -109 5 -19 19 -48 31 -65 15 -21 20 -38 15 -53 -6 -21 -25 -171
-27 -212 0 -11 4 -44 9 -73 l10 -54 77 -77 c92 -93 196 -151 270 -151 25 0 48
-4 51 -10 8 -13 72 -13 80 0 3 5 15 10 26 10 11 0 34 13 50 29 l29 29 0 64 c0
46 -7 80 -27 126 -20 48 -24 68 -16 80 11 19 90 62 113 62 50 0 110 98 110
181 l0 51 -65 68 -66 67 -65 22 c-76 25 -157 27 -207 6 -21 -8 -67 -15 -105
-15 l-69 0 -39 28 c-60 44 -152 148 -181 205 -14 29 -44 72 -67 97 -72 77
-175 245 -202 327 -14 42 -34 89 -45 104 -18 26 -49 110 -49 135 0 21 78 93
124 114 28 12 66 20 99 20 30 0 71 7 90 15 46 19 360 22 404 3 26 -11 202 -29
285 -29 45 0 209 -51 246 -77 15 -11 47 -29 72 -42 25 -12 65 -39 90 -60 25
-20 64 -47 86 -58 50 -26 170 -106 204 -137 29 -26 92 -59 132 -69 15 -3 39
-22 54 -42 32 -42 56 -55 159 -89 42 -13 88 -33 103 -44 63 -44 172 -91 212
-91 22 0 57 -7 77 -15 22 -10 68 -15 125 -15 l89 0 49 25 c64 32 80 57 80 123
l0 54 -77 80 c-44 45 -100 91 -128 105 -27 14 -64 36 -80 49 -17 12 -66 34
-110 49 -100 32 -172 66 -226 105 -24 17 -55 30 -71 30 -16 0 -45 7 -65 15
-19 8 -54 15 -77 15 -25 0 -53 8 -71 21 -16 11 -65 38 -107 60 l-78 39 -68 0
c-113 0 -231 53 -317 143 -23 23 -68 65 -101 93 -33 28 -73 71 -89 95 -16 24
-51 68 -77 97 -26 29 -52 69 -57 88 -5 19 -33 60 -61 91 -60 65 -78 98 -90
161 -19 100 -53 208 -71 228 -14 15 -19 35 -19 79 l0 58 58 53 57 54 71 0 c41
0 87 6 107 15 27 11 75 15 177 15 102 0 150 -4 177 -15 19 -8 60 -15 90 -15
29 0 70 -7 90 -15 19 -8 53 -15 75 -15 21 0 55 -7 75 -15 19 -8 65 -15 101
-15 74 0 235 -49 362 -111 41 -20 86 -39 100 -42 14 -3 43 -22 65 -40 22 -19
64 -46 93 -61 31 -16 97 -69 157 -127 109 -104 123 -111 175 -84 l30 16 0 39
c0 22 -4 48 -9 58 -5 9 -14 29 -20 44 -5 15 -29 39 -52 54 -24 14 -63 45 -88
68 -25 23 -66 54 -91 68 -25 14 -56 38 -69 52 -14 14 -31 26 -38 26 -8 0 -40
12 -70 26 -31 14 -90 36 -130 49 -41 14 -87 33 -102 44 -37 26 -142 61 -186
61 -20 0 -52 7 -72 15 -19 8 -53 15 -75 15 -21 0 -55 7 -75 15 -22 9 -67 15
-120 15 -52 0 -97 6 -120 15 -26 11 -75 15 -184 15 -88 0 -150 4 -154 10 -3 6
-28 10 -55 10 -27 0 -52 -4 -55 -10z m995 -1740 c51 -6 95 -23 205 -78 77 -38
153 -72 168 -76 26 -6 117 -90 117 -107 0 -17 -41 -19 -75 -4 -21 8 -49 15
-64 15 -28 0 -54 15 -109 62 -18 15 -40 28 -50 28 -9 0 -37 14 -62 30 -25 16
-52 30 -60 30 -19 0 -148 66 -172 87 -22 20 -12 37 16 28 11 -4 50 -11 86 -15z
m-1140 -889 c62 -22 80 -47 62 -86 l-12 -25 -72 0 -73 0 -35 24 c-20 13 -42
36 -50 51 l-14 27 19 14 c27 20 111 17 175 -5z m-242 -325 c3 -13 -1 -17 -14
-14 -11 2 -20 11 -22 22 -3 13 1 17 14 14 11 -2 20 -11 22 -22z"/>
</g>
</svg>
