<?xml version="1.0" standalone="no"?>
<!DOCTYPE svg PUBLIC "-//W3C//DTD SVG 20010904//EN"
 "http://www.w3.org/TR/2001/REC-SVG-20010904/DTD/svg10.dtd">
<svg version="1.0" xmlns="http://www.w3.org/2000/svg"
 width="441.000000pt" height="237.000000pt" viewBox="0 0 441.000000 237.000000"
 preserveAspectRatio="xMidYMid meet">
<metadata>
Created by potrace 1.16, written by Peter Selinger 2001-2019
</metadata>
<g transform="translate(0.000000,237.000000) scale(0.100000,-0.100000)"
fill="#000000" stroke="none">
<path d="M2467 2363 c-12 -11 -110 -43 -133 -43 -12 0 -51 -13 -86 -30 -34
-16 -70 -30 -80 -30 -9 0 -31 -19 -49 -42 -18 -24 -59 -71 -91 -105 l-58 -61
0 -172 0 -171 19 -37 c11 -20 44 -75 75 -121 31 -46 56 -92 56 -102 0 -10 25
-47 56 -81 31 -35 67 -84 80 -110 13 -25 41 -59 63 -74 21 -16 49 -44 62 -64
13 -19 77 -90 142 -157 124 -128 141 -161 82 -155 -17 2 -93 6 -170 10 -77 4
-146 11 -152 15 -7 4 -31 2 -54 -4 l-41 -13 -52 18 c-38 13 -67 16 -102 12
-92 -13 -326 2 -363 23 -27 15 -150 9 -226 -11 l-43 -12 -44 17 -44 17 -597 0
-598 0 -32 -16 c-55 -28 -87 -64 -87 -100 0 -18 5 -36 10 -39 6 -3 10 -15 10
-25 0 -25 42 -73 93 -108 30 -20 46 -40 57 -72 12 -34 27 -52 66 -79 28 -19
62 -51 74 -70 13 -20 93 -106 177 -192 84 -85 153 -161 153 -167 0 -8 21 -12
63 -12 l63 0 12 33 c7 18 12 48 12 66 l0 33 -108 112 c-60 61 -130 145 -157
186 -27 41 -78 106 -113 143 -35 38 -62 76 -60 84 2 9 19 24 38 34 l35 19 293
0 293 0 36 -15 c46 -19 141 -19 188 1 l37 15 32 -12 c21 -8 155 -14 421 -18
284 -4 396 -9 412 -18 15 -9 69 -13 168 -13 107 0 155 -4 182 -15 19 -8 53
-15 75 -15 21 0 55 -7 75 -15 24 -10 71 -15 150 -15 130 0 163 -10 233 -69 25
-21 65 -48 90 -61 24 -12 80 -47 123 -77 101 -69 149 -93 184 -93 33 0 151
-55 202 -94 19 -14 48 -26 63 -26 16 0 45 -7 65 -15 25 -11 73 -15 170 -15
l134 0 37 19 c47 24 129 111 138 145 3 14 0 49 -7 77 l-13 52 -51 37 c-28 21
-73 49 -100 63 -28 14 -65 37 -84 51 l-35 26 -70 0 c-39 0 -91 6 -116 14 -60
19 -125 35 -182 46 -26 5 -56 13 -67 19 -11 6 -38 11 -61 11 -22 0 -57 7 -77
15 -19 8 -53 15 -75 15 -21 0 -55 7 -75 15 -19 8 -60 15 -90 15 -68 0 -102 19
-139 77 -17 28 -53 61 -98 90 -71 47 -187 156 -218 203 -8 14 -36 38 -60 54
-25 15 -56 44 -69 64 -44 67 -103 142 -171 218 -38 41 -71 87 -75 102 -3 15
-26 67 -50 116 -23 49 -43 97 -43 105 0 9 -14 36 -30 60 -37 54 -38 90 -4 130
19 23 34 31 59 31 41 0 52 14 35 45 -7 13 -10 31 -6 40 7 20 82 54 118 55 14
0 55 13 90 30 l63 30 218 0 c171 0 225 -3 254 -15 19 -8 59 -15 87 -15 28 0
71 -6 96 -14 78 -25 133 -37 195 -45 34 -5 70 -13 82 -19 12 -7 39 -12 60 -12
44 0 256 -70 281 -93 10 -9 62 -30 116 -48 71 -23 112 -42 149 -73 29 -23 73
-54 100 -69 34 -20 56 -43 78 -82 41 -73 90 -115 134 -115 l35 0 0 89 c0 50
-4 93 -10 96 -6 4 -21 27 -34 53 -32 62 -79 106 -201 187 -69 46 -126 75 -185
94 -47 16 -104 38 -127 50 -23 11 -48 21 -56 21 -8 0 -34 13 -58 30 l-44 30
-70 0 c-38 0 -90 6 -115 14 -60 19 -125 35 -182 46 -26 5 -56 13 -67 19 -11 6
-60 11 -110 11 -49 0 -93 5 -96 10 -7 11 -577 14 -588 3z m1190 -1908 c19 -8
52 -15 72 -15 46 0 147 -35 186 -64 17 -13 40 -26 53 -30 12 -4 22 -11 22 -16
0 -14 -30 -20 -105 -20 l-73 0 -99 49 c-100 50 -140 81 -128 100 9 15 29 14
72 -4z"/>
</g>
</svg>
