<?xml version="1.0" standalone="no"?>
<!DOCTYPE svg PUBLIC "-//W3C//DTD SVG 20010904//EN"
 "http://www.w3.org/TR/2001/REC-SVG-20010904/DTD/svg10.dtd">
<svg version="1.0" xmlns="http://www.w3.org/2000/svg"
 width="456.000000pt" height="357.000000pt" viewBox="0 0 456.000000 357.000000"
 preserveAspectRatio="xMidYMid meet">
<metadata>
Created by potrace 1.16, written by Peter Selinger 2001-2019
</metadata>
<g transform="translate(0.000000,357.000000) scale(0.100000,-0.100000)"
fill="#000000" stroke="none">
<path d="M2975 3560 c-3 -5 -34 -10 -69 -10 l-63 0 -39 -27 c-58 -41 -77 -50
-122 -62 -43 -12 -112 -78 -112 -109 0 -9 -14 -37 -30 -62 l-30 -45 0 -61 c0
-34 7 -78 15 -97 8 -20 15 -47 15 -61 0 -13 13 -53 30 -88 16 -34 30 -76 30
-93 0 -29 30 -78 118 -195 17 -24 32 -51 32 -61 0 -10 13 -33 29 -51 38 -44
117 -161 143 -212 11 -22 38 -61 58 -86 21 -25 55 -79 75 -120 21 -41 60 -99
87 -129 27 -30 61 -77 75 -105 14 -28 44 -71 68 -96 23 -25 50 -59 61 -75 10
-17 35 -50 55 -75 47 -59 99 -143 99 -161 0 -13 47 -85 118 -179 17 -24 32
-51 32 -60 0 -10 18 -40 41 -66 57 -67 109 -178 109 -230 0 -45 -10 -58 -51
-67 -15 -4 -43 -25 -63 -47 l-36 -40 0 -143 0 -142 58 -85 c32 -47 64 -100 71
-119 l14 -33 -24 -19 c-13 -10 -40 -21 -59 -24 -19 -3 -55 -12 -80 -20 -25 -8
-68 -15 -96 -15 -28 0 -68 -7 -87 -15 -43 -18 -358 -22 -402 -5 -17 7 -39 6
-69 -2 l-44 -12 -44 17 c-31 12 -75 17 -156 17 -78 0 -124 5 -149 15 -20 8
-66 15 -105 15 -38 0 -84 7 -105 15 -19 8 -60 15 -90 15 -29 0 -70 7 -90 15
-20 8 -66 15 -105 15 -38 0 -84 7 -105 15 -19 8 -53 15 -75 15 -23 0 -67 13
-105 30 -35 16 -69 30 -75 30 -5 0 -39 14 -75 30 -35 17 -75 30 -89 30 -14 0
-41 7 -61 15 -19 8 -47 15 -62 15 -14 0 -39 9 -56 21 -41 28 -182 99 -196 99
-19 0 -199 89 -235 116 -18 14 -48 30 -68 35 -20 5 -44 21 -53 35 -46 66 -87
104 -124 114 -47 13 -135 91 -182 163 -19 29 -64 80 -100 113 -43 40 -76 82
-97 125 -18 35 -41 75 -50 89 -22 31 -60 136 -60 166 0 12 -7 38 -15 57 -8 20
-15 60 -15 88 0 28 -8 73 -17 100 l-18 49 33 94 c25 74 32 112 32 169 l0 74
-21 27 c-31 39 -69 35 -113 -14 -25 -27 -36 -50 -36 -70 0 -17 -7 -47 -15 -67
-8 -19 -15 -48 -15 -64 0 -15 -4 -31 -10 -34 -13 -8 -13 -102 0 -110 13 -8 13
-62 0 -70 -13 -8 -13 -72 0 -80 6 -3 10 -26 10 -49 0 -24 7 -60 15 -79 8 -20
15 -55 15 -77 0 -40 26 -101 69 -165 12 -16 21 -37 21 -46 0 -9 13 -34 29 -56
16 -22 39 -60 51 -84 13 -24 42 -65 65 -90 23 -25 54 -63 68 -85 27 -42 55
-70 102 -99 17 -10 64 -50 105 -90 75 -71 218 -174 301 -215 24 -12 65 -40 91
-61 29 -24 74 -48 120 -63 40 -13 100 -40 133 -60 33 -20 71 -39 85 -43 14 -3
46 -18 71 -34 30 -19 59 -29 84 -29 21 0 139 -34 262 -75 l223 -75 65 0 c36 0
82 -7 102 -15 19 -8 60 -15 90 -15 29 0 70 -7 90 -15 19 -8 53 -15 75 -15 21
0 55 -7 75 -15 22 -9 68 -15 124 -15 48 0 91 -5 94 -10 4 -6 168 -10 460 -10
292 0 456 4 460 10 3 5 24 10 46 10 22 0 99 20 172 45 73 25 141 45 150 45 10
0 46 9 80 21 84 28 164 106 218 211 l39 78 0 92 0 93 -43 61 c-23 33 -57 80
-74 104 -18 24 -33 50 -33 59 0 9 -14 36 -30 61 -16 25 -30 52 -30 61 0 9 -18
39 -41 65 -43 51 -109 176 -109 205 0 10 -18 31 -40 49 -24 19 -43 44 -49 65
-5 19 -27 56 -48 82 -51 62 -103 146 -103 165 0 9 -15 34 -34 56 -18 23 -69
94 -112 159 -70 106 -111 162 -187 258 -41 51 -117 166 -139 209 -11 22 -43
65 -69 94 -27 29 -53 69 -58 88 -5 19 -33 60 -61 91 -28 31 -63 79 -77 107
-14 28 -35 65 -47 81 -20 27 -52 83 -99 170 -8 17 -29 62 -46 101 l-31 71 0
85 c0 94 6 107 70 152 19 14 51 37 71 51 l36 26 119 5 c65 3 130 6 144 6 47 0
166 -19 187 -31 12 -6 40 -11 63 -11 25 0 67 -12 107 -30 35 -16 81 -30 102
-30 40 0 125 -27 209 -66 29 -13 57 -24 63 -24 6 0 40 -13 76 -30 35 -16 69
-30 74 -30 10 0 104 -53 199 -113 30 -19 67 -37 81 -41 14 -3 54 -30 88 -61
66 -58 84 -64 131 -40 l30 16 0 53 0 54 -27 17 c-16 10 -50 42 -76 72 -38 41
-59 56 -95 65 -33 8 -58 24 -91 59 -51 52 -116 89 -157 89 -30 0 -86 24 -129
56 -45 33 -236 94 -295 94 -28 0 -67 7 -87 15 -19 8 -47 15 -60 15 -14 0 -54
14 -90 30 l-64 30 -104 0 c-58 0 -107 4 -110 10 -3 6 -48 10 -100 10 -52 0
-97 -4 -100 -10z m943 -2892 c56 -59 76 -133 46 -176 -21 -31 -45 -28 -82 11
-56 58 -76 132 -46 175 21 31 45 28 82 -10z"/>
</g>
</svg>
