<?xml version="1.0" standalone="no"?>
<!DOCTYPE svg PUBLIC "-//W3C//DTD SVG 20010904//EN"
 "http://www.w3.org/TR/2001/REC-SVG-20010904/DTD/svg10.dtd">
<svg version="1.0" xmlns="http://www.w3.org/2000/svg"
 width="345.000000pt" height="438.000000pt" viewBox="0 0 345.000000 438.000000"
 preserveAspectRatio="xMidYMid meet">
<metadata>
Created by potrace 1.16, written by Peter Selinger 2001-2019
</metadata>
<g transform="translate(0.000000,438.000000) scale(0.100000,-0.100000)"
fill="#000000" stroke="none">
<path d="M205 4364 c-11 -8 -47 -29 -79 -45 -32 -17 -74 -42 -92 -56 l-34 -25
0 -233 0 -234 22 -36 c13 -20 40 -63 62 -96 21 -33 44 -81 52 -106 8 -25 25
-60 38 -77 13 -17 32 -49 44 -71 11 -22 32 -51 46 -64 14 -14 26 -33 26 -42 0
-10 25 -47 56 -81 31 -35 67 -85 81 -113 14 -27 51 -77 82 -110 31 -33 83 -99
114 -147 32 -49 69 -96 83 -105 14 -9 39 -40 56 -70 18 -31 47 -64 71 -81 25
-16 54 -49 72 -81 16 -30 37 -57 45 -61 68 -31 75 -37 90 -80 12 -34 27 -52
67 -79 28 -20 65 -56 81 -81 17 -25 50 -59 75 -74 24 -16 56 -47 71 -70 30
-48 185 -202 237 -236 63 -41 134 -162 184 -314 28 -84 59 -156 80 -187 50
-73 343 -367 390 -391 84 -43 206 -132 235 -171 16 -22 43 -83 60 -135 l31
-96 43 -46 c24 -26 55 -65 70 -88 14 -23 40 -48 56 -57 17 -9 61 -44 98 -78
72 -67 130 -109 202 -148 25 -13 63 -36 84 -52 23 -15 52 -27 71 -27 17 0 36
-5 41 -10 7 -7 54 -10 120 -8 l109 3 3 32 3 31 -33 25 c-40 30 -172 97 -191
97 -8 0 -33 15 -57 33 -24 17 -62 45 -84 61 -23 15 -68 54 -102 85 -34 31 -73
64 -88 74 -14 10 -38 41 -52 70 -15 28 -44 72 -65 97 -54 64 -69 107 -69 195
l0 77 -29 29 -29 29 -49 0 c-58 1 -87 14 -221 103 -66 45 -111 82 -127 107
-13 20 -37 48 -55 61 -17 13 -42 33 -56 44 -24 19 -49 89 -38 107 8 13 72 9
111 -7 19 -8 58 -15 85 -15 l49 0 50 47 c49 46 99 126 99 158 0 8 -24 64 -54
123 -52 104 -81 140 -139 175 -15 10 -38 35 -52 57 -23 36 -104 90 -136 90 -6
0 -40 14 -76 30 -86 40 -142 40 -203 0 -50 -33 -112 -46 -151 -32 -38 15 -133
105 -172 165 -20 29 -56 66 -80 81 -25 16 -56 47 -71 70 -14 22 -82 96 -150
164 -115 115 -137 144 -164 214 -6 14 -33 41 -59 58 -27 18 -60 48 -73 69 -13
20 -44 56 -69 81 -26 25 -59 66 -76 90 -16 25 -48 68 -70 97 -22 28 -60 79
-85 112 -25 34 -69 89 -98 123 -29 33 -55 73 -58 87 -4 14 -22 51 -41 81 -62
98 -113 189 -113 200 0 6 -16 42 -36 81 -56 112 -84 205 -84 279 0 74 24 138
61 164 l23 16 279 0 278 0 36 -15 c19 -8 45 -15 57 -15 35 0 225 -69 264 -95
l37 -25 75 0 c79 0 91 -5 158 -62 18 -15 40 -28 49 -28 37 0 221 -99 276 -149
31 -29 72 -57 92 -62 19 -5 43 -22 52 -36 10 -15 37 -46 59 -70 l41 -43 55 0
c80 0 96 26 59 98 -27 52 -182 200 -268 256 -40 26 -91 63 -114 82 -22 19 -48
34 -56 34 -8 0 -44 14 -80 30 -35 17 -70 30 -76 30 -7 0 -25 9 -42 21 -62 42
-126 69 -163 69 -21 0 -76 13 -122 30 -47 16 -96 30 -110 30 -14 0 -45 14 -70
30 l-45 30 -92 0 c-50 0 -95 5 -98 10 -4 6 -112 10 -293 10 l-287 -1 -20 -15z
m1813 -2532 c29 -11 65 -30 80 -44 15 -13 46 -39 69 -57 55 -42 102 -101 109
-140 l6 -30 -26 -12 -26 -12 -37 27 c-147 103 -197 146 -255 219 l-30 37 12
15 c16 20 35 19 98 -3z"/>
</g>
</svg>
