<?xml version="1.0" standalone="no"?>
<!DOCTYPE svg PUBLIC "-//W3C//DTD SVG 20010904//EN"
 "http://www.w3.org/TR/2001/REC-SVG-20010904/DTD/svg10.dtd">
<svg version="1.0" xmlns="http://www.w3.org/2000/svg"
 width="765.000000pt" height="147.000000pt" viewBox="0 0 765.000000 147.000000"
 preserveAspectRatio="xMidYMid meet">
<metadata>
Created by potrace 1.16, written by Peter Selinger 2001-2019
</metadata>
<g transform="translate(0.000000,147.000000) scale(0.100000,-0.100000)"
fill="#000000" stroke="none">
<path d="M380 1434 l0 -36 67 -69 c40 -42 79 -72 98 -78 36 -10 162 -90 190
-121 10 -11 34 -24 54 -30 20 -5 58 -28 85 -50 26 -22 56 -40 65 -40 9 0 36
-14 61 -30 25 -17 58 -30 75 -30 20 0 59 -19 114 -55 46 -31 115 -72 154 -91
40 -20 92 -53 117 -74 47 -39 120 -80 142 -80 8 0 54 -27 103 -60 50 -33 97
-60 105 -60 8 0 44 -14 78 -30 35 -17 76 -30 90 -30 15 0 56 -14 90 -30 35
-17 75 -30 88 -30 14 0 41 -7 61 -15 19 -8 54 -15 77 -15 25 0 66 -12 104 -30
l64 -30 81 0 c45 0 102 -6 127 -14 93 -29 137 -38 190 -40 34 -1 64 -8 80 -18
19 -14 45 -18 120 -18 l95 0 30 20 c17 11 47 20 67 20 23 0 51 10 74 25 20 14
43 25 51 25 24 0 107 47 135 77 14 15 36 57 48 92 l21 64 -2 120 -2 120 41 38
41 39 75 -6 74 -7 34 19 33 20 131 -1 c83 -1 142 -6 162 -14 19 -8 46 -11 69
-7 21 4 71 9 112 13 l75 5 50 -25 c60 -30 124 -47 186 -52 99 -7 253 -35 285
-52 11 -6 32 -9 46 -6 16 3 39 -3 60 -16 19 -12 42 -21 52 -21 9 0 42 -14 72
-31 37 -21 61 -28 76 -24 12 4 55 -2 98 -14 42 -11 97 -23 123 -26 30 -4 61
-17 88 -38 69 -52 113 -77 140 -77 14 0 39 -9 55 -20 17 -11 44 -20 60 -20 37
0 62 -16 142 -92 37 -35 70 -58 83 -58 13 0 37 -16 57 -36 l34 -36 42 6 c23 4
49 14 59 23 l18 16 0 115 0 114 -45 44 c-47 47 -50 70 -11 80 30 7 345 -2 426
-13 66 -9 99 -23 166 -68 25 -17 44 -23 60 -19 27 7 72 -9 121 -42 17 -11 54
-24 82 -27 68 -8 164 -52 229 -105 30 -24 75 -50 102 -58 27 -8 70 -31 97 -52
70 -55 68 -55 123 -27 l51 26 -3 46 -3 47 -84 68 c-46 37 -90 68 -98 68 -13 0
-91 43 -195 108 -29 17 -61 32 -73 32 -11 0 -33 9 -50 20 -18 12 -47 20 -73
20 -25 0 -67 11 -98 25 -30 14 -63 25 -74 25 -11 0 -48 16 -83 35 -35 19 -76
35 -91 35 -14 0 -43 7 -63 15 -22 9 -67 15 -120 15 -52 0 -97 6 -120 15 -45
19 -111 19 -156 0 -20 -8 -63 -15 -95 -15 l-59 0 -44 -31 c-24 -17 -62 -51
-85 -75 l-41 -44 -59 0 c-45 1 -69 7 -99 25 -22 14 -49 25 -61 25 -11 0 -54
22 -95 50 l-74 50 -91 0 -91 0 -37 25 c-26 18 -50 25 -84 25 -35 0 -58 8 -91
30 -24 17 -53 30 -64 30 -11 0 -35 9 -54 21 -24 15 -43 19 -66 15 -18 -3 -75
-1 -127 4 -180 19 -233 31 -312 71 -47 24 -165 26 -224 3 l-42 -16 -28 16
c-16 9 -37 22 -46 28 -13 10 -27 10 -63 0 l-46 -12 -42 25 -43 24 -39 -24 -40
-24 -82 -1 c-45 0 -94 5 -109 10 l-27 10 -35 -21 c-23 -13 -46 -19 -63 -15
-20 4 -38 -4 -79 -35 -28 -21 -60 -39 -70 -39 -24 0 -40 -22 -61 -83 -15 -41
-18 -85 -19 -212 0 -164 -5 -185 -39 -185 -9 0 -36 -14 -61 -30 l-45 -30 -158
0 -158 0 -43 25 -43 25 -30 -11 c-24 -8 -39 -7 -68 5 -21 9 -66 16 -102 16
-35 0 -73 5 -84 10 l-19 11 0 85 c0 86 -19 165 -60 243 -21 41 -297 313 -385
380 -32 23 -70 47 -86 51 -16 5 -42 18 -59 30 -16 11 -51 27 -77 35 -26 8 -70
30 -97 50 l-50 35 -158 0 -159 0 -50 -47 c-63 -59 -99 -127 -99 -187 0 -47
-16 -66 -57 -66 -22 0 -136 56 -213 106 -30 19 -73 39 -95 45 -47 13 -128 53
-170 84 -48 36 -106 62 -154 68 -24 3 -57 15 -72 26 -18 13 -43 21 -69 21
l-40 0 0 -36z m1286 -205 c35 -12 80 -36 101 -54 21 -18 74 -51 119 -73 45
-22 105 -62 135 -89 30 -27 71 -60 91 -73 20 -14 49 -44 64 -68 15 -24 46 -55
68 -70 47 -32 91 -110 81 -142 -4 -11 -17 -28 -30 -36 l-24 -16 -90 31 c-49
17 -98 31 -108 31 -31 0 -125 37 -183 72 -60 35 -127 66 -201 92 -26 9 -73 40
-105 69 -33 29 -76 64 -96 77 -21 14 -45 39 -54 55 l-16 31 16 38 c9 21 16 52
16 68 0 17 10 39 25 53 l24 25 52 0 c29 0 81 -10 115 -21z"/>
<path d="M195 1190 c-11 -5 -40 -9 -64 -9 -29 -1 -57 -10 -87 -28 l-43 -28 -1
-88 c0 -71 4 -94 19 -115 26 -39 91 -176 91 -195 0 -9 24 -44 54 -77 30 -33
60 -79 68 -102 9 -30 25 -50 57 -73 25 -17 55 -51 69 -75 39 -74 93 -152 144
-208 27 -30 52 -70 58 -92 7 -26 23 -49 49 -69 l39 -31 59 0 60 0 21 23 c36
38 26 70 -55 177 -22 28 -33 54 -33 76 l0 32 -42 34 c-55 42 -65 55 -77 96 -5
19 -21 48 -34 65 -13 18 -34 52 -47 77 -12 25 -32 56 -45 70 -13 14 -57 76
-99 139 -87 129 -92 154 -35 159 l37 3 22 -31 c12 -17 40 -43 63 -57 22 -14
61 -45 86 -68 85 -78 144 -95 180 -49 27 35 28 111 2 162 -30 57 -138 135
-301 217 -147 74 -175 82 -215 65z"/>
</g>
</svg>
