<?xml version="1.0" standalone="no"?>
<!DOCTYPE svg PUBLIC "-//W3C//DTD SVG 20010904//EN"
 "http://www.w3.org/TR/2001/REC-SVG-20010904/DTD/svg10.dtd">
<svg version="1.0" xmlns="http://www.w3.org/2000/svg"
 width="300.000000pt" height="399.000000pt" viewBox="0 0 300.000000 399.000000"
 preserveAspectRatio="xMidYMid meet">
<metadata>
Created by potrace 1.16, written by Peter Selinger 2001-2019
</metadata>
<g transform="translate(0.000000,399.000000) scale(0.100000,-0.100000)"
fill="#000000" stroke="none">
<path d="M230 3964 c-14 -13 -57 -53 -96 -89 -50 -46 -77 -81 -93 -117 -13
-29 -27 -61 -32 -70 -16 -31 -11 -184 6 -198 8 -7 15 -23 15 -36 0 -13 11 -48
25 -78 14 -30 25 -66 25 -81 0 -35 32 -96 85 -161 27 -32 51 -76 60 -108 9
-29 24 -61 35 -71 10 -9 45 -56 77 -104 31 -47 85 -116 120 -154 34 -37 76
-94 93 -126 20 -41 43 -68 72 -88 30 -20 47 -40 56 -68 9 -28 45 -73 116 -145
56 -58 124 -139 151 -180 27 -41 74 -102 105 -135 31 -33 68 -78 82 -100 14
-22 87 -100 162 -173 75 -73 136 -139 136 -147 0 -8 28 -35 63 -61 34 -26 86
-74 115 -106 30 -32 78 -74 107 -93 80 -53 135 -138 122 -187 -4 -14 3 -38 19
-65 14 -24 28 -67 31 -95 5 -41 14 -60 43 -92 21 -23 50 -59 66 -82 78 -110
106 -145 199 -242 62 -64 132 -125 184 -160 46 -30 98 -67 115 -82 43 -37 75
-52 199 -94 121 -41 224 -48 277 -21 l30 16 0 37 0 38 -56 47 -56 47 -62 0
-61 0 -45 30 c-26 17 -58 30 -76 30 -34 0 -88 35 -143 93 -19 20 -53 48 -76
62 -23 15 -56 49 -74 76 -17 27 -42 56 -55 64 -28 19 -85 96 -108 149 -31 67
-24 70 68 26 115 -54 176 -70 273 -70 l89 0 30 38 c52 66 53 73 28 117 -13 22
-26 51 -29 65 -4 14 -55 73 -114 132 l-108 107 -92 45 c-51 25 -121 55 -157
67 l-65 22 -41 -17 c-63 -25 -111 -21 -156 14 -21 16 -60 44 -85 61 -25 18
-60 53 -77 78 -16 26 -50 60 -75 75 -41 26 -53 43 -87 116 -4 8 -29 27 -56 42
-55 30 -84 61 -84 89 0 10 -22 35 -53 58 -29 22 -63 55 -76 73 -13 18 -44 53
-68 78 -71 72 -168 183 -188 215 -10 17 -35 48 -56 70 -20 22 -50 58 -66 81
-62 90 -101 139 -159 203 -33 37 -69 80 -79 96 -11 17 -31 44 -45 60 -14 17
-48 64 -75 105 -27 41 -77 105 -112 142 -34 38 -66 80 -69 95 -10 43 -44 104
-79 146 -32 37 -75 143 -75 184 0 11 -14 51 -31 87 l-31 67 16 42 c9 24 16 53
16 66 0 29 26 73 54 92 18 12 215 28 356 29 97 1 319 -18 337 -28 12 -6 34
-12 50 -12 15 0 46 -11 67 -25 26 -16 48 -22 66 -19 17 4 39 -2 61 -15 19 -12
42 -21 52 -21 10 0 31 -6 46 -14 15 -8 63 -18 107 -22 62 -5 89 -12 125 -35
25 -16 59 -29 75 -29 31 0 56 -14 112 -62 22 -18 44 -28 66 -28 35 0 89 -34
141 -89 56 -61 203 -151 245 -151 34 0 70 44 70 85 l0 36 -58 61 c-31 33 -79
71 -107 85 -27 14 -70 42 -94 61 -87 71 -156 112 -186 112 -17 0 -50 14 -75
30 -25 16 -51 30 -58 30 -8 0 -43 14 -79 30 l-64 30 -70 0 -70 0 -66 40 c-48
29 -78 40 -106 40 -23 0 -54 9 -73 21 l-33 20 -46 -6 -45 -7 -6 16 -6 16 -377
-1 -376 -1 -25 -24z"/>
<path d="M954 825 l-25 -25 12 -22 c26 -51 70 -96 97 -101 17 -3 61 -35 101
-71 51 -48 79 -66 99 -66 39 -1 110 -35 162 -79 47 -40 120 -81 142 -81 20 0
147 -87 200 -136 26 -24 57 -44 68 -44 13 0 41 -20 69 -49 26 -27 73 -65 105
-85 31 -21 60 -44 63 -52 10 -26 58 -16 97 20 39 38 43 53 22 94 -16 31 -87
100 -128 125 -15 10 -60 46 -101 81 -43 37 -86 66 -106 71 -21 4 -51 25 -80
55 -42 44 -115 90 -141 90 -27 0 -149 65 -199 106 -29 24 -61 44 -70 44 -9 0
-34 12 -56 25 -22 14 -49 25 -61 25 -11 0 -47 23 -78 50 l-57 50 -55 0 -55 0
-25 -25z"/>
</g>
</svg>
