<?xml version="1.0" standalone="no"?>
<!DOCTYPE svg PUBLIC "-//W3C//DTD SVG 20010904//EN"
 "http://www.w3.org/TR/2001/REC-SVG-20010904/DTD/svg10.dtd">
<svg version="1.0" xmlns="http://www.w3.org/2000/svg"
 width="381.000000pt" height="315.000000pt" viewBox="0 0 381.000000 315.000000"
 preserveAspectRatio="xMidYMid meet">
<metadata>
Created by potrace 1.16, written by Peter Selinger 2001-2019
</metadata>
<g transform="translate(0.000000,315.000000) scale(0.100000,-0.100000)"
fill="#000000" stroke="none">
<path d="M440 3130 c-14 -11 -38 -22 -54 -26 -16 -3 -56 -19 -90 -35 -34 -16
-69 -29 -78 -29 -38 0 -83 -55 -197 -238 l-21 -33 0 -104 c0 -58 4 -107 10
-110 6 -3 10 -33 10 -66 0 -60 17 -108 61 -171 11 -15 31 -62 45 -105 14 -43
36 -91 48 -108 13 -16 35 -52 49 -80 45 -86 129 -200 219 -298 48 -52 101
-115 118 -140 17 -25 45 -57 61 -69 17 -13 44 -36 61 -53 73 -74 277 -277 313
-313 46 -45 136 -119 180 -146 17 -11 57 -45 90 -77 33 -31 84 -69 113 -84 29
-15 65 -43 79 -61 14 -19 56 -50 94 -70 37 -20 80 -51 94 -70 14 -19 45 -44
68 -55 57 -29 200 -125 222 -149 10 -11 35 -25 55 -30 20 -5 55 -26 77 -45 23
-19 90 -60 150 -91 59 -30 133 -71 163 -90 30 -19 66 -37 80 -40 38 -9 150
-64 194 -96 24 -17 52 -28 72 -28 18 0 36 -4 39 -10 3 -5 46 -10 96 -10 l89 0
0 34 c0 41 -20 59 -111 99 -67 30 -72 33 -204 104 -44 23 -86 43 -93 43 -28 0
-149 63 -192 99 -25 21 -64 48 -86 59 -23 12 -77 46 -121 75 -43 30 -102 66
-130 80 -27 14 -74 48 -104 75 -30 26 -88 70 -129 97 -41 27 -95 68 -120 90
-25 23 -58 49 -75 60 -16 10 -57 44 -90 75 -33 31 -79 67 -101 80 -23 12 -58
42 -79 67 -20 24 -55 56 -78 70 -23 14 -76 58 -117 97 -41 40 -94 85 -117 100
-23 16 -60 52 -82 81 -22 29 -66 75 -97 102 -34 29 -67 69 -84 103 -28 55 -62
92 -113 124 -15 9 -32 27 -36 39 -33 84 -49 112 -83 138 -24 19 -41 44 -48 67
-14 51 -60 128 -109 184 -22 25 -41 56 -41 67 0 28 -31 120 -64 191 l-26 55 0
116 0 116 31 61 c35 71 59 90 150 120 l65 22 285 0 c217 0 295 -3 329 -14 60
-19 125 -35 182 -46 26 -5 56 -13 67 -19 11 -6 30 -11 43 -11 39 0 221 -67
236 -86 7 -11 27 -45 44 -78 40 -79 99 -164 143 -206 20 -19 52 -56 71 -82 19
-26 66 -68 104 -93 39 -26 88 -62 111 -81 22 -19 48 -34 56 -34 8 0 44 -13 80
-30 50 -23 78 -30 128 -30 l63 0 61 45 61 45 0 71 0 71 -49 48 c-27 27 -59 65
-70 87 -41 79 -215 217 -391 309 -40 21 -75 45 -78 53 -3 8 5 22 17 33 29 23
145 25 198 3 20 -8 66 -15 105 -15 38 0 84 -7 105 -15 19 -8 53 -15 75 -15 21
0 55 -7 75 -15 19 -8 53 -15 75 -15 21 0 55 -7 75 -15 19 -8 53 -15 75 -15 21
0 55 -7 75 -15 19 -8 45 -15 57 -15 25 0 120 -32 184 -61 23 -11 77 -30 118
-44 41 -14 87 -33 102 -44 15 -10 85 -49 156 -85 l130 -66 44 -50 c24 -28 62
-60 83 -71 l39 -20 40 12 40 12 0 45 0 45 -116 114 c-63 62 -123 113 -132 113
-9 0 -59 20 -110 45 -52 25 -99 45 -106 45 -6 0 -28 11 -47 24 -20 14 -112 50
-205 81 -93 30 -193 67 -222 80 -36 17 -70 25 -108 25 -30 0 -71 7 -91 15 -20
8 -66 15 -105 15 -38 0 -84 7 -105 15 -22 9 -67 15 -119 15 -52 0 -98 6 -123
16 -30 12 -66 14 -162 11 -127 -4 -149 -8 -304 -58 -103 -33 -140 -36 -192
-14 -19 8 -58 15 -86 15 -34 0 -95 15 -184 45 l-132 45 -70 0 c-38 0 -73 5
-76 10 -4 6 -107 10 -278 10 l-272 0 -25 -20z m1600 -490 c21 -11 45 -28 52
-38 7 -10 34 -30 60 -45 31 -18 57 -44 75 -75 15 -26 38 -55 50 -65 27 -21 31
-57 7 -57 -9 0 -34 16 -55 35 -21 19 -50 37 -65 41 -19 5 -204 177 -204 190 0
5 31 34 36 34 3 0 22 -9 44 -20z"/>
</g>
</svg>
