<?xml version="1.0" standalone="no"?>
<!DOCTYPE svg PUBLIC "-//W3C//DTD SVG 20010904//EN"
 "http://www.w3.org/TR/2001/REC-SVG-20010904/DTD/svg10.dtd">
<svg version="1.0" xmlns="http://www.w3.org/2000/svg"
 width="411.000000pt" height="168.000000pt" viewBox="0 0 411.000000 168.000000"
 preserveAspectRatio="xMidYMid meet">
<metadata>
Created by potrace 1.16, written by Peter Selinger 2001-2019
</metadata>
<g transform="translate(0.000000,168.000000) scale(0.100000,-0.100000)"
fill="#000000" stroke="none">
<path d="M2195 1670 c-3 -5 -24 -10 -46 -10 -49 0 -153 -34 -193 -63 -44 -31
-72 -45 -117 -57 -22 -6 -46 -22 -56 -36 -41 -59 -76 -94 -94 -94 -11 0 -68
15 -127 34 -123 39 -178 54 -244 66 -26 5 -56 13 -67 19 -11 6 -52 11 -91 11
-40 0 -86 6 -107 15 -19 8 -53 15 -75 15 -21 0 -55 7 -75 15 -51 21 -345 21
-396 0 -20 -8 -52 -15 -72 -15 -50 0 -151 -36 -204 -73 -74 -51 -161 -139
-187 -189 -17 -35 -24 -64 -24 -107 0 -33 -4 -63 -10 -66 -17 -10 -11 -64 10
-93 11 -15 24 -50 28 -78 5 -27 20 -67 35 -89 15 -22 27 -45 27 -53 0 -31 82
-172 115 -197 19 -15 35 -34 35 -42 0 -23 30 -76 65 -113 18 -19 61 -78 96
-130 35 -52 82 -116 105 -141 23 -25 53 -64 67 -86 14 -22 46 -57 70 -77 l44
-36 72 0 71 0 0 15 c0 28 -41 99 -85 145 -23 25 -50 59 -60 75 -10 17 -29 41
-41 55 -44 50 -177 257 -221 345 -25 50 -62 109 -82 131 -35 40 -81 155 -81
202 0 11 -13 49 -30 84 -36 75 -39 138 -11 218 24 68 52 89 181 135 42 15 181
36 240 36 59 0 197 -18 217 -29 12 -7 47 -12 78 -12 30 0 72 -7 92 -15 19 -8
60 -15 90 -15 29 0 70 -7 90 -15 19 -8 61 -15 92 -15 l56 0 93 -45 c52 -25 99
-45 105 -45 6 0 39 -14 75 -31 50 -25 70 -42 93 -78 43 -70 129 -179 174 -220
70 -64 254 -181 285 -181 7 0 41 -14 77 -30 l64 -30 80 0 81 0 29 29 29 29 0
73 0 72 -87 89 c-49 50 -105 101 -126 114 -20 14 -62 47 -92 74 -30 28 -63 50
-72 50 -9 0 -63 23 -120 51 -106 51 -140 82 -128 117 9 30 54 71 101 93 l43
19 291 0 291 0 36 -15 c19 -8 60 -15 90 -15 29 0 70 -7 90 -15 19 -8 45 -15
56 -15 12 0 81 -20 154 -45 73 -25 147 -45 165 -45 46 0 132 -31 263 -94 61
-29 125 -57 142 -60 17 -4 51 -24 75 -45 24 -21 62 -48 85 -59 23 -12 75 -53
117 -92 l76 -70 50 0 50 0 0 84 0 85 -18 5 c-10 4 -28 20 -40 36 -13 17 -44
41 -71 54 -27 14 -84 49 -127 79 -83 57 -155 97 -174 97 -7 0 -41 14 -77 30
-35 17 -70 30 -76 30 -7 0 -25 9 -42 21 -62 42 -126 69 -162 69 -21 0 -58 6
-83 14 -77 24 -133 37 -190 45 -30 4 -71 12 -90 18 -50 16 -118 33 -172 43
-26 5 -56 13 -67 19 -11 6 -60 11 -110 11 -49 0 -93 5 -96 10 -4 6 -68 10
-160 10 -92 0 -156 -4 -160 -10z"/>
</g>
</svg>
