<?xml version="1.0" encoding="UTF-8" standalone="no"?>
<!-- Created with Inkscape (http://www.inkscape.org/) -->

<svg
   version="1.1"
   id="svg1"
   width="395.93265"
   height="57.697868"
   viewBox="0 0 395.93265 57.697868"
   xmlns="http://www.w3.org/2000/svg"
   xmlns:svg="http://www.w3.org/2000/svg">
  <defs
     id="defs1" />
  <g
     id="g1"
     transform="translate(-0.93452077,0.79745311)">
    <path
       style="fill:#000000"
       d="M 384.47791,55.964255 C 383.07716,53.697794 369.98399,46.27365 360.51702,42.377848 355.00766,40.110665 344.875,35.891269 338,33.001413 331.125,30.111557 320.1,26.291601 313.5,24.512621 306.9,22.733642 297.675,20.127145 293,18.720406 284.74974,16.237846 275.94337,14.349603 261.5,11.966239 221.57667,5.3783143 202.42265,19.716294 229.39344,36 c 7.60382,4.590831 8.26972,5.946838 5.38918,10.974358 C 231.35876,52.95016 221,57.058772 221,52.440983 c 0,-0.792541 -0.3375,-1.444982 -0.75,-1.449869 -0.4125,-0.0049 -3.32467,-2.21285 -6.47149,-4.906584 C 193.50508,28.730127 149.68623,25.55744 122.10531,39.446968 88.372944,56.434314 36.79443,48.975828 3.8766598,22.350571 0.2533195,19.419863 0.2533195,19.419863 2.3766598,15.710921 6.106735,9.1954179 11.784204,7.8775075 17.19264,12.27169 46.506725,36.088453 100.20866,45.192822 125.27361,30.595221 144.14368,19.605466 169.8261,16.305303 192,22.02095 c 14.37681,3.705834 12.98669,3.890921 16.39841,-2.183353 C 218.15973,2.4583747 241.59783,-4.3383684 273.5,0.95898891 288.10011,3.383339 296.77429,5.2452357 305,7.7204058 c 4.675,1.4067389 13.9,4.0132362 20.5,5.7922152 6.6,1.77898 17.625,5.598936 24.5,8.488792 6.875,2.889856 17.01567,7.109252 22.53482,9.376435 9.81908,4.033525 18.76551,9.026464 23.16945,12.930695 3.05348,2.707018 -0.24236,8.872358 -5.97451,11.176164 -4.47984,1.800491 -4.43783,1.796655 -5.25185,0.479548 z"
       id="path1" />
  </g>
</svg>
