<?xml version="1.0" standalone="no"?>
<!DOCTYPE svg PUBLIC "-//W3C//DTD SVG 20010904//EN"
 "http://www.w3.org/TR/2001/REC-SVG-20010904/DTD/svg10.dtd">
<svg version="1.0" xmlns="http://www.w3.org/2000/svg"
 width="234.000000pt" height="180.000000pt" viewBox="0 0 234.000000 180.000000"
 preserveAspectRatio="xMidYMid meet">
<metadata>
Created by potrace 1.16, written by Peter Selinger 2001-2019
</metadata>
<g transform="translate(0.000000,180.000000) scale(0.100000,-0.100000)"
fill="#000000" stroke="none">
<path d="M455 1790 c-3 -5 -32 -10 -64 -10 -32 0 -74 -6 -93 -14 -21 -9 -50
-12 -75 -9 -25 3 -43 1 -47 -6 -10 -16 -37 -14 -57 5 -25 23 -49 11 -49 -24 0
-38 -23 -93 -49 -116 l-21 -19 0 -68 0 -68 19 -11 c11 -5 55 -22 99 -36 49
-15 95 -38 118 -58 22 -18 55 -41 74 -51 80 -40 173 -109 196 -146 13 -21 36
-45 52 -53 39 -20 77 -61 107 -113 23 -41 32 -73 21 -73 -2 0 -26 9 -52 20
-96 41 -255 90 -294 90 -47 0 -131 -39 -154 -72 -46 -65 5 -223 115 -354 14
-17 51 -70 83 -118 31 -47 68 -93 82 -102 14 -9 37 -38 51 -63 15 -25 49 -70
75 -100 27 -29 58 -72 70 -95 11 -22 41 -60 66 -83 l45 -43 69 0 68 0 0 63 0
62 -38 55 c-20 30 -64 88 -97 129 -33 40 -63 78 -66 85 -3 6 -15 29 -25 51
-10 22 -44 64 -75 95 -31 30 -67 75 -79 100 -12 25 -33 59 -46 77 -27 36 -32
73 -9 73 24 0 207 -124 296 -201 82 -71 112 -85 152 -75 34 8 77 44 77 64 0 9
11 41 25 70 l25 53 -11 47 c-15 61 -78 261 -90 284 -7 13 -6 30 3 54 l13 36
-20 14 c-10 8 -38 14 -60 14 -28 0 -47 6 -58 18 -9 10 -49 43 -88 73 -39 30
-94 72 -123 94 -96 75 -147 107 -183 117 -37 10 -123 89 -123 114 0 16 17 26
95 53 44 16 84 21 156 21 65 0 109 5 134 16 l38 16 41 -16 c23 -9 70 -16 105
-16 35 0 81 -5 102 -12 30 -8 48 -8 79 1 l39 12 37 -16 c21 -8 66 -15 106 -15
38 0 84 -7 105 -15 19 -8 53 -15 75 -15 21 0 55 -7 75 -15 20 -8 66 -15 105
-15 l70 0 65 -30 c35 -16 69 -30 75 -30 22 0 195 -89 263 -135 39 -26 91 -67
117 -91 51 -47 72 -53 118 -29 l30 16 0 55 0 55 -27 35 c-14 19 -38 41 -53 49
-15 8 -52 37 -82 64 l-55 51 -83 26 c-45 15 -114 42 -152 61 -65 31 -122 51
-238 83 -25 7 -99 15 -165 19 -66 4 -130 12 -142 19 -12 6 -55 12 -97 12 -41
0 -78 5 -81 10 -4 6 -133 10 -355 10 -222 0 -351 -4 -355 -10z"/>
</g>
</svg>
