<?xml version="1.0" standalone="no"?>
<!DOCTYPE svg PUBLIC "-//W3C//DTD SVG 20010904//EN"
 "http://www.w3.org/TR/2001/REC-SVG-20010904/DTD/svg10.dtd">
<svg version="1.0" xmlns="http://www.w3.org/2000/svg"
 width="423.000000pt" height="222.000000pt" viewBox="0 0 423.000000 222.000000"
 preserveAspectRatio="xMidYMid meet">
<metadata>
Created by potrace 1.16, written by Peter Selinger 2001-2019
</metadata>
<g transform="translate(0.000000,222.000000) scale(0.100000,-0.100000)"
fill="#000000" stroke="none">
<path d="M7 2213 c-4 -3 -7 -60 -7 -126 0 -93 3 -124 15 -137 8 -9 35 -79 60
-154 35 -107 54 -149 84 -185 21 -25 59 -86 85 -136 25 -49 65 -112 89 -140
24 -27 47 -62 50 -76 4 -15 25 -42 47 -60 80 -66 197 -192 249 -269 29 -43 47
-58 81 -70 32 -11 52 -27 72 -57 34 -51 83 -93 108 -93 10 0 30 -16 44 -35 15
-19 49 -46 75 -60 56 -28 175 -107 211 -140 28 -26 92 -59 130 -68 14 -4 43
-22 65 -40 51 -44 85 -61 182 -92 43 -14 102 -37 131 -50 29 -14 57 -25 63
-25 6 0 35 -11 65 -25 84 -38 170 -65 209 -65 20 0 52 -7 72 -15 19 -8 53 -15
75 -15 21 0 55 -7 75 -15 19 -8 53 -15 75 -15 21 0 55 -7 75 -15 25 -10 71
-15 154 -15 68 0 120 -4 124 -10 8 -13 72 -13 80 0 3 6 26 10 51 10 98 0 294
135 294 203 0 31 -29 57 -64 57 -31 0 -123 -30 -200 -65 l-55 -25 -126 0 c-89
0 -136 4 -162 15 -19 8 -59 15 -87 15 -28 0 -71 6 -96 14 -60 19 -125 35 -182
46 -26 5 -56 13 -67 19 -11 6 -32 11 -46 11 -14 0 -52 12 -82 26 -31 14 -91
36 -132 50 -42 13 -100 36 -129 49 -29 14 -65 25 -81 25 -17 0 -37 10 -52 26
-13 14 -41 35 -63 46 -21 11 -57 33 -79 49 -22 16 -48 29 -57 29 -18 0 -87 46
-135 90 -16 15 -45 31 -64 35 -21 4 -51 25 -80 54 -25 26 -67 60 -92 74 -25
14 -53 37 -62 51 -9 14 -41 41 -71 60 -80 54 -270 251 -336 349 -31 47 -79
110 -105 139 -46 51 -84 117 -85 147 0 7 -16 31 -36 53 -35 39 -84 130 -84
156 0 7 -23 58 -51 114 -54 107 -99 228 -99 266 l0 22 -58 0 c-32 0 -62 -3
-65 -7z"/>
<path d="M2515 1645 c-19 -9 -68 -14 -131 -15 -67 0 -114 -5 -137 -15 -20 -8
-48 -15 -62 -15 -41 0 -94 -33 -172 -107 -99 -92 -98 -99 16 -214 48 -49 96
-89 105 -89 31 0 138 -55 231 -119 49 -33 97 -61 107 -61 22 0 58 -51 65 -94
8 -52 -21 -103 -84 -143 -40 -25 -53 -40 -53 -58 0 -24 41 -65 67 -65 18 0
130 38 164 55 30 16 85 87 118 152 29 58 29 133 0 159 -12 10 -37 43 -56 72
-27 41 -47 58 -96 83 -34 17 -105 60 -157 94 -52 35 -110 66 -127 70 -40 8
-93 56 -93 84 0 11 9 25 19 31 13 6 166 10 431 10 l411 0 36 -15 c19 -8 58
-15 86 -15 29 0 91 -13 142 -29 103 -33 160 -49 227 -61 26 -5 56 -13 67 -19
11 -6 33 -11 50 -11 19 0 45 -12 73 -35 43 -35 188 -115 208 -115 6 0 43 -34
83 -75 l72 -75 53 0 52 0 0 73 0 73 -52 51 c-86 83 -176 150 -212 157 -19 4
-53 24 -77 45 -54 46 -100 71 -134 71 -14 0 -42 7 -62 15 -19 8 -52 15 -72 15
-20 0 -56 6 -81 14 -78 25 -133 37 -195 45 -34 5 -70 13 -82 19 -12 7 -54 12
-93 12 -40 0 -86 6 -107 15 -24 10 -71 15 -150 15 -78 0 -125 5 -150 15 -46
19 -206 19 -248 0z"/>
</g>
</svg>
