<?xml version="1.0" standalone="no"?>
<!DOCTYPE svg PUBLIC "-//W3C//DTD SVG 20010904//EN"
 "http://www.w3.org/TR/2001/REC-SVG-20010904/DTD/svg10.dtd">
<svg version="1.0" xmlns="http://www.w3.org/2000/svg"
 width="726.000000pt" height="297.000000pt" viewBox="0 0 726.000000 297.000000"
 preserveAspectRatio="xMidYMid meet">
<metadata>
Created by potrace 1.16, written by Peter Selinger 2001-2019
</metadata>
<g transform="translate(0.000000,297.000000) scale(0.100000,-0.100000)"
fill="#000000" stroke="none">
<path d="M7 2963 c-18 -17 -6 -70 21 -95 61 -58 194 -139 267 -163 43 -14 108
-46 151 -75 44 -29 108 -61 152 -76 97 -31 170 -65 223 -104 23 -16 49 -30 56
-30 21 0 82 -30 127 -62 21 -15 45 -28 53 -28 8 0 44 -13 80 -30 35 -16 69
-30 75 -30 16 0 80 -32 113 -56 35 -26 229 -124 246 -124 18 0 81 -32 123 -62
21 -15 45 -28 53 -28 22 0 139 -56 176 -84 36 -27 171 -96 188 -96 41 0 225
-113 268 -164 9 -11 30 -16 60 -16 l48 0 24 -26 c13 -14 44 -36 69 -49 25 -13
67 -42 94 -64 26 -23 55 -41 64 -41 8 0 44 -14 78 -31 l63 -30 43 -61 c24 -34
64 -83 90 -109 26 -26 60 -74 77 -107 17 -33 44 -70 61 -82 17 -12 42 -40 56
-61 13 -22 42 -48 66 -60 23 -12 67 -48 97 -80 33 -36 66 -62 86 -68 18 -5 91
-48 162 -95 71 -47 136 -86 144 -86 15 0 70 -28 143 -73 50 -32 169 -76 201
-77 12 0 59 -13 105 -30 47 -16 96 -30 108 -30 13 0 53 -14 89 -30 l64 -30 70
0 c39 0 85 -7 106 -15 22 -9 67 -15 120 -15 52 0 97 -6 120 -15 43 -18 401
-22 450 -4 24 8 44 6 89 -7 70 -20 86 -28 144 -75 25 -20 65 -46 89 -58 24
-13 60 -35 81 -50 20 -14 57 -35 81 -45 24 -10 52 -22 61 -27 10 -5 91 -9 181
-9 l164 0 23 72 22 71 -12 56 c-6 31 -14 66 -16 78 -2 12 -16 30 -30 40 -14
10 -49 37 -79 60 -29 22 -66 48 -82 56 -51 27 -151 57 -187 57 -20 0 -54 7
-76 16 -43 18 -106 15 -178 -7 l-43 -13 -27 15 c-15 8 -39 38 -54 66 -16 28
-44 63 -64 78 -47 36 -74 95 -74 166 0 58 11 79 43 79 10 0 32 13 48 29 l29
29 0 55 c0 61 -19 87 -64 87 -61 0 -210 95 -242 155 -37 68 -38 82 -8 102 41
27 180 45 380 50 l182 4 37 -15 c24 -10 68 -16 122 -16 52 0 97 -6 120 -15 23
-10 69 -15 132 -15 l97 0 84 -30 c47 -16 96 -30 108 -30 13 0 53 -13 89 -30
38 -18 81 -30 105 -30 30 0 76 -17 165 -60 69 -33 136 -60 149 -60 29 0 179
-87 214 -125 l23 -25 49 0 48 0 0 69 0 69 -47 38 c-66 54 -156 114 -171 114
-7 0 -39 12 -69 26 -31 14 -89 36 -130 49 -40 13 -90 36 -110 50 -21 14 -48
25 -60 25 -42 0 -147 27 -248 64 -38 14 -87 26 -108 26 -21 0 -54 7 -74 15
-20 8 -66 15 -105 15 -38 0 -84 7 -105 15 -26 11 -76 15 -195 15 -118 0 -168
4 -195 15 -24 10 -69 15 -138 15 -69 0 -114 -5 -138 -15 -22 -9 -68 -15 -116
-15 -55 0 -101 -7 -145 -21 l-65 -22 -66 -67 c-36 -38 -65 -75 -65 -84 0 -28
39 -135 76 -207 24 -49 45 -76 72 -93 20 -13 48 -35 61 -50 l24 -26 -11 -39
c-17 -53 -15 -142 3 -184 8 -20 15 -49 15 -65 0 -16 13 -47 28 -68 15 -21 42
-62 60 -91 l33 -52 -11 -20 -11 -21 -100 0 c-66 0 -112 5 -136 15 -23 10 -69
15 -135 15 -65 0 -111 5 -135 15 -21 9 -67 15 -117 15 l-81 0 -103 35 c-57 20
-120 47 -140 60 -24 17 -51 25 -77 25 -22 0 -68 9 -100 20 -94 32 -384 179
-424 215 -20 17 -64 47 -99 65 -35 18 -72 46 -83 62 -11 15 -44 44 -73 63 -70
46 -213 196 -222 232 -11 45 -73 164 -114 219 -30 39 -47 53 -73 58 -19 4 -55
24 -80 46 -25 22 -50 40 -57 40 -6 0 -39 13 -73 28 -34 16 -73 32 -87 35 -14
3 -44 22 -66 41 -22 19 -69 49 -104 67 -35 17 -80 47 -100 65 -21 19 -44 34
-51 34 -8 0 -34 14 -59 30 -25 16 -51 30 -59 30 -22 0 -196 86 -242 120 -23
16 -49 30 -57 30 -22 0 -196 85 -243 120 -25 17 -55 30 -72 30 -34 0 -197 75
-258 120 -24 17 -55 30 -72 30 -32 0 -140 50 -225 104 -29 19 -91 46 -139 61
-93 30 -112 39 -158 71 -48 34 -149 82 -222 106 -37 11 -81 33 -98 48 -39 35
-56 44 -151 75 -90 29 -137 50 -176 76 -20 14 -44 19 -100 19 -41 0 -78 -3
-81 -7z m5910 -2710 c22 -33 10 -40 -33 -17 -42 23 -51 34 -34 44 19 12 50 0
67 -27z"/>
</g>
</svg>
