<?xml version="1.0" standalone="no"?>
<!DOCTYPE svg PUBLIC "-//W3C//DTD SVG 20010904//EN"
 "http://www.w3.org/TR/2001/REC-SVG-20010904/DTD/svg10.dtd">
<svg version="1.0" xmlns="http://www.w3.org/2000/svg"
 width="327.000000pt" height="387.000000pt" viewBox="0 0 327.000000 387.000000"
 preserveAspectRatio="xMidYMid meet">
<metadata>
Created by potrace 1.16, written by Peter Selinger 2001-2019
</metadata>
<g transform="translate(0.000000,387.000000) scale(0.100000,-0.100000)"
fill="#000000" stroke="none">
<path d="M1315 3854 c-11 -8 -44 -27 -72 -41 -29 -14 -59 -33 -66 -42 -24 -28
-38 -96 -27 -126 5 -14 10 -39 10 -55 0 -21 15 -46 56 -92 31 -35 67 -84 79
-109 13 -25 40 -58 59 -73 43 -32 44 -45 11 -94 -19 -28 -25 -49 -25 -94 0
-31 -5 -69 -10 -84 l-10 -26 19 -32 c11 -17 47 -83 80 -146 33 -63 69 -128 80
-145 l21 -30 0 -102 0 -101 30 -64 c16 -34 30 -75 30 -89 0 -15 7 -43 15 -62
8 -20 15 -50 15 -66 0 -19 14 -45 40 -77 23 -27 43 -60 47 -74 8 -35 71 -159
98 -195 12 -17 46 -78 75 -135 30 -60 73 -127 101 -157 47 -52 88 -148 71
-165 -11 -11 -180 44 -271 87 -94 45 -301 112 -416 134 -22 4 -95 26 -162 49
-80 28 -140 42 -173 42 -28 0 -67 7 -87 15 -52 22 -464 22 -516 0 -20 -8 -56
-15 -79 -15 -33 0 -56 -9 -99 -38 -31 -20 -70 -44 -86 -53 -26 -14 -54 -51
-130 -174 l-23 -36 0 -100 c0 -55 4 -107 9 -117 4 -9 33 -69 64 -133 l56 -117
43 -29 c27 -18 53 -48 71 -80 15 -29 42 -62 60 -75 18 -12 62 -50 99 -83 36
-33 90 -78 120 -100 49 -37 72 -52 208 -130 29 -16 75 -45 103 -64 27 -18 96
-56 151 -84 56 -28 119 -63 140 -79 21 -15 51 -28 65 -28 31 0 123 -30 199
-66 29 -13 57 -24 63 -24 6 0 40 -14 76 -30 35 -17 77 -30 93 -30 16 0 32 -4
35 -10 4 -6 72 -10 171 -10 l164 0 0 20 c0 12 -17 38 -37 60 l-38 39 -108 36
c-59 19 -117 35 -128 35 -11 0 -50 13 -86 30 -35 16 -77 30 -92 30 -17 0 -38
11 -56 30 -19 20 -39 30 -58 30 -32 0 -140 50 -227 106 -30 19 -72 39 -92 44
-56 16 -155 75 -236 144 -24 20 -52 36 -61 36 -10 0 -28 12 -42 26 -13 14 -55
46 -92 71 -38 25 -79 62 -92 83 -13 20 -38 48 -55 61 -62 46 -90 78 -90 99 0
13 -22 43 -52 74 l-53 53 -38 118 -38 118 31 63 c18 36 44 73 63 86 l32 23
302 3 302 3 37 -16 c20 -8 46 -15 58 -15 27 0 215 -63 284 -95 29 -14 71 -25
93 -25 22 0 56 -7 76 -15 19 -8 47 -15 62 -15 14 0 68 -20 119 -45 52 -25 98
-45 104 -45 5 0 39 -14 75 -30 35 -17 69 -30 75 -30 18 0 138 -59 171 -84 18
-13 69 -43 115 -66 52 -27 93 -56 109 -77 25 -33 88 -73 115 -73 6 0 26 -13
43 -29 16 -16 64 -53 106 -83 89 -62 224 -176 353 -299 50 -48 106 -94 124
-103 l32 -17 55 16 c62 18 115 73 115 120 0 40 -47 93 -112 126 -32 16 -88 57
-125 92 -38 35 -80 71 -95 80 -15 9 -60 46 -100 80 -40 35 -85 67 -100 70 -15
4 -35 19 -45 34 -10 14 -38 46 -63 70 -25 24 -58 56 -75 72 -16 16 -53 58 -82
93 -29 35 -70 85 -93 111 -22 27 -48 63 -57 80 -8 18 -28 46 -42 62 -15 17
-49 64 -76 105 -27 41 -64 93 -82 114 -18 22 -38 56 -43 75 -5 20 -25 61 -44
91 -44 69 -136 249 -136 266 0 7 -13 41 -30 76 -16 34 -30 70 -30 78 0 8 -14
35 -30 60 l-30 45 0 65 c0 36 4 71 9 79 l9 14 44 -18 c128 -53 174 -65 252
-65 l80 0 73 73 73 73 0 38 c0 41 -23 91 -82 178 -30 43 -54 66 -92 85 -28 14
-64 36 -81 48 -16 13 -63 39 -102 59 l-73 36 -74 0 c-57 0 -86 -6 -130 -25
-31 -14 -63 -25 -70 -25 -22 0 -76 68 -76 96 0 39 28 79 77 110 56 35 73 59
73 105 0 43 -13 56 -100 99 -94 47 -122 72 -180 157 -61 91 -71 126 -42 142
34 18 474 15 519 -4 19 -8 53 -15 75 -15 21 0 55 -7 75 -15 19 -8 53 -15 75
-15 21 0 55 -7 75 -15 19 -8 51 -15 71 -15 19 0 142 -36 274 -80 l239 -80 82
-54 c48 -31 104 -59 136 -67 l53 -13 14 19 c16 22 19 98 4 125 -10 19 -192
145 -259 180 -22 11 -51 20 -63 20 -28 0 -123 32 -196 66 -35 16 -70 24 -105
24 -33 0 -85 11 -137 30 -62 21 -104 30 -153 30 -37 0 -84 7 -104 15 -19 8
-62 15 -94 15 -32 0 -61 5 -64 10 -4 6 -107 10 -278 10 l-272 -1 -20 -15z
m563 -1074 l26 -30 51 0 c30 0 60 -6 73 -16 26 -18 56 -84 45 -95 -16 -16
-107 21 -148 60 -22 21 -54 44 -72 51 -44 17 -62 38 -42 51 24 15 40 10 67
-21z"/>
</g>
</svg>
