<?xml version="1.0" standalone="no"?>
<!DOCTYPE svg PUBLIC "-//W3C//DTD SVG 20010904//EN"
 "http://www.w3.org/TR/2001/REC-SVG-20010904/DTD/svg10.dtd">
<svg version="1.0" xmlns="http://www.w3.org/2000/svg"
 width="267.000000pt" height="396.000000pt" viewBox="0 0 267.000000 396.000000"
 preserveAspectRatio="xMidYMid meet">
<metadata>
Created by potrace 1.16, written by Peter Selinger 2001-2019
</metadata>
<g transform="translate(0.000000,396.000000) scale(0.100000,-0.100000)"
fill="#000000" stroke="none">
<path d="M785 3950 c-3 -5 -33 -10 -66 -10 l-61 0 -91 -45 c-125 -62 -127 -65
-127 -142 0 -48 6 -76 24 -111 36 -70 71 -98 161 -126 111 -36 122 -43 188
-109 l58 -58 -6 -29 c-7 -33 -31 -56 -93 -90 -58 -31 -68 -66 -26 -99 l27 -21
70 0 71 0 88 88 88 88 0 72 0 72 -34 38 c-21 23 -72 56 -131 86 -54 27 -114
63 -134 81 -20 18 -48 35 -63 39 -15 3 -35 17 -44 30 -32 50 12 77 136 83 242
12 395 13 423 3 18 -6 93 -14 167 -16 74 -3 155 -12 180 -19 67 -20 129 -35
182 -45 26 -5 56 -13 67 -19 11 -6 38 -11 61 -11 22 0 57 -7 77 -15 19 -8 53
-15 75 -15 45 0 144 -42 209 -89 23 -17 48 -31 56 -31 26 0 99 -38 127 -67 16
-15 44 -59 63 -98 55 -110 72 -121 133 -90 l30 16 0 88 c0 63 -4 92 -14 100
-8 6 -19 25 -26 41 -19 47 -197 180 -241 180 -6 0 -37 16 -69 36 -79 49 -270
113 -338 114 -29 0 -69 7 -89 15 -19 8 -60 15 -90 15 -37 0 -72 8 -109 25 -41
19 -79 27 -155 31 -55 4 -102 11 -105 16 -8 12 -641 10 -649 -2z"/>
<path d="M445 2935 c-16 -8 -42 -14 -56 -15 -15 0 -43 -7 -62 -15 -20 -8 -48
-15 -62 -15 -33 0 -95 -31 -161 -81 -39 -29 -53 -46 -58 -72 -4 -19 -15 -46
-26 -60 l-20 -25 0 -135 c0 -80 4 -138 10 -142 6 -3 10 -24 10 -46 0 -68 67
-237 125 -314 12 -16 30 -46 40 -65 9 -19 32 -51 50 -70 18 -19 62 -78 97
-130 97 -145 138 -198 202 -260 183 -180 275 -279 296 -319 12 -25 40 -53 75
-76 30 -20 70 -58 89 -84 44 -59 111 -122 173 -161 26 -17 66 -49 88 -73 52
-53 147 -133 203 -171 24 -16 63 -47 87 -68 24 -21 49 -38 57 -38 7 0 38 -25
68 -56 30 -31 71 -64 91 -74 20 -11 72 -44 116 -73 43 -30 99 -64 123 -77 25
-12 65 -39 90 -60 46 -38 120 -80 140 -80 7 0 41 -13 77 -30 35 -16 77 -30 93
-30 16 0 32 -5 35 -10 3 -6 21 -10 39 -10 34 0 76 34 76 61 0 18 -137 129
-158 129 -28 0 -182 80 -220 114 -20 18 -51 41 -68 49 -41 21 -162 103 -194
132 -14 12 -58 43 -98 70 -43 28 -83 63 -98 86 -13 21 -38 45 -54 54 -17 9
-61 44 -98 78 -37 34 -86 75 -109 90 -61 42 -588 572 -629 634 -19 30 -46 60
-58 68 -12 8 -40 41 -62 72 -21 31 -63 81 -92 111 -87 89 -131 151 -148 208
-12 41 -25 62 -55 86 -21 17 -39 37 -39 44 0 7 -20 54 -45 105 -25 51 -45 100
-45 108 0 9 -14 36 -30 61 l-30 45 0 100 0 100 43 41 c23 23 62 55 86 73 l44
31 207 0 207 0 35 -23 c26 -18 55 -26 117 -31 46 -4 99 -13 118 -21 20 -8 45
-15 56 -15 21 0 305 -92 347 -113 14 -6 42 -24 62 -38 21 -15 53 -30 71 -33
57 -11 212 -147 249 -220 31 -63 47 -76 88 -76 49 0 70 24 70 81 -1 69 -32
145 -81 195 -24 24 -51 44 -60 44 -10 0 -27 13 -38 29 -23 31 -110 95 -181
131 -23 12 -61 35 -83 51 -22 16 -51 29 -65 29 -13 0 -99 25 -189 55 -91 30
-178 55 -194 55 -16 0 -57 9 -91 19 -122 37 -154 43 -243 50 -49 4 -100 12
-112 19 -30 17 -200 14 -238 -3z"/>
</g>
</svg>
