<?xml version="1.0" standalone="no"?>
<!DOCTYPE svg PUBLIC "-//W3C//DTD SVG 20010904//EN"
 "http://www.w3.org/TR/2001/REC-SVG-20010904/DTD/svg10.dtd">
<svg version="1.0" xmlns="http://www.w3.org/2000/svg"
 width="492.000000pt" height="201.000000pt" viewBox="0 0 492.000000 201.000000"
 preserveAspectRatio="xMidYMid meet">
<metadata>
Created by potrace 1.16, written by Peter Selinger 2001-2019
</metadata>
<g transform="translate(0.000000,201.000000) scale(0.100000,-0.100000)"
fill="#000000" stroke="none">
<path d="M215 2000 c-3 -5 -40 -10 -81 -10 -48 0 -86 -6 -104 -15 l-30 -16 0
-98 0 -98 23 -10 c14 -6 39 -41 60 -81 22 -42 51 -81 74 -98 51 -38 57 -46
104 -139 28 -54 65 -104 114 -155 39 -41 84 -94 98 -117 57 -91 217 -128 217
-50 0 10 -18 39 -39 65 -21 26 -49 67 -61 92 -12 25 -32 56 -45 70 -33 36
-112 155 -140 209 -12 25 -33 55 -45 66 -45 40 -80 97 -80 132 0 72 25 86 110
59 60 -19 125 -35 182 -46 26 -5 56 -13 67 -19 11 -6 46 -11 78 -11 l58 0 40
-27 c38 -26 58 -31 194 -53 35 -6 92 -24 128 -40 35 -17 77 -30 91 -30 15 0
44 -11 65 -25 48 -33 232 -125 250 -125 7 0 24 -12 38 -26 13 -14 44 -37 69
-51 25 -13 70 -40 100 -59 30 -19 66 -38 80 -41 14 -3 47 -26 75 -50 27 -23
79 -58 115 -77 36 -19 102 -66 146 -104 44 -38 95 -77 114 -87 19 -9 55 -34
80 -55 25 -20 65 -47 90 -60 25 -12 65 -39 90 -59 25 -21 56 -44 69 -51 21
-11 196 -170 294 -267 72 -72 158 -176 209 -254 36 -55 70 -94 93 -108 21 -12
42 -35 48 -51 l11 -30 67 0 66 0 11 38 c17 57 -6 121 -68 189 -28 31 -62 77
-75 103 -13 25 -41 60 -62 75 -51 39 -57 47 -108 146 -25 49 -59 99 -78 115
l-35 29 -27 88 -27 87 51 46 c71 64 69 80 -19 166 -39 37 -79 68 -89 68 -19 0
-68 59 -129 156 -38 61 -39 68 -7 99 l24 25 74 0 c44 0 89 6 110 15 24 10 70
15 132 15 62 0 108 -5 132 -15 22 -9 67 -15 117 -15 44 0 101 -6 126 -14 60
-19 125 -35 182 -46 26 -5 56 -13 67 -19 11 -6 32 -11 46 -11 14 0 51 -11 81
-25 71 -33 168 -65 194 -65 38 0 108 -39 136 -76 l28 -36 42 7 43 6 75 -35
c42 -20 92 -51 113 -69 21 -19 57 -44 80 -56 23 -11 50 -33 60 -48 10 -15 43
-53 74 -85 l56 -58 39 0 c21 1 50 7 64 15 14 8 40 14 58 15 l32 0 0 25 0 25
-26 0 c-36 0 -64 17 -64 40 0 10 -19 39 -42 63 -24 25 -54 59 -67 76 -12 18
-60 56 -106 86 -46 30 -102 71 -125 90 -23 19 -49 35 -58 35 -8 0 -71 27 -139
60 -69 33 -136 60 -151 60 -15 0 -47 14 -72 30 -25 16 -58 30 -73 30 -15 0
-44 7 -64 15 -19 8 -45 15 -56 15 -12 0 -62 13 -112 29 -103 33 -160 49 -227
61 -26 5 -56 13 -67 19 -11 6 -45 11 -76 11 -30 0 -72 7 -92 15 -28 12 -86 15
-284 15 l-249 0 -64 -21 -65 -22 -66 -67 -65 -68 0 -86 0 -86 49 -54 c28 -30
58 -68 68 -83 9 -15 33 -47 51 -71 l35 -42 -13 -48 c-21 -77 -28 -85 -63 -78
-17 4 -52 23 -77 44 -25 20 -64 50 -88 66 -24 16 -62 46 -85 66 -23 21 -65 49
-94 63 -28 15 -72 44 -97 66 -50 43 -175 130 -226 156 -17 9 -48 31 -68 49
-20 19 -82 57 -137 86 -55 28 -125 67 -155 86 -30 19 -71 39 -90 44 -19 5 -81
32 -138 60 -57 28 -138 62 -180 76 -42 13 -101 36 -130 49 -35 17 -70 25 -104
25 -35 0 -95 15 -185 45 -73 25 -147 45 -165 45 -18 0 -53 6 -78 14 -82 26
-135 38 -185 43 -27 3 -54 9 -59 14 -13 12 -73 11 -81 -1z"/>
</g>
</svg>
