<?xml version="1.0" standalone="no"?>
<!DOCTYPE svg PUBLIC "-//W3C//DTD SVG 20010904//EN"
 "http://www.w3.org/TR/2001/REC-SVG-20010904/DTD/svg10.dtd">
<svg version="1.0" xmlns="http://www.w3.org/2000/svg"
 width="651.000000pt" height="168.000000pt" viewBox="0 0 651.000000 168.000000"
 preserveAspectRatio="xMidYMid meet">
<metadata>
Created by potrace 1.16, written by Peter Selinger 2001-2019
</metadata>
<g transform="translate(0.000000,168.000000) scale(0.100000,-0.100000)"
fill="#000000" stroke="none">
<path d="M4625 1670 c-3 -5 -26 -10 -51 -10 -53 0 -152 -45 -199 -91 -17 -16
-38 -29 -46 -29 -9 0 -23 -8 -31 -17 -24 -27 -68 -120 -68 -142 0 -35 100
-149 173 -198 37 -24 72 -53 77 -63 6 -10 10 -55 10 -100 0 -91 22 -168 73
-263 l32 -58 -19 -15 c-25 -18 -57 -18 -103 1 -27 11 -77 15 -210 15 -132 0
-182 4 -210 15 -27 11 -77 15 -210 15 -132 0 -182 4 -210 15 l-35 15 -295 0
-294 0 -36 15 -35 15 -415 0 -415 0 -65 30 -64 30 -160 0 c-119 0 -169 4 -196
15 -23 10 -69 15 -134 15 -54 0 -110 5 -124 10 -19 7 -39 7 -66 -1 -30 -9 -48
-9 -78 -1 -21 7 -101 15 -177 18 -80 4 -153 12 -173 20 -26 11 -121 14 -452
14 l-419 0 0 -39 0 -39 38 -5 c20 -2 51 -9 67 -15 52 -18 118 -33 180 -41 34
-5 70 -13 82 -19 13 -7 69 -12 138 -12 80 0 127 -5 152 -15 l35 -15 325 0 324
0 36 -15 c26 -11 74 -15 180 -15 105 0 153 -4 180 -15 23 -10 69 -15 132 -15
l97 0 88 -31 89 -31 41 12 c30 8 49 8 69 1 16 -6 93 -11 173 -11 106 0 154 -4
181 -15 l35 -15 385 0 384 0 36 -15 c27 -12 79 -15 225 -15 145 0 197 -3 225
-15 24 -10 71 -15 149 -15 62 0 125 -5 141 -11 15 -7 104 -14 197 -16 116 -3
181 -9 204 -19 19 -8 66 -14 104 -14 91 0 137 -22 232 -110 42 -38 84 -70 94
-70 11 0 38 -15 62 -33 125 -93 213 -147 242 -147 8 0 30 -11 49 -24 41 -28
146 -66 183 -66 14 0 28 -4 31 -10 8 -14 402 -14 410 0 3 5 15 10 26 10 11 0
44 23 74 51 43 41 58 63 71 108 l16 56 -12 50 c-16 65 -45 110 -128 193 -85
86 -118 110 -217 162 -44 22 -101 55 -127 71 -25 17 -119 55 -207 85 l-161 54
-104 0 -104 0 -61 -45 -61 -45 0 -42 c0 -24 -4 -49 -9 -57 l-9 -13 -36 13
c-61 22 -97 67 -212 264 -41 69 -39 88 11 144 19 21 35 48 35 59 0 34 -39 68
-128 113 -46 23 -91 53 -100 66 -9 14 -32 42 -50 63 l-32 38 9 25 c5 14 20 32
33 41 l22 16 366 0 366 0 84 -30 c47 -16 101 -30 120 -30 19 0 75 -13 125 -29
98 -32 158 -48 220 -60 62 -12 143 -41 225 -81 41 -20 86 -40 100 -43 14 -4
45 -22 70 -42 162 -128 173 -135 207 -135 19 0 47 7 63 15 l30 16 0 42 0 43
-37 38 c-52 52 -142 120 -194 147 -24 12 -57 32 -74 44 -82 62 -250 124 -417
155 -26 5 -56 13 -67 19 -11 6 -37 11 -58 11 -22 0 -77 13 -123 30 -47 16
-102 30 -123 30 -21 0 -54 7 -74 15 -22 9 -68 15 -124 15 -48 0 -91 5 -94 10
-4 6 -98 10 -250 10 -152 0 -246 -4 -250 -10z m857 -1075 c26 -7 64 -25 85
-39 21 -14 44 -26 51 -26 7 0 43 -18 80 -40 37 -23 77 -43 90 -47 12 -3 63
-46 112 -95 l90 -90 0 -29 c0 -17 -5 -39 -10 -50 l-11 -19 -130 0 c-93 0 -140
4 -166 15 -19 8 -47 15 -60 15 -32 0 -138 49 -194 89 -23 17 -49 31 -58 31
-26 0 -61 29 -61 50 0 25 37 50 74 50 45 0 66 25 66 81 0 26 -5 60 -10 74 -6
15 -8 31 -4 36 6 11 0 12 56 -6z"/>
</g>
</svg>
