<?xml version="1.0" standalone="no"?>
<!DOCTYPE svg PUBLIC "-//W3C//DTD SVG 20010904//EN"
 "http://www.w3.org/TR/2001/REC-SVG-20010904/DTD/svg10.dtd">
<svg version="1.0" xmlns="http://www.w3.org/2000/svg"
 width="294.000000pt" height="357.000000pt" viewBox="0 0 294.000000 357.000000"
 preserveAspectRatio="xMidYMid meet">
<metadata>
Created by potrace 1.16, written by Peter Selinger 2001-2019
</metadata>
<g transform="translate(0.000000,357.000000) scale(0.100000,-0.100000)"
fill="#000000" stroke="none">
<path d="M975 3531 c-44 -28 -67 -51 -87 -87 -40 -72 -38 -128 9 -215 l37 -68
-22 -53 c-38 -91 -27 -150 45 -259 l25 -37 -12 -21 c-21 -41 -78 -29 -247 54
-85 41 -159 75 -166 75 -7 0 -32 14 -57 30 -25 16 -58 30 -75 30 -16 0 -50 14
-75 30 -25 16 -58 30 -73 30 -15 0 -44 7 -64 15 -22 10 -68 15 -124 15 l-89 0
0 -51 0 -50 41 -49 c23 -27 50 -50 62 -52 11 -2 24 -11 28 -20 5 -10 13 -26
18 -35 4 -10 45 -43 91 -74 45 -31 98 -72 118 -91 21 -19 71 -57 112 -84 41
-26 95 -67 120 -89 25 -22 61 -51 80 -64 20 -13 48 -41 64 -62 15 -22 49 -50
74 -63 26 -13 75 -48 109 -77 33 -30 82 -66 107 -81 32 -19 46 -34 46 -49 0
-15 45 -67 140 -162 78 -77 150 -157 160 -178 11 -20 39 -50 62 -66 27 -18 54
-48 71 -80 15 -29 45 -65 67 -80 22 -15 46 -41 53 -58 8 -16 30 -63 48 -104
19 -41 47 -93 64 -115 16 -23 39 -68 51 -101 26 -71 56 -145 95 -236 16 -36
29 -77 29 -91 0 -14 7 -42 15 -61 11 -27 15 -75 15 -181 l0 -144 -34 -44 c-19
-24 -48 -66 -64 -94 -32 -54 -62 -79 -108 -90 -16 -4 -42 -19 -59 -34 -16 -15
-42 -30 -56 -33 -14 -4 -41 -17 -60 -30 -27 -18 -35 -30 -37 -60 l-3 -37 90 0
c49 0 93 4 96 10 3 5 14 10 24 10 10 0 36 13 58 29 22 16 59 39 81 50 22 11
64 48 94 82 29 33 74 85 101 115 34 39 47 63 47 84 0 17 7 47 15 67 12 27 15
79 15 227 l0 191 -30 85 c-17 46 -30 96 -30 110 0 14 -18 51 -39 83 -22 32
-43 72 -47 90 -10 49 -62 147 -100 189 -18 21 -48 66 -65 100 -17 35 -60 94
-96 131 -37 40 -66 80 -70 98 -7 38 -528 569 -558 569 -11 0 -40 23 -66 53
-26 28 -69 63 -95 76 -54 27 -124 88 -124 108 0 9 19 13 66 13 68 0 113 -15
169 -56 48 -35 172 -94 199 -94 38 0 71 -16 113 -53 83 -75 154 -88 204 -38
49 49 42 65 -86 187 -77 72 -125 126 -142 159 -14 28 -46 70 -72 95 -61 60
-153 198 -149 224 2 14 13 22 38 27 41 9 80 50 80 85 0 16 -23 49 -72 101 -78
85 -115 152 -99 180 5 10 37 27 71 37 l62 20 48 -17 c30 -11 78 -17 129 -17
50 0 96 -6 118 -15 19 -8 53 -15 75 -15 21 0 55 -7 75 -15 19 -8 53 -15 75
-15 21 0 55 -7 75 -15 19 -8 52 -15 72 -15 20 0 56 -6 81 -14 58 -18 123 -35
180 -46 25 -5 69 -20 97 -34 29 -14 63 -26 75 -26 33 0 227 -68 258 -90 14
-10 77 -44 139 -76 76 -38 120 -67 138 -90 26 -35 50 -42 84 -24 14 8 19 21
19 55 0 24 -5 47 -10 50 -6 4 -21 28 -35 54 -26 52 -86 111 -113 111 -18 0
-64 24 -153 78 -30 17 -70 36 -89 42 -19 5 -59 21 -88 35 -28 14 -69 25 -90
25 -41 0 -126 26 -210 66 -29 13 -71 24 -93 24 -24 0 -67 12 -106 30 l-64 30
-115 0 c-79 0 -126 5 -151 15 -19 8 -55 15 -79 15 -23 0 -46 5 -49 10 -4 6
-92 10 -233 9 l-227 -1 -60 -37z"/>
</g>
</svg>
