<?xml version="1.0" standalone="no"?>
<!DOCTYPE svg PUBLIC "-//W3C//DTD SVG 20010904//EN"
 "http://www.w3.org/TR/2001/REC-SVG-20010904/DTD/svg10.dtd">
<svg version="1.0" xmlns="http://www.w3.org/2000/svg"
 width="222.000000pt" height="168.000000pt" viewBox="0 0 222.000000 168.000000"
 preserveAspectRatio="xMidYMid meet">
<metadata>
Created by potrace 1.16, written by Peter Selinger 2001-2019
</metadata>
<g transform="translate(0.000000,168.000000) scale(0.100000,-0.100000)"
fill="#000000" stroke="none">
<path d="M425 1670 c-3 -5 -40 -10 -81 -10 l-76 0 -71 -36 c-40 -20 -85 -46
-102 -58 -16 -13 -45 -31 -62 -40 l-33 -17 0 -67 0 -67 49 -18 c27 -9 65 -17
86 -17 20 0 66 -13 102 -30 35 -16 69 -30 74 -30 6 0 40 -18 77 -40 36 -22 83
-45 102 -50 20 -5 46 -19 58 -30 55 -51 132 -207 132 -268 0 -34 37 -101 85
-153 23 -25 54 -64 69 -87 14 -23 39 -48 55 -57 40 -20 68 -59 85 -115 21 -69
43 -109 91 -161 23 -25 54 -64 68 -86 29 -46 82 -93 104 -93 8 0 37 -20 65
-44 28 -24 67 -52 87 -62 20 -9 44 -21 53 -25 10 -5 58 -9 107 -9 l89 0 26 31
c30 36 33 60 9 81 -20 18 -138 78 -152 78 -19 0 -195 186 -230 243 -61 99 -81
140 -81 170 0 47 -48 127 -77 127 -76 0 -253 161 -253 230 0 15 -7 44 -15 63
-8 20 -15 55 -15 77 0 53 -22 94 -79 150 -25 25 -54 58 -64 73 -10 16 -33 31
-56 37 -21 5 -78 30 -125 54 -48 25 -93 47 -99 50 -9 3 -8 8 3 15 9 6 67 11
136 11 88 0 132 4 159 16 l38 16 41 -16 42 -16 277 0 278 0 36 -15 c19 -8 47
-15 60 -15 14 0 54 -13 90 -30 35 -16 74 -30 86 -30 42 0 217 -66 245 -92 46
-44 206 -148 226 -148 11 0 33 12 48 27 l28 27 0 73 c0 46 -4 73 -11 73 -22 0
-85 34 -129 70 -57 47 -181 110 -216 110 -14 0 -55 14 -91 30 -35 17 -81 30
-101 30 -20 0 -57 6 -82 14 -98 31 -138 39 -215 43 -44 2 -84 9 -90 14 -13 13
-852 12 -860 -1z"/>
</g>
</svg>
