<?xml version="1.0" standalone="no"?>
<!DOCTYPE svg PUBLIC "-//W3C//DTD SVG 20010904//EN"
 "http://www.w3.org/TR/2001/REC-SVG-20010904/DTD/svg10.dtd">
<svg version="1.0" xmlns="http://www.w3.org/2000/svg"
 width="261.000000pt" height="180.000000pt" viewBox="0 0 261.000000 180.000000"
 preserveAspectRatio="xMidYMid meet">
<metadata>
Created by potrace 1.16, written by Peter Selinger 2001-2019
</metadata>
<g transform="translate(0.000000,180.000000) scale(0.100000,-0.100000)"
fill="#000000" stroke="none">
<path d="M900 1790 c-8 -4 -30 -14 -49 -21 -54 -20 -173 -103 -219 -153 l-42
-46 0 -40 0 -41 47 -50 c44 -47 125 -99 155 -99 41 -1 173 -91 194 -132 20
-39 18 -44 -30 -62 -121 -46 -127 -110 -15 -156 l31 -13 46 16 c26 10 59 17
74 17 36 0 99 56 123 110 l18 40 -13 58 -13 57 -58 55 c-82 79 -166 141 -208
152 -77 21 -106 61 -81 109 l11 19 73 0 c43 0 89 6 109 15 28 12 80 15 222 15
142 0 194 -3 222 -15 23 -10 69 -15 135 -15 65 0 111 -5 135 -15 19 -8 47 -15
60 -15 14 0 54 -13 90 -30 35 -16 69 -30 75 -30 5 0 39 -13 75 -30 35 -16 77
-30 92 -30 17 0 37 -10 52 -26 13 -14 44 -36 69 -49 25 -13 88 -62 140 -109
52 -47 103 -85 113 -86 10 0 31 7 47 15 l30 16 0 67 0 67 -33 15 c-20 10 -36
26 -42 46 -14 45 -31 61 -69 68 -19 4 -53 24 -77 45 -44 38 -99 71 -119 71 -6
0 -37 12 -67 26 -31 14 -91 36 -132 50 -42 13 -100 36 -129 49 -29 14 -64 25
-78 25 -13 0 -41 7 -61 15 -20 9 -66 15 -109 15 -40 0 -76 5 -79 10 -8 12
-693 13 -715 0z"/>
<path d="M675 560 c-11 -5 -73 -9 -137 -9 l-117 -1 -64 -30 c-36 -16 -70 -30
-76 -30 -28 0 -172 -82 -188 -107 -10 -16 -34 -51 -55 -80 l-38 -52 0 -70 0
-69 42 -31 c51 -38 102 -41 143 -9 l27 21 -6 47 c-7 55 9 102 50 144 38 37
104 66 152 66 22 0 56 7 75 15 28 11 79 15 220 15 l183 0 84 -30 c53 -18 105
-30 138 -30 29 0 69 -7 89 -15 19 -8 53 -15 75 -15 21 0 55 -7 75 -15 19 -8
51 -15 71 -15 57 0 156 -39 207 -81 l47 -39 45 0 c60 0 109 -24 159 -76 32
-33 49 -44 72 -44 17 0 34 -4 37 -10 3 -6 52 -10 111 -10 l104 0 0 38 0 37
-77 73 c-43 39 -85 72 -93 72 -8 0 -32 11 -52 25 -20 14 -71 36 -113 50 -42
13 -89 33 -104 44 -24 18 -172 69 -291 101 -25 7 -85 16 -135 20 -67 5 -104
14 -142 34 -31 15 -70 26 -92 26 -22 0 -52 5 -68 12 -15 7 -89 15 -163 19 -74
3 -144 9 -155 12 -11 3 -29 2 -40 -3z"/>
</g>
</svg>
