<?xml version="1.0" standalone="no"?>
<!DOCTYPE svg PUBLIC "-//W3C//DTD SVG 20010904//EN"
 "http://www.w3.org/TR/2001/REC-SVG-20010904/DTD/svg10.dtd">
<svg version="1.0" xmlns="http://www.w3.org/2000/svg"
 width="396.000000pt" height="159.000000pt" viewBox="0 0 396.000000 159.000000"
 preserveAspectRatio="xMidYMid meet">
<metadata>
Created by potrace 1.16, written by Peter Selinger 2001-2019
</metadata>
<g transform="translate(0.000000,159.000000) scale(0.100000,-0.100000)"
fill="#000000" stroke="none">
<path d="M1955 1582 c-6 -5 -42 -19 -80 -31 -107 -33 -146 -59 -177 -116 -15
-28 -28 -58 -28 -68 0 -23 44 -109 64 -126 9 -7 25 -28 36 -47 l21 -33 -26
-79 -26 -78 11 -28 c12 -33 13 -86 1 -105 l-9 -14 -32 12 c-18 6 -57 11 -87
11 -29 0 -70 7 -90 15 -27 12 -79 15 -225 15 -145 0 -197 3 -225 15 -49 21
-227 21 -276 0 -23 -9 -68 -15 -120 -15 -53 0 -98 -6 -120 -15 -20 -8 -47 -15
-61 -15 -14 0 -54 -13 -89 -30 -36 -16 -70 -30 -76 -30 -6 0 -35 -11 -63 -25
-29 -14 -69 -30 -89 -35 -26 -7 -56 -33 -112 -94 l-77 -84 0 -70 0 -70 34 -26
c19 -14 44 -26 55 -26 25 0 56 46 72 105 18 66 44 91 142 139 51 25 98 46 104
46 6 0 41 13 76 30 l65 30 471 0 472 0 36 -15 c19 -8 53 -15 75 -15 21 0 55
-7 75 -15 19 -8 53 -15 75 -15 23 0 67 -12 101 -28 34 -16 73 -32 87 -35 32
-9 49 -23 84 -70 16 -20 61 -58 100 -84 39 -26 96 -71 126 -100 65 -61 168
-133 191 -133 8 0 26 -12 40 -26 24 -26 89 -64 109 -64 6 0 44 -19 83 -43 40
-24 92 -51 117 -61 25 -10 53 -22 62 -27 25 -13 184 -11 211 3 12 6 29 14 37
18 8 4 25 24 37 46 31 53 30 120 -2 183 -30 59 -162 184 -225 213 -48 22 -61
28 -185 95 -44 23 -86 43 -93 43 -8 0 -43 14 -79 30 -35 17 -77 30 -91 30 -15
0 -43 11 -63 24 -39 27 -236 96 -272 96 -27 0 -47 17 -47 41 0 9 -19 41 -43
70 -43 53 -75 115 -64 125 2 3 34 16 71 28 89 32 96 38 96 101 0 61 -6 68
-105 118 -76 38 -131 87 -122 110 10 26 73 47 142 47 38 0 88 7 116 17 l49 18
49 -18 c37 -13 81 -17 190 -17 103 0 151 -4 178 -15 19 -8 53 -15 75 -15 21 0
55 -7 75 -15 19 -8 60 -15 90 -15 29 0 70 -7 90 -15 22 -9 67 -15 117 -15 85
0 147 -16 254 -66 29 -13 64 -24 78 -24 14 0 55 -13 91 -30 35 -16 77 -30 93
-30 18 0 45 -13 72 -35 74 -59 191 -115 243 -115 l45 0 0 70 0 69 -32 17 c-18
9 -46 27 -63 40 -42 31 -200 109 -273 133 -34 12 -78 21 -97 21 -20 0 -61 12
-92 26 -88 40 -232 81 -328 93 -34 5 -70 13 -82 19 -12 7 -66 12 -123 12 -67
0 -113 5 -137 15 -19 8 -55 15 -79 15 -23 0 -46 5 -49 10 -8 12 -637 14 -650
2z m661 -1169 c21 -16 71 -44 109 -63 61 -30 174 -117 183 -141 6 -15 -45 -10
-57 5 -13 16 -115 66 -134 66 -7 0 -30 12 -52 27 -22 15 -58 37 -79 48 -45 24
-62 45 -53 69 9 24 39 20 83 -11z"/>
</g>
</svg>
