<?xml version="1.0" standalone="no"?>
<!DOCTYPE svg PUBLIC "-//W3C//DTD SVG 20010904//EN"
 "http://www.w3.org/TR/2001/REC-SVG-20010904/DTD/svg10.dtd">
<svg version="1.0" xmlns="http://www.w3.org/2000/svg"
 width="480.000000pt" height="159.000000pt" viewBox="0 0 480.000000 159.000000"
 preserveAspectRatio="xMidYMid meet">
<metadata>
Created by potrace 1.16, written by Peter Selinger 2001-2019
</metadata>
<g transform="translate(0.000000,159.000000) scale(0.100000,-0.100000)"
fill="#000000" stroke="none">
<path d="M7 1583 c-4 -3 -7 -38 -7 -77 l1 -71 37 -17 c20 -10 60 -37 87 -60
31 -27 72 -50 110 -62 93 -30 126 -46 175 -86 48 -40 120 -80 143 -80 7 0 26
-13 42 -30 16 -16 35 -30 42 -30 8 0 44 -18 81 -40 37 -23 78 -43 92 -47 54
-13 109 -44 168 -97 47 -42 70 -56 93 -56 41 0 86 -22 189 -92 47 -32 91 -58
99 -58 8 0 70 -27 138 -60 l124 -60 78 0 78 0 40 29 c21 15 55 34 74 41 l34
12 56 -25 c30 -13 75 -38 99 -56 24 -17 50 -31 57 -31 26 0 87 -32 135 -72 25
-21 82 -56 125 -77 43 -22 107 -64 141 -95 35 -31 66 -56 71 -56 5 0 45 -34
90 -75 l81 -75 71 0 71 0 29 29 c22 23 29 39 29 69 l0 40 -43 35 c-28 23 -48
50 -57 76 l-13 41 27 29 c16 16 55 38 90 50 l62 21 138 0 c99 0 147 -4 173
-15 19 -8 52 -15 72 -15 20 0 56 -6 81 -14 98 -31 139 -39 235 -45 l100 -6 40
-27 c22 -16 51 -28 65 -28 30 0 123 -31 198 -66 29 -13 65 -24 79 -24 15 0 96
-34 180 -75 85 -41 160 -75 167 -75 7 0 39 -18 71 -41 l57 -40 47 3 46 3 3 62
3 62 -38 20 c-21 11 -60 38 -87 60 -33 28 -58 41 -78 41 -35 0 -87 23 -142 62
-21 15 -46 28 -55 28 -9 0 -36 14 -61 30 -25 16 -56 30 -70 30 -30 0 -123 31
-198 66 -29 13 -64 24 -78 24 -14 0 -55 13 -91 30 l-64 30 -100 0 c-66 0 -112
5 -136 15 -19 8 -52 15 -72 15 -20 0 -70 12 -111 27 -67 24 -200 41 -345 43
-59 1 -167 -14 -220 -32 -84 -28 -113 -44 -173 -99 -30 -27 -61 -49 -70 -49
-10 0 -39 18 -66 40 -26 22 -55 40 -63 40 -14 0 -105 50 -204 114 -30 20 -61
36 -68 36 -24 0 -86 33 -133 72 -25 21 -88 59 -138 84 -51 26 -108 61 -128 78
-34 30 -57 45 -172 111 -29 17 -77 47 -109 67 l-56 38 -50 0 -51 0 -39 -40
-39 -40 12 -62 c6 -34 9 -64 7 -66 -3 -3 -37 9 -76 26 -39 18 -76 32 -82 32
-18 0 -196 89 -238 120 -23 16 -49 30 -56 30 -26 0 -87 32 -133 70 -56 46
-121 80 -154 80 -38 0 -71 16 -113 53 -38 34 -196 119 -243 130 -14 3 -52 29
-85 57 -43 37 -67 50 -90 50 -18 0 -35 -3 -38 -7z m1388 -683 c3 -5 -1 -10 -9
-10 -8 0 -18 5 -21 10 -3 6 1 10 9 10 8 0 18 -4 21 -10z"/>
</g>
</svg>
