<?xml version="1.0" standalone="no"?>
<!DOCTYPE svg PUBLIC "-//W3C//DTD SVG 20010904//EN"
 "http://www.w3.org/TR/2001/REC-SVG-20010904/DTD/svg10.dtd">
<svg version="1.0" xmlns="http://www.w3.org/2000/svg"
 width="537.000000pt" height="237.000000pt" viewBox="0 0 537.000000 237.000000"
 preserveAspectRatio="xMidYMid meet">
<metadata>
Created by potrace 1.16, written by Peter Selinger 2001-2019
</metadata>
<g transform="translate(0.000000,237.000000) scale(0.100000,-0.100000)"
fill="#000000" stroke="none">
<path d="M7 2363 c-4 -3 -7 -28 -7 -54 l0 -48 81 -85 c79 -83 156 -143 236
-184 47 -25 167 -105 203 -136 14 -12 41 -33 60 -45 19 -13 49 -42 67 -66 20
-26 42 -44 60 -48 15 -3 47 -22 70 -41 22 -20 58 -42 79 -48 27 -9 47 -26 67
-56 29 -43 106 -92 146 -92 11 0 34 18 51 40 43 55 102 80 185 80 36 0 82 -7
102 -15 19 -8 47 -15 60 -15 14 0 54 -14 90 -30 35 -17 75 -30 89 -30 14 0 41
-7 61 -15 19 -8 60 -15 91 -15 l55 0 115 -55 c121 -59 218 -95 253 -95 35 0
151 -59 208 -106 29 -24 60 -44 68 -44 24 0 83 -31 164 -86 41 -29 99 -64 128
-79 28 -15 63 -43 77 -61 14 -18 46 -45 70 -59 31 -18 54 -43 76 -81 19 -34
46 -65 69 -80 21 -13 50 -41 63 -62 23 -37 51 -64 110 -105 15 -10 37 -40 51
-66 15 -31 43 -62 74 -85 63 -47 91 -91 91 -145 0 -62 31 -114 97 -160 72 -52
120 -56 164 -12 l29 29 0 54 c0 40 -6 62 -25 90 -31 45 -31 51 -3 89 39 52 77
69 155 69 40 0 86 7 106 15 46 19 128 19 174 0 25 -11 72 -15 162 -15 l126 0
105 -35 c58 -20 129 -47 158 -60 29 -14 57 -25 63 -25 6 0 36 -12 67 -26 31
-14 92 -37 134 -51 59 -19 91 -37 137 -76 33 -29 71 -60 85 -70 14 -10 29 -29
32 -43 l6 -25 62 3 61 3 3 77 3 78 -23 31 c-21 28 -188 148 -256 183 -17 9
-61 25 -99 37 -38 12 -82 35 -98 51 l-31 28 -58 0 c-40 0 -74 8 -112 25 -107
49 -170 65 -254 65 -49 0 -95 6 -117 15 -50 21 -316 21 -366 0 -20 -8 -61 -15
-91 -15 -39 0 -73 -8 -118 -29 -35 -15 -84 -34 -110 -41 l-48 -12 -73 73 c-41
41 -116 112 -167 159 -51 47 -111 108 -132 135 -22 28 -67 73 -100 100 -34 28
-79 76 -102 109 l-41 58 -105 54 c-57 30 -118 68 -135 84 -17 17 -37 30 -44
30 -7 0 -41 13 -75 29 -34 16 -76 32 -93 35 -18 4 -52 25 -76 47 -25 21 -50
39 -57 39 -6 0 -41 14 -77 30 -35 17 -69 30 -74 30 -6 0 -35 11 -64 25 -99 45
-264 95 -313 95 -56 0 -149 31 -201 66 -19 13 -48 24 -64 24 -15 0 -44 7 -64
15 -19 8 -53 15 -75 15 -21 0 -55 7 -75 15 -19 8 -55 15 -78 15 -23 0 -59 -7
-78 -15 -52 -21 -191 -20 -237 3 -47 23 -143 86 -183 120 -17 16 -64 49 -103
75 -39 26 -84 63 -98 82 -21 27 -34 35 -59 35 -39 0 -63 15 -144 92 -34 32
-69 58 -78 58 -30 0 -89 32 -156 87 l-66 53 -45 0 c-25 0 -48 -3 -51 -7z"/>
</g>
</svg>
