<?xml version="1.0" standalone="no"?>
<!DOCTYPE svg PUBLIC "-//W3C//DTD SVG 20010904//EN"
 "http://www.w3.org/TR/2001/REC-SVG-20010904/DTD/svg10.dtd">
<svg version="1.0" xmlns="http://www.w3.org/2000/svg"
 width="366.000000pt" height="186.000000pt" viewBox="0 0 366.000000 186.000000"
 preserveAspectRatio="xMidYMid meet">
<metadata>
Created by potrace 1.16, written by Peter Selinger 2001-2019
</metadata>
<g transform="translate(0.000000,186.000000) scale(0.100000,-0.100000)"
fill="#000000" stroke="none">
<path d="M37 1822 l-37 -38 0 -101 0 -101 53 -41 c28 -23 77 -61 109 -85 31
-25 79 -56 107 -71 28 -14 91 -64 141 -110 49 -47 98 -85 108 -85 10 0 37 -13
58 -30 21 -16 56 -41 76 -55 51 -34 62 -57 48 -100 -16 -50 -46 -83 -95 -105
-24 -11 -49 -20 -55 -20 -17 0 -145 -67 -157 -82 -6 -7 -13 -31 -16 -53 -3
-22 -8 -47 -11 -56 -4 -9 14 -47 50 -100 31 -46 65 -102 76 -124 12 -22 38
-60 58 -85 21 -25 54 -77 73 -116 22 -43 49 -81 71 -97 23 -18 39 -41 46 -67
7 -26 23 -49 49 -69 l39 -31 59 0 60 0 13 40 13 40 -46 98 c-26 53 -47 103
-47 111 0 7 -16 31 -35 52 -19 21 -48 66 -65 100 -17 33 -50 84 -73 113 -23
28 -51 68 -62 89 l-20 39 22 16 c12 9 49 37 83 62 33 25 86 66 117 92 31 27
62 48 68 48 13 0 53 -28 100 -71 17 -15 63 -43 102 -64 44 -22 84 -52 103 -75
17 -21 42 -40 58 -43 15 -3 56 -30 90 -59 68 -59 146 -119 209 -161 47 -31 80
-72 113 -137 32 -65 46 -78 106 -95 l54 -16 39 21 c54 27 71 55 71 114 0 38
-7 60 -31 97 l-30 48 11 20 c8 16 21 21 54 21 24 0 60 7 79 15 51 21 273 21
324 0 19 -8 60 -15 90 -15 29 0 70 -7 90 -15 19 -8 53 -15 75 -15 23 0 67 -13
105 -30 35 -17 76 -30 91 -30 15 0 47 -14 72 -30 25 -16 58 -30 73 -30 15 0
44 -7 64 -15 19 -8 45 -15 57 -15 40 0 216 -67 244 -92 30 -28 73 -52 112 -61
14 -4 47 -24 74 -47 57 -47 80 -50 118 -13 l28 27 0 47 c0 26 -4 51 -10 54 -6
3 -10 15 -10 26 0 34 -53 79 -92 79 -24 0 -42 8 -59 26 -24 26 -89 64 -109 64
-6 0 -36 11 -66 25 -84 38 -170 65 -209 65 -20 0 -61 11 -91 25 -82 38 -169
65 -207 65 -18 0 -71 13 -117 30 -68 24 -102 30 -168 30 -50 0 -97 6 -119 15
-26 11 -76 15 -198 15 -122 0 -172 -4 -198 -15 -20 -8 -55 -15 -77 -15 -45 0
-106 -27 -160 -71 -19 -16 -40 -29 -46 -29 -6 0 -37 23 -68 50 -31 28 -64 50
-73 50 -9 0 -43 30 -76 66 -38 41 -81 76 -117 94 -31 16 -82 52 -113 80 -31
28 -72 56 -92 61 -20 6 -66 38 -109 77 -41 37 -86 75 -100 85 -14 10 -38 41
-52 70 -15 29 -36 66 -49 82 -12 17 -34 53 -49 80 -15 28 -42 69 -61 93 -19
24 -35 52 -35 62 0 10 -19 33 -42 51 -24 18 -71 58 -105 88 -33 31 -89 76
-123 101 -35 25 -76 57 -92 73 l-30 27 -132 0 -132 0 -37 -38z"/>
</g>
</svg>
