<?xml version="1.0" standalone="no"?>
<!DOCTYPE svg PUBLIC "-//W3C//DTD SVG 20010904//EN"
 "http://www.w3.org/TR/2001/REC-SVG-20010904/DTD/svg10.dtd">
<svg version="1.0" xmlns="http://www.w3.org/2000/svg"
 width="405.000000pt" height="354.000000pt" viewBox="0 0 405.000000 354.000000"
 preserveAspectRatio="xMidYMid meet">
<metadata>
Created by potrace 1.16, written by Peter Selinger 2001-2019
</metadata>
<g transform="translate(0.000000,354.000000) scale(0.100000,-0.100000)"
fill="#000000" stroke="none">
<path d="M185 3530 c-3 -5 -20 -10 -36 -10 -37 0 -105 -34 -119 -59 -5 -11
-10 -31 -10 -45 0 -14 -4 -28 -10 -31 -13 -8 -13 -102 0 -110 6 -3 10 -26 10
-51 0 -68 65 -179 164 -284 29 -30 64 -73 78 -95 30 -46 212 -224 283 -275
116 -84 171 -119 186 -120 8 0 37 -25 63 -55 26 -31 59 -58 74 -61 15 -4 43
-21 62 -38 19 -17 86 -65 147 -106 111 -74 124 -88 153 -167 7 -18 41 -76 76
-129 35 -54 64 -105 64 -114 0 -9 12 -32 26 -51 14 -19 36 -55 50 -81 13 -25
35 -63 49 -84 14 -20 25 -51 25 -69 0 -22 9 -40 30 -60 16 -16 30 -35 30 -42
0 -17 32 -80 65 -129 14 -20 25 -44 25 -53 0 -10 12 -33 26 -52 31 -41 154
-285 154 -307 0 -8 16 -32 36 -54 37 -41 114 -189 114 -219 0 -9 18 -39 41
-65 22 -27 52 -71 66 -99 14 -27 37 -64 50 -82 14 -18 23 -42 21 -55 l-3 -23
-107 -3 c-79 -2 -117 1 -144 13 -21 8 -66 15 -106 15 -38 0 -84 7 -105 15 -19
8 -60 15 -90 15 -29 0 -70 7 -90 15 -19 8 -60 15 -90 15 -29 0 -70 7 -90 15
-20 8 -66 15 -105 15 -38 0 -84 7 -105 15 -68 29 -171 10 -212 -39 -18 -22
-10 -56 19 -78 41 -30 161 -68 218 -68 29 0 69 -7 89 -15 19 -8 53 -15 75 -15
21 0 55 -7 75 -15 22 -9 67 -15 120 -15 52 0 97 -6 120 -15 19 -8 53 -15 75
-15 21 0 55 -7 75 -15 22 -9 67 -15 119 -15 45 0 95 -5 111 -12 15 -6 76 -14
135 -17 l106 -6 31 -23 30 -22 71 0 c49 0 70 4 70 13 0 6 14 32 30 57 16 25
30 53 30 63 0 31 -48 114 -82 140 -32 25 -83 100 -114 167 -39 85 -95 179
-131 220 -20 22 -33 48 -33 64 0 27 -55 140 -115 235 -19 30 -42 75 -51 100
-33 94 -39 105 -73 155 -19 28 -45 78 -57 111 -12 33 -31 83 -42 110 -12 28
-26 64 -32 82 -7 17 -27 55 -46 84 -19 29 -34 60 -34 68 0 8 -14 35 -30 61
-29 46 -32 80 -6 80 6 0 76 -31 155 -70 165 -81 197 -86 242 -41 43 43 41 95
-6 152 -50 59 -58 75 -46 97 15 27 88 91 117 102 43 17 359 12 401 -5 19 -8
53 -15 75 -15 21 0 55 -7 75 -15 19 -8 60 -15 90 -15 29 0 70 -7 90 -15 19 -8
53 -15 75 -15 21 0 55 -7 75 -15 19 -8 47 -15 62 -15 14 0 55 -14 89 -30 37
-18 80 -30 103 -30 22 0 56 -7 76 -15 19 -8 46 -15 60 -15 31 0 56 -13 120
-66 l52 -42 63 -7 c35 -4 78 -13 97 -21 18 -8 45 -14 60 -14 28 0 54 -15 109
-62 37 -32 60 -35 102 -13 l30 16 0 52 0 53 -72 59 c-68 56 -146 94 -193 95
-32 0 -156 45 -234 84 -39 20 -82 36 -96 36 -14 0 -42 7 -62 15 -19 8 -54 15
-77 15 -23 0 -65 11 -96 26 -85 39 -256 94 -295 94 -20 0 -52 7 -72 15 -22 9
-67 15 -119 15 -46 0 -101 6 -121 14 -83 29 -112 33 -223 31 -228 -6 -304 -21
-441 -91 -50 -25 -76 -45 -94 -74 -39 -62 -53 -65 -143 -35 -81 27 -150 63
-172 90 -8 10 -38 32 -67 51 -29 19 -53 41 -53 49 0 9 -9 32 -19 53 -29 56
-189 291 -232 340 -21 24 -41 58 -44 75 -7 34 -56 113 -116 187 -20 25 -48 68
-63 96 -14 29 -47 71 -74 95 -27 24 -52 56 -56 70 -3 15 -24 42 -47 60 -23 19
-62 54 -88 79 -64 63 -103 91 -196 138 -44 22 -95 52 -114 66 -21 16 -48 26
-67 26 -18 0 -36 5 -39 10 -3 6 -21 10 -40 10 -19 0 -37 -4 -40 -10z m153
-257 c41 -26 115 -85 163 -132 223 -216 257 -254 265 -296 3 -20 24 -57 46
-83 21 -26 44 -58 51 -72 7 -14 21 -37 31 -52 24 -36 7 -42 -37 -13 -20 14
-39 25 -43 25 -4 0 -28 17 -53 38 -42 34 -92 68 -196 134 -27 17 -43 36 -50
59 -7 24 -25 44 -61 68 -28 19 -62 51 -75 70 -13 20 -46 61 -73 91 -74 83
-105 167 -74 198 18 18 24 16 106 -35z"/>
</g>
</svg>
