<?xml version="1.0" standalone="no"?>
<!DOCTYPE svg PUBLIC "-//W3C//DTD SVG 20010904//EN"
 "http://www.w3.org/TR/2001/REC-SVG-20010904/DTD/svg10.dtd">
<svg version="1.0" xmlns="http://www.w3.org/2000/svg"
 width="324.000000pt" height="312.000000pt" viewBox="0 0 324.000000 312.000000"
 preserveAspectRatio="xMidYMid meet">
<metadata>
Created by potrace 1.16, written by Peter Selinger 2001-2019
</metadata>
<g transform="translate(0.000000,312.000000) scale(0.100000,-0.100000)"
fill="#000000" stroke="none">
<path d="M635 3110 c-3 -5 -46 -10 -94 -10 -56 0 -102 -6 -124 -15 -20 -8 -55
-15 -77 -15 -23 0 -61 -10 -88 -24 -52 -26 -158 -139 -192 -203 -11 -22 -30
-49 -40 -58 -20 -18 -27 -69 -11 -79 5 -3 11 -23 14 -43 7 -53 22 -107 73
-264 24 -74 44 -147 44 -160 0 -15 12 -37 30 -54 17 -16 30 -36 30 -46 0 -9
18 -39 40 -65 22 -27 45 -65 50 -84 6 -21 30 -56 60 -85 28 -28 63 -68 77 -90
15 -22 47 -60 72 -85 26 -25 63 -70 83 -101 20 -31 56 -67 80 -83 24 -15 59
-50 78 -78 19 -28 73 -85 120 -125 47 -41 117 -102 155 -136 39 -34 86 -73
106 -86 19 -13 51 -47 70 -75 26 -38 45 -54 74 -64 53 -18 77 -40 73 -71 l-3
-26 -42 -3 c-26 -2 -73 7 -120 22 -44 15 -100 25 -128 25 -84 -1 -249 16 -272
29 -12 7 -31 12 -43 12 -27 0 -150 -116 -150 -141 0 -11 13 -22 35 -29 19 -6
58 -32 86 -58 29 -26 77 -61 107 -77 33 -18 68 -48 86 -73 17 -23 49 -54 71
-68 47 -31 63 -50 71 -84 9 -34 33 -60 56 -60 27 0 44 -43 30 -75 l-12 -25
-45 0 c-45 0 -111 -26 -147 -58 -23 -20 -22 -61 2 -92 26 -33 25 -42 -5 -70
-14 -13 -25 -32 -25 -42 l0 -18 86 0 86 0 -6 34 c-8 40 2 46 72 46 l46 0 67
45 c37 25 79 59 93 76 l26 31 0 99 0 99 -68 74 c-80 86 -121 154 -100 167 21
14 85 10 125 -6 25 -11 72 -15 165 -15 l130 0 65 -30 c35 -17 69 -30 75 -30 5
0 39 -14 75 -30 35 -17 69 -30 75 -30 31 0 171 -90 207 -134 7 -9 25 -16 40
-16 49 0 172 -47 226 -86 17 -12 139 -59 273 -103 l243 -81 115 0 115 0 59 30
60 30 0 69 0 68 -48 40 c-26 22 -67 50 -91 62 -24 13 -62 36 -84 52 -22 16
-46 29 -54 29 -8 0 -40 12 -70 26 -31 14 -90 36 -130 49 -41 14 -87 33 -102
44 -41 30 -145 61 -201 61 -28 0 -67 7 -87 15 -19 8 -53 15 -75 15 -21 0 -55
7 -75 15 -19 8 -53 15 -75 15 -21 0 -55 7 -75 15 -19 8 -53 15 -75 15 -63 0
-238 93 -326 174 -13 11 -49 34 -80 51 -34 19 -68 47 -86 73 -17 24 -50 54
-73 67 -62 35 -129 92 -298 256 -82 80 -166 156 -186 169 -20 13 -46 39 -60
59 -13 20 -42 56 -64 81 -23 25 -50 59 -60 75 -11 17 -47 60 -82 98 -34 37
-74 90 -88 118 -15 28 -46 75 -70 105 -27 32 -51 76 -60 108 -9 29 -33 83 -55
119 -22 36 -40 72 -40 79 0 7 -14 33 -30 58 -21 32 -30 57 -30 86 0 23 -7 58
-15 77 -8 20 -15 51 -15 68 0 36 34 145 53 169 21 28 61 50 88 50 15 0 43 7
62 15 28 12 80 15 222 15 142 0 194 -3 222 -15 19 -8 52 -15 72 -15 20 0 56
-6 81 -14 59 -19 125 -36 176 -45 22 -4 54 -17 70 -28 34 -25 142 -63 176 -63
13 0 41 -12 62 -26 21 -15 101 -58 177 -95 87 -44 157 -87 191 -117 29 -26 70
-59 90 -72 20 -14 49 -44 64 -68 35 -55 59 -72 105 -72 50 0 69 24 69 90 l0
53 -87 89 c-49 50 -105 101 -126 114 -20 14 -62 47 -92 74 -30 28 -62 50 -71
50 -26 0 -83 30 -174 92 -47 32 -96 58 -110 58 -40 0 -218 65 -243 88 -16 15
-36 22 -63 22 -21 0 -59 9 -83 20 -29 14 -65 20 -110 20 -60 0 -158 24 -178
43 -11 12 -92 8 -113 -5 -15 -10 -22 -10 -32 0 -15 15 -134 16 -143 2z m1983
-2700 c17 -8 32 -18 32 -23 0 -5 -3 -7 -7 -5 -5 3 -23 11 -40 18 -18 8 -33 18
-33 23 0 5 3 7 8 5 4 -3 22 -11 40 -18z m157 -50 c4 -6 -6 -10 -24 -10 -16 0
-33 5 -36 10 -4 6 6 10 24 10 16 0 33 -4 36 -10z"/>
</g>
</svg>
