<?xml version="1.0" standalone="no"?>
<!DOCTYPE svg PUBLIC "-//W3C//DTD SVG 20010904//EN"
 "http://www.w3.org/TR/2001/REC-SVG-20010904/DTD/svg10.dtd">
<svg version="1.0" xmlns="http://www.w3.org/2000/svg"
 width="345.000000pt" height="357.000000pt" viewBox="0 0 345.000000 357.000000"
 preserveAspectRatio="xMidYMid meet">
<metadata>
Created by potrace 1.16, written by Peter Selinger 2001-2019
</metadata>
<g transform="translate(0.000000,357.000000) scale(0.100000,-0.100000)"
fill="#000000" stroke="none">
<path d="M425 3560 c-3 -5 -33 -10 -65 -10 -57 0 -150 -32 -150 -52 0 -4 -35
-34 -78 -66 -60 -46 -82 -70 -96 -103 -10 -24 -22 -52 -27 -61 -12 -24 -11
-334 1 -356 19 -33 60 -175 60 -207 0 -26 7 -37 35 -56 19 -13 41 -37 49 -54
7 -16 33 -73 57 -125 24 -52 58 -110 75 -130 18 -19 45 -57 61 -85 26 -44 41
-57 102 -85 8 -4 18 -19 23 -35 4 -16 30 -52 58 -80 29 -29 68 -77 89 -106 29
-42 47 -57 81 -69 29 -10 51 -26 65 -47 11 -18 29 -47 40 -65 13 -20 32 -35
52 -40 18 -5 40 -20 50 -34 40 -58 87 -105 112 -111 14 -3 50 -33 80 -65 29
-32 92 -84 139 -115 47 -31 99 -68 116 -83 17 -14 49 -37 71 -49 22 -13 62
-47 88 -77 34 -37 60 -57 87 -64 22 -6 61 -31 92 -59 52 -47 124 -91 150 -91
8 0 51 -25 96 -55 106 -70 125 -80 220 -111 52 -16 95 -38 126 -64 27 -22 57
-40 67 -40 11 0 36 -15 56 -34 l37 -34 -13 -16 c-7 -9 -19 -16 -25 -16 -6 0
-31 -14 -56 -30 -25 -16 -57 -30 -71 -30 -15 0 -43 -7 -62 -15 -28 -11 -78
-15 -207 -15 -129 0 -179 4 -207 15 -22 9 -67 15 -120 15 l-85 0 -65 30 c-35
16 -81 30 -101 30 -20 0 -57 6 -82 14 -60 19 -125 35 -182 46 -26 5 -56 13
-67 19 -11 6 -38 11 -61 11 -22 0 -57 7 -77 15 -19 8 -47 15 -60 15 -29 0 -85
25 -128 56 -16 12 -63 38 -102 58 -102 51 -185 49 -213 -4 -14 -26 36 -127 94
-190 23 -25 63 -78 89 -117 27 -40 66 -85 87 -100 21 -16 51 -47 65 -69 32
-50 228 -241 309 -301 32 -24 66 -43 77 -43 10 0 21 -4 24 -10 11 -18 64 -11
75 9 17 32 12 58 -25 131 -26 51 -46 77 -75 95 -22 14 -47 37 -57 52 -9 16
-39 52 -66 82 -26 29 -54 69 -63 89 l-15 36 14 14 14 13 38 -15 c21 -9 62 -16
92 -16 29 0 70 -7 90 -15 19 -8 60 -15 90 -15 40 0 73 -8 120 -30 51 -24 78
-30 132 -30 49 0 90 -8 151 -30 l85 -30 146 0 c108 0 156 4 183 15 l35 15 45
-12 44 -12 59 26 c32 14 69 28 83 31 14 4 55 24 92 47 37 22 78 40 92 40 13 0
54 13 89 30 84 39 138 39 247 0 l85 -30 151 0 151 0 44 31 c24 17 56 43 71 57
l28 26 0 56 c0 67 -27 129 -66 155 -15 10 -46 35 -69 56 -67 62 -157 119 -188
119 -15 0 -44 7 -64 15 -46 19 -140 19 -186 0 -20 -8 -49 -15 -65 -15 -32 0
-56 -22 -65 -61 -12 -48 -109 -119 -163 -119 -43 0 -235 74 -271 105 -39 33
-113 75 -133 75 -27 0 -149 64 -193 102 -26 22 -62 44 -81 49 -18 5 -51 25
-73 44 -22 19 -77 53 -122 75 -51 25 -107 64 -149 103 -37 35 -88 75 -113 90
-25 14 -53 37 -62 51 -9 14 -41 41 -71 61 -30 19 -83 64 -118 98 -34 34 -82
75 -105 91 -47 32 -303 290 -303 306 0 5 -34 47 -75 91 -41 45 -75 85 -75 90
0 5 -25 37 -56 71 -31 35 -67 84 -80 111 -14 26 -53 90 -88 141 -35 52 -68
114 -74 138 -6 24 -27 70 -47 103 -45 73 -75 157 -75 206 0 20 -7 53 -16 74
l-15 37 15 47 c8 25 18 62 21 82 9 62 43 101 110 125 l60 22 188 1 c146 1 196
-2 224 -14 23 -10 69 -15 135 -15 l99 0 56 -26 c31 -14 91 -36 132 -50 42 -13
100 -36 129 -49 29 -14 58 -25 64 -25 14 0 208 -95 228 -112 8 -7 30 -32 48
-55 19 -24 40 -43 49 -43 26 0 68 -30 93 -68 50 -72 122 -93 159 -46 46 59 15
146 -76 214 -32 23 -71 55 -88 71 -16 15 -75 50 -130 79 -55 28 -125 67 -155
86 -30 19 -66 37 -80 41 -14 3 -61 22 -105 43 -56 26 -101 40 -150 45 -38 4
-85 13 -104 21 -18 8 -51 14 -73 14 -21 0 -55 7 -75 15 -20 9 -66 15 -109 15
-40 0 -76 5 -79 10 -4 6 -73 10 -175 10 -102 0 -171 -4 -175 -10z m2649 -2731
c53 -15 128 -92 124 -128 l-3 -26 -47 -3 c-26 -2 -62 4 -83 12 -21 9 -63 16
-94 16 -73 0 -96 15 -87 57 15 67 96 98 190 72z"/>
</g>
</svg>
