<?xml version="1.0" standalone="no"?>
<!DOCTYPE svg PUBLIC "-//W3C//DTD SVG 20010904//EN"
 "http://www.w3.org/TR/2001/REC-SVG-20010904/DTD/svg10.dtd">
<svg version="1.0" xmlns="http://www.w3.org/2000/svg"
 width="228.000000pt" height="363.000000pt" viewBox="0 0 228.000000 363.000000"
 preserveAspectRatio="xMidYMid meet">
<metadata>
Created by potrace 1.16, written by Peter Selinger 2001-2019
</metadata>
<g transform="translate(0.000000,363.000000) scale(0.100000,-0.100000)"
fill="#000000" stroke="none">
<path d="M397 3623 c-12 -11 -110 -43 -135 -43 -42 0 -212 -102 -232 -140 -6
-10 -10 -46 -10 -79 0 -33 -4 -63 -10 -66 -13 -8 -13 -192 0 -200 6 -3 10 -26
10 -51 0 -62 30 -118 148 -274 17 -24 32 -51 32 -61 0 -10 25 -46 55 -80 31
-35 59 -77 65 -99 8 -28 38 -64 125 -149 l115 -111 0 -30 c0 -23 9 -36 44 -62
24 -18 54 -49 67 -68 32 -47 186 -203 229 -232 23 -16 40 -38 50 -67 11 -32
27 -53 60 -76 25 -18 49 -44 55 -61 15 -45 23 -53 73 -78 60 -30 102 -72 109
-109 4 -19 23 -41 57 -67 28 -21 69 -65 92 -97 25 -36 52 -62 70 -68 46 -16
54 -24 54 -58 0 -47 63 -133 200 -273 85 -86 121 -130 128 -157 6 -20 28 -58
50 -84 22 -26 52 -71 66 -100 14 -28 41 -64 60 -78 27 -21 36 -36 42 -70 11
-79 -37 -193 -97 -229 -33 -19 -159 -22 -177 -4 -7 7 -12 32 -12 58 -1 35 -13
69 -58 155 l-57 110 -70 37 c-92 48 -184 78 -242 78 l-46 0 -59 -58 -58 -59 0
-76 c0 -108 31 -199 82 -240 21 -16 38 -38 38 -47 0 -9 8 -24 18 -32 28 -26
140 -78 165 -78 24 0 122 -32 134 -43 3 -4 74 -7 156 -7 l149 0 30 21 c19 14
53 24 95 29 l65 6 52 56 c28 31 63 72 79 91 l27 35 0 145 0 145 -15 12 c-8 7
-20 31 -27 54 -7 22 -29 61 -50 85 -21 24 -40 59 -44 78 -5 25 -18 43 -49 66
-24 18 -53 48 -66 67 -13 19 -54 68 -91 109 -38 40 -68 77 -68 82 0 5 -40 53
-90 105 -49 53 -90 100 -90 105 0 5 -32 44 -72 86 -39 43 -80 97 -90 121 l-20
43 11 31 c13 37 5 53 -49 101 -26 24 -50 37 -68 37 -15 0 -44 8 -65 19 -41 21
-164 148 -213 218 -17 25 -54 62 -84 82 -29 20 -71 62 -94 94 -23 32 -55 67
-73 77 -18 10 -40 32 -50 47 -9 15 -55 68 -100 116 -46 48 -83 92 -83 97 0 6
-21 33 -48 62 -26 29 -69 87 -97 128 -27 41 -66 95 -86 120 -64 78 -189 351
-189 414 0 10 -7 39 -17 65 -29 83 4 134 110 170 l63 21 210 0 c153 0 221 -4
254 -14 87 -28 136 -38 210 -45 41 -4 85 -13 97 -19 12 -7 34 -12 50 -12 15 0
70 -20 121 -45 52 -25 106 -45 120 -45 15 0 47 -14 72 -30 25 -16 52 -30 60
-30 86 -2 375 -247 400 -339 6 -22 22 -49 37 -60 33 -27 94 -28 116 -3 22 24
22 103 0 145 -9 18 -26 59 -38 92 l-21 60 -96 65 c-53 36 -107 75 -121 88 -13
13 -40 27 -59 32 -19 6 -52 25 -74 44 -40 34 -114 76 -134 76 -6 0 -37 12 -67
26 -31 14 -91 36 -132 50 -42 13 -100 36 -129 49 l-53 25 -85 0 c-53 0 -98 6
-121 15 -20 8 -66 15 -105 15 -38 0 -84 7 -105 15 -25 10 -71 15 -154 15 -68
0 -120 4 -124 10 -7 11 -98 14 -108 3z m1072 -3267 c55 -59 59 -67 36 -86
l-15 -12 -31 18 c-38 23 -73 85 -64 114 3 11 10 20 14 20 5 0 31 -24 60 -54z"/>
</g>
</svg>
