<?xml version="1.0" standalone="no"?>
<!DOCTYPE svg PUBLIC "-//W3C//DTD SVG 20010904//EN"
 "http://www.w3.org/TR/2001/REC-SVG-20010904/DTD/svg10.dtd">
<svg version="1.0" xmlns="http://www.w3.org/2000/svg"
 width="306.000000pt" height="477.000000pt" viewBox="0 0 306.000000 477.000000"
 preserveAspectRatio="xMidYMid meet">
<metadata>
Created by potrace 1.16, written by Peter Selinger 2001-2019
</metadata>
<g transform="translate(0.000000,477.000000) scale(0.100000,-0.100000)"
fill="#000000" stroke="none">
<path d="M515 4760 c-3 -5 -25 -10 -48 -10 -23 -1 -87 -16 -142 -35 l-100 -34
-29 -36 c-16 -20 -41 -42 -57 -50 -15 -8 -48 -45 -73 -83 l-46 -68 0 -91 c0
-51 -4 -95 -10 -98 -13 -8 -13 -132 0 -140 6 -3 10 -34 10 -68 l0 -62 30 -45
c16 -25 30 -56 30 -70 1 -60 37 -130 103 -200 46 -49 68 -81 73 -106 5 -26 18
-44 49 -67 24 -18 53 -48 66 -67 12 -19 45 -58 72 -86 27 -28 65 -76 86 -105
26 -38 47 -57 72 -65 25 -8 42 -25 66 -65 37 -60 67 -89 92 -89 30 0 131 -79
131 -102 0 -32 126 -156 172 -168 24 -7 62 -33 102 -71 90 -84 174 -139 212
-139 17 0 38 -8 45 -17 22 -26 130 -103 145 -103 7 0 47 -34 89 -75 53 -54 75
-83 75 -101 0 -32 25 -81 60 -119 15 -16 30 -41 33 -55 4 -14 22 -50 41 -80
19 -30 53 -89 75 -131 22 -43 65 -114 96 -160 30 -46 55 -90 55 -99 0 -8 18
-41 40 -73 22 -33 42 -74 46 -93 4 -23 19 -44 45 -65 22 -17 42 -43 45 -57 4
-15 19 -48 35 -73 16 -25 29 -58 29 -73 0 -35 91 -214 124 -245 l26 -24 0 -47
c0 -36 7 -56 29 -87 16 -22 37 -55 46 -74 10 -19 30 -47 45 -64 15 -16 30 -41
33 -55 4 -14 22 -50 41 -80 70 -109 106 -192 106 -241 l0 -47 40 -32 c22 -17
43 -44 46 -58 4 -15 18 -46 33 -69 l26 -42 68 -1 67 0 0 94 0 95 -19 6 c-11 3
-26 16 -33 28 -24 37 -58 151 -58 194 0 29 -9 52 -31 83 -34 47 -119 216 -119
237 0 19 -66 148 -105 205 -18 26 -37 63 -40 80 -9 42 -67 157 -110 220 -18
26 -36 63 -40 80 -4 18 -23 58 -42 88 -66 105 -113 189 -113 203 0 8 -18 37
-41 63 -22 27 -67 101 -100 164 -32 63 -68 131 -78 150 -31 56 -62 140 -56
150 3 6 35 10 70 10 93 0 186 33 230 81 l35 39 0 68 0 67 -25 37 c-14 21 -31
54 -38 75 -9 27 -26 47 -62 71 -28 19 -63 52 -79 74 -26 36 -89 78 -118 78 -7
0 -33 14 -58 30 -25 16 -57 30 -71 30 -14 0 -41 5 -59 12 -67 23 -213 -35
-255 -103 -14 -22 -37 -45 -51 -51 l-25 -11 -32 31 c-18 18 -39 32 -47 32 -7
0 -34 13 -59 29 -25 16 -59 32 -74 35 -17 4 -69 45 -125 99 -54 51 -116 106
-140 121 -23 16 -87 77 -142 135 -117 125 -126 135 -207 210 -37 34 -65 70
-69 87 -4 16 -27 49 -51 74 -106 107 -183 202 -193 239 -5 21 -19 46 -30 56
-38 34 -114 160 -121 200 -9 48 -26 112 -47 182 l-16 51 12 41 c7 22 15 83 19
136 3 53 11 99 17 103 35 22 118 42 177 42 37 0 83 7 102 15 25 10 71 15 147
15 76 0 122 -5 147 -15 19 -8 60 -15 90 -15 29 0 70 -7 90 -15 19 -8 47 -15
60 -15 14 0 54 -13 90 -30 35 -16 70 -30 76 -30 7 0 32 -14 57 -30 25 -16 51
-30 58 -30 29 0 150 -64 201 -106 29 -24 60 -44 68 -44 29 0 103 -41 120 -66
10 -15 30 -40 45 -55 l26 -29 52 0 c57 0 84 11 100 40 13 24 -10 74 -46 103
-13 10 -24 26 -24 36 0 22 -27 46 -60 54 -14 4 -43 22 -65 40 -22 19 -60 44
-85 57 -25 13 -58 33 -75 46 -36 27 -229 124 -247 124 -8 0 -30 11 -49 24 -45
31 -148 66 -191 66 -18 0 -53 6 -78 14 -82 26 -135 38 -185 43 -27 3 -54 9
-60 14 -13 12 -282 12 -290 -1z m1460 -2189 l40 -6 30 -51 c18 -30 47 -61 73
-77 52 -32 50 -51 -4 -55 l-40 -3 -27 31 c-20 22 -36 30 -61 30 -43 0 -79 29
-100 80 -20 51 -12 74 23 64 14 -4 44 -10 66 -13z"/>
</g>
</svg>
