<?xml version="1.0" standalone="no"?>
<!DOCTYPE svg PUBLIC "-//W3C//DTD SVG 20010904//EN"
 "http://www.w3.org/TR/2001/REC-SVG-20010904/DTD/svg10.dtd">
<svg version="1.0" xmlns="http://www.w3.org/2000/svg"
 width="612.000000pt" height="69.000000pt" viewBox="0 0 612.000000 69.000000"
 preserveAspectRatio="xMidYMid meet">
<metadata>
Created by potrace 1.16, written by Peter Selinger 2001-2019
</metadata>
<g transform="translate(0.000000,69.000000) scale(0.100000,-0.100000)"
fill="#000000" stroke="none">
<path d="M105 658 c-16 -16 -33 -33 -37 -36 -44 -41 -68 -83 -68 -120 0 -23 4
-44 10 -47 5 -3 10 -15 10 -26 0 -28 72 -103 150 -155 l66 -44 55 0 c29 0 74
-6 99 -14 57 -18 124 -35 175 -45 22 -4 76 -19 120 -33 44 -14 100 -32 125
-39 33 -9 157 -14 455 -16 l409 -3 38 15 c21 8 56 15 78 15 22 0 66 13 103 30
36 17 70 30 75 30 6 0 52 20 104 45 51 25 99 45 105 45 7 0 63 25 125 57 l113
56 145 9 c186 11 173 10 325 4 134 -6 191 -20 303 -71 29 -14 57 -25 63 -25 6
0 40 -13 76 -30 35 -16 77 -30 92 -30 16 0 47 -14 71 -33 24 -17 61 -45 83
-60 50 -36 73 -63 89 -104 l12 -33 76 0 77 0 13 40 13 40 -24 52 c-13 29 -39
77 -57 107 l-33 55 14 14 14 14 59 -27 c33 -15 93 -38 135 -52 83 -26 106 -43
144 -103 31 -50 51 -60 115 -60 l52 0 29 29 c16 16 29 38 29 49 0 11 -21 63
-46 115 -30 62 -44 102 -40 115 12 36 55 69 119 90 58 19 214 38 282 34 262
-14 323 -19 342 -30 12 -6 39 -12 59 -12 21 0 98 -20 171 -45 73 -25 148 -45
168 -45 20 0 52 -7 72 -15 19 -8 46 -15 60 -15 13 0 54 -18 91 -40 36 -22 83
-45 104 -51 76 -20 161 -73 191 -117 36 -53 108 -92 172 -92 l45 0 0 68 -1 67
-42 46 c-23 25 -69 67 -102 92 -34 25 -67 52 -74 61 -9 11 -30 16 -61 16 -35
0 -52 5 -66 21 -64 71 -191 129 -282 129 -28 0 -83 13 -132 30 -47 16 -101 30
-120 30 -20 0 -74 13 -120 30 l-85 30 -147 0 c-87 0 -149 4 -153 10 -8 13
-222 13 -230 0 -3 -5 -31 -10 -61 -10 -101 0 -262 -69 -352 -151 -65 -59 -90
-67 -156 -47 -97 30 -141 40 -191 45 l-50 5 -95 -46 c-52 -25 -105 -46 -118
-46 -13 0 -48 11 -77 25 -30 13 -102 40 -160 60 l-105 35 -109 0 c-61 0 -122
5 -137 10 -19 7 -37 7 -60 0 -25 -9 -40 -8 -69 5 -47 19 -83 19 -128 0 -24
-10 -70 -15 -139 -15 l-103 0 -45 -30 c-25 -16 -52 -30 -60 -30 -9 0 -32 -11
-53 -25 -20 -14 -72 -37 -115 -51 -42 -14 -90 -35 -107 -47 -58 -43 -178 -87
-236 -87 -20 0 -53 -7 -72 -15 l-36 -15 -319 0 -318 0 -84 30 c-47 16 -102 30
-123 30 -21 0 -54 7 -74 15 -19 8 -47 15 -60 15 -57 0 -113 60 -140 149 l-14
50 -80 76 -81 75 -121 -1 -122 -1 -30 -30z"/>
</g>
</svg>
