<?xml version="1.0" standalone="no"?>
<!DOCTYPE svg PUBLIC "-//W3C//DTD SVG 20010904//EN"
 "http://www.w3.org/TR/2001/REC-SVG-20010904/DTD/svg10.dtd">
<svg version="1.0" xmlns="http://www.w3.org/2000/svg"
 width="492.000000pt" height="72.000000pt" viewBox="0 0 492.000000 72.000000"
 preserveAspectRatio="xMidYMid meet">
<metadata>
Created by potrace 1.16, written by Peter Selinger 2001-2019
</metadata>
<g transform="translate(0.000000,72.000000) scale(0.100000,-0.100000)"
fill="#000000" stroke="none">
<path d="M0 671 c0 -33 5 -53 16 -62 9 -8 27 -31 40 -51 27 -43 70 -67 181
-103 43 -14 102 -37 131 -50 29 -14 63 -25 75 -25 13 0 61 -13 107 -30 53 -18
105 -30 138 -30 29 0 69 -7 89 -15 l35 -15 433 0 433 0 35 15 c20 8 47 15 61
15 14 0 54 14 89 30 36 17 70 30 75 30 6 0 40 13 75 30 l65 30 246 0 c197 0
254 -3 283 -15 19 -8 45 -15 57 -15 27 0 215 -63 284 -95 29 -14 57 -25 63
-25 20 0 137 -58 180 -89 l42 -31 67 0 c90 0 100 12 100 113 0 84 -1 82 75
109 65 24 278 25 332 3 19 -8 54 -15 77 -15 34 0 48 -6 71 -30 19 -20 39 -30
57 -30 16 0 45 -7 65 -15 19 -8 60 -15 90 -15 29 0 70 -7 90 -15 19 -8 47 -15
61 -15 38 0 339 -152 396 -199 26 -23 56 -41 66 -41 11 0 22 -4 25 -10 3 -5
31 -10 61 -10 l54 0 0 68 0 68 -37 38 c-75 75 -152 126 -228 151 -41 13 -92
36 -112 50 -21 14 -49 25 -62 25 -14 0 -85 20 -158 45 -105 36 -146 45 -200
45 l-68 0 -45 30 -45 30 -88 0 c-55 0 -101 6 -124 15 -24 10 -71 15 -150 15
-119 0 -165 -10 -285 -63 -29 -13 -79 -32 -111 -43 l-58 -18 -48 17 c-27 9
-59 17 -72 17 -13 0 -66 20 -117 45 l-94 45 -54 0 c-30 0 -71 7 -91 15 -20 8
-66 15 -105 15 -38 0 -84 7 -105 15 -48 20 -198 20 -246 0 -21 -8 -67 -15
-106 -15 l-70 0 -64 -30 c-36 -16 -70 -30 -75 -30 -6 0 -40 -13 -75 -30 -47
-22 -80 -30 -120 -30 -30 0 -71 -7 -90 -15 l-36 -15 -321 0 -321 0 -36 15
c-20 8 -66 15 -105 15 -38 0 -84 7 -105 15 -19 8 -53 15 -75 15 -22 0 -64 11
-94 25 -31 14 -110 43 -176 65 -75 25 -140 54 -170 75 l-48 35 -65 0 -65 0 0
-49z"/>
</g>
</svg>
