<?xml version="1.0" standalone="no"?>
<!DOCTYPE svg PUBLIC "-//W3C//DTD SVG 20010904//EN"
 "http://www.w3.org/TR/2001/REC-SVG-20010904/DTD/svg10.dtd">
<svg version="1.0" xmlns="http://www.w3.org/2000/svg"
 width="342.000000pt" height="426.000000pt" viewBox="0 0 342.000000 426.000000"
 preserveAspectRatio="xMidYMid meet">
<metadata>
Created by potrace 1.16, written by Peter Selinger 2001-2019
</metadata>
<g transform="translate(0.000000,426.000000) scale(0.100000,-0.100000)"
fill="#000000" stroke="none">
<path d="M1075 4244 c-11 -8 -49 -30 -84 -47 -83 -42 -131 -94 -131 -145 0
-44 47 -118 140 -219 66 -73 87 -110 71 -126 -7 -7 -25 0 -53 19 -24 16 -50
33 -59 39 -124 76 -163 103 -214 146 -33 27 -70 52 -83 56 -26 6 -93 -21 -118
-48 -19 -21 -15 -93 10 -178 8 -29 13 -58 10 -62 -3 -5 -29 -9 -58 -9 l-53 0
-43 33 c-107 80 -167 117 -189 117 -13 0 -41 5 -61 11 -49 15 -81 6 -125 -32
l-35 -31 0 -44 0 -43 29 -15 c41 -22 161 -104 191 -131 14 -13 48 -34 75 -49
61 -31 72 -40 113 -93 l34 -43 32 0 c23 0 41 -9 61 -30 16 -16 35 -30 42 -30
48 0 162 -82 252 -182 29 -32 57 -51 82 -58 23 -6 46 -21 56 -37 10 -15 38
-45 62 -69 55 -53 92 -90 145 -145 24 -24 54 -52 69 -62 15 -10 31 -33 36 -55
6 -20 26 -62 45 -92 20 -30 58 -100 86 -154 l50 -99 0 -55 c0 -30 5 -72 11
-92 l11 -38 -26 -38 c-14 -21 -26 -46 -26 -54 0 -22 -20 -40 -43 -40 -27 0
-77 -54 -77 -83 0 -96 183 -65 303 51 l47 46 0 43 c0 23 7 60 16 82 25 63 16
143 -37 319 -37 121 -155 317 -252 418 -27 28 -65 76 -86 105 -29 42 -47 57
-81 69 -43 15 -50 23 -80 90 -4 8 -27 26 -53 40 -25 14 -67 48 -94 75 -26 28
-65 61 -85 75 -21 14 -38 32 -38 40 1 8 33 34 72 58 l72 43 50 -11 c28 -6 72
-18 97 -26 76 -23 181 -19 239 11 64 33 80 57 80 124 l0 55 -112 111 c-168
166 -268 276 -268 296 0 10 10 25 22 33 l22 16 261 0 c197 0 271 -3 305 -14
60 -19 125 -35 182 -46 26 -5 56 -13 67 -19 11 -6 46 -11 78 -11 l58 0 45 -30
45 -30 58 0 c32 0 74 -7 94 -15 19 -8 53 -15 75 -15 28 0 57 -10 97 -35 60
-37 181 -84 216 -85 22 0 121 -32 170 -55 17 -8 52 -32 79 -55 26 -22 55 -40
63 -40 30 0 149 -63 202 -106 59 -49 98 -56 151 -29 l30 16 0 44 0 44 -47 38
c-26 21 -67 57 -92 79 -45 40 -118 84 -141 84 -19 0 -139 58 -173 84 -33 25
-231 96 -268 96 -11 0 -50 14 -86 30 -35 17 -69 30 -75 30 -5 0 -39 14 -75 30
l-64 30 -70 0 c-39 0 -85 7 -106 15 -19 8 -45 15 -56 15 -12 0 -62 13 -112 29
-138 44 -175 53 -245 58 -36 3 -69 9 -74 14 -6 5 -147 9 -325 9 l-316 -1 -20
-15z"/>
<path d="M675 2733 c-38 -19 -85 -49 -103 -65 -19 -16 -51 -40 -73 -53 -29
-19 -49 -44 -79 -105 l-40 -80 0 -89 c0 -56 5 -102 15 -124 9 -23 15 -68 15
-122 l0 -85 39 -78 c22 -42 49 -90 60 -107 12 -16 21 -37 21 -47 0 -9 15 -35
34 -57 19 -23 73 -100 121 -171 47 -72 95 -136 106 -143 11 -7 38 -37 61 -67
23 -30 61 -75 85 -100 24 -25 95 -98 156 -163 62 -65 122 -120 134 -123 12 -3
67 -50 122 -104 62 -61 143 -126 217 -176 66 -43 143 -100 172 -126 29 -27 60
-48 70 -48 10 0 56 -25 102 -56 47 -32 117 -73 155 -92 39 -19 91 -52 117 -73
25 -21 79 -55 120 -75 40 -21 87 -47 103 -59 72 -54 158 -89 236 -95 55 -5 84
-12 106 -28 20 -14 46 -22 72 -22 l41 0 0 34 c0 40 -79 156 -106 156 -21 0
-200 89 -274 136 -30 19 -66 37 -80 41 -34 8 -168 89 -205 123 -16 15 -44 31
-61 34 -17 4 -60 31 -95 61 -35 30 -94 70 -130 90 -36 19 -94 59 -128 90 -34
30 -65 55 -70 55 -5 0 -45 34 -90 75 -44 41 -85 75 -90 75 -4 0 -44 33 -89 73
-44 39 -92 80 -106 90 -14 10 -29 30 -32 45 -9 38 -21 50 -75 78 -26 13 -56
36 -66 51 -10 15 -46 55 -80 89 -34 35 -70 78 -79 96 -9 18 -39 57 -66 87 -27
30 -60 76 -74 103 -13 26 -53 91 -89 143 -35 53 -67 110 -70 128 -4 17 -17 52
-30 77 -23 48 -56 152 -74 235 -13 60 0 111 50 196 19 32 42 71 51 88 9 17 30
36 45 42 126 50 163 78 163 124 0 39 -30 55 -101 55 l-64 -1 -70 -36z"/>
</g>
</svg>
