<?xml version="1.0" standalone="no"?>
<!DOCTYPE svg PUBLIC "-//W3C//DTD SVG 20010904//EN"
 "http://www.w3.org/TR/2001/REC-SVG-20010904/DTD/svg10.dtd">
<svg version="1.0" xmlns="http://www.w3.org/2000/svg"
 width="561.000000pt" height="294.000000pt" viewBox="0 0 561.000000 294.000000"
 preserveAspectRatio="xMidYMid meet">
<metadata>
Created by potrace 1.16, written by Peter Selinger 2001-2019
</metadata>
<g transform="translate(0.000000,294.000000) scale(0.100000,-0.100000)"
fill="#000000" stroke="none">
<path d="M3725 2930 c-3 -5 -34 -10 -68 -10 l-62 0 -60 -41 c-64 -43 -121 -94
-135 -120 -14 -25 15 -105 58 -157 34 -41 102 -164 102 -184 0 -4 -8 -4 -17
-1 -25 9 -123 82 -123 91 0 12 -78 47 -137 62 l-52 14 -41 -19 c-23 -10 -54
-34 -71 -52 l-29 -34 12 -22 c16 -31 48 -77 74 -107 12 -14 46 -61 76 -105 75
-113 124 -176 194 -254 34 -37 73 -86 87 -109 15 -22 46 -57 70 -77 25 -21 55
-56 67 -79 13 -22 55 -75 94 -116 40 -41 107 -129 151 -195 43 -66 104 -147
135 -180 31 -33 65 -73 75 -90 11 -16 47 -60 82 -98 34 -37 74 -89 88 -116 14
-28 42 -62 64 -78 46 -33 71 -70 71 -107 0 -46 46 -122 92 -153 31 -21 47 -40
58 -73 12 -34 27 -52 67 -80 29 -19 64 -54 79 -77 15 -24 49 -63 75 -88 l48
-45 61 0 c101 0 124 29 76 93 -13 18 -34 52 -46 77 -13 25 -51 75 -86 113 -35
37 -76 91 -90 120 -15 28 -55 82 -90 119 -36 38 -67 82 -72 101 -15 52 -112
189 -224 313 -42 46 -71 89 -77 112 -7 23 -30 56 -61 87 -28 28 -76 88 -107
135 -31 47 -69 99 -83 115 -14 17 -47 63 -73 102 -26 39 -63 82 -82 97 -22 17
-38 40 -45 64 -5 21 -22 49 -36 63 -30 27 -84 98 -84 110 0 20 35 39 71 39 46
0 123 36 158 74 19 20 24 37 25 83 l2 58 -68 74 c-38 41 -68 78 -68 83 0 4
-31 42 -69 83 -55 59 -73 86 -86 131 l-16 57 13 8 c23 15 195 10 235 -6 19 -8
60 -15 90 -15 29 0 70 -7 90 -15 20 -8 66 -15 105 -15 38 0 84 -7 105 -15 19
-8 45 -15 56 -15 11 0 101 -27 199 -60 98 -33 193 -60 211 -60 48 0 185 -51
236 -88 24 -18 52 -32 61 -32 9 0 62 -22 117 -49 l101 -49 91 -86 90 -86 66 0
65 0 0 58 0 59 -23 12 c-13 7 -37 33 -54 59 -53 82 -228 222 -277 222 -18 0
-50 13 -76 30 -25 16 -52 30 -61 30 -8 0 -57 20 -108 45 -73 36 -103 45 -145
45 -32 0 -84 11 -136 30 -47 16 -94 30 -105 30 -26 0 -153 43 -204 69 l-40 21
-116 0 c-80 0 -127 5 -152 15 -19 8 -53 15 -75 15 -21 0 -55 7 -75 15 -19 8
-62 15 -94 15 -32 0 -61 5 -64 10 -3 6 -21 10 -40 10 -19 0 -37 -4 -40 -10z"/>
<path d="M33 847 c-41 -28 -46 -77 -9 -96 13 -7 36 -33 51 -57 42 -66 89 -104
129 -104 36 0 191 -72 256 -119 32 -23 54 -31 86 -31 51 0 86 -12 136 -46 20
-14 52 -30 70 -34 33 -8 71 -21 138 -46 19 -7 60 -16 90 -19 30 -3 78 -16 105
-29 64 -31 110 -46 160 -55 22 -4 58 -20 79 -35 23 -15 46 -24 55 -20 39 15
80 15 115 0 28 -11 71 -16 152 -16 l114 0 47 -24 c57 -29 112 -49 133 -48 8 1
38 4 65 8 36 4 62 2 89 -10 28 -12 70 -16 153 -16 78 0 125 -5 150 -15 26 -11
75 -15 184 -15 88 0 150 -4 154 -10 8 -13 282 -13 290 0 3 6 51 10 109 10 69
0 115 5 139 15 20 8 52 15 72 15 20 0 95 20 168 45 91 31 150 45 185 45 34 0
68 8 94 21 131 67 274 203 322 306 l29 62 -13 55 c-10 41 -10 62 -2 86 17 48
-12 87 -95 129 -53 27 -63 26 -123 -4 -86 -43 -98 -82 -50 -155 16 -25 30 -50
30 -56 0 -6 -11 -28 -25 -48 -16 -24 -25 -51 -25 -76 0 -50 -11 -79 -44 -111
-26 -26 -134 -69 -173 -69 -11 0 -37 -7 -56 -15 -20 -8 -54 -15 -75 -15 -22 0
-56 -7 -75 -15 -20 -8 -54 -15 -75 -15 -22 0 -56 -7 -75 -15 l-36 -15 -291 0
-291 0 -36 15 c-26 11 -76 15 -194 15 -123 0 -168 4 -199 16 -29 12 -55 15
-91 10 l-50 -7 -35 22 -35 21 -57 -6 -57 -6 -25 17 c-19 14 -54 20 -145 25
-141 7 -215 23 -298 64 -16 8 -44 14 -62 14 -20 0 -61 14 -98 35 -50 27 -75
35 -115 35 -70 0 -136 17 -203 51 -32 16 -72 29 -92 29 -23 0 -61 13 -100 35
-47 26 -76 35 -109 35 l-46 0 -53 40 c-30 22 -62 40 -71 40 -10 0 -42 14 -72
30 -29 17 -75 37 -102 45 -27 8 -65 26 -84 40 -51 39 -106 65 -132 64 -13 0
-37 -11 -55 -22z"/>
</g>
</svg>
