<?xml version="1.0" encoding="UTF-8" standalone="no"?>
<!-- Created with Inkscape (http://www.inkscape.org/) -->

<svg
   version="1.1"
   id="svg1"
   width="625.93359"
   height="196.13689"
   viewBox="0 0 625.93359 196.13689"
   xmlns="http://www.w3.org/2000/svg"
   xmlns:svg="http://www.w3.org/2000/svg">
  <defs
     id="defs1" />
  <g
     id="g1"
     transform="translate(-0.87017591,-0.54025661)">
    <path
       style="fill:#000000"
       d="m 313.5,191.60168 c -6.05,-2.94088 -13.475,-6.15561 -16.5,-7.14385 -15.82336,-5.16935 -14.42836,-4.24056 -16.44794,-10.95112 -1.73771,-5.77395 0.14169,-5.59547 18.44794,1.75191 22.07723,8.86091 24.41008,10.36308 26.38732,16.99138 1.79174,6.00642 1.80425,6.0071 -11.88732,-0.64832 z M 351,186.3506 c -20.6657,-6.77148 -44.91879,-24.56534 -35.68899,-26.18407 1.42251,-0.24948 20.75528,8.71858 37.43566,17.3656 0.13567,0.0703 0.87913,2.22937 1.65213,4.79787 1.48873,4.94666 1.0416,5.47558 -3.3988,4.0206 z m 270.19847,-29.95607 c -1.81584,-0.79328 -4.69806,-3.03288 -6.40493,-4.97689 -8.13313,-9.26312 -50.17361,-29.52269 -77.78087,-37.48308 -39.65807,-11.43518 -109.0841,-18.335162 -94.84069,-9.42585 11.51041,7.1998 15.54386,21.52123 8.07802,28.68232 -21.55568,20.67576 -100.77268,19.84088 -202.22878,-2.13133 -6.54856,-1.41821 -9.05274,-1.58603 -11,-0.73717 -3.70082,1.61328 -93.18583,2.17313 -113.52122,0.71023 C 86.299479,128.35661 79.094833,126.27792 76.538166,117.48329 74.69259,111.13473 74.758087,110.93877 81.546145,102.5 108.9692,68.408224 83.439964,32.674838 19.5,15.653722 4.747685,11.726587 3.3827777,10.931908 1.777677,5.3353894 0.0304902,-0.75654217 -0.6947439,-0.6451128 14.175837,3.4304609 90.188472,24.263211 125.45226,72.121666 95.418457,113.68936 c -2.934438,4.06135 115.823723,8.73513 119.842393,4.71645 0.32681,-0.3268 -0.9747,-1.9717 -2.89224,-3.65532 -6.65321,-5.84159 -11.82003,-19.48921 -8.68843,-22.949584 7.00707,-7.742727 22.98182,-7.431855 40.05384,0.779457 11.44638,5.505488 18.44982,20.139067 12.68625,26.507737 -1.46877,1.62298 -1.21965,1.80835 3.75327,2.79294 82.10923,16.25676 142.80595,17.68157 170.14966,3.99414 18.26609,-9.14345 12.01574,-17.14375 -13.82197,-17.69178 -30.84251,-0.65418 -38.23267,-12.641091 -10.6195,-17.224917 53.49805,-8.880752 117.28986,2.440976 177.95422,31.583207 28.0279,13.46416 39.22128,21.24341 41.21378,28.64301 0.58357,2.16721 1.30926,4.58725 1.61264,5.37785 0.68537,1.78603 -1.11794,1.73058 -5.4639,-0.16802 z m -385.3165,-43.55369 c 9.42613,-5.6253 10.89601,-8.75375 5.36803,-11.42515 -9.2726,-4.480995 -28.67812,-0.25125 -24.10848,5.25483 5.67779,6.84131 13.37139,9.37445 18.74045,6.17032 z"
       id="path1" />
  </g>
</svg>
