<?xml version="1.0" standalone="no"?>
<!DOCTYPE svg PUBLIC "-//W3C//DTD SVG 20010904//EN"
 "http://www.w3.org/TR/2001/REC-SVG-20010904/DTD/svg10.dtd">
<svg version="1.0" xmlns="http://www.w3.org/2000/svg"
 width="366.000000pt" height="162.000000pt" viewBox="0 0 366.000000 162.000000"
 preserveAspectRatio="xMidYMid meet">
<metadata>
Created by potrace 1.16, written by Peter Selinger 2001-2019
</metadata>
<g transform="translate(0.000000,162.000000) scale(0.100000,-0.100000)"
fill="#000000" stroke="none">
<path d="M130 1611 c0 -15 -53 -62 -92 -82 l-38 -19 0 -83 1 -82 42 -46 c58
-65 124 -109 161 -109 18 0 50 -13 76 -30 25 -16 51 -30 58 -30 8 0 43 -13 79
-30 35 -17 75 -30 89 -30 14 0 41 -7 61 -15 19 -8 54 -15 77 -15 29 0 54 -9
86 -30 25 -16 53 -30 63 -30 10 0 29 -11 42 -25 l25 -24 0 -76 0 -76 -25 -24
c-16 -17 -35 -25 -58 -25 -25 0 -51 -12 -96 -45 l-61 -45 0 -40 0 -39 78 -59
c72 -56 98 -80 205 -192 39 -41 77 -123 63 -137 -3 -3 -27 -20 -53 -37 l-48
-31 -3 -53 -3 -52 75 0 74 0 81 76 c45 42 84 86 87 98 5 23 -25 125 -53 181
-9 16 -46 62 -82 101 -36 39 -72 88 -80 109 l-13 38 31 24 c51 40 81 111 81
188 0 92 9 105 72 105 28 0 68 -5 89 -12 30 -8 48 -8 79 1 l39 12 37 -16 c44
-18 176 -20 207 -3 12 7 76 15 142 19 115 6 154 13 255 45 25 8 62 14 82 14
20 0 66 14 101 30 47 22 80 30 120 30 30 0 71 7 90 15 51 21 333 21 384 0 19
-8 65 -15 102 -15 67 0 211 -41 326 -94 28 -12 86 -33 129 -47 l80 -24 66 -67
67 -68 66 0 67 0 0 68 -1 67 -99 92 -100 93 -31 0 c-17 0 -60 14 -96 30 -35
17 -76 30 -91 30 -15 0 -47 14 -72 30 -25 16 -58 30 -73 30 -15 0 -44 7 -64
15 -19 8 -53 15 -75 15 -21 0 -55 7 -75 15 -28 12 -85 15 -275 15 -151 0 -247
-4 -259 -11 -11 -6 -41 -14 -67 -19 -67 -12 -124 -28 -227 -61 -50 -16 -100
-29 -112 -29 -11 0 -37 -7 -56 -15 l-36 -15 -321 0 -321 0 -36 15 c-19 8 -61
15 -93 15 l-57 0 -40 29 c-39 29 -90 86 -112 129 -7 12 -31 34 -54 49 -23 14
-76 59 -117 99 -58 56 -98 84 -176 123 -56 28 -109 51 -117 51 -9 0 -19 5 -22
10 -8 12 -255 14 -255 1z m241 -211 c10 0 33 -13 52 -30 19 -16 46 -34 60 -39
15 -6 27 -17 27 -26 0 -21 -24 -19 -45 5 -10 11 -29 20 -42 20 -27 0 -163 66
-163 79 0 17 25 19 59 5 18 -8 42 -14 52 -14z"/>
</g>
</svg>
