<?xml version="1.0" standalone="no"?>
<!DOCTYPE svg PUBLIC "-//W3C//DTD SVG 20010904//EN"
 "http://www.w3.org/TR/2001/REC-SVG-20010904/DTD/svg10.dtd">
<svg version="1.0" xmlns="http://www.w3.org/2000/svg"
 width="378.000000pt" height="87.000000pt" viewBox="0 0 378.000000 87.000000"
 preserveAspectRatio="xMidYMid meet">
<metadata>
Created by potrace 1.16, written by Peter Selinger 2001-2019
</metadata>
<g transform="translate(0.000000,87.000000) scale(0.100000,-0.100000)"
fill="#000000" stroke="none">
<path d="M20 841 c0 -17 -4 -33 -10 -36 -22 -14 -9 -66 33 -126 48 -70 158
-186 202 -214 16 -10 50 -37 75 -60 25 -22 64 -53 86 -68 48 -33 324 -310 324
-326 0 -7 27 -11 75 -11 l75 0 0 48 0 49 -50 64 c-27 35 -59 76 -70 91 -12 15
-40 40 -63 55 -24 16 -53 49 -67 74 -34 62 -49 79 -71 79 -21 0 -54 44 -44 60
9 15 100 12 142 -5 l35 -15 298 0 298 0 35 15 c21 8 67 15 105 15 39 0 85 7
105 15 23 9 68 15 120 15 53 0 98 6 120 15 21 8 67 15 105 15 39 0 85 7 105
15 25 10 72 15 150 15 82 0 125 5 153 16 29 12 56 14 118 9 45 -3 108 -8 141
-10 235 -16 293 -22 312 -33 12 -7 54 -12 93 -12 40 0 86 -6 107 -15 22 -9 67
-15 120 -15 l85 0 65 -30 c35 -16 69 -30 75 -30 5 0 39 -13 75 -30 35 -16 69
-30 75 -30 5 0 39 -14 75 -30 41 -19 81 -30 109 -30 l44 0 0 70 c0 42 -4 70
-11 70 -5 0 -40 18 -77 40 -36 22 -82 45 -102 50 -19 5 -59 21 -88 35 -28 14
-57 25 -63 25 -6 0 -40 14 -76 30 -37 17 -81 30 -104 30 -22 0 -56 7 -76 15
-22 9 -67 15 -120 15 -52 0 -97 6 -120 15 -24 10 -71 15 -150 15 -78 0 -125 5
-150 15 -51 21 -375 21 -426 0 -20 -8 -61 -15 -90 -15 -30 0 -71 -7 -90 -15
-25 -10 -72 -15 -150 -15 -79 0 -126 -5 -150 -15 -21 -8 -67 -15 -105 -15 -39
0 -85 -7 -105 -15 -20 -8 -61 -15 -90 -15 -30 0 -71 -7 -90 -15 -28 -11 -91
-15 -290 -16 l-254 -2 -49 16 c-88 28 -138 39 -214 47 -78 9 -128 24 -218 65
-29 14 -59 25 -68 25 -8 0 -26 11 -40 25 l-25 25 -84 0 -85 0 0 -29z"/>
</g>
</svg>
