<?xml version="1.0" standalone="no"?>
<!DOCTYPE svg PUBLIC "-//W3C//DTD SVG 20010904//EN"
 "http://www.w3.org/TR/2001/REC-SVG-20010904/DTD/svg10.dtd">
<svg version="1.0" xmlns="http://www.w3.org/2000/svg"
 width="267.000000pt" height="204.000000pt" viewBox="0 0 267.000000 204.000000"
 preserveAspectRatio="xMidYMid meet">
<metadata>
Created by potrace 1.16, written by Peter Selinger 2001-2019
</metadata>
<g transform="translate(0.000000,204.000000) scale(0.100000,-0.100000)"
fill="#000000" stroke="none">
<path d="M450 2031 c-8 -5 -39 -19 -68 -32 -76 -33 -92 -57 -92 -136 0 -87 22
-126 135 -245 87 -90 115 -131 101 -146 -5 -5 -34 5 -143 48 -12 5 -34 27 -48
49 -16 27 -43 50 -76 67 -28 14 -69 39 -92 55 -45 33 -91 38 -137 14 l-30 -16
0 -97 0 -98 58 -19 c31 -10 73 -33 93 -51 20 -17 88 -66 150 -107 63 -42 138
-96 167 -121 30 -26 62 -52 72 -59 9 -6 31 -33 48 -58 17 -25 51 -58 75 -73
61 -39 77 -70 77 -153 l0 -68 -30 -63 -30 -64 0 -119 0 -120 24 -47 c13 -26
36 -87 51 -135 20 -62 35 -93 52 -105 14 -9 57 -43 98 -75 l73 -57 104 0 104
0 17 29 c9 16 40 46 67 66 68 50 90 95 90 185 0 87 -21 153 -101 312 -58 116
-93 167 -200 293 -28 34 -56 70 -61 80 -6 11 -47 57 -90 103 -73 76 -98 114
-98 147 0 7 16 32 35 55 l35 42 0 55 0 56 -42 40 c-24 22 -57 63 -73 91 -22
36 -47 59 -86 82 -36 21 -67 51 -94 89 -22 32 -48 66 -58 77 -25 26 -19 38 33
59 l45 18 185 0 c133 1 198 -3 230 -13 77 -24 133 -37 190 -45 30 -4 71 -12
90 -18 86 -27 131 -36 225 -42 l100 -7 230 -77 c249 -84 312 -110 376 -157 23
-16 48 -30 56 -30 34 0 108 -45 177 -110 l76 -70 65 0 65 0 0 69 0 68 -40 27
c-24 16 -40 34 -40 46 0 30 -90 91 -256 174 -174 87 -294 127 -429 146 -33 4
-79 17 -101 29 -39 19 -111 43 -214 71 -25 7 -85 16 -135 20 -49 4 -103 12
-120 18 -70 24 -125 35 -200 39 -44 2 -84 9 -89 14 -12 11 -575 11 -596 0z
m524 -1411 c31 -34 59 -73 63 -88 3 -15 26 -67 50 -116 47 -97 55 -155 27
-194 -23 -33 -43 -27 -109 28 -65 54 -95 99 -95 141 0 15 -7 43 -15 62 -29 69
-18 227 16 227 4 0 32 -27 63 -60z"/>
</g>
</svg>
