<?xml version="1.0" standalone="no"?>
<!DOCTYPE svg PUBLIC "-//W3C//DTD SVG 20010904//EN"
 "http://www.w3.org/TR/2001/REC-SVG-20010904/DTD/svg10.dtd">
<svg version="1.0" xmlns="http://www.w3.org/2000/svg"
 width="576.000000pt" height="141.000000pt" viewBox="0 0 576.000000 141.000000"
 preserveAspectRatio="xMidYMid meet">
<metadata>
Created by potrace 1.16, written by Peter Selinger 2001-2019
</metadata>
<g transform="translate(0.000000,141.000000) scale(0.100000,-0.100000)"
fill="#000000" stroke="none">
<path d="M3755 1400 c-3 -5 -26 -10 -51 -10 -34 0 -70 -12 -140 -47 -52 -25
-99 -53 -106 -60 -21 -26 -47 -117 -48 -166 l0 -49 29 -29 29 -29 62 0 c48 0
77 -7 127 -30 35 -16 71 -30 78 -30 16 0 35 -30 35 -57 0 -10 -14 -47 -30 -81
l-30 -64 0 -73 c0 -42 6 -88 15 -108 8 -20 15 -50 15 -66 0 -22 15 -47 55 -93
30 -34 55 -71 55 -80 0 -29 -40 -48 -102 -48 -41 0 -74 -8 -120 -29 l-63 -28
-111 -6 c-61 -4 -123 -11 -138 -17 -15 -5 -71 -10 -125 -10 -66 0 -111 -5
-136 -15 -29 -13 -44 -14 -69 -5 -23 7 -41 7 -60 0 -37 -14 -446 -13 -483 1
-15 6 -91 13 -168 16 -83 3 -154 11 -174 19 -19 8 -69 14 -118 14 -52 0 -97 6
-120 15 -19 8 -53 15 -75 15 -21 0 -55 7 -75 15 -20 8 -66 15 -105 15 -38 0
-84 7 -105 15 -19 8 -59 15 -87 15 -28 0 -71 6 -96 14 -57 18 -123 35 -175 45
-53 10 -128 36 -193 66 -29 14 -69 25 -89 25 -45 0 -144 33 -243 80 -41 20
-110 47 -154 61 -54 16 -92 35 -121 61 -53 47 -274 158 -315 158 l-30 0 0 -44
c0 -25 5 -48 10 -51 6 -4 22 -28 35 -55 l25 -49 84 -56 c46 -30 103 -71 126
-90 28 -23 52 -35 73 -35 18 0 94 -31 184 -75 85 -41 164 -75 176 -75 12 0 42
-6 67 -14 58 -18 123 -35 180 -46 25 -5 69 -20 97 -34 29 -14 64 -26 78 -26
14 0 42 -7 62 -15 19 -8 53 -15 75 -15 21 0 55 -7 75 -15 23 -10 69 -15 135
-15 65 0 111 -5 135 -15 19 -8 53 -15 75 -15 21 0 55 -7 75 -15 19 -8 53 -15
75 -15 21 0 55 -7 75 -15 22 -9 68 -15 124 -15 48 0 91 -4 94 -10 8 -13 997
-14 1011 -1 5 6 79 12 164 14 143 3 181 9 280 40 19 6 53 14 75 18 116 22 251
65 293 94 20 14 43 25 52 25 8 0 35 14 60 30 25 16 51 30 58 30 35 0 113 54
170 118 l62 70 0 108 0 108 -76 113 c-41 62 -85 118 -97 124 -12 6 -43 29 -70
51 -26 21 -120 76 -210 120 -89 44 -170 88 -179 96 -23 19 -10 36 48 62 l43
20 276 0 276 0 36 -15 c20 -8 66 -15 105 -15 38 0 84 -7 105 -15 19 -8 60 -15
90 -15 29 0 70 -7 90 -15 19 -8 65 -15 102 -15 69 0 139 -19 239 -66 29 -13
64 -24 78 -24 14 0 55 -13 91 -30 35 -16 69 -30 74 -30 17 0 122 -50 161 -77
21 -14 56 -49 78 -79 l41 -54 49 0 50 0 0 70 c0 39 -4 78 -9 88 -5 9 -13 29
-19 43 -24 61 -303 209 -394 209 -13 0 -65 20 -116 45 -59 28 -107 45 -130 45
-21 0 -57 6 -82 14 -101 32 -140 39 -255 45 -66 4 -130 12 -142 19 -12 6 -49
12 -82 12 -33 0 -63 5 -66 10 -4 6 -133 10 -355 10 -222 0 -351 -4 -355 -10z
m260 -775 c28 -27 32 -66 10 -89 -19 -18 -39 -12 -58 17 -25 39 -29 64 -12 81
22 22 32 20 60 -9z"/>
</g>
</svg>
