<?xml version="1.0" standalone="no"?>
<!DOCTYPE svg PUBLIC "-//W3C//DTD SVG 20010904//EN"
 "http://www.w3.org/TR/2001/REC-SVG-20010904/DTD/svg10.dtd">
<svg version="1.0" xmlns="http://www.w3.org/2000/svg"
 width="558.000000pt" height="252.000000pt" viewBox="0 0 558.000000 252.000000"
 preserveAspectRatio="xMidYMid meet">
<metadata>
Created by potrace 1.16, written by Peter Selinger 2001-2019
</metadata>
<g transform="translate(0.000000,252.000000) scale(0.100000,-0.100000)"
fill="#000000" stroke="none">
<path d="M3545 2510 c-3 -5 -14 -10 -24 -10 -28 0 -141 -87 -141 -108 0 -10
-15 -32 -32 -49 l-33 -31 -105 7 c-58 4 -115 13 -127 19 -12 7 -44 12 -72 12
l-51 0 -40 -36 c-43 -39 -50 -67 -26 -112 22 -42 141 -147 246 -217 24 -17 65
-52 90 -78 28 -28 61 -52 82 -57 20 -6 63 -34 96 -63 60 -51 116 -95 196 -151
23 -15 70 -55 106 -87 36 -33 94 -85 129 -117 35 -31 80 -75 100 -96 20 -22
55 -58 78 -80 109 -107 216 -327 216 -446 0 -41 -21 -136 -35 -161 -7 -13 -25
-41 -40 -63 -16 -21 -28 -46 -28 -55 0 -29 -30 -61 -83 -88 -28 -14 -72 -43
-97 -64 -56 -47 -107 -69 -162 -69 -31 0 -56 -8 -88 -30 -25 -16 -57 -30 -72
-30 -14 0 -55 -13 -90 -30 l-63 -30 -71 0 c-41 0 -87 -6 -108 -15 l-36 -15
-439 -1 c-242 0 -446 3 -452 7 -14 8 -45 11 -274 22 -95 4 -169 12 -182 20
-12 6 -47 12 -78 12 -30 0 -72 7 -92 15 -19 8 -52 15 -71 15 -20 0 -77 13
-127 29 -121 39 -170 51 -235 60 -30 4 -71 12 -90 18 -49 16 -118 33 -166 42
-22 4 -54 17 -70 28 -34 24 -142 63 -176 63 -13 0 -50 13 -84 29 -34 16 -75
32 -92 36 -17 3 -57 24 -89 46 -35 24 -70 39 -88 39 -16 0 -43 9 -60 21 -47
32 -303 159 -320 159 -9 0 -29 -7 -45 -15 -38 -20 -42 -65 -7 -84 12 -7 36
-32 54 -55 23 -32 41 -45 67 -50 19 -4 57 -22 84 -40 73 -51 188 -106 219
-106 16 0 45 -12 66 -26 21 -14 59 -32 85 -39 26 -8 69 -30 96 -50 l50 -35 55
0 c54 0 166 -31 228 -64 64 -33 245 -86 293 -86 28 0 67 -7 87 -15 19 -8 45
-15 57 -15 12 0 60 -13 106 -30 53 -18 105 -30 138 -30 29 0 69 -7 89 -15 19
-8 60 -15 90 -15 29 0 70 -7 90 -15 28 -12 81 -15 244 -15 128 0 210 -4 214
-10 8 -13 637 -14 650 -1 6 6 73 12 150 14 132 3 167 9 275 43 25 8 55 14 67
14 11 0 50 13 85 30 40 19 79 30 108 30 44 1 59 7 235 103 17 8 45 21 64 28
84 31 213 132 258 203 14 22 45 60 68 85 58 62 85 143 85 256 l0 85 -50 102
c-28 55 -59 113 -70 128 -11 15 -25 45 -32 66 -9 27 -26 47 -56 67 -24 16 -54
45 -67 66 -28 43 -207 220 -250 246 -16 10 -57 44 -90 75 -33 31 -73 65 -90
75 -16 10 -50 37 -75 60 -25 23 -63 52 -85 64 -22 13 -61 46 -86 75 -35 38
-67 61 -130 90 -46 21 -91 42 -99 46 -21 10 -25 49 -6 56 47 18 261 -93 380
-197 l44 -39 49 0 c69 0 83 18 83 102 l0 66 -67 54 c-38 29 -87 66 -111 82
-100 66 -125 176 -41 176 15 0 43 7 63 15 l37 16 39 -12 c31 -9 49 -9 79 -1
52 16 94 15 138 -3 19 -8 53 -15 75 -15 21 0 55 -7 75 -15 19 -8 53 -15 75
-15 21 0 55 -7 75 -15 22 -9 67 -15 117 -15 65 0 99 -6 166 -30 47 -16 94 -30
104 -30 11 0 80 -20 153 -45 73 -25 142 -45 154 -45 12 0 43 -13 68 -29 25
-16 61 -32 79 -36 17 -4 55 -23 84 -42 28 -20 66 -40 84 -45 19 -5 66 -39 109
-78 l75 -70 50 0 50 0 0 45 0 44 -68 68 c-99 98 -189 163 -226 163 -17 0 -44
9 -61 21 -16 11 -78 45 -137 75 l-108 54 -52 0 c-54 0 -164 32 -237 69 -22 12
-51 21 -63 21 -13 0 -43 6 -68 14 -101 32 -140 39 -255 45 -66 4 -130 12 -142
19 -12 6 -42 12 -67 12 -25 0 -48 5 -51 10 -4 6 -98 10 -250 10 -152 0 -246
-4 -250 -10z"/>
</g>
</svg>
