<?xml version="1.0" standalone="no"?>
<!DOCTYPE svg PUBLIC "-//W3C//DTD SVG 20010904//EN"
 "http://www.w3.org/TR/2001/REC-SVG-20010904/DTD/svg10.dtd">
<svg version="1.0" xmlns="http://www.w3.org/2000/svg"
 width="330.000000pt" height="138.000000pt" viewBox="0 0 330.000000 138.000000"
 preserveAspectRatio="xMidYMid meet">
<metadata>
Created by potrace 1.16, written by Peter Selinger 2001-2019
</metadata>
<g transform="translate(0.000000,138.000000) scale(0.100000,-0.100000)"
fill="#000000" stroke="none">
<path d="M22 1366 l-23 -11 3 -54 3 -54 70 -49 c39 -27 93 -61 120 -75 115
-59 248 -180 266 -241 l13 -44 -16 -51 c-54 -178 -55 -187 -13 -310 26 -78 47
-123 78 -162 23 -29 50 -65 60 -79 10 -14 34 -30 57 -36 23 -6 47 -21 57 -36
47 -68 87 -104 126 -115 23 -6 54 -20 68 -30 l27 -19 101 0 101 0 0 21 c0 28
-155 188 -190 196 -14 3 -38 18 -55 33 -16 15 -47 39 -67 54 -47 35 -121 146
-148 222 -27 77 -25 131 6 226 l27 80 -12 56 c-7 32 -18 76 -26 100 -23 69 -1
93 62 67 19 -8 60 -15 90 -15 29 0 70 -7 90 -15 26 -11 76 -15 194 -15 123 0
168 -4 199 -16 l41 -16 92 10 c51 5 103 10 117 11 14 1 95 5 180 9 l155 8 75
27 c41 15 85 27 96 27 12 0 38 7 57 15 26 11 73 15 163 15 94 0 139 4 175 17
l49 18 49 -18 c33 -11 79 -17 143 -17 146 0 244 -40 499 -204 34 -22 68 -36
87 -36 l32 0 0 73 0 72 -46 52 c-31 36 -57 56 -83 63 -20 5 -69 25 -109 45
-39 19 -119 50 -177 70 l-105 35 -266 0 c-169 0 -273 -4 -285 -11 -11 -6 -41
-14 -67 -19 -58 -11 -122 -27 -183 -46 -30 -10 -95 -15 -190 -16 -92 -1 -156
-6 -176 -15 -42 -17 -241 -17 -280 -1 -15 7 -89 15 -163 19 -148 8 -304 30
-338 48 -11 6 -46 11 -77 11 -30 0 -72 7 -92 15 -20 8 -66 15 -105 15 -38 0
-84 7 -105 15 -19 8 -46 15 -60 15 -34 0 -111 37 -126 60 l-12 20 -105 -1
c-58 -1 -115 -7 -128 -13z"/>
</g>
</svg>
