<?xml version="1.0" standalone="no"?>
<!DOCTYPE svg PUBLIC "-//W3C//DTD SVG 20010904//EN"
 "http://www.w3.org/TR/2001/REC-SVG-20010904/DTD/svg10.dtd">
<svg version="1.0" xmlns="http://www.w3.org/2000/svg"
 width="654.000000pt" height="306.000000pt" viewBox="0 0 654.000000 306.000000"
 preserveAspectRatio="xMidYMid meet">
<metadata>
Created by potrace 1.16, written by Peter Selinger 2001-2019
</metadata>
<g transform="translate(0.000000,306.000000) scale(0.100000,-0.100000)"
fill="#000000" stroke="none">
<path d="M0 3030 l0 -29 134 -131 c75 -73 170 -155 217 -186 46 -31 96 -67
110 -80 14 -14 42 -29 62 -35 20 -5 61 -32 91 -60 31 -28 71 -55 90 -60 19 -5
59 -31 88 -58 29 -26 72 -58 94 -69 50 -26 170 -106 204 -137 14 -13 48 -34
76 -48 28 -14 75 -48 105 -75 60 -54 107 -82 140 -82 25 0 76 -29 137 -78 58
-46 130 -95 170 -116 18 -9 50 -32 70 -50 20 -18 49 -36 64 -39 14 -4 50 -28
80 -54 66 -60 128 -103 194 -136 28 -14 76 -49 107 -77 31 -28 72 -56 91 -61
19 -5 59 -31 88 -57 29 -27 92 -74 140 -106 48 -32 107 -75 130 -96 24 -20 59
-45 78 -55 19 -9 55 -34 80 -55 25 -20 65 -47 90 -60 25 -12 68 -40 95 -61 28
-22 75 -58 105 -82 30 -23 75 -54 100 -69 25 -14 54 -36 65 -48 11 -12 38 -31
60 -42 22 -11 60 -37 85 -58 25 -20 64 -47 86 -58 50 -26 170 -106 204 -137
14 -13 44 -32 66 -43 50 -25 169 -105 204 -137 14 -13 58 -40 98 -61 41 -21
82 -48 91 -60 10 -13 40 -33 67 -45 27 -12 57 -26 66 -30 24 -12 105 -11 113
1 3 6 16 10 27 10 11 0 40 20 64 44 l44 43 0 54 0 53 -67 101 c-37 55 -90 126
-118 157 -29 32 -58 76 -65 99 l-14 42 23 18 23 19 189 0 c146 0 198 -3 226
-15 25 -11 72 -15 165 -15 92 0 139 -4 165 -15 19 -8 53 -15 75 -15 21 0 55
-7 75 -15 19 -8 53 -15 75 -15 22 0 64 -11 94 -25 84 -38 170 -65 209 -65 20
0 52 -7 72 -15 19 -8 52 -15 72 -15 44 0 129 -28 231 -76 41 -20 111 -47 155
-61 44 -14 94 -36 110 -50 151 -120 179 -132 245 -98 l30 16 0 54 0 55 -37 19
c-21 11 -60 38 -87 60 -26 23 -56 41 -65 41 -10 0 -30 14 -46 30 -17 17 -39
30 -53 30 -28 0 -303 90 -368 120 -79 36 -164 60 -214 60 -28 0 -67 7 -87 15
-19 8 -47 15 -60 15 -14 0 -54 14 -90 30 -37 17 -81 30 -104 30 -22 0 -56 7
-76 15 -19 8 -60 15 -90 15 -29 0 -70 7 -90 15 -26 11 -76 15 -195 15 -118 0
-168 4 -195 15 -50 21 -286 21 -336 0 -20 -8 -55 -15 -77 -15 -48 0 -133 -40
-154 -73 -7 -12 -20 -46 -27 -74 l-13 -53 25 -52 c28 -60 95 -168 133 -214 14
-18 26 -40 26 -49 l0 -17 -27 18 c-16 10 -53 31 -85 46 -31 16 -84 53 -117 83
-34 30 -69 55 -78 55 -20 0 -103 51 -163 100 -25 21 -68 49 -95 63 -28 13 -78
50 -113 81 -34 31 -71 56 -81 56 -10 0 -38 15 -61 33 -91 68 -149 106 -199
132 -29 15 -64 43 -78 61 -14 19 -57 55 -96 81 -39 26 -85 59 -102 74 -16 14
-49 36 -71 47 -62 32 -173 109 -226 158 -26 24 -54 44 -63 44 -9 0 -40 20 -68
45 -28 24 -78 59 -111 76 -78 41 -155 100 -184 138 -13 19 -37 34 -61 41 -23
6 -63 31 -93 58 -74 66 -143 112 -183 123 -19 5 -59 32 -88 59 -30 27 -71 55
-91 62 -35 12 -54 26 -181 125 -57 44 -125 83 -148 83 -8 0 -33 15 -57 33 -94
70 -137 99 -185 123 -27 15 -72 44 -98 66 -26 22 -63 44 -82 49 -21 6 -46 24
-62 45 -16 22 -55 50 -103 74 -42 21 -101 61 -131 88 -55 50 -112 84 -161 96
-14 3 -50 28 -80 55 -29 26 -73 58 -98 71 -25 12 -65 39 -90 59 -86 70 -148
101 -201 101 l-49 0 0 -30z"/>
</g>
</svg>
