<?xml version="1.0" standalone="no"?>
<!DOCTYPE svg PUBLIC "-//W3C//DTD SVG 20010904//EN"
 "http://www.w3.org/TR/2001/REC-SVG-20010904/DTD/svg10.dtd">
<svg version="1.0" xmlns="http://www.w3.org/2000/svg"
 width="624.000000pt" height="108.000000pt" viewBox="0 0 624.000000 108.000000"
 preserveAspectRatio="xMidYMid meet">
<metadata>
Created by potrace 1.16, written by Peter Selinger 2001-2019
</metadata>
<g transform="translate(0.000000,108.000000) scale(0.100000,-0.100000)"
fill="#000000" stroke="none">
<path d="M2775 1035 c-102 -74 -125 -96 -152 -149 l-26 -51 12 -44 c9 -35 9
-46 -1 -53 -25 -15 -81 -8 -140 19 l-59 26 -52 -13 c-50 -11 -120 -10 -312 6
-64 5 -546 24 -605 23 -19 0 -153 -2 -297 -5 l-261 -5 -37 16 c-21 8 -61 15
-91 15 -29 0 -65 5 -80 10 -19 7 -37 7 -60 0 -25 -9 -40 -8 -69 5 -48 20 -171
20 -218 0 -20 -8 -66 -15 -102 -15 -40 0 -90 -8 -128 -21 -98 -33 -97 -32 -97
-99 0 -32 5 -62 10 -65 6 -4 20 -25 31 -48 12 -22 32 -49 45 -60 13 -10 24
-25 24 -33 0 -26 41 -98 84 -145 22 -25 70 -81 106 -123 36 -43 100 -112 143
-152 l79 -74 44 0 44 0 12 25 c9 20 9 38 -2 78 -19 77 -42 116 -104 177 -32
31 -71 85 -92 125 -20 39 -46 84 -58 100 -46 64 -58 115 -27 115 10 0 35 7 54
15 28 12 80 15 222 15 142 0 194 -3 222 -15 26 -11 76 -15 194 -15 123 0 168
-4 199 -16 30 -12 55 -15 98 -10 31 4 68 7 82 6 14 0 228 -3 475 -6 l450 -5
22 -21 23 -21 25 11 26 12 50 -21 49 -22 43 12 c31 9 50 9 70 2 16 -6 99 -11
188 -11 119 0 169 -4 196 -15 19 -8 52 -15 72 -15 20 0 75 -13 121 -30 47 -16
102 -30 123 -30 22 0 68 -13 104 -30 35 -17 75 -30 88 -30 14 0 43 -7 66 -17
l41 -16 48 17 48 17 37 -15 c22 -9 66 -16 106 -16 37 0 80 -5 96 -12 28 -11
140 -30 178 -29 53 1 183 19 208 29 16 7 64 12 108 12 90 0 146 16 280 79 l86
41 142 0 c103 0 151 -4 178 -15 19 -8 60 -15 90 -15 29 0 70 -7 90 -15 19 -8
53 -15 75 -15 21 0 55 -7 75 -15 19 -8 47 -15 60 -15 30 0 85 -25 137 -62 21
-15 45 -28 53 -28 8 0 40 -12 70 -26 31 -14 88 -36 127 -49 39 -12 98 -39 130
-59 65 -39 79 -42 137 -24 l39 11 0 84 0 83 -28 0 c-29 0 -55 15 -110 62 -18
15 -40 28 -48 28 -9 0 -45 14 -81 30 -35 17 -69 30 -75 30 -5 0 -39 14 -75 30
-35 17 -74 30 -87 30 -26 0 -122 32 -194 66 -40 18 -69 24 -123 24 -39 0 -85
7 -106 15 -22 9 -67 15 -120 15 -52 0 -97 6 -120 15 -19 8 -55 15 -78 15 -23
0 -59 -7 -78 -15 -20 -8 -56 -15 -79 -15 -29 0 -55 -8 -79 -24 -39 -27 -142
-66 -171 -66 -10 0 -47 -10 -81 -22 -34 -12 -91 -23 -127 -25 -36 -2 -123 -6
-193 -9 l-128 -6 -48 31 -48 31 -162 0 -162 0 -56 26 c-31 14 -86 35 -122 46
-36 12 -72 26 -78 31 -9 6 -13 39 -13 99 l0 89 -50 57 c-28 32 -71 68 -98 82
-26 13 -70 41 -99 62 l-52 38 -118 -1 -118 0 -60 -44z m222 -175 c35 -16 71
-30 78 -30 18 0 38 -37 31 -56 -10 -26 -93 -17 -163 17 -72 35 -91 59 -67 83
22 23 47 20 121 -14z"/>
</g>
</svg>
