<?xml version="1.0" standalone="no"?>
<!DOCTYPE svg PUBLIC "-//W3C//DTD SVG 20010904//EN"
 "http://www.w3.org/TR/2001/REC-SVG-20010904/DTD/svg10.dtd">
<svg version="1.0" xmlns="http://www.w3.org/2000/svg"
 width="435.000000pt" height="192.000000pt" viewBox="0 0 435.000000 192.000000"
 preserveAspectRatio="xMidYMid meet">
<metadata>
Created by potrace 1.16, written by Peter Selinger 2001-2019
</metadata>
<g transform="translate(0.000000,192.000000) scale(0.100000,-0.100000)"
fill="#000000" stroke="none">
<path d="M305 1910 c-3 -5 -19 -10 -34 -10 -16 0 -45 -7 -64 -15 -20 -8 -48
-15 -62 -15 -47 0 -103 -37 -125 -82 -16 -33 -20 -62 -20 -138 0 -154 26 -188
220 -286 52 -26 110 -62 130 -81 21 -18 48 -33 62 -33 32 0 136 -37 169 -60
14 -11 60 -30 102 -44 42 -14 94 -37 114 -51 21 -14 52 -25 69 -25 20 0 39 -9
55 -26 34 -37 92 -64 136 -64 36 0 121 -25 151 -43 8 -6 12 -35 12 -90 0 -85
-24 -177 -69 -266 -27 -53 -26 -91 3 -149 25 -49 57 -83 116 -121 20 -13 48
-41 64 -62 17 -25 50 -51 87 -70 33 -16 77 -45 98 -64 21 -19 45 -35 52 -35 8
0 34 -14 59 -30 25 -16 53 -30 62 -30 9 0 20 -5 23 -10 3 -6 46 -10 96 -10
l89 0 0 35 0 36 -47 50 c-25 27 -72 64 -104 82 -112 63 -162 93 -237 142 l-77
50 -42 75 c-24 41 -48 85 -54 97 l-12 23 27 40 c14 22 38 77 53 123 14 45 35
94 45 110 l19 27 70 0 c39 0 85 -7 106 -15 28 -12 84 -15 273 -15 189 0 245 3
273 15 20 8 67 15 104 16 37 0 93 5 123 10 30 5 75 12 100 15 25 3 76 15 113
26 55 17 75 29 99 59 17 22 37 39 44 39 7 0 42 14 77 30 38 17 82 30 105 30
22 0 56 7 75 15 50 21 185 20 238 -1 l40 -17 55 19 54 18 53 -16 c107 -33 144
-40 232 -47 50 -4 100 -12 112 -19 12 -7 32 -12 45 -12 32 0 136 -37 169 -61
39 -28 226 -119 244 -119 9 0 29 7 45 15 l30 16 0 42 c0 63 -43 105 -167 167
-57 27 -108 50 -115 50 -6 0 -24 12 -39 26 -39 37 -121 63 -202 64 -37 0 -84
7 -104 15 -26 11 -74 15 -180 15 -105 0 -153 4 -180 15 -49 21 -227 21 -276 0
-25 -10 -71 -15 -141 -15 l-104 0 -58 -45 c-33 -24 -72 -55 -89 -68 -39 -31
-144 -64 -225 -72 -59 -5 -134 -19 -258 -46 -62 -13 -335 -11 -369 3 -24 10
-98 19 -263 32 -117 9 -209 40 -234 78 l-10 17 36 33 c27 23 43 51 58 95 27
84 26 102 -15 182 -37 75 -81 114 -191 169 -66 33 -174 72 -200 72 -44 0 -160
48 -199 83 -26 22 -53 37 -69 37 -15 0 -43 7 -63 15 -19 8 -59 15 -87 15 -47
0 -146 26 -163 43 -10 11 -131 8 -138 -3z m82 -195 c21 -9 67 -15 117 -15 l81
0 101 -34 c55 -19 123 -49 150 -66 56 -34 176 -79 212 -80 15 0 50 -23 89 -57
71 -62 86 -84 77 -107 -12 -31 -51 -28 -174 13 -67 23 -131 41 -142 41 -31 0
-60 -19 -100 -63 l-36 -42 -38 14 c-21 8 -56 27 -77 42 -22 16 -47 29 -55 29
-9 0 -62 23 -118 50 -75 37 -111 61 -134 90 l-32 40 -33 0 c-41 0 -56 17 -58
72 l-2 43 45 23 c52 26 78 27 127 7z"/>
</g>
</svg>
