<?xml version="1.0" standalone="no"?>
<!DOCTYPE svg PUBLIC "-//W3C//DTD SVG 20010904//EN"
 "http://www.w3.org/TR/2001/REC-SVG-20010904/DTD/svg10.dtd">
<svg version="1.0" xmlns="http://www.w3.org/2000/svg"
 width="465.000000pt" height="126.000000pt" viewBox="0 0 465.000000 126.000000"
 preserveAspectRatio="xMidYMid meet">
<metadata>
Created by potrace 1.16, written by Peter Selinger 2001-2019
</metadata>
<g transform="translate(0.000000,126.000000) scale(0.100000,-0.100000)"
fill="#000000" stroke="none">
<path d="M80 1250 c0 -6 -18 -30 -40 -54 -54 -58 -53 -86 2 -126 22 -16 47
-30 55 -30 24 0 144 -59 187 -92 119 -91 156 -158 156 -279 l0 -67 30 -64 c16
-34 30 -70 30 -79 0 -9 13 -34 29 -56 16 -22 38 -57 48 -77 10 -20 50 -69 89
-108 52 -53 91 -81 159 -115 118 -60 178 -78 207 -62 39 20 58 41 58 64 0 28
-82 106 -177 168 -82 55 -199 174 -209 214 -4 16 -20 55 -36 88 -28 59 -36
117 -19 143 l8 13 56 -16 c41 -12 72 -30 110 -65 42 -38 72 -55 131 -74 43
-15 109 -47 151 -75 81 -55 147 -91 166 -91 7 0 51 -18 98 -41 119 -56 192
-79 252 -79 35 0 70 -9 116 -30 35 -17 75 -30 89 -30 14 0 41 -7 61 -15 19 -8
47 -15 60 -15 14 0 54 -13 90 -30 37 -17 81 -30 104 -30 22 0 56 -7 76 -15 19
-8 53 -15 75 -15 21 0 55 -7 75 -15 l37 -16 316 2 c237 2 323 5 347 16 18 7
64 13 103 13 39 0 80 5 91 11 11 6 41 14 67 19 57 11 122 27 182 46 29 9 90
14 171 14 l125 0 29 -30 29 -30 118 0 c83 0 129 -5 155 -15 19 -8 65 -15 102
-15 81 0 167 -28 234 -76 l48 -35 62 3 62 3 3 62 3 62 -79 40 c-43 22 -147 62
-230 90 l-153 51 -125 0 -126 0 -65 30 -65 30 -126 -4 -127 -4 -75 -26 c-51
-18 -96 -26 -141 -26 -37 0 -83 -7 -102 -15 -20 -8 -54 -15 -75 -15 -22 0 -56
-7 -75 -15 -20 -8 -61 -15 -90 -15 -30 0 -72 -7 -92 -16 l-38 -16 -41 16 c-32
12 -81 16 -214 16 -131 0 -181 4 -209 15 -19 8 -54 15 -77 15 -29 0 -54 9 -86
30 -33 22 -57 30 -88 30 -73 0 -132 51 -132 114 0 40 -34 99 -74 130 -23 17
-39 40 -46 66 -11 40 -50 80 -79 80 -9 0 -29 9 -46 21 -57 39 -185 99 -210 99
-14 0 -42 7 -62 15 -47 20 -70 19 -148 -7 l-66 -21 -64 -69 c-73 -79 -62 -78
-182 -19 -43 21 -90 41 -105 44 -14 4 -40 24 -57 45 -16 22 -49 46 -73 56 -81
33 -103 47 -159 95 -31 26 -72 53 -90 60 -68 25 -95 43 -127 87 -18 24 -39 44
-48 44 -19 0 -101 37 -136 61 -19 14 -44 19 -97 19 -42 0 -71 -4 -71 -10z
m1470 -587 c14 -9 36 -26 50 -38 14 -13 58 -40 98 -61 82 -42 101 -64 76 -88
-19 -19 -8 -20 -79 4 -74 25 -101 38 -140 66 -16 12 -54 34 -83 49 -30 16 -56
35 -60 43 -14 38 90 58 138 25z"/>
</g>
</svg>
