<?xml version="1.0" standalone="no"?>
<!DOCTYPE svg PUBLIC "-//W3C//DTD SVG 20010904//EN"
 "http://www.w3.org/TR/2001/REC-SVG-20010904/DTD/svg10.dtd">
<svg version="1.0" xmlns="http://www.w3.org/2000/svg"
 width="372.000000pt" height="387.000000pt" viewBox="0 0 372.000000 387.000000"
 preserveAspectRatio="xMidYMid meet">
<metadata>
Created by potrace 1.16, written by Peter Selinger 2001-2019
</metadata>
<g transform="translate(0.000000,387.000000) scale(0.100000,-0.100000)"
fill="#000000" stroke="none">
<path d="M62 3850 c-6 -11 -23 -22 -37 -26 l-25 -6 0 -54 c0 -37 4 -54 13 -54
6 0 32 -14 57 -30 25 -16 52 -30 61 -30 8 0 28 -13 44 -30 l29 -30 46 0 c37 0
51 -5 71 -26 13 -14 38 -33 54 -41 84 -43 186 -121 212 -162 15 -24 44 -54 65
-67 86 -54 77 -131 -19 -175 l-46 -21 -41 16 c-86 33 -106 14 -106 -101 l0
-80 18 -16 c10 -10 25 -17 34 -17 23 0 122 -75 272 -207 80 -70 86 -76 228
-226 57 -60 128 -125 158 -146 57 -39 124 -126 180 -232 17 -34 55 -80 94
-116 l66 -60 0 -30 c0 -32 26 -63 52 -63 9 0 36 -28 60 -61 42 -60 55 -75 130
-142 24 -22 41 -50 52 -85 8 -29 32 -73 55 -100 50 -59 161 -284 161 -325 0
-24 10 -41 45 -73 34 -31 45 -48 45 -71 0 -17 7 -47 15 -66 8 -20 15 -54 15
-75 0 -22 7 -56 15 -75 19 -46 19 -98 0 -144 -10 -23 -15 -69 -15 -137 0 -124
-8 -140 -109 -231 -71 -63 -125 -95 -182 -109 -33 -7 -99 -79 -99 -106 l0 -20
104 0 c59 0 108 4 111 10 3 6 14 10 24 10 23 0 168 116 220 177 52 61 101 153
101 189 0 16 12 54 26 84 64 137 80 240 49 313 -8 20 -15 52 -15 71 0 55 -96
331 -135 387 -18 27 -37 63 -40 80 -4 18 -20 59 -36 93 -16 34 -29 68 -29 77
0 8 -13 28 -29 43 -16 15 -46 53 -67 84 -21 31 -61 82 -90 112 -59 62 -144
187 -144 212 0 9 -18 31 -40 48 -25 20 -43 44 -47 61 -6 34 -28 54 -67 63 -52
13 -86 44 -86 79 0 42 -18 66 -72 101 -24 15 -53 41 -65 59 -12 18 -45 55 -73
82 -28 28 -62 69 -76 92 -14 23 -55 65 -92 92 -37 27 -73 59 -79 70 -7 11 -34
34 -61 51 -26 18 -63 55 -83 83 -27 41 -44 55 -77 66 -85 27 -91 86 -13 136
26 16 50 43 66 75 l25 49 0 79 0 79 -28 39 c-15 22 -35 54 -46 73 l-18 33 13
9 c20 12 53 11 86 -3 17 -8 112 -16 243 -20 283 -11 294 -11 440 0 131 10 157
15 305 63 50 16 109 29 130 29 28 0 54 9 85 30 l45 30 158 0 c118 0 167 -4
194 -15 25 -11 72 -15 165 -15 l129 0 67 -40 c37 -23 78 -43 92 -46 14 -2 43
-9 65 -15 22 -6 67 -14 100 -19 42 -6 96 -26 180 -68 129 -65 152 -82 190
-142 43 -69 79 -76 143 -29 l42 31 0 35 c0 23 -9 47 -27 70 -68 84 -120 136
-153 153 -34 18 -387 135 -480 160 -25 6 -61 14 -82 17 -22 3 -47 16 -64 34
l-28 29 -43 0 c-24 0 -60 7 -80 15 -28 12 -84 15 -273 15 -189 0 -245 -3 -273
-15 -20 -8 -56 -15 -79 -15 -31 0 -56 -8 -88 -30 -25 -16 -57 -30 -71 -30 -15
0 -43 -7 -62 -15 -20 -8 -61 -15 -90 -15 -30 0 -71 -7 -90 -15 -24 -10 -70
-15 -135 -15 -66 0 -112 -5 -135 -15 -20 -8 -52 -15 -72 -15 -20 0 -52 7 -72
15 -23 10 -69 15 -135 15 -65 0 -111 5 -135 15 -22 9 -67 15 -120 15 -52 0
-97 6 -120 15 -24 10 -52 13 -82 10 l-46 -6 -73 35 c-41 20 -85 36 -98 36 -14
0 -41 7 -61 15 -19 8 -45 15 -57 15 -38 0 -140 41 -189 76 -57 41 -124 48
-145 14z"/>
</g>
</svg>
