<?xml version="1.0" standalone="no"?>
<!DOCTYPE svg PUBLIC "-//W3C//DTD SVG 20010904//EN"
 "http://www.w3.org/TR/2001/REC-SVG-20010904/DTD/svg10.dtd">
<svg version="1.0" xmlns="http://www.w3.org/2000/svg"
 width="897.000000pt" height="165.000000pt" viewBox="0 0 897.000000 165.000000"
 preserveAspectRatio="xMidYMid meet">
<metadata>
Created by potrace 1.16, written by Peter Selinger 2001-2019
</metadata>
<g transform="translate(0.000000,165.000000) scale(0.100000,-0.100000)"
fill="#000000" stroke="none">
<path d="M485 1640 c-3 -5 -19 -10 -34 -10 -16 0 -45 -7 -64 -15 -20 -8 -54
-15 -76 -15 -23 0 -67 -13 -104 -30 -36 -16 -71 -30 -78 -30 -8 0 -39 -26 -71
-57 l-58 -57 0 -102 0 -101 48 -40 c48 -40 121 -83 143 -83 20 0 196 -88 240
-120 32 -22 53 -30 86 -30 24 0 60 -7 80 -15 19 -8 47 -15 61 -15 13 0 64 -18
111 -41 100 -47 224 -87 336 -108 22 -4 58 -19 80 -34 28 -19 52 -27 83 -27
23 0 59 -7 79 -15 19 -8 54 -15 77 -15 29 0 54 -9 86 -30 25 -16 53 -30 63
-30 23 0 67 -44 67 -67 0 -10 28 -59 61 -108 94 -138 102 -168 60 -224 -18
-24 -108 -61 -149 -61 -25 0 -96 -33 -124 -58 -20 -17 -23 -53 -8 -83 8 -14
21 -19 55 -19 24 0 47 5 50 10 3 6 40 10 81 10 96 0 147 25 232 113 l62 65 0
45 c0 25 4 57 10 72 10 27 2 75 -27 168 -28 89 6 125 90 93 24 -9 60 -16 80
-16 21 0 54 -7 74 -15 19 -8 60 -15 90 -15 29 0 70 -7 90 -15 22 -9 67 -15
120 -15 52 0 97 -6 120 -15 28 -12 82 -15 255 -15 172 0 226 -3 255 -15 25
-11 72 -15 165 -15 92 0 139 -4 165 -15 45 -19 81 -19 128 0 28 12 44 14 68 6
25 -9 46 -7 97 9 l64 19 94 -9 c71 -8 99 -7 115 2 13 7 80 15 157 19 74 4 155
12 180 19 138 38 187 57 245 91 35 22 71 39 80 39 22 0 106 81 140 133 15 24
40 52 56 61 l29 17 63 -21 c81 -27 95 -34 202 -105 50 -33 106 -66 125 -73 19
-7 49 -21 65 -29 144 -79 192 -102 203 -103 21 0 82 -31 126 -62 21 -15 45
-28 53 -28 8 0 44 -18 81 -40 85 -52 108 -58 144 -37 38 23 74 41 130 66 l47
20 11 40 c6 22 14 42 19 45 5 3 18 37 31 75 l22 70 -6 78 c-3 43 -7 91 -8 107
-2 24 3 33 24 45 l27 15 43 -13 c26 -9 118 -17 238 -21 128 -4 206 -11 226
-20 l31 -13 42 17 42 16 40 -11 39 -12 53 16 c28 9 79 21 112 27 33 6 76 16
95 23 19 6 60 14 90 18 65 9 114 21 235 60 63 20 111 29 157 29 38 0 82 7 104
16 55 23 235 23 288 1 21 -9 55 -17 75 -17 20 0 75 -13 121 -30 47 -16 94 -30
105 -30 32 0 134 -39 174 -66 19 -13 42 -24 49 -24 7 0 38 -11 68 -25 94 -43
171 -65 229 -65 l55 0 0 55 0 54 -32 17 c-17 9 -49 29 -71 45 -22 16 -46 29
-54 29 -8 0 -44 14 -80 30 -35 16 -69 30 -75 30 -5 0 -39 13 -75 30 -39 18
-81 30 -106 30 -30 0 -55 9 -87 30 -25 16 -56 30 -70 30 -14 0 -45 6 -70 14
-114 36 -143 40 -334 43 l-199 4 -39 -16 c-21 -8 -49 -15 -63 -15 -13 0 -48
-11 -77 -24 -98 -46 -170 -66 -238 -66 -46 0 -89 -9 -150 -30 l-84 -30 -142 0
c-103 0 -151 -4 -177 -15 -51 -21 -273 -21 -324 0 -20 8 -66 15 -105 15 -38 0
-84 7 -105 15 -19 8 -48 15 -63 15 -26 0 -138 72 -155 99 -3 6 -25 21 -48 32
-23 12 -62 38 -87 59 -25 20 -65 47 -89 59 -24 13 -62 36 -84 52 -22 16 -47
29 -56 29 -9 0 -58 20 -109 45 -52 25 -98 45 -104 45 -5 0 -39 14 -75 30 l-64
30 -109 0 -108 0 -61 -45 c-69 -51 -73 -63 -37 -133 29 -56 66 -92 126 -122
47 -24 146 -96 169 -124 7 -9 20 -16 29 -16 8 0 54 -18 101 -41 111 -52 191
-79 238 -79 25 0 53 -10 83 -30 25 -16 58 -30 73 -30 16 0 58 -14 94 -30 35
-17 70 -30 77 -30 20 0 36 -22 36 -49 0 -14 7 -44 16 -67 l16 -41 -16 -38 c-9
-20 -16 -50 -16 -65 0 -32 -44 -90 -68 -90 -23 0 -155 65 -203 100 -23 16 -49
30 -56 30 -21 0 -82 30 -127 62 -21 15 -45 28 -53 28 -14 0 -99 47 -203 113
-30 19 -70 43 -89 52 -19 9 -52 30 -74 46 -22 16 -47 29 -54 29 -20 0 -82 29
-118 56 -69 51 -173 94 -226 94 l-51 0 -29 -29 c-33 -33 -35 -53 -14 -104 9
-21 15 -67 15 -107 l0 -71 -47 -27 c-26 -15 -66 -46 -89 -70 l-41 -42 -55 0
c-31 0 -72 -7 -91 -15 -26 -11 -73 -15 -165 -15 -93 0 -140 -4 -165 -15 -46
-19 -98 -19 -144 0 -50 21 -65 19 -98 -15 -34 -35 -80 -40 -145 -14 -29 12
-53 14 -83 9 -23 -4 -53 -7 -67 -6 -14 1 -104 5 -200 9 -108 4 -183 12 -197
20 -15 8 -82 12 -228 12 -160 0 -214 3 -242 15 -20 8 -66 15 -105 15 -38 0
-84 7 -105 15 -19 8 -53 15 -75 15 -21 0 -55 7 -75 15 -19 8 -52 15 -72 15
-20 0 -56 6 -81 14 -93 29 -137 38 -225 46 -95 7 -144 26 -170 63 -21 30 -19
64 10 125 31 67 31 82 0 128 -15 22 -25 51 -25 71 0 47 -45 93 -92 93 -24 0
-42 8 -59 26 -13 14 -44 37 -69 51 -25 13 -70 40 -100 59 -30 19 -66 37 -80
41 -14 3 -38 18 -55 33 -38 35 -87 60 -117 60 -13 0 -43 6 -68 14 -60 19 -125
35 -182 46 -26 5 -56 13 -67 19 -11 6 -47 11 -80 11 -33 0 -63 5 -66 10 -3 6
-35 10 -70 10 -35 0 -67 -4 -70 -10z m232 -165 c19 -8 54 -15 77 -15 42 0 65
-11 124 -62 26 -22 43 -28 80 -28 l48 0 80 -54 c44 -29 105 -66 134 -83 32
-17 67 -47 86 -73 18 -25 44 -61 59 -81 15 -22 23 -42 19 -52 -8 -23 -21 -21
-58 6 -47 34 -139 69 -257 96 -55 12 -129 -6 -169 -43 -45 -41 -74 -56 -109
-56 -44 0 -234 63 -331 111 -41 20 -86 39 -100 42 -14 3 -43 21 -65 40 -22 18
-61 45 -86 60 -54 31 -65 51 -45 81 19 30 129 96 159 96 14 0 40 7 58 15 48
20 247 20 296 0z m4643 -161 c0 -2 -7 -4 -15 -4 -8 0 -15 4 -15 10 0 5 7 7 15
4 8 -4 15 -8 15 -10z m80 -54 c0 -5 -4 -10 -9 -10 -6 0 -13 5 -16 10 -3 6 1
10 9 10 9 0 16 -4 16 -10z m146 -47 c51 -25 81 -53 68 -65 -14 -14 -89 13
-120 43 -58 57 -37 66 52 22z"/>
</g>
</svg>
