<?xml version="1.0" standalone="no"?>
<!DOCTYPE svg PUBLIC "-//W3C//DTD SVG 20010904//EN"
 "http://www.w3.org/TR/2001/REC-SVG-20010904/DTD/svg10.dtd">
<svg version="1.0" xmlns="http://www.w3.org/2000/svg"
 width="447.000000pt" height="357.000000pt" viewBox="0 0 447.000000 357.000000"
 preserveAspectRatio="xMidYMid meet">
<metadata>
Created by potrace 1.16, written by Peter Selinger 2001-2019
</metadata>
<g transform="translate(0.000000,357.000000) scale(0.100000,-0.100000)"
fill="#000000" stroke="none">
<path d="M2645 3560 c-3 -5 -32 -10 -63 -10 -37 0 -86 -11 -142 -30 -46 -17
-97 -30 -114 -30 -23 0 -45 -15 -103 -73 l-73 -73 0 -187 0 -187 62 -123 c34
-67 71 -149 83 -181 l20 -60 45 -31 c32 -22 49 -44 61 -76 26 -71 69 -150 109
-199 21 -25 58 -85 84 -135 25 -49 66 -113 91 -142 25 -28 45 -58 45 -67 0 -8
13 -30 28 -48 55 -63 62 -79 55 -123 l-5 -41 40 -16 c22 -9 48 -29 58 -44 10
-16 40 -53 66 -82 26 -30 51 -66 54 -80 12 -50 43 -99 79 -126 23 -18 50 -56
76 -107 22 -44 60 -105 84 -135 24 -29 51 -76 59 -103 8 -27 40 -86 71 -131
30 -45 65 -101 77 -124 32 -65 97 -146 116 -146 28 0 42 -21 42 -63 0 -22 8
-61 17 -87 l17 -48 -13 -43 c-24 -82 -170 -189 -257 -189 -12 0 -38 -7 -57
-15 -21 -8 -67 -15 -105 -15 -39 0 -85 -7 -105 -15 l-36 -15 -336 0 -336 0
-36 15 c-27 12 -79 15 -225 15 -145 0 -197 3 -225 15 -22 9 -67 15 -117 15
-44 0 -101 6 -126 14 -92 29 -138 36 -166 26 -21 -8 -45 -5 -118 19 -141 45
-174 53 -271 61 -55 5 -117 18 -160 34 -38 14 -88 26 -110 26 -27 0 -54 9 -85
30 -25 16 -58 30 -73 30 -15 0 -44 7 -64 15 -19 8 -45 15 -57 15 -31 0 -225
68 -255 89 -81 57 -245 121 -311 121 l-40 0 0 -37 0 -38 49 -42 c27 -23 84
-58 127 -79 92 -43 121 -57 189 -95 28 -16 63 -29 78 -29 16 0 58 -13 94 -30
35 -16 75 -30 89 -30 14 0 41 -7 61 -15 19 -8 47 -15 62 -15 14 0 46 -14 71
-30 31 -21 57 -30 85 -30 22 0 60 -6 85 -14 78 -25 133 -37 195 -45 34 -5 71
-13 83 -20 14 -7 40 -9 69 -5 35 4 64 0 110 -15 l62 -21 142 0 141 0 65 -30
64 -30 85 0 c53 0 98 -6 121 -15 l35 -15 284 0 c178 0 285 -4 289 -10 8 -13
102 -13 110 0 4 6 92 10 230 10 l224 0 64 30 c36 16 76 30 90 30 14 0 67 20
119 45 51 25 99 45 106 45 32 0 94 44 119 83 14 23 46 60 70 83 32 30 43 48
43 71 0 16 5 44 11 61 l11 31 -42 80 c-30 57 -67 106 -131 172 -49 51 -89 101
-89 110 0 9 -18 39 -41 65 -22 27 -65 99 -96 159 -33 64 -76 132 -104 163 -27
30 -53 70 -59 91 -5 21 -19 46 -30 56 -23 21 -120 165 -148 220 -11 22 -30 49
-42 60 -44 39 -80 97 -80 131 l0 32 -40 32 c-23 18 -52 55 -67 83 -28 57 -74
125 -125 189 -20 24 -46 63 -58 88 -13 24 -47 80 -77 124 -30 43 -70 111 -90
150 -20 41 -55 91 -83 117 -30 29 -51 59 -55 80 -9 40 -68 162 -100 204 -38
51 -47 76 -57 149 -11 82 -12 98 -2 184 l6 63 56 39 c30 22 67 40 81 40 14 0
45 7 69 17 l43 16 53 -13 c41 -10 62 -10 86 -1 46 16 124 14 167 -4 19 -8 60
-15 90 -15 40 0 73 -8 120 -30 51 -24 78 -30 130 -30 l66 0 224 -75 c123 -41
233 -75 246 -75 12 0 42 -14 67 -30 25 -16 52 -30 60 -30 8 0 29 -9 45 -21 17
-11 55 -33 85 -48 30 -16 83 -54 118 -85 34 -31 71 -56 82 -56 11 0 35 -23 62
-61 85 -121 108 -135 168 -104 l30 16 0 69 c0 54 -5 76 -22 105 -13 19 -32 50
-43 68 -13 20 -35 37 -58 44 -21 7 -95 51 -166 98 -70 47 -134 85 -142 85 -8
0 -27 9 -44 21 -69 47 -186 99 -222 99 -20 0 -97 20 -170 45 -73 25 -141 45
-151 45 -10 0 -56 13 -102 30 -62 21 -104 30 -153 30 -37 0 -84 7 -104 15 -19
8 -60 15 -90 15 -29 0 -70 7 -90 15 -20 9 -66 15 -109 15 -40 0 -76 5 -79 10
-3 6 -21 10 -40 10 -19 0 -37 -4 -40 -10z"/>
</g>
</svg>
