<?xml version="1.0" standalone="no"?>
<!DOCTYPE svg PUBLIC "-//W3C//DTD SVG 20010904//EN"
 "http://www.w3.org/TR/2001/REC-SVG-20010904/DTD/svg10.dtd">
<svg version="1.0" xmlns="http://www.w3.org/2000/svg"
 width="888.000000pt" height="87.000000pt" viewBox="0 0 888.000000 87.000000"
 preserveAspectRatio="xMidYMid meet">
<metadata>
Created by potrace 1.16, written by Peter Selinger 2001-2019
</metadata>
<g transform="translate(0.000000,87.000000) scale(0.100000,-0.100000)"
fill="#000000" stroke="none">
<path d="M7535 862 c-6 -5 -41 -19 -78 -31 -123 -39 -174 -75 -212 -149 -13
-27 -14 -40 -6 -64 6 -17 11 -52 11 -77 0 -46 -32 -154 -53 -179 -11 -14 -89
-52 -106 -52 -5 0 -40 -14 -77 -31 l-67 -31 -36 7 c-41 8 -44 8 -171 -3 -52
-5 -108 -14 -123 -20 -16 -7 -45 -12 -65 -12 -20 0 -56 -8 -80 -17 l-44 -17
-44 12 c-30 8 -52 9 -69 2 -34 -13 -206 -13 -240 0 -19 7 -39 7 -67 -2 l-40
-12 -51 17 c-32 10 -100 19 -177 22 -69 2 -134 5 -145 6 -11 1 -36 -2 -56 -6
l-36 -7 -67 31 -67 31 -145 0 c-106 0 -154 4 -181 15 -19 8 -53 15 -75 15 -21
0 -55 7 -75 15 -19 8 -60 15 -90 15 -29 0 -70 7 -90 15 -19 8 -60 15 -90 15
-40 0 -73 8 -120 30 l-64 30 -100 0 c-66 0 -112 5 -136 15 -19 8 -53 15 -75
15 -21 0 -55 7 -75 15 -19 8 -47 15 -60 15 -32 0 -138 49 -194 89 l-42 31
-299 0 -299 0 -36 15 c-25 11 -72 15 -164 15 -95 0 -139 4 -169 16 -29 12 -53
14 -83 9 -48 -8 -37 -8 -257 5 -189 12 -187 12 -376 4 l-141 -5 -38 15 c-27
12 -72 16 -167 16 -92 0 -139 4 -165 15 -27 12 -79 15 -225 15 -145 0 -197 3
-225 15 l-35 15 -279 0 c-192 0 -286 4 -306 12 -15 6 -77 15 -138 20 -145 11
-140 11 -219 1 l-69 -9 -33 -40 -34 -39 0 -47 c0 -26 5 -50 10 -53 6 -3 10
-22 10 -41 l0 -35 64 -65 c35 -35 82 -77 105 -92 23 -15 120 -105 215 -200
l174 -172 34 0 33 1 23 35 c28 45 28 65 -3 110 -14 20 -25 45 -25 55 0 11 -23
36 -55 60 -30 22 -70 64 -89 92 -19 29 -53 70 -76 92 -61 59 -84 99 -70 125
l11 20 189 0 c152 0 198 -3 230 -16 l41 -16 42 11 c31 9 50 9 70 2 16 -6 104
-11 203 -11 133 0 183 -4 211 -15 26 -11 76 -15 195 -15 118 0 168 -4 195 -15
28 -12 81 -15 243 -15 l208 0 37 16 38 16 41 -16 c30 -12 77 -16 169 -16 91 0
138 -4 164 -15 19 -8 53 -15 75 -15 21 0 55 -7 75 -15 l35 -15 310 0 309 0 36
-15 c19 -8 60 -15 90 -15 29 0 70 -7 90 -15 19 -8 52 -15 72 -15 20 0 75 -13
121 -30 47 -16 96 -30 108 -30 13 0 53 -13 89 -30 l64 -30 70 0 c39 0 85 -7
106 -15 23 -10 69 -15 132 -15 l97 0 84 -30 c62 -21 104 -30 153 -30 37 0 84
-7 104 -15 24 -10 71 -15 150 -15 78 0 125 -5 150 -15 19 -8 53 -15 74 -15 21
0 50 -5 66 -11 15 -7 76 -13 135 -15 67 -2 120 -9 143 -18 25 -11 70 -16 136
-16 68 0 111 -5 140 -17 l41 -16 47 16 c58 22 159 22 211 1 27 -11 52 -14 78
-9 40 7 51 7 225 -1 l118 -5 48 30 48 31 85 0 c53 0 99 6 121 15 20 8 53 15
74 15 21 0 76 14 123 30 46 17 96 30 110 30 16 0 37 12 55 30 16 17 37 30 47
30 31 0 97 68 109 113 6 23 22 63 35 89 19 38 24 63 24 123 l0 76 25 24 24 25
115 0 c64 0 127 -5 143 -12 27 -11 52 -15 208 -36 39 -5 85 -17 102 -26 18 -9
43 -16 55 -16 35 0 135 -37 177 -66 19 -13 42 -24 49 -24 8 0 43 -13 79 -30
35 -16 70 -30 76 -30 7 0 50 -25 95 -55 125 -83 153 -95 222 -95 l60 0 0 44 0
45 -87 91 c-93 99 -121 117 -238 155 -42 13 -89 33 -104 44 -38 27 -267 99
-383 121 -26 5 -56 13 -67 19 -11 6 -38 11 -61 11 -22 0 -57 7 -77 15 -19 8
-62 15 -94 15 -32 0 -61 5 -64 10 -7 12 -157 13 -170 2z"/>
</g>
</svg>
