<?xml version="1.0" standalone="no"?>
<!DOCTYPE svg PUBLIC "-//W3C//DTD SVG 20010904//EN"
 "http://www.w3.org/TR/2001/REC-SVG-20010904/DTD/svg10.dtd">
<svg version="1.0" xmlns="http://www.w3.org/2000/svg"
 width="867.000000pt" height="147.000000pt" viewBox="0 0 867.000000 147.000000"
 preserveAspectRatio="xMidYMid meet">
<metadata>
Created by potrace 1.16, written by Peter Selinger 2001-2019
</metadata>
<g transform="translate(0.000000,147.000000) scale(0.100000,-0.100000)"
fill="#000000" stroke="none">
<path d="M0 1418 l0 -53 33 -20 c77 -47 114 -64 140 -65 15 0 44 -7 64 -15 20
-9 66 -15 107 -15 l71 0 45 -30 c31 -21 57 -30 85 -30 22 0 60 -6 85 -14 94
-30 138 -38 225 -45 50 -4 100 -12 112 -19 15 -8 99 -12 288 -12 l266 0 36
-15 c19 -8 61 -15 93 -15 32 0 74 7 93 15 23 9 68 15 121 15 l85 0 92 45 c51
25 99 45 106 45 8 0 31 9 53 20 22 11 51 20 65 20 30 0 90 -29 148 -71 22 -16
52 -29 66 -29 59 0 217 -65 294 -121 22 -16 47 -29 56 -29 9 0 30 -9 46 -21
86 -58 338 -159 398 -159 16 0 52 -31 121 -105 105 -113 215 -195 259 -195 36
0 84 -21 137 -59 24 -17 50 -31 60 -31 9 0 54 -18 101 -41 46 -22 122 -53 169
-69 47 -15 99 -34 116 -43 47 -24 144 -54 199 -61 124 -15 164 -25 215 -54 30
-18 68 -32 83 -32 15 0 44 -7 64 -15 19 -8 53 -15 75 -15 21 0 55 -7 75 -15
27 -11 77 -15 210 -15 132 0 182 -4 210 -15 26 -11 75 -15 184 -15 88 0 150
-4 154 -10 8 -13 61 -13 87 1 14 8 23 8 31 0 14 -14 104 -15 112 -1 3 6 46 10
94 10 56 0 102 6 124 15 20 8 66 15 102 15 108 0 230 49 399 163 119 79 143
102 173 162 14 28 43 71 64 97 39 47 69 119 69 168 0 14 7 35 15 46 l14 21
143 5 143 5 42 -20 43 -21 50 18 50 18 66 -31 c39 -18 83 -31 105 -31 22 0 56
-7 76 -15 19 -8 47 -15 62 -15 14 0 55 -14 89 -30 35 -17 69 -30 75 -30 7 0
41 -14 75 -30 35 -17 75 -30 90 -30 14 0 46 -13 71 -29 25 -16 57 -31 71 -34
14 -4 45 -23 68 -42 23 -20 58 -41 77 -46 19 -6 43 -22 52 -36 10 -15 37 -46
59 -70 l41 -43 67 0 66 0 0 59 0 59 -74 79 c-53 57 -89 85 -127 102 -30 12
-70 31 -89 42 -151 83 -254 127 -469 198 -173 58 -256 81 -292 81 -27 0 -66 7
-86 15 -42 18 -107 19 -151 4 l-32 -11 -84 27 -85 27 -33 -10 c-18 -6 -80 -9
-137 -7 l-103 3 -36 -24 c-19 -13 -44 -24 -54 -24 -30 0 -78 -54 -78 -87 0
-28 -59 -213 -85 -268 -21 -43 -35 -58 -81 -91 -22 -16 -60 -44 -84 -61 -24
-18 -50 -33 -59 -33 -9 0 -34 -12 -56 -27 l-40 -28 -115 -6 c-110 -6 -149 -13
-250 -45 -35 -11 -53 -12 -76 -4 -21 8 -39 8 -58 0 -15 -5 -104 -10 -197 -10
l-170 0 -43 25 -43 25 -30 -11 c-24 -8 -39 -7 -68 5 -28 12 -73 16 -179 16
-94 0 -156 5 -186 14 -56 18 -123 35 -175 45 -55 11 -153 45 -203 70 -27 14
-60 21 -97 21 -31 0 -72 7 -92 15 -19 8 -47 15 -62 15 -14 0 -46 14 -71 30
-25 16 -52 30 -60 30 -8 0 -35 14 -60 30 -25 17 -58 30 -75 30 -16 0 -57 13
-90 28 -33 16 -72 32 -87 35 -14 4 -40 25 -58 46 -24 31 -39 41 -67 43 -20 2
-39 10 -43 18 -4 8 -18 37 -31 65 l-24 50 -70 38 c-38 21 -82 50 -97 64 -28
27 -116 62 -158 63 -14 0 -43 12 -65 25 -22 14 -49 25 -60 25 -11 0 -33 9 -50
20 -16 11 -37 20 -45 20 -8 0 -35 14 -60 30 -25 16 -58 30 -73 30 -27 0 -99
38 -218 114 -31 20 -68 36 -85 36 -16 0 -49 14 -74 30 -25 16 -58 30 -73 30
-16 0 -55 16 -86 35 -75 46 -184 85 -241 85 -64 0 -119 -34 -151 -93 -34 -64
-44 -72 -114 -96 l-59 -21 -183 0 c-122 0 -191 4 -210 12 -17 8 -108 15 -228
20 -110 4 -209 8 -220 8 -11 0 -48 -2 -81 -6 l-61 -6 -136 46 c-88 30 -153 46
-185 46 -28 0 -83 12 -132 30 -47 16 -94 30 -105 30 -23 0 -121 33 -132 43 -3
4 -44 7 -90 7 l-83 0 0 -52z"/>
</g>
</svg>
