<?xml version="1.0" standalone="no"?>
<!DOCTYPE svg PUBLIC "-//W3C//DTD SVG 20010904//EN"
 "http://www.w3.org/TR/2001/REC-SVG-20010904/DTD/svg10.dtd">
<svg version="1.0" xmlns="http://www.w3.org/2000/svg"
 width="369.000000pt" height="105.000000pt" viewBox="0 0 369.000000 105.000000"
 preserveAspectRatio="xMidYMid meet">
<metadata>
Created by potrace 1.16, written by Peter Selinger 2001-2019
</metadata>
<g transform="translate(0.000000,105.000000) scale(0.100000,-0.100000)"
fill="#000000" stroke="none">
<path d="M1625 1040 c-3 -5 -26 -10 -51 -10 -47 0 -47 0 -117 -78 -16 -18 -41
-35 -55 -38 -15 -4 -35 -14 -44 -22 l-18 -15 0 -91 c0 -134 -24 -161 -98 -111
l-37 25 -118 0 c-82 0 -129 5 -154 15 -28 12 -82 15 -255 15 -172 0 -226 3
-255 15 -51 22 -351 21 -393 0 l-30 -16 0 -37 0 -37 49 -18 c27 -9 71 -17 97
-17 27 0 82 -11 123 -25 l74 -25 33 10 c25 9 40 8 69 -5 l37 -15 265 0 c195 0
272 -3 296 -13 23 -9 99 -14 259 -16 l227 -2 50 26 c28 14 55 34 61 45 15 28
-16 84 -79 142 l-52 48 10 19 c12 22 70 51 104 51 13 0 41 7 60 15 26 11 73
15 162 15 89 0 136 -4 162 -15 26 -11 76 -15 195 -15 118 0 168 -4 195 -15 19
-8 60 -15 90 -15 29 0 70 -7 90 -15 19 -8 47 -15 62 -15 14 0 55 -14 89 -30
35 -17 75 -30 88 -30 14 0 41 -7 61 -15 19 -8 54 -15 76 -15 22 0 70 -13 106
-29 100 -43 171 -72 227 -91 77 -27 134 -58 186 -102 55 -45 135 -73 184 -63
l34 6 -1 62 0 62 -42 32 c-64 50 -280 153 -422 203 -28 10 -83 34 -123 54 -44
22 -86 36 -109 36 -21 0 -71 11 -111 25 -45 15 -83 22 -101 19 -21 -5 -39 1
-67 20 -21 14 -51 26 -67 26 -15 0 -44 7 -64 15 -19 8 -60 15 -90 15 -29 0
-70 7 -90 15 -26 11 -76 15 -199 15 -98 0 -165 4 -169 10 -4 6 -83 10 -205 10
-122 0 -201 -4 -205 -10z"/>
<path d="M89 340 c-20 -10 -48 -35 -62 -54 l-27 -35 0 -90 c0 -50 4 -91 9 -91
5 0 24 -16 42 -35 l33 -35 86 0 86 0 26 27 c31 34 88 145 88 172 0 33 -59 90
-131 127 -78 39 -99 41 -150 14z"/>
</g>
</svg>
