<?xml version="1.0" standalone="no"?>
<!DOCTYPE svg PUBLIC "-//W3C//DTD SVG 20010904//EN"
 "http://www.w3.org/TR/2001/REC-SVG-20010904/DTD/svg10.dtd">
<svg version="1.0" xmlns="http://www.w3.org/2000/svg"
 width="396.000000pt" height="84.000000pt" viewBox="0 0 396.000000 84.000000"
 preserveAspectRatio="xMidYMid meet">
<metadata>
Created by potrace 1.16, written by Peter Selinger 2001-2019
</metadata>
<g transform="translate(0.000000,84.000000) scale(0.100000,-0.100000)"
fill="#000000" stroke="none">
<path d="M2030 820 c-14 -11 -38 -22 -55 -26 -56 -12 -100 -42 -188 -125 l-87
-84 0 -59 0 -59 44 -43 43 -44 64 0 c35 0 71 -5 79 -10 l15 -10 -28 -25 -28
-25 -217 0 c-160 0 -229 4 -262 14 -88 28 -136 38 -205 45 -53 5 -80 13 -110
34 -22 15 -52 27 -68 27 -15 0 -44 7 -64 15 -19 8 -52 15 -72 15 -40 0 -126
27 -209 66 -29 13 -57 24 -63 24 -6 0 -40 13 -76 30 -39 18 -81 30 -106 30
-30 0 -55 9 -87 30 -25 16 -51 30 -58 30 -8 0 -41 13 -75 28 -34 16 -86 35
-114 42 l-53 14 -25 -24 -25 -23 0 -72 0 -72 21 -19 c12 -10 27 -31 35 -46 8
-15 39 -43 69 -63 67 -45 215 -200 215 -225 0 -38 -37 -50 -151 -50 l-106 0
-16 -18 c-24 -26 -21 -48 10 -98 l28 -43 151 -1 152 0 5 15 c4 8 24 26 46 40
59 36 91 105 91 192 0 37 4 74 9 82 l9 14 82 -27 c44 -14 95 -26 113 -26 17 0
72 -13 122 -29 103 -33 160 -49 227 -61 26 -5 56 -13 67 -19 11 -6 38 -11 61
-11 22 0 57 -7 77 -15 l35 -15 272 0 271 0 45 30 c34 22 57 30 91 30 34 0 56
7 85 28 45 32 106 62 126 62 39 0 85 63 113 158 17 54 12 63 -49 120 -50 46
-68 50 -123 27 -55 -23 -183 -19 -183 6 0 30 141 61 275 59 27 0 64 5 81 10
25 9 41 8 69 -5 27 -11 72 -15 164 -15 81 0 142 -5 171 -14 101 -32 140 -39
255 -45 66 -4 130 -12 142 -19 12 -6 34 -12 48 -12 14 0 51 -11 80 -25 74 -34
260 -95 289 -95 12 0 42 -15 66 -33 24 -17 71 -51 104 -74 l61 -43 48 0 c26 0
61 7 77 15 l30 16 0 54 0 55 -39 19 c-21 11 -63 42 -92 69 -60 54 -126 92
-161 92 -35 0 -135 37 -177 66 -19 13 -47 24 -61 24 -14 0 -64 13 -110 30
l-85 30 -98 0 c-64 0 -110 5 -134 15 -20 8 -66 15 -105 15 -38 0 -84 7 -105
15 -20 9 -66 15 -109 15 -40 0 -76 5 -79 10 -4 6 -107 10 -278 10 l-272 0 -25
-20z"/>
</g>
</svg>
