<?xml version="1.0" standalone="no"?>
<!DOCTYPE svg PUBLIC "-//W3C//DTD SVG 20010904//EN"
 "http://www.w3.org/TR/2001/REC-SVG-20010904/DTD/svg10.dtd">
<svg version="1.0" xmlns="http://www.w3.org/2000/svg"
 width="519.000000pt" height="144.000000pt" viewBox="0 0 519.000000 144.000000"
 preserveAspectRatio="xMidYMid meet">
<metadata>
Created by potrace 1.16, written by Peter Selinger 2001-2019
</metadata>
<g transform="translate(0.000000,144.000000) scale(0.100000,-0.100000)"
fill="#000000" stroke="none">
<path d="M1398 1396 c-49 -77 -30 -146 38 -146 20 0 40 -10 58 -29 15 -16 40
-31 55 -34 15 -3 55 -31 89 -61 35 -31 70 -56 80 -56 9 0 38 -24 63 -53 27
-30 69 -63 102 -80 30 -15 88 -57 129 -94 40 -36 102 -89 138 -118 36 -29 105
-94 155 -144 49 -50 108 -103 130 -117 22 -14 55 -45 73 -70 l33 -44 69 0 70
0 17 20 c27 31 45 24 83 -32 94 -139 335 -318 429 -318 16 0 33 -4 36 -10 3
-6 47 -10 98 -10 l92 1 28 43 c33 53 35 103 6 189 l-20 62 -72 73 c-44 45 -95
85 -131 103 -61 32 -149 114 -143 133 6 18 350 20 407 2 85 -27 135 -38 210
-46 41 -4 107 -20 145 -34 40 -15 91 -26 120 -26 58 0 152 -30 204 -66 19 -13
47 -24 60 -24 35 0 143 -38 234 -82 43 -21 83 -38 90 -38 7 0 32 -14 57 -30
25 -16 52 -30 60 -30 33 0 199 -92 223 -123 14 -18 53 -50 88 -70 l63 -38 61
3 60 3 3 34 c2 18 -1 38 -7 44 -6 6 -11 19 -11 30 0 45 -197 212 -291 246 -19
7 -47 20 -64 28 -135 73 -178 94 -232 112 -34 12 -73 21 -85 21 -25 0 -57 18
-98 56 -30 27 -136 64 -185 64 -20 0 -52 7 -72 15 -19 8 -58 15 -86 15 -29 0
-91 13 -142 29 -122 39 -170 51 -240 60 -34 5 -70 13 -82 19 -12 7 -47 12 -78
12 -30 0 -72 7 -92 15 -27 11 -77 15 -210 15 l-175 0 -89 -31 -89 -31 -126 61
c-152 74 -196 79 -263 31 -23 -17 -54 -33 -70 -36 l-28 -6 -64 59 c-35 33 -96
80 -135 106 -39 26 -83 62 -97 81 -15 19 -38 36 -56 39 -18 4 -58 32 -98 70
-63 60 -191 137 -227 137 -7 0 -25 15 -39 33 -37 49 -141 107 -191 107 l-41
-1 -27 -43z m1796 -1101 c41 -17 69 -54 60 -79 -7 -19 -14 -20 -51 -4 -43 18
-73 49 -73 75 0 27 14 29 64 8z"/>
<path d="M565 1315 c-16 -8 -55 -14 -86 -15 -31 0 -73 -7 -92 -15 -20 -8 -56
-15 -79 -15 -61 -1 -112 -32 -217 -131 l-91 -87 0 -84 0 -85 38 -41 39 -42 55
0 c40 0 59 5 71 18 21 23 21 33 0 91 -19 56 -13 88 24 125 32 32 102 66 136
66 14 0 41 7 60 15 20 8 54 15 75 15 22 0 56 7 77 15 l37 16 34 -11 c19 -7 51
-9 72 -5 26 4 60 -2 115 -20 43 -14 98 -25 123 -25 71 0 180 -39 229 -82 27
-24 53 -38 70 -38 15 0 56 -13 92 -30 35 -16 70 -30 77 -30 7 0 32 -15 56 -32
24 -18 62 -46 84 -62 23 -15 69 -55 103 -87 43 -42 69 -59 88 -59 32 0 85 49
85 79 0 12 -16 53 -35 91 -26 51 -46 77 -75 95 -22 14 -43 25 -46 25 -4 0 -32
20 -62 45 -30 25 -62 45 -71 45 -9 0 -36 14 -61 30 -25 17 -58 30 -76 30 -21
0 -39 9 -59 30 -20 21 -38 30 -60 30 -21 0 -40 9 -56 26 -42 45 -91 64 -169
64 -40 0 -86 6 -107 15 -19 8 -53 15 -75 15 -21 0 -55 7 -75 15 -46 19 -206
19 -248 0z"/>
</g>
</svg>
