<?xml version="1.0" standalone="no"?>
<!DOCTYPE svg PUBLIC "-//W3C//DTD SVG 20010904//EN"
 "http://www.w3.org/TR/2001/REC-SVG-20010904/DTD/svg10.dtd">
<svg version="1.0" xmlns="http://www.w3.org/2000/svg"
 width="288.000000pt" height="186.000000pt" viewBox="0 0 288.000000 186.000000"
 preserveAspectRatio="xMidYMid meet">
<metadata>
Created by potrace 1.16, written by Peter Selinger 2001-2019
</metadata>
<g transform="translate(0.000000,186.000000) scale(0.100000,-0.100000)"
fill="#000000" stroke="none">
<path d="M23 1834 l-23 -25 0 -100 0 -100 18 -27 c53 -77 92 -153 92 -179 0
-26 32 -79 118 -193 17 -24 32 -51 32 -61 0 -9 19 -32 43 -50 23 -18 76 -64
119 -103 114 -106 179 -152 289 -207 l99 -49 105 0 106 0 49 25 c27 13 68 47
92 75 49 57 58 59 143 30 75 -26 102 -39 140 -67 17 -12 90 -52 163 -88 130
-65 241 -133 292 -180 14 -13 45 -33 70 -45 25 -12 65 -39 90 -59 25 -20 65
-49 90 -63 25 -14 54 -36 65 -48 22 -24 86 -60 108 -60 7 0 24 -12 38 -26 13
-14 42 -35 64 -46 22 -11 60 -37 85 -57 25 -20 62 -48 82 -61 21 -14 43 -35
49 -48 l13 -23 110 3 111 3 3 63 c2 40 -1 62 -8 62 -6 0 -32 9 -57 21 -51 23
-224 185 -269 252 -16 23 -45 62 -65 87 -19 25 -50 68 -67 96 l-32 51 0 114
-1 114 -22 65 -23 65 -42 28 c-24 16 -54 46 -68 68 -22 36 -103 89 -135 89 -7
0 -45 16 -85 35 -48 23 -83 48 -104 75 l-32 40 -44 0 c-25 0 -61 7 -81 15 -53
22 -69 19 -119 -27 -65 -60 -70 -73 -40 -103 l25 -25 61 0 c33 0 77 -7 97 -15
19 -8 48 -15 64 -15 l28 0 38 -57 38 -57 39 -9 c29 -7 56 -27 104 -78 86 -91
102 -116 102 -165 0 -23 7 -58 15 -77 21 -51 19 -83 -7 -101 -34 -24 -64 -19
-105 18 -21 18 -62 45 -91 60 -29 15 -69 42 -90 60 -20 18 -55 43 -77 55 -22
12 -65 38 -95 57 -30 19 -72 39 -94 45 -49 13 -70 25 -128 71 -28 23 -76 47
-125 63 -98 32 -170 66 -224 105 -23 16 -49 30 -58 30 -9 0 -29 9 -46 21 -111
75 -198 90 -254 43 -50 -41 -55 -58 -31 -103 11 -22 35 -51 53 -65 18 -14 43
-39 55 -56 l24 -31 -16 -25 c-28 -41 -77 -31 -146 31 -14 13 -49 35 -78 50
-29 15 -61 39 -70 53 -9 14 -34 43 -54 63 -21 21 -38 41 -38 45 0 9 93 125
119 148 28 25 27 42 -9 118 -16 34 -30 77 -30 95 l0 32 -57 44 c-32 25 -76 64
-98 86 -22 24 -55 46 -76 51 -35 10 -89 53 -89 71 0 5 -48 9 -107 8 l-108 -1
-22 -24z m320 -320 c21 -20 45 -46 53 -59 27 -42 -10 -78 -52 -50 -26 17 -64
91 -64 124 0 31 20 26 63 -15z"/>
</g>
</svg>
