<?xml version="1.0" standalone="no"?>
<!DOCTYPE svg PUBLIC "-//W3C//DTD SVG 20010904//EN"
 "http://www.w3.org/TR/2001/REC-SVG-20010904/DTD/svg10.dtd">
<svg version="1.0" xmlns="http://www.w3.org/2000/svg"
 width="489.000000pt" height="291.000000pt" viewBox="0 0 489.000000 291.000000"
 preserveAspectRatio="xMidYMid meet">
<metadata>
Created by potrace 1.16, written by Peter Selinger 2001-2019
</metadata>
<g transform="translate(0.000000,291.000000) scale(0.100000,-0.100000)"
fill="#000000" stroke="none">
<path d="M117 2885 c-10 -14 -24 -25 -32 -25 -7 0 -30 -20 -49 -44 l-36 -43 0
-87 c0 -47 4 -94 10 -104 5 -9 19 -46 31 -82 11 -36 31 -78 43 -95 13 -16 33
-50 46 -75 26 -52 291 -321 367 -374 63 -43 120 -72 160 -80 17 -4 51 -25 75
-46 24 -21 89 -61 144 -90 54 -28 124 -67 154 -86 30 -19 71 -39 90 -44 19 -5
59 -21 88 -35 28 -14 58 -25 64 -25 7 0 33 -14 58 -30 25 -16 56 -30 70 -30
30 0 123 -31 198 -66 29 -13 57 -24 63 -24 6 0 40 -14 76 -30 37 -17 81 -30
104 -30 22 0 56 -7 76 -15 19 -8 65 -15 102 -15 36 0 86 -6 111 -14 93 -29
138 -38 225 -45 50 -4 102 -14 117 -21 l27 -13 66 21 65 22 92 -6 93 -6 94
-44 c51 -24 99 -44 106 -44 15 0 123 -78 144 -103 7 -9 21 -17 30 -17 9 0 75
-39 146 -86 72 -48 144 -91 162 -96 18 -5 56 -30 85 -57 29 -26 72 -58 94 -69
23 -12 77 -46 121 -75 86 -60 144 -91 185 -101 14 -3 51 -28 81 -56 29 -27 96
-70 147 -96 52 -26 110 -62 129 -79 20 -18 52 -40 71 -50 19 -9 55 -34 80 -54
25 -20 85 -63 134 -96 49 -33 98 -74 110 -92 l21 -33 65 2 65 3 3 49 3 49 -38
40 c-52 54 -162 141 -258 205 -44 30 -91 64 -105 76 -14 12 -44 35 -68 51 -24
16 -63 46 -87 67 -24 21 -49 38 -57 38 -25 0 -161 79 -339 197 -77 51 -157
102 -178 113 -21 10 -74 44 -118 73 -86 59 -155 97 -176 97 -7 0 -24 12 -38
26 -13 14 -44 37 -69 51 -133 72 -240 154 -240 183 0 16 63 77 107 104 l43 26
50 100 50 100 0 60 0 60 -36 73 c-22 42 -63 100 -100 139 -35 37 -70 81 -79
98 -9 16 -33 41 -55 55 -22 14 -65 48 -95 75 -30 28 -63 50 -73 50 -9 0 -33
11 -53 24 -20 14 -84 41 -143 60 l-106 36 -114 0 c-78 0 -125 -5 -149 -15 -20
-8 -52 -15 -72 -15 -48 0 -155 -37 -183 -63 -33 -30 -112 -150 -112 -169 0 -8
7 -32 15 -51 8 -20 15 -49 15 -64 0 -32 55 -117 125 -195 26 -29 58 -74 71
-100 16 -32 39 -57 67 -74 23 -15 56 -39 72 -54 17 -16 48 -38 71 -49 22 -12
53 -34 69 -51 l28 -29 -13 -16 c-17 -21 -157 -21 -207 0 -19 8 -59 15 -87 15
-28 0 -71 6 -96 14 -93 30 -137 39 -220 45 -93 8 -158 27 -262 78 -93 45 -180
73 -226 73 -29 0 -45 7 -67 30 -16 17 -36 30 -44 30 -9 0 -58 20 -109 45 -52
25 -98 45 -104 45 -17 0 -81 33 -122 62 -21 15 -46 28 -55 28 -9 0 -36 14 -61
30 -25 16 -52 30 -61 30 -8 0 -26 12 -40 26 -13 14 -54 46 -91 71 -37 24 -86
60 -109 79 -22 19 -45 34 -49 34 -13 0 -100 90 -100 104 0 7 27 37 61 67 33
30 71 75 85 101 l24 47 0 91 c0 73 -4 99 -21 132 -39 76 -102 160 -128 170
-14 6 -34 14 -43 19 -10 5 -71 9 -135 9 l-118 -1 -18 -24z m203 -181 c32 -20
60 -63 60 -94 0 -13 5 -40 12 -62 l12 -39 -35 -34 c-48 -47 -73 -52 -96 -19
-10 14 -33 43 -50 64 -18 20 -33 48 -33 60 0 12 -5 41 -12 63 l-12 40 23 18
c29 24 93 25 131 3z m2399 -535 c120 -57 218 -125 246 -169 22 -35 50 -62 110
-104 64 -45 84 -177 44 -291 -11 -33 -25 -65 -30 -72 -12 -14 -161 -63 -192
-63 -36 0 -118 45 -182 99 -33 28 -90 66 -126 85 -86 45 -200 124 -219 150
-14 20 -28 34 -103 104 -69 65 -86 173 -38 241 16 22 30 31 51 31 15 0 43 7
61 15 24 10 73 14 163 15 l129 0 86 -41z"/>
</g>
</svg>
