<?xml version="1.0" standalone="no"?>
<!DOCTYPE svg PUBLIC "-//W3C//DTD SVG 20010904//EN"
 "http://www.w3.org/TR/2001/REC-SVG-20010904/DTD/svg10.dtd">
<svg version="1.0" xmlns="http://www.w3.org/2000/svg"
 width="582.000000pt" height="318.000000pt" viewBox="0 0 582.000000 318.000000"
 preserveAspectRatio="xMidYMid meet">
<metadata>
Created by potrace 1.16, written by Peter Selinger 2001-2019
</metadata>
<g transform="translate(0.000000,318.000000) scale(0.100000,-0.100000)"
fill="#000000" stroke="none">
<path d="M3125 3170 c-3 -5 -20 -10 -36 -10 -32 0 -103 -32 -116 -52 -42 -67
-58 -250 -28 -321 8 -20 15 -48 15 -63 0 -16 13 -41 35 -65 19 -21 49 -67 66
-101 17 -35 57 -90 88 -123 61 -64 131 -166 131 -190 l0 -15 -720 0 -721 0
-36 15 -35 15 -279 0 c-173 0 -288 4 -306 11 -15 6 -122 14 -238 19 -116 5
-244 14 -285 19 -41 5 -108 10 -148 10 l-74 1 -29 -29 c-35 -35 -36 -62 -6
-116 l22 -40 100 -52 c55 -29 106 -52 114 -53 20 0 199 -87 235 -114 17 -13
51 -34 76 -46 25 -12 66 -40 92 -61 25 -21 82 -57 125 -78 44 -22 103 -61 132
-87 28 -25 69 -58 91 -73 22 -15 100 -86 174 -158 132 -128 213 -236 229 -303
3 -14 24 -55 47 -92 l40 -67 0 -106 c0 -59 -5 -115 -10 -126 l-11 -19 -265 0
-265 0 -36 15 c-27 12 -79 15 -225 15 l-189 0 -42 19 c-23 11 -69 42 -102 70
-67 56 -200 129 -293 160 -48 16 -87 21 -177 21 l-116 0 -42 -21 c-23 -12 -57
-33 -74 -47 l-33 -24 0 -83 0 -83 33 -24 c46 -36 112 -68 139 -68 13 0 43 -6
68 -14 94 -30 138 -38 225 -45 50 -4 97 -11 105 -16 8 -5 43 -12 76 -16 80 -8
115 -33 153 -111 36 -70 41 -145 16 -205 -24 -57 -41 -70 -131 -99 -52 -16
-90 -35 -99 -47 l-14 -20 21 -39 22 -38 62 0 c35 0 66 5 69 10 3 6 19 10 35
10 18 0 42 11 63 30 19 17 41 30 49 30 24 0 58 30 77 69 58 112 76 233 46 305
-12 27 -13 42 -5 56 l11 20 340 0 340 0 56 -25 56 -26 30 11 c16 5 47 10 69
10 39 0 106 28 124 52 6 7 22 52 37 99 l28 86 -11 27 c-5 15 -10 71 -10 125 0
65 -5 111 -15 134 -8 20 -15 48 -15 63 0 16 -13 41 -35 65 -19 21 -57 83 -84
137 -33 66 -62 108 -86 128 -20 16 -51 44 -68 62 -153 159 -269 252 -388 312
-24 12 -65 39 -90 61 -26 21 -75 52 -110 70 -59 29 -190 113 -248 158 -47 36
-21 41 210 41 173 0 227 -3 256 -15 28 -12 86 -15 285 -15 198 0 256 -3 285
-15 51 -21 345 -21 396 0 46 19 128 19 174 0 27 -12 79 -15 224 -15 103 0 199
-4 214 -10 17 -7 39 -6 69 2 l44 12 44 -17 c33 -13 76 -17 171 -17 l128 0 57
-26 c89 -41 191 -113 217 -153 20 -32 122 -129 182 -173 11 -7 32 -30 47 -51
16 -20 60 -58 99 -84 39 -26 85 -59 102 -73 16 -14 43 -34 60 -45 16 -10 60
-47 97 -82 37 -34 76 -63 86 -63 11 0 31 -15 45 -34 15 -18 50 -48 79 -65 29
-17 85 -58 123 -91 39 -33 93 -72 120 -86 52 -28 109 -68 160 -115 17 -15 44
-30 61 -33 17 -4 56 -28 85 -53 30 -25 98 -75 151 -110 53 -35 107 -77 118
-94 12 -16 40 -39 63 -50 23 -12 62 -38 87 -58 25 -20 65 -49 90 -63 25 -14
54 -36 65 -48 31 -35 90 -60 140 -60 l45 0 0 56 0 57 -36 44 c-20 24 -55 56
-77 70 -22 14 -61 44 -86 67 -25 23 -85 68 -133 100 -48 32 -107 75 -130 96
-45 39 -98 70 -120 70 -7 0 -34 24 -59 53 -34 38 -69 64 -133 96 -55 27 -96
55 -113 77 -14 19 -56 50 -94 70 -37 20 -80 51 -94 70 -15 19 -48 45 -74 59
-53 27 -172 105 -211 139 -14 12 -41 33 -61 46 -19 12 -51 46 -70 74 l-35 51
-49 15 c-38 11 -63 29 -105 73 -30 32 -66 65 -80 72 -14 7 -53 37 -87 67 -35
29 -74 62 -88 73 -29 23 -49 87 -32 104 6 6 32 11 58 11 26 0 63 7 82 15 21 9
67 15 111 15 l74 0 58 43 c33 24 65 51 73 60 7 9 21 17 30 17 29 0 61 30 86
80 l25 49 0 78 c-1 61 -6 87 -23 118 -60 111 -228 295 -302 332 -27 14 -71 43
-97 64 -26 22 -93 63 -150 91 -57 28 -121 64 -142 80 -21 15 -52 28 -68 28
-16 0 -45 7 -65 15 -19 8 -59 15 -87 15 -47 0 -146 26 -163 43 -10 11 -221 8
-228 -3z m280 -171 c33 -11 84 -31 113 -45 29 -13 63 -24 77 -24 36 0 69 -15
110 -52 21 -18 85 -58 144 -88 83 -44 111 -64 133 -96 15 -22 46 -53 70 -68
28 -17 62 -55 95 -104 87 -131 91 -154 32 -235 l-40 -57 -28 0 c-16 0 -45 -7
-64 -15 -28 -12 -82 -15 -242 -15 l-206 0 -24 28 c-52 58 -113 118 -138 135
-16 10 -31 33 -37 57 -7 27 -27 53 -64 87 -29 26 -61 62 -72 78 -10 17 -33 47
-52 69 -19 21 -45 61 -58 90 l-24 51 0 87 c0 95 -1 93 70 120 62 23 135 22
205 -3z m-3048 -2180 l28 -11 -20 -8 c-28 -12 -67 -12 -85 0 l-15 10 15 10
c20 13 42 12 77 -1z"/>
</g>
</svg>
