<?xml version="1.0" standalone="no"?>
<!DOCTYPE svg PUBLIC "-//W3C//DTD SVG 20010904//EN"
 "http://www.w3.org/TR/2001/REC-SVG-20010904/DTD/svg10.dtd">
<svg version="1.0" xmlns="http://www.w3.org/2000/svg"
 width="939.000000pt" height="237.000000pt" viewBox="0 0 939.000000 237.000000"
 preserveAspectRatio="xMidYMid meet">
<metadata>
Created by potrace 1.16, written by Peter Selinger 2001-2019
</metadata>
<g transform="translate(0.000000,237.000000) scale(0.100000,-0.100000)"
fill="#000000" stroke="none">
<path d="M0 2320 l0 -49 30 -16 c16 -8 35 -15 43 -15 8 0 27 -16 41 -35 26
-33 110 -85 139 -85 7 0 25 -12 40 -28 14 -15 73 -49 129 -76 108 -50 119 -56
233 -117 73 -39 181 -79 213 -79 21 0 120 -33 180 -61 62 -28 207 -71 304 -89
26 -5 56 -13 67 -19 11 -6 37 -11 58 -11 22 0 77 -13 123 -30 47 -16 102 -30
123 -30 21 0 54 -7 74 -15 19 -8 53 -15 75 -15 21 0 55 -7 75 -15 22 -9 67
-15 120 -15 52 0 97 -6 120 -15 22 -9 67 -15 119 -15 45 0 95 -5 111 -12 24
-11 314 -30 398 -27 38 2 177 1 235 -1 25 -1 79 2 122 5 l76 7 28 29 28 29
147 0 c108 0 156 4 182 15 20 8 52 15 71 15 50 0 158 37 219 76 29 18 83 50
122 71 38 21 95 63 125 94 48 48 110 89 137 89 4 0 28 -14 53 -30 25 -16 52
-30 61 -30 9 0 29 -16 43 -35 15 -19 51 -47 79 -61 29 -15 75 -44 102 -65 28
-22 75 -58 105 -82 30 -23 75 -54 100 -69 25 -14 54 -36 65 -48 11 -12 38 -31
60 -43 22 -11 54 -30 70 -42 17 -13 53 -35 80 -49 28 -15 75 -43 105 -62 30
-19 71 -39 90 -44 19 -5 86 -34 148 -65 62 -30 122 -55 134 -55 12 0 83 -20
157 -44 143 -46 197 -62 271 -76 25 -5 77 -20 115 -34 84 -31 219 -36 278 -11
27 11 77 15 197 15 l161 0 32 16 c18 10 51 34 75 54 24 21 61 42 86 49 46 11
86 49 86 80 0 24 20 41 48 41 31 0 138 -50 193 -89 23 -17 49 -31 56 -31 20 0
82 -29 118 -56 51 -37 173 -94 203 -94 28 0 59 -17 102 -56 28 -25 222 -124
243 -124 7 0 24 -12 38 -26 24 -26 89 -64 110 -64 20 0 83 -34 159 -86 83 -56
152 -94 173 -94 7 0 26 -13 42 -30 16 -16 35 -30 42 -30 8 0 44 -18 81 -40 36
-22 83 -45 102 -50 20 -5 54 -25 77 -45 22 -19 82 -56 134 -81 51 -26 109 -62
128 -80 20 -17 56 -42 81 -55 25 -12 57 -31 72 -41 20 -14 41 -18 75 -16 l48
3 3 62 c2 41 -1 63 -8 63 -6 0 -22 11 -36 25 -28 28 -84 59 -126 69 -14 3 -51
28 -81 56 -29 27 -95 70 -146 96 -51 25 -111 63 -135 83 -24 21 -58 43 -77 50
-19 7 -47 19 -64 28 -93 50 -144 80 -177 104 -21 15 -53 30 -72 33 -18 4 -53
24 -77 45 -45 39 -143 93 -189 104 -14 4 -43 22 -65 40 -41 35 -174 107 -197
107 -8 0 -31 12 -52 26 -21 15 -111 63 -200 107 -88 44 -179 93 -200 109 -21
15 -45 28 -53 28 -30 0 -150 63 -202 106 -29 24 -60 44 -69 44 -29 0 -207 92
-255 132 -26 22 -63 44 -82 49 -19 5 -58 31 -87 58 -80 73 -125 92 -206 89
l-66 -3 -23 -34 c-29 -44 -39 -79 -26 -100 5 -9 43 -34 84 -56 41 -22 88 -50
105 -61 16 -12 66 -41 112 -64 94 -48 112 -68 112 -125 0 -95 -90 -155 -233
-155 -53 0 -98 -6 -120 -15 -46 -19 -128 -19 -174 0 -21 9 -67 15 -117 15
l-81 0 -105 36 c-58 19 -124 44 -147 54 -23 11 -96 38 -163 60 -67 22 -134 48
-148 59 -52 36 -172 91 -200 91 -28 0 -59 16 -102 56 -14 12 -62 41 -106 63
-45 22 -106 63 -136 90 -29 27 -82 64 -117 81 -39 20 -88 57 -125 96 -38 39
-71 64 -84 64 -11 0 -24 5 -27 10 -3 6 -36 34 -73 64 -37 29 -99 84 -137 122
l-71 69 -23 72 c-27 83 -40 98 -107 118 -53 16 -111 7 -146 -23 l-18 -15 0
-106 0 -107 -34 -69 c-19 -39 -41 -77 -48 -86 -24 -30 -153 -111 -244 -155
l-91 -44 -55 0 c-31 0 -72 -7 -91 -15 -20 -8 -53 -15 -74 -15 -21 0 -69 -12
-108 -26 -103 -37 -229 -56 -416 -61 l-167 -4 -37 15 c-27 11 -71 16 -152 16
-78 0 -125 5 -150 15 -19 8 -53 15 -75 15 -21 0 -55 7 -75 15 -20 8 -66 15
-105 15 -38 0 -84 7 -105 15 -22 9 -67 15 -120 15 -52 0 -97 6 -120 15 -19 8
-53 15 -75 15 -22 0 -64 11 -94 25 -91 41 -171 65 -221 65 -26 0 -68 6 -93 14
-58 18 -123 35 -180 46 -25 5 -63 18 -86 29 -22 11 -96 38 -165 61 -138 45
-216 79 -263 115 -17 13 -67 35 -111 49 -99 32 -110 38 -215 109 -47 31 -93
57 -103 57 -10 0 -29 11 -43 25 l-25 25 -64 0 -65 0 0 -50z"/>
</g>
</svg>
