<?xml version="1.0" standalone="no"?>
<!DOCTYPE svg PUBLIC "-//W3C//DTD SVG 20010904//EN"
 "http://www.w3.org/TR/2001/REC-SVG-20010904/DTD/svg10.dtd">
<svg version="1.0" xmlns="http://www.w3.org/2000/svg"
 width="435.000000pt" height="252.000000pt" viewBox="0 0 435.000000 252.000000"
 preserveAspectRatio="xMidYMid meet">
<metadata>
Created by potrace 1.16, written by Peter Selinger 2001-2019
</metadata>
<g transform="translate(0.000000,252.000000) scale(0.100000,-0.100000)"
fill="#000000" stroke="none">
<path d="M275 2510 c-3 -5 -35 -10 -71 -10 l-65 0 -55 -52 c-33 -31 -58 -64
-61 -80 -3 -16 -10 -31 -14 -34 -12 -7 -11 -131 1 -139 6 -3 10 -21 10 -39 0
-21 11 -48 29 -73 16 -22 39 -60 51 -84 60 -117 171 -252 253 -306 38 -26 78
-61 89 -80 11 -18 52 -54 92 -80 39 -26 91 -63 116 -83 46 -36 193 -138 243
-168 21 -13 26 -22 22 -37 -16 -49 -17 -66 -5 -80 19 -23 46 -18 64 10 27 40
56 49 101 31 57 -24 281 -22 354 3 l55 19 55 69 55 68 9 65 c10 77 10 89 2
155 -3 28 -2 56 3 63 l9 13 56 -16 c40 -12 73 -31 117 -71 33 -29 68 -54 78
-54 23 0 146 -82 204 -136 26 -24 55 -44 65 -44 10 0 36 -12 57 -26 21 -14 86
-50 146 -80 64 -32 130 -74 162 -103 52 -47 124 -91 151 -91 7 0 24 -12 38
-26 13 -14 40 -34 60 -45 46 -23 166 -104 199 -134 14 -13 45 -33 70 -45 25
-13 59 -33 75 -45 17 -13 50 -33 75 -45 25 -12 65 -39 90 -59 25 -20 65 -49
90 -63 25 -14 54 -36 65 -48 22 -24 86 -60 108 -60 7 0 24 -12 38 -26 13 -14
51 -44 84 -65 96 -64 155 -111 204 -160 28 -28 59 -50 79 -54 21 -4 53 -27 88
-62 l54 -55 58 4 57 3 3 -27 3 -28 53 0 c28 0 64 6 79 13 l27 12 0 52 0 53
-26 -10 c-36 -14 -42 -13 -50 13 -3 12 -14 30 -22 40 l-16 18 -48 -6 -48 -7
-20 34 c-21 36 -103 111 -161 146 -19 12 -44 31 -55 43 -10 12 -45 34 -77 50
-32 16 -74 45 -95 63 -20 18 -48 36 -62 39 -14 4 -43 21 -65 40 -22 18 -60 45
-85 59 -25 14 -55 40 -68 57 -22 30 -107 81 -135 81 -7 0 -24 12 -38 26 -13
14 -40 34 -60 45 -47 24 -167 105 -199 134 -14 13 -54 38 -89 56 -35 17 -80
46 -100 63 -97 84 -145 119 -175 127 -18 5 -50 24 -72 43 -40 34 -114 76 -134
76 -7 0 -35 20 -63 45 -52 45 -198 127 -249 139 -14 3 -50 28 -80 55 -29 26
-73 58 -98 71 -25 13 -58 33 -75 46 -16 12 -77 46 -135 74 -58 29 -126 70
-152 91 -25 21 -78 55 -117 74 -39 20 -106 60 -149 89 -81 56 -153 96 -172 96
-24 0 -97 41 -144 79 -26 23 -55 41 -63 41 -24 0 -83 31 -164 87 -61 41 -108
62 -230 102 -85 28 -162 56 -171 61 -23 13 -105 13 -113 0z m160 -231 c33 -11
84 -31 113 -45 29 -13 57 -24 63 -24 18 0 81 -32 123 -62 21 -15 46 -28 54
-28 28 0 182 -80 221 -115 21 -19 44 -35 51 -35 24 0 200 -90 251 -128 l50
-37 -5 -27 c-4 -18 3 -38 21 -65 43 -63 53 -98 53 -185 0 -104 -8 -117 -104
-163 -82 -39 -101 -42 -153 -20 -19 8 -47 15 -61 15 -36 0 -185 74 -230 114
-20 18 -55 42 -77 54 -40 20 -111 78 -234 189 -122 111 -160 152 -182 195 -11
24 -33 55 -47 70 -26 28 -92 204 -92 246 0 13 11 34 25 47 30 31 79 33 160 4z"/>
</g>
</svg>
