<?xml version="1.0" standalone="no"?>
<!DOCTYPE svg PUBLIC "-//W3C//DTD SVG 20010904//EN"
 "http://www.w3.org/TR/2001/REC-SVG-20010904/DTD/svg10.dtd">
<svg version="1.0" xmlns="http://www.w3.org/2000/svg"
 width="492.000000pt" height="258.000000pt" viewBox="0 0 492.000000 258.000000"
 preserveAspectRatio="xMidYMid meet">
<metadata>
Created by potrace 1.16, written by Peter Selinger 2001-2019
</metadata>
<g transform="translate(0.000000,258.000000) scale(0.100000,-0.100000)"
fill="#000000" stroke="none">
<path d="M1938 2536 c-16 -24 -28 -51 -28 -60 0 -21 33 -87 73 -146 43 -62
184 -206 232 -238 22 -14 67 -51 100 -82 33 -31 74 -65 90 -75 17 -10 57 -44
90 -75 33 -31 73 -65 90 -75 16 -10 50 -37 75 -60 25 -22 58 -49 73 -59 15 -9
52 -38 82 -64 30 -26 82 -67 116 -92 68 -50 115 -93 142 -133 10 -16 34 -31
57 -37 25 -7 48 -22 62 -41 27 -37 124 -109 147 -109 9 0 37 -24 62 -53 26
-28 69 -63 95 -76 27 -14 72 -48 99 -76 28 -28 82 -70 120 -93 78 -47 155
-108 230 -181 28 -27 64 -56 82 -65 17 -8 53 -34 78 -56 26 -23 100 -75 164
-118 64 -42 136 -98 161 -123 25 -25 57 -53 72 -62 14 -9 39 -36 55 -59 19
-28 40 -47 63 -54 24 -8 44 -25 62 -54 15 -23 46 -59 69 -81 l42 -39 64 0 63
0 0 55 0 54 -107 109 c-60 60 -124 119 -143 131 -19 13 -49 42 -66 65 -17 22
-49 50 -70 60 -22 11 -59 40 -84 65 -51 52 -135 119 -250 201 -42 30 -91 66
-108 80 -18 14 -58 44 -89 68 -32 23 -89 66 -126 95 -38 29 -90 68 -117 87
-26 19 -81 62 -122 95 -40 33 -86 69 -103 79 -16 11 -50 38 -75 61 -25 24 -67
54 -95 69 -62 32 -73 41 -109 89 -17 22 -56 52 -97 73 -37 20 -80 51 -94 70
-14 19 -44 43 -66 55 -22 11 -68 48 -103 82 -57 57 -86 81 -199 160 -51 36
-72 63 -87 108 l-12 37 26 38 26 39 0 63 c0 75 -31 144 -82 186 -122 100 -247
186 -270 186 -9 0 -20 5 -23 10 -4 6 -67 10 -158 10 l-152 -1 -27 -43z m338
-169 c16 -12 50 -42 75 -67 25 -25 58 -55 72 -67 28 -22 28 -47 0 -57 -20 -8
-61 18 -74 47 -6 13 -31 34 -57 47 -63 32 -92 59 -92 85 0 42 31 47 76 12z"/>
<path d="M0 1969 l0 -50 38 -45 c20 -25 53 -54 73 -64 20 -11 73 -44 118 -75
51 -35 109 -64 158 -80 43 -14 124 -48 181 -75 123 -60 209 -90 257 -90 20 0
61 -12 92 -26 88 -40 232 -81 328 -93 34 -5 70 -13 82 -19 12 -7 40 -12 63
-12 22 0 57 -7 77 -15 19 -8 53 -15 75 -15 21 0 55 -7 75 -15 25 -11 73 -15
169 -15 l134 0 52 25 c29 14 69 30 88 35 57 16 98 47 120 91 12 23 35 60 51
82 l29 40 0 64 c0 76 -30 143 -85 191 l-36 32 -83 0 -83 0 -16 -18 c-25 -28
-21 -51 23 -115 41 -61 57 -111 46 -145 -10 -30 -55 -71 -102 -93 -53 -24
-206 -26 -274 -5 -78 25 -133 37 -195 45 -34 5 -70 13 -82 19 -12 7 -55 12
-95 12 l-73 0 -45 30 c-33 22 -57 30 -88 30 -27 0 -68 11 -109 30 -35 17 -75
30 -89 30 -14 0 -41 7 -61 15 -19 8 -47 15 -60 15 -14 0 -54 14 -90 30 -35 17
-69 30 -75 30 -5 0 -39 14 -75 30 -35 17 -69 30 -75 30 -30 0 -160 73 -209
118 -56 51 -147 92 -204 92 l-25 0 0 -51z"/>
</g>
</svg>
