<?xml version="1.0" standalone="no"?>
<!DOCTYPE svg PUBLIC "-//W3C//DTD SVG 20010904//EN"
 "http://www.w3.org/TR/2001/REC-SVG-20010904/DTD/svg10.dtd">
<svg version="1.0" xmlns="http://www.w3.org/2000/svg"
 width="360.000000pt" height="513.000000pt" viewBox="0 0 360.000000 513.000000"
 preserveAspectRatio="xMidYMid meet">
<metadata>
Created by potrace 1.16, written by Peter Selinger 2001-2019
</metadata>
<g transform="translate(0.000000,513.000000) scale(0.100000,-0.100000)"
fill="#000000" stroke="none">
<path d="M40 5116 c0 -7 -9 -25 -20 -39 -13 -16 -20 -40 -20 -66 l0 -41 26 0
c14 0 55 -18 92 -40 37 -23 78 -43 92 -47 14 -3 45 -18 70 -33 25 -15 56 -30
70 -33 14 -4 47 -24 74 -47 26 -22 55 -40 64 -40 8 0 36 -13 61 -29 25 -16 58
-31 73 -35 14 -3 50 -28 80 -55 29 -26 68 -56 86 -65 18 -9 61 -45 96 -79 34
-34 74 -70 89 -80 16 -10 31 -33 37 -57 7 -27 27 -53 64 -87 30 -26 64 -66 77
-88 13 -22 40 -60 60 -85 37 -44 99 -162 99 -188 0 -18 36 -87 76 -145 18 -26
36 -65 39 -85 11 -65 45 -163 70 -200 14 -20 25 -44 25 -52 0 -9 14 -29 30
-45 19 -18 30 -39 30 -56 0 -14 7 -43 15 -62 18 -45 10 -71 -19 -62 -11 3 -43
10 -71 15 -59 11 -121 32 -193 65 -29 14 -58 25 -64 25 -7 0 -26 13 -43 28
-20 19 -70 41 -150 67 -66 22 -155 56 -198 77 -43 21 -88 38 -100 38 -13 0
-61 13 -107 30 -97 34 -128 36 -173 14 -98 -50 -93 -70 46 -207 62 -62 133
-125 157 -142 25 -16 63 -49 85 -72 22 -22 61 -56 87 -75 78 -56 278 -235 278
-249 0 -5 25 -27 55 -50 30 -22 70 -64 89 -93 19 -29 54 -65 78 -80 24 -15 54
-44 68 -64 13 -20 43 -57 65 -82 23 -25 50 -59 60 -75 10 -17 44 -57 74 -90
85 -93 151 -175 172 -217 10 -20 35 -49 54 -64 19 -14 35 -33 35 -41 0 -20 36
-87 56 -104 25 -21 88 -108 113 -158 12 -23 61 -100 108 -169 102 -152 118
-182 154 -292 15 -47 39 -110 53 -140 15 -31 26 -73 26 -96 0 -23 7 -58 15
-77 10 -24 15 -69 15 -129 l0 -93 -40 -117 c-51 -153 -58 -165 -140 -248 -71
-72 -101 -90 -148 -90 -32 -1 -161 -68 -176 -92 -7 -12 -4 -32 9 -72 l19 -56
23 0 c14 0 23 6 23 15 0 16 60 46 128 64 20 6 67 28 102 49 36 22 77 42 91 45
15 4 42 25 60 48 19 23 55 62 82 88 26 26 47 54 47 62 0 9 20 57 45 108 25 51
45 98 45 104 0 7 14 41 30 75 l30 64 0 88 0 88 -30 64 -31 63 6 55 6 55 -29
22 c-23 17 -36 42 -56 105 -28 86 -49 126 -103 198 -20 26 -33 55 -33 72 0 44
-63 161 -104 192 -20 15 -39 39 -42 54 -4 15 -21 43 -38 62 -50 55 -80 99
-119 175 -23 45 -62 98 -112 149 -42 44 -83 92 -90 107 -8 15 -28 37 -44 48
-17 12 -51 54 -77 93 -50 74 -292 325 -355 367 -19 13 -51 47 -70 75 -24 36
-45 54 -69 62 -27 9 -44 25 -71 70 -26 43 -50 67 -89 90 -29 17 -67 51 -86 77
l-34 47 28 0 c38 0 137 -36 181 -66 19 -13 42 -24 51 -24 8 0 35 -14 60 -30
25 -16 56 -30 70 -30 86 0 369 -145 426 -218 47 -60 114 -167 114 -183 0 -9
10 -24 21 -35 38 -34 96 -119 138 -202 24 -48 53 -91 72 -104 17 -13 41 -39
52 -59 35 -57 198 -228 239 -249 20 -11 57 -37 82 -59 49 -42 175 -130 223
-155 50 -25 151 -56 186 -56 19 0 48 -5 65 -11 l31 -11 43 24 c30 16 51 39 70
73 l28 50 0 93 0 93 -21 42 c-12 23 -46 77 -76 121 -30 43 -65 99 -78 125 -28
56 -72 99 -110 109 -16 5 -32 16 -37 25 -4 9 -12 25 -16 35 -5 9 -42 35 -83
57 -41 22 -92 52 -114 68 -22 15 -47 27 -56 27 -8 0 -26 12 -40 26 -25 27
-135 87 -181 98 -14 3 -51 28 -81 56 -42 39 -71 55 -133 75 -97 31 -116 40
-179 87 l-50 37 -20 67 c-13 42 -34 84 -57 112 -28 34 -48 78 -79 175 -24 71
-58 154 -77 186 -38 63 -72 153 -72 191 0 14 -27 65 -60 115 -33 49 -60 95
-60 103 0 28 -44 99 -89 142 -36 36 -51 60 -68 117 -28 87 -29 107 -5 100 64
-21 93 -37 129 -75 32 -33 47 -42 74 -42 20 0 50 -10 72 -25 47 -33 232 -125
250 -125 7 0 50 -25 95 -55 98 -65 145 -90 189 -99 17 -4 51 -24 75 -45 44
-39 98 -71 118 -71 25 0 122 -52 158 -85 22 -19 45 -35 52 -35 6 0 39 -13 73
-28 34 -16 73 -32 87 -35 14 -3 43 -22 65 -40 43 -37 104 -70 146 -80 15 -4
50 -27 78 -53 64 -57 161 -124 181 -124 9 0 32 -11 53 -25 20 -14 82 -48 137
-75 l100 -50 75 0 75 0 0 39 0 39 -42 31 c-23 17 -49 31 -58 31 -8 0 -32 11
-52 25 -20 14 -70 41 -110 61 -40 20 -94 54 -120 75 -25 21 -79 55 -120 75
-40 21 -86 47 -103 59 -16 13 -50 33 -75 45 -25 12 -65 39 -90 60 -47 38 -165
102 -210 113 -14 4 -47 24 -74 47 -26 22 -56 40 -65 40 -9 0 -58 20 -109 45
-52 25 -106 45 -121 45 -20 0 -36 11 -60 40 -17 22 -44 43 -59 46 -15 4 -48
19 -73 35 -25 16 -59 29 -75 29 -21 0 -70 26 -158 85 -71 47 -147 95 -169 106
-22 12 -58 34 -80 50 -22 16 -46 29 -54 29 -22 0 -140 57 -178 86 -18 14 -49
29 -67 35 -19 5 -52 24 -74 43 -40 34 -114 76 -135 76 -7 0 -33 13 -58 29 -25
16 -59 32 -75 35 -41 10 -86 44 -86 65 0 33 -33 51 -91 51 -84 0 -217 52 -349
136 -30 19 -66 37 -80 41 -47 10 -170 74 -183 93 -9 15 -23 20 -59 20 -34 0
-48 -4 -48 -14z m2119 -2420 c6 -7 91 -53 189 -101 97 -48 200 -105 227 -126
138 -107 163 -126 200 -151 58 -40 117 -103 169 -183 l46 -70 0 -55 c0 -57
-23 -115 -52 -133 -16 -11 -72 12 -123 49 -16 12 -61 38 -99 58 -45 23 -88 56
-121 94 -29 31 -87 86 -130 122 -53 45 -85 80 -102 115 -14 27 -47 71 -73 97
-34 32 -51 58 -56 82 -3 20 -24 59 -47 87 -33 41 -77 114 -77 126 0 9 39 1 49
-11z"/>
</g>
</svg>
