<?xml version="1.0" standalone="no"?>
<!DOCTYPE svg PUBLIC "-//W3C//DTD SVG 20010904//EN"
 "http://www.w3.org/TR/2001/REC-SVG-20010904/DTD/svg10.dtd">
<svg version="1.0" xmlns="http://www.w3.org/2000/svg"
 width="687.000000pt" height="312.000000pt" viewBox="0 0 687.000000 312.000000"
 preserveAspectRatio="xMidYMid meet">
<metadata>
Created by potrace 1.16, written by Peter Selinger 2001-2019
</metadata>
<g transform="translate(0.000000,312.000000) scale(0.100000,-0.100000)"
fill="#000000" stroke="none">
<path d="M4060 3075 c-7 -24 -10 -55 -6 -68 11 -45 51 -92 89 -104 21 -7 54
-24 75 -38 20 -14 51 -25 68 -25 30 0 93 -38 123 -73 15 -19 102 -79 171 -119
25 -14 54 -36 65 -48 11 -12 41 -33 67 -46 26 -13 59 -40 74 -60 28 -36 89
-74 120 -74 9 0 33 -17 53 -39 38 -41 127 -114 176 -145 17 -11 57 -45 90 -76
33 -31 76 -67 96 -80 20 -13 47 -39 60 -59 13 -20 80 -93 148 -163 115 -118
197 -222 241 -307 10 -20 30 -47 44 -60 14 -14 26 -31 26 -38 0 -8 9 -31 20
-53 11 -22 20 -52 20 -68 0 -16 12 -47 27 -68 46 -69 83 -157 83 -200 0 -23 7
-58 15 -77 20 -49 20 -161 -1 -181 -8 -9 -18 -16 -22 -16 -12 1 -76 34 -117
61 -22 15 -63 33 -91 40 l-52 12 -33 -14 c-61 -25 -106 -75 -124 -137 l-17
-57 12 -55 c6 -30 13 -64 16 -76 2 -11 14 -34 26 -51 13 -17 37 -50 53 -74 17
-23 49 -61 73 -84 64 -62 57 -78 -59 -133 l-66 -32 -100 0 c-67 0 -113 -5
-136 -15 -52 -22 -422 -22 -474 0 -26 11 -74 15 -180 15 -105 0 -153 4 -180
15 -19 8 -48 15 -62 15 -17 0 -38 11 -56 30 l-29 30 -58 0 c-32 0 -75 7 -95
15 -19 8 -53 15 -75 15 -21 0 -55 7 -75 15 -19 8 -54 15 -77 15 -28 0 -71 15
-134 45 -52 25 -104 45 -116 45 -12 0 -49 9 -81 21 -129 44 -155 66 -155 129
0 19 -8 61 -17 94 l-18 58 -60 46 c-33 25 -78 65 -101 89 -32 33 -48 43 -73
43 -17 0 -48 7 -68 15 -19 8 -47 15 -62 15 -14 0 -46 14 -71 30 -25 16 -57 30
-72 30 -15 0 -46 7 -69 16 l-41 17 -104 -6 -105 -6 -38 35 c-21 18 -45 34 -52
34 -15 0 -66 26 -150 78 -30 17 -70 36 -89 42 -19 5 -52 24 -74 42 -73 60
-151 108 -176 108 -35 0 -228 67 -260 90 -14 10 -81 37 -148 59 -67 22 -139
52 -159 66 -21 14 -44 25 -53 25 -8 0 -35 14 -60 30 -25 16 -56 30 -70 30 -14
0 -45 6 -70 14 -25 8 -70 20 -101 27 l-57 12 -88 -29 c-104 -33 -109 -36 -135
-85 l-19 -38 0 -106 0 -105 35 -69 c23 -46 47 -79 73 -97 22 -16 55 -51 74
-79 26 -39 43 -53 76 -64 24 -7 50 -24 60 -38 45 -65 86 -103 123 -113 21 -6
61 -31 91 -59 51 -46 124 -91 149 -91 7 0 64 -25 127 -55 145 -70 218 -95 281
-95 28 0 69 -7 91 -16 l41 -16 43 12 c24 7 52 9 62 6 30 -9 111 20 165 60 53
38 89 96 89 140 0 29 25 87 45 104 21 17 59 2 117 -46 209 -175 275 -227 319
-250 19 -9 52 -36 74 -60 29 -31 76 -61 172 -109 73 -36 143 -65 156 -65 12 0
61 -13 107 -30 47 -16 102 -30 123 -30 21 0 54 -7 74 -15 19 -8 45 -15 57 -15
27 0 123 -32 194 -66 29 -13 71 -24 93 -24 22 0 56 -7 76 -15 19 -8 65 -15
102 -15 68 0 137 -19 236 -64 86 -39 141 -50 184 -38 l37 12 52 -18 c29 -11
55 -22 59 -25 11 -11 731 -8 738 3 3 6 26 10 49 10 24 0 60 7 79 15 20 8 53
15 74 15 48 0 159 39 219 77 25 15 66 40 91 54 55 32 179 152 200 194 8 17 31
53 49 81 l35 50 -4 205 c-3 197 -7 224 -43 339 -8 25 -14 61 -14 80 -1 19 -9
60 -20 90 -11 30 -19 70 -20 88 0 39 -13 65 -85 174 -30 45 -55 88 -55 96 0
27 -40 90 -74 116 -20 15 -47 49 -60 75 -14 26 -41 60 -60 75 -20 15 -46 46
-57 69 -28 55 -48 77 -70 77 -9 0 -26 11 -36 24 -10 13 -42 51 -70 85 -60 70
-68 97 -27 87 15 -4 41 -18 58 -31 17 -13 65 -35 106 -48 73 -24 135 -57 251
-131 30 -20 62 -36 71 -36 8 0 33 -13 54 -30 87 -65 343 -235 399 -263 33 -17
81 -52 107 -79 26 -27 55 -48 67 -48 14 0 33 -18 58 -57 42 -64 64 -73 112
-48 l31 16 0 54 0 54 -20 6 c-12 4 -35 31 -51 61 -32 56 -62 84 -90 84 -9 0
-36 15 -59 33 -112 83 -164 115 -292 179 -86 42 -143 77 -155 94 -45 65 -87
104 -122 114 -20 5 -60 21 -89 35 -28 14 -57 25 -63 25 -6 0 -30 20 -53 45
l-42 45 -35 0 c-21 0 -51 11 -79 30 -26 17 -58 30 -76 30 -24 0 -38 8 -58 35
-32 41 -76 65 -181 100 -42 14 -108 46 -150 74 -80 54 -147 91 -166 91 -17 0
-80 31 -114 56 -16 12 -64 39 -105 60 -41 20 -88 47 -105 59 -51 38 -173 95
-203 95 -23 0 -46 16 -103 73 l-74 72 -64 20 c-44 14 -67 27 -74 43 l-10 22
-82 0 -82 0 -13 -45z m1448 -863 c2 -7 -2 -10 -12 -6 -9 3 -16 11 -16 16 0 13
23 5 28 -10z m-4200 -778 c31 -14 93 -37 136 -51 43 -15 114 -43 158 -64 43
-22 83 -39 89 -39 6 0 36 -12 66 -26 31 -14 91 -36 132 -50 106 -34 152 -57
203 -102 25 -21 60 -44 79 -51 55 -20 61 -25 81 -61 24 -47 25 -165 1 -200
-25 -37 -42 -48 -102 -65 l-53 -16 -80 25 c-43 14 -95 26 -115 26 -46 0 -191
69 -242 115 -21 19 -44 35 -51 35 -17 0 -102 53 -160 99 -25 20 -64 49 -87 65
-65 44 -202 192 -224 242 -22 48 -19 71 13 117 l19 27 40 0 c22 0 66 -12 97
-26z m1932 -713 c42 -22 70 -65 54 -81 -19 -19 -84 0 -126 38 -21 19 -38 41
-38 48 0 21 68 18 110 -5z m2606 -71 c76 -38 85 -47 87 -101 l2 -43 -27 -10
c-46 -16 -79 3 -125 74 -24 36 -43 68 -43 72 0 8 29 38 37 38 4 0 34 -14 69
-30z"/>
<path d="M22 1220 l-22 -9 0 -44 c0 -34 6 -49 27 -69 31 -28 84 -58 106 -58 7
0 26 -13 42 -30 16 -16 36 -30 44 -30 9 0 36 -14 61 -30 25 -16 52 -30 60 -30
8 0 57 -20 108 -45 52 -25 99 -45 106 -45 7 0 25 -13 41 -30 19 -20 39 -30 57
-30 16 0 59 -18 96 -40 37 -23 78 -43 92 -47 14 -3 39 -18 55 -33 33 -30 86
-60 107 -60 8 0 51 -25 96 -55 148 -98 209 -117 245 -77 47 51 1 140 -97 189
-28 14 -71 42 -96 63 -47 39 -120 80 -142 80 -8 0 -54 27 -103 60 -57 38 -101
60 -118 60 -34 0 -87 23 -141 62 -22 16 -52 28 -70 28 -19 0 -41 10 -61 28
-16 15 -57 36 -90 47 -33 10 -81 31 -106 47 -25 15 -59 28 -76 28 -19 0 -39
10 -57 29 -19 19 -41 30 -69 34 -23 2 -49 7 -57 10 -8 3 -25 2 -38 -3z"/>
</g>
</svg>
