<?xml version="1.0" standalone="no"?>
<!DOCTYPE svg PUBLIC "-//W3C//DTD SVG 20010904//EN"
 "http://www.w3.org/TR/2001/REC-SVG-20010904/DTD/svg10.dtd">
<svg version="1.0" xmlns="http://www.w3.org/2000/svg"
 width="339.000000pt" height="294.000000pt" viewBox="0 0 339.000000 294.000000"
 preserveAspectRatio="xMidYMid meet">
<metadata>
Created by potrace 1.16, written by Peter Selinger 2001-2019
</metadata>
<g transform="translate(0.000000,294.000000) scale(0.100000,-0.100000)"
fill="#000000" stroke="none">
<path d="M7 2933 c-4 -3 -7 -34 -7 -68 l0 -61 27 -26 c16 -14 84 -54 153 -88
69 -34 145 -79 170 -99 24 -20 81 -60 125 -89 44 -30 91 -64 105 -76 14 -12
38 -30 53 -40 59 -36 146 -116 265 -242 37 -39 83 -79 102 -89 19 -10 57 -42
85 -71 27 -30 75 -69 105 -87 36 -21 56 -40 60 -57 3 -15 24 -38 50 -55 64
-43 378 -361 400 -406 11 -21 39 -50 62 -66 l43 -29 28 -84 c22 -66 39 -95 78
-138 27 -29 52 -66 55 -80 9 -35 96 -211 129 -259 17 -25 25 -51 25 -79 0 -23
7 -58 15 -77 10 -24 15 -70 15 -137 l0 -101 -25 -24 c-37 -38 -80 -34 -124 14
-53 57 -142 126 -199 155 -28 14 -63 42 -78 62 -27 34 -89 74 -117 74 -7 0
-24 12 -38 26 -13 14 -55 42 -94 61 -38 19 -89 51 -113 70 -91 74 -204 143
-235 143 -7 0 -26 14 -42 30 -16 17 -36 30 -44 30 -9 0 -29 9 -46 21 -51 34
-143 79 -165 79 -32 0 -35 -41 -6 -98 l26 -51 86 -57 c48 -32 101 -69 118 -84
35 -31 108 -70 129 -70 8 0 27 -16 42 -35 17 -23 56 -50 107 -76 82 -41 171
-101 197 -133 8 -10 36 -28 62 -42 26 -13 60 -40 75 -60 15 -19 48 -46 73 -59
42 -21 144 -102 309 -247 l66 -58 58 0 58 0 24 48 c36 71 66 166 66 208 0 19
14 65 30 101 17 35 30 76 30 91 0 15 -14 65 -30 112 -17 46 -30 92 -30 102 0
29 -69 227 -102 292 -17 33 -47 81 -68 106 -21 25 -49 68 -63 95 -14 28 -35
64 -46 80 -12 17 -21 38 -21 47 0 10 -53 72 -117 138 -65 67 -131 140 -146
163 -40 59 -262 282 -323 322 -28 19 -71 56 -95 82 -25 27 -58 58 -73 70 -48
39 -19 42 79 8 69 -23 110 -45 145 -74 28 -23 71 -48 98 -56 26 -8 63 -26 82
-40 19 -15 57 -38 84 -51 26 -14 66 -39 89 -55 22 -16 47 -29 56 -29 9 0 30
-9 46 -21 17 -11 91 -51 166 -89 74 -37 171 -93 215 -123 44 -30 114 -72 155
-92 84 -42 161 -99 228 -166 45 -46 97 -79 123 -79 21 0 327 -206 380 -256 37
-34 55 -44 82 -44 48 0 96 41 96 83 l0 32 -68 43 c-37 24 -80 61 -96 83 -27
39 -82 72 -138 83 -15 4 -29 14 -33 24 -8 26 -74 71 -183 126 -51 25 -109 61
-130 80 -20 18 -49 36 -64 39 -14 4 -50 29 -80 56 -54 49 -126 91 -207 120
-32 12 -54 29 -76 61 l-31 45 -60 20 c-84 30 -159 70 -203 110 -21 19 -45 35
-52 35 -8 0 -41 13 -74 28 -33 16 -71 32 -85 35 -14 3 -47 24 -74 47 -26 22
-56 40 -65 40 -33 0 -224 102 -382 204 -30 20 -62 36 -70 36 -9 0 -57 20 -108
45 -51 25 -98 45 -105 45 -7 0 -21 10 -32 21 -10 12 -41 36 -69 54 -27 17 -56
40 -64 49 -8 10 -46 33 -84 52 -38 19 -87 48 -109 65 -23 16 -48 29 -56 29 -8
0 -36 13 -61 29 -25 16 -60 32 -78 36 -17 3 -52 24 -76 46 -29 25 -55 39 -72
39 -24 0 -101 40 -177 92 -27 18 -107 25 -121 11z"/>
</g>
</svg>
