<?xml version="1.0" standalone="no"?>
<!DOCTYPE svg PUBLIC "-//W3C//DTD SVG 20010904//EN"
 "http://www.w3.org/TR/2001/REC-SVG-20010904/DTD/svg10.dtd">
<svg version="1.0" xmlns="http://www.w3.org/2000/svg"
 width="426.000000pt" height="330.000000pt" viewBox="0 0 426.000000 330.000000"
 preserveAspectRatio="xMidYMid meet">
<metadata>
Created by potrace 1.16, written by Peter Selinger 2001-2019
</metadata>
<g transform="translate(0.000000,330.000000) scale(0.100000,-0.100000)"
fill="#000000" stroke="none">
<path d="M106 3255 c-32 -24 -69 -54 -82 -66 l-24 -22 0 -133 0 -132 27 -17
c16 -10 53 -46 84 -80 31 -33 77 -73 101 -88 24 -16 54 -44 67 -63 13 -19 54
-57 91 -84 37 -28 73 -57 80 -65 7 -9 44 -32 82 -52 40 -21 81 -52 99 -74 17
-22 43 -42 57 -45 35 -9 169 -89 207 -124 17 -15 62 -44 100 -65 94 -49 198
-114 232 -147 15 -14 42 -29 59 -32 17 -4 56 -28 85 -53 30 -25 98 -75 153
-111 54 -36 113 -77 130 -92 17 -14 51 -38 76 -52 25 -14 55 -40 68 -57 22
-30 107 -81 135 -81 7 0 24 -12 38 -26 13 -14 55 -46 93 -71 37 -25 104 -77
148 -115 43 -37 83 -68 87 -68 5 0 53 -30 107 -66 54 -36 133 -84 176 -106 48
-25 89 -54 105 -75 31 -40 90 -73 131 -73 21 0 37 -10 59 -38 19 -24 58 -51
109 -76 43 -21 100 -56 126 -77 25 -21 78 -55 117 -74 39 -20 106 -60 149 -89
43 -30 101 -65 129 -79 27 -14 74 -48 104 -74 55 -49 208 -156 267 -187 18 -9
80 -64 137 -121 l105 -105 70 0 70 0 0 51 c0 65 -33 110 -109 149 -64 32 -141
95 -222 181 -63 66 -129 114 -220 161 -34 17 -78 45 -98 63 -20 18 -65 47
-101 65 -36 18 -85 49 -110 70 -49 40 -109 73 -152 84 -14 3 -41 24 -58 46
-17 22 -38 40 -46 40 -18 0 -93 34 -114 52 -8 7 -30 32 -48 54 -22 29 -42 44
-66 48 -18 4 -54 24 -79 46 -31 27 -54 40 -74 40 -19 0 -38 9 -54 26 -13 14
-54 41 -90 59 -71 36 -185 111 -235 155 -18 15 -48 30 -68 34 -26 5 -55 25
-104 72 -37 36 -88 76 -113 89 -25 13 -70 46 -100 73 -30 26 -74 60 -99 74
-25 14 -54 36 -65 48 -11 12 -51 38 -90 57 -38 19 -90 52 -115 72 -25 20 -79
59 -120 86 -41 27 -95 68 -120 91 -45 42 -117 84 -143 84 -7 0 -24 12 -38 26
-13 14 -41 35 -63 46 -21 11 -57 33 -79 49 -22 16 -46 29 -54 29 -20 0 -161
86 -198 120 -16 15 -49 37 -71 48 -23 12 -66 43 -95 70 -30 26 -75 60 -101 75
-45 26 -78 68 -78 100 0 8 31 48 70 91 l70 76 0 35 c0 40 -54 155 -106 227
-19 25 -54 58 -79 72 -24 14 -47 35 -50 46 l-6 20 -102 -1 -102 0 -59 -44z
m228 -167 c18 -29 43 -61 54 -71 11 -11 24 -37 27 -60 l7 -41 -18 -13 c-10 -7
-42 -13 -72 -13 -96 0 -142 47 -142 144 l0 57 25 24 c15 16 36 25 55 25 l30 0
34 -52z"/>
</g>
</svg>
