<?xml version="1.0" standalone="no"?>
<!DOCTYPE svg PUBLIC "-//W3C//DTD SVG 20010904//EN"
 "http://www.w3.org/TR/2001/REC-SVG-20010904/DTD/svg10.dtd">
<svg version="1.0" xmlns="http://www.w3.org/2000/svg"
 width="441.000000pt" height="255.000000pt" viewBox="0 0 441.000000 255.000000"
 preserveAspectRatio="xMidYMid meet">
<metadata>
Created by potrace 1.16, written by Peter Selinger 2001-2019
</metadata>
<g transform="translate(0.000000,255.000000) scale(0.100000,-0.100000)"
fill="#000000" stroke="none">
<path d="M117 2525 c-10 -14 -24 -25 -32 -25 -7 0 -30 -20 -49 -44 l-36 -43 0
-91 c0 -50 5 -94 10 -97 6 -3 10 -24 10 -45 0 -54 36 -160 76 -223 18 -29 52
-88 75 -132 23 -44 61 -101 85 -127 26 -28 44 -57 44 -71 0 -13 19 -49 43 -81
54 -75 371 -400 461 -474 39 -31 90 -75 115 -97 25 -23 62 -51 81 -64 20 -13
48 -41 63 -62 27 -37 90 -79 120 -79 7 0 24 -12 38 -26 13 -14 76 -60 139
-102 63 -43 128 -89 145 -103 16 -15 64 -43 105 -64 41 -21 88 -48 105 -60 79
-59 246 -125 318 -125 73 0 100 53 55 104 -13 14 -69 48 -125 76 l-103 50 -59
0 c-62 0 -74 7 -84 51 -13 51 -50 94 -89 99 -27 4 -47 17 -83 58 -26 28 -59
55 -73 59 -15 3 -43 20 -64 37 -33 28 -69 55 -148 111 -16 11 -48 31 -71 45
-23 14 -63 47 -89 73 -27 26 -67 60 -89 75 -54 37 -337 315 -361 355 -11 18
-38 46 -61 62 l-42 31 -17 60 c-16 56 -52 116 -122 205 -35 45 -98 231 -98
291 0 41 17 78 36 78 21 0 120 -56 158 -89 64 -55 208 -151 228 -151 9 0 22
-8 29 -17 24 -29 130 -103 148 -103 10 0 32 -18 50 -40 20 -25 45 -43 69 -49
20 -6 59 -29 86 -51 26 -22 57 -40 67 -40 13 0 30 -17 47 -46 15 -25 48 -70
74 -100 26 -30 58 -71 72 -91 13 -21 96 -109 185 -196 116 -115 170 -161 195
-168 19 -5 59 -31 88 -58 57 -52 163 -111 200 -111 58 0 128 81 128 147 0 36
-44 161 -68 193 -11 14 -29 26 -40 28 -12 2 -31 17 -43 33 -11 16 -59 55 -106
86 -47 31 -100 68 -117 83 -17 15 -62 44 -101 64 -39 21 -94 61 -125 92 -30
31 -76 67 -102 80 -48 24 -78 57 -78 83 0 8 -13 29 -28 46 -16 16 -37 56 -47
87 -22 67 -15 104 26 127 l26 15 50 -32 c27 -18 55 -32 62 -32 22 0 81 -32
175 -95 50 -33 107 -66 126 -74 45 -16 47 -17 114 -72 31 -25 86 -60 123 -79
43 -21 87 -54 123 -91 35 -38 69 -63 94 -71 28 -9 49 -26 71 -58 22 -32 44
-49 74 -60 40 -14 60 -28 188 -129 31 -24 71 -47 89 -53 18 -5 57 -30 86 -57
29 -26 72 -58 94 -69 51 -26 168 -105 212 -143 18 -16 42 -29 52 -29 11 0 47
-26 79 -58 32 -32 90 -75 128 -95 38 -19 105 -67 148 -105 44 -38 91 -71 105
-75 14 -3 43 -22 65 -40 22 -19 63 -46 91 -60 28 -14 75 -48 105 -74 30 -27
67 -57 82 -66 31 -20 111 -88 202 -172 33 -30 92 -82 130 -115 l70 -61 50 3
50 3 3 93 3 92 -27 0 c-49 0 -92 30 -149 106 -33 44 -63 74 -73 74 -10 0 -29
12 -43 26 -13 14 -44 36 -69 49 -25 13 -73 47 -107 76 -34 30 -88 73 -120 97
-32 23 -89 66 -126 95 -113 86 -130 97 -156 104 -14 3 -46 28 -70 55 -24 27
-65 60 -91 73 -26 13 -83 48 -126 78 -44 30 -95 62 -114 72 -19 10 -53 37 -75
61 -23 25 -71 58 -115 80 -41 20 -95 53 -119 72 -67 55 -154 112 -170 112 -7
0 -30 15 -50 33 -68 60 -163 132 -215 162 -28 17 -63 49 -79 73 -27 40 -106
92 -140 92 -7 0 -24 12 -38 26 -13 14 -54 41 -90 59 -36 19 -101 58 -145 87
-43 30 -99 66 -124 81 -25 15 -72 50 -105 77 -32 28 -73 54 -90 59 -36 10
-123 64 -183 115 l-44 36 -44 0 c-45 0 -158 -33 -182 -53 -20 -16 -49 -77 -74
-154 -12 -37 -26 -74 -31 -80 -17 -23 -63 -14 -107 20 -104 77 -155 110 -186
119 -18 5 -58 31 -88 59 -31 28 -71 55 -91 60 -21 6 -45 24 -61 45 -15 19 -41
42 -58 51 -64 32 -186 119 -197 140 l-12 23 -46 0 -46 -1 -18 -24z"/>
</g>
</svg>
