<?xml version="1.0" standalone="no"?>
<!DOCTYPE svg PUBLIC "-//W3C//DTD SVG 20010904//EN"
 "http://www.w3.org/TR/2001/REC-SVG-20010904/DTD/svg10.dtd">
<svg version="1.0" xmlns="http://www.w3.org/2000/svg"
 width="540.000000pt" height="255.000000pt" viewBox="0 0 540.000000 255.000000"
 preserveAspectRatio="xMidYMid meet">
<metadata>
Created by potrace 1.16, written by Peter Selinger 2001-2019
</metadata>
<g transform="translate(0.000000,255.000000) scale(0.100000,-0.100000)"
fill="#000000" stroke="none">
<path d="M695 2540 c-3 -5 -47 -10 -96 -10 l-91 0 -105 -52 c-74 -37 -114 -64
-136 -91 -18 -22 -53 -60 -79 -86 l-48 -47 0 -51 c0 -35 5 -54 18 -65 33 -29
81 -48 123 -48 46 0 197 -67 270 -120 23 -16 49 -30 58 -30 29 0 203 -102 262
-154 20 -17 82 -69 139 -116 147 -121 194 -165 226 -213 16 -23 47 -62 69 -87
23 -25 50 -59 61 -75 10 -17 38 -54 61 -82 23 -29 49 -75 57 -103 8 -28 25
-64 37 -81 15 -22 20 -39 15 -59 -3 -19 2 -47 15 -77 l21 -48 -11 -36 c-6 -20
-11 -57 -11 -83 0 -68 -13 -86 -60 -86 -65 0 -90 17 -200 131 l-106 109 -40 0
c-92 0 -122 -69 -58 -131 19 -18 49 -54 65 -79 48 -74 182 -191 242 -211 77
-27 215 -26 270 2 58 29 94 65 123 121 l24 47 0 161 0 161 -21 61 c-33 98 -68
160 -115 204 l-44 41 0 34 0 35 -75 77 c-41 43 -75 84 -75 91 0 22 -35 46 -68
46 l-32 0 -34 53 c-19 29 -41 59 -50 66 -9 7 -37 42 -62 77 -32 46 -59 71 -93
89 -27 13 -63 42 -81 65 -17 22 -38 40 -47 40 -28 0 -138 57 -228 119 -49 33
-96 61 -104 61 -17 0 -157 66 -193 92 -33 23 -37 61 -11 98 25 36 41 46 109
69 l60 21 303 0 302 0 36 -15 c19 -8 53 -15 75 -15 21 0 55 -7 75 -15 19 -8
58 -15 86 -15 29 0 91 -13 142 -29 103 -33 160 -49 227 -61 26 -5 56 -13 67
-19 11 -6 33 -11 50 -11 19 0 45 -12 73 -35 24 -19 54 -40 68 -46 14 -6 36
-16 50 -23 l25 -12 41 -122 c27 -79 51 -133 68 -151 14 -15 26 -35 26 -44 0
-23 74 -103 124 -135 22 -13 60 -44 85 -67 44 -41 118 -85 142 -85 6 0 50 -18
96 -40 l84 -41 42 12 c23 7 56 25 72 41 17 15 38 28 46 28 29 0 49 34 49 83 0
66 22 76 95 43 30 -14 72 -41 93 -61 22 -19 45 -35 52 -35 7 0 34 -13 59 -29
25 -16 57 -31 71 -34 14 -4 43 -22 65 -40 41 -35 115 -77 136 -77 6 0 32 -19
57 -41 56 -50 133 -95 184 -109 20 -6 61 -33 91 -60 30 -27 89 -67 133 -89 88
-44 113 -64 149 -122 17 -25 43 -48 78 -65 28 -14 74 -44 100 -66 26 -22 62
-44 81 -49 18 -5 50 -24 72 -42 21 -18 59 -45 84 -59 25 -14 56 -38 69 -52 14
-14 32 -26 41 -26 9 0 33 -20 53 -45 20 -24 61 -60 90 -79 28 -19 74 -58 102
-86 31 -31 64 -54 87 -60 20 -6 61 -32 90 -59 54 -49 124 -91 153 -91 l15 0 0
85 0 85 -37 19 c-21 11 -65 42 -98 70 -33 28 -76 59 -96 70 -48 27 -168 108
-199 135 -14 12 -37 30 -51 38 -14 9 -62 47 -106 85 -100 86 -195 161 -244
193 -21 14 -53 42 -71 62 -19 22 -67 54 -114 77 -45 22 -106 62 -135 89 -54
50 -112 84 -160 95 -14 4 -54 30 -87 59 -101 87 -184 148 -202 148 -9 0 -29
13 -44 29 -15 16 -46 36 -69 46 -23 9 -55 24 -72 32 -86 46 -144 80 -179 105
-21 15 -45 28 -53 28 -8 0 -44 18 -81 40 -36 22 -80 44 -97 49 -36 10 -123 64
-183 115 -24 20 -51 36 -59 36 -21 0 -82 29 -119 57 -37 27 -348 183 -366 183
-7 0 -33 14 -58 30 -25 16 -51 30 -58 30 -8 0 -43 14 -79 30 -35 17 -69 30
-75 30 -6 0 -50 18 -97 41 -80 38 -137 58 -251 89 -25 7 -92 15 -150 19 -58 4
-115 12 -127 19 -12 7 -47 12 -78 12 -30 0 -72 7 -92 15 -19 8 -53 15 -75 15
-21 0 -55 7 -75 15 -19 8 -48 15 -64 15 -15 0 -31 5 -34 10 -9 14 -99 12 -113
-2 -10 -10 -17 -10 -32 0 -25 15 -316 17 -325 2z m1927 -635 c40 -32 106 -69
169 -93 15 -6 41 -30 58 -54 17 -24 42 -59 56 -79 26 -37 26 -63 -2 -73 -18
-7 -120 39 -192 88 -79 54 -181 161 -181 190 0 24 23 56 40 56 5 0 28 -16 52
-35z"/>
<path d="M17 919 c-13 -8 -17 -23 -17 -64 l0 -53 29 -7 c16 -3 49 -23 73 -44
24 -21 72 -53 106 -70 35 -18 82 -45 104 -62 23 -16 48 -29 57 -29 9 0 33 -12
54 -26 21 -14 84 -48 140 -76 56 -28 122 -67 147 -88 25 -20 65 -47 90 -60 25
-12 68 -40 95 -61 28 -22 79 -62 114 -89 35 -28 73 -50 84 -50 10 0 40 -21 66
-47 64 -64 114 -93 159 -93 l37 0 18 49 c9 27 17 56 17 64 0 22 -47 75 -92
103 -21 13 -63 47 -93 74 -30 28 -63 50 -74 50 -10 0 -37 15 -61 33 -92 68
-137 99 -181 122 -26 13 -83 49 -128 80 -45 31 -114 72 -154 92 -40 20 -85 46
-102 58 -48 36 -112 65 -142 65 -18 0 -60 21 -113 56 -110 73 -189 98 -233 73z"/>
</g>
</svg>
