<?xml version="1.0" standalone="no"?>
<!DOCTYPE svg PUBLIC "-//W3C//DTD SVG 20010904//EN"
 "http://www.w3.org/TR/2001/REC-SVG-20010904/DTD/svg10.dtd">
<svg version="1.0" xmlns="http://www.w3.org/2000/svg"
 width="735.000000pt" height="339.000000pt" viewBox="0 0 735.000000 339.000000"
 preserveAspectRatio="xMidYMid meet">
<metadata>
Created by potrace 1.16, written by Peter Selinger 2001-2019
</metadata>
<g transform="translate(0.000000,339.000000) scale(0.100000,-0.100000)"
fill="#000000" stroke="none">
<path d="M180 3381 c-41 -21 -72 -39 -124 -69 l-56 -34 0 -103 0 -104 21 -6
c11 -4 36 -31 55 -61 27 -43 47 -60 95 -84 33 -17 76 -46 97 -64 20 -18 57
-44 82 -56 24 -12 66 -38 93 -56 27 -19 61 -37 76 -41 14 -3 38 -14 53 -24 14
-11 32 -19 40 -19 8 0 56 -20 107 -45 51 -25 98 -45 105 -45 7 0 30 -11 50
-25 65 -44 145 -65 251 -65 62 0 108 -5 132 -15 19 -8 59 -15 89 -15 29 0 65
-5 80 -10 19 -7 37 -7 60 0 25 9 40 8 69 -5 47 -19 142 -19 188 0 21 8 67 15
105 15 39 0 85 7 105 15 28 11 78 15 210 15 133 0 183 4 210 15 20 8 59 15 87
15 54 0 128 22 224 66 l60 27 240 -1 240 -2 91 -29 c99 -32 157 -48 225 -61
58 -11 148 -45 169 -63 21 -19 97 -57 113 -57 27 0 156 -69 172 -91 12 -17 16
-47 16 -114 1 -59 6 -99 15 -115 8 -14 14 -34 15 -45 0 -28 74 -128 162 -220
l73 -75 35 0 c19 0 64 -14 98 -30 51 -24 77 -30 129 -30 l65 0 29 29 29 29 0
65 c0 45 4 68 15 77 22 18 81 6 134 -29 63 -42 198 -111 214 -111 8 0 55 -27
105 -60 49 -33 96 -60 103 -60 26 0 134 -58 159 -85 14 -15 56 -43 94 -62 37
-19 107 -61 155 -94 60 -41 97 -59 119 -59 20 0 45 -12 74 -35 24 -19 65 -46
92 -61 80 -42 164 -104 187 -135 21 -29 85 -69 112 -69 8 0 32 -13 53 -30 21
-16 57 -42 79 -56 22 -15 54 -39 70 -55 17 -15 48 -34 70 -41 28 -9 48 -26 68
-56 26 -39 105 -92 137 -92 7 0 30 -16 53 -35 23 -19 64 -53 90 -75 34 -28 57
-40 80 -40 20 0 54 -13 84 -33 29 -17 75 -45 104 -62 28 -16 72 -42 98 -57 32
-19 60 -28 94 -28 l47 0 0 43 0 44 -38 41 c-22 23 -48 42 -59 42 -23 0 -171
95 -223 144 -22 21 -62 41 -109 56 l-74 23 -68 64 c-40 38 -82 68 -103 74 -22
6 -46 24 -62 45 -28 36 -76 66 -126 78 -15 3 -39 22 -54 42 -15 19 -43 44 -63
54 -20 10 -49 32 -65 49 -17 17 -37 31 -46 31 -21 0 -83 41 -130 85 -19 18
-81 56 -138 84 -56 28 -120 67 -141 86 -44 40 -98 65 -139 65 -27 0 -101 44
-117 70 -3 6 -43 29 -87 51 -45 22 -102 55 -128 73 -46 32 -57 37 -152 70 -25
10 -66 34 -90 55 -24 21 -79 57 -123 79 -44 22 -95 52 -114 66 -19 14 -42 26
-51 26 -9 0 -29 13 -44 29 -15 16 -43 32 -62 35 -18 4 -57 23 -86 42 -61 42
-241 134 -261 134 -15 0 -162 93 -171 109 -13 21 -233 159 -264 166 -18 4 -56
23 -85 42 -73 49 -182 103 -209 103 -13 0 -43 6 -68 14 -78 25 -133 37 -195
45 -34 5 -70 13 -82 19 -12 7 -33 12 -47 12 -14 0 -44 7 -67 16 l-40 17 -55
-19 -55 -18 -48 17 c-61 21 -176 22 -224 2 -20 -8 -60 -15 -89 -15 -33 0 -85
-12 -138 -30 -61 -22 -102 -30 -151 -30 -37 0 -83 -7 -102 -15 -20 -8 -54 -15
-75 -15 -22 0 -56 -7 -75 -15 -26 -11 -74 -15 -164 -15 l-128 0 -85 -30 c-94
-34 -134 -37 -187 -15 -23 10 -69 15 -137 15 -66 0 -106 4 -114 12 -8 8 -12
56 -12 151 l0 139 -49 47 c-27 26 -62 74 -79 107 -34 67 -45 78 -84 88 -15 3
-35 18 -45 32 -41 59 -87 105 -112 110 -22 5 -184 75 -243 105 -22 11 -517 11
-538 0z m596 -195 c49 -24 102 -58 118 -75 17 -17 37 -31 47 -31 27 0 57 -32
71 -74 9 -28 26 -49 58 -71 85 -59 111 -154 60 -225 l-21 -30 -88 0 -87 0 -50
33 c-28 17 -93 52 -145 76 -52 24 -110 51 -129 61 -19 11 -88 46 -152 79 -73
38 -123 71 -135 88 -10 15 -42 52 -72 81 l-53 54 12 22 c6 12 23 30 38 39 l27
16 206 1 205 0 90 -44z m3524 -1157 c0 -10 -4 -19 -10 -19 -12 0 -31 35 -24
43 11 11 34 -5 34 -24z m144 -104 c15 -15 12 -45 -5 -45 -18 0 -59 24 -59 35
0 28 39 34 64 10z"/>
<path d="M865 2365 c-16 -8 -43 -14 -58 -15 -41 0 -64 -16 -92 -59 -13 -22
-43 -52 -67 -68 -26 -17 -46 -40 -52 -58 -4 -17 -15 -45 -22 -63 -20 -46 -19
-297 1 -332 8 -14 14 -35 15 -48 0 -13 23 -47 54 -81 58 -63 96 -127 96 -160
0 -20 16 -40 182 -229 40 -45 88 -104 106 -130 46 -65 72 -91 107 -109 17 -9
66 -50 110 -93 44 -42 94 -85 110 -95 17 -10 61 -46 99 -79 38 -34 83 -65 99
-71 18 -6 44 -29 62 -55 l31 -45 60 -20 c32 -11 97 -47 143 -79 46 -31 114
-72 151 -91 36 -18 73 -41 81 -51 22 -27 110 -89 166 -117 28 -15 72 -44 98
-67 33 -29 55 -40 79 -40 32 0 186 -68 217 -96 12 -11 36 -14 90 -12 l74 3
-61 63 -61 62 -38 0 -38 0 -41 44 c-28 30 -74 61 -144 95 -56 28 -119 66 -140
85 -38 35 -112 76 -134 76 -7 0 -32 23 -56 50 -32 37 -67 62 -131 95 -99 49
-141 81 -171 130 -14 22 -31 36 -52 40 -18 5 -59 33 -99 71 -38 35 -73 64 -78
64 -5 0 -36 24 -68 54 -32 29 -74 61 -93 71 -19 10 -62 45 -95 79 -33 34 -73
69 -88 79 -15 10 -30 31 -33 47 -4 16 -19 41 -35 56 -16 15 -29 35 -29 44 0 9
-39 56 -87 106 -99 103 -123 137 -123 180 0 21 -9 39 -30 59 -16 16 -30 36
-30 44 0 9 -14 36 -30 60 -17 24 -30 56 -30 71 0 15 -7 44 -15 63 -27 66 -20
105 34 189 l49 75 53 27 c29 14 67 26 84 26 68 0 90 87 36 141 l-29 29 -54 -1
c-29 0 -66 -7 -83 -14z"/>
</g>
</svg>
