<?xml version="1.0" standalone="no"?>
<!DOCTYPE svg PUBLIC "-//W3C//DTD SVG 20010904//EN"
 "http://www.w3.org/TR/2001/REC-SVG-20010904/DTD/svg10.dtd">
<svg version="1.0" xmlns="http://www.w3.org/2000/svg"
 width="465.000000pt" height="249.000000pt" viewBox="0 0 465.000000 249.000000"
 preserveAspectRatio="xMidYMid meet">
<metadata>
Created by potrace 1.16, written by Peter Selinger 2001-2019
</metadata>
<g transform="translate(0.000000,249.000000) scale(0.100000,-0.100000)"
fill="#000000" stroke="none">
<path d="M95 2480 c-3 -5 -26 -10 -51 -10 l-44 0 0 -68 0 -69 21 -19 c12 -10
27 -30 34 -45 8 -14 44 -50 82 -81 37 -31 93 -77 123 -102 30 -25 75 -56 100
-67 25 -12 51 -24 58 -28 16 -7 82 -194 82 -233 0 -35 294 -336 360 -368 25
-12 66 -40 92 -61 31 -26 73 -48 125 -64 53 -17 96 -39 127 -65 34 -28 58 -40
80 -40 18 0 50 -13 76 -30 l45 -30 81 0 81 0 16 18 c10 10 17 29 17 41 0 27
-51 81 -77 81 -10 0 -38 14 -63 30 -25 16 -51 30 -59 30 -27 0 -182 81 -219
114 -20 18 -49 36 -64 39 -14 4 -50 29 -80 56 -29 26 -76 60 -104 74 -28 14
-64 41 -80 59 -16 18 -48 51 -71 73 -30 28 -47 56 -58 93 l-16 52 12 40 12 40
-23 51 c-19 39 -30 52 -52 56 -16 3 -38 19 -49 34 -11 16 -29 29 -39 29 -10 0
-28 9 -41 20 l-24 19 18 1 c10 0 34 -7 54 -15 19 -8 45 -15 57 -15 12 0 38
-12 57 -26 40 -30 78 -47 179 -80 41 -13 99 -36 128 -49 29 -14 57 -25 63 -25
6 0 40 -13 76 -30 35 -16 69 -30 75 -30 18 0 199 -90 232 -115 17 -13 66 -35
108 -49 46 -15 111 -47 161 -81 46 -30 89 -55 97 -55 19 0 198 -88 234 -115
17 -13 67 -35 111 -50 110 -35 158 -59 204 -100 21 -19 44 -35 51 -35 17 0
144 -64 207 -104 29 -18 85 -44 125 -56 41 -13 86 -35 103 -50 17 -15 45 -35
64 -45 19 -9 52 -30 74 -46 22 -16 46 -29 54 -29 14 0 99 -47 203 -113 30 -19
71 -43 90 -52 19 -10 55 -34 80 -55 45 -37 178 -110 201 -110 17 0 80 -31 114
-56 17 -12 63 -39 102 -59 40 -19 108 -59 150 -88 43 -29 98 -65 123 -79 25
-14 54 -36 65 -48 11 -12 54 -39 95 -60 41 -21 103 -62 137 -91 113 -99 179
-141 215 -137 l33 3 3 58 3 58 -36 42 c-19 23 -55 56 -80 72 -24 17 -77 58
-118 92 -42 34 -98 73 -125 87 -27 14 -74 47 -104 75 -43 39 -72 56 -133 76
-75 24 -96 37 -225 141 -58 46 -192 114 -226 114 -35 0 -84 24 -174 86 -83 57
-141 88 -182 98 -14 3 -50 28 -80 55 -50 46 -124 91 -149 91 -23 0 -85 34
-130 71 -29 23 -74 47 -115 60 -38 12 -82 34 -99 49 -33 30 -86 60 -108 60 -7
0 -26 14 -42 30 -16 17 -35 30 -42 30 -8 0 -44 18 -81 41 -37 22 -79 43 -94
46 -14 3 -39 18 -54 34 l-28 29 -62 0 -62 0 -44 35 c-47 37 -178 108 -218 118
-14 4 -44 22 -66 41 -29 25 -73 45 -155 72 -73 24 -125 47 -144 64 -32 30 -86
60 -106 60 -7 0 -77 32 -156 70 -79 39 -198 88 -264 110 -67 22 -133 48 -147
59 -47 33 -149 80 -229 106 -43 14 -128 50 -190 80 -62 30 -125 55 -142 55
-16 0 -33 5 -36 10 -3 6 -28 10 -55 10 -27 0 -52 -4 -55 -10z"/>
</g>
</svg>
