<?xml version="1.0" standalone="no"?>
<!DOCTYPE svg PUBLIC "-//W3C//DTD SVG 20010904//EN"
 "http://www.w3.org/TR/2001/REC-SVG-20010904/DTD/svg10.dtd">
<svg version="1.0" xmlns="http://www.w3.org/2000/svg"
 width="807.000000pt" height="297.000000pt" viewBox="0 0 807.000000 297.000000"
 preserveAspectRatio="xMidYMid meet">
<metadata>
Created by potrace 1.16, written by Peter Selinger 2001-2019
</metadata>
<g transform="translate(0.000000,297.000000) scale(0.100000,-0.100000)"
fill="#000000" stroke="none">
<path d="M5000 2961 c0 -29 -34 -41 -111 -41 -78 0 -159 -20 -234 -57 -42 -21
-203 -180 -225 -224 -10 -19 -28 -63 -39 -97 l-21 -61 0 -216 0 -215 36 -106
c25 -76 51 -129 90 -187 31 -44 73 -114 95 -156 21 -42 48 -92 58 -111 11 -19
27 -54 37 -78 10 -24 34 -56 56 -74 21 -17 50 -53 65 -81 37 -74 125 -174 240
-274 33 -29 77 -76 96 -106 20 -30 81 -93 137 -141 55 -48 100 -90 100 -95 0
-15 -25 -31 -50 -31 -14 0 -45 -14 -70 -30 l-45 -30 -72 0 -72 0 -64 -30 -65
-30 -145 0 c-106 0 -154 -4 -180 -15 l-36 -15 -501 0 -501 0 -36 15 c-27 12
-81 15 -240 15 -158 0 -212 3 -240 15 -19 8 -53 15 -75 15 -21 0 -55 7 -75 15
-19 8 -53 15 -75 15 -21 0 -55 7 -75 15 -19 8 -53 15 -75 15 -21 0 -55 7 -75
15 -26 11 -74 15 -180 15 -105 0 -153 4 -180 15 -19 8 -59 15 -87 15 -28 0
-71 6 -96 14 -78 25 -133 37 -195 45 -34 5 -70 13 -82 19 -12 7 -40 12 -63 12
-22 0 -57 7 -77 15 -19 8 -59 15 -89 15 -29 0 -65 6 -81 12 -23 11 -356 23
-718 27 -11 0 -123 -3 -250 -8 -245 -8 -297 -17 -359 -65 -17 -12 -47 -31 -66
-41 -19 -9 -47 -29 -63 -43 l-27 -26 0 -102 0 -102 56 -46 c89 -73 134 -57
134 49 0 41 6 67 21 92 26 42 85 83 120 83 15 0 44 7 65 16 l38 16 332 -1
c195 0 343 -5 358 -11 19 -7 40 -6 70 2 l44 12 44 -17 c33 -13 76 -17 171 -17
91 0 138 -4 164 -15 19 -8 60 -15 90 -15 29 0 70 -7 90 -15 19 -8 53 -15 75
-15 21 0 55 -7 75 -15 19 -8 52 -15 72 -15 20 0 56 -6 81 -14 112 -35 145 -40
355 -45 l220 -6 40 -28 40 -27 73 0 c42 0 88 -6 109 -15 19 -8 60 -15 90 -15
29 0 70 -7 90 -15 23 -10 69 -15 135 -15 65 0 111 -5 135 -15 l35 -15 732 0
731 0 85 30 c46 17 94 30 106 30 13 0 52 14 87 30 l65 30 70 0 c39 0 85 7 105
15 25 10 72 15 149 15 l114 0 84 -56 c47 -32 119 -75 160 -96 41 -22 100 -55
130 -74 30 -19 72 -39 92 -44 45 -13 64 -23 157 -84 57 -38 84 -50 120 -52 90
-6 156 -16 166 -25 14 -14 391 -11 418 3 12 6 29 14 37 18 21 10 60 80 60 110
0 14 7 46 17 72 l17 47 -32 69 c-18 38 -32 76 -32 85 0 9 -22 42 -50 72 -27
30 -61 73 -75 95 -14 22 -37 46 -53 54 -15 8 -56 39 -90 70 -35 31 -70 56 -78
56 -9 0 -39 20 -67 45 -29 25 -91 66 -139 90 l-86 45 -191 0 -192 0 -60 -20
c-33 -12 -95 -44 -137 -73 -99 -67 -134 -83 -203 -91 -41 -5 -67 -3 -92 8 -40
16 -364 336 -402 397 -13 20 -29 40 -35 44 -5 3 -35 39 -65 78 -30 40 -74 95
-96 122 -42 52 -109 178 -109 206 0 9 -10 24 -21 35 -64 57 -159 222 -159 277
0 15 -9 46 -21 68 -11 23 -31 74 -45 114 -19 57 -22 78 -14 100 5 14 10 63 10
108 0 127 14 195 50 236 17 20 44 57 61 83 37 57 54 68 154 101 44 14 105 37
135 51 l55 26 173 0 c131 0 181 -4 209 -15 19 -8 52 -15 71 -15 20 0 77 -13
127 -29 120 -39 169 -51 235 -60 61 -8 305 -88 388 -126 35 -17 70 -25 105
-25 87 0 204 -46 281 -110 26 -22 55 -40 63 -40 20 0 143 -61 213 -106 30 -19
72 -39 92 -45 24 -6 47 -23 64 -45 15 -19 43 -44 63 -54 71 -36 267 -173 321
-224 66 -62 141 -115 177 -125 28 -7 31 -11 59 -79 10 -24 35 -57 57 -74 36
-29 107 -151 107 -184 0 -7 13 -41 30 -76 16 -34 30 -75 30 -89 0 -15 7 -43
15 -62 27 -64 19 -149 -25 -279 -21 -64 -48 -135 -59 -157 -26 -51 -26 -72 0
-105 25 -32 61 -34 106 -6 37 22 53 50 82 140 12 36 26 73 31 82 13 24 13 495
0 503 -5 3 -10 27 -10 53 l0 47 -38 56 c-21 30 -54 75 -74 100 -19 24 -46 64
-58 89 -26 53 -181 207 -257 256 -33 21 -53 41 -53 52 0 25 -28 48 -67 57 -17
3 -52 24 -76 46 -25 21 -50 39 -57 39 -7 0 -33 18 -58 41 -26 23 -76 58 -112
79 -36 21 -74 48 -85 60 -22 24 -86 60 -107 60 -7 0 -30 11 -51 25 -47 33
-232 125 -250 125 -7 0 -53 27 -102 60 l-90 60 -55 0 c-36 0 -86 11 -140 30
-47 16 -96 30 -110 30 -14 0 -45 14 -70 30 -33 22 -57 30 -88 30 -27 0 -68 11
-109 30 -35 17 -81 30 -101 30 -20 0 -57 6 -82 14 -102 32 -139 39 -230 43
-52 2 -99 9 -104 14 -13 12 -426 12 -426 0z m1237 -2206 c22 -9 68 -15 122
-15 l88 0 24 -26 c13 -14 60 -50 104 -79 44 -30 104 -75 133 -99 29 -25 73
-60 97 -77 25 -18 61 -55 80 -83 l35 -51 0 -63 c0 -35 -5 -72 -10 -83 l-11
-19 -130 0 c-93 0 -140 4 -166 15 -19 8 -47 15 -62 15 -38 0 -51 17 -51 69 0
49 -21 81 -53 81 -25 0 -57 -28 -57 -50 0 -23 -20 -40 -48 -40 -13 0 -56 19
-95 43 -40 23 -89 51 -110 61 -21 11 -52 37 -69 58 -16 21 -42 41 -56 44 -51
12 -109 43 -140 75 -18 18 -32 36 -32 39 0 3 14 16 30 28 17 13 30 31 30 42 0
31 119 100 173 100 14 0 40 7 58 15 44 18 71 19 116 0z"/>
</g>
</svg>
