<?xml version="1.0" standalone="no"?>
<!DOCTYPE svg PUBLIC "-//W3C//DTD SVG 20010904//EN"
 "http://www.w3.org/TR/2001/REC-SVG-20010904/DTD/svg10.dtd">
<svg version="1.0" xmlns="http://www.w3.org/2000/svg"
 width="381.000000pt" height="300.000000pt" viewBox="0 0 381.000000 300.000000"
 preserveAspectRatio="xMidYMid meet">
<metadata>
Created by potrace 1.16, written by Peter Selinger 2001-2019
</metadata>
<g transform="translate(0.000000,300.000000) scale(0.100000,-0.100000)"
fill="#000000" stroke="none">
<path d="M695 2990 c-3 -5 -24 -10 -46 -10 -50 0 -155 -35 -194 -64 -16 -13
-52 -35 -80 -49 -58 -29 -78 -49 -134 -132 l-41 -60 0 -195 0 -195 25 -69 c13
-38 40 -95 60 -127 19 -31 35 -69 35 -83 0 -35 64 -160 106 -210 19 -22 38
-54 43 -71 14 -50 114 -189 224 -312 37 -41 81 -101 97 -133 18 -35 49 -76 80
-102 53 -45 62 -74 34 -102 -19 -19 -17 -19 -61 -1 -19 8 -53 15 -75 15 -21 0
-55 7 -75 15 -19 8 -52 15 -71 15 -20 0 -77 13 -127 29 -156 50 -177 54 -307
58 l-127 4 -30 -16 c-44 -22 -42 -60 7 -113 l39 -42 35 0 c23 0 48 -10 74 -30
21 -16 76 -55 122 -86 46 -31 92 -66 104 -77 22 -24 88 -154 88 -175 0 -7 -11
-24 -25 -37 l-24 -25 -138 0 -138 0 -40 -23 c-57 -32 -58 -63 -5 -110 l40 -37
140 0 140 0 79 39 c42 22 92 56 109 76 l32 36 0 125 c0 94 -4 132 -16 155 -20
39 -13 45 35 31 21 -7 82 -12 135 -12 63 0 109 -5 133 -15 19 -8 52 -15 72
-15 35 0 126 -26 181 -52 24 -12 58 -36 180 -131 30 -23 75 -55 100 -72 24
-16 63 -49 85 -72 45 -47 118 -99 191 -136 27 -14 71 -44 98 -66 26 -23 56
-41 65 -41 9 0 54 -25 99 -55 109 -72 120 -77 253 -121 63 -21 120 -42 127
-47 6 -5 12 -22 12 -38 l0 -29 54 0 55 0 6 19 c9 28 31 33 72 16 47 -20 72
-19 145 6 89 30 131 53 166 94 l32 36 0 112 0 112 -30 45 c-16 25 -30 53 -30
62 0 23 -46 75 -93 105 -22 14 -61 45 -86 68 -25 23 -66 53 -91 65 -25 12 -66
40 -92 62 -26 21 -107 69 -180 105 -73 37 -151 79 -172 95 -21 15 -46 28 -53
28 -20 0 -82 29 -118 56 -65 48 -245 124 -293 124 -10 0 -56 13 -102 30 -105
37 -182 40 -243 9 -83 -42 -97 -75 -54 -133 33 -45 50 -87 39 -98 -17 -17
-204 158 -256 237 -14 22 -45 54 -69 71 -26 18 -54 52 -73 87 -16 32 -46 74
-66 95 -20 20 -49 55 -64 78 -39 55 -91 124 -137 182 -20 26 -41 62 -46 79 -5
18 -26 52 -46 75 -19 23 -38 54 -42 68 -3 14 -15 43 -26 65 -11 22 -33 80 -48
128 -16 48 -39 107 -51 130 -26 51 -44 248 -27 310 26 97 190 187 340 187 38
0 83 7 105 16 39 16 62 16 184 -5 30 -5 86 -10 123 -10 37 -1 84 -8 104 -16
19 -8 53 -15 75 -15 23 0 67 -13 105 -30 35 -16 75 -30 89 -30 14 0 41 -7 61
-15 19 -8 65 -15 102 -15 91 0 246 -55 325 -115 17 -13 87 -42 156 -64 144
-48 212 -78 271 -121 23 -16 49 -30 56 -30 20 0 82 -29 118 -56 17 -12 64 -39
105 -59 41 -21 95 -54 120 -75 25 -20 69 -49 97 -63 28 -15 85 -58 127 -97 42
-38 80 -70 85 -70 8 0 166 -139 234 -207 92 -91 198 -238 243 -338 21 -45 25
-65 19 -93 -4 -21 -7 -46 -6 -57 1 -11 4 -63 7 -116 l6 -97 -20 -45 c-11 -25
-54 -81 -96 -125 -102 -107 -100 -122 15 -122 l59 0 90 89 c56 55 90 96 90
109 0 11 4 24 10 27 14 8 14 462 0 470 -5 3 -10 14 -10 23 0 16 -31 64 -120
187 -52 72 -407 431 -465 470 -27 19 -72 57 -100 85 -30 30 -64 54 -85 60 -20
5 -55 26 -77 45 -23 20 -102 65 -175 102 -73 37 -151 79 -172 95 -21 15 -46
28 -54 28 -9 0 -80 31 -159 70 -149 73 -246 110 -285 110 -25 0 -56 18 -98 56
-34 30 -228 94 -287 94 -26 0 -88 13 -138 29 -122 39 -170 51 -240 60 -34 5
-70 13 -82 19 -12 7 -62 12 -112 12 -49 0 -93 5 -96 10 -4 6 -73 10 -175 10
-102 0 -171 -4 -175 -10z m1375 -2132 c102 -50 199 -101 215 -113 17 -13 53
-34 80 -48 28 -14 72 -44 99 -66 26 -23 55 -41 63 -41 28 0 71 -33 99 -77 15
-24 46 -56 68 -71 l40 -27 24 -65 23 -65 -16 -31 c-40 -76 -138 -85 -303 -29
-57 20 -120 47 -140 60 -20 14 -49 25 -65 25 -40 0 -154 54 -207 99 -25 21
-69 51 -98 66 -29 15 -65 43 -79 62 -15 19 -47 45 -73 58 -49 25 -106 77 -115
106 -3 10 -21 23 -40 29 -19 6 -35 15 -35 20 0 10 25 20 51 20 29 0 115 47
133 72 9 13 16 43 16 71 l0 48 38 -6 c20 -4 120 -48 222 -97z"/>
</g>
</svg>
