<?xml version="1.0" standalone="no"?>
<!DOCTYPE svg PUBLIC "-//W3C//DTD SVG 20010904//EN"
 "http://www.w3.org/TR/2001/REC-SVG-20010904/DTD/svg10.dtd">
<svg version="1.0" xmlns="http://www.w3.org/2000/svg"
 width="468.000000pt" height="309.000000pt" viewBox="0 0 468.000000 309.000000"
 preserveAspectRatio="xMidYMid meet">
<metadata>
Created by potrace 1.16, written by Peter Selinger 2001-2019
</metadata>
<g transform="translate(0.000000,309.000000) scale(0.100000,-0.100000)"
fill="#000000" stroke="none">
<path d="M50 3040 l-50 -51 0 -44 0 -43 50 -79 c27 -43 63 -103 79 -134 32
-60 91 -119 119 -119 9 0 31 -9 47 -21 76 -52 124 -69 188 -69 l63 0 50 35
c27 19 63 40 81 46 l32 10 43 -19 c24 -10 68 -41 98 -69 30 -28 78 -62 106
-76 28 -14 76 -49 107 -77 31 -28 71 -56 89 -61 31 -8 99 -56 160 -112 l28
-26 0 -49 c0 -38 6 -58 29 -88 15 -22 52 -89 82 -148 35 -70 66 -118 89 -137
50 -43 136 -108 200 -151 l55 -38 93 0 c106 0 155 18 193 71 l22 31 29 -6 c16
-3 44 -17 62 -31 18 -14 56 -32 85 -41 29 -8 74 -34 105 -59 29 -24 69 -51 87
-60 51 -26 194 -123 214 -145 10 -11 35 -25 55 -30 20 -5 54 -25 76 -43 21
-19 59 -44 84 -57 25 -13 59 -34 77 -47 17 -13 47 -28 65 -34 19 -5 52 -24 74
-43 21 -18 58 -43 80 -54 23 -12 77 -46 121 -76 84 -57 213 -126 237 -126 7 0
26 -16 41 -35 17 -23 57 -51 114 -79 47 -24 111 -66 140 -92 30 -27 79 -62
109 -79 34 -18 68 -47 86 -72 17 -24 49 -55 71 -69 22 -14 65 -50 95 -79 30
-29 78 -64 106 -78 28 -14 75 -48 105 -75 30 -27 70 -57 89 -67 19 -9 42 -24
51 -32 11 -9 34 -13 65 -11 l49 3 3 29 c3 27 0 40 -31 105 -7 14 -34 38 -62
54 -27 16 -67 45 -88 64 -21 19 -64 50 -95 70 -31 20 -77 55 -102 78 -25 23
-81 65 -125 94 -44 30 -93 71 -109 92 -15 22 -46 49 -69 60 -23 12 -62 38 -87
59 -25 21 -79 54 -120 75 -75 38 -164 98 -189 129 -17 20 -83 56 -103 56 -8 0
-51 25 -97 55 -45 31 -109 69 -142 86 -33 16 -76 45 -97 63 -40 36 -92 66
-115 66 -7 0 -24 12 -38 26 -13 14 -42 35 -64 46 -22 12 -53 31 -70 43 -16 13
-52 35 -80 49 -51 28 -117 67 -215 129 -30 19 -67 37 -81 41 -14 3 -54 30 -88
61 -34 30 -70 55 -80 55 -10 0 -37 15 -61 33 -95 71 -137 99 -191 127 -31 16
-81 52 -112 80 -31 28 -72 56 -92 61 -21 6 -63 36 -103 73 -37 35 -86 73 -108
84 -23 12 -79 47 -124 78 -46 31 -98 61 -116 66 -18 5 -57 30 -86 57 -29 27
-89 67 -134 89 -45 22 -106 64 -137 92 -31 28 -71 56 -89 61 -41 12 -56 24
-93 72 -15 21 -50 49 -76 62 -26 14 -81 56 -123 95 -59 55 -82 70 -106 70 -43
0 -80 18 -192 91 -169 111 -164 109 -228 109 l-59 0 -51 -50z m315 -263 c61
-28 125 -81 125 -103 0 -21 -31 -25 -68 -7 -48 21 -132 102 -132 126 0 10 3
17 8 15 4 -2 34 -16 67 -31z m1355 -927 c19 -17 39 -30 44 -30 15 0 106 -92
106 -107 0 -7 -2 -13 -4 -13 -2 0 -11 -3 -20 -6 -20 -8 -176 141 -176 168 0
25 9 22 50 -12z"/>
</g>
</svg>
