<?xml version="1.0" standalone="no"?>
<!DOCTYPE svg PUBLIC "-//W3C//DTD SVG 20010904//EN"
 "http://www.w3.org/TR/2001/REC-SVG-20010904/DTD/svg10.dtd">
<svg version="1.0" xmlns="http://www.w3.org/2000/svg"
 width="291.000000pt" height="330.000000pt" viewBox="0 0 291.000000 330.000000"
 preserveAspectRatio="xMidYMid meet">
<metadata>
Created by potrace 1.16, written by Peter Selinger 2001-2019
</metadata>
<g transform="translate(0.000000,330.000000) scale(0.100000,-0.100000)"
fill="#000000" stroke="none">
<path d="M13 3273 c-15 -30 -17 -109 -5 -117 5 -3 39 -51 77 -108 38 -57 87
-123 110 -148 23 -25 50 -59 60 -75 10 -17 44 -57 75 -90 31 -33 69 -79 83
-102 14 -23 46 -58 71 -79 24 -20 56 -59 71 -85 18 -33 44 -60 81 -85 30 -20
67 -54 82 -77 15 -22 50 -64 78 -93 36 -37 54 -65 62 -97 9 -32 24 -56 59 -88
91 -83 204 -211 228 -259 14 -27 42 -61 64 -77 22 -16 65 -67 98 -117 32 -49
73 -100 91 -113 17 -14 32 -34 32 -45 0 -10 29 -49 63 -86 35 -37 72 -81 83
-97 18 -29 76 -106 128 -170 52 -66 107 -157 102 -171 -3 -9 -20 -14 -43 -14
-38 0 -211 54 -289 90 -87 40 -164 60 -229 60 -36 0 -82 7 -102 15 -51 21
-345 21 -396 0 -20 -8 -51 -15 -68 -15 l-32 0 -59 -58 -58 -59 0 -182 0 -182
21 -62 c11 -34 32 -76 45 -94 30 -40 84 -152 84 -175 0 -9 27 -48 60 -85 33
-37 66 -82 72 -100 l12 -33 73 0 73 0 0 34 c0 25 -11 47 -40 82 -23 27 -43 60
-47 74 -3 14 -35 83 -70 154 -36 71 -76 161 -89 200 l-24 71 0 111 0 112 18
20 c43 52 221 80 299 47 19 -8 53 -15 75 -15 21 0 55 -7 75 -15 20 -8 66 -15
105 -15 l70 0 65 -30 c35 -17 69 -30 74 -30 6 0 35 -11 65 -25 31 -14 109 -43
176 -65 66 -22 132 -49 147 -59 15 -11 65 -38 110 -61 60 -30 106 -64 171
-125 101 -96 123 -103 171 -56 l29 29 0 56 0 55 -35 27 c-19 14 -73 84 -120
154 -47 71 -98 138 -115 150 -16 12 -30 30 -30 41 0 10 -32 53 -70 95 -42 45
-73 88 -77 106 -3 17 -20 40 -40 55 -19 15 -49 50 -67 77 -18 28 -64 87 -102
131 -38 44 -91 112 -117 151 -26 39 -62 83 -81 97 -21 17 -39 42 -47 69 -10
29 -25 50 -49 66 -56 37 -90 72 -96 100 -4 15 -27 48 -53 73 -25 25 -69 75
-98 110 -29 35 -70 86 -93 112 -22 27 -47 61 -55 77 -8 15 -37 44 -64 64 -68
50 -141 133 -148 168 -4 20 -23 42 -59 70 -52 39 -94 92 -94 119 0 7 -21 34
-47 59 -41 40 -121 139 -131 162 -7 15 28 8 84 -17 31 -14 69 -25 84 -25 19 0
36 -11 59 -40 21 -26 44 -43 70 -50 23 -6 64 -33 100 -65 34 -30 70 -55 80
-55 9 0 30 -13 46 -30 16 -16 36 -30 45 -30 18 0 87 -46 135 -90 17 -15 41
-30 55 -33 14 -4 45 -23 68 -42 23 -20 58 -41 77 -46 21 -6 63 -36 103 -73 37
-35 91 -76 120 -91 29 -15 64 -42 77 -59 13 -17 54 -53 91 -81 36 -27 91 -70
121 -94 31 -24 71 -47 89 -53 20 -5 45 -23 60 -44 15 -19 79 -69 143 -112 64
-42 129 -88 146 -102 16 -14 50 -39 75 -55 24 -17 68 -54 97 -82 29 -30 61
-53 73 -53 11 0 46 -25 79 -58 56 -56 162 -122 195 -122 32 0 76 30 76 51 0
29 -60 96 -137 154 -37 28 -88 71 -113 97 -25 25 -64 56 -88 68 -24 12 -55 38
-69 57 -15 19 -45 44 -67 55 -23 11 -63 38 -91 59 -130 101 -163 126 -203 153
-24 16 -62 46 -85 66 -23 20 -54 40 -69 44 -15 3 -35 18 -45 32 -45 65 -87
104 -122 114 -20 5 -55 25 -77 43 -21 18 -73 55 -114 82 -41 27 -107 78 -147
112 -56 50 -78 63 -104 63 -25 0 -41 9 -73 45 -23 25 -48 45 -56 45 -8 0 -28
13 -45 29 -16 16 -63 46 -103 66 -43 22 -84 51 -99 72 -28 36 -78 66 -129 77
-17 4 -60 31 -95 61 -64 54 -164 115 -190 115 -17 0 -140 80 -186 121 -23 20
-44 29 -67 29 l-33 0 -37 47 c-20 25 -36 50 -36 55 0 4 -46 8 -102 8 l-103 0
-12 -27z"/>
</g>
</svg>
