<?xml version="1.0" standalone="no"?>
<!DOCTYPE svg PUBLIC "-//W3C//DTD SVG 20010904//EN"
 "http://www.w3.org/TR/2001/REC-SVG-20010904/DTD/svg10.dtd">
<svg version="1.0" xmlns="http://www.w3.org/2000/svg"
 width="903.000000pt" height="300.000000pt" viewBox="0 0 903.000000 300.000000"
 preserveAspectRatio="xMidYMid meet">
<metadata>
Created by potrace 1.16, written by Peter Selinger 2001-2019
</metadata>
<g transform="translate(0.000000,300.000000) scale(0.100000,-0.100000)"
fill="#000000" stroke="none">
<path d="M0 2920 l0 -79 33 -17 c17 -9 46 -27 62 -40 17 -12 80 -47 140 -78
61 -30 132 -73 159 -95 26 -23 55 -41 63 -41 19 0 101 -37 136 -62 15 -11 27
-28 27 -38 0 -24 95 -98 144 -111 22 -6 46 -24 62 -45 15 -19 44 -44 64 -54
59 -30 171 -109 222 -156 26 -24 52 -44 59 -44 6 0 126 -113 266 -252 l254
-252 83 -126 c108 -164 134 -209 210 -375 l46 -100 0 -71 c0 -43 6 -87 16
-109 l16 -38 -16 -41 c-11 -28 -16 -75 -16 -142 l0 -101 -30 -39 c-16 -21 -46
-63 -66 -92 -20 -29 -55 -68 -78 -88 -39 -34 -113 -74 -136 -74 -22 0 -109
-50 -124 -72 -9 -12 -16 -37 -16 -55 l0 -33 74 0 c41 0 78 5 81 10 3 6 13 10
21 10 26 0 137 60 169 91 17 16 38 29 47 29 23 0 75 46 105 93 14 22 45 61 68
86 49 53 85 119 85 155 0 14 5 37 12 53 12 29 29 181 30 268 1 83 -17 177 -45
235 -18 36 -27 72 -27 103 l0 49 -64 66 -64 67 5 31 c6 40 -36 125 -76 155
-16 12 -49 48 -72 81 -24 32 -67 77 -96 99 -29 22 -53 44 -53 49 0 5 -28 38
-62 74 -35 35 -73 78 -86 95 -13 17 -47 47 -77 66 -29 20 -72 60 -94 90 -24
31 -50 55 -60 55 -10 0 -45 29 -78 65 -33 36 -77 77 -98 91 -21 14 -59 44 -86
67 -53 46 -50 57 15 57 43 0 197 -69 267 -120 26 -19 54 -30 75 -30 22 0 46
-11 76 -35 53 -43 131 -85 156 -85 29 0 66 34 86 77 l17 39 -40 84 c-23 46
-41 97 -41 112 0 38 40 78 78 78 16 0 46 7 65 15 49 20 264 21 327 1 78 -25
133 -37 195 -45 34 -5 70 -13 82 -19 12 -7 31 -12 43 -12 12 0 74 -17 138 -37
l116 -38 49 -50 c26 -27 63 -72 82 -100 52 -78 140 -152 244 -204 24 -13 62
-36 84 -52 22 -16 47 -29 56 -29 9 0 36 -14 61 -30 25 -16 51 -30 58 -30 8 0
43 -14 79 -30 l64 -30 78 0 c89 0 92 3 135 88 l26 52 -15 55 c-16 53 -29 68
-100 119 -35 24 -19 46 20 28 14 -7 38 -12 53 -12 16 0 66 -13 112 -30 l85
-30 110 0 c67 0 128 -5 155 -14 87 -28 136 -38 210 -45 41 -4 85 -13 97 -19
12 -7 54 -12 93 -12 40 0 86 -6 107 -15 19 -8 60 -15 90 -15 29 0 70 -7 90
-15 l35 -15 568 0 568 0 35 15 c20 8 49 15 64 15 15 0 48 14 73 30 25 16 57
30 72 30 14 0 55 13 90 30 34 16 71 30 82 30 21 0 171 142 192 182 8 15 26 35
40 44 30 20 49 13 112 -40 33 -27 53 -36 80 -36 l35 0 41 -44 c63 -68 349
-256 389 -256 7 0 24 -12 38 -26 13 -14 80 -63 149 -109 69 -47 141 -100 160
-120 19 -19 51 -40 72 -46 25 -6 63 -33 106 -72 70 -66 214 -167 301 -213 29
-15 60 -38 69 -51 45 -65 86 -103 123 -113 24 -7 48 -22 61 -41 12 -16 54 -54
93 -84 38 -30 99 -78 135 -107 118 -97 263 -188 298 -188 l32 0 0 68 0 68 -29
11 c-16 6 -41 29 -54 50 -14 22 -38 50 -54 62 -15 12 -53 40 -83 64 -69 53
-152 108 -210 139 -24 13 -58 44 -75 67 -19 28 -50 54 -88 73 -32 17 -70 46
-84 65 -15 19 -45 44 -67 55 -23 11 -61 37 -86 57 -25 20 -97 72 -161 114 -65
43 -128 93 -143 111 -17 23 -37 36 -61 40 -25 5 -51 22 -83 56 -26 26 -66 57
-88 68 -49 25 -167 104 -210 142 -18 15 -47 30 -66 34 -20 3 -57 26 -87 51
-29 25 -56 45 -60 45 -15 0 -176 112 -216 150 -22 21 -64 50 -93 65 -29 15
-65 43 -79 62 -15 19 -44 43 -66 54 -22 12 -58 34 -80 50 -28 20 -52 29 -80
29 l-40 0 -43 -44 -44 -43 0 -50 c0 -28 7 -67 15 -88 9 -20 13 -46 9 -58 -11
-35 -44 -77 -61 -77 -9 0 -34 -16 -55 -36 -22 -20 -77 -54 -123 -75 l-82 -39
-100 0 c-67 0 -113 -5 -136 -15 l-36 -15 -336 0 -336 0 -36 15 c-27 12 -81 15
-240 15 -158 0 -212 3 -240 15 -19 8 -60 15 -90 15 -29 0 -70 7 -90 15 -19 8
-60 15 -90 15 -29 0 -70 7 -90 15 -19 8 -52 15 -72 15 -20 0 -56 6 -81 14
-102 32 -140 39 -250 45 l-115 6 -40 28 c-22 15 -52 27 -68 27 -15 0 -44 7
-64 15 -19 8 -52 15 -72 15 -20 0 -75 13 -121 30 -62 21 -104 30 -153 30 -37
0 -84 7 -104 15 -19 8 -47 15 -62 15 -14 0 -46 14 -71 30 -25 16 -51 30 -58
30 -8 0 -43 14 -79 30 -51 24 -78 30 -132 30 -49 0 -90 8 -151 30 -47 16 -102
30 -123 30 -21 0 -54 7 -74 15 -19 8 -60 15 -89 15 -29 0 -71 7 -92 15 l-39
16 -214 -4 c-135 -2 -231 -8 -259 -16 -145 -42 -180 -56 -227 -92 l-53 -40 0
-39 c0 -44 -8 -70 -22 -70 -5 0 -26 11 -46 25 -20 14 -43 25 -51 25 -7 0 -53
18 -100 41 -47 22 -121 52 -165 66 -43 14 -110 41 -149 60 -38 19 -104 45
-146 59 -91 29 -172 67 -215 98 -50 38 -173 96 -202 96 -15 0 -48 13 -73 29
-25 16 -59 32 -75 35 -17 4 -42 16 -57 27 l-27 19 -96 0 -96 0 0 -80z"/>
</g>
</svg>
