<?xml version="1.0" standalone="no"?>
<!DOCTYPE svg PUBLIC "-//W3C//DTD SVG 20010904//EN"
 "http://www.w3.org/TR/2001/REC-SVG-20010904/DTD/svg10.dtd">
<svg version="1.0" xmlns="http://www.w3.org/2000/svg"
 width="678.000000pt" height="324.000000pt" viewBox="0 0 678.000000 324.000000"
 preserveAspectRatio="xMidYMid meet">
<metadata>
Created by potrace 1.16, written by Peter Selinger 2001-2019
</metadata>
<g transform="translate(0.000000,324.000000) scale(0.100000,-0.100000)"
fill="#000000" stroke="none">
<path d="M4195 3228 c-11 -6 -27 -14 -35 -18 -8 -4 -24 -22 -35 -41 l-20 -34
-5 -135 -5 -135 -23 -32 c-13 -18 -32 -33 -42 -33 -10 0 -39 -18 -65 -39 -34
-28 -77 -49 -155 -75 l-107 -36 -110 0 c-76 0 -122 -5 -146 -15 -26 -11 -73
-15 -165 -15 -93 0 -140 -4 -165 -15 l-36 -15 -381 0 -381 0 -36 15 c-23 10
-69 15 -135 15 -65 0 -111 5 -135 15 -25 11 -72 15 -165 15 -92 0 -139 4 -165
15 -19 8 -65 15 -101 15 -75 0 -156 24 -275 82 -50 25 -92 38 -118 38 -22 0
-56 7 -76 15 -19 8 -53 15 -75 15 -23 0 -67 13 -105 30 -35 17 -76 30 -90 30
-13 0 -54 14 -90 30 -35 17 -75 30 -89 30 -14 0 -41 7 -61 15 -19 8 -47 15
-62 15 -14 0 -46 14 -71 30 -25 16 -52 30 -60 30 -8 0 -35 14 -60 30 -25 16
-58 30 -75 30 -16 0 -50 14 -75 30 -60 40 -103 40 -158 -1 l-42 -31 0 -57 0
-57 27 -26 c36 -33 55 -42 149 -73 91 -29 117 -41 161 -73 17 -13 47 -27 66
-33 19 -5 63 -34 96 -64 34 -30 70 -55 81 -55 10 0 21 -4 25 -10 17 -27 166
-136 236 -172 49 -25 90 -54 106 -75 15 -19 39 -41 54 -48 15 -8 49 -33 75
-56 26 -22 78 -61 115 -85 38 -25 84 -67 103 -93 20 -26 52 -60 73 -74 34 -23
266 -256 426 -426 l57 -61 0 -37 0 -37 43 -40 c54 -52 98 -109 126 -165 13
-23 42 -67 66 -97 24 -30 51 -75 58 -102 8 -26 29 -77 47 -111 36 -73 80 -196
80 -227 0 -12 7 -39 16 -60 16 -39 15 -96 -4 -209 -18 -110 -120 -238 -257
-323 -22 -14 -57 -38 -77 -54 l-38 -30 0 -34 0 -34 59 0 c33 0 63 5 66 10 3 6
13 10 21 10 8 0 58 21 110 47 71 35 103 57 126 87 17 23 46 57 64 76 18 19 51
62 73 95 l41 60 0 67 c0 63 8 113 32 199 l10 35 -21 35 -21 34 0 88 c0 93 -13
133 -66 204 -28 37 -84 151 -84 171 0 20 -34 83 -95 174 -30 45 -55 90 -55 99
0 22 -54 96 -106 145 -25 23 -44 50 -44 62 0 14 -19 35 -55 63 -30 22 -70 65
-90 94 -24 36 -51 63 -84 80 -26 15 -65 47 -85 71 -21 25 -55 56 -77 69 -21
14 -50 43 -64 65 -16 26 -43 49 -77 66 -75 38 -104 62 -149 121 -22 29 -47 53
-56 53 -8 0 -35 19 -58 43 -23 23 -70 62 -105 87 -74 54 -150 119 -150 131 0
17 40 19 75 4 22 -8 67 -15 107 -15 75 0 114 -13 182 -62 l39 -28 59 0 c32 0
75 -7 95 -15 19 -8 60 -15 90 -15 29 0 70 -7 90 -15 25 -11 72 -15 164 -15 77
0 139 -5 156 -12 15 -7 84 -16 153 -20 152 -10 174 -11 276 -2 62 4 89 2 118
-10 50 -21 139 -20 194 1 l44 17 43 -12 c32 -8 52 -9 75 0 24 8 45 8 85 -2 40
-10 61 -10 85 -1 18 6 84 11 147 11 73 0 122 5 136 12 13 7 80 15 157 19 74 4
155 12 180 19 346 95 529 197 627 349 l34 53 41 -5 c25 -3 54 -17 77 -36 20
-17 61 -48 91 -69 30 -20 75 -58 100 -83 25 -26 57 -49 73 -53 15 -3 57 -35
95 -69 37 -35 101 -85 142 -112 41 -27 105 -77 142 -110 68 -61 141 -119 215
-168 22 -15 59 -52 81 -81 28 -37 50 -55 70 -59 18 -4 61 -35 106 -77 42 -38
80 -70 85 -70 5 0 52 -39 105 -87 52 -49 121 -107 153 -131 119 -87 161 -123
291 -251 74 -72 141 -131 149 -131 29 0 71 -33 99 -78 16 -24 44 -55 64 -67
19 -12 55 -39 78 -59 48 -40 68 -44 112 -21 l30 16 0 41 c0 50 -45 110 -120
160 -27 18 -114 97 -192 174 -79 78 -158 149 -176 158 -18 9 -61 46 -96 82
-34 35 -70 64 -79 64 -10 0 -50 33 -90 73 -67 66 -93 87 -212 172 -24 17 -63
47 -86 68 -51 44 -139 112 -190 146 -19 13 -51 47 -70 75 -27 40 -44 54 -78
65 -26 8 -71 39 -116 80 -41 36 -102 86 -135 111 -34 25 -85 63 -113 85 -29
22 -65 49 -82 59 -16 11 -50 38 -75 61 -25 22 -58 49 -75 60 -16 10 -57 45
-90 76 -35 33 -78 64 -100 71 -28 9 -48 26 -68 56 -16 23 -41 49 -55 56 -15 8
-61 44 -102 80 l-75 66 -45 -1 c-25 0 -54 -5 -65 -11z"/>
</g>
</svg>
