<?xml version="1.0" standalone="no"?>
<!DOCTYPE svg PUBLIC "-//W3C//DTD SVG 20010904//EN"
 "http://www.w3.org/TR/2001/REC-SVG-20010904/DTD/svg10.dtd">
<svg version="1.0" xmlns="http://www.w3.org/2000/svg"
 width="753.000000pt" height="267.000000pt" viewBox="0 0 753.000000 267.000000"
 preserveAspectRatio="xMidYMid meet">
<metadata>
Created by potrace 1.16, written by Peter Selinger 2001-2019
</metadata>
<g transform="translate(0.000000,267.000000) scale(0.100000,-0.100000)"
fill="#000000" stroke="none">
<path d="M293 2644 c-14 -15 -33 -24 -53 -24 -39 0 -183 -72 -204 -102 -9 -12
-16 -37 -16 -55 0 -17 -4 -35 -10 -38 -12 -8 -13 -119 -1 -143 5 -9 17 -37 27
-62 24 -56 56 -95 106 -126 22 -14 48 -41 60 -60 20 -34 142 -124 169 -124 21
0 194 -85 232 -114 18 -14 73 -38 122 -54 77 -25 137 -49 204 -82 8 -3 18 -19
22 -34 4 -15 19 -43 34 -61 28 -38 85 -153 85 -173 0 -26 40 -91 69 -112 17
-11 55 -58 85 -103 60 -92 367 -398 477 -477 35 -25 83 -66 108 -91 26 -26 62
-54 81 -64 19 -9 55 -34 80 -54 25 -20 65 -49 90 -63 25 -14 54 -36 65 -48 11
-12 51 -38 90 -57 38 -20 83 -46 100 -58 16 -13 90 -53 162 -89 l133 -66 48 0
c26 0 53 5 60 12 17 17 15 53 -5 70 -23 20 -98 58 -115 58 -26 0 -117 49 -154
83 -22 19 -68 49 -103 67 -73 37 -160 99 -178 129 -7 10 -38 37 -70 58 -32 21
-78 59 -103 84 -25 25 -66 57 -91 72 -25 14 -58 42 -73 61 -17 23 -40 39 -66
46 -41 11 -70 41 -70 74 0 11 -28 47 -65 82 -35 35 -73 81 -85 104 -11 22 -38
51 -59 64 -37 24 -177 219 -200 279 -22 56 21 80 92 53 24 -9 52 -16 63 -16
11 0 58 -13 104 -30 47 -16 101 -30 120 -30 19 0 55 -6 80 -14 77 -24 133 -37
190 -45 30 -4 71 -12 90 -18 82 -26 130 -36 215 -42 50 -4 100 -12 112 -19 14
-8 76 -12 182 -12 88 0 172 -5 187 -11 16 -5 105 -13 199 -16 111 -4 182 -11
205 -20 48 -19 559 -16 607 4 18 7 64 13 103 13 39 0 81 5 93 12 12 6 48 14
82 19 123 15 251 57 392 127 91 45 122 66 147 98 17 23 46 52 64 64 17 13 55
54 83 91 l51 69 58 0 58 0 58 -43 c33 -24 65 -51 73 -60 7 -9 20 -17 28 -17
26 0 87 -32 135 -71 25 -21 79 -55 120 -75 40 -20 93 -53 118 -74 25 -20 64
-47 86 -58 50 -26 170 -106 204 -137 14 -13 48 -34 75 -48 28 -14 76 -47 109
-74 70 -58 125 -93 147 -93 8 0 26 -12 40 -26 31 -33 273 -196 347 -233 33
-16 85 -52 118 -80 32 -28 89 -67 126 -86 37 -20 91 -57 120 -84 29 -26 67
-55 84 -64 17 -9 58 -39 90 -67 33 -27 88 -65 124 -84 36 -19 92 -58 125 -85
52 -44 84 -63 165 -100 8 -4 22 -22 30 -39 l15 -32 68 0 67 0 0 50 0 50 -39
19 c-21 11 -63 42 -92 69 -30 26 -128 97 -219 157 -91 61 -185 128 -210 151
-25 23 -68 53 -96 67 -28 14 -75 48 -105 75 -30 27 -76 61 -104 76 -56 30
-132 76 -216 130 -30 20 -62 36 -71 36 -9 0 -28 16 -42 35 -15 20 -53 49 -84
66 -85 45 -187 111 -219 140 -15 15 -47 36 -69 47 -23 12 -66 43 -95 70 -30
27 -76 61 -104 75 -27 14 -76 47 -109 74 -70 58 -125 93 -147 93 -8 0 -26 12
-40 26 -13 14 -42 35 -64 46 -22 12 -53 31 -70 43 -16 13 -50 33 -75 45 -25
12 -65 39 -90 60 -48 39 -120 80 -143 80 -7 0 -24 12 -38 26 -13 14 -55 47
-94 72 -38 26 -94 68 -123 94 l-52 48 -53 0 c-65 0 -90 -16 -122 -80 -18 -36
-25 -65 -25 -108 l0 -59 -33 -43 c-17 -24 -43 -59 -57 -79 -14 -19 -51 -49
-82 -66 -31 -16 -67 -40 -80 -51 -46 -41 -73 -54 -116 -54 -24 0 -53 -5 -65
-12 -12 -6 -48 -14 -82 -19 -62 -8 -117 -20 -195 -45 -25 -8 -82 -14 -126 -14
-50 0 -95 -6 -117 -15 -29 -12 -83 -15 -251 -15 -118 0 -226 4 -241 10 -17 7
-39 6 -69 -2 l-44 -12 -44 17 c-24 9 -61 17 -81 17 -21 0 -54 7 -74 15 -24 10
-71 15 -150 15 -78 0 -125 5 -150 15 -20 8 -66 15 -105 15 -38 0 -84 7 -105
15 -24 10 -70 15 -147 15 l-112 0 -84 30 c-47 16 -101 30 -120 30 -19 0 -75
13 -125 29 -120 39 -168 51 -240 61 -76 11 -143 35 -173 63 -65 60 -42 114 35
82 19 -8 45 -15 57 -15 11 0 42 -7 68 -17 l47 -17 43 20 c55 24 134 97 160
147 l19 39 -10 30 c-6 17 -11 43 -11 58 0 18 -15 46 -40 76 -22 27 -45 65 -50
85 -11 40 -25 54 -91 92 -25 14 -58 42 -73 61 -15 21 -40 39 -60 45 -19 5 -68
32 -110 60 -80 54 -148 91 -166 91 -6 0 -36 11 -65 25 -76 34 -260 95 -290 95
-13 0 -27 5 -30 10 -4 6 -76 10 -188 9 l-182 -1 -22 -24z m532 -159 c30 -13
72 -40 93 -60 l39 -35 42 0 c54 0 111 -27 185 -87 32 -26 81 -62 110 -78 28
-17 59 -44 69 -60 61 -98 97 -166 97 -180 0 -64 -77 -76 -151 -24 -24 17 -62
51 -85 75 l-41 44 -41 0 c-32 0 -49 -7 -77 -32 -37 -32 -77 -100 -89 -152 -9
-36 -43 -86 -59 -86 -7 0 -54 20 -105 45 -52 25 -99 45 -105 45 -7 0 -32 14
-57 30 -25 16 -52 30 -60 30 -9 0 -53 25 -98 55 -92 61 -144 89 -183 98 -39
10 -78 54 -115 132 -39 80 -40 93 -16 163 23 63 21 61 80 83 l47 17 233 1 233
1 54 -25z"/>
</g>
</svg>
