<?xml version="1.0" standalone="no"?>
<!DOCTYPE svg PUBLIC "-//W3C//DTD SVG 20010904//EN"
 "http://www.w3.org/TR/2001/REC-SVG-20010904/DTD/svg10.dtd">
<svg version="1.0" xmlns="http://www.w3.org/2000/svg"
 width="540.000000pt" height="276.000000pt" viewBox="0 0 540.000000 276.000000"
 preserveAspectRatio="xMidYMid meet">
<metadata>
Created by potrace 1.16, written by Peter Selinger 2001-2019
</metadata>
<g transform="translate(0.000000,276.000000) scale(0.100000,-0.100000)"
fill="#000000" stroke="none">
<path d="M275 2750 c-3 -5 -13 -10 -21 -10 -28 0 -155 -69 -205 -112 l-49 -41
0 -71 0 -71 41 -48 c43 -50 122 -97 163 -97 14 0 37 -6 53 -12 22 -10 338 -27
508 -27 116 0 620 23 763 34 93 8 112 0 112 -47 0 -61 90 -197 151 -228 21
-11 44 -20 51 -20 7 0 29 -11 49 -24 20 -14 84 -41 143 -60 l106 -36 113 0
c149 1 192 16 275 97 l62 61 0 67 c0 36 5 75 10 86 l11 19 55 0 c30 0 71 -7
91 -15 19 -8 54 -15 77 -15 29 0 54 -9 86 -30 25 -16 58 -30 73 -30 16 0 58
-13 94 -30 35 -16 75 -30 89 -30 14 0 41 -7 61 -15 19 -8 45 -15 57 -15 30 0
127 -34 215 -76 99 -47 183 -74 228 -74 30 0 57 -12 121 -55 106 -70 155 -95
188 -95 31 0 85 -24 138 -62 21 -15 46 -28 56 -28 9 0 29 -13 45 -30 20 -21
38 -30 60 -30 35 0 62 -16 120 -71 22 -21 76 -56 121 -78 72 -36 144 -92 144
-113 0 -4 24 -26 54 -48 30 -22 66 -59 81 -81 16 -22 49 -55 75 -74 26 -19 60
-54 76 -77 16 -24 45 -63 65 -88 65 -82 99 -145 99 -184 0 -20 14 -79 32 -131
l32 -95 -16 -52 c-29 -96 -40 -142 -45 -191 l-5 -48 -74 -77 -74 -76 0 -48 0
-48 40 0 c32 0 53 9 93 38 29 21 62 44 73 50 52 27 144 205 144 276 0 14 4 28
10 31 6 4 10 53 10 115 0 62 -4 111 -10 115 -5 3 -10 19 -10 34 0 16 -7 45
-15 64 -8 20 -15 55 -15 77 0 48 -28 107 -80 170 -21 25 -50 68 -64 97 -14 29
-39 62 -55 74 -16 12 -49 48 -72 81 -24 33 -74 82 -111 110 -39 28 -68 57 -68
67 0 22 -27 46 -60 55 -32 8 -49 22 -85 69 -27 36 -89 77 -117 77 -6 0 -26 13
-43 29 -16 16 -86 57 -155 92 -69 34 -138 72 -155 85 -49 36 -172 94 -200 94
-14 0 -56 18 -93 40 -37 23 -78 43 -92 47 -14 3 -46 18 -71 34 -25 16 -57 29
-70 29 -33 0 -127 33 -218 76 -98 46 -183 74 -227 74 -19 0 -65 14 -101 30
-35 17 -75 30 -89 30 -14 0 -41 7 -61 15 -19 8 -47 15 -62 15 -14 0 -46 14
-71 30 -25 16 -58 30 -73 30 -15 0 -44 7 -64 15 -19 8 -60 15 -90 15 -29 0
-70 7 -90 15 -20 8 -66 15 -105 15 -38 0 -84 7 -105 15 -19 8 -52 15 -72 15
-20 0 -56 6 -81 14 -92 29 -137 36 -168 25 -25 -8 -170 -9 -567 0 -90 2 -366
-17 -388 -27 -17 -7 -75 -12 -142 -12 l-114 0 -11 19 c-5 11 -10 52 -10 92 l0
72 -47 43 c-27 25 -61 56 -76 69 l-28 25 -209 0 c-128 0 -211 -4 -215 -10z
m354 -176 c35 -29 39 -53 14 -82 -25 -28 -101 -46 -136 -33 -16 6 -73 11 -128
11 -137 0 -168 19 -114 70 51 48 91 59 217 60 l116 0 31 -26z m1576 -325 c105
-36 138 -55 168 -99 23 -33 21 -46 -8 -75 l-24 -25 -103 0 -102 0 -96 46
c-108 53 -130 69 -130 95 0 29 38 47 115 55 39 3 79 10 90 15 28 11 24 11 90
-12z"/>
</g>
</svg>
