<?xml version="1.0" standalone="no"?>
<!DOCTYPE svg PUBLIC "-//W3C//DTD SVG 20010904//EN"
 "http://www.w3.org/TR/2001/REC-SVG-20010904/DTD/svg10.dtd">
<svg version="1.0" xmlns="http://www.w3.org/2000/svg"
 width="906.000000pt" height="288.000000pt" viewBox="0 0 906.000000 288.000000"
 preserveAspectRatio="xMidYMid meet">
<metadata>
Created by potrace 1.16, written by Peter Selinger 2001-2019
</metadata>
<g transform="translate(0.000000,288.000000) scale(0.100000,-0.100000)"
fill="#000000" stroke="none">
<path d="M130 2855 c-19 -14 -40 -25 -46 -25 -17 0 -64 -58 -64 -79 0 -9 -5
-22 -10 -27 -6 -6 -10 -44 -8 -89 l3 -79 51 -40 c28 -23 63 -58 78 -79 25 -34
90 -77 116 -77 7 0 35 -20 63 -45 51 -45 153 -105 178 -105 8 0 56 -20 107
-45 52 -25 99 -45 105 -45 7 0 41 -14 75 -30 35 -17 74 -30 86 -30 36 0 128
-36 201 -80 39 -22 77 -44 85 -49 20 -11 64 -79 138 -214 26 -48 29 -113 6
-145 -28 -41 -94 -62 -191 -62 -56 0 -93 -4 -101 -12 -23 -23 -13 -55 28 -92
l40 -36 96 0 c103 0 135 10 189 60 17 16 39 30 50 32 26 4 61 58 81 126 l16
57 -12 55 c-6 30 -16 74 -22 97 -8 33 -8 47 2 58 17 21 24 20 160 -25 67 -22
136 -40 153 -40 18 0 52 -6 77 -14 78 -25 133 -37 195 -45 34 -5 70 -13 82
-19 12 -7 40 -12 63 -12 22 0 57 -7 77 -15 19 -8 53 -15 75 -15 21 0 55 -7 75
-15 20 -8 66 -15 105 -15 38 0 84 -7 105 -15 28 -12 84 -15 270 -15 185 0 241
-3 270 -15 51 -22 286 -21 338 1 l38 16 41 -16 c53 -20 172 -21 219 -1 20 8
53 15 74 15 45 0 169 42 200 67 12 10 58 46 102 81 l81 63 0 32 c0 50 14 57
108 57 l84 0 65 -30 c37 -17 81 -30 104 -30 22 0 56 -7 76 -15 27 -12 79 -15
225 -15 145 0 197 -3 225 -15 19 -8 45 -15 57 -15 11 0 42 -7 67 -17 l47 -16
41 16 c26 11 70 17 122 17 79 0 162 20 233 57 57 30 146 95 157 115 10 18 8
119 -3 183 -2 15 2 19 17 17 11 -2 56 -7 100 -11 44 -4 90 -13 102 -19 12 -7
46 -12 75 -12 29 0 73 -6 98 -14 76 -24 133 -37 190 -45 53 -7 218 -58 270
-84 14 -6 43 -24 64 -39 27 -20 51 -28 80 -28 47 0 147 -32 186 -60 15 -10 81
-37 149 -59 67 -23 135 -50 150 -61 53 -37 231 -120 259 -120 17 0 59 -21 110
-55 98 -65 145 -90 189 -99 17 -4 51 -24 75 -45 24 -21 68 -51 98 -66 102 -51
222 -139 314 -229 50 -50 107 -102 128 -116 65 -45 196 -176 217 -218 11 -23
36 -53 55 -67 42 -32 66 -80 66 -133 0 -22 7 -56 15 -75 22 -54 20 -208 -4
-277 l-19 -55 -54 -35 -53 -35 -3 -53 -3 -52 59 0 59 0 14 27 c16 31 85 83
109 83 9 0 28 13 43 28 l27 28 0 210 c0 116 -4 214 -8 219 -5 6 -17 37 -27 70
-11 33 -34 77 -52 97 -18 20 -41 55 -53 77 -12 25 -39 53 -69 72 -27 18 -62
52 -77 76 -15 24 -48 58 -73 75 -57 38 -148 119 -248 221 -42 42 -83 77 -93
77 -9 0 -27 12 -41 26 -13 14 -42 35 -64 46 -22 12 -54 32 -72 45 -17 13 -47
28 -65 34 -19 5 -53 25 -75 44 -23 20 -102 65 -175 102 -73 37 -151 79 -172
95 -21 15 -45 28 -53 28 -8 0 -44 13 -80 30 -35 16 -69 30 -75 30 -6 0 -50 18
-97 41 -47 22 -120 52 -161 65 -41 13 -99 36 -128 49 -29 14 -58 25 -65 25 -6
0 -41 14 -75 30 -35 17 -75 30 -89 30 -13 0 -48 11 -78 25 -89 40 -353 125
-391 125 -19 0 -51 7 -71 15 -20 8 -66 15 -105 15 -38 0 -84 7 -105 15 -19 8
-53 15 -75 15 -21 0 -55 7 -75 15 -20 8 -66 15 -105 15 -38 0 -84 7 -105 15
-20 8 -66 15 -105 15 -38 0 -84 7 -105 15 -20 8 -66 15 -104 15 -37 0 -80 5
-94 10 -32 12 -117 -10 -167 -43 -26 -18 -34 -31 -36 -61 -4 -50 17 -80 78
-111 39 -20 64 -25 120 -25 40 0 86 -6 107 -15 19 -8 47 -15 61 -15 33 0 152
-58 159 -78 4 -9 -7 -27 -30 -49 l-37 -33 -355 0 -356 0 -36 15 c-19 8 -53 15
-75 15 -21 0 -55 7 -75 15 -19 8 -47 15 -60 15 -14 0 -54 14 -90 30 -35 17
-81 30 -100 30 -65 0 -161 39 -190 77 -32 42 -90 73 -136 73 -50 0 -83 -31
-101 -94 l-16 -54 25 -54 c29 -62 34 -151 10 -185 -14 -21 -86 -49 -160 -64
-50 -10 -115 -26 -182 -47 l-53 -16 -54 18 -55 19 -40 -17 c-57 -22 -334 -23
-388 -1 -26 11 -74 15 -180 15 -105 0 -153 4 -180 15 -20 8 -66 15 -105 15
-38 0 -84 7 -105 15 -23 10 -69 15 -135 15 -65 0 -111 5 -135 15 -19 8 -53 15
-75 15 -21 0 -55 7 -75 15 -19 8 -48 15 -62 15 -17 0 -38 11 -56 30 l-29 30
-58 0 c-32 0 -75 7 -95 15 -19 8 -60 15 -90 15 -29 0 -70 7 -90 15 -19 8 -45
15 -57 15 -45 0 -212 67 -235 93 l-12 15 16 39 c9 21 25 65 36 97 l21 60 -21
64 c-41 124 -76 170 -161 212 -25 13 -58 33 -75 45 -35 26 -169 95 -186 95 -6
0 -40 14 -76 30 -35 17 -69 30 -75 30 -5 0 -39 14 -75 30 -37 17 -81 30 -104
30 -22 0 -56 7 -76 15 -19 8 -62 15 -94 15 -32 0 -61 5 -64 10 -4 6 -57 10
-128 10 l-122 -1 -35 -24z m257 -150 c20 -8 66 -15 105 -15 38 0 84 -7 105
-15 19 -8 54 -15 77 -15 28 0 54 -8 79 -25 47 -33 224 -120 258 -128 39 -10
179 -137 179 -164 0 -21 -24 -53 -40 -53 -5 0 -28 16 -52 35 -24 19 -60 44
-82 56 l-39 21 -37 -17 c-51 -23 -98 -73 -102 -110 l-3 -30 -25 1 c-59 4 -129
22 -156 41 -16 11 -76 44 -134 73 -110 55 -157 87 -227 155 -23 22 -56 52 -73
67 -38 34 -41 78 -5 113 l24 25 56 0 c31 0 72 -7 92 -15z"/>
</g>
</svg>
