<?xml version="1.0" standalone="no"?>
<!DOCTYPE svg PUBLIC "-//W3C//DTD SVG 20010904//EN"
 "http://www.w3.org/TR/2001/REC-SVG-20010904/DTD/svg10.dtd">
<svg version="1.0" xmlns="http://www.w3.org/2000/svg"
 width="540.000000pt" height="336.000000pt" viewBox="0 0 540.000000 336.000000"
 preserveAspectRatio="xMidYMid meet">
<metadata>
Created by potrace 1.16, written by Peter Selinger 2001-2019
</metadata>
<g transform="translate(0.000000,336.000000) scale(0.100000,-0.100000)"
fill="#000000" stroke="none">
<path d="M1756 3307 c-75 -71 -75 -91 2 -169 l59 -58 89 0 c152 0 234 -42 206
-105 l-12 -25 -55 0 c-31 0 -72 7 -92 15 -20 8 -66 15 -105 15 -38 0 -84 7
-105 15 -19 8 -53 15 -75 15 -21 0 -55 7 -75 15 -19 8 -53 15 -75 15 -21 0
-55 7 -75 15 -22 9 -67 15 -117 15 -44 0 -101 6 -126 14 -78 25 -133 37 -195
45 -34 5 -70 13 -82 19 -12 7 -32 12 -45 12 -13 0 -62 13 -108 30 -68 24 -102
30 -168 30 -50 0 -97 6 -119 15 -19 8 -53 15 -75 15 -21 0 -55 7 -75 15 -19 8
-53 15 -75 15 -21 0 -55 7 -75 15 -19 8 -51 15 -71 15 l-35 0 -39 -42 -38 -41
0 -47 c0 -37 5 -51 25 -70 36 -33 120 -59 195 -60 89 0 193 -35 274 -92 21
-16 46 -28 55 -28 33 0 58 -30 80 -93 22 -67 21 -83 -11 -129 l-19 -28 -78 0
-78 0 -27 -21 c-31 -25 -33 -56 -6 -109 20 -40 54 -70 78 -70 25 0 86 -32 132
-69 25 -20 58 -45 74 -55 16 -10 48 -36 72 -58 23 -21 61 -51 84 -67 23 -15
85 -70 138 -122 53 -52 116 -107 140 -123 45 -31 242 -230 242 -245 0 -17 53
-72 91 -97 21 -13 58 -55 86 -96 61 -92 112 -160 185 -245 32 -37 65 -88 74
-113 8 -25 40 -97 70 -160 85 -181 94 -215 94 -358 0 -93 4 -137 17 -173 l18
-49 -18 -49 c-9 -27 -17 -73 -17 -103 0 -61 -9 -77 -87 -160 l-54 -58 22 -40
23 -40 48 0 c26 0 48 4 48 9 0 5 21 32 46 60 81 91 124 161 124 206 0 23 13
79 30 125 34 98 40 203 15 263 -8 20 -15 61 -15 90 0 30 -7 71 -15 90 -8 20
-15 59 -15 87 0 60 -32 163 -65 205 -12 17 -46 78 -75 135 -28 58 -69 123 -90
145 -21 22 -51 58 -67 81 -62 90 -101 139 -158 203 -33 36 -70 80 -82 97 -12
17 -38 42 -57 55 -19 13 -47 43 -62 66 -29 47 -116 133 -134 133 -6 0 -70 58
-143 129 -81 79 -151 138 -182 154 -28 13 -79 50 -115 81 -36 30 -82 69 -102
87 -43 36 -46 50 -19 88 35 48 61 145 61 223 l0 73 -25 37 c-37 55 -34 68 19
68 25 0 57 -5 73 -11 32 -13 80 -23 209 -43 50 -7 100 -19 112 -25 11 -6 53
-11 92 -11 40 0 86 -6 107 -15 19 -8 59 -15 87 -15 28 0 71 -6 96 -14 78 -25
133 -37 195 -45 34 -5 70 -13 82 -19 13 -8 74 -12 160 -12 l138 0 40 23 c51
29 85 87 85 149 0 35 6 54 24 75 l24 28 114 -3 c114 -3 177 -17 274 -62 76
-35 254 -90 292 -90 24 0 52 -10 82 -30 25 -16 52 -30 60 -30 8 0 57 -20 108
-45 52 -25 105 -45 119 -45 30 0 141 -50 186 -84 48 -36 113 -66 142 -66 43 0
107 -35 173 -94 35 -31 71 -56 80 -56 10 0 55 -25 101 -56 46 -30 120 -74 164
-97 58 -30 89 -54 111 -84 17 -24 51 -56 76 -72 62 -41 293 -274 336 -338 19
-29 55 -69 79 -89 24 -20 55 -59 70 -85 14 -27 39 -58 55 -71 68 -54 127 -153
171 -288 15 -47 39 -110 53 -140 l26 -55 0 -109 c0 -143 -23 -216 -92 -291
-66 -72 -62 -115 9 -115 75 0 152 70 203 185 13 28 27 58 31 67 12 25 11 255
-1 263 -5 3 -10 18 -10 33 0 15 -14 65 -30 112 -17 46 -30 94 -30 107 0 26
-90 211 -125 258 -12 17 -34 53 -48 80 -18 36 -100 125 -284 308 -142 141
-264 257 -270 257 -5 0 -47 33 -91 73 -45 39 -109 92 -142 117 -34 25 -85 63
-114 85 -115 89 -192 135 -246 148 -14 4 -43 22 -65 40 -41 35 -115 77 -136
77 -7 0 -64 25 -127 55 -63 31 -170 74 -236 96 -133 43 -157 53 -201 85 -31
23 -141 64 -171 64 -10 0 -118 34 -241 75 -123 41 -239 75 -258 75 -19 0 -53
7 -75 16 l-41 16 -42 -11 -42 -12 -78 25 c-43 15 -86 26 -95 26 -10 0 -56 13
-102 30 -47 16 -97 30 -112 30 -15 0 -30 5 -33 10 -3 6 -35 10 -70 10 l-63 0
-56 -53z"/>
</g>
</svg>
