<?xml version="1.0" standalone="no"?>
<!DOCTYPE svg PUBLIC "-//W3C//DTD SVG 20010904//EN"
 "http://www.w3.org/TR/2001/REC-SVG-20010904/DTD/svg10.dtd">
<svg version="1.0" xmlns="http://www.w3.org/2000/svg"
 width="558.000000pt" height="270.000000pt" viewBox="0 0 558.000000 270.000000"
 preserveAspectRatio="xMidYMid meet">
<metadata>
Created by potrace 1.16, written by Peter Selinger 2001-2019
</metadata>
<g transform="translate(0.000000,270.000000) scale(0.100000,-0.100000)"
fill="#000000" stroke="none">
<path d="M1520 2640 c-17 -34 -30 -75 -30 -96 l0 -37 100 -100 c123 -122 200
-235 200 -290 0 -85 -52 -127 -158 -127 -39 0 -85 -7 -105 -15 -20 -8 -52 -15
-72 -15 -20 0 -52 7 -72 15 -25 11 -72 15 -162 15 l-127 0 -84 30 c-47 16
-101 30 -120 30 -20 0 -74 13 -120 30 -47 16 -101 30 -120 30 -35 0 -245 66
-298 94 -61 32 -299 104 -325 99 l-27 -5 0 -47 1 -46 42 -26 c66 -41 75 -45
218 -92 74 -25 154 -54 177 -66 23 -11 52 -21 65 -21 12 0 61 -13 107 -30 53
-18 105 -30 138 -30 29 0 69 -7 89 -15 19 -8 45 -15 57 -15 12 0 60 -13 106
-30 68 -24 102 -30 168 -30 50 0 97 -6 119 -15 24 -10 69 -15 138 -15 l103 0
64 30 c34 16 73 30 86 30 49 0 223 71 265 108 l17 15 0 97 0 98 -40 48 c-22
27 -44 63 -49 81 -5 17 -32 59 -61 94 -62 75 -56 90 25 55 32 -15 63 -26 70
-26 26 0 136 -63 153 -88 11 -15 31 -66 46 -113 l28 -87 113 -108 c201 -194
273 -234 418 -234 80 0 89 5 121 67 20 40 20 80 1 126 -8 20 -15 51 -15 68 l0
33 -74 70 c-41 39 -93 86 -115 105 -23 18 -41 39 -41 46 0 21 29 26 67 10 19
-8 53 -15 75 -15 21 0 55 -7 75 -15 19 -8 45 -15 57 -15 12 0 60 -13 106 -30
55 -19 105 -30 141 -30 44 0 72 -8 140 -41 46 -22 122 -53 169 -68 47 -16 104
-38 127 -50 23 -11 49 -21 56 -21 8 0 68 -26 133 -58 66 -32 130 -62 144 -65
14 -3 43 -22 65 -40 22 -19 60 -44 85 -57 25 -12 59 -33 77 -46 20 -15 45 -24
69 -24 41 0 85 -23 157 -82 26 -22 63 -44 82 -49 19 -5 58 -31 87 -57 29 -27
87 -70 128 -97 41 -27 95 -68 120 -90 25 -22 64 -53 87 -69 23 -15 61 -52 83
-82 22 -30 48 -54 56 -54 29 0 71 -32 102 -79 16 -26 50 -59 74 -75 59 -37
227 -285 228 -337 0 -9 13 -34 28 -55 37 -52 62 -107 62 -137 0 -13 7 -41 15
-60 8 -20 15 -52 15 -72 0 -20 -7 -52 -15 -72 -8 -19 -15 -47 -15 -60 0 -36
-26 -73 -76 -111 -48 -35 -53 -55 -29 -102 l16 -30 53 0 54 0 26 34 c49 65 96
171 96 220 0 24 5 48 10 51 6 3 10 48 10 100 0 52 -4 97 -10 100 -5 3 -10 17
-10 30 0 34 -66 227 -101 298 -17 32 -49 83 -72 114 -65 85 -214 238 -262 268
-23 15 -55 48 -71 73 -16 24 -46 56 -68 69 -22 14 -70 54 -107 89 -38 35 -76
64 -86 64 -11 0 -35 20 -56 44 -41 49 -323 244 -374 258 -18 5 -56 30 -85 57
-60 55 -125 91 -163 91 -33 0 -86 22 -127 53 -40 30 -172 97 -192 97 -7 0 -82
34 -165 75 -84 41 -164 75 -178 75 -15 0 -56 13 -92 29 -206 89 -298 121 -356
121 -27 0 -70 6 -95 14 -60 19 -125 35 -182 46 -26 5 -56 13 -67 19 -11 6 -45
11 -76 11 -30 0 -72 7 -92 15 -19 8 -48 15 -63 15 -15 0 -44 -7 -63 -15 -20
-8 -66 -15 -104 -15 l-68 0 -45 30 c-25 17 -58 30 -75 30 -16 0 -59 14 -93 30
-35 17 -69 30 -75 30 -9 0 -128 50 -169 71 -10 5 -56 9 -103 9 l-85 0 -30 -60z
m949 -491 c36 -32 70 -59 75 -59 17 0 46 -33 46 -52 0 -24 -29 -23 -77 2 -51
26 -178 154 -168 170 13 21 57 0 124 -61z"/>
</g>
</svg>
