<?xml version="1.0" standalone="no"?>
<!DOCTYPE svg PUBLIC "-//W3C//DTD SVG 20010904//EN"
 "http://www.w3.org/TR/2001/REC-SVG-20010904/DTD/svg10.dtd">
<svg version="1.0" xmlns="http://www.w3.org/2000/svg"
 width="531.000000pt" height="273.000000pt" viewBox="0 0 531.000000 273.000000"
 preserveAspectRatio="xMidYMid meet">
<metadata>
Created by potrace 1.16, written by Peter Selinger 2001-2019
</metadata>
<g transform="translate(0.000000,273.000000) scale(0.100000,-0.100000)"
fill="#000000" stroke="none">
<path d="M23 2700 c-13 -15 -23 -36 -23 -47 0 -20 108 -121 157 -146 45 -24
194 -68 293 -87 25 -5 69 -20 97 -34 29 -14 63 -26 75 -26 13 0 43 -6 68 -14
103 -33 142 -39 270 -45 77 -4 144 -12 157 -19 34 -19 429 -17 476 3 20 8 49
15 64 15 25 0 84 28 150 70 l22 14 73 -33 c40 -18 91 -40 113 -47 54 -20 85
-35 120 -60 17 -12 77 -46 133 -75 57 -29 111 -63 120 -76 l15 -24 -45 -47
c-65 -67 -88 -118 -88 -194 l0 -63 30 -45 c19 -28 30 -58 30 -79 l0 -35 43
-40 c24 -23 62 -66 86 -97 23 -31 59 -69 81 -84 22 -15 57 -50 78 -79 l39 -51
156 -77 c86 -43 169 -78 184 -78 15 0 48 -14 73 -30 25 -16 56 -30 70 -30 14
0 45 -6 70 -14 143 -45 192 -52 240 -32 22 9 55 16 72 16 25 0 43 12 90 58
l58 59 0 97 c0 106 -14 149 -64 195 -14 14 -26 33 -26 43 0 25 -67 97 -99 105
-14 3 -54 37 -89 74 -43 47 -75 72 -99 78 -38 11 -103 66 -103 88 0 26 71 14
155 -26 105 -51 195 -81 240 -81 24 0 58 -13 103 -40 37 -23 78 -43 92 -47 14
-3 46 -18 71 -34 25 -16 58 -29 73 -29 26 0 99 -38 217 -114 30 -20 62 -36 71
-36 8 0 34 -15 58 -32 95 -72 137 -100 191 -128 31 -16 80 -51 110 -77 30 -27
72 -59 93 -72 43 -24 165 -150 209 -214 15 -23 47 -59 70 -82 41 -39 138 -177
171 -243 38 -74 66 -178 66 -242 0 -80 -20 -127 -84 -196 -62 -69 -59 -94 9
-94 13 0 27 -4 30 -10 3 -5 21 -10 38 -10 l33 0 33 55 c18 30 39 70 45 90 7
19 15 38 19 41 12 12 8 342 -3 349 -6 4 -39 64 -74 134 -47 93 -74 135 -100
155 -20 15 -47 49 -61 75 -15 31 -43 62 -73 85 -27 19 -62 54 -77 76 -15 22
-49 56 -74 75 -25 18 -66 54 -91 79 -27 29 -59 50 -82 57 -23 6 -47 22 -60 40
-31 42 -98 90 -193 138 -44 22 -102 58 -129 80 -32 28 -58 41 -78 41 -28 0
-98 37 -219 114 -30 20 -66 36 -80 36 -32 0 -136 37 -169 60 -61 43 -171 90
-211 90 -45 0 -94 20 -153 62 -21 15 -51 28 -65 28 -15 0 -65 13 -111 30 -47
16 -101 30 -120 30 -19 0 -55 6 -80 14 -82 26 -146 37 -186 31 -27 -3 -49 0
-70 13 -109 61 -146 84 -230 139 -101 67 -166 103 -186 103 -8 0 -52 25 -98
57 -47 31 -132 80 -191 109 -63 32 -129 74 -165 106 -33 30 -74 60 -91 67
l-31 13 -39 -21 c-59 -30 -103 -84 -103 -127 0 -51 -36 -84 -92 -84 -23 0 -61
-7 -84 -16 l-41 -16 -38 16 c-27 12 -72 16 -167 16 -92 0 -139 4 -165 15 -23
10 -69 15 -131 15 l-95 0 -151 50 c-83 28 -175 62 -204 75 -29 14 -69 25 -90
25 -65 0 -214 58 -235 91 -18 29 -67 24 -94 -11z m2700 -818 c34 -16 74 -32
89 -35 14 -4 50 -29 80 -56 54 -49 111 -83 160 -95 14 -3 50 -28 80 -54 29
-26 66 -56 82 -66 87 -55 277 -257 296 -316 l13 -39 -19 -32 c-24 -41 -59 -51
-149 -43 -83 7 -172 34 -278 86 -43 21 -83 38 -90 38 -20 0 -238 148 -285 193
-60 59 -187 253 -212 326 -33 93 -10 120 103 121 55 0 81 -6 130 -28z"/>
</g>
</svg>
