<?xml version="1.0" standalone="no"?>
<!DOCTYPE svg PUBLIC "-//W3C//DTD SVG 20010904//EN"
 "http://www.w3.org/TR/2001/REC-SVG-20010904/DTD/svg10.dtd">
<svg version="1.0" xmlns="http://www.w3.org/2000/svg"
 width="537.000000pt" height="276.000000pt" viewBox="0 0 537.000000 276.000000"
 preserveAspectRatio="xMidYMid meet">
<metadata>
Created by potrace 1.16, written by Peter Selinger 2001-2019
</metadata>
<g transform="translate(0.000000,276.000000) scale(0.100000,-0.100000)"
fill="#000000" stroke="none">
<path d="M2075 2750 c-3 -5 -24 -10 -46 -10 -50 0 -154 -34 -194 -64 -36 -27
-98 -56 -117 -56 -17 0 -121 -77 -184 -136 l-44 -41 0 -114 0 -114 38 -57 c89
-130 288 -308 346 -308 7 0 24 -8 37 -19 l23 -19 -13 -16 -13 -16 -155 0
c-114 0 -163 4 -190 15 -19 8 -51 15 -71 15 -19 0 -116 27 -214 60 -125 42
-193 60 -229 60 -35 0 -70 9 -116 30 -35 17 -70 30 -76 30 -7 0 -29 11 -49 25
-21 14 -74 37 -119 52 -45 14 -117 43 -161 64 -43 22 -84 39 -90 39 -28 0
-219 103 -235 127 -10 14 -30 39 -45 54 l-26 29 -66 0 -66 0 0 -69 0 -70 39
-23 c21 -13 62 -36 91 -53 29 -16 77 -47 109 -67 31 -21 62 -38 69 -38 21 0
139 -57 175 -84 55 -41 115 -66 159 -66 30 0 71 -14 136 -45 52 -25 99 -45
105 -45 7 0 41 -14 75 -30 35 -17 80 -30 100 -30 20 0 96 -20 169 -45 73 -25
141 -45 151 -45 10 0 56 -13 102 -30 l85 -30 278 0 278 0 57 19 c31 11 96 38
143 60 l86 41 70 0 c40 0 86 7 106 15 48 20 156 19 207 -1 l41 -17 65 22 c36
12 82 33 102 46 42 29 68 31 119 10 19 -8 60 -15 90 -15 29 0 70 -7 90 -15 19
-8 45 -15 57 -15 34 0 131 -36 245 -91 57 -28 136 -61 175 -74 63 -20 94 -36
217 -110 109 -65 146 -85 160 -85 8 0 26 -12 40 -26 13 -14 56 -47 94 -72 39
-26 90 -65 115 -88 25 -23 68 -53 97 -68 100 -50 354 -308 455 -462 36 -55 85
-122 108 -150 49 -55 90 -136 90 -176 0 -14 13 -55 30 -90 34 -72 36 -92 14
-149 l-17 -40 13 -40 13 -39 64 0 c47 0 63 4 63 14 0 7 9 25 20 39 l20 25 0
120 c0 70 -4 123 -10 127 -5 3 -10 14 -10 23 0 9 -14 37 -30 62 -17 26 -30 58
-30 76 0 21 -14 49 -48 92 -26 33 -67 88 -92 122 -25 33 -69 89 -99 123 -29
34 -64 83 -77 109 -13 25 -38 57 -56 69 -36 26 -156 131 -202 177 -15 16 -48
49 -71 73 -61 63 -152 130 -190 140 -17 5 -50 25 -73 45 -23 20 -57 40 -76 45
-19 5 -62 34 -95 64 -34 30 -69 55 -78 55 -22 0 -199 86 -237 115 -17 13 -67
35 -111 49 -93 30 -116 41 -169 78 -21 16 -51 28 -65 28 -14 0 -46 6 -71 14
-87 28 -136 38 -210 45 -41 4 -84 12 -95 18 -11 6 -39 13 -62 16 -23 3 -56 15
-73 27 l-30 21 0 70 c0 87 -22 152 -104 318 l-64 126 -80 78 c-44 42 -88 77
-98 77 -11 0 -39 14 -64 30 -25 16 -53 30 -62 30 -9 0 -20 5 -23 10 -4 6 -88
10 -220 10 -132 0 -216 -4 -220 -10z m370 -141 c129 -44 225 -108 242 -161 7
-21 32 -62 56 -91 57 -70 97 -186 97 -281 l0 -67 -25 -24 c-49 -50 -100 -28
-230 102 -74 74 -118 103 -158 103 -35 0 -85 -60 -126 -150 -18 -41 -37 -82
-41 -90 -5 -11 -27 -16 -79 -18 -84 -3 -106 5 -231 90 -47 32 -91 58 -99 58
-7 0 -33 19 -56 43 -23 23 -56 52 -73 65 -17 12 -38 42 -47 67 l-17 44 21 34
c11 19 58 70 103 113 l83 80 111 37 c61 20 127 37 146 37 20 0 51 7 69 15 52
22 182 19 254 -6z"/>
</g>
</svg>
