<?xml version="1.0" standalone="no"?>
<!DOCTYPE svg PUBLIC "-//W3C//DTD SVG 20010904//EN"
 "http://www.w3.org/TR/2001/REC-SVG-20010904/DTD/svg10.dtd">
<svg version="1.0" xmlns="http://www.w3.org/2000/svg"
 width="699.000000pt" height="222.000000pt" viewBox="0 0 699.000000 222.000000"
 preserveAspectRatio="xMidYMid meet">
<metadata>
Created by potrace 1.16, written by Peter Selinger 2001-2019
</metadata>
<g transform="translate(0.000000,222.000000) scale(0.100000,-0.100000)"
fill="#000000" stroke="none">
<path d="M4206 2198 c-13 -50 -5 -65 65 -133 l70 -68 99 6 c77 4 102 2 110 -9
17 -20 3 -34 -33 -34 -18 -1 -43 -7 -57 -15 -14 -8 -37 -14 -51 -15 -15 0 -44
-7 -64 -16 -42 -17 -208 -15 -355 5 -41 5 -157 10 -258 10 -139 1 -191 5 -219
16 -23 10 -69 15 -135 15 -65 0 -111 5 -135 15 -27 11 -77 15 -210 15 -132 0
-182 4 -210 15 -24 10 -71 15 -149 15 -68 0 -124 5 -141 12 -24 11 -225 20
-613 28 -19 1 -71 -2 -116 -6 -62 -4 -89 -2 -118 10 -29 12 -73 16 -183 16
-105 0 -153 4 -180 15 -23 10 -69 15 -135 15 -65 0 -111 5 -135 15 -26 11 -74
15 -180 15 -105 0 -153 4 -180 15 -24 10 -71 15 -150 15 -78 0 -125 5 -150 15
-27 11 -78 15 -214 15 l-179 0 0 -126 0 -127 49 -47 c31 -30 53 -61 60 -86 7
-26 33 -61 80 -109 38 -38 82 -88 98 -111 68 -98 102 -141 168 -211 39 -41 78
-79 88 -84 27 -15 67 30 67 76 0 51 -63 171 -119 225 -75 73 -211 290 -211
338 0 7 11 24 25 37 l24 25 191 0 c147 0 199 -3 227 -15 25 -11 72 -15 165
-15 92 0 139 -4 165 -15 25 -11 72 -15 165 -15 92 0 139 -4 165 -15 25 -11 72
-15 165 -15 92 0 139 -4 165 -15 47 -20 104 -19 164 2 l49 18 49 -18 49 -17
231 0 c183 0 239 -3 268 -15 24 -10 71 -15 150 -15 78 0 125 -5 150 -15 23
-10 69 -15 135 -15 65 0 111 -5 135 -15 27 -12 81 -15 240 -15 158 0 212 -3
240 -15 l35 -15 364 0 c254 0 377 -4 409 -12 30 -8 50 -9 59 -3 7 6 32 25 56
43 l43 32 90 0 91 0 84 56 85 56 37 -11 c20 -6 53 -11 72 -11 37 0 124 -28
206 -66 29 -13 58 -24 66 -24 7 0 23 -12 37 -26 31 -34 91 -64 126 -64 30 0
56 -15 111 -62 18 -15 40 -28 49 -28 9 0 37 -13 62 -29 25 -16 61 -32 80 -36
21 -5 50 -25 80 -55 25 -26 66 -58 90 -70 24 -12 62 -35 84 -51 22 -16 47 -29
56 -29 9 0 34 -20 54 -45 21 -25 59 -59 85 -76 27 -17 59 -46 71 -65 13 -19
45 -50 71 -69 26 -19 60 -54 76 -77 16 -24 50 -67 77 -97 26 -30 59 -76 73
-103 13 -26 53 -91 89 -143 35 -53 67 -110 70 -128 4 -17 16 -49 27 -70 35
-70 68 -181 68 -231 0 -54 -33 -116 -90 -171 -21 -21 -30 -38 -30 -62 l0 -33
73 0 72 1 30 41 c17 22 38 55 49 72 10 17 27 43 37 58 15 22 19 46 19 117 0
49 -4 93 -10 96 -5 3 -10 19 -10 35 0 15 -13 57 -30 92 -16 34 -30 77 -30 94
0 18 -12 47 -29 71 -16 22 -39 59 -51 82 -25 50 -132 210 -181 272 -19 24 -42
55 -51 69 -8 14 -36 38 -60 54 -24 15 -59 49 -76 76 -17 26 -46 59 -63 72 -18
12 -53 44 -78 69 -25 26 -64 56 -86 68 -51 26 -63 37 -103 87 -22 29 -42 44
-66 48 -18 4 -54 24 -79 46 -25 22 -51 40 -59 40 -8 0 -25 12 -39 26 -32 34
-91 64 -127 64 -21 0 -37 10 -61 40 -17 22 -44 43 -59 46 -15 4 -48 19 -73 35
-25 16 -60 29 -77 29 -20 0 -45 12 -74 35 -60 48 -104 71 -195 100 -43 14 -96
34 -119 44 -98 46 -346 121 -399 121 -29 0 -57 5 -60 10 -4 6 -88 10 -219 10
l-214 0 -6 -22z"/>
</g>
</svg>
