<?xml version="1.0" standalone="no"?>
<!DOCTYPE svg PUBLIC "-//W3C//DTD SVG 20010904//EN"
 "http://www.w3.org/TR/2001/REC-SVG-20010904/DTD/svg10.dtd">
<svg version="1.0" xmlns="http://www.w3.org/2000/svg"
 width="435.000000pt" height="243.000000pt" viewBox="0 0 435.000000 243.000000"
 preserveAspectRatio="xMidYMid meet">
<metadata>
Created by potrace 1.16, written by Peter Selinger 2001-2019
</metadata>
<g transform="translate(0.000000,243.000000) scale(0.100000,-0.100000)"
fill="#000000" stroke="none">
<path d="M600 2389 l-14 -41 15 -27 c8 -14 42 -42 76 -61 33 -19 84 -48 113
-65 29 -16 75 -45 103 -64 27 -18 65 -38 83 -43 19 -5 42 -21 51 -35 10 -15
38 -46 63 -70 86 -83 105 -102 139 -143 18 -22 45 -43 60 -47 35 -8 51 -22 51
-44 0 -11 29 -40 75 -75 42 -32 75 -64 75 -74 0 -17 66 -108 138 -190 59 -67
150 -207 157 -242 4 -17 27 -72 51 -122 l44 -90 0 -67 c0 -99 -25 -117 -100
-70 -106 65 -139 82 -171 91 -19 5 -68 26 -108 45 -40 20 -134 56 -209 81
l-137 46 -230 9 c-275 11 -261 11 -455 1 -85 -4 -168 -13 -183 -20 -16 -7 -46
-12 -68 -12 l-40 0 -89 -77 -90 -77 0 -115 0 -115 27 -28 c34 -36 67 -36 104
1 l29 29 0 48 c0 29 7 59 20 79 38 61 130 115 198 115 22 0 56 7 75 15 53 22
301 21 358 -2 l41 -16 48 17 48 17 37 -15 c21 -9 53 -16 73 -16 48 0 316 -91
427 -144 55 -27 115 -66 153 -100 34 -31 70 -56 80 -56 9 0 37 -14 62 -30 101
-67 241 -16 307 113 l24 49 -4 96 c-2 54 -10 117 -17 142 -39 139 -53 176 -85
213 -19 22 -39 56 -44 74 -5 19 -33 59 -61 90 -28 31 -62 78 -76 105 -24 48
-89 137 -138 188 -25 26 -56 81 -56 100 0 5 5 10 12 10 24 0 115 -50 162 -89
34 -29 58 -41 80 -41 25 0 43 -13 91 -60 32 -33 66 -60 74 -60 18 0 103 -52
161 -100 48 -40 120 -80 143 -80 7 0 24 -12 38 -26 13 -14 71 -57 129 -95 58
-37 122 -81 143 -96 54 -39 75 -53 270 -181 94 -63 183 -124 197 -136 14 -13
45 -34 70 -48 25 -14 54 -36 65 -48 11 -12 46 -35 78 -51 32 -16 74 -45 95
-63 20 -18 48 -36 62 -39 14 -4 43 -22 65 -40 22 -19 63 -46 91 -60 28 -14 75
-48 105 -74 30 -27 72 -61 94 -75 22 -15 105 -91 184 -168 l144 -140 83 0 84
0 0 49 0 49 -42 35 c-24 19 -93 84 -155 145 -75 73 -151 136 -230 188 -65 44
-131 91 -148 105 -16 15 -53 38 -81 52 -28 14 -75 48 -105 74 -71 64 -223 166
-319 214 -43 21 -102 60 -131 86 -65 58 -129 103 -189 133 -25 12 -65 39 -90
59 -25 20 -65 49 -90 63 -25 14 -54 36 -65 48 -11 12 -47 36 -80 52 -71 36
-215 131 -240 158 -10 11 -34 25 -54 30 -44 12 -57 23 -99 78 -19 23 -40 42
-48 42 -15 0 -96 45 -204 113 -30 19 -67 37 -82 41 -14 3 -50 28 -80 55 -52
47 -124 91 -150 91 -16 0 -140 81 -185 121 -19 16 -41 29 -49 29 -28 0 -123
49 -161 83 -48 43 -94 67 -130 67 -18 0 -60 21 -111 55 -46 30 -111 64 -145
75 -34 11 -70 25 -79 30 -10 6 -58 10 -106 10 l-89 0 -13 -41z"/>
</g>
</svg>
