<?xml version="1.0" standalone="no"?>
<!DOCTYPE svg PUBLIC "-//W3C//DTD SVG 20010904//EN"
 "http://www.w3.org/TR/2001/REC-SVG-20010904/DTD/svg10.dtd">
<svg version="1.0" xmlns="http://www.w3.org/2000/svg"
 width="828.000000pt" height="213.000000pt" viewBox="0 0 828.000000 213.000000"
 preserveAspectRatio="xMidYMid meet">
<metadata>
Created by potrace 1.16, written by Peter Selinger 2001-2019
</metadata>
<g transform="translate(0.000000,213.000000) scale(0.100000,-0.100000)"
fill="#000000" stroke="none">
<path d="M4460 2095 c0 -44 57 -110 106 -124 18 -5 46 -18 62 -30 38 -27 228
-121 245 -121 7 0 51 -25 97 -56 47 -32 119 -74 160 -95 42 -20 104 -62 138
-93 35 -31 70 -56 78 -56 51 0 116 -49 281 -214 l172 -171 35 -75 36 -74 0
-111 c0 -82 -5 -124 -18 -163 -22 -61 -24 -63 -64 -77 -19 -6 -44 -28 -63 -55
-34 -48 -101 -90 -147 -90 -14 0 -68 -20 -120 -45 -51 -25 -105 -45 -119 -45
-15 0 -43 -7 -62 -15 -24 -10 -70 -15 -134 -15 -67 0 -111 -5 -141 -17 l-44
-17 -44 12 c-30 8 -52 9 -69 2 -39 -15 -151 -12 -192 5 -25 11 -72 15 -164 15
-75 0 -139 5 -156 12 -15 6 -71 15 -123 20 -115 10 -118 10 -200 2 -49 -4 -75
-2 -104 10 -21 9 -56 16 -78 16 -21 0 -55 7 -75 15 -19 8 -53 15 -75 15 -21 0
-55 7 -75 15 -19 8 -65 15 -102 15 -49 0 -90 8 -151 30 -47 16 -101 30 -119
30 -19 0 -95 20 -168 45 -83 28 -150 45 -180 45 -53 0 -240 59 -282 89 -48 34
-110 61 -139 61 -29 0 -90 38 -127 80 -11 12 -41 33 -67 46 -61 31 -166 34
-191 6 l-17 -19 0 -121 0 -121 -27 -19 c-61 -42 -222 -72 -383 -72 -107 0
-254 19 -325 42 -108 35 -160 48 -225 57 -68 9 -143 35 -232 78 -76 37 -178
73 -206 73 -26 0 -132 39 -162 60 -47 33 -169 90 -194 90 -38 0 -71 16 -113
53 -54 48 -95 67 -148 67 l-45 0 0 -43 c0 -48 10 -61 92 -119 26 -18 71 -52
100 -75 34 -27 81 -51 131 -67 43 -14 90 -34 105 -45 47 -33 171 -91 194 -91
26 0 212 -61 274 -90 70 -32 162 -60 197 -60 18 0 71 -13 117 -30 47 -16 102
-30 123 -30 21 0 54 -7 74 -15 19 -8 60 -15 89 -15 29 0 72 -7 95 -17 l41 -16
47 16 c25 10 70 17 99 17 29 0 63 5 75 12 12 6 48 14 82 19 33 4 78 12 100 18
22 6 51 13 65 15 24 5 55 23 190 109 l60 38 63 -21 c34 -11 80 -29 103 -40 85
-39 255 -90 301 -90 26 0 88 -13 138 -29 99 -32 160 -48 220 -60 22 -4 56 -12
75 -18 88 -28 132 -36 230 -42 58 -4 115 -12 127 -19 12 -7 40 -12 63 -12 22
0 57 -7 77 -15 19 -8 53 -15 75 -15 21 0 55 -7 75 -15 25 -11 71 -15 156 -15
l120 0 37 -40 c20 -22 44 -40 53 -40 9 0 33 11 53 25 l37 25 372 0 373 0 35
15 c22 9 68 15 117 15 l81 0 132 45 c73 25 150 45 170 45 66 0 161 58 280 171
l108 102 55 108 c39 78 54 120 54 149 0 51 -26 129 -81 244 -46 96 -45 118 4
124 26 3 90 -30 218 -112 31 -20 68 -36 85 -36 16 0 43 -9 59 -21 17 -11 55
-34 85 -50 30 -17 80 -46 110 -65 30 -19 66 -34 80 -34 15 0 57 -21 96 -47 38
-25 101 -62 139 -81 39 -19 90 -51 115 -72 47 -39 120 -80 142 -80 16 0 140
-81 185 -121 19 -16 41 -29 49 -29 22 0 82 -29 128 -62 21 -15 46 -28 55 -28
9 0 36 -14 61 -30 25 -16 52 -30 61 -30 9 0 35 -15 59 -32 23 -18 68 -49 100
-68 156 -94 183 -113 235 -165 l55 -55 55 0 55 0 0 51 c0 56 -31 109 -80 134
-15 8 -52 36 -81 63 -30 27 -72 58 -94 70 -22 11 -83 49 -135 84 -52 35 -111
69 -130 76 -19 7 -48 20 -65 29 -93 50 -144 80 -179 105 -21 15 -47 28 -56 28
-9 0 -36 15 -60 33 -95 71 -166 117 -180 117 -18 0 -139 78 -187 121 -19 16
-41 29 -49 29 -15 0 -104 49 -205 114 -30 20 -68 36 -83 36 -41 0 -153 55
-215 106 -36 30 -63 44 -83 44 -28 0 -98 37 -219 114 -30 20 -61 36 -68 36
-18 0 -81 30 -116 56 -42 31 -164 90 -202 98 -17 4 -51 24 -75 45 -41 37 -155
101 -179 101 -22 0 -85 34 -129 70 -47 38 -120 80 -141 80 -17 0 -204 94 -269
136 -30 19 -74 40 -98 46 -28 7 -62 28 -97 59 l-53 49 -146 0 -146 0 0 -35z"/>
</g>
</svg>
