<?xml version="1.0" standalone="no"?>
<!DOCTYPE svg PUBLIC "-//W3C//DTD SVG 20010904//EN"
 "http://www.w3.org/TR/2001/REC-SVG-20010904/DTD/svg10.dtd">
<svg version="1.0" xmlns="http://www.w3.org/2000/svg"
 width="402.000000pt" height="453.000000pt" viewBox="0 0 402.000000 453.000000"
 preserveAspectRatio="xMidYMid meet">
<metadata>
Created by potrace 1.16, written by Peter Selinger 2001-2019
</metadata>
<g transform="translate(0.000000,453.000000) scale(0.100000,-0.100000)"
fill="#000000" stroke="none">
<path d="M452 4497 c-7 -18 -12 -47 -12 -64 l0 -30 72 -58 c39 -32 116 -80
170 -107 54 -27 137 -76 185 -108 48 -33 95 -60 105 -60 9 0 19 -4 23 -10 12
-20 156 -130 197 -151 23 -12 66 -39 93 -61 28 -21 71 -53 97 -71 93 -64 174
-126 202 -155 15 -16 47 -49 70 -73 24 -24 55 -52 69 -62 15 -10 41 -45 57
-77 16 -32 45 -71 65 -86 19 -14 35 -32 35 -39 0 -7 13 -42 30 -77 16 -34 30
-75 30 -89 0 -15 7 -43 15 -62 8 -21 15 -67 15 -105 l0 -69 -30 -60 c-42 -84
-114 -138 -245 -183 l-59 -20 -136 0 c-89 0 -150 5 -180 14 -59 19 -124 35
-180 46 -103 19 -230 124 -230 189 0 7 -11 33 -24 59 -28 54 -235 262 -261
262 -21 0 -142 59 -212 104 -107 68 -256 95 -326 60 -99 -50 -114 -117 -49
-207 21 -29 45 -63 54 -77 8 -14 35 -38 59 -54 24 -15 58 -46 75 -69 l32 -42
63 -19 c35 -10 78 -31 94 -46 31 -29 205 -120 228 -120 27 0 124 -79 141 -115
l17 -36 -11 -33 c-7 -23 -7 -41 0 -60 15 -40 12 -121 -5 -163 -8 -19 -15 -61
-15 -93 0 -32 7 -74 15 -93 8 -20 15 -53 15 -74 0 -21 14 -76 30 -123 17 -46
30 -95 30 -107 0 -27 31 -93 65 -138 12 -17 39 -64 60 -105 21 -41 50 -89 64
-105 15 -17 49 -64 75 -105 81 -124 487 -519 621 -604 17 -11 55 -43 85 -72
62 -59 168 -134 189 -134 7 0 30 -14 50 -31 55 -46 123 -97 155 -117 16 -9 51
-32 79 -51 27 -18 64 -37 82 -42 17 -5 49 -24 71 -42 52 -45 85 -61 196 -97
51 -17 111 -43 133 -59 43 -31 238 -101 280 -101 13 0 27 -4 30 -10 4 -6 57
-10 126 -10 l119 0 0 18 c0 26 -31 52 -61 52 -35 0 -136 37 -178 66 -19 13
-49 24 -66 24 -16 0 -57 13 -91 29 -34 16 -75 32 -93 36 -17 3 -53 22 -79 40
-58 39 -186 105 -205 105 -8 0 -33 15 -57 32 -98 74 -166 118 -181 118 -9 0
-45 21 -79 47 -34 27 -81 62 -104 78 -24 17 -60 45 -81 64 -21 18 -64 50 -94
69 -31 20 -83 61 -116 92 -33 31 -78 68 -101 83 -64 43 -379 367 -403 416 -13
23 -54 80 -93 125 -67 76 -107 142 -108 176 0 8 -27 55 -60 105 -33 49 -60
101 -60 115 0 14 -12 57 -26 95 -23 63 -46 200 -45 265 3 113 18 297 24 308
13 19 46 15 137 -18 53 -18 105 -30 138 -30 29 0 69 -7 89 -15 25 -11 73 -15
168 -15 95 0 143 4 168 15 20 8 48 15 62 15 14 0 73 23 131 52 l106 52 62 71
c35 38 77 98 95 132 l31 62 0 121 0 120 -51 102 c-48 96 -93 171 -139 230 -11
14 -20 29 -20 32 0 25 125 -31 190 -84 46 -38 120 -80 140 -80 7 0 35 -20 63
-45 28 -25 81 -61 117 -80 36 -19 91 -56 124 -82 70 -58 125 -93 147 -93 8 0
26 -12 40 -26 13 -14 81 -64 151 -111 70 -47 147 -102 170 -122 24 -21 55 -41
69 -44 14 -4 54 -31 88 -62 34 -30 70 -55 80 -55 9 0 28 -12 42 -26 13 -14 56
-47 94 -72 39 -26 93 -67 122 -92 59 -51 144 -116 185 -142 15 -10 39 -35 53
-57 28 -46 106 -91 155 -91 l30 0 0 69 0 70 -42 28 c-23 15 -63 49 -88 74 -55
56 -127 109 -149 109 -9 0 -34 20 -54 45 -21 25 -77 71 -125 102 -48 32 -107
76 -132 99 -25 23 -65 52 -90 64 -25 12 -65 39 -90 59 -24 20 -81 60 -125 89
-44 30 -91 64 -105 77 -14 13 -47 34 -75 48 -27 14 -77 48 -110 76 -33 28 -80
60 -105 72 -65 31 -61 28 -149 100 -49 41 -95 69 -115 73 -19 4 -53 24 -77 45
-67 58 -130 101 -149 101 -9 0 -27 12 -41 26 -13 14 -41 35 -63 46 -21 11 -57
33 -79 49 -22 16 -47 29 -56 29 -9 0 -55 25 -101 56 -47 32 -116 73 -155 92
-38 19 -91 52 -117 73 -25 21 -78 54 -116 74 -39 19 -110 62 -159 95 -57 39
-98 60 -116 60 -20 0 -44 13 -75 41 -60 53 -135 96 -192 111 -32 8 -58 25 -91
60 -26 27 -60 53 -76 57 -44 13 -160 91 -174 118 l-12 23 -77 0 -76 0 -12 -33z
m-37 -1372 c159 -77 265 -158 265 -202 0 -33 -19 -30 -119 18 -84 41 -150 86
-234 160 l-41 37 13 16 c7 9 15 16 18 16 2 0 47 -20 98 -45z"/>
</g>
</svg>
