<?xml version="1.0" standalone="no"?>
<!DOCTYPE svg PUBLIC "-//W3C//DTD SVG 20010904//EN"
 "http://www.w3.org/TR/2001/REC-SVG-20010904/DTD/svg10.dtd">
<svg version="1.0" xmlns="http://www.w3.org/2000/svg"
 width="708.000000pt" height="288.000000pt" viewBox="0 0 708.000000 288.000000"
 preserveAspectRatio="xMidYMid meet">
<metadata>
Created by potrace 1.16, written by Peter Selinger 2001-2019
</metadata>
<g transform="translate(0.000000,288.000000) scale(0.100000,-0.100000)"
fill="#000000" stroke="none">
<path d="M366 2871 c-3 -5 -23 -11 -43 -14 -94 -13 -249 -63 -289 -93 l-34
-26 0 -39 0 -39 55 0 c58 0 133 21 225 64 31 15 73 26 96 26 23 0 58 7 77 15
28 11 78 15 207 15 129 0 179 -4 207 -15 19 -8 65 -15 102 -15 49 0 90 -8 151
-30 47 -16 101 -30 120 -30 19 0 55 -6 80 -14 60 -19 125 -35 180 -46 25 -4
70 -19 100 -33 70 -32 153 -65 210 -85 83 -29 239 -111 277 -145 21 -19 52
-38 70 -41 34 -8 169 -134 232 -216 19 -25 51 -61 72 -80 l38 -35 66 -196 65
-196 0 -77 c0 -45 -6 -91 -15 -113 -25 -60 -20 -98 22 -144 l37 -41 35 7 c20
4 198 9 395 12 l360 4 50 -18 c28 -9 65 -30 81 -45 17 -15 38 -28 46 -28 8 0
75 -40 149 -90 94 -62 144 -90 165 -90 17 0 86 -27 153 -60 68 -33 133 -60
145 -60 12 0 42 -6 67 -14 160 -51 253 -57 352 -25 78 25 108 54 108 106 0 49
-12 66 -81 113 -64 44 -250 140 -270 140 -6 0 -37 16 -68 35 -78 48 -184 85
-249 85 -29 0 -69 7 -89 15 -22 9 -67 15 -117 15 -65 0 -99 6 -166 30 -47 16
-95 30 -108 30 -26 0 -143 113 -169 163 -9 18 -33 52 -54 77 -37 44 -99 162
-99 188 0 7 11 24 25 37 l24 25 58 0 c60 0 84 -10 188 -74 26 -16 86 -42 133
-58 46 -16 97 -37 111 -47 35 -25 228 -121 242 -121 7 0 33 -13 58 -29 25 -16
61 -32 79 -36 17 -4 54 -21 80 -40 26 -18 68 -43 92 -55 25 -13 59 -33 75 -45
37 -28 170 -95 188 -95 7 0 82 -34 166 -75 84 -41 157 -75 162 -75 6 0 40 -18
77 -40 36 -22 83 -45 103 -50 48 -13 253 -114 293 -145 17 -13 66 -35 109 -49
43 -14 90 -34 105 -45 38 -26 229 -121 245 -121 7 0 26 -13 42 -30 16 -16 36
-30 44 -30 9 0 30 -9 46 -21 17 -11 66 -38 110 -61 44 -22 93 -51 110 -63 16
-13 64 -40 105 -60 72 -36 171 -105 199 -139 7 -9 20 -16 28 -16 26 0 86 -32
133 -70 25 -20 82 -60 127 -90 45 -30 88 -65 95 -78 l12 -23 50 3 51 3 0 49 0
49 -66 46 c-37 25 -86 63 -110 84 -78 68 -156 125 -200 148 -24 12 -57 32 -74
44 -16 13 -52 35 -80 49 -27 15 -75 43 -105 62 -30 19 -71 39 -91 44 -19 5
-53 25 -75 44 -21 18 -89 59 -149 90 -61 32 -135 73 -165 92 -30 19 -73 39
-95 45 -47 13 -128 53 -170 84 -45 34 -146 82 -222 107 -37 11 -81 33 -98 48
-38 35 -56 44 -146 74 -41 13 -99 39 -130 57 -30 19 -93 51 -140 73 -46 21
-100 47 -119 57 -136 74 -254 129 -278 129 -33 0 -55 14 -143 92 -46 40 -75
58 -94 58 -31 0 -86 24 -130 56 -36 26 -170 94 -186 94 -20 0 -136 58 -180 89
-23 17 -48 31 -56 31 -28 0 -139 58 -228 119 l-90 61 -63 0 c-115 0 -188 -54
-251 -187 l-34 -72 21 -66 c12 -36 47 -102 78 -147 30 -44 66 -102 79 -128 14
-27 30 -50 36 -52 7 -2 10 -12 6 -21 l-6 -17 -236 0 -236 0 -24 25 -25 24 0
86 c0 90 -15 149 -64 255 -14 30 -26 67 -26 83 0 30 -58 153 -95 202 -12 17
-34 53 -48 80 -30 59 -181 210 -247 247 -25 14 -54 36 -65 48 -22 24 -86 60
-107 60 -18 0 -139 61 -206 104 -29 19 -92 46 -140 61 -48 15 -108 38 -134 51
-26 13 -53 24 -60 24 -7 0 -42 14 -76 30 -47 22 -79 30 -118 30 -30 0 -71 7
-91 15 -19 8 -60 15 -90 15 -29 0 -70 7 -90 15 -19 8 -55 15 -79 15 -23 0 -46
5 -49 10 -8 13 -642 14 -649 1z m3802 -1741 c60 0 153 -38 222 -90 19 -14 57
-37 83 -50 26 -14 55 -33 64 -42 l16 -18 -16 -6 c-8 -3 -24 -1 -36 5 -11 6
-35 11 -53 11 -19 0 -49 11 -69 24 -40 27 -145 66 -181 66 -31 1 -81 26 -147
74 l-54 40 19 6 c11 4 36 1 58 -6 21 -8 63 -14 94 -14z"/>
</g>
</svg>
