<?xml version="1.0" standalone="no"?>
<!DOCTYPE svg PUBLIC "-//W3C//DTD SVG 20010904//EN"
 "http://www.w3.org/TR/2001/REC-SVG-20010904/DTD/svg10.dtd">
<svg version="1.0" xmlns="http://www.w3.org/2000/svg"
 width="360.000000pt" height="210.000000pt" viewBox="0 0 360.000000 210.000000"
 preserveAspectRatio="xMidYMid meet">
<metadata>
Created by potrace 1.16, written by Peter Selinger 2001-2019
</metadata>
<g transform="translate(0.000000,210.000000) scale(0.100000,-0.100000)"
fill="#000000" stroke="none">
<path d="M425 2070 c-8 -16 -15 -39 -15 -50 0 -28 125 -159 159 -167 14 -3 40
-18 56 -32 43 -39 123 -102 166 -131 77 -52 199 -179 224 -232 32 -69 31 -106
-5 -208 -16 -47 -30 -97 -30 -113 0 -32 60 -156 85 -177 10 -8 42 -47 71 -87
30 -40 61 -73 70 -73 9 0 39 -20 67 -45 51 -45 153 -105 178 -105 8 0 34 -14
59 -30 52 -34 80 -38 103 -12 41 45 23 65 -158 185 -104 69 -196 150 -246 220
l-29 40 0 56 c0 41 8 72 30 119 21 45 30 79 30 115 0 29 4 58 9 65 l8 14 44
-13 c24 -7 58 -25 74 -40 17 -15 45 -34 64 -44 19 -9 52 -30 74 -46 22 -16 48
-29 57 -29 9 0 36 -15 60 -32 42 -33 111 -76 210 -133 29 -16 73 -44 99 -61
26 -17 67 -42 91 -54 25 -12 65 -39 89 -59 25 -20 68 -49 97 -66 108 -61 180
-108 209 -134 17 -15 57 -35 90 -46 43 -13 70 -30 95 -57 20 -21 70 -55 115
-77 44 -22 107 -62 140 -90 33 -28 86 -64 117 -81 31 -16 74 -44 94 -62 20
-17 53 -43 74 -57 21 -14 75 -55 119 -91 193 -156 234 -175 273 -125 11 14 28
25 39 25 14 0 19 7 19 25 l0 25 -29 0 c-17 0 -33 5 -36 10 -8 12 -136 116
-185 149 -19 13 -64 49 -100 81 -36 31 -77 60 -92 63 -14 4 -50 28 -80 54 -64
58 -128 103 -188 133 -25 12 -67 40 -93 62 -26 22 -62 44 -81 49 -18 5 -50 24
-72 43 -21 18 -59 43 -84 56 -25 13 -58 33 -75 45 -16 13 -50 33 -75 45 -25
12 -66 40 -92 61 -25 21 -78 55 -117 74 -39 20 -106 59 -148 88 -43 29 -98 65
-123 79 -25 14 -56 38 -69 52 -14 14 -32 26 -40 26 -34 1 -206 106 -246 150
-10 11 -35 25 -55 30 -20 5 -54 25 -76 43 -21 19 -59 44 -84 57 -25 13 -58 33
-75 45 -16 13 -52 34 -80 48 -27 14 -71 43 -97 65 -26 22 -63 43 -82 46 -18 4
-53 24 -77 45 -24 21 -60 46 -79 56 -19 10 -57 35 -85 57 -200 156 -253 188
-306 188 l-38 0 -16 -30z"/>
<path d="M17 1099 c-45 -26 12 -130 82 -149 20 -5 55 -25 78 -45 22 -19 90
-59 149 -89 60 -30 130 -72 156 -94 26 -22 62 -42 81 -46 19 -3 57 -26 86 -51
29 -25 56 -45 61 -45 4 0 31 -16 60 -36 29 -20 68 -41 86 -46 18 -5 57 -30 86
-56 65 -58 127 -101 193 -135 28 -14 72 -44 99 -66 26 -23 58 -41 71 -41 28 0
55 29 55 60 0 40 -199 219 -302 270 -23 12 -64 40 -90 61 -25 21 -82 57 -125
78 -43 22 -107 64 -141 95 -35 31 -70 56 -80 56 -23 0 -154 72 -261 142 -34
23 -68 38 -87 38 -20 0 -39 9 -55 26 -30 32 -130 84 -161 84 -13 0 -31 -5 -41
-11z"/>
</g>
</svg>
