<?xml version="1.0" standalone="no"?>
<!DOCTYPE svg PUBLIC "-//W3C//DTD SVG 20010904//EN"
 "http://www.w3.org/TR/2001/REC-SVG-20010904/DTD/svg10.dtd">
<svg version="1.0" xmlns="http://www.w3.org/2000/svg"
 width="348.000000pt" height="327.000000pt" viewBox="0 0 348.000000 327.000000"
 preserveAspectRatio="xMidYMid meet">
<metadata>
Created by potrace 1.16, written by Peter Selinger 2001-2019
</metadata>
<g transform="translate(0.000000,327.000000) scale(0.100000,-0.100000)"
fill="#000000" stroke="none">
<path d="M7 3263 c-4 -3 -7 -39 -7 -78 l0 -73 32 -24 c38 -29 112 -68 129 -68
16 0 142 -63 209 -105 30 -18 71 -43 90 -55 58 -35 160 -138 154 -154 -9 -24
-41 -29 -95 -15 l-49 13 -45 -22 c-56 -27 -77 -59 -73 -108 2 -31 10 -43 37
-61 19 -13 50 -27 70 -33 61 -16 130 -54 261 -142 69 -46 146 -96 172 -111 26
-15 56 -41 68 -57 12 -17 40 -40 61 -51 22 -11 69 -48 104 -82 35 -34 78 -75
95 -92 51 -49 180 -197 180 -206 0 -5 24 -35 54 -68 51 -58 82 -123 101 -218
8 -40 4 -40 -70 -7 -54 23 -106 41 -225 75 -25 7 -118 14 -211 16 l-167 4 -63
-21 c-132 -45 -166 -74 -223 -187 l-36 -73 0 -77 0 -78 30 -45 c16 -25 30 -52
30 -60 0 -26 30 -59 72 -81 23 -12 67 -48 97 -80 38 -40 82 -71 136 -99 44
-23 104 -56 132 -74 139 -88 264 -96 473 -30 58 18 74 18 118 -3 89 -41 172
-131 196 -213 8 -27 26 -66 40 -87 30 -44 33 -74 10 -113 -29 -47 -62 -60
-161 -60 l-90 0 -16 -18 c-10 -10 -17 -29 -17 -41 0 -28 51 -81 79 -81 11 0
23 -4 26 -10 11 -18 95 -11 124 9 15 11 40 23 57 27 117 28 224 159 194 239
-5 14 -10 52 -10 84 l0 57 -30 29 c-16 16 -30 36 -30 46 0 26 -87 139 -108
139 -10 0 -39 25 -65 56 l-47 56 0 52 0 51 35 49 c20 29 35 61 35 78 0 16 7
45 15 65 19 46 19 140 0 186 -8 20 -15 63 -15 95 l0 58 -30 29 c-16 16 -30 36
-30 45 0 9 -14 29 -30 45 -20 19 -30 38 -30 59 0 32 -79 158 -150 241 -22 26
-49 63 -59 83 -20 39 -57 77 -106 107 -16 10 -50 37 -75 60 -25 22 -63 53 -85
68 -22 14 -69 56 -105 92 -43 44 -77 69 -102 76 -20 5 -61 31 -90 58 -29 26
-68 56 -86 65 -33 17 -142 122 -142 137 0 4 16 23 35 42 19 19 35 44 35 54 0
72 141 47 271 -46 23 -17 49 -31 57 -31 9 0 71 -27 139 -60 69 -33 130 -60
136 -60 7 0 54 -20 105 -45 52 -25 99 -45 106 -45 7 0 23 -12 37 -26 24 -26
89 -64 109 -64 19 0 139 -58 173 -84 18 -13 65 -41 104 -61 40 -19 109 -60
153 -90 46 -32 108 -64 147 -77 37 -11 82 -33 98 -48 17 -15 45 -35 64 -45 19
-9 52 -30 74 -46 22 -16 46 -29 54 -29 14 0 99 -48 203 -113 30 -19 69 -38 86
-42 18 -3 51 -23 75 -43 41 -36 67 -52 179 -117 29 -16 75 -45 102 -63 63 -42
132 -64 164 -52 l24 10 0 52 0 53 -75 63 c-41 34 -81 62 -88 62 -7 0 -29 11
-50 25 -20 14 -72 43 -114 65 -43 21 -100 57 -127 79 -26 23 -55 41 -63 41
-29 0 -183 80 -222 115 -21 19 -44 35 -51 35 -19 0 -81 31 -124 62 -21 15 -46
28 -55 28 -9 0 -34 12 -55 26 -21 14 -97 56 -170 92 -72 36 -149 78 -170 94
-21 15 -46 28 -55 28 -9 0 -54 25 -99 55 -92 61 -154 95 -174 95 -7 0 -31 12
-52 27 -49 32 -350 183 -368 183 -7 0 -55 20 -106 45 -52 25 -99 45 -106 45
-6 0 -28 12 -49 26 -21 14 -84 48 -140 76 -56 28 -115 61 -132 74 -35 26 -169
94 -186 94 -17 0 -80 31 -114 56 -38 29 -221 119 -259 128 -39 9 -74 34 -81
57 l-6 19 -88 0 c-48 0 -91 -3 -94 -7z m1298 -1914 c33 -11 74 -27 92 -35 38
-17 130 -99 174 -155 l31 -39 -12 -15 c-16 -20 -100 -20 -147 0 -19 8 -64 15
-100 15 l-65 0 -29 -29 c-23 -23 -29 -39 -29 -70 l0 -41 61 -45 c34 -25 70
-45 80 -45 22 0 99 -66 99 -86 0 -26 -56 -44 -137 -44 -95 0 -165 22 -219 69
-21 19 -62 49 -91 68 -29 18 -68 46 -86 61 -17 15 -51 40 -74 56 -81 54 -132
144 -113 200 18 57 66 121 101 139 l34 17 185 0 186 0 59 -21z"/>
</g>
</svg>
