<?xml version="1.0" standalone="no"?>
<!DOCTYPE svg PUBLIC "-//W3C//DTD SVG 20010904//EN"
 "http://www.w3.org/TR/2001/REC-SVG-20010904/DTD/svg10.dtd">
<svg version="1.0" xmlns="http://www.w3.org/2000/svg"
 width="699.000000pt" height="111.000000pt" viewBox="0 0 699.000000 111.000000"
 preserveAspectRatio="xMidYMid meet">
<metadata>
Created by potrace 1.16, written by Peter Selinger 2001-2019
</metadata>
<g transform="translate(0.000000,111.000000) scale(0.100000,-0.100000)"
fill="#000000" stroke="none">
<path d="M125 1100 c-3 -5 -16 -10 -27 -10 -12 0 -38 -18 -60 -42 l-38 -41 0
-48 c0 -26 4 -51 10 -54 5 -3 10 -13 10 -22 0 -9 19 -45 43 -81 33 -51 59 -76
124 -118 44 -30 100 -70 123 -89 l42 -35 44 0 c25 0 61 -7 81 -15 56 -24 137
-18 233 15 106 38 141 38 199 1 25 -16 61 -32 80 -36 21 -5 52 -26 87 -61 29
-30 61 -54 70 -54 30 0 183 -79 223 -115 21 -19 44 -35 51 -35 25 0 139 -60
225 -119 49 -33 97 -61 106 -61 9 0 41 -18 73 -40 l57 -40 69 0 70 0 0 49 0
49 -37 29 c-70 54 -165 115 -233 149 -38 19 -108 61 -157 94 -60 41 -97 60
-119 60 -20 0 -39 9 -55 26 -27 30 -197 118 -248 129 -21 4 -52 27 -87 61 -29
30 -61 54 -71 54 -41 1 -169 83 -198 126 -17 26 -144 114 -166 114 -7 0 -56
20 -107 45 -52 25 -98 45 -104 45 -5 0 -39 14 -75 30 -35 17 -77 30 -93 30
-16 0 -32 5 -35 10 -3 6 -28 10 -55 10 -27 0 -52 -4 -55 -10z m299 -259 c57
-28 116 -65 136 -86 l35 -36 -15 -9 c-24 -15 -92 -11 -130 8 -49 24 -173 108
-194 131 -10 11 -15 25 -11 30 14 24 80 10 179 -38z"/>
<path d="M6295 955 c-16 -8 -42 -14 -58 -15 -30 0 -157 -60 -173 -82 -10 -13
-39 -101 -49 -152 l-6 -28 -37 7 c-20 4 -107 10 -192 14 -90 4 -164 12 -177
19 -15 9 -98 12 -288 12 l-266 0 -36 15 c-27 12 -81 15 -240 15 -158 0 -212 3
-240 15 -28 12 -86 15 -284 15 -173 0 -256 4 -276 12 -16 7 -107 16 -213 20
-102 5 -212 10 -245 13 -33 3 -166 9 -295 13 -157 5 -242 11 -257 20 -29 16
-73 15 -116 -3 -27 -11 -76 -15 -186 -15 -183 0 -206 7 -166 47 12 12 13 18 4
29 -16 19 -116 18 -162 -1 -20 -8 -54 -15 -75 -15 -22 0 -56 -7 -75 -15 -51
-21 -333 -21 -384 0 -42 18 -342 22 -374 5 -43 -24 -12 -70 48 -70 15 -1 39
-7 53 -15 14 -8 44 -14 68 -15 23 0 59 -7 79 -15 19 -8 53 -15 75 -15 21 0 55
-7 75 -15 25 -11 72 -15 165 -15 92 0 139 -4 165 -15 27 -12 81 -15 240 -15
158 0 212 -3 240 -15 19 -8 55 -15 78 -15 23 0 59 7 78 15 49 20 215 20 264 0
l35 -15 411 0 c281 0 422 -4 448 -12 30 -8 48 -8 79 1 l39 12 37 -16 c29 -12
80 -15 241 -15 158 0 212 -3 240 -15 25 -11 72 -15 165 -15 92 0 139 -4 165
-15 27 -11 77 -15 210 -15 132 0 182 -4 210 -15 23 -10 69 -15 135 -15 65 0
111 -5 135 -15 l35 -15 400 0 399 0 36 -15 c19 -8 61 -15 93 -15 32 0 74 7 93
15 23 9 69 15 122 15 123 0 185 35 185 104 0 14 5 28 10 31 17 11 11 89 -10
133 -21 44 -29 49 -160 102 -134 54 -182 63 -340 66 -108 2 -153 -1 -175 -11z
m357 -147 c78 -25 123 -60 134 -103 6 -23 2 -32 -16 -47 l-22 -18 -171 0 -171
0 -65 22 c-91 30 -121 52 -121 89 0 18 9 39 25 54 l24 25 157 0 156 0 70 -22z"/>
</g>
</svg>
