<?xml version="1.0" standalone="no"?>
<!DOCTYPE svg PUBLIC "-//W3C//DTD SVG 20010904//EN"
 "http://www.w3.org/TR/2001/REC-SVG-20010904/DTD/svg10.dtd">
<svg version="1.0" xmlns="http://www.w3.org/2000/svg"
 width="414.000000pt" height="225.000000pt" viewBox="0 0 414.000000 225.000000"
 preserveAspectRatio="xMidYMid meet">
<metadata>
Created by potrace 1.16, written by Peter Selinger 2001-2019
</metadata>
<g transform="translate(0.000000,225.000000) scale(0.100000,-0.100000)"
fill="#000000" stroke="none">
<path d="M1280 2215 c0 -55 47 -98 174 -162 61 -30 124 -66 141 -78 35 -26
169 -95 186 -95 17 0 80 -31 114 -56 42 -31 164 -90 202 -98 17 -4 51 -24 75
-45 44 -39 98 -71 118 -71 20 0 139 -58 173 -84 18 -14 95 -57 172 -96 77 -39
165 -87 195 -106 30 -19 67 -38 82 -41 14 -3 39 -18 54 -34 15 -16 34 -29 41
-29 8 0 44 -18 81 -40 37 -23 78 -43 92 -47 14 -3 39 -18 55 -33 17 -16 82
-54 145 -86 62 -32 130 -72 150 -89 19 -18 49 -40 66 -48 43 -22 163 -104 194
-132 14 -13 45 -33 70 -45 47 -24 146 -96 169 -124 9 -11 30 -16 62 -16 l49 0
0 58 0 58 -27 26 c-16 14 -40 28 -55 32 -14 3 -50 28 -80 54 -29 27 -87 70
-128 97 -41 27 -88 61 -105 76 -34 29 -107 69 -128 69 -7 0 -27 17 -44 38 -22
27 -65 54 -158 101 -71 35 -145 79 -165 97 -21 19 -43 34 -50 34 -27 0 -149
65 -199 106 -29 24 -61 44 -70 44 -20 0 -197 89 -271 135 -30 20 -69 39 -87
44 -18 5 -45 18 -60 29 -38 26 -229 122 -245 122 -7 0 -57 29 -110 64 -53 34
-111 68 -130 75 -18 7 -49 21 -68 32 -123 68 -254 129 -279 129 -19 0 -45 13
-73 35 -24 19 -54 40 -68 46 -14 6 -37 17 -52 25 -75 38 -94 48 -110 56 -10 4
-36 8 -58 8 l-40 0 0 -35z"/>
<path d="M90 355 c-14 -8 -40 -14 -57 -15 l-33 0 0 -25 c0 -28 11 -35 97 -64
l62 -21 186 0 c142 0 194 -3 222 -15 23 -10 69 -15 135 -15 65 0 111 -5 135
-15 22 -9 67 -15 120 -15 52 0 97 -6 120 -15 19 -8 53 -15 75 -15 21 0 55 -7
75 -15 28 -12 84 -15 270 -15 185 0 241 -3 270 -15 l35 -15 399 0 c289 0 405
-3 426 -12 15 -7 98 -16 183 -20 85 -4 178 -10 205 -13 28 -3 142 -8 255 -11
113 -3 209 -9 214 -14 6 -6 38 -10 73 -10 l62 0 7 37 c9 46 -1 62 -62 95 l-49
28 -163 0 c-121 0 -172 4 -199 15 -28 12 -82 15 -254 15 -141 0 -228 4 -246
12 -18 7 -140 13 -348 16 -242 3 -328 8 -354 18 -23 10 -77 14 -178 14 -105 0
-153 4 -180 15 l-35 15 -280 0 -279 0 -36 15 c-23 10 -69 15 -135 15 -65 0
-111 5 -135 15 -23 10 -69 15 -134 15 -67 0 -111 5 -139 16 -31 12 -57 15
-113 10 -100 -9 -117 -9 -157 -2 -23 4 -43 1 -60 -9z"/>
</g>
</svg>
