<?xml version="1.0" standalone="no"?>
<!DOCTYPE svg PUBLIC "-//W3C//DTD SVG 20010904//EN"
 "http://www.w3.org/TR/2001/REC-SVG-20010904/DTD/svg10.dtd">
<svg version="1.0" xmlns="http://www.w3.org/2000/svg"
 width="858.000000pt" height="330.000000pt" viewBox="0 0 858.000000 330.000000"
 preserveAspectRatio="xMidYMid meet">
<metadata>
Created by potrace 1.16, written by Peter Selinger 2001-2019
</metadata>
<g transform="translate(0.000000,330.000000) scale(0.100000,-0.100000)"
fill="#000000" stroke="none">
<path d="M5615 3290 c-3 -5 -20 -10 -36 -10 -89 0 -369 -195 -369 -257 0 -10
-14 -47 -30 -81 l-30 -64 0 -120 c0 -71 5 -128 12 -141 6 -12 14 -48 19 -82
16 -129 55 -246 138 -414 39 -79 71 -151 71 -161 0 -10 18 -40 41 -66 22 -27
60 -87 84 -134 24 -47 57 -98 75 -115 42 -40 72 -89 64 -108 -14 -37 -54 -27
-114 29 -14 12 -86 53 -160 90 -74 37 -148 77 -165 90 -16 12 -67 41 -111 63
-45 22 -106 62 -135 89 -64 58 -126 92 -169 92 -70 0 -150 -69 -150 -131 0
-14 18 -55 40 -92 l40 -66 0 -67 c0 -109 -35 -148 -202 -228 l-95 -46 -70 0
c-40 0 -86 -7 -106 -15 -23 -9 -68 -15 -120 -15 -53 0 -98 -6 -120 -15 -28
-12 -80 -15 -225 -15 -146 0 -198 -3 -225 -15 -48 -20 -186 -20 -234 0 -27 12
-79 15 -224 15 -150 0 -197 3 -229 16 -31 13 -59 15 -127 10 -120 -9 -126 -9
-223 2 -47 4 -95 14 -107 20 -13 8 -71 12 -153 12 -93 0 -141 4 -167 15 -19 8
-45 15 -57 15 -40 0 -229 71 -272 101 -23 17 -56 51 -74 75 l-32 45 12 14 c7
9 30 15 55 15 l43 0 61 77 61 77 0 51 0 52 -26 24 c-14 13 -40 47 -56 76 -33
58 -89 113 -117 113 -10 0 -31 17 -48 38 -19 24 -58 51 -109 76 -43 21 -92 49
-109 61 -35 26 -169 95 -186 95 -6 0 -40 13 -76 30 -35 16 -70 30 -76 30 -7 0
-41 14 -75 30 -35 17 -75 30 -88 30 -14 0 -41 7 -61 15 -22 9 -67 15 -120 15
-52 0 -97 6 -120 15 -45 19 -111 19 -156 0 -21 -9 -67 -15 -107 -15 l-70 0
-79 -39 c-60 -31 -94 -57 -149 -116 l-72 -77 0 -63 c0 -35 5 -67 10 -70 6 -4
19 -23 30 -44 27 -54 181 -211 206 -211 12 0 34 -16 51 -38 19 -24 58 -51 109
-76 43 -21 93 -49 109 -62 35 -26 288 -154 306 -154 7 0 50 -18 97 -40 112
-53 553 -200 600 -200 27 0 55 -12 105 -45 80 -52 100 -74 123 -132 21 -53 15
-120 -15 -161 -12 -17 -49 -44 -84 -61 l-64 -31 -120 0 -120 0 -16 -18 c-10
-10 -17 -28 -17 -39 0 -22 29 -53 51 -53 8 0 43 -14 77 -30 l64 -30 89 0 c98
0 143 15 207 72 19 16 51 40 73 53 52 34 81 93 91 185 4 41 11 95 15 120 l8
45 67 3 c43 2 79 -2 103 -13 21 -8 61 -15 91 -15 29 0 65 -5 81 -12 15 -7 91
-16 168 -20 166 -9 151 -9 291 -2 88 5 118 2 149 -10 27 -12 71 -16 167 -16
92 0 139 -4 165 -15 51 -22 435 -22 486 0 27 11 75 15 182 15 97 0 154 4 168
12 12 7 76 15 142 19 115 6 154 13 255 45 25 8 55 14 68 14 12 0 68 23 125 51
150 74 267 199 267 285 0 32 28 94 46 101 7 2 30 -7 51 -21 21 -14 51 -26 68
-26 31 0 61 -16 105 -56 14 -12 72 -46 130 -75 58 -29 121 -64 141 -78 20 -14
69 -41 110 -60 77 -35 85 -38 214 -108 44 -23 86 -43 93 -43 51 -1 117 -54
318 -251 117 -115 235 -222 261 -238 27 -17 59 -44 71 -60 12 -17 40 -40 61
-50 21 -11 65 -43 97 -70 32 -28 88 -66 124 -86 36 -19 91 -56 124 -82 70 -58
125 -93 147 -93 8 0 28 -13 44 -30 16 -16 36 -30 44 -30 9 0 30 -9 46 -21 54
-36 184 -99 207 -99 31 0 148 -40 180 -62 l26 -18 129 0 128 1 28 45 29 45 5
97 5 97 -22 65 -21 65 -162 163 c-89 90 -179 172 -200 183 -21 11 -55 35 -75
53 -20 18 -68 50 -107 70 -97 51 -198 116 -232 149 -16 15 -36 27 -44 27 -8 0
-52 25 -97 55 -88 59 -154 95 -172 95 -24 0 -97 41 -144 79 -32 28 -58 41 -77
41 -16 0 -46 7 -66 15 -23 10 -68 15 -126 15 l-91 0 -42 -45 -41 -45 -42 0
-42 0 -100 103 c-55 56 -120 132 -144 169 -25 37 -64 89 -87 115 -94 106 -285
425 -328 548 -19 55 -48 126 -91 226 l-29 66 0 100 c0 69 -5 112 -16 138 l-16
38 16 41 c9 23 16 66 16 96 l0 55 43 41 c23 23 62 55 86 73 l44 31 102 0 c69
0 114 5 138 15 25 10 71 15 147 15 76 0 122 -5 147 -15 19 -8 60 -15 90 -15
29 0 70 -7 90 -15 19 -8 47 -15 60 -15 14 0 54 -13 90 -30 35 -16 69 -30 74
-30 6 0 36 -12 66 -26 31 -14 91 -36 132 -50 87 -28 114 -40 156 -71 17 -12
65 -33 108 -47 44 -15 109 -47 152 -75 41 -28 91 -59 112 -70 67 -34 266 -172
332 -230 35 -31 84 -67 109 -81 26 -14 58 -43 73 -65 15 -22 53 -56 86 -75 39
-24 59 -43 61 -58 2 -14 30 -42 76 -77 41 -31 89 -78 110 -109 21 -30 53 -67
72 -81 19 -14 46 -49 60 -77 14 -28 52 -90 84 -137 45 -66 69 -115 99 -206
l41 -120 0 -89 c0 -121 -26 -200 -92 -271 -52 -57 -60 -88 -27 -105 35 -19 61
-4 147 83 l82 85 0 35 c0 20 5 39 10 42 6 4 10 58 10 130 0 72 -4 126 -10 130
-5 3 -10 24 -10 46 0 68 -67 237 -125 314 -12 17 -32 50 -45 75 -12 25 -42 66
-65 91 -23 25 -54 64 -68 86 -14 22 -40 51 -57 64 -18 13 -45 38 -61 54 -31
32 -105 106 -154 155 -16 16 -45 47 -64 70 -18 22 -45 43 -60 47 -14 3 -50 33
-81 65 -37 39 -63 58 -79 58 -15 0 -38 15 -60 39 -57 60 -151 132 -185 142
-18 5 -50 24 -72 43 -21 18 -58 43 -80 54 -23 12 -77 46 -121 76 -82 56 -213
126 -235 126 -7 0 -65 25 -128 56 -63 30 -168 73 -232 94 -65 22 -135 51 -155
65 -21 14 -50 25 -66 25 -15 0 -44 7 -64 15 -19 8 -62 15 -94 15 -32 0 -61 5
-64 10 -4 6 -103 10 -265 10 -162 0 -261 -4 -265 -10z m-4958 -915 c23 -10 69
-15 132 -15 110 0 170 -17 263 -73 32 -19 96 -47 143 -62 l84 -27 61 -54 c33
-30 70 -54 81 -54 12 0 43 -21 69 -47 27 -27 72 -70 100 -96 40 -39 50 -55 48
-75 l-3 -27 -47 -3 c-34 -2 -63 4 -104 23 -32 15 -92 37 -133 51 -42 13 -100
36 -129 49 -62 29 -73 30 -115 9 -54 -28 -67 -44 -67 -86 0 -30 7 -46 29 -69
16 -16 38 -29 48 -29 41 0 230 -143 265 -201 24 -40 6 -46 -57 -19 -75 32
-253 90 -277 90 -12 0 -77 27 -145 60 -69 33 -129 60 -135 60 -24 0 -147 65
-188 99 -25 21 -64 48 -86 59 -108 55 -224 146 -275 216 -35 48 -37 80 -4 128
33 48 83 78 133 78 22 0 55 7 73 15 46 19 189 20 236 0z m6099 -1310 c31 -14
61 -25 66 -25 19 0 84 -35 158 -86 83 -57 152 -94 173 -94 7 0 24 -12 38 -26
13 -14 42 -35 64 -46 22 -12 54 -31 70 -44 17 -13 48 -29 70 -36 28 -9 48 -26
68 -56 16 -24 47 -52 70 -64 86 -43 307 -297 307 -352 0 -6 -9 -26 -20 -44
l-20 -32 -40 0 c-22 0 -57 7 -77 15 -19 8 -47 15 -62 15 -28 0 -54 15 -109 62
-18 15 -40 28 -48 28 -28 0 -138 56 -223 115 -46 32 -99 62 -117 67 -20 5 -45
24 -61 44 -14 20 -52 48 -84 64 -31 16 -77 46 -101 67 -25 21 -68 56 -98 78
-72 54 -150 135 -150 154 0 5 16 25 35 44 37 37 45 79 25 132 -9 24 -6 45 5
45 3 0 30 -11 61 -25z"/>
</g>
</svg>
