<?xml version="1.0" standalone="no"?>
<!DOCTYPE svg PUBLIC "-//W3C//DTD SVG 20010904//EN"
 "http://www.w3.org/TR/2001/REC-SVG-20010904/DTD/svg10.dtd">
<svg version="1.0" xmlns="http://www.w3.org/2000/svg"
 width="375.000000pt" height="489.000000pt" viewBox="0 0 375.000000 489.000000"
 preserveAspectRatio="xMidYMid meet">
<metadata>
Created by potrace 1.16, written by Peter Selinger 2001-2019
</metadata>
<g transform="translate(0.000000,489.000000) scale(0.100000,-0.100000)"
fill="#000000" stroke="none">
<path d="M53 4848 l-53 -40 0 -52 0 -52 92 -74 c51 -41 113 -93 138 -115 25
-23 58 -49 74 -59 16 -10 49 -37 74 -60 24 -22 70 -55 101 -72 36 -19 66 -46
84 -72 19 -29 47 -52 85 -72 32 -16 78 -46 104 -67 26 -21 74 -57 107 -81 71
-51 121 -137 121 -207 0 -24 7 -59 15 -78 11 -27 15 -77 15 -195 0 -119 4
-169 15 -195 9 -22 15 -68 15 -117 l0 -80 42 -123 c23 -67 45 -140 49 -162 10
-51 27 -118 45 -175 8 -25 14 -63 14 -85 0 -28 9 -54 30 -85 16 -25 30 -51 30
-58 0 -7 11 -34 24 -60 13 -26 29 -65 35 -87 6 -22 26 -65 45 -95 19 -30 60
-103 90 -161 37 -72 66 -114 90 -133 20 -15 47 -49 60 -75 14 -26 32 -54 42
-62 24 -19 87 -107 109 -149 9 -19 39 -57 66 -85 100 -102 126 -131 173 -192
28 -38 55 -63 66 -63 10 0 62 -44 117 -99 93 -94 177 -167 234 -203 24 -15
160 -129 221 -184 15 -14 43 -55 63 -92 19 -37 55 -91 80 -119 25 -28 45 -56
45 -63 0 -24 45 -98 91 -148 27 -30 52 -66 55 -80 11 -44 43 -101 87 -156 23
-28 54 -77 67 -108 l25 -58 61 0 62 0 6 23 c11 42 6 59 -29 100 -20 23 -38 53
-42 67 -12 49 -96 205 -134 248 -35 40 -66 123 -53 144 8 13 72 9 111 -7 20
-8 66 -15 105 -15 40 0 84 -7 106 -16 29 -12 57 -14 132 -9 137 9 208 32 263
83 l27 26 0 131 0 132 -21 19 c-12 10 -27 31 -35 47 -8 15 -33 38 -55 52 -22
14 -44 38 -50 53 -24 62 -36 77 -86 106 -29 17 -68 50 -88 73 -34 40 -104 92
-195 145 -25 14 -56 38 -69 52 -14 14 -31 26 -39 26 -21 0 -199 87 -236 115
-28 21 -75 39 -206 75 -25 7 -97 15 -160 17 l-115 3 -40 -23 c-22 -12 -50 -40
-63 -62 l-23 -40 4 -107 c3 -84 1 -108 -9 -108 -8 0 -20 13 -28 28 -14 28 -68
79 -120 115 -14 10 -29 32 -34 50 -8 31 -16 38 -104 92 -21 13 -37 34 -46 59
-7 21 -35 63 -63 94 -27 30 -59 73 -71 96 -11 22 -32 54 -47 69 -28 30 -93
131 -137 211 -14 27 -41 71 -59 98 -18 26 -37 63 -40 80 -4 18 -18 53 -30 78
-13 25 -28 63 -34 85 -6 23 -29 71 -51 107 -29 48 -40 78 -40 106 0 22 -7 56
-15 75 -8 20 -15 55 -15 77 0 23 -5 50 -11 61 -6 11 -14 41 -19 67 -11 57 -27
122 -46 182 -8 25 -14 82 -14 126 0 50 -6 95 -15 117 -17 40 -22 281 -6 305
l8 14 31 -16 c17 -9 38 -16 46 -16 8 0 24 -14 36 -30 12 -17 61 -56 108 -87
48 -31 114 -82 147 -113 33 -31 79 -69 103 -85 24 -16 62 -45 85 -65 23 -21
61 -47 83 -58 23 -12 66 -43 95 -70 30 -27 77 -61 104 -75 28 -14 77 -48 110
-76 33 -28 81 -62 106 -75 25 -14 70 -47 100 -74 30 -27 68 -56 86 -65 17 -9
53 -35 79 -58 26 -23 93 -71 147 -107 55 -36 114 -77 131 -92 17 -15 45 -34
62 -43 17 -9 58 -39 90 -66 33 -28 86 -65 119 -83 74 -39 143 -90 174 -129 25
-32 147 -99 180 -99 37 0 45 35 24 102 l-18 61 -59 44 c-32 23 -66 43 -76 43
-10 0 -28 13 -40 30 -12 16 -65 59 -120 95 -54 36 -118 83 -142 104 -23 21
-71 53 -106 71 -35 18 -77 50 -93 71 -19 25 -44 42 -67 49 -20 5 -57 25 -82
45 -131 102 -159 123 -202 148 -26 15 -56 40 -67 56 -12 16 -45 43 -74 60 -28
17 -83 58 -122 91 -71 61 -138 102 -187 114 -15 3 -39 22 -54 42 -15 19 -54
49 -86 65 -35 17 -84 56 -121 94 -35 36 -71 65 -81 65 -10 0 -37 19 -60 43
-39 39 -74 67 -180 141 -23 16 -62 48 -88 72 -26 24 -51 44 -56 44 -10 0 -46
36 -104 105 -20 23 -44 69 -56 108 -13 38 -34 85 -47 105 -14 20 -25 42 -25
50 0 56 -152 225 -300 332 -34 25 -86 64 -115 87 -54 42 -125 83 -145 83 -6 0
-36 11 -66 25 -75 34 -168 65 -198 65 -14 0 -28 5 -31 10 -3 6 -27 10 -53 9
l-47 0 -52 -41z m380 -217 c48 -23 102 -55 120 -71 18 -17 58 -49 90 -73 59
-44 123 -125 108 -140 -4 -4 -21 -2 -37 5 -34 15 -144 96 -144 106 0 5 -24 20
-53 35 -30 15 -76 49 -104 76 -28 27 -65 57 -82 65 -19 10 -31 24 -31 36 l0
20 23 -9 c12 -5 62 -27 110 -50z m2194 -3107 c31 -14 86 -35 122 -46 36 -12
80 -33 96 -48 17 -15 41 -30 55 -33 14 -4 47 -24 74 -47 35 -29 57 -40 81 -40
26 0 38 -8 59 -35 15 -19 51 -47 79 -61 72 -36 150 -97 221 -174 34 -36 82
-86 109 -112 26 -26 52 -59 57 -74 14 -36 13 -157 -2 -172 -18 -18 -259 -16
-305 3 -19 8 -47 15 -60 15 -14 0 -52 13 -86 28 -34 16 -73 32 -87 35 -14 3
-49 25 -77 49 -78 64 -100 80 -172 118 -52 28 -71 45 -90 80 -13 25 -48 82
-77 127 -60 92 -124 262 -124 331 0 87 30 101 127 56z"/>
<path d="M2862 1063 l-73 -57 3 -25 c2 -19 11 -27 34 -32 17 -3 47 -18 66 -32
19 -15 45 -27 57 -27 31 0 117 46 135 72 27 38 21 95 -13 129 l-29 29 -54 0
-54 0 -72 -57z"/>
</g>
</svg>
