<?xml version="1.0" standalone="no"?>
<!DOCTYPE svg PUBLIC "-//W3C//DTD SVG 20010904//EN"
 "http://www.w3.org/TR/2001/REC-SVG-20010904/DTD/svg10.dtd">
<svg version="1.0" xmlns="http://www.w3.org/2000/svg"
 width="861.000000pt" height="363.000000pt" viewBox="0 0 861.000000 363.000000"
 preserveAspectRatio="xMidYMid meet">
<metadata>
Created by potrace 1.16, written by Peter Selinger 2001-2019
</metadata>
<g transform="translate(0.000000,363.000000) scale(0.100000,-0.100000)"
fill="#000000" stroke="none">
<path d="M37 3602 l-37 -25 0 -87 0 -87 38 -39 c21 -21 69 -61 106 -89 37 -27
92 -68 121 -90 29 -22 82 -61 117 -87 113 -83 119 -91 121 -127 l2 -35 -60
-22 c-33 -12 -81 -23 -106 -23 -79 -2 -104 -57 -50 -112 l29 -29 82 0 81 0 62
31 c34 17 83 52 110 77 l47 46 0 66 c-1 94 -35 154 -111 195 -31 17 -79 47
-105 68 -27 20 -78 59 -114 86 -124 94 -121 92 -118 120 l3 26 137 3 c106 2
146 -1 174 -13 20 -8 61 -15 91 -15 40 0 73 -8 120 -30 35 -16 75 -30 89 -30
14 0 41 -7 61 -15 19 -8 53 -15 75 -15 21 0 55 -7 75 -15 19 -8 47 -15 60 -15
14 0 54 -13 90 -30 35 -16 74 -30 87 -30 12 0 60 -13 106 -30 47 -16 94 -30
105 -30 32 0 134 -39 174 -66 19 -13 42 -24 51 -24 8 0 35 -14 60 -30 25 -16
51 -30 58 -30 8 0 43 -13 79 -30 35 -16 70 -30 76 -30 7 0 54 -20 105 -45 52
-25 98 -45 104 -45 15 0 159 -89 193 -119 17 -15 57 -36 90 -46 41 -13 73 -32
101 -60 64 -62 153 -126 190 -137 20 -5 45 -24 61 -44 14 -20 48 -46 74 -59
60 -31 209 -168 272 -251 31 -41 55 -64 68 -64 13 0 29 -16 47 -47 15 -25 50
-70 78 -99 36 -37 54 -65 62 -97 25 -97 142 -154 191 -91 32 41 33 56 6 135
-26 79 -33 167 -13 187 9 9 94 12 320 12 l309 0 36 -15 c19 -8 53 -15 75 -15
23 0 67 -13 105 -30 35 -17 75 -30 89 -30 14 0 41 -7 61 -15 19 -8 44 -15 55
-15 11 0 72 -17 136 -37 l116 -38 53 -54 c28 -30 58 -69 66 -85 8 -17 30 -65
48 -106 19 -41 55 -98 81 -127 26 -29 58 -70 72 -90 29 -47 57 -72 118 -106
26 -15 56 -41 68 -57 54 -75 280 -140 322 -92 32 35 48 82 48 136 0 36 5 60
16 70 19 19 8 20 79 -4 95 -33 203 -88 244 -126 21 -19 44 -34 51 -34 6 0 41
-13 77 -30 35 -17 70 -30 76 -30 7 0 26 -9 42 -21 17 -11 93 -52 170 -91 77
-39 153 -81 170 -93 16 -13 77 -47 135 -75 58 -29 126 -69 151 -91 29 -24 73
-47 115 -60 38 -12 83 -35 99 -50 31 -28 191 -112 235 -122 14 -4 44 -22 67
-42 23 -19 88 -58 145 -87 56 -28 117 -61 133 -74 17 -12 77 -46 135 -75 58
-29 119 -62 135 -75 17 -12 59 -37 94 -54 35 -18 81 -48 101 -66 21 -19 44
-34 52 -34 8 0 41 -18 72 -40 l58 -41 62 3 61 3 3 31 c4 44 -36 116 -70 125
-14 4 -60 30 -102 58 -82 55 -207 121 -229 121 -7 0 -24 12 -38 26 -13 14 -41
35 -63 46 -21 11 -57 33 -79 49 -22 16 -46 29 -54 29 -26 0 -98 39 -147 79
-26 23 -55 41 -63 41 -30 0 -149 63 -202 106 -29 24 -60 44 -68 44 -30 0 -149
63 -202 106 -29 24 -60 44 -69 44 -22 0 -257 115 -296 145 -18 14 -55 32 -82
40 -27 8 -65 26 -84 40 -19 15 -71 45 -115 67 -44 22 -93 51 -110 63 -16 13
-52 35 -80 49 -27 15 -75 43 -105 62 -30 19 -72 39 -92 44 -42 12 -71 26 -113
56 -39 28 -171 94 -188 94 -7 0 -50 25 -95 55 -91 61 -144 89 -182 98 -14 4
-44 22 -67 42 -23 19 -90 60 -150 90 -59 29 -130 72 -157 94 -26 23 -55 41
-63 41 -8 0 -44 13 -80 30 -35 16 -70 30 -76 30 -7 0 -29 11 -49 25 -44 30
-179 72 -300 95 -26 5 -56 13 -67 19 -11 6 -30 11 -43 11 -13 0 -62 13 -108
30 -62 21 -104 30 -152 30 -39 0 -85 7 -108 16 -29 12 -53 14 -83 9 -23 -4
-53 -7 -67 -6 -14 1 -85 4 -158 7 l-133 6 -40 -16 c-22 -9 -57 -16 -79 -16
-22 0 -66 -13 -103 -30 -105 -48 -111 -46 -247 85 -47 45 -121 106 -165 135
-44 29 -93 70 -109 92 -17 24 -50 50 -87 69 -33 16 -76 45 -97 63 -20 18 -53
41 -72 51 -19 9 -55 34 -80 55 -25 20 -64 47 -86 58 -23 12 -79 47 -124 78
-82 56 -268 154 -292 154 -8 0 -30 12 -51 26 -69 47 -273 144 -303 144 -16 0
-71 20 -123 45 -103 50 -198 85 -232 85 -12 0 -61 18 -108 41 -124 58 -252 96
-371 109 -41 4 -106 20 -145 34 -42 15 -91 26 -123 26 -29 0 -69 7 -89 15 -19
8 -48 15 -64 15 -15 0 -31 5 -34 10 -4 6 -102 10 -263 9 l-257 -1 -38 -26z
m5394 -1952 c24 -11 63 -34 86 -52 92 -72 180 -228 128 -228 -32 0 -142 83
-174 131 -18 27 -43 56 -57 66 -36 23 -59 70 -43 89 14 17 8 18 60 -6z"/>
</g>
</svg>
