<?xml version="1.0" standalone="no"?>
<!DOCTYPE svg PUBLIC "-//W3C//DTD SVG 20010904//EN"
 "http://www.w3.org/TR/2001/REC-SVG-20010904/DTD/svg10.dtd">
<svg version="1.0" xmlns="http://www.w3.org/2000/svg"
 width="363.000000pt" height="255.000000pt" viewBox="0 0 363.000000 255.000000"
 preserveAspectRatio="xMidYMid meet">
<metadata>
Created by potrace 1.16, written by Peter Selinger 2001-2019
</metadata>
<g transform="translate(0.000000,255.000000) scale(0.100000,-0.100000)"
fill="#000000" stroke="none">
<path d="M395 2540 c-3 -5 -20 -10 -36 -10 -35 0 -89 -26 -171 -82 -60 -41
-71 -53 -144 -155 l-44 -63 0 -164 c0 -99 4 -167 10 -171 6 -3 10 -19 10 -36
0 -38 151 -340 196 -393 19 -22 39 -56 44 -76 6 -21 30 -55 60 -85 28 -28 63
-68 77 -90 15 -22 59 -74 99 -115 39 -41 83 -94 97 -116 14 -23 40 -52 57 -65
18 -13 45 -37 61 -54 219 -227 448 -439 531 -495 20 -14 49 -44 65 -69 15 -24
44 -54 65 -67 20 -13 51 -36 70 -52 18 -16 56 -41 83 -56 28 -15 85 -49 128
-76 l79 -50 54 0 c62 0 66 8 34 69 -11 23 -46 58 -87 89 -37 28 -78 64 -90 80
-13 18 -39 35 -65 43 -31 10 -50 25 -71 57 -16 23 -46 51 -68 62 -38 20 -111
87 -306 283 -25 24 -58 58 -74 73 -83 83 -375 410 -424 476 -16 22 -49 61 -71
87 -48 53 -124 164 -160 230 -13 25 -40 65 -59 89 -19 24 -35 55 -35 68 0 14
-21 86 -47 162 l-47 137 1 104 1 104 29 41 c38 54 108 106 143 106 15 0 44 7
63 15 27 11 76 15 192 15 116 0 165 -4 192 -15 22 -9 67 -15 120 -15 52 0 97
-6 120 -15 19 -8 52 -15 71 -15 20 0 96 -20 169 -45 73 -25 140 -45 150 -45
20 0 213 -63 253 -83 14 -6 43 -24 64 -39 21 -16 52 -28 68 -28 17 0 59 -13
95 -30 35 -16 70 -30 76 -30 7 0 26 -9 42 -21 49 -33 177 -96 212 -103 17 -4
52 -25 76 -47 25 -21 51 -39 59 -39 23 -1 85 -34 135 -73 26 -20 77 -60 112
-87 35 -28 73 -50 84 -50 11 0 39 -19 61 -43 23 -24 61 -59 86 -78 97 -73 369
-348 395 -398 9 -18 36 -57 59 -86 34 -41 52 -79 86 -183 l44 -132 -28 -84
c-29 -88 -71 -154 -143 -223 -28 -26 -43 -48 -43 -65 0 -28 28 -58 54 -58 33
0 100 43 161 104 69 68 84 92 114 186 12 36 26 73 31 82 13 23 13 195 0 203
-5 3 -10 20 -10 36 0 38 -59 156 -113 224 -23 29 -62 81 -87 116 -60 83 -350
372 -430 429 -35 25 -84 66 -109 91 -45 46 -97 79 -124 79 -7 0 -24 12 -38 26
-13 14 -41 35 -63 46 -21 11 -56 32 -77 48 -21 15 -54 31 -73 34 -18 4 -53 24
-77 45 -46 39 -99 71 -121 71 -6 0 -94 41 -195 90 -143 70 -193 90 -226 90
-30 0 -55 9 -87 30 -25 16 -52 30 -60 30 -8 0 -35 14 -60 30 -25 16 -58 30
-73 30 -15 0 -44 7 -64 15 -19 8 -51 15 -71 15 -19 0 -97 20 -171 44 -174 56
-215 67 -276 73 -27 3 -54 9 -59 14 -14 13 -553 12 -561 -1z"/>
</g>
</svg>
