<?xml version="1.0" standalone="no"?>
<!DOCTYPE svg PUBLIC "-//W3C//DTD SVG 20010904//EN"
 "http://www.w3.org/TR/2001/REC-SVG-20010904/DTD/svg10.dtd">
<svg version="1.0" xmlns="http://www.w3.org/2000/svg"
 width="375.000000pt" height="258.000000pt" viewBox="0 0 375.000000 258.000000"
 preserveAspectRatio="xMidYMid meet">
<metadata>
Created by potrace 1.16, written by Peter Selinger 2001-2019
</metadata>
<g transform="translate(0.000000,258.000000) scale(0.100000,-0.100000)"
fill="#000000" stroke="none">
<path d="M425 2570 c-3 -5 -20 -10 -36 -10 -56 0 -147 -56 -229 -140 -92 -95
-140 -178 -140 -243 0 -25 -4 -49 -10 -52 -13 -8 -13 -132 0 -140 5 -3 10 -46
10 -94 0 -56 6 -102 15 -124 8 -20 15 -49 15 -65 0 -18 10 -38 30 -57 21 -20
30 -38 30 -60 0 -22 9 -40 30 -60 17 -16 30 -35 30 -42 0 -37 131 -241 213
-332 26 -30 61 -79 77 -110 20 -40 65 -91 154 -178 68 -67 136 -139 150 -161
13 -21 44 -51 68 -65 24 -14 72 -57 108 -97 37 -41 101 -96 149 -128 46 -30
98 -67 115 -82 17 -15 54 -39 81 -53 28 -14 72 -44 99 -66 26 -23 55 -41 64
-41 22 0 195 -85 243 -120 27 -19 54 -30 75 -30 18 0 36 -4 39 -10 3 -5 40
-10 81 -10 l74 0 0 21 c0 31 -96 127 -139 139 -57 15 -130 54 -221 115 -45 32
-97 61 -115 66 -17 5 -49 24 -71 42 -21 18 -56 43 -77 55 -56 32 -232 183
-357 305 -25 24 -61 56 -81 71 -20 15 -49 46 -65 69 -16 23 -46 63 -69 88 -68
78 -128 151 -171 209 -22 30 -48 61 -57 69 -10 8 -17 28 -17 46 l0 33 -41 33
c-31 24 -54 58 -90 132 -27 55 -49 107 -49 116 0 8 -12 27 -27 43 -16 16 -40
67 -60 125 l-33 98 0 169 0 169 21 33 c11 18 41 49 67 68 26 19 56 44 66 55
15 17 31 21 76 21 32 0 74 7 93 15 28 12 81 15 237 15 156 0 209 -3 237 -15
22 -9 67 -15 120 -15 52 0 97 -6 120 -15 19 -8 59 -15 87 -15 53 0 132 -23
224 -66 29 -13 69 -24 90 -24 52 0 137 -32 170 -63 22 -21 38 -27 71 -27 26 0
67 -11 108 -30 35 -16 69 -30 75 -30 16 0 146 -66 208 -106 30 -19 71 -39 90
-44 59 -16 143 -60 191 -100 26 -22 68 -49 95 -61 68 -30 64 -27 146 -94 40
-33 87 -69 103 -79 17 -11 57 -45 90 -76 33 -31 76 -67 96 -80 20 -13 46 -39
59 -59 13 -20 56 -70 95 -111 40 -41 80 -88 91 -105 10 -16 38 -54 61 -82 23
-29 49 -74 56 -101 17 -54 66 -156 104 -214 l26 -38 0 -123 0 -123 -42 -69
c-45 -76 -51 -109 -22 -125 30 -16 76 -12 93 8 29 32 108 202 108 231 0 16 4
33 10 36 6 3 10 48 10 100 0 52 -4 97 -10 100 -5 3 -10 21 -10 38 0 19 -12 51
-30 77 -16 25 -30 58 -30 74 0 38 -50 130 -105 193 -25 28 -45 57 -45 65 0 7
-13 35 -28 62 -20 37 -42 59 -86 85 -45 28 -61 44 -70 71 -7 23 -25 44 -54 63
-24 16 -54 46 -67 67 -13 20 -38 48 -56 61 -18 13 -53 45 -78 70 -25 26 -69
58 -97 72 -28 14 -78 49 -110 76 -32 28 -86 65 -119 82 -33 17 -80 48 -105 69
-46 38 -120 80 -141 80 -16 0 -145 65 -207 104 -29 19 -91 46 -137 61 -47 15
-107 38 -135 51 -27 13 -55 24 -61 24 -5 0 -35 11 -65 25 -82 37 -169 65 -207
65 -36 0 -124 28 -205 66 -29 13 -71 24 -93 24 -22 0 -56 7 -76 15 -19 8 -55
15 -79 15 -23 0 -46 5 -49 10 -4 6 -143 10 -385 10 -242 0 -381 -4 -385 -10z"/>
</g>
</svg>
