<?xml version="1.0" standalone="no"?>
<!DOCTYPE svg PUBLIC "-//W3C//DTD SVG 20010904//EN"
 "http://www.w3.org/TR/2001/REC-SVG-20010904/DTD/svg10.dtd">
<svg version="1.0" xmlns="http://www.w3.org/2000/svg"
 width="291.000000pt" height="411.000000pt" viewBox="0 0 291.000000 411.000000"
 preserveAspectRatio="xMidYMid meet">
<metadata>
Created by potrace 1.16, written by Peter Selinger 2001-2019
</metadata>
<g transform="translate(0.000000,411.000000) scale(0.100000,-0.100000)"
fill="#000000" stroke="none">
<path d="M80 4090 c-14 -11 -37 -22 -52 -25 l-28 -7 0 -103 0 -104 83 -88 c46
-48 98 -107 116 -130 18 -24 40 -43 49 -43 10 0 36 -23 60 -50 27 -32 67 -62
105 -82 45 -22 98 -66 192 -159 72 -70 141 -145 153 -166 67 -110 100 -171
105 -193 4 -14 22 -50 41 -80 44 -69 106 -190 106 -207 0 -25 98 -208 124
-232 17 -16 26 -35 26 -55 0 -20 10 -40 30 -61 25 -26 65 -92 133 -220 8 -16
24 -50 33 -74 10 -24 36 -65 57 -90 21 -25 40 -57 44 -71 9 -37 70 -156 108
-212 18 -26 37 -63 40 -80 11 -49 73 -168 112 -212 18 -22 38 -57 43 -78 7
-25 24 -49 51 -70 27 -22 54 -60 84 -121 25 -49 45 -97 45 -107 0 -10 18 -40
41 -66 46 -55 92 -140 108 -199 6 -22 26 -65 45 -95 49 -78 68 -122 57 -133
-13 -13 -62 16 -89 52 -12 17 -39 39 -60 50 -42 21 -124 86 -217 172 -33 30
-73 64 -90 74 -16 10 -50 38 -75 61 -26 24 -64 49 -85 56 -28 9 -48 26 -68 56
-37 54 -108 92 -175 92 -74 0 -89 -28 -53 -98 23 -45 60 -80 123 -115 26 -15
56 -40 67 -56 12 -16 45 -43 74 -60 28 -17 77 -52 107 -77 30 -25 84 -69 120
-97 35 -29 108 -92 161 -142 52 -49 115 -103 138 -120 23 -16 59 -42 79 -57
20 -14 51 -46 68 -69 22 -32 43 -48 75 -59 42 -15 48 -22 79 -89 3 -8 13 -18
21 -21 8 -4 24 -12 36 -18 13 -7 49 -12 80 -12 l58 1 27 42 c48 77 53 94 40
143 -7 24 -12 55 -12 69 0 33 -37 72 -84 87 l-40 13 -48 70 c-26 39 -55 92
-63 119 -8 27 -26 63 -39 80 -13 17 -54 92 -91 166 -37 74 -77 149 -90 165
-31 42 -71 123 -84 172 -8 30 -24 52 -52 75 -27 22 -54 60 -84 121 -25 49 -45
97 -45 107 0 10 -18 40 -40 66 -22 27 -45 65 -50 84 -5 19 -25 60 -44 90 -54
86 -93 162 -105 205 -6 22 -26 65 -45 95 -50 78 -136 250 -136 271 0 10 -27
48 -60 86 -34 38 -67 87 -76 113 -9 25 -21 58 -27 74 -6 15 -30 51 -53 78 -44
51 -73 133 -54 152 5 5 29 -4 57 -21 26 -17 60 -33 76 -37 15 -4 57 -35 95
-69 37 -35 88 -75 114 -90 26 -15 56 -41 68 -57 12 -17 40 -40 63 -51 23 -12
113 -69 199 -126 115 -76 166 -116 186 -146 20 -31 39 -46 70 -56 27 -8 52
-26 69 -47 14 -19 58 -55 97 -81 39 -26 91 -66 116 -89 25 -23 70 -54 100 -69
51 -26 156 -123 240 -222 38 -45 78 -61 119 -47 l26 9 3 53 3 53 -28 36 c-65
82 -223 233 -293 278 -41 27 -88 61 -105 75 -16 15 -66 50 -110 79 -44 30 -93
71 -109 92 -15 22 -45 48 -66 59 -21 10 -73 44 -117 73 -43 30 -102 66 -130
80 -27 14 -74 48 -104 75 -30 27 -78 62 -107 77 -29 15 -61 39 -70 53 -32 48
-99 112 -118 112 -11 0 -38 23 -62 50 -24 28 -65 61 -91 75 -53 27 -172 105
-211 139 -14 12 -41 33 -61 46 -19 12 -51 46 -70 74 -24 35 -46 55 -68 62 -38
12 -67 46 -77 88 -3 16 -19 56 -35 90 -16 34 -29 68 -29 78 0 9 -18 31 -40 48
-23 18 -52 55 -67 84 -14 28 -35 65 -48 81 -12 17 -31 48 -43 71 -11 22 -28
47 -38 55 -9 8 -35 39 -57 69 -58 80 -116 139 -162 162 -22 11 -63 38 -92 59
l-52 39 -73 0 c-57 0 -79 -5 -98 -20z m219 -240 c22 -22 41 -44 41 -49 0 -5
16 -16 35 -25 19 -10 42 -27 50 -40 16 -25 11 -56 -9 -56 -15 0 -166 153 -166
168 0 6 -3 17 -6 26 -11 27 12 18 55 -24z"/>
</g>
</svg>
