<?xml version="1.0" standalone="no"?>
<!DOCTYPE svg PUBLIC "-//W3C//DTD SVG 20010904//EN"
 "http://www.w3.org/TR/2001/REC-SVG-20010904/DTD/svg10.dtd">
<svg version="1.0" xmlns="http://www.w3.org/2000/svg"
 width="648.000000pt" height="333.000000pt" viewBox="0 0 648.000000 333.000000"
 preserveAspectRatio="xMidYMid meet">
<metadata>
Created by potrace 1.16, written by Peter Selinger 2001-2019
</metadata>
<g transform="translate(0.000000,333.000000) scale(0.100000,-0.100000)"
fill="#000000" stroke="none">
<path d="M3555 3310 c-4 -12 -31 -35 -61 -51 -73 -42 -84 -60 -84 -139 l0 -65
38 -56 c46 -68 166 -194 204 -214 15 -8 61 -46 102 -85 42 -38 80 -70 85 -70
6 0 50 -37 98 -83 48 -46 108 -95 133 -109 25 -14 55 -39 67 -56 12 -16 47
-44 78 -61 31 -17 58 -39 61 -49 19 -59 43 -97 78 -125 51 -40 64 -55 72 -87
4 -14 19 -46 35 -71 16 -25 29 -51 29 -58 0 -7 18 -33 39 -58 22 -24 43 -59
46 -76 4 -18 23 -57 42 -87 63 -99 110 -185 116 -210 4 -14 22 -50 41 -80 47
-74 136 -249 136 -269 0 -23 87 -148 120 -171 23 -16 30 -29 30 -54 0 -24 13
-49 50 -95 29 -36 56 -82 65 -113 8 -28 25 -65 38 -82 26 -34 61 -116 50 -116
-27 0 -157 77 -179 106 -15 19 -49 46 -77 62 -30 16 -63 45 -82 71 -23 33 -50
54 -110 85 -44 23 -119 67 -166 99 -47 31 -93 57 -102 57 -10 0 -44 26 -76 58
-62 62 -200 142 -243 142 -37 0 -85 -36 -108 -79 -15 -30 -20 -59 -20 -114 l0
-74 -29 -40 c-16 -21 -46 -53 -67 -70 -65 -51 -203 -114 -269 -123 -71 -10
-119 -22 -240 -61 l-91 -29 -377 0 -378 0 -36 15 c-27 12 -79 15 -225 15 -145
0 -197 3 -225 15 -23 10 -69 15 -135 15 -65 0 -111 5 -135 15 -20 8 -66 15
-105 15 -38 0 -84 7 -105 15 -19 8 -45 15 -57 15 -27 0 -123 32 -194 66 -29
13 -71 24 -93 24 -22 0 -56 7 -76 15 -20 8 -66 15 -105 15 l-70 0 -65 30 c-35
17 -69 30 -75 30 -5 0 -39 14 -75 30 -35 16 -69 30 -75 30 -16 0 -205 96 -268
136 -30 19 -66 37 -80 41 -14 3 -38 18 -55 33 -16 14 -50 42 -75 60 -25 19
-63 53 -86 77 -22 24 -50 43 -61 43 -11 0 -37 11 -57 25 -40 27 -66 31 -97 15
-29 -16 -27 -85 4 -105 12 -8 36 -35 52 -60 22 -36 61 -67 177 -145 82 -55
167 -109 190 -121 22 -11 59 -34 81 -50 22 -16 47 -29 56 -29 9 0 58 -20 109
-45 52 -25 98 -45 104 -45 5 0 39 -13 75 -30 35 -16 70 -30 76 -30 7 0 32 -14
57 -30 l45 -30 58 0 c32 0 74 -7 94 -15 19 -8 53 -15 75 -15 21 0 55 -7 75
-15 19 -8 46 -15 60 -15 13 0 49 -11 79 -25 92 -42 171 -65 224 -65 28 0 67
-7 87 -15 26 -11 74 -15 179 -15 108 0 153 -4 183 -16 32 -13 62 -15 143 -10
151 9 147 9 228 -4 81 -13 84 -13 265 -4 76 4 133 2 156 -5 24 -7 46 -8 62 -2
13 5 132 11 263 12 168 2 249 7 271 16 18 7 57 13 86 13 30 0 71 7 90 15 20 8
54 15 76 15 23 0 67 13 104 30 36 17 71 30 79 30 7 0 33 14 58 30 25 16 52 30
59 30 33 0 147 89 180 139 37 58 93 101 132 101 15 0 36 -11 50 -26 13 -14 45
-37 70 -49 25 -13 70 -46 100 -73 30 -27 74 -59 99 -72 25 -13 71 -44 103 -69
32 -25 87 -68 122 -96 35 -27 73 -63 85 -78 12 -15 49 -41 81 -57 32 -17 89
-58 126 -93 38 -34 87 -75 111 -91 46 -31 172 -160 172 -176 0 -6 33 -10 78
-10 l77 1 28 43 c15 24 27 51 27 60 0 21 -35 91 -65 131 -12 17 -30 46 -40 65
-9 19 -30 49 -45 65 -15 17 -30 41 -33 55 -4 14 -24 55 -47 92 -22 37 -40 72
-40 78 0 20 -38 85 -64 109 -14 14 -26 32 -26 40 0 14 -20 51 -85 160 -73 121
-95 161 -95 172 0 6 -16 29 -36 51 -35 39 -114 188 -114 215 0 23 -41 96 -81
143 -47 56 -99 164 -99 206 0 19 -12 48 -31 74 -53 73 -71 140 -38 140 13 0
199 -123 249 -165 23 -19 46 -35 51 -35 8 0 197 -172 279 -254 l46 -46 58 0
c68 0 100 -16 139 -71 28 -39 77 -70 129 -83 14 -3 50 -28 80 -55 52 -48 124
-91 151 -91 8 0 32 -13 53 -30 21 -16 77 -55 124 -87 47 -31 105 -76 130 -99
55 -50 119 -84 160 -84 l30 0 0 69 0 69 -52 41 c-55 44 -151 117 -243 186 -29
22 -81 61 -115 87 -34 27 -69 48 -77 48 -36 0 -123 53 -198 120 -16 15 -42 30
-56 34 -14 3 -54 30 -88 61 -34 30 -69 55 -79 55 -9 0 -30 9 -47 21 -16 11
-55 33 -86 49 -31 16 -103 72 -160 125 -57 53 -124 107 -149 120 -25 12 -73
47 -107 76 -145 126 -247 194 -330 221 l-67 22 -82 84 c-55 55 -85 94 -90 115
-3 18 -22 49 -40 69 -19 21 -61 93 -95 160 -34 67 -78 142 -99 167 -21 26 -48
66 -60 91 -12 25 -42 66 -65 91 -23 25 -54 63 -68 85 -14 21 -49 62 -78 90
-49 46 -82 70 -206 147 l-43 27 -69 0 -70 0 -6 -20z m128 -190 c14 -11 29 -29
32 -40 4 -12 21 -24 45 -30 41 -11 70 -41 70 -74 0 -11 19 -38 43 -60 58 -56
100 -114 93 -131 l-5 -13 -34 17 c-19 10 -64 42 -100 72 -36 30 -77 62 -91 72
-14 10 -30 34 -36 56 -6 24 -24 51 -43 67 -44 36 -50 50 -31 68 20 21 26 20
57 -4z"/>
</g>
</svg>
