<?xml version="1.0" standalone="no"?>
<!DOCTYPE svg PUBLIC "-//W3C//DTD SVG 20010904//EN"
 "http://www.w3.org/TR/2001/REC-SVG-20010904/DTD/svg10.dtd">
<svg version="1.0" xmlns="http://www.w3.org/2000/svg"
 width="699.000000pt" height="258.000000pt" viewBox="0 0 699.000000 258.000000"
 preserveAspectRatio="xMidYMid meet">
<metadata>
Created by potrace 1.16, written by Peter Selinger 2001-2019
</metadata>
<g transform="translate(0.000000,258.000000) scale(0.100000,-0.100000)"
fill="#000000" stroke="none">
<path d="M23 2554 l-23 -25 0 -104 c0 -60 4 -106 10 -110 6 -4 21 -28 35 -54
13 -26 40 -61 61 -77 20 -16 57 -50 83 -75 25 -26 62 -55 81 -64 19 -10 49
-29 67 -42 17 -13 47 -28 65 -34 19 -5 52 -24 74 -43 40 -34 160 -99 204 -109
14 -4 43 -22 65 -40 50 -43 117 -77 150 -77 14 0 42 -7 62 -15 19 -8 47 -15
62 -15 14 0 42 -11 62 -24 46 -31 238 -96 284 -96 20 0 52 -7 72 -15 19 -8 61
-15 92 -15 72 0 136 -31 172 -84 14 -21 44 -51 65 -65 22 -15 51 -48 66 -78
16 -28 45 -63 65 -79 48 -36 56 -45 98 -124 19 -36 59 -93 88 -127 50 -59 97
-166 97 -221 0 -11 7 -36 15 -55 22 -53 18 -122 -11 -207 -31 -94 -40 -106
-136 -207 -82 -86 -94 -115 -60 -146 10 -10 26 -17 36 -17 28 0 170 76 196
107 63 70 108 148 139 241 l21 61 0 146 0 145 -36 72 c-20 40 -53 93 -73 118
-51 62 -101 143 -101 164 0 10 -24 43 -53 74 -29 31 -61 67 -71 79 l-19 23 13
15 c17 21 186 21 237 0 19 -8 60 -15 90 -15 29 0 68 -6 86 -13 22 -10 90 -14
224 -15 147 -1 201 -5 229 -17 27 -11 74 -15 181 -15 105 0 153 -4 180 -15 46
-19 501 -22 536 -3 12 6 56 15 97 19 71 7 122 17 200 42 19 6 53 14 75 18 51
10 117 27 175 45 25 8 56 14 69 14 32 0 243 141 271 180 29 41 66 40 122 -5
24 -19 68 -48 98 -64 30 -16 77 -48 104 -70 26 -23 56 -41 66 -41 11 0 21 -4
25 -10 10 -17 148 -125 222 -173 40 -27 82 -62 94 -78 11 -16 37 -38 57 -48
41 -21 250 -160 297 -198 63 -50 141 -109 180 -135 22 -15 62 -50 90 -78 31
-31 64 -54 87 -60 20 -6 61 -32 90 -58 29 -27 87 -70 128 -97 41 -27 95 -68
120 -90 25 -22 61 -51 80 -64 20 -13 48 -41 64 -62 15 -22 49 -50 76 -64 26
-13 87 -61 135 -105 l87 -81 37 3 36 3 3 62 3 63 -23 31 c-13 17 -48 47 -78
68 -30 20 -78 60 -107 89 -29 28 -60 52 -69 52 -9 0 -45 32 -81 70 -36 39 -77
73 -91 77 -15 3 -45 25 -68 47 -23 23 -69 61 -103 86 -35 25 -87 64 -116 87
-29 23 -75 53 -103 67 -27 14 -73 47 -103 74 -30 26 -74 60 -99 74 -25 14 -56
38 -69 52 -14 14 -32 26 -41 26 -9 0 -36 15 -60 33 -24 17 -62 45 -84 60 -23
16 -59 46 -81 66 -22 21 -61 50 -87 64 -26 15 -56 41 -68 57 -12 17 -38 39
-59 49 -36 19 -111 77 -200 157 -40 35 -150 111 -287 196 -59 38 -74 77 -74
192 0 129 -25 206 -84 261 -24 22 -53 59 -65 83 -12 24 -38 53 -61 67 -22 14
-65 48 -95 75 -30 28 -63 50 -73 50 -9 0 -59 20 -110 45 -104 50 -159 57 -215
29 -63 -32 -67 -40 -67 -126 l0 -79 25 -47 c14 -28 68 -89 137 -155 122 -115
148 -141 212 -208 24 -24 55 -52 69 -62 38 -25 43 -59 21 -129 l-19 -59 -50
-38 c-49 -37 -114 -71 -133 -71 -6 0 -39 -13 -74 -30 -34 -16 -75 -30 -89 -30
-15 0 -43 -7 -62 -15 -20 -8 -61 -15 -90 -15 -30 0 -71 -7 -90 -15 l-36 -15
-426 0 -426 0 -36 15 c-22 9 -67 15 -120 15 -52 0 -97 6 -120 15 -26 11 -74
15 -177 15 l-142 0 -84 30 c-62 21 -104 30 -153 30 -37 0 -84 7 -104 15 -19 8
-65 15 -101 15 -41 0 -90 8 -131 22 l-65 22 -87 81 c-82 75 -127 112 -223 178
-23 16 -59 46 -81 67 -22 21 -62 49 -90 63 -27 14 -72 44 -99 66 -26 23 -55
41 -63 41 -19 0 -160 85 -196 118 -26 25 -46 38 -167 107 -29 17 -73 44 -99
61 -26 17 -67 42 -91 54 -25 13 -59 33 -76 46 -33 25 -113 54 -152 54 -12 0
-25 7 -28 15 l-6 15 -152 -1 -151 -1 -22 -24z m304 -155 c20 -12 55 -26 79
-30 25 -5 59 -19 77 -33 39 -29 111 -66 130 -66 7 0 24 -12 38 -26 13 -14 42
-35 64 -46 22 -12 54 -31 70 -43 17 -13 50 -33 75 -45 25 -12 65 -39 90 -60
25 -20 65 -47 90 -60 42 -21 63 -36 199 -143 29 -23 64 -48 76 -54 12 -7 28
-20 35 -28 l13 -16 -15 -15 -14 -15 -68 31 c-37 16 -72 30 -78 30 -5 0 -39 14
-75 30 -35 17 -74 30 -87 30 -44 0 -169 49 -221 86 -16 12 -59 37 -95 54 -36
18 -108 61 -160 95 -52 35 -109 66 -127 70 -22 4 -59 33 -117 91 l-86 84 0 34
c0 64 45 83 107 45z m4057 -119 c24 -10 59 -38 80 -62 20 -24 48 -54 60 -68
28 -29 56 -82 56 -105 0 -27 -28 -16 -50 20 -23 38 -97 105 -115 105 -16 0
-115 101 -115 117 0 19 35 16 84 -7z"/>
</g>
</svg>
