<?xml version="1.0" standalone="no"?>
<!DOCTYPE svg PUBLIC "-//W3C//DTD SVG 20010904//EN"
 "http://www.w3.org/TR/2001/REC-SVG-20010904/DTD/svg10.dtd">
<svg version="1.0" xmlns="http://www.w3.org/2000/svg"
 width="615.000000pt" height="348.000000pt" viewBox="0 0 615.000000 348.000000"
 preserveAspectRatio="xMidYMid meet">
<metadata>
Created by potrace 1.16, written by Peter Selinger 2001-2019
</metadata>
<g transform="translate(0.000000,348.000000) scale(0.100000,-0.100000)"
fill="#000000" stroke="none">
<path d="M75 3463 c-16 -9 -40 -25 -52 -36 l-23 -20 0 -63 c0 -35 5 -66 10
-69 6 -3 10 -15 10 -27 0 -11 22 -41 49 -68 28 -27 64 -76 81 -109 39 -78 138
-225 215 -320 67 -82 64 -78 93 -142 13 -29 36 -58 61 -75 22 -16 54 -51 71
-77 23 -35 46 -55 85 -74 l54 -27 25 12 c16 7 26 20 26 32 0 31 -48 119 -91
169 -21 24 -41 59 -45 78 -4 20 -19 49 -34 67 -45 52 -119 165 -157 240 -20
39 -51 89 -69 110 -19 22 -38 54 -43 73 -5 18 -19 46 -31 63 -12 16 -20 38
-18 48 l4 17 59 -3 58 -3 66 -40 c36 -22 83 -44 104 -50 55 -15 141 -63 145
-81 2 -9 -15 -30 -38 -48 l-40 -32 0 -34 c0 -48 14 -70 61 -100 22 -14 49 -41
61 -60 11 -19 50 -54 87 -79 l67 -45 44 0 c31 0 57 -8 89 -29 87 -55 177 -94
202 -88 47 13 89 47 111 91 l21 44 -23 71 c-12 39 -30 75 -38 80 -9 5 -12 15
-9 25 8 21 123 22 174 1 26 -11 74 -15 180 -15 105 0 153 -4 180 -15 28 -12
83 -15 260 -15 l224 0 24 -25 c14 -13 25 -35 25 -49 0 -14 10 -56 22 -92 l22
-67 89 -78 c82 -71 188 -139 217 -139 6 0 41 -13 77 -30 37 -17 81 -30 103
-30 22 0 58 -7 81 -16 l40 -17 57 19 c31 10 71 31 87 46 17 15 38 28 46 28 31
0 79 78 79 127 0 15 -7 46 -16 70 -17 45 -13 87 10 96 7 3 94 -21 192 -53 186
-60 239 -75 314 -90 25 -5 78 -25 119 -45 41 -20 108 -47 150 -61 42 -13 95
-33 118 -44 23 -11 97 -38 165 -60 156 -51 202 -73 313 -149 49 -33 96 -61
103 -61 26 0 120 -49 158 -82 20 -18 61 -51 90 -73 28 -22 85 -67 125 -100 41
-33 92 -72 115 -88 22 -15 124 -111 226 -215 l185 -187 43 -85 c24 -47 58
-103 77 -124 18 -22 38 -56 43 -75 5 -20 25 -61 44 -91 52 -80 76 -132 76
-161 0 -15 7 -43 15 -62 10 -24 15 -70 15 -135 0 -68 5 -112 16 -137 l16 -38
-16 -41 c-9 -23 -16 -65 -16 -94 0 -65 -19 -113 -69 -172 -41 -49 -81 -120
-81 -145 l0 -15 73 1 72 0 56 87 c31 48 61 106 68 128 6 23 18 47 26 54 l15
12 0 254 c0 149 -4 261 -10 272 -5 9 -19 46 -31 82 -11 36 -34 82 -49 104 -16
21 -41 77 -57 125 -17 56 -38 99 -60 123 -18 21 -46 65 -63 98 -28 55 -136
200 -160 215 -6 4 -10 16 -10 27 0 26 -81 108 -107 108 -11 0 -34 17 -51 39
-17 21 -66 67 -108 102 -43 35 -105 89 -139 120 -33 30 -73 63 -88 73 -15 9
-52 39 -81 65 -33 30 -66 51 -88 55 -20 4 -55 24 -80 45 -24 22 -95 65 -158
97 -63 32 -131 73 -151 91 -20 18 -43 33 -50 33 -8 0 -56 20 -107 45 -52 25
-105 45 -119 45 -13 0 -49 11 -79 25 -73 33 -168 65 -195 65 -13 0 -78 27
-146 60 -69 33 -135 60 -149 60 -14 0 -41 7 -61 15 -19 8 -45 15 -56 15 -11 0
-82 20 -156 44 -190 61 -214 67 -316 75 -49 4 -100 12 -112 19 -12 7 -59 12
-108 12 -53 0 -99 6 -122 15 -19 8 -53 15 -75 15 -21 0 -55 7 -75 15 -19 8
-53 15 -75 15 -21 0 -55 7 -75 15 -20 8 -66 15 -105 15 -38 0 -83 6 -101 14
-24 9 -93 13 -254 14 -175 1 -230 5 -259 17 l-36 15 -250 0 c-198 0 -256 3
-285 15 -19 8 -60 15 -90 15 -56 0 -100 16 -162 57 -19 13 -43 23 -54 23 -11
0 -34 9 -51 19 -17 10 -45 22 -63 26 -17 3 -51 23 -75 44 -44 39 -98 71 -119
71 -7 0 -64 25 -127 55 -63 31 -142 65 -176 75 -33 11 -69 25 -78 30 -28 16
-188 10 -223 -7z m954 -567 c9 -10 9 -16 1 -21 -16 -10 -40 2 -40 20 0 19 24
20 39 1z m1801 -176 c47 -16 95 -30 108 -30 15 0 43 -21 80 -60 36 -38 66 -60
79 -60 26 0 46 -31 41 -63 -2 -11 -18 -30 -36 -40 l-33 -19 -47 12 c-53 14
-287 124 -316 149 -19 17 -56 83 -56 100 0 14 50 40 75 41 12 0 59 -13 105
-30z"/>
</g>
</svg>
