<?xml version="1.0" standalone="no"?>
<!DOCTYPE svg PUBLIC "-//W3C//DTD SVG 20010904//EN"
 "http://www.w3.org/TR/2001/REC-SVG-20010904/DTD/svg10.dtd">
<svg version="1.0" xmlns="http://www.w3.org/2000/svg"
 width="1104.000000pt" height="255.000000pt" viewBox="0 0 1104.000000 255.000000"
 preserveAspectRatio="xMidYMid meet">
<metadata>
Created by potrace 1.16, written by Peter Selinger 2001-2019
</metadata>
<g transform="translate(0.000000,255.000000) scale(0.100000,-0.100000)"
fill="#000000" stroke="none">
<path d="M0 2515 c0 -51 32 -89 127 -151 44 -30 99 -69 120 -87 22 -18 59 -41
84 -51 57 -23 56 -23 124 -78 40 -32 81 -54 129 -69 73 -23 155 -86 141 -108
-3 -6 -40 -11 -84 -11 l-77 0 -29 -30 c-16 -16 -36 -30 -45 -30 -49 0 -110
-98 -110 -177 l0 -47 44 -46 c322 -329 468 -470 487 -470 13 0 39 -18 63 -44
31 -34 78 -63 193 -120 84 -42 164 -76 178 -76 13 0 43 -7 65 -16 50 -20 84
-15 258 37 90 27 177 90 207 150 l25 48 0 93 0 92 -75 113 c-52 76 -100 134
-151 180 -88 79 -97 85 -144 93 -45 7 -53 41 -15 66 l25 17 43 -17 43 -16 367
0 368 0 36 -15 c46 -19 77 -19 131 2 l44 17 45 -12 c24 -7 106 -15 181 -18 78
-4 152 -13 171 -20 19 -8 69 -14 118 -14 52 0 97 -6 120 -15 20 -8 66 -15 104
-15 37 0 80 -5 96 -12 15 -6 78 -15 138 -20 127 -9 116 -9 261 -2 88 5 118 2
149 -10 28 -12 73 -16 182 -16 105 0 153 -4 180 -15 l35 -15 325 0 324 0 36
-15 c27 -12 79 -15 225 -15 145 0 197 -3 225 -15 19 -8 53 -15 74 -15 21 0 50
-5 66 -11 15 -7 69 -13 118 -14 55 -2 105 -9 129 -19 29 -12 72 -16 183 -16
105 0 153 -4 180 -15 46 -20 353 -22 386 -3 13 7 80 15 157 19 74 4 155 12
180 19 108 30 169 50 220 74 30 14 67 26 81 26 15 0 43 7 62 15 52 22 452 22
504 0 19 -8 61 -15 92 -15 l56 0 45 -30 c25 -16 51 -30 59 -30 35 0 220 -101
278 -151 94 -82 170 -134 190 -131 10 1 36 5 58 9 52 8 135 79 176 151 16 29
36 55 43 58 8 3 30 -2 51 -10 21 -9 49 -16 63 -16 15 0 39 -12 57 -29 16 -16
75 -52 130 -80 55 -27 121 -68 147 -89 26 -22 63 -42 81 -46 19 -3 53 -23 77
-44 24 -20 63 -48 86 -62 123 -72 181 -110 199 -130 11 -12 38 -31 60 -43 22
-11 54 -30 70 -42 17 -13 63 -39 103 -59 41 -21 92 -50 114 -67 23 -16 49 -29
58 -29 9 0 27 -12 41 -26 13 -14 76 -60 139 -102 63 -42 135 -95 160 -117 25
-23 61 -51 80 -64 20 -13 48 -41 64 -62 15 -22 49 -50 76 -64 27 -14 57 -37
67 -52 23 -34 92 -103 126 -126 15 -10 36 -36 48 -58 l20 -40 47 3 47 3 3 58
3 58 -28 33 c-85 102 -293 306 -311 306 -12 0 -30 13 -42 30 -12 17 -61 56
-108 87 -48 32 -107 76 -132 99 -25 23 -67 53 -95 67 -27 14 -76 48 -108 76
-39 34 -67 51 -85 51 -41 0 -120 42 -187 99 -33 28 -76 59 -95 70 -19 10 -100
62 -180 115 -135 89 -173 115 -252 174 -17 12 -47 26 -68 32 -20 5 -54 25 -77
45 -22 19 -82 56 -134 81 -51 26 -109 62 -129 81 -24 21 -48 33 -66 33 -37 0
-244 102 -290 143 -35 31 -59 46 -174 112 -29 17 -77 47 -109 67 -31 21 -62
38 -69 38 -8 0 -43 14 -80 30 -86 41 -128 38 -159 -9 -13 -19 -23 -39 -23 -46
0 -24 46 -79 71 -86 15 -3 44 -18 65 -33 21 -14 45 -26 54 -26 42 -1 214 -113
266 -173 59 -69 95 -157 64 -157 -42 0 -137 38 -173 70 -39 35 -213 130 -237
130 -6 0 -37 12 -68 26 -94 43 -143 55 -179 43 -24 -8 -40 -6 -68 6 -21 8 -62
15 -92 15 -29 0 -70 7 -90 15 -45 19 -111 19 -156 0 -21 -9 -67 -15 -107 -15
-52 0 -82 -6 -111 -21 -50 -25 -267 -99 -294 -99 -11 0 -58 -14 -105 -30 l-84
-30 -303 0 -304 0 -36 15 c-19 8 -53 15 -75 15 -21 0 -55 7 -75 15 -19 8 -52
15 -73 15 -21 0 -64 10 -95 22 l-56 21 6 21 c30 99 7 162 -82 225 -31 23 -63
41 -72 41 -9 0 -45 14 -79 30 -35 17 -69 30 -75 30 -7 0 -41 14 -75 30 l-64
30 -73 0 c-42 0 -88 -6 -108 -15 -20 -8 -50 -15 -67 -15 -37 0 -121 -74 -152
-133 l-20 -39 13 -32 c8 -17 29 -48 47 -68 19 -21 31 -42 27 -48 -4 -6 -52
-10 -119 -10 -81 0 -124 -5 -151 -16 l-38 -16 -41 16 c-29 11 -76 16 -154 16
-78 0 -124 5 -149 15 -24 10 -71 15 -150 15 -78 0 -125 5 -150 15 -27 12 -81
15 -240 15 -158 0 -212 3 -240 15 -26 11 -76 15 -195 15 -118 0 -168 4 -195
15 -20 8 -66 15 -105 15 -38 0 -84 7 -105 15 -22 9 -67 15 -120 15 -52 0 -97
6 -120 15 -47 20 -170 20 -218 -1 l-38 -16 -41 16 c-29 11 -76 16 -153 16 -62
0 -124 5 -139 10 -19 7 -37 7 -60 0 -25 -9 -40 -8 -69 5 l-37 15 -385 0 -384
0 -36 15 c-19 8 -47 15 -62 15 -31 0 -58 17 -123 77 -26 24 -55 43 -64 43 -21
0 -103 50 -164 100 -46 38 -120 80 -141 80 -15 0 -141 63 -209 104 -107 66
-176 111 -227 148 l-52 38 -66 0 -65 0 0 -35z m5436 -623 c58 -20 154 -97 154
-123 0 -26 -39 -49 -83 -49 -21 0 -66 13 -100 28 -34 15 -97 39 -141 53 -43
13 -89 34 -103 46 l-24 23 11 20 11 20 112 0 c82 0 126 -5 163 -18z m-4539
-117 c22 -9 68 -15 121 -15 l85 0 101 -50 c118 -59 223 -124 263 -163 16 -15
35 -27 42 -27 26 0 124 -96 151 -150 16 -30 38 -68 49 -85 26 -38 28 -124 5
-165 -20 -33 -63 -60 -97 -60 -13 0 -42 -7 -62 -16 l-38 -16 -41 16 c-23 9
-59 16 -80 16 -49 0 -158 50 -219 102 -26 22 -63 44 -82 49 -19 6 -43 22 -52
36 -10 15 -38 45 -62 69 -134 129 -229 231 -247 266 -9 18 -35 54 -56 80 -27
31 -39 54 -36 70 l3 23 60 6 c33 3 71 11 85 17 35 15 65 14 107 -3z"/>
</g>
</svg>
