<?xml version="1.0" standalone="no"?>
<!DOCTYPE svg PUBLIC "-//W3C//DTD SVG 20010904//EN"
 "http://www.w3.org/TR/2001/REC-SVG-20010904/DTD/svg10.dtd">
<svg version="1.0" xmlns="http://www.w3.org/2000/svg"
 width="423.000000pt" height="300.000000pt" viewBox="0 0 423.000000 300.000000"
 preserveAspectRatio="xMidYMid meet">
<metadata>
Created by potrace 1.16, written by Peter Selinger 2001-2019
</metadata>
<g transform="translate(0.000000,300.000000) scale(0.100000,-0.100000)"
fill="#000000" stroke="none">
<path d="M796 2969 c-48 -57 -30 -121 45 -160 22 -11 57 -35 77 -53 39 -35 92
-66 114 -66 7 0 45 -33 84 -72 39 -40 83 -81 98 -91 14 -10 40 -45 56 -77 16
-32 45 -71 65 -86 l35 -26 0 -44 0 -43 -27 -19 c-43 -30 -68 -34 -108 -17 -27
11 -73 15 -167 15 -92 0 -139 4 -165 15 -25 11 -72 15 -165 15 -92 0 -139 4
-165 15 -19 8 -60 15 -90 15 -29 0 -70 7 -90 15 -19 8 -60 15 -90 15 -29 0
-70 7 -90 15 -22 10 -68 15 -124 15 l-89 0 0 -53 0 -53 53 -16 c91 -28 140
-39 202 -47 34 -5 70 -13 82 -19 12 -7 40 -12 63 -12 22 0 57 -7 77 -15 19 -8
53 -15 75 -15 21 0 55 -7 75 -15 20 -8 66 -15 105 -15 38 0 84 -7 105 -15 26
-11 74 -15 182 -15 l146 0 45 -30 c25 -16 57 -30 72 -30 15 0 38 -4 53 -10 34
-13 67 4 140 73 43 39 61 66 75 107 30 86 26 124 -26 235 -25 54 -42 101 -37
106 11 11 85 -7 121 -28 16 -10 51 -31 77 -47 26 -16 86 -42 134 -58 47 -16
110 -40 139 -53 29 -14 58 -25 65 -25 6 0 54 -20 105 -45 52 -25 99 -45 106
-45 6 0 28 -11 49 -25 47 -33 232 -125 250 -125 7 0 53 -27 102 -60 50 -33 96
-60 103 -60 24 0 84 -33 172 -92 54 -37 95 -58 113 -58 33 0 88 -24 132 -56
17 -13 90 -53 163 -89 74 -37 168 -91 211 -120 42 -29 95 -62 117 -73 22 -11
80 -48 130 -81 49 -34 95 -61 103 -61 18 0 103 -53 161 -100 80 -66 128 -82
171 -60 15 9 19 22 19 64 l0 54 -32 24 c-18 14 -56 37 -84 51 -28 14 -75 48
-105 75 -52 48 -125 92 -151 92 -6 0 -26 13 -43 29 -16 16 -82 55 -145 87 -62
32 -130 72 -150 89 -36 33 -91 65 -110 65 -26 0 -148 64 -190 99 -56 47 -121
81 -156 81 -30 0 -86 24 -129 56 -16 12 -86 51 -154 85 -69 34 -141 77 -162
96 -20 18 -42 33 -49 33 -21 0 -196 87 -241 120 -23 16 -49 30 -58 30 -9 0
-58 20 -109 45 -52 25 -106 45 -120 45 -15 0 -69 20 -120 45 -52 25 -98 45
-104 45 -16 0 -146 66 -208 106 -30 19 -72 39 -92 44 -42 12 -71 26 -113 56
-37 27 -171 94 -186 94 -17 0 -80 31 -114 56 -16 12 -59 32 -95 43 -36 12 -73
26 -82 31 -10 6 -38 10 -62 10 l-44 0 -26 -31z"/>
<path d="M1050 1368 c-75 -25 -100 -55 -100 -119 0 -96 77 -206 237 -336 28
-23 74 -54 102 -69 28 -14 65 -44 82 -65 17 -21 38 -39 47 -39 10 0 59 -20
110 -45 101 -49 149 -56 175 -27 35 38 12 89 -54 123 -22 11 -57 35 -77 53
-39 35 -92 66 -114 66 -6 0 -26 13 -43 29 -16 16 -59 49 -95 73 -50 34 -68 53
-77 81 -7 20 -24 54 -38 76 -29 43 -26 59 14 95 27 25 29 86 3 109 -25 22
-100 20 -172 -5z"/>
<path d="M187 892 c-24 -26 -21 -56 8 -91 29 -34 119 -97 191 -134 27 -14 71
-44 98 -66 26 -23 56 -41 65 -41 9 0 55 -25 101 -56 47 -32 119 -74 160 -95
41 -21 97 -56 124 -78 34 -29 57 -41 80 -41 23 0 41 -9 61 -30 16 -16 36 -30
44 -30 9 0 59 -28 111 -62 52 -33 112 -72 134 -85 21 -14 43 -38 49 -54 l11
-29 61 0 61 0 12 33 c7 18 12 41 12 50 0 37 -127 149 -227 201 -17 8 -52 34
-78 56 -61 53 -207 150 -226 150 -8 0 -32 12 -53 26 -21 14 -97 56 -170 92
-72 36 -145 75 -161 88 -17 12 -91 53 -165 90 -74 37 -153 80 -174 96 -46 33
-104 38 -129 10z"/>
</g>
</svg>
