<?xml version="1.0" standalone="no"?>
<!DOCTYPE svg PUBLIC "-//W3C//DTD SVG 20010904//EN"
 "http://www.w3.org/TR/2001/REC-SVG-20010904/DTD/svg10.dtd">
<svg version="1.0" xmlns="http://www.w3.org/2000/svg"
 width="705.000000pt" height="198.000000pt" viewBox="0 0 705.000000 198.000000"
 preserveAspectRatio="xMidYMid meet">
<metadata>
Created by potrace 1.16, written by Peter Selinger 2001-2019
</metadata>
<g transform="translate(0.000000,198.000000) scale(0.100000,-0.100000)"
fill="#000000" stroke="none">
<path d="M3664 1944 c-13 -70 37 -129 130 -155 43 -12 62 -21 120 -61 21 -16
46 -28 56 -28 9 0 29 -13 44 -29 15 -16 43 -32 61 -35 24 -5 56 -28 110 -82
82 -82 101 -114 85 -145 l-11 -19 -235 0 c-186 0 -242 3 -271 15 -25 11 -72
15 -165 15 -92 0 -139 4 -165 15 -24 10 -71 15 -150 15 -78 0 -125 5 -150 15
-19 8 -61 15 -93 15 -32 0 -74 -7 -93 -15 -24 -10 -70 -15 -132 -15 -62 0
-108 5 -132 15 -27 11 -77 15 -210 15 -132 0 -182 4 -210 15 l-35 15 -265 0
-264 0 -36 15 c-27 12 -79 15 -225 15 l-190 0 -33 16 c-19 9 -46 31 -60 50
-14 19 -48 45 -75 59 -27 13 -65 36 -86 50 -20 14 -49 25 -63 25 -15 0 -59 16
-100 35 -40 19 -82 35 -94 35 -12 0 -42 6 -67 14 -106 34 -142 39 -259 43 -96
3 -132 1 -162 -11 -22 -9 -51 -16 -65 -16 -38 0 -118 -45 -147 -84 l-27 -35 0
-55 0 -56 48 -24 c78 -39 167 -66 222 -66 28 0 67 -7 87 -15 24 -10 71 -15
150 -15 78 0 125 -5 150 -15 19 -8 53 -15 75 -15 21 0 55 -7 75 -15 42 -18 79
-19 121 -4 38 13 119 -9 166 -45 33 -24 42 -41 96 -163 l31 -72 -10 -38 c-6
-21 -13 -50 -16 -66 -9 -44 -77 -87 -137 -87 -39 0 -54 -5 -74 -25 l-25 -25
11 -20 c17 -31 43 -40 119 -40 88 0 195 33 219 67 9 13 36 49 59 79 l41 55 7
67 c5 50 2 76 -9 104 -18 43 -21 91 -6 119 l11 19 130 0 c93 0 140 -4 166 -15
47 -20 134 -19 194 2 l49 18 49 -18 49 -17 351 0 352 0 36 -15 c19 -8 55 -15
78 -15 23 0 59 7 78 15 49 20 215 20 264 0 25 -11 72 -15 165 -15 92 0 139 -4
165 -15 23 -10 69 -15 135 -15 65 0 111 -5 135 -15 19 -8 60 -15 90 -15 29 0
70 -7 90 -15 19 -8 60 -15 90 -15 29 0 70 -7 90 -15 59 -25 149 -19 208 13
l50 27 45 84 c25 47 51 86 57 88 7 3 29 -7 50 -21 21 -14 44 -26 51 -26 23 0
83 -32 162 -86 80 -54 152 -94 170 -94 7 0 41 -13 77 -30 35 -16 70 -30 76
-30 7 0 29 -11 48 -25 20 -13 65 -38 99 -56 35 -18 80 -47 100 -65 21 -19 44
-34 51 -34 8 0 34 -14 59 -30 25 -16 52 -30 61 -30 18 0 124 -75 148 -103 7
-9 21 -17 30 -17 9 0 77 -40 151 -90 74 -49 142 -90 150 -90 8 0 35 -14 60
-30 25 -16 52 -30 60 -30 29 0 223 -115 255 -150 22 -24 86 -60 108 -60 7 0
24 -12 38 -26 13 -14 44 -36 69 -49 25 -13 66 -41 92 -63 26 -22 63 -43 82
-46 20 -4 51 -22 70 -40 56 -53 134 -96 172 -96 l34 0 0 64 0 64 -36 27 c-19
15 -50 31 -69 36 -18 5 -61 34 -94 64 -34 30 -71 55 -81 55 -11 0 -46 26 -79
58 -32 32 -87 73 -122 91 -35 19 -85 51 -111 72 -25 21 -79 55 -120 75 -40 21
-87 47 -103 60 -17 12 -91 53 -165 90 -74 36 -155 83 -180 104 -52 43 -111 75
-157 84 -17 4 -51 25 -75 46 -24 21 -89 61 -144 89 -54 27 -121 68 -148 90
-26 23 -55 41 -63 41 -19 0 -78 28 -122 57 -19 13 -43 23 -55 23 -12 0 -31 7
-43 15 -12 9 -68 38 -125 66 -57 29 -124 69 -149 90 -29 24 -74 47 -115 60
-38 12 -82 34 -99 49 -16 15 -45 35 -64 45 -19 9 -52 30 -74 46 -22 16 -47 29
-56 29 -9 0 -29 9 -46 21 -42 29 -182 99 -197 99 -15 0 -67 28 -155 80 -32 20
-78 44 -103 54 -25 10 -53 22 -62 27 -10 5 -51 9 -92 9 l-75 0 -7 -36z m-3141
-226 c12 -6 35 -15 52 -19 16 -4 55 -17 85 -29 30 -12 72 -26 93 -32 46 -13
50 -33 5 -24 -18 4 -62 10 -98 14 -36 4 -75 13 -87 20 -12 7 -56 12 -98 12
-56 0 -86 5 -115 20 -41 21 -50 34 -27 43 24 10 169 7 190 -5z"/>
</g>
</svg>
