<?xml version="1.0" standalone="no"?>
<!DOCTYPE svg PUBLIC "-//W3C//DTD SVG 20010904//EN"
 "http://www.w3.org/TR/2001/REC-SVG-20010904/DTD/svg10.dtd">
<svg version="1.0" xmlns="http://www.w3.org/2000/svg"
 width="855.000000pt" height="267.000000pt" viewBox="0 0 855.000000 267.000000"
 preserveAspectRatio="xMidYMid meet">
<metadata>
Created by potrace 1.16, written by Peter Selinger 2001-2019
</metadata>
<g transform="translate(0.000000,267.000000) scale(0.100000,-0.100000)"
fill="#000000" stroke="none">
<path d="M0 2607 l0 -63 88 -75 c48 -41 115 -90 150 -109 35 -18 72 -46 83
-62 11 -16 60 -54 107 -85 48 -32 107 -76 132 -98 25 -23 59 -49 75 -60 17
-10 57 -44 90 -75 33 -31 76 -67 96 -80 20 -13 47 -39 60 -59 13 -20 45 -60
72 -90 26 -29 57 -72 69 -95 33 -66 46 -76 98 -76 26 0 64 7 83 15 l36 15 306
0 306 0 36 -15 c26 -11 74 -15 180 -15 105 0 153 -4 180 -15 27 -11 77 -15
210 -15 132 0 182 -4 210 -15 24 -10 71 -15 150 -15 78 0 125 -5 150 -15 25
-11 72 -15 165 -15 92 0 139 -4 165 -15 27 -12 79 -15 225 -15 145 0 197 -3
225 -15 24 -10 71 -15 150 -15 78 0 125 -5 150 -15 19 -8 60 -15 90 -15 29 0
70 -7 90 -15 23 -10 69 -15 135 -15 65 0 111 -5 135 -15 23 -10 69 -15 135
-15 65 0 111 -5 135 -15 l35 -15 280 0 279 0 36 -15 c20 -8 66 -15 105 -15 38
0 84 -7 105 -15 20 -8 66 -15 105 -15 38 0 84 -7 105 -15 55 -23 127 -20 157
7 31 29 66 132 66 197 0 32 6 55 16 65 20 20 15 21 88 -13 34 -16 76 -32 93
-35 18 -4 51 -24 75 -45 24 -21 70 -52 103 -69 33 -16 103 -59 155 -94 52 -35
111 -69 130 -77 45 -16 47 -17 114 -72 31 -25 86 -60 122 -78 36 -18 82 -48
102 -66 21 -18 79 -54 130 -80 51 -25 128 -70 170 -99 43 -29 98 -63 122 -76
25 -12 66 -40 92 -61 25 -21 79 -55 120 -75 40 -20 93 -53 118 -73 25 -20 65
-49 90 -63 25 -14 55 -40 68 -57 12 -17 44 -42 71 -55 75 -38 180 -113 241
-170 30 -29 68 -61 84 -70 16 -10 33 -31 39 -47 l11 -29 78 0 78 0 0 64 0 65
-42 23 c-23 13 -55 42 -71 66 -27 40 -106 92 -140 92 -7 0 -29 20 -49 44 -36
42 -106 95 -198 148 -25 14 -54 36 -65 48 -11 12 -46 35 -78 51 -32 16 -74 45
-95 63 -20 18 -64 47 -98 64 -34 17 -97 55 -140 85 -44 30 -98 64 -121 75 -22
12 -77 46 -122 77 -44 30 -108 69 -142 86 -34 18 -78 46 -98 64 -20 18 -63 46
-97 63 -34 17 -97 55 -140 85 -87 59 -155 97 -177 97 -7 0 -27 17 -44 37 -21
27 -61 54 -139 92 -60 29 -130 71 -156 93 -26 21 -107 69 -180 105 -73 37
-151 79 -172 95 -21 15 -45 28 -53 28 -15 0 -113 55 -193 107 -47 31 -153 73
-185 73 -9 0 -30 -13 -46 -29 -22 -23 -29 -39 -29 -70 l0 -40 54 -41 c30 -23
70 -46 90 -51 22 -6 68 -40 123 -91 127 -117 135 -137 78 -187 l-36 -31 -175
0 c-133 0 -183 4 -211 15 -27 12 -79 15 -225 15 -145 0 -197 3 -225 15 -28 12
-86 15 -285 15 -198 0 -256 3 -285 15 -24 10 -71 15 -150 15 -78 0 -125 5
-150 15 -20 8 -66 15 -105 15 -38 0 -84 7 -105 15 -23 10 -69 15 -135 15 -65
0 -111 5 -135 15 -24 10 -71 15 -150 15 -78 0 -125 5 -150 15 -28 12 -84 15
-270 15 -185 0 -241 3 -270 15 -25 11 -72 15 -165 15 -92 0 -139 4 -165 15
-24 10 -71 15 -150 15 -78 0 -125 5 -150 15 -27 11 -77 15 -210 15 -132 0
-182 4 -210 15 -27 11 -77 15 -210 15 -132 0 -182 4 -210 15 -19 8 -53 15 -75
15 -53 0 -90 23 -124 78 -15 24 -49 58 -75 74 -25 17 -60 53 -78 79 -19 29
-47 57 -70 69 -22 11 -61 38 -88 61 -26 23 -72 58 -101 76 -28 18 -67 46 -85
61 -49 42 -116 87 -174 117 -29 15 -67 45 -84 66 -17 21 -37 39 -46 39 -43 0
-149 70 -173 114 l-13 26 -54 0 -53 0 0 -63z"/>
</g>
</svg>
