<?xml version="1.0" standalone="no"?>
<!DOCTYPE svg PUBLIC "-//W3C//DTD SVG 20010904//EN"
 "http://www.w3.org/TR/2001/REC-SVG-20010904/DTD/svg10.dtd">
<svg version="1.0" xmlns="http://www.w3.org/2000/svg"
 width="321.000000pt" height="273.000000pt" viewBox="0 0 321.000000 273.000000"
 preserveAspectRatio="xMidYMid meet">
<metadata>
Created by potrace 1.16, written by Peter Selinger 2001-2019
</metadata>
<g transform="translate(0.000000,273.000000) scale(0.100000,-0.100000)"
fill="#000000" stroke="none">
<path d="M42 2691 c-7 -21 -12 -47 -12 -58 0 -27 90 -112 131 -123 20 -6 53
-25 75 -43 21 -19 58 -44 81 -57 36 -20 143 -135 143 -154 0 -4 -18 -24 -40
-45 l-40 -38 0 -54 c0 -68 15 -91 88 -130 85 -45 187 -111 219 -140 31 -30 84
-59 106 -59 8 0 26 -15 40 -34 15 -18 50 -48 79 -65 29 -17 78 -52 108 -77 92
-76 373 -360 398 -401 13 -21 39 -63 57 -93 19 -30 50 -86 70 -125 l35 -69 0
-132 0 -131 -21 -27 c-11 -14 -25 -26 -30 -26 -5 0 -43 -20 -83 -45 -41 -25
-86 -45 -99 -45 -14 0 -41 -7 -60 -15 -51 -21 -273 -21 -324 0 -19 8 -47 15
-60 15 -14 0 -54 13 -90 30 -35 16 -74 30 -87 30 -91 0 -366 144 -486 254 -25
23 -64 50 -88 60 l-42 19 -55 -18 -55 -19 0 -68 0 -68 38 -19 c61 -31 184
-148 216 -204 16 -29 44 -78 63 -110 l35 -58 -11 -32 c-17 -48 -61 -106 -100
-133 -28 -19 -49 -24 -97 -24 -67 0 -94 -17 -94 -59 0 -28 51 -81 79 -81 11 0
23 -4 26 -10 3 -5 33 -10 65 -10 l60 0 52 34 c29 18 63 48 76 65 12 17 36 34
54 39 17 4 40 19 50 32 25 35 68 158 68 200 1 56 9 63 66 50 27 -6 90 -25 141
-41 51 -16 108 -29 128 -29 20 0 52 -7 72 -15 26 -11 74 -15 180 -15 l144 0
59 20 c33 11 84 31 114 45 30 14 60 25 66 25 48 0 194 121 230 191 31 59 60
156 60 198 0 23 -12 66 -30 103 -16 34 -30 73 -30 86 0 25 -34 131 -55 172 -8
15 -30 39 -49 54 -23 17 -39 40 -46 65 -10 37 -47 78 -114 124 -14 10 -29 30
-32 45 -9 38 -21 50 -75 78 -26 13 -56 36 -66 51 -34 50 -100 113 -119 113
-11 0 -38 23 -62 50 -26 30 -67 62 -101 79 -31 16 -81 51 -110 78 -30 26 -88
66 -130 89 -89 48 -138 105 -127 149 4 14 13 28 21 31 21 8 253 -108 309 -155
26 -23 55 -41 63 -41 29 0 149 -62 195 -101 25 -21 78 -54 116 -74 39 -19 110
-62 159 -95 48 -33 95 -60 103 -60 9 0 54 -25 100 -56 47 -32 115 -72 152 -91
38 -19 103 -58 146 -87 42 -29 96 -63 119 -74 22 -12 76 -46 120 -75 86 -59
155 -97 176 -97 7 0 24 -12 38 -26 13 -14 41 -35 63 -46 21 -11 56 -32 77 -48
21 -15 55 -31 75 -34 24 -5 52 -24 89 -62 30 -30 62 -54 72 -54 20 0 138 -75
190 -121 l34 -29 49 0 50 0 0 55 0 55 -39 20 c-22 11 -52 36 -67 56 -15 19
-44 44 -64 54 -47 24 -167 105 -200 135 -14 13 -45 33 -70 45 -25 13 -58 33
-75 45 -16 13 -50 33 -75 45 -25 12 -66 40 -92 61 -25 21 -78 55 -117 74 -39
20 -106 60 -149 89 -85 58 -154 96 -175 96 -7 0 -24 12 -38 26 -13 14 -54 41
-90 59 -36 19 -103 59 -148 90 -45 31 -114 72 -154 92 -40 20 -85 46 -102 59
-16 12 -66 41 -110 64 -79 41 -138 75 -245 143 -30 19 -69 38 -87 42 -17 3
-51 23 -75 44 -47 41 -76 59 -118 71 -48 14 -154 91 -188 136 l-33 44 -36 0
-36 0 -41 44 c-23 24 -57 52 -76 61 -19 10 -48 28 -65 40 -16 12 -50 33 -75
46 -25 13 -68 41 -97 61 l-52 38 -84 0 -84 0 -11 -39z"/>
</g>
</svg>
