<?xml version="1.0" standalone="no"?>
<!DOCTYPE svg PUBLIC "-//W3C//DTD SVG 20010904//EN"
 "http://www.w3.org/TR/2001/REC-SVG-20010904/DTD/svg10.dtd">
<svg version="1.0" xmlns="http://www.w3.org/2000/svg"
 width="462.000000pt" height="237.000000pt" viewBox="0 0 462.000000 237.000000"
 preserveAspectRatio="xMidYMid meet">
<metadata>
Created by potrace 1.16, written by Peter Selinger 2001-2019
</metadata>
<g transform="translate(0.000000,237.000000) scale(0.100000,-0.100000)"
fill="#000000" stroke="none">
<path d="M1355 2360 c-3 -5 -26 -10 -51 -10 -78 0 -174 -62 -174 -113 0 -38
50 -117 92 -143 23 -15 62 -46 87 -69 25 -23 69 -54 97 -68 28 -14 75 -48 105
-75 30 -27 70 -57 89 -67 51 -25 195 -123 215 -145 10 -11 35 -25 55 -30 21
-6 64 -33 96 -63 33 -28 79 -60 104 -70 25 -11 60 -26 79 -35 49 -24 147 -136
167 -190 9 -26 29 -77 46 -114 l29 -67 -11 -21 -11 -20 -280 0 -280 0 -36 15
c-19 8 -53 15 -75 15 -24 0 -56 10 -82 25 l-43 25 -30 -11 c-24 -8 -39 -7 -68
5 -21 9 -53 16 -73 16 -19 0 -84 17 -145 37 l-110 37 -73 68 c-58 53 -80 68
-104 68 -30 0 -98 35 -221 114 -41 27 -66 36 -97 36 -24 0 -62 10 -89 24 -59
30 -113 49 -133 47 -8 -1 -64 -4 -125 -7 -88 -3 -130 -11 -208 -36 l-97 -32 0
-83 c0 -47 4 -83 10 -83 5 0 25 -13 43 -30 19 -16 40 -30 47 -30 19 0 81 -31
124 -62 l39 -28 62 0 62 0 37 -25 c23 -15 51 -25 74 -25 20 0 51 -9 67 -20 18
-12 47 -20 73 -20 23 0 59 -7 79 -15 19 -8 53 -15 75 -15 21 0 55 -7 75 -15
20 -8 66 -15 105 -15 49 0 83 -6 115 -21 58 -26 148 -115 173 -171 50 -111 -4
-223 -113 -235 -74 -8 -87 -13 -87 -32 0 -24 93 -111 120 -111 40 0 165 72
223 128 105 102 124 164 81 275 l-19 48 19 15 c26 18 87 18 133 -1 19 -8 60
-15 90 -15 29 0 70 -7 90 -15 22 -9 68 -15 122 -15 97 0 111 -7 111 -55 0 -19
12 -48 29 -72 16 -22 39 -60 51 -84 12 -24 49 -72 82 -106 l61 -61 69 -23 69
-22 49 23 c26 12 75 50 108 84 48 48 65 74 81 123 l21 62 0 144 c0 105 -4 154
-15 180 -15 37 -11 67 9 67 12 -1 48 -20 127 -68 30 -17 70 -37 90 -42 19 -5
53 -25 75 -43 41 -36 160 -100 206 -111 14 -3 50 -28 80 -55 50 -46 124 -91
149 -91 21 0 84 -34 169 -92 47 -32 91 -58 98 -58 13 0 98 -47 202 -113 30
-19 67 -37 82 -41 14 -3 51 -28 81 -56 29 -27 90 -67 133 -89 44 -21 108 -64
142 -95 35 -31 70 -56 79 -56 20 0 153 -114 153 -131 0 -5 25 -9 55 -9 l55 0
0 79 0 79 -25 6 c-14 4 -55 35 -93 70 -37 35 -90 75 -117 89 -28 13 -78 50
-113 81 -34 31 -70 56 -80 56 -19 0 -138 76 -189 121 -19 16 -42 29 -51 29
-10 0 -55 25 -100 55 -93 62 -154 95 -175 95 -8 0 -33 15 -57 33 -92 69 -166
117 -178 117 -29 0 -150 64 -201 106 -29 24 -61 44 -70 44 -9 0 -54 25 -99 55
-92 61 -154 95 -174 95 -8 0 -51 25 -97 55 -45 31 -103 67 -129 80 -138 73
-196 126 -312 285 -69 94 -126 154 -174 185 -24 15 -56 48 -72 73 -16 24 -46
56 -68 69 -22 14 -70 53 -107 87 -121 111 -274 216 -313 216 -37 0 -173 65
-189 90 -13 21 -71 28 -82 10z m-932 -972 c29 -15 8 -31 -36 -25 -44 6 -63 19
-52 37 7 12 55 6 88 -12z m215 -59 c13 -5 22 -17 22 -30 0 -16 -4 -19 -17 -14
-10 4 -33 11 -52 15 -35 9 -54 27 -44 43 5 8 49 2 91 -14z m1667 -509 c3 -5
24 -14 45 -20 51 -14 78 -50 62 -85 -12 -25 -27 -30 -56 -19 -23 9 -88 104
-82 120 6 16 22 18 31 4z"/>
</g>
</svg>
