<?xml version="1.0" standalone="no"?>
<!DOCTYPE svg PUBLIC "-//W3C//DTD SVG 20010904//EN"
 "http://www.w3.org/TR/2001/REC-SVG-20010904/DTD/svg10.dtd">
<svg version="1.0" xmlns="http://www.w3.org/2000/svg"
 width="915.000000pt" height="444.000000pt" viewBox="0 0 915.000000 444.000000"
 preserveAspectRatio="xMidYMid meet">
<metadata>
Created by potrace 1.16, written by Peter Selinger 2001-2019
</metadata>
<g transform="translate(0.000000,444.000000) scale(0.100000,-0.100000)"
fill="#000000" stroke="none">
<path d="M0 4391 l0 -49 24 -6 c12 -3 51 -30 85 -61 34 -30 70 -55 80 -55 9 0
28 -12 42 -26 13 -14 44 -37 69 -51 25 -13 70 -40 100 -59 30 -19 71 -39 91
-44 19 -5 54 -26 76 -45 23 -19 90 -60 150 -90 59 -29 130 -72 157 -94 26 -23
56 -41 65 -41 10 0 28 -11 41 -25 35 -37 199 -146 235 -156 17 -5 49 -24 72
-44 22 -19 73 -51 114 -71 40 -20 91 -50 113 -65 21 -16 47 -29 56 -29 9 0 27
-12 41 -26 26 -28 78 -57 119 -67 14 -4 44 -22 66 -41 23 -19 73 -51 113 -71
39 -20 106 -60 149 -89 84 -58 143 -90 182 -99 14 -4 43 -22 65 -40 22 -19 58
-43 80 -55 53 -26 353 -227 385 -257 14 -13 54 -38 88 -55 35 -18 78 -45 95
-60 84 -73 162 -130 178 -130 10 0 27 -14 39 -30 12 -17 60 -56 107 -87 47
-31 100 -68 117 -82 50 -42 117 -86 172 -114 28 -14 76 -49 107 -77 31 -28 72
-56 91 -61 18 -5 61 -33 94 -62 33 -28 81 -64 107 -80 36 -21 46 -32 43 -50
l-3 -22 -45 -3 c-52 -2 -148 -30 -171 -49 -9 -8 -24 -31 -34 -53 l-18 -40 22
-65 c42 -131 77 -183 200 -308 76 -78 135 -128 171 -147 30 -15 82 -51 115
-79 33 -28 80 -60 105 -72 25 -12 61 -30 80 -40 131 -72 243 -123 318 -148 48
-15 106 -38 129 -50 28 -14 61 -21 98 -21 31 0 72 -7 92 -15 21 -9 67 -15 116
-15 l80 0 43 44 44 43 0 84 0 84 -43 61 c-92 133 -115 161 -192 239 -78 79
-188 170 -301 250 -57 41 -79 68 -69 85 10 16 220 12 262 -5 25 -11 72 -15
165 -15 92 0 139 -4 165 -15 26 -11 76 -15 195 -15 118 0 168 -4 195 -15 28
-12 85 -15 274 -15 l239 0 80 40 c49 25 89 53 105 75 34 44 64 45 125 5 25
-16 51 -30 59 -30 22 0 196 -86 242 -120 23 -16 49 -30 56 -30 21 0 82 -30
127 -62 21 -15 46 -28 56 -28 9 0 29 -14 45 -30 16 -16 35 -30 42 -30 29 0
100 -40 158 -89 33 -28 91 -67 130 -87 38 -20 83 -47 100 -59 16 -13 64 -40
105 -60 41 -21 94 -53 118 -73 74 -59 144 -104 177 -113 17 -5 50 -25 72 -44
22 -19 90 -60 152 -91 80 -40 119 -67 142 -95 17 -21 37 -39 45 -39 30 0 100
-40 159 -89 33 -28 78 -60 100 -72 22 -12 60 -38 85 -58 25 -20 78 -59 119
-86 40 -26 82 -63 93 -81 10 -18 34 -44 53 -58 l34 -26 65 0 66 0 0 64 0 64
-44 36 c-24 20 -61 59 -81 86 -23 31 -55 60 -84 75 -25 13 -73 46 -106 74 -33
28 -78 60 -100 72 -22 12 -61 39 -87 60 -25 21 -79 55 -120 75 -70 36 -170
105 -197 138 -7 9 -20 16 -28 16 -14 0 -102 49 -203 114 -30 19 -79 47 -109
61 -29 15 -70 42 -90 60 -20 18 -88 59 -151 91 -62 32 -131 73 -151 91 -20 18
-42 33 -48 33 -25 0 -122 51 -158 83 -66 58 -110 88 -145 98 -19 5 -52 24 -74
43 -38 33 -173 106 -195 106 -17 0 -80 31 -114 56 -37 27 -170 94 -187 94 -14
0 -66 27 -149 78 -30 17 -70 36 -89 42 -47 13 -137 56 -174 85 -38 28 -170 95
-188 95 -8 0 -30 12 -51 26 -21 14 -60 32 -87 40 l-50 15 -30 -16 c-35 -18
-70 -69 -70 -103 0 -26 32 -93 52 -110 8 -6 50 -23 95 -37 48 -16 97 -40 119
-58 22 -18 58 -45 82 -61 23 -16 53 -39 67 -52 l26 -24 -11 -20 -11 -20 -175
0 c-133 0 -183 4 -211 15 -26 11 -74 15 -180 15 -105 0 -153 4 -180 15 -23 10
-69 15 -137 15 l-102 0 -29 30 -29 30 -359 0 -358 0 -54 25 c-30 13 -71 40
-92 58 -21 19 -57 44 -79 55 -23 12 -66 43 -95 70 -30 27 -74 59 -99 72 -25
12 -65 39 -90 59 -24 20 -74 55 -110 78 -36 23 -82 55 -103 70 -62 45 -93 66
-159 107 -35 22 -83 56 -108 76 -25 20 -67 49 -94 63 -27 15 -68 46 -90 69
-43 46 -148 130 -200 162 -17 11 -90 59 -163 107 -138 92 -203 129 -226 129
-7 0 -27 17 -44 38 -21 25 -63 54 -137 91 -74 37 -115 65 -136 91 l-30 38 -84
26 c-54 18 -98 39 -123 61 -22 19 -73 51 -114 71 -41 20 -87 47 -104 59 -16
13 -52 35 -80 49 -54 30 -129 74 -215 130 -30 19 -100 57 -155 85 -55 27 -122
68 -149 90 -26 23 -56 41 -65 41 -9 0 -33 11 -52 25 -20 13 -64 38 -98 55 -34
18 -81 48 -106 68 -24 20 -62 51 -85 67 -23 17 -56 40 -72 53 -17 12 -48 27
-69 32 -48 13 -67 23 -164 89 -44 30 -127 79 -185 108 -58 30 -130 70 -160 89
-30 19 -73 39 -95 45 -22 6 -52 20 -66 30 -15 10 -43 19 -63 19 l-36 0 0 -49z
m4342 -2863 c51 -17 86 -37 131 -75 34 -29 91 -68 127 -87 36 -20 90 -56 120
-81 30 -24 73 -57 95 -71 22 -15 58 -46 80 -68 22 -23 67 -59 99 -81 41 -28
68 -56 88 -93 17 -29 46 -65 65 -79 l34 -26 -3 -36 -3 -36 -103 -3 -103 -3
-67 23 c-37 12 -102 39 -145 60 -43 21 -83 38 -89 38 -24 0 -181 82 -216 114
-40 36 -92 66 -116 66 -8 0 -24 14 -36 31 -12 16 -40 42 -63 56 -111 70 -208
187 -238 285 l-21 71 14 8 c7 5 73 9 146 9 l134 0 70 -22z"/>
</g>
</svg>
