<?xml version="1.0" standalone="no"?>
<!DOCTYPE svg PUBLIC "-//W3C//DTD SVG 20010904//EN"
 "http://www.w3.org/TR/2001/REC-SVG-20010904/DTD/svg10.dtd">
<svg version="1.0" xmlns="http://www.w3.org/2000/svg"
 width="540.000000pt" height="219.000000pt" viewBox="0 0 540.000000 219.000000"
 preserveAspectRatio="xMidYMid meet">
<metadata>
Created by potrace 1.16, written by Peter Selinger 2001-2019
</metadata>
<g transform="translate(0.000000,219.000000) scale(0.100000,-0.100000)"
fill="#000000" stroke="none">
<path d="M150 2180 c-8 -4 -31 -14 -49 -21 -19 -7 -50 -26 -68 -42 l-33 -29 0
-90 0 -89 27 -35 c30 -40 166 -114 209 -114 14 0 55 -13 91 -30 35 -16 74 -30
87 -30 12 0 60 -13 106 -30 62 -21 104 -30 153 -30 37 0 84 -7 104 -15 26 -11
74 -15 180 -15 105 0 153 -4 180 -15 24 -10 71 -15 150 -15 78 0 125 -5 150
-15 22 -9 68 -15 122 -15 l86 0 45 -30 45 -30 133 0 c95 0 143 -4 169 -15 28
-12 86 -15 285 -15 l249 0 62 20 c64 22 107 57 107 90 0 11 9 24 20 30 17 9
28 7 54 -10 19 -11 40 -27 47 -36 14 -17 102 -64 120 -64 26 0 148 -65 198
-106 29 -24 61 -44 70 -44 9 0 55 -25 101 -56 47 -32 117 -73 155 -92 39 -19
84 -46 102 -59 17 -13 46 -28 65 -33 18 -5 54 -27 81 -47 158 -126 400 -290
502 -341 39 -19 90 -51 115 -72 25 -20 64 -47 86 -58 23 -12 77 -46 121 -75
43 -30 102 -66 130 -80 27 -14 74 -48 104 -75 30 -27 73 -59 95 -70 67 -34
174 -110 244 -173 36 -32 78 -70 94 -84 l28 -26 62 3 61 3 3 44 3 44 -29 27
c-16 15 -42 45 -56 68 -18 28 -43 50 -79 68 -49 25 -71 40 -211 150 -32 26
-73 50 -90 55 -18 5 -50 24 -72 43 -21 18 -58 43 -80 54 -50 26 -170 106 -204
137 -14 13 -47 35 -75 50 -55 29 -130 74 -216 129 -30 20 -62 36 -71 36 -17 0
-124 75 -147 103 -7 9 -21 17 -30 17 -22 0 -148 83 -196 131 -26 25 -59 44
-93 54 -31 9 -75 35 -108 61 -30 25 -90 63 -132 84 -42 21 -99 57 -126 79 -26
23 -55 41 -63 41 -26 0 -98 39 -147 79 -26 23 -56 41 -65 41 -9 0 -36 14 -61
30 -25 16 -52 30 -60 30 -9 0 -53 25 -98 55 -88 59 -154 95 -172 95 -28 0
-102 44 -158 94 -35 31 -71 56 -81 56 -10 0 -26 9 -37 21 -33 36 -106 86 -194
130 -47 23 -97 51 -112 61 -18 12 -44 18 -85 18 l-59 0 -12 -33 c-17 -47 -15
-118 4 -145 17 -25 151 -96 201 -106 17 -4 51 -24 75 -45 47 -41 98 -71 122
-71 21 0 146 -123 146 -143 0 -9 -10 -23 -22 -31 -31 -22 -233 -22 -285 -1
-24 10 -71 15 -150 15 -78 0 -125 5 -150 15 -22 9 -67 15 -120 15 -52 0 -97 6
-120 15 -23 10 -69 15 -135 15 -65 0 -111 5 -135 15 -20 8 -66 15 -105 15 -38
0 -84 7 -105 15 -22 9 -67 15 -120 15 -52 0 -97 6 -120 15 -19 8 -61 15 -92
15 -66 0 -81 11 -81 58 l0 35 -97 99 c-69 70 -107 101 -133 108 -19 5 -58 20
-85 33 -28 13 -63 27 -79 31 -17 4 -42 16 -57 27 -21 15 -43 19 -101 18 -40 0
-80 -4 -88 -9z m209 -182 c65 -31 135 -78 158 -106 13 -16 8 -38 -12 -46 -15
-5 -103 23 -180 58 -27 13 -62 26 -77 30 -38 9 -63 48 -48 75 17 32 80 28 159
-11z"/>
</g>
</svg>
