<?xml version="1.0" standalone="no"?>
<!DOCTYPE svg PUBLIC "-//W3C//DTD SVG 20010904//EN"
 "http://www.w3.org/TR/2001/REC-SVG-20010904/DTD/svg10.dtd">
<svg version="1.0" xmlns="http://www.w3.org/2000/svg"
 width="369.000000pt" height="366.000000pt" viewBox="0 0 369.000000 366.000000"
 preserveAspectRatio="xMidYMid meet">
<metadata>
Created by potrace 1.16, written by Peter Selinger 2001-2019
</metadata>
<g transform="translate(0.000000,366.000000) scale(0.100000,-0.100000)"
fill="#000000" stroke="none">
<path d="M23 3646 l-23 -11 0 -87 c0 -48 5 -90 10 -93 6 -3 10 -22 10 -42 l0
-35 49 -48 c27 -27 59 -66 70 -89 13 -25 40 -53 70 -72 27 -18 62 -52 77 -77
16 -24 49 -57 74 -74 25 -16 60 -50 78 -74 19 -26 41 -44 53 -44 13 0 30 -16
48 -47 46 -75 69 -101 119 -134 26 -17 60 -48 75 -70 16 -22 50 -50 77 -64 47
-24 179 -140 255 -223 21 -24 56 -52 77 -63 43 -22 99 -74 352 -328 98 -98
172 -180 223 -244 31 -39 95 -111 142 -158 93 -93 168 -183 216 -258 17 -26
46 -67 66 -91 20 -25 48 -67 62 -95 14 -27 35 -63 46 -80 12 -16 21 -43 21
-60 0 -16 14 -50 30 -75 16 -25 30 -57 30 -71 0 -15 7 -44 16 -64 l16 -38 -16
-41 c-9 -23 -16 -71 -16 -107 0 -67 -20 -138 -66 -237 -13 -29 -24 -58 -24
-65 0 -26 -32 -57 -70 -67 -27 -7 -50 -24 -72 -50 -31 -39 -133 -100 -168
-100 -21 0 -50 -31 -50 -53 l0 -17 104 0 c61 0 107 4 111 10 4 6 38 26 75 45
38 19 99 59 136 87 l66 53 44 88 c53 105 104 256 104 310 0 21 10 61 22 89
l21 50 -16 46 c-10 26 -17 57 -17 69 0 11 -20 63 -45 115 -25 51 -45 99 -45
106 0 24 -62 137 -96 174 -18 21 -45 61 -60 90 -14 29 -47 74 -73 99 -53 54
-148 166 -163 194 -6 11 -59 70 -118 130 -59 61 -114 124 -123 140 -8 17 -48
57 -89 90 -40 33 -157 142 -259 243 -102 100 -191 182 -197 182 -7 0 -58 44
-114 98 -57 54 -119 108 -138 121 -20 13 -48 41 -64 62 -15 22 -49 50 -76 64
-27 14 -57 37 -67 52 -10 14 -36 44 -58 66 -184 180 -263 261 -283 286 -13 17
-41 43 -64 58 -23 15 -45 35 -49 43 -5 8 -29 50 -54 92 -71 121 -46 141 93 73
51 -25 99 -45 106 -45 7 0 25 -13 41 -30 16 -16 36 -30 44 -30 23 0 135 -55
174 -84 18 -14 74 -38 126 -55 102 -33 163 -65 200 -105 14 -14 32 -26 41 -26
28 0 176 -77 217 -112 22 -20 64 -42 101 -54 47 -14 70 -27 88 -52 14 -18 47
-43 73 -57 56 -28 175 -107 211 -140 14 -13 48 -34 76 -48 28 -14 75 -48 105
-75 30 -27 77 -61 104 -75 28 -13 87 -56 131 -95 45 -39 97 -78 115 -87 19
-10 54 -34 79 -54 24 -20 65 -49 91 -66 63 -40 162 -119 220 -175 43 -42 88
-77 183 -143 23 -16 66 -53 96 -83 31 -30 72 -59 95 -66 37 -12 45 -22 75 -88
4 -8 29 -27 56 -42 27 -15 65 -44 84 -66 19 -21 55 -54 80 -73 25 -19 76 -67
115 -106 75 -78 93 -85 145 -58 31 16 39 48 21 83 -5 9 -14 29 -19 44 -6 15
-24 35 -39 45 -15 9 -62 52 -103 94 -41 42 -84 83 -95 90 -12 8 -34 31 -49 52
-16 20 -51 49 -79 65 -32 16 -62 43 -80 69 -21 32 -48 53 -107 84 -47 24 -89
54 -105 75 -15 19 -53 48 -86 65 -37 18 -100 67 -164 127 -108 102 -183 161
-250 200 -22 13 -53 36 -70 52 -16 15 -44 35 -61 44 -53 26 -166 106 -209 146
-22 21 -60 48 -85 60 -25 12 -65 39 -90 60 -25 20 -69 49 -97 64 -29 14 -64
42 -79 62 -15 19 -46 45 -68 56 -23 12 -54 31 -71 43 -16 13 -52 35 -80 49
-27 15 -75 43 -105 62 -30 19 -66 37 -80 41 -14 3 -38 18 -55 33 -16 16 -73
49 -125 75 -52 26 -108 58 -125 70 -36 27 -229 125 -247 125 -7 0 -33 14 -58
30 -25 16 -52 30 -60 30 -22 0 -131 53 -177 87 -40 29 -79 47 -165 78 -26 9
-63 27 -83 41 l-36 24 -117 -1 c-64 -1 -127 -6 -139 -13z"/>
</g>
</svg>
