<?xml version="1.0" standalone="no"?>
<!DOCTYPE svg PUBLIC "-//W3C//DTD SVG 20010904//EN"
 "http://www.w3.org/TR/2001/REC-SVG-20010904/DTD/svg10.dtd">
<svg version="1.0" xmlns="http://www.w3.org/2000/svg"
 width="885.000000pt" height="243.000000pt" viewBox="0 0 885.000000 243.000000"
 preserveAspectRatio="xMidYMid meet">
<metadata>
Created by potrace 1.16, written by Peter Selinger 2001-2019
</metadata>
<g transform="translate(0.000000,243.000000) scale(0.100000,-0.100000)"
fill="#000000" stroke="none">
<path d="M305 2420 c-3 -6 -48 -10 -100 -10 l-93 0 -56 -47 c-38 -32 -56 -55
-56 -70 0 -13 6 -23 14 -23 8 0 23 -11 33 -24 24 -30 213 -126 248 -126 14 0
42 -7 62 -15 24 -10 71 -15 150 -15 78 0 125 -5 150 -15 20 -9 66 -15 108 -15
42 0 88 6 108 15 47 19 97 19 147 -1 29 -12 53 -14 83 -9 23 4 58 7 77 6 55
-3 90 -2 155 5 33 3 222 9 420 13 254 4 368 10 388 19 40 17 179 15 224 -3 28
-12 84 -15 270 -15 185 0 241 -3 270 -15 19 -8 60 -15 90 -15 29 0 70 -7 90
-15 19 -8 59 -15 87 -15 28 0 71 -6 96 -14 98 -31 139 -39 240 -45 58 -4 115
-12 127 -19 14 -8 68 -12 153 -12 93 0 141 -4 167 -15 20 -8 66 -15 105 -15
38 0 84 -7 105 -15 20 -8 66 -15 104 -15 37 0 80 -5 96 -11 15 -7 69 -13 118
-15 70 -2 109 -9 175 -33 47 -17 102 -31 123 -31 22 0 68 -13 104 -30 35 -17
70 -30 76 -30 7 0 32 -14 57 -30 31 -20 57 -30 84 -30 49 0 236 -62 339 -112
47 -23 92 -38 115 -38 20 0 57 -6 82 -14 60 -19 125 -35 182 -46 26 -5 56 -13
67 -19 11 -6 38 -11 61 -11 22 0 57 -7 77 -15 26 -11 75 -15 185 -15 l149 0
47 24 c48 25 115 96 164 173 21 32 34 43 53 43 42 0 109 -36 166 -88 30 -27
69 -57 88 -66 18 -10 54 -39 80 -64 26 -26 67 -59 92 -75 24 -15 73 -49 109
-77 36 -27 91 -69 123 -92 32 -24 82 -61 110 -83 29 -22 65 -49 82 -59 16 -11
60 -48 97 -83 37 -34 75 -63 85 -63 10 0 40 -25 66 -55 34 -39 59 -57 87 -65
23 -6 47 -21 57 -37 31 -44 121 -122 208 -177 16 -11 50 -38 75 -61 25 -24 68
-54 95 -68 28 -14 84 -55 125 -92 83 -75 197 -167 250 -204 19 -13 53 -47 75
-75 45 -56 75 -67 125 -44 l30 13 0 40 0 40 -57 56 c-32 31 -69 70 -82 88 -13
18 -42 44 -65 58 -22 14 -75 58 -116 98 -41 39 -91 81 -110 94 -19 13 -49 42
-67 66 -23 31 -41 44 -66 49 -19 4 -54 23 -78 44 -24 21 -64 53 -89 72 -59 45
-132 105 -189 155 -25 23 -58 48 -72 57 -15 9 -59 45 -100 80 -40 35 -86 68
-103 73 -17 6 -42 27 -57 50 -15 22 -52 56 -82 75 -31 19 -92 64 -137 100
-142 113 -183 144 -265 199 -44 29 -93 71 -109 92 -27 38 -89 79 -120 79 -8 0
-24 14 -36 30 -12 17 -61 56 -108 87 -48 32 -107 76 -132 99 -91 84 -179 105
-261 63 l-41 -20 7 -61 c4 -33 21 -90 37 -125 l30 -64 -4 -48 c-3 -28 -14 -62
-27 -80 l-22 -31 -100 0 c-66 0 -112 5 -136 15 -19 8 -51 15 -71 15 -19 0 -97
20 -171 44 -142 46 -199 62 -266 75 -55 11 -219 67 -283 96 -29 14 -64 25 -78
25 -13 0 -41 7 -61 15 -19 8 -47 15 -62 15 -14 1 -64 24 -111 53 -65 41 -86
58 -88 77 -8 76 -38 136 -99 198 -59 59 -181 150 -248 185 -46 23 -151 57
-179 57 -14 0 -28 4 -31 10 -3 6 -48 10 -99 10 l-92 0 -26 -27 c-30 -32 -58
-85 -58 -108 0 -35 52 -115 109 -168 34 -31 61 -61 61 -66 0 -17 -174 -14
-217 4 -19 8 -53 15 -75 15 -21 0 -55 7 -75 15 -22 9 -67 15 -120 15 -52 0
-97 6 -120 15 -24 10 -71 15 -150 15 -78 0 -125 5 -150 15 -20 8 -66 15 -105
15 -38 0 -84 7 -105 15 -19 8 -53 15 -75 15 -21 0 -55 7 -75 15 -20 8 -66 15
-104 15 -40 0 -86 7 -109 16 l-41 16 -42 -11 c-31 -9 -50 -9 -70 -2 -16 6 -60
11 -98 11 -39 0 -85 7 -106 15 -26 11 -74 15 -180 15 -105 0 -153 4 -180 15
-19 8 -60 15 -90 15 -29 0 -70 7 -90 15 -24 10 -71 15 -150 15 -78 0 -125 5
-150 15 -20 8 -66 15 -105 15 -38 0 -84 7 -105 15 -26 11 -76 15 -199 15 -98
0 -165 4 -169 10 -3 6 -28 10 -55 10 -27 0 -52 -4 -55 -10 -8 -14 -452 -14
-460 0 -3 6 -28 10 -55 10 -27 0 -52 -4 -55 -10z m609 -166 c22 -8 20 -24 -3
-24 -10 0 -35 -7 -54 -15 -43 -18 -169 -20 -200 -3 l-22 11 20 8 c11 4 54 8
95 8 41 1 82 6 90 11 17 11 51 13 74 4z m559 -26 l22 -11 -20 -8 c-32 -12
-420 -11 -452 2 l-28 11 20 8 c32 14 433 12 458 -2z m2951 -37 c3 -4 24 -11
47 -14 27 -3 53 -16 73 -35 17 -16 40 -32 50 -36 10 -3 16 -9 12 -13 -3 -3
-16 -1 -29 5 -12 6 -42 20 -67 32 -79 37 -110 55 -110 63 0 10 18 9 24 -2z"/>
</g>
</svg>
