<?xml version="1.0" standalone="no"?>
<!DOCTYPE svg PUBLIC "-//W3C//DTD SVG 20010904//EN"
 "http://www.w3.org/TR/2001/REC-SVG-20010904/DTD/svg10.dtd">
<svg version="1.0" xmlns="http://www.w3.org/2000/svg"
 width="774.000000pt" height="207.000000pt" viewBox="0 0 774.000000 207.000000"
 preserveAspectRatio="xMidYMid meet">
<metadata>
Created by potrace 1.16, written by Peter Selinger 2001-2019
</metadata>
<g transform="translate(0.000000,207.000000) scale(0.100000,-0.100000)"
fill="#000000" stroke="none">
<path d="M455 2060 c-3 -6 -50 -10 -105 -10 -128 0 -207 -24 -287 -89 l-58
-47 -3 -92 -3 -92 23 0 c12 0 63 -13 113 -29 157 -51 176 -54 360 -60 115 -4
188 -10 202 -18 15 -9 75 -13 198 -13 133 0 184 -4 212 -15 24 -10 71 -15 150
-15 78 0 125 -5 150 -15 l35 -15 640 0 639 0 33 -14 c25 -11 114 -14 405 -15
l373 -1 35 -15 c20 -8 47 -15 60 -15 14 0 54 -13 90 -30 35 -16 75 -30 88 -30
13 0 36 -5 52 -12 31 -12 76 -19 263 -41 94 -11 138 -21 177 -41 29 -14 64
-26 78 -26 14 0 42 -7 62 -15 19 -8 53 -15 75 -15 21 0 55 -7 75 -15 l35 -15
265 0 264 0 59 20 c75 25 175 104 231 182 23 32 46 58 50 58 18 0 120 -50 151
-73 18 -14 62 -40 97 -57 35 -18 80 -47 100 -65 20 -18 54 -42 76 -53 22 -11
66 -43 98 -71 32 -28 67 -51 78 -51 27 0 140 -69 214 -131 33 -28 72 -53 88
-56 15 -3 37 -19 48 -34 11 -16 59 -55 106 -86 47 -31 100 -68 117 -82 40 -33
108 -80 167 -114 25 -14 58 -42 73 -61 15 -20 39 -39 54 -42 15 -4 45 -23 68
-43 23 -20 88 -67 145 -104 62 -41 115 -84 132 -108 16 -22 50 -50 75 -64 27
-13 75 -55 110 -94 38 -42 71 -71 83 -71 11 0 24 -11 31 -25 l12 -26 60 3 61
3 3 50 3 51 -54 60 c-30 33 -74 72 -98 87 -24 16 -57 46 -72 67 -15 22 -51 52
-80 67 -32 17 -62 44 -80 71 -27 41 -106 92 -141 92 -8 0 -24 13 -35 29 -26
37 -133 111 -178 123 -19 5 -63 37 -101 72 -37 35 -81 71 -99 79 -17 9 -52 35
-78 57 -25 22 -50 40 -54 40 -4 0 -32 21 -62 46 -30 26 -99 77 -154 113 -55
36 -130 94 -167 128 -37 35 -75 63 -84 63 -10 0 -38 13 -63 29 -25 16 -57 31
-71 34 -14 4 -45 23 -68 42 -23 20 -57 41 -76 46 -19 5 -62 34 -95 64 -34 30
-70 55 -80 55 -9 0 -30 14 -46 30 -16 17 -37 30 -46 30 -10 0 -37 16 -61 35
-46 37 -130 85 -149 85 -6 0 -30 20 -53 45 l-42 45 -56 0 c-76 0 -88 -15 -88
-112 0 -46 6 -90 16 -113 l15 -37 -17 -52 c-23 -65 -27 -70 -72 -92 l-37 -18
-213 2 c-163 2 -222 6 -249 17 -21 9 -68 15 -117 15 -65 0 -99 6 -166 30 -47
16 -96 30 -110 30 -14 0 -47 11 -75 23 -33 16 -79 26 -134 31 -139 11 -184 44
-156 112 37 89 7 180 -92 276 -44 43 -73 61 -120 77 l-62 21 -131 0 -131 0
-48 -24 c-26 -14 -62 -41 -79 -61 l-32 -36 0 -68 0 -68 41 -52 41 -51 -12 -15
c-17 -21 -187 -21 -237 0 l-35 15 -280 0 -279 0 -36 15 c-19 8 -48 15 -63 15
-15 0 -44 -7 -63 -15 -27 -11 -75 -15 -177 -15 -102 0 -150 4 -177 15 -27 11
-77 15 -210 15 -132 0 -182 4 -210 15 l-35 15 -262 0 c-203 0 -271 3 -306 15
-25 8 -57 17 -72 20 l-27 5 5 48 5 47 -38 70 c-26 47 -48 74 -68 84 -16 8 -38
18 -47 23 -25 11 -196 10 -203 -2z m104 -148 c19 -9 39 -25 45 -35 l11 -18
-25 -18 c-39 -30 -140 -54 -174 -42 -15 6 -46 11 -69 11 -24 0 -53 7 -66 17
l-24 16 23 19 c12 10 34 18 49 18 14 1 58 12 96 25 84 28 90 29 134 7z m3126
-87 c46 -45 27 -105 -33 -105 -44 0 -149 35 -174 57 -18 16 -24 54 -11 66 3 4
49 7 100 7 l94 0 24 -25z"/>
</g>
</svg>
