<?xml version="1.0" standalone="no"?>
<!DOCTYPE svg PUBLIC "-//W3C//DTD SVG 20010904//EN"
 "http://www.w3.org/TR/2001/REC-SVG-20010904/DTD/svg10.dtd">
<svg version="1.0" xmlns="http://www.w3.org/2000/svg"
 width="615.000000pt" height="270.000000pt" viewBox="0 0 615.000000 270.000000"
 preserveAspectRatio="xMidYMid meet">
<metadata>
Created by potrace 1.16, written by Peter Selinger 2001-2019
</metadata>
<g transform="translate(0.000000,270.000000) scale(0.100000,-0.100000)"
fill="#000000" stroke="none">
<path d="M2238 2656 c-16 -24 -28 -53 -28 -63 0 -31 37 -71 74 -81 18 -5 83
-42 143 -83 116 -76 157 -121 169 -187 12 -63 -46 -132 -109 -132 -13 0 -41
-7 -60 -15 -20 -8 -54 -15 -75 -15 -22 0 -56 -7 -75 -15 -51 -21 -303 -21
-354 0 -22 9 -67 15 -120 15 -52 0 -97 6 -120 15 -23 10 -69 15 -132 15 -55 0
-115 6 -141 14 -58 18 -124 35 -175 45 -22 4 -56 12 -75 18 -69 22 -126 35
-185 42 -34 5 -70 13 -82 19 -12 7 -32 12 -44 12 -33 0 -143 39 -232 82 -59
29 -90 38 -129 38 -70 0 -175 36 -196 68 -9 14 -29 38 -44 53 l-26 29 -52 0
c-36 0 -67 -8 -110 -30 l-60 -30 0 -129 0 -128 21 -19 c20 -18 59 -93 59 -114
0 -34 45 -92 95 -125 34 -21 55 -42 55 -53 0 -24 72 -124 105 -146 14 -9 36
-34 50 -56 24 -38 104 -90 138 -90 8 0 28 -17 45 -39 17 -21 65 -67 108 -102
43 -35 98 -83 123 -105 25 -23 66 -52 91 -64 25 -12 65 -39 90 -60 25 -20 68
-49 95 -64 53 -29 124 -71 215 -129 30 -19 69 -38 87 -42 17 -3 52 -24 76 -46
25 -21 50 -39 57 -39 6 0 41 -14 77 -30 35 -16 70 -30 76 -30 7 0 64 -25 127
-56 145 -70 216 -94 280 -94 28 0 67 -7 87 -15 49 -21 79 -19 148 8 45 17 61
29 63 45 4 29 -52 65 -89 57 -32 -7 -125 18 -191 51 -26 13 -58 24 -71 24 -23
0 -122 31 -167 53 -14 6 -43 24 -64 39 -21 16 -45 28 -53 28 -8 0 -44 13 -80
30 -35 16 -70 30 -78 30 -14 0 -123 77 -144 103 -7 9 -21 17 -30 17 -34 1
-157 75 -239 144 -24 20 -53 36 -65 36 -11 0 -38 19 -61 44 -47 50 -122 106
-143 106 -13 0 -38 22 -164 146 -41 41 -113 113 -153 153 -17 18 -70 71 -117
119 -85 86 -179 221 -179 259 0 10 4 24 9 32 l9 14 32 -12 c18 -6 63 -11 99
-11 92 0 233 -49 299 -105 l31 -26 63 7 c47 5 73 2 102 -10 21 -9 55 -16 75
-16 20 0 56 -6 81 -14 86 -27 135 -38 210 -46 41 -4 107 -20 145 -34 42 -15
91 -26 123 -26 29 0 69 -7 89 -15 l35 -15 328 0 328 0 35 15 c21 9 67 15 110
15 l74 0 44 31 c24 17 58 44 74 59 17 16 39 30 50 32 23 4 64 61 72 101 12 61
71 53 165 -25 26 -21 96 -64 155 -94 60 -31 133 -71 163 -90 30 -19 67 -38 82
-41 15 -3 39 -21 53 -39 15 -19 52 -48 83 -65 85 -45 187 -111 219 -140 15
-15 44 -35 63 -44 19 -10 54 -33 78 -53 103 -83 187 -132 226 -132 16 0 32 -9
42 -26 20 -29 121 -104 142 -104 7 0 37 -20 65 -45 28 -25 82 -61 119 -81 38
-19 102 -66 143 -105 41 -38 83 -69 93 -69 10 0 29 -12 43 -26 13 -14 56 -47
94 -72 39 -26 90 -65 115 -87 51 -46 119 -94 169 -119 18 -10 54 -39 80 -64
26 -26 67 -59 92 -75 24 -15 72 -48 106 -75 82 -63 147 -111 197 -145 23 -16
59 -46 81 -67 22 -21 54 -45 72 -54 17 -9 52 -34 78 -56 25 -22 50 -40 54 -40
5 0 39 -29 76 -65 l67 -65 49 0 c35 0 49 4 49 14 0 7 9 25 20 39 31 39 26 73
-12 93 -37 19 -97 63 -143 105 -16 15 -49 37 -73 49 -24 13 -54 38 -69 56 -14
19 -58 55 -97 81 -39 26 -91 66 -116 88 -25 23 -79 63 -120 90 -41 27 -95 68
-120 90 -25 23 -65 54 -90 69 -25 14 -72 49 -105 77 -33 28 -72 53 -88 56 -15
3 -37 19 -48 34 -11 16 -59 55 -106 86 -47 31 -100 68 -117 82 -40 33 -108 80
-168 114 -26 15 -56 41 -68 57 -12 17 -48 44 -79 60 -32 16 -82 51 -112 78
-30 27 -74 59 -99 72 -47 24 -147 97 -169 124 -7 9 -28 16 -46 16 -23 0 -47
11 -77 35 -24 19 -60 44 -81 55 -21 12 -55 36 -75 54 -20 18 -49 36 -64 40
-15 3 -39 22 -54 42 -15 19 -46 45 -68 56 -23 12 -54 31 -71 43 -16 13 -52 35
-80 49 -27 15 -75 43 -105 62 -30 19 -66 37 -80 41 -14 3 -38 18 -55 33 -16
15 -46 36 -65 45 -19 10 -48 28 -65 41 -16 12 -59 37 -94 54 -35 18 -80 47
-100 65 -20 18 -63 46 -96 63 -86 43 -279 175 -349 238 l-59 54 -91 0 -91 -1
-27 -43z"/>
<path d="M2527 1642 c-43 -47 -5 -101 90 -129 138 -41 160 -46 278 -52 66 -4
130 -12 142 -19 12 -6 53 -12 92 -12 40 0 87 -7 109 -16 25 -9 62 -14 103 -12
l63 3 23 34 c29 42 29 50 0 92 l-23 34 -179 6 -180 5 -70 27 c-50 19 -89 27
-138 27 -37 0 -84 7 -104 15 -21 9 -67 15 -113 15 l-77 0 -16 -18z"/>
</g>
</svg>
