<?xml version="1.0" standalone="no"?>
<!DOCTYPE svg PUBLIC "-//W3C//DTD SVG 20010904//EN"
 "http://www.w3.org/TR/2001/REC-SVG-20010904/DTD/svg10.dtd">
<svg version="1.0" xmlns="http://www.w3.org/2000/svg"
 width="210.000000pt" height="231.000000pt" viewBox="0 0 210.000000 231.000000"
 preserveAspectRatio="xMidYMid meet">
<metadata>
Created by potrace 1.16, written by Peter Selinger 2001-2019
</metadata>
<g transform="translate(0.000000,231.000000) scale(0.100000,-0.100000)"
fill="#000000" stroke="none">
<path d="M933 2266 l-43 -41 0 -137 0 -136 30 -64 c16 -34 30 -69 30 -76 0
-24 62 -137 94 -172 18 -19 48 -57 67 -85 19 -27 52 -73 74 -101 22 -29 60
-80 85 -113 83 -112 92 -122 179 -179 47 -31 109 -78 138 -104 29 -26 61 -48
70 -48 9 0 37 -13 62 -29 25 -16 72 -42 103 -57 l57 -28 58 14 58 13 53 55 52
54 0 48 c0 27 -5 52 -10 55 -6 4 -21 27 -34 53 -39 75 -155 172 -208 172 -7 0
-33 14 -58 30 -25 16 -51 30 -58 30 -7 0 -39 12 -70 27 l-57 27 -105 6 -105 5
-32 23 c-18 13 -33 32 -33 42 0 10 -18 40 -41 66 -71 86 -82 144 -27 144 22 0
130 35 169 56 16 8 46 39 68 71 l41 56 0 67 0 66 -30 29 c-16 16 -30 36 -30
45 0 40 -75 95 -154 114 -17 4 -42 16 -57 27 l-27 19 -134 -2 -133 -1 -42 -41z
m321 -146 c33 -12 106 -88 106 -109 0 -9 -9 -31 -20 -48 l-20 -33 -89 0 c-59
0 -92 4 -99 13 -5 6 -13 38 -17 70 -5 45 -3 64 9 82 21 32 82 44 130 25z m482
-885 c31 -25 65 -45 74 -45 26 0 59 -29 75 -67 18 -42 8 -61 -23 -44 -11 6
-29 11 -40 11 -10 0 -30 12 -44 28 -15 15 -54 47 -87 70 -35 25 -61 51 -61 61
0 46 35 41 106 -14z"/>
<path d="M0 1441 l0 -38 30 -6 c16 -4 49 -24 72 -46 24 -21 57 -42 75 -45 17
-4 51 -24 75 -45 24 -21 72 -53 107 -71 75 -37 167 -105 182 -132 5 -10 28
-30 51 -44 23 -15 62 -45 87 -68 25 -23 66 -54 91 -68 25 -14 54 -36 65 -48
11 -12 33 -29 50 -37 49 -25 192 -123 237 -163 24 -20 66 -49 95 -63 28 -15
72 -44 98 -67 25 -22 50 -40 54 -40 4 0 57 -49 118 -108 106 -104 291 -242
324 -242 26 0 67 -38 80 -75 l13 -35 88 0 88 0 0 58 c0 61 -19 102 -47 102
-26 0 -67 30 -96 71 -16 22 -50 50 -76 63 -26 14 -65 46 -87 73 -21 26 -88 98
-149 158 -111 111 -122 127 -171 247 l-26 67 11 32 c6 18 11 53 11 79 0 62
-20 80 -90 80 l-53 0 -43 -44 -44 -43 0 -64 c0 -35 -4 -70 -9 -77 l-8 -14 -34
19 c-19 10 -48 28 -64 39 -17 12 -52 33 -80 47 -27 14 -76 47 -109 74 -70 58
-125 93 -147 93 -8 0 -26 12 -40 26 -13 14 -45 37 -71 50 -27 13 -78 53 -115
87 -38 35 -107 89 -155 121 -48 32 -108 76 -132 97 -49 43 -63 46 -108 23
l-31 -16 -28 16 c-15 9 -41 16 -58 16 l-31 0 0 -39z"/>
</g>
</svg>
