<?xml version="1.0" standalone="no"?>
<!DOCTYPE svg PUBLIC "-//W3C//DTD SVG 20010904//EN"
 "http://www.w3.org/TR/2001/REC-SVG-20010904/DTD/svg10.dtd">
<svg version="1.0" xmlns="http://www.w3.org/2000/svg"
 width="327.000000pt" height="138.000000pt" viewBox="0 0 327.000000 138.000000"
 preserveAspectRatio="xMidYMid meet">
<metadata>
Created by potrace 1.16, written by Peter Selinger 2001-2019
</metadata>
<g transform="translate(0.000000,138.000000) scale(0.100000,-0.100000)"
fill="#000000" stroke="none">
<path d="M1748 1347 c-20 -17 -46 -52 -59 -77 l-21 -44 7 -115 7 -115 25 -49
c13 -27 56 -86 94 -131 38 -44 68 -85 66 -90 -9 -26 -38 -30 -86 -13 -37 13
-81 17 -190 17 -103 0 -151 4 -178 15 -22 9 -68 15 -123 15 l-87 0 -39 29
c-21 15 -48 38 -59 51 -11 12 -42 33 -70 47 -27 14 -70 42 -95 63 -25 20 -59
44 -75 53 -54 28 -153 57 -193 57 -29 0 -45 7 -67 30 l-29 30 -43 0 c-24 0
-60 7 -80 15 -26 11 -73 15 -173 15 l-138 0 -48 -40 c-27 -23 -59 -43 -71 -46
l-23 -6 0 -53 0 -53 34 -26 c39 -29 166 -71 296 -96 25 -5 69 -20 97 -34 32
-16 70 -26 95 -26 31 0 56 -9 88 -30 32 -22 57 -30 88 -30 23 0 59 -7 79 -15
19 -8 54 -15 77 -16 112 -2 241 -86 353 -231 89 -115 97 -208 23 -265 -22 -17
-132 -53 -162 -53 -41 0 -83 -61 -72 -105 l6 -25 123 0 c72 0 126 4 130 10 3
6 16 10 27 10 24 0 118 95 145 144 29 55 44 122 33 151 -5 14 -10 45 -10 67 0
29 -9 56 -31 89 l-30 48 11 20 11 21 235 0 c186 0 242 -3 271 -15 20 -8 66
-15 105 -15 81 0 121 -15 190 -71 25 -21 79 -55 120 -75 40 -21 87 -47 103
-60 17 -12 65 -34 108 -48 43 -14 91 -34 105 -45 15 -10 96 -42 180 -70 220
-74 274 -69 394 32 l48 40 0 54 c0 29 -4 61 -9 71 -5 9 -14 29 -19 43 -11 27
-136 119 -161 119 -7 0 -42 13 -78 30 -47 22 -79 30 -119 30 -30 0 -71 7 -91
15 -22 9 -67 15 -120 15 -52 0 -97 6 -120 15 -25 11 -73 15 -168 15 l-132 0
-32 40 c-21 26 -44 43 -70 50 -46 12 -60 27 -101 109 -37 75 -34 80 55 81 l60
1 100 52 c74 39 104 60 119 85 l19 33 -17 37 c-24 54 -163 186 -222 213 -27
12 -57 26 -66 30 -10 5 -84 9 -165 9 l-148 0 -37 -33z m359 -163 c123 -59 109
-94 -39 -94 l-87 0 -36 31 c-40 36 -44 61 -13 83 37 26 94 19 175 -20z m710
-759 c19 -8 54 -15 77 -15 32 0 54 -8 92 -35 67 -48 64 -59 -19 -63 -118 -5
-309 74 -282 117 9 16 90 13 132 -4z"/>
</g>
</svg>
