<?xml version="1.0" standalone="no"?>
<!DOCTYPE svg PUBLIC "-//W3C//DTD SVG 20010904//EN"
 "http://www.w3.org/TR/2001/REC-SVG-20010904/DTD/svg10.dtd">
<svg version="1.0" xmlns="http://www.w3.org/2000/svg"
 width="480.000000pt" height="189.000000pt" viewBox="0 0 480.000000 189.000000"
 preserveAspectRatio="xMidYMid meet">
<metadata>
Created by potrace 1.16, written by Peter Selinger 2001-2019
</metadata>
<g transform="translate(0.000000,189.000000) scale(0.100000,-0.100000)"
fill="#000000" stroke="none">
<path d="M0 1840 l0 -50 50 -25 c28 -14 67 -40 88 -58 22 -20 66 -42 112 -57
41 -13 110 -41 153 -62 43 -21 88 -38 100 -38 12 0 42 -6 67 -14 93 -29 137
-38 225 -46 50 -4 104 -12 120 -18 52 -18 118 -33 175 -41 30 -4 71 -12 90
-18 86 -27 132 -36 230 -42 58 -4 115 -12 127 -19 14 -8 71 -12 170 -12 l148
1 97 33 97 33 66 58 c46 40 75 76 97 119 17 33 39 73 50 89 l19 27 40 0 c22 0
56 -7 76 -15 19 -8 59 -15 87 -15 32 0 91 -13 156 -35 119 -40 143 -51 185
-82 17 -12 66 -33 110 -48 115 -37 140 -50 175 -95 17 -22 38 -40 47 -40 26 0
86 -31 133 -69 25 -20 84 -63 132 -95 48 -32 107 -75 130 -96 24 -20 62 -47
86 -59 23 -12 73 -51 112 -87 38 -36 81 -69 96 -73 15 -4 31 -15 36 -24 4 -9
12 -25 16 -34 5 -10 33 -32 63 -48 31 -18 65 -47 80 -70 15 -22 58 -65 96 -95
120 -97 353 -340 353 -370 0 -10 25 -47 56 -82 30 -34 58 -75 61 -90 7 -34 37
-58 75 -58 15 0 30 -4 33 -10 3 -5 19 -10 36 -10 l29 0 0 78 0 77 -43 61 c-90
130 -114 160 -167 214 l-56 55 -23 70 c-12 39 -32 84 -45 100 -12 17 -27 43
-34 59 l-13 29 14 14 14 14 38 -15 c27 -12 71 -16 159 -16 l122 0 27 28 27 28
0 76 c0 42 -4 80 -10 83 -5 3 -10 15 -10 27 0 26 -142 173 -191 198 -121 62
-289 81 -369 40 -45 -23 -49 -28 -72 -95 -21 -62 -23 -151 -3 -198 17 -42 18
-47 6 -65 -11 -18 -124 59 -216 147 -38 37 -86 78 -105 90 -20 13 -48 41 -63
62 -27 38 -90 79 -120 79 -8 0 -27 16 -41 35 -15 19 -51 47 -79 61 -29 15 -71
42 -95 61 -107 87 -205 143 -249 143 -21 0 -39 12 -71 50 -39 45 -123 100
-153 100 -6 0 -40 14 -76 30 -35 17 -69 30 -74 30 -6 0 -35 11 -65 25 -92 42
-171 65 -224 65 -28 0 -67 7 -87 15 -19 8 -55 15 -79 15 -23 0 -46 5 -49 10
-7 12 -225 14 -225 2 0 -4 -18 -30 -41 -57 l-41 -49 6 -38 c3 -21 3 -64 -1
-95 -7 -67 -36 -103 -81 -103 -16 0 -46 -7 -65 -15 -27 -11 -76 -15 -192 -15
-116 0 -165 4 -192 15 -23 10 -69 15 -135 15 -65 0 -111 5 -135 15 -19 8 -53
15 -75 15 -21 0 -55 7 -75 15 -19 8 -45 15 -57 15 -12 0 -60 13 -106 30 -47
16 -101 30 -120 30 -19 0 -55 6 -80 14 -58 18 -124 35 -180 46 -25 5 -79 25
-119 45 -41 20 -111 48 -155 62 -45 14 -93 34 -108 45 -17 12 -44 18 -77 18
l-51 0 0 -50z m4506 -805 c84 -40 112 -72 94 -104 l-11 -21 -52 0 c-47 0 -131
22 -163 42 -6 4 -19 23 -28 43 -39 82 34 100 160 40z"/>
</g>
</svg>
