<?xml version="1.0" standalone="no"?>
<!DOCTYPE svg PUBLIC "-//W3C//DTD SVG 20010904//EN"
 "http://www.w3.org/TR/2001/REC-SVG-20010904/DTD/svg10.dtd">
<svg version="1.0" xmlns="http://www.w3.org/2000/svg"
 width="597.000000pt" height="243.000000pt" viewBox="0 0 597.000000 243.000000"
 preserveAspectRatio="xMidYMid meet">
<metadata>
Created by potrace 1.16, written by Peter Selinger 2001-2019
</metadata>
<g transform="translate(0.000000,243.000000) scale(0.100000,-0.100000)"
fill="#000000" stroke="none">
<path d="M67 2373 l-67 -57 0 -39 c0 -21 8 -50 19 -65 10 -15 26 -39 35 -54
10 -17 46 -43 89 -64 39 -20 85 -47 102 -60 16 -12 86 -41 155 -63 69 -23 143
-50 166 -61 62 -28 251 -90 278 -90 12 0 41 -13 62 -29 71 -51 241 -236 269
-290 14 -29 46 -77 70 -107 25 -30 51 -76 59 -104 8 -28 29 -69 45 -93 47 -66
81 -178 81 -270 l0 -78 -60 -57 -60 -58 0 -58 0 -58 116 -119 c144 -149 179
-219 139 -277 -24 -34 -154 -92 -206 -92 -51 0 -122 -36 -127 -64 -2 -10 6
-29 19 -42 l22 -24 132 0 132 0 61 36 c35 21 88 66 122 104 l60 68 0 56 c0 31
-9 85 -21 119 l-20 62 -110 108 c-60 59 -109 109 -109 111 0 2 15 29 34 59 71
119 90 234 57 352 -6 22 -13 51 -15 65 -3 14 -21 50 -40 80 -55 86 -93 162
-105 207 -8 30 -26 55 -64 90 -39 35 -57 60 -66 92 l-13 44 14 8 c22 14 136
10 175 -6 19 -8 60 -15 90 -15 29 0 70 -7 90 -15 19 -8 53 -15 75 -15 21 0 55
-7 75 -15 24 -10 71 -15 149 -15 68 0 124 -5 141 -12 18 -8 113 -15 258 -20
127 -4 239 -7 250 -8 11 0 49 2 85 6 49 4 75 2 104 -10 52 -22 258 -22 309 -1
25 10 72 15 150 15 79 0 126 5 150 15 20 8 55 15 77 15 23 0 51 5 63 12 12 6
48 14 82 19 33 4 80 13 105 19 93 25 355 112 389 130 53 27 145 127 176 190
44 88 63 110 94 110 16 0 45 7 64 15 51 21 303 21 354 0 19 -8 53 -15 75 -15
21 0 55 -7 75 -15 19 -8 45 -15 57 -15 12 0 60 -13 106 -30 47 -16 98 -30 113
-30 16 0 38 -10 52 -25 l25 -24 0 -56 c0 -92 33 -171 98 -238 51 -53 134 -107
162 -107 6 0 36 -12 67 -26 31 -14 85 -35 119 -46 l63 -21 33 14 c17 7 47 26
65 42 l33 29 0 78 c0 44 -4 82 -10 85 -6 3 -10 15 -10 27 0 26 -142 173 -193
199 -21 11 -55 34 -75 52 -22 20 -66 42 -110 56 -41 13 -123 48 -183 77 -60
30 -121 54 -135 54 -13 0 -41 7 -61 15 -19 8 -60 15 -90 15 -29 0 -70 7 -90
15 -19 8 -60 15 -90 15 -29 0 -70 7 -90 15 -19 8 -53 15 -75 15 -21 0 -55 7
-75 15 -45 19 -111 19 -156 0 -43 -18 -92 -19 -135 -4 -40 14 -67 -1 -159 -88
l-73 -68 0 -33 c0 -37 -23 -98 -47 -124 -44 -49 -400 -178 -490 -178 -28 0
-67 -7 -86 -15 -26 -11 -74 -15 -167 -15 -87 0 -139 -4 -153 -12 -18 -11 -170
-22 -397 -29 -52 -1 -196 18 -217 29 -15 9 -127 12 -393 12 l-371 0 -36 15
c-19 8 -60 15 -90 15 -29 0 -70 7 -90 15 -19 8 -52 15 -72 15 -20 0 -56 6 -81
14 -58 18 -123 35 -180 46 -60 12 -204 83 -260 129 -25 20 -61 47 -81 61 -21
13 -51 45 -68 71 -20 31 -48 57 -81 75 -28 15 -62 42 -76 61 -25 32 -109 83
-138 83 -8 0 -23 10 -33 23 -10 12 -42 37 -71 55 l-53 32 -147 0 -147 0 -68
-57z m321 -120 c21 -9 53 -29 72 -43 19 -15 42 -30 50 -33 8 -4 42 -26 74 -50
66 -47 84 -74 45 -64 -76 18 -99 26 -134 49 -22 14 -75 36 -119 49 -43 13 -89
34 -103 46 l-24 23 11 20 c14 26 76 27 128 3z m5261 -490 c49 -68 53 -88 14
-78 -44 11 -92 44 -108 75 -24 47 -20 60 19 60 l35 0 40 -57z"/>
</g>
</svg>
