<?xml version="1.0" standalone="no"?>
<!DOCTYPE svg PUBLIC "-//W3C//DTD SVG 20010904//EN"
 "http://www.w3.org/TR/2001/REC-SVG-20010904/DTD/svg10.dtd">
<svg version="1.0" xmlns="http://www.w3.org/2000/svg"
 width="588.000000pt" height="96.000000pt" viewBox="0 0 588.000000 96.000000"
 preserveAspectRatio="xMidYMid meet">
<metadata>
Created by potrace 1.16, written by Peter Selinger 2001-2019
</metadata>
<g transform="translate(0.000000,96.000000) scale(0.100000,-0.100000)"
fill="#000000" stroke="none">
<path d="M3389 892 l-71 -69 3 -88 3 -89 -29 -18 c-23 -15 -40 -17 -70 -12
-41 7 -61 8 -305 22 -81 4 -155 13 -167 20 -15 8 -86 12 -243 12 -173 0 -228
3 -257 15 -23 10 -69 15 -134 15 -56 0 -110 5 -126 12 -18 8 -113 15 -268 19
-132 4 -265 11 -295 17 -31 6 -205 11 -393 11 l-338 1 -36 15 c-24 10 -71 15
-150 15 -78 0 -125 5 -150 15 -25 11 -72 15 -161 15 l-125 0 -39 -42 -38 -41
0 -59 c0 -32 4 -66 9 -76 5 -9 14 -29 20 -44 5 -15 28 -39 50 -52 22 -14 54
-38 73 -54 36 -32 109 -72 130 -72 7 0 30 -11 49 -24 54 -37 150 -66 216 -66
76 1 148 38 180 95 29 51 29 70 -3 140 -19 42 -24 62 -17 77 l9 21 404 -2 404
-2 34 -15 c25 -10 78 -14 196 -14 l162 0 29 -30 29 -30 193 0 c150 0 202 -3
230 -15 l35 -15 264 0 c186 0 271 -4 291 -12 17 -8 108 -15 238 -19 116 -4
225 -10 243 -14 l33 -7 35 33 c45 43 44 69 -6 152 -46 76 -50 108 -15 142 l24
25 221 0 c173 0 228 -3 257 -15 19 -8 60 -15 90 -15 29 0 70 -7 90 -15 19 -8
52 -15 72 -15 20 0 75 -13 121 -30 47 -16 102 -30 123 -30 21 0 54 -7 74 -15
19 -8 59 -15 87 -15 48 0 168 -34 219 -62 12 -6 62 -26 112 -42 94 -33 97 -36
126 -116 7 -19 35 -56 61 -82 27 -25 48 -55 48 -67 0 -13 26 -40 79 -81 44
-33 83 -65 86 -70 10 -16 115 -66 186 -90 35 -11 72 -25 81 -30 25 -14 149
-12 181 3 l27 12 0 101 0 100 -37 38 c-52 52 -142 120 -194 147 -24 12 -57 32
-74 44 -48 36 -112 65 -143 65 -22 0 -37 9 -56 35 -29 38 -111 85 -147 85 -12
0 -124 33 -248 74 -236 77 -285 91 -363 106 -26 5 -56 13 -67 19 -11 6 -45 11
-76 11 -30 0 -72 7 -92 15 -19 8 -53 15 -75 15 -21 0 -55 7 -75 15 -19 8 -60
15 -90 15 -29 0 -70 7 -90 15 -22 9 -68 15 -124 15 -48 0 -91 5 -94 10 -4 6
-78 10 -190 10 l-184 0 -72 -68z m-3032 -257 c19 -8 47 -15 62 -15 30 0 51
-16 51 -38 0 -8 14 -30 30 -49 l30 -34 -10 -19 c-8 -15 -21 -20 -55 -20 l-43
0 -44 35 c-24 19 -54 40 -68 46 -50 22 -55 27 -65 54 l-10 27 20 14 c24 18 57
18 102 -1z"/>
</g>
</svg>
