<?xml version="1.0" standalone="no"?>
<!DOCTYPE svg PUBLIC "-//W3C//DTD SVG 20010904//EN"
 "http://www.w3.org/TR/2001/REC-SVG-20010904/DTD/svg10.dtd">
<svg version="1.0" xmlns="http://www.w3.org/2000/svg"
 width="237.000000pt" height="141.000000pt" viewBox="0 0 237.000000 141.000000"
 preserveAspectRatio="xMidYMid meet">
<metadata>
Created by potrace 1.16, written by Peter Selinger 2001-2019
</metadata>
<g transform="translate(0.000000,141.000000) scale(0.100000,-0.100000)"
fill="#000000" stroke="none">
<path d="M4 1397 c-3 -8 -4 -44 -2 -82 l3 -67 115 -59 c63 -32 128 -73 145
-89 17 -17 39 -30 48 -30 10 0 32 -23 51 -52 20 -32 59 -71 95 -98 34 -24 71
-60 83 -80 11 -19 41 -53 66 -76 l45 -40 5 -57 c6 -70 -6 -77 -74 -48 -25 12
-57 21 -71 21 -13 0 -40 7 -60 15 -23 10 -68 15 -127 15 l-91 0 -40 -23 c-31
-17 -48 -38 -79 -98 l-40 -76 21 -64 c16 -49 28 -69 52 -84 18 -11 54 -34 81
-52 75 -50 156 -73 255 -73 l86 0 62 31 c34 17 94 60 133 95 l71 63 21 66 c30
89 29 180 -3 269 -13 38 -36 81 -50 96 -14 14 -25 34 -25 44 l0 18 28 -18 c37
-25 119 -64 133 -64 19 0 199 -89 233 -115 17 -13 78 -47 136 -76 58 -29 123
-65 144 -81 21 -15 45 -28 53 -28 14 0 101 -48 203 -113 30 -20 84 -50 119
-68 50 -26 71 -45 100 -89 20 -30 45 -57 56 -59 11 -2 36 -18 55 -35 19 -17
56 -47 82 -65 26 -19 50 -43 54 -53 l6 -19 91 3 92 3 0 64 0 64 -70 49 c-38
27 -92 61 -120 75 -120 61 -286 223 -346 337 l-21 39 14 8 c19 13 47 11 98 -5
89 -28 136 -38 194 -43 l59 -5 99 33 98 33 0 116 0 117 -38 41 c-22 23 -48 42
-59 42 -12 0 -32 15 -47 35 -30 39 -111 85 -151 85 -15 0 -51 11 -81 25 -109
50 -169 65 -261 65 l-88 0 -45 -30 c-25 -16 -52 -30 -61 -30 -31 0 -79 -78
-79 -127 1 -42 45 -159 85 -224 66 -107 7 -127 -116 -39 -20 14 -69 40 -110
58 -41 19 -90 43 -109 53 -70 38 -177 86 -278 123 -18 7 -45 25 -60 39 -16 15
-34 27 -41 27 -20 0 -199 87 -235 115 -38 28 -171 95 -189 95 -8 0 -22 10 -33
21 -10 12 -41 36 -69 54 -27 18 -63 46 -79 64 l-30 31 -93 0 c-69 0 -95 -4
-99 -13z m1904 -413 c31 -15 69 -30 83 -34 48 -14 170 -102 196 -141 l25 -37
-12 -21 c-13 -26 -73 -29 -127 -6 -19 8 -45 15 -57 15 -11 0 -86 22 -165 49
-150 50 -171 65 -186 123 -5 21 -1 33 19 52 l25 26 71 0 c56 0 84 -6 128 -26z
m-1375 -552 l19 -32 -12 -15 c-9 -11 -32 -15 -79 -15 l-66 0 -38 40 c-21 21
-36 44 -32 50 4 7 40 10 98 8 l91 -3 19 -33z"/>
</g>
</svg>
