<?xml version="1.0" standalone="no"?>
<!DOCTYPE svg PUBLIC "-//W3C//DTD SVG 20010904//EN"
 "http://www.w3.org/TR/2001/REC-SVG-20010904/DTD/svg10.dtd">
<svg version="1.0" xmlns="http://www.w3.org/2000/svg"
 width="345.000000pt" height="222.000000pt" viewBox="0 0 345.000000 222.000000"
 preserveAspectRatio="xMidYMid meet">
<metadata>
Created by potrace 1.16, written by Peter Selinger 2001-2019
</metadata>
<g transform="translate(0.000000,222.000000) scale(0.100000,-0.100000)"
fill="#000000" stroke="none">
<path d="M65 2210 c-3 -5 -19 -10 -36 -10 l-29 0 0 -95 0 -95 150 -146 c82
-81 167 -157 187 -171 21 -14 52 -44 69 -66 l32 -42 58 -18 c75 -22 107 -22
127 1 34 38 23 55 -139 212 -20 19 -55 54 -78 77 -22 24 -48 43 -56 43 -9 0
-21 5 -28 12 -15 15 -16 74 -2 83 20 13 71 -7 108 -42 37 -36 158 -103 185
-103 8 0 33 -15 57 -32 42 -33 110 -75 210 -133 29 -16 77 -47 109 -67 31 -21
62 -38 69 -38 19 0 81 -30 117 -56 37 -27 230 -124 247 -124 7 0 26 -13 43
-29 16 -16 81 -55 143 -86 63 -31 130 -71 149 -89 20 -17 55 -42 79 -56 136
-79 184 -113 208 -145 20 -25 40 -38 73 -47 34 -8 59 -24 92 -59 44 -44 115
-89 143 -89 7 0 32 -23 56 -50 26 -30 67 -62 101 -79 51 -26 184 -135 203
-167 4 -6 0 -32 -9 -57 l-17 -45 20 -44 c23 -52 85 -122 137 -155 20 -13 62
-46 92 -73 30 -28 62 -50 71 -50 19 0 101 -37 136 -61 l26 -19 114 0 c70 0
124 5 141 13 l27 12 0 86 0 85 -27 26 c-16 13 -45 35 -65 47 -21 12 -47 36
-59 52 -11 16 -44 41 -72 55 -29 15 -71 42 -95 61 -67 55 -136 100 -203 135
-34 17 -78 45 -98 63 -39 35 -92 65 -114 65 -7 0 -27 17 -44 37 -19 25 -60 53
-114 80 -97 49 -105 55 -144 106 -27 37 -89 77 -118 77 -8 0 -27 16 -41 35
-15 20 -53 49 -84 66 -85 45 -187 111 -219 140 -31 29 -84 59 -106 59 -7 0
-24 12 -38 26 -13 14 -98 64 -189 111 -91 46 -190 100 -220 119 -30 19 -71 39
-91 44 -19 5 -53 25 -75 43 -40 35 -173 107 -196 107 -16 0 -140 81 -185 121
-19 16 -42 29 -51 29 -10 0 -31 14 -47 30 -16 17 -36 30 -44 30 -9 0 -29 9
-46 21 -16 11 -55 33 -86 49 -31 16 -81 52 -112 80 -32 29 -73 56 -94 62 -21
6 -50 19 -65 29 l-26 19 -105 0 c-60 0 -109 -4 -112 -10z m2999 -1917 c20 -16
49 -38 64 -50 l27 -22 -25 -1 c-14 0 -34 6 -46 13 -69 41 -94 61 -94 73 0 22
34 16 74 -13z m130 -93 c33 -12 34 -30 1 -30 -14 0 -25 2 -25 4 0 2 -3 11 -6
20 -7 19 -4 19 30 6z"/>
</g>
</svg>
