<?xml version="1.0" standalone="no"?>
<!DOCTYPE svg PUBLIC "-//W3C//DTD SVG 20010904//EN"
 "http://www.w3.org/TR/2001/REC-SVG-20010904/DTD/svg10.dtd">
<svg version="1.0" xmlns="http://www.w3.org/2000/svg"
 width="378.000000pt" height="513.000000pt" viewBox="0 0 378.000000 513.000000"
 preserveAspectRatio="xMidYMid meet">
<metadata>
Created by potrace 1.16, written by Peter Selinger 2001-2019
</metadata>
<g transform="translate(0.000000,513.000000) scale(0.100000,-0.100000)"
fill="#000000" stroke="none">
<path d="M335 5120 c-3 -5 -17 -10 -31 -10 -14 0 -52 -9 -86 -21 -47 -16 -78
-36 -139 -92 l-78 -72 -1 -147 c0 -87 4 -149 10 -153 6 -3 10 -17 10 -31 0
-28 34 -133 57 -178 9 -17 29 -70 44 -118 16 -49 43 -110 61 -137 45 -67 90
-148 108 -195 10 -26 31 -50 60 -71 33 -23 49 -44 60 -75 12 -34 27 -52 67
-80 29 -19 65 -55 80 -78 15 -24 48 -57 73 -74 25 -16 61 -53 81 -81 26 -40
45 -55 78 -67 39 -13 103 -61 192 -142 l29 -26 0 -105 c0 -70 5 -116 15 -140
8 -20 15 -62 15 -94 l0 -58 30 -45 c16 -25 30 -52 30 -60 0 -8 14 -35 30 -60
16 -25 30 -52 30 -61 0 -9 13 -34 29 -57 17 -22 44 -69 61 -104 18 -34 45 -76
60 -93 15 -16 30 -42 33 -56 4 -14 17 -39 29 -56 59 -80 84 -115 147 -213 38
-58 81 -116 95 -129 14 -14 26 -34 26 -45 0 -11 27 -46 65 -82 35 -35 73 -81
84 -103 11 -22 40 -52 63 -68 26 -17 47 -41 53 -59 13 -41 33 -64 56 -64 12 0
36 -24 63 -62 25 -35 52 -73 61 -85 8 -12 33 -27 55 -33 22 -6 47 -22 57 -36
42 -59 69 -87 106 -111 22 -14 61 -44 86 -68 25 -23 65 -52 89 -65 45 -25 114
-107 137 -164 8 -19 12 -48 9 -68 l-6 -35 36 -47 c20 -26 36 -52 36 -56 0 -5
25 -38 56 -72 31 -35 67 -84 80 -110 13 -25 41 -59 62 -74 21 -15 51 -45 66
-66 15 -21 49 -49 74 -62 26 -13 75 -49 110 -80 34 -31 70 -56 78 -56 23 0
140 -56 177 -84 36 -27 143 -66 181 -66 14 0 28 -4 31 -10 3 -5 44 -10 91 -10
l84 0 0 34 c0 49 -44 77 -204 130 l-137 45 -124 83 c-91 61 -131 94 -153 128
-17 25 -50 59 -74 74 -36 24 -109 102 -129 140 -50 93 -60 133 -31 121 9 -4
33 -11 52 -16 19 -4 59 -20 87 -34 36 -17 70 -25 104 -25 l51 0 29 29 c60 60
32 139 -95 269 -133 137 -339 262 -430 262 -14 0 -54 -13 -89 -30 -36 -16 -68
-30 -72 -30 -23 0 -168 102 -208 146 -29 32 -61 57 -79 62 -17 4 -34 14 -38
22 -29 64 -40 77 -93 107 -45 27 -64 46 -89 89 -17 31 -44 65 -60 77 -16 12
-39 38 -50 57 -12 19 -35 51 -53 70 -18 19 -47 57 -66 85 -32 47 -66 91 -158
210 -21 28 -50 73 -65 100 -15 28 -42 69 -61 93 -19 24 -35 52 -35 62 0 10
-18 40 -40 66 -23 27 -43 60 -47 74 -3 14 -18 46 -34 71 -16 25 -29 51 -29 58
0 6 -16 43 -36 82 -45 91 -84 204 -84 248 0 18 -5 50 -11 71 l-11 37 16 32
c10 18 23 34 31 37 7 3 39 -6 71 -21 31 -14 85 -35 119 -46 l61 -21 60 20 c43
15 65 29 82 53 36 52 38 76 9 134 -36 73 -136 142 -271 186 l-65 22 -41 -17
c-22 -9 -50 -16 -62 -16 -12 0 -41 -7 -64 -16 l-41 -16 -39 19 c-76 36 -155
94 -179 133 -14 23 -44 49 -75 66 -35 19 -66 48 -100 93 -26 36 -62 76 -78 88
-17 13 -35 39 -43 64 -10 32 -26 51 -59 74 l-45 31 -65 124 c-36 69 -78 142
-93 164 -14 21 -29 54 -32 75 -3 20 -12 56 -20 81 -8 25 -15 55 -15 66 0 12
-7 38 -15 57 -19 47 -19 101 1 121 19 19 17 19 61 1 20 -9 66 -15 110 -15 87
0 150 27 201 85 l32 36 0 65 c0 86 -22 127 -101 189 -126 98 -214 138 -234
105z m15 -255 c14 -8 39 -15 55 -15 17 0 37 -5 45 -10 l15 -10 -15 -10 c-23
-15 -107 -12 -140 5 -33 17 -36 25 -18 43 15 15 27 15 58 -3z m1093 -1603 c30
-27 4 -36 -47 -17 -25 10 -46 21 -46 26 0 23 63 18 93 -9z m1468 -2273 c63
-51 88 -78 72 -80 -59 -8 -133 27 -163 77 l-23 36 14 9 c24 15 34 11 100 -42z"/>
</g>
</svg>
