<?xml version="1.0" standalone="no"?>
<!DOCTYPE svg PUBLIC "-//W3C//DTD SVG 20010904//EN"
 "http://www.w3.org/TR/2001/REC-SVG-20010904/DTD/svg10.dtd">
<svg version="1.0" xmlns="http://www.w3.org/2000/svg"
 width="204.000000pt" height="285.000000pt" viewBox="0 0 204.000000 285.000000"
 preserveAspectRatio="xMidYMid meet">
<metadata>
Created by potrace 1.16, written by Peter Selinger 2001-2019
</metadata>
<g transform="translate(0.000000,285.000000) scale(0.100000,-0.100000)"
fill="#000000" stroke="none">
<path d="M62 2812 c-24 -22 -42 -48 -42 -60 0 -11 -5 -24 -10 -27 -13 -8 -13
-312 0 -320 5 -3 10 -18 10 -33 1 -47 35 -128 72 -172 21 -23 40 -56 44 -74
10 -49 60 -136 115 -200 28 -33 63 -84 79 -115 15 -31 38 -65 50 -76 12 -11
34 -40 48 -65 14 -25 64 -86 111 -135 82 -86 189 -211 259 -301 20 -27 42 -44
62 -48 20 -4 62 -36 124 -96 51 -49 111 -102 134 -117 22 -16 79 -65 126 -110
l85 -82 6 -38 c3 -21 12 -58 20 -83 8 -25 15 -57 15 -71 0 -14 14 -45 31 -69
17 -23 44 -72 60 -108 51 -113 8 -106 -126 18 -49 46 -98 93 -108 107 -10 13
-32 30 -47 38 -30 15 -154 122 -227 195 -23 23 -65 59 -95 81 -29 22 -72 62
-96 89 -30 34 -55 53 -82 60 -23 6 -47 21 -57 37 -54 78 -101 101 -154 73 -39
-21 -11 -95 52 -139 19 -13 47 -41 62 -62 15 -21 51 -51 80 -66 32 -17 62 -44
80 -71 16 -24 46 -52 69 -63 22 -11 75 -56 117 -100 48 -49 84 -79 98 -79 24
0 38 -15 47 -52 7 -31 136 -149 223 -204 30 -20 79 -57 108 -82 30 -26 77 -64
105 -85 27 -20 60 -53 73 -72 l22 -35 76 0 75 0 27 28 c22 22 27 38 27 76 0
55 -18 94 -71 154 -21 24 -41 58 -44 75 -4 18 -22 55 -42 84 -19 28 -41 71
-48 95 -7 24 -23 65 -34 92 -16 37 -19 52 -10 62 18 22 50 16 99 -16 25 -16
58 -30 73 -30 15 0 44 -7 64 -15 52 -22 155 -20 176 3 10 10 17 26 17 36 0 9
11 22 25 28 l25 11 0 58 0 59 -102 106 c-79 82 -118 114 -170 140 -37 19 -83
48 -103 66 -48 41 -125 67 -202 68 l-63 0 -39 -36 c-22 -19 -45 -51 -51 -70
-14 -42 -33 -43 -62 -3 -26 35 -124 109 -145 109 -13 0 -53 37 -165 148 -111
112 -148 152 -148 165 0 21 -73 119 -109 145 -19 14 -34 37 -41 62 -7 26 -23
49 -46 67 -33 26 -57 62 -154 223 -19 32 -47 73 -62 92 -29 37 -100 232 -91
254 9 23 51 28 96 10 59 -22 243 -23 275 0 25 17 72 103 72 131 0 58 -232 308
-302 326 -18 5 -44 17 -59 28 l-27 19 -119 0 -120 0 -41 -38z m304 -157 c91
-42 167 -114 162 -154 -4 -38 -42 -38 -148 -2 -48 17 -100 31 -115 31 -36 0
-75 41 -75 80 0 39 39 80 76 80 14 0 60 -16 100 -35z m1259 -1679 c113 -53
257 -198 227 -228 -16 -16 -112 13 -220 67 -97 49 -114 63 -137 118 -18 45
-18 42 1 61 23 23 48 20 129 -18z"/>
</g>
</svg>
