<?xml version="1.0" standalone="no"?>
<!DOCTYPE svg PUBLIC "-//W3C//DTD SVG 20010904//EN"
 "http://www.w3.org/TR/2001/REC-SVG-20010904/DTD/svg10.dtd">
<svg version="1.0" xmlns="http://www.w3.org/2000/svg"
 width="660.000000pt" height="408.000000pt" viewBox="0 0 660.000000 408.000000"
 preserveAspectRatio="xMidYMid meet">
<metadata>
Created by potrace 1.16, written by Peter Selinger 2001-2019
</metadata>
<g transform="translate(0.000000,408.000000) scale(0.100000,-0.100000)"
fill="#000000" stroke="none">
<path d="M4960 4072 c0 -4 -18 -29 -40 -56 l-41 -49 3 -175 3 -175 47 -59 c26
-32 54 -80 62 -107 19 -65 42 -107 86 -161 21 -25 48 -65 60 -90 13 -24 47
-80 77 -124 30 -43 65 -100 78 -127 15 -29 41 -58 67 -76 31 -21 47 -40 56
-68 7 -22 27 -53 45 -70 57 -51 159 -168 168 -193 l9 -24 -35 -39 -35 -39 0
-68 0 -69 65 -81 c36 -45 70 -84 75 -87 6 -3 10 -19 10 -34 0 -16 14 -59 31
-95 l31 -66 -16 -48 c-8 -26 -18 -64 -21 -85 -7 -46 -60 -102 -107 -112 -18
-4 -51 -16 -72 -27 -88 -45 -178 -68 -336 -85 -25 -3 -237 -7 -472 -9 l-427
-5 -37 16 c-20 8 -54 15 -76 15 -21 0 -55 7 -75 15 -19 8 -60 15 -90 15 -29 0
-70 7 -90 15 -19 8 -53 15 -75 15 -21 0 -55 7 -75 15 -19 8 -53 15 -75 15 -21
0 -55 7 -75 15 -22 9 -67 15 -117 15 -44 0 -101 6 -126 14 -86 27 -135 38
-210 46 -41 4 -106 20 -145 34 -38 14 -87 26 -108 26 -21 0 -54 7 -74 15 -19
8 -65 15 -101 15 l-65 0 -179 60 c-98 33 -193 60 -211 60 -18 0 -71 13 -117
30 -47 16 -96 30 -109 30 -54 0 -284 129 -379 211 l-33 29 -54 0 -54 0 -20
-26 c-11 -14 -23 -34 -26 -44 -8 -24 25 -88 62 -120 61 -55 186 -130 216 -130
7 0 24 -12 38 -26 13 -14 40 -34 60 -45 65 -33 173 -110 229 -163 30 -29 67
-60 83 -70 15 -9 38 -33 51 -54 13 -21 43 -50 68 -66 24 -15 59 -49 76 -76 17
-26 46 -59 63 -72 59 -44 89 -76 89 -95 0 -11 12 -30 26 -44 48 -44 154 -229
154 -269 0 -14 14 -63 30 -110 33 -94 38 -161 15 -217 -8 -19 -15 -55 -15 -78
0 -63 -63 -181 -117 -220 -24 -16 -55 -48 -69 -70 -31 -46 -50 -62 -84 -71
-14 -4 -47 -17 -75 -30 -27 -13 -79 -33 -115 -45 l-65 -23 -160 2 c-106 1
-174 6 -205 16 -56 18 -123 35 -175 45 -87 17 -223 73 -279 116 -17 13 -62 34
-101 46 -38 12 -83 34 -100 49 -16 15 -41 30 -55 33 -14 4 -43 21 -65 40 -22
18 -60 45 -85 59 -25 14 -55 40 -68 57 -12 17 -41 40 -64 52 -22 11 -72 54
-111 95 -39 41 -81 77 -94 80 -31 8 -209 187 -234 235 -10 21 -34 49 -53 64
-18 14 -36 38 -39 53 -3 15 -22 52 -41 82 -65 103 -87 152 -142 315 -38 115
-54 178 -54 216 0 61 -33 131 -64 137 -10 2 -29 -6 -42 -19 l-24 -22 0 -108
c0 -61 4 -110 10 -114 6 -3 10 -24 10 -46 0 -56 31 -141 105 -288 35 -70 68
-146 74 -169 8 -28 23 -51 47 -69 19 -16 48 -49 64 -74 37 -60 326 -357 382
-393 24 -15 58 -47 76 -72 18 -24 40 -44 50 -44 9 0 42 -25 72 -56 51 -52 114
-94 140 -94 18 0 174 -97 200 -125 13 -14 30 -25 39 -25 8 0 84 -34 168 -75
85 -41 165 -75 179 -75 13 0 41 -7 61 -15 19 -8 55 -15 79 -15 23 0 46 -4 49
-10 4 -6 113 -10 295 -10 182 0 291 4 295 10 3 6 17 10 31 10 28 0 133 34 178
57 39 20 104 65 184 128 64 49 127 132 151 196 7 19 21 57 33 84 59 145 68
179 68 265 0 86 -8 116 -70 270 -70 174 -112 241 -236 379 -34 37 -73 85 -87
107 -30 47 -116 129 -175 169 -45 30 -122 115 -122 134 0 16 65 14 107 -4 19
-8 53 -15 75 -15 21 0 55 -7 75 -15 19 -8 45 -15 57 -15 12 0 60 -13 106 -30
47 -16 102 -30 123 -30 21 0 54 -7 74 -15 19 -8 65 -15 102 -15 36 0 86 -6
111 -14 78 -25 133 -37 195 -45 34 -5 70 -13 82 -19 12 -7 40 -12 63 -12 22 0
57 -7 77 -15 19 -8 60 -15 90 -15 29 0 70 -7 90 -15 24 -10 71 -15 150 -15 78
0 125 -5 150 -15 19 -8 53 -15 75 -15 21 0 55 -7 75 -15 22 -9 67 -15 120 -15
52 0 97 -6 120 -15 l35 -15 343 0 343 0 35 15 c22 9 69 15 119 15 66 0 100 6
168 30 46 17 91 30 100 30 8 0 41 8 73 17 l58 18 90 85 89 85 0 32 c0 18 7 51
16 73 17 41 15 68 -6 150 -30 113 -53 177 -74 205 -12 17 -27 43 -34 59 l-13
29 14 15 15 14 67 -31 c36 -17 72 -31 79 -31 7 0 23 -12 37 -26 13 -14 55 -42
94 -61 38 -20 83 -46 100 -59 46 -35 224 -120 282 -134 40 -11 58 -11 78 -2
l25 12 0 70 c0 49 -4 70 -12 70 -20 0 -148 87 -200 136 l-47 44 -47 0 c-59 0
-191 61 -258 120 -26 22 -51 40 -56 40 -9 0 -162 151 -277 273 -40 43 -83 97
-94 120 -12 23 -42 63 -68 88 -79 79 -171 210 -228 323 -19 39 -45 85 -58 101
-49 66 -68 126 -45 140 6 4 34 1 62 -6 l50 -13 20 24 c45 58 74 83 128 110 31
16 71 45 88 65 l32 36 0 70 0 69 -42 46 c-37 41 -83 74 -215 157 l-43 27 -165
0 c-91 0 -165 -3 -165 -8z m381 -213 c38 -34 69 -69 69 -78 0 -22 -55 -73
-102 -94 -43 -20 -168 -23 -186 -5 -7 7 -12 24 -12 39 0 15 -7 43 -15 62 -17
42 -19 90 -5 118 l11 19 86 0 85 0 69 -61z"/>
</g>
</svg>
