<?xml version="1.0" standalone="no"?>
<!DOCTYPE svg PUBLIC "-//W3C//DTD SVG 20010904//EN"
 "http://www.w3.org/TR/2001/REC-SVG-20010904/DTD/svg10.dtd">
<svg version="1.0" xmlns="http://www.w3.org/2000/svg"
 width="429.000000pt" height="255.000000pt" viewBox="0 0 429.000000 255.000000"
 preserveAspectRatio="xMidYMid meet">
<metadata>
Created by potrace 1.16, written by Peter Selinger 2001-2019
</metadata>
<g transform="translate(0.000000,255.000000) scale(0.100000,-0.100000)"
fill="#000000" stroke="none">
<path d="M3635 2540 c-3 -5 -15 -10 -26 -10 -11 0 -34 -13 -50 -29 l-29 -29 0
-76 0 -75 40 -121 c22 -67 40 -125 40 -129 0 -16 -113 -51 -165 -51 -29 0 -69
-7 -88 -15 -21 -8 -67 -15 -105 -15 -39 0 -85 -7 -105 -15 l-36 -15 -332 0
c-222 0 -344 4 -370 12 -30 8 -48 8 -79 -1 l-39 -12 -37 16 c-23 9 -68 15
-121 15 -52 0 -97 6 -120 15 -22 9 -67 15 -120 15 -52 0 -97 6 -120 15 -19 8
-60 15 -90 15 -29 0 -70 7 -90 15 -23 10 -69 15 -132 15 l-97 0 -84 30 c-47
16 -96 30 -110 30 -14 0 -54 14 -88 30 -47 22 -79 30 -118 30 -30 0 -71 7 -91
15 -19 8 -45 15 -57 15 -24 0 -151 42 -193 64 -44 22 -241 86 -266 86 -13 0
-36 14 -52 30 -16 17 -36 30 -45 30 -9 0 -57 20 -108 45 -50 25 -106 45 -122
45 l-31 0 3 -42 3 -41 85 -59 c46 -32 90 -58 98 -58 7 0 43 -18 80 -40 36 -22
84 -45 107 -51 22 -6 61 -22 87 -35 26 -13 58 -24 70 -24 29 0 243 -72 297
-99 22 -12 59 -21 81 -21 22 0 57 -7 77 -15 19 -8 53 -15 75 -15 21 0 55 -7
75 -15 19 -8 52 -15 71 -15 20 0 77 -13 127 -29 134 -43 172 -52 255 -60 41
-4 85 -13 97 -19 13 -7 67 -12 138 -12 80 0 127 -5 152 -15 25 -11 72 -15 165
-15 92 0 139 -4 165 -15 25 -11 72 -15 161 -15 68 0 142 -5 163 -12 30 -8 48
-8 78 1 l40 11 41 -16 42 -17 47 16 c35 13 81 17 187 17 103 0 151 4 177 15
20 8 62 15 92 15 31 0 66 5 78 12 12 7 69 15 127 19 58 4 125 12 150 19 135
37 187 56 245 91 35 22 70 39 76 39 24 0 149 91 163 118 8 15 37 47 65 70 l51
43 0 62 0 62 -44 51 -45 51 -66 21 c-36 12 -83 22 -105 22 -21 0 -42 5 -45 10
-4 6 -73 10 -175 10 -102 0 -171 -4 -175 -10z m232 -135 c19 -8 53 -15 75 -15
47 0 105 -25 119 -51 7 -13 5 -29 -6 -56 -23 -54 -41 -70 -123 -110 l-74 -35
-23 10 c-13 6 -42 39 -64 74 -50 78 -55 135 -16 173 28 29 60 31 112 10z"/>
<path d="M1860 1488 c-65 -23 -131 -83 -166 -150 -31 -62 -33 -162 -3 -250 29
-87 103 -230 152 -295 64 -85 385 -410 443 -449 28 -19 71 -52 95 -73 24 -21
60 -46 79 -56 19 -10 54 -33 78 -53 76 -61 144 -104 181 -114 20 -6 48 -19 63
-29 19 -14 43 -19 87 -19 l60 0 7 37 7 36 -34 28 c-19 16 -56 40 -84 55 -72
39 -208 130 -257 174 -47 41 -98 70 -123 70 -8 0 -31 25 -50 55 -26 40 -49 62
-85 80 -27 14 -57 37 -67 52 -10 15 -46 55 -80 89 -34 35 -70 78 -79 96 -9 18
-39 57 -65 86 -27 30 -52 66 -55 80 -4 15 -15 44 -26 65 -31 63 -68 180 -68
217 1 70 46 137 130 193 37 24 49 59 30 83 -17 20 -102 16 -170 -8z"/>
</g>
</svg>
