<?xml version="1.0" standalone="no"?>
<!DOCTYPE svg PUBLIC "-//W3C//DTD SVG 20010904//EN"
 "http://www.w3.org/TR/2001/REC-SVG-20010904/DTD/svg10.dtd">
<svg version="1.0" xmlns="http://www.w3.org/2000/svg"
 width="516.000000pt" height="147.000000pt" viewBox="0 0 516.000000 147.000000"
 preserveAspectRatio="xMidYMid meet">
<metadata>
Created by potrace 1.16, written by Peter Selinger 2001-2019
</metadata>
<g transform="translate(0.000000,147.000000) scale(0.100000,-0.100000)"
fill="#000000" stroke="none">
<path d="M4265 1460 c-3 -5 -19 -10 -36 -10 -48 0 -188 -136 -189 -183 0 -15
-7 -44 -15 -64 -8 -19 -15 -54 -15 -77 0 -34 -6 -48 -30 -71 l-30 -29 0 -137
0 -137 30 -64 c16 -34 30 -70 30 -77 0 -23 87 -148 119 -170 16 -11 31 -33 34
-49 4 -18 30 -51 71 -90 36 -34 66 -66 66 -71 0 -16 -43 -41 -71 -41 -15 0
-43 -7 -62 -15 l-36 -15 -606 0 -606 0 -36 15 c-19 8 -53 15 -75 15 -21 0 -55
7 -75 15 -19 8 -52 15 -72 15 -20 0 -75 13 -121 30 -47 16 -102 30 -123 30
-21 0 -54 7 -74 15 -19 8 -61 15 -92 15 -41 0 -72 8 -119 30 -35 17 -69 30
-75 30 -7 0 -41 14 -75 30 -35 17 -76 30 -91 30 -14 0 -43 12 -64 26 -21 14
-61 32 -89 41 -28 8 -64 28 -80 43 l-28 28 0 79 0 79 -96 102 c-58 62 -106
104 -122 108 -15 4 -40 19 -57 34 -38 35 -87 60 -117 60 -13 0 -44 8 -71 17
l-47 17 -44 -22 c-32 -15 -55 -37 -80 -77 l-36 -55 -27 0 c-34 0 -134 46 -193
89 -24 17 -54 31 -68 31 -48 0 -150 42 -197 81 -26 21 -55 39 -64 39 -9 0 -45
14 -79 30 -35 17 -69 30 -76 30 -7 0 -49 18 -95 40 l-83 40 -39 -22 c-52 -29
-55 -69 -6 -94 39 -21 90 -57 137 -99 24 -21 69 -42 140 -65 63 -20 117 -44
135 -60 17 -14 64 -37 105 -50 41 -13 150 -61 242 -107 92 -45 179 -83 194
-83 16 0 44 -16 77 -45 50 -44 153 -105 177 -105 7 0 39 -16 71 -36 32 -20
124 -58 203 -85 79 -26 162 -57 184 -68 23 -12 47 -21 54 -21 6 0 24 -12 39
-26 28 -26 116 -63 153 -64 11 0 100 -27 198 -60 98 -33 194 -60 213 -60 20 0
52 -7 72 -15 20 -8 66 -15 105 -15 38 0 84 -7 105 -15 19 -8 60 -15 90 -15 29
0 70 -7 90 -15 22 -9 67 -15 120 -15 52 0 97 -6 120 -15 20 -9 66 -15 109 -15
40 0 76 -4 79 -10 8 -14 672 -14 680 0 3 5 46 10 94 10 56 0 102 6 124 15 20
8 60 15 89 15 33 0 85 12 138 30 49 17 104 30 132 30 67 0 164 35 212 76 22
19 52 37 66 41 113 27 297 177 340 277 12 28 26 59 31 68 12 24 11 225 -1 233
-5 3 -10 20 -10 36 0 37 -32 100 -80 159 -38 46 -70 107 -70 132 0 19 -25 41
-77 67 -23 11 -54 37 -69 57 -19 24 -58 51 -126 85 -54 27 -103 49 -110 49 -7
0 -42 14 -76 30 -41 19 -80 30 -107 30 -24 0 -47 5 -50 10 -3 6 -28 10 -55 10
-27 0 -52 -4 -55 -10z m262 -194 c50 -24 110 -58 133 -75 24 -17 50 -31 59
-31 28 0 60 -29 86 -78 14 -26 48 -74 76 -107 61 -73 89 -130 89 -184 0 -22 5
-52 11 -68 18 -48 -28 -180 -78 -226 -80 -72 -114 -98 -178 -136 -125 -76
-210 -96 -282 -66 -49 21 -71 41 -95 90 -12 22 -38 59 -58 83 -54 61 -144 197
-174 264 l-26 57 0 113 0 113 30 45 c16 25 30 51 30 59 0 29 62 141 88 159 39
28 50 30 128 31 l70 1 91 -44z m-3223 -438 c73 -45 96 -68 96 -95 0 -33 -20
-30 -117 17 -90 44 -113 69 -87 94 23 24 52 20 108 -16z"/>
</g>
</svg>
