<?xml version="1.0" standalone="no"?>
<!DOCTYPE svg PUBLIC "-//W3C//DTD SVG 20010904//EN"
 "http://www.w3.org/TR/2001/REC-SVG-20010904/DTD/svg10.dtd">
<svg version="1.0" xmlns="http://www.w3.org/2000/svg"
 width="546.000000pt" height="129.000000pt" viewBox="0 0 546.000000 129.000000"
 preserveAspectRatio="xMidYMid meet">
<metadata>
Created by potrace 1.16, written by Peter Selinger 2001-2019
</metadata>
<g transform="translate(0.000000,129.000000) scale(0.100000,-0.100000)"
fill="#000000" stroke="none">
<path d="M1650 1280 c-31 -17 -157 -70 -167 -70 -6 0 -40 -13 -75 -30 -34 -16
-75 -30 -89 -30 -15 0 -43 -7 -62 -15 -20 -8 -62 -15 -92 -15 -31 0 -66 -5
-78 -12 -12 -6 -48 -14 -82 -19 -62 -8 -117 -20 -195 -45 -25 -8 -61 -14 -81
-14 -20 0 -52 -6 -70 -14 -44 -18 -203 -38 -349 -42 -152 -5 -238 -31 -280
-84 -57 -72 -36 -142 83 -273 28 -32 63 -75 77 -95 34 -51 138 -179 150 -187
5 -3 10 -20 10 -36 0 -36 29 -96 60 -124 12 -11 34 -40 48 -65 14 -25 37 -60
50 -77 l24 -33 54 0 54 0 0 30 c0 31 -27 92 -60 140 -28 39 -60 140 -60 186
l0 42 -40 32 c-39 31 -110 155 -110 192 0 9 -18 38 -40 66 -22 27 -40 54 -40
60 0 28 99 61 210 68 114 7 204 26 355 75 63 20 111 29 157 29 36 0 82 7 101
15 20 8 60 15 89 15 33 0 85 12 138 30 46 17 94 30 106 30 12 0 38 7 57 15 46
19 157 19 201 1 18 -8 51 -27 73 -42 22 -16 73 -44 114 -63 83 -37 111 -51
184 -92 28 -16 61 -29 75 -29 14 0 45 -6 70 -14 60 -19 125 -35 181 -46 26 -5
69 -20 97 -34 28 -14 62 -26 74 -26 13 0 43 -6 68 -14 87 -28 136 -38 210 -45
41 -4 85 -13 97 -19 12 -7 60 -12 108 -12 53 0 99 -6 122 -15 23 -10 69 -15
135 -15 65 0 111 -5 135 -15 22 -9 67 -15 120 -15 52 0 97 -6 120 -15 l35 -15
343 0 343 0 35 15 c25 10 72 15 150 15 79 0 126 5 150 15 20 8 53 15 74 15 21
0 76 14 123 30 46 17 101 30 121 30 24 0 71 16 130 45 51 25 100 45 108 45 15
0 49 31 130 118 l31 34 0 129 0 129 -17 0 c-10 0 -42 26 -73 58 l-55 57 -60
19 c-33 11 -64 23 -70 28 -13 12 -163 10 -170 -2 -3 -5 -14 -10 -24 -10 -11 0
-46 -20 -80 -45 l-61 -45 0 -127 0 -128 41 -60 c22 -33 45 -63 51 -66 25 -16
-5 -37 -97 -68 -53 -18 -122 -38 -153 -44 -34 -6 -275 -12 -599 -14 l-542 -3
-37 15 c-25 10 -71 15 -151 15 -78 0 -125 5 -150 15 -19 8 -59 15 -87 15 -28
0 -71 6 -96 14 -87 28 -136 38 -210 45 -41 4 -85 13 -97 19 -12 7 -46 12 -75
12 -51 0 -248 59 -317 94 -36 19 -144 53 -192 61 -21 3 -54 17 -75 32 -22 15
-68 43 -103 62 l-65 36 -50 74 c-65 94 -140 133 -196 101z m3550 -199 c83 -29
114 -84 84 -148 -17 -35 -85 -93 -110 -93 -20 0 -117 87 -136 123 -10 17 -18
51 -18 74 0 29 5 45 18 52 27 16 103 13 162 -8z"/>
</g>
</svg>
