<?xml version="1.0" standalone="no"?>
<!DOCTYPE svg PUBLIC "-//W3C//DTD SVG 20010904//EN"
 "http://www.w3.org/TR/2001/REC-SVG-20010904/DTD/svg10.dtd">
<svg version="1.0" xmlns="http://www.w3.org/2000/svg"
 width="750.000000pt" height="216.000000pt" viewBox="0 0 750.000000 216.000000"
 preserveAspectRatio="xMidYMid meet">
<metadata>
Created by potrace 1.16, written by Peter Selinger 2001-2019
</metadata>
<g transform="translate(0.000000,216.000000) scale(0.100000,-0.100000)"
fill="#000000" stroke="none">
<path d="M0 2127 l0 -33 72 -59 c78 -65 124 -94 149 -95 8 0 26 -12 40 -26 13
-14 42 -35 64 -46 22 -12 54 -32 72 -45 17 -13 47 -28 66 -34 19 -5 63 -34 96
-64 34 -30 70 -55 80 -55 34 0 141 -62 168 -97 25 -33 107 -83 136 -83 7 0 24
-12 38 -26 13 -14 41 -35 63 -46 21 -11 56 -32 77 -48 21 -15 54 -31 73 -34
18 -4 54 -24 78 -45 24 -21 86 -60 138 -86 93 -47 144 -81 205 -135 17 -15 42
-30 57 -34 14 -3 50 -27 80 -53 63 -57 124 -100 193 -137 28 -15 75 -43 105
-62 30 -19 66 -37 80 -41 14 -3 39 -18 55 -33 17 -15 48 -37 70 -48 22 -11 62
-39 89 -61 26 -23 55 -41 62 -41 18 0 117 -57 239 -137 98 -65 225 -133 247
-133 20 0 148 -87 194 -131 22 -22 56 -44 76 -49 23 -7 49 -27 77 -60 l42 -50
34 0 c45 0 85 46 85 98 l0 37 -77 73 c-43 39 -84 72 -91 72 -33 0 -85 36 -118
82 l-37 49 17 17 16 16 42 -13 c24 -7 84 -16 133 -20 50 -4 100 -12 112 -19
12 -7 32 -12 44 -12 13 0 64 -13 114 -29 103 -33 160 -49 227 -61 26 -5 56
-13 67 -19 11 -6 57 -11 102 -11 64 0 104 -7 174 -29 122 -39 170 -51 240 -60
34 -5 70 -13 82 -19 12 -7 54 -12 93 -12 40 0 86 -6 107 -15 23 -10 69 -15
135 -15 65 0 111 -5 135 -15 19 -8 50 -15 67 -15 17 -1 42 -7 56 -15 17 -10
58 -14 128 -15 68 0 115 -5 139 -15 27 -12 80 -15 229 -15 118 0 195 -4 199
-10 8 -13 102 -13 110 0 3 5 19 10 35 10 16 0 32 -5 35 -10 8 -13 192 -13 200
0 4 6 71 10 169 10 123 0 173 4 199 15 23 9 68 15 120 15 53 0 98 6 120 15 20
8 54 15 75 15 22 0 56 7 75 15 20 8 61 15 90 15 30 0 71 7 90 15 20 8 49 15
64 15 15 0 48 14 73 30 25 16 52 30 60 30 16 0 120 68 158 103 13 12 35 43 48
69 13 26 28 49 34 53 5 3 10 44 10 91 l0 85 -37 45 c-21 25 -59 57 -85 70 -26
13 -59 40 -74 60 -32 41 -148 104 -194 104 -85 0 -224 -122 -259 -227 -41
-121 -23 -182 86 -296 l65 -67 -13 -17 c-19 -22 -88 -53 -120 -53 -15 0 -43
-7 -62 -15 -20 -8 -54 -15 -75 -15 -22 0 -56 -7 -75 -15 l-36 -15 -803 0 -803
0 -63 30 c-35 17 -75 30 -88 30 -14 0 -41 7 -61 15 -19 8 -60 15 -90 15 -29 0
-70 7 -90 15 -19 8 -53 15 -75 15 -21 0 -55 7 -75 15 -24 10 -71 15 -150 15
l-115 0 -65 30 c-35 17 -74 30 -86 30 -12 0 -42 6 -67 14 -78 25 -133 37 -195
45 -34 5 -70 13 -82 19 -12 7 -40 12 -63 12 -22 0 -57 7 -77 15 -19 8 -47 15
-62 15 -14 0 -55 14 -89 30 -35 17 -74 30 -85 30 -12 0 -56 12 -97 26 -68 24
-174 45 -225 45 -70 0 -153 -19 -190 -44 -51 -35 -79 -34 -135 3 -25 16 -52
30 -61 30 -18 0 -124 75 -148 103 -7 9 -20 17 -29 17 -29 0 -180 79 -224 118
-25 21 -60 44 -79 51 -44 16 -46 18 -112 71 -31 25 -104 69 -162 99 -72 36
-115 65 -132 88 -17 22 -57 50 -107 75 -45 22 -101 57 -126 78 -47 39 -120 80
-142 80 -8 0 -52 25 -98 56 -47 31 -112 70 -144 87 -33 16 -75 44 -95 62 -20
18 -79 54 -131 80 -52 26 -116 65 -142 87 -26 21 -69 45 -96 53 -26 8 -63 26
-82 40 -19 15 -57 38 -84 51 -26 14 -66 38 -87 54 -21 15 -54 31 -73 34 -18 4
-54 24 -79 46 -46 41 -153 100 -181 100 -8 0 -18 5 -21 10 -3 6 -17 10 -31 10
l-24 0 0 -33z m7208 -1446 c22 -17 57 -51 77 -78 l37 -48 -7 -65 c-4 -36 -12
-71 -17 -77 -17 -21 -55 -15 -125 17 -35 17 -69 30 -75 30 -21 0 -66 34 -82
61 l-17 29 22 66 c12 36 31 72 43 79 35 25 98 19 144 -14z"/>
</g>
</svg>
