<?xml version="1.0" standalone="no"?>
<!DOCTYPE svg PUBLIC "-//W3C//DTD SVG 20010904//EN"
 "http://www.w3.org/TR/2001/REC-SVG-20010904/DTD/svg10.dtd">
<svg version="1.0" xmlns="http://www.w3.org/2000/svg"
 width="387.000000pt" height="267.000000pt" viewBox="0 0 387.000000 267.000000"
 preserveAspectRatio="xMidYMid meet">
<metadata>
Created by potrace 1.16, written by Peter Selinger 2001-2019
</metadata>
<g transform="translate(0.000000,267.000000) scale(0.100000,-0.100000)"
fill="#000000" stroke="none">
<path d="M23 2656 l-23 -11 0 -67 0 -67 30 -16 c16 -8 48 -15 70 -15 47 0 145
-41 211 -89 23 -17 49 -31 56 -31 24 0 83 -31 163 -86 83 -57 152 -94 173 -94
7 0 24 -12 38 -26 13 -14 42 -35 64 -46 22 -12 54 -31 70 -43 17 -13 53 -34
80 -48 28 -14 78 -50 113 -81 34 -31 70 -56 80 -56 9 0 39 -25 65 -55 34 -39
59 -57 87 -65 23 -6 47 -21 57 -36 38 -56 99 -117 149 -150 29 -19 70 -58 92
-87 48 -63 147 -165 184 -190 17 -10 31 -33 38 -56 10 -37 27 -66 83 -134 17
-22 31 -54 36 -84 4 -27 19 -66 34 -88 15 -22 27 -47 27 -56 0 -9 14 -35 31
-59 42 -57 59 -101 59 -148 0 -22 7 -56 15 -75 9 -23 15 -68 15 -120 0 -54 6
-98 15 -121 l16 -37 -22 -65 c-21 -61 -71 -124 -100 -124 -6 0 -36 26 -67 57
-32 32 -70 66 -85 76 -15 10 -38 39 -51 65 -13 26 -36 58 -50 71 -14 14 -26
33 -26 44 0 27 -54 77 -83 77 -53 0 -74 -69 -40 -133 9 -18 26 -59 38 -92 l21
-60 42 -28 c24 -16 54 -46 67 -66 29 -47 81 -91 106 -91 11 0 24 -11 31 -25
l11 -25 103 0 c80 0 103 3 107 15 4 8 24 26 46 40 32 19 50 43 81 105 l40 80
0 134 c0 96 -4 144 -15 169 -8 20 -15 66 -15 102 0 75 -29 173 -66 222 -30 40
-114 211 -114 233 0 9 -10 25 -21 36 -33 29 -92 112 -128 180 -17 33 -52 83
-76 111 -25 28 -45 58 -45 66 0 8 -28 37 -62 64 -35 27 -99 85 -143 129 -44
44 -112 106 -152 137 -39 31 -75 62 -78 67 -4 6 -25 22 -47 37 -23 14 -72 54
-109 89 -38 35 -77 64 -87 64 -10 0 -39 15 -62 33 -99 74 -156 111 -228 148
-125 66 -247 145 -250 164 l-4 18 29 -6 c15 -3 47 0 69 6 l42 11 44 -17 c35
-14 79 -17 215 -17 114 0 181 -4 200 -12 17 -8 109 -16 228 -20 110 -4 227
-10 260 -13 33 -2 112 -8 175 -13 63 -4 125 -13 137 -20 16 -9 207 -12 783
-12 l761 0 36 -15 c19 -8 57 -15 84 -15 27 0 69 -5 93 -12 34 -9 51 -9 70 0
l26 12 0 40 0 40 -25 0 c-14 0 -42 7 -62 15 -19 8 -53 15 -75 15 -21 0 -55 7
-75 15 l-35 15 -340 0 -339 0 -36 15 -35 15 -340 0 -339 0 -36 15 c-24 10 -51
13 -82 9 -33 -4 -63 0 -108 15 l-62 21 -380 0 c-243 0 -390 4 -408 11 -15 5
-82 13 -148 15 -66 3 -133 11 -150 17 -16 6 -68 14 -115 18 -155 14 -284 30
-325 41 -22 5 -62 12 -90 15 -27 3 -54 9 -59 14 -14 13 -156 9 -183 -5z"/>
</g>
</svg>
