<?xml version="1.0" standalone="no"?>
<!DOCTYPE svg PUBLIC "-//W3C//DTD SVG 20010904//EN"
 "http://www.w3.org/TR/2001/REC-SVG-20010904/DTD/svg10.dtd">
<svg version="1.0" xmlns="http://www.w3.org/2000/svg"
 width="738.000000pt" height="156.000000pt" viewBox="0 0 738.000000 156.000000"
 preserveAspectRatio="xMidYMid meet">
<metadata>
Created by potrace 1.16, written by Peter Selinger 2001-2019
</metadata>
<g transform="translate(0.000000,156.000000) scale(0.100000,-0.100000)"
fill="#000000" stroke="none">
<path d="M965 1550 c-3 -5 -19 -10 -34 -10 -16 0 -45 -7 -64 -15 -20 -8 -62
-15 -94 -15 l-58 0 -45 -30 c-32 -21 -57 -30 -86 -30 -23 0 -58 -7 -77 -15
-20 -8 -49 -15 -65 -15 -16 0 -47 -13 -70 -29 -22 -17 -76 -48 -119 -69 -84
-43 -134 -91 -210 -201 l-43 -61 0 -119 c0 -69 4 -122 10 -126 5 -3 10 -13 10
-20 0 -8 20 -56 44 -107 24 -51 46 -105 50 -120 3 -15 24 -42 46 -59 22 -18
40 -39 40 -46 0 -22 29 -75 58 -106 14 -15 31 -42 37 -59 6 -19 28 -44 55 -63
32 -23 49 -44 60 -75 11 -32 28 -52 65 -79 28 -19 58 -45 68 -58 l18 -23 55 0
54 0 0 19 c0 10 -18 41 -41 67 -22 27 -52 71 -66 99 -14 27 -43 70 -64 95 -37
44 -99 165 -99 193 0 8 -14 33 -30 56 -35 48 -70 121 -99 206 l-21 59 0 142 0
141 29 39 c56 76 130 134 172 134 15 0 43 7 62 15 20 8 50 15 66 15 19 0 43
11 63 28 59 51 82 62 126 62 24 0 53 6 65 13 15 8 100 14 257 19 129 4 255 10
280 14 25 3 149 8 277 10 l231 5 37 -15 37 -16 220 0 c172 0 226 -3 255 -15
19 -8 59 -15 87 -15 32 0 84 -11 136 -30 61 -21 104 -30 150 -30 47 0 90 -9
150 -30 60 -21 104 -30 150 -30 75 0 255 -56 277 -86 9 -13 11 -39 6 -100 l-6
-83 64 -66 c67 -70 139 -115 186 -115 15 0 38 -11 54 -26 39 -37 121 -63 202
-64 37 0 84 -7 104 -15 19 -8 65 -15 101 -15 l65 0 43 44 44 43 0 35 c0 20 -7
52 -16 73 -8 20 -14 51 -12 69 l3 31 423 3 422 2 36 -15 36 -15 295 0 294 0
36 -15 c23 -10 69 -15 135 -15 65 0 111 -5 135 -15 24 -10 71 -15 152 -15 85
0 124 -4 146 -16 40 -21 115 -95 115 -115 0 -19 31 -49 51 -49 8 0 34 -14 59
-30 25 -16 51 -30 58 -30 8 0 40 -16 71 -35 125 -77 285 -107 374 -70 20 8 55
15 77 15 52 0 111 30 178 91 30 27 58 49 63 49 5 0 9 15 9 34 0 47 -70 124
-141 155 -87 38 -113 50 -131 63 -14 10 -27 10 -63 0 l-46 -12 -35 15 c-27 11
-77 15 -196 15 -118 0 -168 4 -195 15 -24 10 -71 15 -150 15 -78 0 -125 5
-150 15 -22 9 -67 15 -120 15 -52 0 -97 6 -120 15 -26 11 -76 15 -195 15 -118
0 -168 4 -195 15 -28 12 -82 15 -255 15 -172 0 -226 3 -255 15 l-35 15 -459 0
c-317 0 -466 3 -486 11 -15 7 -91 13 -168 15 -178 5 -194 8 -252 48 -76 52
-129 76 -170 76 -20 0 -78 13 -128 29 -99 32 -157 48 -225 61 -25 5 -76 20
-115 34 -53 19 -90 26 -150 26 -44 0 -100 6 -125 14 -78 25 -133 37 -195 45
-34 5 -70 13 -82 19 -12 7 -54 12 -93 12 -40 0 -86 6 -107 15 -24 10 -70 15
-139 15 -58 0 -106 4 -109 10 -8 14 -1122 14 -1130 0z m2992 -587 c18 -10 51
-40 74 -66 l42 -48 -16 -16 -15 -15 -90 31 c-50 17 -100 31 -111 31 -29 0
-117 46 -124 64 -8 21 6 28 35 17 15 -5 36 -4 58 5 50 18 110 17 147 -3z
m2820 -148 c26 -11 76 -15 199 -15 l164 0 32 -28 c19 -18 29 -35 26 -44 -10
-26 -127 -58 -209 -58 -92 0 -215 40 -280 90 -24 19 -46 35 -48 36 -2 2 -1 10
2 19 8 20 66 20 114 0z"/>
<path d="M6818 353 c-22 -26 -48 -79 -48 -100 0 -10 14 -38 30 -63 16 -25 30
-52 30 -61 0 -33 34 -49 105 -49 l68 0 43 44 44 43 0 37 c0 44 -41 128 -72
150 -33 24 -179 22 -200 -1z"/>
</g>
</svg>
