<?xml version="1.0" standalone="no"?>
<!DOCTYPE svg PUBLIC "-//W3C//DTD SVG 20010904//EN"
 "http://www.w3.org/TR/2001/REC-SVG-20010904/DTD/svg10.dtd">
<svg version="1.0" xmlns="http://www.w3.org/2000/svg"
 width="1029.000000pt" height="87.000000pt" viewBox="0 0 1029.000000 87.000000"
 preserveAspectRatio="xMidYMid meet">
<metadata>
Created by potrace 1.16, written by Peter Selinger 2001-2019
</metadata>
<g transform="translate(0.000000,87.000000) scale(0.100000,-0.100000)"
fill="#000000" stroke="none">
<path d="M0 820 l0 -50 25 0 c14 0 42 -7 62 -15 22 -9 67 -15 120 -15 52 0 97
-6 120 -15 l35 -15 460 0 459 0 36 -15 35 -15 400 0 399 0 36 -15 35 -15 433
0 433 0 35 15 c86 36 224 3 311 -74 56 -51 125 -100 171 -124 46 -23 151 -57
177 -57 13 0 79 -27 146 -60 68 -33 135 -60 148 -60 14 0 41 -7 61 -15 19 -8
45 -15 57 -15 12 0 60 -13 106 -30 47 -16 94 -30 105 -30 10 0 60 -13 110 -29
145 -47 174 -53 285 -61 62 -5 128 -16 162 -28 31 -11 94 -24 140 -27 46 -4
98 -14 117 -21 23 -10 77 -14 167 -14 78 0 135 -4 139 -10 8 -14 672 -14 680
0 3 6 19 10 34 10 16 0 45 7 64 15 20 8 54 15 75 15 22 0 56 7 75 15 21 8 67
15 105 15 39 0 85 7 105 15 23 9 68 15 121 15 l85 0 64 30 c36 16 71 30 78 30
17 0 138 81 166 112 23 25 63 133 63 171 0 13 5 28 12 35 18 18 170 15 215 -3
23 -10 69 -15 134 -15 54 0 110 -5 126 -12 15 -7 84 -16 153 -20 69 -5 152
-11 185 -14 33 -2 179 -8 325 -12 182 -5 272 -11 287 -19 13 -8 60 -13 123
-13 67 0 113 -5 137 -15 25 -11 73 -15 167 -15 154 0 162 -3 206 -90 l29 -58
69 -46 c41 -28 79 -46 96 -46 16 0 71 -20 123 -45 51 -25 100 -45 108 -45 7 0
17 -5 20 -10 8 -13 328 -14 353 -1 9 5 41 19 70 32 28 12 52 26 52 30 0 5 14
24 30 42 30 34 40 80 20 92 -5 3 -10 15 -10 26 0 35 -89 118 -172 160 l-78 39
-67 0 c-38 0 -88 6 -113 14 -147 46 -266 58 -331 32 -51 -21 -187 -21 -236 -1
-26 11 -76 15 -195 15 -118 0 -168 4 -195 15 -25 11 -72 15 -164 15 -76 0
-139 5 -156 12 -15 6 -66 15 -113 19 -47 4 -121 12 -165 18 -44 5 -203 10
-353 10 l-273 1 -36 15 c-24 10 -71 15 -150 15 -78 0 -125 5 -150 15 -24 10
-71 15 -150 15 -78 0 -125 5 -150 15 -22 9 -67 15 -117 15 l-82 0 -88 31 c-51
17 -98 28 -111 25 -33 -8 -95 -81 -95 -112 0 -15 12 -38 29 -55 l29 -29 47 0
c25 0 62 -7 82 -15 19 -8 54 -15 76 -15 50 0 181 -61 203 -95 12 -18 13 -28 5
-43 -15 -29 -130 -82 -177 -82 -21 0 -77 -14 -124 -30 -46 -17 -95 -30 -108
-30 -13 0 -33 -5 -45 -12 -12 -7 -69 -15 -127 -19 -101 -6 -143 -14 -240 -45
l-46 -15 -324 4 c-308 4 -475 15 -565 38 -22 6 -67 14 -100 18 -34 5 -70 13
-82 19 -12 7 -39 12 -60 12 -21 0 -58 6 -83 14 -97 31 -139 39 -240 46 -74 5
-126 15 -175 33 -38 15 -81 27 -95 27 -14 0 -50 12 -80 26 -83 39 -165 64
-207 64 -25 0 -53 10 -83 30 -25 16 -51 30 -58 30 -7 0 -39 12 -69 26 -31 14
-89 36 -129 49 -92 30 -206 104 -242 158 -15 22 -43 58 -63 78 l-36 38 -51
-16 -51 -16 -42 16 -41 16 -47 -10 c-25 -6 -66 -17 -91 -25 -36 -11 -127 -14
-438 -14 l-393 0 -36 15 -35 15 -550 0 -549 0 -36 15 c-28 12 -85 15 -274 15
-148 0 -240 4 -244 10 -4 6 -110 10 -286 10 l-279 0 0 -50z m9627 -485 c19 -8
59 -15 87 -15 28 0 71 -6 96 -14 60 -19 125 -35 181 -46 71 -13 129 -50 129
-81 0 -37 -38 -49 -160 -49 l-115 0 -95 48 c-121 60 -210 119 -210 137 0 13
26 34 43 35 4 0 24 -7 44 -15z"/>
</g>
</svg>
