<?xml version="1.0" standalone="no"?>
<!DOCTYPE svg PUBLIC "-//W3C//DTD SVG 20010904//EN"
 "http://www.w3.org/TR/2001/REC-SVG-20010904/DTD/svg10.dtd">
<svg version="1.0" xmlns="http://www.w3.org/2000/svg"
 width="564.000000pt" height="180.000000pt" viewBox="0 0 564.000000 180.000000"
 preserveAspectRatio="xMidYMid meet">
<metadata>
Created by potrace 1.16, written by Peter Selinger 2001-2019
</metadata>
<g transform="translate(0.000000,180.000000) scale(0.100000,-0.100000)"
fill="#000000" stroke="none">
<path d="M2196 1778 c-12 -47 -6 -66 34 -102 l40 -36 46 0 c30 0 68 -10 111
-30 35 -16 69 -30 75 -30 17 0 81 -32 122 -62 21 -15 52 -28 68 -28 28 0 99
-37 219 -114 30 -20 68 -36 83 -36 37 0 85 -23 176 -86 42 -28 98 -63 125 -77
48 -24 150 -105 209 -165 62 -64 122 -123 149 -147 18 -16 27 -34 27 -53 0
-17 13 -59 30 -94 l30 -63 0 -86 0 -86 -37 -74 -38 -74 -55 -37 c-71 -49 -133
-78 -163 -78 -14 0 -41 -7 -60 -15 -51 -21 -471 -22 -537 -1 -57 18 -122 35
-180 46 -25 5 -76 20 -115 34 -38 14 -79 26 -90 26 -65 0 -255 105 -375 205
-33 27 -51 35 -82 35 l-41 0 -43 -44 c-48 -48 -54 -75 -32 -148 l11 -38 -29
-31 c-16 -17 -56 -45 -89 -62 l-60 -30 -145 -9 c-183 -10 -173 -10 -310 0 -82
7 -135 17 -185 36 -38 14 -86 26 -105 26 -20 0 -74 13 -120 30 -53 18 -105 30
-138 30 -38 0 -73 9 -119 30 -35 16 -70 30 -76 30 -7 0 -54 20 -105 45 -52 25
-104 45 -116 45 -20 0 -128 36 -213 71 -44 18 -87 3 -91 -32 -2 -20 7 -34 43
-64 120 -98 207 -145 267 -145 32 0 74 -15 166 -60 68 -33 135 -60 148 -60 14
0 41 -7 61 -15 19 -8 52 -15 72 -15 20 0 56 -6 81 -14 77 -24 133 -37 190 -45
30 -4 71 -12 90 -18 86 -27 130 -36 205 -40 44 -2 84 -9 90 -14 12 -12 72 -12
80 1 4 6 56 10 124 10 83 0 129 5 154 15 20 8 49 15 65 15 16 0 47 13 69 29
22 16 59 39 82 51 23 11 72 41 108 65 37 25 74 45 82 45 9 0 62 -23 119 -50
l103 -50 70 0 71 0 65 -30 c35 -16 74 -30 86 -30 12 0 42 -6 67 -14 101 -32
139 -39 228 -43 70 -3 104 0 133 11 30 12 77 16 198 16 118 0 168 4 194 15 20
8 48 15 62 15 29 0 89 28 155 74 67 45 90 67 116 109 14 20 47 62 74 92 l50
55 0 120 c0 132 -20 216 -64 275 -13 17 -40 64 -61 105 -45 92 -102 152 -177
191 -31 15 -90 59 -132 96 -98 89 -196 163 -214 163 -25 0 -86 32 -133 71 -47
38 -147 79 -194 79 -16 0 -41 15 -68 39 -56 53 -44 66 55 57 40 -4 82 -6 93
-6 11 1 104 3 206 6 l187 5 37 -15 37 -16 219 0 c134 0 228 -4 246 -11 15 -6
124 -13 243 -16 149 -4 225 -10 249 -19 19 -8 69 -14 118 -14 52 0 97 -6 120
-15 l35 -15 385 0 384 0 36 -15 c61 -26 63 -24 63 70 l0 85 -35 17 -35 17 -49
-18 -49 -17 -37 15 -37 16 -400 0 -399 0 -36 15 c-24 10 -70 15 -146 15 -60 0
-127 5 -148 12 -30 8 -48 8 -79 -1 l-39 -12 -37 16 c-27 11 -74 15 -181 15
-105 0 -153 4 -180 15 -27 12 -81 15 -240 15 -158 0 -212 3 -240 15 -46 20
-111 19 -159 -1 -27 -12 -53 -14 -89 -10 -82 11 -143 16 -265 22 -63 3 -119 9
-124 15 -6 5 -103 9 -222 9 l-212 0 -6 -22z"/>
</g>
</svg>
