<?xml version="1.0" standalone="no"?>
<!DOCTYPE svg PUBLIC "-//W3C//DTD SVG 20010904//EN"
 "http://www.w3.org/TR/2001/REC-SVG-20010904/DTD/svg10.dtd">
<svg version="1.0" xmlns="http://www.w3.org/2000/svg"
 width="822.000000pt" height="171.000000pt" viewBox="0 0 822.000000 171.000000"
 preserveAspectRatio="xMidYMid meet">
<metadata>
Created by potrace 1.16, written by Peter Selinger 2001-2019
</metadata>
<g transform="translate(0.000000,171.000000) scale(0.100000,-0.100000)"
fill="#000000" stroke="none">
<path d="M4313 1674 c-29 -45 -29 -72 0 -115 l23 -34 104 -5 c58 -3 115 -11
127 -18 12 -6 41 -12 64 -12 46 0 197 -67 270 -120 23 -16 49 -30 58 -30 28
-1 81 -32 247 -143 153 -102 227 -166 270 -232 10 -17 35 -50 55 -75 80 -97
115 -210 103 -324 -5 -45 -14 -67 -40 -100 -18 -22 -47 -67 -64 -98 -33 -64
-62 -88 -102 -88 -15 0 -51 -11 -80 -24 -83 -39 -169 -66 -209 -66 -20 0 -53
-7 -72 -15 l-36 -15 -456 0 -456 0 -36 15 c-25 11 -72 15 -162 15 -81 0 -142
5 -171 14 -94 30 -138 38 -225 45 -49 4 -100 12 -112 19 -13 7 -66 12 -138 12
-80 0 -127 5 -152 15 -19 8 -45 15 -57 15 -11 0 -41 6 -66 14 -60 19 -125 35
-181 46 -26 5 -69 20 -97 34 -30 15 -68 26 -92 26 -22 0 -57 7 -77 15 -19 8
-47 15 -60 15 -14 0 -54 13 -90 30 -35 17 -70 30 -76 30 -7 0 -25 9 -42 21
-16 11 -47 29 -68 40 l-37 20 -43 -12 c-23 -7 -50 -19 -59 -27 l-18 -15 0 -93
0 -93 -27 -19 c-16 -11 -49 -29 -75 -41 l-47 -21 -411 0 -411 0 -36 15 c-19 8
-52 15 -71 15 -20 0 -96 20 -169 45 -73 25 -141 45 -151 45 -10 0 -56 13 -102
30 -47 16 -94 30 -104 30 -35 0 -149 43 -259 97 -82 40 -119 53 -153 53 l-45
0 3 -57 3 -56 160 -80 c160 -80 273 -126 310 -127 10 0 60 -13 110 -29 99 -32
160 -48 220 -60 22 -4 56 -12 75 -18 78 -25 129 -35 200 -42 41 -4 85 -13 97
-19 15 -9 119 -12 362 -12 l341 0 107 36 107 36 54 49 c73 67 125 89 207 89
53 0 80 -6 132 -30 l64 -30 87 0 87 0 63 -30 c35 -17 80 -30 100 -30 21 0 57
-6 82 -14 94 -30 138 -38 225 -45 50 -4 100 -12 112 -19 13 -7 63 -12 123 -12
67 0 113 -5 137 -15 23 -10 69 -15 135 -15 65 0 111 -5 135 -15 19 -8 53 -15
75 -15 21 0 55 -7 75 -15 28 -12 81 -15 244 -15 128 0 210 -4 214 -10 8 -13
312 -13 320 0 4 6 66 10 154 10 109 0 158 4 184 15 20 8 54 15 75 15 22 0 56
7 75 15 20 8 54 15 75 15 22 0 56 7 75 15 20 8 50 15 67 15 22 0 39 9 56 28
36 41 80 84 172 170 93 85 132 148 132 212 0 22 7 57 15 77 8 19 15 48 15 63
0 15 -7 44 -15 63 -8 20 -15 56 -15 81 l0 44 -41 48 c-22 27 -53 74 -69 104
-35 67 -120 150 -220 216 -41 26 -88 60 -105 75 -16 14 -46 34 -65 44 -35 17
-174 108 -219 144 -13 10 -21 23 -17 30 10 16 110 14 153 -4 25 -10 71 -15
153 -15 82 0 128 5 153 15 47 19 331 21 374 3 18 -8 116 -15 273 -20 135 -4
272 -10 305 -14 33 -3 419 -8 858 -10 l797 -4 30 15 c21 11 30 23 30 40 0 34
-45 55 -115 55 -31 0 -72 7 -92 15 l-35 15 -565 0 -564 0 -36 15 -35 15 -460
0 -459 0 -36 15 c-24 10 -69 15 -138 15 -69 0 -114 -5 -138 -15 -27 -11 -76
-15 -192 -15 -116 0 -165 4 -192 15 -27 11 -77 15 -210 15 -132 0 -182 4 -210
15 -24 10 -70 15 -139 15 -58 0 -106 4 -109 10 -3 6 -41 10 -83 10 l-77 -1
-22 -35z"/>
</g>
</svg>
