<?xml version="1.0" standalone="no"?>
<!DOCTYPE svg PUBLIC "-//W3C//DTD SVG 20010904//EN"
 "http://www.w3.org/TR/2001/REC-SVG-20010904/DTD/svg10.dtd">
<svg version="1.0" xmlns="http://www.w3.org/2000/svg"
 width="441.000000pt" height="267.000000pt" viewBox="0 0 441.000000 267.000000"
 preserveAspectRatio="xMidYMid meet">
<metadata>
Created by potrace 1.16, written by Peter Selinger 2001-2019
</metadata>
<g transform="translate(0.000000,267.000000) scale(0.100000,-0.100000)"
fill="#000000" stroke="none">
<path d="M13 2643 c-18 -37 -16 -108 2 -123 8 -7 21 -34 29 -60 21 -69 43
-109 91 -161 23 -25 54 -63 68 -85 27 -42 55 -70 102 -99 17 -10 57 -44 90
-75 33 -31 74 -65 90 -75 17 -10 57 -44 90 -76 33 -31 80 -67 105 -79 25 -12
65 -39 90 -60 25 -20 65 -47 90 -60 25 -13 59 -33 75 -45 17 -13 53 -34 80
-48 28 -14 72 -44 99 -66 33 -29 58 -41 79 -41 18 0 94 -31 184 -75 114 -56
164 -75 194 -75 24 0 67 -12 106 -30 35 -16 69 -30 74 -30 6 0 35 -11 65 -25
92 -42 171 -65 224 -65 28 0 67 -7 87 -15 19 -8 45 -15 57 -15 29 0 217 -64
291 -99 64 -30 108 -68 131 -113 8 -16 33 -40 56 -54 23 -15 62 -46 87 -69 25
-23 60 -50 77 -58 18 -9 72 -56 120 -105 114 -113 238 -212 280 -224 19 -5 66
-39 109 -78 41 -39 83 -70 93 -70 11 0 38 -15 62 -32 93 -70 166 -118 178
-118 20 0 82 -30 126 -62 21 -15 51 -28 65 -28 27 0 125 -31 138 -43 10 -11
131 -8 138 3 3 6 28 10 55 10 l49 0 86 78 85 77 0 124 0 124 -49 47 c-27 26
-63 74 -79 106 -21 40 -63 91 -129 156 -115 114 -205 178 -248 178 -32 0 -57
14 -113 62 -18 15 -40 28 -48 28 -9 0 -45 14 -81 30 -37 18 -81 30 -104 30
-22 0 -65 11 -95 25 -84 38 -170 65 -209 65 -20 0 -52 7 -72 15 -19 8 -53 15
-75 15 -21 0 -55 7 -75 15 -27 12 -79 15 -228 15 l-192 0 -41 30 c-22 16 -56
50 -74 75 -18 26 -66 83 -106 127 -39 45 -72 85 -72 91 0 5 -40 51 -89 101
-49 50 -102 109 -117 132 -94 134 -151 199 -207 237 -16 10 -31 33 -37 57 -6
24 -24 50 -44 67 -19 15 -51 51 -72 78 -20 28 -50 64 -66 81 -23 24 -29 39
-26 65 l3 34 62 3 c39 2 75 -3 98 -13 21 -8 55 -15 77 -15 21 0 55 -7 75 -15
24 -10 71 -15 150 -15 78 0 125 -5 150 -15 22 -9 67 -15 119 -15 53 0 98 -6
123 -16 46 -18 227 -15 301 5 25 7 56 16 69 19 13 4 30 17 39 29 l14 23 -40
40 -40 40 -271 0 -272 0 -36 15 c-19 8 -60 15 -90 15 -29 0 -70 7 -90 15 -20
8 -66 15 -105 15 -38 0 -84 7 -105 15 -19 8 -53 15 -75 15 -21 0 -55 7 -76 16
-26 11 -53 14 -92 10 l-55 -6 -30 20 c-21 14 -47 20 -83 20 l-54 0 -29 -29
-29 -29 0 -47 c0 -72 36 -163 84 -215 24 -25 51 -59 61 -75 10 -17 42 -55 71
-85 29 -30 65 -73 81 -96 68 -99 104 -142 198 -240 55 -58 112 -124 128 -147
15 -23 50 -64 76 -92 49 -50 141 -178 141 -196 0 -14 -36 -11 -77 6 -19 8 -58
15 -85 15 -52 0 -336 88 -417 129 -22 12 -52 21 -67 21 -32 0 -256 107 -316
150 -25 18 -53 30 -72 30 -22 0 -58 18 -115 55 -46 31 -115 72 -153 92 -39 21
-82 52 -96 71 -14 18 -52 47 -84 63 -32 16 -88 57 -125 92 -38 34 -87 75 -110
91 -73 49 -260 248 -271 289 -6 20 -27 56 -47 79 -19 23 -38 54 -42 68 -3 14
-12 37 -20 53 l-14 27 -37 0 -37 0 -12 -27z m3074 -1618 c19 -8 52 -15 72 -15
20 0 75 -13 121 -30 47 -16 96 -30 108 -30 13 0 53 -13 89 -30 35 -16 74 -30
85 -30 43 0 147 -43 190 -79 25 -20 65 -45 89 -55 92 -38 111 -52 239 -180
170 -171 170 -170 170 -278 l0 -87 -32 -23 -33 -23 -102 -3 -102 -4 -62 22
c-34 11 -96 44 -138 72 -42 28 -90 55 -108 60 -18 5 -66 40 -106 77 -54 50
-84 70 -111 75 -29 6 -52 22 -95 68 -34 36 -80 72 -116 90 -43 22 -100 70
-203 172 -79 78 -157 158 -174 179 l-30 37 12 15 c17 21 187 21 237 0z"/>
</g>
</svg>
