<?xml version="1.0" standalone="no"?>
<!DOCTYPE svg PUBLIC "-//W3C//DTD SVG 20010904//EN"
 "http://www.w3.org/TR/2001/REC-SVG-20010904/DTD/svg10.dtd">
<svg version="1.0" xmlns="http://www.w3.org/2000/svg"
 width="735.000000pt" height="240.000000pt" viewBox="0 0 735.000000 240.000000"
 preserveAspectRatio="xMidYMid meet">
<metadata>
Created by potrace 1.16, written by Peter Selinger 2001-2019
</metadata>
<g transform="translate(0.000000,240.000000) scale(0.100000,-0.100000)"
fill="#000000" stroke="none">
<path d="M0 2348 l1 -53 62 -28 62 -27 352 0 353 0 40 -16 40 -16 368 6 c202
4 381 6 397 6 84 -1 457 -20 500 -25 28 -4 131 -8 231 -9 l181 -3 24 -16 c17
-13 45 -17 111 -17 58 0 102 -6 128 -16 l41 -17 130 5 129 5 23 -16 c16 -12
46 -16 112 -16 109 0 130 -11 170 -87 15 -29 41 -68 57 -86 16 -19 39 -50 52
-70 13 -21 43 -50 67 -65 24 -15 60 -51 79 -80 l35 -51 63 -22 c35 -12 83 -39
110 -61 49 -41 121 -83 144 -83 8 0 51 -25 96 -55 103 -69 155 -95 184 -95 32
0 136 -37 168 -60 67 -47 146 -78 220 -84 41 -4 98 -12 125 -18 47 -10 70 -17
155 -48 19 -7 49 -12 65 -11 35 1 76 -14 124 -46 21 -15 42 -21 56 -17 12 3
54 -4 92 -15 39 -12 84 -21 101 -21 43 0 91 -41 342 -291 118 -118 229 -223
245 -234 17 -10 57 -44 90 -75 33 -31 87 -74 120 -95 33 -22 80 -55 104 -74
76 -60 155 -111 173 -111 9 0 38 -17 65 -37 28 -21 66 -40 92 -45 25 -4 57
-19 71 -33 l26 -25 175 0 175 0 69 61 c39 33 85 73 103 88 23 21 32 37 32 59
0 17 4 34 10 37 13 8 13 132 0 140 -5 3 -10 20 -10 38 0 36 -79 160 -113 178
-12 7 -42 28 -66 47 -84 69 -156 112 -184 112 -34 0 -80 19 -131 54 -21 14
-47 26 -58 26 -10 0 -44 14 -75 32 -36 21 -80 35 -118 40 -146 19 -174 24
-186 35 -8 6 -34 13 -59 15 -46 5 -93 20 -143 44 -16 8 -45 14 -65 14 -20 0
-50 9 -67 20 -22 15 -47 20 -97 20 -79 0 -148 14 -200 41 -20 10 -50 19 -66
19 -16 0 -46 13 -68 28 -48 35 -254 248 -254 262 0 6 -29 41 -63 78 -35 37
-72 81 -82 97 -10 17 -29 41 -41 55 -31 36 -111 156 -136 204 -11 22 -37 61
-58 86 -38 46 -70 107 -70 133 0 7 -13 32 -29 54 -15 21 -34 56 -42 77 l-14
38 24 19 c29 24 116 26 168 4 22 -9 67 -15 119 -15 45 0 94 -4 109 -10 18 -7
40 -6 71 2 l45 12 49 -27 48 -27 27 10 c49 18 126 12 170 -15 22 -14 48 -25
58 -25 10 0 30 -6 45 -14 22 -11 36 -12 69 -3 l41 11 44 -17 c29 -11 74 -17
134 -17 l91 0 16 18 c25 27 21 60 -12 93 l-29 29 -77 0 c-45 0 -90 6 -112 15
-19 8 -53 15 -75 15 -21 0 -55 7 -76 15 -24 11 -50 14 -74 10 -29 -5 -46 -2
-74 15 l-36 23 -55 -7 -55 -6 -35 21 -35 22 -88 -6 c-70 -4 -91 -3 -101 9
l-11 14 -294 0 -293 0 -16 -30 c-9 -16 -15 -55 -15 -90 l0 -60 36 -72 c20 -39
50 -92 67 -118 18 -26 46 -71 62 -100 17 -29 41 -71 54 -94 45 -79 95 -151
136 -196 23 -25 50 -59 61 -75 18 -28 52 -74 144 -191 22 -28 40 -55 40 -59 0
-4 9 -20 21 -36 11 -16 17 -33 14 -39 -9 -14 -46 -12 -75 5 -14 8 -38 15 -55
15 -16 0 -50 14 -74 30 -24 17 -57 30 -73 30 -16 0 -43 8 -61 17 -18 9 -66 21
-107 25 -160 16 -203 29 -275 84 -17 12 -71 36 -120 52 -112 36 -176 69 -239
121 -26 23 -56 41 -65 41 -33 1 -97 38 -153 89 -32 29 -74 57 -94 63 -23 6
-52 27 -78 55 -22 25 -62 66 -87 92 -71 71 -109 139 -109 194 0 34 -6 53 -24
74 l-24 28 -129 7 c-154 9 -146 9 -259 2 l-91 -6 -80 27 -79 26 -28 -11 c-15
-5 -57 -10 -92 -10 -52 0 -74 5 -108 25 l-44 25 -26 -10 c-37 -14 -178 -13
-213 2 -37 15 -169 29 -263 28 -41 -1 -92 -1 -112 -1 -21 0 -60 1 -88 1 -27 0
-69 0 -92 0 -119 0 -175 6 -201 23 -36 24 -64 21 -99 -8 l-30 -25 -298 0 -298
0 -30 25 c-33 27 -61 32 -80 13 -15 -15 -451 -12 -467 3 -5 5 -80 9 -167 9
l-158 0 0 -52z m6123 -1483 c27 -15 51 -22 65 -18 25 6 71 -10 119 -43 21 -14
57 -24 100 -29 37 -4 83 -13 102 -21 18 -8 51 -14 73 -14 44 0 87 -16 142 -54
21 -14 46 -26 55 -26 9 0 48 -15 86 -34 39 -19 92 -42 118 -52 89 -30 217
-183 217 -258 0 -26 -45 -119 -66 -136 -15 -14 -121 -32 -174 -31 -14 0 -68 4
-121 8 l-96 8 -38 30 c-82 64 -150 108 -182 117 -19 5 -64 37 -101 72 -37 34
-80 70 -97 81 -16 10 -57 44 -90 75 -33 31 -77 67 -97 80 -20 14 -49 44 -65
69 -15 24 -39 50 -53 59 -72 44 -118 111 -93 135 3 4 40 7 80 7 l74 0 42 -25z"/>
</g>
</svg>
