<?xml version="1.0" standalone="no"?>
<!DOCTYPE svg PUBLIC "-//W3C//DTD SVG 20010904//EN"
 "http://www.w3.org/TR/2001/REC-SVG-20010904/DTD/svg10.dtd">
<svg version="1.0" xmlns="http://www.w3.org/2000/svg"
 width="501.000000pt" height="231.000000pt" viewBox="0 0 501.000000 231.000000"
 preserveAspectRatio="xMidYMid meet">
<metadata>
Created by potrace 1.16, written by Peter Selinger 2001-2019
</metadata>
<g transform="translate(0.000000,231.000000) scale(0.100000,-0.100000)"
fill="#000000" stroke="none">
<path d="M1220 2274 c-73 -46 -127 -99 -156 -156 l-24 -47 0 -131 c0 -152 9
-185 95 -360 32 -67 55 -126 55 -145 0 -24 11 -46 41 -81 40 -48 109 -175 109
-202 0 -20 36 -86 56 -103 25 -21 88 -108 113 -157 12 -24 44 -76 71 -116 27
-40 59 -102 72 -137 l22 -64 -2 -149 c-3 -162 -10 -189 -62 -220 -21 -12 -53
-16 -121 -16 l-93 0 -91 29 c-103 33 -160 49 -227 61 -26 5 -56 13 -67 19 -11
6 -36 11 -57 11 -47 0 -235 63 -337 112 -43 21 -88 38 -100 38 -38 0 -126 35
-155 62 -56 52 -115 88 -146 88 -18 0 -50 13 -76 30 -51 34 -69 36 -110 15
-49 -25 -39 -51 50 -133 58 -53 106 -86 182 -124 57 -28 121 -64 142 -80 29
-21 50 -28 85 -28 33 0 57 -7 83 -25 19 -13 91 -42 159 -65 68 -22 148 -52
177 -65 36 -17 70 -25 108 -25 30 0 71 -7 91 -15 19 -8 52 -15 72 -15 34 0
193 -48 233 -70 23 -13 75 -13 83 0 3 5 40 10 80 10 l74 0 33 28 c18 16 44 32
58 35 49 12 86 66 124 180 l36 108 -6 82 c-5 53 -16 100 -31 132 -13 29 -23
69 -23 95 0 47 -31 102 -108 196 -18 22 -37 55 -42 75 -6 20 -20 50 -32 67
-59 79 -85 117 -175 252 -102 155 -123 195 -123 234 0 14 -20 66 -45 117 -25
51 -45 105 -45 120 0 14 -7 43 -15 62 -8 20 -15 53 -15 74 0 20 -7 57 -16 80
l-17 43 26 39 c58 87 91 98 325 107 102 4 144 2 180 -9 94 -30 139 -39 222
-46 90 -7 250 -56 300 -91 15 -11 63 -31 106 -45 113 -36 181 -71 243 -121 29
-24 60 -44 69 -44 19 0 100 -50 162 -99 25 -20 65 -50 90 -66 24 -17 65 -50
90 -76 25 -25 62 -56 82 -69 20 -14 49 -44 65 -68 15 -24 48 -57 73 -74 25
-17 57 -46 70 -67 14 -20 46 -60 73 -90 26 -30 60 -77 74 -105 14 -28 42 -71
63 -96 57 -70 100 -144 100 -172 0 -15 13 -55 30 -90 16 -34 30 -68 30 -74 0
-6 12 -38 26 -70 15 -35 23 -66 19 -78 -4 -12 -11 -57 -16 -101 -4 -44 -11
-95 -15 -113 -8 -40 9 -61 66 -87 l40 -18 55 13 54 13 43 -16 c35 -14 80 -17
216 -17 131 0 181 -4 209 -15 27 -12 80 -15 236 -15 120 0 215 -5 237 -11 49
-15 81 -6 125 32 50 44 48 79 -7 119 l-41 30 -314 0 -314 0 -36 15 c-24 10
-71 15 -151 15 l-115 0 -31 19 c-17 11 -42 34 -55 51 l-23 32 12 42 11 42 -36
108 c-20 60 -47 125 -61 145 -13 20 -24 48 -24 64 0 35 -28 90 -97 190 -29 44
-62 96 -73 116 -10 21 -35 50 -54 65 -20 15 -47 49 -61 75 -15 31 -43 62 -73
85 -27 19 -66 61 -88 92 -21 32 -77 91 -124 131 -47 41 -116 102 -155 137 -38
35 -88 72 -111 84 -22 11 -80 48 -130 81 -49 34 -96 61 -104 61 -9 0 -53 25
-98 55 -103 69 -155 95 -184 95 -35 0 -135 37 -177 66 -19 13 -42 24 -49 24
-8 0 -43 14 -79 30 l-64 30 -70 0 c-39 0 -85 7 -106 15 -19 8 -62 15 -94 15
-32 0 -61 5 -64 10 -4 6 -91 10 -233 9 l-227 -1 -55 -34z"/>
</g>
</svg>
