<?xml version="1.0" standalone="no"?>
<!DOCTYPE svg PUBLIC "-//W3C//DTD SVG 20010904//EN"
 "http://www.w3.org/TR/2001/REC-SVG-20010904/DTD/svg10.dtd">
<svg version="1.0" xmlns="http://www.w3.org/2000/svg"
 width="672.000000pt" height="192.000000pt" viewBox="0 0 672.000000 192.000000"
 preserveAspectRatio="xMidYMid meet">
<metadata>
Created by potrace 1.16, written by Peter Selinger 2001-2019
</metadata>
<g transform="translate(0.000000,192.000000) scale(0.100000,-0.100000)"
fill="#000000" stroke="none">
<path d="M0 1901 c0 -11 11 -32 25 -48 14 -15 45 -50 68 -77 23 -27 59 -60 80
-73 20 -13 62 -46 92 -73 30 -28 62 -50 71 -50 22 0 82 -29 128 -62 21 -15 46
-28 55 -28 9 0 36 -14 61 -30 25 -16 51 -30 59 -30 8 0 84 -34 168 -75 85 -41
164 -75 176 -75 25 0 120 -31 183 -60 89 -41 255 -90 304 -90 28 0 67 -7 87
-15 19 -8 52 -15 72 -15 20 0 56 -6 81 -14 60 -19 125 -35 182 -46 26 -5 56
-13 67 -19 11 -6 45 -11 76 -11 30 0 72 -7 92 -15 22 -9 67 -15 120 -15 52 0
97 -6 120 -15 19 -8 53 -15 74 -15 21 0 50 -5 66 -12 22 -10 217 -24 391 -28
138 -3 444 13 462 25 8 5 56 12 105 16 50 4 108 12 130 18 22 6 51 13 65 15
14 3 50 21 80 40 30 19 75 46 100 59 25 14 56 37 69 51 14 15 35 26 50 26 27
0 137 -67 209 -128 62 -53 92 -71 134 -82 20 -6 61 -33 91 -60 29 -27 87 -65
128 -86 41 -20 94 -53 119 -74 25 -20 65 -47 90 -60 25 -13 59 -34 77 -47 17
-13 47 -28 66 -34 19 -5 62 -33 96 -62 98 -84 183 -147 200 -147 8 0 93 -38
189 -85 96 -47 213 -99 261 -114 48 -16 101 -35 118 -44 56 -30 219 -75 308
-86 34 -5 70 -13 82 -19 12 -7 42 -12 67 -12 25 0 48 -5 51 -10 7 -11 158 -14
168 -3 13 13 112 43 140 43 30 0 71 37 140 123 l27 35 0 79 0 80 -40 12 -40
12 -30 -16 c-34 -18 -68 -65 -77 -108 -4 -19 -24 -41 -61 -67 l-55 -40 -111 0
-110 0 -91 29 c-98 32 -158 48 -220 60 -63 12 -143 42 -228 83 -43 21 -82 38
-88 38 -23 0 -97 41 -143 79 -26 23 -55 41 -63 41 -8 0 -43 13 -77 29 -34 16
-76 32 -93 35 -18 4 -51 24 -75 45 -24 21 -59 46 -78 56 -19 10 -55 34 -79 54
-25 20 -68 50 -97 66 -29 17 -75 44 -104 60 -29 17 -73 44 -99 61 -26 17 -67
42 -91 54 -25 12 -67 40 -95 61 -138 107 -162 126 -188 142 -15 10 -52 39 -81
65 -30 26 -74 59 -98 73 -32 19 -47 35 -51 56 -3 17 -27 49 -61 81 l-55 52
-57 0 -56 0 -38 -37 -37 -38 -6 -52 c-9 -76 -32 -117 -90 -160 -69 -52 -117
-73 -165 -73 -22 0 -56 -7 -76 -15 -26 -11 -76 -16 -179 -16 -95 -1 -155 -6
-183 -16 l-41 -15 -38 16 c-28 12 -73 16 -182 16 -105 0 -153 4 -180 15 -22 9
-67 15 -120 15 -52 0 -97 6 -120 15 -23 10 -69 15 -135 15 -65 0 -111 5 -135
15 -19 8 -53 15 -75 15 -21 0 -55 7 -75 15 -19 8 -52 15 -72 15 -20 0 -75 13
-121 30 -47 16 -102 30 -123 30 -21 0 -54 7 -74 15 -19 8 -51 15 -71 15 -19 0
-136 34 -259 75 -123 41 -233 75 -245 75 -12 0 -91 34 -175 75 -85 41 -159 75
-166 75 -7 0 -29 11 -49 25 -20 14 -69 41 -107 60 -76 38 -185 110 -239 156
-18 16 -42 29 -53 29 -11 0 -31 11 -45 25 l-25 25 -64 0 -65 0 0 -19z"/>
</g>
</svg>
