<?xml version="1.0" standalone="no"?>
<!DOCTYPE svg PUBLIC "-//W3C//DTD SVG 20010904//EN"
 "http://www.w3.org/TR/2001/REC-SVG-20010904/DTD/svg10.dtd">
<svg version="1.0" xmlns="http://www.w3.org/2000/svg"
 width="492.000000pt" height="183.000000pt" viewBox="0 0 492.000000 183.000000"
 preserveAspectRatio="xMidYMid meet">
<metadata>
Created by potrace 1.16, written by Peter Selinger 2001-2019
</metadata>
<g transform="translate(0.000000,183.000000) scale(0.100000,-0.100000)"
fill="#000000" stroke="none">
<path d="M0 1794 c0 -44 50 -111 113 -151 22 -14 61 -45 86 -68 55 -51 85 -67
188 -100 89 -29 116 -41 158 -71 38 -28 144 -64 187 -64 17 0 92 -20 165 -45
104 -35 146 -45 198 -45 36 0 82 -7 102 -15 24 -10 71 -15 149 -15 62 0 124
-4 138 -10 15 -5 69 -13 120 -16 l94 -7 41 17 c25 9 70 16 111 16 53 0 82 6
122 24 73 34 168 66 195 66 17 0 32 -14 57 -53 19 -29 50 -64 70 -77 19 -14
47 -44 63 -69 15 -24 46 -55 68 -69 22 -14 104 -86 181 -161 166 -160 279
-247 391 -304 28 -14 75 -48 105 -76 30 -28 90 -68 134 -90 43 -22 101 -58
128 -80 32 -28 58 -41 78 -41 28 0 98 -37 219 -114 30 -20 66 -36 80 -36 27 0
120 -30 185 -60 23 -10 70 -28 105 -40 35 -11 72 -25 81 -30 11 -6 138 -10
313 -10 l296 0 22 25 c14 17 39 28 72 34 37 7 56 17 77 43 l27 33 1 72 0 72
-30 16 c-20 10 -50 15 -83 13 l-52 -3 -35 -53 -35 -54 -55 -19 -54 -19 -151 0
-151 0 -84 30 c-47 16 -96 30 -110 30 -14 0 -67 20 -118 45 -65 31 -107 45
-136 45 -28 0 -53 8 -79 25 -44 31 -232 125 -247 125 -28 0 -102 44 -158 94
-35 31 -70 56 -78 56 -31 0 -102 40 -153 86 -29 26 -75 61 -101 78 -79 51
-167 126 -196 167 -14 21 -51 57 -82 80 -61 46 -183 163 -322 307 -59 61 -90
128 -90 195 0 21 -7 52 -16 70 -25 49 -105 127 -131 127 -47 0 -127 -99 -146
-181 -4 -14 -18 -37 -32 -51 -32 -33 -137 -68 -202 -68 -28 0 -67 -7 -86 -15
-48 -20 -186 -20 -234 0 -25 11 -72 15 -165 15 -92 0 -139 4 -165 15 -19 8
-52 15 -72 15 -20 0 -56 6 -81 14 -76 24 -133 37 -190 45 -62 9 -152 37 -191
60 -110 67 -142 83 -215 106 l-83 27 -61 54 c-33 30 -69 54 -80 54 -10 0 -22
5 -25 10 -3 6 -37 10 -76 10 l-69 0 0 -36z"/>
</g>
</svg>
