<?xml version="1.0" standalone="no"?>
<!DOCTYPE svg PUBLIC "-//W3C//DTD SVG 20010904//EN"
 "http://www.w3.org/TR/2001/REC-SVG-20010904/DTD/svg10.dtd">
<svg version="1.0" xmlns="http://www.w3.org/2000/svg"
 width="180.000000pt" height="363.000000pt" viewBox="0 0 180.000000 363.000000"
 preserveAspectRatio="xMidYMid meet">
<metadata>
Created by potrace 1.16, written by Peter Selinger 2001-2019
</metadata>
<g transform="translate(0.000000,363.000000) scale(0.100000,-0.100000)"
fill="#000000" stroke="none">
<path d="M125 3620 c-3 -5 -20 -10 -36 -10 -17 0 -43 -7 -59 -15 l-30 -16 0
-98 0 -98 25 -23 c14 -13 25 -27 25 -32 0 -5 20 -42 45 -82 25 -41 45 -81 45
-90 0 -8 25 -44 56 -78 31 -35 68 -85 81 -113 14 -27 44 -70 68 -95 23 -25 50
-59 61 -75 24 -39 132 -173 144 -180 6 -4 10 -14 10 -25 0 -10 15 -37 34 -59
19 -23 56 -74 82 -114 26 -39 60 -86 74 -103 15 -17 52 -69 84 -115 31 -46 70
-102 86 -123 17 -21 30 -46 30 -55 0 -9 27 -56 60 -106 33 -49 60 -98 60 -109
0 -10 22 -40 49 -66 27 -26 57 -63 67 -81 9 -19 39 -58 65 -87 27 -29 53 -69
58 -88 5 -20 21 -50 34 -67 13 -18 32 -48 42 -67 9 -19 30 -48 45 -65 15 -16
30 -41 33 -55 4 -14 22 -50 41 -80 75 -117 106 -191 106 -250 0 -60 -19 -100
-49 -100 -26 0 -94 62 -134 122 -63 94 -289 299 -392 355 l-40 22 -111 1 -111
0 -16 -18 c-13 -14 -17 -38 -17 -96 l0 -77 25 -49 c17 -33 40 -59 68 -77 23
-14 69 -52 102 -83 33 -31 73 -65 90 -75 16 -10 50 -37 75 -60 43 -40 117 -85
140 -85 23 0 97 -40 124 -67 35 -34 96 -158 96 -194 0 -14 5 -40 11 -58 19
-54 -26 -135 -104 -187 -96 -64 -116 -94 -101 -152 l6 -22 74 0 74 0 69 50
c76 55 141 140 141 183 0 15 7 44 15 64 19 45 19 111 0 156 -19 47 -19 102 1
135 8 15 45 48 82 73 l67 46 3 144 c1 79 -1 153 -6 164 -60 137 -195 398 -225
433 -21 24 -52 71 -68 105 -17 33 -56 96 -85 140 -30 44 -64 98 -76 121 -11
22 -38 61 -58 86 -21 25 -63 95 -94 157 -37 74 -66 120 -87 135 -17 13 -43 43
-57 68 -14 25 -37 59 -51 75 -14 17 -62 84 -105 150 -44 66 -91 134 -106 150
-14 17 -48 64 -74 105 -27 41 -59 86 -72 100 -12 14 -73 102 -136 195 -62 94
-130 191 -150 216 -21 25 -49 72 -63 103 -37 85 -35 86 152 86 l155 0 65 -30
64 -30 333 0 333 0 16 18 c23 25 22 85 -1 105 l-19 17 -132 0 c-94 0 -142 4
-168 15 -26 11 -76 15 -195 15 -118 0 -168 4 -195 15 -19 8 -53 15 -75 15 -21
0 -55 7 -75 15 -25 10 -71 15 -154 15 -68 0 -120 4 -124 10 -3 6 -35 10 -70
10 -35 0 -67 -4 -70 -10z"/>
</g>
</svg>
