<?xml version="1.0" standalone="no"?>
<!DOCTYPE svg PUBLIC "-//W3C//DTD SVG 20010904//EN"
 "http://www.w3.org/TR/2001/REC-SVG-20010904/DTD/svg10.dtd">
<svg version="1.0" xmlns="http://www.w3.org/2000/svg"
 width="507.000000pt" height="258.000000pt" viewBox="0 0 507.000000 258.000000"
 preserveAspectRatio="xMidYMid meet">
<metadata>
Created by potrace 1.16, written by Peter Selinger 2001-2019
</metadata>
<g transform="translate(0.000000,258.000000) scale(0.100000,-0.100000)"
fill="#000000" stroke="none">
<path d="M1807 2547 c-25 -22 -42 -47 -52 -82 l-14 -50 13 -46 c36 -119 126
-243 207 -284 26 -13 83 -49 127 -79 86 -59 178 -96 239 -96 21 0 52 -8 70
-17 33 -19 203 -199 203 -215 0 -5 27 -37 59 -71 32 -34 83 -98 113 -142 75
-113 123 -175 200 -261 40 -44 71 -89 77 -111 6 -22 29 -55 58 -83 26 -25 61
-66 78 -90 16 -25 42 -60 57 -77 15 -18 43 -57 61 -85 19 -29 68 -93 110 -142
42 -49 81 -104 86 -123 5 -18 33 -59 62 -91 64 -70 95 -133 79 -162 l-11 -20
-115 0 c-79 0 -126 5 -151 15 -22 9 -67 15 -120 15 -52 0 -97 6 -120 15 -27
12 -81 15 -240 15 -158 0 -212 3 -240 15 -22 9 -67 15 -119 15 -53 0 -98 6
-124 16 -31 13 -59 15 -127 10 -109 -8 -107 -8 -283 2 -81 4 -155 13 -167 20
-12 7 -58 12 -108 12 -53 0 -99 6 -122 15 -24 10 -71 15 -150 15 -78 0 -125 5
-150 15 -28 12 -84 15 -270 15 -185 0 -241 3 -270 15 -26 11 -74 15 -180 15
-105 0 -153 4 -180 15 -25 11 -72 15 -164 15 -70 0 -139 4 -153 10 -17 6 -35
6 -51 0 l-25 -10 0 -38 0 -38 95 -32 c68 -23 112 -32 160 -32 36 0 82 -7 102
-15 19 -8 60 -15 90 -15 29 0 70 -7 90 -15 24 -10 71 -15 150 -15 78 0 125 -5
150 -15 28 -12 82 -15 255 -15 172 0 226 -3 255 -15 22 -9 67 -15 120 -15 52
0 97 -6 120 -15 23 -10 69 -15 134 -15 54 0 110 -5 126 -12 15 -7 91 -16 168
-20 173 -10 163 -9 261 -2 61 5 89 2 118 -10 25 -10 68 -16 123 -16 52 0 97
-6 120 -15 26 -11 74 -15 180 -15 105 0 153 -4 180 -15 23 -10 69 -15 135 -15
65 0 111 -5 135 -15 22 -9 67 -15 120 -15 52 0 97 -6 120 -15 20 -9 66 -15
109 -15 40 0 76 -4 79 -10 3 -5 41 -10 83 -10 l77 1 28 43 c15 24 27 57 27 72
-1 46 -35 132 -64 163 -14 15 -26 33 -26 39 0 26 -45 99 -92 151 -27 30 -62
80 -79 112 -16 32 -43 69 -60 81 -17 13 -49 54 -71 92 -22 37 -64 92 -94 122
-30 29 -54 62 -54 73 0 12 -21 44 -48 73 -26 29 -82 105 -124 168 -42 63 -88
126 -102 139 -14 14 -26 33 -26 43 0 10 -31 52 -70 94 -38 41 -73 87 -76 102
-4 15 -19 41 -34 57 -15 17 -40 47 -55 68 l-28 38 16 17 17 16 42 -13 c24 -7
64 -16 90 -21 26 -5 56 -13 67 -19 11 -6 38 -11 60 -11 22 0 58 -7 79 -15 l38
-16 230 4 c223 3 247 6 364 43 25 8 55 14 68 14 12 0 67 23 122 50 l100 50 30
48 c16 26 45 59 64 75 24 18 39 41 47 70 6 23 20 54 31 69 l19 28 43 0 c24 0
60 7 79 15 20 8 52 15 72 15 20 0 52 -7 72 -15 25 -10 71 -15 153 -15 82 0
128 5 153 15 20 8 56 15 80 15 33 0 54 8 85 30 52 38 57 72 12 95 l-29 15
-206 0 c-160 0 -214 3 -242 15 -19 8 -55 15 -78 15 -23 0 -59 -7 -78 -15 -20
-8 -52 -15 -72 -15 -20 0 -52 7 -72 15 -19 8 -65 15 -101 15 l-65 0 -43 -44
-44 -43 0 -93 0 -93 -20 -32 c-33 -54 -129 -115 -182 -115 -12 0 -61 -14 -108
-30 l-84 -30 -183 0 c-141 0 -192 4 -220 15 -19 8 -53 15 -75 15 -21 0 -55 7
-75 15 -19 8 -53 15 -75 15 -21 0 -55 7 -75 15 -19 8 -53 15 -75 15 -21 0 -55
7 -75 15 -19 8 -47 15 -62 15 -30 0 -56 16 -122 74 -26 23 -58 49 -72 58 -14
10 -31 36 -38 60 -10 29 -25 50 -49 66 -58 38 -91 73 -97 104 -4 20 -24 43
-67 75 -33 26 -79 66 -102 90 -24 26 -49 43 -63 43 -12 0 -33 11 -47 25 l-25
25 -87 0 -87 0 -38 -33z m268 -244 c63 -62 81 -91 67 -105 -17 -17 -99 28
-127 70 -30 44 -33 82 -7 82 10 0 40 -21 67 -47z"/>
</g>
</svg>
