<?xml version="1.0" standalone="no"?>
<!DOCTYPE svg PUBLIC "-//W3C//DTD SVG 20010904//EN"
 "http://www.w3.org/TR/2001/REC-SVG-20010904/DTD/svg10.dtd">
<svg version="1.0" xmlns="http://www.w3.org/2000/svg"
 width="543.000000pt" height="336.000000pt" viewBox="0 0 543.000000 336.000000"
 preserveAspectRatio="xMidYMid meet">
<metadata>
Created by potrace 1.16, written by Peter Selinger 2001-2019
</metadata>
<g transform="translate(0.000000,336.000000) scale(0.100000,-0.100000)"
fill="#000000" stroke="none">
<path d="M3512 3327 c-7 -18 -12 -55 -12 -82 l0 -48 44 -43 43 -44 49 0 c38 0
59 -7 94 -30 25 -16 52 -30 61 -30 9 0 34 -13 55 -30 21 -16 62 -46 91 -65 55
-38 88 -79 80 -100 -3 -7 -43 -25 -88 -39 -98 -32 -103 -36 -135 -98 l-24 -47
0 -80 0 -79 36 -44 c53 -62 60 -82 41 -111 -16 -24 -83 -52 -162 -68 -52 -10
-119 -27 -175 -45 -25 -8 -75 -14 -111 -14 -37 0 -83 -7 -102 -15 l-36 -15
-369 0 -370 0 -35 -15 c-46 -19 -128 -19 -174 0 -25 11 -72 15 -165 15 -92 0
-139 4 -165 15 -19 8 -60 15 -90 15 -29 0 -70 7 -90 15 -19 8 -53 15 -75 15
-21 0 -55 7 -75 15 -19 8 -53 15 -75 15 -21 0 -55 7 -75 15 -19 8 -65 15 -102
15 -36 0 -86 6 -111 14 -76 24 -132 37 -195 46 -33 4 -78 17 -100 28 -62 31
-161 62 -198 62 -44 0 -131 31 -256 91 -57 27 -133 59 -170 71 -36 12 -79 33
-96 48 -16 15 -50 42 -74 59 l-44 31 -50 0 -51 0 -28 -27 -28 -27 0 -54 0 -54
52 -55 c29 -30 73 -76 98 -101 25 -26 63 -73 84 -105 22 -32 52 -67 67 -78 16
-11 53 -57 82 -102 30 -45 79 -104 108 -132 99 -92 210 -217 234 -264 13 -26
40 -60 59 -75 20 -15 46 -46 57 -69 12 -23 36 -58 54 -77 18 -19 48 -57 66
-85 65 -95 114 -158 157 -200 23 -23 42 -50 42 -59 0 -9 31 -50 70 -92 38 -41
73 -87 77 -102 3 -14 37 -62 76 -107 38 -44 82 -106 98 -137 17 -33 49 -74 79
-100 l50 -43 0 -34 0 -33 49 -48 c27 -26 57 -63 67 -81 9 -19 34 -54 54 -79
21 -25 47 -63 58 -85 11 -22 32 -51 46 -64 14 -14 26 -31 26 -38 0 -28 33 -79
78 -120 l45 -43 54 0 53 0 0 45 c0 67 -57 174 -177 335 -18 24 -33 51 -33 61
0 10 -13 33 -29 51 -38 44 -117 161 -143 212 -11 22 -43 65 -69 94 -27 29 -53
69 -58 88 -6 21 -36 63 -75 105 -45 47 -80 98 -111 158 -29 59 -57 99 -80 116
-20 16 -35 36 -35 48 0 12 -26 46 -64 83 -36 35 -72 78 -82 96 -9 18 -35 53
-58 78 -23 25 -64 79 -91 120 -27 41 -67 96 -91 121 -23 25 -53 63 -66 85 -14
21 -55 66 -90 100 -36 33 -75 79 -87 101 -11 23 -36 53 -55 68 -18 14 -47 51
-64 83 -17 32 -40 66 -52 77 -11 10 -20 27 -20 37 l0 19 43 -26 c24 -14 56
-25 71 -25 15 0 43 -7 63 -15 19 -8 60 -15 90 -15 37 0 72 -8 109 -25 84 -38
170 -65 210 -65 19 0 65 -13 101 -30 l64 -30 85 0 c53 0 98 -6 121 -15 19 -8
53 -15 75 -15 21 0 55 -7 75 -15 20 -8 66 -15 105 -15 38 0 84 -7 105 -15 19
-8 53 -15 75 -15 21 0 55 -7 75 -15 22 -9 67 -15 120 -15 52 0 97 -6 120 -15
50 -21 227 -20 278 1 l38 15 141 -5 c171 -6 136 -7 396 2 118 4 222 11 230 17
8 5 69 13 135 16 111 6 154 13 245 42 19 6 53 14 75 18 125 24 260 68 318 105
28 18 88 51 132 74 83 42 125 79 125 108 0 9 14 37 30 62 16 25 30 58 30 73 0
15 7 44 15 64 23 54 19 95 -14 140 -16 22 -39 60 -52 84 -12 24 -51 75 -86
112 -70 75 -92 115 -71 129 23 14 155 9 199 -8 l40 -17 55 19 55 18 48 -17 49
-17 359 0 360 0 41 30 c54 39 56 69 7 106 l-35 27 -38 -8 c-42 -8 -54 -8 -132
0 -30 3 -174 9 -320 13 -194 5 -271 11 -289 21 -17 9 -38 11 -70 6 -54 -8 -62
-8 -211 3 -63 4 -125 13 -137 20 -12 7 -40 12 -62 12 -22 0 -52 5 -68 12 -15
6 -68 15 -118 19 -115 10 -183 23 -197 37 -7 7 -48 12 -103 12 l-91 0 -12 -33z
m571 -724 c40 -8 53 -37 27 -63 -26 -26 -52 -25 -77 3 -29 32 -34 43 -27 62 5
11 13 15 28 11 11 -4 34 -9 49 -13z"/>
</g>
</svg>
