<?xml version="1.0" standalone="no"?>
<!DOCTYPE svg PUBLIC "-//W3C//DTD SVG 20010904//EN"
 "http://www.w3.org/TR/2001/REC-SVG-20010904/DTD/svg10.dtd">
<svg version="1.0" xmlns="http://www.w3.org/2000/svg"
 width="171.000000pt" height="120.000000pt" viewBox="0 0 171.000000 120.000000"
 preserveAspectRatio="xMidYMid meet">
<metadata>
Created by potrace 1.16, written by Peter Selinger 2001-2019
</metadata>
<g transform="translate(0.000000,120.000000) scale(0.100000,-0.100000)"
fill="#000000" stroke="none">
<path d="M53 1158 l-53 -40 0 -98 0 -97 20 -18 c10 -9 31 -40 46 -69 35 -66
77 -128 137 -196 29 -33 47 -63 45 -74 -2 -11 -23 -34 -48 -51 -25 -17 -49
-44 -55 -59 l-9 -27 51 -103 c39 -78 61 -111 90 -131 21 -15 52 -46 69 -69 17
-22 52 -52 78 -64 26 -13 52 -32 59 -43 l12 -19 72 0 73 0 0 36 0 36 -88 91
c-102 106 -125 138 -116 161 8 21 23 20 54 -4 14 -11 72 -43 130 -71 58 -28
125 -68 150 -88 25 -21 60 -46 79 -55 l33 -18 29 13 c80 32 95 69 59 139 -19
38 -139 130 -170 130 -28 0 -195 116 -251 175 -16 17 -48 50 -72 75 -24 25
-55 53 -70 63 -16 10 -31 33 -37 57 -6 23 -21 47 -37 57 -14 10 -39 30 -54 45
l-29 26 0 54 c0 29 4 59 9 67 l9 14 32 -12 c18 -6 50 -11 72 -11 21 0 55 -7
75 -15 22 -9 67 -15 117 -15 44 0 101 -6 126 -14 77 -24 133 -37 190 -45 30
-4 71 -12 90 -18 67 -21 125 -35 185 -42 34 -5 70 -13 82 -19 13 -7 69 -12
138 -12 80 0 127 -5 152 -15 46 -19 116 -19 153 0 l30 16 0 39 0 39 -30 16
c-16 8 -41 15 -55 15 -14 0 -42 7 -62 15 -19 8 -53 15 -75 15 -21 0 -55 7 -75
15 -23 10 -69 15 -132 15 -55 0 -115 6 -141 14 -76 24 -133 37 -190 45 -30 4
-91 19 -135 33 -138 45 -167 50 -290 57 -66 4 -130 12 -142 19 -12 6 -32 12
-45 12 -25 0 -123 32 -135 43 -3 4 -27 7 -52 6 l-46 0 -52 -41z"/>
</g>
</svg>
