<?xml version="1.0" standalone="no"?>
<!DOCTYPE svg PUBLIC "-//W3C//DTD SVG 20010904//EN"
 "http://www.w3.org/TR/2001/REC-SVG-20010904/DTD/svg10.dtd">
<svg version="1.0" xmlns="http://www.w3.org/2000/svg"
 width="762.000000pt" height="354.000000pt" viewBox="0 0 762.000000 354.000000"
 preserveAspectRatio="xMidYMid meet">
<metadata>
Created by potrace 1.16, written by Peter Selinger 2001-2019
</metadata>
<g transform="translate(0.000000,354.000000) scale(0.100000,-0.100000)"
fill="#000000" stroke="none">
<path d="M3395 3530 c-3 -5 -20 -10 -38 -10 -34 0 -160 -78 -177 -110 -39 -72
24 -221 140 -335 39 -38 87 -92 107 -118 27 -37 54 -57 113 -87 49 -25 106
-65 154 -110 45 -42 84 -70 97 -70 13 0 39 -18 63 -44 47 -50 122 -106 143
-106 31 0 102 -42 161 -94 35 -31 71 -56 82 -56 10 0 38 -16 62 -35 44 -35
189 -115 209 -115 18 0 81 -32 123 -62 21 -15 52 -28 68 -28 17 0 59 -13 95
-30 35 -17 70 -30 76 -30 7 0 32 -14 57 -30 25 -16 51 -30 58 -30 7 0 43 -18
80 -40 36 -22 84 -45 106 -51 52 -14 163 -124 201 -199 15 -30 40 -73 56 -95
39 -56 109 -267 109 -331 0 -28 7 -68 15 -87 8 -20 15 -54 15 -75 0 -22 7 -56
15 -75 10 -25 15 -71 15 -144 l0 -108 -35 -103 c-56 -165 -143 -279 -255 -337
-25 -13 -56 -35 -69 -49 -16 -17 -35 -26 -55 -26 -17 0 -48 -11 -67 -24 -41
-28 -142 -66 -175 -66 -12 0 -38 -7 -57 -15 -20 -8 -61 -15 -90 -15 -30 0 -71
-7 -90 -15 -50 -21 -352 -21 -417 -1 -78 25 -133 37 -195 45 -34 5 -70 13 -82
19 -12 7 -41 12 -65 12 -31 0 -55 8 -88 30 -33 22 -57 30 -88 30 -47 0 -111
25 -119 46 -6 16 12 51 47 89 40 45 53 100 35 157 -18 63 -41 105 -85 158 -20
25 -48 65 -61 89 -13 24 -31 47 -39 51 -69 32 -89 46 -113 81 -20 28 -50 50
-100 75 -40 20 -92 53 -117 73 -59 50 -85 62 -213 105 l-107 36 -88 0 -87 0
-90 -60 c-49 -33 -93 -60 -98 -60 -5 0 -38 13 -74 30 -35 16 -69 30 -75 30
-16 0 -104 56 -158 100 -69 57 -122 80 -180 80 l-52 0 -29 -29 -29 -29 0 -112
0 -111 -25 -24 c-14 -15 -36 -25 -53 -25 -16 0 -46 -7 -65 -15 -28 -12 -81
-15 -237 -15 -156 0 -209 3 -237 15 -25 11 -72 15 -165 15 -92 0 -139 4 -165
15 -19 8 -46 15 -60 15 -13 0 -49 12 -80 26 -53 24 -122 47 -223 74 -25 6 -79
16 -120 20 -98 11 -180 40 -245 86 -69 50 -112 64 -190 64 l-75 0 0 -39 0 -39
34 -26 c19 -14 67 -42 107 -62 40 -20 91 -50 113 -65 21 -16 45 -29 53 -29 8
0 44 -13 80 -30 47 -22 79 -30 119 -30 30 0 71 -7 91 -15 19 -8 47 -15 60 -15
14 0 54 -14 90 -30 35 -17 75 -30 89 -30 14 0 41 -7 61 -15 19 -8 53 -15 75
-15 21 0 55 -7 75 -15 l35 -15 404 0 404 0 99 50 c76 38 106 59 128 89 15 22
42 48 59 57 l30 17 65 -30 c35 -17 100 -55 144 -85 45 -31 103 -67 130 -81 59
-30 87 -55 119 -105 13 -21 43 -50 67 -65 24 -16 57 -46 72 -68 16 -22 47 -49
70 -60 23 -12 62 -38 86 -57 69 -56 154 -112 171 -112 9 0 53 -25 98 -55 89
-59 154 -95 172 -95 19 0 139 -58 173 -84 43 -33 146 -66 204 -66 29 0 96 -17
180 -45 88 -30 149 -45 183 -45 28 0 67 -7 87 -15 19 -8 55 -15 79 -15 23 0
46 -5 49 -10 4 -6 78 -10 190 -10 112 0 186 4 190 10 3 5 25 10 48 10 23 0 80
14 127 30 46 17 99 30 117 30 39 0 226 61 298 97 27 14 67 41 87 59 20 18 55
42 77 54 24 12 53 39 71 68 17 26 49 60 71 75 37 27 79 90 79 119 0 7 11 30
25 50 22 33 41 84 75 208 21 75 24 196 6 241 -9 22 -16 64 -16 93 0 29 -7 70
-15 89 -8 20 -15 53 -15 74 0 21 -14 76 -30 123 -17 46 -30 94 -30 106 0 12
-13 51 -30 86 -16 34 -30 76 -30 91 l0 28 38 -7 c20 -3 79 -26 131 -50 56 -27
107 -44 130 -44 36 0 211 -55 287 -90 85 -39 164 -60 226 -60 41 0 93 -10 153
-29 182 -59 242 -69 276 -49 16 8 77 15 174 19 83 3 170 12 195 19 194 54 241
76 275 130 14 22 39 52 55 67 l30 26 0 53 0 54 -52 26 -51 26 -33 -16 c-25
-11 -36 -25 -44 -56 -14 -51 -76 -115 -121 -125 -18 -4 -62 -21 -97 -37 l-64
-30 -97 6 c-129 9 -156 9 -227 1 l-62 -7 -93 30 c-136 44 -175 53 -259 62 -41
4 -93 17 -115 28 -68 34 -344 122 -383 122 -26 0 -83 22 -190 75 -84 41 -165
75 -180 75 -45 0 -95 43 -157 137 -32 48 -77 108 -100 133 -23 25 -50 59 -60
75 -10 17 -44 57 -75 90 -31 33 -68 78 -82 100 -14 22 -40 54 -58 70 -18 17
-52 55 -76 86 -29 39 -52 58 -72 62 -31 6 -66 39 -104 97 -16 24 -37 39 -66
49 -27 8 -71 39 -117 80 -85 76 -147 124 -260 199 -44 30 -99 71 -123 91 -43
36 -101 74 -196 128 -26 15 -73 45 -105 65 -31 21 -67 38 -81 38 -26 0 -189
52 -222 70 -23 13 -195 13 -203 0z m263 -180 c68 -33 135 -60 149 -60 15 0 45
-17 76 -45 28 -25 82 -61 120 -81 38 -20 99 -65 136 -100 39 -36 84 -69 107
-76 27 -9 47 -26 67 -56 16 -23 46 -51 68 -62 21 -11 65 -46 96 -78 61 -60
179 -157 250 -205 62 -43 152 -142 215 -237 31 -47 70 -97 88 -112 36 -31 33
-52 -5 -38 -13 5 -58 25 -100 45 -90 42 -186 75 -217 75 -13 0 -41 12 -62 26
-21 14 -86 50 -144 79 -59 30 -129 72 -156 94 -34 29 -57 41 -80 41 -36 0 -63
16 -121 71 -22 21 -77 56 -121 78 -45 22 -106 63 -137 91 -30 27 -72 55 -92
62 -26 9 -49 27 -69 55 -18 25 -67 66 -116 99 -95 62 -157 119 -198 179 -14
22 -41 58 -59 81 -18 23 -33 48 -33 56 0 36 85 77 160 78 l55 0 123 -60z
m-691 -2280 c35 -16 77 -30 92 -30 16 0 45 -13 67 -30 21 -16 77 -55 123 -86
46 -32 98 -70 116 -86 38 -33 140 -182 156 -227 l11 -31 -16 -25 c-20 -30 -39
-31 -76 -5 -15 11 -74 43 -131 71 -57 28 -124 68 -149 89 -25 21 -70 50 -99
65 -29 15 -62 41 -74 58 -12 16 -46 44 -74 63 l-53 34 0 46 c0 26 -8 59 -17
75 l-18 30 15 9 c26 16 59 11 127 -20z"/>
</g>
</svg>
