<?xml version="1.0" standalone="no"?>
<!DOCTYPE svg PUBLIC "-//W3C//DTD SVG 20010904//EN"
 "http://www.w3.org/TR/2001/REC-SVG-20010904/DTD/svg10.dtd">
<svg version="1.0" xmlns="http://www.w3.org/2000/svg"
 width="417.000000pt" height="240.000000pt" viewBox="0 0 417.000000 240.000000"
 preserveAspectRatio="xMidYMid meet">
<metadata>
Created by potrace 1.16, written by Peter Selinger 2001-2019
</metadata>
<g transform="translate(0.000000,240.000000) scale(0.100000,-0.100000)"
fill="#000000" stroke="none">
<path d="M861 2364 c-73 -45 -99 -71 -127 -126 -17 -34 -24 -64 -24 -107 l0
-60 61 -123 c38 -79 58 -130 53 -141 -10 -26 -50 -31 -97 -13 -24 9 -60 16
-80 16 -21 0 -54 7 -74 15 -20 8 -66 15 -105 15 -38 0 -84 7 -105 15 -19 8
-53 15 -75 15 -21 0 -55 7 -75 15 -22 10 -68 15 -124 15 l-89 0 0 -38 0 -38
56 -47 56 -47 44 0 c25 0 61 -7 81 -15 22 -9 67 -15 117 -15 44 0 101 -6 126
-14 78 -25 133 -37 195 -45 34 -5 70 -13 82 -19 12 -7 40 -12 63 -12 22 0 57
-7 77 -15 19 -8 47 -15 60 -15 55 0 145 -57 189 -121 15 -22 55 -60 90 -86 34
-25 71 -58 82 -73 11 -15 45 -41 74 -58 30 -16 66 -46 81 -66 18 -23 41 -39
67 -46 26 -7 49 -23 66 -46 15 -19 48 -47 73 -60 76 -41 178 -107 206 -134 14
-13 45 -36 70 -50 132 -76 185 -113 209 -145 19 -25 40 -38 71 -46 26 -7 63
-27 87 -49 24 -20 88 -61 143 -89 55 -29 125 -68 155 -87 30 -19 71 -39 91
-44 48 -13 194 -85 233 -115 17 -13 74 -38 126 -55 52 -16 114 -44 137 -61 24
-16 64 -36 90 -44 27 -8 70 -30 97 -50 32 -23 61 -35 82 -35 18 0 36 -4 39
-10 4 -6 88 -10 220 -10 132 0 216 4 220 10 3 6 13 10 22 10 27 0 163 130 170
162 3 15 10 31 14 34 5 3 9 27 9 53 l0 47 -27 26 c-42 39 -70 50 -92 39 -34
-19 -71 -71 -71 -102 0 -35 -24 -95 -48 -122 -33 -37 -97 -57 -178 -57 l-76 0
-123 41 c-73 24 -141 54 -170 75 -27 19 -55 34 -63 34 -21 0 -139 57 -175 84
-18 14 -73 38 -122 54 -101 32 -158 60 -218 103 -22 16 -47 29 -56 29 -9 0
-57 27 -106 60 -50 33 -96 60 -104 60 -8 0 -35 13 -60 29 -25 16 -57 31 -71
34 -14 4 -43 22 -65 40 -22 19 -62 46 -90 60 -27 14 -86 56 -130 94 -44 38
-109 85 -144 103 -57 30 -101 73 -89 85 2 3 33 19 69 37 l64 33 27 50 c18 32
28 65 28 93 0 54 -31 147 -79 237 -21 39 -45 84 -53 100 -9 17 -25 50 -35 75
-10 25 -39 69 -65 97 -26 29 -59 70 -72 91 -25 39 -80 92 -97 92 -5 0 -55 44
-111 99 -57 54 -125 110 -153 124 -27 14 -72 44 -99 66 -26 23 -56 41 -65 41
-10 0 -43 18 -75 40 l-57 40 -102 -1 -102 -1 -54 -34z m274 -154 c16 -16 35
-30 42 -30 30 0 103 -42 154 -87 30 -27 73 -61 96 -77 72 -48 230 -219 242
-260 5 -21 21 -53 35 -71 14 -19 26 -37 26 -42 0 -5 13 -24 28 -43 16 -19 47
-74 70 -121 40 -83 52 -129 33 -129 -16 0 -76 83 -115 160 -21 41 -44 78 -50
82 -6 4 -37 8 -69 8 -32 0 -74 7 -94 15 -19 8 -53 15 -75 15 -21 0 -55 7 -75
15 -19 8 -45 15 -57 15 -54 0 -245 91 -246 117 0 7 -20 35 -45 63 -62 69 -112
150 -136 219 l-20 59 17 41 c26 65 54 81 138 81 l72 0 29 -30z m375 -769 c57
-20 60 -23 81 -80 8 -20 31 -47 60 -67 43 -32 59 -51 59 -75 0 -20 -31 -7 -81
36 -29 25 -58 45 -63 45 -14 0 -73 53 -126 113 l-43 47 30 0 c16 0 53 -9 83
-19z"/>
<path d="M547 922 c-25 -27 -21 -60 12 -93 l29 -29 62 0 c33 0 77 -7 97 -15
19 -8 59 -15 89 -15 29 0 65 -5 81 -12 15 -7 80 -15 143 -19 148 -9 304 -27
355 -41 22 -6 77 -13 123 -15 90 -5 103 0 128 49 20 38 6 62 -56 93 l-49 25
-86 0 c-54 0 -99 6 -122 15 -20 8 -66 15 -105 15 -38 0 -84 7 -105 15 -26 11
-76 15 -195 15 -118 0 -168 4 -195 15 -21 9 -67 15 -113 15 l-77 0 -16 -18z"/>
</g>
</svg>
