<?xml version="1.0" standalone="no"?>
<!DOCTYPE svg PUBLIC "-//W3C//DTD SVG 20010904//EN"
 "http://www.w3.org/TR/2001/REC-SVG-20010904/DTD/svg10.dtd">
<svg version="1.0" xmlns="http://www.w3.org/2000/svg"
 width="255.000000pt" height="282.000000pt" viewBox="0 0 255.000000 282.000000"
 preserveAspectRatio="xMidYMid meet">
<metadata>
Created by potrace 1.16, written by Peter Selinger 2001-2019
</metadata>
<g transform="translate(0.000000,282.000000) scale(0.100000,-0.100000)"
fill="#000000" stroke="none">
<path d="M121 2797 c-6 -12 -28 -33 -47 -46 -19 -14 -44 -42 -55 -65 l-19 -40
0 -156 0 -157 17 -34 c9 -19 31 -52 50 -73 18 -22 35 -54 39 -71 8 -43 107
-187 213 -308 29 -34 66 -88 82 -119 20 -40 42 -66 69 -83 22 -14 47 -37 56
-52 10 -16 61 -73 115 -128 96 -99 168 -194 214 -284 30 -60 299 -322 395
-386 40 -27 82 -64 95 -85 13 -21 61 -69 106 -106 45 -38 103 -87 128 -109 25
-23 60 -49 76 -60 17 -10 57 -44 90 -75 33 -31 81 -68 106 -83 25 -14 58 -42
73 -61 15 -20 39 -39 54 -42 15 -4 53 -32 84 -62 44 -43 71 -60 121 -76 36
-12 69 -25 73 -29 4 -4 48 -7 99 -7 l91 0 39 40 c21 22 45 40 52 40 16 0 19
145 3 155 -5 3 -10 17 -10 31 0 38 -15 59 -62 87 -24 14 -54 37 -67 51 -19 20
-34 26 -68 26 -24 0 -60 7 -80 15 -21 9 -67 15 -113 15 l-77 0 -44 -35 c-24
-19 -48 -35 -54 -35 -5 0 -30 16 -54 35 -24 19 -53 35 -63 35 -19 0 -52 30
-96 89 -13 17 -46 46 -74 64 -27 19 -107 90 -177 158 -69 69 -145 138 -169
154 -24 16 -55 47 -70 69 -15 22 -68 83 -118 135 -50 53 -103 115 -117 138
-14 23 -47 58 -72 79 -25 21 -45 45 -45 54 0 21 -55 98 -108 152 -90 91 -148
156 -177 199 -16 24 -48 64 -70 89 -61 68 -249 356 -295 452 l-41 85 -10 94
-9 94 52 47 53 47 113 1 c78 0 124 -5 149 -15 20 -9 66 -15 107 -15 l71 0 63
-30 c35 -17 75 -30 88 -30 14 0 41 -7 61 -15 28 -12 85 -15 278 -15 l242 0 16
18 c44 48 7 92 -77 92 -31 0 -73 7 -93 15 -19 8 -60 15 -90 15 -29 0 -70 7
-90 15 -23 10 -69 15 -135 15 -65 0 -111 5 -135 15 -19 8 -60 15 -90 15 -29 0
-70 7 -90 15 -22 9 -67 15 -120 15 -52 0 -97 6 -120 15 -19 8 -55 15 -79 15
-23 0 -46 5 -49 10 -3 6 -48 10 -99 10 l-93 0 -12 -23z m2180 -2543 c74 -46
86 -59 69 -79 -17 -21 -65 -19 -135 6 -122 42 -141 108 -32 109 28 0 56 -11
98 -36z"/>
</g>
</svg>
