<?xml version="1.0" standalone="no"?>
<!DOCTYPE svg PUBLIC "-//W3C//DTD SVG 20010904//EN"
 "http://www.w3.org/TR/2001/REC-SVG-20010904/DTD/svg10.dtd">
<svg version="1.0" xmlns="http://www.w3.org/2000/svg"
 width="615.000000pt" height="234.000000pt" viewBox="0 0 615.000000 234.000000"
 preserveAspectRatio="xMidYMid meet">
<metadata>
Created by potrace 1.16, written by Peter Selinger 2001-2019
</metadata>
<g transform="translate(0.000000,234.000000) scale(0.100000,-0.100000)"
fill="#000000" stroke="none">
<path d="M65 2275 l-65 -65 0 -49 0 -49 53 -56 53 -56 47 0 c26 0 64 -7 84
-15 19 -8 53 -15 75 -15 21 0 55 -7 75 -15 22 -9 67 -15 120 -15 52 0 97 -6
120 -15 20 -9 66 -15 108 -15 l72 0 43 -32 c24 -18 60 -44 79 -58 l36 -26 37
-109 c53 -154 50 -222 -12 -273 -21 -18 -127 -70 -164 -81 -17 -5 -53 -18 -81
-28 l-50 -19 0 -24 0 -24 55 -20 55 -19 43 12 c23 6 51 11 62 11 44 0 118 51
207 143 l93 94 0 94 0 94 -30 84 c-22 63 -27 88 -19 102 l10 19 145 0 c106 0
154 -4 181 -15 28 -12 84 -15 270 -15 185 0 241 -3 270 -15 l35 -15 267 0 266
0 45 -30 45 -30 193 0 c149 0 201 -3 229 -15 23 -10 69 -15 130 -15 71 0 113
-6 166 -22 l72 -23 46 -48 c26 -26 60 -52 77 -56 16 -5 79 -42 140 -82 80 -53
118 -85 138 -116 30 -47 127 -120 181 -135 19 -5 44 -24 59 -44 28 -36 89 -74
120 -74 9 0 35 -19 56 -42 21 -23 59 -54 83 -68 114 -66 182 -110 200 -130 11
-12 46 -35 78 -51 32 -16 74 -45 95 -63 20 -18 82 -56 137 -84 114 -59 120
-63 160 -115 15 -21 45 -47 66 -57 20 -11 72 -44 116 -73 43 -30 99 -65 123
-77 47 -24 147 -97 169 -124 7 -9 21 -16 30 -16 9 0 39 -23 66 -51 28 -28 71
-65 97 -81 26 -16 50 -38 53 -49 l6 -19 84 0 83 0 49 49 c26 28 72 74 101 104
l52 55 0 130 c0 77 -4 133 -10 137 -5 3 -10 26 -10 50 0 27 -11 66 -30 107
-16 34 -30 70 -30 79 0 9 -13 34 -29 56 -16 22 -39 60 -51 84 -13 24 -48 71
-80 104 -31 33 -68 78 -82 100 -14 22 -68 79 -119 128 -131 121 -150 141 -183
182 -16 20 -46 45 -66 55 -20 10 -64 42 -96 69 -32 28 -88 66 -124 85 -36 19
-92 57 -125 85 -100 83 -249 181 -275 181 -14 0 -45 6 -70 14 -106 33 -141 39
-250 43 l-115 3 -50 -27 c-37 -21 -57 -41 -77 -78 -32 -58 -34 -91 -10 -160
24 -68 27 -72 80 -99 26 -14 69 -43 96 -65 l48 -41 44 0 c24 0 62 -7 85 -17
l41 -16 47 16 c26 10 76 17 114 17 l69 0 45 40 c49 43 101 59 138 42 12 -6 56
-39 96 -75 41 -35 86 -67 101 -70 15 -4 35 -19 45 -34 10 -14 38 -45 62 -69
24 -23 57 -55 73 -72 102 -101 126 -125 153 -151 17 -15 50 -56 75 -90 25 -34
69 -90 99 -124 29 -34 66 -87 82 -117 15 -30 37 -68 48 -85 12 -16 21 -42 21
-56 0 -15 7 -43 15 -62 18 -43 21 -237 5 -268 l-11 -19 -55 0 -55 0 -77 46
c-42 26 -90 59 -107 74 -16 15 -44 31 -62 35 -17 3 -51 23 -75 44 -24 21 -72
53 -108 71 -65 33 -119 70 -175 121 -16 15 -44 30 -61 33 -17 4 -60 31 -95 61
-35 30 -91 69 -124 86 -62 33 -118 73 -170 120 -16 15 -44 30 -61 33 -17 4
-60 31 -95 61 -35 30 -91 69 -124 86 -33 17 -80 48 -105 68 -42 34 -98 72
-197 134 -25 16 -43 35 -45 49 -2 12 -17 31 -35 43 -17 11 -64 40 -104 65 -40
25 -107 75 -148 112 -42 37 -93 82 -113 100 -55 48 -56 62 -13 100 20 18 46
50 57 71 l19 39 -10 30 c-6 17 -11 44 -11 60 0 22 -16 44 -67 97 -38 38 -88
79 -113 91 -25 12 -66 40 -92 61 -25 21 -78 54 -116 74 l-70 35 -62 0 c-41 0
-73 -6 -100 -20 -45 -23 -49 -28 -72 -95 -25 -72 -22 -147 8 -230 14 -38 26
-77 27 -85 l2 -15 -212 -3 -213 -2 -36 15 c-23 9 -68 15 -121 15 -52 0 -97 6
-120 15 l-35 15 -295 0 -294 0 -36 15 c-24 10 -71 15 -150 15 -78 0 -125 5
-150 15 -20 8 -66 15 -105 15 -38 0 -84 7 -105 15 -22 9 -67 15 -120 15 -102
0 -147 18 -224 88 -30 27 -76 61 -104 76 -27 15 -73 42 -102 60 -63 40 -169
76 -223 76 -21 0 -42 5 -45 10 -4 6 -68 10 -161 10 l-154 0 -65 -65z m382
-110 c19 -8 46 -15 59 -15 13 0 38 -6 56 -14 18 -7 47 -18 63 -23 17 -4 30
-15 30 -23 l0 -15 -100 4 c-55 1 -115 9 -134 17 -18 8 -53 14 -77 14 l-44 0
-16 26 -17 26 14 9 c22 14 126 10 166 -6z m2969 -66 c46 -28 164 -158 164
-180 0 -29 -39 -49 -97 -49 l-52 0 -76 75 -75 76 0 30 c0 17 5 39 10 50 15 26
82 26 126 -2z m1201 -354 c19 -8 45 -15 57 -15 29 0 147 -41 177 -62 l24 -16
-11 -19 c-23 -39 -93 -63 -183 -63 l-84 0 -65 31 c-92 45 -128 110 -80 143 29
20 117 21 165 1z"/>
</g>
</svg>
