<?xml version="1.0" standalone="no"?>
<!DOCTYPE svg PUBLIC "-//W3C//DTD SVG 20010904//EN"
 "http://www.w3.org/TR/2001/REC-SVG-20010904/DTD/svg10.dtd">
<svg version="1.0" xmlns="http://www.w3.org/2000/svg"
 width="747.000000pt" height="213.000000pt" viewBox="0 0 747.000000 213.000000"
 preserveAspectRatio="xMidYMid meet">
<metadata>
Created by potrace 1.16, written by Peter Selinger 2001-2019
</metadata>
<g transform="translate(0.000000,213.000000) scale(0.100000,-0.100000)"
fill="#000000" stroke="none">
<path d="M5760 2121 c-8 -4 -28 -14 -45 -22 -37 -18 -84 -101 -85 -147 0 -18
9 -52 21 -75 27 -54 122 -152 174 -180 37 -20 146 -38 235 -39 99 -2 201 39
246 97 l26 35 44 0 43 0 21 -30 c12 -16 67 -60 123 -97 56 -37 123 -90 149
-116 25 -27 59 -52 75 -56 20 -5 38 -23 62 -65 23 -38 51 -68 82 -89 26 -17
60 -51 75 -75 16 -24 43 -55 60 -69 18 -13 48 -55 68 -92 41 -79 117 -297 109
-316 -8 -22 -32 -26 -70 -10 -45 19 -81 19 -126 0 -20 -8 -51 -15 -68 -15
l-32 0 -88 -89 -89 -90 0 -51 c0 -28 4 -60 10 -70 10 -18 89 -75 171 -123 26
-14 49 -34 53 -43 17 -44 -131 -104 -260 -104 -50 0 -96 -6 -117 -15 l-36 -15
-455 0 c-275 0 -465 4 -481 10 -17 7 -39 6 -69 -2 l-44 -12 -44 17 c-28 11
-73 17 -124 17 -63 0 -98 6 -164 30 -47 16 -101 30 -120 30 -19 0 -55 6 -80
14 -94 30 -138 38 -225 45 -49 4 -100 12 -112 19 -12 7 -47 12 -78 12 -30 0
-72 7 -92 15 -19 8 -45 15 -56 15 -12 0 -81 20 -154 45 -73 25 -143 45 -155
45 -13 0 -40 11 -60 25 -20 14 -70 41 -110 61 -40 20 -87 47 -105 60 -46 35
-74 31 -117 -16 -59 -66 -45 -110 52 -160 31 -16 79 -47 106 -69 26 -23 56
-41 67 -41 26 0 67 -40 75 -72 l6 -28 -56 0 c-31 0 -73 7 -93 15 -19 8 -45 15
-56 15 -26 0 -307 94 -375 125 -30 14 -71 25 -95 25 -28 0 -54 8 -78 24 -47
32 -148 66 -196 66 -21 0 -66 13 -101 30 -35 17 -69 30 -76 30 -6 0 -28 11
-47 24 -38 26 -145 66 -177 66 -10 0 -56 13 -102 30 -47 16 -96 30 -110 30
-14 0 -54 14 -88 30 -37 18 -80 30 -103 30 -22 0 -56 7 -76 15 -19 8 -65 15
-102 15 -36 0 -86 6 -111 14 -102 32 -139 39 -230 43 l-95 4 -30 29 -30 29
-195 5 c-253 7 -235 7 -450 -2 -106 -4 -197 -13 -213 -20 -16 -6 -46 -12 -68
-12 -22 0 -58 -9 -80 -21 -65 -33 -181 -69 -222 -69 -54 0 -206 -80 -266 -140
-25 -25 -61 -74 -79 -108 -18 -34 -37 -64 -42 -67 -6 -4 -10 -71 -10 -155 l0
-148 33 -21 c18 -11 43 -31 56 -45 29 -31 61 -33 86 -6 l18 20 -8 47 c-8 59
-8 77 2 179 l8 81 30 38 c17 21 43 56 59 79 39 55 48 61 144 92 45 14 111 44
147 65 l64 39 99 0 c66 0 112 5 135 15 l36 15 336 0 336 0 36 -15 c19 -8 53
-15 75 -15 21 0 55 -7 75 -15 19 -8 53 -15 75 -15 21 0 55 -7 75 -15 19 -8 53
-15 75 -15 21 0 55 -7 75 -15 19 -8 45 -15 57 -15 12 0 60 -13 106 -30 50 -17
106 -30 135 -30 52 0 248 -61 324 -99 22 -12 53 -21 68 -21 15 0 57 -14 91
-30 35 -17 69 -30 76 -30 7 0 54 -20 105 -45 51 -25 102 -45 114 -45 25 0 152
-42 194 -64 39 -19 330 -116 351 -116 29 0 133 -40 171 -66 28 -19 49 -24 94
-24 32 0 74 -7 94 -15 53 -22 116 -19 173 10 57 29 80 58 80 100 0 17 8 46 19
65 14 27 24 34 42 32 13 -1 60 -6 104 -11 54 -5 97 -16 132 -34 l52 -27 71 0
c40 0 86 -6 107 -15 22 -9 67 -15 120 -15 52 0 97 -6 120 -15 19 -8 61 -15 92
-15 l57 0 29 -30 29 -30 73 0 c43 0 89 -6 110 -15 28 -12 86 -15 289 -15 158
0 255 -4 259 -10 8 -13 252 -13 260 0 8 13 182 13 190 0 8 -13 252 -13 260 0
3 6 32 10 64 10 32 0 75 7 94 15 20 8 48 15 62 15 29 0 205 85 274 132 107 75
116 88 177 268 31 93 47 127 63 134 l21 9 0 88 c0 48 -4 91 -10 94 -5 3 -10
26 -10 50 0 31 -13 70 -45 136 -25 51 -45 99 -45 106 0 31 -70 151 -103 176
-22 17 -40 42 -48 69 -11 33 -25 50 -65 77 -28 19 -66 57 -85 85 -24 35 -46
55 -68 62 -20 6 -59 38 -96 78 -42 46 -74 70 -98 77 -20 5 -60 32 -89 58 -30
27 -91 68 -136 91 -52 27 -93 56 -109 77 -25 32 -88 73 -113 73 -7 0 -41 14
-77 30 -35 17 -69 30 -75 30 -5 0 -39 14 -75 30 -40 19 -81 30 -108 30 -24 0
-47 5 -50 10 -7 12 -183 13 -205 1z m366 -201 c94 -43 64 -80 -63 -80 -118 0
-216 46 -183 85 20 24 189 21 246 -5z m1002 -1346 c49 -34 10 -84 -65 -84
l-43 0 -12 25 c-8 19 -8 31 0 50 l12 25 43 0 c23 0 53 -7 65 -16z"/>
</g>
</svg>
