<?xml version="1.0" standalone="no"?>
<!DOCTYPE svg PUBLIC "-//W3C//DTD SVG 20010904//EN"
 "http://www.w3.org/TR/2001/REC-SVG-20010904/DTD/svg10.dtd">
<svg version="1.0" xmlns="http://www.w3.org/2000/svg"
 width="579.000000pt" height="99.000000pt" viewBox="0 0 579.000000 99.000000"
 preserveAspectRatio="xMidYMid meet">
<metadata>
Created by potrace 1.16, written by Peter Selinger 2001-2019
</metadata>
<g transform="translate(0.000000,99.000000) scale(0.100000,-0.100000)"
fill="#000000" stroke="none">
<path d="M3700 965 c-19 -14 -38 -25 -42 -25 -24 0 -90 -55 -108 -90 l-20 -39
0 -163 0 -164 -22 -44 c-17 -33 -40 -56 -88 -87 -36 -24 -70 -43 -77 -43 -7 0
-47 -17 -90 -38 -127 -61 -199 -82 -290 -82 -49 0 -95 -6 -116 -15 l-36 -15
-516 0 -516 0 -36 15 c-23 10 -69 15 -135 15 -65 0 -111 5 -135 15 -19 8 -53
15 -75 15 -21 0 -55 7 -75 15 -19 8 -52 15 -72 15 -20 0 -56 6 -81 14 -60 19
-125 35 -182 46 -26 5 -56 13 -67 19 -11 6 -46 11 -78 11 l-59 0 -131 65 c-73
35 -139 75 -147 87 -9 12 -16 43 -16 68 0 33 -8 57 -30 90 -16 25 -30 53 -30
62 0 27 -59 87 -111 114 l-48 24 -83 0 -82 0 -53 -56 -53 -56 0 -48 0 -48 74
-79 74 -78 83 -39 c88 -40 97 -44 224 -113 44 -23 87 -43 95 -43 8 0 57 -20
108 -45 52 -25 104 -45 115 -45 12 0 42 -6 67 -14 94 -30 138 -38 225 -45 50
-4 100 -12 112 -19 12 -7 40 -12 63 -12 22 0 57 -7 77 -15 19 -8 53 -15 75
-15 21 0 55 -7 75 -15 22 -9 67 -15 117 -15 74 0 171 -22 193 -43 11 -12 791
-8 798 3 8 13 92 13 100 0 8 -13 128 -13 141 -1 5 5 38 11 74 14 78 5 98 11
355 94 237 77 267 91 299 142 14 21 39 49 56 61 17 12 45 50 63 83 l32 62 5
150 5 150 22 31 c13 17 40 40 60 50 l38 18 230 -3 c170 -2 238 -6 264 -17 18
-8 50 -14 70 -14 20 0 56 -6 81 -14 78 -25 133 -37 195 -45 34 -5 70 -13 82
-19 12 -7 39 -12 60 -12 21 0 83 -15 137 -34 111 -38 134 -58 143 -129 9 -64
36 -109 103 -170 57 -51 163 -117 190 -117 6 0 41 -13 77 -30 35 -16 75 -30
89 -30 14 0 41 -7 61 -15 55 -23 94 -19 141 16 l42 31 0 83 0 83 -42 31 c-23
17 -49 31 -58 31 -9 0 -27 12 -41 26 -13 14 -41 35 -63 46 -21 11 -57 33 -79
49 -24 17 -53 29 -71 29 -17 0 -44 9 -61 21 -43 29 -182 99 -197 99 -7 0 -42
14 -76 30 -35 17 -76 30 -90 30 -15 0 -47 14 -72 30 -31 21 -57 30 -85 30 -23
0 -79 13 -125 30 -68 24 -102 30 -168 30 -50 0 -97 6 -119 15 -19 8 -62 15
-94 15 -32 0 -61 5 -64 10 -4 6 -107 10 -278 10 l-272 -1 -35 -24z m1775 -515
c3 -5 -1 -10 -9 -10 -9 0 -16 5 -16 10 0 6 4 10 9 10 6 0 13 -4 16 -10z"/>
</g>
</svg>
