<?xml version="1.0" standalone="no"?>
<!DOCTYPE svg PUBLIC "-//W3C//DTD SVG 20010904//EN"
 "http://www.w3.org/TR/2001/REC-SVG-20010904/DTD/svg10.dtd">
<svg version="1.0" xmlns="http://www.w3.org/2000/svg"
 width="639.000000pt" height="318.000000pt" viewBox="0 0 639.000000 318.000000"
 preserveAspectRatio="xMidYMid meet">
<metadata>
Created by potrace 1.16, written by Peter Selinger 2001-2019
</metadata>
<g transform="translate(0.000000,318.000000) scale(0.100000,-0.100000)"
fill="#000000" stroke="none">
<path d="M4206 3171 c-3 -5 -39 -12 -78 -16 l-73 -7 -52 -53 -53 -52 0 -38 c0
-25 10 -54 29 -84 16 -25 31 -58 35 -72 5 -25 70 -91 171 -176 l49 -42 -14
-26 c-22 -42 -76 -75 -138 -86 -113 -21 -191 -39 -272 -65 -25 -8 -61 -14 -81
-14 -20 0 -53 -7 -72 -15 -21 -8 -67 -15 -105 -15 -39 0 -85 -7 -105 -15 -27
-11 -75 -15 -177 -15 -102 0 -150 4 -177 15 l-35 15 -385 0 -384 0 -36 15
c-20 8 -66 15 -105 15 -38 0 -84 7 -105 15 -19 8 -60 15 -90 15 -29 0 -70 7
-90 15 -20 8 -66 15 -105 15 -38 0 -84 7 -105 15 -19 8 -53 15 -75 15 -21 0
-55 7 -75 15 -19 8 -47 15 -62 15 -31 0 -58 17 -123 77 -26 24 -56 43 -66 43
-10 0 -33 18 -51 40 -23 29 -44 43 -76 51 -26 7 -63 27 -87 49 -24 20 -58 45
-77 55 -19 9 -52 30 -74 46 -22 16 -48 29 -57 29 -18 0 -87 46 -132 88 -15 13
-71 40 -125 58 -77 26 -115 33 -176 34 l-79 0 -29 -29 -29 -29 0 -72 0 -72 78
-80 c70 -73 150 -128 185 -128 7 0 26 -13 42 -30 16 -16 36 -30 44 -30 9 0 36
-14 61 -30 25 -16 58 -30 73 -30 16 0 58 -13 94 -30 35 -16 69 -30 75 -30 5 0
39 -13 75 -30 35 -16 81 -30 100 -30 74 0 162 -40 232 -105 36 -33 82 -71 102
-84 20 -13 46 -40 59 -59 13 -18 48 -49 77 -68 l53 -34 0 -35 0 -34 55 -42
c30 -22 68 -62 85 -87 16 -26 49 -61 72 -78 29 -20 47 -43 56 -69 7 -22 23
-53 36 -70 13 -16 35 -53 49 -82 15 -28 42 -63 61 -78 18 -14 36 -38 39 -53 3
-15 22 -52 41 -82 65 -103 89 -155 138 -305 l49 -150 -12 -42 -11 -42 16 -42
c13 -31 14 -49 7 -73 -5 -17 -12 -58 -16 -91 -4 -33 -25 -116 -48 -184 -54
-164 -85 -203 -270 -339 -24 -17 -54 -32 -66 -32 -34 0 -81 -28 -81 -49 0 -25
62 -71 95 -71 15 0 39 8 53 19 15 10 43 23 63 29 47 13 133 78 225 172 41 41
94 95 119 120 l45 46 0 45 0 45 30 29 30 29 0 44 c0 27 11 68 27 104 l27 60
-12 44 c-17 63 -15 90 13 173 l25 73 -12 42 c-6 22 -27 58 -46 80 -41 46 -82
130 -82 169 0 35 -33 101 -76 151 -19 22 -38 54 -43 72 -11 39 -58 109 -124
183 -27 30 -61 80 -77 112 -16 32 -45 70 -65 85 -19 14 -35 34 -35 43 0 9 -14
36 -30 61 -16 25 -30 52 -30 60 0 27 -29 58 -80 86 -30 16 -65 48 -88 78 -70
93 -65 106 34 106 l60 0 29 -30 29 -30 223 0 c163 0 232 -4 256 -13 24 -10
113 -14 346 -16 l314 -2 40 -16 c31 -13 61 -15 146 -10 60 4 120 11 135 17 15
5 58 10 95 10 38 0 84 7 104 15 25 10 72 15 150 15 79 0 126 5 150 15 20 8 47
15 61 15 13 0 43 9 67 20 24 11 65 20 90 20 35 0 60 9 112 40 36 22 71 40 77
40 33 0 115 59 190 137 121 125 190 230 190 292 0 34 6 39 75 63 60 22 104 23
152 3 23 -10 69 -15 135 -15 65 0 111 -5 135 -15 19 -8 45 -15 57 -15 27 0
243 -73 295 -99 22 -12 54 -21 70 -21 38 0 55 -27 41 -65 -5 -14 -10 -35 -10
-45 0 -17 54 -105 88 -143 21 -24 117 -89 172 -117 23 -12 61 -35 83 -51 22
-16 46 -29 54 -29 8 0 44 -13 80 -30 89 -41 161 -41 243 0 l60 30 0 40 c0 43
-45 117 -125 207 -42 48 -249 191 -306 212 -19 7 -47 20 -64 28 -154 84 -194
102 -218 103 -15 0 -44 7 -64 15 -19 8 -53 15 -75 15 -21 0 -55 7 -75 15 -19
8 -47 15 -62 15 -14 0 -68 20 -119 45 l-94 45 -54 0 c-30 0 -71 7 -91 15 -53
22 -371 21 -429 -1 l-42 -16 -96 46 c-70 33 -109 46 -141 46 -24 0 -47 5 -50
10 -8 12 -72 13 -79 1z m132 -180 c52 -37 78 -123 52 -172 -8 -14 -21 -19 -51
-19 -117 0 -189 105 -130 189 l24 33 38 -5 c21 -3 51 -14 67 -26z m-3713 -88
c20 -3 48 -24 86 -64 31 -32 63 -59 72 -59 8 0 25 -9 38 -20 l24 -19 -18 -1
c-28 0 -169 60 -194 83 -13 11 -23 26 -23 33 0 7 -11 21 -25 32 -29 23 -33 38
-7 27 9 -4 31 -10 47 -12z m5347 -294 c49 -24 108 -77 108 -96 0 -23 -40 -14
-68 16 -15 16 -51 41 -79 55 -37 18 -53 32 -53 46 l0 20 25 -10 c13 -5 44 -19
67 -31z"/>
<path d="M3942 2038 c-20 -20 -13 -55 14 -77 l27 -21 208 0 c167 0 217 -3 248
-16 l39 -16 149 6 c163 6 191 7 242 3 l35 -2 23 34 c29 42 29 46 -2 76 l-24
25 -474 0 c-354 0 -476 -3 -485 -12z"/>
<path d="M17 1219 c-29 -17 -21 -56 16 -75 17 -9 46 -27 62 -39 17 -13 53 -35
80 -49 28 -15 74 -43 104 -61 30 -19 77 -41 105 -49 28 -8 67 -27 86 -41 43
-32 115 -70 152 -79 14 -3 51 -28 81 -56 34 -31 99 -72 178 -111 67 -35 139
-77 158 -94 20 -18 45 -34 57 -37 29 -7 331 -209 387 -259 l46 -40 53 3 52 3
23 34 c27 41 30 82 6 103 -10 9 -51 33 -91 54 -44 23 -85 53 -103 76 -17 21
-43 41 -57 44 -36 9 -52 23 -52 44 0 9 -34 49 -75 87 l-75 71 0 44 0 45 50 69
c59 81 55 94 -27 94 -69 0 -172 -34 -201 -66 -17 -20 -22 -37 -22 -82 0 -31
-5 -64 -10 -72 l-9 -15 -23 14 c-69 44 -126 71 -151 71 -40 0 -76 24 -115 76
-18 24 -40 44 -48 44 -22 0 -82 29 -128 62 -21 15 -46 28 -55 28 -8 0 -29 13
-46 28 -17 17 -61 38 -105 52 -41 13 -92 32 -114 42 -47 24 -124 48 -151 48
-11 -1 -28 -5 -38 -11z"/>
</g>
</svg>
