<?xml version="1.0" standalone="no"?>
<!DOCTYPE svg PUBLIC "-//W3C//DTD SVG 20010904//EN"
 "http://www.w3.org/TR/2001/REC-SVG-20010904/DTD/svg10.dtd">
<svg version="1.0" xmlns="http://www.w3.org/2000/svg"
 width="783.000000pt" height="261.000000pt" viewBox="0 0 783.000000 261.000000"
 preserveAspectRatio="xMidYMid meet">
<metadata>
Created by potrace 1.16, written by Peter Selinger 2001-2019
</metadata>
<g transform="translate(0.000000,261.000000) scale(0.100000,-0.100000)"
fill="#000000" stroke="none">
<path d="M515 2600 c-3 -5 -32 -10 -64 -10 -32 0 -75 -7 -94 -15 -20 -8 -48
-15 -62 -15 -14 0 -47 -11 -73 -24 -58 -29 -202 -175 -202 -204 0 -12 -4 -24
-10 -27 -5 -3 -10 -46 -10 -95 l0 -89 23 -34 c12 -19 30 -48 39 -65 22 -41 91
-77 118 -62 29 15 40 43 40 97 l0 49 -30 29 c-23 22 -30 38 -30 67 l0 39 67
65 c72 72 95 84 152 84 21 0 55 7 74 15 22 9 68 15 118 15 52 0 99 6 130 17
l49 18 49 -18 c28 -9 78 -17 115 -17 37 0 83 -7 103 -15 24 -10 70 -15 146
-15 l111 0 133 -45 c73 -25 140 -45 149 -45 29 0 237 -72 267 -92 l27 -19 0
-81 0 -81 75 -71 c41 -39 75 -78 75 -87 0 -20 18 -36 78 -69 25 -14 60 -45 77
-69 23 -34 50 -54 111 -85 44 -23 93 -51 110 -62 16 -12 56 -35 90 -52 134
-68 245 -89 292 -56 34 24 72 107 72 158 0 68 22 75 106 36 36 -16 70 -30 75
-30 11 0 112 -58 200 -114 30 -20 61 -36 68 -36 18 0 81 -30 116 -56 37 -27
170 -94 187 -94 7 0 33 -14 58 -30 25 -16 51 -30 58 -30 7 0 43 -18 80 -40 36
-22 80 -44 98 -49 17 -5 70 -34 116 -65 46 -31 90 -56 97 -56 20 0 139 -58
174 -84 18 -14 82 -50 142 -81 61 -31 135 -72 165 -91 30 -19 71 -39 90 -44
46 -13 136 -56 174 -85 38 -28 170 -95 189 -95 7 0 50 -25 96 -55 48 -33 114
-66 158 -80 41 -14 86 -33 101 -44 70 -49 244 -121 293 -121 12 0 74 -25 137
-55 136 -66 218 -95 268 -95 19 0 65 -13 101 -30 35 -16 74 -30 87 -30 12 0
60 -13 106 -30 47 -16 104 -30 127 -30 23 0 45 -4 48 -10 8 -14 792 -14 800 0
3 6 14 10 25 10 10 0 40 18 66 40 27 23 60 43 74 47 14 3 53 19 87 35 34 15
75 28 92 28 17 0 42 10 58 24 l28 24 5 110 5 110 23 31 c17 23 22 44 22 90 0
33 -5 63 -10 66 -5 3 -10 21 -10 38 -1 18 -20 68 -43 112 -33 63 -51 85 -82
102 -64 36 -139 55 -170 43 -14 -5 -40 -10 -57 -10 l-32 0 -73 -73 -73 -73 0
-98 0 -97 21 -40 c11 -23 39 -64 62 -93 23 -28 51 -68 62 -89 l20 -38 -15 -26
c-18 -32 -131 -93 -171 -93 -15 0 -43 -7 -62 -15 -52 -22 -422 -22 -474 0 -22
9 -67 15 -120 15 -52 0 -97 6 -120 15 -19 8 -45 15 -57 15 -27 0 -123 32 -194
66 -29 13 -65 24 -80 24 -16 0 -37 6 -48 14 l-19 14 18 64 c29 99 31 124 13
168 -9 22 -16 60 -16 84 0 32 -8 54 -29 83 -16 23 -41 63 -55 89 -35 70 -211
237 -331 317 -56 37 -107 67 -114 67 -7 0 -42 13 -78 30 -35 16 -70 30 -76 30
-7 0 -32 14 -57 30 -25 16 -58 30 -73 30 -15 0 -44 7 -64 15 -48 20 -198 20
-246 0 -20 -8 -49 -15 -65 -15 -38 0 -172 -106 -195 -155 -12 -25 -17 -61 -17
-118 0 -45 -4 -88 -9 -96 l-9 -14 -34 13 c-18 8 -46 24 -63 36 -16 12 -86 51
-154 85 -69 34 -141 77 -162 96 -20 18 -42 33 -49 33 -18 0 -203 93 -270 136
-30 19 -66 37 -80 41 -48 11 -105 42 -154 82 -26 23 -55 41 -64 41 -22 0 -256
115 -304 150 -25 18 -53 30 -73 30 -21 0 -39 9 -56 26 -24 26 -207 124 -231
124 -8 0 -30 11 -51 25 -81 56 -236 125 -278 125 -51 0 -100 22 -159 70 -49
40 -120 80 -143 80 -8 0 -27 16 -41 35 -32 41 -76 65 -180 99 -42 14 -93 37
-113 51 -21 14 -45 25 -53 25 -8 0 -32 11 -51 24 -46 32 -148 66 -195 66 -19
0 -65 14 -101 30 -35 17 -74 30 -86 30 -12 0 -42 6 -67 14 -78 25 -133 37
-195 45 -34 5 -70 13 -82 19 -13 7 -70 12 -142 12 -69 0 -122 4 -126 10 -4 6
-83 10 -205 10 -122 0 -201 -4 -205 -10z m1859 -694 c39 -19 92 -52 118 -73
26 -21 59 -46 73 -56 29 -21 60 -86 47 -99 -5 -5 -21 -4 -36 2 -15 5 -40 10
-55 10 -15 0 -35 8 -44 18 -9 10 -49 43 -88 73 -102 78 -159 129 -159 145 0
26 70 16 144 -20z m3024 -807 c68 -32 131 -59 139 -59 9 0 33 -18 54 -41 20
-22 59 -57 86 -77 65 -49 212 -207 217 -235 3 -12 7 -33 10 -47 3 -14 11 -44
18 -68 15 -51 7 -68 -46 -95 l-37 -19 -42 16 c-24 9 -61 16 -82 16 -28 0 -54
9 -85 30 -25 16 -58 30 -75 30 -16 0 -50 14 -75 30 -25 16 -51 30 -59 30 -27
0 -182 81 -219 114 -39 35 -92 66 -113 66 -7 0 -52 41 -101 90 l-88 91 0 50
c0 55 19 97 54 119 33 21 91 28 211 22 l110 -4 123 -59z m2182 -406 c61 -36
75 -114 31 -172 l-18 -23 -38 13 c-47 17 -71 48 -80 101 l-7 42 31 28 c37 33
43 34 81 11z"/>
</g>
</svg>
