<?xml version="1.0" standalone="no"?>
<!DOCTYPE svg PUBLIC "-//W3C//DTD SVG 20010904//EN"
 "http://www.w3.org/TR/2001/REC-SVG-20010904/DTD/svg10.dtd">
<svg version="1.0" xmlns="http://www.w3.org/2000/svg"
 width="498.000000pt" height="225.000000pt" viewBox="0 0 498.000000 225.000000"
 preserveAspectRatio="xMidYMid meet">
<metadata>
Created by potrace 1.16, written by Peter Selinger 2001-2019
</metadata>
<g transform="translate(0.000000,225.000000) scale(0.100000,-0.100000)"
fill="#000000" stroke="none">
<path d="M7 2243 c-11 -10 -8 -101 3 -108 6 -4 33 -52 61 -108 28 -56 61 -113
74 -127 37 -40 174 -249 210 -320 18 -36 45 -76 59 -89 14 -14 26 -31 26 -38
0 -25 49 -111 72 -127 31 -22 91 -21 111 2 24 26 21 49 -12 107 -46 82 -57
105 -105 213 -25 56 -46 107 -46 113 0 7 10 9 24 5 26 -6 143 -82 186 -121 14
-12 45 -33 70 -47 25 -14 54 -36 65 -48 11 -12 50 -37 86 -55 69 -35 186 -112
229 -150 14 -12 45 -33 70 -47 25 -14 55 -40 68 -57 12 -17 49 -44 81 -60 32
-17 82 -52 112 -78 30 -27 88 -71 129 -98 41 -27 95 -68 120 -91 25 -23 61
-49 80 -59 19 -10 55 -39 81 -64 25 -25 66 -58 90 -74 24 -15 72 -48 106 -75
79 -60 145 -109 198 -147 55 -39 125 -98 182 -155 25 -25 66 -56 91 -70 27
-14 58 -43 75 -68 16 -23 46 -51 67 -62 21 -11 66 -47 100 -80 l61 -60 63 0
63 0 13 40 13 40 -18 40 c-10 23 -37 55 -59 73 -39 29 -72 57 -181 151 -60 52
-59 66 6 66 35 0 70 -9 116 -30 39 -18 81 -30 106 -30 26 0 66 -12 105 -30 35
-17 80 -30 100 -30 21 0 57 -6 82 -14 58 -18 124 -35 175 -45 22 -4 56 -12 75
-18 52 -16 119 -33 172 -43 26 -5 56 -13 67 -19 11 -6 65 -11 121 -11 67 0
113 -5 137 -15 52 -22 524 -22 576 0 20 8 55 15 78 15 l42 0 38 35 c21 19 65
48 98 64 l59 30 51 70 51 71 0 96 0 96 -27 34 c-16 19 -41 50 -57 70 -16 19
-52 47 -80 61 -28 14 -66 37 -85 52 -46 35 -155 50 -253 35 l-48 -7 -60 -75
c-42 -53 -60 -84 -60 -104 0 -34 28 -121 64 -198 14 -30 26 -62 26 -70 0 -9
12 -32 26 -53 20 -31 23 -41 14 -53 l-12 -14 -230 0 c-181 0 -236 3 -265 15
-24 10 -70 15 -147 15 -68 0 -128 5 -156 14 -60 19 -125 35 -182 46 -26 5 -56
13 -67 19 -11 6 -30 11 -43 11 -13 0 -62 13 -108 30 -47 16 -101 30 -120 30
-38 0 -245 67 -309 99 -22 12 -51 21 -64 21 -12 0 -61 13 -107 30 -96 34 -146
37 -206 14 l-41 -16 -46 21 c-25 11 -69 43 -98 69 -30 27 -78 62 -107 77 -29
15 -65 43 -79 62 -15 19 -48 45 -73 58 -26 13 -71 46 -101 73 -30 27 -68 56
-86 65 -17 9 -53 35 -80 57 -156 132 -190 159 -358 285 -29 22 -81 61 -115 88
-34 26 -70 47 -79 47 -10 0 -28 12 -42 26 -13 14 -76 60 -139 102 -63 43 -128
89 -145 103 -16 15 -53 38 -82 52 -28 15 -85 57 -126 94 -76 68 -158 133 -209
165 -15 10 -38 34 -51 55 -14 21 -45 51 -70 67 -25 16 -51 39 -58 52 l-12 24
-107 0 c-59 0 -110 -3 -113 -7z m4629 -1543 c51 -20 154 -147 154 -190 0 -26
-25 -65 -88 -140 l-30 -34 -25 11 c-61 28 -182 275 -157 322 5 11 18 25 28 30
22 13 84 14 118 1z"/>
</g>
</svg>
