<?xml version="1.0" standalone="no"?>
<!DOCTYPE svg PUBLIC "-//W3C//DTD SVG 20010904//EN"
 "http://www.w3.org/TR/2001/REC-SVG-20010904/DTD/svg10.dtd">
<svg version="1.0" xmlns="http://www.w3.org/2000/svg"
 width="228.000000pt" height="201.000000pt" viewBox="0 0 228.000000 201.000000"
 preserveAspectRatio="xMidYMid meet">
<metadata>
Created by potrace 1.16, written by Peter Selinger 2001-2019
</metadata>
<g transform="translate(0.000000,201.000000) scale(0.100000,-0.100000)"
fill="#000000" stroke="none">
<path d="M1758 1983 c-45 -49 -58 -86 -58 -169 l0 -78 56 -83 55 -84 -11 -15
-12 -14 -200 0 c-154 0 -207 3 -235 15 -19 8 -58 15 -86 15 -34 0 -95 15 -184
45 -73 25 -148 45 -168 45 -20 0 -52 7 -72 15 -19 8 -47 15 -62 15 -14 0 -55
14 -89 30 -35 17 -69 30 -76 30 -7 0 -54 20 -105 45 -51 25 -97 45 -103 45
-19 0 -136 58 -179 89 -23 17 -55 31 -70 31 -15 0 -40 5 -54 10 -19 7 -39 7
-66 -1 l-39 -12 0 -43 0 -43 69 -68 c160 -158 461 -435 513 -472 20 -14 49
-46 65 -70 15 -24 44 -54 65 -67 21 -13 45 -36 55 -51 9 -16 55 -68 100 -116
46 -48 83 -92 83 -97 0 -4 16 -28 36 -52 86 -102 144 -223 144 -299 0 -20 7
-53 15 -72 22 -53 18 -122 -11 -207 -31 -94 -62 -138 -130 -190 l-54 -41 0
-34 0 -35 90 0 90 0 66 67 c71 73 104 126 104 168 0 14 7 42 15 62 10 25 15
71 15 153 0 82 -5 128 -15 153 -8 20 -15 49 -15 65 0 16 -13 47 -29 69 -16 22
-39 59 -51 82 -69 136 -152 236 -408 490 -141 141 -265 267 -274 281 -44 62
-7 65 108 10 77 -37 139 -59 254 -90 25 -7 86 -16 135 -20 50 -4 104 -12 120
-18 53 -18 118 -33 180 -41 34 -5 70 -13 82 -19 12 -7 66 -12 123 -12 67 0
113 -5 137 -15 20 -9 66 -15 108 -15 42 0 88 6 108 15 20 8 54 15 76 15 23 0
67 13 104 30 36 17 72 30 79 30 8 0 25 12 39 26 13 14 38 34 56 45 l33 21 0
117 0 117 -40 39 c-31 30 -40 47 -40 73 0 47 -46 92 -94 92 -19 0 -38 5 -41
10 -4 6 -63 10 -144 10 l-137 0 -26 -27z m228 -132 c80 -61 101 -86 114 -133
l12 -47 -19 -33 c-24 -41 -56 -46 -115 -19 -87 42 -108 73 -108 163 0 102 40
126 116 69z"/>
</g>
</svg>
