<?xml version="1.0" standalone="no"?>
<!DOCTYPE svg PUBLIC "-//W3C//DTD SVG 20010904//EN"
 "http://www.w3.org/TR/2001/REC-SVG-20010904/DTD/svg10.dtd">
<svg version="1.0" xmlns="http://www.w3.org/2000/svg"
 width="282.000000pt" height="321.000000pt" viewBox="0 0 282.000000 321.000000"
 preserveAspectRatio="xMidYMid meet">
<metadata>
Created by potrace 1.16, written by Peter Selinger 2001-2019
</metadata>
<g transform="translate(0.000000,321.000000) scale(0.100000,-0.100000)"
fill="#000000" stroke="none">
<path d="M22 3196 l-23 -11 3 -134 3 -135 70 -58 c39 -32 87 -67 107 -78 47
-25 207 -74 283 -87 35 -5 145 29 186 58 36 25 55 24 74 -5 26 -40 9 -72 -91
-169 -74 -71 -94 -96 -94 -118 0 -33 41 -69 79 -69 43 0 129 -35 159 -63 16
-15 40 -27 54 -27 40 0 75 -16 165 -77 97 -65 202 -172 238 -242 13 -27 49
-87 80 -132 36 -55 55 -94 55 -114 0 -17 13 -50 30 -75 16 -25 30 -57 30 -72
0 -15 18 -65 40 -112 22 -47 40 -89 40 -94 0 -22 -33 -19 -112 8 l-83 30 -93
0 -94 0 -29 -29 c-35 -35 -35 -43 -8 -124 l21 -61 99 -103 c54 -57 99 -109 99
-117 0 -7 -9 -21 -21 -32 -12 -10 -32 -40 -45 -66 l-24 -47 0 -86 c0 -60 6
-104 21 -148 l21 -62 86 -88 c49 -49 109 -99 137 -114 28 -14 69 -41 93 -60
91 -74 204 -143 235 -143 7 0 24 -12 38 -26 13 -14 35 -32 49 -39 42 -22 147
-55 174 -55 14 0 28 -4 31 -10 3 -5 40 -10 81 -10 l74 0 0 18 c0 38 -38 66
-203 148 -95 47 -194 104 -220 126 -26 22 -64 44 -85 50 -28 8 -69 42 -163
137 -140 139 -169 186 -169 271 0 64 10 84 60 115 23 14 49 43 61 66 l21 42
-18 39 c-10 22 -40 60 -68 85 -56 50 -90 99 -76 108 16 10 111 -23 149 -52 78
-57 121 -107 121 -138 0 -20 20 -59 61 -120 33 -49 75 -116 91 -150 17 -33 47
-79 68 -102 20 -23 49 -61 65 -85 16 -24 73 -89 127 -146 54 -56 98 -107 98
-113 0 -18 141 -158 201 -199 101 -69 131 -80 214 -80 107 0 164 30 179 94 4
17 16 42 27 57 l19 27 0 90 c0 50 -4 94 -10 97 -5 3 -10 20 -10 36 0 43 -64
166 -115 220 -23 25 -54 63 -68 85 -30 47 -58 73 -117 106 -25 14 -54 36 -65
48 -11 12 -49 37 -85 55 -36 18 -106 60 -155 94 -49 34 -97 61 -105 61 -29 0
-178 78 -218 114 -22 20 -46 36 -55 36 -26 0 -52 49 -95 181 -23 70 -53 152
-67 182 -14 31 -25 62 -25 70 0 8 -13 32 -28 53 -32 45 -62 106 -62 126 0 7
-27 53 -61 103 -33 49 -72 111 -85 137 -15 30 -39 57 -64 73 -22 14 -51 43
-65 65 -17 26 -43 49 -78 66 -28 14 -72 43 -97 64 -48 39 -179 110 -204 110
-9 0 -20 9 -26 21 l-12 21 25 37 c77 117 85 175 36 274 -37 74 -56 97 -80 97
-10 0 -27 13 -38 29 -26 36 -115 98 -211 146 -39 20 -90 49 -112 66 -23 16
-49 29 -59 29 -10 0 -21 5 -24 10 -9 14 -334 11 -363 -4z m398 -177 c67 -31
120 -73 120 -95 0 -21 -60 -64 -88 -64 -15 0 -54 13 -87 28 -33 16 -72 32 -86
35 -26 7 -89 68 -89 87 0 26 34 40 98 40 l67 0 65 -31z m1655 -2090 c22 -11
65 -35 95 -54 30 -18 86 -53 125 -77 187 -116 409 -408 392 -515 -7 -44 -39
-87 -75 -102 l-29 -12 -57 16 c-38 11 -62 25 -74 42 -22 34 -91 103 -124 125
-15 10 -39 43 -55 74 -15 31 -45 70 -65 87 -21 17 -38 38 -38 48 0 10 -25 47
-56 81 -61 68 -154 244 -154 292 l0 27 38 -7 c20 -3 55 -15 77 -25z"/>
</g>
</svg>
