<?xml version="1.0" encoding="UTF-8" standalone="no"?>
<!-- Created with Inkscape (http://www.inkscape.org/) -->

<svg
   width="35.953506mm"
   height="50.718933mm"
   viewBox="0 0 35.953506 50.718933"
   version="1.1"
   id="svg1"
   xml:space="preserve"
   xmlns="http://www.w3.org/2000/svg"
   xmlns:svg="http://www.w3.org/2000/svg"><defs
     id="defs1" /><g
     id="layer1"
     transform="translate(-96.297067,-115.42613)"><path
       style="fill:#000000"
       d="m 123.68263,165.53244 c -2.71856,-1.26593 -4.6292,-4.5169 -4.25579,-7.24124 0.25467,-1.85799 2.14443,-5.21924 3.57359,-6.35623 0.6718,-0.53446 1.2672,-1.00179 1.32311,-1.03853 0.0559,-0.0367 -1.24541,-2.12447 -2.89184,-4.63942 -1.64643,-2.51495 -4.6151,-7.13249 -6.59703,-10.26118 -1.98194,-3.1287 -3.89318,-6.12541 -4.24719,-6.65936 l -0.64367,-0.97082 -0.66618,1.20719 c -0.5388,0.97637 -0.91912,1.30678 -1.98909,1.72808 -1.13364,0.44638 -1.48777,0.47788 -2.4752,0.22023 -2.39418,-0.62472 -5.031904,-3.11987 -7.262761,-6.8702 l -1.253511,-2.10729 0.431095,-0.90402 c 0.288458,-0.6049 0.734593,-1.01376 1.348359,-1.2357 0.504494,-0.18243 0.948486,-0.29099 0.986648,-0.24126 0.03816,0.0497 0.654326,1.08504 1.36925,2.30066 0.71493,1.21562 1.91089,2.88568 2.65769,3.71126 1.29242,1.42873 3.92037,3.17602 4.26239,2.834 0.29049,-0.29048 -0.70546,-4.18991 -1.48835,-5.82736 -0.42211,-0.88286 -1.36142,-2.49418 -2.08735,-3.5807 -1.29534,-1.93877 -1.31255,-1.99085 -0.926,-2.80146 0.25642,-0.53771 0.72581,-0.94599 1.34504,-1.1699 0.92749,-0.33539 0.96999,-0.32163 1.70739,0.5525 1.07693,1.27661 8.62608,12.55118 11.76118,17.56519 1.45583,2.32833 4.13077,6.49552 5.94431,9.26042 6.42176,9.79055 8.44469,13.7075 8.60863,16.66875 0.0944,1.70493 0.0321,1.97821 -0.78405,3.43958 -0.74343,1.33117 -1.11952,1.70361 -2.32921,2.30661 -1.85823,0.92628 -3.59322,0.96154 -5.42146,0.1102 z m 5.55039,-3.78531 c -0.015,-1.78439 -0.1154,-2.09744 -1.68227,-5.24463 -1.75849,-3.53208 -2.30371,-4.08842 -3.34078,-3.40891 -3.3087,2.16795 -2.06316,8.09669 2.11386,10.06192 0.7357,0.34613 1.69482,0.59782 2.13138,0.55931 l 0.79375,-0.07 z"
       id="path1" /></g></svg>
