<?xml version="1.0" standalone="no"?>
<!DOCTYPE svg PUBLIC "-//W3C//DTD SVG 20010904//EN"
 "http://www.w3.org/TR/2001/REC-SVG-20010904/DTD/svg10.dtd">
<svg version="1.0" xmlns="http://www.w3.org/2000/svg"
 width="726.000000pt" height="222.000000pt" viewBox="0 0 726.000000 222.000000"
 preserveAspectRatio="xMidYMid meet">
<metadata>
Created by potrace 1.16, written by Peter Selinger 2001-2019
</metadata>
<g transform="translate(0.000000,222.000000) scale(0.100000,-0.100000)"
fill="#000000" stroke="none">
<path d="M40 2206 c0 -7 -9 -25 -20 -39 -14 -18 -20 -40 -20 -80 l0 -54 50
-42 c82 -69 364 -201 431 -201 11 0 50 -13 86 -30 35 -16 70 -30 76 -30 7 0
41 -14 75 -30 35 -17 74 -30 85 -30 12 0 42 -6 67 -14 61 -19 126 -36 179 -45
34 -7 53 -18 80 -49 20 -22 54 -49 76 -60 47 -23 65 -43 94 -99 11 -23 38 -54
60 -70 22 -15 54 -49 71 -76 17 -26 41 -54 54 -62 39 -26 85 -101 111 -179 13
-41 46 -107 74 -148 49 -73 91 -172 91 -214 0 -12 7 -38 15 -57 20 -48 19 -96
-1 -104 -22 -8 -69 18 -130 71 -27 24 -73 55 -102 70 -29 15 -69 42 -90 60
-20 19 -80 55 -132 81 -52 27 -108 58 -125 71 -16 12 -79 48 -140 79 -60 31
-134 71 -163 90 -29 18 -91 45 -137 60 -47 15 -107 38 -135 51 -33 16 -67 24
-101 24 l-52 0 -43 -44 -44 -43 0 -55 0 -55 53 -49 c63 -59 136 -115 198 -153
56 -35 79 -80 79 -156 0 -63 16 -102 66 -157 18 -20 42 -55 54 -77 12 -24 39
-53 68 -71 26 -17 60 -49 75 -71 27 -38 90 -79 120 -79 8 0 21 -8 28 -17 8 -9
40 -36 73 -60 41 -30 68 -43 92 -43 18 0 36 -5 39 -10 3 -6 21 -10 39 -10 37
0 76 34 76 67 0 27 -21 44 -115 91 -88 44 -114 65 -149 120 -13 21 -43 50 -67
65 -49 31 -135 150 -171 236 l-21 52 36 30 37 30 0 40 c0 21 3 39 8 39 27 -2
118 -42 140 -62 15 -14 38 -28 52 -31 14 -4 47 -24 74 -47 26 -22 56 -40 66
-40 9 0 36 -15 60 -32 93 -70 166 -118 179 -118 7 0 33 -19 56 -42 90 -91 217
-172 258 -166 12 2 30 18 42 35 11 18 37 60 59 93 l38 60 -5 37 c-10 72 -59
238 -86 291 -10 21 -24 55 -30 77 -6 22 -26 65 -45 95 -19 30 -58 100 -87 155
-28 55 -67 117 -85 137 -18 21 -45 61 -59 90 -15 29 -47 71 -71 93 -26 24 -45
50 -47 65 l-2 25 112 3 c83 2 122 -1 149 -13 23 -9 68 -15 121 -15 52 0 97 -6
120 -15 22 -9 67 -15 120 -15 52 0 97 -6 120 -15 26 -11 76 -15 195 -15 118 0
168 -4 195 -15 51 -22 435 -22 486 0 25 10 72 15 150 15 79 0 126 5 150 15 21
9 68 15 109 15 44 1 83 6 98 15 14 8 46 14 71 15 26 0 63 7 82 15 20 8 52 15
72 15 32 0 223 58 270 82 11 6 34 23 50 38 17 16 52 41 79 57 l48 28 87 130
87 130 44 22 45 23 218 0 c171 0 225 -3 254 -15 19 -8 59 -15 87 -15 28 0 71
-6 96 -14 60 -19 125 -35 181 -46 26 -5 64 -17 86 -28 51 -26 247 -92 274 -92
32 0 89 -29 139 -70 45 -37 120 -80 140 -80 6 0 43 -34 83 -75 l72 -75 56 0
c89 0 101 31 45 120 -84 133 -94 172 -47 178 37 6 64 -5 106 -41 22 -19 65
-47 95 -62 30 -16 67 -37 83 -47 l27 -19 0 -77 c1 -60 6 -86 23 -117 76 -140
266 -327 405 -398 114 -60 166 -63 230 -16 l42 31 0 82 0 82 -34 32 c-19 17
-40 51 -48 74 -10 33 -25 50 -68 80 -30 20 -107 89 -171 153 l-117 115 -33 0
c-22 0 -42 9 -61 27 -27 25 -46 38 -168 108 -29 17 -74 44 -100 62 -26 17 -93
54 -148 82 l-102 51 -108 0 -109 0 -16 -18 c-10 -10 -17 -29 -17 -43 0 -13 -4
-30 -9 -37 l-8 -13 -59 17 c-32 9 -80 27 -106 40 -26 13 -57 24 -69 24 -12 0
-103 27 -203 59 -230 75 -255 81 -346 90 -41 4 -85 13 -97 19 -15 8 -98 12
-273 12 l-251 0 -62 -21 c-72 -24 -143 -86 -209 -184 -22 -33 -55 -76 -72 -95
-18 -19 -44 -54 -59 -76 -19 -31 -42 -50 -90 -73 -35 -17 -69 -31 -76 -31 -6
0 -30 -9 -53 -21 -22 -11 -86 -37 -142 -57 l-101 -35 -180 -6 c-108 -4 -191
-11 -208 -19 -44 -19 -506 -17 -554 3 l-35 15 -295 0 -294 0 -36 15 c-19 8
-53 15 -75 15 -21 0 -55 7 -75 15 -19 8 -65 15 -102 15 -36 0 -86 6 -111 14
-94 30 -138 38 -225 45 -49 4 -100 12 -112 19 -12 7 -41 12 -65 12 -50 0 -70
12 -155 92 -34 32 -69 58 -78 58 -9 0 -40 20 -68 45 -28 24 -77 58 -109 75
-33 18 -98 58 -146 91 -48 32 -93 59 -100 59 -8 0 -41 13 -75 28 -34 16 -75
32 -91 36 -17 4 -42 16 -57 27 l-27 19 -181 0 -181 0 0 -14z m340 -133 c14 -9
39 -28 55 -43 36 -32 139 -90 160 -90 28 0 96 -32 105 -51 17 -31 -6 -30 -77
5 -37 18 -95 41 -128 51 -135 40 -180 58 -222 87 -63 46 -58 58 26 58 36 0 66
-6 81 -17z m6577 -757 c29 -28 41 -76 20 -76 -19 0 -73 45 -88 71 -23 44 25
47 68 5z m-6162 -423 c30 -4 51 -16 82 -48 33 -33 39 -44 28 -49 -34 -13 -205
76 -205 107 0 5 12 6 28 2 15 -3 45 -9 67 -12z"/>
</g>
</svg>
