<?xml version="1.0" encoding="UTF-8" standalone="no"?>
<!-- Created with Inkscape (http://www.inkscape.org/) -->

<svg
   width="85.195831mm"
   height="76.989059mm"
   viewBox="0 0 85.195831 76.989059"
   version="1.1"
   id="svg1"
   xml:space="preserve"
   xmlns="http://www.w3.org/2000/svg"
   xmlns:svg="http://www.w3.org/2000/svg"><defs
     id="defs1" /><g
     id="layer1"
     transform="translate(-75.935419,-104.39936)"><path
       style="fill:#000000"
       d="m 119.08597,180.68956 c -1.23503,-1.03921 -1.9246,-2.14843 -2.69541,-4.33575 l -0.70248,-1.9934 -1.95081,-0.16435 c -1.07295,-0.0904 -5.04644,-0.2491 -8.82998,-0.35268 -3.78354,-0.10358 -9.168401,-0.41657 -11.966356,-0.69554 -2.797955,-0.27897 -6.816314,-0.50722 -8.929687,-0.50722 H 80.16875 v -0.88656 c 0,-0.48761 0.13071,-1.26151 0.290467,-1.71979 l 0.290466,-0.83323 3.744429,-0.002 c 2.059437,-8.8e-4 6.244742,0.23243 9.30068,0.51848 4.795487,0.44886 20.734968,1.15199 20.991838,0.92599 0.0494,-0.0434 -0.21949,-1.5467 -0.59745,-3.3406 -0.37796,-1.7939 -0.97865,-5.16664 -1.33488,-7.49497 -0.72948,-4.768 -1.16513,-6.21047 -2.9347,-9.71698 -1.99845,-3.96003 -3.63366,-6.07169 -7.6473,-9.87546 -4.31906,-4.09321 -6.34555,-5.75075 -9.119169,-7.4589 -1.102295,-0.67886 -4.014324,-2.53205 -6.471176,-4.11821 -2.456852,-1.58616 -5.879899,-3.65651 -7.606771,-4.60078 -3.016453,-1.64941 -3.139767,-1.75071 -3.139767,-2.57909 0,-0.47423 0.126841,-1.2261 0.281869,-1.67081 l 0.281869,-0.80857 2.43011,1.01071 c 4.231606,1.75997 7.670165,2.22672 9.037673,1.22677 0.459391,-0.33591 0.44691,-0.41637 -0.268469,-1.73076 -0.848518,-1.55901 -1.974713,-2.61213 -4.090135,-3.82477 -1.181937,-0.67752 -1.472042,-0.98216 -1.54485,-1.62221 -0.09648,-0.84816 0.387082,-2.78208 0.695575,-2.78183 0.103299,8e-5 0.961723,0.47861 1.907608,1.06339 2.525079,1.56111 5.896371,2.53564 17.838283,5.15646 13.73756,3.0149 21.39493,3.84373 27.94157,3.0244 3.80901,-0.4767 9.29611,-1.56802 11.18261,-2.22408 1.83547,-0.63831 3.62712,-1.78295 3.62712,-2.31727 0,-0.16341 -0.50602,-1.31377 -1.12448,-2.55637 -1.00236,-2.01391 -1.12448,-2.46147 -1.12448,-4.1212 0,-1.4569 0.14389,-2.14972 0.66146,-3.18486 0.74486,-1.48972 1.49452,-1.8954 2.98564,-1.61566 3.08581,0.5789 10.16491,7.71311 12.7529,12.85218 1.27189,2.52563 1.72396,4.30702 1.72396,6.79325 0,7.25889 -4.79474,8.41444 -7.1941,1.73379 -0.85074,-2.36873 -0.96362,-6.77473 -0.24105,-9.40851 l 0.56471,-2.0584 -0.53814,-0.70874 c -0.95864,-1.26255 -4.85857,-4.53992 -6.20327,-5.21302 -1.31047,-0.65598 -2.63233,-0.83254 -3.25822,-0.43521 -0.25107,0.15938 -0.0547,0.76386 0.79375,2.44334 1.02819,2.03526 1.12736,2.40613 1.12736,4.21594 0,1.59012 -0.13821,2.27912 -0.69564,3.46788 -1.22113,2.60417 -3.33425,3.6518 -9.75629,4.83694 -10.863,2.00467 -16.78806,1.63872 -33.75458,-2.08482 -5.289835,-1.16093 -11.766751,-2.70082 -12.429416,-2.95511 -0.271831,-0.10431 -0.315716,0.17977 -0.200389,1.29717 0.20601,1.99605 -0.457082,4.17345 -1.551368,5.09423 -0.461883,0.38865 -0.723597,0.78565 -0.581962,0.8828 0.141559,0.0971 2.10848,1.33477 4.370934,2.75039 5.022908,3.14285 6.436731,4.254 11.349311,8.91967 4.14973,3.94117 5.76901,6.02452 7.78046,10.01033 1.79425,3.55541 2.1964,4.92388 3.04987,10.37844 0.42123,2.69213 1.19058,6.80831 1.70966,9.14706 0.51908,2.33874 0.94379,4.31686 0.94379,4.3958 0,0.0789 0.56554,0.22029 1.25677,0.3141 2.42867,0.32959 4.46827,1.18642 5.47394,2.29958 0.85245,0.94356 0.9422,1.18956 0.9422,2.5825 0,4.18174 -2.64361,6.64154 -5.00361,4.65573 z m 3.50979,-3.09319 c 0.42531,-0.311 0.40387,-0.38912 -0.2889,-1.05283 -0.68828,-0.65943 -3.35468,-1.78625 -4.22678,-1.78625 -0.52594,0 0.3262,1.4101 1.45465,2.40712 0.94635,0.83613 2.25562,1.02089 3.06103,0.43196 z m 37.23348,-51.22156 c 0.58268,-0.47183 0.59478,-0.55511 0.28293,-1.94857 -0.43921,-1.96262 -1.90729,-4.95776 -3.54874,-7.24004 l -1.35132,-1.8789 -0.62442,1.74531 c -0.70274,1.96424 -0.66449,3.22008 0.17214,5.6518 1.20736,3.50924 3.35138,5.06158 5.06941,3.6704 z m -30.02308,26.3767 c -1.58417,-2.66719 -3.10175,-5.17203 -3.3724,-5.56632 -0.55639,-0.81056 -0.63837,-2.35641 -0.19276,-3.6347 l 0.29934,-0.85868 1.18717,2.07597 c 0.65295,1.14178 2.18512,3.72151 3.40483,5.73274 2.34272,3.86299 2.5857,4.6866 1.87396,6.35203 -0.31532,0.73783 -0.36048,0.67995 -3.20014,-4.10104 z m 4.57332,-2.2173 c -1.0919,-1.73871 -2.5583,-4.09321 -3.25868,-5.23221 -0.70037,-1.13901 -1.43781,-2.13401 -1.63877,-2.21112 -0.70165,-0.26925 -0.18356,-3.6775 0.52461,-3.45111 0.36988,0.11825 1.51946,1.81636 4.64101,6.85548 2.53455,4.09153 2.75233,4.7736 2.04988,6.42021 l -0.33278,0.78005 z"
       id="path1" /></g></svg>
