<?xml version="1.0" standalone="no"?>
<!DOCTYPE svg PUBLIC "-//W3C//DTD SVG 20010904//EN"
 "http://www.w3.org/TR/2001/REC-SVG-20010904/DTD/svg10.dtd">
<svg version="1.0" xmlns="http://www.w3.org/2000/svg"
 width="303.000000pt" height="396.000000pt" viewBox="0 0 303.000000 396.000000"
 preserveAspectRatio="xMidYMid meet">
<metadata>
Created by potrace 1.16, written by Peter Selinger 2001-2019
</metadata>
<g transform="translate(0.000000,396.000000) scale(0.100000,-0.100000)"
fill="#000000" stroke="none">
<path d="M455 3950 c-3 -5 -26 -10 -51 -10 -32 0 -67 -11 -120 -37 -75 -37
-107 -66 -171 -156 -19 -26 -49 -53 -72 -63 -48 -22 -52 -43 -16 -86 l25 -30
0 -178 c0 -135 4 -186 15 -213 8 -20 15 -53 15 -74 1 -53 32 -139 64 -172 14
-15 26 -33 26 -39 0 -18 98 -211 125 -247 12 -16 32 -49 44 -73 31 -61 113
-181 166 -243 25 -29 45 -56 45 -60 0 -4 18 -29 40 -54 23 -26 54 -74 70 -106
23 -45 42 -66 82 -92 39 -25 56 -43 63 -68 7 -24 25 -44 62 -68 28 -20 65 -56
81 -81 17 -25 50 -58 74 -74 25 -15 58 -49 75 -75 17 -26 51 -59 75 -75 25
-15 58 -49 75 -75 17 -26 51 -59 75 -74 23 -15 59 -51 78 -80 28 -40 46 -55
80 -67 32 -11 52 -27 72 -57 27 -39 54 -65 113 -106 28 -20 77 -110 94 -172 6
-22 26 -65 45 -95 46 -72 136 -249 136 -268 0 -7 18 -34 39 -59 22 -24 43 -59
47 -76 3 -18 21 -49 40 -69 41 -46 64 -92 95 -188 16 -52 35 -88 61 -117 21
-24 38 -49 38 -58 0 -12 13 -15 60 -15 l60 0 0 59 c0 32 -7 75 -15 94 -8 20
-15 48 -15 62 0 29 -58 150 -101 210 -16 22 -42 81 -58 130 -16 50 -37 107
-46 129 -24 57 -7 66 53 27 27 -17 55 -31 63 -31 8 0 28 -9 44 -21 92 -62 257
-129 320 -129 20 0 52 -7 72 -15 56 -24 145 -19 202 10 65 32 131 109 131 152
0 17 -4 35 -10 38 -5 3 -10 27 -10 53 0 35 -7 58 -30 92 -18 27 -30 58 -30 78
l0 33 -105 110 c-58 60 -105 114 -105 118 0 17 -146 125 -182 134 -21 5 -57
26 -80 46 -31 26 -72 46 -148 70 -58 19 -133 47 -168 63 l-63 28 -107 0 -107
-1 -80 -42 -80 -42 -20 -42 c-11 -24 -24 -43 -30 -43 -5 0 -35 20 -65 45 -30
24 -72 57 -92 72 -20 16 -50 48 -66 73 -17 25 -50 58 -74 74 -25 15 -58 49
-75 75 -17 26 -51 59 -75 75 -23 15 -55 44 -70 64 -15 20 -70 84 -122 141 -53
58 -96 108 -96 113 0 5 -29 39 -64 77 -35 37 -75 86 -89 108 -14 23 -40 51
-56 63 -17 12 -31 30 -31 40 0 10 -21 46 -47 80 -91 117 -113 153 -128 204 -9
30 -34 75 -62 110 -58 71 -54 64 -92 152 -17 39 -31 84 -31 100 0 16 -14 49
-30 74 -16 25 -30 57 -30 71 0 15 -7 43 -15 62 -17 42 -21 208 -5 238 l11 19
100 0 c66 0 112 -5 136 -15 19 -8 53 -15 74 -15 21 0 57 -7 79 -16 l41 -17 67
22 c37 13 91 40 120 62 l52 40 0 69 0 69 -36 28 c-20 15 -47 44 -60 65 -22 34
-104 88 -134 88 -16 0 -101 39 -132 61 -28 20 -112 26 -123 9z m119 -214 c39
-19 84 -48 100 -65 l29 -30 -13 -16 c-16 -20 -99 -20 -147 0 -19 8 -46 15 -59
15 -30 0 -104 28 -124 47 l-15 14 37 35 38 34 41 0 c27 0 67 -12 113 -34z
m1536 -2396 c47 -16 96 -30 109 -30 29 0 197 -82 299 -146 106 -67 221 -187
270 -282 35 -68 72 -171 72 -201 0 -6 -11 -18 -25 -27 l-25 -17 -43 17 c-23 9
-52 16 -63 16 -48 0 -274 97 -339 145 -16 13 -53 34 -81 48 -28 14 -75 48
-105 74 -30 27 -72 59 -94 72 -39 22 -132 117 -167 170 -20 30 -25 139 -8 172
16 30 98 25 200 -11z"/>
</g>
</svg>
