<?xml version="1.0" standalone="no"?>
<!DOCTYPE svg PUBLIC "-//W3C//DTD SVG 20010904//EN"
 "http://www.w3.org/TR/2001/REC-SVG-20010904/DTD/svg10.dtd">
<svg version="1.0" xmlns="http://www.w3.org/2000/svg"
 width="357.000000pt" height="552.000000pt" viewBox="0 0 357.000000 552.000000"
 preserveAspectRatio="xMidYMid meet">
<metadata>
Created by potrace 1.16, written by Peter Selinger 2001-2019
</metadata>
<g transform="translate(0.000000,552.000000) scale(0.100000,-0.100000)"
fill="#000000" stroke="none">
<path d="M425 5510 c-3 -5 -33 -10 -65 -10 -44 0 -75 -7 -123 -30 -36 -16 -71
-30 -79 -30 -29 0 -60 -35 -98 -110 -22 -43 -44 -81 -50 -85 -13 -8 -13 -132
0 -140 5 -3 10 -26 10 -50 0 -27 11 -66 30 -107 16 -34 30 -75 30 -91 0 -36
63 -161 107 -212 18 -22 36 -51 40 -65 3 -14 20 -41 38 -60 48 -51 145 -201
145 -224 0 -11 31 -50 70 -88 39 -38 70 -73 70 -79 0 -5 17 -28 38 -52 21 -23
54 -64 73 -92 18 -27 59 -77 90 -110 30 -33 64 -73 74 -90 10 -16 51 -64 90
-105 40 -41 83 -93 98 -116 24 -38 52 -65 112 -107 14 -10 39 -44 55 -77 16
-32 43 -69 59 -81 17 -13 48 -48 70 -77 22 -30 58 -72 80 -95 22 -23 74 -77
116 -119 41 -43 75 -85 75 -93 0 -9 53 -70 118 -136 64 -66 129 -138 144 -160
14 -22 63 -78 107 -125 45 -47 81 -90 81 -95 0 -5 32 -43 70 -85 39 -41 77
-88 85 -103 8 -16 43 -55 79 -88 35 -32 74 -76 87 -98 13 -22 45 -64 72 -94
26 -30 59 -75 72 -102 14 -26 42 -60 64 -75 21 -16 63 -65 92 -109 48 -72 93
-132 162 -220 38 -47 116 -164 133 -199 9 -17 31 -47 49 -66 43 -47 85 -111
85 -131 0 -9 14 -35 31 -59 56 -77 119 -219 119 -268 0 -32 8 -59 28 -91 29
-46 51 -110 71 -206 14 -64 -4 -126 -55 -196 l-36 -49 -40 0 c-51 0 -158 49
-220 101 -51 43 -82 49 -98 20 -28 -54 0 -117 94 -214 l66 -67 105 0 c58 0
113 4 123 9 9 4 33 16 52 25 19 9 69 46 111 81 l76 65 23 72 c13 40 27 77 32
83 11 13 10 162 -2 170 -5 3 -10 18 -10 33 -1 41 -45 159 -85 223 -19 31 -35
69 -35 83 0 35 -64 160 -106 210 -19 22 -38 54 -43 72 -5 19 -27 55 -49 81
-22 26 -49 66 -60 88 -11 22 -32 51 -46 64 -14 14 -26 33 -26 44 0 11 -22 41
-49 67 -28 27 -63 75 -80 108 -17 33 -44 70 -60 81 -16 12 -51 54 -77 94 -26
39 -85 112 -131 160 -46 48 -83 92 -83 97 0 6 -22 35 -50 65 -27 30 -61 72
-74 93 -23 36 -51 64 -110 105 -14 10 -30 35 -36 57 -7 27 -26 53 -64 87 -30
26 -66 68 -80 93 -13 25 -44 59 -68 76 -25 18 -55 52 -71 82 -15 28 -45 64
-67 79 -21 15 -52 49 -70 75 -17 26 -43 54 -58 62 -15 8 -47 38 -72 67 -25 30
-72 83 -106 119 -34 36 -82 97 -109 135 -26 39 -67 90 -91 115 -25 25 -65 65
-89 90 -197 198 -222 226 -228 252 -4 14 -38 55 -76 90 -38 36 -80 82 -92 104
-13 21 -51 67 -84 101 -34 35 -75 82 -91 105 -16 24 -40 57 -55 74 -14 17 -51
70 -82 117 -31 47 -70 95 -87 107 -16 12 -30 28 -30 36 0 30 -44 100 -90 146
-34 32 -51 58 -56 82 -3 20 -20 55 -36 77 -39 54 -118 217 -118 243 0 12 4 27
9 35 l9 14 32 -12 c18 -6 63 -11 99 -11 36 0 87 -7 112 -17 l47 -16 41 16 c23
10 54 17 70 17 18 0 50 16 87 43 l59 44 18 59 c21 71 21 91 2 137 -8 20 -15
50 -15 66 0 37 -47 94 -100 121 -61 31 -157 60 -199 60 -22 0 -43 5 -46 10 -3
6 -21 10 -40 10 -19 0 -37 -4 -40 -10z m130 -171 c73 -25 107 -49 134 -93 28
-44 27 -81 -4 -111 l-24 -25 -100 0 c-62 0 -115 5 -138 14 -21 8 -55 17 -76
20 -20 2 -51 15 -68 27 l-31 22 5 38 c7 55 36 89 93 109 66 25 138 24 209 -1z"/>
</g>
</svg>
