<?xml version="1.0" standalone="no"?>
<!DOCTYPE svg PUBLIC "-//W3C//DTD SVG 20010904//EN"
 "http://www.w3.org/TR/2001/REC-SVG-20010904/DTD/svg10.dtd">
<svg version="1.0" xmlns="http://www.w3.org/2000/svg"
 width="408.000000pt" height="324.000000pt" viewBox="0 0 408.000000 324.000000"
 preserveAspectRatio="xMidYMid meet">
<metadata>
Created by potrace 1.16, written by Peter Selinger 2001-2019
</metadata>
<g transform="translate(0.000000,324.000000) scale(0.100000,-0.100000)"
fill="#000000" stroke="none">
<path d="M105 3194 c-72 -53 -85 -69 -85 -105 0 -15 -4 -31 -10 -34 -13 -8
-14 -312 -1 -319 9 -6 12 -23 27 -133 4 -31 14 -59 25 -69 11 -9 19 -23 19
-30 0 -7 20 -54 45 -105 25 -51 45 -99 45 -108 0 -24 208 -328 240 -351 17
-12 30 -30 30 -43 0 -13 29 -50 80 -99 44 -43 89 -96 100 -118 11 -22 38 -51
59 -64 22 -14 52 -44 68 -68 16 -24 42 -48 58 -54 17 -5 80 -60 141 -121 62
-60 145 -132 185 -159 41 -26 101 -73 134 -104 33 -31 94 -79 135 -105 41 -27
88 -61 105 -76 16 -14 50 -36 75 -49 25 -12 65 -39 89 -58 71 -58 155 -112
172 -112 15 0 41 -18 183 -127 62 -48 55 -57 -49 -66 -109 -9 -108 -9 -270 1
-71 4 -140 13 -152 20 -12 7 -46 12 -75 12 -29 0 -73 6 -98 14 -86 27 -135 38
-210 46 -74 8 -127 23 -206 60 -62 28 -251 90 -277 90 -12 0 -63 27 -112 60
-50 33 -100 60 -111 60 -33 0 -74 -37 -74 -68 0 -41 35 -89 82 -113 24 -12 57
-32 73 -44 44 -33 111 -65 136 -65 33 0 144 -39 232 -82 43 -21 89 -38 103
-38 14 0 55 -14 91 -30 l64 -30 84 0 c46 0 96 -5 112 -12 15 -6 60 -15 98 -19
39 -4 106 -12 150 -18 44 -5 243 -10 443 -10 l363 -1 56 -26 c31 -14 90 -36
130 -49 41 -14 86 -33 101 -44 96 -67 364 -161 517 -180 34 -5 70 -13 82 -19
12 -7 35 -12 52 -12 16 0 33 -4 36 -10 4 -6 96 -10 244 -10 l239 0 54 33 c29
17 75 49 101 71 l47 38 0 112 0 112 -20 40 c-26 52 -154 184 -210 216 -25 14
-54 36 -65 48 -26 29 -57 44 -152 75 -43 14 -97 34 -119 45 -140 65 -261 81
-464 62 l-95 -8 -86 -42 c-47 -23 -93 -42 -101 -42 -9 0 -38 -18 -64 -41 -27
-22 -74 -53 -104 -69 -30 -16 -68 -38 -85 -49 -44 -30 -121 -28 -193 5 -31 14
-100 54 -152 89 -52 35 -109 66 -127 70 -17 3 -51 23 -75 44 -24 21 -54 44
-68 51 -47 24 -190 122 -234 161 -24 22 -52 39 -62 39 -9 0 -36 20 -58 44 -23
24 -73 66 -112 93 -40 26 -119 91 -175 144 -57 53 -126 115 -154 137 -64 51
-271 264 -355 366 -36 43 -73 82 -82 87 -10 5 -30 31 -44 57 -15 26 -49 68
-75 94 -33 32 -50 58 -55 83 -3 20 -24 56 -46 83 -39 46 -108 174 -108 200 0
7 -11 34 -23 60 -13 26 -34 79 -47 119 l-23 72 11 26 12 25 135 0 136 0 62 31
c93 47 97 52 97 126 0 72 -28 139 -77 185 -30 29 -221 128 -246 128 -9 0 -19
5 -22 10 -3 6 -47 10 -98 9 l-92 0 -60 -45z m253 -161 c40 -18 109 -67 129
-91 9 -10 9 -20 2 -33 -21 -40 -208 -8 -251 43 -24 27 -23 44 7 73 28 29 63
32 113 8z m2879 -2338 c19 -8 54 -15 77 -15 27 0 70 -14 131 -43 50 -24 126
-54 169 -67 l80 -25 52 -52 c29 -29 56 -53 61 -53 18 0 76 -65 94 -105 21 -46
25 -145 7 -163 -7 -7 -31 -12 -54 -12 -23 0 -58 -7 -77 -15 -50 -21 -244 -21
-294 0 -22 9 -68 15 -122 15 l-86 0 -63 30 c-35 17 -76 30 -91 30 -14 0 -43
11 -62 24 -38 26 -145 66 -177 66 -48 0 -123 38 -162 82 -22 25 -40 51 -40 56
0 21 90 102 141 128 30 14 66 35 80 45 38 26 217 87 262 88 21 1 54 -6 74 -14z"/>
</g>
</svg>
