<?xml version="1.0" standalone="no"?>
<!DOCTYPE svg PUBLIC "-//W3C//DTD SVG 20010904//EN"
 "http://www.w3.org/TR/2001/REC-SVG-20010904/DTD/svg10.dtd">
<svg version="1.0" xmlns="http://www.w3.org/2000/svg"
 width="261.000000pt" height="312.000000pt" viewBox="0 0 261.000000 312.000000"
 preserveAspectRatio="xMidYMid meet">
<metadata>
Created by potrace 1.16, written by Peter Selinger 2001-2019
</metadata>
<g transform="translate(0.000000,312.000000) scale(0.100000,-0.100000)"
fill="#000000" stroke="none">
<path d="M78 3077 c-14 -23 -34 -60 -43 -82 -10 -22 -21 -48 -26 -57 -13 -25
-11 -315 1 -323 6 -3 10 -17 10 -30 0 -35 66 -227 102 -299 16 -32 45 -81 64
-108 18 -27 36 -65 40 -84 4 -23 18 -44 46 -65 21 -17 51 -54 65 -83 14 -28
41 -69 60 -91 18 -22 36 -51 40 -65 3 -14 21 -42 39 -62 18 -20 42 -55 53 -77
11 -22 40 -52 63 -68 27 -18 54 -48 71 -80 15 -29 45 -65 67 -80 21 -15 52
-48 68 -73 17 -25 50 -58 74 -73 24 -16 53 -42 65 -60 34 -49 203 -220 245
-248 20 -13 49 -43 64 -67 15 -24 52 -60 82 -80 31 -20 79 -59 107 -87 29 -27
64 -58 79 -68 14 -10 26 -27 26 -37 0 -25 -44 -27 -97 -5 -19 8 -60 15 -90 15
-29 0 -70 7 -90 15 -19 8 -53 15 -75 15 -21 0 -55 7 -75 15 -27 12 -81 15
-240 15 l-204 0 -59 -20 c-73 -24 -184 -110 -211 -162 -26 -51 -24 -86 11
-160 16 -34 30 -70 30 -78 0 -22 89 -149 121 -172 l26 -20 32 17 c18 9 35 23
38 31 7 20 -14 96 -49 169 -45 95 -33 170 32 209 l28 16 214 0 c156 0 225 -4
258 -14 78 -25 133 -37 195 -45 34 -5 70 -13 82 -19 12 -7 32 -12 45 -12 13 0
62 -13 108 -30 47 -16 96 -30 110 -30 14 0 67 -20 118 -45 52 -25 98 -45 104
-45 5 0 37 -13 71 -28 34 -16 74 -32 88 -35 14 -4 54 -31 88 -62 34 -30 69
-55 77 -55 42 0 154 -74 154 -101 0 -5 21 -9 46 -9 34 0 50 5 63 21 l16 20 28
-10 c47 -18 77 -14 77 10 0 40 -139 195 -186 208 -18 5 -46 18 -61 29 -15 11
-48 29 -73 42 -25 12 -67 40 -93 62 -26 22 -63 44 -82 49 -19 5 -58 31 -87 57
-29 27 -87 70 -128 97 -41 27 -88 61 -105 76 -16 14 -53 38 -81 52 -54 27 -88
59 -126 117 -16 23 -38 40 -68 50 -30 10 -52 27 -68 50 -34 50 -58 75 -106
105 -23 14 -52 41 -65 60 -12 19 -47 52 -76 74 -78 59 -201 186 -209 214 -5
23 -53 70 -110 110 -14 10 -37 40 -51 67 -14 27 -42 61 -64 76 -21 16 -49 44
-62 64 -12 19 -33 46 -45 60 -31 36 -111 156 -135 202 -11 22 -40 64 -64 94
-24 30 -51 75 -58 101 -8 27 -47 113 -86 192 l-71 143 0 53 c0 35 5 59 16 69
19 19 17 19 61 1 19 -8 53 -15 75 -15 21 0 55 -7 75 -15 48 -20 152 -20 181 1
29 20 72 105 72 141 0 33 -40 149 -67 195 -11 20 -44 47 -81 68 -33 19 -96 56
-138 83 l-77 47 -131 0 -131 -1 -27 -42z m312 -164 l93 -48 39 -55 c42 -61 43
-86 1 -96 -13 -4 -43 1 -66 10 -24 9 -51 16 -62 16 -10 0 -47 10 -83 22 -75
25 -97 51 -89 103 6 40 42 95 61 95 6 0 54 -21 106 -47z"/>
</g>
</svg>
