<?xml version="1.0" encoding="UTF-8" standalone="no"?>
<!-- Created with Inkscape (http://www.inkscape.org/) -->

<svg
   version="1.1"
   id="svg1"
   width="313.09875"
   height="130.84221"
   viewBox="0 0 313.09875 130.84221"
   xmlns="http://www.w3.org/2000/svg"
   xmlns:svg="http://www.w3.org/2000/svg">
  <defs
     id="defs1" />
  <g
     id="g1"
     transform="translate(0.07301354,-0.08471919)">
    <path
       style="fill:#000000"
       d="m 250.30556,129.49464 c -7.85613,-1.70753 -20.92097,-7.81338 -31.54542,-14.74274 -10.46881,-6.82785 -30.56987,-23.632077 -41.96251,-35.080122 l -8.78549,-8.828222 -19.25607,1.227389 C 122.70437,73.73149 96.229592,73.757183 54.5,72.162416 35.25,71.426745 15.096072,71.138962 9.7134932,71.522899 L -0.07301354,72.220965 1.6296828,68.650374 C 2.690642,66.425519 4.4226298,64.699719 6.2250994,64.071375 12.050661,62.040573 27.308284,61.787157 63,63.128391 c 42.06311,1.580661 59.83221,1.688806 83.22129,0.506493 l 16.72128,-0.845257 -1.62706,-3.144814 C 155.21014,47.844227 155.87717,32.189339 163.10104,17.739732 167.81594,8.3087045 170.7115,5.0214299 176.73147,2.2653983 186.71734,-2.3062831 199,0.69284365 199,7.7028307 199,11.354255 193.52002,21.336234 189.65003,24.73413 185.55046,28.3336 176.37292,32 171.46249,32 c -3.24217,0 -3.46173,0.206802 -3.45062,3.25 0.0256,7.004799 3.6785,16.852091 8.77469,23.654198 l 2.55045,3.404198 25.08149,-0.904198 c 42.03546,-1.515395 59.60324,-1.165308 69.88285,1.392611 17.75058,4.416953 27.1729,10.47532 34.81594,22.385972 5.01453,7.814474 5.18624,14.539926 0.61687,24.161729 -3.92211,8.25885 -6.78313,10.91166 -16.84732,15.62126 -12.2933,5.75273 -28.84905,7.51357 -42.58128,4.52887 z m 39.89633,-10.46071 c 3.13604,-1.1779 7.12569,-3.47166 8.86589,-5.09725 3.02025,-2.82133 3.14572,-3.24279 2.76156,-9.27598 -0.44109,-6.927099 -3.60991,-13.038953 -10.36831,-19.997855 -7.04582,-7.254857 -25.43391,-13.8445 -42.6825,-15.295905 -4.24681,-0.357354 -19.9102,-0.06358 -34.80754,0.652842 l -27.08606,1.302577 6.5091,5.874696 c 28.61291,25.824195 49.57334,39.408435 66.91153,43.364675 8.55395,1.95184 22.53421,1.2374 29.89633,-1.5278 z M 184.92327,20.411106 c 5.44092,-4.578225 3.11783,-10.059394 -4.70838,-11.1091085 -3.57486,-0.47949 -4.17773,-0.2165608 -6.49976,2.8347455 -1.40768,1.849792 -2.86222,4.576807 -3.23232,6.060035 -0.60343,2.418329 -0.32753,2.796214 2.67214,3.659812 5.65445,1.627906 8.53651,1.273907 11.76832,-1.445484 z"
       id="path1" />
  </g>
</svg>
