<?xml version="1.0" standalone="no"?>
<!DOCTYPE svg PUBLIC "-//W3C//DTD SVG 20010904//EN"
 "http://www.w3.org/TR/2001/REC-SVG-20010904/DTD/svg10.dtd">
<svg version="1.0" xmlns="http://www.w3.org/2000/svg"
 width="603.000000pt" height="198.000000pt" viewBox="0 0 603.000000 198.000000"
 preserveAspectRatio="xMidYMid meet">
<metadata>
Created by potrace 1.16, written by Peter Selinger 2001-2019
</metadata>
<g transform="translate(0.000000,198.000000) scale(0.100000,-0.100000)"
fill="#000000" stroke="none">
<path d="M5026 1927 l-56 -53 0 -81 c0 -49 6 -95 15 -116 8 -20 15 -48 15 -62
0 -14 16 -58 36 -98 l36 -72 146 -148 c98 -99 164 -157 197 -174 28 -14 70
-42 95 -63 57 -47 89 -63 186 -95 83 -27 104 -40 104 -61 0 -18 -64 -117 -93
-145 -29 -28 -158 -89 -188 -89 -13 0 -62 -14 -109 -30 -46 -17 -101 -30 -121
-30 -20 0 -53 -7 -72 -15 -23 -9 -68 -15 -120 -15 -54 0 -98 -6 -122 -16 l-37
-15 -202 5 c-110 3 -210 5 -221 5 -11 1 -63 -2 -116 -5 -75 -5 -104 -2 -133
10 -30 12 -75 16 -198 16 -118 0 -168 4 -195 15 -22 9 -67 15 -120 15 -52 0
-97 6 -120 15 -19 8 -60 15 -90 15 -29 0 -70 7 -90 15 -23 10 -69 15 -135 15
-65 0 -111 5 -135 15 -19 8 -60 15 -90 15 -29 0 -70 7 -90 15 -19 8 -45 15
-56 15 -12 0 -81 20 -154 45 -73 25 -148 45 -168 45 -20 0 -52 7 -72 15 -19 8
-47 15 -60 15 -14 0 -54 14 -90 30 -35 16 -74 30 -87 30 -12 0 -60 13 -106 30
-47 16 -96 30 -109 30 -36 0 -186 75 -230 115 -24 22 -49 35 -65 35 -15 0 -43
7 -63 15 -46 19 -86 19 -126 -1 -53 -27 -67 -44 -67 -84 0 -44 24 -70 64 -70
15 0 55 -13 89 -28 34 -16 73 -32 87 -35 14 -4 47 -24 74 -47 26 -22 56 -40
65 -40 50 -1 307 -174 355 -238 19 -26 48 -57 65 -70 19 -14 48 -57 75 -110
52 -105 58 -123 47 -141 l-9 -14 -34 13 c-48 19 -67 38 -99 102 -34 67 -60 88
-112 88 -51 0 -97 -43 -97 -91 0 -65 -68 -136 -144 -150 -51 -9 -117 -26 -176
-45 -35 -11 -114 -14 -348 -14 l-303 0 -36 15 c-19 8 -60 15 -90 15 -29 0 -70
7 -90 15 -21 9 -67 15 -117 15 l-81 0 -117 40 c-65 21 -130 46 -146 54 -16 8
-82 33 -148 54 -65 22 -148 57 -184 79 -36 21 -82 46 -103 56 l-38 17 3 -71 3
-72 70 -49 c96 -67 124 -81 264 -127 66 -22 138 -52 158 -66 21 -14 49 -25 63
-25 14 0 64 -13 110 -30 l85 -30 98 0 c64 0 110 -5 134 -15 22 -9 68 -15 124
-15 48 0 91 -4 94 -10 7 -11 517 -14 528 -3 21 21 119 43 189 43 87 0 183 26
233 64 17 13 46 29 66 36 l35 13 89 -42 88 -41 61 0 62 0 69 48 c43 30 72 58
77 73 3 13 11 45 17 72 l11 47 -31 62 c-17 34 -55 97 -85 140 -30 44 -57 90
-60 103 l-6 25 68 0 c48 0 95 -9 159 -29 103 -33 160 -49 227 -61 26 -5 56
-13 67 -19 11 -6 38 -11 61 -11 22 0 57 -7 77 -15 23 -10 69 -15 135 -15 65 0
111 -5 135 -15 20 -8 66 -15 105 -15 38 0 84 -7 105 -15 26 -11 76 -15 195
-15 118 0 168 -4 195 -15 l35 -15 450 0 c334 0 455 3 471 12 12 7 69 15 127
19 101 6 142 14 240 45 25 8 68 14 97 14 36 0 71 9 116 30 36 17 72 30 80 30
8 0 37 18 63 41 27 22 61 43 77 46 28 6 62 43 111 121 14 23 40 54 56 69 l30
26 0 84 0 83 -90 45 c-63 32 -102 45 -131 45 -57 0 -171 55 -239 116 -30 27
-71 60 -90 73 -44 29 -69 62 -76 100 l-6 30 96 100 96 99 0 57 0 57 -62 65
c-69 71 -130 107 -195 116 -23 3 -55 14 -72 26 l-29 21 -75 0 -75 0 -56 -53z
m288 -164 c102 -32 127 -70 90 -133 -33 -55 -103 -76 -142 -42 -21 17 -62 120
-62 153 0 25 30 51 48 44 9 -3 39 -13 66 -22z"/>
</g>
</svg>
