<?xml version="1.0" standalone="no"?>
<!DOCTYPE svg PUBLIC "-//W3C//DTD SVG 20010904//EN"
 "http://www.w3.org/TR/2001/REC-SVG-20010904/DTD/svg10.dtd">
<svg version="1.0" xmlns="http://www.w3.org/2000/svg"
 width="447.000000pt" height="285.000000pt" viewBox="0 0 447.000000 285.000000"
 preserveAspectRatio="xMidYMid meet">
<metadata>
Created by potrace 1.16, written by Peter Selinger 2001-2019
</metadata>
<g transform="translate(0.000000,285.000000) scale(0.100000,-0.100000)"
fill="#000000" stroke="none">
<path d="M1745 2840 c-3 -5 -20 -10 -36 -10 -50 0 -105 -36 -148 -97 -47 -65
-49 -83 -18 -138 l22 -40 100 -52 c100 -52 125 -59 245 -69 l65 -6 32 24 c18
12 48 36 67 51 47 38 92 44 147 19 76 -35 109 -92 109 -187 l0 -56 -47 -27
c-25 -15 -59 -39 -75 -54 l-28 -26 0 -71 0 -70 56 -63 c31 -35 65 -81 76 -103
11 -22 35 -56 53 -75 18 -19 48 -57 66 -85 71 -104 117 -161 232 -281 64 -68
117 -129 117 -136 0 -6 63 -74 140 -151 78 -77 150 -157 161 -178 10 -21 32
-46 47 -56 49 -30 72 -56 72 -81 l0 -24 -27 7 c-16 3 -77 10 -138 14 -60 4
-120 12 -132 19 -34 19 -430 17 -476 -3 -20 -8 -61 -15 -90 -15 -30 0 -71 -7
-90 -15 -23 -9 -68 -15 -120 -15 -53 0 -98 -6 -120 -15 -27 -11 -75 -15 -182
-15 l-145 0 -53 -26 c-28 -14 -72 -29 -97 -34 -25 -5 -74 -16 -110 -25 -121
-31 -150 -35 -229 -35 -47 0 -93 -6 -114 -15 -46 -19 -98 -19 -144 0 -26 11
-76 15 -195 15 -118 0 -168 4 -195 15 -19 8 -60 15 -90 15 -29 0 -70 7 -90 15
-19 8 -53 15 -75 15 -23 0 -67 13 -105 30 -72 34 -110 37 -153 15 -22 -12 -30
-23 -30 -43 0 -36 37 -71 117 -111 l62 -31 71 0 c40 0 86 -6 107 -15 19 -8 53
-15 75 -15 21 0 55 -7 75 -15 19 -8 60 -15 90 -15 29 0 70 -7 90 -15 52 -22
524 -22 576 0 20 8 61 15 90 15 30 0 71 7 90 15 20 8 53 15 74 15 21 0 76 14
123 30 61 22 102 30 151 30 37 0 83 7 102 15 20 8 54 15 75 15 22 0 56 7 75
15 24 10 70 15 137 15 62 0 110 5 123 12 13 8 87 16 182 20 195 10 172 10 385
-1 134 -6 188 -13 230 -28 30 -11 87 -24 125 -28 39 -4 85 -13 104 -21 18 -8
59 -14 91 -14 l57 0 43 -32 c24 -18 62 -46 84 -62 23 -15 52 -38 66 -50 14
-12 38 -31 55 -41 16 -10 50 -37 75 -60 25 -23 65 -53 90 -67 25 -14 55 -40
68 -57 12 -17 46 -43 75 -57 29 -15 66 -37 82 -49 17 -13 54 -35 83 -50 29
-15 59 -36 66 -47 l13 -19 94 3 94 3 3 78 3 78 -20 25 c-11 14 -23 41 -27 60
-4 24 -18 44 -48 66 -22 17 -69 58 -103 90 -34 32 -69 58 -78 58 -23 0 -82 28
-129 62 -21 15 -46 28 -55 28 -9 0 -36 14 -61 30 -25 16 -58 30 -73 30 -16 0
-58 14 -94 30 -35 17 -70 30 -76 30 -20 1 -78 32 -152 82 -73 49 -545 515
-545 538 0 7 -56 69 -124 139 -67 69 -135 145 -149 168 -15 23 -38 50 -52 59
-14 9 -38 38 -53 63 -24 41 -67 101 -136 186 -44 55 -106 154 -106 169 0 8 16
27 36 42 21 17 49 55 71 97 l35 70 -5 51 c-4 45 -10 70 -35 165 -4 14 -30 41
-60 62 -30 20 -70 53 -90 72 -44 42 -134 88 -237 122 -41 13 -92 36 -112 50
-21 14 -52 25 -70 25 -17 0 -35 5 -38 10 -3 6 -35 10 -70 10 -35 0 -67 -4 -70
-10z m115 -170 c26 -13 40 -27 40 -40 0 -28 -11 -30 -67 -14 -61 18 -81 37
-63 59 17 20 43 19 90 -5z"/>
</g>
</svg>
