<?xml version="1.0" standalone="no"?>
<!DOCTYPE svg PUBLIC "-//W3C//DTD SVG 20010904//EN"
 "http://www.w3.org/TR/2001/REC-SVG-20010904/DTD/svg10.dtd">
<svg version="1.0" xmlns="http://www.w3.org/2000/svg"
 width="195.000000pt" height="213.000000pt" viewBox="0 0 195.000000 213.000000"
 preserveAspectRatio="xMidYMid meet">
<metadata>
Created by potrace 1.16, written by Peter Selinger 2001-2019
</metadata>
<g transform="translate(0.000000,213.000000) scale(0.100000,-0.100000)"
fill="#000000" stroke="none">
<path d="M30 2088 c-7 -24 -17 -47 -22 -52 -12 -15 -10 -344 2 -351 6 -4 26
-38 46 -76 39 -79 87 -144 187 -255 37 -41 74 -89 82 -105 9 -16 35 -41 58
-56 23 -14 69 -52 102 -83 33 -31 98 -82 145 -113 113 -75 186 -145 195 -188
12 -57 75 -171 120 -220 23 -25 54 -63 67 -85 14 -22 45 -52 69 -67 24 -15 60
-51 79 -80 27 -39 46 -55 75 -65 22 -7 55 -25 74 -40 71 -56 140 -101 212
-138 41 -21 92 -51 113 -66 21 -16 47 -28 57 -28 10 0 21 -4 24 -10 4 -6 55
-10 121 -10 l114 0 0 34 c0 26 -7 39 -32 58 -38 29 -112 68 -129 68 -16 0
-142 63 -209 104 -182 113 -227 147 -321 244 -156 161 -157 199 -5 128 65 -31
111 -46 137 -46 24 0 67 -12 106 -30 l64 -30 107 0 107 0 50 28 c37 20 57 40
77 77 15 28 28 58 28 68 0 21 -63 150 -95 192 -12 17 -34 54 -49 82 -18 36
-40 62 -68 79 -23 15 -72 55 -109 90 -38 35 -75 64 -84 64 -22 0 -175 93 -205
125 -18 19 -33 25 -67 25 -34 0 -60 10 -111 40 -36 22 -82 45 -102 50 -19 5
-59 21 -88 35 -39 19 -68 25 -116 25 l-64 0 -61 -45 -61 -45 0 -47 c0 -26 10
-71 22 -100 12 -29 19 -56 15 -59 -14 -14 -74 23 -132 81 -34 33 -73 68 -88
78 -15 10 -38 40 -51 66 -14 26 -40 59 -59 73 -41 32 -83 139 -66 169 l10 19
77 0 78 0 29 29 c15 17 37 31 49 33 22 3 63 57 73 96 12 51 -51 146 -131 197
-24 15 -50 38 -57 51 l-12 24 -182 0 -182 0 -13 -42z m347 -134 c28 -18 39
-58 24 -90 l-11 -24 -41 0 c-64 0 -149 45 -149 78 0 9 10 26 22 39 l22 24 56
-7 c30 -3 65 -12 77 -20z m638 -674 c37 -16 72 -30 78 -30 7 0 32 -14 57 -30
34 -22 57 -30 91 -30 36 0 55 -7 85 -30 21 -16 83 -59 136 -96 126 -85 226
-191 263 -278 30 -71 28 -90 -10 -108 -20 -9 -36 -9 -68 1 -23 7 -62 16 -87
21 -25 5 -69 20 -97 34 -29 14 -64 26 -78 26 -30 0 -179 87 -215 125 -16 17
-34 25 -56 25 -23 0 -37 6 -44 20 l-11 21 40 36 c67 59 52 98 -66 177 -24 16
-59 48 -79 73 l-36 44 12 14 c15 19 7 20 85 -15z"/>
</g>
</svg>
