<?xml version="1.0" standalone="no"?>
<!DOCTYPE svg PUBLIC "-//W3C//DTD SVG 20010904//EN"
 "http://www.w3.org/TR/2001/REC-SVG-20010904/DTD/svg10.dtd">
<svg version="1.0" xmlns="http://www.w3.org/2000/svg"
 width="381.000000pt" height="243.000000pt" viewBox="0 0 381.000000 243.000000"
 preserveAspectRatio="xMidYMid meet">
<metadata>
Created by potrace 1.16, written by Peter Selinger 2001-2019
</metadata>
<g transform="translate(0.000000,243.000000) scale(0.100000,-0.100000)"
fill="#000000" stroke="none">
<path d="M0 2320 c0 -61 4 -118 8 -128 5 -9 53 -106 106 -215 53 -109 122
-235 152 -279 30 -44 64 -99 75 -122 12 -22 45 -66 74 -96 29 -30 64 -72 78
-92 31 -47 140 -170 191 -217 22 -20 56 -54 75 -75 20 -22 54 -56 75 -75 136
-124 165 -149 197 -171 20 -13 45 -36 55 -52 22 -35 117 -112 229 -186 44 -30
91 -64 105 -76 52 -45 124 -89 252 -153 73 -37 151 -79 172 -95 21 -15 51 -28
65 -28 35 0 127 -32 221 -76 112 -53 245 -92 360 -104 41 -4 89 -12 105 -18
75 -26 127 -35 215 -39 52 -2 99 -9 105 -14 5 -5 136 -9 308 -9 l299 0 26 19
c15 10 66 31 115 46 l87 27 30 38 c22 28 30 49 30 78 l0 40 -42 31 c-23 17
-53 31 -66 31 -23 0 -60 -32 -93 -81 -9 -14 -45 -42 -79 -63 l-63 -39 -229 1
c-178 2 -236 5 -264 17 -20 8 -54 15 -76 15 -21 0 -55 7 -75 15 -19 8 -52 15
-72 15 -20 0 -56 6 -81 14 -87 27 -136 38 -205 45 -78 8 -235 58 -338 108 -82
40 -178 73 -211 73 -13 0 -44 16 -68 35 -47 37 -178 108 -218 118 -14 4 -43
22 -65 40 -22 19 -63 46 -91 60 -28 14 -75 48 -105 74 -30 27 -90 73 -135 103
-45 29 -91 69 -104 87 -13 19 -37 44 -54 56 -30 20 -171 147 -229 204 -61 61
-279 316 -317 373 -14 19 -41 53 -61 75 -46 49 -129 175 -129 194 0 8 -16 40
-36 70 -76 119 -114 191 -114 217 0 15 -16 53 -36 83 -57 90 -114 189 -114
200 0 6 -9 11 -20 11 l-20 0 0 -110z"/>
<path d="M2524 1736 l-44 -43 0 -121 c0 -97 4 -135 21 -186 l21 -64 128 -124
c137 -132 210 -192 287 -233 26 -14 72 -41 100 -59 48 -30 95 -48 233 -86 62
-18 204 -24 229 -10 11 6 25 19 31 30 l11 20 -25 25 c-17 17 -36 25 -58 25
-18 0 -62 14 -96 30 -35 17 -68 30 -74 30 -5 0 -35 12 -66 26 -31 15 -69 30
-83 34 -75 22 -277 192 -266 224 2 6 35 26 73 46 l69 35 27 50 c15 28 28 65
28 83 0 44 -41 123 -82 156 -95 76 -150 117 -187 135 l-40 21 -97 0 -97 0 -43
-44z m284 -163 c29 -20 60 -49 68 -65 23 -45 6 -58 -77 -58 l-68 0 -21 30
c-30 42 -36 92 -15 113 25 26 55 21 113 -20z"/>
</g>
</svg>
