<?xml version="1.0" standalone="no"?>
<!DOCTYPE svg PUBLIC "-//W3C//DTD SVG 20010904//EN"
 "http://www.w3.org/TR/2001/REC-SVG-20010904/DTD/svg10.dtd">
<svg version="1.0" xmlns="http://www.w3.org/2000/svg"
 width="306.000000pt" height="456.000000pt" viewBox="0 0 306.000000 456.000000"
 preserveAspectRatio="xMidYMid meet">
<metadata>
Created by potrace 1.16, written by Peter Selinger 2001-2019
</metadata>
<g transform="translate(0.000000,456.000000) scale(0.100000,-0.100000)"
fill="#000000" stroke="none">
<path d="M62 4522 c-24 -22 -42 -48 -42 -60 0 -11 -5 -24 -10 -27 -13 -8 -13
-102 0 -110 6 -3 10 -19 10 -34 0 -16 7 -45 15 -64 8 -20 15 -48 15 -62 0 -32
34 -99 70 -141 15 -17 52 -69 82 -115 58 -87 255 -288 335 -342 46 -30 123
-139 123 -174 0 -12 18 -59 40 -104 22 -46 40 -89 40 -97 0 -8 18 -34 39 -59
22 -24 43 -59 46 -76 4 -18 20 -45 35 -62 31 -34 120 -178 120 -195 0 -20 32
-74 66 -112 19 -21 61 -93 95 -160 34 -68 71 -136 84 -153 12 -16 30 -46 40
-65 9 -19 33 -60 52 -90 63 -101 113 -189 113 -201 0 -7 16 -38 36 -68 58 -90
114 -189 114 -201 0 -17 106 -222 134 -260 15 -19 33 -57 41 -84 8 -27 25 -63
39 -80 24 -33 98 -175 110 -213 l7 -22 -69 -66 c-38 -36 -77 -83 -87 -105
l-18 -40 13 -56 c9 -36 29 -76 59 -116 68 -90 239 -265 296 -303 28 -19 66
-50 85 -70 19 -19 50 -40 70 -45 19 -5 57 -28 84 -50 26 -22 55 -40 63 -40 8
0 44 -18 81 -40 37 -23 78 -43 92 -47 47 -10 170 -74 183 -93 l12 -20 117 0
117 0 26 25 25 26 0 89 0 89 -47 38 c-26 21 -74 63 -108 94 -66 62 -130 99
-171 99 -15 0 -83 27 -151 60 -150 72 -192 77 -263 30 -58 -38 -87 -38 -140 2
-24 18 -60 44 -79 58 -22 16 -41 40 -49 64 -7 22 -26 54 -43 74 -41 46 -53 75
-45 107 l7 27 22 -7 c12 -4 48 -9 80 -12 l58 -5 19 17 c16 15 20 31 20 83 l0
65 -35 38 c-19 21 -46 62 -61 91 -14 29 -42 78 -61 108 -60 95 -113 189 -113
200 0 20 -80 165 -115 208 -22 28 -35 54 -35 73 0 36 -24 85 -91 185 -28 42
-55 90 -60 107 -5 18 -24 57 -44 87 -47 75 -105 191 -105 211 0 9 -18 39 -41
65 -22 27 -65 98 -96 158 -30 61 -72 130 -93 155 -21 26 -62 93 -90 151 -29
58 -68 123 -86 144 -19 22 -39 56 -44 76 -5 19 -26 62 -46 95 -33 55 -64 132
-64 163 0 9 26 12 98 12 72 0 103 4 120 16 35 24 72 106 72 161 l0 47 -45 67
c-49 73 -97 119 -123 119 -9 0 -59 20 -110 45 l-94 45 -60 0 -61 0 -38 -35
c-51 -46 -80 -53 -118 -26 -88 63 -197 234 -170 267 6 8 22 14 36 14 38 0 144
58 196 108 l47 46 0 69 0 69 -67 69 c-49 51 -77 72 -107 80 -23 6 -53 20 -67
30 l-27 19 -134 0 -135 0 -41 -38z m304 -157 c104 -50 125 -85 79 -130 l-24
-25 -74 0 c-91 0 -108 12 -136 94 -26 75 -17 96 41 96 26 0 67 -13 114 -35z
m471 -702 c41 -19 110 -67 130 -91 14 -16 8 -38 -13 -46 -19 -7 -70 18 -104
50 -14 13 -38 34 -55 48 l-29 24 13 16 c16 20 12 20 58 -1z m1733 -3328 c16
-8 36 -15 44 -15 26 0 149 -61 179 -88 23 -22 37 -62 21 -62 -16 0 -124 57
-154 82 -19 15 -43 28 -53 28 -34 0 -117 49 -117 70 l0 20 25 -10 c14 -5 38
-16 55 -25z"/>
</g>
</svg>
