<?xml version="1.0" standalone="no"?>
<!DOCTYPE svg PUBLIC "-//W3C//DTD SVG 20010904//EN"
 "http://www.w3.org/TR/2001/REC-SVG-20010904/DTD/svg10.dtd">
<svg version="1.0" xmlns="http://www.w3.org/2000/svg"
 width="459.000000pt" height="174.000000pt" viewBox="0 0 459.000000 174.000000"
 preserveAspectRatio="xMidYMid meet">
<metadata>
Created by potrace 1.16, written by Peter Selinger 2001-2019
</metadata>
<g transform="translate(0.000000,174.000000) scale(0.100000,-0.100000)"
fill="#000000" stroke="none">
<path d="M2973 1722 c-7 -11 -32 -30 -58 -43 -72 -36 -76 -45 -73 -140 l3 -83
34 -23 c19 -13 44 -23 57 -23 23 0 174 -78 205 -106 12 -11 57 -16 177 -21
l160 -6 50 31 c27 18 60 32 73 32 62 0 339 -237 339 -290 0 -11 -12 -27 -26
-37 -56 -38 -127 -109 -145 -145 -17 -34 -39 -100 -69 -208 -7 -25 -15 -97
-19 -160 -3 -63 -10 -121 -14 -127 -5 -7 -27 -13 -50 -13 -23 0 -50 -7 -60
-14 -13 -11 -43 -13 -122 -8 l-104 5 -28 -19 c-43 -28 -117 -36 -395 -41
l-256 -4 -37 16 c-28 11 -74 15 -182 15 -105 0 -153 4 -180 15 -25 11 -72 15
-165 15 -92 0 -139 4 -165 15 -19 8 -53 15 -75 15 -21 0 -55 7 -75 15 -26 11
-74 15 -180 15 -105 0 -153 4 -180 15 -19 8 -45 15 -57 15 -12 0 -60 13 -106
30 -47 16 -101 30 -120 30 -19 0 -55 6 -80 14 -78 24 -133 37 -195 45 -33 5
-83 20 -112 35 -29 14 -58 26 -65 26 -7 0 -42 14 -76 30 -35 17 -76 30 -90 30
-33 0 -134 47 -192 89 -24 17 -51 31 -60 31 -9 0 -58 20 -109 45 -51 25 -106
45 -122 45 l-30 0 3 -42 3 -41 82 -57 c45 -31 102 -65 125 -74 24 -10 57 -25
73 -34 17 -8 62 -32 100 -53 84 -45 542 -199 591 -199 19 0 51 -7 71 -15 19
-8 53 -15 75 -15 21 0 55 -7 75 -15 19 -8 53 -15 75 -15 21 0 55 -7 75 -15 19
-8 52 -15 72 -15 20 0 56 -6 81 -14 107 -34 144 -39 300 -45 103 -4 173 -11
187 -18 14 -9 66 -13 153 -13 93 0 141 -4 167 -15 l35 -15 418 0 418 0 35 15
c42 17 94 19 132 5 l27 -10 39 22 39 22 38 -22 38 -21 40 24 c31 19 53 24 108
25 l69 0 60 -66 c56 -61 136 -114 172 -114 9 0 27 -11 41 -25 l25 -25 158 0
159 0 58 35 c76 46 101 70 130 127 13 26 28 49 34 53 13 8 13 192 0 200 -5 3
-10 27 -10 53 0 35 -7 58 -30 92 -16 25 -30 57 -30 71 0 15 -7 43 -15 62 -8
20 -15 50 -15 66 0 23 -14 46 -56 93 -31 34 -62 75 -70 90 -8 15 -40 44 -71
65 -32 21 -78 59 -103 85 -26 27 -62 52 -85 60 -28 9 -48 25 -67 55 -16 23
-43 52 -60 65 -17 13 -54 46 -82 74 -28 28 -71 63 -96 79 -25 16 -65 45 -89
64 -71 56 -155 111 -170 111 -8 0 -70 27 -139 60 l-124 61 -43 -6 -43 -7 -10
17 c-7 14 -17 16 -48 11 -47 -7 -48 -7 -99 0 l-40 5 -12 -19z m277 -161 c41
-8 63 -19 89 -45 l34 -35 -12 -15 c-10 -12 -32 -16 -79 -16 l-65 0 -72 35
c-40 19 -78 41 -85 50 l-12 15 13 16 c14 17 78 16 189 -5z m862 -666 c20 -13
59 -59 87 -102 l51 -78 0 -55 c0 -86 -20 -108 -155 -175 -120 -59 -203 -87
-224 -75 -9 4 -24 33 -34 64 l-18 55 16 37 c8 20 15 45 15 56 0 11 10 52 23
91 23 74 57 117 141 179 47 34 52 34 98 3z m242 -501 c11 -11 16 -35 16 -83
l0 -68 -41 -56 -40 -57 -67 0 c-114 0 -242 59 -242 111 0 19 35 49 57 49 6 0
49 18 95 40 72 34 179 76 200 79 4 1 14 -6 22 -15z"/>
</g>
</svg>
