<?xml version="1.0" standalone="no"?>
<!DOCTYPE svg PUBLIC "-//W3C//DTD SVG 20010904//EN"
 "http://www.w3.org/TR/2001/REC-SVG-20010904/DTD/svg10.dtd">
<svg version="1.0" xmlns="http://www.w3.org/2000/svg"
 width="249.000000pt" height="357.000000pt" viewBox="0 0 249.000000 357.000000"
 preserveAspectRatio="xMidYMid meet">
<metadata>
Created by potrace 1.16, written by Peter Selinger 2001-2019
</metadata>
<g transform="translate(0.000000,357.000000) scale(0.100000,-0.100000)"
fill="#000000" stroke="none">
<path d="M545 3560 c-3 -5 -16 -10 -27 -10 -11 0 -40 -20 -64 -44 l-44 -43 0
-86 0 -86 56 -63 c31 -35 69 -89 85 -120 20 -40 42 -66 69 -83 22 -14 51 -42
64 -63 13 -20 79 -90 147 -154 68 -65 144 -137 169 -161 25 -24 61 -53 80 -63
19 -10 45 -27 58 -38 25 -22 29 -64 7 -72 -15 -6 -111 24 -181 56 -97 45 -162
60 -254 60 l-91 0 -25 -25 c-32 -32 -27 -40 69 -130 81 -76 139 -121 262 -204
44 -29 95 -66 113 -82 18 -16 37 -29 43 -29 18 0 338 -321 374 -375 18 -28 53
-64 77 -79 24 -15 54 -44 68 -64 13 -20 49 -64 80 -97 31 -33 65 -73 75 -90
11 -16 41 -54 68 -84 26 -30 60 -77 74 -105 14 -28 42 -71 63 -96 48 -59 100
-143 100 -162 0 -8 13 -33 29 -56 46 -62 112 -199 121 -251 10 -52 26 -115 45
-181 7 -25 16 -66 20 -93 13 -99 -21 -115 -75 -35 -43 64 -401 431 -453 464
-20 13 -62 47 -92 74 -30 28 -63 50 -72 50 -20 0 -102 51 -165 102 -30 25 -75
47 -128 64 -46 15 -114 42 -152 61 -106 51 -243 91 -358 103 -41 4 -88 12
-105 18 -120 41 -308 55 -376 28 -22 -9 -51 -16 -64 -16 -29 0 -153 -60 -202
-98 l-33 -24 0 -69 0 -69 36 0 c37 0 65 22 108 85 24 35 148 95 199 95 20 0
54 -7 74 -15 20 -9 66 -15 107 -15 l71 0 63 -30 c35 -17 73 -30 85 -30 12 0
62 -13 112 -29 101 -32 161 -49 220 -60 23 -4 77 -32 126 -64 55 -37 96 -57
115 -57 30 0 137 -64 201 -121 19 -16 42 -29 51 -29 10 0 35 -20 55 -45 20
-24 61 -60 90 -79 28 -19 122 -106 209 -193 124 -127 158 -167 167 -199 6 -22
29 -70 51 -106 29 -49 40 -78 40 -107 l0 -41 90 0 c50 0 90 4 90 8 0 5 15 26
34 48 19 23 44 69 55 105 12 35 26 72 31 81 13 23 13 105 0 113 -5 3 -10 39
-10 79 0 43 -6 89 -15 109 -8 20 -15 47 -15 61 0 13 -13 53 -30 88 -16 34 -30
75 -30 91 0 29 -58 153 -95 202 -12 17 -34 53 -48 80 -25 48 -55 92 -124 185
-18 24 -33 51 -33 61 0 11 -34 56 -75 100 -41 45 -75 86 -75 90 0 5 -34 46
-75 90 -41 45 -75 87 -75 92 0 18 -441 456 -495 492 -65 44 -149 130 -141 144
4 7 42 11 94 11 100 0 121 10 152 70 35 68 31 75 -108 213 -71 70 -133 127
-139 127 -6 0 -46 33 -91 73 -44 39 -92 80 -106 90 -14 10 -37 40 -51 67 -13
26 -38 58 -55 70 -61 43 -29 70 83 70 l75 0 61 45 61 45 0 56 0 56 -80 83 -81
82 -110 36 c-60 21 -121 37 -134 37 -13 0 -27 5 -30 10 -3 6 -35 10 -70 10
-35 0 -67 -4 -70 -10z m164 -160 c24 -11 56 -20 71 -20 26 0 102 -46 127 -78
9 -10 9 -20 2 -34 l-11 -20 -97 4 -98 3 -34 26 c-19 15 -43 43 -54 62 l-19 36
19 20 c23 26 38 26 94 1z"/>
</g>
</svg>
