<?xml version="1.0" standalone="no"?>
<!DOCTYPE svg PUBLIC "-//W3C//DTD SVG 20010904//EN"
 "http://www.w3.org/TR/2001/REC-SVG-20010904/DTD/svg10.dtd">
<svg version="1.0" xmlns="http://www.w3.org/2000/svg"
 width="198.000000pt" height="303.000000pt" viewBox="0 0 198.000000 303.000000"
 preserveAspectRatio="xMidYMid meet">
<metadata>
Created by potrace 1.16, written by Peter Selinger 2001-2019
</metadata>
<g transform="translate(0.000000,303.000000) scale(0.100000,-0.100000)"
fill="#000000" stroke="none">
<path d="M117 3000 c-10 -16 -40 -48 -67 -71 l-50 -42 0 -52 0 -53 46 -37 c71
-58 134 -100 212 -139 l72 -36 60 0 c76 0 122 22 173 84 21 25 44 46 52 46 7
0 25 -14 39 -31 l26 -31 0 -89 0 -90 -27 -25 c-16 -13 -47 -42 -71 -63 l-43
-40 11 -20 c6 -12 23 -27 38 -35 15 -8 49 -33 76 -55 26 -23 56 -41 65 -41 9
0 36 -14 61 -30 25 -16 51 -30 58 -30 30 0 102 -42 160 -94 35 -31 66 -56 71
-56 19 0 196 -175 203 -200 8 -26 54 -73 112 -113 14 -9 30 -33 35 -53 6 -21
36 -63 75 -105 42 -44 82 -101 111 -157 25 -48 61 -106 80 -130 22 -28 35 -54
35 -73 0 -16 9 -48 21 -70 36 -72 69 -183 69 -236 l0 -52 -57 -40 -56 -41 -54
0 c-29 0 -70 7 -90 15 -19 8 -52 15 -72 15 -20 0 -56 6 -81 14 -93 29 -137 38
-225 46 -49 4 -103 12 -120 18 -52 18 -118 33 -175 41 -30 4 -91 19 -135 33
-131 42 -166 50 -242 55 l-73 5 -30 -30 c-39 -39 -39 -75 -1 -113 20 -20 39
-29 61 -29 42 0 154 -52 209 -98 25 -20 61 -47 80 -61 64 -43 100 -110 101
-185 l0 -48 -27 7 c-16 4 -71 9 -123 12 l-95 5 -65 -22 c-86 -29 -136 -55
-154 -82 -38 -53 -3 -151 83 -231 l50 -47 50 0 c27 0 53 -4 56 -10 3 -5 35
-10 70 -10 35 0 67 5 70 10 3 6 28 10 54 10 l48 0 57 41 c36 26 65 57 82 87
13 26 34 61 45 78 l19 32 -10 26 c-5 15 -10 51 -10 81 0 38 -8 71 -30 117 -16
34 -30 71 -30 80 0 10 -20 42 -45 73 -48 58 -45 76 9 55 15 -5 45 -10 67 -10
22 0 56 -7 76 -15 19 -8 53 -15 75 -15 21 0 55 -7 75 -15 22 -9 67 -15 117
-15 44 0 101 -6 126 -14 87 -28 136 -38 210 -45 41 -4 85 -13 97 -19 38 -21
64 -14 109 32 l44 43 0 36 c0 20 5 39 10 42 6 4 10 60 10 137 l0 130 -25 30
c-14 16 -25 42 -25 58 0 15 -7 44 -15 63 -8 20 -15 49 -15 64 0 14 -16 52 -36
82 -65 102 -114 190 -114 205 0 9 -34 53 -75 97 -41 45 -75 86 -75 91 0 5 -29
39 -64 77 -35 37 -75 85 -89 107 -27 43 -86 101 -130 128 -15 9 -52 38 -82 64
-30 26 -82 67 -115 92 -34 25 -86 64 -115 87 -58 45 -114 76 -158 87 -38 9
-43 29 -18 69 l21 34 0 143 0 143 -104 103 -103 104 -33 0 c-19 0 -55 14 -89
35 -64 40 -182 84 -223 85 -15 0 -30 5 -33 10 -3 6 -34 10 -68 10 l-63 0 -17
-30z m248 -150 c56 -25 81 -60 65 -89 l-11 -21 -57 0 c-65 0 -116 27 -142 75
l-14 27 19 14 c27 20 89 17 140 -6z m414 -2616 c58 -49 32 -74 -78 -74 l-69 0
-31 26 c-58 49 -33 73 76 74 l71 0 31 -26z"/>
</g>
</svg>
