<?xml version="1.0" standalone="no"?>
<!DOCTYPE svg PUBLIC "-//W3C//DTD SVG 20010904//EN"
 "http://www.w3.org/TR/2001/REC-SVG-20010904/DTD/svg10.dtd">
<svg version="1.0" xmlns="http://www.w3.org/2000/svg"
 width="216.000000pt" height="303.000000pt" viewBox="0 0 216.000000 303.000000"
 preserveAspectRatio="xMidYMid meet">
<metadata>
Created by potrace 1.16, written by Peter Selinger 2001-2019
</metadata>
<g transform="translate(0.000000,303.000000) scale(0.100000,-0.100000)"
fill="#000000" stroke="none">
<path d="M155 3020 c-3 -5 -16 -10 -28 -10 -13 0 -42 -22 -74 -56 l-53 -56 0
-40 0 -40 76 -71 c42 -40 95 -82 118 -94 l41 -22 93 -1 c107 0 152 17 195 74
15 19 36 37 47 41 32 10 74 -22 120 -94 50 -76 66 -128 46 -151 -23 -26 -46
-78 -46 -103 0 -27 16 -43 75 -76 22 -13 59 -44 81 -70 23 -26 61 -59 86 -74
24 -16 54 -44 67 -63 14 -19 41 -47 62 -62 21 -15 50 -47 66 -71 15 -24 48
-62 74 -85 25 -22 64 -66 87 -96 23 -31 55 -66 72 -78 16 -12 43 -48 59 -80
17 -31 39 -70 50 -87 12 -16 21 -37 21 -46 0 -8 14 -28 30 -44 19 -18 30 -39
30 -56 0 -14 7 -44 16 -65 l17 -39 -1 -182 -1 -183 -17 -36 c-9 -20 -23 -38
-30 -41 -17 -6 -51 13 -97 54 -21 19 -64 50 -95 70 -31 20 -77 56 -102 79 -25
23 -65 52 -90 64 -25 13 -58 33 -75 45 -16 13 -76 46 -132 74 l-103 51 -93 0
-94 0 -56 -41 c-60 -42 -97 -98 -97 -144 0 -14 -7 -42 -15 -62 -19 -45 -19
-81 0 -126 8 -20 15 -48 15 -62 0 -61 93 -185 138 -185 9 0 31 -9 47 -21 17
-11 78 -45 137 -75 l108 -54 224 0 224 0 73 35 c41 19 79 35 87 35 21 0 224
-220 254 -275 6 -11 30 -41 53 -66 24 -25 54 -64 68 -86 15 -23 47 -59 72 -80
26 -21 53 -51 61 -66 l15 -28 47 3 47 3 3 43 3 44 -36 35 c-19 19 -47 57 -61
84 -14 28 -53 84 -87 125 -34 41 -76 97 -93 123 -17 27 -50 71 -75 98 -24 28
-62 78 -83 113 l-39 63 23 51 c55 124 62 156 67 317 4 111 2 162 -6 178 -7 12
-16 43 -21 69 -5 26 -13 65 -19 87 -6 22 -13 51 -15 65 -3 14 -21 50 -40 80
-19 30 -46 76 -60 101 -14 27 -46 62 -75 83 -27 20 -65 60 -84 89 -19 28 -146
162 -281 296 -150 148 -246 251 -246 263 0 10 7 35 15 55 l15 36 -15 50 c-8
27 -25 64 -38 81 -13 17 -36 55 -51 83 -18 36 -40 62 -68 79 -23 15 -72 55
-109 90 -54 51 -75 64 -99 64 -18 0 -61 14 -97 30 -35 17 -71 30 -78 30 -8 0
-17 5 -20 10 -4 6 -53 10 -115 10 -62 0 -111 -4 -115 -10z m223 -136 c47 -33
11 -84 -61 -84 -66 0 -109 39 -87 80 l11 20 57 0 c36 0 66 -6 80 -16z m432
-1739 c25 -8 61 -17 81 -20 22 -3 54 -20 80 -43 54 -47 121 -98 134 -103 42
-17 166 -113 220 -171 89 -96 87 -110 -20 -147 -70 -25 -141 -27 -192 -6 -19
8 -46 15 -59 15 -41 0 -37 20 15 75 34 36 51 62 51 80 0 33 -67 106 -114 123
l-35 13 -39 -20 c-21 -11 -54 -37 -72 -57 l-32 -37 5 -59 c4 -42 2 -58 -7 -58
-25 0 -112 72 -153 126 -72 96 -78 151 -27 231 29 43 68 72 99 73 11 0 40 -7
65 -15z"/>
</g>
</svg>
