<?xml version="1.0" standalone="no"?>
<!DOCTYPE svg PUBLIC "-//W3C//DTD SVG 20010904//EN"
 "http://www.w3.org/TR/2001/REC-SVG-20010904/DTD/svg10.dtd">
<svg version="1.0" xmlns="http://www.w3.org/2000/svg"
 width="183.000000pt" height="258.000000pt" viewBox="0 0 183.000000 258.000000"
 preserveAspectRatio="xMidYMid meet">
<metadata>
Created by potrace 1.16, written by Peter Selinger 2001-2019
</metadata>
<g transform="translate(0.000000,258.000000) scale(0.100000,-0.100000)"
fill="#000000" stroke="none">
<path d="M53 2538 l-53 -40 0 -142 0 -142 27 -12 c16 -6 55 -27 88 -47 64 -37
134 -47 178 -23 12 6 48 14 82 19 33 4 93 17 133 30 l73 22 34 -34 c19 -19 37
-48 41 -65 l6 -31 -30 -34 c-37 -43 -62 -91 -62 -122 0 -16 22 -45 69 -90 38
-37 74 -67 80 -67 5 0 60 -47 120 -105 61 -58 117 -105 125 -105 21 0 193
-175 200 -204 3 -14 24 -40 46 -57 22 -18 40 -41 40 -52 0 -10 24 -42 53 -71
29 -29 70 -77 90 -107 21 -30 51 -72 67 -93 17 -22 30 -51 30 -67 0 -15 20
-69 45 -120 25 -51 45 -98 45 -105 0 -7 13 -41 30 -76 l30 -63 0 -163 0 -163
-25 -24 -24 -25 -430 0 c-310 0 -438 3 -458 12 -15 6 -75 15 -133 19 -58 4
-120 11 -138 15 -66 13 -99 -63 -46 -105 l27 -21 119 0 c83 0 129 -5 155 -15
20 -8 66 -15 105 -15 38 0 84 -7 105 -15 l35 -15 314 0 c198 0 315 -4 319 -10
3 -5 28 -10 55 -10 l49 0 71 68 c45 43 70 75 70 89 0 12 5 25 10 28 6 4 10 83
10 205 0 122 -4 201 -10 205 -5 3 -10 19 -10 35 0 15 -13 57 -30 92 -16 34
-30 69 -30 76 0 25 -154 318 -186 354 -18 20 -42 55 -53 76 -11 22 -42 59 -69
83 -27 24 -61 62 -75 85 -14 23 -46 53 -70 67 -28 17 -57 45 -75 75 -18 30
-47 59 -73 74 -24 15 -54 40 -67 57 -12 17 -49 44 -82 61 -49 25 -217 166
-228 192 -2 4 22 45 52 91 31 46 56 93 56 104 0 11 -18 43 -40 69 -22 27 -45
65 -50 84 -10 36 -51 82 -105 115 -16 10 -50 37 -75 60 -25 24 -70 55 -100 71
-30 15 -67 36 -82 46 l-26 18 -149 -1 -148 0 -52 -41z m247 -76 c49 -24 128
-82 134 -99 3 -8 -4 -24 -17 -35 -25 -22 -148 -68 -182 -68 -31 0 -64 27 -81
68 l-15 37 12 45 c7 25 16 51 22 58 14 17 86 14 127 -6z"/>
</g>
</svg>
