<?xml version="1.0" standalone="no"?>
<!DOCTYPE svg PUBLIC "-//W3C//DTD SVG 20010904//EN"
 "http://www.w3.org/TR/2001/REC-SVG-20010904/DTD/svg10.dtd">
<svg version="1.0" xmlns="http://www.w3.org/2000/svg"
 width="204.000000pt" height="267.000000pt" viewBox="0 0 204.000000 267.000000"
 preserveAspectRatio="xMidYMid meet">
<metadata>
Created by potrace 1.16, written by Peter Selinger 2001-2019
</metadata>
<g transform="translate(0.000000,267.000000) scale(0.100000,-0.100000)"
fill="#000000" stroke="none">
<path d="M125 2660 c-3 -5 -14 -10 -24 -10 -10 0 -37 -22 -59 -49 l-42 -50 0
-53 0 -54 27 -26 c52 -49 194 -139 241 -153 26 -8 103 -17 172 -21 l125 -6 75
36 c41 20 82 36 90 36 23 0 119 -119 126 -156 3 -18 1 -41 -5 -53 l-12 -21
-50 0 -51 0 -29 -29 c-43 -43 -38 -73 16 -115 25 -19 98 -84 163 -144 64 -61
140 -128 167 -150 103 -81 428 -420 489 -510 34 -49 76 -108 94 -132 17 -24
32 -50 32 -59 0 -9 14 -36 30 -61 16 -25 30 -51 30 -58 0 -7 9 -31 21 -53 41
-81 69 -182 69 -250 0 -37 7 -83 15 -102 28 -68 12 -146 -46 -228 l-20 -29
-57 0 c-78 0 -114 25 -152 105 l-20 40 0 121 0 121 -21 26 c-11 15 -37 31 -58
37 -20 5 -56 26 -78 45 -23 19 -88 58 -145 86 -56 29 -123 68 -148 88 -24 20
-81 60 -125 89 -44 30 -91 64 -105 77 -14 13 -49 35 -77 49 -29 15 -83 55
-120 89 -38 35 -81 71 -96 80 -42 27 -52 56 -33 102 24 55 20 88 -19 164 -35
71 -94 127 -145 137 -14 3 -42 14 -62 24 -29 16 -57 20 -133 20 l-97 0 -29
-29 c-16 -16 -29 -39 -29 -51 0 -41 50 -117 130 -195 45 -44 102 -106 126
-138 25 -31 53 -57 63 -57 24 0 121 -71 149 -109 14 -19 37 -34 62 -41 26 -7
49 -23 66 -45 15 -19 58 -56 97 -82 39 -26 85 -59 102 -73 49 -41 116 -85 171
-113 28 -14 76 -49 107 -77 31 -28 69 -55 85 -59 45 -13 158 -91 176 -122 9
-15 16 -45 16 -67 0 -22 7 -56 15 -75 8 -20 15 -48 15 -62 0 -37 41 -110 108
-190 l58 -70 122 -3 121 -3 71 52 c73 53 92 79 116 159 8 26 21 53 29 60 11 9
15 35 15 104 0 51 -4 96 -9 102 -5 5 -11 38 -14 74 -2 36 -10 85 -17 110 -37
134 -56 185 -86 233 -18 28 -45 74 -60 101 -48 90 -140 216 -230 315 -34 37
-73 85 -87 107 -26 42 -55 70 -100 97 -15 10 -38 35 -52 57 -14 22 -39 47 -56
55 -16 9 -72 55 -122 103 -51 48 -116 108 -146 133 l-54 46 12 54 c7 30 19 75
27 100 8 26 14 67 14 92 l0 45 -41 48 c-22 27 -51 70 -64 96 -14 25 -39 57
-57 69 -18 13 -60 49 -93 80 l-60 57 -130 43 c-72 23 -142 50 -157 61 l-26 18
-150 0 c-90 0 -153 -4 -157 -10z m279 -146 c46 -6 117 -37 136 -59 10 -12 10
-18 0 -30 -20 -24 -180 -20 -255 6 -69 24 -85 35 -85 58 0 41 42 46 204 25z"/>
</g>
</svg>
