<?xml version="1.0" standalone="no"?>
<!DOCTYPE svg PUBLIC "-//W3C//DTD SVG 20010904//EN"
 "http://www.w3.org/TR/2001/REC-SVG-20010904/DTD/svg10.dtd">
<svg version="1.0" xmlns="http://www.w3.org/2000/svg"
 width="312.000000pt" height="174.000000pt" viewBox="0 0 312.000000 174.000000"
 preserveAspectRatio="xMidYMid meet">
<metadata>
Created by potrace 1.16, written by Peter Selinger 2001-2019
</metadata>
<g transform="translate(0.000000,174.000000) scale(0.100000,-0.100000)"
fill="#000000" stroke="none">
<path d="M1970 1715 c-25 -27 -59 -115 -60 -156 0 -15 7 -43 15 -62 8 -20 15
-51 15 -69 0 -18 8 -59 17 -92 l18 -58 58 -45 c31 -24 57 -48 57 -53 0 -5 28
-38 63 -74 34 -35 72 -78 85 -95 24 -32 239 -181 261 -181 7 0 42 -14 78 -30
l64 -30 93 0 93 0 16 18 c46 50 6 101 -107 136 -96 31 -248 103 -288 138 -32
28 -128 148 -128 160 0 17 49 58 71 58 24 0 155 121 165 152 3 11 -2 47 -13
80 l-18 60 -50 38 c-55 42 -184 110 -209 110 -8 0 -18 5 -21 10 -4 6 -58 10
-129 10 l-123 0 -23 -25z m297 -201 c58 -40 64 -55 31 -78 -35 -25 -74 -20
-96 12 -30 42 -35 68 -17 86 22 21 22 21 82 -20z"/>
<path d="M325 535 c-16 -8 -54 -14 -83 -15 -32 0 -90 -13 -148 -32 l-95 -33 3
-84 3 -84 165 -83 c176 -88 282 -126 432 -154 26 -5 56 -13 67 -19 11 -6 47
-11 80 -11 33 0 63 -5 66 -10 8 -14 432 -14 440 0 3 6 26 10 51 10 26 0 64 10
94 24 28 13 88 36 134 51 l84 27 60 63 c70 75 107 87 175 61 34 -13 81 -16
230 -16 144 0 196 -3 224 -15 19 -8 60 -15 90 -15 29 0 70 -7 90 -15 22 -9 67
-15 120 -15 52 0 97 -6 120 -15 22 -9 67 -15 119 -15 45 0 95 -5 109 -10 20
-7 40 -6 75 4 81 24 90 32 90 76 l0 39 -30 16 c-16 8 -41 15 -55 15 -14 0 -42
7 -62 15 -23 10 -69 15 -135 15 -65 0 -111 5 -135 15 -23 10 -69 15 -132 15
-55 0 -115 6 -141 14 -101 32 -140 39 -255 45 -66 4 -130 12 -142 19 -14 8
-71 12 -168 12 -107 0 -155 4 -182 15 -24 10 -71 15 -150 15 -78 0 -125 5
-150 15 -24 10 -71 15 -150 15 -78 0 -125 5 -150 15 -27 12 -79 15 -224 15
l-189 0 -41 16 -40 17 -39 -12 c-27 -8 -58 -8 -106 -1 -83 12 -82 12 -119 -5z
m752 -200 c24 -10 71 -15 150 -15 78 0 125 -5 150 -15 19 -8 46 -15 59 -15 28
0 40 -16 24 -34 -17 -21 -114 -66 -142 -66 -14 0 -42 -7 -61 -15 -51 -21 -303
-21 -354 0 -19 8 -58 15 -86 15 -29 0 -91 13 -142 29 -102 33 -161 49 -222 60
-62 11 -106 44 -86 64 3 4 156 7 340 7 l334 0 36 -15z"/>
</g>
</svg>
