<?xml version="1.0" standalone="no"?>
<!DOCTYPE svg PUBLIC "-//W3C//DTD SVG 20010904//EN"
 "http://www.w3.org/TR/2001/REC-SVG-20010904/DTD/svg10.dtd">
<svg version="1.0" xmlns="http://www.w3.org/2000/svg"
 width="432.000000pt" height="168.000000pt" viewBox="0 0 432.000000 168.000000"
 preserveAspectRatio="xMidYMid meet">
<metadata>
Created by potrace 1.16, written by Peter Selinger 2001-2019
</metadata>
<g transform="translate(0.000000,168.000000) scale(0.100000,-0.100000)"
fill="#000000" stroke="none">
<path d="M2645 1670 c-3 -5 -31 -10 -61 -10 -53 0 -166 -31 -192 -53 -29 -24
-62 -106 -62 -156 0 -59 24 -93 105 -146 28 -19 64 -46 79 -60 l27 -25 -10
-19 c-7 -11 -25 -21 -48 -24 -40 -5 -104 -21 -163 -40 -19 -6 -60 -14 -90 -18
-58 -8 -125 -23 -175 -41 -16 -6 -84 -14 -150 -18 -66 -4 -138 -12 -160 -18
-37 -10 -138 -23 -310 -40 -38 -4 -77 -11 -85 -17 -8 -5 -55 -12 -105 -16 -87
-7 -131 -15 -225 -45 -28 -9 -88 -14 -156 -14 -77 0 -123 -5 -147 -15 -21 -8
-67 -15 -105 -15 -39 0 -85 -7 -105 -15 -20 -8 -55 -15 -77 -15 -23 0 -50 -5
-61 -11 -11 -6 -41 -14 -67 -19 -57 -11 -122 -27 -182 -46 -25 -8 -62 -14 -82
-14 l-38 0 0 -73 0 -73 28 -27 c15 -15 33 -27 39 -27 18 0 323 -311 343 -350
23 -44 83 -100 109 -100 17 0 91 -83 91 -102 0 -4 26 -8 58 -8 l59 0 12 40 12
40 -15 27 c-8 16 -53 68 -101 117 -47 49 -88 101 -91 115 -3 14 -8 34 -11 43
-2 10 -23 30 -46 46 -27 17 -53 47 -71 82 -16 30 -38 61 -48 68 -38 27 -13 61
55 73 52 9 117 26 177 45 25 8 75 14 111 14 37 0 83 7 102 15 24 10 70 15 135
15 66 0 112 5 135 15 20 8 54 15 75 15 22 0 56 7 75 15 20 8 54 15 75 15 22 0
56 7 75 15 20 8 54 15 75 15 22 0 56 7 75 15 26 11 73 15 165 15 93 0 140 4
165 15 23 9 69 15 122 15 48 0 96 5 108 12 12 6 48 14 82 19 60 7 118 21 185
42 19 6 60 14 90 18 57 8 113 21 190 45 146 46 314 -17 483 -180 37 -36 75
-66 85 -66 14 0 90 -34 178 -79 6 -3 38 -27 70 -54 33 -26 75 -52 94 -57 66
-18 156 -68 211 -117 30 -27 66 -57 82 -66 15 -10 38 -35 52 -57 23 -37 104
-90 136 -90 18 0 117 -50 130 -66 17 -21 54 -17 109 11 l50 25 0 36 0 36 -76
71 c-42 40 -97 83 -123 96 -25 13 -59 34 -76 46 -16 13 -54 35 -83 50 -29 15
-61 39 -70 52 -9 14 -38 49 -64 78 -62 71 -71 90 -58 115 l11 20 107 0 107 0
50 28 c57 31 104 104 105 160 0 71 -63 157 -145 199 -27 14 -63 36 -80 48 -46
35 -111 65 -139 65 -14 0 -44 7 -67 17 l-41 16 -47 -16 c-25 -10 -59 -17 -75
-17 -42 0 -116 -76 -116 -119 0 -17 -7 -48 -15 -68 -19 -45 -19 -111 0 -156
26 -62 -4 -91 -60 -57 -18 11 -39 27 -46 36 -14 17 -102 64 -120 64 -20 0
-131 73 -146 97 -19 29 -7 69 42 137 l35 50 0 69 0 69 -81 83 -80 83 -65 21
c-35 11 -75 21 -89 21 -13 0 -27 5 -30 10 -3 6 -35 10 -70 10 -35 0 -67 -4
-70 -10z m181 -208 c21 -16 48 -45 58 -64 l20 -36 -18 -27 c-20 -31 -61 -48
-97 -41 -46 9 -199 123 -199 148 0 19 86 48 141 48 l56 0 39 -28z m1010 -348
c19 -9 43 -27 53 -40 10 -13 30 -29 45 -35 50 -23 25 -39 -60 -39 -60 0 -147
33 -184 70 -16 16 -18 25 -10 40 l11 20 55 0 c31 0 71 -7 90 -16z"/>
</g>
</svg>
