<?xml version="1.0" standalone="no"?>
<!DOCTYPE svg PUBLIC "-//W3C//DTD SVG 20010904//EN"
 "http://www.w3.org/TR/2001/REC-SVG-20010904/DTD/svg10.dtd">
<svg version="1.0" xmlns="http://www.w3.org/2000/svg"
 width="369.000000pt" height="216.000000pt" viewBox="0 0 369.000000 216.000000"
 preserveAspectRatio="xMidYMid meet">
<metadata>
Created by potrace 1.16, written by Peter Selinger 2001-2019
</metadata>
<g transform="translate(0.000000,216.000000) scale(0.100000,-0.100000)"
fill="#000000" stroke="none">
<path d="M2334 2116 c-27 -24 -59 -63 -69 -86 l-19 -42 12 -44 c7 -24 12 -55
12 -68 0 -12 13 -41 29 -63 16 -22 46 -75 67 -118 24 -48 53 -89 77 -108 21
-18 51 -45 67 -62 17 -16 50 -50 74 -75 55 -56 141 -122 196 -150 23 -12 61
-35 83 -51 22 -16 52 -29 66 -29 15 0 65 -13 111 -30 65 -23 103 -30 161 -30
l76 0 27 21 c57 45 16 119 -68 119 -50 0 -159 36 -255 84 -39 20 -77 36 -85
36 -7 0 -33 25 -56 56 -45 59 -43 74 8 74 52 0 144 42 212 96 l70 57 0 79 0
79 -25 49 -25 49 -84 56 c-46 30 -103 71 -126 90 -23 19 -50 35 -60 35 -11 0
-22 5 -25 10 -4 6 -83 10 -203 10 l-197 0 -51 -44z m384 -138 l64 -22 87 -79
c89 -83 105 -112 76 -141 l-16 -16 -112 1 c-89 0 -124 5 -172 23 l-60 22 -42
64 c-48 73 -59 140 -25 159 30 18 132 12 200 -11z"/>
<path d="M27 1917 l-27 -11 0 -73 0 -74 39 -52 c21 -29 47 -70 59 -92 11 -22
30 -49 42 -60 12 -11 34 -40 48 -65 14 -25 41 -63 59 -84 18 -22 37 -54 42
-72 5 -19 27 -55 49 -81 22 -26 49 -66 60 -89 26 -50 44 -66 74 -62 28 4 68
62 68 98 0 14 -18 56 -40 93 -22 36 -40 72 -40 79 0 7 -14 33 -30 58 -16 25
-30 52 -30 60 0 9 -11 32 -25 52 -14 20 -25 44 -25 52 0 24 37 19 73 -8 18
-14 67 -36 110 -50 43 -14 90 -34 105 -45 50 -35 152 -81 245 -111 50 -17 110
-43 132 -59 22 -16 90 -54 150 -85 61 -32 135 -73 165 -92 30 -19 73 -39 95
-45 60 -17 171 -75 214 -114 24 -22 49 -35 65 -35 39 0 81 -20 181 -89 49 -33
97 -61 106 -61 23 0 189 -83 239 -119 24 -17 51 -31 60 -31 23 0 189 -82 240
-119 24 -17 49 -31 57 -31 14 0 86 -40 203 -112 30 -19 82 -43 115 -53 33 -10
74 -31 90 -46 17 -15 45 -34 64 -44 19 -9 52 -30 74 -46 22 -16 47 -29 55 -29
8 0 36 -13 61 -29 38 -24 182 -96 266 -133 11 -5 54 -8 95 -6 l75 3 3 53 c2
31 -1 52 -7 52 -6 0 -40 25 -76 55 -45 39 -73 55 -93 55 -18 0 -38 10 -57 30
-16 17 -35 30 -42 30 -8 0 -44 18 -81 40 -36 22 -81 44 -99 49 -18 5 -45 18
-60 29 -15 11 -50 32 -78 46 -27 15 -75 43 -105 62 -30 19 -71 39 -90 44 -19
5 -57 28 -84 50 -26 22 -55 40 -64 40 -17 0 -137 51 -192 81 -19 10 -84 44
-143 75 -60 30 -127 68 -149 84 -23 17 -48 30 -57 30 -9 0 -43 13 -77 29 -34
16 -75 32 -91 35 -17 4 -53 26 -81 50 -27 23 -65 48 -83 55 -19 7 -56 22 -84
33 -27 11 -69 27 -92 35 -23 8 -59 30 -81 49 -25 21 -70 43 -120 60 -49 15
-95 38 -118 58 -42 35 -115 76 -136 76 -18 0 -139 61 -208 106 -30 19 -73 39
-95 45 -43 12 -119 51 -205 105 -30 19 -73 39 -95 45 -50 14 -125 52 -178 90
-22 16 -47 29 -56 29 -9 0 -45 14 -79 30 -35 17 -69 30 -75 30 -7 0 -41 14
-75 30 -66 31 -107 36 -155 17z"/>
</g>
</svg>
