<?xml version="1.0" standalone="no"?>
<!DOCTYPE svg PUBLIC "-//W3C//DTD SVG 20010904//EN"
 "http://www.w3.org/TR/2001/REC-SVG-20010904/DTD/svg10.dtd">
<svg version="1.0" xmlns="http://www.w3.org/2000/svg"
 width="1872.000000pt" height="1260.000000pt" viewBox="0 0 1872.000000 1260.000000"
 preserveAspectRatio="xMidYMid meet">
<metadata>
Created by potrace 1.16, written by Peter Selinger 2001-2019
</metadata>
<g transform="translate(0.000000,1260.000000) scale(0.100000,-0.100000)"
fill="#000000" stroke="none">
<path d="M8647 11272 c-11 -12 -17 -36 -17 -71 0 -29 -5 -61 -10 -72 l-11 -19
-168 0 -168 0 -16 -18 c-11 -12 -17 -36 -17 -71 0 -29 -5 -61 -10 -72 l-11
-19 -63 0 c-48 0 -67 -4 -79 -18 l-17 -19 0 -157 c0 -89 -4 -166 -10 -177
l-11 -19 -63 0 c-48 0 -67 -4 -79 -18 l-17 -19 0 -260 0 -260 18 -16 c13 -12
37 -17 80 -17 l61 0 11 -19 c5 -11 10 -44 10 -74 0 -72 17 -87 98 -87 l61 0
11 -19 c5 -11 10 -44 10 -74 0 -75 15 -87 113 -87 l76 0 11 -19 c6 -11 10 -88
10 -179 l0 -159 18 -16 c13 -12 37 -17 80 -17 l61 0 11 -19 c5 -11 10 -44 10
-74 0 -40 5 -58 18 -70 l19 -17 151 0 151 0 11 -19 c5 -11 10 -51 10 -89 0
-92 11 -102 113 -102 l76 0 11 -19 c5 -11 10 -44 10 -74 0 -40 5 -58 18 -70
l19 -17 151 0 151 0 11 -19 c5 -11 10 -44 10 -74 0 -75 15 -87 113 -87 l76 0
11 -19 c5 -11 10 -44 10 -74 0 -40 5 -58 18 -70 l19 -17 256 0 256 0 11 -19
c5 -11 10 -51 10 -89 0 -54 4 -72 18 -85 l19 -17 151 0 151 0 11 -19 c5 -11
10 -44 10 -74 0 -40 5 -58 18 -70 l19 -17 256 0 256 0 11 -19 c5 -11 10 -44
10 -74 0 -73 16 -87 102 -87 50 0 69 4 81 18 l17 19 0 260 0 260 -18 16 -19
17 -256 0 -256 0 -11 19 c-5 11 -10 44 -10 74 0 40 -5 58 -18 70 l-19 17 -151
0 -151 0 -11 19 c-5 11 -10 44 -10 74 0 40 -5 58 -18 70 l-19 17 -166 0 -166
0 -11 19 c-5 11 -10 44 -10 74 0 72 -17 87 -98 87 l-61 0 -11 19 c-5 11 -10
51 -10 89 0 54 -4 72 -18 85 l-19 17 -166 0 -166 0 -11 19 c-5 11 -10 84 -10
164 l0 144 -18 16 -19 17 -151 0 -151 0 -11 19 c-5 11 -10 51 -10 89 0 92 -11
102 -113 102 l-76 0 -11 19 c-5 11 -10 38 -10 61 0 23 5 50 10 61 l11 19 168
0 168 0 16 18 c11 12 17 36 17 71 0 29 5 61 10 72 l11 19 168 0 168 0 16 18
c12 13 17 37 17 86 0 37 5 76 10 87 l11 19 153 0 153 0 16 18 17 19 0 245 0
245 -18 16 c-13 12 -37 17 -80 17 l-61 0 -11 19 c-6 11 -10 88 -10 179 l0 159
-18 16 c-13 12 -37 17 -80 17 l-61 0 -11 19 c-5 11 -10 44 -10 74 0 40 -5 58
-18 70 l-19 17 -545 0 -545 0 -16 -18z m903 -591 c5 -11 10 -79 10 -151 0 -72
-5 -140 -10 -151 l-11 -19 -256 0 -256 0 -19 -17 c-13 -12 -18 -30 -18 -70 0
-30 -5 -63 -10 -74 l-11 -19 -59 0 -59 0 -11 19 c-6 12 -10 108 -10 241 0 133
4 229 10 241 l11 19 344 0 344 0 11 -19z"/>
<path d="M4117 9952 c-11 -12 -17 -36 -17 -71 0 -29 -5 -61 -10 -72 l-11 -19
-168 0 -168 0 -16 -18 c-11 -12 -17 -36 -17 -71 0 -29 -5 -61 -10 -72 l-11
-19 -153 0 -153 0 -16 -18 c-12 -13 -17 -37 -17 -86 0 -37 -5 -76 -10 -87
l-11 -19 -78 0 -78 0 -16 -18 c-11 -12 -17 -36 -17 -71 0 -29 -5 -61 -10 -72
l-11 -19 -63 0 c-80 0 -96 -15 -96 -89 0 -29 -5 -61 -10 -72 l-11 -19 -63 0
c-48 0 -67 -4 -79 -18 l-17 -19 0 -740 0 -740 18 -16 c13 -12 37 -17 80 -17
l61 0 11 -19 c5 -11 10 -84 10 -164 l0 -144 18 -16 c13 -12 37 -17 80 -17 l61
0 11 -19 c5 -11 10 -51 10 -89 0 -92 11 -102 113 -102 l76 0 11 -19 c5 -11 10
-44 10 -74 0 -72 17 -87 98 -87 l61 0 11 -19 c5 -11 10 -44 10 -74 0 -72 17
-87 98 -87 l61 0 11 -19 c5 -11 10 -44 10 -74 0 -72 17 -87 98 -87 l61 0 11
-19 c5 -11 10 -51 10 -89 0 -92 11 -102 113 -102 l76 0 11 -19 c5 -11 10 -44
10 -74 0 -72 17 -87 98 -87 l61 0 11 -19 c5 -11 10 -44 10 -74 0 -72 17 -87
98 -87 l61 0 11 -19 c5 -11 10 -51 10 -89 0 -54 4 -72 18 -85 l19 -17 166 0
166 0 11 -19 c5 -11 10 -44 10 -74 0 -72 17 -87 98 -87 l61 0 11 -19 c5 -11
10 -44 10 -74 0 -40 5 -58 18 -70 l19 -17 166 0 166 0 11 -19 c5 -11 10 -51
10 -89 0 -89 13 -102 98 -102 l61 0 11 -19 c5 -11 10 -44 10 -74 0 -72 17 -87
98 -87 l61 0 11 -19 c5 -11 10 -44 10 -74 0 -40 5 -58 18 -70 l19 -17 166 0
166 0 11 -19 c5 -11 10 -44 10 -74 0 -72 17 -87 98 -87 l61 0 11 -19 c5 -11
10 -51 10 -89 0 -54 4 -72 18 -85 l19 -17 166 0 166 0 11 -19 c5 -11 10 -44
10 -74 0 -40 5 -58 18 -70 l19 -17 166 0 166 0 11 -19 c5 -11 10 -44 10 -74 0
-72 17 -87 98 -87 l61 0 11 -19 c5 -11 10 -51 10 -89 0 -54 4 -72 18 -85 l19
-17 256 0 256 0 11 -19 c5 -11 10 -44 10 -74 0 -72 17 -87 98 -87 l61 0 11
-19 c5 -11 10 -44 10 -74 0 -40 5 -58 18 -70 l19 -17 256 0 256 0 11 -19 c5
-11 10 -51 10 -89 0 -54 4 -72 18 -85 l19 -17 151 0 151 0 11 -19 c5 -11 10
-44 10 -74 0 -40 5 -58 18 -70 l19 -17 166 0 166 0 11 -19 c5 -11 10 -79 10
-151 0 -72 -5 -140 -10 -151 l-11 -19 -63 0 c-84 0 -96 -13 -96 -104 0 -37 -5
-76 -10 -87 l-11 -19 -258 0 -258 0 -16 -18 c-11 -12 -17 -36 -17 -71 0 -29
-5 -61 -10 -72 l-11 -19 -258 0 -258 0 -16 -18 c-11 -12 -17 -36 -17 -71 0
-29 -5 -61 -10 -72 l-11 -19 -438 0 -438 0 -16 -18 c-12 -13 -17 -37 -17 -86
0 -37 -5 -76 -10 -87 l-11 -19 -1769 0 -1769 0 -11 19 c-5 11 -10 51 -10 89 0
54 -4 72 -18 85 l-19 17 -451 0 -451 0 -11 19 c-5 11 -10 44 -10 74 0 40 -5
58 -18 70 l-19 17 -241 0 -241 0 -11 19 c-5 11 -10 44 -10 74 0 40 -5 58 -18
70 l-19 17 -256 0 -256 0 -11 19 c-5 11 -10 51 -10 89 0 54 -4 72 -18 85 l-19
17 -170 0 -170 0 -16 -18 -17 -19 0 -260 0 -260 18 -16 19 -17 256 0 256 0 11
-19 c5 -11 10 -51 10 -89 0 -54 4 -72 18 -85 l19 -17 256 0 256 0 11 -19 c5
-11 10 -44 10 -74 0 -40 5 -58 18 -70 l19 -17 541 0 541 0 11 -19 c5 -11 10
-44 10 -74 0 -40 5 -58 18 -70 l19 -17 1865 0 1865 0 16 18 c11 12 17 36 17
71 0 29 5 61 10 72 l11 19 528 0 528 0 16 18 c11 12 17 36 17 71 0 29 5 61 10
72 l11 19 258 0 258 0 16 18 c12 13 17 37 17 86 0 37 5 76 10 87 l11 19 258 0
258 0 16 18 c11 12 17 36 17 71 0 29 5 61 10 72 l11 19 168 0 168 0 16 18 c11
12 17 36 17 71 0 29 5 61 10 72 l11 19 524 0 524 0 11 -19 c5 -11 10 -44 10
-74 0 -40 5 -58 18 -70 l19 -17 256 0 256 0 11 -19 c5 -11 10 -44 10 -74 0
-40 5 -58 18 -70 l19 -17 256 0 256 0 11 -19 c5 -11 10 -51 10 -89 0 -54 4
-72 18 -85 l19 -17 451 0 451 0 11 -19 c5 -11 10 -44 10 -74 0 -40 5 -58 18
-70 l19 -17 346 0 346 0 11 -19 c5 -11 10 -44 10 -74 0 -40 5 -58 18 -70 l19
-17 436 0 436 0 11 -19 c5 -11 10 -51 10 -89 0 -54 4 -72 18 -85 l19 -17 170
0 170 0 16 18 c12 13 17 37 17 86 0 37 5 76 10 87 l11 19 59 0 59 0 11 -19 c5
-11 10 -51 10 -89 0 -54 4 -72 18 -85 l19 -17 635 0 635 0 16 18 c12 13 17 37
17 86 0 37 5 76 10 87 l11 19 348 0 348 0 16 18 c11 12 17 36 17 71 0 29 5 61
10 72 l11 19 168 0 168 0 16 18 c11 12 17 36 17 71 0 29 5 61 10 72 l11 19 63
0 c48 0 67 4 79 18 l17 19 0 545 0 545 -18 16 c-13 12 -37 17 -80 17 l-61 0
-11 19 c-6 11 -10 88 -10 179 l0 159 -18 16 -19 17 -166 0 -166 0 -11 19 c-5
11 -10 44 -10 74 0 72 -17 87 -98 87 l-61 0 -11 19 c-5 11 -10 44 -10 74 0 40
-5 58 -18 70 l-19 17 -151 0 -151 0 -11 19 c-5 11 -10 51 -10 89 0 54 -4 72
-18 85 l-19 17 -166 0 -166 0 -11 19 c-5 11 -10 44 -10 74 0 40 -5 58 -18 70
l-19 17 -256 0 -256 0 -11 19 c-5 11 -10 44 -10 74 0 40 -5 58 -18 70 l-19 17
-541 0 -541 0 -11 19 c-5 11 -10 51 -10 89 0 54 -4 72 -18 85 l-19 17 -725 0
-725 0 -16 -18 c-12 -13 -17 -37 -17 -86 0 -37 -5 -76 -10 -87 l-11 -19 -258
0 -258 0 -16 -18 c-11 -12 -17 -36 -17 -71 0 -29 -5 -61 -10 -72 l-11 -19
-168 0 -168 0 -16 -18 c-11 -12 -17 -36 -17 -71 0 -29 -5 -61 -10 -72 l-11
-19 -243 0 -243 0 -16 -18 c-12 -13 -17 -37 -17 -86 0 -37 -5 -76 -10 -87
l-11 -19 -168 0 -168 0 -16 -18 c-11 -12 -17 -36 -17 -71 0 -29 -5 -61 -10
-72 l-11 -19 -63 0 c-80 0 -96 -15 -96 -89 0 -29 -5 -61 -10 -72 l-11 -19
-168 0 -168 0 -16 -18 c-12 -13 -17 -37 -17 -86 0 -37 -5 -76 -10 -87 l-11
-19 -434 0 -434 0 -11 19 c-5 11 -10 51 -10 89 0 54 -4 72 -18 85 l-19 17
-166 0 -166 0 -11 19 c-5 11 -10 44 -10 74 0 40 -5 58 -18 70 l-19 17 -166 0
-166 0 -11 19 c-5 11 -10 44 -10 74 0 40 -5 58 -18 70 l-19 17 -151 0 -151 0
-11 19 c-5 11 -10 51 -10 89 0 89 -13 102 -98 102 l-61 0 -11 19 c-5 11 -10
44 -10 74 0 40 -5 58 -18 70 l-19 17 -256 0 -256 0 -11 19 c-5 11 -10 44 -10
74 0 40 -5 58 -18 70 l-19 17 -166 0 -166 0 -11 19 c-5 11 -10 51 -10 89 0 89
-13 102 -98 102 l-61 0 -11 19 c-5 11 -10 44 -10 74 0 40 -5 58 -18 70 l-19
17 -166 0 -166 0 -11 19 c-5 11 -10 44 -10 74 0 40 -5 58 -18 70 l-19 17 -151
0 -151 0 -11 19 c-5 11 -10 44 -10 74 0 75 -15 87 -113 87 l-76 0 -11 19 c-5
11 -10 51 -10 89 0 89 -13 102 -98 102 l-61 0 -11 19 c-5 11 -10 44 -10 74 0
40 -5 58 -18 70 l-19 17 -166 0 -166 0 -11 19 c-5 11 -10 44 -10 74 0 72 -17
87 -98 87 l-61 0 -11 19 c-5 11 -10 51 -10 89 0 89 -13 102 -98 102 l-61 0
-11 19 c-5 11 -10 44 -10 74 0 40 -5 58 -18 70 l-19 17 -166 0 -166 0 -11 19
c-5 11 -10 44 -10 74 0 72 -17 87 -98 87 l-61 0 -11 19 c-5 11 -10 51 -10 89
0 89 -13 102 -98 102 l-61 0 -11 19 c-5 11 -10 44 -10 74 0 75 -15 87 -113 87
l-76 0 -11 19 c-5 11 -10 44 -10 74 0 72 -17 87 -98 87 l-61 0 -11 19 c-5 11
-10 44 -10 74 0 72 -17 87 -98 87 l-61 0 -11 19 c-5 11 -10 51 -10 89 0 92
-11 102 -113 102 l-76 0 -11 19 c-5 11 -10 44 -10 74 0 72 -17 87 -98 87 l-61
0 -11 19 c-6 11 -10 88 -10 179 l0 159 -18 16 c-13 12 -37 17 -80 17 l-61 0
-11 19 c-6 12 -10 116 -10 269 l0 249 -18 16 c-13 12 -37 17 -80 17 l-61 0
-11 19 c-5 11 -10 79 -10 151 0 72 5 140 10 151 l11 19 63 0 c48 0 67 4 79 18
l17 19 0 247 c0 151 4 255 10 267 l11 19 153 0 153 0 16 18 c11 12 17 36 17
71 0 29 5 61 10 72 l11 19 168 0 168 0 16 18 c12 13 17 37 17 86 0 37 5 76 10
87 l11 19 168 0 168 0 16 18 c12 13 17 37 17 84 0 88 -12 98 -113 98 l-76 0
-11 19 c-5 11 -10 44 -10 74 0 40 -5 58 -18 70 l-19 17 -155 0 -155 0 -16 -18z
m11103 -6051 c5 -11 10 -50 10 -87 0 -49 5 -73 17 -86 l16 -18 258 0 258 0 11
-19 c5 -11 10 -43 10 -72 0 -35 6 -59 17 -71 l16 -18 258 0 258 0 11 -19 c5
-11 10 -43 10 -72 0 -35 6 -59 17 -71 l16 -18 168 0 168 0 11 -19 c5 -11 10
-50 10 -87 0 -49 5 -73 17 -86 l16 -18 153 0 153 0 11 -19 c5 -11 10 -43 10
-72 0 -74 16 -89 96 -89 l63 0 11 -19 c5 -11 10 -83 10 -162 l0 -142 17 -19
16 -18 78 0 78 0 11 -19 c5 -11 10 -45 10 -76 0 -31 -5 -65 -10 -76 l-11 -19
-76 0 c-57 0 -81 -4 -95 -17 l-18 -16 0 -144 c0 -80 -5 -153 -10 -164 l-11
-19 -61 0 c-85 0 -98 -13 -98 -102 0 -38 -5 -78 -10 -89 l-11 -19 -436 0 -436
0 -19 -17 c-13 -12 -18 -30 -18 -70 0 -30 -5 -63 -10 -74 l-11 -19 -254 0
-254 0 -11 19 c-5 11 -10 43 -10 72 0 35 -6 59 -17 71 l-16 18 -738 0 -738 0
-11 19 c-5 11 -10 50 -10 87 0 49 -5 73 -17 86 l-16 18 -438 0 -438 0 -11 19
c-5 11 -10 43 -10 72 0 35 -6 59 -17 71 l-16 18 -258 0 -258 0 -11 19 c-5 11
-10 43 -10 72 0 35 -6 59 -17 71 l-16 18 -348 0 -348 0 -11 19 c-5 11 -10 50
-10 87 0 49 -5 73 -17 86 l-16 18 -258 0 -258 0 -11 19 c-5 11 -10 43 -10 72
0 74 -16 89 -96 89 l-63 0 -11 19 c-5 11 -10 38 -10 61 0 23 5 50 10 61 l11
19 61 0 c81 0 98 15 98 87 0 30 5 63 10 74 l11 19 61 0 c85 0 98 13 98 102 0
38 5 78 10 89 l11 19 166 0 166 0 19 17 c13 12 18 30 18 70 0 30 5 63 10 74
l11 19 151 0 151 0 19 17 c13 12 18 30 18 70 0 30 5 63 10 74 l11 19 256 0
256 0 19 17 c14 13 18 31 18 85 0 38 5 78 10 89 l11 19 1199 0 1199 0 11 -19z"/>
</g>
</svg>
