<?xml version="1.0" standalone="no"?>
<!DOCTYPE svg PUBLIC "-//W3C//DTD SVG 20010904//EN"
 "http://www.w3.org/TR/2001/REC-SVG-20010904/DTD/svg10.dtd">
<svg version="1.0" xmlns="http://www.w3.org/2000/svg"
 width="228.000000pt" height="213.000000pt" viewBox="0 0 228.000000 213.000000"
 preserveAspectRatio="xMidYMid meet">
<metadata>
Created by potrace 1.16, written by Peter Selinger 2001-2019
</metadata>
<g transform="translate(0.000000,213.000000) scale(0.100000,-0.100000)"
fill="#000000" stroke="none">
<path d="M1055 2120 c-3 -5 -22 -10 -41 -10 l-36 0 -65 -62 c-36 -35 -76 -84
-89 -110 l-24 -47 0 -91 0 -91 21 -42 c12 -23 39 -62 59 -87 21 -25 43 -55 49
-67 6 -12 35 -38 65 -58 29 -19 74 -53 99 -75 25 -22 51 -40 59 -40 7 0 33
-14 58 -30 25 -16 51 -30 58 -30 20 0 82 -30 126 -62 l39 -28 84 0 84 0 25 25
c19 19 23 29 15 42 -19 37 -58 62 -131 86 -41 14 -102 41 -135 60 -193 114
-252 162 -257 207 l-3 25 65 6 c58 6 85 12 179 37 28 8 111 122 111 153 0 30
-64 151 -97 181 -31 29 -162 98 -187 98 -8 0 -18 5 -21 10 -3 6 -28 10 -55 10
-27 0 -52 -4 -55 -10z m160 -205 c73 -33 99 -59 85 -85 l-11 -20 -67 0 c-71 0
-168 27 -182 51 -12 19 4 44 42 62 45 23 70 21 133 -8z"/>
<path d="M575 598 c-11 -7 -54 -15 -95 -19 -41 -4 -95 -13 -120 -19 -116 -31
-175 -52 -208 -75 -20 -14 -45 -25 -55 -25 -25 0 -77 -53 -77 -79 0 -11 -5
-23 -10 -26 -6 -4 -10 -57 -10 -125 l0 -119 30 -16 c43 -22 68 -19 101 14 20
21 29 39 29 63 1 68 64 161 119 175 14 3 54 19 88 35 l61 28 100 0 c66 0 112
5 135 15 52 21 362 21 414 0 23 -10 69 -15 135 -15 65 0 111 -5 135 -15 19 -8
45 -15 56 -15 11 0 101 -27 199 -60 98 -33 187 -60 199 -60 26 0 84 -26 124
-56 17 -12 58 -36 93 -54 36 -18 89 -58 123 -92 l59 -59 38 3 37 3 0 84 0 85
-84 68 c-46 37 -90 68 -98 68 -8 0 -44 18 -81 40 -36 22 -82 45 -102 50 -19 5
-59 21 -88 35 -28 14 -68 25 -89 25 -20 0 -98 20 -172 44 -169 55 -211 66
-286 75 -34 5 -70 13 -82 19 -30 17 -590 16 -618 0z"/>
</g>
</svg>
