<?xml version="1.0" standalone="no"?>
<!DOCTYPE svg PUBLIC "-//W3C//DTD SVG 20010904//EN"
 "http://www.w3.org/TR/2001/REC-SVG-20010904/DTD/svg10.dtd">
<svg version="1.0" xmlns="http://www.w3.org/2000/svg"
 width="198.000000pt" height="393.000000pt" viewBox="0 0 198.000000 393.000000"
 preserveAspectRatio="xMidYMid meet">
<metadata>
Created by potrace 1.16, written by Peter Selinger 2001-2019
</metadata>
<g transform="translate(0.000000,393.000000) scale(0.100000,-0.100000)"
fill="#000000" stroke="none">
<path d="M75 3888 c-28 -38 -47 -69 -67 -110 -4 -10 -8 -69 -8 -131 l0 -114
25 -11 c14 -7 25 -20 25 -31 0 -11 16 -32 35 -47 57 -43 59 -54 31 -140 l-26
-75 11 -47 c17 -71 78 -261 96 -296 8 -17 26 -42 38 -56 13 -14 47 -61 77
-105 89 -134 130 -186 204 -260 39 -40 74 -83 77 -97 4 -14 40 -56 81 -95 41
-39 83 -88 95 -111 11 -23 39 -53 63 -69 27 -18 54 -48 71 -80 15 -29 45 -65
66 -80 21 -15 49 -43 62 -63 13 -19 52 -65 86 -103 35 -37 76 -93 92 -125 17
-33 52 -78 84 -107 32 -30 67 -75 85 -111 17 -34 46 -72 66 -87 21 -16 39 -41
45 -62 5 -19 27 -56 49 -82 41 -48 132 -223 132 -252 0 -9 11 -33 25 -53 13
-20 40 -83 60 -140 l35 -103 0 -140 0 -140 -20 -43 c-36 -79 -173 -192 -233
-192 -18 0 -47 -32 -47 -53 0 -8 12 -29 26 -46 l26 -31 45 0 45 0 77 60 c42
33 88 69 103 80 55 42 148 199 148 249 0 16 5 33 10 36 13 8 13 312 0 320 -5
3 -10 17 -10 31 0 39 -35 132 -95 254 -30 62 -55 120 -55 129 0 17 -173 281
-231 351 -20 25 -47 65 -59 90 -12 25 -41 65 -65 90 -23 25 -50 59 -61 75 -10
17 -75 87 -143 158 -69 70 -140 149 -158 176 -18 27 -48 58 -67 69 -19 12 -56
54 -89 104 -52 79 -77 106 -141 151 -14 10 -30 35 -36 57 -7 27 -27 54 -64 87
-29 26 -72 74 -95 105 -23 31 -53 63 -66 72 -69 45 -232 366 -186 366 6 0 47
-25 92 -56 45 -31 96 -60 114 -65 17 -5 49 -24 71 -43 50 -43 175 -106 211
-106 16 0 70 -20 121 -45 l94 -45 78 0 79 0 20 27 c30 38 35 67 21 121 -23 82
-48 121 -99 153 -27 16 -61 45 -75 64 -16 20 -41 38 -61 44 -19 5 -47 18 -63
30 -49 35 -230 121 -254 121 -13 0 -43 6 -68 14 -78 25 -133 38 -191 45 -65 8
-84 21 -105 69 -21 51 -7 62 80 62 l71 0 50 28 c34 18 57 40 73 69 l23 42 -12
43 c-19 64 -124 178 -191 207 -29 13 -61 27 -70 32 -10 5 -71 9 -135 9 l-118
-1 -30 -41z m270 -139 c33 -11 66 -27 74 -34 l14 -14 -13 -15 c-15 -19 -159
-23 -190 -6 -30 16 -43 46 -30 70 14 27 67 26 145 -1z m409 -638 c10 -9 43
-29 74 -46 57 -31 78 -55 45 -55 -25 1 -99 35 -133 62 -15 13 -36 28 -46 35
l-19 12 14 10 c16 11 38 5 65 -18z"/>
</g>
</svg>
