<?xml version="1.0" standalone="no"?>
<!DOCTYPE svg PUBLIC "-//W3C//DTD SVG 20010904//EN"
 "http://www.w3.org/TR/2001/REC-SVG-20010904/DTD/svg10.dtd">
<svg version="1.0" xmlns="http://www.w3.org/2000/svg"
 width="537.000000pt" height="339.000000pt" viewBox="0 0 537.000000 339.000000"
 preserveAspectRatio="xMidYMid meet">
<metadata>
Created by potrace 1.16, written by Peter Selinger 2001-2019
</metadata>
<g transform="translate(0.000000,339.000000) scale(0.100000,-0.100000)"
fill="#000000" stroke="none">
<path d="M0 3326 l0 -64 33 -21 c17 -11 55 -44 82 -72 28 -27 82 -71 120 -97
39 -26 100 -74 136 -107 59 -53 121 -102 232 -183 17 -12 42 -25 56 -29 14 -3
40 -18 56 -33 17 -15 46 -36 65 -45 19 -10 49 -28 65 -41 17 -12 59 -37 94
-54 35 -18 80 -47 100 -65 39 -35 92 -65 114 -65 7 0 27 -17 44 -37 21 -26 63
-55 137 -92 76 -38 115 -65 137 -92 19 -25 44 -42 67 -49 61 -16 144 -59 193
-100 26 -22 75 -53 109 -71 35 -17 79 -46 99 -64 20 -18 82 -56 139 -85 68
-35 112 -64 131 -89 23 -28 44 -40 93 -55 34 -10 77 -31 93 -46 49 -44 96 -76
170 -114 41 -21 95 -62 130 -96 32 -33 67 -60 75 -60 9 0 27 -12 41 -26 13
-14 42 -35 64 -46 22 -12 54 -32 72 -45 17 -13 47 -29 67 -34 19 -5 59 -31 88
-58 29 -26 73 -58 98 -71 25 -12 64 -38 88 -58 64 -51 132 -97 189 -125 28
-14 75 -49 106 -77 31 -28 72 -56 91 -61 19 -5 59 -31 88 -57 29 -26 88 -71
131 -100 103 -69 253 -198 276 -238 11 -17 42 -44 70 -59 28 -16 63 -43 77
-62 14 -18 44 -43 66 -54 23 -12 67 -48 97 -80 37 -38 70 -63 96 -71 29 -10
44 -22 55 -45 l15 -33 66 0 66 0 11 39 c7 21 12 46 12 55 0 25 -28 75 -71 126
-51 61 -94 157 -78 176 16 20 32 18 143 -20 77 -26 104 -40 123 -65 14 -17 46
-42 72 -56 56 -28 172 -106 219 -146 42 -37 68 -36 120 2 l42 31 0 54 0 54
-39 20 c-22 11 -52 36 -67 56 -27 34 -89 74 -117 74 -7 0 -24 12 -38 26 -13
14 -40 34 -60 45 -117 59 -237 160 -294 244 -18 28 -45 61 -60 75 -42 39 -68
87 -57 106 10 19 103 54 143 54 28 0 48 18 73 67 21 42 20 71 -5 145 -31 94
-43 111 -106 158 -32 24 -70 54 -85 68 -67 61 -245 83 -323 39 -45 -25 -85
-87 -85 -132 0 -16 14 -68 30 -115 17 -46 30 -95 30 -108 0 -36 84 -190 135
-249 25 -28 45 -57 45 -65 0 -8 14 -34 32 -58 l32 -43 -19 -11 c-11 -6 -50
-40 -87 -75 l-67 -63 -53 26 c-64 31 -76 40 -113 89 -15 21 -50 49 -75 62 -26
13 -71 46 -101 73 -30 27 -68 56 -86 65 -17 9 -53 35 -79 58 -26 23 -93 71
-147 107 -55 36 -114 77 -131 92 -17 15 -53 39 -81 54 -101 55 -266 159 -323
204 -63 50 -132 96 -178 120 -22 11 -80 48 -130 81 -49 34 -96 61 -104 61 -8
0 -34 23 -58 50 -25 28 -66 62 -95 76 -29 14 -73 44 -99 65 -25 21 -88 60
-139 86 -51 25 -109 61 -128 78 -20 18 -78 54 -129 80 -51 25 -128 70 -170 99
-42 29 -97 64 -122 78 -25 14 -54 36 -65 48 -11 12 -50 37 -86 55 -71 36 -185
111 -237 156 -22 20 -44 29 -67 29 -18 0 -37 4 -40 10 -14 22 -170 140 -185
140 -18 0 -125 74 -149 103 -7 9 -21 17 -30 17 -20 0 -153 86 -212 138 -24 21
-60 47 -79 57 -19 9 -55 34 -80 55 -25 20 -65 47 -90 60 -25 12 -65 39 -90 59
-25 20 -84 63 -132 95 -48 32 -108 76 -132 97 -24 22 -51 39 -59 39 -9 0 -19
5 -22 10 -3 6 -24 10 -46 10 l-39 0 0 -64z m4577 -2103 c13 -9 32 -31 44 -50
l22 -35 -14 -9 c-8 -5 -33 -9 -57 -9 -72 0 -120 71 -76 115 17 17 42 13 81
-12z"/>
</g>
</svg>
