<?xml version="1.0" standalone="no"?>
<!DOCTYPE svg PUBLIC "-//W3C//DTD SVG 20010904//EN"
 "http://www.w3.org/TR/2001/REC-SVG-20010904/DTD/svg10.dtd">
<svg version="1.0" xmlns="http://www.w3.org/2000/svg"
 width="309.000000pt" height="450.000000pt" viewBox="0 0 309.000000 450.000000"
 preserveAspectRatio="xMidYMid meet">
<metadata>
Created by potrace 1.16, written by Peter Selinger 2001-2019
</metadata>
<g transform="translate(0.000000,450.000000) scale(0.100000,-0.100000)"
fill="#000000" stroke="none">
<path d="M275 4490 c-3 -5 -14 -10 -24 -10 -10 0 -28 -12 -42 -26 -13 -14 -48
-40 -78 -57 -30 -17 -61 -44 -70 -60 -9 -16 -26 -45 -38 -64 l-23 -34 0 -96 0
-95 25 -30 c14 -16 25 -36 25 -44 0 -43 106 -189 214 -296 84 -81 112 -109
162 -159 26 -26 60 -60 76 -77 17 -16 51 -50 75 -75 25 -24 59 -58 75 -75 17
-16 51 -50 75 -75 25 -25 74 -71 110 -103 94 -85 143 -137 143 -151 0 -25 -73
-14 -120 17 -32 22 -57 30 -88 30 -23 0 -59 7 -79 15 -24 10 -71 15 -150 15
-182 0 -265 -37 -319 -142 -49 -97 -22 -228 61 -294 50 -40 97 -86 116 -115 9
-13 64 -48 125 -78 60 -30 123 -64 139 -77 17 -12 78 -38 138 -58 l107 -36
146 0 145 0 41 21 c71 36 156 99 193 141 l34 41 33 -14 c17 -7 82 -47 142 -88
61 -41 134 -87 161 -104 28 -16 68 -47 90 -68 124 -122 156 -150 208 -183 32
-20 68 -54 81 -75 14 -21 39 -49 56 -62 63 -48 148 -147 217 -257 16 -24 52
-71 80 -104 29 -33 57 -77 63 -97 5 -20 30 -61 55 -91 69 -84 104 -140 120
-192 7 -26 25 -64 39 -85 14 -21 26 -50 26 -64 0 -15 7 -44 16 -65 12 -28 16
-73 16 -173 1 -149 -5 -174 -61 -251 -17 -24 -31 -51 -31 -61 0 -20 -103 -99
-129 -99 -9 0 -33 -11 -52 -24 -41 -28 -142 -66 -175 -66 -12 0 -38 -7 -57
-15 -51 -21 -273 -21 -324 0 -19 8 -59 15 -87 15 -28 0 -72 7 -97 17 l-47 16
-42 -17 -43 -17 -46 15 c-78 24 -133 37 -196 45 -34 5 -70 13 -82 19 -12 7
-46 12 -77 12 -30 0 -67 5 -83 12 -23 10 -238 25 -403 29 -103 2 -256 -28
-289 -57 -28 -25 -50 -117 -51 -206 l0 -88 85 0 85 0 0 74 0 75 33 23 32 23
136 3 c107 3 144 0 174 -12 22 -9 66 -16 107 -16 38 0 84 -7 105 -15 22 -9 67
-15 117 -15 44 0 101 -6 126 -14 124 -39 149 -42 290 -37 77 3 296 -15 317
-27 27 -15 106 -15 193 -1 36 6 90 15 120 19 67 10 112 22 255 67 88 27 118
42 150 72 22 21 57 50 77 65 53 39 168 213 168 253 0 18 5 35 10 38 13 8 13
312 0 320 -5 3 -10 26 -10 51 0 35 -14 73 -66 176 -36 73 -83 152 -103 177
-46 56 -101 143 -101 160 0 6 -28 44 -63 84 -34 40 -88 111 -119 158 -35 53
-70 94 -92 107 -19 11 -47 40 -62 64 -44 70 -85 118 -101 118 -8 0 -42 27 -76
60 -34 33 -81 79 -104 101 -23 22 -63 57 -90 77 -27 20 -68 55 -90 77 -73 72
-191 154 -224 155 -9 0 -24 10 -35 21 -10 12 -77 60 -147 107 -147 97 -164
112 -177 163 -7 24 -29 54 -69 90 -32 30 -68 73 -79 96 -23 45 -143 155 -229
210 -29 18 -64 50 -77 71 -14 20 -73 83 -133 139 -59 57 -121 116 -137 132
-15 16 -48 48 -72 72 -187 187 -233 237 -253 278 -12 22 -37 52 -56 67 -19 14
-35 32 -35 39 0 7 -13 42 -30 77 l-30 63 0 71 0 71 28 39 c25 34 44 47 122 84
8 4 23 21 33 38 l18 31 -12 40 -12 41 -58 0 c-32 0 -61 -4 -64 -10z m395
-1620 c47 -16 96 -30 108 -30 13 0 53 -13 89 -30 35 -16 70 -30 77 -30 7 0 25
-13 41 -30 16 -16 36 -30 44 -30 37 -1 194 -97 211 -129 5 -11 10 -44 10 -75
l0 -55 -27 -19 c-46 -32 -120 -62 -155 -62 -18 0 -53 6 -78 14 -60 19 -125 35
-181 46 -55 10 -78 22 -139 71 -25 20 -68 48 -95 62 -59 30 -137 96 -177 151
-48 66 -33 119 45 156 61 28 128 25 227 -10z"/>
</g>
</svg>
