<?xml version="1.0" standalone="no"?>
<!DOCTYPE svg PUBLIC "-//W3C//DTD SVG 20010904//EN"
 "http://www.w3.org/TR/2001/REC-SVG-20010904/DTD/svg10.dtd">
<svg version="1.0" xmlns="http://www.w3.org/2000/svg"
 width="201.000000pt" height="300.000000pt" viewBox="0 0 201.000000 300.000000"
 preserveAspectRatio="xMidYMid meet">
<metadata>
Created by potrace 1.16, written by Peter Selinger 2001-2019
</metadata>
<g transform="translate(0.000000,300.000000) scale(0.100000,-0.100000)"
fill="#000000" stroke="none">
<path d="M425 2990 c-3 -5 -18 -10 -33 -10 -35 0 -160 -45 -190 -67 -31 -24
-61 -114 -62 -185 0 -42 7 -72 30 -120 16 -34 30 -71 30 -80 0 -10 20 -32 44
-50 25 -18 57 -53 72 -76 16 -24 49 -58 75 -75 26 -17 60 -50 75 -75 16 -24
49 -57 74 -74 25 -16 60 -50 78 -74 18 -24 39 -44 48 -44 45 0 165 -83 258
-178 80 -83 129 -131 211 -208 386 -361 456 -433 519 -529 47 -72 57 -115 36
-156 -16 -29 -53 -24 -148 22 -58 28 -101 57 -133 90 l-47 49 -55 0 c-64 0
-87 -19 -87 -73 0 -41 33 -86 92 -123 21 -13 49 -41 62 -62 13 -20 43 -50 68
-66 24 -15 58 -49 75 -75 17 -26 51 -59 75 -74 24 -16 54 -45 68 -65 14 -20
41 -57 62 -82 84 -102 120 -230 80 -281 l-19 -22 -49 13 c-82 22 -132 48 -160
86 -28 36 -89 74 -120 74 -9 0 -33 17 -53 39 -53 56 -142 126 -201 157 -28 15
-63 42 -77 61 -27 35 -76 65 -126 77 -15 3 -57 35 -95 70 -37 35 -89 75 -117
89 -27 14 -76 47 -109 74 -66 54 -70 57 -108 72 -15 5 -38 28 -52 49 -15 24
-46 51 -78 70 -30 16 -66 46 -81 65 -20 26 -41 40 -80 51 l-53 15 -46 -14
c-56 -16 -102 -40 -145 -73 l-33 -24 0 -69 c0 -38 4 -77 9 -87 5 -9 19 -41 32
-70 25 -57 87 -122 117 -122 10 0 29 -12 43 -26 43 -46 222 -124 284 -124 33
0 93 31 124 64 14 14 29 26 34 26 16 0 81 -33 114 -58 17 -13 46 -28 65 -33
41 -12 56 -23 93 -72 27 -37 89 -77 118 -77 7 0 24 -12 38 -26 13 -14 44 -36
68 -48 24 -13 71 -46 105 -75 114 -96 189 -151 209 -151 10 0 40 -21 66 -47
27 -27 64 -63 84 -82 20 -18 42 -49 49 -67 l12 -34 91 0 90 0 15 32 c8 17 23
35 33 40 9 4 25 12 35 16 30 15 62 83 62 134 0 26 5 50 10 53 12 8 13 89 1
113 -5 9 -23 50 -42 89 -18 40 -45 85 -61 100 -15 15 -28 36 -28 47 0 11 -19
38 -43 60 -24 23 -56 58 -71 79 l-28 37 12 14 c6 8 26 16 43 18 39 4 69 45 93
126 l16 57 -11 43 c-6 23 -11 52 -11 65 0 33 -74 138 -123 173 -28 20 -46 43
-55 69 -16 50 -27 62 -74 86 -21 11 -93 76 -161 145 -67 69 -146 141 -175 161
-54 36 -102 95 -102 124 0 25 -33 49 -67 49 -33 0 -87 36 -142 93 -19 20 -53
48 -76 63 -24 14 -55 46 -71 71 -15 24 -51 60 -80 79 -28 19 -71 51 -95 72
-24 21 -63 50 -86 65 -28 18 -43 35 -43 48 0 12 -26 48 -58 82 -90 95 -92 99
-92 199 l0 87 28 19 c15 11 46 25 68 31 60 16 111 86 98 136 l-6 25 -63 0
c-35 0 -67 -4 -70 -10z m-146 -1943 c54 -23 162 -119 159 -142 -7 -49 -128
-17 -187 50 -30 35 -37 58 -25 89 7 19 13 20 53 3z"/>
</g>
</svg>
