<?xml version="1.0" standalone="no"?>
<!DOCTYPE svg PUBLIC "-//W3C//DTD SVG 20010904//EN"
 "http://www.w3.org/TR/2001/REC-SVG-20010904/DTD/svg10.dtd">
<svg version="1.0" xmlns="http://www.w3.org/2000/svg"
 width="846.000000pt" height="321.000000pt" viewBox="0 0 846.000000 321.000000"
 preserveAspectRatio="xMidYMid meet">
<metadata>
Created by potrace 1.16, written by Peter Selinger 2001-2019
</metadata>
<g transform="translate(0.000000,321.000000) scale(0.100000,-0.100000)"
fill="#000000" stroke="none">
<path d="M5700 3201 c-8 -5 -54 -26 -101 -49 l-86 -40 -41 -60 c-73 -107 -82
-132 -82 -227 0 -94 25 -187 64 -240 13 -16 37 -57 54 -90 18 -33 55 -86 83
-119 27 -32 57 -72 65 -87 8 -16 31 -40 52 -53 59 -37 354 -336 348 -352 -6
-17 -62 -19 -102 -4 -19 7 -37 7 -59 0 -23 -8 -40 -7 -61 1 -45 18 -368 20
-410 3 -40 -17 -417 -20 -459 -4 -15 6 -95 13 -178 16 -94 3 -168 11 -193 20
-24 9 -68 14 -105 12 -35 -2 -108 -2 -162 0 l-99 2 -26 30 c-15 16 -42 47 -60
69 -20 24 -48 44 -68 50 -18 5 -46 18 -62 30 -29 20 -114 49 -209 71 -82 18
-135 0 -211 -70 l-62 -57 0 -70 c0 -56 4 -76 21 -97 l20 -26 50 0 c30 0 65 -8
89 -20 22 -11 51 -20 65 -20 14 0 42 -7 62 -15 19 -8 55 -15 80 -15 33 0 50
-6 68 -25 31 -31 31 -36 -5 -109 -34 -70 -131 -160 -190 -176 -39 -11 -86 -38
-150 -87 -33 -25 -53 -33 -85 -33 -24 0 -59 -7 -78 -15 -21 -8 -67 -15 -105
-15 -39 0 -85 -7 -105 -15 l-36 -15 -351 0 -351 0 -36 15 c-26 11 -76 15 -195
15 -118 0 -168 4 -195 15 -27 12 -81 15 -240 15 -158 0 -212 3 -240 15 -19 8
-60 15 -90 15 -29 0 -70 7 -90 15 -19 8 -47 15 -62 15 -14 0 -55 14 -89 30
-37 18 -80 30 -103 30 -22 0 -56 7 -76 15 -19 8 -46 15 -60 15 -26 0 -84 44
-197 152 -77 72 -182 148 -206 148 -8 0 -28 9 -45 21 -50 34 -159 87 -223 108
-46 16 -87 21 -162 21 -108 0 -141 -10 -192 -58 l-28 -26 0 -72 0 -72 24 -6
c13 -3 38 -23 55 -45 21 -27 42 -41 65 -45 19 -4 58 -23 86 -42 29 -20 73 -42
98 -50 26 -7 69 -29 96 -49 37 -26 60 -35 89 -35 68 0 274 -75 352 -128 l70
-48 68 -134 c69 -139 83 -195 52 -220 l-15 -12 -40 32 c-71 56 -154 110 -171
110 -8 0 -53 18 -99 40 -142 69 -185 80 -317 80 l-117 0 -98 -66 c-77 -51
-108 -81 -148 -135 l-50 -69 0 -87 0 -88 19 -12 c10 -6 30 -35 46 -65 15 -29
43 -70 64 -91 67 -70 208 -157 255 -157 14 0 44 -7 67 -16 l41 -17 151 6 152
6 86 28 c59 19 99 40 125 64 61 54 111 81 135 74 18 -6 166 -137 262 -232 53
-53 154 -169 173 -198 10 -17 36 -51 58 -77 l39 -48 69 0 68 0 0 30 c0 52 -73
183 -130 232 -27 24 -50 49 -50 56 0 8 -27 40 -59 72 -32 32 -84 91 -114 132
-31 40 -70 84 -86 96 -63 46 -90 167 -56 249 19 45 19 111 0 156 -8 20 -15 56
-15 80 l0 43 -30 29 c-33 32 -38 65 -14 89 19 20 45 20 91 1 19 -8 52 -15 72
-15 20 0 56 -6 81 -14 110 -35 146 -39 345 -45 116 -3 217 -10 225 -16 12 -8
175 -17 450 -26 19 0 58 2 85 6 37 5 61 3 89 -9 l38 -16 193 0 c149 0 201 3
228 15 27 11 75 15 180 15 106 0 154 4 180 15 20 8 49 15 64 15 16 0 45 11 65
25 20 13 53 31 75 39 45 16 129 50 197 80 26 11 61 36 77 56 16 19 53 49 81
65 56 33 78 64 137 195 18 41 37 82 41 90 l7 15 249 3 249 3 41 -16 42 -16
298 5 c165 3 315 5 334 4 53 -1 300 -1 340 1 19 0 134 -3 255 -7 239 -8 237
-7 318 -74 26 -22 63 -44 82 -49 19 -5 59 -32 89 -60 31 -28 70 -55 88 -60 18
-5 55 -27 82 -49 26 -22 55 -40 63 -40 8 0 44 -18 81 -40 36 -22 84 -45 107
-51 50 -14 125 -51 178 -90 l40 -29 56 0 c38 0 86 -10 141 -30 47 -16 96 -30
110 -30 14 0 54 -14 88 -30 37 -17 80 -30 103 -30 21 0 56 -7 77 -15 l39 -16
169 4 c93 2 187 9 209 15 22 6 51 14 65 16 14 3 50 21 80 40 30 20 72 44 92
53 l38 18 0 91 0 91 -55 60 c-30 34 -79 74 -107 91 -29 16 -64 42 -77 56 -14
14 -32 26 -40 26 -9 0 -45 14 -79 30 -35 17 -76 30 -90 30 -15 0 -47 14 -72
30 -25 17 -58 30 -75 30 -16 0 -59 14 -93 30 -35 17 -75 30 -88 30 -14 0 -41
7 -61 15 -19 8 -60 15 -89 15 -29 0 -72 7 -94 16 -31 13 -59 15 -127 10 -49
-4 -99 -6 -113 -6 -45 0 -283 19 -360 29 -41 5 -152 10 -245 10 l-170 1 -37
25 c-21 14 -54 31 -74 38 -24 8 -48 27 -68 54 -17 24 -50 56 -74 71 -59 39
-353 332 -397 396 -20 28 -49 69 -65 90 -17 21 -30 45 -30 52 0 7 -13 42 -30
77 -38 82 -40 160 -8 256 28 86 38 99 100 141 l53 35 3 53 3 52 -43 -1 c-24 0
-50 -4 -58 -8z m1137 -1486 c24 -10 71 -15 149 -15 82 0 125 -5 155 -17 l41
-16 48 17 48 17 37 -15 c21 -9 62 -16 92 -16 29 0 70 -7 90 -15 19 -8 53 -15
75 -15 21 0 55 -7 75 -15 19 -8 45 -15 57 -15 33 0 134 -38 175 -66 19 -13 49
-24 66 -24 16 0 57 -13 91 -29 34 -16 75 -32 92 -36 44 -9 172 -136 172 -169
0 -34 -50 -68 -108 -73 -26 -2 -71 -11 -100 -21 l-53 -16 -48 17 c-37 13 -82
17 -187 17 l-139 0 -71 24 c-40 14 -104 41 -143 60 -39 20 -82 36 -96 36 -14
0 -42 7 -62 15 -19 8 -47 15 -62 15 -14 0 -39 9 -56 21 -44 29 -242 129 -258
129 -7 0 -24 12 -38 26 -13 14 -42 35 -63 46 -53 27 -136 90 -136 103 0 13 67
44 98 44 12 1 39 -6 59 -14z m-6223 -755 c31 -12 74 -31 94 -44 20 -13 51 -27
68 -31 17 -3 55 -26 84 -51 28 -24 60 -50 69 -57 10 -6 26 -25 36 -40 l18 -28
-11 -24 c-15 -32 -43 -49 -132 -79 l-75 -26 -140 0 -141 0 -69 34 c-81 39
-108 63 -160 147 l-37 61 5 34 c14 85 84 122 237 123 72 1 110 -4 154 -19z"/>
</g>
</svg>
