<?xml version="1.0" standalone="no"?>
<!DOCTYPE svg PUBLIC "-//W3C//DTD SVG 20010904//EN"
 "http://www.w3.org/TR/2001/REC-SVG-20010904/DTD/svg10.dtd">
<svg version="1.0" xmlns="http://www.w3.org/2000/svg"
 width="480.000000pt" height="228.000000pt" viewBox="0 0 480.000000 228.000000"
 preserveAspectRatio="xMidYMid meet">
<metadata>
Created by potrace 1.16, written by Peter Selinger 2001-2019
</metadata>
<g transform="translate(0.000000,228.000000) scale(0.100000,-0.100000)"
fill="#000000" stroke="none">
<path d="M1965 2235 c-130 -94 -143 -110 -184 -233 -16 -47 -21 -87 -21 -171
l0 -110 37 -110 36 -111 48 -57 c27 -32 63 -82 80 -111 18 -30 48 -64 70 -78
21 -13 50 -42 64 -63 14 -23 45 -51 75 -68 27 -15 50 -35 50 -44 0 -20 -62
-49 -106 -49 -19 0 -51 7 -71 15 -20 8 -66 15 -105 15 -38 0 -84 7 -105 15
-19 8 -60 15 -90 15 -29 0 -70 7 -90 15 -19 8 -58 15 -86 15 l-50 0 -43 -44
c-60 -59 -58 -82 8 -152 28 -30 63 -57 77 -60 14 -3 67 -26 116 -50 l90 -44
63 -70 c35 -38 61 -74 57 -80 -3 -5 -18 -10 -33 -10 -14 0 -56 -20 -94 -46
-52 -35 -74 -57 -93 -94 -35 -69 -34 -152 1 -222 l26 -52 -22 -18 -22 -18
-294 0 -295 0 -36 15 c-22 9 -67 15 -120 15 -52 0 -97 6 -120 15 -19 8 -59 15
-89 15 -29 0 -65 5 -81 12 -31 12 -165 30 -227 29 -27 -1 -73 15 -153 54
l-115 55 -59 0 -59 0 0 -68 0 -68 58 -19 c31 -10 78 -31 103 -47 25 -15 52
-28 60 -28 8 0 37 -11 65 -24 36 -17 78 -25 150 -31 54 -4 114 -13 133 -21 19
-8 68 -14 118 -14 52 0 97 -6 120 -15 20 -9 66 -15 109 -15 40 0 76 -4 79 -10
8 -14 642 -14 650 0 3 6 39 10 79 10 43 0 89 6 109 15 20 8 54 15 75 15 22 0
56 7 75 15 20 8 50 15 66 15 24 0 45 14 100 68 71 69 111 133 111 176 0 14 5
37 10 51 12 33 -10 119 -43 163 -12 17 -36 50 -54 74 -64 87 -129 160 -153
173 -14 7 -41 29 -59 49 -50 51 -36 59 90 52 137 -8 134 -8 209 0 49 4 75 2
104 -10 21 -9 55 -16 75 -16 63 0 237 -66 320 -122 42 -28 107 -67 146 -86 38
-19 84 -45 100 -58 17 -12 80 -48 140 -79 61 -31 135 -72 165 -91 30 -19 71
-39 90 -44 19 -5 59 -21 88 -35 28 -14 57 -25 62 -25 6 0 41 -18 78 -40 37
-23 78 -43 92 -46 14 -2 43 -9 65 -15 49 -13 154 -29 215 -33 62 -4 155 -23
179 -35 12 -7 102 -11 232 -11 l213 0 65 44 c83 55 111 92 111 146 0 22 -4 48
-9 58 -5 9 -17 37 -27 61 -33 80 -182 201 -291 236 -43 14 -97 34 -121 45 -40
19 -110 42 -212 70 -25 7 -99 15 -165 19 -66 4 -130 12 -142 19 -12 7 -58 12
-108 12 -53 0 -99 6 -122 15 -19 8 -53 15 -75 15 -21 0 -55 7 -75 15 -19 8
-53 15 -75 15 -21 0 -55 7 -75 15 -19 8 -60 15 -90 15 -29 0 -70 7 -90 15 -22
9 -67 15 -120 15 -52 0 -97 6 -120 15 -22 9 -67 15 -120 15 -99 0 -139 15
-178 66 -14 19 -45 44 -68 56 -23 11 -60 40 -82 64 -22 23 -64 54 -93 69 -54
28 -82 57 -82 86 0 27 -39 68 -72 77 -33 8 -38 15 -59 71 -7 19 -31 55 -52 80
-22 25 -51 68 -63 96 l-24 50 0 146 0 146 29 41 c27 36 58 63 146 125 25 18
30 41 19 85 l-6 22 -77 -1 -76 0 -60 -44z m1212 -1450 c21 -9 67 -15 116 -15
62 0 102 -7 172 -29 141 -45 174 -53 270 -60 50 -4 100 -12 112 -19 13 -7 62
-12 119 -12 l97 0 149 -50 c82 -28 166 -61 186 -75 20 -14 50 -25 67 -25 23 0
39 -10 71 -48 88 -103 90 -123 12 -160 -79 -38 -302 -26 -433 22 -40 15 -92
26 -120 26 -30 0 -85 12 -135 30 -47 16 -96 30 -108 30 -30 0 -85 25 -136 62
-21 15 -45 28 -53 28 -8 0 -43 13 -77 29 -34 16 -76 32 -93 35 -18 4 -52 25
-76 46 -25 22 -76 56 -114 75 -83 42 -150 96 -139 113 10 17 70 15 113 -3z
m-1253 -421 c17 -16 20 -33 10 -58 -9 -24 -27 -19 -59 14 l-28 29 13 16 c16
19 44 19 64 -1z"/>
</g>
</svg>
