<?xml version="1.0" standalone="no"?>
<!DOCTYPE svg PUBLIC "-//W3C//DTD SVG 20010904//EN"
 "http://www.w3.org/TR/2001/REC-SVG-20010904/DTD/svg10.dtd">
<svg version="1.0" xmlns="http://www.w3.org/2000/svg"
 width="264.000000pt" height="246.000000pt" viewBox="0 0 264.000000 246.000000"
 preserveAspectRatio="xMidYMid meet">
<metadata>
Created by potrace 1.16, written by Peter Selinger 2001-2019
</metadata>
<g transform="translate(0.000000,246.000000) scale(0.100000,-0.100000)"
fill="#000000" stroke="none">
<path d="M215 2450 c-3 -5 -15 -10 -27 -10 -28 0 -158 -128 -165 -163 -3 -15
-10 -30 -14 -33 -12 -7 -12 -209 0 -232 5 -9 17 -37 27 -61 10 -24 31 -61 45
-81 15 -21 37 -57 49 -81 13 -24 48 -71 80 -104 31 -33 68 -79 83 -101 14 -23
40 -52 57 -65 18 -13 45 -37 61 -54 29 -30 86 -87 167 -167 54 -53 131 -108
151 -108 9 0 37 -24 62 -53 33 -37 68 -63 125 -91 43 -21 103 -58 133 -82 29
-24 61 -44 70 -44 9 0 30 -9 46 -21 17 -11 53 -32 80 -46 58 -30 144 -94 189
-141 17 -18 70 -74 119 -123 92 -94 108 -126 60 -115 -16 3 -50 10 -78 16 -67
13 -127 35 -173 63 -20 13 -93 41 -161 63 l-123 39 -68 65 c-37 36 -70 78 -73
92 -7 27 -113 131 -202 199 -28 21 -123 74 -213 118 l-162 81 -85 0 c-101 0
-198 -28 -233 -66 -49 -55 -17 -148 75 -213 31 -23 63 -41 71 -41 19 0 81 -29
117 -56 36 -26 170 -94 186 -94 20 0 136 -58 180 -89 23 -17 48 -31 56 -31 26
0 102 -40 117 -62 21 -29 20 -93 0 -128 -29 -49 -62 -60 -171 -60 -106 0 -138
-11 -132 -45 6 -31 91 -58 195 -62 l91 -4 64 21 c80 27 84 31 120 101 16 32
39 65 51 73 45 32 132 13 286 -59 99 -47 274 -105 318 -105 41 0 91 -21 148
-62 21 -15 46 -28 56 -28 9 0 29 -14 45 -30 l29 -30 44 0 c34 0 60 -10 118
-45 40 -25 77 -45 82 -45 4 0 24 -11 44 -25 l37 -25 73 0 74 0 12 33 c7 18 12
48 12 66 0 44 -46 91 -90 91 -30 0 -89 30 -220 113 -30 19 -67 37 -82 41 -15
3 -35 18 -45 31 -21 30 -85 94 -130 131 -18 14 -33 32 -33 40 0 26 49 15 87
-20 52 -45 75 -56 123 -56 22 0 57 -7 77 -15 27 -11 78 -15 215 -15 l179 0 39
20 c55 28 80 83 80 172 l0 68 -36 50 c-19 27 -40 65 -45 84 -9 34 -33 58 -139
139 -93 72 -164 115 -196 122 -17 3 -54 25 -81 48 -56 48 -150 92 -343 163
-120 44 -262 25 -369 -49 -68 -47 -130 -107 -151 -148 -10 -19 -26 -41 -34
-48 l-15 -13 -48 23 c-49 23 -148 94 -172 123 -7 9 -20 16 -28 16 -14 0 -62
38 -162 125 -25 23 -65 54 -89 70 -56 37 -249 230 -287 287 -17 24 -46 63 -66
88 -20 25 -55 81 -77 125 -23 44 -50 94 -61 110 -12 17 -21 42 -21 56 0 14 -5
40 -11 56 -18 52 12 131 77 203 l54 61 0 34 0 35 -59 0 c-33 0 -63 -4 -66 -10z
m1552 -1290 c35 -16 69 -30 74 -30 6 0 40 -18 77 -40 37 -23 78 -44 92 -47 28
-7 114 -56 238 -135 90 -57 228 -193 238 -234 22 -88 -87 -148 -203 -111 -62
20 -126 36 -185 47 -26 5 -56 13 -67 19 -11 6 -33 11 -49 11 -17 0 -37 9 -48
21 -41 45 -114 89 -190 114 -141 45 -176 70 -244 174 -53 81 -60 112 -33 151
61 90 183 114 300 60z m-1330 -143 c10 -13 41 -36 68 -52 52 -29 115 -83 115
-97 0 -16 -32 -7 -64 17 -18 14 -40 25 -49 25 -26 0 -160 66 -181 88 -26 29
-12 42 44 42 l49 0 18 -23z"/>
</g>
</svg>
