<?xml version="1.0" standalone="no"?>
<!DOCTYPE svg PUBLIC "-//W3C//DTD SVG 20010904//EN"
 "http://www.w3.org/TR/2001/REC-SVG-20010904/DTD/svg10.dtd">
<svg version="1.0" xmlns="http://www.w3.org/2000/svg"
 width="435.000000pt" height="297.000000pt" viewBox="0 0 435.000000 297.000000"
 preserveAspectRatio="xMidYMid meet">
<metadata>
Created by potrace 1.16, written by Peter Selinger 2001-2019
</metadata>
<g transform="translate(0.000000,297.000000) scale(0.100000,-0.100000)"
fill="#000000" stroke="none">
<path d="M2150 2950 c-14 -11 -40 -22 -58 -26 -24 -5 -57 -31 -118 -93 l-86
-86 -19 -55 -18 -55 -1 -161 c0 -122 4 -170 15 -197 8 -20 15 -49 15 -65 0
-16 13 -47 29 -69 38 -53 76 -128 90 -178 6 -22 26 -65 45 -95 80 -127 93
-171 54 -178 -21 -4 -138 49 -181 82 -18 14 -63 35 -102 47 -39 12 -83 35
-100 51 -19 17 -42 28 -59 28 -16 0 -68 18 -115 41 -47 22 -119 51 -159 65
-40 13 -85 32 -100 43 -50 35 -213 112 -291 137 -49 16 -94 38 -123 62 -24 21
-62 45 -84 53 -21 9 -64 26 -94 39 -30 12 -70 28 -88 34 -18 7 -45 25 -60 39
-18 17 -39 27 -58 27 -16 0 -58 14 -92 30 -35 17 -69 30 -75 30 -7 0 -54 20
-105 45 -52 25 -101 45 -111 45 -9 0 -36 -14 -59 -31 l-42 -31 0 -58 c0 -32 5
-62 10 -65 6 -4 22 -28 35 -55 17 -33 40 -59 72 -80 27 -17 61 -49 76 -71 26
-36 90 -79 118 -79 6 0 32 -19 57 -41 57 -50 134 -95 185 -110 21 -5 128 -55
238 -110 109 -54 211 -99 224 -99 14 0 42 -7 62 -15 19 -8 53 -15 75 -15 21 0
55 -7 75 -15 23 -10 69 -15 135 -15 l100 0 89 31 90 31 39 -26 c22 -15 79 -39
128 -55 96 -31 155 -59 212 -99 20 -15 70 -42 111 -61 41 -18 88 -40 104 -47
17 -8 56 -37 88 -64 32 -28 66 -56 75 -63 9 -6 35 -34 57 -62 22 -27 104 -116
183 -198 78 -81 142 -153 142 -159 0 -16 438 -455 484 -485 22 -14 60 -45 85
-68 25 -23 60 -50 77 -58 17 -9 58 -39 90 -67 33 -27 100 -71 149 -97 50 -25
104 -56 120 -69 39 -29 144 -64 194 -64 22 0 43 -4 46 -10 4 -6 53 -10 115
-10 l108 0 28 34 c71 85 92 149 59 176 -8 7 -22 36 -30 64 l-15 51 -138 136
c-133 131 -177 167 -272 221 -25 14 -54 36 -65 48 -11 12 -65 45 -120 72 -55
28 -120 67 -145 88 -26 21 -92 61 -149 89 -56 29 -121 65 -143 81 -23 17 -48
30 -57 30 -22 0 -135 54 -174 84 -18 13 -66 41 -107 61 -41 20 -96 54 -121 75
-25 21 -93 62 -150 91 -57 29 -112 60 -122 68 -10 8 -34 45 -53 81 -19 36 -53
88 -77 115 -29 33 -50 73 -65 118 -14 43 -38 87 -66 121 -33 40 -52 78 -75
151 -17 54 -40 109 -50 124 -11 15 -29 53 -40 86 l-21 59 10 32 c7 21 7 40 0
58 -18 48 -12 215 9 261 27 57 113 154 166 187 45 28 51 41 39 86 l-6 22 -62
0 c-45 0 -67 -6 -86 -20z m-1789 -616 c22 -19 146 -64 180 -64 27 0 308 -138
399 -196 30 -19 73 -39 95 -45 22 -6 61 -22 87 -35 26 -13 53 -24 61 -24 26 0
202 -97 202 -111 0 -21 -103 -24 -150 -4 -22 9 -67 15 -108 15 l-70 0 -71 31
c-75 32 -101 45 -181 90 -27 16 -64 29 -81 29 -20 0 -39 9 -55 26 -13 14 -37
33 -54 41 -87 44 -239 157 -261 194 -5 8 -24 25 -42 38 -18 12 -29 27 -26 33
8 12 54 1 75 -18z m2472 -1169 c20 -14 37 -29 37 -33 0 -19 44 -52 82 -63 50
-13 131 -53 173 -84 17 -13 64 -40 105 -60 41 -21 88 -48 105 -60 16 -13 85
-50 153 -84 67 -34 139 -76 160 -95 40 -36 92 -66 115 -66 7 0 24 -11 37 -25
13 -14 48 -42 79 -62 76 -52 278 -254 296 -297 34 -80 1 -136 -79 -136 l-44 0
-170 84 c-93 46 -185 98 -204 115 -20 17 -56 45 -81 63 -172 123 -194 142
-452 390 -176 169 -239 237 -261 285 -9 17 -31 39 -49 48 -40 18 -65 50 -65
82 0 30 17 29 63 -2z"/>
</g>
</svg>
