<?xml version="1.0" standalone="no"?>
<!DOCTYPE svg PUBLIC "-//W3C//DTD SVG 20010904//EN"
 "http://www.w3.org/TR/2001/REC-SVG-20010904/DTD/svg10.dtd">
<svg version="1.0" xmlns="http://www.w3.org/2000/svg"
 width="249.000000pt" height="309.000000pt" viewBox="0 0 249.000000 309.000000"
 preserveAspectRatio="xMidYMid meet">
<metadata>
Created by potrace 1.16, written by Peter Selinger 2001-2019
</metadata>
<g transform="translate(0.000000,309.000000) scale(0.100000,-0.100000)"
fill="#000000" stroke="none">
<path d="M365 3080 c-3 -5 -15 -10 -25 -10 -53 0 -140 -124 -140 -200 0 -83
61 -213 129 -274 12 -11 21 -27 21 -37 0 -24 45 -76 92 -105 21 -13 49 -42 63
-64 14 -23 43 -49 67 -61 23 -12 67 -48 97 -80 37 -41 66 -62 92 -69 23 -6 46
-22 56 -37 38 -56 105 -115 237 -206 23 -16 86 -73 141 -126 55 -54 116 -108
136 -121 20 -13 47 -39 60 -59 13 -20 42 -59 64 -88 95 -123 116 -151 154
-208 21 -33 51 -71 65 -84 29 -28 34 -62 10 -85 -20 -20 -23 -20 -59 5 -16 11
-55 33 -85 49 -38 20 -89 65 -164 144 l-110 116 -54 0 -54 0 -29 -29 c-19 -20
-29 -40 -29 -60 0 -17 -7 -48 -16 -70 -12 -31 -15 -65 -11 -153 3 -62 8 -125
12 -140 l7 -28 -49 0 -50 0 -114 56 c-63 31 -152 68 -199 84 -47 15 -119 43
-160 63 -100 46 -166 73 -281 112 -53 18 -115 43 -137 54 -23 12 -55 21 -72
21 l-30 0 0 -40 0 -40 97 -50 c54 -28 122 -66 150 -84 29 -19 85 -44 125 -56
40 -13 94 -36 119 -51 25 -16 52 -29 59 -29 7 0 43 -13 79 -29 93 -40 166 -70
237 -95 33 -12 76 -34 95 -48 19 -15 75 -40 124 -56 109 -35 145 -53 193 -96
20 -18 54 -43 75 -55 24 -15 50 -44 69 -77 20 -36 47 -65 80 -87 27 -19 93
-77 147 -129 l97 -96 110 -55 c60 -31 131 -74 158 -96 26 -23 56 -41 65 -41 9
0 45 -14 79 -30 35 -17 77 -30 92 -30 16 0 32 -4 35 -10 3 -5 33 -10 67 -10
45 0 66 5 85 20 14 11 32 20 39 20 11 0 14 19 14 79 l0 79 -72 77 -72 77 -198
99 c-109 54 -203 99 -210 99 -21 0 -132 55 -178 89 -24 17 -50 31 -59 31 -20
0 -152 62 -190 90 -15 10 -44 52 -66 92 -21 40 -59 96 -85 124 -32 36 -53 72
-68 116 -26 76 -27 91 -8 107 11 9 25 5 68 -22 29 -19 73 -51 96 -71 24 -20
50 -36 58 -36 9 0 45 -18 82 -40 37 -23 76 -43 88 -46 25 -6 142 31 166 53 27
24 50 116 38 148 -5 14 -10 37 -10 51 0 37 -37 102 -91 162 -27 29 -53 70 -59
90 -7 28 -36 62 -112 134 -115 109 -125 119 -258 257 -61 63 -113 108 -147
125 -29 14 -60 38 -70 53 -32 47 -126 132 -208 188 -115 78 -412 379 -453 460
-17 33 -40 74 -51 90 -26 38 -28 105 -3 134 9 11 55 33 101 48 91 30 115 52
100 91 l-8 22 -120 0 c-69 0 -122 -4 -126 -10z m1710 -2751 c79 -38 128 -80
111 -96 -14 -15 -112 20 -142 51 -18 17 -43 39 -58 49 -29 20 -34 37 -12 37 8
0 54 -18 101 -41z"/>
</g>
</svg>
