<?xml version="1.0" standalone="no"?>
<!DOCTYPE svg PUBLIC "-//W3C//DTD SVG 20010904//EN"
 "http://www.w3.org/TR/2001/REC-SVG-20010904/DTD/svg10.dtd">
<svg version="1.0" xmlns="http://www.w3.org/2000/svg"
 width="663.000000pt" height="171.000000pt" viewBox="0 0 663.000000 171.000000"
 preserveAspectRatio="xMidYMid meet">
<metadata>
Created by potrace 1.16, written by Peter Selinger 2001-2019
</metadata>
<g transform="translate(0.000000,171.000000) scale(0.100000,-0.100000)"
fill="#000000" stroke="none">
<path d="M4185 1688 c-16 -12 -40 -29 -53 -37 -24 -16 -61 -106 -62 -149 0
-41 40 -142 80 -200 44 -66 189 -206 280 -272 34 -25 89 -66 122 -92 34 -27
69 -48 78 -48 9 0 36 -15 60 -32 96 -72 166 -118 180 -118 9 0 56 -27 105 -60
50 -33 97 -60 105 -60 23 0 132 -54 180 -89 24 -17 50 -31 59 -31 9 0 45 -14
79 -30 35 -17 77 -30 93 -30 31 0 99 -52 99 -76 0 -7 -12 -16 -27 -19 -16 -3
-109 -33 -209 -66 -100 -32 -190 -59 -201 -59 -11 0 -37 -7 -56 -15 -21 -8
-67 -15 -105 -15 -39 0 -85 -7 -105 -15 -21 -8 -67 -15 -105 -15 -39 0 -85 -7
-105 -15 -20 -8 -62 -15 -92 -15 -31 0 -66 -5 -78 -12 -12 -7 -84 -15 -162
-19 l-140 -6 -37 21 -36 21 -49 -18 -48 -17 -228 0 c-180 0 -235 3 -264 15
-24 10 -71 15 -150 15 -78 0 -125 5 -150 15 -25 11 -72 15 -165 15 -92 0 -139
4 -165 15 -24 10 -70 15 -147 15 -68 0 -128 5 -156 14 -69 22 -131 37 -172 43
-22 3 -47 16 -64 34 l-28 29 -58 0 c-32 0 -75 7 -95 15 -19 8 -47 15 -61 15
-23 0 -111 34 -197 77 -16 8 -45 34 -63 59 l-33 44 -165 0 c-124 0 -174 4
-201 15 -20 8 -66 15 -105 15 -38 0 -84 7 -105 15 -23 10 -69 15 -135 15 -65
0 -111 5 -135 15 -26 11 -76 15 -195 15 -118 0 -168 4 -195 15 l-35 15 -257 0
-257 0 -27 -28 -27 -28 0 -60 0 -61 56 -62 c56 -62 120 -102 182 -116 17 -3
54 -22 81 -40 68 -47 245 -105 320 -105 63 0 75 8 105 67 30 59 18 107 -55
221 l-14 23 15 9 c25 16 285 12 327 -5 27 -11 77 -15 210 -15 132 0 182 -4
210 -15 19 -8 61 -15 92 -15 39 0 73 -8 111 -26 71 -33 254 -94 283 -94 12 0
47 -12 77 -26 74 -34 207 -74 312 -94 26 -5 56 -13 67 -19 11 -6 30 -11 43
-11 13 0 62 -13 108 -30 47 -16 102 -30 123 -30 21 0 54 -7 74 -15 22 -9 67
-15 120 -15 52 0 97 -6 120 -15 24 -10 70 -15 139 -15 58 0 106 -4 109 -10 9
-14 1451 -14 1460 0 3 5 32 10 64 10 32 0 75 7 94 15 20 8 55 15 77 15 23 0
51 5 63 12 12 6 48 14 82 19 60 7 118 21 185 42 19 6 60 14 90 18 83 11 248
57 301 85 60 30 175 64 222 64 38 0 61 -8 112 -39 58 -34 100 -50 245 -91 25
-8 106 -15 180 -17 l135 -4 53 17 52 18 0 88 c0 48 -4 88 -9 88 -5 0 -33 22
-63 49 -52 47 -124 91 -150 91 -7 0 -33 14 -58 30 -32 22 -57 30 -88 30 -23 0
-59 7 -79 15 -45 19 -111 19 -156 0 -20 -8 -49 -15 -64 -15 -16 0 -45 -11 -64
-24 -20 -14 -63 -34 -95 -45 l-58 -21 -71 24 c-39 13 -117 47 -173 75 -56 28
-108 51 -115 51 -19 0 -193 86 -230 114 -18 13 -64 40 -103 59 -39 20 -108 61
-154 93 -46 31 -98 61 -116 66 -19 5 -66 39 -109 78 -41 39 -83 70 -93 70 -10
0 -35 20 -56 45 -21 25 -55 57 -76 70 -26 16 -62 60 -109 132 l-71 108 0 40
c0 44 13 67 72 132 l38 42 -9 23 -8 23 -74 2 -74 2 -30 -21z m-3715 -1175 c28
-16 34 -25 112 -157 l40 -68 -15 -15 -15 -16 -30 22 c-16 11 -72 34 -124 51
-113 36 -218 107 -218 145 0 45 23 55 127 55 70 0 102 -4 123 -17z m5798 -103
c34 -16 77 -41 96 -55 18 -14 47 -30 65 -36 21 -8 31 -17 29 -28 l-4 -16 -104
4 c-59 2 -120 9 -139 17 -18 8 -50 14 -70 14 -44 0 -140 32 -151 51 -25 39 47
78 145 79 l70 0 63 -30z"/>
</g>
</svg>
