<?xml version="1.0" standalone="no"?>
<!DOCTYPE svg PUBLIC "-//W3C//DTD SVG 20010904//EN"
 "http://www.w3.org/TR/2001/REC-SVG-20010904/DTD/svg10.dtd">
<svg version="1.0" xmlns="http://www.w3.org/2000/svg"
 width="444.000000pt" height="378.000000pt" viewBox="0 0 444.000000 378.000000"
 preserveAspectRatio="xMidYMid meet">
<metadata>
Created by potrace 1.16, written by Peter Selinger 2001-2019
</metadata>
<g transform="translate(0.000000,378.000000) scale(0.100000,-0.100000)"
fill="#000000" stroke="none">
<path d="M1386 3739 c-21 -21 -54 -59 -73 -85 l-33 -48 0 -93 0 -93 39 -78
c22 -42 49 -90 60 -107 12 -16 21 -37 21 -45 0 -14 42 -78 120 -184 19 -26 65
-82 103 -123 37 -41 74 -86 81 -101 18 -32 176 -187 227 -221 19 -13 51 -47
70 -75 27 -40 44 -54 77 -65 27 -8 52 -26 69 -48 16 -20 55 -49 97 -70 39 -20
85 -47 103 -60 17 -13 48 -29 67 -34 20 -6 43 -21 52 -34 l16 -24 -31 -90 -31
-89 0 -99 0 -98 30 -85 c17 -46 30 -94 30 -107 0 -32 65 -159 106 -207 19 -22
38 -54 43 -73 5 -18 20 -47 32 -65 31 -43 60 -101 54 -107 -8 -8 -77 20 -110
44 -46 35 -111 65 -140 65 -39 0 -95 27 -145 69 -101 85 -180 103 -231 52
l-29 -29 0 -64 c0 -72 -25 -136 -61 -162 l-23 -16 -189 0 c-144 0 -196 3 -224
15 -19 8 -53 15 -75 15 -21 0 -55 7 -75 15 -19 8 -53 15 -75 15 -21 0 -55 7
-75 15 -19 8 -47 15 -62 15 -14 0 -55 14 -89 30 l-64 30 -86 0 -87 0 -63 30
c-35 17 -76 30 -90 30 -15 0 -52 12 -82 26 -73 34 -164 64 -193 64 -12 0 -92
34 -176 75 l-153 75 -59 0 -59 0 0 -21 c0 -44 114 -149 162 -149 7 0 33 -14
58 -30 25 -16 52 -30 61 -30 8 0 57 -20 108 -45 57 -28 106 -45 128 -45 38 0
336 -96 402 -129 29 -15 59 -21 111 -21 40 0 86 -6 107 -15 19 -8 45 -15 57
-15 11 0 55 -12 96 -27 41 -14 111 -30 155 -35 44 -5 100 -11 125 -14 25 -2
117 -7 206 -10 l161 -5 63 21 c90 30 177 76 231 122 65 55 97 57 187 14 41
-20 79 -36 86 -36 6 0 81 -34 165 -75 84 -41 157 -75 163 -75 15 0 104 -56
158 -100 25 -20 79 -58 120 -85 41 -27 122 -95 180 -151 62 -60 126 -112 156
-127 28 -14 75 -48 105 -75 30 -27 73 -59 95 -70 23 -12 77 -46 121 -75 85
-58 154 -97 175 -97 7 0 33 -14 58 -30 25 -16 52 -30 60 -30 8 0 35 -14 60
-30 33 -22 57 -30 91 -30 25 0 50 -5 55 -10 6 -6 44 -10 90 -8 l79 3 3 67 3
68 -99 97 c-127 126 -191 173 -321 239 -58 29 -128 71 -155 93 -26 23 -56 41
-65 41 -20 0 -197 89 -271 136 -30 19 -71 39 -90 44 -46 13 -136 56 -174 85
-17 12 -55 35 -84 50 -29 15 -61 39 -70 53 -22 33 -91 102 -125 125 -14 9 -31
33 -36 52 -5 20 -33 61 -61 92 -28 31 -69 92 -92 137 -22 45 -51 95 -64 113
-49 65 -84 154 -84 214 0 31 -7 73 -15 92 -9 23 -15 69 -15 122 l0 87 30 26
c16 15 47 42 70 61 51 42 53 75 8 118 -33 32 -136 73 -182 73 -13 0 -44 16
-68 35 -24 19 -61 44 -83 56 -89 48 -192 124 -223 165 -18 24 -40 44 -48 44
-29 0 -72 33 -100 77 -15 25 -39 54 -53 65 -15 11 -51 51 -81 89 -30 38 -83
104 -117 146 -136 170 -203 266 -203 295 0 8 -14 34 -31 58 -48 66 -59 102
-59 191 0 94 11 118 76 167 l44 33 0 34 0 35 -87 -1 -88 -2 -39 -38z m2444
-3320 c14 -10 41 -28 61 -38 19 -11 42 -27 49 -36 8 -10 39 -28 69 -41 77 -34
117 -74 76 -74 -22 0 -88 35 -105 55 -8 9 -41 30 -74 46 -79 38 -146 86 -146
105 0 19 34 11 70 -17z"/>
</g>
</svg>
