<?xml version="1.0" standalone="no"?>
<!DOCTYPE svg PUBLIC "-//W3C//DTD SVG 20010904//EN"
 "http://www.w3.org/TR/2001/REC-SVG-20010904/DTD/svg10.dtd">
<svg version="1.0" xmlns="http://www.w3.org/2000/svg"
 width="321.000000pt" height="282.000000pt" viewBox="0 0 321.000000 282.000000"
 preserveAspectRatio="xMidYMid meet">
<metadata>
Created by potrace 1.16, written by Peter Selinger 2001-2019
</metadata>
<g transform="translate(0.000000,282.000000) scale(0.100000,-0.100000)"
fill="#000000" stroke="none">
<path d="M829 2791 c-14 -14 -50 -48 -81 -74 l-55 -48 -37 -110 c-20 -60 -36
-120 -36 -132 1 -34 45 -152 77 -203 15 -25 42 -69 58 -98 31 -55 131 -172
199 -235 22 -20 80 -75 130 -122 50 -47 125 -108 166 -135 41 -26 95 -67 120
-90 25 -23 68 -53 95 -67 28 -14 87 -57 132 -96 45 -39 88 -71 96 -71 8 0 25
-8 38 -19 l23 -19 -13 -16 -13 -16 -215 0 c-167 0 -221 3 -250 15 -23 10 -69
15 -135 15 -65 0 -111 5 -135 15 -19 8 -60 15 -90 15 -40 0 -73 8 -120 30 -35
17 -75 30 -89 30 -14 0 -41 7 -61 15 -19 8 -45 15 -57 15 -27 0 -123 32 -194
66 -29 13 -65 24 -80 24 -15 0 -40 9 -57 21 -108 73 -172 86 -217 42 l-28 -27
0 -44 c0 -57 44 -117 98 -132 21 -5 60 -20 87 -33 28 -14 64 -28 82 -31 17 -4
51 -24 75 -45 24 -21 59 -46 78 -56 52 -27 97 -63 131 -107 l31 -38 -12 -15
c-7 -8 -21 -15 -32 -15 -56 0 -266 -95 -377 -170 l-62 -42 -40 -79 -39 -79 0
-70 c0 -142 60 -245 196 -336 28 -19 71 -51 95 -72 33 -28 70 -46 144 -69 127
-39 181 -54 228 -60 20 -3 40 -9 43 -14 7 -12 60 -11 82 1 9 5 45 19 80 30 65
21 162 81 197 122 32 36 80 108 104 155 l21 42 0 106 0 105 -40 78 c-21 42
-83 142 -137 222 l-98 144 -45 16 c-30 10 -52 27 -68 50 -13 19 -28 37 -34 41
-6 4 -8 14 -5 23 8 21 94 22 144 1 20 -8 66 -15 104 -15 37 0 80 -5 96 -12 31
-13 233 -30 358 -29 178 1 451 17 478 29 16 6 38 12 50 12 12 0 125 -51 252
-114 251 -124 415 -186 495 -186 28 0 67 -7 87 -15 22 -10 68 -15 125 -15 l89
0 42 21 c23 12 57 33 75 47 l32 24 0 59 c0 32 -4 61 -10 64 -5 3 -10 21 -10
39 0 36 -31 85 -109 173 -49 55 -116 105 -197 146 -27 14 -71 44 -98 66 -26
23 -55 41 -64 41 -9 0 -85 34 -169 75 -85 41 -158 75 -164 75 -6 0 -40 13 -76
30 -35 17 -76 30 -89 30 -14 0 -50 11 -80 25 -99 45 -171 65 -238 65 -37 0
-83 7 -106 16 l-40 16 -69 -22 c-90 -29 -130 -54 -143 -90 -5 -17 -15 -30 -21
-30 -17 1 -91 59 -122 97 -16 20 -42 37 -66 43 -23 6 -46 21 -56 37 -10 15
-38 46 -63 70 -208 200 -300 322 -346 457 l-25 77 29 63 c17 35 33 78 37 94 3
17 24 51 46 75 l39 45 0 46 0 46 -72 -1 -73 -1 -26 -27z m1151 -1195 c58 -18
124 -35 180 -46 25 -5 82 -27 128 -49 45 -23 88 -41 95 -41 7 0 32 -14 57 -30
25 -16 52 -30 60 -30 8 0 29 -9 45 -21 58 -39 125 -69 154 -69 21 0 35 -8 51
-30 12 -16 66 -60 121 -96 109 -72 149 -119 149 -172 0 -71 -26 -84 -110 -58
-60 19 -125 35 -182 46 -26 5 -56 13 -67 19 -11 6 -32 11 -47 11 -40 0 -211
85 -273 136 -29 24 -61 44 -70 44 -54 0 -100 82 -101 176 0 72 -8 81 -95 109
-88 27 -138 51 -160 75 l-19 21 14 9 c19 12 17 12 70 -4z m-1178 -856 l88 -91
0 -32 c0 -18 -6 -42 -14 -52 l-14 -19 -109 1 c-75 1 -121 6 -147 17 -21 9 -62
16 -92 16 -29 0 -65 5 -80 10 -37 14 -74 -10 -74 -48 0 -48 111 -132 175 -132
14 0 42 -7 62 -15 26 -11 76 -15 199 -15 l163 0 11 -20 c8 -14 6 -29 -5 -57
-22 -53 -42 -71 -113 -105 l-64 -29 -52 11 c-123 27 -342 104 -371 130 -16 15
-55 46 -87 69 -88 66 -106 125 -69 230 18 53 30 66 117 127 22 16 60 44 84 62
l43 32 130 0 131 0 88 -90z"/>
</g>
</svg>
