<?xml version="1.0" standalone="no"?>
<!DOCTYPE svg PUBLIC "-//W3C//DTD SVG 20010904//EN"
 "http://www.w3.org/TR/2001/REC-SVG-20010904/DTD/svg10.dtd">
<svg version="1.0" xmlns="http://www.w3.org/2000/svg"
 width="468.000000pt" height="195.000000pt" viewBox="0 0 468.000000 195.000000"
 preserveAspectRatio="xMidYMid meet">
<metadata>
Created by potrace 1.16, written by Peter Selinger 2001-2019
</metadata>
<g transform="translate(0.000000,195.000000) scale(0.100000,-0.100000)"
fill="#000000" stroke="none">
<path d="M2615 1940 c-3 -5 -24 -10 -45 -10 -22 0 -69 -10 -104 -21 l-65 -21
-80 -83 -81 -83 0 -173 0 -174 43 -61 c23 -33 58 -83 77 -109 51 -71 377 -401
435 -441 74 -51 128 -101 120 -113 -10 -17 -229 -14 -272 4 -25 11 -72 15
-165 15 -92 0 -139 4 -165 15 -22 9 -67 15 -120 15 -52 0 -97 6 -120 15 l-35
15 -306 0 c-202 0 -318 4 -343 12 -30 8 -48 8 -79 -1 l-39 -12 -37 16 -36 15
-311 0 -310 0 -35 22 c-41 25 -58 27 -299 34 l-182 5 -30 -16 -31 -16 0 -37 0
-37 49 -18 c35 -12 80 -17 160 -17 77 0 123 -5 148 -15 19 -8 53 -15 75 -15
21 0 55 -7 75 -15 l35 -15 310 0 309 0 36 -15 c27 -12 79 -15 225 -15 145 0
197 -3 225 -15 27 -12 81 -15 240 -15 158 0 212 -3 240 -15 26 -11 76 -15 195
-15 118 0 168 -4 195 -15 22 -9 67 -15 120 -15 52 0 97 -6 120 -15 24 -10 71
-15 150 -15 78 0 125 -5 150 -15 19 -8 53 -15 75 -15 21 0 55 -7 75 -15 19 -8
59 -15 87 -15 76 0 238 -60 310 -115 36 -27 230 -125 248 -125 7 0 33 -14 58
-30 25 -16 56 -30 69 -30 14 0 85 -20 158 -45 73 -25 150 -45 172 -45 22 0 43
-4 46 -10 8 -12 209 -13 233 -1 9 5 34 16 55 25 l37 16 -1 72 c-1 82 -29 150
-64 156 -11 3 -45 20 -77 39 -78 48 -269 112 -336 113 -29 0 -69 7 -89 15 -19
8 -53 15 -75 15 -21 0 -55 7 -75 15 -19 8 -52 15 -72 15 -40 0 -126 27 -209
66 l-53 24 -102 0 c-108 1 -129 7 -212 61 -22 15 -59 37 -82 50 -123 71 -183
112 -206 143 -17 21 -42 39 -69 47 -30 10 -50 26 -73 59 -19 27 -44 49 -63 55
-40 14 -103 77 -117 117 -6 19 -28 44 -55 63 -25 17 -56 51 -70 77 -14 25 -40
62 -59 84 -19 21 -45 62 -58 92 l-25 53 4 92 3 92 23 32 c22 30 117 84 173 97
40 9 94 49 97 73 2 12 -4 35 -13 52 l-16 31 -44 0 c-24 0 -47 -4 -50 -10z
m1640 -1696 c112 -36 157 -65 123 -77 -15 -5 -106 24 -208 65 l-25 10 20 9
c29 11 35 11 90 -7z"/>
</g>
</svg>
