<?xml version="1.0" standalone="no"?>
<!DOCTYPE svg PUBLIC "-//W3C//DTD SVG 20010904//EN"
 "http://www.w3.org/TR/2001/REC-SVG-20010904/DTD/svg10.dtd">
<svg version="1.0" xmlns="http://www.w3.org/2000/svg"
 width="285.000000pt" height="234.000000pt" viewBox="0 0 285.000000 234.000000"
 preserveAspectRatio="xMidYMid meet">
<metadata>
Created by potrace 1.16, written by Peter Selinger 2001-2019
</metadata>
<g transform="translate(0.000000,234.000000) scale(0.100000,-0.100000)"
fill="#000000" stroke="none">
<path d="M990 2331 c-8 -5 -36 -18 -61 -29 -67 -30 -178 -121 -200 -164 -15
-30 -19 -59 -19 -143 l0 -105 34 -68 c19 -37 46 -78 60 -91 14 -14 26 -31 26
-38 0 -26 42 -98 80 -138 21 -22 49 -56 62 -76 34 -50 187 -207 220 -225 15
-7 61 -45 102 -84 42 -38 83 -70 92 -70 9 0 40 -25 68 -55 35 -38 76 -67 131
-95 98 -49 103 -52 149 -118 44 -63 40 -75 -34 -121 -38 -24 -56 -44 -79 -89
-48 -95 -71 -175 -71 -246 0 -60 -14 -96 -38 -96 -10 0 -50 28 -90 62 -18 15
-41 28 -51 28 -9 0 -28 12 -42 26 -13 14 -42 35 -64 46 -22 11 -60 37 -85 58
-25 20 -65 47 -90 60 -25 12 -65 39 -90 60 -25 20 -59 44 -77 53 -17 9 -53 35
-79 58 -26 23 -89 68 -138 100 -50 32 -108 71 -129 86 -22 15 -61 44 -88 63
-26 19 -58 48 -70 63 -44 57 -190 109 -249 89 -18 -7 -45 -12 -60 -12 -14 0
-45 -14 -68 -31 l-42 -31 0 -67 c0 -72 21 -131 59 -165 12 -11 21 -28 21 -38
0 -26 71 -100 141 -148 75 -51 162 -80 241 -80 l62 0 58 61 c37 38 64 59 73
55 32 -12 152 -97 185 -131 19 -19 51 -40 72 -46 24 -6 47 -22 64 -45 15 -20
54 -49 86 -65 32 -16 75 -45 96 -63 20 -18 53 -41 72 -51 19 -10 49 -28 65
-40 17 -13 50 -33 75 -45 25 -12 68 -40 95 -62 28 -22 78 -59 112 -84 l63 -44
70 0 70 0 0 29 c0 16 -13 58 -30 93 l-30 63 0 101 0 101 50 99 c77 155 89 164
209 164 l84 0 124 -60 c69 -33 135 -60 149 -60 14 0 41 -7 61 -15 26 -11 75
-15 185 -15 l149 0 39 20 c27 14 46 34 60 62 26 54 25 78 -2 123 -13 19 -32
50 -43 67 -15 24 -36 38 -85 55 -36 12 -81 23 -100 23 -19 0 -55 6 -80 14
-103 33 -140 39 -239 43 l-104 4 -84 -26 -84 -27 -32 13 c-18 6 -53 29 -79 51
-26 21 -64 44 -84 51 -25 8 -48 27 -68 54 -18 25 -67 66 -116 99 -47 31 -110
79 -140 108 -30 29 -72 63 -92 76 -20 14 -49 43 -63 65 -14 22 -74 88 -133
147 -59 58 -117 124 -130 145 -104 172 -126 225 -137 325 l-6 63 29 46 c31 49
81 79 129 79 30 0 51 17 72 58 l12 23 -22 39 -23 40 -60 -1 c-34 0 -68 -4 -76
-8z m-722 -1398 c79 -36 202 -146 202 -180 0 -28 -25 -53 -54 -53 -24 0 -77
35 -138 92 -46 44 -84 124 -67 144 14 17 13 17 57 -3z m2129 -178 c19 -8 45
-15 57 -15 35 0 158 -46 183 -68 14 -12 21 -27 17 -36 -11 -30 -51 -29 -143 3
-49 17 -98 31 -108 31 -28 0 -136 39 -152 55 l-14 14 13 15 c16 21 99 21 147
1z"/>
</g>
</svg>
