<?xml version="1.0" standalone="no"?>
<!DOCTYPE svg PUBLIC "-//W3C//DTD SVG 20010904//EN"
 "http://www.w3.org/TR/2001/REC-SVG-20010904/DTD/svg10.dtd">
<svg version="1.0" xmlns="http://www.w3.org/2000/svg"
 width="822.000000pt" height="249.000000pt" viewBox="0 0 822.000000 249.000000"
 preserveAspectRatio="xMidYMid meet">
<metadata>
Created by potrace 1.16, written by Peter Selinger 2001-2019
</metadata>
<g transform="translate(0.000000,249.000000) scale(0.100000,-0.100000)"
fill="#000000" stroke="none">
<path d="M6825 2446 c-33 -24 -72 -55 -87 -69 l-28 -26 0 -96 c0 -109 17 -158
70 -195 17 -12 42 -40 56 -61 16 -26 43 -48 83 -68 32 -17 83 -52 112 -80 30
-27 92 -68 137 -91 54 -28 93 -56 113 -81 17 -21 37 -39 46 -39 25 0 86 -31
133 -69 24 -20 81 -60 125 -90 44 -29 110 -80 146 -112 37 -33 74 -59 83 -59
23 0 66 -45 66 -69 0 -10 17 -33 38 -50 21 -16 55 -57 75 -89 l37 -60 0 -85 0
-84 -30 -41 c-32 -44 -104 -102 -126 -102 -7 0 -48 -17 -91 -38 -119 -58 -200
-82 -275 -82 -36 0 -82 -7 -101 -15 -20 -8 -55 -15 -77 -15 -23 0 -51 -5 -63
-12 -12 -7 -67 -16 -122 -21 -55 -4 -120 -10 -145 -13 -48 -4 -274 -22 -375
-28 -34 -2 -66 1 -73 7 -10 7 -102 10 -291 8 l-278 -3 -37 16 c-30 13 -76 16
-213 16 -132 0 -182 4 -210 15 -23 10 -69 15 -134 15 -54 0 -110 5 -126 12
-15 6 -48 14 -73 17 l-45 6 -3 22 c-2 12 10 40 27 64 l31 42 0 70 0 70 -123
126 c-68 69 -133 141 -146 159 -13 18 -44 44 -69 58 -26 14 -70 40 -98 57 -44
28 -260 105 -414 147 -76 21 -166 24 -211 6 -22 -9 -58 -16 -82 -16 -30 0 -55
-9 -87 -30 -25 -16 -52 -30 -61 -30 -19 0 -41 -23 -63 -67 -11 -23 -16 -59
-16 -129 l0 -97 97 -99 c69 -70 107 -101 133 -108 37 -10 145 -95 145 -114 0
-8 -80 -12 -267 -14 l-268 -2 -36 15 c-27 11 -76 15 -196 15 -118 0 -168 4
-195 15 -28 12 -82 15 -255 15 -172 0 -226 3 -255 15 -27 12 -79 15 -227 15
l-191 0 -35 19 c-37 20 -36 16 -24 113 l6 47 -51 54 -52 55 -67 20 c-183 54
-210 58 -265 37 l-44 -17 -38 16 c-58 25 -146 21 -205 -9 -72 -36 -80 -53 -80
-165 l0 -95 55 -55 c58 -59 65 -74 38 -83 -10 -3 -49 -17 -87 -31 -38 -14 -86
-26 -106 -26 -21 0 -54 -7 -73 -15 -20 -8 -53 -15 -74 -15 -21 0 -76 -14 -123
-30 -67 -24 -101 -30 -166 -30 -50 0 -95 -6 -117 -15 -20 -8 -60 -15 -89 -15
-33 0 -85 -12 -138 -30 -46 -17 -101 -30 -121 -30 -20 0 -53 -7 -72 -15 -20
-8 -61 -15 -92 -15 -55 0 -102 -16 -137 -48 -18 -15 -24 -77 -10 -98 19 -29
79 -48 152 -49 86 -1 147 -24 194 -74 l29 -30 -13 -16 c-9 -11 -31 -15 -78
-15 l-66 0 -100 51 c-56 27 -116 61 -135 75 -25 17 -47 24 -82 24 l-49 0 0
-53 0 -54 50 -42 c50 -42 235 -141 263 -141 9 0 19 -4 22 -10 4 -6 62 -10 142
-10 l135 0 37 29 c20 16 48 52 61 80 l23 51 -18 57 c-15 46 -31 69 -74 109
l-56 51 14 17 c8 10 29 16 53 16 22 0 49 5 61 12 12 6 56 15 97 19 83 8 121
17 255 60 53 17 113 29 144 29 29 0 62 5 74 12 12 7 63 15 112 19 89 7 121 13
243 50 34 10 80 19 102 19 49 0 109 13 225 51 l91 29 92 0 c60 0 105 -5 129
-15 l35 -15 280 0 279 0 36 -15 c27 -11 78 -15 212 -15 l177 0 29 -30 29 -30
223 0 c176 0 231 -3 260 -15 l35 -15 457 0 457 0 58 -21 c32 -11 75 -31 95
-45 28 -19 49 -24 94 -24 32 0 74 -7 94 -15 22 -9 67 -15 120 -15 52 0 97 -6
120 -15 28 -12 86 -15 284 -15 l249 0 41 -17 41 -16 47 17 c36 13 54 14 74 7
15 -6 51 -10 79 -10 29 0 85 -2 125 -6 56 -6 81 -3 116 10 l45 17 46 -27 46
-27 57 6 c32 4 132 10 223 14 91 4 178 13 193 20 18 8 84 12 186 12 118 0 168
4 194 15 20 8 54 15 76 15 23 0 66 12 103 30 34 16 76 30 91 30 15 0 49 11 75
24 26 13 86 36 135 51 l87 27 64 69 c35 38 71 69 79 69 16 0 26 11 72 83 l25
38 0 74 c0 41 -4 77 -10 80 -5 3 -10 20 -10 36 0 38 -32 101 -80 159 -21 25
-47 64 -59 87 -14 28 -40 55 -74 78 -28 19 -77 55 -107 80 -30 25 -66 48 -80
52 -14 3 -47 26 -75 50 -27 23 -79 59 -116 78 -36 19 -92 58 -125 87 -33 29
-79 61 -104 72 -61 25 -58 23 -142 91 -40 33 -85 68 -101 78 -15 10 -38 35
-52 57 -14 22 -37 46 -53 54 -48 25 -79 64 -101 131 l-22 65 16 27 c9 16 37
43 61 61 l44 33 0 49 0 50 -72 -1 -73 0 -60 -43z m-2510 -1166 c78 -8 162 -32
223 -64 16 -8 61 -25 99 -37 37 -12 82 -34 98 -50 17 -15 48 -36 70 -47 51
-25 91 -66 117 -117 12 -22 36 -57 55 -78 64 -72 64 -110 -2 -141 l-36 -17
-33 11 c-23 7 -41 7 -60 0 -39 -14 -91 -12 -133 5 -19 8 -54 15 -76 15 -30 0
-80 19 -191 73 -83 41 -162 77 -176 80 -14 4 -50 27 -80 52 -30 24 -78 60
-106 79 -57 38 -88 90 -78 132 16 62 134 131 204 118 14 -3 61 -9 105 -14z
m-2355 -289 c62 -22 80 -47 62 -86 l-12 -25 -99 0 c-107 0 -138 7 -171 40 -16
16 -18 24 -10 40 8 15 21 20 54 20 24 0 59 7 77 15 43 18 35 18 99 -4z"/>
</g>
</svg>
