<?xml version="1.0" standalone="no"?>
<!DOCTYPE svg PUBLIC "-//W3C//DTD SVG 20010904//EN"
 "http://www.w3.org/TR/2001/REC-SVG-20010904/DTD/svg10.dtd">
<svg version="1.0" xmlns="http://www.w3.org/2000/svg"
 width="783.000000pt" height="192.000000pt" viewBox="0 0 783.000000 192.000000"
 preserveAspectRatio="xMidYMid meet">
<metadata>
Created by potrace 1.16, written by Peter Selinger 2001-2019
</metadata>
<g transform="translate(0.000000,192.000000) scale(0.100000,-0.100000)"
fill="#000000" stroke="none">
<path d="M6588 1876 c-21 -32 -28 -56 -28 -92 0 -38 7 -59 28 -89 15 -22 41
-64 57 -94 23 -43 42 -62 85 -87 37 -22 66 -49 90 -85 22 -33 44 -55 57 -57
12 -2 33 -18 47 -36 14 -19 49 -48 78 -65 29 -17 82 -56 118 -87 36 -30 88
-70 115 -89 114 -78 345 -342 345 -395 0 -8 14 -35 30 -60 50 -75 41 -109 -60
-209 -54 -54 -91 -81 -154 -111 -46 -22 -95 -40 -109 -40 -14 0 -54 -13 -89
-30 l-63 -30 -88 0 c-50 0 -98 -5 -110 -12 -12 -7 -67 -16 -122 -21 -55 -4
-120 -10 -145 -13 -25 -3 -148 -8 -275 -12 -146 -5 -240 -12 -258 -20 -44 -19
-86 -15 -177 18 l-85 30 -218 0 c-170 0 -225 3 -254 15 -26 11 -76 15 -195 15
-118 0 -168 4 -195 15 -19 8 -65 15 -102 15 -49 0 -90 8 -151 30 -47 16 -102
30 -123 30 -21 0 -54 7 -74 15 -19 8 -54 15 -77 15 -27 0 -66 13 -116 38 l-75
37 4 91 3 90 -37 75 c-59 118 -250 299 -316 299 -7 0 -50 18 -97 41 -48 22
-132 56 -189 75 l-103 34 -200 0 -199 0 -81 -26 -81 -26 -62 25 c-34 14 -71
28 -82 31 -11 3 -46 35 -78 71 -32 36 -80 76 -105 90 -26 13 -68 41 -94 62
-26 21 -59 46 -73 56 -34 24 -32 41 15 99 22 28 40 61 40 75 0 34 -83 119
-150 153 -30 16 -77 47 -104 69 -32 28 -58 41 -77 41 -16 0 -46 7 -66 15 -59
25 -174 20 -233 -10 -59 -30 -80 -58 -80 -107 l0 -38 42 -46 c24 -26 80 -71
125 -101 50 -32 93 -70 110 -95 21 -31 48 -51 110 -82 44 -23 101 -57 124 -76
24 -19 80 -59 124 -88 44 -30 91 -64 105 -77 14 -13 48 -34 75 -48 28 -14 75
-47 104 -73 28 -26 90 -72 136 -103 87 -58 186 -136 265 -208 25 -23 81 -60
125 -83 44 -23 105 -57 135 -76 30 -19 71 -39 90 -44 19 -5 59 -21 88 -35 28
-14 58 -25 64 -25 7 0 55 -20 106 -45 52 -25 105 -45 118 -45 14 0 41 -7 61
-15 19 -8 45 -15 57 -15 12 0 60 -13 106 -30 47 -16 94 -30 105 -30 32 0 134
-39 174 -66 28 -19 49 -24 94 -24 32 0 74 -7 94 -15 19 -8 53 -15 75 -15 21 0
55 -7 75 -15 19 -8 60 -15 90 -15 29 0 70 -7 90 -15 19 -8 53 -15 75 -15 21 0
55 -7 75 -15 23 -10 69 -15 135 -15 65 0 111 -5 135 -15 l35 -15 299 0 c188 0
300 -4 304 -10 8 -13 607 -14 620 -1 6 6 73 12 150 14 132 3 167 9 275 43 25
8 61 14 80 14 19 0 73 14 120 30 46 17 94 30 106 30 12 0 51 13 86 30 34 16
70 30 78 30 8 0 29 9 45 20 17 11 39 20 51 20 11 0 48 18 82 40 l62 41 40 79
c22 43 44 81 50 85 13 8 13 162 0 170 -6 4 -26 37 -44 73 -19 37 -46 78 -60
91 -14 14 -26 33 -26 44 0 11 -22 41 -49 67 -27 27 -59 66 -70 87 -22 45 -83
103 -107 103 -9 0 -45 32 -81 70 -36 39 -76 73 -90 76 -14 4 -61 43 -106 88
-81 81 -191 173 -275 231 -64 43 -109 101 -127 163 l-16 55 25 26 c17 18 26
38 26 59 l0 32 -102 0 -103 -1 -27 -43z m-4324 -232 c4 -9 5 -19 3 -21 -7 -7
-57 16 -57 27 0 17 47 11 54 -6z m51 -54 c3 -5 2 -10 -4 -10 -5 0 -13 5 -16
10 -3 6 -2 10 4 10 5 0 13 -4 16 -10z m1162 -625 c19 -8 52 -15 72 -15 42 0
217 -57 310 -101 89 -42 192 -145 232 -234 36 -80 30 -95 -40 -95 -70 0 -181
40 -255 92 -21 16 -46 28 -54 28 -28 0 -182 80 -221 115 -24 22 -49 35 -65 35
-15 0 -61 20 -102 45 -40 25 -77 45 -81 45 -14 0 -43 34 -43 51 0 10 10 25 22
33 30 21 175 22 225 1z"/>
<path d="M0 1122 l0 -58 27 -26 c37 -34 114 -72 210 -103 43 -14 102 -37 131
-50 29 -14 57 -25 63 -25 6 0 40 -13 76 -30 37 -17 81 -30 104 -30 22 0 56 -7
76 -15 19 -8 52 -15 72 -15 20 0 56 -6 81 -14 58 -18 124 -35 175 -45 22 -4
56 -12 75 -18 111 -35 132 -37 417 -40 l292 -4 99 49 c217 109 272 168 272
296 l0 65 -32 36 c-35 41 -95 75 -132 75 -27 0 -66 -41 -66 -70 0 -10 7 -34
15 -53 19 -47 19 -107 0 -135 -9 -12 -49 -38 -89 -57 l-73 -35 -275 0 -274 0
-84 30 c-50 17 -105 30 -135 30 -27 0 -70 6 -95 14 -60 19 -125 35 -182 46
-26 5 -56 13 -67 19 -11 6 -38 11 -61 11 -25 0 -67 12 -107 30 -35 17 -69 30
-75 30 -5 0 -39 14 -75 30 -35 17 -76 30 -89 30 -14 0 -50 11 -80 25 -58 27
-167 65 -184 65 -6 0 -10 -25 -10 -58z"/>
</g>
</svg>
