<?xml version="1.0" standalone="no"?>
<!DOCTYPE svg PUBLIC "-//W3C//DTD SVG 20010904//EN"
 "http://www.w3.org/TR/2001/REC-SVG-20010904/DTD/svg10.dtd">
<svg version="1.0" xmlns="http://www.w3.org/2000/svg"
 width="600.000000pt" height="183.000000pt" viewBox="0 0 600.000000 183.000000"
 preserveAspectRatio="xMidYMid meet">
<metadata>
Created by potrace 1.16, written by Peter Selinger 2001-2019
</metadata>
<g transform="translate(0.000000,183.000000) scale(0.100000,-0.100000)"
fill="#000000" stroke="none">
<path d="M23 1804 l-23 -25 0 -72 0 -73 52 -58 c28 -32 69 -69 90 -82 42 -27
157 -129 171 -151 11 -17 -17 -73 -53 -108 -17 -16 -30 -36 -30 -44 0 -9 -11
-40 -25 -69 -14 -30 -25 -62 -25 -72 0 -17 54 -105 88 -144 33 -36 148 -106
175 -106 15 0 44 -7 64 -15 37 -16 156 -19 266 -6 l59 6 26 39 c18 25 40 43
66 51 21 8 53 28 71 45 l33 32 64 -21 c34 -12 123 -51 196 -87 73 -35 166 -75
207 -89 41 -13 92 -36 112 -50 21 -14 45 -25 53 -25 8 0 32 -11 52 -25 20 -14
72 -36 115 -50 94 -31 175 -68 217 -100 17 -13 67 -35 111 -50 44 -14 99 -34
123 -45 23 -11 77 -32 120 -45 42 -14 101 -37 130 -50 l53 -25 85 0 85 0 56
-26 c76 -34 211 -75 315 -94 26 -5 56 -13 67 -19 11 -6 65 -11 120 -11 55 0
112 -5 128 -12 31 -12 87 -21 238 -38 55 -6 118 -16 140 -22 22 -6 94 -14 160
-18 106 -7 181 -23 201 -43 11 -11 789 -8 799 2 6 6 66 12 135 14 138 4 140 4
396 88 133 44 196 59 237 59 l56 0 33 44 c18 25 52 57 76 72 54 35 72 60 72
101 0 17 5 35 10 38 6 4 10 53 10 115 0 62 -4 111 -10 115 -5 3 -10 21 -10 40
l0 34 -197 195 c-109 108 -218 216 -243 240 -42 41 -97 76 -119 76 -5 0 -45
34 -87 75 -42 41 -83 75 -91 75 -8 0 -35 10 -61 21 -54 25 -182 149 -182 177
0 21 18 38 70 66 56 30 70 47 70 83 0 65 -57 90 -133 58 -20 -8 -51 -15 -68
-15 l-32 0 -59 -58 -58 -59 0 -55 0 -56 36 -44 c20 -23 47 -60 60 -80 16 -24
43 -47 77 -64 28 -14 72 -43 97 -63 25 -20 84 -63 132 -95 48 -32 107 -75 130
-96 24 -20 62 -47 85 -59 23 -11 50 -33 60 -48 10 -14 38 -46 63 -70 88 -84
102 -99 169 -174 102 -115 133 -224 91 -317 -34 -74 -58 -102 -90 -102 -16 0
-64 -17 -107 -38 -87 -42 -198 -82 -230 -82 -11 0 -37 -7 -56 -15 -28 -11 -78
-15 -210 -15 -133 0 -183 -4 -210 -15 -52 -22 -452 -22 -504 0 -26 11 -74 15
-180 15 -105 0 -153 4 -180 15 -24 10 -71 15 -150 15 -78 0 -125 5 -150 15
-19 8 -53 15 -75 15 -21 0 -55 7 -75 15 -19 8 -53 15 -75 15 -21 0 -55 7 -75
15 -20 8 -66 15 -105 15 -38 0 -84 7 -105 15 -19 8 -51 15 -71 15 -68 0 -252
75 -276 112 -7 11 -6 33 4 71 10 42 10 62 1 87 -6 18 -11 44 -11 57 0 45 -49
119 -137 204 -48 47 -101 93 -116 103 -15 9 -52 39 -81 65 -33 30 -66 51 -88
55 -19 3 -54 23 -78 43 -48 41 -209 102 -273 103 -21 0 -54 7 -74 15 -25 11
-72 15 -164 15 l-129 0 -65 -21 c-77 -26 -135 -80 -135 -128 0 -17 -5 -42 -10
-57 -8 -21 -7 -37 5 -66 25 -64 8 -71 -90 -38 -33 12 -111 45 -173 75 -62 30
-119 55 -126 55 -7 0 -32 15 -56 33 -24 17 -62 45 -84 61 -49 35 -59 47 -92
111 -38 74 -346 382 -396 395 -23 7 -48 24 -67 48 -16 21 -49 46 -73 56 -24
10 -51 22 -60 27 -10 5 -71 9 -135 8 l-118 -1 -22 -24z m312 -194 c10 -11 26
-22 36 -25 19 -6 45 -43 36 -51 -13 -13 -137 66 -137 88 0 16 47 8 65 -12z
m262 -405 c124 -60 203 -119 203 -152 0 -34 -27 -77 -60 -97 -59 -34 -233 -8
-312 46 l-28 19 0 57 c0 65 26 131 61 156 13 9 28 16 33 16 5 0 51 -20 103
-45z m1323 -89 c76 -24 132 -37 195 -46 59 -8 125 -37 235 -105 30 -18 71 -43
90 -55 19 -11 44 -34 55 -50 12 -16 50 -60 86 -98 l65 -69 18 -66 18 -65 -17
-31 c-9 -18 -23 -35 -31 -38 -29 -11 -83 9 -125 46 -54 47 -100 71 -134 71
-31 0 -87 24 -130 56 -17 13 -94 55 -171 93 -98 49 -159 87 -203 126 -34 30
-70 55 -81 55 -25 0 -61 52 -67 99 l-5 38 28 20 c53 37 100 42 174 19z"/>
</g>
</svg>
