<?xml version="1.0" standalone="no"?>
<!DOCTYPE svg PUBLIC "-//W3C//DTD SVG 20010904//EN"
 "http://www.w3.org/TR/2001/REC-SVG-20010904/DTD/svg10.dtd">
<svg version="1.0" xmlns="http://www.w3.org/2000/svg"
 width="654.000000pt" height="213.000000pt" viewBox="0 0 654.000000 213.000000"
 preserveAspectRatio="xMidYMid meet">
<metadata>
Created by potrace 1.16, written by Peter Selinger 2001-2019
</metadata>
<g transform="translate(0.000000,213.000000) scale(0.100000,-0.100000)"
fill="#000000" stroke="none">
<path d="M53 2088 l-53 -40 0 -74 c0 -40 5 -76 10 -79 6 -4 21 -28 35 -55 l24
-48 151 -101 c156 -104 219 -141 243 -141 8 0 33 -15 57 -32 92 -69 166 -118
178 -118 32 0 103 -43 132 -80 17 -22 39 -40 48 -40 30 0 208 -104 257 -150
17 -15 41 -30 55 -33 14 -4 47 -24 74 -47 26 -22 56 -40 65 -40 9 0 36 -14 61
-30 25 -16 51 -30 58 -30 25 0 87 -33 134 -71 29 -25 74 -48 125 -64 89 -29
116 -41 158 -71 36 -26 170 -94 185 -94 24 0 97 -41 144 -79 26 -23 55 -41 63
-41 20 0 143 -61 211 -105 30 -18 94 -46 144 -62 65 -20 103 -38 132 -64 71
-62 92 -69 221 -69 80 0 127 -5 152 -15 19 -8 59 -15 87 -15 28 0 71 -6 96
-14 60 -19 125 -35 182 -46 26 -5 56 -13 67 -19 11 -6 38 -11 61 -11 22 0 57
-7 77 -15 19 -8 60 -15 90 -15 29 0 70 -7 90 -15 28 -12 83 -15 260 -15 l224
0 25 -25 25 -25 449 0 c288 0 451 4 455 10 3 6 39 10 79 10 43 0 89 6 109 15
26 11 73 15 165 15 90 0 140 4 164 14 19 8 70 18 114 21 105 9 240 51 279 87
18 16 42 28 58 28 40 0 102 35 128 71 12 18 49 61 81 98 l58 65 0 108 c0 61
-4 109 -10 113 -6 4 -20 25 -31 48 -12 23 -41 63 -64 88 -23 25 -54 64 -68 86
-14 23 -63 72 -109 109 -128 107 -236 213 -274 271 -19 29 -48 60 -63 68 -16
8 -53 36 -82 63 -30 26 -67 56 -84 67 -16 10 -57 44 -90 75 -33 31 -76 67 -97
80 -46 31 -68 68 -68 117 l0 40 40 32 c41 33 51 66 28 89 -18 18 -125 14 -185
-7 -82 -28 -83 -29 -83 -145 l0 -101 88 -83 c48 -46 107 -100 132 -120 109
-88 215 -187 269 -251 21 -26 47 -44 70 -51 43 -11 60 -28 90 -88 13 -26 37
-52 64 -68 23 -15 60 -46 81 -71 21 -24 56 -55 77 -68 25 -16 61 -61 108 -132
l71 -108 0 -55 c0 -34 -7 -68 -17 -87 -22 -39 -90 -99 -179 -158 l-69 -45
-116 0 c-81 0 -128 -5 -152 -15 -20 -8 -54 -15 -75 -15 -22 0 -56 -7 -75 -15
-20 -8 -61 -15 -90 -15 -30 0 -71 -7 -90 -15 -27 -11 -75 -15 -180 -15 -106 0
-154 -4 -180 -15 l-36 -15 -323 0 -323 0 -45 30 -45 30 -118 0 c-82 0 -129 5
-154 15 -22 9 -67 15 -120 15 -52 0 -97 6 -120 15 -23 10 -69 15 -132 15 l-97
0 -84 30 c-47 16 -94 30 -105 30 -12 0 -59 13 -105 30 -47 16 -96 30 -111 30
-43 0 -49 16 -49 127 l0 103 -55 109 c-52 106 -82 141 -115 141 -9 0 -27 11
-40 25 -32 34 -184 137 -257 173 -33 17 -107 46 -166 66 l-107 36 -80 0 c-49
0 -95 6 -117 15 -53 22 -137 18 -218 -10 -96 -34 -112 -49 -140 -129 -13 -37
-26 -71 -30 -74 -3 -3 -38 9 -78 27 -39 19 -87 39 -105 45 -18 7 -45 24 -60
38 -31 29 -73 52 -116 62 -17 4 -42 16 -58 27 -22 16 -28 28 -28 58 0 21 5 52
11 69 l10 30 -31 62 c-47 92 -107 176 -155 217 -24 20 -55 58 -70 85 -16 30
-43 59 -68 75 -22 14 -61 45 -86 68 -46 42 -118 85 -144 85 -7 0 -28 18 -46
40 -17 22 -44 43 -59 46 -15 4 -48 19 -73 35 -25 16 -58 29 -73 29 -15 0 -57
14 -93 30 -35 17 -71 30 -78 30 -8 0 -17 5 -20 10 -4 6 -67 10 -158 9 l-152 0
-52 -41z m278 -115 c40 -11 75 -30 104 -55 34 -30 51 -38 82 -38 52 0 138 -31
171 -62 15 -14 45 -35 68 -46 45 -23 113 -83 285 -252 l117 -115 5 -37 c3 -21
4 -38 2 -38 -2 0 -27 14 -55 30 -28 17 -53 30 -56 30 -2 0 -23 14 -46 30 -22
17 -48 30 -55 30 -20 0 -82 29 -118 56 -16 12 -52 34 -80 48 -76 41 -180 108
-212 137 -15 13 -55 34 -88 44 -46 15 -73 33 -116 75 -31 30 -75 70 -98 89
-48 39 -51 55 -13 75 34 19 31 19 103 -1z m1979 -977 c58 -18 123 -35 180 -46
60 -12 204 -83 260 -129 25 -20 61 -47 81 -61 56 -37 121 -143 132 -214 l9
-60 -18 -13 c-25 -18 -95 -16 -124 4 -14 9 -40 29 -58 45 -21 18 -44 28 -65
28 -19 0 -50 12 -77 30 -25 16 -51 30 -58 30 -20 0 -82 30 -119 58 -17 13 -47
28 -67 33 -19 5 -59 31 -88 57 -29 27 -70 58 -91 70 -59 34 -147 114 -147 133
0 10 10 25 22 33 29 21 166 22 228 2z"/>
</g>
</svg>
