<?xml version="1.0" standalone="no"?>
<!DOCTYPE svg PUBLIC "-//W3C//DTD SVG 20010904//EN"
 "http://www.w3.org/TR/2001/REC-SVG-20010904/DTD/svg10.dtd">
<svg version="1.0" xmlns="http://www.w3.org/2000/svg"
 width="543.000000pt" height="489.000000pt" viewBox="0 0 543.000000 489.000000"
 preserveAspectRatio="xMidYMid meet">
<metadata>
Created by potrace 1.16, written by Peter Selinger 2001-2019
</metadata>
<g transform="translate(0.000000,489.000000) scale(0.100000,-0.100000)"
fill="#000000" stroke="none">
<path d="M4039 4861 c-15 -14 -38 -34 -52 -43 -17 -12 -31 -37 -42 -75 l-17
-58 12 -55 c6 -30 14 -65 16 -76 2 -12 22 -37 44 -55 40 -33 53 -46 144 -139
24 -25 71 -65 106 -90 34 -25 85 -63 113 -85 29 -22 72 -52 97 -67 25 -14 54
-36 65 -48 11 -12 38 -31 60 -43 22 -11 54 -30 70 -42 17 -13 50 -33 75 -45
25 -12 65 -39 90 -59 25 -20 66 -49 92 -64 26 -15 56 -41 68 -57 12 -17 40
-40 63 -51 39 -21 143 -123 179 -178 28 -41 23 -101 -12 -149 -31 -44 -104
-102 -126 -102 -7 0 -42 -13 -77 -30 -36 -17 -77 -30 -92 -30 -14 0 -35 -5
-46 -11 -11 -6 -41 -14 -67 -19 -57 -11 -122 -27 -182 -46 -62 -20 -784 -21
-833 -1 -21 8 -95 14 -211 15 -128 2 -190 7 -214 18 -19 8 -59 14 -89 14 -29
0 -70 7 -90 15 -20 8 -66 15 -105 15 -38 0 -84 7 -105 15 -23 10 -69 15 -135
15 -65 0 -111 5 -135 15 -21 9 -67 15 -116 15 -91 0 -163 21 -290 82 -50 25
-92 38 -118 38 -22 0 -56 7 -76 15 -19 8 -53 15 -75 15 -78 0 -158 54 -158
108 0 46 -42 147 -75 182 -19 19 -49 54 -67 78 l-33 43 -100 34 c-65 22 -119
34 -155 34 -56 1 -169 -33 -215 -63 -37 -24 -65 -87 -65 -146 l0 -51 52 -55
c28 -30 63 -57 77 -61 14 -3 55 -23 91 -45 36 -21 76 -41 90 -45 41 -9 151
-64 157 -78 7 -21 -13 -51 -78 -116 -80 -80 -136 -119 -171 -119 -16 0 -39 -5
-51 -12 -12 -6 -60 -16 -107 -20 -95 -10 -98 -10 -230 -2 l-95 6 -28 -22 c-32
-25 -36 -69 -9 -92 9 -9 36 -25 59 -37 l42 -21 134 0 c97 0 145 4 170 15 20 8
55 15 77 15 81 0 283 124 416 254 42 42 88 79 102 83 13 3 50 -2 81 -11 31
-10 83 -21 116 -25 34 -5 70 -13 82 -19 12 -7 41 -12 65 -12 l44 0 29 -30 c23
-24 37 -30 69 -30 23 0 61 -6 86 -14 78 -25 133 -37 195 -45 34 -5 70 -13 82
-19 13 -7 73 -12 153 -12 93 0 141 -4 167 -15 19 -8 60 -15 90 -15 29 0 70 -7
90 -15 25 -11 72 -15 165 -15 92 0 139 -4 165 -15 26 -11 74 -15 180 -15 105
0 153 -4 180 -15 28 -12 84 -15 273 -15 189 0 245 3 273 15 20 8 61 15 90 15
30 0 71 7 90 15 20 8 53 15 74 15 21 0 76 14 123 30 46 17 101 30 121 30 20 0
53 7 72 15 20 8 56 15 80 15 30 0 49 6 58 17 25 30 131 103 150 103 12 0 39
28 74 74 l55 75 0 97 0 96 -27 34 c-16 18 -39 47 -52 64 -13 17 -41 42 -62 55
-21 14 -71 53 -111 88 -40 35 -85 67 -100 70 -15 4 -39 23 -54 43 -15 19 -44
44 -64 54 -46 23 -166 104 -200 135 -14 12 -59 44 -100 71 -41 26 -88 60 -105
75 -33 29 -107 69 -127 69 -8 0 -31 20 -51 45 -20 24 -62 61 -92 81 -94 62
-164 160 -165 228 0 22 11 39 45 70 49 45 51 53 33 103 l-12 33 -61 -1 -60 -1
-26 -27z m-2489 -1157 c73 -45 93 -66 88 -96 -2 -18 -10 -24 -36 -26 -41 -4
-166 54 -206 97 l-29 30 13 16 c8 10 30 15 62 15 40 0 62 -7 108 -36z"/>
<path d="M0 2790 l0 -40 50 -25 c27 -14 84 -36 127 -50 89 -29 116 -41 158
-72 52 -38 233 -123 262 -123 21 0 39 -12 71 -50 40 -47 123 -100 155 -100 8
0 33 -15 57 -32 92 -69 166 -118 178 -118 13 0 65 -41 161 -125 25 -23 59 -49
76 -60 16 -10 50 -37 75 -60 25 -22 61 -51 81 -64 19 -13 51 -47 70 -75 24
-36 45 -54 68 -61 23 -7 47 -28 82 -76 27 -37 64 -77 82 -89 19 -13 44 -39 57
-59 13 -20 49 -63 80 -96 31 -33 78 -94 105 -135 27 -41 63 -92 81 -113 22
-27 45 -78 74 -164 22 -70 49 -138 60 -153 10 -14 28 -52 39 -85 l21 -59 0
-156 0 -156 -22 -44 c-13 -25 -40 -56 -62 -71 -21 -14 -51 -44 -65 -65 -30
-44 -100 -84 -147 -84 -33 0 -64 -26 -64 -54 0 -9 7 -30 15 -46 l16 -30 44 0
c24 0 47 5 50 10 3 6 13 10 21 10 47 0 266 135 289 179 7 14 32 48 54 75 28
32 41 58 41 77 0 16 7 46 15 66 21 49 21 257 0 306 -8 20 -15 56 -15 79 0 31
-8 56 -30 88 -16 25 -30 58 -30 73 0 15 -10 47 -21 70 -12 23 -35 82 -51 130
-37 114 -49 138 -92 171 -22 17 -39 40 -45 64 -7 25 -32 58 -76 102 -36 36
-78 83 -92 105 -36 53 -268 291 -315 321 -20 13 -70 52 -110 87 -40 35 -89 73
-108 84 -19 12 -46 36 -58 53 -13 17 -49 42 -80 57 -75 34 -71 31 -136 84 -31
25 -86 60 -122 78 -36 18 -83 48 -104 67 -20 19 -43 34 -50 34 -26 0 -181 81
-218 114 -57 51 -123 96 -141 96 -9 0 -36 14 -61 30 -25 16 -52 30 -60 30 -9
0 -32 11 -51 24 -69 47 -148 66 -274 66 l-115 0 0 -40z"/>
</g>
</svg>
