<?xml version="1.0" standalone="no"?>
<!DOCTYPE svg PUBLIC "-//W3C//DTD SVG 20010904//EN"
 "http://www.w3.org/TR/2001/REC-SVG-20010904/DTD/svg10.dtd">
<svg version="1.0" xmlns="http://www.w3.org/2000/svg"
 width="546.000000pt" height="183.000000pt" viewBox="0 0 546.000000 183.000000"
 preserveAspectRatio="xMidYMid meet">
<metadata>
Created by potrace 1.16, written by Peter Selinger 2001-2019
</metadata>
<g transform="translate(0.000000,183.000000) scale(0.100000,-0.100000)"
fill="#000000" stroke="none">
<path d="M4290 1815 c-7 -8 -31 -20 -54 -27 -53 -15 -63 -23 -87 -69 -31 -61
-25 -117 21 -209 31 -62 49 -86 81 -106 22 -14 48 -39 57 -56 42 -75 58 -92
95 -101 26 -6 56 -27 92 -63 33 -33 62 -54 76 -54 13 0 37 -16 58 -39 38 -40
126 -114 176 -145 16 -11 60 -48 97 -83 37 -34 71 -63 76 -63 5 0 45 -33 90
-72 44 -40 92 -81 106 -91 35 -24 96 -153 96 -204 0 -47 -36 -102 -96 -150
-53 -41 -78 -53 -132 -63 -57 -11 -122 -27 -182 -46 -25 -8 -68 -14 -96 -14
-28 0 -68 -7 -87 -15 -28 -11 -78 -15 -210 -15 -133 0 -183 -4 -210 -15 -51
-21 -273 -21 -324 0 -28 12 -82 15 -255 15 -172 0 -226 3 -255 15 -23 10 -69
15 -135 15 -65 0 -111 5 -135 15 -20 8 -66 15 -105 15 -38 0 -84 7 -105 15
-22 9 -67 15 -120 15 -52 0 -97 6 -120 15 -24 10 -70 15 -147 15 l-112 0 -84
30 c-47 16 -101 30 -120 30 -20 0 -74 13 -120 30 -47 16 -101 30 -120 30 -19
0 -55 6 -80 14 -60 19 -125 35 -181 46 -52 9 -189 75 -251 121 l-41 29 -194 0
c-149 0 -202 3 -230 15 -23 10 -69 15 -135 15 -65 0 -111 5 -135 15 -19 8 -53
15 -75 15 -21 0 -55 7 -75 15 -20 8 -66 15 -105 15 -38 0 -84 7 -105 15 -22 9
-67 15 -120 15 -52 0 -97 6 -120 15 -43 18 -76 19 -120 3 l-33 -12 0 -77 0
-76 58 -18 c79 -25 185 -79 230 -118 20 -18 56 -45 79 -60 l43 -27 0 -29 c0
-66 -101 -94 -306 -83 l-104 5 0 -72 0 -71 40 0 c22 0 57 -7 77 -15 46 -19
140 -19 186 0 20 8 50 15 67 15 22 0 44 12 78 43 26 24 66 58 89 76 l43 33 0
68 0 68 -45 55 c-25 31 -45 60 -45 66 0 17 184 14 227 -4 23 -10 69 -15 135
-15 65 0 111 -5 135 -15 20 -8 66 -15 105 -15 38 0 84 -7 105 -15 19 -8 45
-15 57 -15 12 0 60 -13 106 -30 63 -22 103 -30 155 -30 54 0 83 -6 125 -26 86
-40 228 -81 325 -93 34 -5 70 -13 82 -19 12 -7 47 -12 78 -12 30 0 72 -7 92
-15 19 -8 53 -15 75 -15 21 0 55 -7 75 -15 19 -8 53 -15 75 -15 21 0 55 -7 75
-15 19 -8 53 -15 75 -15 21 0 55 -7 75 -15 20 -8 66 -15 105 -15 38 0 84 -7
105 -15 26 -11 74 -15 180 -15 105 0 153 -4 180 -15 25 -11 73 -15 169 -15 78
0 135 -4 139 -10 4 -6 178 -10 490 -10 312 0 486 4 490 10 3 6 46 10 94 10 56
0 102 6 124 15 24 10 70 15 135 15 66 0 112 5 135 15 20 8 48 15 62 15 63 0
257 121 335 208 l50 56 0 101 0 102 -37 63 c-23 38 -52 72 -75 86 -21 13 -45
35 -54 49 -9 14 -39 42 -68 62 -28 20 -73 57 -100 81 -27 24 -79 61 -115 82
-36 22 -81 57 -99 80 -18 22 -72 66 -120 97 -48 32 -106 75 -128 96 -23 20
-60 50 -82 65 -22 15 -76 62 -121 104 l-81 77 -35 76 c-20 42 -35 84 -33 93 2
9 18 26 36 37 97 60 97 59 100 98 l3 37 -74 0 c-54 0 -78 -4 -87 -15z"/>
</g>
</svg>
