<?xml version="1.0" standalone="no"?>
<!DOCTYPE svg PUBLIC "-//W3C//DTD SVG 20010904//EN"
 "http://www.w3.org/TR/2001/REC-SVG-20010904/DTD/svg10.dtd">
<svg version="1.0" xmlns="http://www.w3.org/2000/svg"
 width="507.000000pt" height="279.000000pt" viewBox="0 0 507.000000 279.000000"
 preserveAspectRatio="xMidYMid meet">
<metadata>
Created by potrace 1.16, written by Peter Selinger 2001-2019
</metadata>
<g transform="translate(0.000000,279.000000) scale(0.100000,-0.100000)"
fill="#000000" stroke="none">
<path d="M3680 2771 c-50 -36 -148 -91 -162 -91 -78 0 -57 -213 32 -319 21
-25 50 -70 64 -98 17 -35 40 -61 66 -78 22 -14 51 -42 64 -64 14 -21 39 -49
56 -62 41 -31 88 -78 119 -119 13 -17 41 -42 62 -56 22 -13 50 -41 63 -62 13
-20 44 -50 68 -66 25 -16 58 -48 74 -73 31 -49 87 -103 108 -103 20 0 343
-326 350 -354 5 -22 54 -70 110 -109 14 -9 30 -33 35 -53 5 -20 20 -50 33 -67
30 -41 50 -86 43 -98 -10 -15 -43 -10 -57 9 -7 9 -26 26 -43 36 -16 11 -57 45
-90 76 -98 93 -145 108 -206 67 l-34 -23 1 -59 c0 -33 4 -73 8 -90 l7 -30 -68
-78 -68 -78 -149 -74 -149 -75 -72 0 c-42 0 -88 -6 -108 -15 -20 -8 -61 -15
-90 -15 -30 0 -71 -7 -90 -15 -26 -11 -73 -15 -165 -15 -93 0 -140 -4 -165
-15 l-36 -15 -261 0 -261 0 -36 15 c-27 12 -79 15 -225 15 -145 0 -197 3 -225
15 -23 10 -69 15 -135 15 -65 0 -111 5 -135 15 -25 11 -72 15 -165 15 -92 0
-139 4 -165 15 -19 8 -54 15 -77 15 -22 0 -53 8 -67 18 -45 30 -149 128 -149
141 0 28 -43 92 -79 118 -22 15 -52 48 -67 71 -16 24 -49 57 -74 74 -25 16
-61 53 -81 81 -27 40 -45 55 -79 67 -33 11 -52 27 -73 58 -27 40 -106 92 -140
92 -7 0 -26 14 -42 30 -16 17 -36 30 -44 30 -9 0 -29 9 -46 21 -16 11 -51 31
-77 45 l-47 24 -181 0 -181 0 -49 -25 c-31 -16 -59 -40 -74 -63 -13 -20 -31
-43 -40 -51 -13 -11 -16 -32 -16 -102 0 -49 5 -91 10 -94 6 -4 21 -28 35 -55
l25 -48 158 -106 c87 -58 165 -106 173 -106 8 0 28 -9 44 -21 78 -53 255 -129
302 -129 22 0 151 -43 191 -64 50 -26 150 -56 187 -56 20 0 52 -7 72 -15 19
-8 53 -15 75 -15 53 0 122 -33 153 -74 14 -19 41 -45 60 -57 19 -13 46 -43 62
-68 15 -24 44 -54 65 -67 21 -13 45 -36 55 -51 9 -16 49 -61 89 -101 40 -39
76 -81 79 -92 l6 -20 60 0 59 0 0 50 0 49 -44 33 c-24 18 -54 49 -67 68 -13
19 -52 65 -86 103 -35 37 -70 84 -78 104 l-16 37 14 14 14 13 38 -15 c24 -10
68 -16 122 -16 52 0 97 -6 120 -15 19 -8 59 -15 89 -15 29 0 65 -5 80 -10 19
-7 37 -7 60 0 25 9 40 8 69 -5 l37 -15 658 0 658 0 35 15 c20 8 67 15 104 15
49 0 91 9 153 30 46 17 94 30 106 30 12 0 51 13 86 30 34 16 73 30 86 30 42 0
142 40 202 81 32 22 97 80 144 130 69 72 90 89 106 84 11 -4 65 -29 120 -56
56 -27 110 -49 121 -49 32 0 97 38 121 70 12 16 30 32 40 36 l18 5 0 55 0 54
-46 63 c-25 34 -50 82 -57 106 -9 33 -23 52 -53 75 -23 17 -53 47 -67 67 -45
62 -335 355 -380 383 -24 15 -57 49 -74 75 -17 26 -51 60 -76 75 -24 16 -57
49 -73 73 -16 25 -40 53 -54 61 -69 44 -130 96 -130 112 0 20 -31 50 -52 50
-26 0 -57 33 -70 75 -9 28 -25 48 -55 67 -81 55 -183 236 -183 327 l0 54 45
41 45 42 0 52 0 52 -42 -1 c-25 0 -54 -8 -68 -18z m-3215 -1421 c125 -43 234
-108 283 -171 13 -16 41 -38 61 -49 45 -22 201 -174 201 -195 0 -7 32 -42 70
-77 97 -86 129 -166 56 -138 -15 5 -59 10 -98 10 -57 0 -85 6 -137 29 -97 42
-166 69 -255 102 -91 33 -108 45 -80 55 10 4 45 27 77 51 l57 44 0 53 c0 38
-5 57 -17 68 -32 28 -81 48 -119 48 l-37 0 -43 -44 -44 -43 0 -52 0 -52 -37 7
c-42 7 -139 63 -180 103 -52 52 -84 176 -50 198 20 13 191 71 212 72 12 1 48
-8 80 -19z"/>
</g>
</svg>
