<?xml version="1.0" standalone="no"?>
<!DOCTYPE svg PUBLIC "-//W3C//DTD SVG 20010904//EN"
 "http://www.w3.org/TR/2001/REC-SVG-20010904/DTD/svg10.dtd">
<svg version="1.0" xmlns="http://www.w3.org/2000/svg"
 width="258.000000pt" height="588.000000pt" viewBox="0 0 258.000000 588.000000"
 preserveAspectRatio="xMidYMid meet">
<metadata>
Created by potrace 1.16, written by Peter Selinger 2001-2019
</metadata>
<g transform="translate(0.000000,588.000000) scale(0.100000,-0.100000)"
fill="#000000" stroke="none">
<path d="M980 5849 c-19 -16 -54 -49 -77 -72 l-43 -42 0 -88 c0 -97 23 -183
66 -246 13 -19 24 -43 24 -52 0 -9 13 -34 29 -56 16 -23 41 -64 55 -91 14 -28
41 -62 59 -76 19 -14 46 -48 61 -76 15 -27 41 -60 58 -74 18 -13 46 -49 63
-78 17 -29 43 -59 58 -65 15 -7 39 -19 55 -26 15 -7 31 -26 37 -42 15 -46 23
-53 75 -80 27 -14 57 -37 67 -51 40 -58 87 -105 112 -111 14 -3 55 -37 90 -75
42 -45 74 -71 93 -75 38 -7 56 -43 40 -78 -6 -14 -20 -25 -30 -25 -11 0 -26
-8 -35 -18 -21 -23 -22 -107 -2 -142 23 -40 19 -50 -22 -50 -25 0 -53 10 -83
30 -25 16 -52 30 -61 30 -9 0 -71 27 -138 60 -67 33 -127 60 -134 60 -19 0
-134 57 -170 84 -49 37 -113 66 -144 66 -39 0 -158 60 -214 107 -31 26 -65 44
-102 53 l-56 13 -30 -12 c-46 -20 -63 -44 -59 -87 4 -45 39 -74 121 -98 29 -8
68 -27 87 -41 19 -15 58 -38 85 -52 28 -14 73 -43 100 -64 137 -106 162 -126
190 -143 32 -21 144 -119 215 -189 25 -24 70 -63 101 -86 39 -28 58 -51 62
-70 3 -16 23 -42 47 -62 22 -19 55 -49 73 -67 18 -18 50 -52 73 -75 45 -46
134 -186 134 -211 0 -8 24 -42 54 -75 51 -58 96 -153 96 -207 0 -10 14 -57 30
-104 17 -46 30 -94 30 -106 0 -12 7 -38 15 -57 8 -20 15 -52 15 -72 0 -20 -7
-52 -15 -72 -8 -19 -15 -47 -15 -61 0 -14 -13 -46 -29 -71 -16 -25 -32 -59
-35 -75 -11 -46 -37 -76 -93 -108 -29 -16 -64 -44 -77 -60 -14 -19 -44 -38
-77 -49 l-53 -19 -331 0 -331 0 -84 30 c-47 16 -97 30 -111 30 -19 0 -39 16
-80 66 -30 37 -73 90 -97 118 -24 28 -58 74 -77 101 -45 67 -237 255 -261 255
-10 0 -48 14 -82 30 -35 17 -76 30 -90 30 -15 0 -68 -19 -119 -42 l-92 -43 -1
-87 0 -87 27 -31 c71 -81 239 -240 254 -240 9 0 84 -33 166 -74 82 -40 163
-77 181 -80 17 -4 44 -20 59 -34 38 -37 121 -143 163 -209 19 -30 53 -67 75
-82 26 -18 44 -40 52 -64 17 -50 73 -130 134 -190 27 -27 67 -72 89 -101 21
-28 53 -62 69 -74 17 -12 41 -41 52 -65 12 -23 39 -61 59 -85 22 -24 42 -61
49 -87 8 -31 21 -52 47 -71 19 -15 47 -48 62 -73 14 -25 46 -71 69 -101 24
-30 60 -77 82 -105 21 -27 50 -74 65 -102 17 -35 40 -61 67 -78 22 -14 44 -36
48 -48 33 -84 49 -112 82 -138 23 -18 52 -59 79 -112 43 -84 72 -129 120 -182
14 -16 35 -56 45 -87 l19 -58 68 0 68 0 0 45 c0 45 -24 103 -69 170 -12 17
-21 37 -21 45 0 8 -14 35 -30 60 -16 25 -30 53 -30 62 0 10 -25 45 -55 79 -31
34 -58 74 -62 88 -11 48 -42 97 -76 124 -21 16 -50 57 -77 109 -23 45 -64 107
-91 136 -28 30 -62 78 -76 106 -14 28 -47 75 -74 104 -27 29 -52 68 -57 86 -6
18 -38 68 -73 111 -72 87 -73 88 -90 134 -7 18 -32 56 -55 84 -24 28 -56 69
-71 91 -15 23 -52 68 -83 101 -31 33 -65 74 -75 90 -11 17 -35 50 -55 75 -19
25 -44 60 -54 79 l-18 33 13 9 c24 15 206 11 246 -6 49 -21 257 -21 306 0 20
8 52 15 72 15 40 0 123 26 205 64 30 14 62 26 69 26 24 0 142 85 198 142 35
36 68 86 102 155 l51 103 0 55 c0 31 7 72 15 92 19 46 19 140 0 186 -8 20 -15
48 -15 61 0 14 -17 61 -39 104 -21 44 -50 116 -64 160 -17 54 -46 110 -82 163
-30 44 -63 95 -71 112 -9 18 -37 53 -63 78 -53 53 -148 166 -164 194 -6 11
-41 53 -79 94 -37 41 -68 81 -68 88 0 27 74 14 159 -27 228 -111 431 -143 431
-69 0 41 -38 90 -137 176 -18 15 -35 40 -39 56 l-6 27 28 0 c38 0 152 -50 279
-121 56 -32 102 -36 145 -14 l30 16 0 42 c0 34 -6 49 -27 69 -31 29 -74 52
-114 61 -15 4 -50 28 -79 54 -29 26 -74 60 -101 77 -26 17 -81 58 -121 91 -40
33 -86 69 -103 79 -16 11 -57 45 -90 76 -33 31 -76 67 -96 80 -21 13 -50 45
-67 70 -17 25 -50 59 -75 74 -24 16 -57 49 -73 73 -16 25 -40 53 -54 61 -72
46 -130 96 -130 113 0 10 -20 33 -44 51 -24 18 -54 49 -67 68 -12 19 -33 46
-45 60 -48 55 -119 170 -175 285 l-59 121 0 72 0 71 58 38 57 38 3 53 3 52
-83 0 -83 -1 -35 -30z m-704 -3218 c64 -47 110 -94 129 -131 10 -19 29 -45 42
-58 28 -26 23 -45 -10 -33 -142 54 -229 120 -256 196 l-13 37 13 9 c25 16 56
9 95 -20z"/>
</g>
</svg>
