<?xml version="1.0" standalone="no"?>
<!DOCTYPE svg PUBLIC "-//W3C//DTD SVG 20010904//EN"
 "http://www.w3.org/TR/2001/REC-SVG-20010904/DTD/svg10.dtd">
<svg version="1.0" xmlns="http://www.w3.org/2000/svg"
 width="168.000000pt" height="183.000000pt" viewBox="0 0 168.000000 183.000000"
 preserveAspectRatio="xMidYMid meet">
<metadata>
Created by potrace 1.16, written by Peter Selinger 2001-2019
</metadata>
<g transform="translate(0.000000,183.000000) scale(0.100000,-0.100000)"
fill="#000000" stroke="none">
<path d="M156 1793 c-74 -74 -136 -164 -136 -199 0 -18 -4 -36 -10 -39 -13 -8
-13 -192 0 -200 6 -4 28 -41 50 -83 21 -42 48 -90 59 -107 12 -16 21 -43 21
-60 0 -21 12 -41 45 -75 25 -25 87 -90 138 -146 51 -55 108 -118 128 -140 48
-52 171 -160 217 -191 20 -14 53 -40 72 -59 20 -19 59 -49 87 -66 28 -18 75
-52 105 -76 29 -24 89 -63 133 -87 44 -24 80 -49 80 -57 0 -20 -134 -23 -181
-3 -23 9 -67 15 -121 15 -52 0 -97 6 -120 15 -23 10 -69 15 -135 15 -65 0
-111 5 -135 15 -44 19 -213 21 -231 3 -17 -17 -15 -53 5 -70 10 -9 37 -25 60
-37 l42 -21 101 0 c67 0 113 -5 137 -15 19 -8 60 -15 90 -15 29 0 70 -7 90
-15 22 -9 67 -15 120 -15 52 0 97 -6 120 -15 20 -8 66 -15 105 -15 38 0 84 -7
105 -15 19 -8 62 -15 94 -15 32 0 61 -4 64 -10 4 -6 66 -10 153 -10 l147 0 12
27 c7 15 13 39 13 53 0 35 -48 80 -84 80 -33 0 -202 78 -252 116 -18 14 -48
29 -66 35 -19 5 -52 24 -75 44 -22 19 -73 51 -114 71 -87 44 -166 101 -197
143 -14 19 -37 34 -62 41 -24 6 -47 21 -57 37 -10 15 -38 45 -62 69 -55 53
-92 90 -145 145 -24 24 -55 52 -69 62 -15 10 -38 40 -51 66 -14 26 -41 60 -61
76 -34 25 -105 148 -105 181 0 7 -13 41 -30 76 -52 110 -38 226 44 362 36 60
41 81 30 124 l-6 22 -62 0 -62 0 -38 -37z"/>
</g>
</svg>
