<?xml version="1.0" standalone="no"?>
<!DOCTYPE svg PUBLIC "-//W3C//DTD SVG 20010904//EN"
 "http://www.w3.org/TR/2001/REC-SVG-20010904/DTD/svg10.dtd">
<svg version="1.0" xmlns="http://www.w3.org/2000/svg"
 width="426.000000pt" height="228.000000pt" viewBox="0 0 426.000000 228.000000"
 preserveAspectRatio="xMidYMid meet">
<metadata>
Created by potrace 1.16, written by Peter Selinger 2001-2019
</metadata>
<g transform="translate(0.000000,228.000000) scale(0.100000,-0.100000)"
fill="#000000" stroke="none">
<path d="M2790 2244 c-48 -37 -120 -74 -143 -74 -22 0 -47 -34 -47 -64 0 -14
-7 -43 -15 -63 -8 -19 -15 -55 -15 -78 0 -23 7 -59 15 -78 8 -20 15 -56 15
-79 0 -45 30 -98 112 -199 19 -24 47 -68 62 -96 17 -35 40 -61 66 -78 22 -14
51 -42 64 -64 14 -21 39 -49 56 -62 18 -13 45 -37 61 -54 31 -32 105 -106 154
-155 17 -16 45 -47 64 -70 18 -22 45 -43 59 -47 14 -3 57 -38 97 -77 90 -90
222 -188 323 -241 65 -34 79 -50 62 -70 -18 -21 -245 -21 -297 0 -26 11 -74
15 -180 15 -105 0 -153 4 -180 15 -24 10 -71 15 -150 15 -78 0 -125 5 -150 15
-24 10 -71 15 -150 15 -78 0 -125 5 -150 15 l-35 15 -295 0 -294 0 -36 15
c-26 11 -74 15 -180 15 -105 0 -153 4 -180 15 -27 12 -79 15 -225 15 -145 0
-197 3 -225 15 -25 11 -72 15 -165 15 -92 0 -139 4 -165 15 -26 11 -76 15
-194 15 -87 0 -169 4 -184 10 -17 7 -39 6 -69 -2 l-44 -12 -44 17 c-55 21 -78
21 -139 0 l-49 -18 0 -71 c0 -51 4 -75 15 -84 8 -7 20 -31 27 -54 7 -24 37
-70 74 -112 34 -39 70 -84 80 -100 10 -16 50 -63 89 -104 40 -41 84 -94 98
-117 14 -23 47 -59 72 -80 26 -21 53 -50 61 -65 l15 -28 39 0 39 0 16 30 c23
45 19 62 -33 128 -26 33 -67 89 -92 123 -25 34 -64 81 -87 104 -24 23 -43 50
-43 58 0 9 -25 44 -55 77 -65 73 -72 92 -50 126 l17 26 26 -8 c15 -4 213 -9
439 -10 l413 -4 36 -15 c27 -11 74 -15 181 -15 105 0 153 -4 180 -15 25 -11
72 -15 165 -15 92 0 139 -4 165 -15 27 -12 79 -15 225 -15 145 0 197 -3 225
-15 28 -12 84 -15 270 -15 185 0 241 -3 270 -15 25 -11 72 -15 165 -15 92 0
139 -4 165 -15 26 -11 74 -15 180 -15 105 0 153 -4 180 -15 24 -10 71 -15 150
-15 78 0 125 -5 150 -15 20 -8 66 -15 105 -15 38 0 84 -7 105 -15 55 -23 94
-19 141 16 l42 31 0 54 0 54 -26 0 c-30 0 -86 24 -129 56 -38 28 -162 89 -197
98 -15 3 -61 38 -102 76 -42 39 -83 70 -92 70 -15 0 -61 36 -163 125 -25 23
-65 53 -88 69 -48 32 -363 349 -363 366 0 6 -38 51 -85 100 -46 50 -98 116
-115 147 -17 32 -46 77 -65 101 -21 27 -35 55 -35 72 0 15 -7 44 -15 63 -8 20
-15 60 -15 89 0 68 28 112 104 162 62 41 76 60 76 105 l0 31 -57 -1 -58 0 -45
-35z"/>
</g>
</svg>
