<?xml version="1.0" standalone="no"?>
<!DOCTYPE svg PUBLIC "-//W3C//DTD SVG 20010904//EN"
 "http://www.w3.org/TR/2001/REC-SVG-20010904/DTD/svg10.dtd">
<svg version="1.0" xmlns="http://www.w3.org/2000/svg"
 width="210.000000pt" height="279.000000pt" viewBox="0 0 210.000000 279.000000"
 preserveAspectRatio="xMidYMid meet">
<metadata>
Created by potrace 1.16, written by Peter Selinger 2001-2019
</metadata>
<g transform="translate(0.000000,279.000000) scale(0.100000,-0.100000)"
fill="#000000" stroke="none">
<path d="M335 2780 c-3 -5 -20 -10 -36 -10 -69 0 -178 -74 -269 -181 l-30 -37
0 -130 c0 -77 4 -133 10 -137 6 -3 10 -21 10 -39 0 -21 11 -48 30 -74 16 -22
54 -90 84 -151 39 -77 66 -118 91 -136 19 -15 35 -36 35 -47 0 -10 29 -49 64
-87 35 -37 75 -86 89 -108 24 -37 52 -64 111 -106 14 -10 29 -32 34 -50 8 -31
29 -50 100 -89 17 -9 42 -35 56 -57 15 -22 43 -49 65 -60 21 -11 65 -43 97
-70 32 -28 86 -65 119 -83 61 -32 160 -103 184 -132 7 -9 28 -16 45 -16 55 0
67 -17 72 -101 7 -148 18 -202 54 -267 l35 -63 -19 -15 c-11 -8 -41 -14 -67
-14 l-48 0 -27 -35 c-14 -19 -32 -35 -38 -35 -7 0 -42 20 -79 45 -37 24 -88
56 -114 70 -27 15 -71 41 -100 59 -54 34 -167 76 -206 76 -12 0 -42 14 -67 30
-32 22 -57 30 -88 30 -23 0 -59 7 -79 15 -24 10 -69 15 -138 15 l-103 0 -64
-30 c-34 -16 -71 -30 -80 -30 -10 0 -25 -12 -35 -26 l-17 -26 15 -26 c18 -33
92 -56 133 -42 16 6 46 10 66 10 21 0 54 7 73 15 51 21 70 19 144 -15 35 -16
76 -30 90 -30 13 0 52 -13 86 -28 34 -15 97 -39 141 -53 53 -16 92 -36 120
-60 22 -20 70 -51 105 -69 73 -37 160 -99 178 -128 6 -11 33 -34 60 -52 26
-18 55 -42 62 -54 8 -11 42 -49 75 -83 l59 -63 44 0 43 0 12 25 c20 44 -8 132
-57 180 -23 22 -54 57 -69 78 l-28 37 12 15 c17 20 29 19 112 -7 44 -15 86
-36 112 -59 22 -20 56 -40 74 -44 22 -4 59 -31 105 -76 40 -38 78 -69 85 -69
24 0 70 -32 83 -57 l13 -24 65 3 66 3 3 78 c2 58 0 77 -10 77 -36 0 -398 265
-398 291 0 4 -25 37 -56 71 -55 61 -124 184 -124 221 0 27 19 57 36 57 26 0
113 49 124 70 9 17 6 29 -12 63 -27 49 -72 76 -183 112 -55 17 -97 38 -129 65
-34 28 -58 40 -80 40 -44 0 -328 188 -360 239 -13 20 -43 49 -67 64 -24 16
-57 46 -72 68 -16 22 -50 50 -76 63 -56 29 -66 40 -83 91 -10 29 -26 48 -64
74 -35 24 -67 60 -104 115 -29 45 -70 99 -90 121 -54 58 -70 86 -70 119 0 19
-10 41 -28 61 -47 50 -67 125 -65 243 1 79 5 109 19 130 27 42 77 74 142 92
55 15 102 47 102 69 0 11 -10 35 -22 55 -18 28 -30 35 -55 36 -17 0 -35 -4
-38 -10z"/>
</g>
</svg>
