<?xml version="1.0" standalone="no"?>
<!DOCTYPE svg PUBLIC "-//W3C//DTD SVG 20010904//EN"
 "http://www.w3.org/TR/2001/REC-SVG-20010904/DTD/svg10.dtd">
<svg version="1.0" xmlns="http://www.w3.org/2000/svg"
 width="705.000000pt" height="279.000000pt" viewBox="0 0 705.000000 279.000000"
 preserveAspectRatio="xMidYMid meet">
<metadata>
Created by potrace 1.16, written by Peter Selinger 2001-2019
</metadata>
<g transform="translate(0.000000,279.000000) scale(0.100000,-0.100000)"
fill="#000000" stroke="none">
<path d="M5479 2747 c-38 -60 -45 -75 -68 -144 -25 -74 -26 -99 -6 -146 8 -20
15 -47 15 -61 0 -13 13 -53 30 -88 16 -34 30 -69 30 -77 0 -18 100 -170 145
-220 18 -20 35 -48 38 -63 4 -14 30 -47 59 -73 28 -25 69 -69 89 -97 21 -27
56 -68 78 -91 114 -116 138 -139 195 -191 33 -30 76 -68 95 -84 38 -32 35 -52
-8 -52 -44 0 -91 -69 -91 -134 l0 -35 56 -63 c31 -35 65 -82 76 -106 l19 -42
-18 -56 c-12 -37 -28 -63 -49 -79 -18 -13 -45 -48 -62 -78 -17 -29 -41 -60
-54 -68 -29 -19 -238 -89 -265 -89 -11 0 -37 -7 -56 -15 -21 -8 -67 -15 -105
-15 -39 0 -85 -7 -105 -15 -53 -22 -481 -22 -534 0 -26 11 -74 15 -179 15
-110 0 -153 4 -185 17 l-41 16 -47 -16 c-57 -21 -160 -22 -208 -2 -20 8 -66
15 -105 15 -38 0 -84 7 -105 15 -19 8 -53 15 -75 15 -21 0 -55 7 -75 15 -19 8
-53 15 -75 15 -21 0 -55 7 -75 15 -24 10 -70 15 -147 15 -68 0 -128 5 -156 14
-76 24 -133 37 -190 45 -30 4 -91 19 -135 33 -129 42 -165 50 -260 58 -67 5
-104 14 -142 34 -29 14 -58 26 -64 26 -6 0 -40 13 -76 30 -35 16 -75 30 -89
30 -14 0 -41 7 -61 15 -19 8 -47 15 -62 15 -14 0 -46 14 -71 30 -25 16 -58 30
-73 30 -15 0 -44 7 -64 15 -20 8 -66 15 -105 15 -38 0 -84 7 -105 15 -23 10
-69 15 -135 15 -131 0 -181 21 -243 103 -15 21 -50 49 -76 63 -27 13 -59 38
-71 55 -28 38 -125 109 -148 109 -10 0 -51 33 -93 74 -41 41 -93 84 -114 95
-21 11 -63 40 -93 65 -30 26 -76 60 -102 77 -26 17 -57 44 -69 60 -11 16 -39
39 -62 51 -23 11 -62 41 -88 67 -26 25 -75 66 -109 91 -34 25 -85 63 -113 85
-29 22 -85 62 -124 88 -40 27 -82 62 -94 78 -20 29 -85 69 -111 69 -7 0 -33
14 -58 30 -27 18 -58 30 -77 30 l-33 0 0 -39 0 -39 33 -21 c17 -11 49 -40 70
-65 21 -26 55 -55 75 -65 44 -22 123 -86 238 -191 45 -41 111 -95 145 -120 35
-25 83 -66 108 -91 26 -25 74 -61 109 -79 35 -18 76 -50 93 -71 20 -26 44 -42
69 -49 23 -6 47 -21 57 -37 26 -37 63 -72 130 -121 32 -23 83 -61 113 -85 30
-23 79 -56 109 -72 34 -19 67 -48 86 -75 20 -29 44 -49 65 -56 18 -6 42 -23
52 -37 11 -15 61 -54 111 -88 51 -34 106 -72 122 -86 64 -51 141 -109 170
-127 16 -11 60 -48 97 -83 37 -34 76 -63 86 -63 10 0 29 -12 43 -26 13 -14 51
-44 84 -65 59 -40 105 -73 212 -158 31 -24 71 -47 89 -53 18 -5 57 -30 86 -57
29 -26 73 -58 98 -71 25 -13 59 -33 75 -45 50 -38 146 -82 261 -119 60 -20
117 -41 126 -46 10 -6 62 -10 117 -10 l99 0 63 38 64 38 44 86 45 85 -35 107
-34 107 -63 50 c-35 28 -61 56 -59 62 6 18 63 20 115 4 95 -30 139 -39 227
-46 50 -4 100 -12 112 -19 14 -8 69 -12 153 -12 93 0 141 -4 167 -15 20 -8 66
-15 104 -15 41 0 86 -7 110 -17 l41 -16 47 16 c57 21 160 22 208 2 l35 -15
382 0 c225 0 408 5 446 11 36 6 90 14 120 18 30 4 68 13 83 19 16 7 51 12 78
12 78 0 205 47 244 90 11 12 40 34 65 48 73 41 129 101 171 184 l39 78 0 75 0
76 -25 49 c-13 27 -29 51 -35 55 -17 10 -11 25 10 25 11 0 43 -10 72 -23 29
-13 88 -34 132 -47 53 -17 92 -37 120 -61 44 -39 96 -69 119 -69 8 0 21 -8 28
-17 26 -32 131 -103 152 -103 12 0 34 12 49 27 l28 27 0 46 0 46 -27 26 c-16
15 -97 61 -182 104 -142 71 -239 130 -316 191 -66 52 -142 109 -177 133 -20
14 -49 44 -64 68 -16 24 -52 60 -83 80 -31 20 -74 56 -96 79 -23 23 -56 53
-75 65 -23 16 -40 38 -50 68 -12 34 -27 52 -66 79 -39 26 -70 63 -132 156 -80
120 -132 216 -132 245 0 8 -14 35 -30 60 l-30 45 0 102 0 102 57 40 c31 23 65
41 75 41 31 0 67 43 61 73 l-5 27 -137 0 -136 -1 -26 -42z m-3298 -1872 c51
-25 105 -45 121 -45 16 0 45 -7 65 -15 19 -8 45 -15 56 -15 11 0 82 -20 156
-44 148 -48 201 -63 273 -76 26 -5 56 -13 67 -19 11 -6 39 -11 63 -11 42 0 62
-9 177 -75 150 -86 201 -126 242 -188 l40 -62 -3 -65 c-3 -49 -9 -74 -26 -98
l-23 -32 -38 0 c-67 0 -274 86 -363 150 -23 17 -48 30 -55 30 -21 0 -82 30
-120 58 -17 13 -47 28 -67 33 -19 5 -59 31 -88 57 -29 27 -87 70 -128 97 -41
27 -88 61 -105 76 -16 14 -53 38 -81 52 -46 23 -124 96 -124 115 0 11 -74 52
-94 52 -20 0 -56 35 -56 55 0 22 9 19 111 -30z"/>
</g>
</svg>
