<?xml version="1.0" standalone="no"?>
<!DOCTYPE svg PUBLIC "-//W3C//DTD SVG 20010904//EN"
 "http://www.w3.org/TR/2001/REC-SVG-20010904/DTD/svg10.dtd">
<svg version="1.0" xmlns="http://www.w3.org/2000/svg"
 width="630.000000pt" height="306.000000pt" viewBox="0 0 630.000000 306.000000"
 preserveAspectRatio="xMidYMid meet">
<metadata>
Created by potrace 1.16, written by Peter Selinger 2001-2019
</metadata>
<g transform="translate(0.000000,306.000000) scale(0.100000,-0.100000)"
fill="#000000" stroke="none">
<path d="M5019 3011 c-31 -34 -59 -53 -87 -60 -41 -11 -82 -51 -82 -78 0 -8
-18 -44 -40 -80 -22 -37 -40 -77 -40 -89 0 -12 11 -46 25 -76 14 -29 25 -61
25 -71 0 -10 51 -70 113 -133 84 -86 121 -117 149 -125 22 -5 45 -21 55 -36
34 -51 101 -113 120 -113 12 0 32 -15 47 -35 15 -19 51 -47 79 -61 29 -15 77
-51 107 -80 98 -96 199 -184 209 -184 14 0 279 -255 317 -305 54 -72 64 -104
64 -212 0 -142 -9 -153 -171 -207 l-106 -36 -78 0 c-48 0 -96 -7 -126 -17
l-49 -18 -49 18 c-27 9 -65 17 -85 17 -20 0 -53 7 -73 15 -19 8 -52 15 -72 15
-20 0 -67 11 -106 24 -43 14 -109 26 -170 31 -55 4 -115 13 -134 21 -18 8 -43
14 -55 14 -39 0 -180 55 -225 88 -24 18 -56 32 -70 32 -37 0 -156 42 -240 84
-73 37 -108 44 -142 26 -31 -17 -23 -54 21 -94 22 -20 48 -36 58 -36 9 0 31
-9 47 -21 83 -56 256 -129 308 -129 13 0 65 -20 116 -45 51 -25 102 -45 115
-45 12 0 60 -13 106 -30 l85 -30 128 0 c90 0 138 -4 164 -15 19 -8 60 -15 90
-15 29 0 70 -7 90 -15 43 -18 175 -20 206 -3 12 7 69 15 127 19 103 7 128 11
262 51 l66 20 81 83 81 83 0 35 c0 20 5 39 10 42 6 3 10 47 10 96 l0 91 -22
17 c-13 11 -23 34 -27 62 -6 47 -5 45 -121 112 -32 19 -56 40 -58 52 -5 28
-32 55 -53 55 -10 0 -39 30 -69 70 -35 47 -67 78 -94 92 -22 11 -61 37 -86 57
-25 20 -58 45 -75 55 -16 11 -64 52 -105 91 -41 39 -108 93 -148 119 -40 27
-80 59 -89 72 -8 13 -45 46 -82 73 -39 29 -76 67 -90 91 -14 25 -42 53 -71 71
-57 35 -69 52 -99 141 l-22 67 27 58 c15 32 30 69 33 82 7 26 15 32 69 52 18
6 44 20 57 31 l25 19 0 50 0 49 -67 0 -68 0 -46 -49z"/>
<path d="M0 645 c0 -30 5 -55 10 -55 6 0 24 -13 40 -28 16 -16 47 -36 67 -44
21 -8 63 -25 93 -38 30 -12 72 -29 93 -36 22 -8 55 -26 75 -39 20 -14 48 -25
62 -25 42 0 182 -54 229 -88 27 -20 56 -32 75 -32 17 0 60 -14 94 -30 47 -22
79 -30 118 -30 30 0 71 -7 91 -15 19 -8 54 -15 77 -15 25 0 66 -12 104 -30 35
-17 75 -30 88 -30 14 0 41 -7 61 -15 19 -8 53 -15 75 -15 21 0 55 -7 75 -15
l35 -15 280 0 279 0 36 -15 c27 -12 80 -15 229 -15 118 0 195 -4 199 -10 8
-13 102 -13 110 0 4 6 126 10 334 10 l329 0 35 15 c23 9 69 15 122 15 49 0 96
5 108 12 12 7 63 15 112 19 87 7 131 15 225 45 25 8 63 14 86 14 32 0 46 6 69
30 l29 30 43 0 c97 0 273 124 329 232 29 58 30 68 3 121 -27 54 -65 94 -111
118 -52 27 -82 24 -108 -8 l-22 -28 5 -55 c3 -30 11 -74 18 -98 l13 -43 -14
-27 c-18 -33 -142 -100 -251 -137 -56 -18 -97 -25 -156 -25 -49 0 -95 -6 -116
-15 -24 -10 -70 -15 -136 -15 l-99 0 -64 -30 -63 -30 -116 0 c-84 0 -127 -4
-155 -16 -28 -12 -52 -14 -89 -9 -27 4 -63 6 -80 4 -64 -5 -433 -2 -485 5 -30
3 -140 10 -245 14 -129 5 -198 11 -214 21 -17 9 -44 11 -100 7 -99 -9 -108 -8
-226 2 -55 4 -110 13 -122 20 -12 7 -47 12 -78 12 -30 0 -72 7 -92 15 -20 8
-66 15 -105 15 -38 0 -84 7 -105 15 -19 8 -45 15 -56 15 -12 0 -81 20 -154 45
-73 25 -140 45 -149 45 -40 0 -264 84 -309 116 -30 21 -60 34 -79 34 -17 0
-56 12 -86 26 -30 14 -96 39 -146 55 -51 17 -114 45 -140 64 -27 19 -57 35
-66 35 l-18 0 0 -55z"/>
</g>
</svg>
