<?xml version="1.0" standalone="no"?>
<!DOCTYPE svg PUBLIC "-//W3C//DTD SVG 20010904//EN"
 "http://www.w3.org/TR/2001/REC-SVG-20010904/DTD/svg10.dtd">
<svg version="1.0" xmlns="http://www.w3.org/2000/svg"
 width="372.000000pt" height="315.000000pt" viewBox="0 0 372.000000 315.000000"
 preserveAspectRatio="xMidYMid meet">
<metadata>
Created by potrace 1.16, written by Peter Selinger 2001-2019
</metadata>
<g transform="translate(0.000000,315.000000) scale(0.100000,-0.100000)"
fill="#000000" stroke="none">
<path d="M2525 3142 c-6 -5 -42 -19 -81 -31 -79 -25 -117 -57 -153 -128 -12
-23 -21 -56 -21 -73 0 -17 27 -84 64 -158 l64 -127 114 -120 c62 -66 128 -139
146 -161 20 -27 43 -44 62 -47 37 -8 185 -147 234 -221 19 -29 55 -65 79 -80
25 -16 57 -49 73 -74 16 -24 45 -55 66 -68 21 -13 45 -36 55 -51 16 -26 38
-55 142 -188 21 -27 57 -86 79 -130 23 -44 50 -93 61 -110 12 -16 21 -39 21
-49 0 -43 -45 -148 -80 -189 -39 -44 -54 -53 -176 -106 l-71 -31 -205 0 c-160
0 -213 -3 -241 -15 -48 -20 -186 -20 -234 0 -23 10 -69 15 -132 15 -71 0 -112
5 -156 20 -161 55 -241 113 -289 208 -24 47 -91 107 -223 199 -25 17 -57 42
-72 56 -33 32 -171 100 -256 129 l-66 21 -50 -24 c-101 -47 -115 -106 -48
-204 52 -78 149 -176 224 -227 61 -42 365 -198 386 -198 29 0 83 -37 107 -74
15 -23 43 -61 64 -85 21 -24 40 -58 44 -76 7 -39 22 -54 81 -85 86 -44 79 -74
-20 -85 -34 -3 -76 -11 -94 -16 -23 -8 -40 -6 -68 6 -27 11 -73 15 -167 15
-92 0 -139 4 -165 15 -23 10 -69 15 -135 15 -65 0 -111 5 -135 15 -25 11 -72
15 -165 15 -92 0 -139 4 -165 15 -19 8 -53 15 -75 15 -22 0 -56 8 -76 17 -40
18 -139 91 -161 117 -7 9 -25 16 -40 16 -31 0 -123 30 -199 66 l-53 24 -134 0
-134 0 -64 -30 c-36 -16 -70 -30 -76 -30 -7 0 -11 -30 -11 -83 l0 -82 49 -18
c27 -9 73 -17 102 -17 43 0 63 -6 99 -30 32 -22 57 -30 88 -30 23 0 59 -7 79
-15 19 -8 53 -15 75 -15 21 0 55 -7 75 -15 20 -8 66 -15 105 -15 38 0 84 -7
105 -15 19 -8 47 -15 61 -15 18 0 41 -17 81 -62 86 -94 91 -104 91 -181 0 -46
-5 -78 -16 -97 -18 -29 -62 -60 -86 -60 -24 0 -48 -34 -48 -68 l0 -32 88 0 87
0 12 20 c7 11 27 23 45 28 40 10 62 40 93 127 31 89 31 125 -1 225 l-27 82 14
9 c22 14 106 10 146 -6 23 -10 69 -15 134 -15 54 0 110 -5 126 -12 15 -7 84
-16 153 -20 69 -5 152 -11 185 -14 33 -2 135 -7 227 -10 l166 -5 44 21 c91 46
125 99 97 153 -18 34 -102 117 -119 117 -32 0 -59 31 -75 87 l-16 56 13 8 c21
14 106 10 145 -6 19 -8 60 -15 90 -15 29 0 70 -7 90 -15 45 -19 81 -19 126 0
24 10 70 15 137 15 60 0 110 5 123 12 12 7 63 15 112 19 50 4 110 12 135 19
119 32 177 53 258 94 91 46 138 88 211 188 l41 57 0 85 0 85 -22 36 c-13 20
-38 59 -57 88 -18 29 -42 70 -53 92 -11 22 -40 61 -63 86 -23 25 -54 64 -68
86 -14 22 -53 64 -86 95 -34 30 -61 62 -61 71 0 9 -24 35 -54 57 -30 22 -66
60 -82 83 -41 62 -65 87 -106 113 -21 13 -49 42 -63 64 -14 22 -42 48 -63 59
-50 26 -237 213 -263 263 -11 21 -37 49 -60 63 -22 14 -45 38 -51 53 -5 15
-31 71 -56 126 l-45 98 17 32 c16 30 35 45 124 97 34 20 40 45 22 80 -8 14
-21 19 -53 19 -24 0 -47 -4 -52 -8z m-970 -1784 c25 -18 54 -47 64 -64 l19
-32 -27 8 c-53 15 -89 40 -110 75 -11 20 -21 38 -21 41 0 13 35 0 75 -28z"/>
</g>
</svg>
