<?xml version="1.0" standalone="no"?>
<!DOCTYPE svg PUBLIC "-//W3C//DTD SVG 20010904//EN"
 "http://www.w3.org/TR/2001/REC-SVG-20010904/DTD/svg10.dtd">
<svg version="1.0" xmlns="http://www.w3.org/2000/svg"
 width="204.000000pt" height="198.000000pt" viewBox="0 0 204.000000 198.000000"
 preserveAspectRatio="xMidYMid meet">
<metadata>
Created by potrace 1.16, written by Peter Selinger 2001-2019
</metadata>
<g transform="translate(0.000000,198.000000) scale(0.100000,-0.100000)"
fill="#000000" stroke="none">
<path d="M740 1960 c-14 -11 -38 -22 -55 -26 -48 -10 -73 -31 -100 -84 -31
-60 -31 -81 -3 -166 l21 -66 98 -90 c53 -50 112 -96 130 -102 21 -7 44 -26 62
-54 20 -29 47 -52 86 -72 32 -16 82 -51 112 -77 30 -27 88 -71 129 -98 41 -27
95 -68 120 -90 25 -22 61 -52 81 -65 21 -13 51 -45 68 -71 20 -31 49 -57 85
-78 38 -21 63 -44 81 -75 14 -24 42 -56 61 -71 25 -19 51 -58 86 -129 l49
-101 -3 -65 c-4 -82 -28 -118 -100 -153 -77 -38 -167 -67 -209 -67 -20 0 -53
-7 -72 -15 -51 -21 -273 -21 -324 0 -19 8 -60 15 -90 15 -29 0 -70 7 -90 15
-19 8 -45 15 -57 15 -12 0 -60 13 -106 30 -51 18 -105 30 -135 30 -30 0 -85
12 -135 30 -47 16 -96 30 -108 30 -13 0 -53 14 -89 30 -35 17 -70 30 -76 30
-7 0 -54 20 -105 45 -52 25 -107 45 -123 45 l-29 0 0 -53 0 -54 49 -41 c33
-28 74 -50 125 -66 42 -14 93 -37 113 -51 21 -14 50 -25 66 -25 16 0 58 -14
94 -30 37 -17 81 -30 104 -30 22 0 56 -7 76 -15 19 -8 53 -15 75 -15 21 0 55
-7 75 -15 19 -8 60 -15 90 -15 29 0 70 -7 90 -15 19 -8 55 -15 79 -15 23 0 46
-5 49 -10 8 -12 457 -14 470 -2 6 5 84 33 174 63 174 57 224 82 229 115 2 12
21 38 42 59 l40 39 0 107 c0 82 -3 109 -15 119 -8 7 -21 34 -29 60 -21 69 -43
109 -91 161 -23 25 -54 63 -67 85 -14 22 -45 52 -69 67 -24 15 -60 51 -79 80
-28 40 -46 55 -80 67 -33 11 -52 27 -73 58 -16 23 -46 51 -67 62 -21 11 -60
38 -86 61 -26 23 -93 71 -148 107 -56 37 -121 85 -146 107 -25 22 -65 54 -89
70 -25 17 -68 53 -96 80 -29 28 -65 58 -80 69 -34 23 -69 98 -59 129 11 37 44
77 63 77 28 0 71 39 71 64 0 59 -104 89 -160 46z"/>
</g>
</svg>
