<?xml version="1.0" standalone="no"?>
<!DOCTYPE svg PUBLIC "-//W3C//DTD SVG 20010904//EN"
 "http://www.w3.org/TR/2001/REC-SVG-20010904/DTD/svg10.dtd">
<svg version="1.0" xmlns="http://www.w3.org/2000/svg"
 width="372.000000pt" height="195.000000pt" viewBox="0 0 372.000000 195.000000"
 preserveAspectRatio="xMidYMid meet">
<metadata>
Created by potrace 1.16, written by Peter Selinger 2001-2019
</metadata>
<g transform="translate(0.000000,195.000000) scale(0.100000,-0.100000)"
fill="#000000" stroke="none">
<path d="M2405 1910 c-21 -21 -47 -40 -59 -42 -45 -7 -106 -150 -86 -203 5
-14 10 -40 10 -57 0 -23 11 -42 49 -78 27 -27 59 -66 70 -89 13 -24 40 -52 69
-71 26 -17 60 -49 75 -71 27 -37 90 -79 119 -79 7 0 32 -23 56 -50 25 -28 66
-62 95 -76 29 -14 72 -43 97 -63 25 -20 81 -61 125 -90 44 -29 93 -71 108 -92
15 -21 51 -51 79 -66 30 -16 65 -46 82 -70 17 -24 49 -55 71 -69 45 -30 57
-45 101 -124 17 -30 39 -69 49 -86 l18 -30 -32 -75 c-18 -41 -36 -80 -40 -87
-7 -15 -193 -82 -227 -82 -12 0 -39 -7 -59 -16 l-38 -16 -126 6 c-164 8 -179
8 -289 0 -73 -5 -103 -2 -145 11 -85 28 -80 20 -78 124 l2 94 -37 56 c-49 73
-186 213 -250 257 -28 19 -72 52 -97 74 -25 22 -51 40 -59 40 -7 0 -30 11 -51
25 -132 90 -347 168 -507 185 -41 4 -83 11 -93 15 -31 13 -236 -39 -295 -75
-37 -23 -54 -53 -88 -159 -32 -98 -41 -108 -93 -92 -21 6 -89 11 -150 11 -77
0 -123 5 -148 15 -24 10 -71 15 -150 15 -78 0 -125 5 -150 15 -22 9 -67 15
-120 15 -52 0 -97 6 -120 15 -19 8 -48 15 -64 15 l-29 0 0 -70 0 -70 55 0 c31
0 72 -7 92 -15 26 -11 74 -15 180 -15 105 0 153 -4 180 -15 22 -9 67 -15 120
-15 52 0 97 -6 120 -15 20 -8 66 -15 105 -15 38 0 84 -7 105 -15 19 -8 44 -15
55 -15 11 0 52 -10 91 -22 l72 -23 55 -58 c53 -56 116 -97 170 -110 14 -4 44
-22 66 -41 38 -32 142 -76 180 -76 9 0 98 -27 198 -59 216 -70 252 -80 331
-90 34 -5 70 -13 82 -19 12 -7 67 -12 127 -12 59 0 108 -4 111 -10 4 -6 123
-10 325 -10 202 0 321 4 325 10 3 6 39 10 79 10 43 0 89 6 109 15 20 8 49 15
65 15 18 0 38 10 53 26 13 14 47 39 75 56 48 26 96 73 167 161 l27 35 0 70 c0
50 -4 73 -15 82 -8 7 -21 34 -30 61 -14 50 -79 135 -159 208 -165 154 -227
207 -266 232 -25 15 -56 42 -68 59 -13 17 -49 42 -80 57 -78 35 -72 31 -154
98 -40 33 -86 69 -103 79 -16 11 -57 45 -90 76 -33 31 -80 69 -105 85 -123 82
-210 203 -210 293 l0 43 47 27 c75 44 103 75 103 116 l0 36 -73 0 -73 0 -39
-40z m-781 -1097 c97 -32 150 -55 171 -75 17 -15 37 -28 45 -28 35 0 229 -119
257 -158 12 -16 46 -43 77 -60 38 -22 63 -45 80 -75 14 -24 37 -54 51 -67 41
-39 25 -100 -27 -100 -24 0 -82 26 -123 55 -16 12 -50 33 -75 46 -65 34 -79
48 -110 109 -15 31 -51 77 -79 103 l-50 47 -76 0 c-45 0 -90 6 -112 15 -20 8
-66 15 -105 15 -38 0 -84 7 -105 15 -22 9 -68 15 -123 15 -97 0 -104 4 -115
63 l-7 38 23 25 c42 44 96 63 183 64 l79 0 141 -47z m126 -380 c22 -21 41 -49
42 -63 l3 -25 -35 -3 c-48 -3 -231 60 -248 87 -23 34 -6 41 99 41 l100 0 39
-37z"/>
</g>
</svg>
