<?xml version="1.0" encoding="UTF-8" standalone="no"?>
<!-- Created with Inkscape (http://www.inkscape.org/) -->

<svg
   version="1.1"
   id="svg1"
   width="697.69281"
   height="679.8053"
   viewBox="0 0 697.69281 679.8053"
   xmlns="http://www.w3.org/2000/svg"
   xmlns:svg="http://www.w3.org/2000/svg">
  <defs
     id="defs1" />
  <g
     id="g1"
     transform="translate(-0.91746885,0.26935422)">
    <path
       style="fill:#000000"
       d="m 198.89213,677.70389 c -31.77317,-13.40019 -17.83736,-29.50188 32.21362,-37.2202 20.98451,-3.236 20.3997,-3.25376 35.53298,1.07904 4.20695,1.20449 9.22915,-18.78645 10.08012,-40.12413 2.20583,-55.31 -15.02579,-86.21038 -79.00457,-141.6739 -36.95387,-32.03549 -86.77478,-58.40046 -115.939518,-61.35461 -7.763969,-0.78642 -7.74561,-1.38642 0.164609,-5.37948 16.319853,-8.23824 16.351189,-24.72997 0.09346,-49.1845 C 73.927181,331.65378 39.260364,313.1594 11.657972,306.30188 -1.4685965,303.04073 -1.7395967,302.66334 6.3961602,298.97441 25.755372,290.19653 27.401247,289.93028 68.390631,288.9458 88.800784,288.4556 116.3,287.57918 129.5,286.9982 c 13.2,-0.58097 37.95,-1.47428 55,-1.98512 17.05,-0.51085 45.625,-1.38881 63.5,-1.95102 75.67217,-2.38006 118.79527,-3.22067 210,-4.09358 53.075,-0.50797 103.25,-1.34801 111.5,-1.86675 8.25,-0.51874 26.025,-1.45032 39.5,-2.07017 41.18383,-1.89447 42.93192,0.99795 -18.66261,-30.8795 C 456.83752,175.06095 395.31998,118.84628 385.98387,57.414019 381.99438,31.16286 389.91969,19.559675 419.34395,8.5726452 439.26704,1.1333564 472.27027,-3.633712 460.5,2.6279632 453.5383,6.331522 437.05604,12.064623 431.26827,12.795773 412.81787,15.12655 417.46955,56.315265 440.43913,94 c 25.54599,41.91167 83.91218,85.38767 184.66529,137.55407 43.24594,22.39121 70.29703,38.43237 73.47096,43.5679 0.71933,1.1639 -9.78844,5.98191 -21.9023,10.04262 -9.66887,3.24111 -11.12998,3.29075 -26.67308,0.90617 -7.18541,-1.10236 -33.98827,-0.0913 -105.5,3.97954 -9.9,0.56357 -60.975,1.4323 -113.5,1.93051 -90.57607,0.85914 -136.47913,1.75441 -209.5,4.08598 -17.6,0.56197 -45.5,1.43491 -62,1.93986 -92.492313,2.83058 -90.685033,2.57444 -74.550257,10.56598 23.125747,11.45416 30.570317,18.2464 38.681647,35.29221 9.08749,19.09716 7.64156,28.39063 -5.95088,38.24841 -3.81949,2.77005 -3.81949,2.77005 0,3.37955 67.36763,10.75028 175.989,101.54084 190.23541,159.0072 8.75907,35.33184 3.97012,75.8202 -11.38389,96.24555 -17.02769,22.65183 -77.38834,45.49935 -97.6399,36.95834 z m 42.10844,-14.70277 c -3.24526,-6.36123 -17.33197,-13.30026 -23.21189,-11.43405 -6.06565,1.92516 13.60047,15.07131 22.98164,15.36247 2.27033,0.0705 2.27033,0.0705 0.23025,-3.92842 z"
       id="path1" />
  </g>
</svg>
