<?xml version="1.0" standalone="no"?>
<!DOCTYPE svg PUBLIC "-//W3C//DTD SVG 20010904//EN"
 "http://www.w3.org/TR/2001/REC-SVG-20010904/DTD/svg10.dtd">
<svg version="1.0" xmlns="http://www.w3.org/2000/svg"
 width="312.000000pt" height="255.000000pt" viewBox="0 0 312.000000 255.000000"
 preserveAspectRatio="xMidYMid meet">
<metadata>
Created by potrace 1.16, written by Peter Selinger 2001-2019
</metadata>
<g transform="translate(0.000000,255.000000) scale(0.100000,-0.100000)"
fill="#000000" stroke="none">
<path d="M1787 2522 c-15 -15 -27 -35 -27 -43 0 -9 -9 -24 -21 -35 -11 -10
-37 -41 -57 -69 l-37 -49 -8 -81 c-10 -103 -10 -108 0 -185 10 -74 24 -102
100 -214 30 -43 63 -97 75 -120 23 -44 326 -358 369 -381 15 -8 51 -36 80 -63
30 -26 83 -67 119 -90 60 -38 93 -61 172 -120 17 -12 47 -26 67 -32 20 -5 57
-27 83 -47 26 -21 57 -45 69 -54 15 -10 20 -21 16 -32 -10 -26 -206 -117 -253
-117 -21 0 -77 -14 -124 -30 -46 -17 -103 -30 -126 -30 -29 0 -52 -8 -80 -28
-58 -42 -107 -62 -151 -62 -21 0 -76 -14 -123 -30 -46 -17 -95 -30 -107 -30
-13 0 -42 -9 -64 -21 -53 -26 -178 -69 -205 -69 -12 0 -38 -7 -57 -15 -20 -8
-47 -15 -61 -15 -13 0 -53 -13 -88 -30 -34 -16 -74 -30 -88 -30 -14 0 -56 -12
-95 -26 -38 -14 -90 -29 -115 -34 -58 -11 -123 -28 -180 -46 -25 -8 -56 -14
-70 -14 -14 0 -43 -12 -65 -27 -25 -17 -60 -30 -95 -34 -57 -8 -113 -21 -190
-45 -25 -8 -58 -14 -75 -14 -16 0 -108 -25 -202 -57 l-173 -57 0 -23 0 -23
188 0 c104 0 192 3 195 7 15 14 114 43 150 43 21 0 56 9 78 21 64 32 181 69
220 69 20 0 54 7 75 16 30 13 57 15 120 10 l80 -6 22 30 c24 32 97 70 135 70
14 0 41 7 60 15 20 8 52 15 71 15 38 0 314 89 381 122 22 11 67 24 100 28 98
14 334 84 410 122 22 11 74 24 115 28 41 5 95 14 120 20 101 27 170 50 223 74
31 14 60 26 66 26 5 0 39 14 74 30 36 17 70 30 77 30 16 0 90 39 128 68 l32
24 0 69 0 68 -18 10 c-31 17 -141 51 -163 51 -33 0 -185 76 -227 114 -40 36
-92 66 -115 66 -8 0 -27 16 -41 35 -15 19 -52 48 -83 63 -30 16 -83 52 -117
80 -33 29 -86 71 -116 95 -30 23 -73 67 -97 97 -23 30 -60 75 -81 100 -51 58
-132 181 -132 200 0 9 -11 32 -24 51 -36 53 -66 146 -66 204 0 39 9 70 41 136
59 121 71 165 57 211 l-11 38 -57 0 -56 0 -27 -28z"/>
</g>
</svg>
