<?xml version="1.0" standalone="no"?>
<!DOCTYPE svg PUBLIC "-//W3C//DTD SVG 20010904//EN"
 "http://www.w3.org/TR/2001/REC-SVG-20010904/DTD/svg10.dtd">
<svg version="1.0" xmlns="http://www.w3.org/2000/svg"
 width="312.000000pt" height="231.000000pt" viewBox="0 0 312.000000 231.000000"
 preserveAspectRatio="xMidYMid meet">
<metadata>
Created by potrace 1.16, written by Peter Selinger 2001-2019
</metadata>
<g transform="translate(0.000000,231.000000) scale(0.100000,-0.100000)"
fill="#000000" stroke="none">
<path d="M1653 2290 c-7 -10 -30 -24 -51 -29 -50 -14 -92 -60 -136 -148 l-36
-73 0 -59 c0 -32 7 -75 15 -94 8 -20 15 -49 15 -64 0 -16 11 -45 25 -66 14
-20 37 -72 51 -114 19 -59 36 -88 75 -131 28 -30 62 -78 76 -106 14 -28 42
-69 63 -91 21 -22 51 -58 67 -81 73 -106 107 -146 231 -275 72 -76 133 -144
134 -151 1 -7 2 -67 2 -133 2 -113 6 -142 42 -255 40 -127 3 -180 -171 -239
l-59 -21 -288 0 -289 0 -36 15 c-19 8 -53 15 -75 15 -21 0 -55 7 -75 15 -19 8
-45 15 -56 15 -12 0 -62 13 -112 29 -101 32 -159 48 -225 61 -25 5 -82 27
-128 49 -45 23 -94 41 -108 41 -14 0 -55 13 -91 30 -35 17 -70 30 -77 30 -15
0 -317 200 -363 241 -19 16 -43 29 -53 29 l-20 0 0 -75 0 -74 47 -38 c26 -21
67 -57 92 -79 25 -23 69 -54 96 -68 28 -15 75 -43 105 -62 30 -19 71 -39 90
-44 19 -5 86 -34 148 -65 62 -30 123 -55 135 -55 13 0 61 -13 107 -30 47 -16
101 -30 120 -30 19 0 55 -6 80 -14 87 -28 136 -38 210 -45 41 -4 85 -13 97
-19 12 -7 42 -12 67 -12 25 0 48 -4 51 -10 8 -14 492 -14 500 0 3 6 25 10 48
10 23 0 80 14 127 30 46 17 95 30 109 30 30 0 149 78 185 121 l26 31 0 76 c0
59 -7 96 -30 160 -25 71 -30 112 -14 112 2 0 32 -8 66 -17 l62 -18 53 -52 c29
-29 60 -53 70 -53 10 0 57 -25 103 -57 91 -60 270 -153 295 -153 9 0 29 7 46
15 l30 16 -3 71 -3 71 -66 46 c-37 25 -87 65 -113 89 -25 23 -53 42 -62 42
-21 0 -143 60 -214 106 -30 19 -75 40 -99 46 -35 9 -58 26 -105 75 -42 44 -72
66 -98 73 -22 6 -45 22 -55 37 -23 34 -92 103 -126 126 -16 10 -31 33 -37 57
-7 27 -27 53 -64 87 -30 26 -64 66 -77 88 -13 22 -45 64 -72 94 -26 30 -59 76
-73 103 -13 26 -47 82 -74 122 -37 55 -62 111 -100 223 l-50 149 21 60 c12 32
37 80 56 106 l35 48 33 0 c60 0 98 76 57 113 -14 13 -38 17 -93 17 l-74 0 -12
-20z"/>
</g>
</svg>
