<?xml version="1.0" standalone="no"?>
<!DOCTYPE svg PUBLIC "-//W3C//DTD SVG 20010904//EN"
 "http://www.w3.org/TR/2001/REC-SVG-20010904/DTD/svg10.dtd">
<svg version="1.0" xmlns="http://www.w3.org/2000/svg"
 width="708.000000pt" height="333.000000pt" viewBox="0 0 708.000000 333.000000"
 preserveAspectRatio="xMidYMid meet">
<metadata>
Created by potrace 1.16, written by Peter Selinger 2001-2019
</metadata>
<g transform="translate(0.000000,333.000000) scale(0.100000,-0.100000)"
fill="#000000" stroke="none">
<path d="M350 3320 c0 -6 -23 -32 -51 -58 -28 -26 -62 -68 -75 -94 l-24 -47 0
-100 c0 -116 22 -199 76 -284 18 -29 52 -88 75 -131 30 -59 66 -105 137 -177
52 -54 111 -120 129 -148 19 -27 47 -60 64 -73 35 -26 47 -37 202 -198 62 -64
125 -124 142 -134 16 -11 50 -38 75 -61 25 -23 65 -53 90 -67 25 -14 77 -57
115 -94 118 -116 244 -210 300 -225 21 -6 46 -24 62 -45 16 -22 54 -49 97 -71
39 -19 92 -53 118 -74 25 -21 79 -55 120 -75 40 -21 87 -47 103 -60 17 -12 63
-39 102 -59 40 -19 108 -60 151 -89 82 -56 153 -96 173 -96 17 0 145 -65 209
-106 30 -19 66 -37 80 -41 47 -11 111 -44 117 -60 15 -38 -20 -43 -279 -43
-198 0 -256 3 -285 15 -26 11 -76 15 -195 15 -118 0 -168 4 -195 15 -22 9 -67
15 -120 15 l-84 0 -52 24 c-29 13 -58 31 -66 39 l-12 16 20 47 c12 25 21 60
21 76 0 33 -30 98 -56 119 -9 8 -32 38 -51 66 -22 35 -48 60 -75 74 -22 11
-59 34 -81 50 -22 16 -47 29 -56 29 -9 0 -41 12 -71 26 -97 45 -167 64 -234
64 -36 0 -83 7 -104 16 -31 12 -71 14 -193 11 -85 -2 -174 -9 -199 -16 -119
-34 -171 -52 -223 -75 -31 -14 -61 -26 -67 -26 -6 0 -56 -23 -113 -50 -66 -33
-113 -64 -134 -88 l-33 -37 0 -86 0 -87 33 -24 c90 -70 247 -128 342 -128 36
0 82 -7 102 -15 24 -10 70 -15 147 -15 l112 0 84 -30 c47 -16 102 -30 123 -30
21 0 54 -7 74 -15 20 -8 66 -15 105 -15 38 0 84 -7 105 -15 23 -10 69 -15 135
-15 65 0 111 -5 135 -15 19 -8 55 -15 79 -15 l44 0 61 -60 c33 -33 65 -60 70
-60 5 0 22 -19 39 -42 l30 -41 0 -88 c0 -59 -4 -90 -12 -96 -26 -16 -113 -43
-141 -43 -39 0 -76 -39 -70 -73 l5 -27 122 0 123 0 12 23 c6 12 35 38 64 57
l51 35 23 65 c33 95 30 133 -18 235 l-41 87 15 15 14 14 38 -15 c30 -13 77
-16 226 -16 128 0 197 -4 216 -12 25 -12 100 -15 673 -28 19 -1 78 3 130 7
l94 8 23 34 c29 43 29 79 1 120 l-23 33 -100 34 c-55 18 -112 33 -126 34 -14
0 -36 11 -50 26 -24 26 -207 124 -231 124 -8 0 -30 12 -51 26 -21 14 -93 53
-159 86 -67 34 -138 76 -157 93 -54 48 -122 95 -138 95 -28 0 -123 50 -161 85
-22 19 -45 35 -52 35 -23 0 -85 34 -131 71 -25 21 -92 61 -148 90 -68 35 -112
64 -129 86 -14 19 -42 43 -63 53 -20 11 -59 38 -86 61 -26 23 -73 58 -103 78
-30 19 -75 53 -100 76 -25 22 -63 53 -85 68 -22 14 -74 58 -115 97 -41 39
-102 92 -135 117 -88 68 -145 126 -145 147 0 10 -38 56 -84 102 -46 47 -97
104 -112 127 -30 45 -91 122 -135 172 -14 17 -36 60 -47 98 -12 37 -33 84 -46
105 -27 42 -42 139 -28 187 5 18 22 37 41 49 l32 19 38 -12 c21 -6 63 -11 92
-11 39 0 71 -8 117 -30 35 -17 69 -30 76 -30 7 0 25 -13 41 -30 l29 -30 43 0
c24 0 60 -7 80 -15 19 -8 65 -15 102 -15 49 0 90 -8 151 -30 62 -21 104 -30
153 -30 37 0 84 -7 104 -15 23 -10 69 -15 135 -15 65 0 111 -5 135 -15 l35
-15 493 0 493 0 38 16 c28 12 79 17 203 19 170 2 189 6 346 56 50 16 107 29
127 29 19 0 52 7 71 15 20 8 60 15 89 15 33 0 85 12 138 30 46 17 93 30 105
30 11 0 58 14 105 30 67 24 101 30 166 30 50 0 95 6 117 15 20 8 61 15 90 15
30 0 72 7 93 16 l39 17 348 -1 347 0 66 -31 66 -31 144 0 c106 0 154 -4 181
-15 19 -8 47 -15 62 -15 14 0 55 -14 89 -30 35 -17 74 -30 85 -30 12 0 42 -6
67 -14 57 -18 123 -35 175 -45 53 -10 128 -36 193 -66 29 -14 58 -25 65 -25 6
0 41 -14 75 -30 35 -17 68 -30 74 -30 25 0 148 -65 191 -102 26 -22 63 -44 82
-49 19 -6 43 -22 52 -36 10 -14 30 -39 45 -54 l26 -29 51 0 51 0 0 58 0 58
-28 27 c-15 15 -35 27 -43 27 -7 0 -36 25 -62 55 -27 30 -60 58 -75 61 -28 7
-116 56 -213 118 -30 20 -66 36 -80 36 -29 0 -153 41 -208 69 -22 12 -53 21
-68 21 -15 0 -48 14 -73 30 -32 22 -57 30 -88 30 -23 0 -59 7 -79 15 -19 8
-59 15 -87 15 -28 0 -71 6 -96 14 -78 25 -133 37 -195 45 -34 5 -70 13 -82 19
-12 7 -40 12 -63 12 -22 0 -57 7 -77 15 -20 8 -66 15 -105 15 -38 0 -84 7
-105 15 l-35 15 -375 0 c-269 0 -380 -3 -396 -12 -12 -6 -56 -15 -97 -19 -71
-7 -122 -17 -200 -42 -19 -6 -53 -14 -75 -18 -51 -10 -117 -27 -175 -45 -25
-8 -68 -14 -96 -14 -28 0 -68 -7 -87 -15 -20 -8 -52 -15 -72 -15 -19 0 -115
-27 -213 -60 l-179 -60 -350 0 -351 0 -35 -15 c-53 -22 -481 -22 -534 0 -28
12 -84 15 -270 15 -185 0 -241 3 -270 15 -19 8 -61 15 -92 15 -41 0 -72 8
-119 30 -35 17 -75 30 -88 30 -14 0 -41 7 -61 15 -19 8 -44 15 -55 15 -27 0
-336 103 -387 129 -22 12 -46 21 -54 21 -8 0 -39 18 -71 40 l-57 40 -54 0
c-32 0 -55 -4 -55 -10z m517 -2145 c19 -8 60 -15 90 -15 29 0 70 -7 90 -15 20
-9 66 -15 107 -15 l73 0 24 -26 c13 -14 46 -37 74 -51 53 -28 165 -134 165
-158 0 -20 -38 -38 -64 -30 -11 4 -57 10 -101 15 -44 5 -89 11 -100 15 -13 4
-33 -2 -55 -17 l-35 -24 -1 -51 c-1 -27 -4 -55 -8 -62 -16 -25 -117 -12 -253
34 -104 35 -146 45 -198 45 -36 0 -82 7 -102 15 -19 8 -60 15 -90 15 -29 0
-70 7 -90 15 -19 8 -62 15 -94 15 l-58 0 -19 28 c-27 39 -33 61 -22 82 5 10
65 46 132 79 l122 61 57 0 c31 0 73 7 92 15 20 8 54 15 76 15 21 0 54 7 72 15
44 18 71 19 116 0z"/>
</g>
</svg>
