<?xml version="1.0" standalone="no"?>
<!DOCTYPE svg PUBLIC "-//W3C//DTD SVG 20010904//EN"
 "http://www.w3.org/TR/2001/REC-SVG-20010904/DTD/svg10.dtd">
<svg version="1.0" xmlns="http://www.w3.org/2000/svg"
 width="873.000000pt" height="105.000000pt" viewBox="0 0 873.000000 105.000000"
 preserveAspectRatio="xMidYMid meet">
<metadata>
Created by potrace 1.16, written by Peter Selinger 2001-2019
</metadata>
<g transform="translate(0.000000,105.000000) scale(0.100000,-0.100000)"
fill="#000000" stroke="none">
<path d="M4955 1041 c-6 -5 -46 -12 -90 -14 -77 -4 -117 -12 -215 -43 -25 -8
-59 -14 -77 -14 -33 0 -314 -90 -368 -117 -53 -28 -144 -94 -168 -122 -13 -16
-29 -43 -37 -60 l-13 -32 14 -57 c8 -36 23 -67 41 -85 l27 -28 58 3 58 3 36
55 36 55 94 29 94 29 35 -19 35 -19 3 -60 2 -60 -42 -64 c-24 -36 -56 -72 -73
-81 -40 -22 -156 -60 -182 -60 -11 0 -37 -7 -56 -15 -21 -8 -67 -15 -105 -15
-39 0 -85 -7 -105 -15 l-36 -15 -381 0 -381 0 -36 15 c-22 9 -67 15 -120 15
-52 0 -97 6 -120 15 -26 11 -74 15 -180 15 -105 0 -153 4 -180 15 -24 10 -71
15 -150 15 -78 0 -125 5 -150 15 -20 8 -66 15 -105 15 -38 0 -84 7 -105 15
-19 8 -52 15 -72 15 -20 0 -75 13 -121 30 -53 18 -105 30 -138 30 -29 0 -69 7
-89 15 -22 9 -67 15 -120 15 -52 0 -97 6 -120 15 -19 8 -45 15 -56 15 -12 0
-81 20 -154 45 -73 25 -142 45 -154 45 -11 0 -50 14 -86 30 -35 17 -69 30 -74
30 -6 0 -31 10 -57 22 -26 12 -130 50 -232 84 -147 49 -193 69 -225 96 -22 20
-55 39 -73 43 -18 3 -54 21 -80 40 -60 41 -126 75 -147 75 l-15 0 0 -69 0 -69
22 -5 c13 -4 50 -29 83 -56 97 -82 425 -241 496 -241 11 0 50 -14 86 -30 35
-17 76 -30 90 -30 35 0 85 -25 118 -60 l29 -30 55 0 c31 0 76 -6 101 -14 58
-18 124 -35 175 -45 22 -4 56 -12 75 -18 69 -22 126 -35 185 -42 34 -5 70 -13
82 -19 12 -7 60 -12 108 -12 53 0 99 -6 122 -15 19 -8 60 -15 90 -15 29 0 70
-7 90 -15 19 -8 59 -15 87 -15 32 0 84 -11 136 -30 l85 -30 173 0 c130 0 181
-4 209 -15 27 -12 81 -15 239 -15 160 0 212 -3 242 -15 l39 -16 269 5 c148 3
280 6 294 6 14 1 44 -1 67 -5 30 -5 54 -3 83 9 31 12 75 16 185 16 l144 0 64
30 c36 17 70 30 77 30 26 0 151 75 208 125 28 24 91 115 121 173 16 31 21 60
21 117 0 84 -12 117 -66 178 -64 71 -41 97 89 97 53 0 98 6 120 15 22 9 68 15
117 15 49 0 95 -6 117 -15 19 -8 61 -15 93 -15 32 0 74 7 93 15 44 18 86 19
138 3 30 -8 48 -8 79 1 l39 12 37 -16 36 -15 295 0 294 0 36 -15 c19 -8 60
-15 90 -15 29 0 70 -7 90 -15 19 -8 52 -15 72 -15 20 0 56 -6 81 -14 87 -28
136 -38 210 -45 41 -4 85 -13 97 -19 12 -7 39 -12 60 -12 21 0 58 -6 83 -14
59 -19 125 -36 176 -45 22 -4 54 -17 70 -28 47 -33 111 -63 136 -63 29 0 153
-42 207 -69 22 -12 50 -21 62 -21 33 0 318 -98 349 -120 15 -11 63 -31 106
-45 105 -34 165 -63 249 -120 109 -74 135 -96 135 -112 0 -8 7 -27 15 -43 l16
-30 44 0 c24 0 47 5 50 10 3 6 19 10 36 10 l29 0 0 43 0 43 -51 57 c-51 57
-173 147 -200 147 -7 0 -27 9 -44 21 -58 39 -166 90 -253 118 -48 16 -107 37
-132 49 -142 63 -224 90 -341 112 -26 5 -64 17 -86 28 -51 27 -338 122 -366
122 -12 0 -47 12 -77 26 -81 37 -165 64 -203 64 -18 0 -71 13 -117 30 -62 21
-104 30 -153 30 -37 0 -84 7 -104 15 -19 8 -60 15 -90 15 -29 0 -70 7 -90 15
-19 8 -60 15 -90 15 -29 0 -70 7 -90 15 -25 11 -72 15 -165 15 -92 0 -139 4
-165 15 l-35 15 -389 0 c-248 0 -390 4 -394 10 -8 13 -128 13 -140 1z"/>
</g>
</svg>
