<?xml version="1.0" standalone="no"?>
<!DOCTYPE svg PUBLIC "-//W3C//DTD SVG 20010904//EN"
 "http://www.w3.org/TR/2001/REC-SVG-20010904/DTD/svg10.dtd">
<svg version="1.0" xmlns="http://www.w3.org/2000/svg"
 width="432.000000pt" height="375.000000pt" viewBox="0 0 432.000000 375.000000"
 preserveAspectRatio="xMidYMid meet">
<metadata>
Created by potrace 1.16, written by Peter Selinger 2001-2019
</metadata>
<g transform="translate(0.000000,375.000000) scale(0.100000,-0.100000)"
fill="#000000" stroke="none">
<path d="M1880 3722 c0 -49 -11 -52 -182 -52 -123 0 -167 4 -199 16 l-41 17
-94 -7 c-51 -3 -105 -11 -120 -16 -14 -6 -103 -10 -198 -10 -132 0 -182 -4
-209 -15 -25 -10 -72 -15 -151 -15 l-114 0 -64 -30 c-34 -16 -68 -30 -75 -30
-6 0 -40 -13 -75 -30 -34 -16 -70 -30 -77 -30 -17 0 -138 -79 -163 -106 -9
-11 -35 -46 -57 -79 l-41 -60 0 -62 c0 -34 -5 -65 -10 -68 -13 -8 -13 -120 0
-143 5 -9 19 -45 30 -79 11 -35 48 -105 83 -157 34 -52 76 -118 92 -146 17
-29 49 -85 72 -124 46 -76 54 -92 74 -145 7 -19 30 -54 51 -79 21 -24 52 -71
69 -104 17 -33 57 -100 90 -147 32 -48 67 -112 77 -143 23 -69 58 -130 111
-190 23 -25 41 -51 41 -57 0 -19 37 -86 56 -102 29 -24 90 -112 124 -180 18
-35 50 -83 71 -107 21 -24 41 -58 44 -75 4 -18 36 -76 72 -130 36 -53 71 -117
78 -141 7 -23 52 -101 100 -172 48 -71 96 -147 107 -169 11 -21 35 -60 52 -86
17 -26 45 -70 61 -99 70 -122 83 -141 108 -168 15 -15 27 -35 27 -43 1 -14 24
-60 65 -126 l20 -33 58 0 57 0 0 30 c0 33 -57 154 -96 207 -31 40 -84 152 -84
175 0 10 -25 45 -55 79 -31 34 -58 74 -62 88 -9 41 -39 94 -107 196 -35 51
-68 113 -74 137 -6 24 -27 68 -46 98 -19 30 -60 103 -90 161 -30 59 -80 144
-110 190 -31 46 -56 89 -56 97 0 21 -30 74 -60 107 -37 40 -120 179 -120 201
0 10 -19 36 -43 58 -31 30 -48 57 -62 101 -11 33 -34 76 -51 97 -18 20 -38 47
-44 60 -7 12 -25 37 -40 53 -20 22 -29 44 -33 83 l-6 52 42 0 c30 0 55 -9 87
-30 25 -16 51 -30 58 -30 8 0 43 -13 79 -30 37 -17 81 -30 104 -30 22 0 56 -7
76 -15 25 -10 71 -15 152 -15 l116 0 68 24 c38 14 79 32 93 40 35 24 94 146
94 196 0 38 -29 140 -52 185 -22 41 -153 177 -203 211 -29 19 -72 52 -97 73
-24 21 -86 60 -138 87 -52 26 -113 60 -134 76 -21 15 -46 28 -55 28 -30 0
-239 108 -279 144 -24 23 -50 36 -66 36 -15 0 -48 10 -74 22 -26 11 -82 34
-126 49 -43 16 -81 31 -84 34 -10 9 27 75 45 81 10 3 48 19 84 35 38 17 83 29
107 29 22 0 53 5 69 11 20 7 39 7 70 -2 l42 -11 41 16 c28 11 72 16 141 16 61
0 109 5 122 12 18 11 249 29 337 28 14 -1 138 -3 276 -5 198 -3 260 -7 289
-19 27 -12 72 -16 167 -16 92 0 139 -4 165 -15 25 -11 72 -15 165 -15 92 0
139 -4 165 -15 19 -8 53 -15 75 -15 21 0 55 -7 75 -15 19 -8 48 -15 62 -15 17
0 38 -11 56 -30 l29 -30 43 0 c24 0 60 -7 80 -15 19 -8 59 -15 87 -15 49 0
164 -33 224 -64 39 -20 147 -56 170 -56 23 0 122 -34 190 -66 29 -13 58 -24
65 -24 7 0 29 -11 48 -25 20 -13 65 -38 100 -56 96 -48 218 -132 274 -189 55
-56 80 -62 113 -27 43 46 14 131 -65 187 -26 19 -64 49 -83 66 -19 17 -53 41
-75 53 -22 12 -65 38 -95 57 -30 19 -71 39 -90 44 -19 5 -86 34 -148 65 -62
30 -124 55 -138 55 -13 0 -41 7 -61 15 -19 8 -52 15 -72 15 -39 0 -156 37
-220 69 -22 12 -51 21 -63 21 -13 0 -43 6 -68 14 -58 18 -124 35 -175 45 -22
4 -56 12 -75 18 -52 16 -119 33 -172 43 -26 5 -56 13 -67 19 -11 6 -45 11 -76
11 -30 0 -72 7 -92 15 -23 10 -69 15 -134 15 -54 0 -110 5 -126 12 -15 7 -66
14 -113 17 l-85 6 -24 38 -24 37 -39 0 -38 0 0 -28z m-1531 -574 c36 -12 101
-39 144 -60 43 -21 90 -38 105 -38 18 0 39 -11 57 -30 16 -16 35 -30 43 -30
20 0 81 -30 126 -62 21 -15 46 -28 55 -28 22 0 155 -73 260 -142 31 -21 63
-38 72 -38 9 0 24 -9 35 -21 10 -11 49 -43 86 -70 l68 -51 45 -91 c49 -98 51
-117 15 -168 -11 -14 -35 -34 -54 -43 -45 -21 -183 -22 -233 -1 -19 8 -45 15
-57 15 -11 0 -73 18 -136 39 -83 28 -126 48 -156 74 -23 20 -59 44 -80 53 -65
28 -69 30 -72 52 -2 13 -30 42 -65 69 -34 26 -91 78 -125 115 -40 42 -76 71
-95 76 -32 8 -37 15 -58 71 -7 18 -31 55 -54 82 -30 35 -47 68 -59 113 l-18
64 12 24 c30 57 41 59 139 26z"/>
</g>
</svg>
