<?xml version="1.0" standalone="no"?>
<!DOCTYPE svg PUBLIC "-//W3C//DTD SVG 20010904//EN"
 "http://www.w3.org/TR/2001/REC-SVG-20010904/DTD/svg10.dtd">
<svg version="1.0" xmlns="http://www.w3.org/2000/svg"
 width="1077.000000pt" height="213.000000pt" viewBox="0 0 1077.000000 213.000000"
 preserveAspectRatio="xMidYMid meet">
<metadata>
Created by potrace 1.16, written by Peter Selinger 2001-2019
</metadata>
<g transform="translate(0.000000,213.000000) scale(0.100000,-0.100000)"
fill="#000000" stroke="none">
<path d="M37 2092 l-37 -38 0 -76 c0 -42 4 -80 10 -83 5 -3 10 -14 10 -24 0
-33 40 -71 86 -82 25 -7 62 -27 87 -49 23 -21 85 -59 137 -86 52 -26 113 -60
134 -76 21 -15 45 -28 53 -28 8 0 44 -13 80 -30 35 -16 70 -30 76 -30 7 0 54
-20 105 -45 52 -25 99 -45 105 -45 7 0 41 -14 75 -30 35 -17 75 -30 88 -30 14
0 41 -7 61 -15 19 -8 54 -15 76 -15 31 0 49 -7 72 -28 37 -34 169 -76 290 -91
34 -5 70 -13 82 -19 13 -7 69 -12 137 -12 68 0 126 -5 143 -12 22 -10 291 -28
388 -27 246 3 543 16 555 24 8 6 103 13 210 16 184 6 221 11 330 45 25 8 60
14 78 14 43 0 146 35 191 66 19 13 42 24 49 24 22 0 86 37 110 63 13 14 36 31
51 37 l28 11 77 -76 c42 -42 85 -94 96 -115 12 -24 40 -52 69 -71 26 -18 62
-53 79 -78 16 -26 50 -59 74 -75 23 -15 56 -45 71 -66 18 -26 52 -52 98 -76
39 -21 82 -52 96 -71 15 -19 44 -43 65 -54 21 -11 56 -35 76 -53 20 -18 52
-41 71 -51 19 -9 52 -30 74 -46 22 -16 47 -29 56 -29 9 0 54 -25 99 -55 105
-70 155 -95 187 -95 14 0 56 -18 93 -40 37 -23 78 -43 92 -47 14 -3 46 -18 71
-34 25 -16 58 -29 73 -29 15 0 57 -13 93 -30 35 -16 74 -30 86 -30 12 0 42 -6
67 -14 101 -32 140 -39 255 -46 66 -4 134 -13 151 -20 l31 -13 42 16 c30 12
72 17 155 17 l114 0 64 30 c34 16 70 30 77 30 21 0 145 85 173 119 13 15 30
52 37 82 l13 54 -15 53 c-9 30 -33 73 -56 100 -23 27 -41 54 -41 60 0 6 13 18
30 27 l29 15 681 0 681 0 36 -15 c25 -11 72 -15 165 -15 92 0 139 -4 165 -15
20 -8 66 -15 105 -15 38 0 84 -7 105 -15 19 -8 53 -15 75 -15 21 0 55 -7 75
-15 22 -9 67 -15 120 -15 52 0 97 -6 120 -15 20 -8 66 -15 105 -15 38 0 84 -7
105 -15 19 -8 53 -15 75 -15 21 0 55 -7 75 -15 19 -8 45 -15 57 -15 12 0 60
-13 106 -30 47 -16 96 -30 110 -30 14 0 67 -20 118 -45 52 -25 99 -45 105 -45
7 0 41 -14 75 -30 35 -17 74 -30 85 -30 41 0 217 -67 245 -92 30 -29 84 -58
105 -58 27 0 136 -88 143 -115 l6 -25 54 0 54 0 0 63 0 63 -62 54 c-74 65
-168 130 -188 130 -8 0 -71 27 -138 60 -68 33 -133 60 -144 60 -32 0 -318 98
-347 120 -41 29 -145 60 -201 60 -28 0 -67 7 -87 15 -19 8 -53 15 -75 15 -21
0 -55 7 -75 15 -19 8 -59 15 -87 15 -28 0 -71 6 -96 14 -87 28 -136 38 -210
45 -41 4 -85 13 -97 19 -14 8 -78 12 -183 12 -120 0 -170 4 -197 15 -24 10
-71 15 -150 15 -78 0 -125 5 -150 15 -27 12 -79 15 -224 15 -151 0 -197 3
-229 16 l-41 16 -42 -12 -43 -11 -58 25 -58 26 -103 0 c-69 0 -114 -5 -138
-15 -28 -12 -82 -15 -240 -15 -159 0 -213 -3 -240 -15 -21 -8 -67 -15 -105
-15 -39 0 -85 -7 -105 -15 -20 -8 -54 -15 -75 -15 -22 0 -56 -7 -75 -15 -20
-8 -66 -15 -102 -15 -107 0 -238 -51 -293 -115 -44 -49 -44 -104 -3 -146 37
-37 71 -37 113 -1 59 51 82 62 124 62 23 0 59 7 79 16 l38 16 41 -16 c23 -9
60 -16 83 -16 l41 0 36 -49 c20 -27 36 -54 36 -61 0 -24 -71 -108 -104 -124
-25 -12 -64 -16 -149 -16 -79 0 -126 -5 -150 -15 -46 -19 -128 -19 -174 0 -25
11 -72 15 -161 15 l-125 0 -151 50 c-83 28 -175 62 -204 75 -29 14 -58 25 -65
25 -13 0 -66 28 -148 78 -30 17 -70 37 -89 42 -59 16 -152 66 -204 109 -26 23
-55 41 -63 41 -29 0 -99 40 -158 89 -33 28 -81 62 -107 76 -26 13 -55 37 -65
52 -36 53 -101 113 -122 113 -15 0 -32 16 -56 54 -21 34 -51 63 -79 80 -28 16
-55 44 -71 70 -14 25 -43 57 -63 72 -47 36 -56 47 -93 114 -16 30 -45 74 -64
98 -21 27 -35 55 -35 72 0 15 -7 44 -15 63 -8 20 -15 50 -15 67 0 47 -47 90
-98 90 -61 0 -102 -62 -102 -154 0 -77 -9 -95 -90 -175 -97 -98 -218 -151
-341 -151 -37 0 -83 -7 -102 -15 -20 -8 -61 -15 -90 -15 -30 0 -71 -7 -90 -15
-20 -8 -62 -15 -92 -15 -31 0 -66 -6 -78 -12 -18 -11 -323 -25 -577 -27 -127
-2 -409 16 -427 27 -12 6 -47 12 -78 12 -30 0 -72 7 -92 15 -20 8 -66 15 -105
15 -38 0 -84 7 -105 15 -19 8 -60 15 -90 15 -63 0 -108 18 -148 60 -19 20 -39
30 -58 30 -16 0 -58 14 -94 30 -35 17 -75 30 -89 30 -14 0 -41 7 -61 15 -19 8
-47 15 -62 15 -14 0 -46 14 -71 30 -25 16 -52 30 -60 30 -8 0 -57 20 -108 45
-52 25 -100 45 -108 45 -18 0 -84 59 -84 76 0 7 11 39 25 70 30 67 30 91 6
164 l-19 55 -53 37 -54 37 -150 0 -151 1 -37 -38z m253 -108 c53 -32 75 -97
44 -128 -37 -37 -92 -9 -134 69 l-25 46 19 15 c26 19 61 18 96 -2z"/>
</g>
</svg>
