<?xml version="1.0" standalone="no"?>
<!DOCTYPE svg PUBLIC "-//W3C//DTD SVG 20010904//EN"
 "http://www.w3.org/TR/2001/REC-SVG-20010904/DTD/svg10.dtd">
<svg version="1.0" xmlns="http://www.w3.org/2000/svg"
 width="543.000000pt" height="138.000000pt" viewBox="0 0 543.000000 138.000000"
 preserveAspectRatio="xMidYMid meet">
<metadata>
Created by potrace 1.16, written by Peter Selinger 2001-2019
</metadata>
<g transform="translate(0.000000,138.000000) scale(0.100000,-0.100000)"
fill="#000000" stroke="none">
<path d="M1325 1370 c-4 -6 -56 -10 -124 -10 -83 0 -129 -5 -154 -15 -25 -10
-72 -15 -150 -15 -79 0 -126 -5 -150 -15 -20 -8 -52 -15 -72 -15 -52 0 -232
-64 -369 -131 l-121 -59 -73 -78 c-40 -42 -82 -95 -93 -116 l-19 -40 0 -117
c0 -91 3 -119 15 -129 8 -7 22 -35 30 -64 l15 -51 126 -123 c69 -67 144 -132
166 -143 22 -11 59 -34 81 -50 22 -16 47 -29 54 -29 21 0 82 -30 127 -62 21
-15 51 -28 65 -28 15 0 65 -13 111 -30 47 -16 97 -30 112 -30 15 0 30 -4 33
-10 3 -5 21 -10 40 -10 19 0 37 5 40 10 3 6 44 10 91 10 59 0 103 6 147 21
l62 21 76 76 c82 83 97 106 128 200 41 122 20 255 -59 371 -57 83 -197 207
-305 269 -22 13 -53 36 -70 51 -16 16 -59 43 -94 62 -42 22 -72 46 -89 72
l-26 39 15 9 c8 5 93 9 190 9 129 0 186 4 210 14 24 10 103 16 274 21 308 8
244 8 670 0 279 -6 378 -11 404 -21 25 -10 88 -14 245 -14 164 -1 217 -4 236
-15 14 -8 51 -14 83 -15 32 0 74 -7 94 -15 19 -8 65 -15 102 -15 36 0 86 -6
111 -14 87 -28 136 -38 210 -45 41 -4 85 -13 97 -19 12 -7 61 -12 109 -12 l87
0 86 -41 c108 -51 191 -79 234 -79 18 0 71 -13 117 -30 47 -16 96 -30 108 -30
29 0 86 -25 127 -56 33 -25 142 -64 177 -64 13 0 67 -29 120 -64 53 -34 111
-68 130 -75 87 -32 101 -45 204 -189 l40 -57 37 -3 37 -3 0 56 c0 30 -4 63 -8
73 -5 9 -20 39 -33 67 l-24 49 -85 59 c-47 32 -123 77 -170 99 -47 22 -101 49
-120 59 -164 89 -253 129 -287 129 -38 0 -158 36 -211 64 -50 26 -150 56 -187
56 -20 0 -52 7 -72 15 -19 8 -47 15 -60 15 -14 0 -54 13 -90 30 -35 17 -75 30
-89 30 -14 0 -41 7 -61 15 -19 8 -53 15 -75 15 -21 0 -55 7 -75 15 -20 8 -66
15 -105 15 -38 0 -84 7 -105 15 -24 10 -71 15 -150 15 -78 0 -125 5 -150 15
-22 9 -69 15 -127 15 -60 1 -100 6 -116 15 -18 10 -60 14 -143 15 -81 0 -129
5 -154 15 -22 9 -68 15 -124 15 -48 0 -91 5 -94 10 -4 6 -213 10 -595 10 -382
0 -591 -4 -595 -10z m-624 -235 c77 -35 184 -111 187 -132 4 -30 29 -47 100
-69 l63 -19 36 -43 c19 -24 52 -54 72 -66 56 -36 140 -110 171 -152 33 -45 70
-145 70 -188 0 -34 -37 -150 -58 -183 -19 -30 -175 -123 -205 -123 -14 0 -41
-7 -60 -15 -52 -22 -76 -19 -127 15 -25 16 -56 30 -70 30 -48 0 -172 48 -225
86 -16 13 -67 41 -113 64 -102 51 -199 140 -275 253 -67 99 -77 124 -77 187 0
69 11 91 82 163 35 35 72 76 83 91 15 20 51 36 155 70 74 25 140 45 146 45 6
1 27 -6 45 -14z"/>
</g>
</svg>
