<?xml version="1.0" standalone="no"?>
<!DOCTYPE svg PUBLIC "-//W3C//DTD SVG 20010904//EN"
 "http://www.w3.org/TR/2001/REC-SVG-20010904/DTD/svg10.dtd">
<svg version="1.0" xmlns="http://www.w3.org/2000/svg"
 width="402.000000pt" height="351.000000pt" viewBox="0 0 402.000000 351.000000"
 preserveAspectRatio="xMidYMid meet">
<metadata>
Created by potrace 1.16, written by Peter Selinger 2001-2019
</metadata>
<g transform="translate(0.000000,351.000000) scale(0.100000,-0.100000)"
fill="#000000" stroke="none">
<path d="M1100 3478 c1 -57 78 -174 183 -279 31 -32 57 -64 57 -71 0 -25 89
-146 215 -293 33 -38 86 -109 118 -157 32 -49 69 -95 83 -104 14 -9 37 -38 51
-63 15 -25 49 -70 75 -100 27 -30 60 -75 73 -102 14 -26 42 -60 64 -75 21 -16
49 -44 62 -64 35 -52 102 -139 147 -190 22 -25 51 -63 66 -85 14 -22 45 -54
69 -71 28 -21 46 -43 55 -70 8 -25 34 -59 71 -95 32 -30 68 -74 80 -97 12 -24
38 -53 61 -67 22 -14 47 -37 57 -52 26 -43 65 -83 95 -99 41 -21 62 -58 48
-83 l-11 -21 -235 0 c-186 0 -242 3 -271 15 -27 11 -77 15 -205 15 l-170 0
-29 -29 c-37 -37 -36 -53 3 -136 l31 -68 -17 -32 c-9 -17 -30 -39 -46 -48
l-28 -17 -289 0 c-221 0 -298 3 -333 14 -76 24 -132 37 -195 46 -33 5 -91 20
-130 34 -38 14 -87 26 -108 26 -21 0 -54 7 -74 15 -19 8 -45 15 -57 15 -12 0
-60 13 -106 30 -47 16 -95 30 -108 30 -13 0 -48 12 -79 26 -31 14 -86 35 -122
46 -36 12 -80 34 -96 50 l-31 28 -63 0 -62 0 3 -32 c2 -25 15 -41 53 -73 28
-22 65 -59 83 -82 24 -31 40 -43 59 -43 14 0 128 -33 252 -74 276 -90 297 -96
391 -106 41 -4 89 -12 105 -18 38 -13 109 -31 160 -41 22 -4 56 -12 75 -18 91
-29 134 -36 245 -42 66 -4 130 -12 142 -19 31 -17 163 -15 206 3 20 8 63 15
97 15 l60 0 52 48 c29 26 68 58 86 70 42 30 72 90 72 144 0 24 4 49 9 57 l10
15 253 -3 c190 -2 261 -6 287 -17 22 -9 72 -14 148 -14 78 0 125 -5 150 -15
19 -8 46 -15 60 -15 36 0 61 -16 88 -60 15 -23 43 -49 67 -61 24 -12 78 -57
120 -100 44 -45 85 -79 96 -79 11 0 32 -16 47 -35 24 -32 165 -115 196 -115 6
0 40 -13 76 -30 87 -40 142 -40 203 0 25 16 51 30 58 30 9 0 12 26 12 98 l0
97 -33 15 c-20 9 -41 32 -57 61 -37 68 -49 79 -85 79 -23 0 -47 11 -77 35 -64
51 -102 70 -237 114 -68 23 -135 49 -149 60 -61 43 -111 61 -168 61 l-56 0
-174 178 c-96 97 -186 195 -201 217 -15 22 -52 67 -83 100 -85 94 -150 176
-171 217 -11 21 -33 48 -50 60 -17 13 -43 43 -57 68 -14 25 -54 73 -87 107
-34 35 -75 82 -90 105 -16 24 -39 54 -51 68 -12 14 -47 63 -78 110 -32 49 -74
98 -99 116 -28 21 -46 43 -55 70 -8 25 -35 61 -77 101 -47 45 -66 71 -71 97
-4 26 -18 45 -48 68 -53 42 -59 50 -103 132 -20 37 -63 95 -95 127 -36 36 -58
67 -58 81 0 14 -21 43 -58 78 -32 30 -79 83 -105 118 -29 37 -56 62 -67 62
-10 0 -22 5 -25 10 -3 6 -40 10 -81 10 l-74 0 0 -32z m2425 -2578 c3 -5 21
-10 38 -10 59 -1 182 -78 216 -136 l19 -32 -26 8 c-67 19 -161 72 -202 114
-24 25 -50 46 -57 46 -7 0 -13 5 -13 10 0 6 4 10 9 10 6 0 13 -4 16 -10z"/>
<path d="M255 767 c-31 -17 -48 -38 -79 -98 l-40 -76 23 -68 c34 -106 112
-207 207 -271 28 -19 72 -52 97 -74 25 -22 50 -40 57 -40 7 0 38 -16 69 -35
88 -54 183 -85 268 -85 39 0 75 -4 78 -10 3 -5 21 -10 39 -10 60 0 98 67 59
103 -10 8 -74 34 -143 56 -69 23 -145 51 -170 62 -85 40 -197 122 -229 169
-17 25 -45 63 -61 84 -38 49 -38 75 0 154 34 73 38 121 12 145 -29 26 -136 23
-187 -6z"/>
</g>
</svg>
