<?xml version="1.0" standalone="no"?>
<!DOCTYPE svg PUBLIC "-//W3C//DTD SVG 20010904//EN"
 "http://www.w3.org/TR/2001/REC-SVG-20010904/DTD/svg10.dtd">
<svg version="1.0" xmlns="http://www.w3.org/2000/svg"
 width="456.000000pt" height="315.000000pt" viewBox="0 0 456.000000 315.000000"
 preserveAspectRatio="xMidYMid meet">
<metadata>
Created by potrace 1.16, written by Peter Selinger 2001-2019
</metadata>
<g transform="translate(0.000000,315.000000) scale(0.100000,-0.100000)"
fill="#000000" stroke="none">
<path d="M1510 3099 c10 -28 31 -65 47 -82 53 -56 146 -200 155 -241 5 -21 20
-53 34 -69 14 -16 39 -57 56 -91 17 -34 49 -81 73 -106 23 -25 50 -59 61 -75
20 -33 82 -112 125 -160 15 -16 29 -42 33 -57 3 -14 36 -54 76 -91 38 -36 70
-72 70 -82 0 -9 24 -40 53 -69 29 -29 70 -78 90 -108 20 -31 52 -65 71 -76 19
-11 42 -33 52 -49 10 -15 50 -62 89 -103 40 -41 83 -93 98 -115 14 -22 64 -78
112 -125 48 -47 112 -116 143 -155 31 -38 91 -105 134 -148 42 -43 93 -103
112 -132 20 -29 51 -62 70 -73 46 -27 111 -128 95 -148 -15 -18 -70 -18 -116
1 -23 10 -69 15 -135 15 -65 0 -111 5 -135 15 -28 12 -86 15 -285 15 -198 0
-256 3 -285 15 -25 11 -72 15 -158 15 l-122 0 -16 -18 c-29 -32 -20 -60 41
-125 32 -34 66 -73 75 -87 21 -30 24 -135 5 -147 -29 -18 -115 -43 -149 -43
-20 0 -54 -7 -75 -16 -23 -10 -53 -14 -78 -11 -23 3 -77 10 -121 16 -44 5
-135 10 -203 10 -85 1 -134 6 -159 16 -20 8 -66 15 -105 15 -38 0 -84 7 -105
15 -23 10 -69 15 -137 15 l-101 0 -63 30 c-35 17 -76 30 -90 30 -15 0 -39 12
-57 28 -19 18 -67 40 -135 61 -116 37 -276 109 -324 146 -40 30 -235 95 -286
95 l-40 0 0 -85 0 -85 26 0 c31 0 85 -24 138 -62 22 -16 52 -28 70 -28 46 -1
163 -66 249 -138 17 -15 51 -41 75 -57 56 -37 140 -129 148 -162 4 -13 2 -35
-5 -49 l-11 -24 -78 0 -79 0 -16 -18 c-28 -31 -21 -62 25 -104 l41 -38 48 0
c26 0 51 5 54 10 3 6 20 10 36 10 42 0 120 42 157 85 l32 36 0 67 c0 49 -5 76
-20 100 -25 41 -26 67 -2 57 9 -4 40 -10 69 -15 29 -5 61 -14 72 -19 11 -6 45
-11 76 -11 30 0 72 -7 92 -15 19 -8 53 -15 75 -15 21 0 55 -7 75 -15 l35 -15
417 0 416 0 67 24 c100 35 130 56 160 111 32 58 36 123 12 180 -8 20 -14 51
-12 69 l3 31 92 3 c66 2 102 -2 129 -13 20 -8 61 -15 91 -15 29 0 70 -7 90
-15 23 -10 69 -15 135 -15 65 0 111 -5 135 -15 27 -11 77 -15 210 -15 132 0
182 -4 210 -15 19 -8 48 -15 63 -15 29 0 88 -39 135 -90 17 -18 48 -44 70 -58
22 -14 67 -51 100 -82 33 -31 81 -68 106 -83 25 -14 58 -42 73 -61 15 -20 39
-39 54 -42 15 -3 82 -33 149 -65 144 -69 191 -76 242 -33 l31 26 0 78 c0 43
-4 82 -10 85 -5 3 -10 15 -10 27 0 30 -145 174 -210 210 -30 16 -78 44 -107
62 -54 34 -167 76 -206 76 -12 0 -42 14 -67 30 -25 16 -56 30 -70 30 -26 0
-120 30 -177 56 -17 8 -56 36 -85 62 -29 26 -70 59 -90 72 -20 14 -49 44 -64
67 -14 23 -56 69 -93 102 -108 99 -204 202 -345 369 -38 46 -87 95 -110 110
-30 20 -45 39 -54 70 -10 29 -31 57 -67 90 -28 26 -55 59 -58 73 -6 25 -52 71
-111 112 -15 10 -30 32 -33 49 -4 20 -22 42 -58 69 -29 22 -66 59 -81 82 -16
23 -57 72 -91 110 -35 37 -75 91 -89 120 -15 28 -48 76 -75 105 -27 29 -53 69
-58 89 -6 22 -29 55 -58 82 -49 47 -153 195 -153 219 0 20 -36 87 -56 103 -9
8 -35 39 -58 69 -53 72 -161 180 -180 180 -8 0 -18 5 -21 10 -3 6 -32 10 -64
10 l-58 0 17 -51z m2707 -2727 c26 -21 55 -47 63 -56 8 -10 24 -22 37 -27 30
-11 59 -57 45 -71 -12 -12 -87 20 -142 62 -19 15 -45 30 -57 34 -30 10 -83 60
-83 80 0 12 10 16 44 16 l44 0 49 -38z"/>
</g>
</svg>
