<?xml version="1.0" standalone="no"?>
<!DOCTYPE svg PUBLIC "-//W3C//DTD SVG 20010904//EN"
 "http://www.w3.org/TR/2001/REC-SVG-20010904/DTD/svg10.dtd">
<svg version="1.0" xmlns="http://www.w3.org/2000/svg"
 width="396.000000pt" height="336.000000pt" viewBox="0 0 396.000000 336.000000"
 preserveAspectRatio="xMidYMid meet">
<metadata>
Created by potrace 1.16, written by Peter Selinger 2001-2019
</metadata>
<g transform="translate(0.000000,336.000000) scale(0.100000,-0.100000)"
fill="#000000" stroke="none">
<path d="M1221 3320 l-22 -39 30 -58 c16 -32 39 -67 51 -78 12 -11 34 -40 48
-65 14 -25 44 -65 67 -90 23 -25 50 -59 60 -75 11 -17 47 -60 82 -97 34 -38
66 -80 69 -95 14 -57 53 -120 106 -168 31 -28 65 -69 77 -92 11 -24 34 -52 50
-64 16 -11 49 -49 75 -84 25 -34 61 -73 80 -86 19 -13 47 -43 63 -68 15 -24
44 -54 65 -67 21 -13 45 -36 55 -51 9 -16 58 -71 109 -124 50 -52 99 -109 107
-125 20 -37 439 -453 532 -526 73 -58 140 -125 169 -168 12 -19 16 -49 16
-138 0 -120 15 -183 66 -285 13 -27 24 -53 24 -58 0 -17 -42 -9 -107 21 -35
17 -70 30 -77 30 -7 0 -23 12 -37 26 -23 25 -147 94 -170 94 -20 0 -83 34
-159 86 -112 76 -152 94 -210 94 l-52 0 -29 -29 -29 -29 0 -47 c0 -103 -93
-225 -172 -225 -14 0 -42 -7 -61 -15 -21 -8 -67 -15 -105 -15 -39 0 -85 -7
-105 -15 -48 -20 -186 -20 -234 0 -26 11 -74 15 -180 15 -105 0 -153 4 -180
15 -25 11 -72 15 -162 15 l-127 0 -84 30 c-47 16 -94 30 -105 30 -12 0 -59 13
-105 30 -47 16 -94 30 -105 30 -12 0 -59 13 -105 30 -47 16 -96 30 -108 30
-13 0 -50 16 -81 35 -81 50 -184 85 -254 85 l-58 0 3 -26 c2 -20 21 -39 73
-76 74 -52 157 -98 176 -98 7 0 51 -18 98 -41 123 -58 254 -97 366 -108 39 -4
106 -19 150 -33 111 -36 160 -48 230 -57 34 -5 70 -13 82 -19 12 -7 54 -12 93
-12 40 0 86 -6 107 -15 l35 -15 343 0 343 0 35 15 c20 8 47 15 61 15 13 0 57
16 97 35 41 19 85 35 100 35 14 0 55 19 90 43 48 32 67 51 75 77 6 19 23 41
37 49 l25 15 130 -67 c71 -37 135 -67 141 -67 13 0 107 -53 201 -114 30 -19
79 -47 109 -61 29 -15 70 -43 91 -61 21 -19 44 -34 52 -34 7 0 70 -37 138 -83
69 -45 146 -95 172 -110 26 -15 53 -35 60 -45 20 -26 116 -82 143 -82 13 0 42
12 64 27 l41 27 0 37 0 37 -33 24 c-17 14 -54 37 -82 51 -27 14 -72 44 -99 66
-26 23 -57 41 -67 41 -13 0 -29 17 -47 47 -15 25 -49 69 -77 98 -113 116 -228
334 -211 401 9 35 25 30 87 -25 29 -26 74 -58 99 -71 25 -13 59 -33 75 -46 41
-31 145 -64 200 -64 l47 0 29 29 29 29 0 52 c0 68 -37 142 -89 174 -22 14 -52
44 -68 68 -22 34 -39 46 -78 59 -26 8 -68 32 -91 52 -23 20 -48 37 -56 37 -7
0 -33 14 -58 30 l-45 30 -123 0 -122 0 -63 60 c-34 33 -66 64 -71 69 -4 5 -31
32 -60 60 -28 28 -60 61 -71 74 -11 12 -38 38 -59 57 -115 102 -261 251 -292
297 -18 28 -61 76 -94 106 -33 29 -60 59 -60 66 0 33 -53 112 -92 138 -29 19
-46 39 -53 62 -7 23 -27 47 -62 73 -29 22 -69 64 -88 94 -20 30 -47 61 -59 69
-12 8 -40 40 -62 71 -21 31 -63 84 -93 117 -29 34 -65 84 -78 112 -14 27 -54
80 -88 116 -40 43 -67 82 -76 110 -11 34 -25 51 -65 78 -28 19 -62 51 -75 70
-13 20 -44 59 -69 87 -25 27 -61 76 -80 107 l-35 57 -46 0 -45 0 -23 -40z
m2331 -2336 c21 -13 40 -35 44 -49 4 -17 20 -31 49 -44 47 -21 60 -35 51 -57
l-5 -14 -33 20 c-17 10 -37 29 -43 41 -7 12 -36 32 -66 44 -56 24 -97 65 -84
84 9 15 39 6 87 -25z"/>
</g>
</svg>
