<?xml version="1.0" standalone="no"?>
<!DOCTYPE svg PUBLIC "-//W3C//DTD SVG 20010904//EN"
 "http://www.w3.org/TR/2001/REC-SVG-20010904/DTD/svg10.dtd">
<svg version="1.0" xmlns="http://www.w3.org/2000/svg"
 width="1218.000000pt" height="309.000000pt" viewBox="0 0 1218.000000 309.000000"
 preserveAspectRatio="xMidYMid meet">
<metadata>
Created by potrace 1.16, written by Peter Selinger 2001-2019
</metadata>
<g transform="translate(0.000000,309.000000) scale(0.100000,-0.100000)"
fill="#000000" stroke="none">
<path d="M0 3052 l0 -38 38 -37 c20 -20 60 -59 87 -86 28 -27 74 -61 103 -75
29 -15 69 -42 90 -60 20 -18 55 -43 77 -55 22 -12 65 -38 95 -57 30 -19 66
-37 80 -41 14 -3 39 -18 55 -33 36 -33 120 -77 187 -96 27 -8 73 -35 103 -60
40 -32 79 -52 143 -73 48 -15 128 -49 179 -74 51 -26 152 -67 226 -91 74 -24
147 -51 163 -59 45 -23 150 -57 177 -57 13 0 65 -20 116 -45 51 -25 102 -45
114 -45 12 0 42 -6 67 -14 78 -25 133 -37 195 -45 34 -5 70 -13 82 -19 12 -7
47 -12 78 -12 30 0 72 -7 92 -15 19 -8 53 -15 75 -15 21 0 55 -7 75 -15 19 -8
53 -15 75 -15 21 0 55 -7 75 -15 19 -8 53 -15 75 -15 21 0 55 -7 75 -15 25
-11 72 -15 165 -15 92 0 139 -4 165 -15 l35 -15 448 0 448 0 35 15 c20 8 60
15 89 15 33 0 85 12 138 30 46 17 94 30 107 30 51 0 199 87 331 195 136 111
150 114 221 50 21 -19 44 -35 50 -35 18 0 125 -64 282 -168 77 -51 161 -103
187 -116 26 -13 83 -55 128 -93 44 -39 92 -73 106 -76 15 -4 50 -29 80 -56 29
-26 73 -58 98 -71 25 -12 65 -38 89 -58 24 -20 87 -65 140 -100 53 -36 115
-82 138 -103 24 -22 46 -39 51 -39 4 0 37 -25 72 -55 36 -30 92 -69 125 -87
66 -35 152 -95 174 -122 8 -10 35 -28 60 -41 25 -12 74 -48 109 -79 34 -31 71
-56 82 -56 10 0 21 -4 25 -10 10 -17 148 -125 222 -173 40 -27 82 -62 94 -78
11 -16 47 -43 78 -59 32 -16 84 -51 117 -79 32 -28 86 -65 119 -82 33 -17 80
-48 105 -69 46 -38 120 -80 141 -80 6 0 27 -13 46 -30 26 -24 43 -30 78 -30
24 0 47 -4 50 -10 3 -5 34 -10 69 -10 l63 0 41 38 42 39 0 101 0 101 -55 42
c-30 22 -71 65 -90 95 l-37 55 -229 114 c-176 88 -238 115 -268 115 -36 0 -71
19 -71 38 0 4 7 18 16 31 27 38 90 61 170 61 41 0 87 7 107 15 20 8 60 15 88
15 28 0 73 8 100 17 l49 18 49 -18 49 -17 306 0 307 0 36 -15 35 -15 280 0
279 0 36 -15 c24 -10 71 -15 150 -15 78 0 125 -5 150 -15 19 -8 53 -15 75 -15
21 0 55 -7 75 -15 19 -8 53 -15 75 -15 21 0 55 -7 75 -15 19 -8 60 -15 90 -15
29 0 70 -7 90 -15 19 -8 65 -15 102 -15 49 0 90 -8 151 -30 47 -16 101 -30
120 -30 20 0 74 -13 120 -30 47 -16 102 -30 123 -30 21 0 54 -7 74 -15 19 -8
52 -15 72 -15 38 0 118 -24 211 -64 84 -36 159 -66 226 -90 33 -12 76 -34 95
-48 41 -31 113 -68 131 -68 8 0 45 -15 85 -34 71 -34 103 -65 103 -99 0 -10
13 -32 29 -48 l29 -29 66 0 66 0 0 40 c0 22 -4 48 -9 58 -4 9 -18 38 -29 64
-16 35 -34 55 -74 81 -29 18 -59 42 -67 51 -16 19 -143 86 -163 86 -7 0 -56
20 -108 44 -205 94 -507 197 -662 226 -26 5 -56 13 -67 19 -11 6 -44 11 -73
11 -29 0 -73 6 -98 14 -60 19 -125 35 -182 46 -26 5 -56 13 -67 19 -11 6 -37
11 -58 11 -21 0 -58 6 -83 14 -101 32 -140 39 -255 45 -66 4 -130 12 -142 19
-12 6 -47 12 -78 12 -30 0 -72 7 -92 15 -22 9 -67 15 -120 15 -52 0 -97 6
-120 15 -22 9 -67 15 -120 15 -52 0 -97 6 -120 15 -27 12 -81 15 -240 15 -158
0 -212 3 -240 15 l-35 15 -418 0 -418 0 -35 -15 c-20 -8 -54 -15 -75 -15 -22
0 -56 -7 -75 -15 -20 -8 -47 -15 -61 -15 -14 0 -66 -20 -117 -45 -51 -25 -100
-45 -109 -45 -30 0 -69 -40 -80 -81 -6 -22 -21 -46 -35 -55 l-24 -16 -37 12
c-20 7 -60 32 -89 55 -29 24 -73 53 -96 66 -56 28 -113 72 -165 126 -22 24
-49 43 -60 43 -11 0 -31 12 -45 26 -13 14 -80 63 -149 109 -69 47 -141 100
-160 120 -19 19 -51 40 -72 45 -20 6 -61 32 -90 59 -29 26 -67 55 -85 64 -17
9 -53 35 -79 58 -26 23 -93 71 -147 107 -55 36 -114 77 -131 92 -17 14 -51 38
-76 52 -25 14 -54 36 -65 48 -11 12 -38 31 -60 43 -22 11 -53 30 -70 42 -16
13 -53 34 -81 48 -29 15 -66 44 -84 67 -17 22 -39 40 -49 40 -20 0 -84 41
-131 85 -19 18 -49 40 -66 49 -30 14 -134 83 -195 129 -15 10 -48 48 -74 83
-47 65 -102 104 -146 104 -12 0 -41 -19 -65 -44 l-44 -43 0 -50 c0 -28 7 -67
15 -86 32 -77 12 -147 -54 -187 -110 -66 -171 -100 -180 -100 -5 0 -38 -13
-73 -30 l-63 -30 -86 0 c-54 0 -100 -6 -122 -15 l-36 -15 -366 0 -366 0 -36
15 c-28 12 -84 15 -270 15 -185 0 -241 3 -270 15 -19 8 -60 15 -90 15 -29 0
-70 7 -90 15 -19 8 -52 15 -71 15 -20 0 -77 13 -127 29 -146 47 -174 53 -285
60 -80 5 -115 12 -147 29 -23 12 -82 35 -131 51 -48 15 -102 35 -119 44 -17 9
-91 36 -165 60 -74 25 -153 54 -176 66 -23 11 -52 21 -64 21 -39 0 -171 49
-213 79 -57 40 -93 57 -180 86 -42 13 -88 33 -103 44 -37 26 -221 117 -252
124 -14 4 -43 22 -65 40 -22 19 -83 56 -135 82 -125 62 -342 208 -375 251
l-26 34 -50 0 -49 0 0 -38z m7830 -2547 c41 -14 93 -38 115 -54 22 -16 74 -45
115 -66 93 -47 134 -77 161 -122 l22 -35 -16 -15 -15 -15 -84 39 c-46 22 -96
43 -110 46 -15 4 -50 29 -80 55 -29 27 -86 70 -126 96 -77 51 -94 72 -71 87 8
5 14 9 14 9 0 0 34 -12 75 -25z"/>
</g>
</svg>
