<?xml version="1.0" standalone="no"?>
<!DOCTYPE svg PUBLIC "-//W3C//DTD SVG 20010904//EN"
 "http://www.w3.org/TR/2001/REC-SVG-20010904/DTD/svg10.dtd">
<svg version="1.0" xmlns="http://www.w3.org/2000/svg"
 width="684.000000pt" height="210.000000pt" viewBox="0 0 684.000000 210.000000"
 preserveAspectRatio="xMidYMid meet">
<metadata>
Created by potrace 1.16, written by Peter Selinger 2001-2019
</metadata>
<g transform="translate(0.000000,210.000000) scale(0.100000,-0.100000)"
fill="#000000" stroke="none">
<path d="M125 2090 c-3 -5 -14 -10 -24 -10 -9 0 -30 -13 -46 -30 -16 -16 -35
-30 -42 -30 -16 0 -19 -145 -3 -155 6 -4 21 -28 35 -54 13 -26 39 -60 57 -75
100 -82 163 -126 178 -126 9 0 35 -13 56 -30 21 -16 60 -44 86 -62 26 -18 53
-46 61 -63 89 -189 116 -239 139 -262 16 -15 28 -33 28 -40 0 -29 51 -113 83
-137 19 -14 46 -48 61 -76 18 -32 44 -61 74 -81 26 -17 60 -48 75 -69 15 -22
51 -52 79 -67 31 -17 63 -44 79 -68 15 -22 52 -56 82 -75 56 -36 152 -109 217
-166 19 -17 64 -46 98 -63 35 -18 82 -45 104 -62 23 -16 47 -29 55 -29 15 0
114 -55 193 -108 27 -17 85 -43 127 -57 43 -14 102 -37 131 -50 29 -14 59 -25
67 -25 7 0 17 -4 20 -10 4 -6 67 -10 156 -10 l149 0 0 19 c0 10 -7 24 -15 31
-21 18 -203 79 -235 80 -14 0 -45 14 -70 30 -25 16 -51 30 -58 30 -7 0 -43 18
-80 40 -36 22 -83 45 -103 50 -47 13 -64 22 -175 96 -51 33 -107 66 -125 73
-43 16 -44 17 -120 76 -35 28 -99 88 -143 133 -44 46 -94 91 -111 99 -16 9
-87 72 -157 141 -99 97 -147 154 -213 252 -87 131 -120 194 -110 210 9 15 102
12 142 -5 19 -8 60 -15 90 -15 29 0 70 -7 90 -15 24 -10 71 -15 150 -15 l115
0 65 -30 64 -30 478 0 479 0 35 15 c25 10 72 15 152 15 71 0 125 5 138 12 12
6 56 15 97 19 74 7 123 17 210 45 25 8 61 14 81 14 20 0 53 7 72 15 20 8 53
15 74 15 21 0 76 14 123 30 61 22 102 30 151 30 37 0 83 7 102 15 20 8 61 15
90 15 30 0 71 7 90 15 23 9 68 15 120 15 53 0 98 6 120 15 l36 15 291 0 291 0
36 -15 c27 -11 77 -15 210 -15 132 0 182 -4 210 -15 24 -10 71 -15 150 -15 78
0 125 -5 150 -15 20 -8 66 -15 105 -15 86 0 104 -10 128 -66 25 -57 53 -60 77
-6 23 49 42 50 156 14 122 -40 171 -52 237 -61 79 -11 268 -77 315 -110 46
-33 119 -71 135 -71 6 0 37 -27 68 -60 l58 -60 37 0 37 0 0 70 0 70 -39 19
c-21 11 -63 42 -92 69 -53 48 -125 92 -152 92 -7 0 -51 18 -98 41 -78 38 -134
58 -249 89 -25 7 -85 15 -135 19 -49 4 -100 12 -112 19 -12 7 -40 12 -63 12
-22 0 -57 7 -77 15 -19 8 -53 15 -75 15 -21 0 -55 7 -75 15 -20 8 -66 15 -105
15 -38 0 -84 7 -105 15 -22 9 -67 15 -120 15 -52 0 -97 6 -120 15 l-35 15
-265 0 -264 0 -36 15 c-50 21 -316 21 -366 0 -28 -12 -80 -15 -225 -15 -146 0
-198 -3 -225 -15 -20 -8 -54 -15 -75 -15 -22 0 -56 -7 -75 -15 -20 -8 -55 -15
-77 -15 -23 0 -50 -5 -61 -11 -11 -6 -41 -14 -67 -19 -57 -11 -122 -27 -182
-46 -25 -8 -76 -14 -113 -14 -38 0 -78 -5 -90 -12 -12 -6 -56 -15 -97 -19 -74
-7 -123 -17 -210 -45 -25 -8 -82 -14 -126 -14 -50 0 -95 -6 -117 -15 l-36 -15
-426 0 -426 0 -36 15 c-19 8 -52 15 -72 15 -20 0 -75 13 -121 30 l-85 30 -98
0 c-64 0 -110 5 -134 15 -22 9 -68 15 -122 15 l-86 0 -100 65 c-122 80 -135
94 -135 151 0 99 -124 274 -232 330 -29 15 -64 24 -92 24 -25 0 -48 5 -51 10
-3 6 -35 10 -70 10 -35 0 -67 -4 -70 -10z m178 -169 c50 -23 71 -44 92 -94 17
-41 19 -75 6 -96 l-9 -14 -34 26 c-18 14 -51 32 -73 39 -31 10 -48 26 -78 71
l-38 58 12 15 c16 20 72 18 122 -5z"/>
</g>
</svg>
