<?xml version="1.0" standalone="no"?>
<!DOCTYPE svg PUBLIC "-//W3C//DTD SVG 20010904//EN"
 "http://www.w3.org/TR/2001/REC-SVG-20010904/DTD/svg10.dtd">
<svg version="1.0" xmlns="http://www.w3.org/2000/svg"
 width="852.000000pt" height="303.000000pt" viewBox="0 0 852.000000 303.000000"
 preserveAspectRatio="xMidYMid meet">
<metadata>
Created by potrace 1.16, written by Peter Selinger 2001-2019
</metadata>
<g transform="translate(0.000000,303.000000) scale(0.100000,-0.100000)"
fill="#000000" stroke="none">
<path d="M2012 2992 c-57 -53 -56 -80 3 -139 l45 -44 -10 -20 c-18 -32 -80
-25 -178 22 l-85 41 -39 -18 c-46 -21 -78 -57 -78 -89 0 -23 28 -55 49 -55 7
0 38 -15 69 -34 32 -18 71 -42 89 -52 134 -80 171 -106 191 -133 22 -30 107
-81 136 -81 8 0 24 -13 36 -30 12 -16 65 -59 118 -94 59 -40 146 -113 223
-188 69 -68 142 -134 162 -148 20 -14 48 -44 64 -69 15 -24 44 -54 65 -67 21
-13 45 -36 55 -51 9 -16 33 -46 54 -68 20 -22 50 -58 66 -81 15 -22 43 -60 61
-84 19 -26 32 -55 32 -73 0 -20 12 -42 36 -69 35 -39 114 -188 114 -215 0 -8
9 -32 21 -54 11 -22 31 -73 44 -112 l25 -72 0 -125 0 -125 -21 -30 c-11 -16
-38 -66 -61 -110 -22 -44 -52 -94 -65 -112 -26 -34 -168 -133 -191 -133 -7 0
-31 -9 -53 -21 -64 -32 -181 -69 -220 -69 -20 0 -53 -7 -72 -15 l-36 -15 -456
0 -456 0 -36 15 c-20 8 -66 15 -105 15 -38 0 -84 7 -105 15 -19 8 -52 15 -72
15 -20 0 -56 6 -81 14 -60 19 -125 35 -182 46 -26 5 -56 13 -67 19 -11 6 -39
11 -63 11 -27 0 -66 11 -106 30 -40 19 -80 30 -106 30 l-42 0 -29 30 c-17 18
-39 30 -54 30 -41 0 -172 48 -216 79 -48 34 -119 71 -137 71 -20 0 -134 56
-171 84 -50 37 -113 66 -147 66 l-30 0 0 -55 c0 -37 4 -55 13 -55 18 0 159
-79 256 -142 31 -21 63 -38 72 -38 9 0 81 -32 159 -70 146 -73 242 -110 282
-110 13 0 43 -14 68 -30 25 -17 58 -30 75 -30 17 0 59 -14 93 -30 35 -17 75
-30 88 -30 14 0 41 -7 61 -15 20 -8 66 -15 105 -15 38 0 84 -7 105 -15 19 -8
52 -15 72 -15 20 0 75 -13 121 -30 l85 -30 192 0 c117 0 194 -4 198 -10 8 -13
517 -14 530 -1 6 5 39 11 75 14 61 4 107 14 190 40 19 6 53 14 75 18 51 10
117 27 175 45 25 8 57 14 71 14 26 0 128 67 158 103 7 9 22 17 32 17 24 0 86
84 134 180 21 41 48 88 61 105 12 16 32 59 44 94 l21 63 -4 152 c-2 83 -9 171
-16 196 -39 135 -54 175 -84 219 -17 27 -45 72 -62 101 -66 114 -81 138 -112
174 -18 20 -40 51 -49 69 -9 17 -39 56 -66 86 -27 29 -55 65 -63 80 -17 34
-328 337 -385 376 -25 17 -68 54 -97 83 -29 28 -61 52 -72 52 -11 0 -29 14
-41 30 -12 17 -59 55 -105 85 -46 30 -101 70 -123 88 -22 17 -63 48 -91 67
-28 19 -51 41 -51 48 0 12 9 25 60 81 l28 31 87 0 c53 0 99 -6 122 -15 22 -9
67 -15 117 -15 65 0 99 -6 166 -30 53 -18 105 -30 138 -30 29 0 69 -7 89 -15
19 -8 54 -15 77 -15 25 0 66 -12 104 -30 l64 -30 144 0 c106 0 154 -4 181 -15
24 -10 71 -15 150 -15 71 0 126 -5 146 -13 23 -10 107 -14 302 -16 l270 -2 37
15 c24 10 68 16 121 16 53 0 98 6 120 15 26 11 73 15 165 15 93 0 140 4 165
15 21 8 67 15 105 15 39 0 85 7 105 15 21 9 67 15 107 15 39 0 81 6 93 12 12
7 86 16 167 20 177 10 191 10 258 2 37 -4 64 -1 92 10 51 20 130 21 177 1 20
-8 66 -15 105 -15 38 0 84 -7 105 -15 26 -11 76 -15 195 -15 118 0 168 -4 195
-15 23 -10 69 -15 135 -15 65 0 111 -5 135 -15 19 -8 60 -15 90 -15 29 0 70
-7 90 -15 19 -8 52 -15 71 -15 20 0 77 -13 127 -29 103 -33 160 -49 227 -61
26 -5 56 -13 67 -19 11 -6 30 -11 43 -11 27 0 116 -29 198 -64 94 -40 163 -68
210 -84 25 -8 59 -26 75 -39 17 -12 57 -44 90 -70 33 -25 78 -66 101 -90 l41
-43 36 0 37 0 0 53 c0 42 -5 58 -21 73 -12 10 -30 37 -41 59 -26 51 -47 75
-67 75 -24 0 -192 83 -241 119 -24 17 -55 31 -69 31 -31 0 -243 71 -300 99
-22 12 -51 21 -63 21 -13 0 -43 6 -68 14 -78 25 -133 37 -195 45 -34 5 -70 13
-82 19 -12 7 -39 12 -60 12 -21 0 -58 6 -83 14 -87 28 -136 38 -210 45 -41 4
-85 13 -97 19 -12 7 -54 12 -93 12 -40 0 -86 6 -107 15 -26 11 -74 15 -180 15
-107 0 -153 4 -181 16 l-37 15 -315 -2 c-236 -2 -323 -6 -347 -16 -23 -9 -86
-13 -221 -13 -146 0 -198 -3 -225 -15 -23 -9 -68 -15 -120 -15 -53 0 -98 -6
-120 -15 -20 -8 -54 -15 -75 -15 -22 0 -56 -7 -75 -15 -20 -8 -61 -15 -90 -15
-30 0 -71 -7 -90 -15 -26 -11 -73 -15 -165 -15 -93 0 -140 -4 -165 -15 -43
-18 -179 -20 -227 -4 -24 9 -45 9 -86 -1 l-53 -13 -43 16 c-31 12 -76 17 -156
17 -78 0 -124 5 -149 15 -20 8 -66 15 -105 15 -38 0 -84 7 -105 15 -19 8 -52
15 -72 15 -20 0 -56 6 -81 14 -87 28 -136 38 -210 45 -41 4 -85 13 -97 19 -12
7 -45 12 -74 12 -31 0 -91 12 -144 29 -122 39 -170 51 -240 60 -34 5 -70 13
-82 19 -12 7 -36 12 -53 12 -22 0 -39 9 -58 30 -15 17 -45 48 -66 70 l-39 40
-62 0 -62 0 -41 -38z"/>
</g>
</svg>
