<?xml version="1.0" standalone="no"?>
<!DOCTYPE svg PUBLIC "-//W3C//DTD SVG 20010904//EN"
 "http://www.w3.org/TR/2001/REC-SVG-20010904/DTD/svg10.dtd">
<svg version="1.0" xmlns="http://www.w3.org/2000/svg"
 width="591.000000pt" height="117.000000pt" viewBox="0 0 591.000000 117.000000"
 preserveAspectRatio="xMidYMid meet">
<metadata>
Created by potrace 1.16, written by Peter Selinger 2001-2019
</metadata>
<g transform="translate(0.000000,117.000000) scale(0.100000,-0.100000)"
fill="#000000" stroke="none">
<path d="M0 1138 l0 -33 88 -76 c48 -42 101 -83 119 -92 17 -9 67 -41 110 -71
43 -29 101 -65 128 -79 28 -14 77 -48 110 -76 33 -28 76 -59 96 -70 20 -11 72
-45 116 -75 44 -30 115 -73 159 -96 43 -22 104 -57 134 -76 30 -19 71 -39 90
-44 42 -11 134 -57 208 -104 29 -19 92 -46 140 -61 48 -15 117 -43 153 -61 99
-49 181 -74 246 -74 69 0 95 15 123 70 24 48 25 73 3 91 -9 8 -29 33 -44 57
-15 24 -77 96 -137 160 -61 65 -121 131 -133 147 -13 17 -38 47 -56 68 -18 20
-33 46 -33 56 0 27 56 71 90 71 15 0 44 7 63 15 l36 15 321 0 321 0 36 -15
c28 -12 84 -15 270 -15 185 0 241 -3 270 -15 19 -8 60 -15 90 -15 29 0 70 -7
90 -15 19 -8 53 -15 75 -15 21 0 55 -7 75 -15 20 -8 66 -15 105 -15 38 0 84
-7 105 -15 19 -8 59 -15 87 -15 28 0 71 -6 96 -14 58 -18 124 -35 175 -45 22
-4 56 -12 75 -18 52 -16 119 -33 172 -43 26 -5 56 -13 67 -19 11 -6 45 -11 76
-11 30 0 72 -7 92 -15 19 -8 45 -15 57 -15 11 0 41 -6 66 -14 58 -18 124 -35
175 -45 22 -4 56 -12 75 -18 48 -15 117 -33 165 -42 51 -10 244 -75 283 -95
46 -24 216 -74 284 -83 22 -3 47 -16 64 -34 15 -16 34 -29 41 -29 8 0 44 -18
81 -41 37 -22 79 -43 95 -46 15 -3 30 -10 33 -14 3 -5 23 -9 45 -9 l39 0 0 33
c0 18 -9 52 -20 75 l-21 42 -102 49 c-138 66 -182 83 -399 157 -102 34 -204
72 -227 83 -22 12 -51 21 -64 21 -12 0 -61 13 -107 30 -50 17 -106 30 -135 30
-27 0 -90 13 -140 29 -103 33 -160 49 -227 61 -26 5 -56 13 -67 19 -11 6 -38
11 -61 11 -22 0 -57 7 -77 15 -19 8 -65 15 -102 15 -36 0 -86 6 -111 14 -84
27 -135 38 -186 43 -41 4 -58 11 -80 34 l-28 29 -88 0 c-56 0 -102 6 -125 15
-23 10 -69 15 -135 15 -65 0 -111 5 -135 15 -20 8 -66 15 -105 15 -38 0 -84 7
-105 15 -22 9 -67 15 -120 15 -52 0 -97 6 -120 15 -23 10 -69 15 -135 15 -65
0 -111 5 -135 15 l-35 15 -343 0 -343 0 -35 -15 c-20 -8 -52 -15 -72 -15 -34
0 -135 -29 -180 -52 -11 -6 -41 -31 -67 -56 l-48 -46 0 -37 c0 -24 10 -49 29
-76 16 -23 41 -64 55 -92 17 -33 40 -60 66 -76 22 -14 51 -42 64 -64 14 -21
39 -49 56 -62 70 -54 90 -75 92 -99 l3 -25 -39 -3 c-28 -2 -48 3 -76 22 -47
31 -236 126 -251 126 -17 0 -145 65 -209 106 -30 19 -66 37 -80 41 -26 6 -116
56 -211 117 -30 20 -62 36 -70 36 -8 0 -55 27 -104 60 -50 33 -97 60 -106 60
-8 0 -26 12 -40 26 -28 30 -358 253 -431 291 -27 14 -55 34 -61 44 -9 15 -24
19 -64 19 l-53 0 0 -32z"/>
</g>
</svg>
