<?xml version="1.0" standalone="no"?>
<!DOCTYPE svg PUBLIC "-//W3C//DTD SVG 20010904//EN"
 "http://www.w3.org/TR/2001/REC-SVG-20010904/DTD/svg10.dtd">
<svg version="1.0" xmlns="http://www.w3.org/2000/svg"
 width="1005.000000pt" height="300.000000pt" viewBox="0 0 1005.000000 300.000000"
 preserveAspectRatio="xMidYMid meet">
<metadata>
Created by potrace 1.16, written by Peter Selinger 2001-2019
</metadata>
<g transform="translate(0.000000,300.000000) scale(0.100000,-0.100000)"
fill="#000000" stroke="none">
<path d="M37 2951 c-9 -27 -17 -74 -17 -104 0 -31 -5 -59 -10 -62 -13 -8 -13
-132 0 -140 6 -3 10 -33 10 -65 l0 -59 45 -92 c25 -51 45 -99 45 -106 0 -25
62 -138 95 -173 18 -19 51 -63 74 -97 46 -68 153 -172 274 -267 117 -92 138
-106 166 -113 14 -3 48 -26 75 -49 49 -43 153 -104 175 -104 7 0 42 -18 79
-40 37 -23 78 -43 92 -47 14 -3 46 -18 71 -34 25 -16 58 -29 73 -29 15 0 52
-11 82 -25 99 -45 324 -112 414 -124 30 -3 69 -16 85 -27 57 -40 114 -64 155
-64 22 0 57 -7 77 -15 20 -8 66 -15 105 -15 38 0 84 -7 105 -15 26 -11 76 -15
194 -15 100 0 168 -4 186 -12 15 -7 84 -16 153 -20 69 -5 152 -11 185 -14 33
-3 161 -7 284 -10 l224 -5 39 15 c21 9 48 16 60 16 12 0 91 -34 175 -75 85
-41 159 -75 166 -75 7 0 32 -14 57 -30 l45 -30 142 0 141 0 44 36 c23 20 60
47 80 60 28 18 48 45 78 104 l40 80 0 57 c0 38 -11 87 -30 143 -17 46 -30 95
-30 107 0 30 -34 99 -69 138 -15 17 -49 64 -76 105 -48 73 -361 408 -413 442
-29 19 -46 44 -35 51 22 14 223 -105 223 -131 0 -4 24 -20 53 -35 28 -14 77
-47 107 -72 30 -25 76 -59 102 -76 26 -17 57 -44 69 -60 11 -16 48 -43 81 -60
33 -17 95 -64 141 -107 45 -43 101 -91 125 -107 24 -16 62 -45 85 -65 23 -21
61 -47 84 -59 23 -11 50 -33 60 -47 43 -61 77 -94 127 -123 30 -16 63 -43 75
-60 12 -16 46 -43 76 -60 30 -17 62 -42 71 -57 10 -14 56 -51 103 -82 47 -31
116 -83 152 -117 59 -53 121 -102 232 -183 18 -13 44 -26 60 -29 15 -3 37 -18
48 -34 11 -16 64 -58 117 -93 56 -38 137 -105 192 -161 105 -106 132 -117 169
-69 12 15 21 33 21 41 0 20 -35 119 -65 185 l-26 58 18 56 c22 69 38 81 179
127 l111 37 392 0 392 0 36 -15 c22 -9 67 -15 120 -15 52 0 97 -6 120 -15 19
-8 53 -15 75 -15 21 0 55 -7 75 -15 19 -8 53 -15 75 -15 21 0 55 -7 75 -15 19
-8 59 -15 87 -15 28 0 71 -6 96 -14 57 -18 124 -35 175 -45 22 -4 76 -19 120
-33 94 -30 152 -46 217 -58 26 -5 56 -13 67 -19 11 -6 37 -11 58 -11 41 0 157
-36 222 -69 22 -12 51 -21 63 -21 36 0 248 -75 328 -115 39 -20 90 -49 112
-66 23 -16 49 -29 58 -29 9 0 35 -13 56 -30 21 -16 60 -44 86 -62 26 -17 52
-42 59 -55 l13 -24 65 3 66 3 3 28 3 28 -90 85 c-116 110 -240 194 -284 194
-8 0 -83 34 -166 75 -84 41 -163 75 -177 75 -13 0 -41 7 -61 15 -19 8 -45 15
-56 15 -11 0 -101 27 -201 59 -228 74 -254 81 -346 91 -41 4 -106 20 -145 34
-38 14 -88 26 -110 26 -23 0 -66 13 -103 30 -35 17 -75 30 -88 30 -14 0 -41 7
-61 15 -23 10 -69 15 -135 15 -65 0 -111 5 -135 15 -20 8 -66 15 -105 15 -38
0 -84 7 -105 15 -22 9 -67 15 -120 15 -52 0 -97 6 -120 15 l-35 15 -342 0
-341 0 -85 -30 c-46 -17 -94 -30 -107 -30 -13 0 -59 -18 -102 -39 -80 -41
-141 -97 -141 -131 0 -33 -35 -43 -78 -23 -45 21 -154 95 -200 134 -18 16 -42
29 -54 29 -12 0 -39 19 -62 44 -50 53 -123 106 -147 106 -10 0 -27 14 -39 30
-12 17 -60 56 -107 87 -48 31 -118 84 -157 118 -39 33 -91 76 -116 95 -25 18
-63 53 -86 77 -24 25 -50 43 -63 43 -15 0 -31 16 -56 55 -33 52 -91 95 -127
95 -8 0 -31 20 -52 45 -21 25 -55 57 -77 71 -22 13 -64 46 -94 72 -30 26 -82
67 -117 92 -34 25 -82 66 -107 91 -46 46 -97 79 -124 79 -8 0 -27 16 -41 35
-15 19 -51 47 -79 61 -29 15 -74 44 -102 65 -27 22 -75 58 -105 82 -30 23 -76
55 -101 69 -25 15 -58 43 -73 62 -15 20 -39 39 -54 42 -34 8 -113 56 -172 104
-25 21 -78 54 -118 75 -40 21 -83 53 -98 72 -14 18 -44 43 -66 54 l-41 21 -39
-18 c-84 -38 -98 -95 -47 -197 37 -74 56 -97 80 -97 10 0 38 -28 66 -66 29
-40 69 -80 101 -100 33 -22 52 -41 52 -53 0 -12 23 -37 59 -65 67 -52 236
-218 252 -248 13 -25 -4 -48 -37 -48 -14 0 -57 -16 -97 -36 -87 -43 -235 -183
-273 -257 l-25 -49 4 -96 c2 -54 13 -125 23 -160 l19 -64 -20 -14 -20 -15
-280 5 c-154 2 -300 7 -325 10 -25 3 -97 9 -160 14 -63 4 -125 13 -137 20 -12
7 -59 12 -108 12 -53 0 -99 6 -122 15 -22 9 -67 15 -120 15 -52 0 -97 6 -120
15 -19 8 -54 15 -77 15 -28 0 -71 15 -134 45 -52 25 -105 45 -118 45 -14 0
-41 7 -61 15 -19 8 -53 15 -75 15 -23 0 -67 13 -105 30 -35 17 -69 30 -74 30
-6 0 -36 12 -66 26 -31 14 -91 36 -132 50 -87 28 -114 40 -156 70 -16 12 -59
37 -95 54 -36 18 -108 61 -160 95 -52 35 -115 74 -140 87 -25 14 -57 43 -73
66 -16 24 -46 51 -67 62 -61 31 -206 183 -242 253 -17 34 -48 82 -69 107 -50
59 -69 107 -69 173 0 30 -7 71 -15 90 -11 28 -15 78 -15 212 l0 175 -53 0 -52
0 -18 -49z m4047 -1257 c22 -20 53 -47 67 -59 29 -27 69 -134 69 -186 -1 -82
-77 -179 -141 -179 -15 0 -43 -7 -62 -15 -20 -8 -60 -15 -89 -15 -29 0 -72 -7
-95 -16 l-43 -17 -37 34 c-21 19 -47 41 -59 49 -42 31 -54 61 -54 135 0 80 4
88 89 180 l54 60 91 31 c125 44 158 43 210 -2z m300 -490 c22 -21 20 -51 -8
-109 -35 -73 -47 -85 -106 -106 l-54 -19 -61 20 c-79 27 -125 52 -125 67 0 15
36 33 115 58 33 11 74 31 90 46 61 56 120 73 149 43z"/>
</g>
</svg>
