<?xml version="1.0" standalone="no"?>
<!DOCTYPE svg PUBLIC "-//W3C//DTD SVG 20010904//EN"
 "http://www.w3.org/TR/2001/REC-SVG-20010904/DTD/svg10.dtd">
<svg version="1.0" xmlns="http://www.w3.org/2000/svg"
 width="480.000000pt" height="213.000000pt" viewBox="0 0 480.000000 213.000000"
 preserveAspectRatio="xMidYMid meet">
<metadata>
Created by potrace 1.16, written by Peter Selinger 2001-2019
</metadata>
<g transform="translate(0.000000,213.000000) scale(0.100000,-0.100000)"
fill="#000000" stroke="none">
<path d="M815 2121 c-6 -5 -39 -11 -75 -14 -75 -5 -101 -12 -308 -78 -208 -67
-304 -134 -366 -255 -15 -29 -36 -60 -46 -69 l-20 -18 0 -118 c0 -68 4 -120
10 -124 6 -3 10 -14 10 -23 0 -10 11 -34 25 -55 14 -20 37 -72 51 -115 27 -83
47 -110 108 -149 22 -14 70 -53 107 -87 37 -33 87 -76 113 -94 25 -18 60 -53
78 -77 18 -25 63 -83 100 -128 37 -45 82 -106 99 -135 17 -29 46 -64 64 -78
18 -14 49 -56 69 -93 20 -39 51 -80 71 -95 19 -15 47 -51 61 -79 15 -29 62
-89 105 -134 44 -46 79 -87 79 -93 0 -5 13 -10 30 -10 31 0 50 22 50 60 0 38
-85 191 -146 260 -12 14 -46 61 -76 105 -29 44 -69 101 -89 125 -45 55 -56 76
-67 128 -7 27 -6 44 1 51 15 15 61 14 104 -4 26 -11 74 -15 179 -15 l144 0 65
21 65 22 50 53 50 53 0 81 c0 62 -5 90 -21 122 -39 77 -100 156 -135 177 -19
11 -44 36 -55 55 -22 38 -105 99 -201 148 -34 17 -78 46 -98 64 -24 22 -48 34
-66 34 -16 0 -49 14 -74 30 -25 16 -51 30 -58 30 -8 0 -40 16 -71 35 -62 38
-181 84 -219 85 -13 0 -49 12 -80 26 -31 14 -67 30 -79 35 -13 5 -23 13 -23
18 0 30 241 141 306 141 12 0 38 7 57 15 26 11 73 15 165 15 93 0 140 4 165
15 l36 15 321 0 321 0 36 -15 c28 -12 82 -15 255 -15 172 0 226 -3 255 -15 19
-8 58 -15 86 -15 29 0 91 -13 142 -29 134 -43 172 -52 255 -60 41 -4 85 -13
97 -19 12 -7 63 -12 119 -12 l98 0 91 -29 c103 -33 160 -49 227 -61 26 -5 56
-13 67 -19 11 -6 38 -11 61 -11 22 0 57 -7 77 -15 19 -8 45 -15 56 -15 11 0
82 -20 156 -44 145 -47 199 -62 271 -76 25 -5 69 -20 97 -34 29 -14 59 -26 65
-26 7 0 33 -14 58 -30 25 -16 51 -30 58 -30 8 0 41 -13 75 -28 34 -16 73 -32
87 -35 35 -9 100 -66 135 -119 67 -99 106 -124 156 -98 l19 11 0 72 0 72 -46
52 c-31 36 -57 56 -83 63 -20 5 -55 25 -77 43 -51 44 -144 91 -246 124 -44 14
-116 43 -160 64 -43 22 -90 39 -104 39 -13 0 -41 7 -61 15 -19 8 -45 15 -56
15 -11 0 -82 20 -156 44 -148 48 -201 63 -273 76 -26 5 -56 13 -67 19 -11 6
-50 11 -87 11 -54 0 -95 9 -201 45 -104 35 -146 45 -198 45 -36 0 -82 7 -102
15 -19 8 -60 15 -90 15 -29 0 -70 7 -90 15 -19 8 -60 15 -90 15 -29 0 -70 7
-90 15 -19 8 -53 15 -75 15 -21 0 -55 7 -75 15 -19 8 -60 15 -90 15 -29 0 -70
7 -90 15 -26 11 -75 15 -184 15 -88 0 -150 4 -154 10 -8 13 -1027 14 -1040 1z
m-358 -560 c68 -22 133 -41 145 -41 13 0 40 -11 61 -25 54 -37 226 -121 265
-130 22 -4 58 -31 105 -76 40 -38 78 -69 85 -69 15 0 97 -66 151 -120 45 -45
106 -173 94 -195 -5 -9 -31 -31 -58 -50 l-49 -35 -53 0 c-30 0 -70 7 -90 15
-19 8 -52 15 -72 15 -40 0 -126 27 -209 66 -29 13 -58 24 -65 24 -38 1 -161
84 -197 133 -66 89 -129 192 -136 220 -9 45 -32 86 -70 129 -33 37 -65 92 -78
134 -7 24 18 58 38 51 6 -2 66 -23 133 -46z"/>
<path d="M1365 590 c-11 -5 -41 -9 -66 -9 -69 -1 -105 -55 -61 -93 47 -42 67
-45 362 -47 219 -2 292 -6 318 -17 80 -33 162 -10 162 45 0 33 -52 81 -89 81
-16 0 -42 6 -58 12 -18 8 -111 15 -253 19 -124 4 -241 10 -260 13 -19 3 -44 1
-55 -4z"/>
</g>
</svg>
