<?xml version="1.0" standalone="no"?>
<!DOCTYPE svg PUBLIC "-//W3C//DTD SVG 20010904//EN"
 "http://www.w3.org/TR/2001/REC-SVG-20010904/DTD/svg10.dtd">
<svg version="1.0" xmlns="http://www.w3.org/2000/svg"
 width="612.000000pt" height="207.000000pt" viewBox="0 0 612.000000 207.000000"
 preserveAspectRatio="xMidYMid meet">
<metadata>
Created by potrace 1.16, written by Peter Selinger 2001-2019
</metadata>
<g transform="translate(0.000000,207.000000) scale(0.100000,-0.100000)"
fill="#000000" stroke="none">
<path d="M0 2021 l0 -49 24 -6 c14 -3 59 -38 100 -76 42 -39 83 -70 92 -70 16
0 78 -48 178 -141 34 -30 74 -64 91 -74 16 -10 50 -37 75 -60 25 -22 59 -49
75 -60 17 -10 57 -44 90 -75 33 -31 76 -67 96 -80 20 -13 46 -39 60 -58 13
-19 41 -46 64 -59 22 -14 59 -47 82 -73 24 -26 66 -61 95 -78 29 -16 68 -48
86 -71 19 -23 52 -53 75 -68 23 -14 75 -58 115 -97 40 -39 99 -84 130 -101 36
-19 67 -46 87 -75 23 -33 44 -49 76 -60 32 -11 51 -27 72 -58 27 -41 106 -92
141 -92 8 0 24 -13 35 -29 24 -33 112 -96 188 -135 28 -14 65 -43 83 -66 17
-22 38 -40 47 -40 8 0 44 -13 80 -30 l64 -30 107 0 c122 0 140 7 172 70 33 65
25 96 -53 195 -23 30 -62 81 -87 115 -51 70 -85 107 -124 133 -14 10 -29 30
-32 45 -4 15 -20 48 -36 74 -23 37 -27 51 -19 66 12 23 70 52 104 52 13 0 41
7 60 15 l36 15 291 0 291 0 36 -15 c19 -8 59 -15 87 -15 28 0 71 -6 96 -14 60
-19 125 -35 182 -46 26 -5 56 -13 67 -19 11 -6 52 -11 91 -11 40 0 86 -6 107
-15 23 -10 69 -15 132 -15 55 0 115 -6 141 -14 76 -24 132 -37 195 -46 33 -5
92 -20 130 -34 39 -14 87 -26 108 -26 21 0 54 -7 74 -15 19 -8 52 -15 72 -15
20 0 75 -13 121 -30 47 -16 94 -30 105 -30 10 0 60 -13 110 -29 103 -33 160
-49 227 -61 26 -5 56 -13 67 -19 11 -6 32 -11 48 -11 16 0 45 -11 65 -25 19
-13 91 -42 158 -64 67 -23 134 -49 148 -60 15 -10 50 -31 77 -45 94 -51 180
-111 233 -163 l53 -53 40 0 39 0 0 64 0 65 -41 28 c-23 15 -64 46 -93 68 -100
77 -146 106 -193 120 -27 8 -64 26 -83 40 -52 40 -126 75 -155 75 -14 0 -42 7
-62 15 -19 8 -46 15 -60 15 -13 0 -49 11 -79 25 -99 45 -320 111 -419 125 -33
5 -91 20 -130 34 -38 14 -79 26 -90 26 -10 0 -60 13 -110 29 -140 45 -173 53
-270 61 -49 4 -103 12 -120 18 -52 18 -118 33 -175 41 -30 4 -71 12 -90 18
-76 24 -128 35 -200 42 -41 4 -85 13 -97 19 -12 7 -54 12 -93 12 -40 0 -86 6
-107 15 -20 8 -66 15 -104 15 -37 0 -80 6 -96 12 -17 8 -110 15 -243 20 -257
8 -220 8 -410 2 l-155 -4 -112 -37 -113 -36 -50 -53 -50 -53 0 -38 c0 -28 11
-53 43 -99 83 -119 113 -158 159 -205 26 -26 56 -65 67 -87 12 -23 37 -53 56
-68 25 -18 35 -34 33 -48 -5 -32 -34 -31 -86 2 -26 17 -61 33 -79 37 -31 6
-174 95 -223 139 -14 12 -38 31 -55 41 -16 10 -60 47 -97 82 -37 34 -76 63
-86 63 -11 0 -32 16 -46 35 -15 20 -54 49 -86 65 -33 17 -69 43 -81 60 -22 28
-108 100 -179 148 -19 13 -60 47 -90 76 -30 29 -72 63 -92 76 -20 14 -49 44
-64 68 -16 24 -52 60 -83 80 -31 20 -76 57 -101 82 -25 25 -58 54 -75 65 -16
10 -60 47 -97 82 -37 34 -75 63 -84 63 -9 0 -42 27 -72 61 -31 33 -73 72 -95
86 -22 14 -61 44 -86 67 -25 24 -80 64 -121 91 -41 27 -88 61 -105 76 -16 14
-53 38 -80 52 -49 25 -105 72 -105 88 0 5 -25 9 -55 9 l-55 0 0 -49z"/>
</g>
</svg>
