<?xml version="1.0" standalone="no"?>
<!DOCTYPE svg PUBLIC "-//W3C//DTD SVG 20010904//EN"
 "http://www.w3.org/TR/2001/REC-SVG-20010904/DTD/svg10.dtd">
<svg version="1.0" xmlns="http://www.w3.org/2000/svg"
 width="384.000000pt" height="306.000000pt" viewBox="0 0 384.000000 306.000000"
 preserveAspectRatio="xMidYMid meet">
<metadata>
Created by potrace 1.16, written by Peter Selinger 2001-2019
</metadata>
<g transform="translate(0.000000,306.000000) scale(0.100000,-0.100000)"
fill="#000000" stroke="none">
<path d="M845 3050 c-3 -6 -51 -10 -109 -10 -69 0 -115 -5 -139 -15 -20 -8
-53 -15 -74 -15 -47 0 -158 -39 -220 -77 -26 -15 -65 -35 -87 -43 -28 -11 -50
-30 -75 -66 -20 -29 -55 -72 -79 -98 l-42 -46 0 -49 c0 -27 -4 -53 -10 -56
-13 -8 -13 -162 0 -170 6 -3 10 -26 10 -50 0 -27 11 -66 30 -107 16 -34 30
-70 30 -78 0 -8 13 -28 28 -45 16 -16 37 -57 47 -90 11 -34 33 -75 51 -95 18
-19 64 -84 104 -143 40 -59 83 -115 97 -124 14 -9 38 -40 54 -68 16 -29 53
-74 83 -101 29 -27 63 -68 75 -92 12 -24 38 -52 61 -67 22 -14 47 -37 57 -52
9 -16 69 -78 133 -139 142 -137 166 -162 209 -214 18 -22 45 -43 60 -47 14 -3
50 -33 80 -65 30 -33 72 -71 93 -84 21 -13 63 -46 93 -72 30 -26 82 -67 115
-92 34 -25 89 -66 122 -92 34 -27 69 -48 78 -48 9 0 36 -15 60 -33 23 -17 68
-48 100 -67 166 -100 197 -120 219 -144 14 -14 32 -26 40 -26 9 0 43 -13 76
-28 33 -16 71 -32 85 -35 14 -3 47 -24 74 -47 l48 -40 48 0 c27 0 52 -4 55
-10 3 -6 47 -10 98 -10 l92 1 -25 20 c-55 45 -277 169 -302 169 -13 0 -50 19
-147 75 -60 34 -347 220 -404 262 -111 80 -141 103 -205 155 -39 32 -74 63
-77 68 -4 6 -25 23 -48 37 -23 14 -76 58 -117 98 -41 39 -87 79 -103 88 -15
10 -38 34 -51 55 -13 21 -43 50 -67 65 -24 16 -56 45 -70 65 -15 21 -88 101
-162 179 -75 78 -141 152 -148 164 -6 12 -39 55 -73 96 -33 41 -76 97 -94 125
-17 29 -47 68 -66 88 -39 40 -117 154 -148 213 -11 23 -35 63 -53 89 -19 26
-37 63 -40 80 -4 18 -16 51 -27 72 -32 64 -58 146 -69 221 -13 84 -13 106 -4
165 l8 45 71 72 c50 51 78 73 96 73 14 0 63 14 110 30 46 17 94 30 106 30 12
0 38 7 57 15 27 11 75 15 180 15 106 0 154 4 180 15 20 8 52 15 72 15 20 0 52
-7 72 -15 25 -11 72 -15 165 -15 92 0 139 -4 165 -15 19 -8 60 -15 90 -15 29
0 70 -7 90 -15 22 -9 67 -15 120 -15 52 0 97 -6 120 -15 20 -8 66 -15 105 -15
38 0 84 -7 105 -15 19 -8 45 -15 56 -15 12 0 62 -13 112 -29 120 -39 168 -51
240 -61 33 -5 92 -20 130 -34 39 -14 81 -26 95 -26 14 0 50 -12 80 -26 30 -14
108 -43 173 -65 65 -21 132 -48 147 -59 16 -11 49 -27 74 -34 54 -16 181 -99
202 -132 9 -13 42 -43 73 -66 75 -56 219 -212 227 -246 10 -42 33 -62 71 -62
l33 0 0 66 0 66 -25 30 c-14 16 -25 36 -25 44 0 30 -41 93 -78 120 -21 15 -51
45 -66 66 -17 24 -50 50 -87 69 -33 16 -76 45 -97 63 -43 39 -391 216 -425
216 -13 0 -61 13 -107 30 -47 16 -96 30 -110 30 -14 0 -45 14 -70 30 -25 16
-56 30 -70 30 -14 0 -45 6 -70 14 -93 29 -137 38 -225 46 -55 5 -117 18 -160
34 -38 14 -86 26 -105 26 -19 0 -55 6 -80 14 -87 28 -136 38 -210 45 -41 4
-85 13 -97 19 -14 8 -82 12 -202 12 -109 0 -182 4 -186 10 -4 6 -98 10 -250
10 -152 0 -246 -4 -250 -10z"/>
</g>
</svg>
