<?xml version="1.0" standalone="no"?>
<!DOCTYPE svg PUBLIC "-//W3C//DTD SVG 20010904//EN"
 "http://www.w3.org/TR/2001/REC-SVG-20010904/DTD/svg10.dtd">
<svg version="1.0" xmlns="http://www.w3.org/2000/svg"
 width="1179.000000pt" height="210.000000pt" viewBox="0 0 1179.000000 210.000000"
 preserveAspectRatio="xMidYMid meet">
<metadata>
Created by potrace 1.16, written by Peter Selinger 2001-2019
</metadata>
<g transform="translate(0.000000,210.000000) scale(0.100000,-0.100000)"
fill="#000000" stroke="none">
<path d="M0 2051 l0 -49 30 -7 c17 -4 52 -22 78 -40 55 -38 185 -105 203 -105
7 0 42 -13 78 -29 163 -71 297 -120 326 -121 27 0 244 -74 294 -99 22 -12 51
-21 63 -21 13 0 43 -6 68 -14 87 -28 136 -38 210 -45 50 -5 92 -16 127 -34 29
-15 64 -27 78 -27 14 0 42 -7 62 -15 19 -8 53 -15 75 -15 21 0 55 -7 75 -15
19 -8 60 -15 90 -15 29 0 70 -7 90 -15 22 -9 67 -15 120 -15 52 0 97 -6 120
-15 24 -10 71 -15 150 -15 78 0 125 -5 150 -15 l35 -15 397 0 c235 0 422 5
461 11 36 6 90 14 120 18 30 4 68 13 83 19 16 7 45 12 66 12 21 0 55 7 74 15
20 8 56 15 80 15 33 0 54 8 84 29 23 16 64 41 91 55 37 19 61 41 88 82 71 107
144 129 220 67 73 -59 95 -71 176 -97 58 -18 99 -39 132 -66 27 -22 56 -40 65
-40 9 0 43 -13 76 -28 33 -16 71 -32 85 -35 14 -3 43 -22 65 -40 42 -36 115
-77 137 -77 27 0 154 -69 202 -109 26 -23 55 -41 63 -41 13 0 85 -40 203 -112
30 -19 82 -43 115 -53 33 -10 74 -31 90 -46 35 -32 136 -83 182 -93 18 -4 58
-25 89 -46 31 -21 71 -41 89 -44 18 -4 53 -24 78 -46 25 -22 51 -40 59 -40 28
0 177 -79 216 -114 22 -20 46 -36 53 -36 20 0 134 -56 172 -84 38 -28 171 -96
189 -96 7 0 33 -14 58 -30 25 -16 52 -30 60 -30 9 0 32 -11 51 -24 64 -44 149
-66 251 -66 l92 0 91 -29 c134 -43 172 -52 255 -60 41 -4 85 -13 97 -19 12 -7
55 -12 97 -12 41 0 78 -5 81 -10 8 -13 388 -14 413 -1 9 5 46 21 82 37 67 30
168 92 208 128 13 12 44 51 69 88 l45 67 -5 68 c-4 66 -14 110 -43 203 -8 25
-14 61 -14 81 0 20 -7 53 -15 72 -8 20 -15 61 -15 92 l0 56 25 24 c14 15 36
25 53 25 16 0 46 7 65 15 24 10 70 15 135 15 66 0 112 5 135 15 46 19 128 19
174 0 24 -10 71 -15 150 -15 78 0 125 -5 150 -15 20 -8 66 -15 105 -15 38 0
84 -7 105 -15 20 -8 66 -15 105 -15 38 0 84 -7 105 -15 19 -8 47 -15 62 -15
14 0 51 -12 81 -26 70 -33 203 -73 305 -93 63 -12 133 -39 173 -66 20 -14 43
-25 52 -25 8 0 40 -12 70 -26 30 -14 93 -38 140 -53 92 -30 158 -61 205 -96
17 -13 77 -46 135 -75 58 -29 125 -69 150 -89 24 -20 65 -49 91 -66 55 -35
144 -104 204 -158 l42 -37 47 0 46 0 0 58 0 59 -22 12 c-13 7 -36 30 -51 52
-18 25 -50 50 -87 69 -33 17 -76 45 -96 62 -35 32 -58 47 -174 113 -29 17 -77
47 -109 67 -31 21 -63 38 -72 38 -23 0 -189 83 -239 119 -26 19 -55 31 -74 31
-17 0 -56 12 -86 26 -30 14 -93 38 -140 53 -47 16 -100 35 -117 44 -55 29
-216 74 -308 87 -33 5 -91 20 -130 34 -38 14 -86 26 -105 26 -20 0 -74 13
-120 30 -53 18 -105 30 -138 30 -29 0 -69 7 -89 15 -22 9 -67 15 -120 15 -52
0 -97 6 -120 15 -45 19 -81 19 -126 0 -29 -12 -83 -15 -252 -15 l-216 0 -61
-21 c-120 -40 -166 -75 -207 -156 -17 -34 -21 -61 -21 -132 l0 -90 24 -53 c49
-105 66 -169 66 -250 l0 -79 -67 -66 c-82 -80 -146 -113 -224 -113 -31 0 -73
-7 -92 -15 -47 -19 -206 -20 -267 -1 -100 32 -140 39 -255 46 -122 8 -192 25
-210 54 -6 10 -5 29 4 58 25 78 25 187 1 258 -28 82 -40 105 -113 215 -81 121
-89 129 -186 193 -46 30 -98 67 -115 82 -17 15 -45 34 -61 43 -42 21 -150 57
-173 57 -10 0 -56 13 -102 30 l-85 30 -103 0 -102 0 -73 -36 c-39 -20 -96 -54
-124 -75 l-53 -40 0 -48 c0 -27 7 -65 15 -84 21 -50 20 -127 -1 -127 -24 0
-174 72 -223 108 -24 18 -51 32 -60 32 -28 0 -133 55 -226 119 -49 33 -97 61
-105 61 -8 0 -28 9 -45 21 -40 27 -242 129 -255 129 -12 0 -111 56 -201 114
-30 20 -62 36 -70 36 -8 0 -27 9 -44 21 -40 27 -242 129 -255 129 -11 0 -102
52 -200 113 -32 20 -74 37 -99 40 -29 4 -55 16 -80 37 -20 17 -49 39 -65 48
-15 9 -54 34 -85 54 l-56 38 -68 0 -69 0 -29 -29 -29 -29 0 -48 c0 -33 -10
-68 -34 -118 -49 -101 -79 -124 -181 -137 -62 -8 -117 -20 -195 -45 -25 -8
-82 -14 -126 -14 -50 0 -95 -6 -117 -15 l-36 -15 -351 0 -351 0 -36 15 c-23
10 -69 15 -135 15 -65 0 -111 5 -135 15 -20 8 -66 15 -105 15 -38 0 -84 7
-105 15 -19 8 -60 15 -90 15 -29 0 -70 7 -90 15 -22 9 -67 15 -120 15 -52 0
-97 6 -120 15 -19 8 -45 15 -56 15 -12 0 -81 20 -154 45 -73 25 -147 45 -165
45 -18 0 -53 6 -78 14 -59 19 -125 36 -176 45 -22 4 -54 17 -70 28 -32 23
-141 63 -171 63 -30 0 -247 76 -312 110 -34 16 -100 43 -149 59 -91 29 -166
64 -177 81 -3 5 -31 10 -61 10 l-54 0 0 -49z m6627 -996 c19 -8 45 -15 57 -15
37 0 160 -47 277 -105 133 -67 226 -151 277 -250 17 -33 40 -73 51 -90 l21
-30 0 -118 0 -117 -26 -12 -26 -12 -48 17 c-26 9 -58 17 -72 17 -13 0 -40 12
-61 26 -21 14 -58 31 -83 39 -25 7 -69 29 -97 48 -29 20 -66 38 -84 42 -17 3
-51 23 -75 44 -24 21 -62 48 -84 59 -100 51 -231 210 -261 318 l-15 53 18 32
c38 64 146 89 231 54z"/>
</g>
</svg>
