<?xml version="1.0" standalone="no"?>
<!DOCTYPE svg PUBLIC "-//W3C//DTD SVG 20010904//EN"
 "http://www.w3.org/TR/2001/REC-SVG-20010904/DTD/svg10.dtd">
<svg version="1.0" xmlns="http://www.w3.org/2000/svg"
 width="579.000000pt" height="246.000000pt" viewBox="0 0 579.000000 246.000000"
 preserveAspectRatio="xMidYMid meet">
<metadata>
Created by potrace 1.16, written by Peter Selinger 2001-2019
</metadata>
<g transform="translate(0.000000,246.000000) scale(0.100000,-0.100000)"
fill="#000000" stroke="none">
<path d="M2465 2451 c-6 -6 -73 -12 -150 -14 -77 -2 -160 -9 -185 -16 -178
-51 -199 -60 -290 -122 -66 -45 -75 -55 -129 -134 l-41 -60 0 -88 c0 -108 38
-232 88 -289 20 -24 59 -23 72 1 15 29 12 93 -6 136 l-15 37 15 47 c8 25 18
62 21 82 5 32 40 82 120 170 28 30 104 59 185 70 57 8 114 21 190 45 36 11
129 14 453 14 l408 0 36 -15 c19 -8 53 -15 75 -15 21 0 55 -7 75 -15 23 -10
69 -15 135 -15 65 0 111 -5 135 -15 20 -8 66 -15 105 -15 38 0 84 -7 105 -15
19 -8 53 -15 75 -15 21 0 55 -7 75 -15 19 -8 53 -15 75 -15 21 0 55 -7 75 -15
19 -8 47 -15 60 -15 14 0 54 -13 90 -30 l64 -30 82 0 c81 0 179 -25 256 -64
42 -22 195 -67 286 -85 65 -13 126 -37 190 -75 33 -20 75 -41 95 -46 19 -5 59
-21 88 -35 28 -14 58 -25 65 -25 8 0 24 -12 38 -26 26 -28 89 -64 112 -64 7 0
24 -12 38 -26 32 -35 91 -64 129 -64 l30 0 0 54 0 54 -47 38 c-69 57 -156 114
-173 114 -8 0 -28 9 -45 21 -40 27 -182 99 -196 99 -6 0 -40 14 -76 30 -35 17
-70 30 -76 30 -7 0 -37 12 -67 26 -70 33 -203 73 -305 93 -22 4 -115 33 -208
64 -92 32 -183 57 -202 57 -20 0 -52 7 -72 15 -20 8 -66 15 -105 15 -38 0 -84
7 -105 15 -19 8 -52 15 -72 15 -20 0 -56 6 -81 14 -78 25 -133 37 -195 45 -34
5 -70 13 -82 19 -12 7 -47 12 -78 12 -30 0 -72 7 -92 15 -27 12 -80 15 -229
15 -118 0 -195 4 -199 10 -8 13 -607 14 -620 1z"/>
<path d="M5239 890 c-65 -34 -149 -169 -149 -240 0 -51 34 -155 64 -195 13
-16 33 -49 45 -73 13 -26 38 -52 64 -68 23 -14 47 -33 54 -41 30 -38 -42 -83
-130 -83 -30 0 -71 -7 -90 -15 -24 -10 -70 -15 -135 -15 -67 0 -112 -5 -137
-15 -29 -13 -44 -14 -69 -5 -23 7 -41 7 -60 0 -43 -16 -240 -13 -283 5 -27 12
-81 15 -240 15 -158 0 -212 3 -240 15 -27 12 -79 15 -225 15 -145 0 -197 3
-225 15 -19 8 -53 15 -75 15 -21 0 -55 7 -75 15 -19 8 -53 15 -75 15 -21 0
-55 7 -75 15 -19 8 -53 15 -75 15 -21 0 -55 7 -75 15 -19 8 -53 15 -75 15 -21
0 -55 7 -75 15 -20 8 -66 15 -105 15 -73 0 -117 14 -173 56 -38 29 -144 64
-190 64 -20 0 -52 7 -72 15 -19 8 -46 15 -60 15 -13 0 -50 12 -80 26 -31 14
-91 36 -132 50 -42 13 -100 36 -129 49 -29 14 -58 25 -65 25 -6 0 -32 14 -57
30 -57 38 -84 38 -121 1 -46 -47 -40 -75 34 -143 34 -32 68 -58 75 -58 20 0
152 -69 152 -79 0 -17 -25 -19 -59 -5 -18 8 -45 14 -59 14 -14 0 -67 13 -117
29 -103 33 -160 49 -227 61 -26 5 -56 13 -67 19 -11 6 -32 11 -48 11 -15 0
-57 14 -91 30 -35 17 -75 30 -88 30 -14 0 -41 7 -61 15 -19 8 -60 15 -90 15
-29 0 -70 7 -90 15 -26 11 -74 15 -180 15 -105 0 -153 4 -180 15 -46 19 -140
19 -186 0 -20 -8 -66 -15 -101 -15 -40 0 -91 -8 -131 -21 -66 -22 -73 -28
-157 -133 -29 -35 -37 -90 -18 -124 5 -9 19 -46 31 -82 38 -119 67 -160 110
-160 40 0 64 37 48 76 -6 16 -15 69 -20 118 l-9 90 27 29 c37 38 102 67 151
67 22 0 56 7 75 15 49 20 215 20 264 0 19 -8 53 -15 75 -15 21 0 55 -7 75 -15
20 -8 66 -15 105 -15 38 0 84 -7 105 -15 19 -8 59 -15 87 -15 53 0 247 -60
325 -99 22 -12 57 -21 77 -21 21 0 118 -27 216 -60 l178 -60 70 0 c90 0 150
29 213 101 l45 52 49 -16 c89 -28 138 -39 208 -46 48 -4 80 -13 100 -28 47
-33 237 -93 295 -93 28 0 67 -7 87 -15 19 -8 59 -15 87 -15 28 0 71 -6 96 -14
98 -31 139 -39 240 -45 58 -4 115 -12 127 -19 12 -7 40 -12 63 -12 22 0 57 -7
77 -15 28 -12 83 -15 259 -15 138 0 225 -4 229 -10 8 -14 672 -14 680 0 4 6
56 10 124 10 83 0 129 5 154 15 20 8 52 15 72 15 46 0 148 34 194 66 19 13 42
24 49 24 26 0 98 43 140 84 93 88 116 178 95 371 -11 98 -39 156 -92 190 -22
13 -54 37 -73 53 -83 73 -199 94 -279 52z m210 -167 c11 -11 35 -63 56 -124
l35 -105 -19 -54 c-10 -29 -25 -57 -34 -61 -8 -5 -34 -2 -63 9 -65 23 -180
137 -190 188 -9 48 1 99 26 134 l21 30 74 0 c55 0 78 -4 94 -17z"/>
</g>
</svg>
