<?xml version="1.0" standalone="no"?>
<!DOCTYPE svg PUBLIC "-//W3C//DTD SVG 20010904//EN"
 "http://www.w3.org/TR/2001/REC-SVG-20010904/DTD/svg10.dtd">
<svg version="1.0" xmlns="http://www.w3.org/2000/svg"
 width="2280.000000pt" height="1284.000000pt" viewBox="0 0 2280.000000 1284.000000"
 preserveAspectRatio="xMidYMid meet">
<metadata>
Created by potrace 1.16, written by Peter Selinger 2001-2019
</metadata>
<g transform="translate(0.000000,1284.000000) scale(0.100000,-0.100000)"
fill="#000000" stroke="none">
<path d="M6337 11932 c-12 -13 -17 -37 -17 -80 l0 -61 -19 -11 c-13 -7 -261
-10 -734 -10 l-714 0 -16 -18 c-12 -13 -17 -37 -17 -80 l0 -61 -19 -11 c-13
-6 -149 -10 -374 -10 l-354 0 -16 -18 c-12 -13 -17 -37 -17 -80 l0 -61 -19
-11 c-13 -6 -144 -10 -359 -10 l-339 0 -16 -18 c-13 -14 -17 -38 -17 -95 l0
-76 -19 -11 c-12 -6 -116 -10 -269 -10 l-249 0 -16 -18 c-12 -13 -17 -37 -17
-80 l0 -61 -19 -11 c-11 -5 -84 -10 -164 -10 l-144 0 -16 -18 c-12 -13 -17
-37 -17 -80 l0 -61 -19 -11 c-11 -5 -44 -10 -74 -10 -75 0 -87 -15 -87 -113
l0 -76 -19 -11 c-11 -6 -88 -10 -179 -10 l-159 0 -16 -18 c-12 -13 -17 -37
-17 -80 l0 -61 -19 -11 c-11 -5 -44 -10 -74 -10 -72 0 -87 -17 -87 -98 l0 -61
-19 -11 c-11 -5 -51 -10 -89 -10 -54 0 -72 -4 -85 -18 l-17 -19 0 -166 0 -166
-19 -11 c-11 -5 -44 -10 -74 -10 -40 0 -58 -5 -70 -18 l-17 -19 0 -256 0 -256
-19 -11 c-11 -5 -44 -10 -74 -10 -40 0 -58 -5 -70 -18 l-17 -19 0 -260 0 -260
18 -16 c12 -11 36 -17 71 -17 29 0 61 -5 72 -10 l19 -11 0 -153 0 -153 18 -16
c12 -11 36 -17 71 -17 29 0 61 -5 72 -10 l19 -11 0 -78 0 -78 18 -16 19 -17
260 0 260 0 16 18 17 19 0 170 0 170 -18 16 c-12 11 -36 17 -71 17 -29 0 -61
5 -72 10 l-19 11 0 348 0 348 -18 16 c-12 11 -36 17 -71 17 -29 0 -61 5 -72
10 l-19 11 0 74 0 74 19 11 c11 5 44 10 74 10 40 0 58 5 70 18 l17 19 0 151 0
151 19 11 c11 5 44 10 74 10 72 0 87 17 87 98 l0 61 19 11 c11 5 51 10 89 10
92 0 102 11 102 113 l0 76 19 11 c11 5 44 10 74 10 72 0 87 17 87 98 l0 61 19
11 c11 5 84 10 164 10 l144 0 16 18 c12 13 17 37 17 80 l0 61 19 11 c11 6 88
10 179 10 l159 0 16 18 c13 14 17 38 17 95 l0 76 19 11 c12 6 116 10 269 10
l249 0 16 18 c12 13 17 37 17 80 l0 61 19 11 c12 6 116 10 269 10 l249 0 16
18 c12 13 17 37 17 80 l0 61 19 11 c13 6 233 10 644 10 l624 0 16 18 c13 14
17 38 17 95 l0 76 19 11 c14 7 755 10 2326 10 1571 0 2312 -3 2326 -10 l19
-11 0 -78 0 -78 18 -16 c13 -12 37 -17 84 -17 88 0 98 12 98 113 l0 76 19 11
c11 5 45 10 76 10 31 0 65 -5 76 -10 l19 -11 0 -78 0 -78 18 -16 19 -17 532 0
c348 0 539 -4 552 -10 l19 -11 0 -63 c0 -48 4 -67 18 -79 l19 -17 517 0 c337
0 524 -4 537 -10 l19 -11 0 -63 c0 -48 4 -67 18 -79 l19 -17 442 0 c286 0 449
-4 462 -10 l19 -11 0 -78 0 -78 18 -16 19 -17 427 0 c275 0 434 -4 447 -10
l19 -11 0 -63 c0 -48 4 -67 18 -79 l19 -17 337 0 c213 0 344 -4 357 -10 l19
-11 0 -63 c0 -48 4 -67 18 -79 l19 -17 352 0 c224 0 359 -4 372 -10 l19 -11 0
-78 0 -78 18 -16 19 -17 337 0 c213 0 344 -4 357 -10 l19 -11 0 -63 c0 -48 4
-67 18 -79 l19 -17 247 0 c151 0 255 -4 267 -10 l19 -11 0 -63 c0 -48 4 -67
18 -79 l19 -17 247 0 c151 0 255 -4 267 -10 l19 -11 0 -63 c0 -48 4 -67 18
-79 l19 -17 232 0 c141 0 240 -4 252 -10 l19 -11 0 -78 0 -78 18 -16 19 -17
247 0 c151 0 255 -4 267 -10 l19 -11 0 -63 c0 -48 4 -67 18 -79 l19 -17 157 0
c89 0 166 -4 177 -10 l19 -11 0 -63 c0 -48 4 -67 18 -79 l19 -17 247 0 c151 0
255 -4 267 -10 l19 -11 0 -78 0 -78 18 -16 19 -17 142 0 c79 0 151 -5 162 -10
l19 -11 0 -63 c0 -48 4 -67 18 -79 l19 -17 157 0 c89 0 166 -4 177 -10 l19
-11 0 -63 c0 -80 15 -96 89 -96 29 0 61 -5 72 -10 l19 -11 0 -78 0 -78 18 -16
c13 -12 37 -17 86 -17 37 0 76 -5 87 -10 l19 -11 0 -63 c0 -48 4 -67 18 -79
l19 -17 155 0 155 0 16 18 c12 13 17 37 17 80 l0 61 19 11 c11 5 44 10 74 10
76 0 87 15 87 117 l0 80 -18 16 c-12 11 -36 17 -71 17 -29 0 -61 5 -72 10
l-19 11 0 63 c0 80 -15 96 -89 96 -29 0 -61 5 -72 10 l-19 11 0 63 c0 48 -4
67 -18 79 l-19 17 -157 0 c-89 0 -166 4 -177 10 l-19 11 0 78 0 78 -18 16
c-12 11 -36 17 -71 17 -29 0 -61 5 -72 10 l-19 11 0 63 c0 48 -4 67 -18 79
l-19 17 -247 0 c-151 0 -255 4 -267 10 l-19 11 0 63 c0 48 -4 67 -18 79 l-19
17 -157 0 c-89 0 -166 4 -177 10 l-19 11 0 78 0 78 -18 16 -19 17 -142 0 c-79
0 -151 5 -162 10 l-19 11 0 63 c0 48 -4 67 -18 79 l-19 17 -247 0 c-151 0
-255 4 -267 10 l-19 11 0 63 c0 48 -4 67 -18 79 l-19 17 -247 0 c-151 0 -255
4 -267 10 l-19 11 0 63 c0 48 -4 67 -18 79 l-19 17 -247 0 c-151 0 -255 4
-267 10 l-19 11 0 78 0 78 -18 16 -19 17 -247 0 c-151 0 -255 4 -267 10 l-19
11 0 63 c0 48 -4 67 -18 79 l-19 17 -337 0 c-213 0 -344 4 -357 10 l-19 11 0
63 c0 48 -4 67 -18 79 l-19 17 -337 0 c-213 0 -344 4 -357 10 l-19 11 0 78 0
78 -18 16 -19 17 -337 0 c-213 0 -344 4 -357 10 l-19 11 0 63 c0 48 -4 67 -18
79 l-19 17 -337 0 c-213 0 -344 4 -357 10 l-19 11 0 63 c0 48 -4 67 -18 79
l-19 17 -442 0 c-286 0 -449 4 -462 10 l-19 11 0 78 0 78 -18 16 -19 17 -622
0 c-410 0 -629 4 -642 10 l-19 11 0 63 c0 48 -4 67 -18 79 l-19 17 -532 0
c-348 0 -539 4 -552 10 l-19 11 0 63 c0 48 -4 67 -18 79 l-19 17 -802 0 c-534
0 -809 3 -822 10 l-19 11 0 63 c0 48 -4 67 -18 79 l-19 17 -350 0 -350 0 -16
-18 c-12 -13 -17 -37 -17 -80 l0 -61 -19 -11 c-11 -5 -45 -10 -76 -10 -31 0
-65 5 -76 10 l-19 11 0 63 c0 48 -4 67 -18 79 l-19 17 -635 0 -635 0 -16 -18
c-12 -13 -17 -37 -17 -80 l0 -61 -19 -11 c-11 -5 -79 -10 -151 -10 -72 0 -140
5 -151 10 l-19 11 0 63 c0 48 -4 67 -18 79 l-19 17 -170 0 -170 0 -16 -18z"/>
<path d="M9727 3622 c-12 -13 -17 -37 -17 -80 l0 -61 -19 -11 c-11 -5 -44 -10
-74 -10 -40 0 -58 -5 -70 -18 l-17 -19 0 -260 0 -260 18 -16 c12 -11 36 -17
71 -17 29 0 61 -5 72 -10 l19 -11 0 -63 c0 -84 13 -96 104 -96 37 0 76 -5 87
-10 l19 -11 0 -168 0 -168 18 -16 c12 -11 36 -17 71 -17 29 0 61 -5 72 -10
l19 -11 0 -63 c0 -80 15 -96 89 -96 29 0 61 -5 72 -10 l19 -11 0 -63 c0 -48 4
-67 18 -79 l19 -17 157 0 c89 0 166 -4 177 -10 l19 -11 0 -78 0 -78 18 -16 19
-17 142 0 c79 0 151 -5 162 -10 l19 -11 0 -59 0 -59 -19 -11 c-27 -14 -2165
-14 -2192 0 l-19 11 0 63 c0 48 -4 67 -18 79 l-19 17 -817 0 c-544 0 -824 3
-837 10 l-19 11 0 78 0 78 -18 16 -19 17 -802 0 c-534 0 -809 3 -822 10 l-19
11 0 63 c0 48 -4 67 -18 79 l-19 17 -637 0 c-420 0 -644 4 -657 10 l-19 11 0
63 c0 48 -4 67 -18 79 l-19 17 -350 0 -350 0 -16 -18 -17 -19 0 -155 0 -155
18 -16 19 -17 157 0 c89 0 166 -4 177 -10 l19 -11 0 -78 0 -78 18 -16 19 -17
427 0 c275 0 434 -4 447 -10 l19 -11 0 -63 c0 -48 4 -67 18 -79 l19 -17 817 0
c544 0 824 -3 837 -10 l19 -11 0 -63 c0 -48 4 -67 18 -79 l19 -17 997 0 c668
0 1004 -3 1017 -10 l19 -11 0 -78 0 -78 18 -16 19 -17 817 0 c544 0 824 -3
837 -10 l19 -11 0 -63 c0 -48 4 -67 18 -79 l19 -17 997 0 c668 0 1004 -3 1017
-10 l19 -11 0 -63 c0 -48 4 -67 18 -79 l19 -17 545 0 545 0 16 18 c12 13 17
37 17 84 0 82 -15 98 -89 98 -29 0 -61 5 -72 10 l-19 11 0 63 c0 48 -4 67 -18
79 l-19 17 -157 0 c-89 0 -166 4 -177 10 l-19 11 0 78 0 78 -18 16 -19 17
-157 0 c-89 0 -166 4 -177 10 l-19 11 0 63 c0 80 -15 96 -89 96 -29 0 -61 5
-72 10 l-19 11 0 63 c0 48 -4 67 -18 79 l-19 17 -142 0 c-79 0 -151 5 -162 10
l-19 11 0 78 0 78 -18 16 -19 17 -157 0 c-89 0 -166 4 -177 10 l-19 11 0 63
c0 48 -4 67 -18 79 l-19 17 -157 0 c-89 0 -166 4 -177 10 l-19 11 0 63 c0 80
-15 96 -89 96 -29 0 -61 5 -72 10 l-19 11 0 78 0 78 -18 16 c-12 11 -36 17
-71 17 -29 0 -61 5 -72 10 l-19 11 0 63 c0 84 -13 96 -104 96 -37 0 -76 5 -87
10 l-19 11 0 63 c0 80 -15 96 -89 96 -29 0 -61 5 -72 10 l-19 11 0 164 0 164
19 11 c11 5 44 10 74 10 72 0 87 17 87 98 l0 61 19 11 c11 5 51 10 89 10 90 0
102 12 102 102 0 50 -4 69 -18 81 l-19 17 -455 0 -455 0 -16 -18z"/>
</g>
</svg>
