<?xml version="1.0" standalone="no"?>
<!DOCTYPE svg PUBLIC "-//W3C//DTD SVG 20010904//EN"
 "http://www.w3.org/TR/2001/REC-SVG-20010904/DTD/svg10.dtd">
<svg version="1.0" xmlns="http://www.w3.org/2000/svg"
 width="1068.000000pt" height="126.000000pt" viewBox="0 0 1068.000000 126.000000"
 preserveAspectRatio="xMidYMid meet">
<metadata>
Created by potrace 1.16, written by Peter Selinger 2001-2019
</metadata>
<g transform="translate(0.000000,126.000000) scale(0.100000,-0.100000)"
fill="#000000" stroke="none">
<path d="M5015 1250 c-3 -5 -14 -10 -24 -10 -10 0 -43 -18 -74 -41 -127 -90
-127 -196 -2 -388 13 -20 25 -52 27 -71 l3 -35 -64 -3 c-37 -2 -83 3 -110 12
-57 18 -124 35 -176 45 -22 4 -76 19 -120 33 -113 37 -161 48 -230 57 -34 5
-70 13 -82 19 -12 7 -66 12 -123 12 -67 0 -113 5 -137 15 -22 9 -67 15 -119
15 -114 0 -202 -29 -249 -81 l-35 -39 0 -52 0 -52 48 -47 c26 -26 62 -65 81
-88 18 -23 45 -44 60 -47 14 -4 46 -19 71 -34 25 -15 58 -31 74 -34 82 -20
113 -86 59 -124 -32 -21 -149 -62 -180 -62 -11 0 -37 -7 -56 -15 -20 -8 -54
-15 -75 -15 -22 0 -56 -7 -75 -15 -21 -8 -67 -15 -105 -15 -39 0 -85 -7 -105
-15 -28 -11 -81 -15 -224 -16 -103 0 -213 -5 -243 -10 -118 -20 -139 -21 -171
-11 -19 6 -117 14 -219 18 l-185 6 -64 29 -63 29 -84 0 c-53 0 -98 6 -121 15
-24 10 -70 15 -147 15 -68 0 -128 5 -156 14 -58 18 -124 35 -175 45 -22 4 -56
12 -75 18 -52 16 -119 33 -172 43 -26 5 -56 13 -67 19 -11 6 -30 11 -43 11
-35 0 -135 37 -177 66 -19 13 -42 24 -49 24 -8 0 -43 13 -79 30 -35 16 -76 30
-89 30 -24 0 -91 35 -214 113 -30 19 -67 37 -82 41 -15 3 -61 36 -102 74 -41
37 -103 88 -137 115 l-62 47 -49 0 -48 0 0 -28 c0 -20 17 -47 61 -96 33 -38
71 -86 85 -107 16 -26 43 -49 82 -68 31 -16 79 -48 106 -70 26 -23 55 -41 64
-41 8 0 36 -13 61 -29 25 -16 57 -31 71 -34 14 -4 47 -24 74 -47 30 -25 58
-40 75 -40 52 0 170 -46 235 -92 21 -16 51 -28 65 -28 15 0 65 -13 111 -30 53
-18 105 -30 138 -30 38 0 73 -9 119 -30 35 -17 74 -30 86 -30 12 0 42 -6 67
-14 98 -31 139 -39 240 -45 58 -4 115 -12 127 -19 14 -8 72 -12 168 -12 107 0
155 -4 182 -15 19 -8 48 -15 64 -15 15 0 31 -4 34 -10 4 -6 163 -10 445 -10
282 0 441 4 445 10 3 6 46 10 94 10 56 0 102 6 124 15 25 10 71 15 147 15 125
0 187 16 305 79 39 21 84 45 100 53 17 9 54 26 83 39 32 14 72 43 102 75 l50
53 0 51 c0 50 -17 98 -48 133 l-15 17 -90 0 c-100 0 -130 10 -214 73 -54 40
-63 60 -43 98 l11 19 55 0 c30 0 71 -7 91 -15 19 -8 60 -15 90 -15 29 0 70 -7
90 -15 19 -8 60 -15 90 -15 29 0 70 -7 90 -15 19 -8 60 -15 90 -15 29 0 70 -7
90 -15 19 -8 52 -15 71 -15 20 0 96 -20 169 -45 88 -30 149 -45 183 -45 28 0
67 -7 87 -15 20 -8 66 -15 105 -15 l70 0 65 -30 c35 -17 69 -30 74 -30 6 0 35
-11 66 -25 30 -14 115 -45 188 -69 72 -24 145 -51 161 -59 52 -27 152 -57 189
-57 20 0 52 -7 72 -15 l35 -15 268 0 268 0 35 15 c20 8 48 15 62 15 43 0 190
86 242 142 23 25 93 222 93 262 0 13 -13 53 -30 88 -23 47 -30 77 -30 121 l0
58 25 24 c14 15 36 25 53 25 16 0 46 7 65 15 l36 15 351 0 351 0 36 -15 c19
-8 60 -15 90 -15 29 0 70 -7 90 -15 20 -8 66 -15 105 -15 38 0 84 -7 105 -15
19 -8 53 -15 75 -15 21 0 55 -7 75 -15 19 -8 53 -15 75 -15 21 0 55 -7 75 -15
22 -9 67 -15 120 -15 52 0 97 -6 120 -15 19 -8 45 -15 57 -15 12 0 60 -13 106
-30 47 -16 101 -30 120 -30 19 0 75 -13 125 -29 122 -39 169 -51 240 -60 33
-5 78 -17 101 -29 23 -12 122 -48 220 -80 99 -33 224 -82 279 -109 55 -28 115
-54 132 -57 18 -4 75 -36 127 -71 52 -35 109 -71 126 -80 17 -9 59 -45 94 -81
66 -68 85 -75 136 -49 20 10 30 23 30 38 0 36 -36 102 -67 122 -15 10 -48 38
-73 61 -25 23 -92 66 -148 94 -57 28 -122 64 -144 80 -23 17 -47 30 -55 30 -8
0 -44 13 -80 30 -35 16 -70 30 -77 30 -7 0 -54 20 -105 45 -51 25 -103 45
-117 45 -14 0 -41 7 -61 15 -19 8 -47 15 -62 15 -14 0 -51 12 -81 26 -83 39
-296 104 -402 124 -26 5 -56 13 -67 19 -11 6 -44 11 -73 11 -29 0 -73 6 -98
14 -60 19 -125 35 -182 46 -26 5 -56 13 -67 19 -11 6 -37 11 -58 11 -21 0 -58
6 -83 14 -105 33 -143 39 -285 45 -90 4 -159 11 -172 19 -13 7 -57 12 -108 12
-53 0 -99 6 -122 15 -22 9 -67 15 -120 15 -52 0 -97 6 -120 15 -28 12 -81 15
-243 15 -162 0 -215 -3 -243 -15 -20 -8 -59 -15 -87 -15 -52 0 -144 -27 -210
-60 -44 -22 -91 -73 -110 -119 l-13 -34 11 -43 c7 -25 12 -59 12 -78 0 -18 7
-50 15 -69 25 -60 19 -135 -16 -205 -35 -72 -59 -90 -154 -122 l-70 -23 -147
1 c-107 1 -157 5 -184 17 -23 9 -67 15 -121 15 -52 0 -97 6 -120 15 -19 8 -52
15 -72 15 -44 0 -140 32 -151 51 -13 20 6 46 37 52 42 8 96 49 104 78 3 15 18
44 33 65 l26 39 0 64 0 64 -29 46 c-16 25 -31 58 -34 72 -11 44 -50 92 -82
101 -17 4 -49 23 -70 41 -39 34 -174 107 -196 107 -6 0 -40 14 -76 30 -35 17
-71 30 -78 30 -8 0 -17 5 -20 10 -4 6 -73 10 -175 10 -102 0 -171 -4 -175 -10z
m352 -145 c90 -30 119 -45 215 -108 61 -41 86 -66 123 -122 l46 -70 -3 -66
c-2 -46 -9 -73 -24 -93 -24 -34 -109 -66 -174 -66 -50 0 -150 31 -190 60 -14
10 -62 37 -108 60 -46 24 -91 54 -100 67 -9 14 -41 52 -71 86 -114 131 -119
209 -18 257 64 30 209 28 304 -5z"/>
</g>
</svg>
