<?xml version="1.0" standalone="no"?>
<!DOCTYPE svg PUBLIC "-//W3C//DTD SVG 20010904//EN"
 "http://www.w3.org/TR/2001/REC-SVG-20010904/DTD/svg10.dtd">
<svg version="1.0" xmlns="http://www.w3.org/2000/svg"
 width="645.000000pt" height="429.000000pt" viewBox="0 0 645.000000 429.000000"
 preserveAspectRatio="xMidYMid meet">
<metadata>
Created by potrace 1.16, written by Peter Selinger 2001-2019
</metadata>
<g transform="translate(0.000000,429.000000) scale(0.100000,-0.100000)"
fill="#000000" stroke="none">
<path d="M305 4280 c-3 -5 -26 -10 -51 -10 -58 0 -112 -28 -191 -99 l-63 -56
0 -223 0 -223 113 -112 c121 -119 198 -182 269 -218 23 -12 57 -32 73 -44 75
-56 246 -125 310 -125 20 0 57 -10 83 -22 26 -12 82 -33 124 -48 l77 -26 39
-44 c47 -55 125 -168 154 -224 24 -47 324 -353 383 -391 22 -15 51 -43 65 -63
44 -66 164 -182 215 -209 28 -14 69 -41 93 -60 91 -74 204 -143 235 -143 7 0
24 -12 38 -26 13 -14 71 -50 129 -79 58 -29 122 -68 143 -87 l38 -33 -17 -55
c-9 -30 -19 -86 -21 -123 l-5 -68 31 -48 c17 -26 31 -53 31 -60 0 -21 31 -74
66 -113 18 -21 45 -61 60 -90 14 -29 46 -73 70 -98 25 -25 64 -65 88 -90 23
-25 54 -53 69 -63 15 -10 31 -33 37 -56 12 -46 33 -66 85 -83 25 -8 47 -25 60
-45 11 -18 29 -47 40 -65 11 -17 32 -35 48 -39 15 -4 51 -31 80 -61 29 -29 81
-68 116 -87 35 -18 100 -58 144 -88 44 -31 94 -59 111 -64 37 -10 101 -72 92
-88 -5 -8 -94 -11 -277 -11 l-270 0 -36 15 c-19 8 -53 15 -75 15 -21 0 -55 7
-75 15 -23 10 -69 15 -130 15 l-94 0 -25 -25 -26 -26 15 -22 c25 -38 128 -66
242 -67 l100 0 45 -30 45 -30 102 0 c56 0 114 -5 130 -11 17 -7 132 -13 288
-16 192 -4 269 -8 294 -19 20 -8 68 -14 122 -14 48 0 91 -4 94 -10 3 -5 27
-10 53 -10 l47 1 28 43 c51 81 29 146 -49 146 -55 0 -135 29 -299 109 -77 37
-151 71 -165 74 -14 3 -43 22 -65 40 -22 19 -56 42 -75 52 -55 27 -190 120
-249 170 -29 25 -57 45 -62 45 -5 0 -33 24 -63 53 -29 28 -74 64 -100 79 l-46
27 0 33 c0 43 -17 67 -72 102 -24 15 -54 44 -68 64 -13 20 -41 55 -61 77 -46
49 -129 175 -129 195 0 9 -11 32 -25 52 -13 20 -34 63 -45 97 l-21 60 16 34
c9 19 29 47 45 62 23 22 30 38 30 65 0 37 -23 70 -49 70 -7 0 -42 18 -79 40
-37 23 -86 46 -110 52 -24 6 -86 39 -137 74 -52 35 -114 73 -137 85 -24 11
-63 38 -88 58 -25 20 -79 59 -120 86 -133 87 -410 357 -482 470 -14 22 -40 54
-58 70 -18 17 -45 47 -61 69 l-28 38 6 43 5 43 -38 12 c-75 25 -103 56 -89
100 5 15 15 19 43 19 20 -1 60 2 87 6 37 5 61 3 89 -9 21 -9 64 -16 95 -16 41
0 72 -8 119 -30 72 -34 103 -37 155 -15 22 9 69 15 119 15 66 0 100 6 168 30
46 17 95 30 107 30 30 0 93 32 156 78 l48 35 65 128 64 129 0 118 0 118 17 24
c26 39 40 46 157 85 l109 37 91 -7 c50 -3 111 -5 136 -4 95 3 248 0 310 -5 36
-4 144 -10 240 -14 108 -4 183 -12 197 -20 12 -6 54 -12 93 -12 40 0 86 -6
107 -15 19 -8 53 -15 75 -15 21 0 55 -7 75 -15 19 -8 53 -15 75 -15 21 0 55
-7 75 -15 19 -8 53 -15 75 -15 21 0 55 -7 75 -15 19 -8 47 -15 62 -15 14 0 55
-14 89 -30 35 -17 80 -30 100 -30 21 0 57 -6 82 -14 86 -27 135 -38 210 -46
78 -9 157 -33 228 -69 23 -12 52 -21 65 -21 12 0 61 -13 107 -30 47 -16 96
-30 110 -30 14 0 67 -20 118 -45 52 -25 98 -45 104 -45 36 0 216 -106 305
-179 17 -14 43 -34 57 -44 14 -10 36 -37 47 -60 40 -80 62 -91 119 -62 l30 16
0 57 0 57 -57 55 c-32 31 -66 68 -76 83 -10 15 -30 30 -45 33 -15 4 -56 24
-92 46 -35 21 -81 43 -102 48 -24 7 -48 24 -68 50 -24 31 -39 40 -62 40 -16 0
-59 14 -95 30 -35 17 -70 30 -76 30 -7 0 -41 14 -75 30 -35 17 -80 30 -100 30
-21 0 -57 6 -82 14 -60 19 -125 35 -181 46 -26 5 -64 17 -86 29 -61 31 -159
61 -198 61 -20 0 -52 7 -72 15 -19 8 -60 15 -90 15 -29 0 -70 7 -90 15 -19 8
-45 15 -57 15 -27 0 -152 43 -205 69 -29 15 -59 21 -111 21 -40 0 -86 6 -107
15 -24 10 -71 15 -150 15 -78 0 -125 5 -150 15 -26 11 -76 15 -194 15 -103 0
-167 4 -186 12 -23 10 -275 25 -493 28 -215 4 -435 -56 -558 -152 -53 -41 -81
-112 -82 -208 -1 -134 -96 -340 -157 -340 -6 0 -40 -13 -75 -29 -50 -22 -84
-30 -160 -35 -54 -3 -109 -11 -124 -16 -14 -6 -56 -10 -93 -10 l-67 0 -29 30
-29 30 -118 0 c-83 0 -129 5 -155 15 -19 8 -60 15 -90 15 -29 0 -70 7 -90 15
-19 8 -47 15 -62 15 -31 0 -51 16 -51 41 0 9 -18 39 -40 65 -23 27 -44 60 -47
74 -3 14 -19 52 -35 85 -15 33 -28 74 -28 91 0 19 -13 49 -35 80 -20 28 -35
61 -35 77 0 16 -11 50 -24 76 -14 25 -30 61 -37 80 -19 52 -102 171 -156 223
-68 66 -163 128 -196 128 -15 0 -44 7 -64 15 -19 8 -48 15 -64 15 -15 0 -31 5
-34 10 -3 6 -28 10 -55 10 -27 0 -52 -4 -55 -10z m82 -165 c19 -8 45 -15 56
-15 44 0 149 -43 165 -68 9 -14 40 -48 67 -77 39 -40 55 -67 73 -122 12 -39
22 -80 22 -91 0 -11 13 -49 30 -84 16 -34 30 -68 30 -75 0 -6 13 -40 30 -75
16 -34 30 -70 30 -78 0 -9 11 -32 25 -52 14 -20 25 -44 25 -52 0 -26 -76 -20
-170 14 -47 16 -96 30 -109 30 -58 0 -267 125 -352 210 -30 30 -68 63 -83 74
-50 33 -67 90 -69 229 l-1 122 19 32 c19 32 44 48 120 77 50 19 49 19 92 1z"/>
</g>
</svg>
