<?xml version="1.0" standalone="no"?>
<!DOCTYPE svg PUBLIC "-//W3C//DTD SVG 20010904//EN"
 "http://www.w3.org/TR/2001/REC-SVG-20010904/DTD/svg10.dtd">
<svg version="1.0" xmlns="http://www.w3.org/2000/svg"
 width="651.000000pt" height="225.000000pt" viewBox="0 0 651.000000 225.000000"
 preserveAspectRatio="xMidYMid meet">
<metadata>
Created by potrace 1.16, written by Peter Selinger 2001-2019
</metadata>
<g transform="translate(0.000000,225.000000) scale(0.100000,-0.100000)"
fill="#000000" stroke="none">
<path d="M965 2240 c-3 -5 -29 -10 -57 -10 l-51 0 -59 -58 -58 -59 0 -66 c0
-36 5 -78 10 -93 6 -15 7 -31 2 -36 -14 -14 -174 42 -207 72 -38 35 -56 44
-149 74 -41 14 -93 37 -113 51 -21 14 -44 25 -53 25 -8 0 -44 14 -78 30 -41
19 -80 30 -108 30 l-44 0 0 -39 0 -39 23 -6 c12 -3 40 -21 62 -39 40 -34 337
-188 385 -200 14 -4 47 -24 74 -47 26 -22 55 -40 64 -40 21 0 198 -86 236
-115 37 -27 161 -90 196 -98 14 -3 52 -29 85 -56 57 -48 240 -151 268 -151 7
0 26 -13 42 -30 16 -16 36 -30 44 -30 9 0 58 -20 109 -45 52 -25 98 -45 104
-45 5 0 39 -13 75 -30 35 -16 81 -30 101 -30 20 0 57 -6 82 -14 78 -25 133
-37 195 -45 34 -5 70 -13 82 -19 12 -7 53 -12 92 -12 38 0 82 -5 98 -12 62
-25 195 -36 273 -23 63 11 95 29 173 98 106 94 141 187 103 278 -7 19 -16 77
-20 129 l-6 96 27 43 28 43 145 49 145 49 333 0 333 0 36 -15 c19 -8 53 -15
75 -15 21 0 55 -7 75 -15 20 -8 66 -15 105 -15 38 0 84 -7 105 -15 23 -10 69
-15 132 -15 55 0 115 -6 141 -14 78 -24 133 -37 195 -45 33 -5 83 -20 112 -35
31 -15 69 -26 93 -26 22 0 57 -7 77 -15 19 -8 59 -15 87 -15 64 0 148 -28 184
-62 34 -33 84 -58 114 -58 26 0 242 -71 285 -94 44 -22 241 -86 266 -86 15 0
35 -14 55 -40 19 -23 46 -43 66 -48 39 -11 155 -86 217 -140 48 -42 99 -72
124 -72 12 0 15 12 15 59 l0 60 -50 42 c-28 23 -53 54 -57 68 -3 14 -11 32
-16 39 -12 15 -141 82 -158 82 -17 0 -80 31 -114 56 -32 24 -321 124 -358 124
-12 0 -42 14 -67 30 -25 16 -58 30 -73 30 -15 0 -44 7 -64 15 -19 8 -47 15
-61 15 -13 0 -64 18 -111 41 -77 36 -219 86 -341 119 -25 7 -85 16 -135 20
-49 4 -103 12 -120 18 -40 14 -109 31 -167 42 -26 5 -56 13 -67 19 -11 6 -38
11 -61 11 -22 0 -57 7 -77 15 -23 10 -69 15 -135 15 -65 0 -111 5 -135 15 -24
10 -71 15 -150 15 -78 0 -125 5 -150 15 -26 11 -76 15 -198 15 -122 0 -172 -4
-198 -15 -25 -10 -71 -15 -147 -15 l-110 0 -107 -36 c-73 -24 -119 -46 -147
-70 -22 -19 -52 -37 -66 -41 -35 -8 -48 -21 -71 -64 l-19 -38 0 -207 0 -206
-16 -28 c-32 -52 -58 -60 -213 -60 -103 0 -151 4 -178 15 -19 8 -54 15 -76 15
-38 0 -127 36 -127 51 0 4 11 27 25 50 32 56 31 66 -5 178 l-31 94 -157 159
c-125 127 -181 176 -273 237 -63 42 -131 83 -150 90 -19 7 -46 19 -61 27 -64
33 -86 43 -138 64 -90 36 -166 58 -233 67 -20 3 -40 9 -43 14 -7 12 -131 11
-139 -1z m245 -180 c47 -16 96 -30 110 -30 14 0 66 -27 115 -60 50 -33 97 -60
105 -60 28 0 155 -91 228 -163 108 -107 232 -301 232 -364 0 -19 -23 -53 -36
-53 -3 0 -21 7 -41 15 -19 8 -53 15 -75 15 -28 0 -58 11 -106 40 -36 22 -82
45 -102 50 -47 13 -136 56 -174 85 -17 13 -68 42 -113 64 -78 39 -108 63 -183
147 -19 21 -57 56 -83 77 -102 82 -163 189 -139 242 l12 25 83 0 83 0 84 -30z"/>
<path d="M279 1684 c-24 -20 -61 -47 -81 -60 -23 -15 -47 -43 -63 -74 l-25
-49 0 -142 0 -141 54 -53 c35 -35 57 -66 61 -87 4 -18 23 -58 43 -88 46 -71
212 -242 279 -287 29 -19 69 -57 89 -84 35 -49 71 -74 125 -89 34 -10 331
-207 390 -259 24 -21 55 -41 69 -44 14 -3 43 -22 65 -40 51 -44 176 -107 212
-107 16 0 48 -14 73 -30 34 -23 57 -30 92 -30 26 0 50 -5 53 -10 3 -6 26 -10
51 -10 l45 0 8 23 c5 12 5 30 -1 40 -12 23 -100 67 -134 67 -15 0 -48 13 -73
29 -25 16 -91 51 -146 77 -55 26 -105 50 -111 53 -15 8 -126 96 -188 149 -28
24 -81 61 -117 82 -36 22 -98 71 -136 109 -39 38 -89 79 -112 90 -22 12 -51
35 -63 52 -13 17 -53 53 -90 81 -45 33 -68 57 -68 70 0 20 -62 86 -113 121
-14 9 -31 33 -36 53 -5 20 -21 50 -34 67 -36 48 -67 113 -67 141 0 14 -5 46
-12 70 l-12 44 17 43 c9 24 42 72 72 107 30 35 55 67 55 71 0 4 -10 23 -23 42
l-23 34 -40 3 -41 3 -44 -37z"/>
</g>
</svg>
