<?xml version="1.0" standalone="no"?>
<!DOCTYPE svg PUBLIC "-//W3C//DTD SVG 20010904//EN"
 "http://www.w3.org/TR/2001/REC-SVG-20010904/DTD/svg10.dtd">
<svg version="1.0" xmlns="http://www.w3.org/2000/svg"
 width="399.000000pt" height="375.000000pt" viewBox="0 0 399.000000 375.000000"
 preserveAspectRatio="xMidYMid meet">
<metadata>
Created by potrace 1.16, written by Peter Selinger 2001-2019
</metadata>
<g transform="translate(0.000000,375.000000) scale(0.100000,-0.100000)"
fill="#000000" stroke="none">
<path d="M978 3723 c-14 -16 -33 -42 -42 -60 -21 -41 -21 -122 0 -151 19 -27
85 -62 116 -62 40 1 141 62 162 99 l19 33 -22 42 c-12 22 -36 60 -54 83 l-32
42 -61 0 -60 1 -26 -27z"/>
<path d="M1405 3265 c-16 -8 -50 -14 -75 -15 -33 0 -67 -12 -125 -43 l-80 -42
-42 -80 -42 -80 -1 -58 c0 -97 54 -234 112 -281 131 -106 208 -156 240 -156 6
0 26 -13 43 -28 23 -21 87 -46 265 -104 354 -114 391 -122 460 -94 22 9 52 16
66 16 52 0 214 105 214 138 0 27 29 62 50 62 11 0 61 -38 112 -85 187 -170
313 -311 328 -364 8 -29 26 -54 65 -88 30 -26 55 -56 55 -66 0 -10 24 -42 53
-71 28 -29 65 -72 81 -97 17 -24 40 -55 52 -69 31 -36 111 -156 135 -202 11
-22 40 -64 64 -94 24 -30 51 -75 58 -102 18 -60 71 -166 105 -211 14 -19 36
-62 48 -95 24 -67 54 -142 90 -226 49 -114 64 -173 64 -250 0 -41 -4 -81 -9
-89 l-9 -14 -34 13 c-18 8 -51 27 -72 42 -22 15 -52 28 -68 28 -17 0 -59 14
-95 30 -50 23 -78 30 -128 30 l-64 0 -36 -31 c-20 -18 -43 -45 -51 -60 -18
-36 -37 -36 -110 0 -33 16 -73 32 -91 35 -17 4 -51 24 -75 45 -44 39 -98 71
-118 71 -7 0 -41 13 -77 30 -35 16 -70 30 -76 30 -7 0 -25 9 -42 21 -42 28
-182 99 -197 99 -6 0 -81 34 -165 75 -85 41 -158 75 -164 75 -6 0 -39 13 -73
29 -34 16 -76 32 -93 35 -18 4 -52 25 -76 47 -29 25 -55 39 -72 39 -39 0 -184
71 -238 117 -25 21 -57 46 -70 55 -13 9 -27 30 -30 45 -7 37 -77 143 -139 211
-27 30 -52 70 -58 92 -8 28 -26 53 -65 87 -30 26 -55 56 -55 66 0 10 -24 42
-52 71 -29 29 -66 72 -83 97 -16 24 -80 97 -142 161 -62 65 -113 122 -113 127
0 17 -53 72 -93 98 -22 14 -61 45 -86 68 -53 49 -82 65 -169 94 -73 25 -126
27 -175 6 -20 -8 -56 -15 -79 -15 -55 0 -82 -19 -113 -80 -14 -27 -29 -51 -35
-55 -12 -8 -13 -89 -1 -113 15 -29 67 -155 77 -186 6 -19 28 -43 60 -65 28
-20 83 -66 122 -103 98 -92 166 -145 231 -178 31 -16 82 -50 115 -77 32 -26
65 -51 72 -55 8 -5 20 -11 28 -15 8 -5 51 -38 96 -75 46 -38 90 -68 98 -68 8
0 36 -13 61 -29 25 -16 58 -31 73 -35 15 -3 39 -22 54 -42 27 -35 76 -66 125
-77 14 -4 59 -36 100 -73 59 -53 77 -75 87 -112 l13 -45 -13 -8 c-7 -5 -49 -9
-93 -9 -73 -1 -154 -19 -193 -43 -18 -12 -72 -122 -72 -147 0 -11 13 -47 29
-79 23 -45 46 -70 106 -117 42 -32 87 -67 99 -77 22 -18 237 -96 265 -97 21 0
149 87 161 110 5 10 10 66 10 125 l0 106 -22 42 c-11 23 -29 69 -39 102 l-19
60 14 13 14 14 67 -31 c36 -17 72 -31 78 -31 7 0 26 -9 42 -21 41 -28 182 -99
196 -99 19 0 199 -89 233 -115 17 -13 67 -35 111 -50 96 -31 176 -67 219 -100
17 -13 66 -35 108 -49 43 -14 95 -37 115 -51 21 -14 44 -25 52 -25 8 0 29 -13
46 -29 16 -16 73 -51 125 -77 52 -26 113 -60 134 -76 21 -15 46 -28 53 -28 25
0 84 -32 173 -92 l85 -58 62 0 c34 0 65 -4 68 -10 4 -6 53 -10 114 -10 l107 0
26 28 c38 40 48 65 48 119 1 26 9 73 20 103 11 30 19 67 20 82 0 15 5 30 10
33 6 3 10 48 10 100 0 52 -4 97 -10 100 -5 3 -10 24 -10 46 0 53 -35 153 -71
203 -16 23 -42 82 -58 132 -20 61 -48 119 -85 175 -31 46 -56 95 -56 109 -1
44 -35 127 -68 164 -17 20 -39 51 -48 69 -25 49 -74 116 -127 176 -27 30 -61
80 -78 112 -16 32 -43 69 -60 81 -16 13 -40 39 -52 58 -11 19 -56 74 -98 122
-43 48 -86 100 -96 115 -9 15 -36 49 -59 74 -23 25 -53 63 -66 85 -14 21 -46
57 -72 79 -59 51 -100 92 -151 151 -22 26 -58 58 -80 72 -22 14 -67 51 -100
82 -33 31 -72 63 -86 72 -14 9 -62 47 -107 85 -77 65 -127 103 -193 148 -83
56 -130 85 -175 109 -27 15 -72 42 -100 60 -46 28 -185 78 -324 116 -70 19
-122 21 -155 5z m230 -176 c95 -31 226 -97 277 -140 25 -21 87 -59 137 -84 70
-36 108 -64 171 -126 l80 -80 0 -37 c0 -36 -26 -102 -52 -132 -36 -43 -60 -50
-173 -50 l-110 0 -117 40 c-64 21 -135 48 -157 59 -22 12 -45 21 -51 21 -7 0
-41 14 -77 30 -35 17 -69 30 -75 30 -5 0 -32 20 -60 44 -44 39 -66 52 -137 86
-8 3 -18 19 -22 34 -4 15 -18 42 -31 59 -14 18 -30 47 -37 65 l-13 32 13 33
c17 43 54 92 87 114 55 36 238 37 347 2z m-1193 -832 c53 -18 75 -32 103 -65
20 -23 61 -58 91 -78 55 -37 104 -95 104 -125 0 -8 12 -26 26 -40 14 -13 40
-48 56 -76 17 -31 47 -65 71 -81 24 -16 46 -40 52 -57 6 -17 41 -66 79 -110
37 -44 72 -90 77 -102 5 -13 18 -42 29 -65 27 -57 25 -66 -7 -37 -16 14 -84
53 -153 87 -99 49 -137 75 -185 122 -32 33 -67 60 -77 60 -9 0 -19 4 -23 10
-7 11 -141 119 -176 142 -14 9 -63 48 -107 87 -45 38 -90 76 -101 83 -31 22
-111 151 -111 179 0 41 31 71 81 79 73 12 101 10 171 -13z m1098 -1536 c5 -11
10 -45 10 -76 0 -109 -31 -120 -146 -50 -40 25 -77 45 -82 45 -4 0 -23 16 -42
35 l-33 34 13 16 12 15 129 0 128 0 11 -19z m2025 -432 c74 -34 94 -59 69 -83
-21 -21 -25 -21 -72 14 -23 17 -46 30 -50 30 -5 0 -17 9 -27 20 l-18 20 13 15
c16 19 9 20 85 -16z"/>
</g>
</svg>
