<?xml version="1.0" standalone="no"?>
<!DOCTYPE svg PUBLIC "-//W3C//DTD SVG 20010904//EN"
 "http://www.w3.org/TR/2001/REC-SVG-20010904/DTD/svg10.dtd">
<svg version="1.0" xmlns="http://www.w3.org/2000/svg"
 width="279.000000pt" height="333.000000pt" viewBox="0 0 279.000000 333.000000"
 preserveAspectRatio="xMidYMid meet">
<metadata>
Created by potrace 1.16, written by Peter Selinger 2001-2019
</metadata>
<g transform="translate(0.000000,333.000000) scale(0.100000,-0.100000)"
fill="#000000" stroke="none">
<path d="M65 3307 c-8 -13 -26 -30 -40 -37 l-25 -13 0 -42 0 -42 43 -46 43
-47 50 0 c59 0 87 17 114 70 32 62 27 83 -32 134 l-53 46 -42 0 c-34 0 -46 -5
-58 -23z"/>
<path d="M339 2955 c-25 -13 -74 -55 -107 -93 l-62 -70 0 -76 0 -77 24 -47
c50 -95 100 -156 140 -170 21 -7 50 -21 65 -31 37 -26 234 -91 276 -91 20 0
52 -7 72 -15 22 -9 67 -15 119 -15 52 0 98 -6 122 -16 31 -12 69 -14 178 -11
131 3 166 9 274 43 52 16 98 18 134 4 27 -10 130 -106 260 -241 24 -24 54 -52
69 -62 16 -10 31 -33 37 -56 7 -27 26 -54 63 -86 28 -26 63 -64 77 -85 14 -20
47 -64 73 -96 26 -33 66 -94 88 -138 22 -43 55 -96 74 -118 20 -25 43 -70 58
-117 14 -42 50 -128 81 -192 31 -64 56 -127 56 -141 0 -14 7 -42 15 -61 8 -20
15 -54 15 -75 0 -22 7 -56 15 -75 12 -29 15 -84 15 -257 l0 -221 -25 -24 c-18
-19 -35 -25 -67 -25 l-44 0 -37 44 c-41 49 -323 244 -373 258 -18 4 -60 33
-93 63 -34 30 -70 55 -79 55 -10 0 -34 20 -54 44 -39 46 -124 109 -199 146
-24 12 -64 39 -89 60 -48 39 -120 80 -143 80 -7 0 -24 12 -38 26 -34 36 -92
64 -134 64 -43 0 -95 -45 -95 -81 0 -13 16 -48 36 -78 69 -108 103 -167 161
-280 39 -77 69 -122 91 -139 19 -14 48 -50 64 -79 17 -29 40 -60 51 -68 42
-29 117 -13 117 26 0 22 -51 129 -84 174 -41 58 -83 172 -67 188 13 13 76 -20
132 -71 30 -26 108 -84 174 -127 66 -44 140 -98 165 -121 25 -23 81 -60 125
-82 44 -22 108 -64 142 -93 33 -30 82 -66 107 -81 30 -18 46 -34 46 -47 0 -23
35 -53 82 -70 18 -7 41 -17 50 -22 10 -5 43 -9 74 -9 l55 0 35 27 c39 29 63
70 93 161 l21 61 0 175 c0 106 4 177 10 181 12 8 13 132 1 139 -5 3 -11 23
-14 43 -13 96 -90 332 -136 418 -63 119 -68 128 -102 204 -19 41 -51 95 -72
120 -21 25 -40 57 -44 71 -11 47 -42 98 -72 119 -16 12 -51 54 -77 94 -26 39
-82 109 -125 153 -43 45 -85 96 -93 113 -9 17 -34 42 -56 56 -22 14 -51 42
-64 63 -26 41 -52 65 -113 106 -22 15 -81 68 -130 117 -67 68 -107 99 -165
129 -43 22 -82 40 -88 40 -10 0 -52 23 -171 95 -117 70 -147 85 -175 85 -24 0
-38 8 -58 35 -34 44 -75 65 -212 108 -179 57 -194 60 -314 63 l-115 4 -46 -25z
m317 -140 c90 -30 177 -61 195 -70 17 -9 53 -23 80 -31 27 -8 75 -36 110 -64
34 -28 69 -50 78 -50 36 0 231 -146 231 -172 0 -7 -21 -28 -48 -45 l-47 -33
-83 0 c-51 0 -96 6 -119 15 -19 8 -59 15 -87 15 -28 0 -71 6 -96 14 -60 19
-125 35 -182 46 -26 5 -56 13 -67 19 -11 6 -38 11 -61 11 -55 0 -141 53 -204
125 l-46 54 0 51 c0 28 5 60 10 71 13 24 129 99 154 99 10 0 92 -25 182 -55z"/>
</g>
</svg>
