<?xml version="1.0" standalone="no"?>
<!DOCTYPE svg PUBLIC "-//W3C//DTD SVG 20010904//EN"
 "http://www.w3.org/TR/2001/REC-SVG-20010904/DTD/svg10.dtd">
<svg version="1.0" xmlns="http://www.w3.org/2000/svg"
 width="255.000000pt" height="486.000000pt" viewBox="0 0 255.000000 486.000000"
 preserveAspectRatio="xMidYMid meet">
<metadata>
Created by potrace 1.16, written by Peter Selinger 2001-2019
</metadata>
<g transform="translate(0.000000,486.000000) scale(0.100000,-0.100000)"
fill="#000000" stroke="none">
<path d="M1187 4797 c-33 -75 -34 -109 -4 -162 30 -53 87 -85 154 -85 l52 0
36 32 c35 30 85 113 85 140 0 7 -12 41 -27 75 l-28 62 -120 0 -120 0 -28 -62z"/>
<path d="M1675 4375 c-16 -8 -57 -14 -90 -15 l-60 0 -60 -41 c-96 -65 -133
-107 -185 -210 -88 -174 -110 -279 -75 -362 8 -20 15 -49 15 -65 0 -16 13 -47
29 -69 16 -22 39 -60 51 -84 13 -24 70 -93 127 -152 57 -60 103 -113 100 -120
-5 -17 -372 -10 -416 9 -18 8 -58 14 -88 14 -29 0 -70 7 -90 15 -19 8 -60 15
-90 15 -29 0 -70 7 -90 15 -19 8 -60 15 -90 15 -29 0 -70 7 -90 15 -19 8 -47
15 -60 15 -14 0 -54 13 -90 30 -35 16 -69 30 -74 30 -6 0 -35 11 -65 25 -30
14 -82 34 -116 46 l-62 21 -53 -18 -53 -18 0 -23 c0 -13 4 -31 8 -41 5 -9 15
-30 23 -47 17 -35 100 -84 142 -85 26 0 91 -34 217 -113 30 -19 66 -37 80 -40
14 -4 43 -22 65 -40 22 -19 73 -51 113 -72 40 -22 82 -51 93 -67 12 -16 60
-54 107 -85 48 -31 114 -82 147 -113 33 -31 77 -67 97 -80 20 -14 49 -44 64
-68 15 -24 48 -57 73 -74 25 -17 51 -38 57 -47 7 -9 46 -56 88 -106 43 -49 93
-119 112 -155 19 -36 54 -89 79 -117 25 -28 45 -58 45 -66 0 -8 13 -32 29 -55
52 -71 101 -179 157 -347 37 -110 54 -179 54 -213 0 -27 7 -66 15 -85 19 -46
19 -90 0 -147 -8 -25 -17 -61 -20 -81 -3 -23 -20 -54 -44 -80 -21 -24 -41 -56
-44 -70 -10 -41 -133 -171 -174 -185 -19 -7 -58 -26 -85 -44 -74 -46 -153 -70
-226 -70 -36 0 -86 -8 -113 -17 l-49 -18 -49 18 c-27 9 -77 17 -113 17 -45 0
-88 9 -148 30 -47 16 -94 30 -105 30 -24 0 -212 63 -275 91 -25 12 -68 37 -97
56 -40 28 -58 34 -78 29 l-27 -7 5 -37 c2 -20 0 -56 -6 -79 l-11 -41 63 -71
c37 -41 74 -74 90 -77 36 -9 51 -23 51 -47 0 -20 62 -86 113 -120 15 -10 38
-40 52 -67 14 -27 42 -61 64 -77 22 -15 52 -48 67 -71 16 -24 49 -58 74 -74
25 -17 63 -54 85 -82 l41 -51 47 -3 47 -3 0 46 c0 51 -25 108 -64 144 -14 14
-26 33 -26 43 0 10 -20 40 -44 66 -24 26 -54 63 -67 82 -13 19 -39 53 -57 76
-36 44 -74 115 -67 122 3 3 22 0 44 -6 21 -7 75 -12 120 -12 50 0 96 -6 118
-15 50 -21 286 -21 336 0 20 8 66 15 102 15 93 0 251 58 340 125 17 12 53 34
80 48 28 14 62 38 76 54 27 28 99 163 99 184 0 6 20 30 45 53 l45 42 0 63 c0
34 7 78 15 98 19 45 19 111 0 156 -8 20 -15 59 -15 87 0 60 -24 135 -80 250
-22 46 -40 90 -40 97 0 24 -72 157 -107 198 -18 22 -36 51 -40 65 -11 45 -74
163 -113 210 -21 25 -47 64 -59 87 -11 23 -38 54 -60 70 -22 15 -52 48 -68 72
-15 24 -45 54 -65 67 -21 13 -49 41 -62 62 -26 41 -53 66 -106 101 -20 13 -48
41 -63 62 -15 21 -51 51 -80 66 -32 17 -62 44 -80 71 -28 41 -106 92 -142 92
-18 0 -69 75 -60 89 10 17 209 14 252 -4 23 -10 69 -15 132 -15 64 0 111 -5
142 -17 l47 -16 41 16 c56 23 275 24 328 2 50 -21 76 -19 173 15 46 17 94 30
106 30 12 0 38 7 57 15 20 8 50 15 66 15 23 0 46 14 93 56 34 31 75 62 90 70
16 8 39 31 52 52 13 20 40 57 60 80 l36 44 0 48 c0 27 5 52 10 55 6 3 10 42
10 85 0 43 -4 82 -10 85 -5 3 -10 20 -10 36 0 38 -35 107 -66 132 -13 10 -24
25 -24 33 0 36 -52 115 -92 140 -23 15 -62 46 -87 69 -69 65 -303 175 -372
175 -11 0 -50 14 -86 30 -71 33 -84 35 -128 15z m92 -170 c19 -8 53 -15 75
-15 44 0 93 -20 152 -62 21 -15 45 -28 53 -28 14 0 100 -68 133 -105 78 -88
108 -130 141 -199 l39 -80 0 -85 0 -84 -32 -51 c-18 -28 -49 -73 -70 -101
l-37 -50 -63 -19 c-35 -11 -80 -28 -101 -38 -54 -27 -178 -68 -203 -68 -24 0
-40 16 -45 45 -5 22 -60 63 -98 72 -14 3 -39 18 -56 33 -16 16 -59 48 -95 72
-50 34 -68 53 -77 81 -7 20 -32 61 -57 92 -60 73 -69 107 -64 247 l3 116 33
39 c17 21 47 61 66 89 62 94 204 140 303 99z"/>
</g>
</svg>
