<?xml version="1.0" standalone="no"?>
<!DOCTYPE svg PUBLIC "-//W3C//DTD SVG 20010904//EN"
 "http://www.w3.org/TR/2001/REC-SVG-20010904/DTD/svg10.dtd">
<svg version="1.0" xmlns="http://www.w3.org/2000/svg"
 width="285.000000pt" height="249.000000pt" viewBox="0 0 285.000000 249.000000"
 preserveAspectRatio="xMidYMid meet">
<metadata>
Created by potrace 1.16, written by Peter Selinger 2001-2019
</metadata>
<g transform="translate(0.000000,249.000000) scale(0.100000,-0.100000)"
fill="#000000" stroke="none">
<path d="M13 2463 c-18 -38 -15 -72 10 -117 18 -31 31 -42 67 -52 25 -8 54
-14 66 -14 23 0 74 50 99 98 l16 34 -16 24 c-9 14 -29 27 -46 31 -16 3 -32 10
-35 14 -3 5 -38 9 -77 9 l-72 0 -12 -27z"/>
<path d="M735 2150 c-11 -5 -37 -9 -57 -9 -21 -1 -67 -11 -102 -22 l-65 -22
-66 -67 -65 -68 0 -53 0 -53 45 -67 c49 -74 97 -119 124 -119 10 0 69 -25 130
-55 129 -63 305 -125 356 -125 20 0 52 -7 72 -15 19 -8 60 -15 90 -15 29 0 70
-7 90 -15 19 -8 46 -15 60 -15 73 0 305 110 346 164 38 50 62 54 101 19 53
-48 130 -109 156 -123 40 -21 308 -290 346 -348 20 -29 46 -60 60 -69 14 -9
37 -37 51 -62 15 -25 49 -70 75 -99 26 -30 51 -66 55 -80 3 -15 26 -67 50
-116 23 -49 43 -102 43 -117 0 -14 7 -43 15 -62 22 -53 21 -249 -1 -287 -23
-37 -64 -60 -112 -60 -22 0 -56 -7 -75 -15 -46 -19 -128 -19 -174 0 -27 11
-77 15 -210 15 -132 0 -182 4 -210 15 -22 9 -67 15 -120 15 -52 0 -97 6 -120
15 -20 8 -66 15 -105 15 -38 0 -84 7 -105 15 -19 8 -60 15 -90 15 -29 0 -70 7
-90 15 -54 23 -100 19 -129 -10 -20 -20 -23 -29 -15 -44 19 -34 71 -71 102
-71 16 0 46 -7 66 -15 23 -10 69 -15 135 -15 65 0 111 -5 135 -15 19 -8 60
-15 90 -15 29 0 70 -7 90 -15 25 -11 73 -15 167 -15 l131 0 45 -30 45 -30 227
0 c140 0 229 -4 233 -10 3 -6 35 -10 70 -10 l63 0 54 54 c29 29 65 69 81 88
l27 36 0 190 c0 117 -4 193 -10 197 -5 3 -10 33 -10 66 0 62 -19 113 -65 174
-12 17 -32 50 -45 75 -13 25 -40 65 -60 90 -21 25 -49 68 -63 95 -23 47 -89
116 -151 158 -14 10 -29 30 -32 45 -9 38 -21 50 -75 78 -26 13 -56 35 -66 50
-39 56 -74 92 -115 118 -24 15 -59 50 -78 78 l-35 51 -80 40 c-44 22 -101 57
-127 78 -26 22 -93 63 -150 91 -57 28 -121 64 -142 80 -21 15 -45 28 -53 28
-8 0 -44 14 -80 30 -35 17 -70 30 -76 30 -7 0 -54 20 -105 45 -52 25 -104 45
-117 45 -13 0 -36 5 -52 12 -15 6 -75 15 -133 19 -58 5 -121 10 -140 13 -19 3
-44 1 -55 -4z m235 -150 c47 -16 95 -30 108 -30 13 0 49 -12 80 -26 31 -15 77
-32 102 -40 25 -7 67 -29 94 -49 27 -19 56 -35 63 -35 29 0 103 -41 120 -66
l17 -26 -19 -35 c-25 -46 -67 -77 -140 -102 -70 -25 -113 -26 -162 -6 -19 8
-54 15 -77 15 -25 0 -66 12 -104 30 -35 17 -80 30 -100 30 -45 0 -158 37 -241
80 -98 49 -192 147 -177 185 2 7 47 34 98 59 l93 46 80 0 c64 0 98 -6 165 -30z"/>
</g>
</svg>
