<?xml version="1.0" standalone="no"?>
<!DOCTYPE svg PUBLIC "-//W3C//DTD SVG 20010904//EN"
 "http://www.w3.org/TR/2001/REC-SVG-20010904/DTD/svg10.dtd">
<svg version="1.0" xmlns="http://www.w3.org/2000/svg"
 width="240.000000pt" height="291.000000pt" viewBox="0 0 240.000000 291.000000"
 preserveAspectRatio="xMidYMid meet">
<metadata>
Created by potrace 1.16, written by Peter Selinger 2001-2019
</metadata>
<g transform="translate(0.000000,291.000000) scale(0.100000,-0.100000)"
fill="#000000" stroke="none">
<path d="M277 2861 c-37 -105 -4 -213 80 -259 l42 -23 54 16 c43 12 66 27 106
70 l51 54 0 62 c0 35 -5 78 -12 96 l-12 33 -146 0 -145 0 -18 -49z"/>
<path d="M361 2388 c-30 -10 -66 -28 -81 -38 -15 -11 -45 -25 -66 -32 -28 -10
-48 -27 -73 -64 -19 -28 -50 -62 -68 -74 -50 -34 -73 -89 -73 -176 0 -40 5
-76 10 -79 6 -3 10 -14 10 -24 0 -16 43 -77 126 -179 15 -18 52 -47 83 -63 31
-17 80 -45 108 -63 48 -30 105 -51 233 -86 25 -6 79 -15 120 -19 41 -4 85 -13
97 -19 31 -17 193 -15 234 2 19 8 68 17 109 21 136 11 207 37 290 105 113 93
176 91 248 -6 20 -26 41 -44 53 -44 13 0 29 -16 47 -47 15 -26 48 -68 74 -94
32 -32 66 -85 104 -161 31 -62 68 -126 83 -143 36 -39 146 -372 155 -465 l6
-65 -20 -30 c-14 -20 -20 -47 -20 -83 0 -29 -5 -62 -10 -73 -19 -35 -88 -19
-174 43 -21 15 -52 28 -68 28 -16 0 -45 7 -65 15 -21 9 -66 15 -112 15 l-76 0
-50 -28 c-37 -20 -57 -40 -77 -77 l-28 -50 0 -68 0 -69 65 -67 c43 -45 83 -75
117 -90 29 -13 61 -27 70 -32 24 -12 225 -11 233 1 3 5 20 10 36 10 70 0 241
116 279 190 32 62 90 249 90 290 0 21 5 42 10 45 6 4 10 53 10 114 0 84 -3
111 -15 121 -8 7 -15 28 -15 47 0 19 -17 69 -40 115 -22 45 -40 95 -40 110 0
34 -67 167 -115 226 -19 24 -35 52 -35 62 0 11 -25 48 -56 82 -31 35 -65 81
-76 103 -27 52 -103 137 -153 170 -22 15 -71 57 -110 94 -38 37 -82 75 -97 84
-15 10 -60 46 -100 80 -40 35 -84 67 -98 70 -14 3 -44 22 -66 41 -22 19 -69
49 -104 67 -35 17 -79 46 -99 64 -20 17 -52 43 -71 57 -42 31 -326 128 -376
128 -19 0 -51 7 -71 15 -53 22 -231 18 -302 -7z m357 -148 c35 -17 68 -30 74
-30 5 0 39 -13 75 -30 35 -16 70 -30 76 -30 34 -1 178 -92 247 -155 25 -23 78
-63 118 -90 41 -26 76 -54 79 -61 8 -22 -17 -72 -46 -93 -14 -11 -44 -24 -66
-30 -22 -6 -49 -18 -59 -26 -11 -8 -30 -15 -42 -15 -12 0 -57 -12 -100 -27
l-79 -26 -155 1 -155 1 -163 53 -164 53 -84 83 -84 82 0 98 0 97 74 65 c98 86
156 108 291 109 l100 1 63 -30z m1188 -1947 c42 -30 69 -86 54 -113 l-11 -20
-85 0 c-149 0 -235 63 -193 142 l11 20 96 -4 97 -3 31 -22z"/>
</g>
</svg>
