<?xml version="1.0" standalone="no"?>
<!DOCTYPE svg PUBLIC "-//W3C//DTD SVG 20010904//EN"
 "http://www.w3.org/TR/2001/REC-SVG-20010904/DTD/svg10.dtd">
<svg version="1.0" xmlns="http://www.w3.org/2000/svg"
 width="690.000000pt" height="216.000000pt" viewBox="0 0 690.000000 216.000000"
 preserveAspectRatio="xMidYMid meet">
<metadata>
Created by potrace 1.16, written by Peter Selinger 2001-2019
</metadata>
<g transform="translate(0.000000,216.000000) scale(0.100000,-0.100000)"
fill="#000000" stroke="none">
<path d="M5448 2117 c-14 -23 -34 -59 -44 -79 l-17 -37 23 -71 c14 -45 32 -78
48 -90 l25 -20 85 0 85 0 43 44 44 43 0 54 c-1 53 -10 76 -65 166 l-20 33 -90
0 -90 -1 -27 -42z"/>
<path d="M5815 1435 c-16 -8 -43 -14 -60 -15 -45 -1 -85 -27 -179 -113 -60
-55 -88 -88 -95 -112 -5 -19 -18 -47 -29 -62 -30 -42 -82 -151 -97 -201 -15
-47 -11 -82 21 -182 8 -25 14 -54 14 -65 l0 -20 -200 3 -200 4 -46 -18 -45
-17 -53 13 c-41 10 -61 10 -89 1 l-35 -12 -37 16 -37 15 -970 0 -969 0 -36 15
c-28 12 -84 15 -269 15 -136 0 -244 4 -260 10 -15 6 -77 13 -138 17 -61 3
-126 12 -145 19 -18 8 -68 14 -110 14 -42 0 -83 5 -91 10 l-15 10 15 10 c8 5
25 10 36 10 32 0 109 46 143 86 l31 35 0 50 c0 70 -42 149 -80 149 -9 0 -27
12 -41 26 -40 43 -221 124 -277 124 -10 0 -56 13 -102 30 -62 21 -104 30 -153
30 -37 0 -84 7 -104 15 -23 10 -69 15 -135 15 -65 0 -111 5 -135 15 -22 9 -68
15 -123 15 -55 0 -101 -6 -123 -15 -20 -8 -52 -15 -72 -15 -37 0 -210 -55
-298 -94 -29 -13 -64 -26 -78 -30 -33 -7 -99 -79 -99 -106 0 -12 -10 -25 -25
-32 l-25 -11 0 -79 0 -79 37 -45 c21 -25 50 -52 65 -60 49 -26 214 -72 303
-84 33 -5 92 -20 130 -34 54 -20 89 -26 153 -26 50 0 97 -6 119 -15 23 -10 69
-15 135 -15 65 0 111 -5 135 -15 26 -11 76 -15 195 -15 l159 0 57 -26 c59 -27
152 -112 211 -194 l31 -43 0 -56 c0 -74 -15 -93 -104 -136 l-73 -35 -90 0 -90
0 -27 -21 c-32 -25 -33 -59 -3 -87 l23 -22 137 0 c80 0 138 4 142 10 3 5 20
10 38 10 20 0 54 15 96 44 111 74 191 225 163 306 -7 18 -12 44 -12 58 0 14
-14 47 -31 73 l-30 48 11 20 11 21 55 0 c30 0 71 -7 91 -15 27 -12 81 -15 240
-15 158 0 212 -3 240 -15 l35 -15 295 0 294 0 36 -15 35 -15 325 0 324 0 36
-15 c46 -19 140 -19 186 0 46 19 98 19 144 0 l35 -15 973 0 973 0 35 15 c26
11 73 15 162 15 l126 0 61 21 c76 25 105 40 180 91 64 44 108 112 108 167 0
16 5 33 10 36 6 3 10 21 10 40 0 19 -4 37 -10 40 -5 3 -10 34 -10 69 l0 63
-29 40 c-16 23 -41 63 -54 89 -31 60 -126 154 -186 184 -24 12 -62 35 -84 51
l-40 29 -74 0 c-43 0 -89 6 -110 15 -49 21 -443 20 -488 0z m485 -161 c58 -19
124 -43 146 -54 46 -21 154 -123 203 -190 l31 -43 0 -101 c0 -124 -5 -133
-104 -181 l-73 -35 -160 0 c-120 0 -170 -4 -196 -15 -28 -12 -82 -15 -240 -15
l-204 0 -39 29 c-64 47 -113 96 -124 125 -5 15 -10 57 -10 94 0 77 27 146 82
208 18 22 46 58 61 82 15 23 34 42 41 42 8 0 44 14 79 30 36 17 76 30 90 30
14 0 40 7 58 15 23 9 70 14 144 15 l110 0 105 -36z m-5283 -69 c19 -8 59 -15
87 -15 28 0 71 -6 96 -14 58 -18 123 -35 180 -46 25 -5 65 -19 90 -31 25 -13
63 -25 84 -28 32 -5 44 -13 59 -39 l19 -32 -12 -15 c-18 -21 -216 -21 -267 0
-19 8 -60 15 -90 15 -29 0 -70 7 -90 15 -51 21 -71 19 -104 -14 -41 -41 -37
-69 17 -136 37 -45 44 -59 33 -66 -19 -12 -24 -11 -66 6 -27 11 -77 15 -207
15 l-172 0 -84 30 c-47 16 -101 30 -120 30 -51 0 -242 67 -262 92 -42 49 -7
122 77 163 49 23 148 55 171 55 12 0 37 7 55 15 50 21 454 21 506 0z"/>
</g>
</svg>
