<?xml version="1.0" standalone="no"?>
<!DOCTYPE svg PUBLIC "-//W3C//DTD SVG 20010904//EN"
 "http://www.w3.org/TR/2001/REC-SVG-20010904/DTD/svg10.dtd">
<svg version="1.0" xmlns="http://www.w3.org/2000/svg"
 width="222.000000pt" height="261.000000pt" viewBox="0 0 222.000000 261.000000"
 preserveAspectRatio="xMidYMid meet">
<metadata>
Created by potrace 1.16, written by Peter Selinger 2001-2019
</metadata>
<g transform="translate(0.000000,261.000000) scale(0.100000,-0.100000)"
fill="#000000" stroke="none">
<path d="M390 2600 c-8 -4 -30 -14 -48 -21 -18 -6 -44 -20 -57 -31 l-25 -19 0
-67 0 -67 28 -50 c28 -52 87 -95 130 -95 56 0 133 61 171 137 35 70 23 131
-37 196 l-26 27 -60 -1 c-34 0 -68 -4 -76 -9z"/>
<path d="M517 2030 c-26 -9 -60 -28 -75 -42 -15 -14 -46 -37 -69 -52 -45 -28
-83 -87 -83 -130 0 -14 -7 -44 -16 -66 l-17 -41 22 -65 c33 -101 68 -163 137
-239 l63 -71 107 -53 c60 -30 126 -67 148 -82 21 -16 52 -29 68 -29 16 0 45
-7 65 -15 27 -11 77 -15 212 -15 l176 0 85 30 c46 17 92 30 103 30 30 0 115
-80 164 -155 26 -38 58 -84 73 -100 14 -17 48 -64 75 -105 27 -41 71 -99 97
-129 58 -63 84 -117 67 -137 -17 -21 -426 -20 -476 1 -26 11 -76 15 -198 15
l-162 0 -39 30 c-21 16 -59 44 -84 61 -25 17 -58 48 -73 70 -16 22 -47 49 -70
61 -23 11 -56 32 -74 45 -17 13 -46 28 -65 33 -18 5 -55 28 -82 50 -29 24 -58
40 -75 40 -14 0 -46 6 -71 14 -158 50 -232 56 -319 26 -35 -12 -79 -33 -97
-47 l-34 -25 0 -84 0 -84 90 -45 c49 -25 95 -45 102 -45 8 0 30 -11 49 -25 32
-21 172 -71 299 -105 25 -7 86 -16 135 -20 106 -8 140 -24 213 -97 47 -47 112
-159 112 -193 0 -19 -44 -71 -76 -91 l-31 -19 -127 0 c-177 0 -203 -19 -124
-92 l41 -38 148 0 c88 0 150 4 154 10 3 6 14 10 23 10 10 0 52 33 95 73 l78
73 -2 111 c-1 61 2 116 5 122 11 17 180 14 223 -4 l35 -15 330 0 329 0 59 30
60 30 0 43 0 43 -36 35 c-20 18 -48 54 -62 79 -15 25 -45 68 -67 97 -22 28
-59 78 -83 110 -24 32 -64 87 -90 121 -75 102 -93 128 -206 299 -59 89 -120
172 -136 183 -17 12 -30 28 -30 36 0 28 -50 114 -79 135 -16 12 -49 48 -73 81
-24 33 -56 70 -73 81 -16 12 -60 50 -97 84 -37 35 -75 63 -85 63 -10 0 -31 9
-48 21 -16 11 -65 38 -107 60 l-78 39 -152 -1 c-116 -1 -165 -6 -201 -19z
m260 -135 c19 -8 48 -15 62 -15 17 0 37 -10 52 -26 13 -14 61 -50 106 -81 96
-64 119 -88 196 -206 31 -47 70 -95 87 -107 l30 -21 0 -45 c0 -55 -33 -94 -78
-94 -16 0 -46 -7 -65 -15 -46 -19 -128 -19 -174 0 -19 8 -52 15 -72 15 -35 0
-129 27 -181 53 -43 21 -244 159 -257 176 -23 31 -53 138 -53 187 1 90 51 164
111 164 15 0 42 7 60 15 44 19 130 19 176 0z m-380 -1063 c47 -6 70 -14 99
-38 46 -37 51 -50 25 -59 -39 -12 -238 71 -249 104 -4 11 3 12 29 7 19 -4 62
-10 96 -14z"/>
</g>
</svg>
