<?xml version="1.0" standalone="no"?>
<!DOCTYPE svg PUBLIC "-//W3C//DTD SVG 20010904//EN"
 "http://www.w3.org/TR/2001/REC-SVG-20010904/DTD/svg10.dtd">
<svg version="1.0" xmlns="http://www.w3.org/2000/svg"
 width="192.000000pt" height="246.000000pt" viewBox="0 0 192.000000 246.000000"
 preserveAspectRatio="xMidYMid meet">
<metadata>
Created by potrace 1.16, written by Peter Selinger 2001-2019
</metadata>
<g transform="translate(0.000000,246.000000) scale(0.100000,-0.100000)"
fill="#000000" stroke="none">
<path d="M37 2432 l-37 -25 0 -83 0 -82 42 -31 c52 -38 91 -40 158 -6 63 32
80 57 80 119 l0 50 -47 43 -46 43 -56 -1 c-43 -1 -65 -7 -94 -27z"/>
<path d="M535 1855 c-16 -8 -49 -14 -73 -15 -106 -1 -276 -131 -343 -262 l-39
-78 0 -90 0 -91 25 -48 c41 -82 245 -261 298 -261 7 0 26 -14 42 -30 16 -17
36 -30 45 -30 8 0 32 -11 51 -24 38 -26 145 -66 177 -66 10 0 56 -13 102 -30
112 -39 206 -41 282 -6 71 34 167 66 194 66 25 0 39 -15 47 -50 4 -14 22 -50
41 -80 19 -30 67 -118 107 -195 39 -77 81 -154 94 -170 12 -17 46 -77 75 -134
28 -57 67 -126 85 -152 18 -27 36 -62 40 -79 l7 -30 64 0 64 0 0 63 0 64 -21
19 c-20 18 -59 93 -59 114 0 17 -69 151 -101 195 -16 22 -42 81 -58 130 -16
50 -61 155 -100 234 -44 89 -71 156 -71 176 0 24 -11 46 -40 81 -23 27 -44 60
-47 74 -3 14 -19 52 -35 85 -15 33 -28 68 -28 77 0 10 -22 43 -50 73 -27 30
-61 72 -74 92 -30 47 -206 218 -267 260 -45 31 -152 73 -187 73 -10 0 -56 13
-102 30 -95 33 -103 34 -145 15z m205 -172 c14 -9 40 -29 58 -45 18 -15 39
-28 47 -28 17 0 190 -172 220 -219 12 -20 32 -45 44 -55 11 -11 21 -25 21 -32
0 -7 21 -55 46 -107 l46 -95 -11 -21 c-7 -12 -20 -21 -31 -21 -11 0 -34 -13
-52 -28 -65 -56 -80 -62 -148 -62 -48 0 -90 8 -150 30 -47 16 -94 30 -105 30
-22 0 -124 33 -165 53 -13 7 -63 38 -110 70 -47 31 -92 57 -101 57 -17 0 -69
64 -128 157 l-33 52 11 34 c16 48 88 141 136 176 71 52 136 69 265 70 l116 1
24 -17z"/>
</g>
</svg>
