<?xml version="1.0" standalone="no"?>
<!DOCTYPE svg PUBLIC "-//W3C//DTD SVG 20010904//EN"
 "http://www.w3.org/TR/2001/REC-SVG-20010904/DTD/svg10.dtd">
<svg version="1.0" xmlns="http://www.w3.org/2000/svg"
 width="378.000000pt" height="513.000000pt" viewBox="0 0 378.000000 513.000000"
 preserveAspectRatio="xMidYMid meet">
<metadata>
Created by potrace 1.16, written by Peter Selinger 2001-2019
</metadata>
<g transform="translate(0.000000,513.000000) scale(0.100000,-0.100000)"
fill="#000000" stroke="none">
<path d="M1565 5120 c-3 -5 -14 -10 -24 -10 -51 0 -77 -115 -56 -240 10 -59
16 -65 97 -106 78 -39 113 -42 171 -13 62 31 75 46 91 103 l15 52 -13 46 c-33
109 -74 158 -133 158 -17 0 -35 5 -38 10 -3 6 -28 10 -55 10 -27 0 -52 -4 -55
-10z"/>
<path d="M1905 4490 c-11 -5 -39 -9 -63 -9 -50 -1 -125 -37 -163 -78 -60 -64
-142 -262 -140 -338 2 -86 21 -187 44 -235 15 -30 27 -61 27 -68 0 -28 75
-160 115 -202 23 -25 50 -59 60 -75 10 -17 32 -44 48 -62 16 -17 26 -36 23
-42 -11 -17 -219 -14 -263 4 -20 8 -66 15 -105 15 -38 0 -84 7 -105 15 -23 10
-69 15 -135 15 -65 0 -111 5 -135 15 -19 8 -47 15 -60 15 -14 0 -54 13 -90 30
-35 17 -76 30 -90 30 -13 0 -54 14 -90 30 -35 17 -76 30 -90 30 -13 0 -54 14
-90 30 -35 17 -69 30 -74 30 -6 0 -40 18 -77 40 -37 23 -78 43 -92 47 -14 3
-38 18 -55 33 -41 38 -88 60 -127 60 -47 0 -134 -62 -159 -113 l-19 -41 0
-128 c0 -71 4 -136 10 -146 5 -9 19 -46 30 -81 12 -35 32 -80 46 -100 13 -19
24 -43 24 -51 0 -8 27 -54 59 -102 33 -48 74 -114 91 -146 17 -33 53 -84 79
-113 26 -30 62 -76 81 -104 19 -27 67 -84 106 -125 39 -41 83 -94 97 -116 14
-23 40 -52 57 -65 41 -31 88 -78 119 -119 13 -17 42 -43 65 -57 22 -14 75 -58
116 -98 41 -39 89 -80 105 -90 17 -10 57 -44 90 -75 33 -31 80 -68 105 -82 25
-14 55 -40 68 -57 22 -30 107 -81 135 -81 7 0 24 -12 38 -26 13 -14 75 -60
137 -101 62 -42 131 -91 154 -109 22 -19 47 -34 55 -34 22 0 199 -86 237 -115
17 -13 69 -36 116 -52 l85 -28 37 -55 c21 -30 51 -81 68 -112 17 -32 51 -75
80 -100 27 -24 50 -51 50 -60 0 -23 46 -75 92 -104 35 -22 107 -81 181 -148
18 -17 27 -35 27 -56 0 -17 18 -66 40 -110 31 -61 50 -86 80 -105 22 -14 47
-37 57 -52 32 -53 98 -115 153 -143 30 -16 77 -47 104 -69 26 -23 55 -41 64
-41 8 0 57 -20 109 -45 51 -25 100 -45 108 -45 7 0 17 -5 20 -10 3 -6 50 -10
106 -10 l99 0 0 34 0 34 -42 31 c-24 18 -54 31 -71 31 -39 0 -129 43 -174 83
-21 19 -53 38 -72 42 -21 4 -51 25 -80 54 -25 26 -62 58 -82 71 -20 13 -47 39
-60 59 -13 20 -40 56 -61 81 -42 51 -68 107 -68 147 0 15 -10 46 -23 68 -18
32 -39 49 -105 83 -101 53 -200 143 -271 248 -73 108 -66 144 22 110 26 -10
72 -16 117 -16 l75 0 50 28 c57 31 104 104 105 160 0 49 -34 106 -87 145 -26
19 -61 49 -76 65 -42 44 -235 100 -282 82 -15 -6 -60 -10 -101 -10 l-75 0 -55
-52 c-33 -31 -58 -64 -61 -80 -9 -44 -32 -50 -99 -27 -73 25 -101 38 -139 65
-16 12 -72 44 -124 70 -52 26 -111 62 -130 79 -20 18 -52 40 -71 50 -19 9 -55
34 -80 55 -25 20 -60 45 -78 54 -18 9 -50 32 -70 50 -20 18 -53 42 -72 54 -19
11 -45 34 -58 51 -12 17 -39 40 -60 50 -31 16 -270 238 -387 361 -16 17 -55
57 -85 88 -30 31 -71 77 -89 102 -19 25 -54 63 -78 86 -24 22 -43 49 -43 59 0
11 -15 35 -34 55 -45 46 -146 200 -146 221 0 9 -18 39 -41 65 -22 27 -52 71
-65 97 -31 59 -74 184 -74 213 0 12 -7 38 -16 59 -8 20 -14 51 -12 69 l3 31
47 3 c50 3 98 -14 153 -54 49 -36 173 -94 200 -94 14 0 42 -7 62 -15 19 -8 53
-15 75 -15 23 0 67 -13 105 -30 37 -17 81 -30 104 -30 22 0 56 -7 76 -15 19
-8 53 -15 75 -15 21 0 55 -7 75 -15 20 -8 66 -15 105 -15 38 0 84 -7 105 -15
l35 -15 343 0 343 0 35 15 c20 8 59 15 87 15 64 0 137 25 282 95 63 30 122 55
130 55 16 0 92 89 160 190 l38 55 0 153 0 154 -45 86 c-57 111 -179 254 -246
288 -27 13 -53 24 -60 24 -6 0 -40 14 -76 30 -35 17 -74 30 -86 30 -12 0 -42
6 -67 14 -92 29 -137 38 -225 47 -49 5 -106 11 -125 13 -19 3 -44 1 -55 -4z
m132 -165 c21 -9 67 -15 116 -15 95 0 168 -22 302 -90 60 -30 96 -55 110 -77
23 -36 70 -116 103 -176 l22 -41 0 -134 0 -133 -30 -27 c-17 -15 -52 -48 -79
-74 -53 -50 -200 -128 -243 -128 -14 0 -42 -7 -61 -15 -51 -21 -70 -19 -144
15 -72 33 -125 72 -189 135 -22 22 -52 48 -67 58 -15 10 -30 31 -33 47 -4 16
-19 41 -35 56 -16 15 -29 35 -29 44 0 8 -11 32 -24 51 -43 63 -66 145 -66 234
l0 80 46 70 c51 78 55 81 134 112 66 26 118 28 167 8z m560 -2856 c111 -26
197 -55 220 -76 l24 -23 -11 -20 -11 -20 -115 0 c-130 0 -160 10 -190 66 l-18
32 17 26 c20 30 20 30 84 15z"/>
</g>
</svg>
