<?xml version="1.0" standalone="no"?>
<!DOCTYPE svg PUBLIC "-//W3C//DTD SVG 20010904//EN"
 "http://www.w3.org/TR/2001/REC-SVG-20010904/DTD/svg10.dtd">
<svg version="1.0" xmlns="http://www.w3.org/2000/svg"
 width="249.000000pt" height="231.000000pt" viewBox="0 0 249.000000 231.000000"
 preserveAspectRatio="xMidYMid meet">
<metadata>
Created by potrace 1.16, written by Peter Selinger 2001-2019
</metadata>
<g transform="translate(0.000000,231.000000) scale(0.100000,-0.100000)"
fill="#000000" stroke="none">
<path d="M185 2300 c-3 -5 -14 -10 -24 -10 -22 0 -141 -145 -141 -171 0 -10
-4 -21 -10 -24 -13 -8 -13 -132 0 -140 6 -3 10 -26 10 -50 0 -27 11 -66 30
-107 16 -34 30 -68 30 -75 0 -6 13 -40 30 -75 16 -34 30 -70 30 -80 0 -9 18
-31 40 -48 23 -18 53 -55 67 -84 14 -28 54 -81 89 -118 35 -37 70 -80 78 -96
8 -15 46 -57 84 -93 38 -36 79 -84 91 -107 12 -24 38 -53 61 -67 22 -14 47
-36 55 -49 9 -14 40 -42 68 -64 29 -22 87 -72 129 -113 222 -213 398 -362 498
-420 25 -15 55 -41 68 -58 21 -29 107 -81 134 -81 6 0 26 -13 43 -29 41 -39
206 -121 243 -121 17 0 34 -4 37 -10 3 -5 33 -10 66 -10 l59 0 0 20 c0 21 -76
82 -150 120 -25 13 -58 33 -75 45 -16 13 -53 34 -80 48 -28 14 -78 50 -113 81
-34 31 -71 56 -81 56 -10 0 -31 17 -48 38 -17 20 -56 50 -87 65 -31 16 -64 40
-74 53 -41 60 -67 86 -115 119 -58 38 -534 515 -614 615 -152 188 -146 180
-164 230 -7 19 -36 58 -65 85 l-51 50 -31 95 c-16 52 -42 120 -56 150 -42 91
-30 166 34 204 39 23 69 20 114 -10 21 -14 97 -56 170 -92 72 -36 145 -75 161
-88 17 -12 91 -53 165 -90 74 -37 153 -80 174 -96 21 -15 47 -28 57 -28 20 0
39 -28 39 -56 0 -9 -25 -40 -56 -68 l-56 -51 -10 -55 c-21 -112 -7 -177 55
-255 98 -125 153 -190 191 -225 21 -19 66 -60 100 -91 34 -31 81 -67 106 -79
25 -12 65 -39 90 -60 59 -49 148 -93 258 -129 48 -15 106 -38 129 -50 23 -11
61 -21 83 -21 22 0 57 -7 77 -15 45 -19 81 -19 126 0 20 8 51 15 68 15 l31 0
69 73 68 72 1 72 c0 55 -5 79 -21 105 -83 134 -122 189 -142 199 -38 20 -128
92 -176 140 -25 26 -69 58 -98 73 -28 14 -72 43 -98 66 -25 22 -50 40 -54 40
-5 0 -72 43 -150 95 -78 52 -163 106 -189 119 -26 14 -69 43 -96 65 -26 23
-55 41 -63 41 -24 0 -83 31 -167 89 -44 29 -127 78 -185 108 -58 30 -131 70
-161 89 -30 19 -71 39 -91 44 -19 5 -53 25 -76 45 -22 19 -82 56 -134 81 -61
31 -109 64 -140 96 -26 27 -56 48 -67 48 -12 0 -24 5 -27 10 -3 6 -42 10 -85
10 -43 0 -82 -4 -85 -10z m1251 -824 c41 -35 114 -76 137 -76 7 0 69 -37 137
-83 69 -45 146 -95 172 -110 26 -15 56 -41 68 -57 12 -17 40 -40 61 -51 22
-11 57 -35 77 -53 20 -19 66 -53 102 -77 l65 -44 38 -74 c38 -75 46 -125 27
-162 l-11 -19 -142 0 -142 0 -75 25 c-41 14 -93 38 -115 54 -48 34 -119 71
-137 71 -7 0 -35 25 -61 55 -34 39 -59 57 -87 65 -24 6 -47 21 -57 37 -17 25
-77 86 -135 138 -20 17 -28 33 -28 56 0 23 -9 43 -29 64 -68 73 -59 181 20
241 24 18 51 34 60 34 8 0 33 -15 55 -34z"/>
<path d="M1396 2257 c-36 -34 -56 -61 -56 -75 0 -36 45 -116 85 -150 l36 -32
83 0 c64 0 87 4 97 16 22 27 48 117 49 168 l0 49 -42 39 -41 38 -78 0 -77 0
-56 -53z"/>
</g>
</svg>
