<?xml version="1.0" standalone="no"?>
<!DOCTYPE svg PUBLIC "-//W3C//DTD SVG 20010904//EN"
 "http://www.w3.org/TR/2001/REC-SVG-20010904/DTD/svg10.dtd">
<svg version="1.0" xmlns="http://www.w3.org/2000/svg"
 width="504.000000pt" height="315.000000pt" viewBox="0 0 504.000000 315.000000"
 preserveAspectRatio="xMidYMid meet">
<metadata>
Created by potrace 1.16, written by Peter Selinger 2001-2019
</metadata>
<g transform="translate(0.000000,315.000000) scale(0.100000,-0.100000)"
fill="#000000" stroke="none">
<path d="M0 3127 c0 -12 20 -46 46 -75 35 -40 56 -55 91 -63 24 -7 87 -40 138
-75 101 -68 166 -104 188 -104 7 0 26 -13 42 -30 16 -16 35 -30 42 -30 8 0 44
-18 81 -40 37 -23 78 -43 92 -47 14 -3 39 -18 55 -33 34 -32 194 -114 242
-124 17 -4 51 -24 75 -45 24 -21 72 -53 108 -71 36 -18 79 -43 95 -55 35 -27
169 -95 186 -95 21 0 84 -34 169 -92 47 -32 91 -58 98 -58 12 0 51 -21 173
-95 109 -65 146 -85 159 -85 9 0 32 -12 53 -26 21 -14 84 -48 140 -76 56 -28
116 -61 132 -74 45 -33 146 -81 222 -106 37 -11 82 -33 98 -49 39 -35 115 -73
210 -104 42 -13 89 -34 104 -45 38 -26 227 -120 243 -120 8 0 31 -12 52 -26
51 -35 291 -154 310 -154 9 0 23 -11 31 -24 l16 -24 -11 -89 c-6 -48 -12 -97
-12 -108 0 -87 57 -220 127 -296 23 -25 54 -64 69 -87 14 -23 38 -48 53 -56
16 -8 54 -44 85 -79 32 -36 89 -86 128 -112 38 -25 88 -62 111 -81 22 -19 48
-34 56 -34 9 0 55 -18 102 -41 101 -48 190 -79 225 -79 14 0 28 -4 31 -10 8
-13 132 -13 140 0 3 6 29 10 58 10 l52 0 67 70 68 71 0 89 c0 50 -4 98 -9 108
-5 9 -13 29 -19 43 -6 15 -30 40 -54 56 -26 17 -54 49 -73 82 -30 54 -36 59
-87 80 -15 5 -39 28 -53 50 -24 39 -104 91 -139 91 -8 0 -24 13 -36 30 -22 31
-147 120 -169 120 -19 0 -81 30 -116 56 -16 12 -81 48 -142 79 -82 41 -121 68
-144 96 -22 28 -38 39 -58 39 -26 0 -121 29 -171 52 -14 7 -45 28 -70 49 -46
37 -120 79 -140 79 -21 0 -137 58 -181 89 -23 17 -49 31 -57 31 -9 0 -81 32
-160 71 -80 38 -179 81 -221 95 -102 33 -127 46 -185 94 -26 22 -55 40 -64 40
-22 0 -195 85 -243 120 -23 16 -49 30 -57 30 -8 0 -36 13 -61 29 -25 16 -57
31 -71 34 -14 4 -47 24 -74 47 -26 22 -55 40 -64 40 -19 0 -200 90 -272 136
-30 19 -72 39 -92 44 -47 13 -65 23 -169 93 -57 38 -95 57 -115 57 -20 0 -39
9 -55 26 -25 27 -89 64 -111 64 -7 0 -33 14 -58 30 -25 16 -52 30 -60 30 -9 0
-53 25 -98 55 -89 59 -154 95 -173 95 -17 0 -80 31 -114 56 -16 12 -77 45
-135 74 -57 29 -118 63 -135 75 -16 13 -76 46 -133 74 -57 29 -120 64 -141 79
-21 15 -58 36 -82 46 -24 10 -52 22 -61 27 -10 5 -40 9 -68 9 l-50 0 0 -23z
m3969 -2176 c15 -11 61 -36 102 -57 41 -20 88 -47 104 -60 17 -12 64 -39 105
-60 41 -20 89 -47 105 -59 17 -13 50 -33 75 -45 25 -12 65 -39 90 -59 24 -20
61 -47 81 -61 57 -39 219 -192 219 -207 0 -8 9 -31 20 -53 24 -47 25 -78 4
-108 l-15 -22 -112 0 c-135 0 -229 26 -312 86 -16 13 -68 41 -114 64 -117 59
-224 164 -335 329 -47 70 -90 140 -96 155 -15 41 -12 128 6 154 19 27 38 28
73 3z"/>
<path d="M4114 1736 l-44 -43 0 -73 0 -73 44 -43 43 -44 52 0 c52 0 121 26
138 52 17 28 42 115 43 147 0 27 -9 43 -44 77 l-43 44 -73 0 -73 0 -43 -44z"/>
</g>
</svg>
