<?xml version="1.0" standalone="no"?>
<!DOCTYPE svg PUBLIC "-//W3C//DTD SVG 20010904//EN"
 "http://www.w3.org/TR/2001/REC-SVG-20010904/DTD/svg10.dtd">
<svg version="1.0" xmlns="http://www.w3.org/2000/svg"
 width="765.000000pt" height="198.000000pt" viewBox="0 0 765.000000 198.000000"
 preserveAspectRatio="xMidYMid meet">
<metadata>
Created by potrace 1.16, written by Peter Selinger 2001-2019
</metadata>
<g transform="translate(0.000000,198.000000) scale(0.100000,-0.100000)"
fill="#000000" stroke="none">
<path d="M4512 1941 c-22 -72 -14 -90 56 -125 18 -10 50 -32 70 -50 20 -19 52
-37 71 -41 21 -4 51 -25 80 -54 25 -26 62 -58 83 -71 36 -24 68 -67 68 -92 0
-7 14 -33 30 -58 39 -59 41 -120 5 -155 l-24 -25 -146 0 c-107 0 -155 4 -182
15 -28 12 -86 15 -285 15 -198 0 -256 3 -285 15 -19 8 -53 15 -75 15 -21 0
-55 7 -75 15 -19 8 -53 15 -75 15 -21 0 -55 7 -75 15 -26 11 -74 15 -180 15
-105 0 -153 4 -180 15 -26 11 -76 15 -195 15 -118 0 -168 4 -195 15 l-35 15
-295 0 -294 0 -36 15 c-27 11 -77 15 -210 15 -132 0 -182 4 -210 15 -20 8 -66
15 -105 15 -38 0 -84 7 -105 15 -22 9 -67 15 -120 15 -52 0 -97 6 -120 15 -19
8 -60 15 -90 15 -29 0 -70 7 -90 15 l-35 15 -264 0 c-182 0 -271 4 -291 12
-15 7 -73 15 -128 19 -55 4 -136 12 -180 17 -44 6 -151 11 -237 11 l-158 1 0
-38 0 -38 53 -16 c111 -34 145 -41 247 -47 58 -4 115 -12 127 -19 13 -7 62
-12 123 -12 67 0 113 -5 137 -15 19 -8 60 -15 90 -15 29 0 70 -7 90 -15 20 -9
66 -15 109 -15 l73 0 15 -22 c9 -12 16 -33 16 -46 0 -35 15 -57 54 -80 19 -11
46 -39 60 -61 15 -23 43 -49 66 -61 23 -12 58 -36 78 -54 20 -18 52 -41 71
-51 19 -9 52 -30 74 -46 22 -16 53 -29 69 -29 28 0 99 -37 219 -114 41 -27 66
-36 97 -36 24 0 59 -7 79 -15 19 -8 53 -15 75 -15 21 0 55 -7 75 -15 56 -24
137 -18 233 15 46 17 95 30 107 30 26 0 113 41 130 62 20 23 53 136 53 178 0
23 -10 61 -25 90 -32 63 -46 125 -32 139 15 15 89 14 124 -1 20 -9 137 -15
393 -20 201 -4 392 -10 425 -12 33 -3 119 -9 190 -14 l130 -8 52 -27 52 -27
101 0 c67 0 113 -5 137 -15 19 -8 60 -15 90 -15 29 0 70 -7 90 -15 28 -12 85
-15 282 -15 l247 0 88 -31 c51 -17 98 -28 111 -25 12 3 39 24 59 46 l36 40 0
58 c0 31 7 78 17 103 l16 47 -16 41 c-20 48 -22 91 -5 91 6 0 44 -16 85 -35
41 -19 79 -35 86 -35 7 0 44 -15 83 -34 47 -22 81 -47 103 -75 25 -31 40 -41
62 -41 28 0 93 -33 219 -113 30 -19 69 -38 87 -42 17 -3 52 -24 76 -46 25 -21
51 -39 58 -39 25 0 239 -110 276 -142 21 -19 65 -42 98 -53 33 -10 74 -31 90
-47 17 -15 37 -28 45 -28 8 0 28 -13 45 -28 16 -16 49 -34 72 -41 23 -6 70
-34 104 -61 34 -28 70 -50 80 -50 31 0 54 -48 55 -115 1 -73 17 -159 32 -178
7 -8 31 -26 55 -41 23 -15 58 -50 77 -77 l35 -51 104 -54 c58 -30 109 -58 115
-64 6 -6 63 -10 131 -10 l121 0 37 38 c53 54 50 83 -15 156 -28 32 -69 69 -91
83 -22 14 -61 45 -86 68 -25 23 -68 54 -96 69 -61 31 -72 40 -112 92 -19 24
-44 44 -60 48 -34 7 -49 19 -91 72 -22 29 -42 44 -65 48 -19 3 -56 26 -84 49
-28 24 -66 49 -84 56 -19 7 -47 19 -64 28 -93 50 -144 80 -179 105 -21 15 -46
28 -55 28 -8 0 -29 13 -46 28 -17 16 -61 38 -103 51 -57 19 -79 31 -99 58 -25
32 -88 73 -113 73 -19 0 -139 58 -173 84 -18 13 -54 36 -82 50 -55 30 -130 75
-216 130 -32 21 -68 36 -85 36 -20 0 -39 10 -58 29 -15 16 -43 32 -61 35 -18
4 -59 24 -92 46 -37 25 -69 40 -89 40 -19 0 -47 12 -74 33 -117 87 -166 117
-195 117 -32 0 -57 14 -113 62 -18 15 -40 28 -48 28 -8 0 -49 20 -90 45 -40
25 -78 45 -83 45 -5 0 -18 11 -29 25 l-20 25 -69 0 -70 0 -11 -39z m-2872
-570 c106 -4 184 -11 197 -19 12 -7 39 -12 60 -12 21 0 58 -6 83 -14 76 -24
133 -37 190 -45 63 -9 169 -69 237 -135 l43 -41 0 -40 c0 -61 -30 -99 -107
-135 -63 -30 -204 -28 -300 5 -39 13 -90 33 -112 44 -22 12 -52 21 -66 21 -39
0 -153 56 -208 102 -26 22 -63 44 -81 49 -19 5 -61 33 -94 62 -33 28 -72 60
-86 70 -30 21 -32 36 -10 79 l16 30 31 -7 c18 -4 111 -10 207 -14z m5566
-1048 c23 -18 45 -33 49 -33 4 0 33 -20 63 -45 30 -25 62 -45 71 -45 26 0 41
-21 41 -57 0 -25 -4 -33 -17 -33 -35 1 -148 65 -168 95 -10 17 -33 40 -50 51
-31 20 -70 88 -60 105 7 11 17 6 71 -38z"/>
<path d="M7054 1257 l-44 -44 0 -55 c0 -73 22 -101 96 -123 l55 -16 42 23 c31
17 50 38 71 79 32 61 31 83 -7 140 l-23 34 -73 3 -73 3 -44 -44z"/>
</g>
</svg>
