<?xml version="1.0" standalone="no"?>
<!DOCTYPE svg PUBLIC "-//W3C//DTD SVG 20010904//EN"
 "http://www.w3.org/TR/2001/REC-SVG-20010904/DTD/svg10.dtd">
<svg version="1.0" xmlns="http://www.w3.org/2000/svg"
 width="654.000000pt" height="195.000000pt" viewBox="0 0 654.000000 195.000000"
 preserveAspectRatio="xMidYMid meet">
<metadata>
Created by potrace 1.16, written by Peter Selinger 2001-2019
</metadata>
<g transform="translate(0.000000,195.000000) scale(0.100000,-0.100000)"
fill="#000000" stroke="none">
<path d="M5236 1897 l-56 -53 0 -70 c0 -77 6 -87 67 -118 22 -11 58 -16 112
-16 l81 0 39 36 c29 25 44 51 56 90 19 65 13 80 -53 142 l-45 42 -73 0 -72 0
-56 -53z"/>
<path d="M0 1546 c0 -13 7 -30 16 -37 9 -8 27 -31 40 -51 19 -30 46 -49 134
-93 60 -30 116 -55 123 -55 7 0 24 -12 38 -26 32 -35 119 -78 227 -113 48 -15
102 -35 119 -44 45 -24 194 -68 293 -87 25 -5 69 -20 97 -34 30 -15 70 -26 93
-26 22 0 57 -7 77 -15 19 -8 45 -15 57 -15 11 0 54 -11 95 -25 l74 -25 33 10
c25 9 40 8 69 -5 21 -8 62 -15 92 -15 29 0 70 -7 90 -15 22 -9 67 -15 117 -15
44 0 101 -6 126 -14 98 -31 139 -39 240 -45 58 -4 115 -12 127 -19 14 -8 72
-12 168 -12 107 0 155 -4 182 -15 l35 -15 343 0 343 0 35 15 c46 19 128 19
174 0 45 -19 81 -19 126 0 20 8 54 15 76 15 23 0 66 12 103 30 39 18 79 30
105 30 25 0 67 12 106 30 36 16 77 30 92 30 34 0 94 31 160 83 29 23 74 57
100 76 l46 34 37 -11 c21 -6 62 -32 92 -58 30 -25 105 -80 167 -121 76 -50
122 -89 141 -116 50 -75 107 -127 139 -127 42 0 143 -38 182 -68 19 -15 53
-40 76 -57 24 -16 63 -47 86 -68 88 -77 162 -130 194 -138 18 -5 60 -33 94
-62 87 -75 158 -128 211 -157 25 -14 63 -38 85 -53 23 -15 53 -27 72 -27 17 0
35 -4 38 -10 8 -13 132 -13 140 0 3 6 15 10 27 10 28 0 158 128 165 163 3 15
10 30 14 33 12 7 11 191 -1 199 -5 3 -10 26 -10 51 0 63 -40 137 -90 169 -22
14 -51 42 -64 64 -14 21 -37 48 -53 60 -107 83 -144 110 -193 143 -30 21 -61
38 -68 38 -7 0 -42 17 -77 39 -35 21 -95 48 -132 60 l-68 22 -165 -4 c-93 -2
-185 -9 -210 -16 -145 -42 -181 -55 -196 -72 -10 -11 -32 -29 -50 -40 -41 -25
-70 -18 -126 30 -82 70 -143 116 -223 169 -44 30 -91 64 -105 76 -14 12 -41
33 -61 46 -20 13 -46 39 -59 58 -36 52 -63 65 -137 67 -52 1 -72 -3 -97 -20
l-31 -21 -3 -39 c-1 -22 -12 -74 -25 -114 -25 -85 -66 -135 -119 -146 -18 -4
-54 -20 -79 -36 -25 -16 -50 -29 -56 -29 -6 0 -41 -14 -77 -31 l-67 -31 -52 7
c-29 3 -65 6 -82 5 -16 -1 -47 -2 -67 -2 -21 1 -55 1 -75 1 -21 0 -51 1 -68 1
-16 1 -39 1 -50 0 -11 -1 -171 -4 -355 -6 l-335 -5 -40 15 c-31 12 -94 15
-287 15 l-246 0 -37 16 c-22 8 -67 15 -107 15 -38 0 -84 7 -105 15 -19 8 -53
15 -75 15 -21 0 -55 7 -75 15 -19 8 -60 15 -90 15 -29 0 -70 7 -90 15 -19 8
-53 15 -75 15 -21 0 -55 7 -75 15 -20 8 -66 15 -105 15 -38 0 -84 7 -105 15
-19 8 -45 15 -57 15 -12 0 -60 13 -106 30 -47 16 -96 30 -108 30 -13 0 -53 14
-89 30 -48 22 -79 30 -121 30 -43 0 -73 8 -120 30 -35 17 -69 30 -75 30 -20 0
-195 88 -231 115 -18 14 -55 32 -82 40 -27 8 -71 30 -98 50 -32 22 -61 35 -82
35 -17 0 -48 7 -67 15 -49 20 -57 19 -57 -9z m5805 -647 c33 -11 71 -29 85
-39 14 -9 48 -29 75 -43 57 -28 170 -126 240 -207 118 -138 158 -318 88 -401
l-26 -30 -56 7 c-74 9 -93 17 -138 57 -21 19 -54 42 -73 52 -19 9 -55 34 -80
55 -25 20 -65 47 -90 60 -42 21 -64 37 -201 144 -31 24 -71 52 -88 61 -18 9
-49 31 -69 49 -20 18 -48 36 -62 39 -28 7 -133 92 -138 112 -2 7 13 26 33 44
28 25 45 31 79 31 24 0 59 7 77 15 24 10 72 14 159 15 l126 0 59 -21z"/>
</g>
</svg>
