<?xml version="1.0" standalone="no"?>
<!DOCTYPE svg PUBLIC "-//W3C//DTD SVG 20010904//EN"
 "http://www.w3.org/TR/2001/REC-SVG-20010904/DTD/svg10.dtd">
<svg version="1.0" xmlns="http://www.w3.org/2000/svg"
 width="354.000000pt" height="156.000000pt" viewBox="0 0 354.000000 156.000000"
 preserveAspectRatio="xMidYMid meet">
<metadata>
Created by potrace 1.16, written by Peter Selinger 2001-2019
</metadata>
<g transform="translate(0.000000,156.000000) scale(0.100000,-0.100000)"
fill="#000000" stroke="none">
<path d="M23 1534 c-18 -19 -23 -36 -23 -77 l0 -52 33 -15 c24 -11 36 -27 47
-60 12 -35 27 -52 67 -80 49 -33 65 -55 91 -122 6 -14 33 -41 59 -58 27 -18
60 -48 73 -69 38 -57 102 -121 143 -142 l39 -20 24 16 c14 9 24 25 24 39 0 33
-101 184 -250 373 -23 28 -42 63 -43 78 l-2 26 394 0 394 -1 23 -15 c16 -10
49 -15 109 -15 54 0 99 -6 122 -15 19 -8 58 -15 85 -15 28 0 82 -10 121 -22
85 -28 133 -70 142 -125 3 -21 16 -69 28 -107 l22 -70 54 -37 c29 -20 77 -60
105 -88 51 -50 67 -57 226 -101 80 -22 188 -24 250 -4 82 27 90 36 90 110 0
34 -5 75 -10 90 -17 43 1 48 65 20 32 -15 62 -26 67 -26 20 0 85 -36 162 -88
43 -30 94 -59 113 -64 19 -5 63 -36 101 -72 37 -35 77 -68 90 -75 29 -15 54
-54 47 -73 -4 -9 -31 -33 -62 -54 -122 -85 -137 -119 -89 -212 44 -85 276
-292 328 -292 9 0 20 -5 23 -10 3 -6 46 -10 95 -10 l89 0 26 25 25 26 0 89 c0
49 -4 92 -10 95 -6 3 -10 21 -10 39 0 21 -11 48 -29 74 -17 22 -46 73 -67 114
-21 41 -61 99 -93 133 -32 33 -65 72 -74 86 -9 14 -49 50 -88 80 -39 30 -95
73 -124 96 -29 23 -84 57 -122 76 -38 19 -109 62 -158 96 -49 34 -96 61 -103
61 -21 0 -139 57 -175 84 -46 35 -113 66 -139 66 -26 0 -121 31 -186 61 -75
34 -227 77 -317 88 -34 5 -70 13 -82 19 -12 7 -40 12 -63 12 -22 0 -57 7 -77
15 -19 8 -60 15 -90 15 -29 0 -70 7 -90 15 -25 11 -72 15 -165 15 -92 0 -139
4 -165 15 -23 10 -69 15 -135 15 -65 0 -111 5 -135 15 l-35 15 -284 0 c-178 0
-285 4 -289 10 -3 6 -46 10 -98 9 l-92 -1 -22 -24z m2015 -414 c37 -23 78 -44
92 -47 13 -3 49 -31 80 -62 31 -31 68 -64 83 -74 33 -22 35 -50 5 -71 -35 -25
-66 -19 -167 29 -107 52 -161 91 -202 148 -27 38 -39 94 -22 110 17 17 70 4
131 -33z m1285 -764 l57 -53 0 -56 c0 -37 -5 -61 -16 -71 -19 -20 -16 -20 -70
4 -89 41 -179 163 -154 210 l11 20 57 0 57 0 58 -54z"/>
<path d="M3048 1516 c-40 -62 -37 -100 13 -169 41 -58 81 -87 118 -87 33 0
120 69 141 111 23 43 26 107 8 156 l-12 33 -121 0 -120 -1 -27 -43z"/>
</g>
</svg>
