<?xml version="1.0" standalone="no"?>
<!DOCTYPE svg PUBLIC "-//W3C//DTD SVG 20010904//EN"
 "http://www.w3.org/TR/2001/REC-SVG-20010904/DTD/svg10.dtd">
<svg version="1.0" xmlns="http://www.w3.org/2000/svg"
 width="585.000000pt" height="276.000000pt" viewBox="0 0 585.000000 276.000000"
 preserveAspectRatio="xMidYMid meet">
<metadata>
Created by potrace 1.16, written by Peter Selinger 2001-2019
</metadata>
<g transform="translate(0.000000,276.000000) scale(0.100000,-0.100000)"
fill="#000000" stroke="none">
<path d="M515 2751 c-6 -5 -39 -11 -75 -14 -102 -7 -247 -50 -360 -107 l-80
-40 0 -40 0 -39 30 -16 c38 -20 53 -19 101 6 64 32 181 69 220 69 20 0 53 7
72 15 l36 15 381 0 381 0 36 -15 c24 -10 71 -15 150 -15 78 0 125 -5 150 -15
19 -8 52 -15 71 -15 20 0 96 -20 169 -45 73 -25 148 -45 168 -45 20 0 52 -7
72 -15 19 -8 54 -15 77 -15 29 0 54 -9 86 -30 25 -16 59 -30 75 -30 17 0 50
-14 75 -30 25 -16 58 -30 73 -30 16 0 58 -13 94 -30 35 -16 70 -30 76 -30 7 0
26 -9 42 -21 41 -27 182 -99 196 -99 17 0 80 -31 114 -56 17 -12 66 -40 110
-62 44 -22 107 -63 140 -91 33 -27 90 -67 128 -87 37 -20 81 -54 98 -75 20
-26 43 -42 69 -49 23 -6 47 -21 57 -37 24 -34 243 -253 278 -277 16 -11 40
-46 57 -83 33 -74 28 -93 -29 -93 -61 0 -269 -84 -300 -122 -16 -19 -53 -133
-53 -161 0 -14 7 -41 15 -60 8 -20 15 -63 15 -95 l0 -59 29 -40 c16 -22 39
-60 51 -83 42 -83 167 -231 225 -268 22 -14 67 -51 100 -82 33 -30 79 -69 103
-85 24 -16 62 -45 85 -65 23 -20 55 -40 71 -44 17 -4 42 -16 57 -27 l27 -19
89 0 88 1 24 37 c24 36 42 134 43 232 0 50 -17 160 -30 193 -7 16 -12 44 -12
63 0 42 -61 227 -102 307 -38 77 -78 195 -71 213 10 28 51 26 142 -5 49 -17
106 -31 125 -31 20 0 53 -7 73 -15 19 -8 45 -15 57 -15 12 0 60 -13 106 -30
47 -16 96 -30 108 -30 66 0 112 -60 112 -144 l0 -56 50 -99 c52 -104 56 -110
104 -126 16 -5 43 -29 60 -52 21 -29 79 -75 181 -143 l150 -100 96 0 95 0 42
31 42 31 0 103 c0 59 -4 107 -10 110 -5 3 -10 16 -10 27 0 31 -191 221 -280
279 -69 44 -105 69 -180 125 -16 12 -67 34 -114 49 -47 14 -108 38 -136 51
-27 13 -62 24 -77 24 -16 0 -57 14 -91 30 -35 17 -75 30 -88 30 -14 0 -41 7
-61 15 -19 8 -59 15 -87 15 -28 0 -71 6 -96 14 -87 28 -136 38 -210 45 -41 4
-85 13 -97 19 -12 7 -40 12 -63 12 -63 0 -105 25 -152 92 -67 94 -171 213
-244 279 -21 19 -55 53 -74 75 -47 52 -214 188 -316 257 -22 15 -55 43 -74 62
-18 19 -49 40 -67 46 l-34 11 7 44 6 44 -17 6 c-9 4 -30 0 -45 -10 -31 -18
-49 -14 -95 20 -16 12 -52 34 -80 48 -27 15 -74 42 -103 60 -29 19 -92 46
-140 62 -48 15 -99 34 -113 43 -14 9 -48 29 -74 45 -26 16 -86 42 -134 58 -47
16 -110 40 -139 53 -29 14 -57 25 -63 25 -6 0 -40 14 -76 30 -35 17 -75 30
-89 30 -14 0 -41 7 -61 15 -19 8 -53 15 -75 15 -21 0 -55 7 -75 15 -19 8 -47
15 -60 15 -14 0 -54 14 -90 30 l-64 30 -100 0 c-66 0 -112 5 -136 15 -20 9
-66 15 -109 15 -40 0 -76 5 -79 10 -8 13 -757 14 -770 1z m3553 -1697 c12 -8
36 -41 52 -72 16 -31 38 -70 49 -87 12 -16 21 -37 21 -44 0 -8 12 -27 27 -43
31 -32 63 -117 63 -168 0 -19 14 -73 30 -120 17 -46 30 -94 30 -106 0 -12 7
-38 15 -57 17 -41 20 -183 5 -207 l-9 -15 -23 14 c-58 37 -125 71 -140 71 -9
0 -26 13 -38 30 -12 16 -45 46 -74 65 -69 46 -208 191 -237 247 -12 23 -37 60
-56 81 -43 48 -53 75 -53 141 0 30 -7 71 -16 92 -28 68 1 144 68 177 47 23
254 24 286 1z m1263 -313 c14 -9 58 -35 97 -59 39 -23 77 -50 84 -60 7 -10 43
-44 80 -76 64 -56 98 -110 98 -155 0 -25 -26 -51 -51 -51 -35 0 -105 38 -160
88 -30 26 -70 58 -90 71 -46 31 -159 199 -159 236 0 2 7 11 16 20 17 17 40 13
85 -14z"/>
<path d="M5110 1684 c-26 -23 -40 -45 -40 -61 0 -59 85 -163 134 -163 13 0 51
20 85 45 l61 45 0 38 c0 49 -21 77 -80 107 -71 36 -111 33 -160 -11z"/>
</g>
</svg>
