<?xml version="1.0" standalone="no"?>
<!DOCTYPE svg PUBLIC "-//W3C//DTD SVG 20010904//EN"
 "http://www.w3.org/TR/2001/REC-SVG-20010904/DTD/svg10.dtd">
<svg version="1.0" xmlns="http://www.w3.org/2000/svg"
 width="321.000000pt" height="399.000000pt" viewBox="0 0 321.000000 399.000000"
 preserveAspectRatio="xMidYMid meet">
<metadata>
Created by potrace 1.16, written by Peter Selinger 2001-2019
</metadata>
<g transform="translate(0.000000,399.000000) scale(0.100000,-0.100000)"
fill="#000000" stroke="none">
<path d="M1205 3980 c-3 -5 -15 -10 -26 -10 -31 0 -99 -68 -99 -99 1 -72 99
-160 181 -161 57 0 99 64 99 151 l0 52 -40 39 c-31 29 -49 38 -75 38 -19 0
-37 -4 -40 -10z"/>
<path d="M1345 3439 c-42 -40 -58 -63 -70 -104 l-15 -53 25 -74 c14 -40 25
-90 25 -111 0 -40 47 -143 103 -227 18 -26 46 -71 62 -100 17 -29 48 -83 70
-119 22 -37 49 -81 60 -100 11 -18 34 -56 52 -84 17 -29 42 -70 54 -92 12 -22
39 -59 60 -83 21 -24 41 -58 44 -75 4 -18 21 -48 39 -67 45 -49 79 -97 106
-150 12 -24 47 -80 77 -123 29 -44 63 -98 75 -121 11 -22 43 -65 70 -95 27
-30 61 -77 75 -105 14 -28 48 -76 76 -106 48 -53 86 -119 87 -150 0 -8 15 -30
34 -50 37 -39 136 -182 165 -239 11 -20 31 -47 45 -60 14 -14 26 -31 26 -38 0
-22 30 -76 61 -108 17 -18 31 -46 35 -72 l6 -42 -36 -22 c-20 -12 -56 -50 -81
-88 l-45 -67 0 -50 0 -50 30 -29 c17 -16 30 -36 30 -45 0 -27 28 -57 85 -89
30 -17 55 -38 55 -46 0 -31 -42 -45 -131 -45 -54 0 -100 -6 -122 -15 -52 -21
-362 -21 -414 0 -24 10 -71 15 -150 15 -78 0 -125 5 -150 15 -19 8 -60 15 -90
15 -29 0 -70 7 -90 15 -20 8 -66 15 -105 15 -38 0 -84 7 -105 15 -19 8 -48 15
-63 15 -35 0 -42 9 -68 93 -32 100 -68 163 -131 235 -78 90 -214 205 -284 243
-33 17 -94 55 -136 84 -83 57 -142 89 -181 98 -14 4 -44 22 -66 41 -54 46
-145 76 -231 76 -104 -1 -156 -24 -240 -106 l-73 -71 0 -105 0 -106 93 -95 92
-96 75 -37 c41 -20 96 -54 121 -75 35 -28 77 -48 169 -78 67 -23 134 -50 149
-60 34 -24 176 -69 286 -90 22 -4 95 -26 162 -49 68 -23 137 -42 155 -42 18 0
53 -6 78 -14 94 -30 138 -38 225 -45 50 -4 100 -12 112 -19 14 -8 74 -12 172
-12 89 0 152 -4 156 -10 8 -14 732 -14 740 0 3 6 19 10 34 10 16 0 45 7 64 15
20 8 48 15 63 15 15 0 48 13 73 29 25 16 58 31 72 35 42 9 99 79 99 120 0 19
4 38 10 41 12 8 13 149 1 173 -5 9 -13 29 -19 43 -6 15 -30 40 -54 56 -34 22
-54 49 -94 123 -28 52 -71 127 -97 165 -26 39 -47 76 -47 84 0 8 -38 72 -85
142 -47 71 -91 145 -98 165 -8 26 -26 48 -57 69 -32 22 -49 43 -58 71 -7 21
-30 57 -51 79 -43 45 -121 156 -153 219 -11 22 -36 59 -54 80 -19 22 -38 54
-43 71 -9 33 -54 104 -113 177 -20 24 -46 63 -58 88 -13 25 -45 69 -71 98 -27
30 -53 70 -59 91 -5 21 -19 46 -30 56 -28 26 -123 170 -160 245 -18 36 -43 79
-56 97 -14 18 -45 75 -70 127 l-46 94 11 21 c7 12 19 21 29 21 9 0 48 17 87
38 84 45 115 89 115 166 l0 50 -45 67 c-25 38 -60 78 -77 91 -17 13 -52 44
-77 69 -66 67 -96 79 -191 79 l-81 0 -54 -51z m224 -157 c39 -20 65 -42 94
-83 l39 -56 -11 -22 -12 -21 -74 0 c-82 0 -81 -1 -107 75 -25 70 -22 135 6
135 6 0 35 -13 65 -28z m-1085 -2367 c39 -20 96 -51 126 -71 30 -19 66 -37 80
-41 14 -3 42 -21 62 -39 21 -18 83 -63 138 -99 55 -37 108 -79 117 -93 10 -15
39 -51 66 -81 79 -89 109 -171 65 -179 -9 -2 -47 11 -83 27 -39 18 -83 31
-106 31 -22 0 -56 7 -76 15 -19 8 -47 15 -62 15 -14 0 -46 14 -71 30 -25 16
-52 30 -60 30 -8 0 -35 14 -60 30 -25 16 -51 30 -58 30 -25 0 -136 57 -207
105 -121 83 -134 96 -167 162 l-32 65 18 32 c28 52 60 65 155 66 l83 0 72 -35z
m2431 -446 c38 -34 71 -97 57 -111 -22 -22 -152 70 -152 107 0 15 26 34 47 35
7 0 28 -14 48 -31z"/>
</g>
</svg>
