<?xml version="1.0" standalone="no"?>
<!DOCTYPE svg PUBLIC "-//W3C//DTD SVG 20010904//EN"
 "http://www.w3.org/TR/2001/REC-SVG-20010904/DTD/svg10.dtd">
<svg version="1.0" xmlns="http://www.w3.org/2000/svg"
 width="414.000000pt" height="255.000000pt" viewBox="0 0 414.000000 255.000000"
 preserveAspectRatio="xMidYMid meet">
<metadata>
Created by potrace 1.16, written by Peter Selinger 2001-2019
</metadata>
<g transform="translate(0.000000,255.000000) scale(0.100000,-0.100000)"
fill="#000000" stroke="none">
<path d="M1938 2506 c-21 -32 -28 -56 -28 -93 l0 -49 48 -47 48 -47 65 0 65 0
47 48 47 48 0 48 0 48 -30 35 c-16 18 -30 38 -30 43 0 6 -43 10 -102 10 l-103
-1 -27 -43z"/>
<path d="M2285 2022 c-37 -20 -57 -40 -77 -77 -15 -28 -28 -58 -28 -68 0 -54
129 -237 168 -237 8 0 43 -13 79 -30 72 -34 131 -38 186 -15 20 8 57 15 81 15
35 0 53 6 78 28 63 54 80 62 139 62 l57 0 44 -35 c24 -19 66 -46 93 -61 28
-14 70 -43 95 -63 25 -21 56 -44 69 -51 29 -15 268 -244 329 -315 24 -27 55
-72 69 -100 14 -27 41 -68 60 -89 18 -22 38 -56 43 -76 5 -19 28 -66 50 -102
22 -37 40 -73 40 -80 0 -7 14 -33 30 -58 l30 -45 0 -86 c0 -56 6 -100 16 -124
l16 -38 -16 -41 c-9 -23 -16 -53 -16 -67 0 -35 -18 -49 -63 -49 -50 0 -108 28
-181 87 -64 52 -69 55 -106 72 -25 11 -123 68 -215 125 -26 16 -65 35 -87 43
-22 7 -56 25 -76 38 -20 14 -43 25 -52 25 -8 0 -35 14 -60 30 -25 16 -51 30
-58 30 -8 0 -43 14 -79 30 -35 17 -69 30 -75 30 -17 0 -81 32 -122 62 -21 15
-52 28 -68 28 -42 0 -154 54 -210 101 -31 26 -73 47 -127 65 -45 14 -131 50
-191 80 -61 30 -122 54 -136 54 -13 0 -41 7 -61 15 -19 8 -58 15 -86 15 -29 0
-91 13 -142 29 -103 33 -160 49 -227 61 -26 5 -56 13 -67 19 -11 6 -52 11 -91
11 -40 0 -86 6 -107 15 l-35 15 -268 0 -268 0 -35 -15 c-26 -10 -72 -15 -156
-15 l-119 0 -32 -39 c-36 -47 -78 -70 -140 -79 l-45 -7 -20 -33 c-11 -18 -37
-58 -57 -90 -30 -45 -38 -67 -38 -104 0 -26 -5 -50 -10 -53 -13 -8 -13 -102 0
-110 5 -3 10 -20 10 -36 0 -78 185 -350 249 -366 14 -3 48 -26 75 -49 62 -54
155 -104 192 -104 16 0 58 -14 92 -30 l64 -30 122 0 123 0 44 31 c24 17 65 52
92 77 l47 46 0 108 0 109 -24 47 c-13 26 -28 63 -34 83 -13 50 -75 129 -222
283 -69 72 -134 141 -144 153 l-19 23 13 15 c7 8 29 15 50 15 21 0 54 7 73 15
49 20 215 20 264 0 24 -10 71 -15 150 -15 78 0 125 -5 150 -15 19 -8 65 -15
102 -15 50 0 94 -10 183 -40 64 -21 135 -48 157 -59 22 -12 52 -21 66 -21 14
0 42 -7 62 -15 19 -8 47 -15 60 -15 55 0 113 -59 113 -114 0 -54 47 -122 137
-201 81 -70 240 -165 275 -165 8 0 25 -12 39 -26 44 -47 91 -64 176 -64 94 0
109 9 152 84 16 30 35 57 40 61 22 13 173 -48 228 -92 30 -24 85 -60 124 -79
38 -19 104 -59 146 -88 43 -29 92 -60 109 -69 17 -9 58 -39 90 -67 50 -43 85
-63 206 -122 38 -18 95 -9 127 19 16 16 48 43 69 60 50 42 82 132 82 233 0 38
5 72 10 75 6 3 10 21 10 40 0 19 -4 37 -10 40 -5 3 -10 31 -10 60 0 65 -60
254 -95 300 -12 17 -48 81 -79 142 -39 78 -66 120 -91 138 -19 15 -35 36 -35
47 0 10 -29 49 -64 87 -35 37 -75 86 -90 109 -15 24 -43 50 -66 62 -23 12 -69
50 -104 85 -36 38 -71 65 -82 65 -11 0 -31 12 -45 26 -13 14 -42 35 -64 46
-22 11 -60 37 -85 58 -25 20 -65 47 -90 60 -25 12 -65 39 -90 60 -47 39 -120
80 -142 80 -8 0 -51 25 -96 55 -46 30 -110 64 -142 75 l-59 20 -133 0 -133 0
-50 -28z m316 -135 c36 -12 76 -29 90 -39 l24 -16 -11 -19 c-6 -10 -31 -28
-55 -40 -84 -43 -197 -23 -263 46 -35 36 -30 46 37 73 57 23 100 22 178 -5z
m-2127 -852 c24 -31 109 -85 135 -85 16 0 161 -149 161 -165 0 -8 16 -26 36
-41 109 -83 178 -304 128 -410 -26 -55 -37 -59 -142 -57 l-95 3 -36 23 c-20
14 -57 34 -81 47 -93 47 -300 232 -300 268 0 10 -13 31 -30 47 l-30 29 1 100
c0 56 4 110 8 121 4 10 37 49 72 86 l64 68 41 0 42 1 26 -35z m2031 -345 c3
-5 19 -10 34 -10 41 0 111 -34 146 -70 l29 -30 -17 -17 -17 -17 -45 32 c-25
18 -49 32 -53 32 -5 0 -23 16 -42 35 -19 19 -40 35 -47 35 -7 0 -13 5 -13 10
0 6 4 10 9 10 6 0 13 -4 16 -10z"/>
</g>
</svg>
