<?xml version="1.0" standalone="no"?>
<!DOCTYPE svg PUBLIC "-//W3C//DTD SVG 20010904//EN"
 "http://www.w3.org/TR/2001/REC-SVG-20010904/DTD/svg10.dtd">
<svg version="1.0" xmlns="http://www.w3.org/2000/svg"
 width="363.000000pt" height="435.000000pt" viewBox="0 0 363.000000 435.000000"
 preserveAspectRatio="xMidYMid meet">
<metadata>
Created by potrace 1.16, written by Peter Selinger 2001-2019
</metadata>
<g transform="translate(0.000000,435.000000) scale(0.100000,-0.100000)"
fill="#000000" stroke="none">
<path d="M1455 4308 c-16 -23 -34 -47 -39 -54 -16 -20 14 -125 45 -156 l27
-28 55 0 c71 0 101 23 121 93 l15 53 -11 39 c-14 48 -35 75 -59 75 -10 0 -21
5 -24 10 -3 6 -27 10 -53 10 l-47 -1 -30 -41z"/>
<path d="M1485 3861 c-11 -5 -39 -10 -63 -10 -56 -1 -188 -67 -230 -116 -23
-25 -32 -46 -32 -70 0 -47 -26 -61 -76 -40 -20 8 -66 15 -103 15 -36 0 -86 6
-111 14 -78 25 -133 37 -195 45 -34 5 -70 13 -82 19 -12 7 -40 12 -63 12 -22
0 -57 7 -77 15 -19 8 -53 15 -75 15 -21 0 -55 7 -75 15 -19 8 -51 15 -69 15
-19 0 -54 5 -79 12 l-45 12 -55 -27 c-63 -31 -68 -47 -35 -115 24 -50 79 -82
140 -82 25 0 68 -12 107 -30 35 -16 69 -30 74 -30 14 0 124 -64 234 -137 52
-34 117 -74 145 -88 58 -30 174 -136 216 -197 15 -24 53 -70 84 -103 72 -77
148 -194 166 -252 8 -25 25 -61 39 -79 28 -37 85 -152 85 -172 0 -7 11 -34 24
-60 13 -26 29 -65 35 -87 6 -23 29 -71 51 -107 22 -37 40 -77 40 -90 0 -31 47
-159 121 -329 16 -36 29 -71 29 -77 0 -6 20 -52 45 -103 25 -51 45 -99 45
-107 0 -9 13 -36 29 -61 16 -25 31 -57 34 -71 4 -14 24 -55 47 -92 22 -37 40
-73 40 -81 0 -7 13 -26 30 -42 17 -16 30 -35 30 -42 0 -23 40 -95 80 -143 47
-58 100 -143 100 -161 0 -8 61 -77 135 -153 74 -77 135 -145 135 -152 0 -22
43 -62 98 -90 29 -14 64 -41 78 -60 14 -18 66 -60 116 -95 90 -60 275 -159
300 -159 7 0 33 -14 58 -30 25 -16 52 -30 60 -30 8 0 35 -14 60 -30 33 -22 57
-30 91 -30 25 0 50 -5 55 -10 7 -7 74 -9 180 -8 l169 3 3 48 3 47 -23 0 c-13
0 -43 6 -68 14 -86 27 -135 38 -210 46 -78 9 -157 33 -228 69 -23 12 -47 21
-55 21 -7 0 -24 12 -38 26 -13 14 -58 43 -99 64 -41 21 -96 56 -123 77 -26 21
-75 58 -108 83 -34 25 -75 59 -91 75 -109 114 -228 246 -239 266 -7 13 -29 44
-49 69 -21 25 -46 61 -55 80 -10 19 -33 52 -52 73 -36 40 -113 189 -113 217 0
9 -22 44 -49 78 -37 46 -56 83 -79 154 -17 51 -55 144 -86 207 -32 64 -56 128
-56 145 0 17 -11 48 -25 69 -14 20 -37 71 -51 113 -13 42 -32 90 -41 107 -8
17 -28 70 -43 117 -16 47 -53 136 -84 199 -31 63 -56 120 -56 128 0 18 -97
211 -125 248 -12 17 -34 53 -48 82 -15 28 -42 63 -60 77 -19 14 -46 48 -61 75
-14 27 -42 62 -62 78 -19 15 -49 42 -65 58 -41 42 -118 119 -157 158 -19 17
-37 35 -40 39 -4 4 -23 21 -42 37 l-35 30 13 13 13 13 48 -18 c27 -9 65 -17
85 -17 20 0 53 -7 73 -15 22 -9 67 -15 120 -15 52 0 97 -6 120 -15 19 -8 53
-15 75 -15 21 0 55 -7 75 -15 19 -8 52 -15 72 -15 20 0 56 -6 81 -14 103 -33
140 -39 239 -43 l105 -4 68 22 c90 29 108 51 108 136 0 88 -23 128 -108 192
-39 28 -76 58 -83 67 -16 19 -116 71 -178 91 -42 14 -67 19 -196 37 -22 3 -49
2 -60 -3z m162 -181 c35 -16 70 -30 77 -30 21 0 89 -53 119 -94 l29 -37 -12
-14 c-23 -27 -153 -20 -250 15 -47 16 -94 30 -105 30 -12 0 -45 9 -75 19 -129
45 -72 141 83 141 l69 0 65 -30z"/>
</g>
</svg>
