<?xml version="1.0" standalone="no"?>
<!DOCTYPE svg PUBLIC "-//W3C//DTD SVG 20010904//EN"
 "http://www.w3.org/TR/2001/REC-SVG-20010904/DTD/svg10.dtd">
<svg version="1.0" xmlns="http://www.w3.org/2000/svg"
 width="369.000000pt" height="447.000000pt" viewBox="0 0 369.000000 447.000000"
 preserveAspectRatio="xMidYMid meet">
<metadata>
Created by potrace 1.16, written by Peter Selinger 2001-2019
</metadata>
<g transform="translate(0.000000,447.000000) scale(0.100000,-0.100000)"
fill="#000000" stroke="none">
<path d="M2928 4443 c-46 -50 -50 -67 -33 -126 23 -79 131 -177 195 -177 23 0
76 24 101 47 9 8 27 46 39 85 l23 70 -21 44 c-31 62 -80 84 -192 84 l-86 0
-26 -27z"/>
<path d="M153 3993 l-53 -4 -40 -56 c-22 -31 -40 -64 -40 -74 0 -10 -5 -21
-10 -24 -13 -8 -13 -192 0 -200 6 -3 10 -14 10 -23 0 -10 34 -52 75 -93 l75
-75 102 -48 c117 -55 143 -68 213 -107 28 -16 64 -29 80 -29 17 0 55 -12 85
-26 67 -31 163 -64 187 -64 9 0 58 -13 108 -29 146 -47 175 -53 285 -60 58 -4
115 -12 127 -19 12 -7 40 -12 63 -12 22 0 57 -7 77 -15 19 -8 60 -15 90 -15
29 0 70 -7 90 -15 19 -8 53 -15 75 -15 21 0 55 -7 75 -15 19 -8 49 -15 65 -15
19 0 37 -9 53 -27 23 -26 79 -83 147 -149 47 -46 125 -140 152 -183 14 -22 46
-56 71 -77 25 -21 45 -45 45 -54 0 -9 12 -27 26 -41 14 -13 38 -44 52 -69 14
-25 48 -77 74 -117 34 -50 61 -109 89 -194 22 -67 51 -138 64 -157 14 -20 25
-49 25 -63 0 -15 7 -43 15 -62 20 -49 19 -80 -5 -102 -11 -10 -20 -23 -20 -30
0 -7 9 -20 20 -30 l20 -18 0 -159 0 -160 -30 -65 c-16 -35 -30 -69 -30 -75 0
-16 -32 -80 -56 -113 -32 -44 -84 -151 -84 -174 0 -20 55 -108 93 -149 12 -13
38 -32 58 -42 42 -22 199 -174 199 -194 0 -7 14 -32 31 -55 47 -66 89 -164 89
-209 l0 -41 -32 -23 -33 -23 -85 -3 c-47 -1 -95 -5 -107 -8 -34 -7 -28 -38 11
-68 l35 -26 126 0 127 0 35 28 c19 15 55 46 79 68 l44 41 0 82 c0 91 -11 122
-66 183 -18 20 -42 54 -53 75 -10 21 -85 103 -166 182 -80 79 -151 155 -156
169 -13 33 15 115 52 157 15 17 31 39 37 50 24 47 82 238 82 270 0 20 7 52 15
72 20 48 20 198 0 246 -9 23 -15 68 -15 120 0 53 -6 98 -15 120 -8 20 -15 54
-15 76 0 30 -20 81 -75 194 -41 84 -75 160 -75 169 0 9 -7 22 -16 29 -27 23
-100 122 -124 169 -12 25 -41 65 -65 90 -23 25 -50 59 -60 75 -11 17 -54 67
-97 113 -70 73 -98 114 -98 143 0 5 137 9 344 9 l344 0 35 15 c20 8 66 15 102
15 72 0 232 48 338 102 127 64 227 147 227 188 0 10 5 22 10 25 13 8 13 162 0
170 -5 3 -10 20 -10 36 0 55 -44 123 -108 167 -107 73 -132 82 -227 82 -53 0
-99 6 -122 15 -42 18 -116 20 -145 4 -11 -6 -41 -14 -66 -18 l-46 -6 -23 -34
c-13 -19 -25 -44 -27 -55 -3 -12 -10 -46 -16 -76 l-12 -55 15 -51 c24 -81 73
-168 110 -197 28 -21 77 -93 77 -113 0 -3 -19 -14 -42 -24 l-43 -20 -338 0
-338 0 -36 15 c-24 10 -71 15 -152 15 l-117 0 -37 45 c-21 25 -77 71 -125 102
-48 32 -107 76 -132 99 -25 23 -68 53 -97 68 -28 14 -64 42 -79 62 -27 35 -76
66 -124 77 -14 4 -43 22 -65 40 -45 39 -164 101 -212 111 -17 4 -51 24 -75 45
-24 21 -52 43 -63 49 -35 18 -143 52 -167 52 -13 0 -43 14 -68 30 -25 17 -58
30 -75 30 -16 0 -59 14 -93 30 l-64 30 -166 -2 c-92 -1 -191 -3 -219 -5z m473
-187 c40 -14 104 -41 143 -60 39 -20 76 -36 83 -36 26 0 144 -62 188 -99 47
-39 120 -81 142 -81 6 0 26 -13 43 -29 16 -16 82 -65 146 -108 133 -89 223
-168 215 -189 -7 -19 -67 -18 -113 1 -19 8 -59 15 -87 15 -28 0 -71 6 -96 14
-87 27 -136 38 -205 45 -71 7 -249 62 -323 100 -23 12 -52 21 -64 21 -42 0
-164 48 -304 119 -76 39 -146 76 -154 83 -36 30 -50 63 -50 121 l0 58 25 24
24 25 158 0 158 0 71 -24z m2678 -247 c162 -71 166 -75 166 -202 l0 -86 -30
-21 c-17 -12 -48 -24 -68 -26 l-37 -5 -63 41 c-35 23 -73 58 -87 80 -14 22
-38 46 -54 55 -42 21 -61 53 -61 102 l0 42 28 19 c59 42 112 42 206 1z"/>
</g>
</svg>
