<?xml version="1.0" standalone="no"?>
<!DOCTYPE svg PUBLIC "-//W3C//DTD SVG 20010904//EN"
 "http://www.w3.org/TR/2001/REC-SVG-20010904/DTD/svg10.dtd">
<svg version="1.0" xmlns="http://www.w3.org/2000/svg"
 width="564.000000pt" height="198.000000pt" viewBox="0 0 564.000000 198.000000"
 preserveAspectRatio="xMidYMid meet">
<metadata>
Created by potrace 1.16, written by Peter Selinger 2001-2019
</metadata>
<g transform="translate(0.000000,198.000000) scale(0.100000,-0.100000)"
fill="#000000" stroke="none">
<path d="M4298 1947 c-50 -44 -78 -104 -78 -168 l0 -53 63 -58 62 -58 60 0
c54 1 138 22 173 43 25 16 52 86 52 134 -1 46 -12 73 -65 160 l-20 33 -105 0
-105 0 -37 -33z"/>
<path d="M2700 1668 c-67 -24 -188 -137 -227 -213 -14 -27 -37 -64 -50 -81
-34 -46 -56 -125 -43 -160 7 -18 7 -37 0 -58 -19 -60 38 -191 129 -294 62 -71
133 -123 241 -177 39 -20 90 -49 112 -66 23 -16 48 -29 56 -29 26 0 163 -71
169 -87 11 -28 -26 -43 -103 -43 -41 0 -87 -6 -107 -15 -51 -21 -303 -21 -354
0 -24 10 -71 15 -150 15 -78 0 -125 5 -150 15 -24 10 -71 15 -150 15 -78 0
-125 5 -150 15 -22 9 -67 15 -120 15 -52 0 -97 6 -120 15 -19 8 -60 15 -90 15
-29 0 -70 7 -90 15 -20 8 -66 15 -105 15 -38 0 -84 7 -105 15 -22 9 -67 15
-120 15 -52 0 -97 6 -120 15 l-35 15 -379 0 c-258 0 -393 4 -423 12 -65 17
-97 0 -162 -88 l-54 -73 0 -75 0 -75 47 -38 c25 -21 70 -59 100 -85 37 -33 62
-48 82 -48 15 0 43 -5 61 -12 35 -12 120 3 148 25 19 15 72 122 72 145 0 11
-16 54 -36 96 -48 106 -48 106 128 106 101 0 148 -4 175 -15 23 -10 69 -15
135 -15 65 0 111 -5 135 -15 23 -10 69 -15 135 -15 65 0 111 -5 135 -15 24
-10 71 -15 150 -15 78 0 125 -5 150 -15 19 -8 60 -15 90 -15 29 0 70 -7 90
-15 22 -9 67 -15 120 -15 52 0 97 -6 120 -15 19 -8 65 -15 102 -15 36 0 86 -6
111 -14 121 -38 137 -40 424 -43 l290 -4 38 16 c21 8 56 15 77 15 21 0 55 7
74 15 20 8 47 15 61 15 14 0 54 14 89 30 74 34 93 36 144 15 19 -8 45 -15 56
-15 12 0 62 -13 112 -29 157 -51 176 -54 360 -60 115 -4 188 -10 202 -18 33
-19 280 -17 326 2 25 10 72 15 149 15 127 0 130 -1 213 -81 59 -56 163 -129
186 -129 9 0 41 -18 73 -40 l57 -40 178 0 177 0 25 27 c14 16 33 55 44 88 10
33 22 64 27 70 11 13 10 133 -2 140 -5 3 -10 20 -10 36 0 82 -232 429 -287
429 -8 0 -38 20 -66 45 -50 44 -211 135 -239 135 -7 0 -33 14 -58 30 -25 16
-51 30 -58 30 -28 0 -102 42 -119 67 -10 15 -43 53 -74 85 l-56 58 -99 0 -100
0 -47 -48 -47 -48 0 -46 c0 -25 7 -62 15 -81 8 -20 15 -48 15 -62 0 -14 10
-45 21 -68 12 -23 35 -82 51 -130 31 -97 49 -137 83 -182 12 -16 28 -47 36
-68 l14 -39 -24 -19 c-13 -10 -36 -19 -51 -19 -15 0 -44 -7 -63 -15 -51 -21
-303 -21 -354 0 -20 8 -66 15 -105 15 -38 0 -84 7 -105 15 -19 8 -59 15 -87
15 -28 0 -71 7 -96 15 -25 8 -61 17 -80 20 -19 3 -46 14 -60 25 l-25 19 14 23
c44 70 130 295 131 339 0 15 -7 43 -15 62 -8 20 -15 48 -15 62 0 14 -9 43 -20
65 -11 22 -20 52 -20 68 0 35 -68 141 -110 173 -18 13 -60 52 -95 85 -42 40
-97 79 -162 113 -54 29 -123 68 -153 87 -30 19 -66 37 -80 40 -14 2 -43 9 -65
16 -72 20 -204 18 -265 -4z m267 -163 c19 -8 46 -15 60 -15 25 0 97 -39 241
-132 99 -63 182 -146 182 -181 0 -13 12 -42 26 -63 42 -61 54 -98 54 -166 0
-93 -67 -275 -118 -321 -31 -29 -80 -31 -149 -8 -34 12 -73 21 -85 21 -13 0
-75 25 -138 56 -63 31 -135 62 -160 70 -51 15 -70 28 -194 134 l-89 75 -33 70
c-38 78 -41 100 -19 152 8 19 15 54 15 77 0 32 10 56 46 111 47 72 65 88 124
117 46 23 186 24 237 3z m1701 -522 c32 -32 69 -66 83 -75 59 -38 90 -233 50
-308 -27 -52 -48 -45 -102 35 -71 104 -150 352 -125 393 14 23 37 12 94 -45z
m476 -234 c43 -29 92 -73 111 -99 19 -26 50 -58 70 -71 36 -25 42 -35 94 -155
52 -119 37 -223 -38 -268 l-32 -19 -38 12 c-21 6 -48 11 -61 11 -54 0 -180 74
-298 176 l-36 31 13 56 c7 33 29 80 52 114 l39 58 0 109 0 108 24 -6 c13 -3
58 -29 100 -57z m-4851 -347 l19 -32 -12 -15 c-19 -22 -58 -18 -85 10 -29 28
-31 38 -9 60 26 25 65 15 87 -23z"/>
</g>
</svg>
