<?xml version="1.0" standalone="no"?>
<!DOCTYPE svg PUBLIC "-//W3C//DTD SVG 20010904//EN"
 "http://www.w3.org/TR/2001/REC-SVG-20010904/DTD/svg10.dtd">
<svg version="1.0" xmlns="http://www.w3.org/2000/svg"
 width="288.000000pt" height="426.000000pt" viewBox="0 0 288.000000 426.000000"
 preserveAspectRatio="xMidYMid meet">
<metadata>
Created by potrace 1.16, written by Peter Selinger 2001-2019
</metadata>
<g transform="translate(0.000000,426.000000) scale(0.100000,-0.100000)"
fill="#000000" stroke="none">
<path d="M75 4243 c-16 -9 -40 -25 -52 -36 l-23 -20 0 -58 0 -57 42 -31 c51
-38 96 -40 153 -8 42 24 85 86 85 126 0 16 -15 38 -42 63 l-41 38 -46 -1 c-25
-1 -59 -8 -76 -16z"/>
<path d="M290 3654 l-62 -46 7 -106 7 -107 30 -60 c58 -115 132 -208 203 -253
22 -14 67 -51 100 -82 33 -32 75 -65 93 -74 18 -10 50 -32 70 -51 20 -18 93
-61 162 -96 69 -34 139 -72 155 -85 39 -29 235 -94 284 -94 21 0 55 7 74 15
49 20 100 19 150 -4 49 -23 67 -40 96 -98 11 -23 38 -54 60 -70 21 -15 49 -43
62 -63 13 -19 42 -55 64 -80 22 -25 63 -79 90 -120 27 -41 70 -99 97 -128 26
-30 51 -66 54 -80 10 -39 40 -96 60 -113 31 -26 91 -114 129 -190 21 -41 50
-92 66 -114 31 -44 79 -175 79 -216 0 -14 15 -47 34 -74 33 -46 116 -268 116
-311 0 -11 14 -57 30 -104 17 -46 30 -101 30 -123 0 -21 5 -48 11 -59 18 -33
40 -253 29 -283 -6 -15 -10 -45 -10 -68 0 -51 -34 -105 -85 -137 l-36 -22 -40
17 c-25 12 -39 25 -39 37 0 10 5 18 10 18 6 0 29 38 52 84 l41 83 -19 63 c-14
46 -28 69 -53 88 -18 15 -44 43 -57 64 -15 24 -43 47 -75 64 -28 14 -69 39
-92 55 l-40 29 -84 0 -85 0 -29 -29 c-20 -20 -29 -40 -29 -61 0 -42 36 -145
66 -189 13 -19 24 -42 24 -51 0 -8 18 -41 40 -73 22 -33 42 -73 45 -91 8 -40
126 -164 213 -223 l62 -43 74 0 c41 0 78 5 81 10 3 5 13 10 22 10 9 0 45 19
81 42 76 51 152 154 152 205 0 18 5 35 10 38 13 8 13 342 0 350 -5 3 -10 25
-10 48 0 23 -14 80 -30 127 -17 46 -30 93 -30 105 0 11 -14 58 -30 105 -17 46
-30 101 -30 122 0 21 -11 60 -24 86 -13 26 -29 65 -35 87 -6 23 -29 71 -51
107 -22 37 -40 71 -40 77 0 5 -27 65 -60 132 -33 67 -60 129 -60 139 0 9 -12
27 -26 41 -14 13 -43 53 -64 89 -21 36 -56 86 -79 112 -23 25 -41 53 -41 62 0
9 -20 38 -44 64 -24 26 -68 83 -97 127 -77 114 -125 177 -195 254 -34 37 -73
85 -86 107 -14 21 -47 58 -74 81 -27 23 -61 53 -76 67 l-28 25 0 44 c0 25 -7
61 -15 80 -8 20 -15 48 -15 62 0 14 -29 83 -64 153 l-64 127 -63 50 c-34 28
-80 76 -102 108 l-39 58 -79 40 c-43 21 -84 39 -91 39 -7 0 -42 14 -76 30
l-64 30 -107 0 c-114 0 -131 -6 -131 -47 0 -36 -25 -38 -93 -10 -34 14 -72 28
-84 32 -12 3 -58 24 -103 46 -44 21 -89 39 -99 39 -10 0 -47 -21 -81 -46z
m657 -145 c43 -15 83 -38 123 -73 32 -28 69 -58 82 -68 23 -16 84 -118 70
-118 -25 2 -119 42 -132 57 -21 24 -94 75 -156 107 -58 30 -119 89 -110 105
11 17 53 13 123 -10z m-469 -26 c21 -9 51 -27 67 -39 17 -12 59 -37 94 -54 35
-18 80 -47 100 -65 20 -18 50 -40 67 -48 43 -22 163 -104 194 -132 14 -13 48
-34 75 -49 66 -34 77 -43 113 -96 18 -27 54 -59 88 -80 101 -62 122 -150 36
-150 -20 0 -57 7 -82 15 -25 8 -61 17 -81 20 -23 3 -53 20 -80 44 -24 21 -89
61 -144 90 l-100 51 -62 69 c-40 44 -72 70 -90 74 -38 7 -171 126 -203 181
-14 23 -37 57 -52 75 -32 37 -35 57 -12 89 18 26 25 27 72 5z m812 -263 c27
-27 26 -43 -2 -35 -23 7 -48 32 -48 47 0 15 30 8 50 -12z m1016 -2724 c26 -18
59 -90 51 -110 -8 -19 -43 -21 -54 -3 -8 13 -42 108 -43 120 0 12 24 8 46 -7z"/>
</g>
</svg>
