<?xml version="1.0" standalone="no"?>
<!DOCTYPE svg PUBLIC "-//W3C//DTD SVG 20010904//EN"
 "http://www.w3.org/TR/2001/REC-SVG-20010904/DTD/svg10.dtd">
<svg version="1.0" xmlns="http://www.w3.org/2000/svg"
 width="807.000000pt" height="252.000000pt" viewBox="0 0 807.000000 252.000000"
 preserveAspectRatio="xMidYMid meet">
<metadata>
Created by potrace 1.16, written by Peter Selinger 2001-2019
</metadata>
<g transform="translate(0.000000,252.000000) scale(0.100000,-0.100000)"
fill="#000000" stroke="none">
<path d="M0 2470 c0 -34 4 -50 13 -50 7 0 50 -25 95 -55 46 -30 102 -65 125
-76 23 -12 56 -32 72 -44 35 -27 169 -95 186 -95 17 0 80 -31 114 -56 36 -26
170 -94 186 -94 17 0 80 -31 114 -56 36 -26 170 -94 186 -94 17 0 145 -65 209
-106 30 -19 72 -39 92 -44 42 -12 71 -26 113 -56 39 -28 171 -94 187 -94 14 0
65 -26 149 -77 29 -17 90 -44 135 -58 51 -16 96 -38 120 -59 52 -44 176 -106
213 -106 19 0 45 -13 73 -35 44 -35 189 -115 209 -115 17 0 80 -31 114 -56 42
-31 164 -90 202 -98 17 -4 52 -25 76 -47 25 -21 50 -39 57 -39 6 0 40 -13 74
-29 34 -16 76 -32 93 -35 18 -4 52 -25 76 -47 25 -21 50 -39 57 -39 6 0 41
-13 77 -30 35 -16 69 -30 75 -30 16 0 80 -32 113 -56 36 -26 170 -94 186 -94
17 0 80 -31 114 -56 35 -26 170 -94 185 -94 24 0 97 -41 144 -79 26 -23 55
-41 63 -41 14 0 105 -50 204 -114 30 -20 61 -36 68 -36 17 0 100 -39 133 -61
18 -13 44 -19 85 -19 l60 0 21 23 c12 13 22 32 22 43 0 32 -98 112 -196 162
-44 22 -156 97 -212 141 -33 25 -47 40 -135 131 -24 25 -56 54 -72 64 -26 18
-85 128 -85 160 0 8 16 28 35 45 41 36 92 41 152 16 27 -12 81 -15 240 -15
158 0 212 -3 240 -15 27 -12 81 -15 240 -15 158 0 212 -3 240 -15 28 -12 86
-15 285 -15 198 0 256 -3 285 -15 l35 -15 778 0 778 0 35 15 c25 10 71 15 147
15 85 0 125 5 172 21 82 27 157 66 191 97 l27 26 0 47 0 47 -47 41 c-56 48
-172 111 -260 140 -45 15 -88 21 -153 21 l-91 0 -25 -25 -25 -25 11 -20 c6
-12 21 -25 33 -29 12 -5 47 -19 77 -31 30 -12 91 -35 134 -50 71 -25 106 -48
106 -72 0 -5 -15 -17 -33 -28 l-32 -20 -1118 0 -1118 0 -36 15 c-28 12 -86 15
-285 15 -198 0 -256 3 -285 15 -26 11 -74 15 -180 15 -105 0 -153 4 -180 15
-25 11 -72 15 -165 15 -92 0 -139 4 -165 15 -21 9 -67 15 -114 15 l-79 0 -38
-35 c-21 -19 -47 -53 -57 -75 l-18 -40 13 -56 c8 -31 26 -74 42 -95 30 -42 37
-79 14 -79 -7 0 -39 15 -70 34 -31 18 -95 46 -142 61 -94 30 -113 39 -159 71
-37 27 -171 94 -186 94 -17 0 -80 31 -114 56 -38 27 -170 94 -187 94 -8 0 -30
11 -51 25 -65 45 -236 125 -265 125 -32 0 -58 16 -124 77 -26 24 -55 43 -64
43 -21 0 -142 60 -214 106 -30 19 -71 39 -90 44 -42 11 -134 57 -210 106 -30
19 -71 39 -90 44 -19 5 -59 21 -88 35 -28 14 -58 25 -65 25 -8 0 -24 12 -38
26 -31 33 -60 48 -156 79 -101 32 -119 41 -175 87 -29 24 -75 47 -125 63 -89
29 -116 41 -158 71 -39 28 -171 94 -188 94 -7 0 -82 34 -166 75 -84 41 -158
75 -164 75 -7 0 -25 9 -42 21 -43 29 -242 129 -258 129 -7 0 -29 12 -50 26
-52 35 -231 124 -250 124 -9 0 -19 5 -22 10 -3 6 -24 10 -46 10 l-39 0 0 -50z"/>
<path d="M7148 1875 c-26 -14 -54 -35 -62 -47 -21 -29 -21 -117 0 -146 21 -31
106 -72 148 -72 43 0 97 44 127 102 l20 38 -12 43 c-16 54 -24 64 -70 88 -50
25 -94 23 -151 -6z"/>
</g>
</svg>
