<?xml version="1.0" standalone="no"?>
<!DOCTYPE svg PUBLIC "-//W3C//DTD SVG 20010904//EN"
 "http://www.w3.org/TR/2001/REC-SVG-20010904/DTD/svg10.dtd">
<svg version="1.0" xmlns="http://www.w3.org/2000/svg"
 width="462.000000pt" height="222.000000pt" viewBox="0 0 462.000000 222.000000"
 preserveAspectRatio="xMidYMid meet">
<metadata>
Created by potrace 1.16, written by Peter Selinger 2001-2019
</metadata>
<g transform="translate(0.000000,222.000000) scale(0.100000,-0.100000)"
fill="#000000" stroke="none">
<path d="M3618 2193 c-44 -48 -50 -68 -37 -116 16 -54 24 -64 70 -88 56 -28
77 -24 125 25 l44 43 0 48 c0 27 -5 64 -12 82 l-12 33 -76 0 -76 0 -26 -27z"/>
<path d="M140 1542 l-30 -30 0 -55 c0 -39 5 -58 18 -69 32 -28 81 -48 119 -48
59 0 178 -43 238 -86 39 -28 171 -94 188 -94 7 0 24 -12 38 -26 13 -14 61 -50
106 -81 86 -57 206 -175 218 -213 5 -14 2 -28 -8 -37 l-15 -15 -93 30 c-126
40 -173 52 -244 61 -34 5 -70 13 -82 19 -33 18 -252 16 -296 -3 -20 -8 -48
-15 -62 -15 -45 0 -121 -47 -179 -111 -57 -63 -68 -96 -47 -137 5 -9 15 -32
22 -51 21 -56 104 -174 152 -216 25 -22 73 -60 107 -85 34 -25 87 -65 117 -89
31 -24 113 -72 183 -107 101 -51 137 -64 173 -64 25 0 49 -4 52 -10 8 -13 102
-13 110 0 3 6 21 10 38 10 19 0 51 12 77 30 25 16 51 30 58 30 26 0 108 49
144 87 70 73 118 154 118 200 0 24 7 61 16 83 17 41 15 68 -6 150 -35 132 -54
176 -112 263 -72 108 -118 159 -172 194 -22 14 -60 44 -85 67 -42 39 -155 117
-208 145 -13 6 -23 18 -23 26 l0 15 165 0 c125 0 175 -4 202 -15 20 -8 66 -15
105 -15 38 0 84 -7 105 -15 20 -8 66 -15 105 -15 38 0 84 -7 105 -15 20 -8 66
-15 105 -15 38 0 84 -7 105 -15 22 -9 67 -15 120 -15 52 0 97 -6 120 -15 27
-12 81 -15 240 -15 158 0 212 -3 240 -15 22 -9 67 -15 120 -15 52 0 97 -6 120
-15 22 -9 67 -15 120 -15 52 0 97 -6 120 -15 24 -10 71 -15 149 -15 62 0 125
-5 141 -11 15 -6 111 -13 213 -16 122 -4 197 -10 219 -19 26 -11 111 -14 388
-14 l354 0 61 21 c33 11 76 32 94 46 l34 25 0 68 0 67 -49 42 c-47 39 -236
141 -263 141 -7 0 -38 12 -68 26 -92 43 -167 64 -225 64 -112 0 -193 -73 -137
-123 14 -12 37 -17 87 -17 93 0 263 -57 331 -111 27 -21 60 -47 74 -57 l24
-20 -13 -16 -13 -16 -140 0 c-101 0 -148 4 -175 15 l-35 15 -265 0 -264 0 -36
15 c-27 12 -81 15 -240 15 -158 0 -212 3 -240 15 -23 10 -69 15 -135 15 -65 0
-111 5 -135 15 -20 8 -66 15 -105 15 -38 0 -84 7 -105 15 -22 9 -67 15 -120
15 -52 0 -97 6 -120 15 -22 9 -67 15 -120 15 -52 0 -97 6 -120 15 -27 12 -79
15 -225 15 -145 0 -197 3 -225 15 -19 8 -60 15 -90 15 -29 0 -70 7 -90 15 -20
8 -66 15 -105 15 -38 0 -84 7 -105 15 -20 8 -66 15 -105 15 -38 0 -84 7 -105
15 -20 8 -66 15 -105 15 -38 0 -84 7 -105 15 -24 10 -70 15 -147 15 -68 0
-128 5 -156 14 -95 30 -137 39 -207 43 l-73 5 -30 -30z m577 -817 c19 -8 54
-15 76 -15 28 0 56 -10 91 -32 103 -64 116 -87 65 -114 -25 -12 -50 -15 -123
-10 -50 2 -107 8 -126 11 -68 13 -140 -67 -95 -105 42 -35 118 -49 265 -50
l145 0 63 27 64 27 9 -15 c5 -8 9 -36 9 -62 l0 -48 -46 -54 c-26 -30 -73 -70
-104 -89 l-58 -36 -82 0 -82 0 -72 35 c-39 20 -96 51 -126 71 -30 19 -66 37
-80 41 -14 3 -42 21 -63 40 -21 19 -62 49 -92 68 -39 26 -67 55 -104 112 -53
80 -70 130 -53 158 5 10 31 26 58 35 l49 18 188 1 c146 1 196 -2 224 -14z"/>
</g>
</svg>
