<?xml version="1.0" standalone="no"?>
<!DOCTYPE svg PUBLIC "-//W3C//DTD SVG 20010904//EN"
 "http://www.w3.org/TR/2001/REC-SVG-20010904/DTD/svg10.dtd">
<svg version="1.0" xmlns="http://www.w3.org/2000/svg"
 width="303.000000pt" height="135.000000pt" viewBox="0 0 303.000000 135.000000"
 preserveAspectRatio="xMidYMid meet">
<metadata>
Created by potrace 1.16, written by Peter Selinger 2001-2019
</metadata>
<g transform="translate(0.000000,135.000000) scale(0.100000,-0.100000)"
fill="#000000" stroke="none">
<path d="M70 1341 c0 -5 -16 -24 -35 -42 l-35 -33 0 -58 c0 -31 5 -60 10 -63
6 -3 10 -15 10 -25 0 -59 167 -147 400 -210 25 -7 86 -15 135 -19 50 -4 100
-12 112 -19 12 -7 47 -12 78 -12 30 0 72 -7 92 -15 19 -8 53 -15 75 -15 21 0
55 -7 75 -15 19 -8 53 -15 75 -15 21 0 55 -7 75 -15 19 -8 54 -15 78 -15 51 0
95 -29 176 -117 64 -69 102 -163 97 -235 l-3 -43 -31 -3 c-18 -2 -49 4 -69 12
-21 9 -48 16 -61 16 -13 0 -42 7 -64 16 l-41 17 -102 -34 -102 -33 -47 -45
-48 -45 0 -67 0 -66 31 -44 c17 -24 43 -56 57 -71 l26 -28 152 0 c91 0 155 4
159 10 3 5 26 10 50 10 l43 0 43 36 c23 19 59 44 80 54 37 19 95 95 138 178
l21 41 0 106 0 106 -21 42 c-12 23 -33 58 -46 78 l-25 37 12 21 11 21 100 0
c66 0 112 -5 136 -15 l35 -15 417 0 416 1 99 33 99 34 38 43 38 44 1 98 c0 61
-4 97 -10 97 -6 0 -22 11 -36 25 -14 14 -43 34 -66 46 -22 11 -59 34 -81 50
-22 16 -53 29 -69 29 -16 0 -45 7 -65 15 -26 11 -75 15 -188 15 l-152 0 -16
-18 c-22 -24 -21 -55 1 -75 14 -13 37 -17 88 -17 72 0 141 -19 242 -66 29 -13
66 -24 82 -24 50 0 94 -82 66 -125 -30 -46 -92 -64 -238 -71 -73 -3 -144 -5
-158 -5 -311 11 -408 18 -427 29 -15 8 -72 12 -183 12 -120 0 -170 4 -197 15
-20 8 -66 15 -105 15 -38 0 -84 7 -105 15 -19 8 -47 15 -62 15 -16 0 -61 23
-110 56 -52 34 -114 65 -164 81 -44 14 -110 41 -148 59 -77 37 -179 74 -206
74 -25 0 -216 65 -281 95 -29 14 -66 25 -82 25 -16 0 -32 5 -35 10 -8 13 -255
13 -255 1z m348 -186 c57 -20 123 -45 145 -57 23 -12 60 -25 82 -29 61 -12
145 -42 145 -52 0 -5 -15 -6 -32 -3 -18 4 -62 11 -98 15 -36 4 -75 13 -87 19
-12 7 -36 12 -53 12 -17 0 -47 7 -67 15 -19 8 -47 15 -61 15 -28 0 -125 45
-142 66 -7 7 -9 18 -5 24 11 19 69 10 173 -25z m926 -916 c58 -46 10 -79 -114
-79 -115 0 -144 22 -104 78 l15 22 88 0 88 0 27 -21z"/>
</g>
</svg>
