<?xml version="1.0" standalone="no"?>
<!DOCTYPE svg PUBLIC "-//W3C//DTD SVG 20010904//EN"
 "http://www.w3.org/TR/2001/REC-SVG-20010904/DTD/svg10.dtd">
<svg version="1.0" xmlns="http://www.w3.org/2000/svg"
 width="312.000000pt" height="483.000000pt" viewBox="0 0 312.000000 483.000000"
 preserveAspectRatio="xMidYMid meet">
<metadata>
Created by potrace 1.16, written by Peter Selinger 2001-2019
</metadata>
<g transform="translate(0.000000,483.000000) scale(0.100000,-0.100000)"
fill="#000000" stroke="none">
<path d="M913 4797 c-16 -18 -35 -48 -42 -66 l-14 -32 19 -57 c27 -86 36 -92
115 -92 l68 0 41 55 c22 30 40 64 40 77 0 36 -42 101 -75 117 -17 8 -38 18
-47 23 -38 18 -75 9 -105 -25z"/>
<path d="M1523 4443 c-19 -7 -16 -47 7 -76 11 -14 35 -28 56 -32 25 -4 51 -21
83 -54 25 -27 56 -53 69 -60 36 -19 55 -56 42 -80 l-11 -21 -70 0 c-88 0 -134
20 -217 94 l-63 56 -55 0 -56 0 -29 -29 -29 -29 0 -55 c0 -58 14 -79 60 -90
14 -4 44 -22 66 -41 23 -19 74 -52 115 -72 86 -43 137 -80 195 -141 22 -24 49
-43 59 -43 9 0 47 -32 83 -71 43 -46 75 -72 95 -76 21 -4 38 -19 57 -50 16
-25 47 -63 69 -86 22 -23 74 -77 116 -119 41 -43 75 -82 75 -88 0 -20 32 -75
65 -110 50 -54 85 -112 85 -141 0 -15 6 -42 14 -60 7 -19 16 -69 20 -111 l7
-77 -21 -60 c-11 -33 -20 -71 -20 -85 0 -18 -17 -36 -69 -75 -68 -51 -141
-140 -141 -174 0 -29 97 -212 129 -245 64 -63 29 -75 -98 -35 -148 48 -179 55
-276 63 -49 4 -103 12 -120 18 -53 18 -118 33 -180 41 -34 5 -70 13 -82 19
-12 7 -47 12 -78 12 -30 0 -72 7 -92 15 -20 8 -66 15 -105 15 -38 0 -84 7
-105 15 -51 22 -435 22 -486 0 -20 -8 -61 -15 -92 -15 -68 0 -109 -20 -205
-97 l-70 -56 0 -71 0 -71 121 -120 c113 -110 179 -187 179 -206 0 -15 -32 -39
-53 -39 -12 0 -62 20 -112 43 -49 24 -102 47 -117 50 -14 4 -50 29 -80 56 -75
68 -124 91 -198 91 l-60 0 0 -85 c0 -53 4 -85 11 -85 19 0 94 -38 111 -57 8
-10 25 -37 37 -60 11 -23 38 -54 60 -70 22 -15 52 -48 67 -71 16 -24 49 -58
75 -75 26 -17 60 -50 75 -75 16 -24 49 -58 75 -75 26 -17 60 -50 75 -75 16
-24 49 -58 75 -75 26 -17 60 -50 75 -75 16 -24 49 -57 74 -74 25 -16 57 -47
73 -68 15 -21 83 -96 151 -167 68 -71 149 -167 180 -213 32 -49 74 -98 98
-116 30 -21 48 -44 58 -74 12 -34 27 -52 67 -79 28 -20 65 -57 82 -82 17 -26
50 -64 74 -83 l44 -36 57 0 56 0 0 17 c0 21 -62 114 -116 173 -22 25 -49 59
-59 75 -11 17 -38 50 -60 75 -23 25 -50 59 -60 75 -11 17 -67 80 -126 141 -83
85 -110 120 -119 152 -7 28 -23 51 -49 72 -21 17 -50 53 -65 80 -25 45 -59 81
-120 123 -15 10 -37 40 -50 66 -27 52 -41 67 -71 73 -11 2 -35 28 -55 61 -21
35 -53 71 -80 89 -25 17 -52 40 -60 52 -8 12 -30 38 -48 58 -19 21 -32 45 -30
54 2 9 51 41 113 72 l110 57 22 40 c13 22 23 49 23 59 0 26 -85 153 -113 168
-47 25 -127 91 -127 105 0 9 -16 33 -35 54 -40 45 -53 83 -34 105 26 31 96 54
167 54 39 0 85 7 105 15 50 21 323 21 387 1 105 -33 143 -39 285 -45 90 -4
159 -11 172 -19 12 -6 39 -12 60 -12 41 0 157 -36 222 -69 22 -12 52 -21 66
-21 14 0 42 -7 62 -15 19 -8 61 -15 92 -15 41 0 72 -8 119 -30 35 -17 69 -30
76 -30 7 0 25 -13 41 -30 16 -16 35 -30 43 -30 26 0 128 -53 222 -115 52 -35
110 -66 129 -70 21 -5 50 -24 80 -55 48 -50 97 -80 129 -80 11 0 32 16 46 35
15 19 38 38 51 41 l25 6 0 39 c0 21 -5 39 -11 39 -25 0 -148 64 -190 100 -26
22 -74 53 -107 70 -69 35 -252 205 -252 234 0 10 -23 40 -50 67 -90 87 -92
131 -15 289 65 132 95 215 95 265 0 20 7 52 15 72 19 45 19 81 0 126 -8 20
-15 48 -15 62 0 34 -91 214 -124 244 -14 14 -26 32 -26 40 0 35 -146 220 -244
310 -22 20 -90 84 -151 144 -62 59 -117 107 -122 107 -15 0 -74 63 -85 89 l-9
25 60 60 c45 45 64 74 75 110 l15 49 -12 45 -12 45 -55 42 c-30 23 -64 53 -75
65 -53 59 -242 118 -302 93z"/>
</g>
</svg>
