<?xml version="1.0" standalone="no"?>
<!DOCTYPE svg PUBLIC "-//W3C//DTD SVG 20010904//EN"
 "http://www.w3.org/TR/2001/REC-SVG-20010904/DTD/svg10.dtd">
<svg version="1.0" xmlns="http://www.w3.org/2000/svg"
 width="456.000000pt" height="156.000000pt" viewBox="0 0 456.000000 156.000000"
 preserveAspectRatio="xMidYMid meet">
<metadata>
Created by potrace 1.16, written by Peter Selinger 2001-2019
</metadata>
<g transform="translate(0.000000,156.000000) scale(0.100000,-0.100000)"
fill="#000000" stroke="none">
<path d="M3902 1522 l-42 -39 0 -52 c0 -29 5 -62 11 -73 6 -11 14 -41 18 -66
l6 -46 34 -23 c19 -13 46 -23 61 -23 50 0 130 113 130 182 -1 31 -16 65 -65
145 l-20 33 -46 0 -46 0 -41 -38z"/>
<path d="M3907 772 c-23 -25 -22 -85 1 -105 23 -21 33 -21 93 0 l48 17 53 -16
c73 -22 135 -38 187 -47 72 -13 103 -75 65 -129 -14 -21 -90 -62 -114 -62 -6
0 -29 -9 -51 -21 -22 -11 -73 -31 -112 -44 l-72 -25 -393 0 -393 0 -36 15
c-19 8 -54 15 -77 15 -34 0 -48 6 -71 30 l-29 30 -43 0 c-24 0 -60 7 -80 15
-19 8 -53 15 -75 15 -21 0 -55 7 -75 15 -19 8 -47 15 -62 15 -28 0 -54 15
-109 62 l-33 28 -54 0 -54 0 -36 -32 c-48 -42 -85 -116 -85 -171 l0 -43 -50
-47 c-53 -50 -142 -97 -183 -97 -14 0 -41 -7 -60 -15 l-36 -15 -351 0 -351 0
-36 15 c-24 10 -71 15 -150 15 -78 0 -125 5 -150 15 -19 8 -45 15 -56 15 -12
0 -81 20 -154 45 -73 25 -140 45 -149 45 -38 0 -146 44 -181 75 -21 18 -71 50
-112 71 -41 21 -84 53 -99 72 -30 39 -109 82 -152 82 l-30 0 0 -58 0 -58 38
-38 c46 -47 139 -119 182 -141 18 -9 55 -23 81 -31 27 -8 74 -35 104 -59 63
-52 152 -85 227 -85 38 0 71 -8 116 -30 37 -18 80 -30 103 -30 22 0 56 -7 76
-15 19 -8 60 -15 90 -15 29 0 70 -7 90 -15 20 -9 66 -15 109 -15 40 0 76 -4
79 -10 10 -15 488 -13 503 2 10 10 17 10 32 0 24 -14 106 -16 115 -2 3 5 26
10 49 10 24 0 60 7 79 15 20 8 49 15 64 15 15 0 51 13 78 29 78 43 107 58 154
77 30 13 56 35 83 71 57 75 91 93 172 93 37 0 83 -7 103 -15 23 -10 69 -15
137 -15 l102 0 29 -30 29 -30 57 0 c32 0 70 -5 86 -12 22 -10 258 -26 391 -28
47 0 123 0 160 -1 83 0 290 19 332 31 78 21 253 78 292 94 21 9 48 16 62 16
34 0 82 44 111 101 14 26 29 50 35 54 5 3 10 28 10 54 l0 47 -37 38 c-68 68
-151 125 -212 146 l-60 20 -164 0 -164 0 -16 -18z"/>
</g>
</svg>
