<?xml version="1.0" standalone="no"?>
<!DOCTYPE svg PUBLIC "-//W3C//DTD SVG 20010904//EN"
 "http://www.w3.org/TR/2001/REC-SVG-20010904/DTD/svg10.dtd">
<svg version="1.0" xmlns="http://www.w3.org/2000/svg"
 width="1113.000000pt" height="228.000000pt" viewBox="0 0 1113.000000 228.000000"
 preserveAspectRatio="xMidYMid meet">
<metadata>
Created by potrace 1.16, written by Peter Selinger 2001-2019
</metadata>
<g transform="translate(0.000000,228.000000) scale(0.100000,-0.100000)"
fill="#000000" stroke="none">
<path d="M0 2215 l0 -65 28 0 c15 0 70 -20 122 -44 162 -74 321 -135 355 -136
35 0 225 -69 263 -95 20 -14 49 -25 65 -25 15 0 44 -7 64 -15 19 -8 52 -15 72
-15 40 0 126 -27 209 -66 29 -13 71 -24 93 -24 22 0 56 -7 76 -15 20 -8 66
-15 105 -15 38 0 84 -7 105 -15 19 -8 60 -15 90 -15 29 0 70 -7 90 -15 20 -9
66 -15 107 -15 l72 0 29 -30 29 -30 165 0 166 0 85 30 c46 17 95 30 109 30 13
0 45 13 70 29 25 16 58 31 72 35 15 3 42 24 60 47 19 23 55 62 82 88 26 26 47
54 47 62 0 46 49 50 137 9 35 -16 75 -30 89 -30 14 0 41 -7 61 -15 19 -8 46
-15 60 -15 37 0 127 -45 171 -85 24 -21 50 -35 66 -35 15 0 43 -7 63 -15 19
-8 45 -15 56 -15 32 0 143 -40 230 -82 43 -21 88 -38 100 -38 38 0 135 -38
285 -110 78 -39 148 -70 155 -70 6 0 32 -14 57 -30 25 -16 52 -30 60 -30 8 0
71 -27 138 -60 68 -33 129 -60 135 -60 7 0 37 -12 67 -26 68 -31 163 -64 188
-64 10 0 56 -13 102 -30 47 -16 94 -30 104 -30 11 0 80 -20 153 -45 73 -25
148 -45 168 -45 20 0 52 -7 72 -15 19 -8 60 -15 90 -15 29 0 70 -7 90 -15 19
-8 61 -15 92 -15 41 0 72 -8 119 -30 47 -22 79 -30 118 -30 30 0 71 -7 91 -15
23 -10 69 -15 135 -15 65 0 111 -5 135 -15 28 -12 86 -15 290 -15 160 0 262 4
274 11 25 13 120 31 176 34 71 3 194 100 240 189 13 26 38 66 54 89 21 30 29
51 29 84 0 24 7 60 15 80 8 19 15 59 15 87 0 46 22 130 43 164 11 17 110 15
154 -3 19 -8 52 -15 72 -15 39 0 156 -37 220 -69 22 -12 51 -21 63 -21 50 0
224 -71 282 -115 17 -13 65 -40 106 -61 41 -20 89 -47 105 -59 17 -13 64 -40
105 -61 41 -21 83 -45 94 -53 10 -9 44 -68 76 -131 l58 -115 66 -58 c36 -32
66 -68 68 -80 2 -13 24 -36 55 -57 29 -19 62 -48 74 -63 11 -15 39 -37 60 -48
22 -11 57 -35 77 -53 42 -38 93 -66 118 -66 23 0 151 86 164 110 5 10 10 46
10 80 l0 61 38 -7 c58 -10 100 -33 131 -73 19 -23 57 -50 107 -75 44 -21 100
-56 126 -77 25 -21 82 -57 125 -78 43 -22 100 -58 127 -80 26 -23 55 -41 63
-41 20 0 146 -62 204 -101 51 -33 258 -108 301 -109 15 0 30 -4 33 -10 8 -13
225 -13 225 -1 0 5 16 24 35 42 l35 33 0 89 0 88 -69 68 c-37 38 -71 80 -74
93 -12 45 -47 87 -89 109 -24 12 -56 32 -73 44 -16 13 -63 39 -102 59 -112 56
-200 48 -191 -16 2 -16 32 -42 103 -90 113 -76 212 -174 268 -265 64 -105 31
-122 -130 -69 -131 44 -482 216 -532 261 -20 18 -81 56 -136 83 -55 28 -122
69 -149 91 -33 28 -58 41 -78 41 -40 0 -77 23 -114 73 -24 32 -54 53 -130 91
-55 27 -123 68 -153 92 -29 24 -60 44 -68 44 -27 0 -137 57 -220 113 -64 45
-110 66 -210 99 -70 23 -163 59 -206 80 -43 21 -83 38 -90 38 -13 0 -71 30
-142 74 -26 16 -65 35 -88 43 -22 8 -52 22 -66 32 -48 34 -230 121 -254 121
-13 0 -61 13 -107 30 -47 16 -94 30 -105 30 -12 0 -48 10 -80 21 -62 22 -83
25 -272 35 l-112 6 -54 -51 -54 -51 -22 -65 c-13 -40 -21 -91 -21 -131 0 -35
-7 -81 -15 -101 -8 -19 -15 -53 -15 -75 0 -28 -12 -58 -42 -108 -23 -39 -46
-74 -52 -78 -21 -16 -94 -32 -143 -32 -28 0 -67 -7 -86 -15 l-36 -15 -306 0
-306 0 -36 15 c-24 10 -70 15 -147 15 l-112 0 -84 30 c-47 16 -101 30 -120 30
-20 0 -74 13 -120 30 -53 18 -105 30 -138 30 -29 0 -69 7 -89 15 -19 8 -61 15
-92 15 -39 0 -73 8 -111 26 -64 30 -253 94 -277 94 -34 0 -243 77 -346 127
-59 29 -113 53 -120 53 -7 0 -28 11 -47 24 -20 13 -83 47 -140 76 -58 29 -125
69 -150 90 -56 46 -121 80 -155 80 -14 0 -42 7 -62 15 -19 8 -46 15 -60 15
-13 0 -48 11 -78 25 -73 33 -350 125 -378 125 -24 0 -56 18 -97 56 -25 22
-133 64 -167 64 -22 0 -213 64 -271 91 -89 41 -260 84 -296 75 -79 -20 -98
-88 -46 -166 35 -53 37 -81 10 -125 -26 -43 -74 -78 -153 -115 l-65 -30 -171
0 c-130 0 -180 4 -208 15 -19 8 -53 15 -75 15 -21 0 -55 7 -75 15 -19 8 -60
15 -90 15 -29 0 -70 7 -90 15 -19 8 -53 15 -75 15 -21 0 -55 7 -75 15 -19 8
-53 15 -75 15 -21 0 -55 7 -75 15 -19 8 -52 15 -72 15 -20 0 -56 6 -81 14 -57
18 -122 35 -180 46 -25 5 -76 20 -115 34 -38 14 -79 26 -90 26 -26 0 -153 43
-204 69 -22 12 -45 21 -51 21 -7 0 -41 14 -77 30 -35 17 -75 30 -89 30 -14 0
-41 7 -61 15 -19 8 -46 15 -60 15 -27 0 -104 33 -145 61 -17 13 -43 19 -77 19
l-51 0 0 -65z m9244 -1444 c15 -16 26 -37 24 -46 l-3 -18 -31 26 c-34 28 -51
67 -30 67 7 0 25 -13 40 -29z"/>
<path d="M10208 1553 c-26 -30 -48 -81 -48 -110 1 -15 9 -53 19 -83 20 -57 57
-94 109 -107 34 -8 116 33 158 79 l34 38 0 42 0 41 -58 59 -59 58 -70 0 c-54
0 -73 -4 -85 -17z"/>
</g>
</svg>
