<?xml version="1.0" standalone="no"?>
<!DOCTYPE svg PUBLIC "-//W3C//DTD SVG 20010904//EN"
 "http://www.w3.org/TR/2001/REC-SVG-20010904/DTD/svg10.dtd">
<svg version="1.0" xmlns="http://www.w3.org/2000/svg"
 width="459.000000pt" height="252.000000pt" viewBox="0 0 459.000000 252.000000"
 preserveAspectRatio="xMidYMid meet">
<metadata>
Created by potrace 1.16, written by Peter Selinger 2001-2019
</metadata>
<g transform="translate(0.000000,252.000000) scale(0.100000,-0.100000)"
fill="#000000" stroke="none">
<path d="M2927 2457 c-31 -70 -36 -140 -11 -175 21 -30 106 -72 146 -72 77 1
157 83 158 161 0 28 -9 48 -40 85 -22 27 -40 52 -40 56 0 5 -42 8 -92 8 l-93
-1 -28 -62z"/>
<path d="M3429 1576 c-25 -14 -60 -41 -77 -61 l-32 -36 0 -48 c0 -27 7 -65 15
-84 8 -20 15 -48 15 -62 0 -40 68 -165 122 -224 27 -30 61 -77 75 -104 14 -28
36 -59 49 -70 13 -10 24 -28 24 -39 l0 -20 -27 7 c-16 4 -70 9 -120 12 l-93 5
-30 -30 c-64 -64 -34 -139 115 -292 56 -58 114 -124 128 -146 14 -23 39 -51
54 -62 20 -14 33 -36 42 -73 l14 -53 -23 -18 c-30 -25 -110 -24 -185 2 -95 33
-203 88 -244 126 -21 19 -45 34 -52 34 -30 0 -62 35 -95 103 -19 40 -34 87
-34 105 0 24 -9 42 -29 63 l-29 29 -227 0 c-178 0 -233 3 -262 15 -24 10 -71
15 -149 15 -62 0 -125 5 -141 11 -16 7 -149 15 -318 20 -159 5 -310 11 -335
14 -25 3 -124 8 -220 13 -96 4 -182 12 -190 17 -9 6 -175 13 -410 17 -217 3
-405 7 -417 7 -23 2 -74 2 -115 1 -13 0 -69 -3 -125 -6 l-103 -6 0 -37 0 -36
49 -18 c35 -12 80 -17 160 -17 77 0 123 -5 148 -15 l35 -15 265 0 264 0 36
-15 c27 -12 81 -15 240 -15 158 0 212 -3 240 -15 27 -12 79 -15 225 -15 145 0
197 -3 225 -15 25 -11 72 -15 165 -15 92 0 139 -4 165 -15 25 -11 72 -15 162
-15 l127 0 84 -30 c63 -22 103 -30 154 -30 l69 0 64 -31 c34 -17 72 -44 84
-60 12 -17 38 -41 59 -54 21 -13 51 -43 67 -67 20 -30 40 -47 66 -55 21 -7 54
-24 75 -38 20 -14 43 -25 50 -25 20 0 81 -30 126 -62 24 -17 52 -28 72 -28 18
0 36 -4 39 -10 3 -6 48 -10 100 -10 52 0 97 4 100 10 3 6 22 10 42 10 l36 0
43 44 44 43 0 67 c0 75 -20 124 -77 191 -18 21 -37 52 -41 67 -4 15 -43 66
-86 114 -61 67 -76 88 -65 95 22 14 36 11 106 -21 35 -16 70 -30 76 -30 7 0
32 -14 57 -30 25 -16 51 -30 58 -30 7 0 47 -20 88 -45 40 -25 78 -45 83 -45 6
0 25 -18 43 -41 19 -23 58 -54 90 -70 31 -16 72 -42 90 -58 18 -15 62 -51 97
-80 l64 -51 64 0 63 0 0 100 0 100 -32 0 c-24 0 -40 10 -72 44 -27 29 -73 60
-136 91 -52 26 -115 64 -140 85 -45 37 -120 80 -140 80 -17 0 -318 307 -336
343 -9 18 -40 55 -68 83 -28 27 -59 68 -70 90 -10 21 -27 57 -38 79 l-19 40 8
60 8 60 30 -1 c83 -4 202 -83 271 -180 l33 -47 -6 -42 -5 -43 40 -21 c60 -30
107 -28 143 8 41 41 41 96 -1 136 -21 20 -30 38 -30 60 0 40 -22 71 -70 95
-21 11 -59 38 -85 60 -25 22 -50 40 -54 40 -5 0 -28 17 -52 38 -41 35 -78 50
-199 82 -81 21 -94 20 -141 -4z"/>
<path d="M53 344 l-53 -56 0 -58 0 -58 56 -46 56 -46 40 0 41 0 43 44 c32 32
44 51 44 73 0 17 5 44 11 61 l11 32 -19 32 c-25 43 -87 78 -138 78 l-39 0 -53
-56z"/>
</g>
</svg>
