<?xml version="1.0" standalone="no"?>
<!DOCTYPE svg PUBLIC "-//W3C//DTD SVG 20010904//EN"
 "http://www.w3.org/TR/2001/REC-SVG-20010904/DTD/svg10.dtd">
<svg version="1.0" xmlns="http://www.w3.org/2000/svg"
 width="144.000000pt" height="198.000000pt" viewBox="0 0 144.000000 198.000000"
 preserveAspectRatio="xMidYMid meet">
<metadata>
Created by potrace 1.16, written by Peter Selinger 2001-2019
</metadata>
<g transform="translate(0.000000,198.000000) scale(0.100000,-0.100000)"
fill="#000000" stroke="none">
<path d="M70 1971 c0 -4 -16 -29 -35 -54 -28 -36 -35 -55 -35 -90 l0 -44 38
-41 c22 -23 47 -42 58 -42 10 0 39 -14 64 -30 36 -24 56 -30 97 -30 l52 0 41
55 c22 30 40 63 40 74 0 17 -25 58 -105 169 l-30 41 -92 1 c-51 0 -93 -4 -93
-9z"/>
<path d="M368 1313 c-9 -10 -30 -46 -47 -80 -35 -70 -40 -129 -16 -186 8 -20
15 -49 15 -64 0 -15 14 -48 30 -73 16 -25 30 -51 30 -58 0 -37 125 -230 196
-302 73 -73 137 -138 169 -169 17 -16 43 -46 59 -66 16 -20 52 -48 80 -62 64
-32 121 -75 166 -124 34 -37 162 -109 194 -109 8 0 18 -4 21 -10 3 -5 33 -10
66 -10 l60 0 24 28 c16 18 24 39 25 65 l0 37 -56 0 c-66 0 -111 19 -177 72
-26 22 -63 44 -82 49 -19 6 -43 22 -52 36 -10 15 -38 45 -62 69 -55 53 -95 93
-147 147 -22 23 -52 50 -67 60 -14 9 -30 33 -36 52 -5 19 -34 63 -65 96 -31
35 -62 82 -72 108 -9 25 -36 89 -60 141 -47 101 -55 157 -28 184 19 20 16 20
68 -3 79 -37 135 -116 136 -194 0 -86 45 -102 104 -37 27 30 36 49 36 75 0 83
-137 273 -232 321 l-47 24 -109 0 -109 0 -15 -17z"/>
</g>
</svg>
