<?xml version="1.0" standalone="no"?>
<!DOCTYPE svg PUBLIC "-//W3C//DTD SVG 20010904//EN"
 "http://www.w3.org/TR/2001/REC-SVG-20010904/DTD/svg10.dtd">
<svg version="1.0" xmlns="http://www.w3.org/2000/svg"
 width="420.000000pt" height="204.000000pt" viewBox="0 0 420.000000 204.000000"
 preserveAspectRatio="xMidYMid meet">
<metadata>
Created by potrace 1.16, written by Peter Selinger 2001-2019
</metadata>
<g transform="translate(0.000000,204.000000) scale(0.100000,-0.100000)"
fill="#000000" stroke="none">
<path d="M3497 2012 l-27 -28 0 -67 0 -66 55 -41 c30 -22 64 -40 75 -40 30 0
96 36 114 62 19 27 21 127 4 175 l-12 33 -91 0 -91 0 -27 -28z"/>
<path d="M105 1703 c-22 -8 -55 -21 -72 -29 l-33 -14 0 -67 c0 -52 4 -71 19
-87 11 -12 26 -39 33 -60 10 -30 27 -49 67 -77 29 -21 77 -60 105 -88 29 -28
68 -56 91 -63 28 -9 48 -25 68 -56 27 -41 106 -92 141 -92 8 0 24 -13 35 -29
24 -33 112 -96 188 -135 28 -14 75 -48 106 -76 31 -28 71 -56 90 -61 18 -5 51
-24 73 -42 21 -18 60 -45 85 -60 25 -14 78 -57 116 -96 74 -73 106 -94 162
-106 21 -4 52 -27 87 -61 29 -30 61 -54 71 -54 22 0 150 -84 221 -144 30 -25
58 -46 63 -46 5 0 29 -20 53 -45 24 -25 69 -61 101 -80 l57 -35 57 0 58 0 21
23 c31 32 28 50 -17 110 -27 37 -52 58 -82 71 -89 36 -107 48 -134 92 -16 25
-47 57 -69 72 -30 20 -52 48 -83 107 -42 80 -93 217 -93 250 0 10 20 36 45 59
l45 42 0 72 0 71 -59 45 c-62 48 -109 102 -129 150 -21 47 -4 56 105 56 65 0
111 6 144 17 l49 18 49 -18 49 -17 203 0 204 0 45 -30 c25 -16 56 -30 70 -30
14 0 45 -6 70 -14 77 -24 133 -37 190 -45 30 -4 71 -12 90 -18 49 -16 118 -33
166 -42 22 -4 54 -17 70 -28 17 -12 86 -40 155 -63 187 -61 237 -88 333 -180
58 -55 91 -80 108 -80 30 0 88 57 88 87 0 24 -55 110 -104 163 -49 53 -57 67
-66 104 -5 22 -4 38 3 45 30 30 174 -4 225 -51 15 -14 59 -42 97 -61 79 -39
122 -78 132 -116 10 -46 32 -61 85 -61 l48 0 0 85 c0 52 -4 85 -10 85 -6 0
-32 23 -58 51 -48 53 -111 91 -171 104 -21 4 -52 27 -87 61 -41 42 -60 54 -84
54 -17 0 -47 7 -67 15 -25 11 -72 15 -160 15 l-125 0 -29 -29 -29 -29 0 -51
c0 -64 -21 -79 -76 -56 -20 8 -55 15 -78 15 -23 0 -65 11 -96 26 -85 39 -256
94 -295 94 -20 0 -52 7 -72 15 -22 9 -68 15 -122 15 l-86 0 -55 26 c-82 38
-165 64 -205 64 -20 0 -52 7 -72 15 -27 12 -79 15 -224 15 l-189 0 -41 17 -41
16 -47 -16 c-26 -10 -77 -17 -116 -17 l-70 0 -50 -28 c-52 -28 -95 -87 -95
-130 0 -31 52 -132 84 -161 14 -14 26 -33 26 -44 0 -11 19 -38 42 -60 l41 -39
-13 -22 c-74 -115 -83 -156 -50 -227 37 -82 14 -129 -35 -71 -13 16 -37 32
-52 35 -16 3 -55 28 -88 56 -33 28 -73 58 -90 67 -16 9 -93 59 -170 110 -78
52 -147 94 -155 94 -8 0 -28 13 -45 29 -16 16 -65 53 -108 83 -43 29 -86 66
-95 81 l-17 28 36 32 c24 21 41 50 53 87 l18 56 -22 64 c-33 98 -53 131 -112
181 -63 55 -107 79 -143 79 -14 0 -42 7 -62 15 -48 20 -232 19 -288 -2z m323
-174 c26 -12 59 -30 75 -41 l27 -19 0 -58 c0 -66 -5 -72 -70 -90 l-44 -13 -16
20 c-9 11 -39 31 -67 46 -54 27 -75 49 -108 110 l-20 37 19 15 c31 22 147 18
204 -7z"/>
</g>
</svg>
