<?xml version="1.0" standalone="no"?>
<!DOCTYPE svg PUBLIC "-//W3C//DTD SVG 20010904//EN"
 "http://www.w3.org/TR/2001/REC-SVG-20010904/DTD/svg10.dtd">
<svg version="1.0" xmlns="http://www.w3.org/2000/svg"
 width="651.000000pt" height="381.000000pt" viewBox="0 0 651.000000 381.000000"
 preserveAspectRatio="xMidYMid meet">
<metadata>
Created by potrace 1.16, written by Peter Selinger 2001-2019
</metadata>
<g transform="translate(0.000000,381.000000) scale(0.100000,-0.100000)"
fill="#000000" stroke="none">
<path d="M5500 3802 c0 -4 -18 -29 -40 -56 l-40 -48 0 -69 0 -68 32 -36 c34
-39 95 -75 128 -75 33 0 94 36 128 75 l32 36 0 71 0 72 -56 53 -56 53 -64 0
c-35 0 -64 -3 -64 -8z"/>
<path d="M469 2861 c-35 -35 -36 -63 -6 -116 22 -38 39 -51 181 -132 26 -15
73 -44 103 -65 31 -20 71 -39 90 -43 23 -4 50 -22 81 -55 26 -26 70 -59 98
-73 28 -14 75 -48 105 -74 30 -27 67 -57 84 -68 16 -10 50 -37 75 -60 25 -22
64 -53 87 -69 47 -31 363 -349 363 -365 0 -6 25 -39 56 -73 53 -59 93 -126 94
-156 0 -8 18 -34 39 -59 22 -24 43 -59 47 -76 8 -41 66 -156 110 -219 18 -27
36 -66 39 -86 3 -20 12 -57 20 -82 8 -25 15 -55 15 -66 0 -12 7 -38 15 -57 23
-55 21 -222 -4 -267 -12 -23 -25 -34 -37 -33 -88 9 -164 23 -186 33 l-27 13
-69 -22 c-38 -13 -83 -31 -100 -42 -43 -25 -93 -127 -105 -209 -9 -67 -9 -79
-5 -140 l3 -35 -240 -3 c-186 -2 -250 1 -285 12 -76 24 -132 37 -195 46 -33 4
-84 20 -112 34 -29 14 -64 26 -78 26 -14 0 -42 7 -62 15 -19 8 -47 15 -60 15
-66 0 -113 60 -113 145 0 68 -17 105 -79 167 -25 26 -58 61 -73 78 l-27 30
-60 0 c-91 0 -185 -34 -221 -80 l-30 -38 0 -70 0 -70 46 -37 c62 -51 131 -98
183 -125 24 -12 62 -35 84 -51 22 -16 47 -29 55 -29 8 0 54 -18 101 -41 110
-52 191 -79 236 -79 20 0 52 -7 72 -15 19 -8 52 -15 72 -15 20 0 56 -6 81 -14
82 -26 135 -38 185 -43 28 -3 54 -9 60 -14 13 -12 630 -12 653 1 9 5 46 19 81
30 35 12 82 30 105 40 22 11 59 25 81 32 29 10 48 26 73 63 19 28 54 65 78 83
35 26 44 39 44 63 0 16 7 46 15 66 8 20 15 66 15 105 0 38 7 84 15 105 21 49
21 257 0 306 -8 20 -15 52 -15 72 0 52 -31 136 -110 295 -44 90 -70 155 -70
176 0 18 -4 35 -9 38 -5 3 -20 29 -34 58 -14 29 -46 77 -71 107 -26 29 -54 68
-63 85 -22 44 -290 305 -346 338 -31 18 -47 34 -47 47 0 18 -81 89 -175 153
-43 29 -131 126 -122 135 8 7 95 -13 204 -48 51 -16 101 -29 111 -29 10 0 56
-13 102 -30 53 -18 105 -30 138 -30 29 0 69 -7 89 -15 19 -8 60 -15 90 -15 29
0 70 -7 90 -15 27 -12 81 -15 240 -15 158 0 212 -3 240 -15 26 -11 74 -15 180
-15 105 0 153 -4 180 -15 45 -19 111 -19 156 0 27 11 77 15 197 15 109 0 168
4 183 12 12 7 76 15 142 19 115 6 154 13 255 45 25 8 55 14 67 14 11 0 63 20
115 45 51 25 100 45 108 45 28 0 60 31 85 80 l25 49 0 90 0 90 28 19 c15 11
48 29 74 41 l47 21 186 0 c142 0 194 -3 222 -15 19 -8 53 -15 75 -15 21 0 55
-7 75 -15 19 -8 53 -15 75 -15 21 0 55 -7 75 -15 19 -8 51 -15 71 -15 53 0
150 -36 304 -112 76 -37 144 -68 151 -68 7 0 29 -11 48 -25 20 -13 65 -38 99
-56 35 -18 79 -46 99 -64 75 -67 123 -95 161 -95 46 0 70 24 70 70 l0 34 -47
46 c-27 26 -58 61 -71 78 -13 18 -48 48 -78 68 -73 48 -135 121 -132 154 l3
25 73 3 72 3 109 -37 c79 -26 122 -47 156 -75 26 -21 51 -39 55 -39 5 0 51
-40 104 -90 55 -52 104 -90 116 -90 l20 0 0 75 0 74 -47 38 c-26 21 -67 56
-92 79 -25 22 -66 52 -91 66 -25 14 -54 36 -65 48 -26 29 -88 60 -120 60 -14
0 -42 7 -62 15 -26 11 -74 15 -176 15 l-140 0 -58 -62 c-43 -46 -59 -71 -59
-92 0 -22 -4 -27 -17 -23 -10 3 -112 37 -228 75 -289 96 -280 94 -465 101
-103 4 -173 11 -187 19 -14 8 -66 12 -153 12 l-131 0 -61 -21 c-90 -30 -175
-76 -194 -104 -20 -30 -60 -148 -67 -198 -3 -20 -15 -50 -27 -66 -22 -32 -133
-91 -171 -91 -13 0 -62 -14 -109 -30 -46 -17 -94 -30 -106 -30 -12 0 -38 -7
-57 -15 -24 -10 -70 -15 -135 -15 -66 0 -112 -5 -135 -15 -28 -11 -78 -15
-207 -15 -129 0 -179 4 -207 15 -28 12 -84 15 -270 15 -185 0 -241 3 -270 15
-22 9 -67 15 -120 15 -52 0 -97 6 -120 15 -20 8 -66 15 -105 15 -38 0 -84 7
-105 15 -22 9 -67 15 -120 15 -52 0 -97 6 -120 15 -19 8 -47 15 -62 15 -14 0
-43 11 -63 25 -42 29 -175 71 -293 94 -49 9 -126 35 -181 61 -63 29 -251 90
-278 90 -13 0 -30 8 -37 17 -24 29 -130 103 -148 103 -10 0 -30 14 -46 30 -40
42 -95 42 -136 1z m-189 -2326 c29 -15 40 -48 20 -60 -16 -10 -70 24 -70 44 0
16 8 31 17 31 2 0 17 -7 33 -15z m1740 -144 c11 -22 6 -43 -22 -83 l-19 -28
-59 0 -59 0 -11 19 c-5 11 -10 32 -10 46 0 14 5 35 10 46 l11 19 74 0 74 0 11
-19z"/>
</g>
</svg>
