<?xml version="1.0" standalone="no"?>
<!DOCTYPE svg PUBLIC "-//W3C//DTD SVG 20010904//EN"
 "http://www.w3.org/TR/2001/REC-SVG-20010904/DTD/svg10.dtd">
<svg version="1.0" xmlns="http://www.w3.org/2000/svg"
 width="630.000000pt" height="183.000000pt" viewBox="0 0 630.000000 183.000000"
 preserveAspectRatio="xMidYMid meet">
<metadata>
Created by potrace 1.16, written by Peter Selinger 2001-2019
</metadata>
<g transform="translate(0.000000,183.000000) scale(0.100000,-0.100000)"
fill="#000000" stroke="none">
<path d="M4967 1802 c-31 -33 -36 -85 -11 -120 8 -12 34 -32 56 -43 l41 -21
39 18 c80 36 103 112 51 166 l-27 28 -61 0 -61 0 -27 -28z"/>
<path d="M2049 1395 c-25 -13 -50 -29 -56 -37 -16 -18 -53 -133 -53 -160 1
-42 38 -133 62 -151 34 -25 157 -67 201 -67 21 0 54 -7 74 -15 19 -8 54 -15
77 -15 44 0 86 -22 86 -44 0 -21 -36 -39 -156 -79 l-111 -37 -78 0 c-48 0 -96
-7 -126 -17 l-49 -18 -49 18 c-39 14 -83 17 -217 17 -118 0 -183 4 -214 14
-60 19 -125 35 -182 46 -26 5 -56 13 -67 19 -11 6 -45 11 -76 11 -30 0 -72 7
-92 15 -19 8 -54 15 -77 15 -23 0 -65 11 -96 26 -68 31 -163 64 -188 64 -10 0
-56 13 -102 30 -47 16 -97 30 -111 30 -15 0 -81 27 -148 60 l-122 60 -56 0
c-31 0 -72 -5 -90 -12 l-33 -12 0 -72 0 -72 35 -58 c39 -65 68 -94 95 -94 10
0 30 -16 44 -35 16 -21 55 -49 94 -69 92 -47 106 -61 131 -139 31 -99 52 -135
116 -197 31 -30 72 -77 92 -103 20 -26 54 -57 77 -68 22 -12 61 -38 86 -59 25
-20 65 -47 90 -60 25 -13 59 -33 75 -46 17 -12 59 -32 95 -43 36 -12 73 -26
82 -31 10 -6 43 -10 73 -10 l55 0 0 33 c0 35 -25 67 -51 67 -8 0 -41 13 -74
28 -33 16 -72 32 -87 35 -15 4 -61 39 -102 77 -42 39 -85 70 -96 70 -13 0 -32
18 -54 52 -19 29 -50 66 -70 81 -20 15 -36 32 -36 38 0 5 -21 43 -46 85 l-46
75 11 30 c5 16 8 36 5 44 -8 20 -121 96 -158 106 -17 5 -52 26 -78 46 -26 21
-59 46 -73 56 -50 36 -19 67 42 42 19 -8 47 -15 62 -15 14 0 55 -14 89 -30 35
-17 75 -30 88 -30 14 0 41 -7 61 -15 19 -8 51 -15 71 -15 19 0 97 -20 171 -44
148 -48 201 -63 273 -76 26 -5 56 -13 67 -19 11 -6 58 -11 106 -11 53 0 99 -6
122 -15 l35 -15 358 0 358 0 35 15 c20 8 52 15 72 15 67 0 213 58 250 100 11
13 38 36 59 51 l39 29 99 0 c65 0 111 -5 135 -15 27 -12 79 -15 225 -15 145 0
197 -3 225 -15 23 -10 69 -15 135 -15 65 0 111 -5 135 -15 22 -9 67 -15 120
-15 52 0 97 -6 120 -15 22 -9 67 -15 120 -15 52 0 97 -6 120 -15 26 -11 74
-15 179 -15 92 0 153 -4 171 -13 20 -8 143 -14 433 -18 223 -4 421 -10 441
-14 l36 -7 22 27 c30 40 26 66 -19 121 -99 119 -44 150 120 68 50 -25 94 -52
97 -60 3 -7 -13 -37 -36 -65 -52 -65 -56 -117 -13 -155 46 -41 91 -86 140
-143 27 -31 70 -65 102 -81 30 -16 77 -47 104 -69 26 -23 56 -41 65 -41 9 0
41 -12 71 -26 30 -14 83 -35 118 -46 l62 -21 65 29 64 29 1 88 0 88 -38 52
c-21 29 -44 62 -51 75 -6 12 -30 34 -53 48 -23 15 -72 55 -109 90 -38 35 -76
64 -84 64 -9 0 -40 20 -68 45 -29 25 -95 68 -147 96 -52 28 -120 66 -150 85
-30 19 -73 39 -95 45 -22 6 -61 22 -87 35 -26 13 -53 24 -60 24 -8 0 -30 11
-50 25 -20 13 -66 34 -102 46 l-65 22 -31 -13 c-94 -39 -107 -96 -40 -176 23
-28 46 -71 56 -103 l15 -54 -13 -8 c-23 -15 -225 -10 -265 6 -27 12 -81 15
-240 15 -158 0 -212 3 -240 15 -26 11 -74 15 -180 15 -105 0 -153 4 -180 15
-28 12 -82 15 -255 15 -172 0 -226 3 -255 15 -23 10 -69 15 -135 15 -65 0
-111 5 -135 15 -19 8 -60 15 -90 15 -29 0 -70 7 -90 15 -22 9 -67 15 -120 15
-52 0 -97 6 -120 15 -19 8 -55 15 -78 15 l-43 0 -44 61 c-67 95 -158 173 -265
228 -60 30 -263 101 -286 101 -6 -1 -33 -12 -58 -25z m211 -175 c25 -16 51
-30 58 -30 32 0 86 -36 110 -72 l26 -40 -15 -9 c-21 -13 -55 -11 -96 6 -19 8
-45 15 -57 15 -22 0 -111 29 -133 43 -6 4 -14 26 -18 49 l-7 42 18 13 c28 21
65 15 114 -17z m3580 -527 c14 -9 53 -43 87 -75 34 -32 70 -58 80 -58 23 0 43
-18 43 -39 0 -9 27 -44 60 -78 63 -66 68 -88 23 -99 -30 -8 -60 5 -106 46 -19
17 -58 37 -86 46 -28 8 -75 34 -104 57 -28 23 -64 50 -79 60 -26 16 -98 117
-98 136 0 15 21 19 90 20 46 1 73 -4 90 -16z"/>
</g>
</svg>
