<?xml version="1.0" standalone="no"?>
<!DOCTYPE svg PUBLIC "-//W3C//DTD SVG 20010904//EN"
 "http://www.w3.org/TR/2001/REC-SVG-20010904/DTD/svg10.dtd">
<svg version="1.0" xmlns="http://www.w3.org/2000/svg"
 width="555.000000pt" height="165.000000pt" viewBox="0 0 555.000000 165.000000"
 preserveAspectRatio="xMidYMid meet">
<metadata>
Created by potrace 1.16, written by Peter Selinger 2001-2019
</metadata>
<g transform="translate(0.000000,165.000000) scale(0.100000,-0.100000)"
fill="#000000" stroke="none">
<path d="M4247 1622 l-27 -28 0 -53 0 -54 44 -43 43 -44 39 0 c51 0 79 20 109
80 28 55 31 87 13 137 l-12 33 -91 0 -91 0 -27 -28z"/>
<path d="M4830 948 c-67 -24 -76 -31 -102 -81 l-20 -40 42 -88 c33 -69 39 -91
31 -107 l-10 -19 -218 -6 c-121 -3 -231 -10 -246 -16 -19 -7 -177 -11 -486
-11 l-459 0 -35 -15 c-28 -12 -81 -15 -234 -15 l-198 0 -48 17 -48 17 -47 -24
c-63 -34 -92 -85 -92 -165 0 -89 -21 -115 -136 -171 l-72 -34 -441 0 -442 0
-36 15 c-19 8 -45 15 -56 15 -11 0 -45 8 -75 18 l-54 17 -26 40 c-80 127 -100
155 -146 203 -59 62 -156 131 -201 143 -17 5 -49 24 -71 43 l-40 34 -200 65
c-236 77 -270 86 -349 96 -34 5 -70 13 -82 19 -48 26 -120 6 -200 -56 l-33
-24 0 -84 0 -83 30 -16 c16 -8 35 -15 43 -15 7 0 24 -12 38 -26 13 -14 41 -35
63 -46 21 -11 57 -33 79 -49 22 -16 46 -29 54 -29 8 0 44 -13 80 -30 35 -16
69 -30 75 -30 16 0 80 -32 113 -56 33 -24 142 -64 175 -64 12 0 45 -11 75 -25
104 -47 354 -125 403 -125 26 0 67 -6 92 -14 57 -18 122 -35 180 -46 25 -5 77
-20 115 -34 l70 -26 102 0 c57 0 105 -4 108 -10 8 -13 102 -13 110 0 4 6 62
10 141 10 83 0 144 4 157 12 12 6 48 14 82 19 157 20 361 95 428 158 16 14 42
51 58 81 54 103 78 120 175 120 41 0 87 6 107 15 l36 15 759 0 760 0 35 15
c25 10 71 15 143 15 l107 0 43 44 c68 68 58 109 -41 165 -31 18 -58 39 -61 49
-3 9 -12 30 -20 46 -22 44 -5 56 78 56 38 0 84 -7 105 -15 19 -8 47 -15 62
-15 14 0 55 -14 89 -30 35 -17 68 -30 74 -30 6 0 39 -31 75 -70 67 -72 91 -83
134 -60 14 8 19 21 19 53 l0 43 -37 38 c-83 83 -149 124 -258 161 -58 19 -121
35 -140 35 -20 0 -52 7 -72 15 -48 20 -145 17 -213 -7z m-4430 -238 c47 -16
93 -30 104 -30 10 0 88 -23 173 -52 l155 -52 52 -46 c28 -26 74 -59 102 -74
28 -14 63 -40 79 -56 l28 -29 -13 -16 c-7 -8 -20 -15 -29 -15 -22 0 -123 35
-189 66 -29 13 -57 24 -63 24 -6 0 -40 14 -76 30 -35 17 -70 30 -76 30 -18 0
-198 91 -234 117 -17 14 -44 28 -60 32 -16 4 -36 21 -46 39 l-19 32 12 15 c7
8 13 15 14 15 1 0 40 -13 86 -30z"/>
</g>
</svg>
