<?xml version="1.0" standalone="no"?>
<!DOCTYPE svg PUBLIC "-//W3C//DTD SVG 20010904//EN"
 "http://www.w3.org/TR/2001/REC-SVG-20010904/DTD/svg10.dtd">
<svg version="1.0" xmlns="http://www.w3.org/2000/svg"
 width="96.000000pt" height="171.000000pt" viewBox="0 0 96.000000 171.000000"
 preserveAspectRatio="xMidYMid meet">
<metadata>
Created by potrace 1.16, written by Peter Selinger 2001-2019
</metadata>
<g transform="translate(0.000000,171.000000) scale(0.100000,-0.100000)"
fill="#000000" stroke="none">
<path d="M7 1703 c-4 -3 -7 -46 -7 -94 l0 -88 30 -16 c16 -8 52 -15 81 -15
l52 0 43 44 c52 51 54 72 17 132 l-28 43 -91 1 c-50 0 -94 -3 -97 -7z"/>
<path d="M181 1213 c-26 -32 -35 -65 -27 -97 13 -54 100 -161 263 -328 95 -97
173 -181 173 -188 0 -6 29 -41 63 -78 35 -37 71 -79 80 -92 24 -37 67 -170 67
-208 0 -65 -55 -122 -117 -122 -38 0 -63 -28 -63 -68 l0 -32 100 0 c55 0 108
4 118 8 9 5 30 15 47 23 16 8 36 28 44 44 8 17 18 38 23 47 11 23 10 214 -1
236 -5 9 -19 40 -31 69 -13 29 -28 54 -35 57 -12 4 -81 89 -180 221 -27 36
-71 82 -97 101 -25 19 -63 59 -83 89 -20 31 -47 62 -60 71 -25 17 -69 83 -61
92 9 8 129 -29 159 -50 15 -11 27 -27 27 -37 0 -24 31 -51 59 -51 29 0 81 52
81 80 0 35 -17 56 -79 98 -137 94 -264 142 -375 142 l-75 0 -20 -27z"/>
</g>
</svg>
