<?xml version="1.0" standalone="no"?>
<!DOCTYPE svg PUBLIC "-//W3C//DTD SVG 20010904//EN"
 "http://www.w3.org/TR/2001/REC-SVG-20010904/DTD/svg10.dtd">
<svg version="1.0" xmlns="http://www.w3.org/2000/svg"
 width="1179.000000pt" height="237.000000pt" viewBox="0 0 1179.000000 237.000000"
 preserveAspectRatio="xMidYMid meet">
<metadata>
Created by potrace 1.16, written by Peter Selinger 2001-2019
</metadata>
<g transform="translate(0.000000,237.000000) scale(0.100000,-0.100000)"
fill="#000000" stroke="none">
<path d="M5675 2360 c-3 -5 -19 -10 -34 -10 -16 0 -45 -7 -64 -15 -20 -8 -48
-15 -62 -15 -67 0 -174 -89 -287 -236 -61 -81 -133 -124 -207 -124 -21 0 -55
-7 -74 -15 -23 -9 -68 -15 -120 -15 -53 0 -98 -6 -121 -15 l-37 -16 -39 12
c-31 9 -49 9 -79 1 -53 -16 -125 -15 -168 3 -26 11 -76 15 -195 15 -118 0
-168 4 -195 15 -20 8 -66 15 -105 15 -38 0 -84 7 -105 15 -22 9 -67 15 -120
15 -52 0 -97 6 -120 15 -19 8 -54 15 -77 15 -23 0 -65 11 -96 26 -80 37 -165
64 -201 64 -36 0 -153 36 -184 57 -11 7 -36 36 -55 65 l-36 53 -98 3 -99 3
-18 -17 c-24 -22 -25 -92 -2 -153 l17 -45 -27 -20 c-15 -11 -58 -31 -95 -43
l-67 -23 -138 0 c-100 0 -147 4 -174 15 -20 8 -66 15 -105 15 -38 0 -84 7
-105 15 -20 8 -66 15 -105 15 -38 0 -84 7 -105 15 -19 8 -53 15 -75 15 -21 0
-55 7 -75 15 -22 9 -67 15 -120 15 -52 0 -97 6 -120 15 -25 11 -72 15 -165 15
-92 0 -139 4 -165 15 -22 9 -67 15 -120 15 -52 0 -97 6 -120 15 -28 12 -81 15
-243 15 l-208 0 -64 -30 c-34 -16 -69 -30 -76 -30 -22 0 -106 -47 -130 -72
-12 -14 -38 -51 -57 -82 l-35 -58 0 -103 0 -102 41 -13 c29 -10 46 -11 57 -3
30 18 62 86 62 131 0 48 28 118 59 146 11 10 57 31 103 47 l82 29 258 0 259 0
36 -15 c19 -8 65 -15 102 -15 49 0 90 -8 151 -30 68 -24 102 -30 168 -30 50 0
97 -6 119 -15 22 -9 67 -15 120 -15 52 0 97 -6 120 -15 19 -8 65 -15 102 -15
44 0 91 -8 140 -25 l75 -26 29 11 c42 14 92 12 134 -5 24 -10 69 -15 138 -15
69 0 114 5 138 15 20 8 52 15 72 15 72 0 194 52 273 115 54 44 103 46 182 9
80 -37 165 -64 202 -64 18 0 53 -6 78 -14 60 -19 125 -35 182 -46 26 -5 56
-13 67 -19 11 -6 38 -11 61 -11 22 0 57 -7 77 -15 22 -9 67 -15 120 -15 52 0
97 -6 120 -15 l35 -15 508 0 508 0 35 15 c20 8 48 15 62 15 55 0 194 90 276
178 29 33 73 86 96 118 l42 59 99 33 99 32 122 0 c85 0 132 -4 158 -15 19 -8
60 -15 90 -15 29 0 70 -7 90 -15 19 -8 54 -15 77 -15 25 0 66 -12 104 -30 35
-17 75 -30 88 -30 14 0 41 -7 61 -15 19 -8 61 -15 92 -15 39 0 73 -8 111 -26
89 -41 386 -134 492 -154 26 -5 56 -13 67 -19 11 -6 59 -11 108 -11 109 1 186
25 223 70 l26 31 54 -7 c30 -3 70 -13 89 -20 18 -8 43 -14 54 -14 12 0 81 -20
154 -45 l132 -45 186 0 186 0 60 20 c75 26 164 86 226 153 26 29 53 56 60 60
16 10 69 -13 123 -52 24 -17 50 -31 59 -31 9 0 36 -14 61 -30 25 -16 58 -30
73 -30 27 0 93 -35 217 -113 30 -19 70 -38 87 -42 18 -3 58 -24 90 -46 32 -21
65 -39 74 -39 20 0 253 -117 328 -165 30 -19 78 -42 108 -50 32 -9 75 -34 109
-61 31 -26 73 -51 93 -56 51 -14 143 -68 138 -82 -2 -6 -34 -13 -73 -16 -80
-6 -136 -32 -182 -85 l-32 -36 0 -80 0 -81 45 -87 c46 -89 169 -241 245 -302
22 -18 40 -40 40 -50 0 -18 45 -57 119 -104 25 -15 65 -46 90 -69 25 -24 79
-64 118 -90 40 -26 90 -62 111 -79 21 -18 58 -40 83 -50 24 -10 58 -26 74 -35
17 -8 66 -35 110 -59 45 -24 94 -43 112 -43 17 0 35 -5 38 -10 4 -6 83 -10
206 -10 l199 0 65 65 65 65 0 119 0 119 -32 53 c-49 80 -141 192 -199 241 -28
23 -57 55 -65 69 -7 15 -42 46 -76 69 -35 23 -79 57 -98 75 -37 35 -90 65
-113 65 -8 0 -27 16 -42 35 -17 23 -55 50 -108 76 -45 23 -102 58 -127 78 -25
21 -79 55 -120 76 -41 21 -91 53 -110 71 -32 30 -187 114 -211 114 -11 0 -111
57 -200 114 -30 20 -62 36 -70 36 -8 0 -27 9 -44 21 -40 27 -242 129 -255 129
-12 0 -105 53 -200 113 -30 19 -70 38 -88 42 -17 4 -54 22 -80 40 -63 43 -178
101 -220 110 -17 3 -54 22 -80 40 -75 51 -188 105 -221 105 -19 0 -45 13 -73
35 -53 42 -310 175 -339 175 -28 0 -109 -81 -109 -108 0 -11 14 -50 30 -85 39
-85 39 -109 -2 -139 l-33 -23 -212 -3 -211 -3 -37 15 c-21 9 -49 16 -64 16
-14 0 -51 12 -81 26 -30 14 -93 38 -140 53 -47 16 -158 65 -247 110 -90 44
-169 81 -176 81 -8 0 -39 18 -71 40 l-57 40 -69 0 -69 0 -16 -30 c-8 -16 -15
-38 -15 -50 0 -37 70 -96 180 -151 100 -49 150 -83 150 -100 0 -17 -41 -19
-75 -4 -21 8 -56 15 -79 15 -25 0 -66 12 -104 30 -37 18 -80 30 -103 30 -22 0
-56 7 -76 15 -19 8 -45 15 -57 15 -33 0 -134 38 -175 66 -19 13 -47 24 -61 24
-14 0 -64 13 -110 30 -61 21 -104 30 -150 30 -36 0 -85 6 -110 14 -82 26 -135
38 -185 43 -27 3 -54 9 -59 14 -14 13 -343 12 -351 -1z m4883 -1276 c52 -24
99 -44 104 -44 6 0 38 -26 71 -57 33 -32 73 -70 89 -85 l28 -26 0 -45 c0 -33
-7 -54 -29 -85 -16 -22 -34 -43 -40 -47 -18 -11 -12 -54 8 -65 43 -22 80 -12
132 37 59 55 99 127 99 178 0 49 21 46 94 -13 68 -55 125 -92 145 -92 7 0 42
-31 78 -70 37 -39 77 -73 93 -77 31 -9 152 -138 175 -187 30 -65 55 -152 55
-189 0 -47 -36 -87 -77 -87 -15 0 -46 -7 -69 -16 l-41 -16 -38 16 c-20 9 -54
16 -74 16 -63 0 -261 73 -306 112 -22 20 -68 49 -101 66 -90 46 -190 116 -274
195 -41 39 -103 92 -137 120 -35 27 -63 52 -63 55 0 4 -39 52 -86 107 -97 113
-154 217 -154 283 0 62 22 73 134 66 l91 -6 93 -44z"/>
<path d="M10755 1607 c-56 -32 -85 -86 -85 -164 0 -85 13 -107 77 -137 l54
-26 81 0 81 0 43 44 44 43 0 73 0 73 -58 59 -59 58 -69 0 c-53 0 -78 -6 -109
-23z"/>
</g>
</svg>
