<?xml version="1.0" standalone="no"?>
<!DOCTYPE svg PUBLIC "-//W3C//DTD SVG 20010904//EN"
 "http://www.w3.org/TR/2001/REC-SVG-20010904/DTD/svg10.dtd">
<svg version="1.0" xmlns="http://www.w3.org/2000/svg"
 width="387.000000pt" height="387.000000pt" viewBox="0 0 387.000000 387.000000"
 preserveAspectRatio="xMidYMid meet">
<metadata>
Created by potrace 1.16, written by Peter Selinger 2001-2019
</metadata>
<g transform="translate(0.000000,387.000000) scale(0.100000,-0.100000)"
fill="#000000" stroke="none">
<path d="M440 3834 c-75 -47 -92 -68 -88 -118 l3 -41 52 -35 c28 -19 65 -52
83 -72 l32 -38 44 0 43 0 40 53 c44 59 81 128 81 152 0 23 -28 76 -58 108
l-26 27 -75 -1 -76 -1 -55 -34z"/>
<path d="M435 3467 c-56 -32 -85 -87 -85 -164 l0 -62 60 -122 c33 -67 60 -129
60 -138 0 -10 13 -30 30 -46 16 -15 50 -58 74 -95 27 -40 62 -77 88 -94 24
-15 56 -45 71 -67 16 -22 47 -49 70 -60 23 -12 63 -39 89 -60 26 -22 87 -59
135 -83 95 -47 288 -116 327 -116 39 0 129 -73 159 -129 17 -30 45 -61 70 -78
25 -17 46 -41 52 -59 6 -17 44 -69 85 -115 42 -47 97 -117 123 -157 27 -39 61
-81 77 -92 16 -11 49 -51 74 -88 25 -37 89 -114 141 -171 53 -58 107 -126 120
-152 14 -26 42 -60 64 -75 21 -16 49 -44 62 -64 13 -19 61 -75 106 -123 46
-48 83 -92 83 -97 0 -5 34 -47 75 -92 41 -45 75 -86 75 -90 0 -16 -41 -18 -75
-3 -21 8 -62 15 -92 15 -29 0 -70 7 -90 15 -19 8 -60 15 -90 15 -29 0 -70 7
-90 15 -28 12 -82 15 -255 15 -172 0 -226 3 -255 15 -22 9 -67 15 -120 15 -52
0 -97 6 -120 15 -47 20 -65 19 -97 -6 -28 -22 -35 -60 -13 -76 12 -8 72 -28
167 -53 25 -7 79 -15 120 -19 42 -4 82 -11 90 -16 8 -6 51 -13 95 -18 44 -4
100 -10 125 -12 25 -3 110 -8 190 -13 81 -4 155 -13 167 -20 14 -7 64 -12 135
-12 117 0 168 -11 276 -61 23 -11 76 -30 116 -43 80 -27 167 -78 236 -141 25
-22 61 -51 80 -64 19 -13 50 -43 68 -67 18 -24 40 -44 50 -44 9 0 73 -27 140
-60 l124 -60 81 0 81 0 42 45 c23 25 46 45 53 45 6 0 11 18 11 43 l0 44 -56
62 c-32 35 -78 73 -106 87 -28 14 -68 39 -91 55 -28 20 -52 29 -80 29 -41 0
-303 83 -392 124 -27 13 -62 26 -77 30 -33 8 -144 109 -193 176 -19 26 -50 58
-68 70 -19 13 -45 39 -58 59 -45 68 -137 176 -223 264 -47 48 -86 95 -86 104
0 9 -29 45 -64 79 -36 35 -72 78 -82 96 -9 18 -49 67 -89 108 -39 41 -88 101
-108 132 -20 31 -51 74 -70 95 -19 21 -37 50 -40 65 -4 14 -38 55 -77 91 -38
36 -70 72 -70 82 0 9 -27 44 -59 78 -62 65 -211 281 -211 306 0 8 20 33 45 55
l45 42 0 141 0 141 -40 48 c-23 27 -43 60 -47 74 -14 57 -56 119 -125 185
-122 118 -210 169 -396 231 l-111 37 -41 -17 c-26 -10 -70 -16 -121 -16 l-80
0 -75 45 c-85 52 -127 57 -189 22z m523 -164 c21 -9 54 -29 74 -44 21 -15 54
-30 73 -33 23 -5 53 -24 88 -59 30 -29 74 -64 99 -78 32 -19 47 -35 51 -55 3
-16 22 -54 41 -84 60 -95 67 -110 78 -168 17 -93 16 -104 -12 -120 l-26 -15
-92 92 c-51 51 -92 100 -92 108 0 9 -31 46 -68 83 -38 37 -85 92 -105 123 -20
30 -52 64 -71 75 -29 17 -97 106 -113 147 -4 11 21 45 34 45 3 0 21 -8 41 -17z
m-322 -55 c161 -158 232 -235 250 -270 9 -18 45 -61 79 -95 34 -35 75 -82 91
-105 16 -24 55 -72 86 -108 57 -64 77 -110 41 -95 -10 4 -32 11 -50 15 -17 4
-45 17 -63 30 -17 12 -46 26 -65 31 -36 10 -103 69 -286 250 -72 70 -98 104
-104 130 -4 19 -19 46 -33 61 -25 27 -62 116 -62 149 0 24 27 49 52 49 11 0
40 -19 64 -42z m2846 -2873 c29 -14 59 -25 66 -25 23 0 97 -38 117 -60 l19
-21 -14 -9 c-37 -24 -100 -1 -204 73 -94 67 -85 89 16 42z"/>
<path d="M355 685 c-16 -8 -50 -14 -74 -15 -60 0 -152 -51 -223 -124 l-58 -59
0 -69 c0 -37 4 -76 9 -86 5 -9 17 -37 27 -60 10 -24 33 -56 52 -70 19 -14 45
-43 58 -63 23 -37 71 -68 154 -103 25 -10 53 -22 62 -27 23 -12 93 -12 116 0
9 5 41 19 70 32 79 34 92 56 92 151 0 94 -18 135 -92 217 -27 29 -56 67 -65
84 l-15 31 22 18 c29 23 173 25 227 3 22 -9 67 -15 120 -15 52 0 97 -6 120
-15 22 -9 67 -15 120 -15 52 0 97 -6 120 -15 19 -8 47 -15 62 -15 14 0 68 -20
119 -45 52 -25 105 -45 118 -45 14 0 41 -7 61 -15 19 -8 48 -15 62 -15 17 0
37 -10 52 -26 13 -14 40 -34 60 -45 50 -25 171 -109 186 -128 7 -9 16 -27 19
-41 11 -41 34 -60 74 -60 45 0 70 24 70 69 0 45 -14 67 -61 97 -22 14 -49 41
-61 60 -23 39 -138 119 -186 129 -17 4 -54 22 -81 40 -55 38 -243 105 -294
105 -18 0 -71 13 -117 30 -47 16 -94 30 -105 30 -12 0 -59 13 -105 30 l-85 30
-98 0 c-64 0 -110 5 -134 15 -48 20 -353 20 -398 0z m-57 -254 c11 -16 45 -42
75 -59 64 -36 79 -57 103 -142 l17 -63 -23 -19 c-29 -24 -61 -17 -108 20 -18
15 -56 43 -83 62 l-51 35 -19 54 c-21 61 -17 89 16 126 27 29 43 26 73 -14z"/>
</g>
</svg>
