<?xml version="1.0" standalone="no"?>
<!DOCTYPE svg PUBLIC "-//W3C//DTD SVG 20010904//EN"
 "http://www.w3.org/TR/2001/REC-SVG-20010904/DTD/svg10.dtd">
<svg version="1.0" xmlns="http://www.w3.org/2000/svg"
 width="447.000000pt" height="165.000000pt" viewBox="0 0 447.000000 165.000000"
 preserveAspectRatio="xMidYMid meet">
<metadata>
Created by potrace 1.16, written by Peter Selinger 2001-2019
</metadata>
<g transform="translate(0.000000,165.000000) scale(0.100000,-0.100000)"
fill="#000000" stroke="none">
<path d="M3887 1622 c-15 -15 -27 -40 -27 -54 0 -14 -5 -39 -11 -56 l-10 -30
20 -40 c30 -60 84 -102 129 -102 l38 0 46 48 c85 87 99 150 48 209 -16 18 -30
38 -30 43 0 6 -38 10 -88 10 l-88 0 -27 -28z"/>
<path d="M2880 1568 c-24 -17 -37 -37 -48 -73 l-14 -50 12 -50 c17 -70 122
-224 225 -330 93 -96 102 -119 60 -160 l-24 -25 -566 0 -566 0 -36 15 c-19 8
-54 15 -77 15 -25 0 -53 8 -71 21 -79 53 -123 69 -195 69 -40 0 -86 6 -107 15
-19 8 -52 15 -72 15 -44 0 -129 28 -229 75 -73 35 -271 105 -296 105 -19 0
-46 -33 -46 -57 0 -28 86 -143 106 -143 9 0 45 -14 81 -30 35 -16 77 -30 91
-30 15 0 44 -11 64 -25 33 -23 90 -43 208 -75 25 -7 86 -15 135 -19 50 -4 100
-12 112 -19 12 -7 34 -12 50 -12 15 0 48 -14 73 -30 25 -16 58 -30 73 -30 15
0 44 -7 64 -15 23 -10 69 -15 135 -15 65 0 111 -5 135 -15 l35 -15 343 0 343
0 37 15 c29 13 44 14 69 5 23 -7 41 -7 60 0 15 5 43 10 63 10 19 0 75 14 123
31 l89 30 43 -20 c53 -26 66 -36 102 -84 16 -20 81 -72 145 -115 64 -42 129
-89 146 -103 16 -14 50 -37 75 -51 25 -14 54 -36 65 -48 11 -12 33 -29 50 -37
83 -42 186 -121 212 -162 15 -24 39 -51 53 -59 14 -9 48 -33 77 -54 67 -49
121 -52 158 -10 36 40 34 100 -3 135 -15 15 -35 27 -43 27 -9 0 -26 12 -40 26
-13 14 -44 36 -69 49 -55 28 -83 54 -115 105 -14 22 -36 47 -50 56 -14 9 -38
38 -52 63 -14 25 -33 51 -41 58 -8 7 -12 19 -8 29 l6 16 63 -4 c34 -3 69 -8
77 -12 19 -8 127 60 164 104 21 25 26 42 26 83 l0 52 -41 60 c-80 119 -154
173 -307 224 -77 26 -102 26 -155 0 -94 -47 -147 -129 -147 -227 0 -33 7 -76
15 -95 16 -38 11 -67 -10 -67 -6 0 -26 10 -43 23 -16 12 -59 43 -94 69 -125
92 -135 109 -103 185 35 83 8 252 -49 312 -15 16 -48 59 -75 97 -37 54 -55 72
-85 82 -21 7 -50 21 -66 32 -36 26 -218 80 -269 80 -10 0 -33 -10 -51 -22z
m211 -218 c86 -40 153 -93 177 -140 23 -46 28 -85 13 -109 -15 -24 -102 53
-245 216 l-19 22 13 16 c15 18 9 19 61 -5z m987 -461 c63 -31 102 -73 102
-111 l0 -18 -46 0 c-34 0 -70 11 -131 40 -102 49 -128 72 -113 100 l11 20 56
0 c43 0 72 -8 121 -31z"/>
<path d="M415 715 c-16 -8 -56 -14 -88 -15 -66 0 -110 -19 -196 -85 -100 -77
-111 -91 -111 -129 0 -19 -5 -38 -10 -41 -6 -4 -10 -52 -9 -113 l1 -107 21
-40 c51 -93 137 -22 137 112 1 98 49 174 136 214 24 10 61 19 82 19 22 0 56 7
75 15 29 12 83 15 252 15 169 0 223 -3 252 -15 24 -10 70 -15 147 -15 68 0
128 -5 156 -14 58 -18 124 -35 175 -45 22 -4 56 -12 75 -18 51 -16 119 -33
170 -43 26 -4 60 -16 77 -27 16 -10 52 -31 78 -47 26 -16 64 -35 85 -42 43
-15 123 -64 184 -113 l39 -31 21 13 c12 8 25 26 31 41 l9 27 -37 74 c-39 79
-69 106 -137 125 -19 5 -99 41 -177 80 -79 38 -153 70 -165 70 -12 0 -63 13
-113 29 -122 39 -170 51 -240 60 -34 5 -70 13 -82 19 -12 7 -40 12 -63 12 -22
0 -57 7 -77 15 l-35 15 -317 -1 c-245 0 -323 -4 -346 -14z"/>
</g>
</svg>
