<?xml version="1.0" encoding="UTF-8" standalone="no"?>
<!-- Created with Inkscape (http://www.inkscape.org/) -->

<svg
   version="1.1"
   id="svg1"
   width="727.80591"
   height="265.27121"
   viewBox="0 0 727.80591 265.27121"
   xmlns="http://www.w3.org/2000/svg"
   xmlns:svg="http://www.w3.org/2000/svg">
  <defs
     id="defs1" />
  <g
     id="g1"
     transform="translate(-0.92113912,-0.63488358)">
    <path
       style="fill:#000000"
       d="m 640.5,265.30108 c -33.16304,-2.24462 -54.63381,-8.16749 -81,-22.34441 -63.97602,-34.39949 -100.56521,-75.49886 -96.98496,-108.93989 2.48747,-23.23407 19.96268,-50.81868 40.83428,-64.456899 7.56024,-4.940119 7.56024,-4.940119 -1.64454,-9.911727 C 454.64726,34.231844 392.80342,11.045888 372,11.020358 c -31.53785,-0.0387 -29.97675,23.2849 4.1508,62.014986 11.94197,13.552506 3.57454,25.038281 -10.32476,14.172553 C 322.03067,52.971039 293.64243,41.041 255.72735,40.939386 191.34129,40.766829 207.53939,97.001756 278.5,119.99914 c 3.85,1.24774 7.33415,2.45785 7.74256,2.68915 1.76717,1.00083 -3.38756,8.34545 -6.88181,9.80545 -5.69584,2.37987 -19.79781,1.32342 -66.86075,-5.00888 C 158.34822,120.19877 89.749628,113.75964 37,111.01126 -2.9314048,108.93073 -0.24423509,109.39906 2.0415631,104.91853 5.4248739,98.286693 7.8384005,97.809121 31.89419,99.011496 c 62.976726,3.147754 137.27823,9.839734 188.84805,17.008634 7.83324,1.08893 14.50844,1.97987 14.83378,1.97987 0.32534,0 -2.77302,-2.25035 -6.88525,-5.00078 -28.33996,-18.954919 -32.79684,-45.08915 -11.5251,-67.580876 19.72256,-20.853697 71.86935,-21.46892 112.02513,-1.321663 9.69081,4.862141 9.69081,4.862141 8.64216,1.853979 -3.29837,-9.461689 1.10664,-24.544998 9.78534,-33.506286 21.74021,-22.448088 68.09809,-13.26572796 155.20273,30.74186 C 518.9476,51.333805 532.7476,58 533.4877,58 c 0.7401,0 1.49563,0.412445 1.67897,0.916545 C 535.35,59.420645 550.125,66.988693 568,75.734431 743.30425,161.50589 786.78765,275.20249 640.5,265.30108 Z m 58.29216,-11.88494 C 744.71374,243.97984 686.10405,158.14413 600.5,109.46423 560.62417,86.788294 519.94895,68.876757 514.25247,71.484692 480.20907,87.070276 466.5209,123.12787 482.54841,155 c 17.401,34.60341 82.80576,82.23571 127.71991,93.01451 25.63786,6.15274 71.30717,8.93943 88.52384,5.40163 z"
       id="path1" />
  </g>
</svg>
