<?xml version="1.0" standalone="no"?>
<!DOCTYPE svg PUBLIC "-//W3C//DTD SVG 20010904//EN"
 "http://www.w3.org/TR/2001/REC-SVG-20010904/DTD/svg10.dtd">
<svg version="1.0" xmlns="http://www.w3.org/2000/svg"
 width="246.000000pt" height="213.000000pt" viewBox="0 0 246.000000 213.000000"
 preserveAspectRatio="xMidYMid meet">
<metadata>
Created by potrace 1.16, written by Peter Selinger 2001-2019
</metadata>
<g transform="translate(0.000000,213.000000) scale(0.100000,-0.100000)"
fill="#000000" stroke="none">
<path d="M848 2097 c-27 -23 -43 -50 -58 -94 -27 -84 -25 -121 15 -238 l33
-100 142 -148 c78 -81 166 -163 195 -182 29 -20 72 -53 96 -74 24 -21 73 -53
107 -70 35 -18 82 -45 104 -62 23 -16 48 -29 57 -29 9 0 36 -14 61 -30 l45
-30 57 0 c32 0 76 -7 99 -17 l41 -16 47 16 c58 21 110 22 139 1 12 -8 34 -38
48 -67 15 -28 41 -73 60 -99 38 -56 51 -106 35 -137 -9 -16 -21 -21 -56 -21
-27 0 -67 -11 -108 -30 l-65 -30 -186 0 c-143 0 -195 3 -223 15 -19 8 -60 15
-90 15 -29 0 -70 7 -90 15 -20 8 -66 15 -105 15 -38 0 -84 7 -105 15 -19 8
-47 15 -62 15 -33 0 -61 18 -131 86 -31 30 -87 69 -130 90 -41 20 -88 47 -105
59 -53 40 -113 65 -155 65 -22 0 -57 7 -77 15 -19 8 -60 15 -90 15 -29 0 -70
7 -90 15 -19 8 -63 15 -97 15 -75 -1 -152 -38 -175 -85 -8 -16 -18 -38 -23
-47 -13 -28 -9 -64 8 -79 9 -8 27 -31 40 -51 27 -43 70 -67 181 -103 43 -14
102 -37 131 -50 29 -14 69 -25 90 -25 20 0 57 -6 82 -14 60 -19 125 -35 182
-46 26 -5 56 -13 67 -19 11 -6 32 -11 48 -11 44 0 73 -27 105 -98 l30 -66 -13
-39 c-20 -61 -48 -77 -139 -77 l-77 0 -16 -18 c-23 -25 -22 -85 1 -105 10 -10
29 -17 43 -17 13 0 45 -7 71 -17 l47 -17 43 19 c57 26 164 129 194 187 18 36
24 63 24 113 0 37 5 75 10 86 l11 19 55 0 c30 0 71 -7 91 -15 19 -8 53 -15 75
-15 21 0 55 -7 75 -15 20 -8 66 -15 105 -15 38 0 84 -7 105 -15 19 -8 49 -15
65 -15 40 0 78 -40 78 -82 0 -20 12 -51 30 -78 16 -25 30 -53 30 -63 0 -10 38
-58 85 -108 47 -49 85 -94 85 -99 0 -14 205 -13 233 2 12 6 29 14 37 18 14 6
57 68 117 165 l23 36 0 149 c0 88 -4 151 -10 155 -5 3 -10 19 -10 35 0 16 -20
70 -45 121 -34 69 -45 104 -45 139 0 36 -7 56 -29 87 -16 22 -38 58 -49 79
-11 22 -32 50 -46 63 -16 15 -26 35 -26 52 0 14 -7 44 -16 65 -12 28 -14 53
-9 89 15 114 2 174 -56 249 -75 99 -251 275 -304 305 -28 16 -63 45 -78 65
-18 23 -41 39 -66 46 -45 12 -73 26 -116 56 -17 12 -63 38 -102 58 l-73 36
-83 0 c-75 0 -172 22 -194 43 -3 4 -54 7 -112 7 l-106 0 -37 -33z m266 -176
c61 -29 124 -68 156 -98 30 -26 71 -59 91 -72 20 -13 46 -39 59 -58 13 -19 37
-44 54 -56 57 -40 191 -170 237 -231 26 -34 60 -69 75 -79 38 -25 63 -59 70
-96 5 -23 2 -32 -15 -41 l-22 -11 -107 36 c-120 40 -144 50 -187 81 -16 12
-67 41 -113 64 -52 27 -93 56 -109 77 -15 19 -44 43 -65 54 -21 11 -84 65
-139 120 l-100 100 -45 91 c-24 51 -44 98 -44 105 0 24 48 63 76 63 15 0 73
-22 128 -49z m-546 -1081 c42 -19 53 -35 30 -43 -12 -3 -109 26 -132 41 -10 6
19 20 44 21 8 0 34 -8 58 -19z m1677 -425 c45 -44 27 -146 -37 -212 -18 -18
-40 -33 -50 -33 -30 0 -98 78 -130 147 -16 36 -27 71 -25 77 10 26 72 46 145
46 l73 0 24 -25z"/>
</g>
</svg>
