<?xml version="1.0" standalone="no"?>
<!DOCTYPE svg PUBLIC "-//W3C//DTD SVG 20010904//EN"
 "http://www.w3.org/TR/2001/REC-SVG-20010904/DTD/svg10.dtd">
<svg version="1.0" xmlns="http://www.w3.org/2000/svg"
 width="1137.000000pt" height="153.000000pt" viewBox="0 0 1137.000000 153.000000"
 preserveAspectRatio="xMidYMid meet">
<metadata>
Created by potrace 1.16, written by Peter Selinger 2001-2019
</metadata>
<g transform="translate(0.000000,153.000000) scale(0.100000,-0.100000)"
fill="#000000" stroke="none">
<path d="M2315 1520 c-3 -5 -21 -10 -38 -10 -21 0 -53 -14 -92 -41 -90 -61
-113 -86 -131 -148 l-16 -56 13 -53 13 -54 55 -43 c31 -24 72 -60 91 -80 33
-34 174 -115 202 -115 7 0 55 -20 106 -45 52 -25 105 -45 118 -45 14 0 41 -7
61 -15 19 -8 45 -15 57 -15 27 0 152 -43 205 -69 22 -12 59 -21 81 -21 22 0
57 -7 77 -15 19 -8 53 -15 75 -15 21 0 55 -7 75 -15 19 -8 54 -15 77 -15 49 0
66 -13 66 -51 0 -15 6 -42 14 -60 24 -59 30 -156 12 -184 -25 -38 -57 -65
-104 -86 l-43 -20 -217 5 c-119 2 -226 5 -237 6 -11 1 -43 -2 -70 -5 -36 -5
-61 -3 -89 9 -31 13 -77 16 -228 16 -145 0 -197 3 -225 15 -27 11 -77 15 -210
15 -132 0 -182 4 -210 15 -27 12 -81 15 -239 15 l-204 0 -41 17 -41 16 -48
-17 -48 -17 -37 15 -37 16 -525 0 -524 0 -29 -15 -30 -16 0 -39 0 -39 30 -16
c16 -8 41 -15 55 -15 14 0 42 -7 62 -15 l35 -15 430 0 429 0 36 -15 c27 -12
81 -15 240 -15 158 0 212 -3 240 -15 28 -12 82 -15 255 -15 172 0 226 -3 255
-15 26 -11 76 -15 194 -15 123 0 168 -4 199 -16 l41 -16 42 11 c31 9 50 9 70
2 17 -7 108 -11 218 -11 146 0 198 -3 226 -15 46 -20 170 -20 216 0 20 8 49
15 64 15 31 0 126 60 186 118 21 20 52 62 68 92 16 30 39 69 50 86 l19 32 -10
26 c-18 49 -12 105 15 131 l24 25 56 0 c31 0 72 -7 92 -15 20 -8 66 -15 105
-15 l70 0 65 -30 64 -30 658 0 659 0 35 15 c24 10 70 15 135 15 66 0 112 5
135 15 20 8 54 15 76 15 22 0 64 11 93 24 73 34 168 66 195 66 68 0 296 155
306 208 9 42 50 77 120 101 l63 21 198 0 c152 0 205 -3 233 -15 20 -8 66 -15
105 -15 53 0 82 -6 124 -25 31 -14 132 -51 225 -81 l169 -57 58 -51 c32 -29
73 -58 91 -66 l34 -13 43 11 c66 18 476 16 534 -2 59 -19 136 -36 159 -36 23
0 91 74 91 99 0 11 -13 48 -30 83 -37 79 -37 102 0 158 16 25 30 52 30 61 0
54 109 99 236 99 52 0 95 6 119 16 l38 16 41 -16 c29 -11 76 -16 154 -16 78 0
124 -5 149 -15 19 -8 59 -15 87 -15 28 0 57 -4 65 -9 l14 -9 -12 -32 c-6 -18
-11 -80 -11 -137 l0 -104 24 -47 c13 -26 43 -65 66 -87 23 -22 57 -61 76 -87
19 -25 54 -58 77 -71 23 -14 52 -39 65 -56 12 -17 46 -43 75 -57 29 -15 72
-43 96 -62 66 -54 154 -112 169 -112 19 0 81 -30 117 -56 79 -58 233 -118 321
-126 31 -3 64 -14 82 -26 l30 -22 180 0 c110 0 183 4 187 10 3 6 13 10 21 10
21 0 151 66 192 96 23 18 32 33 32 54 0 16 -4 32 -10 35 -5 3 -10 40 -10 81 0
89 -19 133 -92 213 -27 29 -55 66 -63 81 -15 30 -101 92 -183 134 -28 14 -63
42 -78 62 -26 34 -89 74 -116 74 -7 0 -65 25 -128 56 -63 31 -150 67 -194 81
-43 14 -109 41 -147 59 -92 45 -180 74 -224 74 -20 0 -52 7 -72 15 -19 8 -45
15 -57 15 -12 0 -60 13 -106 30 -47 16 -101 30 -120 30 -19 0 -55 6 -80 14
-101 32 -140 39 -255 45 -66 4 -130 12 -142 19 -34 19 -459 17 -506 -3 -20 -8
-55 -15 -77 -15 -74 0 -200 -87 -200 -138 0 -9 -14 -37 -30 -62 l-30 -45 0
-65 c1 -37 7 -76 15 -90 8 -14 14 -28 15 -32 0 -16 -41 -18 -75 -3 -29 11 -76
15 -197 15 -118 0 -168 4 -195 15 -19 8 -52 15 -72 15 -43 0 -144 34 -181 60
-15 10 -82 37 -151 60 -68 22 -143 49 -165 60 -92 43 -163 60 -244 60 -49 0
-95 6 -117 15 -20 8 -66 15 -105 15 -38 0 -84 7 -105 15 -46 20 -170 20 -216
0 -23 -9 -68 -15 -122 -15 l-86 0 -47 -24 c-26 -13 -69 -47 -95 -75 -37 -40
-47 -57 -47 -85 l0 -34 -48 -35 c-50 -37 -149 -77 -192 -77 -14 0 -43 -12 -65
-27 -22 -15 -58 -30 -80 -34 -50 -10 -116 -26 -175 -45 -25 -8 -75 -14 -111
-14 -37 0 -83 -7 -102 -15 l-36 -15 -667 0 -666 0 -65 30 -64 30 -70 0 c-39 0
-85 7 -106 15 -19 8 -59 15 -89 15 -29 0 -65 5 -81 11 -34 13 -158 140 -207
212 -19 29 -86 102 -148 164 l-113 112 -83 42 c-52 26 -93 54 -109 76 -25 32
-88 73 -113 73 -7 0 -41 14 -77 30 -35 17 -71 30 -78 30 -8 0 -17 5 -20 10 -4
6 -78 10 -190 10 -112 0 -186 -4 -190 -10z m251 -141 c34 -11 83 -38 109 -60
26 -21 55 -39 64 -39 26 -1 78 -30 203 -113 81 -54 128 -93 156 -130 24 -32
58 -62 88 -77 52 -27 81 -66 71 -93 -8 -22 -113 -23 -164 -2 -19 8 -53 15 -75
15 -22 0 -64 11 -94 25 -68 31 -168 65 -192 65 -49 0 -269 96 -343 149 -21 16
-54 32 -73 35 -42 8 -92 53 -102 90 -5 22 -1 33 22 57 33 35 101 69 137 69 14
0 40 7 58 15 46 19 62 19 135 -6z m7331 -444 c19 -8 48 -15 62 -15 17 0 38
-11 56 -30 16 -16 35 -30 42 -30 40 0 115 -50 203 -136 105 -102 136 -115 164
-71 15 22 10 64 -16 142 -21 65 -21 65 2 65 12 0 51 -13 87 -30 35 -16 76 -30
91 -30 38 -1 99 -31 156 -79 26 -23 55 -41 63 -41 28 0 103 -41 120 -66 46
-67 87 -104 124 -114 23 -6 46 -21 56 -37 10 -15 37 -46 61 -69 l42 -41 0 -54
c0 -66 -16 -92 -75 -119 l-44 -20 -141 0 -142 0 -65 30 c-35 17 -81 30 -102
30 -44 0 -144 34 -183 62 -16 11 -43 24 -61 29 -19 5 -52 25 -75 45 -23 20
-57 40 -76 45 -19 5 -62 34 -95 64 -34 30 -66 55 -72 55 -5 0 -63 52 -129 116
-112 109 -210 234 -210 268 0 42 89 59 157 31z"/>
</g>
</svg>
