<?xml version="1.0" standalone="no"?>
<!DOCTYPE svg PUBLIC "-//W3C//DTD SVG 20010904//EN"
 "http://www.w3.org/TR/2001/REC-SVG-20010904/DTD/svg10.dtd">
<svg version="1.0" xmlns="http://www.w3.org/2000/svg"
 width="366.000000pt" height="249.000000pt" viewBox="0 0 366.000000 249.000000"
 preserveAspectRatio="xMidYMid meet">
<metadata>
Created by potrace 1.16, written by Peter Selinger 2001-2019
</metadata>
<g transform="translate(0.000000,249.000000) scale(0.100000,-0.100000)"
fill="#000000" stroke="none">
<path d="M40 2476 c0 -7 -9 -25 -20 -39 l-20 -25 0 -89 0 -89 51 -57 c28 -32
90 -83 137 -114 47 -31 99 -68 116 -83 49 -42 96 -63 166 -73 86 -12 124 -12
187 0 64 12 74 20 113 89 16 30 34 54 39 54 22 0 80 -33 125 -69 26 -23 56
-41 65 -41 31 0 206 -97 359 -199 53 -35 128 -80 167 -99 38 -19 91 -52 117
-73 25 -21 78 -54 116 -74 39 -19 110 -62 159 -95 48 -33 95 -60 104 -60 9 0
35 -15 59 -32 24 -18 80 -58 124 -88 45 -31 82 -64 84 -73 2 -10 -12 -37 -31
-60 -53 -64 -107 -180 -107 -227 0 -51 33 -151 66 -199 13 -19 24 -43 24 -53
0 -9 26 -37 58 -61 31 -25 77 -66 102 -92 25 -26 62 -58 83 -71 20 -14 62 -47
92 -74 30 -28 62 -50 71 -50 15 0 104 -49 205 -114 30 -20 61 -36 68 -36 7 0
37 -11 67 -25 75 -34 168 -65 198 -65 14 0 28 -4 31 -10 8 -13 252 -13 260 0
3 6 15 10 25 10 49 0 140 123 140 189 0 16 5 33 10 36 5 3 10 33 10 66 l0 59
-42 61 c-57 82 -144 176 -191 205 -20 14 -62 47 -92 74 -30 28 -63 50 -74 50
-10 0 -37 15 -61 33 -42 32 -111 75 -210 132 -29 17 -73 44 -99 61 -26 17 -67
42 -91 54 -25 12 -64 38 -88 58 -68 54 -136 99 -203 134 -34 17 -78 45 -98 63
-40 35 -92 65 -115 65 -8 0 -24 13 -36 30 -23 32 -148 120 -171 120 -8 0 -52
25 -97 55 -46 30 -100 64 -121 75 -21 10 -75 44 -120 75 -45 31 -114 72 -154
92 -40 19 -93 53 -119 74 -25 21 -88 60 -138 85 -51 26 -108 61 -127 77 -20
17 -66 41 -103 53 -38 13 -109 49 -158 82 -49 32 -105 64 -123 71 -19 7 -47
20 -64 28 -144 78 -192 102 -203 103 -41 1 -152 75 -152 101 0 5 -83 9 -185 9
l-185 0 0 -14z m335 -227 c33 -11 84 -31 113 -45 29 -13 59 -24 67 -24 19 0
75 -49 75 -66 0 -7 -9 -18 -19 -24 -70 -37 -258 40 -313 128 l-21 34 14 9 c19
12 16 12 84 -12z m2233 -1286 c21 -9 51 -27 67 -39 17 -12 50 -32 75 -44 25
-12 66 -40 92 -61 26 -22 96 -64 156 -94 62 -31 134 -77 170 -107 69 -59 146
-119 209 -161 54 -36 76 -68 103 -145 l21 -62 -17 -28 c-34 -59 -107 -78 -181
-47 -19 8 -53 15 -75 15 -22 0 -65 12 -95 26 -31 14 -91 36 -132 50 -99 31
-117 40 -173 86 -26 21 -63 44 -83 51 -68 23 -243 179 -297 263 -69 109 -84
219 -39 283 l22 31 71 0 c45 0 83 -6 106 -17z"/>
</g>
</svg>
