<?xml version="1.0" encoding="UTF-8" standalone="no"?>
<!-- Created with Inkscape (http://www.inkscape.org/) -->

<svg
   version="1.1"
   id="svg1"
   width="192.3026"
   height="341.82462"
   viewBox="0 0 192.3026 341.82462"
   xmlns="http://www.w3.org/2000/svg"
   xmlns:svg="http://www.w3.org/2000/svg">
  <defs
     id="defs1" />
  <g
     id="g1"
     transform="translate(-0.67557864)">
    <path
       style="fill:#000000"
       d="M 157.64495,340.41601 C 139.78421,336.09237 112.09209,314.40888 91.981237,289 76.636625,269.61298 73.252278,257.16644 79.831205,244.31608 c 1.17811,-2.30115 3.139931,-4.88288 4.359603,-5.73717 2.187984,-1.53253 1.977237,-1.79704 -15.788539,-19.81609 C 46.037577,196.0793 29.81783,174.7886 17.159881,151.5 4.6733865,128.52685 0.60390967,114.5779 0.67653069,95 0.75582448,73.623186 4.635669,57.512776 14.234547,38.702585 22.214462,23.064954 33.365472,10.442297 44,5.008857 49.25959,2.3216043 57.84432,0 62.521539,0 68.345382,0 81.543889,3.5390322 85.061606,6.0438671 90.922005,10.216839 91.634628,14.840705 87.63408,22.735407 82.694157,32.483875 72.400066,38.215418 59.5,38.399896 51.119543,38.519741 44.487652,35.694688 36.33592,28.532461 l -5.16408,-4.537235 -2.931033,3.752387 C 17.687668,41.258026 11.767652,62.434628 11.676531,87 c -0.07262,19.5779 3.996855,33.52685 16.48335,56.5 6.803131,12.51667 11.081579,18.95328 26.255848,39.5 8.084954,10.94743 48.345051,52.57496 53.572851,55.39246 4.83382,2.60516 14.24531,10.09975 15.75592,12.5468 2.04271,3.30901 -1.14944,8.80217 -5.95106,10.24077 -4.91031,1.47117 -6.52609,0.61741 -16.67436,-8.81053 -8.108948,-7.53337 -12.375259,-9.75025 -13.437385,-6.98239 -1.022764,2.66528 1.146811,12.65007 4.12846,18.99995 2.974542,6.33474 10.807765,16.81561 21.980655,29.41017 l 6.47353,7.29723 1.89409,-3.11457 c 4.75681,-7.82196 22.84135,-11.34782 35.84818,-6.98916 9.35584,3.13519 16.3202,7.41161 24.29554,14.91852 6.89812,6.49297 10.63281,12.39591 10.67589,16.87399 0.0269,2.80088 -4.08166,11.10219 -6.63794,13.41177 -6.10581,5.51657 -16.82791,7.09377 -28.69515,4.221 z m 24.00789,-8.95372 c 1.26663,-3.30078 -2.72429,-10.28743 -9.55974,-16.73566 C 160.98469,304.24753 147.66528,298 136.43276,298 c -5.02153,0 -5.94731,0.33931 -8.56166,3.13799 -2.83222,3.0319 -2.87114,3.20474 -1.15121,5.11246 3.37649,3.74515 20.02861,15.69673 27.44065,19.69473 11.21489,6.04924 26.13885,9.04415 27.4923,5.51711 z M 75.198715,27.876134 c 3.309221,-1.736917 4.712479,-4.832437 3.616212,-7.977191 C 77.380721,15.784777 73.301302,13.257078 64.309571,10.911102 55.306785,8.5622413 49.49476,8.9130684 44.308394,12.118419 l -3.432008,2.121098 2.311807,2.471136 c 4.100987,4.383628 12.024821,9.667226 17.234985,11.492257 5.071962,1.776621 11.018657,1.645104 14.775537,-0.326776 z"
       id="path1" />
  </g>
</svg>
