<?xml version="1.0" standalone="no"?>
<!DOCTYPE svg PUBLIC "-//W3C//DTD SVG 20010904//EN"
 "http://www.w3.org/TR/2001/REC-SVG-20010904/DTD/svg10.dtd">
<svg version="1.0" xmlns="http://www.w3.org/2000/svg"
 width="399.000000pt" height="474.000000pt" viewBox="0 0 399.000000 474.000000"
 preserveAspectRatio="xMidYMid meet">
<metadata>
Created by potrace 1.16, written by Peter Selinger 2001-2019
</metadata>
<g transform="translate(0.000000,474.000000) scale(0.100000,-0.100000)"
fill="#000000" stroke="none">
<path d="M13 4713 c-8 -17 -13 -73 -13 -154 l0 -127 25 -6 c13 -3 36 -22 51
-42 15 -19 44 -44 64 -54 20 -10 76 -46 126 -79 49 -34 96 -61 104 -61 9 0 53
-25 98 -55 46 -30 102 -65 125 -76 72 -37 103 -67 163 -157 32 -48 78 -111
101 -139 23 -29 48 -72 54 -95 7 -24 26 -59 44 -78 52 -58 80 -101 123 -187
27 -52 54 -91 77 -108 19 -15 35 -34 35 -42 0 -21 37 -90 97 -177 30 -43 68
-106 85 -140 17 -34 46 -78 64 -98 19 -21 54 -79 80 -130 25 -51 63 -111 84
-133 21 -22 51 -58 67 -81 15 -22 43 -60 61 -84 17 -24 32 -49 32 -56 0 -7 13
-41 30 -76 16 -34 30 -77 30 -95 0 -40 46 -95 102 -124 l40 -20 30 10 c50 18
74 13 120 -24 46 -37 130 -85 149 -85 6 0 40 -13 76 -30 35 -16 77 -30 91 -30
16 0 60 -22 107 -53 44 -29 100 -64 125 -79 25 -14 54 -36 65 -48 11 -12 38
-31 60 -42 22 -11 60 -37 85 -57 24 -20 81 -60 125 -90 44 -29 86 -63 94 -75
9 -11 38 -45 66 -73 108 -114 145 -155 244 -273 22 -27 46 -73 59 -113 13 -38
29 -82 38 -98 30 -60 64 -175 64 -222 0 -26 -7 -64 -15 -84 -8 -19 -15 -47
-15 -62 0 -51 -65 -166 -139 -243 -68 -73 -89 -87 -180 -124 -61 -25 -91 -51
-91 -79 0 -45 123 -83 178 -56 9 4 35 17 56 27 22 10 66 45 98 76 32 32 67 58
78 58 42 0 90 61 161 202 51 102 69 148 69 178 0 22 7 57 15 77 8 19 15 61 15
93 0 32 -7 74 -15 93 -8 20 -15 48 -15 62 0 34 -61 154 -94 184 -14 14 -26 31
-26 38 0 26 -43 98 -85 144 -23 25 -54 63 -67 85 -14 22 -46 52 -70 68 -25 16
-58 48 -74 73 -15 24 -51 60 -80 79 -28 19 -71 52 -95 73 -24 21 -60 46 -79
56 -19 10 -55 34 -79 53 -75 61 -322 223 -396 260 -38 19 -84 45 -100 58 -17
12 -66 34 -110 48 -106 35 -218 90 -263 130 -20 17 -55 46 -78 63 -22 17 -47
47 -56 65 -8 18 -27 59 -42 90 -19 42 -36 64 -66 83 -44 28 -76 72 -86 120 -3
16 -18 43 -32 58 -33 35 -98 138 -150 237 -22 41 -50 84 -62 95 -12 11 -34 40
-48 65 -14 25 -49 79 -78 121 -28 42 -66 103 -83 136 -18 33 -52 82 -76 110
-30 34 -45 60 -45 79 0 18 -11 40 -30 59 -16 16 -49 66 -73 110 -24 44 -52 94
-62 111 -27 45 -15 64 39 64 25 0 57 -5 73 -11 15 -7 90 -13 167 -16 91 -2
150 -9 173 -18 24 -10 72 -15 150 -15 78 0 125 -5 150 -15 l35 -15 268 0 268
0 35 15 c20 8 54 15 75 15 22 0 56 7 75 15 23 9 68 15 120 15 53 0 98 6 120
15 26 11 73 15 165 15 93 0 140 4 165 15 20 8 59 15 87 15 50 0 135 24 214 60
69 32 249 90 280 90 22 0 46 18 111 83 45 45 92 101 104 124 11 23 25 44 31
48 6 4 10 52 10 115 0 63 -4 111 -10 115 -6 4 -19 24 -30 46 -24 47 -48 63
-137 95 -88 31 -179 32 -268 3 l-65 -22 -50 -53 -50 -53 0 -66 0 -65 36 -72
c20 -40 50 -89 66 -109 19 -23 28 -44 24 -54 -6 -15 -79 -54 -103 -55 -6 0
-41 -13 -76 -30 l-65 -30 -70 0 c-39 0 -85 -7 -105 -15 -23 -9 -68 -15 -120
-15 -53 0 -98 -6 -120 -15 -27 -11 -77 -15 -199 -15 l-163 0 -45 -30 -45 -30
-278 0 -278 0 -36 15 c-23 10 -69 15 -135 15 -65 0 -111 5 -135 15 -19 8 -60
15 -90 15 -29 0 -70 7 -90 15 -19 8 -60 15 -90 15 -29 0 -70 7 -90 15 -19 8
-59 15 -87 15 -124 0 -274 91 -343 210 -30 51 -271 297 -330 337 -21 14 -67
43 -102 64 l-63 39 -112 0 -111 0 -12 -27z m3721 -188 c19 -8 43 -26 52 -40
l17 -25 -17 -44 c-9 -24 -26 -52 -36 -61 l-20 -18 -40 13 c-49 16 -107 72
-115 112 -8 36 -1 44 56 62 58 18 61 18 103 1z m-3408 -56 c30 -29 54 -58 54
-65 0 -22 -37 -16 -67 11 -16 13 -43 36 -60 50 -40 32 -43 55 -7 55 17 0 43
-17 80 -51z"/>
</g>
</svg>
