<?xml version="1.0" standalone="no"?>
<!DOCTYPE svg PUBLIC "-//W3C//DTD SVG 20010904//EN"
 "http://www.w3.org/TR/2001/REC-SVG-20010904/DTD/svg10.dtd">
<svg version="1.0" xmlns="http://www.w3.org/2000/svg"
 width="1083.000000pt" height="162.000000pt" viewBox="0 0 1083.000000 162.000000"
 preserveAspectRatio="xMidYMid meet">
<metadata>
Created by potrace 1.16, written by Peter Selinger 2001-2019
</metadata>
<g transform="translate(0.000000,162.000000) scale(0.100000,-0.100000)"
fill="#000000" stroke="none">
<path d="M4086 1604 l-6 -15 -60 7 -60 7 -27 -19 c-16 -10 -50 -21 -78 -25
-27 -4 -81 -12 -118 -19 l-68 -12 -25 17 c-29 19 -64 17 -74 -5 -32 -70 -38
-76 -124 -121 -50 -25 -102 -61 -118 -80 -115 -135 -188 -262 -188 -324 0 -28
9 -45 43 -81 23 -26 58 -70 78 -98 27 -40 42 -52 65 -54 l30 -3 47 50 c26 28
47 54 47 59 0 4 -16 35 -36 68 l-36 59 12 33 c6 18 31 61 54 95 32 48 51 65
80 75 21 7 61 32 88 57 30 27 60 45 74 45 13 0 48 11 78 25 30 14 72 25 94 25
22 0 56 7 75 15 42 17 153 20 193 5 l26 -10 44 25 43 25 456 0 456 0 46 -27
45 -26 152 -5 151 -5 41 -23 41 -24 31 11 31 11 43 -25 c28 -17 52 -24 69 -20
16 3 38 -3 59 -16 21 -12 43 -18 60 -15 16 4 39 -2 61 -15 28 -17 62 -23 156
-29 128 -9 185 -29 191 -68 2 -10 9 -35 17 -54 7 -19 16 -46 19 -60 9 -43 265
-270 303 -270 8 0 39 -11 69 -25 72 -33 168 -65 194 -65 12 0 41 -11 64 -25
l43 -25 63 42 c35 24 72 54 82 68 l19 25 -11 31 c-8 21 -8 39 0 58 5 15 10 38
10 52 0 37 37 50 85 30 29 -12 74 -16 197 -16 118 0 168 -4 195 -15 20 -8 66
-15 105 -15 38 0 84 -7 105 -15 23 -10 69 -15 135 -15 65 0 111 -5 135 -15 19
-8 60 -15 90 -15 29 0 70 -7 90 -15 25 -11 72 -15 165 -15 88 0 139 -4 162
-14 l34 -14 764 -1 764 -2 37 16 c20 8 48 15 61 15 14 0 49 11 78 25 29 13
107 42 172 64 l120 39 67 83 68 84 1 77 c0 42 -4 80 -10 83 -5 3 -10 35 -10
69 l0 64 -43 58 -43 59 -87 43 -87 43 -48 -15 c-111 -33 -162 -74 -162 -131 0
-17 -13 -50 -30 -75 -36 -54 -37 -68 -9 -122 19 -37 35 -80 72 -187 l11 -33
-19 -14 c-10 -8 -31 -14 -46 -14 -14 0 -43 -7 -62 -15 -21 -8 -67 -15 -105
-15 -39 0 -85 -7 -105 -15 l-36 -15 -456 0 -456 0 -36 15 c-27 12 -81 15 -240
15 -158 0 -212 3 -240 15 -22 9 -67 15 -120 15 -52 0 -97 6 -120 15 -24 10
-71 15 -150 15 -78 0 -125 5 -150 15 -20 8 -66 15 -105 15 -38 0 -84 7 -105
15 -27 11 -77 15 -210 15 -132 0 -182 4 -210 15 -19 8 -60 15 -90 15 -29 0
-70 7 -90 15 -19 8 -53 15 -75 15 -21 0 -55 7 -75 15 -20 8 -66 15 -105 15
-38 0 -84 7 -105 15 -19 8 -52 15 -72 15 -52 0 -135 31 -291 107 l-135 67 -75
8 c-159 17 -216 30 -293 70 -29 15 -49 18 -78 13 -29 -5 -47 -2 -64 9 -13 9
-41 16 -62 16 -21 0 -51 9 -68 20 l-30 20 -118 0 c-83 0 -128 4 -155 15 -24
11 -50 14 -75 10 -26 -5 -45 -2 -62 9 -13 9 -43 16 -65 16 -27 0 -43 5 -46 15
l-6 15 -543 0 -543 0 -6 -16z m6525 -266 c31 -43 39 -146 14 -171 -20 -21 -54
-22 -81 -2 -30 20 -68 138 -54 164 27 51 89 55 121 9z"/>
<path d="M0 942 c0 -54 132 -177 260 -242 23 -12 61 -35 83 -51 22 -16 53 -29
69 -29 17 0 59 -13 95 -30 35 -16 69 -30 74 -30 6 0 35 -11 65 -25 67 -31 167
-65 190 -65 9 0 65 -16 124 -36 78 -26 121 -47 155 -75 l47 -39 62 0 c44 0 76
-7 114 -25 30 -14 71 -25 91 -25 20 0 45 -6 56 -14 11 -7 40 -16 65 -18 50 -6
96 -20 152 -49 28 -14 58 -19 123 -19 55 0 99 -6 123 -15 24 -11 50 -14 74
-10 29 5 46 2 73 -15 28 -17 44 -20 75 -15 31 5 47 2 75 -15 28 -17 44 -20 75
-15 30 5 47 2 65 -9 13 -9 41 -16 62 -16 21 0 51 -9 67 -19 l29 -19 240 0
c157 0 243 -4 250 -11 14 -14 519 -15 532 -2 6 6 69 12 140 15 179 8 206 10
240 23 17 6 55 16 85 23 30 7 72 23 93 36 21 14 75 37 120 52 l81 27 29 43
c16 24 46 54 66 67 63 39 91 80 91 131 0 30 8 60 25 88 l25 43 -10 30 c-8 21
-8 38 0 58 l10 27 -25 44 c-14 23 -25 50 -25 59 0 9 -13 30 -29 46 -43 42 -74
38 -129 -16 l-45 -45 5 -110 6 -109 -34 -50 c-48 -74 -117 -151 -134 -151 -8
0 -28 -9 -45 -20 -16 -11 -41 -20 -54 -20 -13 0 -48 -14 -78 -30 -31 -18 -67
-30 -88 -30 -20 0 -47 -7 -60 -16 -17 -11 -36 -14 -62 -9 -25 4 -51 1 -76 -10
l-39 -16 -35 12 c-28 9 -48 9 -87 -1 -45 -10 -150 -10 -451 0 -11 0 -57 -3
-101 -6 l-82 -6 -45 26 -45 26 -26 -10 c-15 -5 -57 -10 -92 -10 -51 0 -75 5
-107 24 l-42 25 -43 -12 -44 -12 -41 24 c-23 14 -60 26 -82 27 -151 11 -243
22 -262 32 -12 7 -60 12 -108 12 l-86 0 -42 25 c-27 15 -51 22 -65 18 -13 -3
-40 3 -65 15 -68 32 -110 45 -144 43 -18 0 -47 8 -65 19 -24 14 -61 21 -123
26 -115 8 -200 36 -260 85 -31 26 -57 39 -76 39 -16 0 -46 7 -66 15 -19 8 -46
15 -60 15 -13 0 -50 12 -80 26 -31 14 -91 36 -132 50 -42 13 -100 36 -129 49
-29 14 -64 25 -78 25 -30 0 -86 24 -129 56 -16 12 -76 45 -132 73 l-103 51
-60 0 -60 0 0 -28z"/>
</g>
</svg>
