<?xml version="1.0" standalone="no"?>
<!DOCTYPE svg PUBLIC "-//W3C//DTD SVG 20010904//EN"
 "http://www.w3.org/TR/2001/REC-SVG-20010904/DTD/svg10.dtd">
<svg version="1.0" xmlns="http://www.w3.org/2000/svg"
 width="603.000000pt" height="90.000000pt" viewBox="0 0 603.000000 90.000000"
 preserveAspectRatio="xMidYMid meet">
<metadata>
Created by potrace 1.16, written by Peter Selinger 2001-2019
</metadata>
<g transform="translate(0.000000,90.000000) scale(0.100000,-0.100000)"
fill="#000000" stroke="none">
<path d="M37 872 l-37 -25 0 -82 0 -83 34 -25 c57 -44 143 -67 251 -67 l96 0
43 -25 44 -25 26 10 c50 18 127 12 171 -15 22 -14 50 -25 62 -25 11 0 33 -14
47 -31 30 -36 35 -101 10 -137 -25 -36 -95 -62 -169 -62 -124 0 -235 -55 -235
-116 0 -38 42 -75 77 -68 20 4 40 -1 64 -15 l35 -20 44 13 c25 8 71 26 102 40
35 16 74 26 103 26 l46 0 51 47 c64 61 128 183 128 246 0 24 5 48 12 55 8 8
51 12 126 12 l113 0 43 -25 44 -25 26 10 c16 6 134 10 287 10 l260 0 36 -15
c25 -11 72 -15 165 -15 92 0 139 -4 165 -15 19 -8 54 -15 77 -15 29 0 54 -9
86 -30 25 -16 51 -30 58 -30 8 0 43 -14 79 -30 35 -16 74 -30 86 -30 25 0 212
-62 273 -90 98 -45 162 -60 257 -60 l93 0 84 -30 c62 -21 104 -30 153 -30 37
0 84 -7 104 -15 22 -10 68 -15 125 -15 l89 0 25 -25 25 -25 434 0 c278 0 436
4 440 10 3 6 32 10 64 10 32 0 75 7 94 15 20 8 60 15 89 15 33 0 85 12 138 30
46 17 101 30 121 30 20 0 53 7 72 15 20 8 62 15 94 15 l58 1 80 42 c44 24 94
50 110 59 17 9 53 26 82 38 86 38 213 190 213 257 0 17 4 35 10 38 6 3 10 24
10 47 l0 40 -76 71 c-45 42 -106 87 -148 109 l-71 37 -63 1 c-79 0 -139 -29
-205 -99 l-47 -50 0 -46 c0 -25 -7 -62 -15 -82 -24 -57 -19 -122 11 -167 32
-47 46 -100 31 -115 -6 -6 -26 -11 -45 -11 -18 0 -42 -5 -53 -11 -11 -6 -41
-14 -67 -19 -57 -11 -122 -27 -182 -46 -25 -8 -61 -14 -81 -14 -20 0 -53 -7
-72 -15 -24 -10 -70 -15 -135 -15 -66 0 -112 -5 -135 -15 l-36 -15 -292 0
-291 0 -65 30 -64 30 -70 0 c-39 0 -85 7 -106 15 -22 9 -67 15 -117 15 -44 0
-101 6 -126 14 -97 31 -139 39 -240 46 -104 8 -214 38 -326 90 -57 26 -159 60
-182 60 -38 0 -139 44 -208 90 -40 27 -91 58 -113 70 l-40 20 -251 0 c-200 0
-258 3 -287 15 l-35 15 -295 0 -294 0 -36 15 c-22 9 -67 15 -120 15 l-85 0
-61 28 c-34 16 -73 32 -87 35 -14 4 -47 24 -74 47 -26 22 -57 40 -68 40 -10 0
-30 11 -44 25 l-25 25 -282 -1 -282 -1 -38 -26z m5704 -194 c23 -18 51 -45 62
-59 l19 -27 -7 -42 c-4 -24 -18 -54 -31 -67 l-23 -23 -72 0 c-79 0 -116 15
-143 60 -9 16 -16 38 -16 50 0 55 86 140 142 140 15 0 45 -14 69 -32z"/>
</g>
</svg>
