<?xml version="1.0" standalone="no"?>
<!DOCTYPE svg PUBLIC "-//W3C//DTD SVG 20010904//EN"
 "http://www.w3.org/TR/2001/REC-SVG-20010904/DTD/svg10.dtd">
<svg version="1.0" xmlns="http://www.w3.org/2000/svg"
 width="558.000000pt" height="162.000000pt" viewBox="0 0 558.000000 162.000000"
 preserveAspectRatio="xMidYMid meet">
<metadata>
Created by potrace 1.16, written by Peter Selinger 2001-2019
</metadata>
<g transform="translate(0.000000,162.000000) scale(0.100000,-0.100000)"
fill="#000000" stroke="none">
<path d="M5255 1610 c-3 -5 -15 -10 -26 -10 -28 0 -103 -72 -155 -150 l-44
-66 0 -51 0 -52 55 -63 c30 -34 55 -68 55 -74 0 -6 -26 -21 -57 -33 l-56 -22
-543 0 -543 0 -37 16 c-26 11 -72 15 -166 15 -92 0 -139 4 -165 15 -27 12 -81
15 -240 15 -158 0 -212 3 -240 15 -19 8 -60 15 -90 15 -29 0 -70 7 -90 15 -19
8 -60 15 -90 15 -29 0 -70 7 -90 15 -22 9 -67 15 -117 15 -44 0 -101 6 -126
14 -86 27 -135 38 -210 46 -41 4 -106 20 -145 34 -38 14 -86 26 -105 26 -19 0
-55 6 -80 14 -78 25 -133 37 -195 45 -34 5 -70 13 -82 19 -12 7 -39 12 -59 12
-21 0 -100 21 -177 47 l-139 47 -57 -29 c-40 -21 -62 -42 -78 -70 -27 -48 -29
-75 -7 -118 23 -45 178 -197 200 -197 11 0 48 -14 82 -30 35 -17 69 -30 75
-30 5 0 31 -13 56 -29 25 -16 59 -32 75 -35 17 -4 42 -16 58 -27 l28 -20 0
-60 c0 -71 19 -113 90 -200 65 -81 252 -229 289 -229 33 0 171 -101 171 -125
0 -29 -140 -125 -182 -125 -14 0 -42 -7 -61 -15 -20 -8 -62 -15 -92 -15 -31 0
-66 -6 -78 -12 -18 -11 -231 -26 -397 -28 -73 -1 -258 17 -277 28 -12 7 -54
12 -93 12 -40 0 -86 6 -107 15 -19 8 -60 15 -90 15 -61 0 -116 21 -138 54 -12
16 -14 38 -9 96 l7 76 -23 44 c-27 56 -93 126 -141 150 -51 27 -285 100 -373
117 -38 7 -133 -25 -174 -59 -18 -16 -37 -28 -42 -28 -6 0 -10 -27 -10 -59 l0
-60 87 -91 87 -92 80 -40 c45 -22 102 -58 128 -79 32 -27 74 -48 135 -67 48
-16 107 -39 130 -51 23 -11 55 -21 70 -21 15 0 57 -14 91 -30 47 -22 79 -30
118 -30 30 0 71 -7 91 -15 25 -10 71 -15 154 -15 68 0 120 -4 124 -10 8 -14
402 -14 410 0 4 6 61 10 139 10 96 0 144 4 169 15 20 8 48 15 61 15 14 0 80
27 147 60 67 33 135 60 151 60 51 0 128 48 128 80 0 9 14 29 30 45 23 22 30
38 30 67 0 51 -55 113 -113 129 -23 6 -62 21 -87 34 -25 12 -56 25 -70 28 -14
4 -43 21 -65 40 -22 19 -73 51 -114 72 -58 31 -80 49 -102 85 -15 25 -38 55
-50 67 l-22 22 14 33 c7 18 26 51 41 72 39 55 36 80 -16 132 -33 33 -51 44
-75 44 -17 0 -48 7 -68 15 -19 8 -60 15 -90 15 -62 0 -105 16 -167 62 -24 18
-58 41 -75 50 -42 23 -41 42 2 34 17 -4 55 -11 83 -15 28 -5 61 -14 72 -20 11
-6 53 -11 92 -11 40 0 86 -6 107 -15 19 -8 53 -15 75 -15 21 0 55 -7 75 -15
19 -8 60 -15 90 -15 29 0 70 -7 90 -15 19 -8 61 -15 92 -15 l57 0 29 -30 29
-30 148 0 c110 0 158 -4 185 -15 23 -10 69 -15 135 -15 65 0 111 -5 135 -15
19 -8 60 -15 90 -15 29 0 70 -7 90 -15 19 -8 59 -15 89 -15 29 0 64 -4 79 -10
14 -5 90 -13 168 -16 82 -4 156 -12 176 -20 l33 -14 673 0 673 0 35 15 c20 8
52 15 72 15 109 0 239 84 380 243 l25 28 0 100 0 100 -41 57 c-23 31 -53 69
-67 85 l-26 27 -92 0 c-51 0 -96 -4 -99 -10z m103 -166 c12 -8 32 -36 43 -62
l21 -46 -17 -33 c-19 -34 -75 -83 -95 -83 -7 0 -34 16 -61 36 l-49 36 0 43 0
44 57 40 c63 46 69 47 101 25z m-5002 -884 c51 -8 152 -54 207 -92 31 -22 36
-58 11 -82 -36 -37 -166 -2 -215 57 -17 21 -44 40 -62 45 -38 10 -58 51 -37
77 7 9 20 13 29 10 9 -4 39 -10 67 -15z"/>
</g>
</svg>
