<?xml version="1.0" standalone="no"?>
<!DOCTYPE svg PUBLIC "-//W3C//DTD SVG 20010904//EN"
 "http://www.w3.org/TR/2001/REC-SVG-20010904/DTD/svg10.dtd">
<svg version="1.0" xmlns="http://www.w3.org/2000/svg"
 width="423.000000pt" height="114.000000pt" viewBox="0 0 423.000000 114.000000"
 preserveAspectRatio="xMidYMid meet">
<metadata>
Created by potrace 1.16, written by Peter Selinger 2001-2019
</metadata>
<g transform="translate(0.000000,114.000000) scale(0.100000,-0.100000)"
fill="#000000" stroke="none">
<path d="M3736 1087 l-56 -53 0 -100 0 -101 28 -39 c15 -21 42 -62 60 -91 l33
-52 -10 -19 c-7 -12 -25 -22 -48 -25 -42 -6 -103 -21 -173 -43 -25 -8 -68 -14
-96 -14 -28 0 -68 -7 -87 -15 -28 -12 -82 -15 -240 -15 -159 0 -213 -3 -240
-15 -53 -22 -481 -22 -534 0 -27 12 -81 15 -240 15 -158 0 -212 3 -240 15 -25
11 -72 15 -165 15 -92 0 -139 4 -165 15 -22 9 -67 15 -120 15 -52 0 -97 6
-120 15 -22 9 -67 15 -120 15 -52 0 -97 6 -120 15 -23 10 -69 15 -131 15 l-96
0 -91 29 c-99 32 -160 48 -220 60 -22 4 -56 12 -75 18 -57 18 -122 34 -160 40
-19 3 -48 18 -65 33 -42 39 -88 60 -131 60 l-37 0 -39 -42 c-56 -61 -53 -89
19 -160 35 -34 70 -59 89 -63 17 -3 56 -27 85 -52 30 -25 78 -61 107 -80 29
-19 63 -51 76 -71 13 -21 43 -50 68 -66 24 -15 59 -49 76 -76 17 -26 46 -59
63 -72 17 -12 46 -38 64 -57 57 -59 82 -83 114 -112 l33 -29 69 0 69 0 0 20
c0 12 -38 61 -90 116 -49 53 -90 100 -90 106 0 5 -44 55 -98 111 -84 88 -150
182 -137 195 5 5 93 -14 156 -34 26 -8 63 -14 83 -14 20 0 53 -7 73 -15 19 -8
60 -15 90 -15 29 0 70 -7 90 -15 26 -11 76 -15 195 -15 118 0 168 -4 195 -15
25 -11 72 -15 165 -15 92 0 139 -4 165 -15 l35 -15 266 0 265 0 20 -17 19 -18
210 4 c151 2 220 7 244 17 24 10 81 14 207 14 133 0 183 4 210 15 23 9 69 15
122 15 50 0 96 5 108 12 12 7 76 15 142 19 66 4 140 12 165 19 102 28 174 51
203 67 59 30 147 95 169 124 13 16 35 45 51 63 l27 34 0 70 c0 50 -4 73 -15
82 -8 7 -21 34 -29 60 -24 79 -44 108 -101 145 l-55 35 -119 0 -119 0 -56 -53z
m254 -154 c16 -25 34 -61 40 -79 l11 -33 -17 -37 c-9 -20 -23 -38 -30 -41 -8
-3 -35 11 -61 30 l-48 36 -18 55 c-25 76 -2 115 66 116 l27 0 30 -47z"/>
</g>
</svg>
