<?xml version="1.0" standalone="no"?>
<!DOCTYPE svg PUBLIC "-//W3C//DTD SVG 20010904//EN"
 "http://www.w3.org/TR/2001/REC-SVG-20010904/DTD/svg10.dtd">
<svg version="1.0" xmlns="http://www.w3.org/2000/svg"
 width="426.000000pt" height="399.000000pt" viewBox="0 0 426.000000 399.000000"
 preserveAspectRatio="xMidYMid meet">
<metadata>
Created by potrace 1.16, written by Peter Selinger 2001-2019
</metadata>
<g transform="translate(0.000000,399.000000) scale(0.100000,-0.100000)"
fill="#000000" stroke="none">
<path d="M3802 3954 c-12 -20 -38 -84 -58 -142 l-35 -106 21 -66 c12 -36 35
-89 51 -119 17 -29 28 -59 26 -65 -3 -7 -34 -22 -69 -34 l-64 -22 -438 0 -437
0 -36 15 c-23 10 -69 15 -135 15 -65 0 -111 5 -135 15 -19 8 -60 15 -90 15
-29 0 -70 7 -90 15 -20 8 -66 15 -105 15 -38 0 -84 7 -105 15 -19 8 -60 15
-90 15 -29 0 -70 7 -90 15 -22 9 -67 15 -117 15 -44 0 -101 6 -126 14 -58 18
-124 35 -175 45 -22 4 -56 12 -75 18 -69 22 -126 35 -185 42 -34 5 -70 13 -82
19 -12 7 -39 12 -60 12 -22 0 -77 13 -123 30 -47 16 -94 30 -105 30 -10 0 -60
13 -110 29 -99 32 -159 48 -220 60 -49 9 -126 35 -181 61 -129 60 -270 78
-334 45 l-30 -16 0 -89 c0 -49 5 -92 10 -95 6 -4 19 -24 30 -45 11 -21 37 -51
58 -66 21 -15 51 -45 66 -66 25 -35 89 -78 116 -78 6 0 45 -20 86 -45 40 -25
78 -45 83 -45 5 0 19 -12 30 -26 l21 -27 0 -77 0 -78 43 -58 c24 -33 51 -65
60 -73 9 -7 17 -21 17 -31 0 -31 297 -248 381 -279 19 -7 48 -20 64 -28 210
-114 263 -133 368 -133 59 0 77 4 90 18 22 24 22 55 0 74 -31 27 -141 78 -169
78 -30 0 -200 79 -248 115 -17 12 -54 34 -81 48 -28 14 -78 49 -112 78 -34 30
-74 62 -88 73 -15 10 -43 51 -62 92 l-35 72 12 21 c6 12 17 21 26 21 18 0 93
37 117 58 9 8 17 27 17 42 0 15 -8 34 -17 42 -35 30 -103 58 -143 58 -22 0
-57 7 -77 15 -19 8 -47 15 -62 15 -14 0 -46 14 -71 30 -25 16 -52 30 -60 30
-71 2 -275 180 -206 180 8 0 70 -17 138 -39 174 -55 203 -62 288 -71 48 -5 94
-17 127 -34 29 -14 63 -26 75 -26 13 0 43 -6 68 -14 87 -28 136 -38 210 -45
41 -4 85 -13 97 -19 12 -7 46 -12 75 -12 29 0 73 -6 98 -14 78 -25 133 -37
195 -45 34 -5 70 -13 82 -19 12 -7 40 -12 63 -12 22 0 57 -7 77 -15 19 -8 60
-15 90 -15 29 0 70 -7 90 -15 26 -11 74 -15 180 -15 105 0 153 -4 180 -15 19
-8 60 -15 90 -15 29 0 70 -7 90 -15 26 -11 76 -15 194 -15 120 0 168 -4 198
-16 l39 -15 193 5 c107 3 205 5 219 6 14 0 64 -2 113 -6 68 -5 96 -3 127 10
22 9 58 16 79 16 23 0 66 13 103 30 34 16 75 30 91 30 41 0 162 65 187 100 12
17 40 42 61 56 22 14 45 37 50 52 6 15 15 35 20 44 5 10 9 56 9 103 0 47 -4
93 -9 103 -5 9 -14 29 -19 44 -6 14 -33 41 -61 59 -27 18 -55 43 -62 56 l-12
23 -136 0 -136 -1 -23 -35z m255 -136 c5 -7 18 -39 28 -70 l19 -58 -19 -57
c-25 -78 -30 -83 -81 -83 l-44 0 -30 47 c-57 89 -62 144 -19 204 l20 29 58 0
c35 0 62 -5 68 -12z"/>
<path d="M558 2870 c-43 -23 -47 -28 -70 -95 -13 -39 -17 -83 -17 -195 l0
-145 39 -113 c21 -63 54 -140 74 -172 20 -32 36 -64 36 -71 0 -20 188 -297
243 -358 26 -30 59 -75 72 -102 14 -26 42 -60 64 -76 22 -15 52 -48 67 -71 16
-24 49 -58 75 -75 26 -17 60 -50 75 -75 16 -24 49 -57 74 -74 25 -17 57 -46
70 -67 36 -55 61 -81 102 -107 21 -13 49 -42 63 -64 14 -23 43 -49 67 -61 24
-12 61 -41 83 -65 22 -23 64 -54 93 -69 29 -15 62 -40 75 -56 31 -39 137 -124
189 -150 24 -11 64 -38 89 -60 26 -21 68 -48 95 -60 66 -29 63 -27 130 -82 33
-26 76 -52 96 -57 42 -12 71 -26 113 -56 54 -39 234 -124 262 -124 14 0 56
-13 92 -29 240 -104 294 -121 393 -121 48 0 90 -4 93 -10 10 -16 65 -12 65 5
0 20 -36 55 -57 55 -10 0 -36 14 -57 30 -22 17 -47 30 -55 30 -9 0 -45 14 -79
30 -35 17 -74 30 -85 30 -42 0 -166 49 -328 130 -90 45 -177 93 -194 105 -16
13 -62 39 -101 58 -75 38 -188 112 -242 158 -18 16 -41 29 -51 29 -9 0 -28 12
-42 26 -13 14 -55 47 -94 72 -38 26 -100 75 -137 109 -37 35 -72 63 -77 63 -6
0 -61 47 -123 105 -113 105 -134 125 -212 206 -24 24 -55 52 -69 62 -15 10
-38 40 -52 67 -14 27 -42 61 -64 77 -22 15 -51 46 -66 68 -14 22 -58 73 -99
112 -68 67 -196 246 -281 393 -16 29 -42 73 -57 99 -16 25 -34 66 -42 91 -7
26 -31 80 -52 120 l-38 75 -7 90 c-4 50 -13 109 -20 132 l-13 43 23 52 c13 29
26 67 28 84 l5 31 -27 22 c-35 26 -87 27 -137 1z"/>
</g>
</svg>
