<?xml version="1.0" standalone="no"?>
<!DOCTYPE svg PUBLIC "-//W3C//DTD SVG 20010904//EN"
 "http://www.w3.org/TR/2001/REC-SVG-20010904/DTD/svg10.dtd">
<svg version="1.0" xmlns="http://www.w3.org/2000/svg"
 width="453.000000pt" height="225.000000pt" viewBox="0 0 453.000000 225.000000"
 preserveAspectRatio="xMidYMid meet">
<metadata>
Created by potrace 1.16, written by Peter Selinger 2001-2019
</metadata>
<g transform="translate(0.000000,225.000000) scale(0.100000,-0.100000)"
fill="#000000" stroke="none">
<path d="M4055 2240 c-3 -5 -22 -10 -41 -10 -100 0 -187 -197 -139 -313 8 -20
15 -50 15 -66 0 -19 13 -44 36 -73 41 -48 104 -144 104 -157 0 -16 -51 -42
-98 -51 -57 -11 -122 -27 -182 -46 -29 -9 -90 -14 -171 -14 -90 0 -137 -4
-162 -15 l-36 -15 -606 0 -606 0 -36 15 c-27 12 -81 15 -240 15 -158 0 -212 3
-240 15 -19 8 -65 15 -102 15 -49 0 -90 8 -151 30 -47 16 -102 30 -123 30 -21
0 -54 7 -74 15 -20 8 -66 15 -105 15 -38 0 -84 7 -105 15 -20 8 -66 15 -105
15 -38 0 -84 7 -105 15 -19 8 -45 15 -57 15 -12 0 -60 13 -106 30 -47 16 -94
30 -105 30 -12 0 -59 13 -105 30 -47 16 -96 30 -110 30 -14 0 -45 14 -70 30
-35 23 -56 30 -96 30 l-50 0 -42 -31 -42 -31 0 -82 0 -82 90 -77 c49 -42 94
-77 100 -77 7 0 41 -13 77 -30 35 -16 69 -30 75 -30 6 0 32 -13 57 -29 25 -16
58 -31 73 -35 15 -3 35 -17 44 -31 l16 -25 -11 -32 -11 -32 26 -83 27 -83 -11
-24 c-6 -13 -21 -26 -34 -28 -24 -3 -64 -56 -75 -96 -6 -27 42 -138 89 -202
14 -21 36 -57 49 -81 12 -24 44 -68 71 -98 27 -29 55 -66 63 -82 8 -15 39 -44
69 -64 29 -19 73 -53 97 -74 45 -39 99 -71 119 -71 7 0 35 -20 63 -45 50 -44
153 -105 177 -105 19 0 81 -31 124 -62 21 -15 47 -28 57 -28 10 0 21 -4 24
-10 4 -6 77 -10 186 -10 l179 0 0 33 c0 45 -26 67 -79 67 -23 0 -58 7 -78 15
-19 8 -52 15 -72 15 -20 0 -56 7 -81 15 -25 8 -61 17 -81 20 -23 3 -53 20 -80
44 -24 21 -73 53 -108 71 -74 37 -160 100 -178 129 -7 11 -34 34 -61 52 -27
17 -63 53 -80 78 -16 26 -50 60 -74 75 -29 18 -61 53 -91 99 -47 72 -55 99
-38 126 l9 14 39 -16 c22 -8 53 -24 70 -34 142 -85 171 -104 192 -127 35 -38
92 -36 132 3 59 59 32 105 -123 208 -172 114 -298 259 -298 343 0 14 14 45 30
70 35 53 42 137 14 161 -32 27 -118 49 -189 49 l-72 0 -57 41 c-43 31 -54 44
-45 50 20 12 83 11 116 -2 15 -7 46 -15 68 -20 54 -11 120 -27 176 -45 26 -8
63 -14 83 -14 20 0 53 -7 73 -15 19 -8 60 -15 90 -15 29 0 70 -7 90 -15 24
-10 71 -15 150 -15 78 0 125 -5 150 -15 19 -8 65 -15 102 -15 36 0 86 -6 111
-14 101 -32 140 -39 255 -45 66 -4 130 -12 142 -19 15 -8 83 -12 228 -12 160
0 214 -3 242 -15 l35 -15 343 0 343 0 35 15 c27 11 75 15 180 15 106 0 154 4
180 15 20 8 54 15 76 15 23 0 66 12 103 30 38 18 79 30 104 30 23 0 58 7 77
15 24 10 71 15 134 15 118 1 181 20 244 74 24 20 68 53 96 72 59 39 73 59 73
103 0 16 5 33 10 36 13 8 13 222 0 230 -6 4 -21 28 -35 55 -35 68 -137 138
-265 179 -36 12 -73 26 -82 31 -23 13 -75 13 -83 0z m185 -203 c59 -29 130
-133 130 -190 0 -62 -85 -187 -126 -187 -6 0 -31 26 -54 58 -24 31 -63 75 -86
98 l-44 41 0 82 c0 45 5 91 10 102 l11 19 57 0 c39 0 71 -7 102 -23z"/>
</g>
</svg>
