<?xml version="1.0" standalone="no"?>
<!DOCTYPE svg PUBLIC "-//W3C//DTD SVG 20010904//EN"
 "http://www.w3.org/TR/2001/REC-SVG-20010904/DTD/svg10.dtd">
<svg version="1.0" xmlns="http://www.w3.org/2000/svg"
 width="1113.000000pt" height="84.000000pt" viewBox="0 0 1113.000000 84.000000"
 preserveAspectRatio="xMidYMid meet">
<metadata>
Created by potrace 1.16, written by Peter Selinger 2001-2019
</metadata>
<g transform="translate(0.000000,84.000000) scale(0.100000,-0.100000)"
fill="#000000" stroke="none">
<path d="M0 806 l0 -34 33 -21 c18 -11 48 -38 65 -60 18 -23 72 -66 119 -98
47 -31 100 -68 117 -83 34 -30 108 -70 128 -70 7 0 69 -27 136 -60 68 -33 133
-60 144 -60 27 0 308 -94 376 -125 36 -17 70 -25 108 -25 30 0 71 -7 91 -15
22 -9 67 -15 120 -15 52 0 97 -6 120 -15 19 -8 53 -15 75 -15 21 0 55 -7 75
-15 22 -9 68 -15 120 -15 l85 0 35 -30 34 -30 74 0 c40 0 77 -5 80 -10 4 -7
343 -10 985 -10 642 0 981 3 985 10 3 6 26 10 51 10 25 0 55 5 67 12 12 6 48
14 82 19 70 9 118 21 240 60 50 16 108 29 128 29 42 0 199 74 287 134 28 20
70 41 91 48 l40 11 52 -21 c29 -12 68 -22 87 -22 19 0 55 -6 80 -14 86 -27
135 -38 210 -46 41 -4 89 -12 105 -18 72 -25 127 -35 225 -41 58 -4 115 -12
127 -19 16 -9 159 -12 577 -12 l555 0 64 30 c36 16 77 30 91 30 15 0 59 16 99
36 123 61 237 193 237 273 0 65 133 105 224 67 l38 -16 222 0 221 0 45 -30 45
-30 192 0 c105 0 203 -4 218 -10 17 -7 39 -6 69 2 l44 12 45 -18 46 -17 473 2
474 1 32 -16 c20 -10 56 -16 102 -16 81 0 115 -15 146 -62 23 -36 129 -118
153 -118 9 0 30 -9 46 -21 64 -43 125 -69 165 -69 22 0 57 -7 77 -15 26 -11
73 -15 172 -15 l136 0 50 28 c29 16 55 39 64 57 8 17 18 38 23 47 4 10 8 51 8
91 l0 73 -27 26 c-30 27 -84 58 -103 58 -7 0 -41 13 -77 30 -35 17 -75 30 -89
30 -14 0 -41 7 -61 15 -26 11 -75 15 -191 15 -88 0 -171 5 -193 12 -30 8 -48
8 -79 -1 l-39 -12 -37 16 -36 15 -774 0 c-551 0 -781 3 -801 11 -15 7 -76 13
-135 15 -67 2 -120 9 -143 18 -27 11 -71 16 -152 16 -78 0 -125 5 -150 15
l-35 15 -265 0 -264 0 -36 15 c-24 10 -71 15 -150 15 -78 0 -125 5 -150 15
-79 33 -218 0 -278 -66 -48 -53 -46 -81 9 -135 l43 -44 50 0 c28 0 67 7 86 15
23 9 68 15 119 15 l83 0 52 -36 c29 -20 53 -40 53 -44 0 -18 -30 -77 -47 -91
-32 -27 -90 -49 -131 -49 -22 0 -56 -7 -75 -15 -22 -9 -68 -15 -118 -15 -52 0
-99 -6 -130 -17 l-49 -18 -49 18 -49 17 -216 0 c-170 0 -224 3 -253 15 -28 12
-82 15 -255 15 -172 0 -226 3 -255 15 -19 8 -60 15 -90 15 -29 0 -70 7 -90 15
-19 8 -47 15 -60 15 -14 0 -54 13 -90 30 -35 16 -75 30 -89 30 -14 0 -41 7
-61 15 -19 8 -47 15 -62 15 -18 0 -43 18 -86 60 l-59 60 -67 0 c-91 0 -109
-15 -144 -127 -38 -119 -50 -134 -127 -157 -34 -11 -80 -28 -101 -38 -65 -32
-180 -68 -218 -68 -20 0 -53 -7 -72 -15 -24 -10 -70 -15 -135 -15 -66 0 -112
-5 -135 -15 -26 -11 -73 -15 -165 -15 -93 0 -140 -4 -165 -15 -46 -19 -128
-19 -174 0 -52 22 -375 21 -428 -1 l-38 -16 -41 16 -42 16 -292 0 -293 0 -36
15 c-27 12 -79 15 -227 15 l-192 0 -29 30 -29 30 -88 0 c-56 0 -102 6 -125 15
-19 8 -53 15 -75 15 -21 0 -55 7 -75 15 -19 8 -53 15 -75 15 -21 0 -55 7 -75
15 -19 8 -65 15 -102 15 -49 0 -90 8 -151 30 -47 16 -93 30 -104 30 -41 0
-404 130 -461 164 -33 20 -77 41 -99 47 -48 13 -69 24 -125 69 -79 61 -156
110 -174 110 -9 0 -23 11 -29 25 l-11 25 -64 0 -63 0 0 -34z m10770 -381 c25
-8 62 -17 82 -20 36 -6 98 -52 98 -74 0 -6 -15 -20 -32 -31 -40 -24 -123 -27
-175 -5 -19 8 -45 15 -56 15 -31 0 -148 41 -179 62 -26 18 -36 47 -21 61 13
14 237 7 283 -8z"/>
</g>
</svg>
