<?xml version="1.0" standalone="no"?>
<!DOCTYPE svg PUBLIC "-//W3C//DTD SVG 20010904//EN"
 "http://www.w3.org/TR/2001/REC-SVG-20010904/DTD/svg10.dtd">
<svg version="1.0" xmlns="http://www.w3.org/2000/svg"
 width="870.000000pt" height="270.000000pt" viewBox="0 0 870.000000 270.000000"
 preserveAspectRatio="xMidYMid meet">
<metadata>
Created by potrace 1.16, written by Peter Selinger 2001-2019
</metadata>
<g transform="translate(0.000000,270.000000) scale(0.100000,-0.100000)"
fill="#000000" stroke="none">
<path d="M5297 2672 l-27 -28 0 -65 c0 -84 14 -99 94 -99 31 0 73 -7 93 -15
19 -8 47 -15 60 -15 34 0 84 -25 177 -88 43 -30 94 -58 111 -63 18 -5 61 -34
94 -64 34 -30 71 -55 82 -55 12 0 42 -22 68 -49 26 -27 74 -66 106 -87 52 -33
158 -124 260 -223 45 -43 110 -130 135 -181 12 -25 31 -57 42 -72 20 -29 108
-288 108 -319 0 -10 -7 -19 -15 -19 -8 0 -15 4 -15 10 0 12 -84 55 -126 64
-18 4 -51 23 -74 44 -69 58 -122 71 -293 72 l-147 0 -73 -36 c-39 -20 -85 -45
-100 -56 -15 -11 -43 -24 -62 -29 -19 -6 -43 -21 -52 -35 -10 -14 -39 -53 -65
-86 -27 -34 -48 -68 -48 -77 1 -34 38 -123 62 -149 14 -15 37 -46 52 -69 15
-25 42 -51 65 -62 21 -11 75 -45 119 -75 44 -30 96 -62 116 -70 20 -8 36 -17
36 -20 0 -3 -21 -14 -46 -26 -58 -25 -186 -28 -241 -5 -19 8 -60 15 -90 15
-29 0 -70 7 -90 15 -19 8 -60 15 -90 15 -29 0 -70 7 -90 15 -19 8 -53 15 -75
15 -21 0 -55 7 -75 15 -19 8 -45 15 -57 15 -27 0 -152 43 -205 69 -22 12 -45
21 -51 21 -25 0 -140 61 -225 119 -49 33 -96 61 -103 61 -8 0 -43 14 -79 30
-75 35 -94 37 -116 12 -30 -33 -21 -84 24 -138 22 -27 53 -75 69 -106 17 -33
50 -75 80 -100 27 -24 50 -50 50 -59 0 -22 54 -96 106 -145 26 -24 44 -50 44
-63 0 -13 25 -49 64 -90 35 -37 75 -86 90 -109 30 -48 52 -62 99 -62 36 0 67
25 67 54 0 32 -50 115 -85 142 -19 14 -35 34 -35 44 0 16 -23 49 -122 178 -16
19 -28 46 -28 60 l0 24 28 -6 c15 -4 56 -10 92 -15 36 -4 88 -20 117 -35 32
-16 69 -26 95 -26 27 0 67 -11 106 -30 37 -18 80 -30 103 -30 22 0 56 -7 76
-15 22 -9 67 -15 120 -15 52 0 97 -6 120 -15 51 -22 435 -22 486 0 25 10 71
15 147 15 159 0 236 27 359 126 45 35 73 67 83 92 9 20 25 62 38 92 53 130 70
188 70 238 0 29 7 69 15 89 8 19 15 53 15 74 0 48 -60 229 -105 319 -18 36
-38 84 -44 107 -9 31 -26 55 -66 90 -30 26 -55 56 -55 65 0 24 -51 79 -103
112 -25 16 -57 48 -72 72 -38 61 -112 125 -259 227 -23 16 -59 46 -81 67 -22
21 -76 57 -121 79 -83 43 -151 101 -140 120 10 15 148 14 183 -1 19 -9 120
-15 303 -20 151 -4 322 -10 380 -13 58 -2 197 -8 310 -12 133 -5 213 -12 227
-20 15 -9 78 -13 213 -13 147 0 199 -3 227 -15 23 -10 69 -15 135 -15 l100 0
65 -30 64 -30 223 0 c176 0 231 3 259 15 20 8 55 15 77 15 l40 0 0 40 0 40
-60 30 -59 30 -251 0 c-200 0 -258 3 -287 15 -27 12 -81 15 -240 15 -158 0
-212 3 -240 15 -28 12 -82 15 -255 15 -172 0 -226 3 -255 15 l-35 15 -262 0
-262 0 -84 30 -85 30 -232 0 c-159 0 -241 4 -260 12 -15 7 -95 15 -178 18
l-150 5 -32 23 c-24 17 -45 22 -90 22 l-59 0 -27 -28z m1146 -1463 c34 -24 57
-48 57 -59 0 -10 19 -33 41 -51 52 -41 78 -98 79 -169 l0 -55 -36 -51 c-19
-29 -53 -65 -76 -80 l-40 -28 -47 18 c-25 10 -73 22 -106 26 -33 4 -84 20
-112 34 -29 14 -65 26 -79 26 -44 0 -170 66 -199 104 -14 19 -41 45 -60 58
-41 28 -68 74 -64 108 4 24 93 88 194 139 l40 20 176 1 176 0 56 -41z"/>
<path d="M0 822 c0 -23 13 -44 53 -86 29 -31 61 -56 70 -56 17 0 84 -36 207
-112 55 -34 132 -62 202 -73 20 -3 62 -23 95 -45 35 -25 70 -40 88 -40 17 0
59 -14 93 -30 35 -17 80 -30 100 -30 19 0 116 -27 214 -60 98 -33 194 -60 213
-60 20 0 52 -7 72 -15 19 -8 61 -15 92 -15 39 0 73 -8 111 -26 52 -24 120 -47
220 -74 25 -6 79 -15 120 -19 41 -4 85 -13 97 -19 15 -8 88 -12 228 -12 160 0
214 -3 242 -15 25 -11 73 -15 169 -15 78 0 135 -4 139 -10 8 -13 72 -13 80 0
8 13 302 13 310 0 8 -14 462 -14 470 0 3 6 26 10 49 10 24 0 60 7 79 15 24 10
70 15 132 15 128 0 240 36 294 94 14 14 31 26 38 26 55 0 225 146 269 232 13
26 24 62 24 80 -1 52 -48 129 -97 156 -46 25 -66 24 -107 -9 l-26 -20 0 -58
c0 -91 -26 -147 -101 -221 l-66 -65 -71 -22 c-38 -13 -86 -23 -105 -23 -19 0
-64 -13 -99 -30 l-63 -30 -86 0 c-54 0 -100 -6 -122 -15 -52 -22 -333 -21
-385 1 -26 10 -48 13 -72 8 -30 -7 -72 -10 -180 -14 -14 -1 -61 3 -105 9 -44
5 -156 10 -248 10 -125 1 -177 5 -204 16 -23 10 -69 15 -135 15 -65 0 -111 5
-135 15 -20 8 -66 15 -105 15 -38 0 -84 7 -105 15 -23 10 -69 15 -137 15
l-101 0 -36 24 c-47 32 -148 66 -196 66 -21 0 -66 13 -101 30 -46 21 -79 30
-116 30 -32 0 -84 11 -136 30 -47 16 -96 30 -110 30 -14 0 -54 14 -88 30 -35
17 -75 30 -88 30 -14 0 -41 7 -61 15 -19 8 -47 15 -62 15 -14 0 -78 25 -141
56 -63 31 -155 69 -203 84 -48 16 -114 46 -146 68 -31 21 -71 43 -87 49 -16 5
-45 16 -64 23 -19 6 -45 14 -57 17 l-23 5 0 -30z"/>
</g>
</svg>
