<?xml version="1.0" standalone="no"?>
<!DOCTYPE svg PUBLIC "-//W3C//DTD SVG 20010904//EN"
 "http://www.w3.org/TR/2001/REC-SVG-20010904/DTD/svg10.dtd">
<svg version="1.0" xmlns="http://www.w3.org/2000/svg"
 width="366.000000pt" height="264.000000pt" viewBox="0 0 366.000000 264.000000"
 preserveAspectRatio="xMidYMid meet">
<metadata>
Created by potrace 1.16, written by Peter Selinger 2001-2019
</metadata>
<g transform="translate(0.000000,264.000000) scale(0.100000,-0.100000)"
fill="#000000" stroke="none">
<path d="M7 2633 c-4 -3 -7 -33 -7 -65 l0 -58 23 0 c12 0 42 -6 67 -14 58 -18
123 -35 180 -46 25 -5 69 -20 97 -34 29 -14 64 -26 79 -26 37 0 127 -44 171
-83 21 -19 70 -51 109 -70 46 -23 103 -65 159 -117 120 -112 170 -172 217
-264 22 -43 55 -101 74 -128 18 -27 36 -66 39 -86 15 -91 75 -241 127 -315 11
-15 18 -35 16 -44 l-3 -18 -205 3 c-113 2 -219 7 -236 13 -21 6 -40 6 -58 -1
-15 -5 -44 -10 -65 -10 -21 0 -55 -7 -74 -15 -20 -8 -54 -15 -75 -15 -22 0
-56 -7 -75 -15 -20 -8 -61 -15 -92 -15 l-55 0 -78 -39 c-58 -29 -96 -59 -154
-119 -43 -44 -78 -88 -78 -98 0 -11 -14 -39 -30 -64 l-30 -45 0 -81 0 -81 18
-16 c25 -22 85 -22 104 1 26 29 48 79 48 109 0 16 19 56 45 96 82 125 84 127
191 163 55 19 109 34 120 34 12 0 38 7 57 15 20 8 61 15 90 15 30 0 71 7 90
15 51 21 333 21 384 0 19 -8 58 -15 86 -15 89 0 237 -60 237 -96 0 -24 30 -76
65 -114 17 -19 47 -57 66 -85 19 -27 91 -109 161 -182 71 -73 128 -137 128
-143 0 -17 139 -148 211 -200 35 -25 83 -66 108 -91 45 -45 97 -79 123 -79 6
0 26 -13 43 -28 16 -15 57 -36 90 -47 33 -10 64 -22 70 -27 12 -11 151 -10
173 1 9 5 37 17 61 27 47 20 115 85 143 137 13 25 17 58 18 142 l0 110 -30 45
c-16 25 -30 51 -30 58 0 55 -145 221 -240 274 -25 14 -54 36 -65 48 -22 24
-86 60 -107 60 -7 0 -33 14 -58 30 -25 16 -52 30 -60 30 -8 0 -35 14 -60 30
-25 16 -56 30 -70 30 -14 0 -64 13 -110 30 -47 16 -94 30 -105 30 -26 0 -153
43 -204 69 -22 12 -52 21 -66 21 -36 0 -105 33 -139 67 -28 28 -96 155 -96
180 0 8 -23 59 -51 116 -29 56 -65 142 -80 190 -38 117 -62 161 -104 193 -19
14 -35 34 -35 43 -1 39 -56 115 -106 145 -28 17 -75 57 -105 89 -34 35 -63 57
-77 57 -14 0 -31 14 -49 41 l-27 41 15 9 c22 14 116 11 156 -6 19 -8 60 -15
90 -15 29 0 70 -7 90 -15 23 -10 69 -15 135 -15 65 0 111 -5 135 -15 25 -11
72 -15 165 -15 92 0 139 -4 165 -15 20 -8 66 -15 105 -15 38 0 84 -7 105 -15
l35 -15 295 0 294 0 36 -15 c19 -8 60 -15 90 -15 29 0 70 -7 90 -15 27 -12 79
-15 225 -15 145 0 197 -3 225 -15 22 -9 67 -15 119 -15 45 0 94 -4 108 -10 17
-6 35 -6 51 0 l25 10 0 52 0 53 -49 18 c-38 13 -82 17 -205 17 -117 0 -166 4
-193 15 -26 11 -76 15 -195 15 -118 0 -168 4 -195 15 -24 10 -71 15 -150 15
-78 0 -125 5 -150 15 -23 10 -69 15 -135 15 -65 0 -111 5 -135 15 -24 10 -71
15 -150 15 -78 0 -125 5 -150 15 -28 12 -82 15 -255 15 -172 0 -226 3 -255 15
-20 8 -66 15 -105 15 -38 0 -84 7 -105 15 -19 8 -60 15 -90 15 -29 0 -70 7
-90 15 -20 8 -66 15 -105 15 -38 0 -84 7 -105 15 -19 8 -53 15 -75 15 -21 0
-55 7 -75 15 -22 9 -67 15 -117 15 -65 0 -99 6 -166 30 -47 16 -104 30 -127
30 -23 0 -45 5 -48 10 -7 11 -218 14 -228 3z m1910 -1648 c40 -13 85 -31 101
-39 15 -8 102 -39 193 -69 90 -30 191 -71 224 -91 33 -20 77 -41 97 -47 23 -6
47 -22 60 -40 12 -16 45 -47 73 -68 27 -21 60 -56 73 -77 13 -22 41 -69 63
-106 l39 -67 0 -53 c0 -61 -27 -128 -61 -152 -34 -23 -138 -21 -216 5 -45 16
-81 38 -124 75 -33 30 -67 54 -75 54 -16 0 -140 126 -183 187 -14 19 -56 57
-93 84 -37 28 -68 57 -68 65 0 31 -41 94 -79 121 -38 27 -112 127 -138 187
-10 21 -10 32 -2 42 16 19 33 18 116 -11z"/>
</g>
</svg>
