<?xml version="1.0" standalone="no"?>
<!DOCTYPE svg PUBLIC "-//W3C//DTD SVG 20010904//EN"
 "http://www.w3.org/TR/2001/REC-SVG-20010904/DTD/svg10.dtd">
<svg version="1.0" xmlns="http://www.w3.org/2000/svg"
 width="570.000000pt" height="339.000000pt" viewBox="0 0 570.000000 339.000000"
 preserveAspectRatio="xMidYMid meet">
<metadata>
Created by potrace 1.16, written by Peter Selinger 2001-2019
</metadata>
<g transform="translate(0.000000,339.000000) scale(0.100000,-0.100000)"
fill="#000000" stroke="none">
<path d="M1928 3359 c-52 -42 -51 -75 2 -123 l40 -36 47 0 c36 0 73 -13 168
-59 67 -32 135 -62 153 -65 17 -4 51 -25 75 -47 25 -21 50 -39 57 -39 26 0
148 -64 191 -100 26 -22 68 -49 95 -61 65 -29 62 -27 132 -83 33 -26 73 -66
88 -87 15 -22 58 -62 95 -90 38 -28 69 -58 69 -68 0 -9 28 -57 61 -106 34 -50
68 -104 75 -122 35 -82 0 -263 -59 -306 -16 -12 -44 -45 -62 -73 -24 -37 -46
-57 -86 -77 -92 -45 -230 -88 -319 -99 -157 -18 -174 -19 -348 -24 l-173 -5
-48 30 c-34 22 -60 31 -90 31 -23 0 -58 7 -78 15 -19 8 -60 15 -90 15 -29 0
-70 7 -90 15 -19 8 -59 15 -87 15 -73 0 -187 40 -253 88 -17 13 -47 28 -67 33
-22 6 -47 25 -66 49 l-32 40 -55 0 -56 0 -43 -44 -44 -43 0 -55 0 -54 30 -29
c17 -16 30 -37 30 -47 0 -10 34 -55 75 -99 41 -45 75 -85 75 -90 0 -4 35 -35
78 -68 42 -34 97 -77 122 -97 25 -20 68 -47 95 -61 51 -26 151 -99 174 -127 7
-9 27 -16 43 -16 40 0 93 -25 148 -70 25 -21 68 -49 96 -63 28 -14 75 -48 105
-75 30 -27 87 -66 126 -87 41 -21 84 -53 99 -72 14 -18 53 -47 87 -65 74 -37
189 -148 217 -210 26 -58 27 -167 1 -225 -50 -109 -156 -163 -320 -163 -63 0
-109 -6 -142 -17 l-49 -18 -49 18 -49 17 -201 0 c-157 0 -210 3 -238 15 -19 8
-53 15 -75 15 -21 0 -55 7 -75 15 -19 8 -49 15 -65 15 -36 0 -78 40 -78 73 0
13 5 37 10 53 l10 29 -28 87 -28 88 -86 90 c-47 49 -94 90 -104 90 -9 0 -69
25 -133 56 -128 61 -242 100 -366 123 -22 4 -58 19 -80 34 l-40 27 -183 0
-183 0 -62 -31 c-34 -17 -74 -43 -89 -57 l-28 -26 0 -48 0 -49 98 -97 c54 -53
124 -116 155 -139 55 -42 186 -113 207 -113 30 0 102 -44 130 -80 24 -30 39
-40 61 -40 16 0 46 -7 66 -15 19 -8 46 -15 60 -15 13 0 49 -12 80 -26 76 -34
211 -75 315 -94 26 -5 56 -13 67 -19 11 -6 38 -11 61 -11 22 0 57 -7 77 -15
19 -8 52 -15 72 -15 20 0 56 -6 81 -14 118 -37 140 -40 380 -43 139 -2 249 -8
254 -13 13 -13 283 -13 291 0 3 6 20 10 37 10 33 0 279 119 316 154 77 70 142
214 142 313 l0 58 -30 45 c-16 25 -30 53 -30 62 0 23 -46 75 -92 104 -21 13
-49 42 -63 64 -17 26 -43 49 -78 66 -28 14 -73 44 -99 65 -25 21 -79 55 -120
75 -40 20 -93 53 -117 73 -68 54 -319 220 -384 253 -32 16 -77 46 -101 67 -24
21 -58 43 -77 50 -43 16 -46 18 -107 66 -27 22 -62 59 -77 83 -16 23 -32 42
-36 42 -5 0 -9 7 -9 15 0 29 46 28 115 -4 39 -18 83 -31 106 -31 22 0 56 -7
76 -15 26 -11 74 -15 180 -15 l145 0 65 -30 64 -30 163 0 c123 0 173 4 199 15
20 8 61 15 90 15 30 0 71 7 90 15 20 8 61 15 92 15 l55 0 108 55 c59 30 125
65 147 77 22 12 47 24 55 28 8 4 28 30 43 58 15 28 50 75 77 105 67 73 90 144
90 277 l0 101 -21 41 c-39 77 -143 223 -211 297 -37 40 -68 76 -68 81 0 12
-136 118 -182 141 -24 12 -63 38 -88 59 -47 38 -120 80 -142 80 -6 0 -26 13
-43 29 -24 24 -177 110 -238 134 -9 4 -8 8 3 16 23 16 155 13 197 -4 l35 -15
505 0 504 0 36 -15 35 -15 790 0 789 0 36 -15 c25 -10 71 -15 154 -15 l119 0
0 70 0 70 -128 0 -128 0 -89 31 -89 31 -46 -16 -45 -16 -677 0 c-520 0 -683 3
-705 13 -21 9 -168 14 -558 18 -291 4 -552 9 -580 12 -27 2 -133 8 -235 11
-174 7 -263 22 -294 48 -6 4 -44 8 -85 8 l-76 -1 -37 -30z m-1487 -2527 c69
-5 113 -12 125 -22 10 -8 34 -27 52 -42 18 -16 45 -28 60 -28 42 0 133 -34
272 -102 l124 -60 57 -58 c66 -67 98 -136 83 -178 l-9 -27 -69 -3 c-69 -3
-136 14 -233 58 -22 11 -92 36 -155 56 -73 24 -124 47 -143 65 -16 15 -72 48
-123 74 -122 61 -276 165 -287 193 -14 38 65 97 115 86 14 -3 73 -9 131 -12z"/>
</g>
</svg>
