<?xml version="1.0" standalone="no"?>
<!DOCTYPE svg PUBLIC "-//W3C//DTD SVG 20010904//EN"
 "http://www.w3.org/TR/2001/REC-SVG-20010904/DTD/svg10.dtd">
<svg version="1.0" xmlns="http://www.w3.org/2000/svg"
 width="876.000000pt" height="240.000000pt" viewBox="0 0 876.000000 240.000000"
 preserveAspectRatio="xMidYMid meet">
<metadata>
Created by potrace 1.16, written by Peter Selinger 2001-2019
</metadata>
<g transform="translate(0.000000,240.000000) scale(0.100000,-0.100000)"
fill="#000000" stroke="none">
<path d="M5465 2390 c-3 -5 -15 -10 -25 -10 -29 0 -50 -39 -50 -91 0 -58 21
-79 79 -79 47 0 150 -43 206 -85 18 -14 47 -30 63 -34 26 -8 153 -87 327 -204
80 -55 183 -144 256 -223 l75 -81 37 -110 c55 -165 46 -261 -17 -186 -17 20
-48 37 -91 51 l-65 22 -133 0 c-154 0 -164 -4 -203 -82 -33 -65 -29 -102 33
-288 13 -41 27 -83 30 -92 3 -11 -5 -21 -26 -32 -42 -22 -325 -23 -378 -1 -23
10 -69 15 -135 15 -65 0 -111 5 -135 15 -19 8 -65 15 -101 15 -75 0 -156 24
-275 82 -43 21 -83 38 -90 38 -7 0 -32 14 -57 30 -31 20 -57 30 -84 30 l-39 0
-43 -44 -44 -43 0 -48 c0 -65 -21 -95 -104 -149 l-71 -46 -71 0 c-41 0 -87 -6
-107 -15 -21 -8 -67 -15 -105 -15 -39 0 -85 -7 -105 -15 -24 -10 -71 -15 -139
-15 -57 -1 -148 -6 -203 -11 -55 -6 -126 -13 -159 -16 l-58 -5 -32 30 -31 29
-285 2 c-219 2 -292 6 -318 17 -25 10 -76 14 -179 14 -105 0 -153 4 -180 15
-19 8 -54 15 -77 15 -25 0 -66 12 -104 30 -35 17 -80 30 -100 30 -21 0 -57 6
-82 14 -82 26 -135 38 -185 43 -37 4 -58 12 -80 33 -39 36 -56 44 -156 76 -45
15 -117 44 -161 65 -43 22 -84 39 -91 39 -7 0 -32 14 -57 30 -25 16 -51 30
-58 30 -8 0 -43 14 -79 30 -35 17 -70 30 -76 30 -7 0 -32 14 -57 30 -70 46
-140 39 -140 -16 0 -24 90 -107 155 -143 22 -12 65 -38 95 -57 30 -19 71 -39
90 -44 19 -5 86 -34 148 -65 62 -30 122 -55 135 -55 39 0 216 -66 242 -90 33
-31 207 -89 270 -90 28 0 70 -6 95 -14 60 -19 125 -35 182 -46 26 -5 56 -13
67 -19 11 -6 38 -11 61 -11 22 0 57 -7 77 -15 22 -9 67 -15 120 -15 52 0 97
-6 120 -15 l35 -15 280 0 279 0 36 -15 c51 -22 405 -22 456 0 25 10 72 15 150
15 79 0 126 5 150 15 26 11 74 15 171 15 l134 0 31 39 c22 27 59 53 118 83 63
31 98 57 132 95 27 31 54 53 66 53 29 0 134 -38 165 -60 40 -29 144 -60 200
-60 28 0 67 -7 87 -15 27 -12 79 -15 222 -15 148 0 195 -3 232 -17 l47 -16 41
16 c31 13 74 17 170 17 92 0 139 4 164 15 20 8 49 15 65 15 16 0 47 13 69 29
23 16 63 41 89 55 28 14 92 69 152 129 80 82 106 115 118 153 14 40 31 170 35
259 2 46 -19 123 -44 160 -15 22 -27 53 -27 71 0 22 -11 46 -36 76 -20 23 -47
60 -60 80 -13 21 -37 44 -53 52 -16 9 -53 37 -82 64 -30 26 -88 70 -129 97
-41 27 -88 61 -105 76 -35 30 -107 69 -129 69 -19 0 -70 75 -61 89 10 18 589
15 645 -3 110 -35 146 -39 345 -45 140 -4 217 -10 232 -18 15 -9 78 -13 213
-13 147 0 199 -3 227 -15 26 -11 74 -15 180 -15 105 0 153 -4 180 -15 26 -11
76 -15 195 -15 118 0 168 -4 195 -15 20 -8 66 -15 105 -15 38 0 84 -7 105 -15
46 -19 116 -19 153 0 l30 16 0 37 0 37 -49 18 c-27 9 -72 17 -100 17 -28 0
-68 7 -88 15 -25 10 -71 15 -152 15 l-117 0 -29 30 -29 30 -193 0 c-150 0
-202 3 -230 15 l-35 15 -400 0 -399 0 -36 15 c-24 10 -71 15 -150 15 -78 0
-125 5 -150 15 -19 8 -59 15 -89 15 -29 0 -65 5 -81 12 -15 7 -95 15 -178 19
-82 4 -175 12 -205 17 -30 6 -148 11 -262 11 -126 1 -209 5 -213 11 -3 6 -28
10 -55 10 -27 0 -52 -4 -55 -10z m795 -1217 c37 -25 58 -54 66 -87 l6 -30 -31
-28 c-17 -16 -43 -28 -57 -28 -37 0 -90 35 -119 78 -27 40 -31 63 -15 93 l11
19 57 0 c38 0 66 -6 82 -17z"/>
<path d="M0 1006 l0 -54 33 -24 c17 -14 55 -37 82 -50 28 -14 78 -51 113 -82
34 -31 70 -56 80 -56 24 0 191 -82 242 -119 24 -17 50 -31 59 -31 22 0 195
-84 234 -114 18 -14 68 -36 112 -51 100 -32 172 -66 226 -105 23 -16 48 -30
56 -30 30 0 150 -63 202 -106 29 -24 60 -44 69 -44 18 0 214 -94 254 -121 40
-29 75 -25 93 11 8 16 15 45 15 64 l0 34 -37 29 c-67 52 -162 113 -225 145
-34 17 -82 52 -108 77 -25 25 -67 58 -93 73 -26 15 -47 35 -47 44 0 9 -18 36
-39 60 -55 63 -58 86 -21 143 16 26 30 57 30 69 0 21 -37 57 -70 67 -27 9 -88
-26 -140 -80 l-45 -46 -5 -62 -5 -62 -33 -3 c-23 -2 -61 10 -128 42 -53 25
-101 46 -108 46 -6 0 -31 14 -56 30 -25 16 -52 30 -60 30 -22 0 -195 85 -233
114 -18 13 -63 34 -102 47 -52 16 -77 31 -99 56 -16 19 -45 42 -66 53 -39 20
-152 60 -170 60 -5 0 -10 -24 -10 -54z"/>
</g>
</svg>
