<?xml version="1.0" standalone="no"?>
<!DOCTYPE svg PUBLIC "-//W3C//DTD SVG 20010904//EN"
 "http://www.w3.org/TR/2001/REC-SVG-20010904/DTD/svg10.dtd">
<svg version="1.0" xmlns="http://www.w3.org/2000/svg"
 width="522.000000pt" height="240.000000pt" viewBox="0 0 522.000000 240.000000"
 preserveAspectRatio="xMidYMid meet">
<metadata>
Created by potrace 1.16, written by Peter Selinger 2001-2019
</metadata>
<g transform="translate(0.000000,240.000000) scale(0.100000,-0.100000)"
fill="#000000" stroke="none">
<path d="M1624 2365 c-7 -38 8 -86 33 -106 23 -20 115 -48 156 -49 44 0 93
-21 151 -62 21 -15 46 -28 54 -28 8 0 36 -13 61 -29 25 -16 57 -31 71 -34 14
-4 43 -22 65 -40 22 -19 64 -46 93 -61 62 -32 208 -168 252 -235 16 -25 49
-60 72 -77 27 -19 55 -52 75 -90 17 -32 47 -72 66 -89 24 -22 40 -49 55 -98
12 -37 43 -108 68 -159 25 -50 56 -123 70 -162 l24 -71 0 -109 c0 -77 5 -122
17 -156 l17 -48 -23 -74 c-60 -183 -141 -286 -286 -361 -28 -14 -63 -35 -80
-46 l-30 -21 -158 0 c-118 0 -167 4 -194 15 -19 8 -53 15 -75 15 -21 0 -55 7
-75 15 -19 8 -45 15 -56 15 -44 0 -330 105 -462 169 -77 38 -154 72 -172 75
-17 4 -51 24 -75 45 -24 21 -74 54 -113 74 -38 20 -91 53 -117 74 -26 21 -65
51 -88 67 -24 16 -62 55 -87 86 -24 32 -64 72 -88 89 -23 17 -59 55 -78 84
-20 29 -55 66 -79 81 -24 15 -54 44 -68 64 -13 20 -43 57 -65 82 -67 74 -135
184 -135 218 0 23 -13 46 -50 88 -28 32 -53 69 -57 83 -3 14 -19 53 -35 86
-15 33 -28 67 -28 76 0 9 -14 35 -31 59 -42 57 -59 101 -59 148 0 22 -7 56
-15 75 -8 20 -15 50 -15 67 0 45 -47 90 -94 90 l-36 0 0 -115 c0 -63 4 -123 9
-133 33 -66 101 -219 101 -230 0 -15 100 -214 129 -257 12 -16 21 -44 21 -62
0 -21 10 -44 29 -65 40 -46 118 -162 145 -217 13 -25 48 -69 78 -96 31 -28 65
-69 76 -92 23 -45 56 -73 84 -73 10 0 33 -24 55 -57 21 -32 47 -59 58 -62 11
-2 58 -41 105 -86 117 -114 188 -170 273 -212 40 -19 92 -52 117 -73 47 -38
120 -80 141 -80 7 0 82 -34 166 -75 85 -41 163 -75 175 -75 12 0 82 -20 155
-45 104 -35 146 -45 198 -45 36 0 82 -7 102 -15 25 -11 73 -15 169 -15 78 0
135 -4 139 -10 8 -13 72 -13 80 0 3 5 19 10 36 10 16 0 84 26 152 58 67 32
135 63 152 68 18 6 41 26 58 52 16 24 46 54 66 67 45 28 91 80 91 103 0 9 9
31 21 47 11 17 38 65 60 107 l39 78 0 134 c0 96 -4 144 -15 169 -8 20 -15 55
-15 77 0 22 -9 59 -21 82 -11 22 -36 84 -54 137 -18 53 -43 121 -55 151 -13
30 -29 72 -38 92 -8 20 -27 49 -43 64 -16 15 -29 36 -29 46 0 10 -29 49 -64
87 -35 37 -75 85 -89 107 -13 22 -44 52 -68 67 -24 16 -57 46 -72 67 -15 22
-51 52 -80 67 -32 17 -62 44 -80 71 -27 40 -106 92 -140 92 -19 0 -79 71 -73
87 4 9 28 13 88 13 l83 0 63 -30 64 -30 144 0 c106 0 154 -4 181 -15 l35 -15
265 0 264 0 36 -15 c28 -12 82 -15 255 -15 172 0 226 -3 255 -15 l35 -15 280
0 279 0 36 -15 c26 -11 76 -15 198 -15 122 0 172 4 198 15 20 8 55 15 77 15
l40 0 0 40 0 39 -30 16 -29 15 -281 0 -281 0 -36 15 c-26 11 -76 15 -195 15
-118 0 -168 4 -195 15 -22 9 -67 15 -120 15 -52 0 -97 6 -120 15 l-35 15 -444
0 c-323 0 -450 3 -471 12 -25 11 -239 28 -346 28 -24 0 -52 9 -75 25 l-37 25
-103 0 c-69 0 -115 5 -139 15 -24 10 -70 15 -139 15 -58 0 -106 4 -109 10 -4
6 -83 10 -205 10 l-199 0 -7 -35z"/>
</g>
</svg>
