<?xml version="1.0" standalone="no"?>
<!DOCTYPE svg PUBLIC "-//W3C//DTD SVG 20010904//EN"
 "http://www.w3.org/TR/2001/REC-SVG-20010904/DTD/svg10.dtd">
<svg version="1.0" xmlns="http://www.w3.org/2000/svg"
 width="708.000000pt" height="477.000000pt" viewBox="0 0 708.000000 477.000000"
 preserveAspectRatio="xMidYMid meet">
<metadata>
Created by potrace 1.16, written by Peter Selinger 2001-2019
</metadata>
<g transform="translate(0.000000,477.000000) scale(0.100000,-0.100000)"
fill="#000000" stroke="none">
<path d="M3826 4739 c-36 -43 -35 -87 4 -124 17 -16 30 -36 30 -45 0 -37 33
-50 121 -50 l84 0 104 -36 c58 -19 116 -43 130 -53 14 -10 46 -28 71 -41 25
-12 65 -39 90 -59 25 -20 58 -45 75 -55 16 -11 61 -48 100 -82 70 -63 90 -83
169 -165 24 -24 55 -52 69 -62 15 -10 30 -30 33 -45 4 -15 19 -40 34 -57 42
-46 120 -181 120 -208 0 -14 7 -41 15 -60 8 -20 15 -54 15 -75 0 -22 7 -57 16
-77 l16 -38 -16 -41 c-9 -23 -16 -57 -16 -77 0 -72 -31 -130 -115 -213 l-80
-79 -160 -53 c-88 -30 -176 -54 -196 -54 -20 0 -53 -7 -72 -15 -47 -19 -509
-22 -554 -3 -15 6 -71 15 -123 20 -52 4 -115 10 -140 13 -25 2 -97 8 -160 13
-63 4 -125 13 -137 20 -12 7 -47 12 -78 12 -30 0 -72 7 -92 15 -24 10 -70 15
-147 15 -68 0 -128 5 -156 14 -58 18 -124 35 -175 45 -22 4 -56 12 -75 18 -66
21 -125 35 -185 43 -65 9 -121 27 -203 65 -29 14 -57 25 -63 25 -6 0 -40 13
-76 30 -35 17 -81 30 -101 30 -20 0 -57 6 -82 14 -58 18 -123 35 -180 46 -25
5 -69 20 -97 34 -29 14 -64 26 -78 26 -14 0 -42 7 -62 15 -19 8 -60 15 -90 15
-29 0 -70 7 -90 15 -25 11 -72 15 -165 15 -92 0 -139 4 -165 15 -24 10 -71 15
-148 15 -61 0 -127 5 -145 11 -35 13 -90 4 -208 -32 -72 -22 -177 -73 -189
-91 -15 -25 -42 -113 -43 -139 0 -15 7 -43 15 -62 8 -20 15 -51 15 -68 0 -24
11 -42 44 -75 48 -48 82 -56 109 -26 l17 19 0 121 0 121 28 20 c16 11 41 23
58 27 16 4 43 14 59 23 l30 15 173 -3 173 -3 82 -29 c65 -23 99 -29 165 -29
50 0 97 -6 119 -15 19 -8 55 -15 79 -15 54 0 64 -16 64 -105 0 -46 6 -78 20
-104 45 -89 369 -391 420 -391 16 0 66 -26 151 -78 30 -18 73 -37 96 -43 24
-6 63 -29 87 -50 24 -22 50 -39 58 -39 7 0 33 -14 58 -30 25 -16 58 -30 73
-30 15 0 44 -7 64 -15 19 -8 53 -15 75 -15 21 0 55 -7 75 -15 56 -24 145 -19
203 10 57 29 73 50 91 123 l13 53 -37 72 c-20 40 -45 88 -56 107 -11 19 -28
55 -38 79 -9 25 -28 54 -42 67 -13 12 -20 27 -17 33 10 16 103 14 156 -3 87
-28 136 -38 210 -45 41 -4 85 -13 97 -19 15 -8 84 -12 213 -12 147 0 199 -3
227 -15 19 -8 60 -15 90 -15 29 0 70 -7 90 -15 l35 -15 300 0 c207 0 306 4
321 12 12 6 48 14 82 19 117 15 271 63 338 105 28 18 77 46 107 63 87 46 160
130 219 248 l51 103 0 134 c0 96 -4 144 -15 169 -8 20 -15 48 -15 62 0 32 -91
213 -120 240 -12 11 -34 40 -48 65 -29 53 -200 231 -254 266 -21 13 -49 42
-63 64 -14 22 -43 49 -65 60 -23 12 -58 36 -78 54 -39 35 -92 66 -114 66 -19
0 -91 77 -83 90 11 17 348 13 392 -5 28 -12 82 -15 252 -15 159 0 228 -4 261
-14 116 -37 144 -40 425 -47 160 -5 306 -9 325 -10 19 0 58 2 85 6 37 5 61 3
89 -9 56 -23 280 -23 347 1 l49 18 49 -18 c33 -12 79 -17 146 -17 67 0 113 5
146 17 l49 18 0 36 0 37 -42 31 -42 31 -658 0 -659 0 -36 15 c-26 11 -76 15
-195 15 -118 0 -168 4 -195 15 -27 12 -79 15 -225 15 -145 0 -197 3 -225 15
-23 10 -69 15 -135 15 -65 0 -111 5 -135 15 -24 10 -71 15 -150 15 -78 0 -125
5 -150 15 -20 9 -66 15 -109 15 -40 0 -76 5 -79 10 -3 6 -48 10 -100 10 l-93
0 -26 -31z m-1729 -1689 c35 -16 70 -30 76 -30 25 0 301 -144 335 -174 41 -37
93 -66 116 -66 9 0 28 -19 43 -42 15 -24 43 -60 61 -82 19 -21 46 -63 59 -93
l25 -55 -11 -24 c-17 -38 -51 -49 -96 -30 -20 9 -47 16 -59 16 -27 0 -215 63
-286 96 -30 14 -79 46 -109 70 -29 24 -62 44 -74 44 -11 0 -39 20 -61 44 -50
53 -123 106 -147 106 -10 0 -26 10 -36 23 -10 12 -46 47 -81 77 -35 30 -70 70
-78 89 -23 55 -11 61 133 61 l125 0 65 -30z"/>
<path d="M0 2657 l0 -55 29 -7 c16 -3 49 -23 73 -44 46 -40 98 -71 121 -71 7
0 27 -17 44 -37 19 -25 59 -53 114 -80 46 -23 110 -63 143 -90 63 -52 63 -51
116 -77 21 -10 49 -37 68 -67 32 -47 107 -99 146 -99 8 0 24 -14 36 -31 12
-16 41 -42 64 -56 52 -32 240 -216 315 -307 111 -135 171 -212 206 -263 19
-28 39 -55 45 -58 18 -11 91 -115 106 -150 8 -19 14 -47 14 -62 0 -30 37 -100
84 -158 16 -20 33 -55 37 -78 11 -61 27 -120 60 -222 l29 -91 0 -95 0 -95 -45
-93 c-25 -51 -45 -97 -45 -103 0 -5 -25 -33 -55 -62 l-56 -52 9 -25 9 -24 44
-3 44 -2 88 82 87 83 0 30 c0 17 6 50 14 75 34 108 40 143 43 274 3 109 1 147
-11 178 -9 21 -16 54 -16 74 0 43 -31 137 -72 218 -17 34 -44 101 -59 149 -16
49 -40 105 -54 125 -14 20 -25 45 -25 55 0 10 -20 39 -44 65 -24 26 -65 79
-92 119 -55 81 -212 261 -324 373 -42 41 -84 87 -93 102 -10 15 -36 37 -60 49
-23 12 -60 41 -82 65 -23 25 -71 58 -115 80 -85 42 -154 92 -188 135 -13 16
-42 39 -63 50 -22 11 -57 35 -77 53 -38 34 -92 66 -112 66 -16 0 -160 88 -195
119 -16 15 -55 34 -85 43 -96 28 -144 40 -182 45 l-38 5 0 -55z"/>
</g>
</svg>
