<?xml version="1.0" standalone="no"?>
<!DOCTYPE svg PUBLIC "-//W3C//DTD SVG 20010904//EN"
 "http://www.w3.org/TR/2001/REC-SVG-20010904/DTD/svg10.dtd">
<svg version="1.0" xmlns="http://www.w3.org/2000/svg"
 width="627.000000pt" height="189.000000pt" viewBox="0 0 627.000000 189.000000"
 preserveAspectRatio="xMidYMid meet">
<metadata>
Created by potrace 1.16, written by Peter Selinger 2001-2019
</metadata>
<g transform="translate(0.000000,189.000000) scale(0.100000,-0.100000)"
fill="#000000" stroke="none">
<path d="M2970 1851 c-7 -22 -10 -47 -7 -55 8 -20 62 -54 107 -66 19 -5 59
-21 88 -35 28 -14 58 -25 64 -25 16 0 140 -81 184 -119 17 -16 48 -31 69 -35
26 -5 51 -22 83 -56 26 -26 68 -58 94 -71 108 -55 388 -311 431 -394 14 -28
37 -61 51 -74 21 -20 26 -34 26 -70 0 -33 7 -57 24 -82 61 -89 85 -233 47
-280 l-18 -23 -43 14 c-23 8 -51 26 -63 43 -12 16 -41 49 -63 73 l-41 44 -55
0 c-81 0 -88 -12 -88 -144 l0 -107 -27 -26 c-59 -53 -129 -104 -153 -110 -14
-3 -46 -18 -71 -34 -31 -20 -59 -29 -86 -29 -22 0 -57 -7 -76 -15 -20 -8 -54
-15 -75 -15 -22 0 -56 -7 -75 -15 l-36 -15 -291 0 -291 0 -36 15 c-22 9 -67
15 -120 15 -52 0 -97 6 -120 15 -25 11 -72 15 -162 15 -81 0 -142 5 -171 14
-58 18 -124 35 -175 45 -22 4 -56 12 -75 18 -52 16 -119 33 -172 43 -26 5 -56
13 -67 19 -11 6 -46 11 -78 12 -78 1 -173 36 -193 71 l-14 27 13 43 c25 78 25
187 1 258 -31 94 -46 118 -110 185 -31 33 -69 79 -83 102 -15 23 -37 47 -49
54 -13 6 -43 28 -68 49 -58 48 -181 110 -217 110 -16 0 -45 11 -64 25 -32 21
-168 69 -299 105 -85 23 -161 23 -230 0 -93 -31 -133 -54 -163 -94 l-27 -35 0
-85 0 -85 20 -6 c11 -3 32 -27 46 -53 31 -54 201 -232 255 -267 21 -13 50 -43
66 -67 21 -31 40 -47 69 -56 22 -7 61 -29 85 -50 25 -20 79 -52 120 -71 41
-18 88 -40 104 -47 17 -8 46 -38 65 -67 21 -30 46 -55 60 -59 14 -3 45 -12 70
-18 25 -7 99 -15 165 -19 94 -5 129 -11 160 -28 22 -12 89 -37 148 -57 l107
-36 77 0 76 0 136 -44 c182 -59 213 -67 301 -75 41 -4 85 -13 97 -19 15 -8 96
-12 262 -12 149 0 242 -4 246 -10 8 -13 607 -14 620 -1 6 5 33 11 60 14 100
10 254 59 314 101 27 18 69 38 93 44 44 11 56 19 168 105 67 50 90 56 147 32
19 -8 64 -15 100 -15 l64 0 50 47 c74 69 99 125 99 216 0 44 -6 90 -15 110 -8
20 -15 56 -15 80 0 33 -8 54 -30 85 -16 22 -51 85 -79 139 -34 69 -61 108 -85
127 -20 15 -47 49 -60 75 -17 32 -44 62 -83 91 -32 23 -73 60 -91 81 -21 25
-48 42 -73 49 -26 7 -62 32 -107 74 -37 35 -90 75 -118 90 -28 14 -63 40 -79
56 l-28 29 13 16 12 15 200 0 c154 0 207 -3 235 -15 22 -9 67 -15 120 -15 52
0 97 -6 120 -15 19 -8 53 -15 75 -15 21 0 55 -7 75 -15 22 -9 67 -15 117 -15
44 0 101 -6 126 -14 110 -35 146 -39 345 -45 140 -4 217 -10 232 -18 13 -8 57
-13 108 -13 53 0 99 -6 122 -15 20 -8 66 -15 105 -15 38 0 84 -7 105 -15 22
-9 67 -15 120 -15 52 0 97 -6 120 -15 19 -8 53 -15 75 -15 21 0 55 -7 75 -15
20 -9 66 -15 109 -15 l74 0 0 53 0 53 -95 32 -94 32 -126 0 c-89 0 -136 4
-162 15 -25 11 -72 15 -165 15 -92 0 -139 4 -165 15 -20 8 -66 15 -105 15 -38
0 -84 7 -105 15 -20 8 -66 15 -105 15 -38 0 -84 7 -105 15 -19 8 -53 15 -75
15 -21 0 -55 7 -75 15 -27 11 -77 15 -210 15 -132 0 -182 4 -210 15 -19 8 -60
15 -90 15 -29 0 -70 7 -90 15 -23 10 -69 15 -135 15 -65 0 -111 5 -135 15 -22
9 -67 15 -120 15 -90 0 -129 12 -191 58 -27 19 -40 23 -65 17 -18 -4 -107 -9
-198 -12 l-167 -4 -37 15 c-21 9 -57 16 -81 16 -23 0 -46 5 -49 10 -3 6 -34
10 -69 10 l-63 0 -13 -39z m-2310 -707 c85 -42 175 -92 199 -112 25 -20 61
-47 80 -61 20 -13 42 -31 49 -40 20 -25 62 -114 62 -133 0 -10 -34 -40 -82
-73 -46 -30 -102 -70 -124 -86 l-42 -31 -60 21 c-64 22 -150 72 -205 120 -17
15 -47 36 -65 45 -18 9 -62 45 -97 79 -36 34 -79 76 -97 93 -52 50 -114 135
-129 177 l-14 39 24 19 23 19 162 0 162 0 154 -76z m464 -546 c48 -68 -24
-140 -92 -92 -27 19 -28 39 -2 82 24 40 70 45 94 10z"/>
</g>
</svg>
