<?xml version="1.0" standalone="no"?>
<!DOCTYPE svg PUBLIC "-//W3C//DTD SVG 20010904//EN"
 "http://www.w3.org/TR/2001/REC-SVG-20010904/DTD/svg10.dtd">
<svg version="1.0" xmlns="http://www.w3.org/2000/svg"
 width="792.000000pt" height="246.000000pt" viewBox="0 0 792.000000 246.000000"
 preserveAspectRatio="xMidYMid meet">
<metadata>
Created by potrace 1.16, written by Peter Selinger 2001-2019
</metadata>
<g transform="translate(0.000000,246.000000) scale(0.100000,-0.100000)"
fill="#000000" stroke="none">
<path d="M4835 2404 l-19 -56 15 -27 c15 -27 128 -93 190 -111 19 -5 54 -26
76 -45 23 -19 91 -60 150 -90 69 -34 132 -74 171 -109 35 -31 71 -56 81 -56
10 0 36 -13 57 -30 21 -16 96 -68 166 -115 70 -48 137 -100 149 -116 11 -16
43 -41 69 -54 27 -14 57 -37 67 -51 10 -15 41 -50 69 -79 68 -70 198 -269 223
-341 16 -45 21 -83 21 -169 l0 -111 -22 -44 c-30 -57 -135 -130 -239 -165
l-76 -25 -227 0 c-179 0 -234 3 -263 15 -20 8 -66 15 -105 15 -38 0 -84 7
-105 15 -19 8 -52 15 -72 15 -20 0 -56 6 -81 14 -93 29 -137 38 -225 46 -67 5
-104 14 -142 34 -29 14 -59 26 -65 26 -7 0 -26 9 -43 21 -64 43 -125 69 -166
69 -24 0 -67 12 -106 30 -35 17 -69 30 -75 30 -5 0 -39 14 -75 30 -37 17 -81
30 -104 30 -22 0 -56 7 -76 15 -19 8 -59 15 -87 15 -28 0 -71 6 -96 14 -78 25
-133 37 -195 45 -34 5 -70 13 -82 19 -12 7 -40 12 -63 12 -22 0 -57 7 -77 15
-19 8 -53 15 -75 15 -21 0 -55 7 -75 15 -27 12 -81 15 -240 15 -158 0 -212 3
-240 15 l-35 15 -313 0 -313 0 -35 -15 c-25 -10 -71 -15 -147 -15 -86 0 -125
-5 -172 -21 -192 -64 -318 -184 -318 -302 0 -24 -5 -48 -12 -55 -17 -17 -81
-15 -125 3 -19 8 -53 15 -75 15 -21 0 -55 7 -75 15 -22 9 -67 15 -117 15 -128
0 -251 54 -313 138 -13 18 -39 35 -65 43 -31 10 -50 25 -71 57 -20 29 -47 52
-86 72 -32 16 -82 51 -112 77 -30 27 -67 57 -82 66 -15 10 -52 39 -82 65 -117
102 -220 171 -257 172 l-18 0 0 -44 0 -45 82 -87 c46 -48 100 -98 122 -112 22
-13 70 -52 107 -86 69 -62 141 -119 216 -169 72 -49 112 -117 67 -117 -21 0
-131 -38 -174 -60 -20 -10 -51 -35 -68 -55 l-32 -36 0 -125 c0 -69 5 -134 10
-145 6 -11 30 -31 53 -46 23 -14 69 -52 102 -83 33 -32 78 -67 101 -78 22 -11
80 -48 130 -81 60 -41 99 -61 119 -61 17 0 50 -13 75 -30 25 -16 53 -30 63
-30 10 0 29 -11 43 -25 l25 -25 70 0 c38 0 77 4 87 8 9 5 31 15 47 23 18 9 40
33 55 61 l24 47 -12 45 c-6 26 -12 62 -12 80 0 19 -13 63 -30 98 -16 34 -30
69 -30 76 0 24 -48 107 -80 137 -88 84 -84 158 7 120 19 -8 60 -15 90 -15 29
0 70 -7 90 -15 19 -8 47 -15 60 -15 14 0 54 -14 90 -30 35 -17 75 -30 89 -30
14 0 41 -7 61 -15 48 -20 96 -19 116 3 11 12 17 36 17 69 l0 51 -43 35 c-27
22 -48 50 -56 74 l-12 38 16 38 c40 95 154 157 289 157 37 0 77 5 89 12 20 11
183 30 247 29 560 -10 657 -14 688 -27 19 -8 59 -14 89 -14 29 0 70 -7 90 -15
26 -11 74 -15 177 -15 94 0 156 -5 186 -14 58 -18 124 -35 175 -45 22 -4 56
-12 75 -18 52 -16 119 -33 172 -43 26 -5 56 -13 67 -19 11 -6 32 -11 46 -11
60 0 93 -41 75 -95 l-11 -34 17 -33 c36 -72 87 -129 135 -154 27 -13 80 -53
117 -89 l68 -64 78 -25 c43 -14 89 -34 104 -45 61 -42 111 -61 167 -61 31 0
72 -7 92 -15 19 -8 64 -15 100 -15 l65 0 29 29 29 29 0 80 c0 43 -5 94 -11
112 l-12 32 14 9 c23 15 166 10 206 -6 19 -8 59 -15 89 -15 29 0 65 -5 80 -10
15 -6 104 -13 198 -16 l171 -5 37 15 c21 9 60 16 88 16 30 0 92 14 157 35
l108 36 51 54 c28 30 58 55 67 55 30 0 66 45 87 107 l20 62 0 146 0 145 -36
73 c-20 39 -46 86 -59 102 -12 17 -34 53 -48 80 -14 28 -44 68 -67 90 -23 22
-57 61 -76 87 -21 28 -56 59 -87 75 -31 17 -63 45 -82 73 -23 33 -42 49 -74
59 -27 8 -68 37 -110 75 -78 73 -224 173 -325 223 -66 33 -130 78 -209 145
l-32 28 15 10 c17 12 142 7 230 -9 30 -5 106 -10 168 -10 76 -1 124 -6 149
-16 l35 -15 340 0 339 0 36 -15 c26 -11 74 -15 180 -15 105 0 153 -4 180 -15
28 -12 86 -15 285 -15 198 0 256 -3 285 -15 27 -11 78 -15 214 -15 l179 0 0
55 0 55 -145 0 c-107 0 -155 4 -182 15 -27 12 -79 15 -225 15 -145 0 -197 3
-225 15 -27 12 -81 15 -240 15 -158 0 -212 3 -240 15 -26 11 -74 15 -180 15
-105 0 -153 4 -180 15 -26 11 -74 15 -180 15 -105 0 -153 4 -180 15 l-35 15
-265 0 -264 0 -36 15 c-22 9 -67 15 -120 15 -52 0 -97 6 -120 15 -19 8 -55 15
-79 15 -23 0 -46 5 -49 10 -3 6 -32 10 -64 10 l-57 0 -19 -56z m-3959 -1722
c79 -57 195 -215 220 -297 7 -25 24 -61 38 -82 31 -45 36 -131 10 -157 -20
-21 -23 -20 -67 10 -21 14 -59 32 -85 39 -26 8 -69 30 -96 50 -27 19 -57 35
-66 35 -9 0 -35 13 -56 30 -21 16 -80 57 -130 92 -97 65 -139 114 -150 177 -9
47 11 81 66 108 l45 23 116 0 116 0 39 -28z m3681 -17 c19 -8 47 -15 61 -15
35 0 203 -82 267 -131 55 -41 90 -95 79 -123 -8 -21 -8 -21 -98 9 -42 14 -87
25 -99 25 -24 0 -52 17 -105 62 -18 15 -40 28 -48 28 -51 0 -194 108 -194 147
0 18 91 17 137 -2z"/>
</g>
</svg>
