<?xml version="1.0" standalone="no"?>
<!DOCTYPE svg PUBLIC "-//W3C//DTD SVG 20010904//EN"
 "http://www.w3.org/TR/2001/REC-SVG-20010904/DTD/svg10.dtd">
<svg version="1.0" xmlns="http://www.w3.org/2000/svg"
 width="459.000000pt" height="396.000000pt" viewBox="0 0 459.000000 396.000000"
 preserveAspectRatio="xMidYMid meet">
<metadata>
Created by potrace 1.16, written by Peter Selinger 2001-2019
</metadata>
<g transform="translate(0.000000,396.000000) scale(0.100000,-0.100000)"
fill="#000000" stroke="none">
<path d="M890 3910 l0 -49 53 -40 c70 -52 94 -63 236 -110 68 -23 135 -49 149
-60 15 -10 50 -31 77 -45 28 -15 75 -43 105 -62 30 -19 71 -39 91 -44 19 -5
53 -25 75 -43 21 -18 53 -41 69 -52 17 -10 57 -44 90 -75 33 -31 78 -68 100
-83 88 -59 208 -204 272 -331 23 -46 45 -150 45 -216 0 -57 -20 -168 -37 -200
-35 -68 -117 -137 -228 -190 -113 -54 -130 -58 -184 -35 -26 11 -74 15 -180
15 -105 0 -153 4 -180 15 -19 8 -65 15 -101 15 -66 0 -170 28 -223 59 -14 9
-50 31 -80 49 -30 17 -70 36 -89 42 -19 5 -52 24 -74 42 -129 107 -195 130
-249 88 -49 -38 -59 -121 -40 -315 l8 -80 35 -50 c72 -103 117 -159 203 -252
48 -52 87 -99 87 -104 0 -5 22 -34 50 -64 27 -30 61 -73 75 -95 14 -22 43 -49
65 -60 40 -21 133 -105 264 -240 13 -14 52 -45 86 -70 34 -25 86 -64 115 -87
29 -23 75 -53 102 -67 60 -32 72 -41 108 -89 15 -21 50 -49 76 -62 25 -13 60
-41 77 -62 17 -21 47 -47 69 -58 21 -10 54 -32 74 -47 20 -15 41 -28 46 -28 5
0 20 -11 33 -26 l24 -25 -14 -9 c-20 -13 -15 -14 -110 20 -47 16 -94 30 -105
30 -10 0 -60 13 -110 29 -99 32 -157 48 -225 61 -25 5 -76 20 -115 34 -41 15
-92 26 -123 26 -29 0 -69 7 -89 15 -19 8 -53 15 -75 15 -21 0 -55 7 -75 15
-22 9 -67 15 -120 15 -52 0 -97 6 -120 15 -50 21 -286 21 -336 0 -28 -11 -79
-15 -212 -15 l-176 0 -42 -21 c-23 -12 -63 -40 -89 -62 l-48 -40 0 -69 0 -68
52 0 52 0 42 45 41 45 55 0 c31 0 72 7 91 15 24 10 70 15 135 15 66 0 112 5
135 15 49 20 215 20 264 0 19 -8 53 -15 75 -15 21 0 55 -7 75 -15 25 -11 72
-15 165 -15 92 0 139 -4 165 -15 19 -8 52 -15 72 -15 20 0 56 -6 81 -14 60
-19 125 -35 181 -46 26 -5 69 -20 97 -34 28 -14 64 -26 79 -26 15 0 57 -14 91
-30 35 -17 73 -30 85 -30 11 0 81 -20 154 -45 73 -25 140 -45 149 -45 24 0
144 -41 175 -59 14 -9 50 -31 80 -49 30 -17 70 -36 89 -42 50 -13 134 -55 182
-90 22 -17 48 -30 55 -30 21 0 82 -30 127 -62 21 -15 45 -28 53 -28 25 0 182
-101 188 -121 l6 -19 83 0 83 0 11 39 c16 53 15 71 -8 108 -22 37 -65 60 -174
94 -55 17 -92 35 -121 62 -24 20 -48 37 -55 37 -6 0 -39 13 -73 28 -34 16 -73
32 -87 35 -32 9 -49 23 -85 70 -27 36 -89 77 -116 77 -16 0 -102 54 -159 99
-25 20 -58 45 -75 55 -16 11 -50 38 -75 61 -43 41 -117 85 -140 85 -7 0 -35
20 -63 45 -28 25 -82 61 -119 80 -37 20 -91 57 -120 84 -29 27 -77 61 -106 76
-29 15 -61 39 -70 53 -33 49 -100 112 -119 112 -11 0 -45 27 -80 65 -33 36
-78 77 -99 91 -66 44 -190 161 -370 350 -121 126 -154 168 -154 196 0 9 -18
30 -40 48 -24 19 -43 44 -49 66 -5 19 -23 50 -40 70 -24 27 -31 44 -31 77 0
44 13 67 38 67 20 0 81 -30 126 -62 21 -15 46 -28 55 -28 9 0 36 -14 61 -30
32 -22 57 -30 88 -30 23 0 59 -7 79 -15 22 -9 67 -15 119 -15 53 0 98 -6 124
-16 31 -13 59 -15 127 -10 49 4 104 6 123 5 121 -4 138 -2 260 37 25 8 57 14
72 14 21 0 49 20 109 75 45 41 86 75 90 75 5 0 28 26 52 58 30 41 47 77 56
118 7 32 19 73 26 91 11 24 11 39 3 67 -8 27 -8 46 0 73 l11 37 -24 42 c-17
30 -25 57 -25 91 0 26 -8 74 -17 106 l-18 59 -153 159 c-121 125 -162 161
-191 169 -20 5 -55 25 -77 43 -21 19 -54 42 -73 51 -18 10 -47 31 -65 46 -17
16 -47 42 -66 59 l-35 30 13 12 12 13 53 -16 c72 -22 133 -38 189 -48 26 -5
56 -13 67 -19 11 -6 52 -11 91 -11 40 0 86 -6 107 -15 23 -10 69 -15 135 -15
65 0 111 -5 135 -15 22 -9 67 -15 120 -15 52 0 97 -6 120 -15 23 -10 69 -15
135 -15 65 0 111 -5 135 -15 25 -11 72 -15 165 -15 92 0 139 -4 165 -15 22 -9
67 -15 120 -15 52 0 97 -6 120 -15 24 -10 71 -15 150 -15 78 0 125 -5 150 -15
19 -8 55 -15 78 -15 23 0 59 7 78 15 54 22 295 21 360 -2 l47 -17 65 32 65 32
0 25 c0 18 -12 33 -42 55 l-41 30 -434 0 -434 0 -36 15 c-23 10 -69 15 -135
15 -65 0 -111 5 -135 15 -25 11 -72 15 -165 15 -92 0 -139 4 -165 15 -24 10
-70 15 -147 15 -68 0 -128 5 -156 14 -103 33 -142 39 -270 45 -77 4 -144 12
-157 19 -12 6 -47 12 -78 12 -30 0 -72 7 -92 15 -19 8 -53 15 -75 15 -21 0
-55 7 -75 15 -19 8 -54 15 -77 15 -34 0 -48 6 -71 30 l-29 30 -118 0 c-83 0
-129 5 -155 15 -19 8 -52 15 -72 15 -20 0 -75 13 -121 29 -47 16 -102 31 -123
34 -20 3 -50 15 -66 26 l-29 21 -101 0 -101 0 0 -50z"/>
</g>
</svg>
