<?xml version="1.0" standalone="no"?>
<!DOCTYPE svg PUBLIC "-//W3C//DTD SVG 20010904//EN"
 "http://www.w3.org/TR/2001/REC-SVG-20010904/DTD/svg10.dtd">
<svg version="1.0" xmlns="http://www.w3.org/2000/svg"
 width="402.000000pt" height="153.000000pt" viewBox="0 0 402.000000 153.000000"
 preserveAspectRatio="xMidYMid meet">
<metadata>
Created by potrace 1.16, written by Peter Selinger 2001-2019
</metadata>
<g transform="translate(0.000000,153.000000) scale(0.100000,-0.100000)"
fill="#000000" stroke="none">
<path d="M425 1520 c-3 -5 -33 -10 -66 -10 l-61 0 -91 -45 c-63 -32 -110 -64
-150 -103 l-57 -56 0 -43 c0 -32 5 -46 21 -55 11 -7 36 -36 54 -65 38 -56 88
-103 111 -103 28 0 279 -155 300 -185 10 -13 14 -50 14 -118 0 -108 16 -171
75 -286 33 -65 117 -157 180 -196 16 -10 50 -37 75 -60 25 -23 66 -54 92 -68
26 -15 53 -36 60 -46 18 -26 92 -61 127 -61 16 0 33 -4 36 -10 16 -26 135 9
135 40 0 26 -48 64 -137 110 -55 27 -93 55 -114 81 -17 21 -38 39 -48 39 -30
0 -88 48 -125 104 -20 30 -49 64 -65 76 -40 28 -91 132 -91 185 0 24 -7 59
-15 78 -8 20 -15 63 -15 95 l0 58 -59 75 -60 74 -126 64 c-135 69 -163 95
-172 160 l-5 38 31 22 c17 12 48 25 68 27 21 3 55 12 76 20 24 9 78 14 151 14
78 0 125 5 149 15 25 10 71 15 147 15 76 0 122 -5 147 -15 24 -10 71 -15 150
-15 78 0 125 -5 150 -15 19 -8 52 -15 73 -15 42 0 167 -42 188 -64 20 -19 7
-36 -28 -36 -58 0 -150 -116 -150 -190 0 -47 85 -208 139 -262 25 -25 64 -67
86 -93 22 -27 58 -59 79 -73 22 -13 60 -43 85 -66 78 -70 199 -146 234 -146 7
0 24 -12 38 -26 24 -26 148 -94 170 -94 7 0 51 -18 98 -41 110 -52 191 -79
236 -79 20 0 52 -7 72 -15 45 -19 111 -19 156 0 20 8 57 15 82 15 l46 0 25 28
c14 15 48 56 75 91 64 84 64 102 -5 239 l-54 107 -119 116 c-68 67 -156 141
-207 175 -145 96 -187 146 -133 159 12 4 35 1 51 -4 16 -7 126 -11 277 -11
199 0 257 -3 286 -15 19 -8 57 -15 83 -15 73 0 80 -5 74 -53 l-6 -42 41 -60
c39 -59 129 -145 151 -145 6 0 40 -17 75 -39 35 -21 96 -48 134 -61 l71 -22
40 16 c22 9 52 16 66 16 38 0 118 45 147 84 l27 35 0 88 0 88 -41 48 c-43 50
-121 97 -161 97 -13 0 -43 6 -68 14 -87 28 -136 38 -210 45 -41 4 -85 13 -97
19 -12 7 -54 12 -93 12 -40 0 -86 6 -107 15 -27 12 -79 15 -225 15 -145 0
-197 3 -225 15 l-35 15 -340 0 -340 0 -65 30 c-35 17 -70 30 -77 30 -7 0 -25
14 -41 30 -19 20 -39 30 -57 30 -16 0 -45 7 -65 15 -19 8 -47 15 -60 15 -14 0
-54 14 -90 30 -35 17 -74 30 -87 30 -12 0 -60 13 -106 30 -64 22 -103 30 -157
30 -39 0 -75 5 -78 10 -4 6 -143 10 -385 10 -242 0 -381 -4 -385 -10z m1313
-435 l38 -16 69 12 c128 21 150 21 189 5 21 -9 50 -16 63 -16 30 0 85 -25 137
-62 21 -15 46 -28 55 -28 8 0 29 -13 46 -28 16 -16 49 -34 72 -41 23 -6 70
-33 103 -59 33 -26 88 -67 122 -92 92 -68 177 -160 252 -275 55 -83 58 -115
16 -145 -29 -21 -121 -43 -170 -42 -72 2 -192 21 -240 37 -87 30 -369 174
-409 210 -20 18 -60 44 -89 59 -29 15 -81 55 -115 89 -35 34 -75 70 -90 80
-15 10 -37 37 -48 60 -12 23 -41 60 -65 83 l-44 41 0 52 c0 91 26 109 108 76z
m1819 -66 c124 -28 224 -65 276 -101 21 -15 27 -28 27 -54 0 -20 -5 -44 -10
-55 l-11 -19 -85 0 c-63 0 -96 5 -127 19 -55 25 -128 89 -152 134 l-19 35 17
26 c20 30 20 30 84 15z"/>
</g>
</svg>
