<?xml version="1.0" standalone="no"?>
<!DOCTYPE svg PUBLIC "-//W3C//DTD SVG 20010904//EN"
 "http://www.w3.org/TR/2001/REC-SVG-20010904/DTD/svg10.dtd">
<svg version="1.0" xmlns="http://www.w3.org/2000/svg"
 width="432.000000pt" height="219.000000pt" viewBox="0 0 432.000000 219.000000"
 preserveAspectRatio="xMidYMid meet">
<metadata>
Created by potrace 1.16, written by Peter Selinger 2001-2019
</metadata>
<g transform="translate(0.000000,219.000000) scale(0.100000,-0.100000)"
fill="#000000" stroke="none">
<path d="M195 2170 c-4 -11 -18 -22 -33 -25 -60 -12 -77 -22 -97 -52 -66 -105
-65 -103 -65 -172 l0 -68 25 -11 c14 -7 25 -20 25 -31 0 -58 133 -128 423
-225 138 -46 213 -66 248 -66 27 0 66 -7 86 -15 28 -12 86 -15 287 -15 l251 0
77 -51 c45 -29 89 -67 105 -91 16 -22 58 -74 95 -115 38 -41 71 -86 74 -100 4
-15 39 -59 78 -99 l71 -72 19 -64 c10 -34 33 -85 51 -113 18 -27 36 -57 41
-65 16 -28 23 -292 8 -325 -7 -16 -15 -41 -18 -55 -7 -36 -125 -169 -156 -177
-47 -11 -178 -82 -194 -105 -9 -12 -16 -30 -16 -40 l0 -18 130 0 130 0 61 43
c71 48 94 71 152 147 111 146 104 122 113 393 l5 168 -30 48 c-17 26 -31 55
-31 63 0 8 -13 33 -29 55 -16 22 -39 60 -51 84 -12 24 -32 55 -45 69 -32 35
-112 154 -140 209 -13 25 -56 77 -95 115 -85 82 -104 108 -95 135 7 23 196
212 240 241 l30 20 173 0 174 0 65 -30 c38 -18 81 -30 105 -30 23 0 67 -12
105 -30 48 -22 79 -30 122 -30 l58 0 24 -26 c24 -26 89 -64 109 -64 7 0 39
-13 73 -28 34 -16 74 -32 89 -35 14 -4 50 -29 80 -56 75 -68 124 -91 196 -91
33 0 76 7 95 15 22 9 68 15 117 15 49 0 95 -6 117 -15 l35 -15 300 0 299 0 29
15 30 16 0 69 0 70 -175 0 c-134 0 -184 4 -212 15 -19 8 -55 15 -78 15 -23 0
-59 -7 -78 -15 -50 -21 -244 -21 -294 0 -20 8 -66 15 -105 15 -73 0 -117 14
-173 56 -17 13 -66 34 -110 48 -93 30 -116 41 -169 78 -21 16 -52 28 -68 28
-17 0 -59 14 -95 30 -35 17 -74 30 -87 30 -26 0 -122 32 -194 66 -29 13 -71
24 -93 24 -22 0 -56 7 -76 15 -28 12 -84 15 -265 15 l-230 0 -65 -62 c-36 -35
-71 -74 -78 -88 -34 -65 -122 -120 -193 -120 -28 0 -51 9 -82 33 -104 77 -155
110 -186 119 -18 5 -57 31 -87 58 -50 46 -238 150 -270 150 -7 0 -26 14 -42
30 -18 18 -39 30 -55 30 -25 0 -189 52 -222 70 -10 6 -89 10 -177 10 l-160 0
-6 -20z m250 -139 c28 -6 74 -21 102 -35 29 -14 63 -26 75 -26 55 0 150 -44
209 -96 33 -30 67 -54 75 -54 51 0 201 -113 191 -144 -6 -18 -209 -20 -253 -1
-20 8 -59 15 -87 15 -59 0 -235 56 -347 111 -41 20 -90 40 -107 43 -43 10 -93
57 -93 89 0 14 8 34 18 46 25 32 112 72 142 66 14 -3 48 -9 75 -14z"/>
<path d="M1060 840 c-41 -21 -94 -58 -116 -82 l-42 -43 -7 -93 -7 -93 79 -80
c80 -83 121 -110 202 -135 32 -9 56 -11 81 -4 19 5 47 12 63 15 34 7 36 39 4
86 l-23 34 -79 26 c-44 15 -82 33 -86 40 -3 8 -16 35 -29 60 l-23 46 22 36
c12 20 51 58 87 84 35 26 64 55 64 64 0 23 -66 79 -93 79 -12 -1 -56 -18 -97
-40z"/>
</g>
</svg>
