<?xml version="1.0" standalone="no"?>
<!DOCTYPE svg PUBLIC "-//W3C//DTD SVG 20010904//EN"
 "http://www.w3.org/TR/2001/REC-SVG-20010904/DTD/svg10.dtd">
<svg version="1.0" xmlns="http://www.w3.org/2000/svg"
 width="294.000000pt" height="168.000000pt" viewBox="0 0 294.000000 168.000000"
 preserveAspectRatio="xMidYMid meet">
<metadata>
Created by potrace 1.16, written by Peter Selinger 2001-2019
</metadata>
<g transform="translate(0.000000,168.000000) scale(0.100000,-0.100000)"
fill="#000000" stroke="none">
<path d="M1010 1670 c0 -6 -11 -22 -25 -36 -47 -47 -65 -97 -65 -179 l0 -75
54 -108 c63 -126 69 -142 57 -161 l-9 -15 -64 26 c-35 15 -92 36 -128 48 -36
11 -83 29 -106 40 -61 28 -342 120 -367 120 -12 0 -42 14 -67 30 -25 17 -58
30 -75 30 -16 0 -59 14 -93 30 -35 17 -77 30 -93 30 l-29 0 0 -55 0 -55 90
-45 c49 -25 102 -45 117 -45 16 0 45 -11 64 -24 20 -14 112 -50 205 -81 93
-30 206 -73 252 -95 46 -22 88 -40 93 -40 6 0 40 -13 76 -30 35 -16 69 -30 75
-30 18 0 136 -58 177 -88 22 -16 56 -33 75 -36 18 -4 53 -24 77 -44 24 -21 66
-55 92 -75 27 -20 67 -56 88 -81 22 -25 62 -57 88 -71 27 -15 65 -46 85 -71
20 -24 76 -69 123 -101 47 -31 100 -68 117 -83 34 -30 108 -70 129 -70 7 0 24
-12 38 -26 13 -14 49 -39 79 -54 68 -34 351 -130 385 -130 13 0 27 -5 30 -10
4 -6 58 -10 129 -10 l123 0 56 59 c44 45 57 67 57 90 0 16 5 33 10 36 13 8 13
72 0 80 -6 4 -28 41 -49 83 -46 90 -118 164 -231 238 -41 26 -88 60 -105 75
-34 29 -107 69 -128 69 -7 0 -26 14 -42 30 -16 17 -36 30 -44 30 -9 0 -36 14
-61 30 -25 16 -51 30 -58 30 -7 0 -39 12 -70 26 -31 15 -77 32 -102 40 -25 7
-67 29 -94 49 -29 20 -61 35 -78 35 -16 0 -45 7 -65 15 -23 10 -68 15 -129 15
l-93 0 -27 -24 c-21 -17 -29 -35 -33 -72 l-6 -49 -26 -3 -27 -3 -73 83 c-154
173 -176 209 -224 362 l-28 89 11 54 c6 29 21 67 32 83 l21 30 107 0 c74 -1
115 -5 132 -15 19 -11 67 -14 195 -15 128 -1 176 -4 195 -15 14 -8 51 -14 83
-15 32 0 74 -7 94 -15 24 -10 71 -15 150 -15 78 0 125 -5 150 -15 26 -11 73
-15 172 -15 144 0 161 5 161 45 0 26 -20 45 -77 74 l-42 21 -146 0 c-107 0
-155 4 -182 15 -28 12 -82 15 -255 15 -172 0 -226 3 -255 15 -25 10 -71 15
-154 15 -68 0 -120 4 -124 10 -9 14 -99 12 -113 -2 -10 -10 -17 -10 -32 0 -25
15 -250 17 -250 2z m907 -840 c35 -16 69 -30 74 -30 6 0 40 -18 77 -40 36 -22
82 -45 102 -50 46 -12 136 -56 174 -85 17 -12 58 -36 91 -53 125 -62 261 -193
320 -307 l39 -76 -15 -27 -15 -27 -134 -3 -135 -2 -150 73 c-82 41 -162 77
-177 80 -14 4 -50 29 -80 56 -29 26 -73 58 -98 71 -65 33 -240 171 -240 190 0
5 16 17 35 29 19 11 40 32 47 46 l12 26 -17 47 c-18 49 -22 94 -10 105 12 13
34 7 100 -23z"/>
</g>
</svg>
