<?xml version="1.0" standalone="no"?>
<!DOCTYPE svg PUBLIC "-//W3C//DTD SVG 20010904//EN"
 "http://www.w3.org/TR/2001/REC-SVG-20010904/DTD/svg10.dtd">
<svg version="1.0" xmlns="http://www.w3.org/2000/svg"
 width="441.000000pt" height="222.000000pt" viewBox="0 0 441.000000 222.000000"
 preserveAspectRatio="xMidYMid meet">
<metadata>
Created by potrace 1.16, written by Peter Selinger 2001-2019
</metadata>
<g transform="translate(0.000000,222.000000) scale(0.100000,-0.100000)"
fill="#000000" stroke="none">
<path d="M2075 2210 c-3 -5 -46 -10 -94 -10 -56 0 -102 -6 -124 -15 -20 -8
-55 -15 -77 -15 -44 0 -111 -30 -172 -77 -53 -40 -138 -149 -138 -177 0 -31
19 -46 129 -102 52 -26 111 -62 131 -81 21 -18 43 -33 50 -33 27 0 180 -81
222 -118 25 -21 60 -44 79 -51 19 -7 39 -16 45 -19 31 -19 144 -112 179 -148
22 -22 60 -54 85 -70 55 -36 224 -209 268 -274 18 -27 46 -59 62 -70 17 -12
30 -28 30 -36 0 -19 35 -89 71 -139 29 -41 79 -174 79 -211 0 -12 7 -38 15
-57 30 -71 7 -251 -33 -265 -13 -4 -63 49 -105 112 -38 56 -263 282 -312 314
-59 38 -161 138 -201 199 -26 40 -50 61 -92 83 -68 35 -78 43 -119 95 -23 30
-43 44 -76 52 -26 7 -70 32 -102 58 -31 26 -97 67 -148 92 -50 26 -107 61
-126 78 -37 34 -92 65 -112 65 -16 0 -144 64 -207 104 -29 19 -91 46 -137 61
-47 15 -107 38 -135 51 -27 13 -56 24 -62 24 -7 0 -42 14 -76 30 -35 17 -75
30 -88 30 -14 0 -41 7 -61 15 -19 8 -60 15 -90 15 -29 0 -70 7 -90 15 -23 10
-69 15 -134 15 -54 0 -109 4 -124 10 -27 10 -68 4 -184 -31 -100 -31 -101 -32
-101 -93 l0 -54 41 -30 c22 -17 55 -33 74 -36 40 -8 91 -53 100 -89 11 -42
-23 -91 -65 -95 -63 -6 -92 -59 -52 -95 14 -13 38 -17 98 -17 l79 0 40 23 c43
25 85 87 85 128 0 14 5 40 11 57 l10 30 -20 41 c-12 22 -37 56 -58 76 -44 43
-36 65 18 46 17 -6 56 -11 86 -11 29 0 70 -7 90 -15 19 -8 45 -15 57 -15 12 0
60 -13 106 -30 47 -16 94 -30 105 -30 26 0 124 -33 193 -66 29 -13 58 -24 65
-24 6 0 39 -13 73 -29 34 -16 75 -32 91 -35 17 -4 59 -26 95 -49 35 -23 93
-55 129 -71 82 -36 76 -33 143 -87 31 -25 100 -67 152 -93 53 -26 110 -61 128
-77 19 -16 54 -43 79 -61 207 -148 267 -198 312 -257 22 -29 66 -79 99 -111
174 -172 236 -238 236 -254 0 -8 25 -43 56 -78 63 -71 74 -89 99 -170 l18 -58
57 0 58 0 63 38 64 38 42 80 42 79 1 166 c0 126 -4 175 -15 202 -8 20 -15 49
-15 65 0 16 -13 47 -29 70 -17 22 -46 73 -66 112 -74 147 -149 243 -327 418
-18 18 -52 51 -74 75 -23 23 -69 62 -104 87 -34 25 -85 63 -113 85 -29 22 -65
48 -80 58 -15 10 -53 40 -83 68 -30 27 -61 49 -70 49 -15 0 -100 47 -204 113
-52 33 -103 59 -143 71 -9 3 -25 22 -34 41 -29 60 -6 78 173 138 l111 37 125
0 124 0 29 -30 29 -30 118 0 c83 0 129 -5 155 -15 19 -8 60 -15 90 -15 29 0
70 -7 90 -15 19 -8 52 -15 72 -15 39 0 156 -37 220 -69 22 -12 46 -21 52 -21
7 0 57 -22 113 -49 114 -55 203 -126 250 -198 l31 -48 63 -3 c41 -2 79 3 106
13 l43 17 38 -16 c48 -21 171 -21 218 -1 25 10 72 15 150 15 79 0 126 5 150
15 20 8 55 15 77 15 l40 0 0 70 0 70 -29 0 c-16 0 -58 -13 -93 -30 l-63 -30
-264 0 -264 0 -51 32 c-28 17 -71 48 -96 68 -25 20 -65 48 -90 62 -25 14 -54
36 -65 48 -11 12 -31 28 -45 35 -54 28 -513 175 -546 175 -19 0 -51 7 -71 15
-27 11 -77 15 -210 15 -132 0 -182 4 -210 15 -19 8 -55 15 -79 15 -23 0 -46 5
-49 10 -3 6 -28 10 -55 10 -27 0 -52 -4 -55 -10z"/>
</g>
</svg>
