<?xml version="1.0" standalone="no"?>
<!DOCTYPE svg PUBLIC "-//W3C//DTD SVG 20010904//EN"
 "http://www.w3.org/TR/2001/REC-SVG-20010904/DTD/svg10.dtd">
<svg version="1.0" xmlns="http://www.w3.org/2000/svg"
 width="456.000000pt" height="477.000000pt" viewBox="0 0 456.000000 477.000000"
 preserveAspectRatio="xMidYMid meet">
<metadata>
Created by potrace 1.16, written by Peter Selinger 2001-2019
</metadata>
<g transform="translate(0.000000,477.000000) scale(0.100000,-0.100000)"
fill="#000000" stroke="none">
<path d="M2135 4761 c-6 -5 -39 -11 -75 -14 -63 -4 -108 -14 -200 -43 -25 -8
-60 -14 -78 -14 -36 0 -135 -31 -192 -60 -97 -49 -129 -142 -71 -201 19 -18
40 -29 58 -29 60 0 254 -84 383 -166 30 -19 66 -37 80 -41 14 -3 39 -18 55
-33 17 -16 59 -48 95 -72 50 -34 68 -53 77 -82 7 -20 31 -59 54 -86 55 -66 89
-161 101 -285 17 -188 12 -220 -56 -321 -56 -85 -124 -140 -184 -149 -20 -3
-78 -19 -128 -36 l-91 -29 -124 -6 c-155 -7 -159 -7 -299 3 -63 5 -125 14
-137 21 -12 7 -35 12 -50 12 -19 0 -39 10 -58 30 l-29 30 -63 0 -64 0 -24 25
c-32 31 -31 37 5 78 61 70 27 143 -110 236 -127 87 -173 97 -283 61 -74 -25
-107 -57 -107 -106 0 -73 -78 -106 -167 -69 -23 10 -69 15 -135 15 -65 0 -111
5 -135 15 -46 19 -116 19 -153 0 l-30 -16 0 -69 0 -70 23 0 c38 0 126 -35 155
-62 15 -14 46 -35 69 -47 60 -30 73 -53 73 -134 0 -83 -16 -114 -77 -153 -24
-15 -57 -43 -74 -61 l-29 -34 0 -71 0 -71 68 -65 c37 -36 114 -111 172 -167
58 -56 131 -119 163 -139 31 -20 68 -54 81 -75 14 -21 39 -49 56 -62 18 -13
46 -39 63 -57 18 -18 60 -62 94 -97 34 -35 76 -91 92 -123 16 -32 46 -71 65
-86 20 -15 48 -50 62 -79 15 -28 50 -85 78 -127 110 -160 206 -358 206 -424 0
-20 20 -96 45 -169 l45 -133 0 -165 0 -165 -20 -59 c-11 -33 -31 -85 -44 -115
-13 -30 -29 -68 -35 -83 -6 -15 -23 -35 -38 -43 -16 -9 -52 -30 -82 -47 -88
-53 -135 -77 -149 -77 -19 0 -147 -66 -161 -84 l-13 -16 135 0 c80 0 138 4
142 10 3 6 14 10 24 10 10 0 36 13 58 29 23 16 64 41 92 55 33 17 60 40 76 65
13 22 37 54 53 73 32 36 72 109 72 130 0 7 14 42 30 76 l30 64 0 99 c0 65 5
112 15 135 l15 35 -10 82 c-14 115 -24 161 -54 247 -14 41 -26 83 -26 92 0 35
-44 150 -76 201 -18 29 -58 101 -90 162 -31 60 -72 128 -91 150 -18 22 -37 51
-40 65 -3 14 -41 64 -84 113 -44 48 -90 105 -103 126 -14 21 -39 49 -56 62
-18 13 -45 38 -61 54 -29 30 -98 99 -154 155 -16 16 -48 50 -69 75 -22 26 -61
61 -87 78 -75 51 -289 264 -289 288 0 34 30 75 77 105 70 44 73 53 73 190 l0
121 -21 47 c-11 25 -17 51 -14 56 3 6 49 10 101 10 l96 0 65 -30 c35 -17 69
-30 75 -30 5 0 39 -14 75 -30 35 -17 76 -30 91 -30 15 0 52 -12 82 -26 30 -14
93 -38 140 -53 47 -16 101 -37 120 -47 27 -15 67 -21 175 -27 168 -9 162 -9
395 1 106 4 197 13 213 20 16 6 46 12 68 12 41 0 101 25 154 65 17 12 53 34
80 48 67 34 129 106 184 214 l21 42 0 191 0 191 -20 60 c-11 33 -40 84 -63
113 -23 30 -64 84 -92 120 -46 61 -129 134 -242 213 -25 17 -57 42 -72 56 -14
14 -40 28 -57 31 -17 4 -54 26 -82 50 -27 23 -82 58 -121 77 -39 19 -71 37
-71 40 0 7 79 39 195 78 l89 31 288 0 289 0 36 -15 c19 -8 51 -15 71 -15 38 0
305 -86 390 -126 110 -51 192 -132 192 -189 0 -9 13 -29 28 -44 l28 -28 363
-2 363 -2 35 -14 c27 -12 81 -15 229 -15 l194 0 0 53 0 52 -49 18 -49 17 -216
0 c-170 0 -224 3 -253 15 -27 12 -81 15 -242 15 -240 0 -235 -1 -324 96 -56
61 -120 103 -177 117 -14 4 -47 24 -74 47 -32 26 -58 40 -77 40 -16 0 -46 7
-66 15 -19 8 -53 15 -75 15 -21 0 -55 7 -75 15 -19 8 -53 15 -75 15 -21 0 -55
7 -75 15 -22 9 -68 15 -124 15 -48 0 -91 5 -94 10 -8 13 -367 14 -380 1z
m-1212 -1359 l19 -32 -12 -15 c-20 -25 -58 -17 -97 19 l-37 34 13 16 c10 12
26 16 55 14 l40 -3 19 -33z"/>
</g>
</svg>
