<?xml version="1.0" standalone="no"?>
<!DOCTYPE svg PUBLIC "-//W3C//DTD SVG 20010904//EN"
 "http://www.w3.org/TR/2001/REC-SVG-20010904/DTD/svg10.dtd">
<svg version="1.0" xmlns="http://www.w3.org/2000/svg"
 width="837.000000pt" height="237.000000pt" viewBox="0 0 837.000000 237.000000"
 preserveAspectRatio="xMidYMid meet">
<metadata>
Created by potrace 1.16, written by Peter Selinger 2001-2019
</metadata>
<g transform="translate(0.000000,237.000000) scale(0.100000,-0.100000)"
fill="#000000" stroke="none">
<path d="M129 2348 c-6 -13 -25 -37 -42 -55 -31 -33 -66 -119 -67 -165 0 -15
-4 -30 -10 -33 -11 -7 -14 -277 -3 -288 10 -11 43 -109 43 -129 0 -56 101
-280 150 -333 15 -16 30 -42 33 -56 10 -41 50 -93 77 -99 17 -4 36 -24 57 -60
18 -30 57 -78 87 -106 29 -27 63 -69 75 -92 13 -25 39 -53 69 -73 26 -17 62
-51 80 -75 18 -24 40 -44 48 -44 26 0 86 -31 133 -69 69 -55 155 -111 169
-111 20 0 82 -30 126 -62 21 -15 45 -28 53 -28 8 0 44 -14 80 -30 35 -17 76
-30 89 -30 14 0 50 -12 81 -26 76 -34 211 -75 315 -94 26 -5 56 -13 67 -19 33
-18 430 -14 474 4 50 21 244 21 294 0 19 -8 47 -15 61 -15 13 0 64 -18 111
-41 110 -52 191 -79 236 -79 20 0 52 -7 72 -15 l35 -15 265 0 264 0 36 -15
c49 -21 227 -21 276 0 25 10 71 15 147 15 l111 0 137 46 c75 25 160 55 189 67
l52 20 39 -11 c22 -7 59 -29 83 -51 45 -39 99 -71 119 -71 7 0 52 -25 102 -55
l90 -55 118 0 118 0 56 53 56 53 0 62 c0 36 -9 89 -21 127 -22 65 -48 96 -123
148 -14 10 -30 34 -36 55 -5 21 -22 49 -36 63 -45 41 -84 101 -84 128 0 34 22
65 63 87 28 15 197 32 347 35 64 1 227 -18 247 -29 12 -7 54 -12 93 -12 40 0
86 -6 107 -15 19 -8 60 -15 90 -15 29 0 70 -7 90 -15 19 -8 53 -15 75 -15 21
0 55 -7 75 -15 19 -8 47 -15 61 -15 13 0 64 -18 111 -41 47 -22 120 -52 161
-65 91 -30 172 -67 214 -98 17 -13 54 -35 83 -50 28 -14 85 -57 127 -96 l76
-70 270 0 271 0 36 -15 c26 -11 74 -15 179 -15 110 0 153 -4 185 -16 l40 -17
40 12 c30 9 48 9 78 0 l40 -12 40 17 c23 9 53 16 66 16 l25 0 0 53 0 54 -39
12 c-27 8 -47 8 -66 1 -43 -16 -329 -13 -372 5 -22 9 -67 15 -120 15 -52 0
-97 6 -120 15 -22 9 -67 15 -120 15 -52 0 -97 6 -120 15 -22 9 -67 15 -120 15
-91 0 -126 11 -197 62 -21 15 -46 28 -55 28 -8 0 -29 13 -46 29 -16 16 -73 51
-125 77 -52 26 -113 60 -134 76 -21 15 -50 28 -64 28 -14 0 -86 20 -159 45
-73 25 -142 45 -154 45 -11 0 -50 14 -86 30 -47 22 -79 30 -119 30 -30 0 -71
7 -91 15 -23 10 -69 15 -134 15 -54 0 -110 5 -126 12 -15 7 -84 16 -153 20
-117 8 -146 9 -235 9 -19 0 -52 0 -72 1 -52 0 -162 -17 -196 -30 -16 -7 -46
-12 -68 -12 -39 0 -145 -45 -181 -78 l-18 -15 0 -97 0 -97 47 -62 c27 -34 86
-103 132 -153 110 -119 144 -194 105 -232 -32 -32 -78 -16 -214 76 -47 32 -93
58 -103 58 -10 0 -29 11 -42 25 -34 33 -32 80 5 185 40 115 39 158 -6 245 -44
85 -88 133 -175 191 l-65 44 -98 0 -99 0 -58 -62 -59 -63 0 -58 c0 -109 59
-242 163 -366 l29 -34 -6 -31 c-10 -48 -38 -69 -103 -77 -60 -7 -114 -20 -193
-45 -25 -8 -61 -14 -81 -14 -20 0 -53 -7 -72 -15 -49 -20 -215 -20 -264 0 -27
12 -79 15 -225 15 -145 0 -197 3 -225 15 -19 8 -65 15 -102 15 -36 0 -86 6
-111 14 -58 18 -123 35 -180 46 -25 5 -69 20 -97 34 -29 14 -60 26 -68 26 -34
0 -35 35 -4 125 l31 88 -22 67 c-28 86 -61 143 -135 231 -75 89 -130 119 -215
119 -72 0 -108 -16 -168 -74 -84 -79 -99 -145 -61 -258 22 -67 71 -168 101
-211 l20 -28 -12 -14 c-18 -22 -305 -21 -357 0 -23 10 -69 15 -135 15 l-100 0
-65 30 c-35 17 -70 30 -76 30 -7 0 -37 12 -67 26 -30 14 -89 37 -130 50 -88
28 -111 39 -164 76 -21 16 -46 28 -55 28 -9 0 -29 9 -46 21 -16 11 -52 32 -80
46 -27 14 -72 43 -100 65 -27 22 -71 52 -97 68 -33 21 -48 36 -48 51 0 27 -81
109 -108 109 -13 0 -36 21 -66 63 -97 133 -133 180 -185 240 -66 77 -97 138
-146 292 -25 76 -50 132 -68 153 -21 26 -26 39 -20 55 9 25 8 69 -2 144 l-7
52 31 67 c17 36 31 75 31 85 0 10 5 39 12 63 9 34 9 51 0 70 -15 34 -56 35
-73 4z m2296 -1534 c59 -28 153 -172 140 -213 -3 -10 -19 -30 -35 -46 l-30
-28 -39 13 c-58 19 -95 60 -120 133 -45 133 -13 187 84 141z m2129 -33 c20
-17 76 -131 76 -154 0 -7 -6 -22 -14 -32 l-14 -20 -46 24 c-53 26 -68 46 -86
113 l-13 48 17 25 c19 28 44 27 80 -4z"/>
<path d="M4264 1526 l-44 -43 0 -57 0 -58 29 -29 29 -29 87 0 87 0 29 29 29
29 0 52 c0 50 -17 98 -48 133 -12 13 -31 17 -85 17 l-70 0 -43 -44z"/>
</g>
</svg>
