<?xml version="1.0" standalone="no"?>
<!DOCTYPE svg PUBLIC "-//W3C//DTD SVG 20010904//EN"
 "http://www.w3.org/TR/2001/REC-SVG-20010904/DTD/svg10.dtd">
<svg version="1.0" xmlns="http://www.w3.org/2000/svg"
 width="765.000000pt" height="354.000000pt" viewBox="0 0 765.000000 354.000000"
 preserveAspectRatio="xMidYMid meet">
<metadata>
Created by potrace 1.16, written by Peter Selinger 2001-2019
</metadata>
<g transform="translate(0.000000,354.000000) scale(0.100000,-0.100000)"
fill="#000000" stroke="none">
<path d="M4 3527 c-3 -8 -4 -44 -2 -81 l3 -68 65 -34 c35 -18 84 -49 107 -69
23 -19 78 -53 121 -75 44 -22 105 -62 136 -90 30 -28 71 -56 91 -61 21 -6 65
-38 110 -79 41 -39 82 -70 91 -70 9 0 44 -29 77 -65 33 -36 72 -72 88 -80 28
-15 159 -128 214 -185 17 -17 155 -158 308 -312 282 -284 365 -377 425 -471
18 -29 50 -68 71 -87 21 -19 46 -51 56 -70 10 -19 35 -55 55 -80 60 -74 97
-142 109 -200 7 -30 20 -64 30 -75 9 -11 38 -83 64 -161 37 -110 47 -155 47
-206 0 -36 7 -82 15 -101 19 -47 19 -157 0 -204 -8 -19 -15 -45 -15 -57 0 -39
-35 -123 -66 -158 -16 -19 -44 -54 -62 -79 -56 -77 -153 -139 -297 -188 -32
-12 -70 -21 -83 -21 -47 0 -122 -50 -122 -82 l0 -18 118 0 c65 0 122 4 128 8
5 5 61 26 125 47 l116 37 136 137 136 136 20 62 c12 34 21 71 21 81 0 10 13
56 30 102 l30 85 0 128 0 128 -45 132 c-24 73 -47 161 -51 197 -8 79 -33 130
-79 166 -19 14 -35 33 -35 40 0 29 -74 160 -114 204 -23 25 -63 77 -89 117
-26 39 -95 120 -153 180 -58 59 -115 125 -125 146 -11 20 -37 48 -59 62 -22
14 -51 42 -64 63 -25 40 -55 68 -99 95 -15 10 -38 35 -52 57 -14 22 -42 48
-63 59 -22 11 -85 66 -140 121 -93 93 -119 130 -92 130 17 0 84 -34 120 -60
36 -27 87 -50 153 -70 21 -7 66 -34 99 -61 44 -35 70 -49 93 -49 34 0 196 -75
248 -114 18 -14 73 -38 122 -54 50 -16 124 -45 165 -65 81 -38 162 -71 225
-93 22 -8 92 -38 155 -68 116 -54 192 -87 265 -112 22 -8 74 -31 115 -50 41
-20 111 -47 154 -61 43 -15 114 -43 158 -64 43 -22 83 -39 89 -39 6 0 36 -12
67 -27 59 -27 142 -43 247 -48 71 -3 166 -20 194 -34 11 -6 52 -11 91 -11 40
0 86 -6 107 -15 22 -9 67 -15 119 -15 54 0 98 -6 125 -17 l41 -16 47 16 c35
13 82 17 202 17 117 0 166 4 192 15 20 8 55 15 77 15 23 0 50 5 61 11 11 6 41
14 67 19 57 11 122 27 182 46 25 8 70 14 100 14 l55 0 45 30 45 30 101 0 c68
0 114 5 137 15 49 20 215 20 264 0 19 -8 52 -15 71 -15 20 0 77 -13 127 -29
102 -33 161 -49 222 -60 48 -9 55 -13 140 -93 l61 -58 531 0 531 0 0 40 c0 44
-9 52 -90 76 -35 10 -55 11 -75 4 -38 -14 -90 -12 -132 5 -26 11 -74 15 -180
15 -105 0 -153 4 -180 15 -26 11 -74 15 -180 15 l-145 0 -36 17 c-21 10 -75
44 -122 75 l-85 58 -43 0 c-23 0 -59 7 -79 15 -19 8 -53 15 -75 15 -21 0 -55
7 -75 15 -22 9 -67 15 -120 15 -52 0 -97 6 -120 15 -46 20 -170 20 -216 0 -20
-8 -55 -15 -77 -15 -23 0 -51 -5 -63 -12 -12 -7 -62 -15 -112 -19 -84 -6 -131
-15 -215 -42 -19 -6 -53 -14 -75 -18 -60 -12 -121 -28 -220 -60 l-91 -29 -362
0 -363 0 -36 15 c-19 8 -53 15 -75 15 -48 0 -121 32 -142 62 -11 16 -16 46
-16 97 l0 75 -45 67 c-49 73 -97 119 -123 119 -9 0 -30 9 -47 21 -16 11 -51
31 -77 45 l-47 24 -136 0 -135 0 -80 -40 c-44 -22 -87 -52 -97 -66 l-17 -26
12 -41 c6 -23 7 -46 3 -50 -5 -4 -34 3 -66 17 -32 15 -70 26 -84 26 -17 0 -38
11 -56 30 -19 20 -39 30 -58 30 -16 0 -58 14 -94 30 -35 17 -70 30 -77 30 -7
0 -50 18 -97 41 -46 22 -122 53 -169 68 -47 16 -131 51 -187 80 -57 28 -109
51 -116 51 -8 0 -123 54 -256 120 -133 66 -247 120 -254 120 -7 0 -26 14 -42
30 -16 17 -36 30 -44 30 -33 0 -142 61 -308 174 -170 114 -241 156 -264 156
-17 0 -80 31 -114 56 -16 12 -79 48 -140 79 -106 54 -158 84 -275 158 -30 19
-66 37 -80 41 -14 3 -47 23 -74 46 -26 22 -56 40 -66 40 -11 0 -22 5 -25 10
-10 15 -105 13 -111 -3z m3501 -1411 l99 -34 38 -53 c41 -56 47 -88 22 -113
-20 -21 -35 -20 -112 6 -44 15 -80 36 -116 68 -28 26 -66 55 -84 64 -54 28
-74 53 -62 76 l11 20 52 0 c33 0 89 -13 152 -34z"/>
</g>
</svg>
