<?xml version="1.0" standalone="no"?>
<!DOCTYPE svg PUBLIC "-//W3C//DTD SVG 20010904//EN"
 "http://www.w3.org/TR/2001/REC-SVG-20010904/DTD/svg10.dtd">
<svg version="1.0" xmlns="http://www.w3.org/2000/svg"
 width="681.000000pt" height="390.000000pt" viewBox="0 0 681.000000 390.000000"
 preserveAspectRatio="xMidYMid meet">
<metadata>
Created by potrace 1.16, written by Peter Selinger 2001-2019
</metadata>
<g transform="translate(0.000000,390.000000) scale(0.100000,-0.100000)"
fill="#000000" stroke="none">
<path d="M110 3879 c0 -42 193 -199 244 -199 33 0 134 -47 224 -104 29 -19 92
-46 140 -61 48 -15 131 -50 185 -77 53 -26 131 -59 173 -73 41 -14 87 -33 102
-44 34 -24 348 -181 362 -181 6 0 41 -18 78 -40 36 -22 84 -45 107 -51 50 -14
125 -51 178 -90 24 -17 52 -29 71 -29 18 0 95 -30 186 -74 154 -73 228 -105
306 -133 23 -8 62 -32 89 -54 29 -24 58 -39 74 -39 34 0 137 -36 171 -60 41
-29 222 -117 257 -124 17 -4 52 -25 76 -47 25 -21 51 -39 59 -39 7 0 42 -14
76 -30 35 -17 75 -30 88 -30 14 0 41 -7 61 -15 19 -8 47 -15 62 -15 14 0 43
-11 62 -24 46 -32 148 -66 194 -66 20 0 52 -7 72 -15 19 -8 53 -15 75 -15 21
0 55 -7 75 -15 19 -8 53 -15 75 -15 21 0 55 -7 75 -15 25 -10 71 -15 153 -15
82 0 128 5 153 15 20 8 54 15 75 15 22 0 56 7 75 15 20 8 54 15 76 15 30 0 80
20 192 75 l151 75 189 0 c146 0 198 -3 226 -15 19 -8 45 -15 57 -15 24 0 152
-42 195 -64 16 -9 60 -25 98 -38 38 -12 83 -35 103 -53 19 -17 50 -37 68 -44
l33 -14 93 32 c56 19 112 31 143 31 28 0 67 7 86 15 28 11 78 15 207 15 l171
0 79 27 80 27 0 59 0 59 -52 -5 c-53 -5 -103 -16 -188 -43 -29 -9 -90 -14
-171 -14 -90 0 -137 -4 -162 -15 -26 -11 -73 -15 -162 -15 -134 0 -167 8 -227
54 -48 35 -289 111 -403 125 -34 5 -72 14 -85 21 -28 15 -228 8 -274 -10 -15
-5 -56 -10 -92 -10 l-64 0 -223 -75 c-123 -41 -233 -75 -244 -75 -11 0 -37 -7
-56 -15 -50 -21 -244 -21 -294 0 -19 8 -52 15 -72 15 -20 0 -75 13 -121 30
-47 16 -102 30 -123 30 -21 0 -54 7 -74 15 -19 8 -47 15 -62 15 -15 0 -32 5
-39 12 -15 15 -15 95 0 152 l11 43 -13 34 c-33 81 -189 209 -254 209 -14 0
-44 7 -67 17 l-41 16 -47 -16 c-25 -10 -63 -17 -84 -17 -50 0 -93 -23 -143
-76 -22 -24 -48 -44 -56 -44 -8 0 -70 27 -137 60 -67 33 -127 60 -134 60 -7 0
-55 20 -107 44 -109 50 -184 81 -255 106 -27 9 -110 47 -182 84 -73 36 -145
66 -160 66 -16 0 -41 9 -58 21 -42 28 -182 99 -196 99 -15 0 -140 54 -189 81
-99 55 -189 97 -218 104 -17 3 -53 21 -80 39 -26 18 -61 40 -78 49 -44 23
-150 57 -176 57 -13 0 -36 9 -53 21 -61 41 -246 129 -272 129 -16 0 -48 14
-73 30 -25 16 -52 30 -60 30 -9 0 -32 11 -52 25 -21 14 -80 39 -132 56 -52 16
-100 37 -106 45 -8 8 -30 14 -56 14 l-44 0 0 -21z m3218 -1220 c120 -59 147
-159 44 -159 -20 0 -66 14 -100 30 -35 17 -70 30 -78 30 -17 0 -55 59 -52 79
4 18 66 51 99 51 14 0 53 -14 87 -31z"/>
<path d="M0 3123 l0 -39 73 -24 c82 -26 158 -62 202 -95 17 -13 64 -40 105
-60 41 -21 88 -48 105 -60 37 -28 170 -95 188 -95 7 0 50 -25 96 -55 45 -31
109 -69 142 -86 33 -16 76 -45 97 -63 20 -18 53 -41 72 -51 19 -10 49 -28 65
-40 17 -13 50 -33 75 -45 25 -12 65 -39 90 -59 25 -20 65 -49 90 -63 25 -14
55 -40 68 -57 12 -17 40 -40 61 -50 20 -11 75 -56 122 -100 46 -45 90 -81 97
-81 13 0 66 -49 238 -221 182 -182 232 -237 250 -271 9 -18 38 -54 63 -79 35
-33 51 -58 59 -92 9 -33 22 -53 47 -73 19 -14 44 -43 56 -63 12 -20 34 -49 49
-66 15 -16 30 -42 33 -56 6 -25 27 -57 80 -122 17 -21 31 -55 36 -84 4 -26 17
-68 29 -93 42 -91 62 -164 62 -231 0 -36 5 -80 11 -96 8 -24 6 -44 -6 -87 -20
-69 -29 -87 -78 -153 -46 -64 -136 -113 -204 -113 -66 0 -143 -44 -143 -82 l0
-18 115 0 c63 0 123 4 133 9 9 4 54 26 99 47 46 21 96 52 112 68 16 17 57 87
92 156 l62 124 -1 106 -1 105 -25 75 c-14 41 -26 83 -26 92 0 35 -44 150 -76
201 -18 29 -56 97 -84 152 -29 55 -64 114 -80 130 -45 49 -90 117 -90 136 0
11 -21 43 -48 73 -88 100 -132 154 -154 193 -27 46 -318 345 -369 378 -20 13
-81 63 -135 110 -55 47 -124 108 -154 134 -31 27 -79 60 -107 74 -28 15 -64
43 -81 64 -21 28 -43 42 -75 50 -26 7 -70 32 -101 57 -30 25 -86 61 -124 80
-38 19 -106 60 -151 91 -46 31 -104 63 -130 70 -25 8 -62 26 -81 41 -19 14
-98 57 -175 96 -77 38 -161 87 -186 108 -35 29 -74 48 -155 73 -164 52 -193
59 -266 64 l-68 5 0 -39z"/>
</g>
</svg>
