<?xml version="1.0" standalone="no"?>
<!DOCTYPE svg PUBLIC "-//W3C//DTD SVG 20010904//EN"
 "http://www.w3.org/TR/2001/REC-SVG-20010904/DTD/svg10.dtd">
<svg version="1.0" xmlns="http://www.w3.org/2000/svg"
 width="633.000000pt" height="255.000000pt" viewBox="0 0 633.000000 255.000000"
 preserveAspectRatio="xMidYMid meet">
<metadata>
Created by potrace 1.16, written by Peter Selinger 2001-2019
</metadata>
<g transform="translate(0.000000,255.000000) scale(0.100000,-0.100000)"
fill="#000000" stroke="none">
<path d="M3725 2540 c-4 -6 -53 -10 -115 -10 l-108 0 -31 -26 c-34 -28 -121
-153 -121 -173 0 -26 -41 -101 -73 -133 -72 -72 -134 -115 -197 -135 -36 -12
-90 -33 -120 -47 l-55 -26 -116 0 c-81 0 -128 -5 -152 -15 l-36 -15 -276 0
-276 0 -36 15 c-19 8 -60 15 -90 15 -29 0 -70 7 -90 15 -20 8 -66 15 -105 15
-38 0 -84 7 -105 15 -20 8 -66 15 -105 15 -38 0 -84 7 -105 15 -19 8 -60 15
-90 15 -29 0 -70 7 -90 15 -19 8 -52 15 -72 15 -20 0 -56 6 -81 14 -58 18
-124 35 -175 45 -22 4 -56 12 -75 18 -69 22 -126 35 -185 42 -34 5 -70 13 -82
19 -12 7 -34 12 -50 12 -33 0 -139 48 -187 85 -18 14 -56 32 -84 40 l-52 16
-39 -21 c-83 -42 -92 -92 -27 -156 34 -35 51 -44 77 -44 19 0 48 -9 64 -20 17
-12 91 -52 166 -91 99 -50 144 -79 164 -104 14 -19 44 -44 66 -56 22 -11 69
-48 104 -82 35 -34 78 -75 95 -92 52 -50 126 -140 162 -197 19 -29 54 -75 77
-102 24 -27 54 -73 67 -102 l24 -53 0 -233 0 -233 -36 -52 c-20 -29 -42 -53
-49 -53 -7 0 -43 28 -81 63 -38 34 -82 71 -98 81 -16 10 -61 46 -101 81 -71
62 -122 95 -147 95 -7 0 -33 14 -58 30 -25 16 -52 30 -60 30 -9 0 -32 11 -51
24 -96 66 -237 83 -354 44 l-66 -21 -45 -51 -44 -51 0 -122 c0 -70 4 -124 10
-128 6 -3 10 -14 10 -23 0 -22 70 -125 118 -175 20 -21 62 -52 92 -68 30 -17
78 -45 107 -63 28 -18 81 -42 118 -54 l65 -22 189 0 c137 0 198 4 222 14 19 7
59 16 89 20 l55 6 47 -30 c26 -16 59 -47 72 -68 23 -37 51 -64 110 -105 15
-10 37 -40 51 -67 18 -36 40 -59 80 -85 30 -19 55 -42 55 -50 0 -24 76 -20 90
4 16 31 12 56 -15 81 -14 13 -25 32 -25 42 0 10 -32 52 -70 94 -39 42 -81 97
-95 123 -13 26 -31 53 -39 60 -9 8 -33 36 -53 63 l-36 50 12 34 c7 19 39 74
72 122 l59 87 0 43 c0 23 7 59 15 79 21 49 21 257 0 306 -8 20 -15 61 -15 92
0 74 -24 120 -145 284 -22 29 -120 136 -217 237 -98 101 -178 190 -178 199 0
21 117 21 167 0 19 -8 53 -15 75 -15 21 0 55 -7 75 -15 19 -8 45 -15 57 -15
12 0 60 -13 106 -30 62 -21 104 -30 153 -30 37 0 84 -7 104 -15 25 -11 72 -15
164 -15 78 0 139 -5 156 -12 27 -12 272 -28 418 -28 150 0 391 17 424 29 l33
14 53 -13 c40 -10 61 -10 85 -1 18 6 50 11 70 11 21 0 54 7 73 15 20 8 49 15
64 15 38 0 185 101 266 182 82 82 116 128 128 173 13 46 77 111 135 136 l43
20 228 1 228 0 39 -16 c21 -9 63 -16 93 -16 29 0 70 -7 90 -15 19 -8 52 -15
72 -15 20 0 56 -6 81 -14 59 -19 125 -36 176 -45 22 -4 54 -17 70 -28 16 -11
63 -37 104 -58 41 -20 95 -54 120 -75 60 -49 122 -80 162 -80 20 0 51 12 78
30 l45 30 158 0 c118 0 167 -4 194 -15 26 -11 74 -15 182 -15 l146 0 63 -30
64 -30 75 0 75 0 44 28 43 27 1 58 0 57 -145 0 c-107 0 -155 4 -182 15 -27 12
-81 15 -240 15 -158 0 -212 3 -240 15 -27 11 -78 15 -213 15 l-177 0 -114 56
c-63 31 -152 68 -199 84 -47 15 -99 34 -116 43 -52 27 -152 57 -189 57 -20 0
-52 7 -72 15 -25 10 -71 15 -154 15 -68 0 -120 4 -124 10 -4 6 -88 10 -220 10
-132 0 -216 -4 -220 -10z m-3350 -1530 c49 -16 106 -32 126 -35 23 -3 57 -24
100 -60 35 -30 80 -62 99 -71 19 -9 42 -20 50 -24 8 -4 17 -18 20 -31 3 -13
20 -33 38 -44 18 -11 47 -29 65 -40 43 -27 82 -106 67 -135 -8 -15 -21 -20
-54 -20 -24 0 -60 -7 -79 -15 -47 -19 -157 -19 -204 0 -19 8 -51 15 -70 15
-19 0 -67 10 -105 23 l-71 22 -81 80 c-89 88 -116 141 -116 228 0 55 20 96 59
120 36 23 52 21 156 -13z"/>
</g>
</svg>
