<?xml version="1.0" standalone="no"?>
<!DOCTYPE svg PUBLIC "-//W3C//DTD SVG 20010904//EN"
 "http://www.w3.org/TR/2001/REC-SVG-20010904/DTD/svg10.dtd">
<svg version="1.0" xmlns="http://www.w3.org/2000/svg"
 width="432.000000pt" height="441.000000pt" viewBox="0 0 432.000000 441.000000"
 preserveAspectRatio="xMidYMid meet">
<metadata>
Created by potrace 1.16, written by Peter Selinger 2001-2019
</metadata>
<g transform="translate(0.000000,441.000000) scale(0.100000,-0.100000)"
fill="#000000" stroke="none">
<path d="M305 4400 c-3 -5 -14 -10 -24 -10 -16 0 -95 -56 -184 -131 -20 -17
-40 -43 -43 -58 -3 -14 -7 -36 -10 -48 -2 -12 -13 -25 -24 -28 l-20 -6 0 -119
c0 -68 4 -121 10 -125 6 -3 10 -18 10 -33 0 -15 14 -65 30 -112 17 -46 30 -96
30 -110 0 -15 16 -49 35 -76 20 -27 42 -71 50 -98 8 -27 25 -63 38 -80 13 -17
32 -47 42 -66 9 -19 30 -48 45 -65 16 -16 39 -48 52 -70 28 -49 87 -127 148
-198 25 -29 55 -66 67 -83 12 -17 40 -43 62 -58 22 -16 57 -48 77 -73 l37 -45
-15 -15 -15 -14 -38 15 c-21 9 -55 16 -77 16 -21 0 -55 7 -75 15 -19 8 -52 15
-72 15 -20 0 -56 6 -81 14 -152 48 -231 56 -307 30 l-53 -18 0 -49 0 -49 90
-85 c50 -47 107 -96 128 -110 20 -14 62 -48 92 -77 30 -29 69 -61 85 -71 17
-10 57 -44 90 -75 33 -31 78 -67 100 -79 22 -13 59 -44 81 -70 23 -26 62 -59
86 -75 25 -15 58 -49 75 -75 17 -26 51 -60 75 -75 45 -28 78 -71 78 -100 0 -8
25 -34 55 -57 36 -27 76 -73 120 -137 36 -54 79 -115 95 -136 17 -21 30 -45
30 -53 0 -22 40 -95 76 -137 19 -22 43 -69 57 -115 14 -42 37 -101 51 -131 14
-30 26 -67 26 -82 0 -14 13 -55 30 -90 18 -38 30 -79 30 -104 0 -23 7 -58 15
-77 25 -61 20 -180 -13 -274 -16 -44 -37 -91 -48 -105 -47 -60 -132 -148 -143
-148 -27 0 -110 -51 -141 -87 l-34 -38 101 -3 101 -3 58 41 c31 22 65 40 74
40 22 0 46 28 54 62 3 14 28 50 55 80 61 67 91 126 91 177 0 23 7 58 16 80 18
46 15 258 -5 331 -37 129 -54 175 -76 208 -14 20 -25 47 -25 60 0 25 -34 131
-56 174 -8 15 -39 65 -69 110 -30 45 -55 90 -55 100 0 10 -31 52 -70 93 -46
51 -73 89 -80 115 -7 25 -23 50 -45 67 -19 16 -54 54 -77 86 -24 33 -63 74
-89 93 -25 18 -59 52 -74 74 -15 22 -49 56 -74 75 -25 18 -64 52 -85 74 -22
22 -58 52 -81 66 -23 15 -56 49 -74 76 -19 30 -47 57 -72 70 -23 11 -62 41
-88 67 -26 26 -68 59 -93 73 -35 21 -46 33 -50 58 -2 17 0 35 6 41 15 15 61
12 103 -5 19 -8 53 -15 75 -15 21 0 55 -7 75 -15 19 -8 52 -15 72 -15 20 0 75
-13 121 -30 47 -16 94 -30 104 -30 11 0 48 -10 83 -22 47 -15 71 -30 90 -55
15 -20 55 -49 93 -68 36 -18 106 -60 155 -94 49 -34 97 -61 105 -61 23 0 191
-84 240 -119 24 -17 54 -31 68 -31 14 0 86 -20 159 -45 73 -25 148 -45 168
-45 20 0 52 -7 72 -15 52 -22 252 -20 318 3 28 10 56 21 63 25 20 13 52 84 52
117 0 33 -28 96 -65 145 -12 17 -32 49 -43 71 -14 27 -45 59 -89 92 -37 28
-78 64 -91 81 -13 19 -37 34 -61 41 -23 6 -62 31 -93 59 -52 47 -124 91 -150
91 -8 0 -54 27 -103 60 -50 33 -96 60 -103 60 -8 0 -43 13 -79 30 -35 16 -70
30 -76 30 -7 0 -32 14 -57 30 -25 16 -58 30 -73 30 -15 0 -44 7 -64 15 -23 10
-68 15 -127 15 l-92 0 -37 -38 c-20 -21 -37 -47 -37 -58 0 -11 14 -42 32 -70
36 -57 50 -108 35 -123 -17 -17 -118 -13 -172 7 l-50 18 -168 169 c-93 93
-177 185 -187 206 -11 21 -39 50 -62 66 -30 20 -47 40 -55 67 -7 20 -30 58
-52 84 -21 26 -64 97 -95 157 -31 61 -65 126 -75 145 -44 79 -81 179 -81 217
0 22 -7 57 -15 76 -10 24 -15 69 -15 130 0 115 21 180 76 236 l39 41 290 0
c223 0 300 -3 335 -14 78 -24 133 -37 195 -45 33 -5 83 -20 112 -35 31 -15 69
-26 93 -26 22 0 57 -7 77 -15 19 -8 47 -15 60 -15 14 0 54 -13 90 -30 35 -16
76 -30 91 -30 15 0 47 -14 72 -30 25 -16 56 -30 70 -30 58 0 217 -66 293 -121
22 -16 46 -29 54 -29 27 0 123 -50 160 -83 21 -19 52 -42 69 -50 49 -25 164
-105 214 -149 25 -21 70 -58 100 -81 30 -24 74 -67 97 -97 24 -30 65 -82 93
-115 28 -33 59 -74 69 -91 11 -17 40 -49 65 -70 25 -21 46 -46 46 -56 0 -9 25
-46 56 -80 31 -35 69 -88 85 -118 15 -30 37 -68 48 -85 12 -16 21 -37 21 -46
0 -9 14 -35 31 -59 47 -65 59 -102 59 -185 l0 -77 30 -30 30 -30 113 6 c135 7
108 7 397 -3 129 -4 245 -11 258 -16 13 -4 41 -2 67 5 l45 13 0 53 0 53 -22
13 c-17 10 -110 14 -353 18 l-330 5 -32 23 c-25 17 -33 31 -33 53 0 37 -89
216 -124 248 -14 14 -26 31 -26 38 0 22 -36 86 -60 108 -12 11 -34 40 -48 65
-14 25 -44 65 -67 90 -22 25 -66 83 -97 130 -94 141 -347 378 -549 513 -48 32
-95 67 -104 77 -10 11 -35 25 -55 30 -20 5 -54 25 -76 43 -40 35 -173 107
-196 107 -7 0 -56 20 -108 44 -122 56 -185 82 -290 118 -47 16 -104 37 -126
48 -71 32 -162 60 -199 60 -20 0 -52 7 -72 15 -19 8 -53 15 -75 15 -21 0 -55
7 -75 15 -19 8 -45 15 -57 15 -12 0 -60 13 -106 30 -64 22 -103 30 -157 30
-39 0 -75 5 -78 10 -4 6 -98 10 -250 10 -152 0 -246 -4 -250 -10z m1220 -1675
c29 -9 101 -40 161 -69 60 -29 120 -56 134 -59 14 -3 43 -22 65 -40 43 -37
104 -70 146 -80 14 -4 61 -37 105 -75 43 -38 90 -71 104 -75 32 -8 63 -37 95
-87 13 -21 37 -47 53 -59 40 -28 66 -84 52 -111 l-11 -20 -115 0 c-79 0 -126
5 -151 15 -19 8 -45 15 -57 15 -27 0 -152 43 -205 69 -22 12 -53 21 -68 21
-31 0 -196 76 -246 114 -18 13 -55 36 -83 50 -28 14 -63 40 -79 56 -16 17 -35
30 -42 30 -7 0 -13 5 -13 10 0 6 4 10 9 10 6 0 13 -4 16 -10 10 -16 103 -12
138 6 91 47 90 75 -8 172 -74 73 -81 85 -69 116 7 19 4 19 69 1z"/>
</g>
</svg>
