<?xml version="1.0" standalone="no"?>
<!DOCTYPE svg PUBLIC "-//W3C//DTD SVG 20010904//EN"
 "http://www.w3.org/TR/2001/REC-SVG-20010904/DTD/svg10.dtd">
<svg version="1.0" xmlns="http://www.w3.org/2000/svg"
 width="465.000000pt" height="510.000000pt" viewBox="0 0 465.000000 510.000000"
 preserveAspectRatio="xMidYMid meet">
<metadata>
Created by potrace 1.16, written by Peter Selinger 2001-2019
</metadata>
<g transform="translate(0.000000,510.000000) scale(0.100000,-0.100000)"
fill="#000000" stroke="none">
<path d="M155 5090 c-3 -5 -16 -10 -27 -10 -27 0 -108 -81 -108 -108 0 -11 -5
-24 -10 -27 -14 -8 -13 -342 0 -350 6 -4 40 -66 76 -138 50 -99 81 -147 123
-192 32 -33 69 -78 83 -100 31 -48 238 -251 290 -286 21 -13 44 -37 52 -54 42
-91 61 -139 87 -218 35 -107 51 -139 99 -197 21 -25 48 -65 60 -88 53 -107
308 -378 428 -457 41 -26 82 -56 92 -67 24 -26 90 -225 90 -272 0 -45 21 -88
67 -140 43 -48 83 -131 83 -174 l0 -32 70 -76 c39 -42 82 -99 96 -127 29 -57
75 -125 126 -189 20 -24 45 -62 57 -85 11 -23 38 -54 60 -70 21 -15 49 -43 62
-63 21 -31 46 -60 170 -196 19 -21 53 -55 75 -75 21 -19 55 -53 75 -75 47 -51
174 -163 220 -193 19 -13 51 -47 70 -75 27 -40 44 -54 78 -65 28 -9 67 -36
110 -76 36 -34 86 -73 111 -85 46 -23 101 -62 155 -110 17 -15 49 -32 73 -39
23 -6 67 -32 97 -56 29 -24 100 -67 157 -96 56 -28 116 -62 133 -74 41 -31
163 -91 203 -100 17 -3 54 -22 81 -40 32 -22 106 -53 208 -86 87 -28 186 -64
220 -80 35 -16 69 -29 77 -29 8 0 18 -5 21 -10 3 -6 50 -10 106 -10 l99 0 0
23 -1 22 -92 43 c-51 23 -102 42 -115 42 -12 0 -39 7 -59 15 -19 8 -48 15 -63
15 -15 0 -47 13 -71 30 -24 16 -51 30 -59 30 -8 0 -57 20 -108 45 -52 25 -99
45 -105 45 -7 0 -25 9 -42 21 -43 29 -235 125 -265 132 -14 4 -43 22 -65 40
-22 19 -81 55 -131 80 -51 25 -113 64 -139 87 -26 22 -75 59 -108 82 -34 22
-75 51 -92 64 -64 52 -141 110 -170 128 -16 11 -50 38 -75 61 -25 22 -58 49
-75 60 -29 18 -146 120 -198 172 -128 130 -327 344 -327 353 0 6 -28 41 -63
78 -34 37 -88 105 -120 152 -32 47 -71 103 -87 124 -17 21 -30 45 -30 53 0 22
-40 95 -76 137 -20 23 -43 69 -58 117 -14 43 -41 101 -60 129 -19 27 -37 65
-41 82 -4 18 -18 50 -31 70 -30 47 -64 143 -64 183 0 16 7 51 17 77 l16 46
-13 31 c-7 18 -21 43 -32 56 l-19 25 -77 0 c-87 1 -123 14 -199 73 -26 20 -71
55 -99 77 -29 21 -65 57 -80 80 -16 23 -41 57 -56 74 -15 18 -61 84 -102 147
-119 178 -99 231 48 127 21 -16 46 -28 55 -28 9 0 33 -12 54 -26 54 -36 119
-55 227 -66 130 -13 156 -13 219 -1 l55 11 38 40 38 41 0 61 c0 66 -29 167
-62 212 -11 16 -24 44 -29 63 -6 19 -21 43 -36 52 -79 55 -140 130 -120 150
11 10 141 -43 176 -73 39 -34 215 -126 261 -137 14 -4 44 -22 67 -41 28 -24
71 -45 134 -66 52 -17 112 -43 134 -59 60 -43 181 -101 211 -101 14 0 55 -13
91 -30 35 -16 70 -30 76 -30 7 0 41 -14 75 -30 35 -17 75 -30 88 -30 14 0 41
-7 61 -15 19 -8 53 -15 75 -15 21 0 55 -7 75 -15 19 -8 53 -15 74 -15 21 0 56
-7 77 -15 l39 -16 169 4 c96 2 189 9 214 16 195 56 227 71 286 133 86 89 107
177 55 229 -23 23 -38 29 -71 29 -57 0 -85 -30 -93 -99 -7 -55 -20 -81 -42
-81 -7 0 -55 -20 -107 -45 l-93 -45 -158 0 c-118 0 -167 4 -194 15 -19 8 -52
15 -72 15 -20 0 -56 6 -81 14 -56 18 -123 35 -175 45 -67 13 -145 43 -250 94
-55 27 -136 60 -180 75 -44 14 -141 56 -215 92 -74 37 -146 70 -160 73 -14 4
-47 24 -74 47 -26 22 -55 40 -64 40 -8 0 -36 13 -61 29 -25 16 -61 32 -79 36
-17 4 -54 22 -80 40 -27 18 -80 49 -119 68 -38 20 -106 60 -149 90 -44 30
-100 64 -124 77 -25 12 -65 39 -90 60 -25 20 -64 47 -86 58 -64 32 -175 110
-220 153 -22 22 -57 44 -77 50 -22 6 -66 37 -111 77 -70 63 -116 99 -210 166
-23 16 -81 66 -129 112 l-88 84 -64 0 c-35 0 -67 -4 -70 -10z m120 -190 c11
-17 146 -123 230 -178 44 -30 90 -63 102 -74 12 -12 43 -33 69 -48 25 -14 58
-44 73 -66 18 -25 46 -49 84 -68 32 -16 56 -31 53 -33 -3 -3 -33 8 -68 25 -35
17 -88 38 -119 47 -31 8 -93 33 -137 55 -50 25 -95 40 -118 40 l-37 0 -41 -43
c-22 -23 -46 -51 -52 -62 l-11 -20 -23 20 c-28 25 -65 97 -95 188 l-25 72 22
63 c25 74 72 116 93 82z m361 -535 c31 -14 61 -25 66 -25 25 0 149 -66 197
-106 29 -24 61 -44 70 -44 9 0 30 -9 46 -21 17 -11 53 -32 80 -46 28 -14 70
-42 95 -62 25 -20 58 -45 73 -54 15 -10 53 -40 83 -68 30 -27 58 -49 62 -49
17 0 72 -64 78 -89 4 -14 18 -38 32 -53 27 -29 62 -117 62 -156 0 -30 -42 -72
-73 -72 -12 0 -61 13 -107 30 -47 16 -96 30 -108 30 -36 0 -152 57 -202 99
-25 21 -69 51 -99 66 -85 45 -97 80 -42 129 25 23 28 81 5 114 -16 23 -103 72
-128 72 -21 0 -216 197 -216 218 0 9 -9 32 -20 50 -19 30 -26 62 -15 62 2 0
30 -11 61 -25z"/>
</g>
</svg>
