<?xml version="1.0" standalone="no"?>
<!DOCTYPE svg PUBLIC "-//W3C//DTD SVG 20010904//EN"
 "http://www.w3.org/TR/2001/REC-SVG-20010904/DTD/svg10.dtd">
<svg version="1.0" xmlns="http://www.w3.org/2000/svg"
 width="783.000000pt" height="303.000000pt" viewBox="0 0 783.000000 303.000000"
 preserveAspectRatio="xMidYMid meet">
<metadata>
Created by potrace 1.16, written by Peter Selinger 2001-2019
</metadata>
<g transform="translate(0.000000,303.000000) scale(0.100000,-0.100000)"
fill="#000000" stroke="none">
<path d="M2840 2984 c0 -58 11 -78 62 -110 23 -15 72 -55 109 -90 38 -35 72
-64 77 -64 5 0 46 -34 91 -75 44 -41 88 -75 97 -75 9 0 45 -32 81 -70 37 -40
77 -73 91 -76 15 -4 41 -18 57 -33 48 -43 127 -105 160 -125 16 -11 50 -38 75
-61 25 -24 68 -54 95 -69 62 -32 73 -41 110 -89 15 -21 45 -47 65 -57 57 -29
170 -108 215 -150 22 -20 69 -56 105 -79 127 -82 205 -148 243 -204 10 -16 34
-31 57 -37 25 -7 48 -22 62 -41 27 -36 124 -109 146 -109 8 0 34 -19 57 -42
23 -24 69 -62 101 -86 32 -23 90 -66 127 -95 38 -29 93 -70 122 -92 29 -22 81
-61 115 -88 34 -26 70 -47 81 -47 10 0 20 -4 24 -10 13 -20 156 -130 202 -154
59 -31 70 -40 111 -92 22 -29 42 -44 66 -48 18 -4 53 -24 77 -45 24 -21 63
-48 87 -60 23 -12 72 -50 110 -84 37 -35 92 -79 122 -98 104 -67 127 -84 187
-132 33 -27 75 -68 93 -93 34 -48 93 -84 136 -84 14 0 48 8 75 17 l49 18 49
-18 49 -17 204 0 c125 0 208 -4 214 -10 7 -7 104 -9 270 -8 l259 3 3 30 3 30
-49 18 c-28 9 -73 17 -101 17 -28 0 -68 7 -88 15 -24 10 -71 15 -150 15 -78 0
-125 5 -150 15 -19 8 -53 15 -75 15 -21 0 -55 7 -75 15 -27 12 -79 15 -225 15
l-189 0 -45 20 c-24 11 -75 49 -112 84 -37 35 -81 71 -99 79 -17 9 -52 35 -78
57 -25 22 -50 40 -54 40 -16 0 -358 233 -396 270 -22 22 -58 45 -80 52 -28 9
-48 25 -68 56 -16 24 -46 51 -70 63 -59 30 -199 124 -249 169 -24 20 -55 40
-70 44 -15 3 -39 22 -54 42 -15 19 -53 48 -85 64 -31 16 -78 48 -104 70 -27
23 -78 62 -116 86 -37 24 -97 74 -133 110 -41 41 -80 69 -101 75 -21 6 -45 24
-61 45 -15 19 -57 50 -96 71 -39 20 -80 50 -92 66 -11 16 -64 58 -118 93 -53
36 -116 82 -140 103 -23 21 -62 48 -85 59 -23 12 -54 38 -69 57 -15 20 -57 51
-96 72 -39 20 -80 50 -92 66 -11 16 -59 54 -105 85 -46 30 -98 67 -115 82 -17
14 -64 48 -103 74 -42 27 -84 65 -100 89 -21 30 -41 46 -73 57 -33 11 -52 27
-73 58 -18 26 -47 52 -76 67 -54 27 -173 106 -211 139 -14 13 -63 48 -110 79
-47 31 -91 65 -98 77 -7 11 -23 20 -37 20 l-25 0 0 -46z"/>
<path d="M145 2926 c-23 -8 -64 -25 -93 -40 l-52 -26 0 -54 0 -54 33 -24 c37
-29 111 -68 127 -68 6 0 36 -11 66 -25 105 -48 170 -65 251 -65 43 0 98 -6
123 -14 87 -28 136 -38 210 -45 41 -4 85 -13 97 -19 12 -7 63 -12 120 -12 73
0 114 -5 158 -21 83 -28 118 -45 137 -66 21 -24 108 -202 108 -222 0 -9 14
-36 30 -61 16 -25 30 -55 30 -68 0 -32 -22 -81 -59 -132 -35 -49 -39 -80 -13
-103 31 -28 86 -22 127 15 48 42 115 175 115 228 0 45 -25 125 -64 210 -14 30
-26 67 -26 81 0 14 -5 41 -11 59 l-12 32 14 9 c8 5 34 7 59 4 25 -3 99 -10
166 -17 l121 -11 42 16 41 17 261 0 260 0 36 -15 c19 -8 53 -15 74 -15 51 0
81 -13 126 -53 21 -19 57 -44 79 -55 23 -12 66 -43 95 -70 30 -26 92 -73 139
-105 47 -31 107 -79 135 -107 31 -31 64 -54 87 -60 38 -11 71 -40 111 -100 15
-23 36 -39 62 -48 22 -7 54 -28 70 -46 17 -19 59 -57 94 -85 49 -39 72 -51 98
-51 41 0 69 13 83 40 l11 20 -53 56 c-29 31 -76 72 -105 90 -28 19 -70 59 -92
89 -24 31 -50 55 -60 55 -23 0 -123 72 -144 103 -9 13 -41 38 -71 56 -31 17
-63 42 -72 57 -10 14 -55 51 -102 81 -47 31 -99 68 -116 83 -17 15 -55 39 -84
54 -31 16 -97 69 -157 127 l-104 99 -50 0 c-34 0 -70 -9 -114 -30 l-65 -30
-517 0 -517 0 -66 31 c-37 17 -91 51 -121 75 -38 31 -62 44 -85 44 -17 0 -81
25 -146 56 -167 81 -213 94 -324 94 -52 0 -107 5 -123 12 -63 26 -321 43 -378
24z m475 -160 c91 -34 109 -39 165 -45 65 -7 129 -35 122 -54 -6 -19 -52 -20
-86 -3 -16 9 -52 16 -78 16 -26 1 -59 7 -73 15 -14 8 -47 15 -75 15 -27 0 -61
7 -75 15 -14 8 -45 15 -70 15 -26 1 -63 10 -87 23 l-42 22 132 -3 c78 -2 146
-8 167 -16z"/>
</g>
</svg>
