<?xml version="1.0" standalone="no"?>
<!DOCTYPE svg PUBLIC "-//W3C//DTD SVG 20010904//EN"
 "http://www.w3.org/TR/2001/REC-SVG-20010904/DTD/svg10.dtd">
<svg version="1.0" xmlns="http://www.w3.org/2000/svg"
 width="723.000000pt" height="195.000000pt" viewBox="0 0 723.000000 195.000000"
 preserveAspectRatio="xMidYMid meet">
<metadata>
Created by potrace 1.16, written by Peter Selinger 2001-2019
</metadata>
<g transform="translate(0.000000,195.000000) scale(0.100000,-0.100000)"
fill="#000000" stroke="none">
<path d="M2225 1940 c-3 -5 -32 -10 -64 -10 -32 0 -75 -7 -94 -15 -20 -8 -50
-15 -68 -15 -25 0 -45 -13 -100 -67 -84 -81 -88 -103 -29 -157 l40 -36 49 0
c27 0 65 7 84 15 62 26 135 20 187 -15 25 -16 52 -30 61 -30 23 0 34 -17 49
-73 l13 -48 -29 -31 c-16 -17 -61 -46 -100 -64 l-72 -34 -96 0 c-63 0 -109 5
-133 15 -19 8 -65 15 -102 15 -49 0 -90 8 -151 30 -53 18 -105 30 -138 30 -29
0 -69 7 -89 15 -19 8 -45 15 -57 15 -27 0 -152 43 -205 69 -22 12 -52 21 -66
21 -14 0 -42 7 -62 15 -19 8 -47 15 -62 15 -14 0 -55 14 -89 30 -35 17 -76 30
-91 30 -14 0 -43 11 -63 25 -20 13 -97 44 -170 69 -74 24 -148 51 -164 59 -54
28 -244 87 -280 87 -20 0 -58 -8 -85 -17 l-49 -18 0 -81 0 -82 46 -37 c63 -52
132 -98 184 -125 25 -12 63 -37 85 -55 46 -37 65 -90 65 -180 l0 -55 51 -57
c93 -106 114 -128 183 -183 38 -30 90 -76 116 -102 25 -27 53 -48 61 -48 8 0
53 -18 99 -40 90 -44 125 -47 147 -14 l13 21 -21 27 c-12 15 -40 39 -62 53
-22 14 -62 45 -88 70 -26 24 -58 47 -72 51 -32 9 -185 176 -208 227 -23 49
-24 133 -4 182 8 19 15 44 15 54 0 21 -73 79 -100 79 -23 0 -146 45 -176 65
-37 24 -29 35 28 35 36 0 70 -9 112 -29 74 -34 156 -61 187 -61 13 0 53 -14
87 -30 35 -17 69 -30 75 -30 7 0 32 -14 57 -30 32 -22 57 -30 88 -30 23 0 59
-7 79 -15 19 -8 47 -15 62 -15 14 0 55 -14 89 -30 35 -17 76 -30 90 -30 15 0
56 -14 90 -30 37 -18 80 -30 103 -30 22 0 56 -7 76 -15 22 -9 67 -15 120 -15
52 0 97 -6 120 -15 51 -22 405 -22 456 0 20 8 49 15 64 15 41 0 128 65 174
128 l39 55 0 49 c0 121 -120 231 -293 268 -21 4 -41 11 -45 14 -18 19 40 26
216 26 149 0 201 -3 229 -15 19 -8 53 -15 75 -15 21 0 55 -7 75 -15 19 -8 53
-15 75 -15 21 0 55 -7 75 -15 19 -8 54 -15 77 -15 28 0 71 -15 134 -45 52 -25
99 -45 105 -45 10 0 114 -44 183 -77 18 -8 40 -29 49 -47 l17 -32 -16 -38
c-28 -68 -22 -99 35 -163 130 -148 208 -217 295 -261 143 -72 259 -90 333 -53
45 23 58 38 63 71 6 46 56 36 152 -32 21 -16 46 -28 55 -28 9 0 57 -27 106
-60 50 -33 97 -60 105 -60 9 0 53 -25 98 -55 88 -58 154 -95 172 -95 18 0 174
-97 200 -125 13 -14 30 -25 38 -25 19 0 81 -29 117 -56 36 -26 170 -94 186
-94 17 0 80 -31 114 -56 36 -27 229 -124 247 -124 6 0 67 -27 135 -60 69 -33
135 -60 149 -60 14 0 41 -7 61 -15 19 -8 45 -15 57 -15 12 0 60 -13 106 -30
47 -16 104 -30 127 -30 23 0 45 -4 48 -10 8 -14 402 -14 410 0 3 6 12 10 20
10 7 0 43 13 78 30 36 16 71 30 79 30 7 0 37 16 66 37 72 49 92 92 92 200 l0
82 -19 11 c-11 5 -30 10 -43 10 -27 0 -87 -34 -92 -53 -18 -62 -42 -109 -69
-137 -57 -58 -200 -114 -287 -112 -68 2 -198 20 -217 30 -12 7 -32 12 -44 12
-13 0 -83 20 -156 45 -73 25 -140 45 -150 45 -30 0 -133 39 -172 66 -19 13
-42 24 -51 24 -8 0 -35 14 -60 30 -25 16 -51 30 -58 30 -8 0 -41 13 -75 28
-34 16 -73 32 -87 35 -14 4 -47 24 -74 47 -26 22 -55 40 -64 40 -19 0 -200 90
-272 136 -30 19 -71 39 -91 44 -19 5 -53 25 -75 43 -40 36 -173 107 -197 107
-8 0 -33 15 -57 33 -98 73 -166 117 -181 117 -18 0 -124 75 -148 103 -7 9 -20
17 -28 17 -20 0 -82 29 -118 56 -37 28 -230 124 -248 124 -7 0 -24 12 -38 26
-13 14 -54 41 -90 59 -71 37 -185 111 -237 156 -18 16 -40 29 -48 29 -15 0
-104 49 -205 114 -30 20 -68 36 -83 36 -15 0 -57 14 -93 30 -35 17 -69 30 -75
30 -5 0 -39 14 -75 30 -35 17 -75 30 -89 30 -14 0 -41 7 -61 15 -19 8 -60 15
-90 15 -29 0 -70 7 -90 15 -20 9 -66 15 -109 15 -40 0 -76 5 -79 10 -4 6 -83
10 -205 10 -122 0 -201 -4 -205 -10z m1600 -651 c74 -26 102 -46 161 -115 l47
-55 -15 -16 -16 -15 -38 18 c-22 10 -57 31 -78 46 -21 15 -46 28 -55 28 -27 0
-57 27 -81 71 -17 34 -19 44 -8 50 18 12 16 12 83 -12z"/>
</g>
</svg>
