<?xml version="1.0" standalone="no"?>
<!DOCTYPE svg PUBLIC "-//W3C//DTD SVG 20010904//EN"
 "http://www.w3.org/TR/2001/REC-SVG-20010904/DTD/svg10.dtd">
<svg version="1.0" xmlns="http://www.w3.org/2000/svg"
 width="567.000000pt" height="507.000000pt" viewBox="0 0 567.000000 507.000000"
 preserveAspectRatio="xMidYMid meet">
<metadata>
Created by potrace 1.16, written by Peter Selinger 2001-2019
</metadata>
<g transform="translate(0.000000,507.000000) scale(0.100000,-0.100000)"
fill="#000000" stroke="none">
<path d="M2284 1736 l-44 -43 0 -69 0 -69 38 -56 c49 -72 126 -163 176 -209
114 -102 212 -199 237 -234 l29 -39 0 -58 c0 -82 -44 -160 -134 -239 -38 -33
-75 -60 -82 -60 -7 0 -38 38 -68 84 -30 46 -69 95 -86 110 l-32 26 -124 0
-125 0 -49 -25 c-37 -19 -59 -41 -94 -93 l-46 -68 0 -50 c0 -36 7 -59 25 -86
31 -45 31 -62 3 -82 -30 -21 -175 -22 -225 -1 -19 8 -65 15 -101 15 -50 0 -97
10 -201 44 -144 47 -199 62 -271 76 -25 5 -96 34 -158 64 -62 31 -125 56 -140
56 -32 0 -192 75 -252 119 -24 17 -50 31 -58 31 -20 0 -103 52 -165 103 -26
21 -63 43 -82 48 -19 6 -65 38 -105 75 l-71 64 -22 -11 c-72 -37 -75 -74 -11
-123 25 -20 73 -65 106 -100 37 -41 71 -69 91 -74 38 -11 124 -65 185 -116 29
-23 54 -36 73 -36 29 0 99 -37 220 -114 30 -20 68 -36 83 -36 15 0 57 -13 93
-30 35 -16 70 -30 76 -30 7 0 41 -14 75 -30 35 -17 75 -30 88 -30 14 0 41 -7
61 -15 19 -8 53 -15 75 -15 21 0 55 -7 75 -15 19 -8 45 -15 57 -15 12 0 60
-13 106 -30 l85 -30 236 0 c188 0 244 3 272 15 20 8 61 15 91 15 40 0 72 8
119 30 36 17 70 30 76 30 17 0 151 69 186 95 17 12 49 32 71 43 23 12 58 43
77 70 46 62 212 222 231 222 8 0 24 -13 36 -30 11 -16 73 -64 136 -106 63 -42
133 -92 156 -110 22 -19 48 -34 57 -34 10 0 37 -15 61 -32 95 -72 166 -118
180 -118 8 0 29 -9 45 -21 57 -38 166 -90 247 -116 45 -14 116 -43 160 -64 43
-22 83 -39 89 -39 6 0 40 -13 76 -30 47 -22 79 -30 120 -30 40 0 72 -8 120
-30 37 -17 81 -30 104 -30 22 0 56 -7 76 -15 19 -8 55 -15 79 -15 23 0 46 -4
49 -10 7 -11 427 -14 438 -3 12 12 111 43 137 43 14 0 51 17 82 38 32 20 72
46 89 57 32 20 58 79 59 132 0 32 -45 63 -94 63 l-40 0 -56 -58 c-84 -89 -135
-122 -185 -122 -24 0 -59 -7 -78 -15 -46 -19 -98 -19 -144 0 -25 11 -72 15
-161 15 l-125 0 -179 60 c-98 33 -186 60 -196 60 -31 0 -133 39 -250 95 -62
30 -124 55 -138 55 -31 0 -142 50 -187 84 -18 13 -54 36 -82 50 -52 28 -120
69 -215 129 -30 19 -71 43 -90 52 -19 10 -55 34 -80 54 -24 20 -61 47 -82 61
-20 14 -67 54 -105 90 l-68 65 -22 72 c-13 39 -23 85 -23 102 0 41 -36 147
-62 183 -11 16 -24 43 -29 61 -15 55 -243 264 -354 324 -30 17 -57 22 -109 23
l-69 0 -43 -44z m237 -183 c8 -10 21 -30 28 -44 7 -15 25 -33 40 -40 43 -22
61 -40 81 -87 26 -59 25 -65 -7 -57 -31 7 -103 72 -103 91 0 7 -23 38 -51 68
-52 57 -59 86 -21 86 10 0 25 -8 33 -17z m-291 -862 c27 -51 2 -111 -45 -111
-30 0 -95 55 -95 80 0 46 118 72 140 31z"/>
</g>
</svg>
