<?xml version="1.0" standalone="no"?>
<!DOCTYPE svg PUBLIC "-//W3C//DTD SVG 20010904//EN"
 "http://www.w3.org/TR/2001/REC-SVG-20010904/DTD/svg10.dtd">
<svg version="1.0" xmlns="http://www.w3.org/2000/svg"
 width="408.000000pt" height="342.000000pt" viewBox="0 0 408.000000 342.000000"
 preserveAspectRatio="xMidYMid meet">
<metadata>
Created by potrace 1.16, written by Peter Selinger 2001-2019
</metadata>
<g transform="translate(0.000000,342.000000) scale(0.100000,-0.100000)"
fill="#000000" stroke="none">
<path d="M983 3384 c-13 -20 -23 -44 -23 -55 0 -37 31 -80 78 -109 26 -16 58
-43 70 -59 12 -17 40 -40 61 -50 64 -33 240 -217 273 -286 15 -33 28 -65 28
-72 0 -22 -20 -24 -48 -6 -37 25 -158 83 -174 83 -8 0 -54 27 -103 60 -50 33
-96 60 -104 60 -18 0 -144 63 -211 106 -30 19 -71 39 -90 44 -42 11 -134 57
-207 104 -29 18 -85 44 -125 56 -105 33 -147 54 -202 99 -55 47 -82 50 -157
24 l-49 -18 0 -67 c0 -41 4 -68 10 -68 6 0 22 -11 35 -24 13 -13 55 -45 95
-71 40 -26 82 -64 95 -85 13 -20 38 -48 55 -61 41 -30 88 -78 118 -118 13 -17
47 -46 75 -65 63 -42 358 -338 380 -383 9 -17 36 -44 59 -60 25 -16 54 -48 68
-74 14 -25 40 -63 57 -83 18 -20 40 -51 49 -69 9 -17 39 -56 66 -86 27 -30 61
-77 75 -105 14 -28 35 -64 48 -81 12 -16 31 -48 43 -70 11 -22 32 -51 46 -64
14 -14 26 -31 26 -38 0 -8 9 -31 20 -53 11 -22 20 -53 20 -70 0 -36 24 -87 52
-110 22 -18 44 -70 58 -140 15 -75 30 -129 78 -275 l45 -140 -1 -148 -1 -149
-31 -47 c-16 -26 -30 -54 -30 -62 0 -8 -15 -46 -34 -85 -32 -67 -43 -80 -131
-157 -48 -41 -188 -127 -208 -127 -8 0 -26 -9 -41 -21 -26 -20 -31 -44 -20
-87 l6 -22 60 0 c43 0 68 5 87 19 15 11 40 23 57 27 16 4 64 24 106 46 59 29
84 48 103 78 14 22 43 51 65 65 26 16 49 43 66 78 15 28 37 66 49 82 45 59 95
173 95 215 0 22 7 57 15 77 19 45 19 81 0 126 -8 21 -15 67 -15 105 0 39 -7
85 -15 105 -8 20 -15 55 -15 77 0 22 -9 59 -21 82 -12 23 -29 64 -39 92 -19
55 -51 135 -81 204 -11 23 -19 62 -19 86 l0 43 -55 84 c-30 46 -55 91 -55 99
0 19 -124 204 -175 260 -22 25 -63 79 -90 120 -63 96 -150 204 -219 272 -81
79 -114 111 -162 159 -24 24 -58 58 -75 75 -17 18 -52 52 -76 77 -168 167
-193 194 -193 207 0 7 7 10 18 5 9 -3 44 -15 77 -26 73 -24 101 -37 140 -66
17 -12 80 -47 140 -78 61 -31 135 -72 165 -91 30 -19 66 -37 80 -41 32 -7 112
-56 170 -103 117 -96 172 -92 249 17 l41 56 0 68 c0 71 6 99 22 99 16 0 122
-52 153 -76 17 -12 91 -53 165 -90 74 -37 149 -78 167 -91 17 -13 46 -28 65
-33 18 -5 54 -27 79 -47 55 -45 230 -130 393 -190 22 -8 51 -23 66 -33 14 -10
81 -37 149 -59 67 -23 135 -49 150 -60 37 -26 233 -91 276 -91 20 0 52 -7 72
-15 20 -8 66 -15 104 -15 40 0 86 -7 109 -16 57 -23 108 -16 293 39 l68 20 44
51 45 51 0 41 0 42 -34 26 c-50 37 -69 34 -110 -23 -37 -50 -65 -73 -126 -103
-45 -22 -157 -24 -207 -3 -19 8 -45 15 -57 15 -11 0 -41 6 -66 14 -56 18 -123
35 -175 45 -61 12 -142 41 -219 79 -39 18 -106 45 -150 59 -43 14 -114 43
-158 64 -43 22 -84 39 -91 39 -7 0 -32 14 -57 30 -25 17 -58 30 -75 30 -50 0
-209 84 -245 130 -21 26 -44 43 -70 50 -44 12 -72 26 -115 56 -40 29 -171 94
-188 94 -7 0 -24 12 -38 26 -13 14 -54 41 -90 59 -70 36 -188 113 -229 150
-14 13 -41 31 -60 40 -86 43 -348 227 -383 269 l-38 46 -47 0 -47 -1 -22 -35z"/>
</g>
</svg>
