<?xml version="1.0" standalone="no"?>
<!DOCTYPE svg PUBLIC "-//W3C//DTD SVG 20010904//EN"
 "http://www.w3.org/TR/2001/REC-SVG-20010904/DTD/svg10.dtd">
<svg version="1.0" xmlns="http://www.w3.org/2000/svg"
 width="450.000000pt" height="372.000000pt" viewBox="0 0 450.000000 372.000000"
 preserveAspectRatio="xMidYMid meet">
<metadata>
Created by potrace 1.16, written by Peter Selinger 2001-2019
</metadata>
<g transform="translate(0.000000,372.000000) scale(0.100000,-0.100000)"
fill="#000000" stroke="none">
<path d="M80 3710 c0 -6 -18 -30 -40 -54 l-40 -43 0 -61 c0 -33 5 -64 10 -67
6 -3 10 -17 10 -30 0 -37 64 -222 110 -316 22 -46 40 -90 40 -99 0 -10 13 -35
29 -57 16 -22 37 -55 46 -74 10 -19 38 -54 64 -80 43 -42 66 -72 181 -230 25
-34 71 -88 104 -119 61 -61 87 -86 162 -161 26 -26 59 -60 75 -75 16 -16 49
-49 74 -74 157 -158 269 -259 366 -330 26 -19 81 -65 121 -101 40 -37 92 -76
115 -88 23 -11 54 -37 69 -57 15 -19 54 -49 86 -65 32 -16 75 -44 96 -62 89
-77 140 -116 182 -137 25 -12 65 -39 90 -60 25 -20 65 -47 90 -60 25 -12 66
-40 92 -61 26 -22 93 -63 150 -91 57 -28 117 -61 133 -74 17 -12 80 -48 140
-79 61 -31 131 -69 156 -86 25 -16 68 -38 95 -47 l49 -18 73 -109 c39 -60 72
-116 72 -123 0 -49 138 -213 223 -266 15 -9 53 -39 83 -67 30 -27 61 -49 70
-49 8 0 48 -19 87 -43 40 -24 92 -51 117 -61 25 -10 53 -22 62 -27 10 -5 97
-9 193 -9 l175 0 0 19 c0 40 -42 69 -153 106 -59 19 -117 35 -128 35 -11 0
-50 13 -86 30 -35 16 -70 30 -77 30 -7 0 -32 15 -56 33 -23 17 -64 46 -91 62
-53 33 -121 108 -176 193 l-35 55 15 14 14 15 56 -26 c89 -40 264 -96 302 -96
20 0 52 -7 72 -15 19 -8 53 -15 75 -15 21 0 55 -7 75 -15 49 -21 257 -21 306
0 21 9 67 15 107 15 76 0 115 14 163 58 l27 26 0 133 c0 73 -4 141 -9 151 -4
9 -18 38 -29 64 -16 34 -35 56 -74 82 -29 20 -77 55 -106 79 -29 24 -87 61
-130 82 -42 21 -90 48 -107 61 -16 12 -88 42 -160 65 -71 24 -165 60 -208 81
-43 21 -88 38 -100 38 -28 0 -243 72 -296 99 -22 12 -52 21 -66 21 -14 0 -42
7 -62 15 -19 8 -45 15 -56 15 -12 0 -62 13 -112 29 -122 39 -170 51 -240 60
-34 5 -70 13 -82 19 -13 7 -67 12 -130 12 l-108 0 -40 -23 c-46 -26 -85 -87
-85 -135 0 -45 38 -116 100 -185 29 -32 50 -61 46 -64 -17 -17 -167 68 -237
134 -14 13 -42 28 -62 34 -20 5 -60 31 -89 58 -29 26 -73 58 -98 71 -25 12
-65 39 -90 59 -25 20 -81 61 -125 90 -44 29 -93 71 -109 92 -15 22 -49 50 -76
64 -47 24 -176 136 -259 227 -28 32 -57 51 -82 58 -23 6 -46 21 -56 37 -10 15
-38 45 -62 69 -24 23 -57 55 -73 72 -17 16 -51 50 -75 75 -185 185 -232 235
-252 275 -11 22 -43 59 -70 83 -27 24 -59 62 -72 84 -13 22 -45 64 -71 94 -57
63 -67 81 -99 181 -14 47 -36 89 -57 113 -18 21 -37 49 -42 63 -12 31 -13 94
-1 112 l8 14 34 -19 c19 -10 48 -28 65 -40 18 -13 49 -28 70 -35 26 -9 47 -27
69 -58 22 -31 43 -49 69 -58 21 -7 50 -21 65 -31 15 -11 60 -36 101 -57 41
-20 92 -50 114 -65 21 -16 46 -29 56 -29 9 0 29 -13 45 -30 16 -16 35 -30 43
-30 7 0 43 -13 79 -30 35 -16 70 -30 76 -30 7 0 54 -20 105 -45 52 -25 99 -45
105 -45 7 0 37 -12 67 -26 30 -14 108 -43 173 -64 64 -22 134 -51 154 -65 21
-14 49 -25 63 -25 14 0 45 -6 70 -14 77 -24 133 -37 190 -45 30 -4 71 -12 90
-18 76 -24 128 -35 200 -42 41 -4 85 -13 98 -20 21 -11 260 -10 432 1 107 8
320 155 320 221 0 35 -36 77 -66 77 -27 0 -131 -49 -179 -84 -49 -36 -100 -56
-143 -56 -22 0 -56 -7 -75 -15 -24 -10 -70 -15 -132 -15 -62 0 -108 5 -132 15
-19 8 -53 15 -75 15 -21 0 -55 7 -75 15 -19 8 -45 15 -57 15 -12 0 -60 13
-106 30 -47 16 -102 30 -123 30 -21 0 -54 7 -74 15 -19 8 -47 15 -60 15 -14 0
-54 14 -90 30 -35 17 -69 30 -74 30 -6 0 -35 11 -65 25 -72 33 -168 65 -195
65 -28 0 -137 51 -190 89 -25 19 -54 31 -73 31 -18 0 -50 13 -76 30 -25 16
-51 30 -58 30 -7 0 -43 18 -80 40 -36 22 -83 45 -103 50 -48 13 -67 24 -163
89 -44 29 -107 67 -140 84 -34 16 -77 47 -97 68 -19 21 -78 67 -129 102 l-94
63 -51 76 -50 77 -72 0 c-44 1 -73 -3 -73 -9z m2557 -2235 c19 -8 60 -15 90
-15 29 0 70 -7 90 -15 19 -8 48 -15 62 -15 17 0 38 -11 56 -30 l29 -30 43 0
c24 0 60 -7 80 -15 19 -8 52 -15 72 -15 36 0 244 -66 299 -94 42 -22 148 -56
174 -56 13 0 43 -14 68 -30 25 -16 51 -30 59 -30 53 0 462 -239 498 -291 7 -9
33 -41 58 -70 46 -54 66 -110 48 -138 -6 -9 -39 -31 -74 -49 l-63 -32 -98 0
c-65 0 -111 5 -135 15 -19 8 -53 15 -75 15 -21 0 -55 7 -75 15 -19 8 -52 15
-72 15 -20 0 -56 6 -81 14 -60 19 -126 36 -178 45 -24 5 -53 18 -65 30 l-22
23 20 11 c109 65 95 145 -32 187 -34 11 -85 20 -114 20 -53 0 -103 18 -154 56
-16 12 -59 37 -94 54 -35 18 -80 47 -100 65 -20 18 -52 40 -71 50 -19 10 -49
29 -67 42 -17 13 -47 29 -67 34 -44 12 -210 162 -214 194 -4 27 22 55 49 55
11 0 36 -7 56 -15z m-64 -318 c34 -15 64 -44 54 -53 -17 -18 -97 29 -97 56 0
13 4 13 43 -3z m267 -167 c13 -11 29 -20 37 -20 7 0 13 -4 13 -10 0 -5 -2 -10
-5 -10 -8 0 -85 50 -85 55 0 11 18 4 40 -15z"/>
</g>
</svg>
