<?xml version="1.0" standalone="no"?>
<!DOCTYPE svg PUBLIC "-//W3C//DTD SVG 20010904//EN"
 "http://www.w3.org/TR/2001/REC-SVG-20010904/DTD/svg10.dtd">
<svg version="1.0" xmlns="http://www.w3.org/2000/svg"
 width="666.000000pt" height="171.000000pt" viewBox="0 0 666.000000 171.000000"
 preserveAspectRatio="xMidYMid meet">
<metadata>
Created by potrace 1.16, written by Peter Selinger 2001-2019
</metadata>
<g transform="translate(0.000000,171.000000) scale(0.100000,-0.100000)"
fill="#000000" stroke="none">
<path d="M1625 1700 c-3 -5 -19 -10 -35 -10 -16 0 -72 -20 -123 -45 -52 -25
-102 -45 -111 -45 -10 0 -31 -13 -47 -29 l-29 -29 0 -112 0 -111 25 -49 c38
-76 92 -102 128 -62 l17 19 0 119 0 120 17 24 c25 36 41 46 109 69 l60 21 285
0 285 0 84 -30 c47 -16 93 -30 104 -30 32 0 328 -102 390 -135 84 -43 88 -54
38 -102 l-42 -40 0 -37 c0 -42 58 -164 102 -214 16 -19 40 -51 53 -73 l25 -39
170 -85 170 -85 45 0 c52 0 135 37 159 72 9 12 16 43 16 68 0 76 4 77 138 10
67 -33 127 -60 134 -60 7 0 27 -9 43 -21 49 -33 178 -96 213 -104 17 -3 54
-22 80 -40 73 -50 188 -105 220 -105 15 0 97 -34 181 -75 84 -41 157 -75 163
-75 6 0 41 -13 77 -29 174 -75 298 -120 331 -121 14 0 45 -14 70 -30 25 -17
58 -30 75 -30 17 0 59 -14 93 -30 35 -17 75 -30 88 -30 14 0 41 -7 61 -15 19
-8 45 -15 57 -15 12 0 60 -13 106 -30 47 -16 104 -30 127 -30 23 0 45 -5 48
-10 8 -14 432 -14 440 0 3 6 20 10 37 10 17 0 52 13 77 29 25 16 57 31 71 35
48 11 88 45 133 114 26 38 54 75 62 82 8 7 15 29 15 49 l0 36 -49 43 c-69 59
-111 54 -111 -12 -1 -75 -102 -205 -192 -246 l-43 -20 -205 0 -205 0 -63 30
c-37 18 -80 30 -103 30 -22 0 -56 7 -76 15 -19 8 -45 15 -57 15 -11 0 -41 6
-66 14 -60 19 -125 35 -181 46 -25 5 -78 24 -117 44 -39 20 -131 55 -204 79
-73 25 -175 65 -226 91 -51 26 -134 60 -185 76 -50 17 -110 43 -132 59 -49 34
-119 71 -138 71 -7 0 -96 40 -196 90 -100 49 -188 90 -194 90 -7 0 -25 9 -42
21 -16 11 -92 52 -168 90 -76 38 -157 83 -179 99 -23 17 -48 30 -56 30 -39 0
-163 72 -235 136 -42 38 -102 89 -133 112 -55 43 -241 142 -266 142 -8 0 -30
11 -50 25 -49 33 -200 79 -313 95 -33 5 -91 20 -130 34 -44 16 -91 26 -127 26
-31 0 -60 5 -63 10 -4 6 -103 10 -265 10 -162 0 -261 -4 -265 -10z m1520 -594
c63 -23 62 -22 131 -140 43 -73 43 -86 2 -86 -57 0 -152 55 -195 113 -41 55
-63 98 -63 122 0 22 53 18 125 -9z"/>
<path d="M105 1098 c-22 -11 -55 -32 -72 -46 l-33 -24 0 -84 c0 -50 4 -84 10
-84 6 0 36 -28 68 -61 31 -34 75 -73 96 -87 22 -13 60 -44 86 -68 25 -24 92
-66 150 -95 58 -29 119 -62 135 -75 50 -37 173 -94 202 -94 16 0 57 -14 91
-30 35 -17 76 -30 90 -30 15 0 56 -14 90 -30 35 -17 75 -30 88 -30 14 0 41 -7
61 -15 26 -11 74 -15 179 -15 110 0 153 -4 185 -17 l41 -16 47 16 c31 12 78
17 144 17 l98 0 42 21 c110 56 185 136 212 226 l14 48 -13 46 c-30 99 -96 184
-174 224 l-34 16 -24 -15 c-29 -20 -41 -60 -25 -89 6 -12 27 -41 46 -65 l35
-44 0 -57 c0 -85 -22 -111 -136 -167 l-72 -34 -96 0 c-63 0 -109 5 -133 15
-20 8 -66 15 -105 15 -38 0 -84 7 -105 15 -20 8 -66 15 -105 15 -38 0 -84 7
-105 15 -19 8 -45 15 -57 15 -36 0 -159 46 -264 99 -56 28 -106 51 -112 51
-26 0 -101 43 -116 65 l-17 25 17 43 c9 23 16 55 16 70 0 80 -141 238 -267
301 -83 41 -121 44 -178 14z m130 -147 c11 -11 41 -39 68 -62 30 -27 47 -50
47 -65 0 -55 -55 -41 -126 32 -54 55 -64 80 -42 102 17 17 29 15 53 -7z"/>
</g>
</svg>
