<?xml version="1.0" standalone="no"?>
<!DOCTYPE svg PUBLIC "-//W3C//DTD SVG 20010904//EN"
 "http://www.w3.org/TR/2001/REC-SVG-20010904/DTD/svg10.dtd">
<svg version="1.0" xmlns="http://www.w3.org/2000/svg"
 width="831.000000pt" height="165.000000pt" viewBox="0 0 831.000000 165.000000"
 preserveAspectRatio="xMidYMid meet">
<metadata>
Created by potrace 1.16, written by Peter Selinger 2001-2019
</metadata>
<g transform="translate(0.000000,165.000000) scale(0.100000,-0.100000)"
fill="#000000" stroke="none">
<path d="M1685 1640 c-3 -5 -19 -10 -34 -10 -16 0 -45 -7 -64 -15 -20 -8 -61
-15 -92 -15 -37 0 -70 -7 -98 -21 -23 -12 -82 -35 -130 -50 -95 -31 -157 -60
-174 -81 -19 -23 -53 -136 -53 -176 0 -21 -5 -43 -12 -50 -18 -18 -170 -15
-215 3 -25 11 -72 15 -165 15 -92 0 -139 4 -165 15 -19 8 -60 15 -89 15 -29 0
-71 7 -92 15 -28 12 -67 15 -148 13 l-109 -3 -22 -40 c-23 -42 -30 -100 -13
-110 6 -3 10 -14 10 -24 0 -10 21 -45 47 -79 27 -33 68 -88 93 -123 25 -34 99
-118 166 -188 66 -69 130 -141 143 -159 24 -34 87 -72 119 -72 23 0 52 30 52
54 0 44 -132 246 -227 348 -34 38 -65 80 -69 95 -3 16 -25 44 -47 64 l-41 37
13 16 13 16 110 0 c74 0 120 -5 145 -15 20 -8 66 -15 105 -15 38 0 84 -7 105
-15 22 -9 67 -15 120 -15 52 0 97 -6 120 -15 23 -10 69 -15 131 -15 l95 0 43
44 44 43 0 38 c0 26 -10 54 -31 86 -20 31 -29 58 -27 76 l3 27 85 53 c66 40
94 52 126 53 23 0 58 7 77 15 25 10 72 15 150 15 77 0 126 5 149 14 27 12 102
15 350 17 l315 2 24 -16 23 -17 194 0 c149 0 201 -3 229 -15 22 -9 61 -14 97
-13 58 2 97 -7 159 -38 16 -8 45 -14 64 -14 20 0 51 -9 69 -21 27 -16 43 -19
74 -14 30 5 47 2 65 -9 13 -9 44 -16 67 -16 24 0 59 -5 78 -11 19 -6 70 -14
113 -19 60 -7 90 -16 125 -38 26 -16 72 -35 102 -42 30 -6 72 -20 92 -31 20
-10 54 -19 75 -19 48 0 144 -33 192 -66 19 -13 42 -24 51 -24 8 0 35 -14 60
-30 27 -18 58 -30 78 -30 22 0 41 -8 57 -25 l25 -24 0 -76 c0 -89 24 -147 87
-207 49 -47 153 -118 174 -118 9 0 35 -15 59 -33 77 -58 114 -77 155 -77 84 0
145 72 145 172 0 29 5 60 10 68 l9 15 28 -18 c69 -44 245 -127 270 -127 16 0
46 -12 68 -25 22 -14 52 -25 66 -25 14 0 72 -22 128 -50 71 -35 114 -50 143
-50 42 0 90 -19 147 -57 19 -13 46 -23 60 -23 15 0 59 -16 100 -35 56 -27 85
-35 128 -35 40 0 72 -8 120 -30 35 -17 70 -30 76 -30 7 0 37 -12 67 -26 89
-41 166 -64 218 -64 28 0 83 -13 132 -30 47 -16 102 -30 122 -30 21 0 55 -6
75 -14 21 -8 55 -17 76 -20 20 -2 50 -14 66 -25 l29 -21 341 0 c188 0 349 4
359 9 9 4 39 18 66 30 26 12 77 48 112 79 l64 57 0 51 0 51 -49 41 c-78 66
-131 50 -131 -39 0 -25 -7 -54 -15 -65 -21 -31 -76 -54 -127 -54 -25 0 -54 -7
-68 -17 l-25 -18 -165 4 c-112 2 -176 7 -199 17 -21 9 -70 14 -130 14 -55 0
-115 6 -141 14 -57 18 -124 35 -175 45 -22 4 -95 26 -162 49 -83 28 -140 42
-175 42 -38 0 -71 9 -116 30 -35 17 -75 30 -89 30 -13 0 -49 11 -79 25 -84 39
-170 65 -211 65 -22 0 -54 11 -78 25 -22 14 -47 25 -56 25 -9 0 -59 22 -110
50 -72 38 -105 50 -139 50 -32 0 -71 13 -138 45 -52 25 -99 45 -105 45 -7 0
-32 14 -57 30 -25 17 -58 30 -75 30 -32 0 -134 48 -224 105 -53 33 -139 65
-178 65 -11 0 -49 20 -86 45 -99 66 -141 85 -191 85 l-44 0 -44 35 c-79 64
-201 115 -273 115 -24 0 -58 13 -102 40 -37 22 -77 40 -90 40 -12 0 -51 16
-86 35 l-64 35 -72 0 c-58 0 -81 5 -114 24 -23 13 -64 26 -90 30 -26 3 -67 17
-90 31 -28 16 -51 22 -66 18 -14 -4 -37 2 -63 17 l-40 23 -137 5 -136 5 -40
23 c-25 14 -49 21 -66 17 -16 -3 -38 3 -59 16 -21 12 -43 18 -60 15 -17 -4
-39 2 -59 14 -26 16 -40 18 -64 11 -51 -15 -76 -11 -103 16 -25 26 -77 34 -89
15 -8 -13 -62 -13 -70 0 -4 6 -183 10 -505 10 -322 0 -501 -4 -505 -10z m3251
-852 c75 -76 105 -118 86 -118 -24 0 -94 48 -144 97 -54 53 -68 80 -51 96 15
15 32 3 109 -75z"/>
</g>
</svg>
