<?xml version="1.0" standalone="no"?>
<!DOCTYPE svg PUBLIC "-//W3C//DTD SVG 20010904//EN"
 "http://www.w3.org/TR/2001/REC-SVG-20010904/DTD/svg10.dtd">
<svg version="1.0" xmlns="http://www.w3.org/2000/svg"
 width="864.000000pt" height="255.000000pt" viewBox="0 0 864.000000 255.000000"
 preserveAspectRatio="xMidYMid meet">
<metadata>
Created by potrace 1.16, written by Peter Selinger 2001-2019
</metadata>
<g transform="translate(0.000000,255.000000) scale(0.100000,-0.100000)"
fill="#000000" stroke="none">
<path d="M1792 2453 l3 -98 33 -20 c18 -11 96 -62 173 -112 77 -51 159 -102
182 -114 23 -12 62 -38 87 -58 25 -20 79 -59 120 -86 117 -76 278 -240 367
-374 41 -62 79 -128 84 -145 5 -17 24 -56 44 -86 19 -30 50 -86 70 -125 l35
-69 0 -87 c0 -56 6 -100 16 -124 l16 -38 -16 -41 c-10 -26 -16 -73 -16 -124 0
-51 -6 -96 -15 -119 -8 -19 -15 -47 -15 -62 0 -14 -9 -39 -21 -56 -11 -16 -33
-56 -49 -87 -17 -31 -42 -65 -56 -75 -15 -10 -47 -36 -73 -59 -66 -58 -92 -74
-122 -74 -15 0 -43 -7 -62 -15 -20 -8 -61 -15 -90 -15 -30 0 -71 -7 -92 -16
-29 -12 -44 -13 -67 -5 -17 6 -74 14 -127 17 -53 4 -111 13 -130 20 -18 8 -58
14 -89 14 l-56 0 -153 75 c-85 41 -166 75 -182 75 -17 0 -37 10 -52 26 -13 14
-42 35 -64 46 -22 12 -53 31 -70 44 -16 12 -59 37 -94 54 -35 18 -80 47 -100
65 -20 18 -52 40 -71 50 -19 9 -55 34 -80 54 -25 20 -64 49 -87 65 -23 15 -65
53 -93 85 -28 31 -57 63 -64 71 -8 8 -58 53 -112 100 -55 47 -111 99 -127 115
-128 138 -198 221 -235 281 -80 128 -122 203 -122 216 0 7 -14 33 -30 58 -16
25 -30 58 -30 74 0 38 -84 166 -109 166 -31 0 -51 -33 -51 -83 0 -25 5 -49 10
-52 6 -3 10 -28 10 -54 0 -37 7 -57 30 -89 16 -22 52 -85 79 -140 72 -144 243
-395 286 -420 18 -12 45 -39 59 -61 14 -21 45 -56 70 -77 24 -20 56 -59 71
-85 28 -52 58 -79 88 -79 10 0 40 -21 66 -47 60 -60 153 -140 200 -171 20 -13
54 -42 77 -63 22 -22 57 -44 77 -50 20 -5 60 -31 89 -58 29 -26 71 -57 94 -69
22 -11 80 -48 130 -81 49 -34 95 -61 103 -61 8 0 53 -18 100 -41 123 -58 344
-127 436 -136 28 -3 54 -9 60 -14 13 -13 462 -12 470 1 3 6 12 10 20 10 8 0
47 16 88 35 41 19 85 35 99 35 23 0 96 48 180 120 21 18 42 47 47 66 5 18 18
46 29 61 35 51 92 172 92 198 0 14 7 42 15 62 10 23 15 69 15 135 0 65 5 111
15 135 19 45 19 111 0 156 -8 20 -15 59 -15 87 0 77 -60 234 -129 335 -12 17
-21 37 -21 45 0 15 -66 118 -100 155 -33 37 -110 156 -116 181 l-6 24 26 0
c15 0 43 -7 63 -15 19 -8 52 -15 72 -15 20 0 75 -13 121 -30 47 -16 101 -30
120 -30 19 0 55 -6 80 -14 78 -25 133 -37 195 -45 34 -5 70 -13 82 -19 13 -7
73 -12 153 -12 93 0 141 -4 167 -15 26 -11 76 -15 195 -15 118 0 168 -4 195
-15 l35 -15 328 0 328 0 35 15 c24 10 70 15 135 15 66 0 112 5 135 15 25 10
72 15 150 15 79 0 126 5 150 15 20 8 54 15 76 15 28 0 76 18 164 60 68 33 131
60 141 60 9 0 38 19 64 43 56 52 92 77 109 77 8 0 26 -20 42 -45 16 -25 49
-65 72 -89 24 -24 57 -60 72 -79 15 -19 52 -49 81 -66 30 -16 63 -43 75 -60
12 -16 46 -43 76 -60 30 -17 62 -42 71 -56 9 -14 60 -55 113 -90 53 -35 120
-84 149 -109 30 -25 57 -46 61 -46 5 0 52 -30 106 -66 54 -36 125 -80 158 -96
33 -17 76 -45 96 -63 46 -41 152 -95 188 -95 28 0 67 -18 164 -78 30 -18 65
-35 79 -37 14 -3 43 -10 65 -16 22 -6 72 -14 110 -18 53 -5 80 -13 110 -34
l40 -27 106 0 c72 0 118 5 142 15 20 8 47 15 61 15 14 0 54 14 89 30 36 17 72
30 81 30 30 0 96 110 96 160 l0 39 -30 16 c-16 8 -44 15 -62 15 l-33 0 -58
-57 c-80 -78 -125 -93 -287 -93 l-126 0 -29 30 c-19 20 -39 30 -57 30 -16 0
-45 7 -65 15 -19 8 -45 15 -57 15 -34 0 -132 37 -251 94 -61 29 -125 57 -142
60 -17 4 -52 25 -76 47 -25 21 -50 39 -57 39 -6 0 -45 20 -86 45 -40 25 -78
45 -83 45 -5 0 -26 20 -47 45 -20 25 -43 45 -51 45 -30 0 -103 42 -154 88 -30
26 -88 70 -129 97 -41 27 -95 68 -120 90 -25 22 -62 52 -82 65 -20 14 -49 44
-65 69 -15 24 -44 54 -65 67 -21 13 -45 36 -55 51 -9 16 -39 52 -66 82 -51 57
-98 141 -116 207 -6 23 -21 56 -34 75 l-23 34 -53 3 c-31 2 -59 -2 -68 -9 -31
-26 -53 -88 -53 -147 l0 -59 -28 -39 c-71 -97 -225 -194 -310 -194 -22 0 -56
-7 -75 -15 -25 -10 -72 -15 -150 -15 -79 0 -126 -5 -150 -15 -20 -8 -54 -15
-75 -15 -22 0 -56 -7 -77 -16 l-38 -15 -453 0 -454 1 -36 15 c-24 10 -70 15
-136 15 -65 0 -111 5 -135 15 -22 9 -67 15 -120 15 -52 0 -97 6 -120 15 -23
10 -69 15 -132 15 -55 0 -115 6 -141 14 -58 18 -123 35 -180 46 -25 5 -69 20
-97 34 -31 15 -70 26 -94 26 -24 0 -67 12 -106 30 -35 17 -69 30 -74 30 -6 0
-36 12 -66 26 -31 14 -91 36 -132 50 -108 35 -133 48 -193 103 -29 26 -76 60
-105 74 -28 15 -85 58 -127 97 -42 38 -83 70 -92 70 -9 0 -45 14 -81 30 -35
17 -71 30 -78 30 -8 0 -17 5 -20 10 -3 6 -26 10 -51 10 l-45 0 3 -97z"/>
</g>
</svg>
