<?xml version="1.0" standalone="no"?>
<!DOCTYPE svg PUBLIC "-//W3C//DTD SVG 20010904//EN"
 "http://www.w3.org/TR/2001/REC-SVG-20010904/DTD/svg10.dtd">
<svg version="1.0" xmlns="http://www.w3.org/2000/svg"
 width="858.000000pt" height="114.000000pt" viewBox="0 0 858.000000 114.000000"
 preserveAspectRatio="xMidYMid meet">
<metadata>
Created by potrace 1.16, written by Peter Selinger 2001-2019
</metadata>
<g transform="translate(0.000000,114.000000) scale(0.100000,-0.100000)"
fill="#000000" stroke="none">
<path d="M1145 1130 c-4 -6 -57 -10 -126 -10 -72 0 -129 -5 -142 -12 -12 -6
-48 -14 -82 -19 -62 -8 -117 -20 -195 -45 -25 -8 -68 -14 -96 -14 -28 0 -68
-7 -87 -15 -20 -8 -48 -15 -63 -15 -16 0 -41 -13 -64 -34 -21 -19 -68 -49
-105 -68 -62 -31 -83 -49 -157 -142 l-28 -34 0 -100 c0 -57 4 -104 10 -107 6
-3 10 -17 10 -31 0 -36 16 -61 50 -79 43 -22 76 -19 99 11 l21 27 0 90 0 90
20 31 c16 27 73 78 164 147 25 19 144 59 174 59 12 0 46 12 75 26 38 20 75 29
142 34 88 8 132 17 225 46 66 21 427 20 477 -1 26 -11 74 -15 180 -15 105 0
153 -4 180 -15 23 -10 69 -15 135 -15 65 0 111 -5 135 -15 19 -8 60 -15 90
-15 29 0 70 -7 90 -15 19 -8 60 -15 90 -15 29 0 70 -7 90 -15 22 -9 67 -15
120 -15 52 0 97 -6 120 -15 19 -8 45 -15 56 -15 12 0 81 -20 154 -45 73 -25
142 -45 154 -45 11 0 50 -13 86 -30 35 -16 69 -30 75 -30 17 0 129 -73 144
-94 8 -11 14 -34 14 -52 0 -29 26 -69 126 -192 25 -31 109 -82 135 -82 17 0
80 -31 114 -56 50 -36 173 -94 201 -94 38 0 94 -30 107 -57 l10 -23 102 0 101
0 12 33 c17 46 15 137 -3 180 -18 45 -10 71 19 62 11 -3 51 -10 87 -14 36 -5
75 -13 86 -20 13 -6 69 -11 135 -11 70 0 130 -5 158 -14 87 -28 136 -38 210
-45 41 -4 85 -13 97 -19 12 -7 54 -12 93 -12 40 0 86 -6 107 -15 25 -11 72
-15 165 -15 92 0 139 -4 165 -15 l35 -15 373 0 373 0 35 15 c25 10 72 15 150
15 79 0 126 5 150 15 20 8 47 15 61 15 13 0 66 20 118 45 51 25 101 45 110 45
10 0 43 22 73 50 30 27 73 61 94 75 30 18 50 45 82 105 24 47 54 89 72 102 41
30 137 36 191 14 26 -11 68 -16 127 -16 l89 0 30 -47 c50 -82 59 -92 98 -103
21 -5 71 -26 110 -45 95 -46 183 -75 227 -75 20 0 52 -7 72 -15 65 -28 198
-11 286 36 l18 10 -3 115 -3 116 -60 31 c-33 18 -78 45 -100 60 -22 15 -51 27
-65 27 -14 0 -45 6 -70 14 -112 35 -147 40 -375 47 -132 4 -307 13 -388 21
l-149 13 -19 24 c-10 13 -19 31 -19 41 0 20 -118 118 -179 150 -22 11 -52 20
-66 20 -14 0 -42 7 -62 15 -25 10 -71 15 -153 15 -82 0 -128 -5 -153 -15 -20
-8 -49 -15 -65 -15 -45 0 -62 -27 -62 -99 l0 -62 48 -55 c48 -57 124 -104 165
-104 12 0 61 -13 107 -30 47 -16 102 -30 123 -30 88 0 97 -40 30 -131 -35 -46
-59 -65 -202 -150 -14 -8 -56 -25 -92 -37 l-66 -22 -30 10 c-20 8 -38 8 -57 0
-16 -6 -114 -10 -230 -10 -158 0 -212 -3 -239 -15 -46 -19 -128 -19 -174 0
l-35 15 -325 0 -324 0 -36 15 c-19 8 -53 15 -75 15 -21 0 -55 7 -75 15 -20 8
-66 15 -105 15 -38 0 -84 7 -105 15 -19 8 -59 15 -87 15 -28 0 -71 6 -96 14
-98 31 -139 39 -240 45 -58 4 -115 12 -127 19 -12 7 -34 12 -48 12 -14 0 -51
11 -80 25 -67 30 -259 95 -283 95 -26 0 -127 36 -211 76 -82 39 -181 74 -209
74 -26 0 -132 39 -162 60 -51 36 -110 60 -148 60 -21 0 -76 13 -122 30 -47 16
-101 30 -120 30 -39 0 -126 27 -208 66 -40 18 -69 24 -123 24 -39 0 -85 7
-106 15 -25 11 -72 15 -165 15 -92 0 -139 4 -165 15 -19 8 -59 15 -89 15 -29
0 -65 5 -81 12 -15 7 -91 16 -168 20 -77 4 -162 10 -190 13 -27 3 -76 7 -108
9 -32 2 -64 9 -70 15 -14 14 -333 15 -342 1z m7148 -650 c5 -4 -5 -11 -21 -15
-30 -6 -90 12 -120 37 l-14 12 18 6 c18 7 120 -23 137 -40z m-4406 -142 c36
-35 41 -48 17 -48 -17 0 -94 59 -94 72 0 20 47 5 77 -24z"/>
</g>
</svg>
