<?xml version="1.0" standalone="no"?>
<!DOCTYPE svg PUBLIC "-//W3C//DTD SVG 20010904//EN"
 "http://www.w3.org/TR/2001/REC-SVG-20010904/DTD/svg10.dtd">
<svg version="1.0" xmlns="http://www.w3.org/2000/svg"
 width="345.000000pt" height="219.000000pt" viewBox="0 0 345.000000 219.000000"
 preserveAspectRatio="xMidYMid meet">
<metadata>
Created by potrace 1.16, written by Peter Selinger 2001-2019
</metadata>
<g transform="translate(0.000000,219.000000) scale(0.100000,-0.100000)"
fill="#000000" stroke="none">
<path d="M1265 2180 c-3 -5 -28 -10 -54 -10 -32 0 -56 -6 -72 -19 -34 -26 -73
-113 -66 -143 10 -38 51 -93 72 -96 11 -2 48 -17 83 -33 45 -21 79 -29 118
-29 30 0 71 -7 91 -15 22 -9 67 -15 117 -15 65 0 99 -6 166 -30 47 -16 96 -30
108 -30 34 0 90 -28 142 -69 24 -20 61 -47 82 -61 38 -26 186 -162 326 -302
137 -136 180 -195 258 -348 40 -80 82 -158 93 -175 13 -18 21 -46 21 -71 0
-23 7 -58 15 -77 8 -20 15 -54 15 -75 0 -22 7 -56 15 -75 31 -75 6 -254 -39
-279 -17 -10 -61 14 -160 84 -21 15 -46 28 -56 28 -9 0 -29 13 -45 30 -16 16
-36 30 -44 30 -9 0 -58 20 -109 45 -52 25 -99 45 -105 45 -7 0 -32 14 -57 30
-25 16 -51 30 -58 30 -7 0 -42 18 -78 39 -36 22 -106 52 -156 68 -66 20 -102
38 -133 66 -24 20 -49 37 -57 37 -7 0 -55 20 -106 45 -52 25 -99 45 -105 45
-7 0 -32 14 -57 30 -25 16 -56 30 -70 30 -38 0 -131 34 -248 91 -57 27 -161
68 -230 91 -70 23 -162 59 -205 80 -43 21 -83 38 -88 38 -16 0 -146 65 -206
104 -60 38 -168 76 -219 76 -19 0 -51 7 -71 15 -19 8 -48 15 -64 15 l-29 0 0
-37 1 -38 63 -57 c62 -56 151 -98 208 -98 25 0 53 -16 106 -62 18 -15 40 -28
49 -28 19 0 142 -60 209 -103 29 -18 105 -50 170 -72 66 -21 139 -50 164 -65
25 -15 58 -31 74 -34 17 -4 42 -16 58 -27 l28 -20 0 -45 c0 -55 29 -115 70
-144 17 -12 42 -40 56 -61 23 -37 103 -89 137 -89 7 0 24 -12 38 -26 43 -47
223 -124 286 -124 15 0 50 13 78 28 45 24 55 37 85 102 4 9 24 16 51 18 l44 3
90 -61 c50 -33 96 -60 104 -60 28 0 277 -129 326 -169 28 -22 62 -49 77 -61
15 -11 33 -36 39 -55 l13 -35 106 1 105 0 32 42 c18 23 51 77 73 119 l40 78 0
119 c0 83 -5 129 -15 154 -8 20 -15 61 -15 90 0 30 -7 71 -15 90 -8 20 -15 61
-15 92 0 58 -20 110 -66 172 -31 40 -84 152 -84 175 0 10 -24 45 -54 78 -30
34 -60 79 -68 102 -10 33 -25 50 -65 78 -29 19 -65 55 -80 79 -15 24 -43 54
-63 66 -40 26 -78 67 -102 110 l-16 30 121 -6 c67 -3 136 -11 152 -17 17 -6
46 -14 66 -17 23 -3 53 -20 80 -44 47 -41 88 -64 129 -74 14 -4 43 -22 65 -40
68 -58 116 -77 194 -77 38 0 82 -5 96 -10 40 -15 116 11 175 61 l50 42 0 71 0
71 -41 48 c-59 68 -120 97 -209 97 -40 0 -86 6 -107 15 -19 8 -52 15 -72 15
-20 0 -56 6 -81 14 -119 38 -140 40 -465 46 l-330 6 -45 17 c-90 35 -183 86
-331 181 -30 20 -66 36 -80 36 -14 0 -63 13 -109 30 -64 22 -103 30 -157 30
-39 0 -75 5 -78 10 -3 6 -21 10 -40 10 -19 0 -37 -4 -40 -10z m362 -1632 c15
-12 8 -28 -12 -28 -16 0 -45 27 -45 41 0 11 38 2 57 -13z"/>
</g>
</svg>
