<?xml version="1.0" standalone="no"?>
<!DOCTYPE svg PUBLIC "-//W3C//DTD SVG 20010904//EN"
 "http://www.w3.org/TR/2001/REC-SVG-20010904/DTD/svg10.dtd">
<svg version="1.0" xmlns="http://www.w3.org/2000/svg"
 width="375.000000pt" height="210.000000pt" viewBox="0 0 375.000000 210.000000"
 preserveAspectRatio="xMidYMid meet">
<metadata>
Created by potrace 1.16, written by Peter Selinger 2001-2019
</metadata>
<g transform="translate(0.000000,210.000000) scale(0.100000,-0.100000)"
fill="#000000" stroke="none">
<path d="M1715 2090 c-3 -5 -20 -10 -38 -10 -34 0 -160 -78 -177 -110 -5 -10
-10 -49 -10 -87 l0 -68 73 -68 c66 -63 131 -107 157 -107 19 0 189 -105 190
-117 0 -15 -18 -25 -95 -52 l-59 -21 -153 0 c-114 0 -163 4 -190 15 -23 10
-69 15 -135 15 -65 0 -111 5 -135 15 -22 9 -67 15 -120 15 -52 0 -97 6 -120
15 -19 8 -52 15 -72 15 -44 0 -129 28 -231 76 -41 20 -111 47 -155 61 -44 14
-93 36 -110 50 -16 13 -56 44 -89 68 l-58 45 -94 0 -94 0 0 -99 0 -99 51 -38
c32 -25 65 -63 89 -104 21 -36 56 -86 79 -112 23 -25 41 -53 41 -61 0 -20 56
-96 101 -137 22 -20 44 -52 51 -75 10 -29 26 -48 65 -74 28 -20 65 -56 81 -81
17 -25 50 -59 75 -74 24 -16 57 -49 73 -73 16 -25 40 -53 54 -61 70 -45 130
-96 130 -112 0 -22 23 -42 64 -55 27 -9 38 -23 66 -85 4 -8 29 -27 56 -42 27
-15 73 -48 103 -75 30 -26 78 -61 107 -78 116 -66 190 -114 213 -139 14 -14
32 -26 42 -26 10 0 37 -16 61 -35 69 -56 132 -85 182 -85 25 0 48 -4 51 -10 7
-12 88 -13 113 -2 9 5 44 22 77 38 l60 29 43 80 43 80 -5 162 c-4 124 -9 170
-22 195 -34 68 -87 129 -133 154 -52 29 -131 76 -212 128 -40 26 -66 36 -95
36 -21 0 -59 6 -84 14 -60 19 -125 35 -182 46 -26 5 -56 13 -67 19 -32 18
-311 14 -354 -4 -20 -8 -53 -15 -73 -15 -20 0 -55 -5 -77 -12 l-39 -12 -37 42
c-20 23 -82 92 -138 152 -57 61 -103 115 -103 120 0 5 -25 37 -55 71 -55 61
-73 98 -60 118 11 18 40 13 103 -19 36 -18 77 -30 99 -30 21 0 58 -6 83 -14
104 -33 142 -39 270 -45 74 -3 142 -10 150 -16 8 -5 51 -13 95 -18 97 -10 106
-10 175 -2 l55 7 29 -31 c32 -33 54 -38 89 -19 12 6 56 15 97 19 74 7 123 17
210 45 25 8 55 14 67 14 12 0 59 18 103 39 113 55 184 75 223 62 16 -6 54 -11
84 -11 29 0 70 -7 90 -15 25 -11 72 -15 165 -15 92 0 139 -4 165 -15 22 -9 67
-15 120 -15 96 0 160 -22 190 -67 10 -14 37 -46 59 -70 l41 -43 35 0 c25 0 42
-8 63 -30 16 -16 35 -30 43 -30 7 0 43 -13 79 -30 l64 -30 105 0 c75 0 114 4
134 15 l30 16 0 128 0 128 -47 40 c-62 52 -86 64 -216 107 l-107 36 -395 0
-396 0 -36 15 c-19 8 -59 15 -87 15 -63 0 -164 33 -188 62 -11 12 -18 37 -18
59 0 57 -36 156 -77 211 -43 60 -133 140 -181 163 -20 10 -45 22 -54 26 -25
12 -225 11 -233 -1z m265 -251 c39 -39 70 -75 70 -79 0 -5 3 -15 6 -23 7 -19
-22 -47 -48 -47 -57 0 -266 133 -276 175 -6 26 40 45 111 45 l68 0 69 -71z
m1467 -484 c19 -8 48 -15 62 -15 31 0 95 -64 87 -87 -11 -27 -103 -16 -181 22
-40 19 -78 41 -85 50 -19 22 4 45 47 45 18 0 50 -7 70 -15z m-2140 -536 c15
-7 46 -15 68 -19 41 -8 85 -22 143 -46 18 -8 52 -14 75 -14 54 0 134 -28 212
-74 148 -86 131 -68 194 -212 50 -115 39 -207 -29 -248 -69 -40 -255 -4 -335
66 -24 21 -49 38 -57 38 -22 0 -58 30 -58 48 0 9 24 45 53 78 29 34 59 75 66
91 l13 31 -20 38 c-26 50 -77 99 -124 118 -21 9 -40 16 -43 16 -16 0 -109 -99
-132 -142 -30 -54 -46 -59 -75 -23 -11 14 -46 39 -77 54 -71 36 -114 80 -132
133 l-13 41 23 18 23 19 98 0 c54 0 111 -5 127 -11z"/>
</g>
</svg>
