<?xml version="1.0" standalone="no"?>
<!DOCTYPE svg PUBLIC "-//W3C//DTD SVG 20010904//EN"
 "http://www.w3.org/TR/2001/REC-SVG-20010904/DTD/svg10.dtd">
<svg version="1.0" xmlns="http://www.w3.org/2000/svg"
 width="360.000000pt" height="405.000000pt" viewBox="0 0 360.000000 405.000000"
 preserveAspectRatio="xMidYMid meet">
<metadata>
Created by potrace 1.16, written by Peter Selinger 2001-2019
</metadata>
<g transform="translate(0.000000,405.000000) scale(0.100000,-0.100000)"
fill="#000000" stroke="none">
<path d="M2040 4014 c-25 -18 -67 -46 -95 -60 -71 -37 -82 -50 -101 -113 l-16
-56 13 -55 c16 -68 54 -110 99 -110 17 0 47 -7 67 -15 19 -8 47 -15 60 -15 14
0 54 -13 90 -30 35 -16 69 -30 74 -30 15 0 101 -40 132 -62 l27 -19 0 -81 0
-80 -27 6 c-16 3 -51 10 -80 15 -29 6 -61 15 -72 20 -11 6 -39 11 -63 11 -31
0 -55 8 -88 30 -31 21 -57 30 -85 30 -23 0 -79 13 -125 30 -47 16 -102 30
-123 30 -21 0 -54 7 -74 15 -28 12 -83 15 -257 15 l-222 0 -29 30 -29 30 -62
0 c-34 0 -78 -7 -97 -15 -20 -8 -66 -15 -102 -15 -74 0 -139 -19 -266 -79 -92
-44 -112 -48 -156 -29 -25 10 -151 28 -208 29 -46 2 -114 -16 -168 -43 l-57
-28 0 -96 0 -96 25 -30 c14 -16 25 -36 25 -44 0 -24 30 -76 65 -114 17 -19 47
-57 66 -85 18 -27 237 -255 485 -505 l452 -455 27 -55 c19 -38 62 -90 140
-167 62 -61 134 -139 159 -172 26 -34 55 -61 65 -61 23 0 41 -19 41 -44 0 -11
19 -38 43 -60 23 -23 58 -61 77 -86 19 -25 66 -81 104 -125 37 -44 84 -111
103 -150 20 -38 51 -87 70 -108 40 -45 53 -75 53 -123 0 -19 20 -94 45 -167
25 -73 45 -146 45 -161 0 -15 -17 -80 -37 -144 l-38 -115 -67 -67 -68 -67 0
-36 0 -37 88 0 89 0 12 23 c7 12 32 37 57 55 24 18 44 41 44 51 0 9 20 60 45
111 l46 93 -4 141 c-3 133 -9 168 -43 276 -8 25 -14 55 -14 68 0 12 -11 44
-24 70 -13 26 -29 66 -35 89 -8 30 -24 52 -51 74 -22 18 -40 39 -40 46 0 26
-43 98 -85 143 -23 25 -50 59 -60 75 -11 17 -38 50 -60 75 -23 25 -50 59 -60
75 -20 32 -70 90 -161 190 -93 102 -153 173 -177 212 -14 21 -54 65 -89 99
-36 33 -75 79 -87 102 -12 23 -35 52 -52 64 -17 13 -42 42 -55 65 -14 23 -51
61 -82 84 -31 24 -82 68 -112 99 -31 30 -68 63 -82 73 -17 10 -31 33 -38 56
-11 44 -36 69 -76 80 -21 5 -39 24 -65 67 -20 32 -48 65 -62 72 -15 6 -39 18
-54 25 -17 7 -40 34 -56 64 -15 29 -45 65 -66 80 -21 15 -49 43 -62 63 -13 19
-50 62 -83 95 -32 33 -70 76 -83 96 l-25 37 12 21 11 21 55 0 c32 0 71 -7 91
-17 41 -19 87 -86 108 -156 16 -55 72 -136 111 -161 14 -10 49 -38 79 -64 30
-26 82 -67 115 -92 34 -25 86 -64 116 -88 30 -23 75 -52 102 -63 50 -22 61
-28 187 -96 l80 -42 84 -1 84 0 59 58 58 59 0 53 0 54 -44 65 c-64 95 -261
287 -310 303 -28 9 -49 26 -71 58 -19 26 -44 49 -61 54 -51 16 -231 105 -244
121 -19 23 5 45 50 45 21 0 54 7 73 15 46 19 119 19 177 1 105 -33 143 -39
290 -47 85 -5 172 -9 192 -9 20 0 71 -12 113 -25 42 -14 83 -25 92 -25 10 0
58 -13 108 -29 121 -39 169 -51 240 -61 40 -5 94 -25 163 -59 57 -28 133 -61
170 -73 37 -12 81 -33 97 -48 17 -15 44 -35 61 -44 41 -20 161 -101 194 -131
14 -12 58 -43 97 -69 40 -26 91 -63 114 -82 46 -38 66 -41 112 -18 61 31 67
41 67 116 l0 68 -61 45 c-34 25 -68 45 -76 45 -8 0 -38 20 -66 45 -47 41 -125
85 -199 114 -15 6 -39 28 -52 50 -14 22 -46 57 -71 78 -82 68 -131 205 -89
247 19 19 17 19 61 1 19 -8 53 -15 75 -15 21 0 55 -7 75 -15 23 -10 69 -15
135 -15 65 0 111 -5 135 -15 23 -10 69 -15 135 -15 65 0 111 -5 135 -15 22
-10 68 -15 124 -15 l89 0 0 70 0 70 -60 30 -59 30 -146 0 c-107 0 -155 4 -182
15 -22 9 -67 15 -117 15 -44 0 -101 6 -126 14 -87 27 -136 38 -210 46 -112 11
-170 49 -170 111 0 15 -7 43 -15 62 -8 20 -15 49 -15 64 0 21 -19 48 -75 107
-41 44 -75 83 -75 88 0 4 -60 8 -132 7 l-133 0 -45 -35z m232 -174 c41 -32 71
-130 39 -130 -16 0 -110 32 -151 51 -24 12 -55 25 -67 30 -32 12 -29 26 10 49
44 27 135 27 169 0z m-1303 -849 c25 -16 57 -31 71 -35 32 -8 47 -21 87 -72
21 -26 44 -44 62 -47 17 -4 37 -18 48 -34 10 -15 37 -46 61 -69 42 -42 54 -74
27 -74 -8 0 -40 11 -71 25 -31 14 -62 25 -69 25 -6 0 -22 12 -36 26 -13 14
-73 59 -134 99 -122 82 -160 117 -170 158 l-7 27 43 0 c29 0 56 -9 88 -29z"/>
</g>
</svg>
