<?xml version="1.0" standalone="no"?>
<!DOCTYPE svg PUBLIC "-//W3C//DTD SVG 20010904//EN"
 "http://www.w3.org/TR/2001/REC-SVG-20010904/DTD/svg10.dtd">
<svg version="1.0" xmlns="http://www.w3.org/2000/svg"
 width="309.000000pt" height="204.000000pt" viewBox="0 0 309.000000 204.000000"
 preserveAspectRatio="xMidYMid meet">
<metadata>
Created by potrace 1.16, written by Peter Selinger 2001-2019
</metadata>
<g transform="translate(0.000000,204.000000) scale(0.100000,-0.100000)"
fill="#000000" stroke="none">
<path d="M347 1977 c-21 -49 -27 -77 -27 -134 l0 -71 30 -64 c16 -34 30 -69
30 -76 0 -21 37 -87 110 -196 64 -95 119 -154 184 -199 14 -10 30 -34 36 -55
6 -26 29 -56 72 -97 82 -78 141 -151 133 -165 -9 -15 -90 -12 -132 5 -19 8
-60 15 -90 15 -29 0 -70 7 -90 15 -24 10 -70 15 -147 15 -68 0 -128 5 -156 14
-146 46 -223 55 -269 32 l-31 -17 0 -54 c0 -63 -1 -62 111 -99 41 -13 101 -40
134 -61 33 -20 72 -39 87 -42 14 -3 40 -22 56 -42 16 -20 55 -49 86 -64 31
-16 64 -40 74 -54 9 -14 38 -49 64 -78 62 -71 71 -90 58 -115 l-11 -20 -58 0
c-32 0 -75 -7 -94 -15 -20 -8 -51 -15 -68 -15 l-32 0 -59 -58 -58 -59 0 -39
c1 -36 15 -69 65 -151 l20 -33 176 0 177 0 56 34 c32 19 86 64 122 100 l64 65
0 37 c0 28 -9 46 -39 81 -22 24 -43 59 -47 76 -14 68 -54 124 -162 227 -60 58
-123 115 -141 128 -17 13 -31 30 -31 38 0 20 148 19 197 -1 20 -8 66 -15 105
-15 38 0 84 -7 105 -15 20 -8 66 -15 105 -15 92 0 149 -27 253 -120 17 -15 42
-30 57 -34 15 -3 39 -22 54 -42 17 -22 56 -50 104 -74 42 -21 102 -61 132 -89
30 -27 88 -67 129 -87 41 -20 88 -47 104 -59 57 -43 413 -215 444 -215 16 0
33 -4 36 -10 4 -6 108 -10 278 -10 l272 0 83 72 82 72 0 96 0 95 -85 78 c-47
42 -93 77 -102 77 -9 0 -54 18 -101 41 -125 58 -283 109 -342 109 -28 0 -67 7
-87 15 -19 8 -52 15 -72 15 -20 0 -75 13 -121 30 -47 16 -102 30 -123 30 -21
0 -54 7 -74 15 -19 8 -53 15 -75 15 -21 0 -55 7 -75 15 -26 11 -74 15 -180 15
-105 0 -153 4 -180 15 -19 8 -54 15 -77 15 -45 0 -65 11 -138 74 -26 23 -74
61 -109 86 -90 66 -213 193 -389 403 -22 27 -52 72 -67 100 -14 29 -43 72 -64
96 -24 27 -41 57 -44 80 -3 20 -12 56 -20 81 -18 53 -19 94 -5 121 l11 19 70
0 c39 0 85 -7 106 -15 23 -10 69 -15 135 -15 65 0 111 -5 135 -15 l35 -15 287
0 286 -1 25 -14 c30 -17 221 -21 251 -5 43 24 12 70 -48 70 -15 1 -39 7 -53
15 -19 11 -65 14 -180 15 -115 1 -161 4 -180 15 -17 10 -58 14 -128 15 -68 0
-115 5 -139 15 -23 10 -69 15 -135 15 -65 0 -111 5 -135 15 -20 8 -66 15 -105
15 -38 0 -84 7 -105 15 -19 8 -55 15 -79 15 -23 0 -46 5 -49 10 -3 6 -47 10
-98 10 l-92 -1 -28 -62z m1358 -1325 c44 -5 90 -14 102 -20 12 -7 40 -12 63
-12 22 0 57 -7 77 -15 23 -10 69 -15 132 -15 l97 0 84 -30 c47 -16 96 -30 110
-30 14 0 54 -14 88 -30 35 -17 74 -30 85 -30 45 0 226 -70 303 -117 l79 -49 3
-61 3 -61 -28 -20 c-15 -11 -49 -29 -75 -41 l-47 -21 -108 0 -109 0 -84 30
c-47 16 -94 30 -105 30 -29 0 -135 38 -165 60 -14 9 -70 40 -125 68 -185 93
-525 337 -525 377 0 4 15 4 33 1 17 -4 68 -10 112 -14z m-1020 -417 c14 -13
25 -30 25 -38 0 -25 -36 -62 -73 -75 l-36 -13 -56 16 c-31 9 -59 23 -62 31
-12 33 89 103 150 104 17 0 38 -10 52 -25z"/>
</g>
</svg>
