<?xml version="1.0" standalone="no"?>
<!DOCTYPE svg PUBLIC "-//W3C//DTD SVG 20010904//EN"
 "http://www.w3.org/TR/2001/REC-SVG-20010904/DTD/svg10.dtd">
<svg version="1.0" xmlns="http://www.w3.org/2000/svg"
 width="441.000000pt" height="228.000000pt" viewBox="0 0 441.000000 228.000000"
 preserveAspectRatio="xMidYMid meet">
<metadata>
Created by potrace 1.16, written by Peter Selinger 2001-2019
</metadata>
<g transform="translate(0.000000,228.000000) scale(0.100000,-0.100000)"
fill="#000000" stroke="none">
<path d="M1358 2247 c-41 -36 -78 -103 -78 -142 0 -38 38 -146 64 -180 13 -16
35 -52 49 -80 29 -58 298 -326 389 -388 30 -21 65 -52 77 -68 21 -28 107 -79
134 -79 8 0 27 -17 44 -37 19 -25 58 -52 109 -77 75 -37 174 -105 203 -140 7
-9 20 -16 28 -16 24 0 83 -31 163 -86 42 -28 96 -62 120 -74 25 -13 59 -33 75
-46 37 -28 229 -124 248 -124 8 0 33 -13 55 -30 23 -16 47 -30 54 -30 7 0 20
-5 28 -10 l15 -10 -15 -10 c-8 -5 -38 -10 -66 -10 -28 0 -68 -7 -87 -15 -27
-11 -75 -15 -180 -15 -106 0 -154 -4 -180 -15 -46 -19 -128 -19 -174 0 -25 11
-72 15 -165 15 -92 0 -139 4 -165 15 -23 10 -69 15 -132 15 l-97 0 -84 30
c-47 16 -98 30 -113 30 -28 0 -77 38 -77 60 0 6 7 27 15 47 8 19 15 62 15 95
0 109 -73 205 -207 272 -87 43 -149 47 -247 15 l-65 -22 -66 -67 -65 -68 0
-57 c0 -31 -5 -65 -10 -76 l-11 -19 -55 0 c-30 0 -71 7 -91 15 -19 8 -53 15
-75 15 -21 0 -55 7 -75 15 -19 8 -65 15 -102 15 -36 0 -86 6 -111 14 -78 25
-133 37 -195 45 -34 5 -70 13 -82 19 -31 17 -109 15 -143 -3 l-30 -16 0 -59
c0 -32 5 -62 10 -65 6 -4 19 -24 30 -45 11 -21 76 -97 145 -168 69 -71 140
-148 158 -170 17 -23 55 -59 83 -81 29 -22 65 -59 80 -82 16 -24 80 -95 142
-160 61 -64 112 -122 112 -128 0 -6 18 -11 45 -11 l45 0 0 45 c0 27 -9 63 -21
86 -20 39 -130 182 -149 194 -6 4 -10 14 -10 23 0 10 -63 83 -141 162 -77 80
-148 159 -156 175 -8 17 -27 45 -41 64 l-25 33 14 9 c20 13 48 11 99 -5 87
-28 136 -38 210 -45 41 -4 85 -13 97 -19 12 -7 47 -12 78 -12 30 0 72 -7 92
-15 19 -8 60 -15 90 -15 29 0 70 -7 90 -15 19 -8 60 -15 90 -15 29 0 70 -7 90
-15 19 -8 45 -15 56 -15 12 0 81 -20 154 -45 73 -25 149 -45 169 -45 19 0 65
-13 101 -30 35 -16 75 -30 89 -30 14 0 41 -7 61 -15 19 -8 60 -15 90 -15 29 0
70 -7 90 -15 l35 -15 448 0 448 0 35 15 c21 8 67 15 105 15 39 0 85 7 105 15
20 8 54 15 75 15 22 0 56 7 75 15 56 23 90 19 234 -30 l132 -45 81 0 c49 0 95
-6 117 -15 26 -11 75 -15 185 -15 l149 0 59 30 60 30 0 70 0 69 -31 23 c-17
13 -47 45 -66 71 -32 44 -94 87 -125 87 -7 0 -33 14 -58 30 -25 16 -52 30 -60
30 -8 0 -35 14 -60 30 -32 21 -57 30 -87 30 -24 0 -61 7 -83 16 l-41 17 -67
-22 c-37 -12 -78 -33 -92 -46 -35 -32 -147 -107 -193 -128 l-38 -18 -62 21
c-34 11 -86 32 -115 45 -29 14 -58 25 -65 25 -6 0 -32 14 -57 30 -25 16 -51
30 -59 30 -28 0 -243 112 -280 146 -21 18 -44 34 -51 34 -21 0 -83 33 -160 86
-83 57 -152 94 -173 94 -7 0 -24 12 -38 26 -13 14 -76 60 -139 102 -63 42
-145 105 -182 139 -37 35 -74 63 -82 63 -7 0 -85 71 -171 158 l-158 157 -44
89 c-23 49 -43 98 -43 107 0 39 70 50 150 25 60 -19 125 -35 182 -46 26 -5 56
-13 67 -19 11 -6 45 -11 76 -11 30 0 72 -7 92 -15 23 -10 69 -15 135 -15 65 0
111 -5 135 -15 54 -23 310 -20 380 4 70 24 83 36 83 81 0 42 -21 66 -81 90
l-31 13 -46 -16 c-64 -23 -306 -24 -359 -2 -26 11 -74 15 -177 15 -94 0 -156
5 -186 14 -57 18 -124 35 -175 45 -45 8 -191 56 -217 71 -10 6 -50 10 -90 10
l-73 0 -37 -33z m10 -1254 c30 -25 64 -130 51 -154 -13 -25 -80 -25 -129 -1
-52 25 -130 84 -130 97 0 30 87 74 146 75 26 0 50 -7 62 -17z m2610 -309 c80
-37 224 -133 219 -147 -6 -20 -218 -21 -263 -2 -20 8 -46 15 -59 15 -29 0
-155 46 -172 63 -10 10 -11 20 -4 39 17 46 47 58 139 58 l83 0 57 -26z"/>
</g>
</svg>
