<?xml version="1.0" standalone="no"?>
<!DOCTYPE svg PUBLIC "-//W3C//DTD SVG 20010904//EN"
 "http://www.w3.org/TR/2001/REC-SVG-20010904/DTD/svg10.dtd">
<svg version="1.0" xmlns="http://www.w3.org/2000/svg"
 width="336.000000pt" height="252.000000pt" viewBox="0 0 336.000000 252.000000"
 preserveAspectRatio="xMidYMid meet">
<metadata>
Created by potrace 1.16, written by Peter Selinger 2001-2019
</metadata>
<g transform="translate(0.000000,252.000000) scale(0.100000,-0.100000)"
fill="#000000" stroke="none">
<path d="M859 2493 c-15 -14 -41 -38 -58 -54 l-31 -27 0 -128 0 -128 36 -55
c67 -105 114 -190 114 -207 0 -9 53 -69 118 -133 64 -63 131 -138 147 -165 20
-33 49 -61 81 -81 27 -16 82 -61 121 -100 39 -38 106 -103 149 -143 62 -58 75
-75 64 -82 -23 -15 -117 -12 -157 5 -26 11 -76 15 -195 15 -118 0 -168 4 -195
15 -52 22 -494 22 -546 0 -20 -8 -54 -15 -75 -15 -22 0 -56 -7 -75 -15 -20 -8
-48 -15 -62 -15 -33 0 -82 -24 -120 -60 -16 -16 -52 -41 -80 -57 -28 -17 -56
-42 -64 -59 -8 -16 -18 -37 -23 -46 -11 -23 -10 -333 1 -356 5 -9 23 -50 42
-89 18 -40 45 -85 61 -100 15 -15 28 -33 28 -40 0 -28 40 -91 74 -117 20 -15
48 -51 63 -79 14 -29 48 -76 74 -105 27 -30 49 -58 49 -63 0 -5 34 -9 75 -9
l75 0 0 16 c0 15 -115 192 -180 278 -17 21 -30 45 -30 53 0 19 -67 151 -97
191 -44 59 -53 94 -53 212 0 125 8 152 68 231 31 41 50 55 93 70 29 11 64 19
77 19 13 0 33 6 45 12 18 10 214 25 367 28 63 2 227 -17 247 -28 13 -7 63 -12
120 -12 57 0 117 -6 143 -14 101 -32 140 -39 255 -45 66 -4 130 -12 142 -19
12 -6 32 -12 45 -12 37 0 127 -35 193 -75 33 -20 72 -39 88 -42 15 -3 36 -18
47 -33 25 -36 133 -110 176 -122 18 -5 57 -31 87 -58 29 -27 87 -66 128 -86
41 -20 88 -47 104 -59 17 -13 64 -40 105 -60 41 -21 88 -48 105 -60 54 -41
148 -82 303 -134 84 -28 158 -51 165 -51 8 0 25 13 40 28 l27 28 0 76 c0 55
-4 79 -15 88 -8 7 -21 33 -28 59 l-14 46 -47 32 c-27 17 -60 42 -75 56 -38 37
-203 147 -219 147 -8 0 -40 16 -72 36 -59 36 -267 113 -308 114 -13 0 -48 11
-78 25 -86 39 -302 106 -408 125 -26 5 -62 21 -80 35 -82 67 -150 115 -164
115 -8 0 -40 27 -69 60 -30 33 -78 76 -107 95 -56 37 -436 416 -436 434 0 7
-20 33 -44 59 -51 54 -136 180 -136 201 0 8 -13 35 -29 60 -22 35 -30 63 -35
118 l-6 71 31 26 31 26 126 0 c82 0 143 -5 172 -14 87 -28 136 -38 210 -45 41
-4 85 -13 97 -19 12 -7 54 -12 93 -12 40 0 86 -6 107 -15 45 -19 243 -21 261
-3 17 17 15 52 -6 71 -24 21 -134 57 -177 57 -20 0 -52 7 -72 15 -22 9 -67 15
-120 15 -52 0 -97 6 -120 15 -23 10 -69 15 -135 15 -65 0 -111 5 -135 15 -19
8 -65 15 -102 15 -60 0 -158 24 -178 43 -3 4 -47 6 -97 6 l-91 -1 -26 -25z
m1749 -1758 c34 -14 74 -25 89 -25 38 0 145 -55 176 -90 15 -17 34 -30 43 -30
24 0 126 -66 165 -106 25 -26 30 -37 21 -46 -19 -19 -158 30 -201 71 -36 33
-100 71 -122 71 -38 0 -138 66 -201 134 -53 56 -54 55 30 21z"/>
</g>
</svg>
