<?xml version="1.0" standalone="no"?>
<!DOCTYPE svg PUBLIC "-//W3C//DTD SVG 20010904//EN"
 "http://www.w3.org/TR/2001/REC-SVG-20010904/DTD/svg10.dtd">
<svg version="1.0" xmlns="http://www.w3.org/2000/svg"
 width="576.000000pt" height="231.000000pt" viewBox="0 0 576.000000 231.000000"
 preserveAspectRatio="xMidYMid meet">
<metadata>
Created by potrace 1.16, written by Peter Selinger 2001-2019
</metadata>
<g transform="translate(0.000000,231.000000) scale(0.100000,-0.100000)"
fill="#000000" stroke="none">
<path d="M3115 2298 c-11 -6 -27 -14 -35 -18 -34 -16 -60 -82 -60 -158 0 -105
27 -177 100 -265 33 -40 85 -105 115 -144 32 -43 63 -73 73 -73 10 0 35 -20
55 -45 21 -25 77 -71 125 -102 48 -32 107 -76 132 -98 25 -23 66 -53 91 -68
25 -14 58 -42 73 -61 15 -20 40 -39 60 -44 18 -5 96 -50 172 -100 128 -84 162
-107 247 -170 17 -12 42 -25 56 -29 27 -6 116 -56 212 -117 30 -20 62 -36 71
-36 9 0 26 -9 39 -19 l24 -20 -15 -14 c-20 -19 -94 -47 -124 -47 -13 0 -40 -7
-59 -15 -28 -12 -80 -15 -225 -15 -146 0 -198 -3 -225 -15 -52 -22 -452 -22
-504 0 -24 10 -71 15 -150 15 -78 0 -125 5 -150 15 -19 8 -52 15 -71 15 -20 0
-96 20 -169 45 -73 25 -142 45 -154 45 -26 0 -140 52 -182 84 -55 41 -175 96
-210 96 -67 0 -74 -37 -21 -111 28 -38 54 -59 113 -90 42 -22 99 -55 128 -73
59 -38 168 -76 216 -76 17 0 52 -6 77 -14 60 -19 125 -35 182 -46 26 -5 56
-13 67 -19 11 -6 38 -11 61 -11 22 0 57 -7 77 -15 l35 -15 418 0 418 0 35 15
c20 8 62 15 92 15 31 0 66 5 78 12 12 6 56 15 97 19 74 7 123 17 210 45 28 9
89 14 164 14 l119 0 136 -44 c207 -67 217 -69 353 -73 l127 -4 49 25 c64 32
102 82 102 133 0 61 -33 119 -81 144 -23 11 -60 34 -82 50 -22 16 -53 29 -69
29 -16 0 -45 7 -65 15 -25 11 -72 15 -165 15 -136 0 -181 -10 -302 -65 -69
-31 -92 -31 -139 1 -21 14 -84 48 -140 76 -56 28 -115 61 -132 74 -16 12 -86
51 -154 85 -69 34 -141 77 -160 94 -20 18 -52 40 -71 50 -19 10 -48 28 -65 40
-16 13 -50 33 -75 45 -25 12 -65 39 -90 59 -25 20 -58 45 -75 55 -16 11 -60
48 -97 83 -37 34 -74 63 -82 63 -14 0 -366 346 -366 361 0 4 -18 29 -41 55
-50 57 -63 88 -49 115 l11 19 115 0 c79 0 126 -5 151 -15 19 -8 52 -15 72 -15
20 0 56 -6 81 -14 60 -19 125 -35 182 -46 26 -5 56 -13 67 -19 11 -6 52 -11
91 -11 40 0 86 -6 107 -15 22 -9 67 -15 120 -15 52 0 97 -6 120 -15 19 -8 53
-15 75 -15 21 0 55 -7 75 -15 51 -21 126 -20 146 3 21 23 22 85 1 103 -27 22
-117 48 -169 49 -30 0 -86 12 -135 30 -62 21 -104 30 -153 30 -37 0 -84 7
-104 15 -23 10 -69 15 -135 15 -65 0 -111 5 -135 15 -19 8 -52 15 -71 15 -20
0 -77 13 -127 29 -103 33 -160 49 -227 61 -26 5 -56 13 -67 19 -11 6 -33 11
-50 11 -16 0 -33 5 -36 10 -8 13 -125 12 -150 -2z m2342 -1629 l28 -11 -20 -8
c-30 -12 -103 -12 -127 1 l-21 11 14 9 c20 12 92 11 126 -2z"/>
<path d="M0 603 l0 -38 48 -41 c47 -41 121 -84 143 -84 17 0 80 -31 114 -56
33 -24 232 -94 268 -94 12 0 78 -27 145 -60 83 -40 136 -60 160 -60 21 0 57
-6 82 -14 58 -18 124 -35 175 -45 22 -4 56 -12 75 -18 52 -16 119 -33 172 -43
26 -5 56 -13 67 -19 11 -6 47 -11 80 -11 33 0 63 -4 66 -10 8 -14 822 -14 830
0 3 5 20 10 36 10 32 0 96 29 144 65 17 12 53 34 82 48 40 21 61 41 97 95 l46
68 0 53 0 53 -29 29 c-55 55 -149 30 -169 -45 -13 -47 -91 -161 -123 -180 -15
-9 -38 -16 -52 -16 -13 0 -41 -7 -60 -15 -20 -8 -54 -15 -75 -15 -22 0 -56 -7
-75 -15 -51 -21 -273 -21 -324 0 -25 11 -72 15 -165 15 -92 0 -139 4 -165 15
-20 8 -66 15 -105 15 -38 0 -84 7 -105 15 -19 8 -53 15 -75 15 -21 0 -55 7
-75 15 -19 8 -47 15 -60 15 -14 0 -54 14 -90 30 -35 17 -75 30 -89 30 -14 0
-41 7 -61 15 -19 8 -45 15 -56 15 -32 0 -143 40 -230 82 -43 21 -87 38 -99 38
-39 0 -151 43 -291 112 l-138 68 -59 0 -60 0 0 -37z"/>
</g>
</svg>
