<?xml version="1.0" standalone="no"?>
<!DOCTYPE svg PUBLIC "-//W3C//DTD SVG 20010904//EN"
 "http://www.w3.org/TR/2001/REC-SVG-20010904/DTD/svg10.dtd">
<svg version="1.0" xmlns="http://www.w3.org/2000/svg"
 width="396.000000pt" height="204.000000pt" viewBox="0 0 396.000000 204.000000"
 preserveAspectRatio="xMidYMid meet">
<metadata>
Created by potrace 1.16, written by Peter Selinger 2001-2019
</metadata>
<g transform="translate(0.000000,204.000000) scale(0.100000,-0.100000)"
fill="#000000" stroke="none">
<path d="M1357 1991 c-21 -60 -21 -88 -2 -134 8 -20 15 -55 15 -77 0 -44 47
-146 106 -232 18 -27 36 -65 40 -84 5 -26 18 -44 49 -67 24 -18 55 -51 70 -73
32 -51 333 -347 393 -388 24 -16 62 -46 85 -66 23 -21 58 -45 77 -55 19 -9 55
-34 80 -54 25 -20 84 -63 131 -94 96 -64 124 -90 114 -106 -10 -18 -248 -14
-292 4 -20 8 -66 15 -105 15 -38 0 -84 7 -105 15 -20 8 -66 15 -105 15 l-70 0
-72 35 c-85 42 -194 110 -233 146 -15 13 -55 34 -88 44 -38 12 -79 35 -110 62
-27 24 -79 57 -115 75 -36 17 -81 39 -100 49 -122 66 -312 159 -323 159 -7 0
-24 12 -38 26 -27 30 -138 88 -187 99 -17 3 -55 22 -83 42 -114 78 -294 154
-397 168 l-53 7 -20 -18 -19 -17 0 -77 0 -76 36 -35 c19 -18 55 -61 79 -95 24
-33 56 -69 72 -79 15 -10 48 -37 73 -60 77 -73 153 -100 201 -75 43 23 11 97
-62 141 -49 31 -97 98 -84 119 13 21 110 -13 179 -62 21 -15 45 -28 53 -28 22
0 139 -56 176 -84 18 -13 93 -54 167 -91 74 -37 148 -78 165 -90 16 -13 64
-40 105 -61 86 -43 170 -103 170 -121 0 -6 -16 -24 -36 -39 -38 -29 -64 -71
-64 -102 0 -24 58 -113 108 -165 20 -21 62 -52 92 -68 30 -17 78 -45 107 -63
61 -38 169 -76 219 -76 19 0 51 -7 71 -15 46 -20 106 -19 168 3 65 23 72 28
90 63 l16 29 -12 43 c-8 28 -26 54 -53 78 l-40 37 13 16 c17 21 99 21 148 1
23 -10 69 -15 135 -15 65 0 111 -5 135 -15 20 -8 66 -15 105 -15 38 0 84 -7
105 -15 20 -8 66 -15 105 -15 38 0 84 -7 105 -15 19 -8 54 -15 77 -15 33 0 48
-6 67 -26 30 -32 176 -107 266 -136 38 -11 80 -32 95 -46 26 -24 203 -91 243
-92 23 0 121 -33 132 -43 3 -4 41 -7 83 -7 l76 0 37 38 37 38 -1 44 c-1 67
-35 122 -81 133 -20 5 -55 25 -78 45 -33 27 -76 47 -187 84 -79 26 -159 48
-179 48 -19 0 -51 7 -71 15 -19 8 -53 15 -75 15 -21 0 -55 7 -75 15 -21 9 -67
15 -116 15 l-80 0 -108 36 c-72 24 -121 48 -146 69 -41 35 -114 75 -136 75 -7
0 -24 12 -38 26 -13 14 -42 35 -64 46 -22 11 -60 37 -85 57 -25 20 -66 49 -92
64 -26 15 -56 40 -67 56 -12 16 -45 43 -74 59 -29 16 -65 45 -79 63 -14 19
-51 47 -82 62 -31 16 -64 40 -74 54 -9 14 -38 49 -64 78 -26 30 -55 67 -64 82
-10 15 -46 58 -80 95 -38 40 -67 82 -73 103 -5 20 -21 51 -34 68 -34 45 -64
107 -92 189 -24 72 -22 99 8 111 24 9 271 -9 294 -21 14 -8 73 -12 168 -12
107 0 155 -4 182 -15 20 -8 66 -15 105 -15 38 0 84 -7 105 -15 19 -8 60 -15
90 -15 29 0 70 -7 90 -15 24 -10 70 -15 143 -15 l107 0 27 21 c39 31 32 67
-19 96 l-40 23 -163 0 c-122 0 -172 4 -199 15 -19 8 -60 15 -90 15 -29 0 -70
7 -90 15 -19 8 -53 15 -75 15 -21 0 -55 7 -75 15 -22 9 -67 15 -120 15 -52 0
-97 6 -120 15 -19 8 -62 15 -94 15 -32 0 -61 5 -64 10 -4 6 -76 10 -183 10
l-177 0 -18 -49z m395 -1523 c25 -18 67 -57 94 -86 38 -43 44 -56 33 -63 -8
-5 -19 -9 -24 -9 -17 0 -125 39 -183 66 -29 13 -59 24 -66 24 -39 0 -83 69
-59 93 3 4 41 7 83 7 l76 0 46 -32z m1773 -225 c66 -22 134 -44 150 -47 36 -9
75 -33 75 -46 0 -17 -43 -11 -78 10 -18 11 -88 38 -155 60 -67 22 -128 43
-135 45 -7 3 -10 10 -7 16 4 6 12 8 19 6 6 -2 65 -22 131 -44z"/>
</g>
</svg>
