<?xml version="1.0" standalone="no"?>
<!DOCTYPE svg PUBLIC "-//W3C//DTD SVG 20010904//EN"
 "http://www.w3.org/TR/2001/REC-SVG-20010904/DTD/svg10.dtd">
<svg version="1.0" xmlns="http://www.w3.org/2000/svg"
 width="384.000000pt" height="198.000000pt" viewBox="0 0 384.000000 198.000000"
 preserveAspectRatio="xMidYMid meet">
<metadata>
Created by potrace 1.16, written by Peter Selinger 2001-2019
</metadata>
<g transform="translate(0.000000,198.000000) scale(0.100000,-0.100000)"
fill="#000000" stroke="none">
<path d="M1373 1944 c-34 -22 -60 -49 -74 -75 l-20 -41 4 -96 c2 -54 10 -117
17 -142 36 -131 47 -158 75 -190 18 -19 47 -57 66 -85 19 -27 71 -90 116 -138
46 -48 83 -93 83 -98 0 -17 111 -129 155 -157 22 -14 67 -51 100 -82 33 -30
80 -69 105 -85 24 -17 65 -52 90 -78 28 -29 61 -52 83 -58 41 -11 71 -47 61
-73 -5 -13 -13 -16 -28 -11 -11 4 -77 10 -146 14 -69 4 -135 12 -147 19 -14 8
-71 12 -168 12 -107 0 -155 4 -182 15 -19 8 -65 15 -100 15 -99 0 -192 34
-266 97 -68 57 -154 107 -204 118 -17 3 -51 23 -75 44 -54 48 -68 55 -170 88
-46 14 -95 34 -109 42 -14 9 -47 29 -73 44 -53 33 -170 76 -206 77 -14 0 -38
9 -55 21 -72 48 -255 129 -295 129 -6 0 -10 -24 -10 -55 l0 -54 33 -17 c17 -9
46 -28 63 -41 17 -13 53 -30 80 -38 27 -8 71 -30 98 -50 27 -19 56 -35 64 -35
16 0 133 -49 187 -78 17 -8 66 -35 110 -59 44 -23 86 -43 93 -43 31 0 127 -54
163 -90 37 -37 51 -70 29 -70 -5 0 -21 -22 -35 -50 -52 -102 -23 -202 72 -253
29 -15 77 -50 106 -77 29 -27 87 -66 128 -86 41 -20 88 -47 104 -60 29 -22
109 -50 206 -72 50 -12 109 -1 142 26 39 34 10 210 -45 270 -14 15 -37 44 -53
65 l-27 37 12 15 12 15 170 0 c127 0 177 -4 205 -15 23 -10 69 -15 135 -15 65
0 111 -5 135 -15 19 -8 59 -15 87 -15 28 0 71 -6 96 -14 56 -18 122 -35 180
-46 70 -14 118 -34 148 -62 28 -27 142 -88 164 -88 7 0 64 -25 127 -55 136
-66 306 -125 361 -125 21 0 42 -4 45 -10 4 -6 72 -10 172 -10 l165 0 27 19
c15 11 39 23 54 26 l27 7 0 97 -1 96 -42 46 c-42 46 -56 52 -197 89 -25 6 -72
15 -105 19 -34 5 -70 13 -82 19 -13 7 -69 12 -138 12 -80 0 -127 5 -152 15
-23 10 -69 15 -135 15 -65 0 -111 5 -135 15 -22 9 -67 15 -117 15 -94 0 -172
23 -214 62 -15 14 -43 34 -62 43 -19 10 -49 28 -65 41 -17 13 -48 29 -70 36
-27 9 -48 26 -67 55 -17 25 -50 53 -83 72 -30 17 -62 42 -71 56 -9 14 -41 42
-70 61 -61 41 -258 234 -279 274 -8 15 -30 39 -50 54 -19 15 -45 46 -56 69
-12 23 -37 59 -56 81 -19 21 -53 76 -75 122 l-40 83 -2 79 c-2 124 39 163 135
129 26 -10 76 -17 111 -17 45 0 88 -9 148 -30 53 -18 105 -30 138 -30 29 0 69
-7 89 -15 19 -8 60 -15 90 -15 29 0 70 -7 90 -15 25 -11 72 -15 165 -15 92 0
139 -4 165 -15 20 -8 66 -15 105 -15 38 0 84 -7 105 -15 21 -9 67 -15 113 -15
l77 0 16 18 c35 39 8 92 -47 92 -14 0 -43 7 -63 15 -23 10 -69 15 -135 15 -65
0 -111 5 -135 15 -22 9 -67 15 -120 15 -52 0 -97 6 -120 15 -19 8 -53 15 -75
15 -21 0 -55 7 -75 15 -19 8 -53 15 -75 15 -21 0 -55 7 -75 15 -23 10 -69 15
-135 15 -65 0 -111 5 -135 15 -19 8 -45 15 -57 15 -23 0 -188 53 -218 70 -10
6 -44 10 -75 9 l-58 0 -52 -35z m-13 -1575 c113 -113 125 -142 60 -147 l-35
-3 -120 80 c-187 124 -208 171 -74 171 l68 0 101 -101z m1937 -64 c19 -8 58
-15 86 -15 28 0 80 -10 116 -22 87 -29 205 -91 209 -109 2 -9 -15 -24 -41 -37
-81 -41 -220 -22 -356 47 -22 12 -51 21 -63 21 -48 0 -215 67 -239 96 -22 27
3 34 127 34 88 0 135 -4 161 -15z"/>
</g>
</svg>
