<?xml version="1.0" standalone="no"?>
<!DOCTYPE svg PUBLIC "-//W3C//DTD SVG 20010904//EN"
 "http://www.w3.org/TR/2001/REC-SVG-20010904/DTD/svg10.dtd">
<svg version="1.0" xmlns="http://www.w3.org/2000/svg"
 width="777.000000pt" height="429.000000pt" viewBox="0 0 777.000000 429.000000"
 preserveAspectRatio="xMidYMid meet">
<metadata>
Created by potrace 1.16, written by Peter Selinger 2001-2019
</metadata>
<g transform="translate(0.000000,429.000000) scale(0.100000,-0.100000)"
fill="#000000" stroke="none">
<path d="M6310 4282 c0 -4 -18 -29 -40 -56 -50 -60 -53 -99 -11 -165 16 -25
31 -58 35 -72 3 -15 24 -42 47 -60 23 -19 62 -55 88 -80 59 -59 129 -109 152
-109 10 0 27 -13 38 -29 23 -33 112 -96 187 -134 27 -14 77 -50 112 -81 34
-31 71 -56 81 -56 10 0 31 -16 45 -35 15 -20 53 -49 85 -65 32 -16 82 -51 112
-77 30 -27 73 -61 97 -77 82 -56 172 -163 218 -261 24 -51 44 -97 44 -103 0
-45 -117 -232 -145 -232 -7 0 -55 -20 -107 -45 -51 -25 -105 -45 -119 -45 -15
0 -43 -7 -62 -15 -20 -8 -61 -15 -90 -15 -30 0 -71 -7 -90 -15 l-36 -15 -516
0 -516 0 -36 15 c-19 8 -60 15 -90 15 -29 0 -70 7 -90 15 -20 8 -66 15 -105
15 -38 0 -84 7 -105 15 -19 8 -60 15 -90 15 -29 0 -70 7 -90 15 -19 8 -53 15
-75 15 -21 0 -55 7 -75 15 -22 9 -67 15 -117 15 -44 0 -101 6 -126 14 -58 18
-124 35 -175 45 -22 4 -56 12 -75 18 -56 18 -122 34 -160 40 -35 5 -60 19 -60
33 0 4 41 33 91 66 50 32 97 67 105 78 8 12 14 45 14 84 0 74 -33 151 -78 179
-15 9 -52 42 -82 73 -65 65 -176 126 -306 168 -49 16 -108 39 -131 51 -33 17
-60 21 -128 21 -53 0 -99 6 -122 15 -25 11 -73 15 -168 15 -95 0 -143 -4 -168
-15 -20 -8 -56 -15 -79 -15 -66 0 -191 -89 -229 -162 -10 -21 -19 -47 -19 -58
0 -39 38 -95 117 -171 59 -57 87 -78 115 -83 22 -4 53 -21 75 -42 21 -20 53
-42 73 -51 l35 -15 -20 -8 c-11 -5 -183 -9 -383 -9 l-363 -1 -36 15 -35 15
-640 0 -639 0 -36 15 c-28 12 -86 15 -285 15 -198 0 -256 3 -285 15 -26 11
-74 15 -177 15 -107 0 -152 4 -188 17 -53 19 -88 10 -108 -27 l-11 -20 25 -25
c16 -16 36 -25 56 -25 17 0 47 -7 67 -15 24 -10 71 -15 150 -15 78 0 125 -5
150 -15 23 -10 69 -15 135 -15 65 0 111 -5 135 -15 27 -11 77 -15 210 -15 132
0 182 -4 210 -15 28 -12 86 -15 285 -15 198 0 256 -3 285 -15 l35 -15 385 0
384 0 36 -15 35 -15 561 0 560 0 179 -60 c124 -42 193 -60 228 -60 28 0 67 -7
87 -15 19 -8 52 -15 72 -15 20 0 75 -13 121 -30 47 -16 102 -30 123 -30 21 0
54 -7 74 -15 19 -8 53 -15 75 -15 21 0 55 -7 75 -15 19 -8 60 -15 90 -15 29 0
70 -7 90 -15 25 -11 72 -15 165 -15 92 0 139 -4 165 -15 19 -8 60 -15 90 -15
29 0 70 -7 90 -15 26 -11 74 -15 179 -15 92 0 153 -4 171 -12 23 -11 266 -23
553 -28 73 -2 256 17 283 28 16 7 53 12 83 12 31 0 65 5 77 12 12 6 48 14 82
19 62 8 107 18 213 50 57 18 92 40 210 135 19 15 50 61 72 105 22 43 44 80 50
84 13 8 13 132 0 140 -5 3 -10 20 -10 36 0 16 -18 64 -39 107 l-40 77 -110
108 c-68 67 -117 107 -130 107 -12 0 -46 25 -80 58 -32 32 -90 75 -127 95 -38
20 -95 58 -128 84 -71 59 -125 93 -148 93 -9 0 -26 14 -38 30 -12 17 -61 56
-108 87 -90 59 -258 214 -293 270 -15 24 -18 37 -10 51 25 48 144 68 218 37
20 -8 66 -15 105 -15 38 0 84 -7 105 -15 22 -9 67 -15 120 -15 52 0 97 -6 120
-15 25 -10 71 -15 155 -15 l119 0 38 19 c51 27 63 43 59 87 l-3 38 -35 24
c-27 18 -43 22 -70 18 -104 -17 -127 -18 -164 -2 -30 13 -75 16 -213 16 -132
0 -182 4 -210 15 -22 9 -68 15 -124 15 -48 0 -91 5 -94 10 -7 12 -315 14 -315
2z m-2563 -947 c20 -8 66 -15 105 -15 38 0 84 -7 105 -15 19 -8 60 -15 90 -15
37 0 72 -8 111 -26 82 -37 217 -131 259 -178 67 -78 67 -118 1 -166 l-41 -30
-72 0 c-42 0 -88 -6 -108 -15 -22 -9 -68 -15 -117 -15 -49 0 -95 6 -117 15
-19 8 -47 15 -60 15 -30 0 -85 25 -137 62 -21 15 -45 28 -53 28 -8 0 -42 13
-76 28 -34 16 -73 32 -87 35 -14 4 -46 23 -72 44 -26 21 -67 50 -92 65 l-46
27 0 45 c0 25 6 48 13 53 36 23 118 43 178 43 37 0 82 7 100 15 44 18 71 19
116 0z"/>
<path d="M42 2559 c-27 -20 -42 -38 -42 -53 l0 -22 95 -32 c52 -18 104 -32
116 -32 11 0 50 -13 86 -30 35 -16 69 -30 74 -30 6 0 40 -18 77 -40 36 -22 83
-45 103 -50 48 -13 66 -23 170 -93 47 -31 92 -57 100 -57 20 0 323 -202 380
-253 25 -23 66 -54 90 -70 24 -15 73 -49 109 -76 62 -47 79 -63 160 -149 20
-20 69 -64 110 -97 41 -33 93 -85 115 -114 22 -30 66 -80 98 -112 31 -32 57
-65 57 -73 0 -8 25 -44 56 -78 62 -69 154 -242 154 -289 0 -15 13 -56 30 -91
39 -82 41 -162 5 -267 -25 -72 -96 -193 -139 -233 -11 -11 -79 -49 -151 -85
-143 -71 -165 -87 -165 -115 l0 -18 89 0 c50 0 93 5 96 10 3 6 14 10 22 10 27
0 242 149 257 178 8 15 33 49 55 76 23 26 41 56 41 65 0 9 14 45 30 79 17 35
30 75 30 88 0 14 7 41 15 61 28 67 14 147 -49 283 -14 30 -26 68 -26 83 0 36
-33 100 -80 157 -21 25 -48 65 -60 89 -39 78 -100 159 -135 180 -19 11 -45 37
-58 58 -14 21 -74 84 -133 140 -60 57 -127 120 -149 141 -47 46 -137 119 -180
146 -16 11 -57 45 -90 77 -33 31 -80 67 -105 79 -25 12 -65 39 -89 58 -76 62
-324 224 -356 233 -16 5 -52 27 -79 49 -26 22 -55 40 -63 40 -8 0 -44 14 -80
30 -35 17 -69 30 -75 30 -5 0 -39 14 -75 30 -35 17 -70 30 -76 30 -7 0 -41 14
-75 30 -37 18 -80 30 -103 30 -22 0 -56 7 -76 15 -50 21 -63 19 -111 -16z"/>
</g>
</svg>
