<?xml version="1.0" standalone="no"?>
<!DOCTYPE svg PUBLIC "-//W3C//DTD SVG 20010904//EN"
 "http://www.w3.org/TR/2001/REC-SVG-20010904/DTD/svg10.dtd">
<svg version="1.0" xmlns="http://www.w3.org/2000/svg"
 width="462.000000pt" height="204.000000pt" viewBox="0 0 462.000000 204.000000"
 preserveAspectRatio="xMidYMid meet">
<metadata>
Created by potrace 1.16, written by Peter Selinger 2001-2019
</metadata>
<g transform="translate(0.000000,204.000000) scale(0.100000,-0.100000)"
fill="#000000" stroke="none">
<path d="M2792 2002 l-42 -39 0 -54 0 -54 30 -45 c16 -25 30 -53 30 -63 0 -10
29 -48 64 -86 35 -37 75 -86 90 -109 15 -24 43 -50 66 -62 23 -12 69 -50 104
-85 35 -37 71 -65 82 -65 25 0 44 -18 44 -42 0 -10 33 -42 79 -78 44 -33 83
-65 86 -70 4 -6 29 -22 57 -36 61 -31 234 -196 283 -270 20 -29 49 -62 65 -74
20 -14 30 -30 30 -47 0 -14 8 -47 17 -73 l17 -48 -24 -74 -24 -73 -65 -66
c-58 -58 -138 -109 -171 -109 -6 0 -29 -9 -51 -21 -22 -11 -73 -31 -112 -44
l-72 -25 -111 0 c-78 0 -123 -5 -149 -16 l-37 -15 -423 0 -424 0 -37 16 c-26
11 -72 15 -166 15 -92 0 -139 4 -165 15 -19 8 -53 15 -75 15 -21 0 -55 7 -75
15 -19 8 -45 15 -57 15 -12 0 -60 13 -106 30 -53 18 -105 30 -138 30 -29 0
-69 7 -89 15 -19 8 -52 15 -72 15 -39 0 -156 37 -220 69 -22 12 -46 21 -53 21
-7 0 -42 14 -76 30 -35 17 -75 30 -88 30 -14 0 -55 18 -92 40 -37 23 -78 43
-92 47 -14 3 -46 18 -71 34 -25 16 -52 29 -60 29 -8 0 -52 25 -98 55 -45 31
-104 66 -130 80 -27 13 -72 46 -102 73 -55 50 -125 92 -154 92 l-16 0 3 -57 3
-56 59 -41 c32 -22 68 -54 78 -73 20 -33 96 -90 184 -138 27 -14 74 -42 104
-61 30 -19 71 -39 90 -44 47 -13 136 -56 174 -85 33 -25 231 -95 269 -95 12 0
47 -12 77 -26 68 -31 163 -64 188 -64 10 0 56 -13 102 -30 63 -22 103 -30 155
-30 l70 0 63 -30 64 -30 84 0 c53 0 98 -6 121 -15 19 -8 53 -15 75 -15 21 0
55 -7 75 -15 22 -9 68 -15 124 -15 48 0 91 -4 94 -10 8 -14 822 -14 830 0 3 6
32 10 64 10 32 0 75 7 94 15 20 8 54 15 76 15 23 0 67 13 104 30 36 16 76 30
90 30 13 0 41 7 60 15 20 8 48 15 62 15 34 0 214 91 244 124 14 14 33 26 42
26 23 0 86 83 129 168 l31 64 -10 30 c-6 17 -11 62 -11 100 0 83 -16 119 -101
223 -53 66 -93 108 -214 224 -48 45 -138 119 -180 145 -16 11 -57 45 -90 76
-33 31 -76 66 -95 79 -20 13 -48 41 -64 62 -15 22 -49 50 -74 63 -54 28 -72
45 -100 102 -11 22 -37 53 -58 69 -46 35 -80 106 -64 135 l11 20 100 0 c66 0
112 -5 136 -15 20 -8 66 -15 105 -15 38 0 84 -7 105 -15 27 -11 77 -15 210
-15 132 0 182 -4 210 -15 20 -8 66 -15 105 -15 38 0 84 -7 105 -15 23 -10 69
-15 135 -15 65 0 111 -5 135 -15 47 -20 175 -20 213 0 34 18 41 58 12 74 -61
33 -146 51 -237 51 -62 0 -108 5 -132 15 -25 11 -72 15 -165 15 -92 0 -139 4
-165 15 -19 8 -53 15 -75 15 -21 0 -55 7 -75 15 -19 8 -53 15 -75 15 -21 0
-55 7 -75 15 -20 8 -66 15 -105 15 -38 0 -84 7 -105 15 -24 10 -70 15 -147 15
-83 0 -125 5 -164 18 -29 10 -55 22 -59 25 -3 4 -48 7 -98 7 l-92 0 -41 -38z"/>
</g>
</svg>
