<?xml version="1.0" standalone="no"?>
<!DOCTYPE svg PUBLIC "-//W3C//DTD SVG 20010904//EN"
 "http://www.w3.org/TR/2001/REC-SVG-20010904/DTD/svg10.dtd">
<svg version="1.0" xmlns="http://www.w3.org/2000/svg"
 width="768.000000pt" height="219.000000pt" viewBox="0 0 768.000000 219.000000"
 preserveAspectRatio="xMidYMid meet">
<metadata>
Created by potrace 1.16, written by Peter Selinger 2001-2019
</metadata>
<g transform="translate(0.000000,219.000000) scale(0.100000,-0.100000)"
fill="#000000" stroke="none">
<path d="M5538 2146 l-28 -44 0 -71 c0 -94 30 -183 79 -236 20 -22 55 -62 76
-90 22 -27 109 -119 193 -204 109 -109 164 -156 188 -163 20 -5 45 -23 60 -44
15 -19 44 -44 64 -54 48 -24 168 -105 200 -135 14 -13 59 -40 100 -60 41 -21
96 -55 122 -76 33 -28 73 -48 134 -67 61 -19 99 -38 128 -63 42 -37 96 -69
117 -69 21 0 154 -68 173 -89 10 -11 15 -25 11 -30 -4 -7 -96 -11 -276 -11
l-270 0 -36 15 c-28 12 -82 15 -255 15 -172 0 -226 3 -255 15 l-35 15 -295 0
-294 0 -36 15 -35 15 -280 0 -279 0 -36 15 -35 15 -265 0 -264 0 -36 15 c-23
10 -68 15 -128 15 l-92 0 -15 -17 c-55 -63 -61 -128 -18 -193 16 -25 30 -57
30 -71 0 -32 -45 -95 -97 -137 -49 -39 -163 -92 -196 -92 -14 0 -55 -14 -90
-30 -36 -17 -76 -30 -90 -30 -13 0 -41 -7 -60 -15 l-36 -15 -324 0 -325 0 -35
-15 c-51 -21 -333 -21 -384 0 l-35 15 -295 0 -294 0 -36 15 c-20 8 -66 15
-105 15 -38 0 -84 7 -105 15 -19 8 -53 15 -75 15 -21 0 -55 7 -75 15 -19 8
-53 15 -75 15 -21 0 -55 7 -75 15 -20 8 -66 15 -105 15 -38 0 -84 7 -105 15
-19 8 -51 15 -71 15 -19 0 -116 27 -214 60 -98 33 -186 60 -195 60 -25 0 -153
44 -204 70 -23 12 -60 35 -82 51 l-40 29 -64 0 -63 0 0 -39 0 -39 32 -24 c43
-33 105 -64 145 -73 18 -3 58 -24 90 -46 36 -24 70 -39 88 -39 17 0 59 -14 93
-30 35 -17 73 -30 85 -30 11 0 101 -27 199 -60 l178 -60 65 0 c36 0 82 -7 102
-15 22 -9 67 -15 120 -15 52 0 97 -6 120 -15 19 -8 53 -15 75 -15 21 0 55 -7
75 -15 19 -8 60 -15 90 -15 29 0 70 -7 90 -15 22 -9 67 -15 120 -15 52 0 97
-6 120 -15 27 -12 80 -15 229 -15 118 0 195 -4 199 -10 8 -14 402 -14 410 0 4
6 96 10 244 10 189 0 246 3 274 15 20 8 61 15 90 15 30 0 71 7 90 15 20 8 54
15 76 15 23 0 67 13 104 30 36 16 82 30 101 30 63 0 152 38 259 110 127 85
172 133 216 230 18 41 37 82 41 90 l7 15 609 3 c381 1 620 -2 637 -8 20 -6 42
-6 72 2 l43 12 44 -17 44 -17 187 0 c144 0 196 -3 224 -15 27 -12 79 -15 225
-15 145 0 197 -3 225 -15 27 -12 81 -15 240 -15 158 0 212 -3 240 -15 26 -11
74 -15 179 -15 110 0 153 -4 185 -17 l41 -16 47 16 c25 10 70 17 99 17 29 0
66 7 82 15 l30 16 -1 42 c0 23 -10 60 -22 82 l-22 40 -45 7 c-25 3 -63 15 -86
27 -22 11 -96 38 -163 60 -67 23 -135 49 -149 60 -37 26 -221 117 -252 124
-14 4 -43 22 -65 40 -45 38 -164 101 -211 111 -17 4 -60 31 -95 61 -35 30 -94
71 -131 90 -37 20 -92 58 -122 86 -31 28 -71 55 -91 60 -19 5 -43 22 -52 36
-34 51 -101 113 -120 113 -13 0 -36 21 -63 58 -24 31 -64 77 -89 103 -107 106
-198 260 -174 298 19 30 60 37 112 18 37 -13 82 -17 190 -17 103 0 151 -4 178
-15 20 -8 66 -15 105 -15 38 0 84 -7 105 -15 l35 -15 327 0 c345 0 368 3 360
45 -3 11 -22 30 -44 42 l-40 23 -178 0 c-135 0 -186 4 -214 15 -20 8 -66 15
-105 15 -38 0 -84 7 -105 15 -24 10 -71 15 -150 15 -78 0 -125 5 -150 15 -24
10 -71 15 -150 15 -78 0 -125 5 -150 15 -19 8 -48 15 -64 15 -15 0 -31 5 -34
10 -3 6 -47 10 -98 10 l-92 -1 -27 -43z"/>
</g>
</svg>
