<?xml version="1.0" standalone="no"?>
<!DOCTYPE svg PUBLIC "-//W3C//DTD SVG 20010904//EN"
 "http://www.w3.org/TR/2001/REC-SVG-20010904/DTD/svg10.dtd">
<svg version="1.0" xmlns="http://www.w3.org/2000/svg"
 width="864.000000pt" height="108.000000pt" viewBox="0 0 864.000000 108.000000"
 preserveAspectRatio="xMidYMid meet">
<metadata>
Created by potrace 1.16, written by Peter Selinger 2001-2019
</metadata>
<g transform="translate(0.000000,108.000000) scale(0.100000,-0.100000)"
fill="#000000" stroke="none">
<path d="M4325 1070 c-4 -6 -76 -10 -184 -10 -136 0 -187 -4 -214 -15 -20 -8
-61 -15 -92 -15 -61 0 -108 -19 -188 -77 -71 -52 -87 -91 -87 -213 0 -67 -5
-113 -15 -137 -8 -19 -15 -60 -15 -90 0 -65 -16 -105 -70 -177 l-42 -56 -121
-60 c-90 -45 -131 -60 -163 -60 -23 0 -58 -7 -77 -15 l-36 -15 -353 0 -354 0
-22 16 c-31 21 -28 39 18 96 l40 51 0 62 c0 49 -7 77 -30 127 -16 34 -30 78
-30 96 l0 34 -62 65 c-36 37 -86 77 -118 93 -30 15 -83 53 -118 84 l-63 56
-42 0 c-24 0 -81 13 -127 30 -47 16 -102 30 -123 30 -21 0 -54 7 -74 15 -26
11 -74 15 -187 15 l-151 -1 -100 -52 -100 -52 -22 -40 c-24 -43 -29 -116 -14
-205 11 -70 145 -240 189 -240 12 0 30 -13 42 -30 15 -20 30 -30 48 -30 15 0
34 -4 42 -10 28 -17 -8 -28 -57 -16 -20 4 -47 3 -67 -4 l-34 -11 -37 16 c-26
10 -71 15 -152 15 -78 0 -125 5 -150 15 -22 9 -67 15 -120 15 -52 0 -97 6
-120 15 -22 9 -67 15 -120 15 -52 0 -97 6 -120 15 -26 11 -75 15 -184 15
l-149 0 0 -40 0 -40 33 0 c17 -1 43 -7 57 -15 14 -8 39 -14 56 -15 20 0 40
-10 59 -30 l29 -30 193 0 c150 0 202 -3 230 -15 23 -10 69 -15 135 -15 65 0
111 -5 135 -15 24 -10 71 -15 150 -15 78 0 125 -5 150 -15 25 -11 72 -15 165
-15 92 0 139 -4 165 -15 19 -8 60 -15 90 -15 29 0 70 -7 90 -15 23 -10 69 -15
135 -15 l99 0 55 -25 c75 -34 168 -65 198 -65 14 0 28 -4 31 -10 7 -11 847
-15 858 -3 12 11 110 43 133 43 13 0 52 13 87 30 36 16 71 30 79 30 15 0 120
69 157 103 12 12 47 70 77 129 l54 108 0 55 c0 31 7 72 15 92 8 20 15 66 15
107 0 75 21 138 55 166 10 8 50 18 89 21 70 7 118 17 206 45 26 8 86 14 141
14 63 0 109 5 132 15 46 19 467 22 528 3 30 -9 48 -8 77 1 l38 13 38 -16 c25
-10 68 -16 123 -16 52 0 97 -6 120 -15 24 -10 71 -15 150 -15 78 0 125 -5 150
-15 20 -8 66 -15 104 -15 37 0 80 -5 96 -12 15 -6 62 -15 103 -18 41 -4 109
-19 150 -33 102 -34 154 -47 225 -56 34 -5 70 -13 82 -19 12 -7 40 -12 63 -12
22 0 57 -7 77 -15 19 -8 45 -15 56 -15 33 0 236 -71 320 -112 43 -21 88 -38
100 -38 34 0 135 -38 176 -66 19 -13 42 -24 51 -24 8 0 35 -14 60 -30 25 -16
51 -30 59 -30 26 0 181 -80 219 -113 46 -41 109 -61 147 -47 15 6 135 10 286
10 l260 0 36 -15 c51 -22 322 -21 363 0 l30 16 0 39 0 39 -30 16 c-38 20 -101
19 -161 -2 l-49 -18 -49 18 c-38 13 -82 17 -205 17 -117 0 -166 4 -193 15 -22
9 -67 15 -120 15 -52 0 -97 6 -120 15 -19 8 -47 15 -62 15 -14 0 -68 20 -119
45 -52 25 -99 45 -105 45 -7 0 -32 14 -57 30 -25 17 -58 30 -75 30 -16 0 -59
14 -93 30 -35 17 -69 30 -75 30 -7 0 -32 14 -57 30 -25 16 -58 30 -75 30 -16
0 -50 14 -75 30 l-45 30 -55 0 c-36 0 -86 11 -140 30 -47 16 -94 30 -105 30
-10 0 -60 13 -110 29 -141 45 -174 53 -270 60 -49 4 -97 11 -105 16 -8 6 -55
13 -105 16 -49 3 -103 11 -120 17 -50 18 -117 33 -175 41 -35 4 -70 17 -95 34
l-40 27 -332 0 c-210 0 -334 4 -338 10 -4 6 -108 10 -280 10 -172 0 -276 -4
-280 -10z m-2798 -195 c19 -8 54 -15 77 -15 25 0 66 -12 104 -30 35 -17 69
-30 74 -30 6 0 49 -18 95 -40 114 -55 209 -149 264 -263 48 -99 52 -155 14
-192 l-24 -25 -178 0 -178 0 -93 45 c-52 25 -98 45 -104 45 -5 0 -39 14 -75
30 -35 17 -69 30 -75 30 -15 0 -103 55 -158 99 -25 20 -57 44 -72 54 -18 11
-28 26 -28 41 0 13 -7 40 -15 59 -20 49 -19 75 7 113 26 38 67 64 101 64 14 0
40 7 58 15 45 19 160 19 206 0z"/>
</g>
</svg>
