<?xml version="1.0" standalone="no"?>
<!DOCTYPE svg PUBLIC "-//W3C//DTD SVG 20010904//EN"
 "http://www.w3.org/TR/2001/REC-SVG-20010904/DTD/svg10.dtd">
<svg version="1.0" xmlns="http://www.w3.org/2000/svg"
 width="675.000000pt" height="204.000000pt" viewBox="0 0 675.000000 204.000000"
 preserveAspectRatio="xMidYMid meet">
<metadata>
Created by potrace 1.16, written by Peter Selinger 2001-2019
</metadata>
<g transform="translate(0.000000,204.000000) scale(0.100000,-0.100000)"
fill="#000000" stroke="none">
<path d="M3709 2013 c-45 -50 -79 -101 -79 -120 0 -31 25 -102 40 -116 8 -7
40 -21 70 -31 l56 -18 59 20 c62 21 98 56 112 110 8 34 -34 118 -78 153 l-37
29 -59 0 -59 0 -25 -27z"/>
<path d="M41 1924 c-12 -15 -21 -41 -21 -60 0 -18 -4 -36 -10 -39 -6 -3 -10
-48 -10 -100 0 -52 4 -97 10 -100 6 -3 10 -19 10 -34 0 -16 7 -45 15 -64 8
-20 15 -50 15 -66 0 -22 14 -46 55 -92 31 -34 59 -78 65 -98 6 -22 28 -55 56
-81 25 -25 61 -66 79 -91 19 -25 53 -59 75 -74 22 -15 57 -50 76 -77 23 -30
54 -58 84 -73 26 -13 71 -46 101 -73 30 -27 77 -61 104 -75 28 -14 86 -56 130
-95 44 -38 96 -77 115 -86 19 -10 53 -37 75 -60 l40 -42 116 -38 c88 -28 128
-47 164 -77 29 -24 58 -39 74 -39 15 0 65 -13 111 -30 47 -16 103 -30 125 -30
26 0 72 -16 133 -45 62 -30 107 -45 133 -45 22 0 56 -7 76 -15 22 -9 67 -15
120 -15 52 0 97 -6 120 -15 19 -8 60 -15 90 -15 29 0 70 -7 90 -15 23 -10 69
-15 135 -15 65 0 111 -5 135 -15 25 -10 71 -15 154 -15 68 0 120 -4 124 -10 8
-13 72 -13 80 0 8 13 62 13 70 0 8 -13 72 -13 80 0 3 6 40 10 81 10 42 0 85 6
97 12 12 7 76 15 142 19 112 6 166 15 240 41 17 6 71 14 120 18 88 8 132 17
225 46 25 8 56 14 70 14 14 0 45 14 70 30 25 16 56 30 70 30 14 0 63 14 110
30 46 17 96 30 112 30 19 0 46 17 89 55 34 31 74 58 88 62 42 10 114 49 136
73 11 13 38 36 59 51 l39 29 432 0 432 0 43 -32 c117 -88 166 -118 195 -118
17 0 44 -9 60 -21 17 -11 73 -42 126 -69 223 -113 320 -118 447 -22 l32 24 0
82 -1 81 -77 71 c-100 92 -107 96 -312 155 -60 17 -539 25 -592 9 -28 -8 -48
-8 -77 1 l-40 12 -40 -17 c-52 -20 -130 -21 -178 -1 -26 11 -75 15 -184 15
l-148 0 -11 19 c-13 25 -13 72 0 106 14 36 -4 94 -68 221 -34 68 -62 110 -87
130 -51 40 -97 86 -118 117 -10 16 -33 31 -56 37 -45 12 -73 26 -117 57 -16
12 -58 31 -92 42 l-61 21 -175 0 -175 0 -64 -30 c-36 -17 -72 -30 -79 -30 -26
0 -163 -118 -181 -155 -12 -25 -17 -61 -17 -117 l0 -80 82 -84 c53 -54 93 -87
115 -93 18 -5 45 -18 61 -30 16 -11 69 -33 118 -49 49 -16 103 -36 120 -45 44
-23 150 -57 176 -57 13 0 43 -14 68 -30 27 -18 58 -30 77 -30 22 0 44 -10 65
-29 l33 -30 -20 -36 c-25 -48 -73 -85 -122 -92 -49 -7 -138 -36 -207 -68 -30
-14 -59 -25 -65 -25 -5 0 -39 -14 -74 -30 -36 -17 -77 -30 -92 -30 -14 0 -36
-5 -48 -12 -12 -6 -48 -14 -82 -19 -62 -8 -117 -20 -195 -45 -25 -8 -61 -14
-81 -14 -20 0 -53 -7 -72 -15 -21 -8 -67 -15 -105 -15 -39 0 -85 -7 -105 -15
l-36 -15 -320 0 c-221 0 -328 4 -348 12 -25 10 -114 23 -233 32 -72 6 -183 24
-215 34 -71 24 -126 35 -210 41 -49 4 -100 12 -112 19 -12 7 -34 12 -48 12
-15 0 -56 13 -92 30 -35 16 -76 30 -90 30 -13 0 -54 13 -90 30 -35 16 -74 30
-87 30 -30 0 -135 38 -167 61 -37 26 -226 119 -242 119 -8 0 -33 15 -57 33
-24 17 -62 45 -84 61 -23 16 -62 47 -88 70 -44 38 -84 69 -218 167 -30 22 -65
52 -77 67 -12 16 -41 41 -66 56 -24 16 -57 49 -73 73 -15 25 -49 59 -74 75
-32 21 -66 60 -108 122 -35 50 -76 109 -92 130 -17 21 -30 51 -30 66 0 15 -7
44 -15 63 -11 26 -15 74 -15 170 l0 134 -21 27 c-13 17 -30 26 -49 26 -19 0
-36 -9 -49 -26z m4461 -621 l109 -36 59 -51 c32 -28 70 -59 85 -70 40 -27 125
-207 125 -263 l0 -43 -34 -37 -33 -37 -40 12 c-22 7 -56 12 -75 12 -49 0 -134
33 -166 63 -21 20 -38 27 -68 27 -74 0 -250 74 -377 157 -71 47 -87 67 -87
106 0 55 115 167 170 167 15 0 43 7 61 15 61 26 150 19 271 -22z m1917 -775
c81 -39 112 -61 141 -100 17 -23 19 -32 10 -44 -16 -18 -71 -18 -117 1 -19 8
-47 15 -62 15 -28 0 -54 15 -109 62 -18 15 -41 28 -52 28 -25 0 -41 29 -29 52
l10 18 71 0 71 0 66 -32z"/>
</g>
</svg>
