<?xml version="1.0" standalone="no"?>
<!DOCTYPE svg PUBLIC "-//W3C//DTD SVG 20010904//EN"
 "http://www.w3.org/TR/2001/REC-SVG-20010904/DTD/svg10.dtd">
<svg version="1.0" xmlns="http://www.w3.org/2000/svg"
 width="330.000000pt" height="171.000000pt" viewBox="0 0 330.000000 171.000000"
 preserveAspectRatio="xMidYMid meet">
<metadata>
Created by potrace 1.16, written by Peter Selinger 2001-2019
</metadata>
<g transform="translate(0.000000,171.000000) scale(0.100000,-0.100000)"
fill="#000000" stroke="none">
<path d="M452 1672 l-42 -39 0 -43 0 -43 44 -43 43 -44 72 0 73 0 29 29 29 29
0 63 c0 34 -5 78 -12 96 l-12 33 -91 0 -92 0 -41 -38z"/>
<path d="M782 1189 c-48 -17 -126 -71 -194 -133 -41 -37 -36 -68 19 -127 26
-28 64 -59 83 -69 60 -31 248 -90 285 -90 20 0 52 -7 72 -15 19 -8 60 -15 90
-15 29 0 70 -7 90 -15 19 -8 60 -15 90 -15 29 0 70 -7 90 -15 24 -10 71 -15
150 -15 78 0 125 -5 150 -15 l35 -15 355 0 355 0 66 -31 c37 -17 87 -48 112
-69 68 -57 181 -110 233 -110 l43 0 29 -30 29 -30 93 0 94 0 42 21 c23 12 57
33 75 47 l32 24 0 83 0 82 -48 40 c-76 65 -121 83 -202 83 -40 0 -86 6 -107
15 l-35 15 -580 0 -579 0 -36 15 c-24 10 -71 15 -150 15 -78 0 -125 5 -150 15
-19 8 -47 15 -62 15 -41 0 -51 17 -51 89 l0 65 -105 103 -105 103 -127 -1
c-97 -1 -141 -6 -181 -20z m303 -180 c19 -17 35 -39 35 -49 0 -45 -86 -64
-157 -35 -19 8 -48 15 -63 15 -31 0 -90 43 -90 65 0 26 35 34 137 35 l102 0
36 -31z m1864 -389 c34 -23 55 -30 92 -30 53 0 76 -20 58 -53 -8 -13 -23 -17
-68 -17 l-58 0 -25 28 c-14 16 -47 39 -74 52 -61 29 -61 29 -44 40 28 18 75
10 119 -20z"/>
<path d="M28 744 c-46 -24 -36 -50 47 -126 96 -89 154 -129 284 -194 58 -29
128 -71 155 -93 32 -28 58 -41 78 -41 27 0 90 -32 218 -113 30 -19 67 -37 81
-41 14 -3 59 -35 99 -71 l75 -65 57 0 58 0 0 30 c0 52 -35 106 -96 147 -30 21
-83 59 -116 86 -34 26 -68 47 -75 47 -15 0 -106 51 -204 114 -30 20 -61 36
-68 36 -19 0 -81 30 -116 56 -16 12 -76 46 -132 74 -57 28 -142 78 -190 110
-92 63 -111 68 -155 44z"/>
</g>
</svg>
