<?xml version="1.0" standalone="no"?>
<!DOCTYPE svg PUBLIC "-//W3C//DTD SVG 20010904//EN"
 "http://www.w3.org/TR/2001/REC-SVG-20010904/DTD/svg10.dtd">
<svg version="1.0" xmlns="http://www.w3.org/2000/svg"
 width="510.000000pt" height="189.000000pt" viewBox="0 0 510.000000 189.000000"
 preserveAspectRatio="xMidYMid meet">
<metadata>
Created by potrace 1.16, written by Peter Selinger 2001-2019
</metadata>
<g transform="translate(0.000000,189.000000) scale(0.100000,-0.100000)"
fill="#000000" stroke="none">
<path d="M60 1865 c-7 -14 -24 -32 -37 -40 -17 -12 -23 -25 -23 -54 l0 -39 32
-24 c49 -37 114 -68 143 -68 14 0 42 -7 62 -15 19 -8 48 -15 63 -15 63 0 220
-164 220 -230 0 -14 -112 -50 -156 -50 -24 0 -64 6 -90 12 l-46 13 -14 -20
c-35 -47 -6 -115 49 -115 15 0 45 -7 67 -16 29 -12 53 -14 83 -9 23 4 62 8 87
9 59 3 95 23 153 85 l47 50 0 36 c0 51 -33 110 -107 188 -58 62 -83 101 -83
128 0 14 77 11 117 -6 19 -8 45 -15 57 -15 12 0 60 -13 106 -30 55 -19 105
-30 140 -30 l56 0 150 -74 c83 -41 165 -77 182 -81 17 -3 50 -24 74 -45 24
-21 89 -61 144 -89 60 -30 125 -72 162 -105 35 -31 72 -56 83 -56 12 0 42 -22
68 -49 26 -27 74 -66 106 -87 33 -20 87 -63 120 -94 33 -31 72 -64 87 -73 15
-10 60 -46 100 -81 40 -35 91 -72 113 -83 49 -26 66 -44 99 -110 19 -38 40
-61 79 -87 30 -20 62 -45 72 -56 10 -11 35 -25 56 -30 25 -7 48 -23 65 -46 15
-19 78 -69 141 -111 63 -41 132 -91 155 -109 22 -19 47 -34 55 -34 24 0 84
-31 140 -72 l52 -38 88 0 88 1 35 50 c19 27 34 57 32 67 -1 9 -6 39 -11 65
l-8 49 -94 94 c-69 69 -104 97 -132 105 -45 12 -58 36 -32 55 l19 14 383 0
384 0 67 -40 c36 -22 83 -45 103 -50 23 -6 48 -24 66 -46 l28 -35 100 -34 c74
-25 118 -34 168 -35 37 0 84 -7 104 -15 23 -10 69 -15 135 -15 111 0 196 22
254 67 l34 25 0 73 0 73 -53 56 -53 56 -62 0 c-35 0 -79 7 -99 15 -23 10 -69
15 -135 15 -65 0 -111 5 -135 15 -23 10 -69 15 -134 15 -66 0 -111 5 -138 16
l-39 16 -149 -6 c-318 -12 -458 -16 -710 -21 l-261 -6 -37 16 c-22 8 -67 15
-107 15 -38 0 -84 7 -105 15 -47 20 -137 19 -189 -1 l-43 -16 -61 38 c-34 21
-70 49 -79 62 -43 64 -85 102 -122 112 -26 7 -66 36 -123 89 -118 110 -226
195 -283 225 -59 31 -70 40 -111 92 -22 29 -42 44 -66 48 -18 4 -54 24 -78 45
-24 22 -95 65 -158 97 -63 32 -130 72 -150 89 -20 18 -66 41 -110 55 -41 13
-110 41 -153 62 -43 21 -83 38 -90 38 -7 0 -41 14 -75 30 -37 18 -80 30 -103
30 -22 0 -56 7 -76 15 -19 8 -53 15 -75 15 -21 0 -55 7 -75 15 -19 8 -53 15
-74 15 -35 0 -69 20 -69 41 0 5 -93 9 -223 9 l-224 0 -13 -25z m4510 -1394
c69 -3 135 -12 147 -19 12 -6 39 -12 60 -12 45 0 123 -30 123 -47 0 -7 -19
-22 -41 -34 l-42 -21 -41 16 c-23 9 -59 16 -79 16 -21 0 -54 7 -74 15 -19 8
-47 15 -62 15 -14 1 -37 7 -51 15 -14 8 -41 14 -61 15 -44 0 -75 21 -66 45 6
13 13 16 35 10 15 -4 83 -10 152 -14z m-1472 -97 c104 -49 134 -94 61 -94
l-40 0 -55 51 c-80 76 -68 90 34 43z m177 -135 c11 -17 -1 -21 -15 -4 -8 9 -8
15 -2 15 6 0 14 -5 17 -11z"/>
<path d="M2540 1484 c-25 -7 -55 -25 -67 -39 l-23 -26 0 -83 0 -83 18 -15 c35
-31 82 -48 133 -48 l52 0 43 44 44 43 0 70 c0 89 -18 115 -94 137 -30 9 -56
16 -58 15 -1 -1 -23 -7 -48 -15z"/>
</g>
</svg>
