<?xml version="1.0" standalone="no"?>
<!DOCTYPE svg PUBLIC "-//W3C//DTD SVG 20010904//EN"
 "http://www.w3.org/TR/2001/REC-SVG-20010904/DTD/svg10.dtd">
<svg version="1.0" xmlns="http://www.w3.org/2000/svg"
 width="306.000000pt" height="582.000000pt" viewBox="0 0 306.000000 582.000000"
 preserveAspectRatio="xMidYMid meet">
<metadata>
Created by potrace 1.16, written by Peter Selinger 2001-2019
</metadata>
<g transform="translate(0.000000,582.000000) scale(0.100000,-0.100000)"
fill="#000000" stroke="none">
<path d="M125 5810 c-3 -5 -16 -10 -27 -10 -12 0 -38 -18 -60 -42 l-38 -41 0
-77 0 -76 27 -26 c51 -47 85 -58 185 -58 69 0 99 4 116 16 24 16 72 103 72
129 0 33 -51 115 -97 154 l-48 41 -62 0 c-34 0 -65 -4 -68 -10z"/>
<path d="M960 5198 l-35 -24 -3 -40 c-2 -28 2 -45 13 -54 25 -21 116 -49 159
-50 45 0 92 -26 124 -69 28 -38 28 -56 0 -75 -34 -24 -168 -21 -243 4 -82 29
-218 95 -267 130 -56 41 -109 41 -149 1 -16 -17 -29 -40 -29 -54 0 -36 36 -75
80 -87 51 -14 82 -30 138 -74 26 -21 68 -50 93 -65 34 -21 48 -37 52 -59 4
-17 18 -38 33 -49 15 -10 40 -30 55 -45 52 -48 31 -119 -40 -138 -47 -12 -111
-79 -111 -115 0 -35 64 -103 109 -115 20 -5 60 -21 89 -35 28 -14 58 -25 64
-25 21 0 192 -86 238 -119 24 -17 49 -31 57 -31 14 0 99 -47 203 -113 30 -19
74 -44 96 -56 23 -11 66 -42 95 -68 30 -27 70 -59 90 -72 20 -13 46 -39 59
-58 12 -18 44 -49 69 -67 81 -60 228 -219 239 -260 6 -20 33 -61 60 -90 38
-43 55 -73 79 -143 17 -48 41 -112 54 -141 l23 -52 -13 -48 c-16 -63 -23 -68
-69 -54 -22 7 -57 12 -78 12 -23 0 -52 9 -69 21 -92 62 -315 159 -367 159 -13
0 -79 27 -146 60 -68 33 -133 60 -145 60 -33 0 -227 68 -258 91 -21 15 -106
48 -126 49 -1 0 -18 -14 -38 -31 -24 -21 -35 -40 -35 -58 0 -32 18 -50 80 -81
25 -12 65 -39 90 -59 25 -20 59 -45 75 -56 17 -10 57 -44 90 -75 33 -31 79
-69 103 -84 23 -16 58 -50 77 -76 19 -26 47 -56 63 -66 15 -9 54 -43 87 -74
33 -31 76 -67 96 -80 21 -13 51 -45 68 -72 17 -26 51 -64 75 -84 25 -20 56
-59 71 -85 17 -32 43 -60 74 -81 48 -31 81 -72 81 -101 0 -9 19 -30 43 -49 53
-41 62 -52 93 -113 15 -27 36 -61 49 -75 27 -30 135 -190 135 -201 0 -4 19
-30 43 -57 32 -38 49 -72 70 -141 16 -49 44 -116 64 -148 37 -62 73 -154 73
-188 0 -11 14 -58 30 -105 l30 -84 0 -224 0 -224 -40 -122 c-50 -148 -85 -214
-128 -241 -86 -53 -97 -62 -100 -83 l-3 -22 90 0 c50 0 91 4 91 9 0 5 21 33
48 63 86 96 152 206 152 251 0 12 13 61 30 107 l30 85 0 221 c0 175 -3 229
-15 257 -8 20 -15 54 -15 75 0 22 -7 56 -15 75 -8 20 -15 48 -15 61 0 14 -34
93 -75 177 -41 83 -75 158 -75 166 0 8 -19 36 -43 62 -42 48 -59 76 -94 161
-10 25 -42 72 -72 105 -29 33 -62 78 -73 100 -11 22 -41 61 -67 86 -55 55
-144 162 -170 204 -26 41 -446 454 -499 489 -45 31 -122 116 -122 135 0 6 8
11 18 11 23 0 151 -44 199 -68 21 -11 53 -23 70 -27 18 -3 58 -24 90 -46 32
-21 65 -39 74 -39 9 0 34 -13 55 -30 21 -16 62 -45 89 -64 28 -19 66 -51 84
-70 22 -23 44 -36 60 -36 42 0 88 36 115 88 14 28 43 64 66 82 l40 32 0 63 c0
34 -7 79 -15 98 -8 20 -15 48 -15 62 0 14 -11 47 -24 73 -13 26 -34 82 -47
125 l-24 79 -38 30 c-21 17 -49 53 -63 81 -14 27 -43 75 -64 106 -40 59 -151
171 -168 171 -6 0 -53 39 -105 88 -90 82 -135 119 -231 185 -23 16 -59 46 -81
67 -40 38 -112 80 -137 80 -8 0 -54 27 -103 60 -50 33 -96 60 -104 60 -38 0
-286 143 -303 174 -7 13 -1 30 21 65 l31 48 0 65 0 66 -35 43 c-51 60 -58 75
-45 99 l11 20 95 0 95 0 53 50 c29 28 61 68 71 91 l19 40 -13 49 c-7 27 -10
58 -6 70 9 28 49 35 98 16 l43 -16 274 0 274 0 65 -22 66 -22 91 -88 c49 -48
117 -105 150 -128 l59 -40 45 0 c33 0 57 -8 90 -30 l45 -30 78 0 c89 0 131 17
209 84 l48 41 0 35 -1 35 -62 56 c-78 70 -191 129 -247 129 -22 0 -57 7 -77
15 -19 8 -53 15 -75 15 -21 0 -55 7 -75 15 -23 10 -69 15 -134 15 -54 0 -110
5 -126 12 -15 7 -98 16 -183 20 -85 4 -175 10 -200 13 -25 3 -124 8 -220 13
-96 4 -182 12 -190 17 -8 6 -103 13 -210 17 -107 3 -211 9 -230 13 -27 5 -43
1 -70 -17z m1667 -254 c31 -14 90 -36 132 -50 114 -37 140 -71 77 -100 l-33
-16 -39 18 c-21 10 -57 31 -78 46 -21 15 -45 28 -53 28 -22 0 -98 37 -113 55
-10 12 -10 18 0 30 18 21 43 19 107 -11z"/>
</g>
</svg>
