<?xml version="1.0" standalone="no"?>
<!DOCTYPE svg PUBLIC "-//W3C//DTD SVG 20010904//EN"
 "http://www.w3.org/TR/2001/REC-SVG-20010904/DTD/svg10.dtd">
<svg version="1.0" xmlns="http://www.w3.org/2000/svg"
 width="267.000000pt" height="222.000000pt" viewBox="0 0 267.000000 222.000000"
 preserveAspectRatio="xMidYMid meet">
<metadata>
Created by potrace 1.16, written by Peter Selinger 2001-2019
</metadata>
<g transform="translate(0.000000,222.000000) scale(0.100000,-0.100000)"
fill="#000000" stroke="none">
<path d="M90 2194 c-8 -14 -31 -39 -52 -56 l-38 -30 0 -52 0 -53 49 -41 c26
-23 70 -51 97 -63 57 -25 90 -41 159 -80 39 -23 63 -29 110 -29 46 0 75 -7
123 -30 35 -17 73 -30 85 -30 24 0 145 -39 168 -54 9 -6 52 -51 97 -99 54 -58
85 -100 91 -125 7 -23 30 -56 61 -87 62 -61 92 -107 84 -129 -10 -25 -50 -30
-97 -12 -24 9 -66 16 -95 16 -36 0 -72 8 -108 25 -71 33 -168 65 -194 65 -12
0 -46 11 -76 25 -34 16 -64 23 -78 19 -33 -8 -111 18 -181 60 -33 20 -69 38
-80 41 -11 2 -46 9 -77 16 l-57 12 -16 -13 c-22 -18 -19 -55 8 -84 22 -25 127
-66 167 -66 12 0 50 -17 85 -39 78 -47 225 -94 350 -111 33 -5 92 -20 130 -34
39 -14 88 -26 110 -26 23 0 66 -13 103 -30 35 -17 75 -30 88 -30 14 0 41 -7
61 -15 19 -8 47 -15 61 -15 17 0 44 -18 85 -57 33 -32 73 -70 89 -85 15 -14
28 -36 28 -48 0 -12 27 -49 64 -89 35 -37 75 -85 89 -107 30 -47 255 -269 352
-346 39 -31 84 -70 100 -88 17 -17 53 -43 80 -57 28 -14 64 -36 80 -49 51 -38
172 -94 204 -94 16 0 33 -5 36 -10 3 -6 34 -10 69 -10 l63 0 41 38 c24 22 42
48 42 60 0 11 5 24 10 27 12 8 13 208 1 233 -4 9 -18 39 -31 67 -12 27 -30 55
-40 62 -11 8 -38 40 -61 74 -24 34 -71 80 -109 109 -36 27 -74 58 -84 69 -11
12 -26 21 -35 21 -29 0 -145 61 -193 101 -32 27 -73 47 -135 67 -49 16 -102
36 -118 45 -39 20 -241 87 -262 87 -40 0 -147 46 -177 75 -55 55 -116 133
-116 149 0 9 -31 50 -70 92 -38 41 -73 87 -76 102 -4 15 -19 41 -34 57 -32 35
-50 67 -50 89 l0 16 303 0 302 0 26 -18 c15 -9 46 -34 70 -55 130 -112 217
-166 337 -206 48 -16 87 -21 177 -21 133 0 154 7 228 78 56 55 60 86 22 162
-28 56 -58 80 -98 80 -15 0 -44 7 -64 15 -19 8 -59 15 -87 15 -32 0 -84 11
-136 30 l-85 30 -143 0 c-104 0 -152 4 -179 15 -28 12 -86 15 -285 15 -198 0
-256 3 -285 15 -23 10 -69 15 -135 15 -113 0 -137 9 -180 69 -15 21 -68 66
-117 99 -85 58 -279 162 -301 162 -23 0 -101 42 -113 60 l-12 20 -106 0 -106
0 -13 -26z m224 -136 c28 -18 67 -45 86 -60 24 -19 46 -28 71 -28 35 0 89 -31
89 -50 0 -17 -39 -20 -71 -6 -19 8 -68 25 -109 37 -88 27 -170 67 -178 88 -5
14 31 51 51 51 6 0 33 -14 61 -32z m1783 -463 c19 -8 52 -15 72 -15 38 0 146
-34 170 -53 l13 -11 -22 -18 c-17 -14 -40 -18 -95 -18 l-72 0 -41 30 c-23 17
-46 30 -50 30 -5 0 -19 11 -32 26 l-24 25 14 9 c20 13 25 12 67 -5z m-331
-729 c40 -14 103 -40 140 -59 38 -19 84 -38 101 -41 18 -4 75 -36 128 -71 52
-36 116 -75 142 -89 27 -13 83 -55 125 -92 60 -53 78 -75 78 -96 0 -14 13 -55
30 -90 31 -65 38 -115 20 -149 -16 -29 -98 -25 -199 10 -83 29 -151 78 -151
109 0 8 18 37 40 64 52 66 51 89 -4 144 l-43 44 -55 0 c-58 0 -79 -13 -92 -57
-4 -13 -11 -23 -15 -23 -25 0 -82 33 -98 57 -23 34 -92 103 -126 126 -16 10
-31 33 -37 57 -8 28 -26 53 -65 87 -100 87 -64 118 81 69z"/>
</g>
</svg>
