<?xml version="1.0" standalone="no"?>
<!DOCTYPE svg PUBLIC "-//W3C//DTD SVG 20010904//EN"
 "http://www.w3.org/TR/2001/REC-SVG-20010904/DTD/svg10.dtd">
<svg version="1.0" xmlns="http://www.w3.org/2000/svg"
 width="240.000000pt" height="111.000000pt" viewBox="0 0 240.000000 111.000000"
 preserveAspectRatio="xMidYMid meet">
<metadata>
Created by potrace 1.16, written by Peter Selinger 2001-2019
</metadata>
<g transform="translate(0.000000,111.000000) scale(0.100000,-0.100000)"
fill="#000000" stroke="none">
<path d="M380 1046 l0 -64 26 -31 c14 -17 58 -52 97 -78 89 -58 137 -102 137
-124 0 -18 -63 -79 -81 -79 -40 0 -306 162 -397 241 -38 33 -85 38 -133 14
l-30 -16 3 -61 3 -62 70 -58 c39 -32 93 -70 120 -84 28 -14 70 -43 95 -63 25
-20 84 -63 132 -95 48 -32 99 -73 113 -92 75 -98 72 -202 -5 -248 -22 -12 -55
-16 -153 -16 -138 0 -157 -4 -157 -30 0 -23 64 -80 90 -80 10 0 22 -4 25 -10
4 -6 61 -10 139 -10 l134 0 58 35 c33 20 64 41 71 48 18 19 53 132 53 172 0
55 -37 153 -76 200 -19 23 -34 45 -34 49 0 4 27 32 61 63 67 63 109 134 109
187 0 24 -10 46 -35 77 -51 60 -58 75 -45 99 13 25 74 27 127 5 19 -8 53 -15
75 -15 21 0 55 -7 75 -15 19 -8 53 -15 75 -15 21 0 55 -7 75 -15 19 -8 60 -15
90 -15 29 0 70 -7 90 -15 19 -8 60 -15 90 -15 65 0 134 -29 160 -66 111 -162
350 -294 530 -294 l78 0 82 85 83 85 0 74 0 74 -42 31 c-23 17 -53 31 -67 31
-15 0 -46 6 -71 14 -94 30 -138 38 -225 45 -49 4 -100 12 -112 19 -12 7 -47
12 -78 12 -30 0 -72 7 -92 15 -22 9 -67 15 -120 15 -52 0 -97 6 -120 15 -23
10 -69 15 -132 15 -55 0 -115 6 -141 14 -94 30 -138 38 -225 45 -49 4 -100 12
-112 19 -13 7 -64 12 -127 12 -59 0 -108 4 -111 10 -4 6 -57 10 -126 10 l-119
0 0 -64z m1670 -305 c113 -15 176 -71 107 -95 -21 -8 -40 -6 -76 7 -27 9 -60
17 -75 17 -19 0 -32 10 -51 40 -31 50 -31 54 3 46 15 -4 56 -10 92 -15z"/>
</g>
</svg>
