<?xml version="1.0" standalone="no"?>
<!DOCTYPE svg PUBLIC "-//W3C//DTD SVG 20010904//EN"
 "http://www.w3.org/TR/2001/REC-SVG-20010904/DTD/svg10.dtd">
<svg version="1.0" xmlns="http://www.w3.org/2000/svg"
 width="288.000000pt" height="369.000000pt" viewBox="0 0 288.000000 369.000000"
 preserveAspectRatio="xMidYMid meet">
<metadata>
Created by potrace 1.16, written by Peter Selinger 2001-2019
</metadata>
<g transform="translate(0.000000,369.000000) scale(0.100000,-0.100000)"
fill="#000000" stroke="none">
<path d="M288 3646 c-46 -73 -41 -85 81 -179 29 -23 61 -47 71 -52 49 -29 91
-98 71 -118 -12 -12 -116 38 -139 67 -18 24 -91 66 -113 66 -6 0 -30 20 -53
45 l-42 45 -44 0 -43 0 -39 -42 -38 -41 0 -178 0 -178 24 -36 c14 -20 32 -57
41 -83 33 -93 50 -126 88 -171 21 -25 40 -57 44 -71 3 -14 18 -38 34 -55 15
-16 38 -48 51 -70 28 -50 86 -126 157 -208 29 -34 64 -83 77 -109 13 -25 41
-59 63 -75 41 -29 71 -70 71 -97 0 -8 25 -34 55 -57 30 -22 70 -65 90 -94 19
-30 49 -64 67 -77 17 -13 59 -52 92 -88 159 -170 333 -342 370 -365 23 -14 57
-49 76 -78 28 -40 46 -55 80 -67 30 -10 52 -27 68 -50 38 -56 52 -69 155 -137
104 -70 155 -121 192 -193 13 -25 35 -56 49 -69 14 -14 26 -31 26 -38 0 -20
96 -208 135 -264 18 -27 37 -64 40 -81 4 -18 16 -50 27 -71 27 -55 68 -177 68
-207 0 -14 14 -45 30 -70 16 -25 30 -57 30 -72 l0 -28 58 0 59 0 12 38 13 38
-22 63 c-11 35 -32 80 -46 100 -16 24 -24 50 -24 77 0 23 -7 58 -15 77 -8 20
-15 48 -15 62 0 26 -82 198 -127 266 l-25 37 12 21 c16 31 78 28 157 -9 l64
-30 120 0 119 0 79 40 c54 27 91 54 120 87 l41 48 0 99 0 98 -26 32 c-14 17
-44 57 -65 89 -29 40 -55 65 -88 82 -27 13 -62 42 -79 63 -18 22 -50 46 -74
56 -24 10 -56 25 -73 33 -87 46 -143 79 -170 99 -46 33 -111 64 -138 64 -12 0
-61 13 -107 30 l-85 30 -123 0 -122 0 -46 -62 -46 -63 5 -60 c3 -33 9 -72 13
-87 l6 -28 -26 0 c-20 0 -55 27 -144 113 -64 62 -133 124 -153 137 -21 13 -50
45 -67 70 -17 25 -50 59 -75 74 -24 16 -57 48 -73 73 -15 24 -46 56 -68 71
-25 17 -52 48 -69 79 -17 32 -46 66 -76 87 -26 20 -61 55 -77 78 -16 24 -57
73 -91 111 -35 37 -76 94 -93 126 -18 36 -49 76 -80 103 -27 24 -50 49 -50 56
0 27 -40 90 -75 116 -23 18 -50 56 -76 109 -23 45 -52 96 -65 114 -35 46 -84
153 -84 183 0 13 -7 43 -16 67 -17 43 -13 93 8 93 6 0 76 -31 155 -70 l144
-70 64 0 64 0 36 32 c38 33 85 114 85 146 0 11 -12 37 -28 58 -42 60 -55 94
-41 110 15 18 71 18 116 -1 24 -10 71 -15 150 -15 78 0 125 -5 150 -15 24 -10
70 -15 140 -15 l104 0 24 -27 c23 -26 53 -56 163 -165 65 -64 132 -108 164
-108 16 0 45 -7 65 -15 21 -9 67 -15 114 -15 l79 0 39 35 c28 25 44 52 60 100
11 36 21 72 21 79 0 22 -89 136 -106 136 -22 0 -81 29 -128 62 -28 20 -51 28
-83 28 -24 0 -60 7 -80 15 -22 9 -67 15 -120 15 -52 0 -97 6 -120 15 -28 12
-82 15 -255 15 -172 0 -226 3 -255 15 -22 9 -67 15 -119 15 -45 0 -95 5 -111
12 -15 6 -62 14 -104 18 -54 4 -84 12 -106 28 l-31 22 -74 0 -73 -1 -27 -43z
m1462 -305 c56 -28 76 -44 78 -61 l4 -23 -19 8 c-10 4 -31 11 -48 15 -47 12
-100 37 -115 54 -10 13 -10 19 0 31 16 20 13 20 100 -24z m227 -1821 c35 -16
76 -30 91 -30 15 0 47 -14 72 -30 25 -17 58 -30 75 -30 31 0 61 -16 105 -56
14 -12 63 -41 110 -65 66 -32 103 -60 166 -123 45 -45 89 -99 99 -121 l17 -40
-12 -35 c-7 -19 -20 -43 -28 -53 -24 -27 -95 -57 -134 -57 -37 0 -125 28 -206
66 -29 13 -58 24 -65 24 -7 0 -59 24 -117 53 l-105 52 -50 77 c-83 128 -125
206 -125 231 0 14 -7 41 -15 60 -19 46 -19 72 1 91 22 23 47 20 121 -14z"/>
</g>
</svg>
