<?xml version="1.0" standalone="no"?>
<!DOCTYPE svg PUBLIC "-//W3C//DTD SVG 20010904//EN"
 "http://www.w3.org/TR/2001/REC-SVG-20010904/DTD/svg10.dtd">
<svg version="1.0" xmlns="http://www.w3.org/2000/svg"
 width="618.000000pt" height="252.000000pt" viewBox="0 0 618.000000 252.000000"
 preserveAspectRatio="xMidYMid meet">
<metadata>
Created by potrace 1.16, written by Peter Selinger 2001-2019
</metadata>
<g transform="translate(0.000000,252.000000) scale(0.100000,-0.100000)"
fill="#000000" stroke="none">
<path d="M0 2472 l0 -49 48 -40 c26 -22 71 -53 100 -68 29 -15 65 -44 82 -65
20 -25 41 -40 63 -44 19 -3 57 -26 86 -51 29 -25 56 -45 61 -45 4 0 30 -15 57
-34 28 -19 72 -46 99 -60 58 -30 119 -89 110 -105 -4 -7 -43 -11 -96 -11 l-90
0 -107 -36 c-116 -38 -151 -63 -184 -127 l-20 -37 15 -49 c22 -74 52 -125 91
-157 48 -38 95 -85 124 -123 12 -18 62 -57 109 -88 47 -31 99 -68 116 -83 34
-30 108 -70 129 -70 7 0 24 -12 38 -26 23 -25 207 -124 230 -124 6 0 40 -14
76 -30 35 -17 70 -30 76 -30 7 0 41 -14 75 -30 35 -17 75 -30 88 -30 13 0 42
-7 64 -16 40 -16 69 -15 145 5 22 6 52 13 66 16 37 7 93 48 97 70 2 11 18 51
35 88 l31 68 -17 47 c-10 26 -17 72 -17 101 l0 55 -45 68 c-25 37 -59 77 -75
88 -17 12 -30 30 -30 41 0 11 -12 31 -26 46 -28 28 -26 40 4 24 12 -6 37 -11
57 -11 20 0 66 -13 102 -30 35 -16 70 -30 76 -30 7 0 41 -14 75 -30 35 -17 68
-30 74 -30 19 0 136 -59 179 -89 23 -17 49 -31 56 -31 24 0 83 -31 165 -87 43
-29 105 -67 139 -84 34 -18 78 -46 98 -64 20 -18 54 -42 76 -53 22 -11 67 -43
100 -71 33 -28 74 -58 90 -67 75 -41 166 -108 186 -135 11 -16 43 -41 69 -54
27 -14 61 -40 76 -60 14 -19 54 -53 88 -76 60 -39 104 -72 210 -156 30 -22 69
-49 87 -59 19 -9 52 -36 74 -60 27 -29 75 -61 150 -98 61 -30 132 -73 159 -95
36 -31 57 -41 83 -41 23 0 42 -8 59 -25 l25 -25 132 0 132 1 30 41 c17 22 37
51 45 64 l14 23 -17 48 c-9 26 -17 58 -17 71 0 41 -39 101 -83 128 -56 35 -69
52 -56 75 l10 19 220 0 c173 0 227 -3 256 -15 26 -11 76 -15 194 -15 87 0 170
-5 185 -10 19 -7 37 -7 60 0 25 9 40 8 69 -5 21 -8 49 -15 64 -15 40 0 68 -25
101 -90 30 -60 87 -107 191 -160 24 -13 59 -34 78 -49 23 -17 54 -28 100 -34
132 -18 210 -8 259 34 18 16 37 29 42 29 6 0 10 44 10 103 l0 103 -27 26 c-44
41 -207 118 -250 118 -21 0 -58 6 -83 14 -105 33 -143 39 -285 45 -90 4 -159
11 -172 19 -16 9 -88 12 -258 12 -187 0 -243 3 -272 15 -26 11 -76 15 -195 15
-116 0 -168 4 -193 14 -27 12 -86 15 -267 14 l-233 0 -42 -43 c-53 -52 -55
-81 -11 -130 42 -49 116 -85 172 -85 53 0 106 -36 173 -118 46 -57 47 -60 34
-81 l-9 -15 -64 26 c-35 14 -88 34 -118 44 -30 10 -68 29 -83 43 -16 15 -48
37 -71 51 -123 71 -183 110 -201 130 -11 12 -36 30 -56 41 -58 29 -169 108
-238 168 -35 31 -78 60 -95 66 -18 6 -42 27 -59 53 -19 29 -47 52 -85 71 -32
16 -84 52 -117 80 -33 28 -78 60 -100 72 -22 12 -60 38 -84 57 -70 57 -155
112 -172 112 -8 0 -26 12 -40 26 -13 14 -42 35 -64 46 -22 11 -62 38 -88 60
-26 22 -62 44 -80 49 -18 5 -54 27 -81 49 -26 22 -56 40 -65 40 -24 0 -191 83
-241 119 -24 18 -55 31 -72 31 -16 0 -45 7 -65 15 -19 8 -47 15 -62 15 -14 0
-46 14 -71 30 -25 16 -58 30 -75 30 -16 0 -50 14 -75 30 -32 22 -57 30 -88 30
-23 0 -59 7 -79 15 -19 8 -52 15 -72 15 -64 0 -279 88 -356 145 -16 13 -50 33
-75 45 -25 12 -67 40 -93 62 -26 22 -62 44 -81 49 -18 5 -50 24 -73 44 -22 19
-72 50 -112 70 -39 20 -106 60 -149 89 -42 29 -98 64 -122 76 -25 13 -58 33
-75 45 -16 13 -55 35 -85 51 -30 15 -67 36 -82 46 -14 10 -42 18 -62 18 l-36
0 0 -48z m987 -757 c19 -8 55 -15 78 -15 35 0 52 -7 87 -35 24 -19 54 -40 68
-46 40 -18 44 -21 122 -84 40 -33 93 -73 116 -90 86 -58 152 -158 187 -282
l17 -62 -18 -32 c-37 -62 -124 -86 -201 -54 -19 8 -61 15 -92 15 -58 0 -79 9
-192 78 -30 18 -65 35 -79 39 -34 8 -168 89 -205 123 -16 15 -54 40 -83 54
-29 15 -69 42 -90 60 -20 18 -55 42 -77 54 -47 23 -65 43 -93 97 -11 22 -32
51 -46 64 -35 33 -35 74 2 99 43 30 45 30 260 31 159 1 210 -2 239 -14z m4878
-1386 c123 -42 158 -66 135 -94 -16 -20 -32 -19 -106 6 -39 13 -74 34 -95 55
l-34 35 15 9 c20 13 17 13 85 -11z"/>
</g>
</svg>
