<?xml version="1.0" standalone="no"?>
<!DOCTYPE svg PUBLIC "-//W3C//DTD SVG 20010904//EN"
 "http://www.w3.org/TR/2001/REC-SVG-20010904/DTD/svg10.dtd">
<svg version="1.0" xmlns="http://www.w3.org/2000/svg"
 width="300.000000pt" height="147.000000pt" viewBox="0 0 300.000000 147.000000"
 preserveAspectRatio="xMidYMid meet">
<metadata>
Created by potrace 1.16, written by Peter Selinger 2001-2019
</metadata>
<g transform="translate(0.000000,147.000000) scale(0.100000,-0.100000)"
fill="#000000" stroke="none">
<path d="M1567 1421 c-39 -112 -5 -220 123 -381 16 -21 30 -43 30 -49 0 -20
-50 -24 -93 -7 -34 13 -81 16 -230 16 -144 0 -196 3 -224 15 -23 10 -69 15
-135 15 -113 0 -150 12 -219 70 -50 42 -314 178 -408 210 -41 13 -86 20 -140
20 -51 0 -96 6 -122 16 l-40 17 -55 -19 -54 -18 0 -69 c0 -51 5 -76 18 -95 11
-15 31 -64 45 -109 29 -89 105 -250 141 -298 13 -16 33 -50 46 -75 13 -25 45
-69 71 -98 27 -30 53 -70 59 -91 5 -21 19 -46 30 -56 11 -10 63 -81 115 -159
53 -78 109 -159 125 -180 17 -22 30 -51 30 -67 l0 -29 55 0 55 0 0 64 0 64
-40 48 c-22 27 -44 63 -49 81 -5 18 -27 54 -48 80 -65 79 -103 147 -103 183 0
26 -9 42 -43 74 -24 23 -58 59 -75 82 -31 41 -92 162 -92 184 0 7 -17 31 -38
55 -27 31 -45 67 -66 134 -15 50 -26 97 -23 105 7 18 175 11 234 -10 42 -15
83 -54 83 -79 0 -7 -11 -29 -25 -49 -14 -20 -25 -45 -25 -56 0 -10 28 -61 63
-112 l63 -93 145 -97 c79 -54 151 -98 159 -98 8 0 44 -14 78 -30 35 -17 72
-30 83 -30 28 0 87 57 115 111 33 67 32 108 -6 144 -33 32 -38 65 -14 89 l15
16 260 0 260 0 36 -15 c19 -8 61 -15 92 -15 l58 0 24 -26 c13 -14 53 -41 89
-59 36 -18 106 -60 155 -94 49 -34 97 -61 106 -61 9 0 71 -27 138 -60 87 -43
133 -60 162 -60 22 0 56 -7 76 -15 46 -19 140 -19 186 0 20 8 48 15 63 15 14
0 46 12 70 27 l43 28 1 56 0 56 -43 46 c-24 26 -49 47 -57 47 -8 0 -40 12 -70
26 -50 23 -200 74 -310 104 -25 7 -112 16 -195 19 -90 4 -159 11 -172 19 -12
6 -35 12 -51 12 -46 0 -146 84 -198 167 -10 15 -37 49 -61 75 -24 26 -48 58
-54 72 l-12 25 17 26 c21 31 31 31 102 0 31 -14 67 -25 81 -25 13 0 40 -7 60
-15 19 -8 60 -15 90 -15 29 0 70 -7 90 -15 25 -11 72 -15 165 -15 92 0 139 -4
165 -15 27 -11 77 -15 203 -15 l167 0 16 18 c34 37 18 71 -50 106 -25 12 -62
16 -163 16 -93 0 -141 4 -167 15 -26 11 -76 15 -195 15 -118 0 -168 4 -195 15
-20 9 -66 15 -107 15 l-71 0 -40 27 c-22 15 -62 30 -89 35 -28 4 -63 17 -78
28 l-27 20 -83 0 -83 0 -18 -49z m-692 -550 c64 -30 134 -118 107 -135 -5 -3
-37 5 -72 17 -88 30 -170 113 -127 130 24 10 52 6 92 -12z m1620 -161 c78 -5
112 -12 155 -32 30 -14 68 -31 83 -37 32 -13 46 -39 26 -52 -21 -13 -74 -11
-116 5 -21 8 -55 17 -76 20 -38 5 -207 94 -207 110 0 4 8 5 18 0 9 -4 62 -11
117 -14z"/>
</g>
</svg>
