<?xml version="1.0" standalone="no"?>
<!DOCTYPE svg PUBLIC "-//W3C//DTD SVG 20010904//EN"
 "http://www.w3.org/TR/2001/REC-SVG-20010904/DTD/svg10.dtd">
<svg version="1.0" xmlns="http://www.w3.org/2000/svg"
 width="330.000000pt" height="417.000000pt" viewBox="0 0 330.000000 417.000000"
 preserveAspectRatio="xMidYMid meet">
<metadata>
Created by potrace 1.16, written by Peter Selinger 2001-2019
</metadata>
<g transform="translate(0.000000,417.000000) scale(0.100000,-0.100000)"
fill="#000000" stroke="none">
<path d="M272 4137 c-7 -18 -12 -40 -12 -49 0 -18 31 -48 50 -48 21 0 196 -87
241 -120 23 -16 55 -30 70 -30 22 0 45 -17 104 -75 48 -49 75 -84 75 -98 0
-39 -28 -65 -85 -82 l-55 -16 -40 12 c-46 14 -82 3 -100 -31 l-11 -21 34 -34
c19 -19 45 -35 57 -35 12 0 35 -8 51 -17 l29 -17 45 12 c25 7 56 12 68 12 33
0 169 111 190 155 27 57 22 124 -12 172 -39 54 -47 80 -24 87 61 18 93 17 125
-1 l33 -20 131 -1 c98 0 141 -5 173 -18 33 -13 58 -15 112 -10 l70 6 50 -21
49 -22 113 5 c77 4 120 1 137 -7 46 -22 123 -27 165 -9 l38 16 41 -16 c23 -8
67 -18 98 -21 l56 -7 17 31 c18 37 11 55 -37 96 l-32 27 -43 -7 c-33 -5 -51
-2 -70 10 -18 12 -37 15 -65 11 -22 -4 -57 -1 -78 5 l-39 12 -40 -17 c-58 -23
-105 -20 -155 9 l-44 25 -26 -10 c-45 -17 -95 -11 -140 15 l-44 25 -26 -10
c-15 -5 -71 -10 -124 -10 l-97 0 -45 30 -45 30 -117 0 c-64 0 -128 4 -143 10
-18 7 -40 6 -71 -2 l-45 -12 -48 27 -49 27 -30 -11 -31 -11 -42 25 -41 25 -35
-10 c-27 -7 -40 -6 -59 7 -13 8 -24 20 -24 25 0 6 -39 10 -93 10 l-93 0 -12
-33z"/>
<path d="M825 3200 c-11 -5 -72 -9 -136 -9 -80 -1 -128 -6 -152 -16 -20 -8
-66 -15 -102 -15 -40 0 -90 -8 -128 -21 l-62 -20 -88 -87 c-92 -90 -137 -160
-137 -211 0 -16 -5 -33 -10 -36 -6 -3 -10 -35 -10 -70 0 -35 4 -67 10 -70 5
-3 10 -19 10 -35 0 -15 13 -57 30 -92 16 -34 30 -76 30 -93 0 -29 30 -78 118
-195 17 -24 32 -52 32 -62 0 -10 20 -40 44 -66 24 -26 56 -65 72 -88 16 -22
45 -63 64 -90 46 -64 465 -488 513 -520 20 -13 62 -47 92 -74 30 -28 59 -50
63 -50 18 0 145 -121 185 -176 33 -45 53 -63 75 -67 18 -4 60 -34 106 -77 42
-38 83 -70 92 -70 9 0 39 -20 67 -45 28 -24 78 -59 111 -76 34 -18 87 -53 119
-78 97 -77 118 -91 157 -101 20 -5 54 -24 76 -42 74 -62 134 -99 181 -113 27
-8 64 -26 83 -40 47 -35 177 -101 217 -109 18 -4 58 -25 90 -47 32 -21 65 -39
73 -39 8 0 35 -14 60 -30 32 -22 57 -30 88 -30 54 0 112 -27 176 -79 35 -30
57 -41 81 -41 19 0 37 -4 40 -10 3 -5 37 -10 76 -10 l69 0 0 35 c0 22 -5 35
-13 35 -7 0 -29 11 -49 25 -20 14 -71 36 -113 50 -42 13 -89 34 -104 45 -51
36 -230 120 -256 120 -33 0 -86 22 -127 53 -18 14 -78 47 -134 75 -55 28 -137
75 -181 105 -44 30 -116 73 -160 96 -54 27 -91 53 -113 80 l-32 41 -34 0 -34
0 -59 58 c-33 33 -90 75 -129 95 -39 21 -95 59 -124 85 -29 26 -71 60 -93 74
-22 15 -62 50 -90 78 -31 31 -64 54 -87 61 -22 5 -45 21 -55 36 -10 15 -105
113 -212 219 -197 195 -215 213 -297 295 -26 26 -60 60 -76 75 -52 51 -154
169 -174 199 -10 17 -35 50 -55 75 -46 59 -99 143 -99 160 0 8 -26 52 -57 99
-32 49 -60 103 -64 126 -10 50 -26 116 -45 175 -8 25 -14 65 -14 90 0 45 32
153 52 178 27 32 177 82 246 82 29 0 63 5 75 12 12 7 78 15 147 19 l125 7 33
-20 34 -21 70 6 c49 4 79 2 101 -8 18 -8 53 -17 78 -20 28 -3 107 -35 199 -80
83 -41 156 -75 162 -75 6 0 27 -15 48 -32 20 -18 57 -50 82 -70 25 -20 62 -62
82 -92 20 -31 45 -60 56 -66 53 -28 90 3 90 75 l0 49 -46 68 c-36 54 -57 74
-97 95 -53 26 -152 98 -176 127 -9 10 -30 16 -60 16 -30 0 -56 7 -76 21 -16
11 -75 43 -130 71 -122 63 -202 78 -321 62 l-52 -6 -44 26 c-25 14 -47 26 -49
25 -2 0 -13 -4 -24 -9z"/>
</g>
</svg>
