<?xml version="1.0" standalone="no"?>
<!DOCTYPE svg PUBLIC "-//W3C//DTD SVG 20010904//EN"
 "http://www.w3.org/TR/2001/REC-SVG-20010904/DTD/svg10.dtd">
<svg version="1.0" xmlns="http://www.w3.org/2000/svg"
 width="273.000000pt" height="165.000000pt" viewBox="0 0 273.000000 165.000000"
 preserveAspectRatio="xMidYMid meet">
<metadata>
Created by potrace 1.16, written by Peter Selinger 2001-2019
</metadata>
<g transform="translate(0.000000,165.000000) scale(0.100000,-0.100000)"
fill="#000000" stroke="none">
<path d="M965 1640 c-3 -5 -15 -10 -27 -10 -11 0 -38 -18 -60 -39 l-39 -40 11
-20 c16 -32 83 -61 137 -61 37 0 59 -7 92 -30 24 -17 54 -30 67 -30 12 0 41
-16 64 -35 23 -19 50 -35 60 -35 21 0 55 -44 65 -83 5 -20 1 -32 -19 -51 l-25
-26 -71 0 c-39 0 -80 -5 -91 -10 -31 -17 -23 -54 21 -94 l40 -36 101 0 100 0
53 50 54 51 22 70 23 70 -18 38 c-22 49 -17 73 18 86 22 7 35 6 59 -8 74 -43
143 -57 273 -57 89 0 136 -4 162 -15 42 -18 107 -19 152 -4 l33 12 41 -24 41
-23 111 -1 c60 -1 119 -6 130 -11 33 -16 118 -9 153 11 42 25 45 68 5 88 -33
17 -105 30 -148 28 -94 -6 -196 8 -242 31 l-41 22 -41 -14 -40 -13 -53 22 -54
22 -31 -12 -32 -11 -44 26 -45 26 -26 -10 c-40 -15 -121 -12 -163 5 -19 8 -51
15 -69 15 -40 0 -116 17 -161 36 -24 10 -40 11 -62 3 l-30 -11 -44 26 -45 26
-26 -10 c-50 -18 -127 -12 -171 15 -22 14 -50 25 -61 25 -12 0 -27 7 -34 15
-14 17 -66 20 -75 5z"/>
<path d="M415 655 c-16 -8 -42 -14 -56 -15 -15 0 -43 -7 -62 -15 -20 -8 -57
-15 -82 -15 l-45 0 -76 -70 c-41 -38 -79 -70 -85 -70 -5 0 -9 -67 -8 -162 l0
-163 55 -28 55 -27 24 24 25 25 0 76 c0 45 6 90 15 112 8 19 15 47 15 62 0 30
16 51 40 51 8 0 32 11 52 25 54 36 113 55 208 66 96 12 80 12 295 1 103 -5
169 -12 184 -21 17 -9 41 -11 80 -7 42 5 61 3 76 -8 11 -9 38 -16 60 -16 23 0
53 -9 70 -20 l30 -20 99 0 c119 0 169 -13 219 -57 26 -23 47 -33 70 -33 19 0
50 -12 77 -30 l45 -30 60 0 c72 0 171 -43 249 -109 33 -28 58 -41 78 -41 29 0
99 -50 157 -113 19 -20 35 -27 63 -27 l38 0 0 45 c0 62 -40 138 -88 169 -20
13 -57 40 -80 60 -30 24 -54 36 -75 36 -18 0 -50 12 -72 25 -22 14 -47 25 -56
25 -9 0 -56 21 -105 47 -85 45 -104 51 -244 73 -42 7 -79 20 -104 38 -102 71
-175 90 -351 91 -66 1 -128 7 -155 15 -121 38 -138 40 -400 42 -209 2 -271 0
-295 -11z"/>
</g>
</svg>
