<?xml version="1.0" standalone="no"?>
<!DOCTYPE svg PUBLIC "-//W3C//DTD SVG 20010904//EN"
 "http://www.w3.org/TR/2001/REC-SVG-20010904/DTD/svg10.dtd">
<svg version="1.0" xmlns="http://www.w3.org/2000/svg"
 width="666.000000pt" height="117.000000pt" viewBox="0 0 666.000000 117.000000"
 preserveAspectRatio="xMidYMid meet">
<metadata>
Created by potrace 1.16, written by Peter Selinger 2001-2019
</metadata>
<g transform="translate(0.000000,117.000000) scale(0.100000,-0.100000)"
fill="#000000" stroke="none">
<path d="M4272 1144 c-35 -28 -72 -91 -72 -124 0 -11 17 -44 39 -73 35 -48 67
-70 133 -91 21 -6 76 -100 84 -144 16 -85 -86 -215 -219 -277 -41 -19 -80 -35
-86 -35 -7 0 -30 -9 -52 -21 -64 -32 -181 -69 -220 -69 -20 0 -53 -7 -72 -15
-21 -8 -67 -15 -105 -15 -39 0 -85 -7 -105 -15 -21 -8 -67 -15 -105 -15 -39 0
-85 -7 -105 -15 -24 -10 -70 -15 -135 -15 -66 0 -112 -5 -135 -15 l-36 -15
-293 0 -293 0 -45 30 -45 30 -118 0 c-82 0 -129 5 -154 15 -27 11 -77 15 -210
15 -132 0 -182 4 -210 15 -19 8 -53 15 -75 15 -21 0 -55 7 -75 15 -19 8 -52
15 -72 15 -20 0 -56 6 -81 14 -78 25 -133 37 -195 45 -34 5 -70 13 -82 19 -12
7 -47 12 -78 12 -30 0 -72 7 -92 15 -19 8 -45 15 -56 15 -32 0 -143 40 -230
82 -43 21 -90 38 -105 38 -15 0 -56 14 -90 30 -35 17 -76 30 -91 30 -14 0 -43
11 -62 24 -48 33 -148 66 -201 66 -24 1 -54 7 -68 15 -14 8 -33 14 -42 15 -29
0 -23 -52 10 -82 34 -33 204 -118 234 -118 29 0 153 -42 207 -69 22 -12 46
-21 53 -21 7 0 42 -14 76 -30 35 -17 75 -30 89 -30 14 0 54 -14 90 -30 35 -17
74 -30 86 -30 11 0 81 -20 154 -45 104 -35 146 -45 198 -45 36 0 82 -7 102
-15 19 -8 53 -15 75 -15 21 0 55 -7 75 -15 19 -8 53 -15 75 -15 21 0 55 -7 75
-15 19 -8 53 -15 75 -15 21 0 55 -7 75 -15 20 -8 66 -15 105 -15 38 0 84 -7
105 -15 27 -12 79 -15 225 -15 145 0 197 -3 225 -15 26 -11 76 -15 195 -15
118 0 168 -4 195 -15 48 -20 198 -20 246 0 25 10 72 15 150 15 79 0 126 5 150
15 25 10 72 15 152 15 69 0 125 5 138 12 12 6 48 14 82 19 62 8 117 20 195 45
25 8 55 14 67 14 11 0 50 13 85 30 35 17 80 30 101 30 57 0 156 37 201 76 22
19 56 39 76 44 59 16 230 210 230 261 0 9 9 27 19 40 l19 24 39 -14 c21 -8 52
-24 68 -37 17 -12 77 -46 135 -75 58 -29 123 -65 144 -81 21 -15 46 -28 55
-28 9 0 36 -14 61 -30 25 -16 51 -30 58 -30 25 0 86 -33 132 -70 48 -39 120
-80 142 -80 7 0 57 -29 110 -64 53 -34 111 -68 130 -75 70 -26 103 -47 127
-83 l26 -37 75 0 75 0 23 35 c33 52 25 94 -18 94 -8 0 -53 25 -99 55 -45 31
-104 66 -131 80 -43 22 -161 119 -232 192 -45 46 -121 121 -153 152 -33 31
-105 125 -105 136 0 4 21 26 46 48 l47 41 91 -3 c50 -2 106 -9 125 -17 18 -8
65 -14 103 -14 38 0 84 -7 105 -15 23 -10 69 -15 137 -15 l101 0 45 -30 45
-30 153 0 153 0 59 30 60 30 0 25 c0 18 -12 34 -42 55 -47 34 -86 38 -143 14
l-38 -16 -41 16 c-30 12 -77 16 -169 16 -91 0 -138 4 -164 15 -22 9 -67 15
-120 15 -52 0 -97 6 -120 15 -19 8 -60 15 -90 15 -29 0 -70 7 -90 15 -20 9
-66 15 -107 15 l-71 0 -45 30 c-75 50 -88 44 -185 -81 -24 -31 -51 -71 -60
-89 l-17 -32 21 -50 c12 -28 21 -57 21 -64 0 -22 -33 -16 -98 16 -34 16 -66
30 -72 30 -12 0 -110 56 -201 114 -30 20 -61 36 -68 36 -27 0 -148 63 -193
101 -26 21 -64 45 -85 52 -30 9 -46 25 -78 74 l-40 63 -30 0 c-17 0 -44 -11
-63 -26z"/>
</g>
</svg>
