<?xml version="1.0" standalone="no"?>
<!DOCTYPE svg PUBLIC "-//W3C//DTD SVG 20010904//EN"
 "http://www.w3.org/TR/2001/REC-SVG-20010904/DTD/svg10.dtd">
<svg version="1.0" xmlns="http://www.w3.org/2000/svg"
 width="642.000000pt" height="177.000000pt" viewBox="0 0 642.000000 177.000000"
 preserveAspectRatio="xMidYMid meet">
<metadata>
Created by potrace 1.16, written by Peter Selinger 2001-2019
</metadata>
<g transform="translate(0.000000,177.000000) scale(0.100000,-0.100000)"
fill="#000000" stroke="none">
<path d="M4610 1707 c0 -77 16 -97 79 -97 23 0 58 -7 78 -15 19 -8 47 -15 61
-15 14 0 46 -13 71 -29 25 -16 61 -32 80 -36 22 -5 51 -24 80 -55 25 -26 61
-55 79 -64 54 -28 74 -53 62 -76 l-11 -20 -75 0 -75 0 -49 -25 c-27 -13 -56
-35 -64 -47 -23 -33 -20 -130 7 -208 l23 -65 42 -28 c23 -16 42 -34 42 -42 0
-7 -14 -25 -31 -39 l-31 -26 -445 0 -445 0 -65 30 c-37 17 -81 30 -104 30 -22
0 -56 7 -76 15 -19 8 -53 15 -75 15 -21 0 -55 7 -75 15 -19 8 -53 15 -75 15
-21 0 -55 7 -75 15 -19 8 -52 15 -72 15 -40 0 -126 27 -209 66 -29 13 -63 24
-75 24 -13 0 -61 13 -107 30 -51 18 -105 30 -135 30 -30 0 -85 12 -135 30
l-85 30 -128 0 c-90 0 -138 4 -164 15 -22 9 -67 15 -119 15 -54 0 -98 6 -124
16 -29 12 -53 14 -83 9 -50 -9 -74 -9 -149 1 -43 5 -68 2 -98 -10 -23 -9 -69
-16 -106 -16 -106 0 -237 -51 -292 -115 l-32 -36 0 -75 c0 -115 76 -308 139
-355 16 -12 49 -48 73 -81 24 -33 55 -69 70 -79 15 -11 41 -39 57 -62 17 -23
42 -59 57 -79 17 -24 24 -44 20 -56 -11 -35 -59 -74 -132 -108 l-72 -34 -201
0 c-157 0 -210 3 -238 15 -19 8 -53 15 -75 15 -21 0 -55 7 -75 15 -19 8 -60
15 -90 15 -29 0 -70 7 -90 15 -19 8 -47 15 -62 15 -14 0 -53 13 -86 28 -33 16
-71 32 -85 35 -14 3 -41 20 -61 36 l-36 30 5 49 c5 54 -16 103 -85 202 l-39
55 -110 37 c-124 42 -190 47 -265 21 l-49 -18 0 -97 0 -98 39 -20 c22 -11 52
-36 67 -56 16 -21 55 -49 94 -69 36 -18 106 -60 155 -94 50 -34 101 -61 115
-61 27 0 242 -70 288 -94 57 -29 153 -56 202 -56 28 0 67 -7 87 -15 19 -8 62
-15 94 -15 32 0 61 -4 64 -10 8 -14 522 -14 530 0 3 5 17 10 30 10 14 0 54 10
89 21 l65 21 80 83 81 83 0 40 0 41 -54 41 c-30 22 -66 59 -81 81 -16 22 -49
55 -75 74 -26 19 -60 54 -76 77 -15 24 -47 63 -69 88 -23 25 -49 57 -58 70
-29 45 -67 173 -67 228 l0 53 25 24 c14 15 36 25 53 25 16 0 46 7 65 15 52 22
452 22 504 0 23 -10 69 -15 134 -15 54 0 110 -5 125 -10 19 -7 37 -7 60 0 25
9 40 8 69 -5 21 -8 47 -15 59 -15 12 0 60 -13 106 -30 47 -16 94 -30 104 -30
26 0 137 -38 156 -53 29 -22 50 -61 50 -93 0 -35 16 -52 76 -82 23 -12 56 -39
74 -62 17 -22 39 -40 48 -40 10 0 86 -34 170 -75 95 -46 166 -75 185 -75 55 1
129 49 157 102 l24 47 -11 42 c-14 53 -7 73 21 64 11 -4 57 -10 101 -14 44 -4
90 -13 102 -19 12 -7 47 -12 78 -12 30 0 72 -7 92 -15 24 -10 71 -15 150 -15
78 0 125 -5 150 -15 49 -21 227 -21 276 0 20 8 59 15 86 15 34 0 101 17 203
51 l153 51 58 56 c62 61 107 135 107 177 0 14 7 42 15 62 8 19 15 62 15 94 l0
59 -36 72 c-20 39 -51 94 -70 122 -32 47 -116 120 -171 148 -52 26 -1 70 58
49 17 -6 76 -11 131 -11 65 0 111 -5 135 -15 19 -8 60 -15 90 -15 29 0 70 -7
90 -15 26 -11 76 -15 195 -15 118 0 168 -4 195 -15 26 -11 76 -15 199 -15
l164 0 0 55 0 55 -100 0 c-67 0 -113 5 -137 15 -20 8 -66 15 -105 15 -38 0
-84 7 -105 15 -19 8 -60 15 -90 15 -29 0 -70 7 -90 15 -28 12 -82 15 -255 15
-172 0 -226 3 -255 15 -26 11 -75 15 -184 15 -88 0 -150 4 -154 10 -4 6 -72
10 -171 10 l-164 0 0 -63z m584 -593 c9 -8 16 -31 16 -49 0 -68 -65 -89 -100
-32 -26 42 -25 62 2 81 29 20 62 20 82 0z m-1729 -334 c3 -5 21 -10 40 -10 39
0 95 -42 95 -71 0 -10 -2 -19 -4 -19 -18 0 -77 34 -100 59 -17 17 -36 31 -43
31 -7 0 -13 5 -13 10 0 6 4 10 9 10 6 0 13 -4 16 -10z m-3194 -239 c51 -23 94
-64 84 -80 -9 -16 -22 -14 -80 14 -65 30 -82 49 -65 70 15 18 9 19 61 -4z"/>
</g>
</svg>
