<?xml version="1.0" standalone="no"?>
<!DOCTYPE svg PUBLIC "-//W3C//DTD SVG 20010904//EN"
 "http://www.w3.org/TR/2001/REC-SVG-20010904/DTD/svg10.dtd">
<svg version="1.0" xmlns="http://www.w3.org/2000/svg"
 width="687.000000pt" height="306.000000pt" viewBox="0 0 687.000000 306.000000"
 preserveAspectRatio="xMidYMid meet">
<metadata>
Created by potrace 1.16, written by Peter Selinger 2001-2019
</metadata>
<g transform="translate(0.000000,306.000000) scale(0.100000,-0.100000)"
fill="#000000" stroke="none">
<path d="M0 2991 l0 -69 54 -54 c84 -81 112 -109 162 -159 26 -26 59 -60 75
-75 16 -16 50 -50 75 -75 26 -26 60 -60 76 -75 59 -59 157 -172 182 -212 14
-23 36 -48 49 -57 13 -8 41 -40 63 -71 21 -31 51 -70 65 -88 39 -46 117 -163
140 -208 11 -22 40 -64 64 -94 24 -30 51 -75 59 -102 7 -27 37 -83 65 -125 37
-54 63 -110 90 -194 22 -65 51 -143 65 -173 15 -31 26 -73 26 -96 0 -23 7 -58
15 -77 20 -49 20 -215 0 -264 -8 -19 -15 -45 -15 -57 0 -27 -43 -152 -69 -205
-12 -22 -21 -44 -21 -50 0 -13 -210 -221 -224 -221 -6 0 -28 -11 -49 -25 -20
-14 -70 -37 -110 -50 -40 -13 -86 -30 -102 -38 -17 -8 -43 -19 -59 -24 -16 -4
-35 -18 -44 -31 l-14 -22 160 0 161 0 25 25 c14 14 34 25 45 25 11 0 48 25 82
55 34 31 74 58 88 62 37 8 49 20 76 74 13 26 42 61 65 79 22 17 40 39 40 48 0
8 13 45 29 81 92 213 107 265 118 411 5 70 2 97 -11 129 -9 23 -16 59 -16 82
0 22 -9 58 -21 80 -27 54 -69 178 -69 207 0 27 -59 146 -105 214 -18 26 -37
63 -40 80 -10 47 -33 87 -76 136 -21 24 -41 58 -44 75 -8 39 -63 124 -126 194
-26 29 -53 71 -60 94 -10 31 -26 51 -59 74 -29 20 -56 51 -74 86 -16 30 -33
56 -38 57 -13 6 -98 119 -98 131 0 6 11 11 24 11 24 0 57 -21 116 -76 19 -17
55 -43 80 -56 85 -45 160 -99 177 -126 28 -46 66 -83 106 -104 l39 -19 30 10
c42 15 240 14 275 -1 15 -7 91 -16 168 -20 164 -10 172 -10 336 -2 l126 6 38
-16 37 -16 325 0 324 0 36 -15 c26 -11 76 -15 195 -15 118 0 168 -4 195 -15
27 -11 77 -15 210 -15 132 0 182 -4 210 -15 25 -11 72 -15 165 -15 92 0 139
-4 165 -15 26 -11 74 -15 180 -15 105 0 153 -4 180 -15 l35 -15 310 0 309 0
36 -15 c27 -12 79 -15 225 -15 145 0 197 -3 225 -15 20 -8 66 -15 105 -15 38
0 84 -7 105 -15 49 -21 101 -19 177 6 l65 22 66 67 65 68 0 84 0 84 -35 50
c-20 27 -42 72 -50 99 -18 61 -101 146 -213 219 -40 27 -96 68 -124 92 -29 24
-64 50 -80 56 -15 7 -28 16 -28 20 0 11 18 10 25 -2 3 -6 52 -10 111 -10 70 0
116 -5 141 -15 l35 -15 362 0 361 -1 25 -14 c17 -9 56 -14 118 -15 l92 0 0 40
0 39 -30 16 c-20 10 -58 15 -120 15 -55 0 -100 5 -113 12 -12 7 -78 16 -147
20 -158 10 -153 10 -230 2 -49 -4 -75 -2 -104 10 -27 11 -69 16 -138 16 -65 0
-111 5 -135 15 -23 10 -69 15 -135 15 -65 0 -111 5 -135 15 -19 8 -53 15 -75
15 -21 0 -55 7 -75 15 -19 8 -53 15 -75 15 -21 0 -55 7 -75 15 -57 24 -100 19
-134 -14 -52 -52 -33 -103 53 -147 27 -14 68 -39 91 -55 22 -16 47 -29 55 -29
8 0 36 -13 61 -29 25 -16 58 -31 73 -35 14 -3 51 -29 82 -57 31 -28 72 -55 93
-61 40 -11 157 -121 150 -141 -2 -7 -23 -15 -48 -18 -44 -5 -138 -48 -172 -77
l-17 -15 0 -87 c0 -55 -5 -93 -13 -104 l-13 -18 -100 6 c-137 9 -162 9 -219 1
-37 -5 -61 -3 -89 9 l-38 16 -280 0 -279 0 -36 15 -35 15 -325 0 -324 0 -36
15 c-25 11 -72 15 -164 15 -78 0 -139 5 -156 12 -15 7 -98 16 -183 20 -85 4
-175 10 -200 13 -25 3 -130 8 -235 13 -121 4 -198 12 -212 20 -15 8 -72 12
-183 12 -120 0 -170 4 -197 15 l-35 15 -340 0 -339 0 -36 15 c-19 8 -52 15
-72 15 -40 0 -126 27 -209 66 -29 13 -59 24 -67 24 -9 0 -42 26 -74 58 -32 32
-90 75 -127 95 -38 19 -96 58 -129 86 -33 28 -78 60 -100 72 -22 12 -61 39
-87 60 -26 22 -96 64 -155 94 -60 30 -130 72 -157 94 -26 23 -56 41 -65 41
-10 0 -43 18 -75 40 l-57 40 -64 0 -65 0 0 -69z m5850 -861 c0 -5 -13 -10 -30
-10 -16 0 -30 5 -30 10 0 6 14 10 30 10 17 0 30 -4 30 -10z"/>
</g>
</svg>
