<?xml version="1.0" standalone="no"?>
<!DOCTYPE svg PUBLIC "-//W3C//DTD SVG 20010904//EN"
 "http://www.w3.org/TR/2001/REC-SVG-20010904/DTD/svg10.dtd">
<svg version="1.0" xmlns="http://www.w3.org/2000/svg"
 width="435.000000pt" height="144.000000pt" viewBox="0 0 435.000000 144.000000"
 preserveAspectRatio="xMidYMid meet">
<metadata>
Created by potrace 1.16, written by Peter Selinger 2001-2019
</metadata>
<g transform="translate(0.000000,144.000000) scale(0.100000,-0.100000)"
fill="#000000" stroke="none">
<path d="M2620 1432 c0 -4 -18 -29 -40 -56 -51 -61 -54 -104 -11 -163 16 -22
39 -60 52 -84 48 -96 108 -158 239 -247 19 -14 63 -51 97 -83 l61 -59 34 0
c19 0 49 -11 69 -25 60 -40 155 -85 180 -85 13 0 38 -9 54 -20 l30 -20 102 0
c114 0 133 4 133 31 0 22 -113 99 -144 99 -12 0 -34 9 -51 20 -18 12 -47 20
-73 20 -44 0 -71 13 -247 122 -75 46 -253 211 -286 265 -12 20 -19 45 -17 65
l3 33 185 6 185 5 33 -19 33 -19 59 6 c43 5 68 2 99 -10 28 -11 54 -14 83 -10
107 16 188 18 220 5 28 -10 233 -30 303 -28 11 0 93 2 183 5 l162 5 0 24 c0
16 -14 33 -42 55 l-43 31 -140 -3 -140 -3 -28 19 -28 19 -119 -5 -119 -5 -26
17 -26 17 -221 1 c-126 1 -234 6 -253 12 -22 7 -40 7 -59 0 -44 -17 -94 -12
-153 15 l-56 26 -30 -11 c-54 -18 -105 -13 -133 15 -19 19 -35 25 -69 25 -25
0 -45 -3 -45 -8z"/>
<path d="M2205 756 l-25 -25 0 -71 0 -70 71 -77 c84 -91 108 -138 109 -211 0
-108 -39 -137 -194 -145 -79 -4 -131 -13 -193 -34 l-85 -27 -48 17 c-37 13
-82 17 -204 17 -117 0 -166 4 -193 15 -26 11 -74 15 -180 15 -105 0 -153 4
-180 15 -19 8 -47 15 -62 15 -14 0 -39 9 -56 21 -64 43 -125 69 -165 69 -22 0
-57 7 -77 15 -19 8 -52 15 -72 15 -50 0 -159 39 -279 99 -56 28 -114 51 -129
51 -16 0 -70 20 -121 45 -118 57 -124 57 -120 4 l3 -42 70 -49 c91 -64 217
-128 252 -128 16 0 44 -11 64 -24 55 -38 330 -126 392 -126 35 0 70 -9 107
-26 82 -38 165 -64 205 -64 20 0 52 -7 72 -15 19 -8 55 -15 79 -15 23 0 46 -5
49 -10 4 -6 183 -10 505 -10 l498 0 5 14 c3 8 43 39 90 69 46 31 96 70 111 87
l26 32 0 94 0 95 -21 42 c-12 23 -30 54 -40 69 -24 34 -24 58 0 58 10 0 68
-33 127 -73 87 -58 114 -82 134 -119 37 -68 49 -78 87 -78 74 0 104 40 74 97
-29 56 -183 201 -288 271 -104 69 -178 98 -273 104 -36 3 -73 8 -82 12 -12 5
-25 0 -43 -18z"/>
</g>
</svg>
