<?xml version="1.0" standalone="no"?>
<!DOCTYPE svg PUBLIC "-//W3C//DTD SVG 20010904//EN"
 "http://www.w3.org/TR/2001/REC-SVG-20010904/DTD/svg10.dtd">
<svg version="1.0" xmlns="http://www.w3.org/2000/svg"
 width="585.000000pt" height="219.000000pt" viewBox="0 0 585.000000 219.000000"
 preserveAspectRatio="xMidYMid meet">
<metadata>
Created by potrace 1.16, written by Peter Selinger 2001-2019
</metadata>
<g transform="translate(0.000000,219.000000) scale(0.100000,-0.100000)"
fill="#000000" stroke="none">
<path d="M245 2180 c-3 -5 -15 -10 -26 -10 -10 0 -64 -42 -119 -92 l-99 -93
-1 -176 0 -175 28 -27 c37 -35 66 -34 104 3 l30 31 -7 37 c-10 47 -7 176 6
223 5 20 21 48 36 63 32 32 102 66 136 66 14 0 41 7 60 15 28 11 78 15 207 15
129 0 179 -4 207 -15 19 -8 65 -15 102 -15 71 0 249 -53 301 -90 14 -10 81
-37 149 -59 126 -42 173 -67 192 -103 l12 -22 -23 -42 -23 -42 37 -113 c21
-63 48 -127 60 -144 13 -16 35 -54 50 -82 17 -35 40 -62 66 -78 22 -14 47 -37
57 -52 32 -52 77 -93 114 -103 20 -6 64 -34 98 -63 33 -28 88 -72 121 -97 34
-25 89 -66 122 -92 34 -27 68 -48 76 -48 8 0 40 -16 71 -35 76 -47 184 -85
245 -85 l49 0 43 44 44 43 0 60 c0 33 5 74 11 91 l10 31 -24 51 c-13 28 -20
53 -15 56 13 8 65 -15 112 -48 21 -15 46 -28 55 -28 9 0 54 -25 100 -55 46
-31 128 -78 183 -106 55 -27 116 -62 137 -77 21 -15 71 -42 112 -60 41 -19 90
-43 109 -53 97 -53 248 -127 270 -132 14 -4 44 -22 66 -41 30 -25 74 -46 162
-75 67 -22 139 -52 159 -66 21 -14 44 -25 53 -25 8 0 35 -14 60 -30 25 -16 56
-30 70 -30 34 0 127 -32 219 -76 96 -45 182 -74 224 -74 18 0 71 -13 117 -30
47 -16 97 -30 112 -30 15 0 30 -4 33 -10 8 -14 492 -14 500 0 3 6 14 10 23 10
9 0 47 21 85 46 l68 46 26 57 c14 31 30 64 34 73 18 36 10 67 -21 83 -16 8
-39 15 -50 15 -27 0 -80 -52 -80 -78 0 -20 -57 -67 -156 -130 l-51 -32 -124 0
c-79 0 -140 5 -169 14 -60 19 -125 35 -181 46 -26 5 -69 20 -97 34 -28 14 -63
26 -77 26 -14 0 -42 7 -62 15 -19 8 -45 15 -56 15 -32 0 -143 40 -230 82 -43
21 -88 38 -100 38 -36 0 -127 35 -192 75 -33 20 -71 38 -85 41 -32 8 -154 59
-200 85 -19 11 -87 45 -150 75 -63 31 -131 65 -150 75 -111 60 -252 129 -263
129 -7 0 -24 12 -38 26 -13 14 -71 50 -129 79 -65 32 -129 74 -168 109 -34 31
-70 56 -78 56 -15 0 -97 46 -204 113 -30 19 -71 43 -90 52 -19 10 -55 34 -80
55 -25 20 -65 47 -90 60 -25 12 -67 40 -95 61 -27 22 -75 58 -105 82 -30 23
-75 54 -100 69 -25 14 -54 36 -65 48 -20 22 -145 90 -166 90 -23 0 -85 34
-131 71 -32 27 -75 48 -140 69 -51 17 -111 43 -134 60 -23 16 -101 49 -176 73
-74 25 -149 52 -165 61 -48 24 -217 74 -286 83 -20 3 -40 9 -43 14 -7 13 -611
12 -619 -1z m1641 -584 c50 -24 106 -47 124 -51 20 -4 53 -28 86 -61 29 -30
61 -54 71 -54 36 0 171 -101 265 -198 l96 -99 46 -91 c25 -50 50 -93 55 -96
11 -7 2 -96 -12 -114 -5 -6 -21 -12 -34 -12 -30 0 -142 50 -186 84 -18 13 -52
34 -77 46 -25 12 -65 39 -89 58 -25 20 -61 47 -80 60 -45 30 -118 93 -179 153
-26 25 -64 58 -84 73 -54 41 -154 196 -169 263 l-13 56 19 13 c31 23 65 16
161 -30z"/>
</g>
</svg>
