<?xml version="1.0" standalone="no"?>
<!DOCTYPE svg PUBLIC "-//W3C//DTD SVG 20010904//EN"
 "http://www.w3.org/TR/2001/REC-SVG-20010904/DTD/svg10.dtd">
<svg version="1.0" xmlns="http://www.w3.org/2000/svg"
 width="522.000000pt" height="228.000000pt" viewBox="0 0 522.000000 228.000000"
 preserveAspectRatio="xMidYMid meet">
<metadata>
Created by potrace 1.16, written by Peter Selinger 2001-2019
</metadata>
<g transform="translate(0.000000,228.000000) scale(0.100000,-0.100000)"
fill="#000000" stroke="none">
<path d="M3560 2247 c0 -40 26 -67 64 -67 14 0 43 -7 63 -15 l35 -15 265 0
264 0 36 -15 c26 -11 76 -15 195 -15 118 0 168 -4 195 -15 28 -12 82 -15 248
-15 l212 0 16 18 c24 26 21 56 -7 89 l-24 28 -74 7 c-40 3 -109 11 -153 17
-44 5 -171 10 -282 10 -123 1 -204 5 -208 11 -4 6 -157 10 -426 10 l-419 0 0
-33z"/>
<path d="M2425 2155 c-16 -8 -40 -14 -52 -15 -47 0 -239 -73 -286 -107 -50
-37 -87 -95 -87 -138 0 -44 40 -148 71 -183 16 -18 41 -51 54 -73 24 -37 104
-89 138 -89 7 0 26 -13 42 -30 16 -16 36 -30 45 -30 8 0 32 -11 51 -24 38 -26
145 -66 177 -66 29 0 132 -39 171 -66 19 -13 48 -24 64 -24 15 0 44 -7 64 -15
19 -8 53 -15 75 -15 21 0 55 -7 75 -15 19 -8 59 -15 87 -15 28 0 71 -6 96 -14
78 -25 133 -37 195 -45 34 -5 70 -13 82 -19 12 -7 39 -12 60 -12 21 0 66 -9
98 -21 121 -41 137 -53 173 -125 11 -22 37 -53 56 -68 20 -15 46 -46 57 -69
12 -23 36 -58 54 -77 45 -48 201 -282 216 -324 l13 -35 -13 -15 c-29 -35 -285
-146 -337 -146 -12 0 -38 -7 -57 -15 -23 -9 -68 -15 -120 -15 -53 0 -98 -6
-120 -15 -20 -8 -61 -15 -90 -15 -30 0 -71 -7 -90 -15 -26 -11 -73 -15 -165
-15 -93 0 -140 -4 -165 -15 l-36 -15 -411 0 -411 0 -36 15 c-22 9 -67 15 -120
15 -52 0 -97 6 -120 15 -23 10 -69 15 -135 15 -65 0 -111 5 -135 15 -22 9 -67
15 -120 15 -52 0 -97 6 -120 15 -19 8 -51 15 -71 15 -19 0 -97 20 -171 44
-142 46 -199 62 -266 75 -70 14 -225 70 -263 96 -20 14 -43 25 -51 25 -19 0
-202 92 -271 136 -30 19 -67 38 -82 41 -15 3 -39 21 -53 39 -31 40 -112 84
-155 84 l-30 0 0 -58 0 -58 27 -26 c16 -14 40 -28 55 -32 15 -3 61 -38 102
-76 42 -39 84 -70 94 -70 9 0 34 -11 55 -25 62 -43 213 -114 299 -142 44 -14
116 -43 160 -64 48 -24 93 -39 116 -39 20 0 57 -6 82 -14 60 -19 125 -35 182
-46 26 -5 56 -13 67 -19 11 -6 30 -11 43 -11 13 0 62 -13 108 -30 62 -21 104
-30 153 -30 37 0 84 -7 104 -15 26 -11 76 -15 195 -15 118 0 168 -4 195 -15
25 -11 73 -15 169 -15 78 0 135 -4 139 -10 8 -13 102 -13 110 0 3 6 26 10 50
10 24 0 47 -4 50 -10 8 -13 312 -13 320 0 4 6 81 10 199 10 149 0 202 3 229
15 25 10 72 15 150 15 79 0 126 5 150 15 20 8 66 15 102 15 52 0 94 10 198 45
73 25 141 45 150 45 28 0 135 38 206 75 39 19 86 54 114 84 l47 50 0 81 0 80
-70 82 c-39 44 -73 93 -77 107 -9 38 -39 95 -59 112 -20 16 -76 93 -123 166
l-32 52 11 20 11 21 205 0 c159 0 213 -3 241 -15 l35 -15 300 0 299 0 29 15
30 16 0 39 c0 56 -19 64 -185 73 -77 4 -167 10 -200 12 -33 3 -188 7 -344 10
-215 5 -293 10 -319 21 -22 9 -70 14 -136 14 l-101 0 -45 23 c-42 21 -55 37
-79 99 -5 14 -32 41 -60 59 -27 18 -62 52 -77 77 -16 24 -49 58 -75 74 -25 17
-60 52 -78 79 -20 31 -48 57 -81 75 -28 15 -62 42 -76 61 -24 32 -108 83 -137
83 -7 0 -24 12 -38 26 -23 25 -207 124 -230 124 -7 0 -51 18 -98 41 -144 68
-188 79 -303 78 -64 0 -114 -6 -133 -14z m332 -185 c35 -16 79 -41 96 -54 18
-14 64 -35 102 -47 39 -12 86 -36 106 -53 20 -17 82 -69 139 -116 172 -142
186 -155 263 -238 77 -82 103 -119 92 -130 -15 -15 -155 1 -240 28 -125 39
-171 50 -240 59 -34 5 -70 13 -82 19 -12 7 -48 12 -80 12 l-58 0 -93 45 c-52
25 -98 45 -104 45 -5 0 -39 14 -75 30 -35 17 -76 30 -90 30 -41 0 -151 58
-178 95 -14 18 -45 45 -69 60 -25 15 -52 42 -62 60 l-17 31 18 38 c11 22 40
53 73 76 l55 40 190 0 189 0 65 -30z"/>
</g>
</svg>
