<?xml version="1.0" standalone="no"?>
<!DOCTYPE svg PUBLIC "-//W3C//DTD SVG 20010904//EN"
 "http://www.w3.org/TR/2001/REC-SVG-20010904/DTD/svg10.dtd">
<svg version="1.0" xmlns="http://www.w3.org/2000/svg"
 width="1026.000000pt" height="252.000000pt" viewBox="0 0 1026.000000 252.000000"
 preserveAspectRatio="xMidYMid meet">
<metadata>
Created by potrace 1.16, written by Peter Selinger 2001-2019
</metadata>
<g transform="translate(0.000000,252.000000) scale(0.100000,-0.100000)"
fill="#000000" stroke="none">
<path d="M8034 2493 c4 -16 18 -38 32 -50 l25 -23 127 0 c91 -1 134 -5 152
-15 19 -11 67 -14 195 -15 128 -1 176 -4 195 -15 18 -10 60 -14 143 -15 81 0
129 -5 154 -15 22 -9 67 -15 120 -15 52 0 97 -6 120 -15 19 -8 64 -15 100 -15
l64 0 25 25 c19 19 23 29 15 42 -18 35 -57 62 -118 82 l-62 21 -381 0 -381 0
-36 15 c-27 12 -80 15 -229 15 -118 0 -195 4 -199 10 -3 6 -20 10 -37 10 l-30
0 6 -27z"/>
<path d="M7837 2002 c-11 -12 -17 -36 -17 -69 0 -67 18 -83 95 -83 l58 0 104
-50 c57 -27 106 -57 110 -67 4 -11 -4 -25 -25 -45 l-32 -28 -370 0 -371 0 -36
15 -35 15 -265 0 -264 0 -36 15 -35 15 -445 0 -444 0 -56 25 -55 26 -43 -26
-44 -25 -171 0 -171 0 -43 25 -44 25 -26 -10 c-16 -6 -130 -10 -272 -10 l-245
0 -56 25 -56 26 -30 -11 c-16 -5 -93 -10 -171 -10 l-141 0 -53 25 -54 25 -81
0 c-65 0 -88 4 -112 20 -23 15 -47 20 -98 20 l-69 0 -29 -29 c-23 -23 -29 -38
-29 -71 l0 -42 143 -147 c79 -80 150 -157 157 -171 14 -27 74 -103 126 -160
42 -46 134 -185 134 -202 0 -20 -125 -158 -177 -195 l-47 -33 -57 0 c-35 0
-73 -7 -100 -20 -24 -11 -63 -20 -85 -20 -23 0 -57 -6 -75 -14 -26 -11 -60
-13 -135 -9 l-101 6 -45 -17 -44 -17 -42 16 c-33 14 -60 16 -129 11 -49 -4
-101 -6 -118 -5 -16 0 -125 2 -241 3 l-210 3 -28 18 -27 18 -88 -6 -89 -6 -23
17 c-19 13 -58 19 -174 24 -182 8 -251 18 -287 42 -21 14 -37 16 -68 11 -29
-5 -47 -3 -63 8 -13 8 -43 17 -67 19 -45 5 -87 18 -145 44 -16 7 -52 13 -80
13 -113 -2 -322 28 -347 49 -24 19 -318 112 -356 112 -23 0 -72 17 -130 45
-52 25 -99 45 -105 45 -7 0 -32 14 -57 30 -25 16 -58 30 -73 30 -27 0 -108 42
-207 107 -53 35 -154 73 -195 73 l-25 0 0 -37 0 -38 71 -63 c38 -34 78 -62 87
-62 23 0 135 -54 175 -84 35 -26 142 -66 180 -66 12 0 92 -34 176 -75 105 -52
164 -75 189 -75 42 0 225 -60 273 -89 20 -12 42 -18 59 -15 16 4 48 -4 84 -20
l58 -26 132 0 131 -1 39 -24 c26 -16 48 -22 66 -19 17 4 39 -2 60 -15 21 -12
43 -18 60 -15 16 4 39 -2 61 -15 l36 -21 31 11 31 11 44 -26 45 -26 26 10 c39
14 91 12 133 -5 26 -11 74 -15 180 -15 l144 0 43 -25 44 -25 26 10 c16 6 125
10 257 10 l230 0 55 -25 c69 -32 109 -32 178 0 l55 25 80 0 c44 0 92 -5 107
-10 l26 -10 45 25 44 26 32 -10 c22 -8 43 -8 63 -2 16 5 64 13 106 16 58 5 87
13 113 31 20 13 55 34 78 45 147 75 327 259 327 334 0 40 -54 112 -186 247
-79 81 -144 152 -144 157 0 6 -22 35 -49 65 -27 30 -55 64 -61 75 -24 47 37
88 84 57 14 -9 47 -16 78 -16 29 -1 184 -3 345 -4 l291 -4 23 -16 23 -16 299
0 298 0 36 -15 c50 -21 122 -19 157 4 l29 19 96 -5 c53 -2 116 -11 139 -20 30
-11 57 -13 85 -8 23 4 53 7 67 6 14 -1 131 -5 260 -9 158 -5 242 -11 257 -19
16 -10 120 -13 423 -13 l401 0 36 -15 35 -15 352 0 351 0 59 17 59 18 55 73
54 72 27 0 c15 0 92 -32 171 -71 80 -39 179 -82 221 -96 46 -14 93 -38 115
-57 41 -34 114 -76 135 -76 17 0 104 -56 162 -103 26 -21 63 -43 81 -48 19 -5
61 -33 94 -62 60 -51 115 -94 196 -151 127 -89 279 -248 379 -396 32 -47 71
-103 87 -124 l30 -39 0 -117 0 -116 -45 -93 c-25 -51 -45 -106 -45 -122 l0
-29 23 0 c27 0 94 75 130 145 14 28 34 59 46 69 15 14 21 31 21 62 0 24 -4 46
-10 49 -5 3 -10 38 -10 76 0 78 -27 170 -66 228 -13 19 -24 44 -24 54 0 10
-29 48 -63 85 -35 37 -72 81 -82 97 -29 47 -57 75 -100 103 -22 14 -74 57
-115 97 -41 39 -129 107 -195 151 -66 43 -140 97 -165 120 -25 23 -77 57 -115
77 -39 19 -111 62 -160 96 -57 39 -100 61 -118 61 -27 0 -99 38 -218 114 -31
20 -68 36 -85 36 -16 0 -42 9 -59 21 -59 40 -245 129 -270 129 -15 0 -52 12
-82 26 -31 14 -89 36 -130 49 -40 13 -90 36 -110 50 l-38 25 -96 0 -96 0 -16
-18z"/>
</g>
</svg>
