<?xml version="1.0" standalone="no"?>
<!DOCTYPE svg PUBLIC "-//W3C//DTD SVG 20010904//EN"
 "http://www.w3.org/TR/2001/REC-SVG-20010904/DTD/svg10.dtd">
<svg version="1.0" xmlns="http://www.w3.org/2000/svg"
 width="231.000000pt" height="303.000000pt" viewBox="0 0 231.000000 303.000000"
 preserveAspectRatio="xMidYMid meet">
<metadata>
Created by potrace 1.16, written by Peter Selinger 2001-2019
</metadata>
<g transform="translate(0.000000,303.000000) scale(0.100000,-0.100000)"
fill="#000000" stroke="none">
<path d="M470 2997 c0 -63 65 -97 185 -97 53 0 99 -6 122 -15 27 -11 77 -15
210 -15 132 0 182 -4 210 -15 27 -12 81 -15 239 -15 l204 0 40 -16 c31 -12 57
-15 113 -10 39 4 83 6 97 6 14 0 100 -3 192 -6 l166 -5 31 16 c22 11 31 23 31
40 l0 25 -60 30 -59 30 -341 0 -341 0 -36 15 c-24 10 -71 15 -150 15 -78 0
-125 5 -150 15 -24 10 -70 15 -139 15 -58 0 -106 4 -109 10 -4 6 -92 10 -231
10 l-224 0 0 -33z"/>
<path d="M889 2531 c-52 -53 -28 -111 45 -111 21 0 70 -10 109 -22 57 -18 81
-32 117 -69 25 -26 68 -58 95 -72 28 -13 78 -50 113 -81 34 -31 66 -56 71 -56
5 0 45 -34 90 -75 44 -41 85 -75 90 -75 16 0 156 -137 186 -182 16 -24 44 -60
62 -82 18 -21 42 -71 56 -115 14 -42 37 -101 51 -131 l26 -55 0 -80 c0 -85
-24 -174 -61 -226 -17 -24 -150 -118 -228 -161 -36 -20 -41 -52 -12 -68 28
-15 93 -12 134 5 20 8 51 15 68 15 l31 0 80 78 c92 88 103 108 154 260 l37
111 -17 41 c-9 22 -16 56 -16 75 0 53 -67 241 -106 298 -55 80 -441 461 -494
487 -25 12 -65 39 -90 60 -25 20 -65 47 -89 59 -24 13 -62 36 -84 52 -25 18
-52 29 -73 29 -26 0 -39 8 -63 38 -23 30 -45 44 -96 60 -36 12 -86 22 -111 22
l-46 0 -29 -29z"/>
<path d="M2107 592 c-22 -24 -22 -97 -1 -147 l16 -38 -16 -41 c-9 -23 -16 -53
-16 -67 0 -51 -52 -92 -140 -109 -56 -11 -122 -28 -180 -46 -34 -11 -106 -14
-290 -14 l-245 0 -63 30 -64 30 -86 0 -87 0 -63 30 c-35 17 -74 30 -86 30 -12
0 -60 13 -106 30 -47 16 -94 30 -105 30 -11 0 -40 7 -65 15 -25 8 -62 17 -82
20 -20 3 -59 21 -86 40 -59 40 -245 105 -302 105 l-40 0 0 -40 0 -40 37 -20
c21 -12 63 -37 93 -56 30 -19 71 -39 90 -44 49 -13 133 -55 182 -90 31 -22 52
-30 85 -30 24 0 60 -7 80 -15 19 -8 53 -15 75 -15 21 0 55 -7 75 -15 19 -8 45
-15 56 -15 12 0 62 -13 112 -29 127 -41 173 -52 230 -58 28 -3 54 -9 60 -14
12 -12 690 -12 713 1 9 5 50 20 89 34 40 13 93 37 119 52 25 16 69 43 97 59
51 30 54 33 109 147 12 25 10 166 -2 173 -6 4 -21 28 -35 55 -14 27 -35 56
-47 64 -31 22 -91 21 -111 -2z"/>
</g>
</svg>
