<?xml version="1.0" standalone="no"?>
<!DOCTYPE svg PUBLIC "-//W3C//DTD SVG 20010904//EN"
 "http://www.w3.org/TR/2001/REC-SVG-20010904/DTD/svg10.dtd">
<svg version="1.0" xmlns="http://www.w3.org/2000/svg"
 width="210.000000pt" height="303.000000pt" viewBox="0 0 210.000000 303.000000"
 preserveAspectRatio="xMidYMid meet">
<metadata>
Created by potrace 1.16, written by Peter Selinger 2001-2019
</metadata>
<g transform="translate(0.000000,303.000000) scale(0.100000,-0.100000)"
fill="#000000" stroke="none">
<path d="M7 3023 c-4 -3 -7 -25 -7 -47 l0 -42 95 -32 c57 -19 114 -32 145 -32
28 0 67 -7 87 -15 26 -11 74 -15 182 -15 l147 0 29 -30 29 -30 58 0 c32 0 75
-7 95 -15 19 -8 53 -15 75 -15 21 0 55 -7 75 -15 20 -8 66 -15 105 -15 38 0
84 -7 105 -15 25 -11 72 -15 165 -15 92 0 139 -4 165 -15 27 -12 80 -15 233
-15 l197 0 16 18 c23 25 22 85 -1 105 l-19 17 -162 0 c-121 0 -171 4 -198 15
-20 8 -66 15 -105 15 -38 0 -84 7 -105 15 -22 9 -67 15 -120 15 -52 0 -97 6
-120 15 -23 10 -69 15 -135 15 -65 0 -111 5 -135 15 -20 9 -66 15 -107 15
l-72 0 -29 30 -29 30 -58 0 c-32 0 -75 7 -95 15 -24 10 -70 15 -139 15 -58 0
-106 4 -109 10 -7 11 -247 14 -258 3z"/>
<path d="M604 2546 c-19 -19 -34 -38 -34 -44 0 -5 10 -24 23 -43 l23 -34 44
-7 c66 -9 164 -63 200 -109 18 -21 40 -39 51 -39 22 0 67 -63 71 -100 l3 -24
-40 -20 c-22 -10 -51 -24 -65 -30 -13 -6 -31 -23 -39 -38 -23 -40 -5 -75 58
-119 29 -20 77 -59 105 -87 28 -27 71 -60 96 -74 25 -15 55 -39 67 -56 12 -16
46 -43 75 -61 29 -17 90 -62 135 -99 45 -37 103 -82 128 -100 24 -18 59 -53
77 -79 37 -53 131 -149 171 -176 14 -9 30 -33 36 -52 5 -19 27 -56 50 -82 61
-73 71 -106 71 -232 0 -60 -4 -121 -9 -134 -5 -13 -50 -64 -99 -113 l-90 -89
-115 -37 c-63 -21 -124 -38 -135 -38 -11 0 -36 -7 -55 -15 -51 -21 -303 -21
-354 0 -19 8 -53 15 -75 15 -21 0 -55 7 -75 15 -19 8 -53 15 -75 15 -45 0
-144 42 -209 89 -23 17 -49 31 -57 31 -34 0 -162 72 -220 124 l-63 56 -40 0
c-56 0 -99 -42 -99 -97 0 -48 20 -78 70 -103 21 -11 59 -38 85 -60 25 -22 50
-40 55 -40 4 0 51 -43 104 -96 74 -74 97 -103 102 -131 9 -48 -2 -62 -77 -101
l-63 -32 -62 0 c-70 0 -94 -17 -94 -68 l0 -32 164 0 163 0 66 60 66 61 15 53
c9 30 13 61 10 70 -3 9 -1 23 6 31 18 22 275 21 327 0 50 -21 286 -21 336 0
21 8 67 15 105 15 39 0 85 7 105 15 20 8 48 15 62 15 34 0 94 31 164 85 105
82 142 119 187 185 l44 66 0 46 c0 26 4 50 10 53 13 8 13 252 0 260 -5 3 -10
14 -10 23 0 16 -34 69 -120 187 -19 27 -55 67 -79 90 -44 43 -68 67 -148 148
-93 93 -290 266 -370 325 -129 94 -164 124 -189 161 l-26 39 27 79 26 79 -11
28 c-5 15 -10 40 -10 56 0 21 -9 36 -35 56 -22 16 -35 35 -35 49 0 38 -30 62
-157 125 -95 47 -285 120 -311 120 -2 0 -19 -15 -38 -34z"/>
</g>
</svg>
