<?xml version="1.0" standalone="no"?>
<!DOCTYPE svg PUBLIC "-//W3C//DTD SVG 20010904//EN"
 "http://www.w3.org/TR/2001/REC-SVG-20010904/DTD/svg10.dtd">
<svg version="1.0" xmlns="http://www.w3.org/2000/svg"
 width="600.000000pt" height="189.000000pt" viewBox="0 0 600.000000 189.000000"
 preserveAspectRatio="xMidYMid meet">
<metadata>
Created by potrace 1.16, written by Peter Selinger 2001-2019
</metadata>
<g transform="translate(0.000000,189.000000) scale(0.100000,-0.100000)"
fill="#000000" stroke="none">
<path d="M3950 1856 c0 -18 7 -39 16 -47 30 -25 119 -48 187 -49 37 0 84 -7
104 -15 24 -10 71 -15 150 -15 78 0 125 -5 150 -15 24 -10 71 -15 150 -15 78
0 125 -5 150 -15 24 -10 71 -15 150 -15 78 0 125 -5 150 -15 26 -11 76 -15
197 -15 l161 0 53 -25 c68 -31 83 -31 113 1 l24 26 70 -7 c97 -9 133 -9 183 0
l42 8 0 51 0 51 -49 18 -49 17 -336 0 -337 0 -36 15 c-26 11 -74 15 -180 15
-105 0 -153 4 -180 15 -25 11 -72 15 -165 15 -92 0 -139 4 -165 15 -25 10 -71
15 -154 15 -68 0 -120 4 -124 10 -4 6 -62 10 -141 10 l-134 0 0 -34z"/>
<path d="M625 1074 c-16 -7 -55 -13 -86 -14 -31 0 -73 -7 -92 -15 -20 -8 -49
-15 -64 -15 -17 0 -67 -27 -137 -74 -123 -82 -128 -86 -185 -171 l-41 -60 0
-47 c0 -26 -5 -50 -10 -53 -6 -3 -10 -52 -10 -113 l0 -106 27 -28 c34 -36 67
-36 104 1 l29 29 0 59 c0 39 11 89 33 155 l33 97 73 66 c41 36 86 68 100 72
14 3 49 16 76 29 28 13 77 32 110 43 l59 21 423 0 424 0 36 -15 c22 -9 67 -15
120 -15 52 0 97 -6 120 -15 22 -9 67 -15 120 -15 52 0 97 -6 120 -15 23 -10
69 -15 132 -15 101 0 157 -14 269 -66 29 -13 64 -24 78 -24 13 0 41 -7 61 -15
19 -8 53 -15 75 -15 21 0 55 -7 75 -15 20 -9 66 -15 107 -15 55 0 83 -6 126
-26 74 -34 207 -74 312 -94 26 -5 56 -13 67 -19 11 -6 39 -11 63 -11 54 0 103
-31 143 -91 39 -60 192 -209 213 -209 9 0 44 -27 77 -60 32 -33 66 -60 74 -60
18 0 214 -95 253 -121 l26 -19 104 0 104 0 12 33 c15 42 15 134 1 177 l-12 32
14 9 c27 17 104 9 194 -20 103 -33 160 -49 227 -61 26 -5 56 -13 67 -19 11 -6
51 -11 90 -11 38 0 82 -5 98 -12 27 -11 181 -29 253 -29 75 0 178 14 235 33
71 23 162 105 201 180 l24 47 0 106 0 106 -25 49 c-38 75 -93 102 -127 63 -38
-44 -48 -81 -48 -183 0 -126 -13 -157 -88 -210 l-55 -40 -96 0 c-55 0 -115 6
-141 14 -101 32 -140 39 -255 45 -66 4 -130 12 -142 19 -12 6 -32 12 -45 12
-13 0 -62 13 -108 30 -47 16 -101 30 -120 30 -19 0 -55 6 -80 14 -76 24 -132
37 -195 46 -33 4 -84 20 -112 34 -29 14 -64 26 -78 26 -14 0 -42 7 -62 15 -19
8 -47 15 -62 15 -14 0 -68 20 -119 45 -58 28 -108 45 -130 45 -20 0 -77 13
-127 29 -122 39 -170 51 -240 60 -34 5 -70 13 -82 19 -12 7 -40 12 -63 12 -22
0 -57 7 -77 15 -19 8 -52 15 -71 15 -20 0 -96 20 -169 45 -88 30 -149 45 -183
45 -28 0 -67 7 -87 15 -20 9 -66 15 -107 15 l-71 0 -45 30 c-32 22 -57 30 -88
30 -23 0 -59 7 -79 15 -19 8 -53 15 -75 15 -21 0 -55 7 -75 15 -20 8 -66 15
-105 15 -38 0 -84 7 -105 15 -27 12 -79 15 -225 15 -147 0 -197 3 -225 15
l-37 16 -346 -2 c-257 -2 -353 -5 -375 -15z m3311 -724 c21 -16 47 -30 57 -30
54 -1 177 -94 177 -133 l0 -19 -27 18 c-16 10 -80 44 -143 77 -63 32 -121 65
-129 72 l-14 14 13 15 c17 21 20 21 66 -14z"/>
</g>
</svg>
