<?xml version="1.0" standalone="no"?>
<!DOCTYPE svg PUBLIC "-//W3C//DTD SVG 20010904//EN"
 "http://www.w3.org/TR/2001/REC-SVG-20010904/DTD/svg10.dtd">
<svg version="1.0" xmlns="http://www.w3.org/2000/svg"
 width="567.000000pt" height="288.000000pt" viewBox="0 0 567.000000 288.000000"
 preserveAspectRatio="xMidYMid meet">
<metadata>
Created by potrace 1.16, written by Peter Selinger 2001-2019
</metadata>
<g transform="translate(0.000000,288.000000) scale(0.100000,-0.100000)"
fill="#000000" stroke="none">
<path d="M1145 2870 c-3 -5 -33 -10 -66 -10 -59 0 -105 -15 -141 -48 -24 -20
-24 -84 0 -104 31 -28 141 -78 169 -78 30 0 56 -15 111 -62 18 -15 40 -28 48
-28 31 0 150 -62 203 -106 29 -24 61 -44 71 -44 9 0 36 -15 60 -32 24 -18 62
-46 84 -61 61 -43 182 -165 221 -222 18 -27 48 -63 65 -80 54 -50 90 -106 90
-139 0 -20 15 -52 40 -89 22 -33 42 -75 45 -95 3 -21 13 -58 21 -83 10 -30 16
-89 16 -165 2 -130 -6 -158 -61 -234 -17 -24 -31 -50 -31 -57 0 -26 -31 -68
-68 -93 -21 -14 -61 -46 -91 -73 -79 -71 -305 -177 -377 -177 -12 0 -38 -7
-57 -15 -46 -19 -107 -19 -134 0 -13 9 -31 46 -48 100 -15 46 -42 108 -61 137
-18 29 -46 78 -63 108 -30 55 -178 209 -236 245 -16 10 -50 37 -75 60 -49 46
-106 79 -158 90 -17 3 -54 22 -81 40 -27 19 -97 50 -155 69 l-106 36 -80 0
c-55 0 -100 -7 -145 -22 l-66 -21 -45 -51 -44 -51 0 -102 0 -102 22 -36 c115
-183 125 -196 182 -232 22 -14 69 -53 106 -87 37 -33 83 -70 101 -81 l34 -21
-3 -34 c-2 -19 -10 -50 -18 -69 -8 -18 -14 -56 -14 -83 l0 -49 43 -47 c24 -26
58 -66 76 -89 18 -24 40 -43 49 -43 10 0 59 -20 110 -45 l94 -45 84 0 c59 0
103 6 146 21 117 39 151 64 213 158 44 65 88 91 156 91 31 0 73 7 92 15 20 8
52 15 72 15 40 0 123 26 205 64 34 16 73 26 102 26 l48 0 54 49 c30 28 68 58
83 67 15 10 68 56 116 103 l89 86 54 107 c30 59 54 119 54 133 0 13 7 43 16
65 22 55 14 124 -32 270 -8 25 -14 55 -14 68 0 26 -118 266 -164 332 -17 25
-49 66 -72 91 -23 25 -53 64 -68 87 -14 23 -40 48 -56 57 -17 9 -61 44 -98 78
-37 35 -80 71 -97 82 -16 10 -50 37 -75 60 -46 43 -104 77 -152 89 -14 3 -50
27 -80 54 -29 26 -72 60 -96 75 -68 44 -54 52 106 55 109 2 150 -1 178 -13 20
-8 54 -15 76 -15 21 0 55 -7 75 -15 23 -10 69 -15 131 -15 l95 0 224 -75 c123
-41 231 -75 241 -75 32 0 159 -48 260 -99 56 -28 114 -51 129 -51 33 0 193
-75 253 -119 25 -18 55 -31 73 -31 17 0 51 -13 76 -29 25 -16 57 -31 71 -34
14 -4 44 -22 67 -42 23 -20 65 -43 93 -51 28 -8 74 -34 104 -59 30 -24 72 -53
94 -64 49 -25 168 -105 202 -136 14 -13 48 -34 75 -49 61 -31 73 -41 108 -88
15 -20 43 -46 61 -59 18 -12 43 -38 57 -58 13 -20 35 -50 50 -67 14 -17 51
-69 83 -115 31 -46 70 -102 86 -123 17 -21 30 -45 30 -52 0 -7 13 -41 30 -76
16 -34 30 -70 30 -78 0 -8 14 -35 30 -60 16 -25 30 -57 30 -71 0 -15 7 -43 15
-62 21 -50 21 -244 0 -294 -8 -19 -15 -47 -15 -62 0 -56 -105 -235 -196 -333
-48 -51 -55 -82 -32 -145 l12 -33 653 0 653 0 0 65 0 65 -220 0 c-174 0 -228
3 -257 15 -45 19 -81 19 -128 -1 l-38 -16 -41 16 c-32 12 -80 16 -203 16
l-162 0 -11 21 -11 20 30 48 c17 26 31 54 31 62 0 8 9 28 21 44 11 17 29 47
40 67 l19 37 -12 45 -12 44 17 44 c25 65 23 220 -4 300 -11 34 -27 75 -35 90
-23 44 -64 170 -64 196 0 31 -30 87 -103 196 -102 151 -240 321 -321 395 -21
20 -66 61 -100 92 -61 56 -116 90 -168 103 -14 3 -50 28 -80 55 -29 26 -87 65
-128 86 -41 20 -95 54 -120 75 -46 38 -120 80 -140 80 -27 0 -149 65 -199 106
-38 31 -62 44 -85 44 -35 0 -140 46 -189 84 -35 26 -142 66 -179 66 -13 0 -66
20 -118 44 -188 86 -261 112 -391 136 -26 5 -65 18 -87 29 -37 19 -93 38 -212
72 -25 7 -108 14 -185 16 -77 2 -144 8 -149 14 -14 13 -523 12 -531 -1z m-509
-1459 l160 -78 76 -69 c42 -38 87 -77 102 -87 14 -9 29 -33 35 -52 5 -19 27
-56 50 -82 102 -121 94 -253 -16 -253 -38 0 -157 36 -211 64 -43 22 -148 56
-174 56 -13 0 -61 25 -107 55 -45 31 -104 66 -130 80 -70 35 -151 113 -214
207 -85 127 -96 170 -52 213 l24 25 149 0 148 0 160 -79z m114 -685 c57 -18
122 -35 180 -46 73 -15 145 -45 148 -62 4 -23 -59 -84 -113 -108 -53 -24 -159
-27 -211 -5 -49 20 -111 71 -145 118 -35 49 -36 61 -4 92 28 29 76 33 145 11z"/>
</g>
</svg>
