<?xml version="1.0" standalone="no"?>
<!DOCTYPE svg PUBLIC "-//W3C//DTD SVG 20010904//EN"
 "http://www.w3.org/TR/2001/REC-SVG-20010904/DTD/svg10.dtd">
<svg version="1.0" xmlns="http://www.w3.org/2000/svg"
 width="366.000000pt" height="285.000000pt" viewBox="0 0 366.000000 285.000000"
 preserveAspectRatio="xMidYMid meet">
<metadata>
Created by potrace 1.16, written by Peter Selinger 2001-2019
</metadata>
<g transform="translate(0.000000,285.000000) scale(0.100000,-0.100000)"
fill="#000000" stroke="none">
<path d="M0 2801 l0 -49 33 -24 c17 -14 55 -37 82 -51 65 -34 76 -44 111 -93
16 -22 44 -60 62 -84 l32 -43 0 -57 c0 -41 -5 -64 -17 -78 -23 -27 -125 -62
-178 -62 -23 0 -46 -5 -53 -12 -20 -20 -13 -55 14 -77 l27 -21 100 0 100 0 85
83 84 84 8 49 c5 27 11 56 15 65 3 9 -16 47 -50 99 -32 49 -55 93 -53 104 l3
21 43 3 c29 2 73 -7 132 -27 48 -17 103 -31 120 -31 36 0 336 -97 399 -129 22
-12 52 -21 66 -21 15 0 56 -13 92 -30 35 -16 69 -30 74 -30 6 0 39 -17 74 -39
36 -21 109 -53 164 -70 55 -18 112 -42 127 -54 16 -12 85 -51 154 -87 l125
-65 27 -41 c15 -22 47 -53 71 -68 25 -16 57 -49 73 -73 16 -25 43 -56 61 -70
43 -33 93 -113 93 -149 0 -16 11 -46 24 -65 14 -20 34 -63 45 -95 l21 -58 0
-138 c0 -101 -4 -149 -15 -175 -28 -67 -15 -151 33 -205 12 -14 31 -18 89 -18
43 0 89 -6 110 -15 19 -8 53 -15 75 -15 21 0 55 -7 75 -15 19 -8 60 -15 90
-15 29 0 70 -7 90 -15 23 -10 69 -15 135 -15 65 0 111 -5 135 -15 52 -22 381
-22 423 0 l30 16 0 39 0 40 -70 0 c-40 0 -86 6 -107 15 -24 10 -71 15 -150 15
-78 0 -125 5 -150 15 -24 10 -71 15 -150 15 -78 0 -125 5 -150 15 -20 8 -66
15 -105 15 -38 0 -84 7 -105 15 -19 8 -48 15 -64 15 -19 0 -42 12 -66 34 l-37
33 12 40 c7 24 12 101 12 184 l0 144 -30 85 c-17 46 -30 103 -30 127 l0 43
-69 74 c-44 48 -74 90 -82 117 -11 34 -25 51 -64 77 -28 19 -63 52 -79 74 -15
21 -49 49 -76 63 -27 14 -61 41 -76 61 -20 26 -64 55 -163 105 -75 39 -160 85
-189 103 -29 19 -91 46 -139 61 -47 15 -135 52 -195 81 -60 30 -120 54 -134
54 -14 0 -55 14 -91 30 -35 17 -74 30 -86 30 -28 0 -153 42 -206 69 -22 12
-59 21 -81 21 -22 0 -57 7 -77 15 -19 8 -52 15 -72 15 -20 0 -56 6 -81 14 -70
22 -131 37 -173 43 -20 3 -40 9 -43 14 -3 5 -70 9 -150 9 l-144 0 0 -49z"/>
<path d="M140 1775 c-40 -20 -79 -51 -102 -79 l-38 -45 0 -55 c0 -30 5 -58 10
-61 6 -3 10 -17 10 -31 0 -47 41 -147 80 -193 21 -25 55 -80 75 -121 25 -49
59 -96 100 -137 34 -35 75 -82 90 -105 37 -56 628 -652 679 -685 22 -14 60
-44 85 -67 25 -23 59 -50 74 -60 15 -9 53 -39 83 -67 30 -27 63 -49 74 -49 10
0 22 -4 25 -10 3 -5 33 -10 66 -10 l59 0 0 22 c0 26 -97 120 -155 150 -45 23
-55 32 -398 369 -136 134 -264 268 -283 296 -19 29 -54 69 -78 89 -24 20 -54
55 -66 78 -13 22 -52 71 -86 108 -37 39 -67 82 -72 102 -6 19 -28 57 -49 83
-58 71 -103 146 -103 174 0 13 -7 42 -16 65 l-16 42 16 34 c9 19 37 51 61 71
25 21 49 47 55 57 l11 20 -25 25 c-35 35 -85 32 -166 -10z"/>
</g>
</svg>
