<?xml version="1.0" standalone="no"?>
<!DOCTYPE svg PUBLIC "-//W3C//DTD SVG 20010904//EN"
 "http://www.w3.org/TR/2001/REC-SVG-20010904/DTD/svg10.dtd">
<svg version="1.0" xmlns="http://www.w3.org/2000/svg"
 width="372.000000pt" height="501.000000pt" viewBox="0 0 372.000000 501.000000"
 preserveAspectRatio="xMidYMid meet">
<metadata>
Created by potrace 1.16, written by Peter Selinger 2001-2019
</metadata>
<g transform="translate(0.000000,501.000000) scale(0.100000,-0.100000)"
fill="#000000" stroke="none">
<path d="M0 4960 l0 -50 60 -30 59 -30 236 0 c187 0 243 -3 272 -15 28 -12 82
-15 255 -15 172 0 226 -3 255 -15 51 -22 270 -21 301 1 43 30 24 64 -36 64
-15 1 -38 7 -52 15 -15 9 -54 14 -98 15 -41 0 -88 6 -109 15 -27 12 -82 15
-242 15 l-206 1 -39 23 -38 24 -31 -9 c-18 -5 -76 -9 -130 -9 l-98 0 -25 25
c-25 26 -77 34 -89 15 -3 -5 -46 -10 -95 -10 -49 0 -92 5 -95 10 -3 6 -17 10
-31 10 l-24 0 0 -50z"/>
<path d="M607 4552 c-10 -10 -17 -26 -17 -36 0 -45 80 -156 192 -265 25 -25
56 -66 68 -91 13 -24 38 -66 56 -93 19 -27 34 -53 34 -57 0 -5 20 -32 44 -60
25 -29 48 -67 52 -84 3 -17 22 -48 40 -68 19 -21 55 -79 80 -130 26 -51 69
-117 96 -147 27 -30 61 -77 75 -105 14 -28 43 -71 64 -96 38 -45 99 -162 99
-190 0 -8 14 -35 30 -60 l30 -45 0 -79 0 -79 44 -43 43 -44 44 0 c24 0 64 -7
89 -15 25 -8 61 -17 81 -20 23 -3 53 -20 81 -44 24 -22 95 -65 158 -97 63 -32
130 -72 150 -89 38 -35 80 -59 122 -69 15 -3 61 -38 102 -76 42 -39 81 -70 87
-70 16 0 423 -405 456 -454 15 -23 46 -64 68 -93 22 -28 58 -75 80 -104 22
-29 59 -75 82 -102 23 -27 45 -64 49 -81 3 -17 22 -48 41 -69 33 -37 113 -188
113 -213 0 -7 27 -68 60 -135 l60 -122 0 -221 0 -221 -19 -40 c-11 -22 -37
-62 -60 -89 -23 -26 -41 -56 -41 -65 0 -29 -30 -61 -82 -87 -93 -47 -218 -152
-218 -183 l0 -21 40 0 c25 0 51 8 68 20 15 11 51 24 80 29 l52 8 63 59 c34 33
77 70 95 83 18 12 42 41 53 63 11 22 33 57 48 78 14 20 35 57 45 81 10 24 22
52 27 61 13 25 12 555 -1 563 -18 11 -82 147 -111 238 -19 58 -47 114 -83 166
-29 43 -69 107 -87 142 -19 35 -58 87 -86 115 -30 29 -58 68 -65 90 -9 26 -27
47 -58 69 -33 23 -49 44 -60 75 -12 34 -27 52 -67 79 -28 20 -65 56 -81 81
-17 25 -50 58 -74 74 -25 15 -59 50 -77 77 -19 30 -47 57 -72 69 -22 12 -68
50 -103 85 -34 36 -71 65 -82 65 -20 0 -138 74 -190 119 -17 16 -47 31 -67 35
-19 4 -54 24 -78 45 -64 55 -130 101 -146 101 -28 0 -121 49 -165 87 -25 22
-60 45 -79 52 -69 25 -101 46 -129 81 -33 41 -120 215 -120 239 0 9 -27 56
-60 106 -33 49 -60 97 -60 106 0 9 -29 52 -65 95 -36 43 -77 97 -92 119 -121
184 -157 242 -198 325 -26 52 -57 109 -70 125 -12 17 -34 53 -48 82 -17 33
-41 61 -69 80 -31 21 -47 40 -58 73 -12 34 -27 52 -67 80 -29 19 -64 54 -80
78 -15 24 -36 50 -47 58 -29 20 -89 18 -109 -4z"/>
</g>
</svg>
