<?xml version="1.0" standalone="no"?>
<!DOCTYPE svg PUBLIC "-//W3C//DTD SVG 20010904//EN"
 "http://www.w3.org/TR/2001/REC-SVG-20010904/DTD/svg10.dtd">
<svg version="1.0" xmlns="http://www.w3.org/2000/svg"
 width="462.000000pt" height="192.000000pt" viewBox="0 0 462.000000 192.000000"
 preserveAspectRatio="xMidYMid meet">
<metadata>
Created by potrace 1.16, written by Peter Selinger 2001-2019
</metadata>
<g transform="translate(0.000000,192.000000) scale(0.100000,-0.100000)"
fill="#000000" stroke="none">
<path d="M3214 1885 c-8 -43 8 -65 48 -65 16 0 45 -7 65 -15 20 -8 66 -15 105
-15 38 0 84 -7 105 -15 24 -10 71 -15 150 -15 78 0 125 -5 150 -15 26 -11 76
-15 195 -15 118 0 168 -4 195 -15 23 -10 69 -15 133 -15 53 0 111 -5 128 -11
35 -12 60 -3 105 39 41 39 37 75 -15 112 l-41 30 -254 0 c-203 0 -261 3 -290
15 -27 11 -78 15 -214 15 -108 0 -180 4 -184 10 -4 6 -78 10 -190 10 l-184 0
-7 -35z"/>
<path d="M605 1288 c-11 -7 -54 -15 -95 -19 -41 -4 -93 -12 -115 -18 -22 -6
-51 -13 -65 -15 -14 -3 -50 -21 -80 -40 -30 -19 -81 -49 -113 -66 -36 -19 -65
-43 -75 -62 -9 -17 -27 -46 -39 -65 l-23 -34 0 -115 c0 -63 4 -122 9 -132 34
-65 71 -163 71 -187 0 -21 13 -42 46 -75 69 -68 194 -211 194 -223 0 -20 157
-170 202 -193 26 -13 49 -28 53 -34 3 -5 26 -10 50 -10 l44 0 7 34 c8 46 8 46
-56 97 -30 25 -73 69 -96 99 -23 30 -60 73 -82 95 -22 22 -50 58 -63 80 -12
22 -42 61 -66 87 -26 29 -43 57 -43 71 0 14 -11 58 -24 98 -16 48 -26 108 -29
169 l-5 95 19 32 c38 62 183 143 255 143 12 0 38 7 57 15 20 8 61 15 90 15 30
0 71 7 90 15 22 9 68 15 117 15 49 0 95 -6 117 -15 l35 -15 265 0 264 0 36
-15 c20 -8 66 -15 105 -15 38 0 84 -7 105 -15 27 -11 77 -15 210 -15 132 0
182 -4 210 -15 19 -8 60 -15 90 -15 29 0 70 -7 90 -15 19 -8 46 -15 60 -15 13
0 49 -11 79 -25 97 -45 171 -65 235 -65 50 0 99 -12 241 -60 98 -33 194 -60
213 -60 20 0 52 -7 72 -15 19 -8 47 -15 61 -15 13 0 64 -18 111 -41 101 -48
217 -85 341 -109 25 -5 96 -34 158 -64 80 -40 124 -56 153 -56 22 0 56 -7 76
-15 21 -9 66 -15 112 -15 l76 0 50 28 c69 38 104 102 105 192 l0 65 -41 60
c-63 93 -84 111 -157 133 -186 55 -253 64 -283 36 -24 -21 -25 -56 -1 -76 23
-21 198 -108 216 -108 31 0 47 -70 26 -111 l-11 -19 -100 0 c-106 0 -141 10
-204 56 -54 39 -114 64 -155 64 -22 0 -57 7 -77 15 -19 8 -47 15 -60 15 -14 0
-54 14 -90 30 -35 16 -76 30 -90 30 -13 0 -54 14 -90 30 -35 16 -74 30 -86 30
-12 0 -42 6 -67 14 -78 25 -133 37 -195 45 -34 5 -70 13 -82 19 -12 7 -32 12
-44 12 -13 0 -64 13 -114 29 -103 33 -160 49 -227 61 -26 5 -56 13 -67 19 -11
6 -38 11 -61 11 -22 0 -57 7 -77 15 -19 8 -60 15 -90 15 -29 0 -70 7 -90 15
-19 8 -60 15 -90 15 -29 0 -70 7 -90 15 -20 8 -66 15 -105 15 -38 0 -84 7
-105 15 l-35 15 -385 0 -384 0 -36 15 c-45 19 -327 21 -358 3z"/>
</g>
</svg>
