<?xml version="1.0" standalone="no"?>
<!DOCTYPE svg PUBLIC "-//W3C//DTD SVG 20010904//EN"
 "http://www.w3.org/TR/2001/REC-SVG-20010904/DTD/svg10.dtd">
<svg version="1.0" xmlns="http://www.w3.org/2000/svg"
 width="705.000000pt" height="378.000000pt" viewBox="0 0 705.000000 378.000000"
 preserveAspectRatio="xMidYMid meet">
<metadata>
Created by potrace 1.16, written by Peter Selinger 2001-2019
</metadata>
<g transform="translate(0.000000,378.000000) scale(0.100000,-0.100000)"
fill="#000000" stroke="none">
<path d="M40 3766 c0 -7 -9 -25 -20 -39 -27 -34 -26 -70 2 -82 12 -6 26 -24
30 -42 5 -20 33 -54 77 -95 38 -36 80 -82 92 -104 13 -21 41 -59 64 -84 22
-25 63 -79 90 -120 27 -41 66 -95 86 -120 20 -25 47 -65 59 -90 13 -25 45 -69
72 -99 27 -29 58 -72 70 -95 11 -22 27 -49 36 -58 21 -24 84 -24 105 0 37 41
8 136 -57 186 -23 17 -39 40 -46 66 -6 21 -15 42 -21 46 -26 16 -69 89 -69
118 0 38 -53 119 -139 212 -68 75 -77 104 -33 104 44 0 183 -53 231 -88 24
-18 56 -32 70 -32 31 0 123 -30 199 -66 29 -13 58 -24 65 -24 6 0 54 -20 105
-45 52 -25 98 -45 104 -45 19 0 136 -59 179 -89 23 -17 49 -31 57 -31 28 0
182 -80 221 -115 21 -19 44 -35 51 -35 19 0 138 -58 173 -84 42 -32 164 -92
203 -100 18 -4 51 -24 74 -44 24 -20 90 -62 148 -92 58 -30 110 -62 115 -71 8
-12 -2 -27 -47 -70 l-56 -55 0 -44 0 -44 89 -85 c157 -153 194 -174 371 -221
87 -22 100 -22 171 0 86 28 109 53 109 120 0 26 -6 63 -14 81 -24 61 -28 99
-9 106 9 3 58 -8 109 -25 51 -18 109 -32 129 -32 20 0 52 -7 72 -15 19 -8 45
-15 56 -15 12 0 62 -13 112 -29 101 -33 161 -49 220 -60 22 -4 58 -19 80 -34
22 -15 46 -27 55 -27 8 0 35 -14 60 -30 25 -16 58 -30 73 -30 16 0 58 -13 94
-30 35 -16 69 -30 74 -30 6 0 40 -18 77 -40 36 -22 83 -45 103 -50 21 -6 60
-31 88 -56 63 -57 161 -124 181 -124 8 0 40 -25 70 -56 53 -53 114 -94 142
-94 8 0 31 -20 51 -45 20 -24 61 -60 90 -79 28 -19 88 -70 132 -113 44 -43 96
-89 116 -102 20 -13 47 -40 60 -60 42 -63 127 -166 147 -178 11 -6 40 -42 65
-80 25 -37 57 -79 71 -92 14 -14 26 -33 26 -42 0 -10 25 -47 56 -81 31 -35 68
-85 81 -113 14 -27 34 -62 44 -76 19 -27 46 -99 60 -158 5 -25 3 -41 -9 -59
-22 -33 -51 -121 -52 -154 0 -14 12 -40 26 -57 l26 -31 609 0 609 0 0 50 0 49
-30 16 c-22 11 -62 15 -160 15 -96 0 -140 4 -168 16 l-37 15 -323 -2 c-223 -2
-326 1 -334 9 -7 7 -7 19 1 43 6 17 11 43 11 56 0 34 -33 127 -80 223 -22 46
-40 91 -40 100 0 9 -21 44 -47 78 -59 75 -124 161 -183 243 -25 34 -73 90
-107 125 -34 35 -69 78 -79 96 -22 45 -208 228 -231 228 -31 0 -62 29 -89 81
-15 30 -38 57 -56 67 -71 39 -120 76 -179 136 -35 35 -84 74 -109 86 -25 13
-58 33 -75 46 -16 12 -67 41 -111 63 -45 22 -106 62 -135 89 -58 53 -114 85
-167 97 -17 3 -53 21 -80 39 -67 46 -99 62 -189 91 -43 14 -110 41 -150 60
-39 19 -82 35 -95 35 -13 0 -36 9 -53 20 -16 11 -43 20 -58 20 -15 0 -44 7
-64 15 -19 8 -45 15 -57 15 -12 0 -60 13 -106 30 -47 16 -94 30 -104 30 -11 0
-80 20 -153 45 -104 35 -146 45 -198 45 -36 0 -82 7 -102 15 -19 8 -53 15 -75
15 -44 0 -144 42 -207 88 -22 16 -56 33 -75 36 -18 4 -53 24 -77 45 -48 42
-146 95 -196 105 -17 4 -51 24 -75 45 -42 38 -155 101 -180 101 -14 0 -71 30
-142 73 -25 16 -75 39 -109 51 -58 20 -163 90 -196 130 -7 9 -20 16 -28 16 -8
0 -44 14 -80 30 -35 17 -69 30 -75 30 -6 0 -50 18 -97 41 -47 22 -122 52 -166
67 -43 14 -124 47 -178 74 -54 27 -153 66 -220 88 -67 22 -155 56 -196 75 -84
41 -181 75 -211 75 -11 0 -44 24 -75 55 l-55 55 -80 0 c-61 0 -80 -3 -80 -14z
m2674 -1437 c53 -15 128 -92 124 -128 l-3 -26 -49 -3 -49 -3 -55 37 c-31 22
-61 53 -70 72 l-17 34 20 14 c23 17 47 18 99 3z"/>
</g>
</svg>
