<?xml version="1.0" standalone="no"?>
<!DOCTYPE svg PUBLIC "-//W3C//DTD SVG 20010904//EN"
 "http://www.w3.org/TR/2001/REC-SVG-20010904/DTD/svg10.dtd">
<svg version="1.0" xmlns="http://www.w3.org/2000/svg"
 width="936.000000pt" height="450.000000pt" viewBox="0 0 936.000000 450.000000"
 preserveAspectRatio="xMidYMid meet">
<metadata>
Created by potrace 1.16, written by Peter Selinger 2001-2019
</metadata>
<g transform="translate(0.000000,450.000000) scale(0.100000,-0.100000)"
fill="#000000" stroke="none">
<path d="M0 4477 c0 -26 39 -67 89 -92 19 -9 52 -30 74 -46 22 -16 47 -29 56
-29 9 0 36 -14 61 -30 25 -16 52 -30 60 -30 15 0 186 -76 250 -111 129 -71
244 -124 323 -149 51 -17 114 -46 141 -65 27 -19 57 -35 65 -35 9 0 45 -14 79
-30 35 -17 68 -30 73 -30 6 0 38 -17 73 -38 35 -21 117 -55 182 -77 74 -23
130 -48 149 -65 19 -16 75 -41 150 -65 131 -42 196 -71 258 -116 22 -16 52
-29 66 -29 42 0 219 -65 246 -90 26 -24 203 -89 246 -90 15 0 37 -12 54 -30
20 -21 38 -30 60 -30 16 0 47 -11 67 -25 19 -13 89 -42 154 -64 66 -21 145
-55 176 -74 32 -19 97 -47 145 -62 95 -30 107 -36 167 -77 21 -16 46 -28 55
-28 8 0 111 -47 228 -105 117 -58 219 -105 226 -105 7 0 29 -11 50 -25 47 -32
224 -120 257 -128 14 -4 44 -22 66 -41 22 -19 77 -53 122 -76 73 -38 112 -69
112 -92 0 -4 -13 -22 -29 -40 -15 -18 -34 -57 -42 -86 l-13 -52 45 -91 44 -91
65 -51 c90 -72 172 -127 188 -127 8 0 43 -13 79 -30 l64 -30 94 0 94 0 36 32
c39 33 75 95 75 127 0 20 -44 89 -102 163 -46 59 -62 96 -47 114 15 18 62 18
119 0 78 -25 133 -37 195 -45 34 -5 70 -13 82 -19 12 -7 52 -12 90 -12 70 0
170 -28 252 -69 22 -12 51 -21 64 -21 12 0 61 -13 107 -30 47 -16 94 -30 105
-30 29 0 135 -38 165 -60 50 -35 170 -90 197 -90 16 0 45 -11 64 -25 20 -13
97 -54 170 -91 74 -36 154 -83 179 -104 25 -20 65 -47 90 -60 25 -12 65 -39
90 -59 25 -20 82 -61 127 -91 55 -37 91 -69 110 -98 15 -24 48 -57 73 -74 25
-17 56 -44 68 -62 12 -17 60 -71 108 -121 98 -102 144 -161 144 -184 0 -8 20
-34 45 -57 l45 -41 0 -35 c0 -24 10 -49 32 -79 47 -65 88 -189 88 -269 0 -52
-6 -78 -30 -128 -37 -78 -38 -111 -4 -151 l26 -31 60 0 c42 0 68 5 86 19 15
10 48 28 74 40 l47 21 201 0 c156 0 209 -3 237 -15 26 -11 74 -15 180 -15 105
0 153 -4 180 -15 20 -9 66 -15 109 -15 40 0 76 -5 79 -10 3 -6 44 -10 91 -10
l84 0 0 38 c0 85 -88 121 -297 122 -87 0 -153 5 -170 12 -15 7 -84 16 -153 20
-69 5 -152 11 -185 13 -174 14 -322 16 -359 5 l-39 -12 -8 14 c-5 7 -9 29 -9
49 0 20 -7 53 -15 72 -8 20 -15 52 -15 72 0 51 -35 149 -75 206 -18 27 -37 64
-40 81 -13 60 -54 126 -105 170 -27 24 -50 49 -50 56 0 33 -52 112 -92 139
-26 17 -54 50 -73 82 -30 54 -36 59 -87 80 -15 5 -39 28 -53 50 -14 24 -43 50
-67 62 -23 12 -67 48 -97 80 -36 39 -66 62 -90 69 -20 5 -56 25 -81 45 -25 19
-71 56 -104 81 -32 26 -73 50 -90 55 -17 5 -53 27 -80 49 -26 22 -56 40 -65
40 -9 0 -36 14 -61 30 -25 17 -58 30 -75 30 -31 0 -61 16 -105 56 -14 13 -82
41 -155 65 -71 24 -179 67 -238 96 -59 29 -119 53 -133 53 -13 0 -41 7 -61 15
-19 8 -54 15 -77 15 -23 0 -65 11 -96 26 -74 34 -207 74 -312 94 -26 5 -56 13
-67 19 -11 6 -58 11 -106 11 -53 0 -99 6 -122 15 -19 8 -53 15 -75 15 -21 0
-55 7 -75 15 -22 9 -68 15 -123 15 l-88 0 -44 35 c-24 19 -68 48 -98 64 -30
16 -77 48 -104 70 -26 23 -55 41 -63 41 -28 0 -182 79 -221 113 -20 18 -64 41
-97 51 -94 30 -161 63 -202 98 -21 19 -65 42 -98 52 -82 26 -123 45 -169 78
-21 15 -45 28 -53 28 -8 0 -44 14 -80 30 -35 17 -70 30 -76 30 -7 0 -64 25
-127 56 -63 31 -148 66 -187 79 -40 13 -90 36 -110 50 -21 14 -44 25 -53 25
-8 0 -35 14 -60 30 -25 16 -56 30 -70 30 -40 0 -222 66 -276 100 -56 35 -176
79 -214 80 -14 0 -45 14 -70 30 -25 16 -52 30 -60 30 -9 0 -32 11 -51 24 -41
28 -146 66 -183 66 -13 0 -92 34 -175 75 -84 41 -164 75 -179 75 -15 0 -47 14
-72 30 -25 16 -52 30 -60 30 -8 0 -44 14 -78 30 -35 17 -68 30 -74 30 -5 0
-39 14 -75 30 -35 17 -70 30 -77 30 -7 0 -68 27 -135 60 -67 33 -128 60 -134
60 -7 0 -82 34 -166 75 -84 41 -165 75 -179 75 -15 0 -40 9 -57 21 -42 29
-242 129 -257 129 -7 0 -33 14 -58 30 -25 16 -51 30 -58 30 -18 0 -101 38
-134 61 -19 14 -44 19 -92 19 l-66 0 0 -23z m4841 -2382 c22 -19 48 -35 58
-35 22 0 49 -34 77 -95 10 -22 20 -43 22 -47 8 -17 -29 -7 -64 17 -20 14 -45
25 -55 25 -29 0 -89 102 -89 151 0 26 7 24 51 -16z"/>
</g>
</svg>
