<?xml version="1.0" standalone="no"?>
<!DOCTYPE svg PUBLIC "-//W3C//DTD SVG 20010904//EN"
 "http://www.w3.org/TR/2001/REC-SVG-20010904/DTD/svg10.dtd">
<svg version="1.0" xmlns="http://www.w3.org/2000/svg"
 width="471.000000pt" height="258.000000pt" viewBox="0 0 471.000000 258.000000"
 preserveAspectRatio="xMidYMid meet">
<metadata>
Created by potrace 1.16, written by Peter Selinger 2001-2019
</metadata>
<g transform="translate(0.000000,258.000000) scale(0.100000,-0.100000)"
fill="#000000" stroke="none">
<path d="M20 2551 c0 -17 -4 -33 -10 -36 -13 -8 -13 -102 0 -110 6 -4 21 -28
35 -55 15 -30 40 -59 67 -77 31 -20 47 -40 56 -68 7 -23 31 -57 56 -80 24 -22
57 -68 74 -102 17 -34 45 -71 61 -82 33 -24 104 -126 146 -211 32 -66 101
-140 130 -140 33 0 85 37 85 61 0 11 -11 35 -24 52 -13 18 -31 48 -41 67 -9
19 -33 60 -52 90 -64 102 -113 189 -113 202 0 18 -69 118 -125 180 -55 61 -87
121 -83 151 l3 22 44 3 c24 2 64 -3 90 -11 57 -19 124 -36 176 -46 22 -4 76
-19 120 -33 94 -30 152 -46 217 -58 26 -5 56 -13 67 -19 11 -6 30 -11 43 -11
26 0 152 -41 195 -64 39 -20 239 -86 261 -86 29 0 132 -40 171 -66 19 -13 42
-24 49 -24 8 0 43 -13 79 -30 35 -16 70 -30 77 -30 7 0 23 -12 37 -26 23 -25
207 -124 230 -124 17 0 81 -31 114 -56 17 -12 86 -51 154 -85 69 -34 141 -77
160 -94 20 -18 61 -45 91 -60 30 -15 113 -66 185 -114 117 -78 175 -125 266
-217 95 -96 127 -127 152 -149 19 -17 27 -33 27 -57 0 -32 26 -76 118 -198 17
-24 32 -49 32 -56 0 -7 13 -41 30 -76 16 -34 30 -75 30 -89 0 -15 7 -43 15
-62 19 -46 19 -98 0 -144 -9 -21 -15 -67 -15 -115 l0 -80 29 -29 c20 -20 40
-29 61 -29 17 0 47 -7 67 -15 20 -8 66 -15 105 -15 38 0 84 -7 105 -15 26 -11
75 -15 184 -15 88 0 150 -4 154 -10 8 -13 162 -13 170 0 4 6 62 10 141 10 101
0 142 4 164 15 l30 16 0 39 0 39 -30 16 -29 15 -220 0 c-152 0 -228 4 -248 12
-17 8 -102 15 -223 18 l-195 5 -32 23 -33 23 0 102 0 102 -30 85 c-17 46 -30
93 -30 105 -1 43 -38 124 -76 168 -40 45 -57 74 -91 157 -10 25 -42 72 -72
105 -29 33 -64 81 -77 107 -13 25 -41 59 -62 74 -21 15 -51 45 -66 65 -17 25
-52 52 -97 75 -41 22 -82 53 -100 75 -17 22 -43 42 -57 45 -35 9 -169 89 -207
124 -32 30 -75 54 -115 63 -14 4 -46 23 -71 44 -25 21 -79 53 -120 71 -41 19
-90 43 -109 53 -101 55 -251 129 -263 129 -7 0 -50 25 -95 55 -107 71 -155 95
-189 95 -15 0 -48 14 -73 30 -25 16 -52 30 -60 30 -8 0 -44 14 -78 30 -35 17
-74 30 -85 30 -25 0 -242 72 -286 94 -52 28 -218 74 -301 85 -30 4 -109 26
-175 48 -66 22 -137 43 -158 46 -20 3 -50 15 -66 26 l-29 21 -221 0 -221 0 0
-29z"/>
</g>
</svg>
