<?xml version="1.0" standalone="no"?>
<!DOCTYPE svg PUBLIC "-//W3C//DTD SVG 20010904//EN"
 "http://www.w3.org/TR/2001/REC-SVG-20010904/DTD/svg10.dtd">
<svg version="1.0" xmlns="http://www.w3.org/2000/svg"
 width="378.000000pt" height="168.000000pt" viewBox="0 0 378.000000 168.000000"
 preserveAspectRatio="xMidYMid meet">
<metadata>
Created by potrace 1.16, written by Peter Selinger 2001-2019
</metadata>
<g transform="translate(0.000000,168.000000) scale(0.100000,-0.100000)"
fill="#000000" stroke="none">
<path d="M70 1671 c0 -4 -16 -29 -35 -54 -35 -46 -43 -82 -26 -115 5 -9 15
-33 22 -52 7 -19 36 -58 64 -87 27 -28 63 -68 79 -88 16 -20 47 -45 70 -57 23
-11 59 -40 81 -64 57 -60 226 -144 293 -144 84 0 111 63 45 105 -187 117 -293
193 -314 223 -13 19 -45 48 -71 64 -26 16 -50 38 -53 49 -8 23 3 59 17 59 6 0
62 -25 124 -55 63 -30 120 -55 127 -55 19 0 254 -117 292 -145 18 -15 49 -31
69 -36 19 -5 59 -31 88 -58 29 -26 73 -58 97 -70 24 -13 62 -36 84 -52 22 -16
48 -29 57 -29 9 0 27 -12 41 -26 13 -14 44 -37 69 -51 48 -26 119 -69 210
-126 30 -19 66 -37 80 -40 14 -4 43 -22 65 -40 22 -19 87 -58 145 -87 57 -29
118 -63 135 -75 16 -13 93 -55 170 -95 135 -69 188 -99 305 -173 165 -105 615
-277 724 -277 30 0 58 -4 61 -10 8 -13 312 -13 320 0 3 6 20 10 36 10 43 0
104 34 176 99 l63 56 0 83 0 82 -51 0 -51 0 -26 -29 c-15 -15 -35 -40 -45 -54
-10 -15 -52 -43 -95 -64 l-77 -37 -137 2 c-97 1 -149 6 -174 17 -20 8 -53 15
-73 15 -39 0 -156 37 -220 69 -22 12 -46 21 -53 21 -7 0 -30 11 -50 25 -20 14
-72 36 -115 50 -43 14 -89 31 -103 37 -31 16 -131 91 -149 112 -7 9 -28 16
-45 16 -42 1 -101 30 -160 79 -26 23 -55 41 -63 41 -21 0 -139 56 -176 84 -38
28 -171 96 -189 96 -7 0 -28 18 -48 40 -24 27 -70 57 -145 94 -60 30 -131 72
-157 94 -26 22 -63 43 -82 46 -18 4 -53 24 -77 45 -24 21 -59 46 -78 56 -19 9
-52 30 -74 46 -22 16 -48 29 -57 29 -9 0 -30 17 -47 38 -17 21 -51 46 -79 59
-27 11 -60 26 -74 32 -24 10 -103 56 -221 129 -30 18 -65 35 -79 38 -14 4 -67
26 -118 50 -51 24 -99 44 -107 44 -7 0 -17 5 -20 10 -8 12 -195 14 -195 1z"/>
</g>
</svg>
