<?xml version="1.0" standalone="no"?>
<!DOCTYPE svg PUBLIC "-//W3C//DTD SVG 20010904//EN"
 "http://www.w3.org/TR/2001/REC-SVG-20010904/DTD/svg10.dtd">
<svg version="1.0" xmlns="http://www.w3.org/2000/svg"
 width="1101.000000pt" height="282.000000pt" viewBox="0 0 1101.000000 282.000000"
 preserveAspectRatio="xMidYMid meet">
<metadata>
Created by potrace 1.16, written by Peter Selinger 2001-2019
</metadata>
<g transform="translate(0.000000,282.000000) scale(0.100000,-0.100000)"
fill="#000000" stroke="none">
<path d="M37 2792 l-37 -25 0 -144 c0 -79 4 -151 10 -161 5 -9 19 -46 31 -82
11 -36 31 -79 43 -95 13 -17 40 -63 60 -102 46 -92 172 -281 198 -296 11 -7
42 -43 70 -80 35 -47 65 -75 97 -92 56 -28 66 -39 83 -90 10 -29 26 -48 63
-73 28 -19 63 -52 79 -74 18 -24 50 -50 89 -70 37 -18 81 -52 112 -85 27 -31
73 -67 100 -81 28 -13 64 -35 80 -48 36 -27 289 -154 307 -154 8 0 29 -11 49
-24 20 -13 165 -67 323 -120 l287 -96 245 0 245 0 54 -25 c67 -30 349 -125
373 -125 10 0 56 -13 102 -30 47 -16 94 -30 104 -30 11 0 80 -20 153 -45 104
-35 146 -45 198 -45 36 0 82 -7 102 -15 22 -9 67 -15 119 -15 54 0 98 -6 125
-17 l41 -16 47 16 c32 12 79 17 157 17 77 0 123 5 147 15 20 8 62 15 93 15
l56 0 91 47 c68 35 108 64 157 115 36 37 70 68 76 68 6 0 21 -11 34 -25 14
-15 35 -25 52 -25 16 0 45 -7 65 -15 19 -8 45 -15 56 -15 11 0 101 -27 199
-60 98 -33 194 -60 213 -60 20 0 52 -7 72 -15 19 -8 65 -15 101 -15 46 0 94
-9 157 -29 134 -43 172 -52 255 -60 41 -4 85 -13 97 -19 12 -7 40 -12 63 -12
22 0 57 -7 77 -15 22 -9 67 -15 120 -15 52 0 97 -6 120 -15 22 -9 67 -15 119
-15 52 0 98 -6 122 -15 l38 -16 420 5 c230 3 435 5 454 4 19 0 55 0 80 0 43
-1 98 11 165 34 17 6 71 14 120 18 50 4 110 13 135 20 119 32 178 53 205 74
17 13 64 40 105 60 84 42 112 65 146 117 13 21 42 51 66 68 24 17 59 42 79 56
45 32 72 27 131 -25 24 -20 57 -40 75 -44 17 -4 51 -24 75 -45 42 -37 274
-161 301 -161 7 0 26 -13 42 -30 16 -16 36 -30 44 -30 9 0 45 -14 79 -30 35
-17 69 -30 75 -30 7 0 82 -33 167 -74 209 -99 374 -165 415 -166 12 0 59 -13
105 -30 47 -16 101 -30 120 -30 34 0 133 -29 147 -43 10 -11 221 -8 228 3 3 5
20 10 36 10 44 0 176 69 215 112 25 28 34 47 34 72 0 19 5 38 10 41 5 3 10 26
10 50 l0 44 -30 16 c-58 30 -130 10 -130 -36 -1 -25 -36 -93 -64 -120 -40 -40
-138 -69 -232 -69 l-79 0 -37 25 c-43 29 -174 71 -298 95 -25 5 -69 20 -97 34
-29 14 -59 26 -65 26 -7 0 -38 12 -68 26 -30 14 -93 38 -140 53 -73 24 -290
123 -400 182 -110 60 -221 114 -259 128 -32 12 -54 29 -76 61 -21 31 -44 49
-69 57 -62 21 -178 106 -223 164 -24 30 -66 81 -94 115 -29 34 -58 73 -66 87
-7 15 -53 52 -100 84 -48 31 -111 79 -140 105 l-53 48 -54 0 c-57 0 -70 -9
-100 -67 -24 -47 -20 -66 20 -115 20 -23 47 -60 60 -80 13 -21 37 -44 53 -53
25 -13 80 -59 214 -179 39 -35 35 -69 -19 -152 l-46 -70 -112 -74 c-67 -45
-127 -77 -151 -81 -64 -12 -122 -28 -266 -75 l-136 -44 -185 0 c-142 0 -194
-3 -221 -15 -51 -21 -333 -21 -384 0 -26 11 -74 15 -180 15 -105 0 -153 4
-180 15 -23 10 -69 15 -135 15 -65 0 -111 5 -135 15 -19 8 -45 15 -57 15 -12
0 -60 13 -106 30 -68 24 -102 30 -168 30 -50 0 -97 6 -119 15 -19 8 -52 15
-71 15 -20 0 -96 20 -169 45 -73 25 -148 45 -168 45 -20 0 -52 7 -72 15 -19 8
-53 15 -75 15 -21 0 -55 7 -75 15 -19 8 -47 15 -62 15 -14 0 -43 11 -63 25
-20 13 -89 42 -154 63 l-119 39 -35 57 c-21 34 -53 70 -80 88 -25 17 -66 50
-92 74 l-47 44 -40 0 c-31 0 -49 -7 -76 -32 -33 -28 -75 -94 -75 -116 0 -4 18
-38 40 -75 l40 -66 0 -53 c0 -53 -12 -78 -36 -78 -7 0 -42 -13 -77 -30 -38
-17 -82 -30 -105 -30 -22 0 -56 -7 -75 -15 -52 -22 -392 -22 -444 0 -22 9 -67
15 -117 15 -65 0 -99 6 -166 30 -47 16 -101 30 -120 30 -36 0 -156 37 -208 64
-42 22 -148 56 -174 56 -13 0 -42 9 -65 20 -59 26 -58 52 3 88 124 73 164 147
164 307 l0 85 -36 71 c-44 89 -110 186 -134 199 -10 6 -31 10 -47 10 -30 0
-56 14 -111 62 -20 17 -44 28 -63 28 -16 0 -46 7 -66 15 -19 8 -53 15 -75 15
-21 0 -55 7 -75 15 -46 20 -170 20 -216 0 -20 -8 -56 -15 -79 -15 -31 0 -56
-8 -88 -30 -25 -16 -51 -30 -58 -30 -7 0 -41 -28 -76 -63 l-63 -63 -8 -44
c-28 -159 15 -262 175 -413 44 -42 80 -80 80 -85 0 -12 -24 -22 -52 -22 -27 0
-308 94 -376 125 -29 14 -57 25 -63 25 -6 0 -40 13 -76 30 -35 16 -69 30 -75
30 -16 0 -81 32 -115 58 -17 13 -47 28 -67 33 -19 5 -59 32 -89 59 -30 27 -89
67 -133 89 -92 47 -100 54 -138 104 -16 20 -51 49 -79 65 -31 16 -63 45 -82
72 -20 29 -44 49 -65 56 -37 12 -110 102 -110 135 0 10 -20 33 -44 51 -24 18
-54 49 -67 68 -13 19 -46 60 -73 90 -34 39 -76 109 -142 243 l-94 189 0 73 c0
42 -6 88 -15 108 -8 20 -15 48 -15 62 0 14 -7 39 -15 55 -20 38 -55 38 -108 2z
m2511 -1257 c52 -25 98 -45 103 -45 6 0 48 -23 93 -50 101 -61 156 -130 156
-195 0 -48 -54 -167 -94 -206 -32 -32 -137 -69 -197 -69 -57 0 -142 30 -177
62 -15 14 -43 34 -62 43 -19 10 -48 28 -65 40 -16 12 -50 33 -75 46 -25 13
-53 30 -64 39 -24 20 -66 104 -66 133 0 38 28 122 51 151 27 34 98 66 147 66
22 0 55 7 73 15 52 22 77 18 177 -30z"/>
</g>
</svg>
