<?xml version="1.0" standalone="no"?>
<!DOCTYPE svg PUBLIC "-//W3C//DTD SVG 20010904//EN"
 "http://www.w3.org/TR/2001/REC-SVG-20010904/DTD/svg10.dtd">
<svg version="1.0" xmlns="http://www.w3.org/2000/svg"
 width="267.000000pt" height="210.000000pt" viewBox="0 0 267.000000 210.000000"
 preserveAspectRatio="xMidYMid meet">
<metadata>
Created by potrace 1.16, written by Peter Selinger 2001-2019
</metadata>
<g transform="translate(0.000000,210.000000) scale(0.100000,-0.100000)"
fill="#000000" stroke="none">
<path d="M485 2090 c-3 -5 -15 -10 -26 -10 -38 0 -95 -65 -118 -135 -11 -36
-21 -74 -21 -86 0 -33 40 -142 64 -174 13 -16 35 -54 50 -82 18 -36 40 -62 68
-79 23 -15 72 -54 109 -88 89 -81 189 -156 206 -156 8 0 39 -11 68 -25 87 -39
262 -95 300 -95 20 0 52 -7 72 -15 48 -20 198 -20 246 0 20 8 62 15 94 15 l58
0 45 30 c25 16 53 30 63 30 27 0 145 118 173 172 49 97 23 270 -51 332 -39 33
-62 95 -42 115 15 15 61 14 104 -4 19 -8 53 -15 75 -15 21 0 55 -7 75 -15 19
-8 60 -15 90 -15 29 0 70 -7 90 -15 19 -8 60 -15 90 -15 29 0 70 -7 90 -15 46
-19 146 -19 183 0 l30 16 0 52 0 52 -49 18 c-37 13 -81 17 -190 17 -103 0
-151 4 -178 15 -19 8 -60 15 -90 15 -29 0 -70 7 -90 15 -19 8 -60 15 -90 15
-29 0 -70 7 -90 15 -23 10 -69 15 -135 15 -65 0 -111 5 -135 15 -23 10 -69 15
-135 15 -65 0 -111 5 -135 15 -28 12 -84 15 -270 15 -185 0 -241 3 -270 15
-24 10 -70 15 -139 15 -58 0 -106 4 -109 10 -3 6 -21 10 -40 10 -19 0 -37 -4
-40 -10z m442 -165 c24 -10 71 -15 150 -15 78 0 125 -5 150 -15 25 -11 73 -15
167 -15 l131 0 32 -17 c41 -23 136 -130 195 -219 51 -76 68 -113 68 -147 0
-35 -67 -122 -123 -161 l-52 -36 -250 0 -250 0 -63 30 c-35 17 -69 30 -75 30
-5 0 -31 13 -56 29 -25 16 -61 32 -79 36 -21 4 -52 26 -87 61 -29 30 -57 54
-62 54 -24 0 -81 75 -125 165 l-49 100 4 37 c3 20 15 51 27 68 l21 30 145 0
c106 0 154 -4 181 -15z"/>
<path d="M17 1039 c-11 -7 -17 -22 -17 -48 l0 -39 33 -24 c17 -14 52 -35 77
-48 25 -13 59 -34 77 -47 17 -13 47 -28 65 -34 19 -5 52 -24 74 -43 40 -34
160 -99 204 -109 14 -4 43 -22 65 -40 41 -35 115 -77 136 -77 21 0 83 -34 163
-88 43 -30 124 -77 180 -105 56 -28 119 -63 140 -79 21 -15 46 -28 53 -28 20
0 82 -29 118 -56 17 -12 53 -33 80 -47 28 -14 72 -44 99 -66 26 -23 56 -41 66
-41 11 0 22 -5 25 -10 3 -6 28 -10 55 -10 l48 0 26 31 c17 19 26 43 26 64 l0
33 -37 30 c-21 16 -77 54 -124 85 -47 31 -98 72 -113 92 -15 19 -34 35 -42 35
-30 0 -71 33 -103 81 -17 27 -43 56 -56 65 -34 22 -95 115 -95 145 0 18 12 35
41 58 53 43 51 76 -6 108 -52 29 -163 33 -187 6 -49 -56 -61 -134 -32 -210
l17 -43 -13 -15 c-7 -8 -17 -15 -22 -15 -16 0 -147 67 -208 106 -30 19 -66 37
-80 41 -48 11 -105 42 -154 82 -26 23 -55 41 -63 41 -8 0 -44 14 -80 30 -35
17 -70 30 -77 30 -7 0 -27 18 -45 40 -20 26 -44 43 -69 50 -21 5 -71 26 -110
45 -75 36 -105 42 -135 24z"/>
</g>
</svg>
