<?xml version="1.0" standalone="no"?>
<!DOCTYPE svg PUBLIC "-//W3C//DTD SVG 20010904//EN"
 "http://www.w3.org/TR/2001/REC-SVG-20010904/DTD/svg10.dtd">
<svg version="1.0" xmlns="http://www.w3.org/2000/svg"
 width="333.000000pt" height="180.000000pt" viewBox="0 0 333.000000 180.000000"
 preserveAspectRatio="xMidYMid meet">
<metadata>
Created by potrace 1.16, written by Peter Selinger 2001-2019
</metadata>
<g transform="translate(0.000000,180.000000) scale(0.100000,-0.100000)"
fill="#000000" stroke="none">
<path d="M0 1767 l0 -33 56 -47 c31 -26 63 -47 71 -47 30 0 149 -63 202 -106
36 -30 63 -44 83 -44 32 0 180 -84 218 -125 15 -16 34 -25 55 -25 21 0 48 -12
75 -32 102 -76 156 -112 228 -148 43 -21 99 -57 126 -79 26 -23 55 -41 63 -41
20 0 174 -95 203 -125 15 -16 34 -25 55 -25 21 0 48 -12 75 -32 93 -70 166
-118 178 -118 25 0 86 -33 132 -70 25 -21 68 -49 95 -64 52 -28 119 -69 215
-129 30 -19 66 -37 80 -40 14 -4 44 -22 66 -41 22 -19 90 -59 151 -90 68 -34
133 -76 167 -107 30 -27 68 -54 84 -58 43 -13 159 -91 173 -118 l12 -23 108 0
107 0 5 27 5 26 -45 49 c-29 30 -59 52 -82 58 -21 5 -56 26 -78 45 -23 19 -88
58 -145 86 -56 28 -123 68 -148 89 -47 38 -120 80 -141 80 -17 0 -104 56 -162
103 -26 21 -62 43 -80 48 -18 5 -54 27 -81 49 -26 22 -55 40 -63 40 -14 0
-100 48 -203 113 -30 20 -100 58 -156 86 -60 30 -125 72 -162 105 -49 44 -70
56 -95 56 -33 0 -62 15 -107 55 -14 13 -67 44 -119 70 -52 27 -110 63 -130 81
-20 17 -95 61 -166 97 -72 36 -152 84 -179 106 -26 23 -55 41 -63 41 -14 0
-105 50 -204 114 -30 20 -61 36 -68 36 -7 0 -46 20 -87 45 -40 25 -77 45 -82
45 -4 0 -24 11 -44 25 l-37 25 -80 0 -81 0 0 -33z"/>
<path d="M1657 1544 c-20 -11 -27 -22 -25 -37 4 -31 91 -76 146 -77 23 0 59
-7 79 -15 23 -10 69 -15 135 -15 65 0 111 -5 135 -15 27 -12 79 -15 225 -15
145 0 197 -3 225 -15 l35 -15 359 0 359 0 0 70 0 70 -25 10 c-16 6 -34 6 -51
0 -14 -6 -122 -10 -240 -10 -168 0 -222 3 -251 15 l-35 15 -339 0 c-240 0
-346 3 -366 12 -15 7 -82 15 -148 19 -66 5 -136 10 -155 14 -22 3 -45 -1 -63
-11z"/>
</g>
</svg>
