<?xml version="1.0" standalone="no"?>
<!DOCTYPE svg PUBLIC "-//W3C//DTD SVG 20010904//EN"
 "http://www.w3.org/TR/2001/REC-SVG-20010904/DTD/svg10.dtd">
<svg version="1.0" xmlns="http://www.w3.org/2000/svg"
 width="345.000000pt" height="351.000000pt" viewBox="0 0 345.000000 351.000000"
 preserveAspectRatio="xMidYMid meet">
<metadata>
Created by potrace 1.16, written by Peter Selinger 2001-2019
</metadata>
<g transform="translate(0.000000,351.000000) scale(0.100000,-0.100000)"
fill="#000000" stroke="none">
<path d="M7 3503 c-4 -3 -7 -26 -7 -50 l0 -43 23 0 c13 0 61 -13 107 -30 47
-16 102 -30 123 -30 21 0 54 -7 74 -15 22 -9 67 -15 120 -15 52 0 97 -6 120
-15 19 -8 60 -15 90 -15 29 0 70 -7 90 -15 27 -11 77 -15 210 -15 132 0 182
-4 210 -15 20 -8 66 -15 105 -15 38 0 84 -7 105 -15 85 -36 188 -5 181 53 -4
35 -68 72 -126 72 -23 0 -59 7 -79 15 -19 8 -53 15 -75 15 -21 0 -55 7 -75 15
-22 9 -67 15 -120 15 -52 0 -97 6 -120 15 -27 12 -79 15 -225 15 -145 0 -197
3 -225 15 -22 9 -67 15 -120 15 -52 0 -97 6 -120 15 -19 8 -62 15 -94 15 -32
0 -61 5 -64 10 -7 11 -98 14 -108 3z"/>
<path d="M570 3018 c-96 -33 -170 -124 -200 -244 -10 -39 -10 -59 -2 -84 7
-18 12 -51 12 -74 0 -29 9 -54 30 -86 22 -34 30 -57 30 -91 0 -34 5 -51 21
-65 32 -28 93 -113 119 -164 12 -25 48 -72 80 -105 31 -33 68 -79 83 -101 14
-23 40 -52 57 -65 18 -13 45 -37 61 -54 37 -39 115 -117 154 -154 17 -16 41
-43 54 -61 13 -17 42 -43 65 -57 22 -15 68 -52 101 -83 33 -31 73 -64 89 -74
16 -10 48 -36 70 -57 23 -20 63 -52 88 -71 26 -18 80 -63 120 -99 40 -36 85
-69 100 -73 14 -3 50 -28 80 -55 29 -26 73 -58 98 -71 25 -12 65 -39 89 -58
88 -72 156 -112 187 -112 19 0 47 -12 74 -32 24 -18 52 -39 64 -47 110 -76 85
-102 -104 -114 -69 -4 -136 -7 -150 -7 -303 6 -528 17 -547 28 -12 6 -47 12
-78 12 -30 0 -72 7 -92 15 -22 9 -68 15 -121 15 l-85 0 -95 46 c-52 25 -109
56 -126 69 -37 28 -143 65 -186 65 -40 0 -90 -47 -90 -84 0 -17 17 -45 49 -80
28 -30 58 -68 67 -83 10 -15 43 -55 74 -88 31 -33 65 -73 75 -90 10 -16 39
-50 64 -75 25 -25 73 -86 106 -135 33 -50 78 -113 100 -141 22 -27 51 -69 65
-92 l25 -41 73 -1 72 0 0 30 c0 44 -65 167 -121 228 -27 29 -53 69 -58 88 -5
19 -32 59 -59 89 -63 68 -99 135 -80 146 21 14 85 10 125 -6 24 -10 71 -15
149 -15 68 0 124 -5 141 -12 24 -11 189 -19 568 -27 76 -2 305 17 328 27 44
19 417 16 464 -3 19 -8 45 -15 57 -15 12 0 60 -13 106 -30 l85 -30 106 0 106
0 44 31 c70 50 99 81 99 107 0 28 -76 122 -99 122 -9 0 -29 9 -46 21 -16 11
-65 38 -107 60 l-78 39 -120 0 -119 0 -53 -25 c-29 -13 -81 -34 -115 -45 l-62
-21 -43 21 c-24 12 -68 37 -98 56 -30 19 -66 37 -80 41 -14 3 -46 18 -71 34
-25 16 -52 29 -61 29 -8 0 -25 12 -39 26 -26 28 -89 64 -112 64 -7 0 -24 12
-38 26 -13 14 -37 33 -54 41 -67 34 -203 131 -246 175 -25 27 -62 53 -84 60
-27 9 -48 26 -67 55 -17 25 -50 53 -83 72 -30 17 -59 39 -64 50 -6 10 -45 47
-88 82 -42 35 -107 91 -144 124 -37 33 -87 75 -113 93 -25 18 -60 53 -78 79
-18 25 -72 87 -119 137 -48 50 -100 109 -115 132 -16 22 -44 60 -61 84 -18 24
-33 51 -33 60 0 10 -18 40 -41 66 -60 73 -100 158 -111 239 -12 86 -12 102 -1
186 10 78 22 95 74 109 67 18 101 87 61 123 -25 22 -101 20 -172 -5z m2529
-2338 c34 -9 81 -46 81 -62 0 -4 -25 -8 -55 -8 -61 0 -135 30 -135 54 0 24 54
32 109 16z"/>
</g>
</svg>
