<?xml version="1.0" standalone="no"?>
<!DOCTYPE svg PUBLIC "-//W3C//DTD SVG 20010904//EN"
 "http://www.w3.org/TR/2001/REC-SVG-20010904/DTD/svg10.dtd">
<svg version="1.0" xmlns="http://www.w3.org/2000/svg"
 width="423.000000pt" height="72.000000pt" viewBox="0 0 423.000000 72.000000"
 preserveAspectRatio="xMidYMid meet">
<metadata>
Created by potrace 1.16, written by Peter Selinger 2001-2019
</metadata>
<g transform="translate(0.000000,72.000000) scale(0.100000,-0.100000)"
fill="#000000" stroke="none">
<path d="M0 672 l0 -48 61 -53 c71 -63 137 -109 199 -141 25 -13 59 -33 75
-45 48 -36 148 -83 243 -114 98 -31 156 -59 215 -102 l40 -29 71 0 c50 0 96
-8 161 -29 103 -33 160 -49 227 -61 26 -5 56 -13 67 -19 11 -6 53 -11 95 -11
41 0 78 -5 81 -10 8 -14 612 -14 620 0 3 6 52 10 110 10 l104 0 64 30 c36 16
76 30 89 30 12 1 68 16 123 35 l100 33 30 40 c17 22 52 54 78 72 75 49 83 88
34 161 -28 42 -61 48 -135 23 l-53 -18 -48 17 c-27 9 -60 17 -74 17 -33 0 -76
38 -79 70 -2 19 5 29 34 44 l37 20 43 -13 c24 -8 104 -16 178 -20 77 -4 144
-12 157 -19 13 -7 61 -12 123 -12 67 0 113 -5 137 -15 20 -8 66 -15 105 -15
85 0 122 -16 171 -75 38 -45 162 -135 188 -135 7 0 56 -20 107 -45 52 -25 104
-45 116 -45 13 0 38 -5 56 -12 54 -18 166 17 248 80 l32 24 0 100 0 99 -27 35
c-14 20 -48 46 -74 60 l-48 24 -281 0 -281 0 -36 15 c-25 11 -72 15 -164 15
-74 0 -139 5 -156 12 -15 6 -62 15 -103 19 -41 5 -100 13 -130 18 -76 13 -576
14 -601 1 -25 -14 -59 -82 -59 -120 0 -52 35 -106 96 -147 30 -21 80 -57 110
-81 30 -23 66 -47 79 -52 14 -5 25 -14 25 -19 0 -14 -44 -43 -122 -80 l-67
-32 -485 0 -485 0 -37 16 c-20 8 -46 15 -58 15 -12 0 -60 13 -106 30 -47 16
-101 30 -120 30 -20 0 -74 13 -120 30 -47 16 -94 30 -105 30 -38 0 -170 51
-211 80 -23 16 -77 41 -120 55 -100 32 -106 35 -239 124 -182 122 -234 151
-271 151 l-34 0 0 -48z m4000 -221 c82 -29 95 -82 29 -116 l-32 -17 -46 13
c-25 6 -64 20 -86 30 -47 21 -110 82 -101 98 12 19 175 13 236 -8z"/>
</g>
</svg>
