<?xml version="1.0" standalone="no"?>
<!DOCTYPE svg PUBLIC "-//W3C//DTD SVG 20010904//EN"
 "http://www.w3.org/TR/2001/REC-SVG-20010904/DTD/svg10.dtd">
<svg version="1.0" xmlns="http://www.w3.org/2000/svg"
 width="417.000000pt" height="522.000000pt" viewBox="0 0 417.000000 522.000000"
 preserveAspectRatio="xMidYMid meet">
<metadata>
Created by potrace 1.16, written by Peter Selinger 2001-2019
</metadata>
<g transform="translate(0.000000,522.000000) scale(0.100000,-0.100000)"
fill="#000000" stroke="none">
<path d="M1669 5193 c-15 -14 -54 -51 -88 -82 l-61 -58 0 -107 c0 -117 20
-198 66 -265 13 -20 24 -50 24 -68 0 -25 11 -45 49 -87 28 -30 58 -68 67 -83
10 -15 37 -48 59 -73 23 -25 50 -59 60 -75 11 -17 38 -51 61 -76 23 -25 53
-64 68 -87 14 -23 41 -49 58 -58 18 -9 123 -105 233 -213 110 -109 213 -206
230 -216 16 -10 50 -37 75 -60 25 -23 54 -47 65 -53 10 -5 46 -33 80 -61 117
-100 178 -143 211 -153 18 -5 57 -31 87 -58 29 -27 87 -65 128 -86 41 -20 95
-54 120 -75 42 -34 85 -58 161 -88 15 -5 39 -27 53 -48 14 -21 39 -56 55 -77
17 -21 30 -44 30 -51 0 -7 9 -34 21 -60 27 -61 17 -74 -44 -56 -23 7 -67 16
-97 20 -30 4 -151 40 -268 79 -145 49 -227 72 -260 72 -26 0 -67 6 -92 14 -57
18 -122 35 -180 46 -25 5 -76 20 -115 34 -38 14 -87 26 -108 26 -21 0 -54 7
-74 15 -22 9 -67 15 -120 15 -52 0 -97 6 -120 15 -19 8 -60 15 -90 15 -29 0
-70 7 -90 15 -19 8 -60 15 -90 15 -40 0 -66 7 -97 25 l-44 25 -26 -10 c-50
-19 -124 -12 -170 15 l-44 25 -26 -10 c-44 -16 -330 -13 -373 5 -52 22 -253
21 -311 -2 l-44 -17 -42 12 -41 11 -35 -20 c-22 -13 -44 -19 -61 -15 -19 4
-38 -2 -64 -20 -21 -14 -58 -29 -82 -33 -25 -5 -57 -18 -72 -29 -15 -11 -49
-31 -76 -45 -70 -35 -83 -51 -202 -242 l-23 -36 0 -175 c0 -96 4 -182 9 -192
23 -43 71 -160 71 -170 0 -7 22 -56 49 -110 34 -68 61 -107 85 -126 20 -15 49
-53 65 -84 23 -44 82 -110 258 -284 126 -126 234 -228 240 -228 5 0 47 -34 92
-75 44 -41 89 -75 99 -75 9 0 36 -23 60 -50 26 -31 67 -62 102 -80 32 -16 92
-61 134 -100 42 -38 84 -70 93 -70 20 0 139 -75 190 -121 19 -16 42 -29 52
-29 10 0 37 -15 61 -33 93 -69 137 -99 185 -124 28 -14 64 -36 80 -49 17 -13
93 -55 170 -93 77 -38 162 -88 189 -110 26 -23 55 -41 63 -41 20 0 143 -61
213 -106 30 -19 71 -39 90 -44 46 -12 136 -56 174 -85 49 -36 113 -65 144 -65
15 0 33 -5 38 -10 7 -7 47 -10 100 -8 l89 3 3 26 3 26 -53 36 c-29 21 -60 37
-68 37 -8 0 -35 14 -60 30 -34 22 -57 30 -91 30 -36 0 -55 7 -89 33 -117 87
-166 117 -195 117 -20 0 -59 19 -113 55 -101 67 -131 83 -193 101 -28 8 -74
35 -105 60 -31 25 -102 69 -158 96 -55 28 -123 68 -149 90 -26 22 -63 44 -82
49 -19 5 -58 32 -88 59 -30 27 -90 67 -134 89 -44 22 -106 63 -137 91 -30 28
-71 56 -91 61 -21 6 -63 36 -103 73 -37 34 -80 70 -97 81 -16 10 -57 44 -90
75 -33 31 -79 69 -103 84 -51 35 -165 154 -187 195 -8 17 -40 46 -70 66 -69
46 -149 133 -182 199 -14 28 -47 75 -74 104 -27 29 -52 68 -57 86 -5 18 -25
56 -45 84 -19 29 -39 66 -42 83 -4 18 -20 59 -36 93 l-29 61 0 190 0 191 23
44 22 45 109 72 c83 54 121 74 155 78 25 3 62 10 82 15 20 6 203 10 412 10
l377 0 41 -16 c31 -13 60 -15 122 -11 l82 5 33 -20 c25 -15 41 -18 72 -13 31
5 47 2 74 -14 25 -16 50 -21 102 -21 38 0 89 -6 114 -14 97 -31 139 -39 240
-46 58 -4 119 -12 135 -18 37 -13 106 -31 160 -41 22 -4 95 -26 162 -49 76
-26 141 -42 170 -42 46 0 247 -61 311 -94 39 -20 148 -56 170 -56 23 0 122
-34 190 -66 29 -13 58 -24 65 -24 6 0 32 -14 57 -30 25 -16 58 -30 73 -30 36
0 85 -23 163 -76 33 -23 69 -46 81 -52 l20 -11 36 25 37 25 0 68 0 69 -24 6
c-13 3 -48 28 -78 54 -29 26 -74 60 -100 75 -36 21 -57 44 -92 103 -25 42 -46
83 -46 90 0 19 80 18 127 -1 52 -22 86 -19 153 15 l60 30 0 84 0 85 -42 28
c-39 26 -74 59 -132 126 -16 17 -35 27 -53 27 -33 0 -123 30 -201 66 -36 16
-70 24 -108 24 -56 0 -157 -29 -200 -57 -33 -21 -69 -10 -126 38 -25 21 -82
57 -126 79 -44 22 -105 62 -136 90 -30 28 -71 56 -91 61 -21 6 -65 38 -110 79
-41 39 -79 70 -84 70 -17 0 -219 186 -259 239 -13 17 -47 47 -76 66 -54 36
-376 356 -376 374 0 6 -25 39 -56 73 -31 35 -67 84 -80 110 -13 26 -48 84 -79
129 l-55 83 0 117 0 117 25 30 25 29 117 -5 c65 -2 133 -11 152 -18 20 -9 71
-14 130 -14 55 0 115 -6 141 -14 57 -18 122 -35 180 -46 25 -5 77 -20 115 -34
39 -14 87 -26 108 -26 21 0 54 -7 74 -15 26 -11 74 -15 180 -15 105 0 153 -4
180 -15 81 -34 183 -7 183 50 0 29 -12 37 -80 57 -102 30 -145 40 -205 47 -34
5 -70 13 -82 19 -13 7 -72 12 -150 12 -83 0 -144 5 -173 14 -60 19 -125 35
-182 46 -26 5 -56 13 -67 19 -11 6 -30 11 -43 11 -13 0 -62 13 -108 30 l-85
30 -113 0 c-77 0 -124 5 -149 15 -19 8 -55 15 -80 15 -34 0 -50 6 -69 25 -34
34 -98 33 -135 -2z"/>
</g>
</svg>
