<?xml version="1.0" standalone="no"?>
<!DOCTYPE svg PUBLIC "-//W3C//DTD SVG 20010904//EN"
 "http://www.w3.org/TR/2001/REC-SVG-20010904/DTD/svg10.dtd">
<svg version="1.0" xmlns="http://www.w3.org/2000/svg"
 width="825.000000pt" height="318.000000pt" viewBox="0 0 825.000000 318.000000"
 preserveAspectRatio="xMidYMid meet">
<metadata>
Created by potrace 1.16, written by Peter Selinger 2001-2019
</metadata>
<g transform="translate(0.000000,318.000000) scale(0.100000,-0.100000)"
fill="#000000" stroke="none">
<path d="M13 3153 c-16 -33 -18 -275 -3 -301 5 -9 26 -66 46 -126 42 -130 84
-216 131 -271 18 -22 36 -51 40 -65 12 -50 47 -106 103 -165 31 -33 68 -78 82
-100 29 -45 289 -305 305 -305 6 0 46 -33 90 -72 45 -40 106 -91 137 -112 31
-22 68 -55 82 -73 15 -20 39 -36 62 -43 21 -5 56 -25 78 -43 50 -43 84 -61
178 -91 42 -14 93 -37 113 -51 21 -14 44 -25 53 -25 8 0 29 -9 45 -21 62 -42
126 -69 163 -69 41 0 126 -26 210 -66 29 -13 71 -24 93 -24 22 0 56 -7 76 -15
19 -8 60 -15 90 -15 29 0 70 -7 90 -15 l35 -15 265 0 264 0 61 21 c88 29 194
85 212 111 9 12 16 35 16 51 0 15 7 44 15 64 8 19 15 46 15 60 0 36 -37 140
-66 183 -28 42 -27 63 8 113 l19 27 41 0 c44 0 105 -32 188 -100 25 -21 70
-50 100 -66 80 -41 110 -63 110 -83 0 -21 30 -51 51 -51 8 0 31 -11 51 -25 20
-14 70 -41 110 -62 40 -20 90 -49 112 -64 21 -16 45 -29 53 -29 14 0 105 -51
204 -114 30 -20 62 -36 70 -36 8 0 53 -26 99 -57 47 -31 186 -108 310 -170
124 -63 250 -130 280 -149 30 -19 71 -39 90 -44 19 -5 59 -21 88 -35 28 -14
57 -25 62 -25 6 0 41 -18 78 -40 37 -23 78 -43 92 -47 14 -3 39 -18 55 -33 17
-15 45 -35 64 -45 19 -9 52 -30 74 -46 22 -16 52 -29 66 -29 29 0 121 -30 187
-60 78 -36 163 -60 211 -60 26 0 88 -13 138 -29 99 -32 159 -48 220 -60 22 -4
95 -26 162 -49 80 -28 140 -42 173 -42 28 0 67 -7 87 -15 27 -11 78 -15 214
-15 108 0 180 -4 184 -10 8 -13 487 -14 501 -1 5 5 52 12 104 14 52 2 113 9
135 15 22 7 51 14 65 17 14 2 49 19 79 37 29 18 81 49 114 68 38 22 67 46 76
65 8 17 18 38 23 47 4 10 8 71 8 135 l0 118 -41 48 c-23 26 -59 57 -81 68 -21
11 -56 35 -76 53 -20 18 -46 38 -57 44 -45 23 -147 52 -185 52 -51 0 -127 -38
-166 -82 -39 -44 -61 -133 -45 -178 6 -18 11 -53 11 -77 l0 -44 43 -47 c85
-92 97 -133 52 -177 l-24 -25 -104 0 c-70 0 -116 -5 -140 -15 -23 -9 -68 -15
-119 -15 l-83 0 -45 30 -45 30 -163 0 c-122 0 -172 4 -199 15 -20 8 -66 15
-105 15 -38 0 -84 7 -105 15 -19 8 -53 15 -75 15 -22 0 -65 12 -96 26 -31 14
-93 37 -137 52 -44 14 -92 34 -107 44 l-28 19 0 58 c0 32 -7 75 -15 94 -8 20
-15 49 -15 65 0 17 -9 37 -21 48 -12 10 -46 52 -75 92 l-54 72 -31 0 c-17 0
-60 14 -96 30 -85 39 -162 41 -233 5 -71 -36 -83 -59 -77 -147 3 -40 9 -85 12
-100 l7 -28 -21 0 c-23 0 -68 22 -118 58 -39 28 -288 152 -304 152 -17 0 -203
94 -269 136 -30 19 -72 39 -92 44 -42 12 -71 26 -113 56 -39 28 -171 94 -187
94 -8 0 -29 11 -48 24 -20 13 -83 47 -140 76 -58 29 -118 63 -135 76 -16 12
-64 39 -105 59 -41 21 -88 48 -105 60 -16 13 -50 33 -75 45 -25 12 -66 40 -92
61 -26 22 -64 45 -84 52 -27 8 -47 25 -67 55 -26 39 -106 92 -138 92 -6 0 -31
18 -55 39 -24 21 -71 56 -103 76 -67 43 -91 77 -91 133 0 22 -7 56 -15 75 -8
20 -15 48 -15 62 0 14 -18 61 -40 105 -31 61 -50 86 -80 105 -22 14 -51 43
-65 65 -14 22 -43 49 -65 60 -23 12 -58 36 -78 54 -67 61 -224 126 -302 126
-74 0 -170 -64 -170 -112 0 -10 18 -53 39 -96 l39 -77 140 -135 c130 -127 190
-177 287 -242 22 -15 51 -41 64 -59 l24 -32 -13 -36 c-16 -47 -36 -69 -85 -93
-53 -27 -75 -47 -75 -70 0 -32 40 -100 93 -158 58 -64 91 -130 81 -163 -4 -12
-15 -34 -26 -49 l-19 -28 -340 0 -340 0 -36 15 c-19 8 -58 15 -86 15 -32 0
-99 16 -186 44 -156 51 -211 66 -263 73 -22 3 -47 16 -64 34 -15 16 -35 29
-43 29 -9 0 -36 14 -61 30 -25 16 -58 30 -75 30 -16 0 -43 9 -60 21 -16 11
-52 32 -80 46 -27 14 -72 43 -98 65 -26 22 -63 44 -82 49 -21 6 -45 24 -61 45
-15 19 -57 50 -93 69 -40 21 -82 53 -104 80 -21 24 -61 60 -90 79 -62 41 -162
143 -200 203 -14 23 -47 58 -72 79 -25 21 -45 45 -45 54 0 14 -45 84 -117 180
-18 24 -33 49 -33 57 0 16 -69 154 -99 198 -12 17 -21 42 -21 56 0 15 -7 43
-15 62 -9 22 -15 68 -15 118 0 52 -6 99 -17 130 l-18 49 -35 0 -35 0 -12 -27z
m2671 -758 c31 -14 79 -46 106 -73 27 -26 67 -62 90 -81 23 -19 48 -50 56 -70
16 -38 12 -67 -8 -54 -7 4 -33 15 -57 23 -32 11 -53 27 -75 58 -17 23 -52 56
-77 72 -63 41 -137 129 -118 141 19 12 20 12 83 -16z m3164 -1756 c67 -43 88
-73 78 -112 -9 -35 -31 -40 -83 -16 -82 37 -156 133 -126 162 17 18 72 4 131
-34z m2078 -39 c63 -29 117 -87 137 -146 9 -28 19 -57 22 -65 7 -18 -77 -125
-105 -134 -21 -7 -114 80 -170 156 l-30 42 0 64 c0 35 5 73 10 84 14 26 77 25
136 -1z"/>
</g>
</svg>
