<?xml version="1.0" standalone="no"?>
<!DOCTYPE svg PUBLIC "-//W3C//DTD SVG 20010904//EN"
 "http://www.w3.org/TR/2001/REC-SVG-20010904/DTD/svg10.dtd">
<svg version="1.0" xmlns="http://www.w3.org/2000/svg"
 width="315.000000pt" height="312.000000pt" viewBox="0 0 315.000000 312.000000"
 preserveAspectRatio="xMidYMid meet">
<metadata>
Created by potrace 1.16, written by Peter Selinger 2001-2019
</metadata>
<g transform="translate(0.000000,312.000000) scale(0.100000,-0.100000)"
fill="#000000" stroke="none">
<path d="M100 3095 c-19 -13 -50 -36 -67 -50 l-33 -27 0 -48 c0 -27 4 -51 9
-54 4 -3 11 -18 14 -33 4 -18 40 -61 105 -123 127 -121 205 -180 254 -193 21
-5 57 -26 80 -46 24 -20 61 -48 84 -63 l41 -26 107 -214 c86 -169 117 -221
152 -254 24 -22 44 -49 44 -60 1 -10 41 -64 90 -118 50 -55 90 -103 90 -108 0
-4 22 -33 50 -63 27 -30 60 -72 73 -92 14 -21 45 -56 71 -78 26 -22 60 -53 76
-70 27 -27 71 -71 152 -153 17 -16 50 -49 74 -73 24 -24 57 -57 74 -74 100
-100 128 -128 155 -154 17 -16 40 -43 53 -60 12 -16 44 -44 69 -61 25 -17 87
-69 137 -115 86 -79 117 -105 291 -238 39 -30 77 -62 84 -71 8 -10 28 -24 45
-33 48 -24 192 -122 211 -143 10 -11 35 -25 55 -30 20 -5 54 -25 76 -43 42
-37 115 -77 138 -77 8 0 28 -11 44 -25 l30 -25 61 0 61 0 0 55 c0 40 -4 55
-14 55 -8 0 -36 15 -63 34 -27 19 -72 46 -99 60 -153 83 -321 196 -384 259
-36 35 -67 57 -81 57 -13 0 -38 17 -63 44 -23 24 -73 66 -113 93 -39 27 -125
100 -190 162 -65 63 -147 138 -183 167 -72 58 -277 264 -332 334 -19 25 -81
92 -137 149 -55 57 -101 110 -101 119 0 9 -29 44 -64 78 -36 35 -72 78 -82 96
-9 18 -37 53 -63 78 -25 25 -97 121 -159 215 -86 130 -112 177 -112 203 0 42
19 49 73 28 24 -9 65 -16 92 -16 28 0 70 -6 95 -14 78 -25 133 -37 195 -45 34
-5 70 -13 82 -19 12 -7 47 -12 78 -12 30 0 72 -7 92 -15 28 -12 83 -15 258
-15 175 0 230 3 258 15 20 8 52 15 71 15 50 0 146 34 251 88 l90 47 32 60 c18
33 39 82 47 109 l15 49 -14 61 c-8 34 -19 86 -26 116 -16 75 -50 140 -94 178
l-36 32 -97 0 -97 -1 -70 -37 -70 -37 -37 -70 c-44 -83 -47 -126 -17 -220 22
-65 47 -96 123 -148 32 -22 33 -51 4 -71 l-22 -16 -354 0 -353 0 -36 15 c-19
8 -52 15 -71 15 -20 0 -96 20 -169 45 -73 25 -141 45 -151 45 -31 0 -180 56
-221 83 -44 29 -101 133 -101 184 0 20 -15 50 -49 94 -120 157 -225 247 -321
275 -26 8 -53 21 -60 29 -9 11 -32 15 -89 14 l-76 -1 -35 -23z m227 -207 c45
-25 113 -87 113 -103 0 -6 11 -22 25 -35 31 -29 33 -47 3 -28 -13 8 -48 23
-78 33 -30 11 -61 23 -67 28 -11 8 -63 108 -63 121 0 12 31 5 67 -16z m2068
-163 c19 -18 25 -35 25 -67 0 -23 7 -62 16 -85 l17 -43 -17 -25 c-19 -29 -31
-30 -77 -11 -40 17 -59 37 -82 88 -39 84 -7 168 63 168 19 0 40 -9 55 -25z"/>
</g>
</svg>
