<?xml version="1.0" standalone="no"?>
<!DOCTYPE svg PUBLIC "-//W3C//DTD SVG 20010904//EN"
 "http://www.w3.org/TR/2001/REC-SVG-20010904/DTD/svg10.dtd">
<svg version="1.0" xmlns="http://www.w3.org/2000/svg"
 width="198.000000pt" height="180.000000pt" viewBox="0 0 198.000000 180.000000"
 preserveAspectRatio="xMidYMid meet">
<metadata>
Created by potrace 1.16, written by Peter Selinger 2001-2019
</metadata>
<g transform="translate(0.000000,180.000000) scale(0.100000,-0.100000)"
fill="#000000" stroke="none">
<path d="M1147 1751 c-9 -27 -17 -58 -17 -70 0 -50 67 -205 159 -371 11 -19
25 -50 32 -69 7 -19 45 -84 85 -144 40 -60 76 -123 80 -140 3 -18 22 -49 40
-70 19 -20 34 -42 34 -47 0 -19 -30 -23 -75 -10 l-45 13 -47 -13 c-27 -7 -56
-20 -65 -28 l-18 -15 0 -114 c0 -63 -5 -123 -10 -134 l-11 -19 -85 0 c-53 0
-98 6 -121 15 -19 8 -53 15 -75 15 -21 0 -55 7 -75 15 -19 8 -60 15 -90 15
-29 0 -70 7 -90 15 -20 8 -66 15 -105 15 -38 0 -84 7 -105 15 -22 9 -67 15
-120 15 l-85 0 -65 30 -64 30 -75 0 c-48 0 -86 -6 -104 -15 l-30 -16 0 -54 c0
-65 -8 -59 161 -115 68 -22 139 -48 157 -56 71 -33 151 -140 152 -202 0 -62
-61 -112 -135 -112 l-47 0 -29 -29 c-21 -22 -29 -39 -29 -65 l0 -36 130 0 c72
0 138 4 148 9 9 5 32 15 50 22 45 16 82 47 82 67 0 9 14 46 30 80 38 82 38
117 -1 171 -17 24 -29 52 -27 64 l3 22 92 3 c66 2 102 -2 129 -13 20 -8 53
-15 73 -15 20 0 75 -13 121 -30 68 -24 102 -30 168 -30 50 0 97 -6 119 -15 19
-8 47 -15 60 -15 14 0 54 -13 90 -30 80 -37 121 -38 162 -4 49 41 54 58 32
101 -10 21 -31 49 -46 63 -15 14 -50 51 -78 83 l-50 58 15 16 16 15 33 -17
c19 -9 45 -28 59 -41 14 -13 38 -34 53 -46 15 -13 40 -45 55 -73 70 -130 232
-125 232 7 0 26 -5 50 -10 53 -6 4 -26 38 -45 76 -20 38 -63 111 -98 163 -125
191 -260 444 -255 479 l3 22 60 5 c84 7 123 33 163 108 l33 62 -15 48 c-20 68
-49 122 -83 153 -29 28 -104 69 -124 69 -7 0 -54 20 -106 45 -51 25 -100 45
-108 45 -7 0 -17 5 -20 10 -3 6 -51 10 -108 10 l-102 0 -18 -49z m310 -165
c20 -25 81 -59 125 -70 51 -12 72 -75 31 -90 -30 -12 -222 97 -246 139 -10 18
19 45 48 45 13 0 32 -11 42 -24z"/>
</g>
</svg>
