<?xml version="1.0" encoding="UTF-8" standalone="no"?>
<!-- Created with Inkscape (http://www.inkscape.org/) -->

<svg
   version="1.1"
   id="svg1"
   width="808.4707"
   height="197.50404"
   viewBox="0 0 808.4707 197.50404"
   xmlns="http://www.w3.org/2000/svg"
   xmlns:svg="http://www.w3.org/2000/svg">
  <defs
     id="defs1" />
  <g
     id="g1"
     transform="translate(-0.4702062,-0.44834534)">
    <path
       style="fill:#000000"
       d="M 790.85632,195.25 C 789.47149,193.7375 781.44395,182.375 773.01733,170 741.17677,123.2402 732.09989,113.58778 683.5,74.80661 654.79317,51.899477 629.07306,36.609042 600.36778,25.385072 574.10446,15.115927 552.86272,11.569955 518,11.635076 c -21.04797,0.03932 -27.10663,0.420122 -43,2.702686 -32.50604,4.668434 -47.34664,9.016632 -57.07694,16.723177 -9.37765,7.427233 -7.02442,24.550137 5.14188,37.414214 l 5.13658,5.431174 -2.37013,4.29659 C 423.1697,83.028034 418.44884,85.878297 413,85.949984 411.075,85.97531 403.2,85.341965 395.5,84.542551 358.43434,80.694391 295.20277,78.510814 164,76.548154 110.925,75.754207 59.85,74.824065 50.5,74.481174 l -17,-0.623439 8.107835,4.650439 c 10.649674,6.10837 17.84945,12.524561 21.157296,18.85465 2.208856,4.226996 2.687923,6.465996 2.703917,12.637176 0.01732,6.68198 -0.361677,8.20895 -3.474805,14 -2.552242,4.74769 -4.437796,6.95883 -6.994243,8.20197 -5.418697,2.63498 -6.336012,2.32491 -4.295531,-1.45197 1.231415,-2.27932 1.754233,-5.49003 1.750485,-10.75 -0.0044,-6.18871 -0.474754,-8.39829 -2.690165,-12.63785 C 45.053931,98.347139 34.410362,90.893489 13.5,81.966059 6.9,79.148268 1.1087741,76.464446 0.63060903,76.00201 0.1431004,75.530538 0.80197946,73.285173 2.130609,70.890226 4.1142491,67.314576 5.3954327,66.304534 10,64.686261 c 5.19069,-1.824266 7.524576,-1.896015 41.5,-1.275803 19.8,0.361444 77.175,1.302829 127.5,2.091966 116.02185,1.819319 190.16294,4.234018 219.75829,7.157301 l 6.25828,0.618163 -2.70912,-5.888944 c -2.10492,-4.575554 -2.72009,-7.461223 -2.75829,-12.938687 -0.0431,-6.187533 0.4106,-7.980268 3.71002,-14.658048 C 413.23954,19.592695 434.85711,9.9491996 486,2.8819122 c 21.77085,-3.00845011 61.88773,-3.27508373 80.39391,-0.5343316 30.414,4.5042926 58.30523,15.0161604 90.36655,34.0580584 17.39926,10.333793 33.28381,22.305313 65.29348,49.208955 26.13014,21.961986 35.96114,33.425466 64.97089,75.759576 13.50765,19.7118 17.01701,24.20709 19.22046,24.62031 l 2.69562,0.50552 -2.24996,4 c -2.26325,4.0236 -7.30175,7.35995 -11.25386,7.45197 -1.1346,0.0264 -3.19595,-1.18947 -4.58077,-2.70197 z"
       id="path1" />
  </g>
</svg>
