<?xml version="1.0" standalone="no"?>
<!DOCTYPE svg PUBLIC "-//W3C//DTD SVG 20010904//EN"
 "http://www.w3.org/TR/2001/REC-SVG-20010904/DTD/svg10.dtd">
<svg version="1.0" xmlns="http://www.w3.org/2000/svg"
 width="210.000000pt" height="153.000000pt" viewBox="0 0 210.000000 153.000000"
 preserveAspectRatio="xMidYMid meet">
<metadata>
Created by potrace 1.16, written by Peter Selinger 2001-2019
</metadata>
<g transform="translate(0.000000,153.000000) scale(0.100000,-0.100000)"
fill="#000000" stroke="none">
<path d="M0 1482 l0 -49 48 -39 c26 -22 60 -48 77 -58 16 -11 59 -47 96 -80
37 -34 78 -69 92 -79 15 -9 31 -33 36 -53 5 -20 22 -51 36 -70 14 -19 38 -60
52 -92 l25 -57 -12 -35 c-21 -58 -26 -61 -94 -54 l-61 6 -28 -22 c-76 -60 18
-150 156 -150 l64 0 64 49 c35 27 76 61 92 75 l27 25 0 78 c0 43 4 84 9 91 l8
14 34 -19 c19 -10 48 -28 64 -39 17 -12 50 -31 75 -44 25 -12 65 -39 90 -60
25 -20 59 -44 77 -53 17 -9 53 -35 78 -57 26 -23 97 -74 159 -115 61 -40 127
-90 146 -110 19 -19 51 -40 72 -46 21 -5 45 -21 55 -35 40 -58 87 -105 111
-111 14 -3 58 -38 98 -77 40 -39 107 -104 148 -143 l76 -73 65 0 65 0 0 40 0
40 -115 119 c-63 65 -134 130 -157 145 -24 15 -56 45 -71 67 -16 22 -50 50
-77 64 -26 13 -82 56 -124 95 -42 38 -85 70 -95 70 -11 0 -23 5 -26 10 -21 34
-251 200 -276 200 -9 0 -29 16 -43 35 -15 19 -44 44 -66 55 -21 11 -59 37 -84
59 -50 43 -175 130 -226 156 -17 9 -48 31 -68 49 -20 19 -52 37 -71 41 -21 4
-51 25 -80 55 -25 27 -75 63 -111 81 -83 41 -200 118 -207 135 -4 11 -30 14
-104 14 l-99 0 0 -48z"/>
</g>
</svg>
