<?xml version="1.0" standalone="no"?>
<!DOCTYPE svg PUBLIC "-//W3C//DTD SVG 20010904//EN"
 "http://www.w3.org/TR/2001/REC-SVG-20010904/DTD/svg10.dtd">
<svg version="1.0" xmlns="http://www.w3.org/2000/svg"
 width="333.000000pt" height="381.000000pt" viewBox="0 0 333.000000 381.000000"
 preserveAspectRatio="xMidYMid meet">
<metadata>
Created by potrace 1.16, written by Peter Selinger 2001-2019
</metadata>
<g transform="translate(0.000000,381.000000) scale(0.100000,-0.100000)"
fill="#000000" stroke="none">
<path d="M336 3778 c9 -18 35 -54 58 -79 41 -46 58 -75 92 -158 11 -25 33 -62
51 -84 18 -21 58 -76 88 -122 30 -46 68 -94 86 -106 17 -13 45 -39 62 -57 18
-18 60 -61 94 -97 34 -35 71 -82 82 -103 11 -22 41 -58 67 -81 25 -22 64 -64
84 -92 21 -28 57 -69 79 -92 54 -55 126 -127 165 -166 79 -79 135 -142 168
-193 20 -30 56 -67 80 -82 24 -15 54 -44 68 -64 13 -20 85 -98 160 -172 74
-75 148 -156 165 -180 16 -25 104 -121 196 -215 169 -172 212 -232 188 -261
-6 -8 -21 -14 -33 -14 -11 0 -52 -12 -91 -26 -86 -31 -161 -46 -240 -49 -101
-4 -210 -25 -325 -61 -25 -8 -55 -14 -68 -14 -12 0 -46 -12 -75 -26 -28 -14
-72 -29 -97 -34 -57 -11 -122 -28 -180 -46 -25 -8 -60 -14 -77 -14 -18 0 -108
-26 -200 -57 -93 -31 -193 -60 -223 -64 -66 -9 -114 -21 -235 -60 -50 -16 -99
-29 -108 -29 -10 0 -46 -10 -80 -22 -34 -12 -91 -22 -127 -24 -104 -3 -153
-14 -182 -42 l-28 -26 0 -58 0 -57 30 -16 c16 -8 41 -15 55 -15 42 0 92 -29
126 -71 19 -25 44 -42 67 -49 73 -19 187 -84 309 -178 l33 -24 0 -44 0 -43
-32 -23 -33 -23 -105 -5 c-121 -6 -173 -27 -178 -72 -4 -33 38 -68 84 -68 18
0 36 -5 39 -10 8 -13 162 -13 170 0 3 6 27 10 53 10 32 0 63 9 97 28 l50 27
38 70 c39 74 39 72 19 188 -12 65 -77 131 -180 182 -42 21 -91 48 -107 61 -17
13 -56 35 -88 49 -31 15 -60 31 -63 37 -8 13 31 48 52 48 8 0 38 12 67 26 28
14 79 30 112 34 98 14 241 55 328 94 31 14 67 26 80 26 14 0 41 7 60 15 20 8
53 15 74 15 21 0 76 14 123 30 46 17 92 30 102 30 10 0 73 19 141 42 69 24
152 45 192 49 70 7 119 18 205 45 35 11 53 12 77 4 l31 -11 43 20 c64 29 160
61 185 61 12 0 38 7 57 15 24 10 70 15 132 15 l96 0 51 -43 c28 -23 83 -69
122 -102 108 -91 168 -139 199 -158 15 -10 52 -39 80 -65 39 -36 66 -51 107
-61 l55 -13 57 17 c44 12 64 25 88 55 l30 38 0 114 0 114 -29 11 c-16 6 -41
29 -55 52 -20 32 -44 50 -106 81 -44 22 -84 40 -90 40 -6 0 -36 11 -66 25
-109 50 -170 65 -259 65 l-86 0 -27 47 c-15 27 -148 169 -308 330 -155 156
-284 293 -288 306 -3 12 -33 47 -67 77 -34 30 -76 78 -94 106 -18 27 -49 61
-68 74 -19 13 -48 45 -65 70 -17 25 -50 59 -75 74 -24 16 -56 47 -71 70 -14
23 -60 75 -102 116 -42 41 -100 104 -128 140 -50 61 -133 153 -319 352 -45 48
-93 108 -108 133 -14 25 -71 90 -127 145 -56 55 -109 114 -118 131 -9 18 -35
55 -58 83 -23 28 -53 77 -66 108 l-25 58 -103 0 -103 0 17 -32z m2668 -2674
c10 -4 41 -19 70 -33 40 -21 52 -32 54 -53 2 -16 0 -28 -3 -28 -8 0 -50 31
-104 78 -21 17 -44 32 -50 32 -6 0 -11 5 -11 11 0 6 6 8 13 5 6 -3 20 -9 31
-12z"/>
</g>
</svg>
