<?xml version="1.0" standalone="no"?>
<!DOCTYPE svg PUBLIC "-//W3C//DTD SVG 20010904//EN"
 "http://www.w3.org/TR/2001/REC-SVG-20010904/DTD/svg10.dtd">
<svg version="1.0" xmlns="http://www.w3.org/2000/svg"
 width="474.000000pt" height="333.000000pt" viewBox="0 0 474.000000 333.000000"
 preserveAspectRatio="xMidYMid meet">
<metadata>
Created by potrace 1.16, written by Peter Selinger 2001-2019
</metadata>
<g transform="translate(0.000000,333.000000) scale(0.100000,-0.100000)"
fill="#000000" stroke="none">
<path d="M2030 3278 l0 -51 119 -116 c65 -64 131 -125 147 -137 20 -15 29 -32
33 -64 l6 -44 51 -36 c28 -19 71 -56 94 -83 24 -26 55 -50 69 -54 35 -8 51
-22 51 -44 0 -12 23 -35 61 -62 66 -45 110 -86 148 -137 13 -17 41 -42 61 -55
21 -13 51 -43 67 -67 15 -23 71 -79 123 -125 52 -45 98 -86 103 -90 111 -113
187 -201 187 -215 0 -9 104 -122 231 -250 127 -128 239 -250 250 -271 11 -20
37 -48 59 -62 22 -14 47 -37 57 -52 10 -16 36 -51 58 -80 92 -119 116 -151
154 -209 23 -34 57 -74 76 -88 22 -17 38 -40 45 -66 8 -28 26 -53 65 -87 30
-26 55 -54 55 -61 0 -21 36 -86 60 -107 33 -30 66 -91 94 -174 29 -85 25 -100
-29 -125 l-36 -18 -47 15 c-79 25 -134 38 -193 46 -56 6 -69 13 -119 57 -24
21 -223 94 -257 94 -9 0 -97 27 -195 60 -98 33 -194 60 -213 60 -20 0 -52 7
-72 15 -19 8 -60 15 -90 15 -29 0 -70 7 -90 15 -19 8 -53 15 -75 15 -21 0 -55
7 -75 15 -19 8 -53 15 -75 15 -21 0 -55 7 -75 15 -26 11 -74 15 -180 15 l-144
0 -62 -21 c-79 -26 -152 -80 -177 -130 -39 -76 -16 -219 44 -268 9 -7 25 -28
36 -47 42 -66 -13 -94 -120 -60 -58 18 -123 35 -180 46 -25 5 -69 20 -97 34
-29 14 -64 26 -78 26 -14 0 -42 7 -62 15 -19 8 -47 15 -61 15 -14 0 -77 25
-141 56 -64 31 -150 67 -191 80 -101 33 -126 46 -184 94 -26 22 -55 40 -63 40
-29 0 -130 54 -243 128 -137 91 -282 215 -338 291 -13 17 -42 43 -65 58 -30
21 -46 41 -57 72 -11 32 -27 53 -60 76 -30 21 -58 55 -85 101 -22 38 -49 84
-60 103 -69 115 -89 152 -106 201 -10 30 -19 64 -19 76 0 12 -13 51 -30 86
l-30 63 0 151 0 151 -21 27 c-28 35 -70 35 -98 0 l-21 -27 0 -78 c0 -43 -4
-81 -10 -84 -11 -7 -14 -188 -3 -198 11 -11 43 -110 43 -133 0 -12 7 -38 15
-57 8 -20 15 -50 15 -66 0 -19 13 -45 41 -77 22 -27 43 -61 46 -76 3 -14 18
-39 34 -54 16 -15 29 -37 29 -48 0 -12 25 -44 60 -78 33 -31 60 -62 60 -68 0
-33 45 -93 91 -122 36 -21 59 -46 81 -84 31 -57 182 -203 208 -204 8 0 40 -25
70 -56 52 -53 114 -94 142 -94 6 0 26 -13 43 -29 16 -16 73 -51 125 -77 52
-26 109 -57 125 -70 48 -36 209 -112 297 -141 44 -14 116 -43 160 -64 43 -22
89 -39 101 -39 27 0 123 -32 195 -66 29 -13 64 -24 78 -24 13 0 41 -7 61 -15
19 -8 62 -15 94 -15 32 0 61 -4 64 -10 4 -6 56 -10 124 -10 l118 0 62 37 c86
51 121 93 121 145 l0 42 -66 64 c-43 41 -75 84 -92 120 l-25 56 14 25 c24 42
93 71 172 71 38 0 83 -7 104 -15 20 -8 66 -15 105 -15 38 0 84 -7 105 -15 19
-8 52 -15 72 -15 20 0 56 -6 81 -14 78 -25 133 -37 195 -45 34 -5 70 -13 82
-19 12 -7 46 -12 75 -12 55 0 247 -59 327 -99 22 -12 51 -21 63 -21 44 0 162
-47 202 -81 25 -21 75 -45 135 -66 l96 -32 118 -1 118 0 48 24 c26 14 60 40
74 60 l27 35 0 129 c0 140 -8 170 -60 227 -15 17 -56 73 -91 125 -35 52 -82
118 -104 147 -22 28 -66 84 -97 125 -31 40 -95 115 -142 166 -56 62 -89 106
-96 130 -6 23 -29 56 -60 87 -28 28 -63 68 -77 90 -15 22 -79 94 -142 160
-123 128 -179 192 -250 290 -24 33 -214 228 -420 432 -490 486 -461 458 -501
478 -19 10 -60 41 -90 71 -30 29 -99 94 -153 146 -54 51 -114 116 -133 145
-41 62 -76 92 -134 117 -25 10 -53 22 -62 27 -10 5 -36 9 -58 9 l-40 0 0 -52z"/>
</g>
</svg>
