<?xml version="1.0" standalone="no"?>
<!DOCTYPE svg PUBLIC "-//W3C//DTD SVG 20010904//EN"
 "http://www.w3.org/TR/2001/REC-SVG-20010904/DTD/svg10.dtd">
<svg version="1.0" xmlns="http://www.w3.org/2000/svg"
 width="228.000000pt" height="318.000000pt" viewBox="0 0 228.000000 318.000000"
 preserveAspectRatio="xMidYMid meet">
<metadata>
Created by potrace 1.16, written by Peter Selinger 2001-2019
</metadata>
<g transform="translate(0.000000,318.000000) scale(0.100000,-0.100000)"
fill="#000000" stroke="none">
<path d="M237 3162 c-35 -38 -21 -69 77 -172 39 -42 94 -105 123 -140 29 -36
72 -90 97 -120 25 -30 60 -79 77 -108 17 -29 46 -64 65 -78 21 -17 51 -62 85
-127 29 -56 69 -122 90 -147 20 -25 45 -61 54 -80 10 -19 36 -56 59 -81 42
-46 51 -63 102 -179 16 -35 43 -80 59 -98 34 -39 100 -141 141 -217 14 -27 36
-63 49 -80 12 -16 37 -59 55 -95 18 -36 44 -78 59 -93 28 -31 94 -133 137
-212 14 -27 36 -63 49 -80 12 -16 30 -46 40 -65 9 -19 32 -51 50 -70 38 -41
137 -185 167 -243 11 -23 31 -49 44 -60 13 -10 24 -25 24 -33 0 -23 40 -95 75
-137 32 -38 75 -143 75 -186 0 -12 -11 -33 -25 -46 l-24 -25 -53 0 c-78 0
-153 30 -199 79 -22 22 -39 44 -39 49 0 4 11 24 25 44 13 20 34 66 46 103 l22
66 -38 80 c-22 43 -53 92 -69 108 -99 95 -388 95 -454 0 -39 -56 -38 -72 7
-170 34 -72 40 -93 30 -105 -16 -20 -187 -19 -236 1 -19 8 -60 15 -90 15 -29
0 -70 7 -90 15 -19 8 -60 15 -90 15 -29 0 -70 7 -90 15 -20 8 -66 15 -105 15
-38 0 -84 7 -105 15 -20 8 -66 15 -105 15 -38 0 -84 7 -105 15 -19 8 -60 15
-90 15 -29 0 -70 7 -90 15 -19 8 -55 15 -79 15 l-44 0 0 -68 0 -68 95 -32 c57
-19 114 -32 145 -32 28 0 67 -7 87 -15 22 -9 67 -15 120 -15 52 0 97 -6 120
-15 19 -8 52 -15 72 -15 20 0 75 -13 121 -30 l85 -30 98 0 c64 0 110 -5 134
-15 19 -8 53 -15 75 -15 21 0 55 -7 75 -15 24 -10 71 -15 151 -15 l115 0 73
-35 c47 -23 83 -48 102 -73 40 -50 145 -102 206 -102 25 0 48 -4 51 -10 8 -12
119 -13 143 -1 9 5 29 13 43 19 15 6 40 30 56 54 16 24 48 53 71 66 l42 23 0
115 0 115 -39 52 c-21 29 -48 73 -61 97 -12 25 -32 59 -45 75 -12 17 -30 46
-40 65 -10 19 -33 52 -51 72 -18 21 -47 64 -63 96 -16 32 -37 65 -47 73 -29
24 -90 112 -124 180 -18 35 -50 84 -71 108 -21 24 -41 59 -45 78 -4 23 -26 57
-61 97 -33 36 -76 101 -105 161 -28 55 -66 117 -84 137 -18 21 -48 66 -65 100
-18 35 -47 81 -66 103 -18 22 -36 51 -40 65 -10 42 -41 96 -130 228 -47 70
-96 148 -109 174 -13 26 -40 59 -59 74 -19 14 -35 35 -35 45 0 11 -31 53 -70
94 -42 46 -73 89 -79 111 -5 20 -29 57 -53 83 -60 66 -128 148 -162 195 -16
21 -59 75 -97 119 -38 44 -69 83 -69 88 0 5 -35 9 -78 9 l-79 0 -16 -18z
m1331 -2614 c18 -18 15 -48 -6 -48 -23 0 -42 19 -42 42 0 21 30 24 48 6z"/>
</g>
</svg>
