<?xml version="1.0" standalone="no"?>
<!DOCTYPE svg PUBLIC "-//W3C//DTD SVG 20010904//EN"
 "http://www.w3.org/TR/2001/REC-SVG-20010904/DTD/svg10.dtd">
<svg version="1.0" xmlns="http://www.w3.org/2000/svg"
 width="576.000000pt" height="588.000000pt" viewBox="0 0 576.000000 588.000000"
 preserveAspectRatio="xMidYMid meet">
<metadata>
Created by potrace 1.16, written by Peter Selinger 2001-2019
</metadata>
<g transform="translate(0.000000,588.000000) scale(0.100000,-0.100000)"
fill="#000000" stroke="none">
<path d="M1746 5872 c-3 -5 -19 -12 -35 -15 -17 -4 -37 -18 -46 -31 l-17 -25
32 -63 c17 -35 56 -88 85 -118 29 -30 77 -91 107 -135 81 -121 125 -178 216
-276 51 -55 85 -101 89 -120 3 -18 21 -41 47 -62 52 -40 63 -55 75 -94 11 -39
59 -109 123 -181 26 -29 52 -69 57 -88 5 -19 33 -60 61 -91 28 -31 63 -79 77
-107 14 -28 44 -71 68 -96 23 -25 50 -59 60 -75 11 -17 54 -67 96 -111 50 -53
81 -95 88 -118 5 -20 32 -61 60 -92 28 -30 54 -70 59 -88 10 -34 54 -104 114
-178 20 -24 46 -63 58 -88 13 -25 40 -65 60 -90 21 -25 48 -65 60 -90 13 -25
40 -65 61 -90 21 -25 41 -57 44 -72 l7 -28 -41 0 c-23 0 -58 7 -78 15 -23 10
-69 15 -130 15 l-95 0 -29 -29 -29 -29 0 -112 0 -111 21 -42 c12 -23 31 -55
44 -72 12 -16 39 -64 59 -105 23 -45 63 -101 101 -142 37 -38 68 -82 73 -101
10 -35 58 -102 144 -202 26 -30 59 -73 73 -95 14 -22 37 -47 51 -56 14 -10 39
-41 56 -71 18 -31 47 -64 71 -81 30 -20 46 -40 57 -72 12 -34 27 -52 67 -80
29 -19 65 -55 80 -79 15 -24 44 -54 65 -67 21 -13 45 -36 54 -51 26 -42 233
-251 276 -279 21 -13 49 -41 62 -62 13 -20 43 -50 67 -65 24 -15 60 -51 79
-80 28 -40 46 -55 80 -67 30 -10 52 -27 68 -50 34 -51 53 -70 96 -97 22 -14
70 -54 107 -89 38 -35 77 -64 87 -64 10 0 38 -15 62 -32 97 -74 166 -118 181
-118 25 0 66 -37 73 -66 10 -40 -6 -48 -47 -24 l-37 22 -152 -3 -153 -3 -28
18 -27 19 -118 -5 -117 -5 -34 20 -33 20 -111 -6 -111 -6 -56 19 -55 18 -195
0 -195 0 -17 -15 -18 -16 0 -119 c0 -66 -4 -128 -10 -138 -12 -23 -129 -101
-201 -135 -42 -19 -70 -25 -125 -25 -41 0 -87 -6 -107 -15 -20 -8 -54 -15 -75
-15 -22 0 -56 -7 -75 -15 -27 -11 -77 -15 -196 -15 l-159 0 -73 -35 c-85 -41
-94 -42 -134 -15 l-30 20 -193 0 c-148 0 -201 3 -229 15 -20 8 -66 15 -105 15
-38 0 -84 7 -105 15 -19 8 -53 15 -75 15 -21 0 -55 7 -75 15 -24 10 -70 15
-147 15 -68 0 -128 5 -156 14 -60 19 -125 35 -181 46 -26 5 -69 20 -97 34 -28
14 -63 26 -77 26 -14 0 -42 7 -62 15 -19 8 -59 15 -87 15 -52 0 -163 33 -235
69 -22 12 -46 21 -53 21 -7 0 -42 14 -76 30 -35 17 -74 30 -85 30 -37 0 -159
46 -265 99 -56 28 -114 51 -129 51 -16 0 -57 14 -91 30 -89 42 -92 41 -92 -27
l1 -58 41 -30 c71 -52 132 -85 161 -85 37 0 84 -21 137 -59 26 -19 55 -31 74
-31 18 0 50 -13 76 -30 25 -16 58 -30 73 -30 15 0 44 -7 64 -15 19 -8 47 -15
62 -15 14 0 55 -14 89 -30 35 -17 69 -30 75 -30 7 0 41 -14 75 -30 45 -21 79
-30 115 -30 29 0 72 -6 97 -14 58 -18 124 -35 175 -45 22 -4 56 -12 75 -18 52
-16 119 -33 172 -43 26 -5 56 -13 67 -19 11 -6 58 -11 106 -11 53 0 99 -6 122
-15 23 -10 69 -15 135 -15 65 0 111 -5 135 -15 22 -9 68 -15 124 -15 48 0 91
-5 94 -10 8 -14 492 -14 500 0 3 6 46 10 94 10 56 0 102 6 124 15 24 10 70 15
135 15 66 0 112 5 135 15 20 8 66 15 102 15 63 0 154 23 217 56 15 8 40 14 56
14 16 0 46 11 66 25 21 14 59 36 85 50 48 24 60 36 151 154 36 46 50 73 50 96
0 17 5 36 12 43 9 9 74 12 231 12 l218 0 43 -25 44 -25 26 10 c50 19 124 12
170 -15 l44 -25 26 10 c15 5 70 10 122 10 l95 0 43 -25 43 -25 31 11 31 11 58
-26 c39 -17 74 -25 108 -24 65 1 185 -16 212 -31 39 -20 65 -13 105 31 l38 41
0 49 c0 26 -4 48 -9 48 -5 0 -33 21 -63 48 -72 64 -129 103 -218 147 -41 20
-97 55 -123 77 -26 22 -64 44 -83 50 -20 5 -63 35 -102 72 -37 35 -90 75 -117
89 -28 13 -78 50 -113 81 -34 31 -67 56 -72 56 -5 0 -60 47 -122 105 -62 58
-142 131 -177 162 -35 32 -80 76 -100 97 -20 22 -54 56 -75 75 -48 44 -79 76
-150 154 -31 34 -97 106 -146 160 -50 54 -90 103 -90 108 0 6 -38 50 -85 99
-49 53 -97 114 -115 149 -20 41 -43 68 -72 88 -30 20 -47 40 -56 67 -7 21 -35
63 -63 94 -27 30 -62 78 -76 106 -14 28 -46 71 -72 96 -45 44 -79 92 -134 187
-15 26 -36 62 -46 79 -43 70 -31 104 37 104 53 -1 108 -29 174 -89 32 -29 73
-57 93 -62 19 -5 43 -22 52 -36 10 -14 34 -44 54 -65 l37 -38 37 0 37 0 39 39
39 39 0 38 c0 27 -10 54 -30 84 -16 25 -30 53 -30 62 0 10 -13 32 -29 50 -38
44 -117 161 -143 212 -11 22 -38 61 -58 86 -21 25 -48 65 -60 90 -12 25 -32
56 -45 70 -31 34 -111 154 -137 204 -11 22 -43 65 -69 94 -27 29 -53 68 -58
87 -9 34 -55 107 -97 155 -12 14 -46 61 -76 105 -66 99 -119 170 -178 238 -25
29 -67 86 -95 127 -27 41 -70 99 -97 128 -26 29 -52 69 -57 88 -5 19 -32 59
-60 90 -29 31 -55 71 -61 92 -5 21 -26 53 -45 72 -20 19 -61 73 -92 120 -31
47 -85 115 -119 151 -38 42 -67 83 -75 110 -10 31 -26 51 -59 74 -33 23 -49
44 -60 76 -10 29 -27 51 -50 67 -56 37 -90 72 -105 109 -20 47 -20 49 16 63
l30 13 -3 26 -3 26 -92 3 c-50 1 -94 -1 -97 -6z"/>
</g>
</svg>
