<?xml version="1.0" encoding="UTF-8" standalone="no"?>
<!-- Created with Inkscape (http://www.inkscape.org/) -->

<svg
   version="1.1"
   id="svg1"
   width="265.23648"
   height="254.70361"
   viewBox="0 0 265.23648 254.70361"
   xmlns="http://www.w3.org/2000/svg"
   xmlns:svg="http://www.w3.org/2000/svg">
  <defs
     id="defs1" />
  <g
     id="g1"
     transform="translate(-0.34400061,0.15079494)">
    <path
       style="fill:#000000"
       d="m 136.78543,253.28061 c -7.11156,-2.91968 -7.85824,-9.58673 -2.87639,-25.68322 5.5031,-17.78066 5.63526,-20.55478 1.09096,-22.89981 -11.91781,-6.15004 -23.34849,4.5036 -26.05109,24.28017 -0.67812,4.96224 -1.49149,9.02225 -1.80749,9.02225 -15.358408,0 -15.34579,-33.96336 0.0166,-44.60949 8.27027,-5.7313 27.19462,-2.58238 36.34512,6.04765 l 3.35871,3.16768 1.03764,-4.12086 c 8.2158,-32.62799 -0.26545,-53.80429 -35.87849,-89.5827 C 89.132882,85.907885 67.768931,72.619382 36.5,61.927775 10.942783,53.189143 5.0451899,49.060458 1.5200622,37.439626 -15.437535,-18.462288 155.15371,-10.007422 244.56492,49.485448 c 15.73228,10.468017 24.52594,22.82369 19.68747,27.662165 -2.54923,2.549224 -10.1896,-2.012628 -11.39617,-6.804326 C 249.25618,56.046234 185.45801,26.763838 140,18.54399 74.841187,6.7617849 26.498454,12.978135 15.376514,34.569214 L 12.5,40.153406 l 3.439419,2.904257 c 1.891681,1.597342 7.066681,4.093015 11.5,5.545941 C 138.24894,84.919073 186.29475,163.11757 147.9534,244.75 c -5.07655,10.80846 -5.26644,10.95351 -11.16797,8.53061 z"
       id="path1" />
  </g>
</svg>
