<?xml version="1.0" standalone="no"?>
<!DOCTYPE svg PUBLIC "-//W3C//DTD SVG 20010904//EN"
 "http://www.w3.org/TR/2001/REC-SVG-20010904/DTD/svg10.dtd">
<svg version="1.0" xmlns="http://www.w3.org/2000/svg"
 width="441.000000pt" height="177.000000pt" viewBox="0 0 441.000000 177.000000"
 preserveAspectRatio="xMidYMid meet">
<metadata>
Created by potrace 1.16, written by Peter Selinger 2001-2019
</metadata>
<g transform="translate(0.000000,177.000000) scale(0.100000,-0.100000)"
fill="#000000" stroke="none">
<path d="M1442 1737 c-7 -18 -12 -59 -12 -91 0 -78 26 -127 93 -169 28 -19 58
-42 66 -51 37 -45 226 -115 393 -146 26 -5 56 -13 67 -19 34 -18 77 -12 147
20 l68 32 26 -14 c14 -8 37 -37 52 -63 14 -27 42 -63 62 -80 25 -22 42 -50 56
-93 28 -81 24 -103 -22 -128 l-37 -19 -42 47 c-23 26 -63 59 -89 72 -26 13
-83 48 -126 78 -148 101 -205 118 -258 76 -55 -43 -17 -135 77 -185 32 -17 77
-47 100 -66 24 -20 65 -47 92 -61 28 -14 71 -43 97 -64 26 -21 59 -46 73 -56
14 -10 37 -41 51 -70 14 -29 47 -72 73 -97 l46 -45 24 -77 c37 -118 14 -127
-109 -42 -99 68 -270 154 -305 154 -14 0 -42 7 -62 15 -19 8 -59 15 -87 15
-32 0 -84 11 -136 30 -53 18 -105 30 -138 30 -29 0 -69 7 -89 15 -27 11 -77
15 -207 15 -134 0 -181 3 -217 17 l-47 16 -41 -16 c-47 -19 -242 -24 -286 -7
-25 10 -74 3 -155 -23 -19 -6 -53 -14 -75 -18 -128 -24 -343 -96 -388 -129
-73 -53 -123 -107 -141 -151 -10 -24 -22 -52 -27 -61 -5 -10 -9 -43 -9 -73 l0
-55 35 -49 c19 -26 42 -71 51 -100 l17 -51 87 0 87 0 -22 63 c-13 34 -33 85
-45 113 -28 62 -23 98 23 174 l32 53 75 24 c41 13 88 34 105 47 42 31 99 56
128 56 13 0 41 7 60 15 l36 15 453 0 453 0 45 -14 c57 -18 124 -35 175 -45 22
-4 76 -19 120 -33 98 -32 159 -48 205 -55 19 -3 49 -18 65 -33 17 -15 50 -38
75 -50 69 -34 100 -59 100 -80 0 -43 122 -140 175 -140 34 0 116 51 139 88 13
20 40 57 60 80 23 29 36 54 36 73 0 76 -117 330 -171 372 l-32 25 23 56 c12
31 35 74 51 96 33 45 33 51 18 117 -27 117 -51 177 -88 222 -21 25 -44 56 -50
69 -7 12 -30 34 -52 48 -22 13 -45 36 -51 50 -16 35 0 76 34 85 15 4 42 17 60
30 31 22 126 42 188 40 288 -11 378 -18 397 -29 12 -6 40 -12 63 -12 22 0 57
-7 77 -15 19 -8 60 -15 90 -15 29 0 70 -7 90 -15 22 -9 68 -15 122 -15 l86 0
63 -30 c35 -17 75 -30 88 -30 14 0 41 -7 61 -15 19 -8 54 -15 77 -15 34 0 48
-6 71 -30 l29 -30 43 0 c45 0 93 -23 234 -114 34 -22 68 -36 87 -36 l32 0 0
53 0 54 -48 40 c-46 39 -238 143 -264 143 -7 0 -42 14 -76 30 -35 17 -74 30
-86 30 -12 0 -60 13 -106 30 -47 16 -103 30 -125 30 -23 0 -66 13 -103 30
l-64 30 -69 0 c-39 0 -85 7 -106 15 -23 10 -69 15 -134 15 -65 0 -112 5 -137
15 l-38 16 -275 -4 c-170 -2 -289 -8 -314 -15 -22 -6 -51 -14 -65 -16 -14 -3
-51 -21 -84 -41 -32 -19 -63 -35 -68 -35 -6 0 -62 25 -125 55 -63 30 -120 55
-127 55 -6 0 -31 14 -56 30 -25 16 -53 30 -62 30 -9 0 -20 5 -23 10 -4 6 -83
10 -204 10 l-197 0 -12 -33z m265 -112 c19 -8 61 -15 92 -15 l57 0 79 -55 c44
-30 89 -59 100 -64 12 -5 27 -16 34 -25 l13 -16 -12 -15 c-18 -22 -44 -19
-117 15 -35 17 -74 30 -87 30 -60 0 -216 79 -230 116 -5 12 17 44 30 44 3 0
21 -7 41 -15z"/>
</g>
</svg>
