<?xml version="1.0" standalone="no"?>
<!DOCTYPE svg PUBLIC "-//W3C//DTD SVG 20010904//EN"
 "http://www.w3.org/TR/2001/REC-SVG-20010904/DTD/svg10.dtd">
<svg version="1.0" xmlns="http://www.w3.org/2000/svg"
 width="1476.000000pt" height="492.000000pt" viewBox="0 0 1476.000000 492.000000"
 preserveAspectRatio="xMidYMid meet">
<metadata>
Created by potrace 1.16, written by Peter Selinger 2001-2019
</metadata>
<g transform="translate(0.000000,492.000000) scale(0.100000,-0.100000)"
fill="#000000" stroke="none">
<path d="M127 4732 l-17 -19 0 -170 0 -170 18 -16 19 -17 157 0 c89 0 166 -4
177 -10 l19 -11 0 -63 c0 -80 15 -96 89 -96 29 0 61 -5 72 -10 l19 -11 0 -63
c0 -48 4 -67 18 -79 l19 -17 157 0 c89 0 166 -4 177 -10 l19 -11 0 -78 0 -78
18 -16 19 -17 157 0 c89 0 166 -4 177 -10 l19 -11 0 -63 c0 -80 15 -96 89 -96
29 0 61 -5 72 -10 l19 -11 0 -63 c0 -48 4 -67 18 -79 l19 -17 157 0 c89 0 166
-4 177 -10 l19 -11 0 -78 0 -78 18 -16 19 -17 142 0 c79 0 151 -5 162 -10 l19
-11 0 -63 c0 -48 4 -67 18 -79 l19 -17 157 0 c89 0 166 -4 177 -10 l19 -11 0
-63 c0 -48 4 -67 18 -79 l19 -17 157 0 c89 0 166 -4 177 -10 l19 -11 0 -78 0
-78 18 -16 c12 -11 36 -17 71 -17 29 0 61 -5 72 -10 l19 -11 0 -63 c0 -84 13
-96 104 -96 37 0 76 -5 87 -10 l19 -11 0 -363 0 -363 18 -16 c12 -11 36 -17
71 -17 29 0 61 -5 72 -10 l19 -11 0 -63 c0 -80 15 -96 89 -96 29 0 61 -5 72
-10 l19 -11 0 -168 0 -168 18 -16 c13 -12 37 -17 86 -17 37 0 76 -5 87 -10
l19 -11 0 -63 c0 -48 4 -67 18 -79 l19 -17 142 0 c79 0 151 -5 162 -10 l19
-11 0 -63 c0 -48 4 -67 18 -79 l19 -17 157 0 c89 0 166 -4 177 -10 l19 -11 0
-78 0 -78 18 -16 c12 -11 36 -17 71 -17 29 0 61 -5 72 -10 l19 -11 0 -63 c0
-48 4 -67 18 -79 l19 -17 260 0 260 0 16 18 c12 13 17 37 17 80 l0 61 19 11
c11 6 88 10 179 10 l159 0 16 18 17 19 0 365 0 365 -18 16 c-12 11 -36 17 -71
17 -29 0 -61 5 -72 10 l-19 11 0 153 0 153 -18 16 c-13 12 -37 17 -86 17 -37
0 -76 5 -87 10 l-19 11 0 78 0 78 -18 16 c-12 11 -36 17 -71 17 -29 0 -61 5
-72 10 l-19 11 0 63 c0 48 -4 67 -18 79 l-19 17 -157 0 c-89 0 -166 4 -177 10
l-19 11 0 63 c0 80 -15 96 -89 96 -29 0 -61 5 -72 10 l-19 11 0 78 0 78 -18
16 -19 17 -157 0 c-89 0 -166 4 -177 10 l-19 11 0 63 c0 80 -15 96 -89 96 -29
0 -61 5 -72 10 l-19 11 0 74 0 74 19 11 c11 6 88 10 179 10 l159 0 16 18 c12
13 17 37 17 80 l0 61 19 11 c13 6 172 10 449 10 l429 0 16 18 c12 13 17 37 17
80 l0 61 19 11 c27 14 1445 14 1472 0 l19 -11 0 -63 c0 -48 4 -67 18 -79 l19
-17 817 0 c544 0 824 -3 837 -10 l19 -11 0 -63 c0 -48 4 -67 18 -79 l19 -17
637 0 c420 0 644 -4 657 -10 l19 -11 0 -78 0 -78 18 -16 19 -17 337 0 c213 0
344 -4 357 -10 l19 -11 0 -63 c0 -48 4 -67 18 -79 l19 -17 352 0 c224 0 359
-4 372 -10 l19 -11 0 -78 0 -78 18 -16 19 -17 427 0 c275 0 434 -4 447 -10
l19 -11 0 -63 c0 -48 4 -67 18 -79 l19 -17 247 0 c151 0 255 -4 267 -10 l19
-11 0 -63 c0 -48 4 -67 18 -79 l19 -17 262 0 c162 0 270 -4 282 -10 l19 -11 0
-78 0 -78 18 -16 c12 -11 36 -17 71 -17 29 0 61 -5 72 -10 l19 -11 0 -63 c0
-48 4 -67 18 -79 l19 -17 260 0 260 0 16 18 17 19 0 170 0 170 -18 16 c-12 11
-36 17 -71 17 -29 0 -61 5 -72 10 l-19 11 0 63 c0 48 -4 67 -18 79 l-19 17
-157 0 c-89 0 -166 4 -177 10 l-19 11 0 63 c0 48 -4 67 -18 79 l-19 17 -247 0
c-151 0 -255 4 -267 10 l-19 11 0 78 0 78 -18 16 -19 17 -157 0 c-89 0 -166 4
-177 10 l-19 11 0 63 c0 48 -4 67 -18 79 l-19 17 -337 0 c-213 0 -344 4 -357
10 l-19 11 0 78 0 78 -18 16 -19 17 -352 0 c-224 0 -359 4 -372 10 l-19 11 0
63 c0 48 -4 67 -18 79 l-19 17 -532 0 c-348 0 -539 4 -552 10 l-19 11 0 63 c0
48 -4 67 -18 79 l-19 17 -532 0 c-348 0 -539 4 -552 10 l-19 11 0 78 0 78 -18
16 -19 17 -622 0 c-410 0 -629 4 -642 10 l-19 11 0 63 c0 48 -4 67 -18 79
l-19 17 -1415 0 -1415 0 -16 -18 c-12 -13 -17 -37 -17 -80 l0 -61 -19 -11
c-13 -6 -144 -10 -359 -10 l-339 0 -16 -18 c-13 -14 -17 -38 -17 -95 l0 -76
-19 -11 c-11 -6 -88 -10 -179 -10 l-159 0 -16 -18 c-12 -13 -17 -37 -17 -80
l0 -61 -19 -11 c-26 -13 -276 -13 -302 0 l-19 11 0 63 c0 48 -4 67 -18 79
l-19 17 -157 0 c-89 0 -166 4 -177 10 l-19 11 0 78 0 78 -18 16 -19 17 -157 0
c-89 0 -166 4 -177 10 l-19 11 0 63 c0 48 -4 67 -18 79 l-19 17 -157 0 c-89 0
-166 4 -177 10 l-19 11 0 63 c0 48 -4 67 -18 79 l-19 17 -142 0 c-79 0 -151 5
-162 10 l-19 11 0 78 0 78 -18 16 -19 17 -157 0 c-89 0 -166 4 -177 10 l-19
11 0 63 c0 48 -4 67 -18 79 l-19 17 -157 0 c-89 0 -166 4 -177 10 l-19 11 0
63 c0 80 -15 96 -89 96 -29 0 -61 5 -72 10 l-19 11 0 78 0 78 -18 16 -19 17
-157 0 c-89 0 -166 4 -177 10 l-19 11 0 63 c0 48 -4 67 -18 79 l-19 17 -260 0
-260 0 -16 -18z m4164 -2682 l19 -11 0 -57 c0 -32 -5 -63 -12 -70 -15 -15
-102 -16 -129 -2 l-19 11 0 59 c0 46 4 61 18 69 22 14 98 14 123 1z m570 -180
l19 -11 0 -166 0 -166 17 -19 16 -18 159 0 c91 0 168 -4 179 -10 l19 -11 0
-254 0 -254 -19 -11 c-11 -5 -45 -10 -76 -10 -31 0 -65 5 -76 10 l-19 11 0 61
c0 81 -15 98 -87 98 -30 0 -63 5 -74 10 l-19 11 0 76 c0 57 -4 81 -17 95 l-16
18 -159 0 c-91 0 -168 4 -179 10 l-19 11 0 151 0 151 -17 19 c-12 13 -30 18
-70 18 -30 0 -63 5 -74 10 l-19 11 0 72 c0 44 5 78 12 85 16 16 490 17 519 2z"/>
</g>
</svg>
