<?xml version="1.0" standalone="no"?>
<!DOCTYPE svg PUBLIC "-//W3C//DTD SVG 20010904//EN"
 "http://www.w3.org/TR/2001/REC-SVG-20010904/DTD/svg10.dtd">
<svg version="1.0" xmlns="http://www.w3.org/2000/svg"
 width="282.000000pt" height="231.000000pt" viewBox="0 0 282.000000 231.000000"
 preserveAspectRatio="xMidYMid meet">
<metadata>
Created by potrace 1.16, written by Peter Selinger 2001-2019
</metadata>
<g transform="translate(0.000000,231.000000) scale(0.100000,-0.100000)"
fill="#000000" stroke="none">
<path d="M695 2300 c-3 -5 -44 -10 -91 -10 l-85 0 -132 -45 c-73 -25 -144 -45
-157 -45 -33 0 -152 -82 -195 -134 l-35 -43 0 -57 c0 -31 4 -64 9 -74 4 -9 20
-42 34 -72 15 -30 35 -71 46 -90 11 -19 26 -51 33 -70 7 -19 29 -53 48 -75 20
-22 52 -62 71 -90 18 -27 62 -80 96 -118 35 -37 75 -91 89 -120 15 -28 49 -76
76 -106 27 -30 62 -80 79 -112 16 -32 43 -69 60 -81 17 -13 43 -43 57 -68 14
-25 56 -78 93 -118 43 -46 74 -89 84 -120 35 -98 50 -124 87 -153 24 -20 41
-44 48 -68 5 -21 19 -46 30 -56 29 -26 110 -151 110 -169 0 -9 -11 -23 -25
-32 l-25 -17 -43 17 c-23 9 -60 16 -80 16 -21 0 -54 7 -74 15 -28 12 -82 15
-255 15 -172 0 -226 3 -255 15 -51 22 -322 21 -363 0 l-30 -16 0 -37 0 -38 52
-16 c112 -34 146 -41 248 -47 58 -4 115 -12 127 -19 15 -8 85 -12 228 -12 160
0 214 -3 242 -15 19 -8 48 -15 64 -15 15 0 31 -5 34 -10 4 -6 88 -10 219 -10
l212 0 12 33 c20 56 15 90 -17 121 -17 16 -59 72 -95 125 -36 53 -76 107 -90
120 -14 14 -26 33 -26 44 0 10 -24 43 -54 72 -36 36 -56 66 -63 92 -11 43 -73
131 -140 198 -24 23 -43 48 -43 54 0 27 -42 89 -94 141 -31 30 -56 62 -56 72
0 9 -15 35 -34 57 -19 23 -56 74 -82 114 -48 72 -104 145 -155 202 -28 31 -39
71 -26 93 6 8 38 12 100 12 90 1 176 20 209 48 8 6 26 37 42 70 l28 59 -36 70
-35 71 -107 72 c-73 49 -130 79 -184 96 -132 43 -139 60 -38 95 l52 19 318 0
319 0 36 -15 c23 -10 69 -15 135 -15 65 0 111 -5 135 -15 19 -8 52 -15 72 -15
20 0 75 -13 121 -30 53 -18 105 -30 138 -30 29 0 69 -7 89 -15 19 -8 53 -15
75 -15 21 0 55 -7 75 -15 19 -8 47 -15 61 -15 13 0 64 -18 111 -41 96 -45 177
-74 234 -82 45 -7 97 -42 97 -66 0 -26 27 -44 95 -66 44 -14 71 -31 101 -62
l40 -43 37 0 37 0 0 70 0 70 -39 19 c-21 11 -52 37 -69 58 l-30 38 -67 20
c-54 16 -73 27 -97 57 -19 24 -43 41 -66 48 -21 5 -61 21 -90 35 -28 14 -63
25 -77 25 -14 0 -42 7 -62 15 -19 8 -47 15 -62 15 -14 0 -55 14 -89 30 -35 17
-75 30 -88 30 -14 0 -41 7 -61 15 -19 8 -53 15 -75 15 -21 0 -55 7 -75 15 -22
9 -67 15 -120 15 -52 0 -97 6 -120 15 -19 8 -60 15 -90 15 -29 0 -70 7 -90 15
-27 12 -79 15 -222 15 l-187 0 -52 18 c-29 10 -55 22 -59 25 -10 11 -131 8
-138 -3z m-246 -436 c18 -8 44 -14 58 -14 17 0 43 -19 84 -61 32 -34 59 -65
59 -69 0 -4 -8 -18 -18 -30 l-18 -23 -55 12 c-97 22 -193 54 -221 73 -30 21
-73 101 -64 123 4 11 19 13 73 8 37 -3 83 -12 102 -19z"/>
</g>
</svg>
