<?xml version="1.0" standalone="no"?>
<!DOCTYPE svg PUBLIC "-//W3C//DTD SVG 20010904//EN"
 "http://www.w3.org/TR/2001/REC-SVG-20010904/DTD/svg10.dtd">
<svg version="1.0" xmlns="http://www.w3.org/2000/svg"
 width="501.000000pt" height="189.000000pt" viewBox="0 0 501.000000 189.000000"
 preserveAspectRatio="xMidYMid meet">
<metadata>
Created by potrace 1.16, written by Peter Selinger 2001-2019
</metadata>
<g transform="translate(0.000000,189.000000) scale(0.100000,-0.100000)"
fill="#000000" stroke="none">
<path d="M305 1880 c-3 -5 -17 -10 -31 -10 -53 0 -182 -52 -241 -98 l-33 -24
0 -97 0 -98 25 -23 c14 -13 25 -27 25 -32 0 -30 58 -91 137 -145 127 -86 150
-96 323 -143 53 -14 190 -32 240 -31 197 4 350 19 405 40 33 12 87 26 120 31
63 9 120 22 195 46 25 8 54 14 65 14 37 0 108 -45 139 -87 17 -24 49 -55 71
-69 22 -14 51 -36 65 -48 14 -12 37 -30 53 -39 15 -10 38 -34 51 -55 13 -21
44 -50 68 -66 25 -16 58 -49 74 -74 16 -24 45 -55 65 -68 23 -14 63 -63 112
-136 41 -62 87 -124 101 -137 l26 -24 0 -82 c0 -111 -21 -165 -92 -237 -32
-32 -62 -58 -68 -58 -16 0 -88 -38 -95 -51 -4 -5 -4 -26 -1 -45 l7 -34 60 0
c32 0 67 4 77 9 9 4 43 20 74 34 41 19 64 38 82 66 14 22 39 55 55 73 45 51
71 141 71 243 l0 85 -39 78 c-22 42 -49 91 -60 107 -12 17 -21 38 -21 48 0 10
-24 42 -53 71 -29 29 -69 77 -89 108 -21 30 -56 67 -81 82 -25 16 -57 48 -73
73 -16 25 -52 60 -83 81 -31 20 -76 58 -101 83 -25 25 -65 57 -90 72 -25 14
-62 44 -83 67 -43 47 -42 54 25 114 47 42 158 86 219 86 20 0 53 7 72 15 29
12 83 15 252 15 169 0 223 -3 252 -15 22 -9 67 -15 120 -15 52 0 97 -6 120
-15 21 -9 66 -15 110 -15 l74 0 24 -25 c17 -16 25 -35 25 -58 0 -24 8 -41 30
-62 17 -16 30 -37 30 -46 0 -10 28 -39 63 -65 34 -27 88 -77 121 -112 52 -56
135 -112 167 -112 18 0 81 -32 123 -62 78 -56 157 -25 212 83 31 63 30 94 -6
171 -32 68 -36 89 -20 119 13 24 74 26 127 4 22 -9 67 -15 120 -15 52 0 97 -6
120 -15 23 -10 69 -15 135 -15 65 0 111 -5 135 -15 26 -11 74 -15 180 -15 105
0 153 -4 180 -15 19 -8 51 -15 69 -15 19 0 54 -5 79 -12 l44 -12 26 24 c16 15
25 34 25 54 0 40 -44 86 -82 86 -16 0 -45 7 -65 15 -26 11 -74 15 -180 15
-105 0 -153 4 -180 15 -25 11 -72 15 -165 15 -92 0 -139 4 -165 15 -23 10 -69
15 -135 15 -65 0 -111 5 -135 15 -19 8 -53 15 -75 15 -21 0 -55 7 -75 15 -26
11 -74 15 -180 15 -105 0 -153 4 -180 15 -19 8 -48 15 -62 15 -17 0 -38 11
-56 30 -18 18 -39 30 -55 30 -14 0 -64 13 -110 30 -47 16 -102 30 -123 30 -21
0 -54 7 -74 15 -27 12 -79 15 -225 15 -145 0 -197 3 -225 15 -25 11 -73 15
-168 15 -95 0 -143 -4 -168 -15 -20 -8 -67 -15 -104 -15 -80 0 -178 -32 -264
-85 -31 -19 -69 -35 -85 -35 -15 0 -49 -14 -75 -31 l-48 -31 -63 21 c-76 26
-104 39 -143 67 -36 26 -170 94 -186 94 -6 0 -40 14 -76 30 -35 17 -69 30 -75
30 -5 0 -39 14 -75 30 -35 17 -77 30 -93 30 -16 0 -32 5 -35 10 -4 6 -98 10
-250 10 -152 0 -246 -4 -250 -10z m472 -165 c19 -8 54 -15 76 -15 30 0 80 -19
194 -75 85 -41 160 -75 167 -75 16 0 107 -64 118 -83 13 -24 -14 -42 -112 -74
-64 -21 -125 -33 -188 -37 -51 -4 -104 -11 -118 -16 -39 -15 -150 -12 -191 5
-19 8 -59 15 -87 15 -34 0 -97 16 -193 48 l-142 48 -39 45 c-57 66 -72 91 -72
121 0 35 44 66 107 77 27 5 59 13 73 19 41 18 363 15 407 -3z m2670 -346 c38
-18 83 -45 101 -62 36 -35 43 -67 13 -67 -32 0 -155 68 -191 105 l-35 36 15 9
c21 14 23 13 97 -21z"/>
</g>
</svg>
