<?xml version="1.0" standalone="no"?>
<!DOCTYPE svg PUBLIC "-//W3C//DTD SVG 20010904//EN"
 "http://www.w3.org/TR/2001/REC-SVG-20010904/DTD/svg10.dtd">
<svg version="1.0" xmlns="http://www.w3.org/2000/svg"
 width="471.000000pt" height="363.000000pt" viewBox="0 0 471.000000 363.000000"
 preserveAspectRatio="xMidYMid meet">
<metadata>
Created by potrace 1.16, written by Peter Selinger 2001-2019
</metadata>
<g transform="translate(0.000000,363.000000) scale(0.100000,-0.100000)"
fill="#000000" stroke="none">
<path d="M215 3620 c-3 -5 -28 -10 -54 -10 l-49 0 -56 -46 -56 -46 0 -69 c0
-54 5 -75 22 -102 13 -19 30 -48 39 -64 9 -16 41 -43 71 -60 30 -17 62 -43 71
-57 9 -13 117 -91 239 -173 123 -81 237 -160 254 -175 18 -16 70 -40 125 -58
53 -17 116 -45 143 -65 27 -19 57 -35 65 -35 9 0 45 -14 79 -30 35 -17 76 -30
90 -30 15 0 52 -12 82 -26 85 -39 256 -94 295 -94 20 0 52 -7 72 -15 19 -8 46
-15 60 -15 45 0 108 -39 171 -107 97 -105 159 -179 186 -222 14 -21 39 -49 55
-61 23 -16 31 -29 31 -51 0 -37 23 -83 66 -131 39 -43 67 -97 83 -153 6 -22
27 -67 47 -100 19 -33 52 -107 71 -164 l35 -104 -1 -297 c0 -177 -5 -308 -11
-324 -5 -15 -10 -41 -10 -57 0 -42 -44 -124 -81 -151 -17 -13 -46 -44 -65 -70
-40 -53 -89 -88 -127 -88 -14 0 -54 -13 -89 -30 -72 -34 -161 -40 -238 -16
-59 19 -125 36 -176 45 -22 4 -54 17 -70 28 -16 11 -51 33 -79 47 -27 15 -74
43 -104 61 -58 37 -145 67 -167 58 -28 -11 -33 -38 -15 -79 18 -40 50 -71 133
-127 26 -18 75 -53 108 -80 38 -29 72 -47 89 -47 14 0 46 -6 71 -14 106 -34
142 -39 259 -43 96 -3 132 -1 162 11 22 9 55 16 75 16 62 0 155 39 205 85 25
23 64 54 86 68 22 14 50 38 62 54 12 15 41 53 65 84 70 90 86 128 86 209 0 40
6 86 15 107 12 28 15 81 15 243 0 162 -3 215 -15 243 -8 20 -15 66 -15 102 0
93 -55 240 -129 350 -12 17 -21 44 -21 60 0 18 -15 53 -38 86 -20 32 -50 80
-67 109 -16 29 -43 75 -60 104 -16 29 -47 73 -67 97 -42 51 -82 134 -73 149 9
14 218 13 252 -2 15 -7 84 -16 153 -20 69 -4 145 -10 170 -13 25 -4 173 -8
329 -11 l284 -5 39 16 c25 10 71 15 137 15 65 0 111 5 134 15 20 8 54 15 75
15 22 0 56 7 75 15 20 8 48 15 62 15 14 0 45 10 68 21 23 12 82 35 130 51 106
34 140 51 191 95 22 18 54 37 72 42 28 8 75 41 182 127 18 15 46 52 62 83 16
31 47 78 69 105 30 35 41 57 41 81 0 19 4 37 10 40 17 10 12 118 -8 158 -22
45 -133 137 -166 137 -28 0 -56 -29 -56 -57 0 -12 11 -45 25 -75 17 -36 25
-71 25 -108 l0 -55 -60 -90 c-33 -50 -60 -98 -60 -108 0 -24 -44 -67 -68 -67
-11 0 -42 -18 -68 -41 -58 -48 -297 -169 -336 -169 -14 0 -55 -13 -90 -30 -47
-23 -77 -30 -121 -30 -32 0 -68 -6 -80 -12 -18 -11 -373 -28 -547 -27 -275 1
-649 16 -667 27 -13 7 -57 12 -108 12 -53 0 -99 6 -122 15 -22 9 -67 15 -120
15 -96 0 -160 22 -190 66 -19 27 -174 202 -215 242 -235 230 -398 371 -483
420 -22 13 -52 35 -68 50 -26 24 -44 37 -167 107 -29 17 -77 47 -109 67 -31
21 -62 38 -69 38 -8 0 -43 14 -79 30 -35 17 -75 30 -89 30 -14 0 -41 7 -61 15
-19 8 -48 15 -64 15 -15 0 -31 5 -34 10 -4 6 -53 10 -115 10 -62 0 -111 -4
-115 -10z m215 -149 c69 -9 144 -35 240 -81 41 -20 87 -40 102 -43 14 -4 51
-29 80 -56 30 -27 91 -68 136 -91 52 -27 93 -56 112 -80 17 -22 42 -40 58 -43
16 -3 42 -21 58 -39 16 -18 47 -48 68 -68 40 -36 74 -70 195 -195 67 -70 99
-121 84 -136 -14 -14 -206 38 -285 78 -26 12 -52 23 -59 23 -6 0 -39 13 -73
29 -34 16 -77 32 -94 36 -18 3 -54 22 -80 40 -58 39 -176 99 -214 109 -14 3
-50 28 -80 55 -29 26 -77 60 -105 75 -29 14 -83 54 -120 89 -38 34 -86 75
-108 90 -66 45 -133 112 -141 141 -13 54 50 91 136 79 19 -3 60 -8 90 -12z"/>
<path d="M217 652 c-22 -25 -22 -85 1 -104 9 -8 29 -18 43 -21 14 -4 62 -38
107 -77 44 -38 86 -70 92 -70 19 0 139 -58 173 -84 18 -14 79 -48 137 -77 58
-28 128 -69 155 -91 129 -101 174 -128 214 -128 30 0 43 5 51 19 19 36 10 60
-42 126 -62 77 -181 162 -333 238 -55 28 -113 60 -130 73 -16 12 -79 47 -140
78 -60 30 -132 73 -159 95 l-48 41 -53 0 c-38 0 -56 -5 -68 -18z"/>
</g>
</svg>
