<?xml version="1.0" standalone="no"?>
<!DOCTYPE svg PUBLIC "-//W3C//DTD SVG 20010904//EN"
 "http://www.w3.org/TR/2001/REC-SVG-20010904/DTD/svg10.dtd">
<svg version="1.0" xmlns="http://www.w3.org/2000/svg"
 width="975.000000pt" height="141.000000pt" viewBox="0 0 975.000000 141.000000"
 preserveAspectRatio="xMidYMid meet">
<metadata>
Created by potrace 1.16, written by Peter Selinger 2001-2019
</metadata>
<g transform="translate(0.000000,141.000000) scale(0.100000,-0.100000)"
fill="#000000" stroke="none">
<path d="M2929 1383 c-47 -52 -79 -102 -79 -123 0 -22 50 -127 82 -173 l20
-28 -13 -15 -13 -16 -66 6 c-36 4 -85 8 -110 10 -25 2 -64 7 -87 11 -30 5 -54
3 -83 -9 -52 -21 -187 -22 -237 -1 -28 12 -84 15 -270 15 -185 0 -241 3 -270
15 -27 11 -77 15 -210 15 -132 0 -182 4 -210 15 -22 9 -67 15 -120 15 -52 0
-97 6 -120 15 -19 8 -53 15 -75 15 -21 0 -55 7 -75 15 -19 8 -51 15 -71 15
-19 0 -52 5 -73 12 -30 8 -48 8 -79 -1 l-39 -12 -37 16 c-20 8 -61 15 -91 15
-29 0 -70 7 -90 15 -19 8 -58 15 -85 15 l-50 0 -40 -40 -40 -39 8 -23 c19 -61
2 -65 -125 -23 -40 14 -78 22 -85 18 -45 -27 -96 -78 -96 -98 0 -30 79 -95
172 -141 40 -20 93 -53 118 -73 25 -20 61 -47 82 -61 20 -13 57 -56 82 -95
l46 -70 0 -87 0 -87 -27 -19 c-45 -32 -120 -62 -153 -62 -20 0 -40 -9 -56 -25
l-25 -25 11 -20 c16 -30 43 -40 105 -40 121 0 276 82 320 171 l25 48 0 92 0
92 -37 69 -38 70 52 47 c57 52 83 95 83 141 0 69 81 101 167 65 22 -9 67 -15
120 -15 52 0 97 -6 120 -15 20 -8 66 -15 105 -15 38 0 84 -7 105 -15 23 -10
69 -15 135 -15 65 0 111 -5 135 -15 26 -11 74 -15 180 -15 105 0 153 -4 180
-15 l35 -15 581 0 580 0 86 -41 c115 -54 246 -94 356 -108 34 -5 70 -13 82
-19 12 -7 40 -12 63 -12 22 0 57 -7 77 -15 19 -8 53 -15 75 -15 21 0 55 -7 75
-15 46 -19 140 -19 186 0 20 8 62 15 94 15 l58 0 45 30 c25 16 55 30 68 30 44
0 145 42 191 79 25 20 57 42 71 49 58 26 147 52 183 52 21 0 48 5 60 12 12 6
78 18 147 26 69 7 143 16 166 19 25 3 55 -1 78 -11 21 -9 58 -16 83 -16 33 0
50 -6 68 -25 l25 -24 0 -61 0 -60 34 -68 c19 -37 46 -78 60 -91 14 -14 26 -32
26 -41 0 -30 40 -69 81 -80 25 -7 62 -32 103 -71 72 -67 173 -139 196 -139 8
0 35 -14 60 -30 25 -16 52 -30 60 -30 8 0 57 -20 108 -45 52 -25 98 -45 104
-45 19 0 136 -59 179 -89 33 -24 52 -31 90 -31 26 0 51 -4 54 -10 4 -6 67 -10
156 -10 l150 0 35 27 c39 29 84 109 84 148 0 42 -39 145 -73 194 -18 25 -60
77 -95 115 -34 38 -61 74 -59 79 9 27 37 32 86 14 27 -9 64 -17 82 -17 19 0
54 -6 79 -14 87 -28 136 -38 210 -45 41 -4 85 -13 97 -19 12 -7 40 -12 63 -12
22 0 57 -7 77 -15 19 -8 60 -15 90 -15 29 0 70 -7 90 -15 27 -11 77 -15 209
-15 112 0 183 -4 201 -12 26 -11 229 -29 313 -28 201 2 470 18 493 28 16 6 52
12 81 12 30 0 70 7 89 15 20 8 54 15 75 15 22 0 56 7 75 15 20 8 49 15 64 15
33 0 139 70 281 186 40 32 82 112 82 153 0 16 5 33 10 36 6 3 10 28 10 55 0
27 -4 52 -10 55 -5 3 -10 21 -10 38 0 44 -22 73 -80 102 -62 31 -85 31 -116 0
l-26 -26 26 -44 c32 -53 35 -130 7 -190 -10 -22 -48 -74 -85 -115 l-68 -74
-76 -27 c-42 -14 -97 -36 -122 -47 -25 -12 -64 -22 -86 -22 -23 0 -58 -7 -77
-15 -23 -9 -68 -15 -120 -15 -54 0 -98 -6 -122 -16 l-38 -16 -126 6 c-259 12
-441 29 -468 44 -14 8 -77 12 -183 12 -120 0 -170 4 -197 15 -19 8 -53 15 -75
15 -21 0 -55 7 -75 15 -20 8 -66 15 -105 15 -38 0 -84 7 -105 15 -19 8 -52 15
-72 15 -20 0 -75 13 -121 30 -47 16 -101 30 -120 30 -20 0 -74 13 -120 30 -62
21 -104 30 -153 30 -37 0 -84 7 -104 15 -19 8 -53 15 -75 15 -21 0 -55 7 -75
15 -19 8 -47 15 -60 15 -14 0 -54 14 -90 30 -35 17 -69 30 -75 30 -5 0 -39 14
-75 30 -47 22 -79 30 -121 30 l-57 0 -93 45 c-52 25 -105 45 -118 45 -14 0
-41 7 -61 15 -19 8 -53 15 -75 15 -21 0 -55 7 -75 15 -19 8 -60 15 -90 15 -29
0 -70 7 -90 15 -22 9 -68 15 -123 15 -55 0 -101 -6 -123 -15 -26 -11 -73 -15
-165 -15 -93 0 -140 -4 -165 -15 -20 -8 -56 -15 -79 -15 -31 -1 -65 -12 -123
-43 -44 -24 -93 -50 -110 -59 -16 -9 -55 -27 -85 -40 -30 -12 -79 -38 -110
-56 -97 -59 -150 -72 -287 -72 -87 0 -134 4 -160 15 -19 8 -53 15 -75 15 -21
0 -55 7 -75 15 -19 8 -52 15 -72 15 -40 0 -244 66 -281 91 l-24 16 27 64 c19
46 27 81 27 124 l0 61 -48 69 -48 70 -45 15 c-25 8 -58 23 -72 33 l-26 17
-149 0 -148 0 -25 -27z m284 -123 c50 -24 67 -37 90 -70 23 -33 22 -43 -10
-80 l-26 -32 -41 6 c-53 9 -98 38 -141 90 -41 50 -43 69 -13 90 31 22 91 20
141 -4z m-2748 -270 c3 -5 -1 -10 -9 -10 -8 0 -18 5 -21 10 -3 6 1 10 9 10 8
0 18 -4 21 -10z m5472 -235 c19 -8 60 -15 90 -15 29 0 70 -7 90 -15 19 -8 65
-15 102 -15 69 0 139 -19 239 -66 29 -13 57 -24 63 -24 16 0 161 -89 192 -118
15 -14 48 -37 74 -51 65 -36 152 -154 173 -235 l13 -49 -22 -19 c-18 -14 -40
-18 -104 -18 -91 0 -163 20 -290 82 -43 21 -83 38 -90 38 -7 0 -32 14 -57 30
-25 16 -51 30 -58 30 -7 0 -43 18 -80 40 -36 22 -82 45 -102 50 -19 5 -53 24
-74 42 -22 18 -56 44 -77 58 -20 14 -71 57 -112 96 -60 56 -77 78 -83 109 l-7
38 18 14 c24 17 57 17 102 -2z"/>
</g>
</svg>
