<?xml version="1.0" standalone="no"?>
<!DOCTYPE svg PUBLIC "-//W3C//DTD SVG 20010904//EN"
 "http://www.w3.org/TR/2001/REC-SVG-20010904/DTD/svg10.dtd">
<svg version="1.0" xmlns="http://www.w3.org/2000/svg"
 width="858.000000pt" height="171.000000pt" viewBox="0 0 858.000000 171.000000"
 preserveAspectRatio="xMidYMid meet">
<metadata>
Created by potrace 1.16, written by Peter Selinger 2001-2019
</metadata>
<g transform="translate(0.000000,171.000000) scale(0.100000,-0.100000)"
fill="#000000" stroke="none">
<path d="M130 1685 c-19 -14 -40 -25 -47 -25 -6 0 -28 -20 -47 -44 -36 -43
-48 -97 -26 -111 6 -3 10 -17 10 -31 0 -14 5 -34 10 -45 14 -25 81 -59 118
-59 18 0 38 -10 57 -30 l29 -30 45 0 c35 0 51 -6 72 -26 36 -35 120 -63 187
-64 29 0 69 -7 89 -15 19 -8 47 -15 60 -15 14 0 54 -13 90 -30 35 -16 81 -30
102 -30 20 0 75 -13 121 -30 l85 -30 110 0 111 0 84 -30 c47 -16 96 -30 110
-30 14 0 63 -24 110 -53 l85 -53 3 -102 c3 -129 -9 -160 -84 -208 -55 -35 -74
-59 -74 -92 0 -26 18 -32 101 -32 54 0 81 5 118 24 62 32 111 87 111 126 0 16
7 48 16 70 15 37 16 125 2 229 -2 19 5 28 35 44 l38 19 42 -16 c24 -9 72 -16
110 -16 38 0 84 -7 104 -15 28 -12 84 -15 265 -15 l230 0 29 29 c49 49 33 141
-24 141 -18 0 -73 44 -88 71 -18 34 5 59 54 59 33 -1 60 -12 127 -53 l85 -53
5 -69 c3 -43 14 -85 27 -110 11 -22 26 -59 32 -82 8 -30 24 -52 51 -74 22 -18
40 -41 40 -51 0 -11 25 -36 61 -63 l61 -45 84 0 83 0 36 32 c40 35 75 95 75
130 0 39 -59 129 -128 194 l-66 63 13 15 13 16 140 0 c101 0 148 -4 175 -15
19 -8 60 -15 90 -15 53 0 131 -27 177 -63 l20 -15 -29 -67 -28 -67 16 -47 c10
-25 17 -58 17 -72 0 -29 71 -128 140 -195 25 -24 65 -63 90 -88 71 -70 354
-256 390 -256 6 0 41 -18 78 -40 36 -22 82 -45 102 -50 19 -5 59 -21 88 -35
37 -18 68 -25 111 -25 33 0 63 -4 66 -10 4 -6 57 -10 125 -10 l120 0 55 35
c74 48 95 90 95 190 l0 75 -40 79 c-21 43 -53 89 -69 102 -41 33 -103 117 -96
129 10 16 180 12 220 -4 24 -10 74 -14 177 -14 112 1 151 -3 182 -16 23 -9 66
-16 108 -16 38 0 84 -7 105 -15 20 -8 66 -15 105 -15 38 0 84 -7 105 -15 25
-11 72 -15 165 -15 92 0 139 -4 165 -15 l35 -15 493 0 493 0 35 15 c20 8 61
15 90 15 30 0 71 7 90 15 20 8 59 15 87 15 34 0 95 15 183 45 73 25 141 45
150 45 22 0 131 36 172 57 16 9 45 29 63 45 19 16 51 40 73 53 25 16 48 43 65
76 14 28 39 69 55 92 18 25 29 52 29 73 0 18 5 36 10 39 17 11 11 89 -10 133
-23 48 -79 82 -133 82 -55 0 -65 -20 -64 -136 l1 -101 -32 -50 c-18 -27 -32
-57 -32 -65 0 -27 -110 -102 -195 -132 -48 -16 -125 -48 -216 -87 -52 -23 -81
-29 -136 -29 -39 0 -86 -6 -104 -14 -19 -7 -90 -16 -159 -19 -69 -3 -138 -10
-153 -16 -41 -16 -241 -14 -280 3 -25 10 -123 14 -436 15 l-404 2 -35 15 c-22
9 -70 14 -134 14 -65 0 -111 5 -135 15 -19 8 -53 15 -75 15 -21 0 -55 7 -75
15 -19 8 -58 15 -86 15 -27 0 -67 5 -88 12 -30 8 -48 8 -79 -1 l-39 -12 -37
16 c-20 8 -54 15 -76 15 -21 0 -55 7 -75 15 -23 10 -69 15 -135 15 -65 0 -111
5 -135 15 -19 8 -53 15 -75 15 -21 0 -55 7 -75 15 -19 8 -53 15 -75 15 -22 0
-64 11 -94 25 -68 31 -168 65 -192 65 -31 0 -133 39 -250 95 -79 39 -125 55
-153 55 -22 0 -66 12 -97 26 -108 49 -234 85 -277 79 -29 -4 -63 2 -118 20
l-78 25 -242 0 -243 0 -52 18 c-29 11 -65 30 -80 44 -50 48 -146 88 -207 88
-31 0 -72 7 -92 15 -19 8 -65 15 -101 15 l-65 0 -43 -44 -44 -43 0 -40 c0 -28
9 -52 28 -79 42 -60 55 -94 41 -110 -15 -18 -215 -20 -256 -2 -15 6 -71 15
-123 20 -121 11 -126 11 -181 3 -97 -15 -205 43 -349 188 -43 43 -136 97 -190
110 -14 4 -47 24 -74 47 -26 22 -56 40 -65 40 -9 0 -45 14 -79 30 -35 17 -68
30 -74 30 -5 0 -34 11 -63 25 -30 13 -102 40 -160 60 l-105 35 -100 0 c-55 0
-102 4 -105 10 -4 6 -72 10 -173 10 l-167 -1 -35 -24z m467 -150 c20 -8 66
-15 105 -15 l70 0 65 -30 c35 -16 70 -30 77 -30 7 0 25 -13 41 -30 l29 -30 44
0 c53 0 99 -20 137 -60 16 -17 37 -30 46 -30 10 0 27 -13 38 -29 12 -16 32
-32 46 -35 14 -4 25 -11 25 -17 0 -7 -10 -9 -27 -4 -16 4 -80 10 -143 14 -63
4 -125 12 -137 19 -12 6 -32 12 -45 12 -28 0 -214 62 -286 95 -35 17 -70 25
-105 25 -51 0 -154 29 -187 53 -9 7 -36 29 -61 50 l-44 38 15 9 c25 16 256 12
297 -5z m3660 -750 c22 -9 68 -15 120 -15 l85 0 72 -35 c39 -20 96 -51 126
-71 30 -19 75 -40 99 -46 31 -8 58 -25 90 -58 25 -26 66 -58 91 -72 25 -14 60
-47 79 -73 18 -25 51 -66 72 -91 21 -25 42 -56 45 -68 8 -33 -20 -82 -58 -102
l-31 -16 -37 11 c-21 6 -54 11 -74 11 -20 0 -53 7 -73 15 -19 8 -47 15 -61 15
-30 0 -196 78 -253 120 -23 16 -50 30 -59 30 -9 0 -35 13 -56 30 -21 16 -61
45 -89 64 -107 74 -226 208 -246 277 -9 29 -9 45 -1 64 l12 25 55 0 c31 0 72
-7 92 -15z"/>
</g>
</svg>
