<?xml version="1.0" standalone="no"?>
<!DOCTYPE svg PUBLIC "-//W3C//DTD SVG 20010904//EN"
 "http://www.w3.org/TR/2001/REC-SVG-20010904/DTD/svg10.dtd">
<svg version="1.0" xmlns="http://www.w3.org/2000/svg"
 width="750.000000pt" height="252.000000pt" viewBox="0 0 750.000000 252.000000"
 preserveAspectRatio="xMidYMid meet">
<metadata>
Created by potrace 1.16, written by Peter Selinger 2001-2019
</metadata>
<g transform="translate(0.000000,252.000000) scale(0.100000,-0.100000)"
fill="#000000" stroke="none">
<path d="M23 2506 l-23 -11 0 -127 0 -127 41 -28 c23 -15 65 -47 94 -70 66
-52 185 -113 221 -113 14 0 55 -13 91 -30 l64 -30 77 0 77 0 45 30 c25 16 49
30 53 30 15 0 81 -33 112 -56 17 -12 85 -50 153 -84 68 -34 143 -79 166 -99
24 -21 58 -43 77 -50 19 -7 48 -19 64 -28 93 -50 144 -80 179 -105 23 -16 52
-28 70 -28 32 0 62 -16 106 -56 14 -12 67 -44 119 -70 52 -26 111 -62 130 -79
53 -48 153 -95 201 -95 41 0 93 -26 231 -114 30 -20 62 -36 70 -36 15 0 64
-25 156 -80 32 -19 92 -50 133 -69 80 -35 96 -43 205 -103 39 -21 87 -42 107
-48 24 -7 66 -37 113 -80 41 -39 82 -70 90 -70 16 0 104 -49 206 -114 31 -20
68 -36 85 -36 16 0 49 -14 74 -30 25 -16 58 -30 73 -30 16 0 53 -11 83 -25 82
-37 169 -65 207 -65 34 0 122 -27 193 -60 85 -39 256 -90 301 -90 30 0 108
-21 225 -60 98 -33 194 -60 213 -60 20 0 52 -7 72 -15 22 -9 67 -15 120 -15
52 0 97 -6 120 -15 19 -8 53 -15 75 -15 21 0 55 -7 75 -15 19 -8 62 -15 94
-15 32 0 61 -4 64 -10 8 -13 222 -13 230 0 8 13 62 13 70 0 8 -14 822 -14 830
0 3 6 25 10 48 10 23 0 80 14 127 30 53 19 104 30 137 30 l53 0 93 46 c50 25
106 58 122 74 17 15 42 30 56 33 43 11 92 50 101 82 4 17 30 57 57 90 l50 60
1 47 c0 26 -4 50 -10 53 -6 4 -10 54 -10 116 l0 110 -30 27 c-17 15 -52 48
-79 75 l-47 47 -36 0 c-27 0 -42 -7 -57 -26 -30 -38 -34 -60 -16 -94 31 -60
63 -176 70 -251 l6 -75 -40 -50 c-77 -96 -128 -141 -191 -172 -59 -28 -330
-112 -362 -112 -20 0 -51 -7 -70 -15 -26 -10 -87 -15 -239 -16 -149 -1 -215
-5 -245 -16 l-41 -15 -38 16 -37 16 -235 0 c-185 0 -241 3 -270 15 -19 8 -52
15 -72 15 -20 0 -56 6 -81 14 -78 25 -133 37 -195 45 -34 5 -70 13 -82 19 -12
7 -66 12 -125 12 l-103 0 -63 30 c-35 17 -74 30 -85 30 -28 0 -153 42 -206 69
-29 16 -59 21 -112 21 -76 0 -115 13 -183 62 -22 16 -53 28 -70 29 -43 0 -120
33 -124 53 -2 9 1 16 7 16 6 0 29 36 51 80 l40 80 0 90 0 90 -36 73 c-43 87
-115 164 -165 177 -21 6 -70 39 -117 80 -44 38 -86 70 -93 70 -7 0 -82 34
-166 75 l-154 75 -70 0 c-115 0 -235 -48 -305 -122 -55 -57 -84 -116 -84 -172
0 -36 -4 -48 -21 -56 l-20 -11 -145 71 c-80 39 -163 87 -183 106 -25 22 -49
34 -66 34 -16 0 -49 13 -74 29 -25 16 -57 31 -71 34 -14 4 -47 24 -74 47 l-48
40 -45 0 c-48 0 -149 41 -206 84 -18 13 -54 36 -82 50 -55 30 -130 75 -216
130 -30 20 -61 36 -68 36 -24 0 -86 33 -131 70 -48 39 -120 80 -142 80 -8 0
-52 25 -98 57 -47 31 -132 80 -190 109 -58 29 -127 71 -154 93 -26 23 -55 41
-63 41 -21 0 -81 29 -127 62 -21 15 -46 28 -55 28 -9 0 -36 14 -61 30 -25 16
-51 30 -58 30 -24 0 -84 32 -172 92 -60 41 -94 58 -117 58 -17 0 -35 5 -38 10
-8 13 -154 10 -182 -4z m3422 -1256 c16 -16 36 -30 44 -30 24 0 211 -126 257
-173 23 -23 62 -61 88 -84 64 -58 86 -109 86 -201 l0 -73 -25 -24 c-32 -33
-63 -31 -142 5 -37 18 -81 30 -104 30 -50 0 -136 39 -186 83 -21 19 -84 58
-139 86 -56 29 -109 60 -118 69 -8 10 -34 58 -57 106 l-41 89 12 36 c13 41 34
69 70 94 19 13 46 17 125 17 l101 0 29 -30z"/>
<path d="M159 1734 l-13 -15 15 -57 15 -57 53 -35 c38 -25 57 -46 65 -70 8
-24 27 -45 62 -69 28 -19 62 -51 74 -70 59 -90 149 -161 203 -161 29 0 57 29
57 58 0 25 -54 98 -146 201 -34 37 -73 85 -87 107 -13 21 -58 72 -100 112
l-75 72 -55 0 c-37 0 -59 -5 -68 -16z"/>
</g>
</svg>
