<?xml version="1.0" standalone="no"?>
<!DOCTYPE svg PUBLIC "-//W3C//DTD SVG 20010904//EN"
 "http://www.w3.org/TR/2001/REC-SVG-20010904/DTD/svg10.dtd">
<svg version="1.0" xmlns="http://www.w3.org/2000/svg"
 width="765.000000pt" height="255.000000pt" viewBox="0 0 765.000000 255.000000"
 preserveAspectRatio="xMidYMid meet">
<metadata>
Created by potrace 1.16, written by Peter Selinger 2001-2019
</metadata>
<g transform="translate(0.000000,255.000000) scale(0.100000,-0.100000)"
fill="#000000" stroke="none">
<path d="M2815 2495 c-17 -56 -44 -85 -78 -85 -10 0 -32 -13 -48 -29 l-29 -29
0 -67 c0 -88 32 -152 97 -196 27 -17 62 -50 80 -74 23 -31 41 -44 66 -49 19
-4 54 -24 78 -45 42 -36 215 -131 241 -131 14 0 118 -71 118 -81 0 -14 -26
-16 -60 -4 l-35 12 -39 -13 c-51 -18 -158 -18 -203 1 -27 12 -79 15 -225 15
-145 0 -197 3 -225 15 -24 10 -71 15 -149 15 -65 0 -125 5 -141 12 -15 6 -77
15 -138 20 -127 9 -116 9 -261 2 -88 -5 -118 -2 -149 10 -29 12 -74 16 -197
16 -118 0 -168 4 -195 15 -19 8 -65 15 -102 15 -36 0 -86 6 -111 14 -94 30
-138 38 -225 45 -49 4 -96 10 -103 14 -7 5 -28 3 -47 -3 l-34 -11 -66 30 -66
31 -80 0 -81 0 -29 -29 c-43 -43 -41 -98 6 -150 l35 -39 113 -7 c167 -10 380
-84 477 -164 45 -38 120 -81 140 -81 19 0 106 -77 268 -235 185 -180 227 -230
247 -297 8 -28 26 -66 40 -84 14 -18 39 -62 55 -96 l30 -63 0 -100 c0 -110 -1
-113 -74 -197 -23 -25 -51 -60 -64 -77 -13 -17 -28 -31 -33 -31 -5 0 -40 -18
-77 -41 -37 -22 -112 -56 -167 -75 l-100 -34 -243 0 c-193 0 -250 3 -279 15
-19 8 -52 15 -72 15 -39 0 -146 34 -170 53 -24 20 -51 90 -51 135 0 59 -37
126 -108 196 l-60 59 -54 10 c-80 14 -157 7 -210 -20 l-28 -14 0 -143 0 -144
25 -6 c14 -4 55 -35 93 -70 37 -35 81 -70 97 -79 41 -21 150 -57 172 -57 9 0
77 -20 150 -45 93 -32 148 -45 187 -45 30 0 58 -4 61 -10 8 -14 462 -14 470 0
3 5 32 10 64 10 32 0 75 7 94 15 20 8 49 15 64 15 16 0 45 11 66 25 20 14 72
37 115 51 l77 25 51 50 c28 28 76 68 105 88 31 21 57 48 61 62 24 91 31 122
38 189 4 41 14 89 21 106 l12 31 -16 42 c-10 23 -17 53 -17 66 0 35 -64 159
-110 215 -21 25 -49 68 -63 96 -16 30 -53 76 -91 111 -37 33 -66 67 -66 74 0
26 -30 58 -80 85 -28 15 -62 42 -76 61 -14 18 -44 43 -67 54 -120 60 -277 185
-263 208 11 17 190 14 233 -4 24 -10 71 -15 150 -15 78 0 125 -5 150 -15 l35
-15 310 0 309 0 36 -15 c24 -10 71 -15 150 -15 78 0 125 -5 150 -15 27 -12 79
-15 221 -15 111 0 200 -5 223 -12 30 -9 48 -8 82 2 31 9 121 12 342 11 l299
-2 47 -29 c32 -21 58 -30 88 -30 23 0 58 -7 78 -15 19 -8 52 -15 72 -15 20 0
56 -6 81 -14 57 -18 122 -35 180 -46 25 -5 77 -20 115 -34 39 -14 87 -26 108
-26 21 0 54 -7 74 -15 22 -9 67 -15 120 -15 52 0 97 -6 120 -15 20 -8 66 -15
105 -15 38 0 84 -7 105 -15 19 -8 53 -15 75 -15 21 0 55 -7 75 -15 l35 -15
309 0 c187 0 318 -4 335 -10 19 -7 37 -7 60 0 25 9 40 8 71 -5 l38 -16 255 2
c182 2 264 7 287 16 18 7 64 13 103 13 39 0 81 5 93 12 12 6 56 15 97 19 82 8
115 15 265 62 l100 31 45 43 c111 106 197 193 223 226 l27 35 0 161 0 160 -68
71 -69 72 -29 -4 c-32 -3 -74 -56 -74 -93 0 -13 11 -47 25 -77 l25 -53 0 -88
0 -89 -48 -46 c-26 -26 -54 -63 -61 -82 -21 -57 -25 -61 -61 -74 -19 -7 -64
-27 -100 -44 -92 -44 -178 -72 -221 -72 -20 0 -52 -6 -70 -14 -21 -8 -95 -16
-190 -19 -86 -4 -169 -11 -183 -17 -17 -6 -149 -10 -332 -10 l-305 0 -36 15
c-50 21 -227 20 -278 -1 l-38 -16 -41 16 c-23 9 -72 16 -109 16 -38 0 -84 7
-104 15 -19 8 -60 15 -90 15 -29 0 -70 7 -90 15 -19 8 -59 15 -87 15 -28 0
-71 6 -96 14 -98 31 -139 39 -240 45 -58 4 -115 12 -127 19 -12 7 -39 12 -60
12 -22 0 -77 13 -123 30 -47 16 -96 30 -110 30 -14 0 -50 12 -80 26 -30 15
-68 30 -85 33 -44 10 -47 51 -4 82 17 13 51 43 75 65 l44 41 0 47 c0 26 -9 75
-21 109 l-21 62 -98 95 c-163 158 -216 193 -351 236 -45 15 -112 42 -150 60
-38 19 -97 43 -132 54 -34 11 -70 25 -79 30 -11 6 -123 10 -271 10 l-254 0
-18 -55z m452 -90 c19 -8 53 -15 75 -15 28 0 58 -11 106 -40 36 -22 82 -45
102 -50 19 -5 91 -37 159 -70 l123 -61 87 -85 c48 -46 96 -99 106 -117 l18
-33 -18 -37 c-24 -51 -52 -68 -188 -112 l-118 -39 -94 32 c-52 18 -102 32
-111 32 -43 0 -159 48 -198 81 -43 38 -96 69 -118 69 -30 1 -153 75 -235 141
-23 19 -54 42 -69 53 -36 26 -68 99 -61 142 3 19 15 48 27 64 l21 30 44 0 c23
0 58 7 76 15 47 20 218 20 266 0z m-3017 -1960 c32 -16 45 -44 35 -75 -9 -29
-29 -25 -64 15 -34 40 -36 46 -19 63 15 15 13 15 48 -3z"/>
</g>
</svg>
