<?xml version="1.0" standalone="no"?>
<!DOCTYPE svg PUBLIC "-//W3C//DTD SVG 20010904//EN"
 "http://www.w3.org/TR/2001/REC-SVG-20010904/DTD/svg10.dtd">
<svg version="1.0" xmlns="http://www.w3.org/2000/svg"
 width="663.000000pt" height="207.000000pt" viewBox="0 0 663.000000 207.000000"
 preserveAspectRatio="xMidYMid meet">
<metadata>
Created by potrace 1.16, written by Peter Selinger 2001-2019
</metadata>
<g transform="translate(0.000000,207.000000) scale(0.100000,-0.100000)"
fill="#000000" stroke="none">
<path d="M2345 2060 c-3 -5 -17 -10 -31 -10 -29 0 -132 -34 -184 -60 -20 -10
-51 -35 -68 -55 l-32 -36 0 -51 0 -52 45 -67 c25 -38 58 -77 73 -89 15 -11 53
-41 86 -66 32 -26 73 -50 90 -55 17 -5 52 -26 77 -46 26 -21 68 -51 95 -66 36
-22 44 -31 33 -38 -8 -5 -132 -9 -277 -9 l-263 0 -36 15 c-24 10 -71 15 -150
15 -78 0 -125 5 -150 15 -24 10 -71 15 -150 15 -78 0 -125 5 -150 15 -19 8
-52 15 -72 15 -20 0 -58 8 -84 17 l-48 17 -27 -15 c-15 -8 -39 -37 -54 -64
l-28 -50 0 -73 c0 -94 26 -170 90 -266 28 -41 50 -79 50 -84 0 -13 -29 -24
-43 -15 -6 3 -33 7 -61 8 -75 3 -159 21 -203 43 -47 24 -247 92 -271 92 -24 0
-152 44 -201 69 -22 12 -46 21 -53 21 -7 0 -33 14 -58 30 -25 16 -58 30 -73
30 -15 0 -44 7 -64 15 -19 8 -62 15 -94 15 l-59 0 0 -40 0 -40 90 -45 c49 -25
95 -45 102 -45 6 0 41 -13 77 -29 175 -76 382 -150 421 -151 14 0 50 -12 80
-26 112 -52 257 -94 325 -94 36 0 82 -7 102 -15 19 -8 54 -15 77 -15 44 0 143
-42 199 -84 18 -13 55 -35 83 -49 28 -14 75 -48 105 -74 53 -48 125 -98 205
-144 23 -13 65 -37 94 -54 29 -16 74 -44 100 -62 53 -36 244 -133 260 -133 6
0 40 -17 75 -39 35 -21 97 -49 137 -61 40 -13 77 -27 83 -32 5 -4 41 -8 81 -8
l72 0 31 42 c37 50 37 51 10 131 l-20 62 -72 73 -72 74 -110 55 c-60 31 -123
66 -140 78 -45 34 -171 95 -197 95 -26 0 -242 71 -286 94 -48 25 -150 56 -183
56 -55 0 -159 40 -177 69 -9 14 -42 50 -72 81 -79 79 -115 128 -150 203 -36
78 -40 141 -11 157 25 13 132 13 167 0 19 -7 37 -7 60 0 25 9 40 8 69 -5 26
-10 71 -15 152 -15 78 0 125 -5 150 -15 25 -11 72 -15 165 -15 92 0 139 -4
165 -15 l35 -15 412 0 411 0 72 -25 c39 -13 90 -33 112 -44 22 -12 51 -21 63
-21 13 0 43 -6 68 -14 58 -18 124 -35 175 -45 22 -4 56 -12 75 -18 52 -16 119
-33 172 -43 26 -5 56 -13 67 -19 11 -6 44 -11 73 -11 29 0 73 -6 98 -14 110
-35 147 -40 350 -47 118 -4 224 -8 235 -8 11 1 245 4 520 7 366 5 508 10 528
20 16 6 45 12 66 12 21 0 55 7 74 15 20 8 52 15 72 15 40 0 123 26 205 64 34
16 73 26 101 26 l46 0 62 47 c107 81 217 191 255 255 l36 61 0 133 0 132 -53
56 -53 56 -43 0 c-34 0 -49 -6 -72 -29 -36 -37 -36 -54 1 -134 54 -118 34
-185 -94 -313 -57 -57 -94 -85 -126 -96 -50 -17 -122 -46 -221 -89 -36 -16
-77 -29 -91 -29 -14 0 -42 -7 -61 -15 -24 -10 -70 -15 -135 -15 -66 0 -112 -5
-135 -15 -27 -11 -75 -15 -180 -15 -108 0 -154 -4 -182 -16 -44 -18 -248 -15
-382 6 l-82 12 -41 -16 c-51 -20 -130 -21 -177 -1 -19 8 -60 15 -90 15 -29 0
-70 7 -90 15 -25 11 -72 15 -162 15 -81 0 -142 5 -171 14 -60 19 -125 35 -182
46 -26 5 -56 13 -67 19 -11 6 -30 11 -43 11 -13 0 -62 13 -108 30 -47 16 -100
30 -119 30 -38 0 -153 36 -188 58 -30 19 -29 28 11 76 18 23 50 74 70 113 47
94 49 149 6 213 -16 25 -30 53 -30 62 0 28 -68 97 -105 107 -19 5 -68 32 -109
60 -81 54 -174 91 -228 91 -18 0 -53 6 -78 14 -70 22 -131 37 -173 43 -20 3
-40 9 -43 14 -7 12 -251 12 -259 -1z m352 -165 c73 -25 143 -45 156 -45 34 0
217 -92 250 -126 31 -31 77 -120 77 -149 0 -20 -42 -110 -62 -135 -34 -42 -60
-50 -163 -50 l-100 0 -45 30 c-25 16 -52 30 -60 30 -8 0 -35 14 -60 30 -25 16
-51 30 -58 30 -8 0 -39 15 -70 34 -32 18 -71 42 -89 52 -156 94 -171 105 -208
159 l-39 56 18 33 c22 42 64 66 114 66 22 0 55 7 73 15 60 25 123 18 266 -30z
m-607 -1430 c27 -14 66 -25 87 -25 41 0 143 -44 197 -85 18 -14 56 -32 83 -40
28 -8 62 -25 77 -36 31 -24 51 -68 38 -81 -11 -11 -106 24 -177 67 -33 20 -71
38 -85 42 -32 7 -114 58 -160 97 -19 17 -54 40 -77 50 -24 10 -43 23 -43 28 0
12 6 10 60 -17z"/>
</g>
</svg>
