<?xml version="1.0" standalone="no"?>
<!DOCTYPE svg PUBLIC "-//W3C//DTD SVG 20010904//EN"
 "http://www.w3.org/TR/2001/REC-SVG-20010904/DTD/svg10.dtd">
<svg version="1.0" xmlns="http://www.w3.org/2000/svg"
 width="630.000000pt" height="210.000000pt" viewBox="0 0 630.000000 210.000000"
 preserveAspectRatio="xMidYMid meet">
<metadata>
Created by potrace 1.16, written by Peter Selinger 2001-2019
</metadata>
<g transform="translate(0.000000,210.000000) scale(0.100000,-0.100000)"
fill="#000000" stroke="none">
<path d="M20 2071 c0 -17 -4 -33 -10 -36 -6 -4 -10 -68 -10 -160 0 -92 4 -156
10 -160 6 -3 10 -24 10 -46 0 -50 35 -155 65 -194 12 -17 45 -76 73 -131 35
-69 61 -109 86 -128 20 -15 46 -46 57 -69 12 -23 42 -63 68 -88 25 -25 57 -60
70 -78 13 -18 42 -44 64 -58 22 -14 71 -54 108 -89 38 -35 76 -64 84 -64 9 0
40 -20 68 -45 29 -25 95 -66 147 -92 124 -60 145 -71 205 -104 28 -16 61 -29
75 -29 14 0 64 -13 110 -30 47 -16 96 -30 110 -30 14 0 49 -12 79 -26 30 -13
122 -47 203 -74 117 -40 162 -50 214 -50 35 0 81 -7 101 -15 19 -8 59 -15 87
-15 28 0 71 -6 96 -14 116 -37 142 -40 405 -45 188 -4 277 -10 292 -18 13 -8
60 -13 123 -13 67 0 113 -5 137 -15 22 -9 67 -15 120 -15 52 0 97 -6 120 -15
20 -8 66 -15 105 -15 38 0 84 -7 105 -15 19 -8 53 -15 75 -15 21 0 55 -7 75
-15 22 -9 67 -15 120 -15 52 0 97 -6 120 -15 26 -11 75 -15 184 -15 88 0 150
-4 154 -10 8 -14 522 -14 530 0 3 6 32 10 64 10 32 0 75 7 94 15 24 10 70 15
137 15 60 0 110 5 123 12 12 7 63 15 112 19 87 7 131 15 225 45 25 8 76 14
113 14 69 0 114 16 192 69 17 12 37 21 45 21 27 0 132 79 226 170 51 50 98 90
104 90 6 0 10 57 10 165 l0 166 -22 31 c-34 46 -136 110 -158 98 -28 -15 -70
-70 -70 -91 0 -21 35 -94 69 -144 39 -56 16 -162 -46 -218 -81 -72 -115 -98
-185 -141 l-77 -46 -56 0 c-31 0 -65 -5 -76 -11 -11 -6 -41 -14 -67 -19 -57
-11 -122 -27 -182 -46 -25 -8 -61 -14 -81 -14 -20 0 -53 -7 -72 -15 -26 -11
-73 -15 -165 -15 -93 0 -140 -4 -165 -15 l-36 -15 -471 0 -471 0 -36 15 c-22
9 -67 15 -120 15 -52 0 -97 6 -120 15 -19 8 -60 15 -90 15 -29 0 -70 7 -90 15
-19 8 -60 15 -90 15 -29 0 -70 7 -90 15 -19 8 -50 15 -68 15 -42 0 -65 9 -65
24 0 7 22 37 49 67 96 107 113 189 68 319 l-23 64 -53 37 c-29 20 -69 52 -89
72 -50 48 -113 77 -165 77 -30 0 -68 12 -127 40 -106 52 -189 80 -235 80 -20
0 -52 7 -72 15 -51 22 -405 22 -456 0 -20 -8 -50 -15 -67 -15 -35 0 -51 -15
-131 -119 l-49 -64 0 -64 0 -63 39 -78 c37 -74 68 -108 172 -193 19 -15 29
-30 25 -37 -10 -17 -60 -15 -103 3 -19 8 -60 15 -90 15 -29 0 -70 7 -90 15
-19 8 -52 15 -72 15 -43 0 -157 37 -238 79 -82 41 -175 71 -220 71 -41 0 -143
44 -197 85 -18 14 -54 31 -79 39 -25 7 -99 49 -164 92 -199 132 -421 349 -521
510 -91 145 -122 204 -122 227 0 14 -7 41 -15 60 -12 28 -15 82 -15 242 l0
205 -70 0 -70 0 0 -29z m2470 -1135 c78 -24 133 -37 195 -45 63 -8 139 -42
208 -92 22 -16 47 -29 56 -29 61 -1 166 -87 202 -167 l21 -47 -16 -31 c-9 -17
-38 -45 -64 -63 -26 -18 -65 -46 -86 -62 l-39 -30 -114 0 c-78 0 -125 5 -150
15 -19 8 -47 15 -62 15 -14 0 -55 14 -89 30 -35 17 -76 30 -90 30 -31 0 -138
48 -185 84 -18 13 -52 34 -77 46 -108 54 -180 136 -180 206 0 61 28 89 125
124 l80 28 110 1 c69 1 127 -4 155 -13z"/>
</g>
</svg>
