<?xml version="1.0" standalone="no"?>
<!DOCTYPE svg PUBLIC "-//W3C//DTD SVG 20010904//EN"
 "http://www.w3.org/TR/2001/REC-SVG-20010904/DTD/svg10.dtd">
<svg version="1.0" xmlns="http://www.w3.org/2000/svg"
 width="1257.000000pt" height="318.000000pt" viewBox="0 0 1257.000000 318.000000"
 preserveAspectRatio="xMidYMid meet">
<metadata>
Created by potrace 1.16, written by Peter Selinger 2001-2019
</metadata>
<g transform="translate(0.000000,318.000000) scale(0.100000,-0.100000)"
fill="#000000" stroke="none">
<path d="M23 3154 l-23 -25 0 -65 0 -66 25 -30 c14 -16 25 -38 25 -48 0 -59
194 -191 352 -239 123 -37 154 -44 221 -48 l68 -5 48 31 c38 25 59 31 100 31
63 0 98 -15 211 -92 47 -32 91 -58 98 -58 12 0 51 -21 173 -95 109 -65 146
-85 159 -85 8 0 35 -14 60 -30 25 -16 52 -30 60 -30 8 0 35 -14 60 -30 25 -16
51 -30 58 -30 20 0 82 -30 117 -56 35 -26 229 -124 246 -124 5 0 43 -19 82
-43 40 -23 106 -57 147 -76 78 -34 85 -38 215 -108 58 -31 92 -42 123 -43 53
0 93 -18 196 -88 43 -30 94 -59 112 -64 19 -5 67 -39 108 -76 41 -37 103 -87
136 -112 34 -25 87 -65 117 -89 31 -24 70 -47 87 -52 18 -5 50 -24 72 -42 50
-44 84 -61 181 -92 89 -29 116 -41 158 -71 33 -24 142 -64 176 -64 11 0 50
-13 86 -30 35 -16 69 -30 75 -30 5 0 39 -13 75 -30 35 -16 75 -30 89 -30 14 0
41 -7 61 -15 24 -10 71 -15 150 -15 78 0 125 -5 150 -15 19 -8 53 -15 75 -15
21 0 55 -7 75 -15 19 -8 60 -15 90 -15 29 0 70 -7 90 -15 24 -10 71 -15 149
-15 81 0 125 -5 154 -16 l41 -16 42 11 c31 9 50 9 70 2 40 -16 109 -14 150 4
27 11 77 15 197 15 96 0 169 4 181 11 11 6 41 14 67 19 57 11 122 27 182 46
25 8 62 14 82 14 26 0 83 23 191 75 84 41 160 75 169 75 8 0 33 13 55 29 21
15 55 34 75 41 l37 14 56 -57 c30 -31 60 -57 65 -57 5 0 29 -26 54 -59 31 -40
54 -60 74 -64 16 -3 52 -27 82 -54 29 -26 77 -61 106 -78 114 -65 190 -114
213 -139 16 -17 35 -26 55 -26 18 0 51 -13 76 -30 25 -16 51 -30 58 -30 20 0
82 -30 126 -62 21 -15 52 -28 68 -28 16 0 45 -7 65 -15 19 -8 51 -15 71 -15
45 0 145 -33 245 -82 60 -29 90 -38 130 -38 29 0 72 -6 97 -14 60 -19 125 -35
182 -46 26 -5 56 -13 67 -19 11 -6 38 -11 60 -11 22 0 52 -5 68 -12 24 -10
212 -28 308 -29 17 0 49 -5 72 -11 l42 -10 41 16 c54 21 216 22 267 1 25 -11
72 -15 162 -15 81 0 142 -5 171 -14 76 -24 132 -37 195 -46 33 -5 92 -20 130
-34 55 -20 89 -26 157 -26 48 0 90 -5 93 -10 8 -14 912 -14 920 0 3 6 52 10
111 10 l104 0 53 26 c28 14 79 30 112 34 63 9 119 22 195 46 25 8 70 14 100
14 l55 0 56 38 c31 21 74 53 95 70 22 18 56 37 76 43 21 5 46 21 55 35 10 14
44 58 76 99 l57 73 0 130 0 131 -22 36 c-13 19 -32 50 -43 68 -15 24 -35 37
-75 49 -59 20 -75 18 -114 -13 -34 -27 -33 -60 2 -101 73 -85 77 -112 33 -236
-29 -83 -76 -153 -130 -191 -31 -22 -316 -121 -348 -121 -11 0 -37 -7 -56 -15
-20 -8 -56 -15 -79 -15 -31 0 -56 -8 -88 -30 l-45 -30 -533 0 -533 0 -36 15
c-19 8 -65 15 -102 15 -36 0 -86 6 -111 14 -86 27 -135 38 -210 46 -41 5 -101
18 -134 29 -32 11 -69 18 -82 15 -12 -3 -27 -3 -32 0 -6 3 17 60 49 127 67
136 71 164 38 261 -32 95 -45 115 -102 151 -28 19 -58 42 -66 51 -8 10 -36 28
-62 42 -26 13 -60 40 -75 59 -32 42 -59 57 -146 84 -126 38 -154 44 -228 48
l-76 4 -109 -36 c-130 -43 -153 -62 -206 -167 l-39 -78 0 -97 0 -97 134 -131
c73 -71 149 -142 167 -157 l34 -28 -15 -10 c-21 -14 -55 -12 -97 5 -19 8 -60
15 -90 15 -29 0 -70 7 -90 15 -19 8 -53 15 -75 15 -21 0 -55 7 -75 15 -19 8
-45 15 -57 15 -12 0 -60 13 -106 30 -47 16 -100 30 -119 30 -45 0 -145 34
-245 83 l-79 38 -38 -6 c-30 -5 -47 -2 -73 14 -18 12 -46 21 -61 21 -30 0
-140 51 -225 106 -30 19 -72 39 -94 45 -49 13 -70 25 -126 70 -25 20 -61 44
-80 54 -71 36 -168 106 -194 140 -15 19 -35 35 -44 35 -9 0 -59 44 -112 99
l-95 99 -22 70 c-13 38 -23 82 -23 96 0 17 -15 43 -42 72 -61 66 -68 68 -132
39 -30 -14 -61 -25 -69 -25 -22 0 -40 -27 -34 -52 3 -13 13 -43 23 -68 l17
-45 -27 -57 c-21 -44 -40 -67 -83 -98 -31 -22 -63 -40 -72 -40 -8 0 -34 -20
-57 -45 l-41 -45 -61 0 c-46 0 -76 -7 -125 -30 -38 -17 -82 -30 -105 -30 -22
0 -56 -7 -75 -15 -26 -11 -73 -15 -165 -15 -93 0 -140 -4 -165 -15 -48 -20
-156 -19 -208 2 l-41 16 -48 -17 -48 -17 -37 15 c-26 11 -70 16 -149 16 -68 0
-128 5 -156 14 -94 30 -138 38 -225 45 -49 4 -97 11 -105 16 -8 6 -46 13 -85
17 -38 3 -104 11 -145 16 -78 9 -256 64 -348 107 -29 14 -65 25 -80 25 -42 0
-116 42 -120 67 -2 13 10 35 29 58 38 43 68 123 69 182 0 26 -11 65 -30 105
-16 34 -30 69 -30 76 0 27 -41 91 -72 113 -18 13 -63 52 -100 86 -37 35 -76
63 -86 63 -10 0 -38 15 -62 33 -117 87 -166 117 -195 117 -17 0 -50 14 -75 30
-25 16 -52 30 -60 30 -8 0 -44 14 -78 30 l-64 30 -106 0 -107 0 -50 -28 c-66
-36 -104 -103 -105 -182 0 -30 -4 -61 -9 -69 l-9 -14 -32 12 c-18 6 -44 11
-57 11 -35 0 -84 25 -183 92 l-85 58 -45 0 -46 0 -82 55 c-108 72 -155 95
-191 95 -19 0 -45 13 -73 35 -43 35 -188 115 -208 115 -12 0 -111 56 -201 114
-30 20 -61 36 -68 36 -25 0 -97 40 -145 79 -26 23 -55 41 -63 41 -8 0 -44 14
-80 30 -35 17 -70 30 -78 30 -7 0 -25 16 -40 35 -25 33 -165 115 -197 115 -14
0 -66 27 -149 78 -30 17 -70 36 -89 42 -19 5 -81 32 -137 59 -113 56 -209 91
-247 91 -14 0 -28 5 -31 10 -3 6 -46 10 -98 9 l-92 -1 -22 -24z m344 -216 c15
-7 51 -26 78 -43 62 -38 92 -52 128 -59 15 -4 27 -11 27 -16 0 -16 -24 -11
-74 15 -35 19 -62 25 -106 25 l-60 0 -24 38 c-33 51 -24 64 31 40z m2758 -876
c40 -5 74 -17 100 -35 22 -15 46 -27 54 -27 8 0 35 -13 60 -29 25 -16 57 -31
71 -34 14 -4 47 -24 74 -47 26 -22 56 -40 65 -40 10 0 30 -13 45 -29 15 -16
40 -31 55 -34 40 -8 79 -53 117 -132 36 -74 45 -155 23 -197 l-11 -20 -41 6
c-23 4 -63 20 -88 37 -25 16 -59 29 -75 29 -31 0 -56 14 -112 62 -18 15 -40
28 -50 28 -9 0 -37 14 -62 30 -25 16 -52 30 -60 30 -8 0 -50 23 -92 50 -135
89 -237 223 -224 298 7 48 34 75 66 67 14 -3 52 -9 85 -13z m6160 -1102 c114
-39 180 -78 280 -164 169 -145 210 -235 145 -324 -17 -23 -49 -55 -72 -72
l-41 -30 -54 0 -54 0 -67 40 c-36 22 -82 45 -102 50 -57 15 -151 65 -202 107
-26 21 -58 46 -72 56 -14 9 -30 34 -36 55 -6 20 -17 46 -25 56 -20 26 -19 42
6 93 29 60 157 152 214 153 12 0 48 -9 80 -20z"/>
</g>
</svg>
