<?xml version="1.0" standalone="no"?>
<!DOCTYPE svg PUBLIC "-//W3C//DTD SVG 20010904//EN"
 "http://www.w3.org/TR/2001/REC-SVG-20010904/DTD/svg10.dtd">
<svg version="1.0" xmlns="http://www.w3.org/2000/svg"
 width="864.000000pt" height="213.000000pt" viewBox="0 0 864.000000 213.000000"
 preserveAspectRatio="xMidYMid meet">
<metadata>
Created by potrace 1.16, written by Peter Selinger 2001-2019
</metadata>
<g transform="translate(0.000000,213.000000) scale(0.100000,-0.100000)"
fill="#000000" stroke="none">
<path d="M4355 2120 c-4 -6 -53 -10 -114 -10 l-107 0 -75 -59 c-92 -74 -109
-106 -109 -207 0 -86 20 -136 77 -196 20 -20 52 -60 72 -90 27 -38 48 -56 73
-65 50 -16 270 -162 266 -175 -12 -36 -189 -62 -254 -38 l-26 10 -44 -25 -43
-25 -140 0 c-77 0 -152 5 -167 10 l-26 10 -44 -25 -43 -25 -324 0 -325 0 -35
-15 c-20 -8 -61 -15 -90 -15 l-54 0 -39 29 c-21 16 -61 52 -89 81 -55 57 -91
78 -183 109 l-61 21 -133 0 -132 0 -67 -45 c-91 -61 -119 -96 -119 -148 l0
-41 73 -73 73 -73 78 0 c45 0 91 -6 113 -15 20 -9 66 -15 109 -15 l73 0 11
-20 c16 -29 -1 -54 -68 -97 -71 -46 -92 -57 -167 -83 l-59 -20 -153 0 c-114 0
-163 4 -190 15 -22 9 -67 15 -120 15 -52 0 -97 6 -120 15 -19 8 -53 15 -75 15
-21 0 -55 7 -75 15 -19 8 -53 15 -75 15 -21 0 -55 7 -75 15 -26 11 -76 15
-195 15 -118 0 -168 4 -195 15 -19 8 -45 15 -57 15 -12 0 -60 13 -106 30 -47
16 -94 30 -105 30 -12 0 -59 13 -105 30 -47 16 -103 30 -125 30 -27 0 -54 9
-85 30 l-45 30 -73 0 c-83 0 -176 -27 -228 -67 l-34 -25 0 -53 c0 -40 5 -56
21 -71 12 -10 27 -31 35 -46 13 -26 183 -147 265 -189 23 -11 60 -34 82 -50
22 -16 47 -29 57 -29 25 0 40 -21 40 -58 l0 -35 87 -89 c83 -84 236 -198 332
-248 22 -11 60 -20 83 -20 27 0 67 -11 106 -30 35 -17 75 -30 88 -30 28 0 105
-32 146 -61 l26 -19 131 0 131 0 0 36 0 37 -44 43 -43 44 -78 0 -77 0 -65 30
c-39 18 -81 30 -106 30 -29 0 -54 8 -80 25 -20 14 -74 44 -119 67 -65 32 -101
59 -167 125 l-83 84 6 27 c4 15 9 48 13 74 l5 47 -30 31 -30 30 -77 0 c-45 0
-90 6 -112 15 -19 8 -47 15 -61 15 -36 0 -85 33 -133 91 -32 38 -39 53 -30 62
9 9 23 7 60 -6 27 -9 77 -17 112 -17 l62 0 179 -60 c98 -33 194 -60 213 -60
20 0 52 -7 72 -15 25 -11 72 -15 165 -15 92 0 139 -4 165 -15 19 -8 53 -15 75
-15 21 0 55 -7 75 -15 20 -8 66 -15 105 -15 38 0 84 -7 105 -15 24 -10 71 -15
150 -15 78 0 125 -5 150 -15 19 -8 48 -15 63 -15 15 0 44 7 63 15 23 9 68 15
121 15 l85 0 82 40 c45 22 99 45 120 50 39 11 69 42 149 151 25 34 57 75 72
90 l26 29 75 0 c44 0 89 6 110 15 29 12 85 15 274 15 l239 0 24 17 24 17 199
-3 198 -3 27 18 27 18 182 -3 183 -3 35 22 c27 17 44 20 73 15 27 -4 51 0 86
16 35 15 59 19 87 15 27 -4 58 0 101 15 47 15 76 19 113 15 64 -8 140 -25 185
-41 86 -30 107 -37 135 -45 38 -10 91 -29 132 -46 17 -7 67 -16 110 -19 95 -7
177 -22 220 -41 24 -10 40 -11 62 -3 l30 11 43 -25 c27 -16 52 -24 68 -21 14
3 47 -4 73 -15 28 -12 58 -18 75 -15 16 3 46 -3 76 -16 l49 -21 32 11 c24 8
40 7 61 -2 16 -7 99 -16 184 -20 183 -9 163 -9 322 -2 l127 6 44 -26 45 -26
26 10 c37 14 745 14 782 0 l26 -10 44 25 43 25 129 0 130 0 58 26 c37 16 68
24 85 20 42 -8 129 56 272 202 l127 131 0 140 c0 82 -4 142 -10 146 -5 3 -10
15 -10 26 0 11 -13 34 -29 50 l-29 29 -55 0 c-98 0 -132 -52 -82 -126 l25 -37
0 -71 c-1 -137 -76 -231 -253 -316 l-104 -50 -89 0 c-69 0 -95 -4 -114 -17
l-25 -18 -168 4 -168 3 -25 -17 -26 -17 -267 0 -266 0 -43 17 -44 18 -97 -6
c-69 -3 -104 -1 -121 8 l-25 13 -27 -14 c-39 -20 -128 -18 -158 3 l-25 18
-135 2 c-97 1 -146 6 -178 19 -31 12 -58 14 -94 10 l-49 -7 -35 21 c-27 17
-43 20 -74 15 -30 -5 -47 -2 -65 9 -13 9 -42 16 -63 16 -21 0 -47 7 -58 15
-10 8 -37 15 -59 15 -23 0 -53 9 -70 20 -22 15 -47 20 -97 20 -75 0 -147 14
-193 37 -39 20 -115 43 -141 43 -12 0 -27 7 -34 15 l-13 15 34 63 c18 34 45
80 61 101 l28 39 0 109 0 109 -21 41 c-38 75 -101 158 -129 173 -16 8 -55 39
-87 69 -64 59 -86 69 -153 72 -67 4 -129 15 -136 25 -7 12 -71 11 -79 -1 -3
-5 -26 -10 -50 -10 -24 0 -47 5 -50 10 -3 6 -28 10 -55 10 -27 0 -52 -4 -55
-10z m288 -159 c17 -14 104 -41 134 -41 13 0 55 -31 104 -76 l83 -76 18 -51
c23 -65 22 -111 -1 -164 -24 -52 -92 -120 -128 -129 -16 -4 -43 -15 -61 -26
-54 -33 -143 -6 -236 71 -34 29 -57 41 -80 41 -22 0 -64 22 -146 76 -134 88
-143 96 -181 148 l-29 39 0 58 0 58 30 21 c16 12 52 25 78 29 27 4 58 14 69
22 26 18 324 19 346 0z m-2162 -730 l23 -19 -13 -16 c-19 -22 -69 -20 -127 5
-27 12 -51 24 -54 26 -12 11 31 23 86 23 46 0 68 -5 85 -19z"/>
</g>
</svg>
