<?xml version="1.0" standalone="no"?>
<!DOCTYPE svg PUBLIC "-//W3C//DTD SVG 20010904//EN"
 "http://www.w3.org/TR/2001/REC-SVG-20010904/DTD/svg10.dtd">
<svg version="1.0" xmlns="http://www.w3.org/2000/svg"
 width="582.000000pt" height="159.000000pt" viewBox="0 0 582.000000 159.000000"
 preserveAspectRatio="xMidYMid meet">
<metadata>
Created by potrace 1.16, written by Peter Selinger 2001-2019
</metadata>
<g transform="translate(0.000000,159.000000) scale(0.100000,-0.100000)"
fill="#000000" stroke="none">
<path d="M1565 1580 c-3 -5 -21 -10 -39 -10 -31 0 -69 -24 -194 -126 -37 -31
-82 -111 -82 -148 0 -14 -5 -37 -10 -51 -14 -36 9 -110 52 -173 17 -26 73 -89
122 -139 69 -71 97 -93 117 -93 15 0 32 -7 40 -16 l13 -16 -15 -9 c-8 -5 -43
-9 -79 -10 -36 -1 -114 -3 -175 -5 -60 -2 -139 -6 -175 -9 -129 -12 -702 -16
-733 -5 l-30 10 -43 -25 c-53 -31 -78 -31 -129 0 -59 36 -93 33 -154 -17 l-51
-42 0 -39 0 -39 57 -75 c32 -41 86 -105 119 -142 34 -37 73 -86 88 -109 14
-23 38 -48 54 -56 43 -22 82 -66 112 -127 32 -62 85 -109 124 -109 20 0 30 8
43 35 l17 35 -17 48 c-9 26 -17 57 -17 70 0 42 -47 119 -92 149 -32 21 -47 40
-56 71 -9 28 -30 57 -63 86 -27 24 -49 48 -49 53 0 6 9 18 20 28 l21 19 397 1
c293 0 404 3 425 13 19 8 88 12 215 12 l186 0 44 17 43 16 53 -13 c41 -10 61
-10 89 -1 l35 12 37 -16 c26 -10 72 -15 154 -15 l116 -1 40 -24 c22 -14 51
-25 65 -25 14 0 45 -9 69 -20 24 -11 54 -20 68 -20 13 0 44 -11 68 -26 l44
-25 108 -6 c84 -4 116 -10 142 -26 19 -11 52 -21 75 -23 124 -7 228 -32 298
-73 l35 -21 30 11 c24 8 39 7 68 -5 25 -11 69 -16 137 -16 65 0 111 -5 135
-15 22 -9 67 -15 117 -15 44 0 101 -6 126 -14 25 -8 65 -19 90 -24 l45 -11 42
25 c33 19 56 24 108 24 36 0 80 -6 98 -14 24 -10 104 -13 318 -15 l286 -1 36
15 c25 10 71 15 150 15 79 0 126 5 150 15 24 10 70 15 139 15 l103 0 56 38
c77 50 155 94 204 112 l40 16 77 114 c43 63 78 123 78 132 0 9 5 20 10 23 17
10 11 89 -9 131 -11 23 -35 51 -54 64 -19 13 -44 39 -57 59 -43 65 -82 101
-111 101 -38 0 -69 -42 -69 -92 l0 -40 33 -29 c17 -16 44 -40 60 -53 l27 -25
0 -56 c0 -30 -7 -72 -15 -91 -18 -44 -132 -158 -201 -202 l-51 -32 -55 0 c-31
0 -72 -7 -91 -15 -20 -8 -54 -15 -75 -15 -22 0 -56 -7 -75 -15 -29 -12 -85
-15 -273 -15 l-237 0 -35 -22 -35 -21 -34 18 -34 19 -45 -12 -45 -12 -35 15
-36 15 -265 0 -264 0 -36 15 c-19 8 -60 15 -90 15 -29 0 -70 7 -90 15 -24 10
-70 15 -147 15 -68 0 -128 5 -156 14 -86 27 -181 49 -280 65 -62 10 -108 25
-162 52 -26 13 -58 19 -110 19 -57 0 -85 6 -126 25 -30 14 -71 25 -91 25 -28
0 -44 7 -64 28 -15 15 -27 32 -27 36 0 5 14 24 30 43 17 18 30 41 30 51 0 9
14 37 30 62 22 32 30 57 30 88 0 23 7 59 15 79 8 19 15 49 15 65 0 31 -29 95
-65 143 -12 17 -34 53 -48 80 -30 58 -78 108 -162 164 l-60 41 -62 0 c-34 0
-65 5 -68 10 -4 6 -93 10 -235 10 -142 0 -231 -4 -235 -10z m412 -165 c19 -8
46 -15 60 -15 51 0 133 -50 168 -103 23 -35 65 -169 65 -207 0 -52 -38 -120
-88 -155 -24 -16 -51 -44 -62 -61 l-18 -32 -89 2 c-48 1 -98 8 -110 14 -12 7
-31 12 -42 12 -11 0 -49 15 -83 34 -35 18 -75 36 -89 40 -14 3 -53 29 -87 58
-33 29 -72 61 -86 71 -32 22 -76 106 -76 143 0 41 43 105 94 142 62 44 125 61
217 58 41 -1 84 1 95 5 32 13 93 10 131 -6z"/>
</g>
</svg>
