<?xml version="1.0" standalone="no"?>
<!DOCTYPE svg PUBLIC "-//W3C//DTD SVG 20010904//EN"
 "http://www.w3.org/TR/2001/REC-SVG-20010904/DTD/svg10.dtd">
<svg version="1.0" xmlns="http://www.w3.org/2000/svg"
 width="501.000000pt" height="210.000000pt" viewBox="0 0 501.000000 210.000000"
 preserveAspectRatio="xMidYMid meet">
<metadata>
Created by potrace 1.16, written by Peter Selinger 2001-2019
</metadata>
<g transform="translate(0.000000,210.000000) scale(0.100000,-0.100000)"
fill="#000000" stroke="none">
<path d="M150 2091 c-8 -5 -36 -18 -62 -29 -37 -17 -52 -31 -68 -64 -21 -45
-28 -152 -10 -163 6 -3 10 -16 10 -28 0 -26 201 -227 228 -227 11 0 38 -15 62
-32 96 -73 164 -117 203 -133 23 -9 58 -25 77 -36 183 -101 367 -184 516 -234
216 -71 225 -81 185 -195 l-19 -55 -53 -37 c-29 -21 -58 -38 -66 -38 -17 0
-92 -37 -115 -58 -23 -20 -23 -54 1 -101 23 -44 84 -101 109 -101 49 0 296
-194 323 -255 27 -59 25 -120 -6 -150 l-24 -25 -94 0 -94 0 -16 -18 c-23 -26
-21 -45 9 -81 l26 -31 137 0 138 0 12 22 c7 13 31 37 54 54 l42 32 18 59 18
60 -21 63 c-30 89 -45 115 -80 140 -17 12 -42 40 -56 61 -16 27 -43 48 -84 69
-62 31 -130 91 -130 114 0 8 11 23 25 33 48 35 135 155 135 186 0 33 24 90 46
108 11 9 24 8 57 -5 23 -9 66 -16 95 -16 29 0 69 -7 89 -15 19 -8 52 -15 72
-15 20 0 75 -13 121 -30 47 -16 96 -30 110 -30 14 0 45 -14 70 -30 l45 -30
118 0 c82 0 129 -5 154 -15 20 -8 66 -15 105 -15 38 0 84 -7 105 -15 20 -8 66
-15 105 -15 38 0 84 -7 105 -15 25 -11 72 -15 165 -15 92 0 139 -4 165 -15 19
-8 53 -15 75 -15 21 0 55 -7 75 -15 28 -12 81 -15 243 -15 162 0 215 3 243 15
25 10 72 15 150 15 79 0 126 5 150 15 20 8 52 15 72 15 20 0 95 20 168 45 73
25 141 45 150 45 27 0 140 40 158 56 8 8 20 14 26 14 6 0 32 17 59 39 27 21
59 43 70 49 33 17 101 123 124 191 11 33 20 85 20 115 0 30 5 58 10 61 13 8
13 125 0 125 -5 0 -25 14 -43 30 -24 21 -45 30 -69 30 -50 0 -68 -24 -68 -94
0 -31 -7 -73 -15 -93 -8 -19 -15 -54 -15 -78 0 -31 -8 -53 -30 -84 -41 -56
-147 -161 -163 -161 -7 0 -29 -11 -49 -25 -47 -32 -232 -95 -279 -95 -20 0
-53 -7 -72 -15 -24 -10 -70 -15 -135 -15 -66 0 -112 -5 -135 -15 l-36 -15
-291 0 -291 0 -36 15 c-28 12 -82 15 -255 15 -172 0 -226 3 -255 15 -19 8 -60
15 -90 15 -29 0 -70 7 -90 15 -19 8 -53 15 -75 15 -21 0 -55 7 -75 15 -19 8
-59 15 -87 15 -28 0 -71 6 -96 14 -78 25 -133 37 -195 45 -34 5 -70 13 -82 19
-12 7 -39 12 -59 12 -21 0 -98 20 -171 45 -73 25 -142 45 -153 45 -29 0 -102
34 -122 57 -8 10 -25 36 -36 58 -11 22 -32 51 -46 64 -14 14 -26 31 -26 38 0
22 -40 95 -72 131 -16 19 -39 50 -52 70 -13 21 -43 50 -67 65 -24 16 -57 46
-72 68 -16 22 -46 48 -67 59 -21 10 -73 43 -116 73 -44 29 -99 65 -124 79 -25
14 -54 36 -65 48 -42 47 -222 120 -294 120 -22 0 -43 5 -46 10 -7 12 -213 13
-235 1z m315 -171 c94 -33 203 -88 243 -124 20 -18 53 -41 72 -51 45 -23 104
-68 156 -120 22 -22 52 -48 67 -58 15 -10 39 -41 53 -70 15 -29 43 -70 64 -93
53 -58 71 -89 64 -108 -8 -21 -7 -21 -98 9 -42 14 -87 25 -99 25 -12 0 -42 14
-67 30 -25 16 -52 30 -60 30 -8 0 -28 9 -45 21 -16 11 -52 32 -80 46 -27 14
-71 43 -97 64 -25 21 -96 64 -158 95 -76 39 -119 67 -137 91 -15 19 -48 45
-74 59 -81 40 -103 101 -54 149 l24 25 83 0 c58 0 102 -6 143 -20z"/>
</g>
</svg>
