<?xml version="1.0" standalone="no"?>
<!DOCTYPE svg PUBLIC "-//W3C//DTD SVG 20010904//EN"
 "http://www.w3.org/TR/2001/REC-SVG-20010904/DTD/svg10.dtd">
<svg version="1.0" xmlns="http://www.w3.org/2000/svg"
 width="552.000000pt" height="165.000000pt" viewBox="0 0 552.000000 165.000000"
 preserveAspectRatio="xMidYMid meet">
<metadata>
Created by potrace 1.16, written by Peter Selinger 2001-2019
</metadata>
<g transform="translate(0.000000,165.000000) scale(0.100000,-0.100000)"
fill="#000000" stroke="none">
<path d="M54 1522 c9 -179 32 -248 111 -333 23 -25 54 -64 69 -87 14 -23 39
-48 55 -57 16 -8 64 -45 105 -82 118 -106 180 -151 279 -201 60 -30 108 -63
139 -94 34 -35 54 -48 75 -48 40 0 228 -66 271 -95 29 -19 49 -25 94 -25 32 0
75 -7 97 -16 l38 -15 209 5 c115 3 220 6 234 7 50 3 127 -19 185 -55 33 -20
71 -39 85 -43 14 -3 46 -18 71 -34 25 -16 58 -29 73 -29 15 0 43 -7 63 -15 19
-8 47 -15 60 -15 14 0 54 -14 90 -30 35 -17 74 -30 87 -30 12 0 60 -13 106
-30 47 -16 102 -30 123 -30 21 0 54 -7 74 -15 19 -8 65 -15 102 -15 68 0 169
-28 250 -69 22 -12 59 -21 81 -21 22 0 57 -7 77 -15 24 -10 70 -15 139 -15 58
0 106 -4 109 -10 8 -14 942 -14 950 0 3 6 46 10 94 10 56 0 102 6 124 15 20 8
54 15 75 15 22 0 56 7 75 15 20 8 55 15 77 15 30 0 75 17 173 66 l132 65 98
99 c59 59 97 106 97 119 0 11 4 23 10 26 6 4 10 68 10 160 l0 154 -68 71 -69
72 -29 -4 c-32 -3 -74 -56 -74 -94 0 -13 11 -40 25 -60 l25 -37 0 -115 0 -115
-33 -36 c-18 -20 -39 -45 -47 -57 -19 -27 -141 -110 -205 -140 -69 -32 -165
-64 -191 -64 -12 0 -38 -7 -57 -15 l-36 -15 -546 0 -546 0 -36 15 c-27 11 -78
15 -212 15 l-177 0 -29 30 c-19 20 -39 30 -57 30 -16 0 -45 7 -65 15 -19 8
-53 15 -75 15 -21 0 -55 7 -75 15 -19 8 -53 15 -75 15 -21 0 -55 7 -75 15 -19
8 -53 15 -75 15 -21 0 -55 7 -75 15 -19 8 -46 15 -60 15 -13 0 -49 11 -79 25
-72 33 -168 65 -195 65 -33 0 -151 58 -186 93 -38 35 -41 50 -14 69 24 17 61
91 61 123 0 14 7 42 15 62 8 19 15 62 15 95 0 65 -24 119 -85 196 -19 24 -35
52 -35 61 0 25 -163 187 -213 212 -23 12 -63 38 -88 60 -25 21 -74 47 -107 58
l-61 21 -144 0 c-106 0 -154 -4 -180 -15 -20 -8 -49 -15 -65 -15 -17 0 -37 -9
-48 -21 -10 -12 -43 -37 -71 -56 -73 -46 -93 -89 -93 -192 l0 -81 50 -55 c27
-30 61 -72 74 -94 14 -21 39 -49 57 -62 18 -13 52 -44 76 -69 25 -25 64 -56
88 -70 129 -75 185 -114 182 -124 -6 -18 -140 -19 -183 -1 -20 8 -46 15 -58
15 -25 0 -120 32 -184 61 -23 11 -77 31 -118 44 -73 24 -148 69 -188 114 -11
12 -25 21 -33 21 -30 0 -104 42 -155 89 -30 27 -81 63 -115 80 -122 62 -313
286 -299 352 3 17 -3 39 -19 65 -14 21 -25 52 -25 67 0 15 -7 41 -15 57 l-16
30 -41 0 -41 0 7 -128z m1521 -173 c96 -32 123 -48 151 -84 14 -19 49 -47 78
-63 28 -15 59 -40 69 -57 101 -164 125 -227 108 -277 -6 -17 -11 -42 -11 -56
0 -16 -15 -41 -42 -69 l-43 -43 -40 0 c-27 0 -53 9 -78 26 -21 14 -84 48 -140
76 -56 28 -122 67 -147 88 -25 20 -59 44 -77 53 -17 9 -72 58 -122 108 -96 96
-109 123 -98 195 14 85 84 122 237 123 72 1 110 -4 155 -20z"/>
<path d="M355 637 l-40 -22 -48 -93 -48 -93 -110 -115 -109 -115 0 -45 0 -44
45 0 c28 0 64 9 93 24 54 27 142 116 142 143 0 10 23 37 50 61 28 24 60 62 71
85 12 23 37 65 56 93 42 62 41 90 -6 121 -42 28 -46 28 -96 0z"/>
</g>
</svg>
