<?xml version="1.0" standalone="no"?>
<!DOCTYPE svg PUBLIC "-//W3C//DTD SVG 20010904//EN"
 "http://www.w3.org/TR/2001/REC-SVG-20010904/DTD/svg10.dtd">
<svg version="1.0" xmlns="http://www.w3.org/2000/svg"
 width="834.000000pt" height="291.000000pt" viewBox="0 0 834.000000 291.000000"
 preserveAspectRatio="xMidYMid meet">
<metadata>
Created by potrace 1.16, written by Peter Selinger 2001-2019
</metadata>
<g transform="translate(0.000000,291.000000) scale(0.100000,-0.100000)"
fill="#000000" stroke="none">
<path d="M7 2903 c-10 -10 -8 -181 2 -201 5 -9 17 -36 27 -60 9 -23 32 -57 50
-76 18 -18 46 -60 63 -93 21 -42 45 -71 78 -96 26 -19 64 -52 83 -72 19 -21
52 -48 73 -62 21 -13 48 -40 59 -59 11 -19 44 -50 73 -69 29 -20 72 -53 96
-74 24 -21 60 -46 79 -56 19 -9 58 -41 86 -70 54 -56 136 -109 195 -125 19 -5
53 -25 75 -43 42 -36 114 -77 137 -77 7 0 96 -41 196 -90 100 -50 195 -90 209
-90 15 0 44 -11 63 -24 38 -26 145 -66 177 -66 10 0 56 -13 102 -30 47 -16
103 -30 125 -30 26 0 53 -9 77 -25 33 -23 88 -42 208 -75 25 -7 92 -15 150
-19 58 -4 115 -12 127 -19 33 -18 310 -16 356 3 20 8 55 15 77 15 82 0 249
111 291 192 41 79 8 128 -86 128 -58 0 -69 -8 -104 -77 -24 -49 -55 -73 -92
-73 -15 0 -43 -7 -62 -15 -28 -11 -78 -15 -207 -15 -129 0 -179 4 -207 15 -24
10 -70 15 -147 15 -122 0 -195 18 -265 66 -19 13 -48 24 -64 24 -15 0 -44 7
-64 15 -19 8 -45 15 -57 15 -32 0 -221 66 -306 106 -41 20 -111 48 -155 62
-44 14 -141 56 -215 92 -75 37 -150 71 -167 74 -17 4 -51 24 -75 45 -24 21
-72 53 -107 71 -74 37 -167 105 -182 131 -5 10 -35 35 -67 56 -31 21 -77 59
-102 84 -25 26 -59 54 -77 63 -33 17 -213 192 -213 207 0 5 -17 28 -38 52 -62
67 -111 145 -117 185 -3 20 -12 57 -20 82 -8 25 -15 55 -15 68 l0 22 -58 0
c-32 0 -62 -3 -65 -7z"/>
<path d="M2497 2182 c-35 -39 -19 -70 58 -111 22 -12 65 -38 95 -57 30 -19 71
-39 91 -44 20 -6 73 -28 118 -50 45 -22 87 -40 94 -40 7 0 32 -14 57 -30 25
-16 58 -30 74 -30 32 0 202 -78 250 -115 17 -13 69 -36 115 -51 46 -15 119
-44 163 -65 43 -22 83 -39 89 -39 6 0 36 -12 67 -26 31 -14 92 -37 136 -51 43
-14 110 -41 149 -60 39 -19 107 -46 150 -60 44 -14 110 -41 148 -59 77 -38
269 -104 300 -104 26 0 84 -26 124 -56 46 -34 291 -109 400 -123 34 -5 70 -13
82 -19 12 -7 39 -12 60 -12 21 0 58 -6 83 -14 87 -28 136 -38 210 -45 41 -4
85 -13 97 -19 13 -7 64 -12 125 -12 l103 0 45 -30 45 -30 118 0 c82 0 129 -5
154 -15 27 -12 79 -15 225 -15 145 0 197 -3 225 -15 46 -20 170 -20 216 0 20
8 66 15 102 15 36 0 82 -7 102 -15 46 -19 140 -19 186 0 20 8 61 15 90 15 30
0 71 7 90 15 20 8 55 15 77 15 23 0 50 5 61 11 11 6 41 14 67 19 97 18 249 63
295 87 18 9 52 33 77 53 25 20 65 48 90 61 l45 24 35 67 c20 38 41 73 48 80
15 15 17 224 2 233 -6 4 -21 28 -35 55 -32 63 -57 80 -121 80 -78 0 -99 -31
-69 -103 10 -25 15 -72 15 -150 l0 -114 -29 -40 c-51 -70 -149 -133 -208 -133
-15 0 -48 -14 -73 -30 -31 -21 -58 -30 -85 -30 -22 0 -78 -14 -125 -30 l-84
-30 -633 0 -634 0 -36 15 c-19 8 -61 15 -92 15 -41 0 -72 8 -119 30 l-64 30
-69 0 c-39 0 -85 7 -106 15 -19 8 -60 15 -90 15 -29 0 -70 7 -90 15 -19 8 -65
15 -102 15 -49 0 -90 8 -151 30 -47 16 -94 30 -105 30 -12 0 -59 13 -105 30
-47 16 -104 30 -126 30 -25 0 -47 6 -54 15 l-13 16 25 27 c33 35 62 94 78 159
l13 52 -25 58 c-14 32 -28 70 -32 84 -7 32 -304 323 -358 350 -20 10 -50 19
-66 19 -18 0 -38 10 -53 26 -13 14 -54 41 -91 60 l-68 34 -134 0 -134 0 -64
-30 c-34 -16 -69 -30 -76 -30 -20 0 -167 -76 -182 -95 -22 -27 -40 -143 -27
-180 3 -11 3 -26 -2 -33 l-8 -13 -56 16 c-30 9 -78 27 -106 40 -28 14 -63 25
-77 25 -30 0 -86 24 -129 56 -68 49 -245 124 -296 124 -28 0 -137 51 -190 89
-23 17 -48 31 -56 31 -8 0 -39 11 -69 25 -79 36 -169 65 -202 65 -16 0 -36 -8
-45 -18z m1917 -277 c39 -20 96 -51 126 -71 30 -19 67 -38 81 -42 30 -8 155
-141 164 -175 4 -12 20 -53 37 -90 l30 -69 -11 -24 c-17 -38 -51 -49 -96 -30
-20 9 -60 16 -88 16 -32 0 -99 16 -186 44 -147 48 -201 63 -272 76 -54 10 -77
21 -139 70 -25 20 -61 46 -82 60 -46 31 -68 68 -68 117 0 48 30 115 61 137
l23 16 174 0 174 0 72 -35z"/>
<path d="M3887 522 c-22 -24 -21 -54 2 -101 25 -48 27 -49 151 -113 58 -29
119 -63 137 -75 17 -13 77 -46 134 -74 57 -28 118 -62 136 -75 42 -32 76 -31
102 2 42 53 21 98 -67 145 -31 16 -82 46 -112 65 -30 19 -66 37 -80 41 -14 3
-38 18 -55 33 -16 16 -73 49 -125 75 -52 26 -109 58 -127 71 -38 29 -74 31
-96 6z"/>
<path d="M3442 494 c-57 -39 10 -131 145 -198 39 -20 111 -63 160 -96 48 -33
95 -60 104 -60 8 0 27 -13 42 -28 15 -16 49 -39 75 -52 26 -13 59 -31 74 -42
20 -14 45 -18 113 -18 l86 0 -3 52 -3 52 -34 23 c-19 13 -46 26 -60 29 -48 11
-156 67 -201 104 -25 20 -65 47 -90 61 -25 13 -58 34 -75 46 -43 31 -210 112
-264 129 -25 8 -46 14 -46 14 0 0 -11 -7 -23 -16z"/>
</g>
</svg>
