<?xml version="1.0" standalone="no"?>
<!DOCTYPE svg PUBLIC "-//W3C//DTD SVG 20010904//EN"
 "http://www.w3.org/TR/2001/REC-SVG-20010904/DTD/svg10.dtd">
<svg version="1.0" xmlns="http://www.w3.org/2000/svg"
 width="918.000000pt" height="198.000000pt" viewBox="0 0 918.000000 198.000000"
 preserveAspectRatio="xMidYMid meet">
<metadata>
Created by potrace 1.16, written by Peter Selinger 2001-2019
</metadata>
<g transform="translate(0.000000,198.000000) scale(0.100000,-0.100000)"
fill="#000000" stroke="none">
<path d="M2892 1946 c-46 -53 -47 -67 -8 -144 l35 -70 59 -40 c32 -22 79 -50
103 -62 24 -12 63 -38 87 -58 63 -50 131 -96 190 -127 59 -31 75 -47 70 -72
-3 -18 -10 -22 -117 -69 -94 -42 -111 -58 -111 -104 l0 -39 56 -63 c31 -35 65
-81 75 -103 35 -76 18 -153 -41 -189 l-28 -16 -145 0 c-106 0 -154 -4 -180
-15 -47 -19 -157 -19 -204 0 -27 12 -79 15 -225 15 -145 0 -197 3 -225 15 -24
10 -71 15 -150 15 -78 0 -125 5 -150 15 -20 8 -66 15 -105 15 -38 0 -84 7
-105 15 -20 8 -66 15 -105 15 -38 0 -84 7 -105 15 -23 10 -69 15 -135 15 -65
0 -111 5 -135 15 -22 9 -67 15 -120 15 -52 0 -97 6 -120 15 l-35 15 -283 0
-283 0 -35 -15 c-21 -9 -67 -15 -107 -15 l-70 0 -93 -46 c-50 -25 -104 -58
-119 -72 l-28 -26 0 -103 0 -103 30 0 c65 0 130 48 130 96 0 41 39 72 107 83
27 5 73 20 103 35 l55 26 290 0 290 0 75 -26 c58 -20 103 -27 200 -31 69 -3
140 -12 159 -19 23 -10 79 -14 178 -14 105 0 153 -4 180 -15 23 -10 69 -15
135 -15 65 0 111 -5 135 -15 19 -8 60 -15 90 -15 39 0 71 -8 111 -27 l57 -28
185 -8 c102 -4 205 -7 230 -6 82 1 145 1 175 0 75 -3 313 16 338 27 16 7 40
12 55 12 33 0 146 75 200 134 l42 46 0 45 c0 55 -32 154 -66 204 -13 19 -24
44 -24 54 0 27 19 57 36 57 21 0 98 40 107 56 12 20 40 17 60 -6 9 -11 24 -20
33 -20 31 0 149 -62 203 -106 29 -24 61 -44 70 -44 24 0 191 -83 241 -119 24
-17 49 -31 57 -31 8 0 42 -13 76 -28 34 -16 73 -32 87 -35 14 -3 44 -22 66
-41 40 -34 127 -68 207 -81 28 -5 54 -22 110 -75 54 -52 79 -70 100 -70 34 0
144 -49 190 -84 18 -14 70 -37 116 -52 46 -15 114 -42 152 -60 89 -43 270
-104 311 -104 17 0 112 -27 210 -60 98 -33 192 -60 210 -60 18 0 73 -13 123
-29 149 -48 175 -53 300 -60 66 -4 130 -12 142 -19 12 -6 54 -12 93 -12 40 0
86 -6 107 -15 25 -10 71 -15 154 -15 68 0 120 -4 124 -10 9 -14 1301 -14 1310
0 3 6 18 10 33 10 15 1 52 9 82 20 30 11 75 20 100 20 58 0 114 18 221 69 47
23 93 41 102 41 8 0 30 19 48 42 18 24 52 64 76 90 24 26 43 56 43 67 0 11 5
23 10 26 13 8 13 252 0 260 -5 3 -10 15 -10 25 0 44 -122 140 -178 140 -30 0
-72 -38 -72 -65 0 -13 18 -61 40 -106 67 -139 53 -229 -48 -316 -153 -131
-179 -143 -310 -143 -66 0 -112 -5 -135 -15 -21 -8 -67 -15 -105 -15 -39 0
-85 -7 -105 -15 -26 -11 -73 -15 -165 -15 -93 0 -140 -4 -165 -15 -27 -11 -76
-15 -193 -15 l-156 0 -65 30 -64 30 -205 0 c-159 0 -213 3 -241 15 -26 11 -75
15 -192 15 -107 0 -170 4 -201 14 -76 24 -132 37 -195 46 -33 4 -78 17 -100
28 -85 43 -162 62 -246 62 l-82 0 -66 29 c-36 16 -85 37 -108 46 -49 21 -54
39 -18 67 31 24 68 95 85 163 l12 50 -16 54 c-9 30 -28 70 -43 90 -45 59 -147
157 -183 176 -18 9 -51 30 -73 46 -22 16 -47 29 -56 29 -9 0 -29 9 -46 21 -57
39 -185 99 -210 99 -14 0 -42 7 -62 15 -27 11 -76 15 -199 15 l-164 0 -70 -35
c-37 -19 -72 -40 -77 -47 -17 -27 -42 -115 -43 -146 0 -47 -16 -72 -46 -72
-32 0 -139 49 -195 89 -23 17 -49 31 -58 31 -24 0 -191 83 -241 119 -24 17
-49 31 -57 31 -38 0 -182 81 -297 167 -43 33 -76 109 -76 175 0 57 -42 133
-92 164 -23 15 -62 45 -87 68 -25 23 -67 55 -93 69 -26 15 -53 36 -60 46 -8
11 -36 29 -63 41 -28 13 -58 27 -67 31 -10 5 -78 9 -152 9 l-134 0 -30 -34z
m365 -185 c30 -19 51 -56 39 -68 -17 -17 -116 51 -116 79 0 15 45 8 77 -11z
m168 -142 c11 -17 -1 -21 -15 -4 -8 9 -8 15 -2 15 6 0 14 -5 17 -11z m1675
-533 c60 -19 125 -36 177 -45 42 -8 55 -15 103 -57 14 -12 58 -39 98 -60 l73
-37 49 -67 c27 -36 58 -74 69 -84 12 -11 21 -32 21 -47 l0 -28 -57 -40 -56
-41 -67 0 c-48 0 -89 8 -150 30 -47 16 -96 30 -109 30 -28 0 -141 55 -235 114
-127 80 -206 221 -166 297 8 14 21 19 54 19 24 0 59 7 77 15 43 18 63 18 119
1z"/>
</g>
</svg>
