<?xml version="1.0" standalone="no"?>
<!DOCTYPE svg PUBLIC "-//W3C//DTD SVG 20010904//EN"
 "http://www.w3.org/TR/2001/REC-SVG-20010904/DTD/svg10.dtd">
<svg version="1.0" xmlns="http://www.w3.org/2000/svg"
 width="732.000000pt" height="219.000000pt" viewBox="0 0 732.000000 219.000000"
 preserveAspectRatio="xMidYMid meet">
<metadata>
Created by potrace 1.16, written by Peter Selinger 2001-2019
</metadata>
<g transform="translate(0.000000,219.000000) scale(0.100000,-0.100000)"
fill="#000000" stroke="none">
<path d="M0 2140 l0 -50 28 0 c22 0 39 -13 75 -55 33 -37 59 -58 85 -65 45
-12 59 -23 97 -73 19 -26 54 -51 106 -77 48 -25 105 -65 153 -110 42 -38 83
-70 92 -70 9 0 39 -20 67 -45 28 -24 78 -59 111 -76 34 -18 81 -48 105 -68 72
-57 155 -111 172 -111 9 0 29 -16 43 -35 15 -19 49 -46 75 -59 88 -45 192
-121 371 -270 30 -25 75 -56 100 -67 66 -31 62 -29 145 -98 43 -35 92 -67 110
-72 18 -5 59 -33 92 -62 32 -28 78 -60 103 -71 58 -23 57 -23 123 -76 31 -25
90 -63 132 -84 45 -23 87 -53 103 -73 24 -33 106 -83 135 -83 7 0 26 -13 42
-30 16 -16 35 -30 43 -30 23 0 83 -32 165 -88 91 -62 162 -87 202 -72 14 5 52
10 84 10 l57 0 46 48 c55 57 78 128 60 181 -8 23 -8 39 -1 52 16 31 106 26
186 -11 l64 -30 70 0 c39 0 85 -7 106 -15 20 -8 66 -15 105 -15 38 0 84 -7
105 -15 19 -8 54 -15 77 -15 34 0 48 -6 71 -30 19 -20 39 -30 57 -30 16 0 45
-7 65 -15 20 -8 66 -15 105 -15 38 0 84 -7 105 -15 26 -11 76 -15 195 -15 118
0 168 -4 195 -15 19 -8 60 -15 90 -15 29 0 70 -7 90 -15 24 -10 71 -15 150
-15 l115 0 35 -30 34 -30 194 0 c118 0 196 -4 200 -10 8 -14 702 -14 710 0 4
6 78 10 188 10 l182 0 155 79 155 78 38 56 c23 35 45 57 56 57 33 0 81 76 81
129 0 16 5 33 10 36 6 3 10 33 10 65 0 62 -1 65 -86 193 -47 72 -71 80 -124
45 l-35 -24 -3 -53 -3 -53 30 -47 c17 -26 31 -59 31 -73 0 -14 -17 -58 -37
-99 l-38 -74 -65 -44 c-36 -24 -93 -57 -127 -72 l-61 -29 -145 0 c-106 0 -154
-4 -180 -15 l-36 -15 -396 0 -396 0 -36 15 c-26 11 -76 15 -195 15 -118 0
-168 4 -195 15 -19 8 -59 15 -89 15 -29 0 -64 4 -79 10 -14 5 -90 13 -168 16
-82 4 -156 12 -176 20 -18 8 -58 14 -88 14 -29 0 -70 7 -90 15 -19 8 -53 15
-75 15 -21 0 -55 7 -75 15 -23 10 -69 15 -137 15 l-102 0 -29 30 c-19 20 -39
30 -57 30 -16 0 -45 7 -65 15 -19 8 -52 15 -72 15 -20 0 -56 6 -81 14 -94 30
-138 38 -225 45 -49 4 -100 12 -112 19 -12 7 -32 12 -45 12 -28 0 -123 32
-196 66 -29 13 -71 24 -93 24 -22 0 -56 7 -76 15 -19 8 -47 15 -61 15 -14 0
-41 15 -63 35 -60 54 -107 58 -162 14 l-27 -20 0 -68 c0 -52 4 -72 18 -83 23
-21 196 -108 215 -108 45 0 108 -101 87 -140 -23 -42 -129 -19 -185 40 -16 17
-35 30 -43 30 -25 0 -86 32 -132 70 -48 40 -120 80 -143 80 -8 0 -33 15 -57
33 -23 17 -68 48 -100 67 -168 101 -197 120 -215 140 -21 23 -86 60 -105 60
-7 0 -35 20 -63 45 -28 25 -81 61 -117 80 -36 19 -91 56 -124 82 -68 56 -125
93 -145 93 -7 0 -30 15 -50 33 -99 87 -261 207 -361 266 -36 22 -74 49 -85 61
-11 12 -50 37 -86 55 -65 33 -176 105 -234 152 -34 27 -150 116 -198 151 -17
12 -42 25 -56 29 -14 3 -48 26 -76 50 -27 23 -79 59 -115 78 -79 42 -88 49
-125 98 -28 38 -89 77 -120 77 -9 0 -27 11 -41 25 -20 20 -35 25 -74 25 l-50
0 0 -50z"/>
</g>
</svg>
