<?xml version="1.0" standalone="no"?>
<!DOCTYPE svg PUBLIC "-//W3C//DTD SVG 20010904//EN"
 "http://www.w3.org/TR/2001/REC-SVG-20010904/DTD/svg10.dtd">
<svg version="1.0" xmlns="http://www.w3.org/2000/svg"
 width="768.000000pt" height="78.000000pt" viewBox="0 0 768.000000 78.000000"
 preserveAspectRatio="xMidYMid meet">
<metadata>
Created by potrace 1.16, written by Peter Selinger 2001-2019
</metadata>
<g transform="translate(0.000000,78.000000) scale(0.100000,-0.100000)"
fill="#000000" stroke="none">
<path d="M3647 752 l-27 -28 0 -50 c0 -27 4 -54 8 -60 9 -15 87 -54 106 -54
14 0 66 -65 66 -82 0 -4 -9 -10 -20 -13 -33 -10 -140 48 -183 100 -21 25 -44
45 -52 45 -7 0 -24 14 -37 31 -13 17 -35 44 -50 60 l-27 30 -58 -3 -57 -3 -24
-35 c-18 -27 -22 -43 -18 -70 13 -79 18 -140 12 -163 -9 -36 -54 -76 -121
-108 -89 -42 -265 -99 -306 -99 -20 0 -53 -7 -72 -15 -24 -10 -70 -15 -135
-15 -66 0 -112 -5 -135 -15 -47 -19 -157 -19 -204 0 l-35 15 -280 0 -279 0
-36 15 c-23 10 -69 15 -135 15 -65 0 -111 5 -135 15 -20 8 -66 15 -105 15 -38
0 -84 7 -105 15 -19 8 -60 15 -90 15 -29 0 -70 7 -90 15 -19 8 -52 15 -72 15
-20 0 -75 13 -121 30 -50 17 -105 30 -135 30 -27 0 -70 6 -95 14 -78 25 -133
37 -195 45 -34 5 -70 13 -82 19 -12 7 -34 12 -50 12 -15 0 -57 14 -91 30 -49
23 -78 30 -123 30 l-59 0 0 -40 0 -40 32 -14 c187 -78 356 -135 401 -136 21 0
54 -7 74 -15 19 -8 61 -15 92 -15 41 0 72 -8 119 -30 40 -19 80 -30 106 -30
l42 0 29 -30 29 -30 73 0 c43 0 89 -6 110 -15 26 -11 74 -15 180 -15 105 0
153 -4 180 -15 22 -9 67 -15 120 -15 52 0 97 -6 120 -15 l35 -15 265 0 264 0
36 -15 c49 -21 227 -21 276 0 23 9 69 15 122 15 48 0 96 5 108 12 12 6 56 15
97 19 208 20 442 122 559 243 39 40 54 40 106 0 36 -27 198 -79 286 -91 47 -6
125 33 165 82 87 109 98 113 201 65 35 -16 70 -30 76 -30 7 0 41 -14 75 -30
35 -17 74 -30 85 -30 12 0 42 -6 67 -14 56 -18 123 -35 175 -45 51 -10 153
-44 191 -64 52 -27 152 -57 189 -57 20 0 52 -7 72 -15 19 -8 53 -15 75 -15 21
0 55 -7 75 -15 19 -8 53 -15 75 -15 21 0 55 -7 75 -15 19 -8 53 -15 75 -15 21
0 55 -7 75 -15 24 -10 70 -15 139 -15 58 0 106 -4 109 -10 9 -14 1181 -14
1190 0 3 6 18 10 33 10 15 0 59 12 97 26 39 14 88 30 110 36 22 5 63 20 90 33
28 12 71 32 98 44 35 16 55 33 78 71 17 28 39 56 48 63 26 17 61 91 61 126 0
16 5 33 10 36 6 3 10 35 10 70 0 35 -4 67 -10 70 -6 3 -10 23 -10 43 l0 36
-56 53 -56 53 -59 0 -59 0 0 -44 c0 -28 11 -67 30 -108 37 -77 38 -125 5 -196
-28 -60 -108 -141 -170 -173 -22 -11 -60 -31 -85 -44 -25 -14 -57 -25 -71 -25
-15 0 -43 -7 -62 -15 -20 -8 -61 -15 -90 -15 -30 0 -71 -7 -90 -15 -23 -9 -68
-15 -120 -15 -53 0 -98 -6 -120 -15 -29 -12 -85 -15 -270 -15 l-233 0 -29 30
-29 30 -133 0 c-96 0 -144 4 -170 15 -26 11 -74 15 -180 15 -105 0 -153 4
-180 15 -19 8 -52 15 -72 15 -20 0 -56 6 -81 14 -76 24 -133 37 -190 45 -56 8
-245 68 -297 94 -38 20 -239 87 -261 87 -28 0 -222 68 -302 106 -41 20 -108
47 -150 60 -101 33 -126 46 -184 94 -26 22 -56 40 -66 40 -11 0 -22 5 -25 10
-3 6 -34 10 -69 10 l-62 0 -27 -28z"/>
</g>
</svg>
