<?xml version="1.0" standalone="no"?>
<!DOCTYPE svg PUBLIC "-//W3C//DTD SVG 20010904//EN"
 "http://www.w3.org/TR/2001/REC-SVG-20010904/DTD/svg10.dtd">
<svg version="1.0" xmlns="http://www.w3.org/2000/svg"
 width="549.000000pt" height="159.000000pt" viewBox="0 0 549.000000 159.000000"
 preserveAspectRatio="xMidYMid meet">
<metadata>
Created by potrace 1.16, written by Peter Selinger 2001-2019
</metadata>
<g transform="translate(0.000000,159.000000) scale(0.100000,-0.100000)"
fill="#000000" stroke="none">
<path d="M665 1582 c-6 -5 -41 -19 -80 -30 l-70 -22 -82 -88 -83 -87 0 -78 0
-77 36 -73 c62 -123 117 -195 178 -234 22 -14 60 -44 85 -67 25 -23 66 -54 91
-68 25 -14 54 -36 65 -48 11 -12 95 -60 187 -106 170 -85 206 -113 193 -152
-16 -53 -108 -108 -256 -156 -41 -14 -101 -36 -132 -50 -30 -14 -73 -26 -95
-26 -22 0 -56 -7 -75 -15 -26 -11 -73 -15 -164 -15 l-128 0 -63 30 -64 30
-104 0 -104 0 0 -40 0 -39 30 -16 c16 -8 48 -15 72 -15 27 0 67 -11 106 -30
47 -22 79 -30 118 -30 30 0 71 -7 91 -15 46 -20 170 -20 216 0 20 8 59 15 87
15 34 0 95 15 183 45 73 25 145 45 160 45 18 0 46 18 88 55 34 30 78 59 98 65
40 11 91 41 146 84 l37 30 46 -18 c26 -10 70 -27 98 -36 28 -10 69 -27 92 -39
23 -12 54 -21 69 -21 15 0 48 -14 73 -30 25 -16 56 -30 70 -30 14 0 45 -6 70
-14 60 -19 125 -35 182 -46 26 -5 56 -13 67 -19 11 -6 58 -11 106 -11 53 0 99
-6 122 -15 19 -8 53 -15 75 -15 21 0 55 -7 75 -15 19 -8 59 -15 87 -15 32 0
84 -11 136 -30 l85 -30 87 0 c48 0 90 -4 93 -10 9 -14 1481 -14 1490 0 3 6 19
10 34 10 16 0 45 7 64 15 20 8 55 15 77 15 22 0 59 10 82 21 23 12 102 41 176
66 149 49 171 59 252 114 110 75 230 225 230 286 0 17 5 35 10 38 6 3 10 21
10 40 0 19 -4 37 -10 40 -5 3 -10 26 -10 51 0 56 -36 130 -85 172 -40 36 -74
41 -98 14 l-17 -19 0 -180 0 -180 -21 -19 c-11 -10 -42 -48 -69 -84 l-48 -65
-71 -22 c-38 -12 -93 -38 -121 -57 -28 -19 -68 -38 -88 -41 -20 -3 -57 -12
-82 -20 -25 -8 -68 -15 -96 -15 -28 0 -68 -7 -87 -15 -21 -8 -67 -15 -105 -15
-41 0 -85 -7 -108 -16 l-38 -16 -528 1 -529 1 -36 15 c-26 11 -76 15 -195 15
-118 0 -168 4 -195 15 -19 8 -60 15 -90 15 -29 0 -70 7 -90 15 -19 8 -60 15
-90 15 -29 0 -70 7 -90 15 -19 8 -59 15 -87 15 -32 0 -84 11 -136 30 -47 16
-102 30 -123 30 -21 0 -54 7 -74 15 -20 8 -66 15 -105 15 -56 0 -82 6 -132 29
-34 16 -76 32 -93 35 -18 4 -52 25 -76 47 -32 28 -54 39 -76 39 -39 0 -81 39
-81 75 0 14 7 42 15 62 10 24 15 71 15 150 0 126 -22 217 -64 263 -40 44 -56
74 -56 105 0 40 -18 65 -73 99 -24 16 -57 48 -73 73 -15 24 -51 60 -80 79 -28
19 -72 52 -97 74 -30 27 -55 40 -74 40 -15 0 -48 14 -73 30 -34 23 -57 30 -92
30 -26 0 -50 5 -53 10 -7 12 -127 13 -140 2z m203 -183 c37 -17 85 -45 107
-63 60 -50 175 -165 214 -215 34 -43 91 -185 91 -227 0 -12 7 -38 15 -57 8
-20 15 -61 15 -92 l0 -56 -25 -24 c-18 -18 -35 -25 -65 -25 -53 0 -88 15 -185
82 -45 31 -104 67 -132 81 -27 14 -74 48 -104 74 -30 27 -71 60 -91 73 -20 14
-49 44 -65 68 -15 25 -42 55 -59 69 -46 35 -64 79 -64 160 l0 69 47 39 c83 70
92 75 166 75 l69 0 66 -31z"/>
</g>
</svg>
