<?xml version="1.0" standalone="no"?>
<!DOCTYPE svg PUBLIC "-//W3C//DTD SVG 20010904//EN"
 "http://www.w3.org/TR/2001/REC-SVG-20010904/DTD/svg10.dtd">
<svg version="1.0" xmlns="http://www.w3.org/2000/svg"
 width="585.000000pt" height="300.000000pt" viewBox="0 0 585.000000 300.000000"
 preserveAspectRatio="xMidYMid meet">
<metadata>
Created by potrace 1.16, written by Peter Selinger 2001-2019
</metadata>
<g transform="translate(0.000000,300.000000) scale(0.100000,-0.100000)"
fill="#000000" stroke="none">
<path d="M5570 2958 c0 -24 14 -81 30 -128 l30 -84 -32 -96 c-36 -108 -43
-120 -70 -120 -10 0 -40 -19 -66 -43 -71 -64 -80 -70 -125 -78 -52 -9 -117
-26 -177 -45 -25 -8 -61 -14 -81 -14 -20 0 -53 -7 -72 -15 -23 -9 -68 -15
-120 -15 -53 0 -98 -6 -120 -15 l-36 -15 -441 0 -441 0 -36 15 c-45 19 -81 19
-126 0 -24 -10 -70 -15 -132 -15 -62 0 -108 5 -132 15 -22 9 -67 15 -120 15
-52 0 -97 6 -120 15 -22 9 -67 15 -120 15 -52 0 -97 6 -120 15 -22 9 -67 15
-120 15 -52 0 -97 6 -120 15 -24 10 -70 15 -147 15 -68 0 -128 5 -156 14 -56
18 -123 35 -175 45 -78 15 -311 100 -366 133 -69 42 -378 143 -511 168 -26 5
-56 13 -67 19 -11 6 -31 11 -45 11 -14 0 -44 7 -67 17 l-41 16 -47 -16 c-57
-21 -101 -21 -148 -2 -28 12 -81 15 -243 15 -162 0 -215 -3 -243 -15 -20 -8
-54 -15 -76 -15 -23 0 -67 -13 -104 -30 -36 -16 -70 -30 -77 -30 -6 0 -37 -23
-69 -50 -39 -34 -65 -67 -80 -103 -13 -28 -27 -60 -32 -69 -5 -10 -9 -70 -9
-133 l0 -116 20 -27 c11 -15 24 -51 29 -79 4 -30 19 -66 33 -85 14 -18 35 -53
48 -78 12 -24 47 -80 77 -123 29 -44 63 -98 75 -121 11 -22 49 -71 84 -108 35
-38 73 -87 85 -110 12 -24 42 -64 68 -90 58 -58 117 -127 156 -183 61 -86 101
-138 147 -190 25 -29 63 -79 83 -111 21 -32 59 -79 86 -105 27 -26 49 -56 49
-67 0 -13 23 -39 64 -70 35 -28 76 -69 92 -92 33 -46 118 -152 229 -285 42
-49 97 -119 124 -155 27 -36 70 -80 95 -98 25 -18 53 -46 63 -62 l17 -30 58 0
58 0 0 50 0 50 -49 54 c-28 30 -58 68 -67 83 -10 15 -43 55 -74 88 -31 33 -65
74 -76 90 -10 17 -46 63 -79 103 -33 40 -74 95 -91 123 -18 27 -49 68 -71 92
-21 23 -70 89 -108 147 -37 58 -91 128 -119 156 -28 28 -70 78 -93 110 -24 33
-72 95 -108 139 -36 44 -77 100 -93 124 -15 24 -50 68 -77 96 -28 29 -67 76
-88 106 -20 30 -61 83 -92 119 -30 36 -67 87 -82 113 -50 88 -68 112 -88 116
-32 5 -45 21 -45 55 0 18 -13 50 -30 76 -16 25 -30 50 -30 57 0 6 -13 40 -30
75 l-30 63 0 98 c0 74 4 106 16 127 21 35 151 120 185 120 15 0 43 7 62 15 24
10 70 15 132 15 62 0 108 -5 132 -15 23 -10 69 -15 131 -15 52 0 112 -5 133
-12 30 -8 48 -8 77 0 l37 12 90 -29 c103 -33 160 -49 228 -61 53 -10 107 -43
107 -66 0 -28 32 -79 79 -125 25 -25 56 -60 69 -77 34 -47 286 -212 323 -212
18 0 80 -32 123 -62 21 -15 52 -28 68 -28 16 0 45 -7 65 -15 19 -8 51 -15 71
-15 l35 0 43 44 44 43 0 65 c0 37 -7 82 -16 103 -8 20 -13 40 -9 43 11 12 220
0 254 -14 24 -10 78 -14 193 -14 118 0 168 -4 195 -15 22 -9 67 -15 119 -15
45 0 95 -5 111 -12 28 -11 162 -29 218 -29 17 0 49 -5 72 -11 l42 -10 41 16
40 16 216 0 c159 0 223 -4 247 -14 23 -9 77 -13 172 -13 95 0 149 4 172 13 22
10 77 14 176 14 106 0 154 4 180 15 23 9 68 15 120 15 53 0 98 6 120 15 20 8
66 15 102 15 135 0 321 89 458 220 65 61 85 95 116 191 12 35 26 72 31 81 12
22 13 63 1 86 -5 9 -28 61 -52 114 l-44 97 -87 1 -88 0 0 -42z"/>
</g>
</svg>
