<?xml version="1.0" standalone="no"?>
<!DOCTYPE svg PUBLIC "-//W3C//DTD SVG 20010904//EN"
 "http://www.w3.org/TR/2001/REC-SVG-20010904/DTD/svg10.dtd">
<svg version="1.0" xmlns="http://www.w3.org/2000/svg"
 width="480.000000pt" height="111.000000pt" viewBox="0 0 480.000000 111.000000"
 preserveAspectRatio="xMidYMid meet">
<metadata>
Created by potrace 1.16, written by Peter Selinger 2001-2019
</metadata>
<g transform="translate(0.000000,111.000000) scale(0.100000,-0.100000)"
fill="#000000" stroke="none">
<path d="M70 1101 c0 -4 -16 -29 -35 -54 -28 -36 -35 -55 -35 -90 0 -26 6 -49
14 -56 8 -6 19 -25 26 -41 27 -64 297 -248 402 -274 14 -3 41 -24 58 -46 l32
-40 62 0 c79 0 98 -14 124 -93 l22 -63 -21 -60 c-11 -32 -26 -65 -31 -72 -21
-25 -173 -82 -219 -82 -27 0 -59 -27 -59 -50 0 -8 5 -29 12 -47 l12 -33 118 0
c65 0 126 4 136 9 9 5 40 19 69 31 82 36 106 69 151 204 21 66 46 122 55 127
11 6 29 4 53 -6 20 -8 54 -15 76 -15 21 0 55 -7 75 -15 19 -8 52 -15 71 -15
20 0 77 -13 127 -29 134 -43 172 -52 255 -60 41 -4 85 -13 97 -19 13 -7 67
-12 138 -12 80 0 127 -5 152 -15 20 -8 66 -15 105 -15 38 0 84 -7 105 -15 22
-9 67 -15 119 -15 45 0 95 -6 111 -12 18 -8 112 -15 268 -19 132 -4 254 -10
272 -14 25 -6 39 -2 63 15 l32 23 38 -12 c58 -17 349 -14 393 4 29 12 83 15
255 15 173 0 227 3 255 15 20 8 61 15 90 15 30 0 71 7 90 15 20 8 61 15 90 15
30 0 71 7 90 15 20 8 49 15 65 15 54 0 318 227 329 283 3 15 10 30 14 33 5 3
9 45 9 94 l0 89 -25 38 c-53 82 -54 83 -96 83 -48 0 -96 -39 -83 -68 11 -26
17 -137 10 -177 -5 -26 -27 -55 -85 -112 l-78 -78 -70 -23 c-39 -12 -87 -22
-106 -22 -19 0 -51 -7 -70 -15 -20 -8 -54 -15 -75 -15 -22 0 -56 -7 -75 -15
-21 -8 -67 -15 -105 -15 -39 0 -85 -7 -105 -15 l-36 -15 -369 0 -370 0 -35
-15 c-50 -21 -244 -21 -294 0 -26 11 -74 15 -180 15 -105 0 -153 4 -180 15
-22 9 -67 15 -120 15 -52 0 -97 6 -120 15 -19 8 -60 15 -90 15 -29 0 -70 7
-90 15 -20 8 -66 15 -105 15 -38 0 -84 7 -105 15 -22 9 -67 15 -117 15 -44 0
-101 6 -126 14 -58 18 -123 35 -180 46 -25 5 -69 20 -97 34 -29 14 -70 26 -90
26 -21 0 -58 7 -83 15 -25 8 -62 17 -82 20 -29 4 -53 22 -112 80 -42 41 -84
92 -95 112 -20 40 -57 78 -104 106 -15 10 -38 35 -52 57 -19 30 -44 49 -105
80 -44 22 -84 40 -90 40 -16 0 -101 40 -132 61 l-26 19 -91 0 c-50 0 -91 -4
-91 -9z"/>
</g>
</svg>
