<?xml version="1.0" standalone="no"?>
<!DOCTYPE svg PUBLIC "-//W3C//DTD SVG 20010904//EN"
 "http://www.w3.org/TR/2001/REC-SVG-20010904/DTD/svg10.dtd">
<svg version="1.0" xmlns="http://www.w3.org/2000/svg"
 width="672.000000pt" height="165.000000pt" viewBox="0 0 672.000000 165.000000"
 preserveAspectRatio="xMidYMid meet">
<metadata>
Created by potrace 1.16, written by Peter Selinger 2001-2019
</metadata>
<g transform="translate(0.000000,165.000000) scale(0.100000,-0.100000)"
fill="#000000" stroke="none">
<path d="M7 1643 c-4 -3 -7 -26 -7 -50 0 -60 27 -93 129 -161 46 -30 98 -68
116 -83 17 -15 67 -46 111 -69 43 -23 104 -57 134 -76 30 -19 67 -38 82 -41
15 -3 39 -20 52 -38 14 -18 50 -46 79 -63 62 -35 70 -49 55 -93 -23 -67 36
-212 104 -255 23 -15 62 -46 87 -69 26 -24 82 -62 126 -85 44 -23 104 -56 132
-74 53 -34 137 -63 247 -87 l59 -13 36 20 c43 23 110 139 111 192 0 40 -28 97
-83 167 -23 29 -50 65 -60 79 -9 14 -33 29 -51 35 -19 5 -70 33 -113 62 -79
54 -500 269 -526 269 -7 0 -24 12 -38 26 -24 26 -193 116 -239 127 -14 4 -44
22 -67 41 -22 20 -76 53 -119 75 -44 22 -105 62 -138 88 -32 26 -64 51 -70 54
-46 25 -61 29 -99 29 -24 0 -47 -3 -50 -7z m1120 -785 c26 -6 60 -25 81 -46
20 -19 58 -45 83 -59 50 -26 64 -40 92 -90 22 -41 22 -53 -4 -53 -37 0 -107
39 -137 77 -24 30 -43 42 -97 58 -74 22 -77 24 -93 79 -12 44 -8 60 15 52 9
-4 36 -11 60 -18z"/>
<path d="M1442 1428 c-28 -37 -42 -82 -42 -141 l0 -64 29 -40 c16 -23 41 -64
55 -91 19 -37 41 -61 80 -87 29 -19 73 -53 97 -74 24 -21 60 -46 79 -56 19 -9
55 -34 80 -55 47 -39 165 -102 210 -113 14 -4 44 -22 66 -41 32 -27 81 -48
238 -100 l197 -66 65 0 c74 0 117 -16 159 -60 l29 -30 90 0 89 0 124 -60 c88
-42 136 -60 164 -60 22 0 56 -7 76 -15 19 -8 45 -15 57 -15 12 0 60 -13 106
-30 47 -16 94 -30 105 -30 12 0 59 -13 105 -30 47 -16 102 -30 123 -30 21 0
54 -7 74 -15 23 -10 69 -15 135 -15 65 0 111 -5 135 -15 19 -8 53 -15 75 -15
21 0 55 -7 75 -15 23 -10 69 -15 135 -15 65 0 111 -5 135 -15 20 -9 66 -15
109 -15 40 0 76 -4 79 -10 4 -6 93 -10 235 -10 142 0 231 4 235 10 8 13 92 13
100 0 8 -13 282 -13 290 0 8 13 62 13 70 0 8 -13 102 -13 110 0 3 6 50 10 106
10 l100 0 132 45 c73 25 141 45 150 45 21 0 131 36 167 55 15 8 33 21 41 31 8
10 38 32 66 51 29 18 59 46 67 61 23 44 56 149 56 176 0 14 4 28 10 31 13 8
13 102 0 110 -6 3 -10 26 -10 51 0 111 -119 234 -225 234 -34 0 -85 -35 -85
-58 0 -4 18 -38 40 -75 22 -36 40 -76 40 -88 0 -12 8 -43 17 -69 l17 -48 -24
-74 -24 -73 -51 -51 c-53 -53 -125 -94 -167 -94 -13 0 -61 -14 -108 -30 -52
-19 -104 -30 -136 -30 -28 0 -69 -7 -90 -17 l-39 -16 -307 1 -307 1 -35 -14
c-50 -21 -273 -21 -323 0 -25 11 -72 15 -165 15 -92 0 -139 4 -165 15 -22 9
-67 15 -120 15 -52 0 -97 6 -120 15 -19 8 -60 15 -90 15 -29 0 -70 7 -90 15
-19 8 -60 15 -90 15 -29 0 -70 7 -90 15 -20 8 -66 15 -105 15 -38 0 -84 7
-105 15 -19 8 -53 15 -75 15 -22 0 -64 11 -93 25 -87 40 -262 95 -301 95 -20
0 -65 14 -101 30 -35 17 -69 30 -75 30 -6 0 -32 13 -57 29 -25 16 -58 31 -73
35 -15 3 -35 18 -44 31 l-17 25 17 43 c22 57 20 119 -4 167 -11 21 -64 83
-118 137 l-98 98 -46 12 c-78 21 -205 28 -224 12 -8 -7 -31 -43 -50 -81 -38
-76 -44 -132 -19 -191 8 -20 15 -38 15 -41 0 -12 -34 -36 -52 -36 -26 0 -140
53 -181 84 -18 14 -63 35 -102 47 -38 12 -83 34 -100 49 -48 43 -96 76 -155
106 -78 39 -110 63 -110 81 0 9 -16 33 -35 54 -19 21 -55 80 -81 131 -25 51
-53 101 -62 111 -18 20 -55 23 -70 5z m1246 -565 c30 -43 35 -69 16 -87 -27
-27 -93 4 -120 56 -20 39 -5 58 47 58 30 0 42 -6 57 -27z"/>
</g>
</svg>
