<?xml version="1.0" standalone="no"?>
<!DOCTYPE svg PUBLIC "-//W3C//DTD SVG 20010904//EN"
 "http://www.w3.org/TR/2001/REC-SVG-20010904/DTD/svg10.dtd">
<svg version="1.0" xmlns="http://www.w3.org/2000/svg"
 width="420.000000pt" height="318.000000pt" viewBox="0 0 420.000000 318.000000"
 preserveAspectRatio="xMidYMid meet">
<metadata>
Created by potrace 1.16, written by Peter Selinger 2001-2019
</metadata>
<g transform="translate(0.000000,318.000000) scale(0.100000,-0.100000)"
fill="#000000" stroke="none">
<path d="M65 3115 l-65 -65 1 -47 c1 -49 15 -80 72 -159 15 -22 38 -54 50 -73
15 -24 46 -46 102 -74 44 -22 100 -56 125 -77 47 -39 120 -80 142 -80 7 0 31
-12 52 -26 21 -14 86 -50 145 -80 95 -47 171 -103 171 -126 0 -4 13 -22 29
-40 38 -44 117 -161 143 -212 11 -22 43 -65 70 -95 27 -30 62 -80 79 -112 16
-32 43 -69 60 -81 28 -21 65 -75 140 -204 14 -24 37 -57 52 -72 15 -15 27 -34
27 -41 0 -21 31 -75 65 -111 18 -19 65 -82 104 -140 40 -58 85 -123 101 -144
17 -21 30 -45 30 -53 0 -20 36 -87 56 -104 29 -24 90 -112 124 -180 18 -35 50
-84 71 -108 21 -24 41 -59 45 -77 3 -19 20 -53 36 -75 37 -51 88 -157 88 -182
0 -10 -5 -27 -10 -38 l-11 -19 -82 0 c-45 0 -102 6 -127 14 -78 25 -133 37
-195 45 -34 5 -70 13 -82 19 -12 7 -47 12 -78 12 -30 0 -72 7 -92 15 -20 8
-66 15 -105 15 -38 0 -84 7 -105 15 -19 8 -60 15 -90 15 -29 0 -70 7 -90 15
-47 20 -66 19 -86 -3 -22 -24 -21 -54 2 -84 15 -18 59 -37 178 -75 223 -71
236 -74 353 -83 58 -4 119 -12 135 -18 37 -13 107 -31 160 -41 22 -4 56 -12
75 -18 88 -28 131 -36 205 -40 44 -2 84 -9 90 -14 5 -5 37 -9 70 -9 l62 0 42
39 43 40 -5 43 c-6 52 -18 99 -64 242 -25 79 -44 121 -69 150 -19 22 -37 52
-41 66 -11 46 -65 144 -104 189 -21 24 -41 59 -45 77 -3 19 -24 56 -46 82 -22
26 -58 83 -80 126 -42 84 -83 147 -141 218 -19 24 -52 77 -72 118 -21 41 -53
93 -72 115 -18 22 -36 51 -40 65 -12 51 -43 97 -118 174 -42 44 -83 93 -92
110 -9 17 -40 66 -70 110 -30 43 -63 97 -75 120 -11 22 -29 47 -39 54 -11 7
-26 27 -35 44 l-16 30 15 15 14 15 57 -26 c93 -42 172 -66 223 -66 26 0 68 -6
93 -14 105 -33 143 -39 285 -45 90 -4 159 -11 172 -19 12 -6 40 -12 63 -12 22
0 57 -7 77 -15 l35 -15 313 0 313 0 37 16 c41 17 141 32 300 44 96 7 138 15
235 46 25 8 63 14 86 14 29 0 52 8 80 28 42 30 105 62 123 62 21 0 146 68 166
90 11 12 40 34 65 48 66 37 79 51 90 93 7 24 24 48 48 68 21 16 46 49 56 73
10 24 22 51 27 60 5 10 9 71 9 136 l0 119 -38 41 -39 42 -55 0 c-99 0 -133
-52 -83 -126 35 -52 33 -103 -9 -189 -39 -80 -110 -167 -178 -219 -47 -36
-165 -96 -189 -96 -7 0 -25 -12 -41 -27 -33 -31 -118 -63 -169 -63 -20 0 -53
-7 -72 -15 -21 -8 -67 -15 -105 -15 -39 0 -85 -7 -105 -15 -20 -8 -54 -15 -75
-15 -22 0 -60 -9 -85 -20 l-46 -20 -70 6 c-53 5 -79 3 -110 -10 -53 -21 -188
-22 -238 -1 -25 11 -72 15 -162 15 -81 0 -142 5 -171 14 -98 31 -139 39 -240
45 -58 4 -115 12 -127 19 -12 7 -54 12 -93 12 -40 0 -86 6 -107 15 -19 8 -53
15 -75 15 -23 0 -67 13 -105 30 -35 17 -75 30 -89 30 -14 0 -41 7 -61 15 -19
8 -45 15 -57 15 -37 0 -125 36 -154 62 -15 14 -53 44 -84 68 -32 23 -58 49
-58 57 0 23 -30 76 -65 113 -18 19 -52 63 -75 98 -23 34 -52 67 -64 74 -11 6
-55 45 -96 87 -102 104 -207 191 -230 191 -10 0 -22 5 -25 10 -4 6 -53 10
-116 10 l-109 0 -65 -65z m271 -153 c71 -52 138 -139 128 -166 -8 -22 -21 -20
-58 7 -17 12 -49 31 -71 41 -79 39 -136 112 -108 139 16 16 72 5 109 -21z"/>
</g>
</svg>
