<?xml version="1.0" standalone="no"?>
<!DOCTYPE svg PUBLIC "-//W3C//DTD SVG 20010904//EN"
 "http://www.w3.org/TR/2001/REC-SVG-20010904/DTD/svg10.dtd">
<svg version="1.0" xmlns="http://www.w3.org/2000/svg"
 width="510.000000pt" height="264.000000pt" viewBox="0 0 510.000000 264.000000"
 preserveAspectRatio="xMidYMid meet">
<metadata>
Created by potrace 1.16, written by Peter Selinger 2001-2019
</metadata>
<g transform="translate(0.000000,264.000000) scale(0.100000,-0.100000)"
fill="#000000" stroke="none">
<path d="M4877 2612 l-27 -28 0 -57 c0 -32 -7 -74 -15 -94 -8 -19 -15 -55 -15
-78 l0 -43 -52 -39 c-28 -21 -62 -45 -74 -53 -12 -8 -41 -30 -64 -47 -24 -19
-55 -33 -70 -33 -15 0 -44 -7 -63 -15 -20 -8 -61 -15 -90 -15 -30 0 -71 -7
-90 -15 l-36 -15 -351 0 -351 0 -36 15 c-23 10 -69 15 -135 15 -65 0 -111 5
-135 15 -26 11 -74 15 -177 15 l-141 0 -75 26 c-55 18 -86 24 -115 19 -30 -4
-69 3 -165 33 -140 44 -195 59 -260 72 -25 5 -82 27 -128 49 -45 23 -87 41
-93 41 -6 0 -35 12 -66 26 -31 14 -86 35 -122 47 l-66 21 -55 57 -55 56 -58
13 -58 13 -34 -16 c-39 -18 -75 -69 -75 -105 0 -34 27 -80 82 -141 27 -30 62
-80 78 -112 18 -34 50 -75 80 -101 27 -24 50 -50 50 -59 0 -23 72 -120 109
-147 17 -12 42 -45 56 -71 14 -28 42 -62 64 -77 21 -16 49 -44 62 -64 13 -19
55 -69 94 -110 40 -41 80 -88 91 -105 35 -56 139 -179 212 -254 40 -41 85 -97
99 -125 14 -28 41 -68 59 -88 18 -20 42 -55 53 -77 11 -21 34 -50 50 -63 48
-37 111 -129 127 -185 l15 -53 55 -48 c29 -26 54 -53 54 -61 0 -8 39 -73 86
-144 47 -71 90 -144 95 -162 5 -18 19 -46 32 -63 12 -16 36 -49 52 -72 17 -23
43 -57 59 -76 l28 -34 42 0 43 0 12 40 12 39 -92 183 c-50 100 -107 201 -126
223 -18 22 -36 51 -40 65 -3 14 -21 50 -40 80 -61 96 -101 164 -129 215 -15
28 -49 74 -76 104 -27 30 -62 79 -78 110 -36 71 -84 132 -194 244 -47 48 -86
93 -86 101 0 20 -74 118 -109 144 -17 12 -42 45 -56 71 -14 28 -42 62 -64 77
-21 16 -62 65 -92 109 -29 44 -78 107 -109 140 -31 33 -68 79 -83 101 -14 23
-39 51 -55 63 -34 24 -65 82 -56 105 3 9 8 16 11 16 22 0 127 -38 193 -71 44
-21 92 -39 106 -39 13 0 41 -7 61 -15 19 -8 52 -15 72 -15 20 0 75 -13 121
-30 67 -23 102 -30 165 -30 44 0 100 -6 125 -14 94 -30 138 -38 225 -45 50 -4
100 -12 112 -19 13 -7 66 -12 136 -12 63 0 129 -5 147 -11 24 -9 45 -9 86 1
l53 13 43 -16 44 -17 266 0 266 0 35 15 c23 9 68 15 120 15 53 0 98 6 120 15
20 8 55 15 77 15 40 0 101 26 165 69 17 12 37 21 45 21 15 0 118 66 154 98 28
26 106 146 106 164 0 9 11 30 25 46 l25 30 0 68 0 69 -57 53 -56 52 -42 0
c-32 0 -47 -6 -68 -28z"/>
<path d="M28 834 l-28 -15 0 -39 c0 -27 4 -40 13 -40 8 0 27 -17 44 -37 21
-27 62 -54 139 -92 60 -30 123 -64 139 -77 17 -12 86 -41 155 -63 69 -23 144
-50 167 -61 83 -39 316 -108 403 -119 30 -4 91 -19 135 -33 112 -36 161 -48
230 -57 34 -5 70 -13 82 -19 12 -7 60 -12 108 -12 53 0 99 -6 122 -15 50 -21
286 -21 336 0 20 8 55 15 77 15 42 0 102 25 155 65 17 12 49 32 72 44 51 25
67 48 99 138 42 121 22 293 -42 351 -35 31 -120 31 -159 1 l-27 -22 7 -36 c3
-20 9 -84 12 -143 l5 -108 -22 -35 c-12 -20 -38 -47 -58 -60 l-37 -25 -319 0
-320 0 -91 29 c-120 39 -168 51 -240 61 -33 5 -91 20 -130 34 -38 14 -87 26
-108 26 -22 0 -68 13 -104 30 -35 17 -69 30 -75 30 -5 0 -39 14 -75 30 -35 17
-74 30 -85 30 -28 0 -145 39 -179 59 -14 9 -48 29 -74 45 -26 16 -65 35 -88
43 -22 8 -52 22 -66 32 -42 29 -109 61 -128 61 -10 -1 -30 -8 -45 -16z"/>
</g>
</svg>
