<?xml version="1.0" standalone="no"?>
<!DOCTYPE svg PUBLIC "-//W3C//DTD SVG 20010904//EN"
 "http://www.w3.org/TR/2001/REC-SVG-20010904/DTD/svg10.dtd">
<svg version="1.0" xmlns="http://www.w3.org/2000/svg"
 width="408.000000pt" height="519.000000pt" viewBox="0 0 408.000000 519.000000"
 preserveAspectRatio="xMidYMid meet">
<metadata>
Created by potrace 1.16, written by Peter Selinger 2001-2019
</metadata>
<g transform="translate(0.000000,519.000000) scale(0.100000,-0.100000)"
fill="#000000" stroke="none">
<path d="M3350 5153 l0 -37 57 -55 c40 -39 63 -71 75 -106 22 -60 23 -163 3
-212 -8 -19 -15 -48 -15 -63 0 -58 -79 -138 -240 -245 -140 -93 -165 -104
-231 -105 -31 0 -73 -7 -92 -15 -25 -10 -72 -15 -150 -15 -79 0 -126 -5 -150
-15 -49 -20 -215 -20 -264 0 -26 11 -76 15 -195 15 -118 0 -168 4 -195 15 -23
10 -69 15 -135 15 -65 0 -111 5 -135 15 -19 8 -53 15 -75 15 -21 0 -55 7 -75
15 -21 9 -67 15 -116 15 -62 0 -102 7 -172 29 -103 33 -160 49 -227 61 -26 5
-56 13 -67 19 -11 6 -30 11 -43 11 -28 0 -214 62 -286 95 -29 14 -64 25 -79
25 -15 0 -81 26 -147 58 -67 32 -133 62 -148 65 -14 4 -41 25 -58 47 l-32 40
-49 0 c-28 0 -63 -7 -79 -15 l-30 -16 0 -59 c0 -32 4 -62 10 -65 5 -3 10 -15
10 -26 0 -11 37 -57 85 -107 47 -48 98 -105 112 -127 15 -22 46 -60 68 -85 23
-25 50 -59 60 -75 11 -17 37 -50 60 -75 22 -25 62 -77 88 -116 26 -39 62 -83
82 -98 20 -16 38 -41 44 -61 11 -40 57 -109 124 -184 26 -29 57 -72 69 -95 11
-22 38 -61 59 -85 21 -24 41 -58 45 -76 3 -18 17 -44 31 -57 23 -21 67 -89
134 -205 15 -25 52 -71 83 -102 31 -32 56 -63 56 -70 0 -20 37 -85 60 -106 12
-10 41 -47 65 -81 24 -33 55 -68 68 -77 28 -18 101 -124 142 -207 15 -30 41
-70 57 -89 18 -21 27 -39 23 -50 -3 -9 -16 -45 -27 -81 l-21 -64 11 -43 c7
-24 12 -57 12 -73 0 -79 129 -388 184 -439 14 -14 26 -31 26 -38 0 -27 43 -99
91 -151 27 -29 53 -70 59 -90 6 -23 29 -56 60 -87 28 -28 76 -88 107 -135 64
-95 382 -421 493 -504 36 -27 79 -61 95 -76 17 -15 42 -30 57 -34 14 -3 50
-27 80 -54 29 -26 72 -61 96 -77 24 -16 62 -45 85 -65 23 -21 71 -52 107 -70
36 -17 85 -49 110 -70 52 -43 111 -74 157 -84 17 -4 51 -24 75 -45 24 -21 52
-43 63 -49 32 -16 142 -52 163 -52 20 0 118 -33 129 -43 12 -12 178 -7 206 6
l27 12 0 38 0 37 -57 0 -58 0 -93 45 c-52 25 -98 45 -104 45 -5 0 -38 13 -72
29 -34 16 -76 32 -93 35 -18 4 -51 24 -75 45 -24 21 -72 53 -108 71 -36 17
-85 49 -110 69 -25 20 -72 54 -105 76 -33 22 -80 55 -104 74 -70 56 -155 111
-169 111 -7 0 -40 26 -72 58 -32 31 -89 86 -127 121 -96 91 -232 247 -287 329
-25 38 -62 81 -81 96 -22 17 -38 40 -45 66 -6 24 -24 50 -44 67 -45 36 -95
103 -135 179 -17 33 -52 83 -76 111 -32 36 -45 60 -45 81 0 17 -13 47 -31 72
-17 23 -51 83 -75 133 l-44 91 0 112 c0 62 5 125 10 139 14 38 -6 102 -45 145
-39 42 -138 187 -167 244 -11 22 -36 59 -54 80 -19 22 -38 54 -43 71 -12 43
-84 146 -129 186 -77 67 -166 177 -202 249 -21 41 -48 84 -60 95 -12 11 -34
40 -48 65 -14 25 -64 101 -110 170 -46 69 -93 143 -104 165 -12 22 -33 54 -47
70 -15 17 -49 64 -76 105 -27 41 -67 95 -90 120 -23 25 -50 59 -60 75 -11 17
-41 54 -68 84 -26 30 -63 84 -81 121 l-33 67 48 -8 c26 -4 57 -12 68 -18 11
-6 38 -11 61 -11 25 0 67 -12 107 -30 35 -16 74 -30 86 -30 12 0 62 -13 112
-29 134 -43 172 -52 255 -60 41 -4 85 -13 97 -19 12 -7 60 -12 108 -12 53 0
99 -6 122 -15 19 -8 45 -15 57 -15 11 0 53 -11 91 -24 39 -13 108 -26 154 -30
46 -4 99 -13 118 -21 l35 -15 433 0 433 0 35 15 c20 8 54 15 76 15 23 0 66 12
103 30 34 16 68 30 75 30 6 0 41 14 76 30 36 17 71 30 77 30 29 0 139 70 190
120 30 31 67 64 83 73 31 20 107 163 107 202 0 14 7 42 15 62 10 22 15 68 15
124 l0 89 -40 80 c-31 62 -49 86 -81 105 -22 14 -42 32 -46 40 -4 12 -25 15
-94 15 l-89 0 0 -37z"/>
</g>
</svg>
