<?xml version="1.0" standalone="no"?>
<!DOCTYPE svg PUBLIC "-//W3C//DTD SVG 20010904//EN"
 "http://www.w3.org/TR/2001/REC-SVG-20010904/DTD/svg10.dtd">
<svg version="1.0" xmlns="http://www.w3.org/2000/svg"
 width="465.000000pt" height="231.000000pt" viewBox="0 0 465.000000 231.000000"
 preserveAspectRatio="xMidYMid meet">
<metadata>
Created by potrace 1.16, written by Peter Selinger 2001-2019
</metadata>
<g transform="translate(0.000000,231.000000) scale(0.100000,-0.100000)"
fill="#000000" stroke="none">
<path d="M23 2284 l-23 -25 0 -59 0 -59 50 -42 c27 -23 59 -57 69 -75 12 -20
40 -43 69 -58 57 -29 173 -106 220 -147 18 -16 40 -29 48 -29 21 0 82 -29 119
-56 17 -12 66 -40 110 -62 92 -47 149 -92 190 -154 16 -23 61 -77 101 -118 39
-41 83 -94 97 -116 14 -23 40 -52 56 -64 17 -12 31 -29 31 -38 0 -9 9 -32 20
-50 25 -41 26 -67 3 -57 -10 4 -34 9 -53 12 -19 2 -55 12 -80 20 l-45 15 -60
-20 c-44 -15 -66 -29 -83 -53 -37 -54 -37 -74 -3 -148 17 -37 31 -82 31 -99 0
-24 12 -45 50 -87 27 -30 60 -72 74 -92 13 -21 59 -70 102 -110 44 -40 99 -92
124 -116 25 -23 70 -62 100 -85 30 -23 81 -62 112 -87 32 -25 104 -69 160 -97
57 -29 121 -65 142 -80 24 -17 52 -28 72 -28 18 0 36 -5 39 -10 3 -6 52 -10
111 -10 l104 0 0 25 c0 14 7 42 15 62 36 86 10 169 -84 266 -64 67 -98 86
-208 122 -43 14 -97 34 -119 45 -99 46 -161 60 -262 60 l-98 0 -50 35 c-27 19
-62 52 -77 72 -45 59 -100 145 -115 177 l-13 30 14 13 13 13 59 -21 c65 -23
137 -70 160 -105 19 -30 146 -114 171 -114 30 0 62 27 85 72 l20 40 -10 30
c-6 17 -11 43 -11 58 0 16 -11 37 -30 55 -21 20 -30 38 -30 60 0 21 -9 40 -29
59 -16 15 -46 53 -67 84 -21 31 -56 78 -79 103 -86 98 -125 148 -125 162 0 8
-14 33 -31 57 -24 34 -28 44 -17 51 21 14 85 10 125 -6 22 -9 67 -15 117 -15
44 0 101 -6 126 -14 94 -30 138 -38 225 -45 50 -4 100 -12 112 -19 12 -7 54
-12 93 -12 40 0 86 -6 107 -15 26 -11 76 -15 195 -15 118 0 168 -4 195 -15
l35 -15 510 0 c384 0 515 3 531 12 12 7 76 15 142 19 131 7 146 10 346 75 74
24 150 44 168 44 50 0 147 37 209 80 77 52 232 212 232 238 0 12 4 24 10 27
13 8 13 162 0 170 -5 3 -10 22 -10 40 0 41 -45 97 -101 126 -48 24 -81 24
-102 1 -23 -25 -21 -51 8 -114 31 -67 35 -178 7 -219 -29 -44 -128 -149 -140
-149 -6 0 -46 -17 -89 -38 -43 -21 -128 -54 -189 -75 l-111 -37 -110 0 c-76 0
-122 -5 -146 -15 -28 -12 -82 -15 -240 -15 -159 0 -213 -3 -240 -15 -51 -21
-303 -21 -354 0 -25 11 -72 15 -165 15 -92 0 -139 4 -165 15 l-35 15 -265 0
-264 0 -36 15 c-19 8 -65 15 -102 15 -49 0 -90 8 -151 30 -47 16 -102 30 -123
30 -21 0 -54 7 -74 15 -19 8 -60 15 -90 15 -29 0 -70 7 -90 15 -20 9 -66 15
-107 15 l-71 0 -45 30 c-26 17 -58 30 -76 30 -19 0 -46 12 -70 30 -21 16 -56
41 -76 55 -21 14 -45 37 -55 52 -27 44 -55 74 -94 99 -21 13 -50 42 -65 65
-19 26 -50 52 -88 73 -39 21 -70 47 -91 76 l-31 45 -65 22 c-35 12 -76 23 -91
23 -15 0 -30 5 -33 10 -3 6 -41 10 -83 9 l-77 -1 -22 -24z m1589 -1904 c34
-16 69 -30 77 -30 27 0 157 -69 185 -99 l29 -30 -13 -16 c-7 -8 -22 -15 -33
-15 -34 0 -160 67 -206 110 -24 22 -54 40 -66 40 -13 0 -33 8 -46 19 l-23 19
13 16 c7 9 15 16 16 16 2 0 32 -13 67 -30z"/>
</g>
</svg>
