<?xml version="1.0" standalone="no"?>
<!DOCTYPE svg PUBLIC "-//W3C//DTD SVG 20010904//EN"
 "http://www.w3.org/TR/2001/REC-SVG-20010904/DTD/svg10.dtd">
<svg version="1.0" xmlns="http://www.w3.org/2000/svg"
 width="945.000000pt" height="273.000000pt" viewBox="0 0 945.000000 273.000000"
 preserveAspectRatio="xMidYMid meet">
<metadata>
Created by potrace 1.16, written by Peter Selinger 2001-2019
</metadata>
<g transform="translate(0.000000,273.000000) scale(0.100000,-0.100000)"
fill="#000000" stroke="none">
<path d="M0 2693 c0 -49 49 -108 105 -125 28 -9 47 -25 68 -56 27 -40 106 -92
139 -92 7 0 32 -23 56 -50 24 -28 65 -61 91 -75 27 -13 84 -48 127 -78 44 -30
100 -64 124 -77 25 -12 64 -38 88 -58 67 -54 136 -99 202 -133 33 -17 80 -47
104 -67 71 -61 167 -136 200 -156 97 -60 196 -130 226 -161 19 -19 51 -40 72
-46 24 -6 47 -22 64 -45 15 -20 54 -49 86 -65 32 -16 87 -58 122 -92 35 -34
91 -82 126 -107 133 -95 177 -150 121 -150 -10 0 -35 -7 -54 -15 -20 -8 -52
-15 -72 -15 -38 0 -151 -34 -173 -53 -19 -15 -48 -76 -73 -149 l-21 -64 22
-64 c12 -35 35 -79 51 -98 16 -18 40 -50 53 -70 13 -21 43 -50 67 -65 24 -16
57 -46 72 -68 19 -26 50 -50 90 -70 34 -17 105 -60 157 -94 52 -35 109 -66
127 -70 17 -3 52 -24 76 -46 25 -21 50 -39 57 -39 6 0 41 -13 77 -30 35 -16
77 -30 93 -30 16 0 32 -4 35 -10 8 -13 365 -14 365 0 0 5 20 29 45 53 l45 45
0 51 c0 59 -49 168 -94 210 -18 17 -26 35 -26 59 l0 34 -109 106 c-60 59 -126
132 -146 162 -20 30 -42 58 -47 61 -6 4 -8 14 -5 23 l6 16 201 0 c150 0 209
-4 234 -14 27 -11 96 -14 314 -15 l280 0 37 -15 37 -16 400 0 399 0 36 -15
c26 -11 74 -15 180 -15 105 0 153 -4 180 -15 23 -10 69 -15 134 -15 54 0 110
-5 125 -10 19 -7 37 -7 60 0 25 9 40 8 69 -5 28 -11 74 -15 182 -15 105 0 153
-4 180 -15 24 -10 70 -15 147 -15 122 0 195 -18 265 -66 19 -13 42 -24 51 -24
8 0 35 -14 60 -30 25 -16 58 -30 73 -30 15 0 44 -7 64 -15 19 -8 46 -15 60
-15 13 0 48 -11 78 -25 103 -47 354 -125 402 -125 28 0 102 -18 182 -44 182
-59 213 -67 301 -75 41 -4 85 -13 97 -19 13 -7 64 -12 123 -12 67 0 113 -5
137 -15 23 -10 69 -15 135 -15 66 0 111 -5 136 -15 l36 -16 361 2 360 2 62 28
c34 16 78 29 97 29 64 0 157 38 207 85 25 23 64 54 86 68 54 34 93 83 93 116
0 27 31 125 43 138 4 3 7 40 7 82 l0 75 -27 28 -27 28 -51 0 c-68 0 -85 -18
-85 -90 0 -70 -63 -261 -98 -295 -34 -34 -62 -46 -227 -100 l-140 -46 -42 12
-42 11 -41 -16 -40 -16 -216 0 c-168 0 -222 3 -251 15 -22 9 -67 15 -120 15
-52 0 -97 6 -120 15 -19 8 -60 15 -90 15 -29 0 -70 7 -90 15 -22 9 -67 15
-117 15 -44 0 -101 6 -126 14 -58 18 -124 35 -175 45 -22 4 -56 12 -75 18 -49
16 -118 33 -165 42 -22 4 -56 12 -75 18 -48 15 -117 33 -165 42 -49 9 -126 35
-181 61 -60 28 -251 90 -276 90 -31 0 -147 59 -158 81 -8 13 -6 29 5 55 21 50
19 103 -6 176 -32 96 -52 128 -122 196 -52 49 -72 62 -96 62 -18 0 -48 7 -68
15 -46 19 -140 19 -186 0 -20 -8 -57 -15 -83 -15 l-47 0 -59 -58 -58 -59 0
-58 0 -58 44 -41 c25 -22 65 -58 90 -80 26 -21 46 -42 46 -47 0 -19 -55 -22
-101 -6 -37 13 -84 17 -218 17 -130 0 -180 4 -208 15 -27 12 -81 15 -240 15
-158 0 -212 3 -240 15 -27 11 -77 15 -210 15 -132 0 -182 4 -210 15 -28 12
-82 15 -255 15 -172 0 -226 3 -255 15 l-35 15 -475 0 -474 0 -36 15 c-22 9
-67 15 -119 15 -45 0 -94 4 -108 10 -32 12 -164 135 -219 204 -15 19 -51 48
-80 64 -29 17 -65 46 -80 65 -17 22 -42 40 -69 48 -31 10 -50 25 -68 53 -15
24 -61 62 -121 102 -54 36 -117 82 -141 103 -23 21 -67 50 -96 65 -29 15 -69
42 -90 60 -20 18 -66 48 -102 66 -64 32 -163 102 -189 134 -7 9 -21 16 -30 16
-9 0 -41 25 -71 56 -31 32 -83 70 -121 89 -36 19 -102 58 -145 88 -44 30 -98
64 -121 75 -22 12 -76 46 -120 75 -43 30 -101 66 -128 80 -28 14 -78 49 -111
80 -40 35 -74 57 -97 61 -32 6 -70 33 -149 109 l-30 27 -64 0 -64 0 0 -37z
m5989 -1639 c45 -32 77 -143 52 -183 l-9 -14 -34 13 c-18 8 -49 26 -69 40 -33
23 -88 50 -131 64 -26 8 -52 64 -37 82 18 21 196 20 228 -2z m-3568 -227 c19
-15 53 -42 76 -60 23 -17 54 -52 69 -75 16 -24 49 -57 74 -74 25 -17 57 -46
70 -65 13 -19 48 -50 77 -69 36 -23 53 -40 53 -55 0 -12 23 -43 53 -73 l53
-53 19 -68 18 -68 -23 -19 c-17 -14 -39 -18 -94 -18 l-71 0 -45 30 c-25 16
-58 30 -74 30 -39 0 -187 72 -234 114 -39 35 -92 66 -114 66 -8 0 -31 20 -51
45 -20 24 -62 60 -91 80 -67 44 -183 166 -192 201 -10 39 2 100 26 134 l22 31
173 -3 172 -3 34 -28z"/>
</g>
</svg>
