<?xml version="1.0" standalone="no"?>
<!DOCTYPE svg PUBLIC "-//W3C//DTD SVG 20010904//EN"
 "http://www.w3.org/TR/2001/REC-SVG-20010904/DTD/svg10.dtd">
<svg version="1.0" xmlns="http://www.w3.org/2000/svg"
 width="669.000000pt" height="231.000000pt" viewBox="0 0 669.000000 231.000000"
 preserveAspectRatio="xMidYMid meet">
<metadata>
Created by potrace 1.16, written by Peter Selinger 2001-2019
</metadata>
<g transform="translate(0.000000,231.000000) scale(0.100000,-0.100000)"
fill="#000000" stroke="none">
<path d="M2285 2300 c-3 -5 -21 -10 -38 -10 -42 0 -73 -22 -97 -71 l-21 -39
16 -54 c9 -29 23 -60 33 -69 23 -20 98 -57 115 -57 7 0 24 -12 38 -26 25 -27
89 -64 111 -64 7 0 33 -14 58 -30 25 -16 51 -30 58 -30 8 0 43 -13 79 -30 35
-16 69 -30 74 -30 6 0 35 -12 66 -26 65 -29 162 -60 215 -69 37 -6 122 -75
213 -172 16 -18 51 -55 77 -82 25 -27 54 -64 63 -82 10 -19 27 -45 40 -59 64
-70 175 -261 175 -300 0 -9 11 -32 24 -51 28 -41 66 -142 66 -175 0 -12 7 -38
15 -57 19 -46 19 -98 0 -144 -8 -19 -15 -59 -15 -87 0 -28 -4 -57 -9 -65 l-9
-14 -30 12 c-16 7 -43 29 -60 50 -23 29 -46 43 -96 59 -37 12 -75 22 -86 22
-11 0 -38 7 -61 17 l-41 16 -47 -16 c-25 -10 -65 -17 -88 -17 l-43 0 -39 -35
c-22 -20 -50 -61 -66 -97 -15 -35 -29 -65 -31 -67 -4 -4 -200 58 -228 73 -12
6 -36 21 -53 34 -17 12 -80 47 -140 77 -59 29 -130 72 -157 94 -26 23 -55 41
-64 41 -21 0 -198 86 -236 115 -17 13 -62 34 -101 46 -38 12 -83 34 -100 49
-16 15 -44 35 -61 44 -42 20 -162 102 -194 131 -27 25 -102 65 -121 65 -20 0
-83 34 -162 88 -43 29 -110 69 -150 89 -40 20 -85 46 -102 59 -16 12 -66 41
-110 64 -82 42 -146 80 -246 144 -30 20 -61 36 -68 36 -18 0 -81 30 -116 56
-16 12 -77 45 -135 74 -58 29 -126 69 -151 90 -52 43 -148 80 -209 80 l-40 0
0 -25 c0 -15 6 -25 14 -25 8 0 24 -13 36 -29 21 -30 195 -153 271 -192 23 -11
60 -34 82 -50 22 -16 47 -29 56 -29 8 0 29 -13 46 -29 16 -16 73 -51 125 -77
89 -44 189 -112 219 -148 7 -9 21 -16 30 -16 9 0 33 -11 53 -25 20 -14 70 -41
110 -62 40 -20 90 -49 112 -64 21 -16 47 -29 56 -29 9 0 36 -15 60 -32 106
-80 165 -117 195 -122 18 -4 52 -24 76 -45 46 -40 99 -71 122 -71 7 0 26 -13
41 -29 15 -16 40 -31 54 -34 15 -3 49 -24 76 -46 26 -23 55 -41 64 -41 30 0
208 -93 261 -136 29 -24 61 -44 70 -44 9 0 33 -11 54 -25 47 -32 224 -120 257
-128 14 -4 43 -22 65 -40 51 -44 176 -107 212 -107 16 0 42 -9 58 -21 87 -59
338 -159 400 -159 13 0 27 -4 30 -10 4 -6 63 -10 145 -10 l138 0 56 53 56 53
0 34 c0 19 9 49 21 65 11 17 38 65 60 107 l39 78 0 70 c0 40 6 86 15 107 27
63 19 160 -21 279 -42 128 -132 310 -208 425 -31 46 -56 91 -56 100 0 8 -22
44 -50 78 -27 34 -50 65 -50 67 0 3 16 12 36 20 l35 15 134 -46 c74 -25 149
-45 167 -45 18 0 53 -6 78 -14 101 -32 140 -39 255 -46 l120 -7 52 -26 53 -27
85 0 c54 0 99 -6 122 -15 20 -8 66 -15 105 -15 38 0 84 -7 105 -15 l35 -15
358 0 358 0 35 15 c20 8 61 15 90 15 30 0 71 7 90 15 21 8 67 15 106 15 l70 0
64 30 c36 16 75 30 86 30 46 0 146 43 223 96 44 30 101 66 127 79 25 13 64 43
87 67 36 38 59 70 142 203 l22 36 0 144 0 144 -30 16 c-16 8 -36 15 -44 15 -8
0 -23 11 -33 24 -22 28 -74 56 -103 56 -12 0 -34 -7 -50 -15 -46 -24 -40 -57
19 -114 37 -36 50 -56 56 -89 10 -58 -10 -133 -51 -193 -19 -27 -40 -66 -47
-86 -9 -28 -27 -47 -77 -81 -36 -24 -77 -55 -92 -70 -29 -27 -204 -92 -248
-92 -14 0 -45 -14 -70 -30 -25 -16 -57 -30 -71 -30 -15 0 -43 -7 -62 -15 -27
-11 -77 -15 -195 -15 -119 0 -169 -4 -195 -15 -27 -11 -76 -15 -192 -15 -116
0 -165 4 -192 15 -28 12 -84 15 -270 15 -185 0 -241 3 -270 15 -19 8 -60 15
-90 15 -37 0 -72 8 -109 25 -84 38 -170 65 -209 65 -20 0 -52 7 -72 15 -22 9
-67 15 -117 15 -65 0 -99 6 -166 30 -47 16 -94 30 -104 30 -11 0 -80 20 -153
45 -73 25 -142 45 -153 45 -49 0 -117 46 -224 150 -66 64 -132 118 -162 133
-28 14 -76 48 -106 76 -59 54 -194 127 -299 160 -35 12 -72 26 -81 31 -23 13
-135 13 -143 0z m207 -184 c41 -19 82 -44 93 -56 11 -12 48 -35 82 -50 48 -22
63 -34 63 -50 l0 -20 -37 15 c-21 9 -49 27 -64 41 -14 13 -35 24 -47 24 -27 0
-164 64 -182 84 -10 13 -10 19 0 31 7 8 14 15 16 15 2 0 36 -15 76 -34z m833
-1731 c77 -24 110 -42 144 -80 35 -40 36 -45 19 -67 -9 -10 -38 -18 -86 -22
-118 -10 -193 19 -226 89 -21 44 -11 65 41 81 51 16 51 16 108 -1z"/>
</g>
</svg>
