<?xml version="1.0" standalone="no"?>
<!DOCTYPE svg PUBLIC "-//W3C//DTD SVG 20010904//EN"
 "http://www.w3.org/TR/2001/REC-SVG-20010904/DTD/svg10.dtd">
<svg version="1.0" xmlns="http://www.w3.org/2000/svg"
 width="498.000000pt" height="132.000000pt" viewBox="0 0 498.000000 132.000000"
 preserveAspectRatio="xMidYMid meet">
<metadata>
Created by potrace 1.16, written by Peter Selinger 2001-2019
</metadata>
<g transform="translate(0.000000,132.000000) scale(0.100000,-0.100000)"
fill="#000000" stroke="none">
<path d="M4650 1281 c-7 -22 -10 -46 -7 -55 3 -8 31 -31 61 -50 l56 -36 0
-116 0 -115 -42 -52 c-66 -78 -106 -116 -152 -138 -22 -12 -53 -33 -68 -47
-29 -27 -117 -62 -156 -62 -13 0 -32 -5 -43 -11 -11 -6 -41 -14 -67 -19 -67
-12 -124 -28 -227 -61 -51 -16 -113 -29 -142 -29 -28 0 -67 -7 -86 -15 l-36
-15 -411 0 -411 0 -36 15 c-23 10 -69 15 -135 15 -65 0 -111 5 -135 15 -24 10
-71 15 -150 15 -78 0 -125 5 -150 15 -19 8 -60 15 -90 15 -29 0 -70 7 -90 15
-19 8 -60 15 -90 15 -29 0 -70 7 -90 15 -24 10 -71 15 -150 15 l-114 0 -67 40
c-36 22 -80 44 -97 49 -53 14 -127 69 -193 141 -35 38 -71 70 -81 70 -10 0
-28 12 -42 26 -37 39 -210 152 -246 159 -17 3 -51 23 -75 44 -52 46 -157 101
-193 101 -14 0 -42 7 -62 15 -23 10 -69 15 -131 15 l-95 0 -43 -44 -44 -43 0
-42 c0 -33 6 -47 27 -67 16 -13 58 -53 94 -88 41 -38 93 -75 135 -96 81 -38
105 -51 199 -101 39 -21 146 -62 238 -93 93 -31 181 -65 197 -76 15 -11 45
-25 66 -32 31 -10 48 -27 82 -78 l43 -65 -3 -65 c-4 -76 -28 -118 -82 -144
l-34 -16 -186 0 c-143 0 -195 3 -223 15 -26 11 -76 15 -195 15 -118 0 -168 4
-195 15 -22 9 -67 15 -120 15 -52 0 -97 6 -120 15 -47 20 -175 20 -213 0 l-30
-16 0 -39 c0 -45 4 -48 97 -79 38 -13 88 -21 128 -21 36 0 82 -7 102 -15 27
-11 77 -15 210 -15 132 0 182 -4 210 -15 25 -11 72 -15 162 -15 l127 0 84 -30
c47 -16 97 -30 112 -30 15 0 30 -4 33 -10 14 -23 68 -9 127 33 107 76 129 98
170 180 l40 81 -5 70 c-3 39 -7 79 -9 90 -6 33 25 42 84 24 102 -31 144 -40
218 -47 41 -4 85 -13 97 -19 14 -8 74 -12 168 -12 107 0 155 -4 182 -15 20 -8
66 -15 105 -15 38 0 84 -7 105 -15 25 -11 72 -15 165 -15 92 0 139 -4 165 -15
19 -8 53 -15 75 -15 21 0 55 -7 75 -15 45 -19 81 -19 126 0 46 19 98 19 144 0
45 -19 111 -19 156 0 25 10 72 15 150 15 79 0 126 5 150 15 20 8 54 15 75 15
22 0 56 7 75 15 20 8 54 15 75 15 22 0 56 7 75 15 21 8 67 15 105 15 39 0 85
7 105 15 20 8 48 15 62 15 26 0 147 56 197 91 15 11 62 31 105 45 l78 25 88
87 c48 48 96 103 107 123 26 49 60 153 60 183 0 14 5 28 10 31 12 8 13 59 1
83 -4 9 -18 38 -29 63 -13 29 -36 58 -61 75 -22 16 -45 39 -52 52 l-12 22 -77
0 -77 0 -13 -39z m-3905 -242 c112 -55 155 -86 155 -111 0 -24 -85 5 -135 47
-16 14 -37 25 -46 25 -24 0 -104 37 -119 55 -10 12 -10 18 0 30 7 8 14 15 16
15 2 0 61 -28 129 -61z"/>
</g>
</svg>
