<?xml version="1.0" standalone="no"?>
<!DOCTYPE svg PUBLIC "-//W3C//DTD SVG 20010904//EN"
 "http://www.w3.org/TR/2001/REC-SVG-20010904/DTD/svg10.dtd">
<svg version="1.0" xmlns="http://www.w3.org/2000/svg"
 width="495.000000pt" height="105.000000pt" viewBox="0 0 495.000000 105.000000"
 preserveAspectRatio="xMidYMid meet">
<metadata>
Created by potrace 1.16, written by Peter Selinger 2001-2019
</metadata>
<g transform="translate(0.000000,105.000000) scale(0.100000,-0.100000)"
fill="#000000" stroke="none">
<path d="M50 1000 l-50 -51 0 -35 0 -35 70 -70 c39 -38 70 -76 70 -83 0 -16
32 -46 49 -46 22 0 84 -33 165 -89 44 -29 91 -57 104 -60 14 -4 29 -15 34 -24
4 -9 12 -25 16 -34 16 -33 83 -63 142 -63 54 0 212 -47 306 -90 57 -26 159
-60 182 -60 10 0 56 -13 102 -30 62 -21 104 -30 153 -30 37 0 84 -7 104 -15
19 -8 52 -15 72 -15 20 0 56 -6 81 -14 87 -28 136 -38 210 -45 41 -4 85 -13
97 -19 12 -7 54 -12 93 -12 40 0 86 -6 107 -15 l35 -15 265 0 264 0 36 -15
c20 -9 66 -15 109 -15 40 0 76 -5 79 -10 8 -13 102 -13 110 0 4 6 81 10 199
10 149 0 202 3 229 15 29 12 85 15 270 15 186 0 242 3 270 15 21 8 67 15 105
15 39 0 85 7 105 15 20 8 53 15 74 15 53 1 207 57 368 136 104 50 205 132 231
187 9 20 23 42 31 48 9 8 13 43 13 129 l0 117 -48 40 c-53 45 -122 83 -150 83
-22 0 -52 -30 -52 -52 0 -9 13 -45 30 -80 l30 -63 0 -69 c0 -78 -18 -117 -74
-159 -35 -27 -215 -117 -234 -117 -6 0 -40 -13 -75 -30 l-65 -30 -85 0 c-53 0
-98 -6 -120 -15 -23 -9 -68 -15 -120 -15 -53 0 -98 -6 -120 -15 -23 -9 -68
-15 -120 -15 -52 0 -98 -6 -120 -15 l-35 -14 -394 -2 c-301 -1 -400 2 -423 12
-16 7 -79 16 -140 21 -141 11 -141 11 -200 3 -36 -5 -61 -3 -89 9 -28 12 -70
16 -153 16 -78 0 -125 5 -150 15 -24 10 -70 15 -147 15 -68 0 -128 5 -156 14
-58 18 -124 35 -175 45 -22 4 -56 12 -75 18 -67 21 -125 35 -180 42 -68 9
-143 35 -234 79 -39 18 -106 45 -150 59 -111 36 -127 49 -150 125 -29 94 -62
154 -101 184 -19 14 -35 35 -35 45 0 20 -80 84 -147 118 -23 11 -61 21 -83 21
-22 0 -57 7 -77 15 -19 8 -55 15 -79 15 -23 0 -46 5 -49 10 -3 6 -28 10 -55
10 l-49 0 -51 -50z m310 -158 c70 -22 80 -29 80 -54 0 -11 14 -33 31 -49 17
-16 26 -29 20 -29 -24 0 -139 59 -152 78 -8 11 -27 26 -42 33 -29 13 -34 24
-14 32 18 8 18 8 77 -11z"/>
</g>
</svg>
