<?xml version="1.0" standalone="no"?>
<!DOCTYPE svg PUBLIC "-//W3C//DTD SVG 20010904//EN"
 "http://www.w3.org/TR/2001/REC-SVG-20010904/DTD/svg10.dtd">
<svg version="1.0" xmlns="http://www.w3.org/2000/svg"
 width="759.000000pt" height="123.000000pt" viewBox="0 0 759.000000 123.000000"
 preserveAspectRatio="xMidYMid meet">
<metadata>
Created by potrace 1.16, written by Peter Selinger 2001-2019
</metadata>
<g transform="translate(0.000000,123.000000) scale(0.100000,-0.100000)"
fill="#000000" stroke="none">
<path d="M3380 1218 c0 -7 -14 -33 -30 -58 -16 -25 -30 -53 -30 -63 0 -36 49
-113 100 -157 28 -25 73 -65 98 -90 34 -33 64 -51 107 -65 33 -10 74 -31 90
-47 17 -15 37 -28 45 -28 8 0 35 -14 60 -30 25 -16 51 -30 58 -30 26 0 101
-40 116 -62 23 -33 21 -151 -3 -205 -25 -54 -89 -117 -145 -143 l-45 -20 -112
0 -112 0 -124 60 c-84 40 -137 60 -162 60 -20 0 -75 13 -121 30 -47 16 -96 30
-108 30 -13 0 -53 14 -89 30 -35 17 -74 30 -86 30 -12 0 -42 6 -67 14 -87 28
-136 38 -210 45 -41 4 -85 13 -97 19 -12 7 -40 12 -63 12 -22 0 -57 7 -77 15
-19 8 -61 15 -92 15 l-57 0 -29 30 -29 30 -257 0 -257 0 -35 -15 c-20 -8 -48
-15 -62 -15 -37 0 -83 -26 -133 -74 -49 -46 -72 -84 -72 -119 0 -47 -2 -47
-382 -47 l-359 0 -36 15 c-27 11 -77 15 -210 15 -132 0 -182 4 -210 15 -45 19
-86 19 -123 0 l-30 -16 0 -39 0 -40 23 0 c12 0 42 -6 67 -14 103 -33 142 -39
270 -45 77 -4 144 -12 157 -19 14 -8 70 -12 168 -12 107 0 155 -4 182 -15 26
-11 76 -15 194 -15 119 0 168 -4 197 -15 29 -12 70 -15 177 -13 l139 3 24 35
c25 37 25 48 1 151 l-13 57 17 26 17 26 266 0 265 0 36 -15 c19 -8 52 -15 71
-15 20 0 77 -13 127 -29 122 -39 170 -51 240 -60 34 -5 70 -13 82 -19 12 -7
41 -12 65 -12 30 0 71 -14 136 -45 52 -25 104 -45 116 -45 12 0 60 -13 106
-30 47 -16 96 -30 110 -30 14 0 41 -8 60 -18 42 -20 208 -131 216 -143 6 -10
127 -12 137 -2 12 12 111 43 137 43 14 0 45 14 70 30 25 16 52 30 60 30 8 1
51 20 95 43 l80 42 41 79 c23 44 44 99 47 122 2 23 14 56 26 73 l22 31 37 0
c20 0 57 -6 82 -14 76 -24 133 -37 190 -45 70 -10 145 -35 243 -83 l78 -38
117 0 117 0 63 -30 64 -30 99 0 c66 0 112 -5 136 -15 l35 -15 427 1 c234 0
462 5 506 10 44 6 112 14 150 19 70 8 120 19 205 46 25 8 59 14 77 14 43 0
319 93 402 135 48 24 91 59 159 128 50 52 92 103 92 113 0 11 14 39 30 64 16
25 30 53 30 62 0 9 5 20 10 23 6 4 10 61 10 139 l0 132 -56 19 -56 19 -26 -15
c-41 -23 -48 -42 -35 -92 l12 -45 -19 -58 c-17 -50 -58 -144 -114 -264 -12
-25 -87 -70 -117 -70 -9 0 -34 -12 -55 -28 -21 -15 -50 -33 -64 -39 -42 -20
-143 -53 -165 -53 -11 0 -58 -14 -105 -30 -46 -17 -94 -30 -106 -30 -12 0 -38
-7 -57 -15 -20 -8 -61 -15 -90 -15 -30 0 -71 -7 -90 -15 l-36 -15 -426 0 -426
0 -36 15 c-20 8 -66 15 -105 15 -38 0 -84 7 -105 15 -19 8 -60 15 -90 15 -29
0 -70 7 -90 15 -19 8 -53 15 -75 15 -21 0 -55 7 -75 15 -19 8 -61 15 -92 15
l-56 0 -45 30 -45 30 -73 0 -73 0 -67 40 c-37 23 -78 43 -92 46 -14 2 -43 9
-65 15 -22 6 -65 14 -96 18 -67 8 -83 19 -115 84 -56 109 -259 335 -341 377
-26 13 -66 37 -87 52 -21 16 -47 28 -57 28 -10 0 -21 5 -24 10 -10 16 -275 13
-275 -2z m247 -166 c54 -24 159 -110 182 -149 l19 -31 -26 8 c-47 13 -86 33
-123 62 -20 15 -41 28 -46 28 -5 0 -24 16 -43 35 l-33 34 13 16 c15 18 10 19
57 -3z"/>
</g>
</svg>
