<?xml version="1.0" standalone="no"?>
<!DOCTYPE svg PUBLIC "-//W3C//DTD SVG 20010904//EN"
 "http://www.w3.org/TR/2001/REC-SVG-20010904/DTD/svg10.dtd">
<svg version="1.0" xmlns="http://www.w3.org/2000/svg"
 width="501.000000pt" height="336.000000pt" viewBox="0 0 501.000000 336.000000"
 preserveAspectRatio="xMidYMid meet">
<metadata>
Created by potrace 1.16, written by Peter Selinger 2001-2019
</metadata>
<g transform="translate(0.000000,336.000000) scale(0.100000,-0.100000)"
fill="#000000" stroke="none">
<path d="M785 3350 c-3 -5 -25 -10 -48 -10 -45 0 -156 -36 -209 -67 -18 -10
-45 -41 -60 -68 -54 -99 -29 -232 57 -301 50 -40 97 -86 116 -115 9 -13 67
-50 130 -82 63 -32 138 -73 167 -91 29 -19 92 -46 140 -61 108 -35 126 -46
159 -104 15 -25 44 -66 64 -91 20 -25 48 -67 62 -95 28 -56 203 -230 306 -305
35 -25 74 -55 89 -67 l27 -22 -17 -17 -18 -18 -42 13 c-24 7 -77 16 -118 21
-41 4 -88 12 -105 18 -52 18 -118 33 -180 42 -33 5 -91 20 -130 34 -50 18 -90
26 -140 26 l-70 0 -45 30 c-25 16 -57 30 -71 30 -14 0 -40 5 -57 11 -24 8 -37
7 -64 -6 -47 -25 -98 -75 -98 -99 0 -44 31 -119 65 -159 20 -23 38 -53 42 -67
3 -14 20 -41 38 -60 55 -60 115 -160 115 -192 0 -15 -69 2 -138 33 -35 16 -76
29 -91 29 -15 0 -69 20 -120 45 -51 25 -98 45 -104 45 -7 0 -41 14 -75 30 -39
18 -80 30 -106 30 -27 0 -53 8 -77 24 -33 23 -144 66 -169 66 -6 0 -10 -24
-10 -55 l0 -54 30 -16 c16 -8 34 -15 40 -15 6 0 41 -18 78 -40 36 -22 84 -45
107 -51 22 -6 61 -22 87 -35 26 -13 60 -24 75 -24 34 0 134 -46 193 -89 24
-17 54 -31 68 -31 40 0 147 -39 265 -97 59 -29 112 -53 118 -53 26 0 100 -43
116 -67 10 -16 57 -67 106 -116 48 -48 87 -94 87 -102 0 -8 20 -29 44 -47 25
-18 57 -53 72 -76 16 -24 49 -58 75 -75 26 -17 60 -51 75 -75 16 -25 46 -55
66 -68 21 -13 49 -41 62 -62 26 -41 53 -66 106 -101 20 -13 48 -41 64 -62 15
-22 49 -50 76 -64 26 -13 61 -41 78 -62 21 -27 59 -53 128 -87 55 -27 123 -68
153 -92 29 -24 62 -44 72 -44 10 0 21 -4 24 -10 8 -12 268 -14 293 -2 9 5 31
15 47 23 18 9 41 35 57 64 l28 50 0 78 c0 91 -18 136 -85 208 -23 25 -54 63
-68 85 -42 66 -137 143 -237 194 -25 13 -58 33 -75 45 -16 13 -52 35 -80 49
-27 15 -75 43 -105 62 -30 19 -71 39 -90 44 -42 11 -134 57 -207 104 -54 34
-167 76 -206 76 -12 0 -42 14 -67 30 -25 16 -52 30 -60 30 -8 0 -35 14 -60 30
-25 16 -58 30 -75 30 -19 0 -57 18 -101 46 l-71 46 -54 84 c-30 47 -63 99 -74
117 -12 17 -30 34 -40 36 -29 5 -45 21 -45 43 0 11 -23 42 -50 69 -58 56 -97
133 -79 155 15 19 100 18 146 -1 23 -10 69 -15 132 -15 55 0 115 -6 141 -14
60 -19 125 -35 182 -46 26 -5 56 -13 67 -19 11 -6 38 -11 61 -11 22 0 57 -7
77 -15 19 -8 53 -15 75 -15 21 0 55 -7 75 -15 19 -8 60 -15 90 -15 36 0 72 -8
108 -25 79 -36 261 -95 293 -95 15 0 38 7 50 16 27 19 62 85 62 117 0 44 -115
127 -175 127 -14 0 -42 7 -62 15 -19 8 -47 15 -61 15 -36 0 -185 74 -230 114
-20 18 -56 43 -79 55 -77 39 -333 294 -333 332 0 9 7 22 16 30 l16 13 46 -18
c141 -55 256 -86 352 -95 41 -4 85 -13 97 -19 12 -7 39 -12 60 -12 21 0 58 -6
83 -14 87 -28 136 -38 210 -45 41 -4 85 -13 97 -19 12 -7 54 -12 93 -12 40 0
86 -6 107 -15 l35 -15 373 0 373 0 35 15 c23 9 68 15 120 15 53 0 98 6 120 15
20 8 61 15 90 15 30 0 71 7 90 15 20 8 60 15 89 15 33 0 85 12 138 30 46 17
101 30 121 30 20 0 53 7 72 15 20 8 50 15 66 15 19 0 45 13 77 41 27 22 83 58
124 79 82 42 199 150 233 216 10 20 32 55 48 77 18 25 29 52 29 73 0 18 4 36
10 39 12 8 14 238 2 263 -5 9 -15 31 -23 47 -16 32 -99 84 -135 85 -51 0 -71
-86 -39 -163 20 -49 19 -152 -3 -213 -10 -28 -34 -70 -55 -94 -20 -24 -53 -68
-72 -99 -20 -31 -53 -67 -73 -81 -20 -13 -54 -39 -75 -56 -43 -36 -146 -74
-200 -74 -19 0 -65 -14 -100 -30 -36 -17 -76 -30 -89 -30 -12 0 -61 -14 -108
-30 l-84 -30 -157 0 c-117 0 -166 -4 -192 -15 -26 -11 -73 -15 -165 -15 -93 0
-140 -4 -165 -15 -52 -21 -362 -21 -414 0 -22 9 -67 15 -120 15 -52 0 -97 6
-120 15 -24 10 -71 15 -150 15 -78 0 -125 5 -150 15 -19 8 -59 15 -87 15 -32
0 -84 11 -136 30 -47 16 -97 30 -111 30 -14 0 -34 7 -45 15 l-19 14 23 40 22
40 0 100 c0 134 -27 219 -82 264 -21 16 -38 38 -38 48 0 10 -27 38 -62 65 -35
26 -76 60 -93 75 -38 35 -176 129 -240 163 -28 15 -75 43 -105 62 -30 19 -66
37 -80 40 -14 2 -43 9 -65 16 -22 6 -76 13 -120 15 -44 2 -84 9 -89 14 -13 12
-193 12 -201 -1z m107 -147 l28 -27 45 12 c72 19 123 14 233 -23 79 -27 130
-53 215 -110 141 -94 303 -249 312 -299 4 -19 20 -47 36 -62 31 -29 36 -53 19
-85 l-11 -19 -58 0 c-72 0 -91 13 -134 95 -23 43 -43 66 -72 82 -71 40 -120
25 -179 -56 -34 -46 -75 -81 -94 -81 -5 0 -35 15 -66 34 -31 18 -93 46 -139
60 -49 16 -99 39 -121 58 -21 17 -79 59 -129 92 -96 65 -147 124 -168 197
l-12 39 24 26 c26 28 55 43 139 73 76 27 99 26 132 -6z m844 -2253 c68 -33
129 -60 135 -60 6 0 44 -20 85 -45 40 -25 76 -45 79 -45 3 0 29 -15 58 -33 29
-18 84 -46 122 -62 39 -16 84 -39 100 -51 17 -12 53 -33 81 -47 57 -29 209
-164 262 -233 57 -76 77 -148 52 -195 l-11 -19 -66 0 c-96 0 -182 32 -247 90
-28 26 -75 59 -105 74 -54 28 -141 108 -141 130 0 7 11 23 25 36 13 13 31 47
40 75 l15 53 -15 35 c-19 47 -63 77 -111 77 l-38 0 -58 -61 c-42 -44 -63 -59
-76 -55 -30 10 -70 58 -84 101 -10 29 -26 48 -64 74 -28 19 -66 57 -85 85 -19
28 -46 57 -61 63 -14 7 -31 20 -38 28 -13 16 -7 45 10 45 6 0 67 -27 136 -60z"/>
</g>
</svg>
