<?xml version="1.0" standalone="no"?>
<!DOCTYPE svg PUBLIC "-//W3C//DTD SVG 20010904//EN"
 "http://www.w3.org/TR/2001/REC-SVG-20010904/DTD/svg10.dtd">
<svg version="1.0" xmlns="http://www.w3.org/2000/svg"
 width="663.000000pt" height="294.000000pt" viewBox="0 0 663.000000 294.000000"
 preserveAspectRatio="xMidYMid meet">
<metadata>
Created by potrace 1.16, written by Peter Selinger 2001-2019
</metadata>
<g transform="translate(0.000000,294.000000) scale(0.100000,-0.100000)"
fill="#000000" stroke="none">
<path d="M1925 2932 c-6 -5 -42 -19 -81 -31 -105 -33 -130 -51 -166 -125 l-32
-65 14 -58 c10 -40 23 -66 43 -83 15 -14 49 -46 75 -71 26 -26 71 -59 100 -73
29 -15 69 -41 90 -60 72 -64 108 -85 185 -110 43 -14 90 -34 105 -45 36 -25
229 -121 244 -121 6 0 41 -13 77 -29 125 -54 177 -74 321 -123 80 -27 161 -59
181 -71 20 -12 88 -78 152 -147 63 -69 126 -136 139 -149 64 -64 262 -240 326
-288 40 -31 72 -63 72 -73 0 -26 33 -50 67 -50 23 0 37 -8 57 -35 15 -19 49
-46 75 -60 55 -27 171 -105 216 -144 17 -14 50 -34 75 -44 25 -10 61 -27 80
-38 89 -49 251 -129 262 -129 10 0 120 -46 168 -70 23 -11 24 -57 0 -95 -30
-49 -124 -132 -184 -162 -28 -14 -64 -35 -81 -47 -20 -14 -53 -23 -100 -27
-77 -8 -116 -17 -250 -60 l-90 -29 -135 -3 c-74 -3 -148 -9 -163 -16 -19 -7
-127 -11 -321 -11 l-294 0 -35 -15 c-49 -20 -215 -20 -264 0 -22 9 -67 15
-120 15 -52 0 -97 6 -120 15 -22 9 -67 15 -120 15 -52 0 -97 6 -120 15 -19 8
-60 15 -90 15 -29 0 -70 7 -90 15 -20 8 -66 15 -105 15 -38 0 -84 7 -105 15
-20 8 -66 15 -105 15 -38 0 -84 7 -105 15 -19 8 -59 15 -87 15 -32 0 -84 11
-136 30 -47 16 -104 30 -127 30 -31 0 -45 5 -53 19 l-10 20 27 32 c37 43 62
122 63 192 l0 57 -36 73 c-45 91 -199 252 -255 267 -19 5 -53 25 -76 44 -37
33 -66 44 -213 87 -31 9 -136 14 -337 16 l-292 4 -78 -41 c-43 -22 -97 -55
-120 -73 l-42 -32 0 -120 0 -120 41 -30 c23 -16 62 -45 87 -63 25 -18 71 -46
101 -63 30 -17 79 -45 108 -63 29 -19 92 -46 140 -61 48 -15 103 -36 123 -46
61 -30 291 -100 391 -119 26 -5 56 -13 67 -19 11 -6 32 -11 48 -11 15 0 48
-14 73 -30 32 -22 57 -30 88 -30 23 0 59 -7 79 -15 19 -8 65 -15 102 -15 49 0
90 -8 151 -30 47 -16 101 -30 120 -30 19 0 55 -6 80 -14 87 -28 136 -38 210
-45 41 -4 85 -13 97 -19 13 -7 64 -12 123 -12 67 0 113 -5 137 -15 23 -10 69
-15 135 -15 65 0 111 -5 135 -15 20 -8 66 -15 105 -15 38 0 84 -7 105 -15 49
-21 227 -21 276 0 l36 15 256 0 c256 0 295 -5 295 -35 0 -24 44 -18 55 7 6 11
26 29 45 40 l35 18 116 0 c81 0 128 5 152 15 21 8 67 15 105 15 39 0 85 7 105
15 20 8 54 15 76 15 23 0 66 12 103 30 34 16 69 30 76 30 7 0 62 25 122 55
l110 55 25 41 c15 22 41 49 58 59 34 20 99 92 155 169 43 59 44 111 3 152
l-29 29 -74 0 c-83 0 -171 26 -287 84 -39 20 -76 36 -84 36 -26 0 -176 79
-214 113 -41 37 -93 67 -116 67 -7 0 -24 12 -38 26 -13 14 -37 33 -54 41 -72
37 -183 119 -208 154 -15 21 -51 51 -79 66 -31 17 -63 44 -79 68 -15 22 -53
56 -85 75 -39 23 -60 43 -64 60 -4 16 -26 38 -61 61 -39 26 -63 51 -81 86 -14
27 -33 61 -42 75 -20 31 -9 42 29 28 14 -5 44 -10 66 -10 22 0 56 -7 76 -15
19 -8 65 -15 102 -15 36 0 86 -6 111 -14 98 -31 139 -39 240 -45 58 -4 115
-12 127 -19 13 -7 65 -12 138 -12 80 0 127 -5 152 -15 l35 -15 358 0 358 0 35
15 c25 10 72 15 152 15 64 0 125 5 136 11 11 6 41 14 67 19 57 11 127 28 167
42 17 6 64 14 105 18 41 5 93 13 115 19 22 6 51 13 65 15 14 3 55 23 92 46 37
22 73 40 80 40 26 0 191 121 257 188 37 38 73 84 80 103 7 19 17 42 22 51 5
10 9 75 9 146 l0 128 -27 11 c-16 7 -44 22 -63 34 -43 26 -82 21 -105 -15 -12
-18 -13 -30 -5 -50 5 -15 10 -64 10 -109 l0 -83 -53 -79 c-54 -81 -123 -139
-240 -201 -60 -31 -184 -74 -215 -74 -13 0 -32 -5 -43 -11 -11 -6 -41 -14 -67
-19 -57 -11 -122 -27 -182 -46 -25 -8 -61 -14 -81 -14 -20 0 -53 -7 -72 -15
-29 -12 -83 -15 -255 -15 l-220 0 -37 -16 -38 -16 -41 16 -42 16 -307 0 -308
0 -36 15 c-22 9 -67 15 -117 15 -44 0 -101 6 -126 14 -60 19 -125 35 -182 46
-26 5 -56 13 -67 19 -11 6 -52 11 -91 11 -40 0 -86 6 -107 15 -19 8 -61 15
-92 15 -69 0 -118 22 -191 85 -80 70 -181 185 -187 215 -6 31 -170 202 -255
264 -21 15 -53 51 -72 79 -32 50 -84 99 -207 199 -66 54 -103 74 -169 94 -26
8 -53 21 -60 29 l-12 15 -167 0 c-92 0 -171 -4 -176 -8z m318 -136 c73 -31
187 -122 337 -270 216 -213 334 -390 276 -412 -22 -8 -213 60 -278 99 -32 19
-95 46 -141 61 -56 18 -98 39 -130 65 -25 21 -62 42 -81 45 -19 4 -58 23 -87
43 -29 19 -67 39 -84 44 -29 8 -95 59 -187 143 l-28 25 0 45 0 46 27 17 c15
10 54 28 87 40 74 26 237 31 289 9z m-1473 -1722 c30 -14 89 -37 131 -50 45
-15 94 -40 122 -62 25 -20 69 -53 96 -72 58 -40 123 -119 153 -187 28 -64 19
-103 -37 -149 -25 -20 -45 -45 -45 -55 0 -11 -11 -25 -26 -31 l-25 -12 -232
77 c-128 43 -242 77 -253 77 -32 0 -296 133 -393 198 -48 32 -94 72 -109 94
l-25 38 11 25 c6 13 21 31 34 39 42 28 172 66 224 66 29 0 67 7 85 15 22 9 69
14 134 15 l100 0 55 -26z"/>
</g>
</svg>
