<?xml version="1.0" standalone="no"?>
<!DOCTYPE svg PUBLIC "-//W3C//DTD SVG 20010904//EN"
 "http://www.w3.org/TR/2001/REC-SVG-20010904/DTD/svg10.dtd">
<svg version="1.0" xmlns="http://www.w3.org/2000/svg"
 width="471.000000pt" height="135.000000pt" viewBox="0 0 471.000000 135.000000"
 preserveAspectRatio="xMidYMid meet">
<metadata>
Created by potrace 1.16, written by Peter Selinger 2001-2019
</metadata>
<g transform="translate(0.000000,135.000000) scale(0.100000,-0.100000)"
fill="#000000" stroke="none">
<path d="M210 1341 c-8 -4 -42 -21 -75 -37 l-60 -29 -29 -60 c-16 -33 -33 -68
-38 -77 -11 -24 -10 -75 2 -83 6 -3 10 -22 10 -42 l0 -36 97 -99 c71 -72 107
-101 134 -108 24 -7 48 -24 67 -48 21 -25 62 -53 133 -89 57 -29 111 -58 119
-65 33 -27 50 -64 50 -105 0 -89 104 -248 191 -293 66 -34 158 -60 214 -60
l55 0 78 39 c43 22 84 46 91 55 7 9 29 25 47 37 l34 21 48 -15 c61 -20 126
-36 184 -47 26 -5 56 -13 67 -19 11 -6 58 -11 106 -11 53 0 99 -6 122 -15 19
-8 53 -15 75 -15 21 0 55 -7 75 -15 19 -8 53 -15 75 -15 21 0 55 -7 75 -15 19
-8 53 -15 75 -15 21 0 55 -7 75 -15 22 -9 67 -15 120 -15 52 0 97 -6 120 -15
l35 -15 299 0 c188 0 300 -4 304 -10 4 -6 58 -10 130 -10 72 0 126 4 130 10 4
6 86 10 214 10 163 0 216 3 244 15 20 8 54 15 76 15 23 0 67 13 104 30 36 16
78 30 94 30 15 0 48 14 73 30 25 16 51 30 58 30 7 0 48 18 92 40 63 32 86 49
107 83 14 23 62 79 105 124 l78 82 0 35 c0 19 4 38 10 41 6 3 10 46 10 94 0
107 -19 153 -82 197 -58 42 -123 74 -148 74 -31 0 -80 -53 -80 -85 0 -31 49
-85 77 -85 33 0 43 -21 43 -90 0 -108 -24 -160 -118 -250 -55 -54 -90 -80
-113 -85 -19 -4 -51 -18 -71 -31 -58 -37 -235 -94 -294 -94 -28 0 -68 -7 -87
-15 -21 -8 -67 -15 -105 -15 -39 0 -85 -7 -105 -15 l-36 -15 -321 0 -321 0
-36 15 c-25 11 -72 15 -165 15 -92 0 -139 4 -165 15 -27 11 -77 15 -210 15
-132 0 -182 4 -210 15 -19 8 -53 15 -75 15 -21 0 -55 7 -75 15 -19 8 -53 15
-75 15 -21 0 -55 7 -75 15 -19 8 -52 15 -72 15 -20 0 -56 6 -81 14 -87 28
-136 38 -205 45 -38 3 -80 13 -91 20 -32 21 -54 64 -54 108 0 36 -21 102 -70
223 -13 30 -30 73 -39 95 -24 58 -98 155 -119 155 -22 0 -42 19 -42 40 0 19
-90 110 -109 110 -7 0 -34 18 -59 41 -69 61 -121 88 -250 131 -64 21 -125 43
-134 48 -21 12 -306 12 -328 1z m315 -172 c33 -11 83 -30 110 -43 28 -13 65
-27 84 -31 20 -4 51 -25 80 -54 25 -26 63 -58 83 -71 20 -14 49 -44 65 -68 15
-25 48 -63 73 -86 37 -32 51 -55 68 -106 11 -36 32 -90 46 -121 29 -62 26 -86
-10 -95 -41 -10 -215 58 -295 116 -23 16 -48 30 -56 30 -28 0 -138 57 -222
115 -46 32 -99 62 -117 67 -39 10 -200 154 -226 201 -21 37 -24 112 -5 124 71
45 224 56 322 22z m430 -789 c37 -16 73 -30 81 -30 24 0 36 -36 18 -54 -23
-24 -56 -19 -102 14 -23 17 -45 30 -49 30 -5 0 -19 9 -33 19 l-24 19 13 16
c18 21 18 21 96 -14z"/>
</g>
</svg>
