<?xml version="1.0" standalone="no"?>
<!DOCTYPE svg PUBLIC "-//W3C//DTD SVG 20010904//EN"
 "http://www.w3.org/TR/2001/REC-SVG-20010904/DTD/svg10.dtd">
<svg version="1.0" xmlns="http://www.w3.org/2000/svg"
 width="615.000000pt" height="246.000000pt" viewBox="0 0 615.000000 246.000000"
 preserveAspectRatio="xMidYMid meet">
<metadata>
Created by potrace 1.16, written by Peter Selinger 2001-2019
</metadata>
<g transform="translate(0.000000,246.000000) scale(0.100000,-0.100000)"
fill="#000000" stroke="none">
<path d="M78 2417 c-14 -23 -34 -60 -43 -82 -10 -22 -21 -48 -26 -57 -12 -23
-12 -191 0 -203 5 -6 11 -32 14 -60 6 -58 16 -98 64 -249 40 -129 53 -156 103
-216 21 -25 46 -61 55 -80 9 -19 32 -51 50 -70 18 -19 52 -63 75 -98 23 -34
54 -69 69 -76 14 -8 57 -50 95 -95 103 -121 214 -211 259 -211 7 0 25 -12 40
-28 14 -15 73 -49 129 -76 108 -51 120 -56 233 -117 39 -21 126 -56 195 -78
69 -23 149 -53 178 -66 29 -14 63 -25 75 -25 13 0 61 -13 107 -30 62 -22 103
-30 153 -30 51 0 82 -6 123 -25 30 -14 130 -50 222 -80 179 -60 256 -92 306
-130 32 -24 141 -65 174 -65 10 0 56 -13 102 -30 53 -18 105 -30 138 -30 29 0
69 -7 89 -15 19 -8 60 -15 90 -15 29 0 70 -7 90 -15 19 -8 53 -15 75 -15 21 0
55 -7 75 -15 l35 -15 269 0 c168 0 270 -4 274 -10 9 -14 1181 -14 1190 0 4 6
99 10 254 10 193 0 251 3 266 14 l18 13 -21 19 c-12 10 -22 24 -22 31 0 16 77
73 98 73 31 0 139 68 198 125 35 33 79 73 100 89 20 17 47 53 61 85 14 31 30
64 34 73 5 10 9 77 9 149 l0 131 -20 25 c-11 14 -22 41 -26 60 -5 28 -19 44
-66 79 -71 52 -99 55 -139 15 -36 -37 -36 -54 1 -133 l30 -63 0 -100 c0 -118
-12 -150 -88 -238 -63 -74 -70 -78 -167 -110 -44 -14 -119 -44 -166 -66 -47
-23 -98 -41 -111 -41 -14 0 -42 -7 -61 -15 -23 -9 -68 -15 -120 -15 -55 0 -98
-6 -122 -16 l-38 -16 -574 1 -575 1 -35 15 c-28 12 -89 15 -300 15 l-264 0
-36 15 c-19 8 -59 15 -87 15 -28 0 -71 6 -96 14 -57 18 -123 35 -175 45 -81
16 -195 63 -195 81 0 5 10 12 23 15 12 4 43 20 68 36 25 16 53 29 62 29 25 0
74 47 122 119 l45 67 0 57 c0 58 -26 150 -60 216 -31 60 -128 146 -210 187
-73 36 -123 69 -185 124 -16 14 -57 34 -90 45 -33 10 -84 29 -113 42 -94 41
-170 63 -221 63 -28 0 -69 7 -91 16 -50 20 -67 18 -253 -35 l-58 -16 -60 -74
-59 -75 0 -92 0 -92 71 -147 72 -146 -14 -14 -14 -14 -177 59 c-98 33 -188 60
-200 60 -13 0 -36 9 -53 21 -40 27 -182 99 -196 99 -24 0 -138 60 -218 115
-46 32 -99 62 -117 67 -19 5 -42 20 -51 34 -40 58 -87 105 -112 111 -40 9 -51
22 -51 60 l0 34 -70 71 c-38 39 -94 108 -124 152 -30 45 -66 92 -80 105 -14
14 -26 35 -26 48 0 13 -27 103 -60 201 -33 98 -60 194 -60 213 0 19 12 59 26
89 39 83 56 149 49 186 l-6 34 -62 0 -62 -1 -27 -42z m2109 -1212 c19 -8 46
-15 60 -15 13 0 53 -17 88 -39 35 -21 97 -48 137 -61 l73 -23 72 -73 c39 -41
75 -74 80 -74 19 0 77 -66 96 -109 37 -84 5 -151 -99 -201 l-65 -32 -42 16
c-33 12 -80 16 -202 16 l-160 0 -69 46 c-134 88 -226 190 -296 329 -39 79 -17
159 58 210 l37 25 98 0 c64 0 110 -5 134 -15z"/>
</g>
</svg>
