<?xml version="1.0" standalone="no"?>
<!DOCTYPE svg PUBLIC "-//W3C//DTD SVG 20010904//EN"
 "http://www.w3.org/TR/2001/REC-SVG-20010904/DTD/svg10.dtd">
<svg version="1.0" xmlns="http://www.w3.org/2000/svg"
 width="957.000000pt" height="144.000000pt" viewBox="0 0 957.000000 144.000000"
 preserveAspectRatio="xMidYMid meet">
<metadata>
Created by potrace 1.16, written by Peter Selinger 2001-2019
</metadata>
<g transform="translate(0.000000,144.000000) scale(0.100000,-0.100000)"
fill="#000000" stroke="none">
<path d="M5495 1430 c-3 -5 -17 -10 -31 -10 -67 0 -104 -62 -104 -175 0 -95
19 -137 103 -222 38 -39 58 -66 52 -72 -6 -5 -50 -23 -100 -40 -65 -23 -107
-31 -156 -31 -54 0 -81 -6 -132 -30 l-65 -30 -102 0 c-60 0 -110 -5 -123 -12
-12 -7 -67 -16 -122 -20 -117 -10 -124 -10 -233 -2 l-82 6 -45 -45 -45 -44 0
-80 0 -81 -72 -56 c-40 -30 -86 -66 -103 -79 -30 -24 -146 -67 -179 -67 -9 0
-76 -20 -149 -45 -73 -25 -142 -45 -154 -45 -11 0 -37 -7 -56 -15 -27 -11 -77
-15 -195 -15 -119 0 -169 -4 -195 -15 l-36 -15 -291 0 -291 0 -36 15 c-25 11
-72 15 -165 15 -92 0 -139 4 -165 15 -20 8 -66 15 -105 15 -38 0 -84 7 -105
15 -19 8 -59 15 -87 15 -32 0 -84 11 -136 30 -53 18 -105 30 -138 30 -29 0
-69 7 -89 15 -19 8 -52 15 -72 15 -39 0 -214 56 -299 95 -29 14 -64 25 -78 25
-13 0 -41 7 -61 15 -19 8 -47 15 -61 15 -14 0 -95 34 -179 75 -85 41 -159 75
-166 75 -7 0 -25 9 -42 21 -44 30 -182 99 -198 99 -8 0 -48 33 -90 74 -41 41
-90 82 -108 91 -17 10 -50 30 -72 46 -31 23 -51 29 -89 29 l-48 0 0 -53 0 -53
53 -55 c28 -30 81 -72 117 -93 36 -21 81 -52 102 -70 20 -17 55 -44 78 -61 23
-16 56 -40 73 -53 17 -12 42 -25 56 -29 14 -3 40 -18 56 -33 39 -36 57 -45
155 -76 46 -15 113 -42 151 -60 93 -45 180 -74 226 -74 24 0 72 -17 131 -45
52 -25 104 -45 115 -45 12 0 42 -6 67 -14 77 -24 133 -37 190 -45 30 -4 71
-12 90 -18 67 -21 125 -35 185 -42 34 -5 70 -13 82 -19 12 -7 40 -12 63 -12
22 0 57 -7 77 -15 24 -10 71 -15 150 -15 78 0 125 -5 150 -15 l35 -15 269 0
c168 0 270 -4 274 -10 8 -13 102 -13 110 0 4 6 92 10 231 10 151 0 232 4 247
12 12 6 48 14 82 19 70 9 118 21 240 60 50 16 98 29 108 29 28 0 227 70 290
102 128 64 257 173 257 217 0 22 16 36 52 45 15 3 42 24 59 46 l32 40 57 0
c32 0 74 7 93 15 20 8 62 15 92 15 31 0 66 5 78 12 12 7 63 15 112 19 85 6
133 16 215 42 19 6 60 14 90 18 57 8 113 21 190 45 32 10 99 14 240 14 l194 0
91 -29 c99 -32 160 -48 220 -60 22 -4 56 -12 75 -18 92 -29 132 -36 220 -40
74 -3 99 -8 115 -23 20 -18 45 -23 190 -38 44 -5 90 -14 102 -20 13 -7 68 -12
138 -12 80 0 127 -5 152 -15 28 -12 82 -15 252 -15 l216 0 27 -32 26 -33 49
18 c59 21 132 22 180 2 26 -11 76 -15 197 -15 l161 0 85 31 c81 29 151 41 320
58 42 4 81 11 89 15 7 5 31 3 54 -4 l42 -11 155 51 c85 29 169 59 185 67 39
19 151 137 176 185 10 20 23 39 29 43 6 4 10 61 10 143 l0 137 -41 48 c-56 65
-125 99 -191 95 -84 -5 -89 -40 -18 -145 45 -68 48 -93 22 -168 -19 -55 -97
-165 -117 -165 -7 0 -55 -20 -107 -45 l-93 -45 -86 0 c-54 0 -100 -6 -122 -15
-23 -9 -68 -15 -120 -15 -53 0 -98 -6 -120 -15 l-36 -15 -486 0 -486 0 -36 15
c-27 12 -81 15 -240 15 -158 0 -212 3 -240 15 -22 9 -67 15 -120 15 l-85 0
-65 30 c-35 17 -75 30 -89 30 -14 0 -41 7 -61 15 -22 9 -67 15 -117 15 -65 0
-99 6 -166 30 -47 16 -102 30 -123 30 -22 0 -68 13 -104 30 -35 17 -70 30 -77
30 -26 0 -36 26 -36 92 0 88 -33 193 -69 216 -14 9 -46 38 -71 64 -25 25 -65
56 -90 69 -25 12 -57 31 -72 41 -20 14 -45 18 -116 18 -50 0 -94 -4 -97 -10z
m171 -232 c43 -32 94 -93 94 -112 0 -21 -1 -21 -68 10 -70 33 -102 61 -102 89
0 42 30 47 76 13z"/>
</g>
</svg>
