<?xml version="1.0" standalone="no"?>
<!DOCTYPE svg PUBLIC "-//W3C//DTD SVG 20010904//EN"
 "http://www.w3.org/TR/2001/REC-SVG-20010904/DTD/svg10.dtd">
<svg version="1.0" xmlns="http://www.w3.org/2000/svg"
 width="999.000000pt" height="219.000000pt" viewBox="0 0 999.000000 219.000000"
 preserveAspectRatio="xMidYMid meet">
<metadata>
Created by potrace 1.16, written by Peter Selinger 2001-2019
</metadata>
<g transform="translate(0.000000,219.000000) scale(0.100000,-0.100000)"
fill="#000000" stroke="none">
<path d="M0 2140 c0 -28 5 -50 10 -50 6 0 21 -11 34 -23 13 -13 43 -35 67 -49
24 -14 53 -36 64 -48 21 -23 86 -60 106 -60 7 0 64 -25 127 -55 117 -57 217
-95 250 -95 21 0 120 -33 178 -60 72 -33 162 -60 199 -60 20 0 52 -7 72 -15
19 -8 52 -15 71 -15 20 0 77 -13 127 -29 103 -33 160 -49 227 -61 26 -5 56
-13 67 -19 11 -6 45 -11 76 -11 30 0 72 -7 92 -15 22 -9 67 -15 119 -15 45 0
95 -5 111 -12 28 -11 66 -18 218 -37 44 -5 218 -10 386 -10 l307 -1 35 15 c23
9 68 15 120 15 53 0 98 6 120 15 23 9 68 15 120 15 53 0 98 6 120 15 20 8 48
15 62 15 28 0 152 59 200 95 17 12 54 34 82 49 35 17 62 40 78 66 14 22 31 40
38 40 15 0 55 -41 79 -80 9 -14 36 -38 60 -54 24 -15 58 -49 75 -75 17 -26 51
-59 75 -75 23 -15 56 -45 71 -67 16 -22 50 -50 76 -64 27 -13 72 -46 102 -72
65 -58 129 -103 189 -133 25 -12 65 -39 90 -60 25 -20 65 -47 90 -60 25 -13
59 -33 75 -46 17 -12 80 -48 140 -79 61 -31 135 -72 165 -91 30 -19 71 -39 90
-44 49 -13 133 -55 182 -90 22 -17 47 -30 55 -30 8 0 44 -14 80 -30 35 -17 81
-30 101 -30 20 0 57 -6 82 -14 78 -25 133 -37 195 -45 34 -5 70 -13 82 -19 12
-7 47 -12 78 -12 30 0 72 -7 92 -15 23 -10 69 -15 135 -15 l100 0 65 -30 c35
-16 70 -30 76 -30 7 0 28 -11 48 -24 36 -25 235 -96 267 -96 23 0 123 -34 190
-66 29 -13 64 -24 78 -24 13 0 41 -7 61 -15 19 -8 53 -15 75 -15 21 0 55 -7
75 -15 24 -10 71 -15 150 -15 78 0 125 -5 150 -15 19 -8 60 -15 90 -15 29 0
70 -7 90 -15 22 -9 67 -15 119 -15 45 0 94 -4 108 -10 14 -5 54 -9 88 -9 35 0
92 0 127 0 43 0 69 -5 81 -16 19 -17 95 -21 105 -5 8 13 62 13 70 0 8 -13 102
-13 110 0 3 5 33 10 66 10 33 0 70 6 82 12 13 7 80 15 157 19 128 6 167 12
270 45 25 8 68 14 96 14 28 0 68 7 87 15 20 8 49 15 64 15 18 0 61 22 118 61
49 34 120 76 157 95 l68 34 31 50 c17 28 39 56 48 63 26 17 61 91 61 126 0 16
5 33 10 36 13 8 13 72 0 80 -5 3 -10 22 -10 40 0 24 -9 45 -32 70 -33 38 -173
115 -209 115 -11 0 -34 -13 -50 -29 -43 -44 -40 -90 10 -147 55 -63 58 -82 21
-167 -52 -119 -54 -121 -94 -134 -20 -7 -58 -30 -84 -51 -26 -21 -58 -43 -72
-50 -46 -21 -144 -52 -166 -52 -12 0 -64 -20 -116 -45 l-93 -45 -146 0 c-107
0 -156 -4 -182 -15 -51 -21 -303 -21 -354 0 -24 10 -71 15 -150 15 -78 0 -125
5 -150 15 -23 10 -69 15 -135 15 -65 0 -111 5 -135 15 -20 8 -66 15 -105 15
-38 0 -84 7 -105 15 -19 8 -60 15 -90 15 -29 0 -70 7 -90 15 -19 8 -53 15 -75
15 -21 0 -55 7 -75 15 -19 8 -52 15 -72 15 -40 0 -126 27 -209 66 -29 13 -63
24 -75 24 -23 0 -123 31 -167 53 -14 6 -49 29 -77 51 -59 43 -62 55 -36 128
l17 47 -24 50 c-27 58 -177 211 -206 211 -11 0 -39 14 -64 30 -25 16 -58 30
-73 30 -15 0 -44 7 -64 15 -19 8 -49 15 -65 15 -41 0 -119 -42 -156 -85 l-32
-36 0 -50 c0 -56 24 -111 78 -177 l34 -42 -12 -15 c-18 -22 -30 -20 -177 30
-73 25 -140 45 -150 45 -36 0 -220 69 -278 105 -33 19 -71 38 -85 42 -50 11
-191 84 -229 118 -21 19 -44 35 -51 35 -25 0 -139 60 -225 119 -49 33 -97 61
-107 61 -9 0 -19 4 -23 10 -13 21 -157 131 -203 154 -27 14 -73 47 -103 73
-30 27 -70 59 -90 73 -21 13 -50 45 -67 70 -17 25 -50 58 -74 74 -61 38 -180
219 -214 324 -15 47 -34 86 -50 100 l-25 22 -69 0 -69 0 -19 -25 c-11 -13 -25
-39 -31 -57 -7 -18 -22 -55 -33 -83 -11 -27 -27 -69 -36 -93 -8 -24 -26 -51
-39 -60 -13 -9 -45 -34 -71 -55 -77 -62 -160 -95 -272 -107 -75 -8 -124 -19
-210 -46 -36 -11 -129 -14 -453 -14 l-408 0 -36 15 c-19 8 -59 15 -87 15 -32
0 -84 11 -136 30 l-85 30 -125 0 c-80 0 -141 5 -170 14 -57 18 -122 35 -180
46 -25 5 -76 20 -115 34 -38 14 -87 26 -108 26 -21 0 -54 7 -74 15 -19 8 -45
15 -57 15 -27 0 -123 32 -194 66 -29 13 -63 24 -75 24 -13 0 -61 13 -107 30
-47 16 -97 30 -111 30 -14 0 -36 11 -50 26 -31 33 -150 94 -185 94 -28 0 -158
58 -206 91 -17 13 -43 19 -77 19 l-51 0 0 -50z m6299 -1299 c37 -20 91 -87 91
-116 0 -20 -6 -19 -70 13 -33 17 -61 40 -73 60 l-19 32 12 15 c15 19 13 19 59
-4z"/>
</g>
</svg>
