<?xml version="1.0" standalone="no"?>
<!DOCTYPE svg PUBLIC "-//W3C//DTD SVG 20010904//EN"
 "http://www.w3.org/TR/2001/REC-SVG-20010904/DTD/svg10.dtd">
<svg version="1.0" xmlns="http://www.w3.org/2000/svg"
 width="825.000000pt" height="141.000000pt" viewBox="0 0 825.000000 141.000000"
 preserveAspectRatio="xMidYMid meet">
<metadata>
Created by potrace 1.16, written by Peter Selinger 2001-2019
</metadata>
<g transform="translate(0.000000,141.000000) scale(0.100000,-0.100000)"
fill="#000000" stroke="none">
<path d="M7952 1377 c-18 -49 -15 -73 18 -167 17 -46 30 -93 30 -105 0 -24
-55 -143 -78 -168 -18 -20 -92 -57 -114 -57 -7 0 -33 -14 -58 -30 -25 -16 -57
-30 -71 -30 -15 0 -43 -7 -62 -15 -23 -9 -68 -15 -120 -15 -53 0 -98 -6 -120
-15 -46 -19 -98 -19 -144 0 l-35 15 -445 0 -444 0 -36 15 c-26 11 -74 15 -180
15 -105 0 -153 4 -180 15 -20 8 -66 15 -105 15 -38 0 -84 7 -105 15 -19 8 -60
15 -90 15 -29 0 -70 7 -90 15 -19 8 -60 15 -90 15 -29 0 -70 7 -90 15 -23 10
-69 15 -137 15 l-101 0 -45 30 c-25 16 -56 30 -70 30 -14 0 -45 6 -70 14 -78
25 -133 37 -195 45 -34 5 -70 13 -82 19 -12 7 -40 12 -63 12 -22 0 -57 7 -77
15 -19 8 -53 15 -75 15 -22 0 -64 11 -94 25 -31 14 -131 50 -224 81 -130 43
-178 64 -208 90 -22 19 -48 34 -57 34 -30 0 -99 -23 -117 -38 -26 -22 -22 -79
10 -137 l27 -50 70 -37 c39 -21 90 -43 114 -49 53 -14 96 -56 136 -133 l30
-58 -23 -19 c-13 -10 -43 -24 -65 -31 -67 -19 -78 -33 -75 -97 l3 -55 34 -23
c19 -13 51 -28 71 -33 70 -19 129 -104 130 -186 0 -50 -5 -54 -92 -82 -37 -12
-87 -31 -110 -41 -103 -48 -161 -61 -259 -61 -63 0 -109 -5 -132 -15 l-36 -15
-636 0 -636 0 -36 15 c-24 10 -71 15 -150 15 -78 0 -125 5 -150 15 -22 9 -67
15 -117 15 -44 0 -101 6 -126 14 -94 30 -138 38 -225 45 -49 4 -100 12 -112
19 -12 7 -47 12 -78 12 -39 0 -73 8 -111 25 -31 14 -131 50 -224 81 -126 42
-178 64 -207 89 -49 41 -84 59 -177 90 -43 13 -109 46 -150 74 -41 27 -89 57
-108 66 -46 24 -194 124 -209 141 -16 20 -43 17 -64 -6 -10 -11 -24 -20 -32
-20 -8 0 -13 -13 -13 -38 l0 -38 72 -59 c113 -93 137 -110 225 -155 52 -26 94
-56 112 -79 l29 -36 76 -23 c42 -13 113 -41 157 -63 44 -21 84 -39 90 -39 6 0
40 -13 76 -30 35 -16 69 -30 75 -30 5 0 39 -14 75 -30 35 -17 69 -30 75 -30 5
0 39 -13 75 -30 l64 -30 70 0 c39 0 85 -7 106 -15 19 -8 60 -15 90 -15 29 0
70 -7 90 -15 19 -8 60 -15 90 -15 29 0 70 -7 90 -15 22 -9 67 -15 119 -15 45
0 95 -5 111 -12 27 -11 106 -24 208 -34 28 -3 237 -7 465 -10 250 -3 418 -8
424 -14 13 -13 283 -13 291 0 4 6 72 10 171 10 108 0 173 4 187 12 12 6 56 15
97 19 88 8 115 15 320 81 89 28 165 59 178 71 42 39 112 152 112 180 0 15 7
44 15 64 23 54 19 70 -28 121 -24 26 -51 58 -60 72 -21 31 -22 118 -2 167 8
19 15 51 15 70 0 46 16 73 43 73 13 0 61 -13 107 -30 67 -23 102 -30 165 -30
44 0 100 -6 125 -14 84 -27 135 -38 186 -43 41 -4 58 -11 80 -34 l28 -29 73 0
c43 0 89 -6 110 -15 24 -10 71 -15 150 -15 78 0 125 -5 150 -15 19 -8 60 -15
90 -15 29 0 70 -7 90 -15 20 -8 66 -15 105 -15 38 0 84 -7 105 -15 24 -10 71
-15 150 -15 78 0 125 -5 150 -15 27 -11 77 -15 209 -15 132 0 183 -4 212 -15
l38 -15 439 3 c326 2 452 6 485 16 139 41 176 54 281 105 64 31 123 56 132 56
9 0 35 26 59 58 23 31 57 74 75 95 21 24 33 48 33 66 0 17 5 33 10 36 6 3 10
42 10 85 0 43 -4 82 -10 85 -5 3 -10 20 -10 36 0 43 -43 121 -84 152 l-35 27
-73 0 -74 0 -12 -33z"/>
</g>
</svg>
