<?xml version="1.0" standalone="no"?>
<!DOCTYPE svg PUBLIC "-//W3C//DTD SVG 20010904//EN"
 "http://www.w3.org/TR/2001/REC-SVG-20010904/DTD/svg10.dtd">
<svg version="1.0" xmlns="http://www.w3.org/2000/svg"
 width="501.000000pt" height="195.000000pt" viewBox="0 0 501.000000 195.000000"
 preserveAspectRatio="xMidYMid meet">
<metadata>
Created by potrace 1.16, written by Peter Selinger 2001-2019
</metadata>
<g transform="translate(0.000000,195.000000) scale(0.100000,-0.100000)"
fill="#000000" stroke="none">
<path d="M337 1901 c-9 -27 -17 -63 -17 -81 l0 -32 81 -82 c122 -121 149 -172
103 -190 -28 -11 -65 15 -161 115 -105 108 -167 149 -229 149 l-37 0 -39 -42
-38 -41 0 -47 c0 -26 3 -50 7 -53 11 -12 43 -110 43 -134 0 -34 56 -141 100
-191 21 -23 43 -61 49 -85 l11 -42 248 -245 c226 -223 280 -271 432 -380 27
-19 59 -48 71 -63 11 -15 40 -37 62 -48 23 -12 105 -64 182 -115 78 -52 147
-94 155 -94 8 0 29 -9 45 -21 97 -66 339 -159 415 -159 21 0 42 -4 45 -10 3
-5 21 -10 40 -10 25 0 43 9 70 34 l36 35 -11 21 c-6 11 -21 25 -33 29 -12 5
-47 18 -77 31 -30 12 -73 29 -95 37 -22 7 -62 24 -90 37 -27 13 -61 26 -75 29
-14 3 -44 22 -67 41 -22 20 -76 53 -119 75 -44 22 -106 62 -139 90 -33 28 -80
61 -105 75 -25 13 -73 49 -108 80 -34 31 -67 56 -72 56 -4 0 -51 41 -104 90
-52 49 -100 90 -105 90 -16 0 -156 136 -186 182 -16 24 -58 73 -92 110 -34 37
-69 81 -78 98 -8 16 -20 30 -25 30 -6 0 -10 7 -10 16 l0 16 33 -7 c17 -3 73
-9 123 -12 l90 -5 62 78 62 78 0 38 c0 85 32 96 137 48 35 -16 69 -30 75 -30
5 0 39 -13 75 -30 35 -16 75 -30 89 -30 14 0 41 -7 61 -15 19 -8 51 -15 71
-15 19 0 116 -27 216 -59 216 -70 252 -80 331 -90 34 -5 70 -13 82 -19 12 -7
40 -12 63 -12 22 0 57 -7 77 -15 19 -8 52 -15 72 -15 20 0 75 -13 121 -30 62
-21 104 -30 153 -30 37 0 84 -7 104 -15 24 -10 71 -15 150 -15 78 0 125 -5
150 -15 19 -8 60 -15 90 -15 29 0 70 -7 90 -15 26 -11 74 -15 180 -15 105 0
153 -4 180 -15 l35 -15 373 0 373 0 35 15 c20 8 60 15 89 15 33 0 85 12 138
30 46 17 101 30 122 30 47 0 163 56 228 110 25 21 64 47 87 59 29 14 54 38 77
75 19 30 39 57 45 61 30 18 51 90 51 173 l0 83 -67 86 c-40 50 -83 93 -105
104 -51 26 -127 25 -162 -2 -37 -29 -33 -62 13 -117 52 -61 71 -109 71 -174
l0 -53 -46 -69 c-25 -38 -53 -76 -62 -83 -32 -26 -160 -83 -186 -83 -14 0 -49
-11 -78 -24 -100 -47 -170 -66 -239 -66 -37 0 -83 -7 -102 -15 l-36 -15 -276
0 -276 0 -36 15 c-24 10 -71 15 -150 15 -78 0 -125 5 -150 15 -22 9 -67 15
-120 15 -52 0 -97 6 -120 15 -19 8 -60 15 -90 15 -29 0 -70 7 -90 15 -20 8
-66 15 -105 15 -38 0 -84 7 -105 15 -19 8 -65 15 -102 15 -36 0 -86 6 -111 14
-60 19 -125 35 -182 46 -26 5 -56 13 -67 19 -11 6 -37 11 -58 11 -21 0 -58 6
-83 14 -86 27 -136 38 -210 46 -48 5 -94 17 -127 34 -29 14 -58 26 -64 26 -6
0 -40 14 -76 30 -35 17 -75 30 -89 30 -14 0 -41 7 -61 15 -19 8 -47 15 -60 15
-14 0 -54 14 -90 30 -35 17 -70 30 -76 30 -7 0 -29 11 -48 24 -40 27 -146 66
-180 66 -32 0 -89 29 -141 72 -26 21 -64 44 -85 51 -27 8 -42 21 -53 44 l-15
33 -80 0 -80 0 -18 -49z"/>
</g>
</svg>
