<?xml version="1.0" standalone="no"?>
<!DOCTYPE svg PUBLIC "-//W3C//DTD SVG 20010904//EN"
 "http://www.w3.org/TR/2001/REC-SVG-20010904/DTD/svg10.dtd">
<svg version="1.0" xmlns="http://www.w3.org/2000/svg"
 width="1092.000000pt" height="210.000000pt" viewBox="0 0 1092.000000 210.000000"
 preserveAspectRatio="xMidYMid meet">
<metadata>
Created by potrace 1.16, written by Peter Selinger 2001-2019
</metadata>
<g transform="translate(0.000000,210.000000) scale(0.100000,-0.100000)"
fill="#000000" stroke="none">
<path d="M395 2090 c-3 -5 -33 -10 -66 -10 -43 0 -73 -7 -107 -24 -26 -13 -66
-29 -89 -35 -46 -12 -113 -78 -113 -110 0 -11 -4 -23 -10 -26 -6 -4 -10 -83
-10 -205 0 -122 4 -201 10 -205 6 -3 10 -17 10 -31 0 -55 91 -267 155 -361 14
-21 25 -44 25 -51 0 -27 40 -90 74 -116 22 -16 39 -40 45 -63 6 -23 38 -65 86
-117 127 -135 189 -203 214 -236 13 -17 42 -43 64 -57 22 -14 61 -44 86 -67
25 -23 69 -57 96 -75 28 -19 65 -48 82 -64 31 -29 49 -41 173 -112 29 -16 77
-47 109 -67 35 -24 68 -38 88 -38 17 0 35 -5 38 -10 3 -6 26 -10 51 -10 33 0
44 4 44 15 0 31 -42 97 -72 113 -61 34 -224 145 -255 175 -18 17 -54 42 -80
56 -26 14 -60 45 -77 69 -17 23 -53 56 -79 73 -27 18 -65 52 -85 78 -20 25
-58 66 -84 91 -25 25 -55 63 -66 86 -12 22 -36 52 -55 67 -19 14 -44 45 -57
69 -12 24 -37 68 -57 98 -83 132 -108 186 -169 366 l-64 191 0 122 0 122 20
42 c45 95 68 107 204 107 l109 0 136 -44 c147 -48 201 -63 272 -76 26 -5 69
-20 97 -34 28 -14 57 -26 64 -26 7 0 33 -14 58 -30 25 -16 52 -30 61 -30 21 0
193 -84 232 -114 18 -14 64 -35 102 -47 39 -12 81 -32 95 -45 66 -59 155 -124
169 -124 20 0 84 -42 131 -85 19 -18 51 -41 70 -50 19 -9 55 -34 80 -54 25
-20 79 -59 120 -86 41 -27 107 -77 145 -111 39 -33 82 -64 97 -67 15 -4 61
-39 102 -77 42 -39 83 -70 92 -70 8 0 41 -26 73 -57 53 -54 85 -79 197 -158
24 -17 91 -77 149 -133 67 -66 112 -102 126 -102 13 0 38 -17 60 -41 40 -43
116 -78 172 -79 30 0 116 40 135 63 7 8 19 36 27 63 l14 49 -11 40 c-7 22 -29
60 -50 84 -50 58 -128 176 -128 195 0 44 139 64 217 31 22 -9 67 -15 120 -15
52 0 97 -6 120 -15 19 -8 60 -15 90 -15 29 0 70 -7 90 -15 22 -9 67 -15 120
-15 52 0 97 -6 120 -15 25 -11 72 -15 165 -15 92 0 139 -4 165 -15 19 -8 53
-15 75 -15 21 0 55 -7 75 -15 20 -8 66 -15 105 -15 38 0 84 -7 105 -15 19 -8
60 -15 90 -15 29 0 70 -7 90 -15 24 -10 71 -15 150 -15 78 0 125 -5 150 -15
l35 -15 267 0 267 0 83 -40 c87 -42 102 -43 145 -9 l26 20 0 49 c0 27 -5 61
-10 76 -17 43 7 120 45 147 l30 22 106 3 c80 3 115 0 144 -12 20 -9 47 -16 58
-16 12 0 62 -13 112 -29 98 -32 159 -48 220 -60 22 -4 117 -33 210 -63 216
-71 244 -78 335 -88 41 -4 107 -20 145 -34 92 -34 169 -35 233 -2 26 13 66 29
89 35 50 14 83 52 83 95 0 18 5 37 12 44 30 30 184 0 297 -57 22 -12 52 -21
66 -21 14 0 42 -7 62 -15 19 -8 53 -15 75 -15 21 0 55 -7 75 -15 19 -8 45 -15
56 -15 12 0 81 -20 154 -45 73 -25 148 -45 168 -45 20 0 52 -7 72 -15 19 -8
60 -15 90 -15 29 0 70 -7 90 -15 19 -8 60 -15 90 -15 29 0 70 -7 90 -15 20 -8
66 -15 105 -15 38 0 84 -7 105 -15 19 -8 53 -15 74 -15 21 0 56 -7 77 -15 l38
-16 245 4 c287 4 301 7 541 110 57 24 115 82 163 161 l35 58 0 85 c0 66 -4 91
-18 111 -11 15 -32 53 -48 86 -16 32 -46 73 -67 92 l-37 34 -68 0 c-81 0 -102
-15 -102 -75 l0 -39 45 -42 45 -41 0 -116 0 -115 -55 -41 c-77 -58 -171 -101
-221 -101 -23 0 -58 -7 -77 -15 -51 -21 -303 -21 -354 0 -22 9 -67 15 -120 15
-52 0 -97 6 -120 15 -19 8 -59 15 -87 15 -28 0 -71 6 -96 14 -78 25 -133 37
-195 45 -34 5 -70 13 -82 19 -12 7 -52 12 -89 12 -54 0 -95 9 -201 45 -73 25
-141 45 -151 45 -10 0 -56 13 -102 30 -47 16 -101 30 -120 30 -20 0 -74 13
-120 30 -47 16 -94 30 -105 30 -12 0 -59 13 -105 30 -47 16 -94 30 -105 30
-26 0 -153 43 -204 69 -22 12 -46 21 -53 21 -7 0 -33 14 -58 30 l-45 30 -68 0
-69 0 -29 -29 c-16 -17 -29 -40 -29 -54 0 -37 36 -75 83 -88 63 -17 113 -45
163 -92 50 -47 53 -59 22 -81 -28 -20 -88 -20 -135 -1 -19 8 -53 15 -75 15
-21 0 -55 7 -75 15 -19 8 -53 15 -75 15 -21 0 -55 7 -75 15 -19 8 -45 15 -57
15 -12 0 -60 13 -106 30 -47 16 -96 30 -110 30 -14 0 -45 14 -70 30 -32 22
-57 30 -88 30 -23 0 -59 7 -79 15 -19 8 -52 15 -72 15 -20 0 -56 6 -81 14 -25
8 -65 20 -90 27 -59 17 -272 17 -330 0 -25 -7 -75 -22 -112 -33 l-67 -20 -51
-54 c-27 -29 -50 -61 -50 -71 0 -41 -13 -43 -287 -43 l-264 0 -36 15 c-27 12
-79 15 -225 15 -145 0 -197 3 -225 15 -20 8 -66 15 -105 15 -38 0 -84 7 -105
15 -19 8 -53 15 -75 15 -21 0 -55 7 -75 15 -19 8 -60 15 -90 15 -29 0 -70 7
-90 15 -22 9 -67 15 -120 15 -52 0 -97 6 -120 15 -25 11 -72 15 -165 15 -92 0
-139 4 -165 15 -20 8 -66 15 -105 15 -38 0 -84 7 -105 15 -19 8 -60 15 -90 15
-29 0 -70 7 -90 15 -19 8 -60 15 -90 15 -29 0 -70 7 -90 15 -19 8 -59 15 -87
15 -28 0 -72 7 -98 17 l-46 16 -31 -13 c-60 -24 -81 -48 -81 -90 0 -43 23 -67
82 -89 55 -21 61 -26 85 -72 13 -24 40 -60 62 -79 46 -41 77 -98 63 -112 -15
-15 -63 12 -87 48 -11 17 -51 51 -89 75 -38 24 -92 65 -120 90 -28 25 -85 67
-126 94 -41 27 -95 68 -120 90 -25 22 -67 56 -95 74 -27 19 -63 47 -80 62 -16
15 -51 43 -77 61 -49 34 -137 100 -223 165 -83 63 -139 100 -191 126 -27 14
-77 50 -112 81 -34 31 -70 56 -78 56 -15 0 -98 46 -204 113 -30 19 -98 56
-150 82 -52 26 -108 58 -125 70 -16 13 -85 42 -153 64 -67 22 -139 52 -159 66
-21 14 -49 25 -63 25 -14 0 -64 13 -110 30 -47 16 -101 30 -120 30 -20 0 -74
13 -120 30 -64 22 -103 30 -157 30 -39 0 -75 5 -78 10 -3 6 -21 10 -40 10 -19
0 -37 -4 -40 -10z"/>
</g>
</svg>
