<?xml version="1.0" standalone="no"?>
<!DOCTYPE svg PUBLIC "-//W3C//DTD SVG 20010904//EN"
 "http://www.w3.org/TR/2001/REC-SVG-20010904/DTD/svg10.dtd">
<svg version="1.0" xmlns="http://www.w3.org/2000/svg"
 width="693.000000pt" height="99.000000pt" viewBox="0 0 693.000000 99.000000"
 preserveAspectRatio="xMidYMid meet">
<metadata>
Created by potrace 1.16, written by Peter Selinger 2001-2019
</metadata>
<g transform="translate(0.000000,99.000000) scale(0.100000,-0.100000)"
fill="#000000" stroke="none">
<path d="M305 980 c-3 -5 -40 -10 -80 -10 -56 0 -86 -5 -120 -22 -25 -12 -45
-25 -45 -30 0 -4 -13 -23 -30 -41 l-30 -35 0 -54 0 -54 28 -26 c34 -33 84 -58
114 -58 13 0 43 -6 68 -14 87 -28 136 -38 210 -45 41 -4 85 -13 97 -19 15 -9
108 -12 315 -12 l294 0 49 -18 c78 -27 75 -21 75 -152 l0 -119 -27 -19 c-16
-10 -66 -38 -113 -62 -100 -50 -120 -66 -120 -95 0 -39 18 -45 138 -45 l115 0
97 96 98 96 22 69 23 70 -6 95 -5 94 18 10 c10 6 97 10 193 10 133 0 183 4
210 15 l36 15 294 0 295 0 37 16 37 15 47 -15 c77 -24 133 -37 191 -45 35 -4
70 -17 95 -34 22 -15 46 -27 53 -27 8 0 43 -14 79 -30 35 -17 69 -30 74 -30 6
0 40 -18 77 -40 37 -23 78 -43 92 -46 14 -2 43 -9 65 -15 22 -6 60 -14 85 -19
25 -5 63 -18 85 -28 52 -26 159 -62 183 -62 10 0 56 -13 102 -30 53 -18 105
-30 138 -30 29 0 69 -7 89 -15 19 -8 45 -15 57 -15 12 0 60 -13 106 -30 47
-16 102 -30 123 -30 21 0 54 -7 74 -15 19 -8 60 -15 90 -15 29 0 70 -7 90 -15
25 -11 72 -15 165 -15 92 0 139 -4 165 -15 19 -8 55 -15 79 -15 23 0 46 -4 49
-10 9 -14 99 -12 113 2 10 10 17 10 32 0 25 -15 585 -17 595 -2 4 6 61 10 139
10 96 0 144 4 169 15 20 8 67 15 104 15 49 0 91 9 153 30 46 17 96 30 111 30
14 0 44 13 66 29 22 16 60 39 83 51 120 61 211 142 254 226 15 29 36 60 46 69
l20 18 0 112 0 112 -47 40 c-92 77 -137 89 -194 50 -42 -28 -46 -53 -19 -107
l22 -42 -7 -61 c-4 -33 -17 -87 -29 -121 l-22 -61 -99 -67 c-124 -84 -173
-108 -222 -108 -21 0 -76 -14 -123 -30 l-84 -30 -112 0 c-77 0 -123 -5 -147
-15 l-36 -15 -335 0 c-213 0 -345 4 -363 11 -15 6 -95 14 -178 19 -202 13
-385 34 -412 48 -12 7 -52 12 -89 12 -54 0 -95 9 -201 45 -73 25 -147 45 -165
45 -18 0 -53 6 -78 14 -58 18 -123 35 -180 46 -25 5 -69 20 -97 34 -29 14 -58
26 -64 26 -6 0 -40 13 -76 30 -35 16 -70 30 -76 30 -7 0 -54 20 -105 45 -52
25 -105 45 -119 45 -14 0 -54 14 -90 30 -35 17 -69 30 -74 30 -36 0 -126 57
-182 115 l-63 65 -81 0 c-49 0 -95 -6 -116 -15 -27 -11 -75 -15 -180 -15 -104
0 -154 -4 -179 -14 -24 -10 -86 -16 -189 -19 -85 -2 -166 -9 -181 -15 -16 -7
-122 -12 -265 -13 -170 -2 -247 -6 -270 -16 -49 -20 -68 -16 -162 28 -47 22
-140 58 -206 80 -66 22 -144 51 -173 64 -29 14 -71 25 -93 25 -22 0 -56 7 -76
15 -19 8 -62 15 -94 15 -32 0 -61 5 -64 10 -4 6 -53 10 -115 10 -62 0 -111 -4
-115 -10z m405 -204 c25 -10 47 -20 50 -22 25 -25 -168 -33 -210 -9 -14 8 -50
15 -80 15 -30 0 -62 5 -70 10 l-15 10 15 10 c25 17 258 7 310 -14z"/>
</g>
</svg>
