<?xml version="1.0" standalone="no"?>
<!DOCTYPE svg PUBLIC "-//W3C//DTD SVG 20010904//EN"
 "http://www.w3.org/TR/2001/REC-SVG-20010904/DTD/svg10.dtd">
<svg version="1.0" xmlns="http://www.w3.org/2000/svg"
 width="504.000000pt" height="87.000000pt" viewBox="0 0 504.000000 87.000000"
 preserveAspectRatio="xMidYMid meet">
<metadata>
Created by potrace 1.16, written by Peter Selinger 2001-2019
</metadata>
<g transform="translate(0.000000,87.000000) scale(0.100000,-0.100000)"
fill="#000000" stroke="none">
<path d="M4732 847 c-34 -36 -27 -60 30 -112 37 -33 57 -61 70 -98 23 -65 23
-99 -1 -167 l-19 -54 -58 -43 c-32 -24 -69 -53 -81 -65 -25 -24 -203 -88 -243
-88 -14 0 -43 -12 -65 -27 -31 -22 -58 -30 -120 -36 -90 -9 -92 -9 -233 -1
-81 5 -111 3 -143 -10 -55 -22 -304 -23 -356 -1 -26 11 -74 15 -179 15 -78 0
-154 4 -169 10 -17 7 -39 6 -69 -2 l-44 -12 -44 17 c-28 11 -73 17 -126 17
-51 0 -96 6 -119 15 -19 8 -60 15 -90 15 -29 0 -70 7 -90 15 -22 9 -67 15
-120 15 -52 0 -97 6 -120 15 -22 9 -67 15 -120 15 -52 0 -97 6 -120 15 -19 8
-52 15 -72 15 -20 0 -75 13 -121 30 -53 18 -105 30 -138 30 -29 0 -69 7 -89
15 -19 8 -53 15 -75 15 -21 0 -55 7 -75 15 -19 8 -58 15 -86 15 -32 0 -99 16
-186 44 -148 48 -201 63 -273 76 -26 5 -56 13 -67 19 -11 6 -45 11 -76 11 -59
0 -107 17 -160 56 -38 29 -144 64 -190 64 -20 0 -52 7 -72 15 -27 12 -80 15
-229 15 l-194 0 0 -69 0 -69 32 -24 c18 -14 47 -32 65 -41 17 -9 51 -34 75
-54 24 -21 73 -51 108 -67 114 -50 126 -57 176 -99 49 -42 100 -63 216 -88 63
-13 82 -9 98 20 l10 20 -62 65 c-41 41 -89 77 -137 102 -69 36 -112 76 -97 91
4 4 27 2 51 -5 25 -7 55 -12 68 -12 12 0 39 -11 58 -24 46 -32 148 -66 194
-66 20 0 52 -7 72 -15 19 -8 53 -15 75 -15 21 0 55 -7 75 -15 19 -8 45 -15 56
-15 12 0 62 -13 112 -29 122 -39 170 -51 240 -60 34 -5 70 -13 82 -19 12 -7
46 -12 75 -12 34 0 85 -11 138 -30 47 -16 102 -30 123 -30 21 0 54 -7 74 -15
19 -8 53 -15 75 -15 21 0 55 -7 75 -15 20 -8 66 -15 105 -15 38 0 84 -7 105
-15 24 -10 71 -15 150 -15 78 0 125 -5 150 -15 22 -9 67 -15 120 -15 52 0 97
-6 120 -15 22 -9 68 -15 124 -15 48 0 91 -4 94 -10 8 -14 1032 -14 1040 0 3 5
32 10 64 10 32 0 75 7 94 15 20 8 54 15 75 15 22 0 56 7 75 15 20 8 54 15 75
15 22 0 56 7 75 15 20 8 49 15 65 15 18 0 38 10 57 30 16 16 36 30 46 30 18 0
139 85 139 98 0 4 27 38 60 75 33 38 60 76 60 87 0 10 5 22 10 25 6 3 10 35
10 70 0 35 -4 67 -10 70 -5 3 -10 20 -10 38 0 53 -78 157 -151 200 -72 43
-107 46 -137 14z"/>
</g>
</svg>
