<?xml version="1.0" standalone="no"?>
<!DOCTYPE svg PUBLIC "-//W3C//DTD SVG 20010904//EN"
 "http://www.w3.org/TR/2001/REC-SVG-20010904/DTD/svg10.dtd">
<svg version="1.0" xmlns="http://www.w3.org/2000/svg"
 width="729.000000pt" height="171.000000pt" viewBox="0 0 729.000000 171.000000"
 preserveAspectRatio="xMidYMid meet">
<metadata>
Created by potrace 1.16, written by Peter Selinger 2001-2019
</metadata>
<g transform="translate(0.000000,171.000000) scale(0.100000,-0.100000)"
fill="#000000" stroke="none">
<path d="M7100 1666 c0 -24 7 -60 15 -79 8 -20 15 -46 15 -58 0 -32 -55 -143
-101 -204 l-41 -55 -90 -45 c-50 -25 -103 -45 -118 -45 -15 0 -44 -7 -63 -15
-20 -8 -61 -15 -90 -15 -30 0 -71 -7 -90 -15 -20 -8 -61 -15 -90 -15 -30 0
-71 -7 -90 -15 l-36 -15 -471 0 -471 0 -36 15 c-23 10 -69 15 -135 15 -65 0
-111 5 -135 15 -26 11 -74 15 -180 15 -105 0 -153 4 -180 15 -26 11 -76 15
-195 15 -118 0 -168 4 -195 15 -19 8 -53 15 -75 15 -21 0 -55 7 -75 15 -19 8
-53 15 -75 15 -21 0 -55 7 -75 15 -19 8 -53 15 -75 15 -21 0 -55 7 -75 15 -19
8 -60 15 -90 15 -29 0 -70 7 -90 15 -20 9 -66 15 -107 15 l-71 0 -63 30 c-35
17 -80 30 -100 30 -20 0 -77 13 -127 29 -144 47 -175 53 -260 58 l-79 5 -41
44 c-31 33 -49 44 -71 44 -17 0 -68 13 -114 30 -66 23 -102 30 -163 30 l-78 0
-24 -25 c-30 -29 -30 -31 -5 -72 23 -39 51 -54 167 -91 104 -34 161 -62 223
-109 48 -37 139 -141 140 -159 0 -20 -30 -24 -67 -9 -19 8 -47 15 -62 15 -14
0 -55 14 -89 30 -35 17 -76 30 -90 30 -15 0 -56 14 -90 30 -35 17 -75 30 -88
30 -14 0 -41 7 -61 15 -19 8 -55 15 -78 15 -31 0 -73 15 -164 60 -67 33 -133
60 -147 60 -13 0 -41 7 -61 15 -19 8 -51 15 -71 15 -19 0 -97 20 -171 44 -169
55 -211 66 -286 75 -34 5 -70 13 -82 19 -13 7 -69 12 -138 12 -80 0 -127 5
-152 15 l-35 15 -283 0 -283 0 -35 -15 c-20 -8 -54 -15 -75 -15 -22 0 -56 -7
-75 -15 -20 -8 -50 -15 -67 -15 -36 0 -63 -25 -128 -119 l-42 -61 0 -70 0 -69
40 -57 c22 -32 40 -63 40 -71 0 -18 67 -151 95 -188 12 -16 40 -66 61 -109 28
-57 54 -92 91 -125 29 -25 53 -52 53 -59 0 -22 31 -75 70 -120 21 -23 64 -82
96 -130 32 -48 75 -107 95 -132 20 -25 47 -65 59 -90 13 -25 45 -69 71 -98 27
-30 52 -65 55 -78 l6 -24 39 0 38 0 16 30 c21 41 19 59 -15 110 -16 25 -30 52
-30 61 0 9 -13 34 -29 56 -16 22 -38 58 -49 79 -11 22 -32 50 -46 63 -14 14
-26 31 -26 38 0 24 -41 96 -82 145 -42 49 -48 90 -15 96 22 4 130 -45 187 -87
24 -18 55 -31 72 -31 16 0 45 -7 65 -15 28 -12 82 -15 249 -15 l213 0 36 32
c55 48 85 115 85 190 l0 63 -30 45 c-16 25 -30 51 -30 58 0 29 -42 92 -78 118
-22 16 -55 51 -73 78 -27 39 -45 54 -79 66 -33 11 -52 27 -73 58 l-29 43 -111
56 c-61 30 -125 65 -142 78 -32 23 -90 54 -139 74 -24 10 -27 14 -15 22 20 12
112 11 146 -2 15 -7 76 -13 135 -15 67 -2 120 -9 143 -18 21 -9 62 -16 92 -16
29 0 70 -7 90 -15 19 -8 65 -15 101 -15 l65 0 181 -59 c185 -60 241 -76 311
-90 64 -13 155 -46 232 -85 40 -20 83 -36 95 -36 13 0 43 -6 68 -14 60 -19
125 -35 181 -46 25 -4 83 -27 127 -49 45 -23 93 -41 107 -41 14 0 42 -7 62
-15 19 -8 49 -15 64 -15 32 0 158 59 178 84 10 11 12 44 10 118 l-4 103 65 -3
c36 -2 106 -16 155 -32 105 -33 162 -48 227 -60 26 -5 56 -13 67 -19 11 -6 45
-11 76 -11 30 0 72 -7 92 -15 22 -9 67 -15 120 -15 52 0 97 -6 120 -15 19 -8
53 -15 75 -15 21 0 55 -7 75 -15 19 -8 60 -15 90 -15 29 0 70 -7 90 -15 20 -8
66 -15 105 -15 38 0 84 -7 105 -15 23 -10 69 -15 135 -15 65 0 111 -5 135 -15
28 -12 86 -15 285 -15 198 0 256 -3 285 -15 l35 -15 328 0 328 0 35 15 c27 11
77 15 195 15 119 0 169 4 195 15 21 8 67 15 105 15 39 0 85 7 105 15 20 8 48
15 62 15 26 0 147 57 198 92 15 11 43 24 61 29 35 10 55 30 156 160 l60 77 0
115 0 115 -27 41 -27 41 -68 0 -68 0 0 -44z m-6540 -292 c30 -14 105 -42 165
-61 70 -23 121 -46 140 -64 17 -15 44 -30 62 -34 17 -3 51 -23 75 -43 24 -21
57 -46 73 -56 17 -11 52 -43 78 -72 29 -32 61 -57 79 -62 33 -8 35 -12 63 -79
10 -23 30 -54 46 -69 37 -35 49 -103 25 -139 l-16 -25 -131 0 c-93 0 -140 4
-166 15 -19 8 -48 15 -62 15 -15 0 -69 20 -120 45 -51 25 -97 45 -104 45 -6 0
-25 13 -42 28 -16 15 -57 37 -90 47 -46 15 -73 32 -116 75 -30 30 -70 65 -87
78 -18 13 -32 28 -32 33 0 5 -20 43 -45 83 l-45 75 0 71 0 71 25 24 24 25 73
0 c57 0 85 -6 128 -26z"/>
<path d="M1226 229 c-52 -41 -16 -119 55 -119 15 0 40 -6 56 -12 24 -11 221
-21 553 -28 78 -2 186 13 203 28 23 20 22 54 -4 87 l-22 27 -36 -6 c-95 -17
-187 -18 -225 -2 -29 12 -72 16 -168 16 -92 0 -139 4 -165 15 -23 10 -68 15
-128 15 l-92 0 -27 -21z"/>
</g>
</svg>
