<?xml version="1.0" standalone="no"?>
<!DOCTYPE svg PUBLIC "-//W3C//DTD SVG 20010904//EN"
 "http://www.w3.org/TR/2001/REC-SVG-20010904/DTD/svg10.dtd">
<svg version="1.0" xmlns="http://www.w3.org/2000/svg"
 width="639.000000pt" height="135.000000pt" viewBox="0 0 639.000000 135.000000"
 preserveAspectRatio="xMidYMid meet">
<metadata>
Created by potrace 1.16, written by Peter Selinger 2001-2019
</metadata>
<g transform="translate(0.000000,135.000000) scale(0.100000,-0.100000)"
fill="#000000" stroke="none">
<path d="M23 1320 c-23 -29 -30 -68 -15 -85 5 -6 19 -43 32 -82 l22 -73 40
-32 c22 -18 61 -54 87 -80 26 -27 54 -48 62 -48 9 0 26 -12 40 -26 13 -14 45
-37 71 -50 26 -13 55 -35 64 -49 l16 -25 -18 -51 -18 -51 47 -92 c44 -87 96
-154 143 -187 11 -8 36 -36 55 -64 l35 -50 50 -15 c35 -11 64 -30 101 -67 29
-29 60 -53 70 -53 10 0 59 -20 108 -43 50 -24 103 -47 119 -51 17 -4 42 -16
57 -27 l27 -19 89 0 89 0 12 33 c16 44 15 62 -4 78 -20 16 -112 48 -142 49
-29 0 -86 26 -127 56 -16 12 -73 44 -125 70 -62 31 -115 67 -155 105 -33 32
-73 68 -90 81 -16 12 -36 29 -43 38 -18 20 -72 136 -72 153 0 7 16 32 35 54
19 23 35 52 35 66 0 32 -40 91 -65 95 -46 8 -163 74 -200 112 -22 23 -51 46
-65 52 -16 7 -20 12 -12 15 8 3 19 0 25 -6 6 -6 25 -11 41 -11 42 0 458 -208
520 -259 34 -29 58 -41 80 -41 17 0 45 -9 61 -21 17 -11 55 -34 85 -50 30 -17
80 -46 110 -65 30 -19 66 -37 80 -41 48 -11 105 -42 154 -82 33 -28 58 -41 78
-41 34 0 88 -23 133 -56 17 -12 57 -35 90 -52 67 -33 355 -132 385 -132 11 0
38 -7 61 -17 l41 -16 47 16 c25 10 57 17 71 17 17 0 41 16 73 48 l47 48 0 45
c0 25 5 50 12 57 22 22 143 15 203 -13 87 -39 262 -95 300 -95 20 0 52 -7 72
-15 19 -8 59 -15 87 -15 32 0 84 -11 136 -30 47 -16 101 -30 120 -30 45 0 142
-34 189 -66 l36 -24 118 0 c82 0 129 -5 154 -15 19 -8 53 -15 75 -15 21 0 55
-7 75 -15 25 -11 72 -15 165 -15 92 0 139 -4 165 -15 22 -9 68 -15 124 -15 48
0 91 -5 94 -10 8 -14 732 -14 740 0 3 6 46 10 94 10 56 0 102 6 124 15 20 8
54 15 75 15 22 0 56 7 75 15 20 8 54 15 76 15 23 0 67 13 104 30 36 16 71 30
78 30 25 0 145 89 199 147 30 33 74 88 98 122 l42 61 0 119 0 119 -72 77 c-92
98 -168 138 -195 102 -11 -15 -33 -88 -33 -111 0 -10 11 -32 24 -49 35 -46 86
-157 86 -188 0 -14 -14 -45 -30 -68 -37 -51 -146 -161 -160 -161 -5 0 -33 -11
-62 -25 -99 -46 -233 -86 -343 -102 -135 -20 -907 -31 -966 -14 -25 8 -45 8
-66 0 -24 -8 -39 -7 -68 5 -22 9 -67 16 -107 16 -38 0 -84 7 -105 15 -19 8
-53 15 -75 15 -21 0 -55 7 -75 15 -22 9 -67 15 -120 15 -52 0 -97 6 -120 15
-19 8 -52 15 -72 15 -20 0 -56 6 -81 14 -76 24 -133 37 -190 45 -30 4 -91 19
-135 33 -93 30 -152 46 -217 58 -26 5 -56 13 -67 19 -11 6 -37 11 -58 11 -41
0 -214 55 -301 95 -29 14 -62 25 -74 25 -32 0 -143 39 -231 82 -43 21 -83 38
-88 38 -17 0 -146 66 -209 105 -83 53 -114 46 -155 -34 l-17 -33 13 -30 c18
-43 56 -86 102 -115 49 -31 128 -104 169 -155 l30 -38 -12 -15 c-19 -23 -75
-18 -138 11 -31 14 -93 38 -137 52 -44 14 -92 33 -106 41 -14 9 -48 29 -74 45
-26 16 -86 42 -133 58 -46 16 -97 37 -112 48 -37 26 -226 120 -243 120 -7 0
-50 25 -95 55 -89 59 -154 95 -173 95 -17 0 -80 31 -114 56 -16 12 -86 51
-154 85 -69 34 -141 77 -162 96 -20 18 -42 33 -50 33 -16 0 -273 125 -311 151
l-26 19 -119 -1 -118 0 -22 -29z"/>
</g>
</svg>
