<?xml version="1.0" standalone="no"?>
<!DOCTYPE svg PUBLIC "-//W3C//DTD SVG 20010904//EN"
 "http://www.w3.org/TR/2001/REC-SVG-20010904/DTD/svg10.dtd">
<svg version="1.0" xmlns="http://www.w3.org/2000/svg"
 width="588.000000pt" height="318.000000pt" viewBox="0 0 588.000000 318.000000"
 preserveAspectRatio="xMidYMid meet">
<metadata>
Created by potrace 1.16, written by Peter Selinger 2001-2019
</metadata>
<g transform="translate(0.000000,318.000000) scale(0.100000,-0.100000)"
fill="#000000" stroke="none">
<path d="M5646 3156 c-3 -14 4 -54 19 -98 30 -89 31 -117 5 -192 -31 -88 -87
-165 -140 -194 -25 -13 -63 -36 -85 -51 -67 -44 -108 -60 -151 -61 -23 0 -58
-7 -77 -15 -20 -8 -61 -15 -90 -15 -30 0 -71 -7 -91 -15 l-36 -15 -424 -1
-423 0 -38 15 c-28 12 -73 16 -182 16 -105 0 -153 4 -180 15 -22 9 -67 15
-120 15 -52 0 -97 6 -120 15 -19 8 -52 15 -72 15 -20 0 -56 6 -81 14 -77 24
-133 37 -190 45 -30 4 -71 12 -90 18 -80 26 -128 36 -190 40 l-65 5 -27 25
c-27 26 -116 62 -153 63 -12 0 -59 13 -105 30 -47 16 -102 30 -123 30 -22 0
-68 13 -104 30 -35 17 -70 30 -76 30 -7 0 -32 14 -57 30 -25 16 -51 30 -59 30
-8 0 -79 32 -158 70 -79 39 -154 70 -167 70 -13 0 -38 -10 -57 -23 l-34 -23
-3 -57 -3 -57 28 -26 c15 -14 43 -38 62 -53 20 -16 31 -32 27 -39 -10 -17 -90
-15 -133 3 -19 8 -47 15 -62 15 -14 0 -68 20 -119 45 -117 56 -148 58 -202 9
-59 -54 -55 -76 29 -157 38 -37 77 -67 86 -67 54 0 281 -141 321 -199 13 -20
24 -39 24 -42 0 -4 -34 -40 -75 -81 -56 -56 -75 -81 -75 -101 0 -46 58 -97
177 -156 59 -30 134 -75 166 -100 32 -25 80 -62 106 -81 27 -19 67 -56 91 -82
28 -32 55 -51 81 -58 23 -6 46 -21 56 -37 10 -15 38 -45 62 -69 136 -131 171
-173 275 -328 53 -80 88 -142 91 -165 3 -20 12 -56 20 -81 9 -26 15 -83 15
-135 0 -131 -17 -172 -114 -268 -98 -98 -156 -127 -254 -127 -39 0 -85 -7
-105 -15 -49 -20 -215 -20 -264 0 -22 9 -67 15 -120 15 -52 0 -97 6 -120 15
-19 8 -61 15 -92 15 l-56 0 -45 30 c-25 16 -58 30 -75 30 -16 0 -50 14 -75 30
-25 16 -51 30 -58 30 -8 0 -43 13 -79 30 -35 16 -69 30 -75 30 -17 0 -81 32
-122 62 -45 32 -76 35 -99 10 -31 -34 -21 -62 41 -120 31 -29 77 -65 102 -78
25 -14 68 -40 97 -58 54 -34 167 -76 206 -76 12 0 42 -14 67 -30 25 -16 56
-30 70 -30 14 0 64 -13 110 -30 l85 -30 158 0 c117 0 167 -4 194 -15 45 -19
81 -19 126 0 22 9 68 15 117 15 89 0 178 24 239 66 19 13 42 24 51 24 8 0 40
17 71 38 31 20 70 45 87 54 24 13 46 46 97 147 l65 131 0 89 c0 56 -5 102 -15
124 -8 20 -15 47 -15 61 0 13 -13 53 -30 88 -16 34 -30 70 -30 79 0 9 -18 39
-40 65 -23 27 -43 60 -47 74 -3 14 -18 39 -33 55 -15 17 -40 49 -54 73 -15 24
-35 45 -44 48 -35 11 -46 21 -54 51 -9 35 -108 133 -135 133 -10 0 -36 20 -57
45 -21 25 -55 57 -77 71 -22 13 -64 46 -94 72 -73 63 -150 121 -205 154 -52
30 -123 105 -117 122 12 32 27 87 38 139 l12 58 -17 36 c-9 20 -33 56 -53 79
l-35 44 12 15 c7 8 23 15 37 15 26 0 92 30 138 64 42 31 99 56 127 56 12 0 65
-20 116 -45 62 -30 107 -45 133 -45 22 0 56 -7 76 -15 20 -9 66 -15 107 -15
74 0 92 -7 146 -56 30 -27 136 -64 185 -64 20 0 52 -7 72 -15 22 -9 68 -15
122 -15 l86 0 63 -30 c47 -22 79 -30 118 -30 30 0 71 -7 91 -15 19 -8 60 -15
90 -15 29 0 70 -7 90 -15 20 -8 66 -15 105 -15 38 0 84 -7 105 -15 l35 -15
295 0 294 0 36 -15 c19 -8 48 -15 63 -15 15 0 44 7 63 15 28 12 82 15 240 15
159 0 213 3 240 15 20 8 54 15 76 15 23 0 66 12 103 30 34 16 70 30 78 30 8 0
35 14 60 30 25 16 52 30 60 30 41 0 209 140 256 213 13 20 38 49 54 64 l30 26
0 129 0 129 -35 46 c-19 25 -35 50 -35 54 0 5 -36 9 -79 9 l-79 0 -6 -24z"/>
<path d="M1 868 c1 -69 34 -115 109 -155 36 -19 79 -47 95 -64 17 -16 37 -29
45 -29 7 0 34 -13 59 -29 25 -16 57 -31 71 -34 14 -4 43 -22 65 -40 22 -19 60
-44 85 -57 25 -13 59 -33 75 -46 17 -12 64 -39 105 -60 41 -20 92 -50 114 -65
21 -16 46 -29 53 -29 24 0 83 -31 167 -88 43 -30 90 -58 105 -62 36 -10 141
-78 148 -96 4 -10 25 -14 82 -14 l78 0 13 40 c10 30 10 46 2 64 -11 24 -227
176 -251 176 -19 0 -81 30 -116 56 -16 12 -77 46 -135 75 -58 29 -119 62 -135
75 -17 12 -91 53 -165 90 -74 37 -148 77 -165 90 -16 12 -77 46 -135 74 -58
29 -126 70 -151 91 -46 38 -146 79 -194 79 l-25 0 1 -42z"/>
</g>
</svg>
