<?xml version="1.0" standalone="no"?>
<!DOCTYPE svg PUBLIC "-//W3C//DTD SVG 20010904//EN"
 "http://www.w3.org/TR/2001/REC-SVG-20010904/DTD/svg10.dtd">
<svg version="1.0" xmlns="http://www.w3.org/2000/svg"
 width="981.000000pt" height="327.000000pt" viewBox="0 0 981.000000 327.000000"
 preserveAspectRatio="xMidYMid meet">
<metadata>
Created by potrace 1.16, written by Peter Selinger 2001-2019
</metadata>
<g transform="translate(0.000000,327.000000) scale(0.100000,-0.100000)"
fill="#000000" stroke="none">
<path d="M7 3263 c-16 -15 -6 -62 16 -80 12 -10 36 -35 52 -56 33 -44 108 -85
222 -122 43 -14 125 -48 182 -76 57 -27 138 -61 180 -75 42 -13 123 -47 180
-75 57 -27 138 -61 180 -75 42 -13 100 -36 129 -49 29 -14 57 -25 63 -25 6 0
35 -11 65 -25 72 -33 168 -65 195 -65 26 0 84 -26 124 -56 39 -29 144 -64 192
-64 25 0 53 -10 83 -30 25 -16 51 -30 58 -30 7 0 38 -12 69 -26 65 -29 162
-60 217 -69 29 -5 50 -19 85 -55 50 -53 137 -90 208 -90 21 0 56 -10 79 -23
79 -43 146 -82 219 -129 l73 -48 108 -162 c122 -185 135 -201 187 -234 26 -17
37 -31 37 -48 0 -32 43 -82 93 -108 22 -11 66 -47 96 -79 39 -40 79 -69 131
-95 41 -20 97 -54 123 -76 26 -22 63 -44 82 -49 19 -5 58 -31 87 -58 50 -46
124 -91 149 -91 17 0 80 -31 114 -56 36 -26 170 -94 186 -94 26 0 182 -83 218
-115 21 -20 49 -35 63 -35 35 0 135 -37 177 -66 19 -13 42 -24 49 -24 8 0 43
-13 79 -30 l64 -30 86 0 85 0 65 -30 c36 -17 81 -30 103 -30 21 0 51 -5 67
-12 15 -6 66 -15 113 -19 47 -4 121 -12 165 -18 44 -5 142 -10 218 -10 99 -1
148 -5 174 -16 25 -11 73 -15 167 -15 l131 0 91 -44 c50 -24 110 -58 134 -75
24 -17 55 -31 69 -31 14 0 66 -13 116 -29 99 -32 157 -48 225 -61 25 -5 77
-20 115 -34 l70 -26 222 0 c137 0 224 -4 228 -10 8 -14 882 -14 890 0 4 6 91
10 229 10 176 0 231 3 259 15 20 8 48 15 62 15 25 0 153 60 210 99 19 14 46
21 75 21 l45 0 61 43 c126 87 159 114 213 168 83 84 141 165 157 219 8 26 21
53 29 60 l15 12 0 184 c0 114 -4 185 -10 189 -6 4 -26 38 -46 77 -19 38 -54
94 -77 123 -23 29 -64 83 -92 119 -53 70 -118 125 -250 215 -44 29 -95 66
-113 82 -18 16 -40 29 -48 29 -15 0 -104 49 -205 114 -30 20 -68 36 -84 36
-16 0 -84 27 -152 60 l-124 60 -69 0 c-38 0 -81 5 -96 10 -20 8 -39 7 -75 -5
-54 -18 -60 -34 -34 -85 27 -52 49 -60 166 -60 l106 0 39 -29 c21 -15 48 -38
59 -51 20 -23 105 -70 126 -70 20 0 83 -34 159 -86 42 -28 100 -64 129 -78 58
-30 193 -153 246 -226 19 -26 50 -58 68 -70 19 -13 43 -37 55 -54 23 -34 72
-169 72 -200 0 -10 8 -40 17 -67 l18 -49 -18 -49 c-9 -27 -17 -66 -17 -88 0
-51 -59 -175 -96 -199 -15 -11 -56 -47 -90 -81 -35 -34 -78 -70 -96 -79 -18
-9 -54 -32 -80 -50 -27 -18 -63 -35 -80 -39 -18 -4 -54 -20 -79 -36 -36 -23
-57 -29 -101 -29 -31 0 -72 -7 -91 -15 -25 -10 -72 -15 -150 -15 -79 0 -126
-5 -150 -15 -23 -9 -68 -15 -120 -15 -54 0 -98 -6 -122 -16 l-37 -15 -48 17
-48 17 -41 -16 c-51 -21 -245 -24 -288 -5 -16 8 -101 15 -203 19 -186 7 -383
29 -418 48 -11 6 -66 11 -122 11 -67 0 -113 5 -137 15 -19 8 -47 15 -62 15
-14 0 -51 12 -81 26 -30 14 -111 44 -180 67 -136 44 -177 64 -194 90 -15 24 3
49 45 63 20 7 42 24 54 43 11 18 35 55 54 84 67 101 72 277 9 359 -14 18 -44
69 -66 113 -45 90 -92 139 -199 209 -40 26 -91 63 -114 82 -27 22 -51 34 -71
34 -35 0 -87 23 -142 62 -28 20 -51 28 -83 28 -24 0 -60 7 -80 15 -19 8 -46
15 -60 15 -27 0 -132 -34 -177 -57 -55 -28 -146 -95 -156 -113 -6 -10 -10 -78
-10 -150 l0 -131 21 -61 c22 -67 60 -127 125 -199 23 -25 53 -63 67 -85 27
-43 52 -67 113 -107 56 -38 89 -84 74 -103 -16 -18 -71 -18 -117 1 -22 9 -67
15 -120 15 -52 0 -97 6 -120 15 -19 8 -52 15 -71 15 -20 0 -96 20 -169 45 -83
28 -150 45 -180 45 -47 0 -212 50 -299 90 -63 29 -160 60 -188 60 -13 0 -44
16 -68 35 -44 35 -189 115 -209 115 -26 0 -148 65 -198 106 -29 24 -60 44 -68
44 -25 0 -83 31 -173 92 -47 32 -92 58 -101 58 -9 0 -34 13 -55 30 -21 16 -63
46 -92 66 -64 44 -110 87 -268 254 l-120 125 -22 66 c-12 36 -22 85 -22 108
l0 43 -77 80 c-71 72 -151 128 -185 128 -8 0 -30 11 -51 25 -65 44 -235 125
-264 125 -16 0 -70 20 -121 45 -52 25 -99 45 -105 45 -7 0 -32 14 -57 30 -25
16 -58 30 -74 30 -16 0 -81 25 -144 55 -136 66 -218 95 -268 95 -19 0 -65 14
-101 30 -35 17 -70 30 -76 30 -7 0 -32 14 -57 30 -25 16 -58 30 -73 30 -15 0
-44 7 -64 15 -19 8 -47 15 -60 15 -14 0 -54 14 -90 30 -35 17 -70 30 -76 30
-7 0 -54 20 -105 45 -63 30 -107 45 -134 45 -43 0 -95 20 -143 56 -33 24 -231
94 -268 94 -12 0 -42 14 -67 30 -25 16 -52 30 -60 30 -8 0 -57 20 -108 45 -52
25 -104 45 -116 45 -42 0 -131 37 -141 59 -8 16 -19 21 -51 21 -22 0 -44 -3
-47 -7z m5863 -1952 l75 -7 60 -37 c151 -91 199 -125 226 -159 17 -20 40 -38
52 -40 27 -4 84 -96 92 -147 3 -20 12 -56 20 -81 l15 -45 -29 -83 c-16 -46
-36 -91 -45 -101 -21 -23 -131 -61 -177 -61 -36 0 -60 13 -117 62 -18 15 -39
28 -48 28 -8 0 -48 33 -89 73 -40 39 -88 86 -105 102 -89 87 -150 170 -150
206 0 15 -7 43 -15 62 -20 49 -19 136 2 167 32 47 94 82 133 74 14 -3 59 -9
100 -13z"/>
<path d="M7867 3142 c-21 -23 -22 -51 -1 -80 19 -28 344 -192 379 -192 25 0
99 -39 216 -114 30 -20 68 -36 83 -36 33 0 86 -24 140 -62 21 -15 45 -28 53
-28 8 0 44 -13 80 -30 35 -16 69 -30 75 -30 16 0 146 -66 208 -106 30 -19 72
-39 94 -45 21 -6 48 -16 60 -22 32 -18 130 -93 145 -111 20 -24 142 -22 164 2
21 23 21 44 1 85 -26 51 -45 67 -79 67 -33 0 -91 36 -130 80 -27 30 -108 70
-143 70 -17 0 -46 13 -72 33 -72 54 -112 75 -197 102 -45 15 -145 57 -222 96
-78 38 -146 69 -152 69 -6 0 -40 14 -76 30 -35 17 -70 30 -76 30 -7 0 -29 11
-49 25 -19 13 -91 42 -158 64 -67 23 -134 49 -148 60 -86 60 -164 77 -195 43z"/>
</g>
</svg>
