<?xml version="1.0" standalone="no"?>
<!DOCTYPE svg PUBLIC "-//W3C//DTD SVG 20010904//EN"
 "http://www.w3.org/TR/2001/REC-SVG-20010904/DTD/svg10.dtd">
<svg version="1.0" xmlns="http://www.w3.org/2000/svg"
 width="756.000000pt" height="282.000000pt" viewBox="0 0 756.000000 282.000000"
 preserveAspectRatio="xMidYMid meet">
<metadata>
Created by potrace 1.16, written by Peter Selinger 2001-2019
</metadata>
<g transform="translate(0.000000,282.000000) scale(0.100000,-0.100000)"
fill="#000000" stroke="none">
<path d="M7220 2802 c0 -19 74 -126 103 -151 21 -17 22 -79 2 -128 -8 -19 -15
-54 -15 -77 0 -32 -8 -54 -34 -90 -43 -60 -135 -139 -206 -176 -30 -16 -68
-38 -85 -49 -21 -15 -46 -21 -86 -21 -31 0 -73 -7 -92 -15 -24 -10 -70 -15
-135 -15 -66 0 -112 -5 -135 -15 l-36 -15 -411 0 -411 0 -36 15 c-27 11 -77
15 -210 15 -132 0 -182 4 -210 15 -19 8 -54 15 -77 15 -25 0 -66 12 -104 30
-37 18 -80 30 -103 30 -22 0 -56 7 -76 15 -19 8 -53 15 -75 15 -21 0 -55 7
-75 15 -19 8 -60 15 -90 15 -29 0 -70 7 -90 15 -19 8 -45 15 -57 15 -27 0
-152 43 -205 69 -22 12 -52 21 -66 21 -14 0 -42 7 -62 15 -19 8 -47 15 -60 15
-14 0 -54 14 -90 30 -35 17 -69 30 -75 30 -5 0 -39 14 -75 30 -35 17 -69 30
-75 30 -24 0 -181 83 -216 114 -20 18 -58 39 -84 46 l-48 13 -47 -13 c-70 -19
-83 -34 -83 -96 l0 -53 53 -40 c30 -23 84 -50 129 -65 43 -14 95 -37 115 -51
21 -14 44 -25 52 -25 19 0 103 -53 164 -103 26 -21 62 -43 80 -48 18 -5 60
-31 92 -59 33 -27 78 -59 100 -71 22 -12 60 -38 85 -59 25 -20 68 -49 95 -63
28 -13 88 -59 135 -102 47 -42 103 -88 124 -102 41 -27 142 -122 260 -244 24
-24 55 -52 69 -62 15 -10 38 -40 51 -66 14 -26 41 -60 61 -75 42 -32 145 -227
145 -275 0 -16 11 -62 25 -103 34 -100 34 -197 -1 -298 -45 -133 -79 -177
-157 -198 -20 -6 -51 -21 -69 -33 -36 -26 -179 -50 -308 -51 -71 0 -257 32
-325 56 -38 14 -87 26 -108 26 -21 0 -54 7 -74 15 -19 8 -61 15 -92 15 -43 0
-65 6 -92 24 -38 26 -325 126 -360 126 -26 0 -83 26 -124 56 -54 39 -114 64
-155 64 -22 0 -57 7 -77 15 -19 8 -52 15 -71 15 -20 0 -77 13 -127 29 -99 32
-160 48 -220 60 -22 4 -56 12 -75 18 -104 33 -137 37 -320 40 l-195 4 -67 -22
c-51 -16 -77 -31 -103 -60 l-35 -39 0 -61 c0 -34 8 -83 17 -110 13 -36 15 -55
7 -76 l-10 -28 -89 4 -90 3 -63 29 c-35 16 -80 29 -101 29 -40 0 -125 27 -209
66 -29 13 -58 24 -65 24 -6 0 -32 14 -57 30 -25 16 -51 30 -58 30 -23 0 -83
32 -162 86 -79 54 -152 94 -170 94 -12 0 -124 106 -234 221 -23 24 -63 56 -89
71 -31 18 -47 34 -47 47 0 11 -25 49 -56 83 -31 35 -65 81 -76 103 -12 22 -36
57 -55 78 -42 47 -113 190 -113 228 0 15 -13 56 -30 91 -16 34 -30 68 -30 75
0 6 -13 40 -30 75 -16 34 -30 76 -30 91 0 62 -49 127 -97 127 l-33 0 0 -145
c0 -80 4 -153 9 -163 29 -59 57 -128 82 -204 35 -108 79 -195 113 -227 14 -14
26 -31 26 -38 0 -28 33 -79 80 -123 36 -34 49 -54 53 -85 l6 -40 51 -23 c34
-16 60 -37 83 -69 61 -88 184 -207 242 -236 30 -16 67 -44 82 -63 26 -34 88
-74 116 -74 7 0 24 -12 38 -26 23 -25 207 -124 230 -124 6 0 40 -13 76 -30 35
-16 70 -30 76 -30 7 0 32 -14 57 -30 25 -16 58 -30 73 -30 15 0 44 -7 64 -15
19 -8 45 -15 57 -15 11 0 55 -12 96 -27 72 -25 128 -36 250 -49 102 -11 214
36 250 105 24 48 25 86 5 134 -17 42 -20 119 -5 148 l11 19 145 0 c106 0 154
-4 181 -15 19 -8 53 -15 75 -15 21 0 55 -7 75 -15 19 -8 52 -15 72 -15 20 0
75 -13 121 -30 47 -16 95 -30 108 -30 34 0 109 -37 126 -62 9 -12 16 -36 16
-52 0 -20 10 -41 29 -61 16 -16 42 -52 58 -80 22 -37 43 -58 83 -80 30 -16 96
-57 146 -91 51 -33 107 -66 125 -73 19 -7 48 -19 64 -28 38 -20 85 -44 107
-55 10 -4 44 -8 76 -8 l59 0 41 38 42 39 0 71 0 72 -20 20 c-30 30 -25 43 13
36 17 -3 62 -10 98 -15 36 -4 75 -13 86 -20 12 -6 54 -11 93 -11 40 0 86 -6
107 -15 19 -8 53 -15 75 -15 21 0 55 -7 75 -15 26 -11 75 -15 184 -15 l148 0
64 30 c36 17 77 30 92 30 36 0 93 31 171 93 52 41 73 67 101 120 19 38 47 87
64 109 l29 41 0 137 c0 100 -4 147 -15 173 -8 20 -15 55 -15 77 0 49 -105 266
-154 320 -18 19 -48 58 -66 85 -43 63 -332 358 -384 392 -22 14 -60 44 -85 67
-25 23 -67 54 -92 69 -25 14 -53 37 -62 51 -9 13 -49 46 -89 73 -63 42 -153
106 -168 120 -2 2 2 8 9 13 8 5 30 2 54 -6 22 -8 49 -14 60 -14 12 0 81 -20
154 -45 73 -25 148 -45 168 -45 20 0 52 -7 72 -15 20 -8 66 -15 105 -15 38 0
84 -7 105 -15 19 -8 53 -15 75 -15 21 0 55 -7 75 -15 19 -8 53 -15 75 -15 21
0 55 -7 75 -15 20 -8 66 -15 105 -15 38 0 84 -7 105 -15 23 -10 69 -15 135
-15 65 0 111 -5 135 -15 l35 -15 358 0 358 0 35 15 c24 10 70 15 135 15 66 0
112 5 135 15 23 9 69 15 124 15 l88 0 38 25 c20 14 71 37 113 51 110 35 151
59 179 104 14 22 42 51 63 64 53 33 81 70 121 157 18 41 37 82 42 91 5 10 9
69 9 132 l0 115 -23 18 c-12 10 -37 37 -55 61 -19 23 -42 42 -52 42 -10 0 -22
5 -25 10 -3 6 -46 10 -96 10 l-89 0 0 -18z m-3672 -2410 l53 -19 55 -67 c31
-37 53 -70 50 -74 -10 -10 -78 19 -117 49 -20 16 -41 29 -45 29 -5 0 -29 18
-54 40 l-45 39 15 11 c21 13 28 13 88 -8z"/>
</g>
</svg>
