<?xml version="1.0" standalone="no"?>
<!DOCTYPE svg PUBLIC "-//W3C//DTD SVG 20010904//EN"
 "http://www.w3.org/TR/2001/REC-SVG-20010904/DTD/svg10.dtd">
<svg version="1.0" xmlns="http://www.w3.org/2000/svg"
 width="564.000000pt" height="198.000000pt" viewBox="0 0 564.000000 198.000000"
 preserveAspectRatio="xMidYMid meet">
<metadata>
Created by potrace 1.16, written by Peter Selinger 2001-2019
</metadata>
<g transform="translate(0.000000,198.000000) scale(0.100000,-0.100000)"
fill="#000000" stroke="none">
<path d="M5453 1944 c-29 -45 -29 -60 2 -126 31 -66 33 -145 5 -206 -11 -24
-51 -75 -89 -113 -80 -80 -190 -139 -261 -139 -22 0 -51 -5 -63 -12 -12 -6
-48 -14 -82 -19 -62 -8 -117 -20 -195 -45 -30 -9 -92 -14 -186 -14 -103 0
-151 -4 -177 -15 l-36 -15 -260 0 c-147 0 -271 4 -286 10 -17 7 -39 6 -69 -2
l-44 -12 -44 17 -44 17 -202 0 c-158 0 -211 3 -239 15 -19 8 -60 15 -90 15
-29 0 -70 7 -90 15 -19 8 -53 15 -75 15 -21 0 -55 7 -75 15 -19 8 -65 15 -102
15 -68 0 -169 28 -250 69 -22 12 -53 21 -68 21 -15 0 -57 14 -91 30 -35 17
-73 30 -85 30 -31 0 -143 40 -230 82 -43 21 -83 38 -89 38 -27 0 -159 73 -175
97 -10 14 -30 39 -45 54 l-26 29 -67 0 c-36 0 -76 -6 -88 -12 -18 -11 -261
-27 -397 -28 -113 0 -349 17 -367 28 -14 8 -67 12 -153 12 -93 0 -141 4 -167
15 -20 8 -66 15 -105 15 -38 0 -84 7 -105 15 -19 8 -63 15 -97 15 l-62 0 -42
-31 -42 -31 0 -38 c0 -29 6 -43 22 -54 12 -9 36 -35 52 -59 17 -24 47 -66 66
-92 19 -27 193 -209 386 -404 193 -196 359 -370 368 -388 9 -18 32 -44 51 -59
19 -14 35 -35 35 -45 0 -11 29 -40 75 -75 46 -35 75 -64 75 -75 0 -11 23 -36
54 -59 30 -22 67 -60 82 -83 16 -23 44 -61 63 -85 l33 -42 -12 -15 c-9 -11
-32 -15 -80 -15 -37 0 -84 -7 -103 -15 -47 -20 -126 -19 -177 1 l-41 16 -42
-11 c-31 -9 -50 -9 -70 -2 -16 6 -80 11 -143 11 -79 0 -126 5 -151 15 -23 10
-69 15 -135 15 -65 0 -111 5 -135 15 -21 9 -67 15 -115 15 l-79 0 -25 -25
c-20 -20 -23 -29 -15 -44 19 -34 71 -71 102 -71 16 0 46 -7 66 -15 19 -8 60
-15 90 -15 29 0 70 -7 90 -15 25 -11 72 -15 165 -15 92 0 139 -4 165 -15 23
-10 69 -15 135 -15 65 0 111 -5 135 -15 46 -19 140 -19 186 0 46 19 98 19 144
0 19 -8 55 -15 79 -15 23 0 46 -4 49 -10 3 -6 47 -10 98 -10 l92 1 28 43 c15
24 27 52 27 63 0 11 -21 47 -48 81 -26 33 -67 88 -92 122 -25 34 -64 82 -86
108 -23 26 -53 64 -67 84 -31 47 -140 170 -191 217 -135 124 -201 192 -231
237 -19 29 -50 61 -69 72 -19 11 -46 38 -60 60 -13 22 -39 50 -56 63 -41 31
-88 78 -118 118 -13 17 -46 46 -72 63 -27 17 -61 51 -76 75 -15 24 -46 56 -68
71 -30 20 -50 45 -74 95 l-34 68 12 15 c16 19 100 18 147 -1 25 -11 72 -15
165 -15 92 0 139 -4 165 -15 22 -9 67 -15 119 -15 54 0 98 -6 125 -17 l41 -16
47 16 c57 21 130 22 178 2 26 -11 74 -15 180 -15 l145 0 57 -35 c62 -38 181
-84 219 -85 13 0 50 -16 81 -35 77 -48 184 -85 246 -85 30 0 85 -12 135 -30
47 -16 96 -30 110 -30 14 0 54 -14 88 -30 37 -18 80 -30 103 -30 22 0 56 -7
76 -15 20 -8 66 -15 105 -15 38 0 84 -7 105 -15 19 -8 59 -15 89 -15 29 0 65
-5 81 -12 31 -13 171 -30 218 -27 63 4 192 1 250 -6 33 -3 233 -9 444 -11
l385 -5 38 16 c27 10 73 15 152 15 78 0 125 5 149 15 20 8 54 15 75 15 22 0
56 7 75 15 22 9 68 15 117 15 124 0 256 50 306 115 21 28 33 35 60 35 l34 0
54 73 c29 39 68 85 85 101 l31 30 0 150 -1 151 -49 60 c-28 33 -50 63 -50 67
0 5 -15 8 -32 8 l-33 -1 -22 -35z"/>
</g>
</svg>
