<?xml version="1.0" standalone="no"?>
<!DOCTYPE svg PUBLIC "-//W3C//DTD SVG 20010904//EN"
 "http://www.w3.org/TR/2001/REC-SVG-20010904/DTD/svg10.dtd">
<svg version="1.0" xmlns="http://www.w3.org/2000/svg"
 width="501.000000pt" height="144.000000pt" viewBox="0 0 501.000000 144.000000"
 preserveAspectRatio="xMidYMid meet">
<metadata>
Created by potrace 1.16, written by Peter Selinger 2001-2019
</metadata>
<g transform="translate(0.000000,144.000000) scale(0.100000,-0.100000)"
fill="#000000" stroke="none">
<path d="M37 1412 l-37 -25 0 -52 0 -51 57 -49 c32 -27 84 -78 117 -113 32
-35 79 -74 105 -86 98 -50 211 -136 211 -162 0 -15 -100 -84 -121 -84 -9 0
-39 -18 -65 -41 -27 -22 -61 -43 -76 -46 -19 -4 -47 -30 -89 -82 l-61 -76 6
-34 c4 -24 0 -42 -14 -62 -14 -18 -20 -43 -20 -78 0 -28 -5 -71 -12 -96 l-12
-44 54 -115 55 -115 58 0 57 -1 0 57 c0 32 -7 76 -16 99 l-16 41 16 38 c9 20
16 63 16 94 l0 56 30 45 c16 25 30 52 30 60 0 33 52 89 132 142 118 80 185
108 253 108 l57 0 59 60 c32 33 59 69 59 79 0 30 -75 91 -111 91 -35 0 -89 23
-136 58 -17 13 -47 27 -66 33 -31 8 -177 126 -185 150 -6 14 65 10 105 -6 21
-9 67 -15 116 -15 l81 0 133 -45 c73 -25 143 -45 155 -45 13 0 47 -11 76 -25
36 -17 69 -24 105 -24 76 2 219 -16 244 -29 12 -7 32 -12 44 -12 12 0 103 -27
201 -60 l178 -60 80 0 c49 0 95 -6 117 -15 19 -8 45 -15 56 -15 12 0 62 -13
112 -29 103 -33 160 -49 227 -61 26 -5 56 -13 67 -19 11 -6 58 -11 106 -11 53
0 99 -6 122 -15 19 -8 60 -15 90 -15 29 0 70 -7 90 -15 19 -8 53 -15 75 -15
21 0 55 -7 75 -15 20 -8 66 -15 104 -15 41 0 86 -7 110 -17 l41 -16 47 16 c57
21 101 21 148 2 26 -11 74 -15 179 -15 105 0 154 -4 182 -15 l38 -16 69 12
c39 7 122 15 185 18 63 3 121 10 129 15 7 5 41 12 75 17 71 9 118 20 241 60
50 16 101 29 113 29 63 0 242 140 299 234 l23 37 0 85 c0 46 -4 92 -8 102 -5
9 -15 30 -23 47 -17 34 -82 75 -121 75 -29 0 -68 -40 -68 -70 0 -10 7 -34 15
-53 8 -20 15 -61 15 -90 l0 -54 -29 -40 c-43 -59 -88 -89 -174 -118 -42 -13
-96 -33 -119 -44 -64 -29 -159 -61 -184 -61 -12 0 -38 -7 -57 -15 l-36 -15
-380 0 -381 0 -41 17 -41 16 -47 -16 c-57 -21 -101 -21 -148 -2 -19 8 -60 15
-90 15 -29 0 -70 7 -90 15 -19 8 -53 15 -75 15 -21 0 -55 7 -75 15 -19 8 -53
15 -75 15 -21 0 -55 7 -75 15 -19 8 -53 15 -75 15 -21 0 -55 7 -75 15 -23 10
-69 15 -131 15 l-95 0 -136 44 c-148 48 -201 63 -273 76 -26 5 -56 13 -67 19
-11 6 -45 11 -76 11 -30 0 -72 7 -92 15 -19 8 -45 15 -56 15 -11 0 -82 20
-156 44 -195 63 -214 68 -331 76 -74 5 -126 15 -175 33 -38 15 -81 27 -95 27
-14 0 -43 12 -65 25 -22 14 -53 25 -70 25 -16 0 -55 9 -85 20 -30 11 -72 19
-93 20 -21 0 -54 7 -74 15 -19 8 -45 15 -57 15 -23 0 -122 32 -133 43 -3 4
-54 7 -112 6 l-106 -1 -38 -26z"/>
</g>
</svg>
