<?xml version="1.0" standalone="no"?>
<!DOCTYPE svg PUBLIC "-//W3C//DTD SVG 20010904//EN"
 "http://www.w3.org/TR/2001/REC-SVG-20010904/DTD/svg10.dtd">
<svg version="1.0" xmlns="http://www.w3.org/2000/svg"
 width="582.000000pt" height="234.000000pt" viewBox="0 0 582.000000 234.000000"
 preserveAspectRatio="xMidYMid meet">
<metadata>
Created by potrace 1.16, written by Peter Selinger 2001-2019
</metadata>
<g transform="translate(0.000000,234.000000) scale(0.100000,-0.100000)"
fill="#000000" stroke="none">
<path d="M5570 2293 c0 -35 8 -58 31 -95 l31 -48 -3 -78 c-3 -61 -9 -84 -27
-109 -13 -18 -31 -33 -40 -33 -8 0 -52 -24 -97 -54 -88 -59 -179 -96 -232 -96
-19 0 -61 -9 -95 -21 -48 -16 -74 -19 -122 -14 -45 5 -71 2 -98 -9 -26 -11
-69 -16 -136 -16 -66 0 -112 -5 -135 -15 l-36 -15 -291 0 -291 0 -36 15 c-19
8 -53 15 -74 15 -21 0 -57 7 -80 17 l-41 16 -48 -17 -48 -17 -37 15 c-25 11
-69 16 -137 16 -65 0 -111 5 -135 15 -26 11 -76 15 -195 15 -118 0 -168 4
-195 15 -20 8 -66 15 -105 15 -38 0 -84 7 -105 15 -19 8 -53 15 -75 15 -21 0
-55 7 -75 15 -25 11 -72 15 -165 15 -92 0 -139 4 -165 15 -19 8 -53 15 -75 15
-21 0 -55 7 -75 15 -24 10 -70 15 -147 15 l-112 0 -84 30 c-53 18 -105 30
-138 30 -29 0 -69 7 -89 15 -19 8 -59 15 -87 15 -28 0 -71 6 -96 14 -94 30
-138 38 -225 45 -49 4 -100 12 -112 19 -12 7 -42 12 -66 12 -31 0 -56 8 -82
26 l-38 26 -44 -7 -43 -6 -29 20 c-36 26 -61 26 -111 1 -77 -39 -95 -113 -40
-165 16 -16 30 -37 30 -46 0 -10 19 -32 42 -50 24 -18 68 -56 98 -85 30 -29
78 -64 106 -78 61 -32 112 -82 98 -96 -5 -5 -48 -28 -94 -51 -47 -22 -98 -51
-115 -63 -16 -13 -77 -46 -135 -75 -127 -63 -125 -62 -157 -125 -27 -55 -70
-106 -88 -106 -6 0 -45 22 -86 50 -51 34 -84 50 -107 50 -49 0 -124 -43 -171
-97 l-41 -48 0 -122 c0 -70 4 -124 10 -128 6 -3 10 -20 10 -36 0 -38 59 -156
113 -224 23 -29 62 -81 87 -115 77 -104 221 -249 275 -277 63 -32 118 -74 171
-130 32 -34 48 -43 73 -43 22 0 62 -18 123 -55 l90 -55 72 0 72 0 23 40 22 40
-25 25 c-20 20 -35 25 -72 25 -51 0 -107 29 -197 103 -26 21 -63 43 -82 48
-32 9 -143 99 -220 179 -130 134 -156 163 -171 192 -9 18 -34 53 -54 78 -46
55 -74 109 -106 206 l-25 74 17 36 c9 20 23 38 30 41 7 2 39 -13 71 -34 46
-30 65 -51 91 -101 l33 -62 61 -40 61 -39 21 11 c11 6 38 24 59 40 47 38 49
72 7 160 -22 46 -30 78 -30 119 l0 56 41 56 40 57 33 0 c25 0 48 12 87 44 71
58 175 106 231 106 26 0 55 8 73 20 17 11 39 20 51 20 11 0 46 19 77 43 31 23
68 50 82 60 64 46 9 120 -122 162 -85 27 -106 47 -73 65 11 6 31 27 43 47 l23
36 89 -2 c50 -1 104 -9 123 -17 19 -8 51 -14 71 -14 20 0 56 -6 81 -14 78 -25
133 -37 195 -45 34 -5 70 -13 82 -19 12 -7 47 -12 78 -12 30 0 72 -7 92 -15
22 -9 67 -15 120 -15 52 0 97 -6 120 -15 26 -11 76 -15 195 -15 118 0 168 -4
195 -15 19 -8 59 -15 87 -15 28 0 71 -6 96 -14 87 -28 136 -38 210 -45 41 -4
85 -13 97 -19 15 -8 95 -12 258 -12 187 0 243 -3 272 -15 20 -8 66 -15 105
-15 38 0 84 -7 105 -15 l35 -15 324 0 c196 0 333 -4 350 -10 l26 -10 44 25 43
25 129 0 c93 0 140 4 165 15 26 11 73 15 165 15 93 0 140 4 165 15 20 8 49 15
65 15 16 0 47 12 68 28 58 40 77 49 121 61 29 8 62 34 136 109 60 61 97 107
97 120 0 11 5 24 10 27 6 4 10 52 10 113 l-1 107 -49 60 c-28 33 -50 63 -50
67 0 5 -34 8 -75 8 l-75 0 0 -47z m-4492 -366 c15 -18 3 -87 -14 -87 -21 0
-84 60 -84 81 l0 19 44 0 c24 0 48 -6 54 -13z"/>
</g>
</svg>
