<?xml version="1.0" standalone="no"?>
<!DOCTYPE svg PUBLIC "-//W3C//DTD SVG 20010904//EN"
 "http://www.w3.org/TR/2001/REC-SVG-20010904/DTD/svg10.dtd">
<svg version="1.0" xmlns="http://www.w3.org/2000/svg"
 width="618.000000pt" height="141.000000pt" viewBox="0 0 618.000000 141.000000"
 preserveAspectRatio="xMidYMid meet">
<metadata>
Created by potrace 1.16, written by Peter Selinger 2001-2019
</metadata>
<g transform="translate(0.000000,141.000000) scale(0.100000,-0.100000)"
fill="#000000" stroke="none">
<path d="M1145 1400 c-4 -6 -61 -10 -139 -10 -96 0 -144 -4 -169 -15 -20 -8
-47 -15 -61 -15 -14 0 -54 -13 -89 -30 -36 -16 -71 -30 -79 -30 -29 0 -60 -35
-98 -111 l-40 -79 0 -55 c0 -71 33 -173 66 -202 32 -29 94 -31 117 -5 20 21
23 93 6 139 -14 41 12 131 49 168 39 40 161 95 210 95 22 0 56 7 75 15 27 11
75 15 177 15 102 0 150 -4 177 -15 23 -10 69 -15 132 -15 l97 0 84 -30 c47
-16 95 -30 107 -30 27 0 103 -28 121 -45 l13 -11 -36 -60 c-45 -74 -51 -96
-34 -136 22 -53 90 -150 149 -213 31 -33 69 -79 83 -102 15 -23 37 -47 49 -54
22 -11 56 -36 182 -135 32 -26 74 -50 92 -56 19 -5 66 -39 109 -78 41 -39 82
-70 91 -70 27 0 87 -31 136 -71 29 -25 74 -48 125 -64 89 -29 137 -50 175 -76
l26 -19 115 0 115 0 30 28 c16 15 40 35 54 44 24 16 68 124 68 168 0 24 -66
223 -88 265 -18 36 -102 135 -156 184 -21 20 -73 68 -115 106 -42 39 -76 75
-76 80 0 6 63 11 162 13 128 2 170 -1 199 -13 26 -11 72 -15 166 -15 92 0 139
-4 165 -15 26 -11 74 -15 180 -15 105 0 153 -4 180 -15 23 -10 69 -15 135 -15
65 0 111 -5 135 -15 22 -9 67 -15 120 -15 52 0 97 -6 120 -15 23 -10 69 -15
135 -15 65 0 111 -5 135 -15 22 -9 67 -15 120 -15 52 0 97 -6 120 -15 22 -9
67 -15 120 -15 52 0 97 -6 120 -15 20 -8 66 -15 105 -15 38 0 84 -7 105 -15
20 -8 66 -15 105 -15 38 0 84 -7 105 -15 20 -8 66 -15 105 -15 38 0 84 -7 105
-15 47 -20 175 -20 213 0 l30 16 0 39 0 39 -30 16 c-16 8 -41 15 -55 15 -14 0
-42 7 -62 15 -19 8 -60 15 -90 15 -29 0 -70 7 -90 15 -22 9 -67 15 -120 15
-52 0 -97 6 -120 15 -22 9 -67 15 -117 15 -65 0 -99 6 -166 30 l-85 30 -158 0
c-117 0 -167 4 -194 15 -24 10 -71 15 -150 15 -78 0 -125 5 -150 15 -22 9 -67
15 -120 15 -52 0 -97 6 -120 15 -26 11 -76 15 -195 15 -118 0 -168 4 -195 15
-23 10 -69 15 -135 15 -65 0 -111 5 -135 15 -24 10 -71 15 -150 15 -78 0 -125
5 -150 15 -25 11 -72 15 -165 15 -92 0 -139 4 -165 15 -27 11 -77 15 -210 15
-132 0 -182 4 -210 15 -19 8 -47 15 -60 15 -14 0 -54 14 -90 30 -35 17 -81 30
-102 30 -40 0 -125 27 -209 66 -29 13 -58 24 -65 24 -6 0 -32 14 -57 30 l-45
30 -55 0 c-30 0 -75 6 -100 14 -78 25 -133 37 -195 45 -34 5 -70 13 -82 19
-12 7 -67 12 -127 12 -59 0 -108 4 -111 10 -3 6 -48 10 -100 10 -52 0 -97 -4
-100 -10z m1312 -465 c19 -8 46 -15 60 -15 13 0 54 -18 91 -40 37 -23 78 -43
92 -47 14 -3 39 -18 55 -33 17 -15 41 -33 55 -40 145 -72 329 -245 384 -360
41 -85 55 -180 31 -216 -22 -34 -79 -32 -162 6 -35 17 -69 30 -75 30 -24 0
-181 83 -216 114 -20 19 -83 57 -139 85 -55 28 -125 72 -155 99 -29 26 -69 58
-88 71 -19 13 -50 43 -68 67 -18 24 -40 44 -48 44 -27 0 -69 30 -94 68 -14 21
-42 58 -62 83 -35 42 -47 77 -31 92 3 4 80 7 170 7 123 0 173 -4 200 -15z"/>
<path d="M143 615 c-63 -20 -143 -91 -143 -126 0 -15 5 -31 10 -34 6 -3 10
-17 10 -31 0 -14 9 -53 21 -87 l20 -62 102 -103 c132 -133 208 -174 268 -142
10 6 19 20 19 30 0 23 -64 110 -133 181 -47 49 -97 136 -97 172 0 38 19 57 58
57 144 0 430 -192 462 -309 21 -81 79 -93 117 -26 31 54 29 71 -15 137 -20 32
-46 72 -57 90 -12 20 -32 35 -52 40 -17 5 -56 30 -85 57 -29 26 -67 55 -83 64
-52 26 -238 84 -290 90 -27 3 -59 8 -70 10 -11 3 -39 -1 -62 -8z"/>
</g>
</svg>
