<?xml version="1.0" standalone="no"?>
<!DOCTYPE svg PUBLIC "-//W3C//DTD SVG 20010904//EN"
 "http://www.w3.org/TR/2001/REC-SVG-20010904/DTD/svg10.dtd">
<svg version="1.0" xmlns="http://www.w3.org/2000/svg"
 width="765.000000pt" height="351.000000pt" viewBox="0 0 765.000000 351.000000"
 preserveAspectRatio="xMidYMid meet">
<metadata>
Created by potrace 1.16, written by Peter Selinger 2001-2019
</metadata>
<g transform="translate(0.000000,351.000000) scale(0.100000,-0.100000)"
fill="#000000" stroke="none">
<path d="M3425 3500 c-3 -5 -13 -10 -21 -10 -8 0 -38 -11 -66 -25 -29 -14 -69
-30 -89 -35 -22 -6 -49 -25 -68 -48 -124 -147 -161 -222 -161 -329 l0 -57 45
-67 c48 -71 97 -119 122 -119 20 0 81 -29 118 -56 39 -29 144 -64 191 -64 19
0 65 -13 101 -30 35 -16 76 -30 90 -30 13 0 54 -13 90 -30 37 -17 81 -30 104
-30 22 0 56 -7 76 -15 22 -9 67 -15 120 -15 52 0 97 -6 120 -15 19 -8 47 -15
62 -15 14 0 46 -14 71 -30 32 -22 57 -30 88 -30 23 0 59 -7 79 -15 19 -8 60
-15 90 -15 29 0 70 -7 90 -15 19 -8 48 -15 63 -15 51 0 144 -84 215 -196 21
-32 59 -79 86 -105 l49 -47 0 -36 0 -37 63 -67 c35 -37 72 -81 83 -97 10 -17
37 -53 59 -82 22 -28 60 -79 85 -113 25 -33 66 -85 92 -115 26 -30 58 -72 72
-92 13 -21 40 -54 61 -73 20 -19 52 -56 71 -81 18 -25 49 -57 67 -69 19 -13
44 -39 57 -59 13 -20 39 -52 58 -73 31 -33 70 -83 136 -178 l25 -35 2 -101 c1
-56 -2 -107 -5 -113 -15 -23 -40 -9 -103 59 -47 51 -75 72 -104 80 -35 10 -74
41 -223 175 l-28 26 6 57 c9 75 9 85 -1 162 -11 78 -31 119 -88 181 -23 25
-55 64 -69 88 -15 23 -39 46 -54 52 -30 12 -63 29 -137 70 l-50 29 -83 0 -83
0 -50 -47 c-57 -53 -99 -127 -99 -173 0 -70 67 -153 252 -311 l42 -37 -13 -16
-13 -16 -107 0 c-64 0 -124 6 -151 14 -86 27 -136 38 -210 46 -48 5 -94 17
-127 34 -29 14 -58 26 -64 26 -17 0 -81 32 -116 58 -17 13 -47 28 -67 33 -22
6 -46 24 -62 45 -30 38 -90 74 -125 74 -12 0 -41 -19 -65 -44 -35 -34 -44 -51
-44 -77 0 -19 -8 -46 -18 -60 -35 -51 -97 -119 -109 -119 -7 0 -47 -17 -90
-38 -127 -61 -199 -82 -290 -82 -49 0 -95 -6 -116 -15 -25 -10 -72 -15 -150
-15 -79 0 -126 -5 -150 -15 -51 -21 -273 -21 -324 0 -19 8 -60 15 -90 15 -29
0 -70 7 -90 15 l-35 15 -265 0 -264 0 -36 15 c-19 8 -52 15 -71 15 -20 0 -77
13 -127 29 -103 33 -160 49 -227 61 -26 5 -56 13 -67 19 -11 6 -57 11 -103 11
-94 0 -173 22 -213 60 -25 23 -114 59 -150 60 -31 0 -222 67 -305 106 -41 20
-108 46 -148 60 -40 13 -85 32 -100 43 -15 10 -74 42 -132 71 -57 29 -118 63
-135 75 -27 21 -139 65 -165 65 -5 0 -10 -18 -10 -39 l0 -40 41 -28 c23 -15
65 -47 94 -70 60 -47 173 -107 223 -118 17 -3 54 -21 80 -40 66 -45 127 -75
153 -75 37 0 148 -41 262 -97 59 -29 118 -53 130 -53 31 0 127 -34 216 -76
120 -57 182 -74 268 -74 43 0 98 -6 123 -14 78 -25 133 -37 195 -45 34 -5 70
-13 82 -19 12 -7 40 -12 63 -12 22 0 57 -7 77 -15 19 -8 60 -15 90 -15 29 0
70 -7 90 -15 28 -12 84 -15 270 -15 185 0 241 -3 270 -15 l35 -15 270 0 c194
0 275 3 291 12 12 7 76 15 142 19 66 4 140 12 165 19 107 29 170 50 223 74 31
14 61 26 67 26 18 0 91 40 170 94 87 60 139 86 170 86 11 0 51 -18 88 -40 37
-23 78 -43 92 -47 14 -3 46 -18 71 -34 l46 -29 72 0 c41 0 87 -6 108 -15 19
-8 59 -15 87 -15 32 0 84 -11 136 -30 l85 -30 86 0 c55 0 100 6 122 15 50 21
162 19 207 -3 67 -33 185 -117 237 -169 41 -42 59 -53 84 -53 l32 0 55 -61
c31 -33 73 -72 95 -86 22 -14 61 -44 86 -67 25 -23 84 -68 131 -99 47 -31 101
-72 120 -92 19 -19 50 -40 70 -45 20 -5 55 -26 78 -46 23 -19 59 -40 80 -46
20 -6 49 -19 64 -29 16 -12 43 -19 71 -19 l45 0 26 31 c14 17 26 39 26 48 0
31 -39 70 -80 81 -21 6 -61 31 -91 58 -29 26 -72 58 -95 72 -49 29 -172 162
-180 196 -7 27 3 64 17 64 6 0 47 -25 93 -55 45 -30 88 -55 95 -55 8 0 40 -12
73 -27 l59 -26 52 12 c72 18 93 34 122 91 52 103 25 187 -97 307 -76 74 -139
113 -183 113 -15 0 -51 11 -81 25 -30 14 -82 34 -116 46 l-62 21 -52 -18 c-31
-10 -61 -14 -78 -10 -32 8 -181 148 -222 209 -16 23 -47 62 -69 87 -23 25 -50
59 -60 75 -10 17 -58 71 -105 120 -48 50 -95 104 -106 120 -10 17 -37 53 -59
82 -22 28 -60 79 -85 113 -25 33 -75 95 -112 136 -38 41 -71 87 -74 102 -10
40 -39 94 -97 180 -28 42 -60 92 -70 111 l-19 34 14 8 c24 16 295 11 335 -6
26 -11 75 -15 192 -15 107 0 170 -4 201 -14 123 -39 135 -40 540 -45 323 -5
411 -9 433 -20 l28 -15 49 18 50 18 92 -6 c51 -3 102 -6 113 -5 11 0 96 2 188
5 l169 5 49 -17 49 -18 35 17 35 17 0 52 0 53 -49 18 -49 17 -789 0 -790 0
-39 26 -38 26 -200 5 c-136 4 -212 10 -235 19 -20 9 -72 14 -133 14 -65 0
-111 5 -135 15 -19 8 -60 15 -90 15 -29 0 -70 7 -90 15 -19 8 -53 15 -75 15
-58 0 -87 22 -148 113 -30 45 -80 114 -111 152 -55 68 -80 95 -244 255 -44 43
-91 92 -104 109 -12 18 -62 57 -110 88 -47 32 -106 76 -131 99 -48 45 -142 84
-203 84 -31 0 -130 30 -144 43 -11 11 -311 8 -318 -3z m245 -150 c99 -8 164
-27 212 -61 16 -12 44 -25 63 -30 19 -5 59 -32 89 -60 31 -28 71 -55 91 -60
44 -12 160 -120 209 -194 34 -50 60 -75 120 -118 14 -10 30 -35 36 -57 6 -23
22 -47 36 -57 53 -37 94 -76 94 -89 0 -34 -84 -45 -147 -19 -19 8 -45 15 -56
15 -12 0 -81 20 -154 45 l-132 45 -79 0 c-61 0 -96 6 -162 30 -47 16 -94 30
-105 30 -26 0 -124 33 -193 66 -29 13 -69 24 -90 24 -49 0 -148 35 -190 67
-18 14 -47 43 -63 66 l-29 40 0 57 0 57 29 40 c40 55 94 95 192 142 58 28 92
39 109 35 14 -3 68 -9 120 -14z m1528 -1971 c62 -28 154 -123 171 -177 l14
-41 -13 -16 c-17 -20 -36 -19 -68 4 -15 10 -50 30 -77 44 -98 49 -168 152
-130 191 22 21 47 20 103 -5z m1336 -659 c62 -38 129 -146 79 -125 -10 4 -33
11 -52 15 -41 10 -97 64 -106 103 l-7 27 27 0 c15 0 42 -9 59 -20z"/>
</g>
</svg>
