<?xml version="1.0" standalone="no"?>
<!DOCTYPE svg PUBLIC "-//W3C//DTD SVG 20010904//EN"
 "http://www.w3.org/TR/2001/REC-SVG-20010904/DTD/svg10.dtd">
<svg version="1.0" xmlns="http://www.w3.org/2000/svg"
 width="402.000000pt" height="219.000000pt" viewBox="0 0 402.000000 219.000000"
 preserveAspectRatio="xMidYMid meet">
<metadata>
Created by potrace 1.16, written by Peter Selinger 2001-2019
</metadata>
<g transform="translate(0.000000,219.000000) scale(0.100000,-0.100000)"
fill="#000000" stroke="none">
<path d="M7 2183 c-4 -3 -7 -26 -7 -50 l0 -43 25 0 c14 0 42 -7 62 -15 27 -12
79 -15 225 -15 145 0 197 -3 225 -15 l35 -15 265 0 264 0 36 -15 c28 -12 86
-15 287 -15 l251 0 45 -30 45 -30 388 0 388 0 36 -15 c28 -12 84 -15 270 -15
185 0 241 -3 270 -15 19 -8 60 -15 91 -15 39 0 65 -6 90 -22 38 -24 46 -25
277 -36 95 -4 169 -12 182 -20 32 -18 197 -16 233 3 43 22 40 61 -8 113 l-39
42 -182 0 c-139 0 -190 4 -218 15 -22 9 -67 15 -120 15 -52 0 -97 6 -120 15
-19 8 -60 15 -90 15 -29 0 -70 7 -90 15 -27 12 -81 15 -240 15 -158 0 -212 3
-240 15 -26 11 -74 15 -180 15 -105 0 -153 4 -180 15 l-35 15 -310 0 -309 0
-36 15 -35 15 -325 0 -324 0 -36 15 -35 15 -359 0 c-228 0 -360 4 -364 10 -7
11 -98 14 -108 3z"/>
<path d="M2167 1552 c-22 -24 -21 -30 4 -104 14 -43 36 -79 70 -116 28 -30 69
-91 91 -136 22 -45 60 -102 83 -127 23 -25 54 -64 68 -86 14 -22 45 -57 69
-77 24 -20 57 -60 73 -88 22 -37 46 -61 89 -87 43 -26 62 -44 67 -65 11 -40
36 -65 80 -76 23 -6 46 -22 56 -37 10 -15 38 -46 63 -70 86 -83 105 -102 139
-142 21 -27 46 -44 71 -51 36 -10 51 -22 112 -92 13 -15 66 -48 118 -74 52
-26 113 -60 134 -76 24 -17 52 -28 72 -28 18 0 36 -5 39 -10 7 -12 255 -14
255 -2 0 4 22 34 50 67 l49 60 1 92 c0 51 -4 95 -10 98 -5 3 -10 33 -10 66 0
83 -31 140 -117 216 -37 33 -84 68 -103 78 -19 10 -48 28 -65 40 -16 13 -50
33 -75 45 -25 12 -66 39 -91 61 -45 37 -146 79 -191 79 -13 0 -40 11 -59 24
-67 46 -148 66 -263 66 l-104 0 -48 -40 c-27 -22 -57 -40 -67 -40 -29 0 -150
127 -182 190 -15 30 -49 79 -76 108 -27 29 -52 68 -57 86 -11 39 -74 124 -153
207 l-56 59 -55 0 c-40 0 -59 -5 -71 -18z m950 -707 c19 -8 47 -15 60 -15 36
0 92 -29 110 -57 l16 -25 -14 -9 c-8 -5 -23 -9 -33 -9 -40 0 -56 -29 -56 -102
0 -79 -6 -83 -74 -40 -46 30 -206 184 -206 199 0 16 24 42 55 58 38 19 96 19
142 0z m379 -148 c179 -94 249 -142 302 -206 31 -38 42 -61 42 -86 0 -19 11
-59 25 -89 29 -64 31 -88 9 -126 -22 -36 -64 -60 -106 -60 -71 0 -205 64 -291
139 -17 16 -56 41 -85 56 -55 29 -82 57 -82 88 0 10 -12 29 -26 44 -28 28 -26
40 4 24 12 -6 28 -11 37 -11 17 0 100 73 115 101 9 15 -6 74 -35 142 -11 27
21 21 91 -16z"/>
</g>
</svg>
