<?xml version="1.0" standalone="no"?>
<!DOCTYPE svg PUBLIC "-//W3C//DTD SVG 20010904//EN"
 "http://www.w3.org/TR/2001/REC-SVG-20010904/DTD/svg10.dtd">
<svg version="1.0" xmlns="http://www.w3.org/2000/svg"
 width="444.000000pt" height="105.000000pt" viewBox="0 0 444.000000 105.000000"
 preserveAspectRatio="xMidYMid meet">
<metadata>
Created by potrace 1.16, written by Peter Selinger 2001-2019
</metadata>
<g transform="translate(0.000000,105.000000) scale(0.100000,-0.100000)"
fill="#000000" stroke="none">
<path d="M335 1040 c-3 -5 -17 -10 -31 -10 -47 0 -147 -41 -193 -79 -25 -22
-61 -46 -78 -55 l-33 -17 0 -89 0 -89 48 -48 c101 -104 274 -213 337 -213 15
0 51 -12 82 -26 76 -34 211 -75 315 -94 26 -5 56 -13 67 -19 11 -6 45 -11 76
-11 30 0 72 -7 92 -15 19 -8 53 -15 75 -15 21 0 55 -7 75 -15 19 -8 53 -15 75
-15 23 0 67 -13 105 -30 35 -17 75 -30 89 -30 14 0 41 -7 61 -15 26 -11 76
-15 195 -15 118 0 168 -4 195 -15 26 -11 74 -15 180 -15 105 0 153 -4 180 -15
26 -11 74 -15 180 -15 105 0 153 -4 180 -15 26 -11 76 -15 195 -15 118 0 168
-4 195 -15 l35 -15 434 0 c278 0 435 -4 439 -10 4 -6 105 -10 271 -10 l264 0
0 35 0 35 -60 30 -59 30 -191 0 c-147 0 -199 3 -227 15 l-35 15 -325 0 -324 0
-36 15 -35 15 -280 0 -279 0 -36 15 c-26 11 -74 15 -180 15 -105 0 -153 4
-180 15 -25 11 -72 15 -165 15 -183 0 -236 27 -203 106 23 57 19 146 -9 202
-44 85 -214 232 -268 232 -8 0 -51 25 -96 55 l-82 55 -196 65 -195 65 -69 0
c-38 0 -72 5 -75 10 -8 14 -492 14 -500 0z m713 -180 c35 -17 69 -30 76 -30 6
0 29 -12 51 -27 22 -15 61 -30 88 -34 51 -8 53 -10 172 -108 43 -35 92 -67
110 -72 42 -12 83 -53 107 -108 l20 -43 -17 -44 c-24 -62 -55 -84 -122 -84
-40 0 -73 8 -120 30 -45 21 -80 30 -116 30 -29 0 -72 6 -97 14 -78 25 -133 37
-195 45 -34 5 -70 13 -82 19 -12 7 -40 12 -63 12 -22 0 -57 7 -77 15 -19 8
-45 15 -57 15 -30 0 -127 34 -216 76 -41 20 -111 48 -155 62 l-80 26 -52 53
c-29 30 -53 62 -53 71 1 22 39 68 76 93 l29 19 355 0 355 0 63 -30z"/>
</g>
</svg>
