<?xml version="1.0" standalone="no"?>
<!DOCTYPE svg PUBLIC "-//W3C//DTD SVG 20010904//EN"
 "http://www.w3.org/TR/2001/REC-SVG-20010904/DTD/svg10.dtd">
<svg version="1.0" xmlns="http://www.w3.org/2000/svg"
 width="555.000000pt" height="105.000000pt" viewBox="0 0 555.000000 105.000000"
 preserveAspectRatio="xMidYMid meet">
<metadata>
Created by potrace 1.16, written by Peter Selinger 2001-2019
</metadata>
<g transform="translate(0.000000,105.000000) scale(0.100000,-0.100000)"
fill="#000000" stroke="none">
<path d="M7 1043 c-4 -3 -7 -61 -7 -128 l0 -122 38 -41 c22 -23 48 -42 59 -42
11 0 30 -12 44 -26 30 -33 150 -94 184 -94 14 0 42 -7 62 -15 22 -10 68 -15
125 -15 139 0 187 34 223 157 11 37 12 59 5 78 -7 18 -7 33 0 46 l11 19 205 0
c159 0 213 -3 241 -15 19 -8 61 -15 92 -15 57 0 81 -11 81 -39 0 -23 144 -232
187 -271 43 -40 112 -89 161 -114 18 -10 50 -32 70 -50 20 -19 82 -57 137 -86
55 -28 124 -66 152 -84 29 -19 85 -44 125 -56 40 -12 115 -42 166 -66 51 -24
106 -44 122 -44 16 0 32 -5 35 -10 4 -6 64 -10 146 -10 l140 0 69 72 c53 54
70 78 70 100 0 15 7 46 16 68 l17 41 -21 62 c-11 34 -32 87 -46 117 -14 30
-26 63 -26 72 0 9 -27 47 -60 85 -33 37 -60 74 -60 81 0 9 143 12 680 12 l681
0 36 -15 c27 -12 81 -15 240 -15 158 0 212 -3 240 -15 26 -11 74 -15 179 -15
87 0 154 -5 171 -12 26 -11 141 -25 278 -33 109 -7 220 -21 248 -33 l27 -12 0
85 0 85 -40 0 c-22 0 -57 7 -77 15 l-35 15 -280 0 -279 0 -36 15 c-23 10 -69
15 -135 15 -65 0 -111 5 -135 15 l-35 15 -265 0 -264 0 -36 15 -35 15 -280 0
-279 0 -36 15 -35 15 -325 0 -324 0 -36 15 -35 15 -280 0 -279 0 -36 15 c-25
11 -72 15 -165 15 -92 0 -139 4 -165 15 -22 9 -67 15 -120 15 -52 0 -97 6
-120 15 -27 12 -79 15 -225 15 -145 0 -197 3 -225 15 -26 11 -76 15 -199 15
-98 0 -165 4 -169 10 -7 11 -547 14 -558 3z m453 -193 c30 -16 43 -46 30 -70
l-11 -20 -55 0 c-57 0 -130 26 -154 55 -10 12 -10 18 0 30 15 18 159 21 190 5z
m1517 -95 c20 -8 66 -15 105 -15 38 0 84 -7 105 -15 20 -8 67 -15 107 -15 74
-1 105 -11 181 -62 22 -14 73 -44 114 -65 l75 -38 44 -65 c62 -89 72 -118 72
-200 l0 -71 -25 -24 -24 -25 -102 0 -102 0 -116 56 c-64 31 -147 66 -186 79
-38 12 -92 36 -120 53 -27 16 -64 38 -82 48 -132 79 -171 106 -190 132 -12 16
-46 43 -76 60 -87 49 -117 113 -73 156 l25 26 116 0 c80 0 127 -5 152 -15z"/>
</g>
</svg>
