<?xml version="1.0" standalone="no"?>
<!DOCTYPE svg PUBLIC "-//W3C//DTD SVG 20010904//EN"
 "http://www.w3.org/TR/2001/REC-SVG-20010904/DTD/svg10.dtd">
<svg version="1.0" xmlns="http://www.w3.org/2000/svg"
 width="1056.000000pt" height="264.000000pt" viewBox="0 0 1056.000000 264.000000"
 preserveAspectRatio="xMidYMid meet">
<metadata>
Created by potrace 1.16, written by Peter Selinger 2001-2019
</metadata>
<g transform="translate(0.000000,264.000000) scale(0.100000,-0.100000)"
fill="#000000" stroke="none">
<path d="M35 2610 c-8 -16 -15 -42 -15 -59 0 -16 -4 -33 -10 -36 -14 -8 -14
-402 0 -410 6 -3 10 -21 10 -38 0 -18 13 -54 29 -82 39 -70 52 -95 112 -224
39 -82 64 -122 90 -143 20 -16 49 -52 64 -79 16 -30 42 -60 66 -74 21 -14 50
-42 63 -64 13 -21 44 -56 69 -77 24 -21 64 -65 87 -97 29 -39 59 -66 91 -83
26 -13 60 -40 75 -60 15 -19 49 -46 75 -59 26 -14 80 -55 121 -92 40 -38 93
-76 118 -86 25 -10 59 -26 75 -35 17 -8 62 -32 100 -53 72 -38 181 -79 212
-79 9 0 77 -20 150 -45 73 -25 148 -45 168 -45 20 0 52 -7 72 -15 50 -21 286
-21 336 0 20 8 54 15 75 15 22 0 56 7 75 15 53 22 71 19 166 -26 47 -22 124
-53 171 -68 47 -16 99 -35 116 -44 52 -27 152 -57 189 -57 20 0 52 -7 72 -15
19 -8 53 -15 75 -15 21 0 55 -7 75 -15 19 -8 53 -15 75 -15 21 0 55 -7 75 -15
20 -8 66 -15 105 -15 38 0 84 -7 105 -15 20 -8 66 -15 105 -15 38 0 84 -7 105
-15 24 -10 71 -15 149 -15 62 0 125 -5 141 -12 74 -30 310 -47 463 -33 36 3
196 9 355 14 275 7 310 11 415 44 19 6 53 14 75 18 66 13 123 29 266 75 74 24
155 44 179 44 l42 0 85 82 c46 45 86 94 90 108 3 14 18 46 34 71 16 25 29 59
29 75 0 50 11 54 170 54 170 0 176 -2 219 -88 19 -37 60 -87 118 -142 93 -91
147 -131 228 -173 28 -14 72 -44 99 -66 26 -23 55 -41 63 -41 8 0 44 -13 80
-30 35 -16 69 -30 74 -30 6 0 40 -18 77 -40 36 -22 81 -44 99 -49 18 -5 45
-18 61 -30 26 -18 81 -38 202 -71 25 -7 81 -15 125 -17 44 -2 84 -9 89 -14 13
-12 103 -12 111 1 3 5 33 10 66 10 157 0 309 153 309 310 0 102 -66 198 -183
265 -26 15 -46 32 -44 39 3 8 113 12 387 14 l384 2 87 -30 87 -30 366 0 367 0
36 -15 35 -15 345 0 344 0 29 15 c40 21 40 61 2 98 l-28 27 -222 0 c-175 0
-230 3 -259 15 l-35 15 -489 0 c-361 0 -495 3 -516 12 -43 19 -423 33 -579 22
-61 -5 -89 -2 -118 10 l-38 16 -325 0 -324 0 -36 15 c-19 8 -60 15 -90 15 -29
0 -70 7 -90 15 -19 8 -53 15 -74 15 -21 0 -57 7 -80 16 -32 13 -59 16 -130 11
l-90 -7 -59 20 c-45 15 -86 20 -170 20 -76 0 -122 5 -147 15 -24 10 -71 15
-150 15 -78 0 -125 5 -150 15 -28 12 -83 15 -264 15 l-229 0 -40 -36 c-60 -55
-54 -95 26 -170 49 -45 56 -76 28 -124 -16 -27 -62 -60 -82 -60 -6 0 -40 -14
-75 -30 -36 -17 -71 -30 -79 -30 -7 0 -30 -11 -50 -25 -43 -29 -103 -52 -178
-67 -57 -11 -70 -13 -255 -26 -60 -5 -123 -14 -138 -20 -16 -7 -45 -12 -66
-12 -21 0 -55 -7 -74 -15 l-36 -15 -306 0 -306 0 -57 26 -57 27 -210 6 c-136
4 -218 11 -232 19 -12 6 -46 12 -75 12 -29 0 -73 6 -98 14 -76 24 -132 37
-195 46 -33 5 -91 20 -130 34 -40 15 -92 26 -120 26 -30 0 -85 12 -135 30 -47
16 -96 30 -110 30 -14 0 -45 14 -70 30 -25 16 -53 30 -63 30 -28 0 -67 45 -67
77 0 15 9 42 21 58 11 17 31 51 45 77 l24 47 0 101 c0 103 -17 175 -60 259
-24 47 -172 191 -197 191 -10 0 -35 11 -55 25 -33 23 -90 43 -208 75 -79 21
-137 23 -180 6 -22 -9 -58 -16 -80 -16 -22 0 -66 -13 -103 -30 -36 -16 -71
-30 -78 -30 -20 0 -145 -87 -173 -121 l-26 -31 0 -85 0 -86 93 -94 c50 -52
109 -104 130 -114 21 -11 55 -35 75 -53 39 -35 92 -66 114 -66 23 0 170 -100
165 -113 -6 -20 -247 -22 -293 -2 -20 8 -47 15 -61 15 -13 0 -49 11 -79 25
-72 33 -168 65 -195 65 -11 0 -48 13 -82 28 -34 16 -73 32 -87 35 -14 3 -44
22 -68 42 -23 20 -55 40 -70 44 -48 14 -155 90 -185 131 -15 22 -51 52 -79 67
-30 16 -65 46 -82 71 -17 23 -52 56 -79 73 -26 17 -62 51 -79 76 -18 24 -53
60 -79 79 -25 18 -59 53 -75 76 -16 24 -57 73 -91 110 -39 42 -66 82 -72 105
-6 21 -26 63 -45 93 -67 104 -106 192 -106 236 0 23 -7 58 -15 77 -11 28 -15
79 -15 212 0 138 -3 182 -15 205 l-16 30 -39 0 -39 0 -16 -30z m2171 -1201
c56 -19 88 -40 192 -124 17 -15 32 -36 32 -48 0 -11 12 -41 28 -66 l27 -46 -2
-95 -3 -95 -27 -38 c-16 -22 -40 -46 -54 -54 l-26 -16 -100 32 c-70 22 -113
42 -140 66 -22 19 -91 60 -152 91 -77 39 -120 67 -138 91 -15 19 -48 46 -75
59 -27 14 -52 32 -55 40 -7 18 21 94 48 128 11 14 53 41 92 61 l72 35 109 0
c85 0 123 -5 172 -21z m5009 -710 c11 -1 37 2 57 6 l37 8 49 -32 c27 -17 59
-31 72 -31 13 0 84 -20 157 -45 73 -25 140 -45 150 -45 41 0 168 -50 218 -86
17 -12 54 -34 83 -49 64 -33 82 -57 82 -110 0 -77 -44 -116 -185 -164 -70 -25
-104 -26 -165 -7 -56 18 -123 35 -175 45 -110 22 -283 100 -357 162 -26 22
-96 64 -155 94 -60 30 -130 72 -158 94 -27 22 -63 50 -78 62 -45 35 -60 64
-47 89 l11 21 192 -5 c106 -3 201 -6 212 -7z"/>
</g>
</svg>
