<?xml version="1.0" standalone="no"?>
<!DOCTYPE svg PUBLIC "-//W3C//DTD SVG 20010904//EN"
 "http://www.w3.org/TR/2001/REC-SVG-20010904/DTD/svg10.dtd">
<svg version="1.0" xmlns="http://www.w3.org/2000/svg"
 width="669.000000pt" height="132.000000pt" viewBox="0 0 669.000000 132.000000"
 preserveAspectRatio="xMidYMid meet">
<metadata>
Created by potrace 1.16, written by Peter Selinger 2001-2019
</metadata>
<g transform="translate(0.000000,132.000000) scale(0.100000,-0.100000)"
fill="#000000" stroke="none">
<path d="M0 1286 c0 -26 6 -38 28 -51 15 -10 39 -29 54 -43 27 -25 204 -91
246 -92 13 0 53 -13 89 -30 35 -16 75 -30 89 -30 14 0 41 -7 61 -15 20 -8 66
-15 105 -15 38 0 84 -7 105 -15 51 -22 405 -22 456 0 25 10 72 15 149 15 l113
0 85 30 c46 17 101 30 121 30 20 0 53 7 72 15 20 8 61 15 90 15 30 0 71 7 90
15 28 11 78 15 206 15 169 0 201 -3 201 -22 0 -5 -20 -40 -45 -77 l-45 -67 0
-77 0 -77 54 -108 55 -107 118 -115 c150 -147 298 -266 391 -314 18 -9 50 -32
70 -49 25 -22 70 -43 142 -67 58 -18 109 -37 114 -42 13 -11 362 -10 384 1 9
5 37 17 62 27 61 26 106 68 136 125 l24 48 0 79 0 79 -29 40 c-16 23 -41 63
-55 89 -33 65 -196 223 -243 236 -20 5 -63 37 -106 77 -40 37 -85 71 -100 75
-22 5 -28 12 -25 29 2 16 8 21 23 18 11 -3 187 -8 390 -12 204 -4 390 -10 415
-14 25 -3 198 -9 385 -13 242 -5 346 -11 362 -19 16 -10 123 -13 438 -13 l416
0 36 -15 35 -15 385 0 384 0 36 -15 c19 -8 55 -15 79 -15 l44 0 0 55 0 54 -30
16 c-16 8 -47 15 -70 15 -22 0 -57 7 -77 15 -27 12 -79 15 -225 15 -145 0
-197 3 -225 15 l-35 15 -340 0 -339 0 -36 15 -35 15 -730 0 -729 0 -36 15 -35
15 -265 0 -264 0 -36 15 c-23 10 -69 15 -135 15 l-99 0 -55 25 c-50 23 -302
107 -404 135 -44 12 -229 31 -300 31 -91 -1 -287 -17 -300 -25 -8 -6 -48 -13
-90 -17 -74 -7 -122 -17 -210 -45 -33 -10 -100 -14 -246 -14 -157 0 -210 -3
-237 -15 -20 -8 -66 -15 -102 -15 -36 0 -82 7 -102 15 -26 11 -74 15 -177 15
l-142 0 -84 30 c-47 16 -96 30 -108 30 -13 0 -53 14 -89 30 -35 17 -71 30 -78
30 -8 0 -17 5 -20 10 -3 6 -50 10 -106 10 l-99 0 0 -34z m2900 -353 c14 -9 40
-29 58 -45 18 -15 40 -28 48 -28 27 0 87 -31 134 -70 25 -20 79 -58 120 -85
41 -27 95 -68 118 -89 24 -22 63 -52 87 -66 58 -34 172 -162 185 -209 20 -74
15 -90 -52 -153 l-63 -58 -98 0 -99 0 -65 30 c-35 17 -70 30 -76 30 -7 0 -32
14 -57 30 -25 16 -51 30 -58 30 -29 0 -103 42 -153 87 -30 27 -72 61 -95 76
-44 30 -194 182 -259 262 -74 92 -90 181 -45 245 l21 30 162 0 163 0 24 -17z"/>
</g>
</svg>
