<?xml version="1.0" standalone="no"?>
<!DOCTYPE svg PUBLIC "-//W3C//DTD SVG 20010904//EN"
 "http://www.w3.org/TR/2001/REC-SVG-20010904/DTD/svg10.dtd">
<svg version="1.0" xmlns="http://www.w3.org/2000/svg"
 width="1200.000000pt" height="150.000000pt" viewBox="0 0 1200.000000 150.000000"
 preserveAspectRatio="xMidYMid meet">
<metadata>
Created by potrace 1.16, written by Peter Selinger 2001-2019
</metadata>
<g transform="translate(0.000000,150.000000) scale(0.100000,-0.100000)"
fill="#000000" stroke="none">
<path d="M65 1435 l-65 -65 0 -56 0 -56 25 -30 c14 -16 25 -38 25 -48 0 -46
105 -127 187 -144 17 -4 52 -25 76 -47 25 -21 50 -39 57 -39 6 0 40 -13 74
-29 34 -16 75 -32 92 -36 31 -7 102 -45 211 -111 49 -30 79 -58 108 -100 22
-31 74 -94 116 -138 41 -45 87 -100 102 -123 14 -23 31 -44 37 -48 5 -3 34
-36 64 -73 145 -182 252 -272 323 -272 48 0 56 12 48 66 l-7 47 -77 81 c-43
45 -93 106 -112 136 -20 30 -55 77 -78 103 -23 27 -50 65 -60 85 -11 21 -33
51 -51 67 -88 84 -84 158 7 120 19 -8 53 -15 75 -15 21 0 55 -7 75 -15 19 -8
53 -15 75 -15 21 0 55 -7 75 -15 l35 -15 284 0 284 0 137 67 c101 51 144 77
166 105 17 21 35 38 41 38 7 0 49 -25 94 -55 45 -30 96 -62 113 -71 18 -9 60
-43 95 -76 34 -33 78 -69 96 -80 18 -11 49 -35 68 -52 19 -17 64 -44 100 -60
119 -52 132 -60 194 -118 92 -86 118 -113 149 -152 15 -19 51 -48 80 -64 29
-16 63 -42 76 -56 l24 -26 52 0 c63 0 77 13 96 88 l13 54 -24 46 c-25 47 -62
75 -128 98 -20 6 -40 18 -43 26 -3 7 -17 35 -30 61 l-24 48 19 15 c28 20 263
20 313 -1 24 -10 71 -15 150 -15 78 0 125 -5 150 -15 25 -11 72 -15 165 -15
92 0 139 -4 165 -15 26 -11 74 -15 180 -15 105 0 153 -4 180 -15 22 -9 67 -15
117 -15 65 0 99 -6 166 -30 68 -24 102 -30 168 -30 50 0 97 -6 119 -15 19 -8
45 -15 57 -15 27 0 123 -32 194 -66 29 -13 64 -24 78 -24 13 0 41 -7 61 -15
19 -8 53 -15 75 -15 21 0 55 -7 75 -15 21 -9 67 -15 116 -15 62 0 102 -7 172
-29 122 -39 170 -51 240 -60 34 -5 70 -13 82 -19 13 -7 70 -12 142 -12 69 0
122 -4 126 -10 9 -14 1511 -14 1520 0 3 6 32 10 64 10 32 0 75 7 94 15 20 8
55 15 77 15 23 0 51 5 63 12 12 6 48 14 82 19 70 9 118 21 240 60 50 16 101
29 113 29 12 0 132 54 265 120 133 66 253 120 265 120 12 0 39 -7 59 -15 27
-12 79 -15 221 -15 111 0 200 -5 223 -12 30 -8 48 -8 78 1 l40 11 41 -16 41
-16 42 11 c31 9 50 9 70 2 18 -7 139 -11 322 -11 l295 0 40 -16 c31 -12 57
-15 113 -10 89 8 105 8 194 0 56 -5 82 -2 113 10 31 12 75 16 184 16 105 0
153 4 179 15 20 8 54 15 75 15 22 0 56 7 75 15 20 8 48 15 62 15 l25 0 0 39 0
39 -42 31 -42 31 -77 0 c-45 0 -91 -6 -112 -15 -29 -12 -87 -15 -285 -15
l-250 0 -38 -16 c-40 -17 -114 -16 -309 5 -49 5 -226 10 -392 10 -202 1 -311
5 -330 12 -17 7 -117 14 -247 17 l-219 4 -35 33 -36 32 12 40 c7 22 12 87 12
144 l0 104 -41 60 c-57 84 -61 88 -176 165 l-103 69 -195 66 -196 65 -128 0
c-92 0 -139 -4 -164 -15 -20 -8 -47 -15 -61 -15 -14 0 -54 -13 -89 -30 -36
-16 -70 -30 -77 -30 -19 0 -94 -42 -128 -72 -19 -16 -51 -40 -73 -53 -61 -39
-120 -175 -99 -230 5 -14 10 -40 10 -56 0 -47 60 -101 177 -159 57 -27 114
-50 128 -50 14 0 42 -7 62 -15 19 -8 45 -15 57 -15 12 0 60 -13 106 -30 47
-16 101 -30 120 -30 20 0 74 -13 120 -30 47 -16 102 -30 123 -30 49 0 109 -25
101 -42 -9 -21 -118 -88 -145 -88 -13 0 -62 -14 -109 -30 -46 -17 -93 -30
-105 -30 -11 0 -58 -14 -105 -30 -46 -17 -101 -30 -121 -30 -20 0 -53 -7 -72
-15 -27 -11 -75 -15 -180 -15 -106 0 -154 -4 -180 -15 l-36 -15 -486 0 -486 0
-36 15 c-28 12 -82 15 -255 15 -172 0 -226 3 -255 15 -19 8 -53 15 -75 15 -21
0 -55 7 -75 15 -19 8 -52 15 -72 15 -20 0 -75 13 -121 30 -62 21 -104 30 -153
30 -37 0 -84 7 -104 15 -19 8 -59 15 -87 15 -51 0 -131 23 -214 61 -60 28
-219 75 -291 86 -26 4 -50 21 -91 64 l-56 59 -377 0 -378 0 -36 15 c-27 12
-79 15 -225 15 -145 0 -197 3 -225 15 -24 10 -71 15 -150 15 -78 0 -125 5
-150 15 -27 12 -80 15 -236 15 l-201 0 -42 -45 c-23 -25 -45 -45 -49 -45 -12
0 -104 59 -154 99 -25 20 -61 46 -80 60 -20 13 -65 49 -101 81 -36 31 -93 72
-127 90 -35 18 -74 47 -87 65 -14 18 -50 46 -79 63 -39 22 -63 45 -85 81 -41
67 -89 91 -177 91 l-67 0 -29 -29 -29 -29 0 -50 c0 -35 9 -70 32 -117 l31 -68
-14 -25 c-17 -31 -53 -51 -140 -80 l-65 -22 -168 0 c-125 0 -175 4 -203 15
-19 8 -60 15 -90 15 -29 0 -70 7 -90 15 -19 8 -60 15 -90 15 -29 0 -70 7 -90
15 -19 8 -59 15 -87 15 -48 0 -135 23 -196 53 -49 23 -90 60 -124 111 -19 28
-55 70 -80 91 -46 39 -63 56 -150 145 -24 25 -72 65 -106 90 -35 25 -76 57
-92 73 l-30 27 -104 0 -104 0 -65 -65z m221 -192 c-7 -7 -26 7 -26 19 0 6 6 6
15 -2 9 -7 13 -15 11 -17z m114 -73 c0 -5 -4 -10 -9 -10 -6 0 -13 5 -16 10 -3
6 1 10 9 10 9 0 16 -4 16 -10z m8555 -31 c33 -11 80 -29 104 -40 23 -11 78
-31 122 -45 84 -28 147 -74 201 -148 l28 -39 0 -56 c0 -64 -24 -123 -65 -164
-38 -37 -70 -43 -126 -24 -28 11 -78 17 -126 17 -62 0 -97 6 -163 30 -47 16
-101 30 -120 30 -19 0 -75 13 -125 29 -102 33 -160 48 -226 61 -70 13 -151 61
-174 103 l-20 37 20 37 20 38 110 55 c172 88 209 98 355 99 l126 1 59 -21z"/>
</g>
</svg>
