<?xml version="1.0" standalone="no"?>
<!DOCTYPE svg PUBLIC "-//W3C//DTD SVG 20010904//EN"
 "http://www.w3.org/TR/2001/REC-SVG-20010904/DTD/svg10.dtd">
<svg version="1.0" xmlns="http://www.w3.org/2000/svg"
 width="639.000000pt" height="285.000000pt" viewBox="0 0 639.000000 285.000000"
 preserveAspectRatio="xMidYMid meet">
<metadata>
Created by potrace 1.16, written by Peter Selinger 2001-2019
</metadata>
<g transform="translate(0.000000,285.000000) scale(0.100000,-0.100000)"
fill="#000000" stroke="none">
<path d="M1010 2812 c-73 -50 -76 -71 -16 -127 28 -25 46 -50 46 -64 0 -13 25
-49 64 -90 35 -37 75 -85 89 -107 14 -21 74 -85 133 -142 214 -202 446 -443
490 -509 19 -28 48 -62 65 -75 60 -45 89 -77 89 -98 0 -13 21 -43 53 -74 28
-29 65 -72 82 -97 16 -24 47 -65 70 -90 161 -183 316 -394 352 -477 17 -40 5
-67 -34 -75 -56 -12 -91 -44 -128 -116 l-35 -71 0 -78 0 -79 32 -44 c17 -24
44 -59 60 -77 36 -42 28 -58 -44 -97 -37 -19 -76 -30 -128 -36 -41 -4 -93 -12
-115 -18 -61 -16 -314 -31 -342 -20 -13 5 -76 9 -139 9 -79 0 -126 5 -151 15
-19 8 -55 15 -80 15 l-44 0 -27 30 c-15 17 -46 50 -69 74 -24 24 -43 50 -43
59 0 18 -43 53 -162 130 -47 32 -105 73 -128 92 -23 19 -49 35 -57 35 -21 0
-81 29 -127 62 -21 15 -46 28 -55 28 -9 0 -29 9 -46 21 -73 49 -124 69 -180
69 -31 0 -72 7 -92 15 -26 11 -73 15 -172 15 l-137 0 -42 -31 -42 -31 0 -81 0
-82 63 -56 c62 -56 119 -91 167 -102 14 -4 43 -22 65 -40 52 -44 86 -61 186
-93 45 -15 112 -42 150 -60 77 -38 179 -74 207 -74 23 0 122 -34 190 -66 29
-13 63 -24 75 -24 13 0 61 -13 107 -30 64 -22 103 -30 157 -30 39 0 75 -4 78
-10 8 -14 822 -14 830 0 3 6 26 10 50 10 26 0 66 10 97 24 71 34 167 66 194
66 12 0 38 7 57 15 20 8 48 15 62 15 58 0 155 68 155 109 0 8 14 45 32 83 l32
69 -17 47 c-10 26 -17 56 -17 67 -1 46 -68 215 -98 250 -18 20 -58 87 -88 148
-31 62 -68 124 -82 140 -30 32 -113 137 -174 221 -24 32 -76 94 -115 138 -40
45 -73 85 -73 90 0 4 -40 52 -90 104 -49 53 -90 100 -90 105 0 5 -22 34 -50
64 -27 30 -61 72 -74 94 -14 22 -45 56 -70 77 -24 20 -56 58 -70 85 -25 44
-59 80 -121 122 -14 10 -29 32 -32 49 -4 20 -22 42 -59 70 -29 22 -69 64 -89
94 -20 30 -48 60 -63 68 -41 21 -81 65 -108 118 -17 34 -32 50 -52 54 -38 9
-52 23 -52 51 0 32 23 38 73 19 30 -11 76 -16 155 -16 78 0 124 -5 149 -15 25
-11 72 -15 164 -15 96 0 139 -4 170 -16 l41 -17 153 5 153 5 54 -18 53 -18
188 -1 c144 0 196 -4 224 -15 l35 -15 561 0 c395 0 571 -3 598 -12 30 -8 48
-8 78 1 l40 11 41 -16 42 -17 47 16 c62 23 275 24 328 2 47 -20 104 -19 164 2
l49 18 48 -16 c34 -12 72 -15 137 -12 50 2 106 3 125 3 36 -2 93 -2 165 -1 22
0 275 -2 563 -5 l522 -5 0 54 0 55 -37 28 -38 29 -1295 7 c-712 4 -1331 10
-1375 13 -77 6 -139 8 -215 6 -19 0 -161 3 -315 7 -194 5 -287 11 -302 20 -16
9 -93 12 -288 12 l-266 0 -36 15 c-26 11 -74 15 -180 15 -105 0 -153 4 -180
15 -23 10 -69 15 -135 15 -65 0 -111 5 -135 15 -26 11 -76 15 -199 15 -98 0
-165 4 -169 10 -3 6 -41 10 -83 9 l-77 0 -55 -37z m-683 -2147 c19 -8 45 -15
57 -15 23 0 123 -32 166 -53 14 -6 43 -24 64 -39 21 -16 46 -28 53 -28 21 0
82 -30 127 -62 21 -15 46 -28 55 -28 9 0 27 -11 41 -25 14 -13 40 -37 59 -53
20 -17 31 -34 27 -40 -10 -17 -60 -15 -103 3 -19 8 -45 15 -57 15 -35 0 -126
35 -188 73 -32 19 -96 47 -142 61 -51 17 -99 40 -122 59 -22 18 -58 45 -81 61
-59 39 -68 52 -53 71 7 8 23 15 37 15 13 0 40 -7 60 -15z m2290 -109 l38 -34
-14 -39 c-25 -70 -65 -96 -77 -49 -3 13 -19 36 -35 52 -32 31 -37 64 -13 88
25 25 61 19 101 -18z"/>
</g>
</svg>
