<?xml version="1.0" standalone="no"?>
<!DOCTYPE svg PUBLIC "-//W3C//DTD SVG 20010904//EN"
 "http://www.w3.org/TR/2001/REC-SVG-20010904/DTD/svg10.dtd">
<svg version="1.0" xmlns="http://www.w3.org/2000/svg"
 width="519.000000pt" height="282.000000pt" viewBox="0 0 519.000000 282.000000"
 preserveAspectRatio="xMidYMid meet">
<metadata>
Created by potrace 1.16, written by Peter Selinger 2001-2019
</metadata>
<g transform="translate(0.000000,282.000000) scale(0.100000,-0.100000)"
fill="#000000" stroke="none">
<path d="M23 2806 l-23 -11 0 -65 0 -66 69 -59 c38 -33 81 -68 95 -78 14 -9
30 -34 35 -55 8 -28 42 -67 141 -165 71 -70 130 -134 130 -142 0 -7 26 -34 58
-58 53 -42 73 -69 100 -139 6 -14 33 -41 60 -59 35 -23 65 -57 108 -121 32
-49 81 -110 109 -136 55 -52 133 -148 181 -222 17 -26 52 -72 78 -101 26 -29
59 -76 73 -104 14 -27 48 -74 75 -104 27 -30 61 -77 75 -105 14 -28 48 -75 74
-104 27 -30 52 -66 56 -80 3 -15 17 -51 30 -81 13 -30 22 -59 19 -66 -6 -17
-69 -45 -103 -45 -52 -1 -125 -50 -155 -105 -15 -28 -28 -59 -28 -69 0 -26 81
-147 121 -180 17 -14 37 -26 46 -26 21 0 81 -29 127 -62 l39 -28 96 0 c114 0
129 8 167 82 l25 50 -4 82 c-4 78 -12 118 -43 216 -8 25 -14 56 -14 69 0 13
-16 41 -35 62 -19 21 -64 97 -100 168 -47 94 -74 137 -100 156 -19 15 -35 34
-35 42 0 7 -28 46 -63 86 -34 40 -84 106 -111 147 -27 41 -68 95 -91 120 -23
25 -50 59 -60 75 -11 17 -41 54 -68 84 -26 30 -61 80 -77 112 -16 32 -45 69
-63 83 -19 14 -46 48 -60 74 -15 28 -79 100 -152 171 -69 67 -125 127 -125
133 0 21 -89 146 -121 170 -17 13 -45 38 -62 56 -18 18 -57 59 -87 90 -37 38
-60 72 -69 101 l-13 44 14 8 c22 15 166 10 205 -6 28 -12 82 -15 254 -15 152
0 226 -4 246 -12 19 -9 120 -15 313 -19 157 -4 310 -11 340 -17 31 -6 198 -11
378 -11 l323 -1 36 -15 c27 -11 77 -15 210 -15 132 0 182 -4 210 -15 l35 -15
325 0 324 0 36 -15 c22 -9 67 -15 120 -15 52 0 97 -6 120 -15 24 -10 71 -15
150 -15 78 0 125 -5 150 -15 24 -10 71 -15 150 -15 78 0 125 -5 150 -15 l35
-15 330 0 329 0 29 15 30 16 0 52 0 52 -49 18 -49 17 -471 0 -472 0 -36 15
c-24 10 -71 15 -150 15 -78 0 -125 5 -150 15 -26 11 -74 15 -179 15 -79 0
-155 5 -171 11 -15 6 -118 13 -228 16 -135 4 -211 10 -234 19 -24 10 -83 14
-208 14 -132 0 -182 4 -210 15 l-35 15 -459 0 -459 0 -41 16 -40 17 -54 -18
-53 -19 -44 14 c-29 9 -125 15 -293 19 -172 4 -257 10 -272 19 -14 8 -66 12
-153 12 -93 0 -141 4 -167 15 -24 10 -70 15 -139 15 -58 0 -106 4 -109 10 -8
14 -214 11 -242 -4z m1652 -2361 c25 -24 32 -59 16 -83 l-8 -13 -57 16 c-66
19 -94 51 -76 84 16 32 92 29 125 -4z"/>
<path d="M750 761 c-5 -11 -10 -39 -10 -64 l0 -44 48 -61 c71 -93 134 -178
167 -229 17 -26 49 -65 73 -88 32 -32 42 -50 42 -74 l0 -32 65 -66 c35 -36 67
-74 70 -84 5 -15 16 -19 52 -19 l45 0 -5 22 c-46 184 -66 238 -106 287 -21 25
-49 66 -61 90 -34 68 -100 160 -127 178 -13 9 -36 37 -50 62 -35 62 -70 99
-115 122 -47 24 -75 24 -88 0z"/>
</g>
</svg>
