<?xml version="1.0" standalone="no"?>
<!DOCTYPE svg PUBLIC "-//W3C//DTD SVG 20010904//EN"
 "http://www.w3.org/TR/2001/REC-SVG-20010904/DTD/svg10.dtd">
<svg version="1.0" xmlns="http://www.w3.org/2000/svg"
 width="678.000000pt" height="108.000000pt" viewBox="0 0 678.000000 108.000000"
 preserveAspectRatio="xMidYMid meet">
<metadata>
Created by potrace 1.16, written by Peter Selinger 2001-2019
</metadata>
<g transform="translate(0.000000,108.000000) scale(0.100000,-0.100000)"
fill="#000000" stroke="none">
<path d="M275 1072 c-6 -5 -41 -19 -79 -31 -86 -27 -152 -74 -177 -125 -20
-43 -27 -150 -9 -161 6 -3 10 -14 10 -24 0 -37 79 -129 152 -177 40 -27 86
-61 103 -76 17 -15 63 -37 101 -49 39 -12 82 -35 99 -51 17 -15 37 -28 44 -28
7 0 37 -11 67 -25 72 -33 168 -65 195 -65 11 0 50 -13 86 -30 35 -16 77 -30
92 -30 17 0 38 -11 56 -30 l29 -30 141 0 142 0 64 49 c35 27 76 61 92 75 l27
25 0 106 c0 119 -12 166 -80 305 -42 88 -47 109 -30 141 l11 19 54 0 c30 0 73
-7 96 -17 l41 -16 48 17 48 17 37 -15 c28 -12 73 -16 179 -16 112 0 153 -4
194 -18 29 -10 55 -21 58 -25 3 -3 -12 -23 -35 -45 -48 -45 -50 -64 -16 -131
28 -56 151 -170 205 -190 56 -20 65 -27 68 -48 5 -33 29 -47 157 -88 66 -22
151 -54 189 -73 84 -41 212 -80 328 -102 26 -5 56 -13 67 -19 11 -6 37 -11 58
-11 22 0 77 -13 123 -30 l85 -30 87 0 c48 0 90 -5 93 -10 3 -6 46 -10 96 -10
l89 0 63 44 c34 25 71 52 83 60 20 14 64 128 64 167 0 25 -36 132 -60 178 -24
47 -122 141 -182 175 -50 28 -53 32 -39 55 6 9 20 11 47 7 26 -5 52 -2 76 9
53 22 272 21 328 -1 31 -12 57 -15 113 -10 39 4 83 6 97 6 14 -1 165 -4 335
-8 218 -5 316 -11 332 -19 12 -7 54 -13 93 -13 40 0 86 -6 107 -15 l35 -15
294 0 c185 0 303 -4 321 -11 15 -6 96 -12 180 -14 106 -3 163 -9 189 -20 28
-11 77 -15 213 -15 l176 0 63 -30 c35 -17 70 -30 78 -30 16 0 20 55 4 65 -5 3
-10 29 -10 56 l0 51 -29 29 -29 29 -167 0 c-125 0 -175 4 -202 15 l-35 15
-415 0 -414 0 -36 15 c-27 11 -77 15 -210 15 -132 0 -182 4 -210 15 l-35 15
-400 0 -399 0 -36 15 c-28 12 -82 15 -252 15 -161 0 -227 4 -261 14 -94 31
-156 39 -190 27 -53 -18 -511 -15 -557 4 -26 11 -76 15 -195 15 l-160 0 -65
30 -64 30 -204 0 c-130 0 -214 4 -232 11 -16 7 -133 15 -283 20 -140 4 -280
12 -310 17 -30 6 -106 11 -168 11 -76 1 -124 6 -149 16 -28 12 -81 15 -244 15
-128 0 -210 4 -214 10 -8 12 -307 14 -320 2z m772 -197 c19 -8 47 -15 62 -15
46 0 67 -25 95 -112 15 -45 38 -97 52 -115 14 -18 39 -63 56 -99 l30 -65 -4
-48 c-3 -28 -14 -62 -27 -80 l-22 -31 -117 0 -117 0 -30 21 c-53 36 -124 69
-147 69 -36 0 -230 69 -263 93 -16 13 -77 46 -135 74 l-105 52 -51 58 c-28 32
-63 77 -78 100 -32 49 -26 70 26 96 l33 17 353 0 353 0 36 -15z m1983 -179
c76 -24 132 -37 195 -46 33 -4 84 -20 112 -34 29 -14 63 -26 75 -26 48 0 150
-43 171 -73 12 -16 52 -51 88 -78 78 -57 99 -95 99 -173 l0 -57 -25 -24 -24
-25 -158 0 -158 0 -72 25 c-39 13 -90 33 -112 44 -22 12 -51 21 -64 21 -12 0
-61 13 -107 30 -47 16 -96 30 -108 30 -13 0 -53 14 -89 30 -35 17 -70 30 -76
30 -7 0 -32 14 -57 30 -25 16 -51 30 -59 30 -34 0 -186 84 -231 128 -26 26
-61 57 -76 68 l-28 22 13 16 c11 13 33 16 111 16 64 0 109 5 131 15 48 20 385
21 449 1z"/>
<path d="M638 773 c-28 -32 -48 -81 -48 -119 l0 -37 44 -43 c50 -51 78 -55
163 -25 78 27 83 33 83 111 0 78 -5 84 -83 111 -69 24 -139 25 -159 2z"/>
</g>
</svg>
