<?xml version="1.0" standalone="no"?>
<!DOCTYPE svg PUBLIC "-//W3C//DTD SVG 20010904//EN"
 "http://www.w3.org/TR/2001/REC-SVG-20010904/DTD/svg10.dtd">
<svg version="1.0" xmlns="http://www.w3.org/2000/svg"
 width="561.000000pt" height="63.000000pt" viewBox="0 0 561.000000 63.000000"
 preserveAspectRatio="xMidYMid meet">
<metadata>
Created by potrace 1.16, written by Peter Selinger 2001-2019
</metadata>
<g transform="translate(0.000000,63.000000) scale(0.100000,-0.100000)"
fill="#000000" stroke="none">
<path d="M245 620 c-3 -5 -19 -10 -34 -10 -16 0 -45 -7 -64 -15 -20 -8 -49
-15 -64 -15 -16 0 -39 -11 -55 -27 l-28 -27 0 -87 0 -87 28 -17 c15 -10 39
-29 54 -43 39 -36 122 -61 201 -62 37 0 84 -7 104 -15 19 -8 52 -15 72 -15 20
0 56 -6 81 -14 94 -30 138 -38 225 -45 50 -4 100 -12 112 -19 14 -8 73 -12
168 -12 107 0 155 -4 182 -15 l35 -15 310 0 309 0 36 -15 c47 -20 134 -19 193
2 l48 17 43 -14 c25 -8 86 -15 139 -15 52 -1 113 -7 134 -14 l39 -14 53 13
c34 8 66 10 91 4 44 -9 224 -9 335 1 62 6 87 4 126 -10 l49 -18 46 18 c35 13
61 16 109 11 35 -4 86 -8 113 -11 28 -2 67 -7 87 -10 25 -5 51 -2 83 10 l46
18 53 -13 c41 -10 61 -10 89 -1 l35 12 37 -16 c29 -12 77 -15 216 -15 108 0
180 -4 184 -10 8 -13 72 -13 80 0 9 14 687 14 701 0 7 -7 109 -9 285 -8 l274
3 3 46 3 45 -38 14 c-28 10 -126 16 -358 21 -176 4 -329 8 -340 9 -11 0 -48
-2 -82 -6 -47 -5 -74 -2 -111 11 l-50 18 -41 -16 -41 -17 -305 0 -305 0 -40
16 -41 16 -307 -6 c-375 -8 -304 -8 -692 -1 -220 4 -335 10 -355 18 -21 8
-171 14 -515 19 -586 8 -599 9 -677 36 -47 17 -86 22 -158 22 -62 0 -108 5
-132 15 -23 10 -69 15 -137 15 -66 0 -106 4 -114 12 -7 7 -12 34 -12 62 l0 50
-92 88 c-51 49 -106 100 -121 113 l-28 25 -134 0 c-78 0 -136 -4 -140 -10z
m173 -137 c40 -18 109 -67 129 -91 9 -10 9 -20 2 -33 -12 -23 -65 -25 -129 -5
-41 13 -82 24 -164 44 -59 15 -36 48 54 80 69 25 65 25 108 5z"/>
</g>
</svg>
