<?xml version="1.0" standalone="no"?>
<!DOCTYPE svg PUBLIC "-//W3C//DTD SVG 20010904//EN"
 "http://www.w3.org/TR/2001/REC-SVG-20010904/DTD/svg10.dtd">
<svg version="1.0" xmlns="http://www.w3.org/2000/svg"
 width="870.000000pt" height="192.000000pt" viewBox="0 0 870.000000 192.000000"
 preserveAspectRatio="xMidYMid meet">
<metadata>
Created by potrace 1.16, written by Peter Selinger 2001-2019
</metadata>
<g transform="translate(0.000000,192.000000) scale(0.100000,-0.100000)"
fill="#000000" stroke="none">
<path d="M5195 1910 c-3 -5 -25 -10 -48 -10 -23 0 -80 -14 -127 -30 -46 -17
-96 -30 -110 -30 -14 0 -43 -10 -65 -23 l-40 -22 -52 -100 -52 -100 -1 -58 c0
-58 25 -148 60 -217 24 -47 140 -150 206 -183 47 -24 204 -77 314 -107 25 -7
86 -15 135 -19 50 -4 100 -12 112 -19 12 -7 47 -12 78 -12 30 0 72 -7 92 -15
19 -8 48 -15 64 -15 34 0 55 -30 40 -58 -5 -10 -38 -43 -73 -73 -47 -41 -81
-61 -131 -77 -38 -12 -85 -34 -105 -47 -24 -17 -50 -25 -78 -25 -23 0 -58 -7
-77 -15 -20 -8 -61 -15 -90 -15 -30 0 -71 -7 -90 -15 -24 -10 -70 -15 -132
-15 -62 0 -108 5 -132 15 -20 8 -66 15 -105 15 -38 0 -84 7 -105 15 -19 8 -65
15 -102 15 -100 0 -281 68 -333 126 -104 115 -203 232 -223 264 -13 20 -36 47
-52 59 -15 12 -53 41 -84 65 -31 24 -72 52 -90 62 -19 9 -52 36 -74 60 -28 31
-75 61 -161 103 -111 55 -157 72 -294 112 -26 7 -120 14 -227 16 l-181 4 -63
-21 c-96 -33 -114 -45 -158 -107 l-41 -56 0 -54 0 -54 47 -50 c26 -28 70 -62
98 -76 27 -14 64 -36 80 -49 17 -12 66 -34 110 -48 91 -30 118 -42 160 -72 17
-13 86 -41 155 -63 69 -23 149 -53 178 -66 29 -14 64 -25 78 -25 14 0 55 -14
91 -30 35 -17 69 -30 75 -30 6 0 50 -18 97 -41 97 -46 190 -79 221 -79 23 0
95 -32 120 -52 32 -26 50 -64 50 -103 0 -50 -21 -81 -68 -101 l-37 -15 -56 16
c-31 8 -93 33 -138 55 -45 22 -87 40 -94 40 -7 0 -29 11 -48 25 -32 21 -168
69 -299 105 -25 7 -99 15 -165 19 -66 4 -130 12 -142 19 -12 6 -40 12 -63 12
-22 0 -57 7 -77 15 -22 9 -67 15 -120 15 -52 0 -97 6 -120 15 -22 9 -67 15
-120 15 -52 0 -97 6 -120 15 -25 11 -72 15 -165 15 l-129 0 -61 -21 c-125 -42
-208 -100 -243 -169 -35 -70 -55 -80 -152 -80 -45 0 -94 5 -109 11 -16 5 -105
13 -199 16 -108 4 -182 11 -204 19 -18 8 -52 14 -75 14 -25 0 -66 12 -104 30
-47 22 -79 30 -118 30 -30 0 -71 7 -91 15 -24 10 -70 15 -145 15 l-110 0 -29
-29 c-51 -52 -33 -103 51 -146 27 -14 62 -25 77 -25 62 0 152 -94 137 -142 -3
-13 -15 -35 -26 -50 l-19 -28 -88 0 -87 0 -29 30 c-17 18 -39 30 -55 30 -51 0
-224 70 -284 114 -52 39 -174 96 -206 96 l-30 0 0 -54 0 -55 41 -28 c22 -15
64 -46 92 -68 82 -63 161 -115 175 -115 7 0 38 -11 67 -25 30 -13 102 -40 160
-60 l105 -35 86 0 c100 0 133 13 211 87 71 67 93 115 93 203 0 79 14 96 49 61
l21 -21 105 0 c71 0 117 -5 142 -15 25 -11 72 -15 165 -15 92 0 139 -4 165
-15 24 -10 71 -15 150 -15 l115 0 46 -41 c74 -64 123 -89 306 -150 132 -44
172 -61 180 -78 l9 -21 117 0 117 0 23 25 c46 49 76 187 50 235 -22 41 -193
141 -308 179 l-61 21 -145 0 -145 0 -11 20 c-13 24 0 54 30 70 11 6 107 10
235 10 169 0 223 -3 252 -15 22 -9 67 -15 117 -15 65 0 99 -6 166 -30 62 -21
104 -30 153 -30 37 0 84 -7 104 -15 19 -8 53 -15 75 -15 21 0 55 -7 75 -15 19
-8 52 -15 72 -15 42 0 143 -33 181 -60 14 -9 48 -29 77 -43 28 -15 85 -58 127
-97 l76 -70 64 0 c35 0 80 7 99 15 20 8 48 15 62 15 31 0 87 28 167 82 70 48
108 112 108 183 0 81 56 114 137 80 24 -10 71 -15 149 -15 79 0 125 -5 152
-15 l38 -16 230 4 c147 2 245 8 274 16 160 46 358 116 389 137 19 13 42 24 50
24 27 0 148 89 201 147 38 42 66 62 103 75 62 22 135 23 184 3 24 -10 71 -15
150 -15 78 0 125 -5 150 -15 24 -10 71 -15 150 -15 78 0 125 -5 150 -15 28
-12 84 -15 272 -15 l236 0 65 -31 64 -30 435 2 c340 1 443 5 468 15 44 19 184
18 230 -1 59 -25 63 -22 63 43 l0 58 -28 27 -28 27 -686 0 c-483 0 -695 3
-715 11 -15 6 -122 14 -238 18 -136 4 -218 11 -232 19 -13 7 -61 12 -123 12
-67 0 -113 5 -137 15 -20 8 -66 15 -105 15 l-70 0 -65 30 c-35 16 -71 30 -79
30 -8 0 -20 12 -26 26 l-12 25 18 53 18 53 -11 34 c-5 19 -10 50 -10 69 1 19
-3 64 -8 100 l-9 65 -61 75 c-115 141 -244 250 -295 250 -16 0 -45 7 -65 15
-19 8 -45 15 -57 15 -12 0 -60 13 -106 30 -47 16 -97 30 -112 30 -15 0 -30 5
-33 10 -4 6 -53 10 -115 10 -62 0 -111 -4 -115 -10z m232 -165 c19 -8 45 -15
57 -15 23 0 210 -61 263 -86 18 -8 41 -27 50 -41 10 -15 40 -48 66 -75 27 -27
59 -72 72 -101 l25 -52 0 -118 0 -118 -25 -24 -24 -25 -83 0 c-46 0 -103 6
-128 14 -58 18 -124 35 -175 45 -22 4 -56 12 -75 18 -66 21 -125 35 -185 43
-77 11 -124 29 -210 79 -38 23 -77 45 -85 50 -15 8 -22 19 -59 104 -27 61 -26
87 3 145 31 61 38 67 155 124 l96 48 113 0 c78 0 124 -5 149 -15z m-2250 -390
c19 -8 60 -15 90 -15 58 0 106 -18 160 -58 17 -13 47 -27 65 -33 19 -5 53 -25
76 -45 23 -20 55 -39 70 -43 19 -5 38 -25 63 -67 20 -32 47 -64 60 -70 80 -37
84 -41 97 -79 7 -21 22 -45 32 -52 35 -24 25 -43 -22 -43 -45 0 -247 64 -317
99 -22 12 -46 21 -53 21 -7 0 -30 11 -50 25 -20 14 -72 36 -115 50 -91 29
-114 40 -167 77 -21 16 -45 28 -53 28 -8 0 -44 14 -80 30 -35 17 -69 30 -74
30 -25 0 -100 43 -115 65 -20 30 -7 56 38 78 45 22 243 24 295 2z m-653 -1115
c56 -25 73 -45 56 -65 -17 -20 -43 -19 -93 4 -49 22 -82 55 -72 70 10 17 62
13 109 -9z"/>
</g>
</svg>
