<?xml version="1.0" standalone="no"?>
<!DOCTYPE svg PUBLIC "-//W3C//DTD SVG 20010904//EN"
 "http://www.w3.org/TR/2001/REC-SVG-20010904/DTD/svg10.dtd">
<svg version="1.0" xmlns="http://www.w3.org/2000/svg"
 width="816.000000pt" height="195.000000pt" viewBox="0 0 816.000000 195.000000"
 preserveAspectRatio="xMidYMid meet">
<metadata>
Created by potrace 1.16, written by Peter Selinger 2001-2019
</metadata>
<g transform="translate(0.000000,195.000000) scale(0.100000,-0.100000)"
fill="#000000" stroke="none">
<path d="M0 1925 c0 -14 4 -25 10 -25 5 0 40 -28 77 -63 38 -35 88 -75 113
-89 25 -14 54 -36 65 -48 11 -12 38 -31 60 -43 22 -11 54 -30 70 -42 17 -13
53 -34 80 -48 28 -14 71 -43 97 -65 26 -22 63 -42 81 -46 19 -3 53 -23 77 -44
42 -36 67 -52 180 -117 29 -16 77 -47 109 -67 31 -21 63 -38 71 -38 8 0 30
-18 50 -40 25 -28 74 -58 170 -106 74 -37 149 -77 165 -90 42 -30 163 -90 202
-98 17 -4 51 -24 75 -44 25 -22 69 -45 103 -56 33 -11 74 -31 90 -46 17 -15
46 -36 65 -48 20 -11 46 -32 59 -46 14 -14 31 -26 39 -26 34 0 162 -72 220
-124 34 -31 70 -56 78 -56 21 0 82 -29 119 -56 17 -12 77 -46 135 -75 58 -29
119 -63 135 -75 56 -42 351 -184 383 -184 17 0 34 -4 37 -10 3 -5 26 -10 50
-10 34 0 58 9 100 35 65 42 95 93 95 159 0 66 22 75 97 40 75 -35 156 -47 423
-62 84 -4 154 -13 168 -20 17 -10 97 -12 355 -8 182 2 343 5 357 5 14 1 64 -1
113 -5 68 -5 96 -3 127 10 24 9 70 16 111 16 71 0 115 16 194 69 17 12 37 21
45 21 19 0 123 70 170 114 69 65 73 66 213 66 91 0 138 -4 164 -15 27 -12 79
-15 225 -15 145 0 197 -3 225 -15 l35 -15 505 0 504 0 36 -15 c49 -21 327 -21
363 0 15 9 54 14 99 15 96 0 171 25 171 57 0 33 -47 53 -122 53 -36 -1 -74 -7
-88 -15 -33 -19 -365 -21 -407 -3 -24 11 -485 30 -653 27 -161 -3 -245 -1
-315 9 -44 6 -147 11 -230 11 -100 1 -165 6 -195 15 -102 32 -140 39 -250 45
-63 3 -121 10 -128 14 -10 7 -11 23 -7 60 l7 52 -37 110 c-52 155 -64 175
-162 259 -96 83 -185 136 -229 136 -16 0 -49 14 -74 30 -25 16 -52 30 -60 30
-8 0 -44 14 -78 30 -35 17 -80 30 -101 30 -20 0 -75 13 -121 30 -47 16 -102
30 -123 30 -21 0 -54 7 -74 15 -25 11 -72 15 -164 15 l-129 0 -107 -36 c-165
-55 -181 -66 -230 -159 -24 -45 -42 -94 -43 -113 0 -54 70 -179 137 -242 83
-79 207 -160 245 -160 7 0 69 -27 136 -60 83 -40 136 -60 160 -60 21 0 57 -6
82 -14 78 -25 133 -37 195 -45 34 -5 70 -13 82 -19 12 -7 59 -12 105 -12 50 0
103 -6 133 -16 28 -9 56 -18 63 -20 18 -5 15 -48 -5 -67 -10 -8 -65 -32 -123
-51 l-105 -36 -558 0 -558 0 -36 15 c-24 10 -71 15 -150 15 -78 0 -125 5 -150
15 -19 8 -54 15 -77 15 -29 0 -54 9 -86 30 l-45 30 -58 0 c-32 0 -74 7 -94 15
-19 8 -54 15 -76 15 -30 0 -78 18 -184 70 -79 39 -154 70 -166 70 -29 0 -87
-59 -87 -88 0 -12 9 -42 20 -65 l21 -43 74 -42 c41 -23 83 -42 93 -42 10 0 55
-18 100 -40 62 -30 82 -44 82 -59 l0 -21 -27 11 c-16 6 -66 30 -113 54 -47 23
-104 48 -127 54 -22 6 -63 26 -90 44 -52 35 -176 97 -194 97 -17 0 -80 31
-114 56 -16 12 -59 37 -94 54 -35 18 -80 47 -100 65 -20 17 -52 41 -71 53 -20
11 -46 32 -59 46 -14 14 -32 26 -40 26 -9 0 -33 11 -54 25 -53 37 -226 121
-264 129 -17 4 -51 24 -75 45 -41 37 -155 101 -179 101 -16 0 -145 65 -209
106 -30 19 -71 39 -91 44 -19 5 -53 24 -75 42 -65 55 -125 93 -209 136 -44 22
-102 59 -129 81 -26 23 -56 41 -66 41 -9 0 -36 15 -60 33 -42 32 -111 75 -210
132 -29 17 -73 44 -99 61 -26 17 -67 42 -91 54 -25 12 -65 39 -90 59 -24 20
-69 51 -98 68 l-54 33 -64 0 -64 0 0 -25z m4815 -666 c33 -11 71 -29 85 -39
36 -26 142 -60 186 -60 39 0 91 -21 139 -56 17 -12 54 -34 84 -49 78 -39 154
-120 196 -207 l35 -72 0 -64 c0 -35 -5 -72 -10 -83 l-11 -19 -160 0 c-119 0
-169 4 -196 15 -19 8 -54 15 -77 15 -28 0 -71 15 -134 45 -62 30 -107 45 -133
45 -22 0 -56 7 -76 15 -19 8 -48 15 -62 15 -45 0 -345 154 -392 201 -44 44
-78 109 -79 149 0 60 52 103 180 149 l55 19 155 1 156 1 59 -21z"/>
</g>
</svg>
