<?xml version="1.0" standalone="no"?>
<!DOCTYPE svg PUBLIC "-//W3C//DTD SVG 20010904//EN"
 "http://www.w3.org/TR/2001/REC-SVG-20010904/DTD/svg10.dtd">
<svg version="1.0" xmlns="http://www.w3.org/2000/svg"
 width="720.000000pt" height="114.000000pt" viewBox="0 0 720.000000 114.000000"
 preserveAspectRatio="xMidYMid meet">
<metadata>
Created by potrace 1.16, written by Peter Selinger 2001-2019
</metadata>
<g transform="translate(0.000000,114.000000) scale(0.100000,-0.100000)"
fill="#000000" stroke="none">
<path d="M3168 1119 c-15 -11 -49 -24 -75 -29 -96 -18 -249 -62 -296 -87 -18
-8 -62 -46 -99 -84 l-68 -68 0 -57 0 -56 65 -67 65 -68 163 -53 c89 -29 190
-66 225 -81 35 -16 74 -29 88 -29 14 0 41 -7 61 -15 19 -8 45 -15 56 -15 12 0
62 -13 112 -29 103 -33 160 -49 227 -61 26 -5 56 -13 67 -19 11 -6 46 -11 78
-11 32 -1 69 -7 83 -15 14 -8 39 -15 55 -15 17 0 37 -5 45 -10 l15 -10 -15
-10 c-16 -10 -218 -15 -470 -11 l-155 3 -63 29 c-45 21 -79 29 -118 29 -30 0
-71 7 -91 15 -26 11 -74 15 -177 15 l-142 0 -84 30 c-62 21 -104 30 -153 30
-37 0 -84 7 -104 15 -19 8 -53 15 -75 15 -21 0 -55 7 -75 15 -19 8 -60 15 -90
15 -29 0 -70 7 -90 15 -19 8 -60 15 -90 15 -29 0 -70 7 -90 15 -23 10 -69 15
-134 15 -65 0 -112 5 -137 15 l-39 16 -214 -4 c-135 -2 -231 -8 -259 -16 -181
-52 -222 -69 -250 -104 l-17 -21 -33 14 c-54 22 -150 90 -167 119 -27 43 -56
72 -98 99 -22 14 -67 51 -100 82 -33 31 -81 68 -106 83 -25 14 -53 37 -62 51
-9 13 -67 58 -130 100 l-113 76 -48 0 -47 0 3 -62 3 -62 65 -54 c36 -29 102
-78 147 -108 50 -33 93 -71 110 -97 21 -30 41 -46 73 -57 32 -11 52 -27 73
-57 16 -25 48 -53 77 -69 35 -19 67 -49 105 -101 34 -44 63 -73 74 -73 10 0
52 -34 94 -75 l77 -75 30 0 c32 0 101 30 132 57 10 9 24 39 32 68 22 74 45 99
119 123 77 26 199 30 254 7 27 -11 77 -15 210 -15 132 0 182 -4 210 -15 20 -8
66 -15 105 -15 l70 0 65 -30 64 -30 100 0 c66 0 112 -5 136 -15 19 -8 53 -15
75 -15 21 0 55 -7 75 -15 19 -8 60 -15 90 -15 29 0 70 -7 90 -15 19 -8 53 -15
75 -15 21 0 55 -7 75 -15 19 -8 60 -15 90 -15 29 0 70 -7 90 -15 20 -8 66 -15
105 -15 38 0 84 -7 105 -15 19 -8 60 -15 90 -15 29 0 70 -7 90 -15 51 -22 405
-22 456 0 20 8 61 15 90 15 30 0 71 7 90 15 20 8 47 15 61 15 13 0 66 20 118
45 56 27 107 45 128 45 20 0 74 -13 120 -30 l85 -30 98 0 c64 0 110 -5 134
-15 l35 -15 428 0 c333 0 436 -3 466 -14 22 -7 45 -11 52 -8 7 2 22 -4 34 -14
l20 -19 167 -7 c91 -4 200 -11 241 -17 41 -5 226 -10 410 -10 221 -1 340 -5
347 -12 5 -5 38 -9 74 -7 l64 3 3 47 3 47 -60 31 -60 30 -311 0 -311 0 -36 15
c-28 12 -82 15 -254 15 -147 0 -227 4 -246 12 -15 7 -82 15 -148 20 -66 4
-154 12 -195 17 -41 5 -157 10 -258 10 -139 1 -191 5 -219 16 -24 10 -71 15
-149 15 -67 0 -124 5 -141 12 -15 7 -86 15 -158 18 l-130 5 -19 36 -20 37 27
63 c31 73 33 102 12 152 -8 20 -15 56 -15 81 l0 44 -41 48 c-22 27 -47 61 -55
76 -7 15 -38 43 -66 62 -29 19 -73 52 -97 72 -48 42 -126 73 -181 74 -19 0
-55 6 -80 14 -92 29 -137 39 -200 43 -36 3 -69 9 -74 14 -6 5 -123 9 -265 9
l-256 -1 -27 -20z m609 -124 c19 -8 54 -15 77 -15 25 0 66 -12 104 -30 35 -17
76 -30 90 -30 39 -1 148 -74 176 -119 14 -21 37 -47 51 -58 36 -26 65 -111 65
-191 0 -110 -42 -152 -154 -152 -37 0 -83 7 -103 15 -19 8 -60 15 -90 15 -29
0 -70 7 -90 15 -20 8 -66 15 -105 15 -38 0 -84 7 -105 15 -19 8 -45 15 -57 15
-12 0 -60 13 -106 30 -47 16 -94 30 -104 30 -11 0 -80 20 -153 45 -73 25 -142
45 -155 45 -33 0 -266 118 -279 141 -8 16 -7 26 5 44 19 29 269 155 307 155
15 0 42 7 60 15 27 11 87 14 282 15 l248 0 36 -15z"/>
</g>
</svg>
