<?xml version="1.0" standalone="no"?>
<!DOCTYPE svg PUBLIC "-//W3C//DTD SVG 20010904//EN"
 "http://www.w3.org/TR/2001/REC-SVG-20010904/DTD/svg10.dtd">
<svg version="1.0" xmlns="http://www.w3.org/2000/svg"
 width="516.000000pt" height="552.000000pt" viewBox="0 0 516.000000 552.000000"
 preserveAspectRatio="xMidYMid meet">
<metadata>
Created by potrace 1.16, written by Peter Selinger 2001-2019
</metadata>
<g transform="translate(0.000000,552.000000) scale(0.100000,-0.100000)"
fill="#000000" stroke="none">
<path d="M1230 5511 c-8 -5 -40 -20 -71 -34 l-56 -25 -41 -61 c-23 -33 -51
-88 -62 -122 l-22 -63 22 -64 c27 -83 34 -96 89 -160 50 -58 178 -132 228
-132 16 0 48 -14 73 -30 25 -16 52 -30 60 -30 8 0 44 -14 78 -30 35 -17 75
-30 88 -30 14 0 41 -7 61 -15 22 -9 68 -15 122 -15 l87 0 59 -31 c96 -49 98
-58 12 -70 -55 -8 -113 -22 -187 -45 -65 -20 -367 -20 -417 1 -22 9 -67 15
-120 15 -52 0 -97 6 -120 15 -19 8 -53 15 -75 15 -21 0 -55 7 -75 15 -19 8
-53 15 -75 15 -22 0 -64 11 -94 25 -30 14 -127 49 -217 79 -89 30 -189 70
-222 90 -33 20 -71 39 -85 43 -14 3 -46 18 -71 34 -53 33 -121 39 -169 14
l-30 -16 0 -39 c0 -22 4 -48 9 -58 5 -9 14 -29 19 -44 6 -14 33 -41 61 -59 27
-18 62 -53 77 -77 16 -25 45 -55 66 -68 21 -13 45 -36 54 -51 10 -16 41 -53
70 -83 29 -30 65 -73 81 -96 67 -97 101 -140 145 -184 25 -26 54 -63 64 -81 9
-19 34 -54 54 -79 21 -25 46 -61 55 -80 9 -19 32 -51 50 -70 37 -39 255 -362
287 -425 12 -22 45 -75 75 -118 29 -44 63 -98 75 -121 11 -22 43 -65 69 -94
27 -29 53 -69 58 -88 5 -20 21 -50 34 -67 13 -18 33 -50 45 -72 11 -22 32 -51
46 -64 14 -14 26 -31 26 -38 0 -21 38 -90 94 -173 68 -99 125 -201 167 -298
13 -30 34 -63 48 -73 l24 -19 119 0 120 0 66 -31 c37 -17 91 -51 121 -75 29
-24 61 -44 70 -44 41 0 334 -181 407 -251 22 -22 57 -44 77 -50 21 -5 44 -21
54 -36 10 -15 38 -45 62 -69 136 -131 221 -223 221 -239 0 -9 26 -44 59 -78
61 -64 137 -170 173 -240 11 -23 35 -63 53 -89 19 -26 36 -63 40 -80 4 -18 20
-54 36 -79 16 -25 29 -51 29 -56 0 -6 13 -40 30 -75 l30 -63 0 -127 c0 -163
-10 -188 -98 -264 -78 -67 -212 -134 -266 -134 -84 0 -103 -46 -34 -80 45 -22
136 -27 166 -10 9 5 46 19 81 31 36 11 81 29 100 39 40 20 161 150 161 172 0
8 21 57 46 109 l46 94 -5 50 c-5 50 -17 101 -43 185 -8 25 -14 63 -14 85 0 30
-10 54 -39 98 -22 32 -43 72 -47 90 -10 49 -62 147 -100 189 -18 21 -48 66
-65 100 -17 35 -57 90 -89 123 -31 33 -68 79 -83 101 -14 23 -40 52 -57 65
-38 28 -79 70 -135 135 -22 26 -58 58 -79 72 -22 13 -60 44 -85 67 -25 23 -69
54 -96 68 -28 13 -78 50 -113 81 -34 31 -70 56 -80 56 -9 0 -30 9 -47 21 -16
11 -55 33 -85 49 -30 16 -77 47 -104 69 -26 23 -56 41 -65 41 -9 0 -86 34
-170 75 -84 41 -165 75 -180 75 -29 0 -68 23 -91 54 -8 12 -28 37 -45 56 -17
19 -40 62 -50 95 -10 33 -33 76 -51 95 -52 58 -103 139 -110 177 -4 22 -26 57
-60 95 -30 34 -58 77 -64 98 -5 20 -19 45 -30 55 -22 20 -120 164 -145 215
-10 19 -40 59 -66 88 -27 29 -53 70 -59 90 -14 51 -59 127 -115 191 -25 30
-59 79 -75 110 -15 31 -38 65 -50 76 -12 11 -34 40 -48 65 -40 71 -83 131
-128 180 -22 25 -57 71 -77 103 -21 32 -54 77 -75 100 -21 23 -54 65 -74 92
-20 28 -50 60 -66 72 -31 23 -82 104 -82 130 0 10 6 13 18 8 9 -4 33 -9 52
-12 48 -7 169 -47 219 -72 22 -12 51 -21 64 -21 12 0 61 -13 107 -30 47 -16
102 -30 123 -30 21 0 54 -7 74 -15 l35 -15 313 0 313 0 35 15 c20 8 62 15 94
15 l58 0 45 30 c25 16 52 30 60 30 8 0 35 14 60 30 25 16 59 30 75 30 17 0 50
14 75 30 51 34 75 37 127 15 27 -11 77 -15 210 -15 132 0 182 -4 210 -15 l35
-15 1110 0 1109 0 29 15 30 16 0 54 0 55 -85 0 c-50 0 -99 6 -119 14 -25 11
-96 14 -307 13 -151 0 -285 -4 -298 -9 -16 -6 -42 -5 -73 4 -38 9 -58 9 -94 0
-35 -9 -55 -10 -84 -1 l-39 12 -40 -17 -41 -16 -319 0 c-211 0 -329 4 -351 11
-24 9 -45 9 -86 -1 l-53 -13 -43 16 -44 17 -217 0 c-171 0 -225 3 -254 15 -19
8 -62 15 -94 15 l-59 0 -12 25 c-8 19 -8 35 1 64 8 27 8 47 1 66 -5 14 -10 47
-10 72 l0 46 -102 104 c-117 119 -180 165 -320 235 -55 27 -118 62 -140 78
-31 22 -52 30 -85 30 -24 0 -60 7 -80 15 -19 8 -55 15 -79 15 -23 0 -46 5 -49
10 -7 12 -333 13 -355 1z m300 -135 c57 -18 123 -35 175 -45 99 -19 210 -68
263 -115 20 -18 51 -37 69 -40 36 -8 208 -171 224 -213 12 -33 12 -150 -1
-173 -19 -36 -47 -43 -98 -27 -79 25 -134 38 -197 46 -34 5 -70 13 -82 19 -12
7 -40 12 -63 12 -22 0 -57 7 -77 15 -19 8 -45 15 -57 15 -12 0 -60 13 -106 30
-47 16 -96 30 -110 30 -14 0 -38 9 -55 21 -16 11 -57 34 -90 51 -75 39 -166
130 -184 185 l-14 42 20 33 c14 25 43 45 113 81 l94 47 66 0 c36 0 85 -6 110
-14z"/>
</g>
</svg>
