<?xml version="1.0" standalone="no"?>
<!DOCTYPE svg PUBLIC "-//W3C//DTD SVG 20010904//EN"
 "http://www.w3.org/TR/2001/REC-SVG-20010904/DTD/svg10.dtd">
<svg version="1.0" xmlns="http://www.w3.org/2000/svg"
 width="627.000000pt" height="150.000000pt" viewBox="0 0 627.000000 150.000000"
 preserveAspectRatio="xMidYMid meet">
<metadata>
Created by potrace 1.16, written by Peter Selinger 2001-2019
</metadata>
<g transform="translate(0.000000,150.000000) scale(0.100000,-0.100000)"
fill="#000000" stroke="none">
<path d="M1895 1490 c-3 -5 -24 -10 -46 -10 -58 0 -159 -37 -195 -71 -41 -39
-78 -120 -71 -151 12 -48 51 -91 92 -103 22 -6 68 -26 102 -43 58 -30 120 -51
233 -82 25 -7 86 -16 135 -20 50 -4 104 -12 120 -18 51 -18 117 -33 180 -42
33 -5 92 -20 130 -34 41 -15 92 -26 123 -26 29 0 69 -7 89 -15 26 -11 74 -15
180 -15 105 0 153 -4 180 -15 19 -8 46 -15 60 -15 68 0 203 -115 203 -173 0
-14 7 -41 15 -60 17 -42 20 -149 5 -178 l-11 -19 -58 0 c-32 0 -75 -7 -94 -15
-49 -20 -215 -20 -264 0 -20 8 -66 15 -105 15 -38 0 -84 7 -105 15 -19 8 -60
15 -90 15 -29 0 -70 7 -90 15 -23 10 -69 15 -131 15 l-96 0 -94 32 -94 32 -46
-24 c-68 -36 -92 -84 -92 -182 l0 -77 -57 -40 -56 -41 -309 0 -309 0 -36 15
c-19 8 -65 15 -101 15 -50 0 -97 10 -201 44 -144 47 -201 63 -266 75 -90 17
-115 55 -115 175 l0 87 -24 47 c-29 57 -96 122 -153 151 l-42 21 -136 0 -136
0 -59 -30 -60 -30 0 -83 1 -82 77 -71 c42 -39 98 -81 122 -94 25 -13 59 -33
75 -45 35 -26 169 -95 186 -95 6 0 40 -14 76 -30 35 -17 70 -30 76 -30 7 0 41
-14 75 -30 35 -17 74 -30 85 -30 12 0 42 -6 67 -14 60 -19 125 -35 182 -46 26
-5 56 -13 67 -19 11 -6 37 -11 58 -11 36 0 135 -29 150 -43 11 -11 611 -8 618
3 3 6 27 10 53 10 33 0 62 9 97 29 52 29 90 49 139 72 17 8 44 39 65 73 22 37
49 66 71 78 43 22 127 24 177 3 26 -11 74 -15 177 -15 94 0 156 -5 186 -14 79
-25 138 -36 227 -42 50 -3 121 -17 165 -31 l76 -25 34 18 c18 9 46 26 62 38
17 11 55 35 85 51 44 23 62 41 83 80 l28 50 0 88 0 89 -31 89 c-20 59 -29 99
-25 115 l7 26 22 -7 c12 -5 105 -11 207 -14 119 -4 193 -10 207 -18 15 -9 81
-13 228 -13 160 0 214 -3 242 -15 l35 -15 869 0 869 0 0 40 0 40 -46 0 c-25 0
-55 6 -67 13 -19 10 -236 20 -562 26 -11 0 -74 -2 -139 -5 -79 -4 -133 -2
-162 6 -33 10 -53 10 -92 0 l-49 -13 -34 14 c-24 10 -114 16 -309 21 -151 4
-302 10 -335 13 -33 3 -152 9 -265 13 -133 4 -213 11 -227 20 -16 9 -87 12
-257 12 l-235 0 -123 124 c-142 144 -257 227 -450 323 -70 35 -132 63 -139 63
-6 0 -40 14 -76 30 -40 19 -81 30 -108 30 -24 0 -47 5 -50 10 -4 6 -123 10
-325 10 -202 0 -321 -4 -325 -10z m412 -105 c19 -8 60 -15 90 -15 29 0 70 -7
90 -15 19 -8 52 -15 72 -15 53 0 227 -62 259 -92 15 -14 59 -42 97 -61 75 -38
145 -94 196 -158 l32 -41 -14 -9 c-22 -14 -86 -11 -126 6 -19 8 -53 15 -75 15
-21 0 -55 7 -75 15 -20 8 -66 15 -105 15 -38 0 -84 7 -105 15 -23 10 -69 15
-135 15 -65 0 -111 5 -135 15 -19 8 -47 15 -60 15 -14 0 -54 14 -90 30 -35 17
-74 30 -86 30 -12 0 -42 6 -67 14 -79 25 -133 38 -192 45 -57 7 -108 38 -108
67 0 20 60 64 88 64 15 0 63 13 107 29 l80 29 113 1 c79 1 123 -3 149 -14z
m-1950 -756 c60 -38 98 -111 74 -147 l-8 -13 -55 16 c-35 10 -74 32 -109 62
-66 56 -70 62 -58 85 14 27 110 25 156 -3z"/>
</g>
</svg>
