<?xml version="1.0" standalone="no"?>
<!DOCTYPE svg PUBLIC "-//W3C//DTD SVG 20010904//EN"
 "http://www.w3.org/TR/2001/REC-SVG-20010904/DTD/svg10.dtd">
<svg version="1.0" xmlns="http://www.w3.org/2000/svg"
 width="621.000000pt" height="267.000000pt" viewBox="0 0 621.000000 267.000000"
 preserveAspectRatio="xMidYMid meet">
<metadata>
Created by potrace 1.16, written by Peter Selinger 2001-2019
</metadata>
<g transform="translate(0.000000,267.000000) scale(0.100000,-0.100000)"
fill="#000000" stroke="none">
<path d="M1291 2647 c-6 -12 -28 -33 -49 -46 -108 -71 -172 -164 -172 -250 l0
-49 36 -44 c20 -23 47 -60 60 -80 13 -21 42 -47 64 -58 23 -12 58 -36 78 -54
39 -35 92 -66 114 -66 7 0 33 -14 58 -30 25 -16 52 -30 60 -30 8 0 71 -27 138
-60 68 -33 135 -60 148 -60 14 0 41 -7 61 -15 19 -8 51 -15 71 -15 19 0 116
-27 214 -60 124 -42 193 -60 228 -60 28 0 67 -7 87 -15 25 -11 72 -15 160 -15
l125 0 71 -22 c56 -18 81 -33 117 -69 25 -25 62 -56 82 -69 20 -14 49 -44 65
-68 15 -24 48 -58 74 -75 26 -17 60 -50 75 -75 16 -24 49 -58 75 -75 26 -17
60 -50 75 -75 16 -24 49 -57 74 -74 25 -17 57 -46 70 -67 13 -20 70 -83 125
-141 107 -110 215 -261 215 -300 0 -18 -41 -10 -107 20 l-66 31 -66 -3 -66 -3
-38 -57 c-20 -32 -43 -58 -50 -58 -6 0 -32 14 -57 30 -25 16 -52 30 -60 30 -9
0 -32 11 -51 24 -54 37 -150 66 -219 66 l-60 0 -40 -36 c-22 -20 -43 -48 -47
-63 -13 -55 -45 -65 -111 -34 -40 18 -139 91 -161 117 -7 9 -20 16 -28 16 -24
0 -83 31 -163 86 -42 28 -109 69 -149 90 -41 21 -85 53 -101 73 -17 22 -57 51
-103 73 -41 21 -112 63 -158 94 -45 31 -97 61 -115 66 -18 5 -57 30 -86 57
-29 27 -75 60 -103 75 -27 15 -75 42 -105 61 -30 18 -83 51 -118 72 -35 21
-82 53 -105 71 -23 18 -55 40 -71 50 -74 45 -194 126 -216 147 -28 26 -102 65
-123 65 -7 0 -24 12 -38 26 -13 14 -42 35 -64 46 -22 12 -53 31 -70 43 -16 13
-50 33 -75 45 -25 12 -65 39 -90 60 -25 21 -73 51 -106 68 -34 17 -87 54 -120
81 -32 28 -99 72 -149 98 -50 25 -108 59 -129 75 -24 17 -52 28 -73 28 l-33 0
0 -37 0 -36 60 -55 c34 -30 78 -66 98 -79 20 -14 55 -43 78 -64 22 -22 56 -44
75 -49 20 -6 53 -25 75 -43 21 -19 55 -42 74 -52 58 -29 376 -244 424 -286 24
-21 50 -39 58 -39 7 0 27 -9 43 -21 17 -11 53 -32 80 -46 28 -14 72 -43 98
-65 26 -22 63 -44 82 -49 19 -5 58 -31 87 -58 29 -27 85 -64 123 -84 39 -19
111 -62 160 -96 49 -34 97 -61 106 -61 8 0 29 -17 46 -37 19 -25 58 -52 109
-77 43 -21 98 -54 122 -74 52 -42 121 -89 182 -124 25 -14 54 -36 65 -48 11
-12 50 -37 86 -55 36 -19 102 -58 145 -88 44 -30 98 -64 121 -75 22 -12 76
-46 120 -75 86 -60 144 -91 185 -101 14 -3 50 -28 80 -54 29 -26 66 -56 82
-66 16 -10 49 -36 72 -58 76 -70 149 -108 208 -108 l52 0 19 55 18 55 -11 25
c-7 14 -26 34 -43 43 -18 9 -50 32 -73 49 -22 18 -65 48 -93 68 -40 26 -53 41
-53 59 0 30 24 56 52 56 25 0 83 -27 123 -56 17 -12 66 -40 110 -62 96 -48
201 -133 299 -244 55 -62 166 -17 166 67 0 48 -31 106 -74 139 -39 30 -73 93
-57 109 24 24 386 -194 432 -261 28 -41 74 -72 107 -72 32 0 97 35 116 62 27
38 18 62 -49 144 -36 43 -92 113 -125 154 -61 77 -127 157 -200 243 -22 27
-48 63 -56 80 -9 18 -70 85 -135 150 -66 65 -127 133 -135 150 -16 31 -190
206 -239 240 -14 10 -36 40 -50 67 -18 36 -40 59 -79 84 -39 25 -59 47 -76 81
l-23 47 14 9 c24 15 245 11 286 -6 28 -12 84 -15 270 -15 185 0 241 -3 270
-15 l35 -15 951 0 c684 0 960 -3 988 -11 29 -9 48 -9 84 1 l45 13 0 37 0 38
-42 31 -42 31 -58 0 c-32 0 -74 6 -93 14 l-35 15 -941 1 -940 0 -36 15 -35 15
-325 0 -324 0 -36 15 c-22 9 -67 15 -120 15 -98 0 -139 15 -176 64 -14 17 -45
44 -69 60 -24 15 -58 49 -75 75 -17 26 -51 59 -75 75 -23 15 -56 45 -71 66
-15 22 -51 52 -79 67 -32 17 -64 45 -83 73 -24 34 -43 49 -77 60 -51 17 -57
21 -163 109 -43 35 -92 67 -110 72 -17 5 -49 24 -71 43 -54 46 -141 88 -270
130 -60 20 -117 41 -126 46 -10 6 -106 10 -226 10 l-209 0 -12 -23z m416 -137
c35 -16 69 -30 75 -30 7 0 67 -27 135 -60 69 -33 130 -60 137 -60 8 0 26 -16
40 -35 15 -19 49 -46 75 -60 66 -33 178 -110 226 -154 22 -21 52 -45 68 -54
15 -10 38 -35 52 -56 14 -24 44 -50 75 -67 31 -17 65 -47 87 -77 l36 -48 -15
-15 -15 -15 -38 15 c-22 9 -66 16 -107 16 -38 0 -84 7 -105 15 -19 8 -58 15
-86 15 -35 0 -104 18 -229 60 -98 33 -186 60 -195 60 -36 0 -220 69 -278 105
-33 19 -71 38 -85 42 -54 12 -170 75 -187 100 -10 15 -37 46 -60 69 l-43 41 0
38 c0 65 49 123 140 167 26 13 61 17 133 18 l99 0 65 -30z"/>
</g>
</svg>
