<?xml version="1.0" standalone="no"?>
<!DOCTYPE svg PUBLIC "-//W3C//DTD SVG 20010904//EN"
 "http://www.w3.org/TR/2001/REC-SVG-20010904/DTD/svg10.dtd">
<svg version="1.0" xmlns="http://www.w3.org/2000/svg"
 width="954.000000pt" height="255.000000pt" viewBox="0 0 954.000000 255.000000"
 preserveAspectRatio="xMidYMid meet">
<metadata>
Created by potrace 1.16, written by Peter Selinger 2001-2019
</metadata>
<g transform="translate(0.000000,255.000000) scale(0.100000,-0.100000)"
fill="#000000" stroke="none">
<path d="M0 2513 c0 -64 44 -102 215 -187 152 -75 256 -116 296 -116 12 0 61
-18 108 -41 123 -58 254 -97 366 -108 40 -4 123 -25 192 -49 68 -23 132 -42
144 -42 11 0 50 -13 86 -30 37 -17 81 -30 104 -30 22 0 56 -7 76 -15 19 -8 65
-15 102 -15 36 0 86 -6 111 -14 87 -28 136 -38 210 -45 41 -4 85 -13 97 -19
14 -8 78 -12 183 -12 120 0 170 -4 197 -15 l35 -15 450 0 c339 0 455 3 471 12
13 7 80 15 157 19 139 7 163 11 315 60 50 16 100 29 112 29 11 0 37 7 56 15
20 8 54 15 76 15 23 0 67 13 104 30 36 16 72 30 81 30 22 0 165 141 209 206
19 28 46 73 61 101 14 29 36 59 48 67 35 25 120 20 183 -9 67 -30 259 -95 283
-95 29 0 132 -40 171 -66 19 -13 42 -24 51 -24 8 0 35 -14 60 -30 25 -16 51
-30 58 -30 20 0 82 -30 117 -56 17 -12 76 -45 131 -73 96 -48 299 -177 354
-225 38 -33 109 -80 165 -110 29 -15 77 -56 113 -96 35 -38 70 -70 78 -70 9 0
41 -27 72 -60 35 -36 66 -60 79 -60 24 0 38 -15 47 -52 3 -14 36 -54 75 -90
67 -62 86 -97 68 -125 -6 -10 -89 -13 -356 -13 l-349 0 -35 -15 c-20 -8 -55
-15 -77 -15 -88 0 -200 -87 -200 -156 0 -47 42 -127 85 -160 l35 -26 0 -35 c0
-47 45 -93 92 -93 l33 0 43 -50 c24 -28 66 -62 95 -76 29 -15 71 -42 95 -61
52 -43 121 -89 182 -125 25 -14 56 -38 69 -52 14 -14 31 -26 40 -26 8 0 84
-34 168 -75 84 -41 159 -75 167 -75 8 0 18 -5 21 -10 8 -12 118 -13 143 -1 9
4 34 16 55 27 21 10 66 43 99 74 46 42 64 67 79 110 10 30 18 65 19 77 0 13 7
41 17 64 l16 41 -16 47 c-10 25 -17 74 -17 109 0 64 -19 134 -65 238 -14 32
-23 59 -21 61 3 3 120 4 262 3 l258 -1 64 -29 63 -30 70 0 c39 0 85 -7 106
-15 23 -10 69 -15 135 -15 65 0 111 -5 135 -15 23 -10 69 -15 135 -15 65 0
111 -5 135 -15 l35 -15 325 0 324 0 36 -15 c25 -10 71 -15 154 -15 l119 0 0
55 0 55 -130 0 c-94 0 -141 4 -167 15 -27 11 -77 15 -210 15 -132 0 -182 4
-210 15 -22 9 -67 15 -120 15 -52 0 -97 6 -120 15 -25 11 -72 15 -165 15 -92
0 -139 4 -165 15 -27 12 -80 15 -228 15 l-193 0 -32 39 c-40 52 -61 57 -127
35 l-54 -18 -48 17 c-31 11 -79 17 -130 17 -50 0 -96 6 -118 15 -25 10 -71 15
-153 15 l-118 0 -44 62 c-55 78 -358 389 -413 424 -23 14 -56 47 -73 74 -21
32 -49 58 -86 78 -29 17 -64 45 -76 62 -12 17 -45 42 -73 56 -29 15 -71 42
-95 61 -63 51 -131 97 -182 123 -25 12 -65 39 -90 60 -47 38 -165 102 -210
113 -14 4 -47 24 -74 47 -26 22 -56 40 -65 40 -9 0 -58 20 -109 45 -52 25 -99
45 -105 45 -7 0 -32 14 -57 30 -25 16 -56 30 -69 30 -13 0 -105 27 -205 59
-201 66 -254 80 -309 88 -20 3 -40 9 -43 14 -3 5 -60 9 -128 9 l-122 0 -27
-28 -27 -28 0 -75 0 -75 -34 -69 c-19 -39 -50 -90 -69 -114 l-34 -44 -189 -63
c-104 -35 -199 -64 -210 -64 -12 0 -38 -7 -57 -15 -29 -12 -85 -15 -270 -15
-186 0 -242 -3 -270 -15 -26 -11 -73 -15 -162 -15 -89 0 -136 4 -162 15 l-35
15 -400 0 -399 0 -36 15 c-19 8 -53 15 -74 15 -21 0 -50 5 -66 11 -32 13 -80
23 -209 43 -50 7 -100 19 -112 25 -11 6 -38 11 -59 11 -22 0 -77 13 -123 30
-47 16 -100 30 -119 30 -19 0 -96 20 -170 44 -142 46 -199 62 -266 75 -51 10
-244 75 -283 95 -17 9 -66 27 -109 41 -43 14 -102 37 -131 50 -29 14 -58 25
-65 25 -6 0 -32 14 -57 30 -25 16 -53 30 -62 30 -9 0 -20 5 -23 10 -3 6 -31
10 -61 10 l-54 0 0 -37z m6627 -1608 c25 -11 73 -15 167 -15 l132 0 24 -17
c52 -35 86 -100 140 -261 l40 -117 0 -80 0 -81 -34 -71 c-44 -90 -62 -103
-149 -103 -71 0 -115 14 -172 56 -38 28 -162 89 -197 98 -14 3 -50 28 -80 55
-29 26 -76 60 -105 74 -28 15 -85 57 -127 94 -41 37 -99 86 -128 108 -55 43
-153 177 -145 199 8 21 72 46 115 46 22 0 55 7 73 15 49 21 395 21 446 0z"/>
</g>
</svg>
