<?xml version="1.0" standalone="no"?>
<!DOCTYPE svg PUBLIC "-//W3C//DTD SVG 20010904//EN"
 "http://www.w3.org/TR/2001/REC-SVG-20010904/DTD/svg10.dtd">
<svg version="1.0" xmlns="http://www.w3.org/2000/svg"
 width="1836.000000pt" height="459.000000pt" viewBox="0 0 1836.000000 459.000000"
 preserveAspectRatio="xMidYMid meet">
<metadata>
Created by potrace 1.16, written by Peter Selinger 2001-2019
</metadata>
<g transform="translate(0.000000,459.000000) scale(0.100000,-0.100000)"
fill="#000000" stroke="none">
<path d="M2167 4342 c-11 -12 -17 -36 -17 -71 0 -29 -5 -61 -10 -72 l-11 -19
-438 0 -438 0 -16 -18 c-12 -13 -17 -37 -17 -86 0 -37 -5 -76 -10 -87 l-11
-19 -168 0 -168 0 -16 -18 c-11 -12 -17 -36 -17 -71 0 -29 -5 -61 -10 -72
l-11 -19 -168 0 -168 0 -16 -18 -17 -19 0 -157 c0 -89 -4 -166 -10 -177 l-11
-19 -63 0 c-48 0 -67 -4 -79 -18 l-17 -19 0 -155 0 -155 18 -16 c13 -12 37
-17 80 -17 l61 0 11 -19 c6 -11 10 -88 10 -179 l0 -159 18 -16 c14 -13 38 -17
95 -17 l76 0 11 -19 c5 -11 10 -44 10 -74 0 -72 17 -87 98 -87 l61 0 11 -19
c5 -11 10 -51 10 -89 0 -89 13 -102 98 -102 l61 0 11 -19 c5 -11 10 -44 10
-74 0 -40 5 -58 18 -70 l19 -17 166 0 166 0 11 -19 c5 -11 10 -44 10 -74 0
-40 5 -58 18 -70 l19 -17 166 0 166 0 11 -19 c5 -11 10 -51 10 -89 0 -89 13
-102 98 -102 l61 0 11 -19 c5 -11 10 -44 10 -74 0 -40 5 -58 18 -70 l19 -17
256 0 256 0 11 -19 c5 -11 10 -51 10 -89 0 -54 4 -72 18 -85 l19 -17 166 0
166 0 11 -19 c5 -11 10 -44 10 -74 0 -40 5 -58 18 -70 l19 -17 256 0 256 0 11
-19 c5 -11 10 -44 10 -74 0 -40 5 -58 18 -70 l19 -17 346 0 346 0 11 -19 c5
-11 10 -51 10 -89 0 -54 4 -72 18 -85 l19 -17 650 0 650 0 16 18 c12 13 17 37
17 86 0 37 5 76 10 87 l11 19 348 0 348 0 16 18 c11 12 17 36 17 71 0 29 5 61
10 72 l11 19 168 0 168 0 16 18 c11 12 17 36 17 71 0 29 5 61 10 72 l11 19 63
0 c84 0 96 13 96 104 0 37 5 76 10 87 l11 19 78 0 78 0 16 18 c11 12 17 36 17
71 0 29 5 61 10 72 l11 19 63 0 c48 0 67 4 79 18 l17 19 0 455 0 455 -18 16
c-13 12 -37 17 -80 17 l-61 0 -11 19 c-6 11 -10 88 -10 179 l0 159 -18 16
c-14 13 -38 17 -95 17 l-76 0 -11 19 c-5 11 -10 44 -10 74 0 72 -17 87 -98 87
l-61 0 -11 19 c-5 11 -10 44 -10 74 0 75 -15 87 -113 87 l-76 0 -11 19 c-5 11
-10 51 -10 89 0 54 -4 72 -18 85 l-19 17 -151 0 -151 0 -11 19 c-5 11 -10 44
-10 74 0 75 -15 87 -113 87 l-76 0 -11 19 c-13 25 -13 97 0 122 l11 19 554 0
554 0 11 -19 c5 -11 10 -44 10 -74 0 -40 5 -58 18 -70 l19 -17 1201 0 1201 0
11 -19 c5 -11 10 -44 10 -74 0 -73 16 -87 102 -87 82 0 98 15 98 89 0 29 5 61
10 72 l11 19 74 0 74 0 11 -19 c5 -11 10 -44 10 -74 0 -40 5 -58 18 -70 l19
-17 916 0 916 0 11 -19 c5 -11 10 -51 10 -89 0 -54 4 -72 18 -85 l19 -17 826
0 826 0 11 -19 c5 -11 10 -44 10 -74 0 -40 5 -58 18 -70 l19 -17 1021 0 1021
0 11 -19 c5 -11 10 -44 10 -74 0 -40 5 -58 18 -70 l19 -17 1220 0 1220 0 16
18 c25 27 24 143 -1 165 l-19 17 -361 0 -361 0 -11 19 c-5 11 -10 44 -10 74 0
40 -5 58 -18 70 l-19 17 -1006 0 -1006 0 -11 19 c-5 11 -10 51 -10 89 0 54 -4
72 -18 85 l-19 17 -1126 0 -1126 0 -11 19 c-5 11 -10 44 -10 74 0 40 -5 58
-18 70 l-19 17 -826 0 -826 0 -11 19 c-5 11 -10 44 -10 74 0 40 -5 58 -18 70
l-19 17 -1201 0 -1201 0 -11 19 c-5 11 -10 51 -10 89 0 54 -4 72 -18 85 l-19
17 -1216 0 -1216 0 -11 19 c-5 11 -10 44 -10 74 0 40 -5 58 -18 70 l-19 17
-2075 0 -2075 0 -16 -18z m3213 -411 c5 -11 10 -43 10 -72 0 -35 6 -59 17 -71
l16 -18 78 0 78 0 11 -19 c5 -11 10 -43 10 -72 0 -74 16 -89 96 -89 l63 0 11
-19 c5 -11 10 -50 10 -87 0 -91 12 -104 96 -104 l63 0 11 -19 c5 -11 10 -43
10 -72 0 -35 6 -59 17 -71 l16 -18 168 0 168 0 11 -19 c5 -11 10 -43 10 -72 0
-74 16 -89 96 -89 l63 0 11 -19 c6 -11 10 -88 10 -177 l0 -157 17 -19 16 -18
78 0 78 0 11 -19 c5 -11 10 -43 10 -72 0 -74 16 -89 96 -89 l63 0 11 -19 c14
-26 14 -486 0 -512 l-11 -19 -61 0 c-85 0 -98 -13 -98 -102 0 -38 -5 -78 -10
-89 l-11 -19 -76 0 c-98 0 -113 -12 -113 -87 0 -30 -5 -63 -10 -74 l-11 -19
-61 0 c-85 0 -98 -13 -98 -102 0 -38 -5 -78 -10 -89 l-11 -19 -256 0 -256 0
-19 -17 c-13 -12 -18 -30 -18 -70 0 -30 -5 -63 -10 -74 l-11 -19 -539 0 -539
0 -11 19 c-5 11 -10 43 -10 72 0 35 -6 59 -17 71 l-16 18 -543 0 -543 0 -11
19 c-5 11 -10 50 -10 87 0 49 -5 73 -17 86 l-16 18 -168 0 -168 0 -11 19 c-5
11 -10 43 -10 72 0 35 -6 59 -17 71 l-16 18 -258 0 -258 0 -11 19 c-5 11 -10
50 -10 87 0 49 -5 73 -17 86 l-16 18 -168 0 -168 0 -11 19 c-5 11 -10 43 -10
72 0 74 -16 89 -96 89 l-63 0 -11 19 c-5 11 -10 43 -10 72 0 35 -6 59 -17 71
l-16 18 -168 0 -168 0 -11 19 c-5 11 -10 50 -10 87 0 91 -12 104 -96 104 l-63
0 -11 19 c-5 11 -10 43 -10 72 0 74 -16 89 -96 89 l-63 0 -11 19 c-5 11 -10
43 -10 72 0 35 -6 59 -17 71 l-16 18 -78 0 -78 0 -11 19 c-14 27 -14 695 0
722 l11 19 76 0 c98 0 113 12 113 87 0 30 5 63 10 74 l11 19 346 0 346 0 19
17 c13 12 18 30 18 70 0 30 5 63 10 74 l11 19 1679 0 1679 0 11 -19z"/>
</g>
</svg>
