<?xml version="1.0" standalone="no"?>
<!DOCTYPE svg PUBLIC "-//W3C//DTD SVG 20010904//EN"
 "http://www.w3.org/TR/2001/REC-SVG-20010904/DTD/svg10.dtd">
<svg version="1.0" xmlns="http://www.w3.org/2000/svg"
 width="3168.000000pt" height="1752.000000pt" viewBox="0 0 3168.000000 1752.000000"
 preserveAspectRatio="xMidYMid meet">
<metadata>
Created by potrace 1.16, written by Peter Selinger 2001-2019
</metadata>
<g transform="translate(0.000000,1752.000000) scale(0.100000,-0.100000)"
fill="#000000" stroke="none">
<path d="M16867 16342 l-17 -19 0 -170 0 -170 18 -16 19 -17 631 0 631 0 11
-19 c5 -11 10 -44 10 -74 0 -40 5 -58 18 -70 l19 -17 1201 0 1201 0 11 -19 c5
-11 10 -44 10 -74 0 -40 5 -58 18 -70 l19 -17 1291 0 1291 0 11 -19 c5 -11 10
-51 10 -89 0 -54 4 -72 18 -85 l19 -17 1381 0 1381 0 11 -19 c5 -11 10 -44 10
-74 0 -40 5 -58 18 -70 l19 -17 1111 0 1111 0 11 -19 c5 -11 10 -44 10 -74 0
-40 5 -58 18 -70 l19 -17 1295 0 1295 0 16 18 c12 13 17 37 17 84 0 88 -12 98
-113 98 l-76 0 -11 19 c-5 11 -10 44 -10 74 0 40 -5 58 -18 70 l-19 17 -916 0
-916 0 -11 19 c-5 11 -10 51 -10 89 0 54 -4 72 -18 85 l-19 17 -1381 0 -1381
0 -11 19 c-5 11 -10 44 -10 74 0 40 -5 58 -18 70 l-19 17 -1006 0 -1006 0 -11
19 c-5 11 -10 44 -10 74 0 40 -5 58 -18 70 l-19 17 -1006 0 -1006 0 -11 19
c-5 11 -10 44 -10 74 0 40 -5 58 -18 70 l-19 17 -1201 0 -1201 0 -11 19 c-5
11 -10 51 -10 89 0 54 -4 72 -18 85 l-19 17 -1295 0 -1295 0 -16 -18z"/>
<path d="M18937 10852 c-11 -12 -17 -36 -17 -71 0 -29 -5 -61 -10 -72 l-11
-19 -63 0 c-80 0 -96 -15 -96 -89 0 -29 -5 -61 -10 -72 l-11 -19 -78 0 -78 0
-16 -18 -17 -19 0 -170 0 -170 18 -16 c14 -13 38 -17 95 -17 l76 0 11 -19 c5
-11 10 -44 10 -74 0 -72 17 -87 98 -87 l61 0 11 -19 c5 -11 10 -51 10 -89 0
-54 4 -72 18 -85 l19 -17 151 0 151 0 11 -19 c5 -11 10 -44 10 -74 0 -40 5
-58 18 -70 l19 -17 541 0 541 0 11 -19 c5 -11 10 -44 10 -74 0 -40 5 -58 18
-70 l19 -17 631 0 631 0 11 -19 c5 -11 10 -51 10 -89 0 -92 11 -102 113 -102
l76 0 11 -19 c6 -12 10 -108 10 -241 0 -133 -4 -229 -10 -241 l-11 -19 -78 0
-78 0 -16 -18 c-12 -13 -17 -37 -17 -86 0 -37 -5 -76 -10 -87 l-11 -19 -63 0
c-80 0 -96 -15 -96 -89 0 -29 -5 -61 -10 -72 l-11 -19 -258 0 -258 0 -16 -18
c-11 -12 -17 -36 -17 -71 0 -29 -5 -61 -10 -72 l-11 -19 -63 0 c-84 0 -96 -13
-96 -104 0 -37 -5 -76 -10 -87 l-11 -19 -453 0 -453 0 -16 -18 c-11 -12 -17
-36 -17 -71 0 -29 -5 -61 -10 -72 l-11 -19 -153 0 -153 0 -16 -18 c-11 -12
-17 -36 -17 -71 0 -29 -5 -61 -10 -72 l-11 -19 -543 0 -543 0 -16 -18 c-12
-13 -17 -37 -17 -86 0 -37 -5 -76 -10 -87 l-11 -19 -828 0 -828 0 -16 -18
c-11 -12 -17 -36 -17 -71 0 -29 -5 -61 -10 -72 l-11 -19 -1664 0 -1664 0 -11
19 c-5 11 -10 44 -10 74 0 40 -5 58 -18 70 l-19 17 -1486 0 -1486 0 -11 19
c-5 11 -10 51 -10 89 0 54 -4 72 -18 85 l-19 17 -631 0 -631 0 -11 19 c-5 11
-10 44 -10 74 0 40 -5 58 -18 70 l-19 17 -526 0 -526 0 -11 19 c-5 11 -10 44
-10 74 0 40 -5 58 -18 70 l-19 17 -541 0 -541 0 -11 19 c-5 11 -10 51 -10 89
0 54 -4 72 -18 85 l-19 17 -346 0 -346 0 -11 19 c-5 11 -10 44 -10 74 0 40 -5
58 -18 70 l-19 17 -361 0 -361 0 -11 19 c-5 11 -10 44 -10 74 0 40 -5 58 -18
70 l-19 17 -346 0 -346 0 -11 19 c-5 11 -10 51 -10 89 0 54 -4 72 -18 85 l-19
17 -346 0 -346 0 -11 19 c-5 11 -10 44 -10 74 0 40 -5 58 -18 70 l-19 17 -166
0 -166 0 -11 19 c-5 11 -10 44 -10 74 0 40 -5 58 -18 70 l-19 17 -241 0 -241
0 -11 19 c-5 11 -10 44 -10 74 0 75 -15 87 -113 87 l-76 0 -11 19 c-5 11 -10
51 -10 89 0 54 -4 72 -18 85 l-19 17 -256 0 -256 0 -11 19 c-5 11 -10 44 -10
74 0 40 -5 58 -18 70 l-19 17 -151 0 -151 0 -11 19 c-5 11 -10 44 -10 74 0 72
-17 87 -98 87 l-61 0 -11 19 c-5 11 -10 51 -10 89 0 54 -4 72 -18 85 l-19 17
-170 0 -170 0 -16 -18 -17 -19 0 -260 0 -260 18 -16 19 -17 166 0 166 0 11
-19 c5 -11 10 -51 10 -89 0 -89 13 -102 98 -102 l61 0 11 -19 c5 -11 10 -44
10 -74 0 -40 5 -58 18 -70 l19 -17 256 0 256 0 11 -19 c5 -11 10 -44 10 -74 0
-40 5 -58 18 -70 l19 -17 151 0 151 0 11 -19 c5 -11 10 -44 10 -74 0 -40 5
-58 18 -70 l19 -17 166 0 166 0 11 -19 c5 -11 10 -51 10 -89 0 -54 4 -72 18
-85 l19 -17 256 0 256 0 11 -19 c5 -11 10 -44 10 -74 0 -40 5 -58 18 -70 l19
-17 256 0 256 0 11 -19 c5 -11 10 -44 10 -74 0 -40 5 -58 18 -70 l19 -17 256
0 256 0 11 -19 c5 -11 10 -51 10 -89 0 -54 4 -72 18 -85 l19 -17 436 0 436 0
11 -19 c5 -11 10 -44 10 -74 0 -40 5 -58 18 -70 l19 -17 256 0 256 0 11 -19
c5 -11 10 -44 10 -74 0 -40 5 -58 18 -70 l19 -17 346 0 346 0 11 -19 c5 -11
10 -51 10 -89 0 -54 4 -72 18 -85 l19 -17 631 0 631 0 11 -19 c5 -11 10 -44
10 -74 0 -40 5 -58 18 -70 l19 -17 541 0 541 0 11 -19 c5 -11 10 -44 10 -74 0
-40 5 -58 18 -70 l19 -17 826 0 826 0 11 -19 c5 -11 10 -44 10 -74 0 -40 5
-58 18 -70 l19 -17 1291 0 1291 0 11 -19 c5 -11 10 -51 10 -89 0 -54 4 -72 18
-85 l19 -17 440 0 440 0 16 18 c12 13 17 37 17 86 0 37 5 76 10 87 l11 19
1578 0 1578 0 16 18 c11 12 17 36 17 71 0 29 5 61 10 72 l11 19 543 0 543 0
16 18 c11 12 17 36 17 71 0 29 5 61 10 72 l11 19 543 0 543 0 16 18 c11 12 17
36 17 71 0 29 5 61 10 72 l11 19 258 0 258 0 16 18 c12 13 17 37 17 86 0 37 5
76 10 87 l11 19 243 0 243 0 16 18 c11 12 17 36 17 71 0 29 5 61 10 72 l11 19
168 0 168 0 16 18 c11 12 17 36 17 71 0 29 5 61 10 72 l11 19 168 0 168 0 16
18 c12 13 17 37 17 86 0 37 5 76 10 87 l11 19 153 0 153 0 16 18 c11 12 17 36
17 71 0 29 5 61 10 72 l11 19 63 0 c80 0 96 15 96 89 0 29 5 61 10 72 l11 19
78 0 78 0 16 18 17 19 0 157 c0 89 4 166 10 177 l11 19 63 0 c80 0 96 15 96
89 0 29 5 61 10 72 l11 19 824 0 824 0 11 -19 c5 -11 10 -44 10 -74 0 -40 5
-58 18 -70 l19 -17 436 0 436 0 11 -19 c5 -11 10 -44 10 -74 0 -40 5 -58 18
-70 l19 -17 1201 0 1201 0 11 -19 c5 -11 10 -51 10 -89 0 -54 4 -72 18 -85
l19 -17 170 0 170 0 16 18 c12 13 17 37 17 86 0 37 5 76 10 87 l11 19 63 0
c83 0 96 14 96 102 0 84 -14 98 -98 98 l-61 0 -11 19 c-5 11 -10 44 -10 74 0
40 -5 58 -18 70 l-19 17 -916 0 -916 0 -11 19 c-5 11 -10 44 -10 74 0 40 -5
58 -18 70 l-19 17 -631 0 -631 0 -11 19 c-5 11 -10 51 -10 89 0 54 -4 72 -18
85 l-19 17 -631 0 -631 0 -11 19 c-5 11 -10 44 -10 74 0 40 -5 58 -18 70 l-19
17 -541 0 -541 0 -11 19 c-6 11 -10 88 -10 179 l0 159 -18 16 c-14 13 -38 17
-95 17 l-76 0 -11 19 c-5 11 -10 44 -10 74 0 72 -17 87 -98 87 l-61 0 -11 19
c-5 11 -10 44 -10 74 0 40 -5 58 -18 70 l-19 17 -256 0 -256 0 -11 19 c-5 11
-10 51 -10 89 0 54 -4 72 -18 85 l-19 17 -151 0 -151 0 -11 19 c-5 11 -10 44
-10 74 0 40 -5 58 -18 70 l-19 17 -256 0 -256 0 -11 19 c-5 11 -10 44 -10 74
0 40 -5 58 -18 70 l-19 17 -920 0 -920 0 -16 -18z m1473 -381 c5 -11 10 -50
10 -87 0 -49 5 -73 17 -86 l16 -18 348 0 348 0 11 -19 c5 -11 10 -43 10 -72 0
-35 6 -59 17 -71 l16 -18 168 0 168 0 11 -19 c5 -11 10 -84 10 -166 0 -82 -5
-155 -10 -166 l-11 -19 -254 0 -254 0 -11 19 c-5 11 -10 50 -10 87 0 49 -5 73
-17 86 l-16 18 -543 0 -543 0 -11 19 c-5 11 -10 43 -10 72 0 35 -6 59 -17 71
l-16 18 -258 0 -258 0 -11 19 c-5 11 -10 84 -10 166 0 82 5 155 10 166 l11 19
539 0 539 0 11 -19z"/>
<path d="M7237 3862 l-17 -19 0 -170 0 -170 18 -16 c13 -12 37 -17 80 -17 l61
0 11 -19 c5 -11 10 -44 10 -74 0 -72 17 -87 98 -87 l61 0 11 -19 c5 -11 10
-44 10 -74 0 -40 5 -58 18 -70 l19 -17 256 0 256 0 11 -19 c5 -11 10 -44 10
-74 0 -40 5 -58 18 -70 l19 -17 166 0 166 0 11 -19 c5 -11 10 -51 10 -89 0
-54 4 -72 18 -85 l19 -17 151 0 151 0 11 -19 c5 -11 10 -44 10 -74 0 -40 5
-58 18 -70 l19 -17 346 0 346 0 11 -19 c5 -11 10 -44 10 -74 0 -75 15 -87 113
-87 l76 0 11 -19 c5 -11 10 -51 10 -89 0 -54 4 -72 18 -85 l19 -17 256 0 256
0 11 -19 c5 -11 10 -44 10 -74 0 -72 17 -87 98 -87 l61 0 11 -19 c5 -11 10
-44 10 -74 0 -40 5 -58 18 -70 l19 -17 166 0 166 0 11 -19 c5 -11 10 -51 10
-89 0 -54 4 -72 18 -85 l19 -17 151 0 151 0 11 -19 c5 -11 10 -44 10 -74 0
-73 16 -87 102 -87 82 0 98 15 98 89 0 29 5 61 10 72 l11 19 78 0 78 0 16 18
17 19 0 170 0 170 -18 16 -19 17 -166 0 -166 0 -11 19 c-5 11 -10 44 -10 74 0
40 -5 58 -18 70 l-19 17 -151 0 -151 0 -11 19 c-5 11 -10 51 -10 89 0 54 -4
72 -18 85 l-19 17 -166 0 -166 0 -11 19 c-5 11 -10 44 -10 74 0 72 -17 87 -98
87 l-61 0 -11 19 c-5 11 -10 44 -10 74 0 40 -5 58 -18 70 l-19 17 -256 0 -256
0 -11 19 c-5 11 -10 51 -10 89 0 54 -4 72 -18 85 l-19 17 -166 0 -166 0 -11
19 c-5 11 -10 44 -10 74 0 40 -5 58 -18 70 l-19 17 -256 0 -256 0 -11 19 c-5
11 -10 44 -10 74 0 40 -5 58 -18 70 l-19 17 -151 0 -151 0 -11 19 c-5 11 -10
44 -10 74 0 40 -5 58 -18 70 l-19 17 -256 0 -256 0 -11 19 c-5 11 -10 51 -10
89 0 89 -13 102 -98 102 l-61 0 -11 19 c-5 11 -10 44 -10 74 0 40 -5 58 -18
70 l-19 17 -260 0 -260 0 -16 -18z"/>
<path d="M6277 3472 c-11 -12 -17 -36 -17 -71 0 -29 -5 -61 -10 -72 l-11 -19
-63 0 c-83 0 -96 -14 -96 -102 0 -84 14 -98 98 -98 l61 0 11 -19 c5 -11 10
-44 10 -74 0 -72 17 -87 98 -87 l61 0 11 -19 c5 -11 10 -51 10 -89 0 -92 11
-102 113 -102 l76 0 11 -19 c5 -11 10 -44 10 -74 0 -40 5 -58 18 -70 l19 -17
151 0 151 0 11 -19 c5 -11 10 -44 10 -74 0 -40 5 -58 18 -70 l19 -17 166 0
166 0 11 -19 c5 -11 10 -51 10 -89 0 -89 13 -102 98 -102 l61 0 11 -19 c5 -11
10 -44 10 -74 0 -40 5 -58 18 -70 l19 -17 166 0 166 0 11 -19 c5 -11 10 -44
10 -74 0 -40 5 -58 18 -70 l19 -17 151 0 151 0 11 -19 c5 -11 10 -51 10 -89 0
-54 4 -72 18 -85 l19 -17 166 0 166 0 11 -19 c5 -11 10 -44 10 -74 0 -40 5
-58 18 -70 l19 -17 166 0 166 0 11 -19 c5 -11 10 -44 10 -74 0 -40 5 -58 18
-70 l19 -17 151 0 151 0 11 -19 c5 -11 10 -44 10 -74 0 -40 5 -58 18 -70 l19
-17 166 0 166 0 11 -19 c5 -11 10 -51 10 -89 0 -54 4 -72 18 -85 l19 -17 260
0 260 0 16 18 17 19 0 170 0 170 -18 16 c-14 13 -38 17 -95 17 l-76 0 -11 19
c-5 11 -10 44 -10 74 0 40 -5 58 -18 70 l-19 17 -151 0 -151 0 -11 19 c-5 11
-10 44 -10 74 0 75 -15 87 -113 87 l-76 0 -11 19 c-5 11 -10 51 -10 89 0 54
-4 72 -18 85 l-19 17 -241 0 -241 0 -11 19 c-5 11 -10 44 -10 74 0 40 -5 58
-18 70 l-19 17 -166 0 -166 0 -11 19 c-5 11 -10 44 -10 74 0 40 -5 58 -18 70
l-19 17 -166 0 -166 0 -11 19 c-5 11 -10 51 -10 89 0 54 -4 72 -18 85 l-19 17
-151 0 -151 0 -11 19 c-5 11 -10 44 -10 74 0 40 -5 58 -18 70 l-19 17 -166 0
-166 0 -11 19 c-5 11 -10 44 -10 74 0 40 -5 58 -18 70 l-19 17 -151 0 -151 0
-11 19 c-5 11 -10 51 -10 89 0 92 -11 102 -113 102 l-76 0 -11 19 c-5 11 -10
44 -10 74 0 40 -5 58 -18 70 l-19 17 -151 0 -151 0 -11 19 c-5 11 -10 44 -10
74 0 75 -15 87 -113 87 l-76 0 -11 19 c-5 11 -10 44 -10 74 0 73 -16 87 -102
87 -50 0 -69 -4 -81 -18z"/>
</g>
</svg>
