<?xml version="1.0" standalone="no"?>
<!DOCTYPE svg PUBLIC "-//W3C//DTD SVG 20010904//EN"
 "http://www.w3.org/TR/2001/REC-SVG-20010904/DTD/svg10.dtd">
<svg version="1.0" xmlns="http://www.w3.org/2000/svg"
 width="834.000000pt" height="123.000000pt" viewBox="0 0 834.000000 123.000000"
 preserveAspectRatio="xMidYMid meet">
<metadata>
Created by potrace 1.16, written by Peter Selinger 2001-2019
</metadata>
<g transform="translate(0.000000,123.000000) scale(0.100000,-0.100000)"
fill="#000000" stroke="none">
<path d="M2165 1220 c-3 -5 -39 -10 -79 -10 -43 0 -89 -6 -109 -15 -20 -8 -49
-15 -64 -15 -19 0 -41 -14 -74 -47 -27 -27 -62 -60 -79 -75 l-30 -27 0 -76 c0
-45 -6 -90 -15 -112 -8 -19 -15 -60 -15 -90 0 -90 -47 -143 -128 -143 -22 0
-56 -7 -75 -15 -52 -22 -422 -22 -474 0 -25 11 -72 15 -165 15 -92 0 -139 4
-165 15 -19 8 -54 15 -77 15 -33 0 -48 6 -67 26 -34 37 -92 64 -136 64 -33 0
-217 58 -320 101 -23 9 -40 10 -60 3 l-28 -9 -3 -43 c-2 -30 1 -42 10 -42 8 0
51 -25 97 -55 46 -31 111 -64 145 -74 95 -29 148 -42 188 -48 22 -3 47 -16 64
-34 22 -23 37 -29 69 -29 22 0 79 -13 125 -30 47 -16 102 -30 123 -30 21 0 54
-7 74 -15 l35 -15 298 0 298 0 35 15 c20 8 48 15 62 15 14 0 44 9 66 20 58 30
174 126 188 156 29 64 51 148 51 194 0 28 7 67 15 87 8 19 15 48 15 64 0 40
47 70 124 79 33 4 74 12 89 18 16 7 59 12 96 12 38 0 84 7 104 15 29 12 85 15
270 15 l233 0 29 -30 29 -30 148 0 c110 0 158 -4 185 -15 25 -11 72 -15 162
-15 81 0 142 -5 171 -14 78 -25 133 -37 195 -45 34 -5 70 -13 82 -19 12 -7 32
-12 45 -12 13 0 43 -6 68 -14 57 -18 123 -35 175 -45 22 -4 117 -33 210 -63
175 -58 231 -74 300 -87 83 -16 233 -78 298 -123 l27 -19 0 -60 c0 -41 7 -73
21 -102 34 -67 98 -147 118 -147 10 0 26 -10 37 -21 10 -12 42 -36 69 -54 28
-17 56 -40 64 -49 30 -36 219 -116 275 -116 14 0 28 -4 31 -10 3 -5 28 -10 54
-10 l47 0 26 28 c34 35 58 85 58 116 0 14 -10 55 -22 91 l-21 66 -55 49 c-36
32 -53 54 -50 67 l3 18 285 3 c209 2 293 -1 315 -10 19 -8 123 -15 290 -20
143 -4 287 -10 320 -13 33 -2 125 -8 205 -13 81 -4 155 -13 167 -20 14 -7 64
-12 137 -12 69 0 126 -5 143 -12 17 -8 110 -15 243 -20 118 -4 224 -8 235 -8
11 -1 46 2 78 6 36 4 74 2 102 -6 55 -15 85 -8 130 31 46 41 48 82 5 104 l-29
15 -356 0 -356 0 -36 15 c-19 8 -60 15 -90 15 -29 0 -70 7 -90 15 l-35 15
-265 0 -264 0 -36 15 c-27 11 -77 15 -207 15 l-172 0 -84 30 -85 30 -429 0
-429 0 -116 56 c-64 31 -150 67 -191 80 -41 13 -99 36 -128 49 -29 14 -57 25
-63 25 -6 0 -40 13 -76 30 -35 16 -75 30 -89 30 -14 0 -41 7 -61 15 -19 8 -60
15 -90 15 -37 0 -72 8 -109 25 -84 38 -170 65 -210 65 -19 0 -65 14 -101 30
l-64 30 -70 0 c-39 0 -85 7 -106 15 -19 8 -52 15 -72 15 -20 0 -56 6 -81 14
-87 28 -136 38 -210 45 -41 4 -85 13 -97 19 -12 7 -60 12 -108 12 -53 0 -99 6
-122 15 -24 10 -70 15 -139 15 -58 0 -106 4 -109 10 -4 6 -143 10 -385 10
-242 0 -381 -4 -385 -10z m3222 -846 c29 -20 63 -52 74 -71 12 -20 36 -41 54
-49 17 -7 37 -20 44 -28 l13 -16 -16 -6 c-11 -4 -27 3 -45 20 -15 14 -38 26
-52 26 -44 0 -101 42 -127 92 -22 42 -23 68 -4 68 4 0 30 -16 59 -36z"/>
</g>
</svg>
