<?xml version="1.0" standalone="no"?>
<!DOCTYPE svg PUBLIC "-//W3C//DTD SVG 20010904//EN"
 "http://www.w3.org/TR/2001/REC-SVG-20010904/DTD/svg10.dtd">
<svg version="1.0" xmlns="http://www.w3.org/2000/svg"
 width="411.000000pt" height="405.000000pt" viewBox="0 0 411.000000 405.000000"
 preserveAspectRatio="xMidYMid meet">
<metadata>
Created by potrace 1.16, written by Peter Selinger 2001-2019
</metadata>
<g transform="translate(0.000000,405.000000) scale(0.100000,-0.100000)"
fill="#000000" stroke="none">
<path d="M105 4018 c-16 -16 -33 -33 -37 -36 -31 -29 -68 -83 -68 -100 0 -19
19 -54 65 -119 9 -13 24 -23 34 -23 10 0 28 -12 42 -26 13 -14 41 -35 63 -46
21 -11 57 -33 79 -49 29 -21 52 -29 81 -29 23 0 61 -6 86 -14 60 -19 125 -35
182 -46 26 -5 56 -13 67 -19 11 -6 38 -11 61 -11 22 0 57 -7 77 -15 19 -8 52
-15 72 -15 36 0 122 -26 191 -57 55 -25 90 -53 90 -72 0 -9 25 -39 55 -65 31
-27 55 -55 55 -67 l0 -19 -155 0 c-160 0 -190 -6 -237 -48 -30 -26 -24 -110
11 -159 16 -22 38 -58 50 -79 20 -40 110 -135 223 -236 170 -153 263 -244 266
-260 2 -10 29 -38 60 -62 64 -49 152 -140 257 -265 38 -46 87 -94 107 -107 21
-13 49 -42 63 -63 13 -22 45 -56 70 -77 25 -21 45 -47 45 -57 0 -10 27 -46 59
-80 71 -74 227 -305 237 -350 9 -46 32 -86 71 -130 40 -45 113 -190 113 -224
0 -13 27 -104 60 -203 l61 -179 -3 -73 -3 -73 -195 -5 -195 -5 -85 -43 c-47
-24 -106 -65 -133 -90 l-47 -46 0 -34 c0 -47 82 -139 158 -177 31 -15 69 -36
84 -47 l26 -18 101 0 c56 0 109 4 119 9 9 5 32 15 50 22 19 7 62 31 97 53 35
23 77 49 94 58 33 18 76 95 110 196 l21 61 0 141 0 141 -21 61 c-11 34 -32 84
-47 112 -15 29 -29 77 -33 111 -3 33 -16 85 -29 115 -43 106 -115 253 -142
290 -14 21 -36 56 -48 79 -52 103 -194 297 -267 367 -27 25 -43 50 -43 64 0
16 -37 59 -125 147 -69 68 -132 137 -139 152 -8 15 -39 46 -68 68 -30 22 -94
81 -144 130 -49 49 -124 115 -166 147 -49 37 -78 65 -78 77 0 12 -23 35 -61
62 -66 45 -110 86 -148 137 -13 17 -41 42 -62 56 -50 31 -115 130 -98 150 15
19 100 18 146 -1 19 -8 46 -15 60 -15 42 0 110 -38 143 -80 17 -22 38 -40 47
-40 21 0 81 -29 127 -62 47 -33 104 -38 129 -10 45 49 1 190 -73 237 -22 14
-51 42 -64 63 -23 37 -51 63 -112 106 -29 20 -58 79 -68 139 -8 40 0 46 37 25
15 -9 97 -16 242 -20 293 -10 281 -10 355 -3 49 5 75 3 103 -8 l37 -16 817 -1
c577 0 828 -4 854 -12 40 -11 103 0 161 29 l28 14 0 54 0 55 -115 0 c-80 0
-127 5 -152 15 -50 21 -286 21 -336 0 l-36 -15 -396 0 -396 0 -36 15 -35 15
-460 0 -459 0 -36 15 c-19 8 -53 15 -75 15 -21 0 -55 7 -75 15 -19 8 -60 15
-90 15 -29 0 -70 7 -90 15 -19 8 -47 15 -60 15 -14 0 -54 14 -90 30 -35 17
-70 30 -77 30 -7 0 -26 17 -43 38 -21 26 -62 53 -139 91 -60 29 -133 73 -163
97 -29 24 -60 44 -69 44 -9 0 -71 27 -139 60 -67 33 -136 60 -152 60 -17 0
-33 5 -36 10 -4 6 -51 9 -113 9 l-107 -1 -30 -30z m295 -158 c25 -16 52 -30
60 -30 8 0 35 -14 60 -30 25 -16 51 -30 58 -30 21 0 97 -38 112 -55 10 -12 10
-18 0 -30 -18 -22 -30 -20 -177 30 -73 25 -142 45 -154 45 -22 0 -130 62 -150
86 -23 27 8 44 80 44 l66 0 45 -30z m2150 -3585 l12 -15 -19 -32 c-14 -24 -27
-34 -48 -36 -17 -2 -48 -10 -71 -18 l-41 -16 -38 16 c-20 9 -50 16 -66 16 -52
0 -60 61 -11 89 9 6 74 11 143 11 100 0 129 -3 139 -15z"/>
</g>
</svg>
