<?xml version="1.0" standalone="no"?>
<!DOCTYPE svg PUBLIC "-//W3C//DTD SVG 20010904//EN"
 "http://www.w3.org/TR/2001/REC-SVG-20010904/DTD/svg10.dtd">
<svg version="1.0" xmlns="http://www.w3.org/2000/svg"
 width="735.000000pt" height="189.000000pt" viewBox="0 0 735.000000 189.000000"
 preserveAspectRatio="xMidYMid meet">
<metadata>
Created by potrace 1.16, written by Peter Selinger 2001-2019
</metadata>
<g transform="translate(0.000000,189.000000) scale(0.100000,-0.100000)"
fill="#000000" stroke="none">
<path d="M365 1880 c-3 -5 -16 -10 -27 -10 -11 0 -40 -20 -64 -44 l-44 -43 0
-52 c0 -83 42 -151 94 -151 34 0 83 -22 166 -76 30 -19 66 -37 80 -40 14 -2
43 -9 65 -15 22 -6 81 -14 130 -18 50 -4 100 -12 112 -19 12 -7 60 -12 112
-12 l90 0 19 -27 c41 -59 92 -180 92 -220 0 -22 5 -54 11 -71 l10 -30 -20 -70
c-12 -39 -30 -81 -40 -94 l-19 -23 -39 20 c-21 11 -61 39 -89 62 -29 23 -72
52 -95 64 -24 12 -57 32 -74 44 -48 36 -148 83 -243 114 -48 15 -106 38 -129
50 -33 17 -60 21 -127 21 -113 0 -196 -27 -273 -89 l-58 -47 -3 -106 -3 -107
43 -61 c75 -108 99 -130 182 -172 44 -22 94 -51 111 -63 16 -13 63 -39 103
-59 l73 -37 202 4 c195 3 226 7 336 43 l44 14 21 -15 c12 -9 45 -33 75 -53 37
-26 57 -48 65 -72 8 -24 27 -45 63 -69 28 -20 62 -52 76 -73 13 -20 76 -91
140 -158 l116 -120 51 0 50 0 0 30 c0 63 -60 154 -208 313 -77 83 -122 154
-122 192 0 9 -19 37 -43 63 -64 70 -77 92 -77 137 0 33 6 47 30 70 20 19 30
39 30 57 0 16 7 45 15 65 18 44 21 312 4 363 l-12 32 14 9 c8 5 50 9 94 9 l80
0 63 -30 64 -30 246 0 246 0 64 -22 c42 -14 69 -30 80 -47 30 -45 155 -161
227 -209 38 -25 83 -58 100 -72 16 -15 64 -48 105 -76 41 -27 99 -70 128 -96
29 -27 60 -48 70 -48 9 0 46 -14 80 -30 35 -17 69 -30 75 -30 7 0 41 -14 75
-30 37 -18 80 -30 103 -30 22 0 56 -7 76 -15 54 -23 190 -20 265 6 74 25 174
74 185 91 19 31 42 116 43 156 0 67 -38 129 -132 214 -46 42 -98 83 -117 93
-19 9 -52 30 -74 46 -22 16 -47 29 -56 29 -9 0 -36 14 -61 30 -25 16 -58 30
-73 30 -15 0 -44 7 -64 15 -19 8 -52 15 -72 15 -20 0 -75 13 -121 30 -55 19
-105 30 -141 30 l-55 0 -29 30 -29 30 -146 0 c-141 0 -207 11 -257 43 -32 20
1 107 56 146 32 23 136 61 167 61 12 0 38 7 57 15 44 18 86 19 138 3 30 -8 48
-8 79 1 l39 12 37 -16 c25 -10 71 -15 151 -15 78 0 125 -5 150 -15 19 -8 52
-15 72 -15 20 0 56 -6 81 -14 78 -25 133 -37 195 -45 34 -5 70 -13 82 -19 12
-7 42 -12 68 -12 64 0 95 -31 95 -95 0 -115 178 -355 263 -355 8 0 65 -25 127
-55 161 -80 213 -95 317 -95 104 0 122 9 158 80 30 60 31 83 4 163 -29 87 -35
97 -87 144 l-47 42 15 11 c25 17 354 13 397 -5 l35 -15 564 0 564 0 38 -15 39
-16 299 5 c164 3 310 5 324 5 14 0 107 -2 207 -5 l182 -5 30 16 31 16 0 39 c0
61 -12 64 -275 72 -126 5 -250 8 -275 7 -100 -1 -146 -1 -175 1 -16 1 -56 -2
-88 -6 -36 -4 -74 -2 -101 6 -36 10 -55 10 -94 0 l-49 -13 -34 14 c-24 9 -111
16 -294 21 -143 4 -269 7 -280 7 -11 0 -151 -3 -312 -5 l-292 -5 -37 16 c-20
8 -54 15 -76 15 -21 0 -55 7 -75 15 l-35 15 -337 0 -337 0 -52 18 c-29 11 -65
30 -80 44 -35 33 -55 43 -133 67 -123 36 -155 43 -244 51 -49 4 -103 12 -120
18 -67 23 -124 34 -210 41 -49 4 -100 12 -112 19 -14 8 -76 12 -182 12 -126 0
-169 4 -202 17 l-41 16 -47 -16 c-25 -10 -61 -17 -79 -17 -40 0 -137 -32 -206
-68 -28 -14 -78 -35 -111 -47 l-59 -21 -48 -69 -48 -69 0 -48 c0 -37 -4 -50
-19 -58 -12 -6 -114 -10 -261 -10 -191 0 -248 3 -277 15 -19 8 -60 15 -90 15
-29 0 -70 7 -90 15 -19 8 -61 15 -92 15 -59 0 -76 8 -139 62 -18 15 -41 28
-50 28 -10 0 -34 20 -54 44 -51 60 -210 166 -250 166 -7 0 -42 14 -76 30 l-64
30 -73 0 c-41 0 -77 5 -80 10 -3 6 -21 10 -40 10 -19 0 -37 -4 -40 -10 -3 -5
-19 -10 -35 -10 -16 0 -32 5 -35 10 -3 6 -21 10 -40 10 -19 0 -37 -4 -40 -10z
m383 -195 c43 -18 82 -53 82 -72 0 -23 -118 -16 -194 11 -88 32 -124 55 -105
67 24 15 176 10 217 -6z m3540 -315 c35 -17 68 -30 73 -30 6 0 48 -23 94 -51
84 -50 116 -85 130 -141 l7 -28 -37 0 c-66 0 -247 67 -300 111 -26 21 -56 39
-67 39 -27 0 -68 44 -68 74 0 62 69 73 168 26z m-1428 -150 c32 -22 57 -30 88
-30 23 0 59 -7 79 -15 19 -8 45 -15 57 -15 12 0 60 -13 106 -30 47 -16 96 -30
109 -30 13 0 45 -13 70 -29 25 -16 57 -31 71 -34 14 -4 47 -24 74 -47 26 -22
56 -40 66 -40 32 0 60 -34 76 -92 l16 -57 -18 -32 c-54 -92 -223 -92 -403 0
-22 12 -46 21 -52 21 -7 0 -42 13 -78 29 -36 16 -86 36 -111 45 -26 9 -75 42
-113 76 -38 33 -76 60 -87 60 -10 0 -28 13 -40 30 -12 16 -46 46 -75 66 -30
19 -73 58 -96 86 l-42 50 14 9 c8 5 66 9 129 9 l115 0 45 -30z m-2445 -141
c49 -33 166 -90 215 -105 52 -15 127 -68 187 -131 23 -25 49 -43 62 -43 25 0
71 -42 71 -65 0 -9 -11 -27 -25 -40 l-24 -25 -178 0 -179 0 -69 35 c-39 20
-95 51 -125 69 -30 19 -68 43 -85 53 -42 26 -77 98 -71 145 6 54 35 88 92 108
65 24 93 24 129 -1z"/>
</g>
</svg>
