<?xml version="1.0" standalone="no"?>
<!DOCTYPE svg PUBLIC "-//W3C//DTD SVG 20010904//EN"
 "http://www.w3.org/TR/2001/REC-SVG-20010904/DTD/svg10.dtd">
<svg version="1.0" xmlns="http://www.w3.org/2000/svg"
 width="702.000000pt" height="216.000000pt" viewBox="0 0 702.000000 216.000000"
 preserveAspectRatio="xMidYMid meet">
<metadata>
Created by potrace 1.16, written by Peter Selinger 2001-2019
</metadata>
<g transform="translate(0.000000,216.000000) scale(0.100000,-0.100000)"
fill="#000000" stroke="none">
<path d="M1198 2128 c-77 -101 -89 -192 -39 -300 16 -35 31 -72 33 -83 2 -11
27 -35 55 -55 29 -19 62 -48 74 -63 21 -27 106 -77 132 -77 19 0 79 -71 73
-87 -7 -18 -126 -17 -173 2 -22 9 -67 15 -120 15 -52 0 -97 6 -120 15 l-35 15
-539 0 -539 0 0 -55 0 -55 190 0 c147 0 199 -3 227 -15 l35 -15 307 0 c236 0
316 -3 351 -14 110 -35 146 -39 345 -45 148 -5 218 -10 237 -20 l27 -14 43 12
c32 9 51 9 71 2 48 -18 89 -13 137 19 25 16 52 30 61 30 21 0 49 32 49 57 0
28 -31 53 -66 53 -32 0 -134 48 -224 106 -30 19 -71 39 -91 44 -19 5 -53 25
-75 43 -21 18 -79 59 -128 92 -124 83 -166 154 -101 171 32 8 241 -64 363
-125 56 -28 108 -51 115 -51 26 0 176 -79 214 -113 21 -19 67 -49 101 -66 35
-18 82 -45 104 -62 23 -16 48 -29 57 -29 9 0 54 -25 99 -55 46 -30 101 -64
124 -76 22 -11 58 -33 79 -49 21 -15 55 -31 74 -34 24 -5 52 -24 89 -61 30
-30 63 -55 73 -55 22 0 82 -39 138 -89 22 -20 83 -56 135 -80 52 -24 102 -47
110 -51 8 -4 17 -16 19 -26 6 -32 21 -44 130 -100 59 -30 131 -71 161 -90 30
-19 71 -39 90 -44 19 -5 56 -27 82 -47 26 -21 59 -46 73 -56 34 -24 32 -40 -7
-58 -41 -17 -78 -81 -78 -132 l0 -38 47 -51 c31 -32 75 -64 126 -90 43 -21 97
-52 119 -69 23 -16 54 -29 69 -29 16 0 46 -6 66 -14 21 -8 56 -17 78 -20 21
-3 52 -15 67 -26 l27 -20 100 0 100 0 16 30 c24 46 19 110 -15 183 -16 36 -30
80 -30 97 l0 32 28 -7 c15 -5 167 -12 337 -16 390 -11 360 -10 491 -3 88 4
118 3 149 -10 20 -9 62 -16 92 -16 29 0 70 -7 90 -15 l35 -15 565 0 564 0 36
-15 c19 -8 55 -15 79 -15 l44 0 0 53 0 53 -95 32 -94 32 -576 0 -576 0 -36 15
c-28 12 -86 15 -284 15 l-249 0 -40 16 c-30 12 -55 15 -98 10 -65 -8 -52 -8
-282 3 l-175 8 -70 26 c-49 19 -90 27 -134 27 -81 0 -178 32 -228 75 -45 38
-105 70 -151 80 -35 7 -117 59 -172 109 -19 18 -62 40 -95 51 -33 10 -73 31
-90 46 -16 15 -46 35 -65 44 -19 10 -49 28 -65 41 -17 13 -48 29 -70 36 -28 9
-48 26 -68 56 -22 32 -47 52 -100 78 -40 20 -115 65 -167 99 -52 35 -109 66
-127 70 -17 3 -51 23 -75 44 -24 21 -86 60 -138 86 -52 26 -108 58 -125 70
-16 13 -59 37 -95 55 -36 18 -108 61 -160 95 -52 35 -110 66 -128 70 -21 4
-52 26 -87 61 -29 30 -62 54 -72 54 -10 0 -47 14 -81 30 -35 17 -69 30 -75 30
-7 0 -32 14 -57 30 -25 16 -51 30 -59 30 -8 0 -44 13 -80 29 -95 41 -170 71
-219 89 -24 8 -57 30 -75 48 l-31 34 -67 0 -67 0 -24 -32z m3016 -1810 c73
-45 126 -98 126 -125 0 -13 -5 -23 -11 -23 -23 0 -126 33 -169 55 -25 12 -56
25 -70 28 -14 3 -41 22 -60 42 l-35 36 15 9 c8 5 46 10 84 10 l69 0 51 -32z"/>
</g>
</svg>
