<?xml version="1.0" standalone="no"?>
<!DOCTYPE svg PUBLIC "-//W3C//DTD SVG 20010904//EN"
 "http://www.w3.org/TR/2001/REC-SVG-20010904/DTD/svg10.dtd">
<svg version="1.0" xmlns="http://www.w3.org/2000/svg"
 width="2376.000000pt" height="672.000000pt" viewBox="0 0 2376.000000 672.000000"
 preserveAspectRatio="xMidYMid meet">
<metadata>
Created by potrace 1.16, written by Peter Selinger 2001-2019
</metadata>
<g transform="translate(0.000000,672.000000) scale(0.100000,-0.100000)"
fill="#000000" stroke="none">
<path d="M1897 5872 l-17 -19 0 -170 0 -170 18 -16 c12 -11 36 -17 71 -17 29
0 61 -5 72 -10 l19 -11 0 -63 c0 -48 4 -67 18 -79 l19 -17 157 0 c89 0 166 -4
177 -10 l19 -11 0 -78 0 -78 18 -16 c12 -11 36 -17 71 -17 29 0 61 -5 72 -10
l19 -11 0 -63 c0 -48 4 -67 18 -79 l19 -17 157 0 c89 0 166 -4 177 -10 l19
-11 0 -63 c0 -80 15 -96 89 -96 29 0 61 -5 72 -10 l19 -11 0 -63 c0 -48 4 -67
18 -79 l19 -17 157 0 c89 0 166 -4 177 -10 l19 -11 0 -78 0 -78 18 -16 19 -17
142 0 c79 0 151 -5 162 -10 l19 -11 0 -63 c0 -84 13 -96 104 -96 37 0 76 -5
87 -10 l19 -11 0 -63 c0 -48 4 -67 18 -79 l19 -17 142 0 c79 0 151 -5 162 -10
l19 -11 0 -78 0 -78 18 -16 c13 -12 37 -17 86 -17 37 0 76 -5 87 -10 l19 -11
0 -63 c0 -48 4 -67 18 -79 l19 -17 142 0 c79 0 151 -5 162 -10 l19 -11 0 -63
c0 -48 4 -67 18 -79 l19 -17 157 0 c89 0 166 -4 177 -10 l19 -11 0 -78 0 -78
18 -16 c12 -11 36 -17 71 -17 29 0 61 -5 72 -10 l19 -11 0 -63 c0 -80 15 -96
89 -96 29 0 61 -5 72 -10 l19 -11 0 -63 c0 -84 13 -96 104 -96 37 0 76 -5 87
-10 l19 -11 0 -59 0 -59 -19 -11 c-13 -6 -149 -10 -374 -10 l-354 0 -16 -18
-17 -19 0 -166 0 -166 -19 -11 c-11 -5 -44 -10 -74 -10 -73 0 -87 -16 -87
-102 0 -82 15 -98 89 -98 29 0 61 -5 72 -10 l19 -11 0 -168 0 -168 18 -16 19
-17 157 0 c89 0 166 -4 177 -10 l19 -11 0 -63 c0 -80 15 -96 89 -96 29 0 61
-5 72 -10 l19 -11 0 -78 0 -78 18 -16 c13 -12 37 -17 86 -17 37 0 76 -5 87
-10 l19 -11 0 -63 c0 -48 4 -67 18 -79 l19 -17 142 0 c79 0 151 -5 162 -10
l19 -11 0 -63 c0 -48 4 -67 18 -79 l19 -17 157 0 c89 0 166 -4 177 -10 l19
-11 0 -63 c0 -48 4 -67 18 -79 l19 -17 725 0 725 0 16 18 17 19 0 151 0 151
19 11 c11 5 44 10 74 10 40 0 58 5 70 18 l17 19 0 170 0 170 -18 16 c-12 11
-36 17 -71 17 -29 0 -61 5 -72 10 l-19 11 0 153 0 153 -18 16 c-12 11 -36 17
-71 17 -29 0 -61 5 -72 10 l-19 11 0 74 0 74 19 11 c27 14 3485 14 3512 0 l19
-11 0 -78 0 -78 18 -16 19 -17 1567 0 c1061 0 1574 -3 1587 -10 l19 -11 0 -63
c0 -48 4 -67 18 -79 l19 -17 1477 0 c999 0 1484 -3 1497 -10 l19 -11 0 -63 c0
-48 4 -67 18 -79 l19 -17 1762 0 c1196 0 1769 -3 1782 -10 l19 -11 0 -78 0
-78 18 -16 19 -17 530 0 530 0 16 18 c13 14 17 38 17 95 l0 76 19 11 c11 5 51
10 89 10 90 0 102 12 102 102 0 86 -13 98 -104 98 -37 0 -76 5 -87 10 l-19 11
0 63 c0 48 -4 67 -18 79 l-19 17 -1552 0 c-1051 0 -1559 3 -1572 10 l-19 11 0
78 0 78 -18 16 -19 17 -1762 0 c-1196 0 -1769 3 -1782 10 l-19 11 0 63 c0 48
-4 67 -18 79 l-19 17 -1942 0 c-1320 0 -1949 3 -1962 10 l-19 11 0 63 c0 48
-4 67 -18 79 l-19 17 -1387 0 c-937 0 -1394 3 -1407 10 l-19 11 0 78 0 78 -18
16 -19 17 -907 0 c-606 0 -914 3 -927 10 l-19 11 0 63 c0 48 -4 67 -18 79
l-19 17 -142 0 c-79 0 -151 5 -162 10 l-19 11 0 63 c0 80 -15 96 -89 96 -29 0
-61 5 -72 10 l-19 11 0 63 c0 48 -4 67 -18 79 l-19 17 -157 0 c-89 0 -166 4
-177 10 l-19 11 0 78 0 78 -18 16 c-12 11 -36 17 -71 17 -29 0 -61 5 -72 10
l-19 11 0 63 c0 48 -4 67 -18 79 l-19 17 -157 0 c-89 0 -166 4 -177 10 l-19
11 0 63 c0 48 -4 67 -18 79 l-19 17 -157 0 c-89 0 -166 4 -177 10 l-19 11 0
78 0 78 -18 16 c-12 11 -36 17 -71 17 -29 0 -61 5 -72 10 l-19 11 0 63 c0 48
-4 67 -18 79 l-19 17 -142 0 c-79 0 -151 5 -162 10 l-19 11 0 63 c0 48 -4 67
-18 79 l-19 17 -157 0 c-89 0 -166 4 -177 10 l-19 11 0 78 0 78 -18 16 c-12
11 -36 17 -71 17 -29 0 -61 5 -72 10 l-19 11 0 63 c0 48 -4 67 -18 79 l-19 17
-157 0 c-89 0 -166 4 -177 10 l-19 11 0 63 c0 48 -4 67 -18 79 l-19 17 -142 0
c-79 0 -151 5 -162 10 l-19 11 0 63 c0 84 -13 96 -104 96 -37 0 -76 5 -87 10
l-19 11 0 78 0 78 -18 16 -19 17 -142 0 c-79 0 -151 5 -162 10 l-19 11 0 63
c0 84 -13 96 -104 96 -37 0 -76 5 -87 10 l-19 11 0 63 c0 48 -4 67 -18 79
l-19 17 -142 0 c-79 0 -151 5 -162 10 l-19 11 0 78 0 78 -18 16 -19 17 -170 0
-170 0 -16 -18z m5064 -3612 l19 -11 0 -61 c0 -43 5 -67 17 -80 l16 -18 159 0
c91 0 168 -4 179 -10 l19 -11 0 -76 c0 -98 12 -113 87 -113 30 0 63 -5 74 -10
l19 -11 0 -61 c0 -81 15 -98 87 -98 30 0 63 -5 74 -10 l19 -11 0 -254 0 -254
-19 -11 c-26 -14 -486 -14 -512 0 l-19 11 0 61 c0 43 -5 67 -17 80 l-16 18
-234 0 c-142 0 -242 4 -254 10 l-19 11 0 76 c0 102 -10 113 -102 113 -38 0
-78 5 -89 10 l-19 11 0 61 c0 81 -15 98 -87 98 -30 0 -63 5 -74 10 l-19 11 0
61 c0 81 -15 98 -87 98 -30 0 -63 5 -74 10 l-19 11 0 76 c0 102 -10 113 -102
113 -38 0 -78 5 -89 10 l-19 11 0 59 c0 46 4 61 18 69 24 14 1056 15 1083 1z"/>
<path d="M967 4342 c-12 -13 -17 -37 -17 -80 l0 -61 -19 -11 c-11 -5 -51 -10
-89 -10 -54 0 -72 -4 -85 -18 l-17 -19 0 -260 0 -260 18 -16 c13 -12 37 -17
86 -17 37 0 76 -5 87 -10 l19 -11 0 -63 c0 -48 4 -67 18 -79 l19 -17 350 0
350 0 16 18 17 19 0 151 0 151 19 11 c11 5 44 10 74 10 40 0 58 5 70 18 l17
19 0 170 0 170 -18 16 -19 17 -142 0 c-79 0 -151 5 -162 10 l-19 11 0 63 c0
48 -4 67 -18 79 l-19 17 -260 0 -260 0 -16 -18z"/>
</g>
</svg>
