<?xml version="1.0" standalone="no"?>
<!DOCTYPE svg PUBLIC "-//W3C//DTD SVG 20010904//EN"
 "http://www.w3.org/TR/2001/REC-SVG-20010904/DTD/svg10.dtd">
<svg version="1.0" xmlns="http://www.w3.org/2000/svg"
 width="984.000000pt" height="216.000000pt" viewBox="0 0 984.000000 216.000000"
 preserveAspectRatio="xMidYMid meet">
<metadata>
Created by potrace 1.16, written by Peter Selinger 2001-2019
</metadata>
<g transform="translate(0.000000,216.000000) scale(0.100000,-0.100000)"
fill="#000000" stroke="none">
<path d="M30 2118 c-7 -24 -17 -47 -22 -52 -11 -13 -10 -122 1 -144 5 -9 14
-29 20 -44 5 -15 28 -39 50 -52 22 -14 54 -38 73 -54 36 -32 87 -60 128 -72
43 -12 156 -91 174 -121 12 -20 16 -53 16 -129 0 -110 10 -141 61 -196 17 -17
51 -62 77 -100 38 -54 56 -72 86 -82 21 -7 51 -21 66 -32 52 -37 230 -120 257
-120 16 0 70 -20 121 -45 l94 -45 77 0 78 0 16 18 c21 23 22 56 1 73 -19 16
-112 48 -139 49 -30 0 -135 39 -166 60 -14 11 -63 38 -109 60 -62 32 -105 63
-173 128 -49 48 -103 105 -118 126 -40 53 -39 106 1 166 16 25 30 53 30 62 0
10 9 22 20 28 l19 10 34 -30 c19 -16 40 -30 47 -30 18 0 203 -93 270 -136 30
-19 66 -37 80 -41 14 -3 46 -18 71 -34 25 -16 52 -29 60 -29 8 0 34 -14 59
-30 25 -16 51 -30 59 -30 34 0 162 -72 187 -106 26 -34 89 -74 116 -74 7 0 30
-11 49 -25 47 -31 294 -155 311 -155 6 0 26 -13 43 -29 16 -16 75 -52 130 -80
55 -27 122 -68 149 -90 26 -23 55 -41 64 -41 20 0 198 -86 236 -114 17 -13 51
-34 76 -46 25 -12 65 -39 90 -60 47 -38 120 -80 141 -80 7 0 77 -31 156 -70
173 -84 246 -110 313 -110 28 0 67 -7 87 -15 75 -31 168 -10 236 54 37 33 77
112 77 149 0 56 50 69 111 28 46 -32 148 -66 194 -66 20 0 52 -7 72 -15 19 -8
47 -15 62 -15 14 0 55 -14 89 -30 35 -17 74 -30 85 -30 12 0 42 -6 67 -14 97
-31 139 -39 240 -46 60 -5 128 -16 160 -28 30 -10 87 -22 125 -26 52 -6 82
-15 116 -37 l46 -29 102 0 c68 0 114 -5 138 -15 l35 -15 344 0 c218 0 345 -4
349 -10 8 -13 218 -13 230 -1 6 6 80 12 165 14 85 2 175 9 200 16 144 42 267
85 299 106 19 14 42 25 50 25 42 0 187 121 244 204 22 32 94 66 142 66 20 0
52 -7 72 -15 23 -10 69 -15 135 -15 65 0 111 -5 135 -15 27 -11 77 -15 208
-15 102 0 185 -5 205 -11 24 -9 45 -9 86 1 l53 13 43 -16 c24 -10 61 -17 81
-17 21 0 54 -7 74 -15 l35 -15 520 0 520 0 49 17 49 18 0 52 0 52 -30 16 -29
15 -566 0 -566 0 -36 15 -35 15 -310 0 -309 0 -36 15 c-24 10 -71 15 -150 15
-78 0 -125 5 -150 15 -19 8 -48 15 -64 15 -22 0 -36 9 -59 42 -16 22 -30 52
-30 65 0 115 -232 283 -390 283 -28 0 -67 7 -87 15 -55 23 -218 20 -296 -5
-83 -28 -107 -56 -107 -124 l0 -52 30 -29 c17 -16 30 -36 30 -45 0 -20 31 -50
51 -50 8 0 31 -11 51 -25 20 -14 76 -38 125 -53 48 -16 107 -39 130 -51 23
-11 53 -21 65 -21 34 0 129 -35 139 -51 26 -42 6 -73 -102 -154 -86 -65 -191
-105 -275 -105 -28 0 -68 -7 -87 -15 -24 -10 -70 -15 -135 -15 -66 0 -112 -5
-135 -15 -48 -20 -186 -20 -234 0 l-35 15 -325 0 -324 0 -36 15 c-23 10 -69
15 -135 15 -65 0 -111 5 -135 15 -19 8 -53 15 -75 15 -21 0 -55 7 -75 15 -19
8 -52 15 -72 15 -20 0 -75 13 -121 30 -53 18 -105 30 -138 30 -29 0 -69 7 -89
15 -19 8 -59 15 -87 15 -49 0 -164 33 -224 64 -50 26 -151 56 -187 56 -20 0
-62 12 -92 26 -31 14 -91 36 -132 50 -42 13 -100 36 -129 49 -29 14 -64 25
-78 25 -14 0 -55 13 -91 30 -35 16 -70 30 -76 30 -7 0 -29 11 -48 24 -44 30
-147 66 -189 66 -47 0 -90 -47 -90 -97 l0 -39 48 -47 c26 -26 54 -47 61 -47 7
0 41 -13 75 -29 34 -16 77 -32 95 -36 20 -4 54 -28 88 -60 l54 -54 -10 -19
c-15 -28 -35 -33 -110 -26 -72 6 -156 31 -239 69 -29 14 -58 25 -65 25 -6 0
-32 14 -57 30 -25 16 -51 30 -59 30 -28 0 -208 93 -254 132 -26 22 -62 44 -80
49 -18 5 -54 27 -81 49 -26 22 -55 40 -63 40 -28 0 -183 80 -221 114 -38 34
-92 66 -112 66 -19 0 -139 58 -173 84 -42 32 -164 92 -203 100 -17 4 -54 26
-81 49 -27 23 -78 55 -114 71 -82 36 -76 33 -145 89 -33 26 -75 52 -95 57 -50
14 -190 83 -240 120 -23 16 -48 30 -56 30 -22 0 -139 56 -176 84 -38 28 -171
96 -189 96 -7 0 -26 13 -43 29 -16 16 -75 52 -130 79 -66 33 -128 74 -182 121
-45 39 -88 71 -96 71 -7 0 -26 14 -42 30 -16 17 -36 30 -44 30 -9 0 -36 14
-61 30 -25 16 -53 30 -62 30 -9 0 -20 5 -23 10 -3 6 -34 10 -69 10 l-63 0 -13
-42z m6987 -1303 c19 -8 45 -15 57 -15 12 0 46 -9 76 -19 40 -14 60 -28 74
-50 l18 -31 -12 -15 c-31 -37 -171 -6 -276 61 -30 19 -69 40 -85 46 -31 11
-37 23 -16 31 27 11 130 6 164 -8z"/>
</g>
</svg>
