<?xml version="1.0" standalone="no"?>
<!DOCTYPE svg PUBLIC "-//W3C//DTD SVG 20010904//EN"
 "http://www.w3.org/TR/2001/REC-SVG-20010904/DTD/svg10.dtd">
<svg version="1.0" xmlns="http://www.w3.org/2000/svg"
 width="609.000000pt" height="126.000000pt" viewBox="0 0 609.000000 126.000000"
 preserveAspectRatio="xMidYMid meet">
<metadata>
Created by potrace 1.16, written by Peter Selinger 2001-2019
</metadata>
<g transform="translate(0.000000,126.000000) scale(0.100000,-0.100000)"
fill="#000000" stroke="none">
<path d="M455 1250 c-3 -6 -52 -10 -112 -10 l-105 0 -61 -32 c-34 -18 -88 -60
-119 -92 l-58 -59 0 -84 0 -84 27 -35 c34 -45 110 -84 163 -84 22 0 57 -7 77
-15 19 -8 53 -15 75 -15 21 0 55 -7 75 -15 19 -8 53 -15 75 -15 21 0 55 -7 75
-15 22 -9 67 -15 120 -15 52 0 97 -6 120 -15 24 -10 71 -15 150 -15 78 0 125
-5 150 -15 27 -12 79 -15 222 -15 l187 0 84 -30 85 -30 113 0 c125 0 173 -14
226 -67 87 -86 87 -240 0 -326 -39 -39 -105 -67 -157 -67 -55 0 -72 -17 -63
-65 l7 -35 109 0 c62 0 111 4 115 10 3 6 22 10 41 10 38 0 52 11 129 112 44
56 85 154 85 201 0 14 -7 41 -15 60 -17 42 -19 90 -5 118 l11 19 130 0 c93 0
140 -4 166 -15 l35 -15 954 0 954 0 38 -15 38 -15 629 4 c347 2 641 5 655 6
14 1 48 -1 75 -5 l50 -7 43 32 42 32 0 54 0 54 -162 0 c-128 0 -172 -4 -206
-17 l-44 -17 -43 12 c-32 8 -52 9 -75 1 -18 -7 -51 -9 -78 -4 -26 3 -56 6 -67
5 -11 -1 -157 -4 -324 -6 -235 -4 -311 -2 -335 8 -24 10 -250 14 -1041 20
-555 4 -1026 7 -1045 8 -19 1 -58 -1 -85 -5 -37 -5 -61 -3 -89 9 -29 12 -73
16 -183 16 l-144 0 -44 20 c-24 11 -97 70 -162 131 -109 102 -173 149 -205
149 -7 0 -33 14 -58 30 -25 16 -51 30 -58 30 -7 0 -42 17 -77 39 -36 21 -104
51 -152 66 -49 15 -109 38 -135 51 -26 13 -59 24 -73 24 -14 0 -42 7 -62 15
-25 11 -73 15 -169 15 -78 0 -135 4 -139 10 -4 6 -78 10 -190 10 -112 0 -186
-4 -190 -10z m504 -136 c18 -8 51 -14 73 -14 21 0 55 -7 75 -15 19 -8 61 -15
92 -15 l56 0 120 -58 c66 -32 131 -62 145 -65 14 -3 46 -23 73 -44 26 -21 75
-58 108 -83 146 -108 149 -120 31 -120 l-77 0 -63 30 c-46 22 -79 30 -117 30
-30 0 -66 5 -82 11 -15 6 -111 15 -213 20 -354 19 -498 31 -527 47 -12 7 -40
12 -63 12 -22 0 -57 7 -77 15 -19 8 -53 15 -75 15 -23 0 -67 13 -105 30 -35
17 -71 30 -79 30 -19 0 -64 45 -64 63 0 29 36 60 81 68 56 10 126 28 164 41
73 27 459 28 524 2z"/>
</g>
</svg>
