<?xml version="1.0" standalone="no"?>
<!DOCTYPE svg PUBLIC "-//W3C//DTD SVG 20010904//EN"
 "http://www.w3.org/TR/2001/REC-SVG-20010904/DTD/svg10.dtd">
<svg version="1.0" xmlns="http://www.w3.org/2000/svg"
 width="585.000000pt" height="162.000000pt" viewBox="0 0 585.000000 162.000000"
 preserveAspectRatio="xMidYMid meet">
<metadata>
Created by potrace 1.16, written by Peter Selinger 2001-2019
</metadata>
<g transform="translate(0.000000,162.000000) scale(0.100000,-0.100000)"
fill="#000000" stroke="none">
<path d="M13 1593 c-7 -15 -13 -47 -13 -71 l0 -43 85 -85 c47 -47 85 -91 85
-97 0 -7 27 -40 60 -73 32 -34 56 -64 53 -68 -4 -3 -22 -6 -40 -6 -73 0 -153
-68 -153 -131 0 -14 18 -55 40 -92 22 -36 40 -74 40 -83 0 -10 29 -46 65 -80
35 -35 73 -81 84 -103 11 -22 40 -52 63 -68 27 -18 54 -48 71 -80 17 -32 46
-66 76 -87 26 -20 60 -53 76 -75 15 -22 50 -58 79 -80 36 -27 73 -73 126 -154
l75 -116 61 -1 62 0 6 25 c6 25 -11 68 -53 130 -12 17 -21 38 -21 48 0 10 -29
48 -64 86 -35 37 -75 85 -89 107 -13 22 -45 52 -69 68 -45 28 -78 70 -78 100
0 8 -16 27 -35 42 -30 22 -115 135 -115 152 0 3 -10 19 -23 36 -51 68 -38 88
23 36 19 -17 40 -30 46 -30 7 0 55 -40 108 -90 57 -54 104 -90 116 -90 24 0
76 24 103 48 12 11 17 30 17 69 l0 53 -85 88 c-47 48 -98 105 -112 127 -15 22
-69 83 -119 136 -50 52 -99 109 -107 125 -8 16 -38 51 -66 77 l-52 47 11 20
11 20 85 0 c53 0 98 -6 121 -15 24 -10 71 -15 150 -15 78 0 125 -5 150 -15 23
-10 69 -15 135 -15 65 0 111 -5 135 -15 l35 -15 295 0 294 0 36 -15 c27 -12
79 -15 225 -15 145 0 197 -3 225 -15 25 -11 73 -15 167 -15 l131 0 63 -30 64
-30 249 0 c199 0 257 -3 286 -15 l35 -15 370 0 369 0 36 -15 c27 -11 77 -15
209 -15 106 0 183 -4 201 -11 17 -7 129 -14 283 -18 175 -4 262 -10 277 -19
15 -8 82 -12 228 -12 160 0 214 -3 242 -15 22 -9 67 -15 120 -15 52 0 97 -6
120 -15 19 -8 62 -15 94 -15 l59 0 0 38 0 38 -56 47 -56 47 -175 0 c-104 0
-191 5 -214 12 -30 8 -48 8 -79 -1 l-39 -12 -37 16 c-28 12 -78 15 -226 15
-145 0 -197 3 -225 15 -27 11 -77 15 -210 15 -132 0 -182 4 -210 15 -27 12
-79 15 -225 15 -145 0 -197 3 -225 15 -27 12 -79 15 -225 15 -145 0 -197 3
-225 15 l-35 15 -367 0 c-288 0 -376 3 -411 14 -114 36 -144 40 -375 45 -164
4 -247 10 -262 19 -13 7 -57 12 -108 12 -53 0 -99 6 -122 15 -25 11 -72 15
-165 15 -92 0 -139 4 -165 15 -28 12 -82 15 -255 15 -172 0 -226 3 -255 15
-22 9 -67 15 -120 15 -52 0 -97 6 -120 15 -20 8 -66 15 -105 15 -38 0 -84 7
-105 15 -20 9 -66 15 -109 15 -40 0 -76 5 -79 10 -4 6 -56 10 -123 10 l-117 0
-12 -27z"/>
</g>
</svg>
