<?xml version="1.0" standalone="no"?>
<!DOCTYPE svg PUBLIC "-//W3C//DTD SVG 20010904//EN"
 "http://www.w3.org/TR/2001/REC-SVG-20010904/DTD/svg10.dtd">
<svg version="1.0" xmlns="http://www.w3.org/2000/svg"
 width="825.000000pt" height="183.000000pt" viewBox="0 0 825.000000 183.000000"
 preserveAspectRatio="xMidYMid meet">
<metadata>
Created by potrace 1.16, written by Peter Selinger 2001-2019
</metadata>
<g transform="translate(0.000000,183.000000) scale(0.100000,-0.100000)"
fill="#000000" stroke="none">
<path d="M485 1820 c-3 -5 -19 -10 -34 -10 -16 0 -45 -7 -64 -15 -20 -8 -48
-15 -62 -15 -55 0 -147 -60 -237 -153 l-88 -91 0 -143 c0 -79 4 -151 9 -161
54 -107 131 -281 131 -295 0 -10 29 -48 64 -86 35 -37 75 -85 89 -107 13 -21
39 -52 57 -69 18 -16 52 -56 77 -87 24 -32 52 -58 61 -58 9 0 42 -25 72 -56
30 -31 71 -64 91 -74 47 -25 167 -106 199 -135 35 -32 317 -171 393 -194 97
-29 149 -42 190 -48 20 -3 40 -9 43 -14 3 -5 25 -9 50 -9 l44 0 0 21 c0 35
-53 79 -95 79 -39 0 -76 16 -138 61 -22 16 -47 29 -55 29 -8 0 -36 13 -61 29
-25 16 -60 32 -78 36 -40 8 -267 159 -353 234 -36 32 -81 70 -101 84 -20 15
-49 46 -64 68 -16 22 -49 55 -75 74 -44 32 -132 150 -173 230 -8 17 -27 41
-41 54 -16 15 -26 35 -26 52 0 15 -13 56 -30 91 l-30 63 0 146 0 146 30 41
c33 46 104 102 129 102 9 0 34 12 56 27 22 15 62 31 90 36 99 19 332 5 382
-22 12 -6 47 -11 78 -11 30 0 72 -7 92 -15 19 -8 52 -15 72 -15 20 0 75 -13
121 -30 47 -16 100 -30 119 -30 71 0 323 -108 422 -180 23 -16 49 -30 58 -30
9 0 33 -11 53 -25 20 -14 69 -41 108 -60 38 -20 107 -61 151 -92 45 -30 97
-60 115 -65 18 -5 57 -31 87 -58 30 -27 90 -67 133 -89 44 -21 108 -64 142
-95 35 -31 66 -56 71 -56 5 0 45 -34 90 -75 44 -41 85 -75 90 -75 14 0 193
-169 230 -218 19 -26 51 -66 72 -90 20 -23 42 -62 48 -86 21 -86 112 -116 172
-57 16 16 29 37 29 46 0 34 -42 139 -75 187 -19 27 -40 68 -47 90 l-12 40 19
14 c10 8 30 14 43 14 54 0 240 -108 327 -190 42 -40 172 -110 203 -110 30 0
72 38 72 66 0 61 -60 134 -146 177 -28 14 -75 48 -105 74 -30 27 -72 59 -94
72 -22 13 -59 44 -81 70 -23 26 -62 59 -86 75 -25 15 -58 49 -75 75 -17 26
-51 60 -76 75 -24 16 -57 49 -73 73 -15 25 -41 55 -57 68 -44 34 -28 49 42 40
100 -12 171 -16 486 -23 218 -5 316 -11 332 -19 16 -10 120 -13 423 -13 l401
0 36 -15 c27 -12 79 -15 225 -15 145 0 197 -3 225 -15 28 -12 82 -15 255 -15
172 0 226 -3 255 -15 28 -12 82 -15 255 -15 172 0 226 -3 255 -15 27 -12 79
-15 225 -15 145 0 197 -3 225 -15 l35 -15 355 0 354 0 36 -15 c26 -11 74 -15
180 -15 105 0 153 -4 180 -15 19 -8 54 -15 77 -15 34 0 48 -6 71 -30 21 -22
38 -30 62 -30 l33 0 0 70 0 70 -28 0 c-18 0 -38 11 -57 30 l-29 30 -58 0 c-32
0 -75 7 -95 15 -25 11 -72 15 -165 15 -92 0 -139 4 -165 15 -26 11 -74 15
-180 15 -98 0 -154 4 -176 13 -25 11 -125 14 -436 16 l-405 2 -34 15 c-27 11
-90 14 -284 14 -198 0 -256 3 -285 15 -27 12 -81 15 -240 15 -158 0 -212 3
-240 15 -27 11 -78 15 -212 15 l-177 0 -29 30 -29 30 -658 0 -659 0 -36 15
c-23 10 -69 15 -135 15 -65 0 -111 5 -135 15 -19 8 -51 15 -71 15 -19 0 -71
12 -115 27 l-80 26 -51 -13 c-58 -14 -79 -30 -96 -70 l-12 -28 18 -33 c35 -70
83 -128 222 -272 86 -88 142 -154 140 -163 -3 -16 -64 -55 -106 -68 -27 -9
-83 16 -142 63 -25 20 -61 47 -80 60 -19 13 -50 43 -68 67 -18 24 -41 44 -51
44 -10 0 -36 13 -57 30 -59 44 -233 162 -284 192 -25 14 -56 38 -69 52 -14 14
-31 26 -39 26 -19 0 -81 29 -117 56 -38 27 -170 94 -187 94 -8 0 -30 11 -50
25 -47 32 -414 215 -431 215 -6 0 -41 14 -75 30 l-64 30 -67 0 c-49 0 -90 8
-151 30 -47 16 -97 30 -112 30 -15 0 -30 5 -33 10 -4 6 -113 10 -295 10 -182
0 -291 -4 -295 -10z"/>
</g>
</svg>
