<?xml version="1.0" standalone="no"?>
<!DOCTYPE svg PUBLIC "-//W3C//DTD SVG 20010904//EN"
 "http://www.w3.org/TR/2001/REC-SVG-20010904/DTD/svg10.dtd">
<svg version="1.0" xmlns="http://www.w3.org/2000/svg"
 width="684.000000pt" height="117.000000pt" viewBox="0 0 684.000000 117.000000"
 preserveAspectRatio="xMidYMid meet">
<metadata>
Created by potrace 1.16, written by Peter Selinger 2001-2019
</metadata>
<g transform="translate(0.000000,117.000000) scale(0.100000,-0.100000)"
fill="#000000" stroke="none">
<path d="M2732 1150 c-6 -11 -24 -23 -39 -26 -50 -12 -63 -31 -63 -97 0 -37
-6 -69 -16 -87 -19 -31 -120 -100 -147 -100 -10 0 -28 -5 -40 -12 -34 -19
-144 -29 -374 -34 l-213 -5 -44 26 -44 25 -26 -10 c-49 -18 -124 -12 -169 14
l-42 25 -43 -12 -43 -11 -48 26 c-37 21 -69 29 -152 37 -124 12 -200 26 -228
40 -10 6 -32 8 -48 5 -20 -4 -40 1 -64 15 -19 12 -43 21 -54 21 -11 0 -33 9
-50 20 -16 11 -43 20 -58 20 -15 0 -44 7 -64 15 -22 9 -68 15 -121 15 l-85 0
-35 22 c-37 23 -50 25 -227 34 l-110 6 -42 -31 c-61 -44 -59 -73 10 -143 51
-51 82 -76 211 -165 l61 -43 48 0 c64 0 97 -31 97 -90 0 -113 91 -256 215
-338 39 -26 100 -75 137 -109 53 -49 74 -63 98 -63 20 0 60 -17 106 -45 40
-25 78 -45 83 -45 5 0 18 -11 29 -25 l20 -25 101 0 101 0 0 33 c0 18 -7 43
-16 55 -20 28 -105 72 -140 72 -30 0 -104 43 -177 103 -26 21 -62 43 -80 48
-39 11 -69 37 -102 89 -14 22 -37 46 -52 54 -37 19 -58 44 -73 87 l-13 36 27
39 c33 50 36 121 5 170 -29 48 -52 58 -96 43 l-35 -11 -27 19 c-44 34 -34 48
38 51 l63 3 37 -25 c21 -15 48 -26 62 -26 14 0 34 -7 45 -15 10 -8 36 -15 58
-15 21 0 54 -9 72 -21 27 -16 43 -19 74 -14 31 5 47 3 68 -12 20 -13 55 -20
132 -25 140 -9 217 -21 232 -36 7 -7 30 -12 53 -12 24 0 52 -8 70 -21 l30 -20
155 3 155 3 25 -18 24 -17 111 0 110 0 36 24 35 24 75 -2 74 -3 43 24 43 24
34 -11 35 -12 92 47 c60 30 107 62 134 90 22 24 54 47 69 51 l29 7 20 -28 c44
-59 104 -115 123 -115 10 0 36 -20 56 -45 21 -25 77 -71 125 -102 48 -32 107
-76 132 -98 25 -22 63 -53 86 -68 22 -15 94 -82 160 -148 65 -65 140 -131 166
-146 43 -23 118 -103 118 -125 0 -4 62 -8 138 -8 l138 0 12 33 c7 18 12 74 12
123 l0 89 -26 38 c-20 31 -23 41 -14 53 l12 14 215 0 c167 0 221 -3 250 -15
l35 -15 265 0 264 0 36 -15 35 -15 417 0 416 0 45 -30 45 -30 88 0 c55 0 101
-6 124 -15 28 -12 81 -15 244 -15 l209 0 0 55 0 55 -55 0 c-31 0 -72 7 -92 15
-24 10 -71 15 -150 15 -78 0 -125 5 -150 15 -23 10 -69 15 -132 15 -75 0 -110
5 -156 22 -65 24 -82 25 -410 36 -145 5 -227 11 -242 20 -16 9 -135 12 -497
12 -301 0 -485 4 -502 10 -19 7 -37 7 -60 0 -25 -9 -40 -8 -69 5 -30 12 -81
15 -257 15 -172 0 -226 3 -255 15 -19 8 -53 15 -75 15 -21 0 -55 7 -75 15 -19
8 -54 15 -76 15 -43 0 -101 31 -186 99 -25 20 -61 46 -80 59 -20 14 -56 42
-81 64 -80 70 -157 126 -208 152 -53 27 -82 58 -82 88 0 9 -26 37 -58 61 -31
25 -64 56 -71 71 -18 33 -70 37 -89 6z m1205 -893 c23 -22 34 -39 30 -50 l-6
-15 -40 20 c-53 26 -67 43 -51 63 18 21 26 19 67 -18z"/>
</g>
</svg>
