<?xml version="1.0" standalone="no"?>
<!DOCTYPE svg PUBLIC "-//W3C//DTD SVG 20010904//EN"
 "http://www.w3.org/TR/2001/REC-SVG-20010904/DTD/svg10.dtd">
<svg version="1.0" xmlns="http://www.w3.org/2000/svg"
 width="1041.000000pt" height="150.000000pt" viewBox="0 0 1041.000000 150.000000"
 preserveAspectRatio="xMidYMid meet">
<metadata>
Created by potrace 1.16, written by Peter Selinger 2001-2019
</metadata>
<g transform="translate(0.000000,150.000000) scale(0.100000,-0.100000)"
fill="#000000" stroke="none">
<path d="M6356 1462 c-30 -22 -65 -38 -90 -42 -32 -4 -45 -12 -63 -39 -33 -48
-39 -80 -22 -110 29 -51 174 -110 224 -91 49 19 123 12 169 -15 l44 -25 26 10
c45 17 95 11 140 -15 l44 -25 26 10 c41 15 181 12 223 -5 20 -9 66 -15 107
-15 l71 0 51 -35 c63 -44 106 -103 134 -184 l22 -62 -16 -24 c-9 -14 -33 -32
-54 -41 l-37 -15 -38 11 c-25 7 -223 10 -637 10 l-599 -2 -23 16 c-36 25 -116
21 -160 -9 -46 -31 -49 -31 -98 1 l-40 27 -73 -6 -72 -6 -29 18 -29 19 -403 1
c-252 1 -412 5 -430 11 -19 7 -37 7 -60 0 l-33 -11 -53 24 c-39 17 -68 23
-111 22 l-58 -2 -39 -38 c-22 -21 -51 -57 -65 -79 -35 -54 -66 -76 -123 -85
-26 -4 -68 -17 -94 -29 -26 -12 -65 -22 -86 -22 -22 0 -56 -7 -75 -15 -25 -10
-71 -15 -147 -15 l-111 0 -43 25 -44 25 -26 -10 c-45 -17 -95 -11 -140 15
l-43 25 -30 -11 c-24 -8 -39 -7 -68 5 -21 9 -62 16 -92 16 l-54 0 -67 39 c-37
22 -92 55 -122 74 -30 19 -67 37 -81 41 -30 6 -74 48 -95 88 -20 38 -46 50
-79 38 -14 -5 -39 -10 -53 -10 -15 0 -38 -7 -50 -16 -23 -16 -102 -162 -102
-189 0 -8 18 -50 39 -93 30 -59 55 -92 107 -139 38 -34 89 -82 114 -107 25
-26 52 -46 59 -46 7 0 46 -20 87 -45 40 -25 77 -45 81 -45 18 0 96 -77 89 -88
-5 -9 -88 -12 -312 -12 l-305 0 -36 15 -35 15 -1155 0 -1154 0 -29 -15 c-65
-34 -20 -95 70 -95 22 0 57 -7 77 -15 l35 -15 340 0 339 0 36 -15 35 -15 719
0 c468 0 720 -3 724 -10 9 -15 248 -13 263 2 10 10 17 10 32 0 25 -15 346 -17
355 -2 8 13 272 13 280 0 4 -6 56 -10 123 -10 l117 0 18 49 c23 66 22 78 -12
112 -21 20 -39 29 -63 29 -18 0 -51 10 -74 23 -84 45 -147 83 -203 119 -33 23
-68 38 -86 38 -31 0 -137 64 -202 121 -19 16 -43 29 -54 29 -26 0 -109 77
-109 101 0 11 3 19 6 19 4 0 53 -22 110 -50 57 -27 114 -50 126 -50 13 0 37
-9 53 -20 21 -14 47 -20 87 -20 32 0 76 -7 99 -16 30 -13 57 -15 107 -11 l67
7 30 -21 30 -20 275 3 275 2 40 18 c22 9 58 18 80 18 22 0 62 7 89 15 27 8 61
15 76 15 16 0 47 15 76 38 27 21 74 54 104 73 l55 34 499 -3 c276 -2 511 -8
524 -13 16 -6 36 -6 58 1 l33 11 44 -26 45 -25 26 10 c17 6 217 10 545 10
l518 0 37 -25 c43 -29 67 -31 102 -8 l25 16 35 -16 c25 -12 40 -14 60 -7 14 6
61 10 105 10 l80 0 43 -25 43 -25 49 32 c73 47 133 107 160 161 l25 49 -4 96
c-2 64 -10 113 -23 145 l-19 48 19 15 c26 19 146 18 193 -1 27 -12 81 -15 240
-15 158 0 212 -3 240 -15 25 -11 72 -15 161 -15 68 0 142 -5 163 -12 30 -8 48
-8 79 1 l39 12 37 -16 c20 -8 54 -15 76 -15 21 0 55 -7 75 -15 l35 -15 309 0
c199 0 318 -4 336 -11 16 -6 135 -13 287 -15 l259 -5 39 15 c26 11 71 16 138
16 l100 0 0 70 0 70 -625 0 -626 0 -36 15 c-26 11 -74 15 -180 15 -105 0 -153
4 -180 15 -23 10 -69 15 -135 15 -65 0 -111 5 -135 15 -28 12 -82 15 -255 15
-172 0 -226 3 -255 15 -27 12 -79 15 -225 15 -145 0 -197 3 -225 15 -19 8 -59
15 -87 15 -55 0 -154 30 -196 60 -48 34 -170 90 -195 90 -15 0 -51 11 -81 25
-30 14 -73 25 -95 25 -26 0 -42 5 -45 15 l-6 15 -212 -1 -211 0 -49 -37z m401
-120 c47 -6 69 -14 85 -31 l23 -23 -80 6 c-81 7 -145 30 -153 55 -4 11 3 12
29 7 19 -4 62 -10 96 -14z"/>
</g>
</svg>
