<?xml version="1.0" standalone="no"?>
<!DOCTYPE svg PUBLIC "-//W3C//DTD SVG 20010904//EN"
 "http://www.w3.org/TR/2001/REC-SVG-20010904/DTD/svg10.dtd">
<svg version="1.0" xmlns="http://www.w3.org/2000/svg"
 width="666.000000pt" height="135.000000pt" viewBox="0 0 666.000000 135.000000"
 preserveAspectRatio="xMidYMid meet">
<metadata>
Created by potrace 1.16, written by Peter Selinger 2001-2019
</metadata>
<g transform="translate(0.000000,135.000000) scale(0.100000,-0.100000)"
fill="#000000" stroke="none">
<path d="M7 1343 c-4 -3 -7 -24 -7 -46 l0 -40 61 -56 c63 -57 131 -100 160
-101 9 0 36 -15 59 -32 104 -78 155 -111 186 -120 19 -5 66 -39 109 -78 41
-39 82 -70 90 -70 21 0 102 -37 138 -62 15 -11 27 -28 27 -37 0 -23 23 -43 64
-56 17 -5 37 -22 45 -37 l15 -27 -11 -44 -12 -44 14 -48 c8 -26 26 -62 39 -79
13 -17 35 -55 50 -83 14 -29 38 -60 54 -70 15 -9 47 -33 71 -52 94 -75 156
-111 189 -111 22 0 41 -8 58 -25 l25 -25 57 0 57 0 28 44 c15 24 27 57 27 75
0 58 -92 206 -166 268 -67 56 -84 123 -32 123 13 0 41 11 63 25 55 34 135 34
189 0 l40 -24 46 26 46 26 46 -27 46 -26 26 10 c43 16 240 13 283 -5 25 -11
72 -15 165 -15 92 0 139 -4 165 -15 19 -8 53 -15 75 -15 24 0 56 -10 82 -25
l43 -25 30 11 c24 8 39 7 68 -5 21 -9 49 -16 64 -16 14 0 46 -14 71 -30 l45
-30 75 0 c78 0 95 -6 204 -73 55 -35 170 -76 209 -77 33 0 87 27 168 82 76 51
109 91 109 131 0 18 12 50 25 72 l24 39 -25 44 -25 43 11 34 c6 20 8 53 5 78
l-7 45 23 16 c32 22 204 23 256 1 19 -8 52 -15 72 -15 20 0 56 -6 81 -14 103
-33 142 -39 270 -45 77 -4 144 -12 157 -19 14 -7 64 -12 138 -12 80 0 127 -5
152 -15 l35 -15 854 0 854 0 0 55 0 54 -30 16 -29 15 -506 0 -506 0 -36 15
-35 15 -400 0 -399 0 -36 15 c-26 11 -74 15 -177 15 -94 0 -156 5 -186 14 -87
28 -136 38 -210 45 -41 4 -85 13 -97 19 -12 7 -54 12 -93 12 -40 0 -86 6 -107
15 -20 9 -66 15 -109 15 l-73 0 -21 30 c-23 32 -147 120 -171 120 -7 0 -56 20
-107 45 -52 25 -105 45 -119 45 -14 0 -54 14 -90 30 l-64 30 -180 0 -180 0
-48 -24 c-59 -30 -111 -88 -111 -123 0 -32 68 -103 100 -103 13 0 39 -12 58
-27 22 -17 50 -27 76 -29 84 -5 212 -22 241 -32 55 -19 119 -34 180 -41 34 -5
70 -13 82 -19 12 -7 39 -12 59 -12 21 0 67 -10 103 -22 134 -44 151 -72 151
-248 0 -67 -5 -130 -10 -141 l-11 -19 -100 0 -100 0 -55 25 c-98 45 -171 65
-236 65 -35 0 -83 6 -108 14 -90 28 -189 51 -280 64 -30 4 -68 16 -83 26 l-28
19 -72 -6 -72 -6 -30 19 -30 20 -208 0 c-162 0 -216 3 -244 15 -46 19 -471 22
-506 3 -28 -15 -241 -30 -271 -18 -13 4 -57 40 -99 79 -42 39 -85 71 -95 71
-11 0 -38 15 -62 33 -117 87 -166 117 -195 117 -37 0 -62 16 -142 92 l-61 58
-34 0 c-24 0 -57 16 -116 55 -46 30 -102 65 -125 76 -23 12 -64 39 -93 60 -48
37 -99 51 -117 32z m3174 -283 c5 0 9 -4 9 -10 0 -12 -47 -13 -54 -1 -8 12 6
22 22 16 7 -3 18 -5 23 -5z"/>
</g>
</svg>
