<?xml version="1.0" standalone="no"?>
<!DOCTYPE svg PUBLIC "-//W3C//DTD SVG 20010904//EN"
 "http://www.w3.org/TR/2001/REC-SVG-20010904/DTD/svg10.dtd">
<svg version="1.0" xmlns="http://www.w3.org/2000/svg"
 width="597.000000pt" height="108.000000pt" viewBox="0 0 597.000000 108.000000"
 preserveAspectRatio="xMidYMid meet">
<metadata>
Created by potrace 1.16, written by Peter Selinger 2001-2019
</metadata>
<g transform="translate(0.000000,108.000000) scale(0.100000,-0.100000)"
fill="#000000" stroke="none">
<path d="M2028 1053 c-47 -51 -88 -116 -88 -139 0 -38 58 -93 141 -135 l79
-39 67 0 c38 0 88 -6 113 -14 98 -31 139 -39 240 -45 58 -4 115 -12 127 -19
12 -7 54 -12 93 -12 71 0 143 -22 167 -52 19 -23 53 -131 53 -168 0 -20 -7
-46 -16 -58 -38 -54 -164 -79 -241 -47 l-35 15 -277 0 -277 0 -84 30 -85 30
-98 0 c-64 0 -110 5 -134 15 -27 11 -77 15 -210 15 -132 0 -182 4 -210 15
l-35 15 -400 0 -399 0 -36 15 c-24 10 -71 15 -150 15 -78 0 -125 5 -150 15
-46 19 -116 19 -153 0 l-30 -16 0 -39 0 -40 25 0 c14 0 42 -7 62 -15 19 -8 52
-15 72 -15 20 0 75 -13 121 -30 53 -18 105 -30 138 -30 29 0 69 -7 89 -15 28
-12 83 -15 257 -15 l222 0 24 -16 c14 -10 43 -34 65 -55 22 -21 74 -54 115
-75 41 -20 92 -50 114 -65 28 -21 51 -29 80 -29 39 0 137 -28 153 -43 3 -4 74
-7 157 -6 l151 0 55 37 c61 42 71 67 50 136 l-12 39 14 8 c22 14 136 10 175
-6 22 -9 67 -15 120 -15 52 0 97 -6 120 -15 24 -10 71 -15 150 -15 78 0 125
-5 150 -15 25 -11 73 -15 170 -15 l134 0 42 21 c117 60 177 129 177 207 0 22
5 54 11 72 9 24 9 45 -1 84 -9 40 -10 58 -1 74 l12 22 55 0 c30 0 71 -7 91
-15 28 -12 86 -15 285 -15 198 0 256 -3 285 -15 26 -11 74 -15 176 -15 77 0
157 -5 178 -12 30 -8 48 -8 79 1 l39 12 37 -16 37 -15 749 1 748 0 0 55 0 54
-60 30 -59 30 -119 0 c-84 0 -130 -5 -155 -15 l-36 -15 -650 0 c-422 0 -659 4
-677 10 -15 6 -77 13 -138 17 -61 3 -126 12 -145 19 -20 9 -72 14 -133 14 -65
0 -111 5 -135 15 -26 11 -74 15 -180 15 -105 0 -153 4 -180 15 -25 10 -71 15
-153 15 l-117 0 -41 29 c-22 16 -43 34 -47 40 -3 6 -26 16 -51 22 -25 7 -62
28 -88 50 -24 22 -50 39 -58 39 -7 0 -26 9 -43 21 -58 39 -125 69 -154 69 -16
0 -33 5 -36 10 -4 6 -93 10 -234 10 l-227 0 -26 -27z m424 -147 c18 -8 47 -19
63 -26 l30 -12 -20 -9 c-32 -12 -88 -10 -115 6 -14 8 -44 14 -68 15 -24 0 -53
5 -65 12 l-22 11 20 8 c33 13 142 10 177 -5z m-932 -675 c55 -7 139 -39 140
-53 0 -11 -18 -10 -25 2 -3 6 -27 10 -52 10 -51 0 -173 37 -173 53 0 5 11 6
28 2 15 -3 52 -10 82 -14z"/>
</g>
</svg>
