<?xml version="1.0" standalone="no"?>
<!DOCTYPE svg PUBLIC "-//W3C//DTD SVG 20010904//EN"
 "http://www.w3.org/TR/2001/REC-SVG-20010904/DTD/svg10.dtd">
<svg version="1.0" xmlns="http://www.w3.org/2000/svg"
 width="3516.000000pt" height="696.000000pt" viewBox="0 0 3516.000000 696.000000"
 preserveAspectRatio="xMidYMid meet">
<metadata>
Created by potrace 1.16, written by Peter Selinger 2001-2019
</metadata>
<g transform="translate(0.000000,696.000000) scale(0.100000,-0.100000)"
fill="#000000" stroke="none">
<path d="M16987 5152 c-11 -12 -17 -36 -17 -71 0 -29 -5 -61 -10 -72 l-11 -19
-7878 0 -7878 0 -16 -18 c-11 -12 -17 -36 -17 -71 0 -29 -5 -61 -10 -72 l-11
-19 -78 0 -78 0 -16 -18 -17 -19 0 -455 0 -455 18 -16 19 -17 166 0 166 0 11
-19 c5 -11 10 -44 10 -74 0 -72 17 -87 98 -87 l61 0 11 -19 c5 -11 10 -44 10
-74 0 -40 5 -58 18 -70 l19 -17 166 0 166 0 11 -19 c5 -11 10 -51 10 -89 0
-89 13 -102 98 -102 l61 0 11 -19 c5 -11 10 -44 10 -74 0 -40 5 -58 18 -70
l19 -17 635 0 635 0 16 18 c11 12 17 36 17 71 0 29 5 61 10 72 l11 19 63 0
c84 0 96 13 96 104 0 37 5 76 10 87 l11 19 78 0 78 0 16 18 17 19 0 245 0 245
-18 16 c-14 13 -38 17 -95 17 l-76 0 -11 19 c-14 26 -14 486 0 512 l11 19
4784 0 4784 0 11 -19 c5 -11 10 -44 10 -74 0 -40 5 -58 18 -70 l19 -17 155 0
155 0 16 18 c11 12 17 36 17 71 0 29 5 61 10 72 l11 19 164 0 164 0 11 -19 c5
-11 10 -44 10 -74 0 -40 5 -58 18 -70 l19 -17 526 0 526 0 11 -19 c6 -12 10
-116 10 -269 l0 -249 18 -16 c14 -13 38 -17 95 -17 l76 0 11 -19 c5 -11 10
-84 10 -164 l0 -144 18 -16 19 -17 151 0 151 0 11 -19 c6 -11 10 -88 10 -179
l0 -159 18 -16 19 -17 166 0 166 0 11 -19 c5 -11 10 -44 10 -74 0 -40 5 -58
18 -70 l19 -17 151 0 151 0 11 -19 c5 -11 10 -44 10 -74 0 -75 15 -87 113 -87
l76 0 11 -19 c5 -11 10 -51 10 -89 0 -54 4 -72 18 -85 l19 -17 151 0 151 0 11
-19 c5 -11 10 -44 10 -74 0 -40 5 -58 18 -70 l19 -17 166 0 166 0 11 -19 c5
-11 10 -44 10 -74 0 -40 5 -58 18 -70 l19 -17 256 0 256 0 11 -19 c5 -11 10
-51 10 -89 0 -54 4 -72 18 -85 l19 -17 151 0 151 0 11 -19 c5 -11 10 -44 10
-74 0 -40 5 -58 18 -70 l19 -17 346 0 346 0 11 -19 c5 -11 10 -44 10 -74 0
-40 5 -58 18 -70 l19 -17 256 0 256 0 11 -19 c5 -11 10 -44 10 -74 0 -40 5
-58 18 -70 l19 -17 1205 0 1205 0 16 18 c11 12 17 36 17 71 0 29 5 61 10 72
l11 19 153 0 153 0 16 18 c11 12 17 36 17 71 0 29 5 61 10 72 l11 19 78 0 78
0 16 18 c11 12 17 36 17 71 0 29 5 61 10 72 l11 19 63 0 c48 0 67 4 79 18 l17
19 0 455 0 455 -18 16 c-13 12 -37 17 -80 17 l-61 0 -11 19 c-5 11 -10 84 -10
164 l0 144 -18 16 c-14 13 -38 17 -95 17 l-76 0 -11 19 c-5 11 -10 51 -10 89
0 89 -13 102 -98 102 l-61 0 -11 19 c-5 11 -10 44 -10 74 0 72 -17 87 -98 87
l-61 0 -11 19 c-5 11 -10 44 -10 74 0 40 -5 58 -18 70 l-19 17 -166 0 -166 0
-11 19 c-5 11 -10 44 -10 74 0 72 -17 87 -98 87 l-61 0 -11 19 c-5 11 -10 51
-10 89 0 54 -4 72 -18 85 l-19 17 -166 0 -166 0 -11 19 c-5 11 -10 44 -10 74
0 72 -17 87 -98 87 l-61 0 -11 19 c-5 11 -10 38 -10 61 0 23 5 50 10 61 l11
19 1664 0 1664 0 11 -19 c5 -11 10 -44 10 -74 0 -73 16 -87 102 -87 82 0 98
15 98 89 0 29 5 61 10 72 l11 19 164 0 164 0 11 -19 c5 -11 10 -44 10 -74 0
-40 5 -58 18 -70 l19 -17 2896 0 2896 0 11 -19 c5 -11 10 -44 10 -74 0 -40 5
-58 18 -70 l19 -17 1580 0 1580 0 16 18 c12 13 17 37 17 84 0 88 -12 98 -113
98 l-76 0 -11 19 c-5 11 -10 44 -10 74 0 40 -5 58 -18 70 l-19 17 -1096 0
-1096 0 -11 19 c-5 11 -10 51 -10 89 0 54 -4 72 -18 85 l-19 17 -2146 0 -2146
0 -11 19 c-5 11 -10 44 -10 74 0 73 -16 87 -102 87 -82 0 -98 -15 -98 -89 0
-29 -5 -61 -10 -72 l-11 -19 -254 0 -254 0 -11 19 c-5 11 -10 44 -10 74 0 40
-5 58 -18 70 l-19 17 -4591 0 -4591 0 -11 19 c-5 11 -10 44 -10 74 0 73 -16
87 -102 87 -50 0 -69 -4 -81 -18z m-14157 -591 c5 -11 10 -43 10 -72 0 -74 16
-89 96 -89 l63 0 11 -19 c6 -11 10 -88 10 -177 l0 -157 17 -19 16 -18 78 0 78
0 11 -19 c13 -25 13 -97 0 -122 l-11 -19 -76 0 c-57 0 -81 -4 -95 -17 l-18
-16 0 -144 c0 -80 -5 -153 -10 -164 l-11 -19 -149 0 -149 0 -11 19 c-5 11 -10
43 -10 72 0 35 -6 59 -17 71 l-16 18 -258 0 -258 0 -11 19 c-5 11 -10 43 -10
72 0 74 -16 89 -96 89 l-63 0 -11 19 c-5 11 -10 43 -10 72 0 35 -6 59 -17 71
l-16 18 -78 0 -78 0 -11 19 c-5 11 -10 50 -10 87 0 91 -12 104 -96 104 l-63 0
-11 19 c-13 25 -13 97 0 122 l11 19 166 0 166 0 19 17 c13 12 18 30 18 70 0
30 5 63 10 74 l11 19 434 0 434 0 11 -19z m15090 -180 c5 -11 10 -43 10 -72 0
-35 6 -59 17 -71 l16 -18 153 0 153 0 11 -19 c5 -11 10 -50 10 -87 0 -49 5
-73 17 -86 l16 -18 348 0 348 0 11 -19 c5 -11 10 -43 10 -72 0 -35 6 -59 17
-71 l16 -18 168 0 168 0 11 -19 c5 -11 10 -43 10 -72 0 -35 6 -59 17 -71 l16
-18 153 0 153 0 11 -19 c14 -26 14 -486 0 -512 l-11 -19 -719 0 -719 0 -11 19
c-5 11 -10 43 -10 72 0 35 -6 59 -17 71 l-16 18 -153 0 -153 0 -11 19 c-5 11
-10 50 -10 87 0 49 -5 73 -17 86 l-16 18 -258 0 -258 0 -11 19 c-5 11 -10 43
-10 72 0 35 -6 59 -17 71 l-16 18 -78 0 -78 0 -11 19 c-5 11 -10 43 -10 72 0
74 -16 89 -96 89 l-63 0 -11 19 c-5 11 -10 43 -10 72 0 74 -16 89 -96 89 l-63
0 -11 19 c-5 11 -10 84 -10 166 0 82 5 155 10 166 l11 19 539 0 539 0 11 -19z
m2430 -180 c5 -11 10 -50 10 -87 0 -49 5 -73 17 -86 l16 -18 168 0 168 0 11
-19 c5 -11 10 -43 10 -72 0 -35 6 -59 17 -71 l16 -18 153 0 153 0 11 -19 c5
-11 10 -43 10 -72 0 -35 6 -59 17 -71 l16 -18 168 0 168 0 11 -19 c5 -11 10
-43 10 -72 0 -74 16 -89 96 -89 l63 0 11 -19 c5 -11 10 -50 10 -87 0 -49 5
-73 17 -86 l16 -18 168 0 168 0 11 -19 c5 -11 10 -83 10 -162 l0 -142 17 -19
c12 -14 31 -18 79 -18 l63 0 11 -19 c6 -11 10 -88 10 -177 l0 -157 17 -19 c12
-14 31 -18 79 -18 l63 0 11 -19 c5 -11 10 -38 10 -61 0 -23 -5 -50 -10 -61
l-11 -19 -61 0 c-43 0 -67 -5 -80 -17 l-18 -16 0 -159 c0 -91 -4 -168 -10
-179 l-11 -19 -151 0 -151 0 -19 -17 c-13 -12 -18 -30 -18 -70 0 -30 -5 -63
-10 -74 l-11 -19 -914 0 -914 0 -11 19 c-5 11 -10 43 -10 72 0 35 -6 59 -17
71 l-16 18 -348 0 -348 0 -11 19 c-5 11 -10 50 -10 87 0 49 -5 73 -17 86 l-16
18 -258 0 -258 0 -11 19 c-5 11 -10 43 -10 72 0 35 -6 59 -17 71 l-16 18 -258
0 -258 0 -11 19 c-5 11 -10 43 -10 72 0 35 -6 59 -17 71 l-16 18 -168 0 -168
0 -11 19 c-5 11 -10 50 -10 87 0 49 -5 73 -17 86 l-16 18 -153 0 -153 0 -11
19 c-5 11 -10 43 -10 72 0 35 -6 59 -17 71 l-16 18 -78 0 -78 0 -11 19 c-5 11
-10 43 -10 72 0 35 -6 59 -17 71 l-16 18 -153 0 -153 0 -11 19 c-14 27 -13
114 2 129 9 9 81 12 265 12 l252 0 11 -19 c5 -11 10 -43 10 -72 0 -35 6 -59
17 -71 l16 -18 153 0 153 0 11 -19 c5 -11 10 -43 10 -72 0 -35 6 -59 17 -71
l16 -18 168 0 168 0 11 -19 c5 -11 10 -43 10 -72 0 -35 6 -59 17 -71 l16 -18
258 0 258 0 11 -19 c5 -11 10 -50 10 -87 0 -49 5 -73 17 -86 l16 -18 530 0
530 0 19 17 c14 13 18 31 18 85 0 38 5 78 10 89 l11 19 166 0 166 0 19 17 c13
12 18 30 18 70 0 30 5 63 10 74 l11 19 61 0 c81 0 98 15 98 87 0 30 5 63 10
74 l11 19 76 0 c101 0 113 10 113 98 0 47 -5 71 -17 84 l-16 18 -78 0 -78 0
-11 19 c-6 11 -10 88 -10 177 l0 157 -17 19 c-12 14 -31 18 -79 18 l-63 0 -11
19 c-5 11 -10 43 -10 72 0 74 -16 89 -96 89 l-63 0 -11 19 c-5 11 -10 43 -10
72 0 35 -6 59 -17 71 l-16 18 -78 0 -78 0 -11 19 c-5 11 -10 45 -10 76 0 31 5
65 10 76 l11 19 254 0 254 0 11 -19z m-4140 -390 c14 -27 13 -114 -2 -129 -7
-7 -38 -12 -70 -12 l-57 0 -11 19 c-5 11 -10 38 -10 61 0 23 5 50 10 61 l11
19 59 0 59 0 11 -19z m390 -180 c5 -11 10 -43 10 -72 0 -74 16 -89 96 -89 l63
0 11 -19 c14 -27 13 -144 -2 -159 -8 -8 -61 -12 -175 -12 l-162 0 -11 19 c-5
11 -10 50 -10 87 0 91 -12 104 -96 104 l-63 0 -11 19 c-14 27 -13 114 2 129 8
8 61 12 175 12 l162 0 11 -19z"/>
</g>
</svg>
