<?xml version="1.0" standalone="no"?>
<!DOCTYPE svg PUBLIC "-//W3C//DTD SVG 20010904//EN"
 "http://www.w3.org/TR/2001/REC-SVG-20010904/DTD/svg10.dtd">
<svg version="1.0" xmlns="http://www.w3.org/2000/svg"
 width="684.000000pt" height="225.000000pt" viewBox="0 0 684.000000 225.000000"
 preserveAspectRatio="xMidYMid meet">
<metadata>
Created by potrace 1.16, written by Peter Selinger 2001-2019
</metadata>
<g transform="translate(0.000000,225.000000) scale(0.100000,-0.100000)"
fill="#000000" stroke="none">
<path d="M2705 2240 c-3 -5 -13 -10 -20 -10 -8 0 -57 -20 -108 -45 -52 -25
-101 -45 -109 -45 -14 0 -96 -59 -179 -129 -45 -38 -79 -134 -79 -223 l0 -61
44 -43 c31 -32 51 -44 72 -44 16 0 49 -6 74 -14 60 -19 125 -35 182 -46 26 -5
56 -13 67 -19 11 -6 44 -11 73 -11 34 0 85 -11 138 -30 68 -24 102 -30 168
-30 50 0 97 -6 119 -15 19 -8 60 -15 90 -15 29 0 70 -7 90 -15 19 -8 46 -15
60 -15 13 0 49 -11 79 -25 30 -14 81 -34 114 -45 l59 -20 204 0 204 0 39 -29
c53 -39 93 -83 149 -166 63 -92 75 -123 75 -190 l0 -56 -25 -24 -24 -25 -74 0
c-45 0 -89 -6 -112 -15 l-37 -16 -276 5 c-152 3 -304 8 -337 11 -33 3 -159 9
-280 13 -145 5 -227 11 -242 20 -12 6 -40 12 -63 12 -22 0 -57 7 -77 15 l-35
15 -370 0 -369 0 -36 15 -35 15 -385 0 -384 0 -36 15 c-21 9 -67 15 -116 15
-44 0 -97 5 -118 12 -30 8 -48 8 -79 -1 l-39 -12 -37 16 c-50 20 -228 21 -277
0 -26 -11 -74 -15 -164 -15 -98 -1 -141 -5 -183 -19 l-55 -19 -22 -38 c-23
-42 -32 -157 -13 -169 6 -3 10 -15 10 -27 0 -27 200 -228 227 -228 11 0 30
-12 44 -26 13 -14 55 -42 92 -61 38 -19 87 -47 109 -64 23 -16 48 -29 57 -29
9 0 36 -14 61 -30 25 -16 52 -30 60 -30 9 0 32 -11 51 -24 20 -14 108 -48 195
-77 107 -36 170 -62 192 -81 25 -21 43 -28 77 -28 24 0 47 -4 50 -10 8 -13
239 -13 263 -1 9 5 37 17 62 27 91 38 160 130 160 214 0 22 7 57 15 77 19 45
19 111 0 156 -8 20 -15 48 -15 62 0 14 -14 53 -31 86 -16 33 -29 70 -27 82 l3
22 603 3 602 2 36 -15 c20 -8 61 -15 91 -15 29 0 70 -7 90 -15 l35 -15 280 0
279 0 36 -15 c25 -11 72 -15 165 -15 92 0 139 -4 165 -15 60 -25 142 -19 216
15 36 16 71 30 79 30 7 0 48 33 91 73 l77 72 0 145 0 145 -37 54 c-21 30 -48
65 -61 78 l-23 23 11 20 11 20 130 0 c93 0 140 -4 166 -15 19 -8 59 -15 89
-15 29 0 65 -6 81 -13 21 -9 240 -13 928 -18 495 -3 914 -9 932 -13 l32 -8 35
27 36 27 0 53 0 53 -57 6 c-32 4 -67 6 -78 5 -11 0 -395 -3 -852 -5 l-833 -4
-36 15 c-24 10 -70 15 -136 15 -65 0 -111 5 -135 15 -19 8 -53 15 -75 15 -21
0 -55 7 -75 15 -24 10 -70 15 -146 15 -87 0 -125 5 -176 22 -96 32 -113 46
-135 120 -31 101 -54 137 -140 226 -82 84 -157 142 -237 182 -24 13 -58 33
-74 46 -17 12 -66 34 -110 49 -44 14 -104 37 -133 50 -29 14 -63 25 -75 25
-24 0 -122 32 -134 43 -11 11 -491 8 -498 -3z m232 -135 c24 -10 71 -15 150
-15 l115 0 65 -30 c35 -16 70 -30 76 -30 12 0 43 -15 162 -79 67 -36 85 -49
85 -62 0 -18 -37 -8 -60 16 l-23 25 -89 0 -89 0 -65 -65 -65 -65 2 -74 c1 -40
-1 -78 -5 -85 -10 -16 -120 -14 -163 4 -19 8 -53 15 -75 15 -21 0 -55 7 -75
15 -19 8 -59 15 -87 15 -28 0 -71 6 -96 14 -58 18 -124 35 -180 46 -51 10
-102 33 -120 56 l-13 15 13 39 c16 50 60 95 125 127 27 14 61 34 75 43 38 27
139 60 181 60 20 0 52 7 70 15 43 18 42 18 86 0z m667 -424 c100 -49 174 -109
162 -130 -4 -6 -34 -11 -67 -11 -73 0 -150 32 -210 87 -55 51 -63 68 -43 87
24 25 51 19 158 -33z m-2897 -862 c15 -7 104 -14 197 -16 116 -3 181 -9 204
-19 23 -9 73 -14 151 -14 l116 0 69 -78 c39 -44 83 -107 102 -147 l34 -69 0
-66 c0 -63 -28 -168 -53 -198 -39 -47 -188 -68 -264 -37 -19 8 -53 15 -75 15
-28 0 -58 11 -106 40 -36 22 -82 45 -102 50 -19 5 -59 21 -88 35 -28 14 -57
25 -63 25 -20 0 -197 88 -240 120 -23 16 -50 30 -60 30 -10 0 -27 13 -39 30
-11 16 -60 56 -108 87 -81 55 -131 112 -132 150 0 24 57 43 128 43 39 0 85 6
103 15 41 17 186 20 226 4z"/>
</g>
</svg>
