<?xml version="1.0" standalone="no"?>
<!DOCTYPE svg PUBLIC "-//W3C//DTD SVG 20010904//EN"
 "http://www.w3.org/TR/2001/REC-SVG-20010904/DTD/svg10.dtd">
<svg version="1.0" xmlns="http://www.w3.org/2000/svg"
 width="879.000000pt" height="258.000000pt" viewBox="0 0 879.000000 258.000000"
 preserveAspectRatio="xMidYMid meet">
<metadata>
Created by potrace 1.16, written by Peter Selinger 2001-2019
</metadata>
<g transform="translate(0.000000,258.000000) scale(0.100000,-0.100000)"
fill="#000000" stroke="none">
<path d="M1880 2503 c0 -95 23 -143 68 -143 35 0 72 -26 72 -51 0 -30 -42 -24
-75 11 -17 18 -52 37 -84 47 -44 13 -66 28 -102 68 -53 57 -134 101 -171 92
-56 -14 -91 -50 -106 -107 l-14 -55 16 -56 c9 -30 32 -80 51 -110 18 -30 41
-69 50 -88 l16 -35 -14 -14 -14 -13 -38 15 c-24 10 -68 16 -122 16 -52 0 -97
6 -120 15 -28 12 -81 15 -241 15 l-206 0 -44 -17 -43 -16 -53 13 c-41 10 -62
10 -86 1 -18 -6 -75 -11 -127 -11 -163 0 -308 -64 -421 -185 l-72 -77 0 -119
c0 -66 4 -127 9 -137 5 -9 15 -32 22 -51 19 -51 106 -179 135 -198 14 -9 39
-40 56 -69 28 -50 61 -84 122 -127 15 -10 37 -40 51 -67 14 -27 42 -61 64 -77
22 -15 52 -48 68 -72 15 -24 44 -54 65 -67 50 -32 75 -60 104 -117 14 -26 47
-80 74 -120 53 -79 90 -172 90 -224 0 -19 -7 -50 -15 -70 -8 -19 -15 -48 -15
-64 0 -42 -61 -80 -143 -88 -106 -11 -151 -60 -89 -97 15 -9 39 -25 54 -35 29
-20 112 -26 123 -9 3 6 14 10 24 10 9 0 30 13 46 30 16 16 37 30 47 30 11 0
43 23 72 50 l53 50 22 65 c39 120 24 230 -51 379 -17 33 -47 81 -68 106 -21
25 -47 64 -59 87 -11 23 -38 54 -60 70 -21 15 -49 43 -62 63 -12 19 -93 107
-180 195 -121 123 -175 187 -233 275 -42 63 -76 121 -76 130 0 8 -14 35 -30
60 -16 25 -30 55 -30 68 0 34 24 86 68 143 45 59 111 89 198 89 28 0 69 7 90
16 l39 17 349 -2 c278 -2 357 -5 384 -17 19 -8 52 -14 74 -14 21 0 55 -7 75
-15 19 -8 59 -15 87 -15 58 0 135 -24 246 -76 41 -20 108 -47 150 -60 86 -28
113 -40 155 -70 17 -12 64 -39 105 -60 41 -20 92 -50 114 -65 47 -35 91 -37
147 -8 l41 20 -7 62 c-7 62 -26 97 -52 97 -8 0 -43 13 -77 29 -34 16 -76 32
-93 35 -18 4 -51 24 -75 45 -24 21 -54 44 -68 51 -51 26 -156 99 -182 127 -15
15 -30 40 -33 56 l-7 27 26 0 c15 0 43 -7 63 -15 46 -19 66 -19 137 2 l59 18
44 59 c28 38 43 69 43 88 0 16 5 38 10 49 l11 19 72 -7 72 -6 41 -44 c31 -33
48 -43 73 -43 17 0 48 -7 68 -15 19 -8 59 -15 89 -15 29 0 65 -5 81 -12 60
-24 305 -50 433 -45 100 4 136 10 240 43 25 8 68 14 97 14 40 0 71 10 145 45
51 25 98 45 105 45 6 0 41 14 76 30 l65 30 126 0 c90 0 137 -4 163 -15 20 -9
66 -15 106 -15 l71 0 31 -28 c17 -17 61 -38 105 -52 98 -31 116 -43 152 -107
20 -35 47 -64 77 -84 26 -17 62 -54 82 -82 l35 -52 49 -16 c27 -8 67 -31 89
-51 23 -19 56 -43 75 -53 19 -9 52 -30 74 -46 22 -16 46 -29 54 -29 8 0 44
-18 81 -40 36 -22 82 -45 102 -50 19 -5 59 -21 88 -35 28 -14 57 -25 62 -25 6
0 41 -18 78 -40 37 -23 78 -43 92 -46 14 -2 43 -9 65 -15 45 -12 182 -30 235
-31 110 -2 191 35 278 125 l62 65 0 67 c0 68 -17 117 -65 180 -12 17 -41 67
-64 112 l-41 82 -82 55 c-46 30 -94 66 -107 80 -14 14 -30 26 -38 26 -7 0 -13
5 -13 10 0 13 13 13 28 -2 9 -9 34 -9 106 0 l95 12 57 -25 56 -25 280 0 279 0
36 -15 c25 -11 72 -15 165 -15 92 0 139 -4 165 -15 20 -8 66 -15 104 -15 37 0
80 -5 96 -11 15 -7 90 -13 167 -16 91 -2 150 -9 173 -18 23 -10 70 -15 135
-15 65 0 111 -5 135 -15 23 -10 69 -15 135 -15 65 0 111 -5 135 -15 19 -8 60
-15 90 -15 29 0 70 -7 90 -15 19 -8 51 -15 71 -15 19 0 52 -5 73 -11 29 -9 48
-9 84 1 l45 13 0 53 0 53 -30 16 c-16 8 -54 15 -85 15 -31 0 -72 7 -92 15 -20
8 -66 15 -104 15 -37 0 -80 5 -96 12 -30 12 -165 30 -226 29 -20 0 -63 11 -93
24 l-56 25 -250 0 c-198 0 -256 3 -285 15 -24 10 -71 15 -150 15 -78 0 -125 5
-150 15 -24 10 -71 15 -150 15 -78 0 -125 5 -150 15 -24 10 -71 15 -150 15
-78 0 -125 5 -150 15 -25 11 -72 15 -165 15 -92 0 -139 4 -165 15 -28 12 -86
15 -285 15 -198 0 -256 3 -285 15 l-35 15 -418 0 -418 0 -35 -15 c-58 -24
-149 -19 -252 14 -166 54 -173 55 -392 58 l-211 4 -62 -21 c-34 -12 -81 -30
-104 -40 -22 -11 -76 -31 -119 -45 -43 -14 -97 -35 -120 -47 -38 -20 -174 -39
-267 -39 -85 1 -258 19 -277 29 -12 7 -40 12 -63 12 -22 0 -57 7 -77 15 -19 8
-52 15 -72 15 -20 0 -56 7 -81 15 -25 8 -61 17 -81 20 -22 3 -54 20 -80 43
-52 45 -173 85 -305 101 -37 5 -74 17 -92 30 l-30 21 -101 0 -101 0 0 -77z
m3787 -353 c35 -16 70 -30 76 -30 7 0 32 -14 57 -30 25 -16 52 -30 60 -30 49
0 183 -92 287 -198 119 -120 102 -241 -41 -296 l-46 -18 -81 26 c-44 14 -88
26 -97 26 -19 0 -122 34 -162 53 -14 6 -43 24 -64 39 -21 16 -45 28 -53 28 -8
0 -42 13 -76 28 -34 16 -73 32 -87 35 -14 4 -51 31 -83 62 -36 34 -66 55 -81
55 -26 0 -131 71 -140 96 -4 10 -3 21 1 25 12 11 115 -26 133 -48 8 -11 39
-36 69 -56 86 -60 150 -48 192 35 l20 40 -10 30 c-14 39 -14 114 -1 139 15 27
51 24 127 -11z"/>
</g>
</svg>
