<?xml version="1.0" standalone="no"?>
<!DOCTYPE svg PUBLIC "-//W3C//DTD SVG 20010904//EN"
 "http://www.w3.org/TR/2001/REC-SVG-20010904/DTD/svg10.dtd">
<svg version="1.0" xmlns="http://www.w3.org/2000/svg"
 width="879.000000pt" height="147.000000pt" viewBox="0 0 879.000000 147.000000"
 preserveAspectRatio="xMidYMid meet">
<metadata>
Created by potrace 1.16, written by Peter Selinger 2001-2019
</metadata>
<g transform="translate(0.000000,147.000000) scale(0.100000,-0.100000)"
fill="#000000" stroke="none">
<path d="M2795 1460 c-3 -5 -20 -10 -36 -10 -36 0 -163 -62 -202 -99 -83 -77
-100 -200 -47 -351 35 -99 36 -108 11 -163 -20 -44 -105 -150 -137 -171 -25
-17 -145 -56 -171 -56 -11 0 -36 -6 -54 -14 -43 -18 -127 -21 -456 -18 l-262
2 -11 20 c-9 16 -5 33 20 86 47 103 36 188 -34 253 -14 14 -26 33 -26 44 0 25
-82 107 -107 107 -11 0 -30 12 -44 26 -34 37 -119 78 -245 117 -125 40 -180
55 -246 67 -26 5 -56 13 -67 19 -12 7 -90 11 -196 11 l-176 0 -61 -21 c-33
-11 -77 -31 -97 -45 -19 -13 -44 -24 -54 -24 -25 0 -77 -53 -77 -79 0 -11 -4
-23 -10 -26 -13 -8 -13 -132 0 -140 5 -3 10 -15 10 -27 0 -47 208 -228 263
-228 7 0 26 -14 42 -30 16 -16 36 -30 44 -30 9 0 36 -14 61 -30 25 -16 58 -30
73 -30 15 0 44 -7 64 -15 19 -8 45 -15 56 -15 11 0 82 -20 156 -44 169 -55
211 -66 286 -75 34 -5 70 -13 82 -19 13 -7 73 -12 153 -12 93 0 141 -4 167
-15 50 -21 316 -21 366 0 47 20 97 19 148 -2 l41 -16 47 16 c25 10 69 17 97
17 28 0 68 7 87 15 20 8 48 15 62 15 14 0 74 24 134 54 110 56 114 59 211 185
l50 64 0 120 0 119 -31 90 -32 91 57 53 c41 38 67 55 94 59 20 3 57 12 82 20
36 12 110 15 363 15 l318 0 36 -15 c19 -8 61 -15 92 -15 l57 0 29 -30 29 -30
43 0 c24 0 60 -7 80 -15 19 -8 60 -15 90 -15 29 0 70 -7 90 -15 20 -9 66 -15
107 -15 l71 0 63 -30 c35 -17 76 -30 90 -30 15 0 56 -14 90 -30 35 -17 80 -30
100 -30 41 0 226 -60 245 -79 9 -10 8 -16 -8 -27 -11 -8 -31 -18 -45 -21 -35
-8 -48 -21 -71 -64 -29 -59 -25 -96 22 -164 53 -78 66 -93 111 -121 21 -13 49
-42 63 -64 17 -26 43 -49 78 -66 28 -14 72 -43 97 -64 45 -37 178 -110 201
-110 7 0 33 -13 58 -29 25 -16 61 -32 79 -36 17 -4 54 -22 80 -40 69 -47 187
-105 215 -105 13 0 61 -13 107 -30 47 -16 104 -30 127 -30 23 0 45 -5 48 -10
8 -12 388 -14 413 -1 9 5 50 24 91 42 l74 34 44 59 43 58 0 52 c0 38 -6 61
-25 88 -14 21 -31 54 -38 75 -9 27 -26 47 -62 71 -28 19 -63 52 -79 74 -26 36
-89 78 -119 78 -8 0 -40 19 -71 41 -43 31 -54 44 -45 50 8 5 146 9 307 9 l293
0 36 -15 c26 -11 75 -15 192 -15 l157 0 84 -30 85 -30 98 0 c64 0 110 -5 134
-15 26 -11 74 -15 180 -15 105 0 153 -4 180 -15 l35 -15 374 0 374 0 0 53 0
54 -42 13 c-24 7 -115 16 -203 21 -88 4 -185 12 -215 18 -30 5 -113 10 -183
10 -89 1 -138 5 -164 16 l-35 15 -265 0 -264 0 -36 15 c-19 8 -60 15 -90 15
-29 0 -70 7 -90 15 -26 11 -76 15 -195 15 -118 0 -168 4 -195 15 -27 12 -81
15 -240 15 -158 0 -212 3 -240 15 -26 11 -74 15 -180 15 -105 0 -153 4 -180
15 -26 11 -76 15 -195 15 -118 0 -168 4 -195 15 -24 10 -71 15 -151 15 l-115
0 -66 29 c-125 54 -176 74 -317 121 -78 27 -160 58 -182 69 -23 12 -52 21 -65
21 -12 0 -61 13 -107 30 -47 16 -101 30 -120 30 -19 0 -75 13 -125 29 -122 39
-170 51 -240 60 -34 5 -70 13 -82 19 -12 7 -59 12 -105 12 l-84 0 -84 30 c-47
16 -104 30 -127 30 -23 0 -45 5 -48 10 -4 6 -143 10 -385 10 -242 0 -381 -4
-385 -10z m-2108 -285 c19 -8 45 -15 57 -15 25 0 118 -30 196 -64 30 -13 75
-31 101 -40 72 -26 269 -214 269 -258 0 -15 -41 -101 -62 -130 l-19 -28 -115
0 c-79 0 -126 5 -151 15 -19 8 -44 15 -55 15 -27 0 -426 133 -480 161 -24 11
-63 38 -88 58 -25 20 -61 47 -82 61 -64 43 -85 102 -52 149 9 13 48 38 87 57
l71 34 144 0 c104 0 152 -4 179 -15z m4702 -400 c76 -37 126 -70 159 -102 27
-27 68 -60 93 -75 84 -53 190 -145 222 -194 l32 -49 45 0 44 0 23 34 c29 43
29 66 -2 133 -26 55 -33 118 -14 118 60 0 234 -80 301 -138 25 -21 60 -44 79
-51 56 -21 63 -26 71 -59 5 -18 25 -45 48 -63 63 -51 50 -112 -34 -150 l-41
-19 -188 0 c-145 0 -196 3 -224 15 -19 8 -55 15 -78 15 -33 0 -77 17 -195 75
-84 42 -166 86 -184 99 -39 30 -231 126 -250 126 -8 0 -24 13 -36 30 -12 16
-46 46 -76 66 -60 40 -113 98 -144 156 -26 50 -25 54 8 72 19 11 58 15 128 16
l101 0 112 -55z"/>
</g>
</svg>
