<?xml version="1.0" standalone="no"?>
<!DOCTYPE svg PUBLIC "-//W3C//DTD SVG 20010904//EN"
 "http://www.w3.org/TR/2001/REC-SVG-20010904/DTD/svg10.dtd">
<svg version="1.0" xmlns="http://www.w3.org/2000/svg"
 width="909.000000pt" height="117.000000pt" viewBox="0 0 909.000000 117.000000"
 preserveAspectRatio="xMidYMid meet">
<metadata>
Created by potrace 1.16, written by Peter Selinger 2001-2019
</metadata>
<g transform="translate(0.000000,117.000000) scale(0.100000,-0.100000)"
fill="#000000" stroke="none">
<path d="M51 1111 l-51 -59 0 -95 0 -96 23 -36 c121 -195 139 -215 257 -293
47 -31 105 -75 130 -97 25 -23 65 -53 90 -67 25 -14 56 -38 69 -52 14 -14 31
-26 39 -26 7 0 43 -13 79 -30 35 -16 70 -30 76 -30 7 0 54 -20 105 -45 52 -25
105 -45 118 -45 14 0 41 -7 61 -15 23 -10 69 -15 135 -15 65 0 111 -5 135 -15
47 -20 412 -22 446 -2 14 8 90 14 217 18 108 3 215 12 240 19 142 40 187 56
243 90 34 20 74 40 88 43 15 4 54 36 88 73 l62 66 32 -13 c18 -7 58 -25 89
-41 32 -15 69 -28 84 -28 14 0 55 -13 91 -30 51 -24 78 -30 132 -30 49 0 90
-8 151 -30 47 -16 94 -30 105 -30 10 0 60 -13 110 -29 156 -50 176 -54 345
-60 103 -4 173 -11 187 -18 12 -7 47 -13 78 -13 30 0 72 -7 92 -15 22 -9 67
-15 120 -15 52 0 97 -6 120 -15 28 -12 81 -15 244 -15 128 0 210 -4 214 -10 8
-14 732 -14 740 0 4 6 61 10 139 10 96 0 144 4 169 15 20 8 53 15 74 15 21 0
76 14 123 30 54 19 104 30 139 30 l55 0 81 54 c45 30 109 64 141 75 70 25 169
27 221 6 19 -8 53 -15 75 -15 21 0 55 -7 75 -15 23 -10 69 -15 135 -15 65 0
111 -5 135 -15 23 -10 69 -15 134 -15 54 0 110 -5 126 -12 15 -6 90 -13 165
-14 95 -2 148 -8 173 -19 29 -12 78 -15 226 -15 104 0 200 -5 215 -10 19 -7
37 -7 59 0 26 8 41 7 72 -5 l40 -16 254 5 c253 5 306 8 387 21 l42 8 0 53 0
53 -37 25 -37 26 -42 -25 -43 -25 -261 0 -261 0 -37 16 c-26 11 -53 14 -92 10
l-55 -6 -30 20 -30 20 -313 0 -313 0 -36 15 c-24 10 -71 15 -150 15 -78 0
-125 5 -150 15 -20 8 -66 15 -105 15 -38 0 -84 7 -105 15 -20 9 -66 15 -107
15 l-71 0 -45 30 c-25 16 -52 30 -61 30 -26 0 -39 22 -39 70 l0 45 -41 60
c-22 33 -48 68 -57 78 -36 40 -195 137 -224 137 -7 0 -42 14 -76 30 l-64 30
-121 0 -122 0 -50 -28 c-37 -20 -57 -40 -77 -77 -41 -74 -38 -126 12 -224 38
-78 69 -111 100 -111 8 0 35 -14 60 -30 25 -16 51 -30 58 -30 8 0 43 -14 79
-30 35 -17 75 -30 87 -30 13 0 29 -7 36 -16 l13 -15 -14 -14 c-25 -25 -220
-85 -275 -85 -28 0 -68 -7 -87 -15 -20 -8 -54 -15 -75 -15 -22 0 -56 -7 -76
-15 l-37 -16 -442 5 c-243 2 -462 6 -487 9 -25 3 -90 10 -145 14 -55 5 -110
14 -122 21 -14 8 -70 12 -153 12 -93 0 -141 4 -167 15 -22 9 -67 15 -120 15
-52 0 -97 6 -120 15 -19 8 -53 15 -75 15 -21 0 -55 7 -75 15 -23 10 -69 15
-132 15 l-97 0 -84 30 c-47 16 -94 30 -104 30 -11 0 -80 20 -153 45 -73 25
-147 45 -165 45 -19 0 -61 9 -93 20 -80 28 -278 125 -328 161 -56 40 -81 38
-133 -15 l-44 -43 0 -50 c0 -58 -31 -109 -96 -159 -67 -52 -104 -64 -199 -64
-51 0 -95 -5 -108 -12 -20 -12 -290 -28 -452 -29 -27 0 -64 -4 -82 -10 -26 -8
-40 -7 -68 7 -51 24 -58 43 -38 98 l17 46 -33 67 c-18 38 -45 88 -61 113 -15
25 -30 57 -34 71 -3 15 -24 42 -47 60 -22 19 -64 57 -92 85 -29 28 -72 63 -97
79 -25 16 -65 45 -89 64 -88 70 -156 111 -184 111 -15 0 -57 17 -92 39 -35 21
-97 49 -137 61 -40 13 -77 27 -82 32 -6 4 -99 8 -207 8 l-197 0 -51 -59z m366
-86 c19 -8 53 -15 75 -15 43 0 139 -43 238 -106 30 -19 72 -39 92 -45 23 -6
67 -36 112 -77 42 -37 99 -85 127 -107 101 -77 207 -276 183 -342 -5 -15 -21
-34 -34 -41 l-26 -15 -56 26 c-32 15 -74 42 -95 60 -21 19 -56 43 -78 55 -48
24 -65 43 -95 102 -12 24 -37 65 -54 92 -17 26 -40 62 -51 80 -13 21 -30 34
-46 36 -32 4 -79 -33 -79 -61 0 -25 21 -95 45 -151 9 -21 14 -45 11 -53 -9
-22 -76 -6 -111 27 -16 15 -49 37 -72 49 -23 11 -50 33 -60 48 -10 15 -65 74
-122 132 -131 134 -161 174 -161 218 0 50 16 73 49 73 16 0 44 7 62 15 44 19
101 19 146 0z m5885 -359 c148 -98 186 -144 158 -196 l-10 -18 -102 5 -103 5
-92 45 c-93 45 -125 74 -138 126 -5 20 -1 32 19 51 l25 26 88 0 88 0 67 -44z"/>
</g>
</svg>
