<?xml version="1.0" standalone="no"?>
<!DOCTYPE svg PUBLIC "-//W3C//DTD SVG 20010904//EN"
 "http://www.w3.org/TR/2001/REC-SVG-20010904/DTD/svg10.dtd">
<svg version="1.0" xmlns="http://www.w3.org/2000/svg"
 width="825.000000pt" height="114.000000pt" viewBox="0 0 825.000000 114.000000"
 preserveAspectRatio="xMidYMid meet">
<metadata>
Created by potrace 1.16, written by Peter Selinger 2001-2019
</metadata>
<g transform="translate(0.000000,114.000000) scale(0.100000,-0.100000)"
fill="#000000" stroke="none">
<path d="M186 1131 c-3 -4 -18 -11 -34 -14 -34 -7 -132 -107 -132 -136 0 -11
-4 -23 -10 -26 -5 -3 -10 -28 -10 -55 l0 -49 68 -71 67 -70 33 0 c18 0 49 -7
69 -15 19 -8 59 -15 87 -15 49 0 164 -33 224 -64 63 -33 153 -56 217 -56 36 0
82 -7 102 -15 23 -10 69 -15 135 -15 65 0 111 -5 135 -15 19 -8 53 -15 75 -15
21 0 55 -7 75 -15 19 -8 60 -15 90 -15 29 0 70 -7 90 -15 20 -8 66 -15 105
-15 38 0 84 -7 105 -15 24 -10 71 -15 150 -15 78 0 125 -5 150 -15 19 -8 51
-15 71 -15 39 0 152 -35 193 -59 14 -9 50 -31 80 -49 30 -18 65 -35 79 -37 14
-3 43 -10 65 -16 22 -6 58 -14 80 -18 22 -4 76 -19 120 -33 124 -40 164 -49
245 -57 41 -4 85 -13 97 -19 14 -8 71 -12 153 -12 93 0 141 -4 167 -15 19 -8
53 -15 75 -15 21 0 55 -7 75 -15 l35 -15 284 0 c178 0 285 -4 289 -10 8 -14
492 -14 500 0 3 6 26 10 49 10 24 0 60 7 79 15 21 8 67 15 105 15 39 0 85 7
105 15 20 8 61 15 90 15 30 0 71 7 90 15 20 8 55 15 77 15 43 0 122 35 220 97
30 19 85 52 122 74 l67 39 111 0 112 0 65 -30 64 -30 100 0 c66 0 112 -5 136
-15 l35 -15 730 0 729 0 36 -15 c26 -11 74 -15 180 -15 105 0 153 -4 180 -15
19 -8 57 -15 82 -15 l47 0 27 28 c20 21 27 38 27 68 l0 39 -49 18 -49 17 -200
0 c-137 0 -210 4 -229 12 -17 8 -111 16 -243 20 -253 9 -235 9 -471 2 l-187
-5 -37 15 -37 16 -235 0 c-185 0 -241 3 -270 15 -26 11 -74 15 -180 15 -105 0
-153 4 -180 15 -19 8 -53 15 -75 15 -44 0 -115 29 -140 57 -8 10 -27 41 -41
68 -28 56 -116 145 -144 145 -10 0 -35 11 -55 25 -33 22 -79 39 -208 76 -25 6
-100 14 -166 16 l-121 4 -64 -21 c-75 -26 -90 -37 -114 -91 l-19 -40 13 -52
c14 -56 35 -87 58 -87 8 0 44 -14 80 -30 35 -17 69 -30 75 -30 5 0 39 -14 75
-30 35 -17 74 -30 86 -30 12 0 60 -13 107 -29 63 -21 85 -33 85 -45 0 -30
-140 -95 -250 -117 -52 -10 -119 -27 -175 -45 -25 -8 -55 -14 -66 -14 -12 0
-38 -7 -57 -15 -25 -10 -72 -15 -150 -15 -79 0 -126 -5 -150 -15 -46 -19 -301
-21 -344 -3 -15 7 -100 16 -188 19 -207 9 -409 27 -460 41 -22 5 -87 13 -145
17 -58 4 -115 12 -127 19 -12 7 -54 12 -93 12 -40 0 -86 6 -107 15 -22 9 -67
15 -120 15 -52 0 -97 6 -120 15 -19 8 -45 15 -57 15 -50 0 -243 81 -253 106
-2 7 7 30 21 51 l26 38 0 63 c0 35 -5 72 -10 82 -6 11 -35 35 -65 55 -30 20
-71 59 -91 86 -33 45 -95 89 -124 89 -7 0 -41 14 -77 30 -36 17 -81 30 -103
30 -21 0 -51 5 -65 10 -19 7 -40 6 -78 -5 -86 -25 -129 -55 -159 -110 -36 -66
-36 -106 3 -166 l30 -48 -11 -20 c-13 -26 -73 -28 -127 -6 -20 8 -66 15 -105
15 -38 0 -84 7 -105 15 -19 8 -60 15 -90 15 -29 0 -70 7 -90 15 -19 8 -53 15
-75 15 -21 0 -55 7 -75 15 -20 9 -66 15 -107 15 -52 0 -79 5 -102 19 l-31 19
4 53 5 54 -59 74 -59 73 -75 24 c-41 14 -111 42 -156 64 -46 22 -89 40 -97 40
-8 0 -18 5 -21 10 -8 12 -192 13 -199 1z m201 -166 c19 -8 48 -15 64 -15 15 0
31 -5 34 -10 3 -6 37 -35 76 -66 38 -30 69 -59 69 -63 0 -5 -9 -19 -19 -32
l-20 -24 -33 19 c-118 68 -135 76 -176 76 -49 0 -111 25 -120 48 -5 15 58 82
78 82 6 0 27 -7 47 -15z m1698 -215 c104 -36 148 -63 185 -112 35 -47 16 -58
-97 -58 -135 0 -192 28 -228 113 -32 77 20 98 140 57z m3150 -91 c101 -35 122
-50 113 -76 -2 -4 -37 -6 -78 -4 l-75 2 -63 32 c-35 17 -66 35 -68 39 -21 34
84 38 171 7z"/>
</g>
</svg>
