<?xml version="1.0" standalone="no"?>
<!DOCTYPE svg PUBLIC "-//W3C//DTD SVG 20010904//EN"
 "http://www.w3.org/TR/2001/REC-SVG-20010904/DTD/svg10.dtd">
<svg version="1.0" xmlns="http://www.w3.org/2000/svg"
 width="783.000000pt" height="117.000000pt" viewBox="0 0 783.000000 117.000000"
 preserveAspectRatio="xMidYMid meet">
<metadata>
Created by potrace 1.16, written by Peter Selinger 2001-2019
</metadata>
<g transform="translate(0.000000,117.000000) scale(0.100000,-0.100000)"
fill="#000000" stroke="none">
<path d="M2407 1163 c-12 -11 -111 -43 -136 -43 -13 0 -45 -13 -70 -29 -25
-16 -58 -31 -72 -35 -15 -3 -43 -24 -63 -46 l-36 -40 0 -56 0 -55 28 -25 c84
-77 146 -116 230 -143 48 -15 147 -58 219 -95 73 -36 145 -66 160 -66 16 0 57
-14 91 -30 35 -17 69 -30 75 -30 7 0 41 -14 75 -30 37 -18 80 -30 103 -30 22
0 56 -7 76 -15 19 -8 53 -15 75 -15 21 0 55 -7 75 -15 19 -8 53 -15 75 -15 21
0 55 -7 75 -15 19 -8 46 -15 60 -15 26 0 83 -26 83 -38 0 -19 -27 -32 -68 -32
-24 0 -53 -5 -65 -12 -12 -6 -56 -15 -97 -19 -74 -7 -123 -17 -210 -45 -66
-21 -486 -20 -537 1 -22 9 -67 15 -120 15 -52 0 -97 6 -120 15 -22 9 -67 15
-120 15 -52 0 -97 6 -120 15 -19 8 -60 15 -90 15 -29 0 -70 7 -90 15 -20 8
-66 15 -105 15 -71 0 -130 19 -190 62 l-28 19 0 77 0 77 -27 40 c-16 22 -41
64 -58 95 l-30 55 -56 30 c-30 17 -68 40 -85 51 -93 68 -196 84 -274 44 -46
-23 -120 -121 -120 -159 0 -14 -4 -32 -9 -40 l-9 -14 -34 13 c-18 8 -46 24
-63 36 -16 12 -66 41 -110 64 -44 23 -104 56 -133 75 -29 18 -91 45 -139 60
-93 30 -113 39 -158 72 -27 19 -230 93 -255 93 -6 0 -10 -17 -10 -37 l0 -38
48 -41 c49 -43 121 -84 145 -84 7 0 24 -12 38 -26 27 -29 197 -118 246 -128
17 -4 51 -24 75 -45 24 -21 68 -51 98 -66 30 -15 98 -56 150 -90 52 -35 109
-66 127 -70 17 -3 51 -23 75 -44 52 -46 157 -101 193 -101 14 0 42 -7 62 -15
19 -8 58 -15 86 -15 32 0 99 -16 186 -44 182 -59 213 -67 301 -75 41 -4 85
-13 97 -19 13 -7 64 -12 122 -12 56 0 112 -5 128 -12 15 -7 95 -15 178 -18
l150 -5 32 -22 31 -23 135 0 c80 0 138 4 142 10 4 6 61 10 139 10 96 0 144 4
169 15 20 8 54 15 75 15 22 0 56 7 75 15 20 8 67 15 104 15 83 1 264 59 353
114 l58 36 259 0 c195 0 269 -3 303 -14 97 -31 151 -38 320 -43 96 -2 189 -10
205 -16 17 -6 125 -14 240 -18 116 -4 244 -12 285 -18 41 -5 218 -10 393 -10
l318 -1 36 -15 35 -15 809 0 809 0 0 55 0 55 -250 0 c-200 0 -258 3 -287 15
l-35 15 -520 0 -519 0 -36 15 c-28 12 -82 15 -255 15 -172 0 -226 3 -255 15
l-35 15 -460 0 -459 0 -36 15 c-25 10 -71 15 -152 15 l-117 0 -29 30 -29 30
-138 0 -139 0 -24 25 c-30 29 -33 86 -10 142 22 52 19 161 -6 236 -15 46 -34
76 -72 115 -54 55 -173 142 -196 142 -7 0 -37 12 -68 26 -53 24 -116 45 -223
74 -25 7 -74 15 -110 17 -36 3 -69 9 -75 14 -10 10 -878 13 -888 2z m710 -138
c22 -9 67 -15 120 -15 52 0 97 -6 120 -15 19 -8 53 -15 75 -15 23 0 67 -13
105 -30 35 -16 69 -30 74 -30 6 0 44 -20 85 -45 40 -25 78 -45 82 -45 34 0 82
-127 82 -215 0 -54 -21 -137 -43 -172 -12 -19 -197 -17 -244 2 -19 8 -60 15
-90 15 -29 0 -70 7 -90 15 -19 8 -45 15 -57 15 -12 0 -60 13 -106 30 -47 16
-102 30 -123 30 -21 0 -54 7 -74 15 -19 8 -52 15 -72 15 -45 0 -157 38 -250
84 -39 20 -76 36 -82 36 -6 0 -40 14 -76 30 -35 17 -70 30 -76 30 -40 0 -219
109 -240 146 -13 23 34 57 114 81 111 33 185 41 269 28 31 -5 56 -2 80 9 50
22 365 23 417 1z m-1881 -381 c40 -19 64 -39 94 -81 40 -56 48 -85 31 -112
l-9 -14 -33 13 c-34 14 -121 70 -150 96 -9 8 -22 32 -29 54 l-13 39 13 16 c17
21 33 19 96 -11z"/>
</g>
</svg>
