<?xml version="1.0" standalone="no"?>
<!DOCTYPE svg PUBLIC "-//W3C//DTD SVG 20010904//EN"
 "http://www.w3.org/TR/2001/REC-SVG-20010904/DTD/svg10.dtd">
<svg version="1.0" xmlns="http://www.w3.org/2000/svg"
 width="657.000000pt" height="126.000000pt" viewBox="0 0 657.000000 126.000000"
 preserveAspectRatio="xMidYMid meet">
<metadata>
Created by potrace 1.16, written by Peter Selinger 2001-2019
</metadata>
<g transform="translate(0.000000,126.000000) scale(0.100000,-0.100000)"
fill="#000000" stroke="none">
<path d="M1865 1250 c-3 -5 -15 -10 -26 -10 -11 0 -34 -13 -50 -29 l-29 -29 0
-61 c0 -41 -5 -64 -16 -75 -19 -19 -17 -19 -61 -1 -20 8 -66 15 -105 15 -38 0
-84 7 -105 15 -27 11 -77 15 -210 15 -132 0 -182 4 -210 15 -23 10 -69 15
-135 15 -65 0 -111 5 -135 15 -23 10 -69 15 -135 15 -65 0 -111 5 -135 15 -20
8 -66 15 -105 15 -38 0 -84 7 -105 15 -23 10 -68 15 -127 15 l-92 0 -42 -31
-42 -31 0 -57 0 -57 48 -52 c31 -35 72 -64 122 -88 41 -21 89 -47 105 -59 47
-36 97 -58 139 -64 21 -3 42 -13 46 -21 4 -8 21 -44 36 -80 50 -112 103 -181
258 -338 116 -117 160 -155 188 -162 20 -6 61 -32 90 -59 69 -63 126 -91 182
-91 25 0 48 -4 51 -10 3 -5 26 -10 51 -10 l45 0 8 23 c5 12 6 28 4 34 -7 18
-113 88 -204 135 -49 25 -90 54 -106 75 -15 19 -48 45 -74 59 -26 13 -56 35
-66 50 -10 14 -42 53 -72 87 -30 34 -67 91 -83 126 l-30 65 11 37 c6 20 11 63
11 96 0 84 -12 93 -124 93 l-88 0 -65 30 c-35 17 -77 30 -93 30 -39 0 -102 55
-98 84 l3 21 150 -4 c98 -2 162 -8 184 -17 22 -9 73 -14 148 -14 78 0 125 -5
150 -15 22 -9 67 -15 120 -15 52 0 97 -6 120 -15 20 -8 66 -15 105 -15 38 0
84 -7 105 -15 26 -11 74 -15 180 -15 105 0 153 -4 180 -15 19 -8 54 -15 77
-15 23 0 59 -10 82 -23 83 -45 147 -83 193 -113 26 -17 66 -41 90 -54 24 -12
62 -35 84 -51 24 -17 53 -29 71 -29 17 0 82 -25 146 -56 116 -56 215 -94 246
-94 10 0 98 -27 196 -60 l178 -60 182 0 183 0 59 17 59 18 44 59 43 58 0 52
c0 38 -6 61 -25 88 -14 21 -31 54 -38 75 -9 27 -26 47 -63 72 -28 19 -66 57
-85 85 -27 39 -45 54 -79 66 -31 11 -52 27 -75 60 -18 25 -54 58 -83 75 -28
17 -52 32 -52 35 0 3 28 4 63 3 288 -12 385 -20 404 -31 16 -9 101 -12 318
-12 l296 0 36 -15 c20 -8 66 -15 105 -15 38 0 84 -7 105 -15 22 -9 67 -15 120
-15 52 0 97 -6 120 -15 23 -10 69 -15 135 -15 65 0 111 -5 135 -15 19 -8 60
-15 90 -15 29 0 70 -7 90 -15 l35 -15 265 0 264 0 36 -15 c25 -11 72 -15 165
-15 92 0 139 -4 165 -15 54 -23 338 -21 404 2 39 14 49 22 49 40 0 38 -46 53
-160 53 -67 0 -113 5 -137 15 -26 11 -76 15 -195 15 -118 0 -168 4 -195 15
-24 10 -71 15 -150 15 -78 0 -125 5 -150 15 -22 9 -67 15 -120 15 -52 0 -97 6
-120 15 -27 12 -79 15 -225 15 -145 0 -197 3 -225 15 -22 9 -67 15 -120 15
-52 0 -97 6 -120 15 -24 10 -71 15 -150 15 -78 0 -125 5 -150 15 -24 10 -71
15 -150 15 -78 0 -125 5 -150 15 -23 10 -69 15 -135 15 -65 0 -111 5 -135 15
l-35 15 -314 0 c-198 0 -315 4 -319 10 -4 6 -223 10 -625 10 -402 0 -621 -4
-625 -10z m725 -110 c13 -28 40 -80 57 -109 14 -23 15 -36 7 -58 l-9 -28 -102
-3 c-74 -2 -112 1 -139 13 -25 10 -71 15 -153 15 -89 1 -124 5 -151 18 -54 27
-84 49 -109 82 -18 25 -20 34 -11 46 7 8 23 14 35 14 13 0 38 7 56 15 l34 14
239 -2 239 -2 7 -15z m464 -158 c67 -32 133 -62 148 -65 15 -4 60 -37 101 -75
41 -37 86 -75 101 -85 14 -10 30 -34 36 -56 6 -23 25 -51 50 -74 22 -19 40
-41 40 -47 0 -7 -17 -30 -39 -51 l-39 -39 -188 0 -189 0 -117 40 c-65 21 -130
46 -146 54 -41 21 -148 56 -172 56 -12 0 -51 18 -88 41 -37 22 -79 43 -94 46
-15 3 -38 18 -52 34 -15 16 -32 29 -39 29 -6 0 -19 5 -27 10 l-15 10 15 10
c23 15 106 12 147 -5 20 -8 66 -15 105 -15 38 0 84 -7 105 -15 47 -20 145 -19
186 1 53 27 67 44 67 83 l0 35 -45 42 c-49 45 -53 55 -29 78 25 26 50 19 178
-42z"/>
</g>
</svg>
