<?xml version="1.0" standalone="no"?>
<!DOCTYPE svg PUBLIC "-//W3C//DTD SVG 20010904//EN"
 "http://www.w3.org/TR/2001/REC-SVG-20010904/DTD/svg10.dtd">
<svg version="1.0" xmlns="http://www.w3.org/2000/svg"
 width="987.000000pt" height="117.000000pt" viewBox="0 0 987.000000 117.000000"
 preserveAspectRatio="xMidYMid meet">
<metadata>
Created by potrace 1.16, written by Peter Selinger 2001-2019
</metadata>
<g transform="translate(0.000000,117.000000) scale(0.100000,-0.100000)"
fill="#000000" stroke="none">
<path d="M0 1121 l0 -49 33 -24 c43 -33 104 -64 145 -73 17 -3 54 -22 81 -40
58 -40 155 -75 207 -75 24 0 55 -12 94 -36 69 -43 270 -113 323 -114 21 0 62
-11 92 -25 108 -49 354 -125 406 -125 27 0 66 -7 86 -15 19 -8 54 -15 77 -15
25 0 66 -12 104 -30 35 -17 74 -30 86 -30 12 0 60 -13 106 -30 68 -24 102 -30
168 -30 50 0 97 -6 119 -15 22 -9 67 -15 120 -15 52 0 97 -6 120 -15 20 -8 66
-15 105 -15 38 0 84 -7 105 -15 l35 -15 345 0 c226 0 351 4 364 11 11 6 41 14
67 19 57 11 122 27 182 46 25 8 66 14 92 14 26 0 77 10 114 22 l66 21 46 54
47 53 67 0 c80 0 105 -9 155 -53 38 -34 151 -97 175 -97 14 0 71 -30 142 -73
59 -37 171 -77 216 -77 19 0 75 -13 125 -29 152 -49 176 -54 287 -58 l106 -4
91 31 91 32 117 -57 c130 -63 232 -97 373 -125 50 -10 116 -33 126 -43 12 -11
462 -8 469 3 3 6 19 10 35 10 16 0 53 11 82 25 29 13 89 36 132 50 l80 26 67
64 c37 35 76 66 87 70 12 3 37 -1 57 -10 26 -10 71 -15 152 -15 78 0 125 -5
150 -15 19 -8 53 -15 75 -15 21 0 55 -7 75 -15 23 -10 69 -15 135 -15 65 0
111 -5 135 -15 25 -11 72 -15 164 -15 80 0 138 -5 156 -12 19 -9 125 -15 333
-20 168 -4 332 -10 365 -13 58 -5 363 -23 475 -28 30 -1 71 -6 90 -10 24 -6
46 -3 72 7 50 21 215 22 265 1 47 -20 104 -19 164 2 l49 18 0 35 0 35 -49 18
-49 17 -291 0 -292 0 -36 15 c-28 12 -82 15 -255 15 -172 0 -226 3 -255 15
-27 11 -77 15 -210 15 -132 0 -182 4 -210 15 -28 12 -82 15 -255 15 -172 0
-226 3 -255 15 -22 9 -67 15 -120 15 -52 0 -97 6 -120 15 -22 9 -67 15 -120
15 -52 0 -97 6 -120 15 -19 8 -52 15 -72 15 -45 0 -144 34 -152 52 -4 7 -16
34 -27 59 -11 26 -45 77 -74 114 l-53 67 -97 49 c-68 34 -110 49 -138 49 -22
0 -58 7 -80 16 l-40 16 -68 -21 c-37 -12 -94 -36 -127 -54 l-60 -32 -39 -76
c-43 -82 -43 -101 -4 -158 18 -26 38 -38 95 -57 40 -13 90 -34 110 -49 26 -17
51 -25 81 -25 23 0 59 -7 79 -15 19 -8 46 -15 58 -15 12 0 28 -7 35 -15 23
-28 -12 -52 -135 -94 l-59 -21 -210 0 -209 0 -196 65 c-233 78 -289 103 -357
159 -36 29 -69 47 -108 56 l-57 13 -34 -16 c-21 -10 -47 -37 -69 -72 l-36 -55
-52 0 c-29 0 -73 6 -98 14 -58 18 -123 35 -180 46 -25 5 -69 20 -97 34 -29 14
-63 26 -76 26 -45 0 -170 49 -222 86 -16 12 -78 47 -137 77 -85 42 -121 68
-173 121 -39 39 -65 75 -65 87 0 12 -20 41 -44 65 l-43 44 -37 0 c-38 0 -87
-20 -119 -48 -13 -12 -17 -31 -17 -91 l0 -76 -25 -37 c-30 -44 -82 -78 -121
-78 -16 0 -49 -14 -74 -30 -25 -16 -57 -30 -71 -30 -15 0 -43 -7 -62 -15 -20
-8 -54 -15 -75 -15 -22 0 -56 -7 -75 -15 l-36 -15 -291 0 -291 0 -36 15 c-23
10 -69 15 -135 15 -65 0 -111 5 -135 15 -19 8 -65 15 -102 15 -36 0 -86 6
-111 14 -101 32 -140 39 -250 45 l-115 6 -122 43 c-68 23 -140 42 -160 42 -21
0 -66 13 -101 30 -45 21 -79 30 -115 30 -51 0 -212 48 -303 90 -71 33 -162 60
-200 60 -19 0 -65 14 -101 30 -35 17 -70 30 -76 30 -7 0 -37 12 -67 26 -82 38
-165 64 -205 64 -25 0 -59 14 -111 45 -40 25 -77 45 -82 45 -4 0 -24 11 -44
25 -27 19 -50 25 -87 25 l-51 0 0 -49z m6635 -536 c65 -31 135 -91 135 -115 0
-16 -31 -40 -51 -40 -11 0 -36 7 -56 15 -19 8 -45 15 -57 15 -52 0 -206 65
-206 87 0 7 19 26 42 43 56 41 101 40 193 -5z"/>
</g>
</svg>
