<?xml version="1.0" standalone="no"?>
<!DOCTYPE svg PUBLIC "-//W3C//DTD SVG 20010904//EN"
 "http://www.w3.org/TR/2001/REC-SVG-20010904/DTD/svg10.dtd">
<svg version="1.0" xmlns="http://www.w3.org/2000/svg"
 width="381.000000pt" height="270.000000pt" viewBox="0 0 381.000000 270.000000"
 preserveAspectRatio="xMidYMid meet">
<metadata>
Created by potrace 1.16, written by Peter Selinger 2001-2019
</metadata>
<g transform="translate(0.000000,270.000000) scale(0.100000,-0.100000)"
fill="#000000" stroke="none">
<path d="M227 2672 l-27 -28 0 -50 c0 -59 20 -84 66 -84 16 0 43 -9 59 -21 43
-29 182 -99 197 -99 18 0 145 -84 187 -123 18 -18 46 -50 62 -71 l29 -39 0
-69 c0 -38 -7 -84 -15 -105 -11 -26 -15 -74 -15 -182 l0 -146 30 -85 c17 -46
30 -95 30 -107 0 -36 38 -102 91 -161 27 -30 52 -66 55 -80 12 -49 46 -106 96
-161 27 -30 60 -75 73 -101 13 -25 39 -58 58 -73 31 -24 77 -93 77 -117 0 -6
-30 -10 -67 -10 -52 0 -81 6 -122 26 -30 13 -122 47 -203 74 l-149 50 -82 0
-82 0 -63 30 c-35 17 -74 30 -85 30 -28 0 -153 42 -206 69 -32 17 -59 21 -131
21 l-90 0 0 -39 0 -39 34 -25 c50 -38 145 -67 222 -67 l67 0 85 -41 c125 -58
283 -109 342 -109 28 0 67 -7 87 -15 19 -8 47 -15 62 -15 14 0 51 -12 81 -26
101 -47 258 -94 313 -94 l53 0 83 -55 c45 -31 104 -66 131 -80 26 -13 82 -56
124 -95 42 -38 80 -70 85 -70 4 0 45 -34 90 -75 44 -41 88 -75 97 -75 8 0 49
-20 90 -45 40 -25 77 -45 82 -45 4 0 24 -11 44 -25 l37 -25 209 0 209 0 13 39
c7 21 9 47 6 58 -3 11 -51 63 -105 116 l-98 97 -32 0 c-20 0 -58 16 -99 40
-37 23 -78 43 -92 47 -14 3 -46 18 -71 34 -25 16 -57 29 -70 29 -75 0 -372
141 -430 203 -81 88 -210 240 -226 265 -9 15 -36 47 -58 72 -23 25 -50 59 -60
75 -11 17 -47 60 -82 97 -34 38 -65 80 -69 95 -3 16 -22 53 -41 83 -19 30 -52
85 -74 122 l-39 67 0 54 c0 30 -7 71 -15 90 -10 25 -15 71 -15 147 0 76 5 122
15 147 10 22 15 68 15 125 l0 89 -24 47 c-62 119 -119 175 -218 215 -10 4 -10
8 2 16 24 17 303 14 347 -4 25 -11 72 -15 165 -15 92 0 139 -4 165 -15 22 -9
67 -15 120 -15 52 0 97 -6 120 -15 l35 -15 280 0 279 0 36 -15 c24 -10 71 -15
150 -15 78 0 125 -5 150 -15 24 -10 71 -15 150 -15 78 0 125 -5 150 -15 24
-10 71 -15 150 -15 78 0 125 -5 150 -15 24 -10 71 -15 150 -15 78 0 125 -5
150 -15 49 -21 233 -21 273 0 l30 16 0 39 0 40 -60 30 -59 30 -266 0 -266 0
-36 15 c-26 11 -74 15 -180 15 -105 0 -153 4 -180 15 -23 10 -69 15 -135 15
-65 0 -111 5 -135 15 -22 9 -67 15 -120 15 -52 0 -97 6 -120 15 -22 9 -67 15
-120 15 -52 0 -97 6 -120 15 l-35 15 -295 0 -294 0 -36 15 c-25 11 -72 15
-165 15 -92 0 -139 4 -165 15 -23 10 -69 15 -135 15 -65 0 -111 5 -135 15 -22
9 -67 15 -120 15 -52 0 -97 6 -120 15 -19 8 -55 15 -79 15 -23 0 -46 5 -49 10
-3 6 -34 10 -69 10 l-62 0 -27 -28z m1888 -2402 c3 -5 -1 -10 -9 -10 -9 0 -16
5 -16 10 0 6 4 10 9 10 6 0 13 -4 16 -10z m124 -71 c27 -16 31 -23 20 -30 -17
-10 -47 -2 -71 19 -41 36 -3 44 51 11z"/>
</g>
</svg>
