<?xml version="1.0" standalone="no"?>
<!DOCTYPE svg PUBLIC "-//W3C//DTD SVG 20010904//EN"
 "http://www.w3.org/TR/2001/REC-SVG-20010904/DTD/svg10.dtd">
<svg version="1.0" xmlns="http://www.w3.org/2000/svg"
 width="897.000000pt" height="309.000000pt" viewBox="0 0 897.000000 309.000000"
 preserveAspectRatio="xMidYMid meet">
<metadata>
Created by potrace 1.16, written by Peter Selinger 2001-2019
</metadata>
<g transform="translate(0.000000,309.000000) scale(0.100000,-0.100000)"
fill="#000000" stroke="none">
<path d="M5422 3038 l3 -52 34 -23 c19 -13 46 -26 60 -30 14 -3 47 -18 72 -34
25 -16 51 -29 58 -29 7 0 42 -18 79 -40 36 -22 83 -45 104 -51 21 -5 45 -21
55 -35 10 -14 41 -53 70 -85 62 -72 91 -152 74 -202 -6 -16 -11 -42 -11 -56 0
-49 -10 -51 -212 -51 -145 0 -197 3 -225 15 l-35 15 -265 0 -264 0 -36 15
c-27 12 -79 15 -225 15 -145 0 -197 3 -225 15 -19 8 -60 15 -90 15 -29 0 -70
7 -90 15 -24 10 -71 15 -150 15 -78 0 -125 5 -150 15 l-35 15 -397 0 -397 0
-59 22 c-64 23 -79 25 -395 36 -133 4 -213 11 -227 20 -15 8 -73 12 -185 12
l-164 0 -29 30 -29 30 -358 0 -359 0 -36 15 c-27 11 -77 15 -207 15 l-172 0
-84 30 -85 30 -173 0 c-130 0 -181 4 -209 15 -22 9 -67 15 -120 15 -52 0 -97
6 -120 15 -57 24 -119 19 -169 -12 l-43 -28 -1 -62 c0 -41 4 -63 12 -63 16 0
442 -425 475 -475 15 -22 78 -93 140 -157 62 -65 113 -122 113 -128 0 -6 29
-41 63 -78 35 -37 72 -81 82 -97 11 -17 31 -44 45 -60 14 -17 47 -62 72 -101
28 -42 71 -88 106 -116 32 -25 72 -65 88 -88 16 -23 62 -78 102 -123 39 -44
72 -84 72 -88 0 -5 34 -46 75 -90 41 -45 75 -86 75 -90 0 -5 31 -43 70 -85 38
-41 73 -87 76 -102 4 -15 27 -48 53 -73 67 -67 120 -139 131 -179 5 -20 25
-51 45 -70 19 -19 47 -52 62 -74 15 -23 53 -68 83 -101 31 -33 68 -79 83 -101
14 -23 40 -52 57 -65 17 -13 46 -36 64 -52 44 -35 76 -36 76 -2 0 57 -41 148
-91 203 -28 30 -64 80 -80 111 -16 31 -45 75 -64 99 -19 24 -35 51 -35 61 0 9
-13 30 -30 46 -16 16 -30 36 -30 44 0 23 -87 148 -120 171 -17 12 -30 30 -30
41 0 10 -21 42 -48 71 -26 29 -69 87 -97 128 -27 41 -71 99 -97 129 -27 30
-60 75 -73 102 -14 26 -42 60 -64 75 -21 16 -49 44 -62 64 -13 19 -71 85 -130
146 -75 77 -110 121 -117 147 -7 23 -33 60 -74 101 -36 36 -78 84 -93 108 -16
24 -66 81 -111 128 -45 47 -96 105 -112 130 -18 27 -53 59 -88 80 -43 26 -60
43 -68 70 -8 24 -26 45 -63 70 -29 19 -65 55 -80 79 -15 24 -39 50 -53 59 -70
44 -100 103 -64 129 25 18 174 17 221 -2 23 -10 69 -15 132 -15 55 0 115 -6
141 -14 116 -37 142 -40 405 -45 188 -4 277 -10 292 -18 15 -9 81 -13 228 -13
160 0 214 -3 242 -15 27 -12 81 -15 240 -15 158 0 212 -3 240 -15 27 -11 77
-15 210 -15 132 0 182 -4 210 -15 22 -9 67 -15 119 -15 45 0 95 -5 111 -12 27
-11 129 -25 248 -34 33 -3 186 -8 340 -12 194 -5 287 -11 302 -19 15 -9 81
-13 228 -13 160 0 214 -3 242 -15 27 -12 79 -15 225 -15 145 0 197 -3 225 -15
27 -12 79 -15 225 -15 145 0 197 -3 225 -15 19 -8 53 -15 75 -15 21 0 55 -7
75 -15 19 -8 60 -15 89 -15 29 0 71 -7 92 -15 30 -12 75 -15 221 -13 l184 3
19 25 c10 14 29 57 43 95 l25 70 0 102 0 102 -30 64 c-16 36 -30 71 -30 79 0
26 -32 59 -83 84 -56 28 -117 80 -117 100 0 20 30 24 67 9 25 -11 73 -15 165
-15 92 0 139 -4 165 -15 22 -9 67 -15 120 -15 52 0 97 -6 120 -15 19 -8 52
-15 72 -15 20 0 56 -6 81 -14 120 -38 139 -40 465 -45 236 -4 336 -10 352 -18
14 -8 63 -13 135 -13 70 0 130 -5 158 -14 108 -34 145 -39 315 -45 115 -4 188
-10 202 -18 15 -9 69 -13 167 -13 112 0 155 -4 187 -17 l41 -16 47 16 c25 10
70 17 99 17 l52 0 0 70 0 70 -462 0 -463 0 -45 30 -45 30 -148 0 c-109 0 -157
4 -184 15 -23 10 -69 15 -135 15 -65 0 -111 5 -135 15 -24 10 -71 15 -150 15
-78 0 -125 5 -150 15 -23 10 -69 15 -135 15 -65 0 -111 5 -135 15 -23 10 -69
15 -135 15 -65 0 -111 5 -135 15 -22 9 -67 15 -120 15 -52 0 -97 6 -120 15
-24 10 -71 15 -150 15 -78 0 -125 5 -150 15 -26 11 -76 15 -199 15 -98 0 -165
4 -169 10 -3 6 -47 10 -96 10 l-90 0 3 -52z"/>
</g>
</svg>
