<?xml version="1.0" standalone="no"?>
<!DOCTYPE svg PUBLIC "-//W3C//DTD SVG 20010904//EN"
 "http://www.w3.org/TR/2001/REC-SVG-20010904/DTD/svg10.dtd">
<svg version="1.0" xmlns="http://www.w3.org/2000/svg"
 width="663.000000pt" height="114.000000pt" viewBox="0 0 663.000000 114.000000"
 preserveAspectRatio="xMidYMid meet">
<metadata>
Created by potrace 1.16, written by Peter Selinger 2001-2019
</metadata>
<g transform="translate(0.000000,114.000000) scale(0.100000,-0.100000)"
fill="#000000" stroke="none">
<path d="M95 1132 c-6 -5 -29 -15 -52 -22 l-43 -13 0 -91 1 -91 41 -30 c23
-16 62 -45 87 -63 63 -45 196 -112 223 -112 26 0 243 -71 287 -95 17 -8 66
-27 110 -41 96 -31 122 -55 167 -150 39 -82 42 -127 14 -187 -34 -73 -74 -107
-125 -107 -37 0 -55 -16 -55 -46 0 -36 45 -64 103 -64 l51 0 67 45 c37 25 79
59 93 76 l26 31 0 137 c0 93 4 141 12 149 17 17 112 15 155 -3 20 -8 66 -15
105 -15 39 0 84 -7 106 -16 l37 -15 420 2 420 2 70 35 c84 41 144 82 207 139
26 24 56 43 66 43 38 0 117 -30 159 -60 24 -18 59 -36 77 -41 18 -5 50 -24 72
-43 21 -18 71 -49 110 -69 145 -73 297 -189 363 -277 13 -17 41 -42 62 -56 22
-13 51 -38 66 -54 l26 -30 51 0 51 1 71 77 c39 42 81 96 93 119 l21 42 0 88
c0 67 -6 104 -24 155 -29 81 -46 109 -110 183 l-50 57 15 9 c24 15 235 11 276
-6 l35 -15 277 0 277 0 84 -30 85 -30 143 0 c104 0 152 -4 179 -15 27 -12 81
-15 240 -15 158 0 212 -3 240 -15 24 -10 71 -15 150 -15 78 0 125 -5 150 -15
51 -22 435 -22 486 0 23 9 69 15 124 15 l87 0 28 27 c22 21 28 36 28 70 l0 43
-149 0 c-109 0 -158 -4 -184 -15 -28 -12 -80 -15 -222 -15 -142 0 -194 3 -222
15 l-35 15 -370 0 -369 0 -36 15 c-23 10 -69 15 -132 15 l-97 0 -84 30 -85 30
-128 0 c-90 0 -138 4 -164 15 -26 11 -74 15 -180 15 -105 0 -153 4 -180 15
-28 12 -83 15 -257 15 l-221 0 -45 30 -45 30 -128 0 -128 0 -25 -25 c-20 -20
-23 -29 -15 -44 19 -34 71 -71 102 -71 16 0 46 -7 66 -15 19 -8 47 -15 62 -15
28 0 59 -17 102 -57 14 -13 37 -27 51 -31 14 -4 61 -46 105 -93 l79 -87 22
-64 c31 -91 29 -158 -5 -198 -21 -25 -32 -31 -53 -27 -42 9 -162 96 -198 143
-18 24 -40 44 -50 44 -33 1 -98 37 -152 87 -30 28 -89 67 -130 88 -41 20 -96
55 -122 76 -26 22 -68 46 -92 53 -47 14 -156 82 -227 142 l-41 34 -68 0 -67 0
-28 -22 -27 -21 5 -36 c3 -20 9 -45 12 -56 8 -26 -41 -95 -97 -135 l-41 -30
-132 0 c-95 0 -143 -4 -168 -15 -52 -22 -392 -22 -444 0 -26 11 -76 15 -195
15 -118 0 -168 4 -195 15 -19 8 -54 15 -77 15 -33 0 -48 6 -67 26 -13 14 -44
36 -69 49 -46 23 -110 81 -110 98 0 5 -42 52 -92 104 l-93 95 -137 69 c-75 37
-139 73 -143 79 -7 12 -306 14 -320 2z m232 -137 c19 -8 48 -15 63 -15 15 0
46 -14 70 -32 24 -18 52 -39 64 -47 45 -31 86 -76 86 -94 l0 -19 -27 5 c-16 3
-99 30 -186 59 -196 68 -245 107 -179 142 35 19 64 20 109 1z"/>
</g>
</svg>
