<?xml version="1.0" standalone="no"?>
<!DOCTYPE svg PUBLIC "-//W3C//DTD SVG 20010904//EN"
 "http://www.w3.org/TR/2001/REC-SVG-20010904/DTD/svg10.dtd">
<svg version="1.0" xmlns="http://www.w3.org/2000/svg"
 width="636.000000pt" height="261.000000pt" viewBox="0 0 636.000000 261.000000"
 preserveAspectRatio="xMidYMid meet">
<metadata>
Created by potrace 1.16, written by Peter Selinger 2001-2019
</metadata>
<g transform="translate(0.000000,261.000000) scale(0.100000,-0.100000)"
fill="#000000" stroke="none">
<path d="M13 2583 c-16 -32 -17 -79 -3 -88 6 -3 10 -13 10 -22 0 -9 16 -42 36
-72 63 -99 114 -190 114 -204 0 -27 41 -67 81 -77 26 -7 63 -33 107 -74 37
-34 96 -81 132 -105 77 -50 151 -106 191 -143 l29 -26 0 -59 c-1 -157 -104
-233 -317 -233 l-100 0 -16 -18 c-34 -37 -18 -71 50 -106 25 -12 62 -16 168
-16 l136 0 42 21 c23 12 90 68 149 125 59 57 115 104 125 104 37 0 238 -107
293 -156 30 -28 68 -58 85 -69 16 -10 50 -37 75 -59 56 -51 121 -96 180 -126
25 -12 65 -39 90 -59 25 -20 65 -49 90 -63 25 -15 62 -47 83 -72 28 -34 63
-59 126 -91 48 -24 112 -65 142 -92 30 -27 72 -61 95 -76 22 -15 55 -43 74
-62 19 -20 52 -40 73 -46 27 -7 64 -35 120 -88 45 -42 95 -85 112 -96 16 -10
50 -37 75 -60 25 -23 84 -67 131 -99 48 -31 95 -66 104 -76 10 -11 35 -25 56
-30 20 -6 60 -31 89 -57 28 -25 76 -61 107 -80 l55 -33 117 0 116 1 23 38 c34
54 61 139 62 189 0 53 -28 111 -86 176 -50 55 -54 72 -21 87 18 8 33 7 62 -5
25 -11 69 -16 137 -16 62 0 111 -5 132 -14 27 -11 109 -14 390 -15 l356 -1 36
-15 c20 -8 61 -15 91 -15 29 0 70 -7 90 -15 23 -10 69 -15 135 -15 65 0 111
-5 135 -15 28 -12 84 -15 270 -15 185 0 241 -3 270 -15 l35 -15 368 0 368 0
36 -15 36 -15 0 70 0 69 -31 17 -31 16 -122 -6 c-66 -3 -146 -8 -176 -10 -57
-5 -122 5 -201 30 l-47 14 -504 0 -504 0 -29 30 -29 30 -133 0 c-96 0 -144 4
-170 15 -27 12 -79 15 -224 15 -122 0 -198 4 -216 12 -37 15 -184 29 -483 46
-81 4 -155 13 -167 20 -12 7 -58 12 -107 12 -49 0 -102 6 -123 14 -21 8 -54
17 -73 19 -19 3 -43 8 -53 12 -12 5 -28 -4 -57 -33 l-40 -40 0 -42 c0 -59 41
-100 101 -100 48 0 163 -35 195 -59 148 -112 184 -154 184 -212 0 -56 -9 -61
-77 -50 -78 12 -127 37 -196 101 -31 28 -72 56 -91 61 -19 5 -59 31 -88 58
-29 26 -72 58 -94 69 -76 39 -178 115 -269 200 -49 46 -110 93 -135 104 -64
29 -61 27 -145 97 -43 35 -93 68 -112 73 -19 5 -63 36 -101 72 -37 34 -87 74
-112 88 -25 14 -54 36 -65 48 -11 12 -41 33 -66 46 -25 12 -70 45 -100 72 -30
27 -91 68 -135 90 -50 25 -111 68 -157 109 -93 84 -151 128 -292 221 -125 83
-145 102 -145 143 0 33 -54 147 -105 221 -18 26 -37 63 -40 80 -11 50 -43 109
-82 150 -20 20 -52 60 -72 90 -28 41 -47 56 -78 66 -22 7 -58 28 -79 46 -72
61 -190 106 -278 106 -30 0 -58 5 -61 10 -3 6 -32 10 -63 10 l-57 0 -12 -27z
m327 -195 c24 -18 60 -44 79 -58 24 -17 51 -54 81 -111 25 -47 55 -95 68 -107
50 -49 -7 -47 -72 3 -18 14 -36 25 -40 25 -17 0 -104 75 -148 128 -64 75 -94
132 -76 143 26 17 66 8 108 -23z"/>
</g>
</svg>
