<?xml version="1.0" standalone="no"?>
<!DOCTYPE svg PUBLIC "-//W3C//DTD SVG 20010904//EN"
 "http://www.w3.org/TR/2001/REC-SVG-20010904/DTD/svg10.dtd">
<svg version="1.0" xmlns="http://www.w3.org/2000/svg"
 width="738.000000pt" height="159.000000pt" viewBox="0 0 738.000000 159.000000"
 preserveAspectRatio="xMidYMid meet">
<metadata>
Created by potrace 1.16, written by Peter Selinger 2001-2019
</metadata>
<g transform="translate(0.000000,159.000000) scale(0.100000,-0.100000)"
fill="#000000" stroke="none">
<path d="M2430 1581 c-8 -5 -38 -19 -67 -31 -29 -13 -63 -35 -77 -49 -47 -50
-106 -146 -106 -174 0 -15 -7 -44 -15 -64 -24 -58 -19 -92 26 -158 76 -112
168 -185 234 -185 14 0 42 -7 62 -15 19 -8 45 -15 56 -15 12 0 81 -20 154 -45
87 -30 149 -45 182 -45 27 0 62 -5 78 -12 15 -7 64 -14 108 -17 93 -7 110 -25
50 -54 l-36 -17 -290 0 -290 0 -36 15 c-19 8 -59 15 -87 15 -28 0 -71 6 -96
14 -94 30 -138 38 -225 45 -49 4 -100 12 -112 19 -12 7 -39 12 -59 12 -21 0
-99 20 -173 44 -190 61 -214 67 -316 75 -49 4 -100 12 -112 19 -12 7 -54 12
-93 12 -40 0 -86 6 -107 15 -19 8 -60 15 -90 15 -29 0 -70 7 -90 15 -27 12
-79 15 -228 15 -149 0 -201 -3 -228 -15 -20 -8 -66 -15 -102 -15 -72 0 -245
-52 -309 -92 l-35 -23 -1 -150 0 -150 70 -80 c39 -44 70 -83 70 -87 0 -22 76
-89 111 -98 25 -7 48 -23 66 -46 18 -24 58 -51 126 -85 54 -28 117 -63 139
-79 23 -17 48 -30 57 -30 9 0 45 -14 79 -30 41 -19 80 -30 107 -30 24 0 47 -4
50 -10 4 -6 61 -10 137 -10 142 0 208 16 208 51 0 27 -40 49 -88 49 -23 0 -59
7 -79 15 -19 8 -54 15 -77 15 -25 0 -66 12 -104 30 -40 19 -80 30 -106 30 -44
0 -97 30 -141 80 -11 12 -46 35 -78 51 -59 30 -137 101 -137 125 0 22 46 27
97 11 97 -31 140 -40 208 -43 l70 -4 50 27 c27 16 56 40 64 54 l15 26 -22 66
c-23 71 -122 207 -149 207 -25 0 -83 32 -93 51 -7 13 -6 22 6 33 21 22 190 22
241 1 20 -8 66 -15 105 -15 38 0 84 -7 105 -15 20 -9 66 -15 107 -15 l71 0 63
-30 64 -30 80 0 81 0 224 -75 223 -75 95 0 c62 0 108 -5 132 -15 19 -8 53 -15
75 -15 21 0 55 -7 75 -15 23 -10 69 -15 134 -15 68 0 111 -5 140 -16 l41 -17
125 7 c68 4 136 11 149 17 14 5 54 9 90 9 50 0 94 10 197 45 73 25 144 45 158
45 13 0 44 14 69 30 51 34 100 39 157 15 20 -8 66 -15 105 -15 38 0 84 -7 105
-15 19 -8 60 -15 90 -15 29 0 70 -7 90 -15 28 -12 86 -15 285 -15 198 0 256
-3 285 -15 22 -9 67 -15 120 -15 52 0 97 -6 120 -15 24 -10 71 -15 150 -15 78
0 125 -5 150 -15 24 -10 71 -15 150 -15 78 0 125 -5 150 -15 27 -12 81 -15
240 -15 158 0 212 -3 240 -15 l35 -15 704 0 704 0 0 74 0 74 -24 6 c-13 3 -37
1 -53 -4 -39 -14 -908 -7 -983 8 -34 6 -239 11 -543 11 l-488 1 -36 15 c-24
10 -71 15 -150 15 -78 0 -125 5 -150 15 -19 8 -60 15 -90 15 -29 0 -70 7 -90
15 -22 9 -67 15 -119 15 -54 0 -98 6 -125 17 l-41 16 -47 -16 c-57 -21 -101
-21 -148 -2 -20 8 -66 15 -105 15 -38 0 -84 7 -105 15 -24 10 -71 15 -150 15
-78 0 -125 5 -150 15 -19 8 -54 15 -77 15 -23 0 -47 5 -54 12 -18 18 -15 140
5 189 l16 41 -16 47 c-10 25 -17 66 -17 89 l0 44 -62 65 c-45 46 -85 76 -140
104 -43 21 -83 39 -90 39 -7 0 -33 14 -58 30 -25 16 -56 30 -70 30 -14 0 -45
6 -70 14 -82 26 -135 38 -185 43 -27 3 -54 9 -59 14 -12 11 -455 11 -476 0z
m415 -117 c28 -3 109 -26 182 -50 73 -24 143 -44 155 -44 13 0 41 -9 63 -19
50 -23 184 -141 208 -184 l18 -32 -3 -95 -3 -95 -23 -33 -23 -32 -85 0 c-53 0
-98 6 -121 15 -19 8 -53 15 -75 15 -21 0 -55 7 -75 15 -22 9 -67 15 -120 15
-52 0 -97 6 -120 15 -19 8 -45 15 -57 15 -25 0 -152 42 -197 65 -17 9 -51 23
-76 30 -87 26 -173 107 -173 163 0 37 38 110 78 150 25 25 60 45 103 60 68 23
214 43 264 36 17 -2 53 -7 80 -10z m-2368 -719 c39 -13 91 -34 115 -46 48 -24
108 -77 108 -95 0 -27 -71 -32 -127 -9 -19 8 -45 15 -57 15 -30 0 -135 38
-166 60 -14 10 -32 30 -40 45 l-14 27 19 14 c28 20 81 17 162 -11z"/>
</g>
</svg>
