<?xml version="1.0" standalone="no"?>
<!DOCTYPE svg PUBLIC "-//W3C//DTD SVG 20010904//EN"
 "http://www.w3.org/TR/2001/REC-SVG-20010904/DTD/svg10.dtd">
<svg version="1.0" xmlns="http://www.w3.org/2000/svg"
 width="627.000000pt" height="138.000000pt" viewBox="0 0 627.000000 138.000000"
 preserveAspectRatio="xMidYMid meet">
<metadata>
Created by potrace 1.16, written by Peter Selinger 2001-2019
</metadata>
<g transform="translate(0.000000,138.000000) scale(0.100000,-0.100000)"
fill="#000000" stroke="none">
<path d="M37 1342 l-37 -38 0 -55 0 -56 30 -26 c16 -15 41 -45 55 -67 14 -22
38 -46 54 -55 16 -8 64 -46 105 -85 42 -38 83 -70 92 -70 9 0 39 -20 67 -45
28 -24 77 -58 110 -76 69 -36 178 -109 225 -150 18 -16 40 -29 48 -29 15 0
104 -49 205 -114 31 -21 68 -36 85 -36 16 0 46 -11 67 -25 63 -44 235 -125
263 -125 30 0 142 -50 187 -84 48 -36 113 -66 143 -66 31 0 86 -24 131 -58 17
-13 49 -28 70 -34 21 -6 50 -19 65 -29 41 -30 108 -26 140 9 63 67 57 97 -25
138 -29 15 -65 37 -82 50 -16 12 -81 48 -143 79 -78 40 -121 68 -139 92 -15
19 -49 46 -76 60 -27 13 -68 45 -91 70 -22 25 -62 67 -88 93 -53 53 -53 53
-38 81 l11 19 100 0 c66 0 112 -5 136 -15 26 -11 74 -15 179 -15 89 0 153 -5
171 -12 15 -7 84 -16 153 -20 69 -5 152 -11 185 -13 33 -3 139 -8 235 -13 108
-4 183 -12 197 -20 16 -9 112 -12 378 -12 l356 0 36 -15 c24 -10 71 -15 150
-15 78 0 125 -5 150 -15 24 -10 71 -15 150 -15 78 0 125 -5 150 -15 26 -11 74
-15 180 -15 105 0 153 -4 180 -15 27 -12 79 -15 225 -15 145 0 197 -3 225 -15
l35 -15 280 0 279 0 36 -15 c26 -11 76 -15 195 -15 118 0 168 -4 195 -15 47
-20 175 -20 213 0 l30 16 0 37 0 37 -49 18 c-31 11 -78 17 -130 17 -50 0 -96
6 -118 15 -27 11 -77 15 -210 15 -132 0 -182 4 -210 15 -23 10 -69 15 -135 15
-65 0 -111 5 -135 15 l-35 15 -295 0 -294 0 -36 15 c-27 11 -77 15 -210 15
-132 0 -182 4 -210 15 -26 11 -74 15 -180 15 -105 0 -153 4 -180 15 -26 11
-74 15 -180 15 -105 0 -153 4 -180 15 -27 11 -77 15 -210 15 -132 0 -182 4
-210 15 l-35 15 -370 0 -369 0 -36 15 c-25 11 -72 15 -165 15 -92 0 -139 4
-165 15 -19 8 -60 15 -90 15 -29 0 -70 7 -90 15 -19 8 -59 15 -87 15 -28 0
-71 6 -96 14 -76 24 -133 38 -177 43 l-43 5 -70 -68 c-43 -41 -70 -75 -70 -88
0 -34 28 -115 50 -146 46 -65 16 -77 -78 -30 -34 17 -66 30 -72 30 -18 0 -81
31 -115 56 -16 12 -66 40 -110 62 -44 22 -108 64 -142 94 -34 29 -73 61 -87
71 -32 22 -32 37 -2 85 13 20 30 61 37 90 l13 54 -19 36 c-13 23 -37 46 -65
61 -25 13 -66 41 -91 62 -26 21 -68 48 -95 60 -27 12 -57 26 -66 30 -10 5 -78
9 -151 9 l-133 0 -37 -38z m328 -157 c76 -36 110 -70 99 -98 -18 -47 -105 -11
-183 76 l-24 26 13 16 c7 8 14 15 16 15 2 0 37 -16 79 -35z"/>
</g>
</svg>
