<?xml version="1.0" standalone="no"?>
<!DOCTYPE svg PUBLIC "-//W3C//DTD SVG 20010904//EN"
 "http://www.w3.org/TR/2001/REC-SVG-20010904/DTD/svg10.dtd">
<svg version="1.0" xmlns="http://www.w3.org/2000/svg"
 width="744.000000pt" height="99.000000pt" viewBox="0 0 744.000000 99.000000"
 preserveAspectRatio="xMidYMid meet">
<metadata>
Created by potrace 1.16, written by Peter Selinger 2001-2019
</metadata>
<g transform="translate(0.000000,99.000000) scale(0.100000,-0.100000)"
fill="#000000" stroke="none">
<path d="M2947 983 c-16 -15 -114 -43 -153 -43 -26 0 -46 -6 -56 -17 -23 -27
-48 -79 -48 -102 0 -30 56 -89 113 -117 27 -14 67 -39 90 -55 24 -17 53 -29
71 -29 17 0 48 -11 67 -24 88 -60 257 -87 292 -48 35 38 12 83 -48 97 -41 9
-308 148 -312 162 -3 7 8 15 24 18 15 3 48 12 73 20 36 12 112 15 378 15 l333
0 36 -15 c28 -12 81 -15 242 -15 l206 0 45 -30 45 -30 133 0 c95 0 143 -4 169
-15 l35 -15 280 0 279 0 36 -15 c27 -12 80 -15 237 -15 146 0 213 -4 246 -14
78 -25 133 -37 195 -45 34 -5 70 -13 82 -19 14 -8 88 -12 213 -12 147 0 199
-3 227 -15 28 -12 81 -15 242 -15 l206 0 45 -30 45 -30 106 0 c72 0 118 5 142
15 20 8 55 15 77 15 23 0 54 7 70 15 l30 16 0 54 0 54 -30 16 c-21 11 -61 15
-145 15 -80 0 -127 5 -152 15 l-35 15 -280 0 -279 0 -36 15 c-28 12 -86 15
-285 15 -198 0 -256 3 -285 15 -19 8 -53 15 -75 15 -21 0 -55 7 -75 15 -26 11
-76 15 -195 15 -118 0 -168 4 -195 15 -26 11 -74 15 -180 15 -105 0 -153 4
-180 15 -25 11 -72 15 -165 15 -92 0 -139 4 -165 15 -26 11 -76 15 -195 15
-118 0 -168 4 -195 15 -25 11 -73 15 -169 15 -78 0 -135 4 -139 10 -7 11
-1027 15 -1038 3z"/>
<path d="M0 362 l0 -37 49 -18 c31 -11 78 -17 130 -17 50 0 96 -6 118 -15 19
-8 53 -15 75 -15 21 0 55 -7 75 -15 24 -10 71 -15 150 -15 78 0 125 -5 150
-15 20 -8 66 -15 105 -15 38 0 84 -7 105 -15 19 -8 60 -15 90 -15 29 0 70 -7
90 -15 26 -11 76 -15 195 -15 118 0 168 -4 195 -15 24 -10 71 -15 150 -15 78
0 125 -5 150 -15 25 -11 72 -15 165 -15 92 0 139 -4 165 -15 28 -12 84 -15
269 -15 l233 0 15 -16 c9 -8 16 -20 16 -25 0 -14 114 -11 128 3 10 10 17 10
32 0 15 -9 135 -12 484 -12 l465 0 35 34 c20 18 36 38 36 43 0 6 -10 25 -23
44 l-23 34 -569 5 c-430 4 -575 8 -592 18 -16 9 -93 12 -288 12 l-266 0 -36
15 c-27 11 -77 15 -210 15 -132 0 -182 4 -210 15 -24 10 -71 15 -150 15 -78 0
-125 5 -150 15 -22 9 -67 15 -117 15 -65 0 -99 6 -166 30 l-85 30 -173 0
c-130 0 -181 4 -209 15 -22 9 -67 15 -120 15 -52 0 -97 6 -120 15 -26 11 -76
15 -199 15 l-164 0 0 -38z"/>
</g>
</svg>
