<?xml version="1.0" standalone="no"?>
<!DOCTYPE svg PUBLIC "-//W3C//DTD SVG 20010904//EN"
 "http://www.w3.org/TR/2001/REC-SVG-20010904/DTD/svg10.dtd">
<svg version="1.0" xmlns="http://www.w3.org/2000/svg"
 width="783.000000pt" height="135.000000pt" viewBox="0 0 783.000000 135.000000"
 preserveAspectRatio="xMidYMid meet">
<metadata>
Created by potrace 1.16, written by Peter Selinger 2001-2019
</metadata>
<g transform="translate(0.000000,135.000000) scale(0.100000,-0.100000)"
fill="#000000" stroke="none">
<path d="M452 1317 c-7 -18 -12 -55 -12 -82 l0 -48 43 -41 c24 -22 56 -49 70
-59 35 -23 62 -84 46 -103 -17 -21 -44 -17 -116 16 -35 16 -69 30 -74 30 -5 0
-43 33 -84 73 -40 39 -89 86 -107 104 -18 17 -43 44 -55 60 -12 16 -37 34 -57
40 l-35 11 -35 -24 -36 -25 0 -44 0 -44 82 -87 c46 -48 99 -97 120 -110 20
-13 70 -52 110 -86 73 -63 92 -72 228 -108 84 -22 105 -22 170 0 79 27 91 36
119 103 13 28 27 59 31 67 5 11 27 16 78 18 l71 3 56 -26 c83 -37 170 -65 207
-65 18 0 53 -6 78 -14 87 -28 136 -38 210 -45 41 -4 85 -13 97 -19 12 -7 47
-12 78 -12 30 0 72 -7 92 -15 19 -8 54 -15 77 -15 34 0 48 -6 71 -30 l29 -30
88 0 c56 0 102 -6 125 -15 l35 -15 598 0 598 0 35 15 c23 9 69 15 122 15 96 0
138 15 209 76 22 19 55 38 74 44 20 5 56 31 86 62 29 29 68 61 87 72 l35 19
40 -19 c21 -10 57 -31 78 -46 22 -16 52 -28 69 -28 17 0 51 -13 76 -29 25 -16
61 -32 80 -36 22 -5 51 -24 81 -56 25 -26 63 -54 84 -61 40 -14 110 -64 160
-114 61 -62 176 -227 176 -253 0 -21 31 -75 65 -111 18 -19 50 -60 71 -91 22
-30 53 -74 69 -97 l30 -41 55 -1 56 0 18 53 18 53 -22 63 c-12 36 -38 84 -60
110 -38 45 -90 147 -90 176 0 10 11 15 34 15 18 0 50 7 69 15 51 21 303 21
354 0 26 -11 74 -15 180 -15 105 0 153 -4 180 -15 20 -8 66 -15 105 -15 38 0
84 -7 105 -15 22 -9 67 -15 120 -15 52 0 97 -6 120 -15 25 -11 73 -15 167 -15
l132 0 29 -30 29 -30 118 0 c83 0 129 -5 155 -15 26 -11 74 -15 179 -15 78 0
155 -5 171 -11 15 -5 105 -13 201 -16 l173 -6 29 28 30 29 0 43 0 42 -30 16
-29 15 -311 0 -311 0 -36 15 c-23 10 -69 15 -135 15 l-100 0 -65 30 c-47 22
-79 30 -119 30 -30 0 -71 7 -91 15 -20 8 -66 15 -105 15 -38 0 -84 7 -105 15
-26 11 -76 15 -195 15 -118 0 -168 4 -195 15 -22 9 -67 15 -119 15 -45 0 -95
6 -111 12 -19 9 -123 15 -318 20 -159 4 -306 8 -325 9 -19 1 -51 -1 -71 -6
-27 -5 -47 -2 -75 11 -56 27 -163 100 -209 144 -22 21 -76 57 -120 79 -44 22
-102 58 -129 80 -26 23 -55 41 -64 41 -9 0 -85 34 -169 75 -85 41 -158 75
-164 75 -6 0 -40 14 -76 30 -81 38 -136 39 -203 5 -61 -31 -80 -58 -80 -113 0
-46 -21 -105 -48 -135 -36 -40 -95 -57 -200 -57 -66 0 -112 -5 -135 -15 -23
-9 -68 -15 -120 -15 -53 0 -98 -6 -120 -15 -43 -18 -388 -22 -433 -5 -19 7
-37 7 -60 0 -25 -9 -40 -8 -69 5 -27 11 -73 15 -167 15 -92 0 -139 4 -165 15
-23 10 -69 15 -132 15 -55 0 -115 6 -141 14 -58 18 -124 35 -175 45 -22 4 -56
12 -75 18 -78 25 -129 35 -200 42 -41 4 -85 13 -97 19 -12 7 -46 12 -75 12
-39 0 -117 22 -303 84 l-250 83 -50 47 c-27 25 -65 60 -83 76 l-34 30 -87 0
-87 0 -12 -33z"/>
</g>
</svg>
