<?xml version="1.0" encoding="UTF-8" standalone="no"?>
<!-- Created with Inkscape (http://www.inkscape.org/) -->

<svg
   width="170.14174mm"
   height="24.384922mm"
   viewBox="0 0 170.14174 24.384922"
   version="1.1"
   id="svg1"
   xml:space="preserve"
   xmlns="http://www.w3.org/2000/svg"
   xmlns:svg="http://www.w3.org/2000/svg"><defs
     id="defs1" /><g
     id="layer1"
     transform="translate(-41.392638,-130.48454)"><path
       style="fill:#000000"
       d="m 83.608331,154.62374 c -7.479856,-0.77563 -22.351549,-1.63576 -31.61771,-1.82866 -5.748073,-0.11967 -10.480807,-0.22775 -10.517188,-0.24018 -0.183433,-0.0627 -0.0304,-1.89827 0.217568,-2.60958 l 0.283714,-0.81386 4.809516,0.1108 c 2.645233,0.0609 7.42889,0.16711 10.630349,0.23595 5.332386,0.11465 20.429628,1.07671 27.099599,1.72691 3.575405,0.34853 10.193478,0.34303 11.462988,-0.01 0.545463,-0.15148 1.302675,-0.54287 1.682692,-0.86975 l 0.690941,-0.59432 -0.69668,-0.82796 c -1.414423,-1.68094 -3.936872,-2.38658 -11.135372,-3.11506 -2.328334,-0.23563 -4.706726,-0.56798 -5.285317,-0.73856 -1.341864,-0.39561 -2.933743,-1.98133 -3.294986,-3.28223 -0.464523,-1.67283 -0.344067,-4.39882 0.266482,-6.03066 1.438167,-3.84384 3.528652,-4.66477 13.139184,-5.1597 5.015765,-0.25831 56.480789,0.0739 61.981929,0.40005 2.99472,0.17757 18.04554,0.64592 29.36875,0.91389 7.75618,0.18356 9.80416,0.31928 13.62605,0.90299 3.72307,0.56862 5.42089,0.68705 9.85573,0.68749 l 5.35781,5.3e-4 v 0.88656 c 0,0.4876 -0.13071,1.26151 -0.29047,1.71979 l -0.29046,0.83323 -5.33193,-5.3e-4 c -4.40697,-4.4e-4 -6.11221,-0.1197 -9.82985,-0.68749 -3.82188,-0.58371 -5.86987,-0.71942 -13.62604,-0.90298 -11.32322,-0.26798 -26.37403,-0.73633 -29.36875,-0.9139 -5.50114,-0.32618 -56.966171,-0.65836 -61.981935,-0.40005 -7.620674,0.39246 -10.443187,1.06103 -11.808845,2.79719 -0.643435,0.81799 -0.546862,1.60167 0.374985,3.04297 1.064734,1.6647 1.757113,1.85881 9.826995,2.75498 7.71945,0.85724 10.143178,2.31151 10.139386,6.08377 -0.0028,2.83544 -1.629428,5.30887 -3.907247,5.94148 -1.140273,0.31669 -8.730983,0.30798 -11.831888,-0.0136 z"
       id="path1" /></g></svg>
