<?xml version="1.0" standalone="no"?>
<!DOCTYPE svg PUBLIC "-//W3C//DTD SVG 20010904//EN"
 "http://www.w3.org/TR/2001/REC-SVG-20010904/DTD/svg10.dtd">
<svg version="1.0" xmlns="http://www.w3.org/2000/svg"
 width="546.000000pt" height="69.000000pt" viewBox="0 0 546.000000 69.000000"
 preserveAspectRatio="xMidYMid meet">
<metadata>
Created by potrace 1.16, written by Peter Selinger 2001-2019
</metadata>
<g transform="translate(0.000000,69.000000) scale(0.100000,-0.100000)"
fill="#000000" stroke="none">
<path d="M0 651 l0 -40 87 -91 c59 -62 105 -101 143 -120 32 -16 82 -51 112
-79 l55 -50 89 -29 c49 -16 135 -52 191 -81 57 -28 114 -51 128 -51 14 0 42
-7 62 -15 19 -8 65 -15 102 -15 36 0 86 -6 111 -14 109 -35 144 -40 290 -43
85 -2 159 -8 165 -14 12 -12 72 -12 80 1 3 6 51 10 109 10 69 0 115 5 139 15
20 8 61 15 90 15 30 0 71 7 90 15 20 8 52 15 72 15 59 0 156 38 197 77 20 19
60 52 90 72 l53 37 25 75 c14 41 29 80 33 87 13 19 286 17 334 -3 23 -10 69
-15 135 -15 65 0 111 -5 135 -15 l35 -15 310 0 309 0 36 -15 c26 -11 76 -15
195 -15 118 0 168 -4 195 -15 27 -11 77 -15 210 -15 132 0 182 -4 210 -15 28
-12 86 -15 285 -15 198 0 256 -3 285 -15 43 -18 192 -20 240 -3 l33 12 0 62 0
62 -22 8 c-13 4 -167 11 -343 16 -176 4 -347 10 -380 13 -33 3 -166 9 -295 13
-157 5 -242 11 -257 20 -15 8 -69 12 -168 12 -107 0 -155 4 -182 15 -26 11
-76 15 -195 15 -118 0 -168 4 -195 15 -24 10 -71 15 -150 15 -78 0 -125 5
-150 15 -27 12 -81 15 -240 15 -158 0 -212 3 -240 15 -19 8 -53 15 -75 15 -21
0 -55 7 -75 15 -22 9 -67 15 -117 15 -74 0 -171 22 -193 43 -3 4 -45 7 -93 7
l-86 0 -19 -56 -19 -56 24 -46 c31 -58 76 -85 156 -93 64 -6 124 -38 124 -64
0 -8 -14 -30 -30 -49 -30 -34 -90 -60 -175 -77 -52 -10 -119 -27 -175 -45 -25
-8 -61 -14 -81 -14 -20 0 -53 -7 -72 -15 -51 -21 -303 -21 -354 0 -20 8 -66
15 -105 15 -38 0 -84 7 -105 15 -19 8 -53 15 -75 15 -21 0 -55 7 -75 15 -19 8
-52 15 -72 15 -39 0 -245 66 -310 99 -22 12 -46 21 -52 21 -7 0 -33 13 -58 29
-25 16 -60 32 -77 35 -17 4 -58 30 -90 57 -32 28 -88 68 -124 89 -36 21 -81
54 -99 74 l-35 36 -53 0 -53 0 0 -39z"/>
</g>
</svg>
