<?xml version="1.0" standalone="no"?>
<!DOCTYPE svg PUBLIC "-//W3C//DTD SVG 20010904//EN"
 "http://www.w3.org/TR/2001/REC-SVG-20010904/DTD/svg10.dtd">
<svg version="1.0" xmlns="http://www.w3.org/2000/svg"
 width="759.000000pt" height="345.000000pt" viewBox="0 0 759.000000 345.000000"
 preserveAspectRatio="xMidYMid meet">
<metadata>
Created by potrace 1.16, written by Peter Selinger 2001-2019
</metadata>
<g transform="translate(0.000000,345.000000) scale(0.100000,-0.100000)"
fill="#000000" stroke="none">
<path d="M3605 3440 c-3 -5 -15 -10 -25 -10 -32 0 -50 -39 -50 -108 l0 -63 28
-25 c81 -74 202 -154 232 -154 6 0 36 -11 66 -25 74 -34 168 -65 197 -65 34 0
47 -19 47 -70 l0 -45 41 -60 c22 -33 48 -68 57 -79 24 -25 145 -106 161 -106
7 0 42 -13 78 -30 35 -16 70 -30 76 -30 20 0 58 -31 55 -45 -11 -44 -220 -175
-281 -175 -14 0 -67 -20 -119 -45 -63 -30 -106 -45 -134 -45 -23 0 -58 -7 -77
-15 -27 -11 -77 -15 -195 -15 -119 0 -169 -4 -195 -15 l-36 -15 -531 0 -531 0
-36 15 c-26 11 -76 15 -195 15 -118 0 -168 4 -195 15 -20 8 -66 15 -105 15
-38 0 -84 7 -105 15 -22 9 -67 15 -117 15 -44 0 -101 6 -126 14 -60 19 -125
35 -182 46 -26 5 -56 13 -67 19 -11 6 -52 11 -91 11 -40 0 -86 6 -107 15 -19
8 -53 15 -75 15 -21 0 -55 7 -75 15 -19 8 -45 15 -56 15 -12 0 -62 13 -112 29
-99 32 -159 48 -220 60 -87 17 -166 49 -229 93 -25 18 -52 28 -74 28 l-35 0
-41 44 c-44 47 -92 76 -127 76 -13 0 -38 -17 -61 -42 l-38 -41 0 -43 c0 -26 8
-56 21 -76 68 -109 108 -169 140 -208 20 -25 48 -68 63 -97 17 -34 40 -61 68
-80 25 -17 54 -48 68 -75 14 -25 45 -66 70 -91 53 -52 147 -164 162 -192 6
-11 43 -54 82 -95 95 -101 164 -186 187 -232 11 -21 33 -48 50 -60 17 -13 42
-42 55 -65 14 -23 42 -54 62 -69 45 -34 57 -48 83 -99 12 -22 42 -60 68 -86
25 -25 66 -73 91 -107 25 -35 69 -91 99 -125 29 -34 66 -88 82 -119 16 -31 44
-68 62 -82 19 -14 46 -48 61 -76 16 -29 44 -61 69 -77 30 -21 46 -40 55 -68 7
-22 27 -53 46 -70 58 -53 127 -138 157 -197 16 -31 44 -69 64 -84 19 -14 35
-33 35 -42 0 -9 12 -29 27 -44 21 -22 36 -28 70 -28 l43 0 0 48 c0 38 -6 58
-29 89 -16 22 -39 60 -51 84 -26 50 -73 120 -122 181 -20 24 -43 59 -53 78 -9
19 -32 51 -50 70 -17 19 -47 58 -66 85 -18 28 -59 77 -90 110 -30 33 -64 74
-74 90 -21 32 -79 106 -132 167 -18 21 -46 64 -62 96 -16 32 -45 71 -65 85
-21 17 -39 41 -45 63 -6 22 -33 59 -74 99 -35 36 -77 84 -93 107 -15 24 -54
70 -84 103 -31 33 -69 79 -83 102 -14 23 -46 58 -71 79 -24 20 -56 59 -71 85
-14 27 -48 68 -76 91 -27 24 -49 51 -49 61 0 10 -29 48 -63 85 -35 37 -72 81
-82 97 -11 17 -38 50 -60 75 -23 25 -58 72 -79 104 l-38 59 14 13 13 14 90
-29 c133 -43 172 -52 255 -60 41 -4 85 -13 97 -19 12 -7 32 -12 44 -12 13 0
64 -13 114 -29 122 -39 170 -51 240 -60 34 -5 70 -13 82 -19 12 -7 60 -12 108
-12 53 0 99 -6 122 -15 19 -8 53 -15 75 -15 21 0 55 -7 75 -15 19 -8 60 -15
90 -15 29 0 70 -7 90 -15 22 -9 67 -15 120 -15 52 0 97 -6 120 -15 22 -9 67
-15 120 -15 52 0 97 -6 120 -15 l35 -15 660 0 c489 0 665 3 681 12 12 6 56 15
97 19 71 7 122 17 200 42 19 6 53 14 75 18 92 18 328 90 379 116 17 9 49 31
70 50 22 18 56 38 76 43 21 6 54 29 80 56 25 25 67 61 93 81 77 57 93 103 57
173 -31 60 -52 70 -150 70 -115 0 -195 27 -312 103 -85 55 -93 82 -39 131 l21
19 0 67 c0 85 -14 100 -94 100 -31 0 -73 7 -93 15 -19 8 -53 15 -75 15 -23 0
-67 12 -101 28 -34 16 -74 32 -88 35 -36 9 -74 41 -65 55 4 7 24 12 44 12 20
0 55 7 78 16 l41 16 38 -16 37 -16 280 0 279 0 36 -15 c26 -11 74 -15 180 -15
105 0 153 -4 180 -15 28 -12 86 -15 285 -15 198 0 256 -3 285 -15 24 -10 71
-15 150 -15 78 0 125 -5 150 -15 27 -11 77 -15 210 -15 132 0 182 -4 210 -15
27 -11 77 -15 209 -15 137 0 182 -3 214 -16 l41 -16 42 11 c31 9 50 9 70 2 18
-7 145 -11 343 -11 l314 0 0 70 0 69 -30 16 -29 15 -461 0 -461 0 -36 15 c-27
12 -79 15 -225 15 -145 0 -197 3 -225 15 -26 11 -74 15 -180 15 -105 0 -153 4
-180 15 -23 10 -69 15 -135 15 -65 0 -111 5 -135 15 -26 11 -74 15 -180 15
-105 0 -153 4 -180 15 l-35 15 -299 0 c-188 0 -300 4 -304 10 -4 6 -163 10
-445 10 -282 0 -441 -4 -445 -10z"/>
</g>
</svg>
