<?xml version="1.0" standalone="no"?>
<!DOCTYPE svg PUBLIC "-//W3C//DTD SVG 20010904//EN"
 "http://www.w3.org/TR/2001/REC-SVG-20010904/DTD/svg10.dtd">
<svg version="1.0" xmlns="http://www.w3.org/2000/svg"
 width="609.000000pt" height="273.000000pt" viewBox="0 0 609.000000 273.000000"
 preserveAspectRatio="xMidYMid meet">
<metadata>
Created by potrace 1.16, written by Peter Selinger 2001-2019
</metadata>
<g transform="translate(0.000000,273.000000) scale(0.100000,-0.100000)"
fill="#000000" stroke="none">
<path d="M37 2702 l-37 -25 0 -52 0 -53 33 -24 c36 -28 170 -98 188 -98 20 0
136 -58 180 -89 23 -17 49 -31 58 -31 9 0 58 -20 109 -45 52 -25 99 -45 106
-45 7 0 23 -12 37 -26 26 -28 78 -57 119 -67 14 -4 47 -24 74 -47 26 -22 56
-40 65 -40 10 0 28 -12 42 -26 13 -14 45 -37 70 -50 26 -13 60 -41 77 -62 27
-34 53 -49 140 -83 12 -5 31 -24 42 -42 19 -31 83 -92 161 -150 20 -15 50 -47
65 -70 27 -39 50 -69 153 -202 21 -27 46 -66 56 -85 10 -19 33 -52 52 -74 34
-37 83 -128 83 -154 0 -7 9 -31 21 -53 11 -22 38 -93 59 -157 l40 -117 0 -90
c0 -179 -80 -329 -241 -448 -19 -15 -91 -45 -160 -67 -127 -42 -169 -69 -169
-111 l0 -19 134 0 c79 0 137 4 141 10 3 5 13 10 21 10 32 0 141 64 185 108 26
26 63 60 83 76 28 22 55 65 107 169 l70 139 -4 141 c-2 78 -9 162 -16 187 -45
156 -116 359 -135 385 -13 17 -33 49 -45 73 -30 60 -114 183 -162 238 -22 25
-48 63 -59 85 -11 21 -38 50 -60 64 -22 14 -51 43 -64 64 -33 51 -219 216
-311 275 -16 11 -50 38 -75 61 -46 43 -104 77 -152 89 -14 3 -50 28 -80 55
-52 47 -124 91 -150 91 -8 0 -54 27 -103 60 -50 33 -96 60 -104 60 -20 0 -118
49 -131 66 -7 7 -9 18 -5 24 10 16 965 14 1002 -2 20 -9 136 -15 403 -19 209
-3 403 -11 439 -18 48 -8 74 -8 98 0 24 8 42 8 65 0 20 -7 168 -11 430 -11
l399 0 36 -15 35 -15 595 0 594 0 36 -15 35 -15 689 0 689 0 0 70 0 70 -130 0
c-94 0 -141 4 -167 15 l-35 15 -385 0 -384 0 -36 15 -35 15 -910 0 -909 0 -32
13 c-25 11 -125 14 -436 16 l-405 2 -34 15 -34 14 -385 0 -384 0 -36 15 -35
15 -524 0 c-338 0 -525 4 -529 10 -3 6 -46 10 -98 9 l-92 -1 -38 -26z"/>
</g>
</svg>
