<?xml version="1.0" standalone="no"?>
<!DOCTYPE svg PUBLIC "-//W3C//DTD SVG 20010904//EN"
 "http://www.w3.org/TR/2001/REC-SVG-20010904/DTD/svg10.dtd">
<svg version="1.0" xmlns="http://www.w3.org/2000/svg"
 width="603.000000pt" height="54.000000pt" viewBox="0 0 603.000000 54.000000"
 preserveAspectRatio="xMidYMid meet">
<metadata>
Created by potrace 1.16, written by Peter Selinger 2001-2019
</metadata>
<g transform="translate(0.000000,54.000000) scale(0.100000,-0.100000)"
fill="#000000" stroke="none">
<path d="M187 533 c-15 -14 -114 -43 -149 -43 l-38 0 0 -100 c0 -63 4 -100 11
-100 5 0 39 -17 74 -39 58 -34 106 -52 245 -91 25 -7 113 -16 195 -19 90 -4
159 -11 172 -19 13 -7 60 -12 123 -12 67 0 113 -5 137 -15 20 -8 66 -15 105
-15 38 0 84 -7 105 -15 26 -11 74 -15 180 -15 105 0 153 -4 180 -15 l35 -15
419 0 c268 0 420 -4 424 -10 8 -13 162 -13 170 0 8 13 92 13 100 0 9 -14 2201
-14 2210 0 8 14 962 14 970 0 9 -14 116 -12 148 3 l27 12 0 68 0 67 -25 0
c-14 0 -42 7 -62 15 l-35 15 -1078 0 -1078 0 -37 -16 -38 -16 -41 16 c-56 21
-201 21 -251 0 l-38 -16 -41 16 -42 16 -847 0 -848 0 -36 15 c-26 11 -74 15
-180 15 -105 0 -153 4 -180 15 -24 10 -71 15 -152 15 -78 0 -121 4 -129 12 -7
7 -12 34 -12 60 l0 49 -47 50 c-53 57 -127 99 -172 99 -16 0 -33 5 -36 10 -7
11 -427 14 -438 3z m375 -167 c18 -8 47 -19 63 -26 l30 -12 -20 -9 c-32 -12
-88 -10 -115 6 -14 8 -52 15 -85 15 -33 0 -67 5 -75 10 l-15 10 15 10 c23 15
164 12 202 -4z"/>
</g>
</svg>
