<?xml version="1.0" standalone="no"?>
<!DOCTYPE svg PUBLIC "-//W3C//DTD SVG 20010904//EN"
 "http://www.w3.org/TR/2001/REC-SVG-20010904/DTD/svg10.dtd">
<svg version="1.0" xmlns="http://www.w3.org/2000/svg"
 width="792.000000pt" height="147.000000pt" viewBox="0 0 792.000000 147.000000"
 preserveAspectRatio="xMidYMid meet">
<metadata>
Created by potrace 1.16, written by Peter Selinger 2001-2019
</metadata>
<g transform="translate(0.000000,147.000000) scale(0.100000,-0.100000)"
fill="#000000" stroke="none">
<path d="M1798 1438 c-14 -18 -33 -48 -42 -66 l-17 -32 14 -48 14 -47 51 -35
c28 -19 61 -48 73 -63 11 -15 38 -36 58 -47 48 -24 155 -60 180 -60 32 0 131
-42 131 -56 0 -22 -43 -44 -86 -44 -23 0 -58 -7 -77 -15 -24 -10 -70 -15 -135
-15 -66 0 -112 -5 -135 -15 -51 -21 -303 -21 -354 0 -26 11 -76 15 -195 15
-118 0 -168 4 -195 15 -25 11 -72 15 -162 15 -145 0 -205 15 -265 68 -47 41
-74 47 -135 31 l-49 -12 -44 16 c-24 9 -61 17 -81 17 -21 0 -54 7 -74 15 -19
8 -54 15 -77 15 -54 -1 -140 -31 -171 -60 l-25 -23 0 -63 c0 -45 4 -63 15 -67
8 -4 26 -24 40 -46 19 -32 44 -50 107 -82 46 -23 96 -52 113 -64 40 -31 163
-91 200 -99 56 -12 92 -43 148 -128 64 -96 71 -104 193 -185 117 -78 192 -116
302 -152 48 -15 106 -38 129 -50 23 -11 59 -21 80 -21 36 0 135 -29 150 -43 3
-4 34 -7 68 -7 47 0 66 4 78 18 23 25 21 54 -4 86 l-20 26 -47 0 c-35 0 -58 7
-92 30 -25 16 -56 30 -70 30 -76 0 -410 157 -494 231 -68 60 -106 115 -106
154 0 43 -28 76 -87 102 -85 37 -157 65 -211 84 -93 32 -172 80 -172 104 0 21
27 25 72 10 72 -23 130 -36 193 -44 34 -5 70 -13 82 -19 12 -7 40 -12 63 -12
22 0 57 -7 77 -15 20 -8 66 -15 104 -15 37 0 80 -6 96 -12 25 -11 346 -30 473
-27 82 1 145 1 175 0 89 -3 374 16 398 27 16 7 53 12 82 12 l54 0 122 60 c67
33 129 60 138 60 10 0 30 13 46 30 33 35 82 40 142 15 26 -11 76 -15 195 -15
118 0 168 -4 195 -15 26 -11 74 -15 180 -15 105 0 153 -4 180 -15 27 -12 79
-15 225 -15 145 0 197 -3 225 -15 27 -12 79 -15 224 -15 113 0 199 -4 216 -11
15 -6 98 -13 183 -16 97 -4 168 -11 189 -19 24 -10 85 -14 223 -14 145 0 197
-3 225 -15 l35 -15 534 0 c403 0 540 -3 561 -12 19 -9 120 -15 303 -20 151 -4
284 -7 295 -7 11 -1 63 2 116 5 75 5 104 2 133 -10 48 -20 83 -20 129 -1 42
17 123 20 162 5 19 -7 39 -7 67 2 l40 12 53 -19 54 -18 40 17 c53 21 188 22
238 1 55 -23 63 -20 63 25 l0 40 -88 44 -89 45 -364 -1 c-282 -1 -371 -4 -396
-14 -46 -20 -242 -19 -290 1 -27 11 -77 15 -210 15 -132 0 -182 4 -210 15 -28
12 -86 15 -285 15 -198 0 -256 3 -285 15 -26 11 -74 15 -179 15 l-143 0 -15
16 c-19 18 -19 16 -6 49 7 18 6 40 -3 72 l-12 46 -50 37 c-89 67 -202 110
-285 110 -28 0 -67 7 -87 15 -23 10 -69 15 -132 15 -65 0 -111 5 -144 17 l-48
17 -83 -41 -83 -42 -42 -63 -43 -63 7 -30 c3 -16 7 -43 8 -60 l2 -30 -257 -3
-258 -2 -36 15 c-26 11 -73 15 -166 15 -92 0 -139 4 -165 15 -25 11 -72 15
-162 15 -81 0 -142 5 -171 14 -108 34 -145 39 -310 45 -96 3 -181 10 -188 14
-9 6 -11 26 -7 70 l6 62 -28 50 c-18 32 -42 57 -68 72 -51 28 -219 79 -298 90
-20 3 -40 9 -43 14 -3 5 -92 9 -198 9 l-194 0 -24 -32z m512 -164 c100 -34
160 -71 160 -100 0 -27 -71 -32 -127 -9 -19 8 -45 15 -57 15 -36 0 -218 67
-227 83 -17 29 17 47 84 47 45 0 92 -10 167 -36z m2517 -159 c19 -8 54 -15 77
-15 47 0 189 -61 194 -83 2 -8 -13 -20 -35 -29 -127 -53 -158 -58 -233 -33
-25 8 -62 17 -82 20 -26 4 -53 20 -89 54 -63 59 -62 81 3 82 24 0 52 4 63 9
30 13 62 12 102 -5z"/>
</g>
</svg>
