<?xml version="1.0" standalone="no"?>
<!DOCTYPE svg PUBLIC "-//W3C//DTD SVG 20010904//EN"
 "http://www.w3.org/TR/2001/REC-SVG-20010904/DTD/svg10.dtd">
<svg version="1.0" xmlns="http://www.w3.org/2000/svg"
 width="756.000000pt" height="102.000000pt" viewBox="0 0 756.000000 102.000000"
 preserveAspectRatio="xMidYMid meet">
<metadata>
Created by potrace 1.16, written by Peter Selinger 2001-2019
</metadata>
<g transform="translate(0.000000,102.000000) scale(0.100000,-0.100000)"
fill="#000000" stroke="none">
<path d="M4450 1012 c0 -4 -18 -29 -40 -56 l-40 -48 0 -41 0 -41 45 -42 c25
-23 45 -48 45 -56 0 -16 102 -118 118 -118 5 0 47 -37 94 -83 46 -46 110 -103
141 -126 64 -49 101 -101 92 -130 -16 -52 -114 -111 -183 -111 -22 0 -56 -7
-75 -15 -21 -8 -67 -15 -105 -15 -41 0 -85 -7 -107 -16 l-38 -16 -41 16 c-29
11 -76 16 -154 16 -78 0 -124 5 -149 15 -19 8 -53 15 -75 15 -21 0 -55 7 -75
15 -19 8 -61 15 -92 15 l-57 0 -29 30 c-16 16 -36 30 -45 30 -8 0 -32 11 -52
25 -20 14 -72 36 -115 50 -111 36 -132 48 -202 110 l-62 55 -63 0 c-35 0 -80
-7 -99 -15 l-36 -15 -456 0 -456 0 -36 15 -35 15 -745 0 -744 0 -36 15 c-28
12 -86 15 -289 15 l-254 0 0 -40 0 -40 48 0 c26 -1 58 -7 72 -15 19 -11 67
-14 202 -15 116 0 186 -4 205 -12 15 -7 98 -16 183 -20 199 -11 212 -11 290
-3 50 5 75 3 104 -9 l38 -16 427 0 c340 0 435 -3 471 -14 126 -40 128 -40 660
-45 l525 -6 142 -73 c79 -39 152 -72 164 -72 46 0 162 -46 206 -82 l45 -38 43
0 c24 0 47 -4 50 -10 4 -6 163 -10 445 -10 282 0 441 4 445 10 3 6 18 10 33
10 43 1 131 35 160 63 15 14 50 38 77 54 50 29 104 104 105 146 0 53 -122 207
-165 207 -9 0 -44 27 -78 60 -125 122 -153 147 -189 174 -21 16 -47 43 -58 62
-32 50 -16 70 62 78 35 4 74 7 88 6 14 0 138 -4 275 -9 l250 -8 45 -18 c52
-20 76 -23 335 -33 121 -4 198 -12 212 -19 16 -10 93 -13 288 -13 l266 0 36
-15 c49 -21 257 -21 306 0 20 8 52 15 72 15 20 0 52 -7 72 -15 49 -21 257 -21
306 0 24 10 70 15 137 15 71 0 110 5 130 15 l30 16 0 69 0 70 -119 0 c-83 0
-129 -5 -154 -15 -49 -20 -215 -20 -264 0 l-35 15 -700 0 -699 0 -36 15 c-20
8 -66 15 -105 15 -38 0 -84 7 -105 15 -26 11 -76 15 -199 15 -98 0 -165 4
-169 10 -7 12 -525 14 -525 2z"/>
</g>
</svg>
