<?xml version="1.0" standalone="no"?>
<!DOCTYPE svg PUBLIC "-//W3C//DTD SVG 20010904//EN"
 "http://www.w3.org/TR/2001/REC-SVG-20010904/DTD/svg10.dtd">
<svg version="1.0" xmlns="http://www.w3.org/2000/svg"
 width="786.000000pt" height="132.000000pt" viewBox="0 0 786.000000 132.000000"
 preserveAspectRatio="xMidYMid meet">
<metadata>
Created by potrace 1.16, written by Peter Selinger 2001-2019
</metadata>
<g transform="translate(0.000000,132.000000) scale(0.100000,-0.100000)"
fill="#000000" stroke="none">
<path d="M4325 1310 c-3 -5 -27 -10 -53 -10 -59 0 -119 -33 -145 -78 l-20 -34
18 -36 c9 -21 33 -59 52 -85 l35 -48 99 -50 c54 -27 110 -49 125 -49 14 0 55
-13 91 -30 35 -16 76 -30 90 -30 46 0 91 -31 174 -121 86 -93 179 -165 233
-180 17 -5 53 -27 80 -49 26 -22 56 -40 65 -40 9 0 36 -14 61 -30 25 -16 56
-30 70 -30 33 0 58 -16 45 -29 -15 -15 -187 -101 -201 -101 -7 0 -41 -13 -76
-30 l-63 -30 -71 0 c-41 0 -87 -6 -107 -15 -20 -8 -61 -15 -90 -15 -30 0 -71
-7 -90 -15 -20 -8 -54 -15 -75 -15 -22 0 -56 -7 -75 -15 -24 -10 -70 -15 -135
-15 -66 0 -112 -5 -135 -15 -46 -19 -98 -19 -144 0 -46 20 -170 20 -216 0
l-36 -15 -321 0 -321 0 -36 15 c-26 11 -76 15 -195 15 -118 0 -168 4 -195 15
-23 10 -69 15 -137 15 l-102 0 -29 30 -29 30 -133 0 c-96 0 -144 4 -170 15
-19 8 -45 15 -56 15 -31 0 -148 41 -179 62 l-28 19 0 45 c0 26 -9 62 -22 87
-12 23 -27 60 -33 82 -13 43 -58 82 -104 90 -14 3 -44 10 -66 17 -22 6 -83 13
-136 15 l-97 4 -79 -40 c-45 -22 -94 -56 -112 -77 l-33 -37 4 -71 3 -71 -142
-3 c-110 -2 -151 1 -179 13 -20 8 -61 15 -91 15 -29 0 -70 7 -90 15 -26 11
-74 15 -180 15 -105 0 -153 4 -180 15 -19 8 -53 15 -75 15 -21 0 -55 7 -75 15
-45 19 -81 19 -126 0 -20 -8 -48 -15 -62 -15 l-25 0 0 -27 c0 -37 46 -83 82
-83 16 0 45 -7 65 -15 26 -11 76 -15 195 -15 118 0 168 -4 195 -15 19 -8 60
-15 90 -15 29 0 70 -7 90 -15 19 -8 61 -15 92 -15 l57 0 29 -30 29 -30 163 0
c123 0 173 -4 200 -15 l35 -15 295 0 294 0 36 -15 c19 -8 53 -15 75 -15 21 0
55 -7 75 -15 19 -8 53 -15 75 -15 21 0 55 -7 75 -15 22 -9 68 -15 120 -15 l85
0 35 -30 34 -30 194 0 c118 0 196 -4 200 -10 9 -14 1481 -14 1490 0 3 6 51 10
109 10 69 0 115 5 139 15 24 10 70 15 134 15 l98 0 85 30 c46 17 92 30 102 30
24 0 306 95 373 125 30 14 67 25 83 25 29 0 62 26 62 50 0 7 20 31 45 54 l45
42 0 56 c0 87 -39 107 -140 71 l-48 -17 -122 39 c-95 31 -132 48 -165 77 -24
21 -48 38 -55 38 -23 0 -97 40 -124 67 -40 39 -66 99 -66 154 0 49 -11 64 -67
93 -23 11 -60 16 -130 16 -99 0 -184 20 -239 55 l-22 14 5 48 c8 66 16 73 83
73 32 0 74 7 93 15 24 10 70 15 132 15 62 0 108 -5 132 -15 l35 -15 265 0 264
0 36 -15 c19 -8 53 -15 75 -15 21 0 55 -7 75 -15 19 -8 53 -15 74 -15 21 0 50
-5 65 -10 19 -7 37 -7 60 0 25 9 40 8 69 -5 29 -11 77 -15 211 -15 116 0 182
-4 201 -12 20 -9 138 -15 413 -19 382 -6 644 -24 687 -47 34 -19 316 -16 353
3 l30 16 0 39 0 39 -30 16 c-22 11 -64 15 -175 15 -107 0 -155 4 -182 15 -19
8 -60 15 -90 15 -29 0 -70 7 -90 15 l-35 15 -295 0 -294 0 -36 15 c-27 12 -79
15 -225 15 -145 0 -197 3 -225 15 -27 12 -81 15 -240 15 -158 0 -212 3 -240
15 -24 10 -70 15 -139 15 -58 0 -106 4 -109 10 -4 6 -203 10 -565 10 -362 0
-561 -4 -565 -10z m-2725 -829 c30 -10 60 -27 67 -37 17 -23 17 -53 -1 -60
-24 -9 -120 25 -156 55 l-35 28 14 17 c18 21 45 20 111 -3z"/>
</g>
</svg>
