<?xml version="1.0" standalone="no"?>
<!DOCTYPE svg PUBLIC "-//W3C//DTD SVG 20010904//EN"
 "http://www.w3.org/TR/2001/REC-SVG-20010904/DTD/svg10.dtd">
<svg version="1.0" xmlns="http://www.w3.org/2000/svg"
 width="564.000000pt" height="210.000000pt" viewBox="0 0 564.000000 210.000000"
 preserveAspectRatio="xMidYMid meet">
<metadata>
Created by potrace 1.16, written by Peter Selinger 2001-2019
</metadata>
<g transform="translate(0.000000,210.000000) scale(0.100000,-0.100000)"
fill="#000000" stroke="none">
<path d="M125 2090 c-3 -5 -16 -10 -27 -10 -12 0 -38 -18 -60 -42 l-38 -41 0
-110 0 -110 142 -142 c79 -78 179 -169 223 -202 44 -33 86 -68 94 -77 7 -9 20
-16 28 -16 25 0 86 -32 132 -69 90 -71 156 -111 186 -111 35 0 61 -16 127 -77
26 -24 54 -43 63 -43 15 0 89 -40 192 -105 59 -36 153 -125 153 -144 0 -9 41
-77 90 -151 50 -74 90 -141 90 -150 0 -9 14 -29 30 -45 37 -36 90 -116 90
-137 0 -14 119 -170 140 -183 6 -3 10 -16 10 -27 0 -12 18 -38 42 -60 52 -48
91 -51 113 -8 27 51 20 92 -26 146 -22 27 -65 98 -95 158 -31 60 -71 131 -89
158 -50 72 -60 149 -22 156 10 2 36 -8 58 -22 21 -14 74 -37 116 -51 98 -32
170 -66 224 -105 24 -17 55 -30 71 -30 17 0 59 -13 95 -30 35 -16 69 -30 75
-30 6 0 50 -18 97 -41 47 -22 115 -50 151 -61 36 -12 79 -34 95 -50 17 -15 37
-28 44 -28 23 0 83 -33 171 -92 47 -32 96 -58 109 -58 15 0 40 16 67 44 75 74
56 118 -77 180 -46 21 -91 42 -99 46 -8 4 -16 17 -18 28 -2 13 -30 42 -65 69
-68 53 -217 202 -217 218 0 6 22 23 50 38 61 34 80 60 80 110 0 29 -7 46 -29
68 l-29 29 -59 0 c-32 0 -78 6 -103 14 -69 22 -131 37 -172 43 -22 3 -47 16
-64 34 -15 16 -34 29 -41 29 -24 0 -98 38 -118 60 l-19 21 14 9 c8 6 100 10
203 10 144 0 196 -3 224 -15 25 -11 72 -15 165 -15 92 0 139 -4 165 -15 24
-10 71 -15 150 -15 78 0 125 -5 150 -15 l35 -15 535 0 534 0 36 -15 c19 -8 59
-15 89 -15 29 0 65 -6 81 -12 17 -8 106 -15 223 -20 107 -3 229 -11 270 -17
41 -5 194 -10 339 -10 l265 -1 28 27 c22 21 28 36 28 70 l0 43 -190 0 c-151 0
-198 3 -230 16 l-41 16 -42 -11 c-31 -9 -50 -9 -70 -2 -17 7 -125 11 -275 11
-185 0 -258 3 -292 14 -118 37 -141 40 -435 45 -212 4 -306 10 -322 19 -16 9
-90 12 -273 12 -200 0 -258 3 -287 15 -25 11 -72 15 -165 15 -92 0 -139 4
-165 15 -26 11 -74 15 -180 15 -105 0 -153 4 -180 15 -27 12 -80 15 -234 15
-115 0 -217 5 -241 11 l-43 11 -57 -16 c-86 -26 -122 -54 -126 -98 -4 -49 39
-134 80 -156 16 -9 48 -30 70 -47 89 -67 103 -75 138 -85 20 -5 72 -27 116
-49 44 -21 93 -41 109 -45 17 -4 41 -15 53 -25 l24 -17 -12 -42 -13 -41 16
-40 c15 -37 14 -71 -2 -71 -28 0 -221 72 -310 116 -61 30 -116 54 -122 54 -6
0 -40 14 -76 30 -35 17 -69 30 -74 30 -6 0 -40 18 -77 40 -36 22 -83 45 -103
50 -40 11 -71 26 -105 50 -23 16 -104 131 -133 189 -11 20 -31 47 -45 60 -14
14 -26 31 -26 38 0 23 -41 95 -80 143 -21 25 -48 65 -60 90 -12 25 -32 59 -45
75 -12 17 -32 49 -43 72 -12 23 -39 54 -61 70 -22 15 -53 49 -70 75 -17 25
-45 57 -62 70 -18 12 -53 44 -78 69 -25 26 -64 56 -86 67 -22 11 -68 45 -103
76 -50 45 -70 56 -97 56 -19 0 -37 5 -40 10 -4 6 -73 10 -175 10 -102 0 -171
-4 -175 -10z m295 -156 c108 -36 144 -58 217 -128 174 -167 230 -232 272 -312
22 -44 61 -102 86 -131 25 -28 45 -57 45 -65 0 -7 9 -28 20 -46 34 -55 27 -67
-23 -37 -24 14 -49 25 -56 25 -21 0 -243 135 -317 193 -23 18 -75 59 -115 92
-41 33 -109 84 -153 113 -43 29 -107 79 -142 110 l-63 57 -1 57 0 57 28 19
c58 41 72 40 202 -4z"/>
</g>
</svg>
