<?xml version="1.0" standalone="no"?>
<!DOCTYPE svg PUBLIC "-//W3C//DTD SVG 20010904//EN"
 "http://www.w3.org/TR/2001/REC-SVG-20010904/DTD/svg10.dtd">
<svg version="1.0" xmlns="http://www.w3.org/2000/svg"
 width="651.000000pt" height="180.000000pt" viewBox="0 0 651.000000 180.000000"
 preserveAspectRatio="xMidYMid meet">
<metadata>
Created by potrace 1.16, written by Peter Selinger 2001-2019
</metadata>
<g transform="translate(0.000000,180.000000) scale(0.100000,-0.100000)"
fill="#000000" stroke="none">
<path d="M70 1791 c0 -4 -16 -29 -35 -54 -41 -53 -44 -82 -12 -132 12 -19 31
-50 42 -68 11 -17 34 -36 50 -41 17 -5 58 -22 93 -38 35 -15 68 -28 74 -28 5
0 39 -13 75 -30 36 -17 81 -30 103 -30 21 0 51 -5 67 -12 15 -6 69 -14 119
-18 l92 -6 33 -27 c19 -15 67 -53 107 -83 39 -31 72 -62 72 -70 0 -7 21 -55
46 -106 51 -104 54 -142 15 -197 -21 -29 -132 -91 -163 -91 -21 0 -48 -32 -48
-57 0 -26 26 -47 78 -62 l42 -12 86 43 c69 34 94 53 124 93 65 86 80 126 80
208 l0 74 -41 87 -40 87 11 15 c23 26 153 18 250 -16 47 -16 102 -30 122 -30
20 0 49 -5 64 -10 19 -7 37 -7 60 0 25 9 40 8 69 -5 24 -9 68 -15 122 -15 52
0 97 -6 120 -15 19 -8 54 -15 77 -15 22 -1 57 -8 76 -18 72 -35 166 -105 193
-142 15 -22 51 -52 80 -67 28 -15 61 -42 72 -60 11 -18 29 -47 40 -65 13 -20
32 -35 52 -40 18 -5 40 -20 50 -35 10 -14 41 -49 68 -78 28 -28 68 -77 88
-108 45 -68 60 -77 125 -77 53 0 67 10 97 69 l17 34 -31 44 c-59 83 -38 122
29 55 l40 -40 0 -46 c0 -75 79 -207 169 -283 58 -50 187 -139 251 -174 25 -13
63 -36 84 -51 21 -16 47 -28 57 -28 10 0 21 -4 24 -10 9 -14 120 -13 148 2 12
6 29 14 37 18 23 11 60 81 60 115 0 17 -11 59 -23 95 l-23 65 -42 28 c-24 16
-54 46 -67 67 -13 20 -43 54 -66 74 -30 25 -40 39 -32 47 7 7 162 10 479 10
l469 -1 85 -30 85 -30 173 0 c130 0 181 -4 209 -15 l35 -15 265 0 264 0 36
-15 c24 -10 71 -15 150 -15 78 0 125 -5 150 -15 20 -8 66 -15 105 -15 38 0 84
-7 105 -15 19 -8 53 -15 74 -15 21 0 50 -5 64 -10 27 -10 96 4 144 30 31 16
27 60 -7 93 l-28 27 -87 0 c-55 0 -101 6 -124 15 -19 8 -53 15 -75 15 -21 0
-55 7 -75 15 -26 11 -76 15 -195 15 -118 0 -168 4 -195 15 -26 11 -74 15 -180
15 -105 0 -153 4 -180 15 -26 11 -76 15 -195 15 -118 0 -168 4 -195 15 -26 11
-76 15 -195 15 -118 0 -168 4 -195 15 l-35 15 -475 0 -474 0 -36 15 c-23 10
-69 15 -137 15 l-101 0 -45 30 c-25 16 -51 30 -59 30 -18 0 -144 63 -211 106
-30 19 -64 36 -75 38 -11 3 -45 10 -76 16 -43 10 -65 10 -89 1 -96 -33 -190 9
-262 119 -16 23 -38 40 -68 50 -32 11 -52 27 -73 57 -15 23 -42 52 -58 65 -31
23 -76 67 -123 121 l-25 27 -49 0 c-27 0 -66 -7 -85 -15 -52 -21 -362 -21
-414 0 -20 8 -66 15 -105 15 -38 0 -84 7 -105 15 -20 8 -66 15 -105 15 -38 0
-84 7 -105 15 -19 8 -59 15 -87 15 -28 0 -71 7 -96 15 -25 8 -61 17 -81 20
-23 3 -53 20 -80 44 -24 21 -58 41 -76 45 -17 4 -51 24 -75 45 -41 37 -155
101 -179 101 -6 0 -38 13 -72 28 -34 16 -75 32 -91 36 -17 4 -42 16 -57 27
l-27 19 -91 0 c-50 0 -91 -4 -91 -9z m3313 -1358 c75 -48 115 -83 173 -149
l57 -65 -16 -16 -16 -16 -43 29 c-24 16 -48 31 -53 34 -67 32 -175 149 -175
190 0 27 22 25 73 -7z"/>
</g>
</svg>
