<?xml version="1.0" standalone="no"?>
<!DOCTYPE svg PUBLIC "-//W3C//DTD SVG 20010904//EN"
 "http://www.w3.org/TR/2001/REC-SVG-20010904/DTD/svg10.dtd">
<svg version="1.0" xmlns="http://www.w3.org/2000/svg"
 width="879.000000pt" height="150.000000pt" viewBox="0 0 879.000000 150.000000"
 preserveAspectRatio="xMidYMid meet">
<metadata>
Created by potrace 1.16, written by Peter Selinger 2001-2019
</metadata>
<g transform="translate(0.000000,150.000000) scale(0.100000,-0.100000)"
fill="#000000" stroke="none">
<path d="M180 1490 c-8 -5 -37 -17 -64 -27 -31 -12 -60 -33 -82 -59 l-34 -41
0 -99 0 -100 34 -32 c19 -17 40 -51 48 -74 10 -33 25 -50 66 -79 30 -20 70
-52 90 -72 38 -35 110 -77 135 -77 7 0 24 -12 38 -26 25 -27 89 -64 111 -64 7
0 42 -14 76 -30 35 -17 73 -30 84 -30 30 0 494 -156 556 -186 29 -15 62 -40
73 -56 12 -16 38 -40 59 -53 22 -14 57 -54 85 -97 115 -176 253 -272 299 -206
l15 21 -14 35 c-8 18 -38 59 -67 90 -63 70 -94 133 -78 162 l11 20 70 0 c39 0
85 -7 106 -15 l35 -15 295 0 294 0 36 -15 c25 -11 72 -15 165 -15 92 0 139 -4
165 -15 48 -20 198 -20 246 0 28 12 80 15 225 15 146 0 198 3 225 15 25 10 72
15 150 15 79 0 126 5 150 15 20 8 59 15 87 15 35 0 104 18 228 60 l179 60 70
0 70 0 39 29 c22 15 89 52 149 82 85 43 118 65 154 106 53 61 77 66 134 27 21
-14 84 -48 140 -76 56 -28 123 -68 148 -89 29 -24 74 -47 115 -60 38 -12 82
-34 97 -48 16 -14 76 -51 135 -81 l106 -55 29 -43 c16 -23 46 -51 66 -62 21
-10 62 -40 92 -65 30 -26 72 -58 95 -71 23 -13 60 -47 83 -74 l42 -50 44 0 44
0 16 30 c21 41 19 83 -9 138 -29 57 -40 67 -91 84 -28 9 -48 26 -68 56 -16 23
-41 49 -55 56 -39 21 -85 73 -79 89 3 8 22 22 42 31 l37 18 42 -16 c54 -21
139 -20 194 1 l44 17 44 -12 c30 -8 52 -9 69 -2 15 6 149 10 316 10 l290 0 36
-15 35 -15 282 0 281 0 45 -30 45 -30 148 0 c109 0 157 -4 184 -15 52 -22 524
-22 576 0 21 9 67 15 107 15 44 0 82 6 100 15 l30 16 0 54 0 55 -209 0 -209 0
-37 -16 -38 -16 -41 16 c-33 13 -85 16 -259 16 -171 0 -225 3 -254 15 -26 11
-74 15 -180 15 -105 0 -153 4 -180 15 l-35 15 -280 0 -279 0 -36 15 c-45 19
-81 19 -126 0 l-36 -15 -276 0 -276 0 -36 15 c-46 19 -140 19 -186 0 -20 -8
-66 -15 -104 -15 -37 0 -86 -7 -109 -16 l-41 -16 -44 21 c-24 11 -66 38 -93
60 -26 23 -55 41 -63 41 -31 0 -102 41 -161 94 -35 31 -70 56 -78 56 -46 0
-179 93 -234 163 -25 31 -89 67 -120 67 -63 0 -160 -87 -160 -144 0 -65 -135
-206 -197 -206 -26 0 -223 -64 -266 -86 -59 -31 -174 -64 -223 -64 -28 0 -68
-7 -87 -15 -21 -8 -67 -15 -105 -15 -39 0 -85 -7 -105 -15 -24 -10 -70 -15
-135 -15 -66 0 -112 -5 -135 -15 -25 -10 -72 -15 -150 -15 -79 0 -126 -5 -150
-15 -49 -20 -215 -20 -264 0 -27 11 -77 15 -210 15 -132 0 -182 4 -210 15 -27
11 -77 15 -210 15 -132 0 -182 4 -210 15 -22 9 -67 15 -120 15 -52 0 -97 6
-120 15 -22 9 -68 15 -123 15 l-87 0 -39 28 c-47 34 -104 97 -138 151 -14 22
-46 56 -71 77 -25 21 -45 44 -45 52 0 22 -37 86 -64 111 -14 14 -26 32 -26 41
0 17 -117 170 -129 170 -4 0 -35 25 -69 55 -90 82 -367 215 -446 215 -14 0
-28 5 -31 10 -8 12 -244 12 -265 0z m207 -135 c19 -8 47 -15 60 -15 14 0 54
-13 90 -30 35 -16 70 -30 76 -30 19 0 114 -69 132 -96 8 -13 33 -35 54 -48 23
-15 59 -55 87 -98 27 -40 67 -96 89 -125 137 -176 139 -183 70 -183 -25 0 -62
7 -82 15 -19 8 -45 15 -57 15 -33 0 -134 38 -175 66 -19 13 -49 24 -66 24 -38
1 -78 21 -185 91 -47 31 -105 68 -130 81 -41 22 -65 49 -135 149 -17 24 -27
52 -28 80 l-2 44 75 37 c41 21 79 38 83 38 4 0 24 -7 44 -15z"/>
</g>
</svg>
