<?xml version="1.0" standalone="no"?>
<!DOCTYPE svg PUBLIC "-//W3C//DTD SVG 20010904//EN"
 "http://www.w3.org/TR/2001/REC-SVG-20010904/DTD/svg10.dtd">
<svg version="1.0" xmlns="http://www.w3.org/2000/svg"
 width="609.000000pt" height="162.000000pt" viewBox="0 0 609.000000 162.000000"
 preserveAspectRatio="xMidYMid meet">
<metadata>
Created by potrace 1.16, written by Peter Selinger 2001-2019
</metadata>
<g transform="translate(0.000000,162.000000) scale(0.100000,-0.100000)"
fill="#000000" stroke="none">
<path d="M245 1610 c-3 -5 -38 -10 -77 -10 -41 0 -90 -7 -119 -17 l-49 -18 0
-67 0 -68 74 0 c43 0 89 6 109 15 28 12 80 15 222 15 142 0 194 -3 222 -15 24
-10 70 -15 146 -15 l111 0 133 -45 c73 -25 141 -45 151 -45 10 0 56 -13 102
-30 47 -16 101 -30 120 -30 55 0 170 -44 214 -81 41 -34 122 -68 166 -69 14 0
45 -14 70 -30 25 -16 52 -30 60 -30 8 0 57 -20 108 -45 52 -25 99 -45 106 -45
6 0 49 -25 94 -55 93 -62 144 -89 184 -99 15 -3 39 -22 54 -41 15 -20 57 -51
96 -72 38 -19 78 -49 89 -64 11 -16 44 -44 72 -63 29 -19 109 -93 178 -163 96
-98 135 -145 164 -202 22 -42 63 -98 97 -132 32 -32 58 -66 58 -74 0 -12 13
-15 58 -15 l58 0 22 39 22 38 -61 92 c-34 51 -68 113 -75 138 -8 25 -25 61
-39 80 -40 52 -57 100 -45 123 l11 20 385 0 385 0 36 -15 c22 -9 67 -15 120
-15 52 0 97 -6 120 -15 22 -9 67 -15 120 -15 52 0 97 -6 120 -15 20 -8 66 -15
105 -15 38 0 84 -7 105 -15 20 -8 66 -15 104 -15 37 0 80 -5 96 -12 15 -6 71
-15 123 -20 52 -4 115 -10 140 -13 25 -3 117 -8 205 -13 95 -4 169 -12 182
-20 16 -9 93 -12 279 -12 l258 0 28 27 c38 37 38 77 -2 98 l-29 15 -311 0
-311 0 -36 15 c-25 11 -72 15 -165 15 -92 0 -139 4 -165 15 -20 9 -66 15 -107
15 l-71 0 -63 30 -64 30 -129 0 c-93 0 -140 4 -166 15 -24 10 -71 15 -150 15
-78 0 -125 5 -150 15 -22 9 -67 15 -120 15 -52 0 -97 6 -120 15 -25 11 -72 15
-165 15 -92 0 -139 4 -165 15 -28 12 -85 15 -274 15 l-238 0 -64 -30 c-36 -16
-68 -30 -72 -30 -26 0 -106 51 -163 103 -83 77 -153 126 -196 138 -18 5 -50
24 -73 44 -22 19 -73 51 -114 71 -41 20 -87 47 -104 59 -35 27 -229 125 -246
125 -7 0 -51 18 -98 41 -47 22 -122 52 -165 66 -43 14 -114 43 -158 64 -43 22
-84 39 -91 39 -7 0 -41 14 -75 30 -35 17 -75 30 -88 30 -14 0 -41 7 -61 15
-19 8 -53 15 -75 15 -21 0 -55 7 -75 15 -19 8 -52 15 -72 15 -20 0 -75 13
-121 30 -47 16 -102 30 -123 30 -21 0 -54 7 -74 15 -22 9 -68 15 -124 15 -48
0 -91 5 -94 10 -4 6 -63 10 -145 10 -82 0 -141 -4 -145 -10z"/>
</g>
</svg>
