<?xml version="1.0" standalone="no"?>
<!DOCTYPE svg PUBLIC "-//W3C//DTD SVG 20010904//EN"
 "http://www.w3.org/TR/2001/REC-SVG-20010904/DTD/svg10.dtd">
<svg version="1.0" xmlns="http://www.w3.org/2000/svg"
 width="840.000000pt" height="129.000000pt" viewBox="0 0 840.000000 129.000000"
 preserveAspectRatio="xMidYMid meet">
<metadata>
Created by potrace 1.16, written by Peter Selinger 2001-2019
</metadata>
<g transform="translate(0.000000,129.000000) scale(0.100000,-0.100000)"
fill="#000000" stroke="none">
<path d="M37 1262 l-37 -25 0 -98 0 -97 24 -6 c14 -3 59 -38 100 -76 42 -39
84 -70 93 -70 10 0 32 -9 48 -21 102 -69 258 -129 336 -129 35 0 70 -9 116
-30 35 -16 74 -30 86 -30 12 0 42 -6 67 -14 98 -31 139 -39 240 -45 58 -4 115
-12 127 -19 15 -8 88 -12 245 -12 l224 0 29 -30 29 -30 572 0 572 0 35 15 c21
9 67 15 107 15 39 0 81 6 93 12 13 8 82 15 172 19 83 3 170 12 195 19 119 33
172 52 251 89 47 23 94 41 103 41 9 0 57 38 106 84 48 46 98 87 109 91 12 3
36 -1 58 -12 47 -22 159 -97 194 -130 14 -13 42 -28 62 -34 23 -6 47 -23 64
-45 14 -20 53 -49 85 -65 32 -16 75 -44 96 -62 59 -51 135 -111 163 -129 14
-9 63 -48 107 -87 45 -38 90 -76 101 -83 10 -7 33 -34 50 -61 18 -26 45 -54
60 -61 40 -21 89 -75 103 -113 l12 -33 71 0 71 0 19 55 c22 65 15 87 -40 131
-36 29 -59 51 -147 144 -51 53 -60 83 -29 100 33 17 384 13 428 -5 27 -12 81
-15 240 -15 158 0 212 -3 240 -15 27 -11 78 -15 212 -15 l176 0 45 -30 45 -30
163 0 c122 0 172 -4 199 -15 l35 -15 562 0 562 0 84 -30 c64 -22 103 -30 158
-30 l72 0 0 85 c0 95 0 94 -68 68 l-44 -17 -47 13 c-73 20 -95 22 -297 20
l-190 -1 -38 16 -38 16 -220 0 c-172 0 -226 3 -255 15 -28 12 -82 15 -255 15
-172 0 -226 3 -255 15 -26 11 -76 15 -195 15 -118 0 -168 4 -195 15 -27 12
-79 15 -225 15 -145 0 -197 3 -225 15 -27 12 -81 15 -239 15 -128 0 -213 4
-231 11 -15 7 -97 14 -181 16 l-154 4 -43 -16 -43 -17 -68 32 c-38 17 -91 49
-119 71 -27 21 -76 60 -109 85 -32 26 -73 50 -91 55 -18 5 -61 34 -94 64 -34
30 -70 55 -80 55 -9 0 -28 12 -42 26 -13 14 -76 60 -139 102 -63 42 -139 98
-168 124 -29 27 -61 48 -73 48 -23 0 -75 -25 -101 -48 l-18 -15 0 -92 0 -93
-52 -39 c-95 -70 -152 -99 -253 -131 -136 -42 -197 -54 -228 -47 -27 7 -96 -5
-177 -31 -28 -9 -87 -14 -156 -14 -77 0 -123 -5 -147 -15 l-36 -15 -499 0
-498 0 -84 30 c-68 24 -102 30 -168 30 -50 0 -97 6 -119 15 -23 10 -69 15
-135 15 -65 0 -111 5 -135 15 -22 9 -67 15 -117 15 -65 0 -99 6 -166 30 -47
16 -94 30 -105 30 -21 0 -111 29 -132 43 -7 5 -13 28 -13 53 0 32 -11 67 -39
123 l-40 79 -60 40 c-80 55 -163 82 -250 82 -38 0 -73 5 -76 10 -12 20 -98 9
-138 -18z m258 -157 c103 -31 154 -71 139 -108 -11 -30 -36 -26 -110 18 -40
25 -78 45 -83 45 -15 0 -33 29 -27 45 7 19 18 19 81 0z"/>
</g>
</svg>
