<?xml version="1.0" standalone="no"?>
<!DOCTYPE svg PUBLIC "-//W3C//DTD SVG 20010904//EN"
 "http://www.w3.org/TR/2001/REC-SVG-20010904/DTD/svg10.dtd">
<svg version="1.0" xmlns="http://www.w3.org/2000/svg"
 width="825.000000pt" height="183.000000pt" viewBox="0 0 825.000000 183.000000"
 preserveAspectRatio="xMidYMid meet">
<metadata>
Created by potrace 1.16, written by Peter Selinger 2001-2019
</metadata>
<g transform="translate(0.000000,183.000000) scale(0.100000,-0.100000)"
fill="#000000" stroke="none">
<path d="M0 1794 c0 -41 38 -97 81 -119 15 -8 62 -46 103 -85 42 -38 84 -70
95 -70 11 0 39 -16 63 -35 52 -42 180 -110 227 -120 21 -4 52 -27 87 -61 41
-42 60 -54 84 -54 30 0 108 -40 210 -108 27 -17 85 -43 127 -57 91 -29 114
-40 167 -77 21 -16 45 -28 53 -28 8 0 44 -14 80 -30 35 -17 69 -30 75 -30 7 0
67 -27 135 -60 69 -33 130 -60 137 -60 7 0 25 -14 41 -30 16 -16 36 -30 45
-30 9 0 29 -14 45 -30 16 -17 35 -30 43 -30 7 0 43 -13 79 -30 35 -16 69 -30
76 -30 6 0 79 -33 161 -73 83 -41 162 -77 176 -80 14 -3 43 -22 65 -40 49 -42
116 -77 147 -77 28 0 123 -32 196 -66 29 -13 57 -24 63 -24 6 0 40 -14 76 -30
35 -17 75 -30 89 -30 14 0 41 -7 61 -15 19 -8 59 -15 87 -15 51 0 131 -23 212
-60 87 -40 164 -60 229 -60 36 0 82 -7 102 -15 27 -12 80 -15 229 -15 118 0
195 -4 199 -10 8 -13 547 -14 561 0 5 5 99 11 209 13 111 2 218 9 240 15 22 6
51 14 65 16 14 3 50 21 80 40 30 19 78 47 105 62 28 15 80 55 117 90 79 74
105 83 169 61 29 -11 78 -17 128 -17 50 0 96 -6 118 -15 20 -8 66 -15 105 -15
38 0 84 -7 105 -15 26 -11 74 -15 177 -15 l142 0 84 -30 85 -30 808 0 807 0 0
54 0 54 -42 31 -42 31 -107 0 c-72 0 -118 -5 -142 -15 l-36 -15 -576 0 -576 0
-36 15 c-19 8 -53 15 -75 15 -21 0 -55 7 -75 15 -27 12 -81 15 -240 15 -158 0
-212 3 -240 15 -20 8 -66 15 -105 15 -38 0 -84 7 -105 15 -19 8 -61 15 -92 15
-58 0 -119 23 -132 51 -3 8 -18 40 -32 71 -19 41 -38 64 -66 82 -21 14 -49 39
-61 56 -29 40 -164 108 -319 159 -67 22 -138 52 -158 66 l-38 25 -93 0 -93 0
-42 -21 c-58 -29 -137 -107 -137 -137 0 -12 9 -39 19 -60 22 -43 115 -126 151
-135 14 -3 47 -24 74 -47 26 -22 55 -40 63 -40 8 0 42 -13 76 -28 34 -15 117
-46 185 -67 67 -22 132 -47 144 -56 l21 -17 -13 -31 c-16 -40 -49 -62 -130
-88 -81 -26 -129 -35 -205 -39 -99 -4 -218 -20 -248 -32 -19 -8 -120 -12 -318
-12 l-290 0 -36 15 c-22 9 -67 15 -120 15 -52 0 -97 6 -120 15 -20 8 -66 15
-105 15 -38 0 -84 7 -105 15 -19 8 -48 15 -62 15 -15 0 -36 6 -47 14 l-19 14
18 64 c28 94 32 152 13 198 -9 22 -16 53 -16 68 0 18 -11 38 -30 57 -16 15
-50 59 -75 96 -25 37 -58 77 -73 89 -15 11 -56 43 -91 70 -38 30 -74 50 -90
50 -14 0 -85 20 -158 45 -73 25 -141 45 -151 45 -10 0 -56 13 -102 30 -62 21
-104 30 -153 30 -37 0 -84 7 -104 15 -46 20 -170 20 -216 0 -20 -8 -49 -15
-65 -15 -20 0 -40 -13 -74 -47 -44 -46 -108 -156 -108 -187 0 -9 -9 -20 -20
-26 -25 -14 -66 4 -170 76 -79 54 -152 94 -170 94 -6 0 -40 17 -75 39 -36 21
-103 51 -149 65 -46 15 -148 58 -225 97 -78 38 -147 69 -154 69 -7 0 -30 12
-51 26 -22 15 -114 65 -205 111 -91 47 -191 100 -221 119 -30 19 -71 39 -91
44 -19 5 -53 25 -76 44 -22 20 -73 52 -114 72 -87 43 -139 82 -159 118 l-13
26 -69 0 -68 0 0 -36z m2427 -859 c25 -11 72 -15 165 -15 92 0 139 -4 165 -15
19 -8 47 -15 60 -15 14 0 54 -13 90 -30 35 -16 69 -30 75 -30 5 0 37 -13 71
-28 34 -16 74 -32 89 -35 15 -4 35 -19 45 -34 10 -15 46 -56 81 -90 72 -73 82
-93 82 -169 l0 -55 -25 -24 -24 -25 -86 0 c-53 0 -99 6 -122 15 -19 8 -52 15
-72 15 -72 0 -241 71 -241 101 0 5 25 20 55 35 65 32 78 46 93 99 9 30 9 49 0
80 -16 57 -31 70 -93 85 l-55 13 -40 -18 c-60 -27 -110 -87 -110 -131 0 -38
19 -83 44 -103 20 -17 20 -31 0 -31 -22 0 -184 81 -266 133 -65 41 -161 141
-174 180 -10 31 21 63 83 84 73 26 67 26 110 8z m2640 -225 c67 -33 134 -60
149 -60 60 0 134 -62 134 -112 l0 -18 -58 0 c-91 0 -234 55 -301 115 -21 19
-44 35 -50 35 -20 0 -97 38 -111 55 -21 26 5 45 63 45 l51 0 123 -60z"/>
</g>
</svg>
