<?xml version="1.0" standalone="no"?>
<!DOCTYPE svg PUBLIC "-//W3C//DTD SVG 20010904//EN"
 "http://www.w3.org/TR/2001/REC-SVG-20010904/DTD/svg10.dtd">
<svg version="1.0" xmlns="http://www.w3.org/2000/svg"
 width="666.000000pt" height="231.000000pt" viewBox="0 0 666.000000 231.000000"
 preserveAspectRatio="xMidYMid meet">
<metadata>
Created by potrace 1.16, written by Peter Selinger 2001-2019
</metadata>
<g transform="translate(0.000000,231.000000) scale(0.100000,-0.100000)"
fill="#000000" stroke="none">
<path d="M605 2300 c-3 -5 -32 -10 -64 -10 -32 0 -75 -7 -94 -15 -20 -8 -49
-15 -64 -15 -17 0 -67 -27 -137 -74 l-111 -74 -41 -64 c-62 -93 -74 -122 -74
-172 0 -25 -4 -48 -10 -51 -13 -8 -13 -192 0 -200 6 -3 10 -32 10 -64 0 -32 7
-75 15 -94 8 -20 15 -49 15 -64 0 -32 199 -335 237 -360 14 -9 38 -41 55 -70
17 -30 45 -65 63 -78 17 -14 44 -47 58 -74 32 -58 41 -66 92 -83 27 -9 48 -27
70 -58 18 -26 44 -49 61 -55 17 -5 59 -40 93 -78 35 -37 75 -70 90 -74 14 -3
49 -26 76 -50 49 -43 210 -133 237 -133 8 0 25 -12 39 -26 32 -35 119 -78 227
-113 48 -15 106 -38 129 -50 23 -11 48 -21 55 -21 7 0 33 -14 58 -30 34 -23
57 -30 92 -30 26 0 50 -4 53 -10 3 -5 33 -10 66 -10 l59 0 0 21 c0 11 -23 44
-50 73 l-50 53 -133 43 c-72 24 -163 58 -200 77 -37 18 -103 45 -146 59 -48
15 -94 38 -117 58 -22 18 -75 52 -119 74 -44 22 -107 63 -140 91 -33 28 -77
60 -98 71 -51 28 -231 210 -256 259 -12 22 -38 52 -60 68 -21 15 -49 43 -62
63 -12 19 -33 46 -45 60 -39 45 -115 162 -151 234 -20 39 -44 82 -53 96 -10
14 -28 52 -39 85 l-21 59 0 156 0 155 29 62 c17 34 49 87 72 118 33 43 47 55
69 55 15 0 44 7 63 15 20 8 66 15 104 15 37 0 86 7 109 16 l41 16 38 -16 c25
-11 69 -16 137 -16 65 0 111 -5 135 -15 23 -10 69 -15 132 -15 l96 0 105 -35
c58 -20 129 -47 158 -60 29 -14 64 -25 78 -25 13 0 41 -7 61 -15 19 -8 46 -15
60 -15 13 0 50 -12 80 -26 31 -14 89 -36 130 -49 40 -13 90 -36 110 -50 21
-14 44 -25 51 -25 21 0 139 -57 175 -84 18 -13 60 -38 95 -56 34 -17 82 -48
107 -68 24 -20 55 -45 69 -55 18 -12 26 -27 26 -48 0 -37 23 -47 60 -25 31 18
49 14 95 -20 17 -12 64 -39 105 -59 41 -21 94 -53 118 -73 75 -60 144 -104
178 -114 18 -5 57 -30 86 -56 29 -27 74 -60 99 -75 25 -14 53 -37 62 -51 9
-14 59 -53 111 -88 67 -44 103 -75 123 -106 15 -25 45 -55 65 -68 21 -13 49
-41 62 -62 41 -66 80 -92 137 -92 75 0 133 35 223 133 l76 84 0 120 c0 85 -4
131 -15 156 -8 20 -15 55 -15 78 0 30 -9 56 -31 90 -17 27 -29 56 -27 66 l3
18 303 3 302 2 36 -15 c29 -12 81 -15 240 -15 114 0 214 -4 230 -10 14 -6 97
-13 183 -17 95 -3 169 -11 190 -19 25 -11 98 -14 301 -14 l268 0 35 15 c26 11
73 15 165 15 93 0 140 4 165 15 20 8 55 15 77 15 23 0 54 7 70 15 l30 16 0 69
0 70 -29 0 c-16 0 -45 -7 -64 -15 -20 -8 -61 -15 -90 -15 -30 0 -71 -7 -90
-15 -28 -11 -78 -15 -210 -15 -133 0 -183 -4 -210 -15 -28 -11 -78 -15 -205
-15 l-168 0 -84 30 -85 30 -308 0 -308 0 -36 15 c-26 11 -76 15 -195 15 -118
0 -168 4 -195 15 -23 10 -69 15 -135 15 -65 0 -111 5 -135 15 -19 8 -65 15
-101 15 -66 0 -170 28 -223 59 -14 9 -50 31 -80 49 -30 17 -71 37 -92 43 -21
5 -51 18 -66 27 -112 68 -139 83 -161 87 -14 3 -43 10 -65 16 -22 6 -74 14
-115 18 -41 4 -85 13 -97 19 -30 17 -134 15 -176 -3 -20 -8 -55 -15 -77 -15
-47 0 -131 -39 -154 -72 -9 -13 -16 -43 -16 -70 0 -30 -4 -48 -12 -48 -19 0
-155 67 -197 98 -23 17 -56 33 -75 36 -18 4 -54 24 -78 45 -53 47 -236 141
-343 176 -42 13 -89 33 -104 44 -34 25 -174 68 -291 91 -25 5 -64 18 -86 29
-70 34 -226 78 -319 90 -34 5 -70 13 -82 19 -14 8 -78 12 -172 12 -89 0 -152
4 -156 10 -3 6 -42 10 -85 10 -43 0 -82 -4 -85 -10z m2482 -795 c25 -11 72
-15 165 -15 92 0 139 -4 165 -15 19 -8 53 -15 75 -15 21 0 55 -7 75 -15 19 -8
47 -15 60 -15 57 0 160 -68 234 -156 88 -105 150 -356 103 -422 -8 -12 -21
-22 -29 -22 -27 0 -105 40 -142 73 -21 19 -50 37 -66 41 -15 3 -57 35 -95 70
-37 35 -87 73 -112 86 -25 12 -64 38 -88 58 -56 45 -129 95 -170 116 -18 9
-50 32 -70 50 -20 19 -55 44 -77 56 -78 43 -189 116 -193 128 -6 18 121 15
165 -3z"/>
</g>
</svg>
