<?xml version="1.0" standalone="no"?>
<!DOCTYPE svg PUBLIC "-//W3C//DTD SVG 20010904//EN"
 "http://www.w3.org/TR/2001/REC-SVG-20010904/DTD/svg10.dtd">
<svg version="1.0" xmlns="http://www.w3.org/2000/svg"
 width="480.000000pt" height="102.000000pt" viewBox="0 0 480.000000 102.000000"
 preserveAspectRatio="xMidYMid meet">
<metadata>
Created by potrace 1.16, written by Peter Selinger 2001-2019
</metadata>
<g transform="translate(0.000000,102.000000) scale(0.100000,-0.100000)"
fill="#000000" stroke="none">
<path d="M521 985 c-35 -40 -49 -81 -34 -103 5 -8 31 -22 59 -30 39 -11 58
-12 92 -3 59 15 126 14 169 -4 19 -8 45 -15 57 -15 35 0 225 -69 264 -95 20
-14 44 -25 52 -25 9 0 29 -13 45 -30 16 -16 35 -30 43 -30 25 0 82 -32 93 -52
8 -15 4 -29 -20 -67 -18 -28 -31 -61 -31 -80 0 -46 101 -241 142 -275 149
-120 208 -156 257 -156 16 0 33 -5 36 -10 3 -6 41 -10 84 -10 l78 0 41 38 42
39 0 67 c0 69 -13 106 -67 187 l-25 37 12 21 11 21 250 0 c199 0 257 -3 286
-15 23 -10 69 -15 135 -15 65 0 111 -5 135 -15 19 -8 53 -15 75 -15 21 0 55
-7 75 -15 28 -12 84 -15 270 -15 185 0 241 -3 270 -15 l35 -15 432 0 432 0 29
-30 29 -30 130 0 c98 0 143 -4 178 -17 l48 -17 35 17 35 17 0 55 0 55 -25 0
c-14 0 -42 7 -62 15 -23 10 -69 15 -132 15 l-97 0 -84 30 -85 30 -188 0 c-144
0 -196 4 -224 15 -27 12 -79 15 -225 15 -145 0 -197 3 -225 15 l-35 15 -310 0
-309 0 -36 15 c-20 8 -66 15 -104 15 -37 0 -80 6 -96 12 -19 9 -123 15 -338
19 -170 3 -347 11 -392 17 l-82 11 -78 46 c-43 26 -91 60 -108 75 -30 28 -144
90 -166 90 -18 0 -81 32 -123 62 -21 15 -46 28 -55 28 -9 0 -29 9 -46 21 -53
36 -124 69 -148 69 -24 0 -122 32 -134 43 -3 4 -82 7 -174 7 l-167 0 -31 -35z
m1130 -600 c20 -13 58 -56 84 -96 l47 -71 -15 -15 -15 -15 -38 18 c-82 38
-144 104 -144 152 0 20 24 52 38 52 4 0 24 -11 43 -25z"/>
<path d="M169 581 c-33 -33 -37 -70 -11 -93 32 -29 81 -48 122 -48 52 0 159
-48 220 -99 25 -21 55 -43 68 -50 36 -19 55 -56 42 -81 l-11 -21 -92 4 c-172
8 -254 23 -305 55 -63 40 -143 60 -177 44 l-25 -12 0 -54 0 -54 56 -46 c31
-25 63 -46 71 -46 8 0 44 -14 80 -30 40 -19 81 -30 108 -30 24 0 47 -5 50 -10
8 -13 372 -13 380 0 3 5 15 10 25 10 22 0 100 99 100 127 0 61 -56 180 -102
217 -96 78 -163 126 -176 126 -8 0 -40 16 -71 35 -84 52 -184 85 -259 85 l-64
0 -29 -29z"/>
</g>
</svg>
