<?xml version="1.0" standalone="no"?>
<!DOCTYPE svg PUBLIC "-//W3C//DTD SVG 20010904//EN"
 "http://www.w3.org/TR/2001/REC-SVG-20010904/DTD/svg10.dtd">
<svg version="1.0" xmlns="http://www.w3.org/2000/svg"
 width="510.000000pt" height="165.000000pt" viewBox="0 0 510.000000 165.000000"
 preserveAspectRatio="xMidYMid meet">
<metadata>
Created by potrace 1.16, written by Peter Selinger 2001-2019
</metadata>
<g transform="translate(0.000000,165.000000) scale(0.100000,-0.100000)"
fill="#000000" stroke="none">
<path d="M1696 1597 l-56 -53 0 -56 0 -56 25 -31 c26 -31 116 -95 174 -125 18
-10 49 -32 69 -50 22 -19 66 -41 108 -55 91 -29 143 -59 123 -72 -8 -5 -40 -9
-72 -9 -65 0 -144 -34 -171 -72 -18 -25 -21 -80 -6 -108 6 -11 35 -36 66 -56
31 -21 81 -61 111 -90 l55 -52 -18 -4 c-11 -2 -36 2 -58 9 -21 7 -63 13 -93
13 -29 0 -70 7 -90 15 -23 10 -69 15 -131 15 l-96 0 -91 29 c-121 39 -169 51
-240 61 -108 14 -199 71 -257 160 -16 24 -37 39 -65 48 -24 8 -69 38 -103 68
-42 37 -69 54 -88 54 -15 0 -47 6 -72 14 -78 25 -133 37 -195 45 -34 5 -70 13
-82 19 -12 7 -66 12 -125 12 l-103 0 -85 -30 c-46 -17 -94 -30 -107 -30 l-23
0 0 -100 0 -100 26 0 c14 0 55 -13 91 -30 35 -16 74 -30 86 -30 12 0 62 -13
112 -29 140 -45 173 -53 270 -61 67 -5 104 -14 142 -34 29 -14 65 -26 79 -26
14 0 55 -14 91 -30 35 -17 71 -30 78 -30 22 0 37 -39 30 -77 -10 -56 -142
-173 -195 -173 -15 0 -44 -7 -63 -15 -21 -9 -67 -15 -110 -15 -59 0 -77 -4
-90 -18 -25 -27 -21 -60 12 -93 l29 -29 44 0 c40 0 99 8 208 28 58 11 226 95
266 133 16 16 47 66 68 112 21 45 42 89 46 97 10 21 52 24 95 6 21 -9 47 -16
58 -16 12 0 62 -13 112 -29 134 -43 172 -52 255 -60 41 -4 85 -13 97 -19 14
-8 77 -12 182 -12 95 0 171 -5 188 -11 15 -6 84 -13 152 -15 l125 -4 123 -60
c69 -33 130 -60 136 -60 7 0 29 -12 50 -26 21 -14 93 -53 159 -86 67 -34 138
-76 157 -93 38 -34 91 -65 113 -65 38 -1 174 -91 183 -122 l6 -18 59 0 58 0
95 93 96 92 20 62 c25 74 27 127 6 176 -8 20 -15 61 -15 92 0 39 -7 70 -25
105 -32 63 -46 125 -32 139 16 16 152 13 194 -4 26 -11 74 -15 180 -15 105 0
153 -4 180 -15 l35 -15 310 0 309 0 36 -15 c46 -19 74 -19 134 2 l49 18 0 52
0 53 -25 0 c-14 0 -42 7 -62 15 -28 12 -84 15 -269 15 -135 0 -244 4 -260 10
-19 7 -37 7 -60 0 -25 -9 -40 -8 -69 5 -28 11 -74 15 -182 15 -105 0 -153 4
-180 15 -27 12 -79 15 -225 15 l-189 0 -44 20 c-24 11 -52 32 -62 47 -35 51
-189 205 -239 239 -28 19 -71 52 -95 73 -24 21 -73 53 -107 70 -35 18 -82 45
-104 62 -23 16 -48 29 -57 29 -9 0 -33 11 -53 25 -20 14 -72 36 -115 50 -43
14 -115 43 -160 65 -59 28 -96 40 -127 40 -25 0 -48 5 -51 10 -4 6 -118 10
-310 10 l-303 0 -56 -53z m461 -62 c19 -8 53 -15 75 -15 21 0 55 -7 75 -15 19
-8 45 -15 57 -15 27 0 123 -32 194 -66 29 -13 58 -24 64 -24 7 0 26 -13 43
-28 17 -16 61 -38 102 -51 39 -13 89 -37 110 -54 47 -40 114 -85 174 -120 25
-14 54 -37 63 -51 9 -14 35 -43 58 -65 23 -23 39 -44 35 -47 -8 -8 -97 9 -168
31 -26 8 -70 15 -98 15 -28 0 -68 7 -88 15 -19 8 -51 15 -71 15 -46 0 -494
149 -600 200 -46 22 -88 40 -93 40 -22 0 -136 59 -199 102 -39 27 -66 53 -68
65 -4 26 32 53 69 53 15 0 42 7 60 15 45 19 160 19 206 0z m-1747 -420 c14 -8
46 -14 72 -15 32 0 70 -11 115 -32 38 -17 89 -40 115 -52 26 -12 47 -24 48
-28 0 -11 -18 -10 -25 2 -3 6 -24 10 -46 10 -22 0 -56 7 -76 15 -19 8 -50 15
-67 15 -17 1 -42 7 -56 15 -14 8 -48 14 -76 15 -35 0 -59 6 -74 18 l-23 19 24
16 c28 20 37 21 69 2z m2121 -141 l22 -24 56 0 c41 0 73 -8 119 -30 37 -18 80
-30 103 -30 22 0 56 -7 76 -15 23 -10 69 -15 135 -15 65 0 111 -5 135 -15 19
-8 47 -15 62 -16 14 0 53 -11 86 -23 l60 -22 37 -54 c89 -129 138 -258 138
-363 l0 -67 -34 -37 -33 -36 -49 13 c-27 7 -76 25 -110 40 -33 15 -74 31 -91
34 -18 4 -51 24 -75 45 -45 40 -98 71 -121 71 -7 0 -26 13 -42 30 -16 17 -36
30 -44 30 -9 0 -58 20 -109 45 -52 25 -100 45 -108 45 -31 0 -64 47 -64 90 0
76 -37 160 -94 216 -29 29 -68 60 -87 69 -19 10 -40 22 -47 28 l-14 11 18 6
c26 10 49 2 75 -26z m-175 -151 c-7 -7 -26 7 -26 19 0 6 6 6 15 -2 9 -7 13
-15 11 -17z m54 -43 c0 -5 -4 -10 -9 -10 -6 0 -13 5 -16 10 -3 6 1 10 9 10 9
0 16 -4 16 -10z"/>
</g>
</svg>
