<?xml version="1.0" standalone="no"?>
<!DOCTYPE svg PUBLIC "-//W3C//DTD SVG 20010904//EN"
 "http://www.w3.org/TR/2001/REC-SVG-20010904/DTD/svg10.dtd">
<svg version="1.0" xmlns="http://www.w3.org/2000/svg"
 width="846.000000pt" height="204.000000pt" viewBox="0 0 846.000000 204.000000"
 preserveAspectRatio="xMidYMid meet">
<metadata>
Created by potrace 1.16, written by Peter Selinger 2001-2019
</metadata>
<g transform="translate(0.000000,204.000000) scale(0.100000,-0.100000)"
fill="#000000" stroke="none">
<path d="M5735 2030 c-3 -5 -14 -10 -23 -10 -9 0 -44 -18 -77 -41 -133 -89
-185 -166 -185 -269 0 -67 15 -103 80 -199 47 -68 61 -81 176 -158 114 -77
166 -103 201 -103 15 0 42 -9 58 -21 17 -11 65 -38 107 -60 l78 -39 70 0 c40
0 86 -6 107 -15 19 -8 60 -15 90 -15 29 0 70 -7 90 -15 19 -8 59 -15 89 -15
29 0 64 -4 78 -10 14 -5 67 -12 118 -16 111 -7 210 -37 242 -73 13 -14 43 -48
67 -76 23 -27 73 -81 110 -120 81 -84 159 -200 159 -236 0 -14 -17 -50 -38
-79 l-38 -52 -234 -79 -235 -79 -111 0 c-76 0 -123 -5 -147 -15 -24 -10 -70
-15 -135 -15 -66 0 -112 -5 -135 -15 -45 -19 -419 -22 -464 -4 -16 7 -125 14
-253 18 -149 4 -232 10 -247 19 -14 8 -67 12 -153 12 -93 0 -141 4 -167 15
-19 8 -65 15 -102 15 -49 0 -90 8 -151 30 -47 16 -101 30 -120 30 -19 0 -55 6
-80 14 -94 30 -138 39 -220 45 -61 5 -120 19 -207 49 -68 23 -130 42 -139 42
-31 0 -318 100 -402 140 -46 22 -88 40 -95 40 -15 0 -140 82 -184 121 -41 36
-64 36 -128 1 -57 -31 -104 -104 -105 -160 0 -74 111 -214 210 -262 25 -12 65
-39 90 -59 25 -21 72 -52 105 -70 71 -38 90 -55 81 -70 -5 -8 -172 -11 -566
-11 l-560 0 -40 16 -41 16 -42 -11 c-31 -9 -50 -9 -70 -2 -18 7 -134 11 -308
11 -206 0 -288 3 -312 13 -22 9 -99 14 -242 16 -153 2 -218 6 -243 17 -27 11
-88 14 -268 14 -161 0 -241 4 -261 12 -16 7 -106 16 -213 20 -235 9 -210 9
-312 2 l-88 -6 0 -37 0 -36 49 -18 c28 -9 78 -17 115 -17 37 0 83 -7 103 -15
19 -8 60 -15 90 -15 29 0 70 -7 90 -15 27 -11 77 -15 210 -15 132 0 182 -4
210 -15 26 -11 74 -15 180 -15 105 0 153 -4 180 -15 28 -12 84 -15 270 -15
172 0 242 -4 266 -13 24 -10 119 -14 392 -16 207 -1 364 -6 370 -12 5 -5 294
-9 730 -9 l720 0 20 33 c67 110 70 128 23 157 -18 11 -49 25 -68 30 -19 5 -59
21 -88 35 -28 14 -58 25 -64 25 -21 1 -80 33 -136 74 -75 55 -51 64 67 26 51
-17 108 -30 127 -30 19 0 51 -7 71 -15 19 -8 45 -15 56 -15 12 0 81 -20 154
-45 73 -25 148 -45 168 -45 20 0 52 -7 72 -15 22 -9 67 -15 120 -15 52 0 97
-6 120 -15 19 -8 53 -15 75 -15 21 0 55 -7 75 -15 19 -8 53 -15 75 -15 21 0
55 -7 75 -15 19 -8 53 -15 75 -15 21 0 55 -7 75 -15 23 -10 69 -15 135 -15 65
0 111 -5 135 -15 l35 -15 630 0 c471 0 635 3 651 12 12 7 63 15 112 19 96 7
129 15 270 60 50 16 99 29 108 29 70 0 271 100 356 177 75 67 101 115 101 182
l0 51 -49 54 c-28 30 -58 68 -68 83 -9 15 -39 52 -66 82 -26 30 -61 80 -77
112 -16 31 -35 59 -41 61 -7 2 -10 12 -6 21 l6 17 126 0 c89 0 136 -4 162 -15
l35 -15 378 0 377 0 41 30 c52 37 56 73 14 113 l-28 27 -582 0 -583 0 -36 15
c-19 8 -48 15 -63 15 -35 0 -137 108 -226 242 -35 53 -78 107 -95 120 -17 13
-44 37 -60 53 -29 31 -101 103 -152 153 -15 15 -50 52 -77 83 l-49 55 -135 67
c-74 37 -141 67 -149 67 -9 0 -19 5 -22 10 -4 6 -88 10 -220 10 -132 0 -216
-4 -220 -10z m262 -135 c19 -8 59 -15 87 -15 73 0 150 -29 189 -73 17 -20 56
-48 85 -63 29 -15 61 -38 70 -52 9 -14 37 -44 61 -68 92 -89 104 -101 158
-164 30 -36 66 -87 80 -115 14 -27 39 -64 55 -82 17 -17 27 -36 24 -42 -10
-16 -131 -13 -173 4 -19 8 -53 15 -75 15 -21 0 -55 7 -75 15 -19 8 -60 15 -90
15 -29 0 -70 7 -90 15 -19 8 -52 15 -72 15 -54 0 -227 62 -259 93 -16 15 -35
27 -43 27 -19 1 -73 28 -141 72 -57 38 -136 140 -160 208 l-11 32 39 55 39 55
55 19 c30 10 71 19 91 19 20 0 52 7 70 15 43 18 42 18 86 0z"/>
</g>
</svg>
