<?xml version="1.0" standalone="no"?>
<!DOCTYPE svg PUBLIC "-//W3C//DTD SVG 20010904//EN"
 "http://www.w3.org/TR/2001/REC-SVG-20010904/DTD/svg10.dtd">
<svg version="1.0" xmlns="http://www.w3.org/2000/svg"
 width="573.000000pt" height="171.000000pt" viewBox="0 0 573.000000 171.000000"
 preserveAspectRatio="xMidYMid meet">
<metadata>
Created by potrace 1.16, written by Peter Selinger 2001-2019
</metadata>
<g transform="translate(0.000000,171.000000) scale(0.100000,-0.100000)"
fill="#000000" stroke="none">
<path d="M23 1696 l-23 -11 0 -52 0 -53 60 -30 c33 -16 65 -30 71 -30 30 0
160 -72 209 -116 30 -27 68 -58 85 -69 16 -10 50 -37 75 -60 25 -23 59 -50 77
-59 17 -8 53 -34 79 -57 26 -22 77 -60 113 -84 82 -54 325 -300 375 -378 48
-76 106 -247 106 -312 0 -63 -27 -122 -79 -174 -43 -43 -115 -81 -154 -81 -14
0 -41 -7 -60 -15 -20 -8 -52 -15 -71 -15 -68 0 -79 -15 -49 -69 l18 -31 107 0
c60 0 109 4 113 10 3 6 21 10 39 10 36 0 93 36 164 104 57 54 142 219 142 276
0 21 -12 74 -26 117 -14 44 -23 90 -20 105 4 18 -3 38 -20 63 -13 20 -33 54
-45 77 -23 46 -93 133 -153 194 -23 23 -52 55 -65 73 -13 18 -42 44 -64 58
-22 14 -61 44 -86 67 -25 22 -62 52 -81 65 -61 43 -129 105 -124 113 9 14 123
9 161 -7 19 -8 53 -15 75 -15 21 0 55 -7 75 -15 27 -12 81 -15 240 -15 158 0
212 -3 240 -15 19 -8 60 -15 90 -15 29 0 70 -7 90 -15 19 -8 61 -15 93 -15 32
0 74 7 93 15 24 10 70 15 135 15 66 0 112 5 135 15 20 8 61 15 90 15 30 0 71
7 90 15 20 8 54 15 75 15 22 0 56 7 75 15 20 8 54 15 75 15 22 0 56 7 75 15
20 8 49 15 65 15 17 0 48 14 73 32 24 18 80 45 124 60 l79 28 391 0 390 0 66
-23 c36 -12 76 -29 88 -37 l23 -16 -12 -39 -12 -40 22 -65 c30 -92 105 -163
256 -245 27 -14 72 -41 100 -59 55 -35 250 -101 324 -111 25 -3 61 -7 80 -10
50 -7 148 47 174 96 l20 36 -14 59 -14 59 -64 67 c-35 37 -61 71 -57 77 3 6
30 11 58 11 41 0 62 -6 97 -30 l45 -30 253 0 c202 0 260 -3 289 -15 47 -20
175 -20 213 0 45 23 40 57 -12 95 l-41 30 -59 0 c-32 0 -75 7 -95 15 -27 11
-77 15 -210 15 -132 0 -182 4 -210 15 -19 8 -60 15 -90 15 -29 0 -70 7 -90 15
-20 8 -66 15 -105 15 -38 0 -84 7 -105 15 -21 9 -67 15 -116 15 l-80 0 -179
60 c-98 33 -194 60 -213 60 -20 0 -52 7 -72 15 -19 8 -47 15 -62 15 -14 0 -55
14 -89 30 l-64 30 -84 0 c-53 0 -98 6 -123 16 l-40 16 -243 -5 c-141 -3 -262
-10 -288 -17 -96 -26 -353 -112 -404 -135 -30 -14 -66 -25 -79 -25 -14 0 -54
-13 -89 -30 -38 -18 -79 -30 -104 -30 -23 0 -58 -7 -77 -15 l-36 -15 -411 0
-411 0 -36 15 c-24 10 -71 15 -150 15 -78 0 -125 5 -150 15 -19 8 -52 15 -72
15 -20 0 -75 13 -121 30 -47 16 -102 30 -123 30 -21 0 -54 7 -74 15 -19 8 -47
15 -62 15 -14 0 -46 14 -71 30 -25 16 -51 30 -58 30 -7 0 -39 12 -70 26 -31
15 -78 31 -105 35 -26 4 -60 17 -76 28 l-29 21 -89 -1 c-48 -1 -98 -6 -110
-13z m4317 -410 c25 -8 72 -30 105 -50 33 -20 71 -40 84 -43 29 -7 171 -150
171 -172 0 -9 -4 -22 -9 -30 l-9 -15 -64 27 c-35 15 -67 27 -71 27 -5 0 -38
14 -74 30 -35 17 -69 30 -74 30 -23 0 -97 42 -143 79 -26 23 -57 41 -67 41
-10 0 -23 8 -28 18 -15 27 5 52 42 53 18 0 41 4 52 9 28 12 34 12 85 -4z"/>
</g>
</svg>
