<?xml version="1.0" standalone="no"?>
<!DOCTYPE svg PUBLIC "-//W3C//DTD SVG 20010904//EN"
 "http://www.w3.org/TR/2001/REC-SVG-20010904/DTD/svg10.dtd">
<svg version="1.0" xmlns="http://www.w3.org/2000/svg"
 width="531.000000pt" height="216.000000pt" viewBox="0 0 531.000000 216.000000"
 preserveAspectRatio="xMidYMid meet">
<metadata>
Created by potrace 1.16, written by Peter Selinger 2001-2019
</metadata>
<g transform="translate(0.000000,216.000000) scale(0.100000,-0.100000)"
fill="#000000" stroke="none">
<path d="M23 2134 l-23 -25 0 -129 c0 -72 4 -138 9 -148 5 -9 15 -32 22 -50
13 -36 68 -123 134 -211 22 -29 106 -122 188 -207 81 -84 147 -158 147 -163 0
-10 109 -99 180 -146 25 -16 66 -51 91 -77 26 -27 62 -53 84 -60 28 -9 48 -26
68 -56 16 -23 46 -51 67 -62 21 -11 60 -38 87 -61 26 -23 72 -58 101 -76 29
-19 63 -51 76 -72 14 -21 39 -49 57 -62 18 -13 53 -44 78 -69 52 -52 150 -92
179 -74 33 21 37 41 19 91 -24 66 -22 88 11 111 36 25 123 54 192 63 57 8 114
21 190 45 63 20 278 19 327 -1 22 -9 67 -15 120 -15 52 0 97 -6 120 -15 19 -8
53 -15 75 -15 21 0 55 -7 75 -15 19 -8 45 -15 57 -15 27 0 243 -73 295 -99 22
-12 53 -21 69 -21 43 0 52 -16 52 -97 0 -58 5 -84 24 -122 27 -53 87 -111 115
-111 10 0 31 -17 48 -38 35 -43 165 -112 212 -112 16 0 33 -5 36 -10 3 -6 48
-10 99 -10 l92 0 27 28 27 28 0 61 c0 43 -7 77 -25 118 -37 82 -32 85 129 85
95 -1 138 -5 156 -15 19 -11 67 -14 195 -15 128 -1 176 -4 195 -15 15 -9 54
-14 98 -15 41 0 88 -6 109 -15 l35 -15 284 0 284 0 0 55 0 54 -30 16 -29 15
-436 0 c-287 0 -443 4 -456 11 -11 5 -99 13 -197 16 -119 4 -186 10 -204 19
-19 10 -69 14 -170 14 l-144 0 -59 21 c-33 11 -84 31 -113 45 -29 13 -58 24
-65 24 -6 0 -32 14 -57 30 -25 16 -52 30 -60 30 -8 0 -35 14 -60 30 -25 16
-58 30 -73 30 -15 0 -44 7 -64 15 -19 8 -52 15 -72 15 -54 0 -227 62 -259 93
l-28 27 -72 0 c-41 0 -88 7 -110 15 l-38 16 -349 -4 c-251 -2 -363 -7 -395
-16 -155 -45 -187 -58 -245 -92 -71 -44 -124 -50 -165 -22 -14 9 -58 45 -98
80 -40 35 -77 63 -82 63 -5 0 -33 24 -63 53 -30 28 -74 64 -98 80 -24 15 -73
50 -109 77 -36 27 -77 58 -91 69 -14 11 -31 37 -38 59 l-14 40 20 29 c11 15
30 47 42 70 l21 42 0 101 c0 127 -21 193 -97 303 -95 139 -184 230 -307 312
-62 41 -120 75 -129 75 -8 0 -19 5 -22 10 -4 6 -56 10 -128 9 l-122 -1 -22
-24z m184 -119 c19 -8 47 -15 62 -15 14 0 60 -17 101 -38 54 -27 83 -49 105
-79 16 -24 48 -55 70 -69 53 -36 56 -40 130 -188 l65 -129 0 -57 0 -57 -28
-39 c-16 -21 -41 -45 -55 -53 l-27 -14 -25 13 c-36 19 -286 272 -313 317 -71
118 -102 173 -102 185 0 7 -13 33 -30 58 -38 57 -48 121 -26 155 19 29 25 30
73 10z m3329 -1726 c47 -22 73 -43 100 -80 l37 -50 -16 -16 -15 -16 -104 51
c-57 28 -116 64 -132 81 l-29 30 13 16 c20 24 78 18 146 -16z"/>
</g>
</svg>
