<?xml version="1.0" standalone="no"?>
<!DOCTYPE svg PUBLIC "-//W3C//DTD SVG 20010904//EN"
 "http://www.w3.org/TR/2001/REC-SVG-20010904/DTD/svg10.dtd">
<svg version="1.0" xmlns="http://www.w3.org/2000/svg"
 width="591.000000pt" height="150.000000pt" viewBox="0 0 591.000000 150.000000"
 preserveAspectRatio="xMidYMid meet">
<metadata>
Created by potrace 1.16, written by Peter Selinger 2001-2019
</metadata>
<g transform="translate(0.000000,150.000000) scale(0.100000,-0.100000)"
fill="#000000" stroke="none">
<path d="M23 1474 l-23 -25 0 -110 0 -111 25 -30 c15 -18 25 -42 25 -62 0 -45
66 -130 226 -290 134 -134 199 -188 291 -241 28 -16 73 -43 98 -59 76 -47 259
-105 334 -106 74 0 157 -25 274 -82 43 -21 89 -38 103 -38 13 0 41 -7 61 -15
19 -8 45 -15 57 -15 27 0 152 -43 205 -69 22 -12 51 -21 63 -21 13 0 43 -6 68
-14 98 -31 138 -39 216 -43 l82 -4 28 -30 28 -29 43 0 c24 0 60 -7 80 -15 19
-8 60 -15 90 -15 29 0 70 -7 90 -15 22 -9 68 -15 124 -15 48 0 91 -4 94 -10 8
-13 1237 -14 1250 -1 6 5 33 11 60 14 79 8 309 76 409 122 30 14 63 25 72 25
10 0 46 29 81 65 34 35 73 67 85 70 13 3 58 -6 101 -20 144 -47 245 -26 294
60 l23 40 0 102 0 102 -26 81 -27 82 14 9 c20 13 73 11 106 -3 48 -21 389 -33
631 -22 l132 6 0 54 0 53 -30 16 c-37 19 -78 19 -123 0 -28 -11 -78 -15 -209
-15 l-173 0 -63 30 -64 30 -69 0 c-39 0 -85 7 -106 15 -20 9 -66 15 -108 15
l-72 0 -41 30 c-22 16 -56 51 -74 77 -53 77 -193 208 -297 278 -53 36 -103 65
-111 65 -8 0 -35 14 -60 30 l-45 30 -93 0 -93 0 -48 -24 c-26 -14 -62 -41 -79
-61 l-32 -36 0 -47 c1 -43 24 -128 43 -160 9 -14 140 -82 158 -82 7 0 51 -18
98 -41 113 -53 242 -93 356 -109 99 -14 128 -30 198 -107 l64 -72 37 -111 37
-111 -16 -25 c-8 -13 -23 -24 -32 -24 -22 0 -77 43 -143 112 l-56 58 -43 0
-44 0 -43 -44 -44 -43 0 -48 c0 -86 -18 -109 -165 -210 -91 -62 -123 -75 -188
-75 -30 0 -71 -7 -90 -15 -20 -8 -61 -15 -90 -15 -30 0 -71 -7 -90 -15 -24
-10 -70 -15 -135 -15 -66 0 -112 -5 -135 -15 -51 -21 -333 -21 -384 0 -27 11
-77 15 -210 15 -132 0 -182 4 -210 15 -20 8 -66 15 -105 15 -38 0 -84 7 -105
15 -25 11 -72 15 -162 15 l-127 0 -59 21 c-33 11 -71 29 -85 39 -40 29 -144
60 -200 60 -28 0 -67 7 -87 15 -19 8 -44 15 -55 15 -53 0 -448 146 -448 165 0
3 14 32 30 65 36 72 38 106 6 168 -30 57 -126 152 -183 181 l-42 21 -93 0 -93
0 -50 -28 c-63 -34 -98 -93 -105 -177 l-5 -60 -35 -3 -35 -3 -90 61 c-49 33
-96 60 -103 60 -7 0 -40 26 -72 58 -208 203 -258 258 -265 294 -4 18 -16 50
-27 71 -27 53 -68 177 -68 205 0 13 -7 36 -15 52 -19 37 -60 39 -92 4z m4243
-214 c47 -22 92 -40 100 -40 9 0 28 -13 42 -29 15 -16 32 -34 37 -40 6 -6 25
-23 43 -37 17 -14 32 -30 32 -34 0 -18 -40 -20 -75 -5 -21 8 -49 15 -62 15
-30 0 -85 25 -137 62 -21 15 -47 28 -57 28 -22 0 -89 57 -89 76 0 14 45 43 68
44 7 0 51 -18 98 -40z m-3100 -506 c43 -21 51 -32 56 -74 l3 -35 -35 -19 -36
-19 -39 18 c-54 25 -74 43 -91 84 -11 25 -11 37 -3 47 16 19 103 18 145 -2z"/>
</g>
</svg>
