<?xml version="1.0" standalone="no"?>
<!DOCTYPE svg PUBLIC "-//W3C//DTD SVG 20010904//EN"
 "http://www.w3.org/TR/2001/REC-SVG-20010904/DTD/svg10.dtd">
<svg version="1.0" xmlns="http://www.w3.org/2000/svg"
 width="336.000000pt" height="111.000000pt" viewBox="0 0 336.000000 111.000000"
 preserveAspectRatio="xMidYMid meet">
<metadata>
Created by potrace 1.16, written by Peter Selinger 2001-2019
</metadata>
<g transform="translate(0.000000,111.000000) scale(0.100000,-0.100000)"
fill="#000000" stroke="none">
<path d="M1158 1066 c-16 -24 -28 -51 -28 -60 0 -53 128 -205 205 -243 51 -26
151 -98 174 -127 7 -9 28 -16 45 -16 18 0 50 -13 76 -30 25 -16 56 -30 70 -30
14 0 70 -15 124 -34 76 -26 105 -41 120 -62 l21 -28 3 -113 4 -112 -26 -26
c-49 -49 -109 -27 -151 53 -13 26 -54 80 -92 120 l-68 72 -48 0 c-26 0 -64 7
-84 15 -19 8 -60 15 -90 15 -29 0 -70 7 -90 15 -28 12 -84 15 -270 15 -185 0
-241 3 -270 15 -22 9 -67 15 -120 15 -52 0 -97 6 -120 15 -19 8 -60 15 -90 15
-29 0 -70 7 -90 15 -19 8 -60 15 -90 15 -29 0 -70 7 -90 15 -20 9 -66 15 -109
15 l-74 0 0 -70 0 -70 40 0 c22 0 57 -7 77 -15 23 -10 69 -15 135 -15 65 0
111 -5 135 -15 19 -8 60 -15 90 -15 29 0 70 -7 90 -15 20 -8 66 -15 105 -15
38 0 84 -7 105 -15 23 -10 69 -15 135 -15 65 0 111 -5 135 -15 22 -9 67 -15
120 -15 52 0 97 -6 120 -15 20 -9 66 -15 107 -15 77 0 89 -5 170 -75 61 -52
103 -94 145 -145 20 -24 46 -44 63 -47 16 -3 31 -10 34 -14 3 -5 47 -9 98 -9
l93 0 62 56 c35 32 73 78 87 107 l26 50 -5 86 c-2 47 -8 95 -11 107 l-8 21 60
22 59 22 38 -15 37 -16 250 0 c198 0 256 -3 285 -15 24 -10 71 -15 150 -15 78
0 125 -5 150 -15 46 -19 116 -19 153 0 l30 16 0 54 0 55 -26 12 c-19 9 -36 9
-70 0 l-45 -12 -35 15 c-24 10 -70 15 -136 15 -65 0 -111 5 -135 15 -28 12
-84 15 -270 15 -185 0 -241 3 -270 15 -21 9 -67 15 -115 15 -55 0 -102 7 -151
23 l-72 22 -50 53 c-27 30 -67 65 -87 78 -21 13 -49 42 -63 64 -17 26 -43 49
-78 66 -28 14 -73 44 -99 65 -59 49 -178 109 -217 109 -16 0 -33 5 -36 10 -4
6 -52 10 -113 10 l-107 -1 -27 -43z m334 -162 c24 -10 59 -31 78 -49 19 -17
50 -42 68 -54 17 -12 32 -29 32 -37 0 -17 7 -18 -70 9 -49 18 -79 37 -122 79
-71 70 -67 83 14 52z"/>
</g>
</svg>
