<?xml version="1.0" standalone="no"?>
<!DOCTYPE svg PUBLIC "-//W3C//DTD SVG 20010904//EN"
 "http://www.w3.org/TR/2001/REC-SVG-20010904/DTD/svg10.dtd">
<svg version="1.0" xmlns="http://www.w3.org/2000/svg"
 width="486.000000pt" height="210.000000pt" viewBox="0 0 486.000000 210.000000"
 preserveAspectRatio="xMidYMid meet">
<metadata>
Created by potrace 1.16, written by Peter Selinger 2001-2019
</metadata>
<g transform="translate(0.000000,210.000000) scale(0.100000,-0.100000)"
fill="#000000" stroke="none">
<path d="M2780 2035 l0 -64 32 -36 c17 -20 53 -48 81 -61 27 -14 67 -39 90
-55 22 -16 52 -29 66 -29 35 0 127 -32 220 -76 114 -54 183 -74 256 -74 36 0
82 -7 102 -15 19 -8 46 -15 60 -15 36 0 127 -44 170 -83 21 -19 49 -37 63 -40
31 -8 63 -37 94 -85 13 -21 43 -50 67 -65 25 -16 55 -45 69 -65 13 -20 49 -64
80 -97 31 -33 65 -73 75 -90 10 -16 29 -41 41 -55 31 -36 111 -156 136 -204
11 -22 36 -59 55 -80 18 -22 38 -56 43 -76 5 -19 26 -62 46 -95 42 -70 70
-149 79 -223 l7 -53 -37 -34 c-41 -40 -58 -43 -77 -16 -7 10 -33 28 -58 41
-25 12 -66 40 -92 61 -25 21 -79 55 -120 75 -40 20 -93 53 -117 72 -70 57
-155 112 -171 112 -9 0 -53 25 -98 55 -91 61 -144 89 -182 98 -14 4 -43 22
-65 40 -52 44 -176 107 -212 107 -16 0 -45 11 -66 25 -63 43 -235 125 -262
125 -14 0 -42 7 -62 15 -47 20 -145 19 -186 -1 -57 -29 -67 -43 -67 -96 0 -66
34 -129 110 -203 34 -33 75 -77 92 -98 l30 -37 -12 -15 -12 -15 -185 0 c-141
0 -192 4 -220 15 -22 9 -67 15 -119 15 -45 0 -95 5 -111 12 -36 14 -115 26
-273 39 -69 5 -143 15 -165 21 -22 5 -87 13 -145 17 -58 4 -114 12 -125 18
-14 7 -140 11 -393 12 l-373 1 -36 15 c-22 9 -68 15 -120 15 -52 0 -97 6 -120
15 -22 9 -67 15 -119 15 -45 0 -95 5 -111 12 -15 7 -84 16 -153 20 -169 12
-188 12 -237 3 l-43 -8 0 -38 0 -38 30 -16 c18 -9 56 -15 100 -15 40 0 86 -6
107 -15 19 -8 53 -15 75 -15 21 0 55 -7 75 -15 22 -9 67 -15 120 -15 52 0 97
-6 120 -15 23 -10 69 -15 135 -15 65 0 111 -5 135 -15 19 -8 60 -15 90 -15 29
0 70 -7 90 -15 l35 -15 370 0 369 0 36 -15 c22 -9 67 -15 120 -15 52 0 97 -6
120 -15 20 -8 66 -15 105 -15 38 0 84 -7 105 -15 20 -8 66 -15 105 -15 38 0
84 -7 105 -15 23 -10 69 -15 135 -15 65 0 111 -5 135 -15 28 -12 84 -15 270
-15 l235 0 65 -30 c84 -39 125 -39 164 -1 l29 29 0 55 c0 37 -5 59 -16 68 -21
17 -113 48 -145 49 -26 0 -88 39 -144 90 -16 15 -46 36 -65 46 -53 28 -70 45
-86 83 -16 38 -6 61 29 61 26 0 196 -82 248 -120 24 -17 55 -30 71 -30 40 0
85 -23 188 -92 62 -43 94 -58 119 -58 l34 0 41 -44 c39 -42 132 -96 186 -109
14 -3 52 -29 85 -56 33 -28 76 -59 96 -70 42 -23 159 -102 207 -140 32 -25 56
-48 135 -131 27 -29 46 -40 67 -40 17 0 30 4 30 9 0 5 45 54 100 109 l100 100
0 125 c0 98 -3 127 -15 137 -8 7 -21 33 -29 59 -8 25 -26 71 -40 101 -14 30
-26 62 -26 70 0 14 -46 85 -117 180 -18 24 -33 52 -33 63 0 11 -22 41 -49 67
-28 27 -63 75 -80 108 -19 38 -45 71 -70 88 -21 16 -49 44 -62 64 -13 19 -61
75 -107 124 -46 48 -81 93 -79 100 6 18 120 19 162 1 24 -9 68 -15 121 -15
l84 0 107 36 c116 39 143 55 143 89 0 44 -6 45 -367 45 l-344 0 -36 15 c-19 8
-47 15 -62 15 -16 0 -61 23 -111 56 -47 32 -119 75 -160 96 -41 22 -100 55
-130 74 -30 19 -71 39 -90 44 -19 5 -59 21 -88 35 -28 14 -57 25 -63 25 -6 0
-40 14 -76 30 -35 17 -71 30 -78 30 -8 0 -17 5 -20 10 -4 6 -77 10 -186 10
l-179 0 0 -65z"/>
</g>
</svg>
