<?xml version="1.0" standalone="no"?>
<!DOCTYPE svg PUBLIC "-//W3C//DTD SVG 20010904//EN"
 "http://www.w3.org/TR/2001/REC-SVG-20010904/DTD/svg10.dtd">
<svg version="1.0" xmlns="http://www.w3.org/2000/svg"
 width="417.000000pt" height="162.000000pt" viewBox="0 0 417.000000 162.000000"
 preserveAspectRatio="xMidYMid meet">
<metadata>
Created by potrace 1.16, written by Peter Selinger 2001-2019
</metadata>
<g transform="translate(0.000000,162.000000) scale(0.100000,-0.100000)"
fill="#000000" stroke="none">
<path d="M2135 1610 c-3 -5 -16 -10 -27 -10 -11 0 -40 -20 -64 -44 l-44 -43 0
-41 c0 -50 27 -85 112 -143 78 -53 251 -139 280 -139 36 0 150 -42 156 -58 3
-8 -1 -26 -9 -40 -21 -37 -278 -122 -370 -122 -37 0 -83 -7 -102 -15 -46 -19
-128 -19 -174 0 -26 11 -74 15 -180 15 -105 0 -153 4 -180 15 -20 8 -66 15
-105 15 -38 0 -84 7 -105 15 -19 8 -53 15 -75 15 -21 0 -55 7 -75 15 -20 8
-66 15 -105 15 -52 0 -82 6 -123 25 -73 33 -350 125 -378 125 -12 0 -42 14
-67 30 -25 16 -51 30 -58 30 -7 0 -43 18 -80 40 -37 23 -78 43 -92 47 -14 3
-46 18 -71 34 -53 33 -121 39 -169 14 l-30 -16 0 -50 0 -50 38 -45 c35 -43 95
-84 124 -84 22 -1 79 -32 186 -103 115 -77 140 -100 149 -137 3 -14 18 -46 34
-71 l29 -46 0 -102 0 -101 54 -108 54 -107 80 -75 c104 -97 181 -155 240 -181
26 -12 63 -30 82 -40 19 -11 60 -31 90 -46 30 -14 63 -30 72 -34 10 -5 38 -9
62 -9 l45 0 36 34 36 35 -11 20 c-10 20 -97 71 -121 71 -18 0 -148 67 -220
113 -36 23 -90 67 -120 97 -30 30 -67 63 -82 73 -15 10 -30 30 -33 45 -4 15
-19 48 -35 73 l-29 46 0 102 c0 56 -5 112 -11 123 -6 11 -14 45 -18 74 -10 73
2 83 72 62 72 -22 134 -38 189 -48 26 -5 56 -13 67 -19 11 -6 58 -11 106 -11
53 0 99 -6 122 -15 20 -8 66 -15 105 -15 38 0 84 -7 105 -15 24 -10 71 -15
150 -15 78 0 125 -5 150 -15 45 -19 234 -21 266 -3 12 7 69 15 127 19 101 6
142 14 240 45 25 8 65 14 88 14 l44 0 61 58 c34 32 81 73 105 91 31 24 42 40
42 59 0 15 7 48 17 74 l16 46 -13 31 c-7 18 -21 43 -32 56 l-19 25 -118 0
c-92 0 -129 4 -176 21 -123 42 -158 66 -135 94 10 12 37 15 122 15 74 0 120
-5 145 -15 20 -8 66 -15 105 -15 38 0 84 -7 105 -15 22 -9 67 -15 120 -15 52
0 97 -6 120 -15 19 -8 53 -15 75 -15 21 0 55 -7 75 -15 28 -12 86 -15 285 -15
198 0 256 -3 285 -15 21 -9 67 -15 117 -15 60 0 100 -7 154 -25 81 -28 104
-30 133 -15 l19 11 0 54 0 54 -30 16 c-16 8 -47 15 -70 15 -22 0 -57 7 -77 15
-19 8 -60 15 -90 15 -29 0 -70 7 -90 15 -22 9 -67 15 -120 15 -52 0 -97 6
-120 15 -28 12 -84 15 -267 15 -172 0 -243 4 -276 14 -98 31 -139 39 -240 45
-58 4 -115 12 -127 19 -13 7 -63 12 -127 12 -59 0 -108 4 -111 10 -4 6 -63 10
-145 10 -82 0 -141 -4 -145 -10z"/>
</g>
</svg>
