<?xml version="1.0" standalone="no"?>
<!DOCTYPE svg PUBLIC "-//W3C//DTD SVG 20010904//EN"
 "http://www.w3.org/TR/2001/REC-SVG-20010904/DTD/svg10.dtd">
<svg version="1.0" xmlns="http://www.w3.org/2000/svg"
 width="315.000000pt" height="159.000000pt" viewBox="0 0 315.000000 159.000000"
 preserveAspectRatio="xMidYMid meet">
<metadata>
Created by potrace 1.16, written by Peter Selinger 2001-2019
</metadata>
<g transform="translate(0.000000,159.000000) scale(0.100000,-0.100000)"
fill="#000000" stroke="none">
<path d="M245 1580 c-3 -5 -36 -10 -72 -10 l-66 0 -43 -44 c-24 -24 -44 -53
-44 -64 0 -11 -4 -24 -10 -27 -13 -8 -13 -162 0 -170 6 -3 10 -13 10 -21 0
-32 72 -160 107 -192 21 -18 42 -47 48 -64 6 -21 28 -45 63 -69 30 -20 70 -52
90 -71 21 -18 57 -48 82 -65 72 -49 367 -193 397 -193 69 -1 189 -91 258 -195
27 -41 50 -62 88 -81 29 -15 72 -43 96 -62 87 -71 156 -112 186 -112 17 0 50
-14 75 -30 25 -16 52 -30 60 -30 8 0 44 -14 78 -30 35 -17 77 -30 92 -30 16 0
32 -4 35 -10 3 -5 39 -10 79 -10 l74 0 26 34 c42 55 30 96 -26 96 -16 0 -45 7
-65 15 -19 8 -60 15 -90 15 l-54 0 -67 39 c-37 22 -92 55 -122 74 -30 19 -67
37 -82 41 -32 7 -193 154 -193 176 0 14 8 17 125 38 25 5 63 20 85 35 22 15
48 27 57 27 33 0 92 66 132 149 l40 81 -17 47 c-9 27 -17 67 -17 89 l0 42 -44
58 c-46 63 -105 124 -180 188 -25 21 -46 45 -46 52 0 19 90 18 137 -1 22 -9
67 -15 120 -15 52 0 97 -6 120 -15 24 -10 71 -15 150 -15 78 0 125 -5 150 -15
26 -11 74 -15 180 -15 105 0 153 -4 180 -15 28 -12 86 -15 284 -15 l249 0 41
-16 40 -17 55 19 c43 14 54 22 54 40 0 24 -40 58 -107 93 l-42 21 -101 0 c-67
0 -113 5 -137 15 -28 12 -82 15 -255 15 -172 0 -226 3 -255 15 -27 11 -77 15
-210 15 -132 0 -182 4 -210 15 -19 8 -60 15 -90 15 -29 0 -70 7 -90 15 -22 9
-67 15 -120 15 -52 0 -97 6 -120 15 -19 8 -60 15 -90 15 -29 0 -70 7 -90 15
-26 11 -74 15 -180 15 -105 0 -153 4 -180 15 -20 8 -66 15 -105 15 -38 0 -84
7 -105 15 -22 9 -68 15 -124 15 -48 0 -91 5 -94 10 -3 6 -48 10 -100 10 -52 0
-97 -4 -100 -10z m328 -182 l102 -3 33 -23 32 -23 0 -48 0 -48 48 -62 c26 -35
79 -97 118 -140 114 -123 120 -138 84 -214 -24 -52 -38 -69 -72 -91 l-27 -18
-78 27 c-86 29 -148 62 -178 95 -11 12 -38 31 -60 42 -62 32 -93 58 -136 115
-23 31 -47 53 -59 53 -10 0 -27 12 -38 28 -23 32 -122 234 -122 248 0 5 8 23
18 39 l19 30 106 -2 c59 -2 153 -4 210 -5z m471 -165 c13 -13 101 -43 126 -43
52 0 223 -131 291 -224 l29 -39 0 -71 c0 -101 -17 -123 -135 -182 -136 -67
-226 -33 -192 74 31 96 40 139 44 209 l5 71 -54 41 c-50 37 -98 90 -98 108 0
4 -12 20 -27 35 -19 20 -22 28 -12 28 9 0 19 -3 23 -7z"/>
</g>
</svg>
