<?xml version="1.0" standalone="no"?>
<!DOCTYPE svg PUBLIC "-//W3C//DTD SVG 20010904//EN"
 "http://www.w3.org/TR/2001/REC-SVG-20010904/DTD/svg10.dtd">
<svg version="1.0" xmlns="http://www.w3.org/2000/svg"
 width="945.000000pt" height="126.000000pt" viewBox="0 0 945.000000 126.000000"
 preserveAspectRatio="xMidYMid meet">
<metadata>
Created by potrace 1.16, written by Peter Selinger 2001-2019
</metadata>
<g transform="translate(0.000000,126.000000) scale(0.100000,-0.100000)"
fill="#000000" stroke="none">
<path d="M7 1253 c-10 -9 -8 -150 2 -171 4 -9 18 -39 30 -66 12 -27 39 -69 60
-95 21 -25 44 -56 50 -68 6 -12 35 -38 65 -58 29 -19 73 -53 97 -74 24 -21 62
-47 84 -59 22 -11 67 -44 100 -73 33 -30 80 -62 105 -72 83 -35 107 -49 158
-93 28 -24 56 -44 62 -44 19 0 81 -31 124 -62 21 -15 46 -28 55 -28 9 0 36
-14 61 -30 25 -16 51 -30 58 -30 7 0 43 -18 80 -40 36 -22 82 -45 102 -50 19
-5 59 -21 88 -35 29 -14 70 -25 92 -25 22 0 57 -7 77 -15 19 -8 53 -15 75 -15
21 0 55 -7 75 -15 22 -9 68 -15 124 -15 48 0 91 -5 94 -10 8 -13 222 -13 230
0 3 6 26 10 49 10 24 0 60 7 79 15 21 9 67 15 107 15 85 0 133 21 203 88 56
55 62 89 21 121 -36 28 -73 26 -174 -9 -46 -17 -94 -30 -106 -30 -12 0 -38 -7
-57 -15 -20 -8 -54 -15 -75 -15 -22 0 -56 -7 -75 -15 -20 -8 -59 -15 -87 -15
-28 0 -67 7 -87 15 -23 10 -69 15 -135 15 -65 0 -111 5 -135 15 -19 8 -53 15
-75 15 -21 0 -55 7 -75 15 -19 8 -47 15 -60 15 -14 0 -52 13 -86 28 -34 16
-73 32 -87 35 -14 4 -47 24 -74 47 -35 29 -57 40 -81 40 -23 0 -47 11 -77 35
-47 37 -178 108 -218 118 -14 4 -43 22 -65 40 -22 19 -59 44 -81 55 -59 30
-171 108 -225 156 -25 22 -65 54 -88 70 -23 15 -60 51 -81 80 -22 28 -57 74
-78 101 -22 28 -47 66 -57 85 -10 19 -29 54 -44 77 l-26 42 -46 1 c-25 0 -49
-3 -52 -7z"/>
<path d="M4855 1165 c-16 -8 -40 -14 -52 -15 -13 0 -52 -10 -88 -21 -70 -24
-106 -56 -157 -143 l-27 -46 -101 0 c-67 0 -113 5 -137 15 -24 10 -71 15 -150
15 -78 0 -125 5 -150 15 -26 11 -74 15 -180 15 -105 0 -153 4 -180 15 -19 8
-60 15 -90 15 -29 0 -70 7 -90 15 -26 11 -76 15 -195 15 -118 0 -168 4 -195
15 -25 11 -72 15 -165 15 -92 0 -139 4 -165 15 -26 11 -74 15 -180 15 -105 0
-153 4 -180 15 l-35 15 -388 0 -388 0 -35 -15 c-20 -8 -49 -15 -64 -15 -40 0
-70 -24 -98 -80 -29 -58 -33 -134 -9 -168 15 -21 161 -102 184 -102 6 0 36
-11 66 -25 92 -42 171 -65 224 -65 28 0 67 -7 87 -15 67 -28 151 -15 206 33
55 49 -27 122 -138 122 -31 0 -72 7 -92 15 -19 8 -60 15 -90 15 l-55 0 -59 36
c-79 49 -86 58 -57 78 l22 16 384 0 383 0 36 -15 c28 -12 84 -15 270 -15 185
0 241 -3 270 -15 20 -8 66 -15 105 -15 38 0 84 -7 105 -15 24 -10 70 -15 144
-15 118 0 183 -11 241 -41 29 -15 58 -19 138 -19 67 0 113 -5 137 -15 28 -12
82 -15 252 -15 159 0 228 -4 261 -14 107 -34 142 -39 264 -43 l128 -4 19 17
19 17 0 92 c0 98 7 115 49 115 14 0 44 7 67 16 l41 16 38 -16 37 -16 265 0
264 0 36 -15 c22 -9 67 -15 120 -15 52 0 97 -6 120 -15 19 -8 47 -15 62 -15
14 0 43 -11 62 -24 40 -27 146 -66 180 -66 32 0 80 -26 218 -118 l125 -84 31
8 c16 3 146 9 287 11 l256 4 37 -16 c24 -9 68 -15 122 -15 52 0 97 -6 120 -15
22 -9 68 -15 122 -15 l86 0 45 -30 45 -30 103 0 c69 0 115 -5 139 -15 25 -11
73 -15 170 -15 l134 0 49 25 c57 29 80 58 80 100 0 17 5 36 12 43 18 18 369
17 428 -2 107 -34 144 -39 300 -45 103 -4 173 -11 187 -18 30 -18 138 -16 173
2 l30 16 0 38 0 39 -42 31 -42 31 -73 0 c-43 0 -89 6 -110 15 -26 11 -74 15
-182 15 l-147 0 -29 30 -29 30 -193 0 c-150 0 -202 3 -230 15 -22 9 -67 15
-120 15 -52 0 -97 6 -120 15 -19 8 -59 15 -87 15 -28 0 -84 11 -124 25 -89 30
-102 31 -152 5 -45 -23 -70 -54 -70 -87 0 -26 75 -113 97 -113 8 0 24 -5 36
-12 l22 -11 -20 -8 c-11 -4 -55 -8 -98 -8 l-79 -1 -65 30 -64 30 -100 0 c-66
0 -112 5 -136 15 -23 10 -69 15 -135 15 -65 0 -111 5 -135 15 -24 10 -71 15
-150 15 -78 0 -125 5 -150 15 -19 8 -51 15 -71 15 -45 0 -145 33 -245 82 -43
21 -82 38 -88 38 -6 0 -35 12 -66 26 -76 34 -211 75 -315 94 -26 5 -56 13 -67
19 -11 6 -58 11 -106 11 -53 0 -99 6 -122 15 l-35 15 -280 0 -279 0 -36 15
c-43 18 -118 18 -158 0z"/>
</g>
</svg>
