<?xml version="1.0" standalone="no"?>
<!DOCTYPE svg PUBLIC "-//W3C//DTD SVG 20010904//EN"
 "http://www.w3.org/TR/2001/REC-SVG-20010904/DTD/svg10.dtd">
<svg version="1.0" xmlns="http://www.w3.org/2000/svg"
 width="660.000000pt" height="309.000000pt" viewBox="0 0 660.000000 309.000000"
 preserveAspectRatio="xMidYMid meet">
<metadata>
Created by potrace 1.16, written by Peter Selinger 2001-2019
</metadata>
<g transform="translate(0.000000,309.000000) scale(0.100000,-0.100000)"
fill="#000000" stroke="none">
<path d="M1835 3036 c-39 -29 -76 -65 -83 -81 l-13 -28 27 -86 c15 -47 32 -92
38 -99 5 -8 31 -24 58 -38 55 -28 87 -68 72 -92 -6 -8 -25 -23 -44 -34 l-35
-18 -143 0 c-104 0 -152 4 -179 15 -23 10 -69 15 -135 15 -65 0 -111 5 -135
15 -19 8 -59 15 -87 15 -28 0 -71 6 -96 14 -60 19 -125 35 -182 46 -26 5 -56
13 -67 19 -11 6 -45 11 -77 11 -41 0 -76 8 -123 29 -121 52 -175 73 -304 117
-70 24 -145 55 -165 69 -52 35 -78 32 -124 -15 -28 -31 -38 -49 -38 -74 l0
-34 69 -65 c38 -36 98 -82 133 -102 34 -20 77 -52 93 -71 17 -19 53 -49 82
-67 78 -49 172 -126 232 -189 38 -41 66 -61 93 -69 28 -7 65 -34 121 -88 45
-42 96 -85 112 -96 17 -10 57 -44 90 -75 33 -31 76 -67 96 -80 20 -13 47 -39
60 -59 13 -20 52 -65 86 -100 35 -35 83 -94 108 -132 25 -37 60 -85 77 -105
42 -47 105 -147 158 -249 23 -44 52 -94 65 -111 43 -57 115 -219 115 -260 0
-21 14 -77 30 -124 l30 -85 2 -165 1 -165 -16 -39 c-10 -21 -17 -56 -17 -78 0
-21 -7 -55 -15 -75 -19 -45 -19 -86 0 -123 l16 -30 39 0 40 0 24 49 c22 43 71
184 107 311 17 60 24 352 9 380 -6 12 -15 42 -20 68 -23 123 -95 348 -124 387
-27 36 -56 98 -56 118 0 7 -13 32 -29 54 -16 22 -38 58 -49 79 -11 22 -32 50
-46 63 -14 14 -26 33 -26 43 0 10 -29 49 -64 87 -35 37 -75 85 -89 107 -30 47
-327 341 -377 373 -20 13 -48 41 -63 62 -15 21 -51 51 -80 66 -32 17 -62 44
-80 71 -16 24 -46 52 -69 63 -50 26 -132 105 -123 119 9 15 111 12 152 -5 19
-8 53 -15 75 -15 21 0 55 -7 75 -15 19 -8 53 -15 75 -15 21 0 55 -7 75 -15 24
-10 71 -15 149 -15 79 0 125 -5 152 -15 l39 -16 184 4 c109 2 202 9 229 16 25
7 95 29 157 48 l111 36 45 -7 c25 -4 83 -25 128 -47 46 -23 125 -54 174 -70
50 -16 112 -45 139 -64 31 -22 61 -35 80 -35 17 0 60 -14 94 -30 35 -17 69
-30 75 -30 7 0 32 -14 57 -30 25 -16 54 -30 64 -30 22 0 106 -86 141 -146 14
-22 57 -65 96 -95 40 -30 85 -67 100 -84 157 -168 333 -342 374 -370 28 -18
104 -88 170 -155 66 -66 141 -132 168 -147 26 -14 59 -41 73 -60 14 -18 43
-42 65 -54 22 -11 57 -35 77 -53 45 -41 212 -126 247 -126 14 0 42 -7 62 -15
52 -22 161 -19 236 6 76 26 82 31 113 91 l24 47 0 106 0 106 -24 47 c-13 26
-43 65 -66 87 -23 22 -57 62 -77 88 -24 32 -54 57 -93 77 -31 16 -83 51 -116
79 -32 28 -94 70 -138 92 -43 23 -95 56 -115 73 -23 21 -67 42 -122 59 -48 16
-102 39 -120 53 -40 30 -183 104 -201 104 -20 0 -135 57 -171 84 -18 13 -84
41 -147 62 -77 25 -125 47 -145 66 -17 15 -38 28 -46 28 -8 0 -47 16 -87 35
-82 39 -150 103 -171 160 l-13 37 13 9 c23 15 166 10 206 -6 25 -11 72 -15
165 -15 92 0 139 -4 165 -15 26 -11 76 -15 195 -15 118 0 168 -4 195 -15 l35
-15 312 0 311 1 95 32 c52 18 101 36 108 41 20 12 82 143 82 174 0 15 5 33 12
40 18 18 259 16 305 -3 25 -11 72 -15 165 -15 92 0 139 -4 165 -15 23 -10 69
-15 135 -15 65 0 111 -5 135 -15 23 -10 69 -15 135 -15 65 0 111 -5 135 -15
26 -11 76 -15 199 -15 l164 0 0 70 0 70 -25 0 c-14 0 -42 7 -62 15 -28 12 -84
15 -270 15 -185 0 -241 3 -270 15 -20 8 -66 15 -105 15 -38 0 -84 7 -105 15
-25 11 -72 15 -165 15 -92 0 -139 4 -165 15 -23 10 -69 15 -135 15 -65 0 -111
5 -135 15 -27 12 -79 15 -225 15 -145 0 -197 3 -225 15 -26 11 -73 15 -173 15
l-137 0 -16 -18 c-28 -30 -22 -89 12 -123 l29 -29 62 0 c33 0 77 -7 97 -15 19
-8 54 -15 77 -15 74 0 174 -66 136 -90 -9 -6 -235 -10 -573 -10 l-558 0 -36
15 c-23 10 -69 15 -135 15 -65 0 -111 5 -135 15 -19 8 -58 15 -86 15 -29 0
-90 13 -142 29 -49 16 -116 35 -148 42 l-58 12 -34 -16 c-52 -25 -77 -71 -71
-129 l5 -48 -23 -6 c-32 -8 -250 65 -376 126 -8 4 -16 16 -18 27 -2 11 -16 33
-33 48 -16 16 -29 35 -29 42 0 7 -18 48 -39 91 -42 83 -90 134 -200 210 l-61
42 -73 -1 -72 0 -70 -53z m1910 -1177 c49 -33 178 -96 212 -103 18 -4 58 -25
90 -47 32 -21 65 -39 73 -39 8 0 42 -13 76 -29 34 -16 75 -32 91 -35 17 -4 54
-27 83 -52 28 -24 55 -44 59 -44 11 0 171 -107 199 -133 13 -12 49 -35 80 -52
31 -16 68 -46 82 -66 14 -19 40 -55 58 -79 25 -33 32 -53 32 -87 l0 -43 -47
-30 c-25 -16 -61 -34 -80 -41 l-33 -11 -66 31 c-37 17 -71 31 -78 31 -17 0
-146 87 -191 129 -22 20 -60 50 -84 67 -60 39 -193 163 -243 227 -15 18 -53
49 -84 68 -43 26 -60 42 -68 69 -7 23 -25 44 -54 63 -24 16 -54 46 -67 66 -22
36 -51 63 -109 104 -14 10 -26 27 -26 37 0 27 55 27 95 -1z"/>
</g>
</svg>
