<?xml version="1.0" standalone="no"?>
<!DOCTYPE svg PUBLIC "-//W3C//DTD SVG 20010904//EN"
 "http://www.w3.org/TR/2001/REC-SVG-20010904/DTD/svg10.dtd">
<svg version="1.0" xmlns="http://www.w3.org/2000/svg"
 width="669.000000pt" height="63.000000pt" viewBox="0 0 669.000000 63.000000"
 preserveAspectRatio="xMidYMid meet">
<metadata>
Created by potrace 1.16, written by Peter Selinger 2001-2019
</metadata>
<g transform="translate(0.000000,63.000000) scale(0.100000,-0.100000)"
fill="#000000" stroke="none">
<path d="M72 605 c-9 -19 -19 -25 -42 -25 l-30 0 0 -23 c0 -13 9 -26 22 -32
12 -6 26 -24 30 -42 5 -18 20 -40 34 -50 14 -10 50 -37 79 -60 56 -44 125 -83
148 -83 7 0 27 -17 44 -38 l31 -38 111 -37 c62 -20 126 -37 144 -37 17 0 72
-13 122 -29 134 -43 172 -52 255 -60 41 -4 85 -13 97 -19 14 -8 75 -12 172
-12 89 0 152 -4 156 -10 8 -14 642 -14 650 0 3 6 26 10 51 10 55 0 104 24 193
96 50 40 70 63 75 85 3 17 15 44 27 60 l20 29 238 0 237 0 29 -30 29 -30 118
0 c83 0 129 -5 155 -15 22 -9 67 -15 120 -15 52 0 97 -6 120 -15 22 -9 67 -15
120 -15 52 0 97 -6 120 -15 27 -11 78 -15 212 -15 l176 0 63 -30 c47 -22 79
-30 118 -30 30 0 71 -7 91 -15 24 -10 71 -15 150 -15 78 0 125 -5 150 -15 28
-12 82 -15 250 -15 l215 0 26 29 c15 15 47 56 71 91 l44 62 66 -6 c125 -11
196 -23 228 -39 25 -13 61 -17 163 -17 93 0 141 -4 167 -15 20 -8 66 -15 104
-15 37 0 80 -5 96 -11 15 -6 111 -15 213 -20 243 -13 248 -13 298 -4 l42 8 0
51 0 51 -49 18 c-37 13 -81 17 -190 17 -103 0 -151 4 -178 15 -23 10 -69 15
-135 15 -65 0 -111 5 -135 15 -22 9 -67 15 -120 15 -52 0 -97 6 -120 15 -19 8
-60 15 -90 15 -29 0 -70 7 -90 15 -22 9 -67 15 -120 15 -52 0 -97 6 -120 15
-22 9 -67 15 -117 15 -44 0 -101 6 -126 14 -60 19 -125 35 -182 46 -26 5 -56
14 -67 20 -13 6 -65 10 -133 8 l-112 -3 -23 -34 c-29 -42 -29 -50 0 -92 l23
-34 59 -6 c33 -3 70 -11 82 -17 12 -7 33 -12 48 -12 25 0 76 -21 103 -43 l13
-10 -13 -8 c-7 -5 -91 -9 -186 -9 -131 0 -181 4 -209 15 -22 9 -67 15 -117 15
-65 0 -99 6 -166 30 -53 18 -105 30 -138 30 -29 0 -69 7 -89 15 -23 10 -69 15
-135 15 -65 0 -111 5 -135 15 -27 12 -81 15 -240 15 -158 0 -212 3 -240 15
-20 8 -66 15 -105 15 l-70 0 -65 30 -64 30 -130 0 c-93 0 -140 4 -166 15 -26
11 -74 15 -180 15 -105 0 -153 4 -180 15 -28 12 -85 15 -282 15 -185 0 -257 3
-291 14 -94 30 -138 38 -225 45 -49 4 -100 12 -112 19 -13 7 -66 12 -138 12
-80 0 -127 5 -152 15 -27 11 -78 15 -214 15 -108 0 -180 4 -184 10 -4 6 -116
10 -304 10 l-298 0 -11 -25z m615 -150 l35 -15 310 0 309 0 36 -15 c19 -8 59
-15 87 -15 28 0 71 -6 96 -14 101 -32 140 -39 255 -45 66 -4 130 -12 142 -19
14 -8 69 -12 157 -12 l135 0 11 -20 c21 -39 -27 -88 -115 -119 -44 -16 -84
-21 -156 -21 -63 0 -109 -5 -132 -15 -47 -19 -206 -20 -267 -1 -109 34 -146
39 -330 46 -107 3 -208 11 -225 17 -48 18 -116 34 -175 42 -68 9 -327 95 -394
131 -55 29 -72 49 -63 74 l6 16 121 0 c85 0 131 -4 157 -15z"/>
</g>
</svg>
