<?xml version="1.0" standalone="no"?>
<!DOCTYPE svg PUBLIC "-//W3C//DTD SVG 20010904//EN"
 "http://www.w3.org/TR/2001/REC-SVG-20010904/DTD/svg10.dtd">
<svg version="1.0" xmlns="http://www.w3.org/2000/svg"
 width="252.000000pt" height="114.000000pt" viewBox="0 0 252.000000 114.000000"
 preserveAspectRatio="xMidYMid meet">
<metadata>
Created by potrace 1.16, written by Peter Selinger 2001-2019
</metadata>
<g transform="translate(0.000000,114.000000) scale(0.100000,-0.100000)"
fill="#000000" stroke="none">
<path d="M91 1110 c-71 -47 -91 -70 -91 -105 0 -35 32 -71 89 -100 19 -9 52
-30 74 -46 22 -16 47 -29 56 -29 9 0 33 -11 52 -24 40 -28 146 -66 181 -66 13
0 52 -14 86 -30 37 -18 80 -30 103 -30 22 0 56 -7 76 -15 19 -8 60 -15 90 -15
29 0 70 -7 90 -15 25 -11 72 -15 165 -15 l129 0 43 -19 c42 -20 106 -76 106
-94 0 -5 24 -33 54 -62 53 -53 76 -104 76 -168 0 -64 -107 -117 -236 -117 -72
0 -134 -25 -158 -62 -13 -21 6 -66 31 -74 10 -3 26 -10 35 -15 23 -12 184 -12
206 1 9 5 46 19 82 31 51 16 77 32 123 77 32 31 69 78 83 104 44 86 28 205
-36 263 -35 32 -54 74 -39 91 l11 14 293 0 293 0 35 15 c20 8 53 15 74 15 21
0 76 14 123 30 46 17 94 30 107 30 l23 0 0 54 0 53 -45 13 c-36 10 -55 10 -84
1 -21 -6 -74 -11 -118 -11 -49 0 -95 -6 -116 -15 -25 -10 -72 -15 -150 -15
-79 0 -126 -5 -150 -15 -20 -8 -52 -15 -72 -15 -20 0 -52 7 -72 15 -23 10 -69
15 -135 15 -65 0 -111 5 -135 15 -19 8 -61 15 -92 15 -44 0 -65 6 -94 25 -65
45 -235 125 -264 125 -16 0 -48 14 -73 30 -25 16 -52 30 -60 30 -8 0 -44 14
-78 30 -35 17 -75 30 -88 30 -14 0 -41 7 -61 15 -19 8 -49 15 -65 15 -18 0
-39 10 -54 25 l-25 25 -177 -1 -177 -1 -44 -28z m339 -119 c31 -11 62 -30 73
-45 14 -19 28 -26 53 -26 19 0 51 -7 71 -15 19 -8 55 -15 79 -15 l44 0 16 -26
17 -26 -14 -9 c-22 -14 -96 -11 -136 6 -19 8 -48 15 -63 15 -19 0 -35 9 -48
27 -19 26 -70 46 -156 61 -42 8 -63 30 -53 56 8 21 50 21 117 -3z"/>
</g>
</svg>
