<?xml version="1.0" standalone="no"?>
<!DOCTYPE svg PUBLIC "-//W3C//DTD SVG 20010904//EN"
 "http://www.w3.org/TR/2001/REC-SVG-20010904/DTD/svg10.dtd">
<svg version="1.0" xmlns="http://www.w3.org/2000/svg"
 width="273.000000pt" height="279.000000pt" viewBox="0 0 273.000000 279.000000"
 preserveAspectRatio="xMidYMid meet">
<metadata>
Created by potrace 1.16, written by Peter Selinger 2001-2019
</metadata>
<g transform="translate(0.000000,279.000000) scale(0.100000,-0.100000)"
fill="#000000" stroke="none">
<path d="M360 2750 l-13 -40 18 -40 c24 -53 32 -59 123 -89 57 -19 80 -33 91
-52 l14 -26 -19 -38 c-11 -21 -27 -43 -35 -48 -26 -17 -84 2 -129 41 -24 20
-64 48 -89 62 -25 14 -51 36 -57 50 -6 14 -18 39 -25 55 -8 17 -34 40 -56 53
l-42 23 -43 -12 c-52 -14 -78 -41 -78 -80 0 -15 -5 -31 -10 -34 -13 -8 -13
-132 0 -140 6 -3 10 -19 10 -34 0 -16 7 -45 15 -64 8 -20 15 -48 15 -62 0 -28
59 -152 95 -200 12 -17 46 -78 75 -135 31 -62 73 -127 102 -159 27 -30 60 -75
72 -100 13 -25 34 -55 46 -66 12 -10 41 -47 65 -81 24 -33 55 -68 69 -78 15
-9 37 -34 51 -56 14 -22 40 -47 57 -56 18 -9 137 -119 263 -243 127 -125 246
-238 265 -250 20 -13 48 -41 64 -62 15 -22 49 -50 76 -64 27 -14 57 -37 67
-52 34 -51 100 -113 120 -113 12 0 32 -15 47 -35 15 -19 51 -47 79 -61 29 -14
72 -43 97 -64 25 -20 64 -47 86 -58 23 -12 79 -47 124 -78 119 -81 270 -154
320 -154 23 0 66 -11 96 -25 30 -14 83 -34 117 -45 34 -12 71 -25 82 -31 12
-6 48 -9 80 -7 l60 3 3 62 3 63 -23 0 c-24 0 -213 61 -258 83 -14 6 -43 24
-64 39 -28 21 -51 28 -83 28 -56 0 -161 47 -223 99 -25 21 -68 50 -96 64 -28
14 -75 48 -105 74 -30 27 -92 75 -139 106 -47 31 -136 106 -198 166 -63 60
-128 119 -146 131 -17 12 -44 40 -60 61 -15 22 -49 50 -76 64 -27 14 -57 37
-67 52 -10 14 -38 46 -63 70 -86 83 -105 102 -139 143 -19 23 -47 43 -65 48
-23 6 -40 22 -66 66 -19 32 -53 70 -75 85 -23 15 -51 48 -67 78 -16 28 -44 63
-63 77 -19 15 -47 51 -61 79 -15 29 -39 66 -53 82 -50 57 -123 176 -137 222
-8 25 -25 61 -40 80 -37 49 -85 157 -78 177 8 21 13 21 80 -9 l56 -25 90 0
c104 0 131 11 200 79 26 25 61 58 78 74 l31 27 -2 52 c-4 67 11 78 73 55 24
-9 67 -17 96 -17 29 0 69 -7 89 -15 22 -9 67 -15 120 -15 52 0 97 -6 120 -15
19 -8 59 -15 87 -15 28 0 71 -6 96 -14 94 -30 138 -38 225 -45 50 -4 97 -11
105 -16 8 -6 69 -13 135 -17 66 -4 136 -10 155 -13 27 -5 43 -1 70 17 l35 24
3 38 c5 57 -17 76 -90 76 -32 0 -75 7 -95 15 -25 11 -72 15 -165 15 -92 0
-139 4 -165 15 -19 8 -65 15 -102 15 -36 0 -86 6 -111 14 -87 28 -136 38 -210
45 -41 4 -85 13 -97 19 -12 7 -47 12 -78 12 -30 0 -72 7 -92 15 -23 10 -69 15
-135 15 -65 0 -111 5 -135 15 -19 8 -45 15 -57 15 -23 0 -122 32 -133 43 -3 4
-48 7 -98 7 l-92 0 -13 -40z"/>
</g>
</svg>
