<?xml version="1.0" standalone="no"?>
<!DOCTYPE svg PUBLIC "-//W3C//DTD SVG 20010904//EN"
 "http://www.w3.org/TR/2001/REC-SVG-20010904/DTD/svg10.dtd">
<svg version="1.0" xmlns="http://www.w3.org/2000/svg"
 width="582.000000pt" height="135.000000pt" viewBox="0 0 582.000000 135.000000"
 preserveAspectRatio="xMidYMid meet">
<metadata>
Created by potrace 1.16, written by Peter Selinger 2001-2019
</metadata>
<g transform="translate(0.000000,135.000000) scale(0.100000,-0.100000)"
fill="#000000" stroke="none">
<path d="M4070 1317 c0 -44 22 -73 80 -102 l49 -25 146 0 c107 0 155 -4 182
-15 24 -10 71 -15 150 -15 78 0 125 -5 150 -15 27 -11 77 -15 209 -15 103 0
184 -4 201 -11 15 -6 116 -14 223 -18 123 -4 203 -11 217 -19 30 -16 78 -15
113 3 l30 16 0 69 0 70 -250 0 c-200 0 -258 3 -287 15 -27 12 -79 15 -225 15
-145 0 -197 3 -225 15 -24 10 -71 15 -150 15 -78 0 -125 5 -150 15 -20 9 -66
15 -109 15 -40 0 -76 5 -79 10 -4 6 -62 10 -141 10 l-134 0 0 -33z"/>
<path d="M4099 1001 c-36 -36 -36 -57 -3 -122 59 -117 61 -273 4 -334 -16 -16
-30 -37 -32 -47 -1 -9 -35 -45 -75 -81 l-72 -64 -143 -48 c-79 -27 -168 -52
-198 -56 -57 -8 -114 -21 -190 -45 -34 -11 -106 -14 -291 -14 -197 0 -254 -3
-282 -15 l-36 -15 -276 0 -276 0 -36 15 c-27 12 -79 15 -225 15 -145 0 -197 3
-225 15 -19 8 -52 15 -72 15 -20 0 -56 6 -81 14 -77 24 -133 37 -190 45 -30 4
-71 12 -90 18 -75 24 -128 35 -195 42 -82 8 -240 60 -293 96 -25 17 -50 25
-80 25 -23 0 -59 7 -79 15 -19 8 -47 15 -61 15 -14 0 -46 13 -71 29 -25 16
-71 34 -101 41 -78 17 -100 23 -230 69 -63 22 -134 40 -157 41 l-43 0 0 -40
c0 -27 4 -40 13 -40 8 0 24 -12 38 -26 44 -48 279 -154 341 -154 13 0 65 -20
116 -45 52 -25 105 -45 118 -45 14 0 41 -7 61 -15 19 -8 45 -15 57 -15 24 0
151 -42 194 -64 50 -26 150 -56 187 -56 20 0 52 -7 72 -15 20 -8 66 -15 105
-15 38 0 84 -7 105 -15 19 -8 53 -15 75 -15 21 0 55 -7 75 -15 19 -8 53 -15
75 -15 21 0 55 -7 75 -15 19 -8 60 -15 90 -15 29 0 70 -7 90 -15 25 -10 71
-15 154 -15 68 0 120 -4 124 -10 8 -14 702 -14 710 0 4 6 72 10 171 10 108 0
173 4 187 12 12 6 56 15 97 19 74 7 123 17 210 45 25 8 61 14 80 14 19 0 73
14 120 30 46 17 93 30 105 30 39 1 123 37 158 67 19 17 64 45 99 63 95 48 142
99 204 222 l54 108 0 107 0 107 -45 67 c-61 90 -96 119 -147 119 -30 0 -46 -7
-69 -29z"/>
</g>
</svg>
