<?xml version="1.0" standalone="no"?>
<!DOCTYPE svg PUBLIC "-//W3C//DTD SVG 20010904//EN"
 "http://www.w3.org/TR/2001/REC-SVG-20010904/DTD/svg10.dtd">
<svg version="1.0" xmlns="http://www.w3.org/2000/svg"
 width="1140.000000pt" height="93.000000pt" viewBox="0 0 1140.000000 93.000000"
 preserveAspectRatio="xMidYMid meet">
<metadata>
Created by potrace 1.16, written by Peter Selinger 2001-2019
</metadata>
<g transform="translate(0.000000,93.000000) scale(0.100000,-0.100000)"
fill="#000000" stroke="none">
<path d="M23 900 c-32 -39 -29 -66 7 -85 16 -8 35 -15 42 -15 7 0 30 -11 51
-25 61 -42 211 -113 294 -140 43 -14 102 -37 131 -50 29 -14 64 -25 78 -25 14
0 55 -14 91 -30 35 -16 75 -30 89 -30 14 0 41 -7 61 -15 19 -8 51 -15 71 -15
19 0 97 -20 171 -44 169 -55 211 -66 286 -75 34 -5 70 -13 82 -19 12 -7 46
-12 75 -12 29 0 73 -6 98 -14 78 -25 133 -37 195 -45 34 -5 70 -13 82 -19 12
-7 47 -12 78 -12 30 0 72 -7 92 -15 19 -8 60 -15 90 -15 29 0 70 -7 90 -15
l35 -15 310 0 309 0 36 -15 35 -15 358 0 358 0 35 15 c24 10 70 15 135 15 66
0 112 5 135 15 20 8 47 15 61 15 14 0 54 14 89 30 36 17 70 30 76 30 6 0 47
18 90 39 58 30 93 56 138 105 l60 66 50 0 c56 0 150 -30 202 -66 19 -13 48
-24 64 -24 15 0 44 -7 64 -15 19 -8 53 -15 75 -15 21 0 55 -7 75 -15 19 -8 53
-15 74 -15 21 0 50 -5 65 -10 18 -7 37 -7 58 0 l32 10 84 -30 c47 -16 102 -30
123 -30 21 0 54 -7 74 -15 20 -8 66 -15 105 -15 38 0 84 -7 105 -15 l35 -15
268 0 268 0 35 15 c20 8 61 15 90 15 30 0 71 7 90 15 20 8 47 15 61 15 14 0
54 13 89 30 36 16 70 30 77 30 26 0 89 42 115 77 16 21 38 45 50 53 11 8 36
29 56 47 l36 33 232 0 231 0 41 -17 41 -16 47 16 c60 22 217 23 268 2 26 -11
74 -15 180 -15 105 0 153 -4 180 -15 28 -12 84 -15 270 -15 185 0 241 -3 270
-15 22 -9 67 -15 120 -15 52 0 97 -6 120 -15 25 -11 72 -15 165 -15 92 0 139
-4 165 -15 24 -10 70 -15 145 -15 l110 0 29 29 c39 39 37 70 -7 123 -49 57
-104 145 -104 163 0 25 56 18 127 -15 35 -17 69 -30 75 -30 21 0 79 -34 89
-52 8 -15 4 -29 -20 -67 -36 -56 -36 -59 -12 -129 29 -84 178 -229 311 -302
25 -14 63 -38 85 -53 l40 -27 62 0 c34 0 65 -5 68 -10 3 -6 48 -10 99 -10 l92
0 26 28 c69 73 59 118 -56 247 -44 50 -89 100 -100 113 l-20 22 16 16 15 15
38 -15 c21 -9 55 -16 77 -16 21 0 55 -7 75 -15 19 -8 60 -15 90 -15 29 0 70
-7 90 -15 19 -8 53 -15 75 -15 21 0 55 -7 75 -15 27 -11 76 -15 201 -15 l166
0 28 27 c38 36 38 80 0 116 l-28 27 -132 0 c-95 0 -143 4 -169 15 -25 11 -72
15 -165 15 -92 0 -139 4 -165 15 -19 8 -53 15 -75 15 -21 0 -55 7 -75 15 -19
8 -53 15 -75 15 -21 0 -55 7 -75 15 -22 9 -67 15 -117 15 -87 0 -175 24 -228
62 -16 11 -43 24 -61 29 -18 5 -54 27 -81 49 -26 22 -55 40 -64 40 -8 0 -54
18 -101 41 -101 48 -190 79 -225 79 -14 0 -28 4 -31 10 -8 13 -102 13 -110 0
-3 -5 -15 -10 -26 -10 -34 0 -79 -53 -79 -92 1 -51 33 -132 68 -172 38 -43 41
-72 9 -87 -18 -8 -33 -7 -62 5 -27 11 -70 16 -152 16 -78 0 -125 5 -150 15
-24 10 -71 15 -150 15 -78 0 -125 5 -150 15 -26 11 -74 15 -179 15 -92 0 -153
4 -171 12 -23 11 -363 24 -688 27 -11 0 -97 -2 -191 -5 l-172 -5 -37 15 c-22
9 -66 16 -107 16 -38 0 -84 7 -105 15 -19 8 -45 15 -57 15 -11 0 -42 7 -68 17
l-47 17 -42 -19 c-88 -40 -108 -76 -74 -135 33 -57 8 -124 -58 -154 -54 -25
-150 -56 -173 -56 -12 0 -38 -7 -57 -15 l-36 -15 -321 0 -321 0 -36 15 c-19 8
-60 15 -90 15 -29 0 -70 7 -90 15 -19 8 -52 15 -72 15 -20 0 -56 6 -81 14 -65
21 -135 34 -220 41 -41 4 -90 13 -109 21 -18 8 -50 14 -70 14 -38 0 -124 26
-198 60 -23 11 -96 37 -162 59 -67 22 -138 52 -158 66 -54 36 -78 32 -129 -19
l-44 -43 0 -48 c0 -56 -24 -100 -75 -139 -54 -42 -159 -86 -203 -86 -22 0 -56
-7 -75 -15 -20 -8 -61 -15 -90 -15 -30 0 -71 -7 -90 -15 l-36 -15 -426 0 -426
0 -36 15 c-47 20 -166 19 -219 -1 l-41 -16 -38 16 c-24 10 -68 16 -122 16 -52
0 -97 6 -120 15 -25 11 -72 15 -162 15 -81 0 -142 5 -171 14 -77 24 -133 37
-190 45 -30 4 -71 12 -90 18 -67 21 -125 35 -185 42 -34 5 -70 13 -82 19 -12
7 -46 12 -75 12 -34 0 -85 11 -138 30 -47 16 -96 30 -108 30 -13 0 -53 14 -89
30 -35 17 -75 30 -89 30 -14 0 -41 7 -61 15 -19 8 -51 15 -71 15 -45 0 -145
33 -245 82 -43 21 -89 38 -103 38 -13 0 -41 7 -61 15 -19 8 -47 15 -60 15 -14
0 -65 25 -115 55 l-90 55 -56 -1 -57 0 -22 -29z m10070 -455 c19 -8 49 -32 65
-53 17 -21 50 -46 74 -56 69 -29 72 -31 79 -64 8 -38 -5 -52 -46 -52 -32 0
-94 38 -125 75 -8 10 -32 29 -53 42 -44 28 -62 61 -53 97 7 30 12 31 59 11z"/>
</g>
</svg>
