<?xml version="1.0" standalone="no"?>
<!DOCTYPE svg PUBLIC "-//W3C//DTD SVG 20010904//EN"
 "http://www.w3.org/TR/2001/REC-SVG-20010904/DTD/svg10.dtd">
<svg version="1.0" xmlns="http://www.w3.org/2000/svg"
 width="537.000000pt" height="90.000000pt" viewBox="0 0 537.000000 90.000000"
 preserveAspectRatio="xMidYMid meet">
<metadata>
Created by potrace 1.16, written by Peter Selinger 2001-2019
</metadata>
<g transform="translate(0.000000,90.000000) scale(0.100000,-0.100000)"
fill="#000000" stroke="none">
<path d="M3166 834 l-30 -66 17 -45 c12 -33 14 -50 7 -64 l-11 -19 -220 0
c-173 0 -227 3 -256 15 -28 12 -86 15 -284 15 l-249 0 -39 16 -38 15 -209 -5
c-249 -6 -169 -6 -674 2 -228 4 -421 11 -428 15 -7 5 -28 3 -46 -3 -27 -9 -42
-8 -71 5 -29 12 -78 15 -227 15 -145 0 -197 3 -225 15 -46 19 -74 19 -134 -2
l-49 -18 0 -37 0 -38 23 0 c13 0 61 -13 107 -30 l85 -30 158 0 c117 0 167 -4
194 -15 26 -11 74 -15 180 -15 105 0 153 -4 180 -15 27 -12 81 -15 240 -15
158 0 212 -3 240 -15 51 -21 257 -21 308 1 l38 16 41 -16 42 -16 412 0 413 0
36 -15 c24 -10 71 -15 150 -15 78 0 125 -5 150 -15 46 -19 74 -19 134 2 l49
18 94 -33 c53 -18 116 -32 141 -32 l47 0 29 29 c50 50 33 103 -60 188 l-56 51
15 16 15 16 65 -22 c82 -28 180 -78 193 -99 8 -13 2 -25 -31 -56 l-42 -40 0
-47 c0 -96 59 -216 106 -216 15 0 73 -45 163 -127 59 -53 146 -83 240 -83 38
0 73 -4 76 -10 8 -13 102 -13 110 0 3 6 15 10 26 10 11 0 34 13 50 29 l29 29
0 84 0 83 -25 37 c-14 20 -25 44 -25 52 l0 16 90 0 c58 0 104 -5 127 -15 20
-8 66 -15 105 -15 38 0 84 -7 105 -15 28 -12 85 -15 277 -15 l242 0 42 31 42
31 0 39 0 39 -35 17 -35 17 -48 -17 c-63 -23 -276 -24 -329 -2 -22 9 -67 15
-120 15 -52 0 -97 6 -120 15 -19 8 -60 15 -90 15 -29 0 -70 7 -90 15 -19 8
-60 15 -90 15 -29 0 -70 7 -90 15 -23 10 -69 15 -135 15 l-100 0 -72 35 c-69
35 -125 67 -236 139 -76 49 -206 111 -281 136 -35 11 -72 25 -81 30 -10 6 -64
10 -120 10 l-103 -1 -29 -65z m889 -489 c82 -38 138 -91 133 -126 l-3 -24 -43
-3 c-62 -5 -211 48 -244 85 -26 30 -50 84 -44 100 l6 15 63 -7 c37 -4 90 -20
132 -40z"/>
</g>
</svg>
