<?xml version="1.0" standalone="no"?>
<!DOCTYPE svg PUBLIC "-//W3C//DTD SVG 20010904//EN"
 "http://www.w3.org/TR/2001/REC-SVG-20010904/DTD/svg10.dtd">
<svg version="1.0" xmlns="http://www.w3.org/2000/svg"
 width="411.000000pt" height="339.000000pt" viewBox="0 0 411.000000 339.000000"
 preserveAspectRatio="xMidYMid meet">
<metadata>
Created by potrace 1.16, written by Peter Selinger 2001-2019
</metadata>
<g transform="translate(0.000000,339.000000) scale(0.100000,-0.100000)"
fill="#000000" stroke="none">
<path d="M1970 3342 c0 -61 20 -82 79 -82 33 0 60 -10 117 -45 40 -25 78 -45
83 -45 5 0 27 -18 50 -41 47 -45 51 -75 11 -72 -101 7 -158 21 -195 46 -22 15
-53 27 -70 27 -16 0 -54 11 -83 25 -69 32 -95 32 -121 -1 -41 -53 -22 -164 29
-164 7 0 36 -14 64 -32 50 -31 82 -55 215 -158 35 -28 67 -50 71 -50 4 0 58
-47 121 -104 64 -60 125 -107 140 -110 15 -3 61 -37 103 -76 42 -38 80 -70 85
-70 4 0 45 -34 90 -75 44 -41 85 -75 90 -75 16 0 178 -158 216 -210 19 -26 50
-58 68 -70 19 -13 44 -39 57 -59 13 -20 47 -61 76 -91 29 -30 64 -73 78 -95
14 -22 45 -54 69 -71 28 -20 46 -43 55 -70 7 -21 24 -50 37 -64 44 -47 254
-371 261 -403 7 -35 66 -157 94 -197 33 -47 60 -141 60 -211 0 -37 7 -83 15
-102 8 -20 15 -59 15 -86 0 -55 -36 -161 -55 -161 -16 0 -140 115 -285 264
-63 65 -133 130 -155 144 -22 14 -67 51 -100 82 -33 31 -73 65 -90 75 -16 10
-57 44 -90 75 -33 31 -73 64 -88 74 -15 9 -52 38 -82 64 -69 60 -139 113 -240
181 -44 29 -109 79 -145 111 -36 31 -84 67 -107 79 -23 11 -54 37 -69 56 -14
19 -58 56 -97 82 -39 26 -85 59 -102 73 -16 14 -69 52 -117 84 -48 32 -107 75
-130 96 -24 20 -58 45 -77 55 -19 9 -52 30 -74 46 -22 16 -49 29 -59 29 -22 0
-75 -25 -100 -48 l-18 -15 0 -93 c0 -63 -4 -95 -12 -101 -65 -41 -208 -56
-275 -28 -19 8 -53 15 -75 15 -21 0 -55 7 -75 15 -23 10 -69 15 -131 15 l-95
0 -151 50 c-83 28 -175 62 -204 75 -29 14 -57 25 -63 25 -6 0 -40 14 -76 30
-35 17 -69 30 -75 30 -16 0 -80 32 -113 56 -58 42 -174 94 -211 94 l-37 0 -39
-42 -38 -41 0 -42 0 -43 33 -24 c17 -14 48 -33 67 -43 89 -45 189 -121 219
-166 17 -26 44 -58 61 -71 17 -12 42 -32 56 -43 24 -19 49 -89 38 -107 -9 -14
-37 -9 -124 22 -60 21 -104 30 -149 30 l-64 0 -59 -58 -58 -59 0 -43 0 -43 88
-89 c89 -92 186 -164 280 -207 l52 -25 53 13 c68 18 103 36 155 82 23 20 59
41 80 46 65 15 109 104 77 157 -55 94 -158 327 -149 336 11 10 42 4 244 -50
25 -7 79 -15 120 -19 41 -4 85 -13 97 -19 12 -7 40 -12 63 -12 22 0 57 -7 77
-15 27 -12 80 -15 229 -15 l194 0 73 36 c39 20 87 50 106 66 18 16 44 34 56
40 l23 10 68 -40 c115 -67 187 -114 234 -152 25 -19 58 -44 75 -54 16 -11 50
-38 75 -61 25 -24 69 -55 98 -70 29 -15 65 -43 79 -62 15 -19 48 -45 75 -59
26 -13 78 -53 115 -87 38 -35 82 -71 98 -82 17 -10 57 -44 90 -75 33 -31 93
-78 132 -104 40 -26 81 -60 92 -75 11 -15 38 -40 60 -55 22 -16 59 -52 81 -82
22 -30 48 -54 56 -54 27 0 69 -30 94 -68 13 -21 43 -58 66 -83 23 -25 53 -63
67 -85 14 -21 46 -59 72 -84 68 -65 105 -118 105 -153 0 -16 12 -49 28 -73
l27 -43 42 -1 c43 0 39 -3 145 97 24 23 52 61 62 85 10 24 22 51 27 60 13 25
12 375 -1 383 -5 3 -10 39 -10 78 -1 87 -58 265 -114 357 -20 32 -36 64 -36
71 0 7 -16 38 -36 68 -65 101 -114 190 -114 205 0 9 -21 39 -48 68 -26 29 -69
87 -96 128 -27 41 -75 102 -106 135 -31 33 -65 74 -75 90 -11 17 -37 50 -60
75 -22 25 -62 77 -88 117 -27 41 -68 87 -95 107 -59 43 -151 138 -184 192 -30
47 -82 94 -105 94 -9 0 -35 19 -58 43 -46 46 -108 94 -230 176 -76 51 -108 74
-175 131 -17 14 -33 39 -36 57 l-6 33 76 78 c42 43 76 86 76 96 0 10 -7 42
-15 70 l-16 53 -83 81 c-46 45 -92 82 -102 82 -11 0 -39 14 -64 30 -26 18 -58
30 -77 30 -17 0 -35 5 -38 10 -3 6 -52 10 -111 10 l-104 0 0 -48z m-1530
-2017 c34 -18 37 -27 14 -46 l-16 -13 -46 24 c-25 14 -48 31 -50 38 -5 18 62
16 98 -3z"/>
</g>
</svg>
