<?xml version="1.0" standalone="no"?>
<!DOCTYPE svg PUBLIC "-//W3C//DTD SVG 20010904//EN"
 "http://www.w3.org/TR/2001/REC-SVG-20010904/DTD/svg10.dtd">
<svg version="1.0" xmlns="http://www.w3.org/2000/svg"
 width="180.000000pt" height="387.000000pt" viewBox="0 0 180.000000 387.000000"
 preserveAspectRatio="xMidYMid meet">
<metadata>
Created by potrace 1.16, written by Peter Selinger 2001-2019
</metadata>
<g transform="translate(0.000000,387.000000) scale(0.100000,-0.100000)"
fill="#000000" stroke="none">
<path d="M262 3833 c-33 -51 -26 -72 35 -108 28 -16 72 -43 98 -59 26 -16 63
-35 83 -41 23 -8 44 -25 56 -44 l18 -31 -12 -15 c-34 -41 -208 2 -314 77 -47
33 -104 37 -177 11 l-49 -18 0 -52 0 -52 29 -15 c43 -23 162 -105 192 -133 14
-13 43 -28 63 -34 22 -6 63 -35 104 -73 37 -34 80 -70 95 -80 15 -9 53 -39 83
-67 30 -27 59 -49 64 -49 12 0 254 -232 348 -335 40 -44 98 -107 128 -140 118
-129 164 -189 174 -226 7 -26 24 -49 51 -71 l41 -33 104 -208 104 -208 0 -118
c0 -85 4 -129 16 -156 l16 -38 -16 -41 c-9 -24 -16 -72 -16 -112 l0 -70 -34
-71 c-37 -77 -94 -142 -148 -167 -18 -8 -69 -27 -113 -41 -86 -28 -145 -73
-145 -110 0 -39 19 -45 131 -45 l108 0 64 30 c36 16 72 30 80 30 9 0 30 19 48
42 18 24 56 68 85 98 l53 55 31 97 c17 53 38 102 46 108 l14 12 0 213 c0 116
-3 215 -7 218 -14 15 -43 114 -43 149 0 41 -57 164 -105 228 -14 19 -33 58
-41 86 -8 28 -23 59 -34 69 -10 9 -45 56 -76 104 -32 47 -83 113 -114 146 -31
33 -68 78 -82 100 -28 44 -46 62 -98 97 -23 16 -40 38 -50 68 -12 33 -27 52
-67 79 -80 56 -208 174 -272 251 -20 24 -46 44 -63 47 -30 6 -104 95 -93 112
3 6 33 22 65 37 34 15 76 44 95 65 l35 39 0 50 c0 62 -28 120 -72 152 -18 12
-57 44 -86 70 -29 27 -59 48 -68 48 -8 0 -41 12 -72 26 -31 15 -78 31 -105 35
-26 4 -60 17 -76 28 -45 32 -82 27 -109 -16z"/>
<path d="M705 965 c-27 -13 -58 -24 -67 -25 -10 0 -35 -16 -57 -35 -29 -27
-44 -52 -61 -105 l-22 -70 16 -40 c9 -22 16 -52 16 -66 0 -36 36 -102 85 -155
23 -25 54 -63 67 -85 14 -22 46 -52 71 -68 41 -26 53 -42 87 -116 4 -8 27 -26
51 -39 24 -13 65 -41 90 -62 26 -21 68 -48 95 -60 27 -12 57 -26 66 -30 10 -5
49 -9 88 -9 l70 0 0 48 c0 60 -5 65 -137 131 -55 28 -114 65 -130 83 -36 40
-71 75 -113 113 -38 34 -160 273 -160 314 0 28 15 54 62 109 l29 34 -3 56 -3
56 -34 23 c-41 28 -43 28 -106 -2z"/>
</g>
</svg>
