<?xml version="1.0" standalone="no"?>
<!DOCTYPE svg PUBLIC "-//W3C//DTD SVG 20010904//EN"
 "http://www.w3.org/TR/2001/REC-SVG-20010904/DTD/svg10.dtd">
<svg version="1.0" xmlns="http://www.w3.org/2000/svg"
 width="342.000000pt" height="300.000000pt" viewBox="0 0 342.000000 300.000000"
 preserveAspectRatio="xMidYMid meet">
<metadata>
Created by potrace 1.16, written by Peter Selinger 2001-2019
</metadata>
<g transform="translate(0.000000,300.000000) scale(0.100000,-0.100000)"
fill="#000000" stroke="none">
<path d="M1768 2969 c-25 -43 -23 -56 15 -75 54 -28 161 -101 186 -128 13 -14
21 -31 18 -39 -8 -20 -69 -47 -108 -47 -54 0 -154 39 -204 81 -37 31 -55 39
-87 39 -56 0 -98 -42 -98 -99 l0 -40 53 -40 c28 -21 75 -51 102 -65 95 -51
185 -112 213 -144 15 -18 50 -47 79 -65 80 -50 172 -126 242 -200 36 -38 79
-76 96 -84 43 -23 280 -258 320 -319 19 -29 62 -77 95 -107 33 -29 60 -61 60
-71 0 -9 31 -50 70 -92 38 -41 73 -87 76 -102 11 -44 43 -101 89 -158 27 -32
51 -76 60 -107 8 -30 31 -78 50 -108 65 -103 105 -191 105 -235 0 -23 7 -58
15 -77 23 -55 20 -208 -5 -280 -11 -32 -26 -66 -32 -76 -18 -30 -65 -53 -91
-45 -12 3 -110 93 -217 200 -107 106 -216 207 -241 226 -50 35 -189 154 -300
255 -37 35 -72 63 -77 63 -16 0 -198 165 -266 243 -19 21 -34 27 -64 27 -51 0
-81 -24 -112 -89 l-24 -52 18 -49 18 -50 -18 -28 c-22 -34 -39 -47 -91 -72
-50 -24 -101 -25 -150 -5 -19 8 -53 15 -75 15 -21 0 -55 7 -75 15 -19 8 -60
15 -90 15 -29 0 -70 7 -90 15 -19 8 -47 15 -62 15 -14 0 -43 11 -63 25 -20 14
-72 36 -115 50 -43 14 -97 34 -121 45 -23 11 -76 31 -117 45 -41 13 -92 36
-112 50 -21 14 -46 25 -56 25 -10 0 -29 11 -42 25 -19 18 -25 35 -25 70 0 56
-24 105 -94 192 l-52 65 -55 19 c-34 12 -83 18 -133 19 l-79 0 -43 -44 c-24
-24 -44 -53 -44 -64 0 -11 -4 -24 -10 -27 -5 -3 -10 -24 -10 -46 0 -58 55
-121 145 -166 39 -19 90 -52 115 -73 46 -38 120 -80 141 -80 20 0 196 -88 240
-120 24 -17 55 -30 71 -30 16 0 45 -7 65 -15 19 -8 47 -15 61 -15 14 0 81 -27
149 -60 69 -33 135 -60 149 -60 14 0 41 -7 61 -15 19 -8 59 -15 87 -15 32 0
84 -11 136 -30 47 -16 102 -30 122 -30 21 0 56 -7 79 -17 l41 -16 47 16 c25
10 58 17 72 17 17 0 46 15 75 40 26 21 66 45 88 52 29 9 48 24 65 51 31 47 52
47 110 -1 25 -20 66 -51 91 -67 24 -17 64 -50 87 -74 23 -24 64 -56 90 -71 29
-17 60 -47 83 -80 25 -38 45 -56 70 -64 22 -7 44 -25 63 -53 15 -23 41 -52 58
-65 52 -39 239 -242 239 -259 0 -5 25 -36 55 -70 31 -34 58 -73 61 -85 l6 -24
89 0 c52 0 89 4 89 10 0 5 24 38 53 72 88 105 104 130 126 198 12 36 26 73 31
82 6 10 10 90 10 178 l0 161 -21 29 c-14 17 -24 49 -27 82 -6 68 -36 160 -68
207 -13 19 -24 42 -24 51 0 8 -14 35 -30 60 -16 25 -30 51 -30 59 0 8 -16 40
-36 70 -65 102 -114 190 -114 205 0 9 -34 53 -75 97 -41 45 -75 86 -75 91 0 5
-29 39 -63 76 -35 37 -72 80 -82 95 -9 15 -39 43 -65 62 -27 20 -65 60 -85 90
-23 36 -51 63 -77 76 -23 12 -71 53 -107 91 -36 38 -78 76 -93 84 -16 8 -59
43 -96 77 -37 34 -87 76 -111 92 -39 26 -111 103 -111 118 0 3 32 37 70 74
l70 69 0 89 0 89 -73 73 -73 73 -37 0 c-20 0 -39 5 -42 10 -3 6 -41 10 -83 10
l-77 0 -17 -31z"/>
</g>
</svg>
