<?xml version="1.0" standalone="no"?>
<!DOCTYPE svg PUBLIC "-//W3C//DTD SVG 20010904//EN"
 "http://www.w3.org/TR/2001/REC-SVG-20010904/DTD/svg10.dtd">
<svg version="1.0" xmlns="http://www.w3.org/2000/svg"
 width="276.000000pt" height="495.000000pt" viewBox="0 0 276.000000 495.000000"
 preserveAspectRatio="xMidYMid meet">
<metadata>
Created by potrace 1.16, written by Peter Selinger 2001-2019
</metadata>
<g transform="translate(0.000000,495.000000) scale(0.100000,-0.100000)"
fill="#000000" stroke="none">
<path d="M331 4912 c-20 -58 -11 -93 27 -117 18 -11 54 -34 80 -51 26 -17 67
-41 92 -54 67 -36 79 -49 117 -124 27 -54 32 -71 21 -77 -21 -14 -85 -10 -125
6 -19 8 -54 15 -76 15 -44 0 -197 68 -268 120 l-42 30 -79 0 -78 0 0 -85 0
-85 60 -30 c33 -16 66 -30 73 -30 8 0 33 -15 57 -32 24 -18 62 -46 86 -63 23
-16 62 -47 85 -68 24 -21 67 -57 96 -80 141 -114 452 -400 648 -598 96 -96
115 -118 115 -133 0 -10 45 -64 100 -122 67 -69 103 -114 107 -134 3 -19 20
-42 45 -61 22 -18 52 -57 68 -90 16 -32 45 -69 64 -84 18 -14 36 -38 39 -53 3
-15 24 -57 46 -94 23 -37 41 -74 41 -82 0 -8 13 -30 28 -48 48 -56 62 -81 62
-113 0 -17 11 -47 24 -66 28 -41 66 -142 66 -175 0 -12 7 -38 15 -57 11 -26
15 -73 15 -164 l0 -128 -30 -63 c-16 -34 -41 -78 -55 -97 -15 -18 -30 -49 -36
-68 -11 -42 -52 -85 -88 -93 -14 -4 -52 -23 -84 -43 -31 -20 -72 -45 -90 -56
-25 -17 -33 -28 -35 -59 -4 -41 18 -76 47 -76 9 1 65 18 126 38 l110 38 28 42
c16 24 46 54 66 67 44 27 91 80 91 101 0 8 17 44 39 79 34 58 52 104 91 245 7
25 15 86 17 137 l4 91 -30 88 c-17 49 -31 98 -31 110 0 13 -20 64 -45 115 -25
51 -45 107 -45 124 0 22 -9 40 -30 60 -38 36 -90 116 -90 137 0 9 -18 38 -40
64 -23 27 -43 60 -47 74 -3 14 -32 54 -63 90 -62 70 -139 179 -171 242 -12 24
-38 50 -67 68 -29 18 -64 52 -87 87 -22 31 -58 76 -81 98 -22 22 -44 52 -47
66 -7 29 -79 99 -101 99 -8 0 -82 66 -164 148 -82 81 -171 163 -199 183 -27
20 -67 58 -88 83 l-37 46 12 15 c7 8 23 15 37 15 57 0 150 67 184 132 25 48
24 65 -6 130 -14 29 -25 60 -25 70 0 9 -19 31 -42 49 -24 18 -77 65 -118 104
-43 41 -94 78 -120 89 -83 33 -108 48 -120 72 l-13 24 -62 0 -62 0 -12 -38z"/>
<path d="M1140 2118 c-61 -21 -118 -70 -127 -108 -3 -14 -18 -46 -34 -71 -32
-51 -36 -89 -14 -142 8 -20 15 -55 15 -77 0 -23 10 -62 23 -88 13 -26 41 -101
62 -167 25 -77 48 -131 66 -150 35 -39 114 -173 123 -207 3 -14 30 -48 60 -75
29 -26 65 -66 79 -89 14 -23 46 -53 71 -68 28 -17 55 -44 72 -72 15 -25 45
-57 68 -71 23 -14 65 -53 95 -85 30 -33 72 -71 94 -85 22 -14 61 -44 86 -67
25 -24 80 -65 121 -92 41 -27 99 -70 128 -96 40 -37 60 -48 85 -48 23 0 41 -8
58 -26 13 -14 42 -35 64 -46 22 -12 54 -31 70 -44 17 -12 65 -34 107 -48 43
-14 95 -37 115 -51 21 -14 45 -25 55 -25 9 0 20 -4 23 -10 3 -5 17 -10 31 -10
l24 0 0 49 0 50 -39 23 c-21 13 -62 37 -91 53 -29 17 -73 44 -99 61 -26 17
-65 41 -88 52 -22 12 -76 45 -119 75 -44 29 -100 65 -126 80 -26 15 -56 40
-67 56 -12 16 -45 43 -74 59 -30 17 -61 42 -71 56 -9 14 -36 38 -59 52 -70 44
-342 321 -402 409 -29 44 -65 91 -79 104 -14 14 -26 30 -26 37 0 7 -40 95 -90
195 l-90 181 0 58 c0 32 -7 75 -16 96 -31 73 5 194 57 194 11 0 34 13 50 29
23 23 29 38 29 71 0 33 -6 48 -29 71 l-29 29 -54 -1 c-29 -1 -78 -10 -108 -21z"/>
</g>
</svg>
