<?xml version="1.0" standalone="no"?>
<!DOCTYPE svg PUBLIC "-//W3C//DTD SVG 20010904//EN"
 "http://www.w3.org/TR/2001/REC-SVG-20010904/DTD/svg10.dtd">
<svg version="1.0" xmlns="http://www.w3.org/2000/svg"
 width="276.000000pt" height="486.000000pt" viewBox="0 0 276.000000 486.000000"
 preserveAspectRatio="xMidYMid meet">
<metadata>
Created by potrace 1.16, written by Peter Selinger 2001-2019
</metadata>
<g transform="translate(0.000000,486.000000) scale(0.100000,-0.100000)"
fill="#000000" stroke="none">
<path d="M260 4844 c0 -8 5 -24 10 -34 12 -23 140 -110 161 -110 36 0 98 -80
99 -128 0 -28 -48 -62 -87 -62 -60 0 -179 44 -239 87 -17 13 -53 30 -80 38
l-49 14 -37 -24 -38 -25 0 -54 0 -54 33 -24 c17 -14 51 -35 73 -46 89 -45 184
-119 300 -233 66 -66 125 -119 131 -119 6 0 47 -34 92 -75 44 -41 86 -75 92
-75 17 0 513 -496 546 -544 15 -23 52 -68 83 -101 31 -33 65 -73 75 -90 11
-16 47 -60 81 -97 36 -39 67 -82 72 -102 6 -19 28 -57 50 -83 22 -26 64 -95
92 -153 29 -58 65 -123 81 -145 29 -42 79 -174 79 -212 0 -11 13 -50 30 -85
16 -34 30 -75 30 -89 0 -15 7 -43 15 -62 10 -25 15 -71 15 -145 0 -117 -19
-192 -66 -261 -13 -19 -24 -43 -24 -52 0 -29 -136 -120 -195 -131 -24 -4 -65
-63 -65 -95 0 -64 86 -163 142 -163 17 0 52 -13 77 -29 25 -16 58 -31 72 -35
39 -9 78 -53 115 -131 38 -77 42 -125 18 -183 -11 -27 -15 -65 -13 -144 1 -59
0 -110 -3 -113 -11 -12 -100 39 -152 86 -31 28 -70 55 -89 60 -18 5 -52 25
-74 44 -22 19 -77 52 -121 74 -44 22 -104 62 -133 89 -53 48 -125 92 -151 92
-8 0 -51 25 -96 55 -118 78 -138 88 -162 75 -23 -12 -40 -41 -40 -68 0 -22
115 -119 182 -153 24 -12 57 -32 73 -44 17 -13 53 -34 81 -48 28 -14 75 -48
105 -75 30 -27 73 -59 95 -70 23 -12 77 -46 121 -76 44 -29 103 -66 132 -81
28 -15 64 -43 78 -62 15 -19 45 -44 67 -55 23 -11 61 -37 86 -57 25 -20 58
-45 73 -54 15 -10 52 -39 82 -65 52 -46 108 -89 189 -146 23 -15 69 -55 103
-87 35 -34 70 -59 83 -59 11 0 32 -11 46 -25 l26 -26 61 3 62 3 3 92 c2 71 0
93 -10 93 -7 1 -30 9 -50 18 -34 16 -60 35 -190 137 -51 40 -204 250 -234 322
-21 48 -19 235 3 296 l17 47 -49 103 -50 102 -112 118 c-62 64 -113 125 -113
133 0 9 18 39 40 66 22 28 40 57 40 65 0 8 16 41 35 72 20 32 47 89 60 127
l25 69 0 146 c0 108 -4 156 -15 182 -8 20 -15 48 -15 62 0 14 -10 44 -21 67
-12 23 -41 102 -65 175 l-44 132 -65 96 c-35 53 -67 113 -71 132 -4 23 -26 57
-61 97 -31 33 -67 83 -80 111 -14 27 -45 71 -68 96 -23 25 -54 64 -68 86 -14
22 -52 64 -85 94 -32 30 -62 66 -65 80 -4 15 -25 42 -47 60 -23 19 -54 48 -70
64 -27 27 -63 64 -152 153 -89 89 -126 125 -153 152 -16 16 -45 47 -64 70 -18
22 -45 43 -60 47 -14 3 -50 32 -79 65 -30 32 -78 74 -108 94 -57 38 -184 168
-184 189 0 15 83 75 117 84 15 4 35 18 45 32 19 26 67 153 68 180 0 27 -112
157 -177 204 l-63 45 -130 0 -130 0 0 -16z"/>
</g>
</svg>
