<?xml version="1.0" standalone="no"?>
<!DOCTYPE svg PUBLIC "-//W3C//DTD SVG 20010904//EN"
 "http://www.w3.org/TR/2001/REC-SVG-20010904/DTD/svg10.dtd">
<svg version="1.0" xmlns="http://www.w3.org/2000/svg"
 width="243.000000pt" height="453.000000pt" viewBox="0 0 243.000000 453.000000"
 preserveAspectRatio="xMidYMid meet">
<metadata>
Created by potrace 1.16, written by Peter Selinger 2001-2019
</metadata>
<g transform="translate(0.000000,453.000000) scale(0.100000,-0.100000)"
fill="#000000" stroke="none">
<path d="M346 4499 c-33 -38 -33 -63 -1 -95 l25 -25 38 21 38 22 57 -17 c92
-26 222 -161 204 -209 l-6 -16 -91 0 c-58 0 -104 5 -127 15 -19 8 -61 15 -92
15 l-56 0 -93 45 c-104 50 -123 53 -193 28 l-49 -18 0 -52 0 -53 50 -25 c27
-14 84 -36 127 -50 119 -39 193 -77 255 -134 30 -28 72 -56 92 -63 20 -7 57
-29 82 -48 25 -19 69 -53 97 -75 29 -22 71 -53 94 -68 49 -34 363 -350 363
-367 0 -6 38 -51 85 -100 46 -50 97 -113 111 -142 15 -29 48 -77 75 -106 27
-29 52 -68 57 -86 9 -31 42 -82 120 -186 17 -23 32 -49 32 -57 0 -17 95 -207
123 -247 11 -16 24 -48 28 -70 9 -51 26 -117 45 -176 8 -25 14 -61 14 -81 0
-20 7 -53 15 -72 21 -51 21 -303 0 -354 -8 -19 -15 -54 -15 -77 0 -25 -12 -66
-30 -104 -17 -35 -30 -69 -30 -76 0 -13 -112 -110 -151 -130 -13 -7 -58 -23
-99 -36 -100 -32 -110 -41 -110 -105 0 -72 16 -85 109 -85 l73 0 66 -31 c37
-17 89 -49 115 -71 26 -22 63 -44 82 -49 19 -6 43 -21 52 -35 41 -59 69 -87
105 -110 21 -14 44 -37 50 -52 6 -15 24 -57 40 -94 l29 -67 -11 -21 -11 -20
-54 0 c-30 0 -84 -10 -119 -21 l-65 -21 -95 -98 -96 -97 0 -40 0 -39 61 -77
c36 -46 69 -77 80 -77 10 0 21 -5 24 -10 8 -13 192 -13 200 0 3 6 28 10 55 10
l50 0 55 50 c30 27 73 61 95 75 30 19 48 41 67 83 14 31 30 65 34 74 12 23 12
243 0 266 -5 9 -17 37 -27 62 -11 25 -40 69 -66 97 -26 29 -59 70 -72 91 -30
48 -81 92 -106 92 -10 0 -22 4 -25 10 -12 20 -169 140 -182 140 -28 0 -103 41
-119 65 -19 29 -14 37 44 89 32 29 60 72 107 166 89 177 115 262 121 385 1 33
6 86 9 117 6 43 3 68 -9 98 -9 22 -16 56 -16 75 0 19 -27 115 -60 213 -33 98
-60 189 -60 203 0 13 -14 44 -30 69 -16 25 -30 52 -30 61 0 8 -16 38 -35 65
-20 27 -42 71 -50 99 -8 27 -26 60 -39 75 -31 33 -112 152 -138 204 -11 22
-43 65 -70 95 -27 30 -60 75 -73 102 -14 26 -42 60 -64 76 -22 15 -52 47 -67
71 -15 23 -46 59 -68 79 -23 19 -57 58 -76 86 -25 36 -44 53 -67 59 -18 5 -40
20 -50 34 -46 66 -87 104 -123 114 -24 6 -49 24 -67 46 -15 19 -66 61 -112 92
-46 32 -89 66 -95 75 l-11 18 28 25 c21 18 40 24 76 24 52 0 66 10 95 67 11
22 16 58 16 113 l0 82 -87 85 c-94 91 -144 123 -192 123 -16 0 -33 5 -36 10
-4 6 -53 10 -115 10 l-108 0 -26 -31z m1758 -4195 c23 -23 20 -32 -23 -75
l-39 -39 -41 0 c-47 0 -81 14 -81 34 0 30 99 95 147 96 12 0 29 -7 37 -16z"/>
</g>
</svg>
