<?xml version="1.0" standalone="no"?>
<!DOCTYPE svg PUBLIC "-//W3C//DTD SVG 20010904//EN"
 "http://www.w3.org/TR/2001/REC-SVG-20010904/DTD/svg10.dtd">
<svg version="1.0" xmlns="http://www.w3.org/2000/svg"
 width="498.000000pt" height="351.000000pt" viewBox="0 0 498.000000 351.000000"
 preserveAspectRatio="xMidYMid meet">
<metadata>
Created by potrace 1.16, written by Peter Selinger 2001-2019
</metadata>
<g transform="translate(0.000000,351.000000) scale(0.100000,-0.100000)"
fill="#000000" stroke="none">
<path d="M0 3461 l0 -48 74 -62 c41 -35 77 -68 80 -76 2 -7 31 -30 63 -51 32
-22 77 -59 101 -83 23 -24 80 -68 125 -98 45 -31 111 -81 147 -113 36 -31 77
-60 92 -64 15 -3 61 -38 102 -76 42 -39 85 -70 95 -70 11 0 22 -4 26 -10 7
-12 142 -120 180 -144 17 -11 57 -45 90 -76 33 -32 76 -65 95 -75 19 -10 51
-36 72 -58 20 -22 63 -54 95 -72 36 -19 68 -46 85 -71 14 -21 51 -55 81 -74
31 -19 89 -62 129 -95 40 -33 89 -71 108 -84 19 -13 64 -49 99 -80 35 -31 78
-60 95 -66 18 -6 42 -27 58 -52 17 -24 50 -53 81 -71 30 -17 61 -41 70 -55 9
-14 47 -46 85 -71 l68 -46 72 0 c56 0 95 8 168 32 l94 33 49 -18 c27 -9 65
-17 85 -17 20 0 53 -7 73 -15 19 -8 61 -15 92 -15 l56 0 45 -30 c25 -16 52
-30 60 -30 8 0 56 -20 105 -43 50 -24 102 -47 117 -50 14 -4 51 -29 81 -57 29
-27 96 -70 147 -96 52 -26 110 -62 130 -81 21 -18 44 -33 51 -33 20 0 146 -84
194 -129 22 -20 58 -49 81 -64 47 -32 195 -182 271 -277 153 -190 141 -171
182 -266 22 -49 31 -86 31 -123 0 -105 58 -221 110 -221 10 0 22 -5 25 -10 3
-6 22 -10 41 -10 l34 0 53 53 c28 29 71 81 95 115 l42 62 0 239 c0 149 -4 242
-10 246 -5 3 -10 19 -10 35 0 16 -27 84 -60 151 -33 67 -60 128 -60 136 0 12
-72 158 -129 263 -10 19 -36 73 -57 119 -27 58 -51 93 -76 114 -21 17 -38 39
-38 51 0 11 -27 46 -65 82 -35 35 -73 81 -84 102 -19 37 -56 74 -115 115 -15
10 -37 40 -50 66 -28 54 -40 66 -78 75 -15 3 -35 18 -45 33 -35 51 -101 113
-121 113 -12 0 -30 13 -42 30 -12 17 -81 69 -153 117 -83 55 -175 128 -246
194 -73 70 -124 109 -143 113 -31 6 -138 107 -138 130 0 8 16 40 35 71 19 32
42 83 51 114 l16 56 -12 52 c-18 74 -60 145 -95 162 -48 23 -50 24 -110 73
-81 65 -157 88 -289 88 l-103 0 -27 -21 c-28 -22 -35 -62 -13 -76 21 -13 111
-42 132 -43 12 0 48 -9 80 -20 159 -55 215 -110 215 -214 l0 -57 -25 -24 c-13
-14 -36 -25 -50 -25 -38 0 -128 44 -172 83 -56 50 -124 97 -140 97 -8 0 -38
20 -66 45 -58 51 -154 105 -187 105 -12 0 -35 -13 -51 -30 l-30 -30 3 -42 3
-43 58 -38 c37 -25 57 -44 57 -57 0 -22 111 -110 139 -110 10 0 30 -13 46 -30
16 -16 36 -30 44 -30 9 0 30 -9 46 -21 57 -38 124 -69 153 -69 17 0 37 -9 48
-21 30 -33 103 -83 179 -123 41 -21 95 -62 130 -96 32 -33 67 -60 76 -60 9 0
50 -33 92 -74 41 -41 90 -82 109 -91 18 -10 53 -34 78 -54 24 -20 61 -47 82
-61 34 -23 306 -276 371 -345 138 -147 170 -183 194 -219 15 -22 44 -61 64
-86 21 -25 60 -92 89 -150 29 -58 63 -119 76 -137 30 -40 114 -211 114 -232 0
-9 14 -36 30 -61 16 -25 30 -56 30 -68 0 -13 14 -63 30 -111 l31 -88 -3 -128
c-2 -81 -7 -130 -14 -132 -12 -4 -108 149 -117 188 -4 14 -28 45 -54 69 -27
23 -64 66 -83 94 -22 32 -44 52 -59 54 -15 2 -33 21 -53 53 -17 27 -56 67 -87
90 -31 23 -76 64 -100 91 -24 27 -65 60 -91 73 -26 13 -83 48 -126 78 -44 30
-100 64 -124 77 -25 12 -66 40 -92 61 -25 21 -82 57 -125 78 -43 22 -107 64
-141 95 -47 42 -70 56 -93 56 -17 0 -60 14 -96 30 -35 17 -70 30 -76 30 -7 0
-54 20 -105 45 -52 25 -105 45 -118 45 -14 0 -41 7 -61 15 -20 8 -66 15 -105
15 -38 0 -84 7 -105 15 -20 8 -66 15 -104 15 -37 0 -80 5 -96 12 -15 6 -57 12
-93 12 l-65 1 -35 26 c-19 15 -55 37 -80 49 -25 12 -65 39 -90 59 -25 20 -79
59 -120 86 -41 27 -105 78 -142 112 -37 35 -76 63 -86 63 -10 0 -29 12 -43 26
-13 14 -75 60 -137 101 -75 50 -122 89 -137 114 -14 22 -45 49 -75 65 -27 15
-61 42 -75 60 -14 18 -48 45 -75 60 -28 15 -62 42 -76 61 -14 18 -49 45 -77
59 -29 14 -72 43 -97 64 -25 20 -60 44 -77 54 -18 9 -48 30 -67 46 -18 16 -54
44 -79 62 -25 18 -74 54 -107 81 -34 26 -70 47 -79 47 -10 0 -28 12 -42 26
-13 14 -75 60 -138 102 -72 48 -121 88 -134 109 -10 18 -44 50 -74 70 -30 20
-79 58 -108 85 l-53 48 -51 0 -51 0 0 -49z"/>
</g>
</svg>
