<?xml version="1.0" standalone="no"?>
<!DOCTYPE svg PUBLIC "-//W3C//DTD SVG 20010904//EN"
 "http://www.w3.org/TR/2001/REC-SVG-20010904/DTD/svg10.dtd">
<svg version="1.0" xmlns="http://www.w3.org/2000/svg"
 width="291.000000pt" height="447.000000pt" viewBox="0 0 291.000000 447.000000"
 preserveAspectRatio="xMidYMid meet">
<metadata>
Created by potrace 1.16, written by Peter Selinger 2001-2019
</metadata>
<g transform="translate(0.000000,447.000000) scale(0.100000,-0.100000)"
fill="#000000" stroke="none">
<path d="M1148 4446 c-3 -13 -1 -31 4 -40 10 -17 98 -66 120 -66 20 0 98 -84
98 -106 0 -10 -4 -25 -9 -33 l-9 -14 -179 58 c-98 32 -194 68 -213 80 -121 77
-179 84 -217 26 -13 -19 -23 -44 -23 -57 0 -30 68 -79 207 -148 69 -35 132
-75 171 -110 35 -31 70 -56 80 -56 23 0 117 -66 136 -95 9 -13 58 -52 109 -86
51 -34 104 -77 117 -96 13 -19 40 -46 60 -60 20 -15 49 -44 64 -65 15 -21 49
-50 76 -63 27 -14 57 -37 67 -52 10 -14 37 -45 60 -67 136 -131 203 -204 247
-270 21 -31 47 -62 57 -69 30 -18 92 -104 129 -178 18 -35 49 -83 69 -105 28
-32 45 -70 75 -165 22 -68 55 -154 73 -191 21 -44 33 -82 33 -110 0 -29 7 -49
22 -65 27 -29 58 -116 58 -164 0 -20 7 -53 15 -73 21 -50 17 -199 -5 -204 -9
-1 -25 15 -39 40 -13 24 -34 50 -45 59 -12 9 -39 43 -61 75 -21 33 -68 89
-102 127 -34 37 -75 91 -89 120 -18 36 -72 98 -178 202 -83 83 -164 159 -181
169 -16 11 -64 52 -105 92 -52 50 -100 85 -155 113 -44 22 -102 58 -129 80
-26 23 -55 41 -63 41 -27 0 -122 49 -160 83 -52 47 -49 45 -323 135 -322 105
-316 104 -455 111 -69 4 -130 12 -143 20 -18 9 -51 11 -130 6 -59 -3 -131 -6
-160 -6 -43 1 -61 -5 -88 -25 l-34 -26 0 -69 0 -68 32 -17 c17 -9 49 -29 71
-45 22 -16 47 -29 57 -29 9 0 29 -13 44 -29 15 -16 43 -32 61 -35 18 -4 52
-24 76 -45 24 -21 55 -44 69 -51 80 -41 182 -119 207 -158 15 -24 48 -57 73
-74 25 -16 58 -47 73 -69 16 -22 50 -50 77 -64 27 -14 57 -37 67 -52 10 -14
37 -45 60 -67 24 -23 56 -54 73 -71 16 -16 51 -51 76 -76 26 -26 60 -61 78
-78 86 -86 126 -132 141 -162 10 -19 34 -52 55 -74 55 -58 124 -164 186 -284
29 -58 62 -122 73 -141 11 -19 30 -60 43 -90 12 -30 38 -79 56 -110 37 -60 72
-152 72 -186 0 -12 7 -38 15 -57 8 -20 15 -54 15 -75 0 -22 7 -56 15 -75 10
-25 15 -71 15 -149 l0 -113 -30 -63 c-17 -35 -30 -76 -30 -91 0 -17 -10 -37
-26 -52 -14 -13 -37 -44 -50 -69 -33 -63 -40 -71 -119 -125 -87 -59 -184 -105
-223 -105 -40 0 -56 -21 -48 -65 l7 -35 63 0 c34 0 66 3 69 7 12 11 110 43
134 43 46 0 118 48 193 128 101 108 160 187 172 231 6 20 26 68 46 106 49 94
61 199 43 350 -9 80 -20 130 -47 215 -8 25 -14 53 -14 63 0 55 -81 236 -124
276 -14 14 -26 35 -26 48 0 27 -34 132 -57 178 -9 16 -28 44 -42 60 -15 17
-48 63 -74 102 -26 39 -62 82 -81 96 -21 17 -39 42 -47 69 -11 33 -25 50 -66
78 -29 19 -65 55 -80 79 -15 24 -42 55 -60 68 -18 14 -33 32 -33 40 0 21 -83
112 -135 148 -24 17 -124 109 -223 206 -98 97 -212 201 -253 232 -41 31 -85
70 -97 86 -13 19 -37 34 -61 41 -39 10 -176 123 -176 145 0 18 198 18 241 0
20 -8 54 -15 76 -15 21 0 55 -7 75 -15 19 -8 47 -15 61 -15 14 0 55 -13 91
-29 88 -38 167 -70 216 -88 76 -27 125 -53 163 -87 38 -34 151 -96 175 -96 8
0 28 -18 46 -40 21 -27 44 -43 72 -50 28 -8 66 -35 128 -93 48 -45 114 -100
145 -122 32 -22 68 -58 81 -80 14 -22 52 -62 87 -90 34 -27 80 -73 102 -102
116 -147 137 -178 151 -226 11 -38 28 -64 65 -98 35 -34 51 -58 56 -85 4 -24
24 -55 55 -90 27 -30 60 -72 74 -93 32 -52 51 -61 127 -61 88 1 153 36 190
105 15 28 28 64 28 82 0 17 5 35 10 38 6 3 10 21 10 40 0 19 -4 37 -10 40 -5
3 -10 44 -10 91 0 84 -19 165 -57 238 -8 16 -35 90 -60 164 -24 75 -53 147
-63 162 -10 15 -25 44 -33 66 -8 21 -24 62 -35 89 -11 28 -26 66 -33 85 -21
54 -226 357 -259 380 -17 12 -30 28 -30 36 0 31 -41 94 -79 121 -22 15 -52 47
-66 69 -24 38 -174 185 -242 237 -15 12 -34 31 -42 42 -8 11 -50 56 -95 101
-45 45 -89 93 -99 107 -10 15 -34 31 -56 37 -22 6 -65 33 -99 63 -33 28 -72
60 -86 70 -38 27 -32 43 29 78 30 17 68 46 85 65 l30 35 0 50 c0 100 -73 196
-160 210 -28 4 -63 17 -79 28 l-29 21 -90 0 -90 0 -4 -24z"/>
</g>
</svg>
