<?xml version="1.0" standalone="no"?>
<!DOCTYPE svg PUBLIC "-//W3C//DTD SVG 20010904//EN"
 "http://www.w3.org/TR/2001/REC-SVG-20010904/DTD/svg10.dtd">
<svg version="1.0" xmlns="http://www.w3.org/2000/svg"
 width="873.000000pt" height="603.000000pt" viewBox="0 0 873.000000 603.000000"
 preserveAspectRatio="xMidYMid meet">
<metadata>
Created by potrace 1.16, written by Peter Selinger 2001-2019
</metadata>
<g transform="translate(0.000000,603.000000) scale(0.100000,-0.100000)"
fill="#000000" stroke="none">
<path d="M907 4792 c-11 -12 -17 -36 -17 -71 0 -29 -5 -61 -10 -72 l-11 -19
-258 0 -258 0 -16 -18 -17 -19 0 -170 0 -170 18 -16 19 -17 736 0 736 0 11
-19 c5 -11 10 -44 10 -74 0 -40 5 -58 18 -70 l19 -17 256 0 256 0 11 -19 c5
-11 10 -51 10 -89 0 -54 4 -72 18 -85 l19 -17 166 0 166 0 11 -19 c5 -11 10
-44 10 -74 0 -40 5 -58 18 -70 l19 -17 151 0 151 0 11 -19 c5 -11 10 -51 10
-89 0 -54 4 -72 18 -85 l19 -17 166 0 166 0 11 -19 c5 -11 10 -44 10 -74 0
-40 5 -58 18 -70 l19 -17 166 0 166 0 11 -19 c5 -11 10 -44 10 -74 0 -40 5
-58 18 -70 l19 -17 166 0 166 0 11 -19 c5 -11 10 -51 10 -89 0 -89 13 -102 98
-102 l61 0 11 -19 c5 -11 10 -44 10 -74 0 -72 17 -87 98 -87 l61 0 11 -19 c5
-11 10 -44 10 -74 0 -40 5 -58 18 -70 l19 -17 166 0 166 0 11 -19 c5 -11 10
-51 10 -89 0 -89 13 -102 98 -102 l61 0 11 -19 c5 -11 10 -44 10 -74 0 -75 15
-87 113 -87 l76 0 11 -19 c5 -11 10 -44 10 -74 0 -40 5 -58 18 -70 l19 -17
151 0 151 0 11 -19 c5 -11 10 -51 10 -89 0 -92 11 -102 113 -102 l76 0 11 -19
c5 -11 10 -44 10 -74 0 -72 17 -87 98 -87 l61 0 11 -19 c5 -11 10 -44 10 -74
0 -40 5 -58 18 -70 l19 -17 166 0 166 0 11 -19 c5 -11 10 -51 10 -89 0 -89 13
-102 98 -102 l61 0 11 -19 c5 -11 10 -44 10 -74 0 -72 17 -87 98 -87 l61 0 11
-19 c5 -11 10 -44 10 -74 0 -40 5 -58 18 -70 l19 -17 166 0 166 0 11 -19 c5
-11 10 -51 10 -89 0 -54 4 -72 18 -85 l19 -17 455 0 455 0 16 18 17 19 0 365
0 365 -18 16 c-13 12 -37 17 -80 17 l-61 0 -11 19 c-5 11 -10 44 -10 74 0 75
-15 87 -113 87 l-76 0 -11 19 c-6 11 -10 88 -10 179 l0 159 -18 16 c-13 12
-37 17 -80 17 l-61 0 -11 19 c-5 11 -10 44 -10 74 0 72 -17 87 -98 87 l-61 0
-11 19 c-5 11 -10 44 -10 74 0 75 -15 87 -113 87 l-76 0 -11 19 c-5 11 -10 51
-10 89 0 89 -13 102 -98 102 l-61 0 -11 19 c-5 11 -10 44 -10 74 0 75 -15 87
-113 87 l-76 0 -11 19 c-5 11 -10 44 -10 74 0 40 -5 58 -18 70 l-19 17 -151 0
-151 0 -11 19 c-5 11 -10 51 -10 89 0 54 -4 72 -18 85 l-19 17 -170 0 -170 0
-16 -18 c-13 -14 -17 -38 -17 -99 l0 -80 18 -16 c13 -12 37 -17 80 -17 l61 0
11 -19 c5 -11 10 -44 10 -74 0 -75 15 -87 113 -87 l76 0 11 -19 c5 -11 10 -44
10 -74 0 -72 17 -87 98 -87 l61 0 11 -19 c5 -11 10 -51 10 -89 0 -89 13 -102
98 -102 l61 0 11 -19 c5 -11 10 -44 10 -74 0 -75 15 -87 113 -87 l76 0 11 -19
c5 -11 10 -44 10 -74 0 -72 17 -87 98 -87 l61 0 11 -19 c6 -11 10 -88 10 -179
l0 -159 18 -16 c14 -13 38 -17 95 -17 l76 0 11 -19 c13 -26 13 -306 0 -332
l-11 -19 -74 0 -74 0 -11 19 c-5 11 -10 51 -10 89 0 54 -4 72 -18 85 l-19 17
-166 0 -166 0 -11 19 c-5 11 -10 44 -10 74 0 72 -17 87 -98 87 l-61 0 -11 19
c-5 11 -10 44 -10 74 0 72 -17 87 -98 87 l-61 0 -11 19 c-5 11 -10 51 -10 89
0 54 -4 72 -18 85 l-19 17 -166 0 -166 0 -11 19 c-5 11 -10 44 -10 74 0 72
-17 87 -98 87 l-61 0 -11 19 c-5 11 -10 44 -10 74 0 75 -15 87 -113 87 l-76 0
-11 19 c-5 11 -10 51 -10 89 0 54 -4 72 -18 85 l-19 17 -151 0 -151 0 -11 19
c-5 11 -10 44 -10 74 0 75 -15 87 -113 87 l-76 0 -11 19 c-5 11 -10 44 -10 74
0 72 -17 87 -98 87 l-61 0 -11 19 c-5 11 -10 51 -10 89 0 54 -4 72 -18 85
l-19 17 -166 0 -166 0 -11 19 c-5 11 -10 44 -10 74 0 40 -5 58 -18 70 l-19 17
-151 0 -151 0 -11 19 c-5 11 -10 44 -10 74 0 75 -15 87 -113 87 l-76 0 -11 19
c-5 11 -10 51 -10 89 0 54 -4 72 -18 85 l-19 17 -151 0 -151 0 -11 19 c-5 11
-10 44 -10 74 0 40 -5 58 -18 70 l-19 17 -166 0 -166 0 -11 19 c-5 11 -10 51
-10 89 0 92 -11 102 -113 102 l-76 0 -11 19 c-5 11 -10 44 -10 74 0 40 -5 58
-18 70 l-19 17 -151 0 -151 0 -11 19 c-5 11 -10 44 -10 74 0 40 -5 58 -18 70
l-19 17 -361 0 -361 0 -11 19 c-5 11 -10 51 -10 89 0 54 -4 72 -18 85 l-19 17
-346 0 -346 0 -11 19 c-5 11 -10 44 -10 74 0 40 -5 58 -18 70 l-19 17 -170 0
-170 0 -16 -18z"/>
</g>
</svg>
