<?xml version="1.0" standalone="no"?>
<!DOCTYPE svg PUBLIC "-//W3C//DTD SVG 20010904//EN"
 "http://www.w3.org/TR/2001/REC-SVG-20010904/DTD/svg10.dtd">
<svg version="1.0" xmlns="http://www.w3.org/2000/svg"
 width="807.000000pt" height="138.000000pt" viewBox="0 0 807.000000 138.000000"
 preserveAspectRatio="xMidYMid meet">
<metadata>
Created by potrace 1.16, written by Peter Selinger 2001-2019
</metadata>
<g transform="translate(0.000000,138.000000) scale(0.100000,-0.100000)"
fill="#000000" stroke="none">
<path d="M6647 1352 c-45 -46 -38 -100 27 -230 30 -59 59 -126 65 -147 6 -22
26 -64 43 -94 70 -114 69 -105 6 -152 l-41 -29 -56 0 c-36 0 -86 -11 -141 -30
-52 -19 -104 -30 -136 -30 -28 0 -68 -7 -87 -15 -29 -12 -85 -15 -264 -16
-125 0 -264 -5 -308 -11 -73 -10 -225 -14 -300 -8 -16 1 -51 -1 -77 -5 -28 -5
-59 -3 -78 4 -23 8 -43 7 -75 -1 l-43 -12 -44 17 -44 17 -322 0 -323 0 -36 15
c-20 8 -66 15 -105 15 -38 0 -84 7 -105 15 -19 8 -53 15 -75 15 -21 0 -55 7
-75 15 -19 8 -53 15 -75 15 -21 0 -55 7 -75 15 -19 8 -53 15 -75 15 -21 0 -55
7 -75 15 -19 8 -60 15 -90 15 -29 0 -70 7 -90 15 -19 8 -53 15 -75 15 -21 0
-55 7 -75 15 -19 8 -52 15 -72 15 -40 0 -126 27 -209 66 -29 13 -71 24 -93 24
-51 0 -110 27 -173 79 l-48 41 -56 0 -55 0 -52 -52 -52 -53 -8 -70 c-4 -38
-12 -76 -17 -82 -21 -26 -64 -13 -148 44 -47 31 -132 81 -190 110 -58 30 -130
70 -160 89 -30 19 -71 39 -90 44 -19 5 -57 28 -84 50 -52 43 -79 49 -114 24
-26 -18 -62 -84 -62 -114 0 -30 36 -96 62 -114 12 -9 35 -16 51 -16 29 0 103
-40 235 -125 84 -55 99 -82 60 -109 -27 -19 -138 -22 -188 -5 -24 9 -45 9 -85
-1 l-53 -13 -49 16 c-105 34 -143 40 -273 46 -77 4 -144 12 -157 19 -14 8 -67
12 -153 12 -93 0 -141 4 -167 15 l-35 15 -265 0 -264 0 -36 15 c-22 9 -67 15
-120 15 -52 0 -97 6 -120 15 -20 9 -66 15 -109 15 l-74 0 0 -40 c0 -22 5 -40
11 -40 6 0 40 -14 76 -30 37 -17 81 -30 104 -30 22 0 56 -7 76 -15 19 -8 53
-15 75 -15 21 0 55 -7 75 -15 20 -8 66 -15 105 -15 38 0 84 -7 105 -15 l35
-15 265 0 264 0 36 -15 c26 -11 76 -15 197 -15 l161 0 45 -30 45 -30 288 0
288 0 42 21 c23 12 57 35 76 51 18 16 44 34 56 40 l23 10 88 -42 c60 -29 103
-58 135 -91 37 -39 54 -49 80 -49 34 0 102 -38 179 -100 25 -20 77 -57 116
-83 39 -26 84 -63 98 -82 15 -19 34 -35 43 -35 8 0 35 -19 59 -42 24 -24 57
-55 74 -70 l31 -28 70 0 c48 0 69 4 69 13 1 6 9 30 20 52 29 61 26 81 -15 95
-19 6 -59 33 -88 59 -28 27 -74 60 -102 74 -27 14 -90 59 -138 101 -49 42 -96
81 -106 88 -10 7 -30 31 -45 53 -14 22 -45 54 -69 70 -46 33 -92 111 -81 138
10 26 50 31 97 13 24 -9 60 -16 80 -16 21 0 54 -7 74 -15 19 -8 53 -15 75 -15
21 0 55 -7 75 -15 19 -8 45 -15 56 -15 12 0 62 -13 112 -29 149 -48 175 -53
300 -60 66 -4 130 -12 142 -19 12 -6 40 -12 63 -12 22 0 57 -7 77 -15 20 -8
66 -15 105 -15 38 0 84 -7 105 -15 19 -8 53 -15 75 -15 21 0 55 -7 75 -15 19
-8 60 -15 90 -15 29 0 70 -7 90 -15 l35 -15 808 0 808 0 35 15 c21 8 67 15
105 15 39 0 85 7 105 15 22 9 68 15 117 15 84 0 147 16 254 65 l55 25 83 0 83
0 69 -46 c39 -25 85 -59 103 -75 22 -19 45 -29 66 -29 19 0 50 -12 77 -30 25
-16 52 -30 60 -30 9 0 32 -11 51 -24 20 -14 64 -34 97 -45 l61 -21 146 0 146
0 48 24 c66 34 101 82 101 140 0 25 -4 47 -9 50 -4 3 -11 18 -14 33 -4 18 -41
63 -105 126 l-99 97 -32 0 c-18 0 -62 14 -98 30 -106 49 -193 37 -193 -28 0
-28 29 -49 141 -101 52 -24 105 -49 119 -55 17 -8 30 -28 42 -61 23 -69 22
-72 -14 -91 l-31 -16 -37 11 c-21 6 -62 11 -91 11 -43 0 -73 9 -145 44 -50 24
-110 58 -134 75 -27 20 -55 31 -76 31 l-32 0 -36 49 c-20 27 -36 54 -36 60 0
7 11 29 25 49 l25 37 0 114 0 114 -141 142 c-107 109 -153 148 -192 165 -29
12 -60 26 -69 31 -10 5 -51 9 -91 9 l-73 0 -27 -28z m233 -202 c10 -6 42 -45
69 -87 74 -112 89 -173 43 -173 -28 0 -45 24 -102 142 -56 116 -58 144 -10
118z"/>
</g>
</svg>
