<?xml version="1.0" standalone="no"?>
<!DOCTYPE svg PUBLIC "-//W3C//DTD SVG 20010904//EN"
 "http://www.w3.org/TR/2001/REC-SVG-20010904/DTD/svg10.dtd">
<svg version="1.0" xmlns="http://www.w3.org/2000/svg"
 width="1440.000000pt" height="504.000000pt" viewBox="0 0 1440.000000 504.000000"
 preserveAspectRatio="xMidYMid meet">
<metadata>
Created by potrace 1.16, written by Peter Selinger 2001-2019
</metadata>
<g transform="translate(0.000000,504.000000) scale(0.100000,-0.100000)"
fill="#000000" stroke="none">
<path d="M2677 3862 c-11 -12 -17 -36 -17 -71 0 -29 -5 -61 -10 -72 l-11 -19
-348 0 -348 0 -16 -18 c-11 -12 -17 -36 -17 -71 0 -29 -5 -61 -10 -72 l-11
-19 -78 0 -78 0 -16 -18 c-12 -13 -17 -37 -17 -86 0 -37 -5 -76 -10 -87 l-11
-19 -153 0 -153 0 -16 -18 -17 -19 0 -142 c0 -79 -5 -151 -10 -162 l-11 -19
-78 0 -78 0 -16 -18 -17 -19 0 -157 c0 -89 -4 -166 -10 -177 l-11 -19 -63 0
c-48 0 -67 -4 -79 -18 l-17 -19 0 -260 0 -260 18 -16 19 -17 170 0 170 0 16
18 c12 13 17 37 17 86 0 37 5 76 10 87 l11 19 63 0 c48 0 67 4 79 18 l17 19 0
142 c0 79 5 151 10 162 l11 19 63 0 c84 0 96 13 96 104 0 37 5 76 10 87 l11
19 78 0 78 0 16 18 c11 12 17 36 17 71 0 29 5 61 10 72 l11 19 63 0 c80 0 96
15 96 89 0 29 5 61 10 72 l11 19 258 0 258 0 16 18 c11 12 17 36 17 71 0 29 5
61 10 72 l11 19 1484 0 1484 0 11 -19 c5 -11 10 -44 10 -74 0 -40 5 -58 18
-70 l19 -17 346 0 346 0 11 -19 c5 -11 10 -44 10 -74 0 -40 5 -58 18 -70 l19
-17 436 0 436 0 11 -19 c5 -11 10 -44 10 -74 0 -40 5 -58 18 -70 l19 -17 361
0 361 0 11 -19 c5 -11 10 -51 10 -89 0 -54 4 -72 18 -85 l19 -17 256 0 256 0
11 -19 c5 -11 10 -44 10 -74 0 -40 5 -58 18 -70 l19 -17 241 0 241 0 11 -19
c5 -11 10 -44 10 -74 0 -40 5 -58 18 -70 l19 -17 256 0 256 0 11 -19 c5 -11
10 -51 10 -89 0 -54 4 -72 18 -85 l19 -17 166 0 166 0 11 -19 c5 -11 10 -44
10 -74 0 -40 5 -58 18 -70 l19 -17 256 0 256 0 11 -19 c5 -11 10 -44 10 -74 0
-40 5 -58 18 -70 l19 -17 151 0 151 0 11 -19 c5 -11 10 -51 10 -89 0 -54 4
-72 18 -85 l19 -17 166 0 166 0 11 -19 c5 -11 10 -44 10 -74 0 -40 5 -58 18
-70 l19 -17 256 0 256 0 11 -19 c5 -11 10 -44 10 -74 0 -40 5 -58 18 -70 l19
-17 256 0 256 0 11 -19 c5 -11 10 -44 10 -74 0 -40 5 -58 18 -70 l19 -17 260
0 260 0 16 18 c11 12 17 36 17 71 0 29 5 61 10 72 l11 19 153 0 153 0 16 18
17 19 0 440 0 440 -18 16 c-13 12 -37 17 -80 17 l-61 0 -11 19 c-5 11 -10 51
-10 89 0 89 -13 102 -98 102 l-61 0 -11 19 c-5 11 -10 44 -10 74 0 75 -15 87
-113 87 l-76 0 -11 19 c-5 11 -10 44 -10 74 0 72 -17 87 -98 87 l-61 0 -11 19
c-5 11 -10 51 -10 89 0 89 -13 102 -98 102 l-61 0 -11 19 c-5 11 -10 44 -10
74 0 40 -5 58 -18 70 l-19 17 -166 0 -166 0 -11 19 c-5 11 -10 44 -10 74 0 40
-5 58 -18 70 l-19 17 -256 0 -256 0 -11 19 c-5 11 -10 44 -10 74 0 40 -5 58
-18 70 l-19 17 -260 0 -260 0 -16 -18 -17 -19 0 -155 0 -155 18 -16 19 -17
256 0 256 0 11 -19 c5 -11 10 -44 10 -74 0 -75 15 -87 113 -87 l76 0 11 -19
c5 -11 10 -51 10 -89 0 -54 4 -72 18 -85 l19 -17 151 0 151 0 11 -19 c5 -11
10 -44 10 -74 0 -75 15 -87 113 -87 l76 0 11 -19 c5 -11 10 -44 10 -74 0 -72
17 -87 98 -87 l61 0 11 -19 c5 -11 10 -51 10 -89 0 -89 13 -102 98 -102 l61 0
11 -19 c14 -26 14 -486 0 -512 l-11 -19 -149 0 -149 0 -11 19 c-5 11 -10 51
-10 89 0 54 -4 72 -18 85 l-19 17 -256 0 -256 0 -11 19 c-5 11 -10 44 -10 74
0 40 -5 58 -18 70 l-19 17 -166 0 -166 0 -11 19 c-5 11 -10 44 -10 74 0 40 -5
58 -18 70 l-19 17 -256 0 -256 0 -11 19 c-5 11 -10 51 -10 89 0 54 -4 72 -18
85 l-19 17 -256 0 -256 0 -11 19 c-5 11 -10 44 -10 74 0 40 -5 58 -18 70 l-19
17 -151 0 -151 0 -11 19 c-5 11 -10 44 -10 74 0 40 -5 58 -18 70 l-19 17 -256
0 -256 0 -11 19 c-5 11 -10 51 -10 89 0 54 -4 72 -18 85 l-19 17 -166 0 -166
0 -11 19 c-5 11 -10 44 -10 74 0 40 -5 58 -18 70 l-19 17 -346 0 -346 0 -11
19 c-5 11 -10 44 -10 74 0 40 -5 58 -18 70 l-19 17 -256 0 -256 0 -11 19 c-5
11 -10 44 -10 74 0 40 -5 58 -18 70 l-19 17 -256 0 -256 0 -11 19 c-5 11 -10
51 -10 89 0 54 -4 72 -18 85 l-19 17 -541 0 -541 0 -11 19 c-5 11 -10 44 -10
74 0 40 -5 58 -18 70 l-19 17 -541 0 -541 0 -11 19 c-5 11 -10 44 -10 74 0 40
-5 58 -18 70 l-19 17 -1100 0 -1100 0 -16 -18z"/>
</g>
</svg>
