<?xml version="1.0" standalone="no"?>
<!DOCTYPE svg PUBLIC "-//W3C//DTD SVG 20010904//EN"
 "http://www.w3.org/TR/2001/REC-SVG-20010904/DTD/svg10.dtd">
<svg version="1.0" xmlns="http://www.w3.org/2000/svg"
 width="729.000000pt" height="111.000000pt" viewBox="0 0 729.000000 111.000000"
 preserveAspectRatio="xMidYMid meet">
<metadata>
Created by potrace 1.16, written by Peter Selinger 2001-2019
</metadata>
<g transform="translate(0.000000,111.000000) scale(0.100000,-0.100000)"
fill="#000000" stroke="none">
<path d="M185 1100 c-3 -5 -15 -10 -25 -10 -11 0 -47 -25 -81 -55 -34 -30 -65
-55 -70 -55 -5 0 -9 -33 -9 -74 l0 -74 28 -31 c15 -16 42 -48 61 -70 21 -26
47 -44 70 -51 20 -5 56 -26 79 -46 23 -19 57 -40 76 -45 19 -5 62 -34 95 -64
l62 -55 92 0 92 0 36 -24 c52 -36 150 -66 211 -66 38 0 71 -8 116 -30 35 -17
73 -30 85 -30 11 0 81 -20 154 -45 88 -30 149 -45 183 -45 28 0 67 -7 87 -15
19 -8 48 -15 62 -15 17 0 38 -11 56 -30 19 -20 39 -30 57 -30 16 0 45 -7 65
-15 19 -8 53 -15 75 -15 21 0 55 -7 75 -15 23 -10 69 -15 135 -15 65 0 111 -5
135 -15 20 -8 66 -15 105 -15 38 0 84 -7 105 -15 25 -11 73 -15 169 -15 78 0
135 -4 139 -10 8 -14 432 -14 440 0 3 6 46 10 94 10 56 0 102 6 124 15 20 8
54 15 75 15 22 0 56 7 75 15 20 8 49 15 64 15 15 0 48 14 73 30 25 16 52 30
61 30 9 0 34 13 56 29 23 16 63 41 89 54 27 14 59 36 71 49 33 35 103 141 103
156 0 27 42 103 65 118 20 13 39 15 93 10 88 -9 126 -9 187 -1 37 5 61 3 89
-9 l38 -16 354 0 c218 0 363 -4 380 -10 19 -7 37 -7 60 0 25 9 40 8 69 -5 26
-10 71 -15 152 -15 78 0 125 -5 150 -15 26 -11 74 -15 180 -15 105 0 153 -4
180 -15 23 -10 69 -15 135 -15 65 0 111 -5 135 -15 l35 -15 298 0 298 0 35 15
c20 8 48 15 62 15 49 0 202 94 243 149 30 40 30 102 0 142 -26 35 -146 119
-170 119 -9 0 -84 34 -167 75 -84 41 -162 75 -174 75 -13 0 -61 13 -107 30
l-85 30 -90 0 c-97 0 -115 -7 -115 -46 0 -39 45 -64 114 -64 67 0 146 -31 226
-89 24 -18 55 -31 72 -31 41 0 82 -19 172 -82 97 -66 107 -79 81 -109 -25 -27
-91 -58 -126 -59 -15 0 -43 -7 -62 -15 -52 -22 -452 -22 -504 0 -27 11 -77 15
-210 15 -132 0 -182 4 -210 15 -26 11 -76 15 -195 15 -118 0 -168 4 -195 15
-24 10 -71 15 -150 15 -78 0 -125 5 -150 15 -27 12 -79 15 -225 15 -145 0
-197 3 -225 15 l-35 15 -342 0 -341 0 -45 30 c-36 24 -56 30 -97 30 l-53 0
-40 -36 c-47 -43 -49 -61 -15 -135 13 -30 27 -72 30 -94 l7 -41 -46 -51 c-77
-86 -247 -183 -319 -183 -10 0 -58 -13 -105 -29 l-87 -29 -138 -6 c-75 -4
-149 -11 -163 -16 -42 -16 -269 -12 -311 5 -23 10 -69 15 -135 15 -65 0 -111
5 -135 15 -20 8 -66 15 -105 15 -38 0 -84 7 -105 15 -19 8 -60 15 -90 15 -29
0 -70 7 -90 15 -23 10 -69 15 -132 15 -110 0 -185 21 -229 63 -21 20 -38 27
-68 27 -22 0 -78 13 -124 30 -50 17 -106 30 -135 30 -59 0 -250 62 -354 114
-56 29 -82 36 -127 36 -108 0 -144 43 -144 174 l0 86 -40 80 -40 79 -74 49
c-40 27 -89 54 -107 61 -19 7 -42 17 -51 22 -24 12 -195 12 -203 -1z m211
-179 c42 -31 91 -81 117 -121 18 -26 22 -86 8 -109 l-9 -14 -97 32 c-106 33
-151 62 -196 124 -35 49 -36 61 -4 92 l24 25 59 0 59 0 39 -29z"/>
</g>
</svg>
