<?xml version="1.0" standalone="no"?>
<!DOCTYPE svg PUBLIC "-//W3C//DTD SVG 20010904//EN"
 "http://www.w3.org/TR/2001/REC-SVG-20010904/DTD/svg10.dtd">
<svg version="1.0" xmlns="http://www.w3.org/2000/svg"
 width="555.000000pt" height="57.000000pt" viewBox="0 0 555.000000 57.000000"
 preserveAspectRatio="xMidYMid meet">
<metadata>
Created by potrace 1.16, written by Peter Selinger 2001-2019
</metadata>
<g transform="translate(0.000000,57.000000) scale(0.100000,-0.100000)"
fill="#000000" stroke="none">
<path d="M7 563 c-4 -3 -7 -19 -7 -35 l0 -28 63 0 c35 -1 73 -7 87 -15 14 -8
41 -15 60 -15 19 0 46 -7 60 -15 14 -8 48 -15 75 -15 28 0 61 -7 75 -15 15 -9
53 -14 95 -15 39 0 90 -6 115 -14 107 -34 144 -39 300 -45 103 -4 173 -11 187
-18 13 -8 57 -13 108 -13 53 0 99 -6 122 -15 19 -8 60 -15 90 -15 29 0 70 -7
90 -15 20 -8 66 -15 105 -15 38 0 84 -7 105 -15 22 -9 67 -15 120 -15 52 0 97
-6 120 -15 28 -12 86 -15 285 -15 198 0 256 -3 285 -15 24 -10 71 -15 150 -15
78 0 125 -5 150 -15 27 -11 77 -15 210 -15 132 0 182 -4 210 -15 28 -12 82
-15 255 -15 172 0 226 -3 255 -15 28 -12 82 -15 255 -15 172 0 226 -3 255 -15
l35 -15 355 0 354 0 36 -15 c19 -8 55 -15 79 -15 23 0 46 -5 49 -10 3 -6 47
-10 96 -10 l90 0 37 25 c20 14 42 25 49 25 6 0 28 20 47 44 28 33 36 52 35 82
l0 39 -97 88 c-194 176 -260 217 -347 217 -31 0 -72 7 -92 15 -54 23 -148 20
-173 -5 -11 -11 -20 -28 -20 -38 0 -36 77 -82 136 -82 81 0 277 -85 303 -132
12 -20 13 -34 5 -55 l-9 -28 -162 -3 c-128 -2 -170 1 -199 13 l-36 15 -414 0
c-304 0 -420 3 -441 12 -23 11 -181 20 -463 29 -19 0 -58 -2 -85 -6 -37 -5
-61 -3 -89 9 -29 12 -73 16 -183 16 -105 0 -153 4 -180 15 -26 11 -76 15 -195
15 -118 0 -168 4 -195 15 -26 11 -74 15 -180 15 -105 0 -153 4 -180 15 -28 12
-84 15 -270 15 -185 0 -241 3 -270 15 -23 10 -69 15 -135 15 -65 0 -111 5
-135 15 -22 9 -67 15 -120 15 -52 0 -97 6 -120 15 -22 9 -67 15 -120 15 -52 0
-97 6 -120 15 -20 8 -66 15 -105 15 -38 0 -84 7 -105 15 -27 11 -77 15 -210
15 -132 0 -182 4 -210 15 -22 9 -68 15 -124 15 -48 0 -91 5 -94 10 -7 11 -98
14 -108 3z"/>
</g>
</svg>
