<?xml version="1.0" standalone="no"?>
<!DOCTYPE svg PUBLIC "-//W3C//DTD SVG 20010904//EN"
 "http://www.w3.org/TR/2001/REC-SVG-20010904/DTD/svg10.dtd">
<svg version="1.0" xmlns="http://www.w3.org/2000/svg"
 width="2244.000000pt" height="612.000000pt" viewBox="0 0 2244.000000 612.000000"
 preserveAspectRatio="xMidYMid meet">
<metadata>
Created by potrace 1.16, written by Peter Selinger 2001-2019
</metadata>
<g transform="translate(0.000000,612.000000) scale(0.100000,-0.100000)"
fill="#000000" stroke="none">
<path d="M1207 4222 l-17 -19 0 -170 0 -170 18 -16 c13 -12 37 -17 80 -17 l61
0 11 -19 c5 -11 10 -44 10 -74 0 -40 5 -58 18 -70 l19 -17 166 0 166 0 11 -19
c5 -11 10 -51 10 -89 0 -54 4 -72 18 -85 l19 -17 151 0 151 0 11 -19 c5 -11
10 -44 10 -74 0 -75 15 -87 113 -87 l76 0 11 -19 c5 -11 10 -44 10 -74 0 -40
5 -58 18 -70 l19 -17 256 0 256 0 11 -19 c5 -11 10 -44 10 -74 0 -40 5 -58 18
-70 l19 -17 151 0 151 0 11 -19 c5 -11 10 -51 10 -89 0 -54 4 -72 18 -85 l19
-17 166 0 166 0 11 -19 c5 -11 10 -44 10 -74 0 -40 5 -58 18 -70 l19 -17 256
0 256 0 11 -19 c5 -11 10 -44 10 -74 0 -40 5 -58 18 -70 l19 -17 346 0 346 0
11 -19 c5 -11 10 -51 10 -89 0 -54 4 -72 18 -85 l19 -17 256 0 256 0 11 -19
c5 -11 10 -44 10 -74 0 -40 5 -58 18 -70 l19 -17 346 0 346 0 11 -19 c5 -11
10 -44 10 -74 0 -40 5 -58 18 -70 l19 -17 541 0 541 0 11 -19 c5 -11 10 -51
10 -89 0 -54 4 -72 18 -85 l19 -17 811 0 811 0 11 -19 c5 -11 10 -44 10 -74 0
-40 5 -58 18 -70 l19 -17 1025 0 1025 0 16 18 c11 12 17 36 17 71 0 29 5 61
10 72 l11 19 438 0 438 0 16 18 c12 13 17 37 17 86 0 37 5 76 10 87 l11 19
168 0 168 0 16 18 c11 12 17 36 17 71 0 29 5 61 10 72 l11 19 63 0 c48 0 67 4
79 18 l17 19 0 157 c0 89 4 166 10 177 l11 19 63 0 c48 0 67 4 79 18 l17 19 0
247 c0 151 4 255 10 267 l11 19 449 0 449 0 11 -19 c5 -11 10 -51 10 -89 0
-54 4 -72 18 -85 l19 -17 721 0 721 0 11 -19 c5 -11 10 -44 10 -74 0 -40 5
-58 18 -70 l19 -17 631 0 631 0 11 -19 c5 -11 10 -44 10 -74 0 -40 5 -58 18
-70 l19 -17 1006 0 1006 0 11 -19 c5 -11 10 -51 10 -89 0 -54 4 -72 18 -85
l19 -17 256 0 256 0 11 -19 c5 -11 10 -44 10 -74 0 -40 5 -58 18 -70 l19 -17
635 0 635 0 16 18 c11 12 17 36 17 71 0 29 5 61 10 72 l11 19 168 0 168 0 16
18 17 19 0 365 0 365 -18 16 c-13 12 -37 17 -80 17 l-61 0 -11 19 c-5 11 -10
84 -10 164 l0 144 -18 16 -19 17 -166 0 -166 0 -11 19 c-5 11 -10 44 -10 74 0
72 -17 87 -98 87 l-61 0 -11 19 c-5 11 -10 51 -10 89 0 54 -4 72 -18 85 l-19
17 -166 0 -166 0 -11 19 c-5 11 -10 44 -10 74 0 40 -5 58 -18 70 l-19 17 -151
0 -151 0 -11 19 c-5 11 -10 44 -10 74 0 40 -5 58 -18 70 l-19 17 -256 0 -256
0 -11 19 c-5 11 -10 51 -10 89 0 54 -4 72 -18 85 l-19 17 -635 0 -635 0 -16
-18 -17 -19 0 -170 0 -170 18 -16 19 -17 346 0 346 0 11 -19 c5 -11 10 -44 10
-74 0 -40 5 -58 18 -70 l19 -17 346 0 346 0 11 -19 c5 -11 10 -51 10 -89 0
-54 4 -72 18 -85 l19 -17 166 0 166 0 11 -19 c5 -11 10 -44 10 -74 0 -40 5
-58 18 -70 l19 -17 151 0 151 0 11 -19 c5 -11 10 -44 10 -74 0 -72 17 -87 98
-87 l61 0 11 -19 c5 -11 10 -44 10 -74 0 -75 15 -87 113 -87 l76 0 11 -19 c13
-26 13 -306 0 -332 l-11 -19 -824 0 -824 0 -11 19 c-5 11 -10 44 -10 74 0 40
-5 58 -18 70 l-19 17 -721 0 -721 0 -11 19 c-5 11 -10 51 -10 89 0 54 -4 72
-18 85 l-19 17 -631 0 -631 0 -11 19 c-5 11 -10 44 -10 74 0 40 -5 58 -18 70
l-19 17 -826 0 -826 0 -11 19 c-5 11 -10 44 -10 74 0 40 -5 58 -18 70 l-19 17
-721 0 -721 0 -11 19 c-5 11 -10 44 -10 74 0 40 -5 58 -18 70 l-19 17 -455 0
-455 0 -16 -18 -17 -19 0 -245 0 -245 18 -16 19 -17 166 0 166 0 11 -19 c14
-27 14 -695 0 -722 l-11 -19 -258 0 -258 0 -16 -18 c-11 -12 -17 -36 -17 -71
0 -29 -5 -61 -10 -72 l-11 -19 -1484 0 -1484 0 -11 19 c-5 11 -10 44 -10 74 0
40 -5 58 -18 70 l-19 17 -721 0 -721 0 -11 19 c-5 11 -10 51 -10 89 0 54 -4
72 -18 85 l-19 17 -451 0 -451 0 -11 19 c-5 11 -10 44 -10 74 0 40 -5 58 -18
70 l-19 17 -436 0 -436 0 -11 19 c-5 11 -10 44 -10 74 0 40 -5 58 -18 70 l-19
17 -166 0 -166 0 -11 19 c-5 11 -10 51 -10 89 0 54 -4 72 -18 85 l-19 17 -346
0 -346 0 -11 19 c-5 11 -10 44 -10 74 0 40 -5 58 -18 70 l-19 17 -151 0 -151
0 -11 19 c-5 11 -10 44 -10 74 0 40 -5 58 -18 70 l-19 17 -166 0 -166 0 -11
19 c-5 11 -10 44 -10 74 0 40 -5 58 -18 70 l-19 17 -256 0 -256 0 -11 19 c-5
11 -10 51 -10 89 0 54 -4 72 -18 85 l-19 17 -166 0 -166 0 -11 19 c-5 11 -10
44 -10 74 0 40 -5 58 -18 70 l-19 17 -151 0 -151 0 -11 19 c-5 11 -10 44 -10
74 0 40 -5 58 -18 70 l-19 17 -166 0 -166 0 -11 19 c-5 11 -10 51 -10 89 0 90
-12 102 -102 102 -50 0 -69 -4 -81 -18z"/>
</g>
</svg>
