<?xml version="1.0" encoding="UTF-8" standalone="no"?>
<!-- Created with Inkscape (http://www.inkscape.org/) -->

<svg
   version="1.1"
   id="svg1"
   width="208.69841"
   height="216.76186"
   viewBox="0 0 208.69841 216.76186"
   xmlns="http://www.w3.org/2000/svg"
   xmlns:svg="http://www.w3.org/2000/svg">
  <defs
     id="defs1" />
  <g
     id="g1"
     transform="translate(0,0.29755746)">
    <path
       style="fill:#000000"
       d="M 159.46672,215.06241 C 153.83656,212.55489 139.12536,196.81067 79.051084,129 54.764991,101.58633 44.738515,91.289804 24.791255,73.278735 4.9982706,55.406967 0,48.723966 0,40.131276 c 0,-3.81033 20.028396,-3.466132 84.5,1.452175 81.04366,6.18253 105.98739,2.470597 109.83046,-16.344119 C 195.85175,17.791469 176.86303,11.366156 160.92525,13.935833 150.34797,15.641227 137.67228,6.3505308 144.39024,1.8164357 154.52107,-5.0210799 195.06367,5.93715 202.13454,17.424103 223.58688,52.274385 193.83174,62.363954 92.5,54.599707 58.542997,51.997851 15.955655,49.711012 15.216881,50.449786 c -0.796892,0.796892 0.951413,2.575239 15.323186,15.586488 20.882623,18.90574 30.991309,29.276947 55.446229,56.886166 36.934624,41.69859 50.758934,57.05354 64.163084,71.26724 16.66961,17.67638 20.27489,25.75293 9.31734,20.87273 z"
       id="path1" />
  </g>
</svg>
