<?xml version="1.0" standalone="no"?>
<!DOCTYPE svg PUBLIC "-//W3C//DTD SVG 20010904//EN"
 "http://www.w3.org/TR/2001/REC-SVG-20010904/DTD/svg10.dtd">
<svg version="1.0" xmlns="http://www.w3.org/2000/svg"
 width="606.000000pt" height="327.000000pt" viewBox="0 0 606.000000 327.000000"
 preserveAspectRatio="xMidYMid meet">
<metadata>
Created by potrace 1.16, written by Peter Selinger 2001-2019
</metadata>
<g transform="translate(0.000000,327.000000) scale(0.100000,-0.100000)"
fill="#000000" stroke="none">
<path d="M5000 3234 c0 -47 45 -94 90 -94 47 0 127 -41 197 -100 68 -58 78
-73 63 -101 l-11 -19 -82 0 c-85 0 -147 16 -252 64 -27 13 -62 26 -77 29 -14
4 -50 29 -80 56 -56 51 -125 91 -157 91 -22 0 -76 -42 -92 -71 -19 -37 54
-128 139 -172 19 -11 53 -32 75 -48 22 -16 47 -29 56 -29 33 -1 167 -81 234
-139 17 -16 56 -41 85 -56 29 -15 65 -43 79 -61 14 -19 48 -46 76 -62 31 -16
62 -43 79 -68 15 -22 46 -53 70 -68 24 -15 54 -44 68 -64 13 -20 47 -62 76
-92 96 -102 204 -282 204 -341 0 -15 7 -43 15 -62 32 -78 3 -220 -60 -294 -18
-21 -44 -61 -58 -89 -30 -59 -40 -69 -92 -86 -27 -9 -48 -27 -70 -58 l-31 -45
-60 -22 c-32 -12 -72 -22 -87 -22 -28 -1 -97 -33 -152 -70 -16 -12 -41 -21
-55 -21 -14 0 -63 -14 -110 -30 l-84 -30 -127 0 c-90 0 -137 -4 -162 -15 -26
-11 -73 -15 -165 -15 -93 0 -140 -4 -165 -15 l-36 -15 -336 0 -336 0 -36 15
c-27 12 -79 15 -225 15 -145 0 -197 3 -225 15 -25 11 -72 15 -165 15 -92 0
-139 4 -165 15 -19 8 -52 15 -72 15 -20 0 -56 6 -81 14 -93 29 -137 38 -225
46 -49 4 -103 12 -120 18 -60 21 -122 34 -195 42 -84 8 -129 28 -160 68 -11
15 -45 45 -75 67 -29 22 -78 59 -107 82 -64 50 -307 173 -343 173 -14 0 -42 7
-62 15 -63 26 -119 19 -208 -28 l-80 -42 -27 -50 c-37 -68 -37 -118 1 -156 21
-20 39 -29 63 -29 19 0 49 -11 70 -25 45 -30 202 -85 278 -96 30 -4 105 -14
165 -22 114 -16 133 -23 225 -85 l55 -37 53 -105 54 -105 -4 -65 c-2 -48 -9
-74 -26 -98 l-23 -32 -310 0 -310 0 -36 15 c-27 11 -77 15 -210 15 -132 0
-182 4 -210 15 -22 9 -67 15 -120 15 -52 0 -97 6 -120 15 -24 10 -71 15 -150
15 -78 0 -125 5 -150 15 -19 8 -45 15 -57 15 -25 0 -121 32 -186 62 l-44 20
-53 -26 -53 -26 0 -58 0 -58 27 -25 c18 -16 75 -40 152 -65 l124 -39 75 -74
c57 -56 83 -91 108 -147 40 -85 40 -89 13 -133 l-20 -33 -37 6 c-20 3 -52 9
-70 12 -41 8 -72 -17 -72 -56 0 -40 69 -100 114 -100 19 0 38 -4 41 -10 3 -5
39 -10 80 -10 l73 0 31 28 c16 15 46 40 66 56 21 17 49 53 63 82 l25 52 -22
70 c-15 45 -34 80 -53 99 -63 60 -99 138 -75 162 16 16 92 13 134 -4 25 -11
72 -15 165 -15 92 0 139 -4 165 -15 27 -12 81 -15 240 -15 158 0 212 -3 240
-15 24 -10 71 -15 150 -15 78 0 125 -5 150 -15 59 -25 115 -19 191 19 85 43
139 99 163 168 22 62 27 293 8 348 l-12 32 14 9 c22 14 106 10 146 -6 19 -8
53 -15 75 -15 21 0 55 -7 75 -15 19 -8 53 -15 75 -15 21 0 55 -7 75 -15 20 -8
66 -15 105 -15 38 0 84 -7 105 -15 19 -8 60 -15 90 -15 29 0 70 -7 90 -15 26
-11 74 -15 180 -15 105 0 153 -4 180 -15 l35 -15 463 0 463 0 35 15 c29 12 85
15 269 15 l233 0 85 30 c46 17 99 30 117 30 19 0 93 20 166 45 73 25 143 45
155 45 26 0 93 32 137 65 17 12 64 39 105 59 130 65 330 285 330 363 0 18 5
35 10 38 6 4 10 73 10 175 0 102 -4 171 -10 175 -5 3 -10 20 -10 36 0 32 -29
96 -65 144 -12 17 -34 53 -48 80 -27 53 -319 350 -387 394 -20 13 -48 41 -63
62 -15 21 -50 51 -77 66 -28 15 -50 34 -50 41 0 7 17 20 38 28 109 47 158 71
179 87 l23 18 0 50 c0 84 -55 171 -135 211 -63 32 -176 109 -182 124 -4 11
-35 14 -139 14 l-134 0 0 -36z m-3562 -1791 c64 -29 112 -63 112 -78 0 -33
-183 14 -197 52 -4 9 1 21 12 29 24 18 29 18 73 -3z"/>
</g>
</svg>
