<?xml version="1.0" standalone="no"?>
<!DOCTYPE svg PUBLIC "-//W3C//DTD SVG 20010904//EN"
 "http://www.w3.org/TR/2001/REC-SVG-20010904/DTD/svg10.dtd">
<svg version="1.0" xmlns="http://www.w3.org/2000/svg"
 width="213.000000pt" height="237.000000pt" viewBox="0 0 213.000000 237.000000"
 preserveAspectRatio="xMidYMid meet">
<metadata>
Created by potrace 1.16, written by Peter Selinger 2001-2019
</metadata>
<g transform="translate(0.000000,237.000000) scale(0.100000,-0.100000)"
fill="#000000" stroke="none">
<path d="M860 2334 c0 -47 45 -94 90 -94 69 0 158 -61 186 -129 l15 -35 -13
-13 -13 -13 -105 36 c-63 21 -119 47 -140 65 -44 37 -163 99 -190 99 -25 0
-60 -54 -60 -92 0 -17 9 -33 28 -47 74 -54 149 -110 195 -146 29 -22 72 -52
97 -67 25 -14 55 -39 67 -56 12 -16 46 -43 76 -60 29 -17 61 -42 70 -56 9 -14
39 -39 66 -57 26 -18 62 -53 79 -79 21 -32 50 -58 87 -79 43 -24 62 -43 86
-86 17 -30 53 -74 79 -98 27 -23 58 -60 71 -82 13 -22 45 -64 71 -93 26 -30
51 -66 55 -80 3 -15 46 -107 95 -205 l88 -179 0 -114 c0 -158 -21 -206 -107
-245 -50 -23 -130 -25 -180 -4 -24 10 -71 15 -150 15 -78 0 -125 5 -150 15
-19 8 -53 15 -75 15 -21 0 -55 7 -75 15 -19 8 -60 15 -90 15 -29 0 -70 7 -90
15 -19 8 -60 15 -90 15 -29 0 -70 7 -90 15 -19 8 -60 15 -90 15 -29 0 -70 7
-90 15 -19 8 -53 15 -75 15 -21 0 -55 7 -75 15 -21 9 -67 15 -117 15 -60 0
-100 7 -154 25 -41 14 -83 25 -93 25 -24 0 -72 -24 -116 -58 l-33 -24 0 -83 0
-83 37 -28 c21 -15 56 -47 78 -70 26 -27 78 -62 145 -96 58 -29 123 -65 144
-80 21 -16 47 -28 57 -28 10 0 21 -4 24 -10 4 -6 57 -10 128 -10 l122 1 28 63
c22 49 28 76 26 118 -1 30 1 60 5 66 11 19 237 16 283 -3 22 -9 67 -15 120
-15 52 0 97 -6 120 -15 19 -8 60 -15 90 -15 29 0 70 -7 90 -15 23 -10 69 -15
132 -15 55 0 115 -6 141 -14 25 -8 67 -19 93 -25 l48 -11 37 19 c48 25 114 95
141 148 14 29 21 61 21 102 0 33 5 63 10 66 13 8 13 210 0 233 -5 9 -19 45
-30 80 -12 35 -36 86 -55 113 -18 27 -37 64 -40 81 -10 46 -39 99 -102 191
-29 44 -63 98 -75 121 -11 22 -40 62 -63 87 -23 25 -54 63 -68 85 -32 50 -268
281 -326 319 -43 29 -111 103 -111 122 0 5 15 16 33 24 21 9 40 30 56 60 l25
46 -23 69 c-33 101 -108 195 -200 252 l-52 32 -115 0 -114 0 0 -36z m-473
-1969 c19 -8 47 -15 62 -15 32 0 51 -16 51 -43 0 -11 20 -39 45 -63 43 -43 49
-66 20 -78 -21 -8 -113 28 -143 57 -15 14 -46 35 -70 47 -38 20 -72 53 -72 72
0 14 32 38 51 38 11 0 36 -7 56 -15z"/>
</g>
</svg>
