<?xml version="1.0" standalone="no"?>
<!DOCTYPE svg PUBLIC "-//W3C//DTD SVG 20010904//EN"
 "http://www.w3.org/TR/2001/REC-SVG-20010904/DTD/svg10.dtd">
<svg version="1.0" xmlns="http://www.w3.org/2000/svg"
 width="474.000000pt" height="243.000000pt" viewBox="0 0 474.000000 243.000000"
 preserveAspectRatio="xMidYMid meet">
<metadata>
Created by potrace 1.16, written by Peter Selinger 2001-2019
</metadata>
<g transform="translate(0.000000,243.000000) scale(0.100000,-0.100000)"
fill="#000000" stroke="none">
<path d="M3202 2407 c-32 -34 -28 -56 16 -73 77 -31 98 -43 127 -73 l29 -31
-17 -17 -17 -17 -42 13 c-24 7 -63 16 -88 21 -25 5 -69 20 -97 34 -64 32 -77
32 -128 3 -49 -27 -54 -56 -22 -112 15 -27 40 -50 77 -70 87 -47 192 -120 230
-160 19 -19 51 -40 72 -45 20 -6 61 -32 90 -58 29 -27 121 -93 203 -147 101
-67 175 -125 225 -176 41 -42 84 -83 95 -90 12 -8 34 -31 50 -52 15 -21 47
-48 69 -59 55 -27 74 -46 98 -93 11 -22 41 -61 67 -86 60 -61 85 -93 176 -230
46 -69 75 -124 75 -140 0 -15 12 -53 26 -85 l26 -59 -11 -36 c-6 -20 -11 -54
-11 -75 0 -85 -67 -124 -215 -124 -62 0 -108 5 -132 15 -23 10 -69 15 -132 15
-55 0 -115 6 -141 14 -94 30 -138 38 -225 45 -49 4 -97 11 -105 16 -8 5 -40
13 -70 16 -30 4 -84 12 -120 18 -36 6 -100 11 -143 11 -46 0 -92 6 -114 15
-19 8 -64 15 -100 15 l-65 0 -29 -29 c-41 -41 -39 -85 8 -172 l37 -68 -27 -40
c-32 -48 -71 -71 -124 -71 -101 0 -323 -19 -359 -30 l-42 -14 -44 17 c-24 9
-61 17 -81 17 -21 0 -54 7 -74 15 -20 8 -66 15 -105 15 -38 0 -84 7 -105 15
-19 8 -61 15 -92 15 l-57 0 -29 30 -29 30 -116 0 -116 0 -84 30 c-47 16 -101
30 -120 30 -19 0 -55 6 -80 14 -87 28 -136 38 -210 45 -41 4 -85 13 -97 19
-12 7 -63 12 -120 12 l-98 0 -120 41 c-92 31 -129 39 -158 34 -21 -3 -55 0
-75 6 l-37 11 -110 -37 -110 -37 -47 -46 c-35 -33 -52 -60 -63 -98 -8 -28 -22
-57 -30 -64 -10 -8 -15 -31 -15 -71 l0 -58 30 -16 c39 -20 93 -19 112 3 9 9
30 46 48 82 57 113 115 170 172 170 14 0 42 7 63 16 l37 15 47 -15 c77 -24
133 -37 191 -45 30 -4 71 -12 90 -18 76 -24 128 -35 200 -42 41 -4 85 -13 97
-19 12 -7 54 -12 93 -12 40 0 86 -6 107 -15 19 -8 52 -15 72 -15 20 0 75 -13
121 -30 47 -16 101 -30 120 -30 19 0 55 -6 80 -14 78 -25 133 -37 195 -45 34
-5 70 -13 82 -19 12 -7 40 -12 63 -12 22 0 57 -7 77 -15 27 -12 80 -15 229
-15 118 0 195 -4 199 -10 8 -13 162 -13 170 0 4 6 57 10 125 10 l119 0 34 30
c19 16 40 30 46 30 7 0 29 9 50 20 44 22 98 90 131 165 13 28 26 57 30 65 11
22 255 27 306 5 20 -8 53 -15 73 -15 20 0 56 -6 81 -14 60 -19 125 -35 182
-46 26 -5 56 -13 67 -19 11 -6 72 -11 136 -11 80 0 127 -5 152 -15 19 -8 45
-15 57 -15 11 0 41 -6 66 -14 25 -8 67 -19 93 -25 l48 -11 37 19 c45 23 132
113 132 137 0 15 44 124 71 176 12 24 11 105 -1 113 -5 3 -10 27 -10 53 0 35
-7 58 -30 92 -16 25 -30 51 -30 58 0 31 -82 172 -113 196 -19 14 -46 48 -61
76 -15 27 -42 61 -60 75 -18 14 -45 47 -60 74 -14 27 -42 62 -62 78 -47 37
-94 84 -123 123 -13 17 -42 43 -64 57 -22 14 -61 45 -86 68 -25 23 -61 50 -80
60 -18 9 -68 52 -110 96 -49 51 -84 79 -98 79 -12 0 -24 4 -28 10 -13 21 -157
131 -205 156 -29 15 -54 34 -58 42 -7 20 25 42 63 42 42 0 71 23 100 80 32 63
31 75 -5 130 -16 25 -30 52 -30 61 0 29 -40 68 -81 79 -22 6 -45 20 -52 30
l-12 20 -106 0 -106 0 -21 -23z"/>
</g>
</svg>
