<?xml version="1.0" standalone="no"?>
<!DOCTYPE svg PUBLIC "-//W3C//DTD SVG 20010904//EN"
 "http://www.w3.org/TR/2001/REC-SVG-20010904/DTD/svg10.dtd">
<svg version="1.0" xmlns="http://www.w3.org/2000/svg"
 width="462.000000pt" height="261.000000pt" viewBox="0 0 462.000000 261.000000"
 preserveAspectRatio="xMidYMid meet">
<metadata>
Created by potrace 1.16, written by Peter Selinger 2001-2019
</metadata>
<g transform="translate(0.000000,261.000000) scale(0.100000,-0.100000)"
fill="#000000" stroke="none">
<path d="M2374 2575 c-9 -49 8 -65 65 -65 l47 0 29 -30 c16 -16 36 -30 45 -30
29 0 160 -107 160 -130 0 -6 -11 -22 -25 -35 l-24 -25 -70 0 c-83 0 -108 8
-158 53 -75 68 -226 127 -321 127 -101 0 -138 -52 -92 -127 18 -30 84 -73 110
-73 7 0 41 -13 77 -30 35 -16 70 -30 76 -30 7 0 29 -11 50 -25 20 -14 74 -44
119 -66 l83 -41 186 -187 187 -186 42 -85 c23 -47 52 -98 65 -115 35 -47 66
-113 96 -207 31 -95 78 -195 114 -243 12 -16 32 -50 45 -75 13 -25 37 -62 55
-83 41 -47 78 -152 64 -178 l-10 -19 -70 0 c-39 0 -85 7 -106 15 -19 8 -53 15
-75 15 -21 0 -55 7 -75 15 l-35 15 -550 0 -549 0 -36 15 -35 15 -490 0 -489 0
-36 15 -35 15 -404 0 -404 0 0 -40 0 -40 78 0 c48 -1 86 -6 102 -15 19 -11 70
-14 218 -15 148 0 201 -3 229 -15 20 -8 66 -15 105 -15 38 0 84 -7 105 -15
l35 -15 475 0 474 0 36 -15 c25 -11 72 -15 165 -15 92 0 139 -4 165 -15 47
-20 104 -19 164 2 l49 18 49 -18 49 -17 291 0 292 0 36 -15 c27 -11 78 -15
210 -15 l175 0 72 -34 c39 -18 99 -57 133 -87 80 -70 156 -127 213 -161 25
-15 70 -52 100 -83 30 -30 61 -55 69 -55 8 0 35 -13 60 -29 25 -16 59 -32 75
-35 17 -4 42 -16 57 -27 l27 -19 91 0 91 0 65 65 65 65 0 56 0 56 -27 35 c-66
83 -159 174 -182 180 -14 3 -47 18 -72 34 -25 16 -58 29 -73 29 -15 0 -57 14
-93 30 -35 17 -75 30 -89 30 -14 0 -41 7 -61 15 -19 8 -53 15 -75 15 -21 0
-55 7 -75 15 -19 8 -59 15 -89 15 l-53 0 -76 75 c-41 42 -75 80 -75 86 0 19
-33 74 -67 112 -33 37 -143 247 -143 273 0 7 -27 68 -60 135 -33 67 -60 129
-60 139 0 9 -12 27 -26 41 -24 22 -67 88 -135 205 -14 24 -53 72 -86 108 -34
35 -68 77 -76 93 -9 16 -31 42 -50 56 -19 14 -47 47 -62 73 l-28 47 19 36 c11
20 38 59 61 87 79 98 92 150 46 181 -25 17 -66 57 -117 116 -16 17 -35 27 -52
27 -36 0 -152 39 -186 62 -20 13 -45 18 -102 18 l-75 0 -7 -35z m1673 -2150
c19 -8 45 -15 57 -15 85 0 326 -144 326 -195 0 -29 -25 -55 -53 -55 -11 0 -81
30 -156 66 l-135 66 -58 60 c-32 33 -58 67 -58 74 0 18 32 18 77 -1z"/>
</g>
</svg>
