<?xml version="1.0" standalone="no"?>
<!DOCTYPE svg PUBLIC "-//W3C//DTD SVG 20010904//EN"
 "http://www.w3.org/TR/2001/REC-SVG-20010904/DTD/svg10.dtd">
<svg version="1.0" xmlns="http://www.w3.org/2000/svg"
 width="150.000000pt" height="306.000000pt" viewBox="0 0 150.000000 306.000000"
 preserveAspectRatio="xMidYMid meet">
<metadata>
Created by potrace 1.16, written by Peter Selinger 2001-2019
</metadata>
<g transform="translate(0.000000,306.000000) scale(0.100000,-0.100000)"
fill="#000000" stroke="none">
<path d="M350 3027 c0 -35 25 -67 51 -67 16 0 224 -101 252 -122 11 -8 27 -38
38 -67 25 -73 15 -91 -53 -91 -75 0 -345 92 -395 135 -63 54 -115 75 -183 75
l-61 0 3 -71 3 -72 69 -48 c38 -26 92 -70 120 -97 28 -27 71 -60 96 -74 25
-15 55 -40 68 -57 12 -17 40 -40 60 -50 44 -22 385 -360 428 -423 16 -24 47
-66 69 -95 22 -28 60 -79 85 -112 25 -34 62 -82 83 -108 20 -27 42 -64 47 -83
5 -20 26 -62 46 -95 38 -65 74 -156 74 -191 0 -12 7 -38 15 -57 18 -43 21
-296 5 -328 l-11 -19 -55 0 c-70 0 -102 18 -143 81 -32 49 -107 99 -149 99
-36 0 -82 -76 -82 -137 l0 -38 85 -81 c47 -45 100 -92 118 -104 50 -35 187
-210 187 -239 0 -9 14 -36 30 -61 16 -25 30 -56 30 -69 0 -13 5 -40 11 -60 8
-28 7 -44 -5 -73 -28 -65 -66 -78 -151 -53 -33 10 -90 -35 -90 -70 l0 -29 55
-38 55 -37 77 0 c42 -1 80 3 83 9 3 5 16 10 27 10 20 0 72 49 131 123 l27 35
0 96 c0 53 -4 104 -9 114 -4 9 -28 60 -52 112 -31 67 -58 109 -91 142 -27 25
-48 54 -48 64 0 9 20 36 44 58 24 23 48 50 54 62 6 12 27 40 47 63 l35 43 0
43 c0 24 5 47 10 50 11 7 14 158 3 168 -14 15 -43 113 -43 148 0 20 -7 53 -15
72 -8 20 -15 50 -15 66 0 23 -14 46 -56 93 -31 35 -74 99 -96 143 -22 44 -50
91 -63 105 -32 35 -112 154 -140 209 -15 30 -88 109 -208 226 -101 99 -197
190 -213 201 l-28 22 13 16 c9 11 30 16 65 16 51 1 143 26 168 48 8 6 27 38
43 72 l29 60 -13 53 c-22 83 -45 119 -117 176 -92 73 -190 121 -248 121 -24 0
-48 5 -51 10 -3 6 -40 10 -81 10 l-74 0 0 -33z"/>
</g>
</svg>
