<?xml version="1.0" standalone="no"?>
<!DOCTYPE svg PUBLIC "-//W3C//DTD SVG 20010904//EN"
 "http://www.w3.org/TR/2001/REC-SVG-20010904/DTD/svg10.dtd">
<svg version="1.0" xmlns="http://www.w3.org/2000/svg"
 width="474.000000pt" height="270.000000pt" viewBox="0 0 474.000000 270.000000"
 preserveAspectRatio="xMidYMid meet">
<metadata>
Created by potrace 1.16, written by Peter Selinger 2001-2019
</metadata>
<g transform="translate(0.000000,270.000000) scale(0.100000,-0.100000)"
fill="#000000" stroke="none">
<path d="M245 2692 c-6 -5 -43 -19 -82 -32 -89 -28 -143 -78 -143 -134 0 -19
-4 -38 -10 -41 -13 -8 -13 -132 0 -140 5 -3 10 -20 10 -36 0 -46 40 -116 145
-257 66 -89 118 -143 159 -170 22 -13 60 -44 85 -67 25 -23 66 -53 91 -65 25
-12 65 -39 90 -60 25 -20 59 -44 75 -53 45 -23 151 -57 177 -57 14 0 38 -17
64 -45 l41 -45 70 0 70 0 17 19 c38 42 -9 99 -101 123 -24 6 -62 27 -85 48
-53 46 -158 100 -195 100 -21 0 -39 12 -71 50 -24 28 -60 59 -81 69 -46 24
-231 202 -231 223 0 8 -22 42 -49 76 -72 90 -90 162 -41 162 25 0 63 -21 163
-88 82 -55 174 -92 231 -92 20 0 54 -7 76 -16 l40 -16 71 22 c71 23 109 55
109 92 0 40 -73 164 -133 226 l-62 63 15 9 c23 15 37 12 107 -20 35 -16 75
-30 89 -30 14 0 41 -7 61 -15 19 -8 61 -15 92 -15 41 0 72 -8 119 -30 35 -17
76 -30 90 -30 15 0 56 -14 90 -30 35 -17 75 -30 88 -30 14 0 41 -7 61 -15 19
-8 47 -15 62 -15 14 0 80 -26 146 -58 66 -32 156 -69 200 -82 l79 -25 53 -52
52 -53 33 0 c18 0 47 -9 63 -21 17 -11 55 -34 85 -50 30 -17 80 -46 110 -65
30 -19 71 -39 91 -44 19 -5 53 -25 76 -44 22 -20 73 -52 114 -72 71 -36 171
-105 198 -138 7 -9 20 -16 28 -16 39 0 88 -37 139 -106 35 -48 61 -74 73 -74
11 0 22 -4 26 -10 7 -12 141 -120 180 -144 16 -11 60 -48 97 -83 37 -34 71
-63 76 -63 9 0 154 -126 206 -178 15 -16 49 -50 73 -75 25 -24 59 -58 75 -75
17 -16 49 -49 72 -73 24 -24 55 -52 69 -62 15 -10 39 -41 53 -70 15 -29 49
-76 75 -105 27 -29 53 -70 59 -90 5 -20 28 -59 50 -87 22 -27 51 -63 64 -80
12 -16 30 -50 39 -75 8 -25 26 -71 39 -102 l23 -58 71 0 71 0 12 23 c7 12 30
35 52 50 61 44 79 89 79 196 0 49 4 93 10 96 13 8 13 162 0 170 -5 3 -10 20
-10 36 0 35 -32 102 -69 144 -15 17 -49 64 -76 105 -26 41 -74 102 -105 135
-31 33 -68 79 -83 101 -14 23 -40 52 -57 65 -18 13 -47 40 -66 59 -109 112
-186 184 -236 220 -27 18 -48 39 -48 46 0 20 41 44 75 44 81 1 155 84 155 176
l0 52 -41 48 c-22 27 -52 71 -65 97 -15 28 -38 56 -56 65 -17 9 -56 34 -87 54
l-56 38 -111 0 -111 0 -16 -18 c-23 -25 -22 -85 1 -105 13 -12 37 -17 76 -17
80 0 138 -29 219 -111 71 -73 81 -98 45 -123 -29 -21 -146 -21 -195 -1 -19 8
-54 15 -76 15 -26 0 -69 14 -126 41 -92 44 -163 69 -197 69 -28 0 -94 -73 -94
-103 0 -25 28 -57 49 -57 7 0 40 -13 74 -28 34 -16 74 -32 89 -35 14 -4 51
-30 82 -58 30 -28 71 -55 90 -60 19 -5 58 -30 86 -56 29 -26 74 -60 100 -77
88 -57 170 -129 205 -182 19 -29 49 -63 66 -76 17 -13 45 -38 62 -56 18 -18
58 -59 90 -92 31 -32 57 -66 57 -76 0 -9 30 -47 68 -84 l67 -66 22 -75 c30
-98 34 -139 25 -229 l-7 -75 -21 -3 c-24 -3 -84 70 -127 154 -14 27 -49 72
-79 99 -31 28 -64 68 -75 90 -12 22 -45 63 -75 90 -31 28 -65 69 -77 93 -12
24 -38 52 -61 67 -22 14 -47 37 -57 52 -27 44 -55 74 -95 99 -21 13 -49 42
-62 63 -15 23 -46 50 -78 69 -30 16 -66 45 -80 63 -14 19 -51 47 -82 62 -31
16 -67 42 -79 58 -12 17 -46 49 -77 71 -30 23 -80 65 -110 95 -69 67 -148 123
-172 123 -11 0 -32 21 -54 55 -27 43 -46 61 -82 77 -63 28 -61 27 -126 79 -31
25 -100 67 -153 94 -53 26 -113 63 -133 81 -21 19 -44 34 -51 34 -21 0 -195
86 -232 114 -18 13 -63 35 -102 47 -38 12 -83 34 -100 50 -51 46 -220 119
-276 119 -12 0 -52 13 -88 29 -212 92 -298 121 -361 121 -40 0 -72 8 -118 30
-35 17 -73 30 -85 30 -12 0 -62 13 -112 29 -127 41 -173 52 -230 58 -27 3 -54
9 -59 14 -13 11 -519 12 -531 1z m230 -177 c89 -27 137 -56 191 -113 30 -31
54 -60 54 -64 0 -14 -33 -9 -120 18 l-85 27 -62 63 c-35 35 -63 68 -63 74 0
14 26 12 85 -5z"/>
</g>
</svg>
