<?xml version="1.0" standalone="no"?>
<!DOCTYPE svg PUBLIC "-//W3C//DTD SVG 20010904//EN"
 "http://www.w3.org/TR/2001/REC-SVG-20010904/DTD/svg10.dtd">
<svg version="1.0" xmlns="http://www.w3.org/2000/svg"
 width="333.000000pt" height="90.000000pt" viewBox="0 0 333.000000 90.000000"
 preserveAspectRatio="xMidYMid meet">
<metadata>
Created by potrace 1.16, written by Peter Selinger 2001-2019
</metadata>
<g transform="translate(0.000000,90.000000) scale(0.100000,-0.100000)"
fill="#000000" stroke="none">
<path d="M130 875 c-19 -14 -38 -25 -43 -25 -4 0 -26 -14 -48 -32 l-39 -31 0
-98 0 -97 24 -6 c12 -3 51 -30 85 -61 46 -41 69 -55 92 -55 17 0 58 -13 92
-28 34 -16 73 -32 87 -35 14 -3 44 -22 66 -41 40 -34 142 -76 185 -76 12 0 60
-18 107 -41 125 -59 283 -109 343 -109 35 0 70 -9 116 -30 35 -16 75 -30 88
-30 13 0 36 -5 52 -12 15 -6 75 -14 133 -17 l105 -6 32 -22 31 -23 570 0 c370
0 573 4 577 10 3 6 19 10 34 10 16 0 45 7 64 15 20 8 56 15 80 15 32 0 54 7
83 29 22 15 73 45 114 65 50 24 91 54 123 88 l48 52 -3 120 -3 119 -85 58
c-49 35 -95 59 -110 59 -14 0 -64 13 -110 30 -47 16 -102 30 -123 30 -50 0
-156 -36 -185 -63 -42 -39 -45 -54 -18 -82 30 -29 75 -33 131 -10 l37 16 60
-21 c33 -11 76 -32 96 -45 20 -14 45 -25 55 -25 28 0 67 -45 67 -77 0 -16 -10
-49 -22 -73 -32 -62 -134 -130 -196 -130 -24 0 -53 -5 -65 -11 -21 -12 -142
-31 -187 -30 -14 0 -58 3 -97 7 -56 5 -82 2 -113 -10 l-40 -16 -276 0 -276 0
-28 17 c-27 16 -44 42 -68 104 -6 15 -30 40 -54 56 -31 21 -47 40 -58 73 l-16
45 -159 107 c-88 60 -166 108 -173 108 -20 0 -82 30 -117 56 -16 12 -100 45
-185 72 -192 62 -229 72 -305 81 -34 5 -70 13 -82 19 -12 7 -49 12 -82 12 -33
0 -63 5 -66 10 -4 6 -67 10 -158 10 l-152 -1 -35 -24z m437 -150 c19 -8 53
-15 75 -15 23 0 67 -13 105 -30 35 -16 74 -30 86 -30 28 0 215 -63 284 -95 29
-14 71 -38 93 -54 22 -16 55 -32 73 -35 19 -3 57 -27 88 -53 30 -25 77 -61
104 -79 70 -45 107 -87 103 -115 l-3 -24 -58 -3 -57 -3 -138 44 c-148 49 -202
64 -274 77 -26 5 -56 13 -67 19 -11 6 -30 11 -43 11 -26 0 -242 71 -287 94
-16 9 -60 25 -98 37 -37 12 -81 34 -98 50 -35 31 -136 83 -182 93 -33 8 -83
47 -83 66 0 6 11 22 25 35 l24 25 146 0 c107 0 155 -4 182 -15z"/>
</g>
</svg>
