<?xml version="1.0" standalone="no"?>
<!DOCTYPE svg PUBLIC "-//W3C//DTD SVG 20010904//EN"
 "http://www.w3.org/TR/2001/REC-SVG-20010904/DTD/svg10.dtd">
<svg version="1.0" xmlns="http://www.w3.org/2000/svg"
 width="708.000000pt" height="102.000000pt" viewBox="0 0 708.000000 102.000000"
 preserveAspectRatio="xMidYMid meet">
<metadata>
Created by potrace 1.16, written by Peter Selinger 2001-2019
</metadata>
<g transform="translate(0.000000,102.000000) scale(0.100000,-0.100000)"
fill="#000000" stroke="none">
<path d="M0 981 l0 -38 61 -67 c34 -37 73 -69 87 -72 36 -9 52 -23 52 -44 0
-20 30 -50 51 -50 8 0 56 -20 107 -45 52 -25 99 -45 106 -45 7 0 23 -12 37
-26 25 -27 148 -94 172 -94 7 0 24 -12 38 -26 47 -50 223 -124 296 -124 21 0
66 -13 101 -30 35 -17 69 -30 75 -30 7 0 41 -14 75 -30 37 -18 80 -30 103 -30
22 0 56 -7 76 -15 19 -8 52 -15 72 -15 20 0 56 -6 81 -14 78 -24 133 -37 195
-45 33 -5 83 -20 112 -35 38 -19 68 -26 108 -26 31 0 72 -7 92 -15 26 -11 74
-15 180 -15 105 0 153 -4 180 -15 27 -12 80 -15 229 -15 118 0 195 -4 199 -10
8 -13 192 -13 200 0 4 6 56 10 124 10 83 0 129 5 154 15 27 11 75 15 182 15
90 0 154 4 168 11 21 12 124 29 207 34 65 4 119 15 163 31 20 8 55 14 76 14
23 0 66 13 103 30 34 16 68 30 75 30 6 0 40 13 75 30 34 16 69 30 76 30 8 0
34 17 58 39 26 22 63 43 88 50 46 11 86 49 86 82 0 10 15 28 32 41 77 54 256
28 385 -58 l32 -22 128 -7 c70 -4 143 -13 162 -21 26 -11 99 -14 327 -14 l294
0 41 -17 41 -16 47 16 c32 12 79 17 157 17 77 0 123 5 147 15 20 8 61 15 90
15 30 0 71 7 90 15 20 8 49 15 65 15 16 0 47 13 69 29 22 16 60 39 84 51 24
13 72 48 106 79 l63 56 0 81 0 82 -32 24 c-38 29 -112 68 -128 68 -7 0 -41 14
-77 30 -37 17 -81 30 -103 30 -22 0 -58 7 -81 16 l-40 17 -57 -19 c-68 -22
-92 -40 -92 -69 0 -51 74 -85 185 -85 60 0 98 -5 123 -17 46 -20 102 -72 102
-93 0 -20 -50 -67 -116 -108 l-51 -32 -55 0 c-31 0 -72 -7 -91 -15 -54 -22
-140 -20 -162 5 -24 26 -26 26 -68 -15 l-36 -35 -70 0 c-42 0 -87 7 -112 17
l-41 16 -47 -16 c-60 -22 -217 -23 -268 -2 -25 11 -72 15 -165 15 -92 0 -139
4 -165 15 -23 10 -69 15 -137 15 l-101 0 -37 25 c-19 13 -90 42 -157 64 -66
22 -138 52 -158 66 -50 34 -116 34 -183 0 -61 -31 -80 -58 -80 -114 l0 -44
-36 -41 c-20 -22 -48 -54 -62 -70 -24 -26 -155 -96 -181 -96 -6 0 -34 -11 -63
-24 -29 -14 -80 -34 -113 -45 l-59 -21 -142 0 c-103 0 -151 -4 -177 -15 -20
-8 -61 -15 -90 -15 -30 0 -71 -7 -90 -15 -21 -8 -67 -15 -105 -15 -39 0 -85
-7 -105 -15 -27 -11 -75 -15 -180 -15 -109 0 -154 -4 -182 -16 l-38 -16 -41
16 c-31 12 -79 16 -184 16 -104 0 -152 4 -179 15 -22 9 -67 15 -120 15 -52 0
-97 6 -120 15 -22 9 -67 15 -120 15 -52 0 -97 6 -120 15 -19 8 -65 15 -101 15
-46 0 -94 9 -157 29 -103 33 -160 49 -227 61 -26 5 -56 13 -67 19 -11 6 -45
11 -76 11 -30 0 -72 7 -92 15 -19 8 -45 15 -57 15 -32 0 -155 44 -235 84 -39
20 -81 36 -94 36 -23 0 -120 30 -167 52 -14 7 -45 28 -70 49 -49 39 -110 72
-152 83 -14 3 -41 24 -58 46 -17 22 -39 40 -48 40 -27 0 -260 120 -279 143
-30 37 -121 87 -159 87 l-34 0 0 -39z"/>
</g>
</svg>
