<?xml version="1.0" standalone="no"?>
<!DOCTYPE svg PUBLIC "-//W3C//DTD SVG 20010904//EN"
 "http://www.w3.org/TR/2001/REC-SVG-20010904/DTD/svg10.dtd">
<svg version="1.0" xmlns="http://www.w3.org/2000/svg"
 width="948.000000pt" height="144.000000pt" viewBox="0 0 948.000000 144.000000"
 preserveAspectRatio="xMidYMid meet">
<metadata>
Created by potrace 1.16, written by Peter Selinger 2001-2019
</metadata>
<g transform="translate(0.000000,144.000000) scale(0.100000,-0.100000)"
fill="#000000" stroke="none">
<path d="M0 1375 c0 -36 4 -65 10 -65 5 0 24 -13 42 -29 18 -16 47 -32 65 -35
17 -4 51 -24 75 -45 54 -48 67 -55 164 -86 44 -14 103 -37 132 -50 29 -14 57
-25 63 -25 6 0 40 -13 76 -30 35 -16 75 -30 89 -30 14 0 41 -7 61 -15 19 -8
58 -15 86 -15 34 0 95 -15 184 -45 73 -25 143 -45 155 -45 13 0 43 -14 68 -30
25 -16 58 -30 73 -30 15 0 44 -7 64 -15 19 -8 52 -15 72 -15 20 0 56 -6 81
-14 94 -30 138 -38 225 -45 50 -4 100 -12 112 -19 12 -7 59 -12 108 -12 53 0
99 -6 122 -15 19 -8 53 -15 74 -15 21 0 50 -6 66 -12 18 -9 118 -15 288 -20
339 -10 306 -10 495 2 209 13 204 13 272 4 43 -5 68 -2 98 10 22 9 56 16 75
16 35 0 226 59 279 87 49 25 139 90 162 115 11 13 32 44 47 69 14 25 44 58 66
73 l40 28 38 -7 c21 -3 59 -20 84 -36 25 -16 59 -29 75 -29 19 0 59 -20 112
-55 106 -70 155 -95 187 -95 15 0 56 -14 92 -30 35 -17 74 -30 87 -30 12 0 60
-13 106 -30 l85 -30 98 0 c64 0 110 -5 134 -15 51 -22 435 -22 486 0 20 8 55
15 77 15 28 0 71 15 143 50 101 50 116 63 206 170 18 22 38 40 43 40 6 0 34
-7 64 -16 38 -11 70 -30 108 -65 29 -27 71 -54 92 -61 27 -9 47 -26 67 -56 19
-28 46 -51 80 -68 29 -15 72 -43 97 -63 25 -20 84 -63 132 -95 48 -32 107 -75
130 -96 24 -20 62 -47 85 -58 23 -12 53 -37 67 -55 14 -18 52 -52 85 -76 32
-24 74 -64 92 -90 18 -25 55 -67 82 -93 l49 -48 84 0 84 0 0 49 0 49 -41 48
c-22 27 -56 80 -76 118 -21 38 -64 97 -97 132 -107 111 -170 191 -203 261 -18
37 -30 69 -28 72 3 2 22 -1 44 -7 58 -18 182 -15 209 4 39 27 72 106 72 174 0
88 -67 220 -112 220 -25 0 -103 73 -94 88 5 9 69 12 220 12 l212 0 29 -30 29
-30 43 0 c24 0 60 -7 80 -15 19 -8 53 -15 75 -15 21 0 55 -7 75 -15 19 -8 53
-15 75 -15 21 0 55 -7 75 -15 19 -8 46 -15 60 -15 13 0 49 -11 78 -25 72 -33
260 -95 288 -95 34 -1 97 -33 151 -79 29 -25 58 -41 74 -41 14 0 87 -20 161
-44 197 -64 217 -68 312 -73 l86 -4 72 63 71 62 0 59 0 59 -81 79 c-45 44
-100 89 -123 101 -22 11 -54 31 -71 43 -49 37 -145 81 -258 119 l-107 36 -83
0 c-89 0 -122 -13 -116 -45 4 -19 34 -33 169 -77 36 -12 79 -34 95 -50 17 -15
37 -28 45 -28 37 0 226 -118 273 -170 l37 -41 -10 -19 c-6 -11 -21 -22 -33
-25 -40 -10 -140 13 -215 49 -97 48 -183 76 -231 76 -30 0 -50 8 -83 35 -58
47 -132 85 -163 85 -14 0 -42 7 -62 15 -19 8 -46 15 -60 15 -13 0 -49 11 -79
25 -82 37 -169 65 -206 65 -18 0 -53 6 -78 14 -97 31 -139 39 -240 46 -74 5
-126 15 -175 33 l-70 27 -296 0 -297 0 -35 -15 c-20 -8 -52 -15 -72 -15 -38 0
-151 -34 -173 -53 -32 -26 -62 -106 -62 -167 l0 -60 36 -73 c20 -39 46 -85 57
-101 19 -27 57 -96 57 -103 0 -10 -40 -1 -49 11 -7 8 -26 22 -44 31 -83 43
-182 112 -185 130 -6 33 -33 55 -67 55 -20 0 -39 8 -51 21 -28 31 -102 83
-162 114 -29 15 -65 43 -79 62 -31 41 -90 73 -133 73 -39 0 -124 -42 -144 -72
-21 -29 -20 -101 0 -155 l16 -42 -21 -34 c-45 -74 -130 -117 -229 -117 -41 0
-85 -7 -107 -16 l-38 -16 -41 16 c-32 12 -81 16 -214 16 -131 0 -181 4 -209
15 -19 8 -52 15 -72 15 -40 0 -126 27 -209 66 -29 13 -62 24 -74 24 -42 0
-148 43 -185 75 -38 32 -172 105 -194 105 -21 0 -132 75 -153 103 -11 16 -45
47 -75 68 -78 56 -108 54 -193 -13 l-66 -52 5 -112 6 -112 -22 -35 c-12 -19
-37 -47 -56 -61 -45 -35 -157 -86 -188 -86 -13 0 -41 -7 -60 -15 -20 -8 -54
-15 -76 -15 -22 0 -52 -5 -68 -11 -20 -7 -39 -7 -70 1 l-42 12 -43 -16 -43
-17 -320 5 c-176 2 -340 6 -365 9 -113 12 -188 25 -207 36 -13 6 -74 11 -153
11 -93 0 -141 4 -167 15 -19 8 -53 15 -75 15 -21 0 -55 7 -75 15 -19 8 -52 15
-72 15 -20 0 -56 6 -81 14 -87 27 -136 38 -205 45 -40 4 -123 25 -192 49 -68
23 -131 42 -141 42 -10 0 -56 13 -102 30 -47 16 -100 30 -119 30 -35 0 -303
85 -380 121 -23 11 -78 31 -121 45 -49 16 -93 38 -119 60 -23 20 -58 40 -79
46 -20 6 -49 19 -64 29 -14 11 -42 19 -62 19 l-36 0 0 -65z m7000 -294 c65
-23 209 -108 217 -127 8 -22 -5 -61 -23 -68 -9 -3 -43 11 -82 34 -36 22 -83
45 -103 50 -38 11 -53 25 -83 79 l-18 33 13 9 c19 12 17 12 79 -10z"/>
</g>
</svg>
