<?xml version="1.0" standalone="no"?>
<!DOCTYPE svg PUBLIC "-//W3C//DTD SVG 20010904//EN"
 "http://www.w3.org/TR/2001/REC-SVG-20010904/DTD/svg10.dtd">
<svg version="1.0" xmlns="http://www.w3.org/2000/svg"
 width="651.000000pt" height="207.000000pt" viewBox="0 0 651.000000 207.000000"
 preserveAspectRatio="xMidYMid meet">
<metadata>
Created by potrace 1.16, written by Peter Selinger 2001-2019
</metadata>
<g transform="translate(0.000000,207.000000) scale(0.100000,-0.100000)"
fill="#000000" stroke="none">
<path d="M67 2014 l-67 -56 0 -134 c0 -79 4 -135 10 -139 6 -4 20 -25 31 -48
12 -23 40 -62 64 -87 23 -25 49 -57 58 -71 10 -14 49 -50 89 -80 40 -30 93
-75 118 -100 61 -62 112 -98 152 -110 19 -5 52 -24 74 -42 21 -19 53 -41 69
-50 45 -23 151 -57 177 -57 13 0 37 -9 53 -21 57 -39 185 -99 210 -99 14 0 42
-7 62 -15 19 -8 59 -15 87 -15 28 0 71 -6 96 -14 57 -18 122 -35 180 -46 25
-5 77 -20 115 -34 41 -15 92 -26 123 -26 29 0 69 -7 89 -15 l35 -15 325 0 324
0 36 -15 c46 -20 170 -20 216 0 20 8 59 15 87 15 50 0 145 27 205 57 30 16
104 73 162 126 l31 29 63 -22 c34 -11 74 -29 88 -39 14 -10 46 -28 71 -41 25
-12 65 -39 90 -59 25 -20 66 -49 91 -63 25 -15 58 -43 73 -62 15 -21 40 -39
60 -45 19 -5 70 -33 113 -62 43 -28 118 -72 167 -97 49 -25 106 -60 125 -77
20 -18 50 -40 67 -48 52 -27 166 -106 209 -146 22 -21 60 -50 84 -67 25 -16
68 -50 97 -76 l52 -48 69 0 70 0 11 39 c7 21 12 47 12 57 0 28 -141 162 -237
224 -56 38 -91 69 -113 103 -17 26 -44 53 -58 58 -64 25 -77 36 -90 74 -17 52
-37 73 -83 85 -23 6 -46 22 -56 37 -10 14 -37 46 -61 70 -23 24 -40 48 -37 53
3 5 28 1 56 -10 27 -11 72 -20 99 -20 l49 0 36 32 c43 37 85 115 85 158 0 43
-30 94 -97 168 l-58 64 -110 58 c-61 31 -110 64 -110 71 l0 14 177 3 c141 2
185 -1 214 -13 20 -8 61 -15 91 -15 29 0 70 -7 90 -15 19 -8 47 -15 62 -15 14
0 46 -14 71 -30 l45 -30 58 0 c32 0 74 -7 94 -15 22 -9 67 -15 120 -15 52 0
97 -6 120 -15 19 -8 45 -15 56 -15 12 0 81 -20 154 -45 73 -25 147 -45 165
-45 37 0 155 -38 217 -69 22 -12 52 -21 66 -21 14 0 42 -7 62 -15 23 -10 69
-15 134 -15 68 0 111 -5 139 -16 l41 -17 66 22 c82 27 101 37 136 69 l27 26 0
74 0 75 -35 43 c-64 78 -208 164 -275 164 -22 0 -57 7 -77 15 -23 10 -68 15
-128 15 l-92 0 -16 -18 c-35 -39 -8 -92 47 -92 14 0 43 -7 63 -15 19 -8 47
-15 62 -15 33 0 210 -88 225 -112 7 -11 7 -26 0 -45 l-9 -28 -144 -3 -143 -3
-72 25 c-40 13 -100 38 -133 55 -95 47 -176 71 -246 71 -44 0 -88 9 -147 30
-47 16 -94 30 -105 30 -12 0 -59 13 -105 30 -61 21 -104 30 -150 30 -36 0 -85
6 -110 14 -60 19 -125 35 -182 46 -26 5 -56 13 -67 19 -11 6 -38 11 -61 11
-22 0 -57 7 -77 15 l-35 15 -298 0 -298 0 -35 -15 c-20 -8 -49 -15 -65 -15
-36 0 -137 -70 -157 -110 -8 -16 -15 -38 -15 -50 0 -11 36 -92 80 -179 59
-120 88 -166 114 -186 53 -41 93 -135 56 -135 -4 0 -32 19 -62 43 -29 23 -79
55 -111 70 -32 16 -75 43 -95 61 -20 18 -52 41 -71 51 -19 9 -52 30 -74 46
-22 16 -47 29 -55 29 -18 0 -100 50 -161 99 -25 19 -70 52 -100 73 l-56 38
-53 0 -54 0 -29 -29 -29 -29 0 -55 0 -54 40 -51 c45 -56 47 -65 22 -106 -24
-39 -155 -84 -281 -96 l-94 -9 -28 16 -29 17 -45 -12 c-64 -17 -217 -15 -262
3 -26 11 -76 15 -195 15 -118 0 -168 4 -195 15 -23 10 -69 15 -137 15 l-102 0
-49 35 c-70 49 -71 55 -36 132 l31 65 0 77 0 76 -41 60 c-53 78 -66 93 -111
121 -21 13 -49 42 -63 64 -14 21 -37 46 -51 53 -15 8 -54 37 -88 66 -108 91
-189 151 -205 151 -9 0 -29 9 -46 21 -102 69 -369 167 -508 186 -20 3 -40 9
-43 14 -3 5 -67 9 -142 9 l-137 -1 -68 -55z m351 -104 c38 -18 80 -30 104 -30
23 0 67 -12 105 -30 35 -16 70 -30 76 -30 6 0 53 -20 103 -45 61 -30 101 -57
118 -80 14 -18 49 -46 76 -61 28 -15 62 -42 76 -61 14 -18 43 -42 65 -54 22
-11 68 -48 102 -82 35 -34 75 -70 89 -79 18 -12 32 -36 43 -74 l16 -56 -16
-41 c-9 -23 -25 -53 -36 -69 l-20 -28 -98 0 c-106 0 -158 14 -291 76 -41 20
-108 47 -150 60 -101 33 -126 46 -184 94 -26 22 -56 40 -66 40 -10 0 -89 71
-177 159 l-158 159 -17 54 c-10 30 -18 78 -18 106 l0 51 28 19 c38 27 50 30
112 31 41 1 71 -6 118 -29z m3670 -787 c31 -14 73 -38 92 -53 19 -15 43 -29
52 -33 24 -9 50 -51 42 -71 -8 -22 -20 -20 -57 7 -18 12 -50 31 -72 42 -97 48
-153 104 -128 128 9 10 8 10 71 -20z"/>
</g>
</svg>
