<?xml version="1.0" standalone="no"?>
<!DOCTYPE svg PUBLIC "-//W3C//DTD SVG 20010904//EN"
 "http://www.w3.org/TR/2001/REC-SVG-20010904/DTD/svg10.dtd">
<svg version="1.0" xmlns="http://www.w3.org/2000/svg"
 width="798.000000pt" height="96.000000pt" viewBox="0 0 798.000000 96.000000"
 preserveAspectRatio="xMidYMid meet">
<metadata>
Created by potrace 1.16, written by Peter Selinger 2001-2019
</metadata>
<g transform="translate(0.000000,96.000000) scale(0.100000,-0.100000)"
fill="#000000" stroke="none">
<path d="M215 950 c-3 -5 -20 -10 -36 -10 -42 0 -65 -15 -94 -61 -14 -21 -39
-51 -55 -66 l-30 -26 0 -128 0 -128 23 -36 c12 -19 31 -50 42 -68 28 -44 74
-49 104 -11 28 36 26 61 -9 114 -16 25 -30 49 -30 54 0 5 13 30 29 55 16 25
31 58 35 72 7 31 46 72 90 95 28 15 166 36 226 35 140 -4 319 -19 337 -29 12
-6 40 -12 63 -12 22 0 57 -7 77 -15 22 -9 67 -15 117 -15 65 0 99 -6 166 -30
47 -16 94 -30 105 -30 10 0 60 -13 110 -29 99 -32 159 -48 220 -60 71 -14 138
-41 187 -77 l48 -36 0 -62 0 -63 50 -64 c27 -35 59 -76 71 -92 24 -32 239
-177 290 -196 19 -7 42 -17 51 -22 10 -5 64 -9 121 -9 l104 0 41 38 42 39 0
50 c0 28 -6 66 -14 84 -8 19 -16 57 -18 84 l-3 50 67 3 c43 2 79 -2 103 -13
27 -11 73 -15 167 -15 92 0 139 -4 165 -15 19 -8 53 -15 75 -15 21 0 55 -7 75
-15 19 -8 53 -15 75 -15 21 0 55 -7 75 -15 19 -8 53 -15 75 -15 21 0 55 -7 75
-15 20 -8 66 -15 105 -15 38 0 84 -7 105 -15 25 -11 72 -15 158 -15 l122 0 16
18 c12 13 17 37 17 85 l0 66 -26 18 c-14 10 -44 33 -67 50 -23 18 -66 48 -95
68 l-52 35 0 44 0 45 28 19 c92 64 191 89 382 96 91 3 179 10 196 16 25 9 40
8 69 -4 l37 -16 220 0 c172 0 226 -3 255 -15 20 -8 66 -15 105 -15 38 0 84 -7
105 -15 23 -10 69 -15 135 -15 65 0 111 -5 135 -15 22 -9 67 -15 117 -15 44 0
101 -6 126 -14 76 -24 132 -37 195 -46 33 -5 92 -20 130 -34 39 -14 87 -26
108 -26 21 0 54 -7 74 -15 19 -8 65 -15 102 -15 66 0 138 -19 229 -61 59 -27
204 -70 297 -88 49 -10 126 -35 182 -61 23 -11 96 -38 163 -60 67 -22 134 -49
150 -60 41 -29 225 -120 243 -120 9 0 19 -5 22 -10 3 -6 48 -10 99 -10 l92 0
37 38 37 38 0 120 0 120 -40 39 c-22 21 -40 47 -40 57 0 9 -12 25 -26 35 -14
10 -44 33 -67 51 -23 18 -55 40 -71 50 -15 9 -54 34 -85 54 l-56 38 -53 0 -54
0 -29 -29 c-33 -33 -38 -71 -11 -92 9 -8 44 -24 77 -34 46 -15 73 -32 115 -75
31 -30 68 -63 84 -74 31 -21 69 -96 60 -119 -3 -9 -12 -18 -19 -21 -19 -7
-113 27 -233 84 -110 54 -209 90 -243 90 -11 0 -50 14 -86 30 -35 17 -69 30
-75 30 -5 0 -39 14 -75 30 -35 17 -75 30 -89 30 -14 0 -41 7 -61 15 -19 8 -53
15 -75 15 -23 0 -67 13 -105 30 -35 17 -74 30 -86 30 -12 0 -42 6 -67 14 -60
19 -125 35 -182 46 -26 5 -56 13 -67 19 -11 6 -52 11 -91 11 -40 0 -86 6 -107
15 -19 8 -53 15 -75 15 -21 0 -55 7 -75 15 -19 8 -53 15 -75 15 -21 0 -55 7
-75 15 -19 8 -53 15 -75 15 -21 0 -55 7 -75 15 -20 8 -66 15 -105 15 -38 0
-84 7 -105 15 -26 11 -76 15 -195 15 -118 0 -168 4 -195 15 -24 10 -71 15
-150 15 -78 0 -125 5 -150 15 l-35 15 -268 0 -268 0 -35 -15 c-20 -8 -59 -15
-87 -15 -51 0 -144 -27 -209 -60 -20 -10 -64 -47 -99 -83 l-62 -65 0 -65 c0
-47 7 -80 26 -122 28 -64 23 -82 -20 -65 -15 5 -65 10 -112 10 -53 0 -98 6
-121 15 -19 8 -60 15 -90 15 -29 0 -70 7 -90 15 -19 8 -53 15 -75 15 -21 0
-55 7 -75 15 -20 8 -66 15 -105 15 -38 0 -84 7 -105 15 -24 10 -71 15 -150 15
-78 0 -125 5 -150 15 -19 8 -53 15 -75 15 -21 0 -55 7 -75 15 -20 8 -66 15
-105 15 l-70 0 -65 30 c-35 16 -75 30 -89 30 -14 0 -41 7 -61 15 -19 8 -47 15
-60 15 -14 0 -54 14 -90 30 -35 17 -76 30 -90 30 -13 0 -54 14 -90 30 -37 17
-81 30 -104 30 -22 0 -56 7 -76 15 -19 8 -53 15 -75 15 -21 0 -55 7 -75 15
-19 8 -45 15 -57 15 -12 0 -60 13 -106 30 -47 16 -102 30 -123 30 -21 0 -54 7
-74 15 -19 8 -48 15 -64 15 -15 0 -31 5 -34 10 -8 14 -762 14 -770 0z m2071
-563 c42 -18 114 -66 152 -101 36 -34 67 -95 55 -107 -9 -9 -90 12 -133 33
-14 7 -49 30 -77 52 l-53 38 0 33 c0 38 8 65 20 65 4 0 21 -6 36 -13z"/>
</g>
</svg>
