<?xml version="1.0" standalone="no"?>
<!DOCTYPE svg PUBLIC "-//W3C//DTD SVG 20010904//EN"
 "http://www.w3.org/TR/2001/REC-SVG-20010904/DTD/svg10.dtd">
<svg version="1.0" xmlns="http://www.w3.org/2000/svg"
 width="528.000000pt" height="216.000000pt" viewBox="0 0 528.000000 216.000000"
 preserveAspectRatio="xMidYMid meet">
<metadata>
Created by potrace 1.16, written by Peter Selinger 2001-2019
</metadata>
<g transform="translate(0.000000,216.000000) scale(0.100000,-0.100000)"
fill="#000000" stroke="none">
<path d="M7 2153 c-4 -3 -7 -82 -7 -173 l0 -168 15 -12 c8 -7 21 -34 29 -61 8
-26 26 -65 40 -86 14 -21 26 -44 26 -52 0 -17 115 -192 171 -261 20 -25 42
-55 48 -68 7 -12 30 -34 51 -47 22 -14 51 -43 65 -65 14 -22 37 -46 53 -54 15
-8 55 -38 89 -68 82 -70 158 -128 208 -156 22 -13 54 -36 70 -52 17 -16 86
-56 155 -91 69 -34 139 -73 155 -85 17 -13 69 -35 115 -50 47 -15 97 -35 111
-43 111 -68 137 -82 159 -86 14 -3 43 -10 65 -16 22 -6 60 -14 85 -19 25 -5
63 -18 85 -28 63 -31 161 -62 198 -62 18 0 71 -13 117 -30 62 -21 104 -30 153
-30 37 0 84 -7 104 -15 23 -10 69 -15 135 -15 65 0 111 -5 135 -15 48 -20 198
-20 246 0 25 10 71 15 148 15 119 0 147 -8 223 -62 21 -15 52 -28 68 -28 16 0
45 -7 65 -15 19 -8 47 -15 62 -15 14 0 55 -14 89 -30 35 -17 74 -30 86 -30 12
0 60 -13 106 -30 l85 -30 87 0 c48 0 90 -5 93 -10 8 -13 372 -13 380 0 3 6 39
10 79 10 43 0 89 6 109 15 20 8 52 15 71 15 43 0 318 91 399 131 32 17 83 49
112 72 29 23 71 55 94 70 l41 28 0 128 0 127 -87 75 c-88 74 -101 80 -243 119
-36 10 -220 28 -315 30 -53 2 -142 -14 -158 -28 -22 -20 -22 -55 1 -75 l19
-17 117 0 c81 0 128 -5 153 -15 19 -8 47 -15 61 -15 31 0 221 -91 245 -117 9
-10 24 -36 32 -57 l17 -39 -17 -43 c-17 -45 -56 -84 -84 -84 -9 0 -42 -18 -74
-39 -32 -22 -72 -43 -89 -46 -17 -4 -58 -20 -92 -36 l-61 -29 -71 0 c-41 0
-87 -6 -107 -15 l-36 -15 -306 0 -306 0 -36 15 c-19 8 -65 15 -101 15 -75 0
-156 24 -275 82 -43 21 -90 38 -106 38 -16 0 -39 8 -52 19 l-23 18 12 40 c7
22 12 54 12 72 0 17 5 51 12 76 l12 45 -34 70 c-44 91 -74 118 -197 179 l-103
51 -75 0 -75 0 -78 -39 c-91 -46 -97 -52 -117 -117 l-14 -48 15 -52 15 -51 73
-72 c41 -39 79 -71 85 -71 22 0 10 -30 -19 -45 -38 -20 -150 -20 -197 0 -19 8
-65 15 -102 15 -36 0 -86 6 -111 14 -78 25 -133 37 -195 45 -34 5 -70 13 -82
19 -12 7 -47 12 -78 12 -42 0 -74 8 -122 30 -35 17 -70 30 -76 30 -7 0 -41 14
-75 30 -35 17 -75 30 -88 30 -14 0 -41 7 -61 15 -19 8 -47 15 -62 15 -14 0
-39 9 -56 21 -40 27 -182 99 -196 99 -18 0 -138 58 -172 84 -39 29 -171 96
-190 96 -7 0 -24 12 -38 26 -13 14 -55 47 -94 72 -38 25 -107 80 -152 122 -45
41 -105 93 -134 115 -29 22 -72 65 -96 95 -23 30 -65 81 -93 114 -27 32 -54
74 -59 93 -6 19 -21 50 -36 68 -36 48 -85 155 -85 186 0 15 -7 43 -15 62 -10
25 -15 72 -15 152 l0 115 -58 0 c-32 0 -62 -3 -65 -7z m2999 -1433 c75 -35
163 -141 164 -198 0 -22 -48 -62 -75 -62 -69 0 -250 114 -279 175 -21 44 -20
52 9 80 l24 25 56 0 c35 0 73 -8 101 -20z"/>
</g>
</svg>
