<?xml version="1.0" standalone="no"?>
<!DOCTYPE svg PUBLIC "-//W3C//DTD SVG 20010904//EN"
 "http://www.w3.org/TR/2001/REC-SVG-20010904/DTD/svg10.dtd">
<svg version="1.0" xmlns="http://www.w3.org/2000/svg"
 width="522.000000pt" height="99.000000pt" viewBox="0 0 522.000000 99.000000"
 preserveAspectRatio="xMidYMid meet">
<metadata>
Created by potrace 1.16, written by Peter Selinger 2001-2019
</metadata>
<g transform="translate(0.000000,99.000000) scale(0.100000,-0.100000)"
fill="#000000" stroke="none">
<path d="M4400 954 c0 -26 8 -43 29 -65 l29 -29 59 0 c32 0 78 -6 103 -14 57
-18 124 -35 175 -45 41 -8 139 -65 165 -96 l14 -17 -15 -9 c-24 -15 -205 -11
-246 6 -23 10 -69 15 -135 15 -65 0 -111 5 -135 15 -22 9 -67 15 -120 15 -52
0 -97 6 -120 15 -20 8 -66 15 -105 15 -38 0 -84 7 -105 15 -23 10 -69 15 -135
15 -65 0 -111 5 -135 15 -22 9 -67 15 -120 15 -52 0 -97 6 -120 15 -27 11 -77
15 -208 15 -96 0 -180 -3 -189 -6 -21 -8 -20 -47 2 -74 10 -13 57 -35 117 -55
l100 -34 98 -1 c63 0 110 -5 134 -15 26 -11 74 -15 180 -15 105 0 153 -4 180
-15 20 -8 66 -15 105 -15 38 0 84 -7 105 -15 20 -8 66 -15 105 -15 38 0 84 -7
105 -15 19 -8 60 -15 90 -15 29 0 70 -7 90 -15 22 -9 67 -15 120 -15 52 0 97
-6 120 -15 25 -11 72 -15 167 -15 146 1 209 16 265 63 18 15 37 27 42 27 5 0
9 40 9 88 l0 88 -27 26 c-56 51 -116 88 -146 88 -16 0 -72 20 -124 45 -67 32
-106 45 -138 45 -24 0 -47 5 -50 10 -4 6 -72 10 -171 10 l-164 0 0 -36z"/>
<path d="M28 294 l-28 -15 0 -39 0 -40 40 0 c22 0 57 -7 77 -15 28 -12 86 -15
284 -15 146 0 259 -4 275 -10 19 -7 37 -7 60 0 25 9 40 8 69 -5 l37 -15 235 0
c185 0 241 -3 270 -15 28 -12 82 -15 255 -15 172 0 226 -3 255 -15 28 -12 82
-15 255 -15 172 0 226 -3 255 -15 l35 -15 355 0 354 0 36 -15 c28 -12 83 -15
259 -15 138 0 225 -4 229 -10 4 -6 68 -10 160 -10 l153 0 26 31 c31 37 35 88
8 112 l-19 17 -327 0 -327 0 -36 15 c-26 11 -76 15 -195 15 -118 0 -168 4
-195 15 -28 12 -82 15 -255 15 -172 0 -226 3 -255 15 l-35 15 -625 0 -624 0
-36 15 -35 15 -385 0 -384 0 -36 15 c-45 19 -150 19 -185 -1z"/>
</g>
</svg>
