<?xml version="1.0" standalone="no"?>
<!DOCTYPE svg PUBLIC "-//W3C//DTD SVG 20010904//EN"
 "http://www.w3.org/TR/2001/REC-SVG-20010904/DTD/svg10.dtd">
<svg version="1.0" xmlns="http://www.w3.org/2000/svg"
 width="375.000000pt" height="123.000000pt" viewBox="0 0 375.000000 123.000000"
 preserveAspectRatio="xMidYMid meet">
<metadata>
Created by potrace 1.16, written by Peter Selinger 2001-2019
</metadata>
<g transform="translate(0.000000,123.000000) scale(0.100000,-0.100000)"
fill="#000000" stroke="none">
<path d="M215 1220 c-3 -5 -14 -10 -24 -10 -11 0 -46 -20 -80 -45 -46 -34 -61
-51 -61 -69 0 -27 38 -63 76 -72 24 -6 96 7 174 32 61 19 220 19 267 -1 19 -8
65 -15 101 -15 75 0 156 -24 275 -82 43 -21 83 -38 89 -38 24 0 181 -82 216
-114 41 -37 93 -66 116 -66 15 0 66 -66 66 -85 0 -5 -25 -21 -56 -34 -77 -33
-94 -59 -94 -138 0 -45 6 -76 21 -106 27 -53 180 -207 206 -207 11 0 39 -15
63 -33 120 -89 166 -117 197 -117 17 0 35 -5 38 -10 3 -6 35 -10 70 -10 l63 0
28 33 c16 18 40 56 53 85 l25 53 -12 45 c-7 24 -12 55 -12 68 0 12 -14 42 -31
65 -17 24 -29 52 -27 64 l3 22 62 3 c39 2 75 -3 98 -13 24 -9 68 -15 122 -15
52 0 97 -6 120 -15 19 -8 60 -15 90 -15 29 0 70 -7 90 -15 20 -8 66 -15 105
-15 38 0 84 -7 105 -15 23 -10 69 -15 135 -15 65 0 111 -5 135 -15 l35 -15
270 0 269 0 48 24 c26 14 60 40 74 60 64 84 12 170 -153 252 -52 26 -108 57
-125 69 -16 13 -49 32 -72 44 l-42 21 -94 0 -94 0 -16 -18 c-22 -24 -22 -55 1
-74 9 -8 51 -25 92 -38 104 -33 114 -39 248 -146 l26 -22 -13 -16 c-18 -21
-128 -22 -178 -1 -24 10 -71 15 -150 15 -78 0 -125 5 -150 15 -26 11 -74 15
-180 15 -105 0 -153 4 -180 15 -22 9 -67 15 -120 15 -52 0 -97 6 -120 15 -19
8 -60 15 -90 15 -29 0 -70 7 -90 15 -22 9 -67 15 -120 15 -52 0 -97 6 -120 15
-19 8 -59 15 -87 15 -78 0 -150 29 -192 78 -37 44 -339 252 -365 252 -9 0 -28
14 -44 30 -16 17 -36 30 -44 30 -9 0 -58 20 -109 45 -52 25 -98 45 -104 45 -5
0 -39 14 -75 30 -35 17 -69 30 -75 30 -5 0 -39 14 -75 30 -48 23 -79 30 -123
30 -32 0 -62 5 -65 10 -4 6 -83 10 -205 10 -122 0 -201 -4 -205 -10z m1530
-832 c19 -29 48 -69 64 -88 38 -46 46 -74 26 -94 -24 -24 -52 -20 -109 16 -79
49 -135 97 -162 138 l-26 38 12 21 11 21 74 0 75 0 35 -52z"/>
<path d="M42 820 c-82 -59 -42 -110 85 -110 70 0 139 -19 238 -64 28 -13 63
-26 79 -30 64 -16 121 -81 95 -112 -17 -20 -246 -20 -296 1 -47 20 -65 19 -97
-6 -43 -34 -35 -67 28 -128 l55 -51 58 0 c32 0 79 -7 104 -17 l47 -16 41 16
c23 10 67 17 98 17 l56 0 73 66 c46 40 74 74 74 86 0 11 -7 44 -15 73 l-16 53
-57 49 c-31 28 -72 58 -91 68 -19 9 -52 30 -74 46 -23 16 -53 29 -69 29 -17 0
-59 14 -95 30 l-64 30 -108 0 -108 0 -41 -30z"/>
</g>
</svg>
