<?xml version="1.0" standalone="no"?>
<!DOCTYPE svg PUBLIC "-//W3C//DTD SVG 20010904//EN"
 "http://www.w3.org/TR/2001/REC-SVG-20010904/DTD/svg10.dtd">
<svg version="1.0" xmlns="http://www.w3.org/2000/svg"
 width="783.000000pt" height="156.000000pt" viewBox="0 0 783.000000 156.000000"
 preserveAspectRatio="xMidYMid meet">
<metadata>
Created by potrace 1.16, written by Peter Selinger 2001-2019
</metadata>
<g transform="translate(0.000000,156.000000) scale(0.100000,-0.100000)"
fill="#000000" stroke="none">
<path d="M2845 1510 l-25 -50 15 -54 c9 -29 23 -60 33 -69 9 -9 74 -34 143
-57 132 -43 194 -74 184 -90 -4 -6 -172 -10 -456 -10 l-450 0 -36 15 c-28 12
-83 15 -257 15 l-222 0 -29 30 -29 30 -148 0 c-110 0 -158 4 -185 15 -26 11
-76 15 -195 15 -118 0 -168 4 -195 15 -28 12 -82 15 -255 15 -172 0 -226 3
-255 15 -19 8 -54 15 -76 15 -31 0 -48 7 -69 27 l-28 27 -45 -12 c-25 -7 -95
-12 -155 -12 l-110 0 0 -68 0 -67 49 -18 c31 -11 78 -17 130 -17 50 0 96 -6
118 -15 23 -10 70 -15 132 -15 64 -1 104 -5 121 -15 19 -11 65 -14 183 -15
117 0 167 -4 194 -15 28 -12 86 -15 285 -15 198 0 256 -3 285 -15 22 -9 68
-15 122 -15 l86 0 63 -30 64 -30 158 0 c92 0 171 -5 187 -11 15 -6 98 -13 183
-16 97 -4 168 -11 189 -19 26 -11 113 -14 408 -14 l374 0 42 21 c60 30 76 47
88 93 6 22 20 53 31 68 l19 28 400 0 400 0 36 -15 c19 -8 55 -15 78 -15 23 0
59 7 78 15 20 8 54 15 76 15 23 0 67 13 104 30 36 17 76 30 89 30 12 0 61 14
108 30 l84 30 153 0 c114 0 163 -4 190 -15 20 -8 66 -15 105 -15 l70 0 65 -30
c35 -16 70 -30 76 -30 7 0 29 -11 49 -25 20 -14 71 -36 114 -50 43 -14 93 -38
112 -53 77 -60 158 -112 176 -112 11 0 38 -19 60 -43 54 -56 123 -79 226 -75
l75 3 32 50 c18 28 38 52 43 53 6 2 30 -12 54 -32 24 -19 77 -52 117 -72 41
-20 88 -48 106 -61 17 -13 47 -29 67 -34 22 -6 47 -25 66 -49 25 -31 39 -40
62 -40 17 0 70 -18 117 -41 110 -52 191 -79 236 -79 20 0 52 -7 72 -15 52 -22
161 -19 235 6 128 43 168 75 168 136 0 17 5 35 10 38 6 3 10 28 10 55 l0 49
-47 38 c-25 21 -70 59 -100 85 -29 27 -61 48 -71 48 -10 0 -82 32 -161 70 -78
39 -153 70 -166 70 -28 0 -65 -43 -65 -75 0 -12 8 -29 17 -37 22 -19 198 -108
214 -108 7 0 30 -18 53 -41 23 -22 61 -58 86 -79 l44 -38 -13 -16 -13 -16
-155 0 -155 0 -65 30 c-35 16 -70 30 -76 30 -7 0 -32 14 -57 30 -26 17 -58 30
-76 30 -20 0 -47 12 -74 33 -23 17 -68 48 -100 67 -32 19 -89 54 -127 77 -37
22 -78 55 -91 72 -21 29 -107 81 -132 81 -6 0 -37 26 -69 58 -32 31 -86 77
-120 102 -34 25 -90 66 -123 93 -75 58 -123 64 -157 20 -26 -32 -35 -65 -27
-96 10 -43 51 -90 96 -114 25 -13 58 -37 73 -53 15 -17 37 -30 47 -30 25 0 57
-47 43 -61 -12 -12 -76 17 -129 57 -17 13 -35 24 -39 24 -5 0 -18 9 -29 19
-12 11 -35 27 -52 38 -17 10 -55 33 -85 51 -30 17 -70 37 -90 42 -19 5 -68 26
-107 45 -95 46 -183 75 -227 75 -20 0 -52 7 -72 15 l-35 15 -265 0 -264 0
-132 -45 c-73 -25 -142 -45 -154 -45 -11 0 -38 -7 -59 -16 -29 -12 -55 -14
-104 -10 -36 4 -74 6 -85 5 -11 0 -199 -3 -417 -5 l-397 -5 -37 16 c-20 8 -52
15 -72 15 -19 0 -103 23 -186 50 -163 55 -206 72 -248 101 -15 11 -43 19 -67
19 l-41 0 -25 -50z"/>
<path d="M440 1135 c-14 -8 -44 -14 -68 -15 -63 0 -168 -58 -260 -145 -67 -61
-79 -94 -87 -226 l-7 -114 70 -140 70 -140 51 -45 c28 -25 79 -72 114 -105 60
-57 168 -125 198 -125 8 0 34 -14 59 -30 26 -18 58 -30 77 -30 17 0 35 -4 38
-10 4 -6 58 -10 130 -10 72 0 126 4 130 10 3 6 26 10 50 10 27 0 68 11 108 30
36 16 73 30 82 30 22 0 113 87 135 130 30 59 60 157 60 195 0 57 -37 151 -83
212 -94 125 -374 383 -416 383 -9 0 -70 26 -136 58 -66 33 -137 66 -158 76
-46 20 -123 20 -157 1z m97 -200 c19 -8 46 -15 60 -15 41 0 106 -36 171 -94
46 -41 71 -56 92 -56 54 0 83 -21 204 -143 94 -96 124 -133 138 -172 l18 -50
-17 -50 c-9 -27 -21 -55 -26 -62 -14 -19 -131 -73 -159 -73 -14 0 -42 -7 -61
-15 -22 -9 -67 -15 -114 -15 l-78 0 -105 36 c-141 47 -160 57 -222 112 -29 26
-65 55 -80 65 -15 9 -58 65 -97 124 l-71 108 0 68 c0 80 8 99 58 132 20 14 55
39 76 55 21 17 51 30 66 30 15 0 43 7 61 15 43 18 42 18 86 0z"/>
</g>
</svg>
