<?xml version="1.0" standalone="no"?>
<!DOCTYPE svg PUBLIC "-//W3C//DTD SVG 20010904//EN"
 "http://www.w3.org/TR/2001/REC-SVG-20010904/DTD/svg10.dtd">
<svg version="1.0" xmlns="http://www.w3.org/2000/svg"
 width="612.000000pt" height="294.000000pt" viewBox="0 0 612.000000 294.000000"
 preserveAspectRatio="xMidYMid meet">
<metadata>
Created by potrace 1.16, written by Peter Selinger 2001-2019
</metadata>
<g transform="translate(0.000000,294.000000) scale(0.100000,-0.100000)"
fill="#000000" stroke="none">
<path d="M390 2925 c-6 -8 -55 -28 -109 -45 l-97 -31 -72 -74 c-39 -40 -81
-76 -92 -80 l-20 -6 0 -153 0 -153 38 -41 c43 -46 78 -54 105 -24 13 14 17 39
17 108 l0 89 51 77 c61 94 112 139 204 184 l69 34 189 0 c144 0 196 -3 224
-15 19 -8 45 -15 57 -15 12 0 60 -13 106 -30 47 -16 94 -30 105 -30 34 -1 248
-76 324 -114 39 -20 78 -36 86 -36 9 0 27 -11 40 -25 l25 -24 0 -76 c0 -79 15
-124 65 -190 12 -16 34 -53 49 -82 18 -37 40 -62 73 -83 27 -17 61 -49 76 -71
27 -37 90 -79 120 -79 7 0 24 -12 38 -26 30 -33 79 -58 146 -74 l52 -14 41 19
c59 26 80 58 80 116 0 58 21 76 66 59 47 -18 166 -101 229 -160 33 -31 80 -68
105 -82 25 -14 55 -40 68 -57 12 -17 48 -44 80 -60 31 -16 94 -60 138 -99 45
-39 100 -80 122 -91 22 -11 74 -52 116 -91 42 -38 83 -70 92 -70 8 0 41 -26
73 -57 32 -32 86 -78 120 -103 34 -25 86 -63 114 -85 29 -22 65 -49 82 -59 16
-11 60 -48 97 -83 37 -34 75 -63 85 -63 10 0 40 -25 66 -55 34 -39 59 -57 87
-65 26 -7 49 -23 66 -45 15 -19 59 -56 98 -82 39 -26 103 -75 142 -109 39 -34
88 -71 110 -82 22 -11 67 -45 102 -76 34 -31 72 -56 84 -56 12 0 37 -17 57
-39 46 -49 128 -114 217 -174 39 -26 77 -54 84 -62 14 -17 66 -20 75 -5 3 5
21 10 39 10 25 0 51 15 109 61 42 34 77 68 77 76 0 8 14 44 30 81 l31 66 -4
140 c-2 78 -9 161 -16 186 -43 149 -86 269 -107 297 -28 38 -84 154 -84 177 0
9 -22 40 -49 70 -28 30 -58 68 -68 83 -10 15 -36 51 -58 80 -22 28 -60 79 -85
113 -25 33 -66 85 -92 115 -26 30 -55 67 -64 82 -10 15 -42 56 -72 90 -29 35
-52 67 -50 71 4 12 220 -58 294 -96 81 -41 175 -72 219 -72 20 0 52 -7 72 -15
19 -8 59 -15 87 -15 32 0 84 -11 136 -30 l85 -30 128 0 128 0 61 21 c95 32
132 54 177 106 l41 48 0 72 0 72 -30 48 c-17 26 -56 77 -87 112 l-58 63 -96
49 c-179 89 -279 110 -333 68 -28 -22 -35 -62 -13 -76 24 -15 112 -42 138 -43
14 0 45 -15 69 -32 23 -18 53 -40 65 -48 13 -9 53 -46 89 -83 l66 -67 0 -41
c0 -52 -22 -90 -73 -123 -56 -35 -99 -42 -150 -22 -24 9 -60 16 -80 16 -21 0
-54 7 -74 15 -19 8 -45 15 -57 15 -12 0 -60 13 -106 30 -47 16 -102 30 -123
30 -21 0 -54 7 -74 15 -19 8 -48 15 -63 15 -16 0 -110 41 -209 90 -100 50
-194 90 -210 90 -17 0 -37 10 -52 26 -13 14 -81 55 -151 90 -83 43 -135 75
-148 94 -12 17 -45 45 -73 64 -29 19 -74 58 -102 85 -56 58 -83 64 -136 28
l-34 -23 -3 -53 c-4 -62 4 -74 72 -108 56 -28 286 -248 333 -317 15 -22 65
-81 110 -129 46 -48 83 -92 83 -98 0 -5 28 -40 63 -77 35 -37 79 -92 99 -122
19 -30 53 -77 76 -103 23 -27 49 -63 58 -80 9 -18 26 -43 39 -57 43 -47 114
-159 164 -259 27 -55 61 -117 75 -138 17 -25 26 -51 26 -78 0 -22 14 -78 30
-125 50 -142 40 -261 -32 -362 -13 -19 -28 -28 -46 -28 -31 0 -138 48 -185 84
-18 13 -52 34 -77 46 -25 12 -64 38 -88 58 -24 19 -67 50 -95 70 -29 19 -65
47 -82 63 -16 15 -51 43 -77 61 -26 18 -75 54 -110 80 -35 26 -89 66 -121 90
-32 24 -82 61 -110 83 -29 22 -72 52 -97 67 -25 14 -55 39 -67 56 -12 16 -46
43 -76 60 -29 17 -61 42 -70 56 -9 14 -76 65 -149 113 -73 48 -146 99 -163
113 -16 14 -46 36 -65 49 -20 13 -48 41 -64 62 -15 22 -49 50 -77 64 -26 14
-59 39 -71 56 -28 38 -125 109 -149 109 -10 0 -27 14 -39 30 -12 17 -61 56
-108 87 -48 32 -119 85 -158 119 -39 34 -89 71 -111 83 -22 11 -65 42 -94 68
-30 27 -97 77 -149 112 -52 35 -111 78 -130 96 -19 18 -47 35 -62 39 -14 3
-50 28 -80 55 -29 26 -72 58 -94 69 -52 26 -171 107 -204 138 -15 13 -48 31
-75 39 -28 8 -72 30 -99 50 -27 19 -57 35 -65 35 -9 0 -36 14 -61 30 -25 16
-58 30 -73 30 -16 0 -55 16 -86 35 -71 44 -183 85 -234 85 -21 0 -54 7 -74 15
-19 8 -53 15 -75 15 -21 0 -55 7 -75 15 -19 8 -55 15 -79 15 -23 0 -46 5 -49
10 -4 6 -98 10 -249 10 l-244 0 -12 -15z m1591 -618 l93 -62 30 -55 c16 -30
38 -61 48 -68 10 -7 25 -27 34 -44 l16 -30 -16 -16 -15 -15 -26 17 c-14 9 -31
28 -37 41 -5 12 -28 31 -51 41 -62 29 -84 50 -118 119 -17 36 -38 70 -45 76
-13 10 -20 59 -10 59 3 0 46 -28 97 -63z"/>
</g>
</svg>
