<?xml version="1.0" standalone="no"?>
<!DOCTYPE svg PUBLIC "-//W3C//DTD SVG 20010904//EN"
 "http://www.w3.org/TR/2001/REC-SVG-20010904/DTD/svg10.dtd">
<svg version="1.0" xmlns="http://www.w3.org/2000/svg"
 width="267.000000pt" height="276.000000pt" viewBox="0 0 267.000000 276.000000"
 preserveAspectRatio="xMidYMid meet">
<metadata>
Created by potrace 1.16, written by Peter Selinger 2001-2019
</metadata>
<g transform="translate(0.000000,276.000000) scale(0.100000,-0.100000)"
fill="#000000" stroke="none">
<path d="M1400 2741 c0 -31 39 -67 118 -107 40 -21 82 -50 93 -66 36 -50 38
-139 3 -152 -9 -3 -43 7 -77 22 -34 16 -74 32 -89 35 -14 4 -39 21 -55 39 -64
72 -82 87 -107 94 -34 8 -66 0 -99 -27 -38 -29 -38 -90 1 -125 44 -40 132
-106 202 -151 122 -79 135 -89 155 -126 l20 -38 -15 -26 c-15 -28 -129 -93
-161 -93 -21 0 -49 -32 -49 -56 0 -11 7 -30 16 -42 17 -25 151 -96 201 -106
17 -4 51 -24 75 -45 24 -21 75 -55 115 -75 41 -20 101 -62 138 -97 36 -34 89
-76 117 -93 37 -23 54 -40 62 -66 8 -24 26 -45 62 -69 28 -19 62 -51 74 -70
13 -20 41 -54 61 -76 42 -45 129 -174 129 -192 0 -6 13 -40 30 -75 18 -38 30
-79 30 -104 0 -23 7 -58 15 -77 8 -20 15 -51 15 -69 0 -56 -48 -178 -102 -258
l-51 -77 -76 -50 c-124 -83 -238 -133 -303 -133 -31 0 -72 -7 -91 -15 -29 -12
-86 -15 -284 -15 l-248 0 -30 18 -29 18 2 80 c2 55 -1 90 -12 116 -9 21 -16
56 -16 78 0 49 -20 89 -110 223 -70 105 -141 177 -250 257 -34 25 -85 64 -115
87 -69 54 -89 64 -218 107 l-107 36 -100 0 -101 0 -47 -24 c-26 -13 -75 -53
-109 -89 l-63 -65 0 -36 c0 -19 -4 -38 -10 -41 -12 -8 -13 -119 -1 -143 5 -9
23 -49 41 -88 24 -53 52 -90 109 -148 135 -136 165 -163 200 -181 19 -9 52
-30 74 -46 22 -16 47 -29 56 -29 9 0 30 -9 46 -21 64 -44 169 -91 297 -133 74
-24 153 -53 176 -65 27 -14 60 -21 97 -21 31 0 72 -7 92 -15 19 -8 55 -15 79
-15 23 0 46 -4 49 -10 4 -6 103 -10 265 -10 162 0 261 4 265 10 3 6 19 10 34
10 16 0 45 7 64 15 20 8 54 15 76 15 23 0 67 13 104 30 36 17 71 30 79 30 7 0
33 14 58 30 25 16 51 30 58 30 7 0 34 18 60 40 26 22 72 57 102 78 42 29 58
47 68 78 7 22 31 62 52 88 22 27 40 56 40 66 0 11 5 22 10 25 6 4 10 80 10
197 l0 190 -25 30 c-14 16 -25 36 -25 44 0 38 -80 171 -132 219 -30 28 -65 69
-76 91 -12 23 -37 54 -57 70 -20 16 -50 43 -66 59 -167 171 -240 238 -285 259
-21 10 -44 22 -51 25 -6 3 -46 35 -88 70 -43 35 -94 68 -114 73 -81 23 -118
83 -74 119 9 8 36 40 60 73 48 64 54 98 28 160 -16 39 -15 47 18 83 27 30 56
118 57 171 0 26 -9 61 -24 90 -29 56 -146 172 -175 172 -11 0 -23 5 -26 10 -3
6 -52 10 -111 10 l-104 0 0 -19z m-928 -1693 c46 -16 86 -37 120 -65 27 -24
54 -43 59 -43 5 0 33 -24 63 -52 29 -29 74 -65 100 -80 27 -16 46 -34 46 -45
0 -10 32 -52 72 -93 l72 -75 48 -140 c26 -77 48 -150 48 -163 0 -13 -11 -34
-25 -47 -33 -34 -92 -33 -165 1 -30 14 -93 38 -140 53 -108 36 -140 52 -280
146 -172 116 -268 208 -311 300 -24 52 -27 199 -4 233 21 29 152 92 193 92 19
0 65 -10 104 -22z"/>
</g>
</svg>
