<?xml version="1.0" standalone="no"?>
<!DOCTYPE svg PUBLIC "-//W3C//DTD SVG 20010904//EN"
 "http://www.w3.org/TR/2001/REC-SVG-20010904/DTD/svg10.dtd">
<svg version="1.0" xmlns="http://www.w3.org/2000/svg"
 width="216.000000pt" height="315.000000pt" viewBox="0 0 216.000000 315.000000"
 preserveAspectRatio="xMidYMid meet">
<metadata>
Created by potrace 1.16, written by Peter Selinger 2001-2019
</metadata>
<g transform="translate(0.000000,315.000000) scale(0.100000,-0.100000)"
fill="#000000" stroke="none">
<path d="M1393 3133 c-3 -10 -8 -22 -10 -26 -3 -4 49 -63 114 -130 112 -115
189 -215 228 -298 22 -46 14 -124 -15 -139 l-18 -10 -83 68 c-46 37 -97 76
-114 86 -16 11 -57 45 -90 77 -117 111 -202 126 -287 51 -23 -19 -24 -124 -3
-175 8 -20 15 -49 15 -64 0 -15 14 -48 30 -73 16 -25 30 -51 30 -58 0 -27 40
-90 74 -116 39 -29 73 -93 57 -109 -13 -13 -178 68 -240 119 -38 32 -62 44
-85 44 -22 0 -40 8 -57 26 -13 14 -42 35 -64 46 -22 12 -53 31 -70 44 -16 12
-59 37 -94 54 -35 18 -80 47 -100 65 -37 33 -91 65 -111 65 -6 0 -47 38 -92
85 -49 52 -88 85 -100 85 -27 0 -99 -21 -115 -33 -33 -25 7 -112 69 -154 29
-19 53 -48 74 -87 17 -32 50 -75 72 -96 61 -55 76 -109 35 -124 -19 -8 -136
53 -262 136 -62 42 -103 48 -151 23 l-30 -16 0 -53 0 -54 32 -24 c18 -13 53
-36 78 -50 25 -14 55 -39 67 -56 12 -16 46 -43 77 -60 38 -22 63 -45 81 -76
15 -25 44 -58 64 -73 21 -15 93 -80 160 -143 67 -62 135 -123 151 -134 16 -12
42 -42 59 -68 17 -25 45 -57 62 -70 17 -12 45 -38 62 -56 18 -18 60 -61 94
-97 34 -35 71 -82 82 -103 11 -22 42 -59 69 -83 27 -24 57 -57 67 -74 10 -16
33 -46 51 -65 56 -61 213 -305 233 -361 20 -59 48 -128 92 -230 31 -70 41
-179 17 -179 -32 0 -126 58 -188 116 -39 37 -83 69 -103 75 -18 5 -52 25 -74
44 -23 19 -90 60 -150 90 -59 29 -130 72 -157 94 -26 23 -55 41 -64 41 -9 0
-80 31 -159 70 -150 73 -246 110 -286 110 -13 0 -41 12 -63 26 l-38 26 -35 -7
c-20 -4 -54 -10 -76 -14 -84 -16 -155 -69 -155 -116 0 -32 43 -100 66 -103 11
-2 59 15 106 38 47 22 89 40 95 40 5 0 22 -14 38 -30 23 -24 37 -30 69 -30 69
0 163 -39 220 -90 50 -46 122 -90 148 -90 27 0 162 -80 378 -223 141 -93 187
-129 219 -172 23 -30 50 -55 62 -57 12 -2 25 -10 29 -18 49 -103 65 -131 93
-167 l32 -42 60 0 60 0 30 41 c17 22 42 61 58 87 l27 46 -3 160 c-2 88 -9 178
-15 200 -6 22 -14 51 -16 65 -3 14 -23 55 -46 92 -22 37 -40 79 -40 93 0 49
-98 208 -151 246 -16 11 -29 29 -29 41 0 11 -24 43 -52 72 -29 29 -66 72 -83
97 -16 24 -48 64 -70 89 -23 25 -50 59 -60 75 -10 17 -58 71 -105 120 -48 50
-98 108 -112 130 -14 22 -46 53 -70 69 -25 16 -58 49 -74 74 -16 24 -46 56
-68 69 -22 14 -70 54 -107 89 -38 35 -73 64 -78 64 -17 0 -101 91 -101 110 0
11 12 27 27 37 15 10 60 51 100 91 48 47 80 72 96 72 12 0 60 -25 105 -55 92
-61 144 -89 183 -98 14 -4 54 -31 88 -62 34 -30 69 -55 77 -55 22 0 139 -55
177 -84 38 -28 162 -91 197 -99 14 -4 44 -22 67 -42 23 -19 90 -60 150 -89 59
-30 136 -77 171 -105 34 -28 71 -51 81 -51 32 0 81 71 81 118 l0 41 -41 28
c-23 15 -65 47 -94 70 -29 23 -76 53 -104 67 -76 39 -376 328 -412 397 -10 22
-37 50 -59 64 -48 30 -60 51 -60 105 l0 42 26 -6 c15 -4 41 -18 58 -31 17 -13
65 -40 106 -61 41 -20 92 -50 114 -65 50 -37 95 -37 161 -1 37 20 56 39 75 74
l24 47 -11 43 c-9 32 -9 54 0 86 l11 43 -27 52 c-15 29 -47 76 -72 104 -25 28
-45 59 -45 68 0 9 -44 61 -97 116 -75 76 -107 102 -138 110 -22 6 -52 20 -66
30 -36 25 -107 26 -116 2z"/>
</g>
</svg>
