<?xml version="1.0" standalone="no"?>
<!DOCTYPE svg PUBLIC "-//W3C//DTD SVG 20010904//EN"
 "http://www.w3.org/TR/2001/REC-SVG-20010904/DTD/svg10.dtd">
<svg version="1.0" xmlns="http://www.w3.org/2000/svg"
 width="420.000000pt" height="204.000000pt" viewBox="0 0 420.000000 204.000000"
 preserveAspectRatio="xMidYMid meet">
<metadata>
Created by potrace 1.16, written by Peter Selinger 2001-2019
</metadata>
<g transform="translate(0.000000,204.000000) scale(0.100000,-0.100000)"
fill="#000000" stroke="none">
<path d="M3395 2010 c-20 -38 -19 -53 5 -101 24 -45 128 -179 141 -179 4 0 48
-38 96 -84 48 -46 111 -95 138 -109 28 -14 72 -44 99 -66 l48 -41 49 0 c63 0
113 25 167 84 l42 46 0 62 0 63 -30 45 c-16 25 -30 58 -30 74 0 19 -17 55 -45
97 -50 75 -97 119 -125 119 -10 0 -22 5 -25 10 -3 6 -41 10 -84 10 l-79 0 -5
-26 c-4 -21 4 -36 33 -68 53 -58 147 -201 155 -236 4 -16 4 -38 0 -49 -11 -36
-33 -32 -79 14 -24 25 -51 45 -59 45 -8 0 -87 72 -175 160 l-159 160 -31 0
c-25 0 -35 -6 -47 -30z"/>
<path d="M475 1705 c-16 -8 -55 -14 -85 -15 -135 -1 -301 -94 -367 -204 l-23
-37 0 -100 c0 -55 4 -107 8 -117 5 -9 20 -39 33 -67 16 -34 35 -56 60 -69 l36
-20 33 20 c62 36 62 40 10 160 -39 88 -12 144 114 236 l39 28 87 0 c55 0 101
6 123 15 20 8 52 15 72 15 20 0 52 -7 72 -15 25 -11 72 -15 165 -15 92 0 139
-4 165 -15 19 -8 47 -15 60 -15 14 0 54 -13 90 -30 37 -17 81 -30 104 -30 22
0 56 -7 76 -15 19 -8 53 -15 75 -15 21 0 55 -7 75 -15 19 -8 47 -15 60 -15 14
0 54 -13 90 -30 35 -16 70 -30 76 -30 7 0 32 -14 57 -30 26 -18 58 -30 77 -30
17 0 35 -6 40 -12 15 -25 43 -113 43 -138 0 -14 20 -61 43 -105 24 -44 51 -93
59 -110 9 -16 21 -42 27 -57 5 -14 32 -41 60 -59 27 -18 61 -51 76 -75 15 -23
68 -82 119 -130 84 -81 130 -118 275 -224 27 -19 72 -54 102 -78 52 -43 138
-92 159 -92 6 0 37 -12 68 -26 31 -15 78 -33 104 -40 l48 -15 28 15 c39 20
120 109 128 141 4 15 2 44 -5 65 -6 20 -11 53 -11 72 0 20 -11 61 -26 93 -15
36 -22 61 -16 67 6 6 43 -6 96 -31 48 -23 93 -41 100 -41 7 0 23 -12 37 -26
13 -14 42 -35 64 -46 22 -12 54 -32 72 -45 17 -13 47 -28 65 -34 19 -5 52 -24
74 -43 21 -18 62 -45 91 -60 29 -14 82 -53 118 -87 36 -34 90 -77 121 -95 l56
-34 64 0 64 0 0 36 c0 53 -52 111 -170 189 -54 36 -118 83 -142 104 -23 21
-55 41 -70 44 -14 4 -51 29 -81 57 -29 27 -96 70 -147 96 -52 26 -110 62 -130
81 -21 18 -43 33 -50 33 -21 0 -257 118 -302 150 -23 17 -49 30 -58 30 -9 0
-27 12 -41 26 -24 26 -207 124 -231 124 -8 0 -30 11 -51 25 -46 32 -232 125
-248 125 -7 0 -33 13 -58 29 -25 16 -60 32 -78 36 -17 3 -52 24 -76 46 -25 21
-50 39 -57 39 -18 0 -81 31 -115 56 -50 37 -173 94 -201 94 -15 0 -83 27 -151
60 l-124 60 -55 0 c-30 0 -71 7 -91 15 -19 8 -59 15 -87 15 -32 0 -84 11 -136
30 -47 16 -102 30 -123 30 -21 0 -54 7 -74 15 -19 8 -60 15 -90 15 -29 0 -70
7 -90 15 -22 9 -67 15 -120 15 -52 0 -97 6 -120 15 -43 18 -118 18 -158 0z
m1820 -689 c11 -6 34 -21 51 -33 17 -12 62 -32 100 -44 41 -13 84 -36 106 -55
21 -18 83 -63 138 -100 64 -42 109 -79 124 -103 13 -20 43 -49 68 -64 104 -67
226 -327 153 -327 -29 0 -188 81 -240 121 -117 91 -162 125 -188 142 -15 10
-38 35 -51 56 -15 23 -46 51 -79 69 -38 22 -63 45 -84 79 -17 27 -46 60 -66
73 -38 26 -48 42 -91 148 -30 73 -26 91 12 66 15 -10 36 -23 47 -28z"/>
</g>
</svg>
