<?xml version="1.0" standalone="no"?>
<!DOCTYPE svg PUBLIC "-//W3C//DTD SVG 20010904//EN"
 "http://www.w3.org/TR/2001/REC-SVG-20010904/DTD/svg10.dtd">
<svg version="1.0" xmlns="http://www.w3.org/2000/svg"
 width="705.000000pt" height="282.000000pt" viewBox="0 0 705.000000 282.000000"
 preserveAspectRatio="xMidYMid meet">
<metadata>
Created by potrace 1.16, written by Peter Selinger 2001-2019
</metadata>
<g transform="translate(0.000000,282.000000) scale(0.100000,-0.100000)"
fill="#000000" stroke="none">
<path d="M3755 2810 c-3 -5 -26 -10 -51 -10 -70 0 -109 -54 -66 -93 14 -13 39
-17 106 -17 l88 0 63 -29 c35 -16 82 -43 106 -60 23 -17 54 -31 68 -31 26 0
121 -29 171 -52 14 -7 45 -28 70 -49 48 -39 121 -79 142 -79 8 0 31 -20 52
-45 21 -25 55 -57 76 -70 21 -13 58 -54 83 -92 25 -37 57 -79 71 -92 14 -14
26 -30 26 -37 0 -7 20 -54 45 -105 25 -51 45 -100 45 -108 0 -9 14 -36 30 -61
23 -34 30 -56 30 -93 0 -87 -21 -101 -110 -73 -60 19 -125 35 -182 46 -26 5
-56 13 -67 19 -11 6 -44 11 -73 11 -29 0 -73 6 -98 14 -58 18 -124 35 -175 45
-22 4 -56 12 -75 18 -78 25 -129 35 -200 42 -41 4 -85 13 -97 19 -13 7 -64 12
-123 12 -67 0 -113 5 -137 15 -20 8 -66 15 -105 15 -38 0 -84 7 -105 15 -19 8
-60 15 -90 15 -29 0 -70 7 -90 15 l-35 15 -369 0 -369 0 -41 17 -42 16 -31
-12 c-17 -7 -65 -17 -106 -21 -83 -9 -123 -18 -255 -61 -50 -16 -108 -29 -128
-29 -24 0 -67 -15 -116 -40 -77 -38 -111 -69 -111 -99 0 -8 -25 -40 -56 -71
-42 -43 -61 -73 -76 -116 l-20 -58 15 -51 c32 -106 39 -148 25 -157 -7 -4
-156 -8 -331 -8 l-318 0 -36 15 c-20 8 -66 15 -105 15 -38 0 -84 7 -105 15
-23 10 -69 15 -135 15 -65 0 -111 5 -135 15 -19 8 -59 15 -87 15 -28 0 -72 8
-98 17 l-48 17 -35 -17 -35 -17 0 -40 0 -39 30 -16 c16 -8 41 -15 55 -15 14 0
42 -7 62 -15 19 -8 60 -15 90 -15 29 0 70 -7 90 -15 22 -9 67 -15 120 -15 52
0 97 -6 120 -15 19 -8 60 -15 90 -15 29 0 70 -7 90 -15 20 -8 66 -15 105 -15
38 0 84 -7 105 -15 25 -11 72 -15 164 -15 92 0 139 -4 167 -15 l38 -15 199 2
199 3 23 34 c38 57 27 102 -48 191 -50 59 -69 107 -69 172 0 54 16 90 51 115
10 7 41 33 69 57 29 25 66 48 83 52 17 3 59 19 93 35 34 16 73 29 87 29 13 0
41 7 60 15 20 8 54 15 75 15 22 0 57 7 78 16 28 12 53 14 89 9 27 -3 59 -6 70
-5 11 1 185 4 387 6 l367 5 37 -16 c23 -9 68 -15 121 -15 52 0 97 -6 120 -15
19 -8 60 -15 90 -15 29 0 70 -7 90 -15 19 -8 60 -15 90 -15 29 0 70 -7 90 -15
19 -8 60 -15 90 -15 29 0 70 -7 90 -15 20 -8 66 -15 105 -15 38 0 84 -7 105
-15 19 -8 53 -15 75 -15 21 0 55 -7 75 -15 19 -8 47 -15 62 -15 14 0 46 -14
71 -30 l45 -30 58 0 c32 0 74 -7 94 -15 19 -8 45 -15 56 -15 11 0 68 -16 127
-36 l108 -36 61 -51 c34 -28 61 -57 61 -64 0 -28 40 -91 74 -117 20 -15 48
-51 62 -79 15 -29 45 -73 68 -98 22 -25 72 -83 111 -129 38 -45 87 -93 107
-106 21 -13 49 -41 62 -62 26 -41 55 -68 101 -97 17 -10 64 -50 105 -90 41
-39 87 -79 102 -88 15 -10 60 -45 100 -80 40 -35 89 -73 109 -85 19 -12 44
-31 55 -43 10 -12 53 -39 94 -61 41 -21 102 -56 135 -76 33 -21 80 -46 105
-56 25 -10 53 -22 62 -27 10 -5 104 -9 210 -9 l193 1 30 41 c17 22 38 55 49
72 10 17 27 43 37 58 20 29 25 83 9 93 -5 3 -10 24 -10 46 0 60 -36 153 -83
216 -55 73 -258 276 -332 332 -32 24 -106 68 -164 98 -58 30 -131 70 -161 89
-30 19 -69 38 -87 43 -18 5 -45 18 -60 29 -56 39 -154 82 -285 125 -73 25
-166 61 -205 81 -40 20 -84 36 -98 36 -14 0 -42 7 -62 15 -19 8 -45 15 -56 15
-55 0 -243 81 -258 111 -46 96 -99 242 -99 275 0 12 -13 51 -30 86 -16 34 -30
68 -30 75 0 6 -13 40 -30 75 -16 34 -30 70 -30 79 0 17 -80 121 -144 186 -23
23 -59 63 -81 88 -22 26 -77 72 -122 101 -44 30 -100 70 -123 89 -28 24 -52
35 -73 35 -18 0 -45 9 -62 21 -78 53 -256 129 -301 129 -28 0 -147 42 -176 62
-28 19 -112 25 -123 8z m1651 -1565 c31 -14 67 -25 81 -25 13 0 40 -7 60 -15
19 -8 47 -15 62 -15 14 0 55 -14 89 -30 35 -17 69 -30 76 -30 6 0 28 -11 48
-25 20 -14 72 -36 115 -50 89 -29 116 -41 158 -71 17 -12 63 -39 102 -59 40
-19 108 -60 151 -89 82 -56 153 -96 173 -96 6 0 40 -32 76 -70 36 -39 77 -73
91 -76 37 -9 52 -23 52 -47 0 -11 19 -38 42 -60 56 -53 78 -116 78 -223 l0
-83 -32 -23 c-48 -34 -155 -37 -240 -9 -98 34 -228 99 -278 140 -25 20 -65 49
-90 63 -25 14 -55 40 -68 57 -12 17 -48 44 -80 60 -31 16 -91 59 -132 96 -41
37 -104 91 -140 120 -86 69 -270 259 -303 311 -14 23 -40 52 -56 64 -17 12
-31 28 -31 36 0 25 -41 97 -66 117 -27 20 -32 57 -9 57 8 0 40 -11 71 -25z"/>
</g>
</svg>
