<?xml version="1.0" standalone="no"?>
<!DOCTYPE svg PUBLIC "-//W3C//DTD SVG 20010904//EN"
 "http://www.w3.org/TR/2001/REC-SVG-20010904/DTD/svg10.dtd">
<svg version="1.0" xmlns="http://www.w3.org/2000/svg"
 width="477.000000pt" height="231.000000pt" viewBox="0 0 477.000000 231.000000"
 preserveAspectRatio="xMidYMid meet">
<metadata>
Created by potrace 1.16, written by Peter Selinger 2001-2019
</metadata>
<g transform="translate(0.000000,231.000000) scale(0.100000,-0.100000)"
fill="#000000" stroke="none">
<path d="M3073 2292 c-22 -11 -33 -23 -33 -37 0 -33 42 -89 75 -99 70 -22 163
-70 205 -105 48 -40 120 -81 143 -81 7 0 24 -12 38 -26 13 -14 44 -37 69 -51
103 -56 181 -111 220 -156 23 -26 55 -54 70 -62 48 -25 204 -175 232 -224 15
-25 46 -60 70 -77 30 -21 47 -43 58 -74 11 -32 27 -52 60 -75 l45 -31 60 -116
c33 -63 72 -133 87 -154 33 -48 78 -176 78 -225 0 -20 7 -53 15 -72 32 -76 13
-217 -29 -217 -21 0 -104 99 -111 133 -12 53 -51 122 -90 155 -28 25 -45 32
-77 32 l-41 0 -43 -44 -44 -43 0 -45 c0 -24 -8 -68 -19 -97 -15 -43 -29 -62
-69 -93 -51 -38 -168 -98 -194 -98 -7 0 -33 -14 -58 -30 -25 -16 -57 -30 -71
-30 -15 0 -43 -7 -62 -15 -27 -11 -75 -15 -180 -15 -106 0 -154 -4 -180 -15
l-36 -15 -471 0 -471 0 -36 15 c-23 10 -69 15 -135 15 -65 0 -111 5 -135 15
-19 8 -45 15 -57 15 -12 0 -60 13 -106 30 -47 16 -102 30 -123 30 -21 0 -54 7
-74 15 -19 8 -53 15 -75 15 -21 0 -55 7 -75 15 -19 8 -52 15 -72 15 -44 0
-129 28 -231 76 -41 20 -108 47 -150 60 -91 30 -172 67 -214 99 -17 13 -67 35
-111 49 -99 32 -111 38 -205 102 -41 28 -91 59 -110 69 -19 10 -55 39 -81 64
-25 25 -66 58 -90 74 -24 15 -72 50 -107 77 -48 38 -71 50 -98 50 l-34 0 0
-45 0 -45 102 -106 c56 -58 120 -115 143 -126 22 -11 58 -40 80 -64 29 -31 77
-61 173 -109 74 -37 152 -80 174 -96 23 -16 48 -29 58 -29 9 0 29 -14 45 -30
16 -17 35 -30 43 -30 7 0 39 -12 70 -26 31 -14 93 -37 136 -51 43 -15 114 -43
158 -64 51 -26 93 -39 119 -39 22 0 56 -7 76 -15 19 -8 52 -15 72 -15 20 0 56
-6 81 -14 60 -19 125 -35 182 -46 26 -5 56 -13 67 -19 11 -6 38 -11 61 -11 22
0 57 -7 77 -15 19 -8 53 -15 75 -15 21 0 55 -7 75 -15 19 -8 53 -15 75 -15 21
0 55 -7 75 -15 l35 -15 329 0 c208 0 330 -4 334 -10 8 -13 102 -13 110 0 4 6
97 10 246 10 162 0 247 4 262 12 12 6 48 14 82 19 62 8 117 20 195 45 25 8 56
14 70 14 14 0 45 14 70 30 25 16 58 30 74 30 38 0 130 50 193 105 67 59 93 59
147 1 23 -24 55 -51 73 -60 47 -24 144 -21 196 5 62 31 75 46 92 104 8 29 22
58 30 65 l15 12 0 138 c0 75 -3 140 -7 143 -14 15 -43 114 -43 149 0 35 -46
138 -129 288 -11 19 -27 54 -37 78 -10 24 -34 56 -56 74 -21 17 -50 53 -65 82
-14 28 -58 85 -98 126 -39 41 -84 94 -98 116 -14 23 -40 52 -57 65 -39 29 -86
76 -124 124 -16 20 -55 49 -86 65 -31 16 -82 51 -112 79 -41 38 -72 56 -124
72 -38 12 -82 35 -99 50 -31 28 -191 111 -235 122 -14 4 -46 23 -71 44 -25 21
-66 47 -90 57 -24 10 -52 22 -61 27 -25 13 -68 9 -105 -9z"/>
</g>
</svg>
