<?xml version="1.0" standalone="no"?>
<!DOCTYPE svg PUBLIC "-//W3C//DTD SVG 20010904//EN"
 "http://www.w3.org/TR/2001/REC-SVG-20010904/DTD/svg10.dtd">
<svg version="1.0" xmlns="http://www.w3.org/2000/svg"
 width="552.000000pt" height="243.000000pt" viewBox="0 0 552.000000 243.000000"
 preserveAspectRatio="xMidYMid meet">
<metadata>
Created by potrace 1.16, written by Peter Selinger 2001-2019
</metadata>
<g transform="translate(0.000000,243.000000) scale(0.100000,-0.100000)"
fill="#000000" stroke="none">
<path d="M2153 2394 c-29 -45 -29 -79 0 -98 l23 -15 48 14 c73 22 219 11 268
-21 21 -13 73 -35 115 -49 43 -14 89 -31 103 -37 31 -16 131 -91 149 -112 7
-9 22 -16 32 -16 11 0 45 -24 77 -54 31 -30 94 -89 140 -132 46 -44 103 -108
126 -144 24 -36 64 -89 89 -119 25 -29 49 -68 53 -85 3 -17 19 -52 35 -77 16
-25 29 -54 29 -63 0 -10 20 -38 45 -63 l45 -44 -11 -20 -11 -21 -131 6 c-73 3
-152 7 -177 10 -25 3 -117 9 -205 14 -95 4 -169 12 -182 20 -14 8 -67 12 -153
12 -93 0 -141 4 -167 15 l-35 15 -354 0 c-242 0 -362 4 -381 11 -17 7 -129 14
-283 18 -175 4 -262 10 -277 19 -12 6 -47 12 -79 12 -71 0 -192 54 -226 101
-13 17 -43 46 -69 64 -62 46 -243 135 -274 135 -14 0 -42 7 -62 15 -20 9 -66
15 -108 15 -42 0 -88 -6 -108 -15 -20 -8 -56 -15 -79 -15 -31 0 -56 -8 -88
-30 -25 -16 -51 -30 -57 -30 -10 0 -13 -24 -13 -84 l0 -85 27 -21 c16 -11 46
-43 68 -71 53 -67 112 -88 248 -89 63 0 110 -5 134 -15 20 -8 66 -15 105 -15
38 0 84 -7 105 -15 19 -8 55 -15 79 -15 33 0 46 -5 54 -19 15 -28 13 -148 -2
-158 -31 -19 -116 -43 -156 -43 -59 0 -102 -41 -102 -98 0 -63 18 -72 144 -72
l107 0 47 24 c62 32 92 66 136 153 25 50 36 86 36 116 0 24 5 48 12 55 15 15
374 17 414 2 19 -7 37 -7 60 0 25 9 40 8 69 -5 l37 -15 310 0 309 0 36 -15
c28 -12 82 -15 254 -15 140 0 228 -4 246 -11 15 -7 104 -14 197 -16 116 -3
181 -9 204 -19 22 -9 70 -14 134 -14 65 0 111 -5 135 -15 19 -8 61 -15 92 -15
38 0 70 -7 101 -23 l44 -22 83 -123 c45 -68 100 -143 121 -166 22 -24 48 -56
58 -72 61 -95 167 -209 224 -240 56 -30 67 -39 108 -92 19 -23 40 -42 49 -42
20 0 81 -29 118 -56 71 -53 303 -154 353 -154 20 0 118 -33 129 -43 3 -4 68
-7 142 -7 l136 0 12 19 c7 10 37 32 69 47 38 20 85 59 145 122 l89 93 0 124
c0 72 -4 126 -10 130 -5 3 -10 35 -10 71 l0 65 -30 27 c-17 15 -52 48 -78 73
-26 26 -84 66 -131 89 -46 24 -100 57 -120 75 -20 18 -45 37 -56 43 -42 21
-146 52 -178 52 -18 0 -71 13 -117 30 -47 16 -101 30 -120 30 -19 0 -55 6 -80
14 -94 30 -138 38 -225 45 -49 4 -100 12 -112 19 -14 8 -76 12 -183 12 -120 0
-170 4 -197 15 -19 8 -47 15 -62 15 -39 0 -69 26 -80 68 -6 20 -26 62 -45 92
-19 30 -69 121 -110 202 -55 107 -85 154 -111 173 -19 15 -35 34 -35 42 0 37
-52 114 -98 144 -26 17 -59 47 -72 66 -13 20 -42 47 -65 60 -22 14 -60 48 -84
75 -24 27 -61 58 -83 69 -21 11 -56 35 -76 53 -20 19 -79 54 -129 80 l-93 46
-75 0 -76 0 -25 25 -25 25 -177 0 -177 -1 -22 -35z m-1647 -897 c16 -14 24
-29 20 -35 -10 -16 -66 -14 -96 3 -14 8 -43 15 -65 15 -22 0 -47 5 -55 10
l-15 10 15 10 c8 5 50 10 92 10 l77 0 27 -23z m3661 -502 c24 -10 71 -15 150
-15 78 0 125 -5 150 -15 19 -8 53 -15 75 -15 21 0 55 -7 75 -15 19 -8 47 -15
60 -15 14 0 54 -13 90 -30 35 -16 81 -30 102 -30 35 0 123 -26 187 -55 17 -8
59 -39 93 -70 34 -30 70 -55 81 -55 27 0 80 -48 80 -73 0 -12 11 -40 25 -62
31 -50 34 -146 7 -220 -23 -65 -30 -75 -52 -75 -10 0 -40 -18 -66 -40 l-48
-40 -41 1 c-22 1 -61 -2 -86 -6 l-45 -7 -155 51 c-165 55 -274 103 -354 156
-27 18 -70 44 -95 57 -25 14 -57 42 -72 64 -14 21 -53 55 -85 74 l-58 35 -3
38 -3 37 -54 41 c-29 22 -66 59 -81 82 -16 23 -45 62 -64 87 -20 25 -44 60
-54 79 l-18 33 13 9 c24 15 206 11 246 -6z"/>
</g>
</svg>
