<?xml version="1.0" standalone="no"?>
<!DOCTYPE svg PUBLIC "-//W3C//DTD SVG 20010904//EN"
 "http://www.w3.org/TR/2001/REC-SVG-20010904/DTD/svg10.dtd">
<svg version="1.0" xmlns="http://www.w3.org/2000/svg"
 width="594.000000pt" height="240.000000pt" viewBox="0 0 594.000000 240.000000"
 preserveAspectRatio="xMidYMid meet">
<metadata>
Created by potrace 1.16, written by Peter Selinger 2001-2019
</metadata>
<g transform="translate(0.000000,240.000000) scale(0.100000,-0.100000)"
fill="#000000" stroke="none">
<path d="M73 2367 c-16 -18 -35 -49 -42 -68 -7 -18 -17 -42 -22 -51 -11 -22
-12 -93 0 -116 4 -9 20 -43 34 -74 20 -42 37 -64 68 -84 23 -14 60 -43 84 -65
54 -50 156 -119 175 -119 8 0 44 -14 78 -30 85 -40 148 -40 262 0 124 44 167
40 237 -23 21 -19 67 -49 102 -67 69 -34 153 -93 185 -129 11 -11 26 -21 35
-21 32 -1 97 -38 158 -91 34 -30 90 -74 124 -99 33 -25 86 -65 116 -89 31 -24
70 -47 88 -52 18 -5 61 -34 94 -64 34 -30 70 -55 80 -55 10 0 37 -15 61 -32
92 -69 137 -100 181 -123 26 -13 82 -48 126 -78 43 -30 102 -66 130 -80 27
-14 74 -48 104 -75 53 -48 125 -92 151 -92 7 0 32 -23 56 -50 31 -36 67 -62
125 -91 45 -23 102 -58 127 -79 25 -20 65 -47 90 -60 25 -13 59 -33 75 -45 36
-28 350 -185 367 -185 7 0 42 -14 76 -30 l64 -30 79 0 80 0 55 51 c35 34 57
65 64 89 18 68 29 69 195 25 28 -7 70 -18 95 -25 25 -7 79 -16 120 -20 41 -4
107 -20 145 -34 39 -14 87 -26 108 -26 21 0 54 -7 74 -15 19 -8 53 -15 75 -15
21 0 55 -7 75 -15 26 -11 75 -15 184 -15 88 0 150 -4 154 -10 8 -13 312 -13
320 0 3 5 27 10 53 10 l47 0 60 41 c83 56 222 195 251 251 13 26 24 61 24 77
0 16 5 33 10 36 6 4 10 93 10 235 0 142 -4 231 -10 235 -5 3 -10 27 -10 52 0
50 -66 194 -134 293 -20 29 -36 56 -36 60 0 5 -21 32 -46 62 -25 29 -61 77
-80 106 -19 28 -48 59 -65 67 -16 9 -60 44 -97 78 -37 35 -80 71 -95 81 -15 9
-53 39 -83 67 -30 27 -64 49 -76 49 -12 0 -38 18 -62 43 -64 69 -105 94 -201
125 -50 16 -109 39 -132 51 -23 11 -48 21 -55 21 -7 0 -42 14 -76 30 -37 18
-80 30 -103 30 -22 0 -56 7 -76 15 -42 18 -223 21 -254 5 -25 -14 -25 -46 0
-60 11 -5 41 -10 68 -10 50 0 162 -34 232 -69 22 -12 52 -21 66 -21 14 0 42
-7 62 -15 19 -8 47 -15 62 -15 15 0 66 -26 123 -64 53 -34 111 -68 130 -75 73
-27 103 -48 141 -99 22 -29 53 -60 69 -68 16 -8 57 -43 92 -77 34 -34 74 -70
89 -80 15 -10 39 -39 52 -65 14 -26 48 -74 76 -107 28 -33 62 -82 76 -110 14
-27 36 -64 49 -82 61 -81 104 -220 74 -238 -6 -4 -45 9 -87 29 -57 28 -88 36
-129 36 -30 0 -71 7 -91 15 -46 19 -140 19 -186 0 -20 -8 -52 -15 -72 -15 -20
0 -64 -9 -98 -21 -73 -24 -164 -105 -203 -181 l-24 -47 0 -86 c0 -127 47 -255
114 -311 23 -20 36 -41 40 -67 l7 -37 -176 0 c-133 0 -184 4 -212 15 -19 8
-45 15 -56 15 -12 0 -81 20 -154 45 -73 25 -148 45 -168 45 -20 0 -52 7 -72
15 -19 8 -45 15 -57 15 -38 0 -126 36 -154 63 -16 15 -35 27 -43 27 -7 0 -41
13 -75 29 -34 16 -75 32 -93 36 -19 4 -53 28 -84 59 -29 29 -66 58 -83 65
l-32 13 -40 -21 c-46 -24 -72 -55 -72 -88 0 -32 55 -90 113 -119 27 -14 67
-39 90 -55 22 -16 48 -29 58 -29 17 0 89 -87 89 -108 0 -43 -182 -17 -260 38
-35 25 -160 86 -190 93 -14 4 -43 22 -65 40 -41 35 -115 77 -135 77 -18 0
-161 89 -200 124 -19 17 -51 37 -70 45 -55 20 -65 27 -69 47 -6 32 -21 44
-125 96 -99 50 -184 106 -220 147 -12 13 -31 21 -51 21 -26 0 -39 8 -60 35
-16 22 -55 50 -103 74 -71 36 -225 133 -315 198 -94 68 -186 127 -245 157 -28
14 -59 38 -69 52 -50 73 -227 204 -276 204 -7 0 -24 12 -38 26 -13 14 -53 41
-89 59 -36 18 -122 71 -192 118 -69 47 -146 96 -170 107 -24 12 -63 39 -88 60
-47 39 -120 80 -142 80 -34 0 -247 158 -333 248 l-41 42 -56 0 -56 0 -29 -33z
m222 -238 c17 -11 55 -33 86 -49 31 -16 71 -47 88 -68 21 -27 42 -42 65 -46
41 -8 88 -49 80 -70 -11 -27 -45 -29 -122 -5 l-76 24 -52 50 c-29 28 -65 60
-81 71 -15 12 -34 38 -42 59 l-13 37 13 9 c19 12 20 12 54 -12z m5101 -1298
c69 -13 166 -63 214 -111 48 -48 80 -116 80 -169 0 -22 5 -52 11 -68 15 -40
-6 -109 -49 -158 -73 -85 -88 -99 -127 -116 l-40 -19 -133 0 -133 0 -27 31
c-15 17 -60 64 -99 104 -40 41 -73 80 -73 87 0 7 -14 33 -30 58 l-30 45 0 68
c0 78 24 143 65 175 40 32 251 93 295 86 14 -2 48 -8 76 -13z"/>
</g>
</svg>
