<?xml version="1.0" standalone="no"?>
<!DOCTYPE svg PUBLIC "-//W3C//DTD SVG 20010904//EN"
 "http://www.w3.org/TR/2001/REC-SVG-20010904/DTD/svg10.dtd">
<svg version="1.0" xmlns="http://www.w3.org/2000/svg"
 width="459.000000pt" height="261.000000pt" viewBox="0 0 459.000000 261.000000"
 preserveAspectRatio="xMidYMid meet">
<metadata>
Created by potrace 1.16, written by Peter Selinger 2001-2019
</metadata>
<g transform="translate(0.000000,261.000000) scale(0.100000,-0.100000)"
fill="#000000" stroke="none">
<path d="M3021 2570 l-22 -39 21 -21 c14 -14 28 -19 38 -15 38 16 103 17 149
2 59 -19 125 -36 178 -46 63 -12 133 -39 173 -66 20 -14 44 -25 53 -25 8 0 26
-12 40 -26 13 -14 55 -46 92 -71 38 -25 79 -62 91 -82 27 -41 52 -64 114 -106
44 -29 212 -199 212 -214 0 -5 18 -30 40 -57 26 -31 48 -74 64 -126 14 -43 37
-95 51 -116 23 -35 26 -72 6 -72 -17 0 -112 33 -159 55 -29 14 -71 25 -93 25
-22 0 -56 7 -76 15 -54 23 -190 20 -265 -6 -95 -32 -189 -83 -230 -126 -44
-45 -118 -153 -118 -171 0 -33 45 -140 71 -170 16 -18 40 -50 53 -70 13 -21
43 -50 67 -65 24 -16 57 -46 73 -68 17 -25 46 -48 75 -61 25 -11 53 -24 61
-28 8 -3 18 -20 22 -37 4 -17 20 -39 35 -48 l27 -18 -19 -7 c-11 -4 -37 -1
-59 6 -29 11 -106 14 -303 14 l-264 0 -36 15 c-19 8 -59 15 -87 15 -28 0 -71
6 -96 14 -77 24 -133 37 -190 45 -30 4 -71 12 -90 18 -47 15 -117 33 -165 42
-22 4 -56 12 -75 18 -52 16 -119 33 -172 43 -26 5 -56 13 -67 19 -11 6 -38 11
-61 11 -22 0 -57 7 -77 15 -19 8 -53 15 -75 15 -21 0 -55 7 -75 15 -20 8 -66
15 -105 15 -38 0 -84 7 -105 15 -19 8 -65 15 -102 15 -68 0 -169 28 -250 69
-29 15 -59 21 -111 21 -40 0 -86 6 -107 15 -27 12 -81 15 -241 15 l-205 0 -41
45 -42 45 -42 0 -41 0 -33 -44 c-42 -56 -75 -76 -126 -76 -22 0 -56 -7 -75
-15 -20 -8 -55 -15 -77 -15 -59 0 -129 -40 -194 -111 l-56 -62 0 -138 c0 -82
4 -140 10 -144 6 -4 20 -25 31 -48 12 -23 50 -72 85 -109 35 -37 70 -81 79
-98 9 -17 50 -53 102 -86 47 -32 119 -86 159 -121 40 -35 78 -63 84 -63 7 0
41 -13 77 -30 35 -16 69 -30 75 -30 5 0 39 -13 75 -30 35 -16 77 -30 93 -30
16 0 32 -4 35 -10 4 -6 53 -10 115 -10 62 0 111 4 115 10 3 6 15 10 25 10 26
0 87 55 110 100 63 124 78 267 39 382 -28 85 -76 176 -116 222 -18 22 -38 57
-43 78 -6 21 -22 45 -37 55 -64 44 -114 99 -116 127 l-2 30 170 -3 c108 -1
186 -7 215 -16 93 -28 137 -37 210 -44 41 -4 85 -13 97 -19 12 -7 39 -12 60
-12 21 0 58 -6 83 -14 60 -19 125 -35 182 -46 26 -5 56 -13 67 -19 11 -6 57
-11 103 -11 46 0 103 -6 128 -14 77 -24 133 -37 190 -45 35 -4 70 -17 95 -34
28 -19 52 -27 83 -27 23 0 59 -7 79 -15 20 -8 66 -15 105 -15 38 0 84 -7 105
-15 19 -8 52 -15 72 -15 20 0 75 -13 121 -30 68 -24 102 -30 168 -30 50 0 97
-6 119 -15 27 -11 77 -15 210 -15 132 0 182 -4 210 -15 45 -19 81 -19 126 0
20 8 54 15 75 15 22 0 56 7 75 15 20 8 49 15 65 15 16 0 47 13 69 29 22 16 60
39 84 52 79 39 130 83 180 151 l49 68 0 193 c0 139 -3 196 -12 205 -10 10 -10
17 0 32 14 24 16 136 2 145 -5 3 -10 19 -10 36 0 46 -193 423 -231 451 -17 13
-42 42 -56 66 -14 24 -44 55 -67 69 -23 14 -63 50 -89 79 -34 37 -60 57 -87
64 -26 7 -49 23 -66 46 -15 19 -40 42 -55 49 -15 8 -48 33 -73 54 -131 114
-268 181 -366 181 -28 0 -67 7 -87 15 -19 8 -48 15 -64 15 -15 0 -31 5 -34 10
-4 6 -58 10 -129 10 l-122 0 -23 -40z m1146 -1186 c101 -50 117 -66 164 -170
l31 -67 -12 -46 c-11 -42 -53 -148 -84 -211 -6 -14 -32 -35 -56 -47 -64 -32
-135 -31 -213 5 -34 16 -73 32 -87 35 -32 9 -49 23 -85 70 -15 21 -41 45 -56
52 -37 20 -199 182 -210 212 -18 48 -10 66 64 139 l72 74 190 0 189 0 93 -46z
m-3449 -384 c35 -23 73 -57 86 -79 14 -21 39 -49 56 -62 18 -13 46 -39 63 -57
95 -98 115 -121 145 -158 41 -53 92 -161 92 -195 0 -15 11 -52 25 -83 14 -31
25 -61 25 -65 0 -5 -22 -45 -48 -88 l-48 -78 -88 -3 -88 -3 -92 44 c-51 25
-112 58 -136 76 -24 17 -51 31 -60 31 -10 0 -46 21 -80 48 -34 26 -80 61 -103
77 -77 56 -217 204 -217 229 0 13 -7 40 -15 59 -31 76 -11 225 36 264 27 22
134 53 185 53 28 0 67 7 85 15 60 26 107 19 177 -25z"/>
</g>
</svg>
