<?xml version="1.0" standalone="no"?>
<!DOCTYPE svg PUBLIC "-//W3C//DTD SVG 20010904//EN"
 "http://www.w3.org/TR/2001/REC-SVG-20010904/DTD/svg10.dtd">
<svg version="1.0" xmlns="http://www.w3.org/2000/svg"
 width="231.000000pt" height="381.000000pt" viewBox="0 0 231.000000 381.000000"
 preserveAspectRatio="xMidYMid meet">
<metadata>
Created by potrace 1.16, written by Peter Selinger 2001-2019
</metadata>
<g transform="translate(0.000000,381.000000) scale(0.100000,-0.100000)"
fill="#000000" stroke="none">
<path d="M441 3770 l-22 -40 25 -25 25 -25 73 0 c100 0 284 -61 345 -114 23
-20 47 -36 55 -36 7 0 54 -20 103 -43 50 -24 101 -47 115 -50 14 -3 47 -24 74
-47 26 -22 56 -40 65 -40 9 0 30 -16 46 -36 17 -19 57 -50 89 -67 37 -20 71
-49 90 -75 17 -23 52 -56 77 -72 73 -47 231 -217 270 -290 60 -110 66 -121
124 -248 34 -73 54 -127 48 -133 -11 -11 -89 41 -121 81 -51 65 -206 122 -332
122 -65 0 -165 -18 -200 -36 -122 -65 -234 -174 -289 -284 l-31 -61 0 -71 c0
-45 8 -93 21 -132 29 -86 105 -235 146 -285 19 -23 33 -50 31 -60 l-3 -18
-149 4 -148 3 -82 29 c-44 16 -90 29 -101 29 -12 0 -59 13 -105 30 -47 16
-102 30 -123 30 -22 0 -68 13 -104 30 -35 17 -69 30 -75 30 -5 0 -39 14 -75
30 -35 17 -70 30 -77 30 -7 0 -25 14 -41 30 l-29 30 -78 0 -78 0 0 -58 0 -57
66 -75 c36 -41 79 -101 95 -132 17 -33 49 -74 79 -100 27 -24 50 -51 50 -61 0
-9 32 -51 70 -93 39 -41 77 -88 85 -104 8 -15 37 -48 63 -71 27 -24 61 -62 74
-84 14 -22 89 -107 167 -188 77 -82 141 -153 141 -159 0 -6 55 -68 123 -137
67 -70 153 -164 192 -210 38 -46 88 -95 110 -109 22 -14 74 -57 115 -96 41
-40 94 -85 118 -101 24 -16 62 -45 85 -64 24 -21 68 -45 102 -55 33 -11 64
-23 69 -28 6 -4 43 -8 83 -8 l72 0 16 30 c23 45 20 186 -6 262 -24 73 -48 120
-84 168 -14 19 -33 58 -41 87 -16 56 -54 96 -138 145 -30 18 -46 34 -46 47 0
23 -35 53 -82 70 -43 16 -45 18 -112 72 -31 25 -92 63 -134 84 -42 21 -90 48
-107 60 -37 28 -160 90 -195 98 -14 4 -43 22 -65 40 -22 19 -54 41 -70 50 -45
23 -151 57 -177 57 -36 0 -66 27 -78 68 -7 27 -28 54 -76 97 -65 58 -110 115
-147 184 l-19 34 14 8 c22 15 51 10 138 -21 47 -16 102 -30 123 -30 21 0 54
-7 74 -15 19 -8 53 -15 75 -15 23 0 67 -13 105 -30 l64 -30 205 0 c159 0 213
-3 241 -15 50 -21 316 -21 366 0 20 8 63 15 95 15 l59 0 40 29 c22 16 60 39
84 51 93 47 138 89 174 161 24 48 35 82 35 113 0 25 5 48 10 51 13 8 13 162 0
170 -6 4 -10 60 -10 135 l0 130 -36 106 c-19 59 -46 123 -60 143 -13 20 -24
42 -24 50 0 8 -16 43 -35 78 -19 35 -35 73 -35 85 0 13 -23 44 -60 79 -32 32
-71 81 -85 110 -27 53 -114 147 -195 209 -25 19 -70 61 -100 92 -34 36 -64 58
-77 58 -12 0 -24 4 -28 10 -16 26 -165 136 -228 167 -40 20 -85 46 -102 59
-16 12 -86 41 -155 63 -69 23 -144 50 -166 61 -62 29 -160 60 -188 60 -14 0
-28 5 -31 10 -4 6 -53 10 -114 10 l-107 0 -23 -40z m1264 -1324 l100 -34 73
-72 c41 -39 86 -92 102 -117 16 -25 47 -62 69 -82 l41 -38 0 -74 0 -74 -29
-62 c-17 -34 -49 -87 -72 -118 l-41 -55 -43 0 c-23 0 -59 -7 -78 -15 -25 -10
-71 -15 -147 -15 -125 0 -165 12 -236 74 -46 40 -140 175 -178 256 l-26 55 0
85 c0 96 2 101 91 198 41 46 63 62 82 62 14 0 54 13 89 30 35 16 72 30 83 30
11 0 65 -15 120 -34z m-700 -1483 c11 -7 30 -13 43 -13 33 0 84 -25 172 -86
42 -28 98 -63 125 -77 28 -14 77 -48 110 -76 33 -28 78 -60 100 -72 57 -31 74
-48 102 -104 14 -27 47 -73 73 -101 49 -54 82 -133 95 -226 7 -56 -5 -67 -44
-39 -16 12 -31 21 -34 21 -18 0 -153 104 -218 166 -42 41 -81 74 -86 74 -18 0
-75 64 -98 111 -15 29 -43 61 -73 82 -79 59 -200 192 -230 254 -21 44 -34 58
-56 64 -30 8 -48 27 -40 41 5 8 30 1 59 -19z"/>
</g>
</svg>
