<?xml version="1.0" standalone="no"?>
<!DOCTYPE svg PUBLIC "-//W3C//DTD SVG 20010904//EN"
 "http://www.w3.org/TR/2001/REC-SVG-20010904/DTD/svg10.dtd">
<svg version="1.0" xmlns="http://www.w3.org/2000/svg"
 width="192.000000pt" height="207.000000pt" viewBox="0 0 192.000000 207.000000"
 preserveAspectRatio="xMidYMid meet">
<metadata>
Created by potrace 1.16, written by Peter Selinger 2001-2019
</metadata>
<g transform="translate(0.000000,207.000000) scale(0.100000,-0.100000)"
fill="#000000" stroke="none">
<path d="M0 2035 l0 -35 23 0 c23 0 111 -28 135 -43 6 -5 12 -16 12 -26 0 -30
33 -51 82 -51 35 0 50 -5 69 -26 13 -14 41 -35 63 -46 21 -11 57 -33 79 -49
22 -16 47 -29 56 -29 22 0 324 -200 376 -249 22 -20 57 -48 77 -61 20 -14 49
-44 65 -69 15 -24 44 -54 65 -67 21 -13 45 -36 55 -51 9 -16 52 -65 94 -110
43 -45 90 -105 105 -135 15 -29 49 -77 76 -107 27 -29 58 -72 70 -95 11 -22
36 -58 55 -79 33 -37 113 -188 113 -213 0 -7 13 -41 30 -76 29 -62 38 -120 21
-146 l-8 -13 -55 16 c-30 8 -73 31 -94 49 -41 35 -114 76 -136 76 -7 0 -34 24
-59 53 -33 38 -68 63 -125 91 -43 21 -99 55 -124 76 -25 20 -64 47 -86 58 -63
32 -173 110 -226 158 -37 34 -55 44 -82 44 -24 0 -47 10 -78 35 -24 19 -64 46
-89 59 -71 38 -179 114 -231 162 -26 24 -54 44 -63 44 -9 0 -36 12 -60 26
l-44 26 -58 -30 c-42 -21 -64 -39 -80 -68 -22 -40 -31 -128 -14 -138 4 -3 11
-18 14 -34 3 -17 23 -43 47 -63 56 -46 100 -91 129 -128 12 -18 62 -57 109
-88 47 -31 99 -69 116 -84 38 -33 229 -99 287 -99 44 0 114 31 140 63 l16 21
64 -27 c35 -15 69 -27 75 -27 6 0 24 -17 41 -37 19 -24 58 -52 109 -77 90 -44
170 -102 202 -145 14 -19 37 -34 62 -41 26 -7 49 -23 66 -46 15 -19 49 -46 75
-60 55 -27 79 -57 79 -96 l0 -28 85 0 c47 0 85 4 85 10 0 5 20 29 45 53 25 25
45 54 45 65 0 12 4 24 10 27 13 8 13 162 0 170 -5 3 -10 19 -10 35 0 15 -13
57 -30 92 -16 34 -30 73 -30 86 0 12 -9 51 -21 85 -15 45 -32 73 -63 102 -24
22 -51 56 -61 75 -26 51 -74 119 -121 170 -22 25 -49 59 -59 75 -11 17 -41 54
-67 83 -26 30 -51 66 -54 80 -13 52 -44 101 -82 128 -21 15 -51 45 -66 66 -15
21 -49 50 -76 63 -27 14 -61 41 -76 60 -14 19 -58 56 -97 82 -39 26 -85 59
-102 73 -55 47 -140 98 -172 105 -17 3 -51 23 -75 44 -45 40 -98 71 -121 71
-16 0 -271 125 -309 151 l-26 19 -96 0 -96 0 0 -35z m299 -1078 c6 -8 37 -26
68 -42 32 -16 72 -40 90 -53 17 -13 48 -28 69 -34 26 -7 57 -30 96 -70 32 -33
58 -64 58 -68 0 -19 -37 -18 -103 2 l-72 23 -50 53 c-27 28 -54 52 -60 52 -6
0 -24 14 -41 31 -16 17 -44 39 -61 51 -31 18 -42 46 -26 61 10 10 19 8 32 -6z"/>
</g>
</svg>
