<?xml version="1.0" standalone="no"?>
<!DOCTYPE svg PUBLIC "-//W3C//DTD SVG 20010904//EN"
 "http://www.w3.org/TR/2001/REC-SVG-20010904/DTD/svg10.dtd">
<svg version="1.0" xmlns="http://www.w3.org/2000/svg"
 width="156.000000pt" height="288.000000pt" viewBox="0 0 156.000000 288.000000"
 preserveAspectRatio="xMidYMid meet">
<metadata>
Created by potrace 1.16, written by Peter Selinger 2001-2019
</metadata>
<g transform="translate(0.000000,288.000000) scale(0.100000,-0.100000)"
fill="#000000" stroke="none">
<path d="M7 2873 c-17 -16 -5 -67 23 -103 22 -28 45 -42 95 -58 36 -12 75 -22
88 -22 12 0 42 -14 67 -30 25 -16 51 -30 58 -30 20 0 82 -30 119 -58 17 -13
47 -28 67 -33 19 -5 48 -24 63 -41 51 -57 78 -84 99 -98 12 -8 36 -36 53 -62
18 -26 46 -58 63 -70 39 -30 87 -77 117 -118 13 -17 41 -43 63 -56 21 -14 44
-37 49 -52 31 -77 54 -119 89 -161 39 -46 100 -163 100 -191 0 -9 11 -32 25
-52 13 -20 41 -84 60 -142 l36 -105 -16 -37 c-8 -20 -15 -47 -15 -61 0 -13
-18 -54 -40 -90 -21 -36 -44 -81 -50 -99 -13 -39 -15 -39 -62 -20 -42 18 -54
31 -70 81 -10 28 -27 48 -65 74 -28 20 -78 62 -111 94 -33 31 -69 57 -79 57
-10 0 -31 9 -48 21 -16 11 -65 38 -107 60 l-78 39 -55 0 c-31 0 -72 7 -92 15
-19 8 -48 15 -63 15 -15 0 -44 -7 -63 -15 -20 -8 -56 -15 -81 -15 l-44 0 -44
-36 c-23 -20 -60 -48 -81 -61 -21 -13 -43 -36 -48 -51 -6 -15 -15 -35 -20 -44
-12 -24 -11 -135 1 -143 6 -3 10 -15 10 -27 0 -35 155 -180 237 -222 40 -20
77 -36 83 -36 6 0 36 -11 66 -25 84 -38 170 -65 209 -65 20 0 52 -7 72 -15 50
-21 257 -21 308 0 29 13 44 14 69 5 23 -7 41 -7 65 1 24 9 35 9 44 0 20 -20
95 -143 132 -216 l35 -69 0 -118 0 -117 -32 -23 c-24 -17 -50 -24 -100 -26
l-68 -4 -47 49 c-27 27 -64 55 -83 62 -19 7 -48 19 -65 28 -93 50 -144 80
-177 104 -21 15 -53 30 -72 33 -18 4 -54 24 -78 45 -24 22 -95 65 -158 97 -63
32 -130 72 -150 89 -65 60 -126 79 -171 55 -47 -26 -1 -120 82 -165 30 -16 91
-54 134 -84 44 -30 114 -71 155 -92 41 -21 97 -56 124 -78 26 -23 56 -41 66
-41 9 0 36 -15 60 -33 129 -96 169 -120 267 -158 12 -4 34 -27 48 -49 14 -22
38 -46 53 -51 15 -6 35 -15 44 -20 10 -5 49 -9 87 -9 l69 0 58 35 c31 19 68
45 82 57 38 36 72 112 72 162 0 25 5 48 10 51 13 8 13 72 0 80 -5 3 -10 26
-10 49 0 24 -7 60 -15 79 -8 20 -15 49 -15 64 0 17 -24 64 -66 125 -63 94 -94
164 -94 215 0 13 23 68 50 123 28 55 50 105 50 112 0 7 14 33 30 58 l30 45 0
121 c0 86 -4 132 -15 157 -8 20 -15 56 -15 79 0 31 -8 56 -30 88 -16 25 -30
51 -30 58 0 22 -97 206 -120 227 -12 11 -40 46 -62 77 -23 32 -56 69 -74 83
-19 15 -46 50 -60 78 -15 29 -52 79 -83 113 -31 34 -72 79 -92 100 -56 62
-150 139 -199 164 -25 12 -66 40 -91 61 -36 30 -77 48 -181 83 -74 24 -148 51
-164 59 -17 9 -59 25 -94 36 -36 12 -73 26 -82 31 -20 11 -101 14 -111 3z
m500 -1518 c19 -8 53 -15 75 -15 54 0 122 -33 154 -76 15 -19 49 -46 74 -59
26 -13 60 -39 76 -57 16 -18 55 -57 87 -87 62 -59 69 -81 35 -105 l-22 -16
-174 0 c-131 0 -181 4 -209 15 -19 8 -47 15 -62 15 -36 0 -279 121 -314 156
-16 15 -35 44 -43 64 l-15 35 12 45 c17 65 24 70 89 70 32 0 73 7 91 15 44 19
101 19 146 0z"/>
</g>
</svg>
