<?xml version="1.0" standalone="no"?>
<!DOCTYPE svg PUBLIC "-//W3C//DTD SVG 20010904//EN"
 "http://www.w3.org/TR/2001/REC-SVG-20010904/DTD/svg10.dtd">
<svg version="1.0" xmlns="http://www.w3.org/2000/svg"
 width="363.000000pt" height="243.000000pt" viewBox="0 0 363.000000 243.000000"
 preserveAspectRatio="xMidYMid meet">
<metadata>
Created by potrace 1.16, written by Peter Selinger 2001-2019
</metadata>
<g transform="translate(0.000000,243.000000) scale(0.100000,-0.100000)"
fill="#000000" stroke="none">
<path d="M1700 2412 c0 -10 7 -28 16 -40 16 -23 102 -72 127 -72 21 0 190 -85
237 -119 24 -17 50 -31 59 -31 28 0 240 -109 279 -144 20 -18 49 -36 64 -40
15 -3 61 -38 102 -76 42 -39 84 -70 94 -70 10 0 33 -17 50 -39 17 -21 66 -67
109 -102 108 -89 257 -234 290 -283 15 -23 55 -71 89 -107 54 -59 78 -95 146
-224 80 -149 96 -237 53 -280 -31 -32 -38 -31 -94 4 -25 16 -58 31 -73 35 -14
3 -50 28 -80 55 -29 26 -72 58 -94 69 -23 12 -77 46 -121 75 -43 30 -102 66
-130 80 -27 14 -74 48 -104 75 -30 27 -74 59 -99 72 -76 38 -161 109 -244 203
l-25 27 -56 0 -57 0 -29 -29 -29 -29 0 -80 0 -79 -28 -39 c-57 -78 -109 -123
-149 -129 -21 -3 -59 -12 -84 -21 -36 -12 -52 -12 -75 -3 -16 6 -84 13 -152
15 -79 3 -135 9 -158 19 -20 8 -66 15 -103 15 -50 0 -94 10 -183 40 -64 21
-135 48 -157 59 -22 12 -51 21 -63 21 -33 0 -220 65 -306 105 -92 44 -273 105
-311 105 -16 0 -34 -7 -41 -14 -40 -50 57 -125 239 -185 66 -22 138 -52 158
-66 21 -14 44 -25 51 -25 8 0 43 -13 79 -30 35 -16 75 -30 89 -30 14 0 41 -7
61 -15 19 -8 47 -15 60 -15 14 0 54 -14 90 -30 35 -17 76 -30 91 -30 15 0 56
-14 90 -30 47 -22 79 -30 118 -30 30 0 71 -7 91 -15 28 -12 81 -15 245 -15
l210 0 91 47 92 47 93 94 92 94 27 -7 c27 -6 80 -44 138 -95 17 -15 42 -30 57
-34 15 -3 39 -22 54 -42 15 -19 43 -44 63 -54 20 -10 92 -56 161 -102 69 -46
146 -96 171 -110 25 -15 58 -43 73 -62 17 -23 40 -39 64 -45 20 -6 61 -22 90
-36 64 -31 142 -33 222 -6 l55 19 22 38 21 39 1 107 c1 61 -3 109 -9 113 -5 3
-10 26 -10 51 0 50 -30 119 -65 146 -12 9 -39 50 -60 90 -21 40 -57 94 -80
119 -24 25 -54 63 -67 85 -25 38 -89 101 -142 137 -14 10 -37 40 -50 66 -28
54 -40 66 -78 75 -15 3 -35 18 -45 33 -55 83 -256 250 -403 335 -25 14 -54 36
-65 48 -20 22 -145 90 -166 90 -18 0 -81 32 -123 62 -21 15 -51 28 -65 28 -43
0 -182 53 -230 88 -24 18 -52 32 -62 32 -10 0 -21 5 -24 10 -3 6 -46 10 -96
10 l-89 0 0 -18z"/>
<path d="M515 1079 c-27 -5 -77 -12 -110 -17 -33 -5 -78 -17 -100 -29 -22 -11
-79 -33 -127 -48 l-88 -27 -35 -39 c-19 -22 -35 -48 -35 -58 0 -11 -5 -23 -10
-26 -13 -8 -14 -298 -1 -323 5 -9 19 -41 32 -71 14 -32 39 -66 61 -84 21 -17
38 -38 38 -46 0 -29 30 -61 88 -92 63 -33 141 -80 214 -128 51 -33 153 -71
192 -71 14 0 28 -4 31 -10 8 -14 462 -14 470 0 3 6 26 10 49 10 24 0 60 7 79
15 20 8 50 15 66 15 l30 0 43 57 c23 32 55 72 71 90 94 102 89 363 -10 465
-19 20 -52 60 -72 90 -29 41 -46 56 -79 67 -24 7 -66 35 -95 61 -50 45 -123
90 -148 90 -6 0 -37 16 -68 35 -32 20 -89 47 -127 60 l-69 25 -120 -2 c-66 0
-142 -5 -170 -9z m385 -177 c90 -44 271 -175 305 -221 19 -27 50 -59 69 -72
56 -38 66 -65 66 -173 0 -99 -13 -151 -47 -189 -23 -25 -213 -117 -242 -117
-13 0 -45 -8 -72 -17 l-49 -18 -49 18 c-27 9 -64 17 -82 17 -35 0 -211 56
-289 91 -59 28 -199 121 -232 156 -15 16 -47 60 -72 98 l-46 70 0 98 c0 122
12 151 86 207 92 69 91 69 369 69 l250 0 35 -17z"/>
</g>
</svg>
