<?xml version="1.0" standalone="no"?>
<!DOCTYPE svg PUBLIC "-//W3C//DTD SVG 20010904//EN"
 "http://www.w3.org/TR/2001/REC-SVG-20010904/DTD/svg10.dtd">
<svg version="1.0" xmlns="http://www.w3.org/2000/svg"
 width="429.000000pt" height="441.000000pt" viewBox="0 0 429.000000 441.000000"
 preserveAspectRatio="xMidYMid meet">
<metadata>
Created by potrace 1.16, written by Peter Selinger 2001-2019
</metadata>
<g transform="translate(0.000000,441.000000) scale(0.100000,-0.100000)"
fill="#000000" stroke="none">
<path d="M7 4403 c-4 -3 -7 -32 -7 -62 l0 -56 49 -18 c28 -10 78 -17 116 -17
53 0 80 -6 132 -30 35 -16 70 -30 76 -30 7 0 32 -14 57 -30 25 -16 51 -30 58
-30 44 0 227 -111 271 -164 7 -9 20 -16 27 -16 8 0 47 -33 87 -72 40 -40 85
-81 100 -91 15 -10 38 -40 51 -66 14 -26 41 -60 61 -75 25 -20 52 -59 91 -138
31 -61 71 -133 89 -160 19 -27 37 -66 40 -86 3 -20 12 -57 20 -82 8 -25 15
-56 15 -70 0 -14 14 -45 30 -70 16 -25 30 -58 30 -73 0 -15 9 -46 21 -68 27
-54 69 -178 69 -207 0 -12 9 -41 21 -64 12 -23 29 -64 39 -92 46 -131 141
-340 182 -396 14 -21 36 -57 49 -81 12 -24 44 -68 71 -98 27 -30 62 -80 78
-112 18 -34 50 -75 80 -101 27 -24 50 -50 50 -58 0 -14 32 -63 120 -186 48
-67 655 -678 705 -709 22 -14 56 -49 75 -78 27 -39 46 -55 75 -65 23 -7 55
-29 75 -51 43 -48 117 -101 141 -101 10 0 27 -13 38 -29 26 -36 133 -110 176
-122 17 -5 49 -24 71 -43 41 -35 114 -76 136 -76 7 0 33 -14 58 -30 25 -16 51
-30 58 -30 8 0 40 -16 71 -35 61 -38 181 -84 218 -85 21 0 83 -20 129 -42 11
-5 34 -8 50 -6 l29 3 3 48 3 47 -28 0 c-15 0 -48 14 -73 30 -25 16 -52 30 -60
30 -9 0 -32 11 -52 25 -20 13 -67 34 -105 46 -37 12 -81 34 -98 50 -30 27
-145 89 -165 89 -22 0 -97 40 -143 77 -26 21 -73 57 -105 81 -31 23 -88 66
-125 95 -37 29 -87 66 -110 82 -38 27 -72 58 -189 172 -18 18 -48 50 -67 73
-18 22 -45 43 -60 47 -32 7 -153 124 -187 180 -14 23 -56 65 -95 94 -46 34
-69 58 -69 71 0 20 -62 86 -113 121 -15 10 -31 33 -36 55 -6 21 -26 53 -46 72
-19 19 -47 52 -62 74 -15 23 -45 62 -68 87 -82 94 -125 148 -125 159 0 18 -42
94 -56 103 -33 19 -91 127 -69 127 15 0 65 -32 77 -49 18 -26 149 -91 183 -91
15 0 56 -13 92 -30 76 -36 121 -38 205 -9 115 38 168 76 168 119 0 8 14 35 30
60 l30 45 0 57 c0 62 -51 231 -97 321 -40 80 -209 237 -253 237 -10 0 -30 16
-45 35 -25 33 -165 115 -197 115 -7 0 -33 14 -58 30 -25 16 -51 30 -58 30 -8
0 -43 14 -79 30 l-64 30 -84 0 c-63 0 -104 -6 -166 -26 -59 -20 -86 -24 -98
-17 -21 13 -59 118 -60 166 -1 51 -37 155 -67 194 -28 37 -84 151 -84 171 0
22 -31 76 -65 112 -18 19 -51 62 -74 96 -23 35 -59 72 -85 89 -24 15 -56 48
-72 72 -15 25 -49 58 -74 75 -25 16 -58 47 -73 69 -16 22 -47 49 -70 61 -23
11 -55 31 -72 44 -46 34 -232 124 -258 124 -52 0 -202 62 -220 91 l-12 19
-136 0 c-74 0 -139 -3 -142 -7z m1928 -1523 c135 -47 362 -171 445 -244 14
-12 37 -30 51 -39 31 -19 107 -129 144 -208 l25 -54 0 -88 0 -88 -25 -24 -24
-25 -87 0 -88 0 -115 56 c-90 44 -126 68 -165 110 -28 30 -75 69 -105 87 -40
24 -57 41 -65 66 -7 23 -26 45 -56 65 -55 38 -113 143 -106 191 3 20 -5 45
-21 74 l-26 44 17 32 c36 66 98 80 201 45z"/>
</g>
</svg>
