<?xml version="1.0" standalone="no"?>
<!DOCTYPE svg PUBLIC "-//W3C//DTD SVG 20010904//EN"
 "http://www.w3.org/TR/2001/REC-SVG-20010904/DTD/svg10.dtd">
<svg version="1.0" xmlns="http://www.w3.org/2000/svg"
 width="231.000000pt" height="228.000000pt" viewBox="0 0 231.000000 228.000000"
 preserveAspectRatio="xMidYMid meet">
<metadata>
Created by potrace 1.16, written by Peter Selinger 2001-2019
</metadata>
<g transform="translate(0.000000,228.000000) scale(0.100000,-0.100000)"
fill="#000000" stroke="none">
<path d="M470 2247 c0 -40 14 -54 98 -96 35 -18 82 -45 104 -62 23 -16 48 -29
56 -29 36 0 141 -64 197 -120 32 -33 68 -60 79 -60 10 0 38 -19 60 -43 23 -24
61 -59 86 -78 25 -19 77 -65 116 -104 39 -38 95 -88 125 -110 29 -22 80 -73
112 -113 32 -39 87 -101 123 -138 35 -36 64 -70 64 -75 0 -5 17 -28 38 -52 51
-55 92 -118 92 -138 0 -9 18 -39 40 -65 22 -27 44 -63 49 -81 5 -18 19 -46 30
-62 12 -16 39 -83 60 -148 22 -65 51 -143 65 -173 l26 -55 0 -83 c0 -89 -17
-144 -50 -162 l-18 -9 -62 60 c-40 39 -78 88 -104 137 l-41 77 -47 25 -47 24
-45 -12 c-63 -16 -159 -15 -203 3 -20 8 -66 15 -105 15 -38 0 -84 7 -105 15
-20 8 -66 15 -105 15 -38 0 -84 7 -105 15 -27 12 -81 15 -240 15 -158 0 -212
3 -240 15 -19 8 -60 15 -90 15 -29 0 -70 7 -90 15 -22 9 -67 15 -120 15 -52 0
-97 6 -120 15 -70 29 -153 8 -153 -40 l0 -25 60 -30 59 -30 86 0 c54 0 99 -6
122 -15 20 -8 66 -15 105 -15 38 0 84 -7 105 -15 20 -8 66 -15 105 -15 38 0
84 -7 105 -15 19 -8 53 -15 75 -15 21 0 55 -7 75 -15 22 -9 67 -15 120 -15 52
0 97 -6 120 -15 23 -10 69 -15 132 -15 55 0 115 -6 141 -14 78 -25 133 -38
190 -45 70 -8 133 -52 186 -129 50 -71 76 -97 153 -149 l61 -43 55 0 55 0 70
51 c75 54 110 105 110 158 0 16 4 33 10 36 12 8 13 132 1 139 -5 3 -11 23 -14
43 -9 69 -59 238 -84 286 -9 17 -29 71 -45 120 -34 108 -41 120 -89 176 -21
24 -41 58 -45 77 -3 18 -27 60 -53 93 -25 33 -66 88 -91 122 -25 34 -71 88
-102 120 -32 32 -58 65 -58 73 0 9 -28 36 -62 60 -35 24 -76 57 -92 74 -35 37
-111 112 -151 151 -16 16 -41 43 -54 61 -13 17 -42 43 -65 57 -22 15 -68 52
-101 84 -35 33 -91 73 -135 95 -41 20 -92 50 -114 65 -21 16 -45 29 -53 29 -8
0 -44 14 -80 30 -35 17 -78 30 -94 30 -19 0 -39 10 -55 25 l-25 25 -84 0 -85
0 0 -33z"/>
</g>
</svg>
