<?xml version="1.0" standalone="no"?>
<!DOCTYPE svg PUBLIC "-//W3C//DTD SVG 20010904//EN"
 "http://www.w3.org/TR/2001/REC-SVG-20010904/DTD/svg10.dtd">
<svg version="1.0" xmlns="http://www.w3.org/2000/svg"
 width="483.000000pt" height="282.000000pt" viewBox="0 0 483.000000 282.000000"
 preserveAspectRatio="xMidYMid meet">
<metadata>
Created by potrace 1.16, written by Peter Selinger 2001-2019
</metadata>
<g transform="translate(0.000000,282.000000) scale(0.100000,-0.100000)"
fill="#000000" stroke="none">
<path d="M0 2794 c0 -48 199 -224 253 -224 8 0 27 -16 41 -35 15 -20 53 -48
84 -64 31 -16 78 -47 105 -68 26 -21 73 -57 105 -81 31 -23 82 -61 112 -84 93
-72 164 -118 183 -118 10 0 30 -20 47 -47 50 -82 61 -94 90 -100 17 -3 40 -20
55 -39 15 -19 53 -48 85 -64 32 -16 91 -60 132 -97 40 -38 88 -75 106 -82 l33
-14 54 13 c60 14 79 30 89 74 4 17 16 42 27 58 l20 28 115 0 c79 0 126 -5 151
-15 23 -10 69 -15 132 -15 96 0 188 -22 269 -64 50 -26 150 -56 187 -56 20 0
52 -7 72 -15 19 -8 47 -15 62 -15 14 0 46 -14 71 -30 25 -16 52 -30 60 -30 8
0 42 -13 76 -29 34 -16 75 -32 92 -36 17 -3 57 -24 89 -46 32 -21 64 -39 71
-39 7 0 43 -18 80 -40 37 -23 78 -44 92 -47 26 -6 116 -56 211 -117 30 -20 62
-36 70 -36 8 0 52 -25 98 -55 45 -31 105 -67 133 -81 69 -35 149 -118 187
-192 21 -42 43 -69 73 -89 28 -18 54 -48 73 -84 17 -30 46 -75 66 -100 20 -24
46 -63 58 -86 11 -23 38 -54 60 -70 21 -15 49 -43 62 -63 13 -19 48 -62 79
-95 31 -33 82 -99 113 -147 31 -47 76 -102 100 -122 l44 -36 69 0 69 0 13 27
c14 31 17 244 3 271 -4 9 -18 38 -30 64 -11 27 -40 72 -63 102 -24 30 -67 86
-97 125 -65 85 -163 183 -213 214 -20 12 -55 44 -78 70 -24 26 -64 59 -90 72
-51 26 -166 102 -217 144 -17 14 -43 34 -57 44 -15 10 -38 40 -51 68 -14 27
-55 92 -90 145 -35 53 -67 111 -71 130 -3 19 -21 52 -39 74 -18 21 -66 90
-108 152 -41 62 -87 124 -101 137 -14 14 -26 32 -26 40 0 17 -53 99 -111 172
-19 24 -42 55 -51 69 -8 14 -35 38 -59 53 -24 16 -57 46 -72 68 -30 41 -79 72
-135 84 -17 3 -54 21 -80 40 -26 18 -67 42 -90 54 l-41 21 -94 0 -94 0 -16
-18 c-23 -25 -22 -85 1 -105 14 -13 38 -17 103 -17 124 0 175 -21 259 -106 37
-38 79 -77 94 -87 14 -10 36 -37 47 -60 12 -23 36 -58 54 -77 18 -19 65 -83
105 -142 39 -59 84 -117 101 -128 16 -12 29 -28 29 -36 0 -23 30 -75 65 -115
31 -35 85 -130 85 -150 0 -17 -42 -9 -104 20 -34 16 -76 32 -93 35 -18 4 -52
25 -76 47 -30 26 -55 39 -74 39 -30 0 -192 78 -281 134 -29 19 -91 46 -138 61
-47 15 -121 45 -165 66 -44 22 -91 39 -105 39 -13 0 -41 7 -61 15 -19 8 -45
15 -56 15 -11 0 -82 20 -156 44 -182 59 -213 67 -301 75 -41 4 -85 13 -97 19
-14 8 -81 12 -197 12 l-175 0 -80 -26 -81 -26 -44 17 c-24 9 -73 41 -108 71
-35 30 -93 70 -130 89 -69 36 -100 65 -140 125 -16 23 -38 40 -67 50 -32 11
-53 27 -76 60 -21 31 -43 49 -69 57 -21 7 -92 50 -159 94 -67 45 -137 86 -154
91 -19 5 -44 24 -59 44 -15 19 -46 45 -68 56 -22 11 -64 38 -93 59 l-52 39
-66 0 -65 0 0 -26z m4460 -2256 c0 -14 -37 -9 -50 7 -7 8 -9 22 -6 31 l7 17
24 -23 c14 -13 25 -27 25 -32z"/>
</g>
</svg>
