<?xml version="1.0" standalone="no"?>
<!DOCTYPE svg PUBLIC "-//W3C//DTD SVG 20010904//EN"
 "http://www.w3.org/TR/2001/REC-SVG-20010904/DTD/svg10.dtd">
<svg version="1.0" xmlns="http://www.w3.org/2000/svg"
 width="795.000000pt" height="204.000000pt" viewBox="0 0 795.000000 204.000000"
 preserveAspectRatio="xMidYMid meet">
<metadata>
Created by potrace 1.16, written by Peter Selinger 2001-2019
</metadata>
<g transform="translate(0.000000,204.000000) scale(0.100000,-0.100000)"
fill="#000000" stroke="none">
<path d="M5374 2005 c-9 -51 7 -65 74 -65 63 0 152 -27 262 -81 41 -20 87 -39
102 -42 14 -4 50 -28 80 -54 59 -53 126 -102 176 -127 35 -18 125 -101 268
-249 54 -56 104 -126 104 -147 0 -9 21 -44 48 -78 26 -33 63 -81 82 -106 19
-25 41 -62 48 -82 7 -20 22 -49 33 -65 l21 -30 -13 -15 -12 -15 -246 5 c-135
2 -255 5 -266 6 -11 1 -41 -2 -68 -6 -33 -5 -60 -2 -90 9 -23 8 -71 18 -107
21 -36 3 -90 10 -120 15 -30 5 -275 10 -543 10 l-488 1 -36 15 -35 15 -267 0
-266 0 -45 30 c-25 16 -52 30 -60 30 -8 0 -35 14 -60 30 -25 16 -56 30 -69 30
-14 0 -85 20 -158 45 -73 25 -147 45 -166 45 -18 0 -71 13 -117 30 -47 16
-102 30 -123 30 -21 0 -54 7 -74 15 l-35 15 -568 0 -568 0 -35 -15 c-20 -8
-53 -15 -74 -15 -21 0 -76 -14 -123 -30 -46 -17 -94 -30 -106 -30 -13 0 -52
-13 -87 -30 -36 -17 -70 -30 -76 -30 -27 0 -110 -52 -137 -85 -16 -20 -41 -49
-56 -66 l-26 -29 -147 0 c-107 0 -155 4 -182 15 l-35 15 -265 0 -264 0 -36 15
c-27 12 -80 15 -229 15 l-194 0 0 -40 0 -39 30 -16 c19 -10 57 -15 115 -15 53
0 99 -6 122 -15 20 -8 66 -15 105 -15 38 0 84 -7 105 -15 20 -8 66 -15 105
-15 38 0 84 -7 105 -15 28 -12 82 -15 255 -15 172 0 226 -3 255 -15 19 -8 61
-15 92 -15 69 0 93 -15 125 -79 14 -27 82 -107 159 -186 l134 -140 109 -54
c60 -30 123 -64 139 -76 45 -34 111 -65 137 -65 31 0 136 -37 168 -60 66 -46
108 -60 184 -60 41 0 78 -5 81 -10 8 -13 282 -13 290 0 3 6 14 10 23 10 10 0
49 22 87 48 l70 48 17 54 18 53 -15 52 c-9 29 -27 63 -41 76 -15 13 -46 50
-71 81 -24 32 -51 58 -60 58 -21 0 -81 29 -127 62 -21 15 -45 28 -53 28 -8 0
-44 14 -80 30 -35 17 -74 30 -87 30 -39 0 -180 55 -225 88 -25 18 -56 32 -73
32 -16 0 -45 7 -65 15 -19 8 -60 15 -90 15 -29 0 -70 7 -90 15 -19 8 -60 15
-90 15 -29 0 -70 7 -90 15 -19 8 -45 15 -57 15 -25 0 -126 41 -126 51 0 4 10
11 23 15 12 4 38 19 57 33 67 50 181 91 256 91 28 0 68 7 87 15 20 8 53 15 73
15 20 0 58 8 85 17 l49 18 49 -18 c60 -21 117 -22 164 -2 53 22 481 22 534 0
23 -10 69 -15 135 -15 65 0 111 -5 135 -15 19 -8 65 -15 101 -15 52 0 96 -10
216 -50 156 -52 186 -71 186 -116 0 -14 9 -53 21 -87 25 -77 89 -145 205 -223
45 -29 93 -69 108 -89 l27 -35 45 0 c30 0 69 -11 111 -30 75 -35 124 -38 200
-11 80 27 83 32 83 127 l0 83 -60 68 c-33 37 -59 72 -57 78 5 15 598 19 663 4
39 -9 60 -9 86 0 27 9 42 9 64 -1 21 -10 144 -15 454 -20 234 -4 452 -10 485
-13 33 -3 179 -9 325 -13 182 -5 272 -11 287 -19 12 -7 34 -13 48 -13 39 0 56
-12 163 -111 53 -50 118 -101 144 -115 26 -13 59 -40 74 -60 26 -34 89 -74
116 -74 7 0 33 -14 58 -30 25 -16 52 -30 60 -30 8 0 35 -14 60 -30 25 -16 51
-30 58 -30 8 0 43 -13 79 -30 107 -50 203 -40 276 28 l27 26 0 61 0 62 -55 60
c-30 34 -79 75 -109 92 -30 16 -64 44 -76 61 -24 34 -106 80 -142 80 -26 0
-152 41 -195 64 -63 32 -245 86 -292 86 -28 0 -60 4 -73 9 -27 10 -188 166
-188 182 0 19 -43 94 -80 139 -50 61 -100 143 -100 164 0 9 -20 38 -44 64 -24
26 -54 63 -67 82 -40 58 -130 170 -138 170 -4 0 -37 26 -74 58 -116 99 -176
142 -250 179 -70 35 -169 104 -196 137 -8 10 -29 16 -55 16 -39 0 -137 28
-153 43 -3 4 -68 7 -144 7 l-138 0 -7 -35z m-1276 -1240 c20 -14 44 -25 53
-25 8 0 30 -18 47 -39 17 -21 52 -49 77 -61 55 -27 72 -52 49 -74 -20 -21 -22
-21 -74 14 -25 16 -58 30 -73 30 -43 0 -61 14 -106 81 -63 94 -51 127 27 74z
m-2298 -69 c76 -24 132 -37 195 -46 33 -5 92 -20 130 -34 39 -14 82 -26 96
-26 15 0 37 -12 54 -30 20 -21 38 -30 60 -30 16 0 47 -11 67 -25 20 -14 72
-36 115 -50 95 -30 110 -38 193 -94 123 -83 130 -90 130 -128 0 -19 -5 -43
-10 -54 l-11 -19 -190 0 c-146 0 -198 3 -226 15 -19 8 -47 15 -62 15 -14 0
-39 9 -56 21 -61 41 -181 96 -222 102 -24 3 -53 13 -66 24 -13 10 -48 37 -78
61 -30 24 -83 67 -119 95 -89 71 -128 113 -145 154 -11 27 -12 39 -4 49 15 18
92 18 149 0z m5665 -196 c66 -31 132 -60 146 -63 29 -7 89 -69 89 -92 0 -11
-11 -13 -52 -8 -66 7 -103 24 -202 91 -43 30 -94 59 -113 64 -34 9 -69 50 -58
67 10 18 66 1 190 -59z"/>
</g>
</svg>
