<?xml version="1.0" standalone="no"?>
<!DOCTYPE svg PUBLIC "-//W3C//DTD SVG 20010904//EN"
 "http://www.w3.org/TR/2001/REC-SVG-20010904/DTD/svg10.dtd">
<svg version="1.0" xmlns="http://www.w3.org/2000/svg"
 width="693.000000pt" height="255.000000pt" viewBox="0 0 693.000000 255.000000"
 preserveAspectRatio="xMidYMid meet">
<metadata>
Created by potrace 1.16, written by Peter Selinger 2001-2019
</metadata>
<g transform="translate(0.000000,255.000000) scale(0.100000,-0.100000)"
fill="#000000" stroke="none">
<path d="M4385 2540 c-3 -5 -19 -10 -34 -10 -36 0 -64 -22 -59 -46 l3 -19 55
-1 c30 0 73 -4 95 -9 58 -11 421 -131 483 -161 79 -36 154 -97 196 -158 21
-30 53 -67 72 -81 19 -14 44 -45 55 -68 12 -23 36 -58 54 -77 49 -53 103 -136
110 -172 10 -47 32 -87 75 -136 21 -23 43 -61 49 -85 14 -54 58 -130 110 -189
22 -25 41 -50 41 -56 0 -5 9 -31 21 -57 l21 -48 -13 -8 c-21 -13 -66 -11 -106
6 -20 8 -66 15 -105 15 -38 0 -84 7 -105 15 -22 9 -67 15 -117 15 -44 0 -101
6 -126 14 -85 27 -134 35 -152 25 -10 -5 -27 -28 -39 -50 l-20 -41 10 -30 c16
-45 13 -125 -5 -163 -9 -19 -41 -53 -72 -76 -32 -23 -69 -53 -84 -67 -28 -26
-204 -92 -246 -92 -12 0 -41 -9 -63 -21 -64 -32 -181 -69 -220 -69 -20 0 -53
-7 -72 -15 -23 -9 -68 -15 -120 -15 -51 0 -98 -6 -119 -15 l-35 -14 -394 -2
-394 -2 -39 17 -38 16 -235 0 c-185 0 -241 3 -270 15 -19 8 -52 15 -72 15 -20
0 -56 6 -81 14 -60 19 -125 35 -182 46 -26 5 -56 13 -67 19 -11 6 -38 11 -61
11 -22 0 -57 7 -77 15 -22 9 -68 15 -122 15 l-86 0 -36 24 c-40 28 -146 66
-181 66 -38 0 -171 72 -187 101 l-15 26 32 50 32 50 0 62 0 61 -54 109 c-37
74 -66 117 -91 137 -20 16 -64 56 -99 89 -58 56 -167 125 -197 125 -8 0 -34
14 -59 30 -25 16 -52 30 -60 30 -8 0 -44 14 -78 30 l-64 30 -208 0 -208 0 -64
-30 c-34 -16 -69 -30 -76 -30 -22 0 -136 -61 -164 -88 l-28 -26 0 -91 0 -92
38 -41 c22 -23 48 -42 59 -42 11 0 30 -12 44 -26 13 -14 41 -35 63 -46 21 -11
57 -33 79 -49 22 -16 48 -29 57 -29 9 0 58 -20 109 -45 51 -25 98 -45 104 -45
7 0 29 -11 48 -24 40 -27 146 -66 180 -66 12 0 56 -16 98 -36 42 -20 136 -58
210 -83 l135 -46 30 -43 c17 -24 45 -51 62 -61 30 -18 140 -177 227 -326 l38
-66 -11 -33 c-6 -18 -31 -61 -56 -95 l-46 -61 -113 0 c-62 0 -120 -3 -129 -6
-20 -8 -20 -36 -1 -74 24 -46 52 -60 122 -60 34 0 65 -4 68 -10 14 -23 92 -10
150 25 76 45 89 58 141 136 l44 65 0 77 c0 62 -5 87 -24 125 -13 26 -29 66
-35 89 -7 25 -22 50 -37 60 -65 46 -84 66 -84 89 0 33 23 40 73 20 24 -9 61
-16 82 -16 24 0 66 -12 103 -30 35 -17 80 -30 100 -30 21 0 57 -6 82 -14 94
-30 138 -38 225 -45 50 -4 100 -12 112 -19 12 -7 32 -12 45 -12 13 0 43 -6 68
-14 100 -31 140 -39 255 -47 66 -4 154 -13 195 -18 41 -5 130 -10 198 -10 85
-1 134 -6 159 -16 52 -22 494 -22 546 0 24 10 70 15 137 15 59 0 110 5 123 12
12 6 56 15 97 19 83 8 121 17 255 60 50 16 99 29 108 29 31 0 140 41 212 79
120 64 129 69 170 86 22 9 66 33 98 53 31 20 72 46 89 57 20 13 35 34 43 60
18 61 62 142 87 159 28 20 88 20 135 1 20 -8 66 -15 105 -15 38 0 84 -7 105
-15 19 -8 59 -15 87 -15 74 0 216 -51 299 -107 21 -15 50 -43 65 -63 46 -63
206 -231 233 -245 15 -8 51 -36 80 -63 80 -73 189 -123 349 -160 l45 -11 35
21 c19 12 53 24 75 27 l40 6 22 40 c23 42 30 100 13 110 -5 3 -10 26 -10 51 0
64 -29 112 -104 172 l-67 52 -112 36 -112 37 -36 40 -36 40 -41 -7 c-47 -7
-97 3 -229 45 -51 16 -103 29 -116 29 -28 0 -47 17 -47 44 0 10 -19 37 -42 59
-43 40 -103 127 -154 222 -14 28 -36 64 -49 80 -12 17 -39 64 -60 105 -21 41
-53 93 -71 114 -19 22 -38 55 -43 74 -6 18 -21 48 -34 65 -13 18 -34 52 -47
77 -33 66 -78 128 -133 186 -27 28 -65 76 -86 105 -29 42 -46 57 -78 67 -24 8
-75 43 -122 83 l-80 69 -38 0 c-22 0 -77 13 -123 30 -47 16 -96 30 -108 30
-13 0 -53 14 -89 30 -35 17 -77 30 -93 30 -16 0 -32 5 -35 10 -3 6 -35 10 -70
10 -35 0 -67 -4 -70 -10z m-3728 -915 c19 -8 60 -15 90 -15 59 0 135 -32 253
-105 30 -18 71 -43 90 -55 39 -23 125 -145 166 -234 l26 -58 -11 -24 c-6 -14
-18 -27 -26 -30 -21 -8 -111 30 -170 71 l-49 35 -69 0 -70 0 -38 -40 c-21 -22
-41 -40 -44 -40 -3 0 -23 11 -43 25 -20 14 -48 25 -62 25 -55 0 -221 68 -285
115 -16 13 -68 42 -115 65 -151 75 -160 89 -121 176 22 48 54 74 92 74 15 0
42 7 60 15 48 20 276 21 326 0z m5678 -795 c64 -16 143 -46 215 -80 41 -20 87
-40 101 -43 58 -14 131 -126 109 -167 -8 -15 -21 -20 -48 -20 -66 0 -138 31
-302 130 -20 12 -46 38 -60 58 -13 20 -37 53 -52 73 -32 43 -38 75 -10 64 9
-4 31 -11 47 -15z"/>
</g>
</svg>
