<?xml version="1.0" standalone="no"?>
<!DOCTYPE svg PUBLIC "-//W3C//DTD SVG 20010904//EN"
 "http://www.w3.org/TR/2001/REC-SVG-20010904/DTD/svg10.dtd">
<svg version="1.0" xmlns="http://www.w3.org/2000/svg"
 width="792.000000pt" height="264.000000pt" viewBox="0 0 792.000000 264.000000"
 preserveAspectRatio="xMidYMid meet">
<metadata>
Created by potrace 1.16, written by Peter Selinger 2001-2019
</metadata>
<g transform="translate(0.000000,264.000000) scale(0.100000,-0.100000)"
fill="#000000" stroke="none">
<path d="M5930 2607 c0 -42 26 -67 68 -67 18 0 81 -25 151 -60 66 -33 130 -60
143 -60 29 0 153 -42 207 -69 22 -12 46 -21 53 -21 7 0 30 -11 49 -25 20 -13
65 -38 100 -56 101 -50 319 -199 376 -256 29 -29 60 -53 69 -53 9 0 46 -32 82
-71 43 -46 75 -72 95 -76 21 -4 38 -19 57 -50 15 -24 48 -63 71 -87 40 -39 63
-68 166 -212 27 -38 103 -243 103 -279 0 -22 -56 -64 -115 -84 -70 -25 -142
-27 -192 -6 -26 11 -74 15 -180 15 -105 0 -153 4 -180 15 -19 8 -65 15 -102
15 -49 0 -90 8 -151 30 -47 16 -102 30 -123 30 -21 0 -54 7 -74 15 -20 8 -66
15 -105 15 -38 0 -84 7 -105 15 -27 12 -79 15 -225 15 -145 0 -197 3 -225 15
-19 8 -60 15 -90 15 -29 0 -70 7 -90 15 -19 8 -60 15 -90 15 -29 0 -70 7 -90
15 -19 8 -53 15 -75 15 -21 0 -55 7 -75 15 -22 9 -67 15 -120 15 -52 0 -97 6
-120 15 -25 11 -72 15 -165 15 -92 0 -139 4 -165 15 -79 33 -161 3 -202 -76
l-25 -46 23 -69 c16 -48 35 -82 65 -114 63 -68 119 -159 107 -174 -6 -7 -37
-21 -68 -31 -32 -11 -66 -26 -75 -34 -26 -21 -22 -71 12 -143 16 -34 30 -68
30 -74 0 -7 14 -41 30 -77 l31 -65 -3 -73 -3 -73 -75 -48 c-117 -74 -212 -118
-258 -118 -22 0 -56 -7 -77 -16 -28 -11 -77 -16 -199 -16 -110 -1 -171 -5
-193 -15 -23 -9 -86 -13 -221 -13 -149 0 -198 -3 -227 -15 -29 -13 -44 -14
-69 -5 -23 7 -41 7 -64 -1 -34 -12 -135 -7 -232 10 -30 5 -119 10 -198 10
-103 1 -153 5 -179 16 -23 10 -69 15 -135 15 -65 0 -111 5 -135 15 -19 8 -59
15 -87 15 -28 0 -71 6 -96 14 -77 24 -133 37 -190 45 -30 4 -71 12 -90 18 -67
21 -125 35 -185 42 -34 5 -70 13 -82 19 -12 7 -35 12 -52 12 -56 0 -68 60 -21
105 l30 29 0 78 0 78 -51 103 c-28 56 -70 122 -93 147 -24 25 -51 59 -61 75
-32 51 -68 86 -115 110 -25 13 -86 51 -135 84 -50 34 -97 61 -105 61 -9 0 -85
34 -169 75 -112 55 -163 75 -192 75 -22 0 -56 7 -76 15 -20 8 -66 15 -105 15
-38 0 -84 7 -105 15 -46 20 -170 20 -216 0 -20 -8 -52 -15 -71 -15 -66 0 -163
-39 -201 -81 -19 -22 -35 -48 -35 -58 0 -11 -5 -23 -10 -26 -13 -8 -13 -132 0
-140 6 -3 10 -14 10 -24 0 -23 116 -168 177 -220 50 -43 151 -101 175 -101 7
0 51 -25 97 -56 101 -67 392 -214 423 -214 26 0 152 -41 195 -64 39 -20 239
-86 261 -86 10 0 56 -13 102 -30 47 -16 94 -30 104 -30 11 0 80 -20 153 -45
73 -25 148 -45 168 -45 20 0 52 -7 72 -15 19 -8 60 -15 90 -15 29 0 70 -7 90
-15 19 -8 45 -15 57 -15 27 0 123 -32 194 -66 l53 -24 89 0 c49 0 92 -4 95
-10 10 -16 1477 -14 1493 2 10 10 17 10 32 0 24 -14 136 -16 145 -2 3 6 26 10
49 10 24 0 60 7 79 15 20 8 47 15 61 15 13 0 53 13 88 30 34 16 68 30 75 30 6
0 41 13 76 30 36 16 72 30 80 30 18 0 118 123 147 181 30 57 23 125 -27 282
-15 47 -11 97 7 97 5 0 35 -11 66 -25 31 -14 62 -25 68 -25 6 0 31 -14 56 -30
25 -16 51 -30 58 -30 28 0 148 -63 192 -99 48 -40 120 -81 143 -81 7 0 24 -12
38 -26 29 -31 90 -64 119 -64 12 0 35 13 51 29 22 22 29 39 29 68 0 51 -20 78
-82 109 -27 14 -68 39 -91 55 -24 17 -53 29 -72 29 -21 0 -40 9 -56 26 -13 14
-37 33 -54 41 -83 42 -186 121 -211 161 -16 24 -52 59 -81 79 -61 40 -105 89
-157 173 l-37 60 11 20 11 20 85 0 c53 0 98 -6 121 -15 27 -11 77 -15 210 -15
132 0 182 -4 210 -15 19 -8 53 -15 75 -15 21 0 55 -7 75 -15 19 -8 52 -15 72
-15 20 0 75 -13 121 -30 47 -16 101 -30 120 -30 73 0 204 -62 293 -138 17 -16
52 -40 77 -54 25 -14 54 -36 65 -48 27 -29 59 -45 156 -77 45 -14 117 -43 161
-64 92 -45 122 -48 186 -15 89 46 121 101 126 221 0 17 5 36 9 42 11 18 100
16 144 -2 22 -9 67 -15 120 -15 52 0 97 -6 120 -15 27 -11 77 -15 205 -15
l170 0 29 29 c16 16 29 39 29 50 0 11 5 23 10 26 6 3 10 28 10 55 0 27 -4 52
-10 55 -5 3 -10 32 -10 64 0 32 -7 75 -15 94 -8 20 -15 49 -15 64 0 15 -14 48
-30 73 -16 25 -30 52 -30 60 0 8 -30 59 -67 115 -70 106 -285 335 -357 382
-22 14 -60 44 -85 67 -25 24 -80 64 -121 91 -41 27 -95 68 -120 90 -55 49
-121 95 -179 124 -24 13 -62 36 -84 52 -24 17 -53 29 -71 29 -17 0 -60 14 -94
30 -35 17 -73 30 -85 30 -31 0 -143 40 -230 82 -50 25 -92 38 -118 38 -22 0
-56 7 -76 15 -19 8 -48 15 -64 15 -15 0 -31 5 -34 10 -3 6 -26 10 -51 10 l-44
0 0 -33z m-5390 -1337 c18 -14 41 -20 83 -20 32 0 74 -7 94 -15 19 -8 53 -15
75 -15 23 0 67 -13 105 -30 35 -16 70 -30 76 -30 7 0 28 -11 48 -24 19 -13 85
-49 146 -80 97 -49 173 -105 173 -128 0 -4 24 -26 54 -48 53 -40 152 -172 175
-233 14 -36 14 -142 1 -168 l-11 -19 -115 0 c-79 0 -126 5 -151 15 -19 8 -45
15 -57 15 -30 0 -135 38 -167 60 -14 11 -88 40 -165 65 -76 25 -160 58 -185
73 -26 15 -70 41 -99 57 -92 53 -302 195 -349 236 -25 22 -54 54 -63 72 -24
43 -24 137 0 165 26 32 97 54 202 62 52 3 97 7 100 8 3 1 16 -7 30 -18z m6027
-245 c19 -8 60 -15 90 -15 63 0 106 -17 181 -73 53 -40 62 -60 42 -98 -8 -14
-21 -19 -53 -19 l-43 0 -29 30 c-16 17 -36 30 -44 30 -27 0 -201 91 -211 110
-7 14 -6 23 6 34 19 19 17 19 61 1z"/>
</g>
</svg>
