<?xml version="1.0" standalone="no"?>
<!DOCTYPE svg PUBLIC "-//W3C//DTD SVG 20010904//EN"
 "http://www.w3.org/TR/2001/REC-SVG-20010904/DTD/svg10.dtd">
<svg version="1.0" xmlns="http://www.w3.org/2000/svg"
 width="405.000000pt" height="294.000000pt" viewBox="0 0 405.000000 294.000000"
 preserveAspectRatio="xMidYMid meet">
<metadata>
Created by potrace 1.16, written by Peter Selinger 2001-2019
</metadata>
<g transform="translate(0.000000,294.000000) scale(0.100000,-0.100000)"
fill="#000000" stroke="none">
<path d="M7 2933 c-11 -10 -8 -101 3 -108 5 -3 10 -26 10 -50 0 -24 -5 -47
-10 -50 -6 -3 -10 -39 -10 -80 l0 -73 39 -63 c78 -129 163 -250 187 -265 13
-9 37 -38 53 -65 22 -35 44 -55 80 -74 28 -13 58 -36 68 -51 42 -59 69 -87
107 -112 23 -14 68 -51 101 -82 33 -32 80 -68 105 -80 51 -26 136 -87 164
-119 11 -11 26 -21 35 -21 36 -1 101 -41 174 -109 59 -55 84 -71 106 -71 43 0
75 -14 118 -53 43 -39 141 -91 191 -102 17 -3 54 -22 81 -40 46 -32 240 -105
278 -105 28 0 146 -42 177 -63 l28 -20 -6 -56 c-9 -74 -9 -85 1 -161 10 -73
26 -108 86 -187 64 -83 207 -232 251 -260 22 -14 60 -45 85 -68 25 -23 65 -52
87 -63 23 -12 77 -46 121 -76 44 -29 113 -71 153 -91 41 -20 97 -55 126 -76
l53 -39 113 0 113 0 56 63 c102 113 118 172 78 290 -36 106 -137 297 -183 347
-24 26 -55 65 -69 87 -16 25 -46 52 -80 71 -30 17 -57 38 -60 46 -16 41 61 60
130 31 23 -10 69 -15 135 -15 65 0 111 -5 135 -15 20 -8 66 -15 105 -15 38 0
84 -7 105 -15 19 -8 53 -15 75 -15 21 0 55 -7 75 -15 86 -36 188 -5 230 70 18
32 23 56 23 117 0 42 4 80 10 83 6 3 10 35 10 70 0 35 -4 67 -10 70 -5 3 -10
33 -10 66 l0 61 -36 71 c-20 40 -46 86 -58 102 -13 17 -33 50 -46 75 -21 43
-76 108 -194 230 -29 30 -58 65 -65 78 -7 12 -31 34 -54 49 -23 14 -82 65
-132 113 -49 47 -103 94 -118 104 -15 9 -67 52 -115 95 -85 76 -137 111 -165
111 -8 0 -48 34 -90 75 -42 41 -82 75 -89 75 -20 0 -135 56 -171 84 -36 27
-322 126 -366 126 -32 0 -61 -27 -61 -57 0 -22 29 -53 51 -53 22 0 131 -54
179 -89 24 -17 50 -31 59 -31 54 0 282 -145 371 -236 30 -31 76 -66 101 -79
25 -13 92 -67 150 -120 57 -52 135 -116 172 -141 38 -26 79 -63 92 -84 13 -20
38 -48 55 -61 18 -13 46 -39 63 -57 18 -18 58 -59 90 -92 31 -32 57 -65 57
-72 0 -7 26 -51 58 -98 90 -133 92 -139 92 -289 l0 -130 -19 -11 c-12 -6 -128
-10 -306 -10 l-286 0 -36 15 c-24 10 -71 15 -149 15 -65 0 -125 5 -141 12 -15
7 -84 16 -153 20 -239 15 -282 22 -395 62 -38 14 -86 26 -105 26 -36 0 -156
37 -208 64 -38 20 -147 56 -169 56 -35 0 -168 51 -208 79 -56 40 -108 64 -199
92 -55 17 -92 36 -126 65 -26 22 -61 45 -76 51 -16 6 -50 18 -75 27 -26 9 -73
40 -105 70 -33 29 -79 63 -104 76 -25 12 -65 39 -89 59 -25 20 -70 50 -100 66
-36 19 -66 45 -84 73 -16 23 -43 50 -60 59 -40 20 -307 282 -344 337 -15 22
-44 61 -64 86 -19 25 -50 68 -67 96 l-32 51 0 70 c0 40 -6 86 -15 106 -8 20
-15 49 -15 65 0 38 -46 82 -86 82 -17 0 -34 -3 -37 -7z m2645 -2023 c149 -50
210 -81 244 -125 14 -19 58 -56 96 -81 51 -34 79 -62 108 -108 22 -33 40 -68
40 -77 0 -9 13 -34 28 -55 50 -70 64 -112 66 -194 1 -98 -7 -110 -83 -110 -77
0 -124 24 -368 186 -153 103 -211 147 -229 176 -14 21 -37 44 -52 49 -51 21
-57 26 -93 93 -20 37 -49 80 -64 96 l-29 30 0 56 -1 56 28 24 28 24 82 0 82 0
117 -40z"/>
</g>
</svg>
