<?xml version="1.0" standalone="no"?>
<!DOCTYPE svg PUBLIC "-//W3C//DTD SVG 20010904//EN"
 "http://www.w3.org/TR/2001/REC-SVG-20010904/DTD/svg10.dtd">
<svg version="1.0" xmlns="http://www.w3.org/2000/svg"
 width="858.000000pt" height="231.000000pt" viewBox="0 0 858.000000 231.000000"
 preserveAspectRatio="xMidYMid meet">
<metadata>
Created by potrace 1.16, written by Peter Selinger 2001-2019
</metadata>
<g transform="translate(0.000000,231.000000) scale(0.100000,-0.100000)"
fill="#000000" stroke="none">
<path d="M1865 2300 c-3 -5 -24 -10 -46 -10 -22 0 -67 -9 -100 -20 -94 -32
-250 -112 -268 -138 -9 -13 -38 -51 -64 -85 l-49 -62 5 -105 c3 -58 6 -113 8
-124 7 -33 -25 -43 -80 -23 l-49 17 -611 0 -611 0 0 -53 0 -52 49 -18 c27 -9
65 -17 85 -17 20 0 53 -7 73 -15 27 -12 79 -15 225 -15 145 0 197 -3 225 -15
24 -10 69 -15 138 -15 69 0 114 5 138 15 20 8 59 15 87 15 28 0 67 -7 87 -15
28 -12 82 -15 248 -15 l212 0 25 19 c13 11 32 37 42 59 l18 39 -18 34 c-9 19
-32 56 -50 82 -61 89 -54 155 25 216 39 30 101 61 122 61 7 0 25 12 41 27 15
14 51 34 80 45 l52 18 436 0 c348 0 444 -3 480 -14 94 -30 138 -38 225 -45 50
-4 100 -12 112 -19 12 -7 46 -12 75 -12 29 0 73 -6 98 -14 86 -27 136 -38 210
-46 48 -5 94 -17 127 -34 29 -14 65 -26 79 -26 14 0 55 -13 91 -30 35 -16 75
-30 89 -30 14 0 41 -7 61 -15 19 -8 53 -15 75 -15 21 0 55 -7 75 -15 19 -8 47
-15 60 -15 14 0 54 -13 90 -30 35 -16 69 -30 75 -30 5 0 39 -13 75 -30 35 -16
76 -30 91 -30 15 0 47 -14 72 -30 25 -16 52 -30 60 -30 8 0 35 -14 60 -30 25
-16 50 -30 57 -30 26 0 83 -34 83 -49 0 -9 -20 -28 -45 -43 -52 -31 -85 -89
-85 -148 0 -61 36 -157 80 -209 21 -25 50 -70 64 -98 17 -35 40 -61 66 -78 22
-14 51 -42 64 -63 26 -41 86 -99 128 -125 14 -9 39 -36 55 -59 20 -30 40 -47
67 -56 22 -7 61 -35 90 -65 29 -28 70 -61 91 -71 58 -28 57 -27 119 -77 62
-50 233 -138 309 -159 l47 -13 48 13 c106 29 163 71 215 160 15 25 38 58 52
73 l25 28 37 -7 c58 -10 149 -55 248 -123 49 -33 97 -61 105 -61 8 0 35 -14
60 -30 25 -16 52 -30 60 -30 8 0 35 -14 60 -30 25 -16 52 -30 60 -30 8 0 57
-20 108 -45 52 -25 99 -45 106 -45 6 0 28 -11 47 -24 56 -38 150 -66 224 -66
36 0 82 -7 102 -15 20 -9 66 -15 109 -15 40 0 76 -4 79 -10 8 -13 312 -13 320
0 3 5 19 10 34 10 16 0 44 7 63 15 22 8 50 12 72 8 l36 -6 63 54 c35 30 94 79
131 109 109 89 186 225 186 329 0 22 5 43 10 46 11 7 14 218 3 228 -10 11 -43
109 -43 129 0 22 -36 131 -55 168 -8 15 -30 39 -49 54 -23 17 -39 40 -45 64
-8 29 -49 75 -184 210 -95 94 -178 172 -184 172 -6 0 -44 31 -84 68 -84 77
-227 176 -338 234 -42 21 -100 54 -129 73 -29 18 -92 45 -140 60 -48 15 -122
45 -164 66 l-78 39 -58 0 c-110 0 -123 -46 -27 -97 33 -18 76 -37 96 -43 19
-5 53 -25 75 -43 49 -43 175 -107 210 -107 16 0 44 -16 77 -45 28 -24 78 -58
111 -76 34 -17 81 -48 106 -68 25 -20 78 -59 118 -85 40 -27 83 -64 96 -84 12
-20 49 -52 81 -71 40 -24 61 -44 65 -61 4 -16 26 -38 61 -62 43 -28 62 -50 89
-100 18 -34 49 -80 67 -101 42 -47 113 -191 113 -228 0 -14 7 -43 15 -62 10
-24 15 -70 15 -134 l0 -98 -30 -63 c-17 -35 -30 -76 -30 -91 0 -20 -19 -45
-83 -106 l-83 -80 -116 -37 c-64 -21 -132 -38 -151 -38 -19 0 -51 -7 -70 -15
-61 -25 -121 -18 -264 30 -101 34 -147 45 -195 45 -65 0 -168 29 -247 69 -22
12 -46 21 -53 21 -21 0 -313 146 -359 180 -23 16 -49 30 -56 30 -24 0 -83 31
-163 86 -83 57 -141 88 -182 98 -14 3 -50 27 -80 54 -29 26 -69 58 -89 72 -21
13 -51 46 -68 72 -18 26 -43 55 -57 64 -14 9 -37 38 -51 63 -38 67 -71 99
-134 131 -31 16 -80 51 -110 78 -30 27 -78 62 -107 77 -29 15 -65 43 -79 62
-25 32 -88 73 -114 73 -17 0 -80 31 -114 56 -38 27 -170 94 -187 94 -8 0 -30
11 -51 25 -45 31 -232 125 -248 125 -20 0 -136 58 -180 89 -23 17 -54 31 -68
31 -39 0 -227 67 -269 95 -28 19 -50 25 -92 25 -30 0 -75 6 -100 14 -58 18
-123 35 -180 46 -25 5 -69 20 -97 34 -29 14 -63 26 -75 26 -13 0 -43 6 -68 14
-60 19 -125 35 -182 46 -26 5 -56 13 -67 19 -11 6 -52 11 -91 11 -40 0 -86 6
-107 15 -19 8 -53 15 -75 15 -21 0 -55 7 -75 15 -20 8 -66 15 -105 15 -38 0
-84 7 -105 15 -19 8 -62 15 -94 15 -32 0 -61 5 -64 10 -4 6 -158 10 -430 10
-272 0 -426 -4 -430 -10z m3299 -1009 c56 -27 128 -72 161 -100 33 -28 78 -60
100 -72 22 -12 60 -38 85 -58 25 -20 79 -59 120 -86 41 -27 95 -68 120 -91 45
-42 117 -84 143 -84 17 0 93 -97 113 -145 19 -47 18 -130 -3 -165 -42 -72
-121 -76 -194 -11 -24 21 -58 41 -76 45 -17 4 -51 24 -75 45 -24 20 -63 52
-88 71 -97 74 -149 120 -284 250 -185 178 -221 220 -267 314 -43 89 -47 110
-21 125 32 19 64 11 166 -38z"/>
</g>
</svg>
