<?xml version="1.0" standalone="no"?>
<!DOCTYPE svg PUBLIC "-//W3C//DTD SVG 20010904//EN"
 "http://www.w3.org/TR/2001/REC-SVG-20010904/DTD/svg10.dtd">
<svg version="1.0" xmlns="http://www.w3.org/2000/svg"
 width="783.000000pt" height="267.000000pt" viewBox="0 0 783.000000 267.000000"
 preserveAspectRatio="xMidYMid meet">
<metadata>
Created by potrace 1.16, written by Peter Selinger 2001-2019
</metadata>
<g transform="translate(0.000000,267.000000) scale(0.100000,-0.100000)"
fill="#000000" stroke="none">
<path d="M6170 2651 c0 -10 7 -24 16 -32 19 -15 112 -48 138 -49 44 0 147 -44
191 -81 26 -21 54 -39 62 -39 21 0 81 -29 127 -62 21 -15 46 -28 56 -28 9 0
29 -13 45 -30 16 -16 36 -30 44 -30 24 -1 77 -29 171 -92 47 -31 99 -59 117
-63 36 -7 233 -196 260 -249 8 -17 37 -52 63 -77 30 -29 51 -59 55 -80 4 -19
16 -51 27 -72 10 -21 37 -92 59 -157 l39 -118 -10 -26 c-5 -14 -7 -39 -4 -54
4 -20 -3 -49 -24 -93 -32 -71 -72 -116 -111 -126 -14 -3 -54 -19 -88 -35 l-61
-28 -184 0 c-130 0 -196 4 -228 14 -87 28 -136 38 -210 45 -41 4 -85 13 -97
19 -12 7 -40 12 -63 12 -22 0 -57 7 -77 15 -19 8 -45 15 -57 15 -27 0 -152 43
-205 69 -26 14 -59 21 -93 21 -29 0 -73 6 -98 14 -57 18 -124 35 -175 45 -22
4 -76 19 -120 33 -124 40 -164 49 -245 57 -41 4 -85 13 -97 19 -12 7 -60 12
-108 12 -53 0 -99 6 -122 15 -20 8 -66 15 -104 15 -37 0 -80 5 -94 10 -19 7
-39 7 -67 -2 l-40 -12 -53 19 -54 18 -40 -17 c-23 -9 -66 -16 -96 -16 -42 0
-71 -8 -118 -31 -94 -47 -97 -52 -97 -129 0 -73 6 -83 67 -114 45 -22 61 -20
113 14 l45 30 98 0 c76 0 108 -4 141 -19 47 -22 92 -63 101 -92 8 -25 -25 -79
-70 -113 -35 -27 -155 -86 -174 -86 -6 0 -34 -11 -63 -24 -92 -43 -171 -66
-224 -66 -28 0 -68 -7 -87 -15 -20 -8 -54 -15 -75 -15 -22 0 -56 -7 -75 -15
-23 -9 -69 -15 -123 -15 l-87 0 -46 -29 -46 -29 -170 -5 c-93 -3 -184 -10
-202 -17 -22 -8 -83 -10 -200 -6 -92 3 -184 6 -203 7 -19 0 -58 -2 -85 -6 -37
-5 -61 -3 -89 9 l-38 16 -250 0 c-198 0 -256 3 -285 15 -22 9 -67 15 -120 15
-52 0 -97 6 -120 15 -22 9 -67 15 -120 15 -52 0 -97 6 -120 15 -22 9 -67 15
-120 15 -52 0 -97 6 -120 15 -19 8 -54 15 -78 15 -69 0 -120 45 -219 192 -21
31 -53 69 -72 83 -21 16 -37 40 -44 65 -7 27 -27 53 -64 87 -30 26 -64 65 -76
86 -13 21 -41 50 -64 64 -23 14 -65 52 -94 84 -65 71 -177 149 -216 149 -15 0
-57 18 -94 40 -37 23 -78 43 -92 46 -14 2 -43 9 -65 15 -22 6 -61 14 -87 19
-26 5 -56 13 -67 19 -32 18 -126 13 -196 -11 -50 -16 -73 -30 -95 -58 l-30
-38 0 -105 c0 -58 4 -108 9 -111 4 -3 11 -18 14 -33 4 -19 44 -65 120 -138
130 -125 216 -193 258 -205 16 -5 41 -17 56 -28 16 -11 74 -43 130 -71 74 -36
114 -51 144 -51 46 0 144 -42 210 -89 32 -23 53 -31 86 -31 24 0 60 -7 80 -15
19 -8 47 -15 62 -15 14 0 60 -17 101 -38 l75 -37 50 -77 c71 -109 108 -171
155 -263 23 -44 53 -94 66 -112 30 -39 84 -152 84 -174 0 -20 31 -49 53 -49 9
0 19 -4 22 -10 3 -5 26 -10 51 -10 l44 0 0 25 c0 42 -39 143 -75 196 -18 27
-37 63 -40 80 -4 18 -20 59 -36 93 -16 34 -29 68 -29 77 0 9 -12 34 -28 55
-15 21 -33 52 -40 68 l-13 29 15 16 16 15 42 -13 c25 -8 114 -17 208 -20 103
-4 173 -11 187 -18 15 -9 69 -13 167 -13 93 0 155 -4 173 -12 18 -9 118 -15
288 -20 143 -4 287 -10 320 -13 33 -3 155 -8 272 -11 164 -4 217 -2 235 8 15
9 83 15 203 19 170 6 207 11 315 45 29 9 90 14 171 14 90 0 137 4 162 15 20 8
59 15 87 15 58 0 139 25 239 74 39 19 108 46 154 61 l85 27 96 97 96 98 0 102
0 101 -36 40 c-20 21 -33 44 -29 50 9 15 70 12 112 -5 19 -8 60 -15 90 -15 29
0 70 -7 90 -15 19 -8 53 -15 75 -15 21 0 55 -7 75 -15 20 -9 66 -15 107 -15
l71 0 63 -30 c35 -17 73 -30 85 -30 12 0 62 -13 112 -29 133 -43 172 -52 250
-60 44 -4 133 -29 238 -64 92 -31 183 -57 202 -57 20 0 52 -7 72 -15 19 -8 60
-15 90 -15 29 0 70 -7 90 -15 48 -20 163 -19 224 2 l49 18 49 -18 c74 -26 137
-22 258 19 111 37 147 57 221 128 50 47 112 161 112 205 0 16 5 33 10 36 6 3
10 21 10 40 0 19 -4 37 -10 40 -5 3 -10 31 -10 61 0 53 -26 148 -57 208 -9 17
-29 71 -45 120 -23 71 -38 100 -72 136 -24 26 -55 64 -69 86 -59 93 -335 315
-439 353 -18 7 -46 20 -63 28 -146 80 -192 102 -205 103 -9 0 -32 11 -53 25
-63 43 -235 125 -262 125 -14 0 -42 7 -62 15 -19 8 -48 15 -64 15 -15 0 -31 5
-34 10 -3 6 -52 10 -111 10 l-104 0 0 -19z m-5691 -1087 c51 -24 99 -44 106
-44 6 0 30 -13 51 -30 21 -16 76 -55 122 -86 45 -30 90 -68 99 -82 9 -15 49
-61 87 -102 97 -103 149 -169 162 -205 6 -16 14 -37 18 -46 5 -11 1 -19 -10
-23 -20 -8 -229 61 -311 103 -75 37 -174 71 -209 71 -19 0 -39 13 -68 44 -23
24 -65 56 -94 70 -29 15 -81 55 -115 89 -35 34 -76 70 -91 81 -31 20 -65 87
-66 126 0 31 25 68 54 80 11 5 55 6 96 3 l75 -5 94 -44z"/>
</g>
</svg>
