<?xml version="1.0" standalone="no"?>
<!DOCTYPE svg PUBLIC "-//W3C//DTD SVG 20010904//EN"
 "http://www.w3.org/TR/2001/REC-SVG-20010904/DTD/svg10.dtd">
<svg version="1.0" xmlns="http://www.w3.org/2000/svg"
 width="228.000000pt" height="393.000000pt" viewBox="0 0 228.000000 393.000000"
 preserveAspectRatio="xMidYMid meet">
<metadata>
Created by potrace 1.16, written by Peter Selinger 2001-2019
</metadata>
<g transform="translate(0.000000,393.000000) scale(0.100000,-0.100000)"
fill="#000000" stroke="none">
<path d="M724 3895 c-8 -47 8 -65 60 -65 80 0 300 -85 426 -166 30 -19 66 -37
80 -41 31 -7 110 -55 170 -102 24 -20 62 -47 82 -61 54 -37 258 -239 293 -291
16 -24 46 -64 66 -89 20 -25 54 -79 74 -120 21 -41 46 -86 55 -100 41 -58 60
-139 60 -255 l0 -111 -34 -69 c-35 -73 -131 -195 -152 -195 -7 0 -42 -13 -77
-30 -38 -17 -82 -30 -105 -30 -22 0 -56 -7 -75 -15 -44 -18 -213 -20 -254 -3
-29 12 -163 30 -223 29 -105 0 -286 91 -361 183 -15 17 -51 42 -80 55 -30 12
-67 30 -84 39 -16 9 -66 35 -110 59 -44 23 -90 43 -102 43 -32 0 -103 -66
-103 -97 0 -41 28 -81 83 -116 28 -19 61 -44 71 -56 11 -11 26 -21 35 -21 9 0
33 -11 54 -25 20 -14 72 -43 116 -65 111 -56 210 -158 243 -254 l18 -50 -22
-65 c-27 -82 -49 -115 -88 -131 l-31 -13 -62 25 c-34 14 -87 35 -117 48 -30
12 -104 40 -165 61 l-110 38 -124 1 -124 0 -43 -44 c-24 -24 -44 -53 -44 -64
0 -11 -5 -24 -10 -27 -19 -12 -10 -66 17 -101 25 -33 164 -114 195 -114 7 0
33 -14 58 -30 32 -22 57 -30 88 -30 23 0 59 -7 79 -15 46 -19 140 -19 186 0
20 8 58 15 83 15 65 0 171 -37 192 -67 40 -57 68 -86 102 -108 61 -38 220
-290 299 -471 l31 -71 0 -159 0 -159 -20 -43 c-23 -51 -112 -143 -160 -165
-19 -9 -70 -28 -113 -42 -141 -46 -179 -72 -169 -121 l4 -24 109 0 c61 0 110
4 114 10 3 6 20 10 36 10 41 0 178 69 198 100 9 13 37 45 62 70 67 67 95 108
118 177 l21 62 0 146 0 146 -24 47 c-13 26 -29 65 -35 87 -6 23 -29 71 -51
107 -22 37 -40 73 -40 81 0 8 -18 37 -41 63 -22 27 -53 74 -69 104 -17 32 -56
80 -95 115 -131 120 -195 192 -195 222 0 7 20 35 44 61 24 26 60 80 81 121
l37 75 -4 108 -3 109 24 6 c14 3 43 0 65 -7 26 -9 108 -15 225 -17 l184 -4 39
16 c21 8 56 15 77 15 23 0 66 13 103 30 34 16 70 30 79 30 8 0 26 12 40 26 13
14 44 38 69 52 65 37 172 149 194 202 10 25 22 53 27 62 12 23 12 393 0 416
-5 9 -23 50 -42 89 -18 40 -45 85 -61 100 -15 15 -28 33 -28 40 0 34 -55 116
-114 170 -37 33 -66 68 -66 76 0 9 -20 31 -44 49 -24 18 -56 50 -70 71 -15 21
-49 48 -75 62 -27 13 -73 46 -103 74 -30 28 -90 69 -134 91 -43 23 -102 56
-131 74 -28 18 -111 52 -183 76 -73 23 -154 53 -181 66 -27 13 -55 24 -63 24
-8 0 -18 5 -21 10 -4 6 -53 10 -115 10 l-109 0 -7 -35z m-235 -2262 c92 -44
89 -42 71 -53 -36 -23 -152 -1 -242 46 -51 26 -35 44 40 44 42 0 72 -8 131
-37z"/>
</g>
</svg>
