<?xml version="1.0" standalone="no"?>
<!DOCTYPE svg PUBLIC "-//W3C//DTD SVG 20010904//EN"
 "http://www.w3.org/TR/2001/REC-SVG-20010904/DTD/svg10.dtd">
<svg version="1.0" xmlns="http://www.w3.org/2000/svg"
 width="513.000000pt" height="228.000000pt" viewBox="0 0 513.000000 228.000000"
 preserveAspectRatio="xMidYMid meet">
<metadata>
Created by potrace 1.16, written by Peter Selinger 2001-2019
</metadata>
<g transform="translate(0.000000,228.000000) scale(0.100000,-0.100000)"
fill="#000000" stroke="none">
<path d="M1580 2243 l0 -37 158 -158 c90 -91 168 -161 182 -165 14 -3 37 -16
51 -29 14 -13 44 -37 66 -52 23 -15 78 -56 123 -92 145 -116 184 -145 260
-195 41 -27 105 -78 142 -112 37 -35 75 -63 85 -63 10 0 45 -27 78 -60 32 -33
65 -60 73 -60 27 0 148 -62 192 -99 25 -21 63 -47 85 -59 22 -11 105 -63 185
-116 135 -89 172 -114 253 -174 17 -12 42 -25 56 -29 14 -3 48 -26 76 -50 27
-23 79 -58 115 -77 36 -19 92 -58 125 -85 33 -28 80 -60 105 -72 63 -30 61
-29 124 -80 31 -25 86 -60 122 -78 36 -18 82 -48 102 -66 21 -18 53 -40 72
-50 19 -10 49 -28 65 -40 17 -12 50 -33 75 -46 25 -13 63 -36 84 -51 21 -16
47 -28 57 -28 10 0 21 -5 24 -10 4 -6 63 -10 145 -10 l138 0 56 53 c34 32 56
61 56 74 0 12 5 25 10 28 13 8 14 569 0 593 -5 9 -19 44 -29 78 -11 33 -38 98
-61 144 -22 46 -40 90 -40 97 0 27 -44 99 -92 152 -27 30 -60 75 -73 102 -14
26 -42 60 -64 75 -21 16 -48 42 -60 59 -32 47 -202 219 -242 245 -19 12 -51
46 -70 74 l-35 51 -49 16 c-27 8 -67 31 -89 51 -51 44 -156 98 -191 98 -14 0
-56 18 -93 40 -36 22 -84 45 -107 51 -22 6 -61 22 -87 35 -55 28 -97 30 -141
8 -75 -38 -86 -76 -38 -125 l29 -29 59 0 c78 0 191 -38 258 -86 17 -12 64 -39
105 -60 83 -41 168 -102 188 -133 6 -12 31 -33 54 -47 23 -14 71 -54 108 -88
37 -33 79 -69 93 -78 14 -10 31 -36 38 -60 10 -31 25 -50 56 -70 39 -27 108
-118 148 -198 10 -19 33 -52 51 -73 17 -21 39 -57 47 -80 16 -45 46 -120 83
-207 38 -90 63 -170 57 -186 -9 -23 -51 -28 -96 -10 -67 25 -177 21 -235 -8
-49 -26 -142 -124 -142 -150 0 -8 -9 -20 -20 -26 l-20 -11 -67 41 c-38 22 -79
43 -93 47 -14 3 -38 18 -55 33 -16 15 -44 35 -61 44 -42 20 -162 102 -194 131
-14 13 -41 31 -60 40 -51 26 -285 182 -305 205 -10 11 -35 25 -55 30 -20 5
-54 25 -77 44 -22 20 -72 51 -112 71 -39 20 -106 59 -148 88 -43 29 -98 65
-123 79 -25 14 -54 36 -65 48 -11 12 -38 31 -60 42 -22 11 -60 37 -85 58 -25
20 -60 45 -78 54 -18 9 -50 32 -70 50 -20 18 -49 36 -64 40 -15 3 -39 22 -54
42 -15 19 -44 44 -64 54 -57 29 -170 108 -215 149 -22 21 -53 46 -70 56 -16
10 -59 46 -96 79 -37 34 -88 77 -114 96 -107 78 -171 120 -184 120 -7 0 -33
19 -57 43 -24 23 -57 54 -74 70 l-31 27 -55 0 -54 0 0 -37z m3225 -1853 c56
-25 75 -53 75 -108 0 -56 -37 -97 -77 -87 -64 16 -113 79 -113 145 0 71 35 86
115 50z"/>
<path d="M595 1825 c-16 -8 -61 -14 -98 -15 -76 0 -154 -23 -256 -75 -76 -38
-221 -178 -221 -213 0 -12 -4 -24 -10 -27 -5 -3 -10 -41 -10 -85 l0 -78 35
-31 c39 -34 81 -49 102 -35 16 10 47 98 56 157 7 44 42 97 64 97 9 0 33 16 55
35 21 20 63 47 93 60 l54 25 303 0 304 0 84 -30 c47 -16 102 -30 123 -30 21 0
63 -11 93 -25 73 -33 168 -65 195 -65 13 0 78 -27 146 -60 69 -33 136 -60 151
-60 34 -1 79 -23 171 -85 41 -27 108 -68 149 -90 42 -23 80 -50 85 -60 6 -11
13 -27 17 -35 11 -24 67 -52 89 -45 46 14 71 45 71 88 l0 42 -87 84 c-83 78
-145 121 -176 121 -7 0 -24 12 -38 26 -31 34 -119 78 -220 110 -43 15 -129 50
-189 80 -61 30 -122 54 -136 54 -13 0 -41 7 -61 15 -19 8 -51 15 -71 15 -19 0
-97 20 -171 44 -196 63 -215 68 -331 75 -58 4 -115 12 -127 19 -30 17 -199 14
-238 -3z"/>
</g>
</svg>
