<?xml version="1.0" standalone="no"?>
<!DOCTYPE svg PUBLIC "-//W3C//DTD SVG 20010904//EN"
 "http://www.w3.org/TR/2001/REC-SVG-20010904/DTD/svg10.dtd">
<svg version="1.0" xmlns="http://www.w3.org/2000/svg"
 width="756.000000pt" height="192.000000pt" viewBox="0 0 756.000000 192.000000"
 preserveAspectRatio="xMidYMid meet">
<metadata>
Created by potrace 1.16, written by Peter Selinger 2001-2019
</metadata>
<g transform="translate(0.000000,192.000000) scale(0.100000,-0.100000)"
fill="#000000" stroke="none">
<path d="M6004 1885 c-9 -52 7 -65 78 -65 32 0 75 -7 95 -15 19 -8 52 -15 72
-15 20 0 56 -7 81 -15 25 -8 61 -17 81 -20 23 -3 54 -20 82 -45 25 -22 51 -40
59 -40 7 0 27 -9 43 -21 17 -11 56 -33 88 -50 31 -16 97 -66 146 -112 49 -45
109 -97 135 -115 25 -18 60 -53 78 -78 18 -25 63 -79 100 -120 38 -41 71 -87
74 -102 4 -15 15 -44 26 -65 10 -21 37 -91 58 -155 43 -127 49 -190 25 -249
-8 -19 -15 -48 -15 -62 0 -16 -10 -37 -25 -51 -14 -13 -36 -43 -50 -66 -15
-26 -45 -54 -75 -73 -28 -17 -53 -39 -56 -49 -11 -34 -21 -46 -45 -53 -13 -3
-44 -16 -69 -27 -97 -45 -163 -61 -276 -68 l-113 -7 -68 20 c-124 37 -157 45
-233 53 -48 5 -94 17 -127 34 -29 14 -58 26 -65 26 -6 0 -32 13 -57 29 -25 16
-61 32 -79 36 -24 5 -56 30 -112 88 l-79 82 -128 7 c-70 5 -137 7 -148 7 -11
-1 -273 -3 -582 -5 l-562 -4 -37 15 c-29 12 -82 15 -256 15 -172 0 -226 3
-255 15 -46 19 -140 19 -186 0 -50 -21 -244 -21 -294 0 l-35 15 -475 0 -474 0
-36 15 c-49 21 -198 20 -249 -1 -28 -12 -53 -14 -89 -9 -27 3 -59 6 -70 5 -11
-1 -185 -4 -387 -6 l-367 -5 -37 16 c-28 11 -75 15 -196 15 -118 0 -168 4
-195 15 l-35 15 -315 0 -314 0 -29 -15 -30 -16 0 -71 0 -71 74 -73 c45 -44 99
-85 136 -104 34 -17 80 -44 102 -61 23 -16 54 -29 70 -29 16 0 45 -7 65 -15
23 -10 68 -15 127 -15 l91 0 40 23 c59 33 85 86 85 173 0 41 5 77 13 88 l13
18 144 -6 c80 -3 172 -8 205 -11 33 -3 113 -8 178 -11 l118 -6 40 16 39 16
396 0 395 0 36 -15 c47 -20 170 -20 218 1 31 13 61 14 149 10 128 -7 123 -7
367 0 l187 5 37 -15 37 -16 459 0 c338 0 465 -3 486 -12 22 -10 188 -22 388
-28 11 0 49 2 85 6 49 4 75 2 104 -10 31 -13 77 -16 228 -16 145 0 197 -3 225
-15 19 -8 65 -15 102 -15 75 0 247 -53 309 -95 20 -14 43 -25 50 -25 8 0 43
-13 79 -30 35 -16 77 -30 91 -30 15 0 44 -11 64 -25 44 -30 179 -72 300 -95
26 -5 56 -13 67 -19 11 -6 53 -11 95 -11 41 0 78 -4 81 -10 8 -13 98 -13 110
-1 6 6 60 12 120 14 61 2 128 9 150 15 22 7 51 14 65 16 14 3 50 21 80 40 30
19 78 47 105 61 67 36 191 158 222 220 14 28 50 80 79 116 l54 66 0 106 c0 60
-4 109 -10 112 -5 3 -10 39 -10 80 l0 73 -30 64 c-16 34 -30 70 -30 79 0 8
-13 28 -30 44 -16 16 -30 37 -30 47 0 10 -29 49 -64 87 -35 37 -75 85 -89 107
-13 22 -44 52 -68 67 -25 16 -55 43 -68 62 -12 19 -48 53 -79 76 -32 23 -73
59 -92 80 -25 28 -79 61 -186 114 -163 80 -297 127 -407 142 -20 3 -40 9 -43
14 -3 5 -74 9 -159 9 l-154 0 -7 -35z m-5445 -1443 c36 -51 39 -113 6 -126
-30 -11 -235 75 -270 114 l-19 21 14 9 c8 6 68 10 132 10 l117 0 20 -28z"/>
</g>
</svg>
