<?xml version="1.0" standalone="no"?>
<!DOCTYPE svg PUBLIC "-//W3C//DTD SVG 20010904//EN"
 "http://www.w3.org/TR/2001/REC-SVG-20010904/DTD/svg10.dtd">
<svg version="1.0" xmlns="http://www.w3.org/2000/svg"
 width="207.000000pt" height="354.000000pt" viewBox="0 0 207.000000 354.000000"
 preserveAspectRatio="xMidYMid meet">
<metadata>
Created by potrace 1.16, written by Peter Selinger 2001-2019
</metadata>
<g transform="translate(0.000000,354.000000) scale(0.100000,-0.100000)"
fill="#000000" stroke="none">
<path d="M23 3526 l-23 -11 0 -52 0 -53 38 0 c51 0 137 -31 170 -62 29 -28
190 -111 235 -122 15 -3 57 -35 95 -69 37 -34 87 -76 112 -92 25 -17 67 -54
95 -83 27 -30 73 -69 100 -87 28 -19 114 -99 192 -178 l142 -144 36 -74 c19
-40 35 -81 35 -89 0 -9 14 -29 30 -45 17 -16 30 -34 30 -41 0 -7 13 -41 30
-76 16 -34 30 -75 30 -89 0 -15 7 -43 15 -62 20 -48 20 -186 0 -234 -8 -19
-15 -49 -15 -65 0 -30 -38 -78 -62 -78 -19 0 -56 27 -141 104 -96 86 -145 105
-276 106 l-94 0 -43 -44 -44 -43 0 -47 c0 -87 51 -201 130 -289 14 -16 60 -46
102 -68 l78 -39 64 0 c36 0 98 5 140 10 l75 11 37 -18 c21 -10 51 -37 68 -61
17 -24 45 -52 63 -62 18 -11 44 -37 57 -59 14 -22 45 -56 69 -76 25 -21 55
-56 67 -79 13 -22 36 -55 53 -73 16 -17 26 -36 23 -42 -11 -17 -190 -14 -233
4 -23 10 -69 15 -137 15 l-101 0 -45 30 -45 30 -132 0 c-72 0 -144 5 -160 11
-15 6 -84 13 -153 16 -69 3 -140 12 -159 19 -47 19 -85 17 -131 -6 -41 -21
-52 -48 -27 -68 12 -10 82 -33 187 -62 25 -7 99 -15 165 -19 66 -4 130 -12
142 -19 12 -6 47 -12 78 -12 30 0 72 -7 92 -15 19 -8 52 -15 72 -15 20 0 56
-6 81 -14 94 -30 138 -38 225 -45 50 -4 100 -12 112 -19 12 -7 59 -12 108 -12
53 0 99 -6 122 -15 19 -8 64 -15 98 -15 l63 0 56 46 56 46 0 53 0 53 -47 38
c-26 21 -63 49 -82 63 -20 13 -43 33 -51 45 -8 11 -52 63 -98 114 -46 52 -94
111 -107 131 -12 20 -44 56 -70 81 -66 63 -105 118 -105 149 0 14 14 55 30 89
17 35 30 74 30 86 0 12 13 60 30 106 31 88 38 157 19 191 -6 11 -14 41 -19 67
-24 130 -68 265 -106 325 -18 28 -50 83 -71 122 -21 38 -63 95 -94 125 -31 30
-66 74 -78 97 -11 23 -38 54 -60 70 -21 15 -49 43 -62 62 -13 18 -41 45 -64
59 -22 14 -69 56 -104 94 -40 44 -74 71 -92 75 -16 3 -40 20 -54 39 -15 19
-49 46 -77 60 -27 14 -68 39 -91 55 -22 16 -46 29 -54 29 -8 0 -43 18 -79 39
-36 22 -105 52 -155 67 -63 20 -103 40 -135 66 -30 24 -56 38 -74 38 -16 0
-32 5 -35 10 -8 13 -64 11 -92 -4z m972 -1784 c35 -12 68 -35 107 -75 l58 -59
-11 -19 c-20 -38 -145 -13 -191 38 -15 16 -48 83 -48 97 0 4 29 36 34 36 1 0
24 -8 51 -18z"/>
<path d="M466 578 l-15 -21 15 -35 c8 -20 20 -42 26 -50 14 -16 162 -92 180
-92 7 0 55 -20 106 -45 52 -25 98 -45 104 -45 5 0 39 -13 75 -30 35 -16 69
-30 75 -30 5 0 39 -13 75 -30 111 -52 223 -39 223 26 0 11 -7 30 -16 42 -15
23 -102 72 -126 72 -7 0 -33 14 -58 30 -25 16 -56 30 -70 30 -38 0 -131 34
-249 91 -108 52 -269 109 -308 109 -12 0 -29 -10 -37 -22z"/>
<path d="M236 395 c-12 -31 -6 -70 17 -110 17 -31 39 -49 98 -80 41 -22 89
-50 106 -62 16 -12 66 -34 109 -48 90 -29 137 -50 176 -76 l26 -19 106 0 105
0 7 37 c4 20 2 43 -3 52 -15 24 -79 57 -158 82 -38 12 -94 33 -124 46 -30 13
-87 35 -128 48 -41 14 -109 48 -155 79 -57 37 -97 57 -129 61 l-46 7 -7 -17z"/>
</g>
</svg>
