<?xml version="1.0" standalone="no"?>
<!DOCTYPE svg PUBLIC "-//W3C//DTD SVG 20010904//EN"
 "http://www.w3.org/TR/2001/REC-SVG-20010904/DTD/svg10.dtd">
<svg version="1.0" xmlns="http://www.w3.org/2000/svg"
 width="741.000000pt" height="258.000000pt" viewBox="0 0 741.000000 258.000000"
 preserveAspectRatio="xMidYMid meet">
<metadata>
Created by potrace 1.16, written by Peter Selinger 2001-2019
</metadata>
<g transform="translate(0.000000,258.000000) scale(0.100000,-0.100000)"
fill="#000000" stroke="none">
<path d="M5603 2544 c-60 -39 -70 -73 -30 -98 l22 -15 41 11 42 12 44 -17 c24
-9 55 -17 68 -17 39 0 279 -123 344 -177 68 -56 125 -93 145 -93 7 0 40 -28
71 -63 32 -34 77 -75 101 -90 24 -16 57 -46 72 -68 16 -22 50 -50 75 -63 73
-37 140 -101 152 -145 7 -27 22 -46 55 -70 24 -17 61 -52 81 -77 41 -49 94
-187 94 -243 0 -20 7 -53 15 -76 l16 -40 -35 -99 c-19 -54 -37 -101 -40 -104
-8 -7 -66 18 -101 44 -59 44 -144 64 -270 64 l-116 0 -48 -24 c-26 -14 -62
-41 -79 -61 l-32 -36 0 -56 0 -56 48 -43 c26 -24 67 -63 92 -88 67 -65 95 -76
197 -76 l88 0 85 30 c46 17 93 30 104 30 23 0 140 -56 153 -73 5 -7 20 -43 32
-82 12 -38 34 -84 47 -102 62 -82 100 -202 75 -241 l-8 -14 -44 13 c-24 7 -57
24 -74 39 -51 45 -97 77 -164 110 -35 18 -80 47 -100 65 -46 41 -152 95 -188
95 -28 0 -67 18 -164 78 -30 18 -65 35 -79 39 -34 8 -168 89 -205 123 -46 42
-89 60 -145 60 l-52 0 -29 -29 -29 -29 0 -56 0 -55 59 -46 c67 -51 80 -76 57
-108 -78 -107 -83 -112 -142 -134 -32 -12 -70 -22 -84 -22 -14 -1 -63 -15
-110 -31 -52 -19 -104 -30 -136 -30 -28 0 -68 -7 -88 -15 l-36 -15 -341 -1
c-269 -1 -348 -4 -375 -15 -50 -21 -450 -20 -501 1 -22 9 -67 15 -120 15 -52
0 -97 6 -120 15 -19 8 -65 15 -102 15 -36 0 -86 6 -111 14 -94 30 -138 38
-225 45 -49 4 -100 12 -112 19 -12 7 -46 12 -75 12 -34 0 -85 11 -138 30 -47
16 -96 30 -110 30 -14 0 -54 14 -88 30 -35 17 -75 30 -88 30 -14 0 -41 7 -61
15 -19 8 -51 15 -70 15 -61 0 -172 42 -218 83 l-43 37 -70 0 c-93 0 -101 10
-67 85 18 42 25 74 25 119 l-1 61 -42 80 -42 80 -56 30 c-30 17 -68 40 -85 51
-16 12 -48 31 -71 43 l-42 21 -127 0 -127 0 -59 -58 -58 -59 0 -64 c1 -79 26
-156 68 -203 36 -41 39 -51 16 -60 -29 -11 -60 -6 -144 24 -47 16 -94 30 -105
30 -26 0 -124 33 -193 66 -29 13 -58 24 -64 24 -27 0 -208 96 -257 136 -29 24
-60 44 -68 44 -13 0 -44 24 -168 130 -29 25 -70 57 -92 72 -22 15 -52 46 -68
70 -16 24 -48 63 -70 88 -22 25 -63 79 -90 120 -27 41 -70 99 -97 128 -26 29
-52 69 -57 88 -10 36 -42 85 -89 136 -14 15 -40 72 -59 125 l-33 98 0 146 0
146 -21 27 c-26 33 -61 33 -105 0 l-34 -26 0 -179 c0 -108 4 -180 10 -184 6
-3 10 -20 10 -36 0 -33 29 -96 66 -146 30 -40 84 -152 84 -175 0 -9 19 -31 43
-50 54 -42 64 -55 76 -96 6 -19 29 -55 53 -81 24 -26 74 -85 113 -131 38 -45
87 -93 107 -106 21 -13 49 -41 62 -62 42 -67 227 -218 329 -269 40 -20 86 -46
102 -58 35 -27 169 -95 186 -95 6 0 40 -13 76 -30 35 -16 69 -30 75 -30 5 0
39 -14 75 -30 35 -16 75 -30 89 -30 14 0 41 -7 61 -15 20 -8 66 -15 105 -15
38 0 84 -7 105 -15 26 -11 76 -15 195 -15 l160 0 36 -17 c21 -9 55 -30 76 -45
28 -20 51 -28 83 -28 24 0 60 -7 80 -15 19 -8 47 -15 62 -15 14 0 68 -20 119
-45 52 -25 104 -45 115 -45 12 0 42 -6 67 -14 78 -25 133 -37 195 -45 34 -5
70 -13 82 -19 12 -7 41 -12 65 -12 27 0 66 -11 106 -30 37 -18 80 -30 103 -30
22 0 56 -7 76 -15 19 -8 53 -15 75 -15 21 0 55 -7 75 -15 25 -11 72 -15 162
-15 81 0 142 -5 171 -14 107 -34 144 -39 300 -45 103 -4 173 -11 187 -18 31
-18 192 -17 236 2 l36 15 354 0 355 0 35 15 c24 10 70 15 135 15 66 0 112 5
135 15 20 8 67 15 104 15 83 1 159 25 207 68 19 17 65 46 102 64 47 23 85 53
129 101 41 44 70 67 85 67 26 0 141 -55 220 -106 55 -35 63 -38 133 -49 29 -5
51 -19 85 -55 43 -44 116 -90 143 -90 6 0 31 -18 55 -39 24 -21 71 -56 103
-76 33 -21 65 -48 72 -61 l12 -24 93 0 92 0 6 25 c3 13 20 40 36 59 l30 34 0
111 c0 61 -4 119 -10 129 -5 9 -19 46 -30 81 -12 35 -32 80 -46 100 -13 19
-24 42 -24 51 -2 36 -90 167 -163 242 l-39 39 13 32 c7 18 23 46 35 62 41 55
64 145 64 250 l0 95 -36 107 c-20 59 -43 121 -51 137 -31 60 -95 146 -124 167
-16 11 -29 29 -29 39 0 30 -236 262 -331 326 -46 31 -104 73 -128 93 -135 110
-168 135 -223 163 -34 17 -77 45 -97 63 -20 18 -45 37 -56 43 -51 26 -330 112
-365 112 -21 0 -42 5 -45 10 -13 20 -71 8 -122 -26z m-3567 -1473 c47 -8 59
-16 142 -92 l62 -56 0 -32 c0 -54 -15 -71 -63 -70 -23 0 -69 11 -102 23 -59
22 -67 30 -117 112 -10 16 -27 41 -39 56 l-22 27 17 26 18 27 31 -7 c18 -4 50
-10 73 -14z m4681 -138 c45 -21 52 -41 24 -65 -19 -14 -40 -18 -108 -18 -46 0
-93 5 -103 10 -30 16 -43 46 -30 70 l11 20 85 0 c59 0 97 -5 121 -17z"/>
</g>
</svg>
