<?xml version="1.0" standalone="no"?>
<!DOCTYPE svg PUBLIC "-//W3C//DTD SVG 20010904//EN"
 "http://www.w3.org/TR/2001/REC-SVG-20010904/DTD/svg10.dtd">
<svg version="1.0" xmlns="http://www.w3.org/2000/svg"
 width="705.000000pt" height="192.000000pt" viewBox="0 0 705.000000 192.000000"
 preserveAspectRatio="xMidYMid meet">
<metadata>
Created by potrace 1.16, written by Peter Selinger 2001-2019
</metadata>
<g transform="translate(0.000000,192.000000) scale(0.100000,-0.100000)"
fill="#000000" stroke="none">
<path d="M1126 1896 c-3 -13 -24 -39 -46 -56 l-40 -32 0 -81 0 -82 30 -45 c16
-25 30 -51 30 -58 0 -25 43 -98 84 -142 23 -25 59 -72 80 -104 l38 -59 -16
-15 -16 -16 -42 13 c-24 7 -90 17 -148 21 -58 4 -118 12 -135 18 -37 13 -105
30 -165 42 -25 5 -76 20 -115 34 -48 18 -91 26 -138 26 -37 0 -84 7 -104 15
-51 22 -351 21 -393 0 l-30 -16 0 -42 c0 -34 6 -49 28 -69 29 -27 83 -58 102
-58 23 0 140 -60 190 -97 68 -50 150 -183 150 -242 l0 -40 -57 -40 c-32 -24
-68 -41 -83 -41 -15 0 -44 -7 -63 -15 -21 -9 -67 -15 -110 -15 -59 0 -77 -4
-90 -18 -45 -50 5 -101 129 -132 l51 -13 80 26 c44 15 97 27 117 27 76 0 189
85 235 177 14 29 21 61 21 103 l0 60 -34 68 c-19 37 -43 76 -55 86 -12 11 -31
35 -43 54 l-21 34 14 9 c21 13 55 11 96 -6 19 -8 47 -15 60 -15 14 0 54 -13
90 -30 35 -16 81 -30 101 -30 20 0 57 -6 82 -14 101 -32 140 -39 255 -46 66
-4 134 -12 150 -18 36 -13 106 -31 160 -41 53 -10 128 -36 193 -66 29 -14 65
-25 81 -25 17 0 37 -10 52 -26 24 -26 89 -64 109 -64 6 0 37 -12 68 -26 31
-14 93 -37 136 -51 43 -15 114 -43 158 -64 l79 -39 70 0 c39 0 85 -7 106 -15
19 -8 52 -15 72 -15 20 0 56 -6 81 -14 57 -18 122 -35 180 -46 25 -5 77 -20
115 -34 l70 -26 98 0 c64 0 110 -5 134 -15 22 -9 67 -15 120 -15 52 0 97 -6
120 -15 20 -8 66 -15 105 -15 38 0 84 -7 105 -15 26 -11 76 -15 195 -15 118 0
168 -4 195 -15 45 -19 81 -19 126 0 28 12 82 15 240 15 159 0 213 3 240 15 24
10 70 15 135 15 66 0 112 5 135 15 20 8 61 15 90 15 30 0 71 7 90 15 20 8 48
15 63 15 16 0 41 13 64 34 21 19 68 49 105 68 39 19 80 49 99 71 17 21 43 51
58 67 l26 30 45 0 c45 0 97 -29 142 -80 11 -12 38 -31 60 -42 21 -12 60 -43
86 -69 26 -27 55 -49 66 -49 10 -1 56 -24 103 -53 59 -37 86 -60 90 -77 6 -27
58 -67 99 -77 14 -3 48 -30 74 -59 27 -30 61 -57 75 -61 42 -10 183 -98 221
-137 l35 -36 49 0 48 0 75 77 c41 42 84 94 95 116 l19 41 0 143 c0 79 -4 151
-9 161 -5 9 -17 37 -27 61 -10 24 -31 61 -45 81 -15 21 -37 57 -49 81 -57 111
-170 237 -250 280 -64 34 -79 48 -107 104 -29 56 -131 163 -180 188 -17 9 -52
35 -77 56 -66 57 -196 142 -232 152 -16 5 -48 24 -70 43 -39 34 -173 106 -196
106 -14 0 -67 28 -149 78 -30 18 -65 35 -79 37 -14 3 -43 10 -65 16 -22 6 -61
14 -87 19 -26 5 -56 13 -67 19 -11 6 -48 11 -83 11 -69 0 -108 -18 -108 -49 0
-35 148 -121 285 -166 41 -13 92 -36 112 -50 21 -14 44 -25 53 -25 8 0 35 -14
60 -30 25 -16 51 -30 59 -30 27 0 182 -81 219 -114 41 -37 93 -66 116 -66 9 0
32 -26 53 -57 l38 -57 38 -9 c27 -7 59 -30 107 -76 172 -164 257 -256 279
-300 11 -22 40 -52 63 -68 30 -20 55 -50 83 -101 22 -40 59 -95 83 -122 l42
-49 0 -86 0 -86 -25 -24 c-13 -14 -28 -25 -32 -25 -4 0 -53 15 -107 34 -71 24
-105 41 -118 59 -23 31 -117 97 -200 139 -34 17 -77 45 -97 63 -20 18 -52 40
-71 50 -19 9 -55 34 -80 54 -25 20 -78 59 -119 86 -40 26 -109 79 -153 117
-43 37 -83 68 -88 68 -5 0 -40 32 -78 70 l-69 70 -58 0 -58 0 -43 -44 -44 -43
0 -107 0 -107 -48 -55 c-26 -31 -60 -62 -77 -69 -52 -24 -148 -55 -171 -55
-12 0 -38 -7 -57 -15 -20 -8 -54 -15 -75 -15 -22 0 -56 -7 -75 -15 -27 -11
-75 -15 -180 -15 -106 0 -154 -4 -180 -15 l-36 -15 -306 0 -306 0 -36 15 c-22
9 -67 15 -120 15 -52 0 -97 6 -120 15 -19 8 -60 15 -90 15 -29 0 -70 7 -90 15
-19 8 -60 15 -90 15 -29 0 -70 7 -90 15 -19 8 -65 15 -102 15 -36 0 -86 6
-111 14 -58 18 -123 35 -180 46 -25 5 -69 20 -97 34 -30 15 -70 26 -93 26 -22
0 -57 7 -77 15 -22 9 -68 15 -122 15 l-86 0 -45 30 c-25 17 -58 30 -76 30 -33
0 -129 61 -129 82 0 6 11 15 25 18 39 11 273 129 292 148 9 9 33 66 53 126
l36 110 -18 59 -18 59 -50 38 c-27 21 -70 48 -94 60 -24 12 -62 35 -84 51 -22
16 -47 29 -56 29 -9 0 -36 14 -61 30 -25 16 -58 30 -74 30 -16 0 -67 18 -114
40 -92 44 -353 134 -415 143 -20 3 -50 15 -66 26 l-29 21 -175 0 -175 0 -6
-24z m341 -151 c19 -8 47 -15 60 -15 14 0 54 -13 90 -30 35 -16 75 -30 89 -30
14 0 41 -7 61 -15 19 -8 47 -15 62 -15 14 0 40 -9 56 -21 40 -27 182 -99 196
-99 19 0 139 -59 174 -86 53 -40 75 -83 75 -146 l0 -54 -47 -39 c-26 -22 -58
-48 -72 -57 l-26 -18 -203 0 -203 0 -57 26 c-98 44 -207 124 -240 174 -17 25
-50 58 -74 74 -52 33 -118 127 -148 213 -26 75 -25 99 5 128 l24 25 71 0 c40
0 86 -6 107 -15z"/>
</g>
</svg>
