<?xml version="1.0" standalone="no"?>
<!DOCTYPE svg PUBLIC "-//W3C//DTD SVG 20010904//EN"
 "http://www.w3.org/TR/2001/REC-SVG-20010904/DTD/svg10.dtd">
<svg version="1.0" xmlns="http://www.w3.org/2000/svg"
 width="279.000000pt" height="258.000000pt" viewBox="0 0 279.000000 258.000000"
 preserveAspectRatio="xMidYMid meet">
<metadata>
Created by potrace 1.16, written by Peter Selinger 2001-2019
</metadata>
<g transform="translate(0.000000,258.000000) scale(0.100000,-0.100000)"
fill="#000000" stroke="none">
<path d="M587 2552 c-30 -32 -35 -63 -11 -83 19 -16 112 -48 139 -49 33 0 134
-39 174 -66 19 -13 42 -24 50 -24 8 0 27 -12 43 -27 15 -14 58 -36 95 -48 40
-13 71 -30 77 -41 5 -10 12 -24 15 -30 3 -6 28 -38 54 -70 27 -33 60 -81 74
-109 14 -27 40 -67 58 -88 33 -39 105 -229 105 -279 0 -14 13 -43 28 -64 58
-81 81 -167 48 -180 -8 -3 -58 9 -111 27 l-96 33 -55 -27 c-36 -18 -62 -39
-75 -62 -12 -19 -28 -35 -37 -35 -18 0 -114 90 -171 159 -18 23 -45 44 -60 48
-35 8 -51 22 -51 44 0 25 -50 79 -103 113 -25 16 -57 48 -73 73 -15 24 -46 56
-68 71 -23 16 -49 45 -59 67 l-19 38 23 79 22 79 -12 38 c-6 21 -11 48 -11 60
0 35 -45 113 -92 158 l-43 41 -108 36 c-59 20 -123 36 -142 36 -20 0 -71 -12
-115 -27 l-80 -27 0 -58 c0 -32 4 -66 9 -76 5 -9 17 -37 27 -62 11 -26 51 -80
94 -125 41 -45 101 -113 134 -153 32 -39 68 -74 80 -78 11 -3 35 -18 51 -33
17 -15 46 -38 66 -51 20 -13 47 -39 60 -58 33 -49 414 -427 481 -478 29 -22
75 -68 103 -102 27 -34 67 -74 88 -89 20 -14 55 -50 77 -80 l41 -53 55 0 56 0
29 29 29 29 0 50 c0 27 -7 66 -15 85 -18 44 -18 42 1 61 23 23 87 21 110 -5
10 -11 48 -42 84 -69 52 -39 74 -63 99 -112 18 -35 48 -88 68 -118 64 -101
110 -185 117 -212 3 -15 22 -39 42 -54 20 -15 48 -48 62 -73 32 -55 90 -132
154 -206 26 -30 58 -72 72 -92 23 -36 136 -148 209 -205 l35 -28 110 0 110 0
7 27 c3 15 15 39 26 54 15 21 19 44 19 102 0 42 -4 79 -10 82 -5 3 -10 14 -10
24 0 9 -13 30 -30 46 -16 16 -30 36 -30 44 0 30 -131 210 -178 245 -26 19 -90
78 -142 131 -52 53 -125 117 -162 142 -37 25 -95 76 -129 114 -45 49 -74 72
-103 81 l-41 13 -67 100 c-75 111 -108 173 -108 205 0 31 -33 124 -79 221 -23
47 -41 96 -41 108 0 31 -36 134 -71 203 -70 139 -238 319 -395 424 -60 41
-117 74 -125 74 -8 0 -34 14 -59 30 -25 16 -51 30 -59 30 -13 0 -126 46 -173
71 -10 5 -51 9 -91 9 l-73 0 -27 -28z m-226 -322 c14 -8 19 -21 19 -49 0 -52
-19 -67 -59 -47 -35 19 -36 20 -45 69 l-7 37 36 0 c20 0 45 -5 56 -10z m1804
-1482 c14 -6 50 -44 80 -85 37 -48 62 -73 76 -73 13 0 29 -16 47 -47 15 -26
46 -66 70 -89 23 -23 42 -46 42 -52 0 -7 10 -32 22 -57 17 -35 30 -48 51 -52
44 -9 62 -57 32 -87 -21 -20 -40 -11 -66 30 -11 19 -47 54 -78 79 -35 28 -69
65 -85 95 -15 28 -42 61 -60 75 -18 14 -41 42 -52 62 -10 21 -37 61 -59 88
-45 55 -68 101 -60 116 8 11 9 11 40 -3z"/>
</g>
</svg>
