<?xml version="1.0" standalone="no"?>
<!DOCTYPE svg PUBLIC "-//W3C//DTD SVG 20010904//EN"
 "http://www.w3.org/TR/2001/REC-SVG-20010904/DTD/svg10.dtd">
<svg version="1.0" xmlns="http://www.w3.org/2000/svg"
 width="759.000000pt" height="231.000000pt" viewBox="0 0 759.000000 231.000000"
 preserveAspectRatio="xMidYMid meet">
<metadata>
Created by potrace 1.16, written by Peter Selinger 2001-2019
</metadata>
<g transform="translate(0.000000,231.000000) scale(0.100000,-0.100000)"
fill="#000000" stroke="none">
<path d="M2667 2269 c-49 -42 -87 -103 -87 -139 0 -59 130 -206 233 -264 117
-66 161 -92 206 -122 26 -18 70 -44 97 -58 27 -15 74 -43 104 -62 30 -19 66
-37 80 -41 14 -3 39 -18 55 -33 17 -15 44 -35 61 -44 42 -20 162 -102 194
-131 27 -24 102 -65 120 -65 43 0 143 -71 155 -111 11 -32 -25 -88 -83 -129
l-55 -40 -99 0 c-65 0 -111 5 -135 15 -19 8 -60 15 -90 15 -29 0 -70 7 -90 15
-23 10 -69 15 -135 15 -65 0 -111 5 -135 15 -23 10 -69 15 -135 15 -65 0 -111
5 -135 15 -23 10 -69 15 -135 15 -65 0 -111 5 -135 15 -23 10 -69 15 -135 15
-65 0 -111 5 -135 15 -24 10 -71 15 -150 15 -78 0 -125 5 -150 15 -26 11 -76
15 -195 15 -118 0 -168 4 -195 15 -24 10 -71 15 -150 15 -78 0 -125 5 -150 15
-20 8 -66 15 -105 15 -38 0 -84 7 -105 15 l-35 15 -280 0 -279 0 -36 15 c-25
11 -72 15 -159 15 -68 0 -144 5 -168 12 -57 15 -96 1 -96 -37 0 -28 50 -58
158 -94 l61 -21 200 0 c134 0 209 -4 228 -12 15 -7 80 -15 143 -19 146 -9 331
-33 358 -48 13 -7 102 -11 254 -11 l234 0 89 -31 89 -31 47 16 47 17 37 -15
c21 -9 66 -16 104 -16 36 0 86 -6 111 -14 94 -30 138 -38 225 -45 50 -4 100
-12 112 -19 15 -8 89 -12 239 -12 l218 0 133 -45 132 -45 78 0 c103 0 201 -32
287 -92 l39 -28 66 0 65 0 46 45 c106 106 161 161 260 257 l59 58 38 0 c37 0
76 -17 167 -73 53 -33 169 -76 206 -77 26 0 66 -20 161 -78 30 -18 65 -35 79
-37 14 -3 43 -10 65 -16 22 -6 60 -14 85 -19 25 -5 69 -20 97 -34 29 -14 63
-26 75 -26 13 0 43 -6 68 -14 78 -25 133 -37 195 -45 34 -5 70 -13 82 -19 14
-8 76 -12 165 -12 l144 0 84 -30 c47 -16 103 -30 125 -30 22 0 58 -10 81 -23
93 -50 151 -85 240 -144 51 -34 113 -72 136 -84 24 -12 57 -32 74 -45 50 -38
472 -244 500 -244 14 0 55 -13 91 -30 40 -19 81 -30 108 -30 24 0 47 -5 50
-10 8 -13 102 -13 110 0 3 6 17 10 31 10 14 0 53 9 87 20 64 22 107 57 107 90
0 10 5 22 10 25 6 3 10 35 10 70 0 35 -4 67 -10 70 -5 3 -10 13 -10 22 0 50
-138 206 -220 248 -19 10 -48 28 -65 40 -67 50 -245 125 -297 125 -25 0 -53
16 -106 62 -20 17 -44 28 -63 28 -16 0 -46 7 -66 15 -45 19 -81 19 -126 0 -20
-8 -54 -15 -75 -15 -22 0 -56 -7 -75 -15 -20 -8 -54 -15 -75 -15 -22 0 -56 -7
-75 -15 -23 -9 -68 -15 -121 -15 l-84 0 -44 34 c-24 19 -66 48 -95 65 -39 23
-60 45 -86 88 -30 53 -43 64 -107 93 -8 4 -16 23 -18 43 -3 29 -12 43 -45 69
-94 73 -137 114 -137 130 0 10 -20 32 -44 50 -24 18 -54 49 -67 68 -13 19 -42
55 -64 80 -51 56 -115 155 -126 195 -5 17 -27 61 -49 97 l-40 67 0 72 0 72 44
41 c73 69 99 152 58 189 -24 22 -28 21 -106 -4 l-64 -21 -60 -62 c-48 -48 -65
-74 -81 -123 -12 -34 -21 -78 -21 -98 0 -64 69 -235 125 -310 12 -16 30 -46
40 -65 9 -19 32 -51 50 -70 17 -19 47 -57 66 -85 18 -27 88 -106 155 -175 66
-69 128 -139 137 -157 10 -18 41 -48 71 -68 58 -38 111 -99 101 -115 -10 -16
-181 -12 -222 5 -22 9 -67 15 -117 15 -65 0 -99 6 -166 30 -47 16 -96 30 -108
30 -13 0 -53 14 -89 30 -35 17 -74 30 -86 30 -12 0 -42 7 -67 15 -25 8 -61 17
-81 20 -23 3 -54 20 -80 44 -54 46 -100 71 -134 71 -14 0 -42 7 -62 15 -19 8
-47 15 -62 15 -14 0 -82 27 -149 60 -68 33 -130 60 -138 60 -8 0 -26 11 -39
25 -20 19 -25 35 -25 71 l0 47 -35 38 c-19 21 -54 78 -79 126 -24 49 -54 97
-66 108 -11 10 -42 48 -66 82 -36 50 -58 70 -105 93 -33 17 -88 59 -123 93
-76 74 -183 157 -205 157 -8 0 -29 13 -46 28 -16 15 -57 36 -90 47 -76 23
-143 52 -177 76 l-26 19 -179 0 -178 0 -48 -41z m360 -119 c35 -16 76 -30 90
-30 15 0 47 -13 72 -29 25 -16 60 -32 77 -36 42 -8 152 -81 217 -143 29 -28
89 -86 135 -129 92 -86 182 -212 182 -255 l0 -27 -52 6 c-62 7 -72 11 -127 58
-24 19 -51 35 -60 35 -10 0 -28 12 -42 26 -13 14 -44 37 -69 51 -25 13 -70 40
-100 59 -30 19 -66 37 -80 41 -32 7 -112 56 -171 104 -26 21 -75 52 -109 70
-35 17 -79 46 -99 64 -20 17 -53 42 -73 54 -21 12 -38 29 -38 36 0 7 16 27 35
44 l36 31 55 0 c41 0 73 -8 121 -30z m3811 -1517 c21 -9 55 -30 76 -45 21 -15
51 -28 65 -28 60 0 213 -65 269 -113 20 -18 56 -45 79 -59 31 -20 50 -44 74
-93 l33 -67 -18 -33 c-10 -18 -33 -41 -52 -51 l-33 -18 -43 13 c-24 7 -70 16
-103 21 -81 11 -180 49 -234 88 -27 19 -56 32 -75 32 -20 0 -41 10 -61 29 -16
16 -73 50 -125 77 -92 46 -138 76 -210 139 -19 16 -46 37 -60 46 l-25 16 14
17 c7 9 26 16 41 16 15 0 43 7 61 15 51 22 279 21 327 -2z"/>
</g>
</svg>
