<?xml version="1.0" standalone="no"?>
<!DOCTYPE svg PUBLIC "-//W3C//DTD SVG 20010904//EN"
 "http://www.w3.org/TR/2001/REC-SVG-20010904/DTD/svg10.dtd">
<svg version="1.0" xmlns="http://www.w3.org/2000/svg"
 width="309.000000pt" height="264.000000pt" viewBox="0 0 309.000000 264.000000"
 preserveAspectRatio="xMidYMid meet">
<metadata>
Created by potrace 1.16, written by Peter Selinger 2001-2019
</metadata>
<g transform="translate(0.000000,264.000000) scale(0.100000,-0.100000)"
fill="#000000" stroke="none">
<path d="M960 2630 c-8 -4 -34 -16 -58 -26 -26 -10 -56 -34 -75 -58 -17 -23
-50 -62 -74 -88 l-43 -47 0 -60 c0 -33 -5 -72 -10 -86 -7 -20 -6 -40 4 -74 20
-67 70 -162 100 -190 14 -14 26 -31 26 -38 0 -29 51 -113 83 -137 19 -14 46
-48 61 -76 18 -33 44 -61 76 -82 26 -17 61 -52 76 -76 16 -25 47 -56 69 -70
22 -14 77 -61 122 -104 45 -43 90 -78 100 -78 10 0 38 -23 62 -51 28 -33 63
-59 100 -76 31 -14 70 -32 86 -40 17 -7 46 -37 65 -66 28 -40 45 -55 78 -65
23 -8 68 -38 102 -68 33 -30 68 -54 76 -54 9 0 50 -20 92 -45 42 -25 84 -49
92 -54 8 -4 52 -64 98 -132 45 -68 106 -145 135 -171 51 -47 63 -58 149 -146
24 -24 76 -75 117 -113 l74 -70 -14 -13 c-49 -45 -247 -64 -326 -31 -20 8 -66
15 -105 15 -38 0 -84 7 -105 15 -19 8 -52 15 -72 15 -46 0 -142 33 -190 66
-19 13 -42 24 -50 24 -18 0 -375 178 -451 225 -30 18 -83 51 -118 72 -35 21
-82 53 -105 71 -23 18 -55 40 -71 50 -94 57 -200 132 -256 182 -36 31 -77 60
-92 64 -15 3 -35 18 -45 33 -10 15 -46 55 -80 89 -34 35 -69 78 -79 96 -9 18
-36 53 -59 78 -54 59 -71 87 -79 131 l-6 36 -38 15 c-42 16 -101 96 -162 218
-18 36 -41 76 -50 90 -23 32 -60 137 -60 168 0 25 -24 77 -48 105 -9 10 -29
17 -49 17 l-33 0 0 -130 0 -129 24 -36 c14 -20 32 -57 41 -83 10 -26 22 -60
28 -76 21 -57 166 -262 213 -303 104 -89 104 -90 104 -128 0 -41 44 -95 78
-95 23 0 37 -15 45 -51 11 -44 50 -91 87 -103 23 -7 44 -25 63 -54 16 -23 46
-51 67 -62 21 -11 60 -38 86 -61 26 -23 89 -68 138 -100 84 -53 114 -74 198
-136 17 -13 45 -27 63 -32 17 -4 72 -35 122 -68 50 -33 106 -65 124 -72 19 -7
48 -19 64 -28 93 -50 144 -80 179 -105 21 -15 45 -28 53 -28 8 0 44 -13 80
-30 35 -16 76 -30 90 -30 13 0 54 -14 90 -30 40 -19 81 -30 108 -30 24 0 47
-4 50 -10 7 -11 637 -14 648 -3 12 12 111 43 137 43 14 0 45 14 68 31 l42 31
0 69 0 68 -18 10 c-32 17 -141 51 -164 51 -39 0 -170 95 -256 184 -109 114
-142 195 -68 166 44 -16 202 -13 239 6 63 32 67 40 67 128 l0 81 -41 60 c-58
85 -182 199 -261 240 l-68 35 -65 0 -66 0 -47 -43 c-26 -24 -66 -57 -88 -75
-23 -18 -45 -43 -48 -57 -4 -14 -11 -25 -17 -25 -25 0 -222 103 -257 134 -20
18 -55 43 -77 54 -51 28 -65 39 -100 85 -15 21 -42 45 -59 54 -73 37 -184 118
-210 154 -15 22 -49 50 -76 64 -27 14 -57 37 -67 52 -23 34 -92 103 -126 126
-16 10 -31 33 -37 57 -7 26 -23 50 -46 67 -31 25 -134 179 -134 201 0 5 -18
49 -41 97 l-41 87 10 42 c6 22 13 56 16 74 3 19 15 46 26 62 20 28 132 90 162
90 32 0 72 67 62 105 l-6 25 -107 -1 c-58 0 -113 -4 -121 -9z m1533 -1609 c50
-23 119 -82 178 -152 l42 -50 -15 -15 -15 -15 -38 15 c-21 9 -49 16 -62 16
-29 0 -138 65 -159 94 -19 27 -18 91 2 110 19 20 17 20 67 -3z"/>
</g>
</svg>
