<?xml version="1.0" standalone="no"?>
<!DOCTYPE svg PUBLIC "-//W3C//DTD SVG 20010904//EN"
 "http://www.w3.org/TR/2001/REC-SVG-20010904/DTD/svg10.dtd">
<svg version="1.0" xmlns="http://www.w3.org/2000/svg"
 width="291.000000pt" height="393.000000pt" viewBox="0 0 291.000000 393.000000"
 preserveAspectRatio="xMidYMid meet">
<metadata>
Created by potrace 1.16, written by Peter Selinger 2001-2019
</metadata>
<g transform="translate(0.000000,393.000000) scale(0.100000,-0.100000)"
fill="#000000" stroke="none">
<path d="M335 3920 c-3 -5 -20 -10 -36 -10 -37 0 -177 -68 -196 -95 -8 -11
-34 -48 -59 -82 l-44 -63 0 -74 c0 -41 5 -78 10 -81 6 -3 10 -18 10 -33 1 -44
35 -131 64 -161 16 -16 26 -38 26 -56 0 -20 37 -84 125 -216 l126 -187 137
-140 c75 -76 150 -147 167 -157 16 -10 50 -37 75 -60 25 -23 65 -53 90 -67 25
-14 54 -36 65 -47 10 -12 49 -38 87 -58 41 -21 96 -64 142 -109 42 -41 80 -74
86 -74 24 0 100 -41 114 -62 9 -12 16 -36 16 -53 0 -20 19 -59 61 -119 33 -50
69 -107 80 -129 11 -21 39 -63 62 -93 23 -29 61 -80 83 -112 31 -44 49 -61 72
-65 17 -4 38 -18 49 -33 23 -35 92 -104 127 -127 16 -11 48 -60 82 -129 31
-61 71 -133 89 -159 18 -27 36 -64 40 -81 4 -18 22 -49 40 -68 18 -19 65 -83
105 -142 39 -59 84 -117 101 -128 16 -12 29 -29 29 -38 0 -19 55 -103 113
-173 20 -25 50 -76 68 -113 35 -76 35 -115 -1 -166 l-21 -30 -78 0 -78 0 -27
-21 c-32 -25 -33 -59 -3 -87 l23 -22 102 0 c56 0 110 4 120 9 9 5 41 19 70 32
29 13 69 40 88 61 l34 38 0 98 0 97 -60 90 c-33 49 -60 97 -60 107 0 9 -25 45
-56 80 -31 34 -62 74 -69 88 -7 14 -40 50 -74 81 -44 42 -61 66 -66 93 -4 19
-27 61 -51 92 -73 94 -56 102 81 35 58 -28 116 -51 130 -51 14 0 42 -7 62 -15
81 -34 182 -15 271 53 l32 24 0 80 0 80 -27 34 c-71 88 -110 127 -167 166 -62
42 -306 168 -327 168 -17 0 -80 31 -114 56 -40 30 -145 64 -195 64 -46 0 -114
-31 -141 -64 l-18 -21 -37 20 c-30 16 -48 38 -81 100 -26 49 -62 99 -93 128
-90 85 -49 109 100 58 l88 -31 91 0 90 0 36 32 c41 35 75 96 75 130 0 13 -15
50 -33 83 l-32 59 -85 59 c-112 76 -136 89 -263 131 l-107 36 -84 0 -83 0 -88
-41 -87 -41 -47 13 c-32 9 -59 26 -87 56 -22 24 -49 43 -58 43 -10 0 -37 19
-60 43 -23 23 -61 56 -84 72 -110 76 -185 138 -344 282 -15 13 -32 41 -38 61
-5 21 -26 53 -45 72 -46 45 -125 163 -137 206 -5 20 -25 47 -48 66 -22 17 -40
37 -40 45 0 7 -17 48 -38 91 -22 42 -49 109 -62 149 l-23 72 11 38 c6 21 24
58 39 81 l28 44 55 19 c34 12 81 19 128 19 l74 0 29 29 29 29 0 51 0 51 -134
0 c-79 0 -137 -4 -141 -10z m1360 -1731 c33 -11 84 -31 113 -45 29 -13 66 -24
82 -24 24 0 35 -8 57 -41 l27 -41 -15 -9 c-28 -17 -91 -9 -156 21 -35 17 -69
30 -75 30 -12 0 -156 88 -164 101 -20 34 46 38 131 8z m493 -716 c21 -9 51
-27 67 -39 17 -12 77 -46 135 -75 58 -29 119 -62 135 -75 17 -12 54 -34 82
-49 49 -25 113 -84 113 -105 0 -9 -28 -40 -36 -40 -3 0 -21 7 -41 15 -19 8
-45 15 -57 15 -66 0 -211 78 -322 173 -28 24 -74 60 -103 81 -54 40 -65 70
-35 100 19 20 18 20 62 -1z"/>
</g>
</svg>
