<?xml version="1.0" standalone="no"?>
<!DOCTYPE svg PUBLIC "-//W3C//DTD SVG 20010904//EN"
 "http://www.w3.org/TR/2001/REC-SVG-20010904/DTD/svg10.dtd">
<svg version="1.0" xmlns="http://www.w3.org/2000/svg"
 width="282.000000pt" height="228.000000pt" viewBox="0 0 282.000000 228.000000"
 preserveAspectRatio="xMidYMid meet">
<metadata>
Created by potrace 1.16, written by Peter Selinger 2001-2019
</metadata>
<g transform="translate(0.000000,228.000000) scale(0.100000,-0.100000)"
fill="#000000" stroke="none">
<path d="M0 2246 l0 -34 42 -31 42 -31 73 0 c43 0 89 -6 110 -15 19 -8 47 -15
62 -15 16 0 61 -23 109 -55 89 -59 154 -95 173 -95 38 0 169 -88 207 -139 13
-18 37 -34 61 -41 44 -11 59 -26 70 -67 5 -19 25 -40 62 -64 38 -26 63 -52 82
-88 19 -34 44 -62 76 -82 26 -17 58 -47 71 -68 13 -20 56 -70 95 -111 40 -41
80 -88 91 -105 10 -16 35 -50 56 -75 36 -44 88 -147 88 -175 0 -20 -79 -20
-127 0 -20 8 -66 15 -105 15 -38 0 -84 7 -105 15 -22 9 -67 15 -120 15 -52 0
-97 6 -120 15 -45 19 -293 21 -326 3 -21 -11 -137 -27 -237 -32 -25 -1 -66
-12 -92 -24 -26 -12 -52 -22 -58 -22 -30 0 -112 -55 -167 -113 l-63 -65 0
-112 0 -111 19 -38 c24 -46 34 -54 87 -69 59 -17 73 -15 86 12 8 19 7 34 -6
66 -22 54 -22 197 -1 228 27 37 154 92 216 92 34 0 85 11 139 30 l84 30 138 0
c101 0 149 -4 175 -15 20 -8 66 -15 105 -15 38 0 84 -7 105 -15 19 -8 52 -15
72 -15 20 0 56 -6 81 -14 58 -18 123 -35 180 -46 25 -5 69 -20 97 -34 29 -14
58 -26 64 -26 6 0 45 -16 87 -35 l75 -36 196 -189 c108 -104 216 -209 241
-234 25 -24 61 -51 80 -61 19 -9 56 -35 81 -56 26 -21 68 -48 95 -60 27 -12
57 -26 66 -30 10 -5 52 -9 93 -9 57 0 75 3 75 14 0 7 9 25 20 39 l20 25 0 91
0 91 -106 110 c-80 82 -116 112 -143 120 -21 5 -55 25 -77 43 -40 35 -173 107
-196 107 -16 0 -333 156 -370 182 -16 11 -28 29 -28 40 0 12 -19 39 -43 62
-54 52 -98 109 -126 164 -42 83 -164 253 -206 289 -24 20 -55 58 -70 84 -17
32 -43 60 -74 80 -26 17 -58 47 -71 68 -43 63 -367 381 -388 381 -11 0 -40 16
-64 35 -59 47 -104 71 -192 99 -42 14 -93 37 -113 51 -21 14 -45 25 -54 25 -8
0 -41 18 -73 40 l-57 40 -184 0 -185 0 0 -34z m2430 -1853 c14 -9 36 -26 50
-39 14 -12 46 -42 73 -65 31 -27 47 -50 47 -65 0 -40 -29 -28 -101 41 -36 35
-78 69 -92 74 -30 12 -62 55 -52 71 8 12 38 5 75 -17z"/>
</g>
</svg>
