<?xml version="1.0" standalone="no"?>
<!DOCTYPE svg PUBLIC "-//W3C//DTD SVG 20010904//EN"
 "http://www.w3.org/TR/2001/REC-SVG-20010904/DTD/svg10.dtd">
<svg version="1.0" xmlns="http://www.w3.org/2000/svg"
 width="393.000000pt" height="168.000000pt" viewBox="0 0 393.000000 168.000000"
 preserveAspectRatio="xMidYMid meet">
<metadata>
Created by potrace 1.16, written by Peter Selinger 2001-2019
</metadata>
<g transform="translate(0.000000,168.000000) scale(0.100000,-0.100000)"
fill="#000000" stroke="none">
<path d="M2215 1668 c-11 -6 -27 -14 -35 -18 -8 -4 -19 -19 -24 -33 -14 -38
15 -67 67 -67 51 0 326 -92 375 -125 20 -14 43 -25 52 -25 8 0 35 -14 60 -30
25 -16 51 -30 59 -30 33 0 161 -72 213 -119 32 -29 73 -57 93 -62 19 -5 43
-22 52 -36 10 -15 37 -45 60 -67 143 -137 232 -234 253 -275 11 -22 34 -51 51
-63 30 -22 129 -175 129 -200 0 -7 14 -33 30 -58 16 -25 30 -58 30 -73 0 -15
11 -49 24 -75 35 -71 39 -88 21 -106 -24 -24 -55 -20 -105 14 -25 16 -56 30
-70 30 -30 0 -123 31 -198 66 -29 13 -65 24 -80 24 -15 0 -47 14 -72 30 -25
16 -58 30 -73 30 -15 0 -44 7 -64 15 -19 8 -53 15 -75 15 -21 0 -55 7 -75 15
-20 8 -66 15 -105 15 -38 0 -84 7 -105 15 -50 21 -454 22 -522 1 -82 -26 -145
-37 -177 -30 -41 8 -129 -19 -195 -61 -30 -18 -70 -41 -89 -50 l-35 -17 -35
12 c-19 7 -55 29 -80 49 -25 20 -58 45 -75 55 -16 11 -50 38 -75 62 -25 23
-73 56 -108 74 -34 17 -84 50 -110 72 -26 23 -72 57 -102 76 -30 20 -85 64
-122 99 -37 35 -75 63 -85 63 -10 0 -44 26 -76 58 -43 44 -85 72 -172 115 -63
31 -123 57 -134 57 -21 0 -41 -27 -41 -56 0 -25 176 -200 236 -234 29 -16 58
-38 66 -48 7 -10 33 -30 58 -43 77 -42 163 -101 210 -144 25 -22 58 -49 75
-60 16 -10 60 -47 97 -82 37 -34 75 -63 85 -63 10 0 37 -23 61 -50 26 -30 67
-62 100 -79 75 -38 132 -88 176 -156 44 -65 60 -75 120 -75 60 0 86 24 86 81
0 61 26 105 88 149 43 31 65 40 96 40 23 0 79 14 126 30 l84 30 213 0 c167 0
221 -3 250 -15 19 -8 52 -15 72 -15 20 0 56 -6 81 -14 60 -19 125 -35 182 -46
26 -5 56 -13 67 -19 11 -6 31 -11 46 -11 14 0 56 -18 93 -40 36 -22 82 -45
102 -50 19 -5 59 -21 88 -35 28 -14 65 -25 80 -25 17 0 52 -16 86 -40 l57 -40
89 0 c49 0 92 5 95 10 3 6 26 10 51 10 l44 0 0 119 c0 69 -4 122 -10 126 -5 3
-10 26 -10 50 0 35 -16 76 -75 196 -41 83 -75 159 -75 168 0 10 -13 30 -30 46
-16 15 -50 58 -74 95 -45 66 -330 354 -397 399 -19 13 -47 41 -62 62 -27 37
-90 79 -120 79 -7 0 -24 12 -38 26 -31 34 -210 124 -246 124 -16 0 -48 14 -73
30 -25 16 -52 30 -60 30 -8 0 -35 14 -60 30 -25 16 -58 30 -73 30 -15 0 -44 7
-64 15 -19 8 -55 15 -79 15 -23 0 -46 5 -49 10 -8 13 -95 12 -120 -2z"/>
<path d="M456 741 c-10 -11 -16 -30 -14 -42 3 -25 56 -66 97 -76 14 -3 44 -25
67 -47 22 -23 53 -49 68 -60 41 -27 66 -89 66 -164 0 -35 -5 -72 -10 -83 l-11
-19 -86 0 -86 0 -83 40 c-46 22 -100 54 -120 72 -20 18 -58 44 -83 58 -25 14
-51 37 -58 53 -7 15 -19 39 -26 55 -16 33 -100 81 -144 82 l-33 0 0 -59 c0
-33 5 -63 10 -66 6 -3 10 -16 10 -27 0 -25 140 -163 215 -212 28 -18 56 -41
64 -50 16 -19 83 -56 101 -56 7 0 41 -14 77 -30 l64 -30 122 0 122 0 50 28
c37 20 57 40 77 77 l28 50 0 108 0 108 -21 42 c-12 23 -34 56 -49 73 -15 18
-44 56 -64 86 -37 56 -68 78 -112 78 -13 0 -41 7 -61 15 -53 22 -155 20 -177
-4z"/>
</g>
</svg>
