<?xml version="1.0" standalone="no"?>
<!DOCTYPE svg PUBLIC "-//W3C//DTD SVG 20010904//EN"
 "http://www.w3.org/TR/2001/REC-SVG-20010904/DTD/svg10.dtd">
<svg version="1.0" xmlns="http://www.w3.org/2000/svg"
 width="267.000000pt" height="387.000000pt" viewBox="0 0 267.000000 387.000000"
 preserveAspectRatio="xMidYMid meet">
<metadata>
Created by potrace 1.16, written by Peter Selinger 2001-2019
</metadata>
<g transform="translate(0.000000,387.000000) scale(0.100000,-0.100000)"
fill="#000000" stroke="none">
<path d="M23 3840 c-13 -15 -23 -37 -23 -49 0 -27 47 -51 100 -51 22 0 57 -7
77 -15 19 -8 47 -15 62 -15 14 0 43 -11 63 -25 20 -13 67 -34 105 -46 37 -12
82 -34 98 -48 62 -54 131 -108 155 -121 14 -7 76 -63 138 -124 148 -144 246
-289 297 -438 l35 -103 0 -156 0 -155 -26 -53 c-15 -29 -32 -55 -38 -57 -13
-5 -67 41 -210 178 -56 53 -128 115 -161 137 l-60 41 -99 0 -100 0 -73 -73
-73 -73 0 -65 c0 -68 35 -184 68 -229 10 -13 32 -28 48 -32 16 -4 48 -23 69
-41 50 -43 117 -77 150 -77 14 0 42 -7 62 -15 24 -10 71 -15 150 -15 130 0
154 -9 194 -69 47 -71 105 -144 151 -191 26 -27 56 -66 67 -87 11 -22 48 -66
83 -98 35 -32 68 -72 73 -89 6 -17 29 -43 55 -61 33 -23 49 -44 60 -76 11 -32
27 -51 58 -72 24 -16 50 -41 60 -55 9 -15 35 -50 57 -79 22 -28 60 -79 85
-112 63 -85 137 -179 176 -225 18 -21 36 -52 40 -70 3 -18 26 -51 53 -77 78
-79 171 -209 228 -323 19 -39 52 -91 72 -116 49 -59 65 -98 50 -116 -17 -21
-276 -20 -326 1 -26 11 -74 15 -180 15 -105 0 -153 4 -180 15 -19 8 -53 15
-75 15 -21 0 -55 7 -75 15 -19 8 -53 15 -75 15 -21 0 -55 7 -75 15 -19 8 -60
15 -90 15 -29 0 -70 7 -90 15 -20 8 -66 15 -105 15 -118 0 -137 -28 -65 -98
l43 -42 42 0 c24 0 59 -7 79 -15 19 -8 60 -15 90 -15 29 0 70 -7 90 -15 19 -8
53 -15 75 -15 21 0 55 -7 75 -15 19 -8 53 -15 75 -15 21 0 55 -7 75 -15 19 -8
60 -15 90 -15 29 0 70 -7 90 -15 19 -8 60 -15 90 -15 29 0 70 -7 90 -15 25
-10 71 -15 154 -15 68 0 120 -4 124 -10 4 -6 62 -10 140 -10 l134 0 26 25 25
26 0 68 0 68 -20 18 c-10 9 -30 39 -44 65 -46 89 -227 349 -256 370 -17 12
-30 28 -30 36 0 29 -51 114 -81 136 -17 13 -43 43 -57 68 -15 25 -45 68 -67
97 -22 28 -60 79 -85 112 -25 34 -69 90 -99 124 -29 34 -66 88 -82 119 -16 31
-44 68 -62 82 -19 14 -46 48 -60 74 -14 26 -57 76 -94 110 -138 125 -191 188
-237 279 -14 29 -48 71 -76 95 -27 24 -50 49 -50 56 0 22 -31 75 -66 115 -41
45 -42 67 -5 109 46 53 61 89 112 268 7 25 14 108 16 186 l4 140 -31 65 c-16
35 -30 70 -30 77 0 24 -93 198 -126 234 -18 20 -42 55 -54 78 -11 22 -38 51
-60 65 -22 14 -51 43 -65 64 -14 24 -44 50 -75 67 -27 15 -62 42 -76 61 -14
18 -51 47 -82 64 -31 16 -82 46 -112 65 -30 19 -67 38 -82 41 -14 3 -39 18
-54 34 -15 16 -34 29 -42 29 -7 0 -43 14 -79 30 -40 19 -81 30 -108 30 -24 0
-47 5 -50 10 -3 6 -41 10 -83 9 l-77 0 -22 -29z m620 -1325 c33 -38 59 -58 86
-65 41 -11 60 -28 85 -77 35 -70 13 -96 -57 -69 -24 9 -53 16 -67 16 -38 0
-148 59 -171 92 -26 36 -36 106 -20 137 9 16 21 21 54 21 l42 0 48 -55z"/>
</g>
</svg>
