<?xml version="1.0" standalone="no"?>
<!DOCTYPE svg PUBLIC "-//W3C//DTD SVG 20010904//EN"
 "http://www.w3.org/TR/2001/REC-SVG-20010904/DTD/svg10.dtd">
<svg version="1.0" xmlns="http://www.w3.org/2000/svg"
 width="264.000000pt" height="357.000000pt" viewBox="0 0 264.000000 357.000000"
 preserveAspectRatio="xMidYMid meet">
<metadata>
Created by potrace 1.16, written by Peter Selinger 2001-2019
</metadata>
<g transform="translate(0.000000,357.000000) scale(0.100000,-0.100000)"
fill="#000000" stroke="none">
<path d="M23 3556 c-29 -14 -33 -80 -5 -95 41 -22 144 -51 181 -51 30 0 50 -8
83 -35 50 -40 190 -115 214 -115 10 0 36 -20 58 -44 49 -52 123 -106 145 -106
9 0 34 -20 55 -45 21 -25 55 -57 77 -71 41 -25 132 -101 184 -152 60 -59 175
-225 175 -252 0 -7 16 -30 36 -52 35 -39 84 -130 84 -156 0 -23 68 -147 94
-171 14 -14 26 -30 26 -37 0 -7 20 -55 45 -106 27 -54 43 -101 40 -110 -10
-25 -33 -29 -72 -13 -23 10 -69 15 -135 15 -65 0 -111 5 -135 15 -19 8 -60 15
-90 15 -29 0 -70 7 -90 15 -22 9 -67 15 -120 15 -52 0 -97 6 -120 15 -19 8
-52 15 -72 15 -20 0 -57 7 -83 17 l-46 16 -31 -13 c-18 -7 -43 -21 -56 -32
l-25 -19 0 -65 c0 -73 20 -123 77 -189 18 -22 37 -51 40 -65 4 -13 35 -58 70
-98 35 -40 71 -85 81 -100 34 -54 113 -149 142 -171 17 -12 43 -48 60 -81 16
-32 45 -71 65 -86 19 -14 35 -35 35 -45 0 -10 22 -43 49 -73 28 -30 58 -68 68
-83 16 -26 35 -50 142 -188 21 -27 49 -70 61 -95 13 -25 45 -69 71 -98 27 -30
53 -70 59 -91 5 -21 20 -46 31 -57 59 -53 194 -236 250 -339 38 -71 67 -95
116 -95 l42 0 16 30 c22 42 19 58 -19 100 -18 21 -52 73 -75 116 -23 44 -66
108 -96 143 -32 39 -57 78 -61 98 -4 19 -24 55 -46 81 -22 26 -51 69 -65 96
-33 66 -137 217 -168 246 -14 13 -25 32 -25 42 0 10 -28 49 -63 86 -34 37 -85
101 -112 142 -27 41 -67 95 -90 120 -22 25 -61 77 -87 115 -25 39 -58 81 -72
94 -14 14 -26 34 -26 45 0 11 -19 38 -43 60 -93 88 -171 223 -146 252 17 20
217 19 266 -1 19 -8 60 -15 90 -15 29 0 70 -7 90 -15 19 -8 60 -15 90 -15 29
0 70 -7 90 -15 19 -8 65 -15 102 -15 36 0 86 -7 111 -15 25 -8 62 -17 82 -20
l36 -6 198 -200 c113 -114 209 -202 223 -206 14 -3 61 -44 104 -89 53 -57 90
-87 113 -93 18 -5 46 -18 61 -29 44 -30 110 -62 131 -62 11 0 45 21 76 46 l56
46 0 100 0 99 -39 52 c-21 29 -50 76 -64 104 l-26 51 -151 101 c-142 95 -237
141 -291 141 -11 0 -50 14 -86 30 -35 17 -76 30 -90 30 -64 0 -135 67 -196
186 -14 27 -35 63 -46 79 -12 17 -21 37 -21 46 0 9 -13 34 -29 56 -39 53 -76
128 -90 178 -6 23 -29 71 -51 107 -22 37 -40 73 -40 81 0 8 -13 32 -29 54 -16
22 -39 59 -50 82 -32 62 -345 373 -407 404 -28 14 -75 48 -105 75 -30 27 -74
59 -99 72 -25 12 -65 39 -90 60 -44 37 -178 110 -201 110 -20 0 -83 34 -135
72 l-51 38 -104 -1 c-57 -1 -114 -6 -126 -13z m2121 -1936 c64 -23 177 -93
218 -137 38 -41 118 -165 118 -185 0 -25 -11 -48 -23 -48 -5 0 -28 15 -51 34
-23 18 -55 40 -72 49 -17 9 -73 58 -126 111 -185 184 -200 223 -64 176z"/>
</g>
</svg>
