<?xml version="1.0" standalone="no"?>
<!DOCTYPE svg PUBLIC "-//W3C//DTD SVG 20010904//EN"
 "http://www.w3.org/TR/2001/REC-SVG-20010904/DTD/svg10.dtd">
<svg version="1.0" xmlns="http://www.w3.org/2000/svg"
 width="336.000000pt" height="264.000000pt" viewBox="0 0 336.000000 264.000000"
 preserveAspectRatio="xMidYMid meet">
<metadata>
Created by potrace 1.16, written by Peter Selinger 2001-2019
</metadata>
<g transform="translate(0.000000,264.000000) scale(0.100000,-0.100000)"
fill="#000000" stroke="none">
<path d="M38 2613 c-73 -50 -34 -103 74 -103 34 0 90 -13 158 -36 102 -34 142
-57 205 -115 17 -15 44 -30 62 -34 23 -5 77 -51 207 -182 97 -96 176 -182 176
-190 0 -8 24 -38 53 -67 28 -29 65 -72 81 -97 17 -24 40 -55 52 -69 38 -44
114 -161 149 -229 18 -36 43 -75 55 -86 12 -11 34 -40 48 -65 52 -90 104 -161
145 -195 50 -43 77 -82 77 -113 0 -52 -170 -83 -257 -47 -28 12 -82 15 -255
15 -172 0 -226 3 -255 15 -19 8 -60 15 -90 15 -29 0 -70 7 -90 15 -23 10 -69
15 -135 15 -65 0 -111 5 -135 15 -45 19 -273 21 -291 3 -39 -39 12 -98 85 -98
24 0 60 -7 80 -15 26 -11 76 -15 195 -15 118 0 168 -4 195 -15 19 -8 60 -15
90 -15 29 0 70 -7 90 -15 20 -8 66 -15 105 -15 38 0 84 -7 105 -15 20 -8 66
-15 105 -15 38 0 84 -7 105 -15 27 -12 79 -15 225 -15 145 0 197 -3 225 -15
19 -8 49 -15 65 -15 30 0 55 -21 106 -89 13 -17 45 -45 72 -63 26 -17 61 -52
78 -78 21 -32 50 -58 86 -78 29 -17 64 -45 76 -62 21 -29 105 -80 133 -80 8 0
27 -17 44 -38 21 -26 64 -54 144 -95 63 -32 138 -73 166 -91 60 -38 219 -90
316 -103 20 -3 40 -9 43 -14 7 -12 101 -11 109 1 3 6 20 10 36 10 46 0 123 44
168 97 l41 48 0 122 c0 72 -4 124 -10 128 -6 4 -20 25 -32 48 -11 23 -29 48
-39 55 -10 7 -31 34 -46 60 -29 51 -234 261 -323 331 -30 24 -93 62 -140 86
-47 24 -107 62 -134 84 -26 23 -56 41 -66 41 -10 0 -86 34 -169 75 -112 55
-162 75 -192 75 -22 0 -56 7 -76 15 -23 10 -69 15 -131 15 l-95 0 -43 -44
c-24 -24 -44 -52 -44 -63 0 -11 18 -59 41 -107 22 -47 37 -91 34 -96 -20 -33
-83 28 -177 170 -24 36 -59 86 -79 110 -20 25 -47 65 -59 90 -13 25 -45 69
-72 99 -27 30 -67 90 -90 135 -25 51 -58 99 -88 128 -35 33 -51 57 -56 84 -5
29 -26 57 -91 123 -46 47 -95 104 -110 126 -37 55 -239 261 -287 292 -22 14
-60 45 -85 68 -25 23 -68 55 -96 69 -27 15 -73 42 -102 60 -55 35 -167 76
-208 76 -13 0 -27 5 -30 10 -3 6 -47 10 -98 9 l-92 0 -37 -26z m2193 -1492
c146 -49 436 -195 509 -255 30 -25 73 -58 94 -72 22 -15 65 -52 96 -83 30 -31
68 -64 83 -74 15 -10 37 -37 48 -60 12 -23 43 -62 69 -87 l47 -45 27 -82 27
-82 -16 -38 c-9 -20 -23 -46 -33 -56 -19 -22 -93 -57 -119 -57 -23 0 -150 43
-200 68 -21 10 -73 29 -117 43 -54 16 -92 35 -120 60 -22 20 -72 52 -111 72
-38 19 -97 58 -130 86 -33 28 -81 62 -107 76 -26 13 -55 37 -65 52 -21 31 -89
99 -129 129 l-28 22 13 16 c17 20 96 21 148 2 21 -8 70 -17 109 -21 l71 -6 7
16 c3 9 6 37 6 61 l0 44 -36 40 c-23 25 -51 44 -76 51 -70 18 -143 70 -204
144 l-36 45 12 15 c18 21 31 19 161 -24z"/>
</g>
</svg>
