<?xml version="1.0" standalone="no"?>
<!DOCTYPE svg PUBLIC "-//W3C//DTD SVG 20010904//EN"
 "http://www.w3.org/TR/2001/REC-SVG-20010904/DTD/svg10.dtd">
<svg version="1.0" xmlns="http://www.w3.org/2000/svg"
 width="900.000000pt" height="261.000000pt" viewBox="0 0 900.000000 261.000000"
 preserveAspectRatio="xMidYMid meet">
<metadata>
Created by potrace 1.16, written by Peter Selinger 2001-2019
</metadata>
<g transform="translate(0.000000,261.000000) scale(0.100000,-0.100000)"
fill="#000000" stroke="none">
<path d="M13 2583 c-7 -15 -13 -36 -13 -47 0 -30 112 -126 199 -172 41 -21 84
-53 99 -72 23 -31 106 -82 133 -82 6 0 34 -20 62 -45 28 -24 77 -58 109 -75
33 -18 98 -58 146 -91 48 -32 94 -59 102 -59 22 0 148 -85 196 -131 22 -22 57
-44 77 -50 20 -5 60 -31 89 -58 29 -26 73 -58 98 -71 25 -12 64 -38 88 -58 57
-46 129 -95 172 -117 19 -10 55 -39 81 -64 25 -25 66 -58 90 -74 24 -15 73
-49 109 -77 36 -27 91 -69 123 -92 32 -24 82 -61 110 -83 29 -22 73 -53 98
-67 25 -15 58 -43 73 -62 15 -20 40 -39 59 -44 43 -12 141 -75 197 -128 25
-23 69 -54 98 -69 29 -15 65 -43 79 -62 15 -19 47 -45 72 -58 25 -12 74 -48
109 -79 34 -31 70 -56 79 -56 8 0 32 -15 53 -32 214 -186 270 -224 382 -261
145 -49 224 -58 348 -40 120 17 185 68 220 173 29 85 25 122 -32 310 -14 46
-31 77 -62 110 -24 26 -55 64 -69 86 -36 57 -62 77 -166 130 -52 26 -111 61
-130 78 -20 18 -63 40 -96 50 -85 27 -176 69 -226 105 -23 17 -49 31 -58 31
-9 0 -36 10 -61 23 -65 32 -61 55 15 83 l60 22 323 1 323 1 36 -15 c19 -8 60
-15 90 -15 29 0 70 -7 90 -15 19 -8 45 -15 57 -15 12 0 60 -13 106 -30 47 -16
95 -30 108 -30 33 0 103 -34 131 -64 l23 -25 -6 -35 c-8 -41 24 -145 58 -191
13 -16 33 -50 46 -75 12 -25 38 -61 57 -82 20 -20 52 -60 72 -90 29 -41 46
-56 79 -67 27 -8 52 -26 69 -48 26 -33 88 -73 116 -73 7 0 26 -13 41 -29 15
-16 40 -31 54 -34 15 -3 49 -24 76 -46 26 -23 55 -41 64 -41 9 0 85 -34 169
-75 85 -41 158 -75 164 -75 6 0 35 -11 65 -25 82 -37 169 -65 207 -65 31 0
130 -30 144 -43 3 -4 35 -7 69 -7 l63 0 71 68 70 67 0 83 c0 93 -15 134 -80
212 -21 25 -50 69 -64 97 -17 35 -40 61 -66 78 -22 14 -51 42 -64 63 -35 55
-82 92 -118 92 -24 0 -47 15 -103 65 -40 36 -78 65 -84 65 -6 0 -11 5 -11 10
0 6 4 10 9 10 6 0 13 -4 16 -10 10 -15 98 -12 140 6 l38 16 41 -16 c23 -9 59
-16 79 -16 21 0 54 -7 74 -15 22 -9 67 -15 120 -15 l85 0 65 -30 c37 -17 81
-30 104 -30 22 0 56 -7 76 -15 19 -8 53 -15 75 -15 21 0 55 -7 75 -15 19 -8
60 -15 90 -15 29 0 70 -7 90 -15 20 -8 66 -15 105 -15 38 0 84 -7 105 -15 19
-8 53 -15 75 -15 21 0 55 -7 75 -15 22 -9 67 -15 120 -15 52 0 97 -6 120 -15
19 -8 53 -15 75 -15 21 0 55 -7 75 -15 l35 -15 360 0 359 0 41 21 c23 12 122
48 222 81 214 71 209 68 266 127 25 25 58 54 73 64 15 10 30 30 33 45 4 15 19
48 35 73 16 25 29 57 29 70 0 25 32 124 43 136 11 10 8 121 -3 141 -5 9 -19
46 -30 81 -12 35 -32 80 -46 100 -13 19 -24 44 -24 54 0 10 -24 42 -53 71 -29
29 -69 77 -89 107 -37 55 -178 199 -196 199 -5 0 -46 34 -91 75 l-81 75 -49 0
-49 0 -27 35 c-24 32 -165 115 -196 115 -6 0 -37 16 -69 36 -32 20 -109 53
-172 74 l-113 39 -78 1 -79 0 -29 -29 c-53 -53 -28 -111 47 -111 22 0 78 -13
124 -30 47 -16 96 -30 110 -30 14 0 45 -14 70 -30 25 -16 52 -30 61 -30 8 0
28 -13 44 -30 16 -16 35 -30 43 -30 24 0 85 -32 131 -69 93 -74 156 -111 189
-111 l32 0 34 -53 c19 -29 50 -64 68 -77 19 -13 45 -39 58 -59 13 -20 44 -56
69 -81 61 -60 109 -135 116 -179 3 -20 12 -56 20 -81 24 -71 19 -180 -10 -269
-40 -119 -73 -170 -135 -213 -56 -39 -131 -78 -149 -78 -5 0 -38 -13 -73 -30
l-63 -30 -101 0 c-68 0 -114 -5 -137 -15 -52 -21 -362 -21 -414 0 -27 12 -80
15 -237 15 l-202 0 -84 30 c-53 18 -105 30 -138 30 -29 0 -69 7 -89 15 -19 8
-53 15 -75 15 -21 0 -55 7 -75 15 -19 8 -60 15 -90 15 -29 0 -70 7 -90 15 -20
8 -66 15 -105 15 -38 0 -84 7 -105 15 -19 8 -53 15 -75 15 -21 0 -55 7 -75 15
-19 8 -45 15 -57 15 -12 0 -60 13 -106 30 -49 17 -106 30 -134 30 -27 0 -66 5
-87 12 -30 8 -48 8 -79 -1 l-39 -12 -37 16 c-23 9 -68 15 -121 15 -52 0 -97 6
-120 15 -19 8 -53 15 -75 15 -21 0 -55 7 -75 15 -19 8 -53 15 -75 15 -21 0
-55 7 -75 15 -19 8 -53 15 -75 15 -21 0 -55 7 -75 15 -19 8 -53 15 -75 15 -21
0 -55 7 -75 15 -19 8 -53 15 -75 15 -22 0 -64 11 -94 25 -82 37 -169 65 -206
65 -18 0 -53 6 -78 14 -87 28 -136 38 -210 45 -41 4 -85 13 -97 19 -12 7 -40
12 -63 12 -22 0 -57 7 -77 15 -19 8 -53 15 -75 15 -21 0 -55 7 -75 15 -20 8
-66 15 -105 15 -38 0 -84 7 -105 15 -49 21 -198 20 -248 -1 l-38 -16 -41 16
c-56 22 -64 21 -116 -14 l-45 -30 -105 0 -105 0 -45 -30 c-32 -22 -57 -30 -88
-30 -90 0 -292 -133 -338 -222 -13 -26 -28 -49 -34 -53 -23 -14 -70 9 -134 65
-37 33 -75 60 -85 60 -10 0 -28 12 -42 26 -13 14 -74 59 -135 100 -62 41 -123
89 -137 108 -15 18 -39 36 -54 39 -15 3 -55 28 -88 56 -33 28 -76 59 -96 70
-51 28 -169 109 -199 136 -14 13 -48 34 -76 48 -28 14 -76 48 -106 76 -30 28
-91 68 -135 90 -44 22 -105 63 -135 90 -30 27 -86 66 -124 85 -74 37 -282 172
-324 211 -14 13 -45 33 -70 45 -25 12 -65 39 -90 59 -25 21 -65 48 -90 62 -25
13 -68 41 -97 61 -39 28 -62 38 -90 38 l-38 0 -12 -27z m2834 -1498 c19 -8 47
-15 60 -15 14 0 54 -13 90 -30 35 -16 70 -30 76 -30 13 0 68 -29 148 -78 54
-33 64 -36 130 -47 23 -3 54 -21 81 -44 24 -22 73 -59 108 -83 45 -30 73 -59
90 -90 14 -25 40 -62 58 -83 45 -51 52 -73 52 -170 l0 -84 -32 -23 c-48 -34
-155 -38 -240 -9 -126 44 -246 113 -338 196 -25 23 -81 65 -125 94 -44 30 -93
71 -109 92 -26 37 -89 79 -119 79 -7 0 -27 17 -44 38 -17 20 -55 49 -86 65
-30 15 -60 34 -67 42 -28 33 12 91 114 166 45 33 95 38 153 14z m2118 -95 c75
-26 100 -38 149 -72 22 -16 52 -28 69 -28 40 0 188 -72 236 -115 21 -19 44
-35 51 -35 17 0 104 -54 160 -100 25 -21 68 -49 96 -63 47 -24 114 -82 114
-99 0 -4 25 -36 56 -70 82 -91 110 -160 84 -208 -19 -36 -47 -43 -98 -27 -64
21 -138 37 -165 37 -12 0 -55 16 -96 35 -40 19 -78 35 -84 35 -18 0 -259 120
-293 147 -18 13 -48 28 -67 34 -19 5 -62 33 -96 62 -66 57 -144 117 -206 159
-58 39 -117 103 -169 183 -48 72 -53 93 -36 126 l11 19 112 0 c87 0 126 -5
172 -20z"/>
</g>
</svg>
