<?xml version="1.0" standalone="no"?>
<!DOCTYPE svg PUBLIC "-//W3C//DTD SVG 20010904//EN"
 "http://www.w3.org/TR/2001/REC-SVG-20010904/DTD/svg10.dtd">
<svg version="1.0" xmlns="http://www.w3.org/2000/svg"
 width="834.000000pt" height="213.000000pt" viewBox="0 0 834.000000 213.000000"
 preserveAspectRatio="xMidYMid meet">
<metadata>
Created by potrace 1.16, written by Peter Selinger 2001-2019
</metadata>
<g transform="translate(0.000000,213.000000) scale(0.100000,-0.100000)"
fill="#000000" stroke="none">
<path d="M0 2106 c0 -14 5 -28 10 -31 6 -3 10 -15 10 -26 0 -26 52 -79 77 -79
11 0 30 -12 44 -26 32 -34 91 -64 127 -64 18 0 38 -10 53 -26 32 -35 119 -78
227 -113 48 -15 115 -42 149 -59 87 -45 232 -88 338 -101 34 -5 70 -13 82 -19
12 -7 60 -12 108 -12 53 0 99 -6 122 -15 19 -8 48 -15 63 -15 15 0 44 7 63 15
28 11 79 15 209 15 l173 0 85 30 c103 37 167 39 230 7 42 -21 55 -37 79 -99 5
-14 32 -41 59 -59 27 -17 63 -54 81 -80 19 -30 47 -57 72 -69 22 -12 57 -36
77 -54 20 -19 93 -62 161 -96 68 -34 141 -74 162 -90 21 -15 54 -31 73 -34 18
-4 54 -24 79 -46 30 -27 55 -40 74 -40 15 0 48 -14 73 -30 25 -16 58 -30 73
-30 15 0 44 -7 64 -15 19 -8 47 -15 61 -15 13 0 64 -18 111 -41 110 -52 191
-79 236 -79 20 0 52 -7 72 -15 19 -8 45 -15 57 -15 30 0 135 -38 166 -60 14
-9 44 -27 67 -39 l42 -21 116 0 c80 0 127 -5 152 -15 19 -8 52 -15 72 -15 36
0 211 -55 287 -90 61 -28 160 -60 186 -60 13 0 65 -20 116 -45 52 -25 104 -45
116 -45 12 0 60 -13 106 -30 53 -18 105 -30 138 -30 29 0 69 -7 89 -15 19 -8
45 -15 56 -15 12 0 81 -20 154 -45 84 -29 150 -45 180 -45 26 0 68 -6 93 -14
94 -30 138 -38 225 -45 50 -4 100 -12 112 -19 12 -7 55 -12 97 -12 41 0 78 -5
81 -10 8 -14 762 -14 770 0 3 6 26 10 49 10 24 0 60 7 79 15 20 8 61 15 90 15
30 0 71 7 90 15 20 8 54 15 75 15 22 0 56 7 75 15 20 8 49 15 64 15 18 0 61
22 118 61 49 33 110 71 136 85 26 13 67 46 91 74 24 27 50 50 59 50 9 0 23 8
31 17 27 30 78 141 78 168 0 14 7 42 15 62 10 24 15 70 15 139 0 58 4 106 10
109 12 8 13 119 1 143 -5 9 -17 37 -27 61 -10 24 -31 61 -45 81 -15 21 -36 55
-48 77 -11 22 -36 52 -55 67 -20 15 -43 40 -51 57 -9 16 -33 40 -55 54 -22 14
-65 47 -95 73 -89 77 -160 129 -212 156 -26 13 -70 43 -97 65 -26 23 -56 41
-65 41 -9 0 -81 32 -161 71 -201 98 -238 109 -363 109 l-104 0 -16 -18 c-23
-25 -22 -85 1 -105 14 -13 39 -17 103 -17 l84 0 104 -35 c67 -23 130 -53 177
-85 40 -27 92 -59 116 -71 24 -11 63 -38 88 -58 25 -20 65 -50 90 -66 24 -17
69 -56 100 -88 30 -32 76 -70 102 -84 70 -38 168 -176 204 -286 l18 -58 -17
-48 c-12 -35 -17 -81 -17 -162 0 -129 -11 -160 -76 -241 -22 -26 -47 -58 -56
-71 -9 -13 -41 -37 -70 -52 -29 -15 -70 -42 -91 -60 -35 -31 -143 -75 -181
-75 -9 0 -76 -20 -149 -45 -89 -30 -150 -45 -184 -45 -28 0 -67 -7 -86 -15
l-36 -15 -366 0 -366 0 -36 15 c-23 10 -69 15 -135 15 -65 0 -111 5 -135 15
-19 8 -48 15 -62 15 -17 0 -38 11 -56 30 l-29 30 -58 0 c-32 0 -75 7 -95 15
-22 9 -68 15 -122 15 l-86 0 -63 30 c-35 17 -73 30 -85 30 -11 0 -81 20 -154
45 -73 25 -147 45 -164 45 -73 0 -229 76 -229 111 0 5 15 15 33 23 17 7 59 42
93 77 l60 64 13 55 13 55 -16 55 c-9 29 -16 66 -16 80 0 75 -166 251 -306 323
-43 22 -150 57 -174 57 -12 0 -50 17 -85 39 -58 34 -106 53 -245 91 -75 21
-196 24 -241 6 -22 -9 -53 -16 -69 -16 -67 0 -120 -107 -120 -242 l0 -73 29
-50 c38 -68 54 -100 85 -167 18 -40 37 -65 63 -82 51 -32 97 -82 84 -90 -12
-8 -103 17 -159 44 -58 28 -205 72 -304 90 -26 5 -56 13 -67 19 -11 6 -32 11
-48 11 -15 0 -84 27 -151 60 -68 33 -136 60 -150 60 -15 0 -47 14 -72 30 -25
16 -52 30 -60 30 -8 0 -35 14 -60 30 -25 16 -52 30 -60 30 -28 0 -205 91 -250
129 -25 20 -65 49 -90 63 -25 14 -55 40 -67 56 -12 17 -45 43 -73 58 -31 17
-65 47 -88 78 -20 28 -55 71 -76 96 -55 64 -86 134 -86 198 0 57 -32 166 -57
194 -9 10 -39 24 -67 32 l-52 15 -39 -11 c-22 -6 -48 -18 -57 -26 l-18 -15 0
-109 0 -109 -23 -23 c-17 -17 -40 -25 -88 -30 -75 -8 -146 -22 -209 -42 -66
-21 -456 -20 -507 1 -19 8 -45 15 -57 15 -11 0 -41 6 -66 14 -57 18 -124 35
-175 45 -84 16 -211 65 -240 93 -19 17 -42 28 -59 28 -32 0 -143 49 -189 84
-18 13 -70 43 -117 67 -47 23 -97 51 -112 61 -17 12 -44 18 -77 18 l-51 0 0
-24z m4377 -811 c19 -8 47 -15 62 -15 14 0 40 -9 56 -21 46 -31 243 -129 260
-129 8 0 27 -19 42 -42 15 -24 38 -55 51 -70 54 -59 81 -207 46 -256 -18 -26
-92 -62 -127 -62 -14 0 -41 -7 -60 -15 -54 -22 -101 -18 -170 13 -34 16 -73
32 -87 35 -14 3 -43 22 -65 40 -22 19 -60 44 -85 57 -68 35 -150 100 -150 120
0 10 -19 33 -41 51 -45 35 -109 153 -109 199 0 37 25 67 73 90 l42 19 113 1
c78 0 124 -5 149 -15z"/>
</g>
</svg>
