<?xml version="1.0" standalone="no"?>
<!DOCTYPE svg PUBLIC "-//W3C//DTD SVG 20010904//EN"
 "http://www.w3.org/TR/2001/REC-SVG-20010904/DTD/svg10.dtd">
<svg version="1.0" xmlns="http://www.w3.org/2000/svg"
 width="513.000000pt" height="276.000000pt" viewBox="0 0 513.000000 276.000000"
 preserveAspectRatio="xMidYMid meet">
<metadata>
Created by potrace 1.16, written by Peter Selinger 2001-2019
</metadata>
<g transform="translate(0.000000,276.000000) scale(0.100000,-0.100000)"
fill="#000000" stroke="none">
<path d="M3576 2738 c-11 -43 -6 -67 20 -87 l27 -21 74 0 c43 0 89 -6 110 -15
19 -8 52 -15 72 -15 50 0 136 -32 169 -62 28 -27 83 -58 102 -58 17 0 161 -89
195 -120 17 -15 53 -39 81 -54 61 -30 215 -180 244 -236 11 -22 35 -51 55 -65
32 -25 95 -131 95 -161 0 -7 13 -41 30 -76 l30 -63 0 -85 c-1 -110 -19 -151
-108 -240 l-67 -68 -125 -60 c-147 -72 -230 -102 -281 -102 -20 0 -53 -7 -72
-15 -20 -8 -54 -15 -75 -15 -22 0 -56 -7 -75 -15 -20 -8 -61 -15 -90 -15 -30
0 -71 -7 -90 -15 l-36 -15 -411 0 -411 0 -36 15 c-19 8 -53 15 -75 15 -21 0
-55 7 -75 15 -19 8 -60 15 -90 15 -29 0 -70 7 -90 15 -26 11 -76 15 -195 15
-118 0 -168 4 -195 15 -19 8 -65 15 -102 15 -36 0 -86 6 -111 14 -75 24 -132
37 -195 46 -122 18 -162 45 -184 125 l-11 40 -167 166 c-93 91 -188 177 -213
191 -25 14 -54 36 -65 48 -11 12 -38 31 -60 43 -22 11 -54 31 -72 44 -17 13
-47 28 -65 34 -19 5 -52 24 -74 43 -40 34 -114 76 -134 76 -6 0 -36 12 -67 26
-52 23 -105 41 -223 75 -25 7 -109 14 -187 16 l-141 4 -71 -36 c-42 -20 -77
-46 -87 -63 -9 -15 -25 -39 -35 -54 -12 -17 -19 -45 -19 -72 l0 -45 82 -87
c46 -48 101 -98 122 -112 22 -13 60 -44 86 -68 35 -32 65 -49 125 -68 93 -30
116 -41 169 -78 21 -16 45 -28 53 -28 8 0 44 -14 80 -30 35 -17 69 -30 74 -30
6 0 39 -17 74 -39 79 -47 230 -95 350 -110 34 -5 70 -13 82 -19 12 -7 32 -12
45 -12 26 0 137 -37 155 -51 6 -6 21 -41 34 -79 l23 -70 -24 -72 c-33 -104
-48 -120 -153 -172 l-93 -46 -82 0 c-51 0 -96 6 -119 15 -47 20 -65 19 -97 -6
-28 -22 -35 -62 -14 -76 7 -4 58 -23 113 -41 122 -41 156 -39 325 14 25 8 55
14 68 14 44 0 117 48 178 117 68 76 103 138 136 240 12 37 26 74 31 80 13 18
80 16 124 -2 20 -8 66 -15 105 -15 38 0 84 -7 105 -15 19 -8 60 -15 90 -15 29
0 70 -7 90 -15 22 -9 67 -15 120 -15 52 0 97 -6 120 -15 22 -9 67 -15 119 -15
45 0 95 -6 111 -12 16 -7 107 -16 213 -20 243 -10 245 -10 320 -3 50 5 75 3
104 -9 48 -20 113 -20 159 -1 29 12 87 15 285 15 199 0 257 3 285 15 20 8 61
15 91 15 40 0 72 8 119 30 36 17 77 30 91 30 14 0 49 11 78 25 29 13 88 36
132 50 96 31 111 39 158 81 20 18 55 42 77 54 24 12 53 39 72 68 17 26 47 59
66 72 56 38 73 87 73 206 0 58 -4 106 -10 109 -5 3 -10 17 -10 30 0 41 -41
153 -76 208 -18 29 -47 78 -63 109 -17 31 -53 76 -81 100 -27 24 -50 50 -50
59 0 10 -34 43 -76 75 -42 33 -99 77 -128 99 -96 74 -147 107 -181 116 -21 6
-46 25 -65 49 -18 22 -38 40 -47 40 -8 0 -44 14 -80 30 -35 17 -69 30 -74 30
-6 0 -35 11 -65 25 -75 34 -168 65 -198 65 -14 0 -28 5 -31 10 -4 6 -68 10
-159 10 l-154 0 -6 -22z m-2898 -778 c117 -56 418 -259 494 -334 35 -34 79
-72 99 -86 21 -13 51 -46 68 -72 18 -26 43 -55 57 -65 31 -20 30 -59 -1 -55
-76 10 -116 22 -150 45 -28 19 -52 27 -83 27 -23 0 -59 7 -79 15 -19 8 -47 15
-62 15 -15 0 -96 34 -180 75 -84 41 -165 75 -180 75 -17 0 -37 10 -52 26 -27
29 -138 88 -185 98 -17 4 -54 26 -81 50 -28 23 -73 59 -102 80 l-51 38 0 35
c0 19 5 43 10 54 l11 19 191 0 191 0 85 -40z"/>
<path d="M399 720 c-42 -21 -90 -55 -107 -75 l-32 -36 0 -80 0 -80 25 -47 c59
-112 229 -278 346 -338 30 -15 66 -36 81 -46 19 -13 45 -18 102 -18 l75 0 7
35 c7 38 -7 65 -35 65 -32 0 -231 140 -256 180 -13 21 -45 55 -70 76 l-45 38
0 71 c0 77 5 89 72 163 l39 42 -10 19 c-17 30 -71 71 -94 71 -12 -1 -56 -18
-98 -40z"/>
</g>
</svg>
