<?xml version="1.0" standalone="no"?>
<!DOCTYPE svg PUBLIC "-//W3C//DTD SVG 20010904//EN"
 "http://www.w3.org/TR/2001/REC-SVG-20010904/DTD/svg10.dtd">
<svg version="1.0" xmlns="http://www.w3.org/2000/svg"
 width="804.000000pt" height="333.000000pt" viewBox="0 0 804.000000 333.000000"
 preserveAspectRatio="xMidYMid meet">
<metadata>
Created by potrace 1.16, written by Peter Selinger 2001-2019
</metadata>
<g transform="translate(0.000000,333.000000) scale(0.100000,-0.100000)"
fill="#000000" stroke="none">
<path d="M7 3323 c-4 -3 -7 -26 -7 -49 l0 -44 39 -20 c22 -11 52 -36 67 -56
16 -21 55 -49 94 -69 71 -36 185 -111 236 -155 18 -15 47 -30 67 -34 19 -4 54
-24 78 -45 24 -21 55 -44 69 -51 14 -7 62 -37 106 -67 131 -87 143 -113 53
-113 -91 0 -226 -56 -277 -115 l-32 -36 0 -52 c0 -41 6 -61 30 -97 16 -25 30
-51 30 -58 0 -27 41 -91 72 -113 18 -13 63 -52 100 -86 37 -35 74 -63 83 -63
9 0 44 -27 78 -60 178 -173 186 -180 305 -240 52 -27 93 -56 109 -77 15 -19
53 -48 85 -64 32 -16 76 -45 97 -64 21 -19 44 -35 51 -35 6 0 41 -14 77 -30
35 -17 75 -30 89 -30 14 0 41 -7 61 -15 93 -39 207 1 255 90 l28 50 0 93 c0
71 -4 102 -19 130 -10 20 -21 53 -25 73 -3 20 -15 44 -26 54 -11 10 -20 24
-20 32 0 29 -45 100 -94 149 -28 28 -62 69 -76 91 -15 24 -44 52 -72 67 -27
15 -48 31 -48 37 0 5 0 12 -1 17 -2 11 61 2 100 -14 18 -8 45 -14 60 -14 14 0
46 -14 71 -30 31 -21 57 -30 85 -30 58 0 230 -61 263 -93 16 -15 34 -27 41
-27 7 0 42 -14 78 -30 35 -17 69 -30 74 -30 6 0 40 -18 77 -40 37 -23 78 -43
92 -47 14 -3 46 -18 71 -34 25 -16 59 -29 76 -29 19 0 38 -9 54 -26 13 -14 40
-34 60 -44 19 -10 75 -46 125 -79 49 -34 96 -61 105 -61 8 0 26 -12 40 -26 13
-14 40 -34 60 -45 42 -21 158 -99 209 -140 96 -77 330 -303 330 -319 0 -17
-36 -20 -79 -6 -61 19 -125 35 -183 46 -26 5 -56 13 -67 19 -11 6 -52 11 -91
11 -40 0 -86 6 -107 15 -50 21 -107 18 -186 -9 -133 -47 -157 -83 -157 -229
l0 -94 29 -40 c16 -23 41 -63 55 -90 27 -55 144 -170 266 -263 41 -31 81 -65
89 -74 7 -9 20 -16 29 -16 25 0 114 -59 157 -105 31 -32 56 -47 111 -64 45
-14 88 -36 119 -62 26 -21 54 -39 62 -39 8 0 40 -12 71 -26 31 -15 78 -31 105
-35 26 -4 60 -17 76 -28 l29 -21 102 0 101 0 35 27 c20 14 44 43 54 63 30 58
60 156 60 194 0 35 -88 313 -117 371 -9 17 -26 45 -40 63 -13 18 -23 42 -21
55 l3 22 92 3 c66 2 102 -2 129 -13 20 -8 46 -15 57 -15 12 0 81 -20 154 -45
88 -30 149 -45 183 -45 28 0 67 -7 87 -15 19 -8 59 -15 87 -15 32 0 84 -11
136 -30 47 -16 102 -30 123 -30 21 0 54 -7 74 -15 19 -8 54 -15 77 -15 25 0
66 -12 104 -30 l64 -30 99 0 c66 0 112 -5 136 -15 20 -8 66 -15 104 -15 37 0
80 -5 96 -12 26 -10 160 -29 208 -29 11 0 49 3 85 7 49 4 75 2 104 -10 l38
-16 253 0 c202 0 260 3 288 15 22 9 69 15 119 15 66 0 100 6 168 30 46 17 94
30 106 30 12 0 38 7 57 15 20 8 49 15 63 15 15 0 56 16 91 35 35 19 73 35 84
35 88 0 309 256 309 359 0 16 5 33 10 36 6 4 10 73 10 174 0 134 -3 171 -14
180 -8 7 -27 51 -42 99 l-28 87 -77 86 c-42 48 -101 124 -130 169 l-54 83 -82
53 c-44 30 -99 69 -122 88 -22 18 -55 36 -74 40 -19 4 -54 24 -78 45 -54 47
-159 101 -196 101 -15 0 -48 14 -73 30 -25 16 -52 30 -60 30 -8 0 -44 14 -78
30 l-64 30 -80 0 -80 0 -29 -29 c-33 -34 -37 -70 -11 -94 14 -13 38 -17 91
-17 41 0 87 -6 108 -15 19 -8 46 -15 60 -15 13 0 53 -17 89 -37 87 -51 314
-200 340 -224 12 -11 45 -34 74 -52 39 -24 56 -41 64 -67 7 -23 25 -44 54 -63
24 -16 54 -46 67 -67 13 -21 38 -48 54 -60 17 -12 31 -28 31 -36 0 -8 9 -33
21 -55 11 -22 31 -73 44 -112 l25 -72 0 -134 0 -135 -22 -65 c-27 -82 -53
-121 -80 -121 -12 0 -39 -19 -62 -43 -23 -24 -57 -55 -76 -70 -38 -28 -141
-67 -177 -67 -12 0 -46 -11 -75 -24 -83 -39 -169 -66 -209 -66 -20 0 -53 -7
-72 -15 l-36 -15 -366 0 -366 0 -36 15 c-22 9 -67 15 -120 15 -52 0 -97 6
-120 15 -19 8 -60 15 -90 15 -29 0 -70 7 -90 15 -19 8 -58 15 -86 15 -29 0
-91 13 -142 29 -132 43 -172 52 -255 61 -41 4 -88 12 -105 18 -40 14 -110 31
-167 42 -26 5 -56 13 -67 19 -11 6 -38 11 -61 11 -22 0 -57 7 -77 15 -19 8
-60 15 -90 15 -29 0 -70 7 -90 15 -19 8 -47 15 -62 15 -14 0 -55 14 -89 30
-35 17 -75 30 -88 30 -14 0 -41 7 -61 15 -19 8 -60 15 -90 15 -29 0 -70 7 -90
15 -19 8 -46 15 -59 15 -17 0 -78 55 -226 205 l-203 205 -39 11 c-25 7 -53 26
-80 56 -82 90 -108 113 -174 152 -37 22 -77 50 -90 64 -13 13 -42 32 -65 42
-55 22 -55 22 -121 76 -31 25 -92 63 -134 84 -42 20 -101 57 -131 81 -29 24
-60 44 -68 44 -8 0 -44 14 -80 30 -35 17 -70 30 -76 30 -7 0 -25 9 -42 21 -58
39 -185 99 -211 99 -30 0 -86 24 -129 56 -32 24 -231 94 -266 94 -11 0 -45 11
-75 25 -52 24 -216 79 -314 105 -25 6 -79 15 -120 20 -76 7 -98 16 -158 58
-18 13 -45 27 -61 32 -36 10 -150 85 -217 143 -29 24 -67 49 -85 56 -44 16
-46 18 -113 72 -31 25 -92 63 -134 84 -42 20 -97 54 -121 74 -25 20 -68 50
-97 66 -29 17 -75 44 -104 60 -29 17 -77 47 -109 67 -31 21 -63 38 -72 38 -9
0 -41 18 -72 40 -52 37 -102 51 -120 33z m1199 -908 c44 -22 83 -48 98 -68 14
-18 53 -53 86 -77 33 -24 67 -54 75 -66 8 -12 40 -40 71 -60 32 -21 81 -61
109 -89 29 -27 64 -58 78 -68 15 -10 30 -30 33 -45 4 -15 18 -39 32 -54 30
-33 92 -207 92 -261 0 -54 -35 -87 -91 -87 -44 0 -203 69 -263 115 -17 13 -60
38 -95 55 -35 18 -93 61 -130 96 -141 136 -158 151 -215 194 -32 25 -82 68
-111 95 -28 28 -75 70 -104 94 -77 64 -111 115 -111 167 0 47 4 51 70 76 33
12 80 16 174 17 l129 1 73 -35z m2224 -1435 c68 -24 102 -30 168 -30 50 0 97
-6 119 -15 19 -8 51 -15 71 -15 20 0 65 -10 101 -22 76 -26 127 -72 167 -150
15 -29 42 -71 61 -93 18 -22 36 -51 40 -65 3 -14 18 -46 34 -71 16 -25 29 -51
29 -56 0 -6 13 -40 30 -75 16 -34 30 -73 30 -86 0 -31 -27 -92 -52 -119 -41
-43 -74 -40 -270 23 l-180 59 -42 36 c-22 20 -74 53 -113 73 -44 22 -101 62
-142 102 -42 39 -84 69 -105 75 -20 6 -43 22 -53 36 -10 15 -46 56 -81 91 -81
81 -112 145 -112 230 0 35 5 72 10 83 l11 19 97 0 98 0 84 -30z"/>
</g>
</svg>
