<?xml version="1.0" standalone="no"?>
<!DOCTYPE svg PUBLIC "-//W3C//DTD SVG 20010904//EN"
 "http://www.w3.org/TR/2001/REC-SVG-20010904/DTD/svg10.dtd">
<svg version="1.0" xmlns="http://www.w3.org/2000/svg"
 width="429.000000pt" height="396.000000pt" viewBox="0 0 429.000000 396.000000"
 preserveAspectRatio="xMidYMid meet">
<metadata>
Created by potrace 1.16, written by Peter Selinger 2001-2019
</metadata>
<g transform="translate(0.000000,396.000000) scale(0.100000,-0.100000)"
fill="#000000" stroke="none">
<path d="M2676 3926 l-37 -35 10 -19 c15 -27 32 -32 77 -20 l39 11 122 -41
c67 -22 140 -50 162 -61 22 -12 46 -21 53 -21 21 0 132 -55 178 -89 24 -17 49
-31 57 -31 30 0 103 -42 154 -88 30 -27 78 -61 107 -76 44 -23 161 -121 265
-223 70 -69 148 -171 163 -213 9 -25 29 -75 45 -111 23 -51 29 -80 29 -133 0
-71 -12 -108 -54 -170 -14 -21 -26 -49 -26 -61 0 -23 -39 -63 -80 -83 -14 -7
-61 -23 -104 -37 -43 -14 -91 -34 -106 -45 -15 -10 -73 -35 -131 -54 l-104
-36 -111 0 c-76 0 -123 -5 -147 -15 -21 -8 -67 -15 -105 -15 -39 0 -85 -7
-105 -15 -24 -10 -70 -15 -135 -15 -66 0 -112 -5 -135 -15 l-36 -15 -291 0
-291 0 -36 15 c-20 8 -66 15 -105 15 -38 0 -84 7 -105 15 -20 8 -66 15 -105
15 -38 0 -84 7 -105 15 -19 8 -59 15 -87 15 -28 0 -71 6 -96 14 -60 19 -125
35 -181 46 -26 5 -69 20 -97 34 -28 14 -63 26 -77 26 -14 0 -42 7 -62 15 -19
8 -54 15 -77 15 -47 0 -66 11 -151 88 -69 63 -95 103 -95 150 l0 33 -163 162
-162 162 -90 27 -90 27 -45 -11 c-66 -15 -170 -47 -191 -59 l-19 -10 0 -118 0
-118 22 -20 c13 -12 44 -36 70 -55 26 -18 75 -54 108 -80 34 -27 69 -48 77
-48 9 0 53 -18 99 -40 46 -22 96 -40 112 -40 27 0 171 -65 202 -92 30 -24 50
-62 50 -92 0 -17 15 -53 36 -85 64 -99 114 -190 114 -204 0 -8 18 -37 41 -63
22 -27 63 -94 91 -149 27 -55 65 -116 83 -135 42 -45 85 -111 85 -129 0 -8 16
-40 36 -70 63 -98 114 -189 114 -204 0 -7 22 -42 50 -76 28 -34 56 -83 64
-109 19 -66 69 -163 96 -187 53 -48 128 -231 109 -267 l-10 -18 -77 0 -77 -1
-70 -37 c-109 -58 -140 -133 -94 -225 24 -46 72 -119 104 -155 27 -32 237
-172 258 -172 8 0 19 -4 22 -10 4 -6 53 -10 113 -10 l107 0 48 41 c113 97 126
212 37 339 -23 33 -60 137 -60 170 0 14 -14 45 -30 70 -16 25 -30 52 -30 60 0
8 -18 41 -39 73 -22 32 -43 72 -46 90 -4 17 -23 57 -42 87 -65 104 -113 189
-113 203 0 8 -14 33 -31 57 -38 52 -119 217 -119 241 0 10 -25 47 -56 81 -54
60 -93 126 -94 158 0 14 -46 85 -117 180 -21 27 -33 54 -33 75 0 21 -9 40 -25
55 -29 28 -125 182 -125 202 0 7 -9 28 -20 46 -25 41 -27 67 -2 57 9 -4 53
-11 97 -15 44 -3 90 -12 102 -18 12 -7 39 -12 59 -12 21 0 79 -13 129 -29 103
-33 160 -49 227 -61 26 -5 56 -13 67 -19 11 -6 72 -11 136 -11 80 0 127 -5
152 -15 25 -11 72 -15 165 -15 92 0 139 -4 165 -15 50 -21 316 -21 366 0 24
10 70 15 135 15 66 0 112 5 135 15 28 12 80 15 227 15 117 0 199 4 211 11 11
6 41 14 67 19 104 19 239 60 315 94 31 14 67 26 82 26 34 0 141 55 187 96 20
18 54 42 76 53 21 11 43 25 49 33 6 7 27 63 47 123 20 61 41 118 46 127 16 29
13 189 -5 208 -8 9 -30 61 -47 115 l-33 98 -45 32 c-28 19 -56 51 -73 83 -17
30 -46 65 -73 84 -24 17 -62 55 -83 83 -27 36 -49 54 -69 58 -27 6 -43 19
-104 89 -13 15 -66 48 -118 74 -52 25 -116 64 -142 85 -32 27 -74 48 -135 67
-49 16 -103 37 -120 45 -17 9 -67 28 -110 42 -43 14 -102 37 -131 50 -31 15
-71 25 -97 25 -24 0 -47 5 -50 10 -3 6 -34 10 -69 10 l-62 0 -38 -34z m-2381
-1026 c16 -16 35 -30 43 -30 25 0 67 -31 92 -68 14 -21 48 -64 77 -97 52 -59
69 -105 38 -105 -8 0 -39 11 -69 24 -29 13 -67 27 -84 31 -17 3 -50 23 -74 44
-24 21 -54 41 -68 44 -47 13 -100 74 -100 116 0 46 26 71 74 71 l42 0 29 -30z
m1390 -2479 c55 -28 108 -58 118 -68 40 -45 59 -132 37 -174 -15 -26 -77 -25
-138 2 -56 25 -212 178 -212 208 0 20 62 81 82 81 7 0 57 -22 113 -49z"/>
</g>
</svg>
