<?xml version="1.0" standalone="no"?>
<!DOCTYPE svg PUBLIC "-//W3C//DTD SVG 20010904//EN"
 "http://www.w3.org/TR/2001/REC-SVG-20010904/DTD/svg10.dtd">
<svg version="1.0" xmlns="http://www.w3.org/2000/svg"
 width="615.000000pt" height="213.000000pt" viewBox="0 0 615.000000 213.000000"
 preserveAspectRatio="xMidYMid meet">
<metadata>
Created by potrace 1.16, written by Peter Selinger 2001-2019
</metadata>
<g transform="translate(0.000000,213.000000) scale(0.100000,-0.100000)"
fill="#000000" stroke="none">
<path d="M4630 2109 c-19 -34 -8 -62 35 -86 22 -12 53 -23 68 -23 15 0 57 -17
92 -39 36 -21 102 -51 149 -65 53 -17 98 -39 122 -60 22 -18 62 -45 90 -59 28
-14 75 -48 105 -75 30 -26 88 -70 129 -97 41 -27 95 -68 120 -90 25 -22 61
-51 81 -64 20 -14 47 -40 60 -60 13 -20 40 -56 60 -81 44 -55 99 -143 99 -158
0 -6 20 -52 45 -103 l45 -93 0 -114 0 -115 -29 -46 c-16 -25 -31 -58 -35 -72
-9 -39 -53 -78 -132 -115 -40 -19 -76 -34 -82 -34 -6 0 -39 -13 -74 -30 -38
-18 -79 -30 -104 -30 -23 0 -58 -7 -77 -15 -20 -8 -54 -15 -75 -15 -22 0 -56
-7 -75 -15 l-36 -15 -456 0 -456 0 -36 15 c-23 10 -69 15 -135 15 -65 0 -111
5 -135 15 -20 8 -66 15 -105 15 -38 0 -84 7 -105 15 -27 12 -81 15 -240 15
-158 0 -212 3 -240 15 -19 8 -53 15 -75 15 -21 0 -55 7 -75 15 -19 8 -52 15
-72 15 -20 0 -56 6 -81 14 -60 19 -125 35 -182 46 -26 5 -56 13 -67 19 -11 6
-70 11 -132 11 l-113 0 -91 29 c-103 33 -160 49 -226 61 -26 5 -69 20 -97 34
l-51 26 -97 0 -96 0 -39 -38 -38 -39 6 -36 6 -37 -79 0 -79 0 -93 45 -94 45
-84 0 c-53 0 -98 6 -121 15 -19 8 -53 15 -75 15 -21 0 -55 7 -75 15 l-35 15
-312 0 -311 0 -85 -30 c-46 -17 -95 -30 -109 -30 -30 0 -149 -78 -185 -121
-14 -17 -26 -39 -26 -49 0 -10 -5 -22 -10 -25 -12 -8 -13 -72 -1 -79 4 -3 11
-18 14 -33 3 -18 36 -58 86 -106 l80 -78 21 11 c12 6 26 23 32 36 13 27 12 29
-32 130 l-23 51 18 36 c26 56 107 110 175 118 57 7 112 20 190 45 58 18 131
18 177 -1 23 -10 69 -15 135 -15 65 0 111 -5 135 -15 23 -10 69 -15 135 -15
65 0 111 -5 135 -15 20 -8 66 -15 105 -15 l70 0 63 -29 c35 -16 82 -43 106
-60 24 -18 54 -31 71 -31 28 0 99 -37 219 -114 32 -21 68 -36 85 -36 30 0 60
-16 104 -56 14 -12 54 -37 90 -55 83 -41 200 -118 207 -135 4 -10 26 -14 83
-14 l78 0 6 23 c16 60 -14 102 -109 150 -27 14 -72 44 -99 66 -26 23 -56 41
-66 41 -9 0 -36 15 -60 33 -24 17 -62 45 -84 61 -50 35 -62 49 -87 103 -15 33
-17 47 -9 63 l11 20 52 0 c29 0 72 -6 97 -14 77 -24 133 -37 190 -45 30 -4 71
-12 90 -18 50 -16 118 -33 172 -43 26 -5 56 -13 67 -19 11 -6 58 -11 106 -11
53 0 99 -6 122 -15 19 -8 59 -15 87 -15 28 0 71 -6 96 -14 87 -28 136 -38 210
-45 41 -4 84 -12 95 -18 11 -5 79 -10 151 -11 95 0 142 -5 169 -16 30 -13 79
-16 242 -16 158 0 212 -3 240 -15 24 -10 71 -15 150 -15 78 0 125 -5 150 -15
52 -22 494 -22 546 0 27 11 75 15 179 15 l143 0 85 30 c46 17 103 30 126 30
29 0 52 8 80 28 43 30 105 62 123 62 25 0 99 45 151 93 30 27 64 54 76 59 27
13 54 68 54 112 0 19 7 39 15 46 l15 12 0 169 c0 103 -4 170 -10 174 -6 4 -20
25 -31 47 -11 22 -31 50 -44 62 -12 11 -32 53 -44 92 l-22 71 -197 194 c-202
200 -267 254 -327 270 -19 5 -59 32 -88 59 -32 29 -97 71 -158 101 -57 29
-117 62 -134 74 -60 45 -113 65 -170 65 -31 0 -72 7 -92 15 -19 8 -48 15 -64
15 -15 0 -31 5 -34 10 -3 6 -26 10 -50 10 -34 0 -47 -5 -55 -21z"/>
</g>
</svg>
