<?xml version="1.0" standalone="no"?>
<!DOCTYPE svg PUBLIC "-//W3C//DTD SVG 20010904//EN"
 "http://www.w3.org/TR/2001/REC-SVG-20010904/DTD/svg10.dtd">
<svg version="1.0" xmlns="http://www.w3.org/2000/svg"
 width="804.000000pt" height="195.000000pt" viewBox="0 0 804.000000 195.000000"
 preserveAspectRatio="xMidYMid meet">
<metadata>
Created by potrace 1.16, written by Peter Selinger 2001-2019
</metadata>
<g transform="translate(0.000000,195.000000) scale(0.100000,-0.100000)"
fill="#000000" stroke="none">
<path d="M6572 1917 c-27 -76 -9 -91 107 -93 54 -1 100 -7 125 -18 21 -9 50
-16 63 -16 37 0 152 -56 203 -99 25 -21 66 -49 92 -63 26 -14 71 -48 100 -76
29 -28 105 -100 168 -159 65 -61 119 -121 125 -137 6 -17 30 -43 55 -61 30
-21 57 -53 81 -96 20 -35 57 -95 82 -134 l47 -70 0 -145 0 -145 -30 -64 c-20
-42 -53 -86 -98 -130 -75 -75 -121 -101 -179 -101 -21 0 -76 -14 -123 -30 -46
-17 -101 -30 -121 -30 -20 0 -53 -7 -72 -15 -26 -11 -73 -15 -165 -15 -96 0
-139 -4 -168 -16 -29 -12 -56 -15 -118 -10 -45 4 -94 6 -111 6 -50 -2 -68 -1
-125 5 -30 3 -140 9 -245 13 -121 4 -198 12 -212 20 -12 6 -54 12 -93 12 -40
0 -86 6 -107 15 -46 19 -74 19 -134 -2 l-49 -18 -49 18 c-27 9 -65 17 -85 17
-20 0 -53 7 -73 15 -24 10 -71 15 -150 15 -78 0 -125 5 -150 15 -19 8 -60 15
-90 15 -29 0 -70 7 -90 15 -19 8 -52 15 -72 15 -20 0 -56 6 -81 14 -60 19
-125 35 -182 46 -26 5 -56 13 -67 19 -11 6 -50 11 -88 11 -37 0 -88 6 -113 14
-57 18 -122 35 -180 46 -25 5 -76 20 -115 34 -38 14 -87 26 -108 26 -21 0 -54
7 -74 15 -21 9 -67 15 -116 15 l-81 0 -43 -46 -42 -46 -31 11 c-17 5 -44 8
-60 5 -20 -4 -38 0 -57 14 -61 43 -112 62 -165 62 -51 0 -165 32 -227 64 -53
28 -218 74 -301 85 -30 4 -71 12 -90 18 -47 15 -116 33 -165 42 -22 4 -76 19
-120 33 -135 44 -166 50 -275 57 -58 4 -115 12 -127 19 -12 7 -41 12 -65 12
-27 0 -66 11 -106 30 l-64 30 -99 0 c-67 0 -111 5 -139 16 -31 12 -57 15 -113
10 -39 -4 -83 -6 -97 -6 -14 1 -126 3 -249 6 l-224 5 -39 -15 c-22 -9 -68 -16
-109 -16 -39 0 -79 -5 -90 -11 -11 -6 -41 -14 -67 -19 -57 -11 -122 -27 -182
-46 -25 -8 -55 -14 -68 -14 -41 0 -121 -48 -146 -89 -14 -21 -39 -49 -56 -61
-36 -26 -70 -88 -70 -129 0 -16 -5 -33 -10 -36 -13 -8 -13 -102 0 -110 5 -3
10 -27 10 -53 l0 -47 41 -60 c93 -137 154 -174 198 -119 28 35 27 50 -10 127
l-30 66 25 75 c13 40 33 91 44 112 10 22 22 51 25 65 8 33 53 78 86 86 14 3
49 16 76 29 28 13 97 39 155 59 l105 35 81 0 c50 0 96 6 117 15 l36 15 364 0
363 0 84 -30 c50 -17 105 -30 135 -30 28 0 70 -6 95 -14 78 -25 133 -37 195
-45 34 -5 70 -13 82 -19 12 -7 47 -12 78 -12 30 0 72 -7 92 -15 19 -8 45 -15
57 -15 24 0 151 -42 194 -64 58 -30 153 -56 204 -56 38 0 71 -8 116 -30 35
-17 76 -30 90 -30 15 0 47 -14 72 -30 25 -16 56 -30 70 -30 30 0 153 -41 209
-69 22 -12 60 -21 83 -21 27 0 54 -8 73 -21 17 -11 53 -32 80 -46 28 -14 73
-43 100 -64 129 -100 163 -126 204 -154 24 -16 53 -44 65 -62 l21 -33 60 0 60
0 23 53 c12 28 22 61 22 73 0 26 -52 76 -110 104 -58 29 -120 79 -166 135
l-36 45 12 15 c16 19 90 20 150 1 78 -25 133 -37 195 -45 34 -5 70 -13 82 -19
12 -7 32 -12 45 -12 13 0 62 -13 108 -30 l85 -30 98 0 c64 0 110 -5 134 -15
19 -8 52 -15 72 -15 20 0 56 -6 81 -14 78 -25 133 -37 195 -45 34 -5 70 -13
82 -19 12 -7 40 -12 63 -12 22 0 57 -7 77 -15 28 -12 86 -15 285 -15 198 0
256 -3 285 -15 19 -8 60 -15 90 -15 29 0 70 -7 90 -15 24 -10 71 -15 150 -15
78 0 125 -5 150 -15 43 -18 359 -20 488 -4 44 6 118 14 165 18 47 4 98 13 113
19 16 7 52 12 81 12 30 0 70 7 89 15 21 9 67 15 107 15 83 0 131 20 201 85 25
23 63 54 85 68 58 36 184 179 184 209 0 25 32 123 43 135 11 10 8 191 -3 198
-5 3 -10 19 -10 34 0 16 -7 45 -15 64 -8 20 -15 49 -15 64 0 18 -22 61 -61
118 -33 49 -71 110 -84 135 -24 46 -146 170 -200 204 -16 11 -64 52 -105 91
-41 39 -109 94 -150 121 -41 27 -99 70 -128 96 -39 36 -60 48 -85 48 -17 0
-57 12 -87 26 -30 14 -102 41 -160 60 -58 19 -113 39 -122 44 -10 6 -64 10
-121 10 l-103 0 -12 -33z"/>
</g>
</svg>
