<?xml version="1.0" standalone="no"?>
<!DOCTYPE svg PUBLIC "-//W3C//DTD SVG 20010904//EN"
 "http://www.w3.org/TR/2001/REC-SVG-20010904/DTD/svg10.dtd">
<svg version="1.0" xmlns="http://www.w3.org/2000/svg"
 width="627.000000pt" height="237.000000pt" viewBox="0 0 627.000000 237.000000"
 preserveAspectRatio="xMidYMid meet">
<metadata>
Created by potrace 1.16, written by Peter Selinger 2001-2019
</metadata>
<g transform="translate(0.000000,237.000000) scale(0.100000,-0.100000)"
fill="#000000" stroke="none">
<path d="M240 2361 c-8 -5 -39 -19 -68 -32 -32 -14 -72 -43 -102 -75 l-50 -53
0 -35 c0 -19 -5 -38 -10 -41 -6 -3 -10 -45 -10 -92 l0 -85 27 -35 c101 -128
343 -303 418 -303 25 0 99 -39 216 -114 l55 -36 60 0 59 0 68 -77 c39 -44 71
-91 77 -112 5 -20 25 -61 44 -91 19 -30 46 -75 59 -100 14 -25 35 -54 47 -65
12 -11 33 -39 47 -63 14 -24 47 -57 74 -75 26 -18 82 -61 125 -96 42 -35 92
-67 110 -73 18 -5 58 -31 88 -59 31 -28 71 -55 90 -60 19 -5 57 -30 85 -55 61
-55 161 -124 179 -124 14 0 107 -53 203 -114 31 -20 68 -36 85 -36 16 0 43 -9
59 -21 17 -11 78 -45 137 -75 l108 -54 108 0 c114 0 132 6 132 45 0 42 -45 67
-221 125 -136 44 -159 54 -204 86 -39 28 -171 94 -188 94 -7 0 -50 25 -96 55
-45 31 -103 66 -129 80 -26 13 -73 45 -106 72 -32 26 -81 62 -109 78 -28 17
-65 50 -82 75 -23 33 -44 49 -76 60 -31 11 -51 27 -71 57 -15 22 -54 64 -85
93 -56 51 -122 142 -163 227 -32 66 -8 95 57 68 24 -10 71 -15 146 -15 l111 0
133 -45 c104 -35 146 -45 198 -45 36 0 82 -7 102 -15 20 -8 66 -15 105 -15 38
0 84 -7 105 -15 l35 -15 281 0 280 0 51 -32 c28 -17 73 -49 99 -71 26 -21 63
-43 82 -48 21 -6 66 -39 110 -79 41 -39 82 -70 91 -70 20 0 98 -64 195 -161
60 -58 87 -95 122 -165 l45 -89 89 -86 c48 -47 100 -93 116 -103 15 -9 38 -34
52 -56 23 -36 104 -90 135 -90 6 0 35 -25 65 -55 l55 -55 119 0 118 0 6 37 c3
21 8 45 11 53 8 19 -40 96 -100 161 -23 25 -53 64 -67 86 -14 22 -40 51 -57
64 -18 13 -56 47 -84 75 -28 28 -84 72 -124 98 -40 27 -89 68 -108 92 l-36 44
12 15 c18 21 216 21 267 0 23 -10 69 -15 134 -15 l99 0 47 -24 c69 -35 114
-49 150 -47 20 0 51 -11 83 -31 53 -33 111 -46 210 -47 60 -1 78 -10 147 -73
l42 -38 29 6 c18 4 40 -1 62 -14 19 -11 57 -22 83 -26 26 -3 67 -17 91 -31 23
-14 50 -25 60 -25 9 0 40 -13 69 -30 30 -16 65 -30 78 -30 14 0 36 -8 49 -17
47 -33 177 -40 470 -26 l155 8 80 66 80 66 3 167 2 167 -19 26 c-11 14 -23 40
-27 59 -4 23 -19 44 -45 65 -25 19 -42 44 -49 67 -6 23 -28 55 -56 82 -25 25
-61 66 -79 91 -19 25 -52 58 -74 74 -22 15 -59 51 -81 81 l-41 54 -36 0 -36 0
-41 44 c-23 24 -72 65 -111 92 -38 26 -83 58 -100 71 -66 52 -142 109 -181
136 -22 15 -55 43 -74 62 -19 20 -51 40 -72 46 -24 6 -64 35 -113 79 -41 39
-82 70 -91 70 -31 0 -149 62 -203 106 l-53 44 -44 0 c-25 0 -61 7 -81 15 -19
8 -53 15 -75 15 -21 0 -55 7 -75 15 -19 8 -43 15 -53 15 -27 0 -70 -39 -70
-64 0 -33 19 -46 67 -46 50 0 99 -18 146 -54 18 -14 74 -38 126 -55 106 -35
121 -43 197 -112 42 -38 62 -49 88 -49 37 0 88 -33 151 -99 23 -24 55 -46 77
-52 24 -6 47 -22 64 -45 15 -19 79 -69 143 -112 110 -73 205 -150 298 -242 23
-23 63 -58 90 -78 65 -49 182 -171 211 -218 13 -22 39 -64 57 -94 19 -30 44
-74 55 -97 l21 -42 -3 -117 c-2 -92 -6 -118 -18 -124 -8 -3 -34 -16 -56 -28
l-41 -21 -71 6 -70 6 -37 -23 -37 -23 -34 17 c-19 9 -41 16 -49 16 -8 0 -29 6
-47 14 -31 13 -90 27 -199 46 -25 5 -63 20 -84 34 -21 14 -46 26 -56 26 -10 0
-47 16 -82 35 -35 19 -76 35 -91 35 -14 0 -43 7 -63 15 -19 8 -47 15 -60 15
-30 0 -85 25 -137 62 -21 15 -52 28 -67 28 -15 0 -40 5 -56 12 -15 6 -55 15
-88 19 -105 14 -179 35 -247 70 -20 10 -49 19 -63 19 -14 0 -42 7 -62 15 -19
8 -53 15 -75 15 -21 0 -55 7 -75 15 -28 12 -84 15 -273 15 -141 0 -249 -4
-267 -11 -50 -17 -132 13 -196 71 -29 26 -90 67 -135 90 -52 27 -93 56 -109
77 -27 35 -76 65 -126 77 -16 4 -65 42 -110 85 -80 76 -148 121 -184 121 -10
0 -38 -14 -63 -30 l-45 -30 -263 0 -263 0 -36 15 c-19 8 -59 15 -87 15 -28 0
-71 6 -96 14 -78 25 -133 37 -195 45 -34 5 -70 13 -82 19 -12 7 -40 12 -62 12
-22 0 -52 5 -68 12 -15 7 -80 15 -143 18 l-115 5 -20 37 -20 38 15 27 15 26
141 -2 142 -2 63 31 c76 38 99 57 99 80 0 10 11 34 25 54 31 46 31 61 0 128
-14 29 -25 61 -25 70 0 9 -11 30 -25 47 -41 48 -202 151 -237 151 -7 0 -33 14
-58 30 -31 20 -57 30 -84 30 -42 0 -156 34 -193 58 -13 8 -32 29 -44 48 -16
26 -27 34 -49 34 -16 0 -32 -4 -35 -10 -3 -5 -26 -10 -50 -10 -24 0 -47 5 -50
10 -8 12 -543 13 -565 1z m447 -136 c19 -8 60 -15 90 -15 29 0 70 -7 90 -15
19 -8 47 -15 62 -15 14 0 51 -12 81 -26 30 -14 89 -37 130 -50 97 -31 116 -40
170 -84 25 -19 62 -47 82 -60 50 -33 75 -80 63 -116 -8 -20 -23 -31 -67 -45
l-56 -20 -37 16 c-21 8 -49 15 -64 15 -31 0 -58 17 -123 77 l-47 43 -38 0
c-50 0 -78 -21 -108 -80 -19 -38 -25 -65 -25 -115 0 -37 -5 -75 -10 -86 -13
-23 -47 -25 -97 -4 -19 8 -53 15 -75 15 -45 0 -144 42 -209 89 -23 17 -48 31
-56 31 -33 0 -104 43 -174 105 -116 104 -132 150 -79 223 46 64 105 102 155
102 24 0 58 7 76 15 47 20 218 20 266 0z m3283 -1926 c0 -6 -4 -7 -10 -4 -5 3
-10 11 -10 16 0 6 5 7 10 4 6 -3 10 -11 10 -16z"/>
</g>
</svg>
