<?xml version="1.0" standalone="no"?>
<!DOCTYPE svg PUBLIC "-//W3C//DTD SVG 20010904//EN"
 "http://www.w3.org/TR/2001/REC-SVG-20010904/DTD/svg10.dtd">
<svg version="1.0" xmlns="http://www.w3.org/2000/svg"
 width="720.000000pt" height="222.000000pt" viewBox="0 0 720.000000 222.000000"
 preserveAspectRatio="xMidYMid meet">
<metadata>
Created by potrace 1.16, written by Peter Selinger 2001-2019
</metadata>
<g transform="translate(0.000000,222.000000) scale(0.100000,-0.100000)"
fill="#000000" stroke="none">
<path d="M5147 2213 c-4 -3 -7 -17 -7 -30 0 -18 10 -28 43 -42 62 -27 107 -42
152 -51 50 -9 152 -43 193 -64 17 -9 75 -30 128 -47 71 -23 110 -42 149 -74
53 -44 124 -85 145 -85 7 0 35 -20 63 -45 28 -24 78 -59 111 -76 85 -44 153
-99 260 -205 50 -50 109 -100 131 -111 46 -24 66 -44 90 -93 9 -19 32 -51 50
-70 18 -19 48 -58 67 -87 38 -56 96 -130 139 -178 14 -16 29 -41 32 -55 4 -14
22 -52 42 -85 69 -114 96 -242 59 -279 -19 -20 -21 -19 -64 2 -80 39 -169 107
-195 148 -38 60 -149 164 -175 164 -24 0 -92 -33 -106 -52 -6 -7 -23 -53 -38
-102 -33 -101 -82 -170 -158 -220 -96 -63 -178 -106 -203 -106 -15 0 -36 -5
-48 -12 -40 -21 -268 -41 -510 -45 l-237 -4 -66 31 -65 30 -127 0 -126 0 -133
45 c-73 25 -140 45 -149 45 -29 0 -316 100 -344 120 -14 10 -81 37 -148 59
-67 22 -139 52 -159 66 -21 14 -44 25 -53 25 -8 0 -40 12 -70 26 -70 33 -163
64 -190 64 -38 0 -105 38 -168 94 l-63 56 -70 0 -71 0 -29 -29 c-33 -33 -35
-53 -14 -104 8 -20 15 -46 15 -58 0 -82 -117 -174 -305 -239 -47 -16 -66 -18
-91 -10 -21 7 -40 7 -58 0 -17 -6 -166 -10 -392 -10 l-365 0 -36 15 c-19 8
-60 15 -90 15 -29 0 -70 7 -90 15 -19 8 -47 15 -62 15 -34 0 -71 26 -71 49 0
10 29 49 64 87 34 38 71 84 80 102 l17 34 -10 30 c-6 17 -11 42 -11 55 0 42
-48 121 -89 147 -22 14 -52 44 -67 67 -22 32 -48 51 -109 82 -44 22 -100 56
-125 77 -25 20 -59 44 -75 53 -45 23 -151 57 -177 57 -13 0 -52 14 -86 30 -35
17 -74 30 -85 30 -12 0 -42 6 -67 14 -117 37 -141 40 -364 43 l-228 4 -42 -16
c-32 -12 -48 -14 -70 -6 -15 6 -35 11 -46 11 -25 0 -131 -73 -157 -109 l-23
-30 0 -75 c0 -41 4 -78 10 -81 5 -3 10 -15 10 -25 0 -24 54 -86 92 -106 16 -8
68 -52 116 -98 65 -61 97 -85 124 -90 21 -4 55 -23 81 -46 25 -22 50 -40 57
-40 6 0 41 -14 77 -30 35 -16 76 -30 90 -30 14 0 51 -16 83 -36 57 -35 266
-113 305 -114 12 0 59 -13 105 -30 47 -16 96 -30 110 -30 14 0 67 -20 118 -45
52 -25 100 -45 107 -45 8 0 24 -15 37 -32 l23 -33 3 -95 3 -95 -46 -45 -47
-45 -168 3 c-181 4 -214 -2 -208 -41 4 -27 72 -67 115 -67 17 0 35 -4 38 -10
4 -6 66 -10 154 -10 l149 0 58 35 c64 38 94 68 94 94 0 9 14 36 30 61 l30 45
0 68 c0 38 5 77 10 88 l11 19 55 0 c30 0 71 -7 91 -15 22 -9 67 -15 120 -15
52 0 97 -6 120 -15 52 -22 464 -22 516 0 44 18 82 19 140 3 l44 -11 80 26 c44
15 88 27 97 27 28 0 134 39 207 76 50 25 76 45 94 74 14 22 43 51 64 64 21 14
49 39 61 55 l21 31 42 0 c24 0 66 -11 97 -26 68 -31 163 -64 188 -64 41 0 168
-51 217 -87 17 -12 65 -33 107 -47 43 -14 95 -37 115 -51 21 -14 44 -25 53
-25 8 0 40 -12 70 -26 82 -38 165 -64 205 -64 20 0 52 -7 72 -15 19 -8 47 -15
62 -15 14 0 46 -14 71 -30 l45 -30 73 0 c42 0 88 -6 109 -15 19 -8 60 -15 89
-15 29 0 71 -7 92 -15 l38 -15 364 3 c367 3 376 4 500 43 25 8 55 14 68 14 12
0 82 29 155 65 l132 65 57 60 c106 112 158 110 338 -12 l85 -58 67 0 67 0 70
62 71 62 0 83 c0 46 -4 91 -9 101 -4 9 -20 42 -34 72 -15 30 -35 71 -46 90
-11 19 -25 50 -32 69 -16 44 -136 224 -214 321 -33 41 -101 117 -152 168 -63
64 -94 103 -98 125 -9 40 -32 67 -58 67 -11 0 -39 20 -61 44 -47 50 -123 106
-143 106 -8 0 -38 20 -66 45 -28 24 -78 58 -111 76 -34 17 -81 48 -106 69 -25
20 -65 47 -89 59 -24 13 -62 36 -84 52 -22 16 -47 29 -56 29 -9 0 -41 12 -71
26 -74 34 -207 74 -312 94 -26 5 -56 13 -67 19 -11 6 -47 11 -80 11 -33 0 -63
5 -66 10 -7 11 -88 14 -98 3z m-4340 -828 c19 -8 59 -15 87 -15 58 0 135 -24
246 -76 41 -20 104 -45 140 -56 52 -17 73 -31 106 -68 23 -25 62 -58 87 -74
24 -16 57 -49 73 -73 16 -25 43 -57 61 -70 41 -32 44 -73 8 -108 l-24 -25 -74
0 -74 0 -30 37 c-21 27 -61 53 -137 91 -142 70 -177 69 -216 -7 l-12 -23 17
-37 c12 -28 30 -44 69 -64 28 -14 65 -40 81 -57 16 -16 35 -30 42 -30 7 0 13
-4 13 -10 0 -5 -4 -10 -9 -10 -6 0 -13 5 -16 10 -3 5 -19 10 -35 10 -15 0 -58
13 -95 30 -37 16 -83 30 -104 30 -61 0 -175 43 -245 92 -21 16 -45 28 -53 28
-8 0 -44 14 -80 30 -35 17 -76 30 -90 30 -15 0 -43 16 -71 41 -45 39 -90 68
-192 122 -57 30 -120 116 -120 164 0 56 15 73 64 73 24 0 59 7 77 15 50 21
454 21 506 0z"/>
</g>
</svg>
