<?xml version="1.0" standalone="no"?>
<!DOCTYPE svg PUBLIC "-//W3C//DTD SVG 20010904//EN"
 "http://www.w3.org/TR/2001/REC-SVG-20010904/DTD/svg10.dtd">
<svg version="1.0" xmlns="http://www.w3.org/2000/svg"
 width="501.000000pt" height="297.000000pt" viewBox="0 0 501.000000 297.000000"
 preserveAspectRatio="xMidYMid meet">
<metadata>
Created by potrace 1.16, written by Peter Selinger 2001-2019
</metadata>
<g transform="translate(0.000000,297.000000) scale(0.100000,-0.100000)"
fill="#000000" stroke="none">
<path d="M2930 2937 c0 -39 25 -67 61 -67 27 0 152 -41 197 -64 16 -8 90 -35
164 -59 144 -48 197 -72 261 -118 22 -16 46 -29 54 -29 30 0 103 -42 154 -88
30 -26 93 -74 142 -106 54 -36 100 -77 122 -106 19 -26 50 -58 68 -70 19 -13
44 -38 57 -57 12 -18 44 -49 69 -67 60 -45 254 -244 274 -281 8 -17 20 -49 26
-72 8 -30 24 -52 52 -75 27 -22 54 -60 84 -121 25 -49 45 -95 45 -103 0 -8 12
-37 26 -65 14 -28 30 -74 35 -103 5 -28 11 -62 14 -76 4 -16 -2 -37 -14 -57
l-21 -33 -75 0 -76 0 -27 30 c-15 17 -45 49 -67 72 -22 22 -54 64 -71 92 -20
34 -45 59 -74 75 l-43 24 -36 -19 c-56 -30 -81 -84 -81 -176 l0 -77 -27 -19
c-37 -26 -176 -92 -194 -92 -8 0 -34 -14 -59 -30 -32 -21 -57 -30 -86 -30 -23
0 -58 -7 -77 -15 -20 -8 -54 -15 -75 -15 -22 0 -56 -7 -75 -15 -20 -8 -53 -15
-74 -15 -21 0 -76 -14 -123 -30 -61 -22 -102 -30 -151 -30 -38 0 -83 -7 -104
-16 -31 -13 -61 -14 -149 -10 -127 7 -111 7 -396 0 l-214 -5 -44 17 -44 16
-55 -18 -54 -18 -48 17 c-35 12 -80 17 -160 17 -77 0 -123 5 -148 15 -20 8
-66 15 -105 15 -38 0 -84 7 -105 15 -19 8 -47 15 -62 15 -14 0 -55 14 -89 30
-51 24 -77 30 -130 30 -50 0 -97 10 -201 44 -169 55 -211 66 -286 75 -34 5
-70 13 -82 19 -12 7 -34 12 -48 12 -15 0 -56 13 -92 30 -35 17 -70 30 -76 30
-7 0 -32 14 -57 30 -25 16 -58 30 -73 30 -43 0 -109 34 -168 87 -94 83 -189
143 -229 143 -12 0 -37 -12 -56 -26 l-34 -26 0 -44 c0 -23 5 -46 10 -49 6 -3
10 -15 10 -26 0 -26 72 -102 137 -146 66 -43 152 -137 159 -173 5 -23 72 -98
184 -205 58 -55 140 -158 146 -181 9 -37 -3 -71 -33 -91 -14 -10 -46 -37 -70
-59 l-43 -41 0 -67 c0 -46 6 -78 19 -104 19 -36 123 -127 179 -156 44 -23 149
-56 176 -56 14 0 28 -5 31 -10 8 -13 132 -13 140 0 3 5 15 10 26 10 11 0 34
13 50 29 l29 29 0 82 c0 90 -12 123 -65 180 -17 19 -47 58 -66 85 -18 28 -59
77 -90 110 -30 33 -64 74 -74 90 -10 17 -51 64 -90 105 -40 41 -80 89 -90 105
-28 44 -66 85 -97 101 -52 27 -71 83 -33 98 8 3 51 -8 97 -24 46 -16 94 -30
106 -30 13 0 53 -13 89 -30 51 -24 78 -30 131 -30 37 0 87 -6 112 -14 57 -18
122 -35 180 -46 25 -5 77 -20 115 -34 39 -14 87 -26 108 -26 21 0 54 -7 74
-15 19 -8 53 -15 75 -15 21 0 55 -7 75 -15 24 -10 71 -15 149 -15 67 0 124 -5
141 -12 17 -8 110 -15 243 -20 252 -8 209 -8 441 -2 l187 5 37 -15 c51 -21
228 -22 278 -1 21 8 67 15 105 15 39 0 85 7 105 15 20 8 61 15 90 15 30 0 71
7 90 15 23 9 68 15 120 15 53 0 98 6 120 15 20 8 54 15 76 15 26 0 71 15 133
45 51 25 105 45 121 45 36 0 159 62 217 110 85 70 135 73 192 13 12 -14 40
-34 60 -44 l37 -19 109 0 110 0 71 89 71 89 0 91 c0 49 -4 93 -10 96 -5 3 -10
19 -10 35 0 15 -13 57 -30 92 -16 34 -30 68 -30 75 0 6 -13 40 -30 75 -16 34
-30 70 -30 79 0 8 -13 28 -30 44 -16 16 -30 36 -30 44 0 9 -14 36 -30 61 -16
25 -30 54 -30 65 0 29 -447 469 -539 529 -40 27 -82 64 -93 82 -20 34 -102 95
-179 134 -24 12 -65 39 -90 61 -46 37 -146 79 -192 79 -13 0 -75 25 -138 56
-127 62 -262 107 -362 121 -20 3 -40 9 -43 14 -3 5 -45 9 -95 9 l-89 0 0 -33z
m-2082 -2611 c15 -8 42 -35 60 -60 l34 -47 -12 -14 c-16 -20 -32 -19 -106 6
-72 24 -126 71 -105 92 13 13 67 35 89 36 7 1 25 -5 40 -13z"/>
</g>
</svg>
