<?xml version="1.0" standalone="no"?>
<!DOCTYPE svg PUBLIC "-//W3C//DTD SVG 20010904//EN"
 "http://www.w3.org/TR/2001/REC-SVG-20010904/DTD/svg10.dtd">
<svg version="1.0" xmlns="http://www.w3.org/2000/svg"
 width="495.000000pt" height="315.000000pt" viewBox="0 0 495.000000 315.000000"
 preserveAspectRatio="xMidYMid meet">
<metadata>
Created by potrace 1.16, written by Peter Selinger 2001-2019
</metadata>
<g transform="translate(0.000000,315.000000) scale(0.100000,-0.100000)"
fill="#000000" stroke="none">
<path d="M3326 3129 c-8 -12 -12 -27 -10 -34 5 -13 125 -75 144 -75 6 0 41
-18 78 -40 37 -23 86 -46 109 -52 24 -6 62 -27 85 -48 24 -20 61 -46 83 -58
22 -11 68 -45 103 -76 34 -31 67 -56 72 -56 5 0 59 -47 119 -105 61 -58 114
-105 119 -105 5 0 23 -15 40 -32 66 -71 204 -231 220 -256 9 -15 36 -51 59
-79 23 -29 49 -75 57 -102 8 -28 26 -67 40 -88 14 -21 26 -43 26 -49 0 -7 13
-41 30 -76 16 -34 30 -75 30 -89 0 -15 7 -43 15 -62 27 -65 13 -137 -28 -137
-6 0 -38 28 -71 63 -34 34 -71 69 -82 77 -12 8 -36 36 -53 62 -73 108 -139
127 -211 62 -43 -39 -46 -51 -28 -118 l12 -44 -18 -46 c-35 -91 -127 -159
-291 -216 l-59 -20 -631 0 -630 0 -45 14 c-78 25 -133 37 -195 45 -34 5 -70
13 -82 19 -12 7 -40 12 -63 12 -22 0 -57 7 -77 15 -20 8 -66 15 -105 15 -38 0
-84 7 -105 15 -24 10 -70 15 -146 15 l-111 0 -91 29 c-102 33 -160 48 -225 61
-25 4 -70 19 -100 33 -72 32 -153 65 -215 87 -28 10 -83 34 -123 54 -39 20
-77 36 -85 36 -7 0 -50 25 -95 55 -92 61 -154 95 -175 95 -7 0 -24 12 -38 26
-13 14 -42 35 -64 46 -22 12 -54 32 -72 45 -36 27 -134 58 -158 50 -8 -4 -15
-17 -15 -30 0 -40 152 -168 224 -188 19 -5 62 -34 95 -64 34 -30 69 -55 79
-55 30 0 145 -60 193 -100 l46 -39 168 -55 c92 -31 179 -65 194 -75 36 -26
142 -61 183 -61 18 0 53 -6 78 -14 60 -19 125 -35 182 -46 26 -5 56 -13 67
-19 11 -6 38 -11 61 -11 22 0 57 -7 77 -15 19 -8 53 -15 75 -15 21 0 55 -7 75
-15 26 -11 76 -15 197 -15 l161 0 45 -30 45 -30 58 0 c32 0 74 -7 94 -15 26
-11 74 -15 180 -15 105 0 153 -4 180 -15 l35 -15 313 0 313 0 35 15 c47 20 97
19 148 -2 l41 -16 47 16 c25 10 54 17 64 17 23 0 123 34 191 65 30 14 61 25
70 25 8 0 45 34 83 75 48 54 76 77 99 81 46 8 111 -12 131 -43 40 -58 68 -79
125 -93 l58 -13 40 18 c59 27 110 87 110 129 0 19 5 38 10 41 6 3 10 28 10 55
0 27 -4 52 -10 55 -5 3 -10 31 -10 60 0 64 -58 249 -96 304 -13 20 -24 49 -24
64 0 39 -51 133 -109 198 -25 30 -59 72 -75 94 -33 46 -90 105 -256 269 -25
24 -76 65 -115 91 -38 26 -88 64 -110 85 -22 21 -60 48 -85 60 -57 29 -114 72
-166 127 -22 24 -49 43 -60 43 -11 0 -35 11 -54 24 -68 46 -238 126 -268 126
-17 0 -34 5 -37 10 -3 6 -35 10 -70 10 l-64 0 -15 -21z"/>
<path d="M101 1530 c-33 -5 -51 -15 -72 -41 l-28 -34 -1 -162 0 -162 19 -6
c23 -7 48 -42 57 -81 14 -57 54 -122 100 -163 27 -23 53 -57 60 -76 19 -57 42
-84 94 -110 27 -14 57 -37 67 -52 10 -14 38 -45 62 -69 24 -23 57 -56 75 -73
146 -149 175 -181 178 -197 3 -18 33 -41 96 -76 17 -9 42 -35 56 -57 25 -39
105 -91 139 -91 7 0 26 -13 42 -30 16 -16 37 -30 46 -30 10 0 21 -4 24 -10 3
-5 35 -10 70 -10 35 0 67 5 70 10 3 6 18 10 33 10 71 0 95 70 77 220 -10 73
-41 168 -69 205 -13 17 -31 46 -41 65 -10 19 -33 52 -51 72 -18 20 -42 55 -54
77 -11 22 -33 50 -49 62 -16 12 -49 48 -72 81 -24 32 -66 76 -93 97 -28 21
-100 89 -161 150 -60 62 -122 118 -137 126 -15 8 -60 45 -102 82 -87 79 -164
138 -221 171 -22 13 -58 43 -81 68 -43 46 -49 48 -133 34z m174 -266 c68 -45
105 -75 230 -188 160 -145 198 -184 231 -232 19 -30 43 -59 53 -66 19 -13 101
-103 179 -196 23 -28 42 -58 42 -66 0 -8 25 -44 56 -78 31 -35 65 -81 75 -103
20 -43 24 -101 10 -124 l-9 -14 -34 13 c-18 8 -47 24 -63 36 -17 13 -48 29
-70 36 -28 9 -48 26 -68 56 -16 23 -45 51 -65 61 -48 24 -351 325 -397 393
-19 29 -54 67 -78 84 -23 17 -54 51 -68 77 -14 26 -39 62 -56 80 -17 17 -42
50 -57 72 l-26 40 0 67 c0 47 5 71 16 82 8 9 18 16 22 16 4 0 39 -21 77 -46z"/>
</g>
</svg>
