<?xml version="1.0" standalone="no"?>
<!DOCTYPE svg PUBLIC "-//W3C//DTD SVG 20010904//EN"
 "http://www.w3.org/TR/2001/REC-SVG-20010904/DTD/svg10.dtd">
<svg version="1.0" xmlns="http://www.w3.org/2000/svg"
 width="852.000000pt" height="309.000000pt" viewBox="0 0 852.000000 309.000000"
 preserveAspectRatio="xMidYMid meet">
<metadata>
Created by potrace 1.16, written by Peter Selinger 2001-2019
</metadata>
<g transform="translate(0.000000,309.000000) scale(0.100000,-0.100000)"
fill="#000000" stroke="none">
<path d="M6802 3067 c-12 -13 -22 -33 -22 -44 0 -24 43 -63 69 -63 23 0 131
-53 178 -87 40 -29 79 -47 165 -78 30 -10 74 -41 120 -83 40 -37 90 -79 110
-92 20 -14 49 -44 65 -69 15 -24 45 -55 67 -68 22 -14 69 -53 106 -87 37 -33
79 -69 93 -79 16 -10 31 -34 37 -57 11 -42 50 -80 82 -80 23 0 68 -43 68 -65
0 -9 32 -53 71 -98 39 -45 87 -113 106 -152 19 -38 47 -82 61 -97 34 -37 92
-208 92 -274 0 -28 7 -68 15 -87 20 -48 19 -92 -4 -156 -17 -48 -33 -70 -53
-71 -26 0 -116 114 -180 229 -10 18 -36 40 -62 53 l-45 22 -56 -19 -56 -19
-48 17 c-62 22 -140 22 -202 0 l-49 -18 -49 18 -49 17 -381 0 -382 0 -36 15
c-27 11 -77 15 -207 15 l-172 0 -84 30 -85 30 -113 0 c-77 0 -124 5 -149 15
-24 10 -71 15 -150 15 -78 0 -125 5 -150 15 l-35 15 -267 0 -267 0 -29 30 -29
30 -118 0 c-83 0 -129 5 -155 15 -48 20 -86 19 -134 -5 -34 -18 -79 -70 -79
-92 0 -4 13 -23 30 -41 22 -26 49 -40 102 -57 40 -13 93 -35 118 -50 25 -16
59 -31 77 -35 17 -3 51 -23 75 -44 24 -21 61 -51 83 -67 43 -30 117 -92 194
-159 25 -23 64 -53 86 -67 49 -33 143 -128 182 -184 38 -55 90 -125 136 -182
21 -26 40 -58 44 -72 3 -14 19 -53 35 -87 15 -34 28 -78 28 -99 0 -21 7 -57
16 -80 l16 -41 -20 -45 c-23 -49 -63 -94 -94 -104 -12 -3 -33 3 -57 19 -20 14
-60 36 -88 51 -29 14 -64 42 -79 62 -15 19 -43 44 -63 54 -76 38 -269 176
-346 245 -49 44 -93 75 -112 79 -17 4 -51 24 -75 45 -24 21 -58 46 -77 56 -19
9 -52 30 -74 46 -22 16 -47 29 -56 29 -20 0 -84 42 -131 85 -19 18 -62 47 -96
63 -34 17 -98 56 -144 88 -46 31 -98 61 -116 66 -20 5 -45 24 -60 44 -15 19
-46 45 -68 56 -23 11 -63 38 -91 59 -27 22 -79 62 -114 89 -35 28 -73 50 -84
50 -11 0 -39 20 -61 44 -50 53 -123 106 -146 106 -10 0 -30 16 -44 35 -15 20
-53 49 -84 66 -85 45 -187 111 -219 141 -15 14 -43 29 -60 33 -18 3 -75 35
-128 71 -52 35 -130 82 -173 103 -42 22 -99 58 -126 80 -26 23 -56 41 -65 41
-34 0 -125 52 -165 94 l-41 45 -108 35 c-59 20 -116 36 -127 36 -26 0 -141
-38 -158 -53 -8 -6 -24 -32 -38 -59 l-24 -47 0 -78 0 -78 41 -60 c22 -33 89
-107 148 -165 123 -120 171 -182 171 -220 0 -44 -91 -120 -178 -147 l-70 -23
-181 0 c-139 0 -190 4 -218 15 -23 10 -69 15 -135 15 -65 0 -111 5 -135 15
-19 8 -60 15 -90 15 -29 0 -70 7 -90 15 -19 8 -47 15 -62 15 -14 0 -55 14 -89
30 -35 17 -74 30 -85 30 -28 0 -153 42 -206 69 -22 12 -51 21 -63 21 -30 0
-244 72 -300 101 -24 12 -56 32 -73 45 -34 25 -142 64 -180 64 l-25 0 0 -57 1
-58 43 -28 c24 -15 50 -27 58 -27 18 0 138 -61 208 -106 30 -19 66 -37 80 -40
14 -2 43 -9 65 -15 22 -6 58 -14 80 -18 22 -4 137 -40 255 -78 266 -88 287
-93 380 -102 42 -4 82 -11 90 -17 8 -5 92 -12 185 -17 204 -9 187 -9 455 1
l215 7 70 37 c91 47 195 166 195 223 0 16 -94 210 -113 233 -6 8 -28 23 -50
34 -38 19 -174 154 -209 207 -22 32 -23 65 -2 85 38 39 214 -1 288 -65 46 -40
144 -93 193 -103 17 -4 51 -24 75 -45 24 -21 72 -53 107 -71 69 -34 154 -93
185 -129 11 -11 26 -21 35 -21 29 0 145 -60 191 -99 25 -21 74 -53 108 -70 34
-17 79 -47 100 -65 20 -18 69 -50 109 -70 39 -19 80 -47 90 -61 54 -78 98
-115 223 -187 25 -14 56 -38 69 -52 14 -14 32 -26 41 -26 9 0 36 -15 60 -32
23 -18 68 -49 100 -68 168 -101 197 -120 215 -140 22 -25 76 -54 117 -64 15
-3 39 -22 54 -42 17 -21 55 -49 98 -71 72 -36 160 -97 185 -127 17 -20 84 -56
105 -56 8 0 24 -13 35 -29 12 -16 49 -48 84 -72 34 -23 80 -59 103 -79 22 -21
72 -58 110 -83 100 -66 244 -209 244 -241 l0 -26 85 0 c47 0 93 4 103 8 9 5
33 17 52 27 40 21 72 36 115 56 22 10 42 37 72 94 l42 80 1 122 0 122 -30 64
c-16 36 -30 70 -30 77 0 19 -40 91 -97 174 -30 43 -65 101 -79 127 -15 31 -39
58 -64 74 -22 14 -51 43 -65 65 -14 22 -43 49 -66 61 -23 11 -62 41 -88 67
-26 26 -74 66 -107 90 -102 73 -199 154 -199 166 0 8 57 12 192 14 l193 2 36
-15 c27 -11 76 -15 196 -15 118 0 168 -4 195 -15 25 -11 72 -15 165 -15 92 0
139 -4 165 -15 25 -11 72 -15 165 -15 92 0 139 -4 165 -15 28 -12 86 -15 285
-15 198 0 256 -3 285 -15 24 -10 71 -15 150 -15 78 0 125 -5 150 -15 24 -10
71 -15 150 -15 78 0 125 -5 150 -15 23 -10 69 -15 135 -15 55 0 108 -5 120
-11 11 -6 70 -58 131 -116 62 -57 129 -113 149 -124 72 -37 170 -17 241 50 31
28 77 110 77 136 0 9 11 27 25 41 l25 25 0 59 c0 32 -4 62 -10 65 -5 3 -10 33
-10 65 0 44 -7 75 -30 123 -16 36 -30 75 -30 86 0 45 -42 143 -95 223 -30 45
-55 89 -55 98 0 9 -49 68 -109 132 -61 64 -121 134 -135 156 -13 22 -37 49
-53 61 -107 82 -142 113 -180 161 -56 73 -80 97 -153 150 -34 25 -86 64 -117
88 -30 24 -77 50 -104 58 -27 8 -74 35 -103 59 -55 45 -183 115 -210 115 -8 0
-23 11 -34 24 -10 14 -41 35 -68 47 -27 12 -57 26 -66 30 -10 5 -44 9 -76 9
l-59 0 -21 -23z"/>
</g>
</svg>
