<?xml version="1.0" standalone="no"?>
<!DOCTYPE svg PUBLIC "-//W3C//DTD SVG 20010904//EN"
 "http://www.w3.org/TR/2001/REC-SVG-20010904/DTD/svg10.dtd">
<svg version="1.0" xmlns="http://www.w3.org/2000/svg"
 width="306.000000pt" height="216.000000pt" viewBox="0 0 306.000000 216.000000"
 preserveAspectRatio="xMidYMid meet">
<metadata>
Created by potrace 1.16, written by Peter Selinger 2001-2019
</metadata>
<g transform="translate(0.000000,216.000000) scale(0.100000,-0.100000)"
fill="#000000" stroke="none">
<path d="M23 2146 l-23 -11 0 -102 c0 -57 4 -105 10 -108 6 -3 10 -18 10 -33
1 -48 66 -222 94 -251 14 -15 26 -34 26 -43 0 -8 13 -33 29 -55 16 -23 41 -63
55 -91 14 -27 47 -69 75 -93 27 -24 60 -62 72 -84 13 -22 68 -84 124 -137 55
-54 120 -117 145 -142 25 -24 77 -65 115 -91 39 -26 88 -64 110 -85 22 -21 60
-48 85 -60 47 -24 146 -96 169 -124 7 -9 21 -16 30 -16 9 0 82 -32 161 -71 80
-39 186 -84 235 -100 50 -16 108 -42 130 -58 66 -47 122 -71 164 -71 22 0 52
-5 68 -12 15 -6 78 -16 138 -20 128 -10 142 -10 293 -2 l113 6 55 -61 c71 -78
267 -211 312 -211 17 0 34 -4 37 -10 9 -15 65 -12 65 3 0 7 32 39 70 71 l70
59 0 158 c0 88 -4 167 -9 177 -49 95 -101 222 -101 245 0 34 -68 166 -115 225
-19 24 -35 52 -35 62 0 22 -309 343 -364 377 -22 14 -70 54 -107 89 -38 35
-77 64 -87 64 -10 0 -29 12 -43 26 -24 26 -207 124 -232 124 -7 0 -82 34 -166
75 l-153 75 -77 0 c-47 0 -82 -5 -89 -12 -34 -34 12 -98 69 -98 41 0 73 -15
116 -53 26 -24 51 -36 81 -40 26 -3 57 -16 78 -34 67 -54 97 -73 128 -81 46
-13 143 -78 211 -142 33 -31 72 -64 88 -73 15 -10 38 -34 51 -55 13 -21 44
-50 68 -66 25 -16 58 -49 74 -74 16 -24 45 -55 66 -68 50 -32 75 -60 105 -119
14 -27 41 -67 59 -89 20 -23 43 -69 58 -117 14 -44 33 -93 41 -110 9 -16 34
-83 55 -148 l40 -117 -18 -50 c-24 -68 -29 -74 -61 -74 -55 0 -182 120 -201
190 -12 44 -108 140 -140 140 -29 0 -90 -33 -119 -64 -14 -14 -35 -26 -49 -26
-13 0 -46 -8 -73 -17 l-49 -18 -49 18 c-28 9 -78 17 -115 17 -37 0 -83 7 -103
15 -19 8 -54 15 -77 15 -41 0 -71 13 -177 77 -29 17 -90 44 -136 58 -89 29
-165 65 -253 121 -30 19 -67 38 -83 41 -15 3 -36 18 -47 33 -25 34 -132 109
-174 122 -39 11 -54 23 -91 71 -16 22 -52 51 -85 67 -62 31 -205 165 -260 245
-35 50 -99 135 -143 190 -55 68 -136 198 -143 228 -3 18 -15 49 -26 70 -44 88
-68 180 -68 265 l0 82 -42 -1 c-24 -1 -53 -6 -65 -13z"/>
</g>
</svg>
