<?xml version="1.0" standalone="no"?>
<!DOCTYPE svg PUBLIC "-//W3C//DTD SVG 20010904//EN"
 "http://www.w3.org/TR/2001/REC-SVG-20010904/DTD/svg10.dtd">
<svg version="1.0" xmlns="http://www.w3.org/2000/svg"
 width="219.000000pt" height="213.000000pt" viewBox="0 0 219.000000 213.000000"
 preserveAspectRatio="xMidYMid meet">
<metadata>
Created by potrace 1.16, written by Peter Selinger 2001-2019
</metadata>
<g transform="translate(0.000000,213.000000) scale(0.100000,-0.100000)"
fill="#000000" stroke="none">
<path d="M590 2097 c0 -40 25 -67 63 -67 38 0 70 -15 113 -52 20 -18 51 -37
68 -43 17 -6 42 -27 57 -50 15 -22 53 -56 86 -75 38 -24 59 -43 61 -58 2 -13
27 -40 61 -66 71 -55 379 -362 446 -446 28 -34 64 -83 80 -108 28 -44 62 -90
154 -207 21 -27 49 -70 61 -95 13 -25 37 -62 55 -83 32 -37 75 -143 75 -184 0
-11 7 -37 15 -56 20 -48 21 -275 2 -301 -10 -13 -24 -17 -57 -14 l-44 3 -48
75 c-66 103 -88 150 -88 187 0 53 -33 78 -153 118 -79 26 -125 35 -172 35 -36
0 -82 7 -102 15 -19 8 -52 15 -71 15 -20 0 -77 13 -127 29 -103 33 -160 49
-227 61 -26 5 -56 13 -67 19 -11 6 -45 11 -76 11 -30 0 -72 7 -92 15 -19 8
-60 15 -90 15 -37 0 -72 8 -110 26 -65 29 -137 52 -288 90 -11 3 -50 -8 -87
-25 -36 -17 -71 -31 -77 -31 -7 0 -11 -38 -11 -112 l1 -113 99 -92 c55 -51
108 -93 117 -93 10 0 38 -14 63 -30 25 -17 58 -30 76 -30 21 0 39 -9 59 -30
22 -23 37 -30 68 -30 l40 0 44 44 45 45 -3 103 -3 103 81 3 c57 2 93 -2 119
-13 20 -8 60 -15 88 -15 32 0 84 -11 136 -30 47 -16 96 -30 110 -30 14 0 45
-14 70 -30 32 -22 57 -30 88 -30 23 0 59 -7 79 -15 19 -8 47 -15 62 -15 14 0
54 -18 87 -40 47 -30 73 -56 110 -112 26 -40 66 -94 90 -119 23 -25 54 -64 68
-88 15 -23 39 -47 54 -52 15 -6 35 -15 44 -20 10 -5 58 -9 107 -9 l89 0 28 34
c16 19 39 51 52 71 l22 36 0 179 c0 108 -4 181 -10 185 -5 3 -10 24 -10 46 0
41 -29 139 -57 194 -9 16 -40 65 -70 109 -30 43 -65 100 -78 127 -14 26 -40
59 -59 74 -19 14 -50 57 -70 95 -24 44 -50 79 -75 97 -21 15 -62 64 -92 108
-55 83 -155 202 -223 264 -22 20 -80 74 -130 121 -50 47 -110 99 -134 115 -24
16 -62 45 -85 65 -23 21 -60 46 -82 58 -22 11 -68 45 -103 76 -34 31 -71 56
-82 56 -10 0 -22 5 -25 10 -3 6 -52 10 -111 10 l-104 0 0 -33z m-232 -1429
c70 -77 88 -108 79 -132 -13 -33 -64 -15 -177 62 -61 42 -80 77 -62 117 l12
25 42 0 43 0 63 -72z"/>
</g>
</svg>
