<?xml version="1.0" standalone="no"?>
<!DOCTYPE svg PUBLIC "-//W3C//DTD SVG 20010904//EN"
 "http://www.w3.org/TR/2001/REC-SVG-20010904/DTD/svg10.dtd">
<svg version="1.0" xmlns="http://www.w3.org/2000/svg"
 width="273.000000pt" height="423.000000pt" viewBox="0 0 273.000000 423.000000"
 preserveAspectRatio="xMidYMid meet">
<metadata>
Created by potrace 1.16, written by Peter Selinger 2001-2019
</metadata>
<g transform="translate(0.000000,423.000000) scale(0.100000,-0.100000)"
fill="#000000" stroke="none">
<path d="M700 4209 c-17 -31 -8 -63 20 -70 14 -4 50 -14 80 -22 97 -26 144
-38 185 -46 38 -8 90 -35 215 -114 30 -19 67 -37 82 -41 15 -3 61 -38 102 -76
42 -39 84 -70 95 -70 10 0 25 -8 32 -17 8 -9 39 -35 69 -57 137 -101 331 -281
377 -350 15 -23 55 -71 90 -108 36 -39 66 -82 72 -103 5 -20 32 -60 59 -89 71
-79 115 -225 82 -276 l-10 -15 -10 15 c-5 8 -10 20 -10 26 0 23 -59 91 -89
104 l-32 13 -55 -13 c-30 -7 -59 -20 -66 -27 -22 -27 -47 -118 -48 -173 l0
-55 -40 -62 c-50 -78 -142 -142 -205 -143 -22 0 -78 -14 -125 -30 l-84 -30
-181 0 -181 0 -84 30 c-47 16 -96 30 -110 30 -39 1 -106 35 -126 65 -11 15
-47 58 -80 95 -34 37 -73 84 -87 106 -48 75 -256 259 -352 311 -48 27 -144 31
-198 8 -20 -8 -48 -15 -62 -15 l-25 0 0 -130 c0 -78 4 -130 10 -130 12 0 59
-40 119 -101 45 -46 97 -79 123 -79 8 0 51 -25 96 -55 107 -71 155 -95 189
-95 61 0 294 -191 371 -305 40 -60 117 -148 212 -242 47 -47 105 -114 130
-148 75 -105 143 -188 188 -231 23 -22 46 -54 51 -70 7 -27 18 -37 103 -89 22
-13 37 -34 46 -60 7 -22 37 -65 71 -100 31 -33 66 -73 76 -90 11 -16 37 -51
60 -76 88 -100 122 -145 128 -171 4 -15 32 -48 62 -75 30 -26 55 -57 55 -67 0
-11 19 -38 43 -60 24 -23 59 -61 77 -86 19 -25 63 -78 97 -118 35 -40 70 -85
80 -100 9 -15 49 -61 88 -102 40 -41 84 -94 98 -116 32 -51 107 -114 136 -114
l21 0 0 66 0 66 -47 52 c-27 29 -61 72 -78 97 -16 24 -48 64 -70 89 -22 25
-63 79 -90 120 -27 41 -71 99 -97 129 -27 29 -58 72 -70 95 -11 22 -41 62 -67
87 -49 49 -96 108 -160 204 -21 33 -51 71 -65 84 -14 14 -26 34 -26 45 0 12
-25 44 -60 78 -33 31 -60 64 -60 74 0 9 -19 36 -43 58 -24 23 -59 61 -77 86
-19 25 -60 74 -91 110 -31 36 -69 83 -85 106 -16 22 -44 60 -61 84 -18 24 -33
55 -33 69 0 37 -10 47 -53 59 -22 6 -57 29 -82 54 -25 24 -58 57 -76 73 -17
17 -52 59 -78 93 -25 35 -56 78 -68 94 -13 17 -23 37 -23 44 0 23 48 28 93 10
58 -22 288 -23 340 -1 20 8 59 15 87 15 79 0 327 89 382 138 10 8 18 23 18 33
0 10 14 27 31 39 16 12 41 40 55 61 34 54 60 65 109 45 95 -40 208 -1 257 89
l28 50 0 76 c0 46 -6 91 -15 112 -8 20 -15 48 -15 62 0 31 -33 100 -65 135
-33 36 -112 155 -141 211 -13 27 -37 58 -53 70 -16 12 -44 42 -63 68 -18 25
-59 73 -92 106 -74 75 -139 127 -369 297 -32 24 -84 63 -114 87 -31 24 -70 47
-87 52 -18 5 -50 24 -72 43 -39 33 -232 136 -256 136 -7 0 -42 14 -76 30 -41
19 -80 30 -107 30 -24 0 -47 5 -50 10 -3 6 -46 10 -95 10 l-89 0 -11 -21z
m-429 -1363 c20 -14 50 -46 67 -71 17 -25 45 -56 64 -68 18 -13 34 -31 36 -40
l4 -18 -39 16 c-21 9 -54 26 -73 39 -19 13 -57 35 -83 50 -31 18 -54 40 -65
62 l-16 35 14 9 c25 16 54 11 91 -14z"/>
</g>
</svg>
