<?xml version="1.0" standalone="no"?>
<!DOCTYPE svg PUBLIC "-//W3C//DTD SVG 20010904//EN"
 "http://www.w3.org/TR/2001/REC-SVG-20010904/DTD/svg10.dtd">
<svg version="1.0" xmlns="http://www.w3.org/2000/svg"
 width="225.000000pt" height="489.000000pt" viewBox="0 0 225.000000 489.000000"
 preserveAspectRatio="xMidYMid meet">
<metadata>
Created by potrace 1.16, written by Peter Selinger 2001-2019
</metadata>
<g transform="translate(0.000000,489.000000) scale(0.100000,-0.100000)"
fill="#000000" stroke="none">
<path d="M260 4872 c0 -11 8 -26 18 -34 29 -27 238 -127 317 -153 42 -14 108
-46 150 -74 41 -28 93 -60 117 -72 24 -11 63 -38 88 -58 25 -20 79 -59 120
-86 41 -27 95 -68 120 -90 25 -22 63 -53 86 -68 47 -32 194 -182 271 -277 29
-35 56 -79 59 -97 3 -18 20 -52 36 -74 17 -23 43 -69 59 -103 l29 -61 0 -123
c0 -68 -5 -132 -10 -143 l-11 -19 -57 0 c-66 0 -80 7 -169 92 l-61 58 -55 0
c-69 0 -87 -18 -87 -87 0 -56 9 -68 77 -102 23 -11 50 -33 60 -48 10 -15 46
-55 80 -89 34 -35 70 -78 79 -96 9 -18 44 -63 78 -99 48 -51 67 -80 84 -130
24 -70 28 -138 12 -170 l-11 -19 -63 0 c-68 0 -96 -17 -96 -57 0 -38 75 -83
140 -83 46 0 157 34 181 56 21 19 59 134 59 179 0 19 -17 84 -37 146 -27 82
-43 115 -61 127 -104 70 -106 102 -14 188 l69 63 21 66 c26 76 28 158 7 208
-8 20 -15 52 -15 72 0 37 -30 137 -56 188 -41 79 -162 243 -215 290 -32 30
-59 61 -59 69 0 28 -41 67 -80 78 -24 6 -47 21 -57 37 -47 70 -156 163 -318
271 -44 30 -91 64 -105 77 -28 25 -102 65 -122 65 -7 0 -30 11 -51 25 -106 73
-306 155 -376 155 -22 0 -43 5 -46 10 -3 6 -46 10 -96 10 l-89 0 0 -18z"/>
<path d="M28 3114 l-28 -15 0 -39 0 -40 26 0 c29 0 140 -52 224 -106 30 -19
72 -39 92 -44 47 -13 66 -24 160 -87 42 -29 95 -61 116 -72 82 -42 181 -117
282 -215 58 -55 125 -114 148 -129 23 -16 66 -59 96 -95 29 -37 93 -110 142
-163 116 -125 181 -204 205 -251 11 -21 33 -48 50 -60 17 -13 43 -43 57 -68
14 -25 48 -69 74 -98 26 -30 51 -66 54 -80 10 -40 38 -92 99 -184 30 -45 55
-89 55 -97 0 -8 13 -35 29 -60 16 -25 31 -57 34 -71 4 -14 24 -55 47 -92 l40
-67 0 -55 c0 -40 8 -71 30 -118 22 -45 30 -78 30 -117 0 -29 8 -75 17 -102
l18 -49 -18 -49 c-9 -27 -17 -66 -17 -87 0 -39 -47 -153 -77 -186 -9 -10 -52
-36 -97 -59 -44 -23 -89 -48 -99 -57 -24 -21 -21 -54 6 -80 24 -23 81 -30 92
-12 3 6 20 10 36 10 42 0 87 25 139 79 25 25 57 54 71 63 27 17 69 124 69 173
0 13 5 27 10 30 6 4 10 93 10 235 0 142 -4 231 -10 235 -5 3 -10 32 -10 63 0
55 -15 104 -70 242 -12 30 -28 67 -36 83 -36 69 -45 88 -90 186 -27 57 -61
121 -76 141 -14 21 -36 57 -49 81 -12 24 -34 58 -49 75 -15 17 -52 70 -83 117
-32 47 -77 103 -101 123 -24 20 -54 55 -66 78 -13 22 -42 61 -65 86 -23 25
-50 59 -60 75 -10 17 -39 50 -65 75 -25 25 -61 69 -80 99 -22 33 -56 67 -90
90 -30 20 -75 57 -100 82 -25 25 -58 54 -75 64 -16 10 -50 37 -75 60 -25 23
-79 63 -120 90 -41 27 -88 61 -105 76 -42 37 -109 69 -142 69 -18 0 -60 21
-111 55 -82 54 -178 95 -225 95 -13 0 -34 12 -48 26 -55 60 -159 82 -221 48z"/>
</g>
</svg>
