<?xml version="1.0" standalone="no"?>
<!DOCTYPE svg PUBLIC "-//W3C//DTD SVG 20010904//EN"
 "http://www.w3.org/TR/2001/REC-SVG-20010904/DTD/svg10.dtd">
<svg version="1.0" xmlns="http://www.w3.org/2000/svg"
 width="198.000000pt" height="294.000000pt" viewBox="0 0 198.000000 294.000000"
 preserveAspectRatio="xMidYMid meet">
<metadata>
Created by potrace 1.16, written by Peter Selinger 2001-2019
</metadata>
<g transform="translate(0.000000,294.000000) scale(0.100000,-0.100000)"
fill="#000000" stroke="none">
<path d="M23 2926 c-18 -8 -23 -19 -23 -48 l0 -38 43 0 c26 0 53 -8 72 -21 49
-33 237 -126 271 -133 17 -4 55 -27 84 -52 28 -24 55 -44 59 -44 4 0 46 -25
92 -56 105 -70 256 -200 275 -236 8 -15 36 -41 62 -59 26 -17 59 -47 72 -68
13 -20 49 -63 80 -96 31 -33 78 -94 105 -135 27 -41 66 -95 86 -120 20 -25 47
-65 59 -90 12 -25 33 -59 46 -76 36 -48 114 -218 114 -248 0 -15 7 -41 16 -59
9 -17 20 -61 25 -97 4 -36 11 -75 14 -87 9 -30 -34 -73 -72 -73 -31 0 -86 33
-150 91 -63 58 -110 63 -166 18 -20 -15 -27 -29 -27 -55 0 -48 14 -70 63 -101
23 -14 69 -52 102 -83 33 -31 77 -67 97 -80 20 -14 49 -44 64 -68 15 -24 46
-55 68 -70 28 -19 51 -47 74 -92 18 -36 49 -90 67 -122 19 -31 35 -61 35 -67
0 -17 -89 -70 -145 -86 -27 -8 -64 -24 -82 -35 -37 -22 -73 -86 -73 -130 0
-37 52 -144 88 -182 l26 -28 150 0 151 1 60 49 c33 28 63 50 67 50 11 0 10
327 -1 348 -5 9 -17 37 -27 62 -10 25 -35 72 -56 105 -20 33 -48 81 -62 107
-14 25 -43 59 -65 75 -44 31 -71 70 -71 103 0 28 26 83 62 134 l28 39 0 141 0
141 -30 45 c-16 25 -30 50 -30 57 0 6 -13 41 -30 76 -16 36 -30 71 -30 78 0 7
-16 38 -36 68 -57 89 -101 162 -133 223 -17 31 -46 69 -66 84 -19 14 -35 34
-35 44 0 25 -42 74 -93 108 -30 20 -46 40 -57 72 -12 34 -27 52 -67 80 -29 19
-65 55 -80 79 -15 24 -45 55 -67 68 -22 14 -70 54 -107 89 -38 35 -77 64 -87
64 -10 0 -29 12 -43 26 -13 14 -42 35 -64 46 -22 12 -54 32 -71 45 -17 13 -54
30 -82 38 -31 9 -77 36 -113 65 -42 33 -72 50 -90 50 -16 0 -46 6 -66 14 -21
8 -56 17 -78 20 -21 3 -52 15 -67 26 -30 22 -97 25 -135 6z m1678 -2739 c-13
-13 -26 -3 -16 12 3 6 11 8 17 5 6 -4 6 -10 -1 -17z"/>
</g>
</svg>
