<?xml version="1.0" standalone="no"?>
<!DOCTYPE svg PUBLIC "-//W3C//DTD SVG 20010904//EN"
 "http://www.w3.org/TR/2001/REC-SVG-20010904/DTD/svg10.dtd">
<svg version="1.0" xmlns="http://www.w3.org/2000/svg"
 width="222.000000pt" height="312.000000pt" viewBox="0 0 222.000000 312.000000"
 preserveAspectRatio="xMidYMid meet">
<metadata>
Created by potrace 1.16, written by Peter Selinger 2001-2019
</metadata>
<g transform="translate(0.000000,312.000000) scale(0.100000,-0.100000)"
fill="#000000" stroke="none">
<path d="M818 3096 c-3 -13 -1 -31 4 -40 13 -22 221 -126 254 -126 38 0 152
-56 204 -99 25 -21 69 -51 98 -66 29 -15 61 -39 70 -53 9 -14 36 -44 59 -66
44 -42 65 -63 165 -166 32 -32 73 -85 92 -117 19 -32 56 -83 82 -113 46 -54
94 -140 94 -171 0 -8 14 -28 30 -44 19 -18 30 -39 30 -56 0 -15 13 -56 30 -91
l30 -63 0 -100 0 -100 -40 -62 c-22 -35 -58 -74 -82 -90 -74 -49 -62 -103 24
-103 94 0 187 68 213 155 8 29 22 58 30 65 l15 12 0 198 0 198 -15 12 c-8 7
-22 36 -30 65 -9 29 -33 82 -55 118 -22 36 -40 72 -40 80 0 8 -10 22 -21 33
-32 28 -93 113 -119 164 -12 25 -48 72 -80 105 -31 33 -68 78 -82 100 -28 43
-56 71 -102 99 -16 10 -48 36 -71 57 -54 50 -156 119 -175 119 -8 0 -28 9 -45
21 -57 39 -185 99 -210 99 -14 0 -42 7 -62 15 -19 8 -55 15 -79 15 -23 0 -46
5 -49 10 -3 6 -41 10 -84 10 l-79 0 -4 -24z"/>
<path d="M187 2032 c-10 -10 -17 -29 -17 -41 0 -27 51 -81 77 -81 10 0 77 -39
148 -86 72 -48 164 -104 205 -125 42 -20 104 -62 138 -93 35 -31 69 -56 78
-56 25 0 341 -315 368 -368 8 -16 32 -42 53 -57 46 -35 57 -49 85 -100 11 -22
36 -57 54 -77 59 -66 174 -319 174 -384 0 -12 7 -38 15 -57 21 -51 21 -220 -1
-241 -11 -12 -20 -13 -33 -6 -18 9 -51 67 -51 89 0 23 -49 106 -77 132 -15 15
-47 36 -70 48 l-42 21 -176 0 c-133 0 -184 4 -212 15 -19 8 -53 15 -75 15 -21
0 -55 7 -75 15 -19 8 -60 15 -90 15 -29 0 -70 7 -90 15 -19 8 -60 15 -90 15
-29 0 -70 7 -90 15 -19 8 -53 15 -75 15 -21 0 -55 7 -75 15 -24 10 -70 15
-139 15 l-104 0 0 -53 0 -53 95 -32 c52 -18 110 -32 130 -32 20 0 52 -7 72
-15 22 -9 67 -15 120 -15 52 0 97 -6 120 -15 19 -8 60 -15 90 -15 29 0 70 -7
90 -15 19 -8 52 -15 72 -15 20 0 56 -6 81 -14 76 -24 133 -37 190 -45 139 -19
213 -68 269 -178 29 -58 62 -94 115 -127 16 -10 33 -31 39 -47 l11 -29 52 0
52 0 63 39 c70 42 89 68 125 169 29 81 33 218 9 275 -8 20 -15 59 -15 87 0 46
-26 144 -52 195 -6 11 -23 34 -37 50 -15 17 -36 57 -46 90 -11 33 -33 76 -50
95 -18 19 -47 58 -66 85 -18 28 -59 77 -90 110 -30 33 -67 78 -81 100 -27 43
-111 125 -128 125 -5 0 -56 44 -112 98 -57 54 -116 106 -131 115 -15 10 -53
40 -83 68 -30 27 -61 49 -70 49 -15 0 -97 46 -204 113 -30 19 -69 38 -87 42
-17 3 -51 23 -75 44 -52 46 -66 53 -145 80 -77 26 -115 27 -136 3z"/>
</g>
</svg>
