<?xml version="1.0" standalone="no"?>
<!DOCTYPE svg PUBLIC "-//W3C//DTD SVG 20010904//EN"
 "http://www.w3.org/TR/2001/REC-SVG-20010904/DTD/svg10.dtd">
<svg version="1.0" xmlns="http://www.w3.org/2000/svg"
 width="1068.000000pt" height="315.000000pt" viewBox="0 0 1068.000000 315.000000"
 preserveAspectRatio="xMidYMid meet">
<metadata>
Created by potrace 1.16, written by Peter Selinger 2001-2019
</metadata>
<g transform="translate(0.000000,315.000000) scale(0.100000,-0.100000)"
fill="#000000" stroke="none">
<path d="M0 3119 l0 -31 76 -71 c42 -40 100 -84 129 -99 29 -15 76 -49 106
-76 30 -27 69 -57 86 -66 18 -9 49 -31 69 -49 36 -31 60 -46 174 -112 29 -16
73 -44 99 -61 26 -17 67 -42 91 -54 25 -12 64 -38 88 -58 75 -60 144 -104 178
-114 19 -5 66 -39 109 -78 41 -39 83 -70 92 -70 10 0 40 -25 66 -55 34 -39 59
-57 87 -65 26 -7 49 -23 70 -50 l32 -40 38 0 c30 0 43 6 59 27 41 51 40 94 -3
154 -68 93 -76 107 -71 122 12 29 36 27 101 -11 109 -62 155 -96 172 -125 l17
-28 -37 -31 -38 -30 0 -74 c0 -48 7 -96 21 -138 l21 -65 98 -93 c123 -117 192
-170 283 -215 40 -20 86 -46 102 -58 58 -44 113 -65 165 -65 l51 0 54 51 c30
28 59 66 65 85 13 39 22 41 59 15 15 -11 61 -36 102 -56 41 -21 94 -54 119
-75 48 -40 109 -73 150 -83 14 -4 44 -22 66 -41 23 -19 73 -51 113 -71 39 -20
107 -61 151 -91 45 -30 113 -71 153 -91 40 -19 92 -52 117 -73 25 -20 68 -49
95 -63 28 -14 77 -48 110 -76 33 -28 78 -60 100 -72 22 -12 60 -38 85 -58 25
-20 85 -64 135 -96 49 -33 110 -81 135 -107 26 -27 76 -62 120 -84 41 -20 95
-53 119 -72 59 -48 220 -156 270 -182 31 -15 59 -20 126 -20 53 0 99 -6 122
-15 22 -9 67 -15 120 -15 52 0 97 -6 120 -15 46 -19 140 -19 186 0 27 11 76
15 192 15 l156 0 60 20 c111 38 251 155 338 285 l41 60 0 166 c0 130 -3 175
-16 205 -21 50 -14 122 15 163 l22 31 340 0 340 0 36 -15 c19 -8 53 -15 75
-15 21 0 55 -7 75 -15 19 -8 47 -15 62 -15 14 0 55 -14 89 -30 35 -17 75 -30
88 -30 14 0 41 -7 61 -15 19 -8 54 -15 77 -15 23 0 65 -11 96 -26 65 -30 253
-94 278 -94 24 0 243 -75 291 -99 22 -12 46 -21 53 -21 7 0 42 -14 76 -30 35
-17 75 -30 88 -30 24 0 93 -37 214 -113 30 -19 70 -38 88 -42 17 -4 53 -21 80
-39 26 -18 63 -41 82 -51 80 -40 190 -122 216 -160 79 -114 89 -124 116 -125
32 0 58 40 58 90 0 42 -44 126 -78 147 -15 9 -46 32 -70 51 -84 67 -144 104
-193 118 -27 8 -73 35 -103 59 -66 53 -94 68 -190 99 -42 14 -93 37 -113 51
-21 14 -44 25 -53 25 -8 0 -35 14 -60 30 -25 16 -56 30 -69 30 -26 0 -334 101
-379 124 -38 19 -147 56 -168 56 -9 0 -98 27 -198 59 -228 74 -254 81 -346 91
-41 4 -88 12 -105 18 -54 19 -119 33 -180 41 -34 5 -70 13 -82 19 -12 7 -54
12 -93 12 -40 0 -86 6 -107 15 -49 21 -257 21 -306 0 -20 -8 -56 -15 -79 -15
-31 -1 -66 -13 -123 -43 l-80 -42 -28 -50 -27 -50 4 -55 c4 -54 14 -102 42
-190 8 -25 14 -74 14 -110 0 -90 -30 -149 -120 -239 -79 -80 -154 -121 -218
-121 -22 0 -56 -7 -75 -15 -46 -19 -389 -22 -434 -3 -15 6 -56 14 -89 18 -39
5 -74 16 -93 29 l-31 22 0 73 c0 43 -6 89 -15 109 -8 20 -15 49 -15 64 0 15
-14 48 -30 73 -16 25 -30 51 -30 58 0 45 -114 197 -242 323 -75 74 -260 209
-287 209 -7 0 -39 16 -70 35 -64 40 -182 84 -222 85 -15 0 -43 -7 -62 -15 -20
-8 -50 -15 -66 -15 -67 0 -151 -116 -151 -209 0 -54 -7 -81 -22 -81 -20 0
-125 56 -197 105 -82 56 -153 95 -173 95 -6 0 -25 12 -40 27 -15 15 -48 38
-72 52 -115 67 -183 111 -201 131 -11 12 -46 35 -78 51 -32 16 -74 45 -95 63
-20 18 -53 41 -72 51 -19 10 -49 29 -67 42 -17 13 -47 28 -66 34 -19 5 -63 34
-96 64 -34 30 -69 55 -77 55 -18 0 -87 56 -193 156 -42 39 -85 76 -96 82 -28
15 -140 109 -192 162 -25 25 -64 56 -88 70 -23 14 -66 39 -95 55 -91 53 -227
144 -271 184 -69 60 -98 71 -189 71 l-82 0 -26 -28 c-15 -16 -39 -50 -54 -75
l-27 -47 -30 0 c-19 0 -45 13 -73 35 -24 19 -65 46 -92 60 -26 15 -66 40 -89
56 -22 16 -48 29 -57 29 -9 0 -30 17 -47 38 -19 23 -58 51 -106 74 -41 21
-112 63 -158 94 -45 31 -97 61 -115 66 -18 5 -57 30 -86 56 -29 27 -120 92
-201 147 -81 54 -150 102 -153 107 -3 4 -30 8 -60 8 l-54 0 0 -31z m2147
-1249 c46 -22 100 -55 121 -73 20 -18 56 -45 79 -59 30 -20 50 -44 73 -92 18
-35 30 -72 28 -83 -5 -27 -43 -27 -80 0 -18 14 -57 37 -86 51 -76 39 -262 220
-262 257 0 9 29 39 37 39 3 0 43 -18 90 -40z m2151 -758 c29 -11 65 -30 80
-44 15 -14 41 -33 58 -42 53 -26 168 -108 184 -130 8 -11 52 -62 97 -114 104
-116 106 -120 137 -212 31 -89 35 -189 10 -214 -20 -20 -15 -21 -91 14 -35 17
-69 30 -74 30 -11 0 -79 55 -160 128 -26 24 -63 48 -83 53 -19 5 -60 32 -89
59 -30 27 -72 55 -93 62 -29 10 -47 27 -82 78 -24 36 -55 77 -69 92 -50 53
-80 188 -53 239 l11 19 82 0 c55 0 100 -6 135 -18z"/>
<path d="M9090 1961 c-5 -11 -10 -26 -10 -34 0 -18 32 -47 53 -47 21 0 250
-114 292 -145 16 -13 50 -33 75 -45 25 -12 65 -39 90 -60 25 -20 68 -49 95
-63 28 -13 78 -50 113 -81 34 -31 69 -56 77 -56 22 0 321 -303 344 -348 11
-23 43 -60 71 -84 27 -24 50 -49 50 -56 0 -15 100 -215 129 -257 l21 -30 0
-160 0 -161 -17 -24 c-25 -36 -40 -47 -119 -86 l-72 -34 -61 0 -62 0 -25 -25
-25 -25 11 -20 c6 -12 31 -30 55 -42 l44 -21 58 12 c111 24 187 52 220 82 19
16 52 41 74 55 28 18 47 41 66 82 14 31 30 65 34 74 5 10 9 78 9 151 l0 133
-40 39 -40 39 0 58 0 58 -50 101 c-43 85 -149 235 -180 254 -6 4 -10 14 -10
23 0 22 -90 112 -111 112 -8 0 -31 20 -52 44 -33 40 -252 195 -377 268 -25 14
-54 36 -65 48 -11 12 -49 37 -85 55 -36 18 -106 60 -155 94 -57 39 -100 61
-118 61 -15 0 -44 7 -64 15 -19 8 -47 15 -62 15 -14 0 -50 11 -79 25 -65 30
-88 31 -102 6z"/>
</g>
</svg>
