<?xml version="1.0" standalone="no"?>
<!DOCTYPE svg PUBLIC "-//W3C//DTD SVG 20010904//EN"
 "http://www.w3.org/TR/2001/REC-SVG-20010904/DTD/svg10.dtd">
<svg version="1.0" xmlns="http://www.w3.org/2000/svg"
 width="327.000000pt" height="195.000000pt" viewBox="0 0 327.000000 195.000000"
 preserveAspectRatio="xMidYMid meet">
<metadata>
Created by potrace 1.16, written by Peter Selinger 2001-2019
</metadata>
<g transform="translate(0.000000,195.000000) scale(0.100000,-0.100000)"
fill="#000000" stroke="none">
<path d="M23 1924 l-23 -25 0 -84 0 -85 35 -48 c19 -27 40 -66 47 -87 9 -27
27 -48 58 -70 29 -20 56 -51 75 -87 17 -31 55 -82 85 -114 31 -33 81 -97 112
-144 64 -98 137 -170 171 -170 28 0 57 29 57 56 0 10 -13 42 -29 69 -44 78
-58 107 -78 155 -10 25 -42 71 -70 103 -29 33 -57 74 -62 93 -5 18 -27 55 -50
81 -52 62 -75 116 -61 143 15 29 70 26 170 -10 55 -19 105 -30 141 -30 l56 0
24 -26 c25 -27 89 -64 111 -64 7 0 42 -14 76 -30 35 -17 76 -30 92 -30 15 0
95 -33 177 -74 82 -40 163 -77 181 -80 17 -4 78 -39 134 -77 57 -38 110 -69
118 -69 18 0 139 -78 187 -121 19 -16 43 -29 54 -29 20 0 52 -29 97 -89 13
-17 46 -45 73 -64 28 -18 94 -76 147 -128 53 -52 116 -107 139 -123 51 -34
195 -182 217 -222 26 -48 411 -424 434 -424 11 0 24 -4 27 -10 4 -6 53 -10
115 -10 l109 0 51 50 50 51 0 225 c0 123 -4 232 -9 242 -5 9 -24 50 -42 91
-19 41 -51 95 -72 120 -20 25 -41 60 -46 77 -12 43 -76 124 -213 270 -65 68
-118 128 -118 133 0 9 -107 97 -170 139 -19 13 -53 41 -75 62 -49 47 -79 62
-197 100 -51 17 -111 43 -133 59 -51 36 -250 104 -282 96 -12 -3 -30 -16 -39
-29 l-15 -24 16 -31 c8 -17 26 -38 40 -47 33 -22 155 -64 185 -64 14 0 63 -25
109 -55 45 -31 105 -67 132 -80 27 -14 79 -54 116 -88 38 -34 84 -73 104 -87
21 -13 50 -45 67 -70 17 -25 50 -59 74 -74 45 -28 78 -71 78 -100 0 -8 16 -27
35 -42 38 -29 107 -127 150 -214 15 -30 39 -67 53 -82 46 -50 62 -118 62 -266
0 -73 -5 -142 -10 -153 -8 -14 -21 -19 -56 -19 l-46 0 -26 29 c-15 16 -38 43
-50 60 -13 17 -45 45 -71 62 -26 17 -58 47 -71 68 -63 94 -186 231 -207 231
-8 0 -46 33 -86 73 -67 66 -93 87 -212 172 -24 17 -63 47 -86 68 -52 45 -139
112 -191 147 -20 14 -49 44 -64 68 -34 54 -59 72 -99 72 -21 0 -40 9 -56 26
-13 14 -42 35 -64 46 -22 12 -54 32 -71 45 -17 13 -53 30 -80 38 -27 8 -65 26
-84 40 -43 32 -184 105 -204 105 -7 0 -82 34 -165 75 -84 41 -164 75 -179 75
-15 0 -56 14 -90 30 -35 17 -69 30 -75 30 -6 0 -23 12 -38 26 -36 35 -120 63
-187 64 -36 0 -72 9 -110 26 -31 15 -78 31 -105 35 -26 4 -60 17 -76 28 l-29
21 -74 -1 -73 -1 -22 -24z"/>
</g>
</svg>
