<?xml version="1.0" standalone="no"?>
<!DOCTYPE svg PUBLIC "-//W3C//DTD SVG 20010904//EN"
 "http://www.w3.org/TR/2001/REC-SVG-20010904/DTD/svg10.dtd">
<svg version="1.0" xmlns="http://www.w3.org/2000/svg"
 width="174.000000pt" height="252.000000pt" viewBox="0 0 174.000000 252.000000"
 preserveAspectRatio="xMidYMid meet">
<metadata>
Created by potrace 1.16, written by Peter Selinger 2001-2019
</metadata>
<g transform="translate(0.000000,252.000000) scale(0.100000,-0.100000)"
fill="#000000" stroke="none">
<path d="M0 2499 c0 -39 51 -89 129 -128 42 -21 88 -41 103 -45 14 -3 51 -29
82 -57 30 -28 71 -55 90 -60 19 -5 59 -31 88 -57 29 -27 87 -70 128 -97 41
-27 95 -68 120 -90 25 -23 59 -49 75 -60 17 -10 56 -43 87 -73 31 -29 80 -68
109 -85 38 -24 55 -41 63 -67 7 -21 25 -43 46 -57 58 -39 89 -72 98 -107 10
-35 56 -105 115 -178 45 -55 67 -106 67 -155 0 -21 12 -69 26 -108 14 -38 29
-97 34 -130 5 -33 14 -79 21 -103 l13 -43 -15 -27 c-23 -42 -51 -39 -90 8 -19
23 -52 60 -74 83 -22 22 -54 61 -70 86 l-30 46 -45 0 -44 0 -23 -34 c-13 -19
-26 -46 -30 -59 -9 -36 53 -157 99 -194 21 -17 41 -43 46 -62 10 -33 103 -177
179 -276 24 -30 60 -77 82 -105 21 -27 49 -70 61 -95 13 -25 45 -69 71 -98 27
-30 49 -58 49 -63 0 -6 17 -9 38 -7 l37 3 3 63 3 63 -20 25 c-11 14 -23 39
-26 57 -4 18 -20 46 -35 62 -45 48 -119 179 -126 222 l-6 40 47 39 c30 25 59
62 81 106 l34 68 0 72 c0 53 -8 93 -26 143 -14 39 -29 90 -34 115 -5 25 -13
63 -19 85 -6 22 -13 51 -15 65 -3 14 -21 50 -40 80 -19 30 -46 75 -59 100 -14
25 -35 54 -47 65 -12 11 -34 40 -48 65 -14 25 -45 66 -68 91 -23 25 -53 63
-66 85 -14 21 -46 57 -73 79 -26 22 -68 61 -93 86 -26 26 -59 49 -74 53 -28 6
-63 40 -100 96 -16 24 -37 39 -67 49 -28 9 -67 36 -110 76 -36 34 -89 74 -117
88 -28 14 -75 48 -105 75 -52 48 -125 92 -151 92 -7 0 -33 14 -58 30 -25 16
-53 30 -63 30 -10 0 -29 11 -43 25 l-25 25 -94 0 -95 0 0 -21z"/>
</g>
</svg>
