<?xml version="1.0" standalone="no"?>
<!DOCTYPE svg PUBLIC "-//W3C//DTD SVG 20010904//EN"
 "http://www.w3.org/TR/2001/REC-SVG-20010904/DTD/svg10.dtd">
<svg version="1.0" xmlns="http://www.w3.org/2000/svg"
 width="528.000000pt" height="174.000000pt" viewBox="0 0 528.000000 174.000000"
 preserveAspectRatio="xMidYMid meet">
<metadata>
Created by potrace 1.16, written by Peter Selinger 2001-2019
</metadata>
<g transform="translate(0.000000,174.000000) scale(0.100000,-0.100000)"
fill="#000000" stroke="none">
<path d="M3442 1717 c-44 -47 -19 -77 64 -77 30 0 97 -17 181 -45 73 -25 143
-45 155 -45 13 0 43 -14 68 -30 33 -22 57 -30 88 -30 53 0 138 -37 189 -83 39
-36 93 -67 114 -67 17 0 104 -55 159 -100 25 -21 69 -50 98 -65 29 -15 65 -43
79 -61 14 -19 48 -46 76 -62 29 -15 64 -46 81 -69 17 -24 49 -55 71 -69 49
-33 62 -49 75 -96 7 -24 25 -49 50 -69 22 -18 40 -39 40 -46 0 -8 8 -30 19
-51 l18 -37 -2 -116 c-2 -135 0 -132 -109 -229 -58 -51 -91 -72 -139 -89 l-63
-21 -258 0 -257 0 -36 15 c-19 8 -53 15 -75 15 -21 0 -55 7 -75 15 -19 8 -53
15 -75 15 -21 0 -55 7 -75 15 -19 8 -59 15 -87 15 -28 0 -71 6 -96 14 -103 33
-141 39 -270 46 -74 4 -148 12 -165 18 -51 18 -118 33 -176 41 -56 6 -64 11
-127 63 l-33 28 -135 0 c-97 0 -145 4 -171 15 -19 8 -53 15 -75 15 -21 0 -55
7 -75 15 -27 12 -81 15 -239 15 l-204 0 -41 17 -41 16 -47 -16 c-25 -10 -57
-17 -71 -17 -26 0 -123 -61 -152 -95 l-17 -20 -23 14 c-13 8 -48 28 -78 44
-30 17 -76 47 -102 69 -26 21 -96 63 -155 93 -60 30 -130 72 -157 94 -26 23
-56 41 -65 41 -9 0 -52 24 -96 53 -44 29 -100 65 -125 79 -25 15 -67 50 -95
78 -50 51 -97 82 -145 93 -14 4 -43 22 -65 40 -22 19 -77 53 -122 76 -54 26
-107 64 -152 106 -50 48 -82 69 -118 80 l-48 14 -47 -14 c-79 -23 -88 -31 -88
-75 0 -40 33 -96 116 -200 17 -21 67 -92 110 -157 43 -65 100 -142 126 -172
58 -63 84 -117 67 -137 -7 -8 -31 -14 -58 -14 l-46 0 -78 -81 c-42 -45 -77
-90 -77 -100 0 -34 26 -72 102 -146 49 -47 97 -83 145 -107 l73 -36 111 0 112
0 59 58 58 59 0 46 c0 74 -63 248 -113 312 -85 108 -117 151 -159 215 -23 36
-53 74 -65 85 -23 21 -36 85 -18 92 6 2 51 -24 100 -57 50 -33 96 -60 104 -60
27 0 80 -42 120 -95 23 -30 49 -55 57 -55 20 0 160 -84 199 -119 17 -15 49
-33 73 -40 23 -6 66 -31 95 -54 28 -24 86 -65 127 -92 41 -27 88 -61 105 -76
36 -31 107 -69 131 -69 9 0 33 -17 53 -39 20 -21 65 -62 100 -90 l64 -51 40 0
40 0 44 45 45 44 -3 85 c-2 47 0 89 4 93 4 4 130 6 280 4 206 -2 280 -6 306
-17 18 -8 58 -14 88 -14 29 0 70 -7 90 -15 19 -8 53 -15 75 -15 21 0 55 -7 75
-15 19 -8 59 -15 87 -15 28 0 71 -6 96 -14 60 -19 125 -35 182 -46 26 -5 56
-13 67 -19 11 -6 38 -11 61 -11 22 0 57 -7 77 -15 19 -8 53 -15 75 -15 21 0
55 -7 75 -15 22 -9 67 -15 117 -15 44 0 101 -6 126 -14 76 -24 132 -37 195
-46 33 -5 92 -20 130 -34 39 -14 82 -26 97 -26 15 0 30 -4 33 -10 8 -14 492
-14 500 0 3 6 21 10 38 10 19 0 86 28 167 68 l134 68 42 60 c23 32 52 91 65
129 12 39 26 74 31 80 11 13 10 193 -2 200 -5 3 -10 20 -10 36 0 42 -65 166
-115 220 -23 25 -54 63 -68 85 -27 42 -55 70 -102 99 -16 10 -57 44 -90 76
-33 31 -83 68 -111 82 -28 14 -75 48 -105 75 -30 27 -74 59 -99 72 -25 13 -58
33 -75 45 -52 39 -173 95 -206 95 -25 0 -41 10 -70 41 l-38 42 -98 33 c-58 20
-119 33 -148 34 -27 0 -70 6 -95 14 -82 26 -135 38 -185 43 -27 3 -54 9 -59
14 -6 5 -38 9 -71 9 l-62 0 -21 -23z m-2914 -1293 c31 -21 56 -82 41 -100 -25
-31 -94 -2 -137 56 -19 25 -21 34 -12 46 16 19 80 18 108 -2z"/>
</g>
</svg>
