<?xml version="1.0" standalone="no"?>
<!DOCTYPE svg PUBLIC "-//W3C//DTD SVG 20010904//EN"
 "http://www.w3.org/TR/2001/REC-SVG-20010904/DTD/svg10.dtd">
<svg version="1.0" xmlns="http://www.w3.org/2000/svg"
 width="1065.000000pt" height="231.000000pt" viewBox="0 0 1065.000000 231.000000"
 preserveAspectRatio="xMidYMid meet">
<metadata>
Created by potrace 1.16, written by Peter Selinger 2001-2019
</metadata>
<g transform="translate(0.000000,231.000000) scale(0.100000,-0.100000)"
fill="#000000" stroke="none">
<path d="M0 2278 l0 -33 48 -40 c26 -22 66 -53 90 -69 24 -16 62 -46 85 -66
23 -21 87 -61 142 -89 118 -62 174 -95 301 -178 52 -35 129 -81 172 -104 42
-22 102 -56 132 -75 30 -19 66 -37 80 -41 36 -9 181 -97 210 -128 13 -14 30
-25 38 -25 27 0 138 -58 227 -119 49 -33 97 -61 105 -61 8 0 32 -11 53 -25 47
-32 224 -120 257 -128 14 -4 43 -22 65 -40 39 -33 174 -107 195 -107 24 0 97
-41 144 -79 26 -23 55 -41 64 -41 28 0 180 -78 218 -113 22 -19 82 -56 134
-82 52 -27 109 -58 125 -71 17 -12 86 -51 154 -85 69 -34 141 -77 160 -94 37
-33 92 -65 111 -65 7 0 35 -20 63 -45 28 -24 78 -59 111 -76 62 -33 161 -104
185 -133 9 -11 30 -16 66 -16 l54 0 20 26 c11 14 23 34 26 44 10 31 -22 78
-78 113 -28 19 -58 42 -66 51 -17 20 -83 56 -104 56 -8 0 -39 18 -71 41 -43
31 -56 46 -54 62 5 33 47 33 148 -2 48 -17 99 -31 112 -31 12 0 43 -14 68 -30
l45 -30 55 0 c30 0 75 -6 100 -14 76 -24 133 -37 190 -45 30 -4 91 -19 135
-33 112 -36 161 -48 230 -57 34 -5 70 -13 82 -19 12 -7 60 -12 108 -12 53 0
99 -6 122 -15 20 -8 66 -15 105 -15 38 0 84 -7 105 -15 22 -9 67 -15 120 -15
52 0 97 -6 120 -15 l35 -15 300 0 c216 0 305 3 321 12 12 7 69 15 127 19 101
6 142 14 240 45 25 8 60 14 78 14 68 0 221 65 334 142 l59 40 40 79 c21 43 39
84 39 92 0 7 15 44 34 82 35 75 76 123 110 130 42 9 171 27 191 26 78 -2 287
-24 320 -32 22 -6 67 -14 100 -19 33 -5 92 -20 130 -34 39 -14 87 -26 108 -26
21 0 54 -7 74 -15 19 -8 52 -15 72 -15 45 0 157 -38 250 -84 39 -20 77 -36 85
-36 8 0 34 -28 58 -61 73 -105 148 -178 258 -251 128 -87 287 -168 328 -168
17 0 34 -5 37 -10 8 -13 102 -13 110 0 3 5 14 10 24 10 24 0 45 27 60 77 l12
43 -17 32 c-9 18 -41 60 -70 93 -30 33 -54 63 -54 67 0 16 41 18 75 3 21 -8
61 -15 89 -15 28 0 71 -6 96 -14 105 -33 143 -39 285 -45 94 -4 159 -11 173
-19 18 -10 37 -11 95 -1 39 6 104 14 142 18 39 4 83 13 98 19 16 7 44 12 63
12 53 0 148 36 213 80 53 36 128 111 194 193 l27 35 0 171 c0 94 -4 179 -10
189 -5 9 -20 50 -34 89 -29 87 -59 140 -121 212 -25 30 -55 70 -65 90 -27 51
-149 165 -244 229 -44 30 -92 64 -106 76 -46 41 -135 94 -167 101 -17 3 -51
23 -75 44 -24 21 -52 43 -63 49 -35 18 -143 52 -167 52 -13 0 -52 14 -86 30
-35 17 -69 30 -75 30 -7 0 -41 14 -75 30 -79 37 -96 37 -133 1 -33 -33 -37
-70 -11 -93 27 -24 79 -48 104 -48 37 0 127 -35 193 -74 33 -20 76 -41 96 -46
48 -13 67 -24 161 -87 42 -28 91 -59 110 -69 18 -9 51 -36 73 -60 22 -23 64
-55 93 -69 29 -15 61 -39 70 -53 9 -14 45 -54 79 -89 34 -34 74 -86 89 -115
15 -29 43 -72 63 -94 39 -45 81 -157 81 -217 0 -19 7 -51 15 -70 23 -55 18
-105 -15 -175 -17 -35 -30 -70 -30 -78 0 -7 -19 -26 -42 -40 -24 -15 -65 -42
-93 -60 -27 -18 -84 -44 -125 -58 l-75 -26 -198 0 c-153 0 -206 3 -234 15 -19
8 -53 15 -75 15 -21 0 -55 7 -75 15 -19 8 -52 15 -72 15 -20 0 -56 6 -81 14
-60 19 -125 35 -182 46 -26 5 -56 13 -67 19 -11 6 -44 11 -73 11 -55 0 -134
23 -226 66 -29 13 -64 24 -78 24 -13 0 -41 7 -61 15 -23 10 -69 15 -135 15
-65 0 -111 5 -135 15 -19 8 -45 15 -57 15 -24 0 -241 72 -284 94 -50 26 -150
56 -187 56 -20 0 -52 7 -72 15 -23 10 -69 15 -135 15 -65 0 -111 5 -135 15
-52 22 -464 22 -516 0 -20 -8 -57 -15 -81 -15 l-45 0 -36 -32 c-41 -36 -115
-174 -115 -215 -1 -46 -36 -111 -93 -167 -48 -48 -126 -96 -157 -96 -6 0 -34
-12 -62 -26 -28 -14 -71 -29 -97 -34 -56 -11 -121 -27 -181 -46 -36 -11 -131
-14 -468 -14 l-423 0 -36 15 c-19 8 -60 15 -90 15 -29 0 -70 7 -90 15 -19 8
-65 15 -102 15 -36 0 -86 6 -111 14 -78 25 -133 37 -195 45 -34 5 -70 13 -82
19 -12 7 -59 12 -105 12 l-84 0 -84 30 c-47 16 -94 30 -104 30 -11 0 -80 20
-153 45 -73 25 -147 45 -165 45 -34 0 -155 38 -207 64 -16 9 -93 36 -171 62
l-142 47 -54 -13 c-34 -8 -63 -23 -80 -41 -15 -16 -32 -29 -37 -29 -5 0 -38
14 -74 30 -35 17 -70 30 -77 30 -7 0 -33 15 -56 33 -112 84 -154 109 -217 129
-38 11 -81 33 -98 48 -16 15 -45 35 -64 45 -19 9 -52 30 -74 46 -22 16 -47 29
-56 29 -9 0 -29 9 -46 21 -43 29 -235 125 -265 132 -14 4 -44 22 -67 41 -41
36 -231 136 -256 136 -7 0 -24 12 -38 26 -24 26 -89 64 -110 64 -32 0 -171 89
-208 134 -7 9 -21 16 -30 16 -22 0 -194 84 -234 114 -49 37 -113 66 -145 66
-18 0 -38 10 -53 26 -13 14 -42 35 -64 46 -22 12 -54 32 -72 45 -17 13 -47 28
-65 34 -19 5 -52 24 -74 43 -21 18 -94 61 -162 95 -67 34 -139 76 -160 95 -20
18 -83 57 -140 86 -57 29 -109 61 -115 71 -9 15 -24 19 -64 19 l-53 0 0 -32z
m8850 -1978 c34 -17 60 -45 60 -64 0 -11 -41 -6 -70 9 -28 15 -50 42 -50 64 0
16 16 13 60 -9z"/>
</g>
</svg>
