<?xml version="1.0" standalone="no"?>
<!DOCTYPE svg PUBLIC "-//W3C//DTD SVG 20010904//EN"
 "http://www.w3.org/TR/2001/REC-SVG-20010904/DTD/svg10.dtd">
<svg version="1.0" xmlns="http://www.w3.org/2000/svg"
 width="360.000000pt" height="381.000000pt" viewBox="0 0 360.000000 381.000000"
 preserveAspectRatio="xMidYMid meet">
<metadata>
Created by potrace 1.16, written by Peter Selinger 2001-2019
</metadata>
<g transform="translate(0.000000,381.000000) scale(0.100000,-0.100000)"
fill="#000000" stroke="none">
<path d="M1985 3800 c-3 -5 -30 -10 -60 -10 -66 0 -85 -7 -85 -31 0 -25 38
-49 80 -49 19 -1 46 -7 60 -15 15 -9 54 -14 100 -15 l75 0 45 -30 c25 -16 56
-30 70 -30 38 0 227 -67 268 -95 20 -14 50 -25 66 -25 40 0 188 -73 235 -115
21 -19 45 -35 52 -35 8 0 46 -33 85 -72 39 -40 92 -85 117 -100 33 -19 47 -34
47 -49 0 -13 18 -39 43 -62 62 -60 116 -135 131 -187 8 -25 32 -83 55 -129
l41 -85 0 -161 0 -161 -16 -22 c-8 -12 -28 -29 -45 -37 -16 -9 -40 -33 -54
-55 -32 -50 -63 -79 -95 -87 -14 -3 -44 -23 -68 -44 -24 -21 -58 -41 -75 -44
-18 -4 -49 -18 -69 -31 -24 -15 -51 -23 -75 -23 -52 1 -162 -15 -196 -29 -19
-8 -108 -12 -261 -12 l-232 0 -29 30 c-16 16 -36 30 -45 30 -25 0 -40 21 -40
57 0 25 -11 45 -50 88 -27 30 -60 72 -73 92 -46 73 -195 188 -328 254 l-99 49
-81 0 -81 0 -29 -29 -29 -29 0 -77 c0 -120 43 -233 107 -280 21 -15 56 -45 78
-66 46 -44 291 -169 331 -169 64 0 114 -59 114 -135 0 -99 -30 -106 -168 -40
-59 28 -107 45 -130 45 -21 0 -58 8 -84 17 l-47 17 -51 -24 c-28 -13 -73 -47
-100 -76 l-50 -53 0 -39 c0 -43 12 -57 75 -91 22 -12 65 -38 95 -57 30 -19 71
-39 90 -44 19 -5 59 -21 88 -35 66 -32 110 -32 211 1 l81 26 33 -13 c58 -25
163 -100 186 -135 13 -19 46 -50 72 -70 60 -43 108 -102 143 -171 14 -29 40
-63 57 -75 17 -13 43 -43 57 -68 14 -25 47 -68 72 -96 50 -56 90 -152 90 -216
0 -20 7 -52 15 -71 15 -36 20 -141 9 -171 -6 -17 -34 -23 -34 -8 0 5 -15 25
-34 44 -19 19 -49 64 -66 99 -18 35 -58 91 -89 125 -31 34 -72 79 -91 100 -20
21 -59 58 -88 82 -29 24 -71 68 -94 98 -32 42 -77 78 -202 162 -88 59 -174
119 -191 133 -52 45 -170 99 -217 99 -31 0 -56 8 -88 30 -25 16 -52 30 -60 30
-8 0 -44 14 -78 30 -47 22 -79 30 -118 30 -30 0 -71 7 -91 15 -19 8 -54 15
-77 15 -29 0 -54 9 -86 30 l-45 30 -58 0 c-32 0 -74 7 -94 15 -51 22 -435 22
-486 0 -20 -8 -61 -15 -92 -15 l-55 0 -91 -45 -90 -46 3 -27 c4 -31 63 -76 87
-66 9 3 36 10 61 14 56 11 121 27 180 46 34 11 105 14 285 14 l240 0 72 -25
c39 -13 90 -33 112 -44 22 -12 51 -21 64 -21 12 0 61 -13 107 -30 47 -16 94
-30 105 -30 32 0 134 -39 174 -66 19 -13 42 -24 50 -24 28 0 207 -93 254 -132
26 -22 62 -44 80 -49 18 -5 53 -26 80 -46 26 -21 75 -58 109 -83 77 -57 112
-91 168 -169 25 -34 69 -90 99 -124 29 -34 66 -87 82 -117 15 -30 37 -68 48
-85 12 -16 21 -37 21 -45 0 -8 14 -35 30 -60 17 -26 30 -58 30 -76 0 -22 12
-47 40 -80 22 -27 40 -52 40 -56 0 -5 35 -8 78 -8 l79 0 41 38 c23 22 42 47
42 57 0 10 14 40 30 66 l31 47 -4 159 c-2 87 -9 178 -16 203 -53 185 -65 211
-121 280 -21 25 -48 65 -60 90 -13 25 -35 59 -50 76 -15 17 -52 70 -84 117
-32 49 -69 93 -85 102 -16 8 -53 36 -82 62 -30 27 -72 61 -94 76 -59 40 -128
107 -159 154 l-28 42 31 90 c17 49 31 100 31 113 0 47 4 48 350 48 l325 0 85
30 c46 17 96 30 111 30 14 0 44 13 65 28 46 33 106 62 127 62 8 0 37 18 63 41
27 22 61 43 77 46 16 3 40 22 59 47 18 22 56 68 85 100 l53 59 0 239 c0 131
-4 246 -9 256 -5 9 -17 37 -27 61 -10 24 -36 65 -56 90 -21 25 -43 62 -48 81
-5 20 -26 51 -45 70 -20 19 -51 58 -70 85 -35 53 -146 165 -164 165 -5 0 -60
47 -120 105 l-110 105 -33 0 c-18 0 -46 9 -63 21 -54 36 -184 99 -207 99 -12
0 -82 20 -155 45 -73 25 -142 45 -154 45 -11 0 -50 14 -86 30 -35 17 -71 30
-78 30 -8 0 -17 5 -20 10 -3 6 -42 10 -85 10 -43 0 -82 -4 -85 -10z m-388
-1440 c21 -6 63 -28 93 -48 43 -29 62 -51 90 -104 19 -37 43 -76 54 -87 l19
-21 -15 -5 c-9 -4 -32 5 -53 19 -21 14 -45 26 -54 26 -9 0 -45 19 -81 43 -47
30 -68 51 -75 74 -6 18 -21 43 -33 56 -31 32 -28 75 4 63 7 -3 30 -10 51 -16z
m133 -775 l12 -15 -13 0 c-26 0 -59 12 -59 21 0 15 47 10 60 -6z"/>
</g>
</svg>
