<?xml version="1.0" standalone="no"?>
<!DOCTYPE svg PUBLIC "-//W3C//DTD SVG 20010904//EN"
 "http://www.w3.org/TR/2001/REC-SVG-20010904/DTD/svg10.dtd">
<svg version="1.0" xmlns="http://www.w3.org/2000/svg"
 width="723.000000pt" height="315.000000pt" viewBox="0 0 723.000000 315.000000"
 preserveAspectRatio="xMidYMid meet">
<metadata>
Created by potrace 1.16, written by Peter Selinger 2001-2019
</metadata>
<g transform="translate(0.000000,315.000000) scale(0.100000,-0.100000)"
fill="#000000" stroke="none">
<path d="M7 3143 c-15 -14 -6 -93 14 -125 87 -140 125 -191 176 -237 32 -29
72 -76 89 -105 27 -45 42 -58 104 -86 8 -4 18 -21 22 -37 5 -20 34 -55 78 -96
39 -36 70 -71 70 -79 0 -44 91 -65 123 -30 10 10 17 35 17 54 l0 36 -40 32
c-23 18 -50 51 -61 74 -11 22 -38 57 -59 76 -71 65 -223 245 -241 287 -11 22
-16 48 -13 57 10 25 51 30 97 12 24 -9 51 -16 62 -16 10 0 60 -13 110 -29 98
-32 158 -48 220 -60 22 -5 66 -24 97 -43 32 -20 97 -48 145 -63 49 -15 108
-38 133 -50 25 -12 60 -26 78 -30 17 -3 54 -22 80 -40 27 -18 80 -49 119 -68
38 -20 107 -61 153 -93 46 -31 98 -61 117 -66 18 -5 43 -23 56 -40 27 -37 124
-108 148 -108 10 0 27 -14 39 -31 12 -16 41 -42 63 -56 23 -14 82 -64 132
-112 49 -47 124 -113 165 -146 41 -33 93 -85 117 -115 23 -30 53 -68 66 -85
45 -56 120 -170 133 -202 8 -18 14 -46 14 -63 0 -21 9 -41 29 -61 l29 -29 82
0 81 0 47 24 c68 35 153 139 174 212 13 47 31 52 75 18 78 -60 340 -230 374
-243 44 -16 45 -17 121 -78 63 -51 91 -91 103 -146 7 -34 32 -35 45 -2 5 14
14 25 20 25 19 0 64 -27 85 -50 11 -12 65 -45 120 -72 55 -28 121 -67 146 -89
26 -21 68 -48 95 -60 65 -29 63 -28 128 -80 31 -25 86 -60 122 -78 36 -18 82
-48 102 -66 21 -18 66 -47 102 -65 36 -18 79 -43 95 -55 17 -13 53 -35 80 -49
79 -43 181 -109 212 -138 29 -27 202 -118 225 -118 7 0 33 -14 58 -30 25 -16
52 -30 60 -30 8 0 44 -14 78 -30 35 -17 75 -30 89 -30 13 0 49 -12 80 -26 77
-35 231 -81 306 -91 20 -3 40 -9 43 -14 7 -13 611 -12 619 1 3 6 21 10 39 10
21 0 48 11 73 29 22 16 58 38 79 49 22 11 50 32 63 46 14 14 33 26 44 26 24 0
77 53 77 77 0 24 19 43 42 43 22 0 95 97 122 160 10 25 22 53 27 62 12 24 12
285 -1 293 -6 3 -10 26 -10 51 0 52 -53 166 -106 228 -18 21 -39 57 -46 79
-10 32 -25 49 -65 76 -28 20 -65 57 -83 83 -22 34 -46 56 -83 74 -29 14 -73
44 -99 65 -46 39 -235 139 -261 139 -7 0 -26 13 -42 30 -16 16 -36 30 -44 30
-9 0 -45 14 -79 30 -35 17 -76 30 -90 30 -15 0 -52 12 -82 26 -85 39 -256 94
-295 94 -20 0 -52 7 -72 15 -55 23 -203 20 -253 -5 -75 -38 -39 -90 63 -90 31
0 74 -7 94 -15 19 -8 53 -15 75 -15 21 0 55 -7 75 -15 19 -8 45 -15 56 -15 71
0 415 -149 587 -255 175 -107 218 -140 249 -187 18 -27 45 -54 59 -59 64 -25
77 -36 90 -73 7 -21 35 -64 64 -95 55 -60 87 -120 88 -162 0 -15 7 -43 15 -62
20 -49 20 -215 0 -264 -8 -19 -15 -47 -15 -61 0 -49 -80 -148 -186 -230 -60
-46 -166 -92 -212 -92 -22 0 -56 -7 -75 -15 -20 -8 -61 -15 -90 -15 -30 0 -72
-7 -92 -16 l-38 -16 -41 16 c-28 11 -74 16 -136 16 -54 0 -114 6 -140 14 -77
24 -133 37 -190 45 -35 4 -70 17 -95 34 -22 15 -46 27 -55 27 -30 1 -99 39
-116 64 l-17 26 18 46 17 45 -22 70 -23 70 -71 63 c-39 35 -85 71 -103 80 -73
37 -193 4 -249 -69 -42 -55 -82 -46 -224 51 -80 54 -152 94 -171 94 -6 0 -32
19 -57 41 -56 49 -133 95 -183 109 -19 5 -53 25 -75 43 -21 19 -73 51 -114 72
-41 20 -95 54 -120 75 -51 42 -111 74 -156 84 -17 4 -56 28 -85 53 -30 25 -98
75 -153 111 -54 36 -113 77 -130 92 -17 15 -47 35 -66 45 -56 28 -375 243
-422 284 -24 21 -62 48 -86 60 -23 12 -72 50 -110 84 -37 35 -101 85 -142 112
-41 27 -88 61 -105 76 -16 14 -46 34 -65 44 -19 10 -56 40 -81 66 l-47 49 -40
0 c-40 0 -58 -13 -82 -58 -19 -39 5 -77 92 -145 118 -93 139 -107 167 -114 14
-3 51 -31 83 -62 31 -31 71 -68 87 -83 22 -18 31 -36 31 -56 0 -16 7 -46 15
-65 30 -73 12 -137 -38 -137 -22 0 -75 54 -128 130 -13 19 -46 59 -72 89 -26
29 -54 66 -62 82 -8 15 -40 44 -70 64 -30 20 -70 58 -90 85 -19 26 -47 56 -62
66 -15 9 -48 36 -73 59 -25 22 -58 49 -75 60 -16 10 -50 37 -75 60 -25 22 -58
49 -75 60 -16 10 -50 37 -75 60 -25 24 -65 53 -90 65 -25 12 -65 39 -90 60
-25 21 -87 58 -137 83 -50 25 -111 63 -135 85 -25 21 -60 44 -79 51 -19 7 -56
22 -84 33 -27 11 -66 26 -86 34 -20 7 -58 27 -85 44 -55 34 -176 79 -212 80
-31 0 -139 50 -193 89 -32 23 -53 31 -86 31 -24 0 -60 7 -80 15 -19 8 -52 15
-72 15 -20 0 -75 13 -121 30 -47 16 -104 30 -127 30 -23 0 -45 5 -48 10 -7 11
-218 14 -228 3z m5331 -2609 c26 -30 27 -38 6 -58 -23 -23 -61 -19 -89 9 -28
27 -30 37 -14 67 14 27 65 18 97 -18z"/>
</g>
</svg>
