<?xml version="1.0" standalone="no"?>
<!DOCTYPE svg PUBLIC "-//W3C//DTD SVG 20010904//EN"
 "http://www.w3.org/TR/2001/REC-SVG-20010904/DTD/svg10.dtd">
<svg version="1.0" xmlns="http://www.w3.org/2000/svg"
 width="708.000000pt" height="204.000000pt" viewBox="0 0 708.000000 204.000000"
 preserveAspectRatio="xMidYMid meet">
<metadata>
Created by potrace 1.16, written by Peter Selinger 2001-2019
</metadata>
<g transform="translate(0.000000,204.000000) scale(0.100000,-0.100000)"
fill="#000000" stroke="none">
<path d="M5690 2019 c0 -25 52 -79 77 -79 10 0 38 -14 63 -30 25 -16 52 -30
60 -30 21 0 195 -85 233 -114 18 -13 61 -39 96 -56 56 -29 106 -70 223 -188
107 -107 159 -165 174 -194 9 -18 38 -54 64 -79 29 -29 51 -59 55 -79 4 -19
27 -74 51 -124 24 -49 44 -102 44 -117 0 -14 7 -43 15 -62 10 -24 15 -70 15
-134 l0 -98 -29 -62 c-43 -90 -104 -166 -159 -197 -26 -15 -66 -43 -90 -61
-26 -21 -55 -35 -72 -35 -15 0 -44 -7 -63 -15 -52 -21 -362 -21 -414 0 -19 8
-53 15 -75 15 -21 0 -55 7 -75 15 -19 8 -47 15 -62 15 -14 0 -55 14 -89 30
-35 17 -75 30 -88 30 -14 0 -41 7 -61 15 -19 8 -48 15 -64 15 -33 0 -208 88
-223 112 -7 12 -7 29 3 60 24 78 24 129 1 198 -12 36 -31 76 -43 88 -38 41
-152 112 -180 112 -15 0 -45 7 -68 17 l-41 16 -47 -16 c-25 -10 -58 -17 -74
-17 l-27 0 -46 -62 -45 -62 2 -77 c1 -42 -1 -81 -5 -88 -11 -17 -150 -14 -193
4 l-35 15 -715 0 -714 0 -36 15 -35 15 -415 0 -414 0 -36 15 c-26 11 -76 15
-195 15 -118 0 -168 4 -195 15 -27 12 -79 15 -225 15 -145 0 -197 3 -225 15
-26 11 -76 15 -195 15 -118 0 -168 4 -195 15 -28 12 -86 15 -285 15 -198 0
-256 3 -285 15 -19 8 -53 15 -75 15 -21 0 -55 7 -75 15 -19 8 -51 15 -71 15
l-35 0 -39 -42 c-28 -30 -38 -50 -38 -74 0 -18 5 -36 10 -39 6 -3 10 -14 10
-24 0 -10 21 -45 48 -79 26 -33 67 -88 92 -122 43 -59 141 -171 256 -292 30
-32 54 -67 54 -78 0 -10 25 -47 55 -81 30 -34 55 -65 55 -70 0 -5 27 -9 60 -9
l60 0 0 33 c0 19 -12 50 -30 77 -16 25 -30 52 -30 61 0 8 -12 26 -26 40 -14
13 -38 44 -52 69 -60 103 -165 251 -192 270 -16 11 -43 49 -60 84 l-32 64 11
21 12 21 55 0 c30 0 71 -7 91 -15 23 -10 69 -15 135 -15 65 0 111 -5 135 -15
27 -12 79 -15 225 -15 145 0 197 -3 225 -15 l35 -15 414 0 c308 0 420 -3 441
-12 19 -9 130 -15 363 -20 184 -3 355 -9 380 -13 25 -3 212 -9 415 -13 266 -5
376 -10 392 -19 16 -10 99 -13 318 -13 l296 0 36 -15 c26 -11 76 -15 195 -15
118 0 168 -4 195 -15 25 -11 72 -15 162 -15 l127 0 58 -21 c32 -11 75 -31 95
-45 19 -13 42 -24 49 -24 8 0 43 -14 79 -30 35 -17 70 -30 77 -30 7 0 50 -18
97 -41 108 -52 243 -94 349 -108 30 -4 71 -12 90 -18 76 -24 128 -35 200 -42
41 -4 85 -13 98 -20 16 -8 64 -11 165 -8 175 5 231 19 434 108 43 19 137 87
181 131 45 45 113 139 133 186 12 26 26 55 30 64 11 23 12 333 1 356 -5 9 -50
102 -101 205 l-93 189 -58 56 c-31 31 -67 75 -78 98 -24 47 -37 59 -74 68 -15
3 -35 18 -45 33 -47 71 -290 263 -333 263 -8 0 -57 20 -108 45 -52 25 -99 45
-105 45 -7 0 -32 14 -57 30 -25 16 -53 30 -62 30 -9 0 -20 5 -23 10 -4 6 -57
10 -126 10 l-119 0 0 -21z m-602 -1246 c28 -41 33 -62 22 -84 l-11 -19 -59 0
-58 0 -31 26 c-43 36 -54 59 -41 84 l11 20 74 0 74 0 19 -27z"/>
</g>
</svg>
