<?xml version="1.0" standalone="no"?>
<!DOCTYPE svg PUBLIC "-//W3C//DTD SVG 20010904//EN"
 "http://www.w3.org/TR/2001/REC-SVG-20010904/DTD/svg10.dtd">
<svg version="1.0" xmlns="http://www.w3.org/2000/svg"
 width="816.000000pt" height="216.000000pt" viewBox="0 0 816.000000 216.000000"
 preserveAspectRatio="xMidYMid meet">
<metadata>
Created by potrace 1.16, written by Peter Selinger 2001-2019
</metadata>
<g transform="translate(0.000000,216.000000) scale(0.100000,-0.100000)"
fill="#000000" stroke="none">
<path d="M6747 2142 c-25 -28 -21 -47 18 -81 l36 -31 47 0 c31 0 68 -10 108
-29 34 -16 75 -32 93 -36 17 -3 54 -22 82 -42 28 -19 85 -52 127 -73 43 -21
104 -61 137 -89 33 -28 81 -62 107 -76 26 -13 55 -37 65 -52 10 -14 38 -45 62
-69 92 -88 104 -101 158 -164 66 -77 92 -130 93 -186 0 -23 7 -58 15 -77 8
-20 15 -66 15 -102 0 -36 -7 -82 -15 -102 -8 -19 -15 -61 -15 -92 0 -73 -34
-145 -97 -209 -26 -27 -56 -61 -66 -75 -10 -15 -30 -30 -45 -33 -15 -4 -48
-19 -73 -35 -25 -16 -57 -29 -71 -29 -14 0 -42 -7 -61 -15 -20 -8 -54 -15 -75
-15 -22 0 -56 -7 -75 -15 -46 -19 -98 -19 -144 0 -19 8 -53 15 -75 15 -21 0
-55 7 -75 15 -19 8 -44 15 -55 15 -42 0 -354 111 -396 141 -23 17 -55 34 -71
39 -47 13 -159 92 -177 125 l-16 31 16 38 c24 58 20 89 -24 176 l-40 79 -47
31 c-27 18 -63 52 -81 76 -26 35 -39 44 -63 44 -16 0 -46 7 -66 15 -19 8 -64
15 -99 15 l-64 0 -39 -36 c-28 -25 -44 -51 -55 -88 l-15 -52 13 -44 c8 -25 24
-67 35 -94 l22 -49 -16 -16 -15 -15 -42 13 c-24 7 -77 16 -118 20 -41 4 -85
13 -97 19 -12 7 -40 12 -62 12 -22 0 -52 5 -68 12 -15 7 -86 15 -158 19 -154
8 -314 26 -370 41 -22 5 -80 13 -130 17 -49 4 -97 11 -105 16 -8 5 -51 14 -95
18 -82 9 -103 10 -330 25 -71 4 -140 13 -152 20 -15 8 -84 12 -228 12 -160 0
-214 3 -242 15 -19 8 -47 15 -62 15 -14 0 -43 11 -62 25 -20 13 -65 38 -99 56
-35 18 -79 46 -99 64 -20 18 -52 40 -71 50 -19 10 -49 29 -67 42 -17 13 -47
29 -67 34 -22 6 -46 24 -63 45 -16 22 -54 49 -97 71 -39 19 -91 52 -116 72
-25 20 -58 45 -75 56 -16 10 -67 54 -112 97 l-82 78 -54 0 c-79 0 -108 -39
-117 -161 -7 -81 -35 -139 -68 -139 -10 0 -34 -11 -53 -24 -20 -14 -63 -34
-95 -45 l-58 -21 -228 0 c-181 0 -236 3 -265 15 -19 8 -60 15 -90 15 -29 0
-70 7 -90 15 -19 8 -60 15 -90 15 -29 0 -70 7 -90 15 -19 8 -53 15 -75 15 -21
0 -55 7 -75 15 -19 8 -52 15 -72 15 -36 0 -156 37 -208 64 -43 22 -240 86
-266 86 -12 0 -35 9 -52 21 -44 29 -235 125 -267 133 -14 3 -41 24 -58 46
l-32 40 -49 0 -49 0 0 -55 0 -54 19 -11 c11 -5 40 -27 64 -48 24 -20 86 -57
138 -81 52 -24 106 -49 122 -57 15 -8 39 -20 55 -28 48 -25 134 -57 278 -106
78 -27 160 -58 182 -69 23 -12 53 -21 67 -21 14 0 42 -7 62 -15 19 -8 53 -15
75 -15 21 0 55 -7 75 -15 22 -9 67 -15 117 -15 44 0 101 -6 126 -14 107 -34
144 -39 300 -45 103 -4 173 -11 187 -18 32 -19 221 -17 266 2 20 8 48 15 62
15 35 0 285 124 312 156 13 14 23 34 23 44 0 33 35 43 78 23 44 -21 157 -96
192 -128 14 -13 40 -30 59 -40 18 -9 55 -39 81 -66 26 -27 56 -49 66 -49 24 0
84 -36 84 -50 0 -6 -21 -10 -47 -10 -27 1 -91 -3 -144 -7 l-96 -8 -56 -43 -57
-43 0 -45 c0 -24 -7 -61 -15 -81 -23 -54 -19 -70 29 -105 24 -18 54 -49 67
-68 13 -19 52 -65 86 -102 34 -38 66 -80 69 -95 9 -39 28 -57 77 -78 58 -23
56 -22 141 -93 42 -34 104 -77 138 -94 34 -17 77 -45 97 -63 38 -34 92 -65
113 -65 7 0 29 -11 48 -24 71 -47 299 -156 328 -156 17 0 34 -4 37 -10 4 -6
78 -10 188 -10 l182 0 48 41 c66 57 97 121 97 201 l0 63 -30 45 c-16 25 -30
51 -30 58 0 27 -50 109 -90 147 -23 22 -57 61 -76 86 -18 26 -60 64 -91 85
-32 21 -78 54 -103 74 -24 19 -61 46 -81 60 -65 45 -121 98 -114 109 9 16 80
13 122 -4 27 -11 77 -15 210 -15 132 0 182 -4 210 -15 26 -11 76 -15 195 -15
118 0 168 -4 195 -15 22 -9 67 -15 120 -15 52 0 97 -6 120 -15 19 -8 53 -15
75 -15 21 0 55 -7 75 -15 19 -8 65 -15 102 -15 36 0 86 -6 111 -14 98 -31 139
-39 240 -45 58 -4 115 -12 127 -19 12 -7 40 -12 63 -12 22 0 57 -7 77 -15 19
-8 60 -15 90 -15 40 0 73 -8 120 -30 35 -17 76 -30 90 -30 38 0 152 -57 212
-106 29 -24 60 -44 68 -44 8 0 44 -13 80 -30 35 -16 70 -30 76 -30 7 0 54 -20
105 -45 52 -25 104 -45 115 -45 12 0 42 -6 67 -14 78 -25 133 -37 195 -45 34
-5 70 -13 82 -19 33 -18 282 -16 326 3 20 8 54 15 76 15 23 0 67 13 104 30 36
16 71 30 79 30 44 0 280 208 318 280 26 50 90 246 90 275 0 13 5 27 10 30 13
8 13 150 0 173 -5 9 -26 66 -46 127 -20 60 -44 125 -54 145 -20 38 -297 315
-345 345 -16 10 -50 37 -75 60 -25 23 -65 53 -90 67 -25 14 -56 38 -69 52 -14
14 -31 26 -38 26 -8 0 -44 18 -81 40 -37 23 -78 43 -92 47 -14 3 -46 18 -71
34 -25 16 -51 29 -58 29 -7 0 -42 14 -78 30 -35 17 -71 30 -78 30 -8 0 -17 5
-20 10 -3 6 -48 10 -99 10 l-93 0 -16 -18z m-695 -1092 c41 -32 71 -130 39
-130 -17 0 -106 31 -118 42 -25 20 -45 79 -32 94 17 21 82 17 111 -6z m-2785
-25 c19 -8 53 -15 75 -15 51 0 159 -49 220 -101 26 -22 97 -64 156 -94 107
-53 155 -90 297 -226 28 -27 68 -62 91 -78 70 -52 140 -175 150 -268 l6 -48
-21 -26 c-12 -16 -45 -34 -85 -48 l-65 -22 -37 16 c-20 8 -48 15 -63 15 -14 0
-68 20 -119 45 -52 25 -106 45 -120 45 -15 0 -39 12 -57 29 -16 16 -81 55
-143 86 -63 31 -130 71 -149 88 -19 17 -52 42 -73 56 -127 85 -328 283 -360
354 -22 48 -27 146 -8 165 7 7 24 12 39 12 15 0 42 7 60 15 45 19 160 19 206
0z"/>
</g>
</svg>
