<?xml version="1.0" standalone="no"?>
<!DOCTYPE svg PUBLIC "-//W3C//DTD SVG 20010904//EN"
 "http://www.w3.org/TR/2001/REC-SVG-20010904/DTD/svg10.dtd">
<svg version="1.0" xmlns="http://www.w3.org/2000/svg"
 width="375.000000pt" height="363.000000pt" viewBox="0 0 375.000000 363.000000"
 preserveAspectRatio="xMidYMid meet">
<metadata>
Created by potrace 1.16, written by Peter Selinger 2001-2019
</metadata>
<g transform="translate(0.000000,363.000000) scale(0.100000,-0.100000)"
fill="#000000" stroke="none">
<path d="M2252 3597 c-28 -78 -7 -97 112 -97 94 0 128 -10 200 -62 21 -15 52
-28 68 -28 32 0 163 -74 213 -120 33 -30 86 -60 108 -60 7 0 24 -12 38 -26 13
-14 55 -46 92 -71 37 -25 75 -55 83 -68 8 -12 41 -42 73 -67 32 -25 71 -65 87
-89 16 -24 47 -61 69 -83 31 -31 47 -60 72 -135 18 -53 33 -106 33 -117 0 -12
7 -38 15 -57 8 -21 15 -67 15 -105 l0 -69 -50 -99 c-27 -54 -55 -106 -62 -115
-24 -30 -153 -111 -244 -155 l-91 -44 -325 0 -325 0 -39 29 c-21 16 -73 63
-114 106 -41 42 -113 102 -160 133 -47 31 -115 85 -152 119 -37 35 -75 63 -85
63 -10 0 -35 11 -56 25 -20 14 -82 48 -137 75 l-100 50 -105 0 c-78 0 -114 -4
-138 -16 -58 -29 -67 -43 -67 -98 l0 -50 46 -68 c36 -54 56 -74 97 -94 29 -14
72 -43 97 -64 44 -37 178 -110 201 -110 6 0 37 -16 70 -36 32 -20 117 -56 189
-80 72 -24 148 -55 168 -69 20 -14 44 -25 53 -25 9 0 28 -15 42 -33 13 -18 44
-45 69 -60 24 -16 54 -45 68 -65 14 -20 43 -60 65 -89 22 -28 56 -72 75 -97
19 -25 40 -61 47 -80 7 -20 33 -60 57 -91 26 -31 52 -77 60 -106 9 -29 27 -66
40 -83 39 -52 137 -256 146 -305 11 -56 27 -121 46 -181 9 -28 14 -88 14 -155
l0 -111 -35 -73 c-51 -106 -71 -131 -105 -131 -20 0 -35 9 -49 29 -36 51 -61
114 -61 159 0 49 -39 133 -72 156 -37 26 -81 19 -180 -29 l-93 -45 -289 0
-289 0 -224 75 c-123 41 -234 75 -246 75 -13 0 -36 13 -52 30 -16 16 -35 30
-43 30 -7 0 -46 20 -85 44 -40 24 -82 46 -95 50 -12 4 -53 39 -91 77 -37 38
-75 69 -84 69 -9 0 -83 67 -163 149 -107 109 -169 182 -227 268 -76 112 -137
224 -137 250 0 7 -27 67 -60 134 -44 88 -60 133 -60 163 0 22 -8 60 -17 84
l-17 44 12 42 c8 30 8 52 0 82 l-12 42 17 44 c9 24 17 61 17 81 0 21 7 54 15
74 17 41 20 106 5 134 -17 31 -54 23 -94 -21 -20 -22 -36 -48 -36 -58 0 -9
-14 -46 -30 -80 -17 -35 -30 -77 -30 -92 0 -16 -4 -32 -10 -35 -13 -8 -13
-192 0 -200 6 -3 10 -32 10 -64 0 -32 7 -75 15 -94 8 -20 15 -48 15 -62 0 -14
16 -58 36 -98 20 -39 50 -111 65 -159 20 -61 48 -115 93 -183 36 -53 68 -112
72 -132 5 -25 18 -43 49 -66 24 -18 53 -48 66 -67 12 -19 97 -110 188 -203
125 -126 175 -170 202 -177 19 -5 54 -26 76 -45 23 -19 88 -58 145 -87 56 -28
117 -61 133 -74 38 -28 255 -98 385 -124 25 -5 77 -20 115 -34 40 -15 92 -26
122 -26 28 0 64 -6 80 -12 16 -7 107 -16 213 -20 102 -4 201 -9 220 -9 19 -1
52 1 72 6 20 4 53 4 73 1 46 -9 102 -65 111 -111 5 -27 18 -44 50 -68 23 -18
48 -42 55 -55 l12 -22 104 0 103 0 63 44 c34 25 72 52 84 61 12 8 26 31 32 50
5 19 20 49 32 67 23 32 42 125 40 198 -3 153 -18 288 -34 319 -10 18 -33 76
-52 130 -49 144 -96 254 -144 341 -11 19 -26 51 -32 70 -12 31 -184 293 -260
396 l-31 42 11 21 12 21 193 0 c149 0 202 3 229 15 20 8 54 15 76 15 23 0 67
13 104 30 36 16 70 30 75 30 6 0 40 13 75 30 36 16 71 30 78 30 7 0 34 21 60
48 26 26 68 65 94 86 50 43 135 161 135 188 0 9 5 20 10 23 14 9 13 372 -1
381 -14 8 -69 124 -69 144 0 33 -89 142 -228 280 -113 112 -175 165 -265 224
-65 43 -136 93 -157 111 -22 18 -54 35 -73 39 -19 4 -55 24 -80 46 -25 22 -50
40 -57 40 -6 0 -41 14 -77 30 -35 17 -75 30 -89 30 -14 0 -41 7 -61 15 -19 8
-55 15 -79 15 -23 0 -46 5 -49 10 -3 6 -48 10 -99 10 l-92 0 -12 -33z m-626
-1264 c22 -16 57 -37 79 -48 22 -10 59 -36 81 -56 23 -21 55 -44 71 -52 16 -9
35 -23 42 -31 l13 -16 -15 -6 c-17 -6 -301 128 -334 159 -22 20 -30 56 -16 70
13 14 41 6 79 -20z"/>
</g>
</svg>
