<?xml version="1.0" standalone="no"?>
<!DOCTYPE svg PUBLIC "-//W3C//DTD SVG 20010904//EN"
 "http://www.w3.org/TR/2001/REC-SVG-20010904/DTD/svg10.dtd">
<svg version="1.0" xmlns="http://www.w3.org/2000/svg"
 width="747.000000pt" height="213.000000pt" viewBox="0 0 747.000000 213.000000"
 preserveAspectRatio="xMidYMid meet">
<metadata>
Created by potrace 1.16, written by Peter Selinger 2001-2019
</metadata>
<g transform="translate(0.000000,213.000000) scale(0.100000,-0.100000)"
fill="#000000" stroke="none">
<path d="M5702 2097 c-7 -18 -12 -40 -12 -49 0 -21 33 -48 60 -48 25 0 333
-101 378 -124 16 -8 80 -32 143 -52 91 -30 124 -47 164 -81 27 -24 80 -59 117
-79 38 -19 102 -66 143 -105 41 -38 84 -69 95 -69 14 0 32 -18 55 -54 22 -34
51 -63 80 -80 32 -19 55 -43 76 -82 17 -30 44 -64 60 -77 44 -34 108 -126 123
-177 8 -25 26 -70 40 -100 14 -30 26 -67 26 -81 0 -15 7 -43 15 -62 8 -20 15
-60 15 -90 l0 -54 -26 -24 c-14 -13 -35 -42 -46 -64 -62 -120 -198 -234 -280
-235 -13 0 -61 -14 -108 -30 l-84 -30 -153 0 c-114 0 -163 4 -190 15 -19 8
-58 15 -86 15 -56 0 -167 33 -209 62 l-28 19 0 44 c0 27 -11 66 -30 107 -16
34 -30 70 -30 78 0 9 -21 47 -48 85 l-47 69 -135 67 -135 68 -93 1 c-67 0
-102 -5 -125 -16 -63 -32 -67 -40 -67 -126 l0 -78 39 -78 c22 -43 45 -83 53
-89 7 -6 55 -32 106 -57 51 -26 110 -62 131 -81 21 -19 43 -35 48 -35 6 0 16
-7 23 -15 23 -28 -12 -52 -135 -94 l-59 -21 -198 0 c-154 0 -207 3 -235 15
-19 8 -60 15 -90 15 -29 0 -70 7 -90 15 -19 8 -53 15 -75 15 -21 0 -55 7 -75
15 -19 8 -52 15 -72 15 -20 0 -56 6 -81 14 -78 25 -133 37 -197 46 -63 7 -73
12 -128 60 -18 16 -77 41 -146 64 -88 28 -128 47 -164 77 -61 51 -112 54 -156
10 -36 -36 -36 -62 -1 -126 21 -39 39 -57 83 -80 80 -43 115 -71 138 -109 38
-61 -4 -92 -82 -62 -27 10 -73 16 -125 16 -51 0 -96 6 -119 15 -19 8 -52 15
-71 15 -20 0 -96 20 -169 45 -73 25 -148 45 -168 45 -20 0 -52 7 -72 15 -19 8
-51 15 -71 15 -19 0 -116 27 -214 60 -98 33 -188 60 -200 60 -13 0 -52 14 -86
30 -35 17 -76 30 -90 30 -15 0 -56 14 -90 30 -35 17 -75 30 -88 30 -14 0 -41
7 -61 15 -19 8 -53 15 -75 15 -21 0 -55 7 -75 15 -19 8 -52 15 -72 15 -20 0
-56 6 -81 14 -78 25 -133 37 -195 45 -34 5 -70 13 -82 19 -12 7 -40 12 -63 12
-22 0 -57 7 -77 15 -22 9 -67 15 -120 15 -52 0 -97 6 -120 15 l-35 15 -388 0
-388 0 -35 -15 c-20 -8 -54 -15 -76 -15 -23 0 -66 -12 -103 -30 -34 -16 -69
-30 -76 -30 -28 0 -160 -75 -200 -113 -24 -23 -54 -63 -68 -89 -13 -26 -28
-49 -34 -53 -6 -4 -10 -56 -10 -129 l0 -122 28 -27 c20 -19 39 -27 63 -27 59
0 69 20 69 139 0 123 14 161 75 200 22 14 59 41 81 60 45 38 159 81 215 81 20
0 53 7 72 15 20 8 61 15 90 15 30 0 71 7 90 15 51 21 303 21 354 0 20 -8 66
-15 105 -15 38 0 84 -7 105 -15 20 -8 66 -15 105 -15 38 0 84 -7 105 -15 26
-11 74 -15 176 -15 l140 0 136 -44 c148 -48 201 -63 273 -76 26 -5 56 -13 67
-19 11 -6 45 -11 77 -11 41 0 76 -8 123 -29 189 -82 298 -121 341 -121 39 0
156 -38 219 -69 22 -12 57 -21 79 -21 21 0 76 -13 122 -30 54 -19 105 -30 140
-30 40 0 72 -8 118 -30 35 -17 75 -30 89 -30 14 0 54 -14 90 -30 40 -19 81
-30 108 -30 24 0 47 -4 50 -10 8 -13 282 -13 290 0 3 5 21 10 38 10 18 0 43 7
55 16 27 18 72 104 72 136 0 13 4 29 9 37 l9 14 83 -26 c152 -45 173 -49 279
-56 58 -4 115 -12 127 -19 12 -7 40 -12 63 -12 22 0 57 -7 77 -15 20 -8 66
-15 104 -15 39 0 86 -7 107 -15 l39 -16 184 4 c196 4 195 4 410 73 l136 44 77
0 c45 0 91 -6 113 -15 26 -11 76 -15 195 -15 118 0 168 -4 195 -15 45 -19 111
-19 156 0 24 10 70 15 132 15 70 0 112 5 157 21 85 28 168 72 197 103 14 14
32 26 41 26 28 0 60 30 86 82 14 27 39 68 55 91 16 22 29 48 29 58 0 9 11 31
25 47 l25 30 0 145 c0 94 -4 148 -11 152 -14 9 -129 243 -129 264 0 9 -25 41
-55 71 -30 30 -68 75 -84 100 -15 25 -44 56 -63 69 -19 13 -50 47 -69 75 -27
40 -44 54 -77 65 -26 8 -52 26 -68 46 -14 18 -51 50 -82 71 -31 21 -77 54
-101 73 -73 58 -155 111 -171 111 -16 0 -63 24 -150 77 -61 36 -196 80 -321
103 -49 9 -69 18 -133 63 -21 15 -47 27 -57 27 -10 0 -21 5 -24 10 -3 6 -41
10 -84 10 l-77 0 -12 -33z m-59 -1377 c86 -41 151 -94 175 -140 26 -51 29
-108 7 -116 -22 -9 -116 26 -150 57 -16 14 -55 45 -87 68 -72 54 -84 83 -52
129 19 28 52 28 107 2z"/>
</g>
</svg>
