<?xml version="1.0" standalone="no"?>
<!DOCTYPE svg PUBLIC "-//W3C//DTD SVG 20010904//EN"
 "http://www.w3.org/TR/2001/REC-SVG-20010904/DTD/svg10.dtd">
<svg version="1.0" xmlns="http://www.w3.org/2000/svg"
 width="216.000000pt" height="186.000000pt" viewBox="0 0 216.000000 186.000000"
 preserveAspectRatio="xMidYMid meet">
<metadata>
Created by potrace 1.16, written by Peter Selinger 2001-2019
</metadata>
<g transform="translate(0.000000,186.000000) scale(0.100000,-0.100000)"
fill="#000000" stroke="none">
<path d="M740 1842 c0 -31 33 -52 81 -52 28 0 55 -8 74 -21 62 -42 246 -129
273 -129 18 0 38 -10 56 -29 15 -16 40 -31 54 -34 15 -3 49 -24 76 -46 26 -23
57 -41 69 -41 11 0 39 -19 61 -43 23 -24 61 -59 86 -78 86 -66 201 -191 232
-253 17 -33 48 -81 69 -106 46 -55 69 -107 69 -158 0 -22 7 -56 15 -75 11 -26
15 -72 15 -158 l0 -121 -22 -70 -23 -71 -80 -81 c-85 -85 -142 -116 -216 -116
-20 0 -53 -7 -72 -15 -51 -21 -333 -21 -384 0 -19 8 -53 15 -75 15 -21 0 -55
7 -75 15 -19 8 -52 15 -72 15 -44 0 -129 28 -231 76 -41 20 -110 47 -153 61
-60 19 -90 36 -130 73 -52 47 -110 82 -157 93 -14 4 -43 22 -65 40 -43 37
-174 107 -200 107 -12 0 -15 -12 -15 -54 l0 -54 33 -24 c17 -14 60 -39 95 -57
34 -17 79 -47 100 -65 40 -36 82 -60 122 -69 14 -4 43 -22 65 -40 51 -44 236
-137 272 -137 16 0 57 -14 91 -30 35 -17 68 -30 74 -30 5 0 39 -13 75 -30 48
-23 79 -30 123 -30 32 0 62 -5 65 -10 8 -14 522 -14 530 0 3 5 26 10 51 10 49
0 121 31 142 61 7 10 34 31 60 46 26 15 73 45 105 66 l59 40 40 86 c23 47 45
94 49 103 13 25 11 405 -1 413 -5 3 -10 20 -10 36 0 37 -59 156 -94 188 -14
14 -26 31 -26 38 0 68 -262 373 -364 425 -22 11 -61 37 -86 58 -51 42 -168
104 -218 115 -17 3 -53 21 -80 39 -64 45 -97 61 -172 85 -36 12 -73 26 -82 31
-10 6 -76 10 -148 10 l-130 0 0 -18z"/>
</g>
</svg>
