<?xml version="1.0" standalone="no"?>
<!DOCTYPE svg PUBLIC "-//W3C//DTD SVG 20010904//EN"
 "http://www.w3.org/TR/2001/REC-SVG-20010904/DTD/svg10.dtd">
<svg version="1.0" xmlns="http://www.w3.org/2000/svg"
 width="270.000000pt" height="483.000000pt" viewBox="0 0 270.000000 483.000000"
 preserveAspectRatio="xMidYMid meet">
<metadata>
Created by potrace 1.16, written by Peter Selinger 2001-2019
</metadata>
<g transform="translate(0.000000,483.000000) scale(0.100000,-0.100000)"
fill="#000000" stroke="none">
<path d="M1307 4823 c-7 -6 -10 -53 -4 -53 21 0 156 -57 202 -85 33 -20 71
-39 85 -42 28 -7 114 -55 238 -135 74 -47 146 -106 235 -195 57 -57 222 -250
270 -316 43 -59 147 -276 147 -307 0 -15 7 -44 15 -63 26 -62 19 -133 -19
-212 -18 -39 -50 -89 -70 -112 -47 -54 -171 -135 -221 -144 -50 -10 -117 -27
-175 -45 -64 -20 -308 -19 -357 1 -19 8 -60 15 -90 15 -29 0 -70 7 -90 15 -19
8 -53 15 -75 15 -47 0 -91 17 -148 59 -24 17 -50 31 -59 31 -28 0 -194 85
-277 143 -90 62 -214 127 -242 127 -24 0 -42 -19 -42 -45 0 -26 144 -167 202
-196 23 -12 57 -32 73 -44 49 -37 172 -95 202 -95 39 -1 100 -31 157 -79 32
-28 58 -41 77 -41 16 0 46 -7 66 -15 25 -11 72 -15 164 -15 96 0 139 -4 170
-17 l41 -16 47 16 c56 21 350 24 412 5 31 -9 48 -8 82 2 65 21 72 29 46 56
l-22 24 17 19 c10 11 41 32 70 46 64 32 207 180 231 238 9 23 21 50 26 59 5
10 9 85 9 167 l0 149 -15 12 c-8 7 -22 36 -30 65 -9 29 -33 82 -55 118 -22 36
-40 73 -40 83 0 9 -22 38 -49 64 -27 27 -59 65 -69 87 -25 46 -332 348 -426
418 -37 28 -81 60 -99 73 -17 12 -42 25 -56 28 -14 4 -81 33 -148 65 -68 32
-129 59 -137 59 -8 0 -18 5 -21 10 -7 11 -238 14 -248 3z"/>
<path d="M28 3144 l-28 -15 0 -54 0 -55 23 0 c42 0 130 -38 150 -64 25 -34
144 -112 184 -121 17 -3 52 -24 76 -46 25 -21 51 -39 57 -39 28 0 159 -72 214
-117 70 -57 125 -93 147 -93 8 0 26 -12 40 -26 13 -14 55 -47 94 -72 38 -26
83 -58 100 -72 16 -14 50 -39 75 -55 24 -17 87 -74 140 -129 52 -54 112 -109
132 -122 21 -13 49 -41 62 -62 13 -20 43 -50 68 -66 24 -15 58 -49 75 -75 21
-31 51 -59 89 -82 42 -25 60 -42 66 -63 4 -16 29 -50 55 -75 26 -26 61 -67 78
-91 16 -25 64 -82 106 -126 50 -53 81 -95 88 -118 5 -20 32 -61 59 -91 39 -43
55 -71 76 -136 14 -44 40 -100 56 -123 16 -22 41 -75 55 -116 l25 -75 0 -105
0 -105 -33 -98 c-19 -53 -45 -110 -59 -125 -14 -15 -37 -43 -52 -63 -42 -58
-92 -85 -240 -134 -181 -60 -198 -69 -194 -103 l3 -27 133 -3 133 -3 27 20
c15 10 44 23 64 29 21 6 57 27 80 46 23 20 59 41 79 46 41 11 109 79 109 108
0 10 12 29 26 43 31 29 75 112 103 197 l21 61 0 141 0 140 -36 106 c-19 58
-50 128 -69 155 -18 27 -37 64 -40 81 -12 53 -44 109 -97 167 -27 30 -62 80
-78 112 -20 39 -43 66 -72 86 -30 20 -47 40 -56 67 -9 28 -58 85 -185 213 -94
97 -189 186 -209 199 -21 13 -49 41 -62 62 -13 20 -43 50 -67 65 -24 16 -57
46 -72 68 -16 22 -50 50 -76 63 -45 23 -122 88 -238 199 -28 28 -72 62 -97 76
-107 62 -173 105 -201 130 -16 15 -57 35 -90 46 -33 10 -73 31 -90 46 -16 15
-45 34 -64 44 -19 9 -52 30 -74 46 -22 16 -47 29 -56 29 -9 0 -54 25 -99 55
-46 30 -102 65 -125 76 -23 12 -55 32 -72 44 -42 32 -171 95 -192 95 -10 -1
-30 -8 -45 -16z"/>
</g>
</svg>
