<?xml version="1.0" standalone="no"?>
<!DOCTYPE svg PUBLIC "-//W3C//DTD SVG 20010904//EN"
 "http://www.w3.org/TR/2001/REC-SVG-20010904/DTD/svg10.dtd">
<svg version="1.0" xmlns="http://www.w3.org/2000/svg"
 width="495.000000pt" height="213.000000pt" viewBox="0 0 495.000000 213.000000"
 preserveAspectRatio="xMidYMid meet">
<metadata>
Created by potrace 1.16, written by Peter Selinger 2001-2019
</metadata>
<g transform="translate(0.000000,213.000000) scale(0.100000,-0.100000)"
fill="#000000" stroke="none">
<path d="M3622 2108 c3 -24 57 -65 97 -75 14 -3 50 -17 80 -30 30 -13 84 -34
120 -45 36 -12 80 -34 96 -49 36 -32 176 -129 224 -153 42 -22 176 -147 220
-206 13 -17 41 -42 62 -56 39 -24 118 -135 119 -165 0 -9 14 -36 32 -60 18
-24 45 -80 60 -124 l28 -79 0 -111 0 -111 -34 -69 c-18 -39 -46 -83 -62 -99
-27 -27 -158 -96 -182 -96 -6 0 -39 -13 -74 -30 -34 -16 -75 -30 -89 -30 -15
0 -43 -7 -62 -15 -52 -21 -362 -21 -414 0 -19 8 -60 15 -90 15 -29 0 -70 7
-90 15 -19 8 -45 15 -56 15 -12 0 -81 20 -154 45 -73 25 -143 45 -156 45 -13
0 -34 12 -48 26 -13 14 -41 35 -63 46 -21 11 -57 33 -79 49 l-40 29 -67 0
c-75 0 -100 -16 -100 -63 0 -14 -5 -38 -10 -53 l-10 -26 19 -32 c11 -17 34
-57 50 -88 31 -58 63 -88 92 -88 8 0 29 -17 46 -37 19 -25 60 -53 114 -80 87
-44 157 -103 145 -122 -11 -18 -239 -14 -283 4 l-35 15 -607 0 -607 0 -84 30
-85 30 -86 0 c-56 0 -100 -5 -124 -15 l-37 -16 -34 11 c-19 7 -69 12 -112 11
-101 0 -65 -1 -627 7 -363 5 -496 10 -512 19 -12 7 -42 13 -67 13 l-46 0 0
-53 0 -53 95 -32 94 -32 758 0 757 0 33 -32 33 -32 48 13 c35 8 56 9 76 1 17
-6 191 -10 487 -10 l460 0 36 -15 c27 -12 79 -15 225 -15 145 0 197 -3 225
-15 27 -11 78 -15 214 -15 108 0 180 -4 184 -10 4 -6 63 -10 144 -10 l137 0
12 33 c20 57 15 95 -17 128 l-29 29 -47 0 c-25 0 -62 7 -82 15 -19 8 -47 15
-60 15 -14 0 -54 14 -90 30 -35 17 -69 30 -75 30 -5 0 -39 13 -75 30 -35 16
-76 30 -91 30 -19 0 -40 14 -69 44 -24 25 -43 49 -43 54 0 13 145 4 200 -13
96 -28 138 -37 210 -44 41 -4 85 -13 98 -20 16 -8 75 -11 210 -8 192 4 204 5
367 58 50 16 101 29 113 29 45 0 179 77 224 130 24 27 51 50 62 50 25 0 106
82 106 108 0 11 5 24 10 27 6 4 10 73 10 175 0 102 -4 171 -10 175 -5 3 -10
24 -10 46 0 37 -29 139 -52 184 -6 11 -26 37 -44 57 -18 20 -42 54 -53 75 -23
46 -321 340 -383 379 -23 14 -56 39 -73 54 -16 16 -86 57 -155 91 -69 34 -143
75 -164 91 -21 15 -47 28 -57 28 -10 0 -21 5 -24 10 -4 6 -67 10 -156 10
l-150 0 3 -22z"/>
</g>
</svg>
