<?xml version="1.0" standalone="no"?>
<!DOCTYPE svg PUBLIC "-//W3C//DTD SVG 20010904//EN"
 "http://www.w3.org/TR/2001/REC-SVG-20010904/DTD/svg10.dtd">
<svg version="1.0" xmlns="http://www.w3.org/2000/svg"
 width="438.000000pt" height="195.000000pt" viewBox="0 0 438.000000 195.000000"
 preserveAspectRatio="xMidYMid meet">
<metadata>
Created by potrace 1.16, written by Peter Selinger 2001-2019
</metadata>
<g transform="translate(0.000000,195.000000) scale(0.100000,-0.100000)"
fill="#000000" stroke="none">
<path d="M2750 1932 c0 -37 32 -52 109 -52 41 0 87 -6 108 -15 19 -8 47 -15
62 -15 14 0 68 -20 119 -45 52 -25 99 -45 105 -45 6 0 25 -13 42 -29 16 -16
76 -52 132 -80 58 -29 124 -72 155 -99 29 -27 68 -57 86 -66 18 -9 61 -45 96
-79 34 -34 74 -70 89 -80 15 -10 39 -41 53 -70 15 -28 51 -87 82 -132 54 -78
112 -188 112 -212 0 -6 13 -40 30 -75 l30 -63 0 -115 0 -115 -24 -51 c-13 -29
-40 -70 -60 -92 -25 -27 -36 -49 -36 -70 0 -36 -30 -62 -71 -62 -14 0 -45 -15
-70 -34 -44 -35 -145 -76 -185 -76 -12 0 -38 -7 -57 -15 -51 -21 -273 -21
-324 0 -22 9 -68 15 -121 15 l-85 0 -66 29 c-95 41 -170 71 -219 89 -24 8 -46
20 -48 27 -3 7 11 41 30 77 28 51 36 76 36 117 l0 51 -42 46 c-24 26 -59 70
-79 98 -26 39 -45 54 -76 64 -22 7 -58 28 -79 46 -22 18 -53 40 -69 49 -56 28
-154 57 -195 57 -87 0 -200 -87 -200 -155 0 -56 -27 -62 -106 -25 -36 16 -70
30 -76 30 -16 0 -80 32 -113 56 -42 31 -164 90 -202 98 -17 4 -51 25 -76 46
-24 21 -94 64 -156 95 -62 31 -129 72 -150 91 -21 19 -44 34 -51 34 -21 0 -83
33 -160 86 -42 28 -109 69 -149 90 -43 22 -84 53 -102 76 -17 21 -43 41 -57
45 -28 6 -116 55 -213 117 -30 20 -61 36 -69 36 -7 0 -52 18 -99 41 -47 22
-115 50 -149 62 l-64 20 -64 -31 -64 -32 0 -103 0 -104 85 -93 c47 -51 85 -97
85 -101 0 -11 152 -129 167 -129 26 0 98 -39 147 -79 32 -28 58 -41 77 -41 16
0 46 -7 66 -15 19 -8 47 -15 60 -15 14 0 54 -14 91 -31 l66 -30 190 4 c105 2
202 7 216 11 l25 7 49 -41 c26 -22 56 -40 65 -40 22 0 154 -73 260 -142 31
-21 63 -38 71 -38 9 0 32 -12 53 -26 51 -34 531 -274 549 -274 8 0 23 -9 34
-21 74 -82 467 -279 556 -279 13 0 43 -14 68 -30 32 -22 57 -30 88 -30 23 0
59 -7 79 -15 19 -8 55 -15 79 -15 23 0 46 -4 49 -10 4 -6 98 -10 250 -10 152
0 246 4 250 10 3 6 12 10 20 10 7 0 43 13 78 30 36 16 77 30 91 30 40 0 165
67 214 113 24 23 59 71 77 107 18 37 49 85 69 109 l36 43 0 43 c0 24 5 47 10
50 6 4 10 58 10 130 0 72 -4 126 -10 130 -5 3 -10 20 -10 36 0 29 -54 148 -92
202 -11 15 -23 40 -28 56 -4 16 -28 54 -51 85 -39 50 -80 98 -229 262 -57 63
-203 180 -259 208 -28 15 -68 42 -89 60 -20 19 -80 55 -132 82 -52 26 -113 60
-134 76 -21 15 -52 28 -68 28 -16 0 -45 7 -65 15 -19 8 -48 15 -64 15 -15 0
-31 5 -34 10 -4 6 -77 10 -186 10 l-179 0 0 -18z m-2455 -412 c37 -16 72 -30
78 -30 18 0 204 -96 278 -143 37 -23 88 -66 114 -95 26 -28 59 -55 73 -58 45
-11 167 -71 187 -94 l19 -21 -14 -9 c-26 -16 -143 -11 -198 8 -29 11 -65 31
-80 45 -18 17 -39 27 -58 27 -16 0 -58 14 -92 30 -35 17 -69 30 -76 30 -7 0
-23 12 -37 26 -13 14 -55 46 -92 71 -37 25 -75 57 -85 72 -9 14 -39 52 -66 83
l-49 58 13 15 c15 19 6 20 85 -15z m2102 -795 c19 -8 47 -15 60 -15 46 0 94
-32 128 -84 18 -28 42 -60 54 -70 42 -38 20 -96 -36 -96 -58 0 -161 39 -191
73 -15 17 -48 52 -74 78 -51 50 -61 85 -32 113 19 20 45 20 91 1z"/>
</g>
</svg>
