<?xml version="1.0" standalone="no"?>
<!DOCTYPE svg PUBLIC "-//W3C//DTD SVG 20010904//EN"
 "http://www.w3.org/TR/2001/REC-SVG-20010904/DTD/svg10.dtd">
<svg version="1.0" xmlns="http://www.w3.org/2000/svg"
 width="339.000000pt" height="486.000000pt" viewBox="0 0 339.000000 486.000000"
 preserveAspectRatio="xMidYMid meet">
<metadata>
Created by potrace 1.16, written by Peter Selinger 2001-2019
</metadata>
<g transform="translate(0.000000,486.000000) scale(0.100000,-0.100000)"
fill="#000000" stroke="none">
<path d="M868 4817 c-34 -80 -26 -87 90 -87 86 0 161 -22 285 -82 43 -21 83
-38 89 -38 26 0 180 -83 222 -120 26 -22 51 -40 55 -40 4 0 32 -21 62 -47 30
-25 78 -62 107 -80 30 -19 62 -50 73 -68 11 -18 54 -61 95 -96 48 -40 84 -80
99 -109 12 -25 33 -54 45 -65 12 -11 34 -40 48 -65 14 -25 38 -63 53 -85 30
-42 79 -174 79 -211 0 -12 7 -38 15 -57 20 -49 20 -215 0 -264 -8 -19 -15 -47
-15 -60 0 -38 -29 -78 -78 -109 -24 -16 -55 -43 -69 -61 -14 -18 -53 -46 -87
-63 l-63 -30 -289 0 -289 0 -117 40 c-64 21 -135 48 -157 59 -22 12 -57 21
-78 21 -84 0 -253 87 -253 129 0 10 -22 45 -49 79 -59 73 -76 117 -61 157 15
38 -4 63 -74 98 -31 16 -68 44 -83 64 -34 44 -148 103 -201 103 -22 0 -54 5
-72 11 -34 12 -92 4 -197 -29 l-53 -16 0 -97 0 -97 46 -37 c61 -50 130 -97
190 -129 27 -15 74 -43 104 -62 30 -19 66 -37 80 -41 14 -3 39 -18 55 -33 17
-15 49 -37 72 -49 52 -26 79 -60 98 -124 8 -27 26 -64 39 -81 13 -17 53 -90
89 -163 36 -72 91 -168 121 -214 39 -59 56 -93 56 -116 0 -25 11 -45 49 -87
28 -30 58 -68 67 -83 10 -15 43 -55 74 -88 31 -33 68 -78 82 -100 14 -22 45
-53 69 -68 25 -16 55 -45 69 -65 31 -47 194 -211 241 -241 19 -13 51 -47 70
-75 27 -39 45 -54 79 -66 33 -11 52 -27 73 -58 16 -23 46 -51 66 -62 21 -10
65 -42 97 -69 32 -28 90 -67 127 -87 38 -20 99 -64 135 -98 37 -34 86 -75 110
-91 24 -16 63 -46 87 -67 24 -21 48 -38 55 -38 12 0 104 -53 200 -113 30 -20
74 -45 96 -57 49 -25 79 -54 69 -69 -9 -16 -120 -13 -162 4 -19 8 -52 15 -72
15 -20 0 -56 6 -81 14 -76 24 -132 37 -195 46 -33 4 -84 20 -112 34 -29 14
-63 26 -75 26 -12 0 -63 13 -113 29 -111 36 -169 51 -216 58 -71 10 -159 -61
-159 -127 0 -47 82 -165 145 -211 11 -8 35 -33 54 -56 18 -24 41 -43 52 -43
12 0 32 -20 54 -55 26 -40 49 -62 85 -80 27 -14 57 -37 67 -51 10 -14 39 -50
65 -80 26 -30 58 -71 71 -91 33 -51 112 -123 136 -123 21 0 61 -44 61 -66 0
-11 18 -14 75 -14 l75 0 0 17 c0 33 -77 131 -217 275 -79 81 -143 152 -143
158 0 11 -98 121 -216 242 -41 42 -55 63 -52 80 l3 23 47 3 c26 2 62 -4 83
-12 21 -9 50 -16 64 -16 17 0 38 -11 56 -30 19 -20 39 -30 57 -30 16 0 45 -7
65 -15 19 -8 65 -15 102 -15 36 0 86 -6 111 -14 94 -30 138 -38 225 -45 50 -4
100 -12 112 -19 15 -8 81 -12 205 -12 l184 0 42 31 42 31 0 57 0 57 -28 27
c-21 20 -38 27 -68 27 -42 0 -126 26 -209 64 -27 13 -64 26 -82 30 -17 4 -52
25 -76 47 -25 21 -50 39 -57 39 -19 0 -139 58 -173 84 -18 13 -66 41 -107 61
-41 21 -95 54 -120 75 -25 20 -68 49 -95 63 -61 33 -74 42 -108 89 -28 37 -95
86 -177 130 -24 13 -58 43 -75 67 -16 23 -50 53 -75 67 -25 14 -65 48 -89 75
-24 27 -60 58 -81 69 -50 25 -205 181 -231 231 -10 21 -37 50 -59 64 -22 14
-47 37 -57 52 -9 16 -42 55 -73 88 -31 33 -65 74 -75 90 -11 17 -36 50 -57 75
-47 57 -68 108 -68 163 l0 45 -42 34 c-34 28 -56 63 -106 165 -38 77 -60 135
-57 145 10 25 33 29 72 13 19 -8 45 -15 56 -15 12 0 62 -13 112 -29 122 -39
170 -51 240 -60 34 -5 71 -13 83 -20 16 -8 77 -11 210 -8 179 3 209 7 322 43
25 8 57 14 71 14 15 0 37 12 54 30 16 17 35 30 42 30 51 0 196 119 233 191 30
57 60 155 60 194 0 20 7 52 15 72 19 46 19 140 0 186 -8 20 -15 54 -15 76 0
23 -12 66 -30 103 -16 34 -30 70 -30 79 0 9 -18 39 -41 65 -22 27 -65 97 -94
155 -37 73 -64 114 -89 133 -20 15 -47 49 -60 75 -28 54 -40 66 -78 75 -15 3
-61 38 -102 76 -42 39 -85 70 -95 70 -11 0 -29 13 -40 29 -25 34 -116 99 -203
143 -34 17 -78 46 -98 64 -21 19 -48 34 -61 34 -12 0 -83 20 -156 45 -73 25
-143 45 -157 45 -14 0 -28 5 -31 10 -4 6 -58 10 -128 10 l-122 0 -17 -43z
m-585 -1266 c70 -33 92 -53 102 -93 10 -37 -10 -37 -63 2 -23 17 -45 30 -50
30 -14 0 -83 76 -76 83 11 11 21 9 87 -22z"/>
</g>
</svg>
