<?xml version="1.0" standalone="no"?>
<!DOCTYPE svg PUBLIC "-//W3C//DTD SVG 20010904//EN"
 "http://www.w3.org/TR/2001/REC-SVG-20010904/DTD/svg10.dtd">
<svg version="1.0" xmlns="http://www.w3.org/2000/svg"
 width="324.000000pt" height="579.000000pt" viewBox="0 0 324.000000 579.000000"
 preserveAspectRatio="xMidYMid meet">
<metadata>
Created by potrace 1.16, written by Peter Selinger 2001-2019
</metadata>
<g transform="translate(0.000000,579.000000) scale(0.100000,-0.100000)"
fill="#000000" stroke="none">
<path d="M470 5757 c0 -57 21 -67 141 -67 l104 0 55 -26 c30 -14 93 -38 140
-53 47 -16 103 -37 125 -48 22 -11 54 -24 72 -27 17 -4 51 -24 75 -45 63 -55
129 -101 145 -101 8 0 72 -58 141 -128 70 -70 139 -135 153 -144 31 -20 162
-214 211 -313 60 -121 105 -295 88 -339 -5 -15 -10 -44 -10 -65 0 -59 -34
-140 -69 -168 -17 -14 -38 -37 -45 -52 -43 -83 -160 -143 -311 -161 -180 -22
-239 -23 -280 -6 -20 9 -62 16 -92 16 -29 0 -70 7 -90 15 -19 8 -52 15 -72 15
-73 0 -131 31 -214 113 -42 43 -84 92 -93 110 -33 63 -135 204 -188 257 -59
61 -139 124 -201 157 -50 28 -179 32 -225 8 l-30 -16 0 -104 c0 -58 4 -107 10
-110 6 -3 10 -15 10 -26 0 -13 39 -59 98 -119 77 -77 114 -106 177 -138 44
-22 102 -59 129 -81 26 -23 55 -41 63 -41 35 0 85 -36 124 -88 23 -32 62 -75
85 -98 24 -22 44 -50 44 -61 0 -11 12 -30 26 -44 14 -13 35 -39 47 -59 12 -19
48 -67 82 -106 123 -145 145 -173 167 -211 11 -21 78 -94 147 -163 69 -69 140
-145 156 -170 19 -28 39 -46 53 -48 15 -2 34 -20 52 -50 44 -72 69 -101 111
-128 22 -13 50 -42 64 -64 15 -23 43 -49 67 -61 24 -12 65 -46 93 -77 27 -30
66 -62 86 -73 20 -10 63 -41 95 -68 32 -28 88 -66 124 -85 36 -19 92 -57 125
-85 33 -28 104 -73 158 -101 54 -28 117 -64 139 -80 23 -17 48 -30 57 -30 9 0
58 -20 109 -45 52 -25 98 -45 104 -45 19 0 158 -92 158 -104 0 -17 -38 -50
-82 -69 l-36 -17 -186 0 c-143 0 -195 3 -223 15 -19 8 -47 15 -62 15 -14 0
-51 12 -81 26 -30 14 -113 45 -185 69 -71 23 -150 52 -175 63 -82 36 -154 64
-254 98 -108 37 -169 69 -201 104 -24 26 -78 55 -122 65 -18 3 -58 24 -90 46
-32 21 -64 39 -72 39 -19 0 -201 92 -271 136 -30 19 -71 39 -91 44 -19 5 -53
24 -75 43 -21 18 -58 45 -81 60 -52 36 -151 139 -185 193 -39 62 -83 94 -127
94 -55 0 -71 -23 -71 -99 0 -76 24 -128 78 -167 21 -15 51 -45 66 -66 15 -21
46 -48 69 -60 64 -32 95 -58 138 -115 22 -29 46 -53 53 -53 7 0 58 -44 113
-97 54 -54 132 -121 173 -149 l75 -50 13 -39 c9 -27 46 -73 123 -150 61 -61
123 -130 139 -153 15 -23 49 -65 75 -94 26 -29 58 -75 72 -103 14 -27 44 -70
67 -95 23 -25 64 -79 91 -120 27 -41 66 -95 86 -120 20 -25 53 -78 73 -117 20
-40 58 -106 85 -146 55 -81 91 -172 91 -228 0 -20 7 -53 15 -72 17 -41 20
-136 5 -199 -5 -24 -14 -68 -20 -99 -13 -68 -53 -133 -94 -152 -143 -68 -257
-107 -311 -107 -71 0 -108 -46 -67 -83 l19 -17 121 0 c70 0 123 4 127 10 3 6
14 10 23 10 23 0 148 86 270 186 38 31 82 111 82 148 0 14 7 43 16 65 18 46
15 258 -5 331 -37 131 -55 178 -75 205 -13 17 -47 78 -76 135 -30 61 -73 127
-101 158 -27 29 -64 83 -84 120 -19 37 -58 94 -86 126 -27 32 -59 76 -69 97
-11 21 -35 50 -54 64 -19 14 -50 57 -72 98 -57 110 -99 160 -343 419 -35 37
-41 49 -29 53 8 3 32 -5 53 -19 21 -14 45 -26 54 -26 22 0 194 -84 234 -114
47 -35 173 -96 199 -96 39 0 171 -49 213 -79 56 -40 120 -71 146 -71 12 0 103
-27 203 -59 259 -84 260 -85 376 -85 99 0 131 6 240 40 25 8 60 14 77 14 18 0
62 10 98 22 l66 21 60 65 59 65 0 58 0 57 -42 31 c-24 17 -54 31 -70 31 -16 0
-45 7 -65 15 -19 8 -45 15 -57 15 -11 0 -73 18 -136 39 -84 28 -126 48 -157
75 -23 20 -47 36 -54 36 -25 0 -181 82 -217 114 -40 36 -92 66 -115 66 -7 0
-24 12 -38 26 -13 14 -55 47 -94 72 -38 26 -83 58 -100 72 -16 14 -43 34 -60
45 -16 10 -50 37 -75 60 -25 22 -57 49 -73 58 -15 10 -38 34 -51 55 -13 21
-44 50 -68 66 -25 16 -58 48 -74 73 -15 24 -48 58 -73 75 -25 17 -53 40 -61
51 -8 12 -51 63 -97 115 -46 51 -98 116 -116 145 -19 29 -53 74 -76 100 -23
27 -50 66 -61 87 -10 21 -41 57 -67 80 -26 23 -59 59 -73 80 -14 20 -46 64
-72 96 -27 33 -48 67 -48 77 l0 18 258 -5 c141 -3 273 -6 292 -7 56 -2 140 12
205 33 76 25 92 34 137 74 20 18 55 42 78 54 22 11 51 38 65 59 13 22 37 54
53 73 44 49 72 112 72 158 0 22 7 57 15 77 24 58 20 174 -9 231 -13 26 -29 65
-35 87 -6 23 -29 71 -51 107 -22 37 -40 72 -40 79 0 28 -70 138 -125 195 -33
34 -71 77 -84 94 -13 17 -42 43 -64 57 -22 14 -61 44 -86 67 -25 23 -62 52
-82 65 -20 14 -46 39 -59 58 -26 37 -93 89 -159 123 -24 12 -62 35 -84 51 -22
16 -47 29 -56 29 -9 0 -41 12 -71 26 -92 43 -141 56 -237 63 -73 5 -99 11
-122 29 l-30 22 -131 0 -130 0 0 -33z m-222 -1237 c49 -13 55 -20 81 -95 12
-33 32 -69 46 -80 14 -12 25 -26 25 -33 0 -22 -39 -13 -56 13 -9 13 -40 36
-68 49 -64 30 -72 40 -91 101 -15 51 -12 70 10 61 8 -3 32 -10 53 -16z"/>
</g>
</svg>
