<?xml version="1.0" standalone="no"?>
<!DOCTYPE svg PUBLIC "-//W3C//DTD SVG 20010904//EN"
 "http://www.w3.org/TR/2001/REC-SVG-20010904/DTD/svg10.dtd">
<svg version="1.0" xmlns="http://www.w3.org/2000/svg"
 width="294.000000pt" height="291.000000pt" viewBox="0 0 294.000000 291.000000"
 preserveAspectRatio="xMidYMid meet">
<metadata>
Created by potrace 1.16, written by Peter Selinger 2001-2019
</metadata>
<g transform="translate(0.000000,291.000000) scale(0.100000,-0.100000)"
fill="#000000" stroke="none">
<path d="M1282 2888 c4 -26 56 -64 108 -78 49 -13 253 -114 294 -145 17 -13
64 -40 103 -59 74 -37 188 -110 233 -150 14 -12 41 -33 61 -46 19 -12 51 -46
70 -74 27 -39 45 -54 79 -66 32 -11 52 -27 73 -57 15 -23 41 -52 58 -65 82
-61 192 -195 241 -292 54 -107 118 -300 118 -356 0 -47 -62 -246 -99 -319 -12
-22 -21 -47 -21 -54 0 -8 -26 -34 -57 -57 -32 -24 -70 -54 -85 -68 -27 -25
-203 -92 -243 -92 -11 0 -58 -14 -105 -30 -46 -17 -94 -30 -106 -30 -12 0 -38
-7 -57 -15 -27 -11 -75 -15 -177 -15 -102 0 -150 4 -177 15 -19 8 -47 15 -61
15 -39 0 -229 97 -249 126 l-16 25 11 25 c7 13 24 29 39 35 51 20 58 26 80 65
38 66 32 117 -31 242 -58 114 -105 168 -186 214 -25 14 -54 36 -65 48 -27 30
-148 90 -182 90 -16 0 -53 12 -83 26 -51 24 -105 42 -220 75 -73 20 -285 23
-331 5 -22 -9 -51 -16 -65 -16 -34 0 -113 -42 -145 -77 -15 -15 -36 -47 -48
-70 -11 -23 -25 -44 -31 -48 -6 -3 -10 -50 -10 -108 l0 -102 23 -10 c12 -6 23
-20 25 -32 5 -31 171 -162 271 -213 24 -12 62 -35 84 -51 22 -16 47 -29 56
-29 9 0 30 -9 46 -21 42 -28 182 -99 196 -99 7 0 42 -13 78 -29 191 -82 324
-127 447 -150 22 -4 54 -17 70 -28 41 -30 127 -120 161 -169 15 -23 40 -56 55
-75 43 -55 68 -142 68 -237 l0 -83 -25 -24 -24 -25 -64 0 c-50 0 -70 -5 -91
-21 -32 -25 -33 -59 -3 -87 l23 -22 135 0 136 0 41 38 c32 30 42 46 42 71 0
17 7 48 15 68 21 50 19 133 -6 205 -25 76 -38 102 -95 186 -24 36 -44 71 -44
79 0 25 42 33 185 33 91 0 154 4 168 12 12 6 48 14 82 19 62 8 117 20 195 45
25 8 60 14 78 14 81 0 268 99 375 199 87 82 217 318 217 395 0 25 5 48 10 51
6 4 10 53 10 115 0 62 -4 111 -10 115 -5 3 -10 20 -10 36 0 29 -58 153 -99
214 -12 17 -21 38 -21 49 0 22 -456 486 -514 523 -22 14 -70 54 -107 89 -38
35 -77 64 -87 64 -10 0 -29 12 -43 26 -31 33 -117 77 -214 109 -41 13 -92 36
-112 50 -21 14 -44 25 -51 25 -25 0 -102 41 -115 60 l-12 20 -133 0 -133 0 3
-22z m-503 -1254 c58 -19 116 -43 130 -53 14 -10 59 -35 98 -56 82 -43 134
-101 184 -209 29 -62 30 -90 4 -100 -23 -8 -203 59 -233 87 l-28 27 -49 0
c-53 0 -85 -20 -85 -52 0 -53 71 -144 175 -223 15 -11 27 -29 28 -40 l2 -20
-50 3 c-36 2 -83 19 -165 59 -63 30 -135 61 -160 69 -25 8 -66 26 -91 42 -26
15 -70 41 -99 57 -85 49 -125 77 -198 138 l-69 57 -23 66 -22 65 18 27 c20 31
44 50 94 74 l35 17 200 1 200 0 104 -36z"/>
</g>
</svg>
