<?xml version="1.0" standalone="no"?>
<!DOCTYPE svg PUBLIC "-//W3C//DTD SVG 20010904//EN"
 "http://www.w3.org/TR/2001/REC-SVG-20010904/DTD/svg10.dtd">
<svg version="1.0" xmlns="http://www.w3.org/2000/svg"
 width="525.000000pt" height="369.000000pt" viewBox="0 0 525.000000 369.000000"
 preserveAspectRatio="xMidYMid meet">
<metadata>
Created by potrace 1.16, written by Peter Selinger 2001-2019
</metadata>
<g transform="translate(0.000000,369.000000) scale(0.100000,-0.100000)"
fill="#000000" stroke="none">
<path d="M4040 3672 c0 -30 29 -61 80 -87 27 -14 54 -25 61 -25 26 0 148 -65
198 -106 29 -24 61 -44 70 -44 49 0 266 -181 328 -275 15 -22 43 -58 64 -80
95 -103 189 -273 189 -341 0 -23 7 -58 15 -77 21 -50 20 -215 -1 -265 -8 -20
-32 -57 -52 -82 -21 -25 -48 -61 -62 -81 -39 -60 -198 -158 -255 -159 -16 0
-50 -14 -75 -30 -25 -16 -57 -30 -71 -30 -15 0 -43 -7 -62 -15 -21 -8 -67 -15
-105 -15 -39 0 -85 -7 -105 -15 -46 -19 -128 -19 -174 0 -23 10 -69 15 -131
15 -158 0 -256 45 -327 152 -42 63 -65 87 -109 115 -22 14 -60 45 -85 68 -53
49 -119 85 -156 85 -15 0 -56 13 -92 30 -77 36 -120 38 -208 9 -48 -16 -75
-32 -100 -60 l-35 -39 0 -56 0 -56 63 -65 c55 -58 137 -113 168 -113 17 0 80
-31 114 -56 37 -28 143 -64 186 -64 41 0 155 -37 192 -62 15 -11 27 -27 27
-36 0 -10 11 -34 25 -54 36 -52 68 -154 61 -190 -3 -16 -15 -43 -27 -59 l-20
-29 -205 0 c-147 0 -214 4 -237 13 -23 10 -105 14 -301 16 -208 2 -277 5 -304
17 -26 10 -81 14 -224 14 -145 0 -197 3 -225 15 -27 12 -81 15 -240 15 -158 0
-212 3 -240 15 -28 12 -86 15 -285 15 -198 0 -256 3 -285 15 l-35 15 -355 0
-354 0 -36 15 c-43 18 -154 20 -171 3 -17 -17 -15 -52 6 -71 30 -27 138 -57
207 -57 36 0 82 -7 102 -15 26 -11 74 -15 180 -15 105 0 153 -4 180 -15 l35
-15 280 0 279 0 36 -15 c26 -11 76 -15 194 -15 103 0 167 -4 186 -12 17 -8
110 -15 243 -20 118 -4 235 -9 260 -12 25 -3 110 -9 190 -13 80 -5 151 -12
158 -16 7 -5 28 -3 46 3 27 9 42 8 71 -5 29 -11 77 -15 212 -15 132 0 182 -4
210 -15 22 -9 67 -15 117 -15 44 0 101 -6 126 -14 124 -39 169 -38 258 8 32
17 87 86 121 153 l21 42 0 104 c0 57 -5 119 -11 137 l-12 32 14 9 c8 5 125 9
260 9 196 0 254 3 282 15 20 8 52 15 72 15 20 0 95 20 168 45 73 25 143 45
155 45 34 0 102 38 153 85 25 23 63 54 85 68 61 39 177 167 198 217 10 25 22
53 27 62 13 25 12 465 -1 473 -6 4 -27 39 -47 78 -19 40 -44 84 -55 100 -11
15 -23 40 -28 56 -4 16 -28 54 -51 86 -64 84 -238 263 -283 292 -22 14 -60 45
-85 68 -44 41 -118 85 -142 85 -7 0 -54 20 -106 45 l-93 45 -60 0 c-32 0 -62
5 -65 10 -3 6 -46 10 -96 10 l-89 0 0 -18z m-880 -1432 c25 -16 53 -30 63 -30
25 0 107 -79 107 -102 0 -15 -4 -18 -17 -13 -10 4 -32 11 -50 15 -17 4 -46 18
-65 31 -37 27 -104 59 -123 59 -7 0 -23 8 -36 19 l-23 19 13 16 c22 26 80 20
131 -14z"/>
<path d="M565 1285 c-16 -8 -47 -14 -68 -15 -58 0 -156 -37 -201 -76 -22 -19
-55 -38 -74 -44 -46 -12 -70 -36 -82 -80 -5 -20 -26 -55 -45 -78 -20 -22 -42
-63 -50 -90 -8 -27 -22 -55 -30 -62 -12 -10 -15 -40 -15 -151 0 -81 4 -140 10
-144 6 -3 10 -20 10 -36 0 -36 32 -102 72 -147 16 -19 40 -51 53 -73 14 -22
43 -48 67 -60 23 -12 63 -44 89 -70 38 -39 54 -49 80 -49 18 0 52 -12 78 -29
25 -16 59 -32 75 -35 17 -4 42 -16 57 -27 l27 -19 192 0 192 0 26 19 c15 10
43 23 63 29 91 25 269 184 269 242 0 17 7 47 15 67 11 25 15 72 15 165 l0 129
-21 61 c-27 80 -52 128 -79 153 -12 11 -42 46 -67 78 -24 31 -51 57 -60 57
-38 0 -85 36 -138 106 -30 41 -62 74 -71 74 -8 0 -40 11 -69 25 -63 28 -260
95 -278 94 -6 0 -25 -7 -42 -14z m39 -200 c32 -34 50 -45 72 -45 36 0 125 -30
212 -70 43 -21 91 -57 154 -117 108 -105 148 -156 148 -193 0 -15 7 -44 15
-63 34 -81 2 -267 -52 -305 -13 -9 -45 -34 -71 -55 -76 -62 -121 -78 -235 -84
l-102 -5 -122 40 c-67 23 -139 52 -160 66 -21 13 -53 27 -72 31 -24 5 -55 30
-114 91 -45 47 -89 97 -99 112 l-18 27 0 145 0 146 34 69 c45 92 90 143 184
204 l77 51 54 0 54 0 41 -45z"/>
</g>
</svg>
