<?xml version="1.0" standalone="no"?>
<!DOCTYPE svg PUBLIC "-//W3C//DTD SVG 20010904//EN"
 "http://www.w3.org/TR/2001/REC-SVG-20010904/DTD/svg10.dtd">
<svg version="1.0" xmlns="http://www.w3.org/2000/svg"
 width="345.000000pt" height="462.000000pt" viewBox="0 0 345.000000 462.000000"
 preserveAspectRatio="xMidYMid meet">
<metadata>
Created by potrace 1.16, written by Peter Selinger 2001-2019
</metadata>
<g transform="translate(0.000000,462.000000) scale(0.100000,-0.100000)"
fill="#000000" stroke="none">
<path d="M757 4593 c-6 -34 31 -73 70 -73 15 0 48 -6 73 -14 76 -24 132 -37
195 -46 63 -9 195 -68 268 -121 24 -18 52 -29 72 -29 34 0 89 -35 140 -90 17
-18 68 -57 114 -88 46 -30 98 -67 115 -81 17 -15 47 -37 67 -50 19 -13 60 -60
90 -105 29 -45 73 -105 96 -133 23 -29 49 -75 57 -102 8 -28 26 -67 40 -88 14
-21 26 -50 26 -64 0 -15 7 -43 15 -62 23 -55 18 -105 -15 -175 -17 -35 -30
-69 -30 -76 0 -24 -51 -85 -102 -120 -29 -20 -71 -50 -92 -66 l-39 -30 -72 0
c-42 0 -88 -6 -108 -15 -52 -21 -362 -21 -414 0 -23 10 -69 15 -132 15 -115 0
-194 23 -224 65 -22 29 -33 112 -19 133 l9 14 51 -16 c28 -8 68 -26 89 -40
l38 -26 98 0 98 0 50 47 c49 46 99 126 99 158 0 25 -35 87 -64 114 -14 14 -26
32 -26 41 0 28 -30 60 -88 91 -88 46 -188 111 -219 142 -23 21 -39 27 -74 27
-32 0 -56 8 -89 30 -25 16 -52 30 -60 30 -8 0 -44 14 -78 30 -35 17 -75 30
-88 30 -14 0 -41 7 -61 15 -28 12 -81 15 -245 15 l-209 0 -42 -21 c-23 -12
-63 -40 -89 -62 l-48 -40 0 -133 c0 -78 4 -135 10 -139 6 -3 10 -15 10 -26 0
-10 34 -56 75 -100 41 -45 75 -85 75 -90 0 -8 133 -115 191 -154 102 -68 133
-87 195 -118 38 -19 82 -37 98 -41 39 -9 86 -43 86 -62 0 -25 247 -508 270
-529 12 -11 34 -40 48 -65 14 -25 44 -65 67 -90 23 -25 50 -59 60 -75 11 -17
38 -51 61 -76 23 -25 53 -63 66 -85 14 -22 46 -52 70 -68 25 -16 58 -49 74
-74 16 -24 47 -56 69 -70 22 -13 101 -84 175 -156 74 -73 154 -145 178 -161
23 -15 59 -50 78 -77 22 -29 55 -59 83 -73 57 -30 68 -40 108 -91 19 -24 44
-44 60 -47 16 -3 48 -22 73 -42 25 -19 69 -54 99 -78 78 -60 251 -326 251
-384 0 -16 17 -53 39 -86 22 -32 43 -72 47 -90 3 -17 24 -51 45 -75 21 -24 41
-58 44 -75 4 -18 20 -53 36 -78 16 -25 29 -59 29 -76 0 -21 13 -46 40 -79 23
-27 43 -59 46 -71 l6 -23 39 0 39 0 12 25 c20 45 -26 213 -98 356 -50 101
-127 320 -116 330 16 15 122 -11 197 -49 107 -52 172 -69 215 -54 18 7 53 12
78 12 l45 0 39 42 38 41 0 119 0 119 -39 52 c-21 29 -50 75 -64 102 -14 28
-44 68 -67 90 -23 22 -57 60 -75 85 -18 25 -60 65 -93 88 -33 24 -69 57 -81
73 -12 16 -45 41 -74 55 -29 15 -65 37 -82 49 -77 58 -190 101 -392 152 -15 3
-39 -5 -71 -26 -27 -17 -57 -31 -66 -31 -10 0 -31 -13 -47 -29 l-29 -29 0
-106 c0 -73 -4 -106 -11 -106 -7 0 -36 21 -67 48 -30 26 -73 60 -96 75 -22 16
-66 52 -96 81 -30 29 -72 63 -92 76 -20 14 -49 44 -65 68 -15 24 -48 58 -74
75 -26 17 -60 50 -75 75 -16 24 -49 57 -74 74 -25 17 -57 46 -70 67 -13 20
-49 63 -80 96 -31 33 -65 74 -75 90 -10 17 -29 41 -41 55 -31 36 -111 155
-135 202 -11 22 -40 64 -64 93 -55 68 -115 241 -92 264 18 18 270 14 314 -4
49 -21 257 -21 306 0 24 10 70 15 132 15 132 0 235 34 320 107 22 18 51 36 65
40 33 8 60 32 60 54 0 10 4 21 10 24 5 3 39 42 75 87 l65 81 0 184 0 183 -39
78 c-22 42 -49 91 -60 107 -12 17 -21 38 -21 47 0 10 -22 43 -50 73 -27 30
-60 72 -74 92 -26 42 -52 67 -107 103 -20 13 -45 37 -55 53 -10 16 -48 51 -84
79 -36 27 -78 65 -93 84 -17 20 -43 38 -66 44 -20 5 -55 25 -77 43 -39 34
-173 107 -195 107 -7 0 -51 18 -98 41 -101 48 -190 79 -225 79 -14 0 -28 5
-31 10 -4 6 -78 10 -189 10 l-184 0 -5 -27z m-222 -883 c89 -5 156 -13 185
-24 77 -29 148 -64 191 -96 25 -18 54 -30 73 -30 66 0 286 -178 286 -231 0
-26 -13 -30 -76 -23 -43 5 -66 15 -98 40 -22 19 -62 45 -88 59 l-47 25 -78 0
c-90 0 -113 -11 -142 -69 -27 -53 -61 -156 -61 -185 0 -15 -8 -30 -20 -36 -26
-14 -113 24 -167 73 -38 34 -93 67 -112 67 -5 0 -54 45 -108 99 l-98 99 -23
70 c-23 73 -22 88 10 135 l19 27 62 1 c34 0 71 4 82 9 11 5 31 7 45 4 14 -3
88 -9 165 -14z m2042 -2235 c19 -8 53 -15 75 -15 29 0 59 -12 116 -46 42 -26
89 -58 105 -72 15 -14 42 -31 59 -37 18 -6 44 -28 62 -53 17 -23 52 -56 79
-73 26 -17 59 -49 75 -71 15 -23 45 -62 68 -87 68 -77 74 -90 74 -161 0 -36
-4 -71 -9 -79 l-9 -14 -32 12 c-18 6 -44 11 -57 11 -30 0 -85 25 -137 62 -21
15 -52 28 -68 28 -46 0 -313 163 -354 216 -13 17 -35 65 -49 108 -14 43 -33
92 -42 109 -9 18 -24 59 -34 91 -26 85 -4 105 78 71z"/>
</g>
</svg>
