<?xml version="1.0" standalone="no"?>
<!DOCTYPE svg PUBLIC "-//W3C//DTD SVG 20010904//EN"
 "http://www.w3.org/TR/2001/REC-SVG-20010904/DTD/svg10.dtd">
<svg version="1.0" xmlns="http://www.w3.org/2000/svg"
 width="363.000000pt" height="441.000000pt" viewBox="0 0 363.000000 441.000000"
 preserveAspectRatio="xMidYMid meet">
<metadata>
Created by potrace 1.16, written by Peter Selinger 2001-2019
</metadata>
<g transform="translate(0.000000,441.000000) scale(0.100000,-0.100000)"
fill="#000000" stroke="none">
<path d="M1057 4389 c-29 -15 -38 -25 -35 -42 4 -27 71 -67 113 -67 17 0 59
-14 93 -30 47 -22 78 -30 119 -30 57 0 106 -17 158 -56 17 -12 59 -37 95 -54
97 -49 194 -116 223 -154 15 -19 38 -36 55 -39 31 -6 66 -39 105 -97 12 -19
37 -40 54 -45 39 -13 233 -227 233 -258 0 -8 18 -36 39 -62 52 -63 111 -235
111 -326 1 -37 9 -87 20 -119 26 -75 25 -94 -11 -134 -17 -20 -35 -51 -40 -70
-5 -19 -31 -59 -57 -88 -26 -29 -58 -69 -72 -90 -25 -37 -67 -68 -93 -68 -7 0
-32 -12 -53 -28 -76 -53 -185 -92 -260 -92 -28 0 -68 -7 -87 -15 -52 -22 -392
-22 -444 0 -22 9 -68 15 -123 15 l-88 0 -23 19 -24 20 16 16 17 17 30 -16 c44
-23 72 -20 138 15 75 39 86 52 108 121 l19 57 -17 40 c-9 23 -16 56 -16 73 0
24 -10 41 -43 72 -24 23 -56 60 -70 83 -17 27 -45 52 -75 68 -53 30 -131 76
-213 129 -31 20 -68 36 -85 36 -16 0 -49 14 -74 30 -32 22 -57 30 -88 30 -23
0 -59 7 -79 15 -27 12 -79 15 -225 15 l-189 0 -61 -21 c-35 -11 -81 -38 -109
-61 l-49 -41 0 -115 0 -115 54 -66 c29 -36 59 -76 65 -88 6 -13 49 -47 95 -78
46 -30 103 -71 126 -90 23 -19 48 -35 56 -35 15 0 105 -50 205 -114 31 -20 68
-36 85 -36 57 0 116 -40 161 -110 24 -36 43 -71 43 -78 0 -19 97 -208 135
-264 19 -27 37 -65 41 -84 4 -23 18 -44 46 -65 21 -17 51 -54 65 -83 43 -85
82 -136 209 -266 66 -69 128 -138 137 -155 18 -36 320 -336 374 -372 21 -14
58 -43 83 -65 79 -69 157 -126 210 -154 28 -15 59 -38 68 -51 44 -63 65 -83
87 -83 27 0 84 -44 73 -56 -10 -9 -71 9 -162 47 -38 16 -78 29 -90 29 -33 0
-134 38 -175 66 -19 13 -42 24 -49 24 -8 0 -43 13 -79 30 -35 16 -76 30 -91
30 -15 0 -47 14 -72 30 -25 16 -51 30 -58 30 -24 0 -69 32 -86 60 -11 20 -16
52 -16 106 l0 78 -88 88 -88 88 -47 0 c-26 0 -64 7 -84 15 -49 20 -102 19
-176 -5 -119 -40 -137 -99 -63 -210 51 -76 127 -150 154 -150 9 0 55 -25 100
-55 107 -71 155 -95 189 -95 15 0 48 -14 73 -30 25 -16 52 -30 60 -30 8 0 29
-9 45 -21 55 -37 124 -69 151 -69 14 0 55 -14 91 -30 35 -17 70 -30 76 -30 7
0 54 -20 105 -45 64 -31 107 -45 135 -45 28 0 73 -16 155 -55 136 -66 218 -95
268 -95 19 0 65 -14 101 -30 35 -17 69 -30 74 -30 6 0 35 -11 64 -25 71 -32
260 -95 286 -95 11 0 50 -13 86 -30 35 -16 71 -30 79 -30 8 0 26 -11 40 -25
l25 -25 118 0 118 0 13 43 c7 23 17 46 22 52 4 5 8 21 8 37 0 20 -8 31 -30 43
-16 8 -34 15 -40 15 -7 0 -41 14 -77 30 -35 17 -69 30 -75 30 -5 0 -39 14 -75
30 -35 17 -76 30 -91 30 -15 0 -47 14 -72 30 -25 16 -51 30 -58 30 -7 0 -43
18 -80 40 -37 23 -78 44 -92 47 -25 6 -108 52 -210 116 -30 19 -67 37 -81 41
-14 3 -54 30 -88 61 -34 30 -69 55 -77 55 -42 0 -144 65 -204 131 -19 21 -53
44 -74 51 -27 9 -49 27 -70 55 -17 24 -49 55 -71 69 -22 15 -61 45 -86 68 -25
22 -64 53 -87 68 -22 15 -56 52 -75 81 -20 29 -55 66 -79 81 -24 15 -54 44
-68 64 -13 20 -43 57 -65 82 -23 25 -58 72 -79 105 -21 32 -60 80 -87 106 -28
26 -49 56 -49 68 0 11 -13 35 -29 53 -46 54 -120 167 -158 242 -19 39 -45 85
-57 101 -36 50 -48 85 -35 101 17 21 336 20 386 -1 19 -8 48 -15 63 -15 15 0
44 7 63 15 26 11 73 15 162 15 l126 0 62 21 c103 35 359 167 401 207 21 20 49
55 63 76 14 22 45 60 69 86 l43 46 32 99 32 99 -12 43 c-15 58 -14 97 4 140
25 60 19 142 -15 215 -16 34 -30 76 -30 91 0 30 -29 95 -65 142 -12 17 -34 53
-48 81 -24 48 -86 114 -107 114 -5 0 -56 44 -112 98 -57 54 -122 111 -146 127
-24 16 -62 45 -85 65 -23 21 -61 47 -84 59 -23 11 -50 33 -60 47 -45 65 -87
104 -122 114 -20 5 -60 21 -89 35 -28 14 -57 25 -63 25 -6 0 -40 14 -76 30
-35 17 -75 30 -89 30 -14 0 -41 7 -61 15 -19 8 -62 15 -94 15 -32 0 -61 5 -64
10 -10 16 -97 9 -138 -11z m-458 -1265 c18 -8 45 -14 58 -14 30 0 85 -25 137
-62 21 -15 46 -28 55 -28 9 0 30 -9 46 -21 17 -11 57 -34 89 -50 104 -54 219
-193 200 -243 -7 -19 -7 -19 -69 -1 -72 22 -104 39 -159 85 -59 49 -108 54
-153 16 l-28 -24 -5 -94 -5 -93 -47 -3 c-60 -4 -159 40 -237 104 -36 30 -63
44 -83 44 -22 0 -43 13 -86 58 -32 31 -69 64 -83 73 -13 9 -42 45 -63 79 l-39
63 17 32 c20 37 63 65 101 65 14 0 36 5 47 11 55 30 237 31 307 3z m709 -2070
c30 -21 29 -54 -1 -54 -27 0 -72 43 -62 59 9 16 37 14 63 -5z"/>
</g>
</svg>
