<?xml version="1.0" standalone="no"?>
<!DOCTYPE svg PUBLIC "-//W3C//DTD SVG 20010904//EN"
 "http://www.w3.org/TR/2001/REC-SVG-20010904/DTD/svg10.dtd">
<svg version="1.0" xmlns="http://www.w3.org/2000/svg"
 width="222.000000pt" height="324.000000pt" viewBox="0 0 222.000000 324.000000"
 preserveAspectRatio="xMidYMid meet">
<metadata>
Created by potrace 1.16, written by Peter Selinger 2001-2019
</metadata>
<g transform="translate(0.000000,324.000000) scale(0.100000,-0.100000)"
fill="#000000" stroke="none">
<path d="M635 3230 c-3 -5 -14 -10 -24 -10 -29 0 -71 -39 -71 -66 0 -26 42
-59 90 -71 14 -3 49 -16 78 -29 73 -33 167 -64 194 -64 13 0 37 -9 53 -21 54
-37 164 -89 238 -113 75 -24 149 -66 224 -127 23 -19 67 -52 97 -73 31 -22 63
-50 71 -62 8 -13 37 -37 63 -55 26 -17 59 -47 72 -68 13 -20 47 -61 76 -91 95
-100 167 -219 209 -343 l25 -72 0 -110 0 -111 -33 -69 c-43 -89 -118 -171
-215 -235 -61 -39 -86 -50 -118 -50 -23 0 -58 -7 -77 -15 -20 -8 -61 -15 -90
-15 -30 0 -71 -7 -90 -15 -45 -19 -271 -21 -314 -3 -15 6 -66 15 -113 19 -207
17 -290 35 -408 90 -23 11 -77 31 -120 44 -118 39 -161 62 -213 116 l-47 49
-43 0 -43 0 -53 -56 -53 -56 0 -88 0 -89 23 -18 c36 -29 57 -65 57 -100 l0
-32 54 -41 c30 -22 66 -59 81 -81 16 -22 49 -55 74 -73 26 -19 61 -55 79 -80
19 -26 48 -53 65 -62 126 -64 247 -169 247 -215 0 -9 18 -39 41 -65 22 -27 65
-98 96 -158 30 -61 73 -131 95 -157 23 -28 50 -76 64 -114 12 -37 37 -91 55
-121 l33 -54 32 0 c24 0 39 8 58 31 30 36 31 44 11 92 -8 20 -15 48 -15 62 0
33 -31 93 -64 124 -14 14 -26 30 -26 37 0 7 -20 55 -45 106 -66 136 -53 154
77 108 64 -23 101 -30 162 -30 l79 0 43 44 44 43 0 54 0 54 -41 60 c-56 83
-76 103 -133 132 -26 13 -66 38 -89 54 -22 16 -46 29 -54 29 -8 0 -44 14 -80
30 -35 17 -75 30 -89 30 -14 0 -41 7 -61 15 -19 8 -57 15 -83 15 l-48 0 -44
-36 c-23 -20 -53 -41 -66 -47 l-22 -10 -43 31 c-23 17 -62 45 -88 63 -25 17
-56 47 -69 68 -14 20 -48 63 -77 95 -53 60 -67 101 -39 112 16 6 293 -84 374
-121 29 -14 63 -25 77 -25 13 0 36 -5 51 -10 19 -7 37 -7 60 0 25 9 40 8 69
-5 l37 -15 298 0 298 0 35 15 c20 8 54 15 76 15 23 0 67 13 104 30 36 16 72
30 79 30 8 0 35 16 61 36 l46 36 36 -13 36 -13 9 14 c6 8 10 26 10 40 0 28 36
87 83 137 38 41 66 123 67 195 0 31 5 60 10 63 6 4 10 58 10 130 0 72 -4 126
-10 130 -5 3 -10 24 -10 46 0 55 -36 157 -69 194 -14 17 -48 64 -75 105 -54
83 -248 287 -311 328 -22 14 -67 51 -100 82 -33 32 -82 70 -110 84 -27 15 -75
43 -105 62 -30 19 -71 39 -90 44 -19 5 -59 21 -88 35 -28 14 -57 25 -63 25
-20 0 -136 58 -180 89 -23 17 -54 31 -68 31 -26 0 -190 51 -223 70 -23 13 -75
13 -83 0z m352 -2370 c35 -16 71 -30 78 -30 14 0 120 -80 142 -108 7 -8 10
-18 8 -22 -7 -12 -86 7 -142 34 -29 14 -58 26 -65 26 -6 0 -40 14 -75 31 -72
35 -91 59 -67 83 22 23 47 20 121 -14z"/>
</g>
</svg>
