<?xml version="1.0" standalone="no"?>
<!DOCTYPE svg PUBLIC "-//W3C//DTD SVG 20010904//EN"
 "http://www.w3.org/TR/2001/REC-SVG-20010904/DTD/svg10.dtd">
<svg version="1.0" xmlns="http://www.w3.org/2000/svg"
 width="516.000000pt" height="210.000000pt" viewBox="0 0 516.000000 210.000000"
 preserveAspectRatio="xMidYMid meet">
<metadata>
Created by potrace 1.16, written by Peter Selinger 2001-2019
</metadata>
<g transform="translate(0.000000,210.000000) scale(0.100000,-0.100000)"
fill="#000000" stroke="none">
<path d="M13 2073 c-7 -15 -13 -58 -13 -96 l0 -68 55 -75 c30 -40 59 -74 64
-74 5 0 42 -30 82 -68 41 -37 90 -78 111 -92 51 -34 68 -68 68 -134 0 -57 20
-108 69 -181 12 -16 21 -43 21 -58 0 -41 15 -64 62 -93 44 -28 154 -124 228
-198 25 -25 52 -46 59 -46 7 0 42 -14 78 -30 35 -17 70 -30 76 -30 7 0 30 -12
52 -27 37 -25 104 -44 170 -47 l29 -1 10 28 10 27 -21 27 c-12 18 -42 35 -79
48 -33 11 -75 32 -94 47 -19 14 -51 33 -70 43 -128 63 -250 170 -250 218 0 10
-19 39 -43 65 -76 82 -77 85 -77 203 l0 106 -18 15 c-9 8 -29 18 -45 22 -15 4
-61 38 -101 76 -40 39 -78 70 -83 70 -16 0 -85 80 -80 93 7 20 47 9 87 -23 21
-17 41 -30 45 -30 4 0 24 -13 45 -30 21 -16 42 -30 46 -30 5 0 31 -19 57 -41
27 -23 110 -72 185 -109 75 -38 159 -87 186 -109 26 -23 56 -41 65 -41 9 0 52
-24 96 -53 44 -29 101 -65 126 -79 25 -15 78 -59 117 -98 39 -38 76 -70 82
-70 11 0 103 -52 200 -113 30 -19 71 -43 90 -52 19 -10 55 -34 80 -55 47 -39
165 -102 211 -113 14 -4 54 -31 88 -62 34 -30 69 -55 78 -55 9 0 37 -13 62
-29 25 -16 91 -50 146 -76 55 -26 116 -56 135 -66 33 -18 227 -114 295 -146
17 -7 43 -32 58 -54 26 -36 90 -79 118 -79 16 0 145 -65 206 -104 51 -32 166
-76 201 -76 20 0 119 -33 129 -43 3 -4 27 -7 52 -7 l46 1 28 43 c15 24 27 57
27 74 0 50 28 58 95 27 84 -38 170 -65 209 -65 19 0 47 -5 63 -12 15 -6 53
-15 83 -19 30 -4 84 -12 120 -18 36 -6 102 -11 147 -11 45 0 85 -5 88 -10 8
-13 72 -13 80 0 3 6 18 10 33 10 15 1 97 24 182 53 l155 52 23 35 c37 56 72
90 100 96 40 10 62 33 62 66 0 16 7 45 15 65 10 24 15 70 15 139 0 58 4 106
10 109 6 4 10 52 9 113 l-1 107 -21 40 -22 40 -41 5 c-67 9 -131 69 -147 140
-4 15 -79 95 -184 197 -238 231 -233 226 -271 272 -19 23 -48 44 -65 49 -38
11 -124 65 -185 116 -30 24 -54 36 -74 36 -35 0 -198 75 -259 120 -25 18 -54
30 -73 30 -17 0 -60 14 -94 30 -96 45 -212 40 -212 -10 0 -27 30 -40 90 -40
l52 0 51 -45 c62 -54 155 -105 192 -105 38 0 92 -26 147 -71 25 -21 78 -55
117 -74 39 -20 101 -56 138 -81 99 -67 293 -263 360 -364 32 -47 78 -109 105
-138 26 -29 52 -69 57 -88 5 -20 21 -50 34 -67 58 -76 117 -233 117 -311 0
-45 -21 -107 -74 -216 -7 -15 -38 -38 -76 -58 -36 -18 -90 -48 -120 -66 -53
-32 -115 -49 -172 -47 -31 1 -103 1 -145 0 -57 -1 -199 18 -220 29 -12 7 -39
12 -60 12 -22 0 -77 13 -123 30 -47 16 -104 30 -126 30 l-42 0 -62 47 c-108
83 -123 93 -149 100 -55 13 -110 44 -169 97 l-63 56 -68 0 c-73 0 -101 -16
-101 -58 0 -26 43 -77 92 -108 21 -13 49 -42 63 -65 15 -22 42 -49 61 -61 36
-21 51 -67 17 -53 -31 12 -117 36 -163 45 -48 9 -130 48 -220 106 -30 19 -71
39 -91 44 -20 6 -64 35 -98 65 -34 30 -70 55 -80 55 -23 0 -252 112 -294 144
-18 14 -63 35 -102 47 -54 17 -78 31 -103 61 -24 27 -47 42 -78 49 -44 11
-178 95 -242 150 -22 20 -44 29 -66 29 -22 0 -48 11 -76 33 -94 70 -137 99
-185 123 -27 15 -70 43 -95 64 -25 20 -68 49 -95 63 -28 14 -77 48 -110 76
-33 28 -91 67 -130 87 -38 20 -90 53 -115 74 -25 20 -68 49 -95 63 -28 14 -72
44 -99 66 -26 23 -56 41 -65 41 -9 0 -36 14 -61 30 -25 16 -52 30 -61 30 -9 0
-35 15 -59 33 -24 17 -62 45 -84 60 -23 16 -59 46 -81 67 -22 21 -62 50 -90
64 -27 15 -85 49 -128 76 l-79 50 -81 0 -82 0 -12 -27z"/>
</g>
</svg>
