<?xml version="1.0" standalone="no"?>
<!DOCTYPE svg PUBLIC "-//W3C//DTD SVG 20010904//EN"
 "http://www.w3.org/TR/2001/REC-SVG-20010904/DTD/svg10.dtd">
<svg version="1.0" xmlns="http://www.w3.org/2000/svg"
 width="555.000000pt" height="318.000000pt" viewBox="0 0 555.000000 318.000000"
 preserveAspectRatio="xMidYMid meet">
<metadata>
Created by potrace 1.16, written by Peter Selinger 2001-2019
</metadata>
<g transform="translate(0.000000,318.000000) scale(0.100000,-0.100000)"
fill="#000000" stroke="none">
<path d="M3877 3154 c-6 -32 26 -69 51 -59 54 23 100 17 235 -29 75 -25 147
-46 159 -46 28 0 136 -50 181 -84 18 -13 52 -34 77 -46 25 -12 65 -39 90 -59
25 -20 79 -59 120 -86 65 -43 177 -138 273 -232 80 -79 144 -167 197 -273 72
-144 95 -220 81 -263 -6 -16 -11 -75 -11 -130 l0 -100 -31 -71 c-17 -39 -34
-77 -38 -84 -3 -8 -22 -20 -41 -26 -19 -7 -83 -36 -141 -64 l-106 -52 -68 0
c-38 0 -88 -7 -116 -17 l-49 -18 -49 18 c-28 10 -78 17 -118 17 l-68 0 -36 24
c-50 34 -149 66 -206 66 -103 0 -365 119 -471 214 l-63 56 -55 0 -56 0 -29
-29 c-33 -33 -35 -53 -14 -104 8 -20 15 -48 15 -62 0 -52 70 -167 159 -262
218 -231 351 -358 432 -412 43 -29 220 -196 382 -358 l32 -33 -20 0 c-33 0
-145 39 -175 60 -15 11 -67 32 -116 48 -49 16 -108 39 -131 51 -23 11 -47 21
-53 21 -7 0 -41 14 -77 30 -79 37 -114 37 -177 2 -66 -36 -73 -50 -58 -107 7
-25 12 -73 12 -108 l0 -62 -46 -69 c-25 -38 -53 -76 -62 -83 -22 -17 -97 -53
-112 -53 -5 0 -34 -12 -63 -26 -28 -14 -72 -29 -97 -34 -58 -11 -123 -28 -181
-46 -37 -12 -87 -14 -245 -10 -110 3 -226 8 -259 11 -33 3 -145 8 -250 13
-121 4 -198 12 -212 20 -13 7 -58 12 -110 12 l-88 0 -45 30 -45 30 -58 0 c-32
0 -74 7 -94 15 -23 10 -69 15 -135 15 -65 0 -111 5 -135 15 -19 8 -52 15 -72
15 -39 0 -245 66 -310 99 -25 13 -60 21 -93 21 -55 0 -247 59 -327 99 -22 12
-52 21 -66 21 -14 0 -42 7 -62 15 -19 8 -47 15 -62 15 -27 0 -72 21 -156 73
-52 33 -168 76 -205 77 -14 0 -54 14 -88 30 -35 17 -77 30 -93 30 l-29 0 0
-39 0 -39 30 -7 c17 -4 54 -23 83 -42 68 -46 173 -99 215 -108 17 -3 53 -21
80 -39 86 -60 201 -106 264 -106 37 0 155 -38 217 -69 22 -12 51 -21 64 -21
12 0 61 -13 107 -30 47 -16 94 -30 104 -30 11 0 81 -20 155 -44 148 -48 201
-63 273 -76 26 -5 56 -13 67 -19 11 -7 82 -11 168 -11 l148 0 45 -30 45 -30
88 0 c55 0 101 -6 124 -15 28 -12 86 -15 285 -15 198 0 256 -3 285 -15 19 -8
48 -15 64 -15 15 0 31 -5 34 -10 8 -13 132 -13 140 0 3 5 33 10 66 10 33 0 70
5 82 12 12 6 56 15 97 19 83 8 121 17 255 60 50 16 102 29 116 29 23 0 75 35
187 126 18 15 46 52 62 83 16 31 47 78 69 105 23 26 41 56 41 65 0 56 76 55
198 -4 52 -25 99 -45 106 -45 6 0 28 -11 48 -25 20 -14 72 -36 115 -50 43 -14
97 -34 120 -45 23 -11 97 -38 165 -60 68 -22 174 -65 236 -95 62 -30 118 -55
125 -55 13 0 67 -28 148 -78 70 -42 97 -39 126 13 43 76 23 112 -94 170 -74
36 -188 110 -233 150 -14 12 -45 33 -70 47 -25 14 -54 36 -65 48 -11 12 -36
30 -56 41 -56 28 -169 107 -214 148 -22 21 -60 50 -85 67 -24 16 -105 90 -180
164 -74 74 -154 148 -177 163 -51 35 -151 138 -185 192 -14 22 -45 58 -68 80
-23 22 -55 57 -72 78 l-30 37 12 15 c18 22 44 19 117 -15 35 -17 76 -30 91
-30 15 0 56 -14 90 -30 35 -17 80 -30 101 -30 20 0 75 -13 121 -30 l85 -30
235 0 235 0 85 30 c46 17 95 30 109 30 33 0 148 78 195 132 94 108 136 171
136 204 0 18 5 36 10 39 6 4 10 78 10 189 l0 184 -15 12 c-8 7 -22 35 -30 63
-8 27 -25 64 -38 81 -13 17 -34 51 -47 76 -12 25 -48 72 -80 105 -31 33 -68
78 -82 100 -36 56 -120 134 -205 189 -40 26 -82 61 -94 77 -11 16 -39 39 -62
51 -23 11 -55 31 -72 44 -41 31 -223 120 -263 129 -17 3 -54 22 -81 40 -52 36
-154 75 -195 75 -14 0 -28 5 -31 10 -4 6 -78 10 -189 10 l-184 0 -5 -26z"/>
</g>
</svg>
