<?xml version="1.0" standalone="no"?>
<!DOCTYPE svg PUBLIC "-//W3C//DTD SVG 20010904//EN"
 "http://www.w3.org/TR/2001/REC-SVG-20010904/DTD/svg10.dtd">
<svg version="1.0" xmlns="http://www.w3.org/2000/svg"
 width="600.000000pt" height="384.000000pt" viewBox="0 0 600.000000 384.000000"
 preserveAspectRatio="xMidYMid meet">
<metadata>
Created by potrace 1.16, written by Peter Selinger 2001-2019
</metadata>
<g transform="translate(0.000000,384.000000) scale(0.100000,-0.100000)"
fill="#000000" stroke="none">
<path d="M4310 3816 c0 -44 10 -56 46 -56 18 0 59 -11 90 -25 31 -14 62 -25
68 -25 16 0 202 -95 266 -136 30 -19 67 -38 83 -41 15 -3 37 -18 48 -34 11
-16 85 -72 164 -124 159 -106 267 -209 284 -270 5 -19 25 -53 44 -75 24 -28
47 -76 73 -153 l39 -112 0 -132 0 -132 -31 -33 c-18 -18 -41 -51 -52 -73 -27
-54 -66 -92 -132 -126 -30 -15 -68 -37 -85 -48 -16 -12 -42 -21 -56 -21 -15 0
-43 -7 -62 -15 -29 -12 -85 -15 -270 -15 l-233 0 -29 30 c-17 18 -39 30 -55
30 -36 0 -136 37 -179 66 -22 15 -50 24 -74 24 -65 0 -174 41 -226 85 -62 53
-161 100 -193 92 -13 -4 -40 -17 -59 -30 l-34 -23 -3 -76 c-4 -108 27 -199
109 -318 60 -87 308 -328 375 -364 37 -21 69 -47 89 -76 23 -33 43 -49 73 -58
23 -8 75 -43 119 -80 179 -154 256 -208 321 -227 25 -8 64 -27 86 -43 23 -16
92 -55 154 -87 62 -32 121 -69 130 -82 9 -14 50 -61 90 -105 39 -45 72 -85 72
-91 0 -23 158 -170 211 -198 31 -15 73 -44 94 -63 l38 -36 -7 -32 c-13 -66
-49 -103 -148 -152 l-94 -46 -202 0 c-158 0 -211 3 -239 15 -19 8 -53 15 -75
15 -21 0 -55 7 -75 15 -19 8 -60 15 -90 15 -33 0 -70 8 -96 20 -52 24 -64 34
-104 86 -21 26 -44 44 -62 47 -16 4 -38 18 -48 33 -10 15 -37 47 -59 71 l-41
43 -42 0 -41 0 -39 -35 c-28 -25 -44 -52 -60 -100 -11 -36 -21 -75 -21 -88 0
-33 -139 -152 -226 -193 l-72 -34 -98 0 -99 0 -85 -30 c-61 -22 -102 -30 -151
-30 -37 0 -83 -7 -102 -15 -51 -21 -303 -21 -354 0 -24 10 -71 15 -150 15 -78
0 -125 5 -150 15 -19 8 -53 15 -75 15 -21 0 -55 7 -75 15 -25 11 -73 15 -167
15 l-131 0 -45 30 c-25 16 -56 30 -70 30 -14 0 -45 6 -70 14 -60 19 -125 35
-182 46 -26 5 -56 13 -67 19 -11 6 -44 11 -73 11 -66 0 -139 24 -286 95 -62
30 -124 55 -138 55 -14 0 -55 14 -91 30 -35 17 -69 30 -75 30 -17 0 -81 32
-122 62 -21 15 -52 28 -68 28 -35 0 -145 49 -192 85 -18 14 -55 32 -82 40 -27
8 -65 26 -84 40 -19 15 -57 38 -84 51 -26 14 -66 39 -89 55 -25 18 -52 29 -73
29 -22 0 -46 11 -76 35 -61 49 -192 115 -228 115 l-30 0 0 -22 c1 -28 105
-125 170 -158 25 -13 59 -33 75 -45 17 -13 85 -50 153 -84 67 -34 139 -76 160
-95 40 -36 92 -66 115 -66 8 0 83 -34 166 -75 84 -41 162 -75 174 -75 36 0
132 -36 255 -95 62 -30 124 -55 138 -55 14 0 51 -12 82 -26 31 -14 95 -38 142
-53 47 -16 104 -38 127 -50 31 -15 61 -21 110 -21 52 0 95 -9 185 -40 64 -21
135 -48 157 -59 22 -12 59 -21 81 -21 22 0 57 -7 77 -15 l35 -15 270 0 269 0
25 -25 25 -25 179 0 c108 0 181 4 185 10 4 6 61 10 139 10 96 0 144 4 169 15
24 10 70 15 135 15 66 0 112 5 135 15 20 8 48 15 62 15 28 0 152 59 200 95 17
12 49 32 71 43 24 12 58 43 78 70 20 28 48 57 62 67 l27 17 38 -12 c22 -8 65
-37 97 -66 71 -64 150 -94 247 -94 36 0 82 -7 102 -15 27 -12 79 -15 225 -15
145 0 197 -3 225 -15 55 -23 114 -19 186 15 36 17 77 30 92 30 37 0 103 36
156 85 25 23 64 54 86 68 48 31 93 82 93 107 0 10 5 22 10 25 6 3 10 40 10 80
l0 74 -30 16 c-19 10 -58 15 -117 15 -100 0 -101 1 -203 91 -98 89 -121 112
-170 174 l-44 57 19 15 c11 7 43 21 71 29 40 11 64 27 103 69 l51 54 -1 48
c-1 88 -14 142 -43 172 -27 29 -134 71 -179 71 -12 0 -42 14 -67 30 -25 16
-52 30 -60 30 -23 -1 -145 -45 -182 -67 -33 -19 -87 -103 -88 -135 0 -10 -9
-22 -20 -28 -25 -14 -48 -2 -109 55 -25 24 -80 60 -121 80 -84 42 -130 75
-210 151 -61 58 -143 124 -208 168 -23 16 -58 50 -77 76 -19 26 -50 58 -69 71
-19 13 -47 42 -61 65 -14 23 -42 56 -62 75 -87 83 -118 163 -77 204 19 19 28
16 134 -36 50 -24 95 -39 118 -39 54 0 227 -62 260 -92 l27 -26 90 -6 c107 -7
88 -7 300 3 182 8 228 18 322 71 29 17 63 30 75 30 47 1 132 55 168 108 19 28
50 62 67 77 20 17 37 42 44 68 6 23 21 62 34 87 24 48 38 113 37 170 -2 80
-19 227 -30 253 -7 16 -12 39 -12 53 0 36 -36 102 -85 155 -23 25 -54 64 -68
86 -24 37 -52 64 -111 106 -14 10 -29 30 -32 45 -8 35 -32 62 -54 62 -10 0
-46 32 -81 70 -44 49 -75 73 -100 80 -19 5 -53 25 -75 43 -38 34 -173 107
-195 107 -17 0 -80 31 -114 56 -16 12 -59 32 -95 43 -36 12 -73 26 -82 31 -10
6 -76 10 -148 10 l-130 0 0 -24z m1087 -2506 c35 -16 71 -30 79 -30 20 0 64
-45 64 -65 0 -9 -11 -27 -25 -40 -37 -38 -92 -34 -167 12 -86 53 -110 99 -72
137 22 23 47 20 121 -14z"/>
</g>
</svg>
