<?xml version="1.0" standalone="no"?>
<!DOCTYPE svg PUBLIC "-//W3C//DTD SVG 20010904//EN"
 "http://www.w3.org/TR/2001/REC-SVG-20010904/DTD/svg10.dtd">
<svg version="1.0" xmlns="http://www.w3.org/2000/svg"
 width="822.000000pt" height="375.000000pt" viewBox="0 0 822.000000 375.000000"
 preserveAspectRatio="xMidYMid meet">
<metadata>
Created by potrace 1.16, written by Peter Selinger 2001-2019
</metadata>
<g transform="translate(0.000000,375.000000) scale(0.100000,-0.100000)"
fill="#000000" stroke="none">
<path d="M6696 3718 c29 -57 43 -68 93 -68 34 0 57 -8 91 -30 25 -16 56 -30
70 -30 30 0 152 -41 207 -68 21 -11 52 -23 70 -26 31 -7 173 -96 223 -140 14
-12 45 -35 69 -52 25 -16 75 -58 111 -94 36 -36 78 -73 93 -83 16 -10 31 -33
37 -57 7 -24 24 -50 46 -68 63 -52 104 -119 104 -171 0 -34 8 -58 30 -91 l30
-45 0 -145 0 -145 -30 -45 c-16 -25 -30 -51 -30 -58 0 -13 -128 -140 -173
-171 -12 -8 -39 -18 -61 -22 -51 -9 -117 -26 -176 -45 -58 -18 -131 -18 -177
1 -22 9 -67 15 -120 15 -52 0 -97 6 -120 15 -23 10 -69 15 -132 15 -55 0 -115
6 -141 14 -60 19 -125 36 -177 45 -42 8 -51 13 -111 63 -20 17 -44 28 -63 28
-35 0 -144 48 -192 84 -65 49 -113 66 -183 66 l-67 0 -43 -44 c-48 -47 -52
-65 -29 -119 8 -20 15 -50 15 -67 0 -24 15 -47 70 -106 39 -41 77 -89 85 -105
9 -16 34 -41 57 -55 23 -15 72 -55 109 -90 38 -35 77 -64 87 -64 11 0 31 -15
45 -33 13 -18 44 -45 68 -60 24 -16 57 -46 72 -67 17 -24 74 -70 143 -116 63
-42 133 -92 156 -110 22 -19 43 -34 47 -34 17 0 75 -68 98 -115 14 -27 48 -75
76 -105 55 -60 86 -119 87 -163 0 -15 10 -45 22 -66 l22 -38 -22 -35 c-17 -28
-22 -51 -22 -109 0 -79 -6 -95 -64 -158 -50 -55 -106 -91 -140 -91 -18 0 -50
-13 -76 -30 -25 -16 -50 -30 -57 -30 -6 0 -40 -13 -75 -30 l-63 -30 -131 0
c-94 0 -142 -4 -167 -15 l-36 -15 -291 0 -291 0 -36 15 c-20 8 -66 15 -105 15
-38 0 -84 7 -105 15 -19 8 -60 15 -90 15 -29 0 -70 7 -90 15 -19 8 -60 15 -90
15 -29 0 -70 7 -90 15 -19 8 -65 15 -102 15 -36 0 -86 6 -111 14 -87 27 -136
38 -205 45 -38 4 -106 19 -150 33 -111 36 -160 48 -230 57 -34 5 -70 13 -82
19 -12 7 -40 12 -63 12 -23 0 -66 11 -96 25 -73 34 -168 65 -196 65 -13 0 -43
14 -68 30 -31 20 -57 30 -84 30 -49 0 -146 32 -249 82 -43 21 -82 38 -88 38
-6 0 -35 11 -65 25 -85 39 -302 106 -406 125 -26 5 -56 13 -67 19 -11 6 -45
11 -76 11 -30 0 -72 7 -92 15 -19 8 -45 15 -57 15 -33 0 -134 38 -175 66 -28
19 -49 24 -94 24 -32 0 -74 7 -94 15 -26 11 -74 15 -180 15 -105 0 -153 4
-180 15 -20 8 -66 15 -104 15 -38 0 -86 7 -107 15 l-38 16 -360 -5 c-197 -2
-370 -5 -384 -6 -14 -1 -51 2 -82 6 -43 5 -68 2 -98 -10 -22 -9 -65 -16 -96
-16 -30 0 -64 -5 -75 -11 -11 -6 -41 -14 -67 -19 -226 -42 -299 -80 -459 -237
l-83 -83 0 -75 0 -75 35 -17 c46 -22 81 -10 113 37 60 90 121 153 185 193 107
66 150 87 175 87 12 0 82 20 155 45 l133 45 171 0 c130 0 179 4 207 15 l37 16
39 -12 c31 -9 49 -9 79 -1 22 7 107 12 203 12 l164 0 84 -30 c68 -24 102 -30
168 -30 50 0 97 -6 119 -15 20 -8 66 -15 105 -15 38 0 84 -7 105 -15 22 -9 68
-15 122 -15 l86 0 45 -30 c25 -16 56 -30 70 -30 13 0 65 -13 115 -29 133 -43
172 -52 250 -60 101 -10 273 -71 356 -127 74 -49 89 -67 89 -110 0 -36 82
-160 118 -178 15 -8 65 -49 112 -91 98 -88 131 -111 181 -125 19 -5 53 -25 75
-43 47 -41 90 -64 155 -83 30 -9 77 -38 123 -74 l74 -60 74 0 75 0 41 38 42
39 0 85 c0 66 -4 89 -16 99 -24 20 -104 126 -104 138 0 16 147 14 200 -3 58
-18 124 -35 175 -45 22 -4 56 -12 75 -18 91 -29 134 -36 245 -42 66 -4 130
-12 142 -19 12 -6 47 -12 78 -12 30 0 72 -7 92 -15 25 -11 73 -15 167 -15
l131 0 45 -30 45 -30 271 0 272 0 35 15 c26 11 73 15 165 15 93 0 140 4 165
15 20 8 52 15 72 15 35 0 225 59 279 87 45 23 207 133 239 162 16 14 45 58 65
96 38 74 53 147 56 270 l2 70 -23 42 c-13 23 -23 54 -23 70 0 26 -32 79 -117
193 -18 24 -33 51 -33 61 0 28 -41 67 -84 81 -28 9 -49 26 -71 58 -23 33 -43
49 -73 59 -27 8 -52 26 -68 47 -15 19 -83 72 -153 119 l-127 85 -156 157 c-99
101 -162 173 -172 198 l-17 39 13 13 13 13 105 -36 c58 -19 142 -52 188 -74
46 -22 94 -40 108 -40 14 0 41 -7 61 -15 19 -8 53 -15 75 -15 21 0 55 -7 75
-15 27 -11 77 -15 210 -15 132 0 182 -4 210 -15 45 -19 81 -19 126 0 23 9 68
15 121 15 l84 0 64 30 c34 16 69 30 76 30 39 0 194 102 246 162 123 142 166
216 166 282 0 25 5 48 10 51 11 7 14 158 3 168 -12 13 -43 111 -43 137 0 15
-16 49 -35 76 -20 27 -42 71 -50 97 -14 48 -97 151 -189 236 -22 20 -80 75
-130 123 l-91 87 -193 96 c-105 52 -197 95 -204 95 -7 0 -42 14 -76 30 -35 17
-68 30 -74 30 -5 0 -39 14 -75 30 -35 17 -77 30 -93 30 -16 0 -32 5 -35 10 -4
6 -57 10 -126 10 l-120 0 17 -32z m-2798 -3197 c37 -22 92 -56 123 -75 30 -20
62 -36 71 -36 18 0 88 -89 107 -137 27 -66 -10 -85 -53 -28 -15 19 -34 35 -42
35 -28 0 -148 61 -194 98 -25 21 -64 50 -88 66 -23 16 -53 39 -67 52 l-26 24
11 20 c18 34 80 27 158 -19z"/>
</g>
</svg>
