<?xml version="1.0" standalone="no"?>
<!DOCTYPE svg PUBLIC "-//W3C//DTD SVG 20010904//EN"
 "http://www.w3.org/TR/2001/REC-SVG-20010904/DTD/svg10.dtd">
<svg version="1.0" xmlns="http://www.w3.org/2000/svg"
 width="267.000000pt" height="375.000000pt" viewBox="0 0 267.000000 375.000000"
 preserveAspectRatio="xMidYMid meet">
<metadata>
Created by potrace 1.16, written by Peter Selinger 2001-2019
</metadata>
<g transform="translate(0.000000,375.000000) scale(0.100000,-0.100000)"
fill="#000000" stroke="none">
<path d="M1347 3732 c-23 -25 -21 -54 4 -86 l20 -26 45 0 c25 0 61 -7 81 -15
19 -8 45 -15 57 -15 37 0 170 -50 211 -79 22 -16 60 -38 85 -51 25 -12 65 -39
90 -59 25 -20 64 -49 86 -64 68 -46 322 -310 330 -343 4 -16 27 -69 51 -118
23 -49 43 -102 43 -116 0 -15 5 -41 11 -58 l11 -32 -33 -102 -32 -103 -66 -66
c-73 -73 -139 -109 -199 -109 -22 0 -56 -7 -75 -15 -20 -8 -54 -15 -75 -15
-22 0 -56 -7 -75 -15 -29 -12 -86 -15 -284 -15 l-248 0 -45 30 c-25 16 -58 30
-75 30 -29 0 -53 11 -164 75 -80 46 -213 134 -241 160 -14 13 -57 40 -97 59
-39 20 -111 63 -160 96 l-88 60 -113 0 -114 0 -29 -29 c-47 -48 -40 -72 48
-163 49 -50 99 -91 134 -108 31 -16 81 -51 111 -79 l54 -49 107 -36 c59 -20
117 -36 128 -36 11 0 50 -13 86 -30 35 -16 69 -30 75 -30 5 0 39 -13 75 -30
35 -16 70 -30 76 -30 26 -1 139 -83 161 -118 28 -43 84 -97 142 -135 22 -15
130 -118 241 -229 153 -155 203 -212 211 -239 5 -20 30 -63 56 -95 25 -33 63
-81 85 -109 21 -27 55 -83 76 -124 20 -41 52 -96 70 -123 18 -26 37 -62 40
-79 4 -18 20 -59 36 -93 l29 -61 0 -155 0 -156 -29 -83 c-16 -46 -38 -93 -49
-104 l-21 -20 -58 16 c-32 9 -108 41 -168 70 -61 30 -121 57 -135 60 -14 3
-43 22 -65 40 -39 33 -174 107 -195 107 -17 0 -127 66 -282 168 -110 73 -160
99 -232 123 -50 16 -109 42 -131 58 -63 45 -242 131 -273 131 -67 0 -83 -56
-22 -76 19 -6 59 -34 90 -62 31 -27 105 -75 166 -106 60 -32 134 -73 164 -92
30 -19 66 -37 80 -41 44 -11 246 -133 321 -194 26 -21 68 -48 95 -60 86 -37
205 -102 249 -135 17 -12 80 -48 142 -79 103 -52 163 -95 163 -116 0 -5 33 -9
74 -9 l74 0 31 28 c16 15 46 40 66 56 34 27 85 110 85 138 0 7 14 42 30 76
l30 64 0 81 c0 50 6 99 16 127 l16 45 -25 70 c-62 173 -151 366 -188 409 -47
54 -180 259 -219 336 l-39 75 -223 221 c-123 121 -242 233 -265 248 -48 32
-97 91 -88 106 4 6 69 10 159 10 114 0 163 4 189 15 27 11 77 15 197 15 l160
0 73 36 c39 20 85 46 102 58 43 30 71 44 116 56 22 6 46 22 56 36 10 14 39 53
66 86 26 34 47 69 47 79 0 10 5 21 10 24 6 4 10 63 10 144 0 107 -3 141 -14
150 -18 15 -66 159 -66 196 l0 28 -147 150 c-82 82 -166 161 -188 175 -22 14
-77 60 -122 101 -124 116 -201 171 -237 171 -17 0 -60 14 -94 30 -35 17 -74
30 -86 30 -12 0 -60 13 -106 30 -47 16 -97 30 -112 30 -15 0 -30 5 -33 10 -11
18 -100 12 -118 -8z"/>
<path d="M28 3264 l-28 -15 0 -54 c0 -38 6 -64 22 -90 13 -19 32 -50 43 -68
26 -41 65 -46 120 -14 41 23 94 103 95 142 1 79 -168 145 -252 99z"/>
</g>
</svg>
