<?xml version="1.0" standalone="no"?>
<!DOCTYPE svg PUBLIC "-//W3C//DTD SVG 20010904//EN"
 "http://www.w3.org/TR/2001/REC-SVG-20010904/DTD/svg10.dtd">
<svg version="1.0" xmlns="http://www.w3.org/2000/svg"
 width="714.000000pt" height="210.000000pt" viewBox="0 0 714.000000 210.000000"
 preserveAspectRatio="xMidYMid meet">
<metadata>
Created by potrace 1.16, written by Peter Selinger 2001-2019
</metadata>
<g transform="translate(0.000000,210.000000) scale(0.100000,-0.100000)"
fill="#000000" stroke="none">
<path d="M5944 2065 c-7 -38 7 -65 35 -65 29 -1 83 -33 325 -194 158 -105 245
-170 257 -190 10 -17 37 -45 61 -62 32 -23 56 -53 94 -125 28 -52 71 -125 97
-164 26 -39 47 -82 47 -96 0 -15 7 -43 15 -62 10 -24 15 -70 15 -132 0 -62 -5
-108 -15 -132 -8 -19 -15 -49 -15 -65 0 -34 -39 -78 -69 -78 -11 0 -35 -13
-54 -29 -18 -16 -64 -50 -103 -75 l-69 -46 -56 0 c-31 0 -73 -7 -92 -15 -48
-20 -186 -20 -234 0 -26 11 -74 15 -180 15 -105 0 -153 4 -180 15 -19 8 -47
15 -61 15 -14 0 -55 13 -91 29 -79 34 -160 67 -220 90 -32 12 -54 30 -76 61
-22 31 -44 49 -69 58 -57 18 -90 46 -131 107 -65 99 -177 134 -236 76 l-29
-29 0 -50 c0 -27 5 -63 11 -79 8 -24 6 -44 -6 -85 l-15 -55 -53 -44 c-105 -90
-182 -139 -216 -139 -6 0 -34 -11 -63 -25 -29 -13 -100 -40 -158 -60 l-105
-35 -126 0 c-90 0 -137 -4 -162 -15 -49 -20 -186 -20 -234 0 l-37 16 -364 -1
-363 -1 -24 15 c-17 11 -49 16 -110 16 -54 0 -99 6 -122 15 -23 10 -69 15
-135 15 -65 0 -111 5 -135 15 -19 8 -59 15 -87 15 -28 0 -71 6 -96 14 -78 25
-133 37 -195 45 -34 5 -70 13 -82 19 -12 7 -41 12 -65 12 -25 0 -66 11 -98 26
-91 42 -166 64 -222 64 -64 0 -136 33 -157 72 l-15 27 11 43 12 43 -25 42
c-13 23 -24 58 -24 77 0 20 -10 65 -21 100 l-22 65 -67 66 -68 65 -66 0 c-105
0 -184 -49 -232 -142 -36 -71 -32 -122 16 -218 l40 -79 131 -87 c72 -48 135
-97 141 -109 7 -16 5 -32 -6 -60 -9 -20 -16 -49 -16 -62 0 -38 -28 -78 -77
-109 -24 -15 -56 -46 -71 -68 -20 -30 -47 -51 -102 -78 -41 -21 -81 -38 -88
-38 -7 0 -34 -11 -60 -24 -26 -13 -93 -38 -150 -56 l-102 -32 -32 11 c-42 15
-79 14 -121 -4 -29 -12 -83 -15 -257 -15 l-220 0 0 -23 c0 -24 42 -44 113 -54
20 -3 40 -9 43 -14 9 -14 368 -11 382 3 10 10 17 10 32 0 21 -13 132 -17 143
-5 14 13 113 43 144 43 62 0 235 70 308 125 17 12 49 32 72 43 23 12 56 42 74
67 18 25 57 63 86 85 l53 41 0 34 c0 26 9 45 34 72 l33 37 74 -23 c41 -13 112
-27 159 -30 47 -4 120 -18 165 -33 92 -30 152 -46 213 -57 24 -4 56 -17 71
-29 l29 -21 128 -7 c71 -3 144 -13 163 -20 18 -8 65 -14 103 -14 38 0 84 -7
105 -15 23 -10 69 -15 132 -15 l96 0 75 -28 75 -27 350 -7 c193 -3 359 -7 370
-7 101 -2 396 17 418 27 16 6 45 12 65 12 20 0 75 14 122 30 46 17 93 30 105
30 32 1 239 75 287 103 68 40 200 159 232 210 16 25 43 53 61 63 l31 17 65
-30 c35 -16 76 -33 90 -36 14 -4 54 -31 88 -62 43 -38 70 -55 89 -55 15 0 47
-6 72 -14 78 -25 133 -37 195 -45 34 -5 70 -13 82 -19 12 -7 40 -12 63 -12 22
0 57 -7 77 -15 22 -9 67 -15 120 -15 52 0 97 -6 120 -15 24 -10 69 -15 137
-15 l101 0 85 30 c46 17 93 30 105 30 38 1 126 37 154 64 15 14 35 26 44 26
10 0 48 29 86 64 37 35 86 75 109 90 52 33 92 106 92 170 0 25 5 48 10 51 14
9 13 192 -1 201 -19 11 -99 186 -99 216 0 42 -45 123 -85 154 -19 14 -35 35
-35 46 0 24 -100 131 -155 166 -22 14 -77 61 -122 104 -45 43 -89 78 -98 78
-28 0 -87 31 -135 70 -48 40 -120 80 -143 80 -8 0 -39 18 -71 40 l-57 40 -89
0 -89 0 -7 -35z m-4752 -964 c34 -13 78 -60 83 -90 3 -14 10 -47 16 -74 12
-51 2 -77 -29 -77 -20 0 -93 60 -133 111 l-32 41 13 37 c22 62 35 70 82 52z"/>
</g>
</svg>
