<?xml version="1.0" standalone="no"?>
<!DOCTYPE svg PUBLIC "-//W3C//DTD SVG 20010904//EN"
 "http://www.w3.org/TR/2001/REC-SVG-20010904/DTD/svg10.dtd">
<svg version="1.0" xmlns="http://www.w3.org/2000/svg"
 width="756.000000pt" height="183.000000pt" viewBox="0 0 756.000000 183.000000"
 preserveAspectRatio="xMidYMid meet">
<metadata>
Created by potrace 1.16, written by Peter Selinger 2001-2019
</metadata>
<g transform="translate(0.000000,183.000000) scale(0.100000,-0.100000)"
fill="#000000" stroke="none">
<path d="M6118 1799 c-26 -44 -23 -56 22 -79 29 -15 59 -20 113 -20 l74 0 189
-95 c179 -91 225 -116 354 -198 30 -19 67 -37 82 -41 25 -6 180 -141 220 -192
55 -70 168 -252 168 -271 0 -12 12 -58 26 -102 l26 -81 -11 -31 c-6 -18 -11
-48 -11 -68 0 -46 -44 -177 -72 -216 -12 -16 -31 -36 -42 -44 -12 -8 -39 -34
-61 -57 -41 -44 -130 -84 -186 -84 -14 0 -44 -13 -65 -28 -21 -15 -55 -36 -76
-45 l-36 -17 -201 0 c-157 0 -210 3 -238 15 -19 8 -52 15 -72 15 -20 0 -75 13
-121 30 -47 16 -94 30 -105 30 -37 0 -170 50 -210 79 -22 16 -73 45 -113 66
l-73 39 -42 59 c-23 33 -54 73 -69 88 l-26 29 -77 0 c-45 0 -90 6 -112 15 -25
11 -72 15 -164 15 -77 0 -139 5 -156 12 -15 7 -84 16 -153 20 -69 4 -145 10
-170 12 -25 3 -97 9 -160 14 -63 4 -125 13 -137 20 -12 7 -54 12 -93 12 -40 0
-86 6 -107 15 -59 25 -121 19 -173 -15 l-45 -30 -128 0 c-91 0 -138 4 -164 15
-26 11 -76 15 -195 15 -118 0 -168 4 -195 15 -19 8 -53 15 -75 15 -23 0 -67
13 -105 30 -73 34 -110 37 -156 14 -54 -28 -67 -44 -67 -87 l0 -40 44 -43 c33
-34 51 -44 75 -44 107 0 300 -186 301 -290 0 -37 -25 -67 -76 -91 l-45 -20
-33 11 c-23 7 -41 7 -60 0 -40 -15 -121 -12 -163 5 -28 12 -86 15 -285 15
-198 0 -256 3 -285 15 -27 12 -81 15 -240 15 -158 0 -212 3 -240 15 l-35 15
-355 0 -354 0 -36 15 -35 15 -400 0 -399 0 -36 15 c-25 10 -71 15 -154 15
l-119 0 0 -38 0 -38 53 -16 c114 -35 146 -41 262 -47 68 -4 132 -13 148 -21
l28 -14 50 18 c36 13 60 16 87 10 48 -10 74 -12 327 -24 116 -6 237 -12 270
-15 33 -3 125 -8 205 -13 81 -4 155 -13 167 -20 15 -8 83 -12 228 -12 160 0
214 -3 242 -15 l35 -15 400 0 399 0 36 -15 c25 -11 73 -15 169 -15 78 0 135
-4 139 -10 8 -13 245 -13 245 -1 0 5 12 24 27 42 37 44 62 122 62 194 1 48 -5
70 -28 110 -108 191 -111 224 -22 192 35 -12 80 -17 160 -17 77 0 123 -5 148
-15 24 -10 70 -15 147 -15 69 0 128 -5 156 -14 81 -26 161 -40 174 -30 7 5 32
24 56 42 49 36 97 42 157 17 27 -12 81 -15 240 -15 158 0 212 -3 240 -15 22
-9 67 -15 120 -15 52 0 97 -6 120 -15 19 -8 54 -15 76 -15 27 0 55 -9 86 -29
25 -16 61 -32 80 -36 21 -5 50 -24 80 -55 35 -37 79 -65 178 -114 73 -36 138
-66 145 -66 7 0 38 -12 68 -26 82 -38 165 -64 205 -64 20 0 52 -7 72 -15 24
-10 70 -15 139 -15 58 0 106 -4 109 -10 8 -13 72 -13 80 0 4 6 61 10 138 10
l132 0 85 30 c46 17 101 30 122 30 39 0 152 50 212 94 17 11 55 35 85 51 43
23 62 42 87 84 17 30 41 62 52 71 28 23 62 94 62 129 0 16 5 33 10 36 6 4 10
63 10 145 0 82 -4 141 -10 145 -5 3 -10 17 -10 31 0 61 -79 241 -124 283 -14
14 -26 33 -26 43 0 24 -233 258 -258 258 -11 0 -26 8 -33 17 -23 28 -130 103
-147 103 -9 0 -80 31 -158 70 -79 38 -212 92 -296 120 -84 27 -161 55 -170 60
-10 6 -57 10 -105 10 l-88 0 -17 -31z"/>
</g>
</svg>
