<?xml version="1.0" standalone="no"?>
<!DOCTYPE svg PUBLIC "-//W3C//DTD SVG 20010904//EN"
 "http://www.w3.org/TR/2001/REC-SVG-20010904/DTD/svg10.dtd">
<svg version="1.0" xmlns="http://www.w3.org/2000/svg"
 width="708.000000pt" height="243.000000pt" viewBox="0 0 708.000000 243.000000"
 preserveAspectRatio="xMidYMid meet">
<metadata>
Created by potrace 1.16, written by Peter Selinger 2001-2019
</metadata>
<g transform="translate(0.000000,243.000000) scale(0.100000,-0.100000)"
fill="#000000" stroke="none">
<path d="M5557 2405 c-2 -16 2 -34 12 -45 19 -23 127 -60 174 -60 39 0 141
-34 177 -60 14 -10 81 -46 150 -81 68 -34 140 -77 160 -95 19 -17 54 -41 78
-53 23 -12 72 -50 110 -84 37 -35 88 -75 114 -90 30 -18 57 -44 73 -71 14 -25
42 -56 61 -71 19 -14 44 -45 55 -68 12 -23 36 -58 54 -77 18 -19 44 -53 59
-75 l26 -40 0 -131 0 -131 -21 -19 c-11 -10 -42 -48 -69 -84 l-48 -65 -64 -19
c-35 -11 -85 -30 -113 -42 -27 -13 -77 -32 -110 -43 l-59 -21 -258 0 -259 0
-36 15 c-19 8 -47 15 -62 15 -14 0 -55 14 -89 30 l-64 30 -82 0 c-56 0 -100 6
-141 21 -113 38 -133 51 -192 127 -23 29 -113 61 -173 62 -57 0 -84 -18 -115
-80 -30 -60 -33 -130 -8 -214 l18 -58 42 -32 c22 -17 55 -52 73 -79 17 -26 40
-53 51 -60 29 -17 101 -116 94 -127 -9 -15 -91 -12 -132 5 -26 11 -74 15 -180
15 -105 0 -153 4 -180 15 -19 8 -53 15 -75 15 -21 0 -55 7 -75 15 -22 9 -67
15 -120 15 -52 0 -97 6 -120 15 -19 8 -60 15 -90 15 -29 0 -70 7 -90 15 -22 9
-67 15 -120 15 -52 0 -97 6 -120 15 -23 10 -69 15 -133 15 -53 0 -112 5 -130
11 -24 9 -45 9 -86 -1 l-53 -13 -43 16 c-24 10 -61 17 -81 17 -21 0 -54 7 -74
15 -24 10 -71 15 -150 15 -78 0 -125 5 -150 15 -20 8 -66 15 -105 15 -38 0
-84 7 -105 15 -22 9 -67 15 -120 15 -52 0 -97 6 -120 15 -28 12 -84 15 -270
15 -185 0 -241 3 -270 15 -25 11 -74 15 -172 15 -99 1 -143 5 -161 15 -17 10
-58 14 -128 15 -68 0 -115 5 -139 15 -23 10 -69 15 -134 15 -54 0 -110 5 -125
10 -14 6 -97 13 -183 17 -95 3 -169 11 -190 19 -26 11 -112 14 -392 14 l-359
0 0 -23 c0 -29 48 -47 150 -56 41 -3 85 -12 97 -19 12 -6 54 -12 93 -12 40 0
86 -6 107 -15 27 -12 79 -15 225 -15 145 0 197 -3 225 -15 24 -10 71 -15 150
-15 78 0 125 -5 150 -15 28 -12 85 -15 277 -15 190 -1 246 -4 266 -15 16 -9
55 -14 112 -15 48 0 99 -5 115 -12 15 -6 71 -15 123 -20 52 -4 115 -10 140
-13 25 -2 104 -8 175 -13 72 -4 140 -13 152 -20 12 -7 54 -12 93 -12 40 0 86
-6 107 -15 26 -11 74 -15 180 -15 105 0 153 -4 180 -15 19 -8 65 -15 101 -15
102 0 178 -30 270 -109 161 -138 275 -221 302 -221 9 0 31 -11 51 -24 20 -14
104 -47 188 -75 l152 -51 87 0 87 0 40 23 c45 26 85 87 85 133 0 17 -11 57
-25 89 -34 77 -27 85 77 85 47 0 93 -6 115 -15 19 -8 53 -15 75 -15 21 0 55
-7 75 -15 22 -9 67 -15 120 -15 52 0 97 -6 120 -15 19 -8 53 -15 74 -15 21 0
50 -5 66 -12 15 -6 75 -15 133 -19 58 -4 128 -12 155 -17 56 -11 158 -59 218
-103 22 -16 47 -29 56 -29 9 0 33 -11 54 -25 94 -64 306 -155 361 -155 14 0
28 -5 31 -10 4 -6 53 -10 114 -10 l108 0 41 38 42 39 0 67 0 67 -47 55 c-50
58 -125 104 -168 104 -14 0 -42 7 -62 15 -24 10 -71 15 -150 15 -78 0 -125 5
-150 15 -19 8 -59 15 -87 15 -77 0 -177 36 -269 98 -27 18 -61 35 -76 39 -14
3 -60 36 -101 72 -41 37 -85 73 -96 81 -12 9 -41 44 -64 79 l-42 63 14 14 14
14 84 -30 c62 -21 104 -30 153 -30 37 0 84 -7 104 -15 19 -8 60 -15 90 -15 29
0 70 -7 90 -15 23 -10 69 -15 135 -15 65 0 111 -5 135 -15 50 -21 316 -21 366
0 21 8 67 15 105 15 39 0 85 7 105 15 20 8 48 15 62 15 34 0 214 91 244 124
14 14 32 26 41 26 31 0 61 33 100 111 l40 79 0 59 c0 33 5 63 10 66 6 3 10 48
10 99 0 71 -4 97 -15 106 -8 7 -20 31 -27 54 -7 24 -29 60 -55 86 -24 25 -89
94 -146 154 -56 59 -120 119 -141 133 -22 14 -70 54 -107 89 -38 35 -76 64
-84 64 -9 0 -40 20 -68 45 -28 24 -77 58 -110 76 -33 17 -94 55 -137 85 -77
52 -231 113 -323 127 -20 3 -50 15 -66 26 l-29 21 -105 0 -105 0 -5 -25z
m-1690 -1890 c22 -9 68 -15 122 -15 102 -1 133 -13 226 -90 45 -37 65 -61 65
-76 0 -26 -24 -54 -48 -54 -27 0 -143 42 -225 82 -43 21 -83 38 -90 38 -6 0
-23 11 -37 25 -14 13 -38 35 -55 49 l-29 24 13 16 c16 19 14 19 58 1z m2304
-284 c82 -6 108 -16 136 -49 9 -10 9 -20 2 -33 -21 -40 -144 -12 -197 44 -13
14 -39 28 -58 31 -19 4 -34 12 -34 18 0 6 12 8 33 3 17 -3 71 -10 118 -14z"/>
</g>
</svg>
