<?xml version="1.0" standalone="no"?>
<!DOCTYPE svg PUBLIC "-//W3C//DTD SVG 20010904//EN"
 "http://www.w3.org/TR/2001/REC-SVG-20010904/DTD/svg10.dtd">
<svg version="1.0" xmlns="http://www.w3.org/2000/svg"
 width="666.000000pt" height="276.000000pt" viewBox="0 0 666.000000 276.000000"
 preserveAspectRatio="xMidYMid meet">
<metadata>
Created by potrace 1.16, written by Peter Selinger 2001-2019
</metadata>
<g transform="translate(0.000000,276.000000) scale(0.100000,-0.100000)"
fill="#000000" stroke="none">
<path d="M5172 2723 c-16 -53 1 -75 82 -101 37 -12 76 -22 87 -22 26 0 140
-52 182 -84 50 -37 113 -66 146 -66 21 0 35 -8 50 -29 23 -32 110 -95 190
-137 29 -14 64 -42 78 -61 15 -19 48 -45 74 -59 26 -13 56 -35 66 -50 41 -58
68 -87 103 -109 62 -39 166 -211 216 -359 28 -82 30 -123 9 -173 -8 -19 -15
-47 -15 -60 0 -14 -7 -37 -16 -52 -18 -30 -130 -108 -173 -121 -14 -4 -51 -20
-81 -34 -31 -15 -73 -26 -96 -26 -23 0 -58 -7 -77 -15 -51 -21 -471 -22 -537
-1 -86 27 -135 38 -210 46 -41 4 -88 12 -105 18 -39 13 -108 31 -165 42 -50
10 -138 50 -184 85 -35 26 -170 95 -186 95 -6 0 -41 18 -77 40 -37 22 -71 40
-76 40 -6 0 -34 -24 -64 -53 -88 -89 -69 -137 72 -182 47 -15 107 -38 135 -51
27 -13 55 -24 61 -24 17 0 80 -31 114 -56 17 -12 54 -34 82 -48 59 -29 181
-139 213 -192 17 -26 19 -37 10 -54 l-11 -20 -60 0 c-60 0 -124 -23 -145 -52
-5 -7 -18 -38 -28 -68 l-18 -56 22 -64 c12 -36 33 -80 46 -98 59 -76 62 -124
12 -150 -38 -19 -141 -52 -163 -52 -11 0 -58 -14 -105 -30 -46 -17 -93 -30
-105 -30 -11 0 -58 -14 -105 -30 l-84 -30 -127 0 c-90 0 -137 -4 -162 -15 -20
-8 -61 -15 -90 -15 -30 0 -71 -7 -90 -15 l-36 -15 -501 0 -501 0 -36 15 c-25
11 -72 15 -165 15 -92 0 -139 4 -165 15 -23 10 -69 15 -135 15 -65 0 -111 5
-135 15 -24 10 -70 15 -147 15 l-112 0 -84 30 c-47 16 -101 30 -120 30 -20 0
-74 13 -120 30 -47 16 -94 30 -105 30 -35 0 -127 37 -137 54 -7 12 -1 30 21
65 17 26 31 57 31 69 0 12 5 41 12 65 l11 43 -20 59 c-11 33 -31 85 -43 115
-13 30 -30 73 -39 95 -22 54 -330 365 -362 365 -13 0 -38 17 -63 44 -38 41
-148 106 -179 106 -7 0 -55 20 -106 45 -51 25 -103 45 -117 45 -14 0 -41 7
-61 15 -50 21 -133 19 -205 -6 -94 -31 -129 -52 -181 -108 -37 -40 -47 -57
-47 -85 0 -19 -4 -38 -10 -41 -12 -8 -13 -149 -1 -173 4 -9 32 -68 62 -131
l54 -114 80 -74 c98 -91 311 -236 445 -303 55 -28 105 -50 111 -50 18 0 81
-32 123 -62 21 -15 52 -28 68 -28 16 0 45 -7 65 -15 19 -8 47 -15 60 -15 14 0
54 -14 90 -30 35 -17 70 -30 76 -30 7 0 32 -14 57 -30 l45 -30 58 0 c32 0 74
-7 94 -15 19 -8 53 -15 75 -15 21 0 55 -7 75 -15 19 -8 53 -15 75 -15 21 0 55
-7 75 -15 19 -8 52 -15 72 -15 20 0 56 -6 81 -14 94 -30 138 -38 225 -45 50
-4 100 -12 112 -19 15 -8 87 -12 232 -12 129 0 212 -4 216 -10 8 -14 1092 -14
1100 0 4 6 91 10 229 10 176 0 231 3 259 15 20 8 48 15 62 15 14 0 49 12 78
26 28 14 79 30 112 34 60 8 118 22 185 43 19 6 53 14 75 18 117 22 255 67 290
93 17 13 62 39 100 59 56 28 81 49 122 101 93 117 113 186 78 269 -8 20 -15
48 -15 62 0 37 -36 103 -86 157 -54 58 -69 88 -60 123 l7 27 22 -7 c23 -7 132
-23 207 -31 111 -12 500 -15 520 -4 12 6 42 15 68 20 114 21 248 63 320 99 32
16 95 65 145 112 l87 84 0 52 c0 28 5 55 10 58 6 4 10 53 10 115 0 62 -4 111
-10 115 -5 3 -10 34 -10 68 l0 62 -43 61 c-23 33 -58 83 -77 109 -47 65 -228
253 -265 276 -40 25 -147 113 -204 169 -33 33 -63 51 -106 65 -44 14 -71 31
-101 62 -22 24 -48 43 -58 43 -10 0 -47 14 -83 30 -35 17 -69 30 -75 30 -5 0
-37 13 -71 28 -34 16 -75 32 -91 36 -17 4 -42 16 -57 27 l-27 19 -99 0 -100 0
-11 -37z m-4536 -1403 c141 -72 222 -126 285 -192 35 -36 63 -58 77 -58 16 0
32 -15 56 -52 19 -29 48 -63 65 -76 35 -26 99 -146 137 -256 30 -89 30 -111
-1 -141 l-24 -25 -73 0 c-53 0 -80 5 -99 18 -50 33 -149 129 -149 144 0 8 -13
33 -29 56 -17 22 -46 72 -65 110 -20 39 -46 78 -58 86 -29 20 -64 20 -72 0
-11 -29 -6 -151 8 -185 8 -19 16 -50 18 -69 l3 -35 -22 -3 c-12 -2 -39 5 -60
15 -44 20 -156 95 -193 128 -14 12 -46 34 -72 49 -30 17 -57 42 -73 70 -14 25
-42 57 -62 72 -57 44 -73 90 -73 226 l0 117 28 19 c42 30 47 30 203 31 l146 1
99 -50z m4498 -686 c9 -8 16 -24 16 -34 0 -20 -25 -50 -41 -50 -13 0 -59 46
-59 59 0 16 30 41 50 41 10 0 26 -7 34 -16z"/>
</g>
</svg>
