<?xml version="1.0" standalone="no"?>
<!DOCTYPE svg PUBLIC "-//W3C//DTD SVG 20010904//EN"
 "http://www.w3.org/TR/2001/REC-SVG-20010904/DTD/svg10.dtd">
<svg version="1.0" xmlns="http://www.w3.org/2000/svg"
 width="714.000000pt" height="183.000000pt" viewBox="0 0 714.000000 183.000000"
 preserveAspectRatio="xMidYMid meet">
<metadata>
Created by potrace 1.16, written by Peter Selinger 2001-2019
</metadata>
<g transform="translate(0.000000,183.000000) scale(0.100000,-0.100000)"
fill="#000000" stroke="none">
<path d="M5660 1809 c0 -25 52 -79 77 -79 10 0 38 -14 63 -30 25 -16 52 -30
60 -30 23 0 194 -85 242 -120 23 -17 47 -30 55 -30 28 0 169 -93 206 -136 21
-24 60 -58 87 -76 27 -18 107 -90 178 -160 136 -133 232 -261 232 -310 0 -14
13 -55 30 -90 34 -72 40 -146 15 -205 -8 -19 -15 -52 -15 -72 0 -52 -36 -148
-76 -203 -37 -50 -137 -108 -186 -108 -14 0 -42 -7 -61 -15 -47 -19 -157 -19
-204 0 -23 10 -69 15 -132 15 -55 0 -115 6 -141 14 -78 25 -133 37 -195 45
-33 5 -79 17 -101 29 -23 12 -97 39 -165 62 -155 51 -199 71 -247 114 -20 18
-56 43 -79 55 -23 11 -50 33 -60 47 -43 64 -70 84 -112 84 l-41 0 -40 -36
c-46 -41 -50 -66 -21 -122 25 -48 108 -142 127 -142 8 0 14 -4 14 -10 0 -12
-17 -13 -24 -2 -3 5 -40 19 -83 32 -43 13 -89 30 -104 39 -104 64 -138 82
-169 91 -19 5 -58 20 -85 33 -28 13 -62 27 -77 31 -15 3 -39 22 -54 42 -19 24
-58 51 -126 85 -54 27 -103 49 -110 49 -7 0 -33 14 -58 30 -25 16 -52 30 -60
30 -23 0 -192 84 -240 119 -25 18 -55 31 -72 31 -45 0 -114 36 -144 76 -27 34
-129 94 -184 107 -14 4 -43 22 -65 40 -53 45 -110 73 -163 80 -26 3 -57 16
-78 34 -20 15 -45 36 -57 46 -25 20 -152 66 -182 67 -11 0 -65 15 -120 34
l-100 33 -15 33 -14 32 -40 -5 c-24 -3 -54 0 -74 9 -19 8 -59 14 -89 14 -29 0
-70 7 -90 15 l-35 15 -310 0 -309 0 -61 -21 c-66 -22 -167 -70 -208 -99 -14
-10 -52 -28 -85 -39 l-59 -21 -153 0 c-114 0 -163 4 -190 15 -21 9 -67 15
-116 15 l-80 0 -136 44 c-146 47 -200 62 -271 76 -54 10 -69 18 -181 93 -52
34 -96 57 -113 57 -14 0 -43 7 -63 15 -19 8 -55 15 -79 15 l-44 0 0 -70 c0
-44 4 -70 11 -70 6 0 38 -13 72 -28 34 -15 97 -39 141 -53 50 -15 92 -36 119
-59 45 -39 124 -69 180 -70 21 0 54 -7 74 -15 19 -8 52 -15 72 -15 20 0 75
-13 121 -30 53 -18 105 -30 138 -30 29 0 69 -7 89 -15 19 -8 53 -15 75 -15 21
0 55 -7 75 -15 48 -20 198 -20 246 0 20 8 47 15 61 15 14 0 80 27 149 60 68
33 129 60 135 60 7 0 36 12 65 27 l52 26 130 9 c72 4 141 9 155 9 54 1 196
-18 217 -29 12 -7 54 -12 93 -12 40 0 86 -6 107 -15 19 -8 61 -15 92 -15 l58
0 24 -26 c33 -35 57 -47 200 -94 146 -48 243 -93 264 -123 8 -12 15 -43 15
-70 l0 -48 63 -67 c34 -37 73 -81 85 -99 13 -18 46 -45 74 -60 31 -17 64 -45
83 -72 l31 -44 127 -65 128 -64 31 13 c54 22 148 98 148 119 0 39 35 43 103
12 35 -16 78 -33 95 -37 18 -3 55 -23 84 -42 28 -20 95 -58 149 -85 55 -27
138 -76 186 -108 48 -33 94 -60 102 -60 19 0 202 -92 271 -136 30 -19 66 -37
80 -41 14 -3 58 -25 97 -49 40 -24 76 -44 81 -44 4 0 24 -11 44 -25 l37 -25
83 0 84 0 16 53 c10 28 20 65 23 81 l6 28 22 -7 c12 -4 58 -10 102 -14 56 -5
96 -16 132 -34 30 -16 69 -27 91 -27 21 0 76 -13 122 -30 64 -22 103 -30 157
-30 39 0 75 -4 78 -10 8 -12 461 -14 469 -2 3 5 51 39 108 77 57 38 116 80
131 94 34 30 107 170 107 204 0 34 39 139 61 163 15 16 19 35 19 92 0 39 -4
74 -10 77 -5 3 -10 19 -10 36 0 16 -29 88 -66 162 l-66 132 -102 97 c-55 53
-121 117 -146 142 -25 24 -76 65 -115 91 -38 26 -81 58 -95 70 -14 13 -44 32
-66 44 -23 11 -77 44 -120 74 -100 69 -125 81 -221 112 -89 29 -116 41 -158
71 -50 36 -113 64 -144 64 -16 0 -33 5 -36 10 -3 6 -33 10 -66 10 l-59 0 0
-21z m-2023 -951 c29 -33 35 -46 24 -53 -13 -7 -83 54 -75 66 9 15 30 10 51
-13z"/>
</g>
</svg>
