<?xml version="1.0" standalone="no"?>
<!DOCTYPE svg PUBLIC "-//W3C//DTD SVG 20010904//EN"
 "http://www.w3.org/TR/2001/REC-SVG-20010904/DTD/svg10.dtd">
<svg version="1.0" xmlns="http://www.w3.org/2000/svg"
 width="282.000000pt" height="432.000000pt" viewBox="0 0 282.000000 432.000000"
 preserveAspectRatio="xMidYMid meet">
<metadata>
Created by potrace 1.16, written by Peter Selinger 2001-2019
</metadata>
<g transform="translate(0.000000,432.000000) scale(0.100000,-0.100000)"
fill="#000000" stroke="none">
<path d="M394 4285 c-8 -44 8 -65 48 -65 16 0 55 -12 85 -26 31 -14 89 -36
129 -49 65 -21 204 -103 299 -177 17 -13 94 -89 172 -169 l141 -146 42 -84
c23 -46 59 -104 80 -129 53 -61 100 -165 100 -216 0 -23 7 -58 15 -77 11 -26
15 -73 15 -164 l0 -128 -30 -63 c-17 -35 -30 -69 -30 -74 0 -12 -106 -112
-149 -140 -14 -10 -38 -18 -52 -18 -15 0 -43 -7 -62 -15 -59 -25 -133 -19
-205 15 -35 17 -76 30 -90 30 -15 0 -56 14 -90 30 -35 17 -76 30 -90 30 -30 0
-195 77 -245 113 -18 13 -52 35 -77 48 -64 33 -79 48 -105 100 -22 43 -62 81
-111 107 l-21 11 -59 -38 c-33 -21 -69 -52 -81 -69 l-23 -31 0 -90 c0 -54 4
-93 11 -96 15 -10 129 -244 129 -266 0 -10 21 -42 48 -71 26 -29 69 -87 96
-128 27 -41 66 -93 86 -115 21 -22 59 -71 85 -110 26 -38 67 -90 91 -115 141
-142 338 -351 369 -393 20 -26 44 -47 53 -47 23 0 42 -19 42 -42 0 -24 50 -79
103 -112 24 -15 57 -49 74 -75 20 -30 52 -59 89 -82 43 -26 60 -42 68 -68 8
-24 27 -46 63 -70 52 -37 145 -118 220 -191 23 -23 64 -58 91 -78 27 -20 75
-65 107 -100 36 -39 81 -75 115 -92 32 -16 81 -51 111 -78 30 -27 78 -61 107
-76 30 -15 78 -53 108 -84 l54 -57 -180 -3 c-143 -2 -187 1 -216 13 -20 8 -46
15 -58 15 -12 0 -60 13 -106 30 -62 21 -104 30 -153 30 -37 0 -84 7 -104 15
-20 8 -66 15 -105 15 -38 0 -84 7 -105 15 -22 9 -67 15 -120 15 -52 0 -97 6
-120 15 -19 8 -50 15 -67 15 -66 0 -106 -63 -48 -76 15 -4 51 -26 81 -50 l53
-44 74 0 c44 0 90 -6 111 -15 25 -11 72 -15 165 -15 92 0 139 -4 165 -15 19
-8 45 -15 56 -15 12 0 62 -13 112 -29 141 -45 174 -53 270 -60 50 -4 100 -12
112 -19 15 -8 79 -12 198 -12 l176 0 47 -21 c26 -12 59 -30 74 -41 l27 -19 78
3 78 3 3 92 3 92 -30 16 c-17 8 -35 15 -41 15 -26 0 -148 64 -190 99 -25 21
-65 48 -90 61 -25 12 -67 40 -95 61 -27 22 -79 62 -114 89 -35 28 -73 50 -83
50 -10 0 -42 24 -71 53 -29 28 -101 83 -159 121 -75 49 -114 82 -132 111 -30
47 -94 110 -148 145 -20 14 -49 44 -64 67 -15 23 -59 69 -98 100 -77 63 -357
332 -419 402 -21 25 -49 61 -62 80 -12 20 -50 61 -85 91 -85 76 -169 178 -180
221 -10 35 -49 77 -114 122 -14 10 -37 40 -51 67 -13 26 -38 58 -54 69 -29 21
-97 116 -140 196 -12 22 -37 59 -56 83 -28 35 -35 52 -35 87 l0 44 53 -6 c59
-6 155 -47 218 -92 24 -18 55 -31 71 -31 16 0 45 -7 65 -15 19 -8 47 -15 62
-15 14 0 55 -14 89 -30 35 -17 75 -30 88 -30 14 0 41 -7 61 -15 85 -36 281 -9
358 49 17 13 50 33 75 46 25 12 73 50 107 83 49 47 66 73 78 112 8 27 30 72
50 99 l35 50 0 150 0 151 -30 85 c-17 46 -30 95 -30 107 0 30 -26 82 -95 185
-37 55 -55 93 -55 113 0 40 -18 65 -73 99 -24 16 -57 49 -73 73 -15 25 -49 58
-74 75 -25 16 -61 53 -81 81 -27 40 -44 55 -77 65 -23 8 -68 38 -102 68 -33
30 -68 54 -76 54 -8 0 -45 18 -82 40 -36 22 -82 45 -102 50 -19 5 -59 21 -88
35 -28 14 -58 25 -66 25 -8 0 -18 5 -21 10 -3 6 -48 10 -100 10 l-94 0 -7 -35z"/>
</g>
</svg>
