<?xml version="1.0" standalone="no"?>
<!DOCTYPE svg PUBLIC "-//W3C//DTD SVG 20010904//EN"
 "http://www.w3.org/TR/2001/REC-SVG-20010904/DTD/svg10.dtd">
<svg version="1.0" xmlns="http://www.w3.org/2000/svg"
 width="219.000000pt" height="471.000000pt" viewBox="0 0 219.000000 471.000000"
 preserveAspectRatio="xMidYMid meet">
<metadata>
Created by potrace 1.16, written by Peter Selinger 2001-2019
</metadata>
<g transform="translate(0.000000,471.000000) scale(0.100000,-0.100000)"
fill="#000000" stroke="none">
<path d="M591 4670 l-22 -40 25 -25 25 -25 73 0 c57 0 96 -8 177 -36 58 -19
116 -43 131 -54 31 -22 140 -60 174 -60 13 0 51 -21 86 -47 69 -53 86 -65 200
-140 156 -102 335 -263 371 -335 11 -24 33 -55 47 -70 14 -16 40 -70 59 -125
44 -131 44 -186 -3 -323 -19 -58 -40 -110 -46 -117 -16 -20 -163 -92 -241
-118 -48 -17 -94 -25 -138 -25 -38 0 -83 -7 -104 -16 l-38 -16 -41 16 c-23 9
-59 16 -79 16 -21 0 -54 7 -74 15 -24 10 -70 15 -146 15 l-111 0 -91 29 c-140
45 -174 53 -270 60 -65 6 -105 15 -145 34 -30 14 -63 28 -72 31 -10 3 -31 30
-48 60 -39 68 -120 146 -153 146 -15 0 -48 -19 -81 -46 l-56 -46 0 -145 0
-144 39 -52 c21 -29 48 -72 61 -96 28 -56 95 -155 117 -172 37 -31 73 -93 73
-126 l0 -34 403 -405 c221 -223 417 -427 435 -455 18 -27 43 -54 55 -61 52
-27 127 -92 127 -109 0 -10 25 -37 58 -62 31 -25 77 -66 102 -92 25 -26 62
-58 82 -71 21 -13 49 -42 63 -64 14 -22 38 -46 54 -55 16 -8 63 -45 104 -82
41 -38 86 -76 99 -85 16 -10 33 -41 47 -83 24 -70 22 -109 -5 -119 -18 -7 -73
16 -119 50 -16 12 -53 33 -80 47 -28 14 -78 50 -113 81 -42 37 -71 56 -89 56
-33 0 -113 -78 -113 -111 0 -30 81 -151 121 -181 17 -13 45 -38 62 -56 18 -18
60 -61 94 -97 34 -35 70 -79 79 -97 9 -18 45 -63 80 -101 70 -74 112 -148 139
-244 l17 -62 -19 -33 -19 -33 -75 -3 c-40 -2 -98 2 -127 9 l-53 12 -34 -16
c-22 -10 -35 -24 -35 -36 0 -23 64 -81 90 -81 10 0 22 -5 25 -10 4 -6 57 -10
127 -10 l120 0 26 18 c15 11 49 30 76 43 68 34 76 49 76 151 l0 87 -45 92
c-25 51 -45 100 -45 110 0 9 -19 32 -42 51 -57 44 -76 67 -84 102 -8 35 14 56
58 56 30 0 81 22 110 48 13 11 18 30 18 68 0 30 5 74 12 99 l12 45 -27 28
c-18 19 -27 39 -27 62 l0 33 -62 58 c-35 33 -83 78 -108 102 -25 24 -60 55
-78 68 -18 13 -51 47 -73 76 -22 29 -47 53 -55 53 -30 0 -72 33 -100 78 -16
24 -46 56 -68 69 -22 14 -69 53 -106 87 -37 33 -79 69 -94 79 -14 10 -37 40
-51 67 -14 27 -42 61 -64 77 -22 15 -52 48 -67 71 -16 24 -49 58 -75 74 -25
17 -60 52 -77 77 -16 26 -50 59 -74 75 -25 15 -58 49 -75 75 -17 26 -51 59
-75 75 -25 15 -58 49 -75 75 -17 26 -51 59 -75 75 -25 15 -59 49 -76 74 -18
26 -46 65 -62 86 -17 21 -30 47 -30 56 0 15 -23 47 -141 198 -23 29 -52 81
-64 115 -13 34 -31 83 -41 109 -14 38 -16 50 -6 60 10 10 21 8 55 -9 140 -69
251 -102 382 -112 50 -4 100 -12 112 -19 12 -7 59 -12 108 -12 53 0 99 -6 122
-15 24 -10 71 -15 150 -15 78 0 125 -5 150 -15 20 -9 66 -15 108 -15 42 0 88
6 108 15 20 8 61 15 91 15 39 0 71 8 118 30 34 16 69 30 76 30 23 0 106 47
132 75 14 15 47 43 73 62 l48 35 49 98 c27 54 54 101 60 105 12 8 14 208 1
233 -41 81 -101 221 -101 236 0 11 -19 38 -43 60 -24 23 -64 69 -91 104 -26
34 -51 62 -56 62 -4 0 -42 32 -84 71 -45 42 -89 74 -110 80 -19 5 -59 31 -88
58 -62 56 -91 73 -185 102 -50 17 -77 32 -103 60 -41 45 -131 79 -208 79 -50
0 -130 24 -220 66 -31 14 -71 24 -97 24 -24 0 -47 5 -50 10 -3 6 -34 10 -69
10 l-62 0 -23 -40z"/>
</g>
</svg>
