<?xml version="1.0" standalone="no"?>
<!DOCTYPE svg PUBLIC "-//W3C//DTD SVG 20010904//EN"
 "http://www.w3.org/TR/2001/REC-SVG-20010904/DTD/svg10.dtd">
<svg version="1.0" xmlns="http://www.w3.org/2000/svg"
 width="291.000000pt" height="477.000000pt" viewBox="0 0 291.000000 477.000000"
 preserveAspectRatio="xMidYMid meet">
<metadata>
Created by potrace 1.16, written by Peter Selinger 2001-2019
</metadata>
<g transform="translate(0.000000,477.000000) scale(0.100000,-0.100000)"
fill="#000000" stroke="none">
<path d="M720 4751 c15 -30 51 -51 85 -51 16 0 44 -9 60 -21 59 -40 125 -69
156 -69 25 0 41 -10 73 -44 37 -39 148 -106 176 -106 29 0 102 -44 126 -76 25
-33 89 -74 114 -74 6 0 38 -26 70 -57 33 -32 74 -72 92 -89 18 -17 65 -65 104
-106 l70 -75 21 -64 c12 -35 33 -89 47 -119 18 -38 26 -72 26 -111 0 -31 7
-73 15 -92 31 -74 16 -153 -54 -295 -3 -8 -24 -20 -45 -27 -21 -7 -61 -27 -88
-45 -70 -43 -153 -70 -214 -70 -28 0 -68 -7 -87 -15 -20 -8 -66 -15 -102 -15
-36 0 -82 7 -102 15 -19 8 -54 15 -77 15 -25 0 -66 12 -104 30 -46 21 -79 30
-116 30 -32 0 -84 11 -136 30 -60 21 -104 30 -150 30 -47 0 -93 10 -167 35
-118 40 -176 74 -242 143 -26 27 -61 57 -78 66 l-31 15 -47 -31 c-25 -17 -53
-43 -62 -57 -9 -14 -24 -38 -34 -53 l-19 -27 0 -112 0 -111 25 -30 25 -30 0
-59 c0 -71 23 -123 85 -189 23 -25 50 -59 60 -75 11 -17 31 -44 45 -60 14 -17
47 -63 73 -103 27 -39 68 -86 93 -104 24 -17 62 -56 84 -85 23 -29 48 -53 56
-53 30 0 71 -32 102 -80 21 -32 50 -58 86 -79 38 -21 63 -44 81 -76 15 -25 41
-55 58 -67 68 -48 208 -179 266 -248 20 -24 46 -44 63 -47 16 -3 38 -19 49
-34 11 -16 78 -67 149 -114 70 -47 139 -100 153 -119 15 -19 38 -36 55 -39 18
-4 61 -35 106 -77 42 -38 84 -70 94 -70 28 0 61 -28 83 -73 12 -23 33 -54 47
-70 27 -28 94 -113 181 -228 28 -36 66 -76 84 -89 19 -13 44 -39 57 -59 13
-20 101 -115 196 -211 95 -96 185 -193 201 -216 15 -22 43 -60 61 -84 34 -45
42 -93 22 -131 l-11 -19 -103 0 -103 0 -39 30 c-21 16 -80 58 -131 92 -62 42
-101 76 -119 106 -42 66 -56 69 -104 26 -64 -58 -64 -63 -21 -130 39 -61 79
-99 190 -185 l64 -49 48 0 c26 0 51 -4 54 -10 8 -12 375 -14 375 -1 0 4 16 29
35 54 l35 46 0 101 c0 55 -4 108 -9 118 -5 9 -14 29 -20 44 -5 15 -29 39 -51
53 -23 15 -49 40 -58 57 -39 71 -58 92 -89 100 -18 5 -40 20 -50 35 -10 15
-46 55 -80 89 -34 35 -69 78 -79 96 -22 44 -44 68 -72 79 -27 11 -39 36 -23
52 8 8 23 7 59 -7 159 -62 176 -66 272 -66 l94 0 53 56 53 56 0 137 0 137 -61
68 c-33 38 -71 86 -84 107 -14 21 -35 43 -47 50 -13 6 -43 28 -67 47 -69 56
-154 112 -171 112 -16 0 -70 28 -144 73 -61 38 -171 77 -219 77 -22 0 -68 13
-104 30 -35 16 -70 30 -77 30 -7 0 -25 14 -41 30 -19 20 -39 30 -57 30 -16 0
-45 7 -65 15 -67 28 -151 15 -205 -33 -14 -11 -18 -31 -18 -79 0 -41 -4 -63
-12 -63 -31 0 -126 58 -186 114 -37 34 -99 84 -139 110 -56 36 -82 62 -118
116 -25 38 -61 80 -78 92 -18 12 -75 63 -128 113 -52 49 -113 102 -135 117
-22 15 -53 46 -69 70 -16 24 -71 86 -123 138 -91 92 -235 291 -252 349 -4 14
-26 64 -49 110 -41 85 -50 135 -31 172 18 33 81 25 155 -20 58 -34 109 -53
245 -91 25 -7 99 -15 165 -19 66 -4 130 -12 142 -19 12 -6 41 -12 65 -12 31 0
55 -8 88 -30 l45 -30 162 0 c89 0 174 -5 189 -10 l26 -10 44 25 c26 15 58 25
82 25 24 0 66 12 104 30 41 20 79 30 109 30 l46 0 54 39 c30 21 68 58 85 82
37 51 74 123 74 141 0 7 14 42 30 76 34 73 37 99 13 160 l-16 43 13 52 12 52
-16 53 c-8 29 -31 72 -51 95 -20 23 -38 53 -42 67 -12 50 -47 106 -103 165
-31 33 -68 78 -82 101 -32 49 -83 94 -108 94 -10 0 -28 13 -39 29 -31 43 -196
151 -231 151 -6 0 -40 17 -75 39 -36 21 -103 51 -149 65 l-84 27 -73 65 -74
64 -163 0 -163 0 11 -19z m1330 -3111 c47 -16 96 -30 108 -30 29 0 86 -25 127
-56 17 -12 62 -38 101 -58 95 -47 170 -99 219 -149 23 -23 55 -54 71 -69 20
-17 39 -50 52 -91 24 -70 27 -108 12 -138 l-11 -19 -87 0 -87 0 -92 44 c-90
44 -193 112 -193 129 0 4 11 25 25 45 14 20 25 42 25 50 0 34 -44 139 -66 160
l-25 22 -62 0 c-42 0 -70 6 -88 18 -40 26 -169 150 -169 162 0 18 54 11 140
-20z"/>
</g>
</svg>
