<?xml version="1.0" standalone="no"?>
<!DOCTYPE svg PUBLIC "-//W3C//DTD SVG 20010904//EN"
 "http://www.w3.org/TR/2001/REC-SVG-20010904/DTD/svg10.dtd">
<svg version="1.0" xmlns="http://www.w3.org/2000/svg"
 width="354.000000pt" height="192.000000pt" viewBox="0 0 354.000000 192.000000"
 preserveAspectRatio="xMidYMid meet">
<metadata>
Created by potrace 1.16, written by Peter Selinger 2001-2019
</metadata>
<g transform="translate(0.000000,192.000000) scale(0.100000,-0.100000)"
fill="#000000" stroke="none">
<path d="M1720 1882 c-123 -122 -177 -230 -151 -302 6 -18 11 -45 11 -59 0
-14 18 -53 40 -85 63 -92 66 -136 10 -136 -17 0 -47 7 -67 15 -19 8 -60 15
-90 15 -29 0 -70 7 -90 15 -19 8 -52 15 -72 15 -20 0 -56 6 -81 14 -94 30
-138 38 -225 45 -49 4 -100 12 -112 19 -34 19 -370 16 -416 -3 -20 -8 -54 -15
-75 -15 -22 0 -56 -7 -75 -15 -20 -8 -49 -15 -64 -15 -15 0 -56 -19 -95 -46
-52 -35 -74 -57 -93 -94 -30 -60 -31 -83 -4 -163 47 -140 158 -229 212 -169
24 26 21 55 -8 98 l-25 37 0 72 c0 55 4 78 18 93 24 29 125 62 188 62 28 0 68
7 87 15 50 21 244 21 294 0 26 -11 74 -15 180 -15 105 0 153 -4 180 -15 19 -8
45 -15 56 -15 11 0 82 -20 156 -44 142 -46 200 -62 266 -75 65 -13 126 -37
190 -75 33 -20 76 -41 97 -47 21 -5 46 -21 55 -35 41 -59 69 -87 105 -110 21
-13 63 -46 93 -72 30 -26 82 -67 115 -92 34 -25 86 -64 115 -87 29 -23 75 -54
102 -68 54 -29 131 -76 214 -129 30 -20 62 -36 70 -36 8 0 28 -9 44 -21 112
-76 310 -146 441 -156 57 -4 148 17 206 48 l18 10 0 134 c0 80 -4 136 -10 140
-6 4 -21 27 -34 53 -15 29 -71 92 -149 167 -141 136 -240 214 -367 287 -25 14
-54 36 -65 48 -20 22 -145 90 -165 90 -6 0 -40 17 -75 39 -36 21 -109 53 -163
70 l-99 32 -27 -11 c-15 -5 -41 -10 -57 -10 -20 0 -40 -10 -60 -29 l-29 -29 0
-59 c0 -32 -4 -64 -9 -72 l-9 -15 -69 28 c-37 15 -78 32 -90 36 -12 5 -33 27
-47 48 -13 22 -44 57 -69 78 l-44 39 -22 69 c-12 38 -31 82 -42 97 -11 16 -27
51 -35 79 l-15 50 15 51 c18 58 50 105 113 165 25 23 43 49 43 62 l0 22 -102
-1 -103 -2 -35 -35z m918 -791 c37 -22 92 -55 122 -74 30 -19 69 -38 87 -42
17 -3 51 -23 75 -44 24 -21 61 -47 83 -59 42 -21 171 -132 207 -177 11 -14 32
-32 47 -39 70 -37 151 -172 151 -253 l0 -43 -24 -16 c-33 -21 -122 -11 -196
23 -30 13 -86 35 -125 48 -85 28 -237 115 -355 203 -63 47 -65 55 -30 95 45
52 41 90 -15 147 -24 25 -71 72 -104 106 l-59 61 -3 39 c-2 22 0 45 5 52 14
23 67 12 134 -27z"/>
<path d="M116 589 c-27 -22 -34 -57 -14 -77 7 -7 31 -12 55 -12 24 0 60 -7 80
-15 19 -8 54 -15 77 -15 33 0 48 -6 67 -26 13 -14 55 -42 94 -61 119 -61 175
-117 175 -177 0 -33 -53 -69 -90 -61 -14 3 -55 9 -91 14 -36 5 -75 13 -86 20
-12 6 -39 11 -60 11 -21 0 -58 6 -83 14 -85 27 -135 38 -187 43 l-53 5 0 -40
0 -40 32 -24 c55 -42 115 -68 156 -68 21 0 76 -13 122 -30 47 -16 104 -30 127
-30 23 0 45 -5 48 -10 8 -13 252 -13 260 0 3 6 14 10 24 10 24 0 118 100 127
134 10 42 -3 71 -61 138 -122 142 -271 246 -422 297 -47 16 -87 21 -166 21
l-104 0 -27 -21z"/>
</g>
</svg>
