<?xml version="1.0" standalone="no"?>
<!DOCTYPE svg PUBLIC "-//W3C//DTD SVG 20010904//EN"
 "http://www.w3.org/TR/2001/REC-SVG-20010904/DTD/svg10.dtd">
<svg version="1.0" xmlns="http://www.w3.org/2000/svg"
 width="867.000000pt" height="186.000000pt" viewBox="0 0 867.000000 186.000000"
 preserveAspectRatio="xMidYMid meet">
<metadata>
Created by potrace 1.16, written by Peter Selinger 2001-2019
</metadata>
<g transform="translate(0.000000,186.000000) scale(0.100000,-0.100000)"
fill="#000000" stroke="none">
<path d="M3425 1850 c-3 -5 -24 -10 -46 -10 -40 0 -139 -29 -191 -56 -15 -8
-43 -38 -61 -67 -19 -28 -44 -61 -56 -71 -37 -34 -20 -150 39 -267 18 -35 92
-94 166 -132 51 -26 152 -57 187 -57 18 0 71 -13 117 -30 47 -16 96 -30 108
-30 13 0 53 -13 89 -30 37 -17 81 -30 104 -30 22 0 56 -7 76 -15 19 -8 46 -15
59 -15 29 0 40 -18 22 -36 -18 -18 -143 -64 -173 -64 -13 0 -39 -7 -58 -15
-21 -8 -67 -15 -105 -15 -39 0 -85 -7 -105 -15 -21 -9 -67 -15 -107 -15 -39 0
-81 -6 -93 -12 -18 -11 -244 -29 -337 -28 -191 2 -439 17 -457 28 -13 7 -57
12 -108 12 -53 0 -99 6 -122 15 -22 9 -67 15 -120 15 -52 0 -97 6 -120 15 -24
10 -70 15 -146 15 l-111 0 -133 45 c-73 25 -147 45 -165 45 -18 0 -53 6 -78
14 -76 24 -133 37 -190 45 -62 8 -245 68 -308 100 -23 12 -53 21 -67 21 -14 0
-42 7 -62 15 -19 8 -47 15 -61 15 -13 0 -64 18 -111 41 -47 22 -120 52 -161
65 -41 13 -99 36 -128 49 -29 14 -57 25 -63 25 -5 0 -40 18 -76 40 -36 22 -90
46 -119 55 l-54 15 -50 -25 -50 -25 0 -43 c0 -34 6 -49 28 -70 15 -15 34 -27
41 -27 22 0 83 -33 165 -88 43 -30 94 -59 112 -64 19 -5 42 -20 51 -34 10 -14
42 -53 71 -87 70 -80 87 -120 73 -168 -6 -20 -11 -52 -11 -71 0 -19 -5 -49
-11 -66 l-10 -30 35 -68 c55 -109 246 -284 309 -284 7 0 24 -12 38 -26 25 -27
148 -94 172 -94 7 0 51 -18 98 -41 89 -44 160 -69 195 -69 47 0 72 71 37 103
-10 8 -52 27 -93 40 -72 24 -128 53 -250 130 -30 19 -67 37 -82 41 -44 10
-198 159 -236 228 -37 68 -43 143 -17 205 22 52 19 86 -14 154 -35 73 -27 80
54 45 32 -15 68 -26 82 -26 13 0 40 -7 60 -15 19 -8 45 -15 56 -15 11 0 101
-27 201 -59 228 -74 254 -81 346 -91 41 -4 107 -20 145 -34 39 -14 86 -26 105
-26 19 0 55 -6 80 -14 60 -19 125 -35 182 -46 26 -5 56 -13 67 -19 11 -6 65
-11 120 -11 58 0 111 -5 128 -12 23 -11 396 -23 778 -27 129 -1 543 16 554 23
7 5 41 12 75 17 111 14 242 54 357 108 47 23 91 41 97 41 5 0 52 20 104 45
l93 45 98 0 c64 0 110 -5 134 -15 22 -9 67 -15 120 -15 52 0 97 -6 120 -15 20
-8 66 -15 105 -15 80 0 147 -25 175 -66 10 -14 42 -53 71 -87 30 -34 60 -73
67 -87 8 -15 46 -53 86 -86 40 -32 93 -77 118 -99 51 -44 112 -88 181 -127 25
-14 56 -38 69 -52 14 -14 32 -26 40 -26 9 0 36 -14 61 -30 25 -16 51 -30 58
-30 20 0 82 -30 126 -62 21 -15 51 -28 65 -28 14 0 46 -6 71 -14 149 -47 186
-51 255 -28 70 23 95 53 121 140 l16 57 -12 55 c-6 30 -21 85 -32 122 l-20 68
-40 32 c-22 18 -61 54 -87 79 -25 26 -62 55 -81 64 -19 10 -48 28 -65 40 -16
13 -50 33 -75 45 -25 12 -66 39 -91 61 -43 35 -145 79 -186 79 -9 0 -58 13
-108 29 -122 39 -170 51 -240 60 -34 5 -70 13 -82 19 -12 7 -42 12 -68 12
-108 0 -131 119 -32 164 18 8 59 24 92 35 l59 21 168 0 c127 0 177 -4 205 -15
20 -8 66 -15 105 -15 38 0 84 -7 105 -15 19 -8 53 -15 75 -15 21 0 55 -7 75
-15 19 -8 61 -15 92 -15 41 0 72 -8 119 -30 35 -17 76 -30 90 -30 15 0 47 -14
72 -30 25 -17 58 -30 76 -30 43 0 128 -63 313 -233 53 -49 117 -99 142 -112
25 -13 70 -46 100 -73 30 -26 74 -60 99 -74 25 -14 54 -36 65 -48 11 -12 33
-29 50 -37 49 -25 192 -123 237 -163 46 -39 98 -70 121 -70 7 0 24 -12 38 -26
23 -25 207 -124 230 -124 7 0 33 -13 58 -29 25 -16 59 -32 75 -35 17 -4 42
-16 57 -27 l27 -19 85 0 85 0 79 50 c43 27 95 58 116 70 l37 20 0 90 c0 50 -4
92 -10 95 -6 4 -28 41 -49 83 -29 57 -56 93 -104 137 -95 88 -228 185 -307
225 -25 12 -65 39 -90 60 -47 39 -165 102 -210 113 -14 4 -43 22 -65 40 -41
35 -174 107 -197 107 -7 0 -69 27 -136 60 l-124 60 -77 0 c-88 0 -107 -11
-113 -69 -4 -47 -26 -59 -80 -43 -24 7 -63 17 -88 22 -46 8 -200 81 -234 109
-10 9 -27 34 -38 56 -12 22 -37 59 -57 81 -22 26 -44 68 -58 111 l-23 70 18
49 c24 69 29 74 66 74 45 0 86 33 86 70 0 68 -106 93 -198 46 -26 -13 -69 -47
-95 -75 l-47 -50 0 -110 0 -109 30 -67 c17 -37 28 -71 25 -75 -8 -13 -85 0
-177 31 -47 16 -103 29 -122 29 -20 0 -53 7 -73 15 -23 10 -69 15 -135 15 -65
0 -111 5 -135 15 -51 22 -405 22 -456 0 -20 -8 -67 -15 -104 -15 -61 -1 -144
-21 -181 -43 -26 -17 -82 -145 -82 -190 0 -24 -5 -48 -12 -55 -18 -18 -229
-16 -275 3 -20 9 -66 15 -107 15 -88 0 -143 24 -138 61 2 13 6 70 9 125 l5
101 -23 44 c-12 24 -39 64 -59 89 -21 25 -46 61 -55 80 -27 53 -45 70 -79 70
-17 0 -44 9 -61 21 -57 39 -185 99 -210 99 -14 0 -42 7 -62 15 -19 8 -62 15
-94 15 -32 0 -61 5 -64 10 -4 6 -78 10 -190 10 -112 0 -186 -4 -190 -10z m325
-134 c57 -18 123 -35 175 -45 127 -25 211 -69 313 -165 71 -68 102 -124 102
-185 0 -116 -78 -165 -200 -127 -98 31 -139 39 -235 45 l-100 7 -213 72 c-117
39 -223 72 -235 72 -26 0 -112 85 -128 127 -12 32 -5 54 28 87 42 43 178 96
244 96 20 0 52 7 70 15 44 18 122 19 179 1z m3847 -771 c63 -30 120 -55 127
-55 6 0 25 -9 41 -21 17 -11 65 -38 108 -60 43 -22 97 -53 119 -70 23 -16 49
-29 58 -29 9 0 27 -12 41 -26 13 -14 40 -34 60 -45 44 -22 165 -103 199 -133
14 -12 37 -30 53 -39 15 -10 38 -34 52 -55 14 -20 39 -55 55 -76 l30 -39 0
-58 0 -58 -32 -22 c-47 -34 -128 -37 -214 -8 -102 34 -402 185 -454 228 -25
21 -65 48 -90 61 -25 12 -65 39 -90 59 -54 44 -139 100 -200 133 -24 13 -58
44 -75 69 -22 30 -44 48 -70 57 -50 16 -59 25 -84 73 -27 50 -26 59 2 59 24 0
107 -55 107 -71 0 -14 62 -49 88 -49 13 0 37 13 53 29 41 41 41 96 -1 136 -33
31 -40 65 -14 65 9 0 68 -25 131 -55z m-2082 -82 c54 -5 233 -61 305 -95 25
-12 63 -24 85 -28 58 -9 337 -197 390 -262 70 -86 115 -151 115 -165 0 -7 -15
-30 -34 -50 l-33 -37 -74 23 c-41 12 -94 26 -119 31 -25 5 -82 27 -128 49 -45
23 -88 41 -96 41 -7 0 -23 12 -37 26 -26 28 -89 64 -112 64 -7 0 -27 17 -44
38 -17 20 -56 50 -87 65 -31 16 -64 40 -74 55 -9 14 -42 51 -72 82 -79 79
-115 193 -56 175 11 -4 44 -9 71 -12z"/>
</g>
</svg>
