<?xml version="1.0" standalone="no"?>
<!DOCTYPE svg PUBLIC "-//W3C//DTD SVG 20010904//EN"
 "http://www.w3.org/TR/2001/REC-SVG-20010904/DTD/svg10.dtd">
<svg version="1.0" xmlns="http://www.w3.org/2000/svg"
 width="387.000000pt" height="180.000000pt" viewBox="0 0 387.000000 180.000000"
 preserveAspectRatio="xMidYMid meet">
<metadata>
Created by potrace 1.16, written by Peter Selinger 2001-2019
</metadata>
<g transform="translate(0.000000,180.000000) scale(0.100000,-0.100000)"
fill="#000000" stroke="none">
<path d="M2090 1782 c0 -27 32 -52 66 -52 16 0 46 -11 65 -24 41 -28 146 -66
182 -66 34 0 384 -175 437 -219 25 -20 66 -49 91 -64 25 -14 53 -37 62 -51 9
-14 42 -41 72 -62 31 -20 78 -62 105 -93 27 -31 90 -103 141 -161 84 -97 128
-164 129 -199 0 -7 16 -32 36 -54 49 -53 82 -130 86 -197 l3 -55 -39 2 c-22 2
-56 14 -76 27 -20 13 -69 40 -108 60 l-72 36 -65 0 -66 0 -54 -51 c-30 -28
-59 -67 -66 -86 l-11 -35 -22 7 c-11 3 -37 8 -56 11 -19 3 -94 26 -167 50 -73
24 -148 44 -167 44 -20 0 -54 7 -76 16 -59 24 -123 15 -305 -44 -44 -14 -98
-29 -120 -33 -48 -9 -117 -27 -165 -42 -19 -6 -53 -14 -75 -18 -51 -10 -117
-27 -175 -45 -30 -9 -92 -14 -186 -14 -106 0 -151 -4 -179 -16 l-38 -16 -41
16 c-33 13 -83 16 -229 16 -144 0 -196 3 -224 15 -19 8 -59 15 -87 15 -32 0
-84 11 -136 30 -47 16 -94 30 -104 30 -55 0 -268 92 -347 150 -27 19 -54 30
-76 30 l-33 0 0 -70 0 -70 90 -45 c49 -25 95 -45 102 -45 8 0 30 -11 50 -25
33 -23 92 -44 208 -75 25 -6 79 -15 120 -19 41 -4 85 -13 97 -19 12 -7 54 -12
93 -12 40 0 86 -6 107 -15 l35 -15 283 0 283 0 35 15 c23 9 68 15 120 15 53 0
98 6 120 15 23 9 68 15 120 15 53 0 98 6 120 15 20 8 48 15 62 15 14 0 44 9
66 21 22 11 93 38 157 59 127 43 190 49 249 25 19 -8 45 -15 57 -15 24 0 152
-42 195 -64 16 -9 63 -27 104 -40 94 -31 254 -134 360 -233 l78 -73 34 0 c25
0 40 8 59 31 14 17 26 37 26 45 0 29 -39 91 -75 119 -40 30 -109 159 -103 192
7 37 60 25 143 -33 17 -11 50 -31 75 -45 65 -34 79 -48 110 -109 15 -31 51
-77 79 -103 l50 -47 42 0 42 0 39 42 38 41 0 48 c0 26 -4 51 -10 54 -5 3 -10
26 -10 49 0 24 -7 60 -15 79 -8 20 -15 48 -15 62 0 14 -11 47 -24 73 -13 26
-36 86 -51 134 -15 48 -42 111 -61 140 -18 29 -52 89 -75 133 -23 44 -61 101
-84 126 -23 25 -54 63 -68 85 -40 61 -214 225 -297 279 -41 27 -88 61 -105 76
-36 32 -99 64 -142 73 -17 4 -51 24 -75 45 -24 21 -52 43 -63 49 -35 18 -143
52 -167 52 -13 0 -50 13 -83 28 -33 16 -73 32 -89 36 -17 4 -42 16 -57 27
l-27 19 -131 0 -131 0 0 -18z"/>
</g>
</svg>
