<?xml version="1.0" standalone="no"?>
<!DOCTYPE svg PUBLIC "-//W3C//DTD SVG 20010904//EN"
 "http://www.w3.org/TR/2001/REC-SVG-20010904/DTD/svg10.dtd">
<svg version="1.0" xmlns="http://www.w3.org/2000/svg"
 width="237.000000pt" height="300.000000pt" viewBox="0 0 237.000000 300.000000"
 preserveAspectRatio="xMidYMid meet">
<metadata>
Created by potrace 1.16, written by Peter Selinger 2001-2019
</metadata>
<g transform="translate(0.000000,300.000000) scale(0.100000,-0.100000)"
fill="#000000" stroke="none">
<path d="M23 2970 c-14 -17 -23 -42 -23 -64 l0 -36 97 0 c129 0 203 -25 282
-94 33 -28 80 -63 105 -78 33 -19 46 -34 46 -50 0 -14 21 -42 58 -77 56 -54
113 -135 168 -236 14 -27 35 -62 45 -77 11 -15 31 -62 45 -105 14 -43 36 -92
50 -110 33 -43 84 -153 84 -180 0 -19 -23 -53 -36 -53 -3 0 -21 7 -41 15 -19
8 -50 15 -67 15 -41 -1 -127 -48 -145 -81 l-14 -26 22 -71 23 -71 58 -53 c31
-30 67 -72 79 -95 11 -23 36 -54 55 -68 45 -35 62 -74 47 -116 -16 -45 -14
-71 10 -141 32 -95 54 -132 107 -179 27 -24 61 -63 76 -86 14 -23 39 -49 55
-58 38 -19 171 -134 171 -146 0 -6 -16 -17 -37 -25 l-36 -16 -41 16 c-32 12
-80 16 -196 16 -106 0 -169 4 -200 14 -87 28 -136 38 -210 45 -41 4 -85 13
-97 19 -12 7 -40 12 -63 12 -22 0 -57 7 -77 15 -19 8 -53 15 -75 15 -21 0 -55
7 -75 15 -49 21 -204 20 -243 0 l-30 -16 0 -38 0 -39 42 -31 c32 -24 52 -31
87 -31 30 0 57 -7 76 -21 17 -11 55 -34 85 -50 30 -17 80 -46 110 -65 30 -19
66 -37 80 -41 14 -3 64 -46 112 -95 l88 -89 0 -30 c0 -17 -5 -39 -10 -50 l-11
-19 -95 0 -96 0 -29 -29 c-16 -16 -29 -38 -29 -48 0 -27 28 -63 50 -63 10 0
22 -4 25 -10 8 -12 192 -13 199 -1 3 4 18 11 34 14 16 3 49 28 78 59 39 41 53
65 63 108 l13 55 -16 56 -17 56 -69 64 c-38 35 -84 76 -102 91 l-33 28 15 10
c21 14 55 12 97 -5 19 -8 60 -15 90 -15 29 0 70 -7 90 -15 20 -8 66 -15 105
-15 38 0 84 -7 105 -15 20 -8 66 -15 105 -15 38 0 84 -7 105 -15 26 -11 76
-15 195 -15 118 0 168 -4 195 -15 19 -8 64 -15 100 -15 l65 0 29 29 c70 70 21
128 -156 186 -42 14 -108 46 -150 74 -41 28 -98 62 -127 77 -53 27 -190 157
-275 261 -60 72 -58 93 14 140 32 21 59 47 61 57 2 11 -6 41 -19 68 l-22 48
-36 10 c-52 14 -146 97 -255 227 l-19 23 13 15 c8 10 30 15 67 15 l54 0 27
-30 c15 -17 45 -50 67 -73 49 -51 105 -122 105 -133 0 -12 52 -64 64 -64 16
-1 47 -29 80 -73 16 -21 51 -49 76 -62 26 -13 72 -46 102 -74 30 -28 90 -68
134 -90 43 -22 101 -58 128 -80 29 -25 58 -41 74 -41 14 0 67 -13 117 -29 49
-16 116 -35 148 -42 l58 -13 55 27 54 27 0 71 0 71 -59 77 c-33 42 -70 86 -83
99 -45 45 -186 147 -269 195 -25 14 -58 42 -73 61 -17 23 -40 39 -65 46 -45
12 -73 26 -116 56 -71 51 -246 124 -296 124 -34 0 -133 67 -183 125 -25 29
-46 58 -46 64 0 5 -34 78 -75 162 -41 83 -75 158 -75 165 0 26 -97 208 -124
233 -14 14 -26 31 -26 38 0 26 -43 98 -85 144 -23 25 -54 64 -69 87 -14 23
-40 48 -56 57 -17 9 -61 44 -98 80 -74 69 -191 135 -241 135 -16 0 -33 5 -36
10 -4 6 -57 10 -128 9 l-122 0 -22 -29z m1605 -1525 c42 -25 84 -50 92 -55 8
-5 44 -28 80 -50 36 -22 92 -63 125 -91 33 -27 71 -53 84 -56 23 -6 161 -138
161 -154 0 -19 -64 -8 -127 21 -35 17 -77 30 -92 30 -17 0 -37 10 -52 26 -13
14 -75 60 -137 101 -76 51 -122 89 -138 114 -13 21 -36 45 -51 53 -42 22 -87
72 -80 90 11 27 56 18 135 -29z"/>
</g>
</svg>
