<?xml version="1.0" standalone="no"?>
<!DOCTYPE svg PUBLIC "-//W3C//DTD SVG 20010904//EN"
 "http://www.w3.org/TR/2001/REC-SVG-20010904/DTD/svg10.dtd">
<svg version="1.0" xmlns="http://www.w3.org/2000/svg"
 width="444.000000pt" height="510.000000pt" viewBox="0 0 444.000000 510.000000"
 preserveAspectRatio="xMidYMid meet">
<metadata>
Created by potrace 1.16, written by Peter Selinger 2001-2019
</metadata>
<g transform="translate(0.000000,510.000000) scale(0.100000,-0.100000)"
fill="#000000" stroke="none">
<path d="M2952 5072 c-35 -29 -42 -56 -16 -66 9 -3 45 -6 81 -6 51 0 79 -6
130 -30 35 -16 75 -30 89 -30 14 0 41 -7 61 -15 19 -8 48 -15 62 -15 32 0 190
-75 250 -118 22 -16 56 -33 75 -36 18 -4 53 -24 77 -45 24 -21 64 -48 87 -60
56 -29 201 -168 247 -237 19 -29 49 -62 65 -74 20 -14 30 -30 30 -47 0 -14 6
-46 14 -72 30 -93 37 -146 26 -175 -5 -15 -10 -43 -10 -63 0 -19 -10 -67 -22
-106 l-23 -70 -65 -67 c-36 -36 -73 -78 -83 -93 -10 -15 -30 -30 -45 -33 -15
-4 -74 -30 -132 -59 -124 -60 -223 -95 -272 -95 -20 0 -52 -7 -71 -15 -21 -8
-67 -15 -105 -15 -39 0 -85 -7 -105 -15 -20 -8 -61 -15 -90 -15 -30 0 -71 -7
-90 -15 l-36 -15 -441 0 -441 0 -36 15 c-23 10 -69 15 -135 15 -65 0 -111 5
-135 15 -22 9 -67 15 -120 15 -52 0 -97 6 -120 15 -24 10 -70 15 -147 15 -68
0 -128 5 -156 14 -77 24 -133 37 -190 45 -30 4 -71 12 -90 18 -50 16 -118 33
-172 43 -26 5 -56 13 -67 19 -11 6 -38 11 -61 11 -70 0 -241 94 -299 164 -8
10 -29 16 -54 16 l-40 0 -43 -44 -44 -43 0 -45 c0 -25 -5 -60 -11 -78 -13 -35
-4 -90 32 -209 15 -48 33 -78 70 -119 28 -30 63 -81 80 -113 20 -41 42 -67 69
-84 22 -14 47 -37 57 -52 22 -37 160 -173 198 -198 17 -10 57 -44 90 -75 33
-31 81 -69 107 -83 26 -15 56 -41 68 -57 12 -17 39 -39 59 -50 21 -10 65 -42
97 -69 32 -28 84 -64 114 -80 56 -30 222 -137 293 -188 91 -66 186 -127 246
-158 29 -15 64 -43 78 -62 26 -33 88 -73 116 -73 7 0 24 -12 38 -26 13 -14 51
-43 84 -65 33 -22 87 -62 120 -89 33 -28 84 -69 114 -93 96 -74 251 -271 251
-318 0 -14 5 -40 11 -58 13 -36 1 -75 -38 -128 -14 -17 -29 -48 -34 -69 -16
-56 -103 -137 -192 -179 -41 -19 -79 -35 -85 -35 -6 0 -40 -14 -75 -30 -36
-16 -76 -30 -89 -30 -12 0 -61 -14 -108 -30 l-84 -30 -292 0 -291 0 -39 28
c-49 36 -99 101 -87 113 5 5 33 21 63 36 l55 28 32 60 c18 33 32 71 32 85 0
14 -21 66 -47 115 l-47 90 -45 24 c-25 13 -65 41 -90 61 -62 51 -83 61 -258
119 l-153 51 -199 0 -199 0 -153 -51 c-84 -28 -160 -57 -169 -65 -8 -8 -26
-38 -38 -67 -13 -28 -27 -60 -32 -69 -12 -24 -11 -105 1 -113 6 -3 10 -15 10
-26 0 -30 116 -147 175 -176 28 -14 71 -43 97 -64 32 -27 74 -48 135 -67 48
-16 116 -43 149 -60 87 -44 327 -119 409 -128 22 -3 74 -15 115 -27 l75 -22
57 -56 c59 -57 108 -143 108 -190 0 -15 7 -44 16 -64 l16 -38 -17 -43 c-9 -24
-28 -53 -42 -64 l-26 -20 -166 0 c-176 0 -191 -4 -191 -46 0 -25 43 -64 71
-64 10 0 21 -5 24 -10 4 -6 77 -10 185 -10 l179 0 6 20 c4 12 31 34 60 51 66
37 68 40 94 116 29 86 27 173 -4 269 -14 42 -25 80 -25 85 0 5 14 16 32 25
l31 16 37 -11 c48 -14 86 -14 113 1 12 7 69 15 127 19 101 6 142 14 240 45 25
8 66 14 92 14 52 0 228 55 313 97 27 14 64 38 80 53 17 15 42 30 56 34 26 6
51 31 134 137 55 71 80 122 90 179 22 129 -5 234 -82 324 -18 22 -38 56 -43
76 -10 36 -51 81 -105 115 -16 10 -60 47 -97 82 -37 34 -75 63 -85 63 -10 0
-37 23 -61 50 -25 29 -67 63 -100 80 -31 16 -83 50 -116 77 -70 58 -125 93
-147 93 -8 0 -26 12 -40 26 -13 14 -37 33 -54 41 -49 25 -281 182 -300 203
-10 11 -35 25 -56 30 -21 6 -61 32 -91 59 -29 26 -73 58 -98 71 -58 29 -116
73 -160 121 -19 21 -53 44 -74 51 -27 9 -49 26 -70 56 -17 24 -51 55 -76 68
-25 14 -67 50 -93 80 -34 38 -60 57 -87 64 -22 6 -47 21 -55 33 -9 12 -37 50
-63 85 -26 35 -62 84 -80 109 -18 25 -46 62 -63 81 -38 43 -79 127 -79 163 0
14 -5 41 -11 59 l-12 32 14 9 c32 20 123 1 237 -52 40 -18 113 -42 212 -69 25
-7 92 -15 150 -19 58 -4 115 -12 127 -19 12 -7 40 -12 63 -12 22 0 57 -7 77
-15 19 -8 53 -15 75 -15 21 0 55 -7 75 -15 19 -8 60 -15 90 -15 29 0 70 -7 90
-15 23 -10 69 -15 135 -15 65 0 111 -5 135 -15 l35 -15 628 0 628 0 35 15 c20
8 66 15 102 15 52 0 94 10 198 45 73 25 141 45 150 45 33 0 233 72 302 109 39
21 84 45 100 53 17 9 42 21 57 27 14 5 41 32 58 58 17 26 49 61 71 76 22 16
46 41 53 56 23 43 56 148 56 175 0 14 5 28 10 31 13 8 13 240 0 263 -5 9 -19
46 -31 81 -33 104 -51 130 -181 256 -145 142 -205 189 -313 245 -44 23 -104
56 -133 75 -29 18 -92 45 -140 60 -48 15 -103 36 -122 45 -53 27 -247 90 -275
90 -13 0 -27 5 -30 10 -4 6 -52 10 -113 10 l-107 -1 -33 -27z m-2205 -3657
c19 -8 54 -15 77 -15 25 0 53 -8 71 -21 17 -11 66 -38 110 -61 96 -49 148 -88
186 -141 32 -45 37 -78 13 -101 -24 -25 -52 -19 -152 29 -71 34 -105 45 -142
45 l-49 0 -20 -26 c-11 -14 -23 -34 -26 -44 -7 -22 20 -79 47 -98 10 -8 32
-37 48 -66 17 -29 41 -63 55 -76 50 -47 17 -54 -71 -15 -31 14 -73 25 -93 25
-39 0 -156 37 -220 69 -22 12 -46 21 -53 21 -7 0 -30 11 -51 25 -20 14 -72 43
-114 64 -139 69 -212 152 -199 225 9 45 63 102 107 111 17 4 59 20 93 36 l61
29 143 0 c104 0 152 -4 179 -15z"/>
</g>
</svg>
