<?xml version="1.0" standalone="no"?>
<!DOCTYPE svg PUBLIC "-//W3C//DTD SVG 20010904//EN"
 "http://www.w3.org/TR/2001/REC-SVG-20010904/DTD/svg10.dtd">
<svg version="1.0" xmlns="http://www.w3.org/2000/svg"
 width="429.000000pt" height="249.000000pt" viewBox="0 0 429.000000 249.000000"
 preserveAspectRatio="xMidYMid meet">
<metadata>
Created by potrace 1.16, written by Peter Selinger 2001-2019
</metadata>
<g transform="translate(0.000000,249.000000) scale(0.100000,-0.100000)"
fill="#000000" stroke="none">
<path d="M2227 2463 c-8 -42 30 -73 90 -73 32 0 58 -7 78 -21 53 -36 124 -69
148 -69 27 0 122 -32 195 -66 29 -13 58 -24 65 -24 6 0 41 -14 75 -30 35 -17
68 -30 74 -30 31 0 171 -90 207 -134 7 -9 20 -16 28 -16 26 0 86 -32 133 -70
25 -20 79 -58 120 -85 41 -27 102 -74 135 -105 33 -31 77 -67 97 -80 20 -14
49 -44 65 -69 15 -24 44 -54 65 -67 21 -13 45 -36 55 -51 10 -16 34 -48 54
-73 20 -25 45 -61 54 -80 9 -19 29 -48 44 -65 37 -41 121 -292 121 -363 l0
-51 -57 -40 c-31 -23 -62 -41 -69 -41 -7 0 -41 -13 -76 -30 -38 -18 -79 -30
-104 -30 -23 0 -58 -7 -77 -15 -23 -9 -68 -15 -120 -15 -53 0 -98 -6 -120 -15
-21 -8 -67 -15 -105 -15 -39 0 -85 -7 -105 -15 -20 -8 -61 -15 -90 -15 -30 0
-71 -7 -90 -15 -21 -9 -67 -15 -107 -15 -39 0 -81 -5 -93 -12 -20 -11 -88 -19
-277 -34 -36 -3 -190 -7 -343 -10 l-278 -5 -117 56 c-64 32 -155 69 -202 84
-47 16 -104 38 -127 50 -23 11 -48 21 -55 21 -7 0 -42 14 -76 30 -37 17 -80
30 -102 30 -21 0 -50 4 -65 10 -41 16 -113 -8 -143 -47 -13 -18 -30 -33 -36
-33 -7 0 -63 34 -125 75 -62 41 -131 85 -153 96 -22 11 -59 34 -81 50 -22 16
-47 29 -56 29 -8 0 -29 13 -46 29 -16 16 -82 55 -145 87 -62 32 -130 72 -150
90 -19 17 -64 46 -100 64 -36 18 -78 43 -95 55 -39 30 -110 65 -130 65 l-15 0
0 -70 c0 -52 3 -70 14 -70 7 0 31 -13 52 -30 74 -56 244 -170 286 -191 24 -12
57 -33 75 -46 17 -13 47 -28 65 -34 19 -5 52 -24 74 -43 21 -18 58 -43 80 -54
50 -26 170 -106 204 -137 29 -26 92 -59 132 -69 15 -3 39 -22 54 -42 15 -19
49 -46 74 -59 26 -13 71 -46 101 -73 109 -99 193 -118 236 -53 13 19 23 37 23
40 0 4 -18 30 -40 60 -40 53 -48 83 -31 110 l9 15 64 -26 c35 -15 74 -30 87
-34 37 -10 83 -38 95 -56 7 -12 3 -33 -18 -82 l-28 -66 22 -70 c24 -73 34 -87
90 -115 19 -10 53 -37 75 -61 41 -43 132 -84 189 -84 14 0 28 -4 31 -10 3 -6
48 -10 99 -10 l92 0 26 27 c49 53 58 84 58 203 0 61 5 120 10 131 l11 19 58 0
c32 0 75 7 94 15 21 8 67 15 105 15 39 0 85 7 105 15 21 8 67 15 105 15 39 0
85 7 105 15 28 11 78 15 210 15 133 0 183 4 210 15 23 9 68 15 120 15 53 0 98
6 120 15 20 8 60 15 89 15 33 0 85 12 138 30 l84 30 146 0 c116 0 150 3 168
16 23 16 72 103 72 128 0 8 11 28 25 44 l25 30 0 126 0 127 -21 28 c-11 15
-23 48 -26 72 -7 55 -64 169 -113 229 -21 25 -50 69 -64 97 -17 35 -40 61 -66
78 -22 14 -51 42 -64 64 -14 21 -39 49 -56 62 -39 29 -86 76 -123 122 -15 20
-51 49 -80 65 -29 17 -65 46 -80 66 -16 20 -40 39 -55 42 -15 4 -43 21 -63 39
-69 61 -204 145 -235 145 -16 0 -42 9 -59 21 -60 41 -245 129 -271 129 -15 0
-65 18 -112 41 -99 46 -281 109 -317 109 -13 0 -27 5 -30 10 -4 6 -53 10 -114
10 l-109 0 -5 -27z m-191 -2129 c19 -9 44 -30 56 -47 23 -32 35 -113 20 -135
l-9 -14 -51 16 c-28 8 -68 26 -89 40 -21 14 -46 26 -55 26 -20 0 -60 57 -56
79 4 21 69 51 111 51 22 0 54 -7 73 -16z"/>
</g>
</svg>
