<?xml version="1.0" standalone="no"?>
<!DOCTYPE svg PUBLIC "-//W3C//DTD SVG 20010904//EN"
 "http://www.w3.org/TR/2001/REC-SVG-20010904/DTD/svg10.dtd">
<svg version="1.0" xmlns="http://www.w3.org/2000/svg"
 width="261.000000pt" height="402.000000pt" viewBox="0 0 261.000000 402.000000"
 preserveAspectRatio="xMidYMid meet">
<metadata>
Created by potrace 1.16, written by Peter Selinger 2001-2019
</metadata>
<g transform="translate(0.000000,402.000000) scale(0.100000,-0.100000)"
fill="#000000" stroke="none">
<path d="M23 4006 c-18 -8 -23 -19 -23 -48 l0 -38 86 0 c90 0 129 -11 189 -56
37 -27 161 -89 195 -97 14 -4 50 -27 80 -52 30 -24 79 -60 108 -80 36 -24 52
-41 52 -56 0 -13 18 -39 43 -62 47 -45 105 -131 168 -252 23 -44 50 -91 59
-105 22 -31 60 -136 60 -166 0 -12 13 -51 30 -86 16 -34 30 -74 30 -88 0 -13
7 -43 16 -67 18 -46 13 -87 -11 -97 -9 -3 -32 1 -52 9 -46 19 -86 19 -126 -1
-63 -32 -67 -40 -67 -126 l0 -79 24 -47 c27 -53 56 -81 139 -137 l58 -39 27
10 c41 14 39 48 -8 127 -52 85 -50 101 12 105 73 5 198 -58 198 -100 0 -11 26
-47 58 -81 32 -34 76 -84 97 -112 63 -79 316 -335 359 -362 22 -14 60 -45 85
-68 25 -23 66 -53 91 -65 25 -13 59 -33 75 -45 51 -39 113 -65 151 -65 l37 0
43 44 44 43 0 71 0 70 -41 48 c-22 27 -51 70 -64 96 -14 25 -42 59 -64 75 -22
15 -52 47 -67 71 -15 24 -51 59 -78 77 -28 19 -73 57 -101 85 -30 30 -64 54
-85 60 -20 5 -54 25 -76 43 -40 35 -173 107 -196 107 -22 0 -166 100 -187 129
-11 15 -26 45 -34 67 -18 47 -51 128 -83 204 -32 76 -64 171 -64 192 0 47 -76
224 -129 303 -12 17 -21 38 -21 47 0 10 -22 43 -50 73 -27 30 -61 72 -74 93
-30 49 -235 242 -256 242 -8 0 -28 9 -45 21 -57 39 -166 90 -248 116 -45 14
-94 34 -109 45 l-26 18 -104 -1 c-56 -1 -113 -6 -125 -13z m1702 -1769 c22
-17 58 -51 81 -74 22 -24 48 -43 56 -43 17 0 179 -156 224 -216 22 -28 64
-102 64 -111 0 -10 -40 -1 -49 11 -7 8 -31 23 -54 34 -47 22 -378 346 -403
394 -30 57 10 59 81 5z"/>
<path d="M1015 1885 c-16 -8 -45 -14 -63 -15 -25 0 -45 -11 -83 -47 -104 -97
-126 -203 -69 -325 16 -34 30 -68 30 -75 0 -6 13 -40 30 -75 16 -34 30 -70 30
-80 0 -9 18 -31 40 -48 23 -18 52 -55 66 -82 33 -66 100 -147 192 -233 41 -38
146 -139 232 -222 86 -84 161 -153 166 -153 6 0 52 -38 104 -85 52 -47 115
-96 140 -109 25 -13 73 -49 108 -80 34 -31 70 -56 78 -56 21 0 175 -94 204
-125 13 -14 35 -25 50 -25 26 0 124 -31 137 -43 3 -4 51 -7 105 -7 l98 0 0 35
0 35 -23 0 c-31 0 -135 37 -167 60 -14 9 -68 39 -120 65 -113 56 -331 200
-380 250 -19 19 -51 40 -72 46 -22 5 -45 21 -55 36 -10 15 -38 46 -63 70 -49
47 -71 69 -160 159 -32 33 -82 77 -111 99 -29 22 -72 65 -96 95 -23 30 -52 66
-63 80 -12 14 -39 47 -60 73 -22 27 -45 67 -52 90 -7 23 -27 60 -46 82 -24 28
-46 75 -73 155 -61 183 -51 254 47 316 87 56 98 101 34 134 -45 23 -92 25
-135 5z"/>
</g>
</svg>
