<?xml version="1.0" standalone="no"?>
<!DOCTYPE svg PUBLIC "-//W3C//DTD SVG 20010904//EN"
 "http://www.w3.org/TR/2001/REC-SVG-20010904/DTD/svg10.dtd">
<svg version="1.0" xmlns="http://www.w3.org/2000/svg"
 width="252.000000pt" height="288.000000pt" viewBox="0 0 252.000000 288.000000"
 preserveAspectRatio="xMidYMid meet">
<metadata>
Created by potrace 1.16, written by Peter Selinger 2001-2019
</metadata>
<g transform="translate(0.000000,288.000000) scale(0.100000,-0.100000)"
fill="#000000" stroke="none">
<path d="M377 2873 c-4 -3 -7 -17 -7 -29 0 -18 11 -29 43 -45 23 -12 63 -39
89 -60 26 -22 93 -63 150 -91 57 -28 119 -63 139 -78 20 -14 56 -34 80 -44 60
-25 57 -23 141 -91 40 -33 87 -69 103 -79 17 -11 57 -45 90 -76 33 -31 76 -67
96 -80 20 -13 46 -39 59 -59 13 -20 49 -63 80 -96 31 -33 65 -73 75 -90 20
-31 74 -99 137 -173 20 -24 40 -57 44 -75 3 -17 33 -85 65 -150 l59 -120 0
-94 c0 -71 -6 -113 -22 -166 l-23 -72 -92 -90 c-92 -89 -107 -117 -81 -143 18
-18 59 -15 133 9 l65 22 64 71 c76 85 75 84 120 219 40 120 42 139 21 190 -8
20 -15 54 -15 75 0 22 -7 56 -15 75 -8 20 -15 49 -15 65 0 16 -13 47 -30 70
-16 22 -50 82 -76 134 -25 51 -62 110 -80 130 -18 21 -47 64 -63 97 -19 37
-45 70 -70 87 -21 16 -48 43 -60 60 -36 52 -213 226 -285 279 -68 50 -84 62
-178 123 -58 39 -242 132 -260 132 -7 0 -26 13 -43 29 -40 39 -205 121 -244
121 -16 0 -33 5 -36 10 -7 11 -148 14 -158 3z"/>
<path d="M22 680 c-14 -6 -22 -18 -22 -34 0 -28 37 -60 110 -96 25 -12 66 -39
91 -61 45 -37 146 -79 191 -79 13 0 43 -14 68 -30 25 -16 52 -30 60 -30 8 0
40 -12 70 -26 71 -33 164 -64 191 -64 12 0 60 -18 107 -41 107 -50 282 -109
324 -109 18 0 73 -13 123 -29 138 -44 175 -53 245 -58 36 -3 69 -9 75 -14 13
-13 372 -12 380 1 3 6 27 10 52 10 36 0 73 14 180 67 134 67 142 73 226 177
l27 34 0 156 c0 102 -4 156 -10 156 -6 0 -22 11 -36 25 -59 60 -120 70 -154
28 l-22 -28 6 -65 c9 -88 9 -105 -1 -180 -11 -85 -34 -116 -131 -179 l-77 -51
-275 0 c-210 0 -286 3 -320 14 -60 19 -125 35 -181 46 -26 5 -69 20 -97 34
-28 14 -68 26 -89 26 -37 0 -245 65 -301 94 -16 8 -83 33 -150 55 -67 22 -139
52 -159 66 -21 14 -44 25 -53 25 -8 0 -44 14 -78 30 -35 17 -69 30 -76 30 -7
0 -50 18 -97 41 -63 31 -174 74 -174 68 0 0 -10 -4 -23 -9z"/>
</g>
</svg>
