<?xml version="1.0" standalone="no"?>
<!DOCTYPE svg PUBLIC "-//W3C//DTD SVG 20010904//EN"
 "http://www.w3.org/TR/2001/REC-SVG-20010904/DTD/svg10.dtd">
<svg version="1.0" xmlns="http://www.w3.org/2000/svg"
 width="486.000000pt" height="363.000000pt" viewBox="0 0 486.000000 363.000000"
 preserveAspectRatio="xMidYMid meet">
<metadata>
Created by potrace 1.16, written by Peter Selinger 2001-2019
</metadata>
<g transform="translate(0.000000,363.000000) scale(0.100000,-0.100000)"
fill="#000000" stroke="none">
<path d="M3488 3599 c-39 -32 -49 -64 -26 -87 7 -7 44 -12 98 -12 89 0 150
-15 258 -66 29 -13 64 -24 78 -24 54 0 181 -71 269 -150 17 -15 42 -30 57 -34
15 -3 35 -18 45 -33 10 -14 43 -53 74 -87 58 -63 136 -172 168 -235 11 -20 31
-47 45 -60 16 -15 26 -35 26 -52 0 -14 7 -43 15 -62 11 -27 15 -76 15 -192 0
-215 -12 -241 -136 -301 l-71 -34 -232 0 c-183 0 -239 3 -268 15 -19 8 -51 15
-71 15 -39 0 -152 35 -193 59 -14 9 -50 31 -80 49 -30 17 -70 36 -89 42 -50
13 -134 55 -182 90 -22 17 -48 30 -56 30 -8 0 -41 12 -74 27 l-59 26 -52 -13
c-74 -18 -87 -32 -87 -97 l0 -54 38 -39 c42 -44 226 -140 268 -140 15 0 79
-25 143 -56 64 -31 150 -67 191 -80 105 -34 178 -70 230 -113 25 -20 61 -47
80 -60 20 -13 48 -41 64 -62 15 -22 49 -50 76 -64 27 -14 57 -37 67 -51 10
-15 41 -51 69 -79 71 -73 154 -202 154 -240 0 -16 14 -50 30 -75 21 -32 30
-57 30 -86 0 -23 7 -58 15 -77 8 -20 15 -52 15 -72 0 -20 -7 -52 -15 -72 -8
-19 -15 -48 -15 -63 0 -19 -11 -36 -40 -59 -25 -20 -43 -44 -47 -62 -6 -32
-29 -51 -113 -93 -30 -16 -69 -39 -87 -52 -53 -40 -158 -84 -201 -84 -22 0
-56 -7 -75 -15 -20 -8 -54 -15 -75 -15 -22 0 -56 -7 -75 -15 -20 -8 -54 -15
-75 -15 -22 0 -56 -7 -75 -15 -21 -8 -67 -15 -105 -15 -39 0 -85 -7 -105 -15
-46 -19 -128 -19 -174 0 -48 20 -198 20 -246 0 -53 -22 -511 -22 -564 0 -22 9
-67 15 -120 15 -52 0 -97 6 -120 15 -19 8 -53 15 -75 15 -21 0 -55 7 -75 15
-19 8 -60 15 -90 15 -29 0 -70 7 -90 15 -26 11 -75 15 -192 15 -107 0 -170 4
-201 14 -77 24 -133 37 -190 45 -30 4 -71 12 -90 18 -82 26 -130 36 -215 42
-49 4 -100 12 -112 19 -12 7 -47 12 -78 12 l-56 0 -63 38 c-35 21 -117 55
-182 77 -77 24 -130 48 -149 65 -16 15 -42 30 -57 34 -14 3 -32 8 -40 11 -7 3
-37 -13 -67 -35 -29 -22 -59 -40 -67 -40 -9 0 -14 -12 -14 -36 l0 -36 78 -73
c43 -41 91 -93 107 -117 16 -24 71 -86 122 -139 60 -63 95 -108 101 -130 6
-26 22 -43 63 -70 38 -25 63 -52 82 -87 30 -56 88 -112 115 -112 10 0 36 -18
57 -40 49 -51 87 -54 110 -10 24 46 18 66 -34 124 -28 30 -58 68 -67 83 -10
15 -34 46 -55 68 -45 48 -121 160 -155 226 -13 27 -29 49 -34 49 -6 0 -10 7
-10 15 0 21 22 19 115 -9 149 -44 170 -48 275 -55 58 -4 115 -12 127 -19 12
-7 40 -12 63 -12 22 0 57 -7 77 -15 19 -8 53 -15 75 -15 21 0 55 -7 75 -15 19
-8 60 -15 90 -15 29 0 70 -7 90 -15 22 -9 67 -15 120 -15 52 0 97 -6 120 -15
22 -9 67 -15 120 -15 52 0 97 -6 120 -15 26 -11 76 -15 195 -15 118 0 168 -4
195 -15 l35 -15 552 0 551 0 85 30 c65 23 101 30 162 30 l77 0 151 50 c83 28
175 62 205 75 30 14 59 25 64 25 6 0 35 11 63 25 29 14 70 30 90 36 22 5 45
21 55 36 10 15 39 48 64 73 50 49 86 111 118 208 l21 61 0 144 c0 106 -4 154
-15 180 -8 20 -15 50 -15 66 0 19 -13 45 -41 77 -22 27 -52 71 -66 99 -14 27
-43 70 -63 95 -21 25 -46 61 -55 80 -24 47 -133 168 -167 186 -40 21 -62 58
-49 82 14 27 137 41 231 27 l45 -7 67 31 c36 17 74 31 83 31 28 0 177 153 208
213 15 30 36 62 47 72 l20 18 0 144 0 144 -20 27 c-11 15 -24 50 -29 77 -5 28
-20 75 -35 105 -14 30 -26 63 -26 72 0 10 -25 45 -55 79 -32 35 -59 77 -65 99
-11 40 -42 71 -152 150 -34 25 -82 66 -107 91 -26 26 -77 63 -116 83 -38 21
-93 52 -122 70 -61 38 -169 76 -219 76 -19 0 -51 7 -71 15 -19 8 -48 15 -64
15 -15 0 -31 5 -34 10 -4 6 -52 10 -113 10 l-107 -1 -37 -30z"/>
</g>
</svg>
