<?xml version="1.0" standalone="no"?>
<!DOCTYPE svg PUBLIC "-//W3C//DTD SVG 20010904//EN"
 "http://www.w3.org/TR/2001/REC-SVG-20010904/DTD/svg10.dtd">
<svg version="1.0" xmlns="http://www.w3.org/2000/svg"
 width="210.000000pt" height="249.000000pt" viewBox="0 0 210.000000 249.000000"
 preserveAspectRatio="xMidYMid meet">
<metadata>
Created by potrace 1.16, written by Peter Selinger 2001-2019
</metadata>
<g transform="translate(0.000000,249.000000) scale(0.100000,-0.100000)"
fill="#000000" stroke="none">
<path d="M801 2466 c-13 -13 -21 -32 -19 -42 3 -16 67 -48 181 -90 22 -8 55
-26 75 -39 20 -14 43 -25 50 -25 8 0 41 -13 75 -28 34 -16 74 -32 89 -35 14
-4 40 -24 57 -46 19 -24 42 -41 61 -44 48 -10 80 -37 112 -94 19 -33 46 -64
69 -79 21 -13 46 -36 56 -51 9 -16 39 -52 66 -82 31 -35 74 -105 119 -194 161
-322 160 -382 -12 -667 -21 -35 -149 -129 -204 -149 -16 -7 -120 -11 -257 -11
-182 0 -237 3 -266 15 -19 8 -45 15 -56 15 -32 0 -143 40 -230 82 -43 21 -83
38 -90 38 -7 0 -32 14 -57 30 -25 16 -51 30 -59 30 -22 0 -196 86 -242 120
-67 48 -129 38 -210 -35 -20 -18 -53 -39 -73 -46 -27 -10 -36 -19 -36 -36 0
-13 6 -23 13 -23 29 0 94 -85 115 -153 24 -75 80 -162 142 -222 23 -22 55 -57
72 -78 l30 -37 -12 -15 c-7 -8 -26 -15 -42 -15 -20 0 -40 -10 -60 -30 l-30
-30 5 -43 c4 -37 12 -70 36 -157 3 -13 26 -37 49 -53 24 -16 54 -47 68 -68 14
-22 37 -45 52 -50 15 -6 35 -15 44 -20 10 -5 63 -9 118 -9 l100 0 0 21 c0 13
-30 50 -79 98 -44 42 -84 89 -90 104 -11 28 -6 57 11 57 16 0 121 -52 153 -76
17 -12 54 -34 82 -49 29 -15 66 -44 82 -64 17 -21 49 -45 73 -55 24 -10 51
-22 60 -27 38 -19 76 -10 118 29 l40 39 0 40 c0 47 -11 59 -100 103 -36 18
-85 49 -110 69 -25 20 -63 47 -85 60 -22 13 -64 50 -94 83 -30 33 -72 71 -93
84 -21 13 -49 41 -62 62 -13 20 -44 50 -69 66 -25 16 -52 43 -60 60 -35 72
-58 139 -50 147 11 11 117 -26 162 -57 19 -13 49 -24 66 -24 16 0 72 -20 123
-45 52 -25 104 -45 115 -45 12 0 42 -6 67 -14 108 -34 143 -40 274 -43 109 -3
147 -1 178 11 21 9 54 16 73 16 44 0 229 62 314 105 65 33 102 64 134 118 10
15 36 38 57 52 30 19 48 41 67 83 14 31 30 65 34 74 13 25 11 375 -1 383 -5 3
-10 21 -10 38 0 19 -12 51 -30 77 -16 25 -30 52 -30 60 0 8 -14 35 -30 60 -16
25 -30 52 -30 60 0 8 -48 66 -105 129 -58 63 -105 118 -105 123 0 5 -26 37
-57 70 -58 60 -266 208 -294 208 -8 0 -31 11 -52 25 -60 41 -235 125 -260 125
-24 0 -122 32 -134 43 -3 4 -34 7 -68 7 l-62 0 -22 -24z"/>
</g>
</svg>
