<?xml version="1.0" standalone="no"?>
<!DOCTYPE svg PUBLIC "-//W3C//DTD SVG 20010904//EN"
 "http://www.w3.org/TR/2001/REC-SVG-20010904/DTD/svg10.dtd">
<svg version="1.0" xmlns="http://www.w3.org/2000/svg"
 width="504.000000pt" height="360.000000pt" viewBox="0 0 504.000000 360.000000"
 preserveAspectRatio="xMidYMid meet">
<metadata>
Created by potrace 1.16, written by Peter Selinger 2001-2019
</metadata>
<g transform="translate(0.000000,360.000000) scale(0.100000,-0.100000)"
fill="#000000" stroke="none">
<path d="M2780 3567 c0 -53 24 -67 111 -67 l74 0 72 -38 c40 -20 104 -56 143
-80 l70 -43 32 -55 c18 -34 46 -65 69 -80 21 -13 46 -36 56 -51 9 -16 37 -48
62 -73 58 -56 131 -167 131 -198 0 -26 27 -82 64 -131 14 -19 40 -79 57 -133
17 -54 49 -127 70 -163 53 -88 39 -117 -43 -90 -24 8 -69 19 -101 26 l-58 12
-44 -21 c-24 -12 -54 -35 -66 -52 -13 -16 -27 -30 -31 -30 -30 0 -141 65 -164
96 -15 19 -44 44 -64 54 -57 29 -170 108 -215 149 -22 21 -60 50 -84 67 -44
29 -113 89 -201 178 -36 36 -53 46 -78 46 -34 0 -84 -21 -114 -48 l-18 -15 0
-168 0 -168 -27 -19 c-42 -29 -119 -62 -146 -62 -14 0 -41 -7 -60 -15 -27 -11
-76 -15 -192 -15 -116 0 -165 4 -192 15 -19 8 -53 15 -75 15 -21 0 -55 7 -75
15 -19 8 -60 15 -90 15 -29 0 -70 7 -90 15 -19 8 -53 15 -75 15 -21 0 -55 7
-75 15 -19 8 -61 15 -92 15 -41 0 -72 8 -119 30 -35 17 -76 30 -90 30 -15 0
-52 12 -82 26 -30 14 -89 37 -130 50 -105 34 -178 72 -203 107 -29 38 -147
117 -176 117 -15 0 -41 -17 -67 -44 l-44 -43 0 -47 c0 -26 -7 -63 -15 -83 -20
-46 -20 -170 0 -216 8 -20 15 -54 15 -75 0 -22 7 -56 15 -75 8 -20 15 -49 15
-65 0 -17 9 -37 21 -48 31 -27 93 -112 118 -162 12 -24 51 -86 86 -139 36 -52
65 -99 65 -104 0 -4 25 -36 55 -71 30 -34 55 -68 55 -75 0 -6 22 -38 50 -70
27 -32 50 -66 50 -75 l0 -18 -105 0 c-71 0 -117 5 -142 15 -49 21 -227 21
-276 0 -20 -8 -66 -15 -101 -15 -40 0 -91 -8 -131 -21 -66 -22 -73 -28 -157
-133 l-28 -34 0 -100 c0 -57 4 -104 10 -107 6 -3 10 -14 10 -23 0 -9 18 -43
39 -75 22 -32 43 -72 47 -90 13 -61 82 -185 119 -212 19 -15 35 -34 35 -42 0
-24 31 -76 74 -124 41 -46 58 -75 93 -159 10 -25 42 -72 72 -105 29 -33 64
-81 76 -106 26 -50 41 -65 70 -70 11 -2 24 -14 30 -27 8 -17 18 -22 47 -22 47
0 47 8 8 92 -16 34 -30 69 -30 77 0 7 -16 31 -36 53 -35 39 -114 188 -114 215
0 23 -36 87 -64 112 -14 14 -26 31 -26 38 0 25 -98 208 -124 232 -15 14 -26
36 -26 50 0 14 -14 64 -30 111 -17 46 -30 94 -30 106 0 12 -7 38 -15 59 -13
29 -14 44 -5 70 28 83 97 125 208 125 39 0 85 7 105 15 57 24 106 19 157 -15
l45 -30 73 0 c42 0 88 -6 109 -15 19 -8 58 -15 86 -15 91 0 171 -35 253 -112
41 -37 78 -68 83 -68 4 0 45 -34 90 -75 48 -45 90 -75 103 -75 12 0 38 -18 62
-43 23 -24 69 -66 104 -93 101 -78 184 -144 265 -211 76 -62 131 -95 177 -106
14 -4 43 -22 65 -40 22 -19 72 -50 111 -70 39 -20 107 -61 152 -91 84 -58 178
-96 235 -96 18 0 71 -13 117 -30 122 -43 140 -41 205 21 42 40 58 63 70 104
21 74 20 84 -19 145 -19 30 -48 80 -65 110 -33 62 -239 270 -266 270 -9 0 -40
20 -68 45 -50 44 -211 135 -239 135 -7 0 -33 14 -58 30 -25 16 -52 30 -60 30
-9 0 -32 11 -51 24 -38 26 -145 66 -177 66 -36 0 -178 56 -221 88 -25 18 -56
32 -73 32 -16 0 -45 7 -65 15 -19 8 -60 15 -90 15 -29 0 -70 7 -90 15 -19 8
-45 15 -57 15 -44 0 -246 82 -300 123 -10 8 -24 29 -30 48 -7 21 -26 44 -54
62 -24 16 -47 39 -52 51 -32 85 -48 110 -84 139 -55 42 -60 49 -108 142 -22
44 -56 98 -75 120 -18 22 -36 51 -40 65 -3 14 -18 46 -34 71 -16 25 -29 57
-29 71 0 15 -13 55 -30 90 -18 37 -30 79 -30 103 0 21 -7 58 -16 82 -18 46
-13 87 12 97 9 4 40 -9 74 -30 56 -35 266 -113 304 -114 11 0 81 -20 155 -44
169 -55 211 -66 286 -75 34 -5 70 -13 82 -19 12 -7 65 -12 120 -12 l99 0 84
-30 85 -30 222 0 222 0 64 30 c36 17 70 30 76 30 56 0 201 133 250 228 27 53
50 54 91 2 20 -26 44 -43 68 -50 20 -5 58 -27 85 -47 78 -63 150 -116 194
-146 22 -15 59 -52 81 -81 28 -37 50 -55 70 -59 30 -6 146 -107 252 -221 55
-59 131 -106 170 -106 28 0 80 52 80 80 0 30 -27 78 -71 129 -24 26 -41 57
-44 80 -3 20 -8 48 -10 63 -2 15 -1 29 3 32 8 5 110 -26 152 -47 56 -26 92
-63 155 -157 36 -54 79 -108 95 -120 17 -12 30 -31 30 -42 0 -13 49 -70 134
-156 125 -126 147 -154 174 -224 6 -14 36 -43 69 -65 32 -21 81 -62 110 -90
29 -29 60 -53 70 -53 10 0 35 -12 56 -26 38 -25 116 -54 150 -54 10 0 41 19
68 42 l49 41 0 98 0 98 -24 19 c-13 10 -35 34 -48 53 -52 76 -121 157 -151
179 -18 13 -73 62 -124 109 -50 46 -106 89 -124 95 -21 7 -44 27 -62 54 -27
40 -106 92 -140 92 -7 0 -24 12 -38 26 -13 14 -37 33 -54 41 -73 38 -167 108
-177 132 -6 14 -23 56 -39 92 -16 36 -29 72 -29 81 0 8 -14 34 -31 58 -35 48
-89 157 -89 180 0 8 -23 57 -50 109 -28 51 -50 99 -50 107 0 7 -11 26 -25 42
-14 17 -25 35 -25 41 0 27 -52 112 -83 135 -19 14 -46 48 -61 76 -18 33 -44
61 -74 81 -26 17 -63 54 -83 82 -27 40 -45 55 -79 67 -33 11 -52 27 -73 58
-16 23 -45 51 -66 61 -53 27 -156 61 -185 61 -14 0 -28 5 -31 10 -4 6 -57 10
-126 10 l-119 0 0 -33z m1683 -1752 c23 -25 65 -57 94 -70 29 -14 60 -37 70
-52 10 -15 44 -53 76 -85 31 -31 57 -61 57 -66 0 -25 43 -102 65 -116 27 -18
34 -56 10 -56 -8 0 -19 9 -26 21 -6 11 -36 32 -67 47 -32 15 -73 44 -97 70
-22 25 -59 63 -82 86 -38 38 -113 139 -113 155 0 3 -14 24 -30 45 -58 76 -22
93 43 21z m-2773 -655 c47 -16 96 -30 110 -30 14 0 67 -20 118 -45 52 -25 99
-45 105 -45 7 0 39 -13 72 -28 33 -15 95 -39 139 -53 54 -16 92 -36 120 -61
23 -20 88 -59 143 -87 56 -28 125 -72 155 -99 29 -26 69 -58 88 -71 19 -13 50
-42 68 -65 18 -22 52 -66 76 -96 24 -30 50 -72 57 -93 l12 -37 -23 -25 c-13
-14 -32 -25 -41 -25 -26 0 -165 46 -227 75 -29 14 -65 25 -80 25 -18 0 -39 11
-57 30 -16 17 -35 30 -42 30 -8 0 -44 18 -81 40 -37 23 -78 44 -92 47 -14 3
-47 26 -75 50 -27 23 -79 58 -115 78 -65 33 -209 152 -300 246 -25 26 -64 56
-87 68 -23 11 -53 36 -67 54 -14 18 -53 53 -86 77 -33 24 -60 49 -60 57 0 23
80 15 170 -17z"/>
</g>
</svg>
