<?xml version="1.0" standalone="no"?>
<!DOCTYPE svg PUBLIC "-//W3C//DTD SVG 20010904//EN"
 "http://www.w3.org/TR/2001/REC-SVG-20010904/DTD/svg10.dtd">
<svg version="1.0" xmlns="http://www.w3.org/2000/svg"
 width="315.000000pt" height="363.000000pt" viewBox="0 0 315.000000 363.000000"
 preserveAspectRatio="xMidYMid meet">
<metadata>
Created by potrace 1.16, written by Peter Selinger 2001-2019
</metadata>
<g transform="translate(0.000000,363.000000) scale(0.100000,-0.100000)"
fill="#000000" stroke="none">
<path d="M485 3621 c-6 -5 -32 -11 -60 -14 -133 -13 -376 -103 -395 -147 -4
-8 -12 -25 -18 -37 -15 -28 -16 -289 -2 -298 6 -3 10 -24 10 -45 0 -94 147
-442 225 -532 19 -23 39 -56 44 -73 11 -42 86 -150 119 -174 19 -13 33 -39 46
-83 15 -48 31 -74 65 -109 25 -25 66 -73 91 -106 25 -34 65 -89 90 -123 25
-33 78 -97 118 -142 39 -44 72 -85 72 -90 0 -5 35 -46 78 -91 43 -45 87 -95
97 -112 31 -48 175 -193 228 -229 27 -18 92 -75 145 -128 54 -52 118 -106 142
-118 25 -12 70 -48 100 -79 32 -32 85 -72 127 -94 40 -21 96 -59 125 -86 29
-27 85 -64 123 -84 39 -19 111 -62 160 -96 49 -34 97 -61 105 -61 8 0 44 -14
78 -30 35 -17 69 -30 76 -30 6 0 28 -11 48 -25 21 -14 73 -37 117 -51 84 -27
105 -42 99 -71 -4 -24 -63 -61 -107 -68 -20 -3 -56 -12 -81 -20 -61 -20 -248
-20 -297 0 -19 8 -60 15 -90 15 -29 0 -70 7 -90 15 -22 9 -68 15 -122 15 l-86
0 -55 26 c-65 30 -253 94 -278 94 -24 0 -152 44 -201 69 -22 12 -46 21 -53 21
-7 0 -33 14 -58 30 -25 16 -52 30 -61 30 -28 0 -176 78 -216 113 -46 42 -82
60 -149 77 -57 15 -78 10 -93 -18 l-10 -19 40 -62 c31 -48 52 -68 97 -92 61
-32 134 -76 223 -133 30 -20 62 -36 71 -36 8 0 70 -27 137 -60 67 -33 133 -60
147 -60 13 0 41 -7 61 -15 19 -8 47 -15 62 -15 14 0 51 -12 81 -26 74 -34 207
-74 312 -94 26 -5 56 -13 67 -19 11 -6 67 -11 125 -11 59 0 108 -4 111 -10 8
-13 372 -13 380 0 3 5 31 10 61 10 74 0 167 33 223 80 25 21 69 49 97 63 73
37 114 87 114 139 l0 41 -44 43 -43 44 -74 0 c-74 0 -175 27 -250 65 -17 9
-52 23 -78 31 -64 19 -141 69 -141 92 0 34 -32 52 -94 52 -70 0 -99 12 -201
82 -44 30 -94 62 -112 71 -17 9 -53 36 -80 59 -26 23 -73 57 -103 77 -30 19
-75 53 -100 76 -25 22 -63 53 -86 68 -73 49 -590 575 -652 663 -81 116 -150
201 -204 256 -27 25 -48 55 -48 67 0 11 -13 35 -29 53 -40 46 -118 162 -146
217 -12 25 -33 55 -45 66 -59 52 -98 133 -72 149 19 11 106 -19 159 -55 32
-21 65 -39 73 -39 8 0 35 -14 60 -30 25 -16 56 -30 70 -30 30 0 153 -41 209
-69 l40 -21 151 0 151 0 37 19 c20 11 70 50 110 88 l72 68 0 48 c0 57 -33 160
-64 202 -13 17 -35 54 -50 82 -17 35 -40 62 -66 78 -22 14 -51 43 -65 65 -14
22 -43 49 -65 60 -23 12 -58 36 -78 54 -20 19 -92 61 -160 95 -68 34 -142 75
-164 91 -23 17 -48 30 -57 30 -9 0 -45 14 -79 30 -35 17 -75 30 -90 30 -14 0
-46 13 -71 29 -25 16 -63 32 -83 35 -40 7 -49 20 -22 30 9 3 157 6 330 6 l315
0 36 -15 c19 -8 59 -15 87 -15 28 0 71 -6 96 -14 77 -24 133 -37 190 -45 30
-4 71 -12 90 -18 65 -21 125 -35 180 -42 57 -8 245 -68 298 -95 17 -9 71 -29
119 -44 97 -32 156 -60 213 -101 20 -14 57 -35 81 -45 83 -34 112 -51 158 -92
48 -43 80 -63 117 -73 29 -8 153 -147 161 -180 8 -34 20 -49 55 -67 l29 -15
39 22 40 23 0 57 c0 74 -27 118 -133 222 -57 56 -102 88 -170 123 -50 26 -105
57 -122 70 -38 28 -170 94 -188 94 -8 0 -65 25 -127 55 -114 56 -215 95 -247
95 -24 0 -152 44 -202 69 -22 12 -51 21 -63 21 -13 0 -43 6 -68 14 -87 28
-136 38 -210 45 -41 4 -85 13 -97 19 -12 7 -40 12 -63 12 -22 0 -57 7 -77 15
-19 8 -53 15 -75 15 -21 0 -55 7 -75 15 -22 9 -68 15 -124 15 -48 0 -91 5 -94
10 -8 13 -517 14 -530 1z m-8 -356 c40 -13 85 -31 101 -39 16 -8 82 -33 148
-54 65 -22 146 -56 179 -76 32 -20 74 -40 91 -45 38 -11 170 -97 234 -153 80
-71 110 -101 110 -108 0 -4 18 -29 39 -55 22 -27 49 -76 61 -112 l22 -64 -17
-25 c-37 -56 -163 -82 -242 -49 -19 8 -54 15 -77 15 -30 0 -70 13 -135 45 -51
25 -98 45 -104 45 -25 0 -144 63 -187 98 -25 21 -64 50 -87 65 -22 16 -91 80
-152 142 l-111 114 -35 74 c-43 92 -46 147 -10 182 32 32 78 32 172 0z"/>
<path d="M1207 2092 c-21 -23 -22 -56 -1 -73 41 -34 118 -48 262 -49 104 0
152 -4 179 -15 24 -10 71 -15 150 -15 78 0 125 -5 150 -15 19 -8 64 -15 100
-15 l65 0 29 29 c54 54 28 111 -50 111 -23 0 -58 7 -78 15 -27 12 -81 15 -240
15 -158 0 -212 3 -240 15 -26 11 -73 15 -173 15 l-137 0 -16 -18z"/>
</g>
</svg>
