<?xml version="1.0" standalone="no"?>
<!DOCTYPE svg PUBLIC "-//W3C//DTD SVG 20010904//EN"
 "http://www.w3.org/TR/2001/REC-SVG-20010904/DTD/svg10.dtd">
<svg version="1.0" xmlns="http://www.w3.org/2000/svg"
 width="240.000000pt" height="387.000000pt" viewBox="0 0 240.000000 387.000000"
 preserveAspectRatio="xMidYMid meet">
<metadata>
Created by potrace 1.16, written by Peter Selinger 2001-2019
</metadata>
<g transform="translate(0.000000,387.000000) scale(0.100000,-0.100000)"
fill="#000000" stroke="none">
<path d="M635 3861 c-6 -6 -59 -12 -120 -14 -60 -2 -130 -10 -155 -17 -113
-31 -174 -52 -208 -69 -48 -24 -132 -114 -132 -140 0 -11 -4 -23 -10 -26 -13
-8 -13 -98 -1 -110 5 -6 11 -39 14 -75 2 -36 9 -83 16 -105 6 -22 13 -51 15
-65 3 -14 23 -55 46 -92 22 -37 40 -73 40 -81 0 -8 13 -32 28 -53 25 -35 56
-88 105 -179 44 -84 68 -159 62 -197 -8 -48 6 -68 49 -68 40 0 56 -15 56 -52
0 -37 23 -82 71 -136 21 -24 41 -58 44 -75 4 -18 20 -53 36 -78 16 -25 29 -52
29 -61 0 -8 14 -27 30 -43 16 -16 30 -36 30 -45 0 -10 13 -35 29 -58 17 -22
47 -73 67 -114 20 -40 52 -91 71 -113 18 -22 36 -51 40 -65 9 -40 41 -97 105
-191 33 -49 66 -109 73 -134 8 -25 32 -67 54 -93 21 -26 62 -94 91 -151 28
-57 67 -126 85 -152 18 -27 37 -64 40 -81 11 -49 73 -168 112 -213 18 -22 36
-51 40 -65 11 -44 94 -204 123 -235 15 -16 30 -42 33 -56 4 -14 17 -39 29 -56
13 -17 37 -50 53 -72 17 -23 57 -84 90 -136 l60 -94 58 -1 57 0 0 45 c0 56
-51 162 -115 241 -25 31 -51 76 -59 105 -9 29 -26 66 -40 83 -13 17 -47 79
-76 136 -29 58 -63 119 -76 137 -31 40 -114 211 -114 233 0 9 -22 45 -50 79
-28 34 -56 83 -64 109 -20 69 -73 170 -113 217 -18 22 -36 51 -40 65 -7 30
-103 222 -132 265 -12 17 -21 37 -21 46 0 9 -13 34 -29 56 -16 22 -38 58 -49
79 -11 22 -32 50 -46 63 -14 14 -26 31 -26 38 0 19 -67 151 -96 190 -30 40
-84 152 -84 174 0 9 -18 39 -41 65 -40 48 -109 175 -109 202 0 22 -37 86 -64
111 -14 14 -26 30 -26 37 0 15 -106 234 -121 249 -5 5 -9 17 -9 28 l0 19 33
-20 c50 -31 152 -62 204 -62 26 0 69 -7 94 -17 l47 -16 41 16 c23 10 54 17 69
17 37 0 68 24 92 70 25 49 25 71 1 118 -10 20 -24 56 -30 79 -7 25 -22 50 -37
60 -13 10 -54 41 -90 68 -110 84 -127 95 -153 102 -14 3 -39 18 -56 33 -16 15
-46 36 -65 45 -19 10 -49 29 -66 41 -17 13 -45 29 -62 35 -42 14 -40 24 8 49
l39 20 216 0 c169 0 223 -3 252 -15 20 -9 66 -15 107 -15 l71 0 63 -30 c47
-22 79 -30 118 -30 30 0 71 -7 91 -15 19 -8 53 -15 75 -15 21 0 55 -7 75 -15
19 -8 45 -15 57 -15 27 0 152 -43 205 -69 22 -12 46 -21 52 -21 23 0 255 -118
320 -162 51 -35 67 -52 77 -84 19 -58 53 -84 113 -84 l49 0 0 84 0 85 -42 23
c-23 13 -56 43 -73 67 l-31 45 -110 55 c-61 31 -124 66 -140 78 -31 22 -141
63 -170 63 -10 0 -79 20 -153 44 -169 55 -211 66 -286 75 -34 5 -70 13 -82 19
-12 7 -47 12 -78 12 -30 0 -72 7 -92 15 -19 8 -53 15 -75 15 -21 0 -55 7 -75
15 -19 8 -48 15 -64 15 -15 0 -31 5 -34 10 -3 6 -21 10 -40 10 -19 0 -37 -4
-40 -10 -3 -5 -19 -10 -35 -10 -16 0 -32 5 -35 10 -8 13 -98 13 -110 1z m-220
-421 c64 -30 281 -172 303 -199 27 -35 43 -83 31 -97 -16 -20 -30 -18 -151 23
l-109 36 -59 51 c-32 28 -69 59 -82 68 -24 16 -72 133 -62 149 7 13 63 -1 129
-31z"/>
</g>
</svg>
