<?xml version="1.0" standalone="no"?>
<!DOCTYPE svg PUBLIC "-//W3C//DTD SVG 20010904//EN"
 "http://www.w3.org/TR/2001/REC-SVG-20010904/DTD/svg10.dtd">
<svg version="1.0" xmlns="http://www.w3.org/2000/svg"
 width="492.000000pt" height="138.000000pt" viewBox="0 0 492.000000 138.000000"
 preserveAspectRatio="xMidYMid meet">
<metadata>
Created by potrace 1.16, written by Peter Selinger 2001-2019
</metadata>
<g transform="translate(0.000000,138.000000) scale(0.100000,-0.100000)"
fill="#000000" stroke="none">
<path d="M2225 1370 c-3 -5 -14 -10 -23 -10 -10 0 -49 -22 -87 -48 l-69 -48
-23 -64 -22 -65 -1 -121 0 -121 35 -44 c66 -84 53 -89 -224 -89 -131 0 -231
-4 -248 -11 -20 -7 -39 -7 -70 1 l-42 12 -44 -17 -44 -17 -38 16 c-28 12 -73
16 -182 16 -105 0 -153 4 -180 15 -24 10 -71 15 -150 15 -78 0 -125 5 -150 15
-19 8 -45 15 -57 15 -27 0 -152 43 -205 69 -22 12 -51 21 -63 21 -29 0 -153
42 -207 69 -23 12 -60 21 -86 21 l-45 0 0 -40 0 -39 28 -15 c16 -8 69 -42 118
-75 56 -39 99 -61 117 -61 15 0 44 -7 64 -15 19 -8 45 -15 56 -15 12 0 62 -13
112 -29 103 -33 160 -49 227 -61 26 -5 56 -13 67 -19 11 -6 58 -11 106 -11 53
0 99 -6 122 -15 l35 -15 523 0 523 0 35 15 c21 8 67 15 105 15 39 0 85 7 105
15 20 8 55 15 77 15 30 0 75 17 172 65 73 36 138 71 146 77 7 7 26 37 42 68
35 68 40 73 115 99 l59 21 198 0 c154 0 207 -3 235 -15 20 -8 66 -15 105 -15
38 0 84 -7 105 -15 19 -8 53 -15 75 -15 21 0 55 -7 75 -15 20 -8 66 -15 105
-15 38 0 84 -7 105 -15 19 -8 45 -15 56 -15 11 0 101 -27 199 -60 98 -33 185
-60 195 -60 38 0 145 -45 183 -77 22 -19 56 -39 75 -44 22 -6 63 -36 104 -75
69 -64 93 -74 132 -54 15 8 19 22 19 61 l0 50 -37 46 c-28 33 -63 58 -135 94
-54 27 -103 49 -109 49 -20 0 -136 58 -180 89 -24 18 -55 31 -71 31 -16 0 -45
7 -65 15 -19 8 -59 15 -87 15 -32 0 -84 11 -136 30 -47 16 -94 30 -105 30 -12
0 -59 13 -105 30 -53 18 -105 30 -138 30 -29 0 -69 7 -89 15 -25 11 -72 15
-165 15 -92 0 -139 4 -165 15 -52 22 -435 22 -488 0 -20 -9 -46 -13 -57 -9
-12 3 -63 46 -113 95 -96 92 -198 169 -227 169 -9 0 -20 5 -23 10 -3 6 -48 10
-100 10 -52 0 -97 -4 -100 -10z m265 -251 c38 -40 70 -76 70 -80 0 -19 -137
-148 -165 -155 -19 -5 -46 -1 -76 9 -26 10 -59 17 -73 17 -15 0 -38 11 -51 25
l-25 24 0 53 c0 48 22 132 43 166 6 8 39 12 108 12 l99 0 70 -71z"/>
<path d="M2845 205 c-21 -10 -75 -14 -178 -15 -99 0 -156 -4 -170 -12 -14 -8
-89 -16 -197 -20 -335 -15 -413 -24 -436 -49 -20 -22 -11 -66 16 -79 8 -4 25
-12 37 -18 29 -15 649 -17 658 -2 3 6 46 10 94 10 56 0 102 6 124 15 26 11 72
15 157 15 l122 0 29 29 c17 18 29 40 29 56 0 16 -12 38 -29 56 l-29 29 -99 -1
c-60 0 -110 -6 -128 -14z"/>
</g>
</svg>
