<?xml version="1.0" standalone="no"?>
<!DOCTYPE svg PUBLIC "-//W3C//DTD SVG 20010904//EN"
 "http://www.w3.org/TR/2001/REC-SVG-20010904/DTD/svg10.dtd">
<svg version="1.0" xmlns="http://www.w3.org/2000/svg"
 width="576.000000pt" height="225.000000pt" viewBox="0 0 576.000000 225.000000"
 preserveAspectRatio="xMidYMid meet">
<metadata>
Created by potrace 1.16, written by Peter Selinger 2001-2019
</metadata>
<g transform="translate(0.000000,225.000000) scale(0.100000,-0.100000)"
fill="#000000" stroke="none">
<path d="M93 2157 c-23 -51 -44 -110 -47 -132 -3 -21 -15 -52 -26 -67 -15 -20
-20 -43 -20 -87 0 -33 5 -63 10 -66 6 -3 10 -26 10 -51 0 -32 11 -66 40 -122
l39 -77 109 -107 c66 -65 117 -108 130 -108 11 0 31 -15 46 -35 15 -19 50 -47
78 -61 27 -14 68 -39 91 -55 22 -16 47 -29 56 -29 9 0 30 -9 46 -21 59 -40
185 -99 212 -99 16 0 48 -14 73 -30 25 -16 51 -30 58 -30 7 0 38 -11 68 -25
81 -37 169 -65 206 -65 18 0 73 -13 123 -29 99 -32 160 -48 220 -60 22 -4 56
-12 75 -18 98 -31 139 -36 305 -42 115 -4 188 -10 202 -18 12 -7 40 -13 63
-13 23 0 58 -8 78 -17 56 -26 159 -99 232 -163 36 -32 84 -67 107 -79 23 -11
54 -37 69 -57 25 -33 89 -74 114 -74 17 0 160 -88 195 -119 17 -15 57 -35 90
-45 77 -24 179 -72 229 -108 24 -17 52 -28 72 -28 18 0 36 -5 39 -10 4 -6 67
-10 158 -10 l152 1 26 42 c14 23 32 63 39 89 13 50 8 85 -32 218 l-19 65 -99
98 c-55 54 -107 97 -117 97 -11 0 -32 14 -48 30 -16 17 -36 30 -44 30 -17 0
-70 27 -145 73 -61 38 -171 77 -219 77 -21 0 -54 7 -74 15 -27 12 -81 15 -240
15 -158 0 -212 3 -240 15 -19 8 -47 15 -60 15 -70 0 -143 75 -182 185 -31 87
-28 100 28 154 81 78 81 117 3 172 -30 20 -70 52 -90 71 -21 19 -49 42 -63 51
-30 18 -113 138 -130 186 l-11 31 16 25 c9 14 36 34 61 45 l44 20 216 0 c169
0 223 -3 252 -15 22 -9 67 -15 120 -15 52 0 97 -6 120 -15 19 -8 53 -15 75
-15 23 0 67 -13 105 -30 35 -16 69 -30 75 -30 5 0 39 -13 75 -30 35 -16 76
-30 91 -30 21 0 42 -18 96 -78 37 -42 81 -103 97 -134 20 -39 42 -66 68 -82
21 -14 48 -38 60 -55 12 -16 54 -51 93 -78 40 -26 86 -59 103 -74 39 -34 168
-99 197 -99 13 0 44 -8 70 -17 l47 -17 52 24 c92 43 111 98 65 188 -33 65
-121 145 -318 289 -17 13 -45 27 -64 32 -18 5 -65 31 -106 58 -40 27 -94 61
-120 76 -27 15 -48 34 -48 41 0 8 16 28 35 45 l36 31 265 0 265 0 36 -15 c19
-8 45 -15 56 -15 12 0 81 -20 154 -45 73 -25 148 -45 168 -45 20 0 52 -7 72
-15 19 -8 52 -15 72 -15 44 0 129 -28 231 -76 41 -20 108 -47 150 -60 86 -28
113 -40 155 -70 17 -13 66 -40 110 -63 99 -49 125 -71 173 -141 21 -30 46 -57
56 -58 10 -2 38 2 62 8 l44 13 0 57 0 58 -77 80 c-78 80 -173 140 -249 156
-18 4 -51 23 -74 43 -43 37 -207 102 -258 103 -13 0 -53 14 -89 30 -35 17 -70
30 -76 30 -7 0 -41 14 -75 30 -37 18 -80 30 -103 30 -22 0 -56 7 -76 15 -19 8
-58 15 -86 15 -29 0 -91 13 -142 29 -134 43 -172 52 -255 60 -41 4 -85 13 -97
19 -15 8 -84 12 -213 12 l-191 0 -61 -21 c-68 -23 -162 -68 -220 -106 l-37
-25 -48 15 c-59 19 -123 35 -183 47 -25 5 -76 20 -115 34 -38 14 -87 26 -108
26 -21 0 -54 7 -74 15 -19 8 -53 15 -75 15 -21 0 -55 7 -75 15 -28 12 -81 15
-243 15 -162 0 -215 -3 -243 -15 -20 -8 -55 -15 -77 -15 -46 0 -168 -56 -213
-99 -34 -31 -67 -91 -67 -121 0 -49 127 -236 233 -341 66 -67 70 -85 27 -149
-37 -56 -40 -121 -8 -183 11 -23 29 -69 39 -102 l19 -60 -14 -13 -13 -13 -38
15 c-24 10 -68 16 -122 16 -52 0 -97 6 -120 15 -21 9 -67 15 -116 15 l-81 0
-133 45 c-73 25 -141 45 -151 45 -10 0 -56 13 -102 30 -47 16 -94 30 -105 30
-32 0 -134 39 -174 66 -19 13 -42 24 -49 24 -8 0 -42 13 -76 29 -34 16 -76 32
-93 35 -18 4 -51 24 -75 45 -24 21 -70 52 -104 69 -82 41 -189 115 -242 166
-66 63 -149 193 -177 280 l-26 76 26 58 c46 100 88 254 78 290 l-5 22 -62 0
-61 -1 -42 -92z m3852 -837 c3 -5 -1 -10 -9 -10 -9 0 -16 5 -16 10 0 6 4 10 9
10 6 0 13 -4 16 -10z m-845 -670 c47 -16 94 -30 104 -30 40 0 147 -44 183 -74
21 -18 77 -58 125 -90 48 -32 99 -73 113 -92 50 -66 68 -140 45 -185 l-11 -19
-55 0 c-30 0 -71 7 -91 15 -19 8 -48 15 -62 15 -17 0 -38 11 -56 30 -16 17
-35 30 -43 30 -18 0 -197 88 -272 135 -156 95 -240 155 -285 202 -27 29 -54
53 -60 53 -5 0 -17 5 -25 10 l-15 10 15 10 c8 5 80 10 160 10 l146 0 84 -30z"/>
<path d="M3896 799 c-39 -31 -31 -89 14 -89 8 0 35 -14 60 -30 l45 -30 58 0
c32 0 74 -7 94 -15 22 -9 67 -15 120 -15 52 0 97 -6 120 -15 25 -11 72 -15
158 -15 l122 0 16 18 c41 46 3 101 -90 132 -34 11 -78 20 -98 20 -20 0 -52 7
-72 15 -26 11 -76 15 -195 15 -118 0 -168 4 -195 15 -52 22 -125 19 -157 -6z"/>
</g>
</svg>
