<?xml version="1.0" standalone="no"?>
<!DOCTYPE svg PUBLIC "-//W3C//DTD SVG 20010904//EN"
 "http://www.w3.org/TR/2001/REC-SVG-20010904/DTD/svg10.dtd">
<svg version="1.0" xmlns="http://www.w3.org/2000/svg"
 width="609.000000pt" height="123.000000pt" viewBox="0 0 609.000000 123.000000"
 preserveAspectRatio="xMidYMid meet">
<metadata>
Created by potrace 1.16, written by Peter Selinger 2001-2019
</metadata>
<g transform="translate(0.000000,123.000000) scale(0.100000,-0.100000)"
fill="#000000" stroke="none">
<path d="M3786 1221 c-3 -4 -18 -11 -34 -14 -16 -3 -49 -28 -78 -59 -40 -42
-53 -65 -64 -111 l-13 -58 34 -70 c34 -72 123 -169 153 -169 28 0 86 -34 86
-50 0 -9 -16 -24 -35 -33 l-36 -17 -188 0 c-145 0 -197 -3 -224 -15 -20 -8
-66 -15 -102 -15 -36 0 -82 7 -102 15 -28 12 -84 15 -267 15 -172 0 -243 4
-276 14 -58 18 -124 35 -175 45 -22 4 -56 12 -75 18 -69 22 -126 35 -185 42
-34 5 -70 13 -82 19 -12 7 -39 12 -60 12 -21 0 -58 6 -83 14 -57 18 -122 35
-180 46 -25 5 -76 20 -115 34 -38 14 -87 26 -108 26 -21 0 -54 7 -74 15 -20 8
-66 15 -105 15 -38 0 -84 7 -105 15 -19 8 -60 15 -90 15 -29 0 -70 7 -90 15
-19 8 -60 15 -89 15 -29 0 -71 7 -92 15 l-39 16 -169 -4 c-181 -4 -178 -3
-414 -79 -172 -55 -237 -94 -270 -158 -11 -21 -24 -41 -30 -45 -17 -11 -11
-89 10 -133 14 -28 33 -48 60 -62 78 -40 110 -17 110 76 0 37 6 68 15 81 20
29 176 104 305 148 l105 35 168 0 c127 0 176 -4 204 -15 19 -8 60 -15 90 -15
29 0 70 -7 90 -15 19 -8 52 -15 72 -15 20 0 75 -13 121 -30 53 -18 105 -30
138 -30 29 0 69 -7 89 -15 19 -8 65 -15 102 -15 64 0 170 -28 239 -64 50 -26
150 -56 187 -56 20 0 52 -7 72 -15 19 -8 59 -15 87 -15 28 0 71 -6 96 -14 58
-18 124 -35 175 -45 22 -4 56 -12 75 -18 88 -28 132 -36 230 -42 58 -4 115
-12 127 -19 16 -9 114 -12 366 -12 l345 0 35 15 c20 8 54 15 75 15 22 0 56 7
75 15 20 8 47 15 61 15 13 0 66 20 118 45 51 25 99 45 106 45 32 0 172 82 197
115 15 19 36 35 46 35 17 0 59 50 119 142 37 55 66 68 159 68 50 0 96 -6 118
-15 20 -8 66 -15 105 -15 38 0 84 -7 105 -15 22 -9 67 -15 117 -15 90 0 149
-16 276 -76 41 -20 108 -47 149 -60 41 -13 90 -37 109 -52 67 -53 157 -112
170 -112 7 0 39 -27 70 -60 l58 -60 37 0 c57 0 97 24 97 59 0 55 -160 205
-291 271 -24 13 -57 33 -74 45 -56 42 -151 83 -306 133 -191 62 -228 72 -304
81 -34 5 -70 13 -82 19 -12 7 -54 12 -93 12 -39 0 -85 6 -103 13 -39 16 -190
15 -230 -1 -16 -7 -52 -12 -82 -12 l-53 0 -44 35 c-24 19 -68 47 -98 61 -30
15 -63 31 -72 35 -23 12 -465 12 -472 0z m432 -179 c72 -52 8 -162 -96 -162
-21 0 -53 -5 -69 -11 -24 -8 -44 -6 -89 7 -70 20 -89 30 -131 68 -51 46 -43
70 36 109 l36 17 140 -2 140 -3 33 -23z"/>
<path d="M4285 145 c-20 -10 -72 -14 -163 -15 l-133 0 -39 -20 c-48 -25 -54
-33 -46 -76 l7 -34 539 0 540 0 0 36 c0 47 -45 94 -90 94 -17 0 -47 7 -67 15
l-35 15 -242 -1 c-182 0 -248 -4 -271 -14z"/>
</g>
</svg>
