<?xml version="1.0" encoding="UTF-8" standalone="no"?>
<!-- Created with Inkscape (http://www.inkscape.org/) -->

<svg
   version="1.1"
   id="svg1"
   width="639.38232"
   height="238.84567"
   viewBox="0 0 639.38232 238.84567"
   xmlns="http://www.w3.org/2000/svg"
   xmlns:svg="http://www.w3.org/2000/svg">
  <defs
     id="defs1" />
  <g
     id="g1"
     transform="translate(-0.24852952,-0.29453135)">
    <path
       style="fill:#000000"
       d="m 431.19142,236.45926 c -44.0068,-14.99055 -55.62058,-56.3367 -19.35155,-68.89335 5.25365,-1.81886 -26.48174,-25.54368 -76.83987,-57.44413 -7.975,-5.05193 -15.58647,-9.95004 -16.91438,-10.884672 -1.98503,-1.397147 -1.76013,-0.788683 1.26469,3.421652 11.52585,16.04313 5.08836,19.6554 -9.81682,5.50851 C 305.66507,104.49565 295.3,95.873549 286.5,89.007042 277.7,82.140535 267.125,73.558355 263,69.935529 258.875,66.312704 250.325,59.365665 244,54.497664 237.675,49.629664 225.59088,39.847851 217.14641,32.760303 200.20231,18.538918 200.3756,18.62374 202.48739,25.585123 213.61076,62.252664 107.51158,58.268192 25.119142,18.924197 -11.220315,1.5713977 38.271967,65.771856 87,99.194884 c 15.63926,10.727116 19.49812,12.747876 18.61497,9.748056 -5.791578,-19.672399 23.48554,-20.162145 33.56401,-0.56146 10.95702,21.30929 4.47665,27.12508 -20.02661,17.97283 C 68.498829,107.43462 14.169349,55.228065 2.4941649,14.254513 -2.4163886,-2.9788602 -0.8941887,-3.4046709 23.74471,8.3100184 43.870859,17.879098 51.457405,20.776915 67.336224,24.960582 141.06743,44.386886 201.5828,40.36556 189.42133,16.847867 188.18547,14.457987 185.06716,5.5510326 185.01082,4.25 184.77277,-1.2481657 203.65024,9.3608652 223,25.599699 c 9.625,8.077557 21.9102,18.030711 27.30043,22.11812 5.39024,4.087409 13.26524,10.469071 17.5,14.181473 7.57997,6.644968 25.36747,20.930038 28.09541,22.5633 1.39497,0.835191 1.20185,-1.438486 -0.49856,-5.869691 -1.84277,-4.802183 9.4955,0.07016 24.0775,10.346705 6.15957,4.34091 19.26007,12.934184 29.11222,19.096174 21.99867,13.75898 31.81054,20.52542 54.91083,37.86751 24.13808,18.12118 21.4954,17.07759 41.50217,16.38918 40.66832,-1.39934 84.40423,7.95086 139.13562,29.74549 37.73078,15.0248 60.98094,31.17881 54.37823,37.78152 C 637.84943,230.4839 629,226.78451 629,225.84233 629,223.35898 604.07947,209.79551 587.09299,203.03366 535.41015,182.46012 483.54106,172.27165 447.71115,175.65534 l -6.78886,0.64113 8.90722,9.10176 c 29.82673,30.4782 17.78485,63.46819 -18.63809,51.06103 z m 10.28603,-11.57464 c 8.42365,-2.3386 14.18674,-12.11783 12.08238,-20.50227 -1.31491,-5.23902 -22.58833,-25.62665 -26.02323,-24.93967 -10.975,2.195 -21.87975,12.89176 -23.8933,23.43758 -2.19064,11.47332 22.99819,26.12315 37.83415,22.00436 z M 129.41821,117.39301 C 133.42803,115.8543 129.20435,107 124.46054,107 c -7.28714,0 -10.00121,8.31334 -3.21054,9.83406 5.50867,1.23363 6.27363,1.28597 8.16821,0.55895 z"
       id="path1" />
  </g>
</svg>
