<?xml version="1.0" standalone="no"?>
<!DOCTYPE svg PUBLIC "-//W3C//DTD SVG 20010904//EN"
 "http://www.w3.org/TR/2001/REC-SVG-20010904/DTD/svg10.dtd">
<svg version="1.0" xmlns="http://www.w3.org/2000/svg"
 width="336.000000pt" height="363.000000pt" viewBox="0 0 336.000000 363.000000"
 preserveAspectRatio="xMidYMid meet">
<metadata>
Created by potrace 1.16, written by Peter Selinger 2001-2019
</metadata>
<g transform="translate(0.000000,363.000000) scale(0.100000,-0.100000)"
fill="#000000" stroke="none">
<path d="M23 3604 l-23 -25 0 -83 c0 -62 4 -87 15 -96 8 -7 36 -45 62 -84 56
-86 105 -140 158 -174 22 -14 67 -51 100 -82 33 -32 83 -69 110 -83 28 -14 72
-44 99 -66 26 -23 55 -41 64 -41 9 0 98 -40 199 -90 101 -49 195 -90 209 -90
14 0 55 -13 91 -30 35 -16 69 -30 74 -30 6 0 35 -12 66 -26 65 -29 162 -60
216 -69 29 -5 51 -19 85 -54 26 -27 61 -56 77 -64 37 -18 362 -341 416 -412
21 -28 52 -61 68 -73 17 -12 42 -44 55 -70 14 -27 32 -55 42 -63 26 -21 88
-109 114 -159 13 -25 45 -69 71 -98 27 -30 52 -66 55 -80 4 -15 19 -47 34 -72
15 -25 30 -56 33 -70 4 -14 22 -52 42 -85 39 -63 75 -155 75 -190 0 -11 14
-58 30 -105 l30 -85 2 -160 1 -160 -26 -76 c-14 -43 -34 -94 -45 -115 -10 -22
-22 -51 -25 -65 -4 -14 -19 -38 -34 -54 -28 -28 -158 -95 -185 -95 -28 0 -48
-35 -48 -83 l0 -47 88 0 88 0 65 58 c37 32 80 69 98 81 35 25 131 204 131 244
0 13 13 61 30 107 l30 85 0 148 c0 87 -4 157 -11 168 -6 11 -14 41 -19 67 -20
105 -60 238 -94 312 -14 30 -26 62 -26 70 0 8 -14 35 -30 60 -16 25 -30 52
-30 60 0 8 -27 55 -61 105 -33 49 -74 116 -91 150 -17 33 -45 76 -62 95 -18
19 -48 58 -67 85 -18 28 -52 70 -75 95 -22 25 -49 59 -59 75 -10 17 -44 57
-74 91 -115 124 -204 241 -196 254 10 16 210 13 252 -5 26 -11 74 -15 183 -15
109 0 157 4 183 15 20 8 67 15 104 15 80 0 178 32 264 85 31 19 62 35 68 35
31 0 112 55 166 111 45 48 72 90 109 169 27 58 53 113 57 122 5 10 9 44 9 76
l0 58 -27 26 c-57 53 -107 62 -139 27 -15 -16 -20 -42 -24 -115 l-6 -93 -32
-38 c-18 -21 -47 -61 -66 -89 -24 -36 -42 -53 -62 -57 -16 -3 -59 -24 -96 -46
-37 -23 -71 -41 -77 -41 -5 0 -39 -13 -74 -30 l-65 -30 -334 0 c-260 0 -343 3
-378 14 -57 18 -123 35 -175 45 -46 9 -125 35 -172 57 -18 8 -71 51 -119 95
-48 44 -117 104 -153 133 -36 29 -72 60 -79 68 -6 8 -31 27 -55 42 -23 15 -55
45 -70 66 -15 22 -51 52 -80 67 -31 17 -62 44 -79 70 -16 23 -51 55 -81 72
-28 17 -78 53 -109 79 -31 26 -91 65 -134 86 -42 21 -93 50 -114 65 -20 14
-57 35 -81 45 -24 10 -52 22 -61 27 -10 5 -98 9 -195 8 l-178 -1 -22 -24z
m352 -154 c83 -29 104 -39 155 -80 24 -19 66 -48 92 -65 26 -16 80 -57 120
-90 40 -33 86 -69 103 -79 16 -11 61 -48 100 -82 38 -35 89 -80 112 -101 23
-21 45 -50 49 -65 l6 -28 -39 0 c-59 0 -178 43 -238 86 -40 29 -171 94 -189
94 -7 0 -42 21 -76 48 -34 26 -81 61 -104 77 -23 17 -60 48 -82 70 -22 22 -60
52 -86 66 -36 21 -51 39 -72 84 -22 45 -25 59 -15 71 17 20 94 18 164 -6z"/>
</g>
</svg>
