<?xml version="1.0" standalone="no"?>
<!DOCTYPE svg PUBLIC "-//W3C//DTD SVG 20010904//EN"
 "http://www.w3.org/TR/2001/REC-SVG-20010904/DTD/svg10.dtd">
<svg version="1.0" xmlns="http://www.w3.org/2000/svg"
 width="348.000000pt" height="255.000000pt" viewBox="0 0 348.000000 255.000000"
 preserveAspectRatio="xMidYMid meet">
<metadata>
Created by potrace 1.16, written by Peter Selinger 2001-2019
</metadata>
<g transform="translate(0.000000,255.000000) scale(0.100000,-0.100000)"
fill="#000000" stroke="none">
<path d="M155 2540 c-3 -5 -14 -10 -23 -10 -10 0 -43 -26 -75 -58 l-57 -58 0
-86 0 -86 27 -18 c15 -9 53 -44 83 -76 32 -34 64 -58 76 -58 11 0 31 -12 45
-26 13 -14 41 -35 63 -46 21 -11 57 -33 79 -49 22 -16 47 -29 55 -29 22 0 196
-85 243 -120 23 -16 48 -30 56 -30 8 0 44 -13 80 -30 35 -16 69 -30 75 -30 6
0 50 -18 97 -41 97 -46 190 -79 222 -79 11 0 48 -13 82 -28 34 -16 74 -32 88
-35 35 -9 76 -52 106 -112 14 -27 41 -68 60 -90 18 -22 36 -51 40 -65 3 -14
18 -46 34 -71 16 -25 29 -51 29 -58 0 -21 37 -85 64 -110 14 -14 26 -31 26
-38 0 -23 41 -95 80 -143 21 -25 58 -85 84 -135 25 -49 69 -116 96 -149 28
-32 58 -73 67 -90 8 -17 35 -52 58 -77 23 -25 54 -63 68 -85 21 -33 200 -211
300 -299 l28 -25 75 0 c41 0 74 4 74 9 0 5 25 36 55 70 l55 62 0 59 c0 32 5
71 10 86 l11 27 -30 93 c-41 128 -121 284 -163 318 -163 132 -274 204 -338
219 -14 4 -43 22 -65 40 -42 36 -115 77 -137 77 -24 0 -167 101 -204 143 -53
61 -140 237 -122 248 7 5 208 9 446 9 315 0 439 3 455 12 12 6 56 15 97 19
131 12 257 52 412 129 l120 60 74 72 c80 77 124 148 124 197 0 16 4 33 10 36
13 8 13 162 0 170 -6 3 -10 15 -10 25 0 46 -114 135 -163 128 -23 -3 -67 -70
-67 -103 0 -11 14 -40 30 -65 l30 -45 0 -55 c0 -59 -23 -120 -59 -157 -39 -41
-188 -132 -218 -133 -6 0 -41 -13 -76 -30 -36 -16 -76 -30 -90 -30 -13 0 -41
-7 -60 -15 -27 -11 -77 -15 -195 -15 -119 0 -169 -4 -195 -15 -28 -12 -81 -15
-237 -15 -156 0 -209 3 -237 15 -26 11 -74 15 -181 15 l-145 0 -32 20 c-37 23
-72 66 -103 125 -11 22 -44 63 -72 90 -28 28 -65 74 -81 102 -30 52 -105 124
-214 207 -29 23 -87 69 -130 104 -42 35 -108 79 -148 99 -39 20 -88 48 -108
62 -20 15 -56 35 -80 45 -24 10 -52 22 -61 27 -25 13 -405 12 -413 -1z m232
-165 c19 -8 60 -15 90 -15 58 0 154 -37 216 -84 18 -13 52 -34 77 -46 25 -12
65 -39 90 -59 25 -20 64 -49 87 -65 60 -41 194 -182 226 -240 32 -57 35 -81
10 -71 -10 4 -38 10 -63 14 -25 4 -63 19 -85 34 -22 15 -46 27 -55 27 -8 0
-57 20 -108 45 -52 25 -99 45 -106 45 -6 0 -28 11 -49 25 -48 33 -232 125
-250 125 -7 0 -24 12 -38 26 -13 14 -37 33 -54 41 -60 31 -165 105 -175 124
-16 29 4 59 39 59 16 0 44 7 62 15 43 18 42 18 86 0z m1782 -1605 c24 -17 50
-30 58 -30 26 0 98 -39 147 -79 26 -23 51 -41 55 -41 25 0 82 -82 139 -197
l65 -133 -11 -25 c-7 -14 -23 -31 -37 -37 l-26 -12 -37 41 c-20 22 -53 50 -73
63 -20 13 -46 39 -59 59 -13 20 -40 54 -61 76 -43 46 -120 159 -151 219 -11
22 -29 47 -39 54 -24 17 -42 50 -34 62 9 15 16 13 64 -20z"/>
</g>
</svg>
