<?xml version="1.0" standalone="no"?>
<!DOCTYPE svg PUBLIC "-//W3C//DTD SVG 20010904//EN"
 "http://www.w3.org/TR/2001/REC-SVG-20010904/DTD/svg10.dtd">
<svg version="1.0" xmlns="http://www.w3.org/2000/svg"
 width="726.000000pt" height="288.000000pt" viewBox="0 0 726.000000 288.000000"
 preserveAspectRatio="xMidYMid meet">
<metadata>
Created by potrace 1.16, written by Peter Selinger 2001-2019
</metadata>
<g transform="translate(0.000000,288.000000) scale(0.100000,-0.100000)"
fill="#000000" stroke="none">
<path d="M0 2817 l0 -63 70 -23 c39 -13 147 -61 240 -107 93 -46 175 -84 181
-84 17 0 80 -31 114 -56 17 -12 86 -41 153 -63 68 -23 136 -50 152 -61 35 -25
70 -80 70 -109 0 -67 83 -245 145 -312 23 -25 54 -63 68 -85 42 -64 192 -204
232 -215 21 -6 45 -24 61 -45 26 -33 89 -74 115 -74 6 0 32 -19 57 -41 65 -57
132 -93 230 -125 46 -14 119 -44 163 -65 50 -25 94 -39 118 -39 21 0 53 -5 71
-11 24 -9 46 -9 89 0 100 22 103 24 153 96 l48 69 0 52 0 51 -31 42 c-32 45
-35 84 -7 89 9 2 47 -11 83 -27 37 -17 72 -31 78 -31 7 0 29 -11 49 -25 20
-14 72 -36 115 -50 91 -29 114 -40 167 -77 21 -16 45 -28 53 -28 8 0 44 -14
80 -30 35 -17 70 -30 76 -30 13 0 71 -30 142 -74 26 -16 86 -42 133 -58 46
-16 97 -37 112 -48 35 -25 226 -120 241 -120 18 0 81 -32 123 -62 21 -15 45
-28 53 -28 8 0 44 -13 80 -30 35 -16 70 -30 76 -30 7 0 29 -11 50 -25 47 -33
232 -125 249 -125 8 0 30 -11 51 -25 47 -33 232 -125 249 -125 8 0 30 -11 51
-25 47 -33 232 -125 249 -125 8 0 30 -11 51 -25 65 -44 235 -125 264 -125 16
0 70 -20 121 -45 52 -25 104 -45 116 -45 12 0 60 -13 106 -30 47 -16 101 -30
120 -30 19 0 75 -13 125 -29 103 -33 160 -49 227 -61 26 -5 56 -13 67 -19 11
-6 60 -11 110 -11 49 0 93 -4 96 -10 8 -13 282 -13 290 0 3 6 33 10 66 10 l61
0 71 36 c84 42 187 137 253 235 l44 65 0 46 c0 26 5 50 10 53 13 8 13 132 0
140 -5 3 -10 20 -10 36 0 38 -43 123 -72 143 -34 24 -119 21 -152 -5 -35 -28
-33 -53 14 -150 22 -46 40 -92 40 -103 0 -11 -9 -48 -21 -82 -30 -88 -105
-176 -185 -214 l-61 -30 -259 0 c-196 0 -270 3 -304 14 -56 18 -121 34 -180
46 -25 5 -103 29 -175 54 l-130 44 -9 25 c-7 18 -5 38 7 69 23 59 21 136 -4
210 -30 90 -44 113 -87 144 -21 15 -51 45 -66 66 -26 37 -89 78 -119 78 -7 0
-24 12 -38 26 -31 33 -210 124 -245 124 -14 0 -55 14 -91 30 -35 17 -75 30
-89 30 -14 0 -41 7 -61 15 -84 35 -217 13 -364 -60 -75 -38 -99 -65 -99 -110
0 -37 -16 -55 -48 -55 -29 0 -142 51 -185 84 -18 14 -68 36 -112 51 -100 32
-172 66 -226 105 -23 16 -48 30 -56 30 -8 0 -44 14 -80 30 -35 17 -69 30 -74
30 -6 0 -40 18 -77 40 -36 22 -82 45 -102 50 -19 5 -59 21 -88 35 -28 14 -57
25 -63 25 -6 0 -37 16 -69 36 -33 20 -96 49 -142 64 -46 16 -110 44 -143 64
-33 20 -75 41 -95 46 -19 5 -59 21 -88 35 -28 14 -58 25 -64 25 -7 0 -26 9
-43 21 -56 38 -164 89 -242 114 -94 31 -175 68 -217 100 -17 13 -67 35 -111
49 -91 30 -117 42 -160 72 -54 39 -114 64 -152 64 -45 0 -145 33 -184 61 -34
24 -225 119 -240 119 -18 0 -81 32 -123 62 -21 15 -46 28 -55 28 -9 0 -36 14
-61 30 -25 16 -52 30 -60 30 -8 0 -28 9 -45 21 -56 38 -164 89 -242 114 -43
14 -125 48 -182 76 -57 27 -138 61 -180 75 -42 13 -126 49 -188 79 -62 30
-119 55 -127 55 -8 0 -18 5 -21 10 -3 6 -37 10 -76 10 l-69 0 0 -63z m1347
-712 c19 -8 54 -15 77 -15 25 0 53 -8 71 -21 17 -11 55 -33 85 -48 30 -16 68
-41 83 -55 l29 -27 -16 -22 c-29 -41 -66 -116 -66 -136 0 -35 -19 -33 -68 6
-26 21 -63 49 -82 62 -19 14 -41 33 -48 43 -8 10 -32 40 -54 65 -51 60 -83
130 -67 149 14 17 12 17 56 -1z m659 -315 c35 -17 73 -45 88 -64 14 -19 50
-47 79 -64 34 -19 63 -45 78 -69 12 -21 38 -55 56 -76 18 -20 33 -46 33 -56 0
-26 -56 -71 -88 -71 -32 0 -431 197 -439 216 -3 8 16 39 41 70 34 42 46 65 46
90 0 21 6 37 18 43 23 14 17 15 88 -19z m3062 -841 c35 -16 75 -29 90 -29 28
0 68 -19 174 -84 58 -35 90 -60 172 -134 54 -49 82 -144 56 -193 l-11 -19 -67
0 c-80 0 -144 20 -297 94 -61 29 -125 57 -142 60 -17 4 -51 24 -75 45 -24 21
-72 53 -108 71 -84 42 -131 80 -155 123 l-19 35 17 26 c24 36 66 45 192 39
l110 -6 63 -28z"/>
</g>
</svg>
