<?xml version="1.0" standalone="no"?>
<!DOCTYPE svg PUBLIC "-//W3C//DTD SVG 20010904//EN"
 "http://www.w3.org/TR/2001/REC-SVG-20010904/DTD/svg10.dtd">
<svg version="1.0" xmlns="http://www.w3.org/2000/svg"
 width="561.000000pt" height="297.000000pt" viewBox="0 0 561.000000 297.000000"
 preserveAspectRatio="xMidYMid meet">
<metadata>
Created by potrace 1.16, written by Peter Selinger 2001-2019
</metadata>
<g transform="translate(0.000000,297.000000) scale(0.100000,-0.100000)"
fill="#000000" stroke="none">
<path d="M53 2928 l-53 -40 0 -114 c0 -74 4 -114 11 -114 5 0 29 -21 52 -46
23 -26 59 -58 80 -71 21 -13 47 -39 58 -58 23 -39 126 -113 175 -127 18 -5 57
-30 86 -57 29 -27 76 -60 104 -74 28 -14 76 -48 106 -76 30 -27 88 -66 129
-87 41 -20 94 -53 119 -73 25 -20 65 -49 90 -63 25 -14 54 -36 65 -48 11 -12
36 -30 56 -41 49 -24 171 -108 187 -128 20 -24 82 -153 82 -171 0 -8 14 -35
30 -60 22 -32 30 -57 30 -88 0 -25 10 -62 24 -90 13 -26 29 -65 35 -87 6 -22
20 -55 31 -73 27 -45 57 -40 87 13 32 57 30 118 -7 197 -34 71 -37 99 -14 122
20 21 15 22 100 -19 47 -23 83 -48 100 -71 26 -34 89 -74 116 -74 8 0 51 -25
96 -55 46 -30 102 -65 125 -76 23 -12 62 -38 87 -59 25 -20 63 -46 85 -58 22
-11 97 -58 166 -105 70 -47 141 -93 158 -102 18 -9 49 -31 69 -49 20 -19 79
-55 129 -80 51 -26 132 -74 180 -106 48 -33 95 -60 104 -60 8 0 26 -12 40 -26
13 -14 44 -37 69 -51 25 -13 70 -40 100 -59 30 -19 66 -37 80 -41 14 -3 39
-18 55 -33 39 -36 57 -45 155 -76 46 -15 113 -42 151 -60 80 -39 179 -74 210
-74 11 0 50 -13 86 -30 35 -16 74 -30 86 -30 12 0 42 -6 67 -14 92 -29 137
-39 200 -43 36 -3 69 -9 75 -14 10 -10 608 -13 618 -2 12 12 111 43 137 43 14
0 45 14 70 30 25 16 53 30 63 30 9 0 62 42 117 92 l99 93 1 142 0 142 -32 17
c-18 9 -54 34 -80 55 -55 46 -88 50 -117 13 -28 -36 -26 -61 9 -114 l30 -45 0
-55 c0 -86 -20 -108 -155 -175 -131 -64 -199 -85 -276 -85 -37 0 -83 -7 -102
-15 -47 -19 -157 -19 -204 0 -22 9 -67 15 -120 15 -52 0 -97 6 -120 15 -19 8
-60 15 -91 15 -58 0 -159 40 -169 66 -3 8 9 33 26 56 l31 42 0 96 0 97 -29 40
c-16 22 -38 58 -49 79 -47 91 -279 298 -405 361 -40 20 -85 46 -102 59 -16 12
-78 38 -138 58 l-107 36 -110 0 c-84 0 -124 -5 -174 -21 l-63 -21 -78 -78
c-54 -54 -79 -87 -84 -111 -4 -22 -14 -35 -25 -37 -26 -5 -91 29 -150 78 -26
22 -56 40 -66 40 -9 0 -36 15 -60 33 -98 73 -166 117 -181 117 -18 0 -124 75
-148 103 -7 9 -21 17 -30 17 -33 1 -166 80 -234 139 -17 16 -51 38 -73 49 -23
12 -77 46 -121 75 -43 30 -101 66 -129 80 -60 31 -191 146 -221 195 -13 21
-36 79 -53 129 -16 51 -44 115 -62 142 -18 27 -46 72 -63 101 -16 29 -41 72
-55 95 -14 24 -45 63 -70 88 -25 24 -58 61 -74 81 -16 21 -46 46 -68 57 -21
11 -67 48 -102 82 -35 34 -89 82 -121 106 -60 45 -287 163 -339 175 -17 4 -42
16 -57 27 l-27 19 -134 -1 -133 0 -52 -41z m292 -169 c33 -11 84 -31 113 -45
29 -13 57 -24 63 -24 42 0 159 -85 159 -115 0 -7 -9 -20 -21 -31 -12 -10 -29
-35 -39 -55 -10 -19 -26 -41 -35 -49 l-16 -13 -27 22 c-82 66 -146 111 -158
111 -16 0 -184 163 -184 178 0 16 41 42 65 42 11 0 48 -9 80 -21z m605 -408
c33 -49 73 -95 96 -110 27 -18 50 -48 75 -96 20 -39 37 -73 38 -77 2 -15 -31
-8 -56 12 -14 11 -43 25 -64 30 -21 6 -61 32 -91 58 -29 27 -74 60 -99 75 -26
14 -49 33 -52 41 -6 16 28 122 46 144 22 28 51 7 107 -77z m2549 -1363 c36
-12 78 -29 92 -37 14 -9 48 -29 74 -45 26 -16 62 -34 81 -41 19 -6 50 -31 70
-54 21 -23 54 -53 75 -66 36 -24 169 -209 169 -237 0 -7 -9 -28 -20 -45 l-20
-33 -113 0 c-135 0 -229 26 -312 86 -16 12 -72 44 -124 70 -52 26 -111 62
-130 79 -20 18 -52 40 -71 50 -86 44 -170 135 -170 184 0 38 24 68 73 91 63
29 236 28 326 -2z"/>
</g>
</svg>
