<?xml version="1.0" standalone="no"?>
<!DOCTYPE svg PUBLIC "-//W3C//DTD SVG 20010904//EN"
 "http://www.w3.org/TR/2001/REC-SVG-20010904/DTD/svg10.dtd">
<svg version="1.0" xmlns="http://www.w3.org/2000/svg"
 width="864.000000pt" height="291.000000pt" viewBox="0 0 864.000000 291.000000"
 preserveAspectRatio="xMidYMid meet">
<metadata>
Created by potrace 1.16, written by Peter Selinger 2001-2019
</metadata>
<g transform="translate(0.000000,291.000000) scale(0.100000,-0.100000)"
fill="#000000" stroke="none">
<path d="M2615 2900 c-3 -5 -14 -10 -23 -10 -10 0 -39 -22 -65 -48 l-47 -48 0
-47 c0 -100 119 -275 203 -298 25 -7 67 -37 127 -92 48 -45 102 -92 118 -105
17 -12 38 -42 47 -67 l18 -45 -16 -23 c-18 -27 -124 -67 -179 -67 -20 0 -52
-7 -71 -15 l-36 -15 -291 0 -291 0 -36 15 c-23 10 -69 15 -135 15 -65 0 -111
5 -135 15 -19 8 -52 15 -72 15 -20 0 -56 6 -81 14 -58 18 -124 35 -175 45 -22
4 -56 12 -75 18 -67 21 -125 35 -180 42 -62 8 -245 68 -308 100 -23 12 -53 21
-67 21 -14 0 -42 7 -62 15 -19 8 -47 15 -62 15 -14 0 -82 27 -149 60 -68 33
-128 60 -134 60 -5 0 -38 13 -72 29 -34 16 -76 32 -93 35 -18 4 -52 25 -76 47
l-45 39 -48 0 -48 0 -28 -27 -28 -27 0 -77 c0 -43 5 -81 10 -84 6 -3 10 -14
10 -24 0 -10 13 -36 29 -58 16 -22 39 -60 52 -84 12 -24 59 -84 105 -132 46
-48 84 -92 84 -98 0 -16 82 -100 122 -125 21 -14 49 -42 63 -64 14 -22 39 -47
56 -56 17 -8 78 -60 134 -115 57 -54 108 -99 114 -99 5 0 50 -37 98 -83 48
-45 100 -91 116 -100 15 -10 38 -35 51 -56 14 -22 48 -52 78 -70 29 -17 80
-54 113 -82 33 -28 72 -53 86 -56 31 -6 104 -78 94 -93 -10 -17 -288 -13 -332
5 -20 8 -66 15 -105 15 -38 0 -84 7 -105 15 -22 9 -67 15 -120 15 -52 0 -97 6
-120 15 -21 9 -67 15 -114 15 -43 0 -99 6 -125 12 l-46 13 -19 -24 c-24 -30
-35 -70 -23 -88 17 -27 115 -52 202 -53 50 0 97 -6 119 -15 22 -9 67 -15 120
-15 52 0 97 -6 120 -15 20 -8 66 -15 105 -15 38 0 84 -7 105 -15 22 -9 67 -15
120 -15 52 0 97 -6 120 -15 23 -10 69 -15 135 -15 65 0 111 -5 135 -15 26 -11
75 -15 190 -15 l155 0 29 30 c37 36 36 74 -2 102 -14 11 -65 33 -113 49 -54
18 -119 50 -170 84 -45 30 -88 55 -95 55 -18 0 -161 87 -196 120 -16 15 -46
35 -65 45 -19 9 -55 38 -80 64 -50 51 -135 120 -242 195 -38 27 -80 66 -93 86
-13 21 -38 48 -55 61 -18 13 -45 38 -61 54 -101 104 -218 217 -245 235 -12 8
-32 31 -45 50 -13 19 -51 68 -84 109 -86 105 -92 114 -99 137 -8 25 16 54 42
54 32 0 224 -70 260 -95 20 -14 48 -25 62 -25 14 0 64 -13 110 -30 47 -16 103
-30 125 -30 23 0 66 -13 103 -30 35 -17 76 -30 90 -30 15 0 56 -14 90 -30 35
-17 75 -30 88 -30 14 0 41 -7 61 -15 19 -8 59 -15 87 -15 28 0 71 -6 96 -14
78 -25 133 -37 195 -45 34 -5 70 -13 82 -19 12 -7 40 -12 63 -12 22 0 57 -7
77 -15 23 -10 69 -15 135 -15 65 0 111 -5 135 -15 46 -19 412 -22 446 -3 12 6
56 15 97 19 41 4 93 12 115 18 22 6 51 13 65 15 14 3 55 23 92 46 47 28 78 40
105 40 55 0 122 -38 155 -87 17 -24 50 -53 82 -72 30 -16 64 -44 76 -61 12
-17 45 -42 73 -56 29 -15 73 -44 99 -65 25 -21 79 -55 120 -75 40 -20 93 -53
118 -74 54 -45 87 -62 165 -88 101 -33 204 -42 295 -25 58 11 73 25 122 107
15 25 33 46 40 46 8 0 51 -25 97 -55 45 -31 109 -69 142 -86 33 -16 76 -45 97
-63 39 -35 92 -66 114 -66 8 0 74 -40 148 -90 74 -49 141 -90 148 -90 8 0 37
-20 65 -45 29 -25 93 -66 142 -91 50 -26 111 -64 137 -85 25 -21 79 -55 120
-75 40 -21 87 -47 103 -59 35 -26 169 -95 185 -95 12 0 110 -56 201 -114 30
-20 62 -36 70 -36 8 0 31 -11 52 -25 63 -43 235 -125 262 -125 15 0 54 -17 89
-38 82 -49 315 -124 441 -142 33 -5 92 -20 130 -34 39 -14 81 -26 93 -26 13 0
53 -13 89 -30 l64 -30 85 0 c53 0 98 -6 121 -15 19 -8 62 -15 94 -15 32 0 61
-5 64 -10 8 -14 402 -14 410 0 3 6 24 10 46 10 42 0 138 29 200 60 20 11 62
47 93 81 l56 62 0 120 0 120 -35 43 c-41 50 -161 134 -191 134 -30 0 -54 -32
-54 -72 0 -37 24 -68 53 -68 19 0 27 -11 49 -75 22 -61 23 -104 3 -152 -28
-65 -49 -81 -170 -122 l-59 -21 -168 0 c-127 0 -177 4 -205 15 -19 8 -53 15
-75 15 -21 0 -55 7 -75 15 -19 8 -52 15 -72 15 -20 0 -56 6 -81 14 -50 16
-115 33 -173 45 -21 5 -40 11 -43 14 -3 3 4 37 15 75 16 54 19 76 11 97 -5 14
-10 37 -10 51 0 13 -24 73 -54 132 -43 86 -66 119 -113 163 -134 123 -266 219
-303 219 -7 0 -41 14 -77 30 -35 17 -74 30 -86 30 -12 0 -42 6 -67 14 -103 33
-139 39 -210 37 -118 -3 -169 -23 -229 -86 l-51 -54 0 -79 c0 -58 5 -92 20
-123 11 -24 20 -50 20 -58 0 -23 -76 -6 -116 26 -69 55 -98 73 -133 83 -60 16
-153 66 -205 109 -26 23 -56 41 -65 41 -9 0 -54 25 -100 55 -46 31 -113 71
-150 90 -38 18 -104 58 -147 88 -44 30 -100 65 -124 77 -25 13 -71 44 -103 69
-96 76 -118 91 -157 101 -20 5 -54 25 -76 43 -47 39 -207 147 -253 171 -18 10
-49 32 -69 50 -20 18 -49 36 -64 39 -14 4 -50 29 -80 55 -53 48 -207 155 -266
186 -41 21 -64 20 -112 -4 -45 -23 -70 -54 -70 -88 0 -35 154 -187 205 -204
31 -10 48 -26 78 -71 l38 -58 -12 -15 c-17 -20 -32 -18 -148 21 -68 24 -130
53 -180 87 -42 28 -110 68 -152 89 -42 21 -101 60 -130 87 -30 27 -67 56 -84
65 -50 26 -255 231 -255 256 0 12 7 38 15 58 10 24 15 70 15 140 l0 104 -24
47 c-39 76 -216 243 -306 288 -41 21 -98 55 -127 76 l-52 38 -90 0 c-49 0 -93
-4 -96 -10z m179 -185 c188 -93 286 -183 325 -299 23 -69 25 -84 12 -105 l-9
-14 -34 13 c-18 7 -53 34 -79 59 -54 55 -149 136 -200 171 -70 48 -159 136
-159 158 0 26 25 52 52 52 11 0 52 -16 92 -35z m3876 -1784 c30 -11 82 -36
115 -55 33 -20 78 -41 100 -47 29 -8 61 -33 122 -93 l82 -82 50 -104 c28 -57
51 -116 51 -131 0 -74 -106 -75 -257 -3 -51 24 -112 57 -134 74 -23 16 -49 30
-58 30 -9 0 -29 9 -46 21 -16 11 -52 32 -80 46 -27 14 -70 42 -95 62 -25 20
-61 47 -81 61 -35 23 -117 134 -127 172 -2 9 7 28 22 42 l25 26 128 0 c101 0
140 -4 183 -19z"/>
</g>
</svg>
