<?xml version="1.0" standalone="no"?>
<!DOCTYPE svg PUBLIC "-//W3C//DTD SVG 20010904//EN"
 "http://www.w3.org/TR/2001/REC-SVG-20010904/DTD/svg10.dtd">
<svg version="1.0" xmlns="http://www.w3.org/2000/svg"
 width="456.000000pt" height="234.000000pt" viewBox="0 0 456.000000 234.000000"
 preserveAspectRatio="xMidYMid meet">
<metadata>
Created by potrace 1.16, written by Peter Selinger 2001-2019
</metadata>
<g transform="translate(0.000000,234.000000) scale(0.100000,-0.100000)"
fill="#000000" stroke="none">
<path d="M115 2307 c-51 -84 -64 -115 -65 -155 0 -23 -7 -59 -15 -79 -8 -19
-15 -55 -15 -79 0 -23 -5 -46 -10 -49 -13 -8 -13 -282 0 -290 6 -3 10 -31 10
-61 0 -97 57 -235 115 -280 19 -14 35 -34 35 -44 0 -30 78 -127 125 -154 27
-17 55 -44 71 -72 15 -25 45 -57 68 -71 23 -14 57 -40 78 -57 20 -17 55 -44
78 -61 23 -16 56 -40 73 -53 17 -12 42 -25 56 -29 14 -3 40 -18 56 -33 33 -30
76 -54 115 -63 14 -4 43 -22 65 -40 42 -36 115 -77 137 -77 7 0 78 -32 156
-70 79 -39 197 -88 263 -110 65 -22 136 -51 156 -65 21 -14 49 -25 63 -25 14
0 45 -6 70 -14 101 -32 140 -39 255 -45 66 -4 130 -12 142 -19 14 -8 68 -12
153 -12 l131 0 56 -26 c53 -24 120 -46 223 -74 25 -7 86 -15 135 -19 50 -4
100 -12 112 -19 12 -7 47 -12 78 -12 30 0 72 -7 92 -15 19 -8 55 -15 79 -15
23 0 46 -4 49 -10 8 -13 577 -14 590 -1 6 5 33 11 60 14 50 5 103 17 185 43
25 8 55 14 68 14 37 0 180 77 198 107 10 16 38 49 63 74 25 25 56 62 68 83
l23 37 0 85 0 85 -54 72 -53 72 -87 43 -87 44 -25 -16 c-32 -22 -30 -53 5 -91
47 -50 100 -134 107 -170 8 -46 -9 -91 -61 -162 -40 -54 -92 -93 -124 -93 -6
0 -34 -11 -63 -24 -71 -34 -167 -66 -194 -66 -12 0 -38 -7 -57 -15 -52 -22
-422 -22 -474 0 -20 8 -66 15 -105 15 -38 0 -84 7 -105 15 -19 8 -52 15 -72
15 -20 0 -56 6 -81 14 -60 19 -125 35 -182 46 -26 5 -56 13 -67 19 -11 6 -31
11 -44 11 -14 0 -30 7 -37 15 l-13 15 19 23 c10 12 33 38 50 57 31 34 74 138
74 180 0 37 -41 143 -73 189 -51 74 -79 101 -132 128 -27 14 -63 36 -80 48
-54 41 -148 82 -303 134 l-153 51 -116 0 -117 0 -66 -44 c-37 -25 -85 -65
-108 -90 l-42 -46 0 -60 c0 -61 24 -150 61 -221 13 -27 43 -54 102 -93 45 -30
100 -73 122 -95 21 -23 45 -41 52 -41 7 0 13 -4 13 -10 0 -5 -4 -10 -9 -10 -6
0 -13 5 -16 10 -3 6 -32 10 -63 10 -56 0 -134 22 -219 60 -23 11 -97 38 -165
60 -68 22 -147 52 -176 65 -29 14 -58 25 -65 25 -7 0 -26 13 -42 30 -16 16
-36 30 -44 30 -9 0 -58 20 -109 45 -52 25 -99 45 -106 45 -7 0 -23 12 -37 26
-13 14 -51 40 -84 56 -33 17 -115 67 -182 111 -90 60 -129 93 -151 127 -17 25
-50 58 -74 73 -24 16 -54 45 -68 65 -13 20 -47 62 -74 92 -54 60 -116 179
-116 221 0 15 -7 43 -15 62 -20 49 -21 293 -1 357 25 78 37 133 45 195 5 34
13 70 19 82 7 12 12 35 12 52 l0 31 -57 0 -58 0 -20 -33z m2109 -1394 c61 -20
123 -44 137 -52 164 -98 170 -102 240 -195 l29 -39 0 -56 c0 -78 -24 -112
-107 -151 -68 -32 -131 -27 -230 20 -46 22 -101 56 -122 75 -21 19 -44 35 -50
35 -28 0 -102 43 -161 94 -121 103 -116 96 -124 165 -12 108 30 140 183 141
l94 0 111 -37z"/>
</g>
</svg>
