<?xml version="1.0" standalone="no"?>
<!DOCTYPE svg PUBLIC "-//W3C//DTD SVG 20010904//EN"
 "http://www.w3.org/TR/2001/REC-SVG-20010904/DTD/svg10.dtd">
<svg version="1.0" xmlns="http://www.w3.org/2000/svg"
 width="744.000000pt" height="231.000000pt" viewBox="0 0 744.000000 231.000000"
 preserveAspectRatio="xMidYMid meet">
<metadata>
Created by potrace 1.16, written by Peter Selinger 2001-2019
</metadata>
<g transform="translate(0.000000,231.000000) scale(0.100000,-0.100000)"
fill="#000000" stroke="none">
<path d="M3956 2295 c-11 -8 -32 -15 -48 -15 -45 0 -94 -29 -112 -67 l-16 -34
12 -42 c7 -27 27 -57 55 -83 24 -22 43 -50 43 -61 0 -23 21 -44 70 -68 19 -9
55 -34 80 -55 46 -38 120 -80 141 -80 16 0 145 -65 207 -104 29 -19 92 -46
140 -61 48 -15 108 -38 134 -51 26 -13 53 -24 59 -24 7 0 50 -18 97 -41 90
-42 280 -109 310 -109 10 0 56 -13 102 -30 47 -16 102 -30 123 -30 21 0 54 -7
74 -15 25 -11 73 -15 166 -15 l130 0 64 -31 c74 -36 92 -59 123 -157 l24 -74
-17 -48 c-9 -26 -17 -56 -17 -66 0 -11 -4 -25 -9 -32 l-8 -13 -56 16 c-30 9
-78 27 -106 40 -28 14 -56 25 -62 25 -5 0 -35 11 -65 25 -85 39 -170 65 -211
65 -21 0 -63 12 -93 26 -71 33 -205 74 -305 93 -22 4 -56 12 -75 18 -78 25
-129 35 -200 42 -42 4 -82 11 -90 17 -17 10 -172 26 -270 26 -103 1 -166 -11
-306 -58 -71 -24 -141 -44 -155 -44 -13 0 -35 -7 -47 -16 -37 -26 -122 -210
-122 -265 0 -18 57 -108 93 -147 29 -32 94 -64 120 -60 13 2 25 14 31 30 l9
26 -31 49 c-44 69 -49 111 -21 164 12 24 25 51 29 59 4 8 49 36 100 63 68 34
105 47 136 47 23 0 58 7 77 15 48 20 186 20 234 0 20 -8 66 -15 105 -15 38 0
84 -7 105 -15 19 -8 47 -15 62 -15 14 0 51 -12 81 -26 89 -41 166 -64 218 -64
52 0 151 -31 192 -60 15 -10 80 -37 146 -58 65 -22 146 -56 179 -76 33 -20 75
-41 95 -46 49 -13 133 -55 182 -90 50 -36 65 -37 128 -5 57 29 80 58 80 100 0
32 14 57 63 114 l29 34 -5 56 c-5 56 -16 108 -43 189 -10 31 -11 49 -4 63 l11
19 103 0 c69 0 115 5 139 15 24 10 70 15 135 15 66 0 112 5 135 15 23 9 68 15
120 15 53 0 98 6 120 15 20 8 48 15 62 15 14 0 45 10 68 21 23 12 81 35 129
50 105 34 194 100 262 195 l46 64 0 118 0 119 -39 42 -39 42 -43 -3 -43 -3
-24 -35 c-15 -22 -21 -42 -17 -55 11 -34 18 -142 11 -179 -5 -24 -27 -55 -74
-103 l-67 -68 -85 -29 c-47 -16 -103 -33 -125 -37 -51 -10 -118 -27 -175 -45
-25 -8 -61 -14 -81 -14 -20 0 -53 -7 -72 -15 -29 -12 -86 -15 -283 -15 l-246
0 -34 16 c-20 10 -51 41 -76 77 -24 33 -63 80 -88 104 -91 87 -106 102 -134
138 -16 20 -50 47 -76 60 -26 13 -83 48 -126 78 -44 30 -100 65 -124 77 -25
13 -58 33 -75 46 -34 25 -229 124 -245 124 -24 0 -120 50 -155 81 -49 43 -125
68 -208 69 -37 0 -84 7 -104 15 -19 8 -48 15 -64 15 -15 0 -31 5 -34 10 -4 6
-102 10 -263 10 l-257 -1 -19 -14z m421 -100 c19 -8 54 -15 77 -15 23 0 65
-11 96 -26 83 -38 165 -64 206 -64 45 0 88 -20 188 -89 44 -30 139 -83 210
-119 72 -36 149 -78 170 -94 21 -15 47 -28 56 -28 9 0 30 -17 47 -37 17 -21
56 -51 87 -66 31 -16 64 -40 74 -54 9 -14 39 -50 65 -79 27 -29 46 -58 42 -63
-9 -16 -131 -13 -172 4 -19 8 -60 15 -90 15 -29 0 -70 7 -90 15 -19 8 -65 15
-100 15 -85 0 -288 66 -358 116 -30 21 -60 34 -79 34 -17 0 -60 14 -94 30 -35
17 -69 30 -75 30 -7 0 -32 14 -57 30 -25 16 -52 30 -60 30 -19 0 -199 90 -270
136 -30 19 -66 38 -80 41 -13 3 -49 33 -80 65 -35 36 -64 58 -77 58 -12 0 -27
9 -33 20 -20 37 20 80 73 80 14 0 40 7 58 15 47 20 218 20 266 0z"/>
<path d="M0 780 l0 -39 27 -15 c16 -7 43 -17 60 -21 18 -3 58 -24 90 -46 32
-21 65 -39 73 -39 8 0 44 -14 78 -30 35 -17 75 -30 90 -30 14 0 46 -13 71 -29
25 -16 61 -32 79 -36 17 -4 54 -22 81 -40 51 -36 153 -75 193 -75 13 0 52 -14
86 -30 35 -17 74 -30 86 -30 12 0 60 -13 106 -30 50 -17 106 -30 135 -30 27 0
90 -13 140 -29 122 -39 170 -51 235 -60 35 -4 70 -17 95 -34 l40 -27 148 0
c109 0 157 -4 184 -15 19 -8 60 -15 90 -15 29 0 70 -7 90 -15 27 -11 77 -15
210 -15 132 0 182 -4 210 -15 19 -8 62 -15 94 -15 32 0 61 -5 64 -10 8 -13
162 -13 170 0 4 6 116 10 304 10 l299 0 35 15 c20 8 54 15 75 15 22 0 56 7 75
15 20 8 61 15 90 15 30 0 71 7 90 15 20 8 55 15 77 15 53 0 171 59 200 100 12
17 40 42 61 56 42 26 89 105 89 149 0 14 7 42 15 62 19 45 19 81 0 126 -8 20
-15 49 -15 64 0 40 -24 70 -80 98 -64 32 -85 31 -121 -4 -33 -33 -35 -53 -14
-104 9 -23 15 -68 15 -120 l0 -84 -28 -39 c-40 -54 -118 -122 -169 -145 -23
-10 -70 -23 -105 -28 -35 -5 -90 -18 -123 -30 -32 -12 -76 -21 -96 -21 -20 0
-53 -7 -72 -15 l-36 -15 -426 0 -426 0 -36 15 c-26 11 -74 15 -180 15 -105 0
-153 4 -180 15 -20 8 -66 15 -105 15 -38 0 -84 7 -105 15 -22 9 -67 15 -120
15 -52 0 -97 6 -120 15 -19 8 -60 15 -90 15 -29 0 -70 7 -90 15 -19 8 -45 15
-56 15 -12 0 -62 13 -112 29 -103 33 -160 49 -227 61 -26 5 -56 13 -67 19 -11
6 -38 11 -61 11 -22 0 -57 7 -77 15 -19 8 -52 15 -72 15 -38 0 -118 24 -211
64 -85 36 -161 67 -205 82 -22 8 -65 25 -95 38 -113 48 -169 70 -323 122 -86
30 -168 54 -182 54 l-25 0 0 -40z"/>
</g>
</svg>
