<?xml version="1.0" standalone="no"?>
<!DOCTYPE svg PUBLIC "-//W3C//DTD SVG 20010904//EN"
 "http://www.w3.org/TR/2001/REC-SVG-20010904/DTD/svg10.dtd">
<svg version="1.0" xmlns="http://www.w3.org/2000/svg"
 width="342.000000pt" height="468.000000pt" viewBox="0 0 342.000000 468.000000"
 preserveAspectRatio="xMidYMid meet">
<metadata>
Created by potrace 1.16, written by Peter Selinger 2001-2019
</metadata>
<g transform="translate(0.000000,468.000000) scale(0.100000,-0.100000)"
fill="#000000" stroke="none">
<path d="M210 4671 c-8 -5 -39 -19 -67 -32 -29 -12 -53 -26 -53 -31 0 -5 -20
-23 -45 -40 l-45 -32 0 -64 0 -64 25 -30 c14 -16 25 -39 25 -51 0 -11 19 -38
43 -61 24 -23 63 -67 87 -99 32 -43 59 -66 102 -88 32 -16 75 -45 96 -63 37
-33 210 -126 235 -126 7 0 26 -13 42 -30 16 -16 35 -30 43 -30 7 0 43 -13 79
-30 35 -16 76 -30 91 -30 15 0 69 -20 120 -45 52 -25 99 -45 105 -45 7 0 32
-14 57 -30 31 -21 57 -30 85 -30 22 0 60 -6 85 -14 61 -19 126 -36 179 -45 65
-12 81 -37 81 -126 l0 -74 -28 -19 c-15 -11 -46 -25 -68 -31 -29 -8 -57 -27
-93 -65 -54 -58 -62 -86 -35 -124 20 -28 105 -72 140 -72 31 0 201 -79 249
-116 18 -14 46 -29 63 -33 49 -14 258 -159 325 -225 34 -33 85 -79 112 -101
61 -48 169 -144 210 -185 109 -112 144 -150 175 -190 19 -25 49 -62 67 -82 18
-21 54 -79 79 -130 26 -52 69 -117 97 -148 56 -62 207 -352 207 -400 0 -15 7
-44 15 -63 8 -20 15 -53 15 -74 0 -21 14 -76 31 -123 l30 -85 1 -140 c1 -77
-2 -150 -6 -162 -10 -30 -31 -35 -73 -18 -57 24 -248 20 -326 -6 -73 -24 -94
-42 -153 -130 l-44 -65 0 -62 0 -62 34 -68 c26 -52 48 -78 90 -111 31 -23 56
-45 56 -49 0 -25 -30 -32 -141 -32 -81 0 -128 -5 -152 -15 -20 -8 -59 -15 -87
-15 -28 0 -67 7 -87 15 -20 8 -66 15 -105 15 -38 0 -84 7 -105 15 -19 8 -53
15 -75 15 -21 0 -55 7 -75 15 -19 8 -45 15 -56 15 -12 0 -81 20 -154 45 -73
25 -143 45 -155 45 -29 0 -68 26 -68 46 0 8 11 32 25 52 14 20 25 49 25 64 0
15 7 46 17 69 l16 41 -16 47 c-10 25 -17 58 -17 74 l0 27 -61 45 c-39 29 -72
45 -90 45 -16 0 -47 7 -70 17 l-41 16 -47 -17 c-37 -13 -54 -14 -75 -6 -38 14
-102 -5 -141 -42 -17 -15 -38 -28 -46 -28 -32 0 -79 -78 -79 -130 0 -51 44
-121 116 -187 38 -34 89 -82 114 -107 25 -26 52 -46 59 -46 7 0 42 -14 78 -30
35 -17 69 -30 75 -30 6 0 50 -18 97 -41 108 -51 191 -79 233 -79 17 0 92 -20
165 -45 104 -35 146 -45 198 -45 36 0 82 -7 102 -15 19 -8 48 -15 64 -15 15 0
31 -5 34 -10 8 -13 282 -13 290 0 4 6 57 10 126 10 l119 0 123 59 c67 32 154
69 194 81 l72 22 65 68 c36 37 66 76 66 87 0 10 14 47 30 81 18 37 30 80 30
103 0 22 7 56 15 76 8 19 15 53 15 75 0 21 7 55 15 75 21 51 21 375 0 426 -8
20 -15 48 -15 62 0 14 -10 44 -21 67 -12 23 -41 102 -66 176 -48 146 -60 173
-109 244 -18 27 -36 63 -39 80 -14 62 -83 186 -120 213 -28 22 -35 34 -35 61
l0 34 -90 96 c-49 53 -90 100 -90 106 0 16 -141 158 -184 185 -41 26 -149 120
-226 196 -25 24 -72 58 -105 76 -33 17 -85 56 -115 87 -30 31 -73 65 -95 76
-22 11 -60 37 -84 57 -24 20 -82 56 -129 81 -67 35 -93 55 -119 93 l-34 48 31
67 c17 37 41 96 52 132 12 36 26 71 31 78 13 17 110 15 154 -3 l35 -15 313 0
313 0 35 15 c20 8 61 15 90 15 30 0 71 7 90 15 20 8 47 15 61 15 13 0 66 20
118 45 51 25 106 45 121 45 50 0 104 37 151 104 26 35 53 69 62 77 8 7 24 31
35 53 25 52 28 206 4 226 -8 7 -15 27 -15 44 0 17 -7 41 -15 53 -15 22 -156
93 -184 93 -30 0 -49 -32 -56 -95 l-6 -61 32 -14 32 -15 20 -62 20 -62 -11
-39 c-7 -22 -21 -51 -33 -66 -20 -26 -94 -66 -122 -66 -8 0 -32 -13 -53 -28
-52 -37 -107 -62 -137 -62 -13 0 -41 -7 -60 -15 -20 -8 -61 -15 -90 -15 -30 0
-71 -7 -90 -15 -27 -11 -75 -15 -180 -15 -107 0 -154 -4 -181 -15 l-37 -16
-77 28 -77 27 -144 6 c-114 4 -145 8 -151 20 -75 164 -105 212 -190 308 -50
56 -102 109 -116 119 -14 9 -39 41 -56 70 -31 55 -61 83 -88 83 -9 0 -27 12
-41 26 -13 14 -42 35 -64 46 -22 11 -59 36 -83 56 -109 88 -168 121 -279 157
-43 14 -97 34 -119 45 -73 33 -162 60 -203 60 -22 0 -43 5 -46 10 -7 12 -273
13 -295 1z m448 -196 c52 -25 98 -45 104 -45 5 0 38 -13 72 -29 34 -16 76 -32
93 -35 18 -4 51 -24 75 -44 24 -21 62 -50 86 -65 26 -17 42 -35 42 -47 0 -13
22 -35 63 -64 34 -24 75 -57 91 -74 15 -16 47 -49 70 -73 24 -24 54 -52 69
-62 14 -9 30 -32 35 -51 6 -19 28 -57 51 -86 44 -55 45 -58 33 -78 -9 -14 -55
-7 -153 24 -26 8 -55 14 -64 14 -31 0 -237 73 -318 112 -43 21 -82 38 -88 38
-6 0 -40 14 -76 30 -35 17 -69 30 -75 30 -6 0 -32 13 -57 29 -25 16 -57 31
-71 34 -14 4 -47 24 -74 47 -26 22 -56 40 -65 40 -34 0 -86 39 -120 90 -26 39
-45 56 -68 62 -32 8 -63 41 -63 66 0 8 -14 30 -30 49 -34 38 -33 56 2 106 l19
27 162 0 162 0 93 -45z m653 -3795 c60 -44 73 -128 29 -190 -25 -35 -27 -35
-105 -6 l-60 22 -37 54 c-56 83 -52 94 42 128 60 23 90 21 131 -8z m1745 -85
c19 -19 24 -34 22 -57 l-3 -32 -85 -53 c-47 -29 -97 -52 -111 -53 -37 0 -73
32 -89 79 l-13 40 20 33 c15 26 28 34 59 39 21 3 50 11 64 17 47 20 108 14
136 -13z"/>
</g>
</svg>
