<?xml version="1.0" standalone="no"?>
<!DOCTYPE svg PUBLIC "-//W3C//DTD SVG 20010904//EN"
 "http://www.w3.org/TR/2001/REC-SVG-20010904/DTD/svg10.dtd">
<svg version="1.0" xmlns="http://www.w3.org/2000/svg"
 width="408.000000pt" height="357.000000pt" viewBox="0 0 408.000000 357.000000"
 preserveAspectRatio="xMidYMid meet">
<metadata>
Created by potrace 1.16, written by Peter Selinger 2001-2019
</metadata>
<g transform="translate(0.000000,357.000000) scale(0.100000,-0.100000)"
fill="#000000" stroke="none">
<path d="M3860 3514 c0 -31 8 -78 17 -104 l17 -48 -24 -74 c-13 -40 -31 -85
-41 -99 -20 -29 -147 -96 -244 -129 l-59 -20 -258 0 -259 0 -36 15 c-19 8 -52
15 -72 15 -20 0 -75 13 -121 30 -51 17 -106 30 -135 30 -53 0 -132 24 -223 66
-29 13 -57 24 -63 24 -30 0 -172 100 -236 166 l-71 74 -84 0 -85 0 -15 -17
c-34 -39 -39 -61 -27 -106 16 -55 24 -64 78 -92 25 -13 68 -42 95 -64 26 -23
56 -41 66 -41 10 0 57 -39 104 -86 l86 -86 0 -81 c0 -45 -4 -89 -10 -97 l-9
-14 -73 33 c-133 61 -188 73 -334 78 l-121 4 -59 -19 c-61 -21 -97 -57 -111
-110 -10 -40 34 -116 108 -187 l67 -65 32 0 c17 0 61 -13 97 -30 l64 -30 114
0 114 0 80 26 81 26 47 -18 c28 -11 68 -39 100 -71 29 -29 59 -53 66 -53 18 0
497 -478 497 -496 0 -7 13 -28 29 -46 70 -81 181 -267 181 -305 0 -6 20 -54
45 -105 l46 -93 -3 -65 -3 -65 -26 -3 c-20 -2 -32 5 -50 29 -13 17 -110 119
-215 225 -138 139 -198 194 -214 194 -14 0 -38 16 -59 39 -39 42 -121 109
-189 155 -24 16 -62 46 -85 66 -23 21 -56 40 -74 44 -17 4 -51 24 -75 45 -24
21 -58 46 -77 56 -19 9 -52 30 -74 46 -22 16 -47 29 -54 29 -26 0 -87 32 -135
72 -31 25 -74 47 -130 65 -46 14 -95 34 -109 42 -14 9 -47 29 -73 44 -53 33
-169 76 -204 77 -13 0 -53 14 -89 30 -35 17 -70 30 -76 30 -7 0 -32 14 -57 30
-32 22 -57 30 -88 30 -23 0 -59 7 -79 15 -28 12 -86 15 -288 15 -202 0 -260
-3 -288 -15 -20 -8 -55 -15 -77 -15 -70 0 -285 -122 -315 -179 -7 -14 -32 -48
-54 -75 l-41 -48 0 -48 c0 -27 -4 -52 -10 -55 -13 -8 -13 -312 0 -320 6 -3 10
-32 10 -64 0 -32 7 -75 15 -94 8 -20 15 -48 15 -62 0 -30 28 -88 75 -157 19
-26 37 -63 40 -80 11 -49 73 -168 111 -212 19 -22 38 -54 43 -72 10 -34 82
-128 142 -185 23 -21 39 -45 39 -59 0 -32 348 -380 380 -380 14 0 38 -16 59
-39 51 -54 141 -126 192 -152 24 -12 58 -32 74 -44 36 -28 230 -125 247 -125
7 0 33 -14 58 -30 26 -18 58 -30 77 -30 17 0 35 -5 38 -10 3 -6 33 -10 66 -10
l59 0 0 20 c0 11 -16 37 -35 59 -27 30 -51 44 -108 61 -106 34 -171 65 -214
103 -41 37 -93 67 -116 67 -7 0 -24 12 -38 26 -13 14 -60 50 -105 80 -78 52
-374 339 -374 362 0 6 -16 29 -35 52 -19 23 -60 79 -90 123 -30 45 -69 100
-85 121 -17 21 -30 45 -30 53 0 21 -33 82 -95 175 -30 45 -55 93 -55 106 0 28
-30 119 -64 192 -14 30 -26 66 -26 80 0 14 -14 63 -30 110 l-30 84 0 89 c0 65
6 108 22 159 l23 71 73 74 c79 79 102 93 161 93 21 0 55 7 74 15 52 21 362 21
414 0 19 -8 65 -15 102 -15 71 0 249 -53 301 -90 29 -20 132 -55 191 -65 23
-3 54 -21 82 -45 25 -22 50 -40 57 -40 6 0 41 -14 77 -30 35 -17 69 -30 75
-30 16 0 80 -32 113 -56 17 -12 81 -48 143 -79 78 -40 121 -68 139 -92 15 -19
54 -48 87 -65 33 -17 81 -52 107 -79 28 -29 56 -49 69 -49 13 0 42 -20 69 -47
47 -47 124 -113 231 -196 30 -23 73 -67 97 -97 23 -30 59 -75 80 -99 21 -23
52 -62 68 -85 17 -24 45 -62 63 -86 l32 -43 0 -49 0 -50 29 -29 29 -29 54 0
54 0 45 48 c69 71 95 111 118 179 26 76 29 212 6 266 -8 20 -15 48 -15 62 0
32 -180 393 -210 420 -12 11 -34 40 -48 65 -14 25 -51 72 -82 105 -31 33 -68
78 -82 100 -30 46 -259 275 -276 275 -7 0 -58 44 -114 98 -57 54 -119 109
-140 122 -20 13 -43 36 -52 51 -21 35 -21 119 0 167 11 27 15 61 12 122 l-3
85 55 -3 c30 -2 70 -10 89 -18 20 -8 68 -14 118 -14 52 0 97 -6 120 -15 20 -8
66 -15 105 -15 38 0 84 -7 105 -15 28 -12 81 -15 242 -15 l206 0 85 30 c46 17
101 30 122 30 21 0 60 11 86 24 56 29 232 207 232 235 0 11 5 23 10 26 6 3 10
51 10 110 l0 103 -38 30 c-21 17 -44 42 -52 56 l-13 26 -59 0 -58 0 0 -56z
m-1841 -831 c92 -44 89 -42 71 -53 -31 -20 -131 -11 -186 16 -92 45 -97 74
-12 74 38 0 70 -9 127 -37z"/>
</g>
</svg>
