<?xml version="1.0" standalone="no"?>
<!DOCTYPE svg PUBLIC "-//W3C//DTD SVG 20010904//EN"
 "http://www.w3.org/TR/2001/REC-SVG-20010904/DTD/svg10.dtd">
<svg version="1.0" xmlns="http://www.w3.org/2000/svg"
 width="525.000000pt" height="222.000000pt" viewBox="0 0 525.000000 222.000000"
 preserveAspectRatio="xMidYMid meet">
<metadata>
Created by potrace 1.16, written by Peter Selinger 2001-2019
</metadata>
<g transform="translate(0.000000,222.000000) scale(0.100000,-0.100000)"
fill="#000000" stroke="none">
<path d="M0 2186 c0 -42 32 -69 146 -121 43 -21 95 -46 114 -56 73 -40 174
-85 285 -126 22 -9 70 -19 106 -23 50 -6 76 -15 109 -39 24 -17 49 -31 57 -31
8 0 44 -13 80 -30 35 -16 76 -30 90 -30 31 0 138 -49 194 -89 23 -17 54 -31
68 -31 49 0 172 -47 226 -86 17 -13 84 -40 150 -62 66 -22 147 -56 180 -76 33
-20 71 -39 85 -43 14 -3 49 -16 78 -29 73 -33 167 -64 194 -64 13 0 43 -14 68
-30 25 -16 52 -30 60 -30 8 0 57 -20 108 -45 52 -25 99 -45 104 -45 6 0 50
-18 97 -41 47 -22 118 -51 156 -64 67 -22 124 -52 245 -128 30 -19 67 -37 82
-41 15 -3 35 -18 45 -33 37 -55 230 -244 274 -269 25 -14 63 -45 83 -70 20
-24 76 -69 123 -101 47 -31 100 -68 117 -83 17 -15 51 -37 76 -50 25 -12 65
-39 90 -60 59 -49 174 -106 227 -113 23 -3 55 -14 72 -26 l29 -21 74 0 73 1
28 43 c76 121 -19 282 -231 390 -18 10 -50 32 -70 49 -20 18 -64 41 -97 52
-33 10 -73 31 -90 46 -16 15 -45 34 -64 44 -19 9 -52 30 -74 46 -24 17 -53 29
-72 29 -22 0 -40 9 -60 30 -16 17 -35 30 -43 30 -20 0 -81 30 -126 62 -21 15
-45 28 -53 28 -73 0 -223 136 -278 252 -35 73 -37 101 -10 112 7 2 92 -22 189
-55 97 -32 185 -59 197 -59 11 0 50 -14 86 -30 35 -17 74 -30 87 -30 12 0 60
-13 106 -30 53 -18 105 -30 138 -30 29 0 69 -7 89 -15 19 -8 53 -15 75 -15 21
0 55 -7 75 -15 19 -8 60 -15 90 -15 29 0 70 -7 90 -15 52 -22 464 -22 516 0
20 8 49 15 65 15 16 0 47 13 69 29 22 16 59 39 81 50 25 13 58 45 88 86 26 35
56 67 66 71 l18 5 0 74 c0 41 -5 77 -10 80 -6 4 -21 28 -34 54 -29 57 -111
135 -133 127 -8 -3 -27 -9 -41 -12 -72 -17 -83 -81 -27 -160 35 -49 41 -81 27
-131 -12 -38 -117 -119 -186 -142 l-62 -21 -243 0 c-192 0 -249 3 -278 15 -19
8 -52 15 -71 15 -20 0 -96 20 -169 45 -73 25 -148 45 -168 45 -20 0 -52 7 -72
15 -19 8 -47 15 -60 15 -14 0 -54 13 -90 30 -35 16 -74 30 -85 30 -23 0 -303
91 -353 115 -16 8 -51 31 -76 53 -31 25 -65 43 -102 52 l-56 13 -31 -13 c-56
-23 -78 -48 -95 -108 l-17 -57 12 -50 c16 -69 11 -89 -23 -93 -45 -5 -173 42
-232 85 -16 12 -88 41 -160 64 -71 24 -174 65 -228 91 -54 27 -153 66 -219 88
-66 22 -132 48 -146 59 -51 36 -172 91 -199 91 -16 0 -80 25 -143 56 -63 31
-151 67 -195 82 -43 14 -124 47 -179 75 -55 27 -136 60 -179 74 -44 14 -110
41 -148 59 -44 21 -84 34 -110 34 -22 0 -56 7 -77 16 -20 8 -73 27 -117 41
-43 15 -128 50 -187 80 -59 29 -114 53 -122 53 -8 0 -18 5 -21 10 -3 6 -37 10
-76 10 l-69 0 0 -34z m3814 -1721 c29 -14 65 -38 79 -55 15 -16 34 -30 43 -30
29 0 88 -33 138 -77 26 -24 53 -43 59 -43 18 0 67 -52 67 -72 0 -10 -3 -18 -7
-18 -10 1 -60 29 -104 57 -19 13 -41 23 -51 23 -9 0 -40 19 -69 42 -77 62
-151 108 -171 108 -15 0 -68 67 -68 85 0 12 34 4 84 -20z"/>
</g>
</svg>
