<?xml version="1.0" standalone="no"?>
<!DOCTYPE svg PUBLIC "-//W3C//DTD SVG 20010904//EN"
 "http://www.w3.org/TR/2001/REC-SVG-20010904/DTD/svg10.dtd">
<svg version="1.0" xmlns="http://www.w3.org/2000/svg"
 width="456.000000pt" height="105.000000pt" viewBox="0 0 456.000000 105.000000"
 preserveAspectRatio="xMidYMid meet">
<metadata>
Created by potrace 1.16, written by Peter Selinger 2001-2019
</metadata>
<g transform="translate(0.000000,105.000000) scale(0.100000,-0.100000)"
fill="#000000" stroke="none">
<path d="M455 1040 c-3 -6 -53 -10 -113 -10 l-107 0 -40 -27 c-22 -16 -64 -41
-95 -58 -34 -19 -60 -41 -69 -60 -8 -16 -18 -38 -23 -47 -4 -10 -8 -71 -8
-136 l0 -118 27 -26 c61 -57 144 -85 157 -52 12 30 6 117 -11 165 l-17 48 19
58 c10 32 22 62 26 67 4 5 32 17 61 28 l53 19 331 0 331 0 38 -15 c25 -11 69
-16 134 -16 55 0 115 -6 141 -14 69 -22 131 -37 172 -43 22 -3 47 -16 64 -34
l28 -29 43 0 c24 0 60 -7 80 -15 19 -8 45 -15 57 -15 23 0 119 -31 173 -56 40
-18 63 -50 63 -87 0 -15 9 -47 21 -70 26 -53 181 -212 232 -238 21 -11 55 -35
75 -53 20 -18 80 -55 132 -82 52 -26 118 -65 147 -86 l52 -38 118 0 118 1 29
64 29 65 -23 71 c-18 54 -31 77 -57 97 -66 52 -79 115 -19 92 15 -5 39 -10 54
-10 15 0 47 -14 72 -30 32 -22 57 -30 88 -30 23 0 59 -7 79 -15 19 -8 60 -15
90 -15 29 0 70 -7 90 -15 26 -11 76 -15 194 -15 124 0 168 -4 200 -17 l41 -16
50 18 50 18 53 -13 c40 -10 61 -10 85 -1 41 14 120 14 155 1 47 -18 248 40
273 78 9 15 38 47 63 72 28 28 50 61 57 86 7 23 19 47 27 54 22 19 20 117 -5
167 -25 52 -103 107 -131 92 -32 -17 -39 -44 -39 -151 0 -135 -11 -157 -113
-220 l-76 -46 -53 -1 c-29 -1 -164 -4 -300 -7 l-246 -5 -37 16 c-21 8 -62 15
-92 15 -29 0 -70 7 -90 15 -20 8 -66 15 -105 15 -38 0 -84 7 -105 15 -20 9
-66 15 -106 15 l-71 0 -27 26 c-37 35 -208 93 -277 94 -29 0 -69 7 -89 15 -19
8 -47 15 -60 15 -14 0 -54 14 -90 30 -35 17 -70 30 -76 30 -7 0 -32 14 -57 30
-25 16 -58 30 -73 30 -15 0 -44 7 -64 15 -19 8 -45 15 -56 15 -12 0 -81 20
-154 45 -73 25 -140 45 -150 45 -9 0 -77 20 -150 45 -73 25 -147 45 -166 45
-18 0 -71 13 -117 30 -53 18 -105 30 -138 30 -29 0 -69 7 -89 15 -19 8 -55 15
-79 15 -23 0 -46 5 -49 10 -4 6 -108 10 -280 10 -172 0 -276 -4 -280 -10z
m1910 -569 c22 -4 72 -28 112 -54 75 -50 202 -167 223 -206 l12 -23 -16 -16
-15 -15 -43 29 c-24 15 -61 38 -83 49 -23 11 -54 30 -70 41 -17 12 -54 34 -83
49 -29 15 -61 39 -70 52 -9 14 -32 42 -49 63 -18 20 -33 41 -33 45 0 4 17 4
38 0 20 -4 55 -10 77 -14z"/>
</g>
</svg>
