<?xml version="1.0" standalone="no"?>
<!DOCTYPE svg PUBLIC "-//W3C//DTD SVG 20010904//EN"
 "http://www.w3.org/TR/2001/REC-SVG-20010904/DTD/svg10.dtd">
<svg version="1.0" xmlns="http://www.w3.org/2000/svg"
 width="597.000000pt" height="183.000000pt" viewBox="0 0 597.000000 183.000000"
 preserveAspectRatio="xMidYMid meet">
<metadata>
Created by potrace 1.16, written by Peter Selinger 2001-2019
</metadata>
<g transform="translate(0.000000,183.000000) scale(0.100000,-0.100000)"
fill="#000000" stroke="none">
<path d="M5810 1741 l0 -89 -52 -103 c-37 -72 -61 -108 -78 -115 -91 -42 -133
-59 -197 -81 l-72 -24 -37 16 c-23 9 -67 15 -121 15 -52 0 -97 6 -120 15 -26
11 -76 15 -195 15 -118 0 -168 4 -195 15 -20 8 -66 15 -105 15 -38 0 -84 7
-105 15 -26 11 -74 15 -182 15 l-146 0 -45 30 -45 30 -73 0 c-42 0 -88 6 -109
15 -23 10 -69 15 -135 15 -65 0 -111 5 -135 15 -20 9 -66 15 -108 15 -42 0
-88 -6 -108 -15 -25 -10 -71 -15 -147 -15 -117 0 -167 -12 -284 -65 -30 -14
-61 -25 -69 -25 -19 0 -47 -32 -47 -54 0 -21 35 -91 67 -134 70 -93 61 -158
-18 -130 -23 8 -45 7 -85 -2 l-53 -13 -43 16 c-54 21 -115 22 -162 2 l-37 -16
-39 12 c-31 9 -49 9 -79 1 -52 -16 -331 -16 -368 0 -15 7 -73 15 -127 18 -74
4 -101 9 -106 20 -29 64 -40 77 -91 106 -31 19 -63 44 -72 58 -9 13 -84 70
-167 125 l-151 101 -122 40 c-67 23 -141 49 -165 60 -40 19 -114 43 -212 70
-25 7 -85 15 -135 19 -49 4 -100 12 -112 19 -15 8 -83 12 -212 12 l-191 0 -65
-21 c-70 -23 -135 -80 -135 -118 0 -11 -4 -23 -10 -26 -12 -8 -13 -72 -1 -79
4 -3 11 -18 14 -34 6 -29 30 -52 138 -137 60 -46 129 -85 152 -85 7 0 26 -14
42 -30 16 -17 36 -30 45 -30 8 0 31 -11 51 -24 20 -14 84 -41 143 -60 l106
-36 80 0 c49 0 95 -6 117 -15 22 -9 67 -15 120 -15 52 0 97 -6 120 -15 20 -8
66 -15 105 -15 38 0 84 -7 105 -15 20 -8 66 -15 105 -15 38 0 84 -7 105 -15
22 -9 68 -15 124 -15 l88 0 20 -28 c11 -16 23 -41 27 -58 3 -16 19 -50 35 -75
32 -50 40 -131 16 -161 -21 -27 -66 -28 -105 -2 -19 13 -45 24 -58 24 -23 0
-28 -8 -36 -64 -5 -33 -32 -42 -80 -27 -24 8 -104 16 -178 20 -77 4 -144 12
-157 19 -15 8 -73 12 -183 12 -120 0 -170 4 -197 15 -19 8 -60 15 -90 15 -29
0 -70 7 -90 15 -25 11 -72 15 -159 15 -68 0 -144 6 -170 12 l-46 13 -14 -20
c-8 -10 -14 -41 -14 -68 l0 -50 44 -43 c35 -35 50 -44 78 -44 23 0 42 -7 54
-21 10 -11 49 -43 86 -70 52 -39 73 -62 93 -104 30 -64 31 -77 8 -97 -47 -39
-88 -48 -225 -48 l-135 0 -16 -18 c-32 -35 -12 -85 38 -94 11 -2 24 -13 30
-26 l10 -22 42 0 c23 0 45 5 48 10 3 6 38 10 76 10 84 0 174 28 237 73 61 44
122 131 122 174 0 39 -28 99 -59 127 -12 11 -31 35 -43 54 l-21 34 14 9 c20
13 292 11 326 -2 15 -6 118 -13 228 -16 135 -4 211 -10 234 -19 18 -8 51 -14
73 -14 21 0 55 -7 75 -15 21 -9 67 -15 115 -15 l79 0 27 30 c15 17 48 52 73
78 78 79 95 132 64 205 -8 20 -15 53 -15 73 0 20 -8 58 -17 84 l-17 48 12 26
12 26 40 0 c22 0 57 -7 77 -15 49 -21 257 -21 306 0 53 22 481 22 534 0 25
-11 73 -15 170 -15 l134 0 38 19 c51 27 63 43 59 87 -3 40 -5 42 -105 102 -60
36 -141 116 -149 147 l-7 28 36 34 37 33 385 0 386 0 36 -15 c19 -8 54 -15 77
-15 29 0 54 -9 86 -30 l45 -30 58 0 c32 0 74 -7 94 -15 23 -10 69 -15 135 -15
65 0 111 -5 135 -15 28 -12 86 -15 284 -15 139 0 259 -4 274 -10 17 -7 39 -6
69 2 l44 12 44 -17 c54 -21 144 -22 191 -2 20 8 55 15 77 15 49 0 182 64 221
107 15 15 43 60 63 100 19 39 40 74 46 78 5 3 10 41 10 84 l0 77 -40 39 c-28
27 -40 48 -40 67 l0 28 -40 0 -40 0 0 -89z m-5435 -112 c11 0 49 3 85 7 49 4
75 2 104 -10 21 -9 56 -16 78 -16 21 0 55 -7 75 -15 19 -8 53 -15 75 -15 21 0
55 -7 75 -15 19 -8 53 -15 75 -15 23 0 67 -13 105 -30 35 -16 69 -30 74 -30 6
0 40 -18 77 -40 36 -22 80 -44 97 -49 70 -19 265 -170 265 -205 0 -26 -33 -35
-106 -31 -167 10 -271 22 -291 33 -12 7 -40 12 -63 12 -22 0 -57 7 -77 15 -19
8 -52 15 -72 15 -20 0 -56 6 -81 14 -86 27 -135 38 -210 46 -110 12 -187 41
-260 100 -25 20 -78 58 -118 84 -40 26 -77 56 -82 67 -24 44 46 94 115 83 22
-3 49 -6 60 -5z"/>
</g>
</svg>
