<?xml version="1.0" standalone="no"?>
<!DOCTYPE svg PUBLIC "-//W3C//DTD SVG 20010904//EN"
 "http://www.w3.org/TR/2001/REC-SVG-20010904/DTD/svg10.dtd">
<svg version="1.0" xmlns="http://www.w3.org/2000/svg"
 width="582.000000pt" height="93.000000pt" viewBox="0 0 582.000000 93.000000"
 preserveAspectRatio="xMidYMid meet">
<metadata>
Created by potrace 1.16, written by Peter Selinger 2001-2019
</metadata>
<g transform="translate(0.000000,93.000000) scale(0.100000,-0.100000)"
fill="#000000" stroke="none">
<path d="M22 916 l-23 -11 3 -69 3 -69 85 -59 c46 -32 90 -58 98 -58 22 0 140
-57 179 -87 61 -47 113 -120 113 -160 0 -45 -45 -93 -88 -93 -16 0 -46 -7 -65
-15 -26 -11 -72 -15 -156 -15 l-121 0 -17 -26 -17 -26 15 -27 c11 -20 25 -27
61 -32 25 -4 55 -12 66 -18 31 -17 193 -14 235 4 20 8 49 15 64 15 41 1 124
50 146 88 26 44 67 161 67 193 0 14 5 30 12 37 17 17 112 15 155 -3 19 -8 60
-15 90 -15 29 0 70 -7 90 -15 19 -8 53 -15 75 -15 21 0 55 -7 75 -15 50 -21
286 -21 336 0 20 8 61 15 90 15 30 0 71 7 90 15 20 8 54 15 75 15 22 0 56 7
75 15 20 8 56 15 79 15 31 0 56 8 88 30 25 16 57 30 71 30 15 0 43 7 64 15 29
13 44 14 69 5 23 -7 41 -7 60 0 15 5 44 10 65 10 21 0 55 7 74 15 l36 15 381
0 381 0 36 -15 c19 -8 47 -15 62 -15 33 -1 77 -23 168 -83 74 -50 99 -76 143
-156 19 -34 49 -61 125 -113 55 -37 106 -68 114 -68 8 0 29 -13 46 -29 40 -39
205 -121 244 -121 16 0 33 -5 36 -10 3 -6 53 -10 114 -10 l107 0 12 33 c25 68
11 161 -42 289 -11 24 26 32 69 13 25 -10 70 -15 134 -15 l97 0 84 -30 85 -30
266 0 267 0 35 15 c20 8 48 15 62 15 14 0 47 11 73 24 26 13 66 29 89 35 43
12 113 78 113 107 0 9 13 32 30 51 19 21 30 45 30 63 0 16 4 32 10 35 6 3 10
40 10 82 l0 75 -56 61 c-31 34 -61 72 -67 85 l-10 22 -57 0 -57 0 -12 -40 -12
-40 17 -32 c9 -18 27 -41 40 -51 l24 -18 0 -88 0 -88 -28 -39 c-29 -40 -44
-49 -168 -103 l-71 -31 -70 0 c-40 0 -86 -6 -106 -15 -47 -19 -157 -19 -204 0
-19 8 -53 15 -75 15 -23 0 -67 13 -105 30 l-64 30 -85 0 c-53 0 -98 6 -121 15
-19 8 -53 15 -75 15 -21 0 -55 7 -75 15 -19 8 -53 15 -75 15 -21 0 -55 7 -75
15 -19 8 -53 15 -75 15 -21 0 -55 7 -75 15 -19 8 -47 15 -60 15 -14 0 -54 13
-90 30 -35 16 -75 30 -89 30 -14 0 -41 7 -61 15 -25 11 -73 15 -167 15 l-131
0 -36 24 c-46 32 -148 66 -194 66 -20 0 -52 7 -72 15 -24 10 -71 15 -149 15
-82 0 -125 5 -155 17 l-41 16 -47 -16 c-32 -12 -79 -17 -157 -17 -77 0 -123
-5 -147 -15 -20 -8 -54 -15 -75 -15 -22 0 -56 -7 -75 -15 -22 -9 -69 -15 -119
-15 -66 0 -100 -6 -168 -30 -46 -17 -100 -30 -120 -30 -19 0 -73 -14 -120 -30
-46 -17 -94 -30 -106 -30 -12 0 -38 -7 -57 -15 l-36 -15 -278 0 -278 0 -45 30
c-32 22 -57 30 -88 30 -23 0 -59 7 -79 15 -19 8 -59 15 -87 15 -51 0 -212 48
-305 91 -23 11 -78 31 -120 45 -51 16 -94 39 -125 64 -27 22 -56 40 -66 40
-11 0 -22 5 -25 10 -8 13 -64 11 -93 -4z m3937 -551 c35 -13 73 -33 85 -45 11
-11 46 -38 76 -60 30 -21 66 -46 78 -56 32 -22 14 -43 -23 -26 -14 7 -33 12
-42 12 -19 0 -157 65 -195 92 -16 11 -28 28 -28 39 0 11 -11 31 -25 45 -29 29
-32 39 -7 29 9 -4 46 -18 81 -30z"/>
</g>
</svg>
