<?xml version="1.0" standalone="no"?>
<!DOCTYPE svg PUBLIC "-//W3C//DTD SVG 20010904//EN"
 "http://www.w3.org/TR/2001/REC-SVG-20010904/DTD/svg10.dtd">
<svg version="1.0" xmlns="http://www.w3.org/2000/svg"
 width="735.000000pt" height="405.000000pt" viewBox="0 0 735.000000 405.000000"
 preserveAspectRatio="xMidYMid meet">
<metadata>
Created by potrace 1.16, written by Peter Selinger 2001-2019
</metadata>
<g transform="translate(0.000000,405.000000) scale(0.100000,-0.100000)"
fill="#000000" stroke="none">
<path d="M7070 3876 c0 -96 -4 -186 -10 -200 -5 -14 -43 -59 -85 -100 -60 -59
-84 -77 -113 -81 -20 -3 -57 -12 -82 -20 -64 -21 -366 -21 -417 0 -19 8 -65
15 -102 15 -36 0 -86 6 -111 14 -58 18 -124 35 -175 45 -22 4 -56 12 -75 18
-78 25 -129 35 -200 42 -41 4 -85 13 -97 19 -12 7 -54 12 -93 12 -40 0 -86 6
-107 15 -19 8 -52 15 -72 15 -46 0 -142 33 -190 66 -24 16 -50 24 -79 24 -23
0 -59 7 -79 15 -19 8 -53 15 -75 15 -21 0 -55 7 -75 15 -19 8 -59 15 -89 15
-29 0 -65 5 -81 12 -23 10 -210 25 -373 29 -92 3 -164 -16 -228 -60 -34 -24
-67 -51 -72 -61 -15 -29 -12 -113 6 -138 23 -34 107 -72 156 -72 30 0 55 -8
81 -26 21 -14 61 -32 89 -40 57 -18 135 -82 126 -106 -3 -8 -39 -32 -80 -53
-55 -29 -103 -67 -191 -154 l-119 -116 -39 -77 c-21 -43 -39 -90 -39 -105 1
-48 35 -128 73 -173 39 -46 56 -103 40 -129 -6 -9 -28 -19 -49 -22 -21 -3 -52
-11 -67 -18 -16 -6 -52 -11 -81 -11 -30 0 -71 -7 -91 -16 l-38 -16 -41 16
c-58 22 -318 23 -369 1 -46 -19 -128 -19 -174 0 -28 12 -82 15 -255 15 -172 0
-226 3 -255 15 -19 8 -53 15 -75 15 -21 0 -55 7 -75 15 -19 8 -53 15 -75 15
-21 0 -55 7 -75 15 -20 9 -66 15 -108 15 l-72 0 -18 20 -19 21 -66 -7 c-49 -5
-75 -2 -104 10 -21 9 -62 16 -90 16 -32 0 -84 11 -136 30 -53 18 -105 30 -138
30 -29 0 -69 7 -89 15 -19 8 -54 15 -77 15 -23 0 -65 11 -96 26 -30 14 -88 36
-127 49 -40 13 -90 36 -110 50 -21 14 -45 25 -54 25 -8 0 -57 20 -108 45 -51
25 -98 45 -104 45 -7 0 -29 11 -49 25 -21 14 -53 31 -73 38 -20 6 -56 28 -81
47 -25 19 -73 56 -106 83 -34 26 -71 47 -83 47 -27 0 -55 -30 -55 -59 0 -30
98 -132 181 -187 36 -25 79 -58 94 -74 19 -20 39 -30 59 -30 26 0 124 -37 199
-76 15 -8 41 -21 57 -29 17 -8 44 -22 60 -30 17 -8 42 -21 58 -29 35 -18 123
-53 188 -76 28 -10 69 -27 92 -39 23 -12 60 -21 82 -21 22 0 57 -7 77 -15 19
-8 59 -15 87 -15 28 0 71 -6 96 -14 76 -24 132 -37 195 -46 33 -5 92 -20 130
-34 l70 -26 98 0 c64 0 110 -5 134 -15 19 -8 53 -15 75 -15 21 0 55 -7 75 -15
20 -8 66 -15 105 -15 38 0 84 -7 105 -15 28 -12 86 -15 284 -15 146 0 259 -4
275 -10 19 -7 37 -7 60 0 21 7 149 11 351 11 l318 0 85 30 c146 50 212 42 350
-47 30 -19 66 -37 80 -40 14 -2 43 -9 65 -16 22 -6 77 -13 122 -15 l81 -4 44
22 c23 12 63 36 88 53 103 70 122 97 171 250 l30 93 -11 27 c-5 15 -10 56 -10
92 0 67 -20 139 -65 238 -14 30 -25 62 -25 70 0 9 -22 41 -50 71 -27 30 -61
72 -74 93 -29 46 -81 92 -104 92 -9 0 -36 23 -60 50 -24 28 -69 64 -100 81
-61 32 -134 76 -223 133 -30 20 -63 36 -72 36 -20 0 -87 57 -87 75 0 21 25 25
166 25 97 0 145 -4 171 -15 19 -8 52 -15 72 -15 20 0 56 -6 81 -14 78 -25 133
-37 195 -45 34 -5 70 -13 82 -19 12 -7 32 -12 44 -12 13 0 64 -13 114 -29 103
-33 160 -49 227 -61 26 -5 56 -13 67 -19 11 -6 38 -11 61 -11 22 0 57 -7 77
-15 19 -8 53 -15 75 -15 21 0 55 -7 75 -15 19 -8 59 -15 87 -15 32 0 84 -11
136 -30 53 -18 105 -30 138 -30 29 0 69 -7 89 -15 19 -8 48 -15 62 -15 17 0
38 -11 56 -30 l29 -30 197 0 c152 0 205 3 232 15 20 8 55 15 77 15 106 0 300
153 371 292 l39 78 0 88 c0 96 7 112 52 112 l28 0 0 56 0 57 -59 -7 -59 -7
-28 31 -29 30 -52 0 -53 0 0 -174z m-2390 -700 c39 -26 52 -48 69 -119 20 -83
14 -133 -23 -211 -38 -79 -52 -94 -111 -124 -22 -11 -51 -32 -64 -46 -14 -14
-30 -26 -37 -26 -7 0 -41 -13 -76 -30 -95 -45 -106 -43 -172 43 -30 39 -67 86
-81 103 -58 71 -40 140 62 242 164 164 339 232 433 168z m228 -551 l2 -40 -42
-65 -43 -64 -65 -23 -65 -23 -49 17 c-46 17 -72 43 -49 50 22 8 268 174 272
184 1 5 10 9 20 7 11 -2 17 -15 19 -43z"/>
<path d="M0 2445 l0 -55 88 0 87 0 30 -21 c62 -42 246 -129 273 -129 18 0 38
-11 57 -30 16 -16 36 -30 44 -30 9 0 36 -14 61 -30 25 -16 52 -30 61 -30 29 0
204 -91 252 -132 26 -22 63 -44 82 -49 36 -10 69 -41 108 -99 12 -19 36 -39
53 -45 17 -5 48 -25 69 -44 21 -18 64 -50 94 -69 31 -20 83 -61 116 -92 33
-31 79 -68 102 -84 47 -31 303 -289 303 -305 0 -6 25 -39 56 -73 31 -35 73
-97 94 -139 23 -46 52 -86 73 -101 l34 -27 36 -109 c21 -60 37 -125 37 -144 0
-20 6 -51 14 -69 7 -19 16 -68 20 -110 l7 -77 -26 -76 c-13 -43 -34 -90 -45
-106 -11 -15 -25 -45 -32 -66 -8 -24 -25 -46 -45 -59 -56 -35 -50 -45 27 -45
39 0 78 4 88 8 9 5 30 15 46 23 17 8 39 29 49 47 30 51 67 163 67 205 0 21 7
54 15 74 19 46 19 111 0 158 -13 29 -14 44 -5 69 7 23 7 41 0 60 -5 15 -10 38
-10 51 0 13 -13 53 -30 88 -16 36 -30 78 -30 93 0 17 -11 39 -27 57 -31 31
-96 131 -142 219 -17 31 -46 69 -66 84 -20 15 -35 35 -35 47 0 19 -62 86 -113
120 -15 10 -30 30 -33 45 -9 38 -21 50 -75 78 -26 13 -56 35 -66 50 -42 59
-69 87 -106 111 -22 14 -71 54 -108 89 -38 35 -77 64 -88 64 -11 0 -29 13 -40
29 -24 33 -112 96 -189 135 -28 14 -63 42 -78 62 -31 41 -90 74 -132 74 -18 0
-38 10 -57 30 -16 17 -36 30 -45 30 -8 0 -32 11 -52 25 -20 14 -76 38 -125 53
-99 32 -156 60 -216 103 -23 17 -53 29 -71 29 -17 0 -56 12 -86 26 -111 51
-164 64 -270 64 l-100 0 0 -55z"/>
</g>
</svg>
