<?xml version="1.0" standalone="no"?>
<!DOCTYPE svg PUBLIC "-//W3C//DTD SVG 20010904//EN"
 "http://www.w3.org/TR/2001/REC-SVG-20010904/DTD/svg10.dtd">
<svg version="1.0" xmlns="http://www.w3.org/2000/svg"
 width="498.000000pt" height="183.000000pt" viewBox="0 0 498.000000 183.000000"
 preserveAspectRatio="xMidYMid meet">
<metadata>
Created by potrace 1.16, written by Peter Selinger 2001-2019
</metadata>
<g transform="translate(0.000000,183.000000) scale(0.100000,-0.100000)"
fill="#000000" stroke="none">
<path d="M20 1801 c0 -17 -4 -33 -10 -36 -6 -4 -10 -52 -9 -113 l1 -107 21
-36 c31 -51 76 -114 114 -159 18 -20 33 -45 33 -54 0 -9 22 -41 50 -71 27 -30
60 -72 74 -92 13 -21 40 -54 61 -73 20 -19 53 -57 72 -83 22 -29 54 -57 84
-72 26 -14 56 -37 66 -52 10 -14 38 -46 63 -70 25 -24 59 -56 75 -72 17 -16
41 -43 54 -61 13 -17 41 -42 61 -55 22 -14 58 -55 85 -97 62 -95 103 -138 131
-138 16 0 35 17 64 57 l42 58 -7 68 -6 69 27 40 c34 49 90 88 125 88 15 0 43
7 62 15 29 12 85 15 267 15 182 0 238 -3 267 -15 23 -10 69 -15 132 -15 l96 0
105 -36 c193 -64 200 -71 200 -182 0 -91 23 -141 83 -178 23 -15 56 -39 72
-54 48 -45 195 -142 230 -151 17 -5 49 -24 71 -43 52 -44 116 -76 153 -76 16
0 33 -5 36 -10 8 -12 59 -13 83 -2 9 5 31 15 47 23 18 9 41 35 58 64 30 55 31
89 4 180 -10 34 -11 54 -5 63 14 16 61 15 105 -3 20 -8 66 -15 105 -15 38 0
84 -7 105 -15 26 -11 76 -15 195 -15 118 0 168 -4 195 -15 52 -22 494 -22 546
0 20 8 59 15 87 15 50 0 144 26 205 57 39 20 121 107 146 155 10 20 23 39 29
43 6 3 10 47 10 99 l0 92 -27 26 c-34 31 -85 58 -111 58 -10 0 -27 -9 -37 -20
-18 -20 -18 -27 6 -106 l13 -42 -17 -44 c-20 -51 -66 -102 -111 -123 -17 -8
-78 -30 -136 -49 l-105 -36 -228 0 c-180 0 -235 3 -264 15 -19 8 -65 15 -101
15 -35 0 -82 5 -103 12 -30 8 -48 8 -79 -1 l-39 -12 -37 16 c-20 8 -54 15 -76
15 -21 0 -55 7 -75 15 -20 8 -66 15 -105 15 -38 0 -84 7 -105 15 -19 8 -45 15
-56 15 -11 0 -104 28 -206 62 -136 45 -194 69 -216 90 -17 15 -37 28 -44 28
-7 0 -37 11 -67 25 -84 38 -170 65 -210 65 -19 0 -65 13 -101 30 -35 16 -81
30 -101 30 -20 0 -57 6 -82 14 -94 30 -138 38 -225 45 -49 4 -100 13 -113 19
-30 17 -378 11 -442 -7 -188 -54 -265 -84 -309 -120 -43 -35 -107 -71 -128
-71 -5 0 -22 14 -38 30 -16 17 -35 30 -42 30 -12 0 -44 29 -195 178 -18 18
-52 51 -74 75 -23 23 -54 52 -70 63 -16 12 -40 43 -54 69 l-25 46 25 19 c14
11 37 29 52 40 34 26 118 150 118 173 0 10 -18 52 -39 95 l-39 78 -71 59 c-39
33 -103 78 -142 102 l-71 43 -129 0 -129 0 0 -29z m235 -152 c71 -25 116 -57
156 -112 36 -49 37 -90 4 -122 -59 -60 -149 -6 -217 130 -38 74 -41 91 -23
109 20 19 9 20 80 -5z m2515 -1178 c121 -17 241 -96 290 -191 12 -23 20 -51
18 -63 -4 -32 -61 -34 -114 -5 -125 69 -264 156 -296 185 -19 17 -33 67 -23
84 4 6 18 8 34 5 14 -4 55 -11 91 -15z"/>
</g>
</svg>
