<?xml version="1.0" standalone="no"?>
<!DOCTYPE svg PUBLIC "-//W3C//DTD SVG 20010904//EN"
 "http://www.w3.org/TR/2001/REC-SVG-20010904/DTD/svg10.dtd">
<svg version="1.0" xmlns="http://www.w3.org/2000/svg"
 width="591.000000pt" height="108.000000pt" viewBox="0 0 591.000000 108.000000"
 preserveAspectRatio="xMidYMid meet">
<metadata>
Created by potrace 1.16, written by Peter Selinger 2001-2019
</metadata>
<g transform="translate(0.000000,108.000000) scale(0.100000,-0.100000)"
fill="#000000" stroke="none">
<path d="M575 1070 c-3 -5 -14 -10 -24 -10 -36 0 -68 -38 -91 -110 l-22 -70
13 -32 c7 -18 42 -76 78 -128 35 -52 81 -132 103 -178 l39 -83 -11 -15 c-16
-18 -71 -18 -117 1 -19 8 -45 15 -57 15 -22 0 -122 32 -166 53 -45 21 -87 57
-116 98 -39 57 -128 119 -171 119 l-33 0 0 -66 0 -66 31 -37 c117 -136 147
-164 210 -196 86 -44 179 -75 224 -75 20 0 52 -7 72 -15 23 -10 68 -15 128
-15 l93 0 61 45 61 45 0 50 0 50 -85 168 c-47 92 -95 183 -107 204 l-23 36 10
29 10 28 132 3 c101 2 141 -1 169 -13 20 -8 54 -15 76 -15 21 0 55 -7 75 -15
19 -8 53 -15 75 -15 23 0 67 -13 105 -30 35 -16 75 -30 89 -30 14 0 41 -7 61
-15 19 -8 61 -15 92 -15 l56 0 45 -30 c25 -16 51 -30 58 -30 7 0 38 -11 68
-25 72 -33 168 -65 195 -65 11 0 50 -13 86 -30 35 -16 69 -30 74 -30 19 0 96
-39 109 -55 10 -12 11 -24 1 -54 -6 -21 -11 -50 -11 -65 0 -39 44 -119 82
-150 112 -90 161 -123 248 -167 l98 -49 60 0 c34 0 64 -4 67 -10 8 -13 72 -13
80 0 3 5 21 10 39 10 44 0 77 27 105 88 l24 51 -23 70 c-17 54 -32 79 -61 106
-22 19 -47 35 -57 35 -10 0 -29 12 -43 26 -13 14 -41 35 -63 46 -21 11 -57 33
-79 49 -24 17 -53 29 -71 29 -17 0 -44 9 -61 21 -57 38 -166 90 -247 116 -44
14 -111 41 -149 59 -72 35 -268 104 -296 104 -28 0 -144 42 -226 82 -50 25
-92 38 -118 38 -22 0 -56 7 -76 15 -19 8 -52 15 -72 15 -20 0 -56 6 -81 14
-60 19 -125 35 -182 46 -26 5 -56 13 -67 19 -11 6 -60 11 -110 11 -49 0 -93 5
-96 10 -4 6 -63 10 -145 10 -82 0 -141 -4 -145 -10z m1985 -690 c25 -16 52
-30 60 -30 18 0 154 -87 193 -124 57 -52 2 -79 -95 -46 -125 42 -224 107 -251
164 -33 69 15 88 93 36z"/>
<path d="M3495 1010 c-11 -5 -33 -9 -48 -9 -37 -1 -122 -45 -141 -73 -11 -15
-16 -45 -16 -91 l0 -68 49 -53 c33 -34 79 -67 133 -94 46 -24 106 -58 134 -75
28 -18 125 -57 215 -86 90 -30 192 -67 227 -82 35 -16 81 -29 103 -29 22 0 56
-7 76 -15 19 -8 59 -15 87 -15 28 0 71 -6 96 -14 60 -19 125 -35 182 -46 26
-5 56 -13 67 -19 11 -6 38 -11 61 -11 22 0 57 -7 77 -15 20 -8 66 -15 105 -15
38 0 84 -7 105 -15 28 -12 86 -15 285 -15 l249 0 59 20 c70 24 255 145 288
189 l22 30 0 116 c0 63 -4 123 -9 133 -5 9 -16 35 -26 58 -24 59 -115 154
-147 154 -51 0 -72 -53 -43 -111 27 -51 65 -173 65 -207 0 -90 -99 -212 -172
-212 -14 0 -42 -7 -63 -16 -29 -12 -63 -14 -154 -11 -163 7 -369 26 -416 39
-22 5 -87 13 -145 17 -58 4 -115 12 -127 19 -12 7 -39 12 -59 12 -21 0 -98 20
-171 45 -73 25 -148 45 -168 45 -20 0 -52 7 -72 15 -19 8 -45 15 -57 15 -12 0
-49 9 -81 21 -132 45 -155 65 -155 137 0 54 -29 111 -74 146 -21 15 -39 40
-44 59 -10 37 -55 72 -116 88 -22 6 -58 20 -78 30 -40 20 -71 23 -103 9z m113
-210 c23 -16 45 -30 49 -30 17 0 53 -46 53 -67 0 -37 -51 -25 -121 29 -20 15
-41 28 -46 28 -6 0 -18 9 -28 20 l-18 20 13 15 c19 23 53 18 98 -15z"/>
</g>
</svg>
