<?xml version="1.0" standalone="no"?>
<!DOCTYPE svg PUBLIC "-//W3C//DTD SVG 20010904//EN"
 "http://www.w3.org/TR/2001/REC-SVG-20010904/DTD/svg10.dtd">
<svg version="1.0" xmlns="http://www.w3.org/2000/svg"
 width="627.000000pt" height="141.000000pt" viewBox="0 0 627.000000 141.000000"
 preserveAspectRatio="xMidYMid meet">
<metadata>
Created by potrace 1.16, written by Peter Selinger 2001-2019
</metadata>
<g transform="translate(0.000000,141.000000) scale(0.100000,-0.100000)"
fill="#000000" stroke="none">
<path d="M545 1400 c-3 -5 -24 -10 -45 -10 -40 0 -217 -55 -294 -90 -23 -11
-59 -25 -81 -32 -25 -8 -47 -24 -60 -45 -11 -18 -30 -49 -42 -68 l-23 -36 0
-113 c0 -127 9 -156 69 -219 39 -42 98 -77 129 -77 23 0 52 30 52 54 0 9 -11
38 -24 64 -40 80 -41 91 -11 122 33 34 30 64 -7 68 -33 4 -52 25 -44 49 13 42
201 153 259 153 13 0 41 7 60 15 l36 15 363 0 c286 0 373 -3 408 -14 76 -24
132 -37 195 -46 33 -5 92 -20 130 -34 39 -14 86 -26 105 -26 37 0 146 -34 168
-52 20 -17 14 -38 -22 -82 -43 -53 -76 -118 -76 -151 0 -28 33 -133 56 -176 7
-15 28 -38 46 -51 18 -12 57 -44 86 -70 40 -37 60 -48 86 -48 27 0 39 -7 60
-35 15 -19 51 -47 79 -62 29 -14 66 -36 82 -49 34 -25 229 -124 246 -124 17 0
80 -31 114 -56 52 -38 147 -81 261 -118 60 -20 117 -41 126 -46 10 -6 63 -10
119 -10 l101 0 37 29 c20 16 48 52 61 81 l24 51 -17 47 c-9 26 -17 59 -17 73
0 17 -17 47 -43 80 -24 30 -55 74 -68 99 -18 32 -38 53 -74 72 -55 30 -85 61
-85 88 0 10 -19 33 -42 51 -24 18 -72 58 -108 89 -36 31 -81 66 -100 78 -47
29 -103 89 -95 101 9 16 110 13 152 -4 24 -10 71 -15 150 -15 78 0 125 -5 150
-15 26 -11 74 -15 180 -15 105 0 153 -4 180 -15 28 -12 84 -15 267 -15 l232 0
84 -30 c47 -16 103 -30 124 -30 24 0 71 -15 125 -41 126 -59 255 -97 371 -108
42 -4 82 -11 90 -17 16 -9 183 -26 235 -23 30 2 182 2 265 0 25 -1 142 3 260
7 203 8 241 13 350 48 25 8 56 14 69 14 36 0 151 81 210 147 l51 57 0 77 c0
43 -5 81 -10 84 -6 3 -10 15 -10 26 0 32 -97 127 -142 140 -22 5 -45 12 -53
15 -19 8 -85 -54 -85 -80 0 -26 18 -46 41 -46 23 0 99 -106 99 -138 0 -57 -85
-142 -141 -142 -15 0 -56 -13 -91 -30 l-63 -30 -86 0 c-56 0 -100 -6 -124 -15
l-37 -16 -34 11 c-19 7 -76 11 -127 11 -164 -2 -501 15 -532 26 -48 18 -116
34 -180 43 -62 9 -161 42 -179 60 -7 7 -2 28 17 65 31 64 33 84 11 128 -25 49
-44 66 -84 77 -20 5 -54 25 -76 43 -113 97 -283 133 -384 82 -69 -35 -80 -55
-80 -147 l0 -77 -32 -23 c-43 -30 -165 -38 -222 -14 -29 12 -73 16 -183 16
-105 0 -153 4 -180 15 -25 11 -72 15 -165 15 -92 0 -139 4 -165 15 -24 10 -71
15 -150 15 -78 0 -125 5 -150 15 -47 20 -170 20 -218 -1 l-38 -16 -41 16 c-23
9 -51 16 -62 16 -25 0 -122 33 -192 66 -29 13 -57 24 -63 24 -6 0 -40 14 -76
30 -35 17 -75 30 -89 30 -14 0 -41 7 -61 15 -19 8 -53 15 -75 15 -21 0 -55 7
-75 15 -19 8 -53 15 -75 15 -23 0 -67 13 -105 30 l-64 30 -74 0 c-41 0 -77 5
-80 10 -4 6 -138 10 -370 10 -232 0 -366 -4 -370 -10z m3690 -305 c85 -40 103
-58 85 -80 -18 -22 -107 -20 -150 4 -19 10 -43 32 -54 50 l-18 31 12 15 c19
23 46 18 125 -20z m-1867 -190 c52 -25 98 -45 104 -45 58 0 369 -232 523 -390
96 -98 115 -119 143 -159 33 -46 41 -95 22 -132 -20 -36 -118 -19 -258 47 -29
13 -58 24 -65 24 -7 0 -30 12 -51 26 -21 15 -111 63 -200 107 -88 44 -179 93
-200 109 -21 15 -46 28 -53 28 -41 0 -134 60 -209 135 -22 22 -53 48 -68 59
-31 21 -65 87 -66 128 0 52 111 107 215 108 l70 0 93 -45z"/>
</g>
</svg>
