<?xml version="1.0" standalone="no"?>
<!DOCTYPE svg PUBLIC "-//W3C//DTD SVG 20010904//EN"
 "http://www.w3.org/TR/2001/REC-SVG-20010904/DTD/svg10.dtd">
<svg version="1.0" xmlns="http://www.w3.org/2000/svg"
 width="435.000000pt" height="279.000000pt" viewBox="0 0 435.000000 279.000000"
 preserveAspectRatio="xMidYMid meet">
<metadata>
Created by potrace 1.16, written by Peter Selinger 2001-2019
</metadata>
<g transform="translate(0.000000,279.000000) scale(0.100000,-0.100000)"
fill="#000000" stroke="none">
<path d="M3290 2766 c0 -14 -5 -37 -10 -51 -12 -31 3 -94 32 -137 l19 -27 -21
-53 c-32 -78 -35 -83 -58 -86 -12 -2 -36 -22 -54 -45 -43 -56 -53 -62 -124
-86 l-60 -21 -213 0 c-165 0 -219 3 -248 15 -19 8 -59 15 -87 15 -28 0 -71 6
-96 14 -60 19 -125 35 -182 46 -26 5 -56 13 -67 19 -11 6 -45 11 -76 11 -39 0
-73 8 -111 25 -31 14 -109 43 -175 65 -65 22 -136 51 -156 65 -21 14 -51 25
-66 25 -39 0 -93 26 -147 70 -50 41 -121 80 -145 80 -29 0 -112 -49 -143 -85
l-32 -36 0 -59 c0 -100 108 -382 185 -485 12 -16 32 -50 45 -74 35 -70 99
-159 130 -181 15 -11 30 -32 33 -48 4 -19 31 -52 76 -94 39 -36 71 -73 71 -81
0 -22 47 -75 90 -102 21 -13 59 -55 85 -95 27 -41 64 -82 86 -96 21 -13 92
-78 157 -144 75 -76 126 -120 139 -120 11 0 31 -8 44 -19 l23 -19 -13 -16
c-18 -21 -176 -22 -241 -2 -78 25 -133 37 -195 45 -34 5 -70 13 -82 19 -12 7
-65 12 -119 12 l-97 0 -151 50 c-204 68 -226 80 -299 155 -37 38 -72 65 -83
65 -11 0 -31 12 -45 26 -13 14 -50 39 -82 55 -32 16 -74 45 -95 63 -38 34 -92
66 -112 66 -7 0 -41 14 -77 30 -35 17 -70 30 -76 30 -7 0 -32 14 -57 30 -30
20 -58 30 -82 30 -21 0 -57 5 -80 11 l-43 12 -53 -16 c-31 -10 -72 -33 -102
-59 l-50 -43 0 -39 c0 -30 8 -49 35 -82 38 -45 160 -134 186 -134 8 0 28 -14
44 -30 16 -17 36 -30 44 -30 9 0 63 -23 120 -50 l103 -50 -7 -18 c-4 -9 -19
-50 -33 -90 l-26 -73 23 -47 c45 -93 89 -141 162 -177 l69 -35 120 0 121 0 37
19 c44 22 130 128 152 185 9 23 27 47 42 55 l27 15 43 -12 c24 -8 61 -17 83
-21 22 -4 56 -12 75 -18 69 -22 126 -35 185 -42 34 -5 70 -13 82 -19 12 -7 66
-12 123 -12 67 0 113 -5 137 -15 19 -8 53 -15 75 -15 21 0 55 -7 75 -15 23
-10 69 -15 135 -15 65 0 111 -5 135 -15 19 -8 47 -15 60 -15 14 0 52 -13 86
-28 34 -16 74 -32 89 -35 14 -4 50 -29 80 -56 29 -26 73 -58 98 -71 25 -12 65
-39 89 -58 66 -54 154 -112 169 -112 7 0 42 -17 77 -39 36 -21 103 -51 150
-66 90 -28 166 -64 252 -119 51 -32 167 -76 201 -76 10 0 56 -13 102 -30 47
-16 97 -30 112 -30 15 0 30 -4 33 -10 4 -6 58 -10 131 -10 l124 0 65 65 65 65
0 64 c0 36 -4 68 -10 71 -5 3 -10 21 -10 40 0 27 -11 47 -54 95 -30 34 -60 79
-68 102 -10 33 -25 50 -65 77 -28 20 -65 56 -82 82 -19 29 -50 59 -83 78 -29
17 -79 53 -110 79 -31 26 -94 67 -140 90 -46 24 -108 59 -138 78 -30 19 -69
38 -87 43 -18 5 -45 18 -60 29 -63 45 -173 92 -213 92 -22 0 -57 7 -77 15 -19
8 -54 15 -77 15 -29 0 -54 9 -86 30 -25 16 -56 30 -70 30 -14 0 -64 13 -110
30 -47 16 -98 30 -113 30 -36 0 -121 -43 -141 -72 -37 -52 3 -168 72 -212 50
-32 64 -50 65 -88 l2 -33 -25 2 c-74 5 -117 17 -145 43 -16 15 -46 35 -65 45
-19 9 -56 38 -81 63 -67 68 -184 171 -227 199 -55 37 -149 131 -188 190 -19
29 -39 55 -44 58 -6 4 -34 36 -64 73 -29 37 -87 104 -129 149 -41 45 -91 105
-110 135 -18 29 -55 77 -80 107 -25 29 -49 68 -53 85 -3 17 -22 48 -41 69 -55
61 -113 191 -113 251 0 28 4 57 9 65 l9 14 34 -13 c18 -7 59 -26 90 -42 32
-15 69 -28 83 -28 15 0 51 -11 81 -25 52 -24 216 -79 314 -105 25 -6 79 -15
120 -20 48 -5 94 -17 127 -34 42 -21 67 -26 122 -26 38 0 82 -5 98 -12 27 -11
104 -23 213 -35 103 -10 384 -7 425 5 22 6 51 14 65 16 14 3 50 21 80 40 30
19 78 47 105 62 75 39 155 102 155 121 0 10 13 31 28 48 15 16 36 55 46 85
l18 56 -20 57 c-13 41 -32 69 -65 99 -25 24 -49 55 -52 71 l-7 27 -59 0 -59 0
0 -24z m-2795 -1416 c3 -5 -1 -10 -9 -10 -9 0 -16 5 -16 10 0 6 4 10 9 10 6 0
13 -4 16 -10z m2410 -275 c28 -9 74 -26 103 -40 29 -14 64 -25 78 -25 13 0 41
-7 61 -15 19 -8 53 -15 75 -15 43 0 140 -43 238 -106 30 -19 66 -37 80 -41 31
-7 111 -55 170 -102 25 -20 61 -47 80 -60 20 -13 48 -41 64 -62 15 -22 49 -50
76 -64 27 -14 57 -37 67 -52 10 -15 36 -45 59 -67 22 -23 55 -61 72 -85 l32
-44 0 -59 0 -59 -25 -24 c-17 -18 -35 -25 -62 -25 -38 0 -245 65 -302 94 -16
9 -65 27 -108 41 -108 35 -157 59 -202 100 -21 19 -45 35 -52 35 -8 0 -56 20
-107 45 -52 25 -98 45 -104 45 -5 0 -43 20 -84 45 -40 25 -77 45 -82 45 -16 0
-84 78 -78 89 4 6 23 11 42 11 71 0 134 47 134 100 0 49 -30 87 -80 100 -22 6
-62 31 -92 58 -29 26 -65 55 -80 65 -33 21 -50 50 -42 71 7 19 7 19 69 1z
m-2081 -26 c68 -23 84 -33 109 -69 41 -60 1 -118 -90 -128 -83 -9 -151 52
-140 124 5 32 41 94 54 94 4 0 34 -9 67 -21z"/>
</g>
</svg>
