<?xml version="1.0" standalone="no"?>
<!DOCTYPE svg PUBLIC "-//W3C//DTD SVG 20010904//EN"
 "http://www.w3.org/TR/2001/REC-SVG-20010904/DTD/svg10.dtd">
<svg version="1.0" xmlns="http://www.w3.org/2000/svg"
 width="558.000000pt" height="540.000000pt" viewBox="0 0 558.000000 540.000000"
 preserveAspectRatio="xMidYMid meet">
<metadata>
Created by potrace 1.16, written by Peter Selinger 2001-2019
</metadata>
<g transform="translate(0.000000,540.000000) scale(0.100000,-0.100000)"
fill="#000000" stroke="none">
<path d="M5348 5375 c-9 -19 -9 -38 0 -73 6 -26 13 -74 16 -107 l6 -60 -36
-56 c-43 -66 -77 -89 -132 -89 -22 0 -56 -7 -75 -15 l-36 -15 -381 0 -381 0
-36 15 c-20 9 -66 15 -107 15 l-72 0 -93 45 c-51 25 -103 45 -117 45 -14 0
-41 7 -61 15 -19 8 -60 15 -90 15 -29 0 -70 7 -90 15 -19 8 -45 15 -56 15 -11
0 -101 27 -199 60 -196 66 -280 78 -310 43 -29 -35 -39 -94 -23 -145 23 -77
44 -107 94 -139 27 -16 56 -41 65 -54 9 -14 35 -37 58 -51 23 -15 62 -45 87
-68 57 -51 122 -96 181 -126 25 -12 65 -39 90 -60 25 -20 63 -46 85 -58 42
-21 247 -157 304 -201 18 -14 54 -47 80 -72 25 -26 65 -56 88 -68 23 -11 50
-33 60 -47 10 -14 30 -40 45 -58 15 -18 47 -63 72 -102 l46 -69 0 -98 c0 -116
-11 -141 -78 -183 -24 -16 -56 -43 -69 -61 -35 -46 -190 -123 -248 -123 -23 0
-59 -7 -78 -15 -20 -8 -48 -15 -62 -15 -14 0 -44 -9 -66 -21 -64 -32 -181 -69
-220 -69 -20 0 -53 -7 -72 -15 -23 -9 -68 -15 -120 -15 -53 0 -98 -6 -120 -15
-20 -8 -54 -15 -75 -15 -22 0 -56 -7 -75 -15 -20 -8 -61 -15 -90 -15 -30 0
-71 -7 -90 -15 -26 -11 -73 -15 -162 -15 -89 0 -136 4 -162 15 -19 8 -48 15
-63 15 -15 0 -44 -7 -63 -15 -28 -12 -80 -15 -222 -15 -142 0 -194 3 -222 15
-23 10 -69 15 -135 15 -65 0 -111 5 -135 15 -19 8 -60 15 -90 15 -29 0 -70 7
-90 15 -19 8 -61 15 -92 15 -41 0 -72 8 -119 30 -35 17 -75 30 -88 30 -14 0
-41 7 -61 15 -19 8 -47 15 -62 15 -14 0 -55 14 -89 30 -40 19 -80 30 -107 30
-62 0 -105 37 -105 90 0 25 -9 52 -25 76 -14 21 -25 51 -25 71 l0 33 -104 103
c-212 209 -306 257 -502 257 l-107 0 -52 -52 -51 -53 1 -57 2 -57 36 -54 c47
-71 182 -192 224 -201 17 -4 51 -24 75 -45 53 -47 218 -131 257 -131 45 0 56
-23 55 -110 -2 -90 -9 -105 -84 -185 -31 -33 -67 -76 -80 -96 -13 -21 -46 -51
-72 -69 -27 -17 -54 -40 -61 -51 -6 -11 -44 -44 -84 -74 -43 -33 -73 -63 -75
-76 -2 -12 -11 -26 -20 -30 -10 -5 -26 -13 -35 -18 -10 -4 -48 -53 -85 -107
l-68 -98 0 -93 c0 -50 -4 -95 -10 -98 -13 -8 -13 -150 0 -173 5 -9 26 -66 46
-127 43 -131 48 -140 127 -258 87 -128 131 -186 215 -279 39 -44 72 -85 72
-91 0 -18 292 -307 347 -344 29 -19 68 -56 88 -83 19 -26 47 -56 62 -66 15 -9
48 -36 73 -59 25 -23 79 -63 120 -90 41 -27 95 -68 120 -91 25 -22 64 -51 86
-64 23 -12 58 -42 78 -65 34 -41 290 -221 378 -266 22 -11 57 -33 78 -47 20
-15 70 -42 111 -61 77 -35 85 -38 214 -108 44 -23 94 -43 111 -43 16 0 35 -5
41 -11 18 -18 65 -6 74 18 13 34 -31 77 -130 129 -84 44 -142 78 -251 147 -30
19 -70 38 -88 42 -21 4 -52 26 -87 61 -29 30 -61 54 -71 54 -21 0 -102 50
-164 100 -25 21 -68 49 -95 63 -59 30 -87 55 -120 107 -14 23 -44 49 -75 66
-27 15 -62 42 -76 61 -14 18 -44 43 -66 54 -23 12 -71 53 -107 91 -36 38 -79
77 -96 85 -43 23 -280 258 -320 319 -19 29 -62 77 -95 107 -33 29 -60 61 -60
71 0 9 -31 50 -70 91 -42 46 -73 89 -79 111 -5 20 -21 50 -35 68 -36 47 -116
219 -116 248 0 14 -7 42 -15 61 -11 26 -15 73 -15 158 l0 123 22 64 22 65 75
81 c84 90 250 246 261 246 9 0 97 109 139 170 13 19 43 56 67 82 24 26 44 55
44 64 0 27 32 72 65 89 l31 17 38 -16 c21 -9 55 -16 74 -16 20 0 96 -20 169
-45 73 -25 141 -45 151 -45 10 0 56 -13 102 -30 l85 -30 143 0 c104 0 152 -4
179 -15 24 -10 70 -15 146 -15 60 0 127 -5 148 -12 30 -8 48 -8 79 1 l39 12
37 -16 c47 -19 107 -19 160 1 l41 16 38 -16 c53 -22 376 -23 428 -1 20 8 62
15 92 15 31 0 66 5 78 12 12 7 69 15 127 19 98 6 144 15 230 42 19 6 60 14 90
18 66 9 105 19 272 71 82 26 137 38 153 34 27 -7 168 58 256 119 27 18 64 36
81 40 46 10 218 184 218 220 0 14 7 42 15 62 8 19 15 61 15 93 0 32 -7 74 -15
93 -8 20 -15 50 -15 67 0 31 -7 40 -161 206 -55 60 -165 155 -224 194 -61 40
-149 109 -209 161 -23 20 -57 44 -76 54 -19 10 -48 28 -65 40 -16 13 -53 34
-80 48 -28 14 -78 49 -112 78 -34 30 -90 74 -124 99 -90 67 -139 111 -139 126
0 22 47 28 93 10 24 -9 58 -16 77 -16 19 0 55 -6 80 -14 87 -28 136 -38 210
-45 50 -5 92 -16 127 -34 29 -15 64 -27 78 -27 14 0 42 -7 62 -15 19 -8 53
-15 75 -15 21 0 55 -7 75 -15 19 -8 60 -15 90 -15 29 0 70 -7 90 -15 28 -12
81 -15 243 -15 162 0 215 3 243 15 20 8 61 15 90 15 30 0 71 7 90 15 20 8 63
15 96 15 l59 0 48 41 c27 22 70 51 95 64 57 29 60 34 88 123 14 41 32 79 42
85 20 13 25 55 10 85 -4 9 -22 47 -40 85 l-31 67 -70 0 -70 0 -12 -25z m-4938
-1480 l86 -43 84 -101 c47 -56 86 -107 88 -115 13 -58 -162 13 -286 118 -24
20 -52 36 -62 36 -31 0 -70 42 -76 81 -5 29 -2 41 15 58 26 26 34 24 151 -34z"/>
</g>
</svg>
