<?xml version="1.0" standalone="no"?>
<!DOCTYPE svg PUBLIC "-//W3C//DTD SVG 20010904//EN"
 "http://www.w3.org/TR/2001/REC-SVG-20010904/DTD/svg10.dtd">
<svg version="1.0" xmlns="http://www.w3.org/2000/svg"
 width="516.000000pt" height="192.000000pt" viewBox="0 0 516.000000 192.000000"
 preserveAspectRatio="xMidYMid meet">
<metadata>
Created by potrace 1.16, written by Peter Selinger 2001-2019
</metadata>
<g transform="translate(0.000000,192.000000) scale(0.100000,-0.100000)"
fill="#000000" stroke="none">
<path d="M4954 1889 l-16 -31 10 -97 c5 -53 13 -103 16 -111 7 -18 -85 -139
-135 -179 -46 -35 -183 -81 -245 -81 -28 0 -68 -7 -87 -15 -28 -12 -81 -15
-237 -15 -156 0 -209 3 -237 15 -22 9 -67 15 -120 15 -52 0 -97 6 -120 15 -22
9 -68 15 -122 15 l-86 0 -36 24 c-47 32 -352 131 -479 156 -53 10 -134 48
-192 90 -22 17 -48 30 -56 30 -8 0 -37 14 -63 31 l-47 30 -53 -3 -52 -3 -19
-25 c-32 -43 -68 -161 -68 -223 l0 -57 36 -73 c21 -41 61 -98 94 -132 31 -33
68 -78 82 -100 14 -22 45 -53 69 -68 25 -16 55 -44 68 -63 13 -19 45 -50 70
-68 25 -19 69 -58 96 -86 28 -28 73 -67 100 -85 28 -19 66 -50 85 -70 19 -19
51 -40 71 -45 21 -6 64 -34 98 -65 34 -30 66 -55 71 -55 5 0 49 -38 97 -84 84
-80 139 -116 193 -129 14 -4 43 -21 65 -40 46 -38 157 -101 198 -111 15 -3 27
-11 27 -16 0 -18 -47 -21 -221 -16 -285 10 -281 9 -320 34 l-36 22 -447 0
-447 0 -36 15 c-20 8 -66 15 -105 15 -38 0 -84 7 -105 15 -24 10 -71 15 -150
15 -78 0 -125 5 -150 15 -27 11 -77 15 -210 15 -132 0 -182 4 -210 15 -27 11
-77 15 -210 15 -132 0 -182 4 -210 15 -26 11 -76 15 -195 15 -118 0 -168 4
-195 15 -27 12 -79 15 -225 15 -145 0 -197 3 -225 15 -25 10 -71 15 -155 15
-133 0 -178 -13 -178 -53 0 -31 76 -57 164 -57 37 0 83 -7 103 -15 27 -11 77
-15 210 -15 132 0 182 -4 210 -15 25 -11 72 -15 162 -15 81 0 142 -5 171 -14
118 -37 141 -40 435 -45 212 -4 306 -10 322 -18 14 -9 63 -13 138 -13 80 0
127 -5 152 -15 22 -9 67 -15 120 -15 52 0 97 -6 120 -15 22 -9 67 -15 120 -15
52 0 97 -6 120 -15 26 -11 76 -15 195 -15 118 0 168 -4 195 -15 28 -12 86 -15
285 -15 198 0 256 -3 285 -15 25 -11 73 -15 169 -15 78 0 135 -4 139 -10 4 -6
152 -10 413 -10 l407 1 23 35 c34 54 29 75 -32 133 l-55 51 -118 0 c-129 0
-201 17 -272 66 -19 13 -43 24 -51 24 -8 0 -32 12 -53 26 -21 14 -84 48 -140
76 -56 28 -122 67 -147 87 -24 20 -65 50 -91 66 -48 31 -137 100 -218 169 -25
22 -70 55 -99 73 -28 19 -85 63 -125 99 -39 37 -95 84 -123 105 -29 22 -64 58
-79 80 -16 22 -49 55 -75 74 -26 19 -60 54 -76 77 -16 24 -52 69 -81 102 -62
70 -91 135 -77 174 l9 27 45 3 45 3 30 -31 c16 -16 36 -30 44 -30 9 0 45 -14
79 -30 37 -18 80 -30 103 -30 22 0 56 -7 76 -15 19 -8 54 -15 77 -15 25 0 66
-12 104 -30 35 -17 76 -30 90 -30 15 0 47 -14 72 -30 32 -22 57 -30 88 -30 23
0 59 -7 79 -15 l35 -15 463 0 463 0 35 15 c20 8 49 15 64 15 35 0 208 114 286
189 71 68 107 134 107 195 0 25 5 48 10 51 6 3 10 22 10 41 l0 34 -64 65 -64
65 -31 0 c-24 0 -34 -6 -47 -31z"/>
</g>
</svg>
