<?xml version="1.0" standalone="no"?>
<!DOCTYPE svg PUBLIC "-//W3C//DTD SVG 20010904//EN"
 "http://www.w3.org/TR/2001/REC-SVG-20010904/DTD/svg10.dtd">
<svg version="1.0" xmlns="http://www.w3.org/2000/svg"
 width="612.000000pt" height="285.000000pt" viewBox="0 0 612.000000 285.000000"
 preserveAspectRatio="xMidYMid meet">
<metadata>
Created by potrace 1.16, written by Peter Selinger 2001-2019
</metadata>
<g transform="translate(0.000000,285.000000) scale(0.100000,-0.100000)"
fill="#000000" stroke="none">
<path d="M965 2840 c-4 -6 -61 -10 -138 -10 l-132 0 -85 -30 c-46 -17 -101
-30 -121 -30 -24 0 -71 -16 -130 -45 -51 -25 -99 -45 -106 -45 -40 0 -113 -52
-151 -108 -56 -82 -82 -136 -82 -171 0 -16 -4 -33 -10 -36 -6 -4 -10 -62 -10
-142 l0 -135 31 -39 c45 -57 99 -50 99 13 0 16 7 45 15 65 9 22 15 68 15 122
l0 86 30 63 c43 92 72 124 163 186 106 71 122 76 221 76 52 0 97 6 119 15 20
8 54 15 75 15 22 0 56 7 75 15 47 20 361 22 404 3 19 -9 120 -15 303 -20 151
-4 284 -7 295 -7 11 -1 59 2 106 5 68 5 93 3 117 -10 19 -10 57 -16 94 -16 36
-1 74 -7 88 -15 14 -8 52 -14 85 -15 l60 0 45 -30 c25 -16 58 -30 73 -30 15 0
44 -7 64 -15 24 -10 71 -15 142 -15 73 -1 114 -5 131 -15 14 -8 40 -14 58 -15
18 0 43 -5 55 -12 12 -6 42 -15 67 -19 25 -4 97 -25 160 -48 74 -26 133 -40
165 -41 91 0 260 -70 297 -123 16 -22 23 -52 28 -106 7 -87 32 -145 82 -185
134 -108 218 -166 308 -211 41 -21 88 -48 105 -60 53 -40 113 -65 155 -65 22
0 57 -7 77 -15 19 -8 64 -15 100 -15 l65 0 29 29 c53 53 39 109 -68 265 -41
60 -51 81 -41 87 18 12 14 13 108 -21 l85 -30 105 0 c72 -1 113 -5 130 -15 14
-8 46 -14 71 -15 l45 0 29 -30 c19 -20 39 -30 57 -30 16 0 45 -7 65 -15 19 -8
60 -15 90 -15 29 0 70 -7 90 -15 28 -12 82 -15 255 -15 l219 0 61 21 c83 28
114 45 171 92 l47 40 0 96 0 97 -71 62 c-70 62 -103 74 -127 50 -18 -18 -15
-46 8 -75 50 -64 50 -177 0 -213 -33 -23 -115 -42 -205 -45 -33 -2 -83 -6
-110 -10 -37 -5 -61 -3 -89 9 -23 9 -67 16 -108 16 -38 0 -84 7 -105 15 -22
10 -68 15 -125 15 l-89 0 -59 30 c-41 21 -75 30 -107 30 -26 1 -59 7 -73 15
-14 8 -38 14 -55 15 -16 0 -59 14 -93 30 l-64 30 -96 0 c-56 0 -116 6 -142 14
-58 18 -124 35 -180 46 -25 5 -82 27 -128 49 -45 23 -94 41 -108 41 -31 0 -85
24 -138 62 -21 15 -45 28 -53 28 -8 0 -44 14 -80 30 -35 17 -69 30 -75 30 -5
0 -39 14 -75 30 -35 17 -75 30 -89 30 -14 0 -41 7 -61 15 -19 8 -47 15 -62 15
-14 0 -55 14 -89 30 l-64 30 -90 0 c-50 0 -99 5 -111 12 -12 6 -42 15 -67 19
-45 7 -85 19 -148 45 -18 8 -51 14 -73 14 -22 0 -56 7 -76 15 -19 8 -53 15
-75 15 -21 0 -55 7 -75 15 -19 8 -63 15 -97 15 -34 1 -72 7 -86 15 -16 9 -55
15 -105 15 -50 0 -89 6 -105 15 -14 8 -53 15 -90 15 -37 0 -76 7 -90 15 -19
11 -70 14 -218 15 -148 0 -201 3 -229 15 -20 9 -66 15 -109 15 -40 0 -76 5
-79 10 -4 6 -68 10 -160 10 -92 0 -156 -4 -160 -10z m3193 -798 c26 -27 80
-70 119 -96 89 -59 155 -131 151 -166 l-3 -25 -33 -3 c-24 -2 -47 5 -81 27
-26 17 -53 31 -60 31 -33 0 -305 176 -337 218 l-26 33 12 14 c9 11 37 15 112
15 l100 0 46 -48z"/>
<path d="M885 1877 c-23 -12 -71 -46 -108 -75 l-67 -54 0 -97 0 -98 31 -43
c39 -54 119 -217 119 -244 0 -11 19 -38 43 -60 23 -23 58 -61 77 -86 19 -25
69 -84 112 -132 42 -48 85 -100 95 -115 9 -15 41 -55 70 -87 29 -33 53 -63 53
-66 0 -11 124 -108 206 -163 39 -26 83 -62 97 -81 17 -22 38 -36 60 -40 19 -4
54 -24 78 -45 24 -21 87 -60 139 -86 52 -26 108 -58 125 -70 49 -37 148 -83
247 -115 99 -32 150 -62 169 -97 16 -29 64 -31 79 -4 20 38 11 67 -30 105 -22
20 -48 36 -59 36 -10 0 -38 13 -62 30 -24 16 -50 30 -57 30 -7 0 -43 18 -80
40 -37 23 -86 46 -110 52 -48 12 -275 159 -337 218 -22 21 -54 45 -72 54 -17
9 -53 34 -79 57 -26 22 -78 61 -116 86 -68 45 -118 102 -118 134 0 10 -18 31
-40 49 -22 17 -52 54 -67 82 -15 28 -36 55 -45 60 -10 4 -26 12 -35 16 -9 5
-20 21 -24 36 -4 14 -21 42 -38 61 -54 61 -102 146 -127 222 -13 40 -35 90
-49 111 -19 29 -26 56 -31 123 l-7 85 32 27 c18 15 41 27 50 27 32 0 71 39 71
70 0 67 -110 93 -195 47z"/>
</g>
</svg>
