<?xml version="1.0" standalone="no"?>
<!DOCTYPE svg PUBLIC "-//W3C//DTD SVG 20010904//EN"
 "http://www.w3.org/TR/2001/REC-SVG-20010904/DTD/svg10.dtd">
<svg version="1.0" xmlns="http://www.w3.org/2000/svg"
 width="507.000000pt" height="441.000000pt" viewBox="0 0 507.000000 441.000000"
 preserveAspectRatio="xMidYMid meet">
<metadata>
Created by potrace 1.16, written by Peter Selinger 2001-2019
</metadata>
<g transform="translate(0.000000,441.000000) scale(0.100000,-0.100000)"
fill="#000000" stroke="none">
<path d="M2156 4369 c-49 -43 -86 -103 -86 -139 0 -33 36 -94 75 -128 l36 -32
69 0 70 0 39 36 c39 34 71 108 71 162 0 25 -102 122 -129 122 -11 0 -23 5 -26
10 -3 6 -21 10 -39 10 -25 0 -45 -11 -80 -41z"/>
<path d="M2145 3743 c-97 -37 -115 -48 -157 -92 -27 -27 -50 -63 -57 -88 l-12
-42 35 -69 c45 -90 188 -227 291 -279 38 -20 83 -46 100 -58 49 -37 172 -95
202 -95 16 0 48 -14 73 -30 25 -16 52 -30 60 -30 8 0 35 -14 60 -30 25 -16 56
-30 69 -30 13 0 126 -33 250 -74 288 -94 298 -97 406 -105 50 -4 100 -12 112
-19 12 -7 55 -12 96 -12 l74 0 39 -29 c47 -34 163 -154 190 -196 28 -44 101
-134 147 -180 72 -73 149 -169 173 -218 14 -26 53 -90 89 -142 35 -53 67 -110
70 -128 9 -40 39 -99 76 -152 29 -42 79 -174 79 -212 0 -11 13 -50 30 -85 16
-34 30 -75 30 -89 0 -15 6 -42 14 -60 20 -52 29 -211 12 -234 l-14 -19 -63 27
-64 27 -88 0 -88 0 -47 -24 c-26 -13 -59 -37 -74 -53 -41 -44 -68 -138 -68
-238 0 -94 9 -120 80 -224 50 -73 77 -97 125 -113 62 -20 55 -47 -20 -74 -33
-12 -72 -23 -86 -23 -15 -1 -43 -8 -62 -16 -25 -10 -72 -15 -150 -15 -79 0
-126 -5 -150 -15 -21 -8 -67 -15 -105 -15 -39 0 -85 -7 -105 -15 -52 -21 -362
-21 -414 0 -23 10 -69 15 -135 15 -65 0 -111 5 -135 15 -19 8 -65 15 -102 15
-69 0 -216 43 -329 95 -29 14 -69 25 -90 25 -63 0 -231 65 -296 115 -17 13
-67 35 -111 50 -155 50 -174 65 -156 124 6 21 11 65 11 97 l0 59 -30 45 c-16
25 -30 53 -30 62 0 58 -205 198 -290 198 -50 0 -155 -34 -195 -64 -42 -31 -99
-56 -127 -56 -24 0 -65 20 -159 78 -30 18 -65 35 -79 38 -14 4 -38 19 -55 34
-16 15 -45 35 -64 45 -19 9 -52 30 -74 46 -22 16 -47 29 -54 29 -21 0 -82 29
-118 56 -37 28 -230 124 -248 124 -7 0 -24 12 -38 26 -44 48 -255 144 -316
144 -33 0 -83 -69 -83 -115 l0 -36 58 -57 c81 -81 149 -168 182 -232 15 -30
38 -64 50 -75 12 -11 34 -40 48 -65 14 -25 51 -72 82 -105 31 -33 65 -73 75
-90 50 -81 145 -155 198 -155 29 0 57 29 57 57 0 29 -83 150 -171 248 -14 17
-29 41 -32 55 -4 14 -24 55 -47 92 -36 60 -44 98 -19 98 18 0 68 -28 149 -82
47 -32 91 -58 98 -58 13 0 100 -48 202 -113 30 -19 71 -43 90 -52 19 -10 56
-35 82 -56 25 -21 79 -55 120 -75 40 -20 94 -54 120 -75 26 -22 93 -63 150
-91 57 -28 117 -61 133 -74 17 -12 65 -34 108 -48 43 -14 90 -34 105 -45 36
-25 169 -91 184 -91 6 0 81 -34 165 -75 85 -41 165 -75 179 -75 13 0 41 -7 61
-15 19 -8 47 -15 60 -15 14 0 54 -13 90 -30 35 -16 74 -30 87 -30 12 0 60 -13
106 -30 47 -16 102 -30 123 -30 21 0 54 -7 74 -15 25 -10 71 -15 154 -15 68 0
120 -4 124 -10 8 -14 492 -14 500 0 4 6 81 10 199 10 149 0 202 3 229 15 20 8
54 15 76 15 22 0 64 11 93 25 29 13 87 36 129 49 41 14 101 36 132 50 30 14
63 26 72 26 10 0 55 37 101 83 l83 83 32 99 32 99 -12 43 c-15 58 -14 97 4
140 18 43 22 352 4 384 -6 11 -14 41 -19 67 -18 95 -63 249 -86 293 -28 56
-64 174 -64 215 0 32 -6 46 -30 69 -36 34 -90 116 -90 135 0 26 -211 330 -255
366 -24 21 -55 59 -70 86 -15 27 -40 59 -57 71 -16 12 -42 42 -56 67 -14 25
-44 66 -65 92 -21 26 -36 51 -32 57 3 6 21 11 39 11 19 0 50 7 69 15 23 9 69
15 122 15 48 0 95 5 106 11 11 6 41 14 67 19 140 26 243 61 284 97 20 18 55
41 78 53 22 11 51 38 65 59 13 22 37 54 53 73 40 45 72 111 72 147 0 16 4 33
10 36 6 3 10 35 10 70 l0 63 -54 57 -53 57 -29 -4 c-35 -4 -78 -62 -69 -93 4
-11 9 -48 12 -82 l5 -61 -24 -54 c-30 -64 -141 -180 -206 -215 -26 -14 -67
-29 -92 -33 -55 -11 -120 -27 -180 -46 -52 -16 -422 -20 -463 -5 -13 5 -44 27
-69 48 -56 48 -168 136 -182 144 -6 3 -20 10 -31 16 -11 5 -22 21 -25 34 -3
13 -20 33 -38 44 -98 61 -291 191 -320 216 -18 16 -41 29 -51 29 -19 0 -125
73 -150 103 -7 9 -21 17 -30 17 -9 0 -33 11 -53 25 -20 14 -70 41 -110 62 -40
20 -90 49 -112 64 -28 21 -51 29 -80 29 -22 0 -81 13 -131 29 -148 48 -176 54
-265 57 -59 2 -97 -2 -125 -13z m282 -168 c19 -8 45 -15 57 -15 33 0 134 -38
175 -66 19 -13 49 -24 64 -24 20 0 44 -13 75 -41 56 -50 133 -95 184 -109 20
-6 61 -32 90 -59 29 -26 76 -60 104 -74 28 -14 75 -48 105 -74 30 -27 74 -62
98 -78 23 -16 59 -48 78 -72 l35 -43 -12 -15 c-16 -19 -71 -19 -117 0 -19 8
-59 15 -87 15 -49 0 -164 33 -224 64 -16 8 -85 33 -153 56 -143 47 -211 77
-270 120 -25 18 -55 30 -73 30 -48 1 -157 62 -254 144 -24 20 -52 36 -62 36
-26 0 -102 105 -104 144 l-1 31 45 23 c54 27 189 31 247 7z m-744 -2717 c15
-18 37 -42 47 -53 21 -22 26 -50 10 -60 -5 -3 -48 12 -95 35 -48 22 -90 40
-94 40 -5 0 -14 7 -21 15 l-12 15 13 16 c37 45 110 41 152 -8z m2895 -74 c29
-20 72 -105 72 -142 0 -15 -14 -49 -30 -76 l-30 -47 -62 3 c-42 2 -63 8 -68
18 -5 8 -22 48 -40 87 -34 77 -33 95 2 146 l19 27 57 0 c36 0 66 -6 80 -16z"/>
</g>
</svg>
