<?xml version="1.0" standalone="no"?>
<!DOCTYPE svg PUBLIC "-//W3C//DTD SVG 20010904//EN"
 "http://www.w3.org/TR/2001/REC-SVG-20010904/DTD/svg10.dtd">
<svg version="1.0" xmlns="http://www.w3.org/2000/svg"
 width="822.000000pt" height="72.000000pt" viewBox="0 0 822.000000 72.000000"
 preserveAspectRatio="xMidYMid meet">
<metadata>
Created by potrace 1.16, written by Peter Selinger 2001-2019
</metadata>
<g transform="translate(0.000000,72.000000) scale(0.100000,-0.100000)"
fill="#000000" stroke="none">
<path d="M13 693 c-37 -79 -10 -118 276 -401 315 -312 290 -292 357 -292 l54
0 0 51 0 51 -72 75 c-40 42 -90 86 -110 99 -21 13 -53 48 -72 78 -19 30 -50
72 -69 93 -49 55 -61 81 -46 99 15 19 99 18 146 -1 20 -8 66 -15 105 -15 38 0
84 -7 105 -15 22 -9 67 -15 120 -15 48 0 97 -6 117 -14 23 -10 82 -14 207 -14
137 0 184 -4 213 -16 21 -9 62 -16 90 -16 32 0 84 -11 136 -30 47 -16 94 -30
105 -30 26 0 153 -43 204 -69 22 -12 59 -21 81 -21 22 0 57 -7 77 -15 19 -8
59 -15 87 -15 28 0 71 -6 96 -14 58 -18 124 -35 175 -45 22 -4 56 -12 75 -18
107 -34 135 -37 359 -40 l234 -4 38 26 c42 28 111 54 174 66 117 23 237 61
336 108 56 27 100 41 126 41 22 0 57 7 76 15 l36 15 274 0 273 0 84 -30 c47
-16 96 -30 108 -30 13 0 53 -14 89 -30 35 -17 69 -30 75 -30 17 0 81 -32 122
-62 45 -32 110 -38 167 -14 19 7 84 16 145 19 61 4 123 11 138 17 16 6 133 10
287 10 l260 0 36 -15 c27 -12 80 -15 237 -15 l202 0 88 -31 89 -31 53 7 c42 5
63 2 100 -14 26 -12 57 -21 71 -21 13 0 40 -7 60 -15 20 -8 66 -15 105 -15 38
0 84 -7 105 -15 19 -8 60 -15 90 -15 29 0 70 -7 90 -15 50 -21 286 -21 336 0
20 8 61 15 90 15 30 0 71 7 90 15 20 8 59 15 87 15 72 0 162 33 228 85 112 87
124 99 147 146 14 26 29 50 35 54 13 8 13 215 0 215 -5 0 -29 20 -53 45 l-45
45 -47 0 c-87 0 -105 -29 -60 -96 31 -45 32 -87 4 -171 -23 -67 -53 -105 -103
-128 -53 -24 -149 -55 -172 -55 -12 0 -38 -7 -57 -15 -20 -8 -54 -15 -75 -15
-22 0 -56 -7 -75 -15 -49 -20 -215 -20 -264 0 -22 9 -67 15 -117 15 -65 0 -99
6 -166 30 -47 16 -102 30 -123 30 -21 0 -54 7 -74 15 -19 8 -47 15 -62 15 -16
0 -63 24 -116 60 -97 64 -126 71 -188 45 l-36 -15 -456 0 -456 0 -36 15 c-45
19 -81 19 -126 0 -49 -20 -215 -20 -264 0 -19 8 -53 15 -75 15 -21 0 -55 7
-75 15 -19 8 -52 15 -71 15 -20 0 -96 20 -169 45 -73 25 -148 45 -167 45 -20
0 -53 7 -74 15 l-38 16 -260 -4 c-173 -2 -274 -8 -304 -16 -126 -36 -172 -52
-223 -75 -31 -14 -72 -26 -92 -26 -39 0 -125 -27 -209 -65 -30 -14 -73 -25
-95 -25 -23 0 -67 -12 -104 -30 l-65 -30 -229 0 c-169 0 -240 4 -273 14 -76
24 -133 37 -190 45 -30 4 -91 19 -135 33 -123 40 -164 50 -240 57 l-70 6 -77
52 c-42 28 -91 60 -110 70 l-33 18 -260 7 c-143 4 -269 7 -280 8 -11 1 -43 -2
-70 -5 -36 -5 -61 -3 -89 9 -21 9 -63 16 -93 16 -29 0 -70 7 -90 15 -22 9 -67
15 -120 15 -52 0 -97 6 -120 15 -24 10 -70 15 -139 15 -58 0 -106 4 -109 10
-4 6 -61 10 -138 10 l-132 0 -12 -27z"/>
</g>
</svg>
