<?xml version="1.0" standalone="no"?>
<!DOCTYPE svg PUBLIC "-//W3C//DTD SVG 20010904//EN"
 "http://www.w3.org/TR/2001/REC-SVG-20010904/DTD/svg10.dtd">
<svg version="1.0" xmlns="http://www.w3.org/2000/svg"
 width="588.000000pt" height="126.000000pt" viewBox="0 0 588.000000 126.000000"
 preserveAspectRatio="xMidYMid meet">
<metadata>
Created by potrace 1.16, written by Peter Selinger 2001-2019
</metadata>
<g transform="translate(0.000000,126.000000) scale(0.100000,-0.100000)"
fill="#000000" stroke="none">
<path d="M180 1251 c-8 -4 -31 -16 -50 -25 -20 -9 -57 -35 -83 -57 l-47 -41 0
-120 0 -120 82 -90 c46 -49 106 -105 134 -124 28 -19 72 -52 97 -74 25 -22 50
-40 57 -40 16 0 78 -30 119 -57 19 -13 42 -23 52 -23 10 0 47 -16 82 -35 35
-19 76 -35 91 -35 14 0 43 -7 63 -15 19 -8 47 -15 61 -15 14 0 55 -13 91 -29
95 -41 170 -71 219 -88 26 -10 54 -30 73 -54 36 -45 62 -49 140 -22 l48 17 98
-31 c133 -42 178 -53 248 -62 34 -5 70 -13 82 -19 12 -7 54 -12 93 -12 40 0
86 -6 107 -15 22 -9 67 -15 120 -15 52 0 97 -6 120 -15 22 -9 68 -15 124 -15
48 0 91 -5 94 -10 8 -13 252 -13 260 0 4 6 126 10 334 10 l329 0 35 15 c24 10
70 15 135 15 66 0 112 5 135 15 22 9 68 15 117 15 82 0 161 20 239 60 20 10
54 23 76 29 22 6 65 26 95 45 30 19 73 45 95 57 22 11 58 41 81 65 l41 44 72
0 c56 0 85 -6 127 -25 35 -16 64 -23 79 -19 14 3 60 -5 107 -19 46 -13 103
-30 128 -38 28 -8 121 -14 244 -16 l199 -4 39 16 c21 8 58 15 81 15 l44 0 63
47 c67 51 157 138 202 196 l28 35 0 113 -1 114 -68 73 c-73 77 -103 89 -134
54 -23 -25 -22 -119 0 -183 l17 -48 -19 -58 c-24 -73 -80 -133 -161 -173 l-61
-30 -259 0 -259 0 -73 25 c-41 14 -90 25 -109 25 -39 0 -115 41 -138 73 -9 13
-15 44 -15 78 0 31 -7 73 -15 92 -8 20 -15 48 -15 62 0 115 -225 305 -360 305
l-51 0 -41 -38 -40 -38 -10 -55 c-24 -127 6 -232 81 -286 22 -15 54 -49 71
-76 17 -26 42 -54 55 -63 13 -8 26 -22 29 -31 10 -24 -37 -87 -86 -118 -117
-73 -179 -105 -203 -105 -15 0 -36 -5 -48 -12 -12 -6 -48 -14 -82 -19 -62 -8
-117 -20 -195 -45 -25 -8 -82 -14 -126 -14 -50 0 -95 -6 -117 -15 l-36 -15
-324 0 -325 0 -35 -15 c-51 -21 -303 -21 -354 0 -19 8 -53 15 -75 15 -21 0
-55 7 -75 15 -19 8 -53 15 -75 15 -21 0 -55 7 -75 15 -19 8 -53 15 -75 15 -21
0 -55 7 -75 15 -19 8 -60 15 -90 15 -29 0 -70 7 -90 15 -20 8 -66 15 -105 15
-73 0 -138 22 -170 57 -29 31 -48 90 -48 143 0 50 -27 145 -57 203 -39 77
-212 273 -275 313 -20 13 -70 53 -112 89 -41 36 -80 65 -86 65 -6 0 -36 11
-66 25 -30 14 -83 34 -117 45 -34 11 -70 25 -79 30 -23 13 -105 13 -113 0 -3
-5 -19 -10 -35 -10 -16 0 -32 5 -35 10 -7 12 -243 13 -265 1z m360 -132 c66 0
166 -37 222 -82 29 -23 87 -65 129 -93 122 -82 139 -96 168 -144 15 -25 44
-57 64 -70 20 -14 43 -38 51 -55 76 -160 92 -228 60 -259 -8 -9 -16 -16 -18
-16 -1 0 -40 13 -86 30 -47 16 -96 30 -110 30 -14 0 -41 11 -61 24 -40 27
-236 96 -273 96 -13 0 -48 18 -77 40 -30 22 -63 40 -74 40 -11 0 -30 6 -41 14
-11 8 -48 28 -82 46 -77 39 -237 195 -247 240 -15 69 18 124 91 151 l49 18
100 -5 c55 -2 116 -4 135 -5z m3762 -253 c44 -19 52 -29 77 -99 19 -57 19 -87
-1 -87 -22 0 -107 72 -122 104 -17 37 -20 55 -10 80 8 20 13 20 56 2z"/>
</g>
</svg>
