<?xml version="1.0" standalone="no"?>
<!DOCTYPE svg PUBLIC "-//W3C//DTD SVG 20010904//EN"
 "http://www.w3.org/TR/2001/REC-SVG-20010904/DTD/svg10.dtd">
<svg version="1.0" xmlns="http://www.w3.org/2000/svg"
 width="675.000000pt" height="411.000000pt" viewBox="0 0 675.000000 411.000000"
 preserveAspectRatio="xMidYMid meet">
<metadata>
Created by potrace 1.16, written by Peter Selinger 2001-2019
</metadata>
<g transform="translate(0.000000,411.000000) scale(0.100000,-0.100000)"
fill="#000000" stroke="none">
<path d="M515 4100 c-3 -6 -50 -10 -106 -10 -159 0 -262 -42 -353 -141 l-56
-62 0 -167 0 -166 39 -38 c21 -21 41 -50 44 -65 3 -16 24 -42 47 -62 23 -19
63 -55 89 -80 28 -29 82 -65 141 -94 52 -26 108 -58 125 -70 46 -35 111 -65
140 -65 15 0 56 -13 92 -30 35 -16 70 -30 76 -30 7 0 26 -9 42 -21 64 -43 125
-69 165 -69 22 0 57 -7 77 -15 19 -8 51 -15 71 -15 19 0 97 -20 171 -44 148
-48 201 -63 273 -76 26 -5 56 -13 67 -19 11 -6 57 -11 103 -11 46 0 103 -6
128 -14 87 -28 136 -38 210 -45 41 -4 85 -13 97 -19 12 -7 53 -12 92 -12 38 0
82 -5 98 -12 24 -10 233 -29 298 -27 11 0 117 2 237 5 l216 5 37 -15 c48 -21
142 -20 190 0 31 12 61 15 149 10 145 -7 134 -7 261 2 61 5 123 14 138 20 16
7 59 12 96 12 38 0 84 7 104 15 20 8 55 15 77 15 23 0 50 5 61 11 11 6 41 14
67 19 95 18 225 57 332 100 52 21 74 31 138 64 15 8 43 20 62 27 19 7 56 35
82 61 58 60 74 61 187 7 93 -44 190 -79 218 -79 9 0 58 -13 108 -29 134 -43
172 -52 255 -60 41 -4 85 -13 97 -19 15 -8 98 -12 273 -12 l251 0 61 21 c33
11 77 31 97 45 19 13 42 24 50 24 22 0 145 85 175 121 14 17 26 39 26 49 0 10
5 22 10 25 6 4 10 61 10 139 l0 132 -56 19 c-40 14 -60 16 -72 9 -29 -19 -83
-106 -76 -123 4 -9 9 -44 12 -79 l4 -63 -62 -57 c-99 -90 -104 -92 -201 -92
-54 0 -100 -6 -122 -15 -44 -18 -155 -20 -194 -3 -15 7 -73 15 -128 19 -159
11 -297 30 -334 45 -18 8 -45 14 -60 14 -14 0 -46 14 -71 30 -33 22 -57 30
-89 30 -52 0 -182 58 -206 92 -10 15 -15 46 -15 95 l0 73 -40 80 c-31 62 -49
86 -82 106 -23 15 -62 46 -87 69 -53 49 -82 65 -169 94 -80 27 -107 26 -167
-7 -37 -20 -57 -40 -77 -77 -32 -59 -34 -90 -9 -165 l19 -55 56 -38 c34 -22
56 -45 56 -56 0 -22 22 -42 78 -70 45 -23 122 -95 122 -115 0 -39 -165 -146
-224 -146 -13 0 -54 -13 -89 -30 -36 -16 -76 -30 -89 -30 -12 0 -61 -14 -108
-30 -46 -17 -101 -30 -121 -30 -20 0 -53 -7 -72 -15 -28 -11 -78 -15 -210 -15
-133 0 -183 -4 -210 -15 l-36 -15 -336 0 -336 0 -36 15 c-19 8 -55 15 -78 15
-23 0 -59 -7 -78 -15 -46 -19 -98 -19 -144 0 -26 11 -76 15 -195 15 -118 0
-168 4 -195 15 -19 8 -59 15 -87 15 -28 0 -71 6 -96 14 -78 25 -133 37 -195
45 -34 5 -70 13 -82 19 -12 7 -40 12 -63 12 -22 0 -57 7 -77 15 -19 8 -53 15
-75 15 -21 0 -55 7 -75 15 -19 8 -47 15 -61 15 -32 0 -172 69 -172 84 0 6 7
20 15 30 8 11 15 32 15 48 0 15 7 46 17 69 l16 41 -16 47 c-10 25 -17 63 -17
84 0 36 -27 100 -69 162 -12 17 -21 44 -21 62 l0 31 -171 176 c-106 109 -181
179 -198 183 -14 3 -55 24 -91 45 -36 22 -77 42 -93 45 -15 3 -30 10 -33 14
-7 12 -71 11 -79 -1z m17 -169 c76 -10 123 -35 162 -86 15 -19 39 -38 54 -41
32 -8 205 -181 232 -233 10 -20 30 -51 44 -70 14 -19 30 -50 37 -70 6 -20 22
-63 36 -97 l25 -61 -17 -55 c-16 -57 -51 -102 -86 -113 -12 -4 -55 11 -115 39
-53 25 -100 46 -106 46 -5 0 -34 11 -64 25 -74 34 -168 65 -197 65 -30 0 -199
124 -235 173 -8 10 -32 39 -54 65 -57 65 -88 135 -88 199 l0 52 75 76 c51 50
84 75 99 75 13 0 39 7 57 15 19 8 43 12 54 9 11 -3 50 -9 87 -13z m4249 -513
c82 -83 103 -116 93 -143 -9 -23 -22 -19 -73 23 -25 20 -63 46 -84 56 -63 32
-101 101 -72 130 29 29 53 17 136 -66z"/>
<path d="M819 2775 c-25 -13 -60 -40 -77 -60 l-32 -36 0 -60 c0 -69 22 -140
80 -259 22 -46 40 -90 40 -97 0 -31 69 -144 143 -235 19 -24 46 -66 61 -95 14
-29 40 -63 57 -75 17 -13 40 -39 51 -58 12 -19 36 -51 53 -70 18 -19 51 -63
74 -97 23 -34 57 -70 76 -81 18 -11 41 -33 51 -49 22 -35 220 -231 266 -262
18 -13 46 -41 61 -62 15 -21 51 -51 80 -66 32 -17 62 -44 80 -71 16 -24 46
-52 70 -63 22 -12 66 -48 96 -80 36 -38 70 -63 96 -71 26 -9 47 -24 62 -48 12
-19 32 -48 44 -63 12 -15 19 -31 15 -34 -10 -10 -97 18 -183 58 -44 21 -136
56 -203 79 -67 22 -134 49 -149 59 -41 30 -145 61 -201 61 -64 0 -169 -34
-195 -64 -12 -12 -27 -48 -34 -79 l-14 -56 13 -30 c19 -46 183 -207 218 -214
16 -3 54 -28 84 -56 55 -50 146 -91 203 -91 29 0 96 31 111 52 5 7 18 38 28
70 l19 56 -12 33 -11 33 14 14 14 14 88 -42 c49 -23 122 -52 161 -65 40 -13
90 -36 110 -50 21 -14 44 -25 53 -25 8 0 57 -20 108 -45 52 -25 99 -45 105
-45 7 0 32 -14 57 -30 25 -17 58 -30 75 -30 17 0 47 -11 68 -25 20 -14 72 -44
114 -66 43 -22 103 -56 133 -75 30 -19 66 -37 80 -41 36 -8 110 -42 142 -64
20 -15 43 -19 100 -19 l73 1 23 35 c12 20 22 43 22 53 0 26 -216 191 -250 191
-9 0 -51 24 -95 53 -44 29 -101 65 -126 79 -25 15 -58 43 -73 62 -15 20 -39
39 -54 42 -51 12 -192 84 -230 118 -20 18 -55 43 -77 54 -51 28 -65 39 -100
85 -15 21 -50 49 -77 63 -26 13 -78 52 -115 87 -38 34 -86 75 -108 89 -22 15
-62 50 -90 78 -31 31 -64 54 -87 61 -22 5 -45 21 -55 36 -10 15 -38 46 -63 70
-86 83 -105 102 -139 143 -18 22 -47 44 -64 48 -30 8 -36 14 -56 64 -5 15 -28
39 -50 52 -52 33 -78 61 -106 117 -13 25 -41 59 -62 74 -48 37 -56 46 -98 125
-19 36 -58 92 -86 124 -28 33 -63 84 -79 115 -15 31 -40 67 -54 80 -14 14 -26
31 -26 38 0 8 -11 35 -24 61 -13 26 -29 65 -35 87 -6 22 -27 67 -47 100 l-36
60 12 34 c7 19 26 53 41 74 34 47 39 105 11 130 -28 25 -107 21 -163 -8z m858
-2080 c19 -8 45 -15 57 -15 11 0 27 -4 35 -9 l13 -9 -17 -51 c-9 -28 -21 -51
-27 -51 -25 0 -148 108 -148 130 0 22 41 24 87 5z"/>
</g>
</svg>
