<?xml version="1.0" standalone="no"?>
<!DOCTYPE svg PUBLIC "-//W3C//DTD SVG 20010904//EN"
 "http://www.w3.org/TR/2001/REC-SVG-20010904/DTD/svg10.dtd">
<svg version="1.0" xmlns="http://www.w3.org/2000/svg"
 width="1113.000000pt" height="195.000000pt" viewBox="0 0 1113.000000 195.000000"
 preserveAspectRatio="xMidYMid meet">
<metadata>
Created by potrace 1.16, written by Peter Selinger 2001-2019
</metadata>
<g transform="translate(0.000000,195.000000) scale(0.100000,-0.100000)"
fill="#000000" stroke="none">
<path d="M3618 1923 c-14 -16 -42 -60 -61 -98 -19 -39 -47 -83 -63 -98 -26
-27 -101 -67 -123 -67 -5 0 -39 -13 -74 -30 -36 -16 -77 -30 -91 -30 -14 0
-49 -11 -78 -24 -100 -47 -170 -66 -239 -66 -37 0 -83 -7 -102 -15 -20 -8 -54
-15 -75 -15 -22 0 -56 -7 -75 -15 -20 -8 -54 -15 -75 -15 -22 0 -56 -7 -75
-15 l-36 -15 -426 0 -426 0 -36 15 c-22 9 -67 15 -120 15 -52 0 -97 6 -120 15
-19 8 -59 15 -87 15 -32 0 -84 11 -136 30 l-85 30 -113 0 c-77 0 -124 5 -149
15 -19 8 -47 15 -60 15 -14 0 -54 13 -90 30 -35 17 -69 30 -75 30 -5 0 -39 14
-75 30 -35 17 -69 30 -75 30 -18 0 -138 59 -171 84 -36 27 -143 66 -182 66
l-25 0 0 -70 c0 -49 4 -70 13 -70 18 0 161 -80 247 -137 48 -32 153 -73 187
-73 23 0 152 -44 194 -65 61 -32 125 -47 214 -50 54 -1 105 -9 129 -19 23 -9
66 -16 108 -16 38 0 84 -7 105 -15 23 -10 69 -15 135 -15 65 0 111 -5 135 -15
24 -10 71 -15 150 -15 77 0 125 -5 148 -15 42 -17 332 -14 378 4 16 6 91 11
171 11 105 0 153 4 179 15 24 10 70 15 135 15 66 0 112 5 135 15 25 10 70 15
140 15 l103 0 29 30 c16 17 39 30 52 30 13 0 83 20 156 45 73 25 141 45 150
45 31 0 141 41 172 64 38 28 91 52 132 59 l33 6 41 -52 c23 -28 59 -70 80 -92
59 -60 130 -132 164 -164 17 -16 41 -43 54 -61 13 -17 41 -42 62 -56 22 -13
50 -42 63 -63 15 -23 46 -50 79 -69 29 -16 61 -42 70 -56 9 -14 56 -51 103
-82 48 -32 101 -69 118 -84 34 -30 167 -100 189 -100 7 0 24 -12 38 -26 23
-25 207 -124 230 -124 7 0 51 -18 98 -41 110 -52 191 -79 236 -79 20 0 52 -7
72 -15 19 -8 47 -15 60 -15 14 0 54 -13 90 -30 35 -16 75 -30 89 -30 14 0 41
-7 61 -15 19 -8 53 -15 75 -15 21 0 55 -7 75 -15 49 -21 227 -21 276 0 47 19
157 19 204 0 19 -8 45 -15 57 -15 33 0 134 -38 175 -66 19 -13 42 -24 51 -24
8 0 44 -14 78 -30 35 -17 75 -30 88 -30 14 0 41 -7 61 -15 19 -8 54 -15 77
-15 29 0 54 -9 86 -30 l45 -30 133 0 c95 0 143 -4 169 -15 19 -8 53 -15 75
-15 21 0 55 -7 75 -15 27 -12 80 -15 229 -15 118 0 195 -4 199 -10 8 -13 252
-13 260 0 4 6 81 10 199 10 149 0 202 3 229 15 21 9 67 15 107 15 39 0 80 5
91 11 11 6 41 14 67 19 57 11 122 27 182 46 25 8 61 14 81 14 20 0 53 7 72 15
20 8 49 15 65 15 30 0 83 34 160 100 24 21 61 43 86 49 32 8 53 21 75 50 66
83 208 124 298 86 19 -8 45 -15 56 -15 12 0 62 -13 112 -29 122 -39 170 -51
240 -60 34 -5 71 -14 84 -21 16 -8 47 -10 100 -6 42 4 103 8 136 10 130 7 177
23 285 97 66 45 75 55 129 134 27 39 41 71 41 92 0 17 5 35 10 38 15 10 12 61
-5 75 -9 7 -40 51 -71 96 -59 91 -75 104 -127 104 -92 0 -92 -112 1 -253 l25
-37 -11 -25 c-15 -33 -79 -103 -126 -137 l-39 -28 -234 0 c-185 0 -241 3 -270
15 -19 8 -45 15 -57 15 -33 0 -181 53 -276 100 -11 5 -16 32 -20 108 l-5 101
-45 46 c-25 26 -67 58 -95 72 -27 14 -63 36 -80 48 -16 13 -49 32 -72 44 l-42
21 -96 0 -97 0 -29 -29 -29 -29 0 -67 c0 -97 55 -195 110 -195 8 0 34 -23 58
-50 24 -28 60 -58 80 -68 19 -9 37 -22 39 -28 4 -14 -72 -92 -151 -157 -83
-67 -277 -157 -341 -157 -11 0 -58 -14 -105 -30 -46 -17 -94 -30 -106 -30 -12
0 -38 -7 -57 -15 -25 -10 -72 -15 -150 -15 -79 0 -126 -5 -150 -15 l-36 -15
-336 0 -336 0 -36 15 c-26 11 -76 15 -195 15 -118 0 -168 4 -195 15 -23 10
-69 15 -135 15 -65 0 -111 5 -135 15 -19 8 -45 15 -57 15 -12 0 -60 13 -106
30 -47 16 -94 30 -104 30 -37 0 -242 74 -331 119 l-90 46 4 78 3 79 -36 52
c-34 50 -102 109 -208 183 -47 33 -151 73 -188 73 -26 0 -141 -38 -158 -53
-30 -24 -62 -106 -62 -158 l0 -51 81 -83 c45 -46 78 -88 74 -94 -3 -6 -36 -11
-71 -11 -52 0 -79 6 -131 30 -38 18 -81 30 -105 30 -23 0 -67 12 -105 30 -35
16 -74 30 -86 30 -12 0 -42 6 -67 14 -56 18 -122 35 -175 45 -22 5 -67 25
-100 45 -33 20 -76 41 -96 46 -48 13 -67 24 -161 87 -86 58 -150 93 -171 93
-7 0 -24 12 -38 26 -13 14 -55 46 -94 72 -38 25 -104 78 -145 117 -41 39 -91
82 -111 95 -21 13 -50 45 -67 70 -17 25 -50 59 -75 74 -24 16 -57 49 -73 74
-16 24 -45 55 -65 68 -40 25 -104 116 -168 239 -22 44 -59 101 -82 128 l-41
47 -47 0 -47 0 -26 -27z m6032 -1108 l33 -34 -16 -7 c-16 -6 -97 50 -97 68 0
21 49 5 80 -27z m-3534 -97 c41 -33 83 -81 84 -95 0 -32 -116 8 -144 49 -20
28 -20 33 0 52 20 21 26 20 60 -6z"/>
</g>
</svg>
