<?xml version="1.0" standalone="no"?>
<!DOCTYPE svg PUBLIC "-//W3C//DTD SVG 20010904//EN"
 "http://www.w3.org/TR/2001/REC-SVG-20010904/DTD/svg10.dtd">
<svg version="1.0" xmlns="http://www.w3.org/2000/svg"
 width="504.000000pt" height="321.000000pt" viewBox="0 0 504.000000 321.000000"
 preserveAspectRatio="xMidYMid meet">
<metadata>
Created by potrace 1.16, written by Peter Selinger 2001-2019
</metadata>
<g transform="translate(0.000000,321.000000) scale(0.100000,-0.100000)"
fill="#000000" stroke="none">
<path d="M3288 3183 c-35 -38 -58 -86 -58 -123 0 -38 59 -157 94 -189 14 -14
26 -33 26 -43 0 -16 32 -43 148 -123 12 -9 22 -21 22 -28 0 -7 -38 -29 -84
-50 l-84 -37 -100 0 c-66 0 -112 -5 -135 -15 -21 -8 -67 -15 -105 -15 -39 0
-85 -7 -105 -15 -26 -11 -73 -15 -165 -15 -88 0 -140 -4 -163 -14 -25 -10
-115 -16 -344 -20 -368 -8 -334 -8 -515 2 -81 4 -155 13 -167 20 -12 6 -47 12
-78 12 -30 0 -72 7 -92 15 -20 8 -66 15 -105 15 -38 0 -84 7 -105 15 -23 10
-69 15 -132 15 l-97 0 -84 30 c-47 16 -96 30 -110 30 -14 0 -45 14 -70 30 -32
22 -57 30 -88 30 -23 0 -59 7 -79 15 -19 8 -46 15 -60 15 -34 0 -170 85 -219
136 l-40 44 -59 0 -58 0 -39 -42 -38 -41 0 -75 c0 -56 4 -80 19 -100 10 -15
23 -43 29 -63 5 -20 35 -73 66 -119 31 -45 68 -104 81 -130 13 -26 46 -67 73
-91 27 -24 52 -56 56 -70 3 -15 24 -42 46 -60 56 -46 100 -91 129 -129 13 -17
41 -42 62 -56 22 -13 50 -42 64 -64 14 -22 39 -47 56 -56 17 -8 68 -51 113
-93 44 -43 90 -83 101 -89 28 -15 141 -110 194 -163 25 -26 62 -54 81 -64 19
-9 55 -34 80 -54 25 -20 58 -45 73 -54 15 -10 53 -40 83 -68 30 -27 61 -49 70
-49 9 0 39 -20 67 -45 28 -24 78 -59 111 -76 68 -36 151 -95 180 -128 11 -11
26 -21 35 -21 9 0 43 -13 77 -29 34 -16 75 -32 91 -35 17 -4 61 -27 97 -51 37
-24 87 -51 112 -61 35 -13 44 -21 42 -38 l-3 -20 -45 -4 c-43 -3 -87 -4 -190
-3 -25 1 -136 -2 -246 -5 l-202 -5 -37 15 c-27 11 -71 16 -152 16 -78 0 -125
5 -150 15 -23 10 -69 15 -135 15 -65 0 -111 5 -135 15 -23 10 -69 15 -135 15
-65 0 -111 5 -135 15 -23 10 -69 15 -130 15 l-94 0 -25 -25 c-15 -16 -23 -32
-20 -41 3 -9 9 -28 12 -42 11 -45 33 -62 81 -62 24 0 60 -7 80 -15 19 -8 47
-15 62 -15 29 0 134 -50 221 -106 30 -19 72 -39 92 -45 23 -6 47 -22 64 -44
14 -19 45 -45 68 -59 45 -27 71 -58 81 -99 5 -19 1 -29 -22 -44 -40 -28 -152
-63 -200 -63 -71 0 -94 -51 -46 -102 l27 -28 117 0 118 0 34 23 c19 12 48 30
65 39 47 25 82 103 82 181 l0 63 -60 76 c-39 49 -73 81 -99 92 -47 22 -116 90
-107 105 11 17 180 14 223 -4 24 -10 71 -15 150 -15 77 0 125 -5 148 -14 l35
-15 381 0 382 0 46 -15 c76 -24 134 -38 179 -43 l43 -5 44 45 45 44 0 39 c-1
84 -80 163 -165 164 -81 0 -242 69 -294 124 -14 14 -32 26 -41 26 -19 0 -136
58 -207 104 -29 18 -85 44 -125 57 -51 16 -88 36 -122 65 -28 24 -77 58 -110
75 -66 35 -153 96 -175 123 -8 9 -44 32 -82 52 -37 20 -80 51 -94 70 -14 19
-43 43 -65 54 -36 19 -66 42 -189 148 -30 25 -72 58 -93 72 -21 14 -89 75
-151 136 -61 60 -128 120 -148 133 -20 13 -47 40 -60 60 -13 20 -61 76 -106
124 -46 48 -83 92 -83 97 0 4 -16 28 -36 52 -75 89 -133 201 -134 256 0 16 44
15 100 -2 76 -24 133 -37 190 -45 30 -4 91 -19 135 -33 122 -40 164 -49 245
-57 41 -4 85 -13 97 -19 12 -7 54 -12 93 -12 40 0 86 -6 107 -15 25 -11 72
-15 165 -15 92 0 139 -4 165 -15 52 -22 345 -21 399 1 28 12 51 14 89 9 49 -8
162 -9 323 -5 20 0 181 4 357 8 220 5 329 11 348 20 16 6 57 12 93 12 l64 0
227 76 228 77 40 -12 c22 -7 58 -16 80 -20 22 -4 95 -26 162 -49 l123 -42 125
0 c89 0 136 -4 162 -15 19 -8 55 -15 78 -15 23 0 59 7 78 15 20 8 52 15 72 15
89 0 273 87 334 157 l41 48 -1 180 0 180 -92 43 c-51 23 -97 42 -104 42 -21 0
-82 -33 -87 -47 -3 -7 17 -42 44 -78 l50 -66 0 -87 c0 -119 -13 -138 -137
-198 l-71 -35 -174 5 c-95 3 -202 7 -238 9 -67 4 -211 47 -287 86 -23 11 -49
21 -58 21 -31 0 -65 46 -65 90 0 40 -29 139 -55 190 -7 14 -25 36 -39 49 -14
14 -26 32 -26 41 0 23 -24 42 -97 79 -34 17 -64 35 -68 41 -4 6 -51 10 -114
10 l-107 0 -26 -27z m254 -220 c13 -16 38 -67 38 -78 0 -3 -8 -5 -17 -5 -25 0
-73 50 -73 77 0 28 30 31 52 6z"/>
</g>
</svg>
