<?xml version="1.0" standalone="no"?>
<!DOCTYPE svg PUBLIC "-//W3C//DTD SVG 20010904//EN"
 "http://www.w3.org/TR/2001/REC-SVG-20010904/DTD/svg10.dtd">
<svg version="1.0" xmlns="http://www.w3.org/2000/svg"
 width="717.000000pt" height="210.000000pt" viewBox="0 0 717.000000 210.000000"
 preserveAspectRatio="xMidYMid meet">
<metadata>
Created by potrace 1.16, written by Peter Selinger 2001-2019
</metadata>
<g transform="translate(0.000000,210.000000) scale(0.100000,-0.100000)"
fill="#000000" stroke="none">
<path d="M5226 2091 c-3 -4 -18 -11 -34 -14 -40 -8 -132 -108 -132 -143 0 -15
-5 -44 -12 -65 l-11 -39 19 -56 19 -56 -20 -14 c-28 -21 -471 -20 -522 1 -24
10 -71 15 -150 15 -78 0 -125 5 -150 15 -26 11 -76 15 -195 15 -118 0 -168 4
-195 15 -27 11 -77 15 -210 15 -132 0 -182 4 -210 15 -24 10 -71 15 -150 15
-78 0 -125 5 -150 15 -27 11 -77 15 -210 15 -132 0 -182 4 -210 15 -26 11 -76
15 -195 15 -118 0 -168 4 -195 15 -26 11 -74 15 -180 15 l-145 0 -65 30 -64
30 -70 0 c-39 0 -85 7 -106 15 -26 11 -76 15 -195 15 -118 0 -168 4 -195 15
-21 9 -67 15 -115 15 l-80 0 -29 -29 -29 -29 0 -57 c0 -94 -26 -114 -107 -80
-20 8 -66 15 -105 15 -38 0 -84 7 -105 15 -19 8 -65 15 -101 15 -46 0 -94 9
-157 29 -205 66 -262 73 -326 40 -24 -12 -65 -40 -91 -62 l-48 -40 0 -143 0
-143 19 -6 c24 -7 46 -40 59 -86 12 -46 85 -153 124 -181 71 -53 88 -76 88
-112 l0 -35 55 -42 c30 -22 70 -64 89 -93 19 -29 54 -65 78 -80 24 -15 54 -43
67 -62 14 -19 44 -49 69 -67 24 -17 60 -53 79 -80 22 -30 54 -57 84 -72 26
-14 60 -41 75 -61 15 -19 44 -44 65 -54 20 -11 74 -44 119 -75 45 -31 116 -74
158 -95 42 -21 99 -57 126 -79 26 -23 56 -41 65 -41 9 0 36 -14 61 -30 25 -16
52 -30 60 -30 8 0 67 -25 130 -56 63 -30 142 -64 175 -75 33 -11 68 -24 77
-29 10 -6 43 -10 73 -10 l55 0 0 18 c0 23 -11 33 -115 104 -92 64 -147 93
-192 102 -17 4 -51 24 -75 45 -24 21 -70 52 -104 69 -34 17 -97 55 -140 85
-87 59 -155 97 -177 97 -7 0 -24 12 -38 26 -13 14 -55 47 -94 72 -38 25 -97
71 -130 102 -33 31 -79 68 -101 83 -71 48 -289 277 -318 335 -29 57 -77 122
-165 225 -29 34 -64 84 -78 111 -14 27 -40 71 -58 98 -19 27 -39 74 -46 104
l-13 57 19 13 c26 19 175 19 222 -1 20 -8 66 -15 105 -15 l70 0 65 -30 64 -30
130 0 c93 0 140 -4 166 -15 19 -8 48 -15 63 -15 15 0 46 -14 70 -32 23 -18 64
-46 91 -63 26 -16 63 -47 81 -67 18 -21 66 -54 108 -74 41 -21 89 -47 105 -59
45 -34 146 -82 222 -107 37 -11 82 -33 98 -48 38 -35 87 -60 117 -60 13 0 43
-6 68 -14 147 -46 266 -58 331 -32 22 9 57 16 80 16 55 0 125 38 182 99 l47
50 0 81 c0 62 -5 91 -21 123 -19 38 -138 161 -220 228 -55 44 -37 49 177 49
150 0 203 -3 231 -15 22 -9 67 -15 120 -15 52 0 97 -6 120 -15 28 -12 82 -15
255 -15 172 0 226 -3 255 -15 26 -11 76 -15 195 -15 118 0 168 -4 195 -15 28
-12 81 -15 242 -15 l207 0 29 -30 29 -30 358 0 359 0 36 -15 c19 -8 45 -15 57
-15 27 0 123 -32 194 -66 29 -13 64 -24 78 -24 14 0 55 -13 91 -30 35 -16 74
-30 86 -30 11 0 81 -20 154 -45 73 -25 148 -45 168 -45 20 0 52 -7 72 -15 l35
-15 280 0 279 0 61 21 c34 11 80 36 102 55 22 19 52 37 66 41 33 8 60 32 60
54 0 10 11 26 24 37 14 10 35 41 47 68 12 27 26 57 30 66 12 23 12 123 0 146
-5 9 -17 37 -27 62 -11 24 -38 70 -61 102 l-43 58 -41 0 c-31 0 -47 -6 -70
-29 -37 -38 -37 -71 1 -180 l30 -85 -22 -65 c-33 -98 -69 -129 -204 -174
l-111 -37 -137 0 c-99 0 -147 4 -173 15 -22 9 -67 15 -120 15 -52 0 -97 6
-120 15 -19 8 -45 15 -57 15 -27 0 -152 43 -205 69 -22 12 -46 21 -52 21 -22
0 -140 62 -146 76 -3 8 13 37 36 65 l41 52 0 55 0 54 -80 82 c-60 62 -98 91
-154 119 -41 20 -82 37 -90 37 -8 0 -18 5 -21 10 -8 12 -102 13 -109 1z m167
-222 l57 -40 0 -29 c0 -30 -32 -60 -78 -75 -41 -12 -100 39 -123 109 l-13 39
23 18 c36 29 72 23 134 -22z m-3743 -59 l15 -10 -15 -10 c-8 -5 -69 -10 -135
-10 -66 0 -127 5 -135 10 l-15 10 15 10 c8 5 69 10 135 10 66 0 127 -5 135
-10z m420 -125 c25 -8 61 -17 81 -20 22 -3 54 -21 86 -48 28 -24 66 -49 84
-56 70 -26 102 -47 141 -91 77 -86 97 -162 53 -205 l-24 -25 -173 0 -174 0
-59 21 c-95 32 -139 55 -187 97 -25 21 -60 44 -79 51 -63 23 -97 43 -141 81
-24 21 -56 50 -73 64 l-30 26 15 10 c8 6 26 8 40 5 14 -3 55 -9 91 -14 36 -5
75 -13 86 -20 12 -6 43 -11 69 -11 61 0 84 20 84 72 0 78 24 91 110 63z"/>
</g>
</svg>
