<?xml version="1.0" standalone="no"?>
<!DOCTYPE svg PUBLIC "-//W3C//DTD SVG 20010904//EN"
 "http://www.w3.org/TR/2001/REC-SVG-20010904/DTD/svg10.dtd">
<svg version="1.0" xmlns="http://www.w3.org/2000/svg"
 width="789.000000pt" height="108.000000pt" viewBox="0 0 789.000000 108.000000"
 preserveAspectRatio="xMidYMid meet">
<metadata>
Created by potrace 1.16, written by Peter Selinger 2001-2019
</metadata>
<g transform="translate(0.000000,108.000000) scale(0.100000,-0.100000)"
fill="#000000" stroke="none">
<path d="M5650 1072 c0 -4 -18 -29 -40 -56 -22 -26 -40 -58 -40 -70 0 -11 13
-43 28 -71 20 -37 41 -58 85 -83 31 -19 57 -39 57 -46 0 -6 -19 -19 -43 -28
l-42 -18 -226 0 c-143 0 -238 4 -259 11 -24 9 -45 9 -86 -1 l-53 -13 -43 16
c-28 11 -74 17 -126 17 -51 0 -96 6 -119 15 -25 11 -72 15 -165 15 -92 0 -139
4 -165 15 -27 12 -79 15 -225 15 -145 0 -197 3 -225 15 l-35 15 -262 0 c-197
0 -272 3 -306 14 -104 33 -142 39 -285 47 -82 4 -184 12 -225 18 -41 5 -117
10 -168 10 -58 1 -106 7 -129 16 -20 8 -66 15 -105 15 -38 0 -84 7 -105 15
-19 8 -60 15 -90 15 -29 0 -70 7 -90 15 -57 24 -100 19 -134 -15 l-30 -30 3
-42 3 -42 34 -23 c19 -13 50 -27 70 -33 20 -5 60 -21 89 -35 28 -14 64 -25 80
-25 15 0 45 -12 67 -27 22 -15 58 -30 80 -34 39 -7 125 -36 135 -45 2 -3 -2
-9 -10 -14 -23 -15 -103 -12 -143 5 -23 9 -68 15 -122 15 -54 0 -99 6 -122 15
-28 12 -84 15 -270 15 -185 0 -241 3 -270 15 -28 12 -85 15 -282 15 l-247 0
-84 30 -85 30 -98 0 c-64 0 -110 5 -134 15 -23 10 -69 15 -135 15 -65 0 -111
5 -135 15 -22 9 -67 15 -120 15 -52 0 -97 6 -120 15 -46 19 -116 19 -153 0
l-30 -16 0 -57 0 -58 28 -27 28 -27 58 0 c43 0 74 -8 123 -30 35 -16 70 -30
76 -30 6 0 68 -28 137 -62 l125 -61 72 -73 c102 -103 118 -167 56 -228 -15
-15 -46 -36 -69 -47 l-43 -19 -114 0 c-136 0 -150 -8 -115 -63 l23 -36 173 -1
c95 0 180 4 190 9 9 5 29 14 44 19 27 11 112 128 137 191 17 39 11 61 -39 143
-22 37 -40 73 -40 81 0 18 -25 40 -76 66 -49 26 -109 85 -100 100 5 7 52 11
129 11 l122 0 42 -28 42 -28 257 -3 c196 -2 266 -6 292 -17 26 -10 82 -14 224
-14 145 0 197 -3 225 -15 24 -10 71 -15 150 -15 78 0 125 -5 150 -15 22 -9 67
-15 120 -15 52 0 97 -6 120 -15 47 -20 72 -19 146 6 69 23 109 55 138 111 28
55 25 74 -21 103 -22 14 -43 25 -48 25 -16 0 -54 48 -47 59 11 18 328 14 372
-4 23 -10 69 -15 135 -15 l100 0 65 -30 64 -30 130 0 c93 0 140 -4 166 -15
l35 -15 445 0 444 0 36 -15 c19 -8 53 -15 74 -15 21 0 50 -6 66 -12 20 -9 142
-15 423 -20 217 -3 404 -7 415 -7 11 0 75 2 141 5 l122 6 316 -106 c174 -58
332 -106 352 -106 19 0 51 -7 71 -15 20 -8 66 -15 104 -15 37 0 80 -6 96 -12
25 -11 89 -15 493 -29 65 -2 165 18 220 44 30 15 63 27 73 27 9 0 51 31 93 70
41 38 86 73 100 76 l24 6 0 144 0 143 -30 16 c-39 20 -123 20 -141 -1 l-13
-16 12 -44 c17 -63 15 -165 -3 -191 -36 -51 -256 -139 -335 -134 -14 1 -131 5
-260 9 -158 5 -242 11 -257 20 -12 6 -40 12 -63 12 -22 0 -57 7 -77 15 -19 8
-60 15 -90 15 -29 0 -70 7 -90 15 -19 8 -47 15 -62 15 -14 0 -46 14 -71 30
-25 16 -51 30 -59 30 -22 0 -122 52 -128 66 -2 7 15 41 40 76 68 98 70 103 53
137 -26 49 -103 96 -221 135 -60 20 -118 41 -127 46 -21 12 -318 14 -318 2z
m287 -137 c19 -8 48 -15 63 -15 30 0 110 -53 110 -73 0 -7 -11 -29 -25 -50
l-26 -37 -42 0 c-34 0 -49 6 -70 28 -15 16 -48 39 -73 51 -56 29 -80 61 -64
90 13 26 73 28 127 6z"/>
</g>
</svg>
