<?xml version="1.0" standalone="no"?>
<!DOCTYPE svg PUBLIC "-//W3C//DTD SVG 20010904//EN"
 "http://www.w3.org/TR/2001/REC-SVG-20010904/DTD/svg10.dtd">
<svg version="1.0" xmlns="http://www.w3.org/2000/svg"
 width="984.000000pt" height="276.000000pt" viewBox="0 0 984.000000 276.000000"
 preserveAspectRatio="xMidYMid meet">
<metadata>
Created by potrace 1.16, written by Peter Selinger 2001-2019
</metadata>
<g transform="translate(0.000000,276.000000) scale(0.100000,-0.100000)"
fill="#000000" stroke="none">
<path d="M0 2710 l0 -49 32 -17 c18 -9 55 -34 81 -56 26 -22 63 -44 82 -49 21
-6 66 -39 110 -79 41 -39 82 -70 91 -70 30 0 149 -61 197 -102 26 -22 63 -44
82 -49 19 -5 58 -31 87 -57 73 -65 143 -112 181 -123 18 -5 54 -27 81 -49 26
-22 55 -40 63 -40 26 0 87 -32 135 -72 26 -21 96 -64 155 -94 60 -31 131 -70
160 -87 28 -18 66 -41 84 -52 19 -11 63 -38 100 -60 36 -22 90 -53 119 -70 28
-16 94 -58 146 -93 52 -34 116 -74 143 -87 56 -30 72 -47 91 -93 l13 -33 -23
-24 c-60 -63 -79 -239 -39 -357 11 -34 29 -78 39 -97 10 -20 23 -54 29 -76
l11 -41 117 -112 c65 -61 138 -132 163 -157 25 -25 53 -45 61 -45 9 0 35 -15
59 -32 123 -93 213 -148 241 -148 7 0 51 -18 98 -41 47 -22 113 -49 146 -60
33 -11 68 -24 77 -29 10 -6 77 -10 150 -10 l133 1 28 43 c18 30 27 57 27 85 0
51 -33 152 -66 200 -13 19 -24 41 -24 49 0 45 -63 122 -272 329 -172 172 -232
225 -263 235 -28 9 -48 25 -68 56 -19 29 -47 52 -85 71 -63 33 -172 121 -186
151 -14 31 0 48 66 81 44 22 86 34 138 39 74 8 124 19 210 46 25 8 61 14 81
14 20 0 53 7 72 15 45 19 185 20 230 2 24 -10 137 -14 466 -16 l435 -2 34 -15
c23 -9 72 -14 149 -14 78 0 125 -5 150 -15 19 -8 65 -15 102 -15 36 0 86 -6
111 -14 78 -25 133 -37 195 -45 34 -5 70 -13 82 -19 12 -7 40 -12 63 -12 22 0
57 -7 77 -15 19 -8 53 -15 75 -15 21 0 55 -7 75 -15 19 -8 53 -15 75 -15 21 0
55 -7 75 -15 19 -8 46 -15 60 -15 13 0 49 -11 79 -25 31 -14 110 -43 177 -65
142 -47 300 -122 322 -153 8 -12 15 -36 15 -55 0 -36 14 -52 110 -125 115 -87
150 -107 230 -133 45 -15 113 -42 151 -60 98 -48 181 -74 235 -74 l47 0 43 44
c27 27 44 52 44 67 0 29 -68 132 -116 176 l-35 33 11 20 11 20 117 0 117 0 45
-30 45 -30 343 0 343 0 36 -15 c19 -8 45 -15 57 -15 27 0 152 -43 205 -69 22
-12 52 -21 66 -21 14 0 42 -7 62 -15 19 -8 45 -15 57 -15 12 0 60 -13 106 -30
52 -18 105 -30 137 -30 29 0 70 -7 91 -15 l38 -16 230 4 c223 3 247 6 364 43
25 8 70 14 100 14 l55 0 58 39 c31 22 98 77 147 124 l90 85 0 81 c0 45 -4 89
-8 99 -5 9 -20 40 -33 67 -19 39 -30 51 -50 53 -43 5 -69 -37 -69 -112 0 -47
-7 -76 -31 -126 -17 -36 -38 -73 -47 -83 -16 -18 -92 -57 -111 -57 -5 0 -38
-13 -73 -30 -38 -18 -79 -30 -104 -30 -23 0 -58 -7 -77 -15 -29 -12 -84 -15
-265 -15 l-228 0 -58 21 c-32 11 -75 31 -95 45 -28 19 -49 24 -94 24 -32 0
-74 7 -94 15 -19 8 -45 15 -57 15 -36 0 -128 36 -138 54 -7 12 -1 30 21 65
l31 48 0 66 0 65 -25 31 c-65 76 -313 211 -390 211 -79 0 -205 -85 -205 -138
0 -9 -11 -41 -25 -70 -30 -66 -31 -85 -4 -123 26 -37 16 -52 -44 -68 -31 -9
-50 -9 -70 -2 -16 6 -80 11 -143 11 -79 0 -126 5 -151 15 -19 8 -53 15 -75 15
-21 0 -55 7 -75 15 -26 11 -76 15 -195 15 -118 0 -168 4 -195 15 -20 8 -66 15
-105 15 -38 0 -84 7 -105 15 -19 8 -53 15 -75 15 -21 0 -55 7 -75 15 -19 8
-47 15 -62 15 -14 0 -46 14 -71 30 -25 16 -51 30 -58 30 -7 0 -38 11 -68 25
-68 31 -168 65 -191 65 -9 0 -58 13 -108 29 -103 33 -160 49 -227 61 -26 5
-56 13 -67 19 -11 6 -52 11 -91 11 -40 0 -86 6 -107 15 -19 8 -53 15 -75 15
-21 0 -55 7 -75 15 -19 8 -53 15 -75 15 -21 0 -55 7 -75 15 -19 8 -60 15 -90
15 -29 0 -70 7 -90 15 -19 8 -60 15 -90 15 -29 0 -70 7 -90 15 -26 11 -76 15
-195 15 -118 0 -168 4 -195 15 l-35 15 -370 0 -369 0 -36 15 c-48 20 -198 20
-246 0 -23 -9 -68 -15 -120 -15 -53 0 -98 -6 -120 -15 -20 -8 -66 -15 -102
-15 -67 0 -214 -42 -330 -95 -95 -44 -167 -27 -266 63 -70 62 -222 164 -318
212 -42 22 -98 57 -125 79 -26 23 -55 41 -63 41 -30 0 -149 63 -202 106 -29
24 -60 44 -68 44 -29 0 -149 62 -194 100 -26 22 -68 49 -95 61 -143 63 -304
162 -392 241 -40 37 -60 48 -86 48 -22 0 -48 11 -76 33 -24 17 -62 45 -84 61
-23 16 -56 42 -74 57 -21 19 -44 29 -64 29 -22 0 -42 10 -63 29 -16 16 -64 46
-105 67 -41 20 -87 46 -102 56 -14 10 -42 18 -62 18 l-36 0 0 -50z m7890
-1568 c85 -41 160 -112 160 -151 0 -5 -24 -18 -53 -27 l-53 -16 -57 27 c-32
15 -65 38 -73 51 -28 42 -3 134 36 133 3 0 21 -7 40 -17z m-5435 -68 c36 -10
73 -32 114 -67 33 -29 88 -72 122 -97 33 -25 84 -63 112 -85 29 -22 71 -53 94
-69 23 -15 61 -52 83 -82 22 -30 48 -54 56 -54 30 0 72 -33 100 -78 16 -24 45
-55 66 -68 52 -33 77 -62 88 -104 5 -19 25 -62 45 -94 42 -70 43 -80 10 -102
l-25 -17 -43 17 c-23 9 -60 16 -81 16 -42 0 -148 45 -201 85 -18 14 -46 30
-63 34 -16 5 -100 55 -185 112 -120 80 -162 113 -183 147 -15 24 -46 55 -68
70 -48 32 -84 94 -122 206 -30 91 -30 173 0 219 22 32 15 31 81 11z"/>
</g>
</svg>
