<?xml version="1.0" standalone="no"?>
<!DOCTYPE svg PUBLIC "-//W3C//DTD SVG 20010904//EN"
 "http://www.w3.org/TR/2001/REC-SVG-20010904/DTD/svg10.dtd">
<svg version="1.0" xmlns="http://www.w3.org/2000/svg"
 width="438.000000pt" height="225.000000pt" viewBox="0 0 438.000000 225.000000"
 preserveAspectRatio="xMidYMid meet">
<metadata>
Created by potrace 1.16, written by Peter Selinger 2001-2019
</metadata>
<g transform="translate(0.000000,225.000000) scale(0.100000,-0.100000)"
fill="#000000" stroke="none">
<path d="M4145 2220 c-19 -37 -19 -78 0 -123 21 -50 19 -122 -6 -192 -23 -69
-48 -95 -91 -95 -16 0 -39 -5 -51 -11 -26 -14 -149 -32 -197 -29 -39 3 -255 4
-310 1 -81 -4 -327 15 -347 27 -14 7 -64 12 -138 12 -82 0 -126 5 -153 15 -24
11 -50 14 -75 10 -26 -5 -45 -2 -60 8 -13 8 -43 17 -67 19 -25 3 -61 11 -80
18 -87 32 -116 45 -131 57 -9 8 -33 18 -52 24 -20 5 -60 31 -89 57 -63 57
-171 130 -204 138 -13 3 -31 4 -39 1 -16 -7 -55 -78 -55 -102 0 -37 54 -115
128 -187 l80 -78 34 0 c42 0 88 -32 173 -120 33 -34 77 -73 98 -86 20 -13 62
-47 92 -74 30 -28 60 -50 66 -50 16 0 363 -345 396 -394 15 -22 44 -61 64 -86
60 -76 99 -145 99 -177 0 -21 13 -46 41 -79 57 -68 79 -118 79 -185 0 -31 7
-73 15 -92 21 -52 19 -84 -10 -112 -18 -19 -35 -25 -65 -25 -41 0 -86 22 -230
113 -30 19 -71 43 -90 52 -19 10 -55 34 -80 55 -46 38 -120 80 -141 80 -22 0
-85 34 -129 70 -48 39 -120 80 -142 80 -7 0 -32 23 -56 50 -40 46 -123 100
-154 100 -8 0 -51 25 -96 55 -92 61 -154 95 -174 95 -8 0 -51 25 -96 55 -108
72 -155 95 -190 95 -17 0 -47 13 -72 33 -95 70 -166 117 -180 117 -8 0 -33 12
-55 25 -22 14 -49 25 -61 25 -11 0 -47 23 -78 50 -31 28 -64 50 -72 50 -18 0
-116 56 -239 137 -52 34 -113 72 -136 83 -23 12 -60 35 -82 51 -24 18 -53 29
-72 29 -21 0 -47 12 -75 33 -95 71 -166 117 -180 117 -18 0 -139 78 -187 121
-19 16 -41 29 -51 29 -9 0 -37 14 -62 30 -27 18 -58 30 -77 30 l-33 0 0 -44 0
-43 61 -66 c43 -47 71 -70 98 -77 20 -5 55 -24 77 -42 94 -79 179 -128 218
-128 16 0 48 -22 95 -65 39 -36 78 -65 87 -65 18 0 158 -83 191 -112 11 -11
40 -24 63 -29 23 -5 56 -20 74 -33 17 -13 51 -34 75 -46 24 -12 62 -35 84 -51
22 -16 47 -29 56 -29 9 0 35 -23 59 -50 47 -54 124 -100 169 -100 29 0 138
-66 200 -121 22 -18 45 -29 64 -29 17 0 47 -8 67 -17 40 -18 139 -91 161 -117
7 -9 28 -16 46 -16 21 0 47 -11 75 -32 95 -72 166 -118 180 -118 8 0 29 -9 45
-21 17 -11 55 -33 86 -49 31 -16 80 -50 110 -77 91 -81 188 -141 251 -157 14
-3 50 -28 80 -55 29 -26 72 -58 94 -69 46 -24 162 -101 211 -141 17 -14 52
-40 76 -58 26 -19 53 -49 63 -72 l19 -40 100 0 100 0 26 42 c46 73 89 166 89
192 0 13 7 42 16 64 24 61 14 154 -32 301 -8 25 -14 56 -14 70 0 14 -14 45
-30 70 -17 26 -30 58 -30 76 0 22 -12 47 -40 80 -22 27 -45 66 -51 86 -6 24
-24 49 -48 68 -21 17 -51 54 -65 81 -18 32 -44 60 -76 81 -26 17 -61 51 -76
76 -16 24 -49 58 -75 74 -25 17 -60 52 -78 79 -20 31 -48 57 -80 74 -30 17
-69 52 -101 92 l-52 65 15 15 15 15 48 -28 48 -28 236 -6 c160 -3 242 -9 257
-18 15 -8 79 -12 213 -12 147 0 199 -3 227 -15 50 -21 76 -19 173 15 46 17
103 30 125 30 l42 0 61 48 c33 26 72 55 86 65 15 10 30 35 37 60 6 23 22 63
35 89 15 29 24 65 24 92 0 25 5 48 10 51 6 3 10 19 10 34 0 21 -12 38 -50 70
-27 23 -57 55 -67 71 l-17 30 -43 0 -42 0 -16 -30z"/>
</g>
</svg>
