<?xml version="1.0" standalone="no"?>
<!DOCTYPE svg PUBLIC "-//W3C//DTD SVG 20010904//EN"
 "http://www.w3.org/TR/2001/REC-SVG-20010904/DTD/svg10.dtd">
<svg version="1.0" xmlns="http://www.w3.org/2000/svg"
 width="240.000000pt" height="228.000000pt" viewBox="0 0 240.000000 228.000000"
 preserveAspectRatio="xMidYMid meet">
<metadata>
Created by potrace 1.16, written by Peter Selinger 2001-2019
</metadata>
<g transform="translate(0.000000,228.000000) scale(0.100000,-0.100000)"
fill="#000000" stroke="none">
<path d="M2162 2247 c-16 -45 -15 -72 8 -137 31 -88 31 -89 -60 -279 -3 -8
-19 -18 -35 -23 -15 -4 -40 -18 -54 -31 -47 -44 -75 -57 -117 -57 -23 0 -58
-7 -77 -15 -48 -20 -235 -20 -297 -1 -77 24 -133 37 -190 45 -30 4 -71 12 -90
18 -75 24 -128 35 -195 42 -68 7 -217 52 -301 91 -60 28 -160 60 -185 60 -34
0 -185 76 -228 115 -21 19 -44 35 -51 35 -24 0 -86 34 -132 72 -60 49 -87 49
-127 -1 -42 -53 -44 -115 -4 -153 38 -35 146 -88 180 -88 43 0 168 -88 280
-197 56 -54 125 -116 154 -138 29 -22 72 -64 94 -93 22 -29 67 -83 101 -120
33 -37 69 -81 79 -97 11 -17 32 -45 47 -62 52 -62 100 -147 124 -220 13 -41
35 -91 49 -111 14 -20 25 -42 25 -48 0 -7 13 -41 30 -76 31 -66 40 -141 20
-179 l-11 -19 -120 0 -120 0 -47 -24 c-26 -13 -69 -47 -95 -75 l-47 -50 0
-101 0 -102 58 -61 c32 -34 73 -81 91 -104 18 -24 41 -43 51 -43 10 0 22 -4
25 -10 8 -13 225 -13 225 0 0 5 38 50 85 99 l85 90 0 33 c0 18 14 62 31 98
l30 64 -4 111 c-4 104 -10 140 -43 245 -8 25 -14 62 -14 83 0 45 -84 219 -124
256 -18 17 -26 35 -26 57 0 22 -11 45 -34 73 -19 23 -56 74 -82 114 -26 39
-73 99 -104 132 -31 33 -65 74 -75 90 -25 41 -87 105 -100 105 -7 0 -20 9 -30
20 l-19 21 15 14 14 15 132 -45 132 -45 78 0 c43 0 98 -6 123 -14 98 -31 139
-39 240 -45 58 -4 115 -12 127 -19 30 -17 133 -15 176 3 20 8 54 15 76 15 23
0 66 12 103 30 34 16 69 30 76 30 7 0 34 11 60 24 68 35 154 128 196 213 19
39 40 74 46 78 6 3 10 49 10 107 l0 100 -51 59 -51 59 -62 0 -62 0 -12 -33z
m-1018 -1862 c20 -15 45 -43 57 -62 l22 -36 -19 -35 c-23 -44 -88 -92 -123
-92 -35 0 -94 41 -120 83 -25 41 -27 103 -6 135 34 48 131 51 189 7z"/>
</g>
</svg>
