<?xml version="1.0" standalone="no"?>
<!DOCTYPE svg PUBLIC "-//W3C//DTD SVG 20010904//EN"
 "http://www.w3.org/TR/2001/REC-SVG-20010904/DTD/svg10.dtd">
<svg version="1.0" xmlns="http://www.w3.org/2000/svg"
 width="441.000000pt" height="237.000000pt" viewBox="0 0 441.000000 237.000000"
 preserveAspectRatio="xMidYMid meet">
<metadata>
Created by potrace 1.16, written by Peter Selinger 2001-2019
</metadata>
<g transform="translate(0.000000,237.000000) scale(0.100000,-0.100000)"
fill="#000000" stroke="none">
<path d="M4146 2345 c-6 -25 11 -68 53 -130 38 -55 22 -173 -31 -235 -30 -36
-63 -50 -119 -50 -31 0 -73 -7 -92 -15 -29 -12 -83 -15 -252 -15 -169 0 -223
3 -252 15 -23 10 -69 15 -132 15 l-97 0 -84 30 c-47 16 -94 30 -104 30 -11 0
-80 20 -153 45 -73 25 -147 45 -165 45 -49 0 -134 32 -293 109 -77 37 -151 71
-165 74 -14 4 -47 24 -74 47 l-48 40 -40 0 -40 0 -40 -39 -39 -40 12 -23 c23
-45 71 -98 87 -98 10 0 31 -9 47 -21 17 -11 55 -33 85 -48 30 -16 83 -53 117
-82 33 -30 82 -66 107 -81 29 -17 46 -34 46 -47 0 -27 28 -57 89 -94 40 -24
57 -41 65 -67 8 -24 26 -45 63 -70 29 -19 59 -48 66 -65 61 -129 102 -206 132
-243 20 -25 35 -55 35 -70 0 -15 14 -65 30 -112 17 -46 30 -94 30 -106 0 -12
7 -39 16 -60 37 -89 -2 -224 -65 -224 -16 0 -45 -7 -64 -15 -20 -8 -61 -15
-92 -15 -80 0 -144 -35 -189 -103 -20 -30 -45 -62 -56 -72 -42 -38 -13 -114
71 -185 63 -53 133 -79 214 -80 l60 0 45 30 c25 16 51 30 58 30 27 0 89 41
157 103 l70 64 8 99 c9 114 9 94 -1 294 -4 85 -13 168 -20 183 -7 16 -12 41
-12 57 0 18 -11 42 -28 62 -47 55 -62 81 -62 110 0 35 -60 156 -90 183 -12 11
-34 40 -48 65 -45 79 -85 133 -155 209 -53 58 -67 80 -65 100 l3 26 48 3 c38
2 63 -4 114 -27 36 -17 82 -31 102 -31 20 0 75 -13 121 -30 47 -16 102 -30
123 -30 21 0 54 -7 74 -15 l35 -15 355 0 354 0 61 21 c100 33 131 54 206 134
l72 77 0 89 c0 49 -4 97 -9 107 -5 9 -16 35 -26 57 -9 22 -29 59 -43 82 l-27
42 -76 1 -77 0 -6 -25z m-1214 -1800 c-2 -33 -9 -66 -16 -73 -8 -8 -41 -14
-83 -15 l-71 -2 -21 19 c-11 11 -21 27 -21 37 0 27 66 79 103 80 18 0 41 4 52
9 11 5 29 8 40 7 l20 -2 -3 -60z"/>
<path d="M17 649 c-26 -15 -22 -56 8 -63 13 -3 36 -22 51 -42 15 -19 45 -44
67 -55 22 -12 58 -34 80 -50 22 -16 53 -29 69 -29 16 0 59 -18 96 -40 36 -22
84 -45 107 -51 22 -6 61 -22 87 -35 26 -13 60 -24 75 -24 15 0 53 -12 83 -26
68 -31 163 -64 188 -64 10 0 56 -13 102 -30 47 -16 101 -30 120 -30 19 0 75
-13 125 -29 127 -41 173 -52 230 -58 28 -3 54 -9 60 -14 12 -12 450 -12 473 0
9 5 37 17 61 27 24 10 61 31 82 46 20 14 60 38 87 52 75 38 82 53 82 170 l0
99 -44 43 c-55 55 -82 57 -136 8 -43 -39 -46 -51 -28 -118 16 -62 3 -86 -74
-135 l-63 -41 -56 0 c-31 0 -73 -7 -92 -15 -47 -19 -157 -19 -204 0 -19 8 -65
15 -102 15 -49 0 -90 8 -151 30 -47 16 -94 30 -105 30 -12 0 -59 13 -105 30
-47 16 -102 30 -123 30 -21 0 -54 7 -74 15 -19 8 -47 15 -62 15 -14 0 -55 14
-89 30 -35 17 -69 30 -75 30 -7 0 -32 14 -57 30 -33 22 -57 30 -91 30 l-45 0
-183 90 c-100 50 -188 90 -194 90 -7 0 -36 11 -65 25 -58 27 -87 30 -115 14z"/>
</g>
</svg>
