<?xml version="1.0" standalone="no"?>
<!DOCTYPE svg PUBLIC "-//W3C//DTD SVG 20010904//EN"
 "http://www.w3.org/TR/2001/REC-SVG-20010904/DTD/svg10.dtd">
<svg version="1.0" xmlns="http://www.w3.org/2000/svg"
 width="561.000000pt" height="249.000000pt" viewBox="0 0 561.000000 249.000000"
 preserveAspectRatio="xMidYMid meet">
<metadata>
Created by potrace 1.16, written by Peter Selinger 2001-2019
</metadata>
<g transform="translate(0.000000,249.000000) scale(0.100000,-0.100000)"
fill="#000000" stroke="none">
<path d="M5416 2459 c-32 -38 -32 -43 0 -115 l25 -58 -12 -45 c-16 -59 -82
-131 -121 -131 -14 0 -55 -13 -90 -30 l-63 -30 -71 0 c-41 0 -87 -6 -107 -15
-50 -21 -244 -21 -294 0 -22 9 -67 15 -120 15 -52 0 -97 6 -120 15 -19 8 -53
15 -75 15 -21 0 -55 7 -75 15 -22 9 -67 15 -120 15 -52 0 -97 6 -120 15 -19 8
-45 15 -57 15 -27 0 -215 63 -284 95 -36 17 -70 25 -108 25 -59 0 -154 37
-217 84 -65 48 -113 66 -180 66 -75 0 -104 -17 -131 -78 l-18 -39 16 -32 c9
-17 27 -38 41 -47 32 -21 154 -64 183 -64 13 0 53 -13 89 -30 35 -16 70 -30
76 -30 7 0 32 -14 57 -30 25 -16 52 -30 60 -30 19 -1 74 -27 125 -61 22 -15
60 -38 85 -51 24 -13 58 -44 75 -69 23 -32 44 -48 76 -59 31 -11 51 -27 71
-56 15 -22 46 -53 70 -68 24 -15 54 -44 68 -64 13 -20 49 -64 80 -97 31 -33
65 -73 75 -90 11 -16 36 -50 56 -75 49 -60 73 -109 120 -252 57 -168 45 -200
-59 -152 -31 15 -77 32 -102 40 l-44 13 -51 -15 c-89 -26 -167 -75 -192 -119
l-23 -40 0 -91 0 -92 55 -113 c30 -63 55 -121 55 -130 0 -37 -86 -79 -162 -79
-33 0 -85 -12 -138 -30 -46 -17 -94 -30 -106 -30 -13 0 -52 -13 -87 -30 -36
-16 -76 -30 -90 -30 -13 0 -41 -7 -60 -15 l-36 -15 -456 0 -456 0 -36 15 c-19
8 -53 15 -75 15 -21 0 -55 7 -75 15 -19 8 -53 15 -75 15 -21 0 -55 7 -75 15
-19 8 -52 15 -72 15 -20 0 -56 6 -81 14 -76 24 -132 37 -195 46 -33 4 -84 20
-112 34 -29 14 -65 26 -81 26 -15 0 -44 11 -63 24 -41 28 -146 66 -182 66 -12
0 -92 34 -176 75 -84 41 -158 75 -165 75 -6 0 -49 25 -94 55 -46 30 -102 65
-125 76 -58 30 -138 92 -165 128 -14 19 -37 34 -62 41 -23 6 -47 21 -57 36
-10 14 -51 62 -90 106 -40 45 -73 84 -73 89 0 5 -24 36 -54 69 -43 48 -59 77
-79 138 -14 42 -44 115 -66 161 l-41 85 0 72 c0 42 -6 87 -16 109 l-15 37 18
50 17 49 -24 47 c-31 57 -56 64 -105 26 l-35 -26 0 -164 c0 -98 4 -165 10
-169 5 -3 10 -25 10 -48 0 -39 20 -104 68 -222 12 -27 26 -66 34 -85 7 -19 29
-53 48 -75 51 -57 79 -98 125 -184 l40 -76 53 -28 c29 -16 86 -60 127 -98 41
-38 79 -69 84 -69 4 0 45 -34 90 -75 44 -41 88 -75 97 -75 21 0 143 -60 214
-106 30 -19 71 -39 90 -44 47 -13 137 -56 174 -85 39 -30 144 -65 193 -65 26
0 77 -19 161 -60 68 -33 135 -60 148 -60 14 0 41 -7 61 -15 19 -8 53 -15 75
-15 21 0 55 -7 75 -15 19 -8 53 -15 75 -15 23 0 67 -13 105 -30 47 -22 79 -30
119 -30 30 0 71 -7 91 -15 22 -9 68 -15 124 -15 48 0 91 -4 94 -10 8 -14 912
-14 920 0 3 6 21 10 38 10 18 0 49 11 68 24 48 33 144 66 190 66 20 0 53 7 72
15 20 8 61 15 90 15 30 0 71 7 90 15 20 8 50 15 66 15 19 0 45 13 77 41 63 52
122 79 174 79 22 0 63 11 92 25 29 14 69 30 88 35 48 13 132 109 149 170 9 36
30 287 32 395 1 79 -27 192 -75 295 -14 30 -26 62 -26 72 0 9 -15 35 -34 57
-19 23 -56 74 -82 114 -89 135 -244 312 -314 360 -69 47 -162 135 -155 147 9
15 50 12 92 -5 24 -10 71 -15 150 -15 78 0 125 -5 150 -15 20 -8 66 -15 105
-15 38 0 84 -7 105 -15 50 -21 316 -21 366 0 20 8 61 15 90 15 30 0 71 7 90
15 20 8 56 15 80 15 33 0 54 8 84 29 23 16 63 41 91 55 28 14 74 52 106 87
l56 62 0 116 -1 116 -38 18 c-21 9 -44 28 -51 42 -20 37 -70 35 -104 -6z
m-1056 -1708 c73 -26 83 -41 75 -116 -4 -33 -13 -70 -21 -82 -13 -20 -89 -63
-111 -63 -9 0 -76 75 -105 119 -10 15 -18 45 -18 69 0 86 66 113 180 73z"/>
</g>
</svg>
