<?xml version="1.0" standalone="no"?>
<!DOCTYPE svg PUBLIC "-//W3C//DTD SVG 20010904//EN"
 "http://www.w3.org/TR/2001/REC-SVG-20010904/DTD/svg10.dtd">
<svg version="1.0" xmlns="http://www.w3.org/2000/svg"
 width="1044.000000pt" height="339.000000pt" viewBox="0 0 1044.000000 339.000000"
 preserveAspectRatio="xMidYMid meet">
<metadata>
Created by potrace 1.16, written by Peter Selinger 2001-2019
</metadata>
<g transform="translate(0.000000,339.000000) scale(0.100000,-0.100000)"
fill="#000000" stroke="none">
<path d="M0 3356 c0 -37 28 -64 110 -106 25 -13 59 -33 75 -45 47 -36 112 -65
142 -65 28 0 71 -20 157 -73 53 -33 169 -76 206 -77 31 0 192 -77 250 -119 25
-18 55 -31 72 -31 17 0 59 -13 95 -30 35 -16 69 -30 74 -30 6 0 40 -18 77 -40
36 -22 83 -45 103 -50 19 -5 73 -28 118 -50 45 -22 86 -40 92 -40 6 0 40 -13
76 -30 35 -16 69 -30 76 -30 6 0 80 -34 164 -75 85 -41 165 -75 179 -75 14 0
55 -13 91 -30 35 -16 70 -30 77 -30 7 0 25 -13 41 -30 16 -16 36 -30 44 -30 9
0 57 -20 107 -44 50 -24 105 -47 122 -51 17 -3 51 -24 75 -46 25 -21 50 -39
57 -39 14 0 90 -36 111 -52 9 -7 29 -31 45 -54 16 -22 44 -60 62 -84 17 -24
32 -49 32 -56 0 -7 27 -68 60 -135 33 -67 60 -130 60 -140 0 -25 50 -80 103
-113 25 -16 57 -48 72 -71 15 -24 64 -77 108 -119 45 -41 102 -96 127 -121 25
-25 53 -45 61 -45 9 0 34 -13 55 -30 74 -56 244 -170 286 -191 24 -12 57 -32
73 -44 36 -27 169 -95 187 -95 6 0 81 -34 165 -75 85 -41 165 -75 179 -75 13
0 41 -7 61 -15 19 -8 47 -15 60 -15 14 0 54 -13 90 -30 35 -16 74 -30 87 -30
12 0 60 -13 106 -30 l85 -30 173 0 c130 0 181 -4 209 -15 19 -8 60 -15 90 -15
40 0 73 -8 120 -30 35 -16 70 -30 76 -30 7 0 41 -14 75 -30 35 -17 75 -30 89
-30 14 0 54 -13 90 -30 35 -16 76 -30 91 -30 15 0 52 -12 82 -26 109 -51 164
-64 265 -64 62 0 108 -5 132 -15 19 -8 52 -15 72 -15 20 0 56 -6 81 -14 60
-19 125 -35 182 -46 26 -5 56 -13 67 -19 11 -6 47 -11 80 -11 33 0 63 -4 66
-10 8 -13 997 -14 1011 -1 5 5 52 12 104 14 104 4 122 8 321 73 93 30 153 44
191 44 l55 0 40 29 c22 16 60 39 84 52 65 33 127 77 194 140 33 30 78 67 100
81 64 41 125 112 125 148 0 39 20 86 59 140 18 24 31 55 31 72 0 16 7 45 15
65 19 46 19 140 0 186 -8 20 -15 54 -15 76 0 23 -12 66 -30 103 -16 34 -30 70
-30 79 0 9 -13 34 -29 56 -16 22 -37 55 -46 74 -9 19 -38 53 -63 76 l-47 42
15 11 c26 17 84 11 170 -20 l85 -30 307 0 308 0 107 36 c168 56 229 91 311
179 l72 77 0 107 0 108 -38 41 -39 42 -40 0 c-26 0 -50 -8 -68 -21 l-27 -22 6
-36 c4 -20 9 -64 12 -98 l6 -62 -22 -36 c-23 -38 -84 -85 -110 -85 -8 0 -35
-14 -60 -30 l-45 -30 -71 0 c-43 0 -87 -6 -110 -16 -30 -12 -58 -15 -133 -10
-127 9 -154 9 -231 1 -50 -5 -75 -3 -104 9 -21 9 -55 16 -75 16 -20 0 -56 6
-81 14 -57 18 -122 35 -180 46 -25 5 -76 20 -115 34 -42 15 -92 26 -125 26
-56 0 -83 11 -184 73 -53 33 -169 76 -206 77 -14 0 -67 20 -118 45 -73 35
-105 45 -144 45 l-50 0 -40 -39 -39 -40 9 -18 c6 -10 37 -44 70 -76 47 -44 67
-57 92 -57 17 0 47 -7 67 -15 19 -8 47 -15 60 -15 14 0 54 -13 90 -30 35 -16
69 -30 75 -30 17 0 81 -32 122 -62 21 -15 47 -28 56 -28 9 0 35 -13 56 -30 21
-16 76 -55 122 -86 45 -30 90 -68 100 -82 9 -15 33 -47 53 -72 56 -67 129
-224 129 -276 0 -24 5 -55 10 -70 13 -34 4 -80 -52 -257 -31 -97 -50 -140 -78
-175 -49 -61 -144 -152 -196 -189 -22 -15 -60 -43 -84 -60 -24 -18 -54 -33
-67 -33 -29 0 -132 -34 -186 -61 -22 -12 -60 -24 -86 -29 -56 -11 -121 -27
-181 -46 -30 -9 -92 -14 -186 -14 -106 0 -151 -4 -179 -16 l-38 -15 -151 5
c-83 2 -185 9 -226 15 -41 5 -171 10 -288 10 -165 1 -221 4 -249 16 -19 8 -52
15 -72 15 -20 0 -56 6 -81 14 -60 19 -125 35 -182 46 -26 5 -56 13 -67 19 -11
6 -52 11 -91 11 -40 0 -86 6 -107 15 -19 8 -52 15 -72 15 -44 0 -129 28 -230
76 -89 42 -182 74 -215 74 -27 0 -86 44 -86 65 0 7 12 27 26 44 14 17 44 57
65 89 l39 57 0 123 0 123 -21 41 c-47 92 -98 153 -161 195 -118 77 -254 133
-323 133 -20 0 -52 7 -72 15 -19 8 -55 15 -78 15 -23 0 -59 -7 -78 -15 -20 -8
-52 -15 -72 -15 -82 0 -189 -55 -297 -154 l-28 -25 0 -53 c0 -42 6 -62 30 -98
16 -25 30 -54 30 -65 0 -26 166 -184 223 -213 23 -12 56 -35 72 -52 l29 -30
-16 -16 -15 -15 -38 15 c-21 9 -54 16 -74 16 -40 0 -126 27 -209 66 -29 13
-64 24 -78 24 -13 0 -41 7 -61 15 -19 8 -47 15 -61 15 -14 0 -95 34 -179 75
-85 41 -166 75 -181 75 -28 0 -59 17 -102 56 -14 12 -76 48 -137 79 -81 41
-121 68 -143 95 -17 22 -41 40 -59 43 -26 6 -141 100 -216 177 -16 17 -69 70
-117 118 -49 48 -88 95 -88 104 0 9 -18 31 -40 48 -22 17 -43 44 -46 58 -10
41 -33 84 -62 114 -38 41 -62 121 -62 205 l0 73 -36 40 c-20 22 -48 43 -63 47
-14 3 -55 23 -91 45 -35 21 -80 43 -100 48 -47 13 -137 56 -174 85 -17 13 -67
35 -111 50 -107 34 -157 58 -200 97 -42 37 -123 67 -178 68 -44 0 -93 21 -151
62 -21 15 -46 28 -55 28 -9 0 -36 14 -61 30 -33 22 -57 30 -88 30 -47 0 -150
42 -205 84 -34 26 -142 66 -178 66 -27 0 -83 26 -133 62 -21 15 -45 28 -53 28
-8 0 -40 12 -71 26 -31 14 -93 38 -137 52 -44 14 -128 49 -188 79 -59 29 -120
53 -135 53 -15 0 -92 32 -172 71 -80 39 -181 82 -225 96 -44 15 -92 34 -107
45 -19 13 -44 18 -92 18 l-66 0 0 -34z m5277 -2181 c19 -8 46 -15 60 -15 30 0
92 -29 163 -78 l54 -37 22 -60 c30 -81 32 -212 4 -270 -35 -74 -75 -105 -135
-105 l-41 0 -82 55 c-46 30 -102 65 -125 76 -40 20 -65 39 -196 142 -72 56
-129 125 -137 165 l-7 32 38 35 c20 19 55 44 78 55 l42 19 113 1 c78 0 124 -5
149 -15z"/>
</g>
</svg>
