<?xml version="1.0" standalone="no"?>
<!DOCTYPE svg PUBLIC "-//W3C//DTD SVG 20010904//EN"
 "http://www.w3.org/TR/2001/REC-SVG-20010904/DTD/svg10.dtd">
<svg version="1.0" xmlns="http://www.w3.org/2000/svg"
 width="234.000000pt" height="321.000000pt" viewBox="0 0 234.000000 321.000000"
 preserveAspectRatio="xMidYMid meet">
<metadata>
Created by potrace 1.16, written by Peter Selinger 2001-2019
</metadata>
<g transform="translate(0.000000,321.000000) scale(0.100000,-0.100000)"
fill="#000000" stroke="none">
<path d="M2105 3180 c-21 -41 -19 -62 14 -107 15 -21 34 -55 40 -74 l12 -34
-18 -55 c-14 -42 -27 -60 -57 -81 -21 -14 -51 -43 -65 -65 -35 -51 -116 -82
-217 -83 -39 -1 -88 -8 -107 -16 -21 -8 -67 -15 -105 -15 -39 0 -85 -7 -105
-15 -25 -10 -71 -15 -147 -15 -76 0 -122 5 -147 15 -19 8 -53 15 -75 15 -21 0
-55 7 -75 15 -22 9 -67 15 -120 15 -52 0 -97 6 -120 15 -19 8 -47 15 -62 15
-31 0 -138 49 -186 85 -18 15 -49 30 -67 36 -19 5 -52 24 -74 43 -21 18 -85
56 -141 85 -124 62 -171 67 -239 24 l-43 -28 -1 -46 0 -45 27 -25 c16 -14 55
-33 88 -44 33 -10 80 -31 105 -46 25 -15 77 -42 115 -59 39 -18 86 -41 105
-51 19 -11 88 -46 152 -79 84 -43 137 -78 185 -123 38 -34 84 -73 104 -86 20
-13 46 -40 59 -60 13 -20 49 -63 80 -97 83 -91 137 -158 162 -201 12 -21 43
-62 69 -90 37 -42 53 -70 74 -138 15 -47 32 -88 37 -91 23 -15 68 -90 68 -114
0 -15 7 -45 16 -65 12 -29 15 -66 12 -159 l-3 -121 -23 -32 c-27 -38 -62 -43
-102 -16 -14 9 -79 69 -146 135 l-121 118 -40 0 c-25 0 -45 -6 -55 -17 -28
-32 -48 -82 -48 -119 l0 -37 103 -104 c56 -58 125 -120 154 -139 110 -74 158
-186 118 -281 -8 -20 -15 -66 -15 -104 0 -40 -7 -86 -16 -109 l-17 -41 22 -65
c33 -102 53 -134 139 -216 l80 -78 31 0 c20 0 58 -16 99 -41 37 -22 79 -43 95
-46 15 -3 30 -10 33 -14 3 -5 25 -9 49 -9 48 0 65 17 65 64 0 26 -41 66 -69
66 -55 1 -238 149 -292 237 l-22 35 2 274 c0 170 5 283 11 295 6 10 29 31 50
44 44 28 93 114 131 229 l22 65 -17 41 c-9 22 -16 65 -16 94 0 29 -6 69 -14
87 -8 19 -17 65 -21 102 -5 46 -15 79 -31 103 -13 19 -33 52 -43 72 -11 20
-31 48 -45 61 -14 14 -26 31 -26 38 0 32 -53 115 -100 155 -29 25 -50 51 -50
63 0 12 -62 80 -166 182 -114 111 -165 168 -162 180 l3 18 104 3 c58 1 118 -2
134 -8 16 -5 71 -13 122 -16 75 -6 102 -4 134 10 31 12 74 16 170 16 92 0 139
4 164 15 20 8 55 15 77 15 66 0 250 102 327 182 18 19 48 60 68 92 l35 58 0
134 c0 74 -4 134 -9 134 -4 0 -29 16 -54 35 l-46 35 -55 0 -55 0 -16 -30z"/>
</g>
</svg>
