<?xml version="1.0" standalone="no"?>
<!DOCTYPE svg PUBLIC "-//W3C//DTD SVG 20010904//EN"
 "http://www.w3.org/TR/2001/REC-SVG-20010904/DTD/svg10.dtd">
<svg version="1.0" xmlns="http://www.w3.org/2000/svg"
 width="354.000000pt" height="258.000000pt" viewBox="0 0 354.000000 258.000000"
 preserveAspectRatio="xMidYMid meet">
<metadata>
Created by potrace 1.16, written by Peter Selinger 2001-2019
</metadata>
<g transform="translate(0.000000,258.000000) scale(0.100000,-0.100000)"
fill="#000000" stroke="none">
<path d="M3260 2521 c0 -45 7 -74 30 -123 44 -93 38 -157 -20 -206 -28 -24
-157 -82 -183 -82 -13 0 -41 -7 -60 -15 -23 -9 -68 -15 -120 -15 -53 0 -98 -6
-120 -15 -29 -12 -83 -15 -252 -15 -169 0 -223 3 -252 15 -19 8 -60 15 -90 15
-29 0 -70 7 -90 15 -19 8 -45 15 -56 15 -12 0 -62 13 -112 29 -132 43 -172 52
-255 61 -76 8 -151 37 -214 85 -47 35 -112 65 -141 65 -15 0 -56 14 -92 30
-73 34 -137 39 -186 14 -58 -30 -67 -43 -67 -101 l0 -55 29 -29 c23 -23 38
-29 72 -29 44 0 304 -82 397 -125 29 -14 57 -25 63 -25 32 0 171 -90 208 -134
7 -9 27 -16 43 -16 41 0 65 -15 93 -60 14 -22 42 -48 63 -59 21 -11 83 -64
139 -118 104 -101 195 -223 244 -328 l29 -60 0 -83 c0 -51 -6 -96 -15 -119 -8
-19 -15 -47 -15 -62 -1 -49 -73 -145 -147 -194 -83 -55 -173 -97 -208 -97 -14
0 -36 -5 -47 -11 -38 -21 -241 -42 -435 -46 l-192 -4 -37 16 c-20 8 -54 15
-76 15 -21 0 -55 7 -75 15 -19 8 -48 15 -63 15 -36 0 -86 39 -200 155 -84 85
-166 145 -201 145 -18 0 -81 32 -123 62 -21 15 -45 28 -53 28 -8 0 -44 13 -80
30 l-64 30 -105 0 -105 0 -59 -30 -60 -30 0 -84 0 -84 56 -46 c31 -25 63 -46
71 -46 21 0 81 -29 127 -62 21 -15 46 -28 55 -28 9 0 36 -14 61 -30 31 -21 57
-30 85 -30 50 0 132 -28 245 -82 102 -49 167 -97 215 -161 63 -83 79 -142 50
-184 -28 -39 -226 -123 -291 -123 -71 0 -81 -23 -34 -77 17 -18 30 -38 30 -43
0 -12 182 -13 196 -2 5 5 36 17 69 28 47 15 73 32 121 80 73 71 94 109 94 163
0 22 5 52 10 66 7 19 7 39 -1 66 -9 29 -9 45 -1 64 l12 25 100 0 c67 0 112 -5
138 -16 31 -12 69 -14 178 -11 131 3 166 9 274 43 25 8 68 14 97 14 36 0 71 9
116 30 36 17 71 30 79 30 7 0 30 11 50 25 21 14 54 31 75 38 27 9 47 26 71 62
19 28 52 63 73 79 47 33 57 51 103 189 l36 107 0 80 c0 197 -106 370 -399 653
-56 54 -99 103 -96 108 9 14 82 11 122 -6 24 -10 71 -15 150 -15 78 0 125 -5
150 -15 25 -10 71 -15 153 -15 82 0 128 5 153 15 20 8 54 15 75 15 22 0 56 7
75 15 20 8 52 15 71 15 20 0 104 23 188 50 117 39 158 57 173 77 11 14 43 49
70 78 74 77 95 117 95 179 0 72 -28 127 -82 159 -24 14 -59 41 -77 61 l-35 36
-43 0 -43 0 0 -59z m-2885 -1591 c3 -5 -1 -10 -9 -10 -9 0 -16 5 -16 10 0 6 4
10 9 10 6 0 13 -4 16 -10z m85 -60 c0 -5 -4 -10 -9 -10 -6 0 -13 5 -16 10 -3
6 1 10 9 10 9 0 16 -4 16 -10z"/>
</g>
</svg>
