<?xml version="1.0" standalone="no"?>
<!DOCTYPE svg PUBLIC "-//W3C//DTD SVG 20010904//EN"
 "http://www.w3.org/TR/2001/REC-SVG-20010904/DTD/svg10.dtd">
<svg version="1.0" xmlns="http://www.w3.org/2000/svg"
 width="327.000000pt" height="249.000000pt" viewBox="0 0 327.000000 249.000000"
 preserveAspectRatio="xMidYMid meet">
<metadata>
Created by potrace 1.16, written by Peter Selinger 2001-2019
</metadata>
<g transform="translate(0.000000,249.000000) scale(0.100000,-0.100000)"
fill="#000000" stroke="none">
<path d="M3020 2458 c0 -20 12 -51 30 -78 16 -25 30 -56 30 -70 0 -14 -19 -54
-43 -90 -33 -51 -50 -68 -80 -77 -21 -7 -54 -24 -75 -38 -20 -14 -49 -25 -63
-25 -15 0 -44 -7 -65 -16 l-39 -17 -286 1 -287 1 -37 15 c-21 9 -55 16 -77 16
-21 0 -55 7 -75 15 -19 8 -53 15 -75 15 -21 0 -55 7 -75 15 -19 8 -59 15 -87
15 -55 0 -154 30 -196 60 -46 32 -169 90 -193 90 -13 0 -61 13 -107 30 -47 16
-92 30 -100 30 -22 0 -100 -82 -100 -105 0 -54 83 -125 145 -125 15 0 56 -13
92 -30 35 -16 70 -30 76 -30 7 0 29 -11 49 -25 20 -14 72 -36 115 -50 101 -33
119 -41 176 -88 26 -21 63 -43 82 -48 19 -6 43 -21 52 -35 40 -58 87 -105 112
-111 36 -8 51 -22 51 -45 0 -19 30 -52 88 -96 18 -13 37 -42 47 -70 9 -26 28
-72 41 -102 83 -192 83 -247 -2 -445 -48 -111 -55 -122 -101 -150 -24 -16 -55
-42 -68 -58 -29 -38 -94 -63 -220 -87 -33 -6 -80 -18 -105 -26 -66 -21 -515
-20 -567 1 -19 8 -53 15 -75 15 -62 0 -103 26 -150 93 -53 75 -165 187 -244
245 -32 23 -84 61 -114 84 -64 49 -97 57 -263 57 -127 1 -156 -7 -209 -57
l-28 -26 0 -58 c0 -32 4 -66 8 -76 5 -9 15 -30 23 -47 14 -28 26 -37 89 -64
24 -11 121 -67 215 -125 26 -16 86 -42 134 -58 47 -16 110 -40 139 -53 29 -14
58 -25 64 -25 27 0 158 -73 177 -98 11 -15 40 -53 63 -85 24 -32 61 -79 84
-105 60 -69 74 -93 74 -126 0 -23 11 -40 47 -73 l46 -43 43 0 42 0 5 27 c3 15
1 38 -4 51 -5 13 -9 36 -9 52 0 18 -14 45 -41 76 -46 55 -109 177 -109 211 0
27 25 53 51 53 11 0 36 -7 56 -15 44 -19 140 -19 184 -1 22 9 98 15 219 19
l185 6 86 28 c57 19 99 40 128 65 24 20 57 40 75 43 17 4 59 26 94 48 64 42
114 103 162 197 12 23 35 61 51 83 16 22 29 53 29 69 0 16 7 45 15 65 8 19 15
61 15 93 0 32 -7 74 -15 93 -8 20 -15 48 -15 62 0 14 -30 85 -66 158 l-66 132
-132 132 c-72 73 -131 138 -131 145 0 21 243 23 291 3 51 -21 287 -21 337 0
20 8 53 15 74 15 21 0 76 14 123 30 46 17 97 30 113 30 29 0 49 17 142 123 17
19 33 27 58 27 l34 0 41 49 42 50 0 94 0 95 -55 41 -54 41 -71 0 -70 0 0 -32z
m-2657 -1527 c72 -33 147 -131 100 -131 -36 0 -106 27 -122 47 -9 10 -38 32
-64 47 -46 27 -53 36 -40 49 13 14 85 7 126 -12z"/>
</g>
</svg>
