<?xml version="1.0" standalone="no"?>
<!DOCTYPE svg PUBLIC "-//W3C//DTD SVG 20010904//EN"
 "http://www.w3.org/TR/2001/REC-SVG-20010904/DTD/svg10.dtd">
<svg version="1.0" xmlns="http://www.w3.org/2000/svg"
 width="339.000000pt" height="438.000000pt" viewBox="0 0 339.000000 438.000000"
 preserveAspectRatio="xMidYMid meet">
<metadata>
Created by potrace 1.16, written by Peter Selinger 2001-2019
</metadata>
<g transform="translate(0.000000,438.000000) scale(0.100000,-0.100000)"
fill="#000000" stroke="none">
<path d="M2528 4355 c-3 -14 3 -38 13 -55 32 -52 59 -142 59 -197 l0 -53 -52
-34 c-29 -18 -62 -43 -72 -55 -11 -12 -31 -21 -46 -21 -15 0 -44 -7 -63 -15
-28 -12 -81 -15 -237 -15 -156 0 -209 3 -237 15 -19 8 -52 15 -72 15 -20 0
-56 6 -81 14 -57 18 -122 35 -180 46 -25 5 -76 20 -115 34 -38 14 -87 26 -108
26 -21 0 -54 7 -74 15 -19 8 -47 15 -62 15 -14 0 -46 14 -71 30 -25 16 -51 30
-58 30 -8 0 -43 14 -79 30 -35 17 -75 30 -89 30 -14 0 -41 7 -61 15 -19 8 -46
15 -60 15 -13 0 -54 18 -91 40 -104 63 -127 64 -162 8 -31 -51 -26 -80 20
-122 22 -20 48 -36 58 -36 9 0 34 -11 54 -25 20 -14 70 -36 111 -49 77 -25
152 -68 225 -130 24 -20 51 -36 60 -36 33 -1 163 -78 235 -138 17 -15 50 -40
73 -55 22 -15 55 -43 74 -62 19 -20 51 -40 72 -46 21 -5 45 -21 55 -35 10 -15
49 -60 86 -101 37 -41 70 -88 74 -103 3 -16 18 -41 34 -56 16 -15 29 -35 29
-43 0 -8 12 -27 27 -43 44 -46 63 -118 63 -243 l0 -111 -34 -69 c-26 -54 -47
-82 -97 -124 -35 -29 -87 -64 -116 -77 l-52 -24 -276 0 -276 0 -36 15 c-19 8
-46 15 -60 15 -43 0 -59 17 -146 147 -54 81 -112 155 -160 201 l-75 72 -32 0
c-17 0 -61 14 -97 30 -35 17 -75 30 -89 30 -14 0 -41 7 -61 15 -19 8 -63 15
-97 15 l-61 0 -45 -30 c-25 -16 -51 -30 -57 -30 -10 0 -13 -27 -13 -100 l0
-100 17 0 c9 0 35 -20 57 -44 49 -52 123 -106 145 -106 9 0 36 -14 61 -30 25
-16 52 -30 60 -30 9 0 32 -11 52 -25 20 -14 70 -36 110 -49 l73 -23 19 -32 19
-32 -12 -38 c-18 -61 -15 -469 4 -514 8 -20 15 -47 15 -61 0 -13 13 -53 30
-88 16 -34 30 -70 30 -79 0 -9 13 -34 30 -57 16 -22 52 -87 81 -144 37 -74 70
-122 116 -171 38 -41 66 -80 70 -98 4 -21 22 -42 58 -70 28 -21 66 -59 83 -83
19 -27 54 -56 84 -73 30 -16 65 -46 82 -70 17 -24 49 -55 71 -69 22 -14 58
-43 80 -64 22 -21 59 -47 81 -58 50 -25 167 -104 212 -143 21 -19 44 -29 65
-29 34 0 58 -13 115 -62 18 -15 40 -28 48 -28 8 0 45 -18 82 -40 36 -22 84
-45 106 -51 22 -6 71 -26 108 -45 37 -19 98 -44 135 -56 78 -25 93 -34 93 -58
0 -29 33 -50 79 -50 23 0 58 -7 78 -15 19 -8 45 -15 56 -15 12 0 81 -20 154
-45 73 -25 141 -45 152 -45 19 0 82 -21 126 -41 11 -5 74 -8 140 -7 l120 3 3
30 3 31 -98 31 c-133 42 -177 53 -248 62 -33 5 -83 20 -112 35 -29 14 -58 26
-65 26 -7 0 -33 14 -58 30 -25 16 -56 30 -70 30 -33 0 -137 37 -170 60 -47 33
-150 80 -238 109 -98 31 -156 59 -215 102 -22 16 -46 29 -54 29 -29 0 -149 62
-196 102 -26 22 -63 44 -81 49 -19 5 -62 34 -95 64 -34 30 -65 55 -69 55 -4 0
-44 32 -87 71 -44 40 -102 89 -130 111 -50 39 -84 77 -202 225 -34 43 -73 92
-86 108 -55 67 -136 198 -143 228 -9 42 -46 112 -88 163 l-33 41 -6 101 c-4
55 -12 113 -17 127 -15 40 -12 180 5 222 8 19 15 64 15 100 0 86 10 103 61
103 22 0 56 -7 76 -15 19 -8 59 -15 89 -15 29 0 65 -5 80 -10 19 -7 37 -7 60
0 25 9 40 8 69 -5 48 -20 171 -20 218 0 20 8 61 15 91 15 l54 0 94 45 c51 25
100 45 109 45 18 0 49 31 49 49 0 7 32 43 72 80 l72 67 9 70 c12 84 12 197 0
324 -9 94 -21 129 -72 205 -12 17 -21 36 -21 42 0 16 -132 175 -184 223 -21
19 -76 69 -121 110 -45 41 -108 93 -139 115 -65 45 -86 73 -65 86 20 13 58 11
109 -5 87 -28 136 -38 210 -45 41 -4 85 -13 97 -19 12 -7 47 -12 78 -12 30 0
72 -7 92 -15 25 -10 71 -15 153 -15 82 0 128 5 153 15 20 8 55 15 77 15 23 0
61 10 88 24 26 13 66 29 88 35 30 8 60 31 122 95 l82 84 0 81 0 82 -25 48
c-13 27 -46 67 -72 90 l-48 41 -61 0 -62 0 -4 -25z m-2215 -1434 c25 -9 157
-119 186 -154 l24 -29 -15 -15 -16 -15 -95 46 c-114 55 -217 122 -217 141 0 8
8 19 18 24 19 12 88 13 115 2z"/>
</g>
</svg>
