<?xml version="1.0" standalone="no"?>
<!DOCTYPE svg PUBLIC "-//W3C//DTD SVG 20010904//EN"
 "http://www.w3.org/TR/2001/REC-SVG-20010904/DTD/svg10.dtd">
<svg version="1.0" xmlns="http://www.w3.org/2000/svg"
 width="561.000000pt" height="207.000000pt" viewBox="0 0 561.000000 207.000000"
 preserveAspectRatio="xMidYMid meet">
<metadata>
Created by potrace 1.16, written by Peter Selinger 2001-2019
</metadata>
<g transform="translate(0.000000,207.000000) scale(0.100000,-0.100000)"
fill="#000000" stroke="none">
<path d="M5360 2011 c0 -45 7 -74 31 -125 l31 -66 -11 -31 c-12 -35 -96 -165
-114 -176 -6 -4 -29 -10 -52 -14 -50 -10 -116 -26 -175 -45 -59 -18 -161 -18
-207 1 -23 10 -69 15 -132 15 -55 0 -115 6 -141 14 -97 31 -139 39 -240 46
-104 8 -215 38 -329 91 -23 11 -78 31 -122 45 -43 14 -142 57 -219 95 -77 38
-145 69 -151 69 -6 0 -40 14 -76 30 -80 37 -97 37 -134 1 -23 -23 -29 -38 -29
-72 l0 -42 44 -43 43 -44 49 0 c36 0 59 -7 87 -25 45 -31 232 -125 248 -125
26 0 148 -65 196 -105 29 -23 68 -46 87 -49 18 -4 53 -24 77 -45 24 -21 60
-46 79 -56 19 -10 58 -35 85 -56 133 -103 163 -126 202 -153 23 -15 61 -52 83
-82 22 -30 49 -54 58 -54 10 0 28 -7 41 -16 28 -20 121 -207 121 -244 0 -15 7
-44 15 -63 26 -62 19 -133 -19 -212 -42 -89 -73 -120 -162 -161 l-72 -34 -212
0 -213 0 -111 37 c-61 21 -146 54 -189 75 -48 23 -92 38 -115 38 -44 0 -145
33 -183 60 -14 11 -62 37 -106 59 -44 22 -105 63 -136 91 -30 28 -64 50 -76
50 -56 0 -121 -65 -121 -120 0 -32 76 -109 140 -140 59 -30 128 -83 163 -126
17 -21 43 -38 68 -44 80 -22 89 -100 11 -100 -41 0 -126 27 -210 66 -29 13
-64 24 -78 24 -13 0 -41 7 -61 15 -19 8 -47 15 -60 15 -30 0 -85 25 -137 62
-21 15 -45 28 -53 28 -8 0 -44 13 -80 30 -35 16 -77 30 -92 30 -17 0 -37 10
-52 26 -13 14 -42 35 -64 46 -22 12 -54 32 -72 45 -17 13 -47 28 -65 34 -19 5
-52 24 -74 43 -38 33 -173 106 -195 106 -22 0 -85 34 -129 70 -25 21 -65 47
-90 60 -25 12 -66 39 -91 60 -25 21 -91 62 -147 90 -71 36 -111 63 -132 91
-19 23 -45 42 -65 48 -18 5 -88 45 -155 90 -67 45 -140 91 -163 102 -23 12
-63 39 -89 60 -25 21 -88 60 -139 86 -51 25 -109 61 -129 80 -21 18 -43 33
-50 33 -21 0 -196 87 -241 120 -25 17 -55 30 -72 30 -40 0 -188 72 -236 115
l-38 35 -65 0 -64 0 -42 -31 -42 -31 0 -73 c0 -41 5 -77 10 -80 6 -4 21 -27
34 -53 25 -49 59 -85 111 -117 16 -10 50 -37 75 -60 25 -22 61 -52 82 -65 51
-34 68 -68 68 -136 l0 -58 67 -100 c50 -74 124 -157 282 -318 118 -120 223
-231 233 -246 25 -38 26 -191 1 -220 -23 -27 -125 -62 -179 -62 -84 0 -125
-74 -68 -119 l27 -21 111 0 111 0 60 41 c82 55 103 76 131 131 l24 47 0 91 c0
108 -11 134 -103 248 -72 89 -290 311 -328 335 -30 18 -102 121 -120 170 l-12
33 22 48 c26 60 26 77 1 126 -23 44 -49 65 -98 75 -38 8 -150 109 -133 120 20
12 144 -40 192 -80 15 -12 65 -34 112 -49 54 -17 99 -39 123 -60 41 -35 114
-76 136 -76 16 0 140 -81 185 -121 19 -16 41 -29 50 -29 20 0 102 -51 163
-100 49 -40 121 -80 143 -80 8 0 32 -13 53 -30 74 -56 335 -230 377 -251 23
-12 62 -38 87 -59 45 -37 120 -80 140 -80 28 0 103 -44 152 -89 43 -39 72 -56
132 -75 44 -15 109 -47 152 -76 44 -30 107 -61 152 -75 88 -29 115 -41 157
-71 31 -23 141 -64 171 -64 28 0 237 -72 266 -92 l26 -18 119 0 119 0 53 48
c42 37 55 55 60 87 4 25 14 43 26 50 11 6 32 18 47 28 l26 18 37 -15 c21 -9
49 -16 64 -16 14 0 55 -14 89 -30 46 -22 79 -30 118 -30 29 0 71 -7 93 -16 45
-18 258 -15 326 4 22 7 51 14 65 16 14 3 54 23 90 44 36 22 77 42 91 45 15 4
41 24 58 44 67 80 120 153 140 192 l21 40 0 101 c0 111 -23 200 -64 255 -13
17 -35 53 -50 82 -18 37 -40 61 -75 84 -27 18 -62 52 -77 77 -16 24 -49 57
-74 74 -25 16 -61 53 -81 81 -27 41 -44 55 -79 66 -46 15 -134 94 -127 115 6
18 120 19 162 1 22 -8 67 -15 107 -15 38 0 84 -7 105 -15 27 -11 78 -15 213
-15 135 0 186 4 213 15 20 8 56 15 80 15 l43 0 29 30 c16 17 37 30 48 30 28 0
187 158 194 193 3 15 10 30 14 33 5 3 9 54 9 115 l0 109 -65 65 -65 65 -60 0
-60 0 0 -59z"/>
</g>
</svg>
