<?xml version="1.0" standalone="no"?>
<!DOCTYPE svg PUBLIC "-//W3C//DTD SVG 20010904//EN"
 "http://www.w3.org/TR/2001/REC-SVG-20010904/DTD/svg10.dtd">
<svg version="1.0" xmlns="http://www.w3.org/2000/svg"
 width="300.000000pt" height="345.000000pt" viewBox="0 0 300.000000 345.000000"
 preserveAspectRatio="xMidYMid meet">
<metadata>
Created by potrace 1.16, written by Peter Selinger 2001-2019
</metadata>
<g transform="translate(0.000000,345.000000) scale(0.100000,-0.100000)"
fill="#000000" stroke="none">
<path d="M2692 3427 c-31 -33 -28 -50 16 -83 20 -15 43 -35 50 -44 27 -31 52
-96 52 -135 l0 -41 -50 -47 c-70 -66 -200 -127 -272 -127 -31 0 -72 -7 -92
-15 -29 -13 -84 -16 -264 -17 l-227 0 -39 16 -38 16 -235 0 c-185 0 -241 3
-270 15 -19 8 -54 15 -76 15 -26 0 -70 14 -126 41 -47 22 -115 50 -151 61 -80
26 -90 34 -90 67 0 37 -23 66 -45 58 -14 -6 -16 -14 -11 -42 4 -21 1 -47 -9
-71 -22 -54 -20 -66 30 -133 l45 -61 32 0 c31 0 112 -37 228 -105 78 -46 302
-194 330 -219 14 -12 38 -31 55 -41 81 -51 219 -222 246 -306 6 -19 22 -62 36
-96 l25 -62 -11 -32 c-6 -18 -11 -64 -11 -103 l0 -72 -35 -72 c-38 -80 -118
-168 -175 -195 -56 -26 -153 -57 -176 -57 -12 0 -38 -7 -57 -15 -51 -21 -303
-21 -354 0 -19 8 -53 15 -75 15 -23 0 -67 13 -105 30 -35 16 -81 30 -102 30
-38 0 -123 26 -199 61 -23 11 -77 31 -120 44 -97 32 -170 66 -223 105 -48 35
-119 41 -169 15 l-30 -16 0 -67 0 -67 75 -63 c41 -34 82 -62 91 -62 21 0 64
-45 64 -68 0 -22 30 -52 52 -52 14 0 67 -63 110 -130 8 -14 35 -38 59 -54 24
-15 61 -49 81 -74 21 -26 63 -79 95 -119 32 -39 81 -101 108 -137 28 -37 64
-78 82 -92 20 -15 36 -39 43 -64 7 -26 24 -50 49 -70 21 -17 51 -53 65 -80 15
-27 39 -59 54 -70 27 -22 103 -113 186 -225 25 -33 64 -86 88 -118 24 -32 67
-85 96 -119 28 -33 52 -64 52 -69 0 -5 27 -9 60 -9 l60 0 0 33 c0 22 -11 49
-29 74 -16 22 -39 60 -51 84 -24 46 -62 103 -123 184 -58 77 -129 172 -163
219 -17 24 -58 75 -92 114 -33 39 -76 95 -95 124 -19 29 -55 77 -80 107 -25
29 -49 68 -53 85 -11 54 -42 103 -83 133 -21 15 -48 42 -60 59 -12 17 -52 63
-90 102 -38 39 -81 87 -96 107 l-28 36 14 15 15 14 84 -30 c47 -16 96 -30 108
-30 13 0 53 -14 89 -30 l64 -30 85 0 c53 0 98 -6 121 -15 43 -18 116 -20 146
-3 12 7 63 15 112 19 89 7 121 13 244 50 79 24 97 33 143 75 21 18 64 47 96
63 64 32 76 44 85 81 4 14 24 47 47 74 26 32 40 58 40 77 0 16 7 46 15 66 10
25 15 71 15 154 l0 119 -36 73 c-20 39 -48 88 -62 107 -15 19 -36 61 -47 95
l-21 60 -42 28 c-24 16 -54 46 -67 66 -29 47 -80 91 -105 91 -10 0 -28 14 -40
30 -12 17 -46 46 -77 66 -30 19 -53 40 -50 47 6 18 71 20 112 3 27 -11 71 -16
152 -16 78 0 125 -5 150 -15 27 -12 79 -15 228 -15 149 0 201 3 228 15 20 8
54 15 75 15 22 0 56 7 75 15 20 8 47 15 61 15 14 0 80 27 149 60 68 33 130 60
139 60 19 0 40 24 67 76 12 23 31 50 41 59 l20 18 0 88 c0 48 -4 91 -10 94 -5
3 -10 15 -10 26 0 32 -67 98 -113 110 -23 6 -54 20 -68 30 -37 26 -81 24 -107
-4z"/>
</g>
</svg>
