<?xml version="1.0" standalone="no"?>
<!DOCTYPE svg PUBLIC "-//W3C//DTD SVG 20010904//EN"
 "http://www.w3.org/TR/2001/REC-SVG-20010904/DTD/svg10.dtd">
<svg version="1.0" xmlns="http://www.w3.org/2000/svg"
 width="429.000000pt" height="195.000000pt" viewBox="0 0 429.000000 195.000000"
 preserveAspectRatio="xMidYMid meet">
<metadata>
Created by potrace 1.16, written by Peter Selinger 2001-2019
</metadata>
<g transform="translate(0.000000,195.000000) scale(0.100000,-0.100000)"
fill="#000000" stroke="none">
<path d="M7 1943 c-11 -11 -8 -311 3 -318 6 -3 10 -19 10 -35 0 -15 13 -57 30
-92 16 -34 30 -71 30 -80 0 -10 22 -43 50 -73 27 -30 60 -72 73 -93 14 -20 44
-50 68 -65 24 -15 60 -51 79 -80 28 -40 45 -55 77 -65 22 -7 59 -29 81 -47 22
-19 82 -56 133 -82 62 -30 110 -63 141 -95 l46 -48 34 0 c20 0 51 -12 78 -30
25 -16 52 -30 60 -30 8 0 57 -20 108 -45 52 -25 104 -45 115 -45 28 0 153 -42
206 -69 22 -12 52 -21 66 -21 15 0 56 -14 92 -30 37 -17 81 -30 104 -30 22 0
56 -7 76 -15 19 -8 45 -15 57 -15 33 0 134 -38 175 -66 19 -13 48 -24 64 -24
15 0 44 -7 64 -15 19 -8 60 -15 90 -15 29 0 70 -7 90 -15 27 -11 77 -15 210
-15 132 0 182 -4 210 -15 19 -8 46 -15 60 -15 37 0 127 -45 171 -85 26 -22 49
-35 67 -35 16 0 84 -27 152 -60 67 -33 129 -60 137 -60 8 0 18 -4 21 -10 4 -6
73 -10 174 -10 l167 0 12 33 c20 57 15 142 -12 196 -27 53 -87 111 -115 111
-9 0 -28 12 -42 26 -13 14 -55 42 -93 61 l-69 35 -66 -5 c-64 -4 -101 -12
-208 -45 l-52 -16 -114 38 c-79 26 -129 49 -161 74 -96 77 -152 118 -189 139
-20 12 -64 48 -96 80 -32 32 -70 67 -85 78 -30 22 -51 86 -33 104 15 15 61 14
104 -4 19 -8 61 -15 92 -15 41 0 72 -8 119 -30 35 -17 75 -30 88 -30 14 0 41
-7 61 -15 19 -8 47 -15 62 -15 14 0 55 -14 89 -30 l64 -30 84 0 c53 0 98 -6
121 -15 23 -10 69 -15 135 -15 65 0 111 -5 135 -15 43 -18 146 -20 176 -3 23
12 186 30 272 29 114 -1 206 51 286 161 l49 68 0 114 0 114 -34 26 c-43 32
-73 33 -117 3 l-34 -23 -5 -115 c-3 -78 -10 -122 -19 -133 -32 -39 -176 -86
-262 -86 -38 0 -83 -7 -104 -16 l-38 -16 -41 15 c-28 10 -88 15 -183 16 -103
0 -153 5 -179 16 -20 8 -61 15 -91 15 -29 0 -70 7 -90 15 -19 8 -53 15 -75 15
-21 0 -55 7 -75 15 -19 8 -45 15 -56 15 -12 0 -81 20 -154 45 -73 25 -140 45
-150 45 -38 0 -215 68 -241 92 -66 62 -91 59 -169 -15 l-53 -50 0 -59 c0 -73
30 -163 76 -231 19 -29 87 -102 150 -164 65 -62 114 -117 112 -125 -7 -20
-128 -23 -173 -3 -24 9 -68 15 -122 15 -89 0 -128 12 -188 56 -38 29 -144 64
-190 64 -20 0 -52 7 -72 15 -19 8 -45 15 -57 15 -27 0 -243 73 -295 99 -22 12
-51 21 -63 21 -28 0 -123 32 -196 66 -29 13 -58 24 -65 24 -7 0 -29 11 -49 25
-20 14 -70 41 -110 61 -40 20 -93 53 -118 74 -25 20 -69 49 -98 64 -28 14 -83
56 -121 92 -39 36 -81 69 -94 72 -41 12 -186 178 -223 256 -19 39 -34 81 -34
93 0 12 -12 57 -26 100 -14 43 -23 90 -20 104 5 26 -13 100 -34 138 -8 16 -21
21 -54 21 -23 0 -46 -3 -49 -7z m3318 -1678 c64 -19 169 -70 185 -91 l13 -15
-14 -14 -14 -14 -110 37 c-155 53 -176 67 -143 100 15 15 22 15 83 -3z"/>
</g>
</svg>
