<?xml version="1.0" standalone="no"?>
<!DOCTYPE svg PUBLIC "-//W3C//DTD SVG 20010904//EN"
 "http://www.w3.org/TR/2001/REC-SVG-20010904/DTD/svg10.dtd">
<svg version="1.0" xmlns="http://www.w3.org/2000/svg"
 width="258.000000pt" height="252.000000pt" viewBox="0 0 258.000000 252.000000"
 preserveAspectRatio="xMidYMid meet">
<metadata>
Created by potrace 1.16, written by Peter Selinger 2001-2019
</metadata>
<g transform="translate(0.000000,252.000000) scale(0.100000,-0.100000)"
fill="#000000" stroke="none">
<path d="M2240 2487 c0 -22 11 -49 31 -77 48 -67 89 -160 89 -205 0 -28 -9
-54 -30 -85 -16 -25 -30 -53 -30 -62 0 -23 -43 -51 -121 -76 l-65 -22 -153 0
c-112 0 -161 4 -188 15 -23 10 -69 15 -132 15 -55 0 -115 6 -141 14 -57 18
-124 35 -175 45 -22 4 -95 26 -162 49 -68 23 -132 42 -144 42 -11 0 -50 14
-86 30 -35 17 -70 30 -76 30 -7 0 -32 14 -57 30 -25 16 -58 30 -74 30 -47 0
-170 65 -204 108 -23 29 -42 41 -81 51 -59 15 -86 10 -124 -20 l-27 -20 0 -54
0 -53 65 -60 c36 -33 96 -76 133 -95 77 -41 103 -63 137 -117 13 -21 37 -47
53 -59 40 -28 62 -78 62 -141 0 -49 -21 -113 -42 -126 -15 -9 -66 16 -148 72
-140 95 -220 124 -345 124 -92 0 -128 -12 -177 -58 l-28 -26 0 -62 c0 -35 4
-66 10 -69 5 -3 10 -16 10 -28 0 -34 160 -182 242 -223 l68 -34 145 0 146 0
42 -20 c52 -25 66 -35 102 -83 15 -21 50 -49 76 -63 26 -13 56 -35 66 -50 41
-59 78 -96 114 -115 21 -10 85 -66 141 -123 64 -64 123 -114 156 -131 29 -15
61 -39 70 -53 9 -14 37 -44 61 -68 24 -23 57 -55 73 -72 17 -16 50 -49 74 -73
187 -187 233 -237 253 -278 12 -22 43 -59 71 -83 27 -24 50 -52 50 -62 0 -11
19 -36 42 -58 l41 -38 63 0 62 0 6 25 c8 32 -24 97 -63 126 -16 12 -47 46 -68
77 -21 30 -77 97 -125 149 -49 52 -88 99 -88 105 0 8 -245 270 -352 375 -158
157 -420 403 -443 418 -42 26 -122 102 -167 158 -53 68 -52 99 10 174 l47 58
5 150 5 150 62 3 c39 2 75 -3 98 -13 21 -8 47 -15 58 -15 11 0 82 -20 156 -44
169 -55 211 -66 286 -75 34 -5 70 -13 82 -19 35 -19 431 -16 476 3 20 8 56 15
81 15 l44 0 44 36 c23 20 60 47 80 60 24 15 47 43 64 75 14 28 39 69 55 92 18
25 29 52 29 73 0 18 5 36 10 39 6 3 10 21 10 40 0 19 -4 37 -10 40 -5 3 -10
14 -10 23 0 9 -20 46 -44 82 -34 51 -59 75 -107 103 l-62 37 -53 0 -54 0 0
-33z m-1908 -821 c40 -19 86 -48 102 -65 l29 -30 -13 -16 c-19 -23 -53 -18
-98 15 -23 17 -45 30 -50 30 -4 0 -23 16 -42 35 l-33 34 13 16 c7 8 14 15 16
15 2 0 36 -15 76 -34z"/>
</g>
</svg>
