<?xml version="1.0" standalone="no"?>
<!DOCTYPE svg PUBLIC "-//W3C//DTD SVG 20010904//EN"
 "http://www.w3.org/TR/2001/REC-SVG-20010904/DTD/svg10.dtd">
<svg version="1.0" xmlns="http://www.w3.org/2000/svg"
 width="744.000000pt" height="186.000000pt" viewBox="0 0 744.000000 186.000000"
 preserveAspectRatio="xMidYMid meet">
<metadata>
Created by potrace 1.16, written by Peter Selinger 2001-2019
</metadata>
<g transform="translate(0.000000,186.000000) scale(0.100000,-0.100000)"
fill="#000000" stroke="none">
<path d="M23 1846 c-17 -8 -23 -19 -23 -46 l0 -35 49 -18 c37 -13 81 -17 190
-17 103 0 151 -4 178 -15 26 -11 76 -15 195 -15 118 0 168 -4 195 -15 l35 -15
277 0 277 0 84 -30 85 -30 458 0 458 0 36 -15 c26 -11 74 -15 177 -15 l142 0
89 -31 c71 -25 99 -30 137 -26 l48 6 0 -36 0 -36 118 -120 c64 -65 135 -130
156 -144 22 -14 60 -44 85 -67 57 -51 122 -96 181 -126 25 -12 66 -40 92 -61
30 -25 73 -47 125 -64 89 -29 116 -41 158 -71 47 -34 112 -64 137 -64 32 0
127 -33 218 -76 41 -20 108 -47 150 -60 41 -13 99 -36 128 -49 29 -14 58 -25
65 -25 6 0 37 -12 67 -26 82 -38 165 -64 205 -64 20 0 52 -7 72 -15 19 -8 53
-15 75 -15 21 0 55 -7 75 -15 19 -8 60 -15 90 -15 29 0 70 -7 90 -15 22 -9 68
-15 122 -15 l87 0 29 -30 29 -30 58 0 c32 0 75 -7 95 -15 19 -8 53 -15 75 -15
43 0 148 -44 201 -84 33 -25 142 -66 175 -66 29 0 132 -39 171 -66 19 -13 50
-24 68 -24 17 0 35 -5 38 -10 3 -6 48 -10 99 -10 l93 0 41 38 42 39 0 52 c0
71 -37 143 -92 177 -23 15 -62 46 -87 69 -31 29 -67 50 -108 64 l-62 21 -293
0 -293 0 -48 55 c-27 31 -60 58 -75 61 -41 10 -239 217 -269 280 -23 52 -23
78 2 88 19 7 120 -30 164 -60 19 -13 49 -24 66 -24 16 0 55 -12 85 -26 95 -44
317 -111 410 -123 30 -4 71 -12 90 -18 67 -21 125 -35 185 -42 34 -5 70 -13
82 -19 12 -7 54 -12 93 -12 40 0 86 -6 107 -15 26 -11 75 -15 184 -15 l149 0
78 39 c83 42 143 98 185 173 15 26 36 50 47 53 l20 6 0 99 0 99 -23 18 c-12
10 -36 35 -51 56 -57 75 -117 86 -165 32 -17 -20 -31 -39 -31 -43 0 -4 15 -31
33 -61 50 -84 66 -115 67 -131 0 -8 -30 -50 -68 -92 l-67 -78 -30 0 c-17 0
-41 -8 -55 -17 -19 -13 -42 -16 -114 -14 -50 2 -106 9 -125 17 -23 10 -74 14
-165 14 l-131 0 -63 30 c-37 18 -80 30 -103 30 -22 0 -56 7 -76 15 -19 8 -45
15 -56 15 -12 0 -81 20 -154 45 -73 25 -143 45 -155 45 -13 0 -43 14 -68 30
-25 16 -52 30 -60 30 -22 0 -254 115 -302 150 l-41 30 -55 0 -55 0 -43 -44
-44 -43 0 -115 0 -114 33 -47 c18 -25 52 -66 75 -89 23 -24 62 -63 87 -88 24
-25 63 -62 87 -82 l43 -37 -16 -16 -16 -16 -38 15 c-21 9 -61 16 -89 16 -28 0
-71 6 -96 14 -78 25 -133 37 -195 45 -34 5 -70 13 -82 19 -12 7 -39 12 -60 12
-21 0 -85 16 -143 35 -121 41 -141 50 -194 87 -21 16 -51 28 -65 28 -29 0
-121 30 -188 61 -24 10 -98 37 -166 60 -94 31 -135 50 -172 80 -26 21 -54 39
-63 39 -26 0 -193 85 -272 138 -41 28 -100 74 -130 102 -30 28 -80 70 -110 93
-75 59 -136 137 -154 198 -20 66 -79 145 -127 169 l-38 20 -294 0 -293 0 -84
30 -85 30 -473 0 -473 0 -36 15 -35 15 -445 0 -444 0 -36 15 c-20 9 -66 15
-109 15 -40 0 -76 5 -79 10 -9 14 -69 12 -83 -2 -10 -10 -17 -10 -32 0 -24 15
-96 14 -127 -2z m6446 -1578 c86 -28 123 -54 119 -82 -7 -47 -108 -22 -242 62
-30 18 -36 26 -25 33 24 15 79 10 148 -13z"/>
</g>
</svg>
