<?xml version="1.0" standalone="no"?>
<!DOCTYPE svg PUBLIC "-//W3C//DTD SVG 20010904//EN"
 "http://www.w3.org/TR/2001/REC-SVG-20010904/DTD/svg10.dtd">
<svg version="1.0" xmlns="http://www.w3.org/2000/svg"
 width="525.000000pt" height="210.000000pt" viewBox="0 0 525.000000 210.000000"
 preserveAspectRatio="xMidYMid meet">
<metadata>
Created by potrace 1.16, written by Peter Selinger 2001-2019
</metadata>
<g transform="translate(0.000000,210.000000) scale(0.100000,-0.100000)"
fill="#000000" stroke="none">
<path d="M23 2074 l-23 -25 0 -99 c0 -55 4 -108 9 -118 5 -9 24 -50 42 -91 19
-41 46 -91 61 -111 14 -21 36 -56 47 -78 11 -22 34 -50 51 -62 35 -25 99 -120
111 -165 6 -20 75 -95 212 -230 203 -199 253 -242 377 -322 36 -23 82 -55 103
-70 71 -51 95 -68 162 -108 36 -22 84 -53 106 -70 22 -16 54 -40 71 -52 17
-13 45 -27 64 -32 18 -5 66 -32 108 -60 81 -54 148 -91 166 -91 19 0 139 -58
173 -84 18 -14 93 -45 168 -69 74 -25 153 -53 175 -64 21 -11 52 -23 68 -27
17 -4 42 -16 57 -27 21 -14 44 -19 98 -19 l71 0 0 19 c0 36 -39 67 -151 120
-120 56 -132 62 -244 122 -39 21 -113 52 -165 69 -52 16 -114 44 -137 61 -24
16 -102 59 -174 95 -72 36 -149 79 -171 95 -23 16 -49 29 -60 29 -10 0 -45 26
-77 58 -32 32 -90 75 -127 95 -38 20 -94 57 -124 82 -30 24 -73 57 -95 71 -60
41 -379 365 -394 402 -7 18 -17 32 -22 32 -13 0 -99 119 -99 137 0 22 46 8 91
-28 20 -16 40 -29 44 -29 3 0 21 -11 38 -24 18 -13 52 -34 77 -46 25 -12 66
-40 92 -62 27 -21 108 -69 180 -105 73 -36 147 -76 163 -89 17 -12 62 -33 100
-45 39 -12 84 -34 100 -49 67 -60 106 -80 235 -123 74 -24 168 -61 207 -81 40
-20 84 -36 98 -36 14 0 42 -7 62 -15 19 -8 45 -15 57 -15 27 0 152 -43 205
-69 22 -12 53 -21 69 -21 18 0 38 -10 57 -30 l29 -30 85 0 c47 0 106 -6 131
-14 98 -31 139 -39 240 -45 58 -4 115 -12 127 -19 12 -7 54 -12 93 -12 40 0
86 -6 107 -15 19 -8 60 -15 90 -15 29 0 70 -7 90 -15 19 -8 46 -15 60 -15 41
0 109 -38 141 -77 24 -30 44 -42 94 -57 34 -10 101 -36 148 -58 130 -61 191
-78 270 -78 51 0 82 6 109 20 42 21 111 108 111 140 0 11 -16 52 -35 90 -26
51 -46 77 -74 95 -22 13 -54 37 -73 53 -41 36 -76 54 -156 81 -75 26 -211 29
-265 6 -26 -11 -73 -15 -166 -15 l-129 0 -44 34 c-24 19 -65 48 -93 64 -64 38
-230 198 -256 247 l-21 38 14 8 c24 15 59 9 125 -21 35 -16 70 -30 76 -30 7 0
41 -14 75 -30 35 -17 75 -30 88 -30 14 0 41 -7 61 -15 19 -8 54 -15 77 -15 34
0 48 -6 71 -30 18 -18 39 -30 55 -30 14 0 64 -13 110 -30 53 -18 105 -30 138
-30 29 0 69 -7 89 -15 22 -9 67 -15 120 -15 52 0 97 -6 120 -15 26 -11 74 -15
180 -15 105 0 153 -4 180 -15 41 -17 145 -20 174 -4 11 6 41 14 67 19 135 25
267 69 294 97 13 14 48 45 79 68 38 30 61 57 73 87 10 23 22 51 27 60 12 24
11 165 -1 173 -6 3 -10 27 -10 53 0 27 -7 57 -16 70 -21 31 -106 72 -147 72
-63 0 -81 -47 -53 -139 8 -25 20 -69 26 -97 l11 -52 -29 -63 c-48 -105 -72
-123 -252 -183 -117 -40 -178 -45 -241 -20 l-40 17 -55 -19 -55 -18 -48 17
c-27 9 -72 17 -100 17 -28 0 -68 7 -88 15 -19 8 -53 15 -75 15 -21 0 -55 7
-75 15 -20 8 -66 15 -105 15 -38 0 -84 7 -105 15 -19 8 -60 15 -91 15 l-55 0
-124 60 c-69 33 -134 60 -145 60 -39 0 -152 43 -291 112 -76 37 -144 68 -151
68 -7 0 -30 11 -50 25 -45 31 -70 31 -121 2 -52 -29 -88 -90 -80 -137 13 -89
23 -128 40 -160 26 -52 132 -153 191 -184 55 -29 68 -42 98 -95 l18 -33 -13
-9 c-22 -14 -86 -11 -126 6 -19 8 -60 15 -90 15 -29 0 -70 7 -90 15 -19 8 -53
15 -75 15 -21 0 -55 7 -75 15 -19 8 -45 15 -56 15 -11 0 -161 47 -334 105
-172 58 -324 105 -336 105 -12 0 -76 26 -142 58 -66 32 -155 69 -199 82 -54
17 -92 37 -120 62 -23 20 -93 62 -156 94 -63 32 -130 72 -150 89 -38 35 -91
65 -112 65 -8 0 -51 25 -96 55 -46 30 -102 65 -125 76 -55 28 -112 72 -163
126 -22 24 -48 43 -57 43 -28 0 -176 158 -209 223 -16 33 -45 83 -64 110 -19
27 -34 55 -34 63 0 11 -18 14 -77 13 l-78 -1 -22 -24z m3862 -1595 c90 -30
117 -45 149 -78 l29 -30 -13 -16 c-34 -41 -224 -3 -287 58 -40 38 -41 52 -5
71 37 20 57 20 127 -5z"/>
</g>
</svg>
