<?xml version="1.0" standalone="no"?>
<!DOCTYPE svg PUBLIC "-//W3C//DTD SVG 20010904//EN"
 "http://www.w3.org/TR/2001/REC-SVG-20010904/DTD/svg10.dtd">
<svg version="1.0" xmlns="http://www.w3.org/2000/svg"
 width="666.000000pt" height="282.000000pt" viewBox="0 0 666.000000 282.000000"
 preserveAspectRatio="xMidYMid meet">
<metadata>
Created by potrace 1.16, written by Peter Selinger 2001-2019
</metadata>
<g transform="translate(0.000000,282.000000) scale(0.100000,-0.100000)"
fill="#000000" stroke="none">
<path d="M0 2785 l0 -34 32 -17 c18 -9 67 -40 108 -69 78 -55 197 -118 240
-128 14 -4 43 -22 65 -40 22 -19 117 -73 210 -121 94 -48 195 -103 225 -122
30 -19 73 -39 95 -45 43 -12 119 -51 205 -105 30 -19 69 -38 86 -43 17 -5 71
-35 121 -68 50 -33 106 -65 124 -72 19 -7 48 -19 64 -28 93 -50 144 -80 179
-105 21 -15 47 -28 57 -28 30 0 382 -180 429 -219 52 -44 111 -75 158 -86 17
-3 54 -22 81 -40 26 -18 95 -57 152 -85 57 -29 124 -69 149 -90 65 -53 122
-80 173 -80 32 0 49 -6 63 -21 32 -36 106 -86 184 -124 41 -21 95 -54 119 -74
50 -39 290 -202 361 -243 25 -14 54 -36 65 -48 11 -12 50 -37 86 -55 70 -36
188 -113 229 -150 34 -31 84 -55 115 -55 39 0 88 -24 133 -64 22 -20 45 -36
52 -36 23 0 85 -33 130 -70 45 -37 179 -110 201 -110 18 0 81 -32 123 -62 21
-15 47 -28 57 -28 10 0 21 -5 24 -10 8 -12 285 -14 285 -1 0 5 25 36 55 70
l55 62 0 65 0 64 -34 68 c-38 75 -48 86 -88 96 -32 7 -129 94 -159 142 l-21
35 16 42 c9 24 16 71 16 105 0 35 5 72 10 83 12 21 44 25 85 9 17 -7 39 -6 69
2 l44 12 44 -17 c24 -9 67 -17 96 -17 29 0 69 -7 89 -15 19 -8 60 -15 89 -15
29 0 71 -7 92 -15 l38 -16 245 4 c161 2 259 8 289 16 25 7 116 36 203 64 l159
51 44 50 44 51 0 102 c0 63 -4 103 -10 103 -6 0 -24 13 -40 29 -17 16 -44 34
-59 41 l-29 12 -31 -16 -31 -17 6 -84 7 -84 -16 -25 c-20 -31 -111 -75 -247
-121 l-105 -35 -213 0 c-167 0 -220 3 -249 15 -19 8 -65 15 -102 15 -36 0 -86
6 -111 14 -101 32 -140 39 -255 45 -66 4 -130 12 -142 19 -12 6 -32 12 -45 12
-28 0 -123 32 -196 66 -29 13 -58 24 -65 24 -6 0 -32 14 -57 30 -25 16 -51 30
-58 30 -8 0 -43 13 -79 30 -35 16 -72 30 -82 30 -28 0 -65 -35 -85 -79 l-19
-40 20 -33 c22 -39 86 -78 126 -78 37 0 85 -23 167 -79 115 -78 131 -93 128
-115 l-3 -21 -63 -5 -64 -5 -24 -28 c-54 -63 -20 -142 89 -206 29 -17 79 -54
112 -82 33 -27 70 -52 83 -56 13 -3 57 -39 98 -80 l74 -74 0 -30 c0 -17 -5
-39 -10 -50 l-11 -19 -55 0 c-60 0 -104 17 -168 62 -21 15 -45 28 -53 28 -23
0 -137 55 -184 89 -23 17 -49 31 -59 31 -9 0 -29 14 -45 30 -16 17 -35 30 -43
30 -29 0 -149 63 -201 106 -38 32 -62 44 -85 44 -23 0 -67 23 -161 87 -72 47
-148 91 -170 96 -26 7 -55 27 -85 58 -27 28 -75 62 -120 84 -41 21 -96 55
-121 76 -26 21 -68 48 -95 60 -65 29 -63 28 -128 80 -31 25 -98 66 -149 91
-51 25 -109 59 -129 76 -23 18 -54 31 -83 35 -43 6 -105 38 -235 120 -30 19
-70 38 -87 42 -18 3 -76 36 -129 72 -54 36 -117 71 -141 78 -24 7 -83 40 -132
73 -95 65 -162 102 -184 102 -22 0 -249 114 -298 149 -23 17 -49 31 -58 31 -9
0 -29 9 -46 21 -49 33 -177 96 -212 103 -17 4 -51 24 -75 45 -45 40 -98 71
-120 71 -25 0 -141 61 -190 100 -40 31 -55 38 -78 34 -20 -5 -39 1 -66 20 -21
14 -45 26 -52 26 -28 0 -149 63 -194 101 -26 22 -69 46 -96 54 -26 8 -63 26
-82 41 -41 30 -234 128 -271 137 -14 4 -46 22 -72 42 -32 25 -56 35 -81 35
l-36 0 0 -35z"/>
</g>
</svg>
