<?xml version="1.0" standalone="no"?>
<!DOCTYPE svg PUBLIC "-//W3C//DTD SVG 20010904//EN"
 "http://www.w3.org/TR/2001/REC-SVG-20010904/DTD/svg10.dtd">
<svg version="1.0" xmlns="http://www.w3.org/2000/svg"
 width="540.000000pt" height="276.000000pt" viewBox="0 0 540.000000 276.000000"
 preserveAspectRatio="xMidYMid meet">
<metadata>
Created by potrace 1.16, written by Peter Selinger 2001-2019
</metadata>
<g transform="translate(0.000000,276.000000) scale(0.100000,-0.100000)"
fill="#000000" stroke="none">
<path d="M40 2746 c0 -7 -9 -25 -20 -39 l-20 -25 0 -90 c0 -50 4 -93 9 -96 5
-3 11 -23 14 -43 15 -112 86 -322 123 -364 17 -20 50 -72 73 -115 22 -44 61
-102 86 -131 25 -28 45 -58 45 -66 0 -26 49 -75 123 -124 40 -26 92 -63 116
-82 74 -58 155 -111 172 -111 8 0 26 -12 40 -26 13 -14 53 -41 89 -59 36 -18
108 -62 160 -97 52 -35 111 -69 130 -76 19 -7 49 -21 65 -29 154 -84 194 -102
218 -103 15 0 44 -7 64 -15 19 -8 45 -15 57 -15 44 0 194 -59 216 -85 17 -20
-3 -45 -37 -45 -36 0 -116 -44 -151 -85 l-32 -36 0 -95 0 -95 24 -47 c25 -49
59 -85 111 -117 17 -10 57 -44 90 -75 89 -83 298 -220 337 -220 7 0 30 -11 50
-25 65 -44 176 -95 207 -95 16 0 33 -4 36 -10 4 -6 73 -10 175 -10 l169 0 38
47 c21 25 59 70 86 100 l47 53 0 113 0 112 -30 45 c-16 25 -30 51 -30 58 0 8
-22 58 -50 111 -54 105 -61 128 -32 115 9 -4 100 -10 202 -14 120 -3 193 -9
207 -17 12 -7 46 -13 75 -13 29 0 73 -6 98 -14 60 -19 125 -35 182 -46 26 -5
56 -14 67 -20 13 -6 69 -10 148 -8 l127 3 23 34 c27 41 30 82 5 103 -9 9 -37
26 -61 38 l-44 22 -58 -6 -58 -7 -53 21 c-29 12 -63 26 -74 30 -12 5 -37 21
-55 37 -19 16 -52 40 -74 52 -22 13 -62 47 -88 77 -29 32 -61 57 -79 62 -32 8
-34 10 -62 76 -25 58 -11 65 76 36 40 -13 103 -39 141 -57 65 -32 125 -53 237
-83 25 -7 86 -16 135 -20 55 -5 117 -18 160 -34 39 -14 79 -26 90 -26 11 0 53
-11 93 -25 47 -16 108 -27 170 -31 53 -4 112 -13 131 -20 48 -20 286 -19 334
1 22 9 69 15 119 15 95 0 186 27 277 83 31 19 68 37 82 40 32 8 99 80 99 106
0 11 4 23 10 26 6 3 10 42 10 85 0 43 -4 82 -10 85 -5 3 -10 15 -10 25 0 48
-158 170 -221 170 -70 0 -77 -40 -20 -108 36 -43 91 -147 91 -173 0 -5 -11
-27 -25 -47 -14 -20 -25 -44 -25 -54 0 -23 -52 -58 -97 -64 -21 -3 -55 -12
-76 -20 -23 -9 -76 -14 -136 -14 -65 0 -111 -5 -134 -15 -20 -8 -66 -15 -102
-15 -36 0 -82 7 -102 15 -20 8 -66 15 -105 15 -38 0 -84 7 -105 15 -19 8 -65
15 -102 15 -49 0 -90 8 -151 30 -47 16 -96 30 -110 30 -14 0 -54 14 -88 30
-47 22 -79 30 -118 30 -30 0 -71 7 -91 15 -19 8 -45 15 -57 15 -35 0 -126 36
-191 74 -33 20 -76 41 -96 46 -43 12 -72 26 -114 56 -52 37 -113 64 -145 64
-63 0 -180 -81 -180 -124 1 -86 89 -229 174 -283 22 -14 70 -53 107 -87 38
-33 83 -73 100 -87 19 -15 29 -30 25 -37 -11 -18 -178 -15 -223 3 -19 8 -53
15 -74 15 -21 0 -57 7 -79 16 -30 12 -55 15 -98 10 -68 -9 -71 -9 -237 2 -71
4 -140 13 -152 20 -12 7 -34 12 -48 12 -14 0 -50 11 -80 25 -89 40 -353 125
-391 125 -20 0 -65 14 -101 30 -35 17 -70 30 -76 30 -7 0 -41 14 -75 30 -35
17 -74 30 -86 30 -50 0 -218 70 -286 119 -22 16 -55 32 -74 35 -18 4 -54 24
-79 46 -25 22 -50 40 -57 40 -18 0 -81 31 -117 58 -17 13 -47 28 -67 33 -19 5
-59 31 -88 57 -29 26 -66 56 -83 67 -16 10 -57 44 -90 75 -33 31 -80 68 -105
81 -69 36 -78 46 -131 149 -27 52 -68 117 -91 144 -32 37 -51 75 -75 145 -18
53 -33 104 -33 114 0 11 -14 58 -31 107 l-30 88 15 37 c9 21 16 64 16 96 l0
59 -60 0 c-44 0 -60 -4 -60 -14z m2207 -1961 c19 -8 65 -15 101 -15 84 0 176
-31 235 -78 26 -21 58 -45 72 -56 16 -10 47 -60 76 -119 l49 -100 0 -100 c0
-109 -11 -142 -60 -171 -36 -21 -148 -21 -197 -1 -19 8 -47 15 -61 15 -35 0
-185 74 -230 114 -40 36 -92 66 -115 66 -8 0 -32 13 -53 30 -21 16 -63 46 -92
66 -29 20 -70 57 -90 82 -20 25 -52 62 -69 82 -26 29 -33 46 -33 78 l0 41 31
22 c19 13 54 25 93 29 33 4 72 12 86 18 39 17 214 15 257 -3z"/>
</g>
</svg>
