<?xml version="1.0" standalone="no"?>
<!DOCTYPE svg PUBLIC "-//W3C//DTD SVG 20010904//EN"
 "http://www.w3.org/TR/2001/REC-SVG-20010904/DTD/svg10.dtd">
<svg version="1.0" xmlns="http://www.w3.org/2000/svg"
 width="303.000000pt" height="174.000000pt" viewBox="0 0 303.000000 174.000000"
 preserveAspectRatio="xMidYMid meet">
<metadata>
Created by potrace 1.16, written by Peter Selinger 2001-2019
</metadata>
<g transform="translate(0.000000,174.000000) scale(0.100000,-0.100000)"
fill="#000000" stroke="none">
<path d="M22 1726 l-23 -11 3 -128 3 -129 60 -31 c33 -18 78 -45 100 -60 22
-15 47 -27 55 -27 8 0 32 -11 52 -25 20 -13 67 -34 105 -46 38 -12 82 -35 98
-51 17 -15 37 -28 45 -28 8 0 40 -12 70 -27 30 -14 83 -29 117 -33 35 -4 73
-16 88 -27 31 -22 65 -108 65 -163 0 -48 -19 -72 -82 -105 -70 -36 -88 -53
-88 -82 0 -39 26 -79 79 -117 65 -48 139 -131 148 -165 8 -36 40 -99 69 -138
14 -18 27 -46 30 -63 l7 -30 -38 -35 c-36 -34 -95 -66 -145 -78 -41 -11 -90
-46 -90 -65 0 -10 10 -28 23 -40 l23 -22 77 0 c42 0 79 5 82 10 3 6 20 10 36
10 69 0 141 65 198 177 28 57 27 89 -9 165 -16 34 -30 77 -30 94 0 21 -9 39
-30 59 -16 16 -30 38 -30 49 0 12 -25 44 -60 78 -37 34 -60 65 -60 78 0 12 18
51 40 87 42 71 47 91 29 141 -12 35 -1 65 32 82 16 9 38 5 109 -19 70 -25 105
-31 168 -31 45 0 93 -6 109 -12 23 -11 376 -27 583 -28 168 0 500 17 523 28
16 6 47 12 69 12 32 0 48 7 78 34 21 19 68 49 105 68 37 18 75 43 84 56 9 13
42 56 74 97 l57 73 0 45 c0 25 -5 49 -10 52 -6 4 -28 41 -49 83 -27 53 -59 96
-103 138 -93 90 -139 99 -173 34 -22 -42 -19 -64 14 -87 15 -12 35 -41 43 -65
9 -24 26 -66 38 -94 l23 -51 -39 -64 c-80 -130 -154 -179 -272 -179 -39 0 -85
-7 -105 -15 -20 -8 -53 -15 -73 -15 -20 0 -58 -8 -85 -17 l-49 -18 -47 17 -48
16 -293 1 c-234 1 -301 4 -329 16 -20 8 -53 15 -75 15 -21 0 -55 7 -75 15 -19
8 -65 15 -100 15 -40 0 -93 9 -136 23 l-71 22 -81 84 c-44 46 -96 94 -116 107
-21 13 -50 42 -66 66 -18 27 -41 47 -61 53 -17 6 -44 22 -59 37 -16 14 -56 40
-91 58 -35 19 -71 44 -81 56 -10 13 -40 33 -67 45 -27 12 -57 26 -66 30 -26
13 -279 9 -306 -5z m348 -199 c24 -12 54 -36 65 -54 11 -18 40 -42 65 -55 55
-28 90 -57 90 -75 0 -24 -44 -14 -95 22 -27 20 -73 43 -102 51 -73 21 -103 38
-143 79 l-35 36 15 9 c26 17 94 11 140 -13z"/>
</g>
</svg>
