<?xml version="1.0" standalone="no"?>
<!DOCTYPE svg PUBLIC "-//W3C//DTD SVG 20010904//EN"
 "http://www.w3.org/TR/2001/REC-SVG-20010904/DTD/svg10.dtd">
<svg version="1.0" xmlns="http://www.w3.org/2000/svg"
 width="420.000000pt" height="162.000000pt" viewBox="0 0 420.000000 162.000000"
 preserveAspectRatio="xMidYMid meet">
<metadata>
Created by potrace 1.16, written by Peter Selinger 2001-2019
</metadata>
<g transform="translate(0.000000,162.000000) scale(0.100000,-0.100000)"
fill="#000000" stroke="none">
<path d="M1433 1584 c-28 -43 -29 -64 -3 -114 26 -51 55 -70 108 -70 23 0 59
-7 79 -15 19 -8 53 -15 75 -15 27 0 59 -12 106 -39 217 -127 294 -191 333
-276 14 -31 19 -64 19 -146 l0 -105 30 -29 c17 -16 30 -35 30 -42 0 -19 50
-120 66 -134 8 -6 14 -20 14 -30 0 -27 -35 -24 -58 6 -21 27 -139 89 -189 100
-17 3 -51 23 -75 44 -44 39 -98 71 -118 71 -19 0 -81 32 -124 62 -21 15 -45
28 -53 28 -14 0 -99 47 -203 113 -30 19 -70 43 -89 52 -19 9 -52 30 -74 46
-22 16 -47 29 -54 29 -25 0 -84 32 -173 92 -47 32 -91 58 -98 58 -7 0 -43 18
-80 40 -36 22 -82 45 -102 50 -19 5 -59 21 -88 35 -28 14 -63 25 -78 25 -37 0
-127 44 -171 83 -53 47 -140 61 -248 40 -57 -11 -158 -75 -193 -122 l-22 -30
0 -86 0 -85 45 -63 c25 -34 53 -84 61 -112 8 -27 20 -60 27 -72 22 -40 179
-204 220 -230 22 -14 61 -44 86 -67 98 -88 155 -120 304 -170 l107 -36 145 0
146 0 47 24 c95 49 199 198 186 265 l-6 30 26 12 c20 9 34 10 59 1 169 -57
218 -79 290 -126 45 -30 96 -57 114 -61 17 -3 51 -24 75 -45 24 -21 89 -61
144 -89 54 -27 121 -68 148 -90 26 -23 56 -41 65 -41 9 0 57 -27 106 -60 50
-33 97 -60 106 -60 8 0 26 -12 40 -26 25 -27 89 -64 111 -64 7 0 40 -27 73
-60 32 -33 67 -60 77 -60 9 0 20 -4 23 -10 8 -13 72 -13 80 0 3 6 15 10 25 10
32 0 50 39 50 106 0 69 -17 94 -65 94 -17 0 -41 12 -64 33 -50 44 -154 125
-210 164 -25 17 -62 55 -81 85 -19 29 -61 78 -92 110 -32 31 -58 62 -58 68 0
20 -38 85 -64 109 l-26 24 0 158 0 158 16 16 c9 9 22 14 28 12 6 -2 66 -23
133 -46 l123 -41 95 0 c62 0 108 -5 132 -15 19 -8 53 -15 75 -15 21 0 55 -7
75 -15 19 -8 60 -15 90 -15 29 0 70 -7 90 -15 19 -8 53 -15 75 -15 21 0 55 -7
75 -15 51 -21 375 -21 426 0 20 8 48 15 62 15 14 0 73 24 131 52 l107 53 73
78 74 79 0 89 c0 49 -4 97 -8 107 -5 9 -15 31 -23 47 -17 36 -90 79 -118 70
-11 -3 -31 -15 -45 -26 l-26 -20 0 -49 c0 -26 7 -65 16 -85 l16 -38 -17 -43
c-9 -24 -30 -54 -47 -66 -17 -13 -50 -42 -73 -65 l-42 -43 -322 0 -322 0 -36
15 c-19 8 -52 15 -72 15 -20 0 -56 6 -81 14 -60 19 -125 35 -182 46 -26 5 -56
13 -67 19 -11 6 -52 11 -91 11 -40 0 -86 6 -107 15 -19 8 -47 15 -60 15 -14 0
-54 14 -90 30 -35 17 -69 30 -74 30 -6 0 -35 11 -65 25 -31 14 -110 43 -177
65 -67 22 -155 56 -196 75 -82 40 -181 75 -209 75 -20 0 -118 33 -129 43 -3 4
-27 7 -52 7 l-46 -1 -22 -35z m-955 -289 c64 -31 107 -45 134 -45 45 0 198
-68 269 -120 23 -16 49 -30 58 -30 8 0 57 -21 108 -46 l92 -45 37 -50 37 -50
-12 -38 c-6 -21 -11 -69 -11 -107 0 -83 -13 -106 -75 -134 -89 -41 -206 -21
-378 62 -43 21 -90 38 -105 38 -18 0 -39 11 -57 30 -16 17 -36 30 -46 30 -16
0 -96 96 -166 198 -18 26 -50 70 -73 98 -75 95 -92 183 -45 229 l24 25 58 0
58 0 93 -45z"/>
</g>
</svg>
