<?xml version="1.0" standalone="no"?>
<!DOCTYPE svg PUBLIC "-//W3C//DTD SVG 20010904//EN"
 "http://www.w3.org/TR/2001/REC-SVG-20010904/DTD/svg10.dtd">
<svg version="1.0" xmlns="http://www.w3.org/2000/svg"
 width="756.000000pt" height="345.000000pt" viewBox="0 0 756.000000 345.000000"
 preserveAspectRatio="xMidYMid meet">
<metadata>
Created by potrace 1.16, written by Peter Selinger 2001-2019
</metadata>
<g transform="translate(0.000000,345.000000) scale(0.100000,-0.100000)"
fill="#000000" stroke="none">
<path d="M1025 3440 c-3 -5 -19 -10 -34 -10 -16 0 -45 -7 -64 -15 -20 -8 -55
-15 -77 -15 -62 0 -126 -39 -222 -137 l-87 -88 -20 -62 c-13 -39 -21 -88 -21
-132 l0 -70 60 -122 c33 -67 60 -127 60 -134 0 -7 13 -42 30 -77 16 -34 30
-69 30 -77 0 -7 16 -31 35 -52 19 -21 48 -65 64 -98 19 -37 45 -70 70 -87 21
-16 49 -44 62 -64 13 -19 40 -55 59 -80 20 -25 43 -59 52 -76 l17 -31 -49 8
c-27 4 -58 12 -69 18 -11 6 -32 11 -48 11 -16 0 -44 11 -64 24 -39 27 -235 96
-272 96 -12 0 -35 9 -52 21 -40 27 -182 99 -196 99 -6 0 -40 13 -76 30 -35 17
-71 30 -79 30 -8 0 -41 -14 -74 -30 l-60 -30 0 -106 0 -105 102 -99 c57 -55
109 -100 116 -100 7 0 39 -12 70 -26 31 -15 77 -30 102 -35 25 -4 53 -10 63
-14 12 -5 28 4 57 33 31 31 40 47 40 75 0 19 8 45 19 58 l19 24 49 -19 c26
-10 65 -25 86 -33 22 -7 55 -25 75 -38 20 -14 48 -25 62 -25 54 0 220 -68 291
-120 23 -16 50 -30 59 -30 10 0 24 -7 31 -16 8 -9 48 -42 89 -74 41 -32 81
-65 89 -74 7 -9 22 -16 32 -16 12 0 32 -20 54 -55 36 -55 76 -85 115 -85 30 0
96 36 114 62 22 31 20 51 -8 106 -30 59 -66 92 -135 127 -60 30 -260 218 -307
288 -16 23 -60 76 -100 117 -39 41 -83 94 -97 117 -14 23 -47 58 -72 79 -25
21 -45 45 -45 54 0 9 -22 48 -50 88 -27 40 -50 76 -50 81 0 5 -18 47 -40 92
-22 46 -40 88 -40 95 0 7 -20 54 -45 105 l-45 93 0 53 c0 64 13 97 72 183 l44
65 60 21 c32 13 71 23 85 23 15 1 43 8 62 16 20 8 66 15 102 15 36 0 82 -7
102 -15 19 -8 53 -15 75 -15 21 0 55 -7 75 -15 19 -8 60 -15 90 -15 29 0 70
-7 90 -15 19 -8 59 -15 87 -15 86 0 319 -86 407 -150 23 -16 49 -30 59 -30 9
0 29 -13 45 -30 16 -16 35 -30 43 -30 9 0 36 -13 61 -29 25 -16 58 -31 73 -35
14 -3 50 -28 80 -55 29 -26 76 -60 104 -74 28 -14 75 -48 105 -74 30 -27 74
-62 97 -78 57 -38 107 -96 142 -165 32 -62 64 -95 132 -134 32 -18 56 -42 75
-74 15 -26 64 -84 108 -130 45 -45 92 -99 104 -120 12 -20 40 -68 63 -106 l40
-69 -7 -36 c-4 -20 -9 -48 -12 -62 -4 -20 6 -40 44 -88 l48 -62 44 6 c63 7 86
26 122 98 17 34 40 74 51 90 l19 27 70 0 c39 0 85 -7 106 -15 20 -8 66 -15
105 -15 38 0 84 -7 105 -15 19 -8 54 -15 77 -15 34 0 48 -6 71 -30 20 -21 38
-30 60 -30 16 0 46 -11 66 -24 39 -27 236 -96 272 -96 13 0 36 -13 52 -30 16
-16 35 -30 42 -30 8 0 35 -10 61 -22 26 -12 83 -34 127 -49 l79 -27 36 -53
c20 -30 44 -55 55 -57 40 -8 101 -42 159 -89 71 -59 125 -93 148 -93 9 0 26
-13 38 -30 11 -16 62 -57 113 -91 50 -34 98 -71 106 -83 9 -11 44 -48 78 -82
35 -33 63 -64 63 -68 0 -25 -24 -46 -51 -46 -31 0 -82 -21 -111 -48 -27 -23
-24 -134 5 -187 32 -59 95 -141 147 -191 25 -24 59 -57 75 -73 17 -16 43 -46
59 -66 33 -41 74 -64 167 -94 35 -12 72 -26 81 -31 21 -12 138 -14 138 -2 0 4
18 29 40 56 l40 48 0 44 c0 45 -21 118 -59 208 -16 37 -19 52 -10 62 16 19
129 18 176 -1 19 -8 52 -15 72 -15 20 0 75 -13 121 -30 l85 -30 161 0 c121 0
171 4 197 15 20 8 61 15 92 15 102 0 285 110 319 191 10 24 22 52 27 61 5 10
9 64 9 121 l0 104 -38 41 -39 42 -40 0 c-26 0 -46 -6 -56 -18 l-17 -19 0 -132
c0 -105 -3 -139 -16 -161 -25 -41 -65 -60 -127 -60 -30 0 -71 -7 -90 -15 -52
-22 -422 -22 -474 0 -19 8 -60 15 -90 15 -29 0 -70 7 -90 15 -19 8 -53 15 -75
15 -21 0 -55 7 -75 15 -19 8 -51 15 -71 15 -20 0 -65 10 -101 22 l-66 22 -75
75 c-41 42 -102 109 -135 149 -33 41 -72 80 -87 88 -15 8 -38 29 -52 46 -14
18 -54 54 -88 81 -35 26 -94 71 -131 100 -112 86 -130 97 -156 104 -14 3 -38
17 -54 31 -15 14 -47 37 -71 51 -132 77 -186 113 -209 144 l-26 34 -88 28
c-48 16 -100 35 -114 44 -14 9 -47 29 -73 44 -61 38 -172 77 -219 77 -22 0
-68 13 -104 30 -35 17 -70 30 -76 30 -7 0 -29 11 -48 24 -56 38 -150 66 -224
66 -36 0 -82 7 -102 15 -20 8 -66 15 -105 15 -38 0 -84 7 -105 15 -42 18 -101
19 -154 4 l-38 -12 -32 19 c-19 11 -36 31 -40 47 -4 16 -53 75 -108 133 -56
57 -101 109 -101 115 0 6 -35 48 -77 93 -43 45 -102 111 -131 147 -29 35 -78
82 -109 105 -31 22 -75 66 -97 97 -29 40 -66 73 -126 113 -47 31 -103 73 -126
95 -22 22 -56 44 -75 49 -20 6 -54 26 -76 45 -23 19 -90 60 -150 91 -59 30
-133 71 -163 90 -30 19 -67 38 -82 41 -14 3 -39 18 -54 34 -15 16 -34 29 -42
29 -7 0 -43 14 -79 30 -35 17 -75 30 -89 30 -14 0 -41 7 -61 15 -19 8 -53 15
-75 15 -21 0 -55 7 -75 15 -25 11 -72 15 -164 15 l-128 0 -15 16 c-9 8 -16 20
-16 25 0 12 -237 12 -245 -1z m-712 -1375 c4 -8 3 -16 -1 -19 -11 -6 -52 12
-52 24 0 16 47 12 53 -5z m5705 -1594 c18 -12 32 -30 32 -40 0 -9 14 -30 30
-46 17 -16 30 -36 30 -45 0 -9 12 -27 26 -41 14 -13 33 -37 41 -53 l15 -28
-15 -15 -15 -15 -75 36 c-75 36 -159 103 -198 158 -28 38 -40 93 -25 108 18
19 118 7 154 -19z"/>
</g>
</svg>
