<?xml version="1.0" standalone="no"?>
<!DOCTYPE svg PUBLIC "-//W3C//DTD SVG 20010904//EN"
 "http://www.w3.org/TR/2001/REC-SVG-20010904/DTD/svg10.dtd">
<svg version="1.0" xmlns="http://www.w3.org/2000/svg"
 width="681.000000pt" height="288.000000pt" viewBox="0 0 681.000000 288.000000"
 preserveAspectRatio="xMidYMid meet">
<metadata>
Created by potrace 1.16, written by Peter Selinger 2001-2019
</metadata>
<g transform="translate(0.000000,288.000000) scale(0.100000,-0.100000)"
fill="#000000" stroke="none">
<path d="M0 2755 c0 -69 4 -133 10 -143 5 -9 19 -46 31 -82 26 -82 43 -114 89
-170 45 -55 70 -108 70 -149 0 -23 14 -46 56 -93 31 -35 67 -84 80 -109 13
-28 91 -116 193 -221 94 -96 186 -195 205 -219 19 -24 47 -52 63 -62 15 -11
41 -36 56 -57 15 -21 60 -60 99 -87 40 -26 86 -59 103 -74 16 -14 49 -36 71
-47 63 -32 174 -110 220 -153 22 -22 56 -44 75 -49 20 -6 53 -25 75 -43 51
-44 85 -61 191 -96 48 -15 130 -49 180 -75 51 -25 123 -56 160 -68 38 -11 82
-33 98 -48 40 -37 88 -60 122 -60 15 0 57 -14 91 -30 47 -22 79 -30 118 -30
30 0 71 -7 91 -15 19 -8 53 -15 75 -15 21 0 55 -7 75 -15 19 -8 52 -15 72 -15
20 0 56 -6 81 -14 91 -29 139 -36 165 -26 15 6 51 10 81 10 l54 0 129 65 129
64 41 57 41 57 0 76 c0 60 -6 89 -26 138 l-27 63 39 40 c25 26 48 40 64 40 42
0 161 -64 220 -117 53 -48 126 -93 151 -93 17 0 104 -55 159 -100 48 -40 120
-80 143 -80 7 0 24 -12 38 -26 13 -14 45 -37 70 -49 25 -13 70 -46 100 -73 30
-26 88 -70 129 -97 41 -27 88 -61 105 -76 42 -37 169 -99 203 -99 16 0 70 -20
121 -45 51 -25 98 -45 104 -45 7 0 32 -14 57 -30 25 -16 58 -30 73 -30 15 0
44 -7 64 -15 19 -8 52 -15 71 -15 20 0 77 -13 127 -29 157 -51 177 -54 320
-58 77 -2 144 -8 150 -14 12 -12 480 -12 503 1 9 5 46 19 82 31 75 24 108 40
172 85 27 18 61 35 78 39 l30 7 0 144 0 144 -34 53 c-65 101 -185 158 -229
109 -26 -29 -20 -56 24 -108 45 -55 79 -121 79 -156 0 -38 -43 -111 -79 -135
-18 -12 -50 -25 -70 -28 -20 -3 -56 -12 -81 -20 -25 -8 -55 -15 -66 -15 -12 0
-38 -7 -57 -15 -51 -21 -303 -21 -354 0 -19 8 -60 15 -90 15 -29 0 -70 7 -90
15 -24 10 -70 15 -146 15 l-111 0 -133 45 c-73 25 -143 45 -155 45 -13 0 -43
14 -68 30 -25 16 -53 30 -63 30 -10 0 -29 11 -42 25 l-25 24 0 69 c0 38 5 83
11 100 l10 30 -20 39 c-35 69 -136 150 -268 217 l-73 36 -94 0 -95 0 -33 -28
c-92 -80 -121 -82 -186 -14 -26 26 -63 54 -82 61 -62 23 -96 41 -271 149 -30
18 -66 35 -81 39 -15 3 -39 21 -53 39 -17 22 -59 51 -113 79 -132 68 -152 90
-152 173 0 101 -60 239 -120 277 -22 14 -51 42 -64 63 -64 102 -366 302 -456
302 -39 0 -124 -42 -144 -72 -41 -58 -1 -248 62 -296 19 -14 48 -50 64 -80 19
-33 46 -63 71 -79 22 -14 61 -45 86 -68 44 -41 118 -85 142 -85 20 0 140 -113
137 -129 -2 -8 -28 -29 -58 -46 -56 -31 -100 -88 -100 -130 0 -25 40 -96 60
-105 72 -34 89 -45 103 -70 30 -51 23 -71 -48 -131 -36 -30 -82 -62 -103 -71
-47 -22 -159 -24 -209 -3 -20 8 -66 15 -105 15 -38 0 -84 7 -105 15 -19 8 -45
15 -56 15 -12 0 -62 13 -112 29 -134 43 -172 52 -257 60 l-76 7 -37 30 c-75
61 -96 72 -182 99 -48 15 -149 58 -223 95 -74 37 -150 71 -168 75 -17 3 -54
21 -80 40 -53 36 -126 75 -141 75 -6 0 -43 32 -83 71 -69 67 -131 109 -160
109 -7 0 -34 24 -60 54 -33 38 -60 58 -90 67 -30 10 -50 25 -68 53 -15 21 -51
55 -80 75 -30 21 -70 61 -91 91 -20 29 -54 65 -75 79 -23 16 -50 49 -70 86
-18 33 -48 74 -67 90 -18 17 -49 50 -67 75 -19 25 -51 64 -71 88 -21 24 -41
58 -45 75 -10 48 -72 167 -111 212 -18 22 -37 51 -40 65 -3 14 -16 48 -29 75
-32 69 -94 255 -94 283 l0 22 -50 0 -50 0 0 -125z m2998 -962 c15 -3 43 -20
63 -37 20 -17 56 -47 80 -67 24 -20 58 -56 74 -80 16 -24 44 -62 62 -85 75
-93 11 -101 -110 -13 -22 16 -46 29 -53 29 -8 0 -52 39 -99 86 -62 63 -86 95
-91 120 -7 38 10 68 34 59 7 -3 26 -8 40 -12z m1717 -1117 c72 -34 120 -74
131 -108 8 -28 -3 -65 -23 -72 -20 -8 -114 53 -138 90 -8 13 -34 35 -56 49
-45 29 -59 53 -38 66 25 15 53 10 124 -25z"/>
</g>
</svg>
