<?xml version="1.0" standalone="no"?>
<!DOCTYPE svg PUBLIC "-//W3C//DTD SVG 20010904//EN"
 "http://www.w3.org/TR/2001/REC-SVG-20010904/DTD/svg10.dtd">
<svg version="1.0" xmlns="http://www.w3.org/2000/svg"
 width="588.000000pt" height="231.000000pt" viewBox="0 0 588.000000 231.000000"
 preserveAspectRatio="xMidYMid meet">
<metadata>
Created by potrace 1.16, written by Peter Selinger 2001-2019
</metadata>
<g transform="translate(0.000000,231.000000) scale(0.100000,-0.100000)"
fill="#000000" stroke="none">
<path d="M5420 2290 c0 -11 19 -42 43 -68 71 -77 77 -89 77 -165 0 -109 -32
-145 -170 -191 l-75 -26 -183 0 c-140 0 -191 4 -219 15 -26 11 -74 15 -177 15
-94 0 -156 5 -186 14 -60 19 -125 35 -181 46 -26 5 -69 20 -97 34 -28 14 -64
26 -79 26 -16 0 -45 11 -65 25 -20 14 -77 38 -125 54 -49 15 -103 36 -120 45
-18 9 -72 29 -120 44 -48 16 -106 38 -128 49 -22 11 -59 24 -82 28 l-43 7 -6
-16 c-11 -29 18 -77 70 -116 72 -53 91 -62 297 -130 111 -36 200 -72 225 -89
47 -35 149 -71 197 -71 18 0 71 -13 117 -30 53 -18 105 -30 138 -30 29 0 69
-7 89 -15 19 -8 60 -15 90 -15 29 0 70 -7 90 -15 19 -8 53 -15 75 -15 21 0 55
-7 75 -15 43 -18 116 -20 146 -3 12 7 63 15 112 19 50 4 108 12 130 18 22 6
51 13 65 15 14 3 54 23 90 44 36 22 77 42 91 45 37 9 129 110 129 141 0 14 5
45 11 68 l11 43 -16 56 c-10 35 -34 78 -64 115 l-48 59 -92 3 -92 3 0 -21z"/>
<path d="M129 1155 c-26 -13 -65 -46 -88 -72 l-41 -48 0 -43 c0 -23 4 -50 9
-60 5 -9 21 -46 37 -82 40 -89 116 -201 164 -242 22 -19 62 -65 90 -101 28
-37 58 -67 68 -67 35 0 87 -38 121 -90 l36 -52 70 -23 c39 -13 96 -39 127 -58
63 -38 219 -89 318 -104 19 -3 47 -17 62 -30 36 -35 121 -62 190 -63 31 0 60
-4 63 -10 4 -6 93 -10 235 -10 142 0 231 4 235 10 3 6 26 10 50 10 24 0 47 -4
50 -10 3 -5 21 -10 40 -10 19 0 37 5 40 10 3 6 21 10 38 10 19 0 51 12 77 30
25 16 51 30 58 30 28 0 151 73 210 125 13 11 57 70 98 131 l74 110 0 42 c0 24
-20 101 -45 175 -58 172 -60 257 -6 257 8 0 37 15 65 32 l50 33 76 1 c41 0 88
6 103 12 17 8 89 12 186 12 118 0 168 4 194 15 26 11 73 15 165 15 l128 0 29
-30 29 -30 133 0 c96 0 144 -4 170 -15 19 -8 65 -15 102 -15 49 0 90 -8 151
-30 61 -21 104 -30 150 -30 36 0 85 -6 110 -14 76 -24 133 -37 190 -45 30 -4
91 -19 135 -33 91 -30 152 -46 210 -57 22 -4 58 -19 80 -34 22 -15 46 -27 55
-27 8 0 40 -12 70 -26 30 -14 107 -43 170 -64 63 -21 142 -54 175 -74 33 -20
71 -39 85 -42 14 -4 53 -20 88 -36 l63 -30 54 -74 55 -74 50 0 50 0 0 69 0 70
-42 28 c-23 15 -63 49 -88 76 -26 26 -53 47 -61 47 -8 0 -31 11 -51 25 -20 14
-71 36 -112 49 -42 14 -93 37 -113 51 -21 14 -44 25 -53 25 -8 0 -35 14 -60
30 -25 16 -58 30 -73 30 -15 0 -44 7 -64 15 -19 8 -53 15 -75 15 -43 0 -95 20
-143 56 -38 29 -144 64 -190 64 -20 0 -52 7 -72 15 -19 8 -65 15 -102 15 -36
0 -86 6 -111 14 -58 18 -124 35 -175 45 -22 4 -56 12 -75 18 -52 16 -119 33
-172 43 -26 5 -56 13 -67 19 -12 7 -101 11 -233 11 l-213 1 -39 29 -40 30
-228 0 c-157 0 -236 -4 -251 -12 -22 -12 -144 -27 -252 -32 -94 -4 -214 -34
-286 -71 -40 -21 -95 -103 -120 -178 l-22 -66 17 -41 c9 -22 16 -58 16 -79 0
-23 13 -66 30 -103 16 -34 30 -73 30 -86 0 -46 -179 -237 -253 -271 -25 -12
-57 -21 -70 -21 -14 0 -41 -7 -60 -15 l-36 -15 -308 0 -308 0 -42 20 c-24 10
-43 22 -43 26 0 4 20 32 45 62 31 37 45 64 45 83 0 17 7 46 15 66 8 19 15 49
15 65 0 41 -44 123 -83 152 -19 14 -46 48 -61 76 -29 53 -59 80 -88 80 -11 0
-32 22 -53 55 -39 60 -59 73 -167 109 -40 13 -96 38 -124 55 -57 36 -176 80
-214 81 -27 0 -54 16 -108 62 l-33 28 -142 0 -142 -1 -46 -24z m326 -135 c22
-12 65 -36 95 -56 30 -19 66 -37 80 -41 49 -11 216 -96 259 -132 25 -20 64
-47 87 -61 56 -33 180 -173 200 -227 19 -48 13 -95 -15 -132 -40 -52 -208 -79
-288 -46 -19 8 -46 15 -60 15 -36 0 -127 45 -170 83 -21 19 -57 44 -80 56 -23
11 -50 33 -60 48 -34 51 -100 113 -120 113 -13 0 -36 21 -63 58 -23 31 -60 73
-82 93 -31 27 -42 46 -48 80 -4 24 -11 58 -14 74 -5 21 -1 39 13 63 l21 32
102 0 103 0 40 -20z"/>
</g>
</svg>
