<?xml version="1.0" standalone="no"?>
<!DOCTYPE svg PUBLIC "-//W3C//DTD SVG 20010904//EN"
 "http://www.w3.org/TR/2001/REC-SVG-20010904/DTD/svg10.dtd">
<svg version="1.0" xmlns="http://www.w3.org/2000/svg"
 width="639.000000pt" height="423.000000pt" viewBox="0 0 639.000000 423.000000"
 preserveAspectRatio="xMidYMid meet">
<metadata>
Created by potrace 1.16, written by Peter Selinger 2001-2019
</metadata>
<g transform="translate(0.000000,423.000000) scale(0.100000,-0.100000)"
fill="#000000" stroke="none">
<path d="M100 4222 c0 -4 -22 -34 -50 -67 l-49 -60 -1 -88 c0 -48 4 -95 9
-105 4 -9 18 -38 30 -64 11 -27 40 -72 63 -102 24 -30 51 -66 61 -80 11 -17
34 -30 64 -37 35 -9 62 -28 117 -80 53 -52 78 -69 99 -69 34 0 87 -23 141 -62
21 -15 46 -28 55 -28 9 0 68 -25 131 -56 130 -63 319 -127 455 -153 65 -13
238 -73 266 -92 45 -31 59 -76 59 -184 0 -143 -36 -200 -133 -212 -53 -7 -131
-46 -151 -75 -33 -46 -23 -63 128 -217 78 -80 150 -160 159 -176 16 -32 139
-155 154 -155 10 0 189 -196 236 -258 15 -21 48 -65 72 -99 27 -38 52 -63 66
-65 23 -3 27 -8 55 -76 10 -24 35 -57 56 -74 26 -20 53 -58 80 -112 22 -44 51
-95 64 -113 30 -39 84 -152 84 -174 0 -9 13 -34 29 -56 65 -90 121 -237 121
-319 0 -28 7 -68 15 -87 21 -50 19 -91 -9 -174 -28 -82 -60 -145 -114 -223
l-37 -55 -100 -52 c-55 -29 -117 -55 -138 -59 -41 -7 -67 -27 -67 -50 l0 -14
144 0 145 0 28 25 c126 113 159 146 193 196 49 72 93 160 119 237 26 75 29
211 6 265 -8 20 -15 52 -15 72 0 63 -67 228 -129 320 -12 17 -21 43 -21 58 0
36 -54 142 -96 189 -18 21 -47 63 -63 95 -18 35 -74 105 -141 177 -61 65 -122
141 -136 168 -58 114 -276 348 -404 433 -39 26 -78 59 -88 74 -9 14 -38 50
-65 80 -42 47 -77 107 -77 132 0 5 25 23 56 40 32 19 65 47 78 68 13 20 40 56
60 79 l36 44 0 109 0 110 25 24 24 25 132 0 132 0 69 -32 69 -32 47 17 c36 13
81 17 188 17 103 0 151 4 177 15 23 9 68 15 120 15 53 0 98 6 120 15 20 8 62
15 94 15 l57 0 65 44 c58 38 94 73 205 199 14 15 31 27 38 27 7 0 54 -27 103
-60 50 -33 97 -60 105 -60 30 0 223 -115 259 -154 14 -14 32 -26 41 -26 8 0
54 -25 100 -57 47 -31 125 -76 174 -101 49 -25 106 -60 125 -77 36 -32 150
-95 172 -95 7 0 50 -18 97 -41 90 -42 280 -109 310 -109 10 0 56 -13 102 -30
47 -16 103 -30 125 -30 22 0 65 -12 95 -26 30 -14 81 -34 112 -45 l57 -19 249
0 c199 0 257 3 285 15 22 9 69 15 119 15 100 1 168 22 225 70 23 19 63 41 89
50 34 11 54 24 69 47 11 18 30 49 43 68 l22 36 0 88 c0 67 -4 92 -15 101 -8 7
-22 36 -31 66 -20 71 -77 124 -132 124 -77 0 -92 -57 -42 -162 65 -136 21
-271 -106 -329 -32 -14 -65 -19 -127 -19 -51 0 -98 -6 -119 -14 -26 -11 -89
-16 -249 -17 l-214 -2 -39 16 c-21 9 -56 17 -78 17 -21 0 -55 7 -75 15 -19 8
-47 15 -62 15 -14 0 -55 14 -89 30 -35 17 -76 30 -90 30 -15 0 -47 14 -72 30
-25 17 -58 30 -75 30 -41 0 -55 16 -55 62 0 40 -29 138 -57 193 -20 39 -129
148 -168 168 -17 8 -79 31 -138 51 l-107 36 -99 0 -100 0 -64 -30 c-36 -16
-68 -30 -72 -30 -18 0 -91 42 -205 119 -68 46 -139 88 -157 93 -18 5 -45 25
-62 47 -16 20 -49 45 -73 55 -58 24 -55 22 -148 99 l-83 67 -52 0 c-62 0 -93
-20 -119 -77 l-17 -39 40 -84 c23 -46 41 -89 41 -95 0 -7 -18 -37 -41 -68 -31
-45 -46 -57 -67 -57 -15 0 -65 -14 -112 -30 -46 -17 -101 -30 -121 -30 -20 0
-53 -7 -72 -15 -24 -10 -70 -15 -135 -15 -66 0 -112 -5 -135 -15 -22 -9 -68
-15 -117 -15 -49 0 -95 6 -117 15 -19 8 -60 15 -90 15 -29 0 -70 7 -90 15 -19
8 -65 15 -101 15 -64 0 -168 27 -203 53 -25 19 -107 144 -149 227 l-38 76
-152 147 c-83 81 -170 157 -193 168 -23 12 -62 38 -87 59 -25 20 -64 47 -86
58 -50 26 -170 106 -204 137 -14 13 -45 33 -69 45 -24 12 -62 35 -84 51 l-40
29 -63 0 c-35 0 -66 5 -69 10 -7 12 -345 14 -345 2z m394 -142 c56 -20 211
-116 295 -182 23 -18 67 -52 98 -76 32 -23 90 -67 128 -97 39 -30 91 -69 118
-86 28 -19 58 -49 74 -77 15 -26 45 -67 68 -92 23 -25 50 -59 61 -75 10 -17
27 -36 36 -43 26 -19 52 -72 40 -84 -5 -5 -19 -5 -36 2 -15 5 -39 10 -52 10
-14 0 -50 11 -80 25 -85 39 -170 65 -211 65 -21 0 -65 13 -99 29 -34 16 -75
32 -93 36 -17 3 -54 22 -82 42 -28 19 -85 52 -127 74 -43 22 -98 53 -123 70
-25 16 -67 38 -94 47 -37 13 -56 29 -80 62 -20 29 -44 49 -65 56 -38 13 -53
30 -86 99 -40 84 -27 160 35 198 40 25 199 23 275 -3z m3849 -1053 c96 -36
194 -129 159 -151 -10 -6 -94 18 -132 36 -42 21 -128 88 -134 105 -7 18 10 33
34 32 8 0 41 -10 73 -22z"/>
</g>
</svg>
