<?xml version="1.0" standalone="no"?>
<!DOCTYPE svg PUBLIC "-//W3C//DTD SVG 20010904//EN"
 "http://www.w3.org/TR/2001/REC-SVG-20010904/DTD/svg10.dtd">
<svg version="1.0" xmlns="http://www.w3.org/2000/svg"
 width="351.000000pt" height="357.000000pt" viewBox="0 0 351.000000 357.000000"
 preserveAspectRatio="xMidYMid meet">
<metadata>
Created by potrace 1.16, written by Peter Selinger 2001-2019
</metadata>
<g transform="translate(0.000000,357.000000) scale(0.100000,-0.100000)"
fill="#000000" stroke="none">
<path d="M41 3515 l-41 -54 0 -91 0 -90 83 -83 c45 -45 104 -98 131 -117 127
-91 172 -120 186 -120 9 0 56 -27 105 -60 50 -33 97 -60 105 -60 27 0 85 -46
115 -91 16 -24 47 -65 70 -90 82 -94 125 -148 125 -159 0 -6 11 -33 25 -60 18
-35 40 -59 79 -85 30 -20 67 -52 82 -73 26 -35 60 -72 160 -173 222 -224 263
-268 283 -308 12 -23 38 -52 61 -66 22 -14 51 -42 64 -63 29 -46 81 -92 104
-92 9 0 39 -25 65 -55 27 -30 59 -58 73 -61 13 -3 70 -51 127 -106 56 -56 131
-124 167 -153 36 -29 76 -65 90 -80 14 -15 43 -39 65 -53 22 -14 67 -51 100
-81 68 -64 129 -108 195 -141 25 -12 65 -39 90 -60 46 -38 238 -140 263 -140
7 0 24 -12 38 -26 24 -26 89 -64 110 -64 45 0 119 -68 119 -110 0 -9 -24 -44
-52 -78 -55 -66 -145 -122 -197 -122 -14 0 -64 -14 -111 -30 -46 -17 -101 -30
-121 -30 -20 0 -53 -7 -72 -15 -20 -8 -54 -15 -75 -15 -22 0 -56 -7 -75 -15
-50 -21 -244 -21 -294 0 -19 8 -59 15 -87 15 -28 0 -71 6 -96 14 -60 19 -125
35 -182 46 -26 5 -56 13 -67 19 -11 6 -37 11 -58 11 -21 0 -83 15 -138 34 -77
26 -103 40 -115 60 l-15 26 17 48 17 48 -14 47 c-8 26 -32 69 -54 95 -21 26
-57 83 -79 128 -42 84 -85 130 -141 154 l-33 13 -52 -13 c-74 -18 -80 -23
-130 -98 l-46 -68 0 -50 0 -51 26 -24 c14 -13 40 -47 56 -76 16 -29 46 -65 65
-80 20 -15 56 -49 82 -74 25 -26 61 -54 80 -64 19 -9 52 -30 74 -46 24 -17 53
-29 71 -29 17 0 45 -9 61 -21 17 -11 65 -38 107 -60 l78 -39 67 0 c38 0 88 -6
113 -14 60 -19 125 -35 182 -46 26 -5 56 -13 67 -19 11 -6 53 -11 95 -11 41 0
78 -4 81 -10 4 -6 65 -10 152 -10 l145 0 30 25 30 25 73 0 c42 0 88 6 108 15
20 8 52 15 72 15 48 0 144 33 230 79 39 21 84 45 100 53 17 9 42 21 57 26 14
6 43 36 64 67 20 31 59 81 86 110 l48 53 0 85 0 84 -45 13 c-35 10 -55 10 -83
2 l-38 -11 -71 24 c-39 13 -90 33 -112 44 -22 12 -46 21 -53 21 -8 0 -51 25
-97 55 -45 31 -109 69 -140 85 -32 16 -84 51 -117 79 -32 28 -89 67 -126 86
-37 20 -91 57 -120 83 -29 26 -66 56 -83 67 -16 10 -57 44 -90 75 -33 31 -76
66 -96 79 -19 13 -51 47 -70 75 -24 35 -46 55 -68 62 -20 6 -60 38 -95 76 -33
35 -73 72 -89 82 -15 9 -38 34 -52 56 -14 22 -43 49 -65 60 -44 22 -326 302
-367 365 -15 22 -91 104 -169 181 -78 78 -144 153 -148 167 -3 14 -23 39 -45
56 -42 34 -105 146 -100 177 5 25 55 30 104 10 21 -9 55 -16 77 -16 21 0 55
-7 75 -15 19 -8 53 -15 75 -15 21 0 55 -7 75 -15 19 -8 60 -15 90 -15 29 0 70
-7 90 -15 48 -20 198 -20 246 0 25 10 72 15 150 15 79 0 126 5 150 15 20 8 55
15 78 15 57 0 199 75 278 147 68 61 131 169 131 223 0 53 -48 130 -80 130 -10
0 -34 11 -54 25 -44 30 -71 31 -114 5 -47 -29 -43 -56 12 -80 51 -22 66 -43
66 -97 0 -85 -112 -177 -292 -238 l-103 -35 -96 0 c-63 0 -109 -5 -132 -15
-22 -9 -68 -15 -117 -15 -49 0 -95 6 -117 15 -19 8 -53 15 -75 15 -21 0 -55 7
-75 15 -19 8 -45 15 -57 15 -12 0 -60 13 -106 30 -47 16 -101 30 -120 30 -44
0 -265 74 -306 102 -18 12 -76 89 -130 171 -55 82 -115 168 -135 191 -20 22
-39 52 -42 66 -16 64 -43 88 -202 188 l-36 22 -98 0 -99 0 -41 -55z m307 -173
c28 -37 60 -76 71 -86 12 -11 21 -27 21 -36 0 -9 12 -35 28 -56 32 -45 62
-108 62 -129 0 -20 -29 -19 -37 0 -3 9 -31 30 -62 46 -50 27 -93 52 -196 116
-32 20 -65 71 -86 135 l-13 41 23 18 c17 14 39 19 81 19 l58 0 50 -68z m907
-2648 c54 -25 145 -159 145 -212 0 -22 -24 -52 -42 -52 -10 0 -24 13 -150 146
-60 63 -70 91 -42 118 20 20 47 20 89 0z"/>
</g>
</svg>
