<?xml version="1.0" standalone="no"?>
<!DOCTYPE svg PUBLIC "-//W3C//DTD SVG 20010904//EN"
 "http://www.w3.org/TR/2001/REC-SVG-20010904/DTD/svg10.dtd">
<svg version="1.0" xmlns="http://www.w3.org/2000/svg"
 width="411.000000pt" height="522.000000pt" viewBox="0 0 411.000000 522.000000"
 preserveAspectRatio="xMidYMid meet">
<metadata>
Created by potrace 1.16, written by Peter Selinger 2001-2019
</metadata>
<g transform="translate(0.000000,522.000000) scale(0.100000,-0.100000)"
fill="#000000" stroke="none">
<path d="M2933 5153 c2 -38 10 -87 17 -109 l14 -42 -17 -44 c-29 -76 -122
-148 -190 -148 -14 0 -41 -7 -60 -15 -20 -8 -52 -15 -72 -15 -20 0 -52 7 -72
15 -20 8 -66 15 -105 15 -38 0 -84 7 -105 15 -21 9 -67 15 -117 15 -60 0 -100
7 -154 25 -45 15 -83 22 -101 19 -21 -5 -52 5 -116 35 -48 23 -97 41 -109 41
-41 0 -216 67 -244 93 -15 14 -51 38 -81 52 l-53 27 -39 -18 c-22 -9 -55 -35
-74 -56 l-35 -38 0 -80 0 -80 50 -101 c44 -86 94 -161 155 -232 21 -24 19 -34
-12 -49 -60 -28 -32 -78 42 -78 55 0 149 -65 158 -108 3 -17 23 -43 47 -63 22
-19 54 -47 70 -64 54 -55 125 -125 155 -154 17 -15 37 -38 45 -50 10 -15 31
-26 65 -32 50 -9 72 -26 116 -91 9 -12 54 -42 100 -65 97 -49 105 -55 144
-106 15 -21 50 -49 75 -62 26 -13 71 -46 101 -73 30 -27 74 -59 99 -72 25 -12
67 -40 94 -61 27 -22 53 -39 58 -39 6 0 21 -9 35 -20 14 -11 32 -20 40 -20 24
0 83 -31 167 -88 43 -30 124 -77 180 -105 56 -28 119 -63 140 -79 21 -15 45
-28 53 -28 8 0 44 -13 80 -30 48 -22 79 -30 121 -30 l57 0 102 -50 c145 -71
161 -104 97 -197 -27 -40 -57 -65 -120 -103 -46 -28 -95 -50 -110 -50 -17 0
-39 -11 -56 -27 -15 -15 -65 -40 -110 -57 l-83 -29 -240 -7 c-142 -4 -258 -12
-285 -19 -25 -7 -69 -20 -98 -29 l-53 -16 -48 17 -49 17 -201 0 c-157 0 -210
3 -238 15 -47 20 -104 19 -164 -2 l-49 -18 -49 18 c-31 11 -78 17 -130 17 -50
0 -96 6 -118 15 -19 8 -52 15 -72 15 -20 0 -56 6 -81 14 -58 18 -124 35 -175
45 -22 4 -56 12 -75 18 -94 30 -135 36 -260 42 -77 4 -144 12 -157 19 -12 6
-34 12 -50 12 -15 0 -53 12 -83 26 -85 40 -236 83 -315 91 -37 4 -58 12 -80
33 -16 15 -50 42 -74 59 l-44 31 -65 0 -66 0 -28 -27 -28 -27 0 -58 c0 -35 4
-58 11 -58 16 0 78 -30 118 -57 19 -13 43 -23 55 -23 12 0 32 -10 46 -21 14
-11 43 -32 64 -46 22 -14 70 -54 107 -89 38 -35 72 -64 77 -64 21 0 78 -71
108 -135 26 -53 34 -82 34 -126 0 -31 7 -73 16 -94 l15 -37 -30 -88 -31 -88 0
-141 0 -142 21 -61 c38 -113 108 -240 168 -303 32 -33 69 -78 83 -100 27 -43
111 -125 128 -125 5 0 56 -44 112 -98 57 -54 122 -111 146 -127 24 -16 62 -45
85 -65 23 -21 58 -45 77 -55 19 -9 56 -34 81 -55 25 -22 82 -55 125 -76 84
-39 100 -47 209 -105 39 -21 105 -49 147 -63 43 -14 95 -37 115 -51 21 -14 44
-25 53 -25 8 0 35 -14 60 -30 25 -16 58 -30 73 -30 16 0 58 -13 94 -30 35 -17
70 -30 76 -30 7 0 37 -12 67 -26 30 -14 82 -34 115 -45 33 -11 68 -24 77 -29
10 -6 90 -10 178 -10 l160 0 0 18 c0 26 -23 44 -115 89 l-80 40 -80 7 c-97 8
-188 37 -323 105 -56 28 -114 51 -130 51 -15 0 -92 31 -170 70 -78 38 -152 70
-164 70 -13 0 -36 9 -53 20 -16 11 -36 20 -43 20 -13 0 -100 49 -202 113 -30
19 -71 43 -90 52 -19 10 -55 34 -80 55 -25 20 -59 44 -76 53 -41 21 -362 339
-399 396 l-30 46 -39 5 c-21 3 -42 12 -46 20 -4 8 -42 87 -84 175 l-76 160 0
110 c0 67 5 128 14 155 47 148 56 290 24 384 -37 111 -84 192 -130 223 -25 17
-44 38 -46 51 l-3 22 46 0 c25 0 62 -7 82 -15 19 -8 45 -15 57 -15 11 0 54
-11 95 -25 l74 -25 33 10 c25 9 40 8 69 -5 21 -8 55 -15 77 -15 21 0 55 -7 75
-15 19 -8 59 -15 87 -15 28 0 71 -6 96 -14 60 -19 125 -35 182 -46 26 -5 56
-13 67 -19 11 -6 52 -11 91 -11 40 0 86 -6 107 -15 45 -19 81 -19 128 1 l38
16 41 -16 c30 -12 77 -16 169 -16 91 0 138 -4 164 -15 50 -21 316 -21 366 0
28 12 80 15 225 15 146 0 198 3 225 15 20 8 61 15 90 15 30 0 71 7 90 15 20 8
54 15 76 15 23 0 66 12 103 30 34 16 69 30 76 30 18 0 202 93 260 132 27 18
63 41 81 50 22 12 40 38 67 95 20 43 41 86 45 95 5 10 9 51 9 91 l0 74 -38 41
-39 42 -62 0 c-34 0 -78 7 -98 15 -19 8 -47 15 -62 15 -14 0 -51 12 -81 26
-30 14 -89 37 -130 50 -41 13 -99 36 -128 49 -29 14 -57 25 -63 25 -17 0 -81
32 -114 56 -16 12 -66 40 -110 63 -44 22 -106 62 -139 88 -70 58 -125 93 -147
93 -8 0 -28 14 -44 30 -16 17 -36 30 -44 30 -44 1 -154 75 -245 165 -28 28
-67 57 -86 64 -45 16 -47 18 -111 69 -30 24 -83 67 -119 95 -35 29 -108 93
-162 142 -53 50 -120 108 -149 130 -30 22 -72 64 -94 93 -22 29 -71 87 -108
128 -37 42 -79 98 -92 124 -14 28 -42 61 -64 77 -42 29 -52 46 -95 152 -39 95
-14 114 90 66 68 -31 168 -65 191 -65 10 0 52 -12 93 -26 55 -18 86 -24 116
-19 32 4 55 0 99 -20 32 -14 68 -25 82 -25 13 0 40 -7 60 -15 19 -8 60 -15 90
-15 29 0 70 -7 90 -15 27 -11 76 -15 199 -15 l164 0 101 51 c152 76 215 123
244 180 l25 48 0 81 0 80 -55 60 c-30 33 -55 64 -55 70 0 5 -21 10 -46 10
l-46 0 5 -67z"/>
</g>
</svg>
