<?xml version="1.0" standalone="no"?>
<!DOCTYPE svg PUBLIC "-//W3C//DTD SVG 20010904//EN"
 "http://www.w3.org/TR/2001/REC-SVG-20010904/DTD/svg10.dtd">
<svg version="1.0" xmlns="http://www.w3.org/2000/svg"
 width="285.000000pt" height="282.000000pt" viewBox="0 0 285.000000 282.000000"
 preserveAspectRatio="xMidYMid meet">
<metadata>
Created by potrace 1.16, written by Peter Selinger 2001-2019
</metadata>
<g transform="translate(0.000000,282.000000) scale(0.100000,-0.100000)"
fill="#000000" stroke="none">
<path d="M408 2793 c-40 -43 -58 -87 -58 -143 l0 -50 43 -47 c23 -25 60 -57
82 -71 22 -14 67 -51 100 -82 33 -31 80 -68 105 -82 25 -14 56 -38 69 -52 14
-14 32 -26 40 -26 9 0 36 -14 61 -30 33 -22 57 -30 90 -30 l45 0 110 -73 110
-72 25 -46 c14 -25 40 -63 58 -83 17 -20 46 -64 62 -96 24 -47 41 -67 85 -95
37 -23 55 -41 55 -55 0 -11 21 -44 48 -74 89 -101 132 -155 132 -166 0 -25 52
-111 81 -132 17 -13 40 -39 52 -58 11 -19 55 -73 96 -120 42 -47 97 -117 124
-156 26 -39 63 -84 83 -99 35 -27 84 -112 84 -147 0 -28 -33 -38 -123 -38 -54
0 -98 -6 -122 -16 l-38 -16 -41 16 c-23 9 -59 16 -79 16 -21 0 -54 7 -74 15
-22 9 -67 15 -120 15 -52 0 -97 6 -120 15 -22 9 -67 15 -120 15 -52 0 -97 6
-120 15 -19 8 -54 15 -78 15 -32 0 -52 8 -85 33 -65 49 -111 76 -152 87 -24 7
-65 36 -111 79 -52 48 -84 70 -109 75 -20 4 -55 23 -79 45 -54 47 -70 55 -150
80 -188 56 -248 62 -338 31 -35 -12 -79 -33 -97 -47 l-34 -25 0 -84 0 -83 32
-17 c18 -9 47 -27 63 -40 31 -23 140 -64 172 -64 22 0 151 -43 190 -64 64 -33
245 -86 293 -86 28 0 67 -7 87 -15 19 -8 46 -15 60 -15 79 0 186 -103 254
-244 31 -63 39 -92 39 -134 0 -102 -45 -142 -162 -142 -116 0 -181 -48 -148
-109 l11 -21 134 0 c78 0 136 4 140 10 3 5 13 10 21 10 9 0 42 23 74 50 l57
51 22 65 c13 40 21 90 21 133 l0 68 -41 88 -41 87 15 15 14 14 38 -15 c21 -9
55 -16 77 -16 21 0 55 -7 75 -15 27 -11 77 -15 209 -15 95 0 184 -4 199 -10
17 -7 39 -6 69 2 l44 12 44 -17 c28 -11 73 -17 124 -17 45 0 95 -5 112 -11
l30 -10 40 20 c55 28 72 56 72 114 0 65 -47 153 -120 227 -30 30 -72 80 -93
111 -20 30 -48 66 -62 79 -14 13 -25 32 -25 42 0 10 -29 49 -63 86 -35 37 -72
81 -82 97 -11 17 -37 50 -60 75 -22 25 -63 79 -90 120 -27 41 -71 99 -97 129
-27 30 -52 67 -55 83 -4 20 -22 42 -59 70 -53 40 -94 92 -94 120 0 8 -12 25
-26 39 -14 13 -33 37 -41 53 l-15 28 15 15 14 14 38 -15 c24 -10 68 -16 122
-16 52 0 97 -6 120 -15 46 -19 140 -19 186 0 20 8 61 15 90 15 30 0 71 7 90
15 20 8 54 15 75 15 22 0 56 7 75 15 20 8 59 15 87 15 60 0 163 32 205 64 17
13 53 35 82 50 l52 26 55 83 c30 46 62 90 71 97 12 10 15 36 15 126 l0 113
-30 16 c-54 28 -79 17 -114 -52 -10 -21 -16 -58 -16 -106 l0 -74 -29 -41 c-55
-75 -108 -105 -290 -166 l-169 -56 -110 0 c-75 0 -121 -5 -145 -15 -20 -8 -66
-15 -102 -15 -36 0 -82 7 -102 15 -19 8 -52 15 -72 15 -20 0 -75 13 -121 30
-47 16 -94 30 -104 30 -27 0 -146 40 -174 59 -13 8 -37 38 -54 68 -18 31 -47
64 -71 81 -29 19 -46 40 -55 67 -7 21 -18 45 -24 53 -13 15 -101 62 -117 62
-6 0 -43 33 -84 74 -85 85 -191 166 -218 166 -10 0 -21 5 -24 10 -3 6 -48 10
-99 10 l-92 0 -26 -27z m219 -180 c21 -10 66 -44 101 -75 34 -32 68 -58 75
-58 7 0 28 -16 47 -35 l34 -35 -16 -16 -15 -16 -41 21 c-22 11 -49 34 -58 50
-11 19 -41 42 -78 60 -34 16 -74 43 -90 60 l-29 30 13 16 c15 18 11 19 57 -2z
m-158 -1625 c86 -28 123 -54 119 -82 -5 -35 -57 -33 -136 5 -87 42 -142 77
-142 89 0 18 91 11 159 -12z"/>
</g>
</svg>
