<?xml version="1.0" standalone="no"?>
<!DOCTYPE svg PUBLIC "-//W3C//DTD SVG 20010904//EN"
 "http://www.w3.org/TR/2001/REC-SVG-20010904/DTD/svg10.dtd">
<svg version="1.0" xmlns="http://www.w3.org/2000/svg"
 width="315.000000pt" height="105.000000pt" viewBox="0 0 315.000000 105.000000"
 preserveAspectRatio="xMidYMid meet">
<metadata>
Created by potrace 1.16, written by Peter Selinger 2001-2019
</metadata>
<g transform="translate(0.000000,105.000000) scale(0.100000,-0.100000)"
fill="#000000" stroke="none">
<path d="M215 1040 c-3 -5 -20 -10 -36 -10 -22 0 -41 -12 -77 -49 -27 -27 -60
-53 -75 -56 l-27 -7 0 -107 0 -107 50 -56 c28 -31 78 -75 113 -98 34 -23 78
-57 97 -75 19 -17 54 -37 78 -44 23 -6 66 -32 96 -56 29 -24 67 -50 83 -58 39
-21 148 -57 170 -57 9 0 77 -20 150 -45 73 -25 143 -45 155 -45 13 0 52 -14
86 -30 l64 -30 99 0 c66 0 112 -5 136 -15 19 -8 65 -15 102 -15 49 0 90 -8
151 -30 l85 -30 162 0 c97 0 164 -4 168 -10 8 -13 132 -13 140 0 8 13 62 13
70 0 3 -6 28 -10 55 -10 27 0 52 4 55 10 3 5 26 10 49 10 24 0 60 7 79 15 20
8 54 15 76 15 23 0 66 12 103 30 34 16 69 30 76 30 7 0 30 9 52 20 22 11 53
20 70 20 43 0 104 34 136 75 14 19 34 35 44 35 32 0 80 77 80 129 0 16 5 33
10 36 6 4 10 57 10 126 l0 120 -22 30 c-29 39 -133 109 -162 109 -37 0 -86
-37 -86 -64 0 -14 5 -28 11 -31 6 -4 24 -25 40 -47 l29 -41 0 -84 0 -84 -24
-54 c-28 -60 -31 -63 -100 -87 -35 -13 -54 -15 -67 -7 -24 12 -37 5 -49 -27
-11 -28 -101 -82 -150 -89 -19 -3 -56 -12 -81 -21 l-45 -15 -375 3 -374 3 -32
23 -33 23 0 40 c0 22 7 56 15 76 20 47 19 95 -2 167 l-18 58 -84 85 c-46 46
-102 93 -124 104 -22 12 -58 34 -80 50 -22 16 -47 29 -56 29 -9 0 -29 9 -46
21 -59 40 -185 99 -212 99 -16 0 -53 12 -83 26 -105 49 -165 64 -254 64 -47 0
-88 5 -91 10 -4 6 -78 10 -190 10 -112 0 -186 -4 -190 -10z m292 -135 c24 -10
71 -15 147 -15 l111 0 120 -40 c66 -23 138 -53 160 -69 22 -16 73 -45 113 -65
122 -61 201 -127 271 -225 l31 -44 0 -58 0 -58 -20 -11 c-30 -16 -91 -8 -101
12 -5 10 -13 26 -17 35 -5 10 -32 31 -60 46 -29 16 -60 40 -70 53 -9 14 -41
53 -70 86 -29 34 -55 73 -59 87 -8 37 -32 61 -60 61 -30 0 -83 -51 -83 -80 0
-24 32 -91 64 -135 24 -32 76 -137 76 -153 0 -18 -30 -21 -72 -7 -64 20 -128
36 -170 42 -22 3 -47 16 -64 34 -16 16 -38 29 -52 29 -13 0 -56 10 -95 23
l-72 22 -45 47 c-33 34 -60 52 -96 63 -61 18 -134 71 -175 127 -34 48 -40 113
-11 146 43 52 221 79 299 47z"/>
</g>
</svg>
