<?xml version="1.0" standalone="no"?>
<!DOCTYPE svg PUBLIC "-//W3C//DTD SVG 20010904//EN"
 "http://www.w3.org/TR/2001/REC-SVG-20010904/DTD/svg10.dtd">
<svg version="1.0" xmlns="http://www.w3.org/2000/svg"
 width="582.000000pt" height="378.000000pt" viewBox="0 0 582.000000 378.000000"
 preserveAspectRatio="xMidYMid meet">
<metadata>
Created by potrace 1.16, written by Peter Selinger 2001-2019
</metadata>
<g transform="translate(0.000000,378.000000) scale(0.100000,-0.100000)"
fill="#000000" stroke="none">
<path d="M3383 3735 c-40 -36 -55 -56 -67 -97 l-15 -52 12 -44 12 -45 56 -43
c65 -50 123 -119 114 -134 -3 -5 -41 -10 -84 -10 -47 0 -93 -6 -114 -15 -20
-8 -61 -15 -90 -15 -30 0 -71 -7 -90 -15 -43 -18 -150 -20 -197 -4 -24 9 -45
9 -84 0 -29 -7 -156 -13 -292 -14 l-242 -3 -26 -17 c-39 -26 -44 -62 -15 -116
32 -61 85 -91 162 -91 l58 0 72 -43 c40 -23 106 -57 147 -76 128 -57 136 -61
187 -106 27 -24 92 -64 144 -91 51 -26 108 -57 124 -70 17 -12 80 -47 140 -78
61 -30 135 -75 165 -100 30 -25 78 -61 105 -79 28 -19 59 -44 69 -56 11 -11
26 -21 35 -21 29 0 156 -91 189 -136 18 -24 39 -44 48 -44 32 0 104 -41 129
-74 14 -19 41 -44 59 -57 18 -12 43 -38 56 -58 35 -54 68 -87 114 -116 22 -14
57 -49 76 -78 25 -37 46 -55 70 -63 27 -8 43 -25 69 -68 22 -37 52 -69 81 -88
51 -33 145 -163 163 -226 6 -20 23 -51 39 -67 15 -17 28 -37 28 -43 0 -21 41
-95 75 -135 41 -48 105 -233 105 -303 -1 -78 -55 -172 -110 -189 -25 -8 -105
29 -124 57 -9 13 -16 43 -16 72 l0 49 -58 59 -59 58 -42 0 c-34 0 -49 -6 -72
-29 l-29 -29 0 -65 c0 -36 7 -81 15 -100 24 -58 19 -74 -42 -135 -32 -32 -66
-70 -76 -84 -10 -16 -33 -31 -55 -37 -21 -6 -68 -29 -104 -51 -37 -22 -80 -40
-95 -40 -15 0 -48 -14 -73 -30 l-45 -30 -58 0 c-32 0 -67 -5 -78 -11 -11 -6
-41 -14 -67 -19 -58 -11 -122 -27 -183 -46 l-47 -15 -37 15 c-47 20 -83 20
-128 1 -24 -10 -70 -15 -133 -15 -66 0 -112 -5 -145 -17 l-49 -18 -94 33 -95
32 -123 0 c-78 0 -139 5 -168 14 -87 27 -136 38 -205 45 -38 4 -126 25 -195
48 -130 43 -188 59 -255 72 -93 19 -179 55 -232 98 -31 25 -72 50 -92 55 -49
14 -91 45 -91 69 0 28 -67 97 -105 108 -18 5 -71 34 -117 65 -46 31 -90 56
-97 56 -19 0 -81 31 -125 62 -21 15 -45 28 -53 28 -8 0 -44 14 -80 30 -35 17
-75 30 -89 30 -14 0 -41 7 -61 15 -19 8 -45 15 -57 15 -39 0 -180 55 -225 88
-25 18 -56 32 -73 32 -16 0 -45 7 -65 15 -19 8 -47 15 -62 15 -14 0 -51 12
-81 26 -75 35 -164 64 -195 64 l-25 0 0 -55 0 -54 30 -16 c16 -8 34 -15 41
-15 7 0 42 -13 78 -29 111 -48 172 -72 260 -102 46 -17 96 -38 110 -48 79 -56
245 -121 308 -121 25 0 53 -10 83 -30 25 -16 51 -30 58 -30 7 0 43 -18 80 -40
37 -23 78 -44 92 -47 14 -3 49 -32 78 -64 76 -83 256 -199 356 -230 51 -16 92
-36 118 -58 39 -34 206 -100 253 -101 12 0 59 -13 105 -30 47 -16 102 -30 123
-30 22 0 68 -13 104 -30 37 -17 81 -30 104 -30 22 0 56 -7 76 -15 27 -12 80
-15 229 -15 118 0 195 -4 199 -10 8 -14 732 -14 740 0 3 5 39 10 79 10 43 0
89 6 109 15 20 8 48 15 63 15 15 0 48 13 73 29 33 21 65 31 111 36 85 9 142
26 221 65 82 42 118 67 314 219 61 47 88 57 104 37 7 -8 38 -23 69 -32 l57
-16 43 11 c23 6 53 11 66 11 12 0 48 18 80 41 l57 41 49 99 50 99 0 59 c0 32
-7 75 -15 94 -8 20 -15 55 -15 77 0 42 -50 156 -95 215 -31 42 -71 123 -84
172 -7 24 -24 52 -41 67 -69 57 -193 202 -220 257 -22 43 -42 66 -78 89 -26
18 -63 55 -83 83 -27 40 -45 55 -79 67 -30 10 -49 24 -57 43 -7 15 -19 39 -25
54 -7 15 -37 41 -66 58 -29 17 -64 45 -77 61 -13 17 -43 42 -67 58 -24 15 -56
45 -71 67 -18 25 -50 50 -88 70 -33 16 -76 44 -97 62 -64 57 -104 84 -188 126
-45 22 -106 62 -135 88 -30 26 -75 63 -100 80 -53 37 -242 133 -262 133 -7 0
-50 25 -95 55 -92 61 -154 95 -175 95 -7 0 -27 17 -44 38 -17 20 -60 52 -97
71 -137 71 -119 84 104 83 127 -1 179 3 205 14 21 8 68 14 118 14 55 0 98 6
123 16 28 12 52 14 89 9 55 -8 64 -8 247 1 l126 6 67 -31 c36 -17 71 -31 77
-31 6 0 50 -18 97 -41 93 -44 190 -79 218 -79 9 0 77 -20 150 -45 73 -25 147
-45 165 -45 18 0 53 -6 78 -14 125 -40 134 -40 430 -42 l295 -1 69 34 c103 52
173 103 254 186 l72 75 0 35 c0 20 5 39 10 42 6 3 10 39 10 79 l0 73 -20 18
c-11 10 -25 35 -30 56 -12 45 -54 81 -89 77 -16 -2 -34 -16 -49 -38 -27 -41
-26 -70 8 -147 l23 -51 -35 -74 c-46 -95 -74 -122 -187 -175 l-93 -45 -44 12
-43 12 -41 -16 c-55 -22 -275 -23 -327 -1 -19 8 -61 15 -92 15 l-57 0 -29 30
-29 30 -85 0 -86 0 -105 35 c-58 20 -129 47 -158 60 -29 14 -58 25 -64 25 -6
0 -44 16 -84 35 -108 52 -124 86 -65 139 16 15 21 31 21 69 l0 49 -64 72 -64
72 -106 52 c-58 29 -117 52 -131 52 -14 0 -42 7 -62 15 -19 8 -48 15 -64 15
-15 0 -31 5 -34 10 -3 6 -27 10 -53 10 l-47 0 -52 -45z m315 -163 c29 -11 65
-31 80 -45 16 -15 36 -27 45 -27 19 0 57 -55 57 -82 0 -22 -37 -48 -68 -48
-13 0 -53 14 -89 30 -35 17 -70 30 -77 30 -7 0 -25 14 -41 30 -16 17 -36 30
-46 30 -9 0 -21 6 -27 13 -13 16 -18 59 -9 75 12 18 115 15 175 -6z"/>
</g>
</svg>
