<?xml version="1.0" standalone="no"?>
<!DOCTYPE svg PUBLIC "-//W3C//DTD SVG 20010904//EN"
 "http://www.w3.org/TR/2001/REC-SVG-20010904/DTD/svg10.dtd">
<svg version="1.0" xmlns="http://www.w3.org/2000/svg"
 width="330.000000pt" height="330.000000pt" viewBox="0 0 330.000000 330.000000"
 preserveAspectRatio="xMidYMid meet">
<metadata>
Created by potrace 1.16, written by Peter Selinger 2001-2019
</metadata>
<g transform="translate(0.000000,330.000000) scale(0.100000,-0.100000)"
fill="#000000" stroke="none">
<path d="M1233 3256 c-28 -27 -43 -50 -43 -66 0 -14 -7 -46 -17 -72 l-16 -46
26 -62 c15 -34 27 -69 27 -79 0 -25 -41 -41 -104 -41 -30 0 -70 -7 -89 -15
-23 -9 -68 -15 -120 -15 -53 0 -98 -6 -120 -15 -20 -8 -52 -15 -72 -15 -20 0
-52 7 -72 15 -27 12 -80 15 -230 15 l-194 0 -32 -16 c-58 -30 -67 -43 -67
-101 l0 -55 29 -29 c16 -16 37 -29 46 -29 32 0 104 -40 156 -87 30 -27 73 -61
97 -77 23 -16 70 -57 105 -90 34 -34 76 -70 92 -81 17 -10 57 -44 90 -75 33
-31 80 -68 105 -82 25 -14 55 -40 68 -57 12 -17 41 -40 64 -52 51 -26 146
-126 211 -223 27 -39 69 -91 94 -116 66 -66 193 -211 193 -221 0 -5 25 -37 56
-71 54 -60 124 -184 124 -219 0 -9 18 -39 41 -65 39 -47 109 -175 109 -200 0
-7 13 -41 30 -76 16 -34 30 -75 30 -89 0 -15 7 -43 15 -62 21 -51 21 -362 1
-412 -22 -51 -63 -102 -103 -126 l-36 -22 -33 18 c-19 10 -34 22 -34 26 0 4
-27 35 -60 68 l-60 61 0 79 c0 91 -14 116 -80 146 l-42 19 -44 -12 c-62 -17
-187 -15 -231 3 -28 12 -82 15 -254 15 -150 0 -226 4 -246 12 -16 8 -101 15
-203 19 -187 7 -383 29 -419 48 l-21 12 0 -53 0 -53 49 -18 c28 -9 78 -17 115
-17 37 0 83 -7 103 -15 24 -10 71 -15 152 -15 l116 0 63 -30 64 -30 83 0 c46
0 96 -5 110 -10 15 -6 95 -13 178 -16 206 -8 227 -16 339 -127 48 -49 88 -95
88 -103 0 -27 71 -93 111 -104 22 -6 45 -20 52 -30 l12 -20 120 0 120 1 30 40
c17 23 44 65 60 93 17 29 41 68 55 87 l25 34 7 125 c5 69 8 135 8 148 0 12 1
38 1 57 0 19 1 52 1 73 1 67 -15 126 -59 216 -23 49 -43 96 -43 103 0 16 -70
154 -99 198 -12 17 -21 44 -21 61 0 18 -12 47 -29 71 -16 22 -38 58 -50 80
-11 22 -35 52 -54 66 -22 17 -40 42 -48 69 -11 33 -25 50 -65 77 -28 19 -62
51 -75 70 -13 20 -54 69 -91 110 -38 40 -68 78 -68 84 0 15 -288 305 -332 333
-20 13 -70 52 -110 87 -40 35 -89 73 -109 85 -20 12 -49 38 -63 57 -15 19 -39
38 -54 41 -35 9 -52 22 -52 43 -1 25 -114 141 -138 141 -29 0 -45 32 -28 55
l13 18 69 -7 c85 -9 107 -9 264 2 69 5 140 14 157 21 23 9 64 11 140 7 122 -7
104 -7 396 0 l218 5 57 -26 c117 -54 165 -65 282 -65 76 0 122 -5 147 -15 22
-9 67 -15 120 -15 52 0 97 -6 120 -15 19 -8 61 -15 93 -15 32 0 74 7 93 15 20
8 66 15 103 15 36 0 87 6 113 14 79 25 149 38 170 31 30 -9 73 18 134 85 64
71 117 165 117 208 0 17 5 34 10 37 12 8 13 59 1 83 -5 9 -14 29 -19 43 -15
39 -147 149 -178 149 -36 0 -64 -18 -64 -40 0 -11 20 -45 45 -75 24 -30 50
-73 56 -95 l12 -41 -22 -69 c-13 -38 -34 -80 -47 -93 -32 -32 -137 -67 -201
-67 -28 0 -67 -7 -86 -15 -27 -11 -76 -15 -192 -15 -116 0 -165 4 -192 15 -28
12 -82 15 -255 15 -243 0 -258 3 -335 66 -33 27 -43 42 -43 65 0 16 -7 40 -16
54 -11 17 -14 36 -9 68 l7 43 -27 32 c-32 39 -154 122 -178 122 -10 0 -29 11
-43 25 l-25 25 -102 -2 -102 -1 -42 -41z m241 -166 c41 -18 106 -80 106 -100
0 -16 -31 -40 -51 -40 -24 0 -103 35 -141 62 -32 22 -37 58 -12 82 21 21 46
20 98 -4z"/>
</g>
</svg>
