<?xml version="1.0" standalone="no"?>
<!DOCTYPE svg PUBLIC "-//W3C//DTD SVG 20010904//EN"
 "http://www.w3.org/TR/2001/REC-SVG-20010904/DTD/svg10.dtd">
<svg version="1.0" xmlns="http://www.w3.org/2000/svg"
 width="510.000000pt" height="228.000000pt" viewBox="0 0 510.000000 228.000000"
 preserveAspectRatio="xMidYMid meet">
<metadata>
Created by potrace 1.16, written by Peter Selinger 2001-2019
</metadata>
<g transform="translate(0.000000,228.000000) scale(0.100000,-0.100000)"
fill="#000000" stroke="none">
<path d="M2417 2252 l-27 -28 0 -54 0 -54 63 -58 c34 -32 69 -58 78 -58 8 0
28 -13 44 -30 16 -16 35 -30 44 -30 8 0 70 -27 138 -60 69 -33 135 -60 149
-60 14 0 41 -7 61 -15 19 -8 45 -15 57 -15 38 0 126 -36 154 -63 17 -16 39
-27 55 -27 15 0 44 -7 64 -15 19 -8 52 -15 72 -15 20 0 56 -7 81 -15 25 -8 61
-17 81 -20 33 -5 83 -40 172 -122 15 -14 39 -46 52 -72 12 -25 35 -57 49 -70
14 -14 26 -32 26 -41 0 -9 16 -39 35 -66 20 -27 42 -71 50 -97 8 -26 23 -60
34 -75 22 -32 61 -137 61 -166 0 -11 7 -39 16 -63 l16 -42 -31 -49 c-17 -27
-31 -62 -31 -79 0 -33 -76 -196 -116 -249 -28 -36 -169 -134 -194 -134 -8 0
-35 -14 -60 -30 -25 -16 -50 -30 -57 -30 -6 0 -40 -13 -75 -30 -38 -18 -79
-30 -104 -30 -23 0 -58 -7 -77 -15 -27 -11 -77 -15 -195 -15 -119 0 -169 -4
-195 -15 -51 -21 -273 -21 -324 0 l-36 15 -276 -1 -276 -2 -39 17 c-30 12 -73
16 -198 16 -118 0 -168 4 -195 15 -19 8 -61 15 -92 15 l-56 0 -45 30 c-32 22
-57 30 -88 30 -23 0 -59 7 -79 15 -19 8 -60 15 -90 15 -29 0 -70 7 -90 15 -22
9 -68 15 -122 15 l-87 0 -29 30 c-23 24 -37 30 -69 30 -22 0 -81 13 -131 29
-121 39 -170 51 -235 60 -30 4 -110 26 -177 49 -68 23 -134 42 -148 42 l-25 0
0 -39 0 -39 42 -31 c23 -17 49 -31 57 -31 9 0 72 -27 139 -60 l124 -60 54 0
c30 0 71 -7 91 -15 19 -8 53 -15 75 -15 21 0 55 -7 75 -15 19 -8 48 -15 62
-15 17 0 38 -11 56 -30 19 -20 39 -30 57 -30 16 0 45 -7 65 -15 19 -8 60 -15
90 -15 29 0 70 -7 90 -15 24 -10 71 -15 152 -15 l116 0 45 -30 45 -30 88 0
c55 0 101 -6 124 -15 25 -11 73 -15 170 -15 l134 0 25 -25 25 -25 539 0 c348
0 541 4 545 10 3 6 51 10 109 10 69 0 115 5 139 15 20 8 48 15 62 15 14 0 58
16 98 36 39 20 132 57 206 81 163 54 164 54 223 112 25 25 70 66 98 91 48 41
100 121 100 152 0 7 14 33 30 58 22 33 30 57 30 91 l0 45 31 30 31 29 -5 40
c-5 42 -19 101 -43 175 -8 25 -14 55 -14 67 0 12 -27 77 -60 144 -33 67 -60
129 -60 139 0 14 -64 104 -115 163 -9 10 -14 25 -11 34 l6 15 127 -6 c71 -3
157 -8 193 -10 36 -2 129 -7 207 -11 l141 -8 41 17 c23 9 53 16 66 16 37 0
286 126 312 158 12 15 34 41 48 58 l25 32 0 114 0 115 -38 41 c-45 48 -75 53
-117 21 l-27 -22 6 -36 c13 -80 18 -141 12 -164 -7 -30 -78 -111 -130 -149
l-39 -28 -72 0 c-42 0 -88 -6 -108 -15 -22 -9 -68 -15 -117 -15 -49 0 -95 6
-117 15 -28 12 -83 15 -257 15 l-221 0 -93 45 c-52 25 -99 45 -105 45 -7 0
-25 9 -42 21 -16 11 -55 33 -85 49 -30 16 -77 47 -104 69 -26 23 -56 41 -65
41 -10 0 -28 12 -42 26 -13 14 -44 36 -69 49 -25 13 -67 42 -94 64 -34 29 -58
41 -80 41 -18 0 -50 13 -76 30 -25 16 -51 30 -58 30 -8 0 -43 14 -79 30 -48
23 -79 30 -123 30 -32 0 -62 5 -65 10 -4 6 -58 10 -129 10 l-122 0 -27 -28z
m443 -171 c108 -36 170 -73 170 -100 0 -21 -33 -25 -81 -8 -25 9 -58 17 -71
17 -14 0 -44 14 -66 30 -23 17 -46 30 -50 30 -5 0 -19 11 -32 26 l-24 25 14 9
c20 13 10 15 140 -29z"/>
</g>
</svg>
