<?xml version="1.0" standalone="no"?>
<!DOCTYPE svg PUBLIC "-//W3C//DTD SVG 20010904//EN"
 "http://www.w3.org/TR/2001/REC-SVG-20010904/DTD/svg10.dtd">
<svg version="1.0" xmlns="http://www.w3.org/2000/svg"
 width="321.000000pt" height="177.000000pt" viewBox="0 0 321.000000 177.000000"
 preserveAspectRatio="xMidYMid meet">
<metadata>
Created by potrace 1.16, written by Peter Selinger 2001-2019
</metadata>
<g transform="translate(0.000000,177.000000) scale(0.100000,-0.100000)"
fill="#000000" stroke="none">
<path d="M155 1760 c-3 -5 -15 -10 -25 -10 -10 0 -33 -19 -52 -42 -18 -24 -43
-51 -55 -61 l-23 -18 0 -98 0 -98 20 -18 c11 -10 37 -52 58 -93 l37 -74 75
-59 c41 -32 95 -75 120 -95 63 -50 99 -67 251 -117 74 -25 154 -54 179 -65
157 -70 245 -97 355 -111 34 -5 70 -13 82 -19 12 -7 34 -12 49 -12 28 0 158
-58 207 -92 l27 -19 0 -49 0 -49 44 -33 c53 -40 94 -99 101 -147 3 -20 11 -55
17 -78 l10 -41 -28 -58 c-19 -38 -40 -65 -62 -77 l-33 -20 -38 12 c-129 38
-207 -25 -96 -78 28 -13 58 -28 67 -33 10 -4 56 -8 102 -8 l85 0 25 25 c14 14
34 25 44 25 35 0 48 28 92 190 7 25 14 68 17 95 l5 50 -31 65 c-17 36 -31 72
-31 80 0 8 -13 28 -29 45 -30 31 -42 70 -28 93 12 19 326 17 374 -3 48 -20
198 -20 246 0 24 10 70 15 135 15 66 0 112 5 135 15 21 9 67 15 109 15 l73 0
45 30 c25 16 58 30 75 30 29 0 121 55 174 103 12 12 47 70 77 129 29 58 58
109 64 113 6 4 10 50 10 111 l0 104 -47 0 c-32 0 -62 -8 -88 -23 l-40 -23 2
-45 c5 -104 -69 -250 -162 -318 -59 -43 -148 -71 -226 -71 -37 0 -83 -7 -102
-15 -20 -8 -55 -15 -77 -15 -23 0 -51 -5 -63 -12 -13 -7 -88 -15 -182 -19
l-160 -7 -44 19 -44 19 -144 0 c-105 0 -153 4 -180 15 -19 8 -53 15 -75 15
-73 0 -171 62 -184 116 -3 13 0 45 6 72 10 38 10 57 2 82 -7 18 -12 58 -12 89
l0 56 -41 60 c-55 82 -76 103 -129 130 -25 13 -86 51 -135 84 -61 41 -100 61
-120 61 -16 0 -43 9 -60 21 -52 35 -160 87 -226 109 -35 11 -72 25 -81 30 -24
13 -435 13 -443 0z m382 -165 c19 -8 52 -15 72 -15 52 0 227 -62 259 -92 15
-14 38 -31 52 -38 14 -7 62 -37 108 -68 87 -58 142 -112 142 -140 0 -9 3 -34
7 -56 l6 -39 -29 6 c-16 3 -56 15 -88 26 -75 27 -95 26 -137 -2 -40 -27 -50
-77 -24 -127 9 -18 14 -34 11 -38 -3 -3 -23 0 -45 6 -21 7 -49 12 -62 12 -13
0 -44 14 -69 30 -25 16 -58 30 -75 30 -16 0 -50 14 -75 30 -25 16 -51 30 -58
30 -22 0 -140 57 -177 85 -32 25 -124 154 -159 222 -31 61 -15 105 49 138 42
21 241 21 292 0z"/>
</g>
</svg>
