<?xml version="1.0" standalone="no"?>
<!DOCTYPE svg PUBLIC "-//W3C//DTD SVG 20010904//EN"
 "http://www.w3.org/TR/2001/REC-SVG-20010904/DTD/svg10.dtd">
<svg version="1.0" xmlns="http://www.w3.org/2000/svg"
 width="570.000000pt" height="288.000000pt" viewBox="0 0 570.000000 288.000000"
 preserveAspectRatio="xMidYMid meet">
<metadata>
Created by potrace 1.16, written by Peter Selinger 2001-2019
</metadata>
<g transform="translate(0.000000,288.000000) scale(0.100000,-0.100000)"
fill="#000000" stroke="none">
<path d="M365 2870 c-3 -5 -22 -10 -40 -10 -28 0 -46 -10 -90 -50 -30 -27 -73
-61 -94 -75 -44 -27 -61 -52 -61 -86 0 -33 -50 -176 -66 -190 -16 -13 -19 -75
-4 -84 6 -3 10 -32 10 -64 0 -32 7 -75 16 -96 12 -29 13 -44 4 -68 l-10 -31
46 -144 c26 -79 62 -167 80 -195 18 -29 45 -74 60 -102 15 -27 40 -65 55 -83
16 -18 29 -43 29 -56 0 -13 11 -40 25 -60 14 -21 37 -60 50 -86 17 -34 40 -59
74 -81 27 -18 62 -52 77 -77 16 -24 49 -57 74 -74 25 -16 58 -47 73 -69 18
-25 51 -51 89 -70 42 -21 90 -61 161 -134 80 -81 118 -111 174 -139 39 -20
111 -63 160 -96 48 -33 94 -60 101 -60 28 0 149 -63 194 -101 32 -27 73 -47
135 -67 48 -16 107 -39 130 -51 23 -11 55 -21 70 -21 15 0 57 -14 91 -30 35
-17 69 -30 75 -30 7 0 41 -14 75 -30 35 -17 76 -30 90 -30 15 0 56 -14 90 -30
35 -17 75 -30 89 -30 14 0 54 -13 90 -30 l64 -30 70 0 c39 0 85 -7 106 -15 19
-8 53 -15 75 -15 21 0 55 -7 75 -15 24 -10 71 -15 150 -15 78 0 125 -5 150
-15 19 -8 55 -15 79 -15 23 0 46 -4 49 -10 8 -13 282 -13 290 0 3 6 25 10 48
10 23 0 80 14 127 30 46 17 101 30 122 30 60 0 132 42 169 99 18 27 44 56 60
65 34 20 118 21 166 1 19 -8 52 -15 72 -15 39 0 160 -38 213 -67 l33 -18 260
-7 c143 -4 276 -8 295 -9 97 -4 240 35 333 91 34 20 74 40 88 43 32 8 99 80
99 106 0 11 4 23 10 26 6 3 10 42 10 85 l0 78 -47 41 c-55 47 -152 101 -180
101 -57 0 -72 -88 -23 -135 16 -15 36 -43 45 -62 l16 -34 -11 -34 c-23 -70
-52 -92 -175 -134 l-59 -21 -213 0 c-167 0 -221 3 -250 15 -24 10 -71 15 -150
15 -78 0 -125 5 -150 15 -19 8 -52 15 -71 15 -20 0 -96 20 -169 45 -73 25
-148 45 -168 45 -51 0 -114 32 -176 88 -53 48 -125 92 -151 92 -7 0 -30 11
-49 24 -44 30 -147 66 -189 66 -41 0 -90 -47 -90 -86 0 -21 14 -41 58 -82 69
-64 87 -74 194 -109 46 -14 95 -34 109 -44 32 -23 62 -83 54 -108 -17 -53
-111 -110 -181 -111 -23 0 -58 -7 -77 -15 -49 -20 -215 -20 -264 0 -24 10 -71
15 -150 15 -78 0 -125 5 -150 15 -19 8 -53 15 -75 15 -21 0 -55 7 -75 15 -19
8 -54 15 -77 15 -29 0 -54 9 -86 30 -32 22 -57 30 -88 30 -23 0 -59 7 -79 15
-19 8 -60 15 -90 15 -29 0 -70 7 -90 15 -19 8 -47 15 -61 15 -13 0 -64 18
-111 41 -99 47 -190 79 -223 79 -13 0 -75 25 -138 56 -63 31 -150 67 -193 81
-60 20 -90 36 -131 74 -39 36 -71 54 -122 70 -38 12 -82 34 -99 48 -77 68
-135 110 -180 134 -61 31 -136 94 -235 196 -41 43 -87 85 -103 95 -15 9 -38
33 -51 54 -13 21 -43 50 -67 65 -30 19 -62 55 -99 110 -30 45 -71 102 -91 127
-20 25 -47 65 -59 90 -12 25 -32 59 -45 75 -46 62 -115 230 -115 281 0 12 -7
38 -15 57 -8 20 -15 66 -15 104 0 39 -7 86 -17 111 l-17 44 12 44 c7 24 12 62
12 85 0 22 8 56 19 77 10 20 21 50 25 66 13 53 44 86 80 86 49 0 82 32 101 95
19 67 9 95 -35 95 -16 0 -32 -4 -35 -10z"/>
</g>
</svg>
