<?xml version="1.0" standalone="no"?>
<!DOCTYPE svg PUBLIC "-//W3C//DTD SVG 20010904//EN"
 "http://www.w3.org/TR/2001/REC-SVG-20010904/DTD/svg10.dtd">
<svg version="1.0" xmlns="http://www.w3.org/2000/svg"
 width="228.000000pt" height="384.000000pt" viewBox="0 0 228.000000 384.000000"
 preserveAspectRatio="xMidYMid meet">
<metadata>
Created by potrace 1.16, written by Peter Selinger 2001-2019
</metadata>
<g transform="translate(0.000000,384.000000) scale(0.100000,-0.100000)"
fill="#000000" stroke="none">
<path d="M2062 3801 l-22 -38 27 -39 c35 -53 55 -102 46 -117 -27 -46 -94
-112 -132 -129 l-44 -20 -41 16 -42 16 -247 0 c-198 0 -255 3 -284 15 -19 8
-52 15 -71 15 -20 0 -77 13 -127 29 -133 43 -172 52 -255 61 -58 6 -94 17
-158 49 -45 22 -87 41 -93 41 -18 0 -81 32 -123 62 -31 22 -50 28 -91 28 -68
0 -85 -18 -85 -89 l0 -53 29 -29 c20 -20 39 -29 61 -29 31 0 158 -55 190 -82
54 -45 64 -105 25 -143 l-24 -25 -57 0 c-75 0 -170 45 -214 100 -21 27 -44 43
-71 50 -43 12 -103 43 -130 66 -47 42 -129 -24 -129 -104 l0 -40 35 -26 c19
-15 83 -51 143 -81 59 -30 128 -72 154 -93 26 -22 64 -43 83 -46 27 -5 53 -24
98 -71 34 -35 83 -74 109 -88 41 -21 121 -91 183 -160 11 -12 38 -38 60 -57
22 -19 121 -116 221 -215 126 -125 189 -195 207 -230 14 -27 37 -61 51 -74 16
-15 26 -35 26 -53 0 -35 30 -96 60 -123 12 -11 38 -47 57 -79 19 -33 43 -71
54 -84 10 -14 26 -47 34 -75 8 -27 26 -65 40 -83 14 -18 39 -62 55 -96 l30
-63 0 -86 c0 -54 6 -100 15 -122 11 -27 15 -76 15 -191 l0 -155 -16 -15 c-8
-9 -18 -16 -20 -16 -5 0 -63 34 -165 95 -19 11 -58 35 -89 52 l-55 33 -65 0
c-44 0 -73 -5 -88 -16 -27 -19 -72 -104 -72 -137 0 -13 -5 -38 -11 -54 l-10
-31 46 -93 c26 -52 57 -107 70 -124 12 -16 32 -50 45 -74 42 -83 99 -156 170
-221 40 -36 83 -84 97 -107 14 -24 38 -52 54 -64 17 -12 41 -39 55 -60 15 -25
43 -48 77 -65 56 -29 148 -96 186 -138 l24 -26 108 0 107 0 6 23 c16 61 -16
107 -76 107 -65 0 -133 45 -258 172 -67 68 -142 155 -167 193 -26 39 -68 91
-95 117 -27 26 -48 55 -48 67 0 11 -24 47 -54 80 -84 95 -120 231 -60 231 8 0
63 -47 122 -104 146 -142 185 -159 253 -113 l34 23 6 45 c4 25 25 82 48 127
l41 82 0 164 c0 121 -4 173 -15 199 -8 19 -17 72 -21 118 -4 46 -17 116 -30
154 -13 39 -24 81 -24 94 0 13 -16 41 -35 62 -19 21 -61 92 -94 157 -43 85
-69 126 -95 145 -22 18 -39 41 -46 65 -16 59 -68 141 -124 196 -28 28 -69 77
-91 109 -21 32 -85 107 -143 165 -57 59 -112 124 -123 144 -20 39 -54 68 -79
68 -8 0 -34 22 -58 49 -23 28 -65 62 -93 77 -52 29 -126 115 -114 134 3 6 21
17 39 24 23 9 49 37 80 84 l47 70 -6 45 -7 45 20 11 c37 19 115 12 202 -19 47
-16 103 -30 125 -30 23 0 64 -12 95 -27 l55 -27 140 -8 c172 -10 178 -10 350
0 77 4 153 13 168 20 16 7 41 12 57 12 21 0 36 10 60 40 18 23 50 50 71 61
l39 19 0 83 0 83 -35 33 c-19 18 -38 45 -41 59 -4 15 -18 46 -33 69 l-26 43
-31 0 -30 0 -22 -39z"/>
</g>
</svg>
