<?xml version="1.0" standalone="no"?>
<!DOCTYPE svg PUBLIC "-//W3C//DTD SVG 20010904//EN"
 "http://www.w3.org/TR/2001/REC-SVG-20010904/DTD/svg10.dtd">
<svg version="1.0" xmlns="http://www.w3.org/2000/svg"
 width="423.000000pt" height="126.000000pt" viewBox="0 0 423.000000 126.000000"
 preserveAspectRatio="xMidYMid meet">
<metadata>
Created by potrace 1.16, written by Peter Selinger 2001-2019
</metadata>
<g transform="translate(0.000000,126.000000) scale(0.100000,-0.100000)"
fill="#000000" stroke="none">
<path d="M0 1226 c0 -19 7 -39 16 -47 9 -8 27 -30 40 -50 13 -20 46 -49 76
-67 29 -16 64 -42 77 -56 14 -14 31 -26 38 -26 8 0 44 -18 81 -40 36 -22 83
-45 104 -50 20 -6 61 -32 91 -60 30 -27 96 -70 147 -96 52 -26 110 -62 130
-81 21 -18 43 -33 50 -33 21 0 83 -33 162 -87 43 -29 105 -67 139 -84 34 -18
78 -46 98 -64 20 -18 63 -46 97 -63 34 -17 97 -55 140 -85 44 -30 100 -65 124
-77 25 -13 59 -33 75 -46 51 -38 172 -94 204 -94 16 0 33 -4 36 -10 7 -12 148
-13 173 -2 9 5 31 15 47 23 36 17 84 100 85 144 0 63 29 68 150 25 47 -16 102
-30 123 -30 21 0 54 -7 74 -15 19 -8 53 -15 75 -15 23 0 67 -13 105 -30 37
-17 81 -30 104 -30 22 0 56 -7 76 -15 19 -8 60 -15 90 -15 29 0 70 -7 90 -15
l35 -15 390 0 389 0 75 37 c83 41 204 155 204 191 0 12 5 24 10 27 6 3 10 46
10 94 l0 88 -30 26 c-16 15 -41 45 -55 66 -29 47 -51 61 -98 61 -72 0 -85 -59
-37 -162 18 -37 30 -79 30 -103 0 -49 -34 -104 -83 -134 l-34 -21 -85 0 c-53
0 -99 -6 -121 -15 -51 -21 -333 -21 -384 0 -25 11 -72 15 -162 15 -81 0 -142
5 -171 14 -60 19 -125 35 -182 46 -26 5 -56 13 -67 19 -11 6 -30 11 -43 11
-13 0 -62 13 -108 30 -53 18 -105 30 -138 30 -38 0 -73 9 -119 30 -35 17 -69
30 -74 30 -6 0 -36 12 -66 26 -31 14 -91 36 -132 50 -105 34 -155 58 -199 98
-61 55 -94 67 -170 64 l-66 -3 -23 -34 c-13 -19 -23 -46 -23 -61 0 -37 39 -92
72 -101 15 -4 41 -17 58 -29 17 -12 45 -26 63 -31 19 -5 52 -25 75 -45 23 -20
58 -40 77 -45 79 -22 82 -99 4 -99 -44 0 -148 43 -202 84 -18 13 -52 34 -77
47 -25 14 -84 50 -131 82 -47 31 -91 57 -99 57 -18 0 -103 54 -162 102 -25 20
-79 54 -120 74 -40 21 -86 47 -103 60 -16 12 -64 39 -105 59 -41 21 -96 55
-122 76 -26 22 -93 63 -150 91 -57 28 -116 61 -133 73 -16 13 -52 35 -80 49
-53 29 -125 72 -215 129 -30 20 -73 43 -95 52 -22 10 -48 21 -57 26 -10 5 -34
9 -53 9 l-35 0 0 -34z"/>
</g>
</svg>
