<?xml version="1.0" standalone="no"?>
<!DOCTYPE svg PUBLIC "-//W3C//DTD SVG 20010904//EN"
 "http://www.w3.org/TR/2001/REC-SVG-20010904/DTD/svg10.dtd">
<svg version="1.0" xmlns="http://www.w3.org/2000/svg"
 width="819.000000pt" height="321.000000pt" viewBox="0 0 819.000000 321.000000"
 preserveAspectRatio="xMidYMid meet">
<metadata>
Created by potrace 1.16, written by Peter Selinger 2001-2019
</metadata>
<g transform="translate(0.000000,321.000000) scale(0.100000,-0.100000)"
fill="#000000" stroke="none">
<path d="M23 3196 l-23 -11 0 -146 0 -146 23 -12 c25 -14 57 -60 57 -83 0 -22
30 -45 69 -53 21 -5 50 -25 80 -55 37 -39 59 -53 111 -68 128 -39 156 -45 229
-49 l73 -5 55 57 55 57 31 -13 c73 -29 155 -74 197 -108 24 -20 101 -74 170
-119 69 -46 136 -94 150 -107 14 -12 45 -33 70 -45 25 -12 66 -39 91 -61 26
-21 68 -48 95 -60 103 -46 119 -55 168 -104 28 -28 68 -62 88 -75 20 -14 49
-44 65 -68 15 -24 48 -58 74 -75 26 -17 60 -50 75 -75 16 -24 49 -57 74 -74
25 -16 58 -47 73 -69 20 -28 51 -51 105 -78 43 -21 105 -64 140 -95 34 -31 70
-56 80 -56 34 -1 98 -38 160 -94 34 -31 70 -56 80 -56 24 0 132 -52 182 -89
24 -17 55 -31 69 -31 44 0 161 -45 299 -114 92 -46 143 -66 169 -66 20 0 97
-20 170 -45 73 -25 141 -45 151 -45 10 0 56 -13 102 -30 l85 -30 362 0 362 0
68 60 c37 33 86 67 110 76 l42 16 49 -31 c26 -17 59 -42 73 -57 13 -14 42 -35
64 -46 22 -11 60 -37 85 -57 25 -20 97 -72 161 -114 65 -43 128 -92 142 -111
15 -19 38 -36 55 -39 16 -3 53 -28 83 -55 30 -26 87 -70 126 -96 40 -26 91
-62 113 -79 22 -18 67 -52 101 -77 33 -25 85 -64 116 -88 30 -24 76 -50 103
-58 26 -8 53 -21 60 -29 10 -12 38 -15 135 -15 l123 0 29 33 c45 52 58 91 44
136 -6 21 -11 43 -11 50 0 15 40 13 70 -4 15 -9 54 -14 98 -15 41 0 88 -6 109
-15 19 -8 45 -15 57 -15 12 0 60 -13 106 -30 47 -16 101 -30 120 -30 20 0 74
-13 120 -30 l85 -30 283 0 284 0 90 46 c59 31 109 67 149 105 l59 59 0 120 c0
68 -4 120 -9 120 -6 0 -44 31 -85 70 l-76 70 -38 0 c-75 0 -100 -80 -42 -135
33 -32 60 -83 60 -115 0 -22 -31 -95 -52 -120 -26 -32 -64 -50 -104 -50 -23 0
-58 -7 -77 -15 -46 -19 -128 -19 -174 0 -27 11 -77 15 -210 15 -132 0 -182 4
-210 15 -19 8 -45 15 -57 15 -12 0 -60 13 -106 30 -47 16 -94 30 -105 30 -12
0 -59 13 -105 30 -47 16 -103 30 -125 30 -23 0 -66 12 -101 29 -34 16 -75 32
-92 36 -17 3 -57 24 -89 46 -37 24 -69 39 -89 39 -31 0 -91 37 -129 80 -24 27
-107 70 -135 70 -33 0 -100 -68 -100 -100 l0 -29 85 -78 c47 -43 105 -88 128
-99 48 -24 205 -162 206 -181 2 -27 -48 -25 -116 5 -37 17 -78 34 -91 37 -13
4 -54 35 -90 70 -37 34 -90 74 -118 88 -28 14 -75 48 -105 75 -30 27 -77 61
-104 75 -28 13 -78 50 -113 81 -34 31 -71 56 -82 56 -10 0 -28 13 -39 29 -24
33 -112 96 -188 135 -28 14 -74 47 -104 74 -30 27 -77 61 -105 75 -28 14 -75
48 -105 74 -30 27 -67 57 -82 66 -15 10 -53 40 -83 68 -58 53 -78 58 -127 33
-72 -37 -82 -69 -50 -153 l17 -44 -30 -23 c-16 -13 -45 -26 -64 -29 -19 -3
-55 -12 -80 -20 -63 -21 -307 -21 -357 0 -24 10 -71 15 -150 15 -78 0 -125 5
-150 15 -19 8 -45 15 -57 15 -27 0 -243 73 -295 99 -22 12 -57 21 -78 21 -52
0 -160 38 -281 99 -56 28 -114 51 -130 51 -17 0 -59 21 -111 55 -46 31 -115
72 -154 91 -40 20 -92 53 -117 73 -25 20 -122 89 -217 151 -135 91 -178 124
-200 159 -15 24 -39 50 -53 59 -43 27 -90 75 -90 93 0 21 36 49 63 49 10 0 32
13 48 29 l29 29 0 101 0 100 -56 63 c-31 34 -62 75 -70 90 -8 16 -33 40 -56
54 -23 15 -62 46 -87 69 -57 53 -144 85 -232 85 l-62 0 -43 -44 -44 -43 0 -50
c0 -28 7 -67 16 -88 l15 -38 -14 -14 -14 -15 -54 35 c-30 19 -74 51 -97 71
-24 20 -52 36 -62 36 -10 0 -30 16 -45 35 -17 23 -57 51 -116 80 -57 29 -112
67 -156 108 -68 63 -214 167 -289 205 -21 11 -82 49 -134 84 -52 35 -111 69
-130 76 -19 8 -57 23 -85 34 -27 11 -68 27 -90 35 -22 8 -61 30 -87 49 l-48
34 -58 -1 c-31 -1 -67 -6 -79 -13z m317 -256 c41 -20 88 -40 104 -44 17 -4 42
-16 58 -27 l28 -20 0 -45 0 -44 -25 -12 -26 -12 -66 22 c-75 26 -163 85 -163
111 0 10 -9 26 -21 37 -34 31 -41 51 -23 69 19 19 33 15 134 -35z m1510 -546
c44 -22 144 -113 163 -147 36 -66 16 -107 -53 -107 -44 0 -82 25 -119 79 -17
25 -45 64 -61 85 -33 43 -38 77 -14 101 17 16 37 14 84 -11z"/>
</g>
</svg>
