<?xml version="1.0" standalone="no"?>
<!DOCTYPE svg PUBLIC "-//W3C//DTD SVG 20010904//EN"
 "http://www.w3.org/TR/2001/REC-SVG-20010904/DTD/svg10.dtd">
<svg version="1.0" xmlns="http://www.w3.org/2000/svg"
 width="252.000000pt" height="321.000000pt" viewBox="0 0 252.000000 321.000000"
 preserveAspectRatio="xMidYMid meet">
<metadata>
Created by potrace 1.16, written by Peter Selinger 2001-2019
</metadata>
<g transform="translate(0.000000,321.000000) scale(0.100000,-0.100000)"
fill="#000000" stroke="none">
<path d="M27 3169 c-28 -42 -38 -121 -17 -134 6 -3 10 -13 10 -22 0 -8 17 -34
38 -58 21 -24 51 -63 67 -87 16 -24 104 -119 196 -213 95 -97 176 -189 189
-214 20 -40 188 -220 236 -252 12 -8 35 -34 52 -59 62 -89 139 -175 200 -225
39 -31 84 -82 118 -132 30 -45 72 -94 92 -109 46 -35 60 -52 69 -84 3 -14 37
-61 75 -105 38 -44 72 -92 75 -106 3 -15 18 -40 34 -55 16 -15 29 -34 29 -42
0 -8 18 -34 39 -59 22 -24 43 -59 47 -76 9 -46 38 -98 68 -126 14 -14 26 -30
26 -37 0 -7 14 -42 30 -77 24 -52 30 -79 30 -132 0 -38 7 -88 17 -116 l18 -49
-18 -49 c-9 -27 -17 -72 -17 -100 0 -64 -28 -129 -72 -167 -18 -16 -53 -50
-78 -76 -52 -55 -101 -78 -164 -78 l-45 0 -36 -31 c-64 -56 -37 -99 63 -99 33
0 64 5 67 10 3 6 14 10 24 10 10 0 38 14 62 32 24 18 71 42 104 53 l59 21 37
53 c21 30 61 77 90 107 l52 53 8 48 c24 134 29 175 29 249 0 50 -6 95 -15 117
-8 20 -15 59 -15 87 0 82 -46 205 -94 249 -14 14 -26 31 -26 38 0 32 -81 173
-114 198 -19 14 -50 56 -69 93 -20 37 -47 78 -61 91 -14 14 -26 32 -26 41 0 9
-12 27 -26 41 -14 13 -40 48 -56 77 -17 29 -52 71 -78 95 -27 23 -58 60 -71
82 -12 22 -59 78 -104 125 -45 47 -99 108 -120 135 -22 28 -109 122 -195 210
-86 88 -171 179 -189 203 -18 23 -41 42 -51 42 -21 0 -35 16 -43 51 -4 14 -35
52 -69 84 -60 56 -115 120 -213 249 -50 65 -51 68 -29 90 20 20 74 20 121 1
19 -8 54 -15 77 -15 25 0 66 -12 104 -30 l64 -30 71 0 72 0 63 -30 c35 -17 76
-30 90 -30 15 0 47 -14 72 -30 25 -16 58 -30 73 -30 15 0 44 -7 64 -15 19 -8
51 -15 71 -15 19 0 97 -20 171 -44 169 -55 211 -66 286 -75 34 -5 70 -13 82
-19 14 -8 88 -12 213 -12 l191 0 59 20 c78 26 268 154 282 189 6 14 14 34 19
43 5 10 9 69 9 132 l0 115 -25 26 -26 25 -69 0 -70 0 0 -29 c0 -16 7 -45 15
-64 20 -49 19 -92 -6 -162 -26 -73 -33 -83 -84 -106 l-40 -19 -293 0 -293 0
-36 15 c-19 8 -45 15 -56 15 -11 0 -101 27 -199 60 -126 43 -193 60 -230 60
-35 0 -73 9 -117 29 -207 89 -298 121 -356 121 -30 0 -85 12 -135 30 -47 16
-97 30 -112 30 -15 0 -30 5 -33 10 -4 6 -66 10 -154 10 l-147 0 -27 -41z"/>
</g>
</svg>
