<?xml version="1.0" standalone="no"?>
<!DOCTYPE svg PUBLIC "-//W3C//DTD SVG 20010904//EN"
 "http://www.w3.org/TR/2001/REC-SVG-20010904/DTD/svg10.dtd">
<svg version="1.0" xmlns="http://www.w3.org/2000/svg"
 width="270.000000pt" height="243.000000pt" viewBox="0 0 270.000000 243.000000"
 preserveAspectRatio="xMidYMid meet">
<metadata>
Created by potrace 1.16, written by Peter Selinger 2001-2019
</metadata>
<g transform="translate(0.000000,243.000000) scale(0.100000,-0.100000)"
fill="#000000" stroke="none">
<path d="M23 2400 c-24 -29 -30 -74 -13 -85 6 -3 10 -14 10 -23 0 -9 14 -37
30 -62 16 -25 30 -53 30 -62 0 -10 20 -32 44 -50 24 -18 56 -50 71 -71 18 -25
52 -51 103 -77 43 -22 102 -57 132 -78 l55 -38 0 -40 c1 -23 10 -55 23 -76 17
-28 22 -51 22 -107 0 -75 16 -121 66 -188 31 -41 84 -152 84 -175 0 -10 22
-42 49 -72 28 -30 58 -68 67 -83 10 -15 30 -42 44 -58 14 -17 48 -64 74 -105
43 -66 108 -138 310 -350 29 -30 58 -65 65 -77 6 -13 51 -48 99 -80 48 -31
107 -76 132 -98 25 -23 78 -63 117 -89 40 -26 91 -62 112 -80 22 -19 56 -37
75 -40 19 -4 58 -23 87 -43 29 -19 68 -40 88 -45 20 -6 48 -19 63 -29 l26 -19
105 0 105 0 4 24 c3 13 1 31 -4 40 -13 22 -161 96 -194 96 -39 0 -152 56 -213
106 -29 24 -62 44 -74 44 -11 0 -39 19 -61 43 -23 24 -61 59 -86 78 -40 30
-84 70 -189 174 -95 93 -294 304 -311 330 -11 17 -20 38 -20 48 0 9 -32 51
-70 93 -39 42 -82 98 -96 126 -14 27 -45 74 -69 104 -25 31 -51 76 -59 105 -9
29 -29 76 -46 105 -16 30 -30 62 -30 72 0 10 -13 36 -28 58 l-29 39 2 90 c0
51 7 100 14 113 l12 23 -39 40 c-27 27 -48 39 -68 39 -46 0 -151 40 -191 74
-21 17 -57 44 -80 60 -23 15 -54 44 -69 63 l-27 35 14 9 c26 16 85 9 169 -21
47 -16 94 -30 105 -30 12 0 59 -13 105 -30 47 -16 102 -30 123 -30 21 0 54 -7
74 -15 19 -8 45 -15 56 -15 11 0 82 -20 156 -44 195 -63 214 -68 331 -76 58
-4 119 -12 135 -18 73 -26 128 -35 240 -41 66 -4 130 -12 142 -19 14 -7 64
-12 138 -12 122 0 171 11 289 65 30 14 69 25 86 25 24 0 45 14 98 63 37 35 80
72 95 82 46 30 67 87 67 182 l0 82 -30 16 c-48 25 -97 19 -131 -14 l-29 -29 0
-49 c0 -65 -31 -109 -119 -166 -69 -46 -167 -87 -207 -87 -12 0 -38 -7 -57
-15 -20 -8 -66 -15 -102 -15 -36 0 -82 7 -102 15 -22 9 -67 15 -120 15 -52 0
-97 6 -120 15 -19 8 -52 15 -72 15 -20 0 -56 6 -81 14 -97 31 -139 39 -240 46
-100 7 -177 27 -246 63 -16 8 -78 31 -137 51 -81 27 -124 36 -175 36 l-67 0
-63 30 c-35 17 -74 30 -86 30 -22 0 -187 53 -218 70 -10 6 -71 10 -135 9
l-118 0 -22 -29z"/>
</g>
</svg>
