<?xml version="1.0" standalone="no"?>
<!DOCTYPE svg PUBLIC "-//W3C//DTD SVG 20010904//EN"
 "http://www.w3.org/TR/2001/REC-SVG-20010904/DTD/svg10.dtd">
<svg version="1.0" xmlns="http://www.w3.org/2000/svg"
 width="606.000000pt" height="75.000000pt" viewBox="0 0 606.000000 75.000000"
 preserveAspectRatio="xMidYMid meet">
<metadata>
Created by potrace 1.16, written by Peter Selinger 2001-2019
</metadata>
<g transform="translate(0.000000,75.000000) scale(0.100000,-0.100000)"
fill="#000000" stroke="none">
<path d="M5810 736 c0 -7 7 -30 15 -49 8 -20 15 -47 15 -61 0 -13 14 -54 32
-91 l31 -68 -18 -34 c-35 -64 -132 -123 -203 -123 -22 0 -56 -7 -75 -15 -27
-11 -75 -15 -177 -15 -102 0 -150 4 -177 15 -19 8 -60 15 -90 15 -29 0 -70 7
-90 15 -20 8 -66 15 -105 15 -38 0 -84 7 -105 15 -22 9 -67 15 -117 15 -44 0
-101 6 -126 14 -78 25 -133 37 -195 45 -34 5 -70 13 -82 19 -12 7 -40 12 -63
12 -22 0 -57 7 -77 15 -19 8 -53 15 -75 15 -21 0 -55 7 -75 15 -22 9 -67 15
-120 15 -52 0 -97 6 -120 15 -50 21 -194 19 -260 -4 -75 -25 -83 -35 -83 -95
l0 -52 30 -29 c17 -16 30 -36 30 -45 0 -21 23 -42 77 -70 56 -29 69 -45 52
-66 -10 -13 -24 -15 -64 -10 -106 14 -151 16 -530 22 -304 4 -397 9 -423 20
-28 11 -103 14 -374 14 l-339 0 -36 15 c-27 11 -77 15 -210 15 -132 0 -182 4
-210 15 -24 10 -71 15 -150 15 -78 0 -125 5 -150 15 -19 8 -53 15 -75 15 -21
0 -55 7 -75 15 -20 8 -66 15 -105 15 -101 0 -188 46 -188 99 0 8 -21 46 -46
83 l-46 69 -79 39 -79 40 -55 0 c-30 0 -73 7 -96 17 l-41 16 -47 -16 c-25 -10
-72 -17 -103 -17 l-57 0 -16 -22 c-74 -106 -84 -154 -42 -209 29 -41 146 -119
177 -119 13 0 65 -13 115 -29 122 -39 170 -51 240 -60 34 -5 70 -13 82 -19 12
-7 54 -12 93 -12 40 0 86 -6 107 -15 27 -12 79 -15 225 -15 145 0 197 -3 225
-15 25 -11 72 -15 164 -15 75 0 139 -5 156 -12 15 -6 69 -15 118 -19 50 -5
115 -13 145 -18 30 -5 133 -10 228 -10 129 -1 182 -5 209 -16 28 -12 84 -15
270 -15 185 0 241 -3 270 -15 l35 -15 524 0 c338 0 525 -4 529 -10 3 -5 35
-10 70 -10 35 0 67 5 70 10 3 6 15 10 25 10 46 0 66 87 30 132 -19 25 -111 60
-191 73 -21 3 -55 22 -86 48 -27 23 -63 51 -78 63 -17 12 -26 25 -21 32 10 17
100 15 143 -3 19 -8 60 -15 90 -15 29 0 70 -7 90 -15 22 -9 67 -15 117 -15 44
0 101 -6 126 -14 78 -25 133 -37 195 -45 34 -5 70 -13 82 -19 12 -7 40 -12 63
-12 22 0 57 -7 77 -15 20 -8 66 -15 105 -15 38 0 84 -7 105 -15 27 -11 77 -15
210 -15 132 0 182 -4 210 -15 45 -19 111 -19 156 0 24 10 70 15 132 15 70 0
112 5 157 21 74 25 102 44 186 123 l62 59 0 92 0 93 -80 86 c-44 47 -80 90
-80 96 0 5 -20 10 -45 10 -32 0 -45 -4 -45 -14z m-5351 -255 c62 -22 79 -42
55 -65 -23 -23 -52 -20 -117 14 -32 17 -64 30 -70 30 -7 0 -19 5 -27 10 l-15
10 15 10 c24 16 102 11 159 -9z"/>
</g>
</svg>
