<?xml version="1.0" standalone="no"?>
<!DOCTYPE svg PUBLIC "-//W3C//DTD SVG 20010904//EN"
 "http://www.w3.org/TR/2001/REC-SVG-20010904/DTD/svg10.dtd">
<svg version="1.0" xmlns="http://www.w3.org/2000/svg"
 width="657.000000pt" height="168.000000pt" viewBox="0 0 657.000000 168.000000"
 preserveAspectRatio="xMidYMid meet">
<metadata>
Created by potrace 1.16, written by Peter Selinger 2001-2019
</metadata>
<g transform="translate(0.000000,168.000000) scale(0.100000,-0.100000)"
fill="#000000" stroke="none">
<path d="M5425 1668 c-11 -6 -27 -14 -35 -18 -8 -3 -26 -27 -40 -52 l-24 -46
12 -26 c14 -32 31 -33 124 -1 40 14 82 25 92 25 27 0 238 -104 318 -157 38
-25 80 -63 96 -86 18 -27 40 -46 62 -53 36 -12 89 -75 90 -108 0 -14 -4 -16
-17 -10 -10 5 -89 10 -176 12 l-159 3 -39 -15 c-22 -9 -51 -16 -65 -16 -42 0
-117 -46 -166 -104 l-48 -55 0 -86 c0 -96 18 -162 76 -276 25 -50 45 -76 74
-94 22 -14 51 -42 64 -63 23 -37 51 -64 110 -105 15 -10 33 -34 41 -54 19 -45
7 -63 -45 -63 -21 0 -54 -7 -73 -15 -21 -8 -67 -15 -105 -15 -41 0 -85 -7
-107 -16 l-38 -16 -111 6 c-61 4 -138 9 -171 11 -33 3 -133 8 -223 11 l-163 5
-43 -16 -43 -17 -38 16 c-22 9 -66 16 -107 16 -38 0 -84 7 -105 15 -22 9 -67
15 -120 15 -52 0 -97 6 -120 15 -24 10 -71 15 -150 15 -78 0 -125 5 -150 15
-19 8 -53 15 -75 15 -21 0 -55 7 -75 15 -19 8 -60 15 -90 15 -29 0 -70 7 -90
15 -19 8 -53 15 -75 15 -21 0 -55 7 -75 15 -19 8 -60 15 -90 15 -29 0 -70 7
-90 15 -26 11 -75 15 -192 15 -107 0 -170 4 -201 14 -77 24 -133 37 -190 45
-30 4 -71 12 -90 18 -67 21 -125 35 -185 42 -34 5 -70 13 -82 19 -12 7 -54 12
-93 12 -40 0 -86 6 -107 15 -19 8 -45 15 -57 15 -27 0 -215 63 -284 95 -42 20
-69 25 -131 25 l-78 0 -23 -25 c-29 -31 -32 -31 -78 0 -20 14 -44 25 -52 25
-9 0 -53 25 -98 55 -92 61 -144 89 -184 99 -14 3 -50 28 -80 55 -29 26 -72 58
-94 69 -23 12 -77 46 -121 75 -86 59 -155 97 -176 97 -7 0 -24 11 -37 25 -25
26 -162 122 -240 167 -25 14 -55 40 -68 57 -32 44 -110 81 -170 81 -38 0 -57
-6 -90 -31 l-42 -31 0 -54 0 -55 38 -52 c21 -29 60 -92 85 -142 26 -49 72
-119 102 -154 32 -38 57 -79 61 -98 4 -23 19 -43 48 -65 53 -42 61 -52 95
-118 36 -70 120 -150 156 -150 33 0 85 50 85 82 0 13 -14 43 -30 68 -16 25
-30 53 -30 62 0 10 -25 46 -56 80 -60 66 -122 184 -106 200 11 11 52 -6 104
-43 21 -15 53 -30 72 -33 18 -4 53 -24 77 -45 24 -21 59 -46 78 -56 19 -9 52
-30 74 -46 22 -16 47 -29 56 -29 9 0 57 -27 106 -60 50 -33 97 -60 106 -60 9
0 24 -9 35 -21 32 -36 106 -86 184 -124 41 -21 97 -55 124 -76 31 -25 59 -39
77 -39 18 0 43 -12 66 -33 55 -48 132 -108 172 -136 20 -13 64 -49 99 -79 70
-61 139 -91 213 -92 32 0 51 5 61 18 28 31 48 80 48 117 l0 35 -61 45 c-34 25
-69 45 -79 45 -9 0 -36 13 -58 30 -23 16 -45 30 -48 30 -11 0 -64 41 -64 50 0
18 48 21 85 6 21 -9 55 -16 77 -16 21 0 55 -7 75 -15 19 -8 60 -15 90 -15 29
0 70 -7 90 -15 22 -9 67 -15 117 -15 44 0 101 -6 126 -14 78 -25 133 -37 195
-45 34 -5 70 -13 82 -19 12 -7 40 -12 63 -12 22 0 57 -7 77 -15 23 -10 69 -15
135 -15 65 0 111 -5 135 -15 20 -8 66 -15 105 -15 38 0 84 -7 105 -15 19 -8
65 -15 102 -15 36 0 86 -6 111 -14 87 -28 136 -38 210 -45 41 -4 85 -13 97
-19 12 -7 60 -12 108 -12 53 0 99 -6 122 -15 23 -10 69 -15 135 -15 65 0 111
-5 135 -15 19 -8 62 -15 94 -15 32 0 61 -4 64 -10 3 -5 35 -10 70 -10 35 0 67
5 70 10 8 14 422 14 430 0 8 -13 132 -13 140 0 4 6 71 10 169 10 123 0 173 4
199 15 23 9 69 15 122 15 48 0 95 5 106 11 11 6 41 14 67 19 140 26 243 61
284 97 20 18 55 41 76 52 40 20 49 30 152 162 l60 77 0 161 c0 89 -4 169 -9
179 -50 99 -101 223 -101 248 0 22 -16 51 -61 107 -34 42 -65 77 -70 77 -5 0
-65 53 -133 118 -69 64 -150 137 -182 161 -59 45 -241 141 -267 141 -9 0 -19
5 -22 10 -9 14 -274 12 -300 -2z m542 -703 c19 -8 54 -15 76 -15 25 0 65 -12
104 -31 49 -24 72 -43 103 -86 l40 -56 0 -129 c0 -173 -19 -219 -107 -259 -54
-25 -132 -25 -187 0 -23 11 -70 45 -104 75 -35 31 -71 56 -81 56 -26 0 -94 94
-148 205 l-46 95 17 44 c21 55 37 69 106 94 68 25 176 28 227 7z"/>
</g>
</svg>
