<?xml version="1.0" standalone="no"?>
<!DOCTYPE svg PUBLIC "-//W3C//DTD SVG 20010904//EN"
 "http://www.w3.org/TR/2001/REC-SVG-20010904/DTD/svg10.dtd">
<svg version="1.0" xmlns="http://www.w3.org/2000/svg"
 width="891.000000pt" height="201.000000pt" viewBox="0 0 891.000000 201.000000"
 preserveAspectRatio="xMidYMid meet">
<metadata>
Created by potrace 1.16, written by Peter Selinger 2001-2019
</metadata>
<g transform="translate(0.000000,201.000000) scale(0.100000,-0.100000)"
fill="#000000" stroke="none">
<path d="M91 1980 c-24 -16 -55 -39 -68 -51 l-23 -22 0 -57 0 -56 29 -11 c16
-6 37 -23 47 -39 27 -44 114 -133 158 -161 22 -14 60 -45 86 -69 35 -32 65
-49 125 -68 93 -30 116 -41 169 -78 21 -16 52 -28 68 -28 16 0 45 -7 65 -15
19 -8 47 -15 60 -15 14 0 54 -13 90 -30 35 -16 74 -30 87 -30 12 0 60 -13 106
-30 l85 -30 326 0 327 0 35 15 c20 8 50 15 66 15 19 0 43 11 63 29 18 15 53
42 78 59 27 18 59 54 80 88 23 38 48 64 72 77 l38 19 59 -21 c78 -27 171 -86
171 -109 0 -9 -9 -37 -20 -61 -14 -30 -20 -65 -20 -117 0 -82 18 -130 64 -173
14 -14 26 -32 26 -42 0 -24 45 -76 92 -105 21 -13 49 -42 63 -64 14 -22 42
-48 64 -59 21 -11 65 -43 97 -70 71 -61 161 -111 201 -111 18 0 59 -20 112
-55 50 -34 114 -66 160 -81 42 -13 100 -36 129 -49 29 -14 63 -25 75 -25 13 0
61 -13 107 -30 47 -16 99 -30 115 -29 17 0 61 16 100 37 53 28 75 47 92 77
l23 40 0 97 c0 96 5 128 20 128 4 0 34 -16 66 -35 32 -20 74 -40 94 -45 47
-13 136 -56 174 -85 17 -13 64 -40 103 -60 40 -19 108 -60 151 -89 85 -58 154
-96 175 -96 7 0 24 -12 38 -26 13 -14 51 -44 84 -65 75 -50 148 -106 187 -141
23 -22 39 -28 71 -28 l42 1 28 43 c15 24 27 53 27 66 0 25 -141 170 -165 170
-39 0 -115 48 -178 112 -38 38 -67 74 -65 80 10 28 37 33 87 15 27 -9 72 -17
100 -17 28 0 68 -7 88 -15 19 -8 53 -15 75 -15 21 0 55 -7 75 -15 19 -8 65
-15 101 -15 46 0 94 -9 157 -29 103 -33 160 -49 227 -61 26 -5 56 -13 67 -19
11 -6 44 -11 75 -11 30 0 67 -5 83 -12 15 -7 84 -16 153 -20 222 -14 308 -25
349 -47 11 -6 58 -11 106 -11 53 0 99 -6 122 -15 24 -10 71 -15 150 -15 78 0
125 -5 150 -15 26 -11 74 -15 180 -15 105 0 153 -4 180 -15 51 -22 435 -22
486 0 20 8 55 15 77 15 23 0 51 5 63 12 12 7 69 15 127 19 110 7 139 13 285
60 50 16 100 29 112 29 11 0 37 7 56 15 20 8 51 15 68 15 25 0 41 10 71 43 22
23 63 56 91 72 l52 31 29 59 c16 33 33 68 38 77 12 25 10 255 -2 263 -5 3 -10
40 -10 81 l0 74 -35 71 c-58 115 -198 284 -244 296 -14 3 -51 31 -81 62 -97
96 -236 193 -319 221 l-60 20 -136 0 -137 0 -29 -29 c-29 -30 -36 -55 -20 -79
6 -10 23 -12 68 -7 l61 7 63 -21 c103 -35 147 -58 282 -148 134 -90 287 -236
287 -274 l0 -19 -60 0 c-33 0 -77 7 -97 15 -45 19 -111 19 -156 0 -20 -8 -53
-15 -74 -15 -21 -1 -83 -16 -138 -34 l-100 -34 -20 -31 c-11 -18 -37 -57 -57
-89 l-38 -57 0 -48 c0 -53 32 -127 103 -236 l42 -63 98 -65 c54 -35 96 -70 94
-76 -2 -7 -19 -15 -38 -18 -19 -3 -47 -11 -62 -18 -16 -6 -59 -11 -96 -11 -38
0 -84 -7 -104 -15 l-36 -15 -291 0 -291 0 -36 15 c-28 12 -84 15 -270 15 -185
0 -241 3 -270 15 -20 8 -66 15 -105 15 -38 0 -84 7 -105 15 -19 8 -51 15 -71
15 -19 0 -52 5 -73 12 -30 8 -48 8 -79 -1 l-39 -12 -37 16 c-20 8 -54 15 -76
15 -21 0 -55 7 -75 15 -19 8 -53 15 -75 15 -21 0 -55 7 -75 15 -19 8 -59 15
-87 15 -28 0 -71 6 -96 14 -78 24 -133 37 -195 45 -33 5 -83 20 -112 35 -31
15 -69 26 -93 26 -22 0 -57 7 -77 15 -22 9 -67 15 -117 15 -65 0 -99 6 -166
30 -47 16 -102 30 -123 30 -21 0 -54 7 -74 15 -49 21 -63 19 -95 -12 -28 -26
-116 -63 -152 -63 -11 0 -89 34 -173 75 -85 41 -159 75 -166 75 -7 0 -29 11
-50 25 -47 32 -232 125 -249 125 -7 0 -33 14 -58 30 -25 16 -51 30 -58 30 -20
0 -82 30 -126 62 -21 15 -46 28 -55 28 -9 0 -60 29 -113 64 -53 34 -111 68
-130 75 -63 23 -95 43 -146 87 l-50 44 -43 0 c-33 0 -78 17 -196 75 -85 41
-159 75 -164 75 -18 0 -81 32 -123 62 -21 15 -46 28 -55 28 -29 0 -336 159
-385 199 l-48 41 -70 0 -70 0 -29 -29 -29 -29 0 -65 c0 -36 7 -81 15 -100 21
-51 20 -139 -3 -165 -9 -12 -44 -30 -77 -41 l-59 -21 -271 0 c-205 0 -281 3
-315 14 -57 18 -124 35 -175 45 -22 4 -76 19 -120 33 -93 30 -153 46 -212 57
-53 10 -71 25 -95 78 l-19 43 12 39 c15 51 6 83 -35 129 -18 20 -45 56 -60 79
-14 23 -39 49 -54 57 -44 23 -149 56 -176 56 -14 0 -28 5 -31 10 -13 21 -99 9
-144 -20z m273 -206 c18 -17 20 -32 7 -53 l-9 -15 -17 14 c-28 23 -39 51 -24
61 19 12 25 11 43 -7z m2680 -694 c352 -118 464 -177 628 -336 l83 -80 23 -72
c24 -77 21 -101 -18 -122 -30 -16 -58 -12 -127 20 -35 17 -76 30 -91 30 -15 0
-47 14 -72 30 -25 16 -51 30 -59 30 -27 0 -182 81 -220 115 -25 23 -48 35 -67
35 -45 0 -170 89 -263 185 -108 113 -144 191 -105 229 8 9 22 16 31 16 9 0
124 -36 257 -80z m5431 -150 c91 -32 183 -79 200 -103 21 -29 20 -148 -1 -192
-17 -36 -94 -100 -156 -128 -23 -11 -61 -17 -104 -17 l-68 0 -101 49 c-109 54
-122 65 -153 126 -11 22 -32 51 -46 64 -27 26 -33 59 -16 92 14 25 109 85 173
108 73 27 195 27 272 1z"/>
</g>
</svg>
