<?xml version="1.0" standalone="no"?>
<!DOCTYPE svg PUBLIC "-//W3C//DTD SVG 20010904//EN"
 "http://www.w3.org/TR/2001/REC-SVG-20010904/DTD/svg10.dtd">
<svg version="1.0" xmlns="http://www.w3.org/2000/svg"
 width="645.000000pt" height="234.000000pt" viewBox="0 0 645.000000 234.000000"
 preserveAspectRatio="xMidYMid meet">
<metadata>
Created by potrace 1.16, written by Peter Selinger 2001-2019
</metadata>
<g transform="translate(0.000000,234.000000) scale(0.100000,-0.100000)"
fill="#000000" stroke="none">
<path d="M4386 2309 c-21 -16 -51 -29 -65 -29 -39 0 -76 -28 -136 -104 l-55
-70 0 -50 c0 -50 9 -70 76 -183 15 -25 16 -37 8 -60 l-9 -28 -508 -3 -507 -2
-36 15 c-46 19 -82 19 -129 -1 l-38 -16 -126 6 c-186 9 -192 9 -243 1 -34 -6
-60 -3 -96 10 l-49 18 -46 -18 -46 -17 -49 31 -49 31 -165 0 c-125 0 -174 -4
-201 -15 -27 -11 -76 -15 -192 -15 -116 0 -165 4 -192 15 -26 11 -75 15 -190
15 l-155 0 -39 -39 c-22 -21 -39 -43 -39 -47 0 -5 10 -27 23 -49 22 -38 102
-94 136 -95 29 0 208 -94 258 -135 29 -23 68 -46 87 -49 18 -4 53 -24 77 -45
24 -21 55 -44 69 -51 63 -32 178 -116 198 -144 12 -17 59 -69 105 -116 167
-170 226 -240 236 -278 6 -20 26 -62 45 -92 68 -106 76 -128 76 -222 l0 -86
-32 -63 c-18 -34 -40 -65 -48 -69 -14 -6 -41 -20 -107 -54 -101 -52 -173 -76
-229 -76 -43 0 -70 -7 -99 -23 -48 -27 -55 -50 -24 -83 18 -19 33 -24 70 -24
26 0 51 5 54 10 3 6 33 10 65 10 44 0 75 7 123 30 44 20 81 30 113 30 l47 0
112 111 113 111 21 64 c26 80 29 241 6 297 -8 20 -15 49 -15 64 0 17 -25 65
-67 128 -80 121 -97 140 -146 172 -21 13 -42 34 -46 46 -34 87 -49 111 -85
139 -23 18 -69 57 -103 87 -108 98 -171 140 -306 208 -73 37 -148 79 -167 94
-19 14 -45 29 -58 33 -12 4 -22 11 -22 16 0 15 32 20 133 20 70 0 115 5 145
17 l43 16 54 -13 c34 -8 67 -10 92 -5 61 13 144 9 338 -15 50 -6 104 -10 120
-9 66 5 703 2 755 -4 30 -4 114 -10 185 -15 72 -4 140 -13 152 -20 29 -16 73
-15 116 3 48 20 215 20 261 1 25 -10 84 -14 223 -14 l188 -1 60 -21 c75 -26
102 -39 140 -66 38 -27 162 -89 195 -97 14 -4 47 -24 74 -47 26 -22 55 -40 63
-40 8 0 44 -14 80 -30 35 -16 69 -30 76 -30 6 0 25 -13 42 -28 16 -15 57 -36
90 -47 33 -10 74 -31 90 -47 17 -15 37 -28 45 -28 8 0 71 -27 138 -60 68 -33
135 -60 148 -60 14 0 41 -7 61 -15 28 -12 81 -15 244 -15 l209 0 109 54 c83
42 118 66 150 103 52 61 52 86 1 159 -22 32 -40 65 -40 75 0 62 -201 160 -490
239 -25 7 -92 15 -150 19 -58 4 -115 12 -127 19 -12 7 -53 12 -90 12 -51 0
-91 8 -153 30 -68 24 -102 30 -168 30 -50 0 -97 6 -119 15 -27 11 -77 15 -206
15 l-171 0 -64 22 c-41 14 -69 30 -80 46 -9 14 -39 47 -65 74 -58 59 -101 144
-91 183 10 42 68 93 111 100 59 9 146 38 166 54 20 17 21 33 5 78 l-12 33
-121 -1 -120 0 -39 -30z m879 -758 c141 -45 174 -53 270 -60 50 -4 100 -12
112 -19 12 -7 47 -12 78 -12 30 0 72 -7 92 -15 20 -8 66 -15 105 -15 l70 0 72
-35 c94 -47 207 -118 218 -139 14 -26 -11 -56 -83 -101 l-64 -40 -135 3 c-83
1 -152 7 -180 16 -56 18 -123 35 -175 45 -61 12 -131 38 -173 65 -20 13 -52
27 -70 31 -17 4 -55 23 -84 42 -28 20 -65 39 -82 44 -17 5 -52 26 -77 47 -25
20 -66 46 -90 56 -104 42 -167 85 -155 105 5 7 52 11 134 11 l126 0 91 -29z"/>
<path d="M1837 832 c-14 -15 -17 -40 -17 -125 l0 -106 -28 -20 c-16 -11 -41
-23 -58 -27 -16 -3 -50 -19 -75 -35 -52 -33 -74 -35 -126 -14 -48 20 -170 20
-219 -1 -40 -17 -98 -15 -214 5 -30 5 -99 10 -153 10 -63 1 -110 6 -134 16
-19 8 -65 15 -102 15 -50 0 -94 10 -183 40 -65 21 -130 46 -146 54 -32 17
-224 78 -291 94 -99 23 -122 -28 -43 -95 55 -47 181 -113 214 -113 44 0 218
-66 246 -93 21 -21 38 -27 70 -27 24 0 59 -7 79 -15 25 -11 72 -15 165 -15 92
0 139 -4 165 -15 l35 -15 328 0 328 0 35 15 c20 8 48 15 62 15 35 0 174 72
207 107 31 33 68 137 68 190 -1 42 -29 133 -49 157 -20 24 -142 22 -164 -2z"/>
</g>
</svg>
