<?xml version="1.0" standalone="no"?>
<!DOCTYPE svg PUBLIC "-//W3C//DTD SVG 20010904//EN"
 "http://www.w3.org/TR/2001/REC-SVG-20010904/DTD/svg10.dtd">
<svg version="1.0" xmlns="http://www.w3.org/2000/svg"
 width="336.000000pt" height="402.000000pt" viewBox="0 0 336.000000 402.000000"
 preserveAspectRatio="xMidYMid meet">
<metadata>
Created by potrace 1.16, written by Peter Selinger 2001-2019
</metadata>
<g transform="translate(0.000000,402.000000) scale(0.100000,-0.100000)"
fill="#000000" stroke="none">
<path d="M185 4010 c-3 -5 -26 -10 -50 -10 -35 0 -52 -6 -78 -30 -19 -16 -40
-30 -46 -30 -7 0 -11 -30 -11 -90 l0 -90 67 -66 c56 -54 269 -204 480 -337 25
-16 43 -35 45 -49 2 -14 21 -34 49 -53 25 -16 70 -51 99 -76 l54 -47 -13 -16
c-18 -22 -157 -22 -208 -1 -19 8 -47 15 -62 15 -31 0 -60 18 -116 71 -24 23
-60 45 -90 53 l-50 15 -40 -11 c-65 -19 -76 -34 -73 -97 l3 -55 32 -21 c18
-11 59 -37 90 -57 32 -20 90 -51 128 -68 39 -18 85 -40 104 -49 19 -9 61 -42
93 -73 32 -32 66 -58 76 -58 33 0 42 -22 42 -96 0 -76 -6 -87 -51 -97 -14 -4
-41 -17 -60 -30 -27 -18 -35 -30 -37 -59 -5 -53 42 -138 76 -138 27 0 182 -80
220 -113 21 -19 64 -41 100 -53 47 -14 70 -27 88 -52 14 -18 51 -45 82 -61 59
-30 118 -78 212 -171 82 -81 107 -119 133 -197 13 -42 36 -86 56 -108 42 -48
111 -190 111 -228 0 -19 13 -43 37 -71 20 -23 44 -64 53 -91 10 -28 28 -74 41
-102 18 -42 21 -59 13 -80 l-9 -28 -72 -3 c-48 -2 -84 2 -109 13 l-36 15 -362
0 -361 0 -40 -23 c-43 -24 -56 -57 -34 -83 7 -9 34 -26 61 -40 l47 -24 89 0
c58 0 103 5 127 16 29 12 65 14 168 11 159 -5 374 -29 404 -45 13 -8 72 -12
155 -12 105 0 138 -3 156 -16 12 -8 42 -55 66 -102 32 -64 57 -99 95 -132 29
-25 86 -80 128 -122 42 -43 84 -78 94 -78 10 0 27 -14 39 -30 12 -17 60 -55
106 -86 53 -35 94 -70 109 -95 27 -42 106 -89 151 -89 14 0 55 -13 91 -30 35
-16 71 -30 78 -30 8 0 17 -5 20 -10 8 -13 102 -13 110 0 3 6 17 10 31 10 43 0
148 40 177 68 37 35 77 113 77 151 0 16 5 33 10 36 13 8 13 60 0 83 -5 9 -19
46 -31 82 -11 35 -27 76 -34 90 -19 37 -159 176 -208 206 -23 15 -55 38 -72
53 -33 30 -139 65 -275 91 -25 5 -69 20 -97 34 -29 14 -64 26 -77 26 -14 0
-37 5 -53 12 -15 6 -66 15 -113 19 -47 4 -130 12 -185 19 l-100 12 -42 41
c-59 58 -112 137 -129 193 -8 26 -25 62 -39 80 -31 41 -115 212 -115 234 0 9
-12 27 -26 41 -61 57 -124 184 -124 251 0 21 -11 35 -44 60 -25 18 -57 52 -72
76 -34 53 -88 102 -114 102 -10 0 -21 4 -25 10 -12 20 -156 130 -197 150 -23
12 -64 39 -89 61 -42 34 -104 68 -152 83 -9 3 -25 21 -34 40 l-16 35 28 66 28
66 -8 42 c-4 23 -8 61 -9 84 -3 49 -23 83 -84 140 l-45 42 13 15 c7 9 23 16
37 16 36 0 116 44 151 85 25 27 32 45 32 76 l0 40 -57 61 c-32 33 -80 75 -108
93 -27 19 -70 51 -94 72 -25 21 -65 49 -90 63 -26 14 -58 44 -74 68 -16 23
-46 51 -67 62 -21 11 -60 38 -87 61 -26 23 -72 58 -101 76 -49 31 -111 110
-112 140 0 6 14 21 30 33 17 12 37 35 45 51 l16 29 -12 40 -12 40 -58 0 c-32
0 -61 -4 -64 -10z m2343 -3198 c29 -11 63 -29 77 -42 25 -24 114 -59 150 -60
22 0 120 -32 171 -55 61 -28 177 -144 228 -227 l48 -81 -4 -47 c-12 -121 -124
-171 -273 -120 -33 12 -103 42 -155 67 l-95 45 -191 190 c-106 104 -198 204
-207 221 -34 73 -47 109 -42 118 4 5 59 9 123 9 89 0 131 -5 170 -18z"/>
</g>
</svg>
