<?xml version="1.0" standalone="no"?>
<!DOCTYPE svg PUBLIC "-//W3C//DTD SVG 20010904//EN"
 "http://www.w3.org/TR/2001/REC-SVG-20010904/DTD/svg10.dtd">
<svg version="1.0" xmlns="http://www.w3.org/2000/svg"
 width="324.000000pt" height="159.000000pt" viewBox="0 0 324.000000 159.000000"
 preserveAspectRatio="xMidYMid meet">
<metadata>
Created by potrace 1.16, written by Peter Selinger 2001-2019
</metadata>
<g transform="translate(0.000000,159.000000) scale(0.100000,-0.100000)"
fill="#000000" stroke="none">
<path d="M1628 1557 c-54 -48 -78 -103 -78 -183 l0 -67 58 -59 59 -58 37 0
c74 0 174 72 205 149 l14 32 -13 57 -13 57 -55 53 -54 52 -61 0 -62 0 -37 -33z"/>
<path d="M2253 1534 l-73 -54 0 -51 c0 -61 26 -117 85 -180 23 -25 54 -63 68
-85 27 -43 139 -154 156 -154 5 0 50 -37 98 -83 48 -45 104 -93 123 -106 19
-13 49 -42 66 -65 17 -22 53 -52 80 -66 35 -19 60 -42 88 -84 l38 -58 -16 -16
-16 -16 -42 13 c-24 7 -64 16 -90 21 -26 5 -56 13 -67 19 -11 6 -33 11 -49 11
-21 0 -36 10 -59 38 -19 23 -58 51 -108 75 -43 21 -96 52 -118 68 l-40 29 -54
0 -55 0 -29 -29 -29 -29 0 -57 0 -57 29 -29 c16 -16 37 -29 46 -29 32 0 103
-40 134 -75 17 -20 31 -38 31 -41 0 -17 -23 -44 -38 -44 -9 0 -37 -14 -62 -30
l-45 -30 -263 0 -263 0 -36 15 c-23 10 -69 15 -135 15 -65 0 -111 5 -135 15
-20 8 -66 15 -105 15 -38 0 -84 7 -105 15 -22 9 -67 15 -120 15 -52 0 -97 6
-120 15 -19 8 -52 15 -72 15 -39 0 -156 37 -220 69 -22 12 -59 21 -81 21 -22
0 -57 7 -77 15 -19 8 -47 15 -60 15 -14 0 -53 13 -87 29 -34 16 -76 32 -93 35
-18 4 -52 25 -76 47 l-45 39 -50 0 -50 0 -56 -46 c-43 -35 -56 -53 -56 -73 0
-38 42 -73 115 -96 33 -10 89 -36 125 -57 35 -21 81 -43 102 -49 43 -11 60
-33 77 -99 l12 -45 -15 -37 c-24 -57 -48 -68 -149 -68 -69 0 -96 -4 -128 -20
-49 -26 -55 -39 -39 -95 l13 -45 129 0 130 0 26 18 c15 10 52 31 82 46 112 57
194 166 189 252 -4 63 9 72 74 52 69 -21 133 -38 182 -47 22 -4 56 -12 75 -18
78 -25 129 -35 200 -42 41 -4 85 -13 97 -19 13 -7 67 -12 138 -12 80 0 127 -5
152 -15 l35 -15 343 0 343 0 35 15 c20 8 62 15 94 15 l57 0 68 45 c37 25 77
59 88 75 l21 30 68 0 c49 0 90 -8 151 -30 58 -20 104 -30 146 -30 l60 0 72 70
72 69 0 44 0 45 -34 25 c-18 14 -49 50 -69 79 -21 32 -56 67 -87 87 -29 19
-76 57 -106 85 -30 28 -80 76 -112 106 -31 30 -84 72 -117 93 -33 21 -71 55
-85 75 -13 20 -71 84 -128 140 -57 57 -107 115 -113 128 -14 38 4 64 45 64 40
0 54 15 77 83 28 80 32 77 -83 76 l-103 0 -72 -55z"/>
</g>
</svg>
