<?xml version="1.0" standalone="no"?>
<!DOCTYPE svg PUBLIC "-//W3C//DTD SVG 20010904//EN"
 "http://www.w3.org/TR/2001/REC-SVG-20010904/DTD/svg10.dtd">
<svg version="1.0" xmlns="http://www.w3.org/2000/svg"
 width="813.000000pt" height="231.000000pt" viewBox="0 0 813.000000 231.000000"
 preserveAspectRatio="xMidYMid meet">
<metadata>
Created by potrace 1.16, written by Peter Selinger 2001-2019
</metadata>
<g transform="translate(0.000000,231.000000) scale(0.100000,-0.100000)"
fill="#000000" stroke="none">
<path d="M4805 2300 c-3 -5 -26 -10 -51 -10 -49 0 -95 -20 -186 -82 l-59 -40
-40 -79 -39 -79 0 -76 0 -77 29 -46 c16 -25 31 -58 35 -73 3 -15 18 -35 32
-45 14 -10 49 -37 79 -60 66 -52 95 -67 192 -98 43 -14 102 -37 131 -50 29
-14 71 -25 93 -25 22 0 56 -7 76 -15 19 -8 53 -15 75 -15 21 0 55 -7 75 -15
19 -8 48 -15 63 -15 15 0 44 7 63 15 20 8 54 15 76 15 23 0 67 13 104 30 36
17 70 30 77 30 24 0 97 45 142 86 26 24 58 49 72 55 l25 12 53 -34 c90 -57
116 -79 153 -132 19 -29 49 -70 65 -91 18 -24 30 -51 30 -70 0 -18 13 -50 30
-76 16 -25 30 -50 30 -57 0 -6 13 -40 30 -75 l30 -63 0 -113 c0 -78 -5 -124
-15 -149 -8 -19 -15 -48 -15 -63 0 -15 -13 -45 -30 -66 -16 -21 -44 -59 -61
-85 -17 -25 -47 -56 -68 -69 -20 -14 -56 -41 -81 -61 -62 -51 -123 -77 -351
-154 l-196 -65 -65 0 c-36 0 -82 -7 -101 -15 -21 -8 -67 -15 -105 -15 -40 0
-85 -7 -107 -16 -29 -12 -44 -13 -68 -5 -24 9 -44 7 -99 -10 l-69 -20 -33 11
c-24 7 -52 7 -102 -1 -121 -21 -207 -22 -249 -5 -20 9 -55 16 -77 16 -21 0
-55 7 -75 15 -26 11 -76 15 -195 15 -118 0 -168 4 -195 15 -27 12 -80 15 -237
15 -146 0 -213 4 -246 14 -93 29 -137 38 -225 46 -49 4 -103 12 -120 18 -61
21 -122 34 -195 41 -41 4 -85 13 -97 19 -12 7 -39 12 -60 12 -21 0 -85 16
-143 35 -121 41 -141 50 -194 87 -21 16 -46 28 -55 28 -9 0 -36 14 -61 30 -54
36 -136 42 -162 13 -39 -44 -48 -81 -48 -188 l0 -106 -25 -24 -24 -25 -59 0
c-33 0 -76 -7 -95 -15 l-36 -15 -276 0 -276 0 -36 15 c-24 10 -71 15 -150 15
-78 0 -125 5 -150 15 -19 8 -45 15 -57 15 -12 0 -60 13 -106 30 -47 16 -101
30 -120 30 -19 0 -55 6 -80 14 -76 24 -133 37 -190 45 -54 7 -96 28 -231 115
l-55 36 -62 0 -62 0 0 -52 1 -53 32 -16 c18 -9 79 -42 137 -72 112 -59 389
-157 443 -157 18 0 52 -6 77 -14 58 -18 124 -35 175 -45 22 -4 56 -12 75 -18
88 -28 132 -36 230 -42 58 -4 115 -12 127 -19 34 -19 489 -17 536 3 20 8 66
15 102 15 126 0 272 67 388 177 l78 74 57 -7 c31 -3 72 -13 91 -20 18 -8 43
-14 55 -14 12 0 60 -13 106 -30 47 -16 102 -30 123 -30 21 0 54 -7 74 -15 22
-9 67 -15 120 -15 52 0 97 -6 120 -15 20 -8 66 -15 105 -15 38 0 84 -7 105
-15 19 -8 60 -15 90 -15 29 0 70 -7 90 -15 20 -8 66 -15 105 -15 38 0 84 -7
105 -15 22 -9 67 -15 120 -15 52 0 97 -6 120 -15 27 -12 80 -15 229 -15 118 0
195 -4 199 -10 3 -5 28 -10 55 -10 27 0 52 5 55 10 4 6 132 10 351 10 250 0
351 3 367 12 12 7 63 15 112 19 87 7 131 15 225 45 25 8 56 14 70 14 14 0 45
14 70 30 25 16 57 30 71 30 15 0 43 7 62 15 20 8 49 15 65 15 16 0 47 13 69
29 22 16 60 39 83 51 160 82 390 319 390 403 0 15 7 44 15 64 11 25 15 73 15
168 0 95 -4 143 -15 168 -8 20 -15 56 -15 79 0 30 -8 55 -26 82 -20 29 -25 45
-20 69 l6 30 -40 37 c-22 20 -40 42 -40 49 0 32 -53 113 -90 136 -22 14 -51
42 -64 63 -25 40 -55 68 -98 95 -30 19 -36 41 -15 54 13 8 234 32 368 40 65 3
96 0 124 -11 24 -10 68 -16 122 -16 52 0 97 -6 120 -15 19 -8 58 -15 86 -15
29 0 91 -13 142 -29 121 -39 169 -51 240 -61 33 -4 84 -20 112 -34 29 -14 59
-26 66 -26 7 0 26 -13 42 -30 16 -16 35 -30 43 -30 29 0 208 -93 255 -132 26
-22 63 -44 82 -49 19 -6 43 -22 52 -36 42 -61 71 -83 108 -83 20 0 49 7 65 15
l30 16 0 84 c0 61 -3 85 -12 85 -14 0 -67 28 -149 78 -30 18 -65 35 -79 39
-14 3 -42 21 -62 39 -20 18 -69 54 -108 80 -112 73 -281 249 -310 322 l-13 33
37 30 c45 38 49 77 10 108 -33 26 -72 26 -144 2 -58 -20 -100 -64 -100 -105 0
-32 25 -107 55 -166 21 -42 24 -54 13 -61 -20 -13 -55 -11 -95 6 -19 8 -59 15
-87 15 -28 0 -71 6 -96 14 -94 30 -138 38 -225 45 -49 4 -99 12 -110 17 -11 6
-104 12 -216 13 -156 1 -203 -2 -232 -14 -21 -8 -66 -15 -105 -15 -39 0 -85
-7 -105 -15 -20 -8 -60 -15 -89 -15 l-52 0 -31 29 c-16 16 -68 48 -114 72 -46
23 -100 56 -120 74 -46 41 -62 49 -161 81 -46 15 -113 42 -151 60 -110 54
-181 74 -258 74 -38 0 -73 5 -76 10 -3 6 -35 10 -70 10 -35 0 -67 -4 -70 -10z
m340 -200 c93 -32 384 -179 424 -214 20 -18 52 -42 73 -54 44 -27 53 -48 34
-76 -15 -24 -126 -96 -148 -96 -7 0 -33 -14 -58 -30 l-45 -30 -124 0 -124 0
-151 50 c-214 71 -305 118 -354 183 -21 29 -45 69 -52 89 l-13 36 53 65 c74
93 85 97 270 97 l156 0 59 -20z"/>
</g>
</svg>
