<?xml version="1.0" standalone="no"?>
<!DOCTYPE svg PUBLIC "-//W3C//DTD SVG 20010904//EN"
 "http://www.w3.org/TR/2001/REC-SVG-20010904/DTD/svg10.dtd">
<svg version="1.0" xmlns="http://www.w3.org/2000/svg"
 width="939.000000pt" height="132.000000pt" viewBox="0 0 939.000000 132.000000"
 preserveAspectRatio="xMidYMid meet">
<metadata>
Created by potrace 1.16, written by Peter Selinger 2001-2019
</metadata>
<g transform="translate(0.000000,132.000000) scale(0.100000,-0.100000)"
fill="#000000" stroke="none">
<path d="M6470 1300 c-14 -11 -38 -22 -54 -26 -17 -3 -58 -19 -92 -35 -34 -16
-67 -29 -74 -29 -6 0 -46 -30 -88 -67 -42 -36 -91 -75 -109 -86 -18 -10 -53
-49 -78 -86 l-45 -67 0 -57 c0 -155 124 -326 285 -392 135 -56 146 -77 45 -86
-36 -3 -80 -12 -98 -19 -22 -8 -49 -10 -80 -5 -60 9 -123 13 -357 23 -121 4
-198 12 -212 20 -12 6 -47 12 -78 12 -30 0 -72 7 -92 15 -19 8 -53 15 -75 15
-21 0 -55 7 -75 15 -19 8 -60 15 -90 15 -29 0 -70 7 -90 15 -19 8 -53 15 -75
15 -21 0 -55 7 -75 15 -19 8 -47 15 -62 15 -14 0 -46 14 -71 30 -25 16 -51 30
-59 30 -34 0 -162 72 -219 124 -34 31 -72 56 -83 56 -34 0 -99 -39 -119 -73
-26 -42 -25 -60 5 -149 29 -85 31 -129 9 -168 -17 -28 -62 -60 -86 -60 -7 0
-33 -14 -58 -30 -25 -16 -50 -30 -57 -30 -6 0 -41 -14 -76 -30 l-65 -30 -100
0 c-66 0 -112 -5 -135 -15 l-36 -15 -471 0 -471 0 -36 15 c-28 12 -82 15 -255
15 -172 0 -226 3 -255 15 -23 10 -69 15 -135 15 -65 0 -111 5 -135 15 -19 8
-53 15 -75 15 -21 0 -55 7 -75 15 -19 8 -53 15 -75 15 -21 0 -55 7 -75 15 -19
8 -53 15 -75 15 -21 0 -55 7 -75 15 -19 8 -52 15 -72 15 -39 0 -156 37 -220
69 -22 12 -51 21 -63 21 -29 0 -215 62 -286 95 -29 14 -58 25 -65 25 -6 0 -32
14 -57 30 -25 16 -52 30 -60 30 -23 0 -60 29 -60 47 0 9 16 35 34 58 19 23 43
59 52 79 l18 37 -12 44 c-7 25 -12 56 -12 70 0 53 -119 145 -188 145 -18 0
-38 10 -57 30 l-29 30 -73 0 c-78 0 -156 -21 -245 -66 l-48 -24 0 -84 0 -83
20 -18 c10 -9 29 -36 41 -59 29 -56 45 -73 78 -79 16 -3 53 -29 84 -57 31 -28
72 -56 92 -61 21 -6 45 -24 62 -45 18 -24 58 -51 125 -85 54 -27 103 -49 109
-49 17 0 80 -31 114 -56 37 -27 143 -64 186 -64 18 0 134 -33 258 -74 278 -91
297 -96 391 -105 41 -4 85 -13 97 -19 12 -7 54 -12 93 -12 40 0 86 -6 107 -15
20 -8 66 -15 105 -15 38 0 84 -7 105 -15 22 -9 67 -15 120 -15 52 0 97 -6 120
-15 27 -12 80 -15 229 -15 118 0 195 -4 199 -10 8 -14 972 -14 980 0 3 5 32
10 64 10 32 0 75 7 94 15 20 8 59 15 87 15 53 0 132 23 224 65 30 14 60 25 66
25 27 0 110 52 136 86 16 20 50 57 75 83 25 25 56 63 69 84 18 31 27 37 44 32
11 -3 44 -10 71 -15 59 -11 121 -32 193 -65 36 -17 70 -25 108 -25 30 0 71 -7
91 -15 22 -9 67 -15 120 -15 52 0 97 -6 120 -15 19 -8 60 -15 90 -15 29 0 70
-7 90 -15 23 -10 69 -15 135 -15 65 0 111 -5 135 -15 51 -22 435 -22 486 0 21
8 67 15 105 15 39 0 85 7 105 15 20 8 54 15 75 15 22 0 56 7 75 15 20 8 59 15
86 15 64 0 319 84 448 148 l94 46 125 128 125 128 38 0 c21 0 55 7 74 15 52
22 392 22 444 0 19 -8 60 -15 90 -15 29 0 70 -7 90 -15 19 -8 45 -15 56 -15
12 0 81 -20 154 -45 73 -25 147 -45 165 -45 61 0 150 -38 188 -80 23 -26 74
-58 150 -96 62 -32 130 -72 150 -90 19 -17 49 -35 67 -38 17 -4 52 -25 76 -47
35 -31 53 -39 83 -39 l37 0 39 42 c48 52 51 92 11 130 -36 33 -56 43 -153 74
-63 21 -92 37 -133 74 -29 26 -77 60 -107 75 -76 38 -331 291 -360 358 -27 60
-16 87 36 87 51 0 94 45 94 98 0 56 -22 72 -97 72 -33 0 -77 -7 -96 -15 -20
-8 -50 -15 -67 -15 -24 0 -44 -12 -86 -51 -60 -58 -63 -71 -36 -153 13 -38 27
-57 62 -81 25 -18 53 -48 63 -70 l18 -38 -14 -14 -14 -14 -38 15 c-21 9 -47
16 -59 16 -12 0 -60 13 -106 30 -53 18 -105 30 -138 30 -29 0 -69 7 -89 15
-19 8 -53 15 -75 15 -21 0 -55 7 -75 15 -25 10 -71 15 -153 15 -82 0 -128 -5
-153 -15 -49 -20 -166 -20 -195 1 -12 8 -42 55 -67 103 -51 102 -83 134 -185
180 -76 33 -96 43 -160 76 -19 10 -43 22 -52 27 -10 4 -111 8 -225 8 l-208 0
-25 -20z m411 -129 c30 -11 85 -38 122 -60 37 -23 71 -41 75 -41 15 0 40 -34
55 -75 8 -22 22 -60 32 -86 l18 -45 -42 -89 c-23 -49 -49 -97 -58 -108 -24
-25 -154 -87 -185 -87 -14 0 -43 -7 -64 -16 -31 -13 -74 -16 -206 -16 l-166 0
-67 31 c-36 17 -72 31 -78 31 -16 0 -147 87 -164 108 -7 9 -20 33 -29 52 l-15
35 12 44 c21 75 128 170 292 258 23 13 47 23 54 23 6 0 40 13 75 30 l63 29
110 1 c84 0 124 -5 166 -19z m-6465 -228 c97 -98 102 -121 33 -169 l-41 -28
-46 25 c-62 32 -185 152 -180 176 4 25 84 63 130 63 l39 0 65 -67z"/>
</g>
</svg>
