<?xml version="1.0" standalone="no"?>
<!DOCTYPE svg PUBLIC "-//W3C//DTD SVG 20010904//EN"
 "http://www.w3.org/TR/2001/REC-SVG-20010904/DTD/svg10.dtd">
<svg version="1.0" xmlns="http://www.w3.org/2000/svg"
 width="672.000000pt" height="303.000000pt" viewBox="0 0 672.000000 303.000000"
 preserveAspectRatio="xMidYMid meet">
<metadata>
Created by potrace 1.16, written by Peter Selinger 2001-2019
</metadata>
<g transform="translate(0.000000,303.000000) scale(0.100000,-0.100000)"
fill="#000000" stroke="none">
<path d="M0 2981 l0 -49 29 -7 c15 -3 51 -25 79 -49 27 -23 65 -48 83 -55 19
-7 48 -19 64 -28 93 -50 144 -80 179 -105 21 -15 46 -28 55 -28 9 0 36 -14 61
-30 25 -16 51 -30 58 -30 20 0 82 -30 126 -62 21 -15 46 -28 55 -28 9 0 85
-34 169 -75 84 -41 157 -75 163 -75 6 0 40 -13 76 -30 35 -16 70 -30 76 -30 7
0 29 -11 50 -25 46 -32 232 -125 249 -125 6 0 67 -27 135 -60 69 -33 129 -60
136 -60 6 0 76 -32 155 -71 80 -38 179 -81 221 -95 89 -28 112 -39 165 -76 21
-16 45 -28 53 -28 8 0 42 -13 76 -28 34 -16 74 -32 88 -35 26 -7 89 -63 89
-79 0 -13 181 -195 220 -220 23 -16 40 -38 50 -68 12 -34 27 -52 69 -81 29
-20 69 -52 89 -72 38 -36 110 -77 135 -77 8 0 27 -16 42 -35 17 -23 56 -50
108 -77 80 -39 133 -75 189 -126 15 -14 60 -36 98 -48 39 -13 83 -32 98 -43
48 -33 171 -91 195 -91 34 0 134 -38 176 -66 19 -13 42 -24 51 -24 8 0 44 -14
78 -30 35 -17 73 -30 85 -30 11 0 82 -20 156 -44 148 -48 201 -63 273 -76 26
-5 56 -13 67 -19 11 -6 38 -11 61 -11 22 0 57 -7 77 -15 20 -8 66 -15 105 -15
38 0 84 -7 105 -15 19 -8 53 -15 75 -15 21 0 55 -7 75 -15 19 -8 53 -15 75
-15 21 0 55 -7 75 -15 24 -10 71 -15 150 -15 78 0 125 -5 150 -15 19 -8 54
-15 76 -15 59 0 177 -60 217 -110 17 -22 38 -40 47 -40 8 0 44 -13 80 -30 35
-16 77 -30 93 -30 16 0 32 -4 35 -10 7 -12 255 -14 255 -2 0 4 22 34 50 67
l49 60 1 39 c0 41 -11 59 -104 162 -27 30 -61 57 -75 60 -14 4 -47 19 -72 35
l-46 29 -89 0 -89 0 -85 -30 c-46 -17 -100 -30 -119 -30 -36 0 -100 35 -180
99 -25 20 -61 46 -80 60 -20 13 -41 31 -47 40 -7 9 -47 57 -89 106 -109 126
-135 191 -100 242 9 13 33 27 55 33 46 12 82 54 78 89 -4 38 -63 74 -108 67
-153 -25 -175 -36 -229 -113 l-41 -56 0 -50 c0 -38 7 -61 29 -96 16 -25 31
-58 35 -72 3 -15 24 -42 46 -60 40 -33 51 -44 144 -139 24 -25 57 -55 72 -66
l28 -22 -13 -16 c-18 -22 -186 -23 -238 -1 -19 8 -53 15 -75 15 -21 0 -55 7
-75 15 -19 8 -53 15 -75 15 -21 0 -55 7 -75 15 -19 8 -60 15 -90 15 -29 0 -70
7 -90 15 -19 8 -53 15 -75 15 -21 0 -55 7 -75 15 -19 8 -46 15 -60 15 -13 0
-49 12 -80 26 -74 34 -209 74 -313 94 -48 9 -77 22 -126 57 -16 12 -86 40
-155 63 -130 42 -207 78 -299 136 -30 19 -71 39 -91 44 -19 5 -53 25 -75 43
-21 19 -58 44 -80 55 -49 25 -168 105 -204 137 -14 12 -45 33 -70 47 -27 16
-62 50 -89 87 -25 34 -60 73 -79 88 -42 32 -71 94 -72 151 0 75 -45 142 -94
142 -31 0 -67 17 -167 78 -30 17 -70 36 -89 42 -19 5 -86 34 -148 65 -62 30
-117 55 -123 55 -6 0 -40 14 -76 30 -35 17 -76 30 -89 30 -14 0 -55 18 -92 40
-36 22 -82 45 -102 50 -19 5 -59 21 -88 35 -28 14 -58 25 -64 25 -7 0 -33 14
-58 30 -25 16 -51 30 -58 30 -20 0 -82 30 -117 56 -17 13 -68 35 -115 50 -46
15 -129 49 -184 76 -55 27 -132 60 -173 73 -40 13 -90 36 -110 50 -21 14 -44
25 -53 25 -8 0 -35 14 -60 30 -25 16 -52 30 -60 30 -22 0 -195 85 -233 114
-18 14 -67 36 -109 50 -46 15 -111 47 -161 81 -46 30 -89 55 -96 55 -17 0
-100 39 -133 61 -17 13 -43 19 -77 19 l-51 0 0 -49z m6432 -2726 c24 -19 55
-43 70 -53 37 -23 35 -39 -6 -59 l-34 -16 -105 51 c-57 29 -110 58 -116 66
l-12 14 23 16 c14 10 44 16 79 16 l57 0 44 -35z"/>
</g>
</svg>
