<?xml version="1.0" standalone="no"?>
<!DOCTYPE svg PUBLIC "-//W3C//DTD SVG 20010904//EN"
 "http://www.w3.org/TR/2001/REC-SVG-20010904/DTD/svg10.dtd">
<svg version="1.0" xmlns="http://www.w3.org/2000/svg"
 width="201.000000pt" height="168.000000pt" viewBox="0 0 201.000000 168.000000"
 preserveAspectRatio="xMidYMid meet">
<metadata>
Created by potrace 1.16, written by Peter Selinger 2001-2019
</metadata>
<g transform="translate(0.000000,168.000000) scale(0.100000,-0.100000)"
fill="#000000" stroke="none">
<path d="M736 1649 c-14 -17 -26 -37 -26 -45 0 -29 51 -113 83 -138 19 -14 46
-48 61 -76 18 -33 44 -61 75 -81 27 -18 62 -53 79 -79 21 -31 50 -58 85 -78
78 -44 90 -67 98 -192 7 -109 12 -136 59 -285 16 -49 31 -105 35 -123 l7 -32
-23 0 c-33 0 -143 39 -232 82 -43 21 -83 38 -90 38 -7 0 -29 11 -49 25 -19 13
-91 42 -158 64 -67 23 -134 49 -148 60 -35 24 -228 121 -243 121 -20 0 -136
58 -180 89 -23 17 -54 31 -69 31 -15 0 -44 7 -64 15 l-36 15 0 -54 0 -54 33
-25 c18 -13 68 -43 112 -66 44 -23 105 -58 135 -77 30 -19 71 -39 90 -44 42
-11 134 -57 210 -106 30 -19 71 -39 90 -44 19 -5 59 -21 88 -35 28 -14 58 -25
64 -25 7 0 27 -9 43 -21 40 -27 182 -99 196 -99 6 0 38 -13 72 -28 34 -16 73
-32 87 -35 14 -3 44 -22 66 -41 26 -22 70 -45 118 -60 44 -15 110 -48 159 -81
46 -30 89 -55 96 -55 22 0 84 -32 138 -72 l52 -38 56 0 56 0 24 28 c16 18 24
39 25 64 l0 36 -33 21 c-18 11 -43 31 -56 45 -14 14 -31 26 -39 26 -24 0 -141
58 -188 94 -86 66 -174 175 -225 280 -27 55 -49 111 -49 125 0 14 -7 44 -16
68 -18 45 -13 87 10 96 19 8 110 -24 214 -73 l83 -40 77 0 c92 0 112 11 147
80 74 146 -16 318 -197 377 -37 12 -85 33 -105 48 l-38 25 -81 0 -81 0 -40
-29 c-21 -15 -56 -34 -76 -42 l-37 -13 -26 25 c-15 13 -37 40 -49 59 -12 20
-43 48 -67 64 -25 16 -58 47 -72 71 -15 23 -43 57 -63 76 -19 19 -55 60 -80
92 -26 33 -52 57 -63 57 -10 0 -22 5 -25 10 -3 6 -21 10 -40 10 -25 0 -40 -8
-59 -31z m919 -554 c103 -49 149 -106 129 -159 -8 -22 -19 -20 -62 9 -20 14
-43 25 -51 25 -8 0 -47 16 -87 35 -84 40 -112 72 -94 104 17 33 79 28 165 -14z"/>
</g>
</svg>
