<?xml version="1.0" encoding="UTF-8" standalone="no"?>
<!-- Created with Inkscape (http://www.inkscape.org/) -->

<svg
   width="152.10904mm"
   height="73.763573mm"
   viewBox="0 0 152.10904 73.763573"
   version="1.1"
   id="svg1"
   xml:space="preserve"
   xmlns="http://www.w3.org/2000/svg"
   xmlns:svg="http://www.w3.org/2000/svg"><defs
     id="defs1" /><g
     id="layer1"
     transform="translate(-30.850329,-130.278)"><path
       style="fill:#000000"
       d="m 132.39353,202.56245 c -0.67158,-0.81351 -2.5375,-3.29395 -4.14647,-5.51209 -3.82041,-5.26681 -3.89659,-5.35973 -4.39399,-5.35973 -0.31225,0 -0.42494,-0.255 -0.42494,-0.96149 0,-1.45379 0.54025,-3.00726 1.04584,-3.00726 0.45924,0 0.82575,0.45482 4.90385,6.08542 1.42286,1.96453 3.10704,4.18617 3.74262,4.93699 0.99171,1.17151 1.15275,1.52798 1.13547,2.51354 -0.0111,0.63163 -0.1599,1.51637 -0.33073,1.96608 l -0.3106,0.81766 z m -12.40604,-4.1628 c -5.21697,-7.09608 -5.37073,-7.26644 -5.6374,-6.246 -0.0665,0.25466 -0.13481,-0.14085 -0.15169,-0.87891 -0.037,-1.61956 0.65427,-3.84258 1.13732,-3.65722 0.1844,0.0708 0.9156,0.92686 1.6249,1.90244 0.7093,0.97559 2.51418,3.42442 4.01086,5.44185 2.45451,3.30854 2.71926,3.77533 2.7011,4.7625 -0.0111,0.60194 -0.16037,1.48102 -0.33179,1.95351 l -0.31165,0.85907 z M 60.733859,187.68288 c -1.650963,-0.30324 -3.692658,-1.35838 -4.760695,-2.46031 -0.783605,-0.80848 -0.921214,-1.14969 -1.021214,-2.53217 -0.233951,-3.23434 0.792897,-4.87937 3.273405,-5.24404 0.656635,-0.0965 1.208203,-0.27697 1.225706,-0.40096 0.0175,-0.12399 -1.202055,-2.14805 -2.71013,-4.49791 -10.00808,-15.59447 -13.011722,-20.24671 -14.886958,-23.0579 -2.647976,-3.96962 -10.443839,-14.8825 -10.780126,-15.09033 -0.343368,-0.21221 -0.278287,-2.18269 0.107233,-3.24671 l 0.316866,-0.87455 0.553624,0.60996 c 0.818511,0.9018 7.621381,10.45957 10.345587,14.53514 3.136867,4.69295 17.111259,26.41781 19.398873,30.15787 l 0.908387,1.48514 2.754054,0.16851 c 1.51473,0.0927 5.860923,0.16936 9.658208,0.17039 7.386097,0.002 20.416734,0.35683 29.261441,0.79677 2.98318,0.14838 10.96037,0.56099 17.72709,0.91691 6.76672,0.35592 16.52984,0.77245 21.69583,0.92561 11.03825,0.32727 17.84589,0.65215 25.66459,1.22478 3.12869,0.22915 6.87916,0.5041 8.33437,0.61102 1.45521,0.10691 2.66522,0.18513 2.68891,0.17381 0.0237,-0.0113 -1.44243,-2.69431 -3.25806,-5.96221 -1.81563,-3.26789 -5.61525,-9.44503 -8.4436,-13.72697 -4.86668,-7.36782 -5.14138,-7.85087 -5.12233,-9.00732 0.0176,-1.06704 0.70021,-3.57598 0.75349,-2.7694 0.0111,0.16757 1.94248,3.20366 4.29202,6.74687 5.8134,8.76686 6.22858,9.44693 10.50438,17.20622 3.3217,6.02789 3.74457,6.93573 3.74457,8.0391 0,1.66024 -0.50035,3.24479 -1.08299,3.42971 -0.26019,0.0826 -2.17678,0.022 -4.2591,-0.13471 -16.04268,-1.20702 -20.58079,-1.45302 -34.34541,-1.86173 -5.16599,-0.15339 -14.92912,-0.56989 -21.69584,-0.92556 -6.76672,-0.35566 -14.62484,-0.76495 -17.4625,-0.90953 -6.800974,-0.34651 -23.450051,-0.79505 -32.47777,-0.87497 l -7.210062,-0.0638 -0.01422,1.85208 c -0.02805,3.65247 -1.151635,5.05517 -3.677626,4.59121 z m 2.295221,-4.6836 c -0.856333,-1.97979 -0.857203,-1.98024 -3.463784,-1.79522 -1.304451,0.0926 -2.440875,0.23749 -2.525389,0.32201 -0.398518,0.39852 2.476642,1.8696 4.282491,2.19114 1.694542,0.30173 2.077961,0.14044 1.706682,-0.71793 z"
       id="path1" /></g></svg>
