<?xml version="1.0" standalone="no"?>
<!DOCTYPE svg PUBLIC "-//W3C//DTD SVG 20010904//EN"
 "http://www.w3.org/TR/2001/REC-SVG-20010904/DTD/svg10.dtd">
<svg version="1.0" xmlns="http://www.w3.org/2000/svg"
 width="921.000000pt" height="207.000000pt" viewBox="0 0 921.000000 207.000000"
 preserveAspectRatio="xMidYMid meet">
<metadata>
Created by potrace 1.16, written by Peter Selinger 2001-2019
</metadata>
<g transform="translate(0.000000,207.000000) scale(0.100000,-0.100000)"
fill="#000000" stroke="none">
<path d="M7 2063 c-4 -3 -7 -25 -7 -49 l0 -42 25 -6 c13 -3 36 -22 51 -42 26
-33 89 -74 115 -74 27 0 179 -80 217 -114 25 -23 49 -36 67 -36 40 0 153 -56
214 -106 37 -30 63 -44 83 -44 33 0 140 -50 228 -106 30 -19 71 -39 90 -44 19
-5 113 -48 207 -95 95 -47 178 -85 184 -85 17 0 80 -31 114 -56 37 -27 170
-94 187 -94 6 0 81 -34 165 -75 85 -41 159 -75 166 -75 7 0 29 -11 50 -25 47
-32 232 -125 249 -125 7 0 33 -14 58 -30 25 -16 52 -30 60 -30 9 0 32 -11 52
-25 20 -14 70 -41 110 -61 40 -20 94 -54 120 -75 30 -25 73 -47 125 -64 89
-29 116 -41 158 -71 39 -28 171 -94 188 -94 7 0 50 -25 95 -55 46 -30 100 -64
121 -75 51 -25 165 -103 222 -152 l45 -38 77 0 76 0 7 35 c12 63 -42 147 -119
186 -21 11 -60 43 -87 70 -27 28 -56 49 -68 49 -29 0 -46 34 -32 60 13 25 33
25 112 1 81 -24 143 -40 193 -50 55 -11 153 -45 203 -70 23 -11 58 -21 79 -21
21 0 58 -6 83 -14 60 -19 125 -35 182 -46 26 -5 56 -13 67 -19 11 -6 52 -11
91 -11 40 0 86 -6 107 -15 19 -8 53 -15 75 -15 21 0 55 -7 75 -15 24 -10 71
-15 150 -15 78 0 125 -5 150 -15 52 -22 524 -22 576 0 21 8 67 15 105 15 39 0
85 7 105 15 20 8 52 15 71 15 20 0 104 23 188 51 114 38 162 59 192 85 22 19
56 39 75 44 69 18 214 186 234 270 4 14 22 43 40 65 19 22 53 76 75 120 46 90
56 104 92 128 l24 17 174 0 c131 0 181 -4 209 -15 19 -8 60 -15 90 -15 29 0
70 -7 90 -15 19 -8 53 -15 75 -15 23 0 67 -13 105 -30 37 -17 81 -30 104 -30
22 0 56 -7 76 -15 19 -8 52 -15 72 -15 20 0 56 -7 81 -15 25 -8 62 -17 83 -20
29 -5 51 -19 85 -54 26 -27 62 -56 79 -65 18 -9 79 -63 135 -120 57 -57 117
-111 135 -120 17 -8 52 -34 77 -55 55 -48 178 -132 238 -162 24 -12 57 -33 74
-46 17 -13 54 -30 82 -38 l52 -16 38 20 c21 11 51 35 65 55 27 35 36 89 17
101 -6 4 -21 28 -34 53 -32 63 -226 232 -266 232 -9 0 -29 14 -45 30 -16 17
-35 30 -43 30 -20 0 -81 30 -126 62 -21 15 -45 28 -53 28 -8 0 -40 12 -71 26
-152 69 -340 232 -362 313 -6 22 -15 43 -21 47 -6 3 -24 24 -40 46 -42 59 -40
108 6 159 36 40 51 78 42 104 -8 21 -81 55 -117 55 -32 0 -118 -39 -137 -62
-15 -17 -53 -132 -53 -158 0 -24 29 -112 60 -184 l21 -49 -16 -16 -15 -15 -42
13 c-24 7 -70 16 -103 20 -34 5 -70 13 -82 19 -12 7 -46 12 -75 12 -34 0 -85
11 -138 30 -62 21 -104 30 -153 30 -37 0 -84 7 -104 15 -24 10 -71 15 -150 15
-117 0 -185 -15 -272 -60 -87 -45 -191 -204 -191 -293 0 -34 -6 -49 -26 -68
-14 -13 -37 -45 -49 -70 -13 -26 -37 -58 -52 -72 -53 -47 -108 -93 -143 -119
-38 -29 -141 -68 -176 -68 -13 0 -52 -13 -87 -30 -36 -16 -76 -30 -90 -30 -13
0 -41 -7 -60 -15 -24 -10 -70 -15 -135 -15 -66 0 -112 -5 -135 -15 -51 -21
-303 -21 -354 0 -26 11 -74 15 -180 15 -105 0 -153 4 -180 15 -19 8 -59 15
-87 15 -28 0 -71 6 -96 14 -78 25 -133 37 -195 45 -34 5 -70 13 -82 19 -12 7
-47 12 -78 12 -30 0 -72 7 -92 15 -19 8 -53 15 -75 15 -45 0 -144 42 -209 89
-31 23 -53 31 -83 31 -42 0 -126 25 -204 61 -51 23 -220 79 -240 79 -35 0
-125 -34 -185 -70 -75 -45 -99 -49 -142 -19 -40 27 -182 99 -195 99 -25 0
-122 52 -158 85 -22 19 -45 35 -51 35 -7 0 -37 12 -68 26 -31 14 -86 35 -122
46 -36 12 -80 34 -96 50 -17 15 -37 28 -44 28 -22 0 -196 87 -242 120 -23 16
-48 30 -56 30 -8 0 -44 14 -80 30 -35 17 -69 30 -74 30 -6 0 -40 18 -77 40
-36 22 -82 45 -102 50 -19 5 -59 21 -88 35 -28 14 -58 25 -65 25 -8 0 -24 12
-38 26 -31 33 -60 48 -156 79 -91 29 -114 40 -167 77 -21 16 -45 28 -53 28 -8
0 -44 14 -80 30 -35 17 -70 30 -76 30 -7 0 -25 9 -42 21 -56 38 -164 89 -242
114 -98 32 -170 66 -224 105 -23 16 -49 30 -57 30 -19 0 -143 62 -212 106 -30
19 -66 37 -80 41 -36 8 -110 42 -142 64 -26 19 -78 26 -91 12z"/>
</g>
</svg>
