<?xml version="1.0" standalone="no"?>
<!DOCTYPE svg PUBLIC "-//W3C//DTD SVG 20010904//EN"
 "http://www.w3.org/TR/2001/REC-SVG-20010904/DTD/svg10.dtd">
<svg version="1.0" xmlns="http://www.w3.org/2000/svg"
 width="375.000000pt" height="126.000000pt" viewBox="0 0 375.000000 126.000000"
 preserveAspectRatio="xMidYMid meet">
<metadata>
Created by potrace 1.16, written by Peter Selinger 2001-2019
</metadata>
<g transform="translate(0.000000,126.000000) scale(0.100000,-0.100000)"
fill="#000000" stroke="none">
<path d="M2178 1216 c-16 -24 -28 -57 -28 -73 0 -17 18 -69 41 -117 l40 -87
-11 -15 c-17 -20 -158 -19 -207 1 l-35 15 -313 0 -313 0 -35 -15 c-20 -8 -48
-15 -62 -15 -14 0 -48 -11 -75 -25 -37 -19 -59 -40 -93 -92 -25 -38 -48 -78
-52 -90 -3 -13 -10 -23 -15 -23 -19 0 -121 50 -153 74 -18 14 -69 37 -115 51
l-82 27 -60 54 c-33 30 -68 54 -76 54 -22 0 -82 29 -128 62 -21 15 -47 28 -56
28 -9 0 -27 12 -41 26 -25 27 -89 64 -111 64 -7 0 -33 14 -58 30 -34 23 -56
30 -92 30 l-48 0 0 -28 c0 -20 15 -45 51 -85 51 -58 173 -147 200 -147 9 0 26
-12 40 -26 13 -14 42 -35 64 -46 22 -12 54 -32 72 -45 17 -13 47 -28 65 -34
19 -5 52 -24 74 -43 40 -34 114 -76 134 -76 26 0 148 -64 191 -100 30 -25 73
-48 115 -61 39 -12 83 -35 99 -51 23 -21 41 -28 69 -28 l39 0 43 44 c48 47 52
65 29 119 -31 74 -12 147 45 181 19 11 51 16 98 16 39 0 85 7 105 15 26 11 73
15 162 15 89 0 136 -4 162 -15 26 -11 74 -15 180 -15 105 0 153 -4 180 -15 19
-8 47 -15 62 -15 14 0 67 -20 116 -43 50 -24 102 -47 118 -51 15 -3 57 -35 95
-69 37 -35 100 -85 139 -111 40 -26 82 -61 94 -77 11 -16 48 -43 80 -60 33
-16 76 -45 97 -63 20 -19 80 -55 132 -81 52 -26 116 -65 141 -86 46 -37 146
-79 192 -79 13 0 28 -5 33 -10 7 -7 54 -10 120 -8 l109 3 3 90 2 90 -40 39
c-22 21 -40 42 -40 47 0 15 -54 71 -93 96 -22 14 -61 45 -87 69 -25 24 -92 66
-150 95 -58 29 -118 62 -135 75 -16 12 -85 41 -153 63 -67 22 -139 52 -159 66
-25 16 -51 25 -78 25 -22 0 -84 15 -137 33 l-97 33 -70 79 c-39 43 -78 98 -87
121 l-16 43 31 67 c17 36 31 79 31 95 l0 29 -132 0 -133 -1 -27 -43z m981
-768 c47 -22 102 -53 121 -67 19 -15 56 -37 81 -49 54 -26 75 -47 84 -84 l7
-28 -31 0 c-21 0 -47 13 -83 42 -30 24 -71 52 -93 63 -22 10 -56 32 -76 47
-20 15 -41 28 -45 28 -11 0 -84 72 -84 82 0 17 36 7 119 -34z"/>
</g>
</svg>
