<?xml version="1.0" standalone="no"?>
<!DOCTYPE svg PUBLIC "-//W3C//DTD SVG 20010904//EN"
 "http://www.w3.org/TR/2001/REC-SVG-20010904/DTD/svg10.dtd">
<svg version="1.0" xmlns="http://www.w3.org/2000/svg"
 width="699.000000pt" height="381.000000pt" viewBox="0 0 699.000000 381.000000"
 preserveAspectRatio="xMidYMid meet">
<metadata>
Created by potrace 1.16, written by Peter Selinger 2001-2019
</metadata>
<g transform="translate(0.000000,381.000000) scale(0.100000,-0.100000)"
fill="#000000" stroke="none">
<path d="M545 3800 c-3 -5 -40 -10 -80 -10 l-74 0 -33 -28 c-18 -16 -64 -39
-103 -51 -38 -12 -80 -28 -91 -34 -41 -23 -103 -86 -123 -126 -12 -22 -25 -42
-31 -46 -13 -8 -14 -372 0 -380 6 -3 10 -21 10 -38 0 -18 11 -49 25 -69 13
-20 31 -53 39 -75 7 -21 24 -63 36 -93 13 -30 30 -72 38 -93 9 -22 31 -51 50
-65 19 -14 50 -51 69 -81 42 -65 57 -82 372 -398 133 -134 248 -243 257 -243
31 0 104 -41 155 -88 30 -27 88 -66 129 -87 41 -20 95 -54 120 -75 48 -39 120
-80 143 -80 7 0 51 -18 98 -41 90 -44 160 -69 196 -69 26 0 63 44 63 75 0 30
-30 55 -67 55 -45 0 -308 134 -443 225 -63 43 -137 91 -165 108 -27 16 -70 51
-94 78 -24 27 -60 58 -80 69 -46 23 -351 326 -351 348 0 9 -29 44 -65 79 -39
38 -76 86 -95 123 -17 34 -50 85 -74 114 -55 68 -96 186 -96 278 0 38 -7 82
-16 104 -12 28 -14 53 -9 89 9 71 9 87 1 115 -5 20 4 41 45 103 54 82 107 127
150 127 15 0 43 7 62 15 26 11 73 15 162 15 89 0 136 -4 162 -15 19 -8 60 -15
90 -15 29 0 70 -7 90 -15 19 -8 54 -15 76 -15 29 0 75 -17 164 -60 69 -33 134
-60 147 -60 33 0 134 -38 175 -66 19 -13 43 -24 51 -24 8 0 32 -11 51 -24 41
-28 146 -66 182 -66 13 0 34 -12 48 -26 13 -14 42 -35 64 -46 22 -12 54 -31
70 -43 17 -13 54 -35 83 -50 29 -15 65 -43 79 -62 15 -19 48 -45 74 -59 27
-13 59 -38 71 -55 12 -16 47 -49 78 -72 30 -22 80 -66 110 -97 30 -30 75 -68
98 -84 24 -16 66 -57 94 -92 28 -37 58 -64 68 -64 11 0 37 -26 64 -62 25 -35
56 -74 69 -88 14 -14 30 -36 37 -49 l12 -23 -15 -15 -15 -15 -67 31 c-36 17
-71 31 -77 31 -5 0 -39 13 -75 30 -35 17 -75 30 -89 30 -14 0 -41 7 -61 15
-22 9 -67 15 -120 15 -52 0 -97 6 -120 15 -46 19 -140 19 -186 0 -20 -8 -49
-15 -64 -15 -43 0 -105 -41 -130 -85 l-23 -40 0 -79 0 -80 44 -65 c27 -39 131
-150 258 -274 117 -114 233 -227 258 -251 46 -45 85 -68 130 -79 14 -4 43 -22
65 -40 54 -46 83 -60 211 -100 161 -52 215 -62 254 -48 18 6 69 11 114 11 82
0 186 28 241 64 52 34 95 162 95 279 l0 85 -26 57 c-14 33 -21 62 -16 67 13
13 269 -75 342 -119 77 -45 215 -108 348 -157 18 -7 45 -25 60 -39 17 -17 39
-27 58 -27 32 0 197 -76 247 -114 33 -25 142 -66 175 -66 43 0 124 -38 152
-72 l29 -35 87 -28 c94 -30 113 -39 160 -72 17 -12 82 -48 145 -79 135 -68
169 -90 169 -110 0 -8 29 -48 64 -89 36 -40 76 -91 89 -112 27 -42 140 -153
155 -153 6 0 74 -60 152 -134 105 -99 151 -136 175 -140 18 -4 53 -24 77 -46
24 -21 100 -67 169 -101 68 -34 138 -72 154 -85 49 -36 112 -64 144 -64 16 0
33 -5 36 -10 9 -14 176 -12 208 3 l27 12 0 88 0 89 -143 141 c-78 78 -173 165
-210 192 -38 28 -82 60 -99 72 -17 13 -45 27 -64 32 -18 5 -67 32 -108 60 -81
54 -207 121 -228 121 -8 0 -30 11 -50 25 -20 14 -69 41 -107 60 -66 33 -162
95 -238 152 -17 13 -38 39 -47 58 -19 39 -21 111 -3 122 25 16 112 43 138 43
55 0 102 69 67 98 -12 9 -103 23 -153 23 -49 1 -153 -19 -182 -34 -17 -9 -53
-46 -79 -82 l-49 -66 -25 7 c-14 4 -44 10 -67 14 -42 7 -51 12 -111 62 -18 16
-40 28 -50 28 -9 0 -100 40 -200 90 -101 50 -196 90 -210 90 -33 0 -192 76
-252 119 -24 17 -50 31 -59 31 -9 0 -58 20 -109 45 -52 25 -99 45 -105 45 -7
0 -32 14 -57 30 -25 16 -51 30 -59 30 -8 0 -84 34 -168 75 -85 41 -158 75
-164 75 -6 0 -40 14 -76 30 -35 17 -69 30 -75 30 -18 0 -139 60 -173 86 -18
14 -51 30 -72 36 -51 14 -93 45 -93 69 0 13 -129 150 -357 380 -277 279 -377
373 -441 416 -51 34 -92 70 -107 94 -24 37 -105 89 -139 89 -8 0 -24 13 -35
29 -23 31 -110 95 -181 131 -23 12 -61 35 -83 51 -22 16 -46 29 -54 29 -8 0
-44 14 -80 30 -35 17 -70 30 -76 30 -13 0 -72 31 -141 73 -53 33 -169 76 -206
77 -14 0 -38 9 -55 21 -73 49 -185 99 -225 99 -22 0 -57 7 -77 15 -20 9 -66
15 -109 15 -40 0 -76 5 -79 10 -4 6 -68 10 -160 10 -92 0 -156 -4 -160 -10z
m1822 -1515 c19 -8 53 -15 75 -15 21 0 55 -7 75 -15 19 -8 53 -15 75 -15 23 0
67 -13 105 -30 35 -16 69 -30 74 -30 6 0 35 -11 65 -25 68 -31 168 -65 192
-65 42 0 225 -75 266 -109 24 -21 91 -156 122 -245 29 -85 32 -184 8 -226 -29
-48 -66 -62 -173 -64 -54 -2 -103 -6 -110 -10 -55 -34 -526 218 -586 314 -13
20 -38 48 -55 61 -38 29 -83 73 -129 128 -19 23 -47 45 -64 49 -17 4 -33 14
-37 22 -4 8 -19 40 -33 70 -15 30 -37 71 -49 92 l-23 36 10 27 c7 20 23 32 60
45 63 23 87 24 132 5z m3683 -1625 c0 -12 83 -40 120 -40 44 0 150 -52 223
-109 32 -25 82 -64 112 -86 141 -105 202 -156 219 -185 l18 -32 -13 -9 c-19
-12 -17 -12 -79 10 -30 11 -62 28 -70 39 -9 11 -36 30 -61 44 -76 41 -159 98
-214 146 -29 26 -78 65 -109 86 -31 22 -63 50 -71 62 -8 13 -35 35 -60 49 -42
25 -63 51 -30 39 8 -4 15 -10 15 -14z"/>
</g>
</svg>
