<?xml version="1.0" standalone="no"?>
<!DOCTYPE svg PUBLIC "-//W3C//DTD SVG 20010904//EN"
 "http://www.w3.org/TR/2001/REC-SVG-20010904/DTD/svg10.dtd">
<svg version="1.0" xmlns="http://www.w3.org/2000/svg"
 width="2556.000000pt" height="1596.000000pt" viewBox="0 0 2556.000000 1596.000000"
 preserveAspectRatio="xMidYMid meet">
<metadata>
Created by potrace 1.16, written by Peter Selinger 2001-2019
</metadata>
<g transform="translate(0.000000,1596.000000) scale(0.100000,-0.100000)"
fill="#000000" stroke="none">
<path d="M1297 15022 l-17 -19 0 -635 0 -635 18 -16 c13 -12 37 -17 80 -17
l61 0 11 -19 c6 -12 10 -116 10 -269 l0 -249 18 -16 c13 -12 37 -17 80 -17
l61 0 11 -19 c5 -11 10 -84 10 -164 l0 -144 18 -16 c14 -13 38 -17 95 -17 l76
0 11 -19 c6 -11 10 -88 10 -179 l0 -159 18 -16 c13 -12 37 -17 80 -17 l61 0
11 -19 c5 -11 10 -84 10 -164 l0 -144 18 -16 c13 -12 37 -17 80 -17 l61 0 11
-19 c6 -11 10 -88 10 -179 l0 -159 18 -16 c14 -13 38 -17 95 -17 l76 0 11 -19
c5 -11 10 -44 10 -74 0 -72 17 -87 98 -87 l61 0 11 -19 c5 -11 10 -44 10 -74
0 -72 17 -87 98 -87 l61 0 11 -19 c5 -11 10 -51 10 -89 0 -92 11 -102 113
-102 l76 0 11 -19 c5 -11 10 -84 10 -164 l0 -144 18 -16 c13 -12 37 -17 80
-17 l61 0 11 -19 c5 -11 10 -51 10 -89 0 -89 13 -102 98 -102 l61 0 11 -19 c5
-11 10 -44 10 -74 0 -72 17 -87 98 -87 l61 0 11 -19 c5 -11 10 -44 10 -74 0
-75 15 -87 113 -87 l76 0 11 -19 c5 -11 10 -51 10 -89 0 -89 13 -102 98 -102
l61 0 11 -19 c5 -11 10 -44 10 -74 0 -72 17 -87 98 -87 l61 0 11 -19 c5 -11
10 -44 10 -74 0 -75 15 -87 113 -87 l76 0 11 -19 c5 -11 10 -44 10 -74 0 -72
17 -87 98 -87 l61 0 11 -19 c5 -11 10 -51 10 -89 0 -89 13 -102 98 -102 l61 0
11 -19 c5 -11 10 -44 10 -74 0 -72 17 -87 98 -87 l61 0 11 -19 c5 -11 10 -44
10 -74 0 -75 15 -87 113 -87 l76 0 11 -19 c5 -11 10 -51 10 -89 0 -54 4 -72
18 -85 l19 -17 151 0 151 0 11 -19 c5 -11 10 -44 10 -74 0 -75 15 -87 113 -87
l76 0 11 -19 c5 -11 10 -44 10 -74 0 -72 17 -87 98 -87 l61 0 11 -19 c5 -11
10 -51 10 -89 0 -89 13 -102 98 -102 l61 0 11 -19 c5 -11 10 -44 10 -74 0 -40
5 -58 18 -70 l19 -17 166 0 166 0 11 -19 c5 -11 10 -44 10 -74 0 -72 17 -87
98 -87 l61 0 11 -19 c5 -11 10 -44 10 -74 0 -40 5 -58 18 -70 l19 -17 166 0
166 0 11 -19 c5 -11 10 -51 10 -89 0 -89 13 -102 98 -102 l61 0 11 -19 c5 -11
10 -44 10 -74 0 -40 5 -58 18 -70 l19 -17 166 0 166 0 11 -19 c5 -11 10 -44
10 -74 0 -72 17 -87 98 -87 l61 0 11 -19 c5 -11 10 -51 10 -89 0 -54 4 -72 18
-85 l19 -17 151 0 151 0 11 -19 c5 -11 10 -44 10 -74 0 -40 5 -58 18 -70 l19
-17 166 0 166 0 11 -19 c5 -11 10 -44 10 -74 0 -72 17 -87 98 -87 l61 0 11
-19 c5 -11 10 -51 10 -89 0 -54 4 -72 18 -85 l19 -17 166 0 166 0 11 -19 c5
-11 10 -44 10 -74 0 -72 17 -87 98 -87 l61 0 11 -19 c5 -11 10 -44 10 -74 0
-40 5 -58 18 -70 l19 -17 166 0 166 0 11 -19 c5 -11 10 -44 10 -74 0 -40 5
-58 18 -70 l19 -17 151 0 151 0 11 -19 c5 -11 10 -51 10 -89 0 -54 4 -72 18
-85 l19 -17 166 0 166 0 11 -19 c5 -11 10 -44 10 -74 0 -40 5 -58 18 -70 l19
-17 166 0 166 0 11 -19 c5 -11 10 -44 10 -74 0 -72 17 -87 98 -87 l61 0 11
-19 c5 -11 10 -51 10 -89 0 -54 4 -72 18 -85 l19 -17 151 0 151 0 11 -19 c5
-11 10 -44 10 -74 0 -40 5 -58 18 -70 l19 -17 256 0 256 0 11 -19 c5 -11 10
-44 10 -74 0 -40 5 -58 18 -70 l19 -17 166 0 166 0 11 -19 c5 -11 10 -51 10
-89 0 -54 4 -72 18 -85 l19 -17 166 0 166 0 11 -19 c5 -11 10 -44 10 -74 0
-40 5 -58 18 -70 l19 -17 346 0 346 0 11 -19 c5 -11 10 -44 10 -74 0 -40 5
-58 18 -70 l19 -17 151 0 151 0 11 -19 c5 -11 10 -44 10 -74 0 -40 5 -58 18
-70 l19 -17 346 0 346 0 11 -19 c5 -11 10 -51 10 -89 0 -54 4 -72 18 -85 l19
-17 256 0 256 0 11 -19 c5 -11 10 -44 10 -74 0 -40 5 -58 18 -70 l19 -17 451
0 451 0 11 -19 c5 -11 10 -44 10 -74 0 -40 5 -58 18 -70 l19 -17 346 0 346 0
11 -19 c5 -11 10 -51 10 -89 0 -54 4 -72 18 -85 l19 -17 826 0 826 0 11 -19
c5 -11 10 -44 10 -74 0 -40 5 -58 18 -70 l19 -17 721 0 721 0 11 -19 c5 -11
10 -44 10 -74 0 -40 5 -58 18 -70 l19 -17 256 0 256 0 11 -19 c5 -11 10 -51
10 -89 0 -89 13 -102 98 -102 l61 0 11 -19 c5 -11 10 -44 10 -74 0 -40 5 -58
18 -70 l19 -17 166 0 166 0 11 -19 c5 -11 10 -44 10 -74 0 -40 5 -58 18 -70
l19 -17 151 0 151 0 11 -19 c5 -11 10 -44 10 -74 0 -75 15 -87 113 -87 l76 0
11 -19 c5 -11 10 -51 10 -89 0 -54 4 -72 18 -85 l19 -17 151 0 151 0 11 -19
c5 -11 10 -44 10 -74 0 -40 5 -58 18 -70 l19 -17 166 0 166 0 11 -19 c5 -11
10 -44 10 -74 0 -40 5 -58 18 -70 l19 -17 256 0 256 0 11 -19 c5 -11 10 -51
10 -89 0 -54 4 -72 18 -85 l19 -17 151 0 151 0 11 -19 c5 -11 10 -44 10 -74 0
-40 5 -58 18 -70 l19 -17 635 0 635 0 16 18 c11 12 17 36 17 71 0 29 5 61 10
72 l11 19 78 0 78 0 16 18 17 19 0 455 0 455 -18 16 -19 17 -166 0 -166 0 -11
19 c-5 11 -10 44 -10 74 0 72 -17 87 -98 87 l-61 0 -11 19 c-5 11 -10 44 -10
74 0 75 -15 87 -113 87 l-76 0 -11 19 c-5 11 -10 51 -10 89 0 54 -4 72 -18 85
l-19 17 -241 0 -241 0 -11 19 c-5 11 -10 44 -10 74 0 40 -5 58 -18 70 l-19 17
-166 0 -166 0 -11 19 c-5 11 -10 44 -10 74 0 40 -5 58 -18 70 l-19 17 -541 0
-541 0 -11 19 c-5 11 -10 51 -10 89 0 54 -4 72 -18 85 l-19 17 -916 0 -916 0
-11 19 c-5 11 -10 44 -10 74 0 72 -17 87 -98 87 l-61 0 -11 19 c-5 11 -10 44
-10 74 0 72 -17 87 -98 87 l-61 0 -11 19 c-5 11 -10 51 -10 89 0 92 -11 102
-113 102 l-76 0 -11 19 c-5 11 -10 44 -10 74 0 72 -17 87 -98 87 l-61 0 -11
19 c-5 11 -10 44 -10 74 0 72 -17 87 -98 87 l-61 0 -11 19 c-5 11 -10 44 -10
74 0 72 -17 87 -98 87 l-61 0 -11 19 c-6 11 -10 88 -10 179 l0 159 -18 16
c-14 13 -38 17 -95 17 l-76 0 -11 19 c-5 11 -10 44 -10 74 0 72 -17 87 -98 87
l-61 0 -11 19 c-14 27 -14 695 0 722 l11 19 63 0 c80 0 96 15 96 89 0 29 5 61
10 72 l11 19 168 0 168 0 16 18 17 19 0 155 0 155 -18 16 -19 17 -350 0 -350
0 -16 -18 c-11 -12 -17 -36 -17 -71 0 -29 -5 -61 -10 -72 l-11 -19 -78 0 -78
0 -16 -18 c-11 -12 -17 -36 -17 -71 0 -29 -5 -61 -10 -72 l-11 -19 -63 0 c-48
0 -67 -4 -79 -18 l-17 -19 0 -455 0 -455 18 -16 c13 -12 37 -17 80 -17 l61 0
11 -19 c5 -11 10 -84 10 -164 l0 -144 18 -16 c14 -13 38 -17 95 -17 l76 0 11
-19 c5 -11 10 -51 10 -89 0 -89 13 -102 98 -102 l61 0 11 -19 c5 -11 10 -84
10 -164 l0 -144 18 -16 c13 -12 37 -17 80 -17 l61 0 11 -19 c5 -11 10 -44 10
-74 0 -75 15 -87 113 -87 l76 0 11 -19 c5 -11 10 -51 10 -89 0 -89 13 -102 98
-102 l61 0 11 -19 c5 -11 10 -38 10 -61 0 -23 -5 -50 -10 -61 l-11 -19 -824 0
-824 0 -11 19 c-5 11 -10 44 -10 74 0 40 -5 58 -18 70 l-19 17 -541 0 -541 0
-11 19 c-5 11 -10 51 -10 89 0 54 -4 72 -18 85 l-19 17 -346 0 -346 0 -11 19
c-5 11 -10 44 -10 74 0 40 -5 58 -18 70 l-19 17 -436 0 -436 0 -11 19 c-5 11
-10 44 -10 74 0 40 -5 58 -18 70 l-19 17 -256 0 -256 0 -11 19 c-5 11 -10 44
-10 74 0 40 -5 58 -18 70 l-19 17 -256 0 -256 0 -11 19 c-5 11 -10 51 -10 89
0 54 -4 72 -18 85 l-19 17 -256 0 -256 0 -11 19 c-5 11 -10 44 -10 74 0 40 -5
58 -18 70 l-19 17 -256 0 -256 0 -11 19 c-5 11 -10 44 -10 74 0 40 -5 58 -18
70 l-19 17 -151 0 -151 0 -11 19 c-5 11 -10 51 -10 89 0 54 -4 72 -18 85 l-19
17 -166 0 -166 0 -11 19 c-5 11 -10 44 -10 74 0 40 -5 58 -18 70 l-19 17 -166
0 -166 0 -11 19 c-5 11 -10 44 -10 74 0 40 -5 58 -18 70 l-19 17 -151 0 -151
0 -11 19 c-5 11 -10 51 -10 89 0 54 -4 72 -18 85 l-19 17 -166 0 -166 0 -11
19 c-5 11 -10 44 -10 74 0 40 -5 58 -18 70 l-19 17 -151 0 -151 0 -11 19 c-5
11 -10 44 -10 74 0 40 -5 58 -18 70 l-19 17 -166 0 -166 0 -11 19 c-5 11 -10
44 -10 74 0 40 -5 58 -18 70 l-19 17 -151 0 -151 0 -11 19 c-5 11 -10 51 -10
89 0 92 -11 102 -113 102 l-76 0 -11 19 c-5 11 -10 44 -10 74 0 40 -5 58 -18
70 l-19 17 -151 0 -151 0 -11 19 c-5 11 -10 44 -10 74 0 40 -5 58 -18 70 l-19
17 -166 0 -166 0 -11 19 c-5 11 -10 51 -10 89 0 89 -13 102 -98 102 l-61 0
-11 19 c-5 11 -10 44 -10 74 0 40 -5 58 -18 70 l-19 17 -166 0 -166 0 -11 19
c-5 11 -10 44 -10 74 0 72 -17 87 -98 87 l-61 0 -11 19 c-5 11 -10 51 -10 89
0 54 -4 72 -18 85 l-19 17 -166 0 -166 0 -11 19 c-5 11 -10 44 -10 74 0 72
-17 87 -98 87 l-61 0 -11 19 c-5 11 -10 44 -10 74 0 40 -5 58 -18 70 l-19 17
-166 0 -166 0 -11 19 c-5 11 -10 44 -10 74 0 72 -17 87 -98 87 l-61 0 -11 19
c-5 11 -10 51 -10 89 0 89 -13 102 -98 102 l-61 0 -11 19 c-5 11 -10 44 -10
74 0 72 -17 87 -98 87 l-61 0 -11 19 c-5 11 -10 44 -10 74 0 40 -5 58 -18 70
l-19 17 -166 0 -166 0 -11 19 c-5 11 -10 51 -10 89 0 89 -13 102 -98 102 l-61
0 -11 19 c-5 11 -10 44 -10 74 0 75 -15 87 -113 87 l-76 0 -11 19 c-5 11 -10
44 -10 74 0 72 -17 87 -98 87 l-61 0 -11 19 c-5 11 -10 51 -10 89 0 54 -4 72
-18 85 l-19 17 -166 0 -166 0 -11 19 c-5 11 -10 84 -10 164 l0 144 -18 16
c-13 12 -37 17 -80 17 l-61 0 -11 19 c-5 11 -10 44 -10 74 0 72 -17 87 -98 87
l-61 0 -11 19 c-5 11 -10 51 -10 89 0 54 -4 72 -18 85 l-19 17 -166 0 -166 0
-11 19 c-5 11 -10 84 -10 164 l0 144 -18 16 c-13 12 -37 17 -80 17 l-61 0 -11
19 c-5 11 -10 51 -10 89 0 89 -13 102 -98 102 l-61 0 -11 19 c-5 11 -10 44
-10 74 0 75 -15 87 -113 87 l-76 0 -11 19 c-5 11 -10 44 -10 74 0 72 -17 87
-98 87 l-61 0 -11 19 c-5 11 -10 51 -10 89 0 89 -13 102 -98 102 l-61 0 -11
19 c-5 11 -10 84 -10 164 l0 144 -18 16 c-13 12 -37 17 -80 17 l-61 0 -11 19
c-5 11 -10 44 -10 74 0 75 -15 87 -113 87 l-76 0 -11 19 c-5 11 -10 51 -10 89
0 89 -13 102 -98 102 l-61 0 -11 19 c-5 11 -10 84 -10 164 l0 144 -18 16 c-13
12 -37 17 -80 17 l-61 0 -11 19 c-6 11 -10 88 -10 179 l0 159 -18 16 c-14 13
-38 17 -95 17 l-76 0 -11 19 c-5 11 -10 84 -10 164 l0 144 -18 16 c-13 12 -37
17 -80 17 l-61 0 -11 19 c-6 12 -10 116 -10 269 l0 249 -18 16 c-13 12 -37 17
-80 17 l-61 0 -11 19 c-6 13 -10 149 -10 374 l0 354 -18 16 c-14 13 -38 17
-95 17 l-76 0 -11 19 c-6 12 -10 112 -10 254 l0 234 -18 16 -19 17 -155 0
-155 0 -16 -18z m21483 -12471 c5 -11 10 -50 10 -87 0 -49 5 -73 17 -86 l16
-18 168 0 168 0 11 -19 c5 -11 10 -43 10 -72 0 -35 6 -59 17 -71 l16 -18 258
0 258 0 11 -19 c5 -11 10 -43 10 -72 0 -74 16 -89 96 -89 l63 0 11 -19 c5 -11
10 -43 10 -72 0 -35 6 -59 17 -71 l16 -18 168 0 168 0 11 -19 c6 -12 10 -112
10 -256 0 -144 -4 -244 -10 -256 l-11 -19 -344 0 -344 0 -11 19 c-5 11 -10 43
-10 72 0 35 -6 59 -17 71 l-16 18 -258 0 -258 0 -11 19 c-5 11 -10 43 -10 72
0 35 -6 59 -17 71 l-16 18 -168 0 -168 0 -11 19 c-5 11 -10 50 -10 87 0 49 -5
73 -17 86 l-16 18 -153 0 -153 0 -11 19 c-5 11 -10 43 -10 72 0 35 -6 59 -17
71 l-16 18 -168 0 -168 0 -11 19 c-5 11 -10 43 -10 72 0 35 -6 59 -17 71 l-16
18 -168 0 -168 0 -11 19 c-5 11 -10 43 -10 72 0 74 -16 89 -96 89 l-63 0 -11
19 c-5 11 -10 45 -10 76 0 31 5 65 10 76 l11 19 719 0 719 0 11 -19z"/>
</g>
</svg>
