<?xml version="1.0" standalone="no"?>
<!DOCTYPE svg PUBLIC "-//W3C//DTD SVG 20010904//EN"
 "http://www.w3.org/TR/2001/REC-SVG-20010904/DTD/svg10.dtd">
<svg version="1.0" xmlns="http://www.w3.org/2000/svg"
 width="2352.000000pt" height="528.000000pt" viewBox="0 0 2352.000000 528.000000"
 preserveAspectRatio="xMidYMid meet">
<metadata>
Created by potrace 1.16, written by Peter Selinger 2001-2019
</metadata>
<g transform="translate(0.000000,528.000000) scale(0.100000,-0.100000)"
fill="#000000" stroke="none">
<path d="M15907 4792 c-11 -12 -17 -36 -17 -71 0 -29 -5 -61 -10 -72 l-11 -19
-63 0 c-80 0 -96 -15 -96 -89 0 -29 -5 -61 -10 -72 l-11 -19 -168 0 -168 0
-16 -18 -17 -19 0 -260 0 -260 18 -16 c13 -12 37 -17 80 -17 l61 0 11 -19 c6
-11 10 -88 10 -179 l0 -159 18 -16 c14 -13 38 -17 95 -17 l76 0 11 -19 c5 -11
10 -44 10 -74 0 -72 17 -87 98 -87 l61 0 11 -19 c6 -11 10 -88 10 -179 l0
-159 18 -16 19 -17 166 0 166 0 11 -19 c5 -11 10 -51 10 -89 0 -89 13 -102 98
-102 l61 0 11 -19 c5 -11 10 -79 10 -151 0 -72 -5 -140 -10 -151 l-11 -19
-929 0 -929 0 -11 19 c-5 11 -10 44 -10 74 0 40 -5 58 -18 70 l-19 17 -2161 0
-2161 0 -11 19 c-5 11 -10 44 -10 74 0 40 -5 58 -18 70 l-19 17 -2251 0 -2251
0 -11 19 c-5 11 -10 51 -10 89 0 54 -4 72 -18 85 l-19 17 -2645 0 -2645 0 -16
-18 c-13 -14 -17 -38 -17 -99 l0 -80 18 -16 19 -17 826 0 826 0 11 -19 c5 -11
10 -44 10 -74 0 -40 5 -58 18 -70 l19 -17 1696 0 1696 0 11 -19 c5 -11 10 -44
10 -74 0 -40 5 -58 18 -70 l19 -17 2536 0 2536 0 11 -19 c5 -11 10 -51 10 -89
0 -54 4 -72 18 -85 l19 -17 2356 0 2356 0 11 -19 c5 -11 10 -44 10 -74 0 -40
5 -58 18 -70 l19 -17 1201 0 1201 0 11 -19 c5 -11 10 -44 10 -74 0 -40 5 -58
18 -70 l19 -17 166 0 166 0 11 -19 c5 -11 10 -51 10 -89 0 -54 4 -72 18 -85
l19 -17 166 0 166 0 11 -19 c5 -11 10 -44 10 -74 0 -40 5 -58 18 -70 l19 -17
166 0 166 0 11 -19 c5 -11 10 -44 10 -74 0 -40 5 -58 18 -70 l19 -17 151 0
151 0 11 -19 c5 -11 10 -51 10 -89 0 -54 4 -72 18 -85 l19 -17 256 0 256 0 11
-19 c5 -11 10 -44 10 -74 0 -40 5 -58 18 -70 l19 -17 256 0 256 0 11 -19 c5
-11 10 -44 10 -74 0 -40 5 -58 18 -70 l19 -17 166 0 166 0 11 -19 c5 -11 10
-51 10 -89 0 -54 4 -72 18 -85 l19 -17 1025 0 1025 0 16 18 17 19 0 365 0 365
-18 16 c-13 12 -37 17 -80 17 l-61 0 -11 19 c-5 11 -10 44 -10 74 0 40 -5 58
-18 70 l-19 17 -166 0 -166 0 -11 19 c-5 11 -10 44 -10 74 0 40 -5 58 -18 70
l-19 17 -166 0 -166 0 -11 19 c-5 11 -10 51 -10 89 0 54 -4 72 -18 85 l-19 17
-451 0 -451 0 -11 19 c-5 11 -10 44 -10 74 0 40 -5 58 -18 70 l-19 17 -436 0
-436 0 -11 19 c-5 11 -10 44 -10 74 0 40 -5 58 -18 70 l-19 17 -931 0 -931 0
-11 19 c-5 11 -10 51 -10 89 0 54 -4 72 -18 85 l-19 17 -256 0 -256 0 -11 19
c-5 11 -10 44 -10 74 0 40 -5 58 -18 70 l-19 17 -166 0 -166 0 -11 19 c-5 11
-10 44 -10 74 0 72 -17 87 -98 87 l-61 0 -11 19 c-5 11 -10 51 -10 89 0 89
-13 102 -98 102 l-61 0 -11 19 c-5 11 -10 44 -10 74 0 75 -15 87 -113 87 l-76
0 -11 19 c-5 11 -10 51 -10 89 0 54 -4 72 -18 85 l-19 17 -151 0 -151 0 -11
19 c-5 11 -10 44 -10 74 0 75 -15 87 -113 87 l-76 0 -11 19 c-6 13 -10 173
-10 451 0 278 4 438 10 451 l11 19 168 0 168 0 16 18 17 19 0 155 0 155 -18
16 -19 17 -260 0 -260 0 -16 -18z m4533 -3051 c5 -11 10 -50 10 -87 0 -49 5
-73 17 -86 l16 -18 453 0 453 0 11 -19 c5 -11 10 -43 10 -72 0 -35 6 -59 17
-71 l16 -18 258 0 258 0 11 -19 c5 -11 10 -43 10 -72 0 -35 6 -59 17 -71 l16
-18 168 0 168 0 11 -19 c5 -11 10 -84 10 -166 0 -82 -5 -155 -10 -166 l-11
-19 -734 0 -734 0 -11 19 c-5 11 -10 43 -10 72 0 35 -6 59 -17 71 l-16 18
-258 0 -258 0 -11 19 c-5 11 -10 50 -10 87 0 49 -5 73 -17 86 l-16 18 -168 0
-168 0 -11 19 c-5 11 -10 43 -10 72 0 35 -6 59 -17 71 l-16 18 -153 0 -153 0
-11 19 c-5 11 -10 43 -10 72 0 35 -6 59 -17 71 l-16 18 -168 0 -168 0 -11 19
c-5 11 -10 45 -10 76 0 31 5 65 10 76 l11 19 629 0 629 0 11 -19z"/>
</g>
</svg>
