<?xml version="1.0" standalone="no"?>
<!DOCTYPE svg PUBLIC "-//W3C//DTD SVG 20010904//EN"
 "http://www.w3.org/TR/2001/REC-SVG-20010904/DTD/svg10.dtd">
<svg version="1.0" xmlns="http://www.w3.org/2000/svg"
 width="312.000000pt" height="423.000000pt" viewBox="0 0 312.000000 423.000000"
 preserveAspectRatio="xMidYMid meet">
<metadata>
Created by potrace 1.16, written by Peter Selinger 2001-2019
</metadata>
<g transform="translate(0.000000,423.000000) scale(0.100000,-0.100000)"
fill="#000000" stroke="none">
<path d="M171 4192 c-41 -28 -57 -46 -64 -71 -12 -47 -33 -77 -73 -102 l-34
-21 0 -37 0 -37 28 -11 c15 -7 43 -21 62 -31 19 -11 53 -28 74 -38 22 -11 63
-42 90 -70 28 -28 71 -62 96 -76 25 -14 55 -40 68 -57 12 -17 46 -43 75 -57
76 -39 112 -69 152 -129 19 -30 49 -63 65 -75 17 -12 30 -30 30 -40 0 -11 19
-34 44 -52 24 -18 54 -49 67 -68 43 -66 441 -453 517 -504 42 -27 83 -65 97
-86 13 -20 38 -48 55 -61 18 -13 45 -37 61 -54 30 -31 67 -69 228 -229 25 -25
60 -59 76 -75 17 -16 41 -43 54 -61 13 -17 41 -42 62 -56 21 -13 49 -40 61
-60 14 -21 63 -63 122 -103 100 -66 142 -109 278 -284 29 -37 77 -96 107 -130
29 -34 62 -80 73 -102 12 -22 36 -57 55 -78 34 -38 113 -188 113 -214 0 -8 16
-45 36 -84 19 -39 46 -103 60 -143 l24 -71 0 -111 c0 -76 5 -123 15 -147 22
-52 19 -92 -14 -185 -38 -110 -116 -206 -203 -252 -85 -45 -98 -57 -98 -97 l0
-33 59 0 c33 0 63 4 66 10 3 5 14 10 24 10 18 0 125 77 169 122 46 46 113 139
133 186 12 26 26 55 30 64 13 25 11 495 -1 503 -5 3 -10 19 -10 35 0 16 -20
70 -45 121 -25 51 -45 99 -45 106 0 24 -72 156 -110 203 -21 25 -48 65 -60 89
-34 68 -100 160 -127 178 -13 9 -36 37 -50 62 -27 47 -366 393 -416 425 -33
20 -130 102 -171 144 -15 16 -49 50 -73 75 -25 24 -59 58 -75 75 -17 16 -51
50 -75 75 -25 25 -73 69 -107 100 -140 125 -560 546 -592 594 -19 28 -54 69
-77 90 -30 26 -48 52 -56 82 l-13 44 14 8 c20 13 75 10 115 -6 53 -22 137 -18
218 10 99 35 119 52 123 105 7 91 -55 220 -105 220 -8 0 -44 14 -80 30 -35 17
-70 30 -76 30 -7 0 -37 12 -67 26 -101 47 -166 64 -242 64 l-73 0 -45 -30
c-25 -16 -52 -30 -61 -30 -8 0 -28 -13 -44 -30 -33 -34 -94 -48 -139 -30 -17
6 -74 55 -127 108 -77 77 -99 106 -109 140 -6 24 -10 51 -8 60 5 24 46 42 96
42 49 0 52 10 25 77 l-18 43 -90 -1 -90 0 -54 -37z m894 -502 c33 -12 71 -26
85 -33 48 -23 110 -72 110 -88 0 -9 -17 -24 -41 -34 l-41 -19 -41 13 c-23 7
-63 16 -89 21 -26 5 -56 13 -67 19 -11 6 -33 11 -50 11 -45 0 -91 72 -71 111
l11 19 67 0 c42 0 90 -8 127 -20z"/>
</g>
</svg>
