<?xml version="1.0" standalone="no"?>
<!DOCTYPE svg PUBLIC "-//W3C//DTD SVG 20010904//EN"
 "http://www.w3.org/TR/2001/REC-SVG-20010904/DTD/svg10.dtd">
<svg version="1.0" xmlns="http://www.w3.org/2000/svg"
 width="465.000000pt" height="240.000000pt" viewBox="0 0 465.000000 240.000000"
 preserveAspectRatio="xMidYMid meet">
<metadata>
Created by potrace 1.16, written by Peter Selinger 2001-2019
</metadata>
<g transform="translate(0.000000,240.000000) scale(0.100000,-0.100000)"
fill="#000000" stroke="none">
<path d="M3935 2390 c-3 -5 -26 -10 -51 -10 -80 0 -109 -57 -55 -111 32 -32
73 -38 130 -18 37 13 73 2 135 -43 21 -15 45 -28 52 -28 20 0 183 -169 190
-196 4 -13 4 -31 0 -39 l-5 -15 -129 0 -128 0 -46 -47 c-52 -55 -59 -65 -87
-150 -30 -88 -27 -108 24 -184 42 -63 67 -88 129 -132 14 -10 26 -26 26 -37 0
-24 -37 -50 -72 -50 -14 0 -56 -13 -91 -30 l-65 -30 -70 0 c-39 0 -85 -7 -105
-15 -20 -8 -54 -15 -75 -15 -22 0 -56 -7 -76 -15 l-37 -16 -457 5 c-251 3
-473 5 -492 6 -19 1 -64 -2 -100 -5 -50 -5 -75 -3 -104 9 -23 9 -67 16 -108
16 -38 0 -84 7 -105 15 -19 8 -53 15 -75 15 -21 0 -55 7 -75 15 -19 8 -53 15
-75 15 -21 0 -55 7 -75 15 -23 10 -69 15 -132 15 -55 0 -115 6 -141 14 -58 18
-124 35 -175 45 -22 4 -56 12 -75 18 -84 27 -131 36 -215 42 -49 4 -100 12
-112 19 -12 7 -38 12 -59 12 -33 0 -572 172 -634 203 -14 6 -43 24 -64 39
l-39 28 -67 0 -66 0 -42 -31 -42 -31 0 -99 0 -99 43 -61 c23 -34 62 -84 87
-113 25 -28 67 -85 94 -126 53 -82 277 -316 341 -358 22 -14 67 -51 100 -82
33 -32 80 -68 105 -80 25 -12 66 -40 93 -62 26 -22 159 -95 300 -166 138 -69
270 -138 291 -154 21 -15 46 -28 55 -28 9 0 81 -32 161 -71 147 -72 243 -109
281 -109 11 0 50 -14 86 -30 35 -17 77 -30 93 -30 16 0 32 -4 35 -10 3 -5 35
-10 70 -10 l64 0 7 34 c3 19 3 40 -1 45 -11 19 -83 51 -112 51 -15 0 -71 20
-123 44 -101 46 -180 79 -245 103 -68 24 -143 61 -186 93 -23 16 -48 30 -56
30 -28 0 -139 58 -228 119 -49 33 -96 61 -103 61 -21 0 -139 57 -175 84 -18
13 -56 36 -84 50 -29 14 -83 55 -120 90 -38 35 -83 71 -101 80 -48 25 -296
282 -354 367 -27 41 -70 92 -94 115 l-44 41 0 39 c0 21 4 45 9 53 l9 14 44
-18 c102 -42 176 -65 211 -65 22 0 68 -13 104 -30 35 -17 76 -30 90 -30 13 0
54 -14 90 -30 47 -22 79 -30 119 -30 30 0 71 -7 91 -15 22 -9 67 -15 120 -15
52 0 97 -6 120 -15 19 -8 53 -15 75 -15 21 0 55 -7 75 -15 19 -8 45 -15 57
-15 12 0 60 -13 106 -30 53 -18 105 -30 138 -30 29 0 69 -7 89 -15 23 -10 69
-15 135 -15 65 0 111 -5 135 -15 22 -9 67 -15 120 -15 52 0 97 -6 120 -15 19
-8 59 -15 89 -15 29 0 65 -5 79 -10 l27 -10 38 21 38 22 33 -12 c22 -7 180
-11 509 -11 l478 0 35 15 c21 9 67 15 107 15 39 0 80 5 91 11 11 6 41 14 67
19 104 19 321 86 406 125 30 14 67 25 82 25 33 0 150 76 188 121 14 17 26 39
26 49 0 10 5 22 10 25 14 8 13 402 0 410 -6 4 -20 24 -31 47 -30 58 -95 142
-164 209 -33 32 -80 79 -105 103 -25 24 -60 51 -79 61 -19 9 -52 30 -74 46
-25 18 -52 29 -73 29 -18 0 -36 5 -39 10 -3 6 -35 10 -70 10 -35 0 -67 -4 -70
-10z m391 -658 c76 -55 91 -123 44 -200 -30 -50 -58 -58 -111 -34 -56 26 -96
65 -120 117 -27 58 -24 90 9 113 60 42 123 44 178 4z"/>
</g>
</svg>
