<?xml version="1.0" standalone="no"?>
<!DOCTYPE svg PUBLIC "-//W3C//DTD SVG 20010904//EN"
 "http://www.w3.org/TR/2001/REC-SVG-20010904/DTD/svg10.dtd">
<svg version="1.0" xmlns="http://www.w3.org/2000/svg"
 width="306.000000pt" height="255.000000pt" viewBox="0 0 306.000000 255.000000"
 preserveAspectRatio="xMidYMid meet">
<metadata>
Created by potrace 1.16, written by Peter Selinger 2001-2019
</metadata>
<g transform="translate(0.000000,255.000000) scale(0.100000,-0.100000)"
fill="#000000" stroke="none">
<path d="M2116 2519 c-34 -40 -33 -64 3 -100 23 -23 38 -29 73 -29 57 0 272
-73 323 -109 47 -33 119 -71 136 -71 6 0 30 -19 53 -42 23 -24 60 -55 83 -70
48 -33 100 -106 109 -156 10 -50 -11 -80 -76 -117 -68 -38 -76 -65 -28 -95 34
-22 38 -22 152 -1 53 9 96 45 96 81 0 10 5 22 10 25 6 3 10 50 10 107 l0 100
-27 35 c-68 86 -217 214 -295 254 -23 12 -57 32 -73 45 -17 12 -66 34 -110 48
-44 15 -117 44 -162 66 -46 22 -89 40 -97 40 -8 0 -18 5 -21 10 -3 6 -35 10
-70 10 l-63 0 -26 -31z"/>
<path d="M1575 1862 c-53 -28 -75 -47 -92 -77 l-23 -40 0 -93 c0 -108 10 -135
77 -202 91 -92 184 -203 198 -238 l16 -36 -14 -14 -14 -13 -38 15 c-21 9 -55
16 -77 16 -21 0 -55 7 -75 15 -22 9 -68 15 -122 15 l-87 0 -29 30 -29 30 -88
0 c-56 0 -102 6 -125 15 -27 12 -81 15 -240 15 l-204 0 -132 -45 c-73 -25
-143 -45 -155 -45 -48 0 -166 -71 -233 -141 -36 -38 -71 -69 -77 -69 -15 0
-17 -176 -2 -185 6 -3 10 -14 10 -23 0 -9 17 -43 38 -74 20 -32 46 -72 57 -90
l20 -33 39 -3 c80 -7 97 52 46 160 -52 109 -34 175 67 256 52 41 220 122 254
122 15 0 43 7 62 15 52 22 452 22 504 0 19 -8 61 -15 92 -15 l56 0 45 -30 c25
-16 56 -30 70 -30 14 0 45 -6 70 -14 93 -29 137 -38 225 -46 67 -5 104 -14
142 -34 29 -14 59 -26 66 -26 7 0 29 -11 49 -25 20 -14 72 -36 115 -50 104
-34 129 -47 187 -95 26 -22 55 -40 63 -40 29 0 183 -80 222 -115 l38 -35 66 0
66 0 20 26 c33 42 34 59 5 116 -32 64 -52 88 -73 88 -9 0 -36 14 -61 30 -25
16 -52 30 -60 30 -8 0 -57 20 -108 45 -52 25 -98 45 -104 45 -21 0 -165 94
-193 127 -16 19 -57 49 -90 67 -46 25 -68 46 -103 96 -24 36 -57 79 -73 95
-31 33 -35 54 -19 86 l11 19 62 0 c91 1 152 36 191 111 l30 56 -24 72 c-22 70
-54 111 -87 111 -8 0 -39 11 -69 25 -96 44 -172 65 -231 65 l-58 -1 -70 -37z
m283 -182 c50 -30 36 -45 -45 -48 l-70 -3 -24 19 -23 20 13 16 c20 24 107 21
149 -4z"/>
<path d="M199 320 c-43 -23 -52 -34 -67 -85 l-11 -39 15 -53 c12 -42 26 -62
67 -98 l52 -45 91 0 91 0 23 72 22 71 -13 56 c-10 43 -23 66 -55 99 l-41 42
-69 0 c-48 -1 -80 -7 -105 -20z"/>
</g>
</svg>
