<?xml version="1.0" standalone="no"?>
<!DOCTYPE svg PUBLIC "-//W3C//DTD SVG 20010904//EN"
 "http://www.w3.org/TR/2001/REC-SVG-20010904/DTD/svg10.dtd">
<svg version="1.0" xmlns="http://www.w3.org/2000/svg"
 width="1404.000000pt" height="912.000000pt" viewBox="0 0 1404.000000 912.000000"
 preserveAspectRatio="xMidYMid meet">
<metadata>
Created by potrace 1.16, written by Peter Selinger 2001-2019
</metadata>
<g transform="translate(0.000000,912.000000) scale(0.100000,-0.100000)"
fill="#000000" stroke="none">
<path d="M5707 8782 c-12 -13 -17 -37 -17 -80 l0 -61 -19 -11 c-11 -5 -44 -10
-74 -10 -75 0 -87 -15 -87 -113 l0 -76 -19 -11 c-11 -5 -51 -10 -89 -10 -54 0
-72 -4 -85 -18 l-17 -19 0 -151 0 -151 -19 -11 c-11 -5 -44 -10 -74 -10 -40 0
-58 -5 -70 -18 l-17 -19 0 -170 0 -170 18 -16 c12 -11 36 -17 71 -17 29 0 61
-5 72 -10 l19 -11 0 -168 0 -168 18 -16 c13 -12 37 -17 86 -17 37 0 76 -5 87
-10 l19 -11 0 -153 0 -153 18 -16 c12 -11 36 -17 71 -17 29 0 61 -5 72 -10
l19 -11 0 -168 0 -168 18 -16 19 -17 157 0 c89 0 166 -4 177 -10 l19 -11 0
-63 c0 -80 15 -96 89 -96 29 0 61 -5 72 -10 l19 -11 0 -78 0 -78 18 -16 c12
-11 36 -17 71 -17 29 0 61 -5 72 -10 l19 -11 0 -63 c0 -84 13 -96 104 -96 37
0 76 -5 87 -10 l19 -11 0 -164 0 -164 -19 -11 c-27 -14 -875 -14 -902 0 l-19
11 0 78 0 78 -18 16 -19 17 -622 0 c-410 0 -629 4 -642 10 l-19 11 0 63 c0 48
-4 67 -18 79 l-19 17 -547 0 c-358 0 -554 4 -567 10 l-19 11 0 63 c0 48 -4 67
-18 79 l-19 17 -532 0 c-348 0 -539 4 -552 10 l-19 11 0 78 0 78 -18 16 -19
17 -427 0 c-275 0 -434 4 -447 10 l-19 11 0 63 c0 48 -4 67 -18 79 l-19 17
-260 0 -260 0 -16 -18 c-12 -13 -17 -37 -17 -80 l0 -61 -19 -11 c-11 -5 -51
-10 -89 -10 -54 0 -72 -4 -85 -18 l-17 -19 0 -170 0 -170 18 -16 19 -17 247 0
c151 0 255 -4 267 -10 l19 -11 0 -63 c0 -48 4 -67 18 -79 l19 -17 157 0 c89 0
166 -4 177 -10 l19 -11 0 -78 0 -78 18 -16 19 -17 157 0 c89 0 166 -4 177 -10
l19 -11 0 -63 c0 -48 4 -67 18 -79 l19 -17 142 0 c79 0 151 -5 162 -10 l19
-11 0 -78 0 -78 18 -16 19 -17 157 0 c89 0 166 -4 177 -10 l19 -11 0 -63 c0
-80 15 -96 89 -96 29 0 61 -5 72 -10 l19 -11 0 -63 c0 -84 13 -96 104 -96 37
0 76 -5 87 -10 l19 -11 0 -648 0 -648 18 -16 c12 -11 36 -17 71 -17 29 0 61
-5 72 -10 l19 -11 0 -153 0 -153 18 -16 c12 -11 36 -17 71 -17 29 0 61 -5 72
-10 l19 -11 0 -168 0 -168 18 -16 c13 -12 37 -17 86 -17 37 0 76 -5 87 -10
l19 -11 0 -63 c0 -48 4 -67 18 -79 l19 -17 157 0 c89 0 166 -4 177 -10 l19
-11 0 -78 0 -78 18 -16 c12 -11 36 -17 71 -17 29 0 61 -5 72 -10 l19 -11 0
-63 c0 -80 15 -96 89 -96 29 0 61 -5 72 -10 l19 -11 0 -63 c0 -84 13 -96 104
-96 37 0 76 -5 87 -10 l19 -11 0 -78 0 -78 18 -16 c12 -11 36 -17 71 -17 29 0
61 -5 72 -10 l19 -11 0 -63 c0 -48 4 -67 18 -79 l19 -17 157 0 c89 0 166 -4
177 -10 l19 -11 0 -78 0 -78 18 -16 19 -17 142 0 c79 0 151 -5 162 -10 l19
-11 0 -63 c0 -48 4 -67 18 -79 l19 -17 157 0 c89 0 166 -4 177 -10 l19 -11 0
-63 c0 -48 4 -67 18 -79 l19 -17 157 0 c89 0 166 -4 177 -10 l19 -11 0 -78 0
-78 18 -16 19 -17 142 0 c79 0 151 -5 162 -10 l19 -11 0 -63 c0 -48 4 -67 18
-79 l19 -17 352 0 c224 0 359 -4 372 -10 l19 -11 0 -63 c0 -83 14 -96 102 -96
84 0 98 14 98 98 l0 61 19 11 c11 5 51 10 89 10 90 0 102 12 102 102 0 50 -4
69 -18 81 l-19 17 -157 0 c-89 0 -166 4 -177 10 l-19 11 0 78 0 78 -18 16 -19
17 -157 0 c-89 0 -166 4 -177 10 l-19 11 0 63 c0 48 -4 67 -18 79 l-19 17
-157 0 c-89 0 -166 4 -177 10 l-19 11 0 63 c0 48 -4 67 -18 79 l-19 17 -247 0
c-151 0 -255 4 -267 10 l-19 11 0 78 0 78 -18 16 -19 17 -142 0 c-79 0 -151 5
-162 10 l-19 11 0 63 c0 84 -13 96 -104 96 -37 0 -76 5 -87 10 l-19 11 0 78 0
78 -18 16 -19 17 -142 0 c-79 0 -151 5 -162 10 l-19 11 0 63 c0 84 -13 96
-104 96 -37 0 -76 5 -87 10 l-19 11 0 63 c0 80 -15 96 -89 96 -29 0 -61 5 -72
10 l-19 11 0 78 0 78 -18 16 -19 17 -157 0 c-89 0 -166 4 -177 10 l-19 11 0
153 0 153 -18 16 c-12 11 -36 17 -71 17 -29 0 -61 5 -72 10 l-19 11 0 78 0 78
-18 16 c-12 11 -36 17 -71 17 -29 0 -61 5 -72 10 l-19 11 0 153 0 153 -18 16
c-13 12 -37 17 -86 17 -37 0 -76 5 -87 10 l-19 11 0 648 0 648 -18 16 c-12 11
-36 17 -71 17 -29 0 -61 5 -72 10 l-19 11 0 153 0 153 -18 16 c-13 12 -37 17
-86 17 -37 0 -76 5 -87 10 l-19 11 0 78 0 78 -18 16 -19 17 -142 0 c-79 0
-151 5 -162 10 l-19 11 0 59 0 59 19 11 c27 14 1235 14 1262 0 l19 -11 0 -63
c0 -48 4 -67 18 -79 l19 -17 727 0 c482 0 734 -3 747 -10 l19 -11 0 -78 0 -78
18 -16 19 -17 442 0 c286 0 449 -4 462 -10 l19 -11 0 -63 c0 -48 4 -67 18 -79
l19 -17 532 0 c348 0 539 -4 552 -10 l19 -11 0 -63 c0 -48 4 -67 18 -79 l19
-17 337 0 c213 0 344 -4 357 -10 l19 -11 0 -168 0 -168 18 -16 19 -17 157 0
c89 0 166 -4 177 -10 l19 -11 0 -63 c0 -80 15 -96 89 -96 29 0 61 -5 72 -10
l19 -11 0 -78 0 -78 18 -16 19 -17 157 0 c89 0 166 -4 177 -10 l19 -11 0 -63
c0 -48 4 -67 18 -79 l19 -17 157 0 c89 0 166 -4 177 -10 l19 -11 0 -63 c0 -48
4 -67 18 -79 l19 -17 142 0 c79 0 151 -5 162 -10 l19 -11 0 -78 0 -78 18 -16
19 -17 157 0 c89 0 166 -4 177 -10 l19 -11 0 -63 c0 -48 4 -67 18 -79 l19 -17
247 0 c151 0 255 -4 267 -10 l19 -11 0 -63 c0 -48 4 -67 18 -79 l19 -17 247 0
c151 0 255 -4 267 -10 l19 -11 0 -78 0 -78 18 -16 19 -17 830 0 830 0 16 18
c13 14 17 38 17 95 l0 76 19 11 c11 5 51 10 89 10 54 0 72 4 85 18 l17 19 0
260 0 260 -18 16 c-13 12 -37 17 -86 17 -37 0 -76 5 -87 10 l-19 11 0 63 c0
80 -15 96 -89 96 -29 0 -61 5 -72 10 l-19 11 0 63 c0 48 -4 67 -18 79 l-19 17
-157 0 c-89 0 -166 4 -177 10 l-19 11 0 78 0 78 -18 16 -19 17 -142 0 c-79 0
-151 5 -162 10 l-19 11 0 63 c0 48 -4 67 -18 79 l-19 17 -157 0 c-89 0 -166 4
-177 10 l-19 11 0 63 c0 48 -4 67 -18 79 l-19 17 -337 0 c-213 0 -344 4 -357
10 l-19 11 0 78 0 78 -18 16 -19 17 -352 0 c-224 0 -359 4 -372 10 l-19 11 0
63 c0 48 -4 67 -18 79 l-19 17 -442 0 c-286 0 -449 4 -462 10 l-19 11 0 63 c0
48 -4 67 -18 79 l-19 17 -622 0 c-410 0 -629 4 -642 10 l-19 11 0 78 0 78 -18
16 -19 17 -247 0 c-151 0 -255 4 -267 10 l-19 11 0 63 c0 80 -15 96 -89 96
-29 0 -61 5 -72 10 l-19 11 0 78 0 78 -18 16 c-13 12 -37 17 -86 17 -37 0 -76
5 -87 10 l-19 11 0 63 c0 80 -15 96 -89 96 -29 0 -61 5 -72 10 l-19 11 0 63
c0 84 -13 96 -104 96 -37 0 -76 5 -87 10 l-19 11 0 78 0 78 -18 16 c-12 11
-36 17 -71 17 -29 0 -61 5 -72 10 l-19 11 0 63 c0 80 -15 96 -89 96 -29 0 -61
5 -72 10 l-19 11 0 63 c0 84 -13 96 -104 96 -37 0 -76 5 -87 10 l-19 11 0 78
0 78 -18 16 c-12 11 -36 17 -71 17 -29 0 -61 5 -72 10 l-19 11 0 63 c0 80 -15
96 -89 96 -29 0 -61 5 -72 10 l-19 11 0 168 0 168 -18 16 c-13 12 -37 17 -86
17 -37 0 -76 5 -87 10 l-19 11 0 434 0 434 19 11 c11 5 51 10 89 10 92 0 102
11 102 113 l0 76 19 11 c11 5 84 10 164 10 l144 0 16 18 c25 27 24 143 -1 165
l-19 17 -350 0 -350 0 -16 -18z m4734 -4212 l19 -11 0 -61 c0 -43 5 -67 17
-80 l16 -18 249 0 c153 0 257 -4 269 -10 l19 -11 0 -61 c0 -43 5 -67 17 -80
l16 -18 339 0 c215 0 346 -4 359 -10 l19 -11 0 -76 c0 -57 4 -81 17 -95 l16
-18 159 0 c91 0 168 -4 179 -10 l19 -11 0 -61 c0 -43 5 -67 17 -80 l16 -18
159 0 c91 0 168 -4 179 -10 l19 -11 0 -61 c0 -43 5 -67 17 -80 l16 -18 249 0
c153 0 257 -4 269 -10 l19 -11 0 -164 0 -164 -19 -11 c-27 -14 -1055 -14
-1082 0 l-19 11 0 61 c0 43 -5 67 -17 80 l-16 18 -354 0 c-225 0 -361 4 -374
10 l-19 11 0 76 c0 57 -4 81 -17 95 l-16 18 -144 0 c-80 0 -153 5 -164 10
l-19 11 0 61 c0 43 -5 67 -17 80 l-16 18 -159 0 c-91 0 -168 4 -179 10 l-19
11 0 61 c0 43 -5 67 -17 80 l-16 18 -159 0 c-91 0 -168 4 -179 10 l-19 11 0
76 c0 57 -4 81 -17 95 l-16 18 -159 0 c-91 0 -168 4 -179 10 l-19 11 0 61 c0
43 -5 67 -17 80 l-16 18 -144 0 c-80 0 -153 5 -164 10 l-19 11 0 59 c0 46 4
61 18 69 24 14 1056 15 1083 1z"/>
</g>
</svg>
