<?xml version="1.0" standalone="no"?>
<!DOCTYPE svg PUBLIC "-//W3C//DTD SVG 20010904//EN"
 "http://www.w3.org/TR/2001/REC-SVG-20010904/DTD/svg10.dtd">
<svg version="1.0" xmlns="http://www.w3.org/2000/svg"
 width="744.000000pt" height="162.000000pt" viewBox="0 0 744.000000 162.000000"
 preserveAspectRatio="xMidYMid meet">
<metadata>
Created by potrace 1.16, written by Peter Selinger 2001-2019
</metadata>
<g transform="translate(0.000000,162.000000) scale(0.100000,-0.100000)"
fill="#000000" stroke="none">
<path d="M3845 1590 c-39 -76 -2 -283 54 -297 33 -7 58 -28 86 -73 12 -20 42
-48 66 -63 24 -16 57 -46 72 -68 27 -37 90 -79 120 -79 8 0 33 -15 57 -32 93
-70 166 -118 178 -118 19 0 81 -30 117 -56 51 -37 173 -94 202 -94 16 0 42 -9
58 -21 69 -46 173 -92 343 -148 99 -32 195 -67 213 -77 24 -12 59 -18 120 -19
47 -1 108 -9 135 -18 79 -25 135 -38 194 -46 30 -4 110 -26 177 -49 68 -23
139 -42 158 -42 20 0 52 -7 72 -15 19 -8 59 -15 87 -15 32 0 84 -11 136 -30
47 -16 96 -30 110 -30 14 0 45 -14 70 -30 25 -16 51 -30 59 -30 24 0 143 -61
198 -102 l52 -38 162 0 161 0 20 25 c11 14 24 25 29 25 6 0 28 14 50 32 l39
31 0 66 0 66 -75 63 c-41 34 -80 62 -86 62 -6 0 -40 13 -76 30 l-64 30 -72 0
c-54 0 -93 -8 -157 -30 -99 -35 -194 -40 -250 -12 -121 59 -302 219 -316 279
-4 16 -19 49 -35 74 -40 63 -38 89 11 128 75 60 40 131 -64 131 -101 0 -175
-74 -176 -173 0 -60 64 -193 111 -230 28 -22 45 -52 66 -119 l5 -18 -96 0
c-63 0 -109 5 -133 15 -19 8 -45 15 -57 15 -12 0 -60 13 -106 30 -47 16 -94
30 -104 30 -10 0 -55 12 -99 27 l-80 26 -43 -11 -42 -11 -58 20 c-33 10 -84
30 -114 43 -108 46 -166 69 -255 99 -49 17 -152 62 -228 99 -76 37 -143 68
-150 68 -7 0 -51 25 -97 56 -47 32 -116 73 -155 92 -38 19 -90 51 -115 71 -25
20 -63 47 -85 60 -22 13 -62 47 -88 77 -34 37 -60 57 -87 64 -44 12 -70 42
-70 81 0 15 -13 56 -30 91 -16 34 -30 75 -30 91 l0 27 -40 0 -39 0 -16 -30z
m3336 -1360 c48 -13 66 -34 49 -55 -18 -21 -189 -21 -230 0 -33 17 -37 27 -17
43 27 22 137 29 198 12z"/>
<path d="M685 1075 c-23 -11 -102 -14 -357 -15 l-328 0 0 -25 c0 -43 41 -55
197 -55 101 -1 145 -5 163 -15 36 -21 314 -21 363 0 24 10 70 15 132 15 62 0
108 -5 132 -15 24 -10 71 -15 150 -15 78 0 125 -5 150 -15 26 -11 74 -15 180
-15 105 0 153 -4 180 -15 23 -10 69 -15 135 -15 65 0 111 -5 135 -15 l35 -15
550 0 549 0 36 -15 c28 -12 84 -15 270 -15 185 0 241 -3 270 -15 53 -22 222
-20 293 5 94 32 121 96 55 127 l-36 17 -44 -12 c-61 -16 -128 -15 -172 3 l-35
15 -280 0 -279 0 -36 15 c-28 12 -86 15 -285 15 -198 0 -256 3 -285 15 -46 20
-170 20 -216 0 -22 -9 -68 -15 -117 -15 -49 0 -95 6 -117 15 -26 11 -74 15
-180 15 -105 0 -153 4 -180 15 l-35 15 -310 0 -309 0 -36 15 c-48 20 -294 20
-338 0z"/>
</g>
</svg>
