<?xml version="1.0" standalone="no"?>
<!DOCTYPE svg PUBLIC "-//W3C//DTD SVG 20010904//EN"
 "http://www.w3.org/TR/2001/REC-SVG-20010904/DTD/svg10.dtd">
<svg version="1.0" xmlns="http://www.w3.org/2000/svg"
 width="393.000000pt" height="171.000000pt" viewBox="0 0 393.000000 171.000000"
 preserveAspectRatio="xMidYMid meet">
<metadata>
Created by potrace 1.16, written by Peter Selinger 2001-2019
</metadata>
<g transform="translate(0.000000,171.000000) scale(0.100000,-0.100000)"
fill="#000000" stroke="none">
<path d="M2375 1700 c-4 -6 -25 -20 -48 -31 -55 -28 -94 -65 -118 -112 l-20
-37 15 -49 c19 -63 40 -104 71 -135 48 -48 -2 -81 -78 -52 -30 11 -76 16 -155
16 -78 0 -124 5 -149 15 -24 10 -71 15 -150 15 -78 0 -125 5 -150 15 -25 11
-73 15 -170 15 l-134 0 -49 -25 c-52 -27 -80 -57 -80 -90 0 -18 67 -91 210
-231 51 -50 140 -139 228 -229 27 -26 42 -51 40 -62 l-3 -18 -75 -3 c-48 -2
-89 2 -115 12 -30 11 -88 14 -227 15 -145 0 -194 3 -223 15 -25 11 -70 16
-137 16 -65 0 -111 5 -135 15 -27 12 -79 15 -222 15 -133 0 -199 4 -231 14
-51 16 -122 35 -160 42 -18 4 -38 -4 -67 -26 l-43 -32 0 -54 c0 -61 0 -61 106
-96 79 -25 126 -60 262 -194 100 -99 131 -153 132 -222 0 -32 -6 -49 -25 -67
l-24 -25 -169 0 -169 0 -27 -21 c-32 -25 -33 -59 -3 -87 l23 -22 212 0 c130 0
213 4 217 10 3 5 15 10 25 10 53 0 140 124 140 200 0 93 -92 270 -141 270 -13
0 -29 16 -48 47 -16 27 -36 56 -45 66 -26 28 -20 40 17 33 17 -4 82 -10 142
-14 61 -5 120 -13 132 -20 15 -8 82 -12 212 -12 l191 0 41 -16 40 -17 55 19
55 18 48 -17 c28 -9 78 -17 115 -17 37 0 83 -7 103 -15 19 -8 60 -15 90 -15
29 0 70 -7 90 -15 19 -8 51 -15 71 -15 l35 0 43 44 c76 75 80 68 -171 305 -46
44 -252 263 -275 293 -11 14 -20 31 -20 37 0 18 362 15 407 -4 23 -10 69 -15
135 -15 65 0 111 -5 135 -15 24 -10 70 -15 146 -15 l110 0 156 -52 c89 -29
170 -62 189 -77 76 -60 96 -71 128 -71 43 0 192 -49 270 -88 82 -41 175 -72
219 -72 20 0 52 -7 72 -15 27 -11 76 -15 200 -15 l164 0 59 30 60 30 0 69 0
69 -23 6 c-12 3 -40 21 -62 39 -50 43 -117 77 -150 77 -14 0 -42 7 -62 15 -19
8 -59 15 -87 15 -28 0 -71 6 -96 14 -58 18 -124 35 -175 45 -22 4 -56 12 -75
18 -97 30 -138 36 -290 42 -103 4 -173 11 -187 19 -12 6 -48 12 -80 12 l-58 1
-83 92 c-124 136 -133 172 -67 246 l35 38 0 47 0 46 -44 0 c-25 0 -48 -5 -51
-10z m825 -675 c14 -8 40 -14 58 -15 18 0 49 -7 69 -15 19 -8 46 -15 60 -15
13 0 50 -13 83 -30 37 -19 75 -30 100 -30 23 0 51 -5 63 -12 l22 -11 -20 -8
c-33 -13 -104 -10 -142 6 -19 8 -54 15 -78 15 -23 0 -73 12 -111 26 -38 14
-82 29 -99 33 -39 10 -95 39 -95 50 0 25 51 28 90 6z"/>
</g>
</svg>
