<?xml version="1.0" standalone="no"?>
<!DOCTYPE svg PUBLIC "-//W3C//DTD SVG 20010904//EN"
 "http://www.w3.org/TR/2001/REC-SVG-20010904/DTD/svg10.dtd">
<svg version="1.0" xmlns="http://www.w3.org/2000/svg"
 width="267.000000pt" height="225.000000pt" viewBox="0 0 267.000000 225.000000"
 preserveAspectRatio="xMidYMid meet">
<metadata>
Created by potrace 1.16, written by Peter Selinger 2001-2019
</metadata>
<g transform="translate(0.000000,225.000000) scale(0.100000,-0.100000)"
fill="#000000" stroke="none">
<path d="M1328 2217 c-47 -41 -78 -105 -78 -159 0 -24 12 -74 27 -113 14 -38
26 -83 27 -100 l1 -30 -77 -3 c-52 -2 -88 2 -114 13 -26 11 -72 15 -166 15
-92 0 -139 4 -165 15 -19 8 -60 15 -90 15 -29 0 -70 7 -90 15 -25 11 -72 15
-165 15 -92 0 -139 4 -165 15 -23 10 -68 15 -126 15 l-91 0 -28 -27 c-36 -34
-40 -105 -8 -125 11 -7 33 -31 48 -53 33 -49 195 -211 243 -244 19 -13 47 -41
62 -62 15 -21 51 -51 80 -66 38 -21 62 -44 90 -87 l39 -59 -11 -37 c-6 -21
-11 -70 -11 -109 0 -80 18 -127 76 -195 19 -22 38 -54 43 -71 13 -48 88 -151
126 -174 19 -11 45 -37 59 -59 14 -22 63 -73 110 -113 48 -40 93 -83 101 -96
8 -12 33 -32 54 -42 48 -25 166 -105 209 -142 21 -19 44 -29 65 -29 18 0 49
-11 69 -25 65 -44 176 -95 207 -95 16 0 33 -4 36 -10 9 -14 120 -13 148 2 12
6 29 14 37 18 8 3 31 36 50 72 l34 66 -13 54 c-27 104 -74 173 -143 209 -62
32 -220 76 -313 88 -34 5 -70 13 -82 19 -30 17 -104 15 -146 -3 -57 -24 -109
-20 -138 11 -13 14 -45 37 -71 50 -26 13 -55 35 -65 50 -10 14 -42 53 -72 87
-52 60 -90 126 -91 158 0 8 -13 28 -30 44 -23 22 -30 37 -30 68 l0 40 45 41
45 42 0 38 c0 50 -13 71 -62 102 -23 15 -62 46 -87 69 -25 23 -61 50 -79 59
-38 19 -144 119 -284 267 l-58 60 10 18 c12 23 125 33 220 21 148 -19 258 -38
278 -49 11 -6 46 -11 77 -11 30 0 72 -7 92 -15 20 -8 66 -15 105 -15 38 0 84
-7 105 -15 24 -10 70 -15 147 -15 134 0 205 -20 243 -69 23 -29 108 -81 134
-81 6 0 34 -20 62 -45 60 -52 155 -105 189 -105 41 0 181 -54 227 -88 25 -18
56 -32 73 -32 16 0 45 -7 65 -15 55 -23 203 -20 253 5 40 21 80 82 80 123 0
39 -129 181 -200 219 -30 16 -78 44 -107 62 -61 38 -169 76 -219 76 -19 0 -51
7 -71 15 -24 10 -71 15 -150 15 -78 0 -125 5 -150 15 -19 8 -47 15 -62 15 -52
0 -113 42 -159 110 -59 86 -72 119 -72 183 l0 54 40 32 c40 32 46 51 34 99
l-6 22 -92 0 -91 0 -37 -33z m761 -677 c24 -11 53 -20 65 -20 23 0 125 -33
164 -52 13 -7 38 -33 57 -60 l35 -48 -30 0 c-17 0 -47 7 -67 15 -19 8 -47 15
-61 15 -27 0 -135 49 -191 87 -19 13 -46 23 -60 23 -34 0 -70 25 -56 38 10 10
42 18 80 20 11 1 40 -7 64 -18z m-541 -1186 c31 -15 78 -30 104 -35 57 -9 94
-33 114 -71 36 -69 -43 -79 -144 -18 -36 22 -81 44 -99 49 -49 14 -138 82
-121 92 25 17 90 9 146 -17z"/>
</g>
</svg>
