<?xml version="1.0" standalone="no"?>
<!DOCTYPE svg PUBLIC "-//W3C//DTD SVG 20010904//EN"
 "http://www.w3.org/TR/2001/REC-SVG-20010904/DTD/svg10.dtd">
<svg version="1.0" xmlns="http://www.w3.org/2000/svg"
 width="423.000000pt" height="111.000000pt" viewBox="0 0 423.000000 111.000000"
 preserveAspectRatio="xMidYMid meet">
<metadata>
Created by potrace 1.16, written by Peter Selinger 2001-2019
</metadata>
<g transform="translate(0.000000,111.000000) scale(0.100000,-0.100000)"
fill="#000000" stroke="none">
<path d="M3398 1089 c-39 -20 -50 -50 -25 -66 6 -4 51 -10 98 -13 l87 -6 36
-29 c69 -55 100 -76 125 -81 14 -4 58 -38 97 -78 39 -39 82 -79 97 -89 15 -10
27 -27 27 -37 l0 -20 -45 0 c-25 0 -62 7 -82 15 -19 8 -47 15 -62 15 -31 0
-148 -41 -193 -67 -33 -19 -87 -103 -88 -136 0 -41 71 -154 145 -230 48 -49
75 -84 71 -93 l-5 -14 -576 0 -576 0 -36 15 c-19 8 -47 15 -60 15 -14 0 -54
13 -90 30 -35 16 -74 30 -87 30 -29 0 -138 38 -154 54 l-13 13 42 85 42 86
-22 70 c-28 87 -84 144 -191 198 -41 20 -88 47 -105 60 -40 30 -144 64 -195
64 -22 0 -58 -9 -78 -19 -46 -23 -145 -148 -136 -171 3 -8 10 -44 16 -79 l10
-65 -18 -14 c-14 -10 -37 -12 -89 -7 -81 7 -98 7 -264 -1 -96 -4 -133 -2 -165
9 -22 9 -63 18 -91 21 -27 3 -75 10 -105 15 -30 5 -92 10 -138 10 -49 1 -97 7
-119 16 -27 11 -76 15 -200 15 l-164 0 -59 -30 -60 -30 0 -101 0 -100 22 -30
c13 -17 46 -46 74 -65 28 -19 72 -52 97 -74 25 -22 50 -40 57 -40 6 0 36 -11
66 -25 104 -48 170 -65 248 -65 l75 0 36 32 c45 38 85 116 85 161 0 25 -11 48
-41 86 l-41 51 12 15 c17 21 187 21 236 0 28 -11 88 -14 297 -14 l262 1 39
-16 c21 -9 57 -16 79 -16 44 0 197 -68 268 -120 23 -16 48 -30 56 -30 8 0 39
-11 69 -25 84 -38 170 -65 210 -65 19 0 65 -14 101 -30 35 -17 75 -30 89 -30
14 0 41 -7 61 -15 19 -8 62 -15 94 -15 32 0 61 -5 64 -10 8 -14 1032 -14 1040
0 3 6 32 10 64 10 32 0 75 7 94 15 20 8 62 15 94 15 l57 0 68 46 c54 36 74 57
94 97 15 28 44 75 65 104 l39 52 0 90 c0 49 -4 93 -10 96 -5 3 -10 28 -10 54
l0 49 -43 58 c-57 78 -164 185 -258 261 -89 71 -112 84 -199 112 -36 12 -73
26 -82 31 -31 18 -189 10 -230 -11z m-1625 -398 c23 -11 64 -38 91 -60 26 -23
56 -41 65 -41 26 0 41 -21 41 -58 0 -58 -14 -72 -73 -72 -89 0 -151 28 -208
96 -56 66 -67 94 -50 130 l11 24 40 0 c23 0 60 -9 83 -19z m2035 -157 c74 -22
98 -38 127 -89 29 -48 31 -81 9 -113 l-15 -22 -57 0 c-33 1 -72 8 -92 18 -50
24 -128 82 -134 99 -9 23 25 84 58 104 38 23 35 23 104 3z m-3320 -136 c7 -7
12 -20 12 -29 0 -10 16 -30 35 -45 42 -32 57 -56 49 -78 -16 -43 -116 -20
-236 53 -37 23 -72 41 -76 41 -5 0 -17 9 -27 20 l-18 20 13 15 c16 19 229 22
248 3z"/>
</g>
</svg>
