<?xml version="1.0" standalone="no"?>
<!DOCTYPE svg PUBLIC "-//W3C//DTD SVG 20010904//EN"
 "http://www.w3.org/TR/2001/REC-SVG-20010904/DTD/svg10.dtd">
<svg version="1.0" xmlns="http://www.w3.org/2000/svg"
 width="462.000000pt" height="234.000000pt" viewBox="0 0 462.000000 234.000000"
 preserveAspectRatio="xMidYMid meet">
<metadata>
Created by potrace 1.16, written by Peter Selinger 2001-2019
</metadata>
<g transform="translate(0.000000,234.000000) scale(0.100000,-0.100000)"
fill="#000000" stroke="none">
<path d="M51 2281 l-51 -59 0 -69 c0 -38 3 -73 7 -76 14 -15 43 -114 43 -149
0 -47 54 -158 113 -233 23 -29 50 -65 60 -79 11 -16 34 -30 62 -37 24 -6 61
-26 82 -44 107 -91 167 -134 197 -139 19 -4 54 -24 79 -46 26 -23 55 -40 69
-40 13 0 62 -13 108 -30 l85 -30 98 0 c73 0 113 5 160 21 71 24 95 43 144 117
34 51 80 92 103 92 6 0 28 -11 48 -25 20 -14 43 -25 50 -25 21 0 139 -57 175
-84 18 -13 61 -39 97 -56 70 -36 196 -115 206 -131 3 -5 0 -16 -6 -24 -10 -12
-39 -15 -129 -15 l-116 0 -57 -38 c-32 -20 -72 -46 -90 -57 l-33 -20 -3 -83
-3 -83 31 -57 c17 -32 50 -80 74 -108 23 -27 46 -61 49 -75 8 -31 80 -99 105
-99 23 0 42 -19 42 -42 0 -11 24 -35 60 -61 34 -23 86 -62 117 -85 30 -24 101
-67 157 -95 55 -28 119 -63 140 -79 21 -15 45 -28 53 -28 8 0 44 -13 80 -30
35 -16 81 -30 102 -30 35 0 133 -29 148 -43 3 -4 59 -7 124 -7 l119 0 55 35
c92 59 112 129 76 260 -6 22 -13 51 -15 65 -3 14 -21 50 -40 80 -19 30 -53 89
-75 131 -21 41 -47 82 -57 90 -37 30 -95 120 -92 142 4 28 51 34 103 13 29
-13 78 -16 226 -16 121 0 198 -4 216 -12 15 -6 53 -14 83 -17 l55 -6 11 -23
c20 -40 29 -44 56 -22 l26 20 186 0 c143 0 195 -3 223 -15 45 -19 81 -19 126
0 21 8 67 15 105 15 39 0 85 7 105 15 20 8 49 15 64 15 46 1 185 80 202 115 8
17 18 38 23 47 11 24 10 195 -1 202 -5 3 -11 23 -14 43 -3 21 -10 56 -16 78
-6 22 -13 51 -16 65 -2 14 -19 49 -37 79 -18 29 -49 80 -68 114 -26 46 -47 68
-85 90 -27 16 -67 45 -88 64 -21 19 -63 50 -93 69 -30 19 -69 47 -87 63 -34
30 -167 101 -189 101 -8 0 -30 11 -49 24 -54 37 -150 66 -217 66 -62 0 -82
-11 -82 -46 0 -24 71 -94 96 -94 26 0 83 -30 174 -92 47 -32 92 -58 102 -58 9
0 26 -13 38 -30 12 -16 46 -46 76 -66 30 -20 71 -56 90 -80 l36 -44 -12 -15
c-9 -11 -33 -15 -85 -15 l-73 0 -31 -26 c-17 -14 -51 -56 -76 -93 l-45 -67 0
-57 c0 -89 32 -170 96 -241 30 -33 53 -65 51 -70 -6 -19 -210 -19 -253 -1 -23
9 -68 15 -121 15 -52 0 -97 6 -120 15 -20 8 -66 15 -104 15 -40 0 -86 7 -109
16 -29 12 -53 14 -83 9 -52 -9 -70 -9 -177 3 -47 4 -95 14 -107 20 -13 7 -67
12 -135 12 l-113 0 -105 35 c-140 48 -262 107 -333 164 -95 76 -118 91 -157
101 -20 5 -54 24 -76 42 -57 48 -123 92 -174 118 -25 12 -65 39 -90 60 -64 53
-122 80 -172 80 -43 0 -71 13 -118 56 -14 12 -59 39 -100 59 -41 21 -96 55
-122 76 -25 21 -88 60 -139 86 -51 25 -109 61 -128 78 -57 50 -123 95 -140 95
-9 0 -55 25 -101 56 -47 31 -130 80 -185 108 -55 28 -118 63 -139 78 -21 16
-47 28 -57 28 -10 0 -21 5 -24 10 -4 6 -53 10 -115 10 l-108 0 -51 -59z m247
-148 c21 -9 51 -27 67 -39 42 -31 164 -90 202 -98 17 -4 51 -24 75 -45 45 -40
98 -71 120 -71 16 0 139 -80 184 -119 17 -16 48 -31 68 -35 54 -10 97 -60 123
-143 30 -94 29 -107 -9 -135 l-33 -23 -87 -3 c-96 -4 -178 17 -246 63 -20 14
-43 25 -52 25 -8 0 -35 14 -60 30 -25 16 -52 30 -61 30 -9 0 -35 15 -59 33
-24 17 -62 45 -84 61 -23 16 -47 37 -54 48 -8 10 -31 39 -53 64 -47 54 -100
156 -123 236 -20 70 -20 66 4 106 23 37 29 38 78 15z m3912 -872 l54 -19 42
-57 c98 -130 78 -185 -66 -185 l-72 0 -26 29 c-41 44 -93 113 -105 138 -14 31
12 67 66 92 52 25 42 25 107 2z m-2023 -326 c19 -8 51 -15 71 -15 53 0 156
-38 199 -74 21 -17 54 -42 74 -55 20 -13 47 -40 60 -59 13 -19 45 -48 71 -64
31 -19 58 -47 75 -76 15 -26 44 -67 64 -92 21 -25 51 -74 68 -110 l31 -65 0
-71 c0 -55 -4 -77 -19 -95 l-18 -23 -40 12 c-22 7 -65 12 -94 12 -39 0 -71 8
-117 30 -35 17 -68 30 -74 30 -17 0 -138 59 -171 84 -18 13 -62 39 -99 59 -80
42 -143 92 -265 213 l-93 91 -51 106 -51 105 11 19 c21 41 68 53 204 53 91 0
138 -4 164 -15z"/>
</g>
</svg>
