<?xml version="1.0" standalone="no"?>
<!DOCTYPE svg PUBLIC "-//W3C//DTD SVG 20010904//EN"
 "http://www.w3.org/TR/2001/REC-SVG-20010904/DTD/svg10.dtd">
<svg version="1.0" xmlns="http://www.w3.org/2000/svg"
 width="636.000000pt" height="165.000000pt" viewBox="0 0 636.000000 165.000000"
 preserveAspectRatio="xMidYMid meet">
<metadata>
Created by potrace 1.16, written by Peter Selinger 2001-2019
</metadata>
<g transform="translate(0.000000,165.000000) scale(0.100000,-0.100000)"
fill="#000000" stroke="none">
<path d="M695 1640 c-3 -5 -26 -10 -49 -10 -24 0 -60 -7 -79 -15 -20 -8 -54
-15 -75 -15 -22 0 -56 -7 -75 -15 -20 -8 -50 -15 -66 -15 -19 0 -45 -14 -77
-40 -27 -22 -65 -45 -86 -50 -26 -7 -58 -33 -112 -91 l-76 -81 0 -104 c0 -66
4 -104 10 -104 6 0 21 -10 34 -22 58 -58 118 -88 267 -136 163 -53 219 -69
284 -81 22 -4 56 -12 75 -18 88 -28 132 -36 230 -42 58 -4 115 -12 127 -19 12
-7 40 -12 63 -12 22 0 57 -7 77 -15 19 -8 47 -15 60 -15 30 0 85 -25 137 -62
21 -15 47 -28 57 -28 11 0 30 -18 46 -43 15 -23 38 -54 51 -69 30 -33 62 -119
62 -166 0 -19 -7 -49 -16 -68 -17 -36 -115 -114 -143 -114 -9 0 -36 -14 -61
-30 l-45 -30 -61 0 c-74 0 -104 -23 -88 -67 5 -14 16 -29 24 -33 8 -4 25 -12
37 -18 13 -7 47 -12 77 -12 l55 0 25 25 c19 19 35 25 69 25 25 0 61 7 80 15
20 8 49 15 65 15 l29 0 56 69 c65 81 78 104 107 191 l21 63 -22 69 c-12 38
-40 98 -61 134 -22 36 -37 68 -34 72 12 12 250 0 284 -14 23 -9 72 -14 149
-14 78 0 125 -5 150 -15 25 -11 72 -15 164 -15 93 0 139 -4 168 -16 l39 -15
178 5 c99 3 190 5 204 5 14 0 295 -4 625 -9 330 -4 609 -9 620 -9 68 -3 305
17 328 27 39 17 120 15 164 -3 l35 -15 508 0 508 0 35 15 c21 8 67 15 105 15
39 0 85 7 105 15 20 8 48 15 62 15 27 0 138 51 168 78 9 8 17 23 17 34 0 10
11 24 25 30 l25 11 0 129 c0 70 -4 136 -10 146 -5 9 -19 46 -31 82 -30 94 -45
117 -92 146 -23 15 -64 51 -90 80 -30 34 -61 57 -82 63 -19 5 -47 18 -63 30
-16 11 -75 43 -130 71 l-102 50 -55 0 c-31 0 -72 7 -92 15 -19 8 -44 15 -55
15 -27 0 -78 -54 -78 -83 0 -30 29 -57 61 -57 48 0 230 -71 299 -115 64 -43
120 -100 120 -124 0 -6 -19 -21 -43 -35 -23 -14 -54 -38 -69 -53 -35 -38 -68
-139 -68 -211 l0 -59 41 -52 c22 -28 38 -55 34 -61 -3 -6 -23 -18 -43 -28
l-37 -17 -430 -7 c-236 -4 -443 -8 -460 -9 -16 -1 -80 2 -142 6 l-111 8 -41
-17 -41 -16 -575 0 -575 0 -39 16 -39 15 -178 -5 c-230 -7 -199 -7 -419 2
-121 4 -198 12 -212 20 -13 7 -60 12 -123 12 -67 0 -113 5 -137 15 -22 9 -67
15 -120 15 -52 0 -97 6 -120 15 -20 8 -66 15 -105 15 -38 0 -84 7 -105 15 -25
10 -71 15 -153 15 l-118 0 -13 16 -13 16 18 13 c9 7 50 23 89 36 40 13 78 27
85 33 19 14 72 122 72 146 0 36 -50 123 -99 171 -25 26 -59 63 -75 83 -27 35
-110 86 -137 86 -7 0 -77 31 -156 70 -79 38 -171 79 -206 90 -34 11 -70 25
-79 30 -23 13 -315 13 -323 0z m172 -135 c19 -8 54 -15 77 -15 28 0 54 -8 78
-25 20 -14 71 -36 114 -50 76 -25 118 -50 179 -106 17 -15 45 -30 63 -34 44
-9 94 -60 116 -120 l19 -48 -24 -18 c-63 -47 -180 -47 -287 2 -49 23 -78 29
-128 29 l-66 0 -29 -29 c-34 -35 -38 -72 -9 -101 11 -11 20 -24 20 -30 0 -18
-47 -21 -85 -6 -21 9 -55 16 -77 16 -21 0 -55 7 -75 15 -19 8 -53 15 -75 15
-21 0 -55 7 -75 15 -19 8 -47 15 -60 15 -14 0 -54 14 -90 30 -35 17 -69 30
-75 30 -6 0 -42 15 -82 33 -65 31 -136 92 -136 117 0 16 36 48 79 69 22 12 52
37 67 56 19 25 34 35 54 35 16 0 58 14 93 30 36 17 76 30 90 30 13 0 41 7 60
15 20 8 61 15 91 15 29 0 69 7 87 15 43 18 42 18 86 0z m5204 -474 l39 -39 0
-53 c0 -30 -4 -61 -10 -69 l-9 -14 -33 16 c-19 8 -46 34 -62 56 l-28 41 7 40
c6 37 25 60 49 61 4 0 26 -17 47 -39z"/>
</g>
</svg>
