<?xml version="1.0" standalone="no"?>
<!DOCTYPE svg PUBLIC "-//W3C//DTD SVG 20010904//EN"
 "http://www.w3.org/TR/2001/REC-SVG-20010904/DTD/svg10.dtd">
<svg version="1.0" xmlns="http://www.w3.org/2000/svg"
 width="384.000000pt" height="606.000000pt" viewBox="0 0 384.000000 606.000000"
 preserveAspectRatio="xMidYMid meet">
<metadata>
Created by potrace 1.16, written by Peter Selinger 2001-2019
</metadata>
<g transform="translate(0.000000,606.000000) scale(0.100000,-0.100000)"
fill="#000000" stroke="none">
<path d="M50 6010 l-50 -51 0 -79 c0 -43 5 -82 10 -85 6 -4 22 -28 35 -55 17
-34 40 -59 73 -80 26 -18 63 -55 83 -83 26 -39 45 -55 74 -65 23 -7 54 -28 71
-49 21 -24 75 -59 159 -102 70 -36 131 -73 135 -81 4 -8 22 -46 39 -85 18 -38
45 -90 61 -115 15 -25 30 -56 33 -70 4 -14 24 -55 47 -92 23 -38 40 -80 40
-96 0 -20 13 -46 40 -78 23 -27 43 -60 47 -74 3 -14 41 -64 84 -112 43 -48 86
-100 96 -115 9 -15 36 -49 59 -74 23 -25 53 -63 67 -85 34 -51 266 -274 467
-448 41 -35 95 -85 120 -110 25 -24 97 -79 160 -121 63 -43 143 -103 177 -134
101 -92 167 -138 276 -193 103 -52 157 -91 157 -115 0 -15 -32 -33 -60 -33
-28 0 -121 -32 -203 -70 l-68 -32 -42 6 c-29 5 -55 2 -80 -9 -24 -10 -69 -15
-135 -15 -66 0 -112 -5 -135 -15 -51 -21 -273 -21 -324 0 -22 9 -68 15 -122
15 l-86 0 -41 23 c-23 12 -63 35 -88 50 -52 33 -169 76 -204 77 -15 0 -43 21
-80 60 l-58 60 -55 0 c-71 0 -89 -17 -89 -84 l0 -48 62 -70 c35 -38 76 -77 92
-85 16 -8 73 -57 125 -107 53 -51 108 -100 123 -109 14 -9 51 -54 81 -99 30
-46 79 -105 108 -133 100 -92 210 -217 234 -265 14 -27 42 -61 64 -76 21 -16
49 -44 62 -64 12 -19 33 -46 45 -60 12 -14 46 -61 76 -105 55 -84 160 -219
178 -230 5 -3 10 -20 10 -36 0 -37 62 -161 107 -214 18 -22 36 -51 40 -65 3
-14 28 -70 56 -125 51 -103 84 -191 98 -260 10 -52 27 -119 45 -175 8 -25 14
-61 14 -81 0 -20 7 -53 15 -72 23 -55 18 -121 -15 -222 -16 -49 -32 -106 -35
-126 -8 -56 -52 -112 -124 -160 -36 -24 -77 -49 -91 -56 -49 -23 -145 -53
-173 -53 -34 0 -87 -48 -87 -79 l0 -21 164 0 c99 0 167 4 171 10 3 5 15 10 25
10 11 0 45 22 75 50 30 27 73 61 95 75 l40 25 50 100 c28 55 61 134 75 175 13
41 36 92 50 112 l25 38 0 75 c0 57 -7 95 -30 160 -17 46 -30 99 -30 117 0 38
-27 122 -64 203 -14 30 -26 68 -26 84 0 17 -16 54 -36 85 -79 124 -108 181
-146 295 -27 84 -49 131 -73 159 -19 21 -40 58 -47 80 -9 29 -25 49 -58 72
-29 20 -56 51 -75 87 -16 31 -55 82 -86 114 -30 33 -64 73 -74 89 -11 17 -31
44 -45 60 -14 17 -47 62 -72 101 -26 39 -80 102 -120 141 -40 39 -125 128
-188 197 -63 69 -121 126 -127 126 -7 0 -13 5 -13 10 0 13 17 13 25 0 4 -6
138 -10 369 -10 l364 0 35 15 c42 17 94 19 133 5 l26 -10 44 25 c23 14 47 25
53 25 5 0 39 13 74 30 39 18 82 30 106 30 22 0 64 11 93 24 140 65 233 81 305
51 19 -8 45 -15 57 -15 12 0 60 -13 106 -30 47 -16 94 -30 105 -30 27 0 244
-74 294 -99 32 -17 59 -21 131 -21 l91 0 59 30 60 30 0 55 c0 31 -4 63 -9 73
-5 9 -14 29 -20 44 -5 15 -29 39 -52 54 -24 14 -63 46 -88 69 -25 24 -80 60
-121 80 -41 21 -92 51 -114 66 l-39 29 -78 0 c-62 0 -89 -5 -131 -24 -84 -39
-169 -66 -210 -66 -20 0 -49 -5 -65 -11 -45 -17 -111 7 -159 58 -32 34 -47 43
-74 43 -19 0 -52 12 -79 29 -25 16 -57 31 -71 34 -14 4 -43 22 -65 40 -22 19
-64 46 -94 61 -47 24 -182 142 -341 299 -25 25 -63 54 -85 65 -40 20 -144 104
-199 160 -39 40 -114 116 -151 151 -16 16 -40 43 -53 60 -13 17 -42 43 -65 58
-30 21 -46 41 -57 73 -10 30 -27 52 -50 68 -59 38 -89 72 -99 108 -5 19 -33
60 -62 92 -59 64 -88 121 -89 171 l0 33 -49 48 c-58 56 -89 112 -102 183 -16
92 -16 92 6 88 11 -2 70 -6 130 -8 l111 -5 64 22 c36 12 71 27 78 33 30 24 62
106 62 158 l0 52 -47 43 c-27 24 -68 64 -93 89 -25 25 -52 45 -59 45 -7 0 -42
14 -78 30 -35 17 -75 30 -89 30 -14 0 -41 7 -61 15 -50 21 -133 19 -206 -6
-75 -25 -94 -41 -107 -89 -5 -20 -23 -49 -40 -65 l-30 -29 -35 13 c-57 20
-182 110 -237 170 -49 54 -98 139 -98 171 0 8 14 32 30 54 l29 38 -27 54 -27
53 -72 0 -72 1 -51 -50z m937 -485 c19 -8 47 -15 61 -15 41 0 172 -88 172
-116 0 -46 -170 -60 -275 -23 -33 11 -68 29 -77 41 -20 22 -24 79 -8 109 13
24 74 26 127 4z m2443 -2385 c25 -16 53 -30 63 -30 9 0 34 -15 54 -34 l37 -34
-13 -16 c-21 -25 -76 -19 -148 14 -35 17 -69 30 -75 30 -6 0 -36 12 -65 27
-94 46 -82 73 32 73 l70 0 45 -30z"/>
</g>
</svg>
