<?xml version="1.0" standalone="no"?>
<!DOCTYPE svg PUBLIC "-//W3C//DTD SVG 20010904//EN"
 "http://www.w3.org/TR/2001/REC-SVG-20010904/DTD/svg10.dtd">
<svg version="1.0" xmlns="http://www.w3.org/2000/svg"
 width="876.000000pt" height="183.000000pt" viewBox="0 0 876.000000 183.000000"
 preserveAspectRatio="xMidYMid meet">
<metadata>
Created by potrace 1.16, written by Peter Selinger 2001-2019
</metadata>
<g transform="translate(0.000000,183.000000) scale(0.100000,-0.100000)"
fill="#000000" stroke="none">
<path d="M0 1765 c0 -45 4 -65 13 -65 13 0 66 -28 148 -78 30 -18 65 -35 79
-38 14 -4 49 -17 78 -30 85 -38 169 -64 209 -64 21 0 63 -12 93 -26 90 -42
166 -64 220 -64 28 0 67 -7 87 -15 19 -8 60 -15 90 -15 29 0 70 -7 90 -15 26
-11 74 -15 179 -15 107 0 154 -4 183 -16 30 -12 66 -14 162 -11 127 4 149 8
304 58 52 17 113 29 142 29 36 0 71 9 116 30 84 39 129 39 187 0 31 -21 57
-30 85 -30 44 0 127 -26 213 -66 29 -13 64 -24 78 -24 14 0 55 -13 91 -30 45
-21 80 -30 117 -30 59 0 152 -30 205 -66 19 -13 48 -24 64 -24 15 0 44 -7 64
-15 19 -8 53 -15 75 -15 21 0 55 -7 75 -15 23 -10 69 -15 132 -15 55 0 115 -6
141 -14 92 -29 137 -38 225 -46 90 -8 166 -29 243 -69 l41 -21 370 0 c268 0
377 -3 398 -12 78 -34 728 -34 806 0 16 7 72 12 125 12 l97 0 85 30 c46 17 96
30 110 30 14 0 45 14 70 30 28 19 58 30 79 30 l35 0 103 103 103 103 0 35 c0
45 15 59 65 59 41 0 69 -14 115 -56 26 -23 280 -154 301 -154 17 0 81 -31 116
-58 17 -13 47 -28 67 -33 20 -6 43 -22 53 -37 29 -43 422 -438 498 -500 38
-31 96 -82 130 -114 33 -31 92 -72 132 -92 39 -20 111 -63 160 -96 48 -33 95
-60 103 -60 18 0 139 -78 187 -121 19 -16 42 -29 53 -29 10 0 22 -4 25 -10 3
-5 26 -10 50 -10 34 0 50 6 70 25 l25 26 0 89 c0 49 -4 92 -10 95 -5 3 -10 14
-10 24 0 31 -39 70 -80 81 -24 6 -47 21 -57 37 -54 81 -233 219 -376 290 -40
20 -85 46 -102 59 -16 12 -63 39 -102 59 -40 19 -110 61 -154 91 -45 31 -94
60 -109 64 -44 13 -167 98 -206 143 -20 23 -49 67 -64 97 -16 30 -38 69 -49
85 -15 22 -21 46 -21 88 l0 58 28 25 c15 13 51 45 80 71 28 25 52 54 52 64 0
12 -16 27 -42 40 l-42 21 -45 -7 c-25 -4 -66 -8 -91 -9 -44 -1 -117 -32 -152
-64 l-18 -15 0 -101 c0 -56 -4 -107 -9 -115 l-9 -14 -34 13 c-18 8 -51 27 -72
42 -21 15 -46 28 -54 28 -21 0 -178 76 -237 115 -27 18 -70 44 -95 57 -25 14
-57 43 -73 67 -67 99 -212 120 -299 43 -22 -19 -25 -123 -4 -173 8 -19 17 -62
21 -97 l7 -63 -23 -33 c-12 -18 -38 -44 -58 -57 -20 -13 -53 -38 -74 -55 -51
-43 -148 -74 -229 -74 -36 0 -82 -7 -101 -15 -23 -9 -68 -15 -120 -15 -53 0
-98 -6 -120 -15 -49 -20 -215 -20 -264 0 l-35 15 -325 0 -324 0 -36 15 c-27
12 -80 15 -237 15 l-202 0 -84 30 c-50 17 -105 30 -135 30 -27 0 -70 6 -95 14
-87 28 -136 38 -210 45 -41 4 -85 13 -97 19 -12 7 -59 12 -105 12 l-83 0 -103
35 c-57 20 -120 47 -140 60 -20 14 -49 25 -65 25 -15 0 -44 7 -64 15 -19 8
-54 15 -77 15 -29 0 -54 9 -86 30 -25 16 -51 30 -58 30 -8 0 -43 14 -79 30
-35 17 -76 30 -90 30 -13 0 -52 13 -86 28 -34 16 -74 32 -90 36 -15 3 -67 45
-117 91 l-89 85 -56 0 -56 0 -55 -51 c-35 -34 -57 -65 -64 -89 -12 -45 -27
-58 -111 -98 l-66 -32 -115 0 c-80 0 -127 -5 -151 -15 -22 -9 -68 -15 -117
-15 -49 0 -95 6 -117 15 -23 10 -69 15 -135 15 -65 0 -111 5 -135 15 -19 8
-53 15 -75 15 -21 0 -55 7 -75 15 -19 8 -60 15 -90 15 -29 0 -70 7 -90 15 -19
8 -45 15 -57 15 -24 0 -120 32 -182 60 -61 28 -160 60 -186 60 -27 0 -146 74
-155 96 -4 10 -23 14 -74 14 l-69 0 0 -65z"/>
</g>
</svg>
