<?xml version="1.0" standalone="no"?>
<!DOCTYPE svg PUBLIC "-//W3C//DTD SVG 20010904//EN"
 "http://www.w3.org/TR/2001/REC-SVG-20010904/DTD/svg10.dtd">
<svg version="1.0" xmlns="http://www.w3.org/2000/svg"
 width="516.000000pt" height="153.000000pt" viewBox="0 0 516.000000 153.000000"
 preserveAspectRatio="xMidYMid meet">
<metadata>
Created by potrace 1.16, written by Peter Selinger 2001-2019
</metadata>
<g transform="translate(0.000000,153.000000) scale(0.100000,-0.100000)"
fill="#000000" stroke="none">
<path d="M2870 1470 c0 -78 23 -124 106 -212 35 -37 70 -81 79 -97 8 -17 40
-46 70 -67 64 -42 128 -115 123 -141 -2 -10 -16 -20 -37 -24 -18 -4 -45 -16
-60 -26 -38 -27 -81 -43 -116 -42 -33 2 -73 -11 -150 -46 -38 -18 -74 -25
-154 -29 l-103 -5 -43 -26 c-24 -14 -56 -25 -72 -25 -16 0 -46 -12 -67 -26
l-38 -26 -35 7 c-35 6 -95 -4 -183 -30 -25 -8 -80 -17 -122 -20 -59 -5 -87
-13 -114 -31 -20 -14 -55 -29 -78 -34 -22 -4 -57 -14 -76 -20 -19 -7 -51 -18
-70 -25 -51 -18 -126 -33 -205 -40 -41 -4 -84 -15 -104 -26 l-34 -20 -47 12
-48 12 -34 -21 c-20 -12 -44 -22 -54 -22 -11 0 -34 -9 -53 -21 -21 -13 -44
-19 -60 -16 -17 4 -41 -3 -66 -17 -30 -18 -63 -25 -132 -29 -50 -4 -107 -13
-125 -21 -67 -28 -104 -39 -143 -43 -22 -2 -53 -10 -70 -17 -78 -34 -104 -39
-190 -37 -64 2 -101 -2 -127 -13 -21 -9 -61 -16 -89 -16 -28 0 -73 -8 -100
-17 l-49 -18 0 -67 0 -67 35 15 c26 11 45 12 70 5 l33 -9 33 20 c19 12 43 18
57 15 14 -3 40 2 57 10 l32 15 31 -16 31 -16 48 21 c28 12 59 18 75 15 18 -3
37 2 60 17 61 42 91 50 136 36 l41 -12 40 16 c22 9 77 20 123 23 65 6 90 12
115 31 17 13 53 28 80 33 66 12 131 30 174 47 l37 15 28 -15 28 -15 31 13 c49
21 122 35 178 35 35 0 62 7 82 20 17 11 40 20 51 20 12 0 38 7 57 15 20 8 55
15 77 15 28 0 51 8 73 24 18 14 43 27 57 29 23 5 93 19 235 49 28 6 61 18 75
27 14 9 57 18 100 22 41 3 91 12 110 19 131 48 183 60 266 60 50 0 75 5 100
21 27 16 43 19 74 14 31 -5 47 -2 74 14 18 12 44 21 56 21 13 0 48 14 77 30
l54 31 49 -7 c35 -5 61 -2 90 10 22 9 56 16 76 16 68 0 156 -56 190 -122 8
-16 32 -39 54 -53 22 -14 65 -48 95 -75 30 -28 64 -50 75 -50 11 0 46 -26 79
-58 32 -32 87 -73 122 -91 65 -35 164 -105 188 -135 7 -9 21 -16 30 -16 17 0
65 -24 158 -80 32 -20 78 -44 103 -54 25 -10 53 -22 62 -27 24 -12 255 -12
263 1 3 5 22 10 42 10 l36 0 97 96 98 95 21 65 c11 35 21 82 21 104 0 21 5 42
10 45 16 10 12 101 -5 115 -8 7 -22 36 -30 65 -9 28 -28 63 -43 78 -47 45
-146 107 -171 107 -13 0 -125 34 -248 75 l-223 75 -414 0 -413 0 -44 32 c-24
17 -62 50 -85 72 -22 23 -61 56 -87 74 -26 18 -61 53 -79 78 -18 26 -60 76
-93 113 -33 36 -70 80 -82 97 -12 17 -38 42 -57 55 -19 13 -41 34 -47 46 l-12
23 -74 0 -73 0 0 -60z m1685 -721 c56 -38 124 -69 152 -69 15 0 48 -14 73 -30
27 -18 58 -30 78 -30 36 0 82 -37 82 -65 0 -9 9 -33 20 -55 26 -51 25 -72 -6
-169 -31 -96 -54 -122 -137 -150 -79 -26 -136 -27 -212 -1 -82 28 -97 37 -195
102 -47 31 -100 59 -119 63 -21 5 -50 25 -80 55 -25 26 -70 60 -99 75 -30 14
-100 69 -157 123 -57 53 -119 109 -137 124 l-33 28 15 10 c9 6 150 10 370 10
l355 0 30 -21z"/>
</g>
</svg>
