<?xml version="1.0" standalone="no"?>
<!DOCTYPE svg PUBLIC "-//W3C//DTD SVG 20010904//EN"
 "http://www.w3.org/TR/2001/REC-SVG-20010904/DTD/svg10.dtd">
<svg version="1.0" xmlns="http://www.w3.org/2000/svg"
 width="249.000000pt" height="291.000000pt" viewBox="0 0 249.000000 291.000000"
 preserveAspectRatio="xMidYMid meet">
<metadata>
Created by potrace 1.16, written by Peter Selinger 2001-2019
</metadata>
<g transform="translate(0.000000,291.000000) scale(0.100000,-0.100000)"
fill="#000000" stroke="none">
<path d="M875 2880 c-8 -16 -15 -46 -15 -66 l0 -37 46 -42 c137 -126 241 -246
254 -294 5 -21 19 -46 30 -56 35 -32 111 -154 126 -203 20 -66 18 -72 -17 -72
-35 0 -203 77 -256 117 -35 27 -116 48 -168 43 -39 -3 -151 -3 -190 0 -121 10
-239 -66 -319 -207 -3 -6 -1 -24 4 -39 7 -19 8 -37 1 -57 -8 -22 -7 -36 4 -57
8 -16 15 -39 15 -52 0 -30 50 -117 92 -159 67 -68 160 -139 181 -139 12 0 42
-16 66 -35 24 -19 54 -35 67 -35 34 0 114 -20 147 -36 16 -8 45 -14 65 -14 20
0 51 -9 67 -20 42 -28 170 -28 223 -1 44 23 94 40 142 50 57 12 93 36 154 102
l57 62 27 -14 c14 -8 49 -37 76 -64 28 -28 67 -61 87 -75 20 -13 46 -39 59
-59 13 -20 34 -47 46 -61 27 -31 176 -256 227 -344 27 -48 37 -77 37 -108 0
-26 8 -55 20 -73 11 -17 20 -47 20 -70 0 -22 7 -49 15 -59 8 -11 15 -38 15
-61 0 -23 -7 -50 -15 -61 -8 -10 -15 -37 -15 -59 0 -23 -9 -53 -20 -70 -11
-16 -20 -44 -20 -60 0 -43 -21 -68 -82 -100 -29 -15 -69 -41 -88 -56 -19 -16
-44 -29 -55 -29 -11 0 -38 -11 -60 -25 l-40 -24 -203 -1 -203 0 -43 25 -43 25
-31 -11 -31 -11 -43 25 c-24 14 -65 27 -91 31 -26 3 -67 17 -90 30 -24 14 -68
27 -102 31 -75 8 -166 38 -213 70 -20 14 -42 25 -49 25 -7 0 -34 11 -60 24
-48 24 -108 43 -171 53 -22 4 -56 26 -103 69 l-69 64 -33 0 c-33 0 -58 13
-112 60 -40 34 -135 58 -170 42 l-25 -12 0 -40 0 -39 33 -17 c17 -9 52 -33 76
-52 101 -82 154 -112 199 -112 56 0 77 -12 107 -61 19 -29 41 -47 83 -66 136
-62 159 -71 192 -83 19 -6 49 -15 65 -20 53 -15 99 -32 137 -51 20 -10 53 -19
72 -19 50 0 124 -18 169 -42 29 -15 48 -18 78 -13 29 5 47 2 64 -9 13 -9 42
-16 63 -16 27 0 51 -9 80 -30 l42 -30 224 0 c139 0 227 4 231 10 3 5 13 10 22
10 8 0 71 28 140 63 100 49 132 70 157 103 17 23 53 57 81 75 l49 34 21 60
c12 33 33 78 48 99 15 21 27 49 27 61 0 12 7 28 15 35 17 14 20 66 5 75 -13 8
-13 122 0 130 15 9 12 61 -5 75 -8 7 -15 25 -15 39 0 15 -18 57 -40 94 -22 36
-40 78 -40 92 0 38 -36 103 -91 163 -27 30 -53 70 -59 91 -5 21 -19 46 -30 56
-11 10 -36 42 -56 72 -19 29 -49 60 -66 69 -28 14 -182 152 -286 256 -24 23
-57 47 -75 53 -24 8 -33 18 -38 41 -3 18 -16 47 -28 67 -13 21 -21 51 -21 76
0 48 -19 88 -95 203 -36 54 -55 93 -55 113 0 29 -18 59 -120 201 -31 42 -287
304 -363 370 -20 17 -40 24 -67 24 l-39 0 -16 -30z m-77 -764 c15 -7 56 -17
92 -21 70 -7 215 -70 291 -125 23 -16 50 -30 59 -30 9 0 35 -13 56 -30 21 -16
60 -44 85 -61 57 -39 79 -75 79 -127 l0 -40 -52 -39 c-86 -64 -114 -73 -223
-73 l-96 0 -55 25 c-30 14 -65 25 -77 25 -12 0 -35 9 -52 20 -16 11 -43 20
-60 20 -33 0 -133 61 -215 132 -36 31 -50 50 -50 69 0 15 -7 43 -15 64 l-16
37 12 35 c6 19 25 50 41 69 l30 34 42 0 c22 0 50 7 60 15 24 18 30 19 64 1z"/>
</g>
</svg>
