<?xml version="1.0" standalone="no"?>
<!DOCTYPE svg PUBLIC "-//W3C//DTD SVG 20010904//EN"
 "http://www.w3.org/TR/2001/REC-SVG-20010904/DTD/svg10.dtd">
<svg version="1.0" xmlns="http://www.w3.org/2000/svg"
 width="369.000000pt" height="258.000000pt" viewBox="0 0 369.000000 258.000000"
 preserveAspectRatio="xMidYMid meet">
<metadata>
Created by potrace 1.16, written by Peter Selinger 2001-2019
</metadata>
<g transform="translate(0.000000,258.000000) scale(0.100000,-0.100000)"
fill="#000000" stroke="none">
<path d="M51 2531 l-51 -50 0 -36 0 -36 87 -90 c49 -50 105 -100 126 -111 22
-11 60 -42 87 -69 26 -27 56 -49 65 -49 10 0 39 -13 64 -29 25 -16 57 -31 71
-34 14 -4 43 -22 65 -40 22 -19 103 -67 180 -106 77 -40 164 -87 194 -106 30
-19 78 -41 107 -50 33 -9 77 -34 115 -65 34 -28 70 -50 79 -50 23 0 190 -82
240 -119 24 -17 51 -31 60 -31 23 0 189 -82 240 -119 24 -17 50 -31 59 -31 29
0 154 -66 198 -104 22 -20 62 -67 87 -106 25 -38 61 -86 78 -106 18 -20 47
-56 63 -80 90 -129 179 -230 375 -425 137 -138 233 -225 261 -239 24 -12 64
-39 90 -60 25 -21 94 -63 155 -93 60 -30 118 -64 128 -76 l19 -21 156 0 157 0
33 35 c18 19 37 35 42 35 5 0 9 47 9 103 l0 104 -25 11 c-14 6 -25 19 -25 27
0 32 -41 94 -79 122 -22 15 -52 47 -67 71 -15 24 -54 61 -88 84 -34 22 -80 58
-103 79 -24 22 -46 39 -51 39 -4 0 -37 25 -72 55 -36 30 -105 76 -155 101 -49
26 -110 63 -135 84 -48 39 -120 80 -143 80 -7 0 -25 12 -40 28 -14 15 -73 49
-129 76 -57 26 -119 57 -138 67 -19 11 -74 39 -123 64 -95 49 -163 109 -173
152 -4 16 -19 49 -35 74 -16 25 -29 52 -29 61 0 8 -12 25 -26 39 -14 13 -38
44 -52 69 -46 78 -221 337 -238 351 -9 7 -36 39 -61 71 l-44 58 -38 0 c-52 0
-71 -23 -71 -86 l0 -49 61 -89 c33 -50 69 -106 79 -125 10 -20 30 -47 44 -60
14 -14 26 -32 26 -41 0 -9 13 -35 29 -57 29 -41 58 -109 50 -117 -3 -3 -47 15
-98 39 -50 25 -97 45 -104 45 -19 0 -134 57 -170 84 -39 29 -171 96 -190 96
-21 0 -190 85 -237 119 -24 17 -51 31 -61 31 -19 0 -52 40 -63 77 -4 12 0 38
9 58 23 56 19 88 -24 173 -29 57 -56 93 -104 137 -106 98 -187 155 -219 155
-16 0 -45 7 -65 15 -19 8 -48 15 -64 15 -15 0 -31 5 -34 10 -4 6 -68 10 -160
10 l-154 0 -50 -49z m436 -139 c86 -30 96 -37 191 -123 l62 -56 0 -50 c0 -90
-24 -90 -160 3 -42 28 -96 61 -120 74 -25 12 -65 39 -90 59 -25 20 -58 45 -73
54 -34 22 -45 46 -26 58 30 19 134 9 216 -19z m2080 -1436 c18 -23 210 -126
234 -126 6 0 34 -20 62 -45 28 -24 78 -59 111 -76 67 -35 153 -96 175 -123 8
-10 36 -28 62 -42 26 -13 56 -35 66 -50 41 -59 68 -87 105 -110 21 -13 49 -41
63 -62 14 -20 39 -55 55 -76 58 -75 34 -116 -66 -116 l-65 0 -67 39 c-37 22
-92 56 -123 75 -30 20 -64 36 -74 36 -10 0 -37 19 -59 43 -23 24 -61 59 -86
78 -69 52 -370 359 -370 377 0 9 -19 34 -43 56 -55 52 -97 108 -97 129 0 14
10 17 49 17 l50 0 18 -24z"/>
</g>
</svg>
