<?xml version="1.0" standalone="no"?>
<!DOCTYPE svg PUBLIC "-//W3C//DTD SVG 20010904//EN"
 "http://www.w3.org/TR/2001/REC-SVG-20010904/DTD/svg10.dtd">
<svg version="1.0" xmlns="http://www.w3.org/2000/svg"
 width="117.000000pt" height="126.000000pt" viewBox="0 0 117.000000 126.000000"
 preserveAspectRatio="xMidYMid meet">
<metadata>
Created by potrace 1.16, written by Peter Selinger 2001-2019
</metadata>
<g transform="translate(0.000000,126.000000) scale(0.100000,-0.100000)"
fill="#000000" stroke="none">
<path d="M0 1214 c0 -35 6 -54 27 -81 39 -48 76 -85 107 -106 14 -10 38 -41
52 -70 15 -29 55 -82 89 -119 35 -36 66 -76 70 -88 7 -22 -10 -56 -51 -100
-22 -24 -54 -106 -54 -141 0 -9 31 -63 69 -120 80 -120 322 -369 359 -369 11
0 24 -4 27 -10 3 -5 41 -10 84 -10 l78 0 23 25 c29 31 59 117 60 170 0 52 22
82 68 95 58 16 99 46 121 89 12 22 25 42 31 46 5 3 10 46 10 94 l0 89 -46 37
c-61 51 -131 98 -182 124 l-41 21 -177 0 -177 0 -56 61 c-31 34 -68 80 -84
102 -15 22 -51 66 -81 96 -29 31 -64 75 -79 97 -14 23 -46 58 -70 78 l-44 36
-67 0 -66 0 0 -46z m888 -616 c40 -13 69 -30 79 -45 32 -49 -12 -153 -65 -153
-28 0 -81 48 -156 143 l-38 47 12 15 c18 22 92 19 168 -7z m-342 -111 c54 -56
96 -114 117 -160 24 -52 22 -60 -10 -52 -42 10 -103 53 -103 72 0 9 -20 47
-45 84 -25 37 -45 74 -45 83 0 31 44 17 86 -27z"/>
</g>
</svg>
