<?xml version="1.0" standalone="no"?>
<!DOCTYPE svg PUBLIC "-//W3C//DTD SVG 20010904//EN"
 "http://www.w3.org/TR/2001/REC-SVG-20010904/DTD/svg10.dtd">
<svg version="1.0" xmlns="http://www.w3.org/2000/svg"
 width="231.000000pt" height="216.000000pt" viewBox="0 0 231.000000 216.000000"
 preserveAspectRatio="xMidYMid meet">
<metadata>
Created by potrace 1.16, written by Peter Selinger 2001-2019
</metadata>
<g transform="translate(0.000000,216.000000) scale(0.100000,-0.100000)"
fill="#000000" stroke="none">
<path d="M394 2123 l-7 -37 66 -132 c46 -92 76 -140 98 -156 17 -13 43 -43 57
-68 14 -25 68 -88 119 -140 51 -52 106 -113 122 -135 16 -22 49 -55 73 -72 25
-17 57 -50 72 -72 16 -22 51 -58 80 -80 88 -67 125 -107 151 -162 14 -30 25
-60 25 -67 0 -16 96 -207 122 -245 11 -15 24 -42 29 -60 5 -19 24 -51 42 -73
18 -21 36 -47 40 -57 9 -23 -15 -22 -37 2 -18 20 -118 71 -139 71 -6 0 -32 14
-57 30 -25 16 -51 30 -58 30 -7 0 -43 18 -80 40 -36 22 -82 45 -102 50 -19 5
-57 28 -84 50 -26 22 -55 40 -63 40 -8 0 -44 14 -80 30 -35 17 -69 30 -75 30
-19 0 -136 58 -179 89 -25 19 -54 31 -73 31 -36 0 -193 73 -256 119 -34 25
-53 31 -92 31 -27 0 -62 7 -78 15 l-30 16 0 -43 c0 -65 42 -106 170 -169 57
-28 118 -62 135 -74 16 -13 62 -34 100 -46 39 -12 83 -35 100 -51 17 -15 38
-28 46 -28 8 0 31 -11 51 -25 20 -14 71 -36 112 -49 42 -14 93 -37 113 -51 21
-14 45 -25 53 -25 8 0 33 -12 54 -26 21 -14 86 -51 144 -81 59 -30 132 -70
162 -89 30 -19 72 -39 92 -45 20 -5 61 -31 90 -58 53 -48 111 -83 158 -94 14
-4 43 -22 65 -40 43 -37 93 -65 135 -77 36 -10 230 -138 237 -156 4 -10 25
-14 79 -14 l74 0 0 63 c0 78 -13 98 -88 136 -73 37 -205 154 -214 191 -8 26
-53 72 -112 113 -14 10 -37 40 -50 66 -14 26 -42 61 -63 76 -21 16 -44 36 -51
45 -17 20 -52 92 -52 108 0 23 29 24 58 4 38 -28 167 -92 184 -92 7 0 33 -14
58 -30 25 -16 58 -30 73 -30 15 0 44 -7 64 -15 61 -26 144 -20 216 16 34 17
74 43 90 57 l27 26 0 144 0 144 -25 30 c-14 16 -25 38 -25 47 0 10 -13 36 -29
59 -17 22 -46 72 -66 111 -27 54 -45 77 -77 97 -23 15 -67 53 -98 85 -32 34
-64 59 -76 59 -11 0 -33 13 -48 29 -15 16 -40 31 -54 34 -15 3 -45 21 -67 41
-28 24 -67 43 -129 63 -64 20 -101 39 -131 66 l-43 37 -41 0 c-23 0 -58 7 -78
15 -21 9 -67 15 -115 15 l-80 0 -56 -54 -56 -54 -6 -53 c-5 -57 -24 -75 -39
-37 -5 13 -32 48 -60 78 -29 30 -71 85 -96 121 -24 36 -62 87 -85 114 -22 26
-54 74 -70 106 -24 46 -42 66 -85 94 l-55 35 -60 0 -59 0 -7 -37z m994 -501
c29 -11 65 -30 80 -44 35 -33 54 -42 138 -69 38 -12 83 -34 99 -50 17 -15 48
-36 70 -47 48 -24 164 -126 230 -202 26 -30 69 -100 96 -154 l49 -99 0 -64 c0
-35 -5 -73 -10 -84 l-11 -19 -85 0 c-90 0 -129 12 -189 56 -16 12 -59 37 -94
54 -35 18 -80 47 -100 65 -20 17 -52 41 -73 53 -20 12 -39 30 -42 38 -4 9 5
41 19 71 14 31 25 65 25 78 0 34 -41 88 -75 97 -16 5 -61 30 -100 56 -55 38
-81 66 -122 127 -54 81 -61 102 -43 136 14 25 68 25 138 1z"/>
</g>
</svg>
