<?xml version="1.0" standalone="no"?>
<!DOCTYPE svg PUBLIC "-//W3C//DTD SVG 20010904//EN"
 "http://www.w3.org/TR/2001/REC-SVG-20010904/DTD/svg10.dtd">
<svg version="1.0" xmlns="http://www.w3.org/2000/svg"
 width="429.000000pt" height="84.000000pt" viewBox="0 0 429.000000 84.000000"
 preserveAspectRatio="xMidYMid meet">
<metadata>
Created by potrace 1.16, written by Peter Selinger 2001-2019
</metadata>
<g transform="translate(0.000000,84.000000) scale(0.100000,-0.100000)"
fill="#000000" stroke="none">
<path d="M3526 809 c-14 -17 -26 -39 -26 -48 0 -36 157 -225 215 -259 17 -11
52 -50 78 -88 25 -38 64 -84 87 -103 32 -26 40 -38 38 -59 l-3 -27 -660 -3
c-501 -2 -667 1 -690 10 -25 10 -342 29 -465 27 -438 -5 -1090 -19 -1135 -24
-54 -6 -105 -8 -190 -7 -16 0 -198 -2 -403 -4 l-372 -5 0 -27 c0 -36 47 -82
83 -82 15 0 44 -7 64 -15 l35 -15 283 0 283 0 35 15 36 15 771 0 771 0 36 -15
c27 -12 81 -15 240 -15 158 0 212 -3 240 -15 l35 -15 280 0 279 0 36 -15 35
-15 284 0 c178 0 285 -4 289 -10 8 -12 59 -13 83 -1 9 5 34 16 55 25 l37 16 0
70 0 70 -17 0 c-9 0 -35 19 -57 43 -23 24 -62 60 -88 80 -25 20 -62 59 -82 86
-20 26 -51 59 -70 72 -19 13 -47 43 -63 68 -15 24 -45 54 -65 67 -21 13 -48
41 -62 62 -13 20 -55 67 -95 105 l-71 67 -34 0 c-26 0 -41 -8 -60 -31z"/>
</g>
</svg>
