<?xml version="1.0" standalone="no"?>
<!DOCTYPE svg PUBLIC "-//W3C//DTD SVG 20010904//EN"
 "http://www.w3.org/TR/2001/REC-SVG-20010904/DTD/svg10.dtd">
<svg version="1.0" xmlns="http://www.w3.org/2000/svg"
 width="336.000000pt" height="360.000000pt" viewBox="0 0 336.000000 360.000000"
 preserveAspectRatio="xMidYMid meet">
<metadata>
Created by potrace 1.16, written by Peter Selinger 2001-2019
</metadata>
<g transform="translate(0.000000,360.000000) scale(0.100000,-0.100000)"
fill="#000000" stroke="none">
<path d="M7 3593 c-11 -10 -8 -71 3 -78 5 -3 10 -15 10 -25 0 -25 42 -73 93
-108 30 -20 46 -40 57 -72 12 -34 27 -52 67 -80 29 -19 64 -54 79 -78 15 -24
46 -55 68 -70 52 -35 70 -72 73 -147 3 -113 15 -200 35 -260 35 -106 183 -385
238 -449 28 -32 58 -73 67 -90 9 -17 38 -55 65 -85 27 -30 60 -75 73 -102 14
-26 42 -60 64 -76 22 -15 52 -47 67 -71 15 -24 51 -59 80 -78 29 -19 71 -59
93 -89 27 -35 49 -55 62 -55 20 0 52 -29 98 -90 13 -17 42 -43 65 -57 22 -15
68 -52 101 -83 33 -32 79 -67 101 -78 50 -25 169 -105 204 -137 14 -13 39 -30
57 -39 45 -23 159 -138 167 -169 10 -40 45 -60 84 -46 l31 11 86 -41 c47 -23
102 -56 123 -75 39 -35 92 -66 113 -66 7 0 33 -13 58 -29 25 -16 57 -31 71
-34 14 -4 47 -24 74 -47 30 -25 58 -40 75 -40 65 0 214 -74 270 -134 l24 -26
-13 -39 c-20 -60 -64 -99 -178 -153 l-103 -50 -215 0 -215 0 -48 31 c-26 17
-59 31 -72 31 -13 0 -44 6 -69 14 -76 24 -133 37 -195 46 -37 5 -92 24 -143
49 -45 23 -87 41 -93 41 -6 0 -40 13 -76 30 -35 16 -69 30 -75 30 -16 0 -204
95 -268 135 -63 40 -102 45 -124 13 l-15 -21 15 -36 c20 -48 59 -88 115 -116
26 -13 83 -49 127 -79 77 -53 177 -96 223 -96 13 0 78 -27 146 -60 69 -33 135
-60 149 -60 14 0 41 -7 61 -15 19 -8 52 -15 72 -15 20 0 75 -13 121 -30 64
-22 103 -30 157 -30 39 0 75 -4 78 -10 8 -13 222 -13 230 0 3 6 37 10 75 10
76 0 234 46 339 100 71 35 231 186 231 217 0 12 5 25 10 28 6 3 10 46 10 95
l0 90 -60 30 c-46 23 -73 30 -117 30 l-58 0 -45 30 c-25 16 -51 30 -58 30 -8
0 -42 13 -76 29 -34 16 -76 32 -93 35 -18 4 -52 25 -76 47 -25 21 -50 39 -57
39 -18 0 -80 31 -115 56 -16 12 -52 34 -80 48 -27 15 -75 43 -105 62 -30 19
-66 38 -80 41 -14 3 -47 26 -74 49 -28 24 -77 58 -110 75 -75 40 -129 80 -182
136 -23 24 -50 43 -62 43 -11 0 -23 4 -27 10 -7 12 -141 119 -178 143 -15 10
-53 40 -83 68 -30 27 -59 49 -65 49 -17 0 -454 436 -486 484 -15 23 -44 59
-64 81 -86 93 -279 413 -279 463 0 9 -14 36 -30 62 -34 52 -32 77 7 86 31 8
56 -3 111 -50 24 -20 51 -36 60 -36 10 0 37 -14 62 -30 25 -16 57 -30 72 -30
15 0 46 -7 69 -16 l40 -17 57 19 c71 23 79 29 103 75 23 46 24 84 4 132 -8 20
-15 48 -15 62 0 44 -39 107 -113 183 -77 79 -108 99 -205 131 -46 16 -87 21
-164 21 l-103 0 -45 -30 c-64 -43 -82 -39 -148 28 -32 31 -70 65 -85 75 -15
10 -38 40 -52 67 -14 27 -42 61 -64 77 -22 15 -54 50 -71 76 -17 26 -44 53
-58 59 -15 5 -35 14 -44 19 -21 10 -102 12 -111 2z m895 -547 c29 -12 82 -43
118 -68 l65 -44 23 -67 c28 -79 24 -102 -16 -94 -82 16 -236 89 -260 124 -9
15 -35 44 -56 66 -45 45 -42 60 15 89 45 22 49 22 111 -6z"/>
</g>
</svg>
