<?xml version="1.0" standalone="no"?>
<!DOCTYPE svg PUBLIC "-//W3C//DTD SVG 20010904//EN"
 "http://www.w3.org/TR/2001/REC-SVG-20010904/DTD/svg10.dtd">
<svg version="1.0" xmlns="http://www.w3.org/2000/svg"
 width="270.000000pt" height="138.000000pt" viewBox="0 0 270.000000 138.000000"
 preserveAspectRatio="xMidYMid meet">
<metadata>
Created by potrace 1.16, written by Peter Selinger 2001-2019
</metadata>
<g transform="translate(0.000000,138.000000) scale(0.100000,-0.100000)"
fill="#000000" stroke="none">
<path d="M1396 1349 c-50 -59 -23 -138 54 -159 22 -6 62 -31 92 -58 29 -27
127 -97 218 -157 91 -60 192 -135 225 -166 33 -31 75 -64 93 -73 18 -10 61
-46 96 -82 37 -38 71 -64 83 -64 13 0 35 -20 63 -57 24 -32 55 -71 70 -88 39
-43 120 -180 120 -204 0 -26 -29 -54 -48 -46 -9 3 -39 13 -66 22 -28 9 -86 34
-129 55 -43 21 -88 38 -100 38 -34 0 -135 38 -176 66 -19 13 -43 24 -51 24 -8
0 -31 11 -51 24 -39 27 -235 96 -272 96 -12 0 -42 14 -67 30 -25 16 -56 30
-70 30 -14 0 -45 6 -70 14 -94 30 -138 38 -225 45 -49 4 -100 12 -112 19 -12
7 -54 12 -93 12 -40 0 -86 6 -107 15 -48 20 -198 20 -246 0 -20 -8 -54 -15
-75 -15 -22 0 -56 -7 -75 -15 -20 -8 -55 -15 -77 -15 -46 0 -165 -55 -218
-102 -19 -16 -51 -40 -73 -54 -28 -18 -47 -41 -66 -82 -14 -31 -30 -65 -34
-74 -14 -28 -11 -270 4 -301 l12 -27 83 0 82 0 0 41 c0 23 -8 63 -17 89 l-17
48 23 74 c47 145 65 163 209 212 60 20 118 36 129 36 11 0 37 7 56 15 51 21
333 21 384 0 19 -8 53 -15 75 -15 21 0 55 -7 75 -15 19 -8 60 -15 90 -15 29 0
70 -7 90 -15 19 -8 45 -15 56 -15 32 0 143 -40 230 -82 43 -21 88 -38 100 -38
36 0 132 -36 255 -95 62 -30 117 -55 123 -55 6 0 40 -13 76 -30 35 -16 69 -30
75 -30 6 0 53 -20 105 -45 l93 -45 97 0 97 0 53 56 53 56 0 104 0 104 -44 63
c-76 106 -119 160 -171 213 -27 28 -61 66 -74 84 -13 17 -41 43 -63 56 -22 14
-49 41 -60 60 -13 21 -54 57 -106 91 -47 31 -99 68 -116 82 -39 33 -108 80
-166 113 -25 14 -54 36 -65 48 -11 12 -51 38 -90 57 -72 37 -162 101 -204 147
l-24 26 -48 0 -47 0 -26 -31z"/>
</g>
</svg>
