<?xml version="1.0" standalone="no"?>
<!DOCTYPE svg PUBLIC "-//W3C//DTD SVG 20010904//EN"
 "http://www.w3.org/TR/2001/REC-SVG-20010904/DTD/svg10.dtd">
<svg version="1.0" xmlns="http://www.w3.org/2000/svg"
 width="336.000000pt" height="222.000000pt" viewBox="0 0 336.000000 222.000000"
 preserveAspectRatio="xMidYMid meet">
<metadata>
Created by potrace 1.16, written by Peter Selinger 2001-2019
</metadata>
<g transform="translate(0.000000,222.000000) scale(0.100000,-0.100000)"
fill="#000000" stroke="none">
<path d="M1382 2187 c-18 -50 -15 -61 28 -113 22 -27 45 -65 50 -84 14 -49 60
-126 109 -182 22 -25 41 -53 41 -61 0 -20 56 -95 106 -143 27 -25 44 -50 44
-64 0 -29 175 -200 206 -200 24 0 54 29 54 54 0 25 -35 88 -64 115 -14 14 -26
31 -26 38 0 22 -30 75 -60 108 -35 37 -120 179 -120 198 0 8 -18 37 -40 63
-22 27 -45 65 -50 84 -13 46 -59 125 -105 178 l-37 42 -62 0 -62 0 -12 -33z"/>
<path d="M3179 436 c-48 -15 -62 -28 -84 -77 l-19 -40 17 -47 c10 -26 17 -59
17 -73 0 -43 28 -59 105 -59 l68 0 39 42 38 41 0 77 0 76 -27 25 c-23 21 -98
52 -114 48 -2 -1 -20 -6 -40 -13z"/>
<path d="M2145 377 c-53 -30 -85 -87 -85 -153 0 -69 23 -98 98 -119 l57 -17
50 12 c67 16 91 33 115 80 l21 40 -16 54 c-17 59 -30 74 -92 105 -54 27 -98
26 -148 -2z"/>
<path d="M1071 374 c-24 -7 -67 -31 -95 -52 l-51 -39 -13 -47 -12 -47 16 -32
c9 -18 39 -56 65 -85 27 -30 49 -58 49 -63 0 -5 29 -9 65 -9 l64 0 71 68 70
67 0 72 0 72 -52 40 c-55 40 -111 72 -125 70 -4 -1 -28 -7 -52 -15z"/>
<path d="M58 309 l-58 -29 0 -84 0 -84 56 -46 56 -46 52 0 c68 0 89 16 132
102 l36 71 -18 39 c-9 21 -35 54 -56 73 l-38 35 -53 0 c-37 -1 -68 -9 -109
-31z"/>
</g>
</svg>
