<?xml version="1.0" standalone="no"?>
<!DOCTYPE svg PUBLIC "-//W3C//DTD SVG 20010904//EN"
 "http://www.w3.org/TR/2001/REC-SVG-20010904/DTD/svg10.dtd">
<svg version="1.0" xmlns="http://www.w3.org/2000/svg"
 width="774.000000pt" height="195.000000pt" viewBox="0 0 774.000000 195.000000"
 preserveAspectRatio="xMidYMid meet">
<metadata>
Created by potrace 1.16, written by Peter Selinger 2001-2019
</metadata>
<g transform="translate(0.000000,195.000000) scale(0.100000,-0.100000)"
fill="#000000" stroke="none">
<path d="M0 1901 c0 -33 5 -53 16 -62 9 -8 27 -31 40 -51 15 -24 45 -49 82
-68 31 -17 82 -47 112 -66 30 -19 72 -39 92 -45 20 -5 61 -31 90 -58 60 -55
125 -91 163 -91 15 0 56 -13 92 -30 35 -16 77 -30 91 -30 15 0 43 -11 63 -24
53 -36 240 -96 300 -96 33 0 70 -9 106 -26 57 -26 138 -52 228 -74 28 -7 143
-15 257 -17 l206 -6 41 17 c23 9 66 16 97 16 61 0 114 22 153 64 l24 26 53 0
52 0 179 -181 c126 -128 203 -197 262 -237 46 -30 99 -68 116 -84 18 -15 95
-60 171 -99 77 -38 164 -86 194 -105 30 -19 71 -39 91 -44 51 -14 249 -113
300 -150 23 -16 49 -30 58 -30 9 0 41 -12 71 -26 68 -31 163 -64 188 -64 10 0
56 -13 102 -30 47 -16 96 -30 110 -30 14 0 54 -14 88 -30 35 -17 74 -30 85
-30 12 0 42 -6 67 -14 98 -31 139 -39 240 -45 58 -4 115 -12 127 -19 12 -7 54
-12 93 -12 40 0 86 -6 107 -15 22 -9 68 -15 124 -15 48 0 91 -4 94 -10 8 -13
667 -14 680 -1 6 5 39 11 75 14 63 4 123 17 185 39 17 6 84 14 150 18 66 4
138 12 160 19 22 6 51 13 65 16 14 2 49 19 79 37 30 18 66 40 80 49 37 22 152
59 184 59 18 0 45 16 82 50 30 27 72 61 94 74 42 27 67 56 112 128 22 38 34
48 55 48 29 0 140 -52 223 -105 30 -19 77 -41 106 -49 l51 -15 46 14 c26 7 56
19 67 25 l21 11 0 100 0 101 -50 54 c-32 36 -52 67 -56 92 -5 26 -22 52 -58
88 -28 27 -64 70 -81 95 -16 24 -71 87 -121 140 -50 52 -99 109 -108 127 -9
17 -35 43 -58 59 -29 19 -46 40 -53 62 -7 23 -28 48 -70 80 -33 25 -87 72
-120 103 -33 32 -80 78 -105 102 -72 70 -139 93 -190 66 -58 -31 -42 -84 47
-150 81 -60 112 -91 201 -200 42 -52 107 -125 143 -162 37 -36 69 -77 73 -91
3 -14 37 -54 76 -90 38 -36 70 -73 70 -83 0 -10 29 -46 65 -81 44 -42 74 -82
90 -119 38 -86 34 -89 -51 -49 -55 26 -86 53 -172 154 -54 61 -113 101 -152
101 -29 0 -100 -67 -100 -95 0 -13 11 -56 25 -97 30 -88 30 -101 5 -156 -36
-79 -173 -192 -233 -192 -8 0 -33 -13 -55 -30 -58 -42 -139 -80 -192 -90 -67
-13 -125 -29 -225 -61 -50 -16 -107 -29 -127 -29 -19 0 -52 -7 -71 -15 -20 -8
-54 -15 -75 -15 -22 0 -56 -7 -75 -15 l-36 -15 -321 0 -321 0 -36 15 c-22 9
-67 15 -120 15 -52 0 -97 6 -120 15 -19 8 -60 15 -90 15 -29 0 -70 7 -90 15
-19 8 -59 15 -87 15 -28 0 -71 6 -96 14 -87 27 -136 38 -205 45 -46 5 -143 32
-283 79 -117 40 -222 72 -233 72 -33 0 -125 47 -167 85 -22 19 -45 35 -52 35
-14 0 -135 51 -185 78 -16 8 -66 35 -110 59 -44 23 -87 43 -96 43 -8 0 -28 14
-44 30 -16 17 -36 30 -44 30 -9 0 -29 9 -46 21 -16 11 -55 33 -86 49 -31 16
-80 51 -110 78 -30 27 -69 57 -87 66 -18 9 -62 45 -97 79 -35 34 -78 76 -95
92 -39 38 -124 136 -145 168 -8 13 -29 65 -45 116 -39 119 -61 161 -105 199
-28 25 -45 32 -77 32 l-41 0 -43 -44 c-35 -34 -44 -51 -44 -77 0 -23 -14 -56
-46 -103 -54 -83 -61 -89 -140 -115 l-60 -21 -153 0 c-112 0 -161 4 -188 15
-19 8 -52 15 -72 15 -20 0 -56 6 -81 14 -57 18 -122 35 -180 46 -25 5 -76 20
-115 34 -38 14 -86 26 -105 26 -39 0 -156 38 -219 69 -22 12 -45 21 -51 21 -7
0 -41 14 -77 30 -35 17 -69 30 -74 30 -24 0 -121 52 -156 83 -41 37 -83 61
-124 70 -15 4 -50 28 -79 53 -84 76 -154 114 -211 114 l-49 0 0 -49z"/>
</g>
</svg>
