<?xml version="1.0" standalone="no"?>
<!DOCTYPE svg PUBLIC "-//W3C//DTD SVG 20010904//EN"
 "http://www.w3.org/TR/2001/REC-SVG-20010904/DTD/svg10.dtd">
<svg version="1.0" xmlns="http://www.w3.org/2000/svg"
 width="270.000000pt" height="390.000000pt" viewBox="0 0 270.000000 390.000000"
 preserveAspectRatio="xMidYMid meet">
<metadata>
Created by potrace 1.16, written by Peter Selinger 2001-2019
</metadata>
<g transform="translate(0.000000,390.000000) scale(0.100000,-0.100000)"
fill="#000000" stroke="none">
<path d="M1970 3850 l0 -50 48 -53 c26 -29 78 -98 114 -153 36 -55 84 -122
107 -148 23 -26 50 -64 60 -84 10 -21 29 -46 41 -57 13 -11 36 -38 51 -59 l29
-39 0 -87 0 -88 -52 -39 c-70 -52 -118 -73 -166 -73 -22 0 -56 -7 -75 -15 -20
-8 -66 -15 -102 -15 -36 0 -82 7 -102 15 -19 8 -54 15 -77 15 -28 0 -71 15
-134 45 -62 30 -107 45 -133 45 -22 0 -56 7 -76 15 -19 8 -45 15 -57 15 -24 0
-151 42 -193 64 -43 22 -240 86 -266 86 -12 0 -42 14 -67 30 -25 16 -52 30
-60 30 -8 0 -40 12 -70 26 -72 33 -164 64 -192 64 -13 0 -43 14 -68 30 -25 16
-51 30 -58 30 -8 0 -43 14 -79 30 -70 33 -164 41 -206 18 -12 -6 -49 -14 -82
-17 l-60 -6 -22 -40 c-27 -50 -32 -185 -8 -205 8 -7 21 -34 29 -60 26 -87 15
-73 249 -307 67 -68 136 -136 152 -152 17 -16 43 -46 59 -66 16 -20 46 -45 67
-56 44 -22 172 -146 193 -188 8 -15 41 -47 73 -71 32 -24 82 -70 111 -102 29
-31 75 -72 102 -90 26 -18 95 -76 152 -129 56 -53 126 -115 153 -137 69 -54
196 -188 228 -239 15 -23 38 -50 52 -59 14 -9 38 -38 52 -63 15 -25 49 -70 75
-100 27 -30 60 -75 73 -101 13 -25 31 -53 41 -61 25 -21 88 -108 113 -156 11
-23 46 -79 76 -125 l55 -82 0 -72 c0 -41 6 -87 15 -107 22 -52 20 -209 -3
-272 -23 -67 -165 -211 -216 -220 -18 -4 -59 -24 -90 -45 -31 -21 -71 -42 -89
-45 -39 -9 -67 -32 -67 -57 l0 -18 89 0 c50 0 93 5 96 10 3 6 20 10 36 10 37
0 100 32 159 80 25 21 55 43 68 49 12 7 34 30 48 53 15 23 46 62 69 87 23 25
52 65 64 88 l21 42 0 134 c0 97 -4 145 -15 170 -8 20 -15 55 -15 77 0 42 -25
102 -65 155 -31 42 -71 123 -84 172 -9 31 -26 55 -66 90 -30 26 -55 57 -55 67
0 11 -31 50 -69 87 -47 46 -71 79 -76 101 -8 39 -32 68 -54 68 -30 0 -61 31
-90 88 -23 44 -78 105 -238 262 -114 113 -239 231 -278 262 -38 31 -83 69 -99
86 -16 17 -48 43 -71 58 -23 14 -55 47 -71 71 -15 25 -49 59 -75 76 -26 17
-60 51 -75 75 -16 25 -46 56 -68 69 -64 41 -210 175 -275 253 -18 22 -45 43
-60 47 -36 8 -51 22 -51 46 0 12 -27 47 -66 85 -94 91 -136 193 -104 253 13
24 74 26 127 4 19 -8 47 -15 60 -15 14 0 54 -13 90 -30 35 -16 76 -30 89 -30
14 0 51 -12 82 -26 31 -14 93 -37 136 -51 43 -15 114 -43 158 -64 43 -22 90
-39 104 -39 13 0 41 -7 61 -15 19 -8 47 -15 62 -15 14 0 55 -14 89 -30 35 -17
69 -30 75 -30 7 0 41 -14 75 -30 35 -17 80 -30 100 -30 40 0 157 -37 221 -69
29 -15 59 -21 111 -21 40 0 86 -6 107 -15 23 -10 69 -15 134 -15 l99 0 107 36
c144 48 233 95 269 140 16 20 55 62 87 93 l57 56 0 56 0 57 -37 28 c-68 52
-131 116 -169 173 -21 31 -57 76 -79 101 -22 25 -66 83 -97 130 -31 47 -80
108 -110 135 -33 31 -62 69 -74 98 l-19 47 -72 0 -73 0 0 -50z"/>
</g>
</svg>
