<?xml version="1.0" standalone="no"?>
<!DOCTYPE svg PUBLIC "-//W3C//DTD SVG 20010904//EN"
 "http://www.w3.org/TR/2001/REC-SVG-20010904/DTD/svg10.dtd">
<svg version="1.0" xmlns="http://www.w3.org/2000/svg"
 width="510.000000pt" height="294.000000pt" viewBox="0 0 510.000000 294.000000"
 preserveAspectRatio="xMidYMid meet">
<metadata>
Created by potrace 1.16, written by Peter Selinger 2001-2019
</metadata>
<g transform="translate(0.000000,294.000000) scale(0.100000,-0.100000)"
fill="#000000" stroke="none">
<path d="M22 2926 l-23 -11 3 -44 3 -44 75 -63 c41 -35 92 -68 112 -74 44 -13
200 -152 239 -214 15 -23 38 -50 52 -59 15 -9 35 -26 46 -38 19 -21 101 -253
101 -287 0 -20 -42 -82 -65 -95 -8 -4 -30 -1 -51 8 -42 17 -165 20 -195 5 -24
-13 -25 -52 -2 -73 31 -27 139 -57 208 -57 67 0 176 29 205 55 9 8 33 50 55
94 l39 81 -17 47 c-9 27 -17 58 -17 70 0 12 -18 61 -41 109 -27 56 -37 90 -31
96 7 7 40 -4 95 -30 47 -22 99 -43 116 -47 16 -3 50 -24 74 -46 25 -21 51 -39
59 -39 47 0 316 -159 398 -235 36 -34 90 -65 111 -65 7 0 33 -13 58 -29 25
-16 57 -31 71 -34 14 -4 43 -22 65 -40 42 -36 115 -77 137 -77 8 0 54 -27 103
-60 50 -33 97 -60 105 -60 21 0 135 -55 173 -84 38 -28 171 -96 189 -96 7 0
57 -29 110 -64 53 -34 111 -68 130 -75 18 -7 49 -21 68 -32 19 -10 76 -40 125
-65 l90 -47 155 -151 c85 -84 171 -162 190 -175 20 -13 48 -41 64 -62 17 -25
50 -51 85 -69 32 -16 84 -51 117 -79 32 -28 89 -67 125 -86 36 -19 93 -59 126
-88 40 -36 73 -57 97 -61 25 -5 52 -23 90 -61 30 -30 63 -55 73 -55 30 0 177
-75 220 -112 26 -23 70 -44 143 -68 l105 -34 41 -43 40 -43 67 0 c36 0 69 -4
72 -10 8 -13 162 -13 170 0 3 6 13 10 22 10 8 0 35 12 59 28 l43 27 1 147 0
148 -35 55 c-20 30 -49 62 -66 70 -16 9 -58 44 -93 78 -62 62 -113 102 -212
167 -29 19 -87 63 -129 98 -50 42 -94 69 -126 78 -27 8 -75 36 -110 64 -34 28
-69 50 -78 50 -9 0 -36 14 -61 30 -25 16 -58 30 -75 30 -16 0 -43 9 -60 21
-54 37 -163 89 -227 108 -128 38 -155 44 -234 48 l-82 4 -50 -25 c-28 -14 -53
-30 -57 -36 -12 -20 -174 32 -210 68 -32 32 -45 60 -90 195 l-37 108 17 25
c16 25 145 94 176 94 22 0 49 32 49 59 0 28 -51 81 -78 81 -11 0 -36 -7 -55
-15 -22 -9 -67 -15 -111 -15 l-75 0 -36 -32 c-20 -17 -47 -53 -61 -79 l-24
-48 0 -80 c0 -44 -4 -83 -10 -86 -5 -3 -23 1 -39 10 -17 8 -43 15 -58 15 -32
0 -138 48 -186 84 -18 13 -93 54 -167 91 -74 37 -148 78 -166 91 -17 13 -52
30 -78 38 -26 8 -87 42 -136 75 -54 37 -117 70 -157 83 -38 11 -81 34 -98 49
-32 29 -192 112 -237 123 -14 3 -50 28 -80 55 -29 26 -72 58 -94 69 -23 12
-79 46 -124 77 -45 31 -101 62 -126 70 -24 7 -88 43 -142 79 -54 36 -104 66
-112 66 -21 0 -135 55 -173 84 -38 29 -171 96 -190 96 -7 0 -50 25 -95 55 -94
62 -154 95 -176 95 -8 0 -28 11 -44 25 l-30 25 -53 -1 c-30 -1 -64 -7 -77 -13z
m3945 -1938 c15 -7 42 -22 58 -35 17 -12 75 -36 129 -54 73 -23 111 -42 151
-74 55 -46 124 -85 148 -85 8 0 22 -10 33 -21 10 -12 42 -37 69 -55 75 -51
191 -146 213 -175 11 -14 40 -38 65 -53 62 -39 137 -156 137 -213 0 -57 -15
-63 -145 -63 -115 0 -145 8 -215 59 -24 17 -50 31 -59 31 -9 0 -29 9 -46 21
-16 11 -79 45 -140 76 -60 30 -123 66 -140 78 -16 13 -59 37 -93 54 -35 18
-85 54 -112 82 -26 27 -56 49 -67 49 -23 0 -78 38 -143 100 -25 23 -63 52 -85
63 -54 30 -135 88 -135 99 0 19 6 22 35 19 17 -1 50 -15 75 -31 82 -52 168
-90 205 -90 27 0 44 8 66 29 44 44 39 74 -21 132 -27 27 -50 53 -50 59 0 14
33 13 67 -2z"/>
</g>
</svg>
