<?xml version="1.0" standalone="no"?>
<!DOCTYPE svg PUBLIC "-//W3C//DTD SVG 20010904//EN"
 "http://www.w3.org/TR/2001/REC-SVG-20010904/DTD/svg10.dtd">
<svg version="1.0" xmlns="http://www.w3.org/2000/svg"
 width="492.000000pt" height="255.000000pt" viewBox="0 0 492.000000 255.000000"
 preserveAspectRatio="xMidYMid meet">
<metadata>
Created by potrace 1.16, written by Peter Selinger 2001-2019
</metadata>
<g transform="translate(0.000000,255.000000) scale(0.100000,-0.100000)"
fill="#000000" stroke="none">
<path d="M4025 2540 c-3 -5 -15 -10 -26 -10 -11 0 -34 -13 -50 -29 l-29 -29 0
-69 0 -68 37 -55 c21 -30 46 -61 55 -68 10 -7 25 -27 34 -44 l16 -30 -14 -14
-13 -14 -90 29 c-102 33 -160 48 -227 61 -26 5 -56 13 -67 19 -11 6 -38 11
-61 11 -22 0 -57 7 -77 15 -19 8 -60 15 -90 15 -29 0 -70 7 -90 15 -19 8 -60
15 -90 15 -29 0 -70 7 -90 15 -19 8 -54 15 -77 15 -34 0 -48 6 -71 30 l-29 30
-58 0 c-32 0 -75 7 -95 15 -26 11 -76 15 -195 15 -118 0 -168 4 -195 15 -24
10 -71 15 -150 15 -78 0 -125 5 -150 15 -23 10 -69 15 -135 15 -65 0 -111 5
-135 15 -27 12 -79 15 -225 15 -145 0 -197 3 -225 15 -24 10 -69 15 -138 15
-69 0 -114 -5 -138 -15 -23 -9 -69 -15 -122 -15 -48 0 -96 -5 -108 -12 -12 -6
-56 -15 -97 -19 -74 -7 -123 -17 -210 -45 -25 -8 -60 -14 -78 -14 -37 0 -124
-28 -206 -65 -30 -14 -61 -25 -68 -25 -7 0 -33 -14 -58 -30 -25 -16 -53 -30
-62 -30 -10 0 -41 -32 -73 -74 l-55 -75 0 -164 0 -165 35 -31 c37 -32 75 -47
100 -38 8 4 23 24 35 46 l20 40 0 116 0 115 72 72 73 72 95 33 c52 18 110 33
128 33 18 0 92 20 165 45 l133 45 96 0 c64 0 108 5 133 16 l38 15 136 -4 c75
-3 161 -10 191 -15 30 -6 160 -11 288 -11 183 -1 240 -4 269 -16 24 -10 71
-15 150 -15 78 0 125 -5 150 -15 22 -9 67 -15 120 -15 52 0 97 -6 120 -15 20
-8 66 -15 105 -15 38 0 84 -7 105 -15 22 -9 68 -15 122 -15 l86 0 63 -30 c35
-17 80 -30 100 -30 21 0 57 -6 82 -14 87 -28 136 -38 210 -45 41 -4 85 -13 97
-19 12 -7 40 -12 63 -12 22 0 57 -7 77 -15 19 -8 51 -15 71 -15 19 0 97 -20
171 -44 142 -46 200 -62 266 -75 69 -13 136 -40 274 -108 106 -52 148 -79 198
-127 103 -98 142 -111 234 -79 l49 18 0 55 0 56 -28 27 c-15 15 -34 27 -41 27
-27 0 -182 81 -219 114 -20 18 -53 41 -72 51 -19 9 -55 34 -80 54 -25 20 -64
49 -87 65 -107 72 -253 255 -253 318 0 22 30 38 68 38 37 0 82 35 82 64 0 12
-10 32 -23 44 l-23 22 -107 0 c-60 0 -109 -4 -112 -10z"/>
<path d="M765 1623 c-98 -49 -129 -82 -155 -162 l-21 -68 21 -63 c60 -177 159
-320 374 -538 94 -95 194 -189 221 -208 28 -18 117 -99 199 -179 82 -80 156
-145 166 -145 10 0 30 -16 44 -35 26 -33 110 -85 139 -85 7 0 26 -13 42 -30
16 -16 35 -30 42 -30 26 0 103 -40 116 -60 l12 -20 91 0 92 0 5 26 c6 35 -42
90 -92 104 -67 18 -155 67 -218 121 -33 30 -81 66 -105 81 -23 15 -79 57 -123
93 -44 36 -103 84 -132 106 -29 23 -68 64 -87 92 -37 56 -61 80 -117 117 -21
13 -51 45 -68 72 -17 26 -51 64 -75 84 -25 20 -56 59 -71 85 -14 27 -41 60
-60 74 -58 45 -155 261 -155 348 l0 38 46 27 c129 76 153 127 79 169 -61 34
-124 30 -210 -14z"/>
</g>
</svg>
