<?xml version="1.0" standalone="no"?>
<!DOCTYPE svg PUBLIC "-//W3C//DTD SVG 20010904//EN"
 "http://www.w3.org/TR/2001/REC-SVG-20010904/DTD/svg10.dtd">
<svg version="1.0" xmlns="http://www.w3.org/2000/svg"
 width="738.000000pt" height="204.000000pt" viewBox="0 0 738.000000 204.000000"
 preserveAspectRatio="xMidYMid meet">
<metadata>
Created by potrace 1.16, written by Peter Selinger 2001-2019
</metadata>
<g transform="translate(0.000000,204.000000) scale(0.100000,-0.100000)"
fill="#000000" stroke="none">
<path d="M80 2028 c0 -7 -14 -33 -30 -58 -23 -34 -30 -57 -30 -92 0 -26 -5
-50 -10 -53 -13 -8 -13 -192 0 -200 6 -3 10 -33 10 -66 0 -69 13 -99 103 -233
85 -128 229 -272 357 -358 58 -38 121 -85 140 -103 19 -18 64 -47 98 -65 35
-17 81 -43 101 -58 21 -15 71 -42 112 -60 41 -19 90 -43 109 -53 138 -75 245
-124 350 -159 67 -22 134 -49 149 -59 46 -33 145 -61 216 -61 36 0 82 -7 102
-15 20 -8 66 -15 104 -15 41 0 86 -7 110 -17 l41 -16 47 16 c32 12 78 17 151
17 l105 -1 143 48 143 47 48 -17 c27 -9 65 -17 85 -17 20 0 53 -7 73 -15 19
-8 53 -15 75 -15 45 0 94 -19 140 -53 56 -42 115 -67 158 -67 22 0 57 -7 77
-15 19 -8 59 -15 87 -15 28 0 71 -6 96 -14 78 -25 133 -37 195 -45 34 -5 70
-13 82 -19 12 -7 47 -12 78 -12 30 0 72 -7 92 -15 22 -9 67 -15 120 -15 52 0
97 -6 120 -15 28 -12 84 -15 270 -15 185 0 241 -3 270 -15 19 -8 48 -15 64
-15 15 0 31 -4 34 -10 8 -14 642 -14 650 0 4 6 71 10 169 10 123 0 173 4 199
15 27 11 75 15 180 15 106 0 154 4 180 15 23 9 68 15 120 15 53 0 98 6 120 15
46 19 98 19 144 0 19 -8 53 -15 75 -15 21 0 55 -7 75 -15 49 -21 257 -21 306
0 20 8 49 15 64 15 21 0 46 18 101 71 84 82 112 130 112 193 0 25 4 48 10 51
6 3 10 21 10 40 0 19 -4 37 -10 40 -6 3 -10 19 -10 34 0 16 -7 45 -15 64 -8
20 -15 50 -15 66 0 19 -13 45 -41 77 -22 27 -52 72 -66 99 -34 69 -300 337
-368 372 -27 14 -63 36 -80 49 -31 23 -140 64 -172 64 -33 0 -224 70 -261 95
l-37 25 -127 0 -127 0 -20 -26 c-31 -39 -27 -70 9 -89 17 -9 40 -13 51 -10 21
7 91 -6 170 -31 26 -8 57 -14 70 -14 13 0 53 -14 87 -30 35 -17 69 -30 76 -30
29 0 216 -100 231 -124 24 -36 6 -66 -40 -66 l-35 0 -81 -75 c-45 -41 -85 -75
-90 -75 -4 0 -29 -27 -54 -60 -27 -35 -60 -66 -80 -74 -25 -11 -41 -29 -60
-66 -15 -29 -40 -70 -56 -93 -45 -62 -35 -126 35 -222 12 -16 28 -45 36 -63
l13 -34 -14 -9 c-8 -5 -37 -9 -65 -9 -28 0 -68 -7 -87 -15 -20 -8 -54 -15 -75
-15 -22 0 -56 -7 -75 -15 -24 -10 -70 -15 -137 -15 -63 0 -110 -5 -123 -12
-18 -11 -324 -27 -517 -27 -147 -1 -439 16 -457 27 -13 7 -57 12 -108 12 -53
0 -99 6 -122 15 -24 10 -71 15 -150 15 -78 0 -125 5 -150 15 -19 8 -60 15 -90
15 -29 0 -70 7 -90 15 -23 10 -69 15 -135 15 -65 0 -111 5 -135 15 -19 8 -53
15 -75 15 -21 0 -55 7 -75 15 -19 8 -52 15 -72 15 -20 0 -75 13 -121 30 -47
16 -103 30 -124 30 -22 0 -69 13 -105 29 -168 73 -287 116 -344 124 -20 3 -51
15 -67 27 l-30 21 0 55 c0 55 -26 148 -60 213 -28 54 -128 145 -196 179 -78
39 -175 72 -212 72 -38 0 -172 -106 -195 -155 -22 -46 -21 -72 4 -148 25 -74
31 -83 81 -108 22 -11 56 -35 77 -54 20 -19 71 -50 112 -70 41 -19 74 -40 74
-46 0 -17 -84 -48 -131 -48 -23 -1 -59 -8 -79 -17 l-38 -16 -41 16 c-29 11
-75 16 -151 16 -67 0 -128 5 -155 14 -56 18 -123 35 -175 45 -49 10 -144 42
-205 69 -62 27 -144 60 -216 86 -33 12 -76 34 -95 48 -18 14 -95 56 -169 93
-74 37 -155 84 -180 105 -48 39 -120 80 -143 80 -7 0 -24 12 -38 26 -13 14
-55 46 -92 71 -38 25 -79 62 -92 83 -22 35 -51 62 -109 103 -15 10 -36 37 -47
60 -12 23 -37 59 -56 80 -18 21 -45 63 -59 93 l-25 55 11 33 c7 23 7 41 0 60
-14 39 -12 91 5 133 10 24 15 70 15 139 l0 104 -55 0 c-37 0 -55 -4 -55 -12z
m2355 -1142 c90 -43 117 -71 143 -148 l22 -63 -14 -13 -14 -14 -85 40 c-46 22
-110 59 -141 82 l-56 42 0 44 c0 73 39 82 145 30z m4370 -51 l25 -24 0 -83 c0
-89 -18 -156 -66 -255 -25 -51 -74 -96 -165 -151 -48 -29 -62 -28 -106 11 -21
18 -57 45 -80 60 -57 37 -57 65 0 143 24 33 51 65 60 73 9 7 17 20 17 27 0 24
163 176 215 200 63 30 70 30 100 -1z m269 -135 c78 -91 116 -195 116 -315 0
-112 -19 -138 -126 -174 -73 -25 -132 -27 -199 -5 -27 9 -56 18 -62 20 -7 2
-13 14 -13 28 0 18 17 40 59 77 32 28 64 62 70 76 31 68 81 239 81 277 0 48 8
79 20 74 4 -2 29 -28 54 -58z"/>
</g>
</svg>
