<?xml version="1.0" standalone="no"?>
<!DOCTYPE svg PUBLIC "-//W3C//DTD SVG 20010904//EN"
 "http://www.w3.org/TR/2001/REC-SVG-20010904/DTD/svg10.dtd">
<svg version="1.0" xmlns="http://www.w3.org/2000/svg"
 width="303.000000pt" height="105.000000pt" viewBox="0 0 303.000000 105.000000"
 preserveAspectRatio="xMidYMid meet">
<metadata>
Created by potrace 1.16, written by Peter Selinger 2001-2019
</metadata>
<g transform="translate(0.000000,105.000000) scale(0.100000,-0.100000)"
fill="#000000" stroke="none">
<path d="M1696 1007 c-33 -23 -79 -61 -103 -83 l-43 -41 0 -73 0 -72 59 -61
c68 -72 154 -194 146 -208 -4 -5 -105 -9 -231 -9 -177 0 -232 3 -261 15 -23
10 -69 15 -135 15 -65 0 -111 5 -135 15 -19 8 -53 15 -75 15 -54 0 -78 15 -78
48 0 53 -34 89 -132 139 l-93 47 -95 9 c-52 4 -111 8 -130 8 -60 1 -194 -17
-223 -29 -16 -7 -41 -12 -56 -12 -21 0 -38 -12 -69 -49 l-42 -50 0 -49 0 -50
42 -31 c23 -17 53 -31 67 -31 15 0 46 -6 71 -14 98 -31 139 -39 240 -45 58 -4
115 -12 127 -19 13 -7 62 -12 123 -12 67 0 113 -5 137 -15 28 -12 84 -15 270
-15 185 0 241 -3 270 -15 28 -12 84 -15 270 -15 185 0 241 -3 270 -15 19 -8
61 -15 92 -15 57 0 83 -10 186 -74 26 -16 65 -35 88 -43 22 -8 52 -22 66 -32
62 -44 172 -91 211 -91 22 0 57 -7 77 -15 19 -8 48 -15 64 -15 15 0 31 -5 34
-10 4 -6 58 -10 130 -10 l123 0 26 31 c15 17 26 43 26 59 0 16 5 32 10 35 6 3
10 18 10 33 0 21 -19 44 -79 99 l-78 71 -152 51 c-83 28 -167 51 -187 51 -19
0 -51 7 -71 15 -26 11 -76 15 -196 15 l-160 0 -63 30 c-34 17 -73 45 -87 63
-14 18 -44 45 -69 60 -24 16 -54 45 -68 65 -13 20 -39 55 -57 78 -18 23 -33
48 -33 56 0 27 76 96 119 108 52 14 101 68 94 104 l-5 26 -92 -1 -91 0 -59
-42z m-1116 -410 c50 -25 62 -50 30 -67 -16 -9 -29 -8 -53 1 -18 6 -57 15 -87
19 -49 7 -137 34 -150 46 -13 14 36 24 120 24 l95 0 45 -23z m1993 -337 c32
-16 65 -30 73 -30 21 0 134 -59 134 -70 0 -25 -24 -22 -130 15 -19 7 -62 21
-95 30 -139 43 -180 85 -81 85 27 0 63 -11 99 -30z"/>
</g>
</svg>
