<?xml version="1.0" standalone="no"?>
<!DOCTYPE svg PUBLIC "-//W3C//DTD SVG 20010904//EN"
 "http://www.w3.org/TR/2001/REC-SVG-20010904/DTD/svg10.dtd">
<svg version="1.0" xmlns="http://www.w3.org/2000/svg"
 width="651.000000pt" height="180.000000pt" viewBox="0 0 651.000000 180.000000"
 preserveAspectRatio="xMidYMid meet">
<metadata>
Created by potrace 1.16, written by Peter Selinger 2001-2019
</metadata>
<g transform="translate(0.000000,180.000000) scale(0.100000,-0.100000)"
fill="#000000" stroke="none">
<path d="M4338 1756 c-45 -71 -38 -106 46 -234 24 -38 60 -77 87 -95 26 -18
88 -71 138 -119 110 -105 114 -120 43 -172 -49 -36 -116 -63 -187 -77 -52 -10
-118 -27 -175 -45 -25 -8 -68 -14 -96 -14 -28 0 -68 -7 -87 -15 -27 -11 -75
-15 -180 -15 -106 0 -154 -4 -180 -15 -49 -20 -215 -20 -264 0 -28 12 -84 15
-270 15 -185 0 -241 3 -270 15 -22 9 -67 15 -120 15 -52 0 -97 6 -120 15 -19
8 -60 15 -90 15 -29 0 -70 7 -90 15 -25 11 -72 15 -165 15 -92 0 -139 4 -165
15 -19 8 -59 15 -87 15 -32 0 -84 11 -136 30 -47 16 -94 30 -105 30 -12 0 -59
13 -105 30 -62 22 -103 30 -153 30 -53 0 -78 5 -110 24 -23 13 -64 26 -90 30
-26 3 -67 17 -91 31 -23 14 -54 25 -67 25 -13 0 -44 9 -68 20 -24 11 -54 20
-68 20 -41 0 -106 36 -171 94 l-63 56 -41 0 -41 0 -43 -44 -44 -43 0 -44 0
-44 90 -88 90 -87 0 -33 c0 -18 -6 -42 -14 -52 l-14 -20 -127 2 -128 2 -36 26
c-20 14 -67 48 -106 75 -38 28 -75 50 -83 50 -29 0 -103 42 -153 88 -30 27
-74 59 -98 71 -24 13 -62 36 -85 53 l-41 30 -3 -73 c-2 -41 2 -77 8 -83 5 -5
10 -17 10 -27 0 -29 40 -68 80 -79 22 -6 61 -31 92 -59 52 -47 124 -91 150
-91 8 0 51 -25 96 -55 134 -89 128 -87 302 -93 l155 -5 50 26 c28 14 62 38 76
54 29 31 99 163 99 187 0 37 57 37 160 1 19 -7 51 -18 70 -24 19 -7 49 -16 66
-20 16 -5 42 -16 57 -25 20 -13 36 -16 67 -11 31 5 47 2 74 -14 l33 -21 85 0
84 0 84 -30 c47 -16 101 -30 120 -30 19 0 55 -6 80 -14 78 -25 133 -37 195
-45 34 -5 70 -13 82 -19 14 -8 80 -12 183 -12 120 0 170 -4 197 -15 26 -11 74
-15 180 -15 105 0 153 -4 180 -15 l35 -15 463 0 463 0 35 15 c21 8 67 15 105
15 39 0 85 7 105 15 21 8 67 15 105 15 39 0 85 7 105 15 20 8 49 15 64 15 15
0 48 14 73 30 25 16 52 30 60 30 8 0 35 14 60 30 l45 30 54 0 54 0 51 -32 c28
-17 73 -49 99 -71 26 -21 63 -43 82 -48 21 -6 66 -39 110 -79 41 -39 83 -70
94 -70 11 0 39 -16 63 -35 24 -19 82 -55 130 -80 56 -29 113 -69 157 -111 43
-40 84 -69 106 -75 25 -7 70 -42 140 -107 57 -53 130 -116 162 -140 126 -92
164 -124 186 -157 l22 -35 80 2 80 3 3 77 3 77 -51 26 c-28 14 -67 41 -88 59
-20 18 -55 42 -77 54 -47 23 -91 65 -111 104 -8 16 -33 39 -55 53 -22 14 -45
38 -51 53 -6 15 -23 57 -39 93 l-29 66 0 162 0 162 -21 41 c-38 74 -101 158
-129 173 -15 8 -52 37 -82 64 -62 57 -148 91 -228 91 -28 0 -67 7 -87 15 -43
18 -184 20 -201 3 -33 -33 11 -98 67 -98 26 0 210 -59 266 -85 46 -21 144
-108 181 -161 l34 -48 0 -143 c0 -142 -8 -183 -34 -183 -7 0 -39 23 -70 50
-31 28 -64 50 -72 50 -32 0 -103 41 -162 94 -35 31 -72 56 -83 56 -12 0 -42
22 -68 49 -26 27 -73 65 -104 85 -75 48 -121 90 -147 132 l-22 34 31 89 c39
111 39 137 2 188 -16 23 -41 64 -55 92 -15 28 -38 58 -54 68 -15 9 -47 33 -72
52 -24 20 -69 51 -98 68 l-54 33 -192 0 -191 -1 -27 -43z m409 -145 c56 -41
88 -85 113 -158 16 -48 19 -67 10 -83 -20 -38 -97 -18 -156 42 -23 24 -62 62
-87 84 -25 23 -53 59 -62 79 -22 54 -9 65 75 65 l67 0 40 -29z"/>
</g>
</svg>
