<?xml version="1.0" standalone="no"?>
<!DOCTYPE svg PUBLIC "-//W3C//DTD SVG 20010904//EN"
 "http://www.w3.org/TR/2001/REC-SVG-20010904/DTD/svg10.dtd">
<svg version="1.0" xmlns="http://www.w3.org/2000/svg"
 width="309.000000pt" height="441.000000pt" viewBox="0 0 309.000000 441.000000"
 preserveAspectRatio="xMidYMid meet">
<metadata>
Created by potrace 1.16, written by Peter Selinger 2001-2019
</metadata>
<g transform="translate(0.000000,441.000000) scale(0.100000,-0.100000)"
fill="#000000" stroke="none">
<path d="M230 4391 c-14 -11 -43 -24 -65 -30 -22 -6 -67 -32 -100 -59 l-60
-48 -3 -119 -3 -118 24 -26 c12 -14 34 -46 47 -71 51 -96 144 -221 189 -254
25 -19 75 -65 111 -101 36 -37 82 -78 103 -91 20 -13 61 -46 91 -72 30 -26 81
-66 114 -90 68 -48 92 -89 92 -155 0 -32 7 -54 28 -83 16 -21 49 -79 75 -129
26 -49 67 -113 92 -142 25 -28 45 -58 45 -67 0 -9 32 -50 70 -92 39 -41 77
-89 85 -105 9 -16 33 -40 55 -54 22 -14 51 -42 64 -63 29 -45 357 -368 408
-402 20 -14 49 -44 65 -69 15 -24 46 -55 68 -69 33 -20 157 -138 508 -480 56
-54 155 -170 180 -208 13 -22 44 -52 68 -67 25 -16 55 -45 69 -65 13 -20 44
-59 67 -86 24 -26 43 -54 43 -60 0 -7 -12 -22 -26 -35 l-25 -22 11 -15 c7 -8
25 -14 41 -14 19 0 34 -9 48 -29 39 -54 91 -175 91 -211 0 -40 -37 -156 -74
-227 -23 -46 -81 -113 -98 -113 -4 0 -36 -25 -70 -56 -61 -55 -126 -93 -159
-94 -25 0 -49 -34 -49 -68 l0 -32 44 0 c25 0 48 5 51 10 3 6 12 10 20 10 7 0
43 14 78 30 36 17 72 30 79 30 21 0 122 75 142 105 9 14 34 36 56 50 l40 25
57 118 c31 64 60 125 64 134 17 35 10 127 -11 156 -11 15 -24 50 -28 78 -5 27
-20 67 -35 89 -16 23 -27 53 -27 72 l0 33 -75 81 c-41 45 -75 86 -75 92 0 5
-101 112 -225 237 -124 126 -225 233 -225 239 0 6 -25 29 -55 52 -30 22 -70
64 -89 92 -35 54 -147 167 -165 167 -5 0 -61 47 -123 105 -62 58 -142 131
-177 162 -35 32 -80 76 -100 97 -20 22 -54 56 -75 75 -65 59 -262 279 -294
329 -9 15 -36 51 -59 79 -23 29 -49 75 -57 102 -8 27 -26 67 -40 88 -24 36
-27 73 -6 73 4 0 34 -16 66 -35 32 -19 73 -39 91 -44 18 -5 45 -18 61 -30 52
-37 231 -121 257 -121 14 0 42 -7 62 -15 57 -24 246 -20 327 6 36 12 72 29 80
38 25 28 56 138 56 198 l0 58 -30 45 c-18 27 -30 58 -30 77 l0 32 -54 41 c-30
22 -66 59 -82 81 -15 22 -41 50 -58 62 -17 12 -61 50 -98 84 -37 35 -76 63
-86 63 -10 0 -38 15 -62 33 -113 85 -167 117 -193 117 -15 0 -58 18 -95 40
-37 23 -78 43 -92 47 -14 3 -46 18 -71 34 -36 23 -57 29 -103 29 -31 0 -73 7
-93 15 -23 10 -69 15 -130 15 l-95 0 -29 -29 c-51 -51 -33 -130 52 -231 51
-61 58 -94 28 -126 -31 -33 -46 -31 -103 16 -26 22 -55 40 -62 40 -8 0 -47 33
-87 73 -40 39 -85 80 -100 90 -15 10 -38 40 -51 66 -14 26 -42 61 -63 76 -21
16 -43 36 -50 45 -14 19 -83 220 -83 244 0 46 62 106 112 106 30 1 122 33 142
49 19 16 20 34 4 78 l-12 33 -106 0 -105 -1 -25 -18z m980 -741 c25 -15 56
-30 70 -33 14 -4 47 -24 74 -47 34 -28 57 -40 81 -40 20 0 46 -11 71 -30 21
-16 71 -51 109 -77 130 -89 175 -125 175 -143 0 -10 19 -33 43 -52 52 -41 65
-56 73 -88 4 -14 19 -46 35 -71 33 -52 36 -79 13 -119 -34 -57 -107 -76 -181
-45 -19 8 -45 15 -57 15 -44 0 -170 49 -221 87 -16 12 -76 45 -133 73 -137 69
-282 167 -282 192 0 4 15 14 33 21 40 17 97 80 97 108 0 39 -49 117 -92 146
-39 26 -86 95 -87 129 -1 8 20 10 67 7 50 -4 79 -12 112 -33z"/>
</g>
</svg>
