<?xml version="1.0" standalone="no"?>
<!DOCTYPE svg PUBLIC "-//W3C//DTD SVG 20010904//EN"
 "http://www.w3.org/TR/2001/REC-SVG-20010904/DTD/svg10.dtd">
<svg version="1.0" xmlns="http://www.w3.org/2000/svg"
 width="192.000000pt" height="216.000000pt" viewBox="0 0 192.000000 216.000000"
 preserveAspectRatio="xMidYMid meet">
<metadata>
Created by potrace 1.16, written by Peter Selinger 2001-2019
</metadata>
<g transform="translate(0.000000,216.000000) scale(0.100000,-0.100000)"
fill="#000000" stroke="none">
<path d="M273 2140 c-7 -10 -30 -24 -52 -30 -30 -8 -60 -33 -130 -105 l-91
-96 0 -135 c0 -74 4 -142 9 -152 5 -9 19 -40 31 -69 13 -29 29 -54 36 -57 7
-3 36 -36 63 -74 28 -38 69 -81 91 -97 22 -15 56 -50 76 -76 21 -29 56 -59 87
-76 31 -17 63 -45 82 -73 18 -25 44 -49 61 -55 50 -17 54 -23 54 -81 0 -117
45 -198 207 -374 45 -49 89 -103 98 -120 9 -16 34 -42 57 -56 23 -15 62 -45
87 -68 25 -23 59 -50 76 -61 16 -10 60 -47 97 -82 53 -49 74 -63 98 -63 20 0
60 -17 106 -45 40 -25 78 -45 83 -45 5 0 18 -11 29 -25 l20 -25 120 0 121 0 7
35 c7 38 -7 65 -35 65 -9 0 -36 14 -61 30 -33 22 -57 30 -89 30 -48 0 -106 31
-191 100 -25 21 -68 49 -95 63 -49 24 -151 105 -210 167 -16 17 -58 60 -93 96
-92 95 -134 205 -65 169 15 -8 41 -15 56 -15 31 0 180 -85 217 -125 18 -20 33
-25 69 -25 33 0 57 -7 82 -24 59 -40 240 -96 310 -96 l61 0 70 67 c42 41 72
79 75 96 3 15 10 30 14 33 12 7 11 101 -1 109 -5 3 -10 14 -10 24 0 10 -13 36
-29 58 -16 22 -39 60 -51 84 -13 24 -42 65 -65 90 -23 25 -54 64 -68 86 -15
24 -48 53 -79 72 -29 17 -79 53 -110 79 -31 26 -92 65 -135 86 -43 21 -98 55
-123 76 -57 47 -121 80 -156 80 -31 0 -85 24 -138 62 -21 15 -45 28 -53 28 -8
0 -44 14 -80 30 -81 38 -162 41 -226 9 -57 -29 -77 -48 -77 -75 0 -32 114
-197 158 -229 43 -32 91 -85 92 -101 0 -13 -34 -38 -67 -48 -45 -14 -112 31
-244 163 l-127 126 -45 90 c-25 50 -55 104 -66 120 -26 38 -26 51 2 138 l22
72 50 48 c28 26 74 64 102 83 59 39 73 59 73 103 l0 31 -88 0 -87 0 -12 -20z
m715 -755 c50 -25 96 -45 102 -45 23 0 86 -34 130 -70 25 -21 64 -47 86 -58
72 -37 177 -112 237 -171 59 -57 157 -193 176 -244 21 -56 14 -104 -23 -144
l-33 -36 -64 17 c-35 10 -85 29 -111 42 -26 13 -53 24 -60 24 -7 0 -33 14 -58
30 -25 16 -51 30 -58 30 -13 0 -98 48 -202 113 -30 19 -67 37 -81 41 -33 7
-99 74 -99 99 0 15 5 17 23 11 38 -13 59 -6 93 27 60 58 49 86 -95 243 -132
145 -122 170 37 91z"/>
</g>
</svg>
