<?xml version="1.0" standalone="no"?>
<!DOCTYPE svg PUBLIC "-//W3C//DTD SVG 20010904//EN"
 "http://www.w3.org/TR/2001/REC-SVG-20010904/DTD/svg10.dtd">
<svg version="1.0" xmlns="http://www.w3.org/2000/svg"
 width="270.000000pt" height="306.000000pt" viewBox="0 0 270.000000 306.000000"
 preserveAspectRatio="xMidYMid meet">
<metadata>
Created by potrace 1.16, written by Peter Selinger 2001-2019
</metadata>
<g transform="translate(0.000000,306.000000) scale(0.100000,-0.100000)"
fill="#000000" stroke="none">
<path d="M1922 3022 c-51 -47 -53 -73 -13 -129 16 -22 39 -60 51 -84 13 -24
36 -61 53 -82 35 -45 27 -66 -20 -49 -126 47 -173 62 -202 62 -19 0 -115 27
-213 60 -98 33 -194 60 -213 60 -20 0 -52 7 -72 15 -23 10 -69 15 -135 15 -65
0 -111 5 -135 15 -28 12 -81 15 -243 15 -162 0 -215 -3 -243 -15 -23 -9 -68
-15 -122 -15 l-85 0 -71 -36 c-66 -33 -149 -91 -212 -148 -20 -18 -27 -34 -27
-60 0 -19 -4 -38 -10 -41 -5 -3 -10 -21 -10 -40 0 -19 5 -37 10 -40 6 -3 10
-20 10 -36 0 -39 31 -98 85 -165 25 -31 51 -76 59 -105 9 -29 26 -66 39 -83
13 -17 34 -51 47 -76 31 -61 75 -124 134 -190 48 -54 85 -119 86 -151 0 -9 18
-39 41 -65 22 -27 52 -71 66 -99 14 -27 55 -81 90 -119 71 -74 102 -132 103
-184 l0 -34 60 -63 c34 -34 80 -75 103 -89 23 -15 53 -44 67 -64 13 -20 40
-55 61 -77 20 -22 50 -58 66 -81 69 -99 101 -140 140 -178 83 -80 104 -102
167 -172 35 -39 75 -88 89 -110 13 -22 45 -52 69 -68 25 -16 58 -49 74 -73 15
-25 49 -59 75 -76 26 -17 59 -50 74 -74 15 -23 43 -54 61 -68 l33 -25 73 0 74
0 12 33 c7 18 12 79 12 136 l0 102 -21 42 c-12 23 -31 56 -44 72 -12 17 -32
50 -44 73 -35 68 -96 144 -221 274 -117 121 -208 194 -265 209 -17 5 -50 25
-72 44 -23 19 -93 61 -155 92 -90 45 -126 70 -179 122 -36 36 -78 90 -93 119
-15 30 -46 78 -69 107 -99 127 -113 146 -125 181 -7 20 -35 61 -63 92 -52 57
-119 176 -119 213 l0 21 49 -7 50 -7 55 41 56 42 0 45 c0 41 -27 141 -52 189
-6 11 -30 40 -54 65 -25 25 -95 98 -156 163 -87 91 -121 120 -150 128 -40 10
-108 70 -108 94 0 18 31 35 63 35 14 0 41 7 60 15 20 8 54 15 75 15 22 0 56 7
75 15 28 12 81 15 237 15 156 0 209 -3 237 -15 20 -8 66 -15 105 -15 38 0 84
-7 105 -15 19 -8 65 -15 102 -15 50 0 94 -10 183 -40 65 -21 130 -46 146 -54
52 -27 151 -56 190 -56 43 0 191 -67 262 -119 27 -19 55 -31 75 -31 33 0 91
-36 130 -80 11 -12 45 -35 77 -51 31 -15 90 -60 132 -99 l76 -70 35 0 35 0 0
83 -1 82 -79 73 c-48 44 -94 78 -115 83 -19 6 -43 22 -52 36 -10 15 -38 45
-62 69 -86 83 -103 100 -171 177 -39 43 -73 92 -79 112 -5 19 -19 48 -31 65
l-22 31 12 14 c7 8 18 15 26 15 16 0 81 56 95 81 l10 19 -134 0 -134 0 -41
-38z m-1568 -586 c59 -28 87 -53 120 -104 13 -21 44 -50 68 -66 52 -32 78 -71
78 -115 0 -36 -3 -36 -78 -15 l-57 17 -68 68 c-50 50 -76 86 -102 144 -31 68
-36 95 -18 95 3 0 29 -11 57 -24z m1308 -1820 c77 -76 124 -130 137 -160 24
-51 27 -86 8 -86 -16 0 -94 76 -122 120 -24 38 -80 109 -118 150 -24 25 -57
75 -57 85 0 3 8 5 18 5 9 0 70 -52 134 -114z"/>
</g>
</svg>
