<?xml version="1.0" standalone="no"?>
<!DOCTYPE svg PUBLIC "-//W3C//DTD SVG 20010904//EN"
 "http://www.w3.org/TR/2001/REC-SVG-20010904/DTD/svg10.dtd">
<svg version="1.0" xmlns="http://www.w3.org/2000/svg"
 width="345.000000pt" height="183.000000pt" viewBox="0 0 345.000000 183.000000"
 preserveAspectRatio="xMidYMid meet">
<metadata>
Created by potrace 1.16, written by Peter Selinger 2001-2019
</metadata>
<g transform="translate(0.000000,183.000000) scale(0.100000,-0.100000)"
fill="#000000" stroke="none">
<path d="M815 1820 c-4 -6 -56 -10 -124 -10 -83 0 -129 -5 -154 -15 -20 -8
-54 -15 -75 -15 -22 0 -56 -7 -75 -15 -20 -8 -48 -15 -62 -15 -14 0 -49 -11
-77 -25 -29 -14 -69 -30 -90 -35 -26 -7 -55 -30 -97 -77 l-61 -66 0 -117 c0
-133 10 -163 72 -221 21 -20 38 -45 38 -58 0 -25 111 -140 176 -184 23 -16 73
-58 110 -95 51 -49 89 -76 144 -101 41 -18 89 -40 106 -48 16 -8 75 -58 130
-112 54 -53 119 -109 144 -123 25 -14 54 -36 65 -48 11 -12 42 -33 69 -47 27
-14 92 -67 145 -118 87 -84 160 -135 192 -135 7 0 68 -27 136 -60 94 -46 133
-60 167 -60 25 0 48 -4 51 -10 3 -5 35 -10 70 -10 l63 0 26 31 c31 37 35 88 8
112 -13 12 -37 17 -76 17 -31 0 -73 7 -93 15 -19 8 -47 15 -60 15 -29 0 -85
25 -128 56 -38 28 -170 94 -188 94 -7 0 -36 29 -65 65 l-52 65 126 0 125 0 47
24 c26 13 69 47 95 75 l47 50 0 144 0 143 -30 29 c-16 16 -30 35 -30 42 0 29
-34 77 -108 155 -158 166 -298 303 -342 334 -55 38 -124 74 -142 74 -7 0 -32
20 -56 44 l-43 44 16 6 c9 3 74 6 143 6 l127 0 45 -30 c32 -22 57 -30 88 -30
23 0 59 -7 79 -15 19 -8 53 -15 75 -15 21 0 55 -7 75 -15 19 -8 53 -15 75 -15
21 0 55 -7 75 -15 19 -8 51 -15 71 -15 19 0 116 -27 216 -59 191 -62 242 -77
316 -91 26 -4 60 -16 76 -27 17 -10 55 -33 85 -51 30 -18 65 -35 79 -38 56
-13 210 -96 230 -124 50 -70 298 -210 373 -210 13 0 34 -12 48 -26 28 -30 90
-64 117 -64 10 0 37 14 60 31 l42 31 0 69 0 69 -49 24 c-26 14 -99 42 -162 62
-73 24 -125 47 -144 64 -31 29 -86 60 -105 60 -14 0 -91 36 -110 52 -9 7 -29
30 -45 51 -15 21 -50 49 -76 63 -26 13 -56 36 -66 51 -10 14 -39 48 -66 75
-43 43 -67 82 -67 109 0 5 11 21 25 34 l24 25 64 0 c67 0 80 7 106 58 9 17 9
32 0 62 l-12 40 -146 0 -146 0 -50 -44 c-30 -26 -60 -65 -75 -95 l-24 -52 17
-45 c19 -53 13 -78 -17 -69 -11 3 -44 10 -73 15 -29 5 -61 14 -72 19 -11 6
-30 11 -42 11 -13 0 -83 20 -156 45 -73 25 -148 45 -168 45 -20 0 -52 7 -72
15 -19 8 -60 15 -90 15 -29 0 -70 7 -90 15 -19 8 -53 15 -75 15 -21 0 -55 7
-75 15 -19 8 -53 15 -75 15 -31 0 -49 7 -75 30 l-34 30 -149 0 c-88 0 -151 4
-155 10 -3 6 -28 10 -55 10 -27 0 -52 -4 -55 -10z m-410 -272 c4 -13 22 -39
40 -58 17 -19 47 -57 66 -85 18 -27 88 -106 155 -175 67 -69 124 -135 128
-148 15 -46 -75 -142 -134 -142 -31 0 -56 16 -140 92 -219 196 -270 270 -270
394 0 86 14 108 80 128 63 19 68 19 75 -6z m463 -97 c37 -22 87 -52 111 -68
24 -15 62 -35 85 -43 27 -10 50 -29 68 -56 15 -22 47 -53 71 -68 25 -16 57
-49 73 -73 16 -25 49 -64 75 -87 26 -22 67 -75 91 -116 l45 -75 7 -83 7 -82
-30 -30 -29 -30 -72 0 c-55 0 -84 6 -127 26 -31 14 -89 36 -130 49 -40 13 -90
36 -110 50 -21 14 -45 25 -55 25 -9 0 -22 9 -28 20 -15 28 10 79 59 118 20 16
45 48 56 71 l18 41 -13 58 -14 57 -44 41 c-24 23 -58 56 -76 73 -165 168 -176
182 -155 207 18 22 45 17 117 -25z"/>
</g>
</svg>
