<?xml version="1.0" standalone="no"?>
<!DOCTYPE svg PUBLIC "-//W3C//DTD SVG 20010904//EN"
 "http://www.w3.org/TR/2001/REC-SVG-20010904/DTD/svg10.dtd">
<svg version="1.0" xmlns="http://www.w3.org/2000/svg"
 width="681.000000pt" height="114.000000pt" viewBox="0 0 681.000000 114.000000"
 preserveAspectRatio="xMidYMid meet">
<metadata>
Created by potrace 1.16, written by Peter Selinger 2001-2019
</metadata>
<g transform="translate(0.000000,114.000000) scale(0.100000,-0.100000)"
fill="#000000" stroke="none">
<path d="M5882 1102 c-32 -30 -42 -46 -42 -70 0 -17 -5 -43 -10 -57 -13 -34 4
-92 59 -207 23 -46 41 -87 41 -91 0 -3 -19 0 -41 8 -23 8 -53 15 -68 15 -14 0
-43 11 -62 25 -53 35 -293 110 -399 124 -30 4 -71 12 -90 18 -67 21 -125 35
-185 42 -34 5 -70 13 -82 19 -15 8 -100 12 -263 12 l-240 0 -73 -36 c-123 -62
-160 -95 -243 -220 -42 -64 -88 -123 -103 -132 -14 -9 -49 -37 -77 -62 -56
-50 -152 -90 -216 -90 -20 0 -52 -7 -71 -15 -20 -8 -54 -15 -75 -15 -22 0 -56
-7 -75 -15 -20 -8 -54 -15 -75 -15 -22 0 -56 -7 -75 -15 l-36 -15 -381 0 -381
0 -36 15 c-25 11 -72 15 -165 15 -92 0 -139 4 -165 15 -22 9 -67 15 -120 15
-52 0 -97 6 -120 15 -25 11 -72 15 -165 15 -92 0 -139 4 -165 15 -19 8 -53 15
-75 15 -21 0 -55 7 -75 15 -19 8 -53 15 -75 15 -24 0 -56 10 -82 25 l-44 25
-27 -10 c-21 -8 -40 -7 -74 4 -88 27 -136 38 -211 45 -41 4 -85 13 -97 19 -12
7 -34 12 -49 12 -14 0 -42 10 -61 21 -19 12 -49 25 -66 29 -50 13 -99 31 -139
51 -23 12 -58 19 -95 19 -44 1 -68 7 -98 25 -22 14 -53 25 -70 25 -16 0 -50
14 -74 30 -24 17 -53 30 -65 30 -12 0 -34 9 -51 20 -16 11 -43 20 -58 20 -15
0 -43 7 -62 14 l-35 15 0 -58 0 -57 39 -22 c21 -12 47 -22 57 -22 11 0 33 -9
49 -20 17 -11 41 -20 55 -20 36 0 136 -37 179 -66 19 -13 49 -24 66 -24 17 0
50 -13 75 -30 l45 -30 59 0 c42 0 68 -6 93 -21 19 -12 49 -25 66 -29 45 -11
97 -30 130 -46 16 -8 45 -14 66 -14 20 0 48 -8 61 -18 17 -11 55 -19 115 -24
138 -11 197 -22 227 -42 21 -13 37 -16 68 -11 32 5 47 2 76 -15 l35 -22 57 6
57 6 30 -20 c21 -14 47 -20 88 -20 32 0 74 -7 94 -15 27 -12 81 -15 240 -15
158 0 212 -3 240 -15 27 -12 81 -15 239 -15 162 0 212 -3 243 -16 l39 -15 164
5 c89 3 183 8 208 11 25 3 101 9 170 13 69 4 138 13 153 20 16 7 73 12 127 12
l98 0 64 30 c34 16 69 30 76 30 7 0 70 29 140 64 l127 64 52 66 c29 37 65 90
79 118 33 64 120 153 176 178 24 11 62 20 84 20 23 0 59 7 79 16 l38 16 41
-16 c26 -10 73 -16 124 -16 51 0 96 -6 119 -15 19 -8 52 -15 72 -15 20 0 56
-6 81 -14 60 -19 125 -35 182 -46 26 -5 56 -13 67 -19 11 -6 39 -11 62 -11 52
0 151 -41 294 -121 34 -20 64 -29 95 -29 29 0 56 -8 75 -21 17 -11 96 -53 176
-94 93 -47 165 -91 200 -122 30 -27 68 -57 84 -68 17 -10 57 -44 90 -76 33
-31 83 -69 111 -83 29 -15 60 -36 69 -46 26 -28 83 -26 118 5 21 18 27 33 27
63 l0 39 -42 45 c-41 43 -93 78 -118 78 -32 0 -428 380 -485 465 -18 28 -48
64 -65 80 -106 98 -120 185 -32 185 27 0 44 9 78 44 l44 43 0 37 0 36 -133 0
-134 0 -41 -38z"/>
</g>
</svg>
