<?xml version="1.0" standalone="no"?>
<!DOCTYPE svg PUBLIC "-//W3C//DTD SVG 20010904//EN"
 "http://www.w3.org/TR/2001/REC-SVG-20010904/DTD/svg10.dtd">
<svg version="1.0" xmlns="http://www.w3.org/2000/svg"
 width="447.000000pt" height="138.000000pt" viewBox="0 0 447.000000 138.000000"
 preserveAspectRatio="xMidYMid meet">
<metadata>
Created by potrace 1.16, written by Peter Selinger 2001-2019
</metadata>
<g transform="translate(0.000000,138.000000) scale(0.100000,-0.100000)"
fill="#000000" stroke="none">
<path d="M0 1348 l0 -33 50 -43 c28 -24 66 -48 85 -53 19 -5 58 -31 87 -58 52
-48 124 -91 151 -91 8 0 33 -15 57 -32 97 -73 166 -118 181 -118 9 0 35 -15
59 -32 94 -71 166 -118 179 -118 18 0 103 -53 161 -100 25 -21 64 -47 86 -58
23 -12 79 -47 124 -78 46 -31 98 -61 116 -66 19 -5 67 -39 108 -76 113 -101
237 -192 322 -235 27 -14 77 -50 112 -81 34 -31 71 -56 82 -56 10 0 22 -4 25
-10 7 -12 178 -13 203 -2 9 5 40 20 67 33 l50 24 -2 30 c-4 75 -21 163 -36
192 -9 17 -31 42 -49 54 -18 13 -63 52 -100 86 l-67 63 -48 0 c-35 0 -59 7
-85 25 -20 14 -72 36 -115 50 -94 30 -143 55 -143 72 0 19 55 43 100 43 23 0
51 6 63 13 19 10 235 25 397 27 72 1 226 -16 247 -28 12 -7 54 -12 93 -12 40
0 86 -6 107 -15 20 -8 66 -15 105 -15 38 0 84 -7 105 -15 23 -10 69 -15 132
-15 55 0 115 -6 141 -14 60 -19 125 -35 181 -46 26 -5 69 -20 97 -34 28 -14
63 -26 77 -26 14 0 42 -7 62 -15 20 -9 66 -15 107 -15 l71 0 93 -45 c52 -25
99 -45 105 -45 7 0 32 -14 57 -30 25 -17 58 -30 75 -30 20 0 59 -19 113 -55
148 -98 190 -112 252 -80 l30 16 0 67 0 68 -72 24 c-81 26 -99 35 -144 67 -17
12 -67 40 -111 62 -44 22 -106 63 -137 91 -31 29 -72 56 -93 62 -46 13 -198
160 -209 202 -8 35 10 76 34 76 33 0 72 38 72 70 0 55 -84 90 -143 58 -12 -6
-49 -14 -82 -17 l-59 -6 -23 -34 c-13 -19 -26 -45 -30 -59 -9 -38 26 -101 105
-186 40 -44 71 -84 69 -90 -2 -7 -41 -12 -96 -14 l-93 -3 -65 31 c-38 17 -82
30 -104 30 -22 0 -56 7 -76 15 -19 8 -52 15 -72 15 -20 0 -56 6 -81 14 -108
34 -145 39 -315 45 -115 4 -188 10 -202 19 -12 7 -56 12 -104 12 -45 0 -99 5
-120 12 -30 9 -48 8 -77 -1 l-38 -13 -38 16 c-51 21 -200 22 -249 1 -23 -9
-68 -15 -120 -15 -53 0 -98 -6 -120 -15 -20 -8 -55 -15 -77 -15 -57 0 -131
-40 -182 -100 -30 -35 -50 -50 -68 -50 -14 0 -63 25 -109 55 -45 31 -103 66
-129 79 -26 14 -74 47 -107 75 -33 28 -91 67 -130 87 -38 20 -83 47 -100 59
-16 13 -76 46 -133 75 -57 28 -140 77 -184 107 -45 30 -95 59 -112 64 -17 5
-49 23 -70 41 -22 18 -64 47 -94 65 l-54 33 -64 0 -64 0 0 -32z m1707 -893
c19 -8 46 -15 60 -15 13 0 52 -16 86 -36 34 -20 87 -50 117 -67 l55 -32 28
-58 c16 -33 25 -63 21 -67 -5 -5 -27 -5 -49 0 -22 6 -52 12 -67 15 -15 3 -61
35 -102 73 -78 70 -159 132 -174 132 -5 0 -19 11 -32 26 l-24 25 14 9 c20 13
25 12 67 -5z"/>
</g>
</svg>
