<?xml version="1.0" standalone="no"?>
<!DOCTYPE svg PUBLIC "-//W3C//DTD SVG 20010904//EN"
 "http://www.w3.org/TR/2001/REC-SVG-20010904/DTD/svg10.dtd">
<svg version="1.0" xmlns="http://www.w3.org/2000/svg"
 width="546.000000pt" height="198.000000pt" viewBox="0 0 546.000000 198.000000"
 preserveAspectRatio="xMidYMid meet">
<metadata>
Created by potrace 1.16, written by Peter Selinger 2001-2019
</metadata>
<g transform="translate(0.000000,198.000000) scale(0.100000,-0.100000)"
fill="#000000" stroke="none">
<path d="M1 1928 l0 -53 42 -32 c23 -18 91 -58 150 -88 60 -31 127 -69 149
-85 23 -17 49 -30 58 -30 23 0 189 -82 240 -119 24 -17 50 -31 59 -31 33 -1
98 -39 159 -94 34 -31 70 -56 80 -56 23 0 135 -53 175 -84 44 -33 150 -85 209
-102 26 -8 75 -36 109 -64 34 -28 70 -50 78 -50 20 0 137 -59 211 -106 30 -19
74 -40 98 -46 24 -6 86 -39 138 -74 51 -35 115 -75 141 -89 50 -27 119 -69
213 -128 30 -19 67 -37 82 -41 15 -3 39 -22 54 -42 16 -21 55 -49 94 -69 37
-19 103 -58 146 -88 86 -59 145 -91 184 -100 14 -4 43 -22 65 -40 39 -34 174
-107 196 -107 16 0 124 -68 145 -91 13 -14 31 -19 71 -19 l53 0 10 26 c14 35
-19 97 -69 129 -22 13 -54 37 -73 53 -34 30 -109 72 -128 72 -17 0 -160 88
-195 119 -16 15 -49 33 -72 40 -23 6 -70 34 -104 61 -34 28 -69 50 -78 50 -9
0 -33 11 -53 25 -21 14 -54 31 -74 38 -26 8 -48 27 -69 57 -24 35 -42 48 -80
61 -27 8 -68 32 -91 52 -23 20 -48 37 -54 37 -6 0 -41 18 -78 40 -36 22 -80
44 -97 49 -17 5 -72 35 -122 68 -50 33 -106 65 -124 72 -19 7 -50 21 -69 32
-88 49 -251 129 -263 129 -7 0 -50 25 -95 55 -98 65 -145 90 -190 100 -17 3
-54 22 -80 40 -57 39 -176 99 -213 108 -14 4 -54 31 -88 62 -34 30 -70 55 -80
55 -21 0 -192 86 -271 136 -30 19 -73 39 -94 45 -47 13 -311 144 -321 159 -3
5 -24 10 -46 10 l-39 0 1 -52z"/>
<path d="M2965 1795 c-16 -8 -62 -14 -102 -15 l-71 0 -64 -30 c-34 -16 -70
-30 -78 -30 -16 0 -120 -68 -158 -103 -33 -30 -72 -110 -72 -145 0 -16 7 -46
15 -65 8 -20 15 -52 15 -72 0 -53 36 -149 80 -213 46 -68 282 -299 369 -362
35 -25 86 -64 116 -87 66 -51 96 -67 177 -92 130 -39 155 -44 244 -48 l91 -4
64 21 c78 26 81 29 117 93 17 29 42 63 56 76 16 15 26 35 26 53 0 75 -106 306
-175 379 -23 25 -54 63 -68 85 -34 53 -184 197 -227 219 -60 30 -164 102 -194
134 -50 52 -35 55 215 53 167 -2 230 -6 257 -17 22 -10 69 -15 134 -15 65 0
111 -5 135 -15 19 -8 45 -15 57 -15 33 0 134 -38 175 -66 24 -16 50 -24 79
-24 23 0 59 -7 79 -15 19 -8 47 -15 61 -15 14 0 55 -13 91 -29 83 -36 165 -69
214 -87 21 -8 100 -55 175 -104 127 -82 161 -106 244 -168 17 -12 49 -27 72
-33 40 -11 121 -51 181 -89 l31 -19 39 11 c22 6 52 23 68 37 l27 25 0 45 -1
46 -42 26 c-23 15 -73 41 -112 59 -38 18 -86 41 -105 51 -91 50 -251 129 -259
129 -13 0 -188 176 -223 224 -34 48 -34 54 -3 100 32 48 32 79 -1 105 l-27 21
-83 0 -84 0 -40 -36 c-46 -42 -49 -61 -20 -129 11 -26 20 -50 20 -55 0 -22
-39 -18 -98 10 -37 17 -81 30 -103 30 -22 0 -56 7 -76 15 -19 8 -45 15 -57 15
-12 0 -60 13 -106 30 -47 16 -102 30 -123 30 -21 0 -54 7 -74 15 -19 8 -53 15
-75 15 -21 0 -55 7 -75 15 -24 10 -71 15 -150 15 -78 0 -125 5 -150 15 -49 20
-383 20 -428 0z m38 -332 c29 -9 69 -35 100 -63 29 -26 72 -57 97 -70 98 -50
205 -155 292 -285 47 -71 108 -192 108 -214 0 -20 -50 -100 -73 -116 -57 -40
-269 15 -403 105 -40 27 -85 55 -101 64 -38 19 -223 203 -223 221 0 8 -25 42
-56 77 -83 93 -113 170 -78 199 l16 13 25 -29 c85 -103 143 -160 185 -181 56
-28 75 -30 100 -7 35 31 23 80 -42 178 -33 49 -60 93 -60 97 0 15 34 39 48 33
9 -3 38 -13 65 -22z"/>
</g>
</svg>
