<?xml version="1.0" standalone="no"?>
<!DOCTYPE svg PUBLIC "-//W3C//DTD SVG 20010904//EN"
 "http://www.w3.org/TR/2001/REC-SVG-20010904/DTD/svg10.dtd">
<svg version="1.0" xmlns="http://www.w3.org/2000/svg"
 width="717.000000pt" height="243.000000pt" viewBox="0 0 717.000000 243.000000"
 preserveAspectRatio="xMidYMid meet">
<metadata>
Created by potrace 1.16, written by Peter Selinger 2001-2019
</metadata>
<g transform="translate(0.000000,243.000000) scale(0.100000,-0.100000)"
fill="#000000" stroke="none">
<path d="M23 2416 l-23 -11 0 -87 c0 -48 5 -90 10 -93 6 -4 20 -25 32 -48 29
-59 128 -153 233 -222 110 -74 151 -114 160 -157 11 -50 35 -93 145 -257 l100
-149 53 -31 c28 -17 78 -53 109 -80 l58 -48 157 -52 c87 -28 163 -51 169 -51
18 0 44 35 44 59 0 26 -51 81 -75 81 -9 0 -46 18 -83 40 -37 23 -78 43 -92 47
-129 30 -303 209 -360 369 -12 37 -20 83 -20 126 0 37 -5 78 -11 91 -13 28
-48 47 -85 47 -14 0 -44 9 -68 19 -49 23 -182 139 -208 182 l-18 30 14 5 c16
6 113 -40 196 -92 30 -19 71 -39 91 -44 38 -10 56 -27 78 -72 8 -15 33 -36 56
-47 24 -11 64 -38 90 -61 26 -22 98 -74 160 -115 62 -42 132 -92 156 -113 24
-22 56 -42 71 -46 15 -3 39 -22 54 -42 28 -36 76 -66 126 -78 15 -3 39 -22 54
-42 15 -19 46 -45 68 -56 23 -12 55 -32 73 -45 17 -13 47 -29 67 -34 22 -6 46
-24 62 -45 26 -33 89 -74 114 -74 27 0 149 -65 199 -106 29 -24 60 -44 68 -44
34 0 162 -70 214 -118 54 -49 146 -92 200 -92 26 0 84 -26 124 -56 17 -12 82
-39 145 -60 74 -24 126 -47 145 -64 17 -15 45 -35 64 -45 19 -9 52 -30 74 -46
22 -16 53 -29 69 -29 16 0 59 -18 96 -40 36 -22 82 -45 102 -50 19 -5 59 -21
88 -35 28 -14 57 -25 63 -25 6 0 40 -13 76 -30 35 -16 70 -30 76 -30 7 0 41
-14 75 -30 35 -17 73 -30 84 -30 12 0 102 -27 202 -59 216 -70 252 -80 331
-90 34 -5 70 -13 82 -19 12 -7 66 -12 123 -12 67 0 113 -5 137 -15 20 -8 66
-15 105 -15 38 0 84 -7 105 -15 24 -10 71 -15 150 -15 78 0 125 -5 150 -15 27
-11 78 -15 214 -15 108 0 180 -4 184 -10 8 -14 402 -14 410 0 3 5 26 10 49 10
24 0 60 7 79 15 20 8 61 15 90 15 30 0 71 7 90 15 20 8 54 15 75 15 22 0 56 7
75 15 20 8 54 15 75 15 22 0 56 7 75 15 20 8 49 15 64 15 15 0 48 14 73 30 25
16 51 30 59 30 8 0 35 13 60 29 25 16 57 31 71 34 14 4 55 24 92 47 37 22 74
40 82 40 8 0 29 19 48 43 18 23 43 50 55 60 l23 18 0 127 0 127 -33 15 c-20
10 -40 31 -54 60 l-23 44 0 106 0 106 -61 77 -61 77 -28 0 c-16 0 -41 5 -57
12 -15 6 -62 15 -103 19 -41 5 -90 11 -108 15 -59 12 -99 -59 -55 -98 31 -27
101 -58 131 -58 29 0 118 -56 134 -85 10 -18 -14 -74 -43 -101 -42 -38 -12
-100 75 -153 l58 -36 19 -55 c26 -75 24 -89 -21 -152 l-40 -56 -142 -71 c-144
-71 -245 -111 -283 -111 -11 0 -58 -14 -105 -30 -46 -17 -94 -30 -106 -30 -12
0 -38 -7 -57 -15 -20 -8 -54 -15 -75 -15 -22 0 -56 -7 -75 -15 l-36 -15 -441
0 -441 0 -36 15 c-24 10 -71 15 -150 15 -78 0 -125 5 -150 15 -20 8 -66 15
-105 15 -38 0 -84 7 -105 15 -19 8 -60 15 -90 15 -29 0 -70 7 -90 15 -19 8
-53 15 -75 15 -21 0 -55 7 -75 15 -19 8 -60 15 -90 15 -29 0 -70 7 -90 15 -19
8 -47 15 -62 15 -14 0 -82 27 -149 60 -68 33 -134 60 -146 60 -27 0 -122 32
-194 66 -29 13 -59 24 -66 24 -8 0 -24 8 -36 18 l-23 19 24 16 c13 10 29 17
36 17 38 0 244 122 290 172 36 39 63 137 63 230 -1 109 -25 182 -75 222 -20
16 -49 55 -66 87 -21 42 -41 67 -71 85 -23 15 -62 46 -88 70 -45 42 -64 50
-220 95 -25 7 -116 14 -203 16 l-159 4 -46 -29 c-26 -16 -59 -32 -73 -35 -49
-12 -93 -50 -102 -89 -5 -21 -26 -57 -48 -82 l-39 -44 0 -120 c0 -84 5 -130
15 -155 17 -41 19 -66 6 -85 l-8 -14 -69 21 c-38 11 -89 35 -113 52 -27 20
-62 35 -93 40 -30 5 -63 19 -82 34 -83 68 -150 115 -165 115 -22 0 -154 72
-258 142 -31 20 -70 39 -88 42 -17 4 -56 27 -86 53 -30 25 -97 75 -150 109
-54 35 -116 80 -139 99 -23 19 -51 35 -63 35 -11 0 -38 19 -61 44 -50 53 -123
106 -147 106 -10 0 -27 14 -39 30 -12 17 -61 56 -108 87 -48 32 -107 76 -132
99 -25 23 -67 53 -95 68 -61 31 -72 40 -113 94 -19 23 -40 42 -49 42 -27 0
-87 32 -136 72 -26 22 -64 44 -85 50 -20 6 -49 19 -64 29 l-26 19 -119 -1
c-65 -1 -128 -6 -140 -13z m3272 -985 c35 -16 82 -43 106 -60 23 -17 50 -31
61 -31 11 0 32 -20 53 -52 19 -29 50 -70 67 -91 l33 -39 3 -115 c2 -63 1 -125
-2 -137 -9 -37 -56 -76 -132 -112 l-72 -34 -96 0 c-63 0 -109 5 -133 15 -19 8
-45 15 -56 15 -11 0 -50 10 -86 22 -77 26 -127 71 -170 155 -17 32 -39 72 -50
88 l-21 30 0 83 c0 102 13 133 83 197 69 63 152 93 265 94 l84 1 63 -29z"/>
</g>
</svg>
