<?xml version="1.0" standalone="no"?>
<!DOCTYPE svg PUBLIC "-//W3C//DTD SVG 20010904//EN"
 "http://www.w3.org/TR/2001/REC-SVG-20010904/DTD/svg10.dtd">
<svg version="1.0" xmlns="http://www.w3.org/2000/svg"
 width="765.000000pt" height="270.000000pt" viewBox="0 0 765.000000 270.000000"
 preserveAspectRatio="xMidYMid meet">
<metadata>
Created by potrace 1.16, written by Peter Selinger 2001-2019
</metadata>
<g transform="translate(0.000000,270.000000) scale(0.100000,-0.100000)"
fill="#000000" stroke="none">
<path d="M7 2693 c-4 -3 -7 -25 -7 -48 l0 -42 34 -24 c19 -13 69 -52 111 -87
42 -35 109 -79 148 -99 40 -19 93 -53 119 -74 26 -22 93 -63 150 -91 57 -28
117 -61 133 -74 17 -12 64 -39 105 -60 41 -20 89 -47 105 -60 17 -12 64 -39
105 -60 41 -20 89 -47 105 -60 17 -12 59 -37 94 -54 35 -18 80 -47 100 -65 20
-18 68 -49 106 -69 115 -61 206 -121 232 -155 14 -17 48 -43 76 -57 29 -15 73
-44 99 -65 25 -21 79 -55 120 -75 40 -21 87 -47 103 -59 17 -13 50 -33 75 -45
25 -12 65 -39 90 -59 25 -20 58 -45 73 -54 15 -10 52 -39 82 -65 54 -47 161
-130 216 -167 131 -88 226 -148 267 -169 27 -14 73 -47 103 -74 30 -27 73 -59
95 -70 50 -26 170 -106 204 -137 14 -13 49 -35 78 -50 29 -15 65 -43 79 -62
25 -33 88 -73 115 -73 7 0 32 -23 56 -50 24 -28 65 -62 92 -75 l49 -25 95 0
94 0 30 38 c16 20 46 65 66 99 20 34 41 65 47 68 5 4 31 0 57 -8 87 -28 136
-39 212 -47 81 -9 148 -30 190 -60 36 -25 142 -60 185 -60 20 0 52 -7 72 -15
24 -10 71 -15 150 -15 78 0 125 -5 150 -15 19 -8 53 -15 75 -15 21 0 55 -7 75
-15 19 -8 53 -15 75 -15 21 0 55 -7 75 -15 20 -8 66 -15 105 -15 38 0 84 -7
105 -15 l35 -15 269 0 c168 0 270 -4 274 -10 8 -13 312 -13 320 0 3 6 47 10
96 10 50 0 99 5 110 11 11 6 41 14 67 19 53 10 120 27 172 43 19 6 53 14 75
18 121 23 256 67 314 102 29 18 76 46 105 62 29 17 94 69 145 116 l91 87 0
129 0 129 -27 26 c-16 14 -40 28 -55 32 -15 3 -39 22 -53 41 -15 19 -47 46
-71 60 -24 14 -44 30 -44 35 0 5 11 35 25 66 16 35 25 75 25 105 l0 49 -82 84
c-46 46 -97 91 -113 99 -55 27 -154 57 -190 57 -20 0 -52 7 -72 15 -47 20 -65
19 -97 -6 -37 -29 -34 -64 7 -89 17 -11 43 -23 57 -26 14 -3 67 -26 118 -51
69 -34 99 -54 117 -81 14 -20 25 -42 25 -49 0 -14 -51 -43 -75 -43 -26 0 -75
-55 -75 -85 0 -16 11 -36 28 -51 64 -59 149 -118 220 -155 123 -62 142 -85
142 -172 l0 -58 -27 -25 c-141 -128 -263 -204 -327 -204 -14 0 -50 -12 -79
-26 -28 -14 -72 -29 -97 -34 -57 -11 -122 -28 -180 -46 -26 -8 -86 -14 -141
-14 -63 0 -109 -5 -132 -15 -51 -21 -333 -21 -384 0 l-35 15 -310 0 -309 0
-36 15 c-19 8 -65 15 -102 15 -49 0 -90 8 -151 30 -53 18 -105 30 -138 30 -29
0 -69 7 -89 15 -19 8 -60 15 -90 15 -29 0 -70 7 -90 15 -19 8 -61 15 -92 15
-43 0 -65 6 -92 25 -53 35 -292 110 -399 124 -73 10 -232 65 -278 96 -20 14
-49 25 -65 25 -39 0 -103 32 -161 79 -81 68 -144 55 -192 -41 l-26 -51 16 -34
c19 -41 5 -43 -23 -4 -12 17 -54 45 -103 69 -46 22 -132 73 -193 114 -129 87
-138 102 -111 182 l19 55 -17 40 c-9 23 -16 54 -16 69 0 27 -37 87 -115 189
-22 28 -48 63 -58 77 -9 14 -33 29 -52 35 -19 5 -47 18 -63 29 -52 38 -145 62
-236 62 l-85 0 -64 -30 c-36 -16 -76 -30 -89 -30 -24 0 -66 21 -159 78 -30 18
-66 35 -81 38 -14 4 -40 23 -56 43 -20 25 -62 52 -138 90 -60 29 -129 70 -154
91 -48 39 -120 80 -143 80 -7 0 -24 12 -38 26 -13 14 -42 35 -64 46 -22 11
-60 37 -85 58 -25 20 -60 45 -78 54 -18 9 -50 32 -70 49 -20 18 -64 41 -97 52
-33 10 -73 31 -90 46 -31 28 -205 119 -228 119 -7 0 -24 12 -38 26 -13 14 -41
35 -63 46 -21 11 -57 33 -79 49 -22 16 -47 29 -56 29 -17 0 -69 27 -145 73
-25 16 -74 39 -109 51 -66 23 -177 99 -177 122 0 10 -13 14 -43 14 -24 0 -47
-3 -50 -7z m2605 -1401 c57 -27 165 -121 183 -158 16 -35 12 -59 -12 -68 -25
-10 -154 57 -220 115 -35 30 -75 64 -90 75 l-27 22 13 16 c18 22 105 21 153
-2z m1068 -868 c60 -24 81 -75 21 -53 -28 11 -71 47 -71 61 0 11 4 10 50 -8z"/>
</g>
</svg>
