<?xml version="1.0" standalone="no"?>
<!DOCTYPE svg PUBLIC "-//W3C//DTD SVG 20010904//EN"
 "http://www.w3.org/TR/2001/REC-SVG-20010904/DTD/svg10.dtd">
<svg version="1.0" xmlns="http://www.w3.org/2000/svg"
 width="603.000000pt" height="138.000000pt" viewBox="0 0 603.000000 138.000000"
 preserveAspectRatio="xMidYMid meet">
<metadata>
Created by potrace 1.16, written by Peter Selinger 2001-2019
</metadata>
<g transform="translate(0.000000,138.000000) scale(0.100000,-0.100000)"
fill="#000000" stroke="none">
<path d="M5300 1359 c0 -33 53 -79 92 -79 20 0 51 -12 78 -30 25 -16 52 -30
60 -30 25 0 87 -47 110 -84 17 -28 19 -39 10 -56 -6 -11 -19 -20 -29 -20 -28
0 -51 -33 -51 -73 0 -43 31 -83 103 -132 96 -65 162 -135 176 -186 l13 -46
-26 -55 c-46 -98 -234 -227 -332 -228 -23 0 -58 -7 -77 -15 -20 -8 -54 -15
-75 -15 -22 0 -56 -7 -75 -15 -20 -8 -54 -15 -76 -15 -23 0 -66 -12 -103 -30
-34 -16 -75 -30 -89 -30 -15 0 -43 -7 -62 -15 -27 -11 -77 -15 -195 -15 -119
0 -169 -4 -195 -15 l-36 -15 -306 0 -306 0 -36 15 c-28 12 -84 15 -270 15
-185 0 -241 3 -270 15 -22 9 -67 15 -120 15 -52 0 -97 6 -120 15 -19 8 -53 15
-75 15 -21 0 -55 7 -75 15 -19 8 -59 15 -87 15 -28 0 -71 6 -96 14 -92 29
-137 38 -225 46 -102 9 -144 23 -230 75 -33 19 -71 38 -85 41 -14 2 -43 9 -65
15 -22 6 -58 14 -80 18 -22 4 -70 27 -107 49 -37 23 -72 42 -77 42 -6 0 -25
18 -43 41 -34 43 -93 79 -128 79 -11 0 -38 -16 -59 -35 -31 -28 -44 -52 -63
-111 -26 -87 -39 -99 -139 -132 l-65 -22 -153 0 c-112 0 -161 4 -188 15 -19 8
-53 15 -75 15 -21 0 -55 7 -75 15 -19 8 -54 15 -77 15 -32 0 -79 18 -195 75
-84 41 -165 75 -179 75 -31 0 -196 77 -245 114 -57 42 -114 66 -162 66 l-45 0
0 -41 c0 -28 8 -51 27 -75 25 -34 107 -84 136 -84 7 0 26 -14 42 -30 16 -17
36 -30 45 -30 8 0 32 -11 51 -24 37 -25 145 -66 175 -66 44 0 160 -48 199 -82
26 -23 53 -38 69 -38 15 0 43 -7 63 -15 19 -8 60 -15 90 -15 29 0 70 -7 90
-15 20 -8 66 -15 104 -15 41 0 86 -7 110 -17 l42 -16 31 13 c17 7 72 16 121
20 50 4 110 13 135 20 148 40 174 51 227 100 30 28 60 50 67 50 23 0 220 -66
263 -88 23 -12 54 -22 68 -22 15 0 51 -11 80 -25 87 -39 262 -95 300 -95 20 0
52 -7 72 -15 19 -8 60 -15 90 -15 29 0 70 -7 90 -15 23 -10 69 -15 135 -15 65
0 111 -5 135 -15 22 -9 67 -15 120 -15 52 0 97 -6 120 -15 20 -8 66 -15 105
-15 38 0 84 -7 105 -15 23 -10 69 -15 135 -15 65 0 111 -5 135 -15 19 -8 50
-15 69 -15 18 0 36 -4 39 -10 3 -5 19 -10 35 -10 16 0 32 5 35 10 3 6 33 10
65 10 32 0 62 -4 65 -10 3 -5 28 -10 55 -10 27 0 52 5 55 10 4 6 96 10 244 10
189 0 246 3 274 15 20 8 55 15 77 15 23 0 51 5 63 12 12 6 56 15 97 19 74 7
123 17 210 45 25 8 82 14 126 14 50 0 95 6 117 15 20 8 61 15 92 15 58 0 110
20 171 65 39 29 128 73 176 86 21 5 46 21 55 35 10 14 44 58 76 99 l57 73 0
130 0 130 -25 6 c-13 3 -43 29 -67 56 -24 28 -63 62 -86 76 l-44 26 7 21 c4
12 9 54 12 93 l5 71 -20 39 c-39 76 -173 184 -228 184 -18 0 -36 5 -39 10 -4
6 -57 10 -126 10 l-119 0 0 -21z"/>
</g>
</svg>
