<?xml version="1.0" standalone="no"?>
<!DOCTYPE svg PUBLIC "-//W3C//DTD SVG 20010904//EN"
 "http://www.w3.org/TR/2001/REC-SVG-20010904/DTD/svg10.dtd">
<svg version="1.0" xmlns="http://www.w3.org/2000/svg"
 width="645.000000pt" height="165.000000pt" viewBox="0 0 645.000000 165.000000"
 preserveAspectRatio="xMidYMid meet">
<metadata>
Created by potrace 1.16, written by Peter Selinger 2001-2019
</metadata>
<g transform="translate(0.000000,165.000000) scale(0.100000,-0.100000)"
fill="#000000" stroke="none">
<path d="M50 1600 l-50 -51 0 -89 0 -89 30 -23 c17 -12 49 -46 71 -75 22 -29
47 -53 57 -53 9 0 37 -14 62 -30 25 -16 52 -30 61 -30 8 0 26 -12 40 -26 32
-35 55 -46 182 -88 173 -58 289 -47 347 34 12 16 29 30 38 30 15 0 144 -54
207 -87 85 -45 144 -80 179 -105 21 -15 47 -28 56 -28 9 0 27 -12 41 -26 25
-27 252 -146 301 -158 15 -3 39 -22 54 -42 26 -33 89 -74 115 -74 17 0 104
-56 162 -103 26 -21 63 -43 82 -48 19 -5 58 -31 87 -58 50 -46 124 -91 148
-91 27 0 149 -65 199 -106 29 -24 60 -44 69 -44 18 0 214 -94 254 -121 l26
-19 162 0 162 0 38 30 c51 40 80 129 80 245 l0 85 -39 78 c-44 87 -92 137
-197 205 -84 55 -102 73 -86 89 10 10 56 8 202 -7 161 -16 221 -17 260 -1 48
19 128 21 167 4 17 -8 108 -15 228 -20 110 -4 220 -9 245 -13 25 -3 151 -9
280 -13 129 -4 242 -11 250 -17 8 -5 78 -13 155 -18 138 -7 178 -10 344 -23
l84 -6 54 18 54 18 48 -17 c28 -9 78 -17 115 -17 37 0 83 -7 103 -15 28 -12
82 -15 255 -15 172 0 226 -3 255 -15 19 -8 53 -15 75 -15 21 0 55 -7 75 -15
19 -8 63 -15 96 -15 l61 0 28 27 c22 21 28 36 28 70 l0 42 -30 16 c-16 8 -46
15 -67 15 -37 0 -211 54 -283 87 -19 9 -65 46 -101 82 l-66 66 -17 59 c-10 32
-15 70 -11 83 5 20 -2 33 -33 64 -46 45 -70 48 -127 16 -54 -31 -85 -87 -85
-156 l0 -55 43 -40 c59 -57 110 -124 102 -136 -4 -7 -186 -10 -531 -10 l-525
0 -36 15 c-27 11 -77 15 -210 15 -132 0 -182 4 -210 15 -28 12 -82 15 -255 15
-172 0 -226 3 -255 15 -49 21 -257 21 -306 0 -46 -19 -128 -19 -174 0 -27 11
-77 15 -210 15 -132 0 -182 4 -210 15 -27 11 -77 15 -209 15 -96 0 -185 5
-200 10 -15 6 -102 13 -193 16 -92 3 -186 12 -211 19 -92 27 -136 37 -183 42
l-49 5 -88 -41 c-49 -23 -93 -41 -99 -41 -26 0 -130 55 -173 91 -46 38 -234
139 -261 139 -7 0 -26 13 -41 29 -15 16 -46 36 -69 46 -23 9 -55 24 -72 32
-86 46 -144 80 -179 105 -21 15 -47 28 -56 28 -18 0 -125 74 -149 103 -7 9
-20 17 -28 17 -21 0 -81 29 -127 62 -21 15 -46 28 -56 28 -9 0 -29 14 -45 30
-16 17 -37 30 -46 30 -10 0 -21 5 -24 10 -3 6 -48 10 -100 10 l-94 0 -51 -50z
m346 -220 c47 -22 91 -40 97 -40 7 0 30 -12 51 -26 21 -15 50 -30 65 -33 14
-4 34 -22 44 -39 l19 -32 -12 -15 c-16 -20 -34 -19 -105 6 -97 33 -122 47
-154 88 -19 23 -42 41 -60 44 -34 7 -65 46 -55 71 9 22 14 21 110 -24z m1941
-655 c19 -8 53 -15 75 -15 21 0 55 -7 75 -15 19 -8 47 -15 60 -15 14 0 54 -13
90 -30 35 -16 69 -30 75 -30 6 0 42 -15 82 -34 79 -37 201 -140 253 -214 l33
-46 0 -58 0 -59 -25 -24 c-17 -18 -35 -25 -62 -25 -48 0 -144 33 -192 66 -19
13 -42 24 -50 24 -27 0 -207 92 -251 129 -46 39 -120 81 -140 81 -27 0 -149
65 -199 106 -29 24 -60 44 -68 44 -41 0 -143 96 -128 120 11 17 329 13 372 -5z"/>
</g>
</svg>
