<?xml version="1.0" standalone="no"?>
<!DOCTYPE svg PUBLIC "-//W3C//DTD SVG 20010904//EN"
 "http://www.w3.org/TR/2001/REC-SVG-20010904/DTD/svg10.dtd">
<svg version="1.0" xmlns="http://www.w3.org/2000/svg"
 width="375.000000pt" height="141.000000pt" viewBox="0 0 375.000000 141.000000"
 preserveAspectRatio="xMidYMid meet">
<metadata>
Created by potrace 1.16, written by Peter Selinger 2001-2019
</metadata>
<g transform="translate(0.000000,141.000000) scale(0.100000,-0.100000)"
fill="#000000" stroke="none">
<path d="M0 1347 l0 -64 48 -39 c26 -22 81 -62 122 -89 41 -27 95 -68 120 -90
25 -23 59 -49 75 -60 17 -10 57 -44 90 -75 33 -31 74 -65 90 -75 17 -10 57
-44 90 -75 33 -31 78 -68 100 -83 22 -14 62 -49 90 -77 32 -32 64 -54 88 -61
27 -7 65 -35 120 -88 45 -42 95 -85 112 -96 16 -10 50 -37 75 -60 25 -22 64
-53 87 -69 23 -15 60 -51 81 -80 l40 -51 63 -19 c91 -27 147 -54 162 -76 l12
-20 102 0 101 0 34 31 c18 17 52 50 75 73 l43 41 0 48 c0 50 -23 106 -67 165
-13 18 -23 42 -21 55 l3 22 77 3 c52 2 88 -2 114 -13 24 -10 69 -15 136 -15
65 0 111 -5 135 -15 19 -8 60 -15 90 -15 29 0 70 -7 90 -15 22 -9 67 -15 120
-15 52 0 97 -6 120 -15 19 -8 60 -15 90 -15 29 0 70 -7 90 -15 19 -8 53 -15
75 -15 21 0 55 -7 75 -15 28 -12 82 -15 249 -15 134 0 230 -4 258 -12 34 -9
51 -9 70 0 l26 12 0 85 0 85 -52 0 c-68 0 -168 35 -215 75 -50 42 -115 75
-150 75 -16 0 -43 8 -61 18 -39 21 -162 160 -162 184 0 9 25 38 55 64 36 32
55 55 55 70 0 25 -40 61 -77 70 -49 13 -197 -45 -227 -88 -10 -13 -16 -43 -16
-74 l0 -51 49 -64 c93 -119 112 -139 150 -149 21 -5 44 -18 52 -27 27 -33 50
-83 44 -93 -9 -15 -91 -12 -132 5 -19 8 -60 15 -90 15 -29 0 -70 7 -90 15 -19
8 -53 15 -75 15 -21 0 -55 7 -75 15 -19 8 -53 15 -75 15 -21 0 -55 7 -75 15
-19 8 -60 15 -90 15 -29 0 -70 7 -90 15 -27 11 -77 15 -210 15 -132 0 -182 4
-210 15 -19 8 -53 15 -75 15 -21 0 -55 7 -75 15 -19 8 -53 15 -74 15 -21 0
-50 5 -66 11 -30 13 -79 23 -185 39 l-67 11 -33 -17 c-73 -37 -81 -58 -48
-125 22 -43 64 -73 120 -89 19 -5 58 -20 85 -33 28 -13 62 -27 77 -31 32 -7
129 -94 158 -141 25 -40 20 -68 -15 -91 -32 -21 -53 -13 -125 51 -46 42 -68
55 -92 55 -33 0 -102 38 -178 99 -25 20 -61 47 -81 60 -19 13 -51 47 -70 75
-27 40 -44 54 -77 65 -24 7 -66 34 -95 60 -29 26 -86 69 -127 96 -41 27 -95
68 -120 90 -25 23 -58 49 -75 60 -16 10 -57 44 -90 75 -33 32 -75 65 -93 74
-18 10 -61 46 -96 82 -38 39 -71 64 -83 64 -13 0 -31 13 -43 30 -11 16 -73 64
-136 106 -63 42 -117 81 -120 86 -3 4 -23 8 -45 8 l-39 0 0 -63z"/>
</g>
</svg>
