<?xml version="1.0" standalone="no"?>
<!DOCTYPE svg PUBLIC "-//W3C//DTD SVG 20010904//EN"
 "http://www.w3.org/TR/2001/REC-SVG-20010904/DTD/svg10.dtd">
<svg version="1.0" xmlns="http://www.w3.org/2000/svg"
 width="852.000000pt" height="210.000000pt" viewBox="0 0 852.000000 210.000000"
 preserveAspectRatio="xMidYMid meet">
<metadata>
Created by potrace 1.16, written by Peter Selinger 2001-2019
</metadata>
<g transform="translate(0.000000,210.000000) scale(0.100000,-0.100000)"
fill="#000000" stroke="none">
<path d="M0 2078 c1 -25 73 -78 107 -78 10 0 43 -15 73 -34 97 -61 209 -116
237 -116 16 0 70 -20 121 -45 52 -25 99 -45 105 -45 7 0 32 -14 57 -30 33 -22
57 -30 90 -30 33 0 71 -13 138 -45 52 -25 99 -45 105 -45 7 0 54 -20 105 -45
52 -25 99 -45 105 -45 7 0 26 -9 42 -21 60 -40 185 -99 212 -99 16 0 45 -12
66 -26 21 -14 59 -32 85 -39 26 -8 69 -30 96 -50 27 -19 57 -35 65 -35 23 0
195 -85 234 -114 18 -14 71 -37 117 -52 l85 -27 125 -122 c69 -66 145 -134
170 -150 24 -17 68 -54 97 -82 l52 -53 34 0 c23 0 41 -8 58 -26 13 -14 41 -35
63 -46 21 -11 57 -33 79 -49 25 -18 52 -29 73 -29 22 0 46 -11 76 -35 72 -58
192 -115 240 -115 27 0 54 -8 73 -21 111 -75 257 -129 352 -129 l68 0 63 -30
c35 -17 74 -30 86 -30 12 0 60 -13 106 -30 53 -18 105 -30 138 -30 29 0 69 -7
89 -15 l35 -15 340 0 339 0 36 -15 c25 -10 71 -15 154 -15 68 0 120 -4 124
-10 8 -13 72 -13 80 0 8 13 62 13 70 0 8 -13 72 -13 80 0 4 6 121 10 319 10
l314 0 35 15 c21 8 67 15 105 15 40 0 85 7 107 15 29 13 44 14 70 5 l34 -11
56 27 c32 16 70 45 86 66 20 24 44 41 68 48 21 5 45 18 53 27 26 29 84 154 98
208 l12 50 -17 57 c-9 32 -21 60 -26 64 -6 3 -24 24 -40 46 l-29 41 0 87 c0
48 -5 102 -11 120 l-12 32 14 9 c8 5 34 9 58 9 l44 0 43 44 44 43 0 50 c0 27
5 54 12 61 17 17 141 15 185 -3 19 -8 53 -15 75 -15 21 0 55 -7 75 -15 23 -10
69 -15 132 -15 55 0 115 -6 141 -14 78 -25 133 -37 195 -45 34 -5 70 -13 82
-19 12 -7 46 -12 75 -12 29 0 73 -6 98 -14 92 -29 137 -36 168 -25 23 8 39 7
67 -5 21 -9 65 -16 99 -16 l62 0 42 31 42 31 0 38 0 38 -42 31 c-24 18 -54 31
-71 31 -15 0 -58 18 -95 40 -36 22 -84 45 -105 51 -29 7 -73 43 -173 137
l-134 127 4 80 c3 44 8 94 11 112 l7 31 -22 12 -22 12 -69 -22 c-110 -36 -131
-84 -92 -214 l18 -58 42 -32 c23 -17 54 -50 69 -74 15 -24 51 -59 80 -78 59
-39 108 -103 98 -127 -8 -22 -7 -22 -98 8 -49 16 -100 25 -139 25 -44 0 -88 9
-147 30 -53 18 -105 30 -138 30 -29 0 -69 7 -89 15 -22 9 -67 15 -117 15 -44
0 -101 6 -126 14 -76 24 -132 37 -195 46 -33 4 -84 20 -112 34 -29 14 -63 26
-76 26 -13 0 -61 13 -107 30 -110 38 -143 39 -181 1 -42 -42 -38 -74 15 -127
33 -34 51 -44 75 -44 43 0 117 -35 137 -65 12 -18 13 -28 4 -44 l-11 -21 -56
0 -56 0 -94 45 c-73 35 -104 45 -144 45 l-51 0 -39 -39 c-22 -21 -39 -43 -39
-47 0 -5 10 -27 23 -49 29 -52 104 -94 167 -95 67 0 117 -40 140 -111 l12 -37
-26 -38 c-20 -30 -26 -51 -26 -92 l0 -54 29 -29 c16 -16 38 -29 49 -29 31 0
69 -37 87 -83 l16 -42 -24 -65 -23 -65 -54 -37 c-69 -48 -132 -78 -162 -78
-13 0 -61 -14 -108 -30 -67 -24 -101 -30 -166 -30 -50 0 -95 -6 -117 -15 l-36
-15 -426 0 -426 0 -36 15 c-24 10 -71 15 -149 15 -81 0 -125 5 -153 16 -32 13
-62 15 -143 10 -57 -3 -114 -6 -128 -7 -43 -2 -165 18 -187 30 -13 6 -70 11
-135 11 l-114 0 -84 30 c-47 16 -94 30 -105 30 -25 0 -226 68 -242 82 -21 17
-15 38 27 90 49 62 51 93 10 180 -16 34 -30 75 -30 91 0 63 -102 226 -211 336
-93 93 -262 211 -304 211 -17 0 -46 11 -66 24 -59 40 -330 126 -397 126 l-57
0 -45 -30 c-26 -17 -58 -30 -76 -30 -18 0 -47 -12 -71 -29 -22 -16 -59 -39
-81 -50 -22 -11 -50 -35 -63 -52 l-22 -31 -41 6 c-22 4 -62 20 -87 37 -25 16
-52 29 -60 29 -8 0 -84 34 -168 75 -84 41 -158 75 -164 75 -19 0 -135 57 -170
84 -18 13 -88 43 -155 65 -68 23 -136 49 -150 60 -47 32 -149 80 -227 106 -42
13 -88 33 -103 44 -54 37 -112 61 -152 61 -22 0 -57 7 -77 15 -19 8 -45 15
-57 15 -51 0 -219 70 -287 120 -32 23 -53 30 -87 30 -40 0 -124 29 -204 71
-10 5 -40 9 -68 9 l-50 0 0 -22z m2974 -863 c39 -20 96 -51 126 -71 30 -19 72
-39 93 -45 43 -11 157 -114 203 -181 15 -24 45 -64 66 -89 47 -58 63 -97 72
-172 l6 -59 -16 4 c-9 2 -39 44 -65 93 -65 121 -71 125 -178 125 -102 0 -153
15 -319 95 -62 30 -117 55 -123 55 -6 0 -35 11 -65 25 -76 35 -169 65 -199 65
-35 0 -75 42 -75 78 0 75 86 110 274 111 l128 1 72 -35z m-79 -465 c3 -5 -1
-10 -9 -10 -8 0 -18 5 -21 10 -3 6 1 10 9 10 8 0 18 -4 21 -10z m168 -70 l35
-30 53 0 c66 0 117 -25 143 -69 l18 -31 -12 -15 c-7 -8 -22 -15 -33 -15 -35 0
-146 60 -168 91 -12 17 -30 29 -42 29 -27 0 -99 40 -105 58 -2 8 9 12 37 12
31 0 49 -7 74 -30z"/>
</g>
</svg>
