<?xml version="1.0" encoding="UTF-8" standalone="no"?>
<!-- Created with Inkscape (http://www.inkscape.org/) -->

<svg
   width="59.033104mm"
   height="75.129875mm"
   viewBox="0 0 59.033104 75.129875"
   version="1.1"
   id="svg1"
   xml:space="preserve"
   xmlns="http://www.w3.org/2000/svg"
   xmlns:svg="http://www.w3.org/2000/svg"><defs
     id="defs1" /><g
     id="layer1"
     transform="translate(-78.184778,-93.13908)"><path
       style="fill:#000000"
       d="m 130.70416,166.59015 c -1.89177,-0.91949 -5.40411,-2.86189 -7.80521,-4.31644 -2.40109,-1.45456 -7.46125,-4.21111 -11.24479,-6.12567 -8.21545,-4.1572 -10.7671,-5.72553 -17.429311,-10.71263 -2.783148,-2.08337 -6.792897,-5.05047 -8.910553,-6.59356 -2.117657,-1.54308 -4.34162,-3.33865 -4.942141,-3.99014 -2.424498,-2.63026 -2.796026,-4.75974 -1.300643,-7.45484 0.764592,-1.378 1.104601,-1.70411 2.576532,-2.47119 1.562072,-0.81406 1.852082,-0.8763 3.680078,-0.7897 4.606591,0.21822 8.965479,3.73969 12.526998,10.12034 1.567716,2.80865 2.38328,5.25863 2.15521,6.47434 -0.214108,1.14128 -1.106014,2.93809 -1.458419,2.93809 -0.693482,0 -0.03697,0.66386 2.322279,2.34827 3.6995,2.64128 6.7518,4.39634 13.95497,8.02403 5.48627,2.76301 7.50061,3.86323 10.98021,5.99732 0.3638,0.22313 -0.65057,-0.95774 -2.25415,-2.62415 -3.9576,-4.11265 -11.5514,-12.67697 -14.53383,-16.3913 -3.3169,-4.13089 -6.68847,-8.98928 -7.99909,-11.5266 -2.316453,-4.48459 -4.131657,-10.60774 -4.488698,-15.14154 -0.153618,-1.95067 -0.10525,-2.33837 0.435844,-3.49363 0.440978,-0.94151 0.827267,-1.37568 1.402305,-1.57614 1.275445,-0.44463 1.414823,-0.36267 2.410239,1.4173 0.52103,0.93169 1.48538,2.2476 2.143,2.92424 2.08158,2.14179 5.22638,3.13596 6.68593,2.11365 0.50162,-0.35135 0.58804,-0.6563 0.58804,-2.07524 0,-2.08775 -0.65484,-4.02125 -2.36734,-6.98995 -1.79806,-3.11703 -2.23005,-4.47376 -2.06786,-6.49439 0.14332,-1.78542 1.27716,-4.370873 2.35815,-5.377221 1.09528,-1.019636 2.87546,-1.657993 4.64112,-1.664257 0.90091,-0.0032 1.70909,0.109168 1.79594,0.249698 0.32063,0.51879 -0.87844,2.323921 -1.74414,2.625706 -1.11468,0.388579 -1.30599,0.371033 -1.12406,-0.10309 0.11955,-0.311519 -0.0726,-0.396875 -0.89333,-0.396875 -1.45228,0 -1.99161,0.666881 -2.13426,2.638974 -0.14062,1.944075 0.31444,3.346085 2.07886,6.404785 2.64959,4.5932 3.01161,7.15259 1.45025,10.25303 -1.33583,2.6526 -3.16562,3.72749 -6.32608,3.71615 -1.80892,-0.006 -3.32063,-0.57347 -4.93225,-1.8499 l -1.008912,-0.79907 0.375942,1.65812 c 0.59546,2.62627 1.88464,6.19792 3.27253,9.06645 3.38866,7.00381 13.8823,19.71366 26.77986,32.43567 l 6.86451,6.77108 -0.45656,0.95743 c -0.4178,0.87614 -1.41796,1.52154 -2.32634,1.50117 -0.16018,-0.004 -1.83906,-0.75883 -3.73083,-1.67832 z M 96.999783,141.18589 c -0.642217,-2.86973 -3.783229,-8.20637 -6.24714,-10.61402 -2.511911,-2.45454 -5.58407,-4.09056 -7.673479,-4.08634 -1.477982,0.003 -1.984375,0.46512 -1.984375,1.81095 0,2.55242 1.505851,4.26054 7.782064,8.82738 2.632104,1.91523 5.500019,4.04377 6.373144,4.73008 0.944381,0.74232 1.685747,1.15189 1.830018,1.011 0.14678,-0.14335 0.115107,-0.80618 -0.08023,-1.67905 z M 89.95833,153.5409 c -1.750735,-0.0904 -5.755854,-0.56145 -6.66469,-0.78387 -0.562654,-0.13769 -0.567012,-0.16747 -0.151893,-1.03799 0.626775,-1.31436 1.525777,-1.52193 4.595609,-1.0611 1.386907,0.20819 4.49796,0.46385 6.913451,0.56813 l 4.391802,0.18959 -0.418923,0.87849 c -0.256673,0.53825 -0.724606,0.98505 -1.208184,1.15363 -0.730977,0.25482 -3.625202,0.29096 -7.457172,0.0931 z"
       id="path1" /></g></svg>
