<?xml version="1.0" standalone="no"?>
<!DOCTYPE svg PUBLIC "-//W3C//DTD SVG 20010904//EN"
 "http://www.w3.org/TR/2001/REC-SVG-20010904/DTD/svg10.dtd">
<svg version="1.0" xmlns="http://www.w3.org/2000/svg"
 width="759.000000pt" height="156.000000pt" viewBox="0 0 759.000000 156.000000"
 preserveAspectRatio="xMidYMid meet">
<metadata>
Created by potrace 1.16, written by Peter Selinger 2001-2019
</metadata>
<g transform="translate(0.000000,156.000000) scale(0.100000,-0.100000)"
fill="#000000" stroke="none">
<path d="M6623 1526 c-34 -21 -57 -43 -68 -68 l-17 -36 26 -49 c30 -55 144
-191 174 -207 11 -6 44 -34 73 -63 89 -86 182 -168 212 -186 15 -10 38 -35 51
-56 15 -23 46 -50 79 -69 29 -16 61 -42 71 -57 10 -15 33 -44 52 -64 l34 -38
-48 8 c-67 12 -124 34 -142 56 -8 10 -35 30 -60 43 -25 13 -65 41 -90 61 -50
40 -121 79 -145 79 -26 0 -113 -48 -129 -72 -9 -12 -16 -42 -16 -66 0 -23 -7
-59 -15 -79 -8 -19 -15 -55 -15 -80 l0 -44 -31 -27 c-16 -15 -57 -53 -89 -84
-32 -32 -63 -58 -68 -58 -6 0 -52 -20 -104 -45 -51 -25 -104 -45 -118 -45 -14
0 -63 -14 -110 -30 -52 -19 -104 -30 -136 -30 -28 0 -68 -7 -87 -15 -23 -9
-69 -15 -122 -15 -49 0 -96 -5 -108 -12 -19 -11 -234 -30 -307 -28 -14 1 -205
5 -425 10 -220 4 -434 13 -475 18 -41 6 -151 11 -243 11 -125 1 -177 5 -204
16 -27 12 -79 15 -227 15 l-191 0 -37 25 c-33 23 -88 42 -208 75 -25 7 -92 15
-150 19 -58 4 -115 12 -127 19 -12 7 -58 12 -104 12 l-82 0 -179 60 c-98 33
-188 60 -199 60 -41 0 -167 69 -195 106 -40 52 -90 74 -169 74 l-65 0 -37 -33
-36 -34 -3 -44 c-6 -101 -17 -170 -28 -177 -6 -3 -33 -15 -61 -25 l-50 -19
-259 1 c-202 1 -266 5 -293 16 -23 10 -70 15 -135 15 -65 0 -111 5 -135 15
-19 8 -60 15 -90 15 -29 0 -70 7 -90 15 -19 8 -60 15 -90 15 -40 0 -73 8 -120
30 -35 17 -75 30 -89 30 -14 0 -41 7 -61 15 -19 8 -46 15 -60 15 -13 0 -54 18
-91 40 -37 23 -78 43 -92 47 -14 3 -50 17 -80 30 -87 40 -139 53 -166 43 l-24
-10 0 -42 c0 -34 7 -51 33 -80 l32 -37 120 -40 c66 -21 147 -55 180 -75 33
-20 71 -39 85 -42 14 -2 43 -9 65 -15 22 -6 58 -14 80 -18 22 -4 56 -12 75
-18 69 -22 126 -35 185 -42 34 -5 70 -13 82 -19 12 -7 40 -12 63 -12 22 0 57
-7 77 -15 20 -8 66 -15 105 -15 38 0 84 -7 105 -15 27 -12 79 -15 224 -15
l189 0 41 -17 41 -16 47 16 c26 10 76 17 114 17 79 0 130 21 192 80 53 51 175
130 200 130 12 0 59 -13 105 -30 47 -16 102 -30 123 -30 21 0 54 -7 74 -15 19
-8 59 -15 87 -15 32 0 84 -11 136 -30 53 -18 105 -30 138 -30 29 0 69 -7 89
-15 19 -8 53 -15 75 -15 21 0 55 -7 75 -15 25 -10 71 -15 152 -15 l117 0 29
-30 29 -30 58 0 c32 0 75 -7 95 -15 23 -10 69 -15 135 -15 65 0 111 -5 135
-15 23 -10 69 -15 135 -15 65 0 111 -5 135 -15 l35 -15 509 0 c328 0 510 -4
514 -10 8 -13 102 -13 110 0 4 6 81 10 199 10 149 0 202 3 229 15 20 8 67 15
104 15 49 0 91 9 153 30 46 17 92 30 102 30 26 0 315 98 373 127 27 14 62 36
76 50 15 14 49 39 75 56 32 22 50 42 56 62 4 17 24 44 44 61 20 17 48 53 63
80 l27 49 41 -2 c29 -1 63 -14 110 -43 37 -23 80 -44 95 -47 14 -3 39 -18 54
-34 19 -20 38 -29 59 -29 22 0 40 -9 60 -30 l29 -30 52 0 52 0 56 46 56 46 0
55 c0 65 -26 105 -95 149 -25 15 -45 32 -45 37 0 5 -42 51 -92 102 -51 51
-101 105 -111 119 -10 15 -34 30 -57 36 -24 6 -47 21 -57 37 -10 15 -38 45
-62 69 -55 53 -92 90 -145 145 -24 24 -54 52 -68 61 -28 19 -72 94 -63 109 4
5 17 9 29 9 36 0 76 37 76 70 0 31 -39 70 -71 70 -10 0 -21 5 -24 10 -3 6 -34
10 -68 9 l-62 -1 -52 -32z"/>
</g>
</svg>
