<?xml version="1.0" standalone="no"?>
<!DOCTYPE svg PUBLIC "-//W3C//DTD SVG 20010904//EN"
 "http://www.w3.org/TR/2001/REC-SVG-20010904/DTD/svg10.dtd">
<svg version="1.0" xmlns="http://www.w3.org/2000/svg"
 width="849.000000pt" height="141.000000pt" viewBox="0 0 849.000000 141.000000"
 preserveAspectRatio="xMidYMid meet">
<metadata>
Created by potrace 1.16, written by Peter Selinger 2001-2019
</metadata>
<g transform="translate(0.000000,141.000000) scale(0.100000,-0.100000)"
fill="#000000" stroke="none">
<path d="M485 1400 c-3 -5 -18 -10 -33 -10 -15 0 -58 -12 -97 -26 -38 -14 -88
-30 -110 -36 -22 -5 -62 -20 -90 -34 -27 -13 -60 -26 -72 -29 -12 -3 -36 -23
-53 -44 l-30 -39 0 -104 0 -104 27 -26 c31 -29 85 -58 106 -58 7 0 28 -17 44
-38 24 -30 46 -44 97 -60 37 -12 81 -22 99 -22 17 0 52 -6 77 -14 78 -25 133
-37 195 -45 34 -5 70 -13 82 -19 12 -7 47 -12 78 -12 30 0 72 -7 92 -15 26
-11 74 -15 180 -15 105 0 153 -4 180 -15 19 -8 61 -15 92 -15 74 0 104 -18
187 -110 86 -96 103 -135 104 -227 l0 -72 -27 -19 c-16 -11 -62 -36 -104 -56
l-76 -36 -75 0 c-88 0 -104 -11 -94 -65 l7 -35 165 0 c90 0 172 4 182 8 9 5
44 22 77 38 l60 29 42 80 42 80 1 93 0 93 -31 60 c-16 33 -29 70 -27 82 l3 22
94 3 93 3 47 -31 48 -30 207 0 c161 0 215 -3 243 -15 26 -11 74 -15 180 -15
105 0 153 -4 180 -15 l35 -15 295 0 294 0 36 -15 c23 -10 69 -15 137 -15 l101
0 45 -30 45 -30 55 0 c36 0 86 -11 140 -30 47 -16 96 -30 110 -30 14 0 67 -20
118 -45 52 -25 104 -45 116 -45 12 0 60 -13 106 -30 67 -23 102 -30 165 -30
44 0 100 -6 125 -14 78 -25 133 -37 195 -45 34 -5 70 -13 82 -19 13 -7 73 -12
153 -12 93 0 141 -4 167 -15 22 -9 67 -15 120 -15 52 0 97 -6 120 -15 l35 -15
493 0 493 0 35 15 c24 10 70 15 135 15 66 0 112 5 135 15 24 10 70 15 138 15
l102 0 49 31 49 31 92 3 c51 1 105 7 120 14 16 6 40 11 54 11 37 0 190 83 250
135 l51 45 49 0 c29 0 84 -12 133 -30 47 -16 94 -30 105 -30 11 0 41 -7 66
-17 l47 -16 41 16 c23 10 55 17 72 17 44 0 89 47 89 94 0 19 5 38 10 41 17 11
11 58 -11 81 -11 12 -31 41 -43 65 -15 27 -45 60 -79 84 -30 22 -83 60 -118
85 -34 25 -81 63 -103 86 -69 69 -157 136 -192 146 -37 10 -188 144 -241 214
-18 24 -36 57 -39 73 l-6 29 26 17 c31 20 32 33 9 74 l-18 31 -73 0 -73 0 -35
-27 c-39 -29 -74 -89 -74 -126 0 -13 9 -32 20 -42 11 -10 36 -42 56 -72 19
-29 48 -60 65 -68 16 -9 60 -44 97 -79 37 -35 82 -71 100 -80 18 -10 50 -32
70 -50 20 -19 56 -44 80 -56 24 -12 54 -37 67 -54 13 -17 54 -53 90 -81 37
-27 89 -67 116 -88 82 -63 117 -134 74 -150 -16 -7 -222 62 -258 86 -15 9 -27
26 -27 37 0 29 -57 88 -111 116 -67 33 -113 32 -150 -5 l-29 -29 0 -50 c0 -27
7 -66 15 -86 30 -71 -7 -123 -109 -155 -38 -12 -82 -31 -98 -42 -22 -16 -37
-19 -65 -14 -40 7 -100 -5 -228 -46 l-91 -29 -111 0 c-76 0 -122 -5 -146 -15
-28 -12 -80 -15 -225 -15 -146 0 -198 -3 -225 -15 l-36 -15 -319 0 -318 0 -84
30 -85 30 -233 0 c-184 0 -240 3 -269 15 -19 8 -53 15 -75 15 -21 0 -55 7 -75
15 -19 8 -52 15 -72 15 -20 0 -56 6 -81 14 -60 19 -125 35 -182 46 -26 5 -56
13 -67 19 -11 6 -37 11 -57 11 -49 0 -164 39 -171 58 -4 9 8 27 30 46 43 38
67 84 67 130 l0 34 -42 33 c-24 18 -61 49 -83 70 -54 51 -225 109 -320 109
-36 0 -82 7 -102 15 -19 8 -43 15 -53 15 -26 0 -128 -77 -145 -110 -21 -40
-19 -63 11 -122 l26 -51 -14 -8 c-24 -16 -265 -11 -305 6 -26 11 -74 15 -180
15 -105 0 -153 4 -180 15 -27 12 -79 15 -225 15 -145 0 -197 3 -225 15 -28 12
-82 15 -255 15 -172 0 -226 3 -255 15 -19 8 -60 15 -90 15 -29 0 -70 7 -90 15
-19 8 -59 15 -88 15 -94 0 -112 23 -47 61 58 34 121 99 148 151 46 90 24 218
-48 285 -36 33 -141 103 -156 103 -8 0 -43 14 -79 30 -40 19 -81 30 -108 30
-24 0 -47 5 -50 10 -4 6 -168 10 -460 10 -292 0 -456 -4 -460 -10z m756 -119
c36 -4 75 -13 86 -20 12 -6 41 -11 65 -11 24 -1 59 -8 78 -18 68 -33 168 -105
184 -133 25 -42 21 -105 -9 -134 l-24 -25 -102 0 -102 0 -114 55 c-63 30 -124
55 -137 55 -13 0 -38 -10 -57 -23 l-34 -23 -3 -58 -3 -59 46 -42 c36 -34 42
-44 29 -49 -29 -11 -114 -6 -151 9 -25 11 -72 15 -165 15 -92 0 -139 4 -165
15 -19 8 -45 15 -57 15 -38 0 -126 36 -154 63 -21 20 -38 27 -68 27 -58 0
-144 33 -167 65 -39 52 -33 155 9 155 7 0 42 14 77 30 36 17 76 30 90 30 13 0
41 7 60 15 20 8 54 15 75 15 22 0 56 7 75 15 25 10 75 15 159 16 68 1 175 5
238 9 63 4 129 6 145 4 17 -2 60 -8 96 -13z m2734 -591 c81 -28 166 -70 172
-87 7 -19 -14 -42 -56 -59 l-36 -15 -45 12 c-25 6 -58 24 -75 39 -16 14 -49
38 -72 53 -40 25 -54 53 -36 70 13 14 90 7 148 -13z"/>
</g>
</svg>
