<?xml version="1.0" standalone="no"?>
<!DOCTYPE svg PUBLIC "-//W3C//DTD SVG 20010904//EN"
 "http://www.w3.org/TR/2001/REC-SVG-20010904/DTD/svg10.dtd">
<svg version="1.0" xmlns="http://www.w3.org/2000/svg"
 width="465.000000pt" height="336.000000pt" viewBox="0 0 465.000000 336.000000"
 preserveAspectRatio="xMidYMid meet">
<metadata>
Created by potrace 1.16, written by Peter Selinger 2001-2019
</metadata>
<g transform="translate(0.000000,336.000000) scale(0.100000,-0.100000)"
fill="#000000" stroke="none">
<path d="M3483 3291 c-48 -44 -73 -75 -73 -90 0 -12 18 -57 40 -101 30 -61 50
-86 79 -105 22 -13 54 -37 73 -53 18 -15 66 -50 105 -76 40 -26 82 -61 94 -77
11 -16 38 -38 59 -49 21 -10 73 -43 116 -73 44 -29 99 -65 124 -79 25 -14 55
-40 68 -57 12 -17 46 -43 75 -57 76 -39 160 -107 182 -147 l19 -36 -19 -21
c-37 -40 -51 -43 -123 -19 -80 27 -163 70 -173 90 -4 8 -13 29 -20 47 -20 54
-47 82 -80 82 -16 0 -46 7 -66 15 -19 8 -53 15 -74 15 -21 0 -50 6 -66 13 -20
9 -170 14 -558 19 -291 5 -570 10 -620 13 -49 2 -205 7 -345 11 -185 4 -264
10 -289 20 -22 9 -72 14 -148 14 -78 0 -125 5 -150 15 l-35 15 -535 0 -534 0
-36 15 c-26 11 -75 15 -182 15 l-146 0 -53 25 c-67 31 -84 31 -130 0 -20 -14
-42 -25 -49 -25 -9 0 -13 -18 -13 -58 l0 -58 28 -26 c34 -32 84 -58 112 -58
50 0 164 -46 205 -82 27 -24 53 -38 70 -38 32 0 143 -50 188 -84 18 -13 79
-48 137 -77 97 -48 198 -115 229 -153 7 -9 20 -16 29 -16 18 0 100 -50 162
-99 24 -20 81 -60 125 -90 96 -64 156 -115 238 -201 34 -35 85 -87 112 -115
28 -28 63 -71 80 -96 16 -24 46 -64 66 -89 20 -25 47 -65 59 -89 12 -23 41
-67 64 -95 47 -58 96 -186 96 -251 0 -21 8 -52 19 -69 l18 -31 -6 -155 -7
-155 -28 -54 c-16 -30 -46 -78 -68 -107 l-39 -53 -82 -40 c-45 -22 -109 -49
-142 -61 l-59 -20 -210 0 -209 0 -136 44 c-146 47 -200 62 -271 76 -48 9 -77
22 -125 56 -39 28 -171 94 -187 94 -7 0 -38 16 -68 35 -75 48 -110 45 -110
-11 0 -36 188 -194 231 -194 7 0 43 -14 77 -30 35 -17 69 -30 75 -30 7 0 54
-20 105 -45 52 -25 105 -45 118 -45 14 0 41 -7 61 -15 19 -8 60 -15 90 -15 29
0 70 -7 90 -15 19 -8 55 -15 79 -15 23 0 46 -5 49 -10 4 -6 82 -10 202 -10
l195 0 30 21 c18 14 54 24 92 29 69 7 152 45 208 96 20 18 54 42 76 53 21 11
43 25 49 33 21 26 83 229 83 273 0 44 4 66 34 197 l15 67 -24 53 c-14 29 -25
59 -25 66 0 7 -11 34 -24 60 -13 26 -29 65 -35 87 -6 22 -26 65 -45 95 -19 30
-62 108 -95 172 -42 81 -71 125 -96 143 -19 16 -35 36 -35 48 0 19 -62 86
-113 120 -15 10 -30 30 -33 45 -9 38 -21 50 -75 78 -26 13 -60 40 -75 59 -15
20 -56 51 -96 72 -38 19 -78 48 -88 64 -24 32 -116 97 -202 141 -34 17 -78 46
-98 64 -21 19 -44 34 -51 34 -8 0 -55 27 -104 60 -50 33 -97 60 -105 60 -8 0
-35 14 -60 30 -25 16 -52 30 -60 30 -25 0 -172 100 -167 113 3 9 60 13 218 15
l213 2 47 -16 47 -17 41 16 c54 22 158 22 212 0 l41 -16 47 16 c57 21 130 22
178 2 l35 -15 385 0 384 0 36 -15 35 -15 355 0 354 0 36 -15 c28 -12 82 -15
252 -15 l217 0 52 -18 c29 -11 65 -31 80 -45 18 -17 39 -27 59 -27 30 0 90
-37 128 -80 28 -31 73 -52 198 -94 l107 -36 85 0 86 0 62 31 c34 17 74 43 90
57 l27 26 0 54 c0 43 -5 60 -25 84 -14 16 -25 38 -25 48 0 22 -95 98 -136 109
-27 7 -37 18 -48 54 -3 10 -20 25 -37 35 -17 9 -53 31 -78 48 -26 18 -70 43
-97 57 -27 14 -70 43 -96 65 -26 22 -63 43 -83 46 -25 5 -52 23 -90 62 -30 30
-61 54 -69 54 -23 0 -234 213 -242 245 l-7 29 27 20 c69 53 86 74 86 110 l0
36 -87 0 -88 0 -72 -69z"/>
</g>
</svg>
