<?xml version="1.0" encoding="UTF-8" standalone="no"?>
<!-- Created with Inkscape (http://www.inkscape.org/) -->

<svg
   version="1.1"
   id="svg1"
   width="524.48505"
   height="220.76469"
   viewBox="0 0 524.48505 220.76469"
   xmlns="http://www.w3.org/2000/svg"
   xmlns:svg="http://www.w3.org/2000/svg">
  <defs
     id="defs1" />
  <g
     id="g1"
     transform="translate(-0.66650909)">
    <path
       style="fill:#000000"
       d="M 145,219.85529 C 50.038437,211.1307 -13.926451,175.10605 3.542659,140.18736 c 12.221404,-24.42915 40.340583,-26.63551 72.328165,-5.6752 17.888796,11.72188 32.631306,15.98336 52.942746,15.30368 37.96773,-1.27053 23.41601,-20.60677 -29.593957,-39.32429 -0.970665,-0.34274 -0.785099,-1.42294 0.767129,-4.46556 3.613738,-7.083509 2.035698,-6.92608 63.182748,-6.303314 29.88178,0.304334 87.85551,0.03092 128.83051,-0.60759 70.58108,-1.099864 137.09982,-0.574852 188.5,1.487774 16,0.64206 16,0.64206 1.88151,-8.789806 C 445.92342,67.457215 429.00686,50.065782 427.38996,35.277804 425.87417,21.414585 445.39799,0 459.55297,0 465.04315,0 460.70745,7.6329333 454,9.775917 c -14.46681,4.622048 -17.36036,12.26325 -9.92583,26.211856 7.57105,14.204742 31.44055,34.027711 64.98392,53.96737 6.84305,4.067812 13.4573,8.004277 14.69833,8.747698 3.58335,2.146559 -0.14201,8.661779 -6.55564,11.465039 -5.24518,2.29257 -2.60836,2.29615 -116.70078,-0.15831 -33.80724,-0.72729 -67.60338,-0.73942 -109,-0.0391 -33,0.55826 -80.7,1.03028 -106,1.04893 -46,0.0339 -46,0.0339 -40,3.25726 15.35361,8.24834 20.13264,16.64503 15.0864,26.50659 -13.05771,25.5179 -61.383442,27.88079 -96.715576,4.72892 -27.446873,-17.98495 -50.872733,-19.68401 -50.870035,-3.68958 0.0053,31.28632 64.570872,60.50461 148.684831,67.28531 15.18563,1.22416 15.18563,1.22416 13.23288,5.05187 -3.42552,6.71456 -8.43898,7.66896 -29.9185,5.69553 z"
       id="path1" />
  </g>
</svg>
