<?xml version="1.0" standalone="no"?>
<!DOCTYPE svg PUBLIC "-//W3C//DTD SVG 20010904//EN"
 "http://www.w3.org/TR/2001/REC-SVG-20010904/DTD/svg10.dtd">
<svg version="1.0" xmlns="http://www.w3.org/2000/svg"
 width="504.000000pt" height="219.000000pt" viewBox="0 0 504.000000 219.000000"
 preserveAspectRatio="xMidYMid meet">
<metadata>
Created by potrace 1.16, written by Peter Selinger 2001-2019
</metadata>
<g transform="translate(0.000000,219.000000) scale(0.100000,-0.100000)"
fill="#000000" stroke="none">
<path d="M165 2145 c-99 -71 -136 -107 -142 -137 -3 -16 -10 -31 -14 -34 -12
-7 -11 -71 1 -79 6 -3 10 -33 10 -67 l0 -60 37 -34 c20 -19 40 -34 43 -34 3 0
19 -21 35 -46 17 -26 52 -61 84 -82 31 -20 76 -58 101 -83 25 -26 59 -54 77
-63 17 -9 52 -34 77 -55 134 -116 356 -241 428 -241 13 0 37 -9 53 -21 74 -50
124 -69 183 -69 33 0 76 7 95 15 20 8 49 15 64 15 15 1 64 20 108 43 l80 42
27 50 c21 39 28 64 28 111 0 111 47 132 129 59 21 -19 44 -35 51 -35 17 0 144
-64 210 -106 30 -19 71 -39 90 -44 53 -15 114 -53 118 -74 l4 -19 -29 6 c-52
10 -104 -14 -169 -78 -62 -61 -114 -146 -114 -185 0 -37 38 -98 90 -142 27
-24 50 -50 50 -59 0 -20 24 -41 76 -67 23 -12 66 -43 95 -69 88 -78 206 -153
242 -153 7 0 28 -18 46 -40 20 -25 44 -43 69 -49 51 -14 134 -55 184 -91 22
-17 48 -30 58 -30 9 0 29 -13 45 -30 l29 -30 43 0 c44 0 115 -26 165 -61 l26
-19 149 0 150 0 12 22 c7 13 32 38 57 56 l44 33 0 110 0 110 -21 42 c-12 23
-39 62 -59 87 -21 25 -43 55 -49 67 -6 12 -35 38 -65 58 -29 19 -73 53 -98 74
-24 22 -62 49 -84 60 -49 26 -109 85 -100 100 11 17 209 14 253 -4 19 -8 60
-15 90 -15 29 0 70 -7 90 -15 27 -12 79 -15 225 -15 145 0 197 -3 225 -15 22
-9 67 -15 120 -15 52 0 97 -6 120 -15 21 -9 67 -15 116 -15 119 0 194 -28 276
-105 68 -62 134 -111 186 -138 58 -29 154 -57 199 -57 l44 0 56 46 56 46 0 72
0 72 -37 39 c-21 21 -63 56 -94 79 -114 83 -206 162 -294 251 -49 50 -110 104
-134 120 -25 17 -75 59 -111 95 -36 36 -79 73 -94 84 -16 10 -37 38 -48 62
-25 57 -13 84 38 84 51 0 94 45 94 98 0 46 -23 72 -66 72 -34 0 -149 -40 -196
-67 -42 -24 -87 -106 -88 -157 l0 -40 187 -188 c116 -117 204 -196 230 -209
23 -11 54 -37 69 -57 16 -20 57 -68 91 -107 35 -38 70 -78 78 -88 8 -9 36 -23
61 -29 68 -19 100 -78 41 -78 -12 0 -67 31 -122 68 -75 52 -101 76 -107 98 -5
19 -24 39 -51 56 -24 15 -64 45 -89 67 -25 23 -52 41 -60 41 -7 0 -51 -14 -98
-30 -91 -33 -161 -38 -213 -17 -23 10 -98 14 -270 16 -185 1 -246 5 -274 16
-23 10 -70 15 -135 15 -65 0 -111 5 -135 15 -20 8 -66 15 -105 15 -38 0 -84 7
-105 15 -20 8 -66 15 -105 15 -38 0 -84 7 -105 15 -20 8 -66 15 -105 15 l-69
0 -67 39 c-37 22 -92 56 -123 75 -30 20 -61 36 -68 36 -24 0 -86 33 -131 70
-46 38 -120 80 -141 80 -17 0 -80 31 -114 56 -37 27 -161 89 -195 97 -14 4
-43 22 -65 40 -41 35 -115 77 -136 77 -32 0 -171 89 -208 134 -7 9 -27 16 -44
16 -40 0 -188 72 -236 115 -21 19 -45 35 -52 35 -8 0 -31 11 -51 25 -20 14
-70 41 -110 62 -40 20 -90 49 -112 64 -22 17 -52 29 -69 29 -38 0 -173 65
-190 90 l-12 20 -135 -1 -135 0 -60 -44z m310 -149 c55 -19 127 -51 160 -70
33 -20 76 -41 95 -46 69 -19 259 -128 317 -181 28 -27 143 -89 163 -89 27 0
104 -44 140 -80 51 -51 65 -102 52 -192 -19 -125 -64 -158 -216 -158 -111 0
-148 12 -217 70 -30 25 -72 48 -115 61 -50 16 -79 32 -104 59 -19 21 -74 63
-122 95 -48 31 -107 74 -130 94 -24 21 -59 47 -79 59 -19 11 -50 41 -67 66
-18 25 -52 68 -76 96 -70 82 -85 172 -37 221 l29 29 54 0 c34 0 89 -12 153
-34z m1952 -1091 c19 -8 45 -15 57 -15 23 0 120 -31 171 -55 17 -8 57 -36 90
-64 33 -28 94 -68 135 -90 41 -21 103 -64 138 -95 34 -31 69 -56 77 -56 8 0
53 -39 102 -88 65 -65 91 -100 105 -137 21 -56 24 -145 6 -163 -8 -8 -48 -12
-113 -12 l-100 0 -61 29 c-34 16 -75 32 -92 36 -17 3 -76 36 -129 72 -54 37
-159 97 -233 134 -74 37 -157 86 -184 108 -26 23 -56 41 -66 41 -24 0 -206
181 -248 246 -38 61 -39 68 -7 99 l24 25 146 0 c107 0 155 -4 182 -15z"/>
</g>
</svg>
