<?xml version="1.0" standalone="no"?>
<!DOCTYPE svg PUBLIC "-//W3C//DTD SVG 20010904//EN"
 "http://www.w3.org/TR/2001/REC-SVG-20010904/DTD/svg10.dtd">
<svg version="1.0" xmlns="http://www.w3.org/2000/svg"
 width="252.000000pt" height="123.000000pt" viewBox="0 0 252.000000 123.000000"
 preserveAspectRatio="xMidYMid meet">
<metadata>
Created by potrace 1.16, written by Peter Selinger 2001-2019
</metadata>
<g transform="translate(0.000000,123.000000) scale(0.100000,-0.100000)"
fill="#000000" stroke="none">
<path d="M1687 1215 c-4 -8 -24 -26 -47 -40 -25 -16 -49 -42 -61 -68 l-21 -43
31 -63 c63 -124 173 -247 296 -329 38 -25 83 -58 100 -73 16 -14 45 -34 63
-43 18 -10 50 -32 70 -50 20 -18 54 -42 74 -55 20 -12 47 -38 59 -58 l22 -35
-14 -9 c-8 -5 -34 -9 -58 -9 l-44 0 -41 44 c-23 24 -52 46 -66 50 -32 8 -47
21 -88 74 l-34 42 -49 0 c-28 0 -59 -5 -70 -11 -11 -6 -41 -14 -67 -19 -57
-11 -122 -27 -182 -46 -25 -8 -68 -14 -96 -14 -28 0 -68 -7 -87 -15 -20 -8
-47 -15 -61 -15 -13 0 -53 -13 -88 -30 -40 -19 -79 -30 -106 -30 -24 0 -53 -5
-65 -12 -12 -6 -56 -15 -97 -19 -41 -4 -95 -13 -120 -19 -91 -25 -166 -49
-215 -70 -36 -15 -59 -19 -87 -15 -27 5 -58 0 -105 -16 -38 -12 -86 -25 -108
-30 -62 -12 -121 -28 -227 -62 l-98 -31 0 -48 0 -48 114 0 c66 0 117 4 121 10
3 5 19 10 34 10 16 0 45 7 64 15 20 8 47 15 60 15 14 0 46 9 72 21 36 16 58
19 90 14 l43 -6 54 27 c34 17 79 29 128 34 83 9 123 18 255 61 50 16 100 29
112 29 11 0 37 7 56 15 20 8 55 15 77 15 23 0 51 6 63 12 12 7 76 15 142 19
115 6 154 13 255 45 93 29 154 18 220 -42 14 -12 71 -45 127 -73 l103 -51 69
0 c38 0 82 -5 96 -10 27 -10 96 4 144 30 l21 11 0 69 0 69 -23 18 c-12 10 -37
37 -55 61 -19 23 -40 42 -47 42 -8 0 -47 32 -87 71 -39 39 -90 80 -113 91 -22
11 -60 37 -85 57 -25 20 -58 45 -74 55 -83 53 -244 224 -265 282 l-12 34 40
38 41 39 0 51 0 52 -74 0 c-55 0 -75 -4 -79 -15z"/>
</g>
</svg>
