<?xml version="1.0" standalone="no"?>
<!DOCTYPE svg PUBLIC "-//W3C//DTD SVG 20010904//EN"
 "http://www.w3.org/TR/2001/REC-SVG-20010904/DTD/svg10.dtd">
<svg version="1.0" xmlns="http://www.w3.org/2000/svg"
 width="213.000000pt" height="132.000000pt" viewBox="0 0 213.000000 132.000000"
 preserveAspectRatio="xMidYMid meet">
<metadata>
Created by potrace 1.16, written by Peter Selinger 2001-2019
</metadata>
<g transform="translate(0.000000,132.000000) scale(0.100000,-0.100000)"
fill="#000000" stroke="none">
<path d="M0 1255 c0 -36 4 -65 10 -65 5 0 25 -13 43 -30 19 -16 40 -30 46 -30
7 0 42 -18 79 -40 37 -23 86 -46 109 -52 24 -6 62 -27 85 -48 46 -39 98 -70
121 -70 31 0 139 -64 164 -97 26 -34 107 -83 137 -83 9 0 26 -14 38 -31 29
-40 143 -115 187 -124 21 -5 51 -25 80 -54 25 -26 67 -60 93 -74 26 -15 56
-41 68 -57 12 -17 47 -44 78 -59 32 -16 93 -60 138 -99 44 -38 109 -84 143
-102 35 -17 80 -43 100 -58 21 -15 58 -36 82 -46 24 -10 52 -22 61 -27 24 -12
195 -11 203 1 3 6 19 10 36 10 l29 0 0 98 0 99 -21 19 c-12 10 -27 31 -35 46
-8 14 -36 41 -63 60 -28 18 -144 125 -260 238 -115 113 -222 214 -236 224 -15
10 -41 48 -57 83 -36 81 -30 93 52 93 61 0 90 18 90 57 0 26 -21 44 -97 82
-78 39 -134 41 -203 6 -92 -47 -101 -93 -41 -214 25 -48 54 -89 76 -107 20
-16 49 -42 65 -59 16 -16 85 -85 152 -153 175 -174 176 -175 222 -223 24 -24
54 -52 68 -61 27 -18 78 -100 78 -125 0 -11 -5 -13 -17 -8 -10 4 -31 11 -48
15 -68 16 -112 36 -147 67 -21 18 -83 62 -139 99 -56 37 -116 79 -133 93 -17
15 -44 35 -61 46 -16 10 -60 47 -97 82 -37 34 -76 63 -86 63 -10 0 -29 12 -43
26 -34 36 -109 84 -131 84 -32 0 -153 76 -182 114 -18 24 -40 39 -69 47 -60
16 -145 62 -199 107 -26 22 -62 42 -81 46 -18 3 -57 26 -85 51 -84 71 -105 83
-190 111 -73 23 -132 61 -132 85 0 5 -18 9 -40 9 l-40 0 0 -65z"/>
</g>
</svg>
