<?xml version="1.0" standalone="no"?>
<!DOCTYPE svg PUBLIC "-//W3C//DTD SVG 20010904//EN"
 "http://www.w3.org/TR/2001/REC-SVG-20010904/DTD/svg10.dtd">
<svg version="1.0" xmlns="http://www.w3.org/2000/svg"
 width="678.000000pt" height="156.000000pt" viewBox="0 0 678.000000 156.000000"
 preserveAspectRatio="xMidYMid meet">
<metadata>
Created by potrace 1.16, written by Peter Selinger 2001-2019
</metadata>
<g transform="translate(0.000000,156.000000) scale(0.100000,-0.100000)"
fill="#000000" stroke="none">
<path d="M408 1516 c-16 -24 -28 -53 -28 -65 0 -31 88 -121 147 -150 87 -44
132 -96 113 -131 -16 -30 -85 -27 -134 6 -47 32 -351 184 -368 184 -7 0 -33
14 -58 30 -25 16 -53 30 -62 30 l-18 0 0 -85 c0 -55 4 -85 11 -85 6 0 40 -13
76 -30 35 -16 69 -30 75 -30 16 0 81 -32 115 -58 17 -13 47 -27 65 -33 19 -5
53 -25 75 -44 38 -33 102 -57 214 -83 90 -21 176 24 225 120 31 60 30 66 -7
140 -24 48 -28 63 -17 69 23 15 170 10 219 -8 l47 -16 41 16 c52 21 160 22
208 2 22 -9 67 -15 120 -15 52 0 97 -6 120 -15 l35 -15 295 0 294 0 36 -15
c19 -8 53 -15 75 -15 21 0 55 -7 75 -15 24 -10 71 -15 149 -15 81 0 125 -5
153 -16 32 -13 62 -15 143 -10 139 8 139 8 253 -2 55 -4 110 -13 122 -20 12
-7 60 -12 108 -12 53 0 99 -6 122 -15 19 -8 52 -15 73 -15 20 0 52 -5 70 -12
25 -8 45 -8 84 2 71 17 86 33 86 90 0 25 5 51 12 58 19 19 348 16 395 -3 19
-8 62 -15 95 -15 l59 0 27 -47 c31 -54 172 -198 253 -258 75 -56 109 -74 144
-75 17 0 50 -9 74 -20 57 -26 206 -28 254 -4 57 29 67 43 67 95 0 72 15 75
135 35 76 -26 103 -40 122 -65 24 -31 108 -81 136 -81 7 0 30 -20 51 -45 21
-25 55 -57 76 -70 22 -14 54 -48 73 -77 19 -29 55 -77 80 -107 26 -30 49 -69
53 -87 3 -18 19 -45 35 -60 16 -15 29 -33 29 -40 0 -7 20 -54 45 -105 25 -51
45 -101 45 -110 0 -10 10 -25 23 -34 75 -53 101 -65 137 -65 l40 0 0 55 c0 64
-29 159 -66 215 -14 21 -24 47 -22 57 l3 18 66 3 65 3 44 -33 c24 -18 62 -46
84 -62 23 -16 56 -42 74 -57 18 -16 42 -29 53 -29 12 0 42 -22 68 -49 56 -58
85 -68 146 -51 l45 13 0 68 0 69 -32 14 c-18 8 -45 19 -59 24 -15 6 -40 29
-55 53 -19 27 -49 52 -87 72 -32 16 -66 41 -75 55 -9 14 -39 47 -65 74 -51 52
-127 193 -127 238 0 38 26 68 70 80 43 12 80 51 80 85 0 27 -29 55 -58 55 -12
0 -42 5 -66 12 l-44 12 -41 -19 c-54 -24 -65 -39 -90 -112 -29 -85 -27 -129
10 -207 17 -36 29 -73 27 -83 l-3 -18 -93 -3 c-50 -1 -101 2 -111 8 -11 5 -45
48 -75 94 -55 84 -65 93 -177 176 -33 25 -85 64 -114 87 -30 23 -100 65 -157
94 -56 28 -116 62 -133 75 -16 12 -65 34 -108 48 -44 15 -109 47 -152 75 -128
86 -166 100 -300 107 -181 10 -292 21 -312 32 -12 7 -54 12 -93 12 -40 0 -86
6 -107 15 -22 9 -67 15 -120 15 -52 0 -97 6 -120 15 -27 11 -77 15 -204 15
-102 0 -187 5 -215 12 l-45 12 -47 -24 c-28 -15 -52 -37 -61 -55 -8 -16 -17
-37 -21 -45 l-7 -15 -387 -3 -386 -2 -36 15 c-21 8 -67 15 -106 15 -38 0 -84
7 -105 15 -23 10 -69 15 -134 15 -68 0 -111 5 -139 16 -30 12 -55 15 -98 10
-71 -9 -84 -9 -207 2 -55 4 -110 13 -122 20 -13 7 -63 12 -123 12 -67 0 -113
5 -137 15 -28 12 -84 15 -267 15 -172 0 -243 4 -276 14 -75 24 -132 37 -195
46 -59 8 -128 30 -141 43 -4 4 -28 7 -53 7 l-46 -1 -27 -43z m4389 -401 c19
-8 48 -15 63 -15 37 0 74 -32 94 -80 30 -76 1 -92 -91 -50 -35 16 -77 30 -93
30 -35 0 -77 35 -86 73 l-6 27 33 15 c43 18 42 18 86 0z"/>
</g>
</svg>
