<?xml version="1.0" standalone="no"?>
<!DOCTYPE svg PUBLIC "-//W3C//DTD SVG 20010904//EN"
 "http://www.w3.org/TR/2001/REC-SVG-20010904/DTD/svg10.dtd">
<svg version="1.0" xmlns="http://www.w3.org/2000/svg"
 width="222.000000pt" height="282.000000pt" viewBox="0 0 222.000000 282.000000"
 preserveAspectRatio="xMidYMid meet">
<metadata>
Created by potrace 1.16, written by Peter Selinger 2001-2019
</metadata>
<g transform="translate(0.000000,282.000000) scale(0.100000,-0.100000)"
fill="#000000" stroke="none">
<path d="M875 2810 c-4 -6 -58 -10 -130 -10 l-123 0 -31 -26 c-47 -40 -54 -58
-32 -86 l19 -23 139 -7 c76 -4 155 -10 176 -14 l38 -6 39 -62 c22 -33 40 -72
40 -86 0 -38 -26 -68 -70 -80 -49 -13 -80 -51 -80 -100 0 -48 15 -60 124 -94
64 -21 103 -40 141 -72 29 -23 73 -52 96 -65 58 -29 109 -70 194 -154 39 -38
83 -78 98 -88 15 -10 39 -41 53 -70 15 -29 49 -76 75 -105 27 -30 52 -66 55
-80 4 -15 17 -47 29 -72 13 -25 28 -63 34 -85 6 -23 29 -71 51 -107 l40 -67 0
-113 0 -113 -20 -43 c-32 -71 -59 -102 -87 -102 -13 0 -54 13 -90 30 -35 16
-74 30 -87 30 -12 0 -62 14 -111 31 l-89 31 -46 -16 c-25 -9 -58 -16 -74 -16
-21 0 -41 -12 -72 -44 l-44 -43 0 -37 c0 -56 32 -106 104 -163 93 -74 155 -93
299 -93 l114 0 49 21 49 22 35 -11 c89 -26 112 -41 159 -96 56 -66 97 -167 80
-197 -20 -38 -94 -25 -336 56 -152 51 -238 75 -270 75 -26 0 -88 13 -138 29
-102 33 -160 48 -225 61 -25 4 -58 14 -73 21 l-28 13 -48 -18 -49 -17 -37 15
c-53 23 -406 23 -458 1 -20 -8 -55 -15 -79 -15 -33 0 -56 -9 -108 -44 -78 -52
-150 -127 -150 -155 0 -11 -5 -23 -10 -26 -6 -3 -10 -38 -10 -77 l0 -70 25
-30 c14 -16 25 -41 25 -56 0 -14 5 -41 12 -59 l12 -33 73 0 73 0 0 44 c0 24
-7 60 -15 79 -20 49 -19 122 4 187 27 77 54 93 165 100 50 4 104 12 119 18 38
16 90 15 134 -3 27 -12 79 -15 222 -15 133 0 199 -4 231 -14 76 -24 133 -37
190 -45 30 -4 91 -19 135 -33 116 -38 164 -50 220 -55 37 -4 58 -12 80 -33 38
-35 206 -120 239 -120 14 0 37 -5 51 -10 32 -12 124 11 148 38 26 30 57 100
57 131 0 16 4 33 10 36 12 7 14 102 2 109 -4 2 -16 34 -27 71 l-20 67 -117
120 c-78 79 -118 127 -118 142 0 12 11 37 24 57 14 20 41 84 60 143 28 83 36
122 36 179 l0 72 -30 45 c-16 25 -30 55 -30 67 0 12 -11 57 -25 99 -14 44 -24
94 -23 118 l3 41 -33 3 -33 3 -31 55 c-17 31 -44 65 -60 77 -17 12 -42 42 -56
67 -33 59 -59 87 -106 117 -22 14 -60 44 -85 67 -25 23 -59 50 -76 61 -16 10
-50 37 -75 61 -25 23 -92 66 -149 95 -56 29 -105 58 -108 64 -2 7 7 38 21 70
20 45 26 74 26 132 0 93 -26 149 -102 215 -29 26 -66 59 -81 73 -21 19 -39 25
-72 25 -24 0 -47 -4 -50 -10z m557 -1994 c18 -8 47 -19 63 -26 l30 -12 -20 -9
c-36 -14 -89 -9 -122 11 -35 21 -41 35 -20 43 21 9 35 7 69 -7z"/>
</g>
</svg>
