<?xml version="1.0" standalone="no"?>
<!DOCTYPE svg PUBLIC "-//W3C//DTD SVG 20010904//EN"
 "http://www.w3.org/TR/2001/REC-SVG-20010904/DTD/svg10.dtd">
<svg version="1.0" xmlns="http://www.w3.org/2000/svg"
 width="405.000000pt" height="288.000000pt" viewBox="0 0 405.000000 288.000000"
 preserveAspectRatio="xMidYMid meet">
<metadata>
Created by potrace 1.16, written by Peter Selinger 2001-2019
</metadata>
<g transform="translate(0.000000,288.000000) scale(0.100000,-0.100000)"
fill="#000000" stroke="none">
<path d="M1398 2853 c-63 -68 -75 -150 -34 -231 29 -56 205 -232 232 -232 11
0 57 -25 102 -55 109 -72 155 -95 191 -95 20 0 34 -7 41 -21 l11 -20 -30 -66
c-35 -73 -38 -104 -16 -156 8 -20 15 -47 15 -61 0 -13 13 -53 30 -88 16 -34
30 -71 30 -81 0 -10 28 -48 63 -85 34 -37 72 -81 84 -98 12 -17 37 -41 56 -54
19 -13 44 -39 57 -59 13 -20 56 -70 95 -112 38 -42 86 -93 106 -115 70 -77
182 -169 222 -184 27 -10 50 -29 72 -60 21 -30 44 -49 68 -57 20 -7 81 -42
136 -78 54 -35 106 -68 115 -71 44 -17 -17 -74 -78 -74 -13 0 -40 -7 -59 -15
l-36 -15 -288 0 c-221 0 -299 3 -333 14 -94 30 -138 38 -225 45 -49 4 -100 12
-112 19 -12 7 -59 12 -105 12 -46 0 -103 6 -128 14 -58 18 -124 35 -180 46
-25 5 -82 27 -128 49 -45 23 -88 41 -94 41 -6 0 -36 12 -68 26 -66 30 -96 29
-118 -4 l-15 -23 85 -84 84 -85 50 0 c38 0 59 -7 94 -30 25 -16 56 -30 70 -30
14 0 45 -6 70 -14 60 -19 125 -35 182 -46 26 -5 56 -13 67 -19 12 -7 90 -11
198 -11 l178 0 63 -30 64 -30 313 0 313 0 35 15 c20 8 61 15 90 15 30 0 71 7
90 15 26 11 74 15 174 15 l137 0 91 -29 c190 -61 233 -68 285 -47 22 9 60 16
84 16 l44 0 56 46 56 46 0 67 -1 66 -77 71 c-94 86 -128 105 -212 117 -82 12
-118 12 -203 0 l-68 -9 -42 -47 c-68 -73 -141 -88 -210 -42 -20 14 -72 43
-116 65 -43 22 -103 61 -132 88 -30 26 -88 70 -129 97 -74 48 -250 212 -454
424 -83 87 -114 128 -151 198 -25 48 -61 107 -80 131 l-35 44 0 103 0 103 35
26 c39 30 75 92 75 129 0 16 -14 38 -40 61 l-40 36 -43 0 c-24 0 -81 13 -127
30 -47 16 -96 30 -108 30 -49 0 -114 40 -234 143 -74 64 -88 100 -88 227 l0
100 -73 0 -73 0 -26 -27z m2353 -2080 c33 -9 71 -27 85 -40 l25 -23 -11 -20
-11 -20 -86 0 c-68 0 -95 4 -130 22 -54 27 -52 44 7 74 54 28 47 28 121 7z"/>
<path d="M138 554 c-35 -31 -80 -65 -100 -75 l-38 -19 0 -119 0 -118 38 -41
39 -42 40 0 c59 0 73 21 73 111 1 115 44 189 111 189 15 0 43 7 62 15 20 8 61
15 90 15 30 0 71 7 90 15 46 19 128 19 174 0 20 -8 66 -15 105 -15 38 0 84 -7
105 -15 24 -10 71 -15 147 -15 l111 0 72 -25 c39 -13 90 -33 112 -44 22 -12
51 -21 64 -21 12 0 61 -13 107 -30 47 -16 101 -30 120 -30 45 0 142 -34 189
-66 19 -13 42 -24 51 -24 8 0 35 -14 60 -30 25 -16 59 -30 75 -30 36 0 168
-83 186 -117 l12 -23 59 0 58 0 0 35 0 36 -47 50 c-26 28 -70 62 -96 76 -27
13 -67 38 -90 54 -22 16 -47 29 -55 29 -9 0 -45 13 -81 29 -193 83 -383 150
-431 151 -19 0 -55 6 -80 14 -58 18 -124 35 -175 45 -22 4 -56 12 -75 18 -52
16 -119 33 -172 43 -26 5 -56 13 -67 19 -13 7 -149 11 -400 11 l-380 0 -63
-56z"/>
</g>
</svg>
