<?xml version="1.0" standalone="no"?>
<!DOCTYPE svg PUBLIC "-//W3C//DTD SVG 20010904//EN"
 "http://www.w3.org/TR/2001/REC-SVG-20010904/DTD/svg10.dtd">
<svg version="1.0" xmlns="http://www.w3.org/2000/svg"
 width="186.000000pt" height="351.000000pt" viewBox="0 0 186.000000 351.000000"
 preserveAspectRatio="xMidYMid meet">
<metadata>
Created by potrace 1.16, written by Peter Selinger 2001-2019
</metadata>
<g transform="translate(0.000000,351.000000) scale(0.100000,-0.100000)"
fill="#000000" stroke="none">
<path d="M23 3496 l-23 -11 0 -52 0 -53 41 0 c24 0 67 -12 102 -28 34 -16 74
-32 89 -36 15 -3 38 -20 50 -37 13 -17 46 -46 75 -65 l52 -33 7 -47 7 -47 -32
-64 c-17 -35 -31 -66 -31 -69 0 -18 118 -125 190 -172 46 -31 108 -77 136
-102 28 -25 70 -57 92 -72 22 -15 57 -54 78 -85 58 -89 94 -133 110 -133 19 0
134 -116 134 -135 0 -8 20 -29 44 -47 24 -18 54 -49 67 -68 13 -19 43 -59 66
-87 23 -29 49 -74 57 -100 8 -27 25 -73 39 -103 28 -61 43 -130 29 -130 -5 0
-26 7 -45 15 -20 8 -48 15 -63 15 -14 0 -55 13 -91 30 -35 16 -75 30 -89 30
-14 0 -41 7 -61 15 -20 8 -66 15 -105 15 -38 0 -84 7 -105 15 -45 19 -81 19
-126 0 -20 -8 -49 -15 -65 -15 -38 0 -172 -106 -195 -155 -12 -25 -17 -61 -17
-124 l0 -89 30 -64 c16 -34 30 -70 30 -79 0 -9 13 -34 29 -56 16 -23 41 -64
55 -92 17 -33 40 -60 66 -76 22 -14 51 -43 65 -65 16 -26 43 -49 78 -66 28
-15 66 -37 82 -49 17 -13 63 -39 102 -59 l73 -36 145 0 146 0 47 -21 c28 -13
79 -54 128 -103 l80 -81 22 -66 c12 -36 22 -75 22 -86 0 -11 7 -37 15 -56 22
-54 19 -77 -22 -158 l-38 -74 -61 -41 c-34 -23 -73 -44 -88 -48 -37 -9 -33
-38 8 -70 36 -27 98 -35 134 -17 9 5 41 19 70 32 55 24 122 87 122 115 0 24
37 98 59 118 l21 19 0 99 c0 54 -4 106 -10 116 -5 9 -19 46 -31 82 -34 105
-88 194 -163 265 -23 23 -50 62 -60 89 l-19 49 14 21 c54 86 69 123 69 179 0
32 7 74 15 94 19 44 21 263 3 296 -6 12 -14 48 -19 82 -16 129 -62 269 -105
318 -19 23 -39 57 -44 76 -6 24 -32 59 -75 101 -36 36 -82 88 -101 117 -19 28
-48 62 -65 75 -59 44 -89 77 -89 96 0 12 -18 34 -42 54 -53 41 -66 56 -74 88
-8 31 -33 60 -51 60 -30 0 -102 41 -152 86 -28 25 -69 58 -90 73 -21 14 -66
51 -100 82 l-61 56 0 134 0 134 -89 93 c-55 56 -97 92 -109 92 -12 0 -29 11
-39 24 -25 31 -94 66 -132 66 -16 0 -33 5 -36 10 -8 13 -154 10 -182 -4z
m1047 -1823 c30 -14 78 -40 105 -58 28 -18 70 -44 95 -57 25 -14 56 -40 70
-60 14 -19 40 -54 58 -78 17 -24 32 -54 32 -67 0 -34 -27 -77 -60 -97 -35 -20
-119 -21 -167 -1 -51 21 -156 20 -175 -2 -28 -31 -69 -124 -66 -146 l3 -22 35
3 35 3 33 -34 c23 -23 30 -37 22 -42 -13 -8 -63 10 -102 37 -14 10 -37 18 -51
18 -83 0 -327 354 -327 473 0 66 58 137 128 157 15 4 83 5 152 2 l125 -5 55
-24z"/>
</g>
</svg>
