<?xml version="1.0" standalone="no"?>
<!DOCTYPE svg PUBLIC "-//W3C//DTD SVG 20010904//EN"
 "http://www.w3.org/TR/2001/REC-SVG-20010904/DTD/svg10.dtd">
<svg version="1.0" xmlns="http://www.w3.org/2000/svg"
 width="474.000000pt" height="345.000000pt" viewBox="0 0 474.000000 345.000000"
 preserveAspectRatio="xMidYMid meet">
<metadata>
Created by potrace 1.16, written by Peter Selinger 2001-2019
</metadata>
<g transform="translate(0.000000,345.000000) scale(0.100000,-0.100000)"
fill="#000000" stroke="none">
<path d="M1780 3404 c-19 -67 -9 -78 81 -85 41 -3 90 -14 109 -25 51 -26 138
-117 160 -166 27 -59 25 -86 -10 -138 -16 -25 -30 -55 -30 -68 0 -28 51 -82
77 -82 10 0 56 -25 102 -56 46 -30 106 -67 133 -81 27 -14 57 -37 66 -50 9
-13 34 -45 55 -71 21 -26 40 -58 44 -72 9 -39 33 -82 61 -112 29 -32 62 -118
62 -165 0 -19 20 -93 45 -166 25 -73 45 -143 45 -154 0 -12 13 -50 30 -85 18
-38 30 -79 30 -104 0 -23 7 -58 15 -77 8 -20 15 -49 15 -64 0 -16 12 -45 26
-66 14 -21 32 -59 39 -85 l14 -47 -13 -13 -14 -14 -67 31 c-36 17 -72 31 -78
31 -7 0 -25 9 -42 21 -43 29 -182 99 -197 99 -7 0 -33 14 -58 30 -25 16 -52
30 -60 30 -9 0 -32 11 -52 25 -20 14 -71 36 -113 50 -42 13 -89 34 -104 45
-37 25 -227 120 -243 120 -6 0 -80 33 -162 73 -83 41 -162 77 -176 80 -14 4
-47 24 -74 47 -26 22 -56 40 -65 40 -9 0 -36 14 -61 30 -25 16 -51 30 -58 30
-20 0 -82 30 -126 62 -21 15 -45 28 -53 28 -8 0 -44 14 -80 30 -35 17 -70 30
-76 30 -7 0 -29 11 -50 25 -45 31 -232 125 -248 125 -19 0 -138 59 -172 84
-18 14 -63 35 -102 47 -38 12 -83 34 -100 49 -33 30 -86 60 -107 60 -7 0 -33
14 -58 30 -34 23 -56 30 -92 30 l-48 0 0 -54 0 -54 35 -26 c19 -15 55 -33 80
-40 25 -8 89 -44 143 -80 54 -36 104 -66 112 -66 23 0 192 -84 240 -119 24
-17 50 -31 58 -31 22 0 196 -85 243 -120 23 -16 49 -30 57 -30 22 0 196 -85
243 -120 23 -16 49 -30 57 -30 22 0 196 -85 243 -120 23 -16 49 -30 57 -30 22
0 196 -85 243 -120 23 -16 49 -30 57 -30 9 0 85 -34 169 -75 85 -41 159 -75
165 -75 16 0 145 -66 208 -106 30 -19 71 -39 90 -44 42 -11 134 -57 210 -106
30 -19 71 -39 90 -44 56 -15 146 -64 255 -138 l100 -67 13 -40 c7 -23 31 -57
56 -80 24 -22 51 -56 61 -75 33 -64 79 -124 165 -215 47 -50 116 -128 155
-174 38 -46 87 -94 107 -107 21 -13 49 -41 62 -62 34 -53 102 -107 206 -163
25 -13 63 -36 84 -51 23 -17 52 -28 72 -28 18 0 36 -4 39 -10 8 -13 162 -13
170 0 3 6 26 10 51 10 48 0 121 31 141 61 7 9 35 31 63 48 47 29 90 88 90 125
0 8 11 28 25 44 l25 30 0 152 0 152 -25 30 c-14 16 -25 39 -25 50 0 39 -213
233 -387 355 -25 17 -57 42 -72 56 -14 14 -41 32 -60 42 -19 9 -52 30 -74 46
-22 16 -47 29 -56 29 -9 0 -81 32 -161 71 -283 138 -363 144 -415 29 l-19 -42
12 -44 c14 -52 15 -94 3 -112 l-8 -13 -58 16 c-71 21 -135 82 -160 153 -9 26
-26 67 -37 92 -11 25 -34 85 -49 133 -16 48 -36 102 -44 118 -28 54 -65 173
-65 210 0 20 -7 53 -15 72 -8 20 -15 47 -15 61 0 14 -20 66 -45 117 -25 51
-45 103 -45 116 0 60 -106 298 -150 338 -12 11 -34 40 -48 65 -31 56 -214 240
-237 240 -26 0 -77 35 -104 70 l-23 32 12 42 12 42 -22 63 c-21 64 -81 161
-122 197 -21 19 -70 52 -175 117 l-43 27 -113 0 -114 0 -13 -46z m2058 -2231
c21 -9 51 -27 67 -39 17 -12 64 -39 105 -60 74 -37 127 -72 185 -125 17 -15
44 -30 62 -34 46 -9 222 -187 279 -281 l45 -74 2 -93 2 -93 -28 -40 c-73 -105
-97 -131 -138 -151 -52 -27 -132 -30 -186 -8 -19 8 -55 15 -78 15 l-43 0 -26
35 c-15 20 -54 49 -87 66 -71 35 -212 166 -264 245 -19 29 -48 62 -63 73 -16
11 -44 48 -62 83 -18 35 -52 81 -76 104 -46 43 -49 50 -35 73 l9 14 34 -13
c18 -8 47 -24 63 -36 96 -70 169 -82 216 -35 43 43 40 90 -8 146 -52 58 -101
213 -76 238 12 13 64 7 101 -10z"/>
</g>
</svg>
