<?xml version="1.0" standalone="no"?>
<!DOCTYPE svg PUBLIC "-//W3C//DTD SVG 20010904//EN"
 "http://www.w3.org/TR/2001/REC-SVG-20010904/DTD/svg10.dtd">
<svg version="1.0" xmlns="http://www.w3.org/2000/svg"
 width="405.000000pt" height="285.000000pt" viewBox="0 0 405.000000 285.000000"
 preserveAspectRatio="xMidYMid meet">
<metadata>
Created by potrace 1.16, written by Peter Selinger 2001-2019
</metadata>
<g transform="translate(0.000000,285.000000) scale(0.100000,-0.100000)"
fill="#000000" stroke="none">
<path d="M245 2823 c-126 -82 -150 -101 -186 -151 -26 -37 -39 -66 -39 -88 0
-18 -4 -36 -10 -39 -6 -4 -10 -68 -10 -160 0 -92 4 -156 10 -160 6 -3 10 -31
10 -61 0 -59 30 -162 60 -204 24 -33 90 -226 90 -261 0 -14 13 -44 30 -67 16
-22 52 -87 81 -143 28 -57 68 -123 89 -149 21 -25 58 -85 84 -135 25 -49 65
-112 89 -140 24 -27 47 -62 50 -77 4 -15 25 -41 46 -58 21 -17 56 -57 77 -88
21 -31 86 -107 145 -167 58 -61 113 -124 122 -140 19 -38 256 -270 361 -354
43 -35 93 -67 110 -72 17 -5 59 -31 93 -59 l61 -51 72 3 72 3 -45 61 c-36 49
-52 63 -80 68 -19 4 -54 23 -78 44 -72 61 -142 116 -185 145 -48 32 -212 198
-240 242 -32 51 -102 135 -203 243 -111 119 -148 171 -157 218 -4 23 -19 44
-45 65 -22 17 -42 43 -45 57 -12 49 -96 206 -132 247 -19 22 -43 63 -52 90
-27 78 -58 150 -116 275 -56 120 -94 222 -94 253 0 10 -20 77 -45 150 -48 143
-55 203 -30 264 8 19 15 47 15 62 0 37 63 165 91 185 13 9 35 16 50 16 15 0
43 7 62 15 27 11 76 15 192 15 116 0 165 -4 192 -15 19 -8 65 -15 102 -15 50
0 94 -10 183 -40 64 -21 135 -48 157 -59 22 -12 51 -21 63 -21 33 0 133 -36
176 -64 20 -13 52 -27 70 -31 17 -4 55 -23 84 -42 28 -20 66 -40 84 -45 18 -5
58 -31 88 -59 31 -28 70 -55 88 -60 18 -5 54 -26 80 -46 56 -45 126 -97 182
-137 23 -15 69 -55 103 -87 34 -33 70 -59 80 -59 24 0 43 -19 43 -42 0 -25 57
-86 103 -109 47 -25 170 -146 193 -192 9 -17 40 -57 69 -87 61 -63 191 -253
240 -351 18 -36 41 -72 51 -80 27 -22 87 -108 122 -174 18 -33 55 -86 83 -119
27 -32 57 -73 66 -90 9 -17 63 -79 121 -138 l106 -107 63 -20 c41 -14 89 -21
136 -21 l72 0 50 28 c30 16 55 39 64 57 7 17 22 46 33 65 10 19 30 60 45 90
14 30 30 63 34 72 12 23 12 255 0 262 -5 3 -11 23 -14 43 -9 69 -79 295 -125
408 -11 28 -26 66 -34 85 -7 19 -29 53 -49 75 -20 22 -64 81 -97 131 -34 50
-73 101 -87 114 -14 13 -25 31 -25 40 0 16 -119 140 -175 182 -16 12 -59 47
-95 78 -36 31 -82 69 -102 84 -21 16 -47 44 -59 63 l-21 34 16 42 c9 25 16 73
16 115 l0 72 -40 79 c-39 79 -69 111 -101 111 -10 0 -26 11 -36 24 -11 13 -38
33 -61 45 l-41 21 -96 0 -96 0 -25 -25 -25 -25 11 -20 c14 -26 101 -70 138
-70 78 0 222 -173 192 -230 -8 -15 -21 -20 -56 -20 -45 0 -110 -26 -133 -54
-7 -8 -11 -32 -9 -52 2 -31 10 -43 37 -61 18 -13 48 -27 66 -32 61 -16 239
-144 351 -250 61 -58 123 -114 137 -124 15 -10 39 -41 53 -70 15 -28 44 -72
64 -97 21 -25 62 -92 90 -150 29 -58 65 -123 81 -145 28 -39 139 -353 139
-393 0 -11 7 -36 15 -55 8 -20 15 -66 15 -102 0 -36 -7 -82 -15 -102 -8 -19
-15 -47 -15 -61 0 -33 -34 -86 -72 -113 l-30 -22 -35 12 c-41 15 -163 97 -180
121 -7 10 -43 53 -81 96 -37 44 -93 119 -125 166 -31 48 -70 96 -87 108 -16
12 -30 28 -30 36 0 24 -36 87 -64 113 -14 14 -26 31 -26 40 0 23 -147 238
-179 260 -16 11 -31 33 -34 49 -4 18 -31 52 -74 92 -37 35 -77 77 -88 94 -19
30 -140 161 -198 215 -15 14 -49 47 -75 72 -59 58 -130 109 -151 109 -9 0 -34
20 -54 45 -21 25 -73 67 -115 94 -71 46 -101 67 -184 129 -17 12 -47 26 -68
32 -20 5 -54 25 -76 43 -40 36 -173 107 -197 107 -8 0 -64 25 -126 55 -111 54
-371 147 -444 158 -20 3 -50 15 -66 26 l-29 21 -329 -1 -328 0 -40 -26z"/>
</g>
</svg>
