<?xml version="1.0" standalone="no"?>
<!DOCTYPE svg PUBLIC "-//W3C//DTD SVG 20010904//EN"
 "http://www.w3.org/TR/2001/REC-SVG-20010904/DTD/svg10.dtd">
<svg version="1.0" xmlns="http://www.w3.org/2000/svg"
 width="369.000000pt" height="288.000000pt" viewBox="0 0 369.000000 288.000000"
 preserveAspectRatio="xMidYMid meet">
<metadata>
Created by potrace 1.16, written by Peter Selinger 2001-2019
</metadata>
<g transform="translate(0.000000,288.000000) scale(0.100000,-0.100000)"
fill="#000000" stroke="none">
<path d="M1960 2859 c-19 -34 -8 -62 35 -86 22 -12 51 -23 65 -23 67 0 242
-90 280 -144 8 -11 28 -37 45 -56 27 -30 55 -95 55 -126 0 -5 -18 -31 -40 -58
l-40 -48 0 -55 0 -55 29 -29 c16 -16 38 -29 48 -29 10 0 32 -9 48 -21 17 -11
61 -36 98 -55 43 -22 90 -58 130 -99 35 -36 71 -65 81 -65 9 0 43 -26 75 -57
32 -32 82 -76 112 -98 81 -62 182 -193 325 -425 53 -87 104 -195 104 -223 0
-13 7 -41 15 -60 22 -54 21 -308 -1 -347 -20 -33 -63 -60 -97 -60 -13 0 -41
-7 -60 -15 -20 -8 -54 -15 -75 -15 -22 0 -56 -7 -75 -15 -20 -8 -62 -15 -92
-15 -31 0 -65 -5 -76 -11 -11 -6 -41 -14 -67 -19 -57 -11 -122 -27 -182 -46
-25 -8 -68 -14 -96 -14 -28 0 -68 -7 -87 -15 -27 -11 -75 -15 -180 -15 -106 0
-154 -4 -180 -15 -23 -9 -68 -15 -120 -15 -53 0 -98 -6 -120 -15 -20 -8 -61
-15 -90 -15 -30 0 -71 -7 -90 -15 -20 -8 -54 -15 -75 -15 -22 0 -56 -7 -75
-15 -21 -8 -67 -15 -105 -15 -39 0 -85 -7 -105 -15 -21 -8 -67 -15 -105 -15
-39 0 -85 -7 -105 -15 -25 -10 -72 -15 -152 -15 -69 0 -125 -5 -138 -12 -12
-6 -48 -14 -82 -19 -62 -8 -117 -20 -195 -45 -25 -8 -68 -14 -96 -14 -28 0
-68 -7 -87 -15 -20 -8 -54 -15 -75 -15 -22 0 -56 -7 -75 -15 -20 -8 -61 -15
-92 -15 -73 0 -175 -48 -175 -83 0 -35 97 -67 115 -37 3 6 46 10 94 10 56 0
102 6 124 15 21 8 67 15 105 15 39 0 85 7 105 15 23 9 68 15 120 15 53 0 98 6
120 15 20 8 61 15 90 15 30 0 71 7 90 15 21 8 67 15 105 15 39 0 85 7 105 15
20 8 54 15 75 15 22 0 56 7 75 15 21 8 67 15 105 15 39 0 85 7 105 15 27 11
75 15 180 15 106 0 154 4 180 15 21 8 67 15 105 15 39 0 85 7 105 15 23 9 68
15 120 15 53 0 98 6 120 15 20 8 54 15 75 15 22 0 56 7 75 15 20 8 54 15 75
15 22 0 56 7 75 15 20 8 54 15 75 15 22 0 56 7 75 15 26 11 73 15 165 15 93 0
140 4 165 15 20 8 54 15 75 15 22 0 56 7 75 15 26 11 74 15 171 15 l135 0 33
44 c18 25 43 50 56 57 l22 12 0 93 c0 51 -4 96 -10 99 -5 3 -10 26 -10 49 0
24 -6 59 -14 78 -16 37 -23 168 -12 208 l8 26 -34 14 -33 15 -6 40 c-6 49 -31
97 -76 149 -18 22 -37 54 -42 71 -15 54 -130 212 -215 295 -32 32 -72 71 -88
88 -190 188 -210 207 -270 250 -31 23 -60 46 -63 52 -4 6 -25 22 -48 37 -23
14 -54 37 -70 51 -15 14 -41 31 -59 37 -51 17 -55 35 -25 107 34 79 34 110 -2
173 -41 74 -58 107 -70 138 -6 15 -25 36 -42 45 -30 17 -79 51 -129 92 -30 24
-154 69 -192 70 -15 0 -30 5 -33 10 -3 6 -46 10 -95 10 l-89 0 -11 -21z"/>
</g>
</svg>
