<?xml version="1.0" standalone="no"?>
<!DOCTYPE svg PUBLIC "-//W3C//DTD SVG 20010904//EN"
 "http://www.w3.org/TR/2001/REC-SVG-20010904/DTD/svg10.dtd">
<svg version="1.0" xmlns="http://www.w3.org/2000/svg"
 width="630.000000pt" height="168.000000pt" viewBox="0 0 630.000000 168.000000"
 preserveAspectRatio="xMidYMid meet">
<metadata>
Created by potrace 1.16, written by Peter Selinger 2001-2019
</metadata>
<g transform="translate(0.000000,168.000000) scale(0.100000,-0.100000)"
fill="#000000" stroke="none">
<path d="M5537 1652 l-27 -28 0 -108 c0 -118 8 -143 66 -209 19 -20 34 -44 34
-52 l0 -15 -85 0 c-54 0 -99 6 -122 15 -19 8 -52 15 -72 15 -20 0 -56 6 -81
14 -60 19 -125 35 -182 46 -26 5 -56 13 -67 19 -11 6 -65 11 -121 11 -67 0
-113 5 -137 15 l-35 15 -373 0 -373 0 -35 -15 c-20 -8 -52 -15 -72 -15 -41 0
-136 -30 -209 -67 -85 -42 -176 -144 -176 -198 0 -8 -12 -21 -26 -27 l-26 -12
-48 17 c-36 13 -81 17 -189 17 -103 0 -151 4 -178 15 -23 10 -69 15 -135 15
-65 0 -111 5 -135 15 -19 8 -60 15 -90 15 -29 0 -70 7 -90 15 -22 9 -67 15
-120 15 -52 0 -97 6 -120 15 -27 11 -77 15 -210 15 -132 0 -182 4 -210 15 -28
12 -84 15 -270 15 -185 0 -241 3 -270 15 -27 12 -79 15 -225 15 -145 0 -197 3
-225 15 -26 11 -76 15 -195 15 -118 0 -168 4 -195 15 -24 10 -71 15 -150 15
-78 0 -125 5 -150 15 -57 24 -119 19 -169 -12 l-43 -28 -1 -87 0 -87 25 -28
c14 -15 107 -111 207 -213 99 -102 191 -201 203 -220 12 -20 39 -47 59 -60 31
-22 43 -39 76 -110 11 -25 82 -60 121 -60 46 0 69 25 69 74 l0 37 -63 67 c-34
37 -85 101 -112 142 -27 41 -69 100 -92 130 -103 133 -120 157 -133 188 l-13
34 14 9 c8 5 150 9 317 9 l303 0 36 -15 c28 -12 82 -15 255 -15 172 0 226 -3
255 -15 27 -11 77 -15 210 -15 132 0 182 -4 210 -15 28 -12 82 -15 255 -15
172 0 226 -3 255 -15 20 -8 66 -15 105 -15 38 0 84 -7 105 -15 20 -8 66 -15
105 -15 38 0 84 -7 105 -15 19 -8 60 -15 90 -15 29 0 70 -7 90 -15 20 -8 66
-15 105 -15 38 0 84 -7 105 -15 23 -10 69 -15 135 -15 l99 0 65 -37 c35 -21
128 -80 205 -130 145 -96 209 -133 231 -133 21 0 132 -55 178 -89 33 -23 54
-31 87 -31 24 0 60 -7 80 -15 56 -24 145 -19 203 10 66 34 80 56 80 133 0 102
-43 164 -190 274 -42 32 -146 68 -195 68 -20 0 -52 7 -72 15 -19 8 -60 15 -90
15 -29 0 -70 7 -90 15 -19 8 -59 15 -87 15 -46 0 -130 22 -163 43 -7 5 -13 20
-13 35 0 68 73 111 186 112 42 0 87 7 109 15 29 13 44 14 69 5 23 -7 41 -7 60
0 16 6 119 10 242 10 168 0 222 -3 251 -15 26 -11 76 -15 195 -15 118 0 168
-4 195 -15 19 -8 52 -15 72 -15 20 0 56 -6 81 -14 58 -18 124 -35 175 -45 22
-4 56 -12 75 -18 51 -16 119 -33 170 -43 25 -4 70 -19 100 -33 85 -38 155 -66
272 -106 81 -29 120 -48 163 -84 62 -51 71 -53 122 -35 l33 12 -1 91 0 90
-124 59 -123 59 -67 73 c-36 41 -74 74 -84 74 -11 0 -37 24 -61 58 -24 31 -63
75 -86 98 l-44 41 0 45 c0 48 9 62 51 71 14 4 41 17 60 30 27 18 35 30 37 60
l3 37 -149 0 -148 0 -27 -28z m-1340 -897 c19 -8 48 -15 64 -15 21 0 34 -9 54
-37 31 -47 32 -63 1 -63 -23 0 -183 77 -214 102 l-13 11 13 8 c20 13 55 11 95
-6z"/>
<path d="M3678 179 c-30 -17 -21 -54 22 -93 l40 -36 75 0 c45 0 90 -6 112 -15
22 -9 68 -15 124 -15 48 0 91 -4 94 -10 4 -6 172 -10 471 -10 l464 0 0 36 c0
26 -8 43 -29 65 l-29 29 -62 0 c-33 0 -77 7 -97 15 -27 12 -79 15 -225 15
-145 0 -197 3 -225 15 l-35 15 -342 0 c-213 0 -348 -4 -358 -11z"/>
</g>
</svg>
