<?xml version="1.0" standalone="no"?>
<!DOCTYPE svg PUBLIC "-//W3C//DTD SVG 20010904//EN"
 "http://www.w3.org/TR/2001/REC-SVG-20010904/DTD/svg10.dtd">
<svg version="1.0" xmlns="http://www.w3.org/2000/svg"
 width="861.000000pt" height="243.000000pt" viewBox="0 0 861.000000 243.000000"
 preserveAspectRatio="xMidYMid meet">
<metadata>
Created by potrace 1.16, written by Peter Selinger 2001-2019
</metadata>
<g transform="translate(0.000000,243.000000) scale(0.100000,-0.100000)"
fill="#000000" stroke="none">
<path d="M0 2406 c0 -30 97 -136 125 -136 10 0 33 -13 50 -29 16 -16 73 -51
125 -77 52 -26 109 -57 125 -70 37 -28 220 -119 257 -128 15 -3 39 -22 54 -42
15 -19 41 -42 58 -51 46 -23 162 -101 176 -117 6 -9 9 -20 5 -26 -8 -13 -235
-13 -270 0 -40 15 -124 -12 -162 -53 -38 -40 -73 -108 -73 -142 0 -46 41 -149
80 -200 61 -81 231 -250 281 -278 25 -14 58 -42 73 -61 19 -26 40 -39 71 -47
26 -7 63 -27 87 -49 24 -20 58 -45 77 -55 19 -9 52 -30 74 -46 25 -18 52 -29
73 -29 22 0 46 -11 76 -35 56 -45 131 -85 160 -85 13 0 43 -6 68 -14 85 -27
135 -38 215 -48 151 -18 208 -11 307 38 81 41 137 111 158 199 l13 56 -39 82
c-21 45 -53 97 -70 117 -18 19 -45 58 -61 85 -16 28 -42 56 -59 64 -48 23 -49
24 -105 70 -155 126 -155 131 1 131 76 0 122 -5 147 -15 20 -8 66 -15 105 -15
38 0 84 -7 105 -15 22 -9 67 -15 120 -15 52 0 97 -6 120 -15 19 -8 52 -15 72
-15 40 0 126 -27 209 -66 29 -13 62 -24 74 -24 11 0 40 20 64 44 l44 43 0 37
c0 63 -6 69 -197 189 l-43 27 0 44 0 45 28 19 c47 33 178 92 204 92 14 0 42 7
61 15 l36 15 426 0 426 0 36 -15 c19 -8 65 -15 102 -15 36 0 86 -6 111 -14 77
-24 133 -37 190 -45 30 -4 71 -12 90 -18 82 -26 130 -36 215 -42 50 -4 100
-12 112 -19 12 -7 39 -12 60 -12 41 0 157 -36 222 -69 22 -12 52 -21 66 -21
14 0 42 -7 62 -15 19 -8 60 -15 90 -15 40 0 73 -8 120 -30 35 -16 70 -30 76
-30 7 0 37 -12 67 -26 83 -39 165 -64 207 -64 25 0 53 -10 83 -30 25 -16 52
-30 60 -30 8 0 35 -14 60 -30 25 -16 52 -30 60 -30 29 0 40 -23 40 -82 l0 -58
54 -108 54 -107 110 -107 c60 -60 113 -108 119 -108 5 0 61 -47 124 -104 64
-59 125 -107 140 -110 14 -3 51 -28 82 -55 36 -34 99 -73 188 -118 74 -37 152
-79 173 -95 l39 -28 98 0 98 0 36 32 c55 48 85 115 85 191 l0 63 -30 29 c-17
16 -30 34 -30 41 0 6 -9 31 -20 55 -11 24 -20 50 -20 57 0 38 150 -21 239 -94
29 -24 60 -44 68 -44 26 0 87 -32 135 -72 25 -21 87 -59 137 -84 50 -25 117
-68 149 -95 31 -27 86 -64 122 -83 36 -19 99 -64 140 -100 l75 -66 70 0 70 0
13 27 c6 15 12 51 12 80 l0 52 -30 16 c-16 8 -34 15 -40 15 -26 0 -100 42
-126 72 -16 18 -48 50 -71 73 -23 22 -52 55 -65 74 -13 18 -50 47 -83 65 -33
18 -68 45 -78 62 -70 111 -89 144 -108 184 l-22 44 14 26 c9 14 31 30 54 38
52 17 75 39 75 73 0 45 -40 69 -114 69 -54 -1 -139 -22 -174 -43 -7 -5 -21
-26 -32 -47 -22 -44 -27 -140 -10 -186 8 -21 8 -31 -4 -42 l-14 -14 -45 23
c-77 41 -147 83 -206 121 -31 21 -62 38 -69 38 -19 0 -81 30 -117 56 -37 27
-170 94 -187 94 -7 0 -33 14 -58 30 -25 16 -52 30 -60 30 -8 0 -57 20 -108 45
-52 25 -98 45 -104 45 -5 0 -39 13 -75 30 -35 16 -70 30 -76 30 -7 0 -29 11
-49 25 -20 14 -72 36 -115 50 -43 14 -102 37 -131 50 -29 14 -64 25 -79 25
-14 0 -65 18 -112 41 -97 46 -190 79 -222 79 -11 0 -47 16 -78 35 -71 44 -183
85 -234 85 -21 0 -63 11 -93 25 -98 45 -323 112 -414 124 -30 4 -71 12 -90 18
-50 16 -118 33 -172 43 -26 5 -56 13 -67 19 -11 6 -37 11 -58 11 -22 0 -77 13
-123 30 l-85 30 -95 0 c-54 0 -115 6 -140 14 -94 30 -138 38 -225 45 -49 4
-100 12 -112 19 -12 7 -47 12 -78 12 -30 0 -72 7 -92 15 l-35 15 -328 0 -328
0 -35 -15 c-20 -8 -52 -15 -72 -15 -35 0 -224 -59 -280 -87 -57 -29 -126 -85
-141 -115 -24 -46 -44 -119 -44 -161 0 -51 -30 -66 -85 -43 -27 12 -71 16
-167 16 -92 0 -139 4 -165 15 -20 8 -66 15 -105 15 -38 0 -84 7 -105 15 -23
10 -69 15 -135 15 -65 0 -111 5 -135 15 -20 8 -66 15 -105 15 -83 0 -149 27
-273 112 -45 31 -103 68 -130 82 -53 29 -124 71 -215 129 -30 19 -69 38 -87
42 -17 3 -51 24 -75 45 -24 21 -86 59 -138 86 -52 26 -108 57 -125 70 -16 12
-77 46 -135 75 -58 29 -128 70 -157 91 l-52 38 -81 0 -80 0 0 -24z m957 -871
c27 -11 78 -15 211 -15 l175 0 51 -32 c28 -17 71 -48 96 -67 25 -20 64 -49 88
-65 24 -16 62 -46 85 -66 23 -21 59 -46 81 -57 80 -41 250 -197 312 -288 25
-36 34 -61 34 -90 0 -87 -66 -125 -215 -125 l-96 0 -56 26 c-31 14 -89 36
-130 49 -40 13 -90 36 -110 50 -21 14 -44 25 -51 25 -7 0 -43 18 -80 40 -37
23 -78 43 -92 47 -14 3 -38 18 -55 33 -16 15 -41 33 -55 40 -77 39 -181 119
-207 159 -15 24 -44 54 -65 67 -55 35 -77 62 -115 141 l-35 71 12 21 c7 14 21
21 39 21 16 0 44 7 62 15 44 18 71 19 116 0z m5550 -495 c35 -16 79 -41 96
-54 18 -13 61 -39 97 -57 110 -54 303 -188 334 -231 15 -21 49 -49 76 -63 51
-26 80 -57 80 -86 0 -10 16 -36 35 -60 51 -60 58 -75 45 -99 l-11 -20 -57 0
c-45 0 -65 5 -96 26 -21 14 -86 50 -144 80 -122 61 -127 65 -166 117 -16 20
-51 49 -79 65 -29 15 -64 45 -81 70 -17 24 -53 56 -81 71 -30 17 -63 48 -85
79 -19 28 -55 76 -79 106 l-43 56 12 15 c19 23 76 18 147 -15z"/>
</g>
</svg>
