<?xml version="1.0" standalone="no"?>
<!DOCTYPE svg PUBLIC "-//W3C//DTD SVG 20010904//EN"
 "http://www.w3.org/TR/2001/REC-SVG-20010904/DTD/svg10.dtd">
<svg version="1.0" xmlns="http://www.w3.org/2000/svg"
 width="729.000000pt" height="216.000000pt" viewBox="0 0 729.000000 216.000000"
 preserveAspectRatio="xMidYMid meet">
<metadata>
Created by potrace 1.16, written by Peter Selinger 2001-2019
</metadata>
<g transform="translate(0.000000,216.000000) scale(0.100000,-0.100000)"
fill="#000000" stroke="none">
<path d="M5465 2150 c-3 -5 -27 -10 -53 -10 -35 0 -58 -7 -92 -30 -25 -16 -52
-30 -61 -30 -19 0 -41 -23 -63 -67 -11 -22 -16 -59 -16 -122 l0 -90 30 -64
c17 -36 30 -72 30 -79 0 -8 12 -25 26 -39 14 -13 38 -44 52 -69 14 -25 51 -72
82 -105 31 -33 68 -78 82 -100 14 -22 45 -53 70 -69 24 -15 58 -49 75 -75 17
-26 51 -59 75 -74 24 -16 54 -44 68 -64 14 -20 46 -49 71 -65 26 -16 50 -35
53 -43 13 -35 -106 -105 -179 -105 -22 0 -78 -14 -125 -30 -46 -17 -101 -30
-121 -30 -20 0 -53 -7 -72 -15 -21 -8 -67 -15 -105 -15 -39 0 -85 -7 -105 -15
l-36 -15 -306 0 -306 0 -36 15 c-24 10 -70 15 -147 15 l-112 0 -84 30 c-47 16
-102 30 -123 30 -21 0 -54 7 -74 15 -20 8 -66 15 -105 15 -38 0 -84 7 -105 15
-25 11 -72 15 -165 15 -92 0 -139 4 -165 15 -19 8 -53 15 -75 15 -21 0 -55 7
-75 15 -19 8 -52 15 -72 15 -20 0 -56 6 -81 14 -87 28 -136 38 -210 45 -41 4
-85 13 -97 19 -12 7 -40 12 -63 12 -22 0 -57 7 -77 15 -19 8 -47 15 -62 15
-14 0 -55 14 -89 30 -35 17 -74 30 -85 30 -12 0 -42 6 -67 14 -77 24 -133 37
-195 45 -42 6 -93 25 -170 63 -60 31 -124 59 -142 62 -17 4 -52 25 -76 47
l-45 39 -41 0 c-23 0 -58 7 -78 15 -24 10 -71 15 -150 15 -78 0 -125 5 -150
15 -26 11 -76 15 -195 15 -118 0 -168 4 -195 15 l-35 15 -325 0 -324 0 -36 15
c-22 10 -68 15 -124 15 l-89 0 0 -40 c0 -45 4 -48 97 -79 38 -13 88 -21 128
-21 36 0 82 -7 102 -15 19 -8 53 -15 75 -15 21 0 55 -7 75 -15 27 -11 77 -15
210 -15 132 0 182 -4 210 -15 28 -12 84 -15 272 -15 l236 0 63 -30 c34 -16 77
-40 95 -54 49 -37 147 -66 223 -66 52 0 82 -7 133 -29 194 -84 262 -106 376
-120 34 -5 70 -13 82 -19 12 -7 32 -12 44 -12 13 0 64 -13 114 -29 122 -39
170 -51 240 -60 34 -5 70 -13 82 -19 12 -7 60 -12 108 -12 53 0 99 -6 122 -15
19 -8 59 -15 87 -15 32 0 84 -11 136 -30 53 -18 105 -30 138 -30 29 0 69 -7
89 -15 20 -8 66 -15 105 -15 38 0 84 -7 105 -15 26 -11 74 -15 182 -15 l146 0
45 -30 45 -30 163 0 c112 0 173 -4 195 -13 24 -10 113 -14 347 -16 l315 -2 37
15 c21 9 56 16 78 16 23 0 51 6 63 12 12 7 76 15 142 19 115 6 154 13 255 45
25 8 62 14 83 14 36 0 100 27 162 69 41 28 76 26 106 -5 13 -14 42 -35 64 -46
38 -19 60 -35 196 -142 31 -24 70 -51 87 -60 17 -9 52 -35 79 -58 26 -23 73
-57 103 -77 30 -19 75 -54 100 -77 25 -23 68 -53 97 -67 28 -15 85 -58 127
-97 42 -38 80 -70 85 -70 4 0 26 -18 47 -40 l39 -40 52 0 52 0 26 25 c18 19
25 36 25 63 l-1 37 -39 18 c-22 10 -66 44 -98 75 -33 31 -71 65 -86 75 -14 10
-37 40 -50 66 -14 26 -42 61 -63 76 -21 16 -44 36 -51 45 -21 25 -92 174 -92
193 0 10 16 27 35 38 20 12 40 30 46 41 24 45 -67 128 -141 128 -52 -1 -130
-47 -158 -95 l-23 -40 6 -57 6 -58 -16 0 c-8 0 -15 4 -15 9 0 5 -24 23 -52 40
-29 17 -82 56 -118 87 -36 30 -82 66 -103 80 -21 14 -43 36 -49 49 l-11 24 32
49 c17 27 31 55 31 63 0 8 11 31 24 50 45 66 66 149 66 257 0 66 -5 112 -15
135 -8 20 -15 47 -15 61 0 14 -13 54 -30 89 -16 36 -30 72 -30 79 0 22 -86
131 -167 211 -97 98 -168 150 -260 193 -43 20 -86 41 -95 45 -25 13 -285 11
-293 -1z m251 -141 c35 -12 80 -36 101 -53 21 -17 54 -42 74 -55 20 -13 46
-40 59 -60 13 -20 45 -57 71 -82 28 -28 50 -60 54 -80 4 -18 21 -61 37 -96
l29 -62 1 -144 2 -143 -24 -78 c-24 -76 -56 -126 -81 -126 -6 0 -43 34 -82 75
-38 41 -78 75 -87 75 -11 0 -39 29 -69 69 -28 37 -66 79 -84 91 -19 13 -44 38
-57 57 -13 19 -40 46 -61 61 -20 15 -47 42 -60 62 -13 19 -45 59 -71 89 -51
56 -88 125 -88 163 0 12 -7 41 -16 64 l-16 41 20 44 c37 81 88 108 206 109 56
0 99 -6 142 -21z"/>
</g>
</svg>
