<?xml version="1.0" standalone="no"?>
<!DOCTYPE svg PUBLIC "-//W3C//DTD SVG 20010904//EN"
 "http://www.w3.org/TR/2001/REC-SVG-20010904/DTD/svg10.dtd">
<svg version="1.0" xmlns="http://www.w3.org/2000/svg"
 width="1125.000000pt" height="186.000000pt" viewBox="0 0 1125.000000 186.000000"
 preserveAspectRatio="xMidYMid meet">
<metadata>
Created by potrace 1.16, written by Peter Selinger 2001-2019
</metadata>
<g transform="translate(0.000000,186.000000) scale(0.100000,-0.100000)"
fill="#000000" stroke="none">
<path d="M9395 1852 c-6 -5 -42 -19 -82 -32 -39 -12 -78 -30 -87 -39 -16 -18
-56 -130 -56 -158 0 -10 8 -44 17 -76 l18 -59 146 -152 c81 -83 167 -164 191
-180 25 -15 59 -50 77 -77 20 -31 47 -57 74 -70 23 -12 62 -44 88 -70 27 -28
56 -49 68 -49 11 0 25 -9 31 -20 14 -26 -12 -52 -85 -85 l-54 -25 -129 0 c-93
0 -140 -4 -165 -15 -25 -10 -71 -15 -147 -15 -76 0 -122 5 -147 15 -28 12 -86
15 -285 15 -198 0 -256 3 -285 15 -20 8 -66 15 -105 15 -38 0 -84 7 -105 15
-19 8 -65 15 -102 15 -49 0 -90 8 -151 30 -68 24 -102 30 -168 30 -50 0 -97 6
-119 15 -22 9 -67 15 -120 15 -52 0 -97 6 -120 15 -19 8 -53 15 -75 15 -23 0
-67 13 -105 30 -47 22 -79 30 -119 30 -30 0 -71 7 -91 15 -19 8 -53 15 -75 15
-21 0 -55 7 -75 15 -19 8 -53 15 -75 15 -21 0 -55 7 -75 15 -19 8 -53 15 -75
15 -44 0 -93 20 -152 62 -21 15 -45 28 -53 28 -8 0 -44 14 -80 30 -35 17 -69
30 -74 30 -6 0 -35 11 -64 25 -71 32 -260 95 -286 95 -11 0 -45 11 -75 25 -69
31 -168 65 -192 65 -10 0 -56 13 -102 30 -68 24 -102 30 -168 30 -50 0 -97 6
-119 15 -19 8 -53 15 -75 15 -21 0 -55 7 -75 15 -22 9 -67 15 -119 15 -45 0
-95 5 -111 12 -26 11 -134 24 -278 33 -221 15 -292 21 -303 28 -7 5 -28 3 -46
-3 -27 -9 -42 -8 -71 5 -52 21 -287 21 -338 0 -26 -11 -75 -15 -164 -16 -70 0
-153 -5 -183 -10 -30 -5 -77 -12 -105 -15 -58 -7 -141 -33 -219 -69 -30 -14
-67 -25 -83 -25 -55 0 -221 -134 -279 -225 -14 -23 -39 -49 -54 -58 l-28 -17
-186 0 c-143 0 -195 3 -223 15 -19 8 -60 15 -90 15 -29 0 -70 7 -90 15 -19 8
-53 15 -75 15 -21 0 -55 7 -75 15 -20 8 -66 15 -105 15 -38 0 -84 7 -105 15
-25 11 -72 15 -165 15 -92 0 -139 4 -165 15 -27 11 -77 15 -210 15 -132 0
-182 4 -210 15 -19 8 -60 15 -90 15 -29 0 -70 7 -90 15 -23 10 -69 15 -135 15
-65 0 -111 5 -135 15 -28 12 -82 15 -255 15 -172 0 -226 3 -255 15 -47 20
-145 19 -186 -1 -18 -9 -44 -28 -60 -42 l-27 -26 0 -122 c0 -71 4 -125 10
-129 5 -3 10 -21 10 -38 0 -42 18 -66 73 -101 24 -16 57 -48 73 -73 15 -24 51
-60 80 -79 28 -19 71 -52 95 -73 47 -40 99 -71 122 -71 7 0 24 -12 38 -26 24
-26 207 -124 232 -124 7 0 26 -13 42 -30 19 -20 39 -30 58 -30 16 0 58 -14 94
-30 35 -17 75 -30 89 -30 14 0 41 -7 61 -15 27 -11 75 -15 197 -15 l161 1 55
18 c40 14 61 28 75 50 11 18 37 57 57 89 l38 57 0 93 0 93 -24 47 c-14 26 -34
61 -45 77 -12 17 -21 38 -21 47 0 9 -25 45 -55 80 -30 34 -55 71 -55 80 l0 18
225 0 c178 0 233 -3 262 -15 22 -9 67 -15 120 -15 52 0 97 -6 120 -15 19 -8
60 -15 90 -15 29 0 70 -7 90 -15 19 -8 60 -15 90 -15 29 0 70 -7 90 -15 20 -8
66 -15 105 -15 38 0 84 -7 105 -15 23 -10 69 -15 135 -15 65 0 111 -5 135 -15
19 -8 65 -15 101 -15 l65 0 43 44 c50 49 52 64 23 131 -26 59 -20 85 29 123
60 48 235 122 288 122 12 0 38 7 57 15 20 8 61 15 90 15 30 0 71 7 90 15 l36
15 501 0 501 0 36 -15 c23 -10 69 -15 132 -15 55 0 115 -6 141 -14 78 -25 133
-37 195 -45 34 -5 70 -13 82 -19 12 -7 54 -12 93 -12 40 0 86 -6 107 -15 19
-8 60 -15 90 -15 40 0 73 -8 120 -30 35 -17 69 -30 75 -30 5 0 39 -14 75 -30
35 -17 77 -30 92 -30 43 0 51 -16 51 -107 0 -92 19 -161 72 -267 36 -72 212
-256 245 -256 11 0 28 -9 39 -21 30 -33 104 -84 173 -119 35 -18 80 -47 100
-65 37 -33 91 -65 111 -65 7 0 41 -13 77 -30 35 -16 69 -30 75 -30 5 0 39 -13
75 -30 46 -21 80 -30 117 -30 29 0 68 -5 86 -11 45 -16 134 6 178 45 39 34 82
114 82 151 0 28 -33 132 -57 180 -8 16 -67 81 -130 143 -71 71 -113 120 -111
130 4 23 85 28 133 8 21 -9 55 -16 77 -16 21 0 55 -7 75 -15 19 -8 53 -15 75
-15 21 0 55 -7 75 -15 19 -8 60 -15 90 -15 29 0 70 -7 90 -15 23 -10 69 -15
135 -15 65 0 111 -5 135 -15 19 -8 53 -15 75 -15 21 0 55 -7 75 -15 19 -8 60
-15 90 -15 29 0 70 -7 90 -15 20 -8 66 -15 105 -15 38 0 84 -7 105 -15 24 -10
71 -15 150 -15 78 0 125 -5 150 -15 l35 -15 268 0 268 0 35 15 c20 8 66 15
102 15 52 0 94 10 198 45 183 62 237 61 314 -8 21 -19 66 -49 100 -67 35 -18
74 -48 88 -66 15 -19 50 -46 78 -60 29 -15 71 -42 95 -61 74 -61 144 -105 178
-115 20 -5 45 -24 61 -44 16 -22 54 -49 97 -71 39 -19 101 -60 137 -89 l66
-54 67 0 66 0 0 48 c0 27 -7 64 -16 83 -23 47 -82 107 -129 131 -38 20 -184
160 -230 223 -30 40 -69 166 -62 196 4 14 22 43 42 66 54 63 46 97 -32 137
l-32 16 -46 -12 -46 -13 -60 -74 -59 -75 0 -42 c0 -38 -18 -74 -37 -74 -19 0
-185 117 -244 172 -36 33 -38 71 -5 119 45 66 66 148 66 259 l0 100 -51 103
-52 102 -97 95 c-54 52 -124 115 -155 139 -75 56 -244 141 -283 141 -17 0 -34
5 -37 10 -8 12 -277 14 -290 2z m280 -172 c121 -42 204 -89 269 -153 34 -34
74 -70 89 -80 14 -10 30 -33 36 -53 5 -20 22 -51 36 -70 41 -53 55 -98 55
-171 0 -77 -21 -133 -64 -173 l-27 -24 -55 29 c-30 17 -78 49 -105 73 -28 23
-58 48 -68 55 -9 6 -31 31 -50 55 -20 25 -41 42 -53 42 -12 0 -38 18 -59 41
-20 22 -59 57 -86 77 -50 38 -176 167 -206 212 -31 46 -13 109 42 143 39 25
170 23 246 -3z m-9170 -425 c14 -13 25 -33 25 -43 0 -10 12 -29 26 -43 14 -13
38 -44 52 -69 85 -147 163 -227 244 -249 57 -16 72 -11 93 30 l17 32 -18 39
c-10 22 -40 60 -68 84 -51 46 -92 128 -79 160 9 23 51 28 96 10 24 -9 60 -16
80 -16 21 0 64 -12 95 -26 92 -42 281 -173 308 -213 13 -20 38 -54 54 -75 51
-66 39 -135 -40 -240 l-42 -56 -85 0 c-52 0 -97 6 -120 15 -19 8 -54 15 -77
15 -29 0 -54 9 -86 30 -25 16 -51 30 -59 30 -18 0 -215 95 -253 122 -15 10
-28 28 -30 40 -3 24 -56 65 -96 75 -13 3 -60 42 -105 87 -61 61 -88 98 -114
153 -18 39 -33 76 -33 81 0 15 102 51 148 51 33 1 49 -5 67 -24z m5972 -260
c19 -8 52 -15 72 -15 35 0 128 -27 181 -53 32 -16 149 -94 175 -117 35 -32
139 -100 153 -100 28 0 184 -144 270 -247 29 -37 42 -61 42 -83 0 -43 -16 -70
-42 -70 -32 0 -143 39 -231 82 -43 21 -83 38 -89 38 -26 0 -180 83 -222 120
-26 22 -51 40 -55 40 -4 0 -32 21 -62 47 -30 25 -78 62 -107 80 -29 19 -58 46
-64 61 -21 54 -29 68 -63 110 -38 47 -44 81 -19 106 19 19 17 19 61 1z"/>
</g>
</svg>
