<?xml version="1.0" standalone="no"?>
<!DOCTYPE svg PUBLIC "-//W3C//DTD SVG 20010904//EN"
 "http://www.w3.org/TR/2001/REC-SVG-20010904/DTD/svg10.dtd">
<svg version="1.0" xmlns="http://www.w3.org/2000/svg"
 width="333.000000pt" height="204.000000pt" viewBox="0 0 333.000000 204.000000"
 preserveAspectRatio="xMidYMid meet">
<metadata>
Created by potrace 1.16, written by Peter Selinger 2001-2019
</metadata>
<g transform="translate(0.000000,204.000000) scale(0.100000,-0.100000)"
fill="#000000" stroke="none">
<path d="M1445 2030 c-3 -5 -13 -10 -21 -10 -27 0 -158 -70 -181 -96 -51 -57
-18 -176 81 -290 23 -27 46 -61 49 -76 4 -14 31 -48 61 -75 29 -26 56 -60 59
-74 4 -15 25 -42 47 -60 88 -73 101 -89 98 -111 l-3 -23 -137 -3 c-106 -2
-146 1 -174 13 -20 8 -61 15 -91 15 -29 0 -70 7 -90 15 -20 8 -66 15 -105 15
-38 0 -84 7 -105 15 -20 8 -66 15 -105 15 -38 0 -84 7 -105 15 -22 9 -67 15
-120 15 -52 0 -97 6 -120 15 -25 11 -72 15 -159 15 -68 0 -144 5 -169 12 l-45
12 -55 -27 -55 -27 0 -43 0 -42 70 -80 c39 -44 70 -83 70 -88 0 -4 29 -38 64
-76 35 -37 75 -85 89 -107 14 -21 112 -126 219 -231 204 -203 224 -216 261
-175 10 10 17 35 17 55 l0 37 -72 81 c-40 44 -115 123 -165 174 -61 61 -93
101 -93 116 0 13 -20 41 -50 70 -58 56 -97 133 -79 155 16 19 129 18 176 -1
26 -11 76 -15 195 -15 118 0 168 -4 195 -15 19 -8 60 -15 90 -15 29 0 70 -7
90 -15 23 -10 69 -15 135 -15 65 0 111 -5 135 -15 19 -8 53 -15 75 -15 21 0
55 -7 75 -15 20 -8 66 -15 105 -15 38 0 84 -7 105 -15 19 -8 52 -15 72 -15 68
0 136 -32 186 -88 26 -29 58 -55 72 -58 13 -4 59 -40 100 -80 42 -41 84 -74
92 -74 9 0 34 -20 54 -45 20 -24 81 -73 135 -109 53 -36 120 -84 148 -108 99
-84 177 -143 223 -170 25 -15 70 -48 99 -74 73 -64 145 -112 190 -127 26 -8
41 -22 52 -44 l15 -33 80 0 80 0 13 27 c6 15 12 40 12 56 l0 29 -162 164 c-90
90 -181 175 -203 189 -22 14 -51 43 -65 63 -14 20 -44 61 -67 89 -77 97 -82
183 -10 183 46 0 87 33 87 70 0 36 -41 70 -84 70 -39 0 -163 -44 -196 -68 -16
-12 -30 -38 -39 -75 l-15 -56 20 -43 c10 -23 30 -55 43 -71 62 -74 -49 -33
-143 52 -39 37 -87 77 -106 90 -67 47 -220 184 -220 197 0 18 52 44 87 44 51
1 124 50 156 105 16 28 41 64 57 80 44 48 60 88 60 155 l0 60 -54 108 -54 107
-89 86 c-48 47 -107 98 -131 114 -24 16 -62 45 -85 65 -44 39 -142 92 -191
104 -17 4 -42 16 -57 27 l-27 19 -195 0 c-120 0 -198 -4 -202 -10z m383 -151
c37 -17 89 -49 115 -71 26 -22 64 -44 85 -50 51 -14 190 -154 230 -233 17 -33
40 -73 51 -90 13 -18 21 -46 21 -71 0 -54 -51 -156 -93 -186 l-32 -23 -110 -3
-110 -3 -63 41 c-34 22 -73 57 -86 78 -26 41 -45 60 -96 94 -23 16 -40 38 -50
68 -12 34 -27 52 -66 79 -28 19 -62 51 -75 70 -13 20 -47 62 -76 95 -29 32
-60 78 -69 102 l-17 44 17 25 c9 13 35 33 59 44 l42 20 128 1 129 0 66 -31z"/>
</g>
</svg>
