<?xml version="1.0" standalone="no"?>
<!DOCTYPE svg PUBLIC "-//W3C//DTD SVG 20010904//EN"
 "http://www.w3.org/TR/2001/REC-SVG-20010904/DTD/svg10.dtd">
<svg version="1.0" xmlns="http://www.w3.org/2000/svg"
 width="354.000000pt" height="372.000000pt" viewBox="0 0 354.000000 372.000000"
 preserveAspectRatio="xMidYMid meet">
<metadata>
Created by potrace 1.16, written by Peter Selinger 2001-2019
</metadata>
<g transform="translate(0.000000,372.000000) scale(0.100000,-0.100000)"
fill="#000000" stroke="none">
<path d="M1401 3682 l-53 -37 -19 -55 c-24 -71 -24 -117 1 -191 39 -114 127
-227 359 -462 119 -120 239 -234 267 -252 59 -40 174 -157 174 -177 0 -19 -47
-61 -92 -81 -26 -12 -64 -17 -136 -17 -66 0 -112 -5 -135 -15 -52 -22 -452
-22 -504 0 -23 10 -69 15 -135 15 -65 0 -111 5 -135 15 -19 8 -45 15 -57 15
-12 0 -60 13 -106 30 -47 16 -94 30 -105 30 -12 0 -59 13 -105 30 -47 16 -94
30 -104 30 -30 0 -148 41 -178 62 -16 11 -28 28 -28 37 0 25 -22 41 -83 62
-86 30 -136 20 -199 -39 l-28 -26 0 -103 c0 -57 4 -111 9 -121 5 -9 23 -50 42
-89 18 -40 45 -85 61 -100 15 -15 28 -36 28 -47 0 -11 28 -47 65 -83 38 -37
77 -86 94 -122 19 -37 45 -70 70 -87 21 -16 49 -44 62 -64 36 -53 188 -207
235 -236 22 -14 54 -47 71 -73 17 -26 51 -60 76 -75 24 -16 57 -48 73 -73 16
-25 52 -60 83 -81 31 -20 79 -61 108 -90 29 -28 59 -52 67 -52 8 0 49 -33 91
-74 43 -41 85 -76 95 -78 10 -2 47 -36 83 -76 l65 -72 26 -81 c14 -44 37 -96
51 -117 14 -20 25 -44 25 -52 0 -9 13 -29 30 -45 20 -19 30 -39 30 -57 0 -36
30 -95 64 -127 14 -14 26 -32 26 -40 0 -9 14 -36 30 -61 16 -25 30 -51 30 -58
0 -15 52 -121 89 -179 l26 -42 46 -1 47 0 4 25 c10 50 -42 224 -89 303 -19 31
-47 93 -63 137 -15 44 -38 103 -50 131 -41 92 -5 134 83 100 26 -10 73 -16
121 -16 l79 0 43 44 44 43 0 49 c-1 75 -32 155 -69 179 -18 11 -53 34 -79 51
-27 17 -67 41 -91 54 -24 12 -62 35 -84 51 -22 16 -46 29 -54 29 -8 0 -44 13
-80 30 -85 39 -156 41 -239 4 l-58 -26 -36 12 c-63 21 -114 56 -145 98 -16 23
-52 56 -79 74 -45 29 -109 85 -187 164 -17 18 -52 52 -76 77 -25 24 -59 59
-77 76 -17 17 -49 50 -72 74 -22 23 -53 50 -67 60 -15 10 -38 40 -52 67 -14
27 -42 61 -64 76 -21 16 -63 65 -92 109 -29 44 -73 104 -96 132 -23 29 -49 75
-57 102 -8 27 -26 67 -40 88 -16 24 -24 47 -20 56 7 20 7 20 69 2 35 -10 60
-26 82 -52 l32 -37 46 12 46 12 35 -15 c20 -8 61 -15 91 -15 29 0 70 -7 90
-15 19 -8 47 -15 62 -15 14 0 55 -14 89 -30 l64 -30 69 0 c39 0 85 -7 106 -15
20 -8 66 -15 105 -15 38 0 84 -7 105 -15 51 -21 375 -21 426 0 20 8 61 15 90
15 30 0 71 7 90 15 20 8 48 15 62 15 14 0 44 9 66 21 62 31 180 69 217 69 45
0 68 -14 96 -59 14 -22 48 -52 78 -70 29 -17 82 -56 118 -87 36 -30 88 -70
117 -90 28 -19 69 -59 91 -88 28 -37 50 -55 71 -59 17 -4 58 -32 98 -70 37
-35 88 -75 113 -90 25 -15 72 -50 105 -78 33 -27 71 -52 85 -56 14 -3 39 -18
55 -33 35 -33 87 -60 113 -60 10 0 37 14 60 31 l42 31 0 38 0 38 -34 26 c-19
14 -70 44 -113 65 -76 39 -138 86 -238 182 -27 26 -61 57 -75 67 -34 26 -180
260 -180 287 0 18 67 75 89 75 10 0 30 9 45 21 54 43 16 119 -61 119 -34 0
-220 -86 -239 -112 -6 -7 -16 -32 -23 -55 -6 -23 -16 -45 -21 -48 -13 -8 -65
29 -116 82 -24 26 -49 43 -63 43 -12 0 -33 11 -46 25 -33 32 -33 74 1 106 31
29 75 113 104 199 23 69 24 176 2 255 -7 22 -14 51 -16 65 -3 14 -21 50 -40
80 -19 30 -48 80 -65 110 -37 69 -160 190 -229 225 -29 15 -65 43 -79 62 -25
32 -88 73 -113 73 -6 0 -36 11 -66 25 -30 14 -83 34 -117 45 -34 11 -70 25
-79 30 -10 6 -84 10 -165 9 l-148 0 -54 -37z m426 -152 c35 -16 79 -41 96 -54
18 -13 56 -36 85 -51 29 -15 64 -42 77 -59 13 -18 52 -52 86 -76 44 -32 73
-64 102 -113 73 -119 87 -150 87 -193 0 -23 7 -58 15 -77 19 -46 19 -130 0
-170 -8 -18 -33 -49 -55 -71 l-40 -38 -38 15 c-71 28 -107 53 -134 93 -14 21
-57 64 -95 94 -140 113 -297 275 -431 443 -44 56 -102 175 -102 210 0 16 10
38 25 52 l24 25 116 0 117 0 65 -30z m-92 -2515 c27 -9 63 -28 80 -44 16 -16
52 -42 79 -58 90 -52 62 -74 -36 -28 -29 14 -60 25 -68 25 -25 0 -120 71 -120
90 0 13 8 31 14 30 1 0 23 -7 51 -15z"/>
</g>
</svg>
