<?xml version="1.0" standalone="no"?>
<!DOCTYPE svg PUBLIC "-//W3C//DTD SVG 20010904//EN"
 "http://www.w3.org/TR/2001/REC-SVG-20010904/DTD/svg10.dtd">
<svg version="1.0" xmlns="http://www.w3.org/2000/svg"
 width="597.000000pt" height="267.000000pt" viewBox="0 0 597.000000 267.000000"
 preserveAspectRatio="xMidYMid meet">
<metadata>
Created by potrace 1.16, written by Peter Selinger 2001-2019
</metadata>
<g transform="translate(0.000000,267.000000) scale(0.100000,-0.100000)"
fill="#000000" stroke="none">
<path d="M0 2515 l0 -156 19 -27 c20 -29 58 -92 106 -175 43 -74 98 -146 186
-240 41 -45 88 -101 102 -124 15 -23 40 -49 56 -58 17 -8 42 -31 57 -51 15
-19 48 -46 73 -59 57 -30 68 -40 109 -92 19 -24 40 -43 49 -43 42 0 317 -164
393 -235 14 -13 125 -74 248 -134 177 -89 231 -111 265 -111 26 0 66 -11 105
-30 35 -17 73 -30 85 -30 12 0 62 -13 112 -29 156 -50 269 -74 347 -72 20 0
71 -11 113 -24 42 -14 84 -25 93 -25 10 0 56 -13 102 -30 47 -16 102 -30 123
-30 21 0 54 -7 74 -15 19 -8 53 -15 75 -15 21 0 55 -7 75 -15 19 -8 53 -15 75
-15 21 0 55 -7 75 -15 19 -8 53 -15 75 -15 21 0 55 -7 75 -15 19 -8 53 -15 74
-15 21 0 50 -5 66 -12 24 -10 210 -29 268 -28 11 1 130 4 265 8 158 5 255 12
273 20 16 6 40 12 54 12 15 0 47 13 72 29 58 37 143 49 194 28 19 -8 53 -31
75 -51 22 -20 45 -36 52 -36 19 0 81 -31 124 -62 21 -15 46 -28 55 -28 9 0 30
-9 46 -21 42 -29 182 -99 197 -99 14 0 67 -28 149 -78 30 -18 65 -35 79 -38
14 -4 39 -19 55 -34 39 -36 57 -45 156 -77 46 -14 92 -31 104 -37 46 -24 115
-80 120 -98 l6 -18 97 0 97 0 13 27 c6 15 12 44 12 65 l0 38 -50 25 c-28 14
-67 41 -88 59 -20 18 -70 50 -109 70 -42 20 -102 63 -140 99 -38 34 -84 73
-104 86 -20 13 -46 39 -59 58 -13 18 -52 55 -87 81 -35 26 -77 67 -93 92 -16
25 -39 57 -51 72 l-22 27 32 49 c36 57 39 80 10 116 -28 36 -72 35 -96 -1 -10
-15 -39 -48 -65 -73 l-48 -46 0 -50 c0 -38 7 -59 30 -94 16 -25 30 -53 30 -63
0 -23 45 -65 89 -84 18 -8 30 -17 27 -20 -3 -4 -16 -1 -29 5 -12 5 -37 13 -55
16 -40 7 -193 78 -235 110 -40 30 -172 96 -192 96 -8 0 -22 11 -31 25 l-16 25
12 73 c32 180 1 280 -117 384 -80 71 -87 75 -189 108 -44 14 -103 37 -132 50
-110 52 -231 26 -326 -69 l-59 -58 13 -53 c21 -87 58 -145 115 -178 28 -16 64
-41 80 -57 33 -31 163 -121 238 -163 52 -31 58 -48 25 -71 l-22 -16 -237 0
c-188 0 -244 -3 -272 -15 -46 -19 -98 -19 -144 0 -25 11 -72 15 -162 15 -81 0
-142 5 -171 14 -78 25 -133 37 -195 45 -34 5 -70 13 -82 19 -12 7 -39 12 -60
12 -21 0 -58 6 -83 14 -87 28 -136 38 -210 45 -47 5 -92 16 -120 31 -46 24
-87 34 -200 49 -36 4 -80 16 -97 25 -18 9 -49 16 -70 16 -21 0 -58 6 -83 14
-56 18 -123 35 -175 45 -22 4 -105 30 -185 56 -145 49 -266 105 -370 171 -30
19 -66 37 -80 41 -14 3 -41 20 -61 38 -50 44 -202 145 -220 145 -8 0 -27 9
-44 21 -16 11 -61 36 -99 55 -69 36 -98 62 -303 267 -24 23 -57 56 -74 72 -57
56 -141 160 -161 200 -12 22 -36 57 -54 77 -43 48 -73 108 -84 167 -11 56 -27
121 -46 181 -8 25 -14 55 -14 68 l0 22 -50 0 -50 0 0 -155z m4185 -1255 c78
-27 97 -37 176 -89 84 -56 99 -81 99 -164 0 -61 -14 -97 -38 -97 -12 0 -55 31
-104 77 -26 24 -56 43 -66 43 -10 0 -29 12 -43 26 -13 14 -44 36 -69 49 -86
43 -124 101 -101 151 l11 24 38 0 c21 0 65 -9 97 -20z"/>
</g>
</svg>
