<?xml version="1.0" standalone="no"?>
<!DOCTYPE svg PUBLIC "-//W3C//DTD SVG 20010904//EN"
 "http://www.w3.org/TR/2001/REC-SVG-20010904/DTD/svg10.dtd">
<svg version="1.0" xmlns="http://www.w3.org/2000/svg"
 width="597.000000pt" height="318.000000pt" viewBox="0 0 597.000000 318.000000"
 preserveAspectRatio="xMidYMid meet">
<metadata>
Created by potrace 1.16, written by Peter Selinger 2001-2019
</metadata>
<g transform="translate(0.000000,318.000000) scale(0.100000,-0.100000)"
fill="#000000" stroke="none">
<path d="M155 3170 c-3 -5 -26 -10 -51 -10 -25 0 -58 -7 -74 -15 l-30 -16 0
-114 c0 -64 4 -123 9 -133 5 -9 19 -41 32 -69 24 -56 103 -134 169 -168 33
-17 57 -34 191 -139 71 -56 130 -86 167 -86 18 0 38 -10 57 -30 16 -16 36 -30
44 -30 9 0 45 -14 79 -30 35 -17 75 -30 88 -30 14 0 41 -7 61 -15 19 -8 54
-15 77 -15 23 0 65 -11 96 -26 82 -38 165 -64 205 -64 20 0 52 -7 72 -15 19
-8 60 -15 90 -15 29 0 70 -7 90 -15 l35 -15 325 0 325 0 36 -17 c21 -9 57 -33
82 -53 48 -39 120 -80 142 -80 8 0 51 -25 97 -55 46 -31 117 -74 160 -96 42
-22 100 -55 129 -73 29 -19 97 -48 152 -66 80 -25 114 -42 162 -81 34 -27 68
-49 75 -49 24 0 236 -129 312 -189 70 -55 155 -111 169 -111 25 0 87 -33 133
-71 26 -21 68 -48 95 -60 85 -37 205 -102 249 -135 36 -26 170 -94 186 -94 18
0 81 -32 123 -62 21 -15 46 -28 54 -28 19 0 103 -52 164 -102 25 -20 79 -54
120 -74 40 -21 87 -47 103 -60 17 -12 63 -39 102 -58 77 -39 187 -110 241
-157 18 -16 41 -29 50 -29 10 0 55 -25 100 -55 46 -30 102 -65 125 -76 45 -23
144 -97 166 -123 7 -9 22 -16 33 -16 10 0 30 -11 44 -25 28 -28 82 -34 127
-12 l27 12 0 53 c0 30 -4 52 -11 52 -6 0 -44 20 -85 45 -40 25 -78 45 -83 45
-5 0 -26 20 -47 45 -20 25 -43 45 -51 45 -29 0 -103 41 -120 67 -10 15 -46 55
-80 90 -36 36 -76 89 -94 125 -18 35 -40 69 -50 76 -28 20 -23 37 21 72 44 35
52 66 22 93 -14 13 -38 17 -102 17 l-83 0 -43 -44 -44 -43 0 -52 0 -52 -38 7
c-41 7 -74 25 -112 60 -14 12 -80 50 -148 84 -68 34 -140 77 -161 96 -21 18
-45 34 -52 34 -8 0 -27 9 -44 21 -40 27 -182 99 -196 99 -24 0 -138 60 -217
114 -46 31 -114 73 -152 92 -39 19 -105 59 -148 88 -42 29 -98 64 -122 76 -25
13 -58 33 -75 45 -16 13 -80 48 -142 79 -80 40 -119 66 -139 91 -31 41 -109
84 -219 120 -41 13 -92 36 -112 50 -21 14 -44 25 -53 25 -21 0 -194 84 -233
114 -18 13 -52 34 -77 46 -25 12 -64 38 -88 58 -62 49 -131 96 -182 122 -25
13 -58 33 -75 45 -48 37 -172 95 -201 95 -30 0 -86 24 -129 56 -16 12 -90 52
-164 89 -73 37 -152 80 -174 96 -23 16 -53 29 -70 29 -32 0 -140 50 -227 106
-30 19 -71 39 -90 44 -42 11 -134 57 -207 104 -54 34 -167 76 -206 76 -12 0
-74 25 -137 56 -117 57 -215 94 -248 94 -38 0 -185 58 -234 91 -28 20 -83 25
-93 9z m137 -220 c18 -11 44 -20 58 -20 14 0 64 -13 110 -30 47 -16 94 -30
105 -30 32 0 134 -39 174 -66 19 -13 48 -24 64 -24 16 0 58 -13 94 -30 35 -16
70 -30 76 -30 21 0 192 -86 237 -119 26 -19 55 -31 74 -31 17 0 45 -9 61 -21
59 -40 245 -129 270 -129 39 0 95 -27 148 -71 26 -23 63 -45 82 -50 43 -12 80
-42 71 -57 -10 -17 -130 -15 -173 3 -23 10 -69 15 -135 15 -65 0 -111 5 -135
15 -19 8 -53 15 -75 15 -21 0 -55 7 -75 15 -19 8 -61 15 -92 15 l-56 0 -93 45
c-52 25 -99 45 -105 45 -7 0 -41 14 -75 30 -35 17 -75 30 -89 30 -36 0 -127
44 -170 83 -41 37 -93 67 -116 67 -8 0 -22 9 -33 21 -10 12 -46 41 -80 66 -89
65 -186 207 -170 249 7 18 9 18 48 -6z"/>
</g>
</svg>
