<?xml version="1.0" standalone="no"?>
<!DOCTYPE svg PUBLIC "-//W3C//DTD SVG 20010904//EN"
 "http://www.w3.org/TR/2001/REC-SVG-20010904/DTD/svg10.dtd">
<svg version="1.0" xmlns="http://www.w3.org/2000/svg"
 width="252.000000pt" height="270.000000pt" viewBox="0 0 252.000000 270.000000"
 preserveAspectRatio="xMidYMid meet">
<metadata>
Created by potrace 1.16, written by Peter Selinger 2001-2019
</metadata>
<g transform="translate(0.000000,270.000000) scale(0.100000,-0.100000)"
fill="#000000" stroke="none">
<path d="M65 2690 c-3 -5 -19 -10 -36 -10 l-29 0 0 -76 0 -76 89 -88 c49 -48
113 -104 142 -124 30 -20 79 -56 109 -81 30 -25 66 -48 80 -52 14 -3 45 -24
70 -46 55 -48 132 -94 181 -107 20 -6 64 -35 98 -65 34 -30 69 -55 79 -55 40
-1 189 -94 221 -138 11 -16 35 -39 54 -52 19 -13 45 -39 58 -59 13 -20 42 -59
64 -88 22 -28 56 -72 75 -97 19 -25 40 -61 47 -80 7 -20 32 -60 57 -90 32 -40
52 -78 74 -148 16 -51 55 -144 86 -207 31 -63 56 -126 56 -142 0 -15 13 -56
30 -91 l30 -63 0 -95 c0 -74 -5 -111 -24 -167 -33 -94 -67 -162 -102 -197 -29
-29 -159 -96 -186 -96 -24 0 -48 -34 -48 -68 l0 -32 70 0 c39 0 78 4 88 9 9 5
37 17 62 27 53 21 222 180 250 235 45 87 60 155 60 274 0 64 -5 125 -11 136
-6 11 -14 41 -19 67 -24 131 -67 259 -151 453 -16 36 -29 72 -29 79 0 8 -25
52 -56 98 l-56 84 15 15 15 15 98 -46 c53 -26 111 -58 128 -71 36 -26 170 -95
187 -95 18 0 138 -58 172 -84 33 -25 142 -66 174 -66 10 0 39 -8 65 -17 l48
-17 35 17 35 17 0 55 0 55 -90 45 c-49 25 -102 45 -116 45 -26 0 -90 53 -178
148 -17 18 -57 59 -88 92 l-58 59 0 37 0 37 45 41 c55 52 59 84 16 127 -38 38
-61 36 -146 -9 l-70 -37 -24 -46 -25 -46 24 -73 c13 -40 34 -85 47 -100 12
-15 23 -31 23 -34 0 -14 -31 -5 -66 19 -20 14 -44 25 -53 25 -9 0 -33 11 -53
25 -20 13 -67 34 -105 46 -37 12 -81 34 -98 49 -16 15 -41 33 -55 40 -110 55
-237 176 -329 313 -18 26 -45 54 -60 61 -14 8 -55 39 -89 70 -35 31 -67 56
-72 56 -9 0 -171 144 -250 223 -45 45 -97 77 -123 77 -7 0 -24 12 -38 26 -24
26 -89 64 -109 64 -7 0 -41 14 -77 30 -35 17 -71 30 -78 30 -8 0 -17 5 -20 10
-3 6 -35 10 -70 10 -35 0 -67 -4 -70 -10z m297 -230 c47 -20 130 -101 111
-107 -18 -6 -142 57 -158 80 -17 24 -20 47 -6 47 5 0 29 -9 53 -20z m171 -131
c27 -14 87 -70 87 -81 0 -25 -47 -1 -112 57 -34 29 -17 46 25 24z"/>
</g>
</svg>
