<?xml version="1.0" standalone="no"?>
<!DOCTYPE svg PUBLIC "-//W3C//DTD SVG 20010904//EN"
 "http://www.w3.org/TR/2001/REC-SVG-20010904/DTD/svg10.dtd">
<svg version="1.0" xmlns="http://www.w3.org/2000/svg"
 width="237.000000pt" height="318.000000pt" viewBox="0 0 237.000000 318.000000"
 preserveAspectRatio="xMidYMid meet">
<metadata>
Created by potrace 1.16, written by Peter Selinger 2001-2019
</metadata>
<g transform="translate(0.000000,318.000000) scale(0.100000,-0.100000)"
fill="#000000" stroke="none">
<path d="M7 3173 c-4 -3 -7 -46 -7 -94 l0 -87 22 -6 c13 -3 44 -22 70 -43 48
-39 154 -119 211 -161 17 -12 42 -25 56 -29 14 -3 49 -26 76 -50 59 -52 148
-96 315 -158 19 -7 62 -30 95 -49 33 -20 75 -41 95 -46 19 -5 56 -27 81 -48
40 -33 89 -59 141 -76 9 -2 29 -26 44 -53 16 -26 45 -68 65 -93 48 -58 178
-319 189 -379 12 -65 28 -124 58 -216 23 -71 31 -123 47 -315 2 -25 9 -64 16
-86 l12 -41 -23 -74 c-29 -89 -91 -167 -165 -207 -83 -45 -114 -124 -80 -205
8 -20 15 -48 15 -62 0 -39 27 -85 76 -131 25 -23 44 -50 44 -62 0 -12 27 -51
60 -89 33 -37 59 -72 57 -78 -6 -17 -204 -18 -256 -1 -86 27 -146 37 -251 43
-58 3 -120 12 -139 19 -24 10 -83 14 -208 14 -132 0 -182 4 -210 15 -23 10
-69 15 -135 15 -65 0 -111 5 -135 15 -24 10 -70 15 -139 15 l-104 0 0 -55 c0
-33 4 -55 11 -55 6 0 40 -13 76 -30 l64 -30 70 0 c39 0 85 -7 106 -15 28 -12
86 -15 285 -15 198 0 256 -3 285 -15 22 -9 67 -15 120 -15 52 0 97 -6 120 -15
19 -8 60 -15 90 -15 29 0 70 -7 90 -15 20 -8 66 -15 105 -15 38 0 84 -7 105
-15 22 -9 67 -15 120 -15 52 0 97 -6 120 -15 19 -8 55 -15 79 -15 23 0 46 -4
49 -10 3 -5 41 -10 83 -10 l77 1 22 35 c13 20 23 43 23 53 0 21 -19 41 -39 41
-8 0 -58 21 -110 47 l-94 46 -98 98 c-54 54 -108 117 -120 141 -12 24 -30 55
-40 69 -10 14 -27 53 -39 87 l-21 61 21 43 c11 24 35 66 53 95 37 60 60 97
104 173 l33 55 0 91 c0 60 -5 104 -15 129 -13 29 -14 44 -5 69 7 23 7 41 0 60
-5 15 -10 57 -10 94 0 48 -9 91 -30 152 -17 46 -30 101 -30 121 0 20 -7 53
-15 72 -8 20 -15 49 -15 65 0 17 -13 48 -31 72 -39 54 -59 101 -59 140 0 39
14 38 86 -5 32 -20 74 -40 94 -45 19 -5 59 -21 88 -35 28 -14 57 -25 63 -25 6
0 40 -13 76 -30 35 -16 70 -30 76 -30 7 0 30 -12 52 -25 22 -14 51 -25 65 -25
14 0 45 -9 69 -20 27 -13 65 -20 102 -20 l59 0 0 70 c0 49 -4 70 -12 70 -27 0
-223 117 -253 150 -11 12 -41 33 -67 46 -47 24 -78 57 -78 82 0 8 -18 34 -40
59 -48 55 -58 98 -36 156 33 87 12 137 -56 137 -27 0 -51 -12 -97 -45 l-61
-45 0 -28 c0 -16 -5 -43 -11 -60 l-10 -30 17 -34 c9 -18 33 -52 52 -76 l34
-42 -12 -15 c-17 -21 -49 -19 -85 6 -50 34 -178 96 -214 104 -38 8 -139 107
-196 192 -40 59 -89 103 -114 103 -10 0 -45 29 -78 65 -33 36 -78 77 -99 91
-22 14 -57 43 -79 64 -39 37 -112 80 -136 80 -17 0 -80 31 -114 56 -45 33
-203 110 -276 133 -35 12 -72 26 -81 31 -20 11 -251 14 -261 3z m411 -226 c29
-20 69 -39 88 -43 19 -3 42 -16 52 -28 9 -12 37 -33 62 -46 25 -14 61 -37 81
-52 20 -16 40 -28 45 -28 13 0 54 -43 54 -57 0 -7 -10 -13 -22 -13 -27 0 -142
55 -188 90 -19 15 -46 31 -58 35 -13 4 -41 24 -62 45 -22 22 -67 53 -102 70
-93 46 -115 84 -41 70 21 -4 62 -23 91 -43z"/>
</g>
</svg>
