<?xml version="1.0" standalone="no"?>
<!DOCTYPE svg PUBLIC "-//W3C//DTD SVG 20010904//EN"
 "http://www.w3.org/TR/2001/REC-SVG-20010904/DTD/svg10.dtd">
<svg version="1.0" xmlns="http://www.w3.org/2000/svg"
 width="948.000000pt" height="174.000000pt" viewBox="0 0 948.000000 174.000000"
 preserveAspectRatio="xMidYMid meet">
<metadata>
Created by potrace 1.16, written by Peter Selinger 2001-2019
</metadata>
<g transform="translate(0.000000,174.000000) scale(0.100000,-0.100000)"
fill="#000000" stroke="none">
<path d="M4365 1717 l-29 -22 -166 -6 c-91 -3 -183 -11 -205 -17 -22 -7 -51
-14 -65 -17 -14 -2 -49 -19 -79 -37 -29 -18 -76 -47 -105 -63 l-51 -30 -38
-70 -37 -70 2 -61 c0 -33 -2 -66 -6 -72 -5 -9 -125 -12 -457 -12 l-450 0 -36
15 c-26 11 -76 15 -195 15 -118 0 -168 4 -195 15 -19 8 -60 15 -90 15 -29 0
-70 7 -90 15 -27 11 -77 15 -209 15 -138 0 -182 3 -215 17 l-41 16 -47 -16
c-62 -23 -275 -24 -328 -2 -26 11 -74 15 -180 15 -105 0 -153 4 -180 15 l-35
15 -284 0 -283 0 -64 -30 c-36 -17 -71 -30 -79 -30 -7 0 -39 -26 -71 -58 l-57
-58 0 -40 c0 -43 28 -112 55 -134 9 -7 28 -33 42 -57 14 -25 44 -56 67 -70 23
-14 65 -52 95 -85 29 -32 92 -84 139 -115 47 -31 99 -68 116 -83 17 -15 54
-39 81 -54 28 -15 74 -42 102 -60 60 -38 195 -82 325 -106 26 -5 56 -13 67
-19 11 -6 74 -11 141 -11 l120 0 98 49 c54 27 103 55 108 63 20 27 44 125 49
203 3 44 8 106 11 137 l6 57 -25 33 c-14 18 -32 49 -42 68 -9 19 -37 53 -61
76 -45 42 -53 68 -34 105 l11 19 250 0 c199 0 257 -3 286 -15 20 -8 66 -15
105 -15 38 0 84 -7 105 -15 26 -11 74 -15 179 -15 87 0 154 -5 171 -12 26 -11
180 -29 248 -29 17 0 49 -5 72 -11 l42 -10 41 16 c51 20 130 21 177 1 26 -11
74 -15 180 -15 105 0 153 -4 180 -15 24 -10 70 -15 147 -15 78 0 125 -5 158
-17 l46 -16 31 13 c18 7 43 21 56 32 l25 19 0 53 c0 66 -25 101 -80 116 -46
12 -80 51 -80 92 0 37 43 122 72 142 12 9 34 16 49 16 15 0 43 7 62 15 20 8
61 15 90 15 30 0 71 7 90 15 21 9 67 15 109 15 l73 0 37 25 c23 15 51 25 75
25 21 0 114 3 206 6 110 3 180 2 200 -6 17 -6 79 -13 137 -16 58 -3 119 -11
135 -17 17 -6 68 -14 115 -18 158 -14 285 -30 325 -41 22 -6 121 -14 220 -18
99 -3 194 -11 210 -17 48 -18 115 -34 180 -43 33 -5 92 -20 130 -34 39 -14 87
-26 108 -26 21 0 54 -7 74 -15 19 -8 53 -15 75 -15 21 0 55 -7 75 -15 19 -8
45 -15 56 -15 11 0 101 -27 199 -60 l178 -60 68 0 69 0 41 -30 c54 -39 102
-105 102 -140 0 -15 7 -44 15 -63 8 -20 15 -49 15 -64 1 -28 10 -39 163 -190
27 -26 68 -59 92 -73 23 -14 66 -38 95 -55 29 -16 74 -44 100 -62 98 -65 219
-89 283 -57 61 31 67 41 67 118 0 39 4 77 9 85 l9 14 34 -13 c18 -8 50 -26 70
-41 21 -15 53 -30 72 -33 18 -4 53 -24 77 -45 53 -46 80 -61 111 -61 13 0 33
-7 44 -15 10 -8 35 -19 55 -25 19 -5 53 -25 75 -43 21 -19 58 -44 80 -55 48
-24 168 -104 204 -136 14 -12 52 -40 85 -61 33 -22 90 -63 126 -92 l66 -53 82
0 82 0 -3 66 -3 66 -85 44 c-50 26 -97 59 -114 80 -16 19 -46 44 -66 54 -21
11 -77 59 -126 107 -69 70 -95 103 -122 162 -39 85 -37 104 13 160 43 47 44
74 6 112 l-29 29 -52 0 c-62 0 -134 -34 -178 -85 l-32 -36 0 -49 c0 -58 -20
-77 -65 -60 -14 5 -36 10 -48 10 -13 0 -39 14 -59 30 -20 17 -91 58 -159 92
-67 34 -139 76 -160 95 -20 18 -43 33 -50 33 -8 0 -34 14 -59 30 -25 16 -51
30 -58 30 -19 0 -81 30 -117 56 -49 36 -112 64 -143 64 -18 0 -38 10 -53 26
-31 33 -150 94 -185 94 -14 0 -55 14 -91 30 -35 17 -69 30 -74 30 -6 0 -40 18
-76 40 l-67 40 -50 0 c-28 1 -76 9 -106 20 -30 11 -78 19 -105 20 -30 0 -86
12 -135 30 -47 16 -94 30 -105 30 -12 0 -59 13 -105 30 -47 16 -102 30 -123
30 -21 0 -54 7 -74 15 -22 9 -67 15 -117 15 -65 0 -99 6 -166 30 -47 16 -102
30 -123 30 -21 0 -54 7 -74 15 -22 9 -67 15 -120 15 -52 0 -97 6 -120 15 -22
9 -67 15 -120 15 -52 0 -97 6 -120 15 -25 11 -72 15 -165 15 -92 0 -139 4
-165 15 -26 11 -76 15 -199 15 -98 0 -165 4 -169 10 -4 6 -77 10 -188 10
l-182 -1 -30 -22z m-3468 -512 c23 -10 69 -15 137 -15 115 0 115 0 212 -89 34
-31 73 -64 88 -75 17 -11 46 -56 77 -119 l49 -100 0 -72 0 -72 -38 -52 -37
-53 -55 -19 c-65 -23 -138 -24 -187 -4 -19 8 -47 15 -60 15 -14 0 -54 14 -90
30 -35 16 -69 30 -75 30 -25 0 -207 95 -248 129 -25 21 -59 45 -77 54 -38 20
-198 178 -217 215 -8 15 -32 42 -55 60 -86 69 -88 102 -5 132 l49 18 248 1
248 1 36 -15z m6831 -296 c52 -24 86 -51 155 -122 59 -61 87 -97 87 -113 0
-35 -25 -30 -79 14 -25 21 -68 48 -95 61 -60 29 -115 83 -143 139 -31 63 -21
66 75 21z"/>
</g>
</svg>
