<?xml version="1.0" standalone="no"?>
<!DOCTYPE svg PUBLIC "-//W3C//DTD SVG 20010904//EN"
 "http://www.w3.org/TR/2001/REC-SVG-20010904/DTD/svg10.dtd">
<svg version="1.0" xmlns="http://www.w3.org/2000/svg"
 width="1044.000000pt" height="243.000000pt" viewBox="0 0 1044.000000 243.000000"
 preserveAspectRatio="xMidYMid meet">
<metadata>
Created by potrace 1.16, written by Peter Selinger 2001-2019
</metadata>
<g transform="translate(0.000000,243.000000) scale(0.100000,-0.100000)"
fill="#000000" stroke="none">
<path d="M210 2421 c-8 -5 -39 -19 -68 -32 -29 -13 -69 -40 -88 -61 l-34 -38
0 -49 c0 -28 -4 -53 -10 -56 -13 -8 -13 -132 0 -140 5 -3 10 -17 10 -31 0 -50
41 -149 79 -189 21 -22 52 -59 70 -82 18 -24 39 -43 48 -43 27 0 87 -32 136
-73 26 -21 133 -81 237 -133 l189 -94 121 0 120 0 73 36 c127 64 151 99 213
312 6 20 43 14 77 -12 37 -28 230 -126 249 -126 7 0 27 -9 43 -21 17 -11 55
-33 85 -49 30 -15 71 -45 90 -65 l35 -36 -20 -15 c-11 -8 -43 -22 -72 -30 -28
-8 -66 -25 -85 -37 l-33 -23 -9 -64 c-19 -142 -9 -254 30 -330 31 -61 245
-271 309 -303 28 -14 72 -44 99 -66 26 -23 55 -41 63 -41 8 0 44 -13 80 -30
35 -16 74 -30 87 -30 12 0 60 -13 106 -30 47 -16 102 -30 123 -30 21 0 54 -7
74 -15 58 -24 92 -19 158 26 82 55 103 76 131 131 28 55 30 91 9 141 -8 20
-15 48 -15 62 0 40 -75 180 -112 208 -17 14 -46 50 -63 79 -28 47 -42 59 -105
88 -19 9 -31 65 -17 79 7 7 126 11 354 11 l344 0 36 -15 c26 -11 76 -15 195
-15 118 0 168 -4 195 -15 25 -11 72 -15 165 -15 92 0 139 -4 165 -15 23 -10
69 -15 134 -15 68 0 111 -5 140 -17 l41 -16 47 16 c57 21 101 21 148 2 24 -10
71 -15 150 -15 78 0 125 -5 150 -15 26 -11 76 -15 195 -15 118 0 168 -4 195
-15 23 -10 68 -15 128 -15 l92 0 27 21 c37 29 33 63 -14 142 l-40 66 0 57 0
57 43 40 c23 21 56 49 72 62 38 28 150 65 197 65 20 0 65 13 100 30 l63 30
383 0 383 0 36 -15 c19 -8 60 -15 90 -15 29 0 70 -7 90 -15 19 -8 65 -15 101
-15 35 0 82 -5 103 -12 30 -8 48 -8 79 1 l39 12 37 -16 c22 -9 68 -15 118 -15
84 0 177 -24 265 -69 22 -12 51 -21 64 -21 12 0 61 -13 107 -30 47 -16 103
-30 125 -30 40 0 73 -15 176 -78 30 -17 72 -37 94 -43 55 -15 95 -46 95 -72 0
-12 -7 -43 -17 -69 l-17 -47 19 -43 c25 -55 293 -328 324 -328 11 0 49 -16 84
-35 35 -19 70 -35 78 -35 8 0 34 -14 59 -30 l45 -30 69 0 69 0 43 44 c29 28
44 52 44 69 0 33 9 57 22 57 6 0 33 -18 60 -40 28 -22 57 -40 65 -40 21 0 82
-30 127 -62 21 -15 46 -28 56 -28 9 0 29 -13 44 -29 15 -16 42 -32 60 -35 18
-4 57 -27 87 -53 30 -25 79 -62 109 -81 30 -20 80 -59 110 -88 80 -76 169
-134 206 -134 24 0 38 -9 63 -40 20 -25 44 -43 63 -47 18 -3 34 -15 40 -29
l11 -24 94 0 93 0 0 80 c0 51 -4 80 -11 80 -38 0 -226 111 -307 181 -22 19
-44 29 -65 29 -37 0 -57 15 -57 42 0 9 -25 36 -55 59 -88 66 -139 160 -120
221 16 49 45 78 79 78 59 0 77 52 30 89 l-27 21 -81 0 -81 0 -50 -28 -50 -27
-35 -72 c-19 -40 -38 -73 -41 -73 -8 0 -101 54 -179 103 -30 19 -69 38 -87 42
-17 3 -51 24 -75 45 -24 21 -86 59 -138 85 -52 26 -115 64 -140 85 -46 38
-120 80 -141 80 -6 0 -30 20 -53 45 l-42 45 -34 0 c-19 0 -52 12 -79 29 -25
16 -57 31 -71 34 -14 4 -43 22 -65 40 -51 44 -85 61 -182 92 -43 14 -102 37
-131 50 -29 14 -58 25 -65 25 -6 0 -41 14 -75 30 -35 17 -80 30 -100 30 -20 0
-77 13 -127 29 -120 39 -168 51 -240 61 -33 5 -91 20 -130 34 l-70 26 -128 0
c-90 0 -138 4 -164 15 -25 11 -72 15 -165 15 -92 0 -139 4 -165 15 l-35 15
-372 0 -371 0 -85 -30 c-59 -21 -103 -30 -147 -30 -95 0 -215 -43 -262 -94
-14 -14 -33 -26 -43 -26 -10 0 -35 -16 -57 -35 -42 -38 -76 -125 -84 -219 -3
-26 -12 -55 -20 -64 l-16 -15 -137 2 c-92 2 -149 7 -172 17 l-34 14 -415 0
-414 0 -36 15 c-22 9 -67 15 -120 15 -52 0 -97 6 -120 15 -26 11 -76 15 -194
15 -123 0 -168 4 -199 16 l-41 16 -42 -11 c-31 -9 -50 -9 -70 -2 -17 7 -117
11 -247 11 -125 0 -230 4 -246 10 -14 6 -97 13 -183 17 -95 3 -169 11 -190 19
-18 8 -45 14 -58 14 -35 0 -91 27 -143 70 -46 38 -120 80 -140 80 -7 0 -35 20
-63 45 -51 45 -153 105 -178 105 -8 0 -34 14 -59 30 -25 16 -51 30 -58 30 -20
0 -82 30 -126 62 -21 15 -48 28 -59 28 -11 0 -39 20 -61 44 -27 29 -74 60
-136 92 -52 26 -109 57 -125 70 -17 12 -91 53 -165 90 -74 37 -153 80 -174 96
-22 16 -52 28 -69 28 -16 0 -69 19 -116 41 -47 23 -107 45 -134 50 -26 4 -60
17 -76 28 l-29 21 -89 -1 c-48 0 -95 -4 -103 -8z m260 -223 c99 -46 190 -78
222 -78 13 0 40 -11 60 -25 20 -14 96 -55 168 -91 160 -82 169 -93 182 -216
l10 -90 -29 -45 c-38 -62 -80 -83 -167 -83 l-69 0 -93 45 c-52 25 -113 58
-135 75 -25 18 -55 30 -73 30 -24 0 -42 12 -81 51 -27 28 -71 66 -96 85 -26
19 -54 46 -64 60 -9 14 -32 43 -52 65 l-35 39 4 94 c2 72 7 98 20 113 l18 19
62 -4 c46 -3 85 -14 148 -44z m1561 -960 c30 -8 48 -8 79 1 l39 12 37 -16 c20
-8 55 -15 78 -15 48 0 69 -12 153 -92 34 -32 65 -58 70 -58 9 0 176 -185 220
-243 29 -38 75 -180 66 -203 -3 -11 -15 -31 -25 -46 l-19 -28 -68 0 c-74 0
-162 26 -220 66 -19 13 -48 24 -64 24 -16 0 -58 14 -94 30 -35 17 -70 30 -78
30 -7 0 -24 15 -38 34 -15 18 -51 48 -82 65 -43 24 -62 43 -86 86 -17 31 -46
67 -64 81 -18 14 -40 40 -49 59 -20 41 -22 170 -3 182 10 6 92 39 106 42 2 1
21 -4 42 -11z m6720 -293 c73 -49 107 -83 127 -125 9 -19 18 -38 20 -42 8 -17
-29 -7 -64 17 -20 14 -44 25 -53 25 -9 0 -36 23 -60 51 -24 28 -54 54 -67 59
-23 9 -32 39 -17 54 14 13 58 -2 114 -39z"/>
</g>
</svg>
