<?xml version="1.0" standalone="no"?>
<!DOCTYPE svg PUBLIC "-//W3C//DTD SVG 20010904//EN"
 "http://www.w3.org/TR/2001/REC-SVG-20010904/DTD/svg10.dtd">
<svg version="1.0" xmlns="http://www.w3.org/2000/svg"
 width="585.000000pt" height="312.000000pt" viewBox="0 0 585.000000 312.000000"
 preserveAspectRatio="xMidYMid meet">
<metadata>
Created by potrace 1.16, written by Peter Selinger 2001-2019
</metadata>
<g transform="translate(0.000000,312.000000) scale(0.100000,-0.100000)"
fill="#000000" stroke="none">
<path d="M2975 3110 c-3 -5 -28 -10 -54 -10 l-48 0 -56 -41 c-123 -87 -130
-206 -20 -333 18 -22 38 -57 43 -77 11 -42 79 -109 109 -109 11 0 23 -5 26
-10 18 -29 213 -173 280 -208 22 -11 98 -59 170 -107 71 -49 164 -105 205
-126 41 -21 97 -56 124 -78 26 -23 55 -41 63 -41 8 0 44 -18 81 -40 37 -23 78
-43 92 -47 14 -3 39 -18 55 -33 31 -29 86 -60 105 -60 19 0 138 -58 173 -84
18 -12 52 -34 77 -47 64 -33 79 -48 105 -100 13 -25 40 -58 60 -73 25 -20 52
-59 92 -139 30 -62 64 -123 73 -137 27 -37 60 -139 60 -181 0 -20 7 -53 15
-72 9 -23 15 -68 15 -120 l0 -84 -25 -23 c-14 -13 -25 -35 -25 -49 0 -14 -9
-37 -20 -51 -28 -36 -26 -86 5 -114 30 -28 31 -34 5 -61 -11 -11 -38 -43 -59
-71 -22 -29 -58 -65 -81 -80 -23 -16 -62 -45 -87 -66 -25 -20 -73 -46 -107
-57 l-62 -21 -258 0 -257 0 -36 15 c-19 8 -60 15 -90 15 -29 0 -70 7 -90 15
-19 8 -47 15 -60 15 -14 0 -54 14 -90 30 -35 17 -69 30 -75 30 -5 0 -39 14
-75 30 -35 17 -77 30 -91 30 -29 0 -55 15 -110 62 -18 15 -40 28 -49 28 -9 0
-37 13 -62 29 -25 16 -58 31 -73 35 -14 3 -50 28 -80 55 -29 26 -76 60 -105
74 -28 15 -85 57 -126 94 -41 37 -96 83 -121 101 -25 18 -60 53 -78 78 -18 25
-72 89 -120 141 -49 52 -88 99 -88 105 0 5 -24 34 -54 63 -39 39 -56 65 -65
99 -8 33 -21 53 -51 77 -22 18 -40 39 -40 46 0 8 -9 32 -21 54 -41 82 -69 182
-69 252 0 80 -28 146 -85 195 -42 38 -66 40 -120 9 -56 -32 -85 -87 -85 -164
l0 -62 -27 -19 c-45 -31 -178 -92 -203 -92 -12 0 -44 -8 -71 -17 l-49 -18 -49
18 c-31 11 -78 17 -130 17 -50 0 -96 6 -118 15 -19 8 -52 15 -72 15 -20 0 -56
6 -81 14 -58 18 -124 35 -180 46 -25 5 -60 16 -77 25 -55 27 -63 48 -63 158 0
94 -14 158 -52 241 -6 15 -45 53 -87 86 l-75 60 -78 0 -79 0 -49 -25 c-58 -29
-80 -58 -80 -102 0 -17 -4 -35 -10 -38 -13 -8 -13 -72 0 -80 6 -3 10 -14 10
-23 0 -51 270 -352 316 -352 20 0 65 -23 155 -78 30 -18 65 -35 79 -37 14 -3
43 -10 65 -16 22 -6 67 -14 100 -19 33 -5 92 -20 130 -34 41 -15 92 -26 123
-26 29 0 69 -7 89 -15 44 -19 263 -21 296 -3 12 6 48 14 82 19 63 8 118 21
196 45 58 19 149 15 159 -6 4 -8 17 -36 29 -62 11 -27 40 -72 63 -102 24 -30
63 -82 88 -115 50 -68 129 -172 160 -213 12 -15 40 -40 63 -55 25 -17 54 -50
72 -82 27 -49 38 -59 85 -81 8 -4 18 -20 22 -37 9 -36 22 -48 96 -88 32 -18
68 -48 86 -73 31 -41 96 -91 171 -130 22 -11 83 -49 135 -84 52 -35 111 -69
130 -76 37 -14 62 -27 145 -73 28 -16 63 -29 78 -29 16 0 58 -13 94 -30 35
-16 69 -30 74 -30 6 0 35 -11 65 -25 94 -43 171 -65 228 -65 30 0 58 -4 61
-10 8 -14 702 -14 710 0 3 5 12 10 20 10 7 0 43 13 78 30 36 16 72 30 80 30 8
0 32 13 54 29 22 16 59 39 81 50 26 13 57 43 86 84 24 34 54 72 66 82 12 11
31 38 43 60 11 22 30 54 42 70 13 17 32 49 44 72 l21 42 0 119 c0 84 -5 130
-15 155 -8 20 -15 53 -15 74 0 21 -14 76 -30 123 -17 46 -30 101 -30 121 0 22
-16 71 -41 123 -50 107 -46 134 11 83 56 -51 112 -78 148 -71 22 5 52 -4 117
-35 48 -23 93 -41 98 -41 6 0 93 -40 194 -90 129 -63 194 -90 220 -90 l36 0
39 42 38 41 0 44 0 43 -27 0 c-59 1 -139 58 -377 267 -135 119 -211 208 -222
260 l-6 29 36 28 36 27 0 40 c0 54 -43 99 -92 99 -38 -1 -219 -60 -243 -80
-19 -16 -19 -38 0 -83 8 -20 15 -50 15 -66 0 -22 15 -47 55 -93 65 -74 70 -98
22 -98 l-34 0 -32 40 c-20 25 -44 43 -69 49 -20 6 -61 22 -90 36 -28 14 -58
25 -65 25 -7 0 -62 33 -122 73 l-110 72 -13 40 c-7 22 -30 57 -52 77 -22 21
-40 42 -40 47 0 5 16 29 35 53 47 58 85 132 85 163 0 26 -33 133 -52 170 -6
11 -26 37 -44 57 -18 20 -42 55 -54 77 -12 25 -39 53 -69 72 -27 18 -62 52
-77 77 -15 24 -51 59 -78 77 -28 19 -71 51 -95 72 -28 23 -71 46 -113 60 -38
12 -81 31 -96 42 -50 35 -171 91 -197 91 -14 0 -42 7 -62 15 -19 8 -45 15 -57
15 -12 0 -60 13 -106 30 -47 16 -97 30 -112 30 -15 0 -30 5 -33 10 -4 6 -68
10 -160 10 -92 0 -156 -4 -160 -10z m322 -165 c19 -8 51 -15 71 -15 50 0 316
-92 387 -133 143 -85 203 -126 264 -182 36 -33 82 -71 102 -84 20 -13 46 -40
60 -60 13 -20 36 -51 51 -68 38 -46 98 -141 98 -156 0 -17 -20 -37 -37 -37
-27 0 -163 70 -200 103 -41 35 -141 74 -167 64 -20 -8 -56 -66 -56 -90 0 -11
7 -42 15 -70 12 -41 24 -58 55 -79 41 -28 51 -48 26 -48 -25 0 -128 54 -222
116 -51 33 -107 66 -125 73 -64 23 -94 42 -150 90 -31 26 -72 53 -90 60 -46
17 -46 17 -137 91 -45 36 -107 83 -138 105 -33 24 -67 58 -82 85 -14 25 -39
60 -55 79 -63 73 -56 112 26 150 l42 20 113 1 c78 0 124 -5 149 -15z m-3028
-879 c16 -19 43 -114 36 -126 -9 -14 -74 29 -90 61 -18 34 -19 51 -3 67 16 16
43 15 57 -2z"/>
</g>
</svg>
