<?xml version="1.0" standalone="no"?>
<!DOCTYPE svg PUBLIC "-//W3C//DTD SVG 20010904//EN"
 "http://www.w3.org/TR/2001/REC-SVG-20010904/DTD/svg10.dtd">
<svg version="1.0" xmlns="http://www.w3.org/2000/svg"
 width="213.000000pt" height="279.000000pt" viewBox="0 0 213.000000 279.000000"
 preserveAspectRatio="xMidYMid meet">
<metadata>
Created by potrace 1.16, written by Peter Selinger 2001-2019
</metadata>
<g transform="translate(0.000000,279.000000) scale(0.100000,-0.100000)"
fill="#000000" stroke="none">
<path d="M23 2760 c-24 -30 -32 -103 -13 -115 6 -3 10 -15 10 -25 0 -11 22
-45 50 -75 27 -30 60 -72 73 -92 14 -21 45 -56 71 -78 26 -22 66 -58 89 -81
48 -47 138 -120 182 -148 17 -11 57 -45 90 -76 33 -32 74 -65 92 -74 39 -19
198 -178 218 -217 9 -16 57 -92 108 -168 115 -174 141 -217 217 -361 33 -63
76 -134 95 -158 22 -28 35 -54 35 -73 0 -37 62 -162 107 -214 18 -22 36 -51
40 -65 10 -40 81 -171 118 -218 22 -27 35 -55 35 -72 0 -15 13 -57 30 -92 16
-34 30 -70 30 -79 0 -9 13 -34 30 -57 16 -22 50 -81 75 -131 l45 -91 40 0 39
0 16 30 c21 41 20 51 -21 131 -40 81 -84 203 -84 237 0 25 -179 390 -215 437
-35 47 -66 113 -97 208 -20 62 -40 103 -67 135 -48 57 -101 166 -101 208 0 20
-9 39 -30 59 -58 56 -75 135 -26 120 11 -3 44 -10 73 -15 59 -10 80 -21 145
-72 29 -24 76 -47 125 -63 56 -18 96 -39 137 -73 71 -57 126 -92 147 -92 8 0
28 -13 44 -30 l29 -30 63 0 63 0 0 85 c0 53 -4 85 -11 85 -5 0 -40 18 -77 40
-37 23 -87 46 -111 52 -32 8 -58 25 -90 59 -44 45 -115 89 -144 89 -8 0 -34
26 -57 58 -24 31 -57 72 -74 90 l-31 33 2 101 3 102 -17 18 -16 18 -85 0 -85
0 -43 -44 c-29 -28 -44 -52 -44 -69 0 -32 -9 -57 -21 -57 -6 0 -38 13 -72 29
-88 41 -203 146 -247 225 -19 34 -50 79 -67 100 -18 20 -40 51 -49 69 -9 17
-29 46 -43 62 -15 17 -49 64 -76 105 -69 105 -124 172 -218 268 l-81 82 -166
-1 -165 0 -22 -29z"/>
</g>
</svg>
