<?xml version="1.0" standalone="no"?>
<!DOCTYPE svg PUBLIC "-//W3C//DTD SVG 20010904//EN"
 "http://www.w3.org/TR/2001/REC-SVG-20010904/DTD/svg10.dtd">
<svg version="1.0" xmlns="http://www.w3.org/2000/svg"
 width="633.000000pt" height="213.000000pt" viewBox="0 0 633.000000 213.000000"
 preserveAspectRatio="xMidYMid meet">
<metadata>
Created by potrace 1.16, written by Peter Selinger 2001-2019
</metadata>
<g transform="translate(0.000000,213.000000) scale(0.100000,-0.100000)"
fill="#000000" stroke="none">
<path d="M215 2120 c-3 -5 -26 -10 -51 -10 -30 0 -64 -10 -104 -30 l-60 -30 0
-25 c0 -39 44 -55 148 -55 57 0 103 5 125 15 22 9 68 15 117 15 49 0 95 -6
117 -15 23 -10 69 -15 135 -15 65 0 111 -5 135 -15 20 -8 66 -15 105 -15 38 0
84 -7 105 -15 19 -8 47 -15 62 -15 14 0 55 -14 89 -30 35 -17 74 -30 86 -30
12 0 60 -13 106 -30 54 -19 105 -30 140 -30 40 0 72 -8 118 -30 35 -17 69 -30
76 -30 6 0 28 -11 48 -25 37 -25 135 -59 200 -70 20 -3 59 -21 85 -39 56 -38
127 -76 143 -76 17 0 161 -89 195 -120 17 -15 45 -31 63 -35 34 -7 132 -92
132 -115 0 -9 -18 -11 -77 -6 -102 9 -136 9 -208 1 -69 -9 -79 -15 -106 -66
-36 -72 -21 -176 46 -323 14 -30 25 -61 25 -69 0 -23 32 -45 70 -49 l35 -3 35
-59 c21 -34 52 -70 73 -83 20 -13 48 -41 61 -62 14 -21 37 -48 53 -60 15 -12
47 -36 70 -54 23 -18 87 -74 144 -124 73 -66 128 -106 193 -140 50 -25 109
-59 130 -75 21 -15 52 -28 68 -28 16 0 45 -7 65 -15 52 -22 65 -19 129 28 47
34 65 57 88 106 l30 62 -12 44 c-7 25 -12 60 -12 79 0 18 -7 50 -15 69 -8 20
-15 48 -15 62 0 40 -46 121 -85 151 -28 21 -35 33 -35 59 l0 33 -42 34 c-55
42 -72 64 -88 106 l-12 34 13 9 c20 13 45 11 86 -6 19 -8 65 -15 102 -15 36 0
86 -6 111 -14 60 -19 125 -35 182 -46 26 -5 56 -13 67 -19 11 -6 37 -11 58
-11 21 0 58 -6 83 -14 121 -38 137 -40 424 -43 l290 -4 38 16 c21 8 51 15 66
15 35 0 81 29 173 107 41 35 81 63 89 63 28 0 217 -97 256 -132 22 -18 66 -42
99 -53 45 -14 69 -29 98 -61 21 -24 86 -75 145 -114 59 -40 123 -87 142 -105
19 -17 56 -47 81 -66 50 -38 91 -75 201 -187 40 -41 85 -80 100 -88 15 -8 54
-41 88 -74 l61 -60 70 0 69 0 0 68 -1 67 -41 30 c-23 17 -60 43 -82 58 -23 16
-59 46 -81 66 -22 21 -56 48 -76 61 -39 26 -181 229 -222 320 -39 85 -43 123
-18 163 47 76 19 107 -96 107 -64 0 -83 -4 -95 -17 -28 -32 -48 -81 -48 -118
0 -44 -10 -44 -93 -7 -42 20 -74 42 -96 70 -18 23 -40 42 -49 42 -34 1 -98 39
-160 94 -34 31 -70 56 -80 56 -36 0 -124 51 -171 99 l-49 51 -69 0 c-95 0
-103 -9 -103 -126 0 -67 -4 -96 -16 -113 -19 -27 -88 -60 -125 -61 -15 0 -43
-7 -62 -15 -51 -21 -333 -21 -384 0 -19 8 -60 15 -90 15 -29 0 -70 7 -90 15
-20 8 -66 15 -105 15 -38 0 -84 7 -105 15 -19 8 -52 15 -71 15 -20 0 -96 20
-168 45 l-133 45 -43 -6 c-30 -4 -62 0 -105 15 -34 12 -86 21 -115 21 -87 0
-177 50 -302 167 -131 123 -252 215 -346 263 -25 13 -58 33 -75 45 -42 32
-223 121 -263 130 -17 3 -53 21 -80 39 -71 49 -98 61 -244 109 -74 25 -153 54
-176 66 -23 11 -53 21 -67 21 -14 0 -42 7 -62 15 -19 8 -53 15 -75 15 -21 0
-55 7 -75 15 -19 8 -52 15 -71 15 -20 0 -96 20 -169 45 -88 30 -149 45 -183
45 -28 0 -67 7 -87 15 -19 8 -48 15 -64 15 -15 0 -31 5 -34 10 -4 6 -98 10
-250 10 -152 0 -246 -4 -250 -10z m2242 -1035 c19 -8 60 -15 90 -15 29 0 70
-7 90 -15 19 -8 53 -15 74 -15 68 0 74 -4 220 -145 17 -16 52 -58 78 -93 68
-94 121 -164 168 -224 40 -52 83 -151 83 -194 0 -12 7 -38 15 -57 8 -20 15
-54 15 -76 0 -49 -18 -61 -86 -61 -63 0 -114 32 -324 200 -41 34 -96 77 -121
98 -26 20 -60 57 -77 82 -16 25 -50 58 -74 74 -23 15 -58 47 -76 72 -18 24
-41 44 -51 44 -35 0 -131 149 -131 203 0 13 -7 41 -15 60 -18 44 -18 42 1 61
20 20 74 20 121 1z"/>
</g>
</svg>
