<?xml version="1.0" standalone="no"?>
<!DOCTYPE svg PUBLIC "-//W3C//DTD SVG 20010904//EN"
 "http://www.w3.org/TR/2001/REC-SVG-20010904/DTD/svg10.dtd">
<svg version="1.0" xmlns="http://www.w3.org/2000/svg"
 width="852.000000pt" height="300.000000pt" viewBox="0 0 852.000000 300.000000"
 preserveAspectRatio="xMidYMid meet">
<metadata>
Created by potrace 1.16, written by Peter Selinger 2001-2019
</metadata>
<g transform="translate(0.000000,300.000000) scale(0.100000,-0.100000)"
fill="#000000" stroke="none">
<path d="M0 2935 l0 -65 39 -19 c21 -11 63 -43 93 -70 33 -30 97 -72 159 -103
57 -28 122 -64 143 -80 21 -15 46 -28 55 -28 9 0 58 -20 109 -45 52 -25 99
-45 105 -45 7 0 32 -14 57 -30 25 -16 58 -30 73 -30 15 0 44 -7 64 -15 19 -8
47 -15 60 -15 14 0 54 -13 90 -30 35 -16 75 -30 89 -30 14 0 41 -7 61 -15 19
-8 53 -15 74 -15 21 0 50 -6 66 -12 18 -9 117 -15 288 -20 143 -4 269 -7 280
-7 57 -2 244 17 268 27 16 7 40 12 55 12 15 0 39 12 57 29 16 16 53 42 80 58
38 22 57 42 80 84 48 89 102 155 141 174 l36 17 42 -16 c23 -9 57 -16 76 -16
19 0 75 -13 125 -29 100 -32 158 -48 225 -61 51 -10 140 -51 187 -86 23 -17
45 -24 77 -24 53 0 185 -41 225 -70 37 -26 219 -115 251 -123 14 -4 44 -22 67
-41 22 -20 76 -53 119 -75 44 -22 105 -62 138 -88 70 -58 125 -93 147 -93 8 0
26 -12 40 -26 13 -14 56 -47 94 -72 39 -25 97 -71 130 -102 33 -31 78 -68 101
-83 56 -38 89 -84 74 -103 -16 -18 -63 -18 -120 0 -94 31 -156 39 -190 27 -18
-6 -45 -11 -59 -11 -14 0 -48 -13 -76 -28 -56 -30 -105 -104 -104 -157 0 -57
35 -138 74 -169 20 -16 48 -52 62 -80 14 -28 45 -72 68 -97 23 -25 54 -63 68
-85 32 -50 298 -311 355 -349 24 -15 72 -57 108 -93 37 -36 78 -68 97 -73 18
-5 54 -27 81 -49 32 -26 58 -40 77 -40 16 0 46 -7 66 -15 19 -8 65 -15 100
-15 l65 0 65 63 c105 100 136 190 98 280 -8 20 -15 52 -15 72 0 46 -34 148
-66 194 -13 19 -24 42 -24 49 0 8 -23 58 -50 111 -54 105 -60 127 -32 116 9
-4 37 -10 62 -14 25 -4 63 -19 85 -34 22 -15 53 -27 70 -27 17 0 50 -13 75
-30 32 -22 57 -30 88 -30 23 0 59 -7 79 -15 19 -8 47 -15 60 -15 14 0 54 -13
90 -30 35 -16 75 -30 89 -30 14 0 41 -7 61 -15 19 -8 53 -15 74 -15 21 0 50
-5 66 -12 27 -11 182 -29 253 -29 74 0 227 19 271 34 83 28 112 48 208 144
l94 95 25 -14 c14 -7 49 -36 76 -64 28 -28 65 -59 83 -68 18 -9 94 -79 171
-156 77 -78 146 -140 156 -140 10 0 46 -29 79 -65 33 -36 73 -73 89 -81 27
-14 161 -131 258 -227 25 -24 62 -56 82 -71 21 -15 53 -51 72 -80 18 -28 73
-88 120 -134 91 -87 112 -96 169 -69 l27 12 0 66 0 66 -39 26 c-23 15 -41 36
-43 49 -2 14 -23 36 -58 59 -35 23 -64 52 -79 80 -13 24 -53 74 -87 111 -37
39 -67 82 -73 103 -5 19 -25 53 -44 75 -19 23 -44 70 -57 106 l-22 65 16 24
c9 14 29 28 44 31 43 10 62 33 62 74 0 46 -19 63 -88 81 l-53 13 -74 -37 c-81
-40 -96 -57 -115 -132 -7 -27 -17 -54 -21 -59 -13 -14 -62 23 -188 144 -65 63
-144 133 -175 154 -31 22 -63 50 -71 62 -8 13 -74 62 -146 110 -87 58 -134 95
-141 113 -19 48 -25 56 -57 75 l-32 19 -40 -18 c-46 -21 -109 -87 -109 -114 0
-10 11 -44 25 -75 14 -31 25 -63 25 -70 0 -23 -76 -94 -124 -116 l-45 -20
-242 0 -242 0 -226 74 c-232 76 -286 92 -357 105 -22 4 -54 17 -70 28 -32 23
-232 93 -265 93 -11 0 -45 11 -75 25 -32 15 -64 23 -77 20 l-23 -6 -154 153
c-86 85 -188 175 -228 202 -40 27 -79 57 -85 68 -18 28 -140 124 -197 154 -27
14 -63 43 -80 64 -20 25 -41 40 -63 44 -19 3 -57 26 -86 51 -29 25 -56 45 -61
45 -4 0 -31 16 -60 36 -29 20 -67 40 -85 45 -17 5 -50 25 -73 45 -88 75 -528
274 -607 274 -11 0 -33 9 -50 20 -16 11 -36 20 -43 20 -8 0 -43 14 -79 30 -35
17 -75 30 -89 30 -14 0 -41 7 -61 15 -19 8 -47 15 -60 15 -14 0 -54 14 -90 30
-35 17 -81 30 -101 30 -20 0 -57 6 -82 14 -100 32 -139 39 -220 43 l-85 3 -50
-27 c-37 -21 -57 -41 -77 -78 l-28 -50 0 -75 c0 -95 -10 -110 -104 -155 l-73
-35 -352 0 -352 0 -36 15 c-19 8 -52 15 -71 15 -20 0 -96 20 -169 45 -73 25
-140 45 -150 45 -36 0 -219 69 -278 104 -33 20 -76 41 -96 46 -48 13 -67 24
-161 87 -82 56 -150 93 -169 93 -6 0 -51 25 -101 55 -49 30 -98 55 -109 55
l-19 0 0 -65z m4647 -1550 c19 -8 60 -15 90 -15 29 0 70 -7 90 -15 19 -8 47
-15 60 -15 35 0 90 -27 142 -69 25 -20 64 -47 88 -61 59 -35 136 -129 188
-230 24 -47 53 -98 64 -115 13 -18 21 -46 21 -71 0 -23 7 -58 15 -77 9 -21 15
-67 15 -107 l0 -71 -25 -24 c-32 -33 -89 -33 -161 0 -30 14 -60 25 -66 25 -6
0 -27 14 -47 31 -20 17 -57 45 -83 62 -89 61 -173 125 -202 155 -15 16 -47 49
-70 73 -24 24 -54 52 -69 62 -14 9 -31 33 -36 52 -5 20 -32 60 -60 91 -30 33
-55 71 -61 94 -7 27 -24 50 -50 71 l-40 32 0 44 c0 33 6 50 25 68 l24 25 56 0
c31 0 72 -7 92 -15z"/>
</g>
</svg>
