<?xml version="1.0" standalone="no"?>
<!DOCTYPE svg PUBLIC "-//W3C//DTD SVG 20010904//EN"
 "http://www.w3.org/TR/2001/REC-SVG-20010904/DTD/svg10.dtd">
<svg version="1.0" xmlns="http://www.w3.org/2000/svg"
 width="585.000000pt" height="264.000000pt" viewBox="0 0 585.000000 264.000000"
 preserveAspectRatio="xMidYMid meet">
<metadata>
Created by potrace 1.16, written by Peter Selinger 2001-2019
</metadata>
<g transform="translate(0.000000,264.000000) scale(0.100000,-0.100000)"
fill="#000000" stroke="none">
<path d="M2658 2596 l-28 -44 0 -78 0 -79 26 -39 26 -38 -15 -15 -14 -14 -38
15 c-30 13 -77 16 -227 16 -145 0 -197 3 -225 15 -19 8 -53 15 -75 15 -21 0
-55 7 -75 15 -24 10 -71 15 -150 15 -78 0 -125 5 -150 15 -77 32 -210 16 -265
-33 -23 -19 -24 -85 -2 -103 19 -15 112 -48 138 -49 44 0 147 -44 191 -81 26
-21 54 -39 62 -39 27 0 122 -49 160 -83 21 -19 70 -50 108 -70 78 -39 105 -62
139 -115 13 -21 43 -50 68 -66 24 -15 58 -49 75 -75 17 -26 51 -60 75 -75 54
-34 138 -156 138 -200 0 -19 12 -42 36 -68 53 -59 84 -132 84 -199 0 -43 8
-74 32 -125 l32 -69 -2 -155 -2 -154 -30 -31 c-17 -17 -30 -37 -30 -45 0 -8
-14 -44 -31 -80 -33 -70 -155 -200 -188 -200 -10 0 -37 -14 -60 -31 -24 -17
-71 -44 -106 -60 l-63 -29 -171 0 c-130 0 -180 4 -208 15 -19 8 -53 15 -75 15
-21 0 -55 7 -75 15 -19 8 -45 15 -57 15 -39 0 -261 80 -301 109 -22 16 -89 54
-150 85 -176 89 -328 198 -400 286 -33 41 -94 101 -135 135 -80 65 -183 182
-226 255 -15 25 -44 63 -64 85 -53 58 -70 86 -70 117 0 28 -55 148 -90 198
-23 32 -60 137 -60 168 0 13 -5 33 -11 45 -12 21 -31 142 -30 187 0 39 20 222
27 257 l6 31 -22 12 c-12 6 -32 9 -45 6 -29 -7 -95 -80 -95 -105 0 -11 -4 -23
-10 -26 -6 -4 -10 -68 -10 -160 0 -92 4 -156 10 -160 6 -3 10 -28 10 -54 0
-37 7 -57 29 -88 16 -22 39 -59 51 -82 26 -53 70 -179 70 -206 1 -49 38 -127
79 -164 24 -22 41 -47 41 -60 0 -14 31 -55 85 -111 46 -49 91 -102 99 -117 19
-38 351 -364 413 -407 27 -18 69 -44 93 -56 25 -12 66 -40 92 -61 33 -28 74
-48 143 -70 72 -23 111 -42 151 -75 49 -41 149 -84 192 -84 10 0 56 -13 102
-30 53 -18 105 -30 138 -30 29 0 69 -7 89 -15 19 -8 48 -15 64 -15 15 0 31 -4
34 -10 3 -6 48 -10 100 -10 52 0 97 4 100 10 3 6 24 10 46 10 50 0 150 33 198
66 19 13 41 24 47 24 7 0 31 9 55 20 24 11 56 20 70 20 33 0 73 31 105 82 14
22 40 48 59 59 46 28 110 124 137 206 12 38 34 82 50 98 16 19 28 42 28 58 0
15 7 44 15 64 9 20 15 66 15 108 0 42 -6 88 -15 108 -8 20 -15 47 -15 61 0 13
-13 53 -30 88 -17 35 -30 80 -30 101 0 21 -9 65 -21 99 -44 131 -112 239 -221
349 -32 32 -58 64 -58 72 0 7 -24 44 -54 81 -51 64 -123 128 -214 190 -24 16
-63 47 -87 68 -24 21 -49 38 -57 38 -25 0 -143 67 -143 81 l0 14 254 3 254 2
69 -32 69 -32 48 18 49 17 37 -15 c22 -9 67 -16 107 -16 38 0 84 -7 105 -15
19 -8 46 -15 60 -15 13 0 49 -12 80 -26 76 -34 211 -75 315 -94 26 -5 56 -13
67 -19 11 -6 52 -11 91 -11 40 0 86 -6 107 -15 l35 -15 297 0 296 1 55 18 55
19 30 44 c17 25 48 62 70 84 22 23 48 51 57 65 l17 24 33 -19 c18 -10 77 -41
131 -69 l99 -51 36 -55 c26 -39 46 -57 67 -63 17 -4 49 -23 70 -41 22 -19 63
-46 90 -60 28 -14 93 -64 145 -111 52 -47 102 -85 111 -86 9 0 45 -21 79 -47
112 -86 121 -92 174 -107 41 -12 59 -13 89 -4 l37 11 0 68 0 68 -59 31 c-33
18 -96 67 -140 109 -122 116 -222 204 -262 231 -20 13 -56 53 -79 89 l-43 65
18 46 c10 25 20 59 22 76 l5 31 -27 22 c-21 16 -42 21 -83 21 l-55 0 -56 -57
c-31 -32 -60 -66 -66 -76 l-10 -18 -70 36 c-94 48 -198 114 -232 147 -15 15
-52 38 -80 53 l-53 26 -42 -12 c-53 -15 -65 -24 -84 -62 l-16 -29 22 -53 22
-54 -13 -36 c-7 -20 -20 -42 -29 -50 -19 -17 -127 -55 -156 -55 -12 0 -38 -7
-57 -15 -28 -11 -78 -15 -210 -15 l-173 0 -29 30 -29 30 -118 0 c-83 0 -129 5
-155 15 -19 8 -46 15 -60 15 -29 0 -128 44 -139 62 -4 7 -7 50 -5 96 l3 83
-83 84 c-54 56 -94 88 -116 94 -19 5 -56 26 -83 45 l-50 36 -148 0 -147 -1
-27 -43z m282 -134 c49 -24 128 -82 134 -99 8 -21 -12 -53 -33 -53 -37 0 -165
74 -184 108 l-19 32 12 15 c16 19 46 18 90 -3z"/>
</g>
</svg>
