<?xml version="1.0" standalone="no"?>
<!DOCTYPE svg PUBLIC "-//W3C//DTD SVG 20010904//EN"
 "http://www.w3.org/TR/2001/REC-SVG-20010904/DTD/svg10.dtd">
<svg version="1.0" xmlns="http://www.w3.org/2000/svg"
 width="543.000000pt" height="186.000000pt" viewBox="0 0 543.000000 186.000000"
 preserveAspectRatio="xMidYMid meet">
<metadata>
Created by potrace 1.16, written by Peter Selinger 2001-2019
</metadata>
<g transform="translate(0.000000,186.000000) scale(0.100000,-0.100000)"
fill="#000000" stroke="none">
<path d="M1350 1830 c-57 -37 -91 -70 -146 -144 l-44 -58 0 -44 c0 -66 35
-158 83 -219 23 -29 50 -65 60 -79 10 -14 34 -30 55 -36 21 -5 56 -25 79 -45
41 -35 216 -127 263 -138 14 -4 43 -22 65 -40 51 -44 85 -61 182 -92 43 -14
102 -37 131 -50 29 -14 69 -25 89 -25 20 0 97 -20 170 -45 104 -35 146 -45
198 -45 36 0 82 -7 102 -15 24 -10 71 -15 150 -15 l115 0 65 -30 64 -30 133 0
c96 0 144 4 170 15 26 11 79 16 198 17 l163 2 50 22 c77 35 166 64 198 64 29
0 62 28 100 84 15 21 90 66 112 66 4 0 43 -37 88 -83 45 -46 98 -94 118 -107
19 -12 51 -46 70 -74 27 -39 45 -54 79 -66 33 -11 52 -27 73 -58 16 -24 47
-52 70 -64 23 -11 60 -40 82 -64 22 -23 64 -55 93 -69 29 -15 61 -39 70 -53
41 -62 165 -167 252 -213 25 -13 68 -41 97 -61 l52 -38 66 0 65 0 0 64 0 64
-32 24 c-18 14 -57 38 -86 53 -29 15 -61 39 -70 53 -9 14 -37 44 -61 68 -87
83 -103 100 -173 179 -68 76 -138 197 -138 238 0 28 19 57 38 57 9 0 40 16 69
36 59 41 66 64 32 108 l-20 26 -65 0 c-82 0 -141 -28 -207 -99 l-47 -50 0 -46
c0 -56 -21 -69 -50 -32 -11 14 -44 38 -72 55 -36 20 -66 48 -93 87 -22 32 -79
97 -127 144 -129 127 -144 142 -192 194 l-43 47 -40 0 c-63 0 -103 -61 -103
-156 0 -65 -21 -108 -73 -146 -36 -27 -99 -58 -118 -58 -7 0 -34 -14 -60 -31
l-48 -31 -37 12 c-28 9 -50 10 -88 2 -28 -6 -150 -14 -271 -16 l-220 -5 -30
19 -30 20 -118 0 c-82 0 -129 5 -154 15 -19 8 -54 15 -77 15 -23 0 -51 6 -62
14 l-19 14 18 64 c33 114 33 127 -8 209 -21 41 -56 95 -79 120 -22 25 -70 80
-105 122 -72 86 -157 164 -216 196 -22 12 -65 38 -95 57 -30 19 -66 37 -80 41
-14 3 -67 25 -118 49 -51 24 -99 44 -107 44 -7 0 -17 5 -20 10 -4 6 -72 10
-173 9 l-167 -1 -45 -28z m327 -115 c19 -8 46 -15 60 -15 28 0 178 -88 213
-125 13 -14 30 -25 37 -25 33 0 104 -43 169 -102 76 -69 161 -159 187 -198 21
-30 23 -90 3 -90 -28 0 -86 31 -103 55 -10 14 -43 52 -74 85 -62 67 -88 74
-133 39 -29 -23 -32 -44 -12 -109 27 -87 46 -117 88 -134 41 -16 44 -36 5 -36
-24 0 -227 62 -267 82 -14 7 -38 22 -55 35 -16 12 -85 49 -153 83 -128 64
-209 131 -281 230 -56 78 -32 139 76 190 23 11 53 20 66 20 14 0 40 7 58 15
44 18 71 19 116 0z"/>
<path d="M2 734 l3 -57 90 -46 c50 -25 108 -58 130 -73 22 -16 46 -28 55 -28
8 0 44 -14 78 -30 35 -17 68 -30 74 -30 19 0 136 -59 179 -89 24 -18 55 -31
71 -31 16 0 45 -7 65 -15 19 -8 60 -15 90 -15 40 0 73 -8 120 -30 47 -22 79
-30 121 -30 l57 0 45 -30 45 -30 58 0 c32 0 74 -7 94 -15 52 -22 524 -22 576
0 20 8 49 15 65 15 34 0 128 69 214 157 l57 58 1 99 0 99 -44 43 c-24 25 -53
44 -65 44 -29 0 -101 -37 -108 -56 -3 -8 5 -50 17 -94 l22 -79 -19 -33 c-13
-23 -41 -44 -87 -67 l-68 -35 -245 3 c-189 1 -253 5 -280 16 -20 8 -66 15
-105 15 -38 0 -84 7 -105 15 -19 8 -45 15 -56 15 -12 0 -62 13 -112 29 -103
33 -160 49 -227 61 -26 5 -56 13 -67 19 -11 6 -39 11 -64 11 l-44 0 -30 38
c-24 30 -46 44 -97 60 -37 12 -74 22 -84 22 -27 0 -133 39 -162 60 -65 46
-171 90 -215 90 l-46 0 3 -56z"/>
</g>
</svg>
