<?xml version="1.0" standalone="no"?>
<!DOCTYPE svg PUBLIC "-//W3C//DTD SVG 20010904//EN"
 "http://www.w3.org/TR/2001/REC-SVG-20010904/DTD/svg10.dtd">
<svg version="1.0" xmlns="http://www.w3.org/2000/svg"
 width="402.000000pt" height="156.000000pt" viewBox="0 0 402.000000 156.000000"
 preserveAspectRatio="xMidYMid meet">
<metadata>
Created by potrace 1.16, written by Peter Selinger 2001-2019
</metadata>
<g transform="translate(0.000000,156.000000) scale(0.100000,-0.100000)"
fill="#000000" stroke="none">
<path d="M37 1532 l-37 -25 0 -73 c0 -40 5 -76 10 -79 6 -4 21 -28 35 -55 17
-34 40 -59 77 -84 29 -19 75 -58 103 -86 30 -30 64 -54 85 -60 20 -5 54 -25
76 -43 49 -43 84 -61 171 -88 38 -12 82 -35 98 -51 17 -15 37 -28 45 -28 8 0
44 -14 78 -30 35 -17 75 -30 88 -30 14 0 41 -7 61 -15 19 -8 60 -15 90 -15 29
0 70 -7 90 -15 19 -8 53 -15 75 -15 21 0 55 -7 75 -15 19 -8 61 -15 92 -15
l56 0 45 -30 45 -30 181 0 c139 0 190 4 217 15 42 18 92 19 134 5 l30 -11 56
26 c31 14 61 25 67 25 6 0 56 23 113 50 108 54 139 81 215 189 24 33 51 61 59
61 9 0 35 -20 57 -45 23 -25 49 -45 57 -45 9 0 35 -15 59 -32 24 -18 62 -46
84 -62 23 -15 60 -45 84 -65 42 -35 69 -53 204 -135 34 -21 85 -62 111 -92 34
-37 60 -57 87 -64 22 -6 61 -31 92 -59 29 -26 76 -60 103 -74 28 -14 77 -48
110 -76 33 -28 81 -61 106 -75 52 -28 64 -41 99 -104 14 -25 32 -48 40 -52 8
-4 25 -12 37 -18 29 -15 62 -15 96 0 l27 13 0 68 c0 37 -4 67 -10 67 -5 0 -25
14 -43 30 -19 17 -41 30 -49 30 -25 0 -58 31 -66 63 -9 33 -55 72 -99 84 -31
7 -209 186 -233 234 -11 20 -35 49 -54 65 l-34 29 -7 57 -6 57 39 25 c45 28
53 43 40 69 -10 19 -98 67 -123 67 -22 0 -148 -65 -165 -85 l-14 -17 11 -41
c7 -23 9 -45 5 -49 -13 -14 -109 23 -148 56 -21 18 -54 41 -72 50 -18 9 -50
32 -70 50 -20 18 -49 36 -63 39 -26 7 -119 81 -193 154 -21 21 -68 62 -104 91
l-66 52 -66 0 c-91 0 -100 -11 -100 -121 0 -104 -24 -181 -68 -215 -17 -13
-61 -44 -99 -69 l-68 -45 -305 0 -306 0 -84 30 c-62 21 -104 30 -153 30 -37 0
-84 7 -104 15 -19 8 -45 15 -57 15 -12 0 -60 13 -106 30 -47 16 -102 30 -123
30 -39 0 -112 28 -159 62 l-28 19 0 96 0 96 -143 144 c-94 96 -151 146 -170
150 -15 3 -30 10 -33 14 -3 5 -60 9 -127 8 l-122 -1 -38 -26z m256 -147 c28
-13 106 -84 175 -157 23 -25 29 -53 12 -63 -10 -6 -48 12 -146 72 -78 47 -157
139 -133 154 21 13 57 11 92 -6z"/>
</g>
</svg>
