<?xml version="1.0" standalone="no"?>
<!DOCTYPE svg PUBLIC "-//W3C//DTD SVG 20010904//EN"
 "http://www.w3.org/TR/2001/REC-SVG-20010904/DTD/svg10.dtd">
<svg version="1.0" xmlns="http://www.w3.org/2000/svg"
 width="1131.000000pt" height="171.000000pt" viewBox="0 0 1131.000000 171.000000"
 preserveAspectRatio="xMidYMid meet">
<metadata>
Created by potrace 1.16, written by Peter Selinger 2001-2019
</metadata>
<g transform="translate(0.000000,171.000000) scale(0.100000,-0.100000)"
fill="#000000" stroke="none">
<path d="M0 1661 l0 -49 33 -24 c48 -38 113 -68 143 -68 15 0 66 -18 113 -41
47 -22 124 -53 171 -68 47 -16 104 -38 127 -50 23 -11 55 -21 70 -21 15 0 48
-14 73 -30 31 -21 57 -30 85 -30 23 0 79 -13 125 -30 63 -22 103 -30 155 -30
l69 0 31 -28 c37 -34 169 -76 290 -91 34 -5 70 -13 82 -19 12 -7 62 -12 110
-12 l89 0 29 -30 29 -30 43 0 c24 0 60 -7 80 -15 19 -8 53 -15 75 -15 21 0 55
-7 75 -15 20 -8 66 -15 105 -15 38 0 84 -7 105 -15 19 -8 60 -15 90 -15 29 0
70 -7 90 -15 22 -9 67 -15 120 -15 52 0 97 -6 120 -15 23 -10 69 -15 137 -15
l101 0 61 -29 60 -28 386 -2 386 -2 107 36 c60 20 124 47 144 61 25 17 49 24
82 24 l46 0 56 40 c43 31 64 56 94 112 26 48 50 79 71 91 l33 19 62 -17 c34
-10 83 -28 109 -41 26 -13 58 -24 71 -24 12 0 61 -13 107 -30 47 -16 94 -30
105 -30 12 0 59 -13 105 -30 l85 -30 98 0 99 0 65 -30 64 -30 193 0 c149 0
202 3 229 15 20 8 52 15 72 15 46 0 152 35 190 64 52 39 101 56 158 56 l55 0
44 -35 c24 -19 68 -48 98 -65 30 -17 80 -46 110 -65 30 -18 71 -43 90 -55 20
-12 46 -38 60 -58 47 -72 157 -174 266 -248 60 -41 119 -74 131 -74 26 0 47
25 61 76 l12 42 -25 53 c-14 30 -25 72 -25 96 l0 42 32 22 c19 14 51 24 82 27
l51 4 29 -31 30 -31 221 0 221 0 58 -21 c32 -11 75 -31 95 -45 l36 -24 88 0
c55 0 101 -6 124 -15 20 -8 66 -15 105 -15 38 0 84 -7 105 -15 19 -8 60 -15
90 -15 29 0 70 -7 90 -15 19 -8 53 -15 75 -15 21 0 55 -7 75 -15 24 -10 70
-15 147 -15 l112 0 89 -31 90 -31 300 5 c230 4 311 9 346 20 62 20 162 89 207
143 20 24 41 44 47 44 31 0 230 -125 255 -160 12 -17 43 -41 70 -55 26 -13 83
-48 126 -78 87 -59 155 -97 177 -97 7 0 24 -12 38 -26 13 -14 55 -47 94 -72
38 -26 83 -58 100 -72 16 -14 50 -39 74 -55 24 -16 53 -45 65 -63 l21 -32 80
2 80 3 3 61 3 62 -41 30 c-23 16 -56 33 -75 36 -40 8 -199 159 -209 199 -3 14
-37 54 -74 89 -38 34 -80 81 -94 103 -14 22 -35 49 -47 59 -14 12 -21 31 -21
53 0 52 15 73 54 73 66 0 86 61 37 111 l-29 29 -73 0 -72 0 -59 -58 -58 -59 0
-82 0 -81 -37 18 c-21 11 -50 22 -65 26 -15 3 -39 22 -54 42 -15 19 -44 44
-64 54 -58 30 -171 108 -215 150 -46 44 -94 70 -127 70 -28 0 -97 -39 -112
-62 -7 -12 -7 -30 2 -63 21 -77 16 -142 -13 -170 l-24 -25 -401 0 -401 0 -36
15 c-23 10 -69 15 -135 15 -65 0 -111 5 -135 15 -19 8 -52 15 -72 15 -20 0
-75 13 -121 30 -53 18 -105 30 -138 30 -29 0 -69 7 -89 15 -25 11 -73 15 -167
15 l-131 0 -45 30 -45 30 -58 0 c-32 0 -74 7 -94 15 -22 9 -67 15 -120 15 -52
0 -97 6 -120 15 -19 8 -53 15 -75 15 -21 0 -55 7 -75 15 -25 10 -71 15 -155
15 l-119 0 -39 -20 c-26 -13 -52 -39 -75 -75 -19 -30 -41 -55 -48 -55 -20 0
-84 49 -137 105 -25 26 -68 62 -96 81 -28 19 -71 52 -95 73 -24 21 -58 41 -76
45 -17 4 -51 24 -75 45 -24 21 -61 47 -83 59 -22 11 -78 54 -125 96 -47 42
-93 76 -103 76 -27 0 -74 -27 -91 -52 -20 -28 -20 -75 -1 -121 20 -48 19 -54
-10 -82 -18 -19 -35 -25 -68 -25 -25 0 -61 -7 -80 -15 -52 -22 -452 -22 -504
0 -23 10 -69 15 -131 15 l-96 0 -133 45 c-73 25 -149 45 -170 45 -25 0 -53 10
-83 30 -25 16 -56 30 -70 30 -39 0 -128 34 -194 74 -57 34 -145 66 -183 66
-29 0 -96 -43 -112 -72 l-15 -27 17 -49 18 -49 -17 -42 c-18 -44 -56 -81 -84
-81 -10 0 -39 -18 -65 -39 -68 -56 -150 -81 -264 -81 -63 0 -109 -6 -142 -17
l-49 -18 -49 18 -49 17 -291 0 -292 0 -36 15 c-25 11 -72 15 -165 15 -92 0
-139 4 -165 15 -19 8 -61 15 -92 15 l-56 0 -45 30 -45 30 -103 0 c-69 0 -115
5 -139 15 -25 10 -71 15 -152 15 l-117 0 -29 30 c-19 20 -39 30 -57 30 -16 0
-45 7 -65 15 -19 8 -53 15 -75 15 -21 0 -55 7 -75 15 -19 8 -60 15 -90 15 -29
0 -70 7 -90 15 -19 8 -56 15 -81 15 -32 0 -54 7 -77 24 -39 30 -232 96 -280
96 -20 0 -52 7 -72 15 -19 8 -52 15 -72 15 -49 0 -135 31 -166 60 -25 24 -203
89 -244 90 -14 0 -80 27 -148 60 -67 33 -129 60 -137 60 -8 0 -18 5 -21 10 -3
6 -17 10 -31 10 l-24 0 0 -49z"/>
</g>
</svg>
