<?xml version="1.0" standalone="no"?>
<!DOCTYPE svg PUBLIC "-//W3C//DTD SVG 20010904//EN"
 "http://www.w3.org/TR/2001/REC-SVG-20010904/DTD/svg10.dtd">
<svg version="1.0" xmlns="http://www.w3.org/2000/svg"
 width="510.000000pt" height="285.000000pt" viewBox="0 0 510.000000 285.000000"
 preserveAspectRatio="xMidYMid meet">
<metadata>
Created by potrace 1.16, written by Peter Selinger 2001-2019
</metadata>
<g transform="translate(0.000000,285.000000) scale(0.100000,-0.100000)"
fill="#000000" stroke="none">
<path d="M70 2841 c0 -5 -16 -24 -35 -42 l-35 -33 0 -56 0 -55 57 -56 c32 -31
68 -70 81 -87 13 -17 42 -44 65 -59 26 -18 46 -41 53 -61 15 -46 22 -51 131
-88 157 -53 244 -43 329 38 l31 29 36 -14 c19 -8 53 -31 75 -51 22 -20 46 -36
53 -36 8 0 31 -11 52 -25 47 -33 232 -125 249 -125 8 0 29 -11 48 -24 20 -13
83 -47 140 -76 58 -29 125 -69 150 -90 57 -47 104 -70 204 -101 54 -16 92 -35
120 -60 22 -20 73 -53 111 -73 73 -39 140 -79 236 -140 30 -20 62 -36 70 -36
8 0 28 -9 44 -21 53 -36 178 -95 244 -115 48 -14 70 -27 89 -52 30 -39 167
-112 210 -112 18 0 38 -10 53 -26 25 -27 89 -64 110 -64 7 0 33 -13 58 -29 25
-16 60 -32 78 -36 17 -3 51 -23 75 -44 24 -21 85 -59 136 -85 52 -26 112 -60
134 -76 23 -17 48 -30 56 -30 14 0 109 -39 188 -77 17 -8 54 -35 82 -59 28
-24 56 -44 64 -44 7 0 40 -13 73 -28 33 -16 71 -32 85 -35 14 -3 47 -24 74
-47 26 -22 55 -40 64 -40 9 0 68 -25 131 -56 85 -42 128 -70 162 -105 26 -27
56 -49 67 -49 11 0 32 -16 46 -35 26 -34 110 -85 139 -85 7 0 24 -12 38 -26
13 -14 42 -35 64 -46 22 -12 63 -38 93 -60 l53 -39 47 3 47 3 3 76 3 77 -43
31 c-23 17 -49 31 -58 31 -9 0 -27 12 -41 26 -13 14 -41 35 -63 46 -21 11 -56
32 -77 48 -21 15 -55 31 -75 35 -26 4 -50 21 -88 62 -28 30 -68 66 -88 79 -23
15 -62 62 -107 131 l-71 108 0 41 c0 28 8 53 25 78 47 69 30 96 -62 96 -48 0
-76 -6 -113 -25 -86 -43 -99 -89 -55 -189 29 -66 25 -85 -13 -60 -38 25 -120
64 -134 64 -7 0 -33 14 -58 30 -25 16 -52 30 -61 30 -8 0 -26 12 -40 26 -30
33 -117 77 -211 108 -70 23 -126 52 -248 129 -30 19 -66 37 -80 40 -14 4 -43
22 -65 40 -39 34 -174 107 -196 107 -17 0 -80 31 -114 56 -42 31 -164 90 -202
98 -17 4 -51 24 -75 45 -44 39 -98 71 -118 71 -18 0 -81 31 -115 56 -39 28
-230 124 -249 124 -7 0 -42 21 -76 48 -108 82 -123 92 -149 99 -27 6 -116 56
-212 117 -31 20 -68 36 -85 36 -30 0 -137 64 -201 121 -19 16 -41 29 -49 29
-21 0 -82 29 -119 56 -16 12 -85 50 -153 84 -68 34 -144 80 -168 101 -25 21
-49 39 -53 39 -4 0 -30 19 -57 43 -28 23 -93 62 -145 86 -98 45 -110 51 -224
112 -38 21 -101 48 -140 60 -39 12 -83 35 -100 51 -17 15 -38 28 -47 28 -9 0
-20 5 -23 10 -8 13 -135 13 -135 1z m345 -301 c37 -16 73 -30 80 -30 7 0 23
-8 36 -19 l23 -19 -13 -16 c-7 -9 -23 -16 -34 -16 -28 0 -159 64 -182 90 l-19
21 14 9 c21 13 21 13 95 -20z"/>
</g>
</svg>
