<?xml version="1.0" standalone="no"?>
<!DOCTYPE svg PUBLIC "-//W3C//DTD SVG 20010904//EN"
 "http://www.w3.org/TR/2001/REC-SVG-20010904/DTD/svg10.dtd">
<svg version="1.0" xmlns="http://www.w3.org/2000/svg"
 width="711.000000pt" height="204.000000pt" viewBox="0 0 711.000000 204.000000"
 preserveAspectRatio="xMidYMid meet">
<metadata>
Created by potrace 1.16, written by Peter Selinger 2001-2019
</metadata>
<g transform="translate(0.000000,204.000000) scale(0.100000,-0.100000)"
fill="#000000" stroke="none">
<path d="M4520 2020 c-14 -11 -40 -23 -59 -26 -54 -11 -107 -66 -127 -132
l-16 -57 12 -50 c14 -58 86 -172 130 -207 16 -13 57 -43 91 -68 33 -25 86 -65
116 -89 31 -24 71 -47 89 -53 18 -5 57 -30 86 -57 29 -26 71 -57 93 -69 91
-46 265 -176 265 -198 0 -22 -70 -74 -99 -74 -16 0 -45 -7 -64 -15 -21 -8 -67
-15 -105 -15 -39 0 -85 -7 -105 -15 -20 -8 -61 -15 -90 -15 -30 0 -71 -7 -92
-15 l-37 -16 -276 5 c-152 3 -304 8 -337 11 -33 2 -132 8 -220 13 -95 4 -169
12 -182 20 -14 7 -64 12 -138 12 -80 0 -127 5 -152 15 -26 11 -75 15 -192 15
-107 0 -170 4 -201 14 -77 24 -133 37 -190 45 -30 4 -71 12 -90 18 -50 16
-118 33 -172 43 -26 5 -56 13 -67 19 -11 6 -37 11 -58 11 -37 0 -245 65 -301
94 -43 22 -149 56 -176 56 -13 0 -91 33 -173 74 -82 40 -163 77 -181 80 -17 4
-57 25 -89 47 -55 37 -92 47 -127 33 -9 -3 -16 -14 -16 -23 1 -25 68 -111 88
-111 10 0 31 -13 46 -29 15 -16 46 -36 69 -46 23 -9 54 -23 70 -31 15 -8 39
-20 55 -28 29 -15 111 -49 175 -72 22 -8 55 -26 75 -39 20 -14 49 -25 65 -25
15 0 44 -7 64 -15 19 -8 45 -15 57 -15 27 0 215 -63 284 -95 29 -14 71 -25 93
-25 22 0 56 -7 76 -15 22 -9 67 -15 117 -15 44 0 101 -6 126 -14 78 -25 133
-37 195 -45 34 -5 70 -13 82 -19 12 -7 47 -12 78 -12 30 0 72 -7 92 -15 23
-10 69 -15 134 -15 56 0 110 -5 126 -12 25 -11 454 -28 703 -28 314 1 799 17
823 27 16 7 46 13 67 13 22 0 65 13 102 30 34 16 77 30 93 30 17 0 50 13 75
30 25 16 49 30 54 30 17 0 317 -150 350 -174 17 -13 92 -55 166 -92 74 -37
149 -77 165 -90 35 -25 169 -94 185 -94 24 0 97 -41 144 -79 26 -23 55 -41 63
-41 36 0 173 -86 212 -134 7 -9 20 -16 28 -16 31 0 102 -41 161 -94 35 -31 71
-56 82 -56 10 0 22 -4 25 -10 13 -21 92 -11 134 17 l41 27 0 51 0 51 -66 22
c-36 12 -100 45 -141 73 -42 28 -103 64 -135 81 -32 16 -78 46 -101 66 -23 20
-65 54 -94 75 -52 38 -83 86 -83 129 0 17 13 35 40 57 51 41 53 73 8 102 -34
21 -36 21 -153 1 -43 -8 -81 -51 -92 -105 -9 -43 -32 -49 -99 -26 -73 24 -101
38 -139 65 -39 28 -171 94 -188 94 -15 0 -119 53 -158 81 -15 10 -32 19 -38
19 -6 0 -11 5 -11 10 0 6 4 10 9 10 6 0 13 -4 16 -10 11 -17 48 -11 100 18 37
20 57 40 77 77 l28 50 0 78 0 77 -36 73 c-20 39 -46 86 -59 102 -12 17 -34 54
-49 82 -17 35 -40 62 -66 78 -22 14 -51 42 -64 63 -26 40 -55 68 -101 97 -16
10 -57 44 -90 76 -55 52 -185 129 -217 129 -8 0 -30 11 -49 24 -46 32 -148 66
-194 66 -20 0 -52 7 -72 15 -19 8 -62 15 -94 15 -32 0 -61 5 -64 10 -3 6 -47
10 -98 10 l-92 0 -25 -20z m277 -125 c19 -8 47 -15 62 -15 14 0 55 -14 89 -30
35 -17 73 -30 85 -30 46 0 146 -44 198 -86 30 -24 76 -58 102 -75 33 -21 58
-49 79 -86 18 -32 46 -64 69 -78 21 -14 48 -35 60 -47 35 -37 151 -285 144
-308 -9 -28 -20 -25 -47 11 -13 17 -34 42 -48 55 -50 48 -100 100 -125 127
l-25 28 -57 -3 -57 -3 -23 -34 c-18 -26 -21 -42 -17 -72 l7 -39 -35 0 c-26 0
-64 20 -163 86 -72 48 -145 91 -162 96 -19 5 -44 24 -60 44 -14 20 -52 48 -82
64 -108 54 -240 176 -267 245 l-16 43 17 36 c20 42 24 45 85 68 57 21 140 22
187 3z"/>
<path d="M265 1045 c-16 -8 -43 -14 -58 -15 -34 0 -143 -53 -179 -88 l-28 -26
0 -148 0 -147 31 -16 c17 -9 40 -15 52 -13 33 5 67 63 67 117 0 58 16 118 42
154 l19 27 73 0 c43 0 89 6 110 15 l37 16 39 -12 c31 -9 49 -9 80 0 l39 12 37
-16 c25 -10 71 -15 151 -15 78 0 125 -5 150 -15 19 -8 54 -15 77 -15 25 0 66
-12 104 -30 35 -17 74 -30 85 -30 12 0 42 -6 67 -14 59 -19 124 -35 180 -46
25 -4 96 -33 158 -64 62 -31 123 -56 135 -56 36 0 132 -36 255 -95 62 -30 124
-55 138 -55 13 0 41 -7 61 -15 19 -8 46 -15 60 -15 28 0 142 37 161 53 23 19
62 105 62 137 0 49 -45 127 -89 155 -22 13 -54 37 -73 53 -56 49 -138 82 -282
113 l-59 13 -36 -20 c-42 -22 -53 -60 -24 -86 22 -20 157 -88 174 -88 22 0 77
-40 104 -76 l28 -36 -14 -9 c-34 -22 -93 -9 -203 45 -114 55 -221 96 -254 96
-21 0 -120 33 -178 60 -85 39 -256 90 -301 90 -26 0 -88 13 -138 29 -134 43
-172 52 -255 60 -41 4 -85 13 -97 19 -33 18 -468 15 -508 -3z"/>
</g>
</svg>
