<?xml version="1.0" standalone="no"?>
<!DOCTYPE svg PUBLIC "-//W3C//DTD SVG 20010904//EN"
 "http://www.w3.org/TR/2001/REC-SVG-20010904/DTD/svg10.dtd">
<svg version="1.0" xmlns="http://www.w3.org/2000/svg"
 width="555.000000pt" height="252.000000pt" viewBox="0 0 555.000000 252.000000"
 preserveAspectRatio="xMidYMid meet">
<metadata>
Created by potrace 1.16, written by Peter Selinger 2001-2019
</metadata>
<g transform="translate(0.000000,252.000000) scale(0.100000,-0.100000)"
fill="#000000" stroke="none">
<path d="M115 2504 c-11 -9 -41 -27 -67 -40 l-48 -24 0 -104 0 -104 37 -32
c21 -17 73 -61 115 -98 l78 -67 0 -106 0 -105 30 -29 c17 -16 30 -35 30 -42 0
-30 42 -93 79 -120 22 -15 52 -48 68 -72 15 -24 46 -55 68 -69 22 -14 67 -51
100 -83 48 -46 74 -62 128 -80 l68 -22 45 21 c28 14 44 28 44 40 0 28 -73 87
-193 156 -35 20 -56 42 -79 82 -19 34 -46 65 -70 80 -21 14 -44 37 -50 52 -6
15 -23 57 -39 93 -35 80 -36 106 -4 153 14 20 25 47 25 59 0 30 -58 85 -102
97 -20 6 -68 40 -111 78 -86 75 -96 104 -52 147 l24 25 164 0 163 0 29 -30
c23 -24 37 -30 69 -30 22 0 81 -13 131 -29 101 -33 159 -48 225 -61 25 -5 91
-31 148 -59 57 -28 154 -68 215 -88 75 -24 122 -46 142 -65 17 -15 37 -28 45
-28 42 0 176 -79 255 -151 17 -15 45 -30 64 -34 24 -5 54 -27 95 -70 34 -34
75 -70 91 -80 17 -10 64 -50 105 -90 41 -39 94 -84 118 -100 24 -16 55 -46 70
-68 15 -22 66 -82 115 -134 48 -52 87 -99 87 -103 0 -5 24 -36 54 -69 52 -59
96 -154 96 -210 0 -25 28 -83 74 -153 17 -26 40 -62 51 -80 l20 -33 54 -3 c40
-2 58 1 73 15 l20 18 -5 90 c-3 49 -8 102 -12 118 l-7 27 30 0 c47 0 81 -17
120 -58 60 -64 92 -114 92 -143 0 -15 13 -56 30 -91 16 -34 30 -70 30 -79 0
-9 13 -34 29 -56 16 -22 37 -55 46 -74 10 -19 38 -55 64 -80 25 -25 57 -60 70
-78 13 -18 41 -43 62 -57 22 -13 50 -42 64 -64 19 -30 41 -48 83 -67 31 -14
65 -30 74 -34 38 -19 75 -10 107 26 38 44 47 76 32 125 -6 20 -11 47 -11 59 0
30 -34 93 -83 156 -23 29 -62 81 -87 115 -25 34 -75 94 -111 134 -74 79 -169
195 -169 207 0 20 41 50 95 68 l59 21 213 0 c167 0 221 -3 250 -15 20 -8 66
-15 105 -15 38 0 84 -7 105 -15 19 -8 45 -15 56 -15 11 0 101 -27 199 -60 98
-33 188 -60 201 -60 13 0 34 -12 48 -26 27 -29 197 -118 245 -128 17 -4 56
-28 85 -53 30 -25 72 -57 94 -71 22 -15 60 -42 84 -61 25 -19 70 -52 100 -73
l56 -38 48 0 47 0 0 70 0 70 -48 24 c-27 14 -76 48 -108 75 -32 28 -89 67
-126 86 -37 20 -78 48 -91 63 -152 170 -187 225 -187 300 0 41 14 62 40 62 22
0 50 32 50 57 0 91 -199 59 -258 -42 -23 -41 -23 -40 -5 -152 4 -23 1 -34 -9
-38 -8 -3 -69 12 -137 35 -67 22 -137 40 -155 40 -17 0 -70 13 -116 30 -47 16
-102 30 -123 30 -21 0 -54 7 -74 15 -19 8 -53 15 -75 15 -21 0 -55 7 -75 15
-28 12 -86 15 -289 15 l-253 0 -124 -60 c-68 -33 -135 -60 -148 -60 -14 0 -62
25 -107 55 -90 60 -179 95 -239 95 -49 0 -100 34 -138 91 -37 57 -478 503
-529 536 -22 14 -60 44 -85 67 -25 23 -65 55 -89 71 -24 16 -62 45 -85 66 -23
20 -97 64 -165 98 -68 34 -142 75 -164 91 -23 17 -47 30 -55 30 -23 0 -137 55
-184 89 -31 23 -53 31 -83 31 -48 0 -131 27 -234 75 -128 61 -274 105 -348
105 l-66 0 -35 30 c-21 19 -45 30 -63 30 -16 0 -32 5 -35 10 -4 6 -82 10 -203
10 l-197 -1 -20 -15z m3454 -2028 c28 -30 51 -61 51 -69 0 -8 7 -21 16 -28 26
-21 85 -120 82 -136 l-3 -15 -28 22 c-15 12 -41 49 -58 81 -16 33 -36 62 -44
65 -16 6 -77 87 -88 117 -13 34 20 17 72 -37z"/>
</g>
</svg>
