<?xml version="1.0" standalone="no"?>
<!DOCTYPE svg PUBLIC "-//W3C//DTD SVG 20010904//EN"
 "http://www.w3.org/TR/2001/REC-SVG-20010904/DTD/svg10.dtd">
<svg version="1.0" xmlns="http://www.w3.org/2000/svg"
 width="225.000000pt" height="318.000000pt" viewBox="0 0 225.000000 318.000000"
 preserveAspectRatio="xMidYMid meet">
<metadata>
Created by potrace 1.16, written by Peter Selinger 2001-2019
</metadata>
<g transform="translate(0.000000,318.000000) scale(0.100000,-0.100000)"
fill="#000000" stroke="none">
<path d="M0 3145 l0 -35 60 -30 c33 -16 64 -30 71 -30 6 0 38 -13 72 -28 34
-16 74 -32 89 -35 15 -4 35 -19 45 -34 10 -15 37 -46 61 -69 l42 -41 0 -41 0
-41 -28 -19 c-15 -11 -46 -25 -68 -31 -44 -12 -63 -28 -88 -79 -14 -27 -15
-40 -7 -64 6 -17 11 -43 11 -58 0 -15 13 -45 29 -67 16 -22 39 -60 51 -83 37
-72 149 -233 253 -365 13 -16 45 -61 71 -100 27 -38 68 -88 92 -111 27 -25 44
-50 44 -63 0 -14 20 -43 53 -75 29 -29 83 -98 120 -154 37 -55 81 -110 97
-122 17 -12 30 -30 30 -42 0 -13 27 -48 68 -88 52 -51 71 -78 82 -116 12 -38
24 -54 57 -76 28 -19 66 -65 117 -142 42 -62 91 -125 110 -140 23 -17 39 -40
46 -66 8 -28 26 -53 65 -87 30 -26 55 -54 55 -61 0 -29 42 -92 79 -119 21 -15
49 -43 62 -63 13 -19 42 -56 65 -81 23 -25 53 -64 67 -86 14 -22 38 -50 54
-62 15 -12 62 -48 104 -81 43 -33 86 -60 98 -60 l21 0 0 53 0 53 -57 65 c-114
130 -155 184 -183 240 -16 30 -44 68 -64 82 -21 16 -39 41 -45 62 -5 19 -27
56 -49 82 -22 26 -48 64 -57 83 -10 19 -33 52 -51 72 -18 20 -42 55 -54 77
-11 22 -34 51 -51 63 -17 13 -43 43 -57 68 -14 25 -44 65 -67 90 -22 25 -63
79 -90 120 -27 41 -67 95 -90 120 -22 25 -61 77 -87 115 -25 39 -58 81 -72 94
-14 14 -26 33 -26 44 0 10 -24 42 -52 71 -29 29 -80 92 -113 142 -32 49 -81
113 -107 142 -27 30 -52 70 -58 92 -7 27 -27 53 -64 87 -30 26 -64 66 -77 88
-13 22 -44 64 -71 93 -26 29 -52 69 -57 88 -5 20 -20 50 -34 67 -13 18 -29 47
-37 66 l-14 34 27 19 c28 20 92 110 126 176 30 59 26 96 -22 187 l-42 80 -55
30 c-30 17 -76 44 -103 61 -26 18 -62 37 -80 44 -17 6 -40 16 -49 21 -10 5
-74 9 -143 9 l-125 0 0 -35z"/>
</g>
</svg>
