<?xml version="1.0" standalone="no"?>
<!DOCTYPE svg PUBLIC "-//W3C//DTD SVG 20010904//EN"
 "http://www.w3.org/TR/2001/REC-SVG-20010904/DTD/svg10.dtd">
<svg version="1.0" xmlns="http://www.w3.org/2000/svg"
 width="492.000000pt" height="132.000000pt" viewBox="0 0 492.000000 132.000000"
 preserveAspectRatio="xMidYMid meet">
<metadata>
Created by potrace 1.16, written by Peter Selinger 2001-2019
</metadata>
<g transform="translate(0.000000,132.000000) scale(0.100000,-0.100000)"
fill="#000000" stroke="none">
<path d="M0 1303 c0 -11 16 -25 38 -36 20 -9 51 -36 68 -60 24 -32 41 -45 77
-54 26 -7 69 -32 101 -57 30 -25 103 -70 163 -100 59 -30 130 -73 157 -95 26
-23 55 -41 64 -41 19 0 102 -51 162 -100 25 -21 69 -50 98 -65 88 -46 106 -98
52 -150 l-30 -29 0 -51 c0 -37 6 -60 25 -87 14 -21 31 -54 38 -75 8 -26 27
-47 63 -72 28 -20 72 -55 98 -78 25 -24 53 -43 62 -43 20 0 157 -64 196 -91
l26 -19 101 0 101 0 0 115 c0 149 -24 231 -82 278 -26 21 -38 38 -36 52 l3 20
197 3 198 2 36 -15 c46 -19 111 -19 157 0 51 21 273 21 324 0 23 -10 69 -15
135 -15 65 0 111 -5 135 -15 l35 -15 340 0 339 0 36 -15 35 -15 400 0 399 0
36 -15 c22 -9 67 -15 120 -15 52 0 97 -6 120 -15 19 -8 60 -15 90 -15 29 0 70
-7 90 -15 19 -8 62 -15 94 -15 l59 0 0 85 0 85 -25 0 c-14 0 -42 7 -62 15 -19
8 -47 15 -60 15 -14 0 -54 13 -90 30 -35 16 -69 30 -75 30 -21 0 -136 59 -203
105 -81 55 -148 116 -177 163 l-20 33 16 24 c9 14 20 25 25 25 11 0 31 46 31
71 0 12 -12 25 -35 36 l-34 16 -57 -13 c-76 -18 -100 -40 -119 -108 l-17 -57
12 -50 c17 -69 32 -89 89 -120 27 -15 64 -45 81 -66 20 -25 44 -42 69 -49 49
-13 68 -34 51 -55 l-12 -15 -170 0 c-127 0 -177 4 -205 15 l-35 15 -295 0
-294 0 -36 15 c-28 12 -86 15 -285 15 -198 0 -256 3 -285 15 l-35 15 -550 0
-549 0 -36 15 c-20 8 -66 15 -105 15 l-70 0 -72 35 c-88 44 -196 111 -233 147
-15 14 -73 49 -128 77 -55 27 -122 68 -149 90 -26 23 -56 41 -65 41 -28 0
-133 55 -226 119 -62 42 -99 61 -121 61 -20 0 -39 9 -57 28 -15 16 -48 39 -73
51 -25 13 -50 31 -57 42 l-12 19 -82 0 -83 0 0 -17z m1244 -813 c14 -5 42 -24
63 -43 21 -19 57 -44 80 -55 55 -28 79 -61 103 -141 l19 -66 -12 -12 -13 -13
-59 21 c-102 36 -209 129 -246 215 -24 58 -24 69 3 88 26 19 29 19 62 6z"/>
</g>
</svg>
