<?xml version="1.0" standalone="no"?>
<!DOCTYPE svg PUBLIC "-//W3C//DTD SVG 20010904//EN"
 "http://www.w3.org/TR/2001/REC-SVG-20010904/DTD/svg10.dtd">
<svg version="1.0" xmlns="http://www.w3.org/2000/svg"
 width="363.000000pt" height="213.000000pt" viewBox="0 0 363.000000 213.000000"
 preserveAspectRatio="xMidYMid meet">
<metadata>
Created by potrace 1.16, written by Peter Selinger 2001-2019
</metadata>
<g transform="translate(0.000000,213.000000) scale(0.100000,-0.100000)"
fill="#000000" stroke="none">
<path d="M2 2103 c2 -20 24 -43 88 -94 47 -36 105 -87 130 -111 26 -27 58 -49
77 -53 18 -3 75 -35 128 -71 52 -35 123 -78 157 -95 35 -17 81 -51 103 -75 27
-29 73 -59 145 -94 58 -29 127 -70 153 -92 26 -22 63 -44 82 -49 19 -5 58 -32
88 -59 29 -27 87 -65 128 -86 41 -20 94 -53 119 -74 46 -38 120 -80 140 -80 7
0 35 -20 63 -45 28 -24 77 -58 110 -76 33 -17 94 -55 136 -84 42 -29 94 -61
116 -73 22 -11 139 -86 260 -168 121 -81 254 -165 295 -186 41 -22 100 -55
130 -74 30 -19 66 -37 80 -41 14 -3 39 -18 55 -33 17 -15 59 -42 93 -60 35
-17 82 -44 104 -61 23 -16 47 -29 55 -29 8 0 48 -20 89 -45 40 -25 77 -45 82
-45 4 0 24 -11 44 -25 l37 -25 116 0 116 0 54 41 55 41 0 89 c0 49 -5 91 -10
94 -6 4 -21 28 -34 53 -13 26 -47 67 -76 92 -28 25 -70 63 -93 86 -48 47 -134
117 -189 154 -21 14 -45 39 -54 55 l-16 31 16 38 c9 21 16 66 16 100 l0 62
-47 68 -48 69 -90 45 c-132 66 -210 92 -283 92 l-64 0 -29 -29 c-54 -54 -28
-111 50 -111 52 0 150 -44 225 -100 94 -71 110 -150 30 -150 -43 0 -94 -45
-94 -84 0 -39 37 -71 147 -127 68 -34 111 -63 128 -85 15 -19 44 -43 66 -55
22 -11 69 -48 104 -82 35 -34 78 -74 95 -89 23 -20 30 -35 30 -63 0 -50 -15
-75 -47 -75 -31 0 -196 78 -254 120 -23 16 -48 30 -56 30 -14 0 -105 50 -203
114 -30 19 -98 56 -150 82 -52 26 -108 57 -125 70 -16 12 -59 37 -94 54 -35
18 -80 47 -100 65 -20 18 -51 40 -70 50 -19 9 -52 30 -74 46 -22 16 -48 29
-57 29 -10 0 -46 21 -80 48 -108 82 -123 92 -149 99 -14 3 -38 17 -54 31 -15
14 -47 37 -71 51 -115 67 -183 111 -201 131 -11 12 -38 31 -60 43 -22 11 -54
31 -72 44 -17 13 -47 28 -65 34 -19 5 -52 24 -74 43 -22 19 -69 49 -104 67
-35 17 -79 46 -99 64 -20 18 -82 55 -137 83 -74 37 -110 62 -134 91 -17 23
-38 41 -46 41 -27 0 -98 38 -148 79 -26 23 -56 41 -65 41 -9 0 -29 9 -46 21
-16 11 -52 32 -80 46 -27 14 -72 43 -98 65 -26 22 -62 44 -80 49 -18 5 -54 27
-81 49 -26 22 -57 40 -67 40 -11 0 -24 11 -31 25 l-11 25 -64 0 -64 0 3 -27z"/>
</g>
</svg>
