<?xml version="1.0" standalone="no"?>
<!DOCTYPE svg PUBLIC "-//W3C//DTD SVG 20010904//EN"
 "http://www.w3.org/TR/2001/REC-SVG-20010904/DTD/svg10.dtd">
<svg version="1.0" xmlns="http://www.w3.org/2000/svg"
 width="378.000000pt" height="189.000000pt" viewBox="0 0 378.000000 189.000000"
 preserveAspectRatio="xMidYMid meet">
<metadata>
Created by potrace 1.16, written by Peter Selinger 2001-2019
</metadata>
<g transform="translate(0.000000,189.000000) scale(0.100000,-0.100000)"
fill="#000000" stroke="none">
<path d="M93 1871 c-6 -10 -29 -27 -50 -38 -41 -21 -52 -50 -35 -87 5 -12 14
-33 20 -48 6 -14 33 -41 61 -59 27 -18 62 -52 77 -76 15 -24 46 -56 68 -71 25
-17 52 -48 69 -80 17 -31 46 -64 73 -84 24 -17 62 -55 83 -83 27 -35 49 -54
68 -58 37 -7 83 -53 90 -89 6 -32 28 -53 63 -61 14 -4 47 -24 74 -47 37 -31
57 -40 85 -40 70 0 81 46 25 101 -19 18 -50 57 -69 85 -18 27 -53 63 -77 78
-25 15 -58 49 -75 75 -17 26 -51 59 -75 74 -24 16 -54 45 -68 65 -13 20 -49
64 -80 97 -80 85 -134 173 -119 191 15 19 100 18 146 -1 19 -8 54 -15 77 -15
29 0 54 -9 86 -30 l45 -30 70 0 c55 0 96 -9 187 -40 64 -21 135 -48 157 -59
22 -12 51 -21 65 -21 14 0 37 -5 53 -12 15 -6 56 -14 90 -18 62 -7 66 -9 156
-83 27 -21 153 -66 187 -67 30 0 138 -50 183 -84 18 -14 68 -36 112 -50 91
-30 117 -42 160 -72 36 -26 170 -94 185 -94 15 0 91 -36 110 -52 8 -7 30 -32
48 -55 l34 -43 35 0 c35 0 65 -23 106 -83 10 -15 34 -31 55 -36 69 -19 158
-69 214 -120 30 -28 72 -56 92 -63 20 -7 56 -28 79 -46 23 -18 67 -52 98 -75
31 -23 90 -69 130 -102 41 -33 93 -73 116 -88 61 -42 231 -220 239 -251 l6
-26 79 0 79 0 0 78 0 79 -20 18 c-10 9 -31 40 -45 68 -15 27 -42 72 -60 99
-18 26 -36 62 -40 79 -4 17 -20 59 -36 93 -15 33 -31 80 -35 103 l-6 41 40 26
c49 31 62 52 62 101 0 27 -8 44 -29 66 l-29 29 -47 0 c-25 0 -62 7 -82 15 -19
8 -45 15 -56 15 -52 0 -150 45 -202 92 -29 26 -70 53 -90 60 -25 9 -49 28 -69
55 -17 23 -48 62 -70 87 -45 54 -44 76 10 136 43 48 42 76 -5 107 -45 31 -74
29 -146 -10 -43 -23 -66 -43 -82 -72 -45 -79 -23 -144 88 -264 38 -40 69 -77
69 -81 0 -4 35 -35 77 -69 57 -46 85 -61 108 -61 20 0 47 -11 71 -30 21 -16
60 -44 85 -61 62 -43 79 -74 79 -147 0 -68 -6 -92 -24 -92 -7 0 -47 32 -90 70
-42 39 -84 70 -94 70 -9 0 -30 9 -47 21 -16 11 -55 33 -85 48 -30 16 -83 54
-118 85 -34 31 -70 56 -78 56 -31 0 -150 62 -203 106 -38 31 -62 44 -85 44
l-31 0 -47 54 -47 53 -87 28 c-94 30 -113 39 -159 71 -54 38 -174 94 -203 94
-15 0 -97 34 -181 75 -84 41 -163 75 -175 75 -37 0 -125 36 -154 62 -15 14
-36 30 -47 36 -51 26 -149 52 -197 52 -38 0 -71 8 -116 30 -35 17 -76 30 -90
30 -15 0 -52 12 -82 26 -80 37 -165 64 -202 64 -18 0 -53 6 -78 14 -70 22
-131 37 -173 43 -20 3 -40 9 -43 14 -3 5 -67 9 -142 9 l-137 0 -12 -19z"/>
</g>
</svg>
