<?xml version="1.0" standalone="no"?>
<!DOCTYPE svg PUBLIC "-//W3C//DTD SVG 20010904//EN"
 "http://www.w3.org/TR/2001/REC-SVG-20010904/DTD/svg10.dtd">
<svg version="1.0" xmlns="http://www.w3.org/2000/svg"
 width="510.000000pt" height="222.000000pt" viewBox="0 0 510.000000 222.000000"
 preserveAspectRatio="xMidYMid meet">
<metadata>
Created by potrace 1.16, written by Peter Selinger 2001-2019
</metadata>
<g transform="translate(0.000000,222.000000) scale(0.100000,-0.100000)"
fill="#000000" stroke="none">
<path d="M1140 2211 c-8 -5 -39 -19 -68 -32 -32 -14 -72 -43 -102 -75 l-50
-53 0 -126 0 -126 21 -41 c62 -121 194 -266 286 -313 65 -33 80 -50 63 -70 -8
-10 -30 -15 -62 -15 -27 0 -65 7 -85 15 -19 8 -54 15 -77 15 -27 0 -53 8 -77
24 -46 32 -148 66 -194 66 -20 0 -52 7 -72 15 -20 8 -66 15 -105 15 -38 0 -84
7 -105 15 -19 8 -52 15 -72 15 -20 0 -75 13 -121 30 -47 16 -102 30 -123 30
-21 0 -54 7 -74 15 -19 8 -55 15 -79 15 l-44 0 0 -39 0 -39 42 -31 c23 -17 53
-31 67 -31 15 0 46 -6 71 -14 57 -18 124 -35 175 -45 22 -4 95 -26 162 -49
l123 -42 80 0 c49 0 95 -6 117 -15 19 -8 47 -15 62 -15 14 0 46 -14 71 -30 25
-16 56 -30 70 -30 14 0 45 -6 70 -14 98 -31 139 -39 240 -45 58 -4 115 -12
127 -19 13 -7 63 -12 125 -12 l103 0 45 -30 c25 -16 58 -30 73 -30 16 0 58
-13 94 -30 35 -16 75 -30 89 -30 14 0 41 -7 61 -15 19 -8 45 -15 56 -15 11 0
82 -20 156 -44 196 -63 215 -68 326 -75 l100 -6 40 -28 c28 -19 52 -27 82 -27
23 0 60 -7 81 -15 l38 -16 230 4 c237 3 241 4 409 58 51 16 113 29 142 29 28
0 67 7 86 15 48 20 70 19 120 -5 52 -24 66 -36 100 -82 15 -20 43 -46 61 -59
18 -12 43 -38 56 -58 41 -62 73 -92 131 -121 31 -16 80 -51 110 -77 30 -27 70
-59 90 -72 20 -13 46 -39 59 -58 13 -19 37 -44 54 -56 17 -12 60 -49 96 -81
36 -33 93 -81 127 -108 38 -30 69 -64 80 -88 l18 -40 90 2 90 3 0 64 0 64 -72
49 c-41 29 -151 131 -260 241 l-188 192 -48 102 -49 101 12 21 c7 15 20 21 43
21 60 0 78 52 31 89 l-27 21 -84 0 -85 0 -26 -29 c-15 -17 -40 -46 -55 -65
-16 -20 -35 -36 -42 -36 -7 0 -45 28 -83 62 -39 35 -82 71 -97 82 -15 10 -43
51 -62 93 l-35 74 16 42 c24 63 20 89 -23 175 -38 74 -94 139 -154 175 -15 10
-38 35 -52 57 -19 31 -44 49 -106 80 l-80 41 -97 -3 -96 -3 -23 -34 c-39 -58
-26 -108 52 -192 23 -25 54 -63 68 -85 14 -21 60 -73 102 -114 138 -134 164
-189 108 -228 -39 -26 -242 -92 -285 -92 -20 0 -52 -7 -71 -15 -48 -20 -156
-19 -208 2 l-41 16 -47 -16 c-25 -10 -66 -17 -91 -17 -54 0 -148 31 -199 66
-24 16 -50 24 -79 24 -23 0 -59 7 -79 15 -20 9 -66 15 -107 15 l-71 0 -63 30
c-35 17 -69 30 -75 30 -16 0 -156 65 -169 78 -7 7 6 34 40 86 82 121 92 146
92 226 0 97 -30 182 -85 241 -23 25 -54 63 -68 85 -36 57 -109 114 -212 167
-27 14 -72 44 -99 66 -26 23 -55 41 -64 41 -8 0 -57 20 -109 45 -51 25 -100
45 -108 45 -7 0 -17 5 -20 10 -7 12 -303 13 -325 1z m237 -136 c19 -8 45 -15
57 -15 50 0 136 -39 289 -132 59 -35 265 -250 287 -300 36 -80 22 -216 -28
-271 -9 -10 -41 -30 -70 -44 -64 -30 -93 -27 -153 17 -26 18 -54 30 -74 30
-22 0 -40 9 -60 30 -16 17 -36 30 -45 30 -8 0 -32 11 -51 25 -20 13 -65 38
-99 56 -35 18 -79 46 -99 64 -20 17 -53 42 -74 54 -24 15 -50 44 -69 77 -16
30 -44 65 -60 78 -41 32 -72 118 -58 162 18 55 66 120 101 137 43 21 157 22
206 2z"/>
</g>
</svg>
