<?xml version="1.0" standalone="no"?>
<!DOCTYPE svg PUBLIC "-//W3C//DTD SVG 20010904//EN"
 "http://www.w3.org/TR/2001/REC-SVG-20010904/DTD/svg10.dtd">
<svg version="1.0" xmlns="http://www.w3.org/2000/svg"
 width="603.000000pt" height="141.000000pt" viewBox="0 0 603.000000 141.000000"
 preserveAspectRatio="xMidYMid meet">
<metadata>
Created by potrace 1.16, written by Peter Selinger 2001-2019
</metadata>
<g transform="translate(0.000000,141.000000) scale(0.100000,-0.100000)"
fill="#000000" stroke="none">
<path d="M0 1379 c0 -19 10 -43 25 -61 14 -16 25 -37 25 -47 0 -23 27 -46 62
-55 14 -3 51 -28 81 -56 50 -45 237 -150 269 -150 7 0 33 -14 58 -30 25 -16
52 -30 60 -30 8 0 29 -9 45 -21 94 -64 339 -159 410 -159 20 0 52 -7 72 -15
19 -8 45 -15 57 -15 12 0 60 -13 106 -30 47 -16 96 -30 110 -30 14 0 45 -14
70 -30 l45 -30 133 0 c95 0 143 -4 169 -15 22 -9 67 -15 120 -15 52 0 97 -6
120 -15 26 -11 74 -15 182 -15 l146 0 63 -30 64 -30 369 0 370 0 36 -15 c45
-19 263 -21 296 -3 12 7 69 15 127 19 101 6 142 14 240 45 25 8 56 14 70 14
14 0 45 14 70 30 25 16 57 30 73 30 37 0 155 61 225 115 31 25 70 54 85 66 16
12 40 39 53 61 49 77 116 77 192 -1 26 -26 61 -56 77 -66 17 -10 64 -50 105
-90 41 -39 89 -80 105 -90 17 -10 57 -44 90 -75 33 -31 92 -78 131 -103 39
-26 84 -63 98 -82 15 -19 35 -35 45 -35 10 0 37 -15 61 -33 91 -68 137 -99
180 -122 25 -13 86 -51 135 -84 50 -34 97 -61 105 -61 9 0 21 -5 26 -10 6 -6
44 -10 90 -8 l79 3 3 61 3 61 -36 27 c-20 16 -51 32 -69 37 -18 5 -50 24 -72
42 -21 18 -76 57 -121 87 -55 37 -91 69 -112 101 -20 31 -49 57 -84 77 -38 22
-64 45 -84 79 -17 27 -46 59 -66 73 -41 28 -59 57 -77 122 -15 56 -10 66 53
98 57 30 77 49 77 75 0 33 -31 55 -79 55 -23 0 -58 7 -78 15 -57 24 -100 19
-134 -14 l-29 -29 0 -100 c0 -152 -12 -164 -82 -81 -24 27 -74 71 -113 97 -38
25 -90 65 -115 87 -25 22 -65 54 -90 70 -24 17 -69 56 -100 88 -56 60 -132
107 -171 107 -12 0 -41 -19 -65 -44 l-44 -43 0 -79 c0 -58 -5 -86 -17 -104
-39 -58 -129 -146 -159 -156 -18 -6 -53 -24 -79 -40 -26 -16 -60 -36 -74 -45
-41 -24 -154 -59 -193 -59 -20 0 -52 -7 -73 -16 l-37 -15 -216 5 c-120 3 -226
5 -237 4 -11 0 -186 -2 -389 -4 l-368 -5 -47 31 -48 30 -132 0 c-94 0 -142 4
-168 15 -20 8 -66 15 -105 15 -38 0 -84 7 -105 15 -20 8 -66 15 -105 15 -38 0
-84 7 -105 15 -20 8 -66 15 -105 15 l-70 0 -65 30 c-37 17 -81 30 -104 30 -22
0 -56 7 -76 15 -19 8 -47 15 -60 15 -14 0 -54 14 -90 30 -37 17 -81 30 -104
30 -22 0 -56 7 -76 15 -19 8 -47 15 -62 15 -14 0 -46 14 -71 30 -25 16 -51 30
-59 30 -8 0 -35 13 -60 29 -25 16 -61 32 -79 36 -17 4 -55 23 -84 42 -28 20
-97 58 -152 86 -56 27 -121 66 -146 86 -74 60 -150 101 -186 101 l-34 0 0 -31z"/>
</g>
</svg>
