<?xml version="1.0" standalone="no"?>
<!DOCTYPE svg PUBLIC "-//W3C//DTD SVG 20010904//EN"
 "http://www.w3.org/TR/2001/REC-SVG-20010904/DTD/svg10.dtd">
<svg version="1.0" xmlns="http://www.w3.org/2000/svg"
 width="249.000000pt" height="399.000000pt" viewBox="0 0 249.000000 399.000000"
 preserveAspectRatio="xMidYMid meet">
<metadata>
Created by potrace 1.16, written by Peter Selinger 2001-2019
</metadata>
<g transform="translate(0.000000,399.000000) scale(0.100000,-0.100000)"
fill="#000000" stroke="none">
<path d="M1770 3981 c-8 -5 -39 -19 -67 -32 -65 -28 -79 -43 -97 -104 l-15
-48 14 -27 c8 -15 53 -70 100 -124 63 -71 101 -104 143 -125 31 -16 79 -48
106 -70 26 -23 55 -41 63 -41 18 0 150 -63 174 -82 8 -7 23 -25 33 -40 l18
-27 -12 -35 c-18 -56 -47 -84 -124 -121 -40 -19 -78 -35 -84 -35 -5 0 -39 -13
-74 -30 -47 -22 -78 -30 -119 -30 -31 0 -73 -7 -92 -15 -55 -23 -105 -18 -175
15 l-64 30 -81 0 c-62 0 -102 7 -172 29 -120 39 -169 51 -235 60 -54 7 -90 25
-230 114 -30 19 -73 44 -95 55 -22 11 -68 45 -103 76 l-63 56 -80 0 c-85 0
-112 -8 -129 -40 l-10 -19 37 -42 c20 -22 75 -66 122 -97 46 -30 98 -67 115
-82 35 -30 108 -70 129 -70 8 0 33 -15 57 -32 81 -61 125 -91 180 -124 30 -18
65 -46 77 -62 12 -17 44 -42 71 -57 27 -15 66 -46 86 -70 20 -24 60 -60 89
-79 29 -19 116 -99 194 -178 113 -115 143 -152 152 -185 11 -39 47 -79 115
-126 14 -10 36 -37 48 -60 11 -23 47 -71 78 -107 77 -88 90 -109 90 -146 0
-18 12 -47 29 -72 37 -50 97 -169 121 -237 20 -56 48 -127 92 -227 l29 -68 -3
-152 -3 -153 -22 -31 c-13 -17 -38 -39 -57 -48 l-34 -16 -171 0 c-130 0 -180
4 -208 15 -19 8 -52 15 -72 15 -20 0 -56 6 -81 14 -87 28 -136 38 -210 45 -41
4 -85 13 -97 19 -12 7 -47 12 -78 12 -30 0 -72 7 -92 15 -23 10 -69 15 -135
15 -65 0 -111 5 -135 15 -20 8 -66 15 -105 15 -38 0 -84 7 -105 15 -19 8 -53
15 -75 15 -21 0 -55 7 -75 15 -19 8 -53 15 -75 15 -21 0 -55 7 -75 15 -56 24
-145 19 -203 -10 -58 -29 -80 -58 -80 -102 0 -17 -4 -35 -10 -38 -17 -11 -11
-62 13 -100 84 -135 106 -166 151 -214 28 -29 68 -64 90 -78 21 -14 57 -42 81
-64 54 -50 156 -119 175 -119 8 0 37 -25 63 -55 27 -31 60 -58 75 -61 28 -7
101 -48 246 -137 61 -38 171 -77 219 -77 21 0 54 -7 74 -15 19 -8 55 -15 79
-15 23 0 46 -4 49 -10 8 -13 72 -13 80 0 3 6 17 10 31 10 38 0 62 17 84 60 24
48 27 141 5 193 -8 20 -15 49 -15 64 0 67 -200 292 -346 388 -44 30 -87 61
-94 70 l-14 17 15 9 c22 14 86 11 126 -6 19 -8 60 -15 90 -15 29 0 70 -7 90
-15 20 -9 66 -15 107 -15 l71 0 45 -30 45 -30 133 0 c95 0 143 -4 169 -15 26
-11 73 -15 172 -15 158 0 167 4 207 82 14 27 39 68 55 91 l29 40 0 167 c0 126
-4 176 -15 203 -8 20 -15 52 -15 72 0 45 -31 137 -75 224 -18 37 -38 85 -44
107 -6 22 -29 70 -51 106 -22 37 -40 73 -40 81 0 8 -18 37 -40 63 -22 27 -45
65 -50 84 -5 20 -25 51 -45 70 -19 19 -47 52 -62 74 -15 23 -70 86 -124 141
-53 55 -108 117 -122 137 -30 46 -138 169 -191 217 -113 104 -261 246 -264
253 -2 5 39 8 90 8 l94 0 84 -30 c95 -33 150 -37 203 -15 20 8 61 15 90 15 30
0 71 7 90 15 20 8 47 15 61 15 14 0 54 14 89 30 36 17 80 30 97 30 25 0 45 12
93 58 34 32 81 73 105 91 23 18 42 41 42 50 0 10 18 43 40 75 l40 57 0 54 0
54 -30 16 c-18 9 -56 15 -102 15 -57 0 -80 5 -103 21 -16 11 -82 47 -146 79
-66 33 -129 73 -145 91 -37 41 -72 76 -112 112 -60 53 -53 127 11 127 64 0 98
44 81 108 l-6 22 -77 -1 c-42 0 -83 -4 -91 -8z m-1323 -3046 c19 -8 48 -15 63
-15 15 0 38 -8 51 -19 l23 -18 -12 -40 c-18 -60 -15 -136 9 -206 20 -59 52
-107 71 -107 5 0 24 -11 42 -25 78 -59 118 -6 79 105 l-17 48 12 26 12 26 52
0 c79 0 171 -36 232 -89 28 -26 70 -60 94 -76 134 -90 243 -288 202 -366 l-11
-19 -57 0 c-43 0 -73 8 -120 30 -35 17 -68 30 -74 30 -5 0 -39 14 -75 30 -35
17 -69 30 -74 30 -6 0 -44 20 -85 45 -40 25 -76 45 -79 45 -3 0 -24 14 -47 30
-22 17 -49 30 -59 30 -22 0 -99 66 -99 84 0 20 -42 54 -84 68 -27 9 -49 27
-70 56 -17 24 -46 52 -64 62 -41 25 -65 64 -87 147 l-18 66 23 19 c28 23 115
24 167 3z"/>
</g>
</svg>
