<?xml version="1.0" standalone="no"?>
<!DOCTYPE svg PUBLIC "-//W3C//DTD SVG 20010904//EN"
 "http://www.w3.org/TR/2001/REC-SVG-20010904/DTD/svg10.dtd">
<svg version="1.0" xmlns="http://www.w3.org/2000/svg"
 width="159.000000pt" height="222.000000pt" viewBox="0 0 159.000000 222.000000"
 preserveAspectRatio="xMidYMid meet">
<metadata>
Created by potrace 1.16, written by Peter Selinger 2001-2019
</metadata>
<g transform="translate(0.000000,222.000000) scale(0.100000,-0.100000)"
fill="#000000" stroke="none">
<path d="M62 2187 c-7 -18 -12 -40 -12 -49 0 -26 35 -48 76 -48 45 0 146 -33
184 -60 14 -10 60 -35 101 -56 85 -42 132 -77 209 -154 31 -30 68 -63 83 -73
15 -10 27 -27 27 -37 0 -29 -39 -26 -140 10 -47 16 -95 30 -107 30 -13 0 -41
7 -64 17 l-41 16 -47 -16 c-25 -10 -65 -17 -88 -17 l-43 0 -54 -47 c-29 -27
-70 -62 -90 -79 l-36 -31 0 -46 c0 -25 -5 -49 -10 -52 -13 -8 -13 -102 0 -110
6 -3 10 -33 10 -66 l0 -59 40 -78 c22 -42 56 -96 75 -120 25 -31 35 -54 35
-78 l0 -35 63 -67 c34 -37 72 -81 84 -98 12 -17 38 -41 56 -54 19 -13 60 -62
91 -109 70 -106 232 -268 341 -340 44 -29 95 -73 113 -97 18 -24 40 -44 48
-44 21 0 82 -29 119 -56 34 -25 142 -64 179 -64 14 0 28 -4 31 -10 3 -5 35
-10 70 -10 l64 0 71 68 c45 43 70 75 70 89 0 12 5 25 10 28 6 3 10 35 10 70 0
35 -4 67 -10 70 -5 3 -10 18 -10 33 -1 15 -9 52 -20 82 -11 30 -19 69 -20 87
0 24 -12 46 -45 83 -25 28 -56 68 -69 88 -54 84 -216 212 -269 212 -31 0 -180
85 -217 125 -13 14 -30 25 -38 25 -7 0 -43 14 -79 30 -35 17 -69 30 -75 30 -5
0 -39 14 -75 30 -47 22 -79 30 -119 30 -30 0 -71 7 -91 15 -19 8 -55 15 -79
15 l-43 0 -19 28 c-10 15 -32 66 -47 114 -32 103 -29 165 10 204 l24 24 71 0
72 0 65 -30 c35 -16 69 -30 75 -30 36 0 133 -64 204 -135 22 -22 52 -48 67
-58 15 -10 37 -37 48 -60 35 -69 46 -77 105 -77 l53 0 19 25 c11 13 25 38 32
56 l13 31 -16 46 c-10 27 -17 77 -17 115 0 77 -19 123 -80 197 -21 25 -49 68
-63 95 -24 48 -173 205 -194 205 -6 0 -47 34 -92 75 l-81 75 -33 0 c-19 0 -49
11 -72 27 -22 15 -61 30 -87 34 -27 4 -61 17 -77 28 l-29 21 -104 0 -104 0
-12 -33z m595 -1207 c35 -16 70 -30 76 -30 7 0 32 -14 57 -30 25 -17 58 -30
75 -30 22 0 38 -9 61 -37 20 -24 70 -57 149 -97 l119 -61 30 -43 c17 -24 46
-52 64 -62 20 -12 32 -28 32 -41 0 -12 11 -42 24 -68 89 -171 106 -252 61
-296 l-24 -25 -57 0 c-66 0 -100 14 -207 88 -42 29 -94 58 -114 65 -35 11 -44
22 -73 87 -4 8 -27 26 -52 40 -64 35 -76 48 -104 101 -13 26 -41 60 -63 76
-41 29 -71 70 -71 97 0 8 -16 27 -36 42 -45 35 -102 122 -121 187 l-15 50 14
8 c29 19 109 9 175 -21z"/>
</g>
</svg>
