<?xml version="1.0" standalone="no"?>
<!DOCTYPE svg PUBLIC "-//W3C//DTD SVG 20010904//EN"
 "http://www.w3.org/TR/2001/REC-SVG-20010904/DTD/svg10.dtd">
<svg version="1.0" xmlns="http://www.w3.org/2000/svg"
 width="669.000000pt" height="138.000000pt" viewBox="0 0 669.000000 138.000000"
 preserveAspectRatio="xMidYMid meet">
<metadata>
Created by potrace 1.16, written by Peter Selinger 2001-2019
</metadata>
<g transform="translate(0.000000,138.000000) scale(0.100000,-0.100000)"
fill="#000000" stroke="none">
<path d="M5885 1370 c-3 -5 -16 -10 -27 -10 -27 0 -108 -81 -108 -109 0 -22
88 -206 121 -253 27 -38 24 -52 -20 -87 -22 -18 -41 -41 -43 -53 -5 -34 -31
-44 -80 -30 -24 7 -63 17 -88 22 -25 5 -64 18 -86 29 -59 29 -205 72 -306 91
-26 5 -56 13 -67 19 -11 6 -45 11 -76 11 -30 0 -72 7 -92 15 -73 31 -213 8
-315 -52 -33 -19 -87 -103 -88 -134 0 -9 -29 -74 -64 -145 l-64 -129 -53 -45
c-30 -25 -72 -59 -93 -75 l-39 -30 -71 -6 c-70 -7 -118 -17 -206 -45 -25 -8
-61 -14 -81 -14 -20 0 -53 -7 -72 -15 -23 -9 -68 -15 -120 -15 -53 0 -98 -6
-120 -15 -52 -21 -362 -21 -414 0 l-35 15 -265 0 -264 0 -36 15 c-22 9 -67 15
-120 15 -52 0 -97 6 -120 15 -19 8 -53 15 -75 15 -21 0 -55 7 -75 15 -19 8
-59 15 -87 15 -28 0 -71 6 -96 14 -76 24 -133 37 -190 45 -30 4 -91 19 -135
34 -44 14 -93 29 -109 32 l-28 6 7 22 c4 12 9 48 12 80 l5 58 -38 55 c-22 33
-59 69 -88 88 -28 18 -57 41 -65 50 -8 10 -45 33 -83 52 l-68 34 -115 0 c-181
0 -275 -41 -320 -140 l-17 -38 26 -53 c21 -41 24 -54 14 -60 -23 -15 -206 -10
-245 6 -19 8 -61 15 -92 15 l-56 0 -45 30 -45 30 -182 0 -183 0 0 -84 0 -84
32 -24 c40 -30 103 -63 140 -72 23 -5 69 -42 210 -170 46 -41 36 -127 -22
-174 -8 -7 -50 -31 -93 -53 l-78 -40 3 -27 3 -27 133 -3 132 -3 0 16 c0 9 18
24 43 34 55 24 68 41 80 104 12 61 12 104 2 170 l-8 48 -46 35 c-58 44 -95 90
-87 109 7 20 105 20 153 0 26 -11 76 -15 195 -15 118 0 168 -4 195 -15 20 -8
66 -15 105 -15 38 0 84 -7 105 -15 20 -9 66 -15 107 -15 l71 0 36 -24 c55 -38
150 -66 221 -66 35 0 83 -6 108 -14 78 -25 133 -37 195 -45 34 -5 70 -13 82
-19 12 -7 39 -12 60 -12 22 0 77 -13 123 -30 l85 -30 173 0 c130 0 181 -4 209
-15 28 -12 84 -15 270 -15 185 0 241 -3 270 -15 49 -21 227 -21 276 0 26 11
73 15 165 15 93 0 140 4 165 15 24 10 70 15 135 15 66 0 112 5 135 15 21 9 67
15 107 15 74 0 120 16 185 65 17 12 53 34 80 48 86 44 235 214 235 267 0 10
32 68 100 181 12 20 35 43 50 52 35 21 119 22 167 2 20 -8 66 -15 105 -15 38
0 84 -7 105 -15 19 -8 53 -15 75 -15 23 0 67 -13 105 -30 35 -16 69 -30 75
-30 5 0 39 -14 75 -30 35 -16 69 -30 75 -30 24 0 181 -83 216 -113 20 -19 54
-43 74 -56 20 -12 50 -44 67 -71 31 -50 73 -80 111 -80 41 0 119 51 141 92 9
17 -17 88 -32 88 -14 0 -98 119 -89 125 20 12 112 -26 193 -79 46 -31 89 -56
96 -56 19 0 81 -31 125 -62 46 -33 53 -33 117 -11 l49 18 0 67 c0 48 -4 68
-12 68 -7 0 -33 14 -58 30 -25 16 -52 30 -60 30 -19 0 -103 46 -243 132 -58
35 -263 249 -281 293 -21 50 -22 50 23 67 21 9 44 25 50 37 l11 20 -65 72
c-36 39 -65 75 -65 80 0 12 -97 12 -105 -1z m-4620 -590 c40 -18 125 -94 125
-111 0 -4 -6 -12 -14 -18 -11 -9 -23 -8 -51 4 -21 8 -49 15 -64 15 -14 0 -46
14 -71 30 -25 16 -52 30 -61 30 -9 0 -27 8 -40 19 l-23 19 13 16 c20 24 130
22 186 -4z"/>
</g>
</svg>
