<?xml version="1.0" standalone="no"?>
<!DOCTYPE svg PUBLIC "-//W3C//DTD SVG 20010904//EN"
 "http://www.w3.org/TR/2001/REC-SVG-20010904/DTD/svg10.dtd">
<svg version="1.0" xmlns="http://www.w3.org/2000/svg"
 width="207.000000pt" height="297.000000pt" viewBox="0 0 207.000000 297.000000"
 preserveAspectRatio="xMidYMid meet">
<metadata>
Created by potrace 1.16, written by Peter Selinger 2001-2019
</metadata>
<g transform="translate(0.000000,297.000000) scale(0.100000,-0.100000)"
fill="#000000" stroke="none">
<path d="M7 2963 c-4 -3 -7 -48 -7 -98 l0 -92 81 -88 c44 -49 87 -101 95 -117
8 -15 33 -40 55 -54 50 -31 48 -54 -6 -72 -50 -16 -135 -98 -135 -129 0 -46
90 -205 155 -275 35 -36 66 -76 70 -87 7 -22 -21 -77 -51 -102 -9 -7 -31 -44
-50 -82 l-35 -69 10 -30 c6 -17 11 -57 11 -88 l0 -57 29 -41 c17 -22 46 -73
66 -113 55 -108 136 -221 248 -345 37 -42 74 -89 82 -105 9 -16 33 -40 55 -54
22 -14 51 -42 64 -63 26 -41 53 -66 106 -101 20 -13 48 -41 64 -62 15 -22 49
-50 77 -64 27 -14 89 -62 138 -108 98 -90 155 -134 276 -215 44 -30 91 -64
105 -77 14 -12 45 -33 70 -45 25 -13 59 -34 77 -47 17 -13 49 -29 70 -35 21
-6 50 -19 65 -29 l26 -19 91 0 c50 0 91 4 91 9 0 5 16 24 35 42 l35 33 0 73
c0 41 -5 75 -11 79 -14 8 -69 124 -69 144 0 14 -41 77 -120 184 -59 80 -113
138 -155 164 -22 14 -67 51 -100 81 -67 63 -129 107 -194 140 -24 13 -62 36
-84 52 -22 16 -47 29 -56 29 -9 0 -36 14 -61 30 -25 16 -52 30 -60 30 -8 0
-57 20 -108 45 l-94 45 -148 0 -148 0 -42 58 c-24 31 -63 75 -86 98 -34 32
-44 48 -44 73 0 17 -9 50 -21 72 -27 54 -69 178 -69 207 0 40 43 72 95 72 82
0 145 44 145 101 l0 38 -57 45 c-62 47 -200 185 -227 226 -18 27 -20 57 -7 79
l9 14 88 -28 c85 -27 151 -60 274 -138 30 -19 73 -44 95 -55 22 -12 62 -39 89
-61 l48 -41 53 0 c67 0 85 18 85 87 0 59 -7 67 -100 113 -36 18 -79 44 -97 57
-17 13 -48 29 -68 34 -23 7 -69 41 -128 95 -169 155 -212 193 -277 250 -111
98 -211 228 -195 255 4 5 17 9 29 9 13 0 35 9 50 21 26 20 31 44 20 87 l-6 22
-152 0 c-84 0 -156 -3 -159 -7z m1071 -1992 c37 -22 92 -56 123 -75 33 -22 68
-36 87 -36 35 0 77 -33 87 -67 l6 -23 -33 -20 -33 -20 -101 0 -101 0 -39 28
c-65 47 -194 191 -194 216 0 33 7 36 72 36 l59 0 67 -39z m486 -313 c94 -78
244 -245 255 -283 5 -20 22 -52 36 -71 80 -105 60 -175 -34 -115 -25 16 -79
46 -118 65 -45 23 -99 61 -142 102 -44 41 -84 69 -107 75 -44 13 -137 101
-132 127 2 10 20 22 46 30 28 10 56 30 85 63 23 26 46 48 51 49 5 0 32 -19 60
-42z"/>
</g>
</svg>
