<?xml version="1.0" standalone="no"?>
<!DOCTYPE svg PUBLIC "-//W3C//DTD SVG 20010904//EN"
 "http://www.w3.org/TR/2001/REC-SVG-20010904/DTD/svg10.dtd">
<svg version="1.0" xmlns="http://www.w3.org/2000/svg"
 width="693.000000pt" height="303.000000pt" viewBox="0 0 693.000000 303.000000"
 preserveAspectRatio="xMidYMid meet">
<metadata>
Created by potrace 1.16, written by Peter Selinger 2001-2019
</metadata>
<g transform="translate(0.000000,303.000000) scale(0.100000,-0.100000)"
fill="#000000" stroke="none">
<path d="M5808 2986 l-28 -44 0 -61 c0 -43 6 -74 21 -103 33 -65 94 -150 139
-193 23 -22 55 -57 72 -78 l30 -37 -12 -15 c-7 -8 -26 -15 -42 -15 -19 0 -40
-10 -59 -29 l-29 -29 0 -52 c0 -59 24 -112 81 -180 50 -59 99 -165 99 -213 0
-21 -7 -54 -15 -73 -33 -80 -133 -174 -184 -174 -14 0 -64 -14 -111 -30 -46
-17 -101 -30 -123 -30 -21 0 -48 -5 -60 -12 -19 -11 -206 -30 -277 -28 -199 4
-409 17 -427 28 -14 8 -63 12 -138 12 -80 0 -127 5 -152 15 -19 8 -60 15 -90
15 -29 0 -70 7 -90 15 -24 10 -71 15 -150 15 -78 0 -125 5 -150 15 -20 9 -66
15 -107 15 l-71 0 -63 30 c-35 17 -80 30 -100 30 -21 0 -57 6 -82 14 -87 28
-136 38 -210 45 -41 4 -85 13 -97 19 -12 7 -34 12 -50 12 -15 0 -48 14 -73 30
-33 22 -57 30 -90 30 -29 0 -67 11 -108 30 -35 17 -73 30 -85 30 -35 0 -147
42 -260 97 -59 29 -118 53 -130 53 -47 0 -168 48 -229 91 -20 14 -50 32 -67
38 l-29 13 -38 -20 c-22 -11 -74 -56 -117 -100 l-77 -80 0 -114 0 -115 30 -41
c16 -22 66 -114 111 -204 44 -90 99 -184 121 -211 47 -57 36 -68 -38 -37 -27
12 -82 32 -122 46 -40 13 -85 32 -100 43 -37 25 -169 91 -184 91 -21 0 -192
86 -238 119 -24 17 -50 31 -59 31 -24 0 -191 83 -241 119 -25 18 -55 31 -72
31 -35 0 -87 23 -142 62 -21 15 -46 28 -55 28 -9 0 -36 14 -61 30 -25 16 -58
30 -74 30 -31 0 -140 51 -226 106 -30 19 -73 39 -95 45 -50 14 -125 52 -178
90 -22 16 -47 29 -56 29 -9 0 -45 14 -79 30 -35 17 -68 30 -73 30 -11 0 -78
30 -151 66 l-48 24 0 -53 0 -53 28 -12 c26 -11 114 -62 217 -126 26 -16 65
-35 88 -43 22 -8 52 -22 66 -32 36 -26 228 -121 243 -121 21 0 132 -55 178
-89 24 -17 50 -31 59 -31 9 0 58 -20 109 -45 52 -25 99 -45 105 -45 7 0 32
-14 57 -30 25 -16 52 -30 60 -30 23 0 192 -84 240 -119 24 -17 49 -31 57 -31
14 0 105 -51 204 -114 30 -20 66 -36 80 -36 40 0 171 -49 214 -79 45 -32 179
-101 196 -101 18 0 81 -32 123 -62 21 -15 46 -28 54 -28 21 0 198 -86 236
-115 17 -12 54 -34 82 -48 28 -14 75 -48 105 -74 30 -27 67 -57 82 -66 15 -10
52 -39 82 -65 53 -47 110 -91 189 -145 23 -16 59 -46 81 -67 22 -21 64 -50 92
-64 29 -15 83 -55 120 -89 74 -69 257 -195 313 -215 19 -7 49 -20 65 -29 17
-9 62 -34 100 -55 39 -21 88 -43 110 -49 22 -6 52 -20 66 -30 l27 -19 134 0
133 1 28 43 27 44 0 80 0 80 -41 48 c-22 27 -52 71 -66 98 -13 27 -42 74 -63
105 -41 60 -210 231 -229 231 -6 0 -67 54 -135 120 -74 72 -133 120 -145 120
-10 0 -39 16 -63 35 -24 19 -95 62 -158 95 -63 34 -138 76 -167 94 -62 39
-169 76 -221 76 -41 -1 -132 -29 -156 -49 -19 -16 -22 -123 -6 -166 14 -38 3
-49 -28 -29 -14 9 -52 31 -85 48 -40 20 -71 46 -91 74 -17 24 -45 52 -63 62
-18 10 -40 32 -49 47 -10 15 -50 62 -89 103 -40 41 -80 89 -91 105 -10 17 -35
50 -55 75 -68 83 -133 237 -169 397 l-11 51 15 31 c9 16 21 33 26 36 6 4 51
-7 99 -24 49 -17 98 -31 108 -31 27 0 127 -36 211 -75 99 -47 274 -105 317
-105 20 0 52 -7 72 -15 19 -8 45 -15 57 -15 27 0 152 -43 205 -69 26 -14 59
-21 96 -21 31 0 72 -7 92 -15 19 -8 53 -15 75 -15 21 0 55 -7 75 -15 19 -8 52
-15 72 -15 20 0 56 -6 81 -14 60 -19 125 -35 182 -46 26 -5 56 -13 67 -19 11
-6 52 -11 91 -11 40 0 86 -6 107 -15 26 -11 74 -15 180 -15 105 0 153 -4 180
-15 22 -9 67 -15 120 -15 52 0 97 -6 120 -15 l35 -15 270 0 c191 0 276 3 291
12 12 7 63 15 112 19 97 7 124 13 289 66 80 25 121 44 155 72 25 21 66 49 91
62 28 15 53 39 67 64 l23 40 0 123 0 123 -21 42 c-12 23 -40 63 -61 89 -50 58
-50 91 0 96 24 2 47 -5 81 -27 26 -17 106 -60 177 -95 71 -36 151 -83 178
-105 26 -23 55 -41 63 -41 8 0 44 -14 80 -30 76 -35 72 -35 134 -13 l49 18 0
38 c0 53 -47 113 -100 127 -44 12 -72 26 -117 58 -17 12 -82 47 -143 78 -79
39 -130 73 -178 117 -37 35 -85 75 -107 89 -49 33 -143 128 -182 184 -15 22
-43 60 -60 84 -36 47 -44 102 -19 135 l13 18 39 -8 c72 -14 105 -11 120 10
l14 21 -38 51 -37 52 -150 0 -150 0 -27 -43z m-2541 -1901 c19 -8 46 -15 60
-15 23 0 90 -36 213 -113 30 -19 66 -37 80 -41 32 -8 49 -22 85 -69 15 -21 51
-50 78 -64 60 -30 330 -287 367 -349 14 -23 44 -62 67 -87 53 -57 59 -70 67
-139 l7 -57 -20 -10 c-34 -19 -63 -12 -159 34 -52 25 -98 45 -104 45 -21 0
-85 35 -128 70 -25 20 -61 45 -80 55 -76 38 -377 246 -398 274 -12 17 -22 33
-22 36 0 3 23 27 51 54 l51 49 -11 21 c-7 11 -24 27 -40 36 -50 26 -138 114
-186 186 l-46 70 12 15 c14 17 12 17 56 -1z"/>
</g>
</svg>
