<?xml version="1.0" standalone="no"?>
<!DOCTYPE svg PUBLIC "-//W3C//DTD SVG 20010904//EN"
 "http://www.w3.org/TR/2001/REC-SVG-20010904/DTD/svg10.dtd">
<svg version="1.0" xmlns="http://www.w3.org/2000/svg"
 width="690.000000pt" height="165.000000pt" viewBox="0 0 690.000000 165.000000"
 preserveAspectRatio="xMidYMid meet">
<metadata>
Created by potrace 1.16, written by Peter Selinger 2001-2019
</metadata>
<g transform="translate(0.000000,165.000000) scale(0.100000,-0.100000)"
fill="#000000" stroke="none">
<path d="M175 1615 c-27 -18 -60 -47 -73 -64 -12 -17 -40 -40 -62 -51 l-40
-20 0 -115 0 -114 34 -26 c18 -14 46 -44 62 -66 30 -43 127 -119 152 -119 9 0
66 -25 128 -55 62 -30 123 -55 136 -55 13 0 37 -9 53 -20 19 -12 47 -20 75
-20 27 0 67 -10 98 -25 30 -14 71 -25 91 -25 20 0 46 -7 57 -15 10 -8 37 -15
60 -15 22 0 49 -7 60 -15 10 -8 37 -15 59 -15 23 0 53 -9 70 -20 23 -15 47
-20 106 -20 l76 0 39 -29 c79 -58 114 -99 154 -181 l40 -84 0 -69 c0 -79 -18
-118 -73 -159 -72 -54 -142 -71 -202 -48 -27 10 -95 -2 -122 -23 -22 -16 -14
-47 22 -90 19 -22 35 -44 35 -49 0 -12 128 -10 135 2 3 5 27 10 51 10 86 0
268 109 305 182 11 22 34 59 50 81 l29 40 0 62 c0 35 -7 79 -15 98 -8 20 -15
48 -15 63 0 15 -13 41 -30 61 l-30 34 10 19 c17 31 54 35 95 10 l35 -21 275 2
c200 2 279 -1 287 -9 16 -16 59 -14 82 3 15 11 36 13 92 8 l72 -6 36 23 c28
17 45 21 71 16 25 -5 59 1 122 23 49 17 117 33 153 37 l65 7 35 37 c19 20 63
57 96 83 48 36 63 54 68 80 8 43 58 120 93 142 35 23 109 27 556 32 l377 4 43
-25 43 -25 37 11 c27 8 46 8 74 0 27 -8 41 -8 57 0 32 18 490 11 534 -8 28
-11 103 -14 374 -14 l339 0 36 -15 35 -15 370 0 369 0 36 -15 c24 -10 70 -15
139 -15 l104 0 0 70 0 69 -30 16 c-16 8 -47 15 -70 15 -22 0 -57 7 -77 15 -19
8 -47 15 -62 15 -28 0 -213 115 -243 151 -12 14 -18 38 -18 69 l0 49 -26 20
c-14 11 -34 23 -44 26 -44 14 -160 -80 -160 -129 0 -13 20 -48 46 -79 31 -38
44 -63 42 -79 l-3 -23 -423 -3 -422 -2 -38 15 -37 16 -391 -2 -391 -2 -26 17
-26 17 -298 -2 -298 -2 -33 17 -34 17 -256 -2 -257 -2 -45 27 c-25 14 -55 26
-68 26 -56 0 -162 -86 -162 -132 0 -12 16 -50 35 -85 19 -35 35 -69 35 -76 0
-33 -23 -87 -46 -110 -29 -29 -110 -56 -164 -55 -46 1 -114 -18 -173 -48 l-47
-24 -84 0 c-52 0 -97 -6 -119 -15 -24 -10 -69 -15 -134 -15 l-98 1 -39 24 -40
24 -46 -26 -46 -26 -46 27 -46 26 -26 -10 c-44 -17 -94 -12 -153 15 l-56 26
-30 -11 c-49 -17 -73 -12 -118 23 l-43 33 3 81 3 81 -22 42 c-58 114 -141 207
-271 305 -74 55 -129 84 -164 85 -16 0 -48 12 -70 25 -22 14 -49 25 -60 25
-11 0 -33 9 -50 20 -16 11 -38 20 -48 20 -10 0 -29 11 -43 25 l-25 25 -297 -1
-297 0 -50 -34z m572 -136 c27 -6 62 -18 78 -26 161 -83 229 -113 251 -113 40
0 87 -34 133 -95 24 -32 49 -55 60 -55 23 0 34 -15 49 -64 20 -69 -17 -85 -92
-41 l-42 24 -49 -14 c-58 -18 -81 -37 -95 -80 l-11 -32 -56 0 c-38 0 -67 6
-88 18 -16 11 -38 19 -48 19 -10 0 -31 6 -46 14 -15 8 -63 18 -107 22 -84 7
-161 37 -274 110 -30 19 -71 39 -91 44 -43 12 -78 45 -114 106 -41 70 -22 115
63 156 l37 17 197 1 c109 0 219 -5 245 -11z"/>
</g>
</svg>
