<?xml version="1.0" standalone="no"?>
<!DOCTYPE svg PUBLIC "-//W3C//DTD SVG 20010904//EN"
 "http://www.w3.org/TR/2001/REC-SVG-20010904/DTD/svg10.dtd">
<svg version="1.0" xmlns="http://www.w3.org/2000/svg"
 width="666.000000pt" height="207.000000pt" viewBox="0 0 666.000000 207.000000"
 preserveAspectRatio="xMidYMid meet">
<metadata>
Created by potrace 1.16, written by Peter Selinger 2001-2019
</metadata>
<g transform="translate(0.000000,207.000000) scale(0.100000,-0.100000)"
fill="#000000" stroke="none">
<path d="M5925 2028 c-16 -22 -41 -58 -54 -80 l-23 -39 13 -32 c7 -17 53 -74
101 -126 48 -52 88 -100 88 -108 l0 -13 -425 0 -426 0 -36 15 c-27 12 -79 15
-225 15 -149 0 -196 3 -226 16 l-37 15 -225 -2 -225 -3 -27 18 -27 18 -198 -3
c-139 -2 -204 1 -220 9 -15 8 -29 9 -48 2 -14 -5 -89 -10 -166 -10 l-140 0
-43 25 -44 25 -26 -10 c-41 -15 -233 -13 -286 4 -103 32 -134 36 -188 20 -53
-16 -92 -51 -92 -84 0 -10 14 -48 31 -84 l31 -67 -4 -48 c-7 -67 -36 -104
-113 -141 l-65 -32 -516 1 -515 1 -43 25 c-24 14 -54 25 -67 25 -51 0 -129 50
-233 147 -178 167 -257 218 -413 268 -86 28 -112 39 -162 73 l-34 22 -41 -24
c-23 -13 -53 -26 -67 -29 -15 -4 -43 -25 -63 -47 -28 -31 -36 -48 -36 -78 l0
-39 58 -71 c68 -85 142 -142 186 -142 17 0 48 -11 69 -25 62 -43 235 -125 262
-125 13 0 42 -7 62 -15 21 -8 58 -14 83 -12 l45 2 37 -74 38 -74 0 -101 0
-102 -35 -72 c-41 -85 -57 -90 -104 -32 -21 26 -44 43 -71 50 -26 7 -64 34
-115 80 l-75 70 -32 0 c-20 0 -51 12 -78 30 -25 16 -51 30 -58 30 -8 0 -43 13
-79 30 -35 16 -75 30 -89 30 -14 0 -41 7 -61 15 -21 9 -67 15 -113 15 l-77 0
-63 -47 c-35 -27 -94 -79 -132 -116 l-68 -68 0 -79 c0 -43 5 -82 10 -85 6 -3
10 -14 10 -23 0 -23 84 -145 121 -176 17 -14 38 -26 48 -26 9 0 54 -25 99 -55
115 -76 155 -95 202 -95 22 0 57 -7 77 -15 26 -11 74 -15 183 -15 109 0 157 4
183 15 20 8 56 15 79 15 30 0 55 8 82 26 l38 26 40 -13 c46 -15 169 -125 213
-191 16 -24 54 -70 85 -103 30 -34 72 -82 93 -108 l38 -47 44 0 45 0 0 62 0
62 -67 101 c-37 55 -92 127 -123 160 -31 33 -65 74 -75 90 -11 17 -38 51 -62
77 -24 26 -48 59 -55 72 l-11 26 25 38 c39 58 84 152 107 220 16 46 21 87 21
160 0 110 3 116 62 127 29 6 45 2 71 -14 l34 -21 480 0 481 0 35 15 c20 8 48
15 62 15 14 0 58 16 98 36 123 61 237 193 237 273 0 16 10 42 24 58 l24 28
155 -1 154 -1 24 -17 c33 -22 220 -23 274 0 l38 16 41 -16 c52 -20 113 -20
159 -1 53 22 102 19 151 -10 l44 -25 26 10 c16 6 130 10 272 10 l245 0 43 -25
44 -25 26 10 c45 17 360 13 403 -5 24 -10 71 -15 150 -15 78 0 125 -5 150 -15
l35 -15 415 0 414 0 36 -15 c19 -8 53 -15 75 -15 22 0 64 -11 93 -25 30 -13
61 -22 69 -19 31 12 66 72 66 112 l0 40 -34 25 c-36 28 -141 67 -178 67 -13 0
-61 25 -107 55 -45 31 -105 67 -132 81 -27 13 -68 43 -90 66 l-41 42 6 26 c17
72 18 94 6 131 l-13 39 -61 0 -61 -1 -30 -41z m-5070 -438 c3 -5 -1 -10 -9
-10 -9 0 -16 5 -16 10 0 6 4 10 9 10 6 0 13 -4 16 -10z m-360 -601 c85 -29
158 -64 206 -99 23 -16 48 -30 56 -30 7 0 47 -33 87 -72 41 -40 92 -89 115
-108 22 -19 43 -43 47 -52 8 -24 -40 -66 -85 -73 -20 -3 -54 -11 -76 -16 -28
-7 -49 -7 -68 0 -16 6 -46 11 -68 11 -22 0 -56 7 -76 15 -19 8 -61 15 -92 15
l-56 0 -114 76 c-126 82 -133 89 -162 152 l-21 43 18 52 c10 29 23 57 28 64
42 47 161 57 261 22z"/>
</g>
</svg>
