<?xml version="1.0" standalone="no"?>
<!DOCTYPE svg PUBLIC "-//W3C//DTD SVG 20010904//EN"
 "http://www.w3.org/TR/2001/REC-SVG-20010904/DTD/svg10.dtd">
<svg version="1.0" xmlns="http://www.w3.org/2000/svg"
 width="462.000000pt" height="255.000000pt" viewBox="0 0 462.000000 255.000000"
 preserveAspectRatio="xMidYMid meet">
<metadata>
Created by potrace 1.16, written by Peter Selinger 2001-2019
</metadata>
<g transform="translate(0.000000,255.000000) scale(0.100000,-0.100000)"
fill="#000000" stroke="none">
<path d="M50 2491 c-16 -33 -34 -62 -40 -66 -13 -8 -13 -192 0 -200 5 -3 10
-26 10 -50 0 -27 11 -66 30 -107 16 -34 30 -73 30 -86 0 -12 9 -50 20 -83 19
-56 46 -99 128 -209 21 -28 32 -54 32 -76 0 -26 12 -47 56 -96 31 -35 67 -84
80 -110 13 -25 41 -59 63 -74 21 -16 49 -44 62 -64 30 -45 194 -209 239 -239
20 -13 48 -41 63 -62 28 -38 90 -79 121 -79 8 0 24 -13 36 -30 11 -16 53 -51
93 -77 40 -26 92 -63 116 -82 73 -58 155 -111 171 -111 9 0 53 -25 98 -55 98
-65 145 -90 190 -100 17 -3 54 -22 80 -40 72 -49 188 -105 218 -105 14 0 55
-14 91 -30 35 -17 74 -30 86 -30 28 0 153 -42 206 -69 22 -12 57 -21 78 -21
20 0 97 -20 170 -45 l132 -45 81 0 c49 0 95 -6 117 -15 19 -8 48 -15 64 -15
15 0 31 -4 34 -10 8 -14 1002 -14 1010 0 3 6 26 10 50 10 27 0 68 11 108 30
36 17 71 30 79 30 7 0 33 14 58 30 25 16 51 30 58 30 26 0 98 44 150 91 30 27
65 52 78 55 l24 6 0 84 0 84 -26 12 c-19 9 -36 9 -70 0 -83 -22 -131 -16 -230
32 -50 24 -110 57 -132 74 -23 16 -57 33 -76 36 -25 5 -57 29 -120 91 l-86 85
0 74 c0 58 -4 76 -18 89 -29 26 -53 21 -127 -31 -85 -58 -96 -83 -70 -144 26
-59 129 -165 190 -195 28 -14 70 -42 95 -63 47 -39 120 -80 142 -80 25 0 199
-92 209 -111 37 -70 -148 -169 -317 -169 -50 0 -96 -6 -117 -15 l-36 -15 -291
0 -291 0 -36 15 c-26 11 -74 15 -180 15 -105 0 -153 4 -180 15 -19 8 -53 15
-75 15 -23 0 -67 13 -105 30 -35 17 -74 30 -87 30 -12 0 -60 13 -106 30 -54
19 -105 30 -140 30 l-55 0 -115 56 c-63 31 -176 76 -250 100 -75 25 -153 57
-176 74 -22 16 -73 45 -112 65 -39 19 -110 62 -159 95 -48 33 -94 60 -102 60
-18 0 -102 52 -161 100 -25 20 -77 57 -116 83 -39 26 -84 63 -98 82 -15 19
-34 35 -42 35 -29 0 -72 33 -100 77 -15 24 -48 58 -73 75 -25 17 -53 40 -61
52 -14 21 -40 48 -99 100 -18 16 -45 55 -61 87 -20 39 -43 66 -72 86 -29 19
-55 50 -79 93 -20 36 -57 97 -82 135 -26 39 -47 75 -47 82 0 6 -13 40 -30 75
-16 34 -30 77 -30 93 0 17 -11 47 -24 66 -63 93 -85 251 -49 351 l17 48 -17
35 c-12 26 -23 35 -42 35 l-25 0 -30 -59z"/>
</g>
</svg>
