<?xml version="1.0" standalone="no"?>
<!DOCTYPE svg PUBLIC "-//W3C//DTD SVG 20010904//EN"
 "http://www.w3.org/TR/2001/REC-SVG-20010904/DTD/svg10.dtd">
<svg version="1.0" xmlns="http://www.w3.org/2000/svg"
 width="564.000000pt" height="168.000000pt" viewBox="0 0 564.000000 168.000000"
 preserveAspectRatio="xMidYMid meet">
<metadata>
Created by potrace 1.16, written by Peter Selinger 2001-2019
</metadata>
<g transform="translate(0.000000,168.000000) scale(0.100000,-0.100000)"
fill="#000000" stroke="none">
<path d="M7 1673 c-4 -3 -7 -25 -7 -47 l0 -41 48 -41 c47 -41 121 -84 142 -84
7 0 41 -13 77 -30 35 -16 69 -30 75 -30 5 0 39 -13 75 -30 35 -16 69 -30 75
-30 5 0 39 -13 75 -30 35 -16 74 -30 87 -30 26 0 122 -32 194 -66 29 -13 64
-24 78 -24 13 0 41 -7 61 -15 19 -8 53 -15 75 -15 21 0 55 -7 75 -15 l35 -15
403 0 403 0 35 15 c20 8 47 15 60 15 14 0 51 12 83 26 l58 26 41 -14 c26 -8
73 -44 140 -108 55 -53 119 -108 141 -123 23 -16 61 -45 85 -65 41 -36 67 -52
179 -117 29 -16 75 -45 102 -63 27 -19 71 -40 97 -48 25 -7 62 -25 81 -39 41
-31 184 -105 202 -105 7 0 55 -20 106 -45 52 -25 99 -45 105 -45 7 0 37 -12
67 -26 30 -14 89 -37 130 -50 41 -13 94 -33 117 -44 71 -33 296 -102 394 -120
26 -5 69 -20 97 -34 28 -14 57 -26 64 -26 7 0 33 -14 58 -30 l45 -30 58 0 c32
0 74 -7 94 -15 19 -8 53 -15 75 -15 21 0 55 -7 75 -15 22 -9 68 -15 124 -15
48 0 91 -5 94 -10 8 -13 372 -13 380 0 3 6 18 10 33 10 15 0 65 14 112 30 46
17 94 30 107 30 l23 0 0 83 0 83 -54 18 -55 19 -41 -17 -42 -17 -106 36 c-120
40 -144 50 -187 81 -16 12 -50 32 -75 44 -96 48 -180 137 -180 191 0 19 9 34
30 49 17 12 35 30 41 41 l10 20 -39 40 c-22 21 -48 39 -58 39 -20 -1 -111 -30
-132 -43 -28 -18 -52 -86 -52 -149 1 -88 35 -149 112 -197 31 -20 80 -56 110
-80 29 -24 76 -54 103 -66 28 -13 72 -32 98 -44 83 -37 59 -46 -133 -49 l-173
-2 -91 29 c-104 33 -161 49 -228 61 -26 5 -56 13 -67 19 -11 6 -32 11 -48 11
-15 0 -48 14 -73 30 -33 22 -57 30 -90 30 -33 0 -57 8 -90 30 -31 21 -57 30
-85 30 -44 0 -127 26 -213 66 -29 13 -58 24 -65 24 -6 0 -37 12 -67 26 -30 14
-104 42 -165 61 -73 24 -120 46 -140 65 -17 15 -37 28 -44 28 -7 0 -41 13 -75
29 -34 16 -76 32 -93 35 -18 4 -51 24 -75 45 -54 47 -68 55 -165 86 -88 29
-96 34 -140 91 -19 24 -50 48 -75 58 -68 28 -73 32 -76 55 -2 13 -32 43 -75
76 -40 30 -78 63 -84 74 -7 11 -35 34 -61 52 -56 36 -82 73 -82 116 0 16 -7
39 -16 51 -18 26 -104 72 -133 72 -24 0 -87 -53 -106 -89 -34 -66 -121 -121
-193 -121 -22 0 -56 -7 -75 -15 -48 -20 -186 -20 -234 0 -27 12 -79 15 -225
15 -145 0 -197 3 -225 15 -19 8 -51 15 -70 15 -44 0 -582 178 -683 226 -41 20
-111 47 -155 61 -44 15 -92 34 -107 45 -26 18 -107 26 -121 11z"/>
</g>
</svg>
