<?xml version="1.0" standalone="no"?>
<!DOCTYPE svg PUBLIC "-//W3C//DTD SVG 20010904//EN"
 "http://www.w3.org/TR/2001/REC-SVG-20010904/DTD/svg10.dtd">
<svg version="1.0" xmlns="http://www.w3.org/2000/svg"
 width="306.000000pt" height="162.000000pt" viewBox="0 0 306.000000 162.000000"
 preserveAspectRatio="xMidYMid meet">
<metadata>
Created by potrace 1.16, written by Peter Selinger 2001-2019
</metadata>
<g transform="translate(0.000000,162.000000) scale(0.100000,-0.100000)"
fill="#000000" stroke="none">
<path d="M1997 1557 c-33 -74 -33 -89 -6 -170 23 -69 55 -109 112 -138 21 -11
55 -35 75 -53 39 -35 92 -66 114 -66 7 0 33 -14 58 -30 25 -16 51 -30 58 -30
7 0 43 -18 80 -40 36 -22 84 -45 105 -51 52 -14 58 -35 19 -71 -18 -15 -39
-28 -46 -28 -8 0 -44 -14 -79 -30 -36 -16 -71 -30 -79 -30 -7 0 -33 -14 -58
-30 -25 -16 -50 -30 -57 -30 -6 0 -40 -13 -75 -30 -34 -16 -75 -30 -89 -30
-15 0 -43 -7 -62 -15 -20 -8 -48 -15 -62 -15 -14 0 -49 -12 -78 -26 -32 -17
-85 -31 -142 -39 -49 -7 -117 -22 -150 -34 -32 -12 -76 -21 -96 -21 -20 0 -53
-7 -72 -15 -20 -8 -47 -15 -61 -15 -13 0 -53 -13 -88 -30 -34 -16 -75 -30 -90
-30 -14 0 -55 -13 -90 -30 -47 -22 -77 -30 -120 -30 -42 0 -72 -8 -120 -30
-34 -16 -76 -30 -91 -30 -15 0 -46 -9 -68 -21 -49 -25 -177 -69 -201 -69 -31
0 -220 -67 -310 -109 -57 -28 -99 -41 -127 -41 -23 0 -55 -7 -71 -15 l-30 -16
0 -34 0 -35 99 0 c56 0 103 4 106 10 3 6 12 10 20 10 7 0 43 14 78 30 36 17
82 30 104 30 46 0 150 37 344 121 45 20 82 29 120 29 34 0 85 11 139 30 46 17
95 30 107 30 13 0 42 9 65 21 63 32 147 59 213 69 65 9 106 19 233 57 46 14
93 23 105 19 13 -3 37 4 64 19 23 14 53 25 66 25 14 0 41 7 60 15 20 8 54 15
75 15 22 0 56 7 75 15 20 8 49 15 64 15 15 0 48 14 73 30 25 16 59 30 75 30
17 0 50 14 75 30 25 16 57 30 72 30 15 0 89 31 165 68 140 69 252 112 292 112
36 0 116 46 144 84 60 78 22 116 -115 116 -87 0 -149 16 -256 66 -29 13 -64
24 -78 24 -14 0 -55 18 -92 40 -37 23 -78 43 -92 47 -14 3 -38 18 -55 33 -16
15 -42 30 -56 34 -34 8 -79 53 -86 87 -3 15 -16 38 -29 50 -30 28 -30 32 1 77
14 21 25 51 25 69 l0 33 -87 0 -88 -1 -28 -62z"/>
</g>
</svg>
