<?xml version="1.0" standalone="no"?>
<!DOCTYPE svg PUBLIC "-//W3C//DTD SVG 20010904//EN"
 "http://www.w3.org/TR/2001/REC-SVG-20010904/DTD/svg10.dtd">
<svg version="1.0" xmlns="http://www.w3.org/2000/svg"
 width="453.000000pt" height="111.000000pt" viewBox="0 0 453.000000 111.000000"
 preserveAspectRatio="xMidYMid meet">
<metadata>
Created by potrace 1.16, written by Peter Selinger 2001-2019
</metadata>
<g transform="translate(0.000000,111.000000) scale(0.100000,-0.100000)"
fill="#000000" stroke="none">
<path d="M3889 1083 c-15 -14 -47 -44 -73 -68 l-46 -42 0 -43 c0 -23 -5 -60
-11 -80 -7 -21 -9 -49 -5 -63 7 -30 79 -141 119 -184 16 -17 26 -36 23 -42 -5
-8 -112 -11 -342 -11 l-335 0 -36 15 c-19 8 -53 15 -75 15 -21 0 -55 7 -75 15
-25 11 -72 15 -165 15 -92 0 -139 4 -165 15 -19 8 -53 15 -75 15 -21 0 -55 7
-75 15 -19 8 -53 15 -74 15 -21 0 -50 5 -66 12 -15 7 -89 15 -163 19 -74 4
-160 12 -190 18 -30 5 -173 10 -317 10 -152 1 -273 5 -289 11 -14 6 -97 13
-183 16 -177 7 -182 9 -311 96 -47 32 -91 58 -99 58 -8 0 -52 18 -99 41 -48
22 -132 56 -189 75 l-103 34 -145 0 -145 0 -70 -35 -70 -35 -20 -42 c-22 -45
-28 -148 -9 -148 6 0 40 -14 76 -30 l64 -30 82 0 c45 0 102 -6 127 -14 78 -25
133 -37 195 -45 34 -5 70 -13 82 -19 12 -7 55 -12 95 -12 l73 0 45 -30 45 -30
76 0 76 0 39 -28 c54 -39 123 -119 145 -167 11 -23 19 -63 19 -93 0 -92 -40
-147 -124 -170 -67 -19 -86 -49 -70 -109 l6 -23 94 0 c55 0 94 4 94 10 0 5 29
40 64 78 113 120 129 221 64 407 -6 17 -11 44 -12 60 l-1 30 130 -1 c72 0 159
-6 195 -12 36 -6 121 -12 190 -12 147 -1 170 -9 251 -87 119 -115 199 -183
216 -183 10 0 35 -11 56 -25 20 -14 82 -48 137 -75 l100 -50 96 0 96 0 29 29
c19 20 29 40 29 60 0 16 5 42 10 56 7 19 7 39 -1 66 -9 30 -9 45 0 65 l12 26
72 -6 c40 -3 92 -9 117 -11 25 -3 171 -10 325 -14 154 -5 305 -13 335 -19 30
-6 113 -11 183 -11 89 -1 138 -5 164 -16 19 -8 59 -15 87 -15 32 0 84 -11 136
-30 56 -19 105 -30 143 -30 l57 0 0 72 0 72 -27 28 c-21 22 -36 28 -71 28 -49
0 -145 40 -213 89 -23 17 -49 31 -56 31 -29 0 -71 34 -99 78 -16 24 -46 55
-67 69 -21 13 -40 30 -43 37 -8 20 24 122 62 199 24 47 32 75 28 92 l-6 25
-62 -1 -61 -1 -26 -25z m-1312 -628 c19 -8 48 -15 64 -15 28 0 59 -32 73 -76
8 -26 -16 -54 -46 -54 -35 0 -161 67 -198 105 l-35 36 15 9 c23 15 86 12 127
-5z"/>
</g>
</svg>
