<?xml version="1.0" standalone="no"?>
<!DOCTYPE svg PUBLIC "-//W3C//DTD SVG 20010904//EN"
 "http://www.w3.org/TR/2001/REC-SVG-20010904/DTD/svg10.dtd">
<svg version="1.0" xmlns="http://www.w3.org/2000/svg"
 width="327.000000pt" height="192.000000pt" viewBox="0 0 327.000000 192.000000"
 preserveAspectRatio="xMidYMid meet">
<metadata>
Created by potrace 1.16, written by Peter Selinger 2001-2019
</metadata>
<g transform="translate(0.000000,192.000000) scale(0.100000,-0.100000)"
fill="#000000" stroke="none">
<path d="M7 1913 c-11 -10 -8 -211 3 -231 5 -9 27 -69 49 -132 21 -63 48 -137
59 -165 11 -27 26 -66 33 -85 18 -47 143 -234 194 -290 23 -25 50 -59 60 -75
37 -60 279 -296 330 -322 52 -27 151 -99 174 -127 7 -9 20 -16 28 -16 20 0
143 -61 213 -106 30 -19 71 -39 91 -44 20 -6 82 -33 138 -60 104 -51 207 -90
238 -90 24 0 152 -44 202 -69 22 -12 51 -21 63 -21 13 0 43 -6 68 -14 104 -33
141 -39 245 -43 61 -2 114 -8 120 -14 13 -13 462 -12 470 1 3 6 40 10 81 10
l75 0 62 31 c34 17 82 43 107 58 25 15 71 36 103 46 l57 19 0 52 0 52 -42 31
-42 31 -119 0 c-134 0 -162 8 -237 70 -25 21 -68 49 -95 63 -28 15 -58 33 -67
40 -20 16 -108 148 -108 162 0 6 11 34 25 64 l25 54 -15 23 c-8 13 -27 27 -41
30 -36 9 -117 -31 -160 -78 l-34 -38 0 -65 c0 -86 33 -154 92 -191 23 -15 72
-55 109 -90 38 -35 75 -64 84 -64 9 0 50 -20 91 -45 40 -25 77 -45 81 -45 5 0
21 -11 37 -23 l29 -23 -39 -25 -39 -24 -196 -3 -197 -3 -37 15 c-21 9 -62 16
-92 16 -29 0 -70 7 -90 15 -22 9 -68 15 -121 15 l-85 0 -66 29 c-191 82 -261
105 -371 120 -54 7 -96 28 -231 115 -30 20 -61 36 -68 36 -23 0 -84 33 -171
92 -47 32 -91 58 -98 58 -26 0 -133 73 -162 110 -18 23 -42 40 -60 44 -66 13
-284 255 -353 391 -8 17 -25 39 -37 50 -35 32 -69 96 -101 195 -16 51 -38 105
-49 120 -27 38 -90 228 -90 273 0 21 -7 51 -15 67 l-16 30 -43 0 c-23 0 -46
-3 -49 -7z"/>
</g>
</svg>
