<?xml version="1.0" standalone="no"?>
<!DOCTYPE svg PUBLIC "-//W3C//DTD SVG 20010904//EN"
 "http://www.w3.org/TR/2001/REC-SVG-20010904/DTD/svg10.dtd">
<svg version="1.0" xmlns="http://www.w3.org/2000/svg"
 width="327.000000pt" height="174.000000pt" viewBox="0 0 327.000000 174.000000"
 preserveAspectRatio="xMidYMid meet">
<metadata>
Created by potrace 1.16, written by Peter Selinger 2001-2019
</metadata>
<g transform="translate(0.000000,174.000000) scale(0.100000,-0.100000)"
fill="#000000" stroke="none">
<path d="M2600 1704 c-84 -52 -90 -62 -90 -162 l0 -85 112 -114 c75 -76 123
-116 145 -122 18 -5 45 -18 60 -29 15 -11 74 -43 130 -71 l103 -51 63 0 63 0
42 31 c49 36 59 79 20 79 -29 0 -215 62 -288 96 -30 14 -75 42 -100 63 -25 20
-61 47 -82 61 -43 29 -85 90 -94 139 -9 48 12 83 61 99 45 14 85 53 85 83 l0
19 -87 -1 -88 -1 -55 -34z"/>
<path d="M2609 607 c-45 -30 -47 -57 -10 -116 50 -77 41 -138 -37 -244 -41
-55 -90 -87 -135 -87 -13 0 -41 -7 -60 -15 -20 -8 -54 -15 -75 -15 -22 0 -56
-7 -75 -15 -52 -21 -362 -21 -414 0 -19 8 -61 15 -92 15 l-56 0 -45 30 -45 30
-163 0 c-122 0 -172 4 -199 15 -19 8 -53 15 -75 15 -21 0 -55 7 -75 15 -19 8
-45 15 -56 15 -12 0 -62 13 -112 29 -103 33 -160 49 -227 61 -26 5 -56 13 -67
19 -11 6 -32 11 -48 11 -15 0 -84 27 -151 60 -91 44 -135 60 -165 60 -30 0
-55 9 -87 30 -34 23 -56 30 -92 30 l-48 0 0 -24 c0 -18 12 -33 41 -53 23 -15
65 -47 94 -70 73 -58 127 -83 176 -83 28 0 70 -13 127 -41 122 -57 283 -109
340 -109 26 0 67 -6 92 -14 77 -24 133 -37 190 -45 30 -4 71 -12 90 -18 82
-26 130 -36 215 -42 50 -4 100 -12 112 -19 12 -7 60 -12 112 -12 49 0 93 -4
96 -10 8 -14 612 -14 620 0 3 5 41 10 82 10 l77 0 110 74 111 74 41 64 c66 99
74 121 74 191 l0 64 -41 56 c-36 51 -81 87 -107 87 -5 0 -24 -10 -43 -23z"/>
</g>
</svg>
