<?xml version="1.0" standalone="no"?>
<!DOCTYPE svg PUBLIC "-//W3C//DTD SVG 20010904//EN"
 "http://www.w3.org/TR/2001/REC-SVG-20010904/DTD/svg10.dtd">
<svg version="1.0" xmlns="http://www.w3.org/2000/svg"
 width="249.000000pt" height="354.000000pt" viewBox="0 0 249.000000 354.000000"
 preserveAspectRatio="xMidYMid meet">
<metadata>
Created by potrace 1.16, written by Peter Selinger 2001-2019
</metadata>
<g transform="translate(0.000000,354.000000) scale(0.100000,-0.100000)"
fill="#000000" stroke="none">
<path d="M157 3450 l-94 -90 -22 -65 c-11 -36 -21 -90 -21 -120 0 -29 -5 -57
-10 -60 -13 -8 -13 -72 0 -80 6 -3 10 -32 10 -64 0 -32 7 -75 15 -94 8 -20 15
-55 15 -77 0 -29 15 -70 54 -148 30 -59 64 -120 75 -137 12 -16 21 -44 21 -61
0 -18 12 -47 29 -71 16 -22 38 -58 49 -79 11 -22 32 -50 46 -63 14 -14 26 -34
26 -45 0 -11 27 -46 65 -82 35 -35 73 -80 84 -101 10 -21 38 -56 61 -78 23
-22 57 -61 75 -86 19 -25 53 -59 75 -74 22 -15 56 -49 75 -75 19 -26 53 -60
75 -75 22 -15 56 -49 75 -75 19 -26 53 -60 75 -75 22 -15 56 -49 75 -75 19
-26 52 -59 74 -75 22 -15 58 -51 80 -80 27 -36 49 -54 69 -58 31 -6 66 -39
104 -97 16 -23 38 -40 67 -50 32 -11 53 -27 75 -59 19 -26 51 -54 83 -71 29
-15 60 -33 68 -40 20 -17 61 -96 85 -164 10 -28 27 -73 38 -101 11 -27 26 -65
33 -84 7 -18 32 -56 55 -83 24 -28 46 -65 50 -82 3 -17 15 -45 25 -62 10 -17
19 -41 19 -53 0 -34 23 -70 89 -141 34 -36 63 -73 67 -82 4 -14 16 -18 50 -18
l44 0 0 48 c0 36 -7 58 -30 92 -16 25 -30 57 -30 72 0 14 -13 55 -30 90 -16
34 -30 70 -30 79 0 9 -22 43 -49 77 -27 33 -54 77 -61 97 -13 38 -7 85 11 85
5 0 44 -16 86 -35 l75 -36 112 -6 112 -6 32 17 c25 13 32 23 32 46 0 16 -4 32
-10 35 -5 3 -10 21 -10 38 0 21 -14 53 -41 92 -57 84 -63 90 -170 161 -53 35
-104 73 -114 84 -10 11 -35 25 -55 30 -22 6 -64 34 -99 65 -77 69 -99 71 -155
12 -22 -24 -48 -54 -56 -67 l-16 -23 -32 7 c-19 5 -61 34 -104 74 -40 37 -92
80 -116 96 -23 16 -58 50 -77 76 -19 26 -47 56 -63 66 -15 9 -54 43 -87 74
-33 31 -76 67 -96 80 -21 13 -50 45 -67 70 -17 25 -50 58 -74 74 -25 15 -59
50 -77 77 -17 27 -42 56 -55 64 -12 8 -38 36 -56 63 -19 26 -57 70 -85 99 -65
67 -123 135 -160 187 -16 24 -45 62 -62 86 -18 24 -33 50 -33 58 0 9 -16 41
-36 71 -61 95 -111 185 -117 211 -3 14 -24 55 -47 92 -22 37 -40 71 -40 77 0
5 -13 38 -30 73 -18 38 -30 79 -30 104 0 23 -7 58 -15 77 -19 47 -19 157 0
204 8 19 15 53 15 75 0 83 52 128 147 128 45 0 64 4 76 18 20 22 21 35 5 79
l-12 33 -93 0 -92 0 -94 -90z m1831 -2495 c12 -20 39 -43 60 -51 84 -36 102
-48 147 -101 26 -30 45 -57 41 -60 -7 -7 -88 14 -142 38 -22 10 -58 37 -78 61
-21 24 -48 55 -62 71 -25 29 -28 36 -18 61 10 25 27 19 52 -19z"/>
<path d="M1815 3110 c-11 -5 -34 -9 -51 -9 l-32 -1 -61 -77 -61 -77 0 -48 c0
-37 10 -67 39 -126 54 -107 154 -200 296 -276 28 -15 73 -42 102 -60 110 -70
246 -95 297 -55 31 24 35 68 9 92 -25 22 -135 57 -180 57 -21 0 -56 9 -78 19
-64 29 -214 174 -263 255 l-44 71 12 37 c7 20 37 64 67 98 l54 62 -14 22 c-15
23 -59 31 -92 16z"/>
</g>
</svg>
