<?xml version="1.0" standalone="no"?>
<!DOCTYPE svg PUBLIC "-//W3C//DTD SVG 20010904//EN"
 "http://www.w3.org/TR/2001/REC-SVG-20010904/DTD/svg10.dtd">
<svg version="1.0" xmlns="http://www.w3.org/2000/svg"
 width="963.000000pt" height="369.000000pt" viewBox="0 0 963.000000 369.000000"
 preserveAspectRatio="xMidYMid meet">
<metadata>
Created by potrace 1.16, written by Peter Selinger 2001-2019
</metadata>
<g transform="translate(0.000000,369.000000) scale(0.100000,-0.100000)"
fill="#000000" stroke="none">
<path d="M7 3683 c-4 -3 -7 -25 -7 -49 l0 -42 24 -6 c12 -3 51 -30 85 -61 46
-41 69 -55 92 -55 41 0 86 -22 189 -92 47 -32 91 -58 98 -58 18 0 122 -61 283
-167 163 -108 209 -133 244 -133 14 0 56 -18 93 -40 37 -23 76 -42 87 -45 11
-2 45 -9 75 -15 l55 -12 57 17 c74 21 98 50 98 118 0 39 -8 65 -35 114 -19 35
-35 68 -35 74 0 23 46 31 85 15 24 -10 67 -16 122 -16 52 0 97 -6 120 -15 19
-8 60 -15 90 -15 29 0 70 -7 90 -15 27 -12 79 -15 225 -15 145 0 197 -3 225
-15 19 -8 61 -15 92 -15 l56 0 93 -45 c62 -30 108 -45 135 -46 23 0 69 -11
102 -23 48 -17 65 -30 88 -64 26 -39 106 -92 138 -92 7 0 33 -13 58 -29 25
-16 57 -31 71 -34 14 -4 47 -24 74 -47 33 -27 58 -40 79 -40 17 0 51 -13 76
-29 25 -16 57 -31 71 -34 14 -4 47 -24 74 -47 32 -27 58 -40 78 -40 28 0 98
-37 219 -114 31 -21 68 -36 85 -36 16 0 46 -11 67 -25 48 -33 232 -125 250
-125 7 0 26 -13 41 -29 15 -16 43 -32 61 -35 18 -4 59 -24 92 -46 32 -22 65
-40 73 -40 8 0 59 -29 112 -64 53 -34 111 -68 130 -75 70 -26 104 -48 154 -99
29 -30 66 -57 85 -63 42 -12 57 -23 94 -72 18 -24 53 -51 95 -72 36 -18 106
-60 155 -94 l90 -61 44 0 c30 0 70 -12 129 -41 48 -22 132 -56 189 -75 l103
-34 81 0 81 0 65 -30 64 -30 85 0 c53 0 98 -6 121 -15 51 -21 375 -21 426 0
20 8 49 15 65 15 18 0 38 10 57 30 20 21 38 30 59 30 30 0 78 29 196 118 24
17 49 32 56 32 7 0 32 -16 56 -35 47 -37 178 -108 218 -118 14 -4 43 -22 65
-40 39 -33 174 -107 195 -107 26 0 101 -42 117 -66 41 -60 71 -84 105 -84 24
0 42 -8 59 -26 13 -14 42 -35 64 -46 22 -12 54 -31 70 -43 17 -13 50 -33 75
-45 25 -12 65 -39 90 -60 25 -20 65 -47 90 -60 25 -12 64 -38 88 -58 64 -51
132 -96 188 -125 27 -14 77 -50 112 -81 34 -31 70 -56 80 -56 9 0 36 -23 60
-50 27 -31 67 -62 105 -81 45 -23 100 -69 208 -175 93 -91 154 -144 167 -144
12 0 24 -5 27 -10 9 -14 56 -13 88 3 l27 12 0 51 0 52 -33 24 c-17 14 -47 33
-65 42 -34 18 -120 97 -267 247 -63 65 -147 125 -228 166 -85 43 -164 100
-195 142 -13 18 -37 34 -60 40 -21 6 -56 25 -78 43 -63 52 -125 94 -193 128
-35 18 -80 47 -100 65 -41 37 -92 65 -117 65 -9 0 -36 20 -58 44 -49 52 -123
106 -145 106 -9 0 -54 25 -100 55 -89 60 -200 118 -242 128 -14 4 -54 31 -88
62 -34 30 -69 55 -77 55 -25 0 -83 30 -168 88 -43 30 -93 58 -110 63 -39 12
-54 24 -91 72 -30 40 -90 77 -125 77 -12 0 -35 -13 -51 -29 l-29 -29 0 -109 0
-108 -54 -57 c-42 -46 -59 -58 -83 -58 -17 0 -47 -7 -66 -15 -52 -21 -362 -21
-414 0 -19 8 -52 15 -72 15 -20 0 -75 13 -121 30 -47 16 -102 30 -123 30 -21
0 -54 7 -74 15 -19 8 -59 15 -87 15 -70 0 -218 51 -246 85 -9 11 -9 24 0 63
l13 48 -23 44 c-12 24 -37 65 -54 92 -17 26 -40 62 -51 79 -12 20 -32 36 -50
41 -17 4 -49 23 -70 41 -39 34 -174 107 -196 107 -18 0 -81 32 -123 62 -30 22
-50 28 -90 28 l-50 0 -42 -45 -41 -45 -44 0 c-32 0 -56 8 -89 30 -25 16 -52
30 -61 30 -8 0 -26 12 -40 26 -32 34 -91 64 -128 64 -19 0 -45 13 -73 35 -43
35 -188 115 -208 115 -12 0 -111 56 -201 114 -30 20 -68 36 -84 36 -15 0 -49
13 -74 29 -25 16 -60 32 -78 36 -17 3 -52 24 -76 46 -28 24 -55 39 -72 39 -25
0 -98 39 -216 114 -33 22 -68 36 -86 36 -21 0 -46 12 -75 35 -47 38 -178 108
-220 119 -26 6 -129 92 -234 195 -58 57 -90 68 -144 52 -56 -17 -243 -14 -287
4 -20 8 -66 15 -105 15 -38 0 -84 7 -105 15 -27 11 -77 15 -210 15 -132 0
-182 4 -210 15 -22 9 -67 15 -120 15 -52 0 -97 6 -120 15 -19 8 -51 15 -71 15
-19 0 -52 5 -73 12 -30 8 -48 8 -79 -1 l-40 -12 -66 31 c-36 16 -76 30 -90 30
-14 0 -41 7 -61 15 -19 8 -58 15 -85 15 l-50 0 -29 -29 c-21 -21 -29 -39 -29
-63 0 -45 -15 -58 -65 -58 -32 0 -47 6 -66 26 -26 28 -89 64 -112 64 -7 0 -26
14 -42 30 -19 20 -39 30 -57 30 -28 0 -99 37 -219 114 -34 22 -68 36 -88 36
-21 0 -41 9 -57 25 l-25 25 -58 0 c-32 0 -61 -3 -64 -7z m1038 -459 c21 -14
50 -30 63 -35 14 -5 22 -12 18 -16 -3 -3 -16 -1 -29 5 -12 6 -38 13 -58 16
-36 6 -75 37 -62 49 12 12 30 7 68 -19z m4257 -1272 c14 -9 54 -48 88 -85 45
-49 58 -68 47 -73 -8 -3 -31 6 -52 20 -21 14 -45 26 -54 26 -39 1 -181 92
-181 117 0 21 118 17 152 -5z"/>
<path d="M8105 2829 l-45 -61 0 -49 c0 -33 8 -66 24 -97 40 -78 340 -352 385
-352 9 0 36 -14 61 -30 25 -16 57 -30 72 -30 15 0 39 -5 54 -10 37 -14 74 10
74 49 0 32 -17 50 -80 81 -25 12 -67 40 -93 62 -26 22 -62 44 -80 49 -39 11
-69 37 -102 89 -13 21 -37 47 -52 58 -20 14 -33 36 -42 73 l-14 53 23 18 c14
12 39 18 70 18 80 0 106 56 51 111 l-29 29 -116 0 -116 0 -45 -61z"/>
</g>
</svg>
