<?xml version="1.0" standalone="no"?>
<!DOCTYPE svg PUBLIC "-//W3C//DTD SVG 20010904//EN"
 "http://www.w3.org/TR/2001/REC-SVG-20010904/DTD/svg10.dtd">
<svg version="1.0" xmlns="http://www.w3.org/2000/svg"
 width="156.000000pt" height="189.000000pt" viewBox="0 0 156.000000 189.000000"
 preserveAspectRatio="xMidYMid meet">
<metadata>
Created by potrace 1.16, written by Peter Selinger 2001-2019
</metadata>
<g transform="translate(0.000000,189.000000) scale(0.100000,-0.100000)"
fill="#000000" stroke="none">
<path d="M900 1880 c-8 -4 -34 -16 -57 -25 -53 -22 -67 -38 -83 -97 l-13 -48
13 -47 c7 -27 31 -77 54 -112 l41 -63 95 -63 c52 -35 115 -81 139 -101 34 -29
75 -48 188 -86 161 -54 189 -57 227 -27 47 37 27 89 -34 89 -26 0 -141 56
-220 106 -30 19 -66 37 -79 41 -38 10 -189 169 -197 208 -9 49 9 75 52 75 26
0 43 8 65 29 36 36 37 60 3 100 l-26 31 -76 -1 c-43 0 -84 -4 -92 -9z"/>
<path d="M42 1359 l-42 -31 0 -84 c0 -46 4 -92 8 -102 56 -116 57 -117 111
-147 31 -17 68 -48 85 -73 17 -23 54 -57 81 -75 28 -17 70 -53 95 -78 25 -25
81 -69 125 -99 44 -29 94 -72 112 -95 24 -32 41 -44 68 -49 25 -5 51 -22 83
-56 45 -46 154 -109 214 -124 15 -3 61 -38 102 -76 42 -39 84 -70 93 -70 10 0
39 -24 64 -53 28 -31 69 -64 103 -81 32 -15 62 -37 69 -47 14 -23 78 -26 120
-6 44 20 36 56 -26 119 -49 49 -80 74 -191 152 -23 16 -62 48 -88 72 -26 24
-55 44 -65 44 -10 0 -40 25 -66 55 -27 31 -60 58 -75 61 -53 13 -108 43 -167
93 -33 27 -91 67 -128 87 -38 21 -80 52 -94 70 -13 18 -40 42 -59 53 -53 32
-53 45 5 104 l52 52 -6 35 c-4 19 -10 53 -14 75 -8 44 -109 180 -142 190 -10
4 -41 21 -68 40 -71 49 -156 75 -244 75 l-73 0 -42 -31z m236 -157 c36 -13 63
-32 90 -63 43 -49 72 -90 72 -101 0 -14 -32 -38 -52 -38 -49 0 -146 62 -178
115 -24 39 -26 68 -4 89 19 19 10 20 72 -2z"/>
</g>
</svg>
