<?xml version="1.0" standalone="no"?>
<!DOCTYPE svg PUBLIC "-//W3C//DTD SVG 20010904//EN"
 "http://www.w3.org/TR/2001/REC-SVG-20010904/DTD/svg10.dtd">
<svg version="1.0" xmlns="http://www.w3.org/2000/svg"
 width="168.000000pt" height="315.000000pt" viewBox="0 0 168.000000 315.000000"
 preserveAspectRatio="xMidYMid meet">
<metadata>
Created by potrace 1.16, written by Peter Selinger 2001-2019
</metadata>
<g transform="translate(0.000000,315.000000) scale(0.100000,-0.100000)"
fill="#000000" stroke="none">
<path d="M0 3100 l0 -50 27 0 c40 0 229 -96 250 -127 10 -14 36 -46 59 -72 22
-25 48 -57 57 -71 19 -28 22 -82 7 -111 l-11 -19 -72 0 c-40 0 -78 -4 -85 -8
-7 -5 -15 -25 -19 -45 l-6 -37 79 -76 c44 -41 97 -87 118 -101 36 -23 77 -60
188 -171 113 -113 160 -167 184 -214 14 -29 47 -74 73 -100 59 -60 122 -133
153 -179 13 -19 40 -55 60 -80 19 -24 47 -66 61 -94 14 -27 35 -63 46 -80 12
-16 21 -44 21 -62 l0 -31 43 -34 c23 -18 47 -40 54 -48 15 -19 53 -130 53
-156 1 -10 9 -44 20 -74 l19 -55 -6 -120 c-7 -147 -12 -159 -63 -152 -54 7
-88 33 -122 93 -36 65 -90 114 -125 114 -34 0 -108 -73 -98 -97 4 -10 10 -39
14 -64 8 -50 46 -111 124 -198 26 -30 60 -77 74 -105 14 -28 58 -85 98 -126
39 -41 84 -94 98 -117 14 -23 47 -58 72 -79 25 -21 45 -45 45 -53 0 -8 21 -34
47 -58 l46 -43 49 0 48 0 0 48 0 49 -48 40 c-26 22 -61 60 -77 84 -16 24 -39
55 -51 69 -35 40 -116 162 -131 198 -16 38 -4 72 27 72 26 0 87 55 110 100 41
81 60 158 60 245 0 48 -5 95 -11 106 -6 11 -14 41 -19 67 -5 26 -13 65 -19 87
-6 22 -13 51 -16 65 -2 14 -26 51 -52 84 -56 69 -48 55 -109 184 -27 56 -61
115 -76 129 -16 15 -28 33 -28 40 0 22 -36 86 -60 108 -12 11 -36 40 -53 64
-16 24 -68 87 -114 138 -46 52 -91 107 -100 121 -9 15 -93 104 -185 199 -92
94 -168 178 -168 185 0 8 11 25 24 37 32 30 44 122 30 249 l-7 64 -156 159
-157 159 -147 0 -147 0 0 -50z"/>
</g>
</svg>
