<?xml version="1.0" standalone="no"?>
<!DOCTYPE svg PUBLIC "-//W3C//DTD SVG 20010904//EN"
 "http://www.w3.org/TR/2001/REC-SVG-20010904/DTD/svg10.dtd">
<svg version="1.0" xmlns="http://www.w3.org/2000/svg"
 width="735.000000pt" height="255.000000pt" viewBox="0 0 735.000000 255.000000"
 preserveAspectRatio="xMidYMid meet">
<metadata>
Created by potrace 1.16, written by Peter Selinger 2001-2019
</metadata>
<g transform="translate(0.000000,255.000000) scale(0.100000,-0.100000)"
fill="#000000" stroke="none">
<path d="M5858 2533 c-9 -10 -21 -28 -27 -41 l-12 -22 25 -25 c16 -16 36 -25
57 -25 40 0 89 -24 124 -60 16 -17 36 -30 44 -30 9 0 45 -19 81 -43 50 -33 70
-53 89 -91 l24 -49 -17 -32 c-25 -46 -64 -65 -133 -65 -74 0 -96 -19 -91 -76
2 -31 10 -43 37 -61 19 -13 52 -28 74 -34 63 -17 293 -135 335 -172 20 -19 62
-52 92 -74 30 -22 61 -48 69 -57 8 -10 36 -28 62 -42 51 -25 79 -57 79 -88 0
-11 19 -38 43 -60 54 -52 98 -109 126 -163 11 -23 46 -79 76 -125 33 -49 55
-93 55 -110 0 -14 14 -56 30 -91 l30 -65 0 -97 0 -97 -30 -65 c-16 -35 -30
-70 -30 -76 0 -7 -18 -40 -41 -75 -47 -74 -114 -122 -172 -122 -26 0 -50 -9
-73 -26 -55 -42 -187 -84 -265 -84 -37 0 -83 -7 -102 -15 -23 -9 -69 -15 -122
-15 -51 0 -95 -5 -108 -12 -19 -11 -275 -29 -397 -27 -366 3 -708 16 -727 27
-13 7 -60 12 -123 12 -67 0 -113 5 -137 15 -19 8 -60 15 -90 15 -29 0 -70 7
-90 15 -19 8 -53 15 -75 15 -21 0 -55 7 -75 15 -19 8 -52 15 -72 15 -20 0 -56
6 -81 14 -61 19 -125 35 -184 46 -28 5 -58 18 -69 28 l-19 20 21 47 c14 31 21
68 21 107 l0 60 -32 61 c-32 59 -49 78 -188 205 -64 58 -120 93 -170 105 -14
4 -43 22 -65 40 -50 43 -87 62 -167 86 -116 35 -153 43 -228 50 -41 4 -85 13
-97 19 -32 17 -193 15 -236 -3 -57 -24 -77 -19 -172 45 -59 39 -100 60 -120
60 -16 0 -43 9 -60 21 -58 39 -166 90 -253 118 -48 15 -129 49 -180 75 -51 25
-132 59 -180 75 -48 15 -106 38 -129 50 -23 11 -48 21 -55 21 -7 0 -42 14 -76
30 -35 17 -73 30 -85 30 -41 0 -147 43 -184 75 -52 44 -81 58 -222 104 -68 23
-135 50 -150 60 -15 11 -110 47 -211 80 -124 41 -201 73 -235 96 -30 21 -62
35 -80 35 -17 0 -43 9 -60 21 -99 67 -289 138 -417 156 l-38 5 0 -54 0 -54 72
-24 c40 -13 94 -34 120 -47 26 -12 60 -23 75 -23 38 0 123 -41 169 -82 38 -33
110 -61 186 -73 20 -3 59 -21 85 -39 68 -47 128 -76 155 -76 32 0 136 -37 168
-60 69 -49 243 -120 293 -120 13 0 75 -25 138 -56 63 -31 152 -68 199 -84 47
-15 145 -57 217 -94 73 -36 145 -66 160 -66 16 0 48 -14 73 -30 25 -16 52 -30
60 -30 9 0 32 -11 52 -25 20 -14 76 -38 125 -53 99 -32 156 -60 216 -103 22
-16 49 -29 59 -29 10 0 30 -11 43 -25 19 -18 25 -35 25 -70 0 -28 9 -63 24
-93 34 -68 206 -221 303 -271 22 -11 79 -47 129 -80 49 -34 96 -61 105 -61 23
0 189 -83 239 -119 31 -23 54 -31 84 -31 41 0 159 -35 214 -64 49 -25 150 -56
184 -56 18 0 53 -6 78 -14 92 -29 138 -36 166 -25 20 7 39 6 73 -5 76 -24 133
-37 196 -46 33 -5 92 -20 130 -34 49 -18 90 -26 138 -26 37 0 84 -7 104 -15
l35 -15 314 0 c198 0 315 -4 319 -10 8 -14 432 -14 440 0 4 6 96 10 244 10
189 0 246 3 274 15 20 8 52 15 72 15 40 0 121 26 208 65 l57 27 33 -12 34 -11
54 26 c30 13 62 25 72 25 9 0 38 19 63 43 26 23 69 58 96 77 l51 35 53 105
c30 57 59 109 64 114 13 13 13 283 0 291 -5 3 -10 20 -10 37 0 40 -144 327
-201 402 -24 31 -71 87 -104 124 -33 38 -85 99 -115 136 -56 69 -160 166 -215
200 -16 11 -48 39 -71 63 l-40 43 -36 0 c-55 0 -168 95 -168 141 0 8 18 36 40
63 22 26 40 57 40 67 0 11 -16 52 -36 92 -59 119 -173 220 -271 242 -18 3 -58
24 -90 46 -38 25 -69 39 -90 39 -17 0 -35 5 -38 10 -10 16 -61 11 -77 -7z
m-2501 -1578 c179 -59 193 -66 263 -130 25 -22 64 -54 88 -69 56 -38 170 -160
178 -190 7 -31 -2 -62 -22 -70 -22 -8 -80 18 -138 64 -28 22 -74 58 -102 80
-29 21 -65 58 -80 81 -50 72 -96 119 -123 126 -14 3 -55 23 -91 45 -35 21 -81
43 -101 48 -20 6 -44 19 -55 31 l-18 20 14 9 c8 6 16 10 17 10 2 0 78 -25 170
-55z m-371 -74 c27 -21 68 -48 91 -60 23 -11 58 -32 79 -46 20 -14 47 -25 60
-25 16 0 47 -22 91 -65 37 -36 72 -65 78 -65 20 0 80 -69 69 -80 -12 -12 -73
10 -93 33 -14 17 -115 67 -135 67 -7 0 -31 13 -52 30 -21 16 -75 54 -119 84
-44 30 -100 75 -125 101 l-45 46 15 9 c24 16 35 12 86 -29z"/>
</g>
</svg>
