<?xml version="1.0" standalone="no"?>
<!DOCTYPE svg PUBLIC "-//W3C//DTD SVG 20010904//EN"
 "http://www.w3.org/TR/2001/REC-SVG-20010904/DTD/svg10.dtd">
<svg version="1.0" xmlns="http://www.w3.org/2000/svg"
 width="651.000000pt" height="243.000000pt" viewBox="0 0 651.000000 243.000000"
 preserveAspectRatio="xMidYMid meet">
<metadata>
Created by potrace 1.16, written by Peter Selinger 2001-2019
</metadata>
<g transform="translate(0.000000,243.000000) scale(0.100000,-0.100000)"
fill="#000000" stroke="none">
<path d="M4458 2386 l-28 -44 0 -93 0 -94 88 -93 c56 -59 94 -92 108 -92 26 0
122 -68 152 -109 14 -19 37 -34 63 -41 49 -14 114 -76 127 -123 5 -19 25 -57
43 -84 19 -28 42 -63 51 -79 10 -16 32 -48 50 -71 18 -23 49 -68 68 -99 19
-32 57 -82 83 -113 26 -30 46 -62 45 -70 -3 -17 -108 -59 -149 -60 -15 -1 -43
-8 -62 -16 -21 -8 -67 -15 -105 -15 -39 0 -85 -7 -105 -15 -20 -8 -54 -15 -75
-15 -22 0 -56 -7 -75 -15 -20 -8 -49 -15 -65 -15 -18 0 -38 -10 -57 -30 -18
-19 -39 -30 -56 -30 -14 0 -43 -7 -62 -15 -27 -11 -77 -15 -197 -15 l-161 0
-49 -25 c-77 -39 -94 -79 -69 -164 l11 -36 -25 -57 c-14 -31 -28 -70 -32 -86
-11 -50 -200 -232 -241 -232 -7 0 -42 -14 -77 -30 -36 -17 -70 -30 -77 -30 -6
0 -29 -9 -51 -21 -64 -32 -181 -69 -220 -69 -20 0 -53 -7 -72 -15 -23 -9 -68
-15 -120 -15 -53 0 -98 -6 -120 -15 -52 -22 -422 -22 -474 0 -23 10 -69 15
-135 15 -65 0 -111 5 -135 15 -27 12 -81 15 -240 15 -158 0 -212 3 -240 15
-19 8 -45 15 -56 15 -11 0 -82 20 -156 44 -169 55 -210 66 -286 75 -41 6 -92
24 -163 60 -111 56 -227 97 -309 111 -29 5 -68 20 -85 33 -18 14 -82 50 -143
80 -70 35 -133 75 -173 111 -34 31 -69 56 -77 56 -7 0 -67 54 -133 120 l-120
120 -36 0 -36 0 0 -29 c0 -17 4 -33 10 -36 5 -3 10 -14 10 -23 0 -24 86 -148
122 -174 17 -13 52 -44 77 -69 25 -26 62 -55 81 -64 19 -10 49 -28 65 -40 17
-13 53 -35 80 -49 28 -15 75 -43 105 -62 30 -19 66 -37 80 -41 14 -3 54 -23
89 -44 36 -22 78 -39 93 -39 16 0 45 -7 66 -16 20 -8 75 -28 122 -43 47 -16
99 -35 115 -44 53 -27 244 -87 278 -87 17 0 52 -6 77 -14 57 -18 122 -35 180
-46 25 -5 77 -20 115 -34 39 -14 85 -26 104 -26 18 0 51 -5 72 -12 30 -8 48
-8 79 1 l39 12 37 -16 c23 -10 68 -15 125 -15 48 0 91 -5 94 -10 8 -14 912
-14 920 0 3 6 39 10 80 10 l73 0 33 27 c31 26 204 93 242 93 22 0 131 36 170
57 93 48 317 255 354 327 13 26 38 66 54 89 18 24 29 52 29 72 0 46 28 76 81
86 116 21 253 65 297 94 25 17 50 25 80 25 24 0 53 5 65 12 12 7 69 15 127 19
101 6 142 14 240 45 25 8 61 14 81 14 20 0 53 7 72 15 23 9 68 15 120 15 l84
0 39 -28 c21 -16 45 -36 53 -45 17 -21 206 -149 260 -177 22 -11 46 -20 54
-20 8 0 22 -9 32 -20 11 -12 31 -20 51 -20 19 0 59 -11 90 -25 35 -15 75 -25
105 -25 27 0 68 -5 93 -12 65 -17 97 0 162 88 l54 73 0 40 c0 32 -10 55 -42
102 -70 101 -107 138 -147 149 -20 5 -60 21 -89 35 -28 14 -57 25 -63 25 -6 0
-38 12 -71 27 l-59 26 -54 -13 -54 -13 -43 16 c-33 13 -78 17 -187 17 l-144 0
-33 21 c-18 11 -49 41 -68 67 -19 26 -44 56 -55 66 -12 11 -21 27 -21 37 0 11
-22 43 -49 73 -58 64 -73 89 -65 110 9 23 32 27 71 11 19 -8 59 -15 87 -15 28
0 72 -8 98 -17 l47 -17 51 24 c70 33 120 89 120 135 0 84 -78 170 -217 239
l-93 46 -55 0 c-31 0 -72 7 -92 15 -22 9 -68 15 -124 15 l-88 0 -64 -30 c-36
-16 -68 -30 -72 -30 -16 0 -83 36 -120 64 -61 47 -165 156 -176 183 -12 33
-11 83 2 122 6 17 8 47 5 66 l-7 35 -77 0 -77 -1 -27 -43z m879 -550 c21 -8
55 -17 76 -20 51 -7 99 -42 95 -70 -5 -34 -56 -32 -133 3 -37 17 -71 31 -76
31 -16 0 -89 40 -89 49 0 25 68 29 127 7z m797 -835 c88 -42 196 -125 196
-151 0 -34 -30 -60 -68 -60 -47 0 -143 33 -191 66 -19 13 -42 24 -49 24 -8 0
-43 14 -79 30 -35 17 -71 30 -79 30 -7 0 -26 18 -41 41 l-27 41 15 9 c8 5 65
9 128 9 l114 0 81 -39z"/>
</g>
</svg>
