<?xml version="1.0" standalone="no"?>
<!DOCTYPE svg PUBLIC "-//W3C//DTD SVG 20010904//EN"
 "http://www.w3.org/TR/2001/REC-SVG-20010904/DTD/svg10.dtd">
<svg version="1.0" xmlns="http://www.w3.org/2000/svg"
 width="240.000000pt" height="393.000000pt" viewBox="0 0 240.000000 393.000000"
 preserveAspectRatio="xMidYMid meet">
<metadata>
Created by potrace 1.16, written by Peter Selinger 2001-2019
</metadata>
<g transform="translate(0.000000,393.000000) scale(0.100000,-0.100000)"
fill="#000000" stroke="none">
<path d="M23 3916 c-18 -8 -23 -19 -23 -48 l0 -38 50 -25 c28 -14 86 -37 130
-51 52 -17 89 -36 104 -53 162 -181 183 -217 189 -326 l2 -40 -27 2 c-15 1
-42 13 -60 26 -51 39 -114 67 -148 67 -46 0 -182 -72 -213 -114 l-27 -35 0
-87 0 -87 35 -43 c61 -74 208 -164 269 -164 20 0 56 -5 80 -12 l44 -12 61 28
c38 17 69 25 82 21 28 -9 152 -128 186 -178 54 -80 108 -150 149 -191 22 -23
61 -68 86 -101 25 -34 53 -67 62 -74 9 -7 16 -22 16 -32 0 -10 22 -43 48 -72
26 -29 78 -98 114 -153 36 -55 84 -122 107 -148 23 -27 55 -74 71 -106 18 -36
44 -69 69 -86 21 -16 49 -44 62 -64 13 -19 40 -55 60 -80 20 -25 47 -65 59
-88 20 -41 130 -185 150 -197 6 -4 10 -14 10 -23 0 -10 27 -57 61 -106 33 -50
70 -108 81 -130 24 -48 72 -118 120 -178 20 -24 44 -60 54 -80 32 -61 172
-208 199 -208 51 0 60 72 15 123 -16 19 -30 40 -30 46 0 21 -37 85 -64 110
-14 14 -26 32 -26 41 0 9 -13 35 -29 58 -17 22 -46 73 -67 113 -20 40 -53 94
-73 119 -48 58 -101 143 -101 161 0 8 -27 54 -61 103 -33 49 -67 103 -76 120
-9 17 -32 49 -52 72 -91 103 -193 249 -250 356 -17 31 -46 69 -66 84 -19 14
-35 33 -35 41 0 28 -40 90 -74 117 -20 15 -48 51 -62 79 -15 29 -45 72 -68 97
-23 25 -64 79 -90 120 -29 43 -103 129 -176 202 -70 70 -130 138 -134 152 -3
14 -18 33 -32 43 -15 10 -45 34 -67 54 l-41 37 12 39 c17 57 15 203 -3 246 -8
20 -15 55 -15 77 0 55 -58 168 -104 204 -20 15 -39 39 -42 54 -9 37 -21 50
-73 78 -25 14 -70 40 -98 58 -29 19 -85 44 -125 56 -40 13 -77 27 -82 32 -14
11 -96 8 -123 -6z m273 -677 c50 -31 135 -130 132 -154 -2 -10 -15 -26 -30
-35 l-27 -15 -34 33 -33 32 -46 0 c-55 0 -93 27 -103 72 l-7 32 31 28 c37 33
72 35 117 7z"/>
<path d="M655 625 c-16 -8 -56 -14 -88 -15 -115 0 -252 -96 -288 -202 -23 -65
-23 -95 -4 -141 8 -20 15 -50 15 -67 0 -40 47 -90 85 -90 34 0 79 44 70 68 -4
9 -10 38 -12 65 l-6 47 32 65 c36 72 72 104 128 111 21 3 55 12 76 20 55 21
394 20 444 -1 20 -8 66 -15 105 -15 38 0 84 -7 105 -15 19 -8 45 -15 57 -15
24 0 151 -42 194 -64 42 -22 148 -56 174 -56 13 0 52 -14 86 -30 35 -17 69
-30 76 -30 6 0 28 -11 48 -25 20 -14 72 -36 115 -50 119 -38 177 -71 217 -122
20 -26 36 -50 36 -55 0 -4 18 -8 40 -8 l40 0 0 78 0 78 -42 32 c-24 18 -69 52
-102 77 -35 28 -69 45 -85 45 -29 0 -116 28 -201 64 -170 73 -230 93 -345 115
-22 4 -96 26 -165 48 -158 52 -201 63 -275 72 -34 5 -70 13 -82 19 -33 18
-409 15 -448 -3z"/>
</g>
</svg>
