<?xml version="1.0" standalone="no"?>
<!DOCTYPE svg PUBLIC "-//W3C//DTD SVG 20010904//EN"
 "http://www.w3.org/TR/2001/REC-SVG-20010904/DTD/svg10.dtd">
<svg version="1.0" xmlns="http://www.w3.org/2000/svg"
 width="441.000000pt" height="312.000000pt" viewBox="0 0 441.000000 312.000000"
 preserveAspectRatio="xMidYMid meet">
<metadata>
Created by potrace 1.16, written by Peter Selinger 2001-2019
</metadata>
<g transform="translate(0.000000,312.000000) scale(0.100000,-0.100000)"
fill="#000000" stroke="none">
<path d="M2570 3102 c0 -27 32 -52 66 -52 16 0 58 -14 92 -30 35 -17 76 -30
91 -30 17 0 37 -10 52 -26 13 -14 42 -35 64 -46 54 -27 74 -46 97 -93 12 -22
37 -59 57 -81 45 -52 87 -173 71 -204 -13 -24 -29 -25 -78 -4 -101 42 -153 54
-239 54 -64 0 -95 -4 -111 -16 -25 -17 -72 -103 -72 -132 0 -32 76 -127 133
-166 l54 -37 129 4 c99 3 145 9 200 26 l71 23 85 -40 c48 -22 105 -54 129 -71
23 -17 49 -31 58 -31 9 0 36 -14 61 -30 25 -16 52 -30 60 -30 25 0 152 -88
213 -148 32 -31 74 -81 93 -109 19 -29 55 -69 79 -90 28 -23 58 -64 81 -107
20 -39 45 -82 55 -96 9 -14 27 -52 38 -85 l21 -59 0 -156 0 -155 -19 -40 c-22
-48 -140 -182 -185 -210 -17 -10 -51 -36 -75 -57 -26 -23 -58 -40 -80 -43 -20
-3 -56 -12 -81 -20 -25 -8 -56 -15 -70 -15 -14 0 -42 -11 -61 -24 -48 -33
-144 -66 -190 -66 -20 0 -53 -7 -72 -15 -20 -8 -62 -15 -92 -15 -31 0 -66 -6
-78 -12 -16 -10 -145 -15 -492 -20 -258 -4 -483 -7 -500 -8 -50 -1 -286 18
-345 29 -30 5 -92 10 -138 10 -49 1 -97 7 -119 16 -20 8 -66 15 -105 15 -38 0
-84 7 -105 15 -19 8 -53 15 -75 15 -21 0 -55 7 -75 15 -25 11 -74 15 -167 16
l-131 1 -60 22 c-59 22 -67 30 -94 98 -5 14 -32 41 -60 59 -27 18 -62 52 -77
77 -15 24 -51 59 -80 78 -28 19 -71 52 -95 73 -24 21 -86 59 -136 85 l-93 46
-75 0 -76 0 -59 -30 -60 -30 0 -101 0 -100 22 -30 c25 -33 108 -93 179 -129
24 -13 58 -33 74 -46 38 -28 234 -94 281 -94 96 0 244 -124 244 -205 0 -22 9
-40 30 -60 l30 -29 0 -54 0 -53 -47 -55 c-62 -72 -110 -94 -206 -94 -84 0
-107 -14 -107 -68 l0 -32 160 0 159 0 25 25 c14 14 33 25 43 25 36 0 65 33
118 141 65 128 69 162 25 204 l-30 29 0 42 c0 64 21 75 134 67 50 -3 106 -12
125 -19 22 -9 76 -14 163 -14 92 0 139 -4 165 -15 22 -9 67 -15 120 -15 52 0
97 -6 120 -15 24 -10 70 -15 147 -15 80 0 124 -5 159 -17 l48 -17 33 18 34 18
494 -1 493 -2 37 16 c21 8 62 15 91 15 30 0 71 7 90 15 20 8 52 15 72 15 46 0
238 65 284 96 20 13 47 24 61 24 34 0 160 46 187 67 11 10 52 41 90 69 80 61
100 80 158 155 56 73 85 130 85 168 0 16 5 33 10 36 6 4 10 73 10 175 0 102
-4 171 -10 175 -5 3 -10 20 -10 36 0 66 -115 235 -252 368 -25 26 -56 65 -67
89 -13 26 -38 52 -64 69 -23 14 -63 45 -89 67 -26 23 -79 59 -117 81 -38 22
-95 56 -128 75 -32 19 -92 50 -133 69 -130 58 -136 62 -153 91 -13 21 -17 52
-17 128 0 66 -5 112 -15 135 -8 20 -15 49 -15 64 0 22 -24 53 -108 143 l-109
115 -106 53 c-58 28 -112 52 -121 52 -8 0 -18 5 -21 10 -4 6 -67 10 -156 10
l-149 0 0 -18z m414 -688 c9 -3 16 -10 16 -15 0 -15 -37 -10 -50 6 l-12 15 15
0 c8 0 22 -3 31 -6z m-2734 -1374 c19 -5 57 -28 84 -50 26 -22 56 -40 66 -40
31 0 61 -33 71 -79 5 -24 8 -46 6 -48 -6 -5 -119 32 -175 58 -44 20 -115 80
-133 112 -12 22 5 57 29 57 9 0 33 -4 52 -10z"/>
</g>
</svg>
