<?xml version="1.0" standalone="no"?>
<!DOCTYPE svg PUBLIC "-//W3C//DTD SVG 20010904//EN"
 "http://www.w3.org/TR/2001/REC-SVG-20010904/DTD/svg10.dtd">
<svg version="1.0" xmlns="http://www.w3.org/2000/svg"
 width="267.000000pt" height="312.000000pt" viewBox="0 0 267.000000 312.000000"
 preserveAspectRatio="xMidYMid meet">
<metadata>
Created by potrace 1.16, written by Peter Selinger 2001-2019
</metadata>
<g transform="translate(0.000000,312.000000) scale(0.100000,-0.100000)"
fill="#000000" stroke="none">
<path d="M1138 3089 c-31 -54 -20 -69 49 -69 45 0 155 -51 213 -98 25 -21 61
-48 82 -62 61 -41 85 -109 58 -161 -14 -26 -38 -24 -145 10 -134 43 -174 53
-235 57 l-55 4 -50 -27 c-37 -21 -57 -41 -75 -75 l-24 -46 13 -54 c21 -81 46
-123 98 -161 60 -43 93 -60 171 -86 73 -25 98 -26 145 -6 20 8 49 15 65 15 18
0 38 10 57 30 58 61 154 46 255 -39 25 -21 68 -50 96 -64 28 -14 64 -41 80
-58 16 -18 52 -56 79 -84 28 -29 60 -66 73 -83 13 -17 42 -44 65 -60 29 -19
46 -40 55 -67 7 -21 32 -59 56 -85 62 -67 71 -82 117 -220 l42 -125 1 -145 1
-145 -32 -70 c-17 -38 -35 -81 -39 -95 -12 -42 -35 -70 -80 -96 -23 -14 -54
-40 -68 -58 -20 -27 -42 -39 -106 -60 -45 -14 -97 -37 -118 -51 -20 -14 -49
-25 -63 -25 -15 0 -43 -7 -62 -15 -27 -11 -76 -15 -193 -15 -123 0 -167 -4
-205 -17 l-49 -18 -49 18 c-27 9 -59 17 -72 17 -29 0 -219 93 -242 118 -9 10
-19 32 -23 49 l-6 30 30 34 c40 46 72 112 72 149 0 56 -45 122 -158 233 -60
59 -117 107 -126 107 -9 0 -46 17 -81 39 -58 35 -113 55 -245 91 -78 21 -137
23 -180 6 -24 -10 -70 -16 -115 -16 l-74 0 -70 -62 -71 -62 0 -84 0 -84 71
-89 c39 -49 75 -89 79 -89 3 0 34 -25 67 -55 46 -42 76 -59 129 -76 38 -12 83
-35 99 -50 31 -28 204 -119 227 -119 7 0 33 -14 58 -30 25 -16 52 -30 60 -30
8 0 35 -14 60 -30 25 -16 52 -30 62 -30 9 0 39 -30 66 -67 28 -38 65 -79 82
-91 48 -36 100 -152 100 -222 0 -95 -39 -132 -190 -180 -83 -26 -110 -44 -110
-72 l0 -18 174 0 175 0 5 18 c4 10 20 28 36 41 17 12 47 56 70 101 l40 80 0
91 0 92 -31 48 -30 48 11 20 11 21 225 0 c155 0 232 4 247 12 12 6 56 15 97
19 41 4 95 13 120 19 103 28 177 52 205 68 103 57 330 267 344 319 5 18 18 45
29 60 35 50 62 112 62 142 0 16 5 33 10 36 6 4 10 58 10 130 0 72 -4 126 -10
130 -5 3 -10 19 -10 35 0 16 -20 70 -45 121 -25 51 -45 100 -45 109 0 9 -10
25 -21 36 -32 28 -93 113 -122 169 -28 55 -290 320 -365 370 -24 16 -62 45
-85 65 -23 21 -66 49 -96 64 -29 15 -64 38 -76 50 l-23 23 5 124 6 124 -23 45
c-12 25 -36 60 -52 78 -16 19 -40 51 -53 73 -27 42 -106 89 -150 89 -14 0 -42
7 -62 15 -19 8 -62 15 -94 15 -32 0 -61 5 -64 10 -3 6 -34 10 -68 10 l-62 0
-17 -31z m217 -524 c85 -40 103 -58 85 -80 -9 -11 -35 -15 -108 -15 l-95 0
-31 19 c-17 11 -42 34 -54 51 -34 45 -17 60 66 60 l65 0 72 -35z m-965 -1149
c56 -18 122 -35 180 -46 70 -14 118 -34 148 -62 15 -14 52 -44 84 -67 96 -72
113 -151 31 -151 -58 0 -156 38 -208 81 -56 46 -99 51 -160 16 l-40 -22 -3
-38 -3 -37 -26 0 c-38 0 -134 64 -187 125 l-46 54 0 38 c0 39 14 63 36 63 7 0
41 13 76 30 75 35 63 33 118 16z"/>
</g>
</svg>
