<?xml version="1.0" standalone="no"?>
<!DOCTYPE svg PUBLIC "-//W3C//DTD SVG 20010904//EN"
 "http://www.w3.org/TR/2001/REC-SVG-20010904/DTD/svg10.dtd">
<svg version="1.0" xmlns="http://www.w3.org/2000/svg"
 width="342.000000pt" height="177.000000pt" viewBox="0 0 342.000000 177.000000"
 preserveAspectRatio="xMidYMid meet">
<metadata>
Created by potrace 1.16, written by Peter Selinger 2001-2019
</metadata>
<g transform="translate(0.000000,177.000000) scale(0.100000,-0.100000)"
fill="#000000" stroke="none">
<path d="M1792 1747 c-47 -50 -12 -104 58 -93 71 11 240 -53 293 -111 111
-122 155 -196 201 -345 22 -67 39 -99 77 -145 27 -32 63 -82 80 -111 32 -53
62 -82 87 -82 20 0 81 -30 126 -62 21 -15 46 -28 56 -28 9 0 29 -13 45 -30 16
-16 35 -30 43 -30 7 0 43 -14 79 -30 35 -17 74 -30 87 -30 12 0 60 -13 106
-30 65 -22 103 -30 159 -30 l75 0 28 27 c18 17 28 37 28 55 l0 28 -25 0 c-14
0 -42 7 -62 15 -19 8 -61 15 -92 15 l-56 0 -45 30 c-25 16 -58 30 -75 30 -16
0 -50 14 -75 30 -25 16 -51 30 -59 30 -30 0 -160 71 -213 117 -31 27 -79 78
-106 113 -27 36 -56 71 -65 79 -11 8 -17 28 -17 53 0 107 -116 334 -222 434
-88 82 -118 104 -148 104 -16 0 -32 5 -35 10 -4 6 -68 10 -159 10 l-153 0 -21
-23z"/>
<path d="M0 1425 l0 -86 39 -52 c21 -29 48 -73 61 -97 12 -25 48 -72 80 -105
31 -33 69 -79 83 -102 15 -23 40 -49 56 -58 17 -8 42 -31 57 -51 15 -19 48
-46 73 -59 25 -12 74 -48 109 -79 34 -31 70 -56 78 -56 26 0 83 -31 174 -92
47 -32 92 -58 100 -58 9 0 53 -25 98 -55 91 -61 154 -95 174 -95 7 0 65 -25
128 -56 63 -31 149 -67 190 -80 41 -13 99 -36 128 -49 29 -14 58 -25 65 -25 6
0 35 -11 63 -24 36 -17 78 -25 150 -31 54 -4 114 -13 133 -21 18 -8 51 -14 73
-14 21 0 55 -7 75 -15 19 -8 53 -15 75 -15 21 0 55 -7 75 -15 25 -10 71 -15
154 -15 68 0 120 -4 124 -10 3 -5 28 -10 55 -10 27 0 52 5 55 10 3 6 32 10 63
10 50 1 219 48 259 73 21 13 143 203 143 223 0 40 -60 94 -105 94 -22 0 -103
-67 -120 -99 -31 -61 -75 -91 -190 -130 l-59 -21 -153 0 c-114 0 -163 4 -190
15 -19 8 -52 15 -72 15 -20 0 -56 6 -81 14 -60 19 -125 35 -182 46 -26 5 -56
13 -67 19 -11 6 -51 11 -88 11 -92 0 -194 34 -277 92 -21 16 -51 28 -65 28
-48 0 -172 47 -226 86 -43 31 -164 90 -202 98 -17 4 -51 24 -75 45 -45 40 -98
71 -120 71 -16 0 -140 81 -185 121 l-34 29 -50 0 -51 0 -26 29 c-15 16 -37 43
-50 60 -13 17 -47 47 -77 66 -29 20 -66 52 -81 73 -15 20 -49 57 -75 82 -32
31 -51 59 -60 90 -8 30 -27 58 -56 86 l-43 41 0 37 c0 51 -44 96 -94 96 l-36
0 0 -85z"/>
</g>
</svg>
