<?xml version="1.0" standalone="no"?>
<!DOCTYPE svg PUBLIC "-//W3C//DTD SVG 20010904//EN"
 "http://www.w3.org/TR/2001/REC-SVG-20010904/DTD/svg10.dtd">
<svg version="1.0" xmlns="http://www.w3.org/2000/svg"
 width="363.000000pt" height="150.000000pt" viewBox="0 0 363.000000 150.000000"
 preserveAspectRatio="xMidYMid meet">
<metadata>
Created by potrace 1.16, written by Peter Selinger 2001-2019
</metadata>
<g transform="translate(0.000000,150.000000) scale(0.100000,-0.100000)"
fill="#000000" stroke="none">
<path d="M395 1491 c-6 -5 -32 -11 -60 -14 -99 -10 -242 -55 -283 -89 -18 -16
-37 -28 -42 -28 -6 0 -10 -31 -10 -70 l0 -70 25 0 c31 0 123 30 199 65 30 14
66 25 79 25 14 0 41 7 60 15 27 11 76 15 193 15 122 0 167 4 205 17 l48 17 53
-16 c92 -28 141 -39 203 -47 34 -5 70 -13 82 -19 12 -7 40 -12 63 -12 22 0 57
-7 77 -15 19 -8 52 -15 72 -15 20 0 75 -13 121 -30 47 -16 96 -30 110 -30 14
0 42 -12 63 -26 58 -39 147 -64 289 -83 45 -6 76 -16 100 -34 38 -29 172 -97
190 -97 42 -1 288 -141 358 -205 14 -13 49 -35 77 -49 29 -15 83 -54 120 -89
38 -34 87 -75 110 -91 45 -30 126 -113 217 -223 33 -40 80 -85 105 -102 26
-16 67 -48 93 -70 25 -23 51 -41 58 -41 23 0 101 -41 113 -60 14 -24 77 -27
120 -7 21 9 27 19 27 44 l0 32 -136 133 c-86 84 -156 144 -190 162 -30 16 -66
44 -80 62 -14 18 -45 44 -68 58 -52 30 -65 50 -94 137 l-22 67 11 28 c14 34
31 144 31 194 -1 19 -4 79 -9 132 l-8 97 -48 49 c-29 29 -79 64 -125 87 -42
21 -90 48 -107 60 -50 38 -112 65 -148 65 -47 0 -89 -34 -85 -69 3 -28 44 -53
139 -85 47 -17 142 -95 181 -149 20 -29 39 -114 40 -187 1 -48 -22 -143 -38
-162 -22 -24 -46 -16 -104 32 -25 20 -68 49 -95 63 -28 14 -72 44 -99 66 -26
23 -56 41 -65 41 -20 0 -136 58 -211 106 -30 19 -71 39 -92 44 -20 6 -81 33
-136 60 -55 28 -112 50 -127 50 -14 0 -42 7 -63 16 -60 25 -150 54 -168 54
-10 0 -98 27 -196 60 -98 33 -194 60 -213 60 -20 0 -52 7 -72 15 -19 8 -53 15
-75 15 -21 0 -55 7 -75 15 -19 8 -62 15 -94 15 -32 0 -61 5 -64 10 -9 15 -188
13 -203 -2 -10 -10 -17 -10 -32 0 -23 14 -281 17 -295 3z"/>
</g>
</svg>
