<?xml version="1.0" standalone="no"?>
<!DOCTYPE svg PUBLIC "-//W3C//DTD SVG 20010904//EN"
 "http://www.w3.org/TR/2001/REC-SVG-20010904/DTD/svg10.dtd">
<svg version="1.0" xmlns="http://www.w3.org/2000/svg"
 width="681.000000pt" height="282.000000pt" viewBox="0 0 681.000000 282.000000"
 preserveAspectRatio="xMidYMid meet">
<metadata>
Created by potrace 1.16, written by Peter Selinger 2001-2019
</metadata>
<g transform="translate(0.000000,282.000000) scale(0.100000,-0.100000)"
fill="#000000" stroke="none">
<path d="M0 2765 c0 -40 4 -55 14 -55 8 0 36 -15 63 -34 27 -18 69 -44 93 -56
25 -12 65 -39 90 -60 25 -20 61 -45 80 -55 64 -32 138 -87 169 -126 18 -22 45
-42 65 -47 37 -11 162 -90 191 -122 10 -11 35 -25 55 -30 20 -5 54 -25 76 -43
21 -19 73 -51 114 -72 41 -20 95 -54 120 -75 26 -21 93 -61 150 -90 58 -29
125 -69 150 -90 25 -21 77 -53 115 -73 76 -38 369 -231 423 -278 22 -20 44
-29 66 -29 27 0 39 -7 61 -35 19 -25 59 -52 138 -91 147 -74 224 -133 316
-243 22 -27 46 -44 72 -51 21 -6 62 -32 91 -58 29 -26 96 -76 148 -111 52 -35
111 -78 130 -95 19 -18 55 -48 80 -67 24 -19 91 -82 149 -142 58 -60 125 -119
153 -134 26 -14 60 -41 74 -60 34 -45 111 -83 169 -83 66 0 118 30 158 93 19
28 44 61 56 71 11 11 21 25 21 33 0 27 -42 137 -66 172 -13 19 -24 43 -24 51
0 8 -11 32 -25 52 -29 43 -31 54 -9 62 32 12 194 6 231 -9 26 -11 76 -15 194
-15 94 0 169 -5 186 -11 15 -7 96 -13 178 -16 l150 -4 87 -29 c47 -17 104 -30
125 -30 30 0 46 -7 64 -26 13 -14 42 -35 64 -46 22 -12 54 -31 70 -43 17 -13
53 -35 80 -49 28 -15 75 -43 105 -62 30 -19 66 -37 80 -41 14 -3 45 -18 70
-33 25 -15 56 -30 70 -33 14 -4 47 -24 74 -47 34 -28 58 -40 80 -40 17 0 45
-9 61 -21 82 -56 337 -159 393 -159 10 0 56 -13 102 -30 47 -16 104 -30 127
-30 23 0 45 -4 48 -10 8 -13 282 -13 290 0 3 6 15 10 25 10 22 0 80 46 80 64
0 6 11 28 25 48 34 50 34 108 0 142 -14 14 -25 35 -25 46 0 12 -25 47 -57 82
-32 33 -74 83 -93 111 -28 40 -46 55 -78 66 -27 8 -52 26 -69 48 -19 25 -63
53 -155 99 -71 36 -148 78 -170 94 -24 18 -54 30 -72 30 -18 0 -50 13 -76 30
-25 17 -58 30 -76 30 -17 0 -72 20 -123 45 -73 35 -103 45 -144 45 -29 0 -90
12 -142 29 -150 48 -176 54 -277 58 l-96 4 -64 -31 c-86 -44 -98 -56 -98 -101
0 -21 -5 -41 -10 -44 -14 -9 -86 50 -121 98 -17 23 -29 53 -29 70 0 16 -9 45
-21 63 l-21 34 11 65 c5 36 19 78 31 95 l21 30 70 0 c39 0 85 -7 106 -15 19
-8 53 -15 75 -15 21 0 55 -7 75 -15 19 -8 47 -15 61 -15 28 0 103 -44 174
-102 26 -22 70 -46 98 -54 l50 -15 63 33 c99 53 90 85 -48 177 -72 47 -151 86
-237 116 -52 18 -182 131 -218 190 -26 42 -15 69 29 78 17 4 37 17 46 31 l16
24 -20 41 c-32 61 -53 71 -150 71 l-84 0 -59 -58 c-35 -36 -58 -67 -58 -81 0
-29 35 -96 76 -147 19 -23 34 -46 34 -51 0 -14 -25 -23 -65 -23 -18 0 -49 -7
-70 -16 -29 -12 -44 -13 -67 -5 -17 6 -35 8 -42 4 -73 -41 -112 -75 -147 -126
-42 -63 -47 -90 -24 -121 8 -11 15 -30 15 -43 0 -12 11 -47 25 -77 14 -30 25
-61 25 -68 0 -7 14 -33 30 -58 16 -25 30 -51 30 -58 0 -7 7 -27 16 -44 l16
-31 -14 -8 c-24 -16 -265 -11 -305 6 -27 12 -81 15 -240 15 -158 0 -212 3
-240 15 -26 11 -76 15 -195 15 -118 0 -168 4 -195 15 -20 8 -66 15 -105 15
-38 0 -84 7 -105 15 -26 11 -76 15 -197 15 l-162 0 -69 33 c-39 19 -95 56
-125 83 -30 28 -75 62 -100 76 -25 14 -55 40 -68 57 -12 17 -44 42 -71 55 -27
14 -84 49 -127 79 -87 60 -145 91 -186 101 -14 3 -50 28 -80 55 -29 26 -95 69
-146 95 -51 25 -110 62 -131 81 -21 19 -45 35 -53 35 -7 0 -51 25 -96 55 -46
30 -100 64 -121 75 -48 24 -166 104 -207 140 -18 15 -48 30 -67 34 -19 4 -78
36 -131 71 -53 36 -123 78 -156 95 -33 17 -77 46 -98 64 -20 18 -64 47 -97 64
-81 40 -281 175 -330 222 -22 21 -74 55 -115 75 -41 20 -96 54 -121 76 -26 21
-68 48 -95 60 -27 12 -57 26 -66 30 -10 5 -27 9 -38 9 l-20 0 0 -55z m5430
-1859 c56 -18 123 -35 175 -45 66 -13 247 -77 313 -110 35 -17 98 -43 140 -57
52 -16 95 -38 126 -64 27 -22 56 -40 65 -40 24 0 146 -83 215 -147 67 -62 126
-138 126 -162 0 -9 12 -33 26 -54 30 -45 27 -58 -19 -80 -46 -22 -183 -23
-234 -2 -19 8 -45 15 -57 15 -27 0 -152 43 -205 69 -22 12 -51 21 -63 21 -40
0 -161 46 -294 113 -71 35 -140 67 -154 70 -14 4 -43 21 -65 40 -22 19 -73 51
-113 72 -41 21 -77 45 -80 53 -3 10 10 28 36 51 l42 36 0 53 0 54 -29 29 c-20
19 -40 29 -60 29 -57 0 -117 40 -94 63 12 13 157 7 203 -7z m-2165 -106 c77
-14 130 -36 205 -85 73 -49 104 -83 138 -156 27 -56 28 -75 2 -89 -30 -16 -81
3 -143 54 -29 22 -68 52 -88 65 -21 14 -51 47 -68 73 -18 26 -44 54 -60 63
-57 29 -104 110 -52 90 9 -4 39 -11 66 -15z"/>
<path d="M2958 1692 l-58 -59 0 -39 c1 -91 80 -164 179 -164 l54 0 54 53 53
54 0 35 c0 27 -12 51 -56 106 l-55 72 -56 0 -56 0 -59 -58z"/>
</g>
</svg>
