<?xml version="1.0" standalone="no"?>
<!DOCTYPE svg PUBLIC "-//W3C//DTD SVG 20010904//EN"
 "http://www.w3.org/TR/2001/REC-SVG-20010904/DTD/svg10.dtd">
<svg version="1.0" xmlns="http://www.w3.org/2000/svg"
 width="438.000000pt" height="108.000000pt" viewBox="0 0 438.000000 108.000000"
 preserveAspectRatio="xMidYMid meet">
<metadata>
Created by potrace 1.16, written by Peter Selinger 2001-2019
</metadata>
<g transform="translate(0.000000,108.000000) scale(0.100000,-0.100000)"
fill="#000000" stroke="none">
<path d="M2975 1070 c-3 -5 -14 -10 -23 -10 -9 0 -47 -21 -84 -46 -87 -58
-118 -112 -118 -207 l0 -64 26 -24 c39 -37 58 -77 43 -95 -16 -20 -158 -19
-206 1 -24 10 -71 15 -150 15 -78 0 -125 5 -150 15 -23 10 -69 15 -134 15 -68
0 -111 5 -139 16 -29 12 -53 14 -83 9 -52 -9 -79 -9 -139 0 -59 9 -89 -8 -119
-67 l-21 -41 18 -39 c27 -61 56 -78 129 -78 34 0 76 5 93 11 25 9 41 7 77 -6
25 -10 45 -21 45 -25 0 -11 -27 -20 -60 -20 -15 0 -44 -7 -63 -15 -47 -19
-157 -19 -204 0 -23 10 -69 15 -135 15 -65 0 -111 5 -135 15 -25 11 -72 15
-165 15 -91 0 -139 4 -164 15 l-36 15 -291 -1 -292 -1 -39 16 -38 16 -209 0
-209 0 0 -55 0 -55 25 0 c14 0 42 -7 62 -15 19 -8 53 -15 75 -15 21 0 55 -7
75 -15 24 -10 71 -15 150 -15 l114 0 56 -26 56 -25 77 25 c89 30 182 34 237
11 19 -8 53 -15 75 -15 21 0 55 -7 75 -15 24 -10 71 -15 150 -15 78 0 125 -5
150 -15 26 -11 74 -15 180 -15 105 0 153 -4 180 -15 46 -19 140 -19 186 0 25
10 72 15 149 15 148 1 248 33 248 80 0 9 18 42 41 73 l40 57 145 0 c106 0 154
-4 181 -15 24 -10 71 -15 151 -15 l115 0 73 -35 c47 -23 83 -48 100 -71 26
-34 89 -74 116 -74 8 0 51 -25 96 -55 107 -71 155 -95 189 -95 16 0 46 -12 68
-27 22 -15 61 -30 87 -34 27 -4 61 -17 77 -28 22 -16 45 -21 89 -21 34 0 64 5
67 10 8 13 92 13 100 0 7 -12 127 -13 141 -2 5 5 36 17 69 27 33 11 72 30 88
44 l27 25 0 88 0 87 -32 17 c-17 9 -49 29 -71 45 -22 16 -46 29 -54 29 -8 0
-44 14 -80 30 -35 17 -75 30 -89 30 -14 0 -41 7 -61 15 -23 10 -69 15 -132 15
l-97 0 -84 30 c-47 16 -101 30 -120 30 -20 0 -74 13 -120 30 l-85 30 -85 0
c-68 0 -94 5 -130 23 -41 21 -51 32 -79 97 -6 14 -27 44 -46 68 -50 62 -46 83
25 150 68 65 73 85 34 131 -19 23 -34 31 -59 31 -19 0 -37 -4 -40 -10z m655
-730 c25 -6 63 -15 85 -19 22 -5 70 -18 106 -30 53 -17 71 -20 94 -11 22 8 40
6 88 -10 79 -28 117 -48 117 -63 0 -6 -21 -21 -47 -31 l-46 -19 -41 11 c-23 6
-52 8 -66 6 -14 -3 -60 6 -103 20 -43 15 -88 26 -100 26 -12 0 -42 14 -67 30
-25 16 -51 30 -59 30 -17 0 -121 70 -121 81 0 14 25 16 70 3 25 -7 65 -17 90
-24z"/>
</g>
</svg>
