<?xml version="1.0" standalone="no"?>
<!DOCTYPE svg PUBLIC "-//W3C//DTD SVG 20010904//EN"
 "http://www.w3.org/TR/2001/REC-SVG-20010904/DTD/svg10.dtd">
<svg version="1.0" xmlns="http://www.w3.org/2000/svg"
 width="360.000000pt" height="198.000000pt" viewBox="0 0 360.000000 198.000000"
 preserveAspectRatio="xMidYMid meet">
<metadata>
Created by potrace 1.16, written by Peter Selinger 2001-2019
</metadata>
<g transform="translate(0.000000,198.000000) scale(0.100000,-0.100000)"
fill="#000000" stroke="none">
<path d="M185 1970 c-3 -5 -23 -10 -43 -10 l-36 0 -53 -56 -53 -56 0 -77 c0
-42 4 -81 8 -86 5 -6 17 -37 27 -70 10 -33 34 -85 53 -115 71 -115 112 -189
112 -202 0 -8 27 -41 60 -73 33 -33 60 -68 60 -77 0 -10 13 -32 29 -51 43 -48
181 -259 181 -275 0 -8 18 -34 39 -59 22 -24 43 -59 46 -76 4 -18 22 -54 40
-82 39 -58 85 -184 85 -235 0 -46 -61 -174 -93 -195 -13 -8 -48 -18 -78 -22
-58 -7 -99 -37 -99 -72 0 -11 12 -33 26 -50 l26 -31 74 0 c41 0 82 4 92 9 9 4
38 18 64 29 35 16 56 35 85 78 55 83 63 97 63 117 0 10 7 32 16 49 30 59 45
124 34 153 -5 14 -10 51 -10 81 0 64 -21 111 -85 190 -24 30 -51 76 -59 103
-19 64 -32 88 -72 134 -22 23 -34 47 -34 65 0 27 -22 61 -128 197 -48 60 -72
107 -72 136 l0 21 28 -7 c15 -4 68 -9 117 -11 l90 -5 40 23 c26 15 49 40 65
70 l24 47 -17 48 c-9 26 -17 60 -17 74 0 14 -11 43 -25 63 l-24 36 30 0 c34 0
146 -49 188 -81 135 -106 231 -220 231 -276 0 -19 9 -38 26 -54 14 -13 40 -44
58 -69 l31 -45 5 -100 5 -99 35 -24 c28 -19 42 -22 70 -16 19 4 238 8 487 11
l452 4 37 -16 c20 -8 66 -15 103 -15 86 0 164 -27 258 -91 53 -35 108 -61 196
-89 67 -22 141 -49 163 -60 101 -47 161 -60 270 -60 l107 0 39 42 38 41 0 58
0 59 -37 20 c-21 12 -63 37 -93 56 -30 19 -72 39 -94 45 -43 12 -62 21 -120
62 -27 19 -51 27 -80 27 -23 0 -61 6 -86 14 -97 31 -139 39 -240 46 -109 8
-165 24 -228 64 -20 13 -65 39 -99 58 -62 33 -183 154 -183 182 0 19 57 66 79
66 28 0 51 33 51 72 0 51 -24 68 -99 68 l-61 0 -79 -40 c-99 -49 -111 -66
-111 -150 l0 -65 58 -60 c32 -33 71 -68 86 -78 34 -23 51 -64 35 -84 -9 -10
-28 -12 -84 -7 -56 5 -83 3 -117 -11 l-45 -17 -38 16 c-30 13 -77 16 -231 16
l-193 0 -19 28 c-11 15 -32 52 -47 82 -15 30 -45 75 -65 100 -21 25 -48 65
-60 90 -13 25 -45 69 -71 98 -27 30 -52 66 -55 80 -9 38 -21 50 -75 78 -26 13
-60 40 -75 59 -33 43 -57 57 -165 91 -45 15 -112 42 -150 60 -95 46 -181 74
-228 74 -22 0 -43 5 -46 10 -4 6 -73 10 -175 10 -102 0 -171 -4 -175 -10z
m299 -304 c39 -19 84 -48 100 -65 l29 -30 -13 -16 c-7 -8 -22 -15 -34 -15 -23
0 -161 86 -191 120 l-19 21 14 9 c24 15 39 12 114 -24z"/>
</g>
</svg>
