<?xml version="1.0" standalone="no"?>
<!DOCTYPE svg PUBLIC "-//W3C//DTD SVG 20010904//EN"
 "http://www.w3.org/TR/2001/REC-SVG-20010904/DTD/svg10.dtd">
<svg version="1.0" xmlns="http://www.w3.org/2000/svg"
 width="324.000000pt" height="303.000000pt" viewBox="0 0 324.000000 303.000000"
 preserveAspectRatio="xMidYMid meet">
<metadata>
Created by potrace 1.16, written by Peter Selinger 2001-2019
</metadata>
<g transform="translate(0.000000,303.000000) scale(0.100000,-0.100000)"
fill="#000000" stroke="none">
<path d="M2181 2990 l-22 -39 12 -23 c18 -35 41 -58 57 -58 27 0 181 -80 220
-113 20 -18 64 -41 97 -52 45 -14 74 -32 116 -72 30 -30 71 -63 90 -74 48 -29
61 -47 48 -70 l-10 -19 -100 0 c-188 0 -318 -65 -373 -187 l-19 -42 23 -71
c16 -50 31 -76 48 -88 15 -9 47 -38 72 -64 25 -27 50 -48 55 -48 18 0 115 -44
115 -52 0 -4 -12 -10 -27 -14 -16 -3 -45 -12 -66 -20 -20 -8 -68 -14 -106 -14
-38 0 -84 -7 -104 -15 -52 -22 -452 -22 -504 0 -19 8 -59 15 -87 15 -28 0 -71
6 -96 14 -59 19 -125 35 -180 46 -25 4 -57 14 -72 20 -21 10 -36 10 -70 1 -32
-9 -51 -9 -71 -2 -16 6 -46 11 -68 11 -22 0 -56 7 -76 15 -19 8 -52 15 -72 15
-37 0 -123 26 -197 60 -61 28 -251 90 -277 90 -22 0 -63 20 -158 77 -42 26
-61 31 -86 27 -24 -4 -40 0 -69 20 -21 14 -49 26 -61 26 -13 0 -43 5 -67 12
-34 9 -51 9 -70 0 l-26 -12 0 -44 c0 -25 4 -48 10 -51 5 -3 10 -20 10 -37 0
-23 9 -38 37 -62 20 -17 78 -70 127 -117 50 -47 104 -94 121 -104 16 -10 50
-37 75 -60 25 -22 57 -49 73 -58 15 -10 38 -34 51 -55 13 -21 43 -50 67 -65
24 -16 57 -46 72 -68 16 -22 50 -50 77 -64 27 -14 57 -37 67 -52 10 -15 49
-59 88 -98 38 -38 74 -83 80 -100 6 -18 30 -43 62 -64 28 -20 65 -56 81 -81
17 -25 50 -58 74 -73 24 -16 54 -45 68 -65 13 -20 53 -67 87 -105 74 -79 101
-129 153 -285 30 -88 40 -133 40 -182 l0 -66 -34 -69 c-33 -71 -73 -119 -135
-166 l-34 -25 7 -37 7 -37 122 0 123 0 16 28 c10 16 46 57 81 93 38 37 77 90
96 126 l31 63 -11 47 c-25 106 -83 272 -118 338 -21 39 -45 84 -53 100 -9 17
-26 53 -38 81 l-22 50 -254 253 c-140 140 -269 273 -286 297 -17 25 -55 62
-83 83 -29 22 -78 70 -111 107 -32 38 -99 108 -149 156 l-90 88 16 15 15 15
59 -21 c33 -11 84 -31 113 -45 29 -13 63 -24 75 -24 12 0 56 -12 97 -27 52
-19 106 -29 175 -34 124 -8 224 -24 272 -44 20 -8 66 -15 105 -15 38 0 84 -7
105 -15 22 -9 67 -15 120 -15 52 0 97 -6 120 -15 l35 -15 283 0 283 0 35 15
c25 10 71 15 146 15 l110 0 153 50 c104 35 159 58 171 73 71 89 108 140 126
175 11 22 25 43 31 47 13 8 13 192 0 200 -5 3 -10 20 -10 36 0 37 -32 102 -77
153 -18 22 -38 56 -43 76 -11 41 -25 55 -90 92 -25 14 -55 40 -68 57 -21 29
-107 81 -134 81 -6 0 -26 13 -43 29 -16 16 -85 57 -153 92 -68 34 -131 73
-141 85 -10 13 -40 33 -67 45 -27 12 -57 26 -66 30 -10 5 -44 9 -76 9 l-58 0
-23 -40z m594 -740 c85 -29 106 -40 143 -74 61 -57 30 -96 -78 -96 -78 0 -157
25 -235 76 -67 42 -68 60 -5 92 55 27 98 28 175 2z"/>
</g>
</svg>
