<?xml version="1.0" standalone="no"?>
<!DOCTYPE svg PUBLIC "-//W3C//DTD SVG 20010904//EN"
 "http://www.w3.org/TR/2001/REC-SVG-20010904/DTD/svg10.dtd">
<svg version="1.0" xmlns="http://www.w3.org/2000/svg"
 width="321.000000pt" height="375.000000pt" viewBox="0 0 321.000000 375.000000"
 preserveAspectRatio="xMidYMid meet">
<metadata>
Created by potrace 1.16, written by Peter Selinger 2001-2019
</metadata>
<g transform="translate(0.000000,375.000000) scale(0.100000,-0.100000)"
fill="#000000" stroke="none">
<path d="M527 3722 l-27 -28 0 -77 0 -78 25 -49 c16 -32 40 -59 65 -75 22 -14
47 -36 56 -50 20 -31 121 -105 142 -105 8 0 31 -15 51 -32 57 -50 160 -131
195 -152 17 -10 50 -32 73 -48 23 -16 91 -54 150 -84 59 -30 133 -71 163 -90
30 -19 66 -37 80 -41 14 -3 46 -18 71 -34 25 -16 51 -29 58 -29 7 0 37 -11 67
-25 31 -14 110 -43 177 -65 67 -22 133 -46 147 -52 84 -41 277 -233 320 -319
16 -31 43 -67 59 -79 33 -23 159 -207 171 -250 7 -26 44 -81 118 -180 17 -23
32 -49 32 -57 0 -16 129 -274 159 -318 16 -23 21 -46 21 -102 l0 -71 30 -64
30 -63 0 -72 c0 -39 5 -84 11 -100 7 -20 7 -39 -1 -70 l-12 -42 18 -46 17 -47
-11 -46 c-6 -26 -14 -72 -17 -102 -14 -117 -67 -241 -120 -280 -11 -8 -36 -29
-55 -46 -52 -45 -158 -77 -234 -69 -45 5 -71 2 -98 -9 -49 -21 -186 -21 -235
-1 -19 8 -52 15 -71 15 -20 0 -77 13 -127 29 -103 33 -161 49 -224 60 -72 13
-95 57 -70 131 20 55 -6 134 -63 197 -26 29 -58 70 -72 90 -42 65 -128 140
-206 179 -41 20 -92 50 -114 65 -21 16 -52 29 -68 29 -16 0 -45 7 -65 15 -21
9 -66 15 -110 15 -81 0 -129 -18 -172 -64 -14 -14 -29 -26 -34 -26 -16 0 -81
33 -121 62 -21 15 -46 28 -53 28 -20 0 -82 29 -118 56 -37 27 -221 119 -255
127 -14 4 -43 22 -65 40 -47 40 -81 58 -158 85 l-57 20 0 -57 0 -57 27 -26
c16 -14 57 -40 93 -58 36 -18 85 -49 110 -70 45 -37 120 -80 140 -80 29 0 101
-44 128 -77 24 -30 44 -42 94 -57 34 -10 75 -30 91 -44 15 -14 47 -37 71 -51
155 -90 186 -113 211 -155 23 -39 86 -95 208 -184 17 -12 42 -25 56 -29 14 -3
40 -18 56 -33 40 -38 208 -120 243 -120 18 0 38 -10 57 -30 16 -16 35 -30 43
-30 7 0 38 -11 68 -25 84 -38 170 -65 209 -65 20 0 52 -7 72 -15 19 -8 60 -15
90 -15 29 0 70 -7 90 -15 25 -10 71 -15 154 -15 68 0 120 -4 124 -10 4 -6 53
-10 115 -10 62 0 111 4 115 10 3 6 26 10 50 10 35 0 52 6 78 30 28 24 44 30
80 30 l46 0 44 58 c25 31 62 73 82 92 42 40 115 177 115 215 0 14 7 42 15 62
8 19 15 48 15 64 0 15 5 31 10 34 6 3 10 35 10 70 0 35 -4 67 -10 70 -6 3 -10
51 -10 109 0 69 -5 115 -15 139 -8 20 -15 53 -15 74 -1 21 -9 63 -20 93 -11
30 -20 75 -20 100 0 60 -21 126 -68 213 -21 40 -46 86 -54 102 -29 53 -78 171
-78 186 0 8 -27 54 -61 103 -33 50 -70 108 -81 130 -12 23 -38 61 -58 86 -21
25 -48 65 -60 90 -13 25 -35 63 -50 85 -15 22 -39 58 -53 81 -44 66 -30 102
19 49 14 -15 34 -25 51 -25 38 0 229 -66 264 -91 31 -22 111 -49 146 -49 34 0
64 47 61 94 l-3 40 -34 23 c-19 13 -50 27 -70 33 -20 5 -60 21 -89 35 -28 14
-57 25 -63 25 -6 0 -40 13 -76 30 -35 17 -76 30 -91 30 -15 0 -47 14 -72 30
-25 16 -52 30 -60 30 -8 0 -35 14 -60 30 -25 16 -58 30 -74 30 -38 0 -171 64
-191 92 -8 13 -15 30 -15 39 0 27 -39 68 -73 77 -24 6 -40 22 -67 66 -23 38
-53 69 -85 91 -49 33 -114 90 -218 191 -29 29 -79 68 -110 88 -31 20 -72 49
-90 64 -47 40 -115 86 -172 116 -27 15 -75 43 -105 62 -30 19 -73 39 -95 45
-22 6 -61 22 -87 35 -26 13 -53 24 -59 24 -6 0 -30 20 -53 45 l-42 45 -37 0
c-20 0 -39 5 -42 10 -4 6 -68 10 -159 10 l-152 0 -27 -28z m310 -147 c19 -8
48 -15 62 -15 17 0 38 -11 56 -30 19 -20 39 -30 57 -30 16 0 59 -18 96 -40 37
-23 78 -44 92 -47 14 -3 47 -26 75 -50 27 -23 81 -59 119 -79 64 -34 240 -189
329 -291 16 -18 34 -33 41 -33 7 0 27 -16 46 -35 l33 -34 -13 -16 c-20 -24
-54 -18 -83 15 -15 17 -35 30 -45 30 -9 0 -59 20 -110 45 -52 25 -99 45 -106
45 -6 0 -28 11 -49 25 -44 30 -232 125 -247 125 -23 0 -181 103 -201 131 -11
16 -33 36 -47 43 -15 8 -55 38 -89 68 -34 29 -76 64 -93 77 -47 36 -64 65 -50
90 13 26 73 28 127 6z m439 -2815 c118 -56 214 -150 214 -209 0 -26 -16 -26
-77 0 -26 12 -60 25 -75 29 -14 4 -64 32 -110 62 -45 30 -102 67 -125 81 -27
17 -43 35 -43 47 0 53 93 49 216 -10z"/>
</g>
</svg>
