<?xml version="1.0" standalone="no"?>
<!DOCTYPE svg PUBLIC "-//W3C//DTD SVG 20010904//EN"
 "http://www.w3.org/TR/2001/REC-SVG-20010904/DTD/svg10.dtd">
<svg version="1.0" xmlns="http://www.w3.org/2000/svg"
 width="303.000000pt" height="186.000000pt" viewBox="0 0 303.000000 186.000000"
 preserveAspectRatio="xMidYMid meet">
<metadata>
Created by potrace 1.16, written by Peter Selinger 2001-2019
</metadata>
<g transform="translate(0.000000,186.000000) scale(0.100000,-0.100000)"
fill="#000000" stroke="none">
<path d="M225 1818 c-16 -22 -41 -58 -54 -80 l-24 -40 29 -60 c21 -45 43 -72
84 -103 30 -24 73 -62 95 -84 22 -23 55 -46 75 -51 20 -5 54 -25 76 -43 39
-35 114 -77 134 -77 18 0 174 -97 200 -125 13 -14 30 -25 38 -25 22 0 199 -87
238 -116 18 -14 48 -30 68 -35 19 -5 59 -32 89 -59 32 -29 99 -72 164 -105
120 -61 135 -72 158 -128 19 -46 19 -98 0 -144 -8 -19 -15 -54 -15 -77 0 -52
-13 -66 -63 -66 -50 0 -109 28 -177 84 -30 25 -77 61 -105 79 -27 19 -56 42
-64 51 -16 19 -83 56 -102 56 -21 0 -84 34 -169 92 -47 32 -91 58 -99 58 -22
0 -196 86 -242 120 -23 16 -49 30 -58 30 -22 0 -195 84 -234 114 -45 34 -147
66 -212 66 l-55 0 0 -22 c1 -38 115 -131 230 -188 56 -28 120 -64 142 -80 23
-17 47 -30 55 -30 22 0 139 -56 176 -84 39 -29 171 -96 190 -96 8 0 27 -17 44
-38 22 -27 64 -54 157 -100 70 -35 147 -81 171 -102 25 -21 53 -44 63 -52 11
-7 33 -34 51 -60 19 -29 51 -57 84 -76 28 -16 63 -42 76 -56 l24 -26 70 0 69
0 65 63 c71 67 90 99 123 198 40 123 63 179 72 179 5 0 26 -11 46 -25 20 -14
43 -25 50 -25 21 0 139 -57 175 -84 18 -13 75 -46 127 -72 52 -26 138 -75 190
-110 52 -34 109 -65 127 -69 17 -3 52 -24 76 -45 25 -22 77 -56 117 -76 39
-20 77 -45 83 -55 9 -15 24 -19 67 -19 31 0 68 6 83 13 l27 12 0 36 0 37 -32
24 c-18 13 -53 36 -78 50 -25 14 -54 36 -65 48 -11 12 -46 35 -78 51 -32 16
-75 45 -96 64 -21 19 -44 35 -51 35 -19 0 -138 58 -173 84 -18 13 -68 43 -112
66 -44 23 -105 57 -135 76 -30 19 -66 37 -80 41 -14 3 -46 18 -71 34 -25 16
-52 29 -59 29 -15 0 -93 48 -167 103 l-53 39 0 30 c0 36 -27 90 -97 191 -29
44 -62 96 -73 116 -10 21 -43 56 -72 78 -71 54 -234 217 -264 265 -13 21 -42
47 -65 59 -23 11 -60 34 -82 50 -22 16 -47 29 -56 29 -8 0 -29 13 -46 28 -16
15 -57 36 -90 47 -33 10 -88 31 -123 47 -35 15 -73 28 -86 28 -23 0 -121 32
-133 43 -3 4 -81 7 -172 7 l-166 -1 -30 -41z m463 -163 c52 -25 99 -45 104
-45 32 0 160 -74 184 -106 15 -19 53 -48 84 -64 87 -44 344 -303 376 -379 l15
-35 -14 -14 -14 -14 -46 21 c-25 11 -69 43 -99 70 -30 27 -88 66 -128 87 -41
20 -92 50 -114 65 -21 16 -46 29 -53 29 -20 0 -82 29 -118 56 -16 12 -52 34
-80 48 -77 41 -181 108 -209 135 -14 13 -56 41 -93 61 -43 23 -74 48 -86 68
l-19 32 12 15 c9 11 36 15 109 15 l96 0 93 -45z"/>
</g>
</svg>
