<?xml version="1.0" standalone="no"?>
<!DOCTYPE svg PUBLIC "-//W3C//DTD SVG 20010904//EN"
 "http://www.w3.org/TR/2001/REC-SVG-20010904/DTD/svg10.dtd">
<svg version="1.0" xmlns="http://www.w3.org/2000/svg"
 width="888.000000pt" height="207.000000pt" viewBox="0 0 888.000000 207.000000"
 preserveAspectRatio="xMidYMid meet">
<metadata>
Created by potrace 1.16, written by Peter Selinger 2001-2019
</metadata>
<g transform="translate(0.000000,207.000000) scale(0.100000,-0.100000)"
fill="#000000" stroke="none">
<path d="M0 2020 c0 -28 5 -50 10 -50 6 0 21 -10 34 -22 50 -50 178 -128 208
-128 7 0 65 -25 128 -56 124 -60 216 -94 253 -94 13 0 36 -13 52 -30 16 -16
35 -30 43 -30 7 0 43 -13 79 -30 35 -16 75 -30 89 -30 14 0 41 -7 61 -15 19
-8 60 -15 90 -15 37 0 72 -8 109 -25 92 -42 171 -65 224 -65 28 0 67 -7 87
-15 19 -8 53 -15 75 -15 21 0 55 -7 75 -15 22 -9 67 -15 120 -15 52 0 97 -6
120 -15 19 -8 60 -15 90 -15 29 0 70 -7 90 -15 20 -8 66 -15 105 -15 l70 0 65
-30 64 -30 115 0 c79 0 126 -5 151 -15 45 -19 81 -19 128 1 l38 16 41 -16 c58
-22 347 -23 399 -1 26 11 73 15 165 15 93 0 140 4 165 15 20 8 52 15 72 15 19
0 82 16 139 35 58 19 124 35 146 35 55 0 141 26 179 53 165 121 221 180 221
232 0 16 55 55 77 55 19 0 122 -69 173 -115 25 -22 58 -49 75 -60 54 -34 214
-181 254 -235 13 -17 41 -42 61 -55 23 -15 60 -57 93 -107 30 -46 89 -116 130
-155 l75 -73 42 0 c33 0 48 6 71 29 16 16 29 39 29 51 0 27 -41 103 -85 158
l-35 44 0 87 0 88 40 55 c55 77 89 91 225 95 147 4 206 8 232 17 13 4 36 1 58
-9 21 -8 61 -15 89 -15 28 0 71 -6 96 -14 60 -19 125 -35 182 -46 26 -5 56
-13 67 -19 11 -6 38 -11 61 -11 22 0 57 -7 77 -15 19 -8 47 -15 61 -15 27 0
163 -62 180 -82 20 -25 50 -128 57 -195 9 -82 33 -133 80 -169 19 -14 35 -35
35 -46 0 -10 29 -49 64 -87 35 -37 75 -85 89 -107 13 -22 45 -52 69 -68 25
-16 58 -48 73 -71 15 -24 48 -62 74 -84 115 -96 175 -141 191 -141 9 0 27 -12
41 -26 47 -51 224 -124 296 -124 54 1 145 34 166 62 22 29 67 155 67 189 0 15
-6 42 -14 60 -17 43 -26 128 -14 135 11 7 49 -17 102 -66 43 -39 114 -80 140
-80 8 0 24 -13 36 -30 12 -16 65 -59 120 -95 54 -36 118 -83 142 -104 42 -38
98 -71 117 -71 5 0 45 -34 87 -75 42 -41 85 -75 94 -75 9 0 21 -5 27 -11 5 -5
32 -9 59 -7 l49 3 3 43 3 44 -62 56 c-34 31 -79 67 -98 80 -20 13 -49 41 -64
63 -27 38 -90 79 -120 79 -8 0 -27 16 -41 35 -15 19 -49 46 -75 60 -68 34
-178 110 -231 160 -30 27 -60 45 -84 49 -27 5 -51 21 -84 56 -26 26 -65 57
-88 68 -22 11 -80 48 -130 81 -49 34 -96 61 -104 61 -33 1 -158 76 -238 144
-31 25 -54 36 -77 36 -23 0 -47 11 -77 35 -46 37 -130 85 -149 85 -6 0 -34 20
-62 45 -71 62 -155 105 -206 105 -23 0 -58 7 -78 15 -19 8 -47 15 -60 15 -14
0 -54 13 -90 30 -35 16 -70 30 -76 30 -7 0 -41 14 -75 30 -35 17 -80 30 -101
30 -20 0 -75 13 -121 30 -47 16 -102 30 -123 30 -21 0 -54 7 -74 15 -22 9 -67
15 -120 15 -52 0 -97 6 -120 15 -50 21 -227 20 -278 -1 l-38 -16 -41 16 c-23
9 -52 16 -64 16 -35 0 -141 -38 -217 -78 l-70 -37 -31 -58 c-17 -32 -38 -65
-47 -74 l-17 -17 -37 13 c-58 20 -113 59 -113 80 0 22 -17 37 -79 71 -26 14
-58 43 -74 68 -20 29 -47 52 -85 71 -32 16 -85 54 -120 85 -34 31 -67 56 -72
56 -5 0 -49 38 -97 84 -97 92 -153 126 -209 126 l-36 0 -40 -40 c-29 -29 -38
-45 -33 -57 4 -10 11 -38 15 -63 5 -25 15 -64 22 -88 l12 -43 -19 -36 c-11
-20 -44 -63 -74 -95 -41 -44 -61 -58 -83 -58 -15 0 -62 -17 -105 -38 -100 -49
-200 -82 -245 -82 -20 0 -52 -7 -71 -15 l-36 -15 -562 0 -561 0 -65 30 -64 30
-85 0 c-53 0 -98 6 -121 15 -19 8 -60 15 -90 15 -29 0 -70 7 -90 15 -19 8 -53
15 -75 15 -21 0 -55 7 -75 15 -22 9 -67 15 -120 15 -52 0 -97 6 -120 15 -19 8
-52 15 -72 15 -20 0 -75 13 -121 30 -47 16 -94 30 -105 30 -11 0 -40 6 -65 14
-50 16 -121 35 -160 42 -91 18 -176 52 -215 87 -27 22 -53 37 -69 37 -15 0
-43 7 -63 15 -19 8 -47 15 -60 15 -30 0 -85 25 -137 62 -21 15 -45 28 -53 28
-8 0 -44 14 -80 30 -35 17 -71 30 -79 30 -8 0 -26 11 -40 25 -20 20 -35 25
-74 25 l-50 0 0 -50z m6998 -866 c31 -15 77 -43 102 -63 25 -20 63 -49 86 -64
22 -15 55 -43 74 -62 19 -20 51 -40 72 -46 23 -6 65 -35 112 -77 41 -37 86
-75 100 -85 15 -10 30 -32 33 -49 4 -19 20 -40 48 -61 24 -18 52 -45 63 -62
24 -34 72 -169 72 -202 0 -25 -35 -53 -67 -53 -50 0 -178 51 -230 93 -30 23
-73 56 -96 72 -60 43 -225 211 -244 249 -9 17 -37 54 -63 83 -61 67 -130 193
-130 238 0 19 -4 45 -10 59 -10 27 -4 56 12 56 5 0 35 -12 66 -26z"/>
</g>
</svg>
