<?xml version="1.0" standalone="no"?>
<!DOCTYPE svg PUBLIC "-//W3C//DTD SVG 20010904//EN"
 "http://www.w3.org/TR/2001/REC-SVG-20010904/DTD/svg10.dtd">
<svg version="1.0" xmlns="http://www.w3.org/2000/svg"
 width="969.000000pt" height="210.000000pt" viewBox="0 0 969.000000 210.000000"
 preserveAspectRatio="xMidYMid meet">
<metadata>
Created by potrace 1.16, written by Peter Selinger 2001-2019
</metadata>
<g transform="translate(0.000000,210.000000) scale(0.100000,-0.100000)"
fill="#000000" stroke="none">
<path d="M8310 2090 c-8 -4 -34 -16 -58 -26 -52 -21 -61 -32 -83 -97 -23 -65
-25 -181 -4 -230 8 -20 15 -48 15 -62 0 -56 130 -254 230 -351 25 -24 59 -58
75 -74 17 -17 70 -71 118 -120 l89 -89 -10 -17 c-12 -21 -372 -144 -423 -144
-20 0 -53 -7 -72 -15 -29 -12 -85 -15 -270 -15 l-235 0 -37 -16 -38 -16 -41
16 -42 16 -247 0 c-198 0 -255 3 -284 15 -26 11 -74 15 -180 15 -105 0 -153 4
-180 15 -22 9 -67 15 -120 15 -52 0 -97 6 -120 15 -22 9 -67 15 -120 15 -52 0
-97 6 -120 15 -19 8 -60 15 -90 15 -29 0 -70 7 -90 15 -19 8 -52 15 -72 15
-20 0 -75 13 -121 30 -47 16 -102 30 -123 30 -21 0 -54 7 -74 15 -19 8 -45 15
-56 15 -11 0 -69 16 -129 36 -78 27 -117 46 -138 67 -17 17 -30 35 -30 40 0 6
-44 54 -97 109 -71 72 -107 101 -134 108 -24 7 -48 24 -68 48 -17 22 -49 46
-73 56 -24 10 -64 29 -89 42 -26 13 -58 24 -71 24 -13 0 -56 16 -97 35 -85 41
-99 42 -186 14 -48 -16 -75 -32 -100 -60 l-35 -39 0 -53 c0 -59 9 -72 70 -102
19 -9 56 -34 81 -55 25 -22 82 -55 125 -76 84 -38 98 -46 209 -105 76 -40 181
-79 216 -79 33 0 165 -67 187 -95 11 -14 32 -62 47 -107 33 -99 32 -176 -4
-226 l-22 -32 -58 0 c-32 0 -75 -7 -94 -15 -52 -22 -452 -22 -504 0 -24 10
-71 15 -150 15 l-115 0 -65 30 -64 30 -340 0 -340 0 -36 15 c-26 11 -76 15
-195 15 -118 0 -168 4 -195 15 -23 10 -69 15 -132 15 -55 0 -115 6 -141 14
-98 31 -139 39 -240 45 -58 4 -115 12 -127 19 -15 8 -94 12 -273 12 -200 0
-258 3 -287 15 -24 10 -71 15 -150 15 -78 0 -125 5 -150 15 -26 11 -75 15
-192 15 -107 0 -170 4 -201 14 -101 32 -140 39 -255 45 -66 4 -130 12 -142 19
-16 9 -93 12 -273 12 -200 0 -258 3 -287 15 -20 9 -66 15 -109 15 l-74 0 0
-40 c0 -45 4 -48 97 -79 38 -13 88 -21 128 -21 36 0 82 -7 102 -15 20 -8 66
-15 105 -15 38 0 84 -7 105 -15 20 -9 66 -15 109 -15 l73 0 11 -19 c5 -11 10
-44 10 -73 0 -42 6 -62 30 -98 16 -25 30 -53 30 -63 0 -23 79 -107 133 -141
23 -15 52 -41 62 -57 24 -36 163 -149 183 -149 20 0 81 -30 117 -56 49 -37
233 -124 260 -124 14 0 42 -7 62 -15 19 -8 62 -15 94 -15 32 0 61 -5 64 -10 8
-13 192 -13 200 0 3 5 24 10 46 10 42 0 139 29 198 60 100 51 161 165 161 300
l0 70 -36 73 c-20 39 -47 87 -61 105 -13 17 -21 37 -18 42 10 17 240 12 282
-5 22 -9 67 -15 120 -15 52 0 97 -6 120 -15 25 -11 72 -15 165 -15 92 0 139
-4 165 -15 23 -10 69 -15 135 -15 65 0 111 -5 135 -15 25 -11 72 -15 165 -15
92 0 139 -4 165 -15 27 -11 77 -15 210 -15 132 0 182 -4 210 -15 20 -8 66 -15
105 -15 38 0 84 -7 105 -15 27 -11 77 -15 210 -15 132 0 182 -4 210 -15 22 -9
68 -15 122 -15 l86 0 53 -25 c30 -14 63 -25 73 -25 32 0 74 26 102 63 14 19
50 47 79 62 75 38 83 48 107 121 16 49 21 89 21 170 0 58 5 114 10 125 l11 19
70 0 c39 0 85 -7 106 -15 19 -8 45 -15 57 -15 33 0 134 -38 175 -66 19 -13 48
-24 64 -24 15 0 44 -7 64 -15 26 -11 76 -15 195 -15 118 0 168 -4 195 -15 22
-9 67 -15 120 -15 52 0 97 -6 120 -15 23 -10 69 -15 134 -15 54 0 109 -4 123
-10 14 -5 144 -12 288 -16 186 -5 273 -11 297 -20 45 -19 591 -20 624 -2 12 6
56 15 97 19 72 7 124 18 200 42 19 6 60 14 90 18 57 8 113 21 190 45 25 8 55
14 67 14 12 0 51 14 86 30 79 36 106 38 137 5 12 -13 40 -36 62 -51 21 -15 55
-49 74 -76 33 -44 95 -88 125 -88 6 0 31 -18 55 -39 24 -21 70 -55 102 -75 31
-21 68 -53 82 -73 13 -19 42 -47 65 -60 22 -14 58 -45 81 -69 l41 -44 36 0 37
0 0 74 0 74 -53 54 c-30 29 -82 73 -116 98 -84 61 -171 126 -236 177 -29 22
-66 48 -84 57 -44 23 -170 152 -177 181 -5 19 2 35 28 68 19 23 42 56 51 74
31 60 77 217 77 263 0 44 -45 203 -74 258 -8 15 -24 36 -36 47 -12 11 -34 40
-48 65 -34 61 -70 98 -115 121 -21 11 -55 35 -75 53 -20 18 -46 38 -57 44 -32
16 -136 49 -178 55 -20 3 -50 15 -66 26 l-29 21 -89 -1 c-48 0 -95 -4 -103 -9z
m195 -170 c33 -12 101 -41 150 -65 72 -35 101 -56 140 -102 85 -97 114 -144
142 -231 l27 -84 -17 -48 c-9 -26 -17 -64 -17 -85 0 -71 -57 -145 -113 -145
-24 0 -268 239 -312 306 -20 29 -54 69 -77 88 l-41 36 -34 97 c-21 62 -33 117
-33 151 l0 53 25 24 c30 31 78 33 160 5z m-3910 -429 c65 -17 162 -72 205
-115 24 -25 50 -46 57 -46 7 0 13 -4 13 -10 0 -12 -17 -13 -24 -1 -3 5 -18 12
-33 16 -45 11 -136 57 -173 87 -19 15 -44 28 -56 28 -26 0 -76 38 -68 52 3 5
16 7 28 3 11 -3 35 -10 51 -14z m-3278 -736 c22 -9 67 -15 117 -15 65 0 99 -6
166 -30 47 -16 102 -30 123 -30 21 0 54 -7 74 -15 19 -8 53 -15 75 -15 49 0
135 -38 185 -83 21 -18 56 -45 79 -59 51 -32 74 -80 74 -150 0 -81 -23 -109
-135 -162 -52 -25 -90 -35 -147 -40 l-77 -7 -60 21 c-33 11 -68 20 -78 20 -48
0 -231 74 -301 121 -42 28 -102 65 -136 82 -33 16 -80 51 -106 76 -25 25 -67
58 -93 73 -37 22 -47 33 -47 54 0 14 -8 48 -17 74 l-17 48 12 26 12 26 130 0
c94 0 141 -4 167 -15z"/>
</g>
</svg>
