<?xml version="1.0" standalone="no"?>
<!DOCTYPE svg PUBLIC "-//W3C//DTD SVG 20010904//EN"
 "http://www.w3.org/TR/2001/REC-SVG-20010904/DTD/svg10.dtd">
<svg version="1.0" xmlns="http://www.w3.org/2000/svg"
 width="513.000000pt" height="294.000000pt" viewBox="0 0 513.000000 294.000000"
 preserveAspectRatio="xMidYMid meet">
<metadata>
Created by potrace 1.16, written by Peter Selinger 2001-2019
</metadata>
<g transform="translate(0.000000,294.000000) scale(0.100000,-0.100000)"
fill="#000000" stroke="none">
<path d="M1172 2902 l-42 -39 0 -55 c0 -40 5 -59 18 -70 23 -20 92 -39 118
-32 31 8 153 -31 194 -62 19 -14 61 -39 93 -55 51 -26 255 -207 309 -274 9
-12 36 -34 60 -49 25 -15 58 -49 75 -75 17 -26 51 -60 76 -75 24 -16 57 -49
73 -74 16 -24 45 -55 66 -68 50 -32 75 -60 105 -119 14 -27 48 -74 75 -104 27
-30 61 -77 75 -105 14 -28 47 -72 73 -97 30 -30 50 -59 55 -80 4 -19 32 -72
63 -119 79 -119 83 -128 92 -195 9 -62 22 -118 46 -195 8 -25 14 -61 14 -81 0
-20 7 -53 15 -72 26 -63 20 -180 -15 -277 -16 -47 -30 -96 -30 -110 0 -37 -25
-67 -65 -80 -27 -9 -37 -19 -42 -40 -7 -37 -37 -65 -93 -85 -47 -17 -168 -38
-210 -36 -14 1 -110 5 -215 9 -121 4 -198 12 -212 20 -12 6 -54 12 -93 12 -40
0 -86 6 -107 15 -19 8 -46 15 -60 15 -13 0 -54 18 -91 40 -36 22 -82 45 -102
50 -20 5 -44 16 -55 24 l-19 14 11 25 c7 14 28 44 48 65 l35 39 0 87 c0 85
-19 167 -56 237 -20 39 -120 109 -156 109 -16 0 -45 7 -65 15 -19 8 -60 15
-90 15 -52 0 -165 -31 -191 -53 -8 -6 -31 -46 -53 -89 l-39 -78 0 -59 0 -60
-19 -11 c-38 -20 -85 -12 -116 20 l-29 30 -70 0 c-39 0 -91 6 -116 14 -78 25
-133 37 -195 45 -34 5 -70 13 -82 19 -13 7 -67 12 -127 12 l-106 0 0 -40 c0
-28 5 -42 19 -49 33 -18 198 -65 283 -81 26 -5 56 -13 67 -19 11 -6 30 -11 43
-11 13 0 62 -13 108 -30 47 -16 94 -30 105 -30 12 0 59 -13 105 -30 47 -16 96
-30 110 -30 14 0 54 -14 88 -30 35 -17 76 -30 90 -30 38 0 149 -55 203 -100
33 -28 75 -48 153 -74 58 -20 116 -36 128 -36 12 0 36 -13 53 -28 37 -34 169
-76 290 -91 34 -5 70 -13 82 -19 14 -8 81 -12 187 -12 99 0 167 -4 171 -10 8
-13 102 -13 110 0 3 6 38 10 76 10 112 0 247 53 295 115 14 19 35 35 45 35 25
0 86 56 109 99 10 20 41 105 69 189 l51 153 0 125 0 125 -45 132 c-25 73 -45
150 -45 170 0 25 -17 71 -49 135 -67 136 -302 483 -357 529 -25 21 -44 46 -44
57 0 12 -33 52 -80 98 -44 43 -89 96 -100 118 -11 22 -38 51 -60 65 -22 14
-51 42 -64 64 -14 21 -39 49 -56 62 -41 30 -88 78 -118 118 -13 17 -47 47 -77
66 -29 20 -72 60 -94 90 -25 33 -49 55 -61 55 -19 0 -70 63 -70 87 0 20 239
18 287 -2 19 -8 52 -15 72 -15 47 0 232 -63 279 -95 l37 -25 70 0 c72 0 171
-27 254 -69 22 -12 51 -21 64 -21 12 0 61 -13 107 -30 47 -16 96 -30 110 -30
14 0 45 -14 70 -30 25 -16 52 -30 60 -30 8 0 40 -12 70 -26 30 -14 96 -39 145
-55 50 -16 112 -45 139 -64 27 -19 57 -35 65 -35 9 0 43 -13 77 -29 34 -16 75
-32 92 -36 17 -3 50 -23 74 -44 24 -21 55 -41 70 -44 14 -4 50 -29 80 -56 29
-26 76 -60 103 -75 73 -39 184 -114 252 -169 32 -26 69 -50 83 -54 13 -3 50
-31 80 -62 31 -31 77 -71 103 -89 26 -18 61 -53 79 -79 18 -26 51 -64 72 -86
97 -98 166 -196 166 -236 0 -6 11 -34 24 -63 54 -116 66 -167 66 -281 0 -124
-12 -160 -79 -241 -32 -37 -41 -57 -41 -86 0 -42 24 -70 59 -70 49 0 154 128
175 214 4 17 16 42 27 57 l19 27 0 120 c0 67 -4 123 -9 126 -5 3 -11 23 -14
43 -6 42 -19 94 -49 193 -14 46 -31 77 -62 110 -23 25 -51 59 -61 75 -10 17
-57 71 -104 121 -47 50 -102 108 -121 130 -41 45 -137 127 -189 162 -20 13
-54 41 -76 62 -22 21 -60 48 -85 60 -25 12 -65 39 -90 60 -25 21 -87 59 -138
84 -51 26 -109 61 -130 80 -20 18 -61 45 -90 60 -29 15 -70 42 -91 61 -21 19
-44 35 -51 35 -13 0 -129 48 -182 76 -69 35 -86 43 -138 64 -30 12 -98 37
-151 55 -52 18 -123 47 -156 63 -67 34 -173 72 -201 72 -10 0 -56 13 -102 30
-47 16 -96 30 -110 30 -14 0 -50 12 -80 26 -83 39 -165 64 -207 64 -25 0 -53
10 -83 30 -31 21 -57 30 -85 30 -22 0 -60 6 -85 14 -78 25 -133 37 -195 45
-34 5 -70 13 -82 19 -12 7 -54 12 -93 12 -40 0 -86 6 -107 15 -25 11 -73 15
-169 15 -78 0 -135 4 -139 10 -3 6 -48 10 -99 10 l-93 0 -41 -38z m106 -2159
c11 -16 30 -50 42 -78 l23 -50 -14 -25 c-19 -34 -94 -70 -145 -70 l-42 0 -37
50 c-20 27 -44 75 -52 106 l-17 57 23 18 23 19 88 0 89 0 19 -27z"/>
</g>
</svg>
