<?xml version="1.0" standalone="no"?>
<!DOCTYPE svg PUBLIC "-//W3C//DTD SVG 20010904//EN"
 "http://www.w3.org/TR/2001/REC-SVG-20010904/DTD/svg10.dtd">
<svg version="1.0" xmlns="http://www.w3.org/2000/svg"
 width="489.000000pt" height="195.000000pt" viewBox="0 0 489.000000 195.000000"
 preserveAspectRatio="xMidYMid meet">
<metadata>
Created by potrace 1.16, written by Peter Selinger 2001-2019
</metadata>
<g transform="translate(0.000000,195.000000) scale(0.100000,-0.100000)"
fill="#000000" stroke="none">
<path d="M3483 1930 c-7 -10 -30 -24 -51 -30 -50 -13 -66 -31 -91 -107 -26
-76 -29 -212 -6 -266 8 -20 15 -49 15 -64 0 -28 46 -103 108 -179 18 -22 37
-55 42 -75 6 -21 29 -55 52 -78 50 -50 43 -69 -20 -51 l-40 13 -46 -18 c-35
-14 -59 -16 -108 -10 -74 8 -133 12 -328 23 -81 4 -155 13 -167 20 -16 9 -111
12 -363 12 l-341 0 -36 15 c-28 12 -84 15 -270 15 -185 0 -241 3 -270 15 -19
8 -53 15 -75 15 -21 0 -55 7 -75 15 -19 8 -60 15 -91 15 l-55 0 -124 60 c-69
33 -136 60 -151 60 -14 0 -38 12 -53 26 -37 35 -208 93 -277 94 -29 0 -69 7
-89 15 -26 11 -74 15 -182 15 l-146 -1 -100 -34 c-104 -35 -125 -51 -125 -96
0 -15 -4 -31 -10 -34 -21 -13 -11 -71 18 -97 36 -34 49 -40 175 -82 l107 -36
215 0 c169 0 223 -3 252 -15 24 -10 71 -15 150 -15 78 0 125 -5 150 -15 19 -8
48 -15 63 -15 15 0 45 -13 66 -30 21 -16 60 -44 85 -61 29 -20 64 -59 93 -103
72 -112 61 -149 -56 -187 -40 -12 -81 -29 -90 -37 -39 -33 -12 -81 63 -112
l31 -13 46 16 c26 10 64 17 85 17 54 0 70 11 121 88 52 77 57 111 25 173 -25
49 -70 181 -64 187 10 10 309 0 334 -11 18 -8 175 -14 526 -18 504 -7 533 -8
660 -28 163 -25 233 -30 464 -30 l243 -1 72 -35 c102 -51 207 -119 229 -149
10 -14 43 -42 72 -61 29 -20 73 -53 98 -75 25 -22 52 -40 61 -40 9 0 32 -24
51 -54 24 -38 55 -68 104 -101 40 -26 83 -64 99 -88 19 -30 39 -46 67 -55 50
-16 80 -49 98 -110 8 -26 25 -64 38 -84 l24 -38 50 3 50 2 3 95 3 95 -61 69
c-34 37 -72 85 -84 105 -13 20 -31 43 -41 51 -9 8 -37 40 -62 72 -26 34 -52
58 -63 58 -10 0 -28 14 -40 31 -12 16 -40 41 -61 55 -22 13 -64 46 -94 72 -30
26 -82 67 -115 92 -95 70 -120 91 -120 101 0 17 83 49 128 49 55 0 172 58 230
113 24 23 55 63 68 89 l24 47 0 91 0 90 -40 80 c-23 47 -53 89 -71 102 -17 13
-42 42 -56 65 -14 24 -54 64 -93 93 -37 27 -74 57 -81 66 -21 25 -117 70 -235
108 -60 20 -117 41 -126 46 -10 6 -101 10 -210 10 l-193 0 -12 -20z m324 -155
c19 -8 45 -15 57 -15 28 0 125 -33 205 -71 45 -21 86 -52 140 -107 108 -110
161 -177 161 -205 0 -14 7 -41 15 -62 18 -42 9 -84 -26 -130 -24 -29 -96 -65
-132 -65 -14 0 -41 -7 -60 -15 -25 -10 -71 -15 -147 -15 l-111 0 -44 20 c-24
11 -52 32 -62 47 -10 15 -50 58 -89 97 -40 39 -84 89 -98 111 -14 22 -40 57
-58 78 l-33 39 -3 106 c-4 119 6 154 56 185 36 22 178 23 229 2z m-3275 -449
c18 -8 47 -19 63 -26 l30 -12 -20 -9 c-32 -12 -88 -10 -115 6 -14 8 -45 15
-70 15 -25 1 -54 5 -65 9 l-19 8 19 11 c28 16 138 15 177 -2z"/>
</g>
</svg>
