<?xml version="1.0" standalone="no"?>
<!DOCTYPE svg PUBLIC "-//W3C//DTD SVG 20010904//EN"
 "http://www.w3.org/TR/2001/REC-SVG-20010904/DTD/svg10.dtd">
<svg version="1.0" xmlns="http://www.w3.org/2000/svg"
 width="348.000000pt" height="195.000000pt" viewBox="0 0 348.000000 195.000000"
 preserveAspectRatio="xMidYMid meet">
<metadata>
Created by potrace 1.16, written by Peter Selinger 2001-2019
</metadata>
<g transform="translate(0.000000,195.000000) scale(0.100000,-0.100000)"
fill="#000000" stroke="none">
<path d="M2105 1940 c-3 -5 -20 -10 -36 -10 -38 0 -116 -40 -151 -77 -26 -28
-68 -134 -68 -173 0 -30 37 -134 72 -204 42 -83 81 -138 161 -225 37 -40 67
-77 67 -82 0 -4 27 -38 60 -76 33 -37 60 -71 60 -76 0 -4 -19 -17 -42 -27
l-43 -20 -116 0 c-81 0 -128 -5 -152 -15 -23 -9 -68 -15 -120 -15 -53 0 -98
-6 -120 -15 -24 -10 -70 -15 -135 -15 -66 0 -112 -5 -135 -15 l-36 -15 -339 0
-340 0 -35 -15 c-20 -8 -61 -15 -90 -15 -30 0 -71 -7 -90 -15 -21 -8 -67 -15
-105 -15 -39 0 -85 -7 -105 -15 -21 -9 -67 -15 -110 -15 l-74 0 -41 -30 c-52
-38 -57 -72 -12 -95 39 -20 194 -21 243 0 27 11 77 15 197 15 106 0 169 4 183
12 12 7 67 16 122 20 114 10 114 10 253 2 81 -5 111 -3 143 10 27 11 71 16
138 16 65 0 111 5 134 15 25 10 72 15 150 15 79 0 126 5 150 15 26 11 73 15
165 15 93 0 140 4 165 15 28 11 79 15 213 15 l176 0 47 -47 c60 -60 153 -140
200 -171 20 -13 54 -41 76 -61 22 -21 52 -45 68 -54 15 -10 38 -35 52 -57 14
-22 39 -46 55 -55 17 -9 61 -44 98 -78 37 -35 79 -71 95 -80 15 -10 37 -34 50
-54 13 -21 49 -52 83 -72 38 -23 64 -47 74 -68 l15 -33 53 0 52 0 0 48 0 47
-40 39 c-22 21 -40 42 -40 47 0 15 -54 71 -92 95 -21 13 -49 42 -63 64 -15 23
-43 49 -67 61 -24 12 -65 46 -93 77 -27 30 -67 63 -88 73 -21 11 -68 50 -105
87 -37 37 -98 95 -137 128 l-70 61 14 17 c7 9 24 16 38 16 34 0 282 125 320
162 50 48 105 250 84 308 -6 18 -11 50 -11 72 0 61 -70 192 -120 223 -22 14
-65 48 -95 75 -30 28 -63 50 -73 50 -9 0 -34 11 -55 25 -94 64 -306 155 -361
155 -14 0 -28 5 -31 10 -4 6 -63 10 -145 10 -82 0 -141 -4 -145 -10z m202
-135 c19 -8 47 -15 60 -15 14 0 54 -13 90 -30 35 -16 69 -30 74 -30 12 0 112
-58 227 -132 119 -75 172 -149 172 -236 0 -22 7 -56 16 -77 l15 -37 -17 -52
c-10 -28 -22 -56 -27 -63 -19 -26 -192 -103 -232 -103 -22 0 -58 -7 -81 -16
l-41 -16 -46 21 c-44 20 -77 48 -147 127 -19 21 -46 48 -60 60 -46 38 -122
138 -152 199 -17 33 -41 75 -55 93 -39 52 -53 97 -53 171 l0 71 27 17 c33 22
140 61 171 62 12 1 39 -6 59 -14z"/>
</g>
</svg>
