<?xml version="1.0" standalone="no"?>
<!DOCTYPE svg PUBLIC "-//W3C//DTD SVG 20010904//EN"
 "http://www.w3.org/TR/2001/REC-SVG-20010904/DTD/svg10.dtd">
<svg version="1.0" xmlns="http://www.w3.org/2000/svg"
 width="1005.000000pt" height="270.000000pt" viewBox="0 0 1005.000000 270.000000"
 preserveAspectRatio="xMidYMid meet">
<metadata>
Created by potrace 1.16, written by Peter Selinger 2001-2019
</metadata>
<g transform="translate(0.000000,270.000000) scale(0.100000,-0.100000)"
fill="#000000" stroke="none">
<path d="M155 2681 c-3 -10 -35 -48 -70 -84 l-65 -66 0 -50 c0 -27 -5 -53 -10
-56 -6 -3 -10 -35 -10 -70 l0 -63 58 -56 c31 -31 77 -76 102 -100 25 -24 61
-51 80 -61 19 -9 56 -35 82 -57 26 -21 96 -64 155 -94 60 -31 133 -71 163 -90
30 -19 66 -37 80 -41 14 -3 46 -18 71 -34 25 -16 52 -29 60 -29 8 0 34 -14 59
-30 25 -16 51 -30 58 -30 8 0 41 -13 75 -28 34 -16 75 -32 91 -36 42 -10 86
-44 86 -65 0 -10 8 -25 18 -34 l19 -17 158 0 158 0 181 -59 c230 -75 255 -81
346 -90 41 -4 85 -13 97 -19 12 -7 39 -12 60 -12 22 0 77 -13 123 -30 l85 -30
98 0 c64 0 110 -5 134 -15 19 -8 46 -15 59 -15 13 0 42 -7 65 -17 l41 -16 50
18 c51 18 64 18 238 -4 41 -6 260 -10 486 -10 l412 -1 35 15 c23 9 68 15 121
15 l85 0 64 30 c36 16 76 30 89 30 12 0 61 14 108 30 53 19 104 30 137 30 37
0 69 8 106 26 28 14 75 29 102 35 28 5 61 11 75 14 19 5 37 -3 73 -32 132
-106 389 -283 470 -324 23 -12 56 -32 72 -44 47 -36 112 -65 142 -65 15 0 48
-14 73 -30 25 -17 58 -30 75 -30 20 0 59 -19 113 -55 103 -68 179 -95 270 -95
l70 0 27 -35 c16 -22 56 -50 105 -75 l80 -40 68 0 c50 0 90 -8 152 -30 53 -18
105 -30 138 -30 29 0 69 -7 89 -15 49 -21 62 -19 113 15 l45 30 68 0 c76 0
167 26 227 66 l39 26 90 -31 c63 -22 108 -31 152 -31 42 0 93 -10 154 -29 134
-43 172 -52 255 -60 41 -4 85 -13 97 -19 12 -7 60 -12 108 -12 53 0 99 -6 122
-15 48 -20 198 -20 246 0 20 8 52 15 72 15 20 0 78 15 131 32 l94 33 49 -18
c27 -9 59 -17 71 -17 13 0 44 -13 69 -29 25 -16 58 -31 73 -35 14 -3 51 -28
80 -55 30 -28 87 -66 126 -86 40 -20 109 -61 153 -91 45 -31 94 -60 109 -64
41 -12 157 -91 171 -117 l12 -23 69 0 68 0 0 48 0 49 -48 40 c-49 42 -121 83
-145 83 -7 0 -24 12 -38 26 -26 28 -89 64 -113 64 -8 0 -24 13 -36 30 -23 33
-148 120 -172 120 -8 0 -34 14 -58 31 -46 34 -150 136 -150 148 0 4 22 32 49
62 26 30 65 87 85 126 l36 73 0 85 c0 169 -74 317 -255 512 -69 74 -187 163
-216 163 -8 0 -52 25 -97 55 -129 86 -152 95 -231 95 -42 0 -87 7 -112 17
l-41 16 -47 -16 c-25 -10 -66 -17 -90 -17 l-44 0 -44 -44 -44 -44 4 -149 c2
-81 9 -168 16 -193 57 -198 63 -208 288 -439 122 -124 166 -163 219 -191 36
-19 69 -41 72 -49 8 -20 -44 -61 -77 -61 -16 0 -45 -7 -64 -15 -49 -20 -215
-20 -264 0 -23 10 -69 15 -135 15 -65 0 -111 5 -135 15 -19 8 -52 15 -71 15
-20 0 -96 20 -169 45 -90 31 -149 45 -185 45 -71 0 -134 32 -171 88 -33 49
-108 92 -161 92 -47 0 -99 -46 -136 -121 -35 -69 -61 -89 -116 -89 -23 0 -58
-7 -77 -15 -46 -19 -98 -19 -144 0 -19 8 -53 15 -75 15 -21 0 -55 7 -75 15
-19 8 -59 15 -87 15 -59 0 -152 30 -205 66 -19 13 -42 24 -51 24 -8 0 -44 14
-78 30 -35 17 -73 30 -85 30 -27 0 -144 39 -178 59 -14 9 -50 31 -80 49 -30
17 -70 37 -90 42 -20 5 -73 28 -118 50 -45 22 -87 40 -93 40 -25 0 -206 95
-248 130 -25 20 -68 49 -97 63 -52 27 -218 172 -240 211 -18 30 -16 43 12 84
l25 37 0 106 c0 72 -5 118 -15 142 -8 20 -15 50 -15 67 0 24 -14 46 -64 99
-35 37 -75 86 -90 109 -35 55 -51 62 -147 62 l-82 0 -43 -44 -44 -43 0 -175 0
-175 31 -43 c37 -51 99 -177 99 -201 0 -31 -57 -69 -105 -69 -23 0 -59 -7 -78
-15 -20 -8 -54 -15 -75 -15 -22 0 -56 -7 -75 -15 -20 -8 -47 -15 -61 -15 -14
0 -54 -14 -89 -30 l-65 -30 -70 0 c-40 0 -85 -7 -106 -15 l-37 -16 -412 5
c-227 3 -439 7 -472 10 -33 3 -92 8 -132 12 -55 5 -82 2 -116 -11 l-44 -17
-38 16 c-20 9 -55 16 -77 16 -21 0 -55 7 -75 15 -19 8 -65 15 -102 15 -36 0
-86 6 -111 14 -87 28 -136 38 -210 45 -41 4 -85 13 -97 19 -12 7 -52 12 -90
12 l-68 0 -189 64 c-109 37 -192 70 -198 79 -5 11 -3 29 7 53 20 47 20 170 0
217 -8 20 -15 50 -15 66 0 22 -14 46 -55 92 -31 34 -58 74 -62 88 -3 14 -26
47 -52 72 -25 25 -57 60 -70 78 -13 18 -42 44 -64 58 -22 14 -70 53 -106 87
-45 41 -90 72 -141 95 -83 37 -111 51 -185 92 -27 16 -64 29 -82 29 -17 0 -35
5 -38 10 -4 6 -113 10 -295 10 l-289 0 -6 -19z m472 -126 c19 -8 52 -15 72
-15 50 0 178 -45 226 -79 22 -16 64 -40 93 -55 62 -32 206 -165 257 -240 20
-28 49 -69 65 -90 17 -21 30 -45 30 -52 0 -7 13 -41 30 -76 16 -34 30 -75 30
-89 0 -15 7 -43 15 -62 20 -48 19 -50 -12 -87 l-26 -32 -41 6 c-23 4 -83 27
-135 51 -51 25 -97 45 -103 45 -5 0 -39 14 -75 30 -35 17 -70 30 -76 30 -7 0
-25 9 -42 21 -49 33 -177 96 -212 103 -17 4 -51 25 -75 46 -24 21 -86 59 -138
85 -52 26 -115 64 -139 84 -25 19 -61 46 -80 60 -67 45 -100 109 -101 193 l0
58 27 17 c15 10 54 28 87 40 77 27 266 32 323 8z m4274 -527 c39 -29 61 -65
70 -113 4 -22 13 -59 20 -82 l13 -42 -17 -36 c-9 -19 -23 -35 -30 -35 -17 0
-45 31 -85 96 l-32 51 0 76 c0 113 8 124 61 85z m3646 -373 c22 -9 68 -15 121
-15 l85 0 64 -31 c35 -17 74 -45 86 -61 12 -17 45 -46 74 -64 71 -48 180 -165
191 -207 5 -19 26 -57 45 -86 64 -93 70 -205 18 -318 -37 -80 -60 -105 -111
-123 l-35 -12 -37 16 c-20 9 -70 47 -112 86 -45 42 -84 70 -97 70 -13 0 -39
18 -63 44 -23 24 -52 46 -66 49 -37 9 -102 69 -144 131 -20 30 -49 64 -64 74
-19 14 -33 40 -47 84 -10 34 -32 90 -47 123 -33 70 -35 123 -9 181 32 71 77
89 148 59z"/>
</g>
</svg>
