<?xml version="1.0" standalone="no"?>
<!DOCTYPE svg PUBLIC "-//W3C//DTD SVG 20010904//EN"
 "http://www.w3.org/TR/2001/REC-SVG-20010904/DTD/svg10.dtd">
<svg version="1.0" xmlns="http://www.w3.org/2000/svg"
 width="978.000000pt" height="219.000000pt" viewBox="0 0 978.000000 219.000000"
 preserveAspectRatio="xMidYMid meet">
<metadata>
Created by potrace 1.16, written by Peter Selinger 2001-2019
</metadata>
<g transform="translate(0.000000,219.000000) scale(0.100000,-0.100000)"
fill="#000000" stroke="none">
<path d="M455 2180 c-3 -5 -32 -10 -65 -10 l-58 0 -43 -36 c-41 -34 -194 -114
-218 -114 -7 0 -25 -7 -41 -15 l-30 -16 0 -54 0 -54 30 -16 c41 -21 59 -19
110 15 25 16 51 30 58 30 22 0 86 37 111 64 19 20 34 26 67 26 23 0 58 7 77
15 27 11 76 15 192 15 116 0 165 -4 192 -15 19 -8 58 -15 86 -15 32 0 99 -16
186 -44 145 -47 199 -62 271 -76 25 -5 69 -20 97 -34 29 -14 58 -26 64 -26 18
0 81 -32 123 -62 21 -15 50 -28 64 -28 59 0 152 -43 213 -96 33 -30 67 -54 76
-54 33 0 161 -69 213 -116 30 -27 67 -58 83 -67 15 -10 38 -35 52 -57 14 -23
43 -49 67 -61 43 -22 66 -43 146 -137 l45 -53 -14 -15 -15 -14 -84 30 c-53 18
-105 30 -138 30 -29 0 -69 7 -89 15 -19 8 -64 15 -99 15 l-64 0 -39 -36 c-29
-25 -44 -51 -55 -88 l-16 -53 30 -92 c40 -123 53 -146 120 -216 31 -33 68 -78
82 -100 14 -22 45 -53 70 -69 24 -15 59 -49 76 -76 21 -31 49 -58 85 -78 29
-16 65 -46 80 -66 16 -20 40 -39 55 -42 15 -4 47 -19 72 -34 25 -15 59 -31 76
-35 18 -3 51 -22 74 -42 55 -47 211 -102 292 -103 31 0 60 -4 63 -10 3 -5 27
-10 53 -10 36 0 50 5 59 20 7 10 30 24 51 30 22 5 54 20 73 33 l34 23 3 106 3
107 -21 62 c-28 82 -45 115 -90 169 -21 25 -48 65 -60 90 -13 25 -31 58 -42
73 l-20 28 12 14 c19 23 67 18 160 -15 47 -16 102 -30 123 -30 21 0 54 -7 74
-15 19 -8 53 -15 75 -15 21 0 55 -7 75 -15 19 -8 60 -15 90 -15 29 0 70 -7 90
-15 19 -8 52 -15 72 -15 20 0 56 -6 81 -14 87 -28 136 -38 210 -45 41 -4 86
-13 99 -20 16 -9 43 -11 85 -7 34 4 72 7 86 6 14 0 124 -4 245 -8 145 -5 227
-11 242 -19 14 -9 63 -13 138 -13 80 0 127 -5 152 -15 l35 -15 358 0 358 0 35
15 c24 10 70 15 135 15 66 0 112 5 135 15 26 11 73 15 166 15 l130 0 53 25
c29 13 88 36 131 50 115 37 132 48 244 155 112 109 145 124 191 94 16 -11 56
-21 97 -25 162 -16 210 -26 249 -53 29 -19 52 -26 90 -26 28 -1 62 -7 76 -15
14 -7 36 -11 50 -8 17 3 40 -4 65 -19 l40 -23 380 -3 c209 -1 390 -5 402 -7
12 -3 46 -27 76 -55 29 -27 90 -67 134 -89 44 -22 105 -62 134 -89 30 -27 72
-58 94 -70 64 -32 266 -170 310 -211 22 -21 73 -59 113 -86 41 -26 76 -54 79
-61 3 -9 20 -14 44 -14 l39 0 0 61 0 61 -91 87 c-50 47 -108 94 -128 105 -74
38 -178 112 -243 173 -37 35 -75 63 -84 63 -9 0 -35 19 -58 42 -23 24 -70 63
-104 86 -40 28 -64 53 -69 70 l-6 25 37 31 c118 100 146 130 157 170 6 22 22
62 35 88 35 69 32 134 -12 265 l-35 108 -112 113 c-116 117 -208 188 -262 203
-17 5 -49 24 -71 43 -38 32 -173 106 -194 106 -6 0 -36 11 -66 25 -145 67
-235 81 -289 45 -16 -11 -38 -20 -49 -20 -10 0 -41 -12 -70 -27 -28 -14 -58
-29 -66 -33 -8 -4 -25 -24 -37 -46 l-23 -39 0 -123 0 -123 21 -42 c12 -23 39
-62 59 -87 21 -25 49 -68 63 -96 14 -27 33 -57 43 -65 9 -8 40 -43 69 -79 29
-36 104 -121 169 -189 64 -68 116 -130 116 -138 l0 -14 -212 4 c-223 5 -320
15 -340 35 -7 7 -29 12 -50 12 -20 0 -52 6 -70 14 -73 30 -104 39 -136 37 -21
-1 -47 8 -70 24 l-37 25 -90 0 -90 1 -40 24 c-22 14 -49 25 -60 25 -11 0 -36
13 -55 29 -46 37 -94 61 -122 61 -73 -1 -157 -101 -158 -189 0 -76 -51 -134
-161 -185 -113 -52 -169 -66 -270 -66 -63 0 -109 -5 -132 -15 -24 -10 -70 -15
-135 -15 -79 0 -109 -4 -147 -21 -35 -16 -58 -19 -89 -15 -28 5 -54 1 -79 -9
-51 -21 -213 -20 -268 2 l-41 16 -48 -17 -48 -17 -37 15 c-28 12 -74 16 -182
16 -105 0 -153 4 -180 15 -22 9 -67 15 -120 15 -52 0 -97 6 -120 15 l-35 15
-262 0 c-197 0 -272 3 -306 14 -87 28 -136 38 -210 45 -41 4 -85 13 -97 19
-12 7 -39 12 -60 12 -22 0 -77 13 -123 30 -68 24 -102 30 -168 30 -50 0 -97 6
-119 15 -19 8 -45 15 -56 15 -12 0 -81 20 -154 45 -103 35 -141 44 -171 39
-21 -3 -57 -1 -81 6 l-44 11 -141 138 c-77 75 -172 162 -211 193 -38 31 -110
97 -160 148 -85 87 -146 129 -207 144 -15 3 -39 22 -54 42 -15 19 -44 44 -64
54 -48 24 -168 105 -200 135 -25 24 -222 95 -262 95 -11 0 -60 18 -107 41
-108 51 -191 79 -233 79 -18 0 -73 13 -123 29 -103 33 -160 49 -227 61 -26 5
-56 13 -67 19 -11 6 -60 11 -110 11 -49 0 -93 5 -96 10 -4 6 -63 10 -145 10
-82 0 -141 -4 -145 -10z m7900 -381 c33 -11 84 -31 113 -45 29 -13 65 -24 81
-24 32 0 87 -37 146 -99 22 -23 55 -46 75 -51 45 -13 61 -26 94 -75 14 -22 45
-54 69 -70 23 -17 52 -51 65 -75 l22 -44 0 -134 0 -134 -31 -27 c-40 -36 -74
-70 -110 -110 l-27 -31 -44 0 c-24 0 -55 7 -68 17 -32 21 -117 94 -154 131
-37 38 -111 112 -148 148 -121 120 -240 282 -264 359 -7 25 -24 61 -38 82 -50
73 -23 133 84 185 46 23 64 22 135 -3z m-5928 -864 c19 -8 53 -15 75 -15 21 0
55 -7 75 -15 19 -8 47 -15 60 -15 14 0 54 -13 90 -30 35 -16 76 -30 91 -31 15
0 54 -11 87 -23 59 -22 67 -30 94 -98 5 -14 32 -41 58 -58 57 -38 89 -80 109
-146 8 -27 25 -60 38 -74 47 -52 56 -73 56 -138 0 -35 -5 -72 -10 -83 -12 -21
-44 -25 -86 -9 -19 7 -37 7 -60 0 l-33 -11 -66 30 c-37 17 -72 31 -79 31 -7 0
-31 13 -52 30 -21 16 -82 59 -135 94 -124 85 -342 304 -357 360 -6 21 -23 53
-37 72 -40 52 -58 101 -45 124 13 25 74 27 127 5z"/>
</g>
</svg>
