<?xml version="1.0" standalone="no"?>
<!DOCTYPE svg PUBLIC "-//W3C//DTD SVG 20010904//EN"
 "http://www.w3.org/TR/2001/REC-SVG-20010904/DTD/svg10.dtd">
<svg version="1.0" xmlns="http://www.w3.org/2000/svg"
 width="777.000000pt" height="315.000000pt" viewBox="0 0 777.000000 315.000000"
 preserveAspectRatio="xMidYMid meet">
<metadata>
Created by potrace 1.16, written by Peter Selinger 2001-2019
</metadata>
<g transform="translate(0.000000,315.000000) scale(0.100000,-0.100000)"
fill="#000000" stroke="none">
<path d="M6017 3087 c-32 -72 -37 -180 -12 -240 8 -20 15 -51 15 -68 0 -25 11
-42 49 -79 27 -26 57 -63 66 -81 10 -19 37 -54 60 -79 23 -25 50 -59 61 -75
29 -46 100 -137 126 -163 52 -50 93 -92 190 -195 57 -60 121 -121 143 -136 51
-34 55 -55 14 -77 l-32 -16 -37 11 c-21 6 -88 11 -149 11 -77 0 -123 5 -148
15 -19 8 -53 15 -75 15 -21 0 -55 7 -75 15 -19 8 -60 15 -90 15 -29 0 -70 7
-90 15 -19 8 -45 15 -57 15 -27 0 -215 63 -284 95 -35 17 -70 25 -107 25 -75
0 -96 10 -168 85 l-63 65 -58 0 -59 0 -43 -44 -44 -43 0 -41 c0 -29 7 -49 26
-71 38 -46 155 -121 188 -121 37 0 85 -23 176 -86 41 -28 90 -59 108 -68 34
-18 90 -69 269 -249 180 -179 231 -235 249 -269 9 -18 39 -58 67 -88 48 -53
86 -118 87 -150 0 -8 27 -55 60 -105 36 -53 60 -100 60 -116 0 -15 7 -43 15
-62 8 -20 15 -56 15 -79 0 -31 8 -56 30 -88 l30 -45 0 -86 0 -86 -19 -24 c-28
-36 -85 -54 -122 -39 -39 17 -116 123 -135 186 l-15 51 -68 67 -69 66 -54 0
c-76 0 -88 -15 -88 -111 l0 -74 -75 -66 c-74 -65 -163 -109 -224 -109 -23 0
-88 -30 -131 -60 -31 -22 -136 -60 -166 -60 -12 0 -38 -7 -57 -15 -27 -11 -75
-15 -180 -15 -106 0 -154 -4 -180 -15 l-36 -15 -666 0 -666 0 -36 15 c-26 11
-75 15 -192 15 -107 0 -170 4 -201 14 -58 18 -124 35 -175 45 -22 4 -56 12
-75 18 -69 22 -126 35 -185 42 -34 5 -70 13 -82 19 -12 7 -53 12 -90 12 -79 0
-148 21 -271 81 -87 44 -118 75 -128 131 -10 63 -46 167 -63 182 -29 26 -220
116 -246 116 -14 0 -42 7 -62 15 -45 19 -81 19 -126 0 -20 -8 -49 -15 -65 -15
-32 0 -50 -17 -77 -69 -19 -38 -17 -116 5 -167 20 -47 9 -64 -45 -64 -25 0
-62 7 -82 15 -20 8 -66 15 -104 15 -37 0 -80 5 -95 10 -19 7 -37 7 -60 0 -25
-9 -40 -8 -69 5 -24 9 -68 15 -122 15 -52 0 -97 6 -120 15 -24 10 -71 15 -150
15 -78 0 -125 5 -150 15 -19 8 -52 15 -72 15 -20 0 -56 6 -81 14 -74 23 -132
37 -190 46 -30 4 -71 11 -91 15 -22 4 -45 3 -58 -4 l-21 -12 0 -54 0 -55 23 0
c13 0 61 -13 107 -30 47 -16 102 -30 123 -30 21 0 54 -7 74 -15 19 -8 52 -15
72 -15 20 0 56 -6 81 -14 101 -32 140 -39 255 -45 66 -3 127 -11 135 -16 14
-9 119 -21 265 -30 120 -7 230 -22 252 -33 12 -7 47 -12 78 -12 30 0 72 -7 92
-15 22 -9 67 -15 120 -15 52 0 97 -6 120 -15 25 -11 72 -15 165 -15 l130 0 65
-30 c35 -16 69 -30 74 -30 6 0 35 -11 65 -25 112 -51 169 -65 269 -65 62 0
108 -5 132 -15 19 -8 53 -15 75 -15 21 0 55 -7 75 -15 19 -8 59 -15 87 -15 32
0 84 -11 136 -30 l85 -30 87 0 c48 0 90 -4 93 -10 9 -14 1871 -14 1880 0 3 6
32 10 64 10 32 0 75 7 94 15 20 8 56 15 79 15 29 0 55 8 79 24 49 34 145 66
194 66 28 0 54 9 85 30 25 16 50 30 57 30 6 0 53 20 105 45 51 25 106 45 121
45 29 0 55 -23 105 -88 44 -60 211 -152 275 -152 8 0 41 21 75 48 33 26 72 55
86 65 14 9 29 33 35 52 5 19 18 47 29 63 32 44 62 146 62 209 l0 58 -30 45
c-16 25 -30 50 -30 57 0 6 -13 40 -30 75 -16 34 -30 73 -30 86 0 26 -34 132
-57 177 -9 16 -31 48 -50 69 -18 22 -38 56 -43 76 -6 21 -30 55 -60 85 -28 28
-63 68 -78 90 -14 22 -45 61 -68 86 -23 25 -53 63 -67 85 -13 21 -88 101 -166
177 l-142 139 12 14 c15 18 60 18 106 -1 20 -8 66 -15 105 -15 38 0 84 -7 105
-15 20 -8 66 -15 105 -15 39 0 84 -7 105 -15 29 -12 76 -15 232 -14 l196 2 34
20 34 21 38 -22 c21 -12 44 -22 52 -22 7 0 28 -18 45 -40 21 -25 46 -43 69
-49 21 -6 54 -29 78 -53 50 -52 145 -133 194 -166 20 -13 74 -61 121 -107 90
-88 149 -125 200 -125 l30 0 0 56 0 56 -87 95 c-48 52 -100 101 -115 109 -16
8 -59 43 -96 77 -37 34 -86 75 -109 91 -23 16 -63 51 -89 78 l-46 49 6 32 c9
44 53 107 75 107 29 0 51 33 51 76 0 21 6 59 14 84 33 106 39 141 43 256 l4
120 -36 109 -36 108 -52 60 c-29 34 -70 77 -91 96 -21 20 -66 61 -100 93 l-61
56 -198 66 c-109 36 -209 66 -222 66 -13 0 -27 5 -30 10 -4 6 -107 10 -278 10
l-272 -1 -28 -62z m643 -133 c78 -26 121 -47 155 -75 l47 -39 47 0 c33 0 57
-7 83 -25 46 -31 198 -259 198 -296 0 -15 7 -43 15 -62 10 -24 15 -69 15 -130
0 -101 -21 -180 -66 -246 -13 -19 -24 -43 -24 -53 0 -19 -45 -54 -81 -63 -45
-10 -159 78 -372 291 -109 108 -207 214 -217 235 -11 20 -39 50 -62 66 -30 20
-47 40 -56 67 -7 21 -35 64 -64 95 -81 89 -117 195 -84 246 l16 25 172 0 171
0 107 -36z"/>
</g>
</svg>
