<?xml version="1.0" standalone="no"?>
<!DOCTYPE svg PUBLIC "-//W3C//DTD SVG 20010904//EN"
 "http://www.w3.org/TR/2001/REC-SVG-20010904/DTD/svg10.dtd">
<svg version="1.0" xmlns="http://www.w3.org/2000/svg"
 width="732.000000pt" height="312.000000pt" viewBox="0 0 732.000000 312.000000"
 preserveAspectRatio="xMidYMid meet">
<metadata>
Created by potrace 1.16, written by Peter Selinger 2001-2019
</metadata>
<g transform="translate(0.000000,312.000000) scale(0.100000,-0.100000)"
fill="#000000" stroke="none">
<path d="M13 3093 c-22 -46 -16 -71 19 -89 17 -9 49 -29 71 -45 22 -16 47 -29
54 -29 21 0 82 -30 127 -62 21 -15 46 -28 55 -28 9 0 58 -20 109 -45 52 -25
99 -45 106 -45 6 0 28 -11 48 -25 19 -13 91 -42 158 -64 67 -23 134 -49 148
-60 35 -24 168 -91 183 -91 18 0 81 -32 123 -62 21 -15 46 -28 55 -28 9 0 36
-14 61 -30 25 -16 51 -30 59 -30 22 0 196 -86 242 -120 25 -17 55 -30 72 -30
33 0 201 -77 251 -115 33 -25 142 -65 177 -65 27 0 83 -26 133 -62 21 -15 45
-28 53 -28 8 0 44 -14 80 -30 35 -16 70 -30 76 -30 7 0 29 -11 50 -25 20 -14
72 -43 114 -64 43 -22 88 -49 100 -60 32 -30 94 -130 105 -168 8 -29 51 -74
111 -115 14 -10 31 -36 38 -60 11 -33 25 -50 66 -78 29 -19 64 -54 79 -78 16
-24 52 -59 81 -79 29 -19 69 -57 89 -84 21 -29 54 -59 78 -70 22 -12 61 -38
86 -58 25 -20 79 -59 120 -86 41 -28 99 -71 128 -97 29 -27 59 -48 68 -48 27
0 87 -32 137 -73 58 -48 475 -257 512 -257 15 0 56 -13 92 -30 35 -16 70 -30
76 -30 7 0 37 -12 67 -26 102 -49 142 -53 587 -60 l311 -5 63 21 c141 48 237
118 335 246 l21 28 49 -14 c27 -7 66 -23 86 -36 45 -29 178 -71 298 -94 48 -9
129 -48 220 -106 30 -19 71 -39 90 -44 47 -13 137 -56 174 -85 33 -25 142 -65
177 -65 29 0 75 -29 90 -57 l13 -24 65 3 66 3 3 62 3 61 -32 7 c-18 4 -52 29
-85 61 -42 42 -60 54 -84 54 -36 0 -145 47 -193 84 -48 36 -113 66 -142 66
-32 0 -143 50 -188 84 -34 26 -142 66 -178 66 -11 0 -50 14 -86 30 -39 18 -81
30 -106 30 -26 0 -54 8 -72 21 -53 36 -124 69 -148 69 -38 0 -126 35 -155 62
-29 27 -83 58 -102 58 -7 0 -41 14 -77 30 -35 17 -70 30 -78 30 -7 0 -33 15
-57 33 -65 49 -64 49 -107 28 -43 -23 -71 -55 -71 -84 0 -28 47 -114 72 -131
12 -9 35 -16 50 -16 14 0 39 -5 55 -11 15 -7 45 -15 67 -18 l39 -6 40 -57 40
-57 -17 -45 c-20 -53 -57 -86 -96 -86 -15 0 -44 -7 -65 -15 l-37 -16 -276 5
c-463 9 -526 17 -618 83 -34 24 -142 63 -176 63 -13 0 -43 14 -68 30 -25 16
-51 30 -58 30 -20 0 -82 30 -117 56 -16 12 -77 46 -135 74 -58 29 -127 70
-153 92 -26 22 -63 44 -82 49 -20 6 -68 39 -109 77 -103 92 -196 162 -216 162
-9 0 -27 11 -40 25 -12 13 -40 36 -61 51 -21 14 -56 50 -79 80 -22 29 -93 109
-158 176 -65 68 -126 134 -135 148 -12 18 -17 46 -17 104 l0 79 -58 59 -59 58
-32 0 c-36 0 -90 22 -136 56 -48 35 -148 82 -232 109 -94 31 -175 68 -217 100
-33 25 -142 65 -177 65 -27 0 -141 53 -182 84 -18 14 -68 36 -112 50 -93 30
-116 41 -169 78 -21 16 -45 28 -53 28 -8 0 -44 14 -80 30 -35 17 -70 30 -76
30 -7 0 -29 11 -50 25 -65 45 -236 125 -264 125 -16 0 -45 11 -66 25 -105 72
-306 155 -374 155 -22 0 -51 9 -68 21 -41 27 -182 99 -196 99 -17 0 -80 31
-114 56 -16 12 -59 32 -95 43 -36 12 -73 26 -82 31 -10 6 -35 10 -55 10 l-38
0 -12 -27z"/>
</g>
</svg>
