<?xml version="1.0" standalone="no"?>
<!DOCTYPE svg PUBLIC "-//W3C//DTD SVG 20010904//EN"
 "http://www.w3.org/TR/2001/REC-SVG-20010904/DTD/svg10.dtd">
<svg version="1.0" xmlns="http://www.w3.org/2000/svg"
 width="285.000000pt" height="192.000000pt" viewBox="0 0 285.000000 192.000000"
 preserveAspectRatio="xMidYMid meet">
<metadata>
Created by potrace 1.16, written by Peter Selinger 2001-2019
</metadata>
<g transform="translate(0.000000,192.000000) scale(0.100000,-0.100000)"
fill="#000000" stroke="none">
<path d="M951 1882 l-53 -37 -19 -55 c-12 -36 -18 -84 -19 -142 l0 -86 30 -64
c16 -34 30 -69 30 -76 0 -7 11 -34 24 -60 13 -26 29 -66 35 -89 11 -39 47 -79
114 -125 14 -10 31 -36 38 -60 11 -33 25 -50 65 -77 28 -19 66 -57 85 -85 26
-38 45 -54 74 -64 47 -15 75 -44 75 -79 0 -14 5 -43 12 -65 l11 -38 -29 -31
c-60 -64 -314 -159 -425 -159 -37 0 -83 -7 -102 -15 l-36 -15 -367 0 c-260 0
-377 3 -401 12 -46 17 -87 1 -91 -33 -2 -21 2 -28 20 -32 27 -6 80 -24 126
-43 19 -8 68 -14 117 -14 55 0 99 -6 126 -16 l41 -17 121 6 c67 3 135 10 150
16 16 6 86 11 156 11 92 0 139 4 164 15 20 8 54 15 75 15 22 0 56 7 75 15 20
8 54 15 76 15 30 0 86 23 225 91 l185 91 63 -22 c61 -21 135 -68 172 -109 11
-12 31 -21 48 -21 36 0 88 -21 130 -53 18 -14 56 -37 83 -51 79 -43 181 -109
212 -137 15 -15 57 -41 91 -59 35 -17 82 -44 104 -61 23 -16 49 -29 60 -29 10
0 24 -11 30 -25 l11 -25 94 0 93 0 0 39 0 39 -33 29 c-18 16 -49 35 -68 42
-53 20 -69 28 -145 74 -39 23 -95 56 -124 72 -29 17 -74 44 -100 62 -57 38
-176 98 -211 106 -14 4 -53 31 -86 61 -38 33 -74 56 -95 60 -23 4 -62 30 -112
73 l-78 66 6 41 c4 23 18 66 32 96 54 118 66 167 61 264 -2 50 -10 111 -17
136 -38 138 -53 176 -85 212 -18 22 -40 59 -47 81 -10 32 -25 49 -65 76 -28
20 -65 57 -83 83 -22 34 -46 56 -83 74 -29 15 -66 37 -84 50 -20 15 -45 24
-68 24 -20 0 -55 10 -78 22 -23 12 -50 25 -59 30 -10 4 -64 8 -120 7 l-103 0
-54 -37z m279 -140 c19 -9 50 -27 69 -39 19 -13 43 -23 55 -23 22 0 111 -68
144 -110 89 -115 142 -209 177 -313 28 -82 32 -152 10 -204 -8 -19 -15 -55
-15 -80 0 -33 -6 -50 -25 -68 -47 -48 -116 -22 -181 66 -23 31 -54 59 -85 74
-26 14 -56 37 -66 51 -10 14 -49 60 -86 101 -42 47 -83 106 -108 157 -23 44
-52 96 -66 114 -37 49 -53 96 -53 153 0 57 22 112 54 135 26 18 122 11 176
-14z"/>
</g>
</svg>
