<?xml version="1.0" standalone="no"?>
<!DOCTYPE svg PUBLIC "-//W3C//DTD SVG 20010904//EN"
 "http://www.w3.org/TR/2001/REC-SVG-20010904/DTD/svg10.dtd">
<svg version="1.0" xmlns="http://www.w3.org/2000/svg"
 width="201.000000pt" height="288.000000pt" viewBox="0 0 201.000000 288.000000"
 preserveAspectRatio="xMidYMid meet">
<metadata>
Created by potrace 1.16, written by Peter Selinger 2001-2019
</metadata>
<g transform="translate(0.000000,288.000000) scale(0.100000,-0.100000)"
fill="#000000" stroke="none">
<path d="M45 2861 c-3 -11 -15 -23 -26 -26 -20 -7 -27 -52 -11 -70 5 -6 17
-37 28 -70 11 -34 34 -78 56 -103 20 -24 40 -58 43 -75 8 -37 32 -67 53 -67
28 0 69 -33 100 -81 21 -31 49 -57 81 -74 26 -15 65 -47 85 -71 21 -25 55 -56
77 -70 22 -13 63 -46 93 -72 30 -26 72 -59 94 -75 22 -15 53 -46 67 -70 60
-95 105 -177 105 -189 2 -32 67 -138 99 -160 24 -16 39 -38 51 -73 24 -69 55
-143 106 -255 24 -52 44 -108 44 -125 0 -17 13 -50 30 -75 16 -25 30 -52 30
-61 0 -9 14 -35 31 -59 37 -51 59 -100 59 -133 0 -14 11 -50 25 -81 14 -31 25
-60 25 -64 0 -4 -29 -20 -65 -36 -36 -16 -74 -40 -85 -54 l-20 -25 0 -81 0
-81 41 -60 c22 -33 86 -106 142 -163 78 -78 111 -105 142 -113 22 -6 52 -20
66 -30 20 -14 44 -19 86 -19 l58 1 28 43 c37 59 36 115 -3 198 -16 34 -30 75
-30 90 0 15 -20 68 -45 119 -25 51 -45 98 -45 105 0 7 -34 81 -75 165 -41 83
-75 157 -75 164 0 7 -13 42 -30 77 -16 34 -30 70 -30 78 0 8 -18 41 -40 73
-22 33 -42 75 -45 95 -11 65 -45 163 -70 200 -14 20 -25 42 -25 49 0 6 -22 58
-50 114 -50 101 -58 129 -41 129 19 0 90 -38 163 -87 42 -29 94 -61 116 -72
21 -11 78 -47 128 -80 49 -34 96 -61 105 -61 9 0 35 -15 59 -32 100 -76 166
-118 183 -118 10 0 31 7 47 15 l30 16 0 54 0 54 -29 15 c-41 22 -160 104 -199
137 -18 16 -40 29 -50 29 -10 0 -35 12 -56 26 -21 14 -86 50 -146 80 -64 32
-130 74 -162 103 -29 26 -73 58 -98 71 -25 12 -66 40 -93 62 -26 22 -60 43
-76 48 -15 4 -57 27 -92 50 l-65 42 -80 121 c-45 67 -93 145 -108 172 -14 28
-49 77 -77 109 -27 32 -59 76 -70 97 -11 23 -39 51 -68 70 -27 18 -62 52 -77
77 -15 24 -52 60 -82 79 -30 20 -64 51 -75 69 l-22 34 -117 0 -117 0 -6 -19z
m1445 -2427 c0 -8 11 -42 25 -76 14 -34 22 -64 19 -67 -4 -3 -9 0 -12 8 -2 7
-26 38 -53 67 -54 60 -56 65 -33 88 18 19 54 5 54 -20z"/>
</g>
</svg>
