<?xml version="1.0" standalone="no"?>
<!DOCTYPE svg PUBLIC "-//W3C//DTD SVG 20010904//EN"
 "http://www.w3.org/TR/2001/REC-SVG-20010904/DTD/svg10.dtd">
<svg version="1.0" xmlns="http://www.w3.org/2000/svg"
 width="261.000000pt" height="486.000000pt" viewBox="0 0 261.000000 486.000000"
 preserveAspectRatio="xMidYMid meet">
<metadata>
Created by potrace 1.16, written by Peter Selinger 2001-2019
</metadata>
<g transform="translate(0.000000,486.000000) scale(0.100000,-0.100000)"
fill="#000000" stroke="none">
<path d="M117 4835 c-10 -14 -24 -25 -32 -25 -24 0 -85 -84 -85 -118 0 -17 4
-34 10 -37 5 -3 10 -14 10 -23 0 -23 45 -88 181 -265 12 -16 39 -39 59 -52 21
-13 51 -43 66 -66 22 -32 49 -52 109 -83 45 -23 117 -65 160 -95 44 -30 96
-58 115 -64 52 -14 195 -160 209 -213 6 -23 20 -49 31 -59 22 -20 120 -164
145 -215 10 -19 40 -59 66 -88 27 -29 52 -68 57 -86 6 -18 38 -68 73 -110 35
-43 75 -94 88 -114 99 -149 134 -208 142 -234 4 -17 19 -44 32 -62 14 -17 48
-79 77 -136 29 -58 62 -115 74 -128 11 -13 50 -67 86 -120 48 -72 72 -98 90
-100 29 -5 50 21 50 60 0 27 -175 388 -219 453 -12 17 -21 37 -21 45 0 8 -14
35 -30 60 -16 25 -30 52 -30 61 0 9 -18 39 -41 65 -22 27 -52 71 -66 99 -14
27 -43 70 -63 95 -21 25 -61 92 -90 150 -29 58 -62 119 -74 135 -25 35 -46 80
-46 100 0 22 39 18 81 -8 113 -69 147 -88 179 -97 20 -5 100 -41 178 -80 79
-38 154 -70 168 -70 14 0 50 -11 80 -25 l55 -25 42 12 c78 22 97 60 56 112
-16 20 -29 26 -60 26 -25 0 -58 11 -92 29 -28 17 -87 41 -130 55 -43 14 -90
34 -105 45 -35 24 -168 91 -182 91 -30 0 -102 44 -130 80 -25 32 -38 40 -63
40 -18 0 -45 9 -62 21 -16 11 -55 33 -85 49 -116 60 -209 158 -275 290 -21 41
-54 95 -75 120 -21 25 -46 61 -55 80 -10 19 -38 55 -64 80 -25 25 -54 58 -64
73 -10 16 -31 30 -48 34 -21 4 -43 24 -80 75 -33 43 -66 76 -92 89 -22 11 -58
34 -80 50 -25 18 -52 29 -73 29 -18 0 -36 5 -39 10 -3 6 -27 10 -53 10 l-47
-1 -18 -24z m146 -181 c18 -9 44 -28 60 -42 15 -14 42 -31 60 -37 25 -8 47
-33 104 -120 40 -60 73 -116 73 -123 0 -27 -73 -1 -115 42 -22 23 -59 53 -82
68 -22 15 -57 53 -78 83 -20 31 -47 62 -60 71 -31 20 -37 40 -19 59 19 19 18
19 57 -1z"/>
<path d="M28 3084 l-28 -15 0 -39 0 -39 30 -16 c16 -8 41 -15 56 -15 39 0 185
-72 232 -114 21 -20 46 -36 54 -36 8 0 34 -15 58 -32 117 -88 166 -118 195
-118 21 0 66 -24 145 -76 63 -41 126 -86 140 -98 14 -13 81 -60 150 -106 79
-52 137 -98 157 -125 20 -27 42 -44 60 -48 36 -7 81 -51 90 -86 7 -32 31 -61
51 -61 28 0 70 -34 98 -78 16 -24 46 -56 67 -69 21 -13 46 -38 55 -55 39 -70
58 -92 88 -100 38 -10 82 -52 91 -86 7 -27 119 -167 194 -241 50 -51 109 -138
109 -164 0 -9 13 -31 29 -50 55 -62 121 -171 121 -200 0 -28 28 -91 60 -137
22 -31 60 -136 60 -166 0 -12 7 -38 15 -57 10 -24 15 -70 15 -135 0 -55 5
-113 11 -130 8 -24 6 -44 -10 -100 -12 -38 -30 -81 -42 -96 -28 -35 -98 -66
-152 -66 -56 0 -85 -27 -71 -67 5 -14 16 -29 24 -33 8 -4 25 -12 37 -18 28
-15 139 -16 148 -2 3 6 14 10 24 10 9 0 59 39 109 88 l92 87 0 67 c0 37 4 70
10 73 13 8 13 72 0 80 -6 4 -10 77 -10 185 l0 179 -60 122 c-33 67 -60 128
-60 136 0 25 -128 268 -154 292 -18 17 -26 35 -26 58 0 25 -11 45 -48 85 -26
29 -69 87 -96 128 -63 96 -80 115 -142 156 -28 19 -170 154 -315 300 -145 146
-287 281 -316 300 -28 19 -81 64 -117 100 -41 40 -80 69 -101 75 -19 5 -58 32
-88 59 -29 27 -87 65 -128 86 -41 20 -94 53 -119 74 -57 47 -91 64 -189 96
l-81 26 -60 54 c-47 42 -68 54 -94 54 -23 0 -41 9 -61 30 -16 17 -36 30 -44
30 -9 0 -45 14 -79 30 -71 34 -139 39 -184 14z"/>
</g>
</svg>
