<?xml version="1.0" standalone="no"?>
<!DOCTYPE svg PUBLIC "-//W3C//DTD SVG 20010904//EN"
 "http://www.w3.org/TR/2001/REC-SVG-20010904/DTD/svg10.dtd">
<svg version="1.0" xmlns="http://www.w3.org/2000/svg"
 width="735.000000pt" height="183.000000pt" viewBox="0 0 735.000000 183.000000"
 preserveAspectRatio="xMidYMid meet">
<metadata>
Created by potrace 1.16, written by Peter Selinger 2001-2019
</metadata>
<g transform="translate(0.000000,183.000000) scale(0.100000,-0.100000)"
fill="#000000" stroke="none">
<path d="M815 1820 c-3 -5 -46 -10 -94 -10 -56 0 -102 -6 -124 -15 -20 -8 -65
-15 -99 -15 -49 0 -97 -11 -221 -51 l-157 -52 -58 -47 -57 -46 -2 -154 -3
-155 36 -22 c47 -30 78 -29 103 3 23 30 26 68 10 124 l-11 37 42 65 c48 73 67
88 125 99 51 10 117 27 175 45 25 8 61 14 81 14 20 0 53 7 72 15 25 10 71 15
147 15 76 0 122 -5 147 -15 22 -9 67 -15 120 -15 52 0 97 -6 120 -15 19 -8 60
-15 90 -15 29 0 70 -7 90 -15 19 -8 52 -15 72 -15 49 0 158 -38 277 -97 54
-27 128 -58 162 -69 47 -14 70 -27 85 -49 l22 -30 4 -88 3 -88 43 -32 c23 -18
55 -49 70 -70 16 -23 46 -46 74 -59 49 -21 60 -27 186 -95 44 -23 87 -43 95
-43 8 0 44 -14 78 -30 l64 -30 91 0 92 0 40 23 c41 23 85 86 85 123 0 17 -58
101 -115 167 -8 9 -15 21 -15 27 0 18 47 21 85 6 29 -12 74 -16 194 -16 l157
0 58 -21 c32 -11 75 -31 95 -45 27 -18 49 -24 88 -24 29 0 73 -5 97 -12 l44
-12 42 19 c86 39 99 92 50 198 -16 36 -30 77 -30 92 0 34 41 75 76 75 14 0 48
8 75 17 l49 18 49 -18 c31 -11 78 -17 132 -17 l84 0 63 -30 c37 -18 80 -30
103 -30 22 0 56 -7 76 -15 19 -8 53 -15 75 -15 21 0 55 -7 75 -15 19 -8 53
-15 75 -15 21 0 55 -7 75 -15 19 -8 45 -15 57 -15 42 0 216 -67 244 -93 21
-20 38 -27 68 -27 41 0 174 -41 211 -65 12 -8 31 -24 41 -36 26 -27 62 -135
62 -183 0 -56 40 -123 122 -203 68 -66 192 -143 231 -143 7 0 26 -13 41 -29
17 -18 46 -33 81 -41 l55 -13 40 18 c22 10 56 36 75 57 l35 38 0 65 0 64 19
11 c31 16 53 12 101 -20 25 -16 51 -30 58 -30 7 0 43 -18 80 -40 36 -22 83
-45 103 -50 22 -6 70 -39 117 -80 44 -38 111 -85 149 -104 37 -19 90 -53 117
-75 26 -23 56 -41 65 -41 9 0 30 -9 46 -21 17 -11 82 -47 146 -79 67 -34 130
-74 150 -94 l33 -36 78 0 78 0 0 65 0 65 -29 0 c-19 0 -45 13 -73 35 -24 19
-92 60 -153 91 -60 31 -123 67 -140 79 -16 13 -52 35 -80 49 -50 27 -98 56
-229 138 -38 24 -92 64 -120 89 -50 45 -123 89 -148 89 -20 0 -134 56 -171 84
-43 32 -164 92 -205 101 -17 3 -55 22 -83 42 -28 19 -72 41 -97 49 -26 7 -69
29 -96 49 -27 19 -56 35 -64 35 -8 0 -40 16 -71 35 -63 39 -182 84 -221 85
-14 0 -54 14 -88 30 -35 17 -69 30 -75 30 -7 0 -41 14 -75 30 -35 17 -76 30
-90 30 -15 0 -52 12 -82 26 -99 46 -317 111 -415 123 -34 5 -70 13 -82 19 -12
7 -52 12 -90 12 -37 0 -88 6 -113 14 -78 25 -133 37 -195 45 -34 5 -70 13 -82
19 -13 7 -73 12 -153 12 l-131 0 -62 -21 c-34 -11 -83 -37 -110 -56 -62 -46
-87 -95 -87 -173 l0 -60 -26 -12 -25 -12 -94 32 -94 32 -111 0 c-76 0 -122 5
-147 15 -26 11 -75 15 -192 15 -107 0 -170 4 -201 14 -60 19 -125 35 -181 46
-26 5 -65 18 -88 29 -22 12 -80 34 -128 50 -48 15 -134 51 -190 80 -57 28
-114 51 -128 51 -15 0 -54 17 -89 38 -55 33 -175 77 -336 122 -25 8 -131 16
-237 19 l-191 6 -24 23 c-19 17 -36 22 -81 22 -31 0 -59 -4 -62 -10z m1509
-621 c32 -11 75 -31 95 -45 19 -13 44 -24 54 -24 29 0 67 -45 67 -80 l0 -31
-37 6 c-55 10 -232 95 -254 124 -23 29 -23 35 -3 55 19 19 9 20 78 -5z m3298
-339 c56 -16 98 -46 98 -72 0 -13 19 -39 44 -62 70 -66 91 -124 50 -140 -21
-8 -49 8 -74 44 -12 17 -47 44 -78 60 -83 42 -92 51 -113 110 -14 41 -16 57
-7 67 6 8 17 12 24 9 7 -3 32 -10 56 -16z"/>
</g>
</svg>
