<?xml version="1.0" standalone="no"?>
<!DOCTYPE svg PUBLIC "-//W3C//DTD SVG 20010904//EN"
 "http://www.w3.org/TR/2001/REC-SVG-20010904/DTD/svg10.dtd">
<svg version="1.0" xmlns="http://www.w3.org/2000/svg"
 width="315.000000pt" height="186.000000pt" viewBox="0 0 315.000000 186.000000"
 preserveAspectRatio="xMidYMid meet">
<metadata>
Created by potrace 1.16, written by Peter Selinger 2001-2019
</metadata>
<g transform="translate(0.000000,186.000000) scale(0.100000,-0.100000)"
fill="#000000" stroke="none">
<path d="M240 1845 c-7 -8 -35 -22 -62 -30 -33 -9 -68 -31 -105 -65 -30 -27
-59 -50 -64 -50 -5 0 -9 -20 -9 -43 l0 -44 40 -12 40 -12 32 17 c18 9 47 27
65 40 18 14 61 38 95 54 l63 30 129 0 129 0 66 -29 c102 -44 171 -72 230 -92
59 -21 203 -114 290 -188 134 -115 161 -137 185 -154 33 -23 33 -51 0 -74 -15
-10 -40 -30 -55 -45 l-29 -26 0 -113 0 -113 45 -67 c26 -39 77 -94 126 -135
45 -38 106 -90 136 -116 37 -33 62 -48 82 -48 15 0 43 -5 61 -12 38 -13 122 3
153 30 l17 15 0 87 c0 65 4 91 15 100 l14 12 113 -54 c62 -29 139 -74 172
-101 33 -26 66 -47 74 -47 19 0 103 -52 162 -100 25 -21 74 -52 108 -69 34
-17 79 -46 100 -65 20 -18 65 -48 100 -66 35 -18 72 -46 84 -62 11 -16 37 -40
58 -53 21 -13 68 -51 106 -84 l68 -61 38 0 38 0 0 70 c0 39 -4 70 -9 70 -11 0
-143 115 -211 184 -25 25 -53 46 -61 46 -8 0 -28 14 -44 30 -16 17 -36 30 -45
30 -10 0 -36 15 -60 33 -23 17 -68 48 -100 67 -168 101 -197 120 -215 140 -22
24 -76 54 -115 63 -14 4 -43 22 -65 40 -22 19 -82 55 -133 81 -51 25 -109 61
-130 80 -20 18 -65 48 -99 66 -50 26 -74 48 -118 106 -34 45 -63 74 -74 74
-11 0 -40 29 -75 75 -33 44 -64 75 -74 75 -10 0 -34 20 -55 44 -20 24 -85 77
-144 116 -59 40 -126 89 -148 109 -100 91 -267 181 -336 181 -19 0 -123 41
-181 71 -10 5 -105 9 -212 9 l-194 0 -12 -15z m1378 -894 c80 -85 150 -218
136 -256 -8 -20 -33 -26 -55 -14 -31 16 -146 123 -190 176 -43 52 -47 68 -23
101 12 17 25 22 60 22 l46 0 26 -29z"/>
</g>
</svg>
