<?xml version="1.0" standalone="no"?>
<!DOCTYPE svg PUBLIC "-//W3C//DTD SVG 20010904//EN"
 "http://www.w3.org/TR/2001/REC-SVG-20010904/DTD/svg10.dtd">
<svg version="1.0" xmlns="http://www.w3.org/2000/svg"
 width="597.000000pt" height="285.000000pt" viewBox="0 0 597.000000 285.000000"
 preserveAspectRatio="xMidYMid meet">
<metadata>
Created by potrace 1.16, written by Peter Selinger 2001-2019
</metadata>
<g transform="translate(0.000000,285.000000) scale(0.100000,-0.100000)"
fill="#000000" stroke="none">
<path d="M5085 2808 c-16 -22 -42 -61 -57 -87 l-28 -46 0 -78 c0 -84 11 -116
76 -210 37 -53 51 -106 36 -132 -5 -10 -53 -32 -108 -51 l-99 -34 -141 0
c-103 0 -151 -4 -177 -15 l-36 -15 -486 0 -486 0 -36 15 c-28 12 -82 15 -255
15 -172 0 -226 3 -255 15 -22 9 -68 15 -122 15 l-86 0 -45 30 c-32 22 -57 30
-88 30 -23 0 -59 7 -79 15 -20 8 -66 15 -105 15 -38 0 -84 7 -105 15 -23 10
-69 15 -135 15 -65 0 -111 5 -135 15 -19 8 -47 15 -60 15 -14 0 -54 14 -90 30
-35 17 -69 30 -75 30 -5 0 -39 14 -75 30 -35 17 -75 30 -89 30 -14 0 -41 7
-61 15 -19 8 -48 15 -63 15 -15 0 -34 8 -41 17 -27 32 -131 103 -153 103 -64
-1 -145 -89 -146 -158 0 -32 53 -149 94 -207 11 -16 29 -45 39 -64 l19 -34
-14 -8 c-19 -13 -112 -11 -145 3 -15 6 -62 15 -103 19 -41 5 -100 13 -130 18
-30 5 -175 10 -321 10 l-267 1 -35 -15 c-24 -10 -69 -15 -129 -15 l-93 0 -98
-100 -97 -99 0 -91 c0 -50 4 -98 8 -108 58 -120 80 -156 127 -211 33 -39 57
-78 61 -99 5 -24 19 -42 49 -65 45 -33 180 -226 195 -277 12 -43 88 -148 136
-188 24 -20 44 -45 44 -55 0 -10 26 -44 58 -76 58 -59 68 -75 116 -186 74
-172 81 -228 36 -295 -16 -25 -30 -52 -30 -60 0 -9 -7 -25 -15 -38 -21 -29
-170 -102 -210 -102 -18 0 -47 -10 -66 -23 -27 -18 -35 -30 -37 -60 l-3 -37
90 0 c49 0 93 5 96 10 3 6 17 10 31 10 14 0 53 9 87 21 47 16 76 34 120 77 55
53 107 134 107 165 0 7 14 26 30 42 l30 29 0 88 c0 62 -6 106 -20 148 -28 83
-239 397 -326 484 -29 30 -46 59 -60 104 l-19 64 -40 31 c-22 17 -47 41 -55
52 -8 11 -31 38 -51 60 -38 42 -169 232 -169 246 0 4 -19 30 -42 57 -42 49
-88 160 -88 213 0 31 106 129 141 129 15 0 43 7 62 15 20 8 61 15 90 15 30 0
71 7 90 15 20 8 66 15 102 15 36 0 82 -7 102 -15 24 -10 71 -15 152 -15 l116
0 63 -30 64 -30 96 0 c56 0 116 -6 142 -14 58 -18 124 -35 180 -46 25 -5 78
-25 119 -45 40 -20 103 -45 140 -57 48 -16 75 -31 101 -59 l35 -38 108 -36
c125 -41 213 -47 240 -17 21 23 22 81 1 110 -20 29 -105 72 -142 72 -18 0 -38
10 -57 30 -16 16 -35 30 -42 30 -13 0 -78 36 -183 100 -19 12 -50 41 -68 66
-26 35 -39 44 -63 44 -43 0 -66 15 -95 63 -15 23 -38 54 -52 70 l-26 27 62 0
c35 0 79 -7 99 -15 19 -8 61 -15 92 -15 l57 0 29 -30 29 -30 58 0 c32 0 75 -7
95 -15 19 -8 53 -15 75 -15 21 0 55 -7 75 -15 20 -8 66 -15 105 -15 38 0 84
-7 105 -15 22 -9 67 -15 120 -15 52 0 97 -6 120 -15 19 -8 53 -15 75 -15 21 0
55 -7 75 -15 24 -10 71 -15 150 -15 78 0 125 -5 150 -15 26 -11 74 -15 183
-15 l147 0 19 -21 19 -21 51 7 c37 4 63 2 89 -9 53 -23 436 -23 488 -1 20 8
66 15 102 15 36 0 82 -7 102 -15 43 -18 175 -20 206 -3 12 7 76 15 142 19 125
7 151 12 300 60 l91 29 110 0 c120 0 121 0 206 -74 43 -38 78 -64 214 -164 52
-38 182 -172 223 -230 12 -18 40 -41 62 -52 l39 -20 0 89 c0 49 -4 92 -9 95
-4 3 -11 19 -14 34 -7 37 -182 204 -248 237 -25 13 -87 61 -137 107 l-91 83
-1 55 0 55 27 40 28 40 7 90 c4 50 10 105 14 122 l6 33 -31 36 c-18 19 -42 52
-55 72 -14 23 -49 52 -86 75 l-63 37 -101 0 -101 -1 -30 -41z m227 -156 l37
-39 -5 -35 c-4 -20 -1 -52 6 -72 l11 -35 -20 -46 c-31 -69 -45 -69 -112 6
l-58 64 0 40 c-1 68 52 155 94 155 5 0 27 -17 47 -38z"/>
</g>
</svg>
