<?xml version="1.0" standalone="no"?>
<!DOCTYPE svg PUBLIC "-//W3C//DTD SVG 20010904//EN"
 "http://www.w3.org/TR/2001/REC-SVG-20010904/DTD/svg10.dtd">
<svg version="1.0" xmlns="http://www.w3.org/2000/svg"
 width="1176.000000pt" height="1032.000000pt" viewBox="0 0 1176.000000 1032.000000"
 preserveAspectRatio="xMidYMid meet">
<metadata>
Created by potrace 1.16, written by Peter Selinger 2001-2019
</metadata>
<g transform="translate(0.000000,1032.000000) scale(0.100000,-0.100000)"
fill="#000000" stroke="none">
<path d="M487 9832 l-17 -19 0 -455 0 -455 18 -16 c14 -13 38 -17 95 -17 l76
0 11 -19 c6 -11 10 -88 10 -179 l0 -159 18 -16 c13 -12 37 -17 80 -17 l61 0
11 -19 c5 -11 10 -44 10 -74 0 -75 15 -87 113 -87 l76 0 11 -19 c5 -11 10 -51
10 -89 0 -89 13 -102 98 -102 l61 0 11 -19 c5 -11 10 -44 10 -74 0 -72 17 -87
98 -87 l61 0 11 -19 c5 -11 10 -44 10 -74 0 -75 15 -87 113 -87 l76 0 11 -19
c5 -11 10 -51 10 -89 0 -89 13 -102 98 -102 l61 0 11 -19 c5 -11 10 -44 10
-74 0 -72 17 -87 98 -87 l61 0 11 -19 c5 -11 10 -44 10 -74 0 -75 15 -87 113
-87 l76 0 11 -19 c5 -11 10 -51 10 -89 0 -89 13 -102 98 -102 l61 0 11 -19 c5
-11 10 -44 10 -74 0 -72 17 -87 98 -87 l61 0 11 -19 c5 -11 10 -44 10 -74 0
-75 15 -87 113 -87 l76 0 11 -19 c5 -11 10 -51 10 -89 0 -54 4 -72 18 -85 l19
-17 151 0 151 0 11 -19 c5 -11 10 -44 10 -74 0 -75 15 -87 113 -87 l76 0 11
-19 c5 -11 10 -44 10 -74 0 -72 17 -87 98 -87 l61 0 11 -19 c5 -11 10 -51 10
-89 0 -54 4 -72 18 -85 l19 -17 166 0 166 0 11 -19 c5 -11 10 -44 10 -74 0
-72 17 -87 98 -87 l61 0 11 -19 c5 -11 10 -51 10 -89 0 -89 13 -102 98 -102
l61 0 11 -19 c5 -11 10 -44 10 -74 0 -75 15 -87 113 -87 l76 0 11 -19 c5 -11
10 -44 10 -74 0 -40 5 -58 18 -70 l19 -17 166 0 166 0 11 -19 c5 -11 10 -51
10 -89 0 -89 13 -102 98 -102 l61 0 11 -19 c5 -11 10 -44 10 -74 0 -72 17 -87
98 -87 l61 0 11 -19 c5 -11 10 -44 10 -74 0 -40 5 -58 18 -70 l19 -17 166 0
166 0 11 -19 c5 -11 10 -51 10 -89 0 -89 13 -102 98 -102 l61 0 11 -19 c5 -11
10 -44 10 -74 0 -40 5 -58 18 -70 l19 -17 166 0 166 0 11 -19 c5 -11 10 -44
10 -74 0 -72 17 -87 98 -87 l61 0 11 -19 c5 -11 10 -51 10 -89 0 -54 4 -72 18
-85 l19 -17 166 0 166 0 11 -19 c5 -11 10 -44 10 -74 0 -72 17 -87 98 -87 l61
0 11 -19 c5 -11 10 -44 10 -74 0 -75 15 -87 113 -87 l76 0 11 -19 c5 -11 10
-51 10 -89 0 -54 4 -72 18 -85 l19 -17 151 0 151 0 11 -19 c5 -11 10 -44 10
-74 0 -75 15 -87 113 -87 l76 0 11 -19 c5 -11 10 -44 10 -74 0 -40 5 -58 18
-70 l19 -17 166 0 166 0 11 -19 c5 -11 10 -51 10 -89 0 -89 13 -102 98 -102
l61 0 11 -19 c5 -11 10 -44 10 -74 0 -40 5 -58 18 -70 l19 -17 166 0 166 0 11
-19 c5 -11 10 -44 10 -74 0 -72 17 -87 98 -87 l61 0 11 -19 c5 -11 10 -51 10
-89 0 -89 13 -102 98 -102 l61 0 11 -19 c5 -11 10 -44 10 -74 0 -75 15 -87
113 -87 l76 0 11 -19 c5 -11 10 -51 10 -89 0 -54 4 -72 18 -85 l19 -17 151 0
151 0 11 -19 c5 -11 10 -44 10 -74 0 -75 15 -87 113 -87 l76 0 11 -19 c5 -11
10 -44 10 -74 0 -72 17 -87 98 -87 l61 0 11 -19 c5 -11 10 -51 10 -89 0 -54 4
-72 18 -85 l19 -17 166 0 166 0 11 -19 c5 -11 10 -44 10 -74 0 -72 17 -87 98
-87 l61 0 11 -19 c5 -11 10 -44 10 -74 0 -40 5 -58 18 -70 l19 -17 166 0 166
0 11 -19 c5 -11 10 -51 10 -89 0 -54 4 -72 18 -85 l19 -17 155 0 155 0 16 18
17 19 0 260 0 260 -18 16 -19 17 -151 0 -151 0 -11 19 c-5 11 -10 51 -10 89 0
54 -4 72 -18 85 l-19 17 -166 0 -166 0 -11 19 c-5 11 -10 44 -10 74 0 72 -17
87 -98 87 l-61 0 -11 19 c-5 11 -10 44 -10 74 0 75 -15 87 -113 87 l-76 0 -11
19 c-5 11 -10 51 -10 89 0 54 -4 72 -18 85 l-19 17 -151 0 -151 0 -11 19 c-5
11 -10 44 -10 74 0 75 -15 87 -113 87 l-76 0 -11 19 c-5 11 -10 51 -10 89 0
89 -13 102 -98 102 l-61 0 -11 19 c-5 11 -10 44 -10 74 0 72 -17 87 -98 87
l-61 0 -11 19 c-5 11 -10 44 -10 74 0 40 -5 58 -18 70 l-19 17 -166 0 -166 0
-11 19 c-5 11 -10 51 -10 89 0 89 -13 102 -98 102 l-61 0 -11 19 c-5 11 -10
44 -10 74 0 75 -15 87 -113 87 l-76 0 -11 19 c-5 11 -10 44 -10 74 0 40 -5 58
-18 70 l-19 17 -151 0 -151 0 -11 19 c-5 11 -10 51 -10 89 0 92 -11 102 -113
102 l-76 0 -11 19 c-5 11 -10 44 -10 74 0 40 -5 58 -18 70 l-19 17 -166 0
-166 0 -11 19 c-5 11 -10 44 -10 74 0 72 -17 87 -98 87 l-61 0 -11 19 c-5 11
-10 51 -10 89 0 54 -4 72 -18 85 l-19 17 -166 0 -166 0 -11 19 c-5 11 -10 44
-10 74 0 72 -17 87 -98 87 l-61 0 -11 19 c-5 11 -10 44 -10 74 0 72 -17 87
-98 87 l-61 0 -11 19 c-6 13 -10 149 -10 374 l0 354 -18 16 c-14 13 -38 17
-95 17 l-76 0 -11 19 c-6 12 -10 116 -10 269 l0 249 -18 16 c-13 12 -37 17
-80 17 l-61 0 -11 19 c-5 11 -10 44 -10 74 0 72 -17 87 -98 87 l-61 0 -11 19
c-6 11 -10 88 -10 179 l0 159 -18 16 c-14 13 -38 17 -95 17 l-76 0 -11 19 c-5
11 -10 44 -10 74 0 72 -17 87 -98 87 l-61 0 -11 19 c-6 11 -10 88 -10 179 l0
159 -18 16 c-13 12 -37 17 -80 17 l-61 0 -11 19 c-5 11 -10 44 -10 74 0 75
-15 87 -113 87 l-76 0 -11 19 c-5 11 -10 51 -10 89 0 89 -13 102 -98 102 l-61
0 -11 19 c-5 11 -10 44 -10 74 0 72 -17 87 -98 87 l-61 0 -11 19 c-6 11 -10
88 -10 179 l0 159 -18 16 c-14 13 -38 17 -95 17 l-76 0 -11 19 c-5 11 -10 44
-10 74 0 40 -5 58 -18 70 l-19 17 -166 0 -166 0 -11 19 c-6 11 -10 88 -10 179
l0 159 -18 16 c-13 12 -37 17 -80 17 l-61 0 -11 19 c-5 11 -10 44 -10 74 0 72
-17 87 -98 87 l-61 0 -11 19 c-5 11 -10 44 -10 74 0 40 -5 58 -18 70 l-19 17
-166 0 -166 0 -11 19 c-5 11 -10 51 -10 89 0 89 -13 102 -98 102 l-61 0 -11
19 c-5 11 -10 44 -10 74 0 75 -15 87 -113 87 l-76 0 -11 19 c-5 11 -10 44 -10
74 0 40 -5 58 -18 70 l-19 17 -151 0 -151 0 -11 19 c-5 11 -10 51 -10 89 0 54
-4 72 -18 85 l-19 17 -166 0 -166 0 -11 19 c-5 11 -10 44 -10 74 0 40 -5 58
-18 70 l-19 17 -166 0 -166 0 -11 19 c-5 11 -10 51 -10 89 0 54 -4 72 -18 85
l-19 17 -740 0 -740 0 -16 -18z m1323 -621 c5 -11 10 -43 10 -72 0 -35 6 -59
17 -71 l16 -18 168 0 168 0 11 -19 c5 -11 10 -43 10 -72 0 -35 6 -59 17 -71
l16 -18 153 0 153 0 11 -19 c5 -11 10 -50 10 -87 0 -49 5 -73 17 -86 l16 -18
78 0 78 0 11 -19 c5 -11 10 -43 10 -72 0 -35 6 -59 17 -71 l16 -18 153 0 153
0 11 -19 c5 -11 10 -43 10 -72 0 -35 6 -59 17 -71 l16 -18 78 0 78 0 11 -19
c5 -11 10 -50 10 -87 0 -91 12 -104 96 -104 l63 0 11 -19 c5 -11 10 -43 10
-72 0 -74 16 -89 96 -89 l63 0 11 -19 c5 -11 10 -43 10 -72 0 -35 6 -59 17
-71 l16 -18 78 0 78 0 11 -19 c5 -11 10 -50 10 -87 0 -91 12 -104 96 -104 l63
0 11 -19 c5 -11 10 -43 10 -72 0 -74 16 -89 96 -89 l63 0 11 -19 c5 -11 10
-43 10 -72 0 -35 6 -59 17 -71 l16 -18 78 0 78 0 11 -19 c5 -11 10 -50 10 -87
0 -91 12 -104 96 -104 l63 0 11 -19 c5 -11 10 -43 10 -72 0 -35 6 -59 17 -71
l16 -18 78 0 78 0 11 -19 c5 -11 10 -43 10 -72 0 -74 16 -89 96 -89 l63 0 11
-19 c5 -11 10 -50 10 -87 0 -91 12 -104 96 -104 l63 0 11 -19 c5 -11 10 -83
10 -162 l0 -142 17 -19 16 -18 78 0 78 0 11 -19 c6 -11 10 -88 10 -177 l0
-157 17 -19 c12 -14 31 -18 79 -18 l63 0 11 -19 c6 -11 10 -88 10 -177 l0
-157 17 -19 c12 -14 31 -18 79 -18 l63 0 11 -19 c13 -25 13 -97 0 -122 l-11
-19 -149 0 -149 0 -11 19 c-5 11 -10 43 -10 72 0 35 -6 59 -17 71 l-16 18 -78
0 -78 0 -11 19 c-5 11 -10 43 -10 72 0 74 -16 89 -96 89 l-63 0 -11 19 c-5 11
-10 50 -10 87 0 49 -5 73 -17 86 l-16 18 -168 0 -168 0 -11 19 c-5 11 -10 43
-10 72 0 74 -16 89 -96 89 l-63 0 -11 19 c-5 11 -10 50 -10 87 0 49 -5 73 -17
86 l-16 18 -168 0 -168 0 -11 19 c-5 11 -10 43 -10 72 0 74 -16 89 -96 89
l-63 0 -11 19 c-5 11 -10 43 -10 72 0 35 -6 59 -17 71 l-16 18 -78 0 -78 0
-11 19 c-5 11 -10 50 -10 87 0 91 -12 104 -96 104 l-63 0 -11 19 c-5 11 -10
43 -10 72 0 74 -16 89 -96 89 l-63 0 -11 19 c-5 11 -10 43 -10 72 0 35 -6 59
-17 71 l-16 18 -168 0 -168 0 -11 19 c-5 11 -10 50 -10 87 0 91 -12 104 -96
104 l-63 0 -11 19 c-5 11 -10 43 -10 72 0 35 -6 59 -17 71 l-16 18 -78 0 -78
0 -11 19 c-5 11 -10 43 -10 72 0 74 -16 89 -96 89 l-63 0 -11 19 c-5 11 -10
50 -10 87 0 91 -12 104 -96 104 l-63 0 -11 19 c-5 11 -10 43 -10 72 0 35 -6
59 -17 71 l-16 18 -78 0 -78 0 -11 19 c-5 11 -10 43 -10 72 0 74 -16 89 -96
89 l-63 0 -11 19 c-5 11 -10 50 -10 87 0 91 -12 104 -96 104 l-63 0 -11 19
c-5 11 -10 43 -10 72 0 35 -6 59 -17 71 l-16 18 -78 0 -78 0 -11 19 c-5 11
-10 43 -10 72 0 74 -16 89 -96 89 l-63 0 -11 19 c-6 11 -10 88 -10 177 l0 157
-17 19 c-12 14 -31 18 -79 18 l-63 0 -11 19 c-5 11 -10 38 -10 61 0 23 5 50
10 61 l11 19 344 0 344 0 11 -19z"/>
</g>
</svg>
