<?xml version="1.0" standalone="no"?>
<!DOCTYPE svg PUBLIC "-//W3C//DTD SVG 20010904//EN"
 "http://www.w3.org/TR/2001/REC-SVG-20010904/DTD/svg10.dtd">
<svg version="1.0" xmlns="http://www.w3.org/2000/svg"
 width="474.000000pt" height="327.000000pt" viewBox="0 0 474.000000 327.000000"
 preserveAspectRatio="xMidYMid meet">
<metadata>
Created by potrace 1.16, written by Peter Selinger 2001-2019
</metadata>
<g transform="translate(0.000000,327.000000) scale(0.100000,-0.100000)"
fill="#000000" stroke="none">
<path d="M1296 3216 c-22 -64 -17 -84 34 -130 l40 -36 42 0 c62 0 160 -37 213
-81 26 -21 54 -39 62 -39 8 0 36 -18 61 -41 26 -23 72 -56 103 -74 59 -34 421
-392 469 -463 34 -50 137 -179 150 -187 5 -3 10 -26 10 -49 0 -24 7 -60 15
-79 8 -20 15 -54 15 -75 0 -22 7 -56 15 -75 19 -46 19 -149 0 -207 -8 -25 -17
-61 -20 -81 -7 -46 -47 -107 -93 -142 -20 -15 -62 -48 -92 -73 -62 -50 -127
-84 -163 -84 -14 0 -41 -7 -60 -15 -26 -11 -73 -15 -165 -15 -93 0 -140 -4
-165 -15 -52 -21 -362 -21 -414 0 -19 8 -59 15 -89 15 -29 0 -56 5 -59 11 -4
5 15 33 42 62 27 29 55 67 62 85 l14 33 -14 56 c-10 45 -25 70 -71 122 -32 36
-58 69 -58 73 0 4 -35 34 -78 66 -42 33 -83 67 -91 76 -7 9 -20 16 -29 16 -21
0 -198 86 -236 115 -32 24 -141 65 -174 65 -23 0 -122 34 -190 66 -75 34 -127
32 -210 -10 -130 -66 -172 -133 -172 -274 l0 -94 25 -30 c14 -16 25 -38 25
-48 0 -25 45 -76 92 -106 21 -13 63 -46 93 -72 107 -92 168 -134 266 -183 54
-27 110 -49 125 -49 14 0 55 -13 91 -30 35 -16 69 -30 75 -30 20 0 84 -34 135
-73 46 -34 83 -86 83 -116 0 -7 11 -33 24 -59 13 -26 27 -57 30 -70 l7 -22
-49 -49 c-26 -28 -74 -61 -105 -75 l-56 -26 -118 0 -118 0 -40 -23 c-46 -26
-57 -63 -28 -89 55 -50 241 -75 316 -43 20 8 49 15 64 15 15 0 48 14 73 30 25
16 51 30 58 30 23 0 96 41 129 72 20 20 39 53 53 98 l22 67 -31 88 c-23 66
-28 92 -20 106 l10 19 189 0 190 0 41 -17 41 -16 47 16 c25 10 56 17 67 17 12
0 38 7 59 16 l37 15 48 -17 48 -17 41 16 c23 10 52 17 65 17 13 0 40 7 59 15
20 8 48 15 62 15 33 0 100 34 149 77 22 18 56 38 75 43 45 12 179 145 211 209
12 24 35 62 51 84 21 29 29 51 29 83 0 24 7 62 17 85 l16 41 -16 47 c-10 25
-17 62 -17 81 0 19 -14 73 -30 120 -17 46 -30 96 -30 110 0 14 -18 51 -39 83
-22 32 -43 72 -46 90 -4 18 -26 52 -51 77 -24 25 -70 72 -102 106 -33 33 -71
78 -84 100 -14 22 -41 50 -60 63 -19 14 -45 39 -57 57 -13 18 -48 52 -79 75
-60 44 -232 216 -232 231 0 15 71 -2 138 -33 35 -16 74 -29 88 -29 14 0 41 -7
61 -15 19 -8 47 -15 62 -15 14 0 40 -9 56 -21 60 -40 168 -90 261 -120 72 -23
110 -42 150 -75 39 -32 79 -52 142 -73 94 -30 160 -61 207 -96 17 -13 59 -37
95 -55 36 -18 108 -60 160 -94 52 -35 114 -75 137 -89 25 -16 43 -35 45 -49 3
-25 59 -67 100 -75 15 -3 62 -39 107 -82 43 -42 109 -101 146 -131 37 -30 81
-70 98 -88 115 -118 169 -176 202 -219 22 -26 53 -64 71 -83 75 -83 214 -312
214 -353 0 -13 16 -50 36 -83 19 -32 44 -84 55 -114 l19 -54 0 -211 0 -211
-19 -53 c-12 -34 -30 -63 -50 -78 -30 -24 -81 -108 -81 -135 0 -7 -27 -40 -60
-72 l-59 -60 -7 -43 c-5 -34 -3 -48 11 -63 19 -21 81 -28 87 -10 3 10 35 53
115 155 23 29 56 81 73 114 17 34 45 78 63 99 18 20 39 56 45 78 7 23 19 47
27 54 l15 12 0 228 0 228 -15 12 c-8 7 -22 35 -30 62 -8 27 -24 62 -36 79 -15
22 -20 38 -15 61 8 39 -54 160 -125 242 -27 32 -59 76 -70 97 -10 21 -33 49
-50 61 -16 12 -44 45 -60 71 -44 72 -482 512 -541 544 -26 14 -60 41 -74 60
-14 18 -44 43 -67 54 -23 12 -66 48 -96 80 -36 40 -66 62 -90 69 -62 16 -178
77 -219 115 -22 19 -46 35 -54 35 -21 0 -193 85 -231 114 -18 14 -67 36 -109
50 -46 15 -111 47 -161 81 -46 30 -89 55 -96 55 -7 0 -42 14 -78 30 -35 17
-76 30 -90 30 -14 0 -65 18 -112 41 -109 51 -191 79 -235 79 -48 0 -78 13
-123 53 -52 47 -95 67 -143 67 -22 0 -57 7 -77 15 -19 8 -62 15 -94 15 -32 0
-61 5 -64 10 -4 6 -61 10 -139 10 l-132 0 -18 -54z m-939 -1291 c19 -8 52 -15
72 -15 76 0 298 -88 421 -166 30 -19 66 -37 79 -41 35 -9 202 -178 195 -197
-15 -38 -96 -24 -232 39 -29 14 -57 25 -63 25 -23 0 -97 41 -143 80 l-49 41
-41 -3 -40 -3 -24 -35 -24 -35 5 -47 c9 -73 -30 -74 -114 -1 -25 21 -68 55
-97 76 -28 21 -52 46 -52 54 0 9 -16 33 -35 54 -19 21 -37 50 -41 65 l-7 27
54 48 c58 52 80 57 136 34z"/>
</g>
</svg>
