<?xml version="1.0" standalone="no"?>
<!DOCTYPE svg PUBLIC "-//W3C//DTD SVG 20010904//EN"
 "http://www.w3.org/TR/2001/REC-SVG-20010904/DTD/svg10.dtd">
<svg version="1.0" xmlns="http://www.w3.org/2000/svg"
 width="471.000000pt" height="387.000000pt" viewBox="0 0 471.000000 387.000000"
 preserveAspectRatio="xMidYMid meet">
<metadata>
Created by potrace 1.16, written by Peter Selinger 2001-2019
</metadata>
<g transform="translate(0.000000,387.000000) scale(0.100000,-0.100000)"
fill="#000000" stroke="none">
<path d="M155 3860 c-3 -5 -22 -10 -41 -10 -41 0 -94 -45 -94 -79 0 -11 -4
-23 -10 -26 -12 -8 -13 -89 -1 -113 5 -9 17 -37 27 -62 21 -53 220 -262 301
-316 28 -19 80 -63 115 -98 34 -35 78 -71 96 -80 18 -9 62 -45 97 -79 156
-151 186 -177 251 -215 38 -22 78 -50 89 -62 11 -12 33 -29 50 -37 65 -33 164
-105 187 -136 30 -39 102 -63 143 -47 39 15 121 12 162 -5 26 -11 74 -15 180
-15 105 0 153 -4 180 -15 19 -8 52 -15 72 -15 20 0 75 -13 121 -30 47 -16 102
-30 123 -30 21 0 63 -11 92 -25 30 -13 170 -63 312 -110 142 -47 281 -96 308
-109 28 -13 61 -26 75 -29 14 -3 44 -22 66 -41 23 -19 74 -52 115 -72 41 -20
88 -47 104 -59 17 -13 53 -34 81 -48 28 -14 75 -48 105 -75 52 -47 125 -92
150 -92 6 0 31 -19 54 -42 23 -24 70 -63 105 -88 35 -25 76 -58 91 -75 338
-355 382 -406 392 -446 4 -14 17 -39 29 -56 236 -320 298 -449 298 -623 0
-114 4 -107 -137 -251 -66 -68 -103 -114 -103 -128 l0 -21 59 0 59 0 72 67
c40 37 83 85 97 106 14 22 38 44 54 50 l29 11 0 218 c0 120 -4 226 -9 236 -4
9 -16 33 -25 53 -10 20 -38 59 -62 87 -24 28 -44 55 -44 61 0 22 -72 153 -113
207 -23 30 -70 85 -103 123 -34 37 -73 85 -86 107 -14 21 -46 57 -72 79 -65
56 -107 97 -134 134 -13 17 -46 46 -72 63 -27 17 -61 52 -76 76 -16 25 -45 55
-66 68 -20 13 -70 52 -110 87 -40 36 -97 76 -126 91 -29 15 -69 42 -90 60 -37
33 -195 118 -242 129 -14 4 -47 24 -74 47 -26 22 -56 40 -65 40 -9 0 -33 11
-54 25 -91 62 -305 155 -358 155 -11 0 -50 13 -86 30 -35 17 -76 30 -90 30
-13 0 -54 14 -90 30 -35 17 -75 30 -89 30 -14 0 -41 7 -61 15 -19 8 -45 15
-56 15 -12 0 -62 13 -112 29 -103 33 -160 49 -227 61 -26 5 -56 13 -67 19 -11
6 -58 11 -106 11 -53 0 -99 6 -122 15 -25 10 -71 15 -153 15 l-117 0 -39 30
c-72 54 -243 169 -282 189 -94 48 -230 153 -337 261 -62 62 -115 121 -115 128
0 4 14 27 30 52 l30 45 0 108 0 108 -20 39 c-12 24 -38 51 -63 66 -23 15 -55
39 -72 55 -32 30 -144 89 -169 89 -8 0 -18 5 -21 10 -3 6 -35 10 -70 10 -35 0
-67 -4 -70 -10z m179 -199 c53 -25 94 -65 117 -116 23 -49 24 -79 3 -99 -30
-30 -64 -19 -116 37 -48 51 -118 145 -118 159 0 14 32 38 51 38 11 0 39 -9 63
-19z"/>
</g>
</svg>
