<?xml version="1.0" standalone="no"?>
<!DOCTYPE svg PUBLIC "-//W3C//DTD SVG 20010904//EN"
 "http://www.w3.org/TR/2001/REC-SVG-20010904/DTD/svg10.dtd">
<svg version="1.0" xmlns="http://www.w3.org/2000/svg"
 width="825.000000pt" height="303.000000pt" viewBox="0 0 825.000000 303.000000"
 preserveAspectRatio="xMidYMid meet">
<metadata>
Created by potrace 1.16, written by Peter Selinger 2001-2019
</metadata>
<g transform="translate(0.000000,303.000000) scale(0.100000,-0.100000)"
fill="#000000" stroke="none">
<path d="M4610 2964 l0 -67 44 -43 c34 -35 50 -44 78 -44 25 0 42 -8 63 -30
16 -16 35 -30 43 -30 28 0 70 -34 101 -81 20 -31 47 -57 74 -70 23 -12 60 -41
82 -65 22 -23 63 -54 92 -69 58 -30 68 -39 103 -103 14 -25 33 -49 42 -54 10
-4 26 -12 35 -16 9 -5 21 -22 25 -38 4 -17 35 -55 72 -91 48 -46 66 -70 71
-97 4 -20 20 -53 35 -75 15 -21 36 -53 45 -72 10 -19 30 -47 45 -64 15 -16 30
-46 33 -65 6 -40 22 -105 43 -170 21 -67 18 -184 -7 -255 -26 -75 -32 -82 -79
-95 -26 -7 -53 -27 -85 -62 -50 -56 -118 -88 -186 -88 -20 0 -53 -7 -72 -15
-52 -21 -362 -21 -414 0 -26 11 -74 15 -177 15 -97 0 -155 4 -186 15 -25 8
-61 17 -80 20 -49 7 -100 40 -100 65 0 11 16 37 35 59 l35 38 0 87 c0 141 -35
223 -139 326 -25 25 -54 58 -64 73 -11 16 -31 30 -48 34 -16 3 -38 18 -49 33
-38 54 -197 150 -247 150 -15 0 -48 14 -73 30 -25 16 -58 30 -73 30 -15 0 -44
7 -64 15 -22 10 -68 15 -124 15 l-89 0 -99 -50 c-55 -27 -103 -55 -107 -62
-31 -49 -44 -118 -42 -223 1 -63 -2 -110 -8 -110 -23 2 -131 39 -158 56 -17
10 -53 31 -80 46 -26 16 -73 45 -105 65 -31 21 -63 38 -71 38 -9 0 -56 27
-105 60 -50 33 -97 60 -106 60 -9 0 -24 10 -35 21 -10 12 -41 36 -69 54 -27
18 -59 42 -69 54 -13 14 -31 21 -54 21 l-35 0 -41 45 c-50 54 -81 58 -156 20
-62 -31 -80 -58 -80 -117 l0 -47 -57 -40 -56 -41 -84 0 c-52 0 -97 6 -120 15
-23 10 -69 15 -135 15 -65 0 -111 5 -135 15 -23 10 -69 15 -135 15 -65 0 -111
5 -135 15 -19 8 -47 15 -60 15 -14 0 -54 13 -90 30 -35 17 -70 30 -76 30 -7 0
-41 14 -75 30 -35 17 -76 30 -90 30 -15 0 -79 25 -142 56 -63 31 -157 69 -208
86 -70 23 -108 42 -149 75 -31 25 -70 49 -87 54 -17 5 -53 27 -80 49 -35 29
-57 40 -82 40 l-34 0 0 -52 1 -53 37 -17 c23 -11 50 -37 72 -70 l36 -53 49
-16 c27 -8 67 -31 89 -50 23 -20 50 -41 61 -47 34 -17 143 -52 166 -52 11 0
50 -13 86 -30 35 -16 70 -30 76 -30 7 0 32 -14 57 -30 25 -16 58 -30 73 -30
16 0 53 -12 84 -26 73 -33 210 -74 308 -93 22 -4 56 -12 75 -18 95 -30 136
-36 275 -42 90 -4 159 -11 172 -19 30 -17 133 -15 176 3 20 8 52 15 72 15 60
0 156 38 200 79 55 52 85 71 113 71 36 0 151 -57 202 -99 25 -21 68 -50 95
-64 28 -14 72 -44 99 -66 26 -23 55 -41 63 -41 25 0 83 -31 173 -92 47 -32 92
-58 100 -58 16 0 65 -25 151 -78 30 -18 65 -35 79 -38 14 -4 39 -19 55 -34 32
-30 86 -60 106 -60 7 0 25 -12 40 -26 28 -27 203 -93 247 -94 13 0 53 -13 89
-30 35 -16 81 -30 101 -30 20 0 96 -20 169 -45 73 -25 147 -45 166 -45 18 0
71 -13 117 -30 53 -18 105 -30 138 -30 29 0 69 -7 89 -15 19 -8 60 -15 90 -15
29 0 70 -7 90 -15 20 -8 66 -15 105 -15 38 0 84 -7 105 -15 50 -21 286 -21
336 0 20 8 53 15 74 15 51 0 163 41 234 85 31 19 65 35 74 35 10 0 62 43 115
96 l97 95 38 114 c45 138 45 151 -16 353 -25 83 -100 231 -133 261 -16 15 -26
35 -26 53 0 44 -36 106 -100 173 -31 33 -68 78 -82 100 -14 22 -105 118 -202
214 -98 95 -175 175 -173 177 2 2 31 -7 65 -21 34 -14 66 -25 72 -25 6 0 36
-12 67 -26 65 -29 162 -60 214 -69 22 -3 54 -21 80 -44 55 -48 69 -55 171 -88
46 -14 145 -57 221 -95 76 -37 143 -68 150 -68 7 0 26 -9 42 -21 17 -11 66
-38 110 -61 44 -22 103 -58 130 -79 28 -22 79 -62 114 -89 35 -28 72 -50 81
-50 9 0 25 -9 36 -21 32 -36 106 -85 191 -129 53 -27 94 -56 112 -79 17 -21
49 -45 73 -55 24 -10 48 -21 54 -25 33 -18 166 -133 214 -184 30 -32 67 -65
83 -73 40 -21 159 -137 192 -186 42 -62 65 -87 107 -114 21 -13 53 -48 72 -78
19 -30 50 -72 69 -93 36 -40 127 -185 127 -201 0 -6 13 -39 30 -74 l30 -63 0
-143 c0 -152 -7 -182 -53 -244 -31 -41 -97 -172 -97 -193 0 -12 13 -15 58 -15
l59 0 41 38 c23 22 42 48 42 58 0 11 12 37 27 59 15 22 30 62 35 89 4 28 17
63 28 78 l20 27 0 116 c0 63 -4 123 -9 133 -34 66 -101 219 -101 230 0 22 -37
86 -64 111 -14 14 -26 31 -26 40 0 24 -87 147 -130 184 -22 18 -62 64 -90 100
-28 37 -55 67 -60 67 -5 0 -59 47 -119 105 -61 58 -117 105 -126 105 -9 0 -44
27 -78 60 -95 93 -158 149 -205 184 -24 17 -58 41 -75 54 -17 12 -42 25 -56
29 -14 3 -48 25 -75 49 -27 23 -65 50 -85 60 -20 9 -41 20 -48 23 -6 3 -46 35
-88 69 -42 35 -117 84 -166 108 -48 24 -105 59 -125 76 -21 18 -67 49 -103 68
-47 26 -70 45 -80 68 l-15 32 -33 0 c-18 0 -58 11 -89 25 -31 14 -62 25 -68
25 -6 0 -63 25 -126 56 -63 31 -144 65 -180 76 -36 12 -78 33 -95 48 -31 29
-86 60 -105 60 -6 0 -36 11 -66 25 -71 33 -168 65 -194 65 -12 0 -46 11 -75
25 -88 40 -263 95 -302 95 -26 0 -45 8 -64 26 -34 32 -119 63 -176 64 -23 0
-45 5 -48 10 -3 6 -26 10 -51 10 l-44 0 0 -66z m-1013 -1009 c19 -8 47 -15 62
-15 14 0 82 -27 149 -60 68 -33 129 -60 136 -60 43 0 201 -157 270 -270 l38
-62 -4 -62 c-5 -75 -32 -120 -79 -130 -17 -3 -63 -3 -103 0 l-71 7 -65 39
c-35 21 -80 43 -100 48 -59 16 -142 60 -191 100 -26 22 -68 49 -95 61 -27 12
-56 25 -64 29 -8 3 -18 21 -22 38 -5 18 -25 45 -46 62 -29 23 -42 43 -51 79
-18 70 -2 94 113 182 44 33 70 36 123 14z"/>
</g>
</svg>
