<?xml version="1.0" standalone="no"?>
<!DOCTYPE svg PUBLIC "-//W3C//DTD SVG 20010904//EN"
 "http://www.w3.org/TR/2001/REC-SVG-20010904/DTD/svg10.dtd">
<svg version="1.0" xmlns="http://www.w3.org/2000/svg"
 width="732.000000pt" height="306.000000pt" viewBox="0 0 732.000000 306.000000"
 preserveAspectRatio="xMidYMid meet">
<metadata>
Created by potrace 1.16, written by Peter Selinger 2001-2019
</metadata>
<g transform="translate(0.000000,306.000000) scale(0.100000,-0.100000)"
fill="#000000" stroke="none">
<path d="M3946 3029 c-30 -35 -33 -76 -10 -122 29 -56 44 -67 93 -67 30 0 57
-7 76 -21 17 -11 55 -33 85 -48 30 -16 83 -53 117 -82 69 -60 149 -121 205
-158 34 -23 51 -48 76 -113 6 -14 33 -41 60 -59 l49 -32 106 -161 107 -161 0
-41 c0 -23 7 -58 15 -77 19 -47 20 -186 1 -232 -22 -52 -91 -138 -128 -159
-18 -10 -45 -30 -60 -44 -15 -14 -72 -40 -125 -59 l-98 -33 -80 0 -80 0 -45
30 c-25 16 -58 30 -73 30 -16 0 -58 14 -94 30 -35 17 -81 30 -102 30 -64 0
-224 63 -301 119 -22 16 -55 32 -73 35 -19 4 -60 29 -98 61 -75 64 -166 115
-204 115 -99 0 -84 -81 32 -169 37 -28 90 -73 118 -101 27 -27 56 -50 64 -50
8 0 79 -31 158 -70 142 -70 246 -110 281 -110 10 0 56 -13 102 -30 47 -16 97
-30 111 -30 15 0 37 -12 54 -30 l29 -30 133 0 134 0 59 20 c33 11 84 31 114
45 30 14 61 25 68 25 49 2 226 157 263 231 14 26 25 54 25 62 0 7 14 26 30 42
l30 29 0 64 c0 35 -5 72 -11 83 -6 11 -14 41 -19 67 -5 26 -13 65 -19 87 -6
22 -13 51 -15 65 -3 14 -21 50 -40 80 -19 30 -47 77 -61 104 -47 86 -106 166
-151 204 -35 28 -44 43 -44 67 0 24 -11 41 -47 76 -27 25 -64 55 -83 67 -20
11 -50 41 -69 65 -18 24 -50 54 -72 66 -24 14 -39 30 -39 42 l0 19 38 -16 c57
-24 181 -64 200 -64 19 0 211 -64 257 -85 17 -8 52 -32 79 -55 33 -27 58 -40
79 -40 17 0 51 -13 76 -29 25 -16 60 -32 78 -36 17 -3 52 -24 76 -46 25 -21
50 -39 57 -39 21 0 83 -33 162 -87 43 -29 107 -63 145 -75 l68 -22 59 -63 c36
-39 81 -75 115 -92 31 -16 84 -53 118 -82 33 -30 86 -72 117 -93 31 -22 68
-55 82 -73 13 -18 39 -36 56 -41 31 -8 41 -19 52 -54 3 -10 28 -32 56 -49 37
-23 60 -47 82 -86 17 -30 52 -73 79 -96 27 -23 49 -49 49 -58 0 -8 13 -28 29
-43 16 -15 46 -53 67 -84 21 -31 50 -71 64 -87 14 -17 46 -62 72 -100 25 -39
58 -81 72 -94 14 -14 26 -31 26 -38 0 -7 16 -45 35 -83 19 -38 35 -83 35 -100
0 -17 9 -49 19 -73 84 -181 81 -292 -12 -452 -68 -116 -71 -120 -112 -133 -53
-16 -85 -54 -85 -98 l0 -34 90 0 c54 0 90 4 90 10 0 6 34 46 75 89 81 85 155
186 155 213 0 9 4 20 10 23 13 8 13 338 0 351 -5 5 -13 37 -18 71 -6 44 -19
80 -45 122 -20 32 -37 64 -37 70 0 28 -72 147 -132 218 -15 18 -43 57 -61 85
-18 29 -53 75 -76 101 -23 27 -50 66 -61 88 -11 21 -38 50 -59 64 -24 15 -60
56 -94 107 -56 84 -133 166 -197 207 -20 13 -48 41 -64 62 -15 22 -49 50 -76
64 -26 13 -82 56 -124 95 -42 38 -84 70 -94 70 -10 0 -32 17 -49 38 -20 24
-59 51 -115 79 -47 23 -109 64 -139 90 -30 27 -74 61 -99 75 -25 14 -54 36
-65 48 -11 12 -37 31 -59 42 -21 11 -57 33 -79 49 -22 16 -47 29 -56 29 -9 0
-58 20 -109 45 -52 25 -99 45 -105 45 -7 0 -32 14 -57 30 -25 16 -52 30 -60
30 -8 0 -35 14 -60 30 -25 16 -52 30 -60 30 -8 0 -28 9 -45 21 -52 35 -124 69
-146 69 -28 0 -307 93 -377 125 -29 14 -71 25 -93 25 -22 0 -56 7 -76 15 -19
8 -48 15 -64 15 -15 0 -31 5 -34 10 -4 6 -58 10 -130 10 l-123 0 -26 -31z"/>
<path d="M49 1631 c-16 -16 -29 -39 -29 -50 0 -11 -4 -23 -10 -26 -22 -14 -9
-67 28 -118 21 -29 45 -64 55 -79 16 -26 102 -78 128 -78 6 0 30 -20 53 -45
l42 -45 46 0 c25 0 60 -5 78 -11 105 -37 290 92 290 201 0 19 9 40 25 55 l24
25 131 0 c93 0 141 -4 167 -15 19 -8 60 -15 90 -15 29 0 70 -7 90 -15 27 -12
79 -15 225 -15 145 0 197 -3 225 -15 19 -8 59 -15 87 -15 28 0 71 -6 96 -14
114 -36 144 -40 375 -45 164 -4 247 -10 262 -18 12 -7 39 -13 60 -13 21 0 58
-6 83 -14 87 -28 136 -38 210 -45 41 -4 85 -13 97 -19 12 -7 54 -12 93 -12 40
0 86 -6 107 -15 24 -10 71 -15 152 -15 l116 0 63 -30 c38 -18 80 -30 104 -30
21 0 64 -11 94 -25 42 -19 59 -23 74 -15 27 14 40 42 40 83 0 40 -25 67 -64
67 -14 0 -43 7 -63 15 -19 8 -45 15 -57 15 -12 0 -60 13 -106 30 -47 16 -102
30 -123 30 -21 0 -54 7 -74 15 -20 8 -66 15 -104 15 -37 0 -80 5 -96 12 -15 7
-89 15 -163 19 -173 10 -257 22 -297 42 -18 10 -50 17 -73 17 -22 0 -57 7 -77
15 -24 10 -71 15 -150 15 -78 0 -125 5 -150 15 -25 11 -72 15 -165 15 -92 0
-139 4 -165 15 -26 11 -74 15 -180 15 -105 0 -153 4 -180 15 -26 11 -74 15
-177 15 l-142 0 -84 30 -85 30 -128 0 c-90 0 -138 4 -164 15 -26 11 -74 15
-180 15 -105 0 -153 4 -180 15 -26 11 -74 15 -175 15 l-140 0 -29 -29z m398
-156 c19 -8 48 -15 64 -15 30 0 49 -23 49 -59 0 -23 -46 -59 -88 -67 -33 -7
-155 30 -173 52 -18 22 -28 81 -16 93 16 16 122 13 164 -4z"/>
</g>
</svg>
