<?xml version="1.0" standalone="no"?>
<!DOCTYPE svg PUBLIC "-//W3C//DTD SVG 20010904//EN"
 "http://www.w3.org/TR/2001/REC-SVG-20010904/DTD/svg10.dtd">
<svg version="1.0" xmlns="http://www.w3.org/2000/svg"
 width="636.000000pt" height="381.000000pt" viewBox="0 0 636.000000 381.000000"
 preserveAspectRatio="xMidYMid meet">
<metadata>
Created by potrace 1.16, written by Peter Selinger 2001-2019
</metadata>
<g transform="translate(0.000000,381.000000) scale(0.100000,-0.100000)"
fill="#000000" stroke="none">
<path d="M180 3800 c-8 -4 -35 -16 -60 -25 -51 -21 -100 -66 -100 -95 0 -10
-4 -22 -10 -25 -12 -8 -13 -59 -2 -83 5 -9 15 -30 23 -47 20 -41 101 -84 157
-85 27 0 69 -12 109 -30 37 -17 81 -30 104 -30 22 0 56 -7 76 -15 19 -8 53
-15 75 -15 21 0 55 -7 75 -15 20 -8 66 -15 105 -15 38 0 84 -7 105 -15 19 -8
61 -15 92 -15 84 0 111 -22 167 -135 39 -79 45 -153 18 -211 -22 -46 -53 -66
-155 -98 -157 -50 -186 -87 -104 -133 32 -18 56 -23 118 -23 l77 0 73 36 c113
57 142 91 186 222 25 73 26 98 6 145 -17 42 -19 90 -5 118 l11 19 85 0 c53 0
98 -6 121 -15 22 -9 67 -15 120 -15 52 0 97 -6 120 -15 19 -8 60 -15 90 -15
29 0 70 -7 90 -15 28 -12 84 -15 270 -15 l234 0 44 -20 c24 -11 56 -36 71 -56
15 -19 49 -46 75 -60 26 -13 56 -36 66 -51 10 -14 38 -46 63 -69 25 -24 64
-62 87 -85 23 -22 65 -58 93 -79 28 -21 66 -54 83 -74 18 -19 56 -47 85 -62
29 -15 61 -38 70 -51 40 -58 68 -86 105 -110 22 -14 71 -54 108 -89 38 -35 73
-64 78 -64 6 0 50 -37 98 -83 48 -45 105 -94 125 -107 20 -14 49 -44 64 -68
15 -24 46 -55 68 -70 30 -20 52 -48 82 -107 26 -50 54 -88 74 -102 35 -24 84
-30 95 -12 4 6 25 24 47 40 l41 29 99 0 c65 0 111 -5 135 -15 19 -8 45 -15 57
-15 27 0 123 -32 194 -66 29 -13 64 -24 78 -24 13 0 41 -7 61 -15 19 -8 54
-15 77 -15 28 0 54 -8 79 -25 48 -34 233 -125 250 -125 8 0 31 -11 51 -25 23
-16 51 -25 74 -25 26 0 48 -8 72 -29 39 -32 112 -71 133 -71 7 0 24 -12 38
-26 13 -14 56 -47 94 -72 73 -48 229 -191 303 -277 24 -27 63 -88 87 -135 24
-47 53 -98 64 -115 12 -16 21 -42 21 -56 0 -15 7 -43 15 -62 11 -26 15 -73 15
-162 0 -133 -8 -167 -53 -227 -43 -58 -67 -115 -67 -163 l0 -45 58 0 58 0 26
27 c14 16 29 42 32 59 4 18 23 51 44 74 37 44 71 125 72 172 0 15 5 30 10 33
13 8 13 61 -1 87 -8 14 -8 23 0 31 14 14 15 104 1 112 -5 3 -10 34 -10 68 l0
62 -30 45 c-16 25 -30 52 -30 61 0 9 -13 34 -29 56 -16 22 -39 60 -51 84 -29
58 -212 242 -273 276 -26 14 -59 41 -73 60 -14 18 -49 45 -77 59 -54 27 -110
67 -162 115 -40 36 -234 132 -331 164 -44 14 -103 37 -132 50 -29 14 -58 25
-65 25 -6 0 -32 14 -57 30 -25 16 -56 30 -70 30 -13 0 -65 13 -115 29 -99 32
-160 48 -220 60 -22 4 -56 12 -75 18 -69 22 -126 35 -185 42 -34 5 -70 13 -82
19 -12 7 -54 12 -93 12 -83 0 -140 22 -188 71 -18 18 -32 36 -32 40 0 14 -54
72 -85 90 -41 25 -145 112 -209 175 -29 29 -78 68 -110 89 -32 20 -82 59 -112
86 -30 27 -59 49 -64 49 -5 0 -56 44 -112 98 -57 54 -116 106 -133 117 -16 10
-50 37 -75 60 -25 22 -62 52 -82 65 -20 14 -49 44 -65 69 -15 24 -39 50 -53
59 -86 54 -93 90 -21 126 51 26 121 110 121 145 0 10 -11 43 -25 73 -14 29
-25 68 -25 87 l0 34 -59 56 c-69 66 -148 126 -211 161 -25 14 -63 38 -85 53
-48 32 -76 34 -158 6 -76 -26 -82 -31 -113 -91 -33 -66 -33 -160 1 -265 l25
-77 -12 -13 c-11 -10 -21 -10 -50 -1 -29 8 -47 8 -77 0 -55 -17 -184 -15 -228
3 -27 11 -77 15 -210 15 -132 0 -182 4 -210 15 -19 8 -53 15 -75 15 -21 0 -55
7 -75 15 -19 8 -61 15 -92 15 l-56 0 -70 46 c-38 25 -97 71 -130 103 -33 31
-80 65 -105 75 -25 9 -58 25 -75 34 -16 8 -61 32 -100 53 -38 21 -99 47 -135
58 -36 12 -73 26 -82 31 -21 12 -337 12 -358 0z m297 -179 c29 -6 61 -15 72
-20 11 -6 40 -11 65 -11 35 0 54 -7 88 -33 24 -18 43 -40 43 -48 0 -20 -65
-23 -110 -5 -21 9 -61 16 -89 16 -67 0 -213 50 -231 80 -9 14 55 40 85 35 14
-3 48 -9 77 -14z m2139 -106 c40 -25 78 -45 82 -45 18 0 43 -38 58 -90 l16
-53 -14 -8 c-7 -5 -50 -9 -94 -9 l-82 0 -42 56 c-67 89 -85 147 -54 178 24 25
50 19 130 -29z"/>
</g>
</svg>
