<?xml version="1.0" standalone="no"?>
<!DOCTYPE svg PUBLIC "-//W3C//DTD SVG 20010904//EN"
 "http://www.w3.org/TR/2001/REC-SVG-20010904/DTD/svg10.dtd">
<svg version="1.0" xmlns="http://www.w3.org/2000/svg"
 width="624.000000pt" height="222.000000pt" viewBox="0 0 624.000000 222.000000"
 preserveAspectRatio="xMidYMid meet">
<metadata>
Created by potrace 1.16, written by Peter Selinger 2001-2019
</metadata>
<g transform="translate(0.000000,222.000000) scale(0.100000,-0.100000)"
fill="#000000" stroke="none">
<path d="M3556 2189 c-33 -39 -34 -88 -3 -123 12 -14 59 -43 103 -65 45 -22
93 -53 107 -68 123 -138 159 -188 155 -216 l-3 -22 -118 -3 -118 -3 -44 -60
-45 -61 0 -78 0 -77 40 -86 c43 -91 47 -109 28 -125 -23 -18 -131 -52 -169
-52 -20 0 -53 -7 -72 -15 l-36 -15 -591 0 -591 0 -36 15 c-46 19 -74 19 -134
-2 l-49 -18 -49 18 c-27 9 -71 17 -97 17 -27 0 -69 6 -94 14 -86 27 -135 38
-210 46 -41 4 -106 20 -145 34 -54 20 -89 26 -153 26 l-84 0 -65 30 c-37 18
-81 30 -104 30 -22 0 -65 11 -95 25 -84 38 -170 65 -210 65 -19 0 -65 14 -101
30 -35 17 -69 30 -75 30 -5 0 -39 14 -75 30 -35 17 -70 30 -76 30 -7 0 -53 20
-102 44 -116 55 -185 74 -220 58 l-25 -12 0 -40 c0 -26 5 -40 13 -40 7 0 50
-25 95 -55 89 -59 154 -95 172 -95 7 0 41 -14 77 -30 35 -17 69 -30 74 -30 6
0 35 -11 64 -25 83 -38 262 -95 297 -95 17 0 112 -27 210 -60 124 -42 193 -60
228 -60 28 0 67 -7 87 -15 19 -8 60 -15 90 -15 29 0 70 -7 90 -15 19 -8 53
-15 75 -15 21 0 55 -7 75 -15 19 -8 53 -15 74 -15 21 0 50 -5 66 -12 29 -12
161 -29 223 -30 19 0 58 3 85 7 37 5 61 3 89 -9 l38 -16 294 0 294 0 41 -17
41 -16 47 16 c35 12 103 17 286 20 l240 5 55 26 c32 15 73 26 97 26 25 0 67
12 106 30 36 17 83 30 104 30 57 1 135 31 182 72 23 20 62 41 86 47 57 14 85
50 85 108 0 24 7 60 15 80 21 50 19 76 -15 173 -17 46 -30 92 -30 102 0 10
-10 47 -22 84 l-21 66 -54 46 c-55 49 -66 78 -37 106 8 9 23 16 33 16 22 0
123 -35 189 -66 29 -13 57 -24 63 -24 6 0 40 -13 76 -30 39 -18 81 -30 106
-30 42 0 77 -16 172 -74 26 -16 86 -42 133 -58 46 -16 97 -37 111 -47 14 -10
81 -47 149 -81 68 -34 136 -73 153 -87 16 -14 48 -29 70 -34 21 -5 58 -23 81
-39 22 -17 50 -30 61 -30 11 0 37 -18 58 -41 20 -22 60 -57 87 -78 28 -20 72
-61 97 -89 26 -29 59 -55 73 -58 36 -9 52 -23 52 -45 0 -11 32 -53 70 -95 39
-42 84 -101 100 -132 16 -32 38 -70 49 -87 12 -16 21 -37 21 -46 0 -8 14 -28
30 -44 19 -18 30 -39 30 -56 0 -14 7 -43 15 -62 10 -25 15 -71 15 -149 l0
-113 -30 -64 c-17 -35 -48 -86 -70 -113 -31 -39 -37 -54 -31 -71 7 -17 17 -23
52 -25 l44 -2 53 51 c29 28 61 68 72 89 11 21 24 41 30 45 6 4 10 89 10 229
l0 223 -21 19 c-25 22 -119 208 -119 236 0 10 -22 43 -50 73 -27 30 -60 72
-74 92 -29 46 -333 343 -407 398 -60 45 -128 84 -147 85 -7 0 -43 18 -80 40
-37 23 -78 43 -92 47 -14 3 -38 18 -55 32 -16 15 -57 35 -90 46 -93 29 -136
50 -189 94 -26 23 -55 41 -63 41 -8 0 -44 14 -80 30 -35 17 -70 30 -76 30 -7
0 -54 20 -105 45 -52 25 -104 45 -116 45 -27 0 -122 32 -194 66 -29 13 -65 24
-80 24 -15 0 -47 14 -72 30 -25 16 -58 30 -73 30 -15 0 -44 7 -64 15 -19 8
-53 15 -75 15 -21 0 -55 7 -75 15 -19 8 -62 15 -94 15 -32 0 -61 5 -64 10 -3
6 -28 10 -55 10 l-48 0 -26 -31z m364 -699 l30 -21 0 -69 c0 -49 -4 -73 -16
-84 -30 -31 -58 -19 -112 48 -29 35 -52 70 -52 77 0 8 9 29 21 48 l20 33 39
-5 c22 -3 53 -15 70 -27z"/>
</g>
</svg>
