<?xml version="1.0" standalone="no"?>
<!DOCTYPE svg PUBLIC "-//W3C//DTD SVG 20010904//EN"
 "http://www.w3.org/TR/2001/REC-SVG-20010904/DTD/svg10.dtd">
<svg version="1.0" xmlns="http://www.w3.org/2000/svg"
 width="195.000000pt" height="288.000000pt" viewBox="0 0 195.000000 288.000000"
 preserveAspectRatio="xMidYMid meet">
<metadata>
Created by potrace 1.16, written by Peter Selinger 2001-2019
</metadata>
<g transform="translate(0.000000,288.000000) scale(0.100000,-0.100000)"
fill="#000000" stroke="none">
<path d="M70 2871 c0 -4 -16 -29 -35 -54 l-35 -46 0 -67 0 -68 21 -22 c11 -12
33 -46 49 -75 19 -37 44 -65 80 -90 28 -20 68 -53 88 -72 21 -19 60 -47 87
-62 55 -29 129 -74 216 -129 30 -20 61 -36 68 -36 15 0 118 -60 234 -135 l91
-61 61 -90 c34 -50 77 -111 97 -135 44 -54 218 -401 218 -435 0 -14 20 -84 45
-157 30 -89 45 -150 45 -184 0 -28 7 -67 15 -86 23 -55 20 -249 -4 -302 -10
-22 -25 -46 -35 -54 l-17 -14 -38 12 c-21 6 -76 11 -122 11 -110 -1 -175 -23
-233 -81 -25 -24 -58 -55 -74 -69 -19 -17 -32 -43 -41 -80 l-13 -55 16 -57
c23 -77 54 -120 94 -130 18 -5 38 -17 45 -28 9 -15 23 -20 59 -20 26 0 50 4
53 10 3 5 24 10 46 10 54 0 150 34 208 73 27 18 62 40 79 49 58 31 139 238
161 413 5 34 13 70 19 82 17 31 15 164 -3 206 -8 20 -15 54 -15 75 0 22 -7 56
-15 75 -8 20 -15 61 -15 91 l0 55 -45 92 c-34 70 -45 104 -45 140 l0 47 -41
33 c-49 38 -78 97 -79 155 0 23 -7 58 -15 77 -14 33 -12 67 4 67 44 -1 244
-90 313 -140 23 -17 48 -30 57 -30 9 0 58 -20 109 -45 52 -25 100 -45 108 -45
11 0 14 19 14 85 0 61 -3 85 -12 85 -7 0 -55 20 -106 45 -52 25 -99 45 -106
45 -6 0 -52 27 -101 60 -50 33 -96 60 -103 60 -8 0 -43 14 -79 30 -35 17 -69
30 -75 30 -16 0 -80 32 -113 56 -16 12 -55 34 -85 50 -81 41 -110 63 -110 84
0 24 -54 86 -89 105 -46 24 -82 68 -127 157 l-43 86 -51 34 c-28 19 -95 78
-148 130 -71 70 -118 106 -172 134 -41 21 -93 51 -114 66 -21 16 -47 28 -57
28 -10 0 -21 5 -24 10 -8 12 -165 14 -165 1z m197 -215 c11 -13 37 -26 58 -30
28 -6 52 -23 103 -77 36 -38 71 -69 77 -69 16 0 42 -30 65 -76 24 -46 24 -44
4 -44 -8 0 -37 18 -63 40 -26 22 -50 40 -53 40 -4 0 -38 22 -78 48 -82 56
-175 155 -166 177 8 22 30 18 53 -9z m993 -2325 c52 -27 45 -49 -30 -98 -72
-47 -127 -56 -168 -27 -28 19 -27 41 2 77 55 67 128 85 196 48z"/>
</g>
</svg>
