<?xml version="1.0" standalone="no"?>
<!DOCTYPE svg PUBLIC "-//W3C//DTD SVG 20010904//EN"
 "http://www.w3.org/TR/2001/REC-SVG-20010904/DTD/svg10.dtd">
<svg version="1.0" xmlns="http://www.w3.org/2000/svg"
 width="723.000000pt" height="132.000000pt" viewBox="0 0 723.000000 132.000000"
 preserveAspectRatio="xMidYMid meet">
<metadata>
Created by potrace 1.16, written by Peter Selinger 2001-2019
</metadata>
<g transform="translate(0.000000,132.000000) scale(0.100000,-0.100000)"
fill="#000000" stroke="none">
<path d="M6063 1283 c-48 -47 -73 -129 -54 -183 6 -18 11 -44 11 -58 0 -14 14
-47 31 -73 l30 -48 -11 -20 -11 -21 -130 0 c-93 0 -140 4 -166 15 -19 8 -53
15 -75 15 -21 0 -55 7 -75 15 -25 11 -72 15 -165 15 -92 0 -139 4 -165 15 -19
8 -60 15 -90 15 -29 0 -70 7 -90 15 -23 10 -69 15 -135 15 -65 0 -111 5 -135
15 -28 12 -86 15 -285 15 -198 0 -256 3 -285 15 -24 10 -71 15 -150 15 -78 0
-125 5 -150 15 -19 8 -60 15 -90 15 -29 0 -70 7 -90 15 -26 11 -74 15 -180 15
-105 0 -153 4 -180 15 -26 11 -74 15 -180 15 -105 0 -153 4 -180 15 l-35 15
-324 0 c-218 0 -332 4 -351 11 -16 7 -127 14 -268 18 -145 4 -248 11 -260 17
-13 8 -93 10 -245 8 -124 -1 -238 -3 -255 -3 -181 -1 -654 16 -670 25 -32 18
-376 17 -419 -1 -20 -8 -54 -15 -76 -15 -25 0 -63 -11 -101 -30 l-60 -31 3
-85 3 -85 66 -37 c37 -20 91 -52 120 -70 30 -18 65 -35 79 -37 14 -3 43 -10
65 -16 22 -6 58 -14 80 -18 22 -4 56 -12 75 -18 52 -16 119 -33 172 -43 26 -5
56 -13 67 -19 11 -6 44 -11 75 -11 30 0 67 -5 83 -12 23 -10 275 -28 403 -28
177 -1 651 20 673 29 16 6 72 11 125 11 l97 0 85 30 c46 17 92 30 102 30 22 0
131 36 168 55 15 8 40 31 55 52 36 48 50 58 102 83 l42 20 156 0 c116 0 165
-4 192 -15 l35 -15 295 0 294 0 36 -15 c22 -9 67 -15 120 -15 52 0 97 -6 120
-15 20 -8 66 -15 105 -15 38 0 84 -7 105 -15 19 -8 60 -15 89 -15 29 0 72 -7
94 -16 30 -12 55 -15 98 -10 68 9 71 9 237 -2 72 -4 140 -13 152 -20 15 -8 77
-12 195 -12 122 0 186 -4 218 -14 103 -33 142 -39 270 -45 77 -4 144 -12 157
-19 15 -8 79 -12 213 -12 147 0 199 -3 227 -15 19 -8 47 -15 62 -15 41 -1 163
-70 244 -138 17 -15 46 -36 62 -47 17 -10 57 -44 90 -75 33 -31 81 -69 107
-83 26 -15 56 -41 68 -57 12 -17 40 -40 61 -51 22 -11 68 -48 103 -82 35 -34
77 -72 94 -85 17 -12 37 -38 43 -57 l13 -35 68 0 68 0 0 47 0 46 -82 76 c-45
42 -120 115 -166 163 -61 63 -95 90 -125 100 -30 9 -49 24 -70 56 -20 29 -47
52 -86 71 -49 25 -181 133 -203 165 -13 19 11 43 81 80 78 41 79 41 103 111
27 78 23 125 -17 204 -37 75 -88 120 -180 161 -27 13 -58 27 -67 31 -10 5 -85
9 -166 9 l-149 0 -40 -37z m372 -150 c20 -14 36 -39 48 -77 l18 -56 -17 -35
c-21 -44 -64 -76 -112 -82 l-38 -5 -40 53 c-61 82 -104 154 -104 173 0 10 5
26 11 38 l11 20 96 -4 97 -3 30 -22z m-5388 -48 c25 -10 71 -15 153 -15 82 0
128 5 153 15 51 21 303 21 354 0 l35 -15 280 0 279 0 36 -15 c19 -8 46 -15 58
-15 12 0 28 -7 35 -15 l13 -16 -27 -28 c-27 -28 -131 -71 -173 -71 -11 0 -37
-7 -56 -15 l-36 -15 -369 0 -370 0 -35 -15 c-47 -19 -157 -19 -204 0 -26 11
-76 15 -195 15 -118 0 -168 4 -195 15 -19 8 -59 15 -87 15 -83 0 -360 102
-396 145 -10 12 -10 18 0 30 l12 15 350 0 349 0 36 -15z"/>
</g>
</svg>
