<?xml version="1.0" standalone="no"?>
<!DOCTYPE svg PUBLIC "-//W3C//DTD SVG 20010904//EN"
 "http://www.w3.org/TR/2001/REC-SVG-20010904/DTD/svg10.dtd">
<svg version="1.0" xmlns="http://www.w3.org/2000/svg"
 width="708.000000pt" height="237.000000pt" viewBox="0 0 708.000000 237.000000"
 preserveAspectRatio="xMidYMid meet">
<metadata>
Created by potrace 1.16, written by Peter Selinger 2001-2019
</metadata>
<g transform="translate(0.000000,237.000000) scale(0.100000,-0.100000)"
fill="#000000" stroke="none">
<path d="M605 2360 c-4 -6 -70 -10 -166 -10 l-160 0 -61 -21 c-33 -11 -95 -44
-137 -73 l-76 -53 -3 -115 -3 -114 31 -27 c16 -15 41 -44 54 -65 29 -47 81
-92 105 -92 10 0 28 -12 42 -26 13 -14 44 -37 69 -51 25 -13 70 -40 100 -59
30 -19 66 -37 80 -41 14 -3 46 -18 71 -34 25 -16 58 -29 73 -29 15 0 57 -14
93 -30 35 -17 69 -30 74 -30 6 0 36 -12 66 -26 31 -14 91 -36 132 -50 42 -13
100 -36 129 -49 29 -14 64 -25 78 -25 38 0 111 -37 131 -67 10 -14 40 -48 66
-75 35 -35 66 -84 112 -179 l64 -131 -2 -61 -2 -61 -65 -33 c-35 -18 -77 -33
-92 -33 -36 0 -124 -44 -137 -68 -16 -30 12 -59 73 -76 40 -12 61 -13 81 -6
14 5 45 10 68 10 49 0 149 62 215 134 l42 46 0 127 0 128 -26 38 c-14 21 -32
61 -40 89 l-16 51 14 8 c20 13 75 10 115 -6 19 -8 65 -15 102 -15 36 0 86 -6
111 -14 60 -19 125 -35 182 -46 26 -5 56 -13 67 -19 11 -6 45 -11 76 -11 30 0
72 -7 92 -15 20 -8 66 -15 105 -15 38 0 84 -7 105 -15 25 -11 72 -15 165 -15
92 0 139 -4 165 -15 26 -11 76 -15 195 -15 118 0 168 -4 195 -15 51 -22 435
-22 486 0 28 12 80 15 225 15 146 0 198 3 225 15 21 8 67 15 105 15 39 0 85 7
105 15 20 8 49 15 64 15 15 0 48 14 73 30 25 16 51 30 58 30 7 0 57 22 111 49
l99 50 38 53 c41 58 114 137 127 138 13 0 231 -147 278 -188 24 -22 56 -42 71
-46 15 -3 35 -18 45 -32 40 -58 87 -105 112 -111 14 -3 50 -33 81 -65 32 -34
64 -58 76 -58 11 0 31 -12 45 -26 13 -14 42 -35 64 -46 22 -11 60 -37 85 -57
25 -20 64 -49 88 -65 24 -16 62 -46 85 -66 23 -21 61 -47 83 -58 23 -12 66
-43 95 -70 30 -26 88 -70 129 -97 41 -27 95 -68 120 -90 25 -23 65 -53 90 -67
25 -14 54 -36 65 -48 11 -12 33 -29 50 -37 64 -32 185 -119 196 -140 18 -34
89 -32 124 2 l25 26 0 54 c0 33 -4 55 -11 55 -20 0 -83 34 -159 85 -41 28 -95
63 -120 77 -25 14 -55 40 -68 57 -22 30 -107 81 -136 81 -8 0 -24 13 -36 30
-12 16 -46 46 -76 66 -55 37 -154 139 -154 159 0 6 11 22 25 35 31 29 31 48 2
108 -13 26 -34 81 -47 122 -36 114 -127 200 -256 241 -38 12 -82 35 -99 51
-19 16 -42 28 -58 28 -15 0 -44 7 -64 15 -19 8 -63 15 -97 15 l-61 0 -45 -30
c-55 -36 -60 -37 -91 -4 -26 28 -89 64 -112 64 -7 0 -24 12 -38 26 -13 14 -55
47 -94 72 -38 25 -95 70 -125 99 -31 28 -82 70 -115 92 -96 66 -153 54 -200
-39 -29 -57 -31 -93 -10 -145 9 -20 13 -46 9 -58 -11 -37 -44 -77 -64 -77 -10
0 -32 -17 -49 -39 -31 -39 -84 -64 -176 -82 -52 -10 -119 -27 -175 -45 -25 -8
-61 -14 -81 -14 -20 0 -53 -7 -72 -15 -27 -11 -77 -15 -199 -15 l-162 0 -27
-26 -28 -26 -32 11 c-18 6 -99 11 -191 11 -118 0 -168 4 -195 15 -25 11 -72
15 -165 15 -92 0 -139 4 -165 15 -23 10 -69 15 -135 15 -65 0 -111 5 -135 15
-19 8 -60 15 -90 15 -29 0 -70 7 -90 15 -24 10 -70 15 -147 15 -68 0 -128 5
-156 14 -86 27 -135 38 -210 46 -41 4 -106 20 -145 34 -38 14 -87 26 -108 26
-21 0 -54 7 -74 15 -19 8 -55 15 -79 15 -33 0 -46 5 -54 21 l-11 20 30 48 c22
34 31 60 31 89 0 52 -63 243 -96 291 -13 20 -24 44 -24 55 0 10 -22 40 -49 66
-27 27 -59 66 -70 88 -22 43 -55 72 -82 72 -9 0 -29 16 -43 35 -29 38 -111 85
-149 85 -37 0 -125 35 -152 60 -34 32 -119 59 -187 60 -31 0 -60 5 -63 10 -3
6 -42 10 -85 10 -43 0 -82 -4 -85 -10z m232 -165 c19 -8 47 -15 62 -15 14 0
46 -14 71 -30 25 -16 51 -30 58 -30 20 0 82 -30 119 -58 17 -13 47 -28 67 -33
20 -5 44 -21 53 -35 10 -14 30 -40 44 -57 60 -72 139 -201 144 -236 5 -30 16
-71 31 -116 2 -5 0 -16 -5 -23 l-8 -13 -56 16 c-30 9 -78 27 -106 40 -28 14
-56 25 -62 25 -18 0 -81 32 -123 62 -21 15 -46 28 -55 28 -9 0 -29 9 -46 21
-70 47 -125 69 -174 69 l-50 0 -18 -26 c-10 -14 -27 -37 -38 -51 l-21 -25 -37
16 c-21 8 -50 13 -65 10 -21 -4 -33 1 -51 20 -14 14 -31 26 -39 26 -25 0 -86
32 -132 70 -25 20 -82 60 -127 90 -83 56 -113 90 -113 132 0 50 32 75 150 117
l55 19 218 1 c172 1 225 -2 254 -14z m5051 -1072 c31 -15 75 -39 96 -55 21
-15 47 -28 56 -28 29 0 68 -38 85 -85 17 -44 14 -95 -6 -95 -28 0 -143 65
-190 107 -30 27 -67 57 -82 66 -35 22 -52 58 -43 91 8 32 14 32 84 -1z"/>
</g>
</svg>
