<?xml version="1.0" standalone="no"?>
<!DOCTYPE svg PUBLIC "-//W3C//DTD SVG 20010904//EN"
 "http://www.w3.org/TR/2001/REC-SVG-20010904/DTD/svg10.dtd">
<svg version="1.0" xmlns="http://www.w3.org/2000/svg"
 width="612.000000pt" height="183.000000pt" viewBox="0 0 612.000000 183.000000"
 preserveAspectRatio="xMidYMid meet">
<metadata>
Created by potrace 1.16, written by Peter Selinger 2001-2019
</metadata>
<g transform="translate(0.000000,183.000000) scale(0.100000,-0.100000)"
fill="#000000" stroke="none">
<path d="M275 1820 c-3 -5 -13 -10 -21 -10 -25 0 -197 -89 -227 -117 l-27 -27
0 -114 0 -114 28 -35 c44 -56 165 -174 226 -221 32 -24 88 -59 126 -78 38 -19
108 -61 157 -94 48 -33 94 -60 102 -60 8 0 80 -32 159 -71 80 -38 179 -81 221
-95 42 -13 90 -31 106 -39 78 -36 245 -279 245 -356 0 -14 5 -40 11 -56 8 -24
6 -44 -6 -86 -22 -75 -39 -88 -178 -132 -93 -29 -117 -49 -109 -90 l4 -25 119
0 c66 0 127 4 137 8 9 5 44 22 77 38 l60 29 42 80 42 80 1 76 c0 46 -6 91 -15
112 -16 40 -20 124 -6 146 l9 14 83 -26 c109 -32 163 -46 221 -57 26 -5 56
-13 67 -19 12 -7 85 -11 181 -11 120 0 170 -4 197 -15 52 -22 464 -22 516 0
20 8 52 15 72 15 67 0 217 62 326 133 26 18 62 41 80 52 19 12 36 34 43 55 8
25 25 44 61 68 l50 33 55 -7 c30 -4 70 -13 89 -20 18 -8 51 -14 73 -14 22 0
64 -11 94 -25 84 -38 170 -65 209 -65 20 0 52 -7 72 -15 19 -8 60 -15 90 -15
29 0 70 -7 90 -15 22 -9 67 -15 120 -15 52 0 97 -6 120 -15 19 -8 53 -15 75
-15 21 0 55 -7 75 -15 52 -22 464 -22 516 0 20 8 61 15 90 15 l54 0 43 -33
c24 -17 62 -45 84 -61 23 -16 70 -54 106 -86 36 -31 83 -67 106 -78 23 -11 86
-62 140 -112 54 -50 127 -112 161 -138 35 -25 65 -54 69 -64 l6 -19 61 3 62 3
3 42 3 43 -98 92 c-54 51 -116 111 -138 134 -22 23 -61 53 -87 68 -26 14 -56
40 -68 56 -12 17 -40 40 -63 52 -23 11 -60 40 -82 64 -22 23 -64 54 -93 69
-58 30 -85 59 -102 111 l-12 35 31 48 31 48 0 59 c-1 138 -82 244 -248 328
-50 25 -97 46 -103 46 -6 0 -40 14 -76 30 l-64 30 -90 0 c-63 0 -100 -5 -122
-16 -60 -31 -67 -42 -67 -111 0 -77 23 -127 74 -167 20 -15 47 -49 60 -75 28
-54 40 -66 78 -75 15 -3 35 -18 45 -33 10 -15 42 -51 71 -80 28 -30 52 -58 52
-63 0 -38 -144 -55 -217 -25 -24 10 -71 15 -150 15 -78 0 -125 5 -150 15 -19
8 -53 15 -75 15 -21 0 -55 7 -75 15 -20 8 -66 15 -105 15 -38 0 -84 7 -105 15
-19 8 -58 15 -86 15 -34 0 -95 15 -184 45 -73 25 -141 45 -151 45 -10 0 -56
13 -102 30 -47 16 -97 30 -112 30 -15 0 -45 15 -70 35 -73 58 -132 85 -188 85
l-52 0 -29 -29 c-33 -34 -38 -77 -14 -134 8 -20 15 -47 15 -59 0 -25 -80 -153
-108 -174 -21 -16 -103 -44 -157 -55 -52 -10 -119 -27 -175 -45 -62 -19 -328
-19 -390 0 -105 33 -143 39 -285 45 -90 4 -159 11 -172 19 -12 6 -47 12 -78
12 -39 0 -73 8 -111 25 -30 14 -83 34 -117 46 -34 11 -68 27 -76 34 l-14 13
20 29 c50 70 63 110 63 191 l0 79 -29 40 c-16 23 -41 63 -55 89 -32 63 -304
333 -365 364 -24 12 -62 35 -84 51 -22 16 -46 29 -54 29 -8 0 -38 11 -68 25
-30 13 -122 47 -205 75 l-151 50 -99 0 c-55 0 -102 4 -105 10 -3 6 -28 10 -55
10 -27 0 -52 -4 -55 -10z m292 -165 c19 -8 47 -15 62 -15 14 0 68 -20 119 -45
52 -25 98 -45 104 -45 40 0 225 -113 267 -164 7 -9 20 -16 27 -16 7 0 50 -37
95 -82 l82 -83 54 -110 c34 -70 52 -117 47 -128 -10 -26 -50 -31 -97 -13 -24
9 -54 16 -68 16 -13 0 -63 25 -109 56 -46 31 -106 63 -132 70 l-47 14 -55 -25
c-70 -32 -84 -31 -163 5 -35 17 -69 30 -76 30 -6 0 -25 13 -42 29 -16 16 -73
50 -125 77 -102 50 -151 84 -216 149 -22 22 -52 48 -67 58 -15 10 -34 35 -43
55 l-15 37 12 38 c15 46 51 77 89 77 15 0 43 7 61 15 46 19 189 20 236 0z
m4422 -495 c70 -19 210 -108 235 -151 21 -36 21 -122 0 -143 -22 -22 -32 -20
-60 12 -59 66 -85 90 -143 130 -35 25 -61 51 -61 61 0 10 -11 28 -25 41 -34
32 -33 79 1 66 7 -3 31 -10 53 -16z"/>
</g>
</svg>
