<?xml version="1.0" standalone="no"?>
<!DOCTYPE svg PUBLIC "-//W3C//DTD SVG 20010904//EN"
 "http://www.w3.org/TR/2001/REC-SVG-20010904/DTD/svg10.dtd">
<svg version="1.0" xmlns="http://www.w3.org/2000/svg"
 width="636.000000pt" height="183.000000pt" viewBox="0 0 636.000000 183.000000"
 preserveAspectRatio="xMidYMid meet">
<metadata>
Created by potrace 1.16, written by Peter Selinger 2001-2019
</metadata>
<g transform="translate(0.000000,183.000000) scale(0.100000,-0.100000)"
fill="#000000" stroke="none">
<path d="M4115 1820 c-3 -5 -16 -10 -27 -10 -30 0 -108 -81 -108 -113 0 -14
16 -44 36 -69 20 -23 47 -59 60 -79 13 -21 46 -49 76 -67 30 -16 66 -45 80
-63 15 -21 55 -49 104 -73 44 -21 93 -49 109 -61 17 -13 59 -37 95 -55 161
-80 336 -217 378 -295 14 -27 10 -121 -5 -136 -10 -10 -21 -6 -52 14 -59 39
-152 67 -222 67 l-62 0 -59 -58 -58 -59 0 -50 c0 -28 7 -67 15 -86 8 -20 15
-47 15 -61 0 -13 16 -57 35 -97 41 -86 43 -103 13 -123 -30 -20 -167 -66 -195
-66 -12 0 -51 -14 -86 -30 -36 -17 -76 -30 -90 -30 -13 0 -41 -7 -60 -15 -25
-10 -72 -15 -150 -15 -81 0 -125 -5 -152 -16 l-38 -15 -156 5 c-181 7 -151 7
-488 0 l-261 -5 -37 16 c-30 12 -81 15 -257 15 -172 0 -226 3 -255 15 -22 9
-68 15 -122 15 l-86 0 -45 30 -45 30 -55 0 c-30 0 -75 6 -100 14 -100 32 -140
39 -255 46 -92 5 -136 13 -190 33 -38 15 -80 27 -92 27 -36 0 -93 32 -93 52 0
10 4 18 10 18 15 0 90 156 90 189 0 16 -13 58 -30 93 -16 34 -30 69 -30 76 0
7 -11 34 -24 60 -41 79 -340 352 -386 352 -9 0 -36 15 -60 32 -130 98 -165
118 -205 118 -22 0 -60 6 -85 14 -84 27 -135 38 -186 43 l-51 5 -54 -26 c-30
-15 -70 -31 -90 -36 -52 -14 -109 -80 -109 -124 0 -19 -4 -38 -10 -41 -13 -8
-13 -192 0 -200 6 -3 10 -14 10 -23 0 -43 138 -210 213 -258 20 -14 61 -46 90
-72 29 -26 86 -62 127 -81 129 -58 136 -62 188 -107 32 -28 60 -44 77 -44 15
0 56 -14 92 -30 35 -17 70 -30 76 -30 7 0 32 -14 57 -30 32 -22 57 -30 88 -30
23 0 59 -7 79 -15 19 -8 47 -15 60 -15 14 0 54 -14 90 -30 35 -17 81 -30 101
-30 20 0 57 -6 82 -14 60 -19 125 -35 182 -46 26 -5 56 -13 67 -19 11 -6 78
-11 153 -11 l133 0 55 -26 c104 -49 141 -58 335 -83 44 -5 144 -10 222 -10 83
-1 144 -5 148 -11 9 -14 1181 -14 1190 0 3 6 39 10 79 10 43 0 89 6 109 15 20
8 54 15 75 15 22 0 56 7 75 15 20 8 47 15 61 15 14 0 54 13 89 30 36 16 76 30
89 30 35 1 152 44 204 77 94 58 129 73 172 73 23 0 59 9 80 19 39 20 128 125
162 191 l20 39 0 140 c0 186 2 191 68 146 20 -14 43 -25 52 -25 8 0 35 -14 60
-30 25 -16 52 -30 60 -30 23 0 192 -84 240 -119 24 -17 49 -31 57 -31 8 0 44
-13 80 -30 35 -16 69 -30 74 -30 6 0 40 -18 77 -40 37 -23 78 -43 92 -47 14
-3 46 -18 71 -34 25 -16 52 -29 60 -29 8 0 34 -14 59 -30 50 -34 95 -38 140
-15 l30 16 0 54 0 55 -26 0 c-14 0 -51 12 -82 26 -31 15 -77 32 -102 40 -25 7
-67 29 -94 49 -27 19 -57 35 -67 35 -30 0 -479 230 -518 265 -21 19 -45 35
-52 35 -8 0 -56 20 -107 45 -52 25 -99 45 -106 45 -7 0 -25 13 -41 29 -15 17
-37 31 -48 33 -11 2 -23 10 -27 18 -4 8 -29 62 -56 119 -32 68 -67 126 -101
163 -28 32 -57 77 -65 100 -10 33 -25 50 -63 76 -28 19 -63 52 -79 74 -26 36
-89 78 -118 78 -7 0 -30 11 -50 25 -65 44 -176 95 -207 95 -16 0 -33 5 -36 10
-3 6 -48 10 -100 10 -52 0 -97 -4 -100 -10z m265 -198 c54 -26 232 -147 258
-175 18 -19 62 -93 62 -104 0 -19 -127 27 -166 61 -21 18 -59 44 -84 57 -76
42 -154 95 -185 128 l-30 32 15 9 c24 15 92 11 130 -8z m-3849 -375 c74 -25
104 -41 136 -72 22 -22 67 -59 99 -83 33 -24 87 -63 122 -88 37 -27 62 -53 62
-64 0 -10 19 -33 43 -52 23 -18 48 -40 55 -48 14 -17 72 -130 92 -178 l12 -32
-38 -40 c-25 -25 -48 -40 -64 -40 -13 0 -43 -7 -67 -16 l-42 -16 -96 46 c-54
25 -109 46 -124 46 -17 0 -37 10 -52 26 -13 14 -58 44 -99 66 -125 65 -201
119 -277 196 -40 39 -73 76 -73 81 0 5 -13 38 -30 73 -16 34 -30 74 -30 87 0
34 36 88 78 116 l37 25 80 0 c64 0 99 -7 176 -33z m4234 -608 c24 -17 46 -38
49 -46 11 -27 -29 -73 -64 -73 -6 0 -22 11 -35 25 -25 24 -33 73 -19 109 9 23
20 20 69 -15z"/>
</g>
</svg>
