<?xml version="1.0" standalone="no"?>
<!DOCTYPE svg PUBLIC "-//W3C//DTD SVG 20010904//EN"
 "http://www.w3.org/TR/2001/REC-SVG-20010904/DTD/svg10.dtd">
<svg version="1.0" xmlns="http://www.w3.org/2000/svg"
 width="612.000000pt" height="219.000000pt" viewBox="0 0 612.000000 219.000000"
 preserveAspectRatio="xMidYMid meet">
<metadata>
Created by potrace 1.16, written by Peter Selinger 2001-2019
</metadata>
<g transform="translate(0.000000,219.000000) scale(0.100000,-0.100000)"
fill="#000000" stroke="none">
<path d="M2955 2148 c-57 -77 -85 -132 -84 -168 0 -57 60 -151 185 -289 34
-37 73 -85 87 -107 29 -45 84 -98 145 -139 54 -36 214 -203 209 -219 -2 -7
-45 -12 -126 -14 l-121 -3 -66 31 -65 30 -130 0 c-93 0 -140 4 -166 15 -26 11
-76 15 -195 15 -118 0 -168 4 -195 15 -22 9 -67 15 -120 15 -52 0 -97 6 -120
15 -23 10 -69 15 -135 15 -65 0 -111 5 -135 15 -19 8 -61 15 -92 15 l-57 0
-29 30 -29 30 -193 0 c-150 0 -202 3 -230 15 -24 10 -71 15 -150 15 -78 0
-125 5 -150 15 -26 11 -74 15 -180 15 -105 0 -153 4 -180 15 -24 10 -70 15
-147 15 l-112 0 -84 30 -85 30 -102 0 -103 0 0 -55 0 -55 25 0 c14 0 42 -7 62
-15 19 -8 52 -15 72 -15 20 0 56 -6 81 -14 112 -35 145 -39 360 -45 152 -4
232 -10 247 -18 13 -8 60 -13 123 -13 67 0 113 -5 137 -15 22 -9 67 -15 120
-15 52 0 97 -6 120 -15 20 -8 66 -15 105 -15 38 0 84 -7 105 -15 20 -8 66 -15
105 -15 38 0 84 -7 105 -15 20 -8 66 -15 105 -15 38 0 84 -7 105 -15 23 -10
69 -15 135 -15 65 0 111 -5 135 -15 20 -8 66 -15 105 -15 38 0 84 -7 105 -15
20 -8 66 -15 105 -15 38 0 84 -7 105 -15 25 -11 72 -15 165 -15 92 0 139 -4
165 -15 19 -8 53 -15 75 -15 21 0 55 -7 75 -15 26 -11 76 -15 195 -15 118 0
168 -4 195 -15 20 -9 66 -15 107 -15 55 0 78 -5 101 -21 17 -11 55 -33 86 -49
31 -16 80 -51 110 -77 30 -27 70 -59 90 -72 20 -13 46 -40 59 -60 36 -55 61
-81 104 -108 22 -14 60 -44 85 -67 25 -24 79 -64 119 -90 41 -27 83 -64 96
-85 13 -20 43 -49 67 -64 25 -16 54 -42 67 -60 12 -18 46 -58 75 -89 l54 -58
65 0 c36 0 82 7 101 15 20 8 48 15 62 15 43 0 123 47 149 88 13 20 39 56 58
79 20 23 46 67 59 98 12 30 28 55 34 55 6 0 36 -22 66 -49 29 -26 87 -65 127
-86 44 -23 85 -54 103 -77 19 -24 44 -41 67 -48 60 -16 144 -59 192 -100 25
-21 70 -50 99 -65 29 -16 58 -36 64 -46 27 -43 116 0 117 56 0 25 -108 124
-170 155 -25 12 -64 38 -88 58 -68 54 -136 99 -203 134 -34 17 -78 45 -98 63
-20 18 -50 40 -67 48 -33 17 -145 92 -201 135 l-33 24 0 62 -1 61 -42 80 c-68
126 -74 137 -95 186 -13 29 -36 58 -60 75 -21 15 -51 45 -66 66 -15 21 -49 49
-75 63 -27 13 -73 46 -103 74 -58 53 -147 91 -213 91 -20 0 -52 7 -72 15 -50
21 -86 19 -143 -10 -61 -31 -80 -58 -80 -112 0 -55 29 -102 101 -165 74 -65
110 -100 138 -137 12 -18 62 -57 109 -88 48 -32 110 -79 139 -105 29 -26 62
-48 74 -48 25 0 69 -43 69 -68 0 -24 27 -47 64 -56 17 -4 42 -16 58 -27 l28
-20 0 -86 c0 -108 -15 -141 -88 -193 -61 -44 -89 -48 -142 -22 -63 31 -150 92
-166 117 -8 13 -41 43 -72 66 -31 23 -79 66 -105 95 -33 37 -60 57 -87 64 -24
6 -47 21 -57 37 -27 41 -124 135 -171 166 -23 15 -58 48 -79 74 l-37 45 19 15
c11 8 40 20 64 26 l45 12 43 59 43 58 0 56 c0 43 -8 72 -32 122 -17 36 -38 80
-47 99 -15 32 -82 108 -183 209 -24 23 -56 56 -73 72 -117 119 -145 144 -187
165 -25 14 -80 55 -120 93 -52 48 -85 71 -110 76 -20 3 -55 23 -79 44 -26 22
-69 45 -104 56 -33 11 -64 23 -70 28 -5 4 -77 8 -160 8 l-150 -1 -30 -41z
m244 -128 c24 -11 61 -20 83 -20 47 0 133 -38 181 -79 19 -17 55 -45 80 -63
145 -104 175 -127 216 -169 25 -25 62 -58 82 -73 20 -14 50 -46 65 -69 16 -23
50 -66 77 -96 57 -64 69 -86 93 -170 l17 -64 -22 -19 -23 -18 -100 0 c-115 0
-153 13 -193 66 -14 19 -44 43 -66 55 -22 11 -68 49 -103 84 -34 36 -70 65
-80 65 -17 0 -65 43 -246 225 -25 25 -57 56 -72 70 -20 17 -28 33 -28 56 0 26
-9 42 -45 75 l-45 41 0 46 c0 36 5 49 22 61 29 21 54 20 107 -4z m1421 -736
c80 -25 145 -63 184 -110 21 -24 55 -56 76 -69 57 -36 152 -187 132 -207 -5
-5 -21 1 -38 15 -16 13 -92 65 -169 116 -77 52 -153 104 -170 118 -16 13 -43
34 -58 46 -17 13 -31 37 -37 61 -10 46 -5 60 19 50 9 -3 36 -13 61 -20z"/>
</g>
</svg>
