<?xml version="1.0" standalone="no"?>
<!DOCTYPE svg PUBLIC "-//W3C//DTD SVG 20010904//EN"
 "http://www.w3.org/TR/2001/REC-SVG-20010904/DTD/svg10.dtd">
<svg version="1.0" xmlns="http://www.w3.org/2000/svg"
 width="273.000000pt" height="120.000000pt" viewBox="0 0 273.000000 120.000000"
 preserveAspectRatio="xMidYMid meet">
<metadata>
Created by potrace 1.16, written by Peter Selinger 2001-2019
</metadata>
<g transform="translate(0.000000,120.000000) scale(0.100000,-0.100000)"
fill="#000000" stroke="none">
<path d="M1344 1078 c3 -68 6 -134 7 -148 3 -39 -18 -131 -37 -169 -9 -19 -25
-55 -34 -80 -10 -29 -25 -50 -40 -57 -60 -29 -150 -65 -205 -84 l-59 -20 -198
0 c-154 0 -207 3 -235 15 -20 8 -66 15 -105 15 -38 0 -84 7 -105 15 -19 8 -45
15 -57 15 -11 0 -41 6 -66 14 -95 30 -135 36 -173 24 -45 -14 -53 -52 -12 -62
13 -3 36 -22 51 -42 34 -45 91 -74 144 -74 22 0 57 -7 77 -15 22 -9 67 -15
120 -15 52 0 97 -6 120 -15 51 -22 435 -22 486 0 20 8 55 15 77 15 96 0 331
155 380 251 26 50 60 154 60 183 0 15 8 30 21 37 l21 11 63 -31 c36 -18 74
-46 89 -66 15 -19 46 -45 69 -56 23 -12 66 -48 96 -80 37 -41 66 -62 92 -69
22 -6 46 -22 56 -37 32 -45 144 -142 204 -173 13 -7 80 -68 149 -135 69 -66
142 -132 163 -145 20 -14 45 -42 55 -62 l17 -37 35 -1 35 0 12 27 c14 29 18
133 5 133 -4 0 -54 45 -111 100 -58 56 -136 121 -173 147 -38 25 -76 55 -84
68 -14 22 -106 97 -174 143 -19 13 -60 47 -90 76 -30 29 -71 63 -90 75 -20 13
-48 41 -63 62 -27 37 -90 79 -119 79 -7 0 -32 22 -55 49 -23 27 -66 62 -95 79
-29 17 -82 60 -118 96 l-65 66 -73 0 -74 0 6 -122z"/>
</g>
</svg>
