<?xml version="1.0" standalone="no"?>
<!DOCTYPE svg PUBLIC "-//W3C//DTD SVG 20010904//EN"
 "http://www.w3.org/TR/2001/REC-SVG-20010904/DTD/svg10.dtd">
<svg version="1.0" xmlns="http://www.w3.org/2000/svg"
 width="195.000000pt" height="267.000000pt" viewBox="0 0 195.000000 267.000000"
 preserveAspectRatio="xMidYMid meet">
<metadata>
Created by potrace 1.16, written by Peter Selinger 2001-2019
</metadata>
<g transform="translate(0.000000,267.000000) scale(0.100000,-0.100000)"
fill="#000000" stroke="none">
<path d="M215 2660 c-3 -5 -26 -10 -51 -10 -30 0 -64 -10 -104 -30 l-60 -30 0
-70 0 -70 33 0 c19 0 50 12 77 30 l45 30 83 0 c51 0 96 -6 119 -15 19 -8 45
-15 57 -15 12 0 60 -13 106 -30 47 -16 94 -30 105 -30 48 0 223 -72 279 -114
17 -13 54 -36 82 -50 48 -25 144 -122 144 -146 0 -21 43 -95 81 -140 68 -80
84 -154 57 -256 l-13 -46 20 -14 c27 -20 79 -18 98 4 10 10 17 31 17 46 0 14
7 43 15 63 8 19 15 63 15 97 l0 62 -34 48 c-18 26 -36 65 -40 86 -4 25 -14 43
-31 54 -13 9 -40 41 -60 71 -79 124 -153 185 -332 274 -132 66 -404 161 -459
161 -19 0 -51 7 -71 15 -19 8 -48 15 -64 15 -15 0 -31 5 -34 10 -3 6 -21 10
-40 10 -19 0 -37 -4 -40 -10z"/>
<path d="M272 2058 c-30 -10 -70 -30 -90 -43 -20 -14 -44 -25 -53 -25 -69 0
-106 -251 -58 -393 11 -34 31 -75 43 -92 13 -16 33 -50 46 -75 30 -60 76 -126
121 -175 20 -22 58 -71 84 -110 26 -38 67 -90 91 -115 68 -69 136 -137 169
-170 17 -16 45 -47 64 -70 19 -23 47 -43 65 -48 23 -6 40 -22 67 -67 26 -44
50 -68 87 -90 28 -16 64 -45 79 -63 15 -18 55 -48 88 -65 40 -22 69 -46 88
-75 l29 -43 99 -50 c55 -27 117 -65 138 -84 21 -19 45 -35 53 -35 22 0 190
-84 238 -119 27 -20 55 -31 76 -31 18 0 36 -4 39 -10 9 -14 56 -13 88 3 41 19
33 45 -33 104 l-60 55 6 36 c4 29 1 43 -16 65 -39 49 -90 28 -90 -37 0 -15 -6
-26 -13 -26 -14 0 -85 37 -168 88 -30 18 -65 35 -79 38 -14 4 -38 19 -55 34
-16 15 -41 33 -55 40 -65 32 -179 117 -201 148 -13 19 -41 45 -62 59 -21 13
-72 57 -112 96 -41 40 -89 86 -107 104 -18 17 -43 45 -56 62 -13 17 -48 47
-77 67 -30 19 -70 57 -89 82 -19 26 -48 57 -65 70 -17 12 -42 44 -55 71 -14
26 -41 60 -61 75 -23 18 -50 56 -77 109 -22 45 -62 105 -88 133 -61 68 -90
151 -90 260 1 125 42 194 117 194 24 0 44 10 73 36 41 37 51 69 28 92 -17 17
-104 12 -166 -10z"/>
</g>
</svg>
