<?xml version="1.0" encoding="UTF-8" standalone="no"?>
<!-- Created with Inkscape (http://www.inkscape.org/) -->

<svg
   version="1.1"
   id="svg1"
   width="315.74408"
   height="363.33014"
   viewBox="0 0 315.74408 363.33014"
   xmlns="http://www.w3.org/2000/svg"
   xmlns:svg="http://www.w3.org/2000/svg">
  <defs
     id="defs1" />
  <g
     id="g1"
     transform="translate(-0.1104108,-0.20360547)">
    <path
       style="fill:#000000"
       d="m 293.26963,360.09489 c -17.529,-7.29928 -34.04663,-18.89823 -43.22768,-30.35522 -4.95586,-6.18438 -5.28158,-6.39291 -14.92061,-9.55237 C 153.9458,293.57982 28.620961,177.66044 5.5420468,107.83763 -27.370449,8.2643449 97.400531,-42.093573 161.77975,44.77965 196.78754,92.019118 210.23664,158.90253 187,170.20197 c -6.29641,3.0618 -7.4078,2.49384 -4.79809,-2.45197 C 193.10186,147.09291 177.09383,92.971136 148.79521,54.804786 101.32619,-9.216673 13,-1.5026638 13,66.664524 13,128.40603 99.489654,228.29892 205.87319,289.42714 233.07559,305.05769 235,305.75478 235,299.97792 c 0,-19.07353 22.48329,-30.61799 41.55519,-21.33729 28.6224,13.92813 26.86902,43.58764 -2.79145,47.21888 -8.26967,1.01243 12.17052,15.60822 33.73806,24.09143 9.25196,3.6391 9.25196,3.6391 7.35343,7.3397 -3.79834,7.40374 -8.93691,8.0713 -21.5856,2.80425 z M 284.97804,313.25 c -0.17795,-14.1794 -35.65752,-36.53276 -36.77818,-23.17152 -0.83887,10.00158 7.16306,22.24738 15.46503,23.66701 10.51722,1.79843 21.33878,1.54685 21.31315,-0.49549 z"
       id="path1" />
  </g>
</svg>
