<?xml version="1.0" standalone="no"?>
<!DOCTYPE svg PUBLIC "-//W3C//DTD SVG 20010904//EN"
 "http://www.w3.org/TR/2001/REC-SVG-20010904/DTD/svg10.dtd">
<svg version="1.0" xmlns="http://www.w3.org/2000/svg"
 width="534.000000pt" height="285.000000pt" viewBox="0 0 534.000000 285.000000"
 preserveAspectRatio="xMidYMid meet">
<metadata>
Created by potrace 1.16, written by Peter Selinger 2001-2019
</metadata>
<g transform="translate(0.000000,285.000000) scale(0.100000,-0.100000)"
fill="#000000" stroke="none">
<path d="M2137 2801 c-21 -60 -22 -105 -1 -122 19 -16 112 -48 139 -49 50 0
141 -43 181 -83 22 -23 57 -57 77 -75 20 -19 44 -54 53 -79 l18 -45 -14 -42
c-10 -30 -15 -122 -17 -343 l-4 -302 21 -62 c22 -65 75 -174 109 -224 12 -16
21 -37 21 -45 0 -17 56 -102 112 -171 19 -24 46 -64 58 -89 12 -25 42 -66 65
-91 23 -25 54 -64 68 -86 24 -37 52 -64 111 -105 27 -20 73 -104 62 -115 -3
-4 -26 -1 -49 6 -23 7 -60 16 -82 20 -49 9 -126 35 -181 61 -60 27 -251 90
-276 90 -11 0 -60 18 -107 41 -47 22 -140 58 -206 80 -132 43 -155 53 -200 85
-46 33 -112 64 -136 64 -34 0 -236 70 -322 112 -43 21 -88 38 -100 38 -32 0
-226 68 -256 90 -30 21 -231 90 -262 90 -11 0 -50 13 -86 30 -35 16 -70 30
-76 30 -7 0 -68 27 -135 60 -68 33 -129 60 -135 60 -7 0 -41 14 -75 30 -35 17
-68 30 -74 30 -5 0 -39 14 -75 30 -35 17 -76 30 -91 30 -15 0 -56 14 -90 30
-49 23 -78 30 -123 30 l-59 0 0 -23 c0 -25 100 -117 129 -117 9 0 30 -9 46
-21 75 -51 185 -99 227 -99 31 0 56 -9 88 -30 25 -16 58 -30 74 -30 16 0 50
-13 75 -29 129 -82 444 -210 517 -211 32 0 46 -6 69 -30 16 -17 35 -30 43 -30
7 0 38 -11 68 -25 68 -31 168 -65 192 -65 27 0 133 -39 162 -60 15 -10 82 -37
151 -60 143 -47 211 -77 270 -120 23 -16 54 -30 68 -30 35 0 228 -66 260 -90
30 -21 231 -90 263 -90 11 0 59 -18 106 -41 96 -45 280 -109 315 -109 12 0 42
-14 67 -30 25 -16 52 -30 60 -30 8 0 35 -14 60 -30 25 -16 58 -30 73 -30 39 0
88 -24 122 -60 16 -17 35 -30 42 -30 8 0 44 -18 81 -40 37 -23 78 -44 92 -47
14 -3 50 -20 80 -38 30 -18 69 -41 87 -51 17 -11 66 -40 109 -66 73 -46 125
-60 139 -38 3 6 15 10 26 10 11 0 34 13 50 29 l29 29 0 57 0 57 -29 29 c-16
16 -37 29 -46 29 -23 0 -139 55 -178 84 -18 13 -65 41 -104 61 -42 22 -84 53
-99 72 -14 18 -51 46 -82 62 -31 16 -80 49 -107 73 -72 61 -242 243 -259 276
-8 15 -45 57 -83 93 -37 35 -90 93 -118 128 -60 76 -60 77 -76 121 -8 19 -28
51 -45 70 -35 39 -124 182 -124 200 0 6 -14 39 -32 73 -20 38 -35 87 -40 127
-18 144 -25 186 -36 213 -17 42 -15 179 4 226 11 29 14 63 11 133 -4 93 -10
120 -51 253 l-21 69 -43 29 c-83 56 -49 77 123 77 89 0 136 -4 162 -15 25 -11
72 -15 165 -15 92 0 139 -4 165 -15 19 -8 60 -15 90 -15 29 0 70 -7 90 -15 19
-8 49 -15 65 -15 17 0 39 -10 53 -25 l25 -24 0 -63 c1 -79 14 -103 112 -211
l77 -84 68 -20 c37 -12 88 -26 113 -34 25 -7 110 -14 190 -16 l145 -3 50 27
c52 29 92 85 104 147 5 21 13 32 27 34 27 4 138 -52 193 -97 25 -20 69 -50
100 -66 32 -18 67 -48 85 -73 17 -24 45 -52 63 -62 18 -11 43 -37 57 -58 13
-22 44 -57 69 -78 l44 -39 22 -69 c12 -38 31 -82 43 -98 l21 -30 -23 -71 c-29
-96 -34 -131 -21 -156 36 -66 161 34 161 128 0 16 5 33 10 36 6 3 10 35 10 70
0 35 -4 67 -10 70 -5 3 -10 20 -10 36 0 42 -65 166 -115 220 -23 25 -54 64
-68 86 -14 23 -63 72 -108 109 -45 38 -103 88 -128 110 -25 23 -66 52 -91 64
-25 12 -66 39 -91 61 -45 37 -146 79 -190 79 -12 0 -61 18 -108 41 -80 38
-138 58 -251 89 -25 7 -85 15 -135 19 -49 4 -100 12 -112 19 -12 7 -32 12 -45
12 -13 0 -62 13 -108 30 -47 16 -101 30 -120 30 -19 0 -55 6 -80 14 -105 33
-143 39 -285 45 -90 4 -159 11 -172 19 -15 8 -82 12 -232 12 -129 0 -212 4
-216 10 -4 6 -101 10 -258 10 l-252 0 -18 -49z m1868 -341 c94 -32 177 -76
209 -109 l29 -30 -13 -16 c-18 -22 -122 -20 -195 5 -89 31 -103 40 -142 92
l-35 48 12 15 c17 21 65 19 135 -5z"/>
</g>
</svg>
