<?xml version="1.0" standalone="no"?>
<!DOCTYPE svg PUBLIC "-//W3C//DTD SVG 20010904//EN"
 "http://www.w3.org/TR/2001/REC-SVG-20010904/DTD/svg10.dtd">
<svg version="1.0" xmlns="http://www.w3.org/2000/svg"
 width="309.000000pt" height="123.000000pt" viewBox="0 0 309.000000 123.000000"
 preserveAspectRatio="xMidYMid meet">
<metadata>
Created by potrace 1.16, written by Peter Selinger 2001-2019
</metadata>
<g transform="translate(0.000000,123.000000) scale(0.100000,-0.100000)"
fill="#000000" stroke="none">
<path d="M1516 1177 l-56 -53 0 -38 c0 -26 10 -55 29 -85 16 -25 31 -58 35
-72 11 -47 220 -219 267 -219 16 0 47 -7 69 -16 l40 -16 70 22 69 22 65 68 66
68 0 36 c0 45 36 86 76 86 36 0 86 -25 119 -60 16 -17 35 -30 44 -30 30 0 143
-63 164 -92 23 -31 144 -118 165 -118 6 0 50 -39 97 -86 60 -62 86 -95 91
-119 3 -18 19 -46 35 -61 l29 -28 0 -85 0 -86 -30 -63 c-19 -41 -30 -80 -30
-108 l0 -44 43 0 42 1 28 43 c15 24 27 51 27 59 0 9 5 19 10 22 6 4 10 78 10
190 0 112 -4 186 -10 190 -5 3 -10 14 -10 24 0 22 -99 147 -143 180 -17 13
-48 39 -67 57 -47 44 -151 114 -170 114 -8 0 -34 23 -58 50 -39 45 -123 100
-153 100 -7 0 -50 18 -97 40 -47 23 -153 63 -236 90 -83 28 -159 55 -168 60
-10 6 -101 10 -212 10 l-194 0 -56 -53z m358 -98 c97 -33 126 -65 126 -142 0
-74 -11 -87 -73 -87 -51 0 -158 31 -185 53 -8 6 -25 34 -39 61 -14 28 -34 57
-44 64 -25 17 -24 37 3 56 33 23 138 21 212 -5z"/>
<path d="M1264 506 c-48 -48 -56 -82 -26 -109 l19 -17 119 0 119 0 45 -30 c25
-16 51 -30 58 -30 23 0 97 -38 116 -59 10 -11 15 -25 11 -30 -10 -17 -179 -14
-222 4 -23 10 -69 15 -135 15 -65 0 -111 5 -135 15 -20 8 -66 15 -105 15 -38
0 -84 7 -105 15 -22 9 -67 15 -120 15 -52 0 -97 6 -120 15 -22 9 -67 15 -120
15 -52 0 -97 6 -120 15 -24 10 -71 15 -150 15 -78 0 -125 5 -150 15 -47 20
-175 20 -213 0 -45 -23 -40 -57 12 -95 31 -22 52 -30 85 -30 24 0 60 -7 80
-15 27 -11 77 -15 210 -15 132 0 182 -4 210 -15 19 -8 60 -15 90 -15 29 0 70
-7 90 -15 23 -10 69 -15 132 -15 100 0 163 -15 261 -63 l45 -22 215 -7 c118
-4 231 -8 250 -9 63 -2 164 17 207 39 53 28 73 56 73 107 l0 40 -75 70 c-59
55 -87 74 -132 88 -32 9 -67 17 -78 17 -11 0 -62 20 -113 45 -52 25 -105 45
-118 45 -14 0 -41 7 -61 15 -19 8 -51 15 -71 15 l-35 0 -43 -44z"/>
</g>
</svg>
