<?xml version="1.0" standalone="no"?>
<!DOCTYPE svg PUBLIC "-//W3C//DTD SVG 20010904//EN"
 "http://www.w3.org/TR/2001/REC-SVG-20010904/DTD/svg10.dtd">
<svg version="1.0" xmlns="http://www.w3.org/2000/svg"
 width="954.000000pt" height="198.000000pt" viewBox="0 0 954.000000 198.000000"
 preserveAspectRatio="xMidYMid meet">
<metadata>
Created by potrace 1.16, written by Peter Selinger 2001-2019
</metadata>
<g transform="translate(0.000000,198.000000) scale(0.100000,-0.100000)"
fill="#000000" stroke="none">
<path d="M335 1970 c-3 -5 -24 -10 -46 -10 -73 0 -156 -36 -225 -98 l-64 -57
0 -112 0 -113 33 0 c40 0 52 13 97 98 38 71 72 101 127 108 21 3 55 12 76 20
54 20 364 20 414 -1 19 -8 48 -15 63 -15 15 0 44 7 63 15 20 8 59 15 87 15 28
0 67 -7 87 -15 22 -9 68 -15 122 -15 l86 0 55 -26 c68 -31 163 -64 188 -64 10
0 56 -13 102 -30 47 -16 101 -30 120 -30 38 0 215 -57 298 -95 36 -17 70 -25
108 -25 30 0 71 -7 91 -15 19 -8 60 -15 90 -15 29 0 70 -7 90 -15 58 -24 132
-19 245 19 57 19 121 42 142 51 22 9 52 14 66 11 34 -6 146 -82 230 -156 36
-31 80 -65 98 -76 18 -10 50 -42 71 -69 l38 -51 -56 -13 c-91 -21 -151 -58
-151 -93 0 -10 16 -50 35 -88 25 -50 46 -77 73 -93 20 -13 76 -62 123 -108 91
-89 252 -206 303 -220 17 -5 53 -27 80 -49 l48 -40 64 0 c49 0 77 6 114 25 70
35 80 54 80 150 l0 80 -39 57 c-21 31 -53 75 -71 98 l-32 40 12 15 c16 19 71
19 117 0 26 -11 74 -15 180 -15 105 0 153 -4 180 -15 26 -11 76 -15 195 -15
118 0 168 -4 195 -15 l35 -15 370 0 369 0 36 -15 c23 -10 69 -15 135 -15 65 0
111 -5 135 -15 25 -11 72 -15 165 -15 92 0 139 -4 165 -15 22 -9 67 -15 120
-15 52 0 97 -6 120 -15 26 -11 76 -15 195 -15 118 0 168 -4 195 -15 28 -12 84
-15 270 -15 185 0 241 -3 270 -15 23 -10 69 -15 135 -15 65 0 111 -5 135 -15
25 -11 72 -15 165 -15 92 0 139 -4 165 -15 23 -10 69 -15 135 -15 l100 0 65
-30 c35 -16 70 -30 77 -30 8 0 39 -34 70 -75 32 -43 64 -75 74 -75 9 0 36 -23
60 -50 24 -28 66 -62 95 -76 29 -15 71 -42 95 -61 61 -50 131 -97 181 -123 24
-12 60 -34 81 -49 20 -14 57 -35 81 -45 24 -10 52 -22 61 -27 10 -5 89 -9 176
-9 168 0 198 6 250 53 l22 20 0 72 0 72 -62 -22 c-35 -12 -84 -31 -110 -43
-68 -32 -135 -29 -215 8 -35 16 -69 30 -75 30 -21 0 -85 35 -128 70 -25 21
-65 47 -89 59 -24 13 -62 36 -84 52 -22 16 -46 29 -54 29 -8 0 -40 26 -71 57
-32 32 -70 66 -85 76 -16 11 -38 39 -50 63 l-21 44 30 31 c16 17 53 46 81 65
29 19 57 43 63 54 17 32 12 196 -6 233 -45 86 -200 217 -257 217 -15 0 -44 7
-64 15 -47 20 -72 19 -145 -6 -153 -51 -168 -69 -168 -197 l0 -93 31 -60 c16
-33 29 -70 27 -82 l-3 -22 -77 -3 c-52 -2 -88 2 -114 13 -28 11 -75 15 -196
15 -118 0 -168 4 -195 15 -25 11 -72 15 -165 15 -92 0 -139 4 -165 15 -19 8
-60 15 -90 15 -29 0 -70 7 -90 15 -27 12 -79 15 -225 15 -145 0 -197 3 -225
15 -27 12 -81 15 -240 15 -158 0 -212 3 -240 15 -26 11 -74 15 -180 15 -105 0
-153 4 -180 15 -20 8 -66 15 -104 15 -37 0 -80 5 -95 10 -15 6 -77 13 -138 17
-61 3 -126 12 -145 19 -43 18 -80 18 -124 -1 -46 -19 -128 -19 -174 0 -23 10
-69 15 -135 15 -65 0 -111 5 -135 15 -28 12 -82 15 -255 15 -172 0 -226 3
-255 15 -23 10 -69 15 -135 15 -65 0 -111 5 -135 15 -20 8 -66 15 -105 15 -80
0 -121 15 -188 69 -25 20 -58 45 -75 55 -16 11 -50 38 -75 61 -25 22 -65 54
-90 70 -24 17 -68 54 -97 82 -29 29 -61 53 -72 53 -11 0 -29 13 -41 30 -11 16
-53 51 -93 77 -40 26 -92 63 -116 82 -151 119 -207 137 -262 82 l-29 -29 0
-51 0 -50 -31 -22 c-41 -29 -113 -36 -163 -15 -23 9 -67 16 -108 16 -38 0 -84
7 -105 15 -19 8 -52 15 -71 15 -20 0 -96 20 -169 45 -73 25 -141 45 -151 45
-10 0 -56 13 -102 30 -60 21 -104 30 -149 30 -48 0 -98 11 -200 44 -194 63
-217 68 -306 73 -44 2 -84 9 -89 14 -14 13 -643 12 -651 -1z m8024 -892 c95
-31 113 -47 135 -116 22 -69 17 -98 -20 -136 -55 -54 -104 -47 -178 27 -39 39
-57 68 -73 116 -25 73 -21 90 29 114 41 20 30 21 107 -5z m-4786 -87 c28 -13
71 -52 127 -116 108 -123 132 -158 125 -178 -15 -38 -62 -28 -122 26 -21 19
-52 38 -69 41 -17 4 -55 27 -83 51 -28 24 -64 53 -80 65 -45 32 -75 85 -61
110 l11 20 55 0 c33 0 72 -8 97 -19z"/>
</g>
</svg>
