<?xml version="1.0" standalone="no"?>
<!DOCTYPE svg PUBLIC "-//W3C//DTD SVG 20010904//EN"
 "http://www.w3.org/TR/2001/REC-SVG-20010904/DTD/svg10.dtd">
<svg version="1.0" xmlns="http://www.w3.org/2000/svg"
 width="183.000000pt" height="231.000000pt" viewBox="0 0 183.000000 231.000000"
 preserveAspectRatio="xMidYMid meet">
<metadata>
Created by potrace 1.16, written by Peter Selinger 2001-2019
</metadata>
<g transform="translate(0.000000,231.000000) scale(0.100000,-0.100000)"
fill="#000000" stroke="none">
<path d="M125 2300 c-3 -5 -16 -10 -27 -10 -12 0 -38 -18 -60 -42 l-38 -41 0
-179 c0 -98 4 -186 9 -196 45 -90 131 -280 131 -290 0 -7 38 -88 85 -180 60
-119 102 -187 145 -237 33 -38 74 -94 91 -123 18 -29 45 -63 61 -75 17 -12 42
-42 56 -67 33 -59 59 -87 104 -116 21 -13 49 -42 63 -63 14 -23 44 -50 73 -66
27 -14 73 -53 101 -86 29 -33 71 -71 92 -85 22 -13 64 -46 94 -72 96 -84 220
-173 301 -216 27 -15 76 -44 109 -64 33 -21 80 -46 105 -56 25 -10 53 -22 62
-27 10 -5 47 -9 83 -9 l65 0 0 48 0 48 -57 18 c-32 11 -74 29 -93 41 -20 13
-58 34 -85 48 -28 14 -72 44 -99 66 -26 23 -56 41 -66 41 -9 0 -36 15 -60 33
-24 17 -62 46 -86 62 -54 38 -123 98 -182 156 -26 25 -64 56 -85 68 -24 15
-50 44 -69 77 -32 57 -61 84 -90 84 -11 0 -32 21 -52 53 -19 28 -66 85 -105
126 -40 41 -79 88 -88 105 -9 17 -33 51 -53 76 -46 57 -100 143 -100 160 0 8
-24 50 -54 95 -55 83 -96 178 -96 224 0 13 -14 45 -30 71 -30 47 -32 73 -5 84
15 5 135 -33 194 -63 22 -12 59 -21 81 -21 22 0 57 -7 77 -15 21 -9 67 -15
113 -15 l78 0 61 45 61 45 0 37 c-1 56 -56 151 -108 186 -44 30 -47 53 -6 43
13 -4 40 -17 60 -31 20 -14 43 -25 51 -25 24 0 125 -50 198 -98 84 -56 223
-183 248 -226 28 -50 24 -201 -8 -295 l-25 -74 15 -23 c29 -44 88 -41 150 8
20 15 25 29 25 64 0 25 7 61 15 81 19 45 19 81 0 126 -8 20 -15 55 -15 78 0
111 -166 307 -330 389 -25 12 -66 40 -92 61 -31 26 -73 48 -127 65 -45 14
-131 50 -191 80 -61 30 -122 54 -136 54 -13 0 -41 7 -61 15 -19 8 -48 15 -64
15 -15 0 -31 5 -34 10 -4 6 -78 10 -190 10 -112 0 -186 -4 -190 -10z m221
-201 c35 -12 80 -36 101 -54 21 -18 72 -49 113 -70 77 -40 150 -99 150 -122 0
-10 -24 -13 -97 -13 l-96 0 -46 29 c-25 16 -59 32 -75 35 -15 4 -52 31 -81 60
-61 60 -92 121 -74 142 15 19 32 18 105 -7z"/>
</g>
</svg>
