<?xml version="1.0" standalone="no"?>
<!DOCTYPE svg PUBLIC "-//W3C//DTD SVG 20010904//EN"
 "http://www.w3.org/TR/2001/REC-SVG-20010904/DTD/svg10.dtd">
<svg version="1.0" xmlns="http://www.w3.org/2000/svg"
 width="165.000000pt" height="108.000000pt" viewBox="0 0 165.000000 108.000000"
 preserveAspectRatio="xMidYMid meet">
<metadata>
Created by potrace 1.16, written by Peter Selinger 2001-2019
</metadata>
<g transform="translate(0.000000,108.000000) scale(0.100000,-0.100000)"
fill="#000000" stroke="none">
<path d="M275 1070 c-3 -5 -14 -10 -24 -10 -28 0 -71 -39 -71 -64 0 -39 18
-46 127 -46 70 0 115 -5 140 -15 19 -8 59 -15 87 -15 52 0 125 -21 226 -64 86
-37 161 -67 206 -83 23 -8 62 -32 89 -54 26 -21 55 -39 65 -39 9 0 35 -13 56
-30 21 -16 56 -41 76 -55 21 -14 49 -43 63 -65 14 -22 37 -46 53 -54 46 -24
83 -68 118 -141 l34 -69 0 -91 c0 -97 7 -115 46 -115 25 0 64 43 64 71 0 10 5
21 10 24 6 3 10 39 10 80 l0 74 -22 36 c-79 125 -110 165 -192 248 -87 88
-275 227 -306 227 -8 0 -28 9 -45 21 -63 43 -168 90 -287 129 -67 22 -147 52
-176 65 -37 18 -70 25 -112 25 -32 0 -62 5 -65 10 -3 6 -42 10 -85 10 -43 0
-82 -4 -85 -10z"/>
<path d="M28 624 l-28 -15 0 -39 0 -39 30 -16 c16 -8 54 -15 85 -15 31 0 72
-7 92 -15 19 -8 61 -15 92 -15 l56 0 154 -101 c95 -63 160 -113 172 -133 25
-41 33 -89 20 -115 l-12 -21 -48 0 c-60 0 -76 -16 -67 -65 l7 -35 94 0 c52 0
97 4 100 10 3 6 19 10 34 10 40 0 64 26 86 93 l19 58 -40 81 -39 80 -75 64
c-92 78 -214 141 -430 220 l-65 24 -105 -1 c-74 0 -113 -4 -132 -15z"/>
</g>
</svg>
