<?xml version="1.0" encoding="UTF-8" standalone="no"?>
<!-- Created with Inkscape (http://www.inkscape.org/) -->

<svg
   width="87.109833mm"
   height="47.835003mm"
   viewBox="0 0 87.109833 47.835003"
   version="1.1"
   id="svg1"
   xml:space="preserve"
   xmlns="http://www.w3.org/2000/svg"
   xmlns:svg="http://www.w3.org/2000/svg"><defs
     id="defs1" /><g
     id="layer1"
     transform="translate(-113.08252,-118.78226)"><path
       style="fill:#000000"
       d="m 193.69174,165.66021 c 0.31058,-0.5264 0.65933,-0.95708 0.77501,-0.95708 0.3379,0 1.47312,-3.09796 2.13301,-5.82084 0.88188,-3.63892 0.89649,-9.98846 0.0328,-14.2679 -1.60954,-7.97517 -5.15724,-15.32928 -9.16788,-19.00431 -2.75304,-2.52266 -5.77362,-3.71583 -10.85123,-4.28641 -4.80549,-0.54 -9.16079,0.86054 -11.62364,3.73782 -2.27347,2.65604 -4.16532,12.73155 -3.35878,17.88805 0.16574,1.05964 0.65368,3.02651 1.0843,4.37082 0.68029,2.12373 1.04602,2.77309 2.78938,4.95255 1.10354,1.37959 2.61703,3.5799 3.36331,4.88959 0.74627,1.30969 1.74361,2.89396 2.2163,3.5206 l 0.85943,1.13935 -0.52889,0.8964 c -0.33532,0.56834 -0.86941,1.00879 -1.45933,1.20348 -0.82206,0.2713 -0.9721,0.24759 -1.28809,-0.20355 -0.68885,-0.98347 -2.6551,-3.46115 -4.17838,-5.2652 -0.84533,-1.00113 -2.06116,-2.86504 -2.70186,-4.14202 -1.49483,-2.97939 -2.60148,-4.26873 -6.77633,-7.89503 -9.46628,-8.22248 -12.32944,-10.01544 -19.47525,-12.19574 l -3.64085,-1.11088 -4.89479,4.2e-4 c -6.73316,5.8e-4 -9.63516,0.75165 -11.29067,2.92214 -0.60842,0.79767 -1.97349,1.68316 -2.59478,1.68316 -0.27141,0 1.24634,-2.24819 2.1704,-3.21493 1.08938,-1.1397 3.64968,-2.37714 6.57338,-3.17704 1.81775,-0.49732 2.80791,-0.57601 7.39063,-0.58733 l 5.29166,-0.0131 3.64085,1.11358 c 2.00247,0.61247 4.43615,1.47419 5.40818,1.91493 2.54128,1.15227 6.31332,3.74726 10.2439,7.04733 1.87985,1.57831 3.72532,3.12194 4.10104,3.4303 l 0.68312,0.56065 0.0348,-3.33877 c 0.0794,-7.63222 2.33651,-14.41897 5.96661,-17.94086 2.32015,-2.25099 6.03033,-3.92397 10.16818,-4.585 3.19896,-0.51103 8.76747,0.39471 11.97039,1.94703 5.65369,2.7401 10.6948,11.2667 12.78535,21.62528 0.90963,4.50714 0.85851,10.64082 -0.12158,14.587 -0.72682,2.92646 -1.69604,5.34195 -2.92149,7.28097 -0.77052,1.21918 -1.49787,1.79047 -2.63588,2.07034 l -0.73699,0.18125 z m -62.46131,-13.72323 c -0.66269,-1.08689 -0.65759,-1.37139 0.0457,-2.54846 0.88374,-1.47906 1.53969,-2.1052 2.55725,-2.44103 0.84784,-0.27981 0.97951,-0.2532 1.4163,0.28622 1.41809,1.75126 -0.69625,5.56317 -3.0857,5.56317 -0.22509,0 -0.64519,-0.38696 -0.93355,-0.8599 z"
       id="path1" /></g></svg>
