<?xml version="1.0" standalone="no"?>
<!DOCTYPE svg PUBLIC "-//W3C//DTD SVG 20010904//EN"
 "http://www.w3.org/TR/2001/REC-SVG-20010904/DTD/svg10.dtd">
<svg version="1.0" xmlns="http://www.w3.org/2000/svg"
 width="867.000000pt" height="420.000000pt" viewBox="0 0 867.000000 420.000000"
 preserveAspectRatio="xMidYMid meet">
<metadata>
Created by potrace 1.16, written by Peter Selinger 2001-2019
</metadata>
<g transform="translate(0.000000,420.000000) scale(0.100000,-0.100000)"
fill="#000000" stroke="none">
<path d="M7 4193 c-4 -3 -7 -18 -7 -32 0 -20 7 -29 29 -38 16 -6 41 -29 54
-50 14 -22 40 -51 57 -64 18 -13 45 -37 61 -54 99 -103 123 -124 179 -165 34
-25 86 -64 115 -87 29 -23 73 -51 96 -63 24 -12 64 -39 89 -59 25 -20 65 -49
90 -63 25 -14 54 -36 65 -48 11 -12 38 -31 60 -42 53 -27 137 -92 194 -149 46
-46 97 -79 124 -79 7 0 24 -12 38 -26 13 -14 51 -44 84 -65 57 -38 85 -59 208
-154 29 -22 72 -53 97 -70 24 -16 65 -51 90 -76 25 -26 61 -55 80 -64 19 -10
57 -42 85 -71 27 -29 71 -68 97 -86 25 -18 84 -66 130 -106 140 -124 190 -165
227 -190 20 -13 61 -47 91 -76 30 -29 71 -63 90 -75 20 -13 45 -36 56 -52 11
-16 55 -67 98 -114 57 -63 84 -85 102 -85 41 0 101 37 131 82 20 30 41 47 73
58 25 9 66 26 92 38 55 26 76 27 125 7 19 -8 60 -15 90 -15 29 0 70 -7 90 -15
19 -8 45 -15 57 -15 25 0 116 -30 196 -64 109 -47 167 -69 260 -101 53 -18
137 -54 188 -79 51 -26 134 -60 185 -76 50 -17 110 -43 132 -59 52 -37 172
-97 212 -105 17 -4 51 -24 75 -45 45 -40 98 -71 120 -71 18 0 153 -90 209
-138 24 -21 60 -48 80 -60 21 -12 44 -34 53 -47 9 -14 34 -36 56 -50 21 -13
48 -35 60 -47 20 -21 60 -90 60 -102 0 -3 -27 -19 -59 -36 -84 -42 -91 -55
-91 -174 l0 -100 193 -193 193 -193 57 0 57 0 39 36 c28 25 44 51 55 87 16 53
12 87 -19 185 -30 91 2 98 179 38 74 -25 146 -46 158 -46 13 0 52 -14 86 -30
37 -18 80 -30 103 -30 22 0 56 -7 76 -15 19 -8 53 -15 75 -15 21 0 55 -7 75
-15 19 -8 47 -15 62 -15 14 0 43 -12 64 -26 60 -40 123 -56 257 -65 69 -5 134
-9 145 -9 58 -1 167 14 218 31 75 25 170 90 196 134 11 19 26 35 33 35 23 0
85 -58 122 -115 21 -30 51 -62 68 -71 16 -9 67 -50 112 -93 44 -42 100 -90
124 -106 24 -16 63 -46 87 -67 24 -21 48 -38 55 -38 6 0 41 -14 77 -30 35 -17
71 -30 78 -30 8 0 17 -5 20 -10 4 -6 57 -10 127 -10 l120 0 27 19 c14 10 45
24 68 30 29 8 51 23 72 50 l31 39 0 56 0 56 -64 0 -64 0 -48 -41 c-52 -43
-121 -79 -151 -79 -30 0 -133 39 -172 66 -20 13 -50 24 -69 24 -34 0 -57 19
-110 89 -13 17 -47 47 -76 66 -29 19 -103 86 -164 149 -89 91 -119 129 -147
187 -19 41 -35 80 -35 89 0 39 -79 100 -130 100 -11 0 -45 -18 -75 -40 l-55
-41 0 -62 c0 -64 -20 -120 -61 -178 l-20 -29 -43 0 c-24 0 -61 -7 -81 -16
l-38 -16 -41 16 c-30 12 -77 16 -167 16 l-125 0 -84 30 c-47 16 -94 30 -105
30 -12 0 -59 13 -105 30 -47 16 -101 30 -120 30 -36 0 -156 37 -208 64 -39 20
-148 56 -170 56 -10 0 -56 13 -102 30 -47 16 -96 30 -110 30 -37 0 -67 25 -95
80 -14 27 -42 61 -64 77 -22 15 -52 48 -67 71 -16 24 -49 57 -74 74 -25 16
-58 47 -73 69 -27 37 -90 79 -119 79 -7 0 -35 25 -61 55 -30 35 -60 58 -82 64
-18 5 -88 46 -155 90 -84 56 -146 90 -196 106 -42 14 -108 47 -151 76 -42 28
-97 57 -122 65 -26 7 -62 25 -81 39 -67 50 -177 95 -272 110 -20 3 -59 21 -85
39 -79 54 -129 76 -175 76 -30 0 -71 14 -136 45 -52 25 -106 45 -120 45 -15 0
-69 21 -121 45 l-94 46 -231 -4 -231 -3 -70 -23 -70 -23 -75 46 c-56 33 -84
58 -110 97 -25 38 -44 55 -67 61 -19 5 -43 23 -59 43 -14 19 -59 56 -98 82
-39 26 -91 66 -116 88 -25 22 -64 54 -88 69 -23 16 -70 57 -105 91 -34 34 -77
70 -95 79 -18 9 -61 46 -96 82 -34 35 -70 64 -80 64 -10 0 -41 20 -69 45 -28
24 -78 59 -111 76 -75 40 -160 103 -180 133 -8 13 -39 37 -68 54 -30 16 -66
46 -82 66 -20 26 -39 39 -74 48 -32 8 -59 24 -89 55 -47 49 -117 99 -183 133
-25 12 -65 39 -90 60 -25 20 -59 44 -77 53 -17 9 -51 34 -76 55 -24 21 -59 44
-78 51 -89 33 -138 74 -359 296 -41 42 -83 75 -93 75 -10 0 -29 11 -43 25 -19
19 -35 25 -68 25 -23 0 -46 -3 -49 -7z m5502 -3439 c39 -23 54 -51 63 -119 4
-33 10 -72 14 -87 l6 -28 -25 0 c-38 0 -110 75 -130 136 -9 27 -19 57 -22 66
-8 19 20 48 47 48 11 0 32 -7 47 -16z"/>
</g>
</svg>
