<?xml version="1.0" standalone="no"?>
<!DOCTYPE svg PUBLIC "-//W3C//DTD SVG 20010904//EN"
 "http://www.w3.org/TR/2001/REC-SVG-20010904/DTD/svg10.dtd">
<svg version="1.0" xmlns="http://www.w3.org/2000/svg"
 width="816.000000pt" height="246.000000pt" viewBox="0 0 816.000000 246.000000"
 preserveAspectRatio="xMidYMid meet">
<metadata>
Created by potrace 1.16, written by Peter Selinger 2001-2019
</metadata>
<g transform="translate(0.000000,246.000000) scale(0.100000,-0.100000)"
fill="#000000" stroke="none">
<path d="M3998 2427 c-43 -37 -72 -94 -83 -157 -9 -60 -9 -75 3 -140 l10 -55
147 -142 c81 -79 154 -143 163 -143 21 -1 74 -26 127 -61 22 -15 60 -38 85
-51 36 -20 61 -48 122 -139 43 -63 85 -137 93 -165 9 -28 24 -59 35 -69 11
-10 57 -74 104 -144 46 -69 96 -137 110 -150 14 -14 26 -34 26 -45 0 -11 19
-38 43 -60 23 -23 58 -61 77 -86 19 -25 67 -84 107 -132 40 -47 73 -89 73 -92
0 -22 -152 45 -270 120 -30 19 -66 37 -80 41 -14 3 -38 18 -55 33 -16 15 -46
36 -65 45 -19 10 -48 28 -65 40 -16 13 -52 34 -80 48 -27 14 -72 44 -99 66
l-48 41 -40 0 c-30 0 -46 -7 -69 -29 l-29 -29 0 -109 0 -108 -25 -37 c-32 -47
-170 -138 -210 -138 -17 0 -47 -11 -66 -24 -41 -28 -142 -66 -175 -66 -12 0
-38 -7 -57 -15 l-36 -15 -366 0 -366 0 -36 15 c-23 10 -69 15 -135 15 -65 0
-111 5 -135 15 -19 8 -65 15 -102 15 -36 0 -86 6 -111 14 -77 25 -141 35 -250
42 -58 4 -120 13 -139 20 -19 8 -69 14 -114 14 -62 0 -102 7 -172 29 -99 32
-159 48 -220 60 -22 4 -76 19 -120 33 -129 42 -167 51 -220 52 -39 1 -71 12
-142 49 -50 26 -103 47 -117 47 -14 0 -45 7 -68 16 -127 47 -136 56 -98 94 23
23 26 49 7 74 -21 28 -58 16 -86 -26 -18 -28 -31 -38 -50 -38 -35 0 -228 66
-260 89 -59 42 -412 211 -441 211 l-30 0 0 -55 c0 -32 4 -55 11 -55 24 0 121
-52 156 -83 43 -39 141 -91 191 -102 17 -3 54 -21 80 -40 67 -45 127 -75 154
-75 38 0 159 -45 266 -99 56 -28 113 -51 127 -51 14 0 42 -7 62 -15 19 -8 54
-15 76 -15 22 0 70 -13 106 -29 178 -77 240 -98 356 -120 22 -4 56 -12 75 -18
48 -15 116 -32 170 -43 25 -5 77 -20 115 -34 41 -15 92 -26 123 -26 29 0 69
-7 89 -15 22 -9 67 -15 120 -15 52 0 97 -6 120 -15 22 -9 67 -15 120 -15 52 0
97 -6 120 -15 20 -8 66 -15 105 -15 38 0 84 -7 105 -15 23 -10 69 -15 135 -15
65 0 111 -5 135 -15 l35 -15 298 0 298 0 35 15 c20 8 66 15 102 15 67 0 214
42 330 95 29 14 61 25 69 25 8 0 44 25 78 56 35 31 81 65 103 76 53 27 75 47
75 70 0 10 11 30 25 43 47 48 142 27 239 -54 26 -23 56 -41 65 -41 9 0 30 -9
46 -21 17 -11 55 -34 85 -50 30 -17 80 -46 110 -65 30 -19 66 -37 80 -41 14
-3 39 -18 55 -33 17 -16 89 -58 160 -94 72 -36 152 -83 179 -105 26 -23 55
-41 64 -41 27 0 222 -100 235 -121 9 -15 23 -19 67 -19 l55 0 18 49 c9 27 17
56 17 65 0 28 -84 108 -178 170 -64 42 -98 73 -121 107 -19 30 -47 57 -72 69
-22 12 -69 49 -104 83 -35 34 -107 105 -162 157 -65 63 -103 108 -113 135 -9
24 -29 49 -50 63 -62 41 -90 73 -127 146 -19 39 -51 88 -69 108 -18 21 -48 66
-65 100 -17 35 -42 78 -56 96 -32 43 -54 97 -47 117 9 24 49 29 101 12 78 -25
135 -38 193 -46 30 -4 110 -26 177 -49 l123 -42 80 0 c49 0 95 -6 117 -15 l35
-15 355 0 354 0 61 21 c95 32 158 68 252 146 22 18 47 33 55 33 29 -1 104 -66
115 -101 8 -22 28 -45 65 -70 29 -21 77 -59 105 -87 28 -27 72 -61 99 -76 26
-15 54 -38 63 -52 18 -27 142 -114 164 -114 7 0 69 -27 137 -60 l124 -60 115
0 c156 0 248 30 347 113 l47 40 0 53 0 53 -30 16 c-16 8 -52 15 -80 15 l-52 0
-29 -32 c-16 -18 -40 -45 -53 -60 l-25 -28 -118 0 -118 0 -41 23 c-23 12 -66
37 -95 55 -30 18 -65 35 -79 39 -44 11 -189 103 -211 134 -11 16 -33 36 -49
44 -31 16 -46 32 -155 160 -55 64 -94 124 -136 207 -32 64 -69 124 -81 132
-33 23 -150 22 -170 -1 -32 -37 -48 -83 -48 -140 l0 -58 -75 -66 c-89 -78
-179 -117 -232 -99 -20 8 -38 8 -57 0 -16 -6 -127 -10 -272 -10 -195 0 -252 3
-281 15 -24 10 -71 15 -152 15 l-116 0 -93 45 c-52 25 -104 45 -115 45 -12 0
-42 6 -67 14 -60 19 -125 35 -180 46 -26 4 -60 16 -77 27 -17 10 -58 35 -92
56 -34 20 -66 37 -71 37 -13 0 -50 51 -50 69 0 9 -18 42 -39 74 -22 32 -43 72
-46 89 -4 17 -20 58 -36 92 -16 34 -29 69 -29 78 0 10 -22 43 -50 73 -27 30
-61 72 -74 93 -30 48 -81 92 -106 92 -10 0 -22 5 -25 10 -4 6 -52 10 -113 10
l-107 0 -37 -33z m218 -171 c21 -15 94 -126 94 -144 0 -5 11 -35 25 -66 30
-68 31 -86 5 -86 -75 0 -250 162 -250 232 0 60 76 99 126 64z"/>
</g>
</svg>
