<?xml version="1.0" standalone="no"?>
<!DOCTYPE svg PUBLIC "-//W3C//DTD SVG 20010904//EN"
 "http://www.w3.org/TR/2001/REC-SVG-20010904/DTD/svg10.dtd">
<svg version="1.0" xmlns="http://www.w3.org/2000/svg"
 width="345.000000pt" height="333.000000pt" viewBox="0 0 345.000000 333.000000"
 preserveAspectRatio="xMidYMid meet">
<metadata>
Created by potrace 1.16, written by Peter Selinger 2001-2019
</metadata>
<g transform="translate(0.000000,333.000000) scale(0.100000,-0.100000)"
fill="#000000" stroke="none">
<path d="M353 3277 l-23 -52 12 -40 c14 -47 35 -75 57 -75 27 0 57 -27 80 -70
26 -50 26 -60 3 -60 -54 0 -120 39 -206 123 l-89 87 -52 0 -52 0 -41 -30 -42
-30 0 -89 c0 -50 5 -93 10 -96 6 -3 10 -24 10 -46 0 -41 29 -139 57 -194 9
-16 33 -50 54 -75 48 -56 69 -107 69 -163 l0 -43 29 -28 c17 -16 60 -74 98
-130 37 -55 84 -121 104 -146 20 -25 49 -68 63 -97 14 -29 48 -70 76 -95 40
-34 50 -49 50 -74 0 -35 16 -52 77 -83 23 -11 50 -33 60 -47 41 -59 87 -105
112 -111 35 -8 51 -22 51 -44 0 -10 26 -38 63 -65 34 -26 86 -74 116 -106 29
-33 92 -85 140 -116 47 -31 106 -75 131 -97 25 -23 58 -49 75 -60 16 -10 50
-37 75 -60 25 -22 58 -49 75 -60 16 -10 50 -37 75 -60 25 -24 65 -53 90 -65
25 -12 65 -39 90 -59 25 -20 84 -63 132 -95 48 -32 107 -75 130 -96 46 -40 87
-63 128 -73 14 -4 44 -22 67 -42 23 -19 88 -58 145 -87 56 -28 117 -61 133
-74 17 -12 80 -47 140 -78 61 -32 134 -72 163 -90 29 -19 92 -46 140 -61 48
-15 103 -36 123 -46 19 -10 64 -27 100 -38 35 -12 72 -26 81 -31 10 -6 40 -10
68 -10 l50 0 0 35 0 35 -90 45 c-49 25 -95 45 -102 45 -14 0 -139 54 -188 81
-19 11 -97 51 -173 89 -76 39 -157 84 -179 100 -23 17 -49 30 -58 30 -9 0 -25
9 -36 21 -32 36 -106 86 -184 124 -41 21 -95 54 -120 75 -48 39 -120 80 -143
80 -7 0 -24 12 -38 26 -13 14 -55 47 -94 72 -38 26 -101 74 -140 108 -38 34
-89 71 -112 82 -23 12 -75 53 -117 92 -42 38 -79 70 -84 70 -16 0 -72 63 -78
89 -10 39 -34 61 -68 61 -53 1 -178 76 -211 127 -9 13 -33 34 -55 48 -22 14
-51 42 -64 63 -13 20 -43 50 -67 65 -25 16 -55 43 -68 62 -12 19 -48 53 -79
77 -94 70 -191 175 -198 214 -3 19 -19 51 -34 73 -15 21 -36 53 -45 72 -10 19
-33 51 -51 71 -19 21 -54 79 -80 130 -25 51 -57 107 -70 125 -27 35 -84 151
-84 169 0 7 -14 41 -30 76 -30 64 -31 91 -5 102 16 6 104 -23 183 -60 68 -31
128 -31 190 0 27 14 54 31 61 40 7 9 29 25 47 37 l34 21 89 -31 c49 -17 104
-31 123 -31 18 0 53 -6 78 -14 94 -30 138 -38 225 -45 50 -4 100 -12 112 -19
30 -17 133 -15 176 3 20 8 53 15 74 15 21 0 76 14 123 30 46 17 94 30 106 30
13 0 52 14 87 30 36 17 69 30 74 30 5 0 26 -20 47 -45 21 -25 55 -57 77 -70
21 -14 50 -43 64 -65 14 -22 37 -46 53 -54 15 -8 55 -39 89 -69 39 -35 73 -57
96 -61 19 -4 54 -24 80 -46 28 -25 55 -40 71 -40 15 0 43 -7 63 -15 54 -23
188 -20 268 6 51 17 75 32 110 70 l46 49 -10 19 c-16 28 -70 71 -91 71 -10 0
-48 -13 -83 -30 -51 -23 -79 -30 -128 -30 -79 0 -176 32 -226 74 -21 18 -57
43 -80 56 -23 13 -55 39 -72 59 -16 20 -51 47 -77 60 -68 34 -82 48 -115 113
-16 31 -44 69 -64 84 l-35 26 0 45 c0 44 -18 92 -48 126 -19 22 -80 23 -110 1
-24 -17 -65 -90 -76 -138 -10 -41 -44 -86 -64 -86 -9 0 -37 -14 -62 -30 -25
-16 -57 -30 -71 -30 -15 0 -43 -7 -62 -15 -49 -20 -264 -21 -327 -1 -57 18
-122 35 -180 46 -25 5 -76 20 -115 34 -38 14 -81 26 -94 26 -29 0 -143 56
-240 118 -59 37 -76 54 -83 79 -5 19 -28 49 -60 77 l-53 46 -75 0 -75 0 -22
-53z"/>
</g>
</svg>
