<?xml version="1.0" standalone="no"?>
<!DOCTYPE svg PUBLIC "-//W3C//DTD SVG 20010904//EN"
 "http://www.w3.org/TR/2001/REC-SVG-20010904/DTD/svg10.dtd">
<svg version="1.0" xmlns="http://www.w3.org/2000/svg"
 width="735.000000pt" height="459.000000pt" viewBox="0 0 735.000000 459.000000"
 preserveAspectRatio="xMidYMid meet">
<metadata>
Created by potrace 1.16, written by Peter Selinger 2001-2019
</metadata>
<g transform="translate(0.000000,459.000000) scale(0.100000,-0.100000)"
fill="#000000" stroke="none">
<path d="M61 4554 c-24 -18 -48 -34 -52 -34 -5 0 -9 -42 -9 -92 l1 -93 59 -38
c35 -21 71 -54 85 -77 19 -30 44 -49 105 -80 44 -22 89 -40 101 -40 13 0 84
-21 160 -46 l138 -47 31 13 c46 19 80 49 80 70 0 11 9 24 20 30 l20 11 67 -40
c38 -22 93 -56 124 -75 30 -20 62 -36 70 -36 20 0 134 -55 172 -84 36 -27 171
-96 187 -96 6 0 41 -18 78 -40 37 -23 78 -43 92 -47 14 -3 45 -18 70 -33 25
-15 56 -30 70 -33 14 -4 43 -22 65 -40 50 -43 85 -61 172 -88 37 -12 82 -34
98 -49 33 -30 86 -60 107 -60 7 0 33 -14 58 -30 25 -16 51 -30 58 -30 13 0
101 -49 202 -113 30 -19 70 -38 88 -42 17 -4 54 -22 81 -40 26 -18 95 -57 152
-85 57 -29 117 -63 134 -75 16 -13 66 -42 110 -64 81 -43 145 -81 246 -145 33
-21 68 -36 86 -36 23 0 37 -8 58 -35 17 -23 56 -50 108 -77 87 -43 127 -70
192 -128 36 -32 61 -46 117 -64 9 -3 24 -19 34 -37 l16 -32 -11 -37 c-6 -21
-11 -64 -11 -96 l0 -59 76 -83 c42 -46 94 -92 116 -103 21 -11 56 -35 76 -53
51 -46 94 -66 142 -66 22 0 57 -7 77 -15 51 -22 91 -18 148 13 52 28 95 87 95
130 0 38 -56 137 -94 166 -39 29 -46 50 -20 60 30 11 68 6 159 -23 122 -39
169 -51 240 -60 33 -5 83 -20 112 -35 29 -14 65 -26 80 -26 15 0 55 -13 88
-28 33 -15 116 -46 184 -67 96 -31 133 -48 166 -78 24 -20 54 -37 67 -37 39 0
170 -49 213 -79 48 -34 119 -71 137 -71 20 0 134 -56 171 -84 39 -29 171 -96
190 -96 7 0 26 -13 42 -30 16 -16 36 -30 45 -30 9 0 31 -18 49 -40 20 -25 44
-43 62 -47 16 -3 39 -20 54 -39 15 -19 54 -48 88 -65 83 -42 332 -288 372
-369 15 -30 44 -75 64 -100 21 -25 42 -56 49 -70 26 -57 52 -147 52 -181 0
-20 7 -53 15 -72 19 -46 19 -128 0 -174 -8 -19 -15 -45 -15 -57 0 -25 -32
-120 -60 -183 -15 -32 -17 -48 -10 -68 l10 -25 40 0 c28 0 40 4 40 14 0 8 11
23 25 34 25 20 95 149 95 176 0 8 5 18 10 21 6 4 10 78 10 190 0 112 -4 186
-10 190 -5 3 -10 20 -10 36 0 30 -53 147 -91 201 -11 15 -24 41 -29 57 -4 16
-28 55 -51 86 -57 75 -320 340 -383 385 -27 19 -68 48 -90 64 -23 16 -62 48
-88 72 -26 24 -55 44 -65 44 -10 0 -56 25 -102 55 -88 59 -200 118 -241 128
-14 4 -43 22 -65 40 -41 35 -174 107 -197 107 -7 0 -33 14 -58 30 -25 16 -52
30 -61 30 -8 0 -53 18 -100 41 -46 22 -122 53 -169 68 -47 16 -112 42 -146 59
-83 42 -175 72 -221 72 -25 0 -53 10 -83 30 -25 17 -58 30 -75 30 -16 0 -59
14 -93 30 -37 18 -80 30 -103 30 -22 0 -56 7 -76 15 -19 8 -52 15 -72 15 -20
0 -56 6 -81 14 -87 28 -136 38 -210 45 -41 4 -85 13 -97 19 -12 7 -41 12 -65
12 -45 0 -87 18 -175 73 -28 17 -66 41 -84 52 -19 11 -63 38 -100 60 -36 22
-90 54 -119 70 -29 17 -73 44 -99 62 -26 17 -76 45 -110 62 -34 18 -78 47 -99
65 -20 18 -51 37 -69 40 -17 4 -80 40 -140 80 -60 40 -125 78 -144 85 -19 7
-47 19 -64 28 -93 50 -144 80 -179 105 -21 15 -46 28 -55 28 -9 0 -29 9 -46
21 -16 11 -102 56 -190 101 -88 44 -182 95 -210 113 -27 18 -85 43 -129 56
-54 17 -92 35 -120 60 -43 38 -96 69 -118 69 -26 0 -117 49 -156 84 -22 20
-46 36 -53 36 -8 0 -41 13 -75 29 -34 16 -75 32 -93 36 -17 3 -53 22 -80 40
-56 39 -244 135 -264 135 -7 0 -24 12 -38 26 -13 14 -85 57 -159 96 -163 84
-195 103 -408 243 l-167 111 -23 42 -23 42 -162 -1 -162 0 -44 -35z m254 -144
c90 -31 99 -37 154 -105 61 -75 65 -95 18 -95 -24 0 -41 8 -62 30 -20 21 -38
30 -60 30 -38 0 -98 41 -137 93 -31 39 -34 53 -15 60 23 10 42 7 102 -13z
m3862 -2192 c49 -22 123 -81 145 -116 l21 -34 -14 -9 c-29 -18 -70 -10 -97 21
-15 17 -44 48 -64 70 -37 38 -46 59 -31 73 8 9 6 9 40 -5z"/>
</g>
</svg>
