<?xml version="1.0" standalone="no"?>
<!DOCTYPE svg PUBLIC "-//W3C//DTD SVG 20010904//EN"
 "http://www.w3.org/TR/2001/REC-SVG-20010904/DTD/svg10.dtd">
<svg version="1.0" xmlns="http://www.w3.org/2000/svg"
 width="546.000000pt" height="279.000000pt" viewBox="0 0 546.000000 279.000000"
 preserveAspectRatio="xMidYMid meet">
<metadata>
Created by potrace 1.16, written by Peter Selinger 2001-2019
</metadata>
<g transform="translate(0.000000,279.000000) scale(0.100000,-0.100000)"
fill="#000000" stroke="none">
<path d="M2118 2746 l-28 -44 0 -69 c0 -66 -27 -170 -53 -201 -5 -7 -30 -22
-53 -32 l-43 -20 -171 0 c-129 0 -179 4 -207 15 -24 10 -70 15 -146 15 l-111
0 -91 29 c-99 32 -157 48 -225 61 -25 5 -76 20 -115 34 -38 14 -86 26 -105 26
-42 0 -143 34 -180 60 -29 21 -230 90 -261 90 -11 0 -50 14 -86 30 -35 17 -81
30 -101 30 l-36 0 -53 -56 -53 -56 0 -78 0 -79 81 -85 c98 -103 177 -159 266
-188 38 -12 74 -26 81 -31 6 -5 12 -31 12 -57 l0 -48 40 -32 c23 -18 43 -45
48 -64 13 -44 86 -150 124 -178 17 -13 54 -46 82 -74 29 -29 78 -68 109 -88
31 -20 72 -49 90 -64 87 -73 191 -132 232 -132 15 0 56 -14 92 -30 50 -23 79
-30 127 -30 66 0 86 10 86 46 0 24 -42 64 -67 64 -14 0 -99 47 -203 113 -30
19 -70 38 -89 42 -21 5 -52 26 -87 61 -31 32 -62 54 -74 54 -13 0 -42 20 -69
48 -26 26 -62 60 -81 77 -29 26 -130 211 -130 239 0 6 14 31 30 56 41 61 39
84 -14 136 l-43 44 -92 0 c-59 0 -104 5 -128 15 -19 8 -46 15 -60 15 -35 0
-143 96 -143 127 0 37 22 37 119 4 49 -17 107 -31 128 -31 24 0 52 -9 74 -25
46 -31 263 -100 389 -125 25 -5 69 -20 97 -34 29 -14 70 -26 90 -26 21 0 58
-6 83 -14 87 -28 136 -38 210 -45 41 -4 85 -13 97 -19 15 -8 93 -12 248 -12
l226 0 42 21 c23 12 58 37 79 56 20 20 60 52 90 72 39 27 56 47 66 76 7 21 28
59 46 84 56 75 113 83 267 35 26 -8 63 -14 83 -14 20 0 53 -7 73 -15 22 -9 68
-15 122 -15 l86 0 55 -26 c82 -38 293 -103 400 -124 25 -5 92 -32 150 -60 57
-29 141 -63 185 -78 107 -34 385 -173 432 -215 21 -19 67 -49 103 -67 36 -18
85 -49 110 -69 25 -20 65 -50 89 -66 25 -17 74 -58 110 -93 37 -35 87 -74 113
-87 26 -14 55 -37 65 -52 10 -15 39 -48 64 -73 26 -25 66 -73 89 -108 23 -35
53 -70 67 -79 13 -9 43 -47 66 -85 23 -38 58 -96 77 -128 19 -32 50 -77 68
-100 18 -24 32 -55 32 -70 0 -15 7 -44 15 -63 8 -20 15 -47 15 -61 0 -13 13
-53 30 -88 16 -34 30 -75 30 -89 0 -15 7 -43 15 -64 l16 -37 -11 -34 c-7 -19
-9 -52 -5 -74 l7 -39 -41 -87 c-23 -48 -41 -99 -41 -113 0 -14 -11 -50 -25
-79 -19 -41 -22 -58 -15 -77 l10 -25 42 0 43 1 26 42 c68 108 119 240 119 306
0 22 4 43 10 46 13 8 13 222 0 230 -5 3 -10 25 -10 48 0 23 -14 80 -30 127
-17 46 -30 95 -30 107 0 32 -35 99 -76 147 -19 22 -38 54 -43 72 -11 39 -59
110 -117 174 -22 25 -57 72 -78 105 -21 32 -61 82 -90 111 -28 28 -62 66 -75
84 -13 17 -42 43 -64 57 -22 14 -61 44 -86 67 -25 23 -59 50 -74 60 -16 9 -38
33 -49 52 -12 21 -57 59 -117 99 -53 35 -119 84 -147 108 -29 24 -67 49 -85
56 -19 7 -47 19 -64 28 -93 50 -144 80 -179 105 -21 15 -46 28 -55 28 -9 0
-36 14 -61 30 -25 16 -52 30 -60 30 -8 0 -40 12 -70 26 -68 31 -163 64 -188
64 -27 0 -133 39 -162 60 -37 26 -234 90 -278 90 -20 0 -65 13 -100 30 -35 17
-74 30 -86 30 -12 0 -60 13 -106 30 -53 18 -105 30 -138 30 -29 0 -69 7 -89
15 -19 8 -53 15 -74 15 -21 0 -56 6 -76 14 -21 8 -55 17 -76 20 -20 2 -50 14
-66 25 l-29 21 -89 0 -88 -1 -27 -43z"/>
</g>
</svg>
