<?xml version="1.0" encoding="UTF-8" standalone="no"?>
<!-- Created with Inkscape (http://www.inkscape.org/) -->

<svg
   version="1.1"
   id="svg1"
   width="631.23138"
   height="172.66083"
   viewBox="0 0 631.23138 172.66083"
   xmlns="http://www.w3.org/2000/svg"
   xmlns:svg="http://www.w3.org/2000/svg">
  <defs
     id="defs1" />
  <g
     id="g1"
     transform="translate(-0.3514677,-0.15788242)">
    <path
       style="fill:#000000"
       d="m 624.75223,171.26797 c -3.01868,-1.23853 -3.9498,-2.28797 -4.78631,-5.39454 C 617.78335,157.76799 585.5999,124.72306 544,87.87407 491.6158,41.472399 488.20221,39.113597 483.00216,45.724387 c -4.49965,5.720374 -1.18292,16.77209 10.66695,35.5435 C 496.82549,86.267913 499.26464,94 497.68556,94 493.3146,94 488.20673,90.56442 485.2647,85.645665 464.54952,51.012205 384.08013,10.615597 341.00626,13.226182 c -26.32874,1.59571 -41.4655,26.215451 -25.48341,41.448443 7.0753,6.743676 11.70957,14.759622 9.6967,16.772492 C 324.38297,72.2837 305.56356,72.07613 286.5,71.020058 188.39235,65.585143 156.4762,64.726129 82,65.516002 16.242348,66.213408 15.434246,66.198014 9.6097126,64.13702 2.5555189,61.640914 3.3007396,62.319077 1.6790643,56.919997 L 0.35146771,52.5 70.281031,52.176047 C 148.44951,51.813926 184.97735,52.83914 278.5,58.020058 c 27.1666,1.50496 28.27944,1.450151 25.78717,-1.270058 -7.60671,-8.302394 -11.28406,-25.753049 -7.28421,-34.566768 11.86398,-26.1424214 45.46366,-29.0442798 98.86625,-8.538649 25.13885,9.652864 68.1881,34.16699 72.63435,41.361179 1.88147,3.044283 2.04303,0.130874 0.31259,-5.637107 C 463.55518,31.832505 473.23029,24.999425 491,33.701231 519.18288,47.50235 625.31189,147.80152 630.45602,165.4967 c 2.28168,7.84873 1.43865,8.70174 -5.70379,5.77127 z"
       id="path1" />
  </g>
</svg>
