<?xml version="1.0" standalone="no"?>
<!DOCTYPE svg PUBLIC "-//W3C//DTD SVG 20010904//EN"
 "http://www.w3.org/TR/2001/REC-SVG-20010904/DTD/svg10.dtd">
<svg version="1.0" xmlns="http://www.w3.org/2000/svg"
 width="2388.000000pt" height="660.000000pt" viewBox="0 0 2388.000000 660.000000"
 preserveAspectRatio="xMidYMid meet">
<metadata>
Created by potrace 1.16, written by Peter Selinger 2001-2019
</metadata>
<g transform="translate(0.000000,660.000000) scale(0.100000,-0.100000)"
fill="#000000" stroke="none">
<path d="M15727 5602 c-12 -13 -17 -37 -17 -86 0 -37 -5 -76 -10 -87 l-11 -19
-78 0 -78 0 -16 -18 -17 -19 0 -350 0 -350 18 -16 c14 -13 38 -17 95 -17 l76
0 11 -19 c5 -11 10 -84 10 -164 l0 -144 18 -16 c13 -12 37 -17 80 -17 l61 0
11 -19 c5 -11 10 -51 10 -89 0 -89 13 -102 98 -102 l61 0 11 -19 c5 -11 10
-79 10 -151 0 -72 -5 -140 -10 -151 l-11 -19 -629 0 -629 0 -11 19 c-5 11 -10
44 -10 74 0 40 -5 58 -18 70 l-19 17 -916 0 -916 0 -11 19 c-5 11 -10 44 -10
74 0 40 -5 58 -18 70 l-19 17 -916 0 -916 0 -11 19 c-5 11 -10 51 -10 89 0 54
-4 72 -18 85 l-19 17 -1096 0 -1096 0 -11 19 c-5 11 -10 44 -10 74 0 40 -5 58
-18 70 l-19 17 -916 0 -916 0 -11 19 c-5 11 -10 44 -10 74 0 40 -5 58 -18 70
l-19 17 -631 0 -631 0 -11 19 c-5 11 -10 51 -10 89 0 54 -4 72 -18 85 l-19 17
-736 0 -736 0 -11 19 c-5 11 -10 44 -10 74 0 40 -5 58 -18 70 l-19 17 -916 0
-916 0 -11 19 c-5 11 -10 44 -10 74 0 40 -5 58 -18 70 l-19 17 -530 0 -530 0
-16 -18 c-25 -27 -24 -143 1 -165 l19 -17 151 0 151 0 11 -19 c5 -11 10 -44
10 -74 0 -40 5 -58 18 -70 l19 -17 436 0 436 0 11 -19 c5 -11 10 -51 10 -89 0
-54 4 -72 18 -85 l19 -17 1111 0 1111 0 11 -19 c5 -11 10 -44 10 -74 0 -40 5
-58 18 -70 l19 -17 631 0 631 0 11 -19 c5 -11 10 -44 10 -74 0 -40 5 -58 18
-70 l19 -17 541 0 541 0 11 -19 c5 -11 10 -51 10 -89 0 -54 4 -72 18 -85 l19
-17 826 0 826 0 11 -19 c5 -11 10 -44 10 -74 0 -40 5 -58 18 -70 l19 -17 811
0 811 0 11 -19 c5 -11 10 -44 10 -74 0 -40 5 -58 18 -70 l19 -17 1111 0 1111
0 11 -19 c5 -11 10 -51 10 -89 0 -54 4 -72 18 -85 l19 -17 826 0 826 0 11 -19
c5 -11 10 -44 10 -74 0 -40 5 -58 18 -70 l19 -17 1475 0 1475 0 16 18 17 19 0
170 0 170 -18 16 c-13 12 -37 17 -80 17 l-61 0 -11 19 c-5 11 -10 44 -10 74 0
40 -5 58 -18 70 l-19 17 -166 0 -166 0 -11 19 c-5 11 -10 44 -10 74 0 40 -5
58 -18 70 l-19 17 -151 0 -151 0 -11 19 c-5 11 -10 51 -10 89 0 92 -11 102
-113 102 l-76 0 -11 19 c-5 11 -10 84 -10 164 l0 144 -18 16 c-13 12 -37 17
-80 17 l-61 0 -11 19 c-5 11 -10 84 -10 166 0 82 5 155 10 166 l11 19 344 0
344 0 11 -19 c5 -11 10 -44 10 -74 0 -40 5 -58 18 -70 l19 -17 166 0 166 0 11
-19 c5 -11 10 -51 10 -89 0 -54 4 -72 18 -85 l19 -17 166 0 166 0 11 -19 c5
-11 10 -44 10 -74 0 -40 5 -58 18 -70 l19 -17 151 0 151 0 11 -19 c5 -11 10
-44 10 -74 0 -40 5 -58 18 -70 l19 -17 166 0 166 0 11 -19 c5 -11 10 -51 10
-89 0 -89 13 -102 98 -102 l61 0 11 -19 c5 -11 10 -44 10 -74 0 -40 5 -58 18
-70 l19 -17 166 0 166 0 11 -19 c5 -11 10 -44 10 -74 0 -72 17 -87 98 -87 l61
0 11 -19 c5 -11 10 -51 10 -89 0 -54 4 -72 18 -85 l19 -17 151 0 151 0 11 -19
c5 -11 10 -44 10 -74 0 -75 15 -87 113 -87 l76 0 11 -19 c5 -11 10 -44 10 -74
0 -40 5 -58 18 -70 l19 -17 151 0 151 0 11 -19 c5 -11 10 -44 10 -74 0 -40 5
-58 18 -70 l19 -17 166 0 166 0 11 -19 c5 -11 10 -51 10 -89 0 -89 13 -102 98
-102 l61 0 11 -19 c5 -11 10 -44 10 -74 0 -75 15 -87 113 -87 l76 0 11 -19 c5
-11 10 -44 10 -74 0 -40 5 -58 18 -70 l19 -17 151 0 151 0 11 -19 c5 -11 10
-51 10 -89 0 -89 13 -102 98 -102 l61 0 11 -19 c5 -11 10 -44 10 -74 0 -75 15
-87 113 -87 l76 0 11 -19 c5 -11 10 -44 10 -74 0 -40 5 -58 18 -70 l19 -17
151 0 151 0 11 -19 c5 -11 10 -51 10 -89 0 -54 4 -72 18 -85 l19 -17 166 0
166 0 11 -19 c5 -11 10 -44 10 -73 l0 -54 30 -29 c21 -20 30 -38 30 -60 0 -22
9 -40 30 -60 17 -16 30 -36 30 -45 0 -37 32 -50 126 -50 57 0 94 -4 102 -12 7
-7 12 -33 12 -58 0 -33 6 -52 18 -63 l19 -17 170 0 170 0 16 18 c12 13 17 37
17 84 0 84 -14 98 -98 98 l-61 0 -11 19 c-5 11 -10 44 -10 74 0 62 -19 87 -66
87 -38 0 -54 16 -54 55 0 22 -9 40 -30 60 -16 16 -30 36 -30 45 0 36 -33 50
-113 50 l-76 0 -11 19 c-5 11 -10 44 -10 74 0 72 -17 87 -98 87 l-61 0 -11 19
c-5 11 -10 44 -10 74 0 72 -17 87 -98 87 l-61 0 -11 19 c-5 11 -10 44 -10 74
0 40 -5 58 -18 70 l-19 17 -166 0 -166 0 -11 19 c-5 11 -10 51 -10 89 0 89
-13 102 -98 102 l-61 0 -11 19 c-5 11 -10 44 -10 74 0 75 -15 87 -113 87 l-76
0 -11 19 c-5 11 -10 44 -10 74 0 40 -5 58 -18 70 l-19 17 -151 0 -151 0 -11
19 c-5 11 -10 51 -10 89 0 89 -13 102 -98 102 l-61 0 -11 19 c-5 11 -10 44
-10 74 0 40 -5 58 -18 70 l-19 17 -166 0 -166 0 -11 19 c-5 11 -10 44 -10 74
0 72 -17 87 -98 87 l-61 0 -11 19 c-5 11 -10 44 -10 74 0 40 -5 58 -18 70
l-19 17 -166 0 -166 0 -11 19 c-5 11 -10 51 -10 89 0 54 -4 72 -18 85 l-19 17
-166 0 -166 0 -11 19 c-5 11 -10 44 -10 74 0 72 -17 87 -98 87 l-61 0 -11 19
c-5 11 -10 44 -10 74 0 40 -5 58 -18 70 l-19 17 -151 0 -151 0 -11 19 c-5 11
-10 51 -10 89 0 92 -11 102 -113 102 l-76 0 -11 19 c-5 11 -10 44 -10 74 0 40
-5 58 -18 70 l-19 17 -151 0 -151 0 -11 19 c-5 11 -10 44 -10 74 0 40 -5 58
-18 70 l-19 17 -166 0 -166 0 -11 19 c-5 11 -10 51 -10 89 0 89 -13 102 -98
102 l-61 0 -11 19 c-5 11 -10 44 -10 74 0 40 -5 58 -18 70 l-19 17 -256 0
-256 0 -11 19 c-5 11 -10 44 -10 74 0 40 -5 58 -18 70 l-19 17 -166 0 -166 0
-11 19 c-5 11 -10 44 -10 74 0 40 -5 58 -18 70 l-19 17 -151 0 -151 0 -11 19
c-5 11 -10 51 -10 89 0 54 -4 72 -18 85 l-19 17 -350 0 -350 0 -16 -18z"/>
</g>
</svg>
