<?xml version="1.0" encoding="UTF-8" standalone="no"?>
<!-- Created with Inkscape (http://www.inkscape.org/) -->

<svg
   version="1.1"
   id="svg1"
   width="496.67743"
   height="200.9408"
   viewBox="0 0 496.67743 200.9408"
   xmlns="http://www.w3.org/2000/svg"
   xmlns:svg="http://www.w3.org/2000/svg">
  <defs
     id="defs1" />
  <g
     id="g1"
     transform="translate(-0.43850052,-0.14039905)">
    <path
       style="fill:#000000"
       d="m 246.5,200.31334 c -1.1,-0.25006 -9.2,-2.03266 -18,-3.96133 C 151.86728,179.55661 93.769019,142.17263 83.033582,102.75 82.322155,100.1375 81.632081,98 81.500084,98 76.186423,98 44.179779,85.727541 28.5,77.677927 -10.61586,57.596803 -8.4286234,30.069722 32.5,27.336631 64.968119,25.168506 94,51.561643 94,83.246818 94,86.961068 94.175464,90 94.389921,90 c 0.214457,0 4.601957,0.861294 9.749999,1.913988 36.8311,7.531376 77.43301,7.673962 152.36008,0.535058 63.52353,-6.052398 88.47422,-15.695658 99.89161,-38.607386 3.54583,-7.115542 3.33884,-9.65846 -1.2585,-15.461032 C 335.74512,13.909896 343.06832,-6.3152183 368.28155,2.0674585 386.89732,8.2566727 395.41551,15.10198 415.824,40.273108 c 17.10066,21.091373 37.12853,43.39343 60.51632,67.388052 16.92306,17.36214 22.78905,25.5428 20.18376,28.14809 -3.90019,3.90019 -50.23753,-43.418066 -87.6851,-89.541308 -22.51006,-27.725094 -34.09108,-35.980083 -45.29119,-32.283713 -7.62694,2.517116 -8.39424,9.410365 -1.96415,17.645451 30.23295,38.719664 -3.2315,65.25843 -93.08364,73.81937 -59.30379,5.65034 -107.97703,6.80688 -134,3.184 -11.98479,-1.66851 -34.43029,-5.86027 -38.892755,-7.26333 -4.022233,-1.26465 -1.444411,7.92882 4.801445,17.12373 19.06019,28.05967 65.81658,53.17219 121.09131,65.03725 28.62679,6.14492 28.9344,6.2721 30.89028,12.77099 1.52539,5.06848 0.833,5.54004 -5.89028,4.01165 z M 80.996262,75.75 C 80.985969,44.771201 39.483975,27.32201 17.329721,48.981896 7.4493886,58.641751 28.308547,71.906608 74.5,85.337896 c 2.75,0.799629 5.3375,1.500724 5.75,1.557988 0.4125,0.05726 0.748318,-4.958384 0.746262,-11.145884 z"
       id="path1" />
  </g>
</svg>
