<?xml version="1.0" standalone="no"?>
<!DOCTYPE svg PUBLIC "-//W3C//DTD SVG 20010904//EN"
 "http://www.w3.org/TR/2001/REC-SVG-20010904/DTD/svg10.dtd">
<svg version="1.0" xmlns="http://www.w3.org/2000/svg"
 width="600.000000pt" height="153.000000pt" viewBox="0 0 600.000000 153.000000"
 preserveAspectRatio="xMidYMid meet">
<metadata>
Created by potrace 1.16, written by Peter Selinger 2001-2019
</metadata>
<g transform="translate(0.000000,153.000000) scale(0.100000,-0.100000)"
fill="#000000" stroke="none">
<path d="M995 1521 c-6 -5 -53 -12 -105 -14 -91 -4 -128 -11 -230 -43 -25 -8
-55 -14 -68 -14 -12 0 -45 -11 -72 -24 -28 -13 -88 -36 -135 -51 l-85 -27 -30
-38 c-16 -20 -57 -52 -92 -70 -84 -44 -98 -57 -98 -94 0 -18 -13 -50 -30 -76
-23 -34 -30 -57 -30 -92 0 -26 -4 -50 -10 -53 -13 -8 -13 -72 0 -80 5 -3 10
-20 10 -36 0 -16 11 -51 24 -77 13 -26 36 -87 51 -135 l28 -88 52 -47 c29 -26
64 -66 79 -89 17 -28 43 -51 75 -67 26 -14 72 -47 102 -74 30 -27 77 -61 104
-76 28 -15 73 -42 102 -60 55 -35 167 -76 208 -76 13 0 27 -4 30 -10 4 -6 63
-10 145 -10 82 0 141 4 145 10 3 6 20 10 36 10 88 0 174 97 229 260 l22 65 -7
110 c-5 74 -13 121 -25 145 -10 19 -23 53 -29 75 -6 22 -29 71 -51 107 -22 37
-40 73 -40 80 0 8 -27 41 -60 73 -33 33 -60 69 -60 79 0 18 -143 164 -255 260
-46 40 -54 54 -32 60 6 2 35 11 62 20 l50 16 348 0 348 0 36 -15 c28 -12 86
-15 285 -15 198 0 256 -3 285 -15 19 -8 60 -15 90 -15 29 0 70 -7 90 -15 19
-8 53 -15 75 -15 21 0 55 -7 75 -15 19 -8 53 -15 75 -15 21 0 55 -7 75 -15 19
-8 60 -15 90 -15 29 0 70 -7 90 -15 19 -8 53 -15 75 -15 21 0 55 -7 75 -15 19
-8 52 -15 72 -15 39 0 156 -37 220 -69 26 -14 59 -21 94 -21 33 0 84 -11 137
-30 47 -16 96 -30 110 -30 14 0 50 -12 80 -26 67 -31 163 -64 187 -64 29 0
224 -69 253 -90 28 -20 139 -60 167 -60 33 0 224 -70 261 -95 28 -19 50 -25
89 -25 29 0 73 -5 98 -12 l45 -12 67 33 c37 18 74 42 81 52 18 26 29 24 76
-14 23 -18 75 -55 116 -82 41 -27 95 -68 120 -90 25 -23 79 -63 120 -90 90
-59 189 -146 302 -263 13 -13 49 -43 81 -67 46 -34 63 -42 80 -36 l22 8 3 58
c2 32 -2 63 -7 68 -6 6 -11 19 -11 29 0 27 -56 85 -111 114 -27 15 -61 42 -75
61 -14 18 -52 47 -85 63 -32 17 -89 58 -126 93 -38 34 -87 76 -111 92 -24 16
-62 45 -85 65 -23 21 -61 47 -83 58 -23 12 -66 43 -95 70 -30 26 -88 70 -129
97 -41 27 -129 101 -195 165 -182 177 -364 287 -458 278 -59 -6 -100 -104 -60
-140 10 -9 38 -26 63 -38 39 -20 83 -52 184 -133 12 -10 38 -24 58 -30 38 -13
202 -181 195 -201 -13 -38 -73 -28 -215 36 -35 15 -74 28 -88 28 -14 0 -41 7
-61 15 -19 8 -54 15 -77 15 -29 0 -54 9 -86 30 -25 16 -58 30 -73 30 -16 0
-58 14 -94 30 -35 17 -75 30 -89 30 -14 0 -41 7 -61 15 -19 8 -45 15 -57 15
-27 0 -243 73 -295 99 -22 12 -59 21 -81 21 -22 0 -57 7 -77 15 -19 8 -58 15
-86 15 -29 0 -91 13 -142 29 -103 33 -160 49 -227 61 -26 5 -56 13 -67 19 -11
6 -38 11 -61 11 -22 0 -57 7 -77 15 -23 10 -69 15 -135 15 -65 0 -111 5 -135
15 -20 8 -66 15 -105 15 -38 0 -84 7 -105 15 -19 8 -53 15 -75 15 -21 0 -55 7
-75 15 -25 11 -72 15 -165 15 -92 0 -139 4 -165 15 -26 11 -76 15 -199 15 -98
0 -165 4 -169 10 -8 13 -517 14 -530 1z m-311 -276 c15 -19 45 -44 67 -56 35
-18 91 -67 201 -177 154 -154 189 -202 278 -376 l50 -99 0 -115 0 -115 -21
-34 c-12 -18 -37 -45 -57 -58 l-37 -25 -158 0 -159 0 -36 17 c-21 9 -50 27
-67 39 -16 12 -68 41 -115 65 -97 48 -202 144 -240 219 -12 25 -38 62 -57 83
-40 45 -53 75 -53 126 0 21 -7 55 -15 74 -8 20 -15 66 -15 102 0 113 40 178
159 255 48 32 87 50 106 50 17 0 50 14 75 30 25 16 50 30 56 30 7 0 24 -16 38
-35z"/>
</g>
</svg>
