<?xml version="1.0" standalone="no"?>
<!DOCTYPE svg PUBLIC "-//W3C//DTD SVG 20010904//EN"
 "http://www.w3.org/TR/2001/REC-SVG-20010904/DTD/svg10.dtd">
<svg version="1.0" xmlns="http://www.w3.org/2000/svg"
 width="855.000000pt" height="129.000000pt" viewBox="0 0 855.000000 129.000000"
 preserveAspectRatio="xMidYMid meet">
<metadata>
Created by potrace 1.16, written by Peter Selinger 2001-2019
</metadata>
<g transform="translate(0.000000,129.000000) scale(0.100000,-0.100000)"
fill="#000000" stroke="none">
<path d="M6420 1281 c-8 -4 -28 -14 -45 -22 -33 -16 -75 -81 -75 -117 0 -32
49 -125 130 -245 l69 -104 57 -34 c37 -22 64 -48 78 -72 l21 -38 -35 -30 c-50
-43 -184 -99 -236 -99 -12 0 -38 -7 -57 -15 -23 -9 -68 -15 -120 -15 -53 0
-98 -6 -120 -15 -27 -11 -77 -15 -195 -15 -119 0 -169 -4 -195 -15 -50 -21
-244 -21 -294 0 l-35 15 -265 0 -264 0 -36 15 c-26 11 -74 15 -180 15 -105 0
-153 4 -180 15 -19 8 -60 15 -90 15 -29 0 -70 7 -90 15 -19 8 -60 15 -90 15
-29 0 -70 7 -90 15 -19 8 -53 15 -75 15 -21 0 -55 7 -75 15 -19 8 -60 15 -90
15 -29 0 -70 7 -90 15 -22 9 -67 15 -120 15 -52 0 -97 6 -120 15 -19 8 -52 15
-71 15 -20 0 -77 13 -127 29 -122 39 -170 51 -240 60 -34 5 -70 13 -82 19 -12
7 -32 12 -44 12 -33 0 -143 39 -232 82 -59 29 -90 38 -129 38 l-51 0 -43 -44
-44 -43 0 -37 c0 -41 26 -98 76 -167 32 -44 140 -125 256 -192 54 -32 78 -64
57 -78 -11 -7 -551 -7 -1189 0 -19 0 -129 -2 -245 -5 -145 -4 -223 -2 -252 7
-32 9 -53 8 -91 -2 l-50 -12 -48 18 -47 18 -93 -7 c-52 -3 -105 -11 -120 -16
-39 -15 -149 -12 -192 5 l-39 16 -199 -4 c-221 -4 -274 -14 -274 -54 l0 -23
33 0 c17 -1 43 -7 57 -15 15 -9 54 -14 97 -15 39 0 84 -6 100 -12 18 -8 113
-15 258 -20 277 -8 236 -8 426 -2 l156 5 38 -15 37 -16 595 0 594 0 36 -15
c26 -11 76 -15 194 -15 118 0 168 -4 196 -15 l38 -15 290 2 289 3 24 35 c32
49 26 79 -23 107 -22 13 -51 23 -65 23 -48 0 -172 48 -225 86 -16 13 -68 41
-114 64 -59 30 -103 61 -146 104 -33 33 -72 69 -85 78 -20 13 -22 19 -12 26 9
6 41 1 90 -16 43 -13 104 -28 137 -32 34 -4 70 -12 82 -18 12 -7 40 -12 63
-12 22 0 57 -7 77 -15 19 -8 60 -15 90 -15 29 0 70 -7 90 -15 19 -8 53 -15 75
-15 21 0 55 -7 75 -15 19 -8 52 -15 72 -15 20 0 56 -6 81 -14 103 -33 141 -39
270 -46 74 -4 149 -12 165 -18 68 -24 126 -35 225 -41 58 -4 115 -12 127 -19
12 -7 54 -12 93 -12 40 0 86 -6 107 -15 24 -10 71 -15 150 -15 78 0 125 -5
150 -15 l35 -15 433 0 433 0 35 15 c25 10 72 15 149 15 l113 0 85 30 c46 17
99 30 117 30 18 0 113 27 211 60 98 33 191 60 207 60 39 0 144 -36 238 -82 43
-21 83 -38 90 -38 7 0 32 -14 57 -30 32 -21 57 -30 87 -30 24 0 61 -7 83 -16
l40 -16 71 22 70 23 47 53 c26 30 51 54 55 54 20 0 85 -36 126 -69 25 -20 68
-49 97 -66 29 -16 75 -43 104 -60 29 -16 77 -47 109 -67 31 -21 63 -38 72 -38
9 0 35 -15 59 -33 24 -17 70 -49 103 -69 l59 -38 79 0 79 0 0 49 0 49 -34 26
c-19 14 -70 44 -113 67 -43 22 -103 56 -133 75 -30 19 -72 39 -94 45 -56 15
-114 51 -191 119 -16 14 -57 35 -90 45 -38 12 -79 35 -110 62 -27 24 -79 58
-115 77 -36 19 -92 57 -125 85 -66 56 -183 121 -216 121 -29 0 -79 -53 -79
-84 0 -17 19 -47 56 -88 52 -59 84 -113 84 -144 0 -10 -16 -14 -61 -14 l-60 0
-67 39 c-147 86 -212 132 -212 149 0 9 9 35 18 57 28 62 45 132 38 158 -10 40
-101 170 -147 210 -92 80 -163 130 -198 139 -20 6 -48 19 -63 29 l-26 19 -89
-1 c-48 0 -95 -4 -103 -8z m199 -192 c118 -57 211 -158 211 -230 0 -34 -20
-69 -38 -69 -26 0 -164 125 -214 194 -20 28 -46 60 -56 71 -30 32 -33 42 -16
59 8 9 18 16 21 16 3 0 44 -19 92 -41z"/>
</g>
</svg>
