<?xml version="1.0" standalone="no"?>
<!DOCTYPE svg PUBLIC "-//W3C//DTD SVG 20010904//EN"
 "http://www.w3.org/TR/2001/REC-SVG-20010904/DTD/svg10.dtd">
<svg version="1.0" xmlns="http://www.w3.org/2000/svg"
 width="558.000000pt" height="129.000000pt" viewBox="0 0 558.000000 129.000000"
 preserveAspectRatio="xMidYMid meet">
<metadata>
Created by potrace 1.16, written by Peter Selinger 2001-2019
</metadata>
<g transform="translate(0.000000,129.000000) scale(0.100000,-0.100000)"
fill="#000000" stroke="none">
<path d="M1745 1280 c-3 -5 -19 -10 -34 -10 -16 0 -45 -7 -64 -15 -20 -8 -49
-15 -64 -15 -21 0 -48 -19 -105 -73 l-78 -72 0 -68 0 -67 -26 -12 -26 -12 -48
17 c-26 9 -71 17 -99 17 -28 0 -68 7 -88 15 -20 8 -66 15 -105 15 -38 0 -84 7
-105 15 -23 10 -69 15 -135 15 -65 0 -111 5 -135 15 l-35 15 -299 0 -299 0 0
-40 0 -39 30 -16 c16 -8 41 -15 55 -15 14 0 42 -7 62 -15 22 -9 67 -15 120
-15 52 0 97 -6 120 -15 26 -11 74 -15 180 -15 105 0 153 -4 180 -15 25 -11 72
-15 165 -15 92 0 139 -4 165 -15 19 -8 53 -15 75 -15 21 0 55 -7 75 -15 21 -9
67 -15 117 -15 60 0 100 -7 154 -25 89 -30 102 -31 152 -5 49 25 70 55 70 101
0 29 -10 49 -46 93 -32 38 -46 65 -47 88 l-2 33 74 38 74 37 309 0 309 0 36
-15 c19 -8 59 -15 87 -15 28 0 71 -6 96 -14 58 -18 124 -35 175 -45 22 -4 56
-12 75 -18 67 -21 125 -35 180 -42 73 -10 232 -65 278 -96 20 -14 49 -25 65
-25 15 0 44 -7 64 -15 19 -8 47 -15 62 -15 27 0 72 -21 156 -73 53 -34 168
-76 206 -77 15 0 81 -27 148 -60 67 -33 132 -60 144 -60 12 0 43 -7 69 -17
l47 -17 43 20 c23 10 58 32 76 48 41 36 83 116 76 143 -9 33 14 37 55 10 21
-14 71 -42 112 -62 41 -20 94 -54 119 -75 25 -21 74 -52 108 -69 34 -17 79
-46 100 -65 20 -18 65 -48 100 -66 35 -18 72 -46 83 -62 11 -15 44 -44 74 -63
67 -45 187 -164 207 -208 9 -17 23 -49 32 -70 l16 -38 48 3 47 3 3 76 3 77
-26 28 c-124 140 -180 193 -269 252 -55 37 -123 90 -152 119 -29 29 -61 53
-72 53 -10 0 -37 13 -58 30 -94 71 -342 234 -407 267 -40 20 -85 46 -102 58
-16 13 -59 37 -95 55 -36 18 -108 61 -161 97 l-96 64 -54 -3 -53 -3 -24 -35
c-35 -52 -27 -80 33 -112 52 -28 85 -61 161 -162 49 -65 50 -68 28 -90 -24
-25 -83 -19 -152 14 -35 17 -69 30 -75 30 -7 0 -32 14 -57 30 -25 16 -58 30
-73 30 -15 0 -44 7 -64 15 -19 8 -46 15 -60 15 -13 0 -52 17 -87 38 -74 44
-291 116 -427 142 -26 5 -64 17 -86 29 -68 34 -161 61 -213 61 -28 0 -67 7
-87 15 -19 8 -60 15 -90 15 -29 0 -70 7 -90 15 -19 8 -60 15 -90 15 -29 0 -70
7 -90 15 -25 10 -71 15 -154 15 -68 0 -120 4 -124 10 -4 6 -93 10 -235 10
-142 0 -231 -4 -235 -10z"/>
</g>
</svg>
