<?xml version="1.0" standalone="no"?>
<!DOCTYPE svg PUBLIC "-//W3C//DTD SVG 20010904//EN"
 "http://www.w3.org/TR/2001/REC-SVG-20010904/DTD/svg10.dtd">
<svg version="1.0" xmlns="http://www.w3.org/2000/svg"
 width="996.000000pt" height="261.000000pt" viewBox="0 0 996.000000 261.000000"
 preserveAspectRatio="xMidYMid meet">
<metadata>
Created by potrace 1.16, written by Peter Selinger 2001-2019
</metadata>
<g transform="translate(0.000000,261.000000) scale(0.100000,-0.100000)"
fill="#000000" stroke="none">
<path d="M7 2603 c-11 -11 -8 -311 3 -318 6 -3 10 -26 10 -50 l0 -43 36 -43
c20 -24 49 -69 65 -102 17 -32 50 -84 75 -115 24 -32 61 -79 83 -107 21 -27
50 -74 65 -102 17 -35 40 -61 66 -78 22 -14 51 -42 64 -64 14 -21 39 -49 56
-62 39 -29 86 -76 123 -123 16 -20 51 -48 78 -62 27 -15 61 -42 75 -61 14 -18
49 -45 77 -59 29 -15 72 -43 96 -62 69 -56 154 -112 171 -112 9 0 56 -27 105
-60 50 -33 96 -60 104 -60 8 0 66 -25 128 -55 145 -70 309 -125 371 -125 26 0
67 -6 92 -14 87 -28 136 -38 210 -45 41 -4 85 -13 97 -19 12 -7 60 -12 108
-12 53 0 99 -6 122 -15 19 -8 51 -15 71 -15 58 0 312 -89 347 -122 18 -16 42
-28 58 -28 15 0 44 -7 64 -15 19 -8 53 -15 75 -15 22 0 64 -11 94 -25 84 -38
170 -65 209 -65 20 0 52 -7 72 -15 19 -8 53 -15 75 -15 21 0 55 -7 75 -15 l35
-15 328 0 328 0 35 15 c20 8 55 15 77 15 31 0 80 19 202 80 89 44 168 86 175
92 19 16 59 95 68 135 8 41 56 93 84 93 12 0 38 -7 59 -16 96 -40 310 -102
397 -114 33 -5 92 -20 130 -34 39 -14 79 -26 90 -26 12 0 59 -13 105 -30 53
-18 105 -30 138 -30 29 0 69 -7 89 -15 19 -8 65 -15 102 -15 36 0 86 -6 111
-14 78 -25 133 -37 195 -45 34 -5 70 -13 82 -19 12 -7 47 -12 78 -12 30 0 72
-7 92 -15 20 -8 66 -15 105 -15 38 0 84 -7 105 -15 27 -11 77 -15 210 -15 132
0 182 -4 210 -15 28 -12 86 -15 284 -15 l249 0 41 -17 41 -16 47 16 c35 13 81
17 187 17 103 0 151 4 177 15 20 8 52 15 72 15 79 0 220 62 261 115 14 19 34
35 44 35 32 0 80 77 80 128 0 17 9 40 19 53 l19 24 49 -19 c26 -10 67 -25 90
-33 23 -8 60 -30 81 -49 22 -19 95 -62 163 -96 67 -34 139 -76 158 -93 39 -35
92 -65 113 -65 8 0 51 -25 97 -55 45 -31 103 -66 129 -80 58 -30 69 -40 110
-92 19 -24 42 -43 52 -43 10 0 22 -5 25 -10 3 -6 31 -10 61 -10 l54 0 0 64 0
64 -33 24 c-17 13 -52 36 -77 50 -25 14 -54 36 -65 48 -11 12 -51 38 -90 57
-68 35 -167 104 -194 137 -7 9 -21 16 -30 16 -36 0 -244 114 -416 227 -109 72
-158 98 -201 107 -17 4 -54 26 -82 50 -27 23 -65 48 -83 55 -46 17 -47 18
-133 88 l-75 63 -112 37 -112 37 -46 -25 c-65 -34 -66 -60 -4 -121 26 -25 76
-60 110 -78 40 -19 91 -59 142 -111 l81 -80 0 -50 c0 -69 -23 -112 -83 -156
-38 -28 -65 -39 -107 -44 -57 -7 -112 -20 -190 -45 -35 -11 -120 -14 -393 -14
l-348 0 -36 15 c-26 11 -74 15 -180 15 -105 0 -153 4 -180 15 -22 9 -67 15
-120 15 -52 0 -97 6 -120 15 -23 10 -69 15 -135 15 -65 0 -111 5 -135 15 -19
8 -53 15 -75 15 -21 0 -55 7 -75 15 -19 8 -53 15 -75 15 -21 0 -55 7 -75 15
-19 8 -52 15 -72 15 -20 0 -56 6 -81 14 -78 25 -133 37 -195 45 -34 5 -70 13
-82 19 -12 7 -32 12 -44 12 -13 0 -64 13 -114 29 -103 33 -160 49 -227 61 -26
5 -56 13 -67 19 -11 6 -32 11 -47 11 -15 0 -66 18 -113 41 -47 22 -120 52
-161 65 -88 28 -111 39 -164 76 -31 22 -50 28 -94 28 l-55 0 -43 -44 c-50 -49
-55 -80 -28 -153 25 -65 13 -104 -54 -172 -41 -43 -81 -70 -143 -100 -47 -22
-98 -41 -111 -41 -14 0 -42 -7 -61 -15 -52 -22 -422 -22 -474 0 -23 10 -69 15
-132 15 l-97 0 -84 30 c-47 16 -102 30 -123 30 -21 0 -63 11 -93 25 -83 38
-169 65 -208 65 -44 0 -79 13 -106 40 -16 16 -18 24 -10 40 6 11 17 20 26 20
37 0 95 42 127 93 19 28 42 58 51 66 33 28 56 88 56 148 -1 99 -26 152 -123
253 -47 50 -93 90 -104 90 -10 0 -31 9 -48 21 -101 68 -257 129 -334 129 -28
0 -68 7 -90 16 -46 18 -228 15 -301 -6 -153 -43 -182 -54 -200 -78 -11 -13
-20 -32 -20 -41 0 -10 -14 -30 -30 -46 l-30 -29 0 -96 0 -97 29 -40 c16 -22
39 -60 51 -84 12 -24 42 -65 67 -91 25 -25 42 -51 39 -57 -10 -15 -62 -14
-116 3 -76 24 -132 37 -195 46 -41 5 -96 26 -173 64 -62 31 -117 56 -124 56
-24 0 -180 82 -216 113 -21 19 -63 41 -100 53 -44 13 -70 27 -84 46 -10 15
-65 58 -121 95 -56 38 -122 88 -147 114 -25 25 -61 56 -81 69 -21 13 -50 45
-67 70 -17 25 -50 58 -74 73 -24 16 -54 45 -68 65 -25 37 -86 118 -134 178
-42 52 -176 258 -176 270 0 7 -13 41 -30 76 -18 38 -30 79 -30 104 0 23 -7 58
-15 77 -8 20 -15 48 -15 62 0 14 -7 39 -15 55 l-16 30 -43 0 c-23 0 -46 -3
-49 -7z m2570 -1218 c19 -8 47 -15 60 -15 34 0 144 -52 201 -95 55 -42 126
-133 143 -182 l11 -34 -24 -47 c-33 -68 -131 -132 -270 -177 l-58 -19 -57 19
c-81 26 -122 45 -167 77 -21 15 -46 28 -55 28 -9 0 -38 25 -64 55 -33 38 -59
58 -86 65 -21 5 -45 18 -54 28 -46 51 -62 168 -30 222 17 29 44 46 118 74 56
21 282 22 332 1z"/>
</g>
</svg>
