<?xml version="1.0" standalone="no"?>
<!DOCTYPE svg PUBLIC "-//W3C//DTD SVG 20010904//EN"
 "http://www.w3.org/TR/2001/REC-SVG-20010904/DTD/svg10.dtd">
<svg version="1.0" xmlns="http://www.w3.org/2000/svg"
 width="501.000000pt" height="123.000000pt" viewBox="0 0 501.000000 123.000000"
 preserveAspectRatio="xMidYMid meet">
<metadata>
Created by potrace 1.16, written by Peter Selinger 2001-2019
</metadata>
<g transform="translate(0.000000,123.000000) scale(0.100000,-0.100000)"
fill="#000000" stroke="none">
<path d="M3046 1177 c-31 -29 -56 -61 -56 -70 0 -19 36 -129 52 -162 6 -11 22
-32 36 -47 14 -15 31 -42 37 -60 7 -18 15 -40 19 -50 11 -24 -26 -32 -69 -13
-27 11 -73 15 -167 15 -92 0 -139 4 -165 15 -19 8 -60 15 -90 15 -29 0 -70 7
-90 15 -19 8 -52 15 -72 15 -20 0 -56 6 -81 14 -98 31 -139 39 -240 45 -58 4
-115 12 -127 19 -14 8 -72 12 -168 12 -107 0 -155 4 -182 15 -19 8 -60 15 -90
15 -29 0 -70 7 -90 15 -19 8 -60 15 -90 15 -29 0 -70 7 -90 15 -20 8 -66 15
-105 15 -38 0 -84 7 -105 15 -22 9 -67 15 -120 15 -52 0 -97 6 -120 15 -24 10
-71 15 -150 15 -78 0 -125 5 -150 15 -20 8 -66 15 -105 15 -38 0 -84 7 -105
15 -19 8 -60 15 -90 15 -29 0 -70 7 -90 15 -20 9 -66 15 -109 15 l-74 0 0 -53
0 -52 49 -18 c28 -9 78 -17 115 -17 37 0 83 -7 103 -15 19 -8 53 -15 75 -15
21 0 55 -7 75 -15 19 -8 53 -15 75 -15 21 0 55 -7 75 -15 19 -8 60 -15 90 -15
29 0 70 -7 90 -15 20 -8 66 -15 105 -15 38 0 84 -7 105 -15 27 -11 77 -15 207
-15 120 0 184 -4 216 -14 101 -32 140 -39 255 -45 66 -4 130 -12 142 -19 12
-6 40 -12 63 -12 22 0 57 -7 77 -15 20 -8 66 -15 105 -15 38 0 84 -7 105 -15
23 -10 69 -15 135 -15 65 0 111 -5 135 -15 19 -8 53 -15 75 -15 21 0 55 -7 75
-15 19 -8 53 -15 75 -15 21 0 55 -7 75 -15 20 -8 66 -15 105 -15 38 0 84 -7
105 -15 19 -8 53 -15 75 -15 21 0 55 -7 75 -15 23 -10 69 -15 132 -15 106 0
160 -14 289 -76 l72 -35 38 11 c20 5 48 11 62 12 30 4 70 60 70 98 0 31 -67
100 -97 100 -9 0 -63 23 -120 50 -115 55 -194 123 -233 199 -46 91 0 115 115
62 37 -17 72 -31 78 -31 7 0 54 -20 105 -45 52 -25 98 -45 103 -45 11 0 107
-55 199 -113 30 -19 69 -38 87 -42 17 -3 51 -23 75 -44 24 -21 54 -44 68 -51
46 -23 189 -122 232 -160 24 -20 55 -40 70 -43 14 -4 50 -29 80 -56 29 -26 68
-56 86 -65 18 -9 75 -58 127 -109 51 -51 112 -107 135 -126 22 -18 43 -44 46
-57 l6 -24 64 0 64 0 0 46 c0 35 -7 54 -27 81 -56 71 -199 216 -236 239 -20
14 -62 46 -91 72 -56 49 -154 124 -233 179 -25 17 -57 42 -72 56 -14 14 -41
32 -60 42 -19 9 -51 30 -72 45 -22 15 -55 31 -75 34 -24 5 -52 24 -89 62 -30
30 -62 54 -71 54 -30 0 -183 79 -223 115 -24 22 -49 35 -66 35 -16 0 -80 25
-143 55 -125 61 -218 95 -256 95 -14 0 -28 5 -31 10 -3 6 -42 10 -85 10 l-78
0 -56 -53z"/>
</g>
</svg>
