<?xml version="1.0" standalone="no"?>
<!DOCTYPE svg PUBLIC "-//W3C//DTD SVG 20010904//EN"
 "http://www.w3.org/TR/2001/REC-SVG-20010904/DTD/svg10.dtd">
<svg version="1.0" xmlns="http://www.w3.org/2000/svg"
 width="570.000000pt" height="132.000000pt" viewBox="0 0 570.000000 132.000000"
 preserveAspectRatio="xMidYMid meet">
<metadata>
Created by potrace 1.16, written by Peter Selinger 2001-2019
</metadata>
<g transform="translate(0.000000,132.000000) scale(0.100000,-0.100000)"
fill="#000000" stroke="none">
<path d="M1595 1310 c-3 -5 -21 -10 -38 -10 -44 0 -73 -22 -102 -80 -35 -68
-34 -144 2 -229 l27 -63 -18 -14 c-23 -16 -215 -8 -265 12 -21 9 -72 14 -135
14 l-101 0 -63 30 -64 30 -114 0 c-79 0 -126 5 -151 15 -20 8 -66 15 -105 15
-38 0 -84 7 -105 15 -20 8 -66 15 -104 15 -40 0 -86 7 -110 16 l-40 17 -55
-19 -54 -18 0 -57 0 -57 79 -74 c44 -40 98 -101 120 -134 22 -33 81 -103 132
-155 50 -52 99 -110 110 -130 10 -20 34 -49 54 -65 46 -37 92 -83 129 -129 30
-37 111 -85 144 -85 23 0 52 30 52 54 0 48 -66 138 -131 179 -15 8 -78 94
-142 189 -63 95 -127 184 -142 198 -38 36 -66 85 -59 104 10 25 50 30 97 12
24 -9 72 -16 110 -16 38 0 84 -7 104 -15 20 -9 66 -15 107 -15 l71 0 63 -30
64 -30 114 0 c79 0 126 -5 151 -15 19 -8 60 -15 90 -15 29 0 70 -7 90 -15 20
-8 66 -15 105 -15 38 0 84 -7 105 -15 19 -8 59 -15 87 -15 32 0 84 -11 136
-30 47 -16 100 -30 119 -30 19 0 115 -27 213 -60 98 -33 194 -60 213 -60 20 0
52 -7 72 -15 22 -9 67 -15 120 -15 52 0 97 -6 120 -15 19 -8 53 -15 75 -15 21
0 55 -7 75 -15 24 -10 71 -15 150 -15 78 0 125 -5 150 -15 26 -11 74 -15 180
-15 105 0 153 -4 180 -15 19 -8 48 -15 63 -15 15 0 44 7 63 15 22 9 69 15 119
15 66 0 100 6 168 30 46 17 92 30 102 30 24 0 132 36 177 60 20 10 71 54 114
98 59 61 77 86 77 108 0 16 4 35 9 43 l9 14 34 -13 c18 -8 47 -24 63 -36 17
-12 77 -46 135 -74 58 -29 125 -69 150 -90 25 -20 65 -47 90 -60 25 -12 65
-39 89 -59 25 -20 68 -49 97 -66 115 -65 190 -114 209 -135 11 -12 38 -31 60
-42 22 -11 63 -38 90 -59 28 -22 84 -66 126 -99 l77 -60 36 0 37 0 -3 67 -3
67 -111 75 c-63 42 -122 91 -138 113 -17 24 -50 50 -87 69 -33 16 -76 45 -97
63 -20 18 -66 48 -102 66 -36 18 -85 49 -110 69 -68 56 -244 171 -261 171 -8
0 -31 11 -51 25 -20 14 -70 42 -110 62 -40 20 -86 46 -103 59 -16 12 -77 46
-135 75 -58 29 -118 62 -135 75 -16 12 -62 38 -102 58 -39 20 -108 61 -153 91
-45 30 -92 55 -104 55 -13 0 -38 -10 -57 -23 l-34 -23 -3 -42 -3 -42 48 -51
c46 -49 110 -90 164 -102 58 -14 179 -147 179 -197 0 -28 -33 -80 -51 -80 -5
0 -40 -19 -77 -42 -37 -22 -85 -45 -107 -49 -52 -10 -119 -27 -175 -45 -34
-11 -108 -14 -303 -14 l-258 0 -36 15 c-24 10 -71 15 -150 15 -78 0 -125 5
-150 15 -19 8 -60 15 -90 15 -29 0 -70 7 -90 15 -19 8 -53 15 -75 15 -21 0
-55 7 -75 15 -19 8 -52 15 -72 15 -20 0 -56 6 -81 14 -61 19 -125 35 -183 46
-61 11 -107 44 -107 76 0 14 7 41 15 61 39 93 3 229 -73 277 -21 13 -49 39
-64 58 -30 39 -142 98 -187 98 -16 0 -33 5 -36 10 -3 6 -42 10 -85 10 -43 0
-82 -4 -85 -10z m202 -180 c35 -16 70 -30 77 -30 25 0 64 -40 80 -81 18 -44
15 -68 -16 -111 l-19 -28 -43 0 c-32 0 -53 7 -82 30 -21 16 -63 46 -92 66 -52
36 -102 96 -102 122 0 7 11 24 25 37 34 35 89 33 172 -5z"/>
</g>
</svg>
