<?xml version="1.0" standalone="no"?>
<!DOCTYPE svg PUBLIC "-//W3C//DTD SVG 20010904//EN"
 "http://www.w3.org/TR/2001/REC-SVG-20010904/DTD/svg10.dtd">
<svg version="1.0" xmlns="http://www.w3.org/2000/svg"
 width="447.000000pt" height="297.000000pt" viewBox="0 0 447.000000 297.000000"
 preserveAspectRatio="xMidYMid meet">
<metadata>
Created by potrace 1.16, written by Peter Selinger 2001-2019
</metadata>
<g transform="translate(0.000000,297.000000) scale(0.100000,-0.100000)"
fill="#000000" stroke="none">
<path d="M0 2935 c0 -19 5 -35 11 -35 5 0 36 -12 67 -27 62 -29 114 -38 302
-54 69 -5 143 -15 165 -21 22 -6 94 -13 160 -17 66 -4 130 -12 142 -19 12 -6
34 -12 48 -12 15 0 56 -13 92 -30 35 -16 69 -30 75 -30 7 0 66 -26 132 -58 67
-32 132 -62 146 -65 14 -3 43 -22 65 -40 22 -19 64 -47 93 -62 29 -15 65 -43
79 -62 15 -19 48 -45 74 -59 26 -13 60 -40 75 -59 14 -19 59 -56 98 -82 39
-26 101 -76 138 -110 37 -35 71 -63 76 -63 5 0 45 -33 89 -72 45 -40 106 -91
137 -112 31 -22 63 -50 71 -62 8 -13 37 -38 64 -55 27 -18 62 -52 77 -77 16
-24 49 -57 74 -74 25 -16 58 -47 73 -69 16 -22 50 -50 78 -64 26 -14 59 -39
71 -56 12 -16 47 -48 78 -71 30 -23 74 -62 96 -87 23 -26 61 -59 86 -74 24
-16 54 -44 67 -63 13 -19 38 -45 55 -57 17 -12 61 -50 98 -84 37 -35 72 -63
78 -63 6 0 63 -51 128 -113 64 -62 134 -124 154 -137 20 -14 49 -44 64 -68 16
-24 52 -60 83 -80 31 -20 76 -58 101 -83 25 -25 57 -53 73 -62 15 -10 38 -35
52 -57 14 -22 43 -49 64 -59 38 -20 231 -206 231 -223 0 -4 27 -8 60 -8 33 0
60 4 60 9 0 5 16 24 35 42 l35 33 0 73 c0 39 -4 75 -10 78 -5 3 -10 14 -10 23
0 9 -27 57 -60 107 -33 49 -60 97 -60 106 0 9 -13 34 -29 56 -16 22 -39 60
-51 84 -13 24 -37 65 -55 91 -19 26 -37 63 -40 80 -4 18 -22 50 -41 70 -18 20
-40 52 -50 70 -9 18 -28 48 -41 67 -14 18 -30 51 -35 74 -5 22 -20 54 -34 70
-14 16 -39 57 -56 91 -16 34 -40 72 -53 86 -31 34 -111 154 -137 204 -11 22
-43 65 -69 94 -27 29 -53 69 -58 88 -5 20 -21 51 -35 69 -14 19 -26 38 -26 42
0 5 -13 24 -30 43 -16 19 -29 41 -30 48 0 20 38 14 67 -12 67 -59 145 -117
190 -140 26 -14 73 -45 103 -70 30 -26 76 -60 102 -77 26 -17 57 -44 69 -60
11 -16 39 -39 61 -50 22 -11 69 -48 105 -82 74 -71 97 -86 135 -87 32 0 68 41
68 78 0 37 -120 148 -260 240 -20 13 -51 47 -71 75 l-35 52 -48 15 c-26 9 -66
31 -89 50 -56 48 -77 59 -112 60 -39 0 -75 25 -75 51 0 31 -97 127 -139 139
-20 5 -63 32 -96 59 -33 28 -76 59 -96 70 -20 11 -74 46 -119 76 -95 66 -168
92 -202 74 -37 -19 -58 -41 -58 -61 0 -27 27 -77 66 -120 18 -20 42 -55 54
-78 11 -22 38 -51 60 -65 52 -33 78 -63 89 -102 8 -29 49 -85 122 -168 14 -16
35 -59 45 -93 15 -50 27 -70 57 -94 21 -17 49 -53 64 -82 14 -28 35 -64 48
-81 12 -16 30 -46 40 -65 10 -19 33 -52 51 -72 18 -21 47 -63 63 -95 16 -32
41 -69 55 -82 14 -14 26 -31 26 -39 0 -28 90 -188 135 -239 25 -28 45 -57 45
-65 0 -12 21 -50 85 -157 80 -132 94 -161 89 -175 -3 -9 -11 -16 -17 -16 -15
0 -77 48 -123 97 -22 24 -49 43 -60 43 -10 0 -41 23 -69 51 -27 28 -66 62 -86
74 -20 13 -71 58 -114 99 -43 42 -86 76 -94 76 -9 0 -34 20 -54 45 -20 24 -62
60 -91 80 -30 20 -73 60 -95 90 -23 30 -46 55 -51 55 -8 0 -114 96 -285 259
-38 36 -90 77 -115 91 -24 14 -56 43 -71 65 -15 22 -52 56 -82 75 -85 54 -176
129 -241 197 -32 34 -90 88 -129 120 -39 32 -98 83 -132 114 -33 30 -73 64
-90 74 -16 10 -50 37 -75 60 -25 22 -65 54 -90 70 -42 28 -78 60 -203 180 -58
56 -144 124 -249 200 -49 35 -84 71 -117 120 -30 44 -62 78 -87 92 l-39 23
-100 0 c-58 0 -119 6 -145 14 -87 28 -136 38 -210 45 -41 4 -85 13 -97 19 -12
7 -61 12 -112 12 -49 0 -93 5 -96 10 -4 6 -105 10 -271 10 l-264 0 0 -35z"/>
</g>
</svg>
