<?xml version="1.0" standalone="no"?>
<!DOCTYPE svg PUBLIC "-//W3C//DTD SVG 20010904//EN"
 "http://www.w3.org/TR/2001/REC-SVG-20010904/DTD/svg10.dtd">
<svg version="1.0" xmlns="http://www.w3.org/2000/svg"
 width="297.000000pt" height="231.000000pt" viewBox="0 0 297.000000 231.000000"
 preserveAspectRatio="xMidYMid meet">
<metadata>
Created by potrace 1.16, written by Peter Selinger 2001-2019
</metadata>
<g transform="translate(0.000000,231.000000) scale(0.100000,-0.100000)"
fill="#000000" stroke="none">
<path d="M970 2286 c-10 -27 4 -80 44 -168 14 -31 26 -63 26 -70 0 -8 14 -27
30 -43 17 -16 30 -35 30 -42 0 -32 104 -220 150 -270 27 -30 53 -68 58 -86 5
-18 52 -97 106 -176 53 -79 96 -147 96 -152 0 -4 18 -29 40 -54 23 -26 54 -73
71 -104 16 -31 52 -83 80 -116 57 -69 93 -134 87 -161 -4 -25 -82 -31 -133
-10 -22 9 -67 16 -107 16 -38 0 -84 7 -105 15 -23 10 -69 15 -135 15 -65 0
-111 5 -135 15 -19 8 -54 15 -77 15 -22 0 -59 9 -81 19 -38 17 -105 76 -105
93 0 4 -26 27 -57 50 -32 23 -83 64 -113 90 -30 27 -95 69 -145 95 -49 25
-108 59 -129 75 -21 15 -52 28 -68 28 -16 0 -45 7 -65 15 -21 9 -66 15 -112
15 -77 -1 -91 -5 -188 -65 l-33 -20 0 -105 0 -106 35 -13 c19 -7 50 -31 68
-53 38 -48 58 -59 174 -96 48 -16 107 -39 130 -51 23 -11 54 -21 68 -21 14 0
42 -7 62 -15 19 -8 53 -15 75 -15 21 0 55 -7 75 -15 19 -8 45 -15 57 -15 30 0
135 -38 167 -60 30 -22 127 -163 157 -230 29 -63 62 -161 62 -183 0 -60 -109
-167 -170 -167 -15 0 -44 -7 -63 -15 -20 -8 -63 -15 -95 -15 -64 0 -92 -18
-92 -58 0 -40 35 -52 158 -52 116 0 183 15 273 60 37 19 95 95 138 178 l21 41
0 94 0 94 -31 42 c-17 24 -44 72 -60 107 -24 51 -28 68 -19 84 l11 20 85 0
c53 0 98 -6 121 -15 23 -10 69 -15 135 -15 65 0 111 -5 135 -15 19 -8 52 -15
72 -15 20 0 56 -7 81 -15 25 -8 61 -17 81 -20 48 -7 109 -49 139 -93 38 -58
349 -364 414 -407 32 -22 66 -50 75 -61 23 -29 94 -64 130 -64 16 0 33 -5 36
-10 7 -12 157 -14 171 -2 5 5 28 15 52 22 l42 13 0 118 0 117 -31 34 c-17 18
-40 44 -52 56 -36 39 -156 133 -254 199 l-92 62 -196 66 c-108 36 -205 65
-217 65 -18 0 -43 18 -130 97 -15 13 -31 39 -36 57 -13 44 -87 151 -123 177
-16 11 -29 27 -29 35 0 28 -43 99 -91 152 -28 31 -71 97 -100 155 -28 56 -64
116 -80 132 -16 17 -29 37 -29 43 0 22 -31 75 -66 114 -71 80 -138 262 -104
283 18 11 95 -33 127 -73 21 -25 56 -49 114 -76 46 -21 99 -46 118 -54 18 -9
60 -43 92 -74 32 -32 65 -58 75 -58 9 0 45 -32 81 -70 36 -39 77 -73 91 -77
15 -3 44 -21 64 -39 20 -18 68 -53 107 -79 39 -26 108 -82 153 -126 46 -44 91
-85 100 -90 33 -18 58 -10 74 24 l16 34 -20 40 c-12 22 -37 53 -57 69 -20 16
-60 52 -89 79 -28 28 -75 68 -104 90 -29 22 -77 58 -105 80 -29 22 -85 62
-125 89 -43 28 -83 64 -98 87 -23 36 -103 89 -136 89 -7 0 -32 23 -56 50 -32
37 -67 62 -132 95 -58 29 -98 57 -118 82 -24 30 -44 42 -94 57 -34 10 -76 31
-93 47 -16 15 -49 37 -71 49 -23 11 -50 30 -59 40 l-18 20 -99 0 -98 0 -10
-24z m-515 -1132 c107 -70 200 -153 187 -166 -17 -17 -185 30 -312 87 -52 24
-103 46 -113 49 -9 3 -25 22 -34 41 l-17 36 14 9 c8 6 51 10 95 10 l80 0 100
-66z m1951 -659 c31 -14 69 -25 85 -25 15 0 30 -4 34 -10 7 -11 141 -119 177
-143 26 -16 98 -117 98 -136 0 -10 -25 -21 -49 -21 -9 0 -53 17 -97 39 -63 30
-97 56 -164 124 -86 86 -170 181 -170 191 0 12 31 5 86 -19z"/>
</g>
</svg>
