<?xml version="1.0" standalone="no"?>
<!DOCTYPE svg PUBLIC "-//W3C//DTD SVG 20010904//EN"
 "http://www.w3.org/TR/2001/REC-SVG-20010904/DTD/svg10.dtd">
<svg version="1.0" xmlns="http://www.w3.org/2000/svg"
 width="1191.000000pt" height="198.000000pt" viewBox="0 0 1191.000000 198.000000"
 preserveAspectRatio="xMidYMid meet">
<metadata>
Created by potrace 1.16, written by Peter Selinger 2001-2019
</metadata>
<g transform="translate(0.000000,198.000000) scale(0.100000,-0.100000)"
fill="#000000" stroke="none">
<path d="M4505 1972 c-6 -5 -40 -18 -76 -30 -36 -11 -91 -32 -122 -46 -31 -14
-63 -26 -71 -26 -8 0 -30 -19 -48 -43 -18 -24 -50 -57 -73 -74 -32 -24 -44
-43 -58 -89 -22 -74 -21 -114 2 -184 l19 -55 46 -31 c26 -17 64 -50 85 -73 29
-32 45 -41 70 -41 18 0 62 -13 98 -30 35 -16 70 -30 76 -30 7 0 37 -12 67 -26
82 -38 165 -64 205 -64 20 0 52 -7 72 -15 19 -8 65 -15 102 -15 36 0 86 -6
111 -14 70 -22 131 -37 173 -43 55 -7 66 -34 33 -83 -40 -61 -152 -140 -198
-140 -7 0 -33 -14 -58 -30 -25 -16 -50 -30 -57 -30 -6 0 -40 -13 -75 -30 l-63
-30 -86 0 c-54 0 -100 -6 -122 -15 -24 -10 -70 -15 -135 -15 -66 0 -112 -5
-135 -15 l-36 -15 -411 0 -411 0 -36 15 c-23 10 -69 15 -135 15 -65 0 -111 5
-135 15 -20 8 -66 15 -105 15 -38 0 -84 7 -105 15 -19 8 -60 15 -90 15 -29 0
-70 7 -90 15 -19 8 -53 15 -75 15 -21 0 -55 7 -75 15 -19 8 -52 15 -72 15 -20
0 -56 6 -81 14 -93 29 -137 38 -225 46 -55 5 -117 18 -160 34 -38 14 -81 26
-93 26 -13 0 -53 14 -89 30 -35 17 -75 30 -89 30 -14 0 -41 7 -61 15 -19 8
-54 15 -77 15 -31 0 -54 9 -94 37 l-53 36 6 21 c4 12 10 56 12 98 l5 78 -66
69 -67 68 -65 22 c-84 27 -175 27 -256 0 -149 -50 -206 -106 -218 -214 l-5
-50 -30 3 c-16 1 -77 6 -135 10 l-105 7 -40 28 c-28 19 -52 27 -83 27 -23 0
-59 7 -79 15 -20 8 -66 15 -105 15 -38 0 -84 7 -105 15 -45 19 -86 19 -123 0
l-30 -16 0 -39 c0 -22 5 -40 11 -40 6 0 40 -14 76 -30 35 -17 75 -30 89 -30
14 0 41 -7 61 -15 22 -9 68 -15 122 -15 l86 0 93 -45 94 -45 114 0 c79 0 126
-5 151 -15 20 -8 66 -15 105 -15 38 0 84 -7 105 -15 22 -9 67 -15 117 -15 82
0 146 -16 244 -61 75 -34 227 -77 317 -88 34 -5 70 -13 82 -19 12 -7 32 -12
45 -12 13 0 43 -6 68 -14 56 -18 123 -35 175 -45 22 -4 89 -24 148 -44 l108
-37 44 12 43 12 44 -17 c24 -9 61 -17 81 -17 21 0 54 -7 74 -15 19 -8 60 -15
90 -15 29 0 70 -7 90 -15 19 -8 53 -15 75 -15 21 0 55 -7 75 -15 19 -8 53 -15
75 -15 21 0 55 -7 75 -15 l35 -15 295 0 294 0 36 -15 c45 -19 111 -19 156 0
29 12 83 15 255 15 173 0 227 3 255 15 20 8 66 15 101 15 l65 0 198 66 c208
69 338 128 388 174 17 15 42 30 57 34 14 3 54 36 91 76 36 38 78 77 93 85 39
20 182 20 231 0 20 -8 66 -15 105 -15 38 0 84 -7 105 -15 20 -8 66 -15 105
-15 38 0 84 -7 105 -15 26 -11 74 -15 180 -15 105 0 153 -4 180 -15 26 -11 74
-15 180 -15 105 0 153 -4 180 -15 27 -12 81 -15 240 -15 158 0 212 -3 240 -15
l35 -15 412 0 412 0 79 -28 c44 -15 100 -42 124 -60 27 -20 56 -32 75 -32 17
0 60 -14 94 -30 35 -17 69 -30 74 -30 6 0 50 -18 97 -41 47 -22 122 -52 166
-67 44 -14 128 -49 188 -79 59 -29 119 -53 133 -53 13 0 41 -7 61 -15 19 -8
60 -15 90 -15 29 0 70 -7 90 -15 19 -8 60 -15 90 -15 29 0 70 -7 90 -15 51
-21 375 -21 426 0 20 8 54 15 75 15 22 0 56 7 75 15 20 8 55 15 79 15 62 0
170 74 203 140 14 27 25 61 25 75 0 50 -41 148 -96 227 -30 44 -66 102 -80
129 -13 27 -38 59 -55 71 -17 13 -38 36 -46 52 l-15 28 16 16 16 16 42 -30
c24 -16 61 -37 83 -45 22 -9 65 -26 95 -39 30 -12 69 -27 86 -34 17 -6 48 -26
68 -44 21 -18 79 -59 129 -92 85 -54 114 -74 200 -138 17 -12 42 -25 56 -29
14 -3 43 -21 63 -39 21 -18 84 -64 140 -101 99 -65 192 -141 288 -236 25 -25
64 -54 87 -66 23 -11 50 -33 60 -48 10 -15 39 -48 64 -73 26 -25 52 -55 58
-68 l12 -23 47 3 47 3 3 44 c2 25 -1 54 -6 65 -5 12 -14 32 -20 47 -5 14 -26
38 -47 55 -45 36 -89 80 -134 134 -18 22 -45 43 -60 47 -14 3 -42 20 -62 37
-19 17 -59 49 -88 71 -29 22 -76 58 -104 80 -75 57 -137 100 -173 118 -17 9
-58 39 -90 66 -33 28 -86 65 -119 83 -33 17 -73 41 -90 54 -16 12 -53 33 -81
47 -28 14 -75 48 -105 75 -64 59 -93 74 -200 108 -45 15 -112 42 -150 60 -105
51 -182 74 -249 74 l-60 0 -40 -36 c-47 -43 -51 -71 -16 -117 13 -18 35 -55
50 -84 17 -34 40 -61 68 -80 25 -17 54 -48 69 -76 14 -26 39 -62 56 -80 88
-93 129 -188 102 -236 -17 -29 -104 -77 -200 -109 l-65 -22 -213 0 c-165 0
-219 3 -248 15 -19 8 -53 15 -75 15 -21 0 -55 7 -75 15 -19 8 -45 15 -56 15
-12 0 -62 13 -112 29 -101 33 -161 49 -221 60 -22 4 -54 17 -71 29 -16 11 -90
41 -164 65 -74 25 -154 54 -177 66 -23 11 -46 21 -52 21 -6 0 -41 18 -78 40
-36 22 -84 45 -106 51 -22 6 -72 27 -111 47 -66 34 -103 42 -245 58 -25 3
-265 8 -535 12 -363 5 -496 10 -512 20 -16 9 -93 12 -288 12 l-266 0 -36 15
c-23 10 -69 15 -135 15 -65 0 -111 5 -135 15 -20 8 -66 15 -105 15 -38 0 -84
7 -105 15 -19 8 -59 15 -87 15 -32 0 -84 11 -136 30 -47 16 -104 30 -127 30
-57 0 -63 15 -63 144 0 121 -21 203 -76 289 -18 29 -44 73 -58 99 -14 25 -43
59 -64 74 -21 15 -51 45 -66 66 -25 35 -89 78 -116 78 -7 0 -41 14 -77 30 -35
17 -77 30 -93 30 -16 0 -32 5 -35 10 -8 12 -457 14 -470 2z m460 -142 c84 -29
104 -39 155 -80 25 -19 57 -43 72 -53 74 -46 168 -274 168 -405 0 -40 -5 -82
-10 -93 l-11 -19 -70 0 c-39 0 -85 7 -106 15 -19 8 -45 15 -57 15 -12 0 -60
13 -106 30 -53 18 -105 30 -138 30 -29 0 -69 7 -89 15 -19 8 -52 15 -72 15
-50 0 -196 51 -303 106 -41 21 -79 39 -113 55 -23 11 -34 27 -48 69 l-17 55
12 48 12 48 52 39 c56 42 124 77 214 109 l55 19 170 1 171 1 59 -20z m-3721
-560 c14 -5 34 -18 46 -30 25 -25 15 -52 -28 -69 l-29 -12 -56 16 c-87 25
-100 56 -35 88 38 19 66 21 102 7z"/>
</g>
</svg>
