<?xml version="1.0" standalone="no"?>
<!DOCTYPE svg PUBLIC "-//W3C//DTD SVG 20010904//EN"
 "http://www.w3.org/TR/2001/REC-SVG-20010904/DTD/svg10.dtd">
<svg version="1.0" xmlns="http://www.w3.org/2000/svg"
 width="732.000000pt" height="300.000000pt" viewBox="0 0 732.000000 300.000000"
 preserveAspectRatio="xMidYMid meet">
<metadata>
Created by potrace 1.16, written by Peter Selinger 2001-2019
</metadata>
<g transform="translate(0.000000,300.000000) scale(0.100000,-0.100000)"
fill="#000000" stroke="none">
<path d="M70 2991 c0 -5 -16 -24 -35 -42 l-35 -33 0 -54 0 -53 39 -52 c21 -29
48 -73 61 -97 12 -25 32 -56 45 -70 33 -36 112 -155 141 -211 13 -27 38 -59
55 -71 17 -13 40 -39 51 -58 12 -19 36 -51 53 -70 18 -19 48 -58 67 -87 44
-64 119 -153 180 -212 25 -26 58 -69 72 -98 14 -28 39 -62 55 -75 17 -12 48
-47 70 -76 22 -30 58 -72 80 -95 104 -106 268 -269 316 -316 17 -16 41 -43 54
-61 13 -17 42 -43 64 -57 22 -14 61 -45 86 -68 64 -59 119 -85 181 -85 l52 0
29 29 29 29 0 64 c-1 80 -26 154 -72 208 -21 23 -40 56 -44 74 -10 49 -33 88
-80 136 -25 25 -84 87 -132 138 -48 52 -112 110 -142 130 -30 21 -78 60 -106
88 -34 35 -61 53 -86 58 -20 4 -55 23 -79 45 -49 42 -146 95 -198 106 -21 4
-52 27 -87 61 -29 30 -62 54 -72 54 -11 0 -31 15 -45 33 -59 78 -238 352 -243
374 l-6 23 29 0 c18 0 60 -21 118 -60 50 -33 96 -60 103 -60 21 0 82 -30 126
-62 21 -15 47 -28 56 -28 9 0 27 -12 41 -26 26 -28 78 -57 119 -67 14 -4 44
-22 66 -41 23 -19 74 -52 115 -72 41 -20 94 -53 119 -74 25 -20 63 -46 86 -58
22 -11 80 -48 130 -81 49 -34 95 -61 102 -61 14 0 106 -52 202 -114 30 -19 98
-56 150 -82 52 -26 109 -57 125 -70 17 -12 80 -48 140 -79 61 -31 135 -72 165
-91 30 -19 72 -39 92 -44 47 -13 65 -23 169 -93 47 -31 91 -57 98 -57 27 0
148 -63 191 -99 46 -39 120 -81 141 -81 20 0 196 -88 240 -120 23 -16 49 -30
58 -30 9 0 30 -9 46 -21 40 -27 182 -99 196 -99 6 0 40 -13 76 -30 35 -16 69
-30 75 -30 5 0 39 -13 75 -30 35 -16 81 -30 102 -30 20 0 75 -13 121 -30 47
-16 94 -30 105 -30 12 0 59 -13 105 -30 47 -16 96 -30 108 -30 13 0 53 -13 89
-30 35 -16 75 -30 89 -30 14 0 41 -7 61 -15 l35 -15 355 0 354 0 61 21 c142
48 260 128 349 238 45 56 61 92 95 209 5 17 60 15 102 -5 39 -18 98 -59 147
-104 17 -15 44 -30 61 -33 17 -4 56 -28 85 -53 30 -25 99 -76 154 -112 55 -36
120 -84 145 -106 25 -23 58 -49 75 -60 16 -10 60 -47 97 -82 37 -34 75 -63 85
-63 10 0 40 -25 66 -55 30 -34 60 -58 80 -63 25 -6 40 -22 68 -68 34 -56 49
-69 112 -93 17 -7 34 -24 40 -42 l12 -30 60 3 60 3 3 50 3 50 -52 58 c-29 32
-71 70 -93 85 -23 14 -68 51 -101 82 -33 30 -80 69 -105 85 -24 17 -68 54 -97
83 -29 28 -60 52 -70 52 -10 0 -39 24 -65 54 -33 37 -60 58 -90 67 -29 10 -51
26 -72 56 -32 44 -98 93 -176 133 -25 12 -65 39 -90 60 -49 40 -109 73 -152
84 -14 3 -51 28 -81 56 -29 27 -89 67 -133 89 -43 22 -101 58 -128 80 l-48 41
-68 0 c-86 0 -100 -13 -100 -97 0 -33 7 -77 15 -96 36 -86 8 -166 -93 -267
-67 -67 -139 -110 -185 -110 -14 0 -41 -7 -62 -16 l-37 -15 -172 5 c-94 3
-180 5 -191 6 -11 0 -49 -2 -85 -6 -49 -4 -75 -2 -104 10 -21 9 -61 16 -89 16
-55 0 -311 80 -405 127 -74 36 -79 50 -46 124 l28 61 -12 44 c-7 24 -12 60
-12 80 0 36 -27 98 -65 149 -12 17 -34 54 -49 82 -17 35 -40 62 -66 78 -22 14
-51 42 -64 63 -29 45 -57 71 -116 104 -25 14 -54 36 -65 48 -24 26 -136 85
-182 94 -18 4 -58 25 -90 47 -33 22 -70 39 -86 39 -15 0 -44 7 -64 15 -52 22
-231 21 -278 -2 -21 -10 -61 -48 -96 -92 l-59 -75 0 -47 c0 -25 7 -63 15 -82
19 -45 20 -147 3 -147 -7 0 -33 9 -57 20 -24 11 -48 20 -55 20 -6 0 -29 12
-50 26 -21 15 -100 58 -175 96 -75 38 -161 85 -191 104 -30 19 -72 39 -94 45
-49 13 -70 25 -126 70 -47 37 -121 79 -141 79 -21 0 -83 34 -163 89 -44 29
-127 78 -185 108 -58 30 -131 70 -161 89 -30 19 -66 37 -80 41 -14 3 -38 18
-55 33 -52 47 -98 77 -175 115 -41 21 -96 55 -122 76 -25 21 -79 55 -120 75
-40 21 -86 47 -103 60 -16 12 -72 44 -124 70 -52 26 -111 62 -130 79 -20 18
-65 47 -101 65 -36 18 -87 50 -115 71 -27 22 -84 66 -126 99 l-77 60 -46 0
c-25 0 -46 -4 -46 -9z m3314 -1320 c34 -16 77 -32 94 -36 18 -3 53 -21 80 -39
26 -18 66 -43 88 -55 23 -13 58 -43 79 -68 20 -24 55 -55 77 -69 22 -14 47
-39 56 -56 10 -16 33 -58 53 -92 l37 -61 3 -90 4 -90 -39 -18 -38 -18 -52 11
c-98 22 -161 43 -206 71 -25 15 -76 44 -115 64 -122 63 -286 178 -322 227 -7
9 -32 39 -55 66 -29 34 -50 74 -66 121 l-23 72 17 28 c29 50 59 60 167 61 l99
0 62 -29z m-2230 -6 c18 -14 35 -25 38 -25 20 0 134 -89 153 -120 13 -21 45
-55 70 -76 25 -21 45 -45 45 -54 0 -8 14 -35 30 -60 16 -25 30 -49 30 -54 0
-6 12 -22 26 -37 17 -18 24 -34 20 -45 l-6 -16 -16 13 c-8 7 -22 25 -30 41 -8
16 -26 31 -42 34 -33 8 -236 213 -263 266 -11 21 -33 48 -49 60 -26 18 -70 78
-70 94 0 12 35 1 64 -21z"/>
</g>
</svg>
