<?xml version="1.0" standalone="no"?>
<!DOCTYPE svg PUBLIC "-//W3C//DTD SVG 20010904//EN"
 "http://www.w3.org/TR/2001/REC-SVG-20010904/DTD/svg10.dtd">
<svg version="1.0" xmlns="http://www.w3.org/2000/svg"
 width="708.000000pt" height="177.000000pt" viewBox="0 0 708.000000 177.000000"
 preserveAspectRatio="xMidYMid meet">
<metadata>
Created by potrace 1.16, written by Peter Selinger 2001-2019
</metadata>
<g transform="translate(0.000000,177.000000) scale(0.100000,-0.100000)"
fill="#000000" stroke="none">
<path d="M3534 1726 l-51 -45 -21 -66 c-35 -104 -31 -128 44 -278 l67 -132 99
-103 c54 -57 97 -109 95 -115 -6 -20 -237 -21 -283 -2 -28 11 -77 15 -211 15
-132 0 -182 4 -210 15 -19 8 -53 15 -75 15 -21 0 -55 7 -75 15 -22 9 -67 15
-119 15 -45 0 -95 5 -111 12 -28 11 -141 30 -178 29 -11 0 -49 -3 -85 -7 -49
-4 -75 -2 -104 10 -27 11 -69 16 -138 16 -65 0 -111 5 -135 15 -27 11 -77 15
-210 15 -132 0 -182 4 -210 15 -20 8 -66 15 -105 15 -38 0 -84 7 -105 15 -27
11 -77 15 -210 15 -132 0 -182 4 -210 15 l-35 15 -374 0 -374 0 -73 -36 c-39
-20 -87 -48 -104 -62 l-33 -24 0 -89 c0 -49 5 -91 10 -94 6 -4 21 -28 35 -55
27 -53 162 -182 223 -214 20 -10 51 -29 67 -42 35 -26 229 -124 246 -124 7 0
51 -18 98 -41 110 -52 191 -79 236 -79 20 0 52 -7 72 -15 19 -8 61 -15 93 -15
32 0 74 7 93 15 20 8 48 15 62 15 42 0 117 45 176 107 83 85 99 123 99 233 l0
91 -24 47 c-13 26 -31 74 -40 106 l-17 59 13 8 c21 13 75 10 115 -6 23 -10 69
-15 135 -15 65 0 111 -5 135 -15 20 -8 66 -15 105 -15 38 0 84 -7 105 -15 l35
-15 280 0 279 0 36 -15 c19 -8 53 -15 75 -15 21 0 55 -7 75 -15 20 -8 66 -15
105 -15 38 0 84 -7 105 -15 19 -8 60 -15 90 -15 29 0 70 -7 90 -15 24 -10 71
-15 150 -15 78 0 125 -5 150 -15 27 -12 81 -15 240 -15 158 0 212 -3 240 -15
19 -8 53 -15 75 -15 21 0 55 -7 75 -15 19 -8 46 -15 60 -15 13 0 49 -11 79
-25 71 -33 168 -65 194 -65 12 0 46 -11 76 -25 84 -38 170 -65 209 -65 20 0
52 -7 72 -15 19 -8 53 -15 75 -15 21 0 55 -7 75 -15 19 -8 53 -15 75 -15 21 0
55 -7 75 -15 19 -8 53 -15 75 -15 21 0 55 -7 75 -15 22 -9 67 -15 120 -15 52
0 97 -6 120 -15 48 -20 198 -20 246 0 20 8 52 15 72 15 73 0 211 58 260 110
17 17 45 41 63 52 l33 21 25 -12 c14 -6 46 -31 72 -55 26 -24 70 -55 97 -69
28 -13 78 -50 113 -81 34 -31 71 -56 81 -56 10 0 31 -16 45 -35 15 -19 49 -46
75 -60 68 -34 178 -110 233 -161 l47 -44 51 0 50 0 0 69 0 70 -41 28 c-23 15
-64 46 -93 68 -28 22 -85 63 -126 90 -41 27 -88 61 -105 75 -16 15 -64 48
-105 75 -41 27 -105 78 -142 112 -37 35 -76 63 -86 63 -11 0 -26 7 -33 17 -8
9 -42 38 -77 64 -35 26 -82 69 -104 94 -41 47 -121 95 -158 95 -26 0 -99 -66
-106 -96 -4 -15 4 -48 21 -89 l28 -64 -13 -31 c-7 -17 -37 -48 -68 -70 l-55
-40 -204 0 c-158 0 -212 3 -240 15 -19 8 -52 15 -72 15 -20 0 -56 6 -81 14
-60 19 -125 35 -182 46 -26 5 -56 13 -67 19 -11 6 -44 11 -73 11 -58 0 -156
30 -199 61 -15 10 -44 24 -65 31 -21 7 -40 20 -42 29 -1 9 17 38 42 66 31 34
52 71 67 116 l22 66 -17 41 c-9 22 -16 54 -16 70 0 21 -15 46 -56 92 -30 34
-58 75 -61 90 -3 17 -22 41 -47 60 -22 18 -70 58 -106 89 -59 51 -173 119
-201 119 -17 0 -80 31 -114 56 -34 25 -142 64 -179 64 -14 0 -28 5 -31 10 -4
6 -68 10 -158 10 l-152 0 -51 -44z m363 -131 c19 -8 47 -15 62 -15 37 0 207
-84 261 -128 25 -21 61 -48 80 -61 19 -13 50 -42 68 -65 18 -22 51 -63 73 -91
22 -27 49 -68 60 -90 22 -47 26 -149 7 -162 -44 -27 -119 -43 -207 -43 l-95 0
-112 55 c-62 30 -133 73 -159 95 -25 22 -50 40 -55 40 -4 0 -49 41 -100 92
l-92 92 -39 80 c-48 98 -52 154 -14 191 l24 25 101 0 c67 0 113 -5 137 -15z
m-2980 -507 c15 -7 86 -15 158 -18 l130 -5 31 -55 c18 -30 48 -83 68 -117 20
-34 36 -73 36 -86 0 -14 7 -42 16 -62 l16 -38 -16 -42 c-24 -61 -66 -99 -139
-124 -77 -25 -199 -29 -254 -6 -19 8 -53 15 -75 15 -43 0 -149 44 -201 84 -18
14 -63 35 -102 47 -38 12 -83 34 -100 50 -16 15 -48 36 -70 47 -50 25 -129 94
-167 146 -37 52 -39 116 -3 151 l24 25 310 0 c222 0 318 -3 338 -12z"/>
<path d="M174 255 l-26 -26 15 -22 c8 -12 41 -31 73 -43 33 -11 73 -28 91 -37
19 -10 55 -17 88 -17 31 0 72 -7 92 -15 19 -8 60 -15 90 -15 29 0 70 -7 90
-15 27 -11 77 -15 210 -15 132 0 182 -4 210 -15 20 -9 66 -15 109 -15 40 0 76
-5 79 -10 3 -6 35 -10 70 -10 l63 0 26 31 c30 36 33 60 9 81 -40 35 -83 48
-153 48 -40 0 -86 6 -107 15 -25 11 -72 15 -165 15 -92 0 -139 4 -165 15 -23
10 -69 15 -135 15 -65 0 -111 5 -135 15 -22 9 -67 15 -120 15 -52 0 -97 6
-120 15 -19 8 -64 15 -100 15 l-64 0 -25 -25z"/>
</g>
</svg>
