<?xml version="1.0" standalone="no"?>
<!DOCTYPE svg PUBLIC "-//W3C//DTD SVG 20010904//EN"
 "http://www.w3.org/TR/2001/REC-SVG-20010904/DTD/svg10.dtd">
<svg version="1.0" xmlns="http://www.w3.org/2000/svg"
 width="765.000000pt" height="315.000000pt" viewBox="0 0 765.000000 315.000000"
 preserveAspectRatio="xMidYMid meet">
<metadata>
Created by potrace 1.16, written by Peter Selinger 2001-2019
</metadata>
<g transform="translate(0.000000,315.000000) scale(0.100000,-0.100000)"
fill="#000000" stroke="none">
<path d="M5966 3116 c-10 -19 -16 -41 -13 -48 2 -7 49 -35 103 -62 55 -27 123
-68 153 -92 29 -24 60 -44 68 -44 30 0 149 -63 202 -106 29 -24 61 -44 70 -44
9 0 75 -39 146 -86 72 -48 144 -91 160 -95 17 -5 52 -27 79 -49 26 -22 56 -40
65 -40 22 0 146 -82 196 -130 43 -41 113 -80 143 -80 46 0 69 81 37 127 -8 11
-39 35 -69 51 -30 17 -64 45 -76 62 -12 17 -43 41 -69 55 -56 28 -172 106
-219 146 -18 16 -40 29 -50 29 -23 0 -154 72 -261 142 -31 21 -62 38 -69 38
-14 0 -115 56 -193 108 -28 18 -71 40 -96 47 -54 16 -108 52 -124 82 l-12 23
-76 0 -76 0 -19 -34z"/>
<path d="M4075 1945 c-16 -8 -49 -14 -73 -15 -104 -1 -322 -162 -322 -238 0
-17 -4 -42 -10 -57 -11 -30 -3 -75 41 -210 34 -105 36 -173 10 -232 -25 -55
-91 -119 -135 -131 -20 -6 -48 -19 -64 -30 -49 -35 -141 -62 -213 -62 -37 0
-83 -7 -102 -15 -47 -19 -206 -20 -267 -1 -88 28 -136 38 -212 45 -42 4 -84
14 -94 22 -9 8 -99 97 -198 197 -117 119 -197 192 -227 207 -26 13 -82 48
-125 78 -44 30 -93 61 -109 70 -65 33 -156 57 -216 57 l-63 0 -73 -73 -73 -73
0 -43 c0 -34 6 -47 28 -67 15 -13 57 -53 93 -87 36 -34 94 -78 130 -96 35 -19
78 -44 94 -57 46 -34 147 -81 230 -109 41 -13 92 -36 112 -50 21 -14 45 -25
54 -25 9 0 40 -18 70 -39 l54 -39 19 -61 c25 -79 16 -102 -48 -119 -26 -7 -64
-9 -85 -6 -50 8 -102 -19 -164 -85 l-47 -50 0 -86 0 -85 65 -71 c36 -39 65
-77 65 -84 0 -20 -33 -35 -78 -35 -22 0 -56 -7 -75 -15 l-36 -15 -336 0 -336
0 -36 15 c-19 8 -52 15 -72 15 -20 0 -56 6 -81 14 -59 19 -125 35 -175 45 -22
4 -58 19 -80 34 l-40 27 -70 0 c-72 0 -171 27 -254 69 -22 12 -46 21 -53 21
-7 0 -42 14 -76 30 -35 17 -75 30 -88 30 -42 0 -107 36 -172 94 l-63 56 -50 0
-50 0 3 -72 3 -71 85 -59 c46 -32 91 -58 100 -58 8 0 44 -14 78 -30 35 -17 80
-30 100 -30 37 0 157 -37 209 -64 51 -26 243 -86 276 -86 18 0 71 -13 117 -30
47 -16 102 -30 123 -30 21 0 54 -7 74 -15 19 -8 53 -15 75 -15 21 0 55 -7 75
-15 19 -8 48 -15 64 -15 15 0 31 -4 34 -10 8 -14 672 -14 680 0 3 6 33 10 65
10 44 0 75 7 123 30 36 17 78 30 94 30 15 0 48 14 73 30 25 16 52 30 61 30 53
0 229 186 229 242 0 15 7 46 16 68 l17 41 -22 65 c-12 36 -33 82 -46 102 -20
29 -25 49 -25 95 l0 58 25 24 c33 34 80 32 185 -5 l85 -30 101 0 c68 0 113 5
137 15 23 9 69 15 124 15 l88 0 45 30 c32 22 57 30 88 30 92 0 198 77 286 208
l66 98 0 104 0 105 -30 85 c-35 98 -36 111 -11 165 38 83 120 135 214 135 30
0 71 7 90 15 l36 15 276 0 276 0 36 -15 c25 -11 73 -15 167 -15 l131 0 45 -30
c31 -21 57 -30 85 -30 22 0 60 -6 85 -14 78 -25 133 -37 195 -45 34 -5 70 -13
82 -19 12 -7 53 -12 90 -12 51 0 91 -8 153 -30 47 -16 96 -30 110 -30 14 0 54
-14 88 -30 35 -17 74 -30 85 -30 12 0 42 -6 67 -14 78 -25 133 -38 190 -45 31
-3 69 -16 85 -28 34 -24 233 -93 268 -93 29 0 132 -49 187 -89 24 -17 49 -31
57 -31 8 0 42 -13 76 -28 34 -16 73 -32 87 -35 14 -3 45 -23 68 -42 23 -20 57
-41 75 -46 40 -12 55 -24 92 -72 15 -21 50 -49 76 -62 25 -13 61 -42 79 -65
l32 -40 49 0 49 0 0 52 0 51 -75 70 c-42 38 -93 81 -113 94 -20 14 -55 42 -77
63 -22 21 -60 48 -84 60 -24 12 -62 35 -84 51 -22 16 -47 29 -56 29 -9 0 -36
14 -61 30 -25 16 -58 30 -75 30 -16 0 -81 25 -144 55 -118 57 -304 125 -344
125 -12 0 -51 14 -85 30 -35 17 -69 30 -75 30 -7 0 -41 14 -75 30 -35 17 -80
30 -100 30 -21 0 -57 6 -82 14 -60 19 -125 35 -182 46 -26 5 -56 13 -67 19
-11 6 -37 11 -58 11 -22 0 -77 13 -123 30 -62 21 -104 30 -153 30 -37 0 -84 7
-104 15 -19 8 -53 15 -75 15 -21 0 -55 7 -75 15 -19 8 -54 15 -77 15 -34 0
-48 6 -71 30 l-29 30 -43 0 c-24 0 -60 7 -80 15 l-35 15 -422 -1 c-334 0 -427
-3 -451 -14z m-2205 -515 c19 -5 57 -28 84 -50 26 -22 55 -40 63 -40 9 0 30
-9 47 -20 36 -22 121 -118 112 -127 -7 -7 -89 14 -141 38 -22 9 -59 34 -83 55
-24 20 -66 49 -94 63 -56 29 -74 50 -65 75 7 18 27 20 77 6z m531 -946 l13
-16 -23 -19 c-28 -23 -64 -24 -82 -3 l-13 16 23 19 c28 23 64 24 82 3z"/>
</g>
</svg>
