<?xml version="1.0" standalone="no"?>
<!DOCTYPE svg PUBLIC "-//W3C//DTD SVG 20010904//EN"
 "http://www.w3.org/TR/2001/REC-SVG-20010904/DTD/svg10.dtd">
<svg version="1.0" xmlns="http://www.w3.org/2000/svg"
 width="177.000000pt" height="207.000000pt" viewBox="0 0 177.000000 207.000000"
 preserveAspectRatio="xMidYMid meet">
<metadata>
Created by potrace 1.16, written by Peter Selinger 2001-2019
</metadata>
<g transform="translate(0.000000,207.000000) scale(0.100000,-0.100000)"
fill="#000000" stroke="none">
<path d="M7 2063 c-4 -3 -7 -19 -7 -34 0 -23 8 -32 38 -48 20 -10 65 -44 100
-75 34 -31 70 -56 78 -56 31 0 150 -62 203 -106 36 -30 63 -44 82 -44 42 0 82
-19 184 -89 49 -33 97 -61 105 -61 23 0 191 -84 240 -119 24 -17 50 -31 59
-31 22 0 195 -84 234 -114 18 -14 67 -36 110 -50 44 -15 109 -47 152 -75 86
-58 148 -91 170 -91 l15 0 0 70 0 70 -61 30 c-33 17 -78 43 -98 58 -21 15 -85
49 -142 76 -57 26 -120 57 -139 67 -19 11 -87 45 -150 75 -63 31 -131 65 -150
75 -109 59 -251 129 -263 129 -7 0 -50 25 -95 55 -92 61 -154 95 -174 95 -7 0
-29 11 -48 24 -19 13 -87 49 -150 81 -63 32 -127 67 -142 77 -26 18 -136 26
-151 11z"/>
<path d="M596 1039 c-53 -42 -30 -96 94 -224 90 -93 157 -187 172 -242 5 -20
30 -51 63 -80 30 -26 55 -56 55 -66 0 -9 32 -51 70 -93 39 -42 82 -99 97 -127
14 -29 54 -82 89 -120 35 -37 64 -72 64 -77 0 -6 27 -10 60 -10 47 0 60 3 60
15 0 20 -35 91 -65 130 -12 17 -41 66 -64 110 -23 44 -57 99 -76 123 -19 24
-35 52 -35 63 0 11 -32 53 -70 95 -45 48 -85 105 -110 153 -24 49 -52 87 -74
105 -20 15 -49 53 -65 84 -17 34 -56 83 -94 120 l-65 62 -40 0 c-25 0 -49 -8
-66 -21z"/>
</g>
</svg>
