<?xml version="1.0" standalone="no"?>
<!DOCTYPE svg PUBLIC "-//W3C//DTD SVG 20010904//EN"
 "http://www.w3.org/TR/2001/REC-SVG-20010904/DTD/svg10.dtd">
<svg version="1.0" xmlns="http://www.w3.org/2000/svg"
 width="609.000000pt" height="462.000000pt" viewBox="0 0 609.000000 462.000000"
 preserveAspectRatio="xMidYMid meet">
<metadata>
Created by potrace 1.16, written by Peter Selinger 2001-2019
</metadata>
<g transform="translate(0.000000,462.000000) scale(0.100000,-0.100000)"
fill="#000000" stroke="none">
<path d="M4640 4585 c0 -42 54 -107 135 -160 27 -19 66 -50 85 -70 19 -19 51
-40 72 -45 20 -6 61 -32 91 -60 30 -27 96 -70 147 -96 52 -26 110 -62 129 -79
20 -18 52 -40 71 -50 19 -9 55 -34 80 -55 25 -20 64 -47 86 -58 60 -31 173
-109 219 -151 22 -21 53 -46 70 -56 16 -10 60 -47 97 -82 71 -66 90 -73 138
-48 l30 16 0 52 0 52 -101 90 c-56 50 -120 100 -144 112 -23 12 -67 44 -96 70
-71 64 -223 166 -318 213 -42 21 -105 63 -139 94 -35 31 -70 56 -80 56 -19 0
-138 76 -188 119 -17 16 -48 31 -67 35 -32 6 -70 33 -149 109 l-30 27 -69 0
-69 0 0 -35z"/>
<path d="M505 3916 c-117 -44 -161 -80 -199 -163 l-19 -42 39 -117 c44 -136
66 -173 113 -188 22 -7 46 -27 65 -55 24 -33 52 -54 120 -90 70 -36 96 -56
121 -91 22 -32 43 -49 71 -58 52 -16 81 -31 128 -64 21 -16 46 -28 55 -28 9 0
45 -14 79 -30 35 -17 75 -30 89 -30 14 0 51 -16 83 -36 76 -47 271 -113 334
-114 50 0 337 -90 415 -129 31 -16 59 -21 123 -21 46 0 103 -6 128 -14 60 -19
125 -35 182 -46 26 -5 56 -13 67 -19 11 -6 44 -11 73 -11 29 0 73 -6 98 -14
98 -31 139 -39 240 -45 58 -4 115 -12 127 -19 12 -7 47 -12 78 -12 30 0 72 -7
92 -15 22 -9 67 -15 119 -15 54 0 98 -6 125 -17 l41 -16 48 17 48 17 37 -15
37 -16 435 0 c290 0 441 4 454 11 11 6 41 14 67 19 57 11 122 27 182 46 25 8
77 14 116 14 l71 0 39 28 c44 31 106 62 125 62 16 0 137 81 161 106 32 36 98
139 98 154 0 8 14 44 30 78 21 45 30 79 30 114 l0 51 -92 94 c-51 52 -110 104
-131 115 l-39 19 -24 -16 c-38 -24 -41 -60 -10 -119 14 -28 42 -70 61 -94 47
-58 47 -103 1 -197 -36 -76 -48 -89 -116 -124 -25 -13 -56 -34 -70 -46 -45
-39 -74 -55 -103 -55 -16 0 -37 -5 -48 -11 -11 -6 -41 -14 -67 -19 -57 -11
-122 -27 -182 -46 -25 -8 -62 -14 -83 -14 -21 0 -48 -6 -60 -12 -18 -11 -320
-27 -487 -27 -167 0 -469 16 -487 27 -13 7 -60 12 -123 12 -67 0 -113 5 -137
15 -23 10 -69 15 -137 15 l-101 0 -63 30 -64 30 -114 0 c-79 0 -126 5 -151 15
-19 8 -53 15 -75 15 -21 0 -55 7 -75 15 -19 8 -52 15 -71 15 -20 0 -96 20
-169 45 -100 34 -147 45 -194 45 -68 0 -260 57 -311 92 l-28 19 0 137 0 136
-45 65 c-101 149 -193 243 -330 336 -27 18 -66 50 -85 70 -19 19 -50 40 -70
45 -19 5 -57 28 -84 50 -26 22 -55 40 -63 40 -8 0 -44 14 -80 30 -48 22 -79
30 -122 30 l-57 0 -29 30 -29 30 -80 -1 c-56 -1 -99 -8 -141 -23z m255 -176
c33 -22 57 -30 88 -30 55 0 161 -48 225 -102 26 -22 63 -44 82 -49 36 -10 69
-41 107 -99 16 -24 37 -39 66 -49 24 -7 50 -24 60 -38 9 -13 41 -52 71 -86 30
-34 62 -80 72 -102 25 -55 25 -145 0 -176 l-19 -24 -49 19 c-26 10 -68 26 -93
34 -25 9 -80 33 -123 54 -43 21 -89 38 -104 38 -14 0 -47 13 -72 29 -25 16
-57 31 -71 34 -14 4 -45 23 -68 42 -23 20 -57 41 -75 46 -40 12 -55 24 -92 72
-15 21 -51 50 -78 64 -97 49 -196 172 -197 245 0 30 26 52 100 86 65 31 116
28 170 -8z"/>
<path d="M0 2790 c0 -22 5 -40 11 -40 18 0 81 -32 123 -62 21 -15 45 -28 53
-28 27 0 123 -50 160 -83 21 -19 57 -44 80 -55 23 -12 75 -53 116 -90 54 -50
84 -71 111 -76 29 -6 52 -22 95 -67 31 -34 68 -67 84 -75 15 -8 58 -43 95 -78
37 -35 82 -71 100 -80 34 -18 90 -69 269 -249 181 -180 231 -235 249 -269 9
-18 37 -53 63 -78 25 -25 76 -90 114 -145 37 -55 81 -118 97 -139 18 -23 30
-51 30 -69 0 -18 15 -54 36 -86 74 -115 114 -191 114 -214 0 -14 7 -41 15 -60
8 -20 15 -54 15 -75 0 -22 7 -56 15 -75 21 -51 20 -180 -3 -244 l-18 -50 -87
-81 c-56 -52 -101 -85 -123 -91 -65 -18 -84 -48 -68 -108 l6 -23 59 0 58 0 25
25 c14 14 32 25 41 25 37 0 116 51 141 92 15 23 46 62 69 87 29 31 50 67 64
108 l21 62 0 131 c0 74 -5 140 -11 151 -6 11 -14 41 -19 67 -23 125 -67 261
-96 299 -31 40 -84 152 -84 176 0 9 -31 51 -70 92 -44 49 -73 89 -79 113 -6
21 -27 53 -46 72 -20 19 -61 73 -92 120 -62 92 -368 412 -437 457 -22 14 -60
44 -85 67 -25 23 -84 68 -131 99 -47 31 -101 72 -120 92 -19 19 -51 40 -72 46
-22 5 -45 21 -55 36 -34 50 -100 113 -120 113 -11 0 -30 12 -44 26 -13 14 -41
35 -63 46 -21 11 -56 32 -77 48 -21 15 -54 31 -73 34 -18 4 -53 24 -77 45 -24
21 -64 52 -88 69 l-44 32 -124 0 -123 0 0 -40z"/>
</g>
</svg>
