<?xml version="1.0" standalone="no"?>
<!DOCTYPE svg PUBLIC "-//W3C//DTD SVG 20010904//EN"
 "http://www.w3.org/TR/2001/REC-SVG-20010904/DTD/svg10.dtd">
<svg version="1.0" xmlns="http://www.w3.org/2000/svg"
 width="372.000000pt" height="198.000000pt" viewBox="0 0 372.000000 198.000000"
 preserveAspectRatio="xMidYMid meet">
<metadata>
Created by potrace 1.16, written by Peter Selinger 2001-2019
</metadata>
<g transform="translate(0.000000,198.000000) scale(0.100000,-0.100000)"
fill="#000000" stroke="none">
<path d="M2210 1959 c0 -27 96 -128 129 -136 14 -3 55 -23 91 -45 36 -21 76
-41 90 -45 14 -3 39 -18 55 -33 40 -38 208 -120 243 -120 18 0 38 -10 53 -26
24 -26 327 -184 352 -184 7 0 26 -13 42 -30 16 -16 36 -30 44 -30 9 0 36 -14
61 -30 25 -16 52 -30 61 -30 8 0 26 -12 40 -26 50 -53 178 -97 224 -76 l25 12
0 40 0 40 -27 0 c-19 0 -39 13 -69 45 l-41 45 -35 0 -35 0 -32 40 c-17 22 -44
43 -59 46 -15 4 -48 19 -73 35 -25 16 -59 29 -76 29 -23 0 -37 9 -62 40 -20
25 -44 43 -69 49 -20 6 -61 22 -90 36 -28 14 -57 25 -63 25 -23 0 -121 51
-156 83 -25 22 -65 42 -117 58 -55 17 -92 35 -121 62 -24 20 -49 37 -57 37 -7
0 -33 14 -58 30 -27 18 -58 30 -78 30 -22 0 -41 8 -58 25 l-25 25 -54 0 -55 0
0 -21z"/>
<path d="M28 864 l-28 -15 0 -54 0 -55 43 -62 c23 -35 162 -184 310 -331 147
-148 267 -274 267 -280 0 -6 12 -24 27 -39 21 -22 36 -28 70 -28 l43 0 0 48
c-1 83 -58 165 -267 382 -140 145 -162 177 -148 220 5 17 12 20 28 14 12 -4
99 -10 192 -13 107 -4 178 -11 192 -19 14 -8 66 -12 153 -12 93 0 141 -4 167
-15 25 -11 72 -15 165 -15 84 0 140 -5 161 -13 24 -10 117 -14 376 -16 272 -2
352 -5 379 -17 25 -10 80 -14 208 -14 98 0 185 -5 201 -11 15 -6 98 -15 183
-20 85 -5 175 -11 200 -13 148 -14 218 -24 237 -34 40 -22 92 -15 124 17 59
59 29 111 -65 111 -31 0 -73 7 -93 15 -19 8 -60 15 -90 15 -29 0 -70 7 -90 15
-24 10 -71 15 -150 15 -78 0 -125 5 -150 15 -26 11 -76 15 -194 15 -124 0
-168 4 -200 17 l-41 16 -49 -17 -49 -18 -48 31 -49 31 -428 0 c-295 0 -440 4
-466 12 -30 8 -48 8 -78 -1 -29 -8 -47 -8 -68 0 -15 6 -84 13 -153 16 -69 3
-140 12 -159 19 -18 8 -65 14 -103 14 -38 0 -84 7 -105 15 -23 10 -69 15 -135
15 l-100 0 -65 30 c-71 33 -114 37 -155 14z"/>
</g>
</svg>
