<?xml version="1.0" standalone="no"?>
<!DOCTYPE svg PUBLIC "-//W3C//DTD SVG 20010904//EN"
 "http://www.w3.org/TR/2001/REC-SVG-20010904/DTD/svg10.dtd">
<svg version="1.0" xmlns="http://www.w3.org/2000/svg"
 width="447.000000pt" height="135.000000pt" viewBox="0 0 447.000000 135.000000"
 preserveAspectRatio="xMidYMid meet">
<metadata>
Created by potrace 1.16, written by Peter Selinger 2001-2019
</metadata>
<g transform="translate(0.000000,135.000000) scale(0.100000,-0.100000)"
fill="#000000" stroke="none">
<path d="M648 1306 c-39 -62 -37 -98 13 -171 69 -102 144 -167 265 -228 27
-14 77 -50 112 -81 47 -42 70 -56 93 -56 17 0 58 -17 97 -40 36 -22 82 -45
102 -50 48 -13 137 -57 177 -87 44 -34 118 -148 144 -223 l21 -61 -16 -24 c-9
-14 -29 -27 -44 -30 -15 -3 -48 -10 -73 -16 -31 -7 -54 -7 -73 1 -15 5 -100
10 -189 10 l-162 0 -45 30 -45 30 -58 0 c-32 0 -74 7 -94 15 -25 11 -72 15
-165 15 -92 0 -139 4 -165 15 -20 8 -66 15 -105 15 -38 0 -84 7 -105 15 -19 8
-60 15 -90 15 -29 0 -70 7 -90 15 -70 29 -153 8 -153 -40 l0 -25 60 -30 c33
-16 71 -30 85 -30 14 0 42 -7 62 -15 19 -8 52 -15 72 -15 20 0 75 -13 121 -30
53 -18 105 -30 138 -30 29 0 69 -7 89 -15 26 -11 76 -15 197 -15 l161 0 45
-30 c25 -16 58 -30 73 -30 15 0 44 -7 64 -15 19 -8 60 -15 90 -15 29 0 70 -7
90 -15 19 -8 53 -15 75 -15 21 0 55 -7 75 -15 21 -9 67 -15 116 -15 l81 0 73
73 73 73 0 141 c0 79 -5 154 -11 173 l-12 32 14 9 c21 13 76 11 116 -6 19 -8
53 -15 75 -15 21 0 55 -7 75 -15 l35 -15 404 0 403 0 64 30 c36 17 70 30 75
30 6 0 40 14 75 30 42 19 81 30 111 30 l45 0 68 60 c40 35 80 62 98 66 40 7
91 -14 141 -59 22 -19 51 -37 67 -41 15 -3 57 -35 95 -69 37 -35 79 -71 95
-80 15 -10 38 -35 52 -57 14 -22 39 -47 56 -56 17 -8 68 -50 113 -93 44 -42
101 -90 124 -106 52 -34 110 -100 118 -132 l6 -23 64 0 64 0 0 48 0 47 -40 39
c-22 21 -40 43 -40 49 0 15 -182 197 -214 214 -16 8 -73 57 -125 107 -53 50
-115 105 -139 120 -24 16 -72 58 -108 94 -39 38 -78 67 -99 73 -21 6 -74 46
-142 109 l-108 100 -38 0 c-48 0 -96 -43 -140 -125 -25 -46 -46 -68 -97 -103
-90 -62 -180 -102 -228 -102 -22 0 -56 -7 -75 -15 l-36 -15 -394 0 -393 0 -84
30 c-47 16 -94 30 -105 30 -23 0 -120 32 -175 57 -19 9 -105 85 -190 168 -93
92 -173 162 -200 175 -25 12 -65 39 -90 60 -25 20 -60 45 -78 54 -18 9 -50 32
-70 50 -20 18 -50 36 -66 40 -17 4 -42 16 -57 27 l-27 19 -119 0 -118 -1 -27
-43z m319 -168 c15 -7 50 -32 77 -55 26 -24 53 -43 59 -43 16 0 87 -71 87 -87
0 -18 -70 -17 -97 2 -13 9 -30 31 -38 50 -10 21 -31 40 -53 51 -59 27 -92 54
-92 75 0 22 17 24 57 7z"/>
</g>
</svg>
