<?xml version="1.0" standalone="no"?>
<!DOCTYPE svg PUBLIC "-//W3C//DTD SVG 20010904//EN"
 "http://www.w3.org/TR/2001/REC-SVG-20010904/DTD/svg10.dtd">
<svg version="1.0" xmlns="http://www.w3.org/2000/svg"
 width="795.000000pt" height="219.000000pt" viewBox="0 0 795.000000 219.000000"
 preserveAspectRatio="xMidYMid meet">
<metadata>
Created by potrace 1.16, written by Peter Selinger 2001-2019
</metadata>
<g transform="translate(0.000000,219.000000) scale(0.100000,-0.100000)"
fill="#000000" stroke="none">
<path d="M0 2140 l0 -50 85 0 c54 0 99 -6 122 -15 l35 -15 340 0 339 0 36 -15
c26 -11 76 -15 195 -15 118 0 168 -4 195 -15 26 -11 76 -15 195 -15 118 0 168
-4 195 -15 26 -11 74 -15 180 -15 105 0 153 -4 180 -15 l35 -15 295 0 294 0
36 -15 c24 -10 71 -15 150 -15 78 0 125 -5 150 -15 19 -8 53 -15 75 -15 21 0
55 -7 75 -15 19 -8 45 -15 57 -15 12 0 60 -13 106 -30 47 -16 103 -30 125 -30
32 0 58 -11 123 -55 98 -65 145 -90 188 -99 17 -4 55 -27 84 -52 28 -24 55
-44 59 -44 5 0 52 -29 105 -65 99 -67 212 -127 256 -138 14 -4 43 -22 65 -40
22 -19 58 -43 80 -55 22 -11 97 -58 167 -105 127 -86 198 -127 219 -127 17 0
80 -31 114 -56 17 -12 77 -46 135 -75 58 -29 119 -62 135 -74 45 -34 111 -65
137 -65 35 0 135 -37 177 -66 23 -16 50 -24 76 -24 23 0 79 -13 125 -30 68
-23 102 -30 167 -30 52 0 97 -6 122 -16 45 -18 166 -15 241 6 125 34 178 54
205 74 17 13 50 33 75 46 25 12 73 49 108 81 l63 59 58 0 59 0 52 -43 c29 -23
69 -53 89 -66 20 -13 53 -39 74 -58 21 -19 64 -50 95 -70 31 -20 77 -55 102
-78 25 -23 81 -65 125 -94 44 -30 93 -71 109 -92 25 -35 89 -79 115 -79 15 0
230 -220 237 -242 l5 -18 55 0 54 0 0 79 0 79 -25 6 c-13 3 -43 29 -67 57 -24
28 -64 61 -90 74 -25 14 -80 56 -122 95 -42 38 -83 70 -92 70 -16 0 -64 38
-185 145 -37 33 -94 79 -126 103 -154 113 -192 142 -198 152 -4 6 -28 21 -54
35 -27 13 -72 46 -102 73 -54 50 -183 122 -217 122 -33 0 -62 -31 -99 -103
-64 -127 -192 -227 -291 -227 -22 0 -56 -7 -75 -15 -51 -21 -273 -21 -324 0
-19 8 -59 15 -87 15 -53 0 -132 23 -224 66 -29 13 -58 24 -65 24 -6 0 -41 14
-75 30 -35 17 -69 30 -75 30 -7 0 -32 14 -57 30 -25 16 -52 30 -61 30 -9 0
-41 18 -72 41 l-57 40 0 106 0 107 -74 110 c-41 61 -85 120 -98 132 -58 51
-225 154 -251 154 -15 0 -44 7 -64 15 -19 8 -44 15 -55 15 -30 0 -117 -89
-149 -152 -20 -40 -35 -58 -48 -58 -29 0 -128 52 -227 120 -49 33 -95 60 -102
60 -25 0 -87 33 -134 72 -25 21 -82 56 -125 77 -43 22 -105 62 -138 90 -33 28
-90 66 -127 86 l-68 35 -100 0 c-67 0 -113 5 -137 15 -27 12 -79 15 -225 15
-145 0 -197 3 -225 15 -23 10 -69 15 -134 15 -54 0 -110 5 -125 10 -19 7 -37
7 -60 0 -25 -9 -40 -8 -69 5 -27 11 -73 15 -167 15 -92 0 -139 4 -165 15 -28
12 -86 15 -284 15 -167 0 -257 4 -276 12 -18 7 -125 13 -303 16 -151 2 -279 8
-285 13 -5 5 -199 9 -452 9 l-443 0 0 -50z m4754 -684 c50 -36 142 -138 152
-169 8 -26 -3 -64 -21 -70 -9 -4 -38 17 -77 56 -35 34 -89 85 -120 113 -62 54
-67 64 -42 88 24 25 56 19 108 -18z"/>
</g>
</svg>
