<?xml version="1.0" standalone="no"?>
<!DOCTYPE svg PUBLIC "-//W3C//DTD SVG 20010904//EN"
 "http://www.w3.org/TR/2001/REC-SVG-20010904/DTD/svg10.dtd">
<svg version="1.0" xmlns="http://www.w3.org/2000/svg"
 width="705.000000pt" height="153.000000pt" viewBox="0 0 705.000000 153.000000"
 preserveAspectRatio="xMidYMid meet">
<metadata>
Created by potrace 1.16, written by Peter Selinger 2001-2019
</metadata>
<g transform="translate(0.000000,153.000000) scale(0.100000,-0.100000)"
fill="#000000" stroke="none">
<path d="M67 1474 l-67 -56 0 -72 0 -72 27 -26 c16 -14 40 -28 54 -32 14 -3
54 -30 88 -61 34 -30 70 -55 79 -55 10 0 34 -11 55 -25 121 -83 457 -208 659
-245 26 -5 56 -13 67 -19 11 -6 52 -11 91 -11 40 0 86 -6 107 -15 26 -11 76
-15 198 -15 122 0 172 4 198 15 20 8 59 15 87 15 35 0 104 18 228 60 98 33
195 60 214 60 20 0 52 7 71 15 21 8 67 15 105 15 39 0 85 7 105 15 50 21 244
21 294 0 23 -10 69 -15 135 -15 l99 0 43 -25 43 -25 30 11 c24 8 39 7 68 -5
21 -9 56 -16 78 -16 42 0 173 -56 197 -85 7 -9 10 -27 7 -44 -7 -31 11 -99 41
-157 21 -41 58 -78 105 -108 16 -10 38 -33 49 -51 22 -38 105 -98 200 -147 34
-17 78 -46 98 -64 l37 -34 83 0 83 0 43 44 44 43 0 51 c0 39 -10 71 -45 144
-27 54 -43 101 -40 110 10 25 33 29 72 13 19 -8 52 -15 72 -15 20 0 56 -6 81
-14 87 -28 136 -38 210 -45 41 -4 85 -13 97 -19 12 -7 46 -12 77 -12 30 0 67
-6 83 -12 16 -7 107 -16 213 -20 333 -14 469 -8 572 23 l66 21 96 98 c55 55
96 106 96 117 0 30 20 43 65 43 32 0 47 -6 66 -26 13 -14 76 -60 139 -102 63
-42 135 -95 160 -117 25 -23 58 -49 75 -60 16 -10 60 -47 97 -82 37 -34 76
-63 86 -63 10 0 32 -17 49 -37 17 -21 56 -51 87 -66 31 -16 64 -40 74 -53 9
-13 56 -56 104 -94 l86 -70 51 0 51 0 0 68 0 68 -28 27 c-15 15 -34 27 -41 27
-7 0 -32 17 -56 38 -23 20 -89 68 -146 105 -62 41 -115 84 -132 108 -16 22
-50 50 -77 64 -26 13 -82 56 -124 95 -42 38 -85 70 -95 70 -11 0 -22 4 -26 10
-15 24 -162 134 -217 162 -34 17 -77 45 -97 63 -20 18 -64 47 -98 64 l-62 31
-64 0 c-48 0 -68 -4 -79 -17 -26 -30 -48 -80 -48 -110 0 -37 -60 -161 -94
-194 -35 -35 -111 -60 -211 -71 -92 -11 -85 -11 -275 0 -81 4 -155 13 -167 20
-12 6 -47 12 -78 12 -30 0 -72 7 -92 15 -20 8 -66 15 -105 15 -38 0 -84 7
-105 15 -19 8 -53 15 -75 15 -21 0 -55 7 -75 15 -19 8 -52 15 -72 15 -20 0
-56 6 -81 14 -60 19 -125 35 -182 46 -26 5 -56 13 -67 19 -11 6 -46 11 -78 11
l-58 0 -45 30 c-25 16 -51 30 -58 30 -7 0 -38 11 -68 25 -67 31 -168 65 -190
65 -28 0 -147 42 -176 62 -16 11 -28 28 -28 37 0 43 -45 48 -221 25 -31 -4
-58 -1 -83 10 l-38 16 -298 0 -298 0 -35 -15 c-20 -8 -66 -15 -102 -15 -64 0
-154 -23 -217 -56 -60 -31 -175 -64 -224 -64 -28 0 -68 -7 -87 -15 -52 -22
-422 -22 -474 0 -23 10 -69 15 -135 15 l-100 0 -65 30 c-35 17 -69 30 -75 30
-5 0 -39 14 -75 30 -35 17 -75 30 -88 30 -13 0 -49 10 -80 22 l-56 21 6 21 c4
12 9 53 12 92 l5 71 -22 44 c-13 24 -45 68 -71 97 -27 30 -49 58 -49 63 0 5
-60 9 -137 9 l-138 -1 -68 -55z m253 -136 c31 -50 27 -68 -15 -68 -26 0 -45 9
-72 34 l-37 34 13 16 c8 10 29 16 52 16 l39 0 20 -32z m3516 -704 c36 -17 114
-115 114 -143 0 -9 7 -29 15 -45 19 -35 19 -36 -1 -36 -9 0 -34 15 -57 33 -23
19 -61 45 -85 58 -54 29 -131 127 -111 140 23 14 88 10 125 -7z"/>
</g>
</svg>
