<?xml version="1.0" standalone="no"?>
<!DOCTYPE svg PUBLIC "-//W3C//DTD SVG 20010904//EN"
 "http://www.w3.org/TR/2001/REC-SVG-20010904/DTD/svg10.dtd">
<svg version="1.0" xmlns="http://www.w3.org/2000/svg"
 width="747.000000pt" height="123.000000pt" viewBox="0 0 747.000000 123.000000"
 preserveAspectRatio="xMidYMid meet">
<metadata>
Created by potrace 1.16, written by Peter Selinger 2001-2019
</metadata>
<g transform="translate(0.000000,123.000000) scale(0.100000,-0.100000)"
fill="#000000" stroke="none">
<path d="M3710 1194 c-30 -19 -70 -50 -87 -69 l-33 -35 0 -79 c0 -48 6 -93 15
-115 12 -27 13 -42 5 -56 l-11 -20 -399 0 c-272 0 -408 4 -427 11 -19 8 -192
13 -528 16 -394 4 -507 8 -534 19 -27 11 -119 14 -453 14 l-419 0 -24 25 c-17
16 -25 35 -25 60 0 46 -56 111 -109 125 -20 5 -60 21 -89 35 -29 14 -70 25
-92 25 -22 0 -57 7 -77 15 -26 11 -74 15 -176 15 l-141 0 -53 -56 -53 -56 0
-92 0 -92 27 -25 c25 -22 117 -56 273 -100 26 -7 136 -15 255 -18 140 -4 217
-10 232 -18 16 -10 96 -13 303 -13 l281 0 36 -15 35 -15 895 0 894 0 36 -15
35 -15 281 0 280 0 86 -41 c108 -51 191 -79 234 -79 18 0 71 -13 117 -30 47
-16 94 -30 105 -30 10 0 60 -13 110 -29 122 -39 170 -51 240 -60 34 -5 70 -13
82 -19 12 -7 66 -12 123 -12 67 0 113 -5 137 -15 20 -8 66 -15 105 -15 38 0
84 -7 105 -15 45 -19 382 -22 416 -3 12 6 48 14 82 19 63 8 107 18 215 51 69
21 170 88 170 114 0 17 77 149 96 165 9 8 26 5 60 -10 25 -12 52 -21 58 -21 7
0 25 -13 41 -30 16 -16 35 -30 43 -30 26 0 137 -57 217 -112 84 -58 156 -98
175 -98 7 0 35 -20 63 -45 28 -24 78 -59 111 -76 69 -36 122 -75 183 -134 93
-88 103 -95 144 -95 31 0 45 6 64 28 34 38 31 62 -11 103 -20 18 -42 46 -50
61 -8 15 -38 43 -68 63 -29 19 -74 53 -99 75 -25 22 -51 40 -59 40 -7 0 -26 9
-43 21 -16 11 -52 32 -80 46 -27 14 -71 43 -97 64 -25 21 -78 54 -116 74 -39
19 -110 62 -159 95 -62 42 -97 60 -120 60 -21 0 -46 11 -75 35 -46 37 -189
115 -210 115 -8 0 -31 12 -53 27 -22 15 -60 30 -85 34 -25 4 -53 10 -63 14
-22 9 -97 -63 -97 -93 0 -11 13 -49 30 -84 47 -100 40 -186 -20 -236 -28 -24
-157 -82 -183 -82 -13 0 -41 -7 -60 -15 -49 -20 -215 -20 -264 0 -22 9 -67 15
-120 15 -52 0 -97 6 -120 15 -19 8 -59 15 -87 15 -28 0 -71 6 -96 14 -87 28
-136 38 -210 45 -41 4 -85 13 -97 19 -12 7 -54 12 -93 12 -56 0 -84 6 -128 26
-31 14 -92 37 -135 51 -43 14 -81 32 -84 40 -3 8 9 32 26 54 18 21 39 63 48
91 l15 53 -12 52 -13 52 -72 71 -72 72 -104 34 c-57 19 -112 39 -121 44 -10 6
-64 10 -120 9 l-103 -1 -55 -34z m264 -144 c95 -34 206 -115 206 -151 0 -9
-16 -31 -35 -48 l-36 -31 -71 0 -71 0 -73 35 c-85 41 -104 63 -104 122 l0 42
28 19 c54 38 76 39 156 12z m-3434 -80 c52 -33 -153 -49 -215 -17 l-20 10 20
8 c28 11 197 11 215 -1z"/>
</g>
</svg>
