<?xml version="1.0" standalone="no"?>
<!DOCTYPE svg PUBLIC "-//W3C//DTD SVG 20010904//EN"
 "http://www.w3.org/TR/2001/REC-SVG-20010904/DTD/svg10.dtd">
<svg version="1.0" xmlns="http://www.w3.org/2000/svg"
 width="717.000000pt" height="150.000000pt" viewBox="0 0 717.000000 150.000000"
 preserveAspectRatio="xMidYMid meet">
<metadata>
Created by potrace 1.16, written by Peter Selinger 2001-2019
</metadata>
<g transform="translate(0.000000,150.000000) scale(0.100000,-0.100000)"
fill="#000000" stroke="none">
<path d="M3420 1491 c-8 -4 -28 -14 -45 -22 -17 -8 -41 -34 -54 -58 l-24 -44
32 -65 c18 -36 49 -85 68 -109 l35 -43 -12 -15 -12 -15 -230 0 c-181 0 -236 3
-265 15 -28 12 -84 15 -270 15 -185 0 -241 3 -270 15 l-35 15 -370 0 -369 0
-36 15 c-27 12 -79 15 -225 15 -145 0 -197 3 -225 15 -26 11 -74 15 -180 15
-105 0 -153 4 -180 15 -19 8 -60 15 -90 15 -29 0 -70 7 -90 15 -48 20 -198 20
-246 0 -21 -9 -68 -15 -109 -15 l-73 0 -50 -28 c-29 -16 -55 -39 -64 -57 -8
-16 -18 -38 -23 -47 -4 -10 -8 -38 -8 -62 l0 -44 72 -77 c39 -42 87 -84 107
-95 60 -30 339 -120 374 -120 18 0 53 -8 79 -17 l47 -17 49 23 c51 24 152 127
152 154 0 8 -14 45 -31 82 -25 52 -29 71 -22 88 l10 22 179 -4 c124 -2 189 -7
213 -17 23 -10 77 -14 178 -14 105 0 153 -4 180 -15 l35 -15 265 0 264 0 36
-15 35 -15 505 0 504 0 36 -15 c25 -11 72 -15 165 -15 92 0 139 -4 165 -15 19
-8 47 -15 60 -15 14 0 54 -13 90 -30 35 -16 70 -30 76 -30 13 0 65 -27 146
-76 63 -38 280 -109 411 -134 25 -5 69 -20 97 -34 29 -14 64 -26 78 -26 14 0
42 -7 62 -15 20 -8 66 -15 105 -15 38 0 84 -7 105 -15 23 -10 69 -15 135 -15
65 0 111 -5 135 -15 26 -11 76 -15 193 -15 86 0 170 -5 187 -10 l29 -11 75 26
c41 13 97 25 124 25 86 1 142 28 224 108 41 39 79 72 83 72 23 0 121 -53 155
-83 21 -19 67 -49 103 -67 77 -38 130 -77 186 -137 l41 -43 36 0 c28 0 40 -6
57 -30 12 -17 81 -69 153 -117 72 -48 145 -99 162 -113 16 -14 47 -37 67 -50
21 -14 43 -35 49 -47 l12 -23 44 0 44 0 24 27 c36 41 32 69 -13 92 -20 10 -71
49 -112 86 -130 117 -216 183 -289 221 -39 20 -82 52 -97 71 -25 32 -109 83
-138 83 -8 0 -24 13 -35 29 -23 32 -112 96 -182 131 -24 12 -64 39 -89 60 -25
20 -68 49 -96 63 -28 14 -75 48 -105 75 -77 70 -125 92 -202 92 -79 0 -97 -15
-97 -85 l0 -48 35 -38 c50 -55 54 -83 19 -120 -16 -17 -49 -40 -74 -52 l-45
-21 -273 2 c-215 2 -281 5 -309 17 -19 8 -53 15 -75 15 -21 0 -55 7 -75 15
-23 10 -69 15 -132 15 l-97 0 -84 30 c-47 16 -96 30 -108 30 -13 0 -53 14 -89
30 -35 16 -75 30 -89 30 -14 0 -41 7 -61 15 -19 8 -47 15 -62 15 -21 0 -62 23
-140 77 -2 1 10 29 28 62 l31 59 0 76 c0 107 -30 165 -92 180 -14 3 -41 24
-58 46 -17 22 -38 40 -47 40 -8 0 -44 14 -80 30 -35 17 -77 30 -93 30 -16 0
-32 5 -35 10 -7 12 -243 13 -265 1z m220 -178 c82 -12 164 -47 202 -87 44 -45
46 -73 8 -95 l-26 -14 -68 32 c-37 17 -73 31 -80 31 -7 0 -34 27 -60 59 -48
62 -60 99 -28 86 9 -4 33 -9 52 -12z m-3081 -251 l53 -37 18 -53 c28 -79 9
-104 -57 -77 -19 8 -47 15 -60 15 -14 0 -54 14 -90 30 -35 17 -70 30 -77 30
-16 0 -78 70 -73 83 7 21 93 46 163 46 l71 1 52 -38z"/>
</g>
</svg>
