<?xml version="1.0" standalone="no"?>
<!DOCTYPE svg PUBLIC "-//W3C//DTD SVG 20010904//EN"
 "http://www.w3.org/TR/2001/REC-SVG-20010904/DTD/svg10.dtd">
<svg version="1.0" xmlns="http://www.w3.org/2000/svg"
 width="1083.000000pt" height="111.000000pt" viewBox="0 0 1083.000000 111.000000"
 preserveAspectRatio="xMidYMid meet">
<metadata>
Created by potrace 1.16, written by Peter Selinger 2001-2019
</metadata>
<g transform="translate(0.000000,111.000000) scale(0.100000,-0.100000)"
fill="#000000" stroke="none">
<path d="M5795 1100 c-3 -5 -17 -10 -31 -10 -29 0 -132 -34 -184 -60 -20 -10
-51 -35 -68 -55 l-32 -36 0 -70 c0 -39 -5 -79 -10 -90 l-11 -19 -172 0 -172 0
-74 25 -74 25 -33 -10 c-25 -9 -40 -8 -69 5 l-37 15 -250 0 c-198 0 -256 3
-285 15 -26 11 -76 15 -195 15 -118 0 -168 4 -195 15 l-35 15 -505 0 -504 0
-36 15 c-26 11 -74 15 -180 15 -105 0 -153 4 -180 15 -19 8 -53 15 -74 15 -21
0 -50 5 -64 10 -19 7 -39 7 -66 -2 -31 -9 -47 -8 -77 2 -25 9 -118 16 -282 21
-135 5 -254 8 -265 9 -11 1 -43 -2 -70 -5 -36 -5 -61 -3 -89 9 l-38 16 -310 0
-309 0 -36 15 -35 15 -374 0 -374 0 0 -55 0 -55 25 0 c14 0 42 -7 62 -15 23
-10 69 -15 135 -15 65 0 111 -5 135 -15 27 -12 81 -15 240 -15 158 0 212 -3
240 -15 28 -12 82 -15 255 -15 l220 0 34 -16 c45 -21 75 -64 81 -117 9 -65 48
-133 93 -162 22 -14 51 -43 65 -65 14 -22 42 -48 64 -59 21 -11 65 -43 97 -70
58 -50 160 -111 184 -111 18 0 81 -31 115 -56 26 -20 294 -113 367 -128 15 -4
30 -15 33 -26 l6 -20 160 0 160 0 52 38 c29 21 64 45 79 55 32 20 78 104 78
141 0 14 4 36 10 51 10 27 4 68 -32 185 l-19 65 -99 97 c-71 70 -94 98 -83
102 8 3 91 6 184 6 128 0 178 -4 206 -15 l35 -15 385 0 384 0 36 -15 35 -15
295 0 294 0 36 -15 c27 -11 78 -15 212 -15 l177 0 29 -30 29 -30 133 0 c96 0
144 -4 170 -15 19 -8 65 -15 102 -15 37 0 87 -7 113 -17 l47 -17 52 24 c104
49 114 97 35 175 -29 29 -56 65 -60 80 -10 41 20 81 94 125 21 12 260 29 430
30 110 0 349 -17 367 -28 12 -6 40 -12 63 -12 22 0 57 -7 77 -15 19 -8 60 -15
90 -15 29 0 70 -7 90 -15 19 -8 53 -15 75 -15 21 0 55 -7 75 -15 19 -8 59 -15
87 -15 60 0 240 -58 294 -95 20 -14 50 -25 65 -25 38 0 92 -25 145 -68 111
-89 195 -132 258 -132 28 0 94 73 94 103 0 12 -7 33 -16 45 -15 22 -102 72
-125 72 -6 0 -26 7 -44 16 -37 17 -120 118 -110 134 9 15 121 12 162 -5 19 -8
53 -15 75 -15 21 0 55 -7 75 -15 22 -9 67 -15 117 -15 44 0 101 -6 126 -14 58
-18 124 -35 175 -45 22 -4 56 -12 75 -18 69 -22 126 -35 185 -42 34 -5 70 -13
82 -19 12 -7 54 -12 93 -12 40 0 86 -6 107 -15 20 -8 66 -15 105 -15 38 0 84
-7 105 -15 27 -12 79 -15 225 -15 l189 0 61 21 c94 31 132 54 177 105 l41 47
32 -13 c18 -7 53 -30 78 -50 25 -20 66 -48 91 -62 25 -15 58 -43 73 -62 15
-20 39 -39 54 -42 15 -3 55 -35 92 -74 36 -37 80 -75 99 -85 19 -10 60 -44 90
-76 36 -38 70 -63 96 -71 38 -13 44 -19 100 -110 l20 -33 68 -3 67 -3 0 48 0
47 -190 188 c-130 130 -196 188 -211 188 -13 0 -39 18 -63 43 -23 24 -63 61
-91 82 -27 22 -70 61 -95 86 -42 43 -114 89 -140 89 -6 0 -37 26 -69 58 -32
31 -72 67 -89 80 -17 12 -37 38 -43 57 l-13 35 -91 0 -91 0 -12 -33 c-18 -49
-15 -78 14 -143 l26 -59 -12 -35 c-7 -19 -19 -43 -27 -52 -23 -26 -110 -47
-178 -42 -188 12 -293 23 -320 32 -77 27 -183 49 -316 66 -58 8 -115 19 -127
25 -11 6 -45 11 -74 11 -29 0 -73 6 -98 14 -76 24 -132 37 -195 46 -33 5 -91
20 -130 34 -38 14 -87 26 -108 26 -21 0 -54 7 -74 15 -22 9 -67 15 -117 15
-44 0 -101 7 -126 15 -25 8 -57 17 -72 20 -15 3 -29 14 -33 25 l-6 20 -113 0
-112 0 -17 -52 c-9 -29 -18 -64 -19 -77 -4 -37 -30 -48 -80 -33 -24 8 -61 17
-83 21 -22 4 -56 12 -75 18 -65 21 -125 35 -180 43 -30 4 -84 13 -120 19 -36
6 -100 11 -143 11 -46 0 -92 6 -114 15 -20 9 -66 15 -109 15 -40 0 -76 5 -79
10 -4 6 -118 10 -310 10 -192 0 -306 -4 -310 -10z m-3699 -345 c20 -8 66 -15
103 -15 87 0 197 -36 266 -87 17 -12 80 -47 140 -77 61 -31 118 -62 127 -69 9
-7 37 -45 62 -83 36 -53 46 -78 46 -109 0 -42 -25 -106 -61 -156 l-20 -29
-133 0 -132 0 -29 30 c-16 17 -36 30 -44 30 -9 0 -41 12 -71 26 -30 14 -91 37
-135 52 -44 14 -93 34 -110 44 -16 10 -52 30 -78 45 -109 63 -230 148 -263
187 -38 42 -84 129 -84 157 0 21 41 58 76 69 47 13 298 3 340 -15z"/>
</g>
</svg>
