<?xml version="1.0" standalone="no"?>
<!DOCTYPE svg PUBLIC "-//W3C//DTD SVG 20010904//EN"
 "http://www.w3.org/TR/2001/REC-SVG-20010904/DTD/svg10.dtd">
<svg version="1.0" xmlns="http://www.w3.org/2000/svg"
 width="372.000000pt" height="114.000000pt" viewBox="0 0 372.000000 114.000000"
 preserveAspectRatio="xMidYMid meet">
<metadata>
Created by potrace 1.16, written by Peter Selinger 2001-2019
</metadata>
<g transform="translate(0.000000,114.000000) scale(0.100000,-0.100000)"
fill="#000000" stroke="none">
<path d="M23 1126 l-23 -11 0 -56 0 -55 28 -26 c15 -13 43 -35 63 -47 20 -12
49 -37 63 -56 17 -22 40 -38 64 -44 44 -12 134 -58 209 -105 61 -39 241 -96
302 -96 44 0 68 72 34 102 -30 27 -134 75 -219 103 -83 27 -154 80 -140 104
16 25 119 11 253 -34 73 -25 142 -45 154 -45 11 0 50 -13 86 -30 47 -22 79
-30 119 -30 38 0 73 -8 110 -25 51 -23 206 -75 314 -105 25 -7 82 -15 126 -17
l82 -4 28 -30 c16 -17 38 -29 53 -29 14 0 46 -6 71 -14 119 -37 140 -40 382
-43 l247 -4 43 22 c24 12 61 37 82 56 22 18 57 38 78 43 21 6 45 22 55 36 10
14 27 37 39 51 l21 26 28 -7 c16 -4 47 -27 69 -50 23 -24 62 -55 87 -69 25
-14 58 -42 72 -60 17 -22 42 -40 69 -48 31 -10 50 -25 69 -54 15 -22 59 -67
99 -99 39 -33 78 -72 86 -88 8 -15 32 -39 54 -53 22 -14 51 -43 64 -64 14 -21
48 -58 76 -82 28 -23 53 -53 56 -66 l6 -23 69 0 69 0 0 38 0 37 -70 80 c-38
44 -70 84 -70 89 0 15 -291 306 -334 333 -22 14 -60 44 -85 67 -25 23 -62 52
-81 65 -19 13 -49 42 -66 65 -17 22 -53 52 -80 66 -30 16 -60 42 -77 68 -28
41 -106 92 -142 92 -31 0 -97 -42 -113 -72 -9 -16 -40 -65 -67 -107 -39 -58
-61 -81 -95 -98 l-45 -23 -248 0 c-198 0 -255 3 -284 15 -19 8 -54 15 -77 15
-25 0 -53 8 -71 21 -71 48 -124 69 -177 69 -29 0 -73 6 -98 14 -58 18 -123 35
-180 46 -25 5 -64 18 -86 29 -40 19 -113 44 -214 71 -25 7 -76 15 -115 19 -44
4 -133 29 -238 64 -92 31 -185 57 -206 57 -22 0 -43 5 -46 10 -9 14 -304 11
-332 -4z"/>
</g>
</svg>
