<?xml version="1.0" standalone="no"?>
<!DOCTYPE svg PUBLIC "-//W3C//DTD SVG 20010904//EN"
 "http://www.w3.org/TR/2001/REC-SVG-20010904/DTD/svg10.dtd">
<svg version="1.0" xmlns="http://www.w3.org/2000/svg"
 width="1152.000000pt" height="768.000000pt" viewBox="0 0 1152.000000 768.000000"
 preserveAspectRatio="xMidYMid meet">
<metadata>
Created by potrace 1.16, written by Peter Selinger 2001-2019
</metadata>
<g transform="translate(0.000000,768.000000) scale(0.100000,-0.100000)"
fill="#000000" stroke="none">
<path d="M1087 6382 l-17 -19 0 -170 0 -170 18 -16 c13 -12 37 -17 80 -17 l61
0 11 -19 c5 -11 10 -84 10 -164 l0 -144 18 -16 c13 -12 37 -17 80 -17 l61 0
11 -19 c5 -11 10 -51 10 -89 0 -89 13 -102 98 -102 l61 0 11 -19 c5 -11 10
-44 10 -74 0 -75 15 -87 113 -87 l76 0 11 -19 c5 -11 10 -44 10 -74 0 -72 17
-87 98 -87 l61 0 11 -19 c5 -11 10 -51 10 -89 0 -89 13 -102 98 -102 l61 0 11
-19 c5 -11 10 -44 10 -74 0 -40 5 -58 18 -70 l19 -17 166 0 166 0 11 -19 c5
-11 10 -44 10 -74 0 -72 17 -87 98 -87 l61 0 11 -19 c5 -11 10 -51 10 -89 0
-54 4 -72 18 -85 l19 -17 256 0 256 0 11 -19 c6 -13 10 -144 10 -359 l0 -339
18 -16 c13 -12 37 -17 80 -17 l61 0 11 -19 c5 -11 10 -44 10 -74 0 -75 15 -87
113 -87 l76 0 11 -19 c5 -11 10 -44 10 -74 0 -72 17 -87 98 -87 l61 0 11 -19
c6 -11 10 -88 10 -179 l0 -159 18 -16 c13 -12 37 -17 80 -17 l61 0 11 -19 c5
-11 10 -44 10 -74 0 -75 15 -87 113 -87 l76 0 11 -19 c5 -11 10 -51 10 -89 0
-89 13 -102 98 -102 l61 0 11 -19 c5 -11 10 -44 10 -74 0 -40 5 -58 18 -70
l19 -17 151 0 151 0 11 -19 c5 -11 10 -44 10 -74 0 -75 15 -87 113 -87 l76 0
11 -19 c5 -11 10 -44 10 -74 0 -40 5 -58 18 -70 l19 -17 151 0 151 0 11 -19
c5 -11 10 -51 10 -89 0 -54 4 -72 18 -85 l19 -17 166 0 166 0 11 -19 c5 -11
10 -44 10 -74 0 -40 5 -58 18 -70 l19 -17 151 0 151 0 11 -19 c5 -11 10 -44
10 -74 0 -76 15 -87 117 -87 l80 0 16 18 17 19 0 260 0 260 -18 16 -19 17
-166 0 -166 0 -11 19 c-5 11 -10 44 -10 74 0 40 -5 58 -18 70 l-19 17 -151 0
-151 0 -11 19 c-5 11 -10 44 -10 74 0 40 -5 58 -18 70 l-19 17 -166 0 -166 0
-11 19 c-5 11 -10 44 -10 74 0 72 -17 87 -98 87 l-61 0 -11 19 c-5 11 -10 51
-10 89 0 92 -11 102 -113 102 l-76 0 -11 19 c-5 11 -10 44 -10 74 0 72 -17 87
-98 87 l-61 0 -11 19 c-5 11 -10 44 -10 74 0 72 -17 87 -98 87 l-61 0 -11 19
c-5 11 -10 51 -10 89 0 89 -13 102 -98 102 l-61 0 -11 19 c-5 11 -10 44 -10
74 0 75 -15 87 -113 87 l-76 0 -11 19 c-14 27 -14 665 0 692 l11 19 78 0 78 0
16 18 c12 13 17 37 17 84 0 88 -12 98 -113 98 l-76 0 -11 19 c-5 11 -10 51
-10 89 0 54 -4 72 -18 85 l-19 17 -346 0 -346 0 -11 19 c-5 11 -10 44 -10 74
0 72 -17 87 -98 87 l-61 0 -11 19 c-5 11 -10 44 -10 74 0 40 -5 58 -18 70
l-19 17 -166 0 -166 0 -11 19 c-5 11 -10 51 -10 89 0 89 -13 102 -98 102 l-61
0 -11 19 c-5 11 -10 44 -10 74 0 40 -5 58 -18 70 l-19 17 -166 0 -166 0 -11
19 c-5 11 -10 44 -10 74 0 72 -17 87 -98 87 l-61 0 -11 19 c-5 11 -10 51 -10
89 0 89 -13 102 -98 102 l-61 0 -11 19 c-5 11 -10 38 -10 61 0 23 5 50 10 61
l11 19 344 0 344 0 11 -19 c5 -11 10 -44 10 -74 0 -40 5 -58 18 -70 l19 -17
151 0 151 0 11 -19 c5 -11 10 -51 10 -89 0 -54 4 -72 18 -85 l19 -17 361 0
361 0 11 -19 c5 -11 10 -44 10 -74 0 -72 17 -87 98 -87 l61 0 11 -19 c5 -11
10 -44 10 -74 0 -40 5 -58 18 -70 l19 -17 166 0 166 0 11 -19 c5 -11 10 -51
10 -89 0 -54 4 -72 18 -85 l19 -17 151 0 151 0 11 -19 c5 -11 10 -44 10 -74 0
-40 5 -58 18 -70 l19 -17 166 0 166 0 11 -19 c5 -11 10 -44 10 -74 0 -40 5
-58 18 -70 l19 -17 256 0 256 0 11 -19 c5 -11 10 -51 10 -89 0 -54 4 -72 18
-85 l19 -17 151 0 151 0 11 -19 c5 -11 10 -44 10 -74 0 -72 17 -87 98 -87 l61
0 11 -19 c5 -11 10 -44 10 -74 0 -40 5 -58 18 -70 l19 -17 166 0 166 0 11 -19
c5 -11 10 -44 10 -74 0 -40 5 -58 18 -70 l19 -17 166 0 166 0 11 -19 c5 -11
10 -51 10 -89 0 -54 4 -72 18 -85 l19 -17 151 0 151 0 11 -19 c5 -11 10 -44
10 -74 0 -75 15 -87 113 -87 l76 0 11 -19 c5 -11 10 -44 10 -74 0 -40 5 -58
18 -70 l19 -17 151 0 151 0 11 -19 c5 -11 10 -51 10 -89 0 -54 4 -72 18 -85
l19 -17 166 0 166 0 11 -19 c5 -11 10 -44 10 -74 0 -72 17 -87 98 -87 l61 0
11 -19 c5 -11 10 -44 10 -74 0 -40 5 -58 18 -70 l19 -17 166 0 166 0 11 -19
c5 -11 10 -51 10 -89 0 -54 4 -72 18 -85 l19 -17 151 0 151 0 11 -19 c5 -11
10 -44 10 -74 0 -72 17 -87 98 -87 l61 0 11 -19 c5 -11 10 -44 10 -74 0 -40 5
-58 18 -70 l19 -17 166 0 166 0 11 -19 c5 -11 10 -44 10 -74 0 -40 5 -58 18
-70 l19 -17 166 0 166 0 11 -19 c5 -11 10 -51 10 -89 0 -90 12 -102 102 -102
86 0 98 13 98 104 0 37 5 76 10 87 l11 19 63 0 c83 0 96 14 96 102 0 84 -14
98 -98 98 l-61 0 -11 19 c-5 11 -10 44 -10 74 0 40 -5 58 -18 70 l-19 17 -166
0 -166 0 -11 19 c-5 11 -10 44 -10 74 0 40 -5 58 -18 70 l-19 17 -151 0 -151
0 -11 19 c-5 11 -10 51 -10 89 0 92 -11 102 -113 102 l-76 0 -11 19 c-5 11
-10 44 -10 74 0 40 -5 58 -18 70 l-19 17 -151 0 -151 0 -11 19 c-5 11 -10 44
-10 74 0 40 -5 58 -18 70 l-19 17 -166 0 -166 0 -11 19 c-5 11 -10 51 -10 89
0 89 -13 102 -98 102 l-61 0 -11 19 c-5 11 -10 44 -10 74 0 40 -5 58 -18 70
l-19 17 -166 0 -166 0 -11 19 c-5 11 -10 44 -10 74 0 40 -5 58 -18 70 l-19 17
-151 0 -151 0 -11 19 c-5 11 -10 51 -10 89 0 54 -4 72 -18 85 l-19 17 -166 0
-166 0 -11 19 c-5 11 -10 44 -10 74 0 72 -17 87 -98 87 l-61 0 -11 19 c-5 11
-10 44 -10 74 0 40 -5 58 -18 70 l-19 17 -166 0 -166 0 -11 19 c-5 11 -10 44
-10 74 0 40 -5 58 -18 70 l-19 17 -151 0 -151 0 -11 19 c-5 11 -10 51 -10 89
0 54 -4 72 -18 85 l-19 17 -166 0 -166 0 -11 19 c-5 11 -10 44 -10 74 0 40 -5
58 -18 70 l-19 17 -151 0 -151 0 -11 19 c-5 11 -10 44 -10 74 0 40 -5 58 -18
70 l-19 17 -166 0 -166 0 -11 19 c-5 11 -10 51 -10 89 0 89 -13 102 -98 102
l-61 0 -11 19 c-5 11 -10 44 -10 74 0 40 -5 58 -18 70 l-19 17 -166 0 -166 0
-11 19 c-5 11 -10 44 -10 74 0 40 -5 58 -18 70 l-19 17 -256 0 -256 0 -11 19
c-5 11 -10 51 -10 89 0 54 -4 72 -18 85 l-19 17 -151 0 -151 0 -11 19 c-5 11
-10 44 -10 74 0 40 -5 58 -18 70 l-19 17 -166 0 -166 0 -11 19 c-5 11 -10 44
-10 74 0 40 -5 58 -18 70 l-19 17 -256 0 -256 0 -11 19 c-5 11 -10 44 -10 74
0 40 -5 58 -18 70 l-19 17 -151 0 -151 0 -11 19 c-5 11 -10 51 -10 89 0 54 -4
72 -18 85 l-19 17 -635 0 -635 0 -16 -18z"/>
</g>
</svg>
