<?xml version="1.0" standalone="no"?>
<!DOCTYPE svg PUBLIC "-//W3C//DTD SVG 20010904//EN"
 "http://www.w3.org/TR/2001/REC-SVG-20010904/DTD/svg10.dtd">
<svg version="1.0" xmlns="http://www.w3.org/2000/svg"
 width="402.000000pt" height="228.000000pt" viewBox="0 0 402.000000 228.000000"
 preserveAspectRatio="xMidYMid meet">
<metadata>
Created by potrace 1.16, written by Peter Selinger 2001-2019
</metadata>
<g transform="translate(0.000000,228.000000) scale(0.100000,-0.100000)"
fill="#000000" stroke="none">
<path d="M35 2250 c-8 -16 -15 -42 -15 -59 0 -16 -4 -33 -10 -36 -13 -8 -13
-102 0 -110 6 -3 10 -33 10 -65 0 -44 7 -74 30 -122 16 -34 30 -69 30 -77 0
-8 16 -40 36 -70 66 -102 114 -190 114 -206 0 -9 29 -46 64 -84 35 -37 75 -85
89 -107 13 -22 44 -52 69 -68 24 -15 58 -49 75 -75 17 -26 51 -59 75 -75 23
-15 56 -45 71 -67 16 -22 50 -50 77 -64 27 -14 61 -41 76 -61 16 -21 55 -49
94 -69 72 -36 185 -111 238 -156 18 -16 40 -29 50 -29 9 0 31 -9 47 -21 42
-29 242 -129 257 -129 7 0 33 -14 58 -30 25 -16 52 -30 60 -30 9 0 32 -11 51
-24 51 -35 150 -66 209 -66 28 0 67 -7 87 -15 19 -8 53 -15 75 -15 21 0 55 -7
75 -15 42 -18 160 -20 213 -4 l38 12 30 -22 c53 -37 92 -23 92 34 0 37 16 61
92 142 l58 61 0 42 c0 59 -41 100 -102 100 -24 0 -66 8 -94 18 -58 20 -154 97
-154 123 0 9 15 27 33 38 l34 21 54 -16 c30 -8 75 -19 101 -24 26 -5 56 -13
67 -19 11 -6 30 -11 43 -11 39 0 171 -49 214 -80 23 -16 75 -40 115 -54 71
-23 129 -53 249 -129 30 -19 79 -47 108 -61 29 -15 69 -42 90 -60 20 -18 53
-41 72 -51 19 -10 58 -35 85 -56 133 -104 163 -126 203 -153 45 -31 142 -131
142 -147 0 -5 25 -9 55 -9 l55 0 0 63 0 64 -47 39 c-27 22 -61 48 -78 58 -16
11 -50 38 -75 61 -25 22 -72 59 -105 80 -33 22 -80 55 -104 74 -74 59 -155
111 -172 111 -8 0 -27 12 -42 28 -14 15 -73 49 -129 76 -57 26 -119 57 -138
67 -124 68 -309 152 -416 189 -28 10 -69 27 -92 39 -23 12 -53 21 -67 21 -14
0 -42 7 -62 15 -53 22 -322 21 -366 -1 -58 -30 -67 -43 -67 -100 l0 -52 149
-153 150 -153 -10 -17 c-11 -21 -127 -79 -158 -79 -12 0 -38 7 -58 15 -19 8
-52 15 -72 15 -20 0 -75 13 -121 30 -47 16 -94 30 -105 30 -37 0 -170 50 -210
79 -63 44 -182 101 -213 101 -28 0 -59 17 -102 56 -14 12 -75 47 -137 78 -80
40 -119 65 -139 91 -26 35 -89 75 -116 75 -7 0 -35 25 -61 55 -34 39 -59 57
-87 65 -24 6 -47 21 -57 37 -10 15 -38 45 -62 69 -134 129 -229 231 -247 266
-9 18 -34 53 -55 78 -20 25 -54 79 -74 120 -21 41 -46 86 -55 100 -22 31 -60
136 -60 166 0 12 -7 38 -15 57 -10 25 -15 72 -15 152 l0 115 -40 0 -39 0 -16
-30z"/>
</g>
</svg>
