<?xml version="1.0" standalone="no"?>
<!DOCTYPE svg PUBLIC "-//W3C//DTD SVG 20010904//EN"
 "http://www.w3.org/TR/2001/REC-SVG-20010904/DTD/svg10.dtd">
<svg version="1.0" xmlns="http://www.w3.org/2000/svg"
 width="267.000000pt" height="309.000000pt" viewBox="0 0 267.000000 309.000000"
 preserveAspectRatio="xMidYMid meet">
<metadata>
Created by potrace 1.16, written by Peter Selinger 2001-2019
</metadata>
<g transform="translate(0.000000,309.000000) scale(0.100000,-0.100000)"
fill="#000000" stroke="none">
<path d="M7 3083 c-4 -3 -7 -34 -7 -68 l0 -62 23 -12 c13 -7 37 -34 55 -61 17
-26 46 -59 63 -72 40 -30 87 -77 118 -118 13 -17 41 -43 63 -56 21 -14 44 -36
50 -49 l11 -24 -32 -49 -31 -49 0 -60 c0 -33 7 -77 15 -96 8 -20 15 -48 15
-62 0 -42 75 -181 115 -210 19 -15 35 -35 35 -44 0 -22 54 -98 108 -153 117
-118 217 -219 332 -332 25 -24 77 -65 115 -91 39 -26 88 -64 110 -85 22 -21
76 -56 120 -78 70 -35 138 -85 238 -176 16 -15 27 -35 27 -51 0 -29 33 -133
57 -180 9 -16 33 -50 53 -75 21 -25 48 -65 60 -90 13 -25 40 -65 61 -91 22
-25 39 -49 39 -54 0 -5 7 -17 17 -27 9 -10 14 -21 11 -24 -7 -6 -163 56 -218
87 -112 62 -253 129 -273 129 -12 0 -61 13 -107 29 -47 17 -104 33 -127 37
l-43 7 0 -26 c0 -28 69 -97 97 -97 9 0 37 -13 62 -29 25 -16 91 -50 146 -76
55 -26 116 -56 135 -66 121 -65 250 -127 278 -134 17 -3 54 -21 80 -40 57 -39
126 -75 144 -75 21 0 132 -55 178 -89 24 -17 50 -31 57 -31 19 0 126 -66 149
-91 l17 -19 82 0 83 0 6 24 c3 13 9 31 12 39 10 28 -74 106 -161 149 -44 22
-100 57 -125 77 -25 20 -82 61 -127 91 -54 36 -91 69 -111 100 -17 25 -50 58
-74 73 -24 16 -54 45 -68 65 -14 20 -41 57 -61 82 -68 85 -101 146 -97 182 4
46 26 46 105 -1 37 -23 82 -45 100 -50 18 -5 45 -18 60 -29 52 -37 233 -122
258 -122 14 0 42 -7 62 -15 21 -9 66 -15 110 -15 80 0 118 13 166 58 l27 26 0
92 c0 51 -4 96 -10 99 -5 3 -10 15 -10 25 0 18 -43 73 -134 170 -84 90 -283
248 -363 289 -101 50 -266 101 -331 101 l-57 -1 -80 -42 -80 -42 -32 -62 c-17
-34 -33 -68 -35 -74 -7 -22 -76 13 -144 73 -36 32 -73 58 -83 58 -24 0 -86 46
-152 112 -30 30 -67 62 -84 73 -81 51 -301 268 -360 356 -16 24 -46 64 -66 89
-20 25 -47 65 -59 90 -13 25 -31 56 -40 70 -23 32 -60 137 -60 168 0 36 43 72
85 72 27 0 44 8 66 29 53 54 30 110 -63 150 -106 46 -123 57 -180 111 -32 30
-76 71 -98 90 -48 42 -56 62 -35 84 38 37 165 11 280 -58 33 -20 77 -41 99
-47 45 -12 242 -112 326 -165 30 -19 69 -38 87 -43 18 -5 45 -18 60 -29 43
-30 164 -89 200 -96 18 -4 75 -36 128 -72 52 -35 131 -82 174 -104 78 -39 111
-69 111 -101 0 -28 34 -49 82 -49 35 0 50 -5 69 -26 13 -14 56 -46 94 -72 39
-25 104 -79 147 -120 58 -56 82 -73 100 -70 30 4 33 29 11 98 l-18 54 -50 34
c-28 19 -63 52 -79 74 -15 21 -46 48 -69 59 -23 12 -62 37 -86 57 -59 48 -220
156 -272 182 -23 12 -60 35 -82 51 -22 16 -47 29 -56 29 -9 0 -29 9 -46 21
-49 33 -238 126 -272 133 -17 4 -51 24 -75 45 -47 42 -145 95 -196 106 -17 3
-53 21 -80 39 -65 46 -99 62 -184 90 -40 13 -99 40 -130 59 -32 19 -90 45
-130 57 -40 13 -77 27 -83 32 -11 9 -309 11 -318 1z m1951 -1731 c29 -11 65
-30 80 -43 15 -14 54 -34 87 -44 34 -11 81 -37 110 -60 78 -64 215 -196 246
-239 l29 -39 0 -58 0 -58 -19 -11 c-27 -14 -68 -13 -121 5 -25 8 -61 17 -82
20 -21 3 -75 32 -133 71 -58 39 -123 73 -163 86 -37 12 -80 33 -97 49 -16 15
-50 37 -75 49 -25 13 -57 31 -72 42 l-28 19 0 53 c0 46 22 130 43 164 13 19
134 15 195 -6z"/>
</g>
</svg>
