<?xml version="1.0" standalone="no"?>
<!DOCTYPE svg PUBLIC "-//W3C//DTD SVG 20010904//EN"
 "http://www.w3.org/TR/2001/REC-SVG-20010904/DTD/svg10.dtd">
<svg version="1.0" xmlns="http://www.w3.org/2000/svg"
 width="279.000000pt" height="303.000000pt" viewBox="0 0 279.000000 303.000000"
 preserveAspectRatio="xMidYMid meet">
<metadata>
Created by potrace 1.16, written by Peter Selinger 2001-2019
</metadata>
<g transform="translate(0.000000,303.000000) scale(0.100000,-0.100000)"
fill="#000000" stroke="none">
<path d="M104 3011 c-17 -9 -48 -34 -68 -55 l-36 -39 0 -98 0 -97 27 -30 c16
-17 39 -44 52 -62 13 -17 42 -43 65 -57 22 -15 68 -52 101 -83 35 -34 91 -73
135 -95 41 -20 95 -54 120 -75 25 -20 65 -47 90 -60 25 -12 65 -39 90 -60 25
-20 64 -47 86 -58 23 -12 77 -46 121 -75 85 -58 154 -97 175 -97 20 0 134 -56
171 -84 18 -13 61 -38 97 -56 36 -18 108 -61 160 -95 52 -35 109 -66 127 -70
45 -9 204 -168 244 -243 16 -31 52 -84 80 -117 48 -56 119 -186 119 -216 0 -7
12 -25 27 -41 40 -42 63 -119 63 -214 0 -50 6 -95 15 -117 23 -54 21 -306 -2
-355 -46 -100 -155 -202 -215 -202 -14 0 -42 -7 -61 -15 -23 -10 -69 -15 -125
-15 l-89 0 -27 -21 c-48 -38 -26 -89 38 -89 14 0 28 -4 31 -10 8 -13 162 -13
170 0 3 6 27 10 53 10 71 1 161 57 302 188 l68 63 31 98 32 98 -11 27 c-5 15
-10 105 -10 201 l0 174 -30 64 c-16 36 -30 78 -30 94 0 15 -14 48 -30 73 -16
25 -30 52 -30 60 0 9 -11 32 -24 51 -29 42 -68 151 -58 161 20 20 202 -56 291
-120 21 -15 58 -36 82 -46 47 -19 76 -33 154 -77 28 -16 65 -29 83 -29 l32 0
0 58 0 57 -45 18 c-24 10 -63 35 -87 56 -54 48 -68 55 -166 87 -49 15 -95 38
-119 58 -38 34 -291 166 -316 166 -7 0 -26 13 -41 29 -15 16 -43 32 -62 36
-38 7 -87 51 -296 265 -69 70 -74 97 -26 141 18 16 45 40 61 53 18 17 27 35
27 55 0 17 7 49 16 71 20 49 16 80 -34 250 -16 55 -22 62 -146 190 -117 120
-333 234 -471 249 -33 4 -74 15 -92 24 -18 9 -44 17 -58 17 -14 0 -42 7 -62
15 -19 8 -55 15 -79 15 -23 0 -46 5 -49 10 -4 6 -116 10 -308 9 l-302 -1 -31
-17z m493 -126 c23 -10 69 -15 132 -15 55 0 115 -6 141 -14 78 -24 133 -37
195 -45 62 -8 124 -37 247 -114 95 -60 182 -154 221 -239 21 -45 24 -195 4
-222 l-13 -18 -41 7 c-23 3 -69 20 -103 36 -34 16 -67 29 -73 29 -7 0 -32 14
-57 30 -54 36 -108 40 -135 11 l-17 -20 3 -83 4 -83 -25 -3 c-17 -2 -52 16
-109 53 -45 31 -118 73 -161 95 -50 25 -88 53 -108 77 -21 28 -43 42 -75 50
-25 7 -70 32 -99 55 -88 70 -147 109 -181 119 -41 12 -58 25 -93 75 -16 22
-44 60 -61 84 -18 24 -33 49 -33 56 0 19 43 45 114 71 77 27 266 32 323 8z"/>
</g>
</svg>
