<?xml version="1.0" standalone="no"?>
<!DOCTYPE svg PUBLIC "-//W3C//DTD SVG 20010904//EN"
 "http://www.w3.org/TR/2001/REC-SVG-20010904/DTD/svg10.dtd">
<svg version="1.0" xmlns="http://www.w3.org/2000/svg"
 width="426.000000pt" height="162.000000pt" viewBox="0 0 426.000000 162.000000"
 preserveAspectRatio="xMidYMid meet">
<metadata>
Created by potrace 1.16, written by Peter Selinger 2001-2019
</metadata>
<g transform="translate(0.000000,162.000000) scale(0.100000,-0.100000)"
fill="#000000" stroke="none">
<path d="M2137 1588 l-34 -33 -7 -59 -6 -58 28 -52 c32 -58 49 -89 83 -160 13
-27 31 -52 39 -56 60 -27 78 -40 96 -75 12 -22 25 -50 29 -62 l6 -23 -33 -20
-33 -20 -293 0 -293 0 -36 15 c-19 8 -60 15 -90 15 -29 0 -70 7 -90 15 -22 9
-67 15 -120 15 -52 0 -97 6 -120 15 -22 9 -67 15 -120 15 -52 0 -97 6 -120 15
-19 8 -54 15 -77 15 -25 0 -66 12 -104 30 -35 17 -75 30 -88 30 -14 0 -41 7
-61 15 -19 8 -45 15 -57 15 -26 0 -151 42 -203 68 -21 11 -53 23 -71 27 -17 3
-53 21 -80 39 -26 18 -67 44 -92 58 -25 14 -56 38 -69 52 -28 30 -50 32 -91
11 l-30 -16 0 -39 0 -39 39 -23 c21 -13 62 -36 91 -53 29 -16 77 -47 109 -67
31 -21 62 -38 70 -38 8 0 44 -13 80 -29 192 -83 258 -105 376 -121 33 -5 92
-20 130 -34 39 -14 86 -26 105 -26 19 0 55 -6 80 -14 87 -28 136 -38 210 -45
41 -4 85 -13 97 -19 15 -8 98 -12 272 -12 162 0 260 -4 278 -11 15 -6 110 -14
210 -17 l182 -5 41 17 c23 9 69 16 108 16 l67 0 52 -36 c28 -19 59 -46 68 -60
8 -13 35 -36 58 -51 23 -14 67 -50 97 -79 30 -29 76 -67 102 -86 39 -28 100
-80 227 -193 12 -11 39 -38 60 -60 21 -22 68 -67 106 -100 83 -72 125 -129
125 -167 l0 -28 70 0 70 0 0 48 0 49 -47 61 c-27 33 -68 88 -93 122 -25 33
-66 85 -92 116 -27 30 -48 61 -48 68 0 22 59 66 88 66 15 0 47 -14 72 -30 25
-16 56 -30 70 -30 14 0 45 -6 70 -14 56 -18 122 -35 175 -45 41 -8 98 -39 242
-132 77 -50 89 -63 144 -156 20 -35 45 -41 80 -23 l19 11 0 72 -1 72 -62 67
-62 66 -110 57 c-60 31 -135 72 -165 91 -30 19 -72 39 -93 45 -21 5 -53 19
-70 29 -18 11 -44 26 -59 35 l-27 15 -57 -26 -57 -26 -41 16 c-56 21 -229 22
-279 1 -47 -19 -102 -19 -136 1 -14 9 -42 39 -62 67 -27 40 -45 55 -79 67 -32
11 -52 27 -73 57 -26 39 -38 51 -107 103 l-25 18 19 49 c10 26 21 77 23 113
l4 65 -30 65 c-17 36 -31 73 -31 84 0 23 -167 195 -225 232 -24 15 -49 37 -56
50 l-12 24 -108 0 -108 0 -34 -32z m184 -152 c36 -16 142 -102 163 -132 17
-25 61 -162 54 -169 -17 -17 -145 81 -176 135 -15 25 -35 52 -46 61 -28 23
-54 119 -32 119 2 0 19 -6 37 -14z"/>
</g>
</svg>
