<?xml version="1.0" standalone="no"?>
<!DOCTYPE svg PUBLIC "-//W3C//DTD SVG 20010904//EN"
 "http://www.w3.org/TR/2001/REC-SVG-20010904/DTD/svg10.dtd">
<svg version="1.0" xmlns="http://www.w3.org/2000/svg"
 width="396.000000pt" height="297.000000pt" viewBox="0 0 396.000000 297.000000"
 preserveAspectRatio="xMidYMid meet">
<metadata>
Created by potrace 1.16, written by Peter Selinger 2001-2019
</metadata>
<g transform="translate(0.000000,297.000000) scale(0.100000,-0.100000)"
fill="#000000" stroke="none">
<path d="M980 2950 c-14 -11 -38 -22 -55 -26 -16 -3 -40 -12 -52 -20 -22 -14
-73 -101 -73 -126 0 -6 -12 -24 -26 -39 -62 -65 -82 -217 -43 -332 28 -83 33
-92 98 -165 57 -64 131 -121 212 -162 24 -13 58 -33 74 -45 35 -26 169 -95
186 -95 6 0 40 -13 76 -30 35 -16 76 -30 90 -30 13 0 54 -13 90 -30 35 -16 76
-30 89 -30 14 0 50 -11 80 -25 73 -33 168 -65 195 -65 36 0 147 -59 169 -90
27 -38 90 -171 90 -191 0 -9 13 -34 29 -56 16 -22 38 -58 49 -79 11 -22 32
-50 46 -63 14 -14 26 -33 26 -42 0 -10 25 -47 56 -81 31 -35 67 -84 79 -109
13 -25 31 -52 41 -59 9 -8 40 -46 69 -85 28 -38 122 -144 208 -235 87 -90 157
-168 157 -173 0 -5 -8 -6 -17 -2 -10 3 -38 11 -63 16 -25 6 -66 17 -91 25 -26
8 -69 14 -95 14 -27 0 -69 6 -94 14 -125 39 -137 41 -290 37 -19 0 -115 2
-214 5 l-178 5 -39 -15 c-22 -9 -57 -16 -78 -16 -21 0 -55 -7 -74 -15 -20 -8
-48 -15 -62 -15 -38 0 -103 -36 -163 -91 -30 -27 -60 -49 -69 -49 -8 0 -47 22
-86 48 -40 26 -92 60 -117 74 -25 14 -55 40 -68 57 -12 17 -46 43 -75 57 -29
15 -74 44 -102 65 -27 22 -78 61 -113 88 -34 27 -78 52 -96 55 -19 4 -53 24
-77 45 -44 38 -99 71 -119 71 -32 0 -128 57 -170 100 l-48 50 -130 0 -129 0
-41 -49 -42 -50 0 -65 0 -66 43 -62 c79 -116 218 -231 266 -222 17 4 48 -4 85
-20 46 -20 75 -26 133 -26 81 0 129 18 172 64 14 14 29 26 35 26 12 0 220
-135 270 -176 84 -67 145 -112 186 -136 25 -14 55 -39 67 -56 12 -16 46 -43
76 -60 39 -22 63 -45 85 -81 56 -90 156 -119 213 -62 37 38 38 76 2 160 l-27
63 20 36 c11 22 29 39 45 43 15 4 44 18 65 33 26 18 52 26 80 26 23 0 58 7 77
15 50 21 244 21 294 0 46 -19 74 -19 134 2 l48 17 98 -31 c133 -42 178 -53
248 -62 34 -5 70 -13 82 -19 12 -7 34 -12 50 -12 16 0 45 -11 64 -24 38 -26
145 -66 176 -66 25 0 216 -65 281 -95 29 -14 57 -25 63 -25 20 0 84 -34 136
-72 l52 -38 59 0 59 0 13 40 c10 30 10 46 2 64 -11 26 -138 116 -163 116 -8 0
-52 25 -98 55 -45 31 -103 66 -129 80 -59 31 -71 41 -107 88 -15 21 -50 49
-76 63 -26 13 -56 36 -66 51 -10 14 -38 46 -63 70 -25 24 -60 58 -77 76 -18
17 -44 43 -59 57 -95 93 -139 144 -149 172 -6 20 -26 43 -53 61 -24 16 -47 39
-52 51 -4 11 -14 36 -21 54 -6 19 -41 77 -75 130 -35 53 -64 104 -64 112 0 8
-14 35 -30 60 -16 25 -30 52 -30 60 0 8 -16 44 -35 79 -19 35 -32 68 -29 72 9
15 127 -2 216 -32 50 -17 107 -29 137 -29 29 0 68 -7 88 -15 23 -10 69 -15
132 -15 55 0 115 -6 141 -14 101 -32 140 -39 255 -45 66 -4 130 -12 142 -19
68 -38 183 17 183 88 0 40 -12 55 -70 86 -19 10 -57 36 -83 57 -26 22 -60 42
-75 46 -15 4 -35 22 -45 39 l-19 32 12 15 c26 31 81 18 170 -41 47 -31 111
-70 144 -87 34 -17 85 -56 120 -93 l62 -64 37 0 37 0 0 85 c0 47 -4 85 -8 85
-5 0 -43 33 -85 73 -61 58 -101 85 -190 129 -130 65 -222 98 -269 98 -18 0
-54 7 -80 17 l-46 16 -31 -13 c-18 -7 -43 -21 -56 -32 l-25 -19 0 -60 c0 -65
30 -166 62 -212 l21 -29 -15 -15 -15 -14 -38 15 c-21 9 -62 16 -92 16 -29 0
-70 7 -90 15 -19 8 -53 15 -75 15 -21 0 -55 7 -75 15 -19 8 -65 15 -102 15
-36 0 -86 6 -111 14 -78 25 -133 37 -195 45 -34 5 -70 13 -82 19 -12 7 -34 12
-48 12 -38 0 -79 27 -105 69 -12 20 -37 61 -55 91 -19 30 -66 118 -106 194
-39 77 -88 160 -109 185 -20 25 -52 75 -71 110 -19 36 -61 93 -94 127 -33 35
-73 79 -89 99 -16 20 -50 47 -76 60 -26 13 -83 48 -126 78 -98 67 -123 80
-204 106 -36 12 -73 26 -82 31 -10 6 -57 10 -105 10 l-88 0 -25 -20z m205
-160 c93 -32 201 -87 241 -123 21 -18 57 -43 82 -57 32 -17 60 -45 90 -90 24
-36 57 -79 73 -95 16 -17 29 -37 29 -43 0 -20 36 -85 91 -167 27 -41 60 -106
73 -145 12 -39 34 -83 48 -98 70 -74 58 -105 -27 -68 -32 15 -69 26 -82 26
-14 0 -54 14 -90 30 -35 17 -74 30 -87 30 -37 0 -135 38 -284 110 -78 39 -148
70 -156 70 -7 0 -31 13 -52 30 -21 16 -63 46 -92 66 -73 51 -116 104 -141 178
-41 122 -19 216 75 315 l48 51 51 0 c28 0 78 -9 110 -20z m-819 -1952 c21 -18
56 -42 77 -52 48 -25 63 -49 41 -70 -26 -26 -59 -18 -120 29 -31 25 -66 45
-76 45 -26 0 -45 44 -28 65 20 25 63 18 106 -17z"/>
</g>
</svg>
