<?xml version="1.0" standalone="no"?>
<!DOCTYPE svg PUBLIC "-//W3C//DTD SVG 20010904//EN"
 "http://www.w3.org/TR/2001/REC-SVG-20010904/DTD/svg10.dtd">
<svg version="1.0" xmlns="http://www.w3.org/2000/svg"
 width="933.000000pt" height="498.000000pt" viewBox="0 0 933.000000 498.000000"
 preserveAspectRatio="xMidYMid meet">
<metadata>
Created by potrace 1.16, written by Peter Selinger 2001-2019
</metadata>
<g transform="translate(0.000000,498.000000) scale(0.100000,-0.100000)"
fill="#000000" stroke="none">
<path d="M0 4930 c0 -33 4 -50 13 -50 23 -1 82 -35 213 -122 72 -49 137 -88
145 -88 8 0 28 -9 44 -21 17 -11 64 -37 106 -59 81 -41 193 -115 247 -161 18
-16 41 -29 50 -29 10 0 55 -25 100 -55 91 -61 144 -89 182 -98 14 -4 43 -22
65 -40 22 -19 101 -65 175 -102 74 -38 149 -78 165 -91 17 -12 62 -38 100 -57
39 -19 111 -62 160 -96 62 -42 99 -61 121 -61 20 0 39 -9 55 -26 13 -14 42
-35 64 -46 22 -12 54 -31 70 -43 17 -13 66 -42 110 -64 44 -23 103 -56 132
-74 28 -18 73 -44 100 -60 26 -15 75 -50 108 -78 37 -31 77 -54 104 -61 32 -8
59 -26 97 -65 29 -29 61 -53 71 -53 10 0 32 -9 48 -21 17 -11 53 -32 80 -46
28 -14 70 -42 95 -63 49 -40 109 -73 152 -84 14 -3 50 -28 80 -55 53 -48 111
-83 158 -94 14 -4 44 -22 67 -42 23 -19 88 -58 145 -87 56 -28 117 -61 133
-74 17 -12 64 -39 105 -59 41 -21 96 -55 122 -76 25 -21 79 -55 120 -75 40
-20 93 -53 118 -74 25 -20 56 -43 70 -50 40 -21 368 -350 406 -408 34 -50 109
-102 148 -102 8 0 44 14 79 30 75 35 172 41 234 15 22 -9 67 -15 120 -15 52 0
97 -6 120 -15 19 -8 53 -15 75 -15 21 0 55 -7 75 -15 19 -8 54 -15 76 -15 31
0 49 -7 72 -28 32 -30 135 -65 270 -91 63 -12 143 -42 228 -83 43 -21 88 -38
100 -38 39 0 220 -67 282 -104 33 -20 76 -41 97 -46 77 -21 216 -99 248 -140
l32 -40 32 0 c21 0 47 -11 72 -30 21 -16 71 -51 109 -77 74 -49 145 -111 145
-126 0 -4 -19 -17 -42 -27 l-43 -20 -148 0 -148 0 -42 -21 c-55 -28 -94 -65
-119 -112 l-19 -39 10 -30 c6 -17 11 -42 11 -55 0 -39 59 -145 109 -194 25
-25 57 -60 70 -78 12 -17 62 -57 110 -88 47 -32 106 -76 131 -99 25 -23 65
-52 90 -64 25 -12 66 -39 91 -61 46 -38 146 -79 193 -79 14 0 28 -5 31 -10 3
-6 46 -10 95 -10 l90 0 55 35 55 36 35 69 35 70 0 85 c0 60 -6 104 -21 147
-22 66 -100 226 -131 271 l-20 28 12 14 12 15 257 0 c193 0 267 -3 301 -14 97
-31 139 -39 240 -46 74 -5 126 -15 175 -33 127 -48 195 -32 195 45 l0 36 -42
33 c-24 18 -70 58 -104 88 -34 31 -73 64 -88 74 -25 17 -56 74 -56 103 0 11
17 14 67 14 l66 0 41 -44 c27 -29 76 -61 142 -95 79 -40 111 -63 147 -106 26
-29 47 -61 47 -70 0 -31 55 -75 94 -75 l36 0 0 74 c0 41 -4 77 -9 80 -4 3 -11
19 -14 34 -10 49 -135 151 -267 218 -62 32 -130 72 -150 89 -43 39 -59 48
-137 74 -84 28 -189 28 -244 1 -70 -36 -101 -117 -59 -155 22 -20 101 -136
133 -194 l19 -34 -14 -8 c-21 -14 -85 -10 -125 6 -20 8 -66 15 -105 15 -38 0
-84 7 -105 15 -23 10 -69 15 -134 15 -54 0 -110 5 -126 11 -15 7 -98 14 -183
16 l-155 4 -62 30 c-34 17 -72 45 -87 63 -14 19 -50 47 -80 64 -29 17 -63 44
-75 61 -12 16 -45 43 -74 59 -30 17 -61 41 -70 55 -19 29 -145 117 -168 117
-8 0 -84 34 -168 75 -84 41 -158 75 -165 75 -6 0 -81 34 -165 75 -84 41 -164
75 -177 75 -14 0 -41 7 -61 15 -19 8 -47 15 -62 15 -14 0 -43 11 -63 25 -44
30 -179 72 -300 95 -26 5 -56 13 -67 19 -11 6 -33 11 -48 11 -19 0 -39 10 -58
30 -18 18 -39 30 -55 30 -14 0 -64 13 -110 30 -47 16 -102 30 -123 30 -21 0
-54 7 -74 15 -23 10 -69 15 -135 15 -65 0 -111 5 -135 15 -22 9 -68 15 -122
15 -91 0 -101 3 -169 62 -18 15 -42 28 -53 28 -13 0 -30 17 -49 47 -50 83 -59
92 -100 103 -23 6 -47 22 -57 36 -44 63 -80 97 -127 121 -28 14 -77 47 -109
72 -96 76 -118 91 -157 101 -20 5 -54 25 -76 43 -40 35 -160 100 -204 110 -14
4 -44 22 -67 42 -23 19 -90 60 -150 90 -59 29 -130 72 -157 94 -26 23 -55 41
-63 41 -14 0 -98 47 -203 113 -30 19 -71 43 -90 52 -19 10 -48 28 -65 40 -16
13 -52 35 -80 49 -27 15 -75 43 -105 62 -30 19 -66 37 -80 41 -14 3 -38 18
-55 33 -16 16 -75 51 -131 78 -59 30 -123 71 -155 100 -35 32 -100 73 -187
116 -73 37 -152 80 -174 96 -23 17 -47 30 -55 30 -14 0 -99 48 -203 113 -30
19 -69 38 -87 42 -17 3 -51 23 -75 44 -47 42 -145 95 -195 105 -17 4 -51 24
-75 45 -24 21 -102 68 -173 105 -72 37 -155 83 -185 102 -30 19 -66 38 -80 41
-14 3 -47 26 -74 49 -28 24 -76 57 -108 74 -33 18 -98 58 -146 91 -48 32 -93
59 -100 59 -13 0 -100 48 -202 113 -30 19 -89 52 -130 73 -41 20 -87 46 -102
56 -14 10 -42 18 -62 18 l-36 0 0 -50z m7534 -4149 c67 -31 95 -66 217 -273
l39 -67 0 -116 0 -116 -25 -24 -24 -25 -56 0 c-42 0 -74 8 -122 30 -35 17 -70
30 -78 30 -7 0 -41 21 -75 47 -34 27 -80 62 -103 78 -48 35 -203 188 -240 237
-37 48 -69 146 -56 169 l10 19 58 0 c32 0 74 7 92 15 25 10 74 14 177 15 l143
0 43 -19z"/>
</g>
</svg>
