<?xml version="1.0" standalone="no"?>
<!DOCTYPE svg PUBLIC "-//W3C//DTD SVG 20010904//EN"
 "http://www.w3.org/TR/2001/REC-SVG-20010904/DTD/svg10.dtd">
<svg version="1.0" xmlns="http://www.w3.org/2000/svg"
 width="498.000000pt" height="315.000000pt" viewBox="0 0 498.000000 315.000000"
 preserveAspectRatio="xMidYMid meet">
<metadata>
Created by potrace 1.16, written by Peter Selinger 2001-2019
</metadata>
<g transform="translate(0.000000,315.000000) scale(0.100000,-0.100000)"
fill="#000000" stroke="none">
<path d="M90 3141 c-8 -5 -32 -16 -52 -25 l-38 -16 0 -55 0 -54 29 -15 c41
-22 162 -104 191 -131 14 -13 59 -40 100 -60 41 -21 95 -54 120 -74 25 -20 65
-49 90 -63 25 -14 54 -36 65 -48 11 -12 38 -31 60 -42 53 -27 138 -92 194
-150 25 -25 65 -56 89 -68 24 -13 51 -34 60 -47 41 -60 76 -94 126 -122 33
-18 62 -44 76 -68 22 -36 38 -54 168 -188 32 -33 77 -85 99 -115 23 -31 56
-66 72 -78 17 -12 42 -45 57 -73 14 -28 53 -84 87 -126 34 -41 65 -80 68 -86
41 -77 154 -326 169 -372 12 -36 20 -86 20 -126 0 -37 7 -83 15 -102 21 -51
21 -273 0 -324 -8 -19 -15 -44 -15 -55 0 -11 -10 -51 -22 -90 l-23 -70 -83
-84 c-45 -46 -87 -84 -92 -84 -6 0 -33 -11 -60 -25 -51 -26 -80 -57 -80 -87
l0 -18 85 0 85 0 62 43 c132 90 268 242 268 299 0 7 14 42 30 76 18 37 30 80
30 103 0 22 7 56 15 76 19 44 21 234 3 266 -6 12 -15 56 -19 97 -7 74 -17 123
-45 210 -8 25 -14 56 -14 70 0 14 -26 64 -61 115 -34 49 -79 124 -100 167 -24
48 -52 87 -74 103 -19 15 -35 36 -35 47 0 10 -29 49 -64 87 -35 37 -75 85 -89
107 -33 52 -487 496 -568 556 -115 85 -146 112 -173 151 -27 37 -76 68 -128
81 -15 3 -39 22 -54 42 -15 19 -46 45 -68 56 -23 11 -61 37 -86 57 -25 20 -58
45 -73 55 -16 10 -36 31 -45 47 -10 16 -29 34 -44 40 -53 22 -28 39 58 39 30
0 71 -7 91 -15 19 -8 53 -15 75 -15 21 0 55 -7 75 -15 19 -8 65 -15 101 -15
l65 0 181 -59 c184 -60 240 -76 311 -90 22 -5 65 -24 96 -43 32 -19 117 -54
190 -78 77 -25 204 -78 299 -125 91 -45 177 -85 192 -89 15 -3 39 -22 54 -42
26 -34 89 -74 116 -74 16 0 140 -81 185 -121 19 -16 42 -29 52 -29 10 0 47
-21 81 -47 34 -27 83 -64 110 -83 63 -47 193 -186 185 -200 -4 -6 -81 -10
-214 -10 l-209 0 -61 -45 -61 -45 0 -90 c0 -118 22 -184 102 -303 72 -108 118
-160 173 -195 22 -14 67 -51 100 -83 33 -31 89 -72 124 -89 35 -18 80 -47 100
-65 35 -32 150 -95 172 -95 6 0 40 -13 76 -30 35 -16 75 -30 89 -30 14 0 41
-7 61 -15 49 -21 117 -19 161 4 20 11 63 44 95 73 l57 54 0 100 0 99 -29 50
c-40 72 -54 100 -97 194 -27 58 -51 93 -76 114 -21 17 -38 36 -38 44 0 7 -14
41 -31 75 -36 70 -29 83 36 73 52 -8 101 -13 260 -23 72 -4 140 -13 152 -20
15 -8 81 -12 213 -12 147 0 199 -3 227 -15 19 -8 54 -15 77 -15 29 0 54 -9 86
-30 61 -40 111 -41 151 -1 22 23 29 39 29 69 0 45 -19 66 -69 77 -22 5 -51 25
-81 56 -27 28 -63 54 -86 61 l-39 13 -42 65 c-49 75 -54 110 -18 145 32 33 63
31 142 -5 35 -16 69 -30 74 -30 6 0 40 -18 77 -41 37 -22 79 -43 95 -46 44 -9
106 -115 107 -181 0 -24 9 -42 30 -63 42 -43 78 -37 107 16 23 42 30 100 13
110 -5 3 -10 20 -10 36 0 47 -35 104 -87 142 -26 19 -59 47 -73 62 -35 38 -75
56 -248 114 l-153 51 -91 0 -91 0 -59 -58 -58 -59 0 -70 0 -69 30 -29 c17 -16
30 -36 30 -45 0 -10 14 -36 30 -59 17 -23 28 -46 25 -51 -10 -16 -211 -12
-252 5 -23 10 -69 15 -135 15 -65 0 -111 5 -135 15 -27 12 -80 15 -227 15
l-191 0 -45 23 c-26 13 -56 39 -72 63 -15 22 -46 53 -70 68 -24 15 -56 45 -71
66 -15 22 -51 52 -79 67 -32 17 -64 45 -83 73 -22 31 -43 49 -69 57 -21 7 -92
50 -159 94 -67 45 -136 86 -153 90 -17 5 -49 25 -72 45 -23 20 -58 40 -77 45
-21 6 -65 38 -110 79 -41 39 -82 70 -91 70 -8 0 -41 12 -71 26 -31 14 -90 36
-130 49 -41 14 -86 33 -101 44 -45 31 -110 61 -134 61 -29 0 -153 42 -207 69
-22 12 -46 21 -53 21 -7 0 -33 14 -58 30 -31 21 -57 30 -85 30 -23 0 -79 13
-125 30 -47 16 -103 30 -125 30 -23 0 -66 13 -103 30 -35 17 -75 30 -88 30
-14 0 -41 7 -61 15 -19 8 -53 15 -75 15 -21 0 -55 7 -75 15 -20 9 -66 15 -109
15 -40 0 -76 5 -79 10 -7 12 -333 13 -355 1z m2697 -1426 c23 -10 69 -15 131
-15 158 0 255 -45 327 -152 17 -23 46 -63 67 -88 38 -47 128 -222 128 -250 0
-9 13 -29 30 -45 80 -76 80 -191 0 -239 -47 -27 -94 -20 -168 24 -36 22 -82
45 -102 50 -66 18 -156 68 -211 117 -30 27 -73 61 -97 77 -63 43 -168 158
-198 219 -14 28 -37 67 -51 85 -69 92 -72 202 -4 202 16 0 44 7 62 15 43 18
42 18 86 0z"/>
</g>
</svg>
