<?xml version="1.0" standalone="no"?>
<!DOCTYPE svg PUBLIC "-//W3C//DTD SVG 20010904//EN"
 "http://www.w3.org/TR/2001/REC-SVG-20010904/DTD/svg10.dtd">
<svg version="1.0" xmlns="http://www.w3.org/2000/svg"
 width="684.000000pt" height="282.000000pt" viewBox="0 0 684.000000 282.000000"
 preserveAspectRatio="xMidYMid meet">
<metadata>
Created by potrace 1.16, written by Peter Selinger 2001-2019
</metadata>
<g transform="translate(0.000000,282.000000) scale(0.100000,-0.100000)"
fill="#000000" stroke="none">
<path d="M4955 2790 c-29 -57 -10 -130 35 -130 21 0 196 -87 241 -120 23 -16
49 -30 58 -30 9 0 30 -9 46 -21 17 -11 87 -49 156 -84 71 -36 151 -85 185
-114 32 -28 89 -67 126 -86 37 -20 91 -57 120 -83 29 -26 67 -56 83 -67 17
-10 57 -44 90 -75 33 -31 76 -67 96 -80 20 -13 47 -39 60 -59 13 -20 52 -66
86 -104 36 -38 79 -99 99 -140 20 -39 53 -91 73 -113 25 -28 44 -66 60 -120
14 -44 33 -96 43 -117 11 -21 30 -71 43 -110 l25 -72 0 -108 0 -108 -40 -67
c-23 -37 -46 -86 -52 -110 -6 -23 -22 -55 -37 -70 -24 -25 -140 -119 -165
-133 -42 -25 -158 -69 -182 -69 -16 0 -49 -14 -74 -30 -25 -16 -57 -30 -71
-30 -15 0 -43 -7 -62 -15 -24 -10 -70 -15 -135 -15 -68 0 -112 -5 -137 -16
l-38 -16 -41 16 c-52 20 -113 20 -159 1 -42 -17 -269 -21 -312 -5 -17 7 -39 6
-69 -2 l-44 -12 -44 17 -44 17 -232 0 c-184 0 -240 3 -269 15 -19 8 -53 15
-75 15 -21 0 -55 7 -75 15 -19 8 -61 15 -92 15 l-56 0 -45 30 c-25 16 -53 30
-62 30 -10 0 -22 9 -28 21 l-11 20 30 66 c24 50 31 79 31 126 l0 61 -26 27
c-14 15 -40 49 -57 75 -18 27 -41 50 -52 52 -34 7 -141 59 -186 91 -24 18 -55
31 -71 31 -16 0 -45 7 -65 15 -19 8 -49 15 -65 15 -88 0 -238 -140 -238 -223
0 -12 16 -47 35 -77 60 -95 77 -137 65 -160 l-11 -20 -55 0 c-30 0 -71 7 -91
15 -22 9 -67 15 -120 15 -52 0 -97 6 -120 15 -28 12 -84 15 -270 15 -185 0
-241 3 -270 15 -24 10 -71 15 -150 15 -78 0 -125 5 -150 15 -22 9 -67 15 -120
15 -52 0 -97 6 -120 15 -27 11 -77 15 -210 15 -132 0 -182 4 -210 15 -22 9
-67 15 -120 15 -52 0 -97 6 -120 15 -49 21 -174 20 -216 -1 -52 -27 -67 -45
-67 -81 0 -48 13 -67 73 -107 28 -19 77 -60 107 -90 30 -31 59 -56 65 -56 18
0 53 -42 60 -72 l7 -28 -29 0 c-17 0 -48 12 -69 28 -42 29 -108 62 -125 62 -6
0 -40 14 -76 30 -35 17 -70 30 -76 30 -7 0 -64 25 -127 56 -63 31 -155 69
-205 85 -49 16 -108 42 -131 59 -23 16 -100 49 -175 73 -74 24 -167 61 -206
81 -98 49 -103 48 -103 -19 0 -33 4 -55 11 -55 17 0 80 -31 114 -56 51 -37
226 -119 309 -145 55 -17 92 -35 121 -61 28 -25 53 -38 72 -38 33 0 192 -75
253 -119 25 -18 55 -31 73 -31 32 0 140 -50 227 -106 30 -19 66 -37 80 -41 14
-3 50 -17 80 -30 30 -14 91 -36 135 -51 44 -14 92 -33 107 -44 20 -13 44 -18
100 -18 l74 0 12 33 c7 18 12 53 12 76 l0 42 -52 60 c-29 32 -60 62 -70 65
-10 3 -61 44 -113 92 -52 48 -114 103 -137 123 l-42 37 13 16 13 16 320 0 319
0 36 -15 c26 -11 76 -15 195 -15 118 0 168 -4 195 -15 22 -9 67 -15 120 -15
52 0 97 -6 120 -15 24 -10 71 -15 150 -15 78 0 125 -5 150 -15 25 -11 72 -15
165 -15 92 0 139 -4 165 -15 26 -11 76 -15 196 -15 l160 0 124 -60 c88 -42
136 -60 164 -60 22 0 56 -7 76 -15 19 -8 53 -15 75 -15 21 0 55 -7 75 -15 19
-8 53 -15 75 -15 21 0 55 -7 75 -15 20 -8 66 -15 105 -15 38 0 84 -7 105 -15
25 -11 72 -15 165 -15 92 0 139 -4 165 -15 l35 -15 313 0 313 0 36 15 37 16
39 -12 c31 -9 49 -9 79 -1 21 7 67 12 102 12 43 0 87 9 134 26 39 14 90 29
115 34 110 22 239 61 310 94 30 14 62 26 69 26 22 0 147 86 171 118 11 15 43
56 70 91 28 35 50 71 50 80 0 21 55 137 69 145 14 9 15 358 2 384 -33 64 -71
163 -71 186 0 35 -33 99 -80 156 -21 25 -56 82 -79 127 -29 58 -55 94 -91 125
-27 24 -50 51 -50 62 0 30 -218 243 -265 258 -28 9 -48 25 -65 52 -15 24 -61
62 -121 102 -54 36 -117 83 -142 104 -25 22 -50 40 -57 40 -24 0 -86 34 -132
71 -48 40 -176 109 -201 109 -8 0 -25 8 -38 19 l-23 19 13 16 c18 21 128 22
178 1 23 -10 69 -15 135 -15 65 0 111 -5 135 -15 27 -12 81 -15 240 -15 158 0
212 -3 240 -15 98 -41 154 6 100 86 l-23 34 -74 6 c-41 3 -85 10 -97 17 -15 9
-104 12 -303 12 l-281 0 -36 15 c-22 9 -67 15 -120 15 -52 0 -97 6 -120 15
-23 10 -69 15 -135 15 -65 0 -111 5 -135 15 -19 8 -48 15 -64 15 -15 0 -31 5
-34 10 -3 6 -19 10 -35 10 -23 0 -33 -7 -45 -30z m-1244 -1956 c13 -14 42 -35
64 -46 76 -40 145 -99 145 -125 0 -53 -59 -113 -110 -113 -29 0 -161 63 -182
87 -8 10 -24 34 -33 53 -10 19 -31 50 -46 68 -35 40 -36 46 -4 77 l24 25 59 0
59 0 24 -26z"/>
</g>
</svg>
