<?xml version="1.0" standalone="no"?>
<!DOCTYPE svg PUBLIC "-//W3C//DTD SVG 20010904//EN"
 "http://www.w3.org/TR/2001/REC-SVG-20010904/DTD/svg10.dtd">
<svg version="1.0" xmlns="http://www.w3.org/2000/svg"
 width="231.000000pt" height="456.000000pt" viewBox="0 0 231.000000 456.000000"
 preserveAspectRatio="xMidYMid meet">
<metadata>
Created by potrace 1.16, written by Peter Selinger 2001-2019
</metadata>
<g transform="translate(0.000000,456.000000) scale(0.100000,-0.100000)"
fill="#000000" stroke="none">
<path d="M592 4507 c-26 -62 -27 -78 -6 -118 33 -65 148 -226 187 -264 28 -27
47 -56 57 -90 l15 -49 51 -35 c28 -19 62 -51 75 -70 13 -20 61 -76 106 -124
46 -48 83 -92 83 -98 0 -5 38 -50 85 -99 46 -49 91 -103 99 -119 9 -16 35 -42
58 -58 31 -21 47 -40 56 -68 7 -23 29 -55 51 -75 55 -50 125 -168 110 -186
-17 -21 -44 -17 -116 16 -35 17 -76 30 -91 30 -15 0 -47 14 -72 30 -25 16 -51
30 -58 30 -8 0 -43 14 -79 30 -37 17 -81 30 -104 30 -29 0 -58 11 -103 38 -35
21 -124 58 -197 82 -73 24 -168 61 -211 82 -43 21 -84 38 -91 38 -7 0 -32 14
-57 30 -25 16 -56 30 -69 30 -13 0 -79 18 -146 41 l-123 41 -51 -26 -51 -26 0
-31 0 -30 235 -239 c129 -131 235 -244 235 -250 0 -10 70 -90 186 -212 32 -35
54 -67 54 -80 0 -14 22 -43 60 -80 33 -31 60 -65 60 -74 0 -10 19 -36 43 -58
55 -52 98 -109 127 -166 13 -25 40 -65 60 -90 21 -25 54 -78 74 -118 21 -41
57 -98 81 -128 24 -29 51 -75 58 -102 16 -52 68 -161 98 -203 10 -15 38 -84
63 -155 44 -130 65 -184 117 -305 16 -36 29 -78 29 -93 0 -15 5 -37 12 -49 6
-12 14 -48 19 -82 7 -61 22 -125 41 -180 10 -29 29 -175 30 -225 0 -76 -22
-171 -60 -250 -23 -47 -43 -93 -46 -102 -4 -15 -89 -71 -189 -125 l-42 -23
-88 0 c-69 0 -97 -4 -128 -21 l-40 -20 3 -27 3 -27 145 -3 c83 -1 154 2 165 7
11 6 49 20 85 31 91 30 115 45 146 87 15 21 46 53 70 71 33 24 44 39 44 59 0
15 13 68 29 118 50 155 54 177 58 302 l4 122 -30 88 c-23 63 -31 105 -31 154
0 37 -7 83 -15 102 -8 20 -15 47 -15 61 0 14 -20 66 -45 117 -25 51 -45 104
-45 118 -1 44 -76 250 -114 311 -20 32 -36 64 -36 72 0 7 -14 33 -30 58 -16
25 -30 51 -30 58 0 35 -98 201 -173 294 -19 24 -52 77 -72 118 -21 41 -50 90
-66 107 -16 18 -44 57 -63 87 -19 29 -73 97 -121 151 -47 53 -97 114 -110 135
-13 21 -44 55 -68 75 -25 21 -55 56 -67 79 -12 22 -74 92 -136 153 -107 106
-133 143 -100 143 18 0 283 -86 316 -102 14 -7 43 -25 64 -40 21 -16 52 -28
68 -28 17 0 59 -13 95 -30 35 -16 69 -30 75 -30 5 0 39 -13 75 -30 35 -16 69
-30 75 -30 5 0 39 -13 75 -30 35 -16 69 -30 74 -30 25 0 100 -43 115 -65 l16
-25 -16 -22 c-9 -13 -28 -38 -42 -57 -13 -19 -27 -46 -29 -60 -3 -14 -10 -44
-16 -66 -20 -71 -22 -162 -5 -206 9 -22 16 -51 16 -66 0 -37 82 -156 124 -181
19 -12 46 -39 60 -61 14 -22 36 -45 48 -52 13 -6 42 -27 66 -47 61 -49 131
-96 180 -121 l41 -21 91 0 c107 0 150 17 196 77 15 21 39 46 51 56 l23 18 0
156 0 155 -25 30 c-14 16 -25 36 -25 44 0 28 -101 216 -145 270 -24 29 -51 76
-59 102 -24 81 -53 129 -98 159 -26 17 -47 41 -53 59 -13 41 -33 64 -56 64
-20 0 -45 32 -79 100 -12 25 -43 66 -69 92 -58 58 -117 127 -156 183 -99 140
-152 200 -208 238 -16 10 -31 33 -37 57 -7 26 -24 50 -49 70 -21 17 -48 50
-61 73 -12 23 -44 62 -69 87 -25 25 -59 66 -76 90 -16 25 -56 72 -89 105 -77
78 -106 123 -109 171 l-2 39 65 -3 c36 -2 85 -9 110 -17 100 -30 139 -37 225
-44 50 -4 100 -12 112 -19 12 -7 54 -12 93 -12 40 0 86 -6 107 -15 26 -11 76
-15 193 -15 88 0 171 -5 188 -11 l32 -11 32 19 c39 22 48 61 21 85 -10 9 -47
26 -83 38 l-65 22 -70 -6 c-50 -5 -85 -2 -120 9 -28 8 -93 18 -145 21 -52 4
-110 13 -129 20 -19 8 -69 14 -118 14 -52 0 -97 6 -120 15 -19 8 -53 15 -75
15 -21 0 -55 7 -75 15 -19 8 -53 15 -75 15 -21 0 -55 7 -75 15 -19 8 -48 15
-64 15 -15 0 -31 5 -34 10 -3 6 -41 10 -83 10 l-77 0 -23 -53z m1235 -1774
c18 -10 56 -45 84 -78 57 -67 149 -243 149 -285 0 -15 14 -58 31 -94 l31 -67
-4 -48 c-3 -28 -14 -62 -27 -80 l-22 -31 -58 0 -58 0 -24 26 c-13 14 -46 37
-74 51 -29 15 -89 65 -146 122 l-95 96 -22 66 c-39 118 -28 182 48 283 l42 56
57 0 c35 0 69 -7 88 -17z"/>
</g>
</svg>
