<?xml version="1.0" standalone="no"?>
<!DOCTYPE svg PUBLIC "-//W3C//DTD SVG 20010904//EN"
 "http://www.w3.org/TR/2001/REC-SVG-20010904/DTD/svg10.dtd">
<svg version="1.0" xmlns="http://www.w3.org/2000/svg"
 width="516.000000pt" height="126.000000pt" viewBox="0 0 516.000000 126.000000"
 preserveAspectRatio="xMidYMid meet">
<metadata>
Created by potrace 1.16, written by Peter Selinger 2001-2019
</metadata>
<g transform="translate(0.000000,126.000000) scale(0.100000,-0.100000)"
fill="#000000" stroke="none">
<path d="M3616 1229 c-39 -46 -35 -86 15 -145 22 -27 54 -75 70 -106 16 -32
43 -68 60 -80 16 -13 40 -39 51 -58 12 -19 36 -51 53 -70 18 -19 50 -60 71
-91 22 -30 54 -75 72 -99 l32 -43 0 -54 c0 -66 -19 -103 -69 -133 -152 -92
-237 -130 -287 -130 -12 0 -38 -7 -57 -15 -20 -8 -61 -15 -90 -15 -30 0 -71
-7 -90 -15 -29 -12 -87 -15 -285 -15 -199 0 -257 -3 -285 -15 -51 -21 -333
-21 -384 0 -26 11 -76 15 -195 15 -118 0 -168 4 -195 15 -26 11 -75 15 -192
15 -107 0 -170 4 -201 14 -60 19 -125 35 -182 46 -26 5 -56 13 -67 19 -11 6
-38 11 -61 11 -22 0 -57 7 -77 15 -19 8 -53 15 -75 15 -21 0 -55 7 -75 15 -19
8 -54 15 -77 15 -30 0 -74 16 -164 60 -68 33 -133 60 -144 60 -48 0 -162 46
-203 83 -24 20 -48 37 -55 37 -6 0 -41 13 -77 30 -35 16 -78 30 -95 30 -24 0
-41 10 -72 43 -23 24 -68 64 -101 89 -34 25 -67 53 -74 62 -9 11 -30 16 -62
16 l-49 0 0 -53 0 -52 75 -62 c41 -34 89 -70 107 -79 18 -9 54 -33 79 -54 25
-22 82 -55 125 -76 84 -38 98 -46 209 -105 84 -45 182 -79 227 -79 37 0 244
-68 307 -99 22 -12 59 -21 81 -21 22 0 57 -7 77 -15 19 -8 53 -15 75 -15 21 0
55 -7 75 -15 19 -8 53 -15 75 -15 21 0 55 -7 75 -15 19 -8 60 -15 90 -15 29 0
70 -7 90 -15 19 -8 60 -15 90 -15 29 0 70 -7 90 -15 25 -11 73 -15 169 -15 78
0 135 -4 139 -10 8 -14 1032 -14 1040 0 3 6 26 10 51 10 25 0 55 5 67 12 12 6
56 15 97 19 74 7 123 17 210 45 25 8 60 14 78 14 34 0 135 31 185 57 41 21
170 126 250 203 l67 66 0 41 c0 48 -27 87 -93 131 -30 20 -46 40 -57 71 -11
32 -27 53 -60 76 -26 18 -56 51 -71 78 -14 26 -39 62 -55 80 -73 78 -112 151
-93 173 14 17 183 20 225 4 15 -6 77 -13 138 -17 61 -3 126 -12 145 -19 20 -9
71 -14 130 -14 55 0 115 -6 141 -14 87 -28 136 -38 210 -45 41 -4 85 -13 97
-19 31 -17 138 -15 173 3 21 11 30 23 30 40 l0 25 -60 30 c-37 19 -75 30 -100
30 -22 0 -57 7 -77 15 -19 8 -53 15 -75 15 -21 0 -55 7 -75 15 -19 8 -53 15
-75 15 -21 0 -55 7 -75 15 -22 9 -67 15 -117 15 -44 0 -101 6 -126 14 -111 35
-145 40 -305 43 -93 2 -174 8 -179 13 -6 6 -65 10 -132 10 l-122 0 -26 -31z"/>
</g>
</svg>
