<?xml version="1.0" standalone="no"?>
<!DOCTYPE svg PUBLIC "-//W3C//DTD SVG 20010904//EN"
 "http://www.w3.org/TR/2001/REC-SVG-20010904/DTD/svg10.dtd">
<svg version="1.0" xmlns="http://www.w3.org/2000/svg"
 width="558.000000pt" height="126.000000pt" viewBox="0 0 558.000000 126.000000"
 preserveAspectRatio="xMidYMid meet">
<metadata>
Created by potrace 1.16, written by Peter Selinger 2001-2019
</metadata>
<g transform="translate(0.000000,126.000000) scale(0.100000,-0.100000)"
fill="#000000" stroke="none">
<path d="M0 1203 l0 -58 222 -217 c122 -120 229 -218 238 -218 8 0 44 -14 78
-30 35 -17 71 -30 79 -30 9 0 32 -17 52 -39 66 -71 149 -130 210 -151 33 -11
67 -20 74 -20 38 0 74 97 56 149 -22 62 12 135 75 165 l34 16 231 0 c183 0
239 -3 268 -15 20 -9 66 -15 107 -15 55 0 83 -6 126 -26 89 -41 330 -114 379
-114 28 0 101 -57 101 -79 0 -20 81 -121 161 -200 25 -26 72 -76 103 -113 32
-37 85 -86 117 -108 60 -41 159 -80 203 -80 14 0 28 -4 31 -10 3 -5 28 -10 54
-10 l47 0 26 27 c42 45 51 70 39 105 -6 17 -11 42 -11 55 0 35 -37 102 -85
154 -23 25 -54 64 -69 87 -29 47 -52 62 -94 62 -18 0 -37 10 -53 26 -13 14
-42 35 -64 46 -22 11 -61 38 -87 60 -26 21 -61 44 -78 49 -39 14 -38 30 5 68
l36 31 352 0 c276 0 362 -3 397 -14 77 -24 133 -37 190 -45 35 -4 70 -17 95
-34 28 -19 52 -27 83 -27 23 0 59 -7 79 -15 19 -8 55 -15 78 -15 l43 0 26 -35
c26 -33 110 -85 138 -85 31 0 122 -53 165 -95 27 -26 76 -68 110 -94 l62 -48
302 -2 c237 -2 309 -5 337 -16 48 -21 227 -20 275 0 21 9 67 15 107 15 44 0
82 6 100 15 l30 16 0 39 0 39 -30 16 -29 15 -356 0 -356 0 -36 15 c-24 10 -70
15 -138 15 l-103 0 -44 35 c-24 19 -68 48 -98 64 -30 16 -77 48 -104 70 -26
23 -56 41 -65 41 -9 0 -36 14 -61 30 -25 16 -52 30 -61 30 -8 0 -53 18 -99 40
-107 52 -190 80 -237 80 -21 0 -66 13 -101 30 -37 18 -80 30 -103 30 -22 0
-56 7 -76 15 -19 8 -53 15 -74 15 -21 0 -50 5 -66 12 -22 10 -203 23 -388 28
-11 0 -98 -4 -193 -10 l-173 -10 -60 -30 c-32 -17 -93 -53 -135 -81 l-76 -51
-72 22 c-39 12 -89 25 -111 29 -22 4 -56 12 -75 18 -68 21 -126 35 -180 42
-30 4 -71 12 -90 18 -82 26 -130 36 -215 42 -49 4 -100 13 -113 20 -29 16
-257 10 -322 -8 -136 -39 -176 -55 -231 -92 -33 -23 -67 -52 -75 -64 -34 -52
-49 -46 -256 92 -114 76 -167 117 -184 144 -13 21 -41 47 -63 58 -21 11 -65
43 -97 70 -32 28 -75 58 -94 67 -19 9 -43 21 -52 25 -10 5 -34 9 -53 9 l-35 0
0 -57z m2858 -957 c3 -13 -1 -17 -14 -14 -11 2 -20 11 -22 22 -3 13 1 17 14
14 11 -2 20 -11 22 -22z"/>
</g>
</svg>
