<?xml version="1.0" encoding="UTF-8" standalone="no"?>
<!-- Created with Inkscape (http://www.inkscape.org/) -->

<svg
   width="176.17427mm"
   height="103.28379mm"
   viewBox="0 0 176.17427 103.28379"
   version="1.1"
   id="svg1"
   xml:space="preserve"
   xmlns="http://www.w3.org/2000/svg"
   xmlns:svg="http://www.w3.org/2000/svg"><defs
     id="defs1" /><g
     id="layer1"
     transform="translate(-44.450006,-101.89673)"><path
       style="fill:#000000"
       d="m 209.24912,201.7432 c -1.23152,-1.89089 -3.72145,-5.78899 -5.53318,-8.66244 -1.81174,-2.87346 -5.66498,-8.88612 -8.56276,-13.36146 -6.64809,-10.26734 -9.63455,-15.0728 -11.55194,-18.58804 -1.76546,-3.2367 -2.74169,-4.63938 -3.74596,-5.38231 -1.35391,-1.00158 -7.62766,-1.24551 -34.86361,-1.35549 -27.6922,-0.11183 -44.37996,-0.45105 -55.5625,-1.12946 -5.894236,-0.35758 -11.627713,-0.45804 -26.259895,-0.46012 l -18.71927,-0.003 v -0.89751 c 0,-0.49363 0.133904,-1.34445 0.297564,-1.8907 l 0.297564,-0.99318 8.36754,-0.19957 c 10.316946,-0.24606 27.7901,0.003 36.849122,0.52515 10.901965,0.62843 29.065565,0.98002 54.729875,1.0594 23.07735,0.0714 32.52058,0.33623 34.57302,0.96965 1.14377,0.35298 2.78378,2.20229 3.88252,4.378 1.38775,2.74804 6.16515,10.51402 11.44707,18.60797 2.61149,4.00182 6.28232,9.73342 8.15739,12.73689 1.87506,3.00347 3.63193,5.74191 3.90413,6.08542 l 0.49492,0.62456 -0.19744,-1.05833 c -0.10859,-0.58208 -0.19847,-2.60615 -0.19974,-4.49792 -0.002,-2.844 0.10321,-3.78318 0.60701,-5.42396 1.09421,-3.56357 2.30921,-5.00684 4.90498,-5.82655 0.80796,-0.25514 1.33772,-0.25702 2.4474,-0.009 1.38757,0.31053 1.41624,0.33602 1.41624,1.25946 0,0.51838 -0.13941,1.40781 -0.30979,1.97649 -0.29553,0.98639 -0.34729,1.0244 -1.12448,0.82587 -2.37479,-0.60663 -4.97579,0.28261 -6.18996,2.11623 -0.60684,0.91644 -0.72214,1.40253 -0.79255,3.34139 -0.10542,2.90273 0.67858,6.06854 2.71105,10.9474 1.56155,3.74841 1.75873,4.96875 1.09847,6.79805 l -0.33367,0.92443 z m 10.2141,-72.92141 c -1.2243,-4.04773 -7.88911,-13.2932 -13.85296,-19.2169 -4.67887,-4.64738 -7.05443,-4.94216 -9.12782,-1.13265 -0.98536,1.81042 -1.45978,4.66655 -1.49542,9.00277 -0.0189,2.29416 -0.15693,3.90314 -0.38598,4.49792 -0.32201,0.83617 -0.35857,0.48162 -0.37674,-3.65349 -0.023,-5.2416 0.24277,-7.3658 1.32084,-10.55514 2.43011,-7.18923 5.07124,-7.67673 10.75952,-1.98599 5.81808,5.82059 12.21501,14.54859 13.73786,18.74399 0.67456,1.8584 0.76613,3.68216 0.25572,5.09324 l -0.32401,0.89574 z"
       id="path1" /></g></svg>
