<?xml version="1.0" standalone="no"?>
<!DOCTYPE svg PUBLIC "-//W3C//DTD SVG 20010904//EN"
 "http://www.w3.org/TR/2001/REC-SVG-20010904/DTD/svg10.dtd">
<svg version="1.0" xmlns="http://www.w3.org/2000/svg"
 width="453.000000pt" height="237.000000pt" viewBox="0 0 453.000000 237.000000"
 preserveAspectRatio="xMidYMid meet">
<metadata>
Created by potrace 1.16, written by Peter Selinger 2001-2019
</metadata>
<g transform="translate(0.000000,237.000000) scale(0.100000,-0.100000)"
fill="#000000" stroke="none">
<path d="M7 2363 c-16 -15 -5 -67 20 -99 14 -20 49 -47 77 -61 28 -14 65 -37
83 -50 17 -13 46 -28 65 -33 18 -5 55 -28 82 -50 26 -22 55 -40 63 -40 24 0
83 -31 163 -86 42 -28 98 -64 125 -78 28 -15 73 -42 102 -59 28 -18 66 -41 84
-52 19 -11 63 -38 100 -60 36 -22 90 -53 119 -70 29 -16 73 -44 99 -61 26 -18
70 -44 97 -58 27 -15 74 -43 104 -62 30 -19 69 -38 87 -43 17 -5 65 -32 107
-60 84 -56 148 -91 168 -91 8 0 52 -25 98 -56 47 -32 117 -73 155 -92 39 -19
90 -51 115 -72 48 -39 120 -80 143 -80 7 0 26 -13 42 -30 16 -16 37 -30 46
-30 10 0 37 -16 61 -35 24 -19 66 -46 93 -61 28 -14 70 -43 95 -63 25 -20 72
-54 105 -76 33 -22 80 -55 104 -75 25 -19 70 -49 100 -66 35 -19 67 -46 84
-72 20 -29 47 -52 86 -72 32 -16 82 -51 112 -78 30 -27 70 -57 89 -67 19 -10
53 -37 75 -61 24 -25 74 -60 123 -85 46 -23 89 -50 95 -60 9 -14 24 -19 59
-19 l46 0 26 31 c32 38 33 81 3 134 -17 30 -57 63 -167 137 -80 54 -151 98
-158 98 -7 0 -39 26 -70 58 -32 31 -70 65 -84 75 -17 11 -31 33 -38 57 -7 27
-26 53 -64 87 l-54 48 -3 40 c-4 51 5 65 39 65 30 0 121 -29 190 -61 40 -18
115 -43 212 -69 79 -21 137 -23 180 -6 22 9 55 16 72 16 25 0 43 12 90 58 l58
59 0 35 c0 20 -7 52 -15 71 -8 20 -15 55 -15 77 0 71 -70 183 -183 296 -40 39
-92 81 -117 94 -25 12 -65 39 -90 60 -46 38 -178 110 -202 110 -7 0 -33 14
-58 30 -25 16 -51 30 -58 30 -8 0 -43 14 -79 30 -35 17 -75 30 -88 30 -14 0
-43 7 -66 17 l-41 16 -47 -16 c-25 -10 -58 -17 -72 -17 -33 0 -48 -17 -70 -83
-33 -95 -23 -151 48 -258 24 -36 23 -63 -2 -73 -26 -10 -114 30 -148 67 -17
20 -56 48 -85 63 -29 15 -61 38 -70 51 -9 14 -38 49 -64 78 -26 30 -54 65 -62
78 -16 24 -53 126 -67 186 l-8 35 35 38 c46 51 48 106 5 149 -36 35 -58 36
-119 5 -97 -49 -142 -126 -142 -241 0 -88 8 -107 104 -249 73 -109 184 -228
239 -257 21 -11 55 -35 75 -53 20 -18 55 -43 77 -55 77 -41 149 -96 168 -128
21 -36 39 -143 27 -157 -4 -4 -41 12 -82 36 -40 24 -89 51 -108 58 -19 8 -58
33 -86 57 -52 42 -182 113 -206 113 -8 0 -54 27 -103 60 -50 33 -97 60 -105
60 -9 0 -54 25 -100 57 -47 31 -139 83 -204 116 -66 33 -136 75 -155 92 -39
35 -92 65 -113 65 -8 0 -51 25 -96 55 -92 61 -144 89 -184 99 -14 3 -41 24
-58 46 -17 22 -39 40 -47 40 -22 0 -199 86 -237 115 -17 13 -77 47 -134 75
-57 28 -140 77 -184 107 -45 31 -96 60 -114 65 -18 5 -58 31 -88 59 -31 28
-72 55 -93 61 -21 6 -50 19 -65 29 -18 14 -43 19 -85 19 -33 0 -63 -3 -66 -7z
m3027 -870 c28 -9 82 -32 121 -51 38 -19 82 -38 96 -42 15 -5 79 -42 142 -85
151 -99 271 -223 312 -320 33 -76 29 -92 -26 -112 -40 -15 -148 -8 -198 13
-18 8 -45 14 -60 14 -14 0 -46 14 -71 30 -25 17 -58 30 -75 30 -39 0 -159 62
-163 84 -2 9 3 16 11 16 17 0 50 35 71 78 l17 32 -12 43 c-18 62 -35 77 -86
77 l-45 0 -58 51 c-48 42 -90 104 -90 133 0 14 35 36 48 31 9 -3 39 -13 66
-22z"/>
<path d="M3597 1979 c-62 -43 -97 -98 -97 -149 0 -35 30 -99 56 -121 9 -8 32
-38 51 -66 24 -38 47 -60 83 -78 27 -14 61 -41 76 -61 15 -19 46 -45 68 -56
23 -12 55 -31 71 -43 109 -82 215 -85 215 -6 0 33 -74 106 -180 177 -87 57
-130 100 -205 200 -6 8 -6 23 1 41 l9 28 72 3 c48 2 84 -2 109 -13 20 -8 48
-15 62 -15 29 0 260 -110 309 -147 45 -35 73 -83 73 -127 0 -90 54 -101 133
-28 l27 26 0 47 c0 26 -4 51 -10 54 -5 3 -10 15 -10 27 0 12 -33 53 -83 104
l-83 83 -79 25 c-93 30 -116 41 -169 78 -21 16 -52 28 -68 28 -16 0 -45 7 -65
15 -26 11 -73 15 -173 15 l-137 0 -56 -41z"/>
</g>
</svg>
