<?xml version="1.0" standalone="no"?>
<!DOCTYPE svg PUBLIC "-//W3C//DTD SVG 20010904//EN"
 "http://www.w3.org/TR/2001/REC-SVG-20010904/DTD/svg10.dtd">
<svg version="1.0" xmlns="http://www.w3.org/2000/svg"
 width="690.000000pt" height="261.000000pt" viewBox="0 0 690.000000 261.000000"
 preserveAspectRatio="xMidYMid meet">
<metadata>
Created by potrace 1.16, written by Peter Selinger 2001-2019
</metadata>
<g transform="translate(0.000000,261.000000) scale(0.100000,-0.100000)"
fill="#000000" stroke="none">
<path d="M6065 2600 c-3 -5 -20 -10 -38 -10 -34 0 -160 -78 -177 -110 -5 -10
-10 -46 -10 -80 0 -69 21 -118 80 -190 21 -25 50 -69 64 -97 17 -35 40 -61 65
-78 22 -13 54 -37 73 -53 75 -66 134 -78 167 -36 34 43 27 69 -36 133 -32 32
-68 76 -81 97 -117 195 -121 209 -74 242 15 10 35 22 46 26 20 7 193 -47 281
-88 28 -13 62 -26 77 -30 15 -3 38 -20 50 -37 13 -17 53 -53 89 -80 62 -46 99
-95 99 -131 0 -43 75 -62 130 -33 l30 16 0 65 0 66 -104 99 c-158 151 -238
200 -432 263 -60 20 -117 41 -126 46 -23 13 -165 13 -173 0z"/>
<path d="M5971 1393 c-27 -33 -37 -72 -24 -92 6 -9 30 -19 54 -23 47 -6 67
-16 139 -63 99 -65 149 -107 161 -137 l12 -30 -24 -19 c-13 -10 -37 -21 -54
-25 -37 -8 -60 -27 -75 -64 l-12 -28 18 -33 c20 -39 122 -143 176 -179 47 -31
68 -68 68 -120 l0 -41 -30 -27 c-17 -15 -50 -45 -73 -68 -29 -28 -62 -47 -109
-62 -37 -12 -87 -31 -110 -41 -24 -11 -90 -36 -148 -55 l-105 -36 -81 0 c-50
0 -96 -6 -117 -15 -20 -8 -54 -15 -75 -15 -22 0 -56 -7 -75 -15 -27 -11 -77
-15 -195 -15 -119 0 -169 -4 -195 -15 l-36 -15 -336 0 -336 0 -36 15 c-22 9
-67 15 -120 15 -52 0 -97 6 -120 15 -23 10 -69 15 -135 15 -65 0 -111 5 -135
15 -22 9 -67 15 -117 15 -44 0 -101 6 -126 14 -78 25 -133 37 -195 45 -34 5
-70 13 -82 19 -12 7 -39 12 -60 12 -22 0 -77 13 -123 30 -47 16 -101 30 -120
30 -39 0 -126 27 -208 66 -29 13 -63 24 -75 24 -13 0 -61 13 -107 30 -47 16
-96 30 -110 30 -14 0 -45 14 -70 30 -25 16 -58 30 -73 30 -16 0 -58 14 -94 30
-35 17 -69 30 -75 30 -17 0 -138 59 -171 84 -50 38 -114 66 -147 66 -29 0
-153 -57 -215 -99 -16 -12 -40 -21 -52 -21 -28 0 -223 -64 -278 -92 -22 -11
-60 -23 -85 -28 -57 -11 -122 -28 -180 -46 -25 -8 -62 -14 -82 -14 -20 0 -66
-14 -101 -30 -36 -17 -76 -30 -89 -30 -12 0 -61 -14 -108 -30 -46 -17 -101
-30 -121 -30 -20 0 -53 -7 -72 -15 -20 -8 -54 -15 -76 -15 -23 0 -66 -12 -103
-30 -47 -22 -77 -30 -120 -30 -42 0 -73 -8 -121 -30 -36 -16 -70 -30 -76 -30
-6 0 -11 -11 -11 -25 l0 -25 60 -30 c74 -37 94 -37 200 0 61 22 102 30 151 30
37 0 83 7 102 15 20 8 53 15 74 15 21 0 76 14 123 30 46 17 101 30 121 30 21
0 67 13 102 30 38 17 82 30 105 30 22 0 56 7 75 15 20 8 52 15 72 15 37 0 225
59 290 92 22 11 67 24 100 28 63 9 105 19 217 52 81 24 135 20 260 -23 47 -16
96 -29 108 -29 12 0 51 -14 87 -30 35 -17 69 -30 75 -30 5 0 39 -14 75 -30 35
-17 75 -30 89 -30 14 0 41 -7 61 -15 19 -8 45 -15 57 -15 12 0 60 -13 106 -30
47 -16 94 -30 105 -30 10 0 60 -13 110 -29 120 -39 168 -51 240 -61 33 -5 92
-20 130 -34 39 -14 87 -26 108 -26 21 0 54 -7 74 -15 19 -8 53 -15 75 -15 21
0 55 -7 75 -15 19 -8 53 -15 75 -15 21 0 55 -7 75 -15 25 -11 72 -15 165 -15
92 0 139 -4 165 -15 25 -10 71 -15 154 -15 68 0 120 -4 124 -10 8 -14 642 -14
650 0 4 6 66 10 154 10 109 0 158 4 184 15 27 11 77 15 195 15 119 0 169 4
195 15 20 8 61 15 91 15 38 0 72 8 108 24 68 32 167 66 190 66 24 0 124 34
192 65 30 14 60 25 67 25 7 0 34 21 60 48 26 26 65 62 86 79 31 25 45 47 62
98 25 78 26 101 6 148 -8 20 -15 51 -15 69 l0 32 -75 74 c-41 41 -75 78 -75
82 0 5 16 28 35 52 19 24 40 53 46 65 l12 22 -22 68 -22 67 -62 61 c-34 34
-82 73 -107 85 -25 13 -58 33 -75 46 -45 34 -146 64 -214 64 l-60 0 -20 -27z"/>
</g>
</svg>
