<?xml version="1.0" standalone="no"?>
<!DOCTYPE svg PUBLIC "-//W3C//DTD SVG 20010904//EN"
 "http://www.w3.org/TR/2001/REC-SVG-20010904/DTD/svg10.dtd">
<svg version="1.0" xmlns="http://www.w3.org/2000/svg"
 width="474.000000pt" height="366.000000pt" viewBox="0 0 474.000000 366.000000"
 preserveAspectRatio="xMidYMid meet">
<metadata>
Created by potrace 1.16, written by Peter Selinger 2001-2019
</metadata>
<g transform="translate(0.000000,366.000000) scale(0.100000,-0.100000)"
fill="#000000" stroke="none">
<path d="M300 3650 c-8 -4 -35 -16 -60 -26 -97 -40 -129 -64 -175 -133 -30
-44 -45 -78 -45 -98 0 -18 -4 -35 -10 -38 -17 -10 -12 -160 5 -175 8 -7 20
-31 27 -54 6 -22 25 -57 43 -76 17 -19 50 -60 72 -91 29 -39 50 -58 70 -62 16
-3 57 -31 91 -61 35 -31 70 -56 78 -56 9 0 45 -13 81 -30 l64 -30 88 0 c56 0
102 6 124 15 20 8 54 15 75 15 22 0 56 7 75 15 57 24 108 19 153 -14 52 -38
404 -396 404 -411 0 -6 35 -48 78 -93 43 -45 90 -101 105 -124 14 -23 47 -58
72 -79 25 -21 45 -47 45 -58 0 -11 30 -49 69 -87 53 -53 71 -77 80 -113 8 -33
21 -53 49 -76 21 -17 49 -50 62 -73 39 -69 117 -181 164 -237 25 -29 48 -67
52 -84 3 -17 21 -48 40 -68 43 -48 58 -79 99 -197 33 -98 56 -155 106 -272
l29 -66 0 -139 0 -140 -21 -59 c-25 -73 -47 -104 -105 -151 -58 -47 -188 -94
-264 -94 -60 0 -80 -11 -80 -46 0 -25 43 -64 71 -64 10 0 21 -4 24 -10 8 -13
72 -13 80 0 3 5 17 10 31 10 29 0 132 34 184 60 21 10 50 35 66 56 16 20 50
57 75 83 25 25 59 64 75 85 l29 39 8 96 c16 185 3 331 -36 411 -15 30 -27 61
-27 68 0 7 -10 32 -21 55 -12 23 -35 82 -51 130 -34 107 -50 139 -99 197 -20
25 -54 79 -74 120 -21 41 -59 99 -86 128 -28 31 -53 70 -59 92 -7 26 -24 50
-49 70 -21 17 -50 52 -64 78 -14 26 -54 72 -87 102 -34 30 -74 75 -88 100 -14
25 -44 65 -67 90 -23 25 -50 59 -61 75 -55 86 -238 288 -297 328 -15 10 -31
34 -36 54 -8 28 -41 67 -131 156 -138 135 -143 148 -70 184 69 35 180 32 290
-7 47 -16 94 -30 105 -30 10 0 60 -13 110 -29 100 -32 158 -48 225 -61 53 -10
134 -48 192 -90 23 -17 54 -30 70 -30 28 0 99 -37 219 -114 30 -20 61 -36 68
-36 29 0 102 -43 159 -94 35 -31 67 -56 73 -56 16 0 304 -286 335 -333 16 -23
50 -66 76 -95 27 -30 51 -66 55 -80 3 -15 26 -67 50 -116 l43 -90 0 -61 c0
-76 17 -101 89 -134 l51 -24 55 19 56 18 48 -17 49 -17 275 0 c167 0 286 -4
303 -10 15 -6 101 -14 191 -17 l163 -6 55 19 55 18 0 53 0 53 -265 0 -266 0
-36 15 c-26 11 -76 15 -195 15 -118 0 -168 4 -195 15 -22 9 -68 15 -123 15
l-88 0 -36 49 c-20 28 -48 86 -63 131 l-26 81 -68 63 c-38 35 -69 70 -69 78 0
39 -263 331 -344 383 -22 14 -54 44 -69 66 -16 22 -50 50 -76 64 -27 13 -72
46 -102 73 -53 48 -125 92 -152 92 -7 0 -26 14 -42 30 -16 17 -36 30 -45 30
-8 0 -32 11 -52 25 -21 14 -74 37 -119 51 -45 15 -112 42 -150 60 -76 37 -179
74 -206 74 -9 0 -58 13 -108 29 -122 39 -170 51 -240 60 -34 5 -70 13 -82 19
-12 7 -36 12 -53 12 -49 0 -80 38 -80 98 0 38 -6 58 -29 89 -16 22 -39 60 -52
84 -12 24 -50 72 -83 106 l-62 62 -161 80 c-96 49 -173 81 -191 81 -17 0 -34
5 -37 10 -8 12 -453 13 -475 0z m609 -200 l103 -50 67 -68 67 -67 21 -63 c12
-35 19 -70 16 -78 -9 -24 -54 -29 -87 -9 -183 110 -246 126 -297 76 -44 -44
-41 -94 11 -159 22 -27 40 -57 40 -65 0 -22 -39 -47 -71 -47 -15 0 -43 -7 -62
-15 -49 -20 -91 -19 -162 5 -84 29 -104 39 -155 80 -25 19 -61 46 -82 60 -20
13 -57 56 -82 95 l-46 70 0 69 0 69 33 36 c18 20 39 45 47 57 8 11 26 28 40
37 l24 17 236 0 235 0 104 -50z"/>
</g>
</svg>
