<?xml version="1.0" standalone="no"?>
<!DOCTYPE svg PUBLIC "-//W3C//DTD SVG 20010904//EN"
 "http://www.w3.org/TR/2001/REC-SVG-20010904/DTD/svg10.dtd">
<svg version="1.0" xmlns="http://www.w3.org/2000/svg"
 width="363.000000pt" height="195.000000pt" viewBox="0 0 363.000000 195.000000"
 preserveAspectRatio="xMidYMid meet">
<metadata>
Created by potrace 1.16, written by Peter Selinger 2001-2019
</metadata>
<g transform="translate(0.000000,195.000000) scale(0.100000,-0.100000)"
fill="#000000" stroke="none">
<path d="M2910 1940 c-8 -4 -30 -14 -48 -21 -18 -6 -44 -20 -57 -31 l-25 -19
0 -65 c0 -46 6 -77 21 -107 50 -98 128 -193 194 -235 22 -14 67 -51 100 -83
45 -43 75 -62 122 -78 34 -12 69 -21 76 -21 20 0 47 33 47 59 0 28 -69 103
-137 148 -112 74 -207 208 -184 259 17 38 51 49 96 30 20 -9 49 -16 64 -16 33
-1 77 -23 169 -84 90 -60 122 -104 122 -167 0 -32 6 -51 18 -62 23 -21 33 -21
93 0 l49 18 0 87 c0 48 -5 90 -10 93 -6 4 -21 28 -35 55 l-24 48 -105 71
c-139 93 -176 111 -230 111 -25 0 -48 5 -51 10 -8 12 -244 12 -265 0z"/>
<path d="M375 1880 c-11 -5 -60 -9 -108 -9 -69 -1 -97 -6 -130 -22 -64 -33
-137 -99 -137 -124 0 -37 39 -105 59 -105 11 0 72 18 138 40 l118 40 123 0
c87 0 133 -4 159 -15 23 -10 69 -15 137 -15 l101 0 63 -30 c37 -18 80 -30 103
-30 22 0 56 -7 76 -15 19 -8 47 -15 60 -15 14 0 51 -16 82 -35 60 -37 181 -84
216 -85 22 0 123 -33 165 -53 14 -6 43 -24 64 -39 21 -16 46 -28 54 -28 19 0
201 -90 272 -136 30 -19 71 -39 90 -44 57 -15 129 -53 225 -119 49 -33 97 -61
106 -61 8 0 26 -12 40 -26 13 -14 44 -36 69 -49 25 -12 86 -59 135 -104 50
-45 110 -92 135 -106 55 -28 83 -54 115 -105 14 -22 34 -44 46 -51 44 -23 210
-201 222 -237 9 -26 27 -46 64 -72 29 -19 64 -53 77 -75 14 -22 55 -66 90 -98
l65 -57 56 0 56 0 24 27 c17 20 24 40 25 70 l0 43 -117 123 c-65 69 -134 142
-153 163 -20 21 -51 52 -69 69 -33 29 -101 154 -101 185 0 8 -11 32 -25 52
-14 20 -25 44 -25 52 0 28 42 46 106 46 97 0 122 47 62 115 -74 85 -199 110
-297 60 -27 -13 -69 -47 -93 -75 l-45 -51 -28 7 c-16 4 -49 28 -74 54 -43 44
-115 90 -142 90 -6 0 -44 15 -84 34 -48 23 -82 46 -100 71 -16 20 -47 46 -69
57 -23 12 -54 31 -71 44 -16 12 -79 48 -140 79 -60 31 -134 71 -163 90 -29 18
-91 45 -138 60 -47 15 -121 45 -165 66 -44 22 -84 39 -90 39 -6 0 -36 12 -66
26 -31 14 -91 36 -132 50 -42 13 -95 33 -119 44 -41 19 -116 44 -212 70 -25 6
-79 15 -120 19 -41 4 -85 13 -97 19 -12 7 -39 12 -60 12 -21 0 -72 12 -113 27
-46 16 -109 29 -165 34 -49 4 -99 9 -110 12 -11 4 -29 2 -40 -3z"/>
</g>
</svg>
