<?xml version="1.0" standalone="no"?>
<!DOCTYPE svg PUBLIC "-//W3C//DTD SVG 20010904//EN"
 "http://www.w3.org/TR/2001/REC-SVG-20010904/DTD/svg10.dtd">
<svg version="1.0" xmlns="http://www.w3.org/2000/svg"
 width="408.000000pt" height="414.000000pt" viewBox="0 0 408.000000 414.000000"
 preserveAspectRatio="xMidYMid meet">
<metadata>
Created by potrace 1.16, written by Peter Selinger 2001-2019
</metadata>
<g transform="translate(0.000000,414.000000) scale(0.100000,-0.100000)"
fill="#000000" stroke="none">
<path d="M13 4113 c-15 -32 -17 -109 -3 -118 5 -3 10 -16 10 -28 0 -13 23 -43
60 -79 43 -41 60 -64 60 -83 0 -32 31 -93 60 -120 12 -11 34 -40 48 -65 14
-25 64 -101 110 -170 46 -69 91 -138 99 -154 8 -16 46 -65 85 -110 39 -44 83
-107 99 -138 16 -32 43 -68 60 -80 17 -13 43 -43 57 -68 14 -25 48 -69 75 -99
26 -30 61 -79 76 -110 17 -32 52 -78 84 -106 36 -33 67 -75 90 -122 27 -53 47
-79 79 -100 31 -20 47 -40 56 -68 7 -23 31 -57 56 -80 24 -22 57 -68 74 -102
20 -39 46 -71 71 -89 21 -16 49 -44 62 -64 13 -19 48 -62 79 -95 31 -33 68
-79 83 -101 14 -23 40 -52 57 -65 18 -13 45 -37 61 -54 83 -86 180 -195 205
-231 16 -22 44 -60 62 -84 17 -24 32 -49 32 -57 0 -29 91 -190 140 -247 28
-32 58 -73 66 -90 22 -43 350 -363 399 -388 22 -11 60 -37 84 -56 69 -56 154
-112 171 -112 8 0 29 -9 45 -21 17 -11 65 -38 107 -60 l78 -39 63 0 c67 0 87
10 87 46 0 24 -43 64 -69 64 -9 0 -45 14 -79 30 -35 17 -69 30 -76 30 -7 0
-23 12 -37 26 -13 14 -82 64 -152 111 -124 84 -267 217 -267 250 0 10 22 13
88 13 l89 0 15 18 c33 37 48 82 48 142 0 70 -18 112 -86 199 -24 31 -53 68
-64 83 -24 32 -116 96 -197 137 -109 54 -173 71 -278 71 l-96 0 -59 58 c-175
170 -240 240 -240 254 0 7 -36 51 -81 97 -44 47 -89 102 -100 123 -11 21 -37
49 -58 62 -23 15 -59 55 -87 98 -64 96 -159 218 -271 348 -18 21 -33 45 -33
54 0 9 -21 39 -48 68 -26 29 -69 87 -97 128 -27 41 -66 95 -86 120 -20 25 -51
72 -68 105 -17 33 -54 86 -82 119 -27 32 -57 73 -66 90 -9 17 -33 51 -53 76
-21 25 -48 65 -60 90 -12 25 -32 59 -45 75 -12 17 -32 50 -45 75 -13 25 -31
51 -41 58 -11 7 -26 27 -35 44 l-16 30 16 16 15 15 27 -18 c15 -10 56 -44 90
-76 35 -33 72 -59 82 -59 10 0 29 -12 43 -26 13 -14 56 -47 94 -72 39 -25 107
-81 152 -124 45 -43 86 -78 91 -78 10 0 176 -147 237 -210 228 -233 377 -380
407 -400 20 -14 49 -44 65 -68 15 -24 48 -57 73 -74 25 -16 61 -53 81 -81 22
-34 46 -56 66 -62 37 -12 113 -83 113 -106 0 -24 33 -49 66 -49 34 0 54 -16
54 -42 0 -24 56 -86 99 -108 20 -10 80 -61 135 -114 l99 -96 62 0 c34 0 79 7
98 15 46 19 128 19 174 0 22 -9 67 -15 120 -15 52 0 97 -6 120 -15 l35 -15
400 0 400 0 49 17 49 18 0 24 c0 14 -12 38 -27 53 l-27 28 -478 0 -479 0 -36
15 c-24 10 -71 15 -150 15 l-115 0 -65 30 c-35 16 -79 41 -96 54 -18 13 -56
36 -85 51 -29 15 -65 43 -79 62 -15 19 -48 45 -74 59 -26 13 -56 36 -66 51
-10 14 -38 46 -63 69 -25 24 -64 62 -87 85 -23 22 -63 57 -90 77 -26 20 -104
94 -173 165 -95 96 -134 130 -162 137 -22 6 -45 22 -55 37 -10 15 -38 46 -63
70 -25 24 -58 56 -75 72 -16 16 -41 43 -54 61 -13 17 -41 42 -62 56 -22 13
-50 42 -64 64 -14 22 -39 47 -56 56 -17 8 -78 60 -134 115 -57 54 -108 99
-113 99 -6 0 -43 30 -83 68 -41 37 -94 81 -119 97 -24 17 -68 54 -97 83 -29
28 -60 52 -70 52 -10 0 -40 25 -66 55 -27 30 -60 58 -75 62 -26 6 -69 39 -171
128 -25 23 -66 54 -90 70 -24 16 -53 44 -65 62 l-21 33 -85 0 -85 0 -12 -27z
m2433 -2868 c18 -14 37 -25 42 -25 18 0 142 -138 142 -159 0 -27 -17 -27 -44
0 -35 34 -143 119 -152 119 -17 0 -54 45 -54 67 0 31 24 30 66 -2z"/>
<path d="M1357 893 c-17 -17 -3 -52 36 -90 50 -50 156 -123 177 -123 8 0 29
-9 45 -21 45 -31 236 -125 269 -133 53 -13 86 -44 86 -80 0 -44 26 -66 79 -66
53 0 102 -21 161 -70 48 -40 120 -80 143 -80 7 0 24 -12 38 -26 13 -14 53 -45
89 -69 36 -24 82 -64 103 -89 l38 -46 59 0 c70 0 73 6 35 79 -29 57 -171 192
-215 204 -16 4 -53 29 -82 56 -29 26 -75 60 -103 75 -56 30 -132 76 -216 130
-30 20 -62 36 -70 36 -8 0 -55 27 -104 60 -50 33 -97 60 -105 60 -21 0 -135
55 -173 84 -88 66 -266 133 -290 109z"/>
</g>
</svg>
