<?xml version="1.0" standalone="no"?>
<!DOCTYPE svg PUBLIC "-//W3C//DTD SVG 20010904//EN"
 "http://www.w3.org/TR/2001/REC-SVG-20010904/DTD/svg10.dtd">
<svg version="1.0" xmlns="http://www.w3.org/2000/svg"
 width="555.000000pt" height="270.000000pt" viewBox="0 0 555.000000 270.000000"
 preserveAspectRatio="xMidYMid meet">
<metadata>
Created by potrace 1.16, written by Peter Selinger 2001-2019
</metadata>
<g transform="translate(0.000000,270.000000) scale(0.100000,-0.100000)"
fill="#000000" stroke="none">
<path d="M0 2677 c0 -32 49 -77 83 -77 15 0 44 -7 64 -15 l35 -15 295 0 294 0
36 -15 c24 -10 71 -15 150 -15 78 0 125 -5 150 -15 23 -10 69 -15 132 -15 55
0 115 -6 141 -14 59 -19 125 -36 176 -45 22 -4 54 -17 70 -28 16 -11 57 -35
92 -53 34 -17 82 -48 106 -68 41 -36 136 -112 202 -162 18 -14 46 -46 64 -72
19 -30 47 -56 72 -69 23 -12 69 -51 102 -87 34 -35 78 -76 99 -89 21 -13 47
-40 59 -59 11 -19 42 -49 68 -67 27 -17 103 -85 169 -149 66 -65 125 -118 131
-118 19 0 278 -261 316 -317 19 -29 49 -60 66 -69 17 -9 96 -80 177 -158 80
-77 163 -154 185 -171 21 -16 49 -46 61 -66 14 -21 47 -49 80 -68 31 -17 58
-39 61 -49 11 -36 23 -48 75 -77 32 -18 65 -47 82 -72 15 -23 42 -52 59 -65
17 -13 54 -45 83 -73 29 -27 74 -69 99 -92 28 -26 49 -54 53 -73 3 -17 15 -37
27 -45 27 -19 94 -19 139 0 53 22 511 22 564 0 26 -11 75 -15 184 -15 88 0
150 -4 154 -10 4 -6 65 -10 151 -10 l144 0 0 65 0 64 -30 16 c-23 12 -67 15
-205 15 -133 0 -184 4 -212 15 l-35 15 -340 0 -339 0 -43 20 c-24 11 -68 41
-97 68 -30 26 -70 58 -89 71 -20 13 -48 41 -64 62 -15 22 -49 50 -76 64 -27
14 -57 37 -67 51 -39 57 -87 105 -110 110 -13 4 -63 45 -111 93 -48 48 -123
114 -167 148 -44 33 -100 84 -125 112 -25 29 -58 59 -74 67 -44 24 -192 171
-231 230 -20 30 -46 59 -58 65 -12 7 -47 36 -77 65 -159 153 -259 244 -269
244 -19 0 -249 230 -286 286 -20 30 -50 61 -67 70 -40 21 -199 174 -254 245
-30 39 -52 58 -73 62 -17 4 -37 18 -48 34 -10 15 -46 55 -80 90 -34 34 -71 80
-82 102 -33 63 -51 71 -169 71 -69 0 -115 5 -139 15 -26 11 -76 15 -195 15
-122 0 -167 4 -196 16 l-37 15 -247 -2 c-184 -2 -251 0 -260 9 -9 9 -89 12
-305 12 l-293 0 0 -23z"/>
</g>
</svg>
