<?xml version="1.0" standalone="no"?>
<!DOCTYPE svg PUBLIC "-//W3C//DTD SVG 20010904//EN"
 "http://www.w3.org/TR/2001/REC-SVG-20010904/DTD/svg10.dtd">
<svg version="1.0" xmlns="http://www.w3.org/2000/svg"
 width="417.000000pt" height="183.000000pt" viewBox="0 0 417.000000 183.000000"
 preserveAspectRatio="xMidYMid meet">
<metadata>
Created by potrace 1.16, written by Peter Selinger 2001-2019
</metadata>
<g transform="translate(0.000000,183.000000) scale(0.100000,-0.100000)"
fill="#000000" stroke="none">
<path d="M1088 1797 c-36 -32 -78 -102 -78 -132 0 -35 51 -116 89 -140 22 -13
55 -38 74 -54 45 -40 197 -115 304 -150 49 -15 107 -38 130 -50 23 -11 61 -21
83 -21 22 0 57 -7 77 -15 19 -8 65 -15 102 -15 62 0 145 -21 211 -53 59 -29
142 -90 149 -110 33 -85 49 -112 83 -139 45 -35 59 -60 84 -147 l17 -64 -22
-19 -23 -18 -339 0 -340 0 -36 15 c-24 10 -71 15 -150 15 -78 0 -125 5 -150
15 -19 8 -53 15 -75 15 -56 0 -132 38 -293 146 -78 52 -147 94 -155 94 -8 0
-44 14 -78 30 -35 17 -69 30 -75 30 -7 0 -41 14 -75 30 -37 18 -80 30 -103 30
-22 0 -56 7 -76 15 -54 23 -308 21 -375 -2 l-49 -18 3 -85 3 -85 33 -11 c18
-5 51 -29 75 -51 40 -39 137 -83 184 -83 9 0 58 -13 108 -29 103 -33 160 -49
227 -61 26 -5 56 -13 67 -19 11 -6 52 -11 91 -11 40 0 86 -6 107 -15 20 -8 66
-15 105 -15 84 0 115 -15 154 -77 15 -25 41 -55 57 -67 52 -41 86 -191 57
-246 -15 -28 -146 -111 -201 -127 -51 -15 -89 -51 -89 -84 l0 -19 100 0 c55 0
108 4 118 9 9 4 42 20 73 34 l57 26 46 68 c36 54 46 78 46 110 0 23 5 54 10
68 12 31 -2 85 -44 176 -15 31 -24 64 -20 73 9 23 48 30 86 16 18 -7 88 -14
156 -16 78 -3 136 -9 158 -19 24 -10 70 -15 133 -15 103 0 196 -23 212 -53 5
-8 4 -28 -2 -45 l-10 -30 31 -64 c40 -78 71 -113 132 -144 l47 -24 97 0 98 0
73 73 73 73 0 110 0 109 -24 65 c-68 187 -123 304 -168 359 -21 25 -44 68 -53
96 l-14 50 14 15 15 14 42 -13 c25 -8 114 -17 208 -20 103 -4 173 -11 187 -18
16 -10 114 -13 393 -13 l371 0 36 -15 c75 -32 153 -4 153 54 0 36 -40 95 -66
99 -12 2 -34 16 -49 33 -19 19 -39 29 -58 29 -60 0 -147 55 -193 122 -16 23
-39 52 -52 65 l-23 23 11 20 11 20 52 0 c54 0 247 -59 326 -99 22 -12 46 -21
54 -21 8 0 22 -10 33 -21 10 -12 37 -33 59 -47 22 -14 69 -56 103 -94 66 -70
90 -81 133 -58 14 8 19 21 19 55 l0 45 -102 106 c-121 125 -160 147 -386 223
l-153 51 -85 0 -84 0 -73 -36 c-88 -44 -107 -60 -107 -91 0 -43 51 -127 132
-215 44 -48 77 -92 73 -98 -4 -6 -91 -10 -236 -10 -181 0 -237 3 -266 15 -22
9 -67 15 -120 15 -52 0 -97 6 -120 15 -26 11 -76 15 -195 15 l-159 0 -45 20
c-24 12 -85 58 -134 103 -48 45 -116 102 -150 127 -34 25 -86 64 -117 88 -53
42 -240 142 -265 142 -7 0 -33 14 -58 30 -26 18 -58 30 -77 30 -17 0 -35 5
-38 10 -4 6 -62 10 -143 10 l-137 0 -37 -33z m416 -162 c39 -20 96 -51 126
-71 30 -19 67 -38 82 -41 18 -3 42 -24 65 -54 20 -27 40 -49 43 -49 3 0 16 -9
30 -20 36 -29 11 -41 -49 -25 -76 22 -133 36 -181 45 -25 5 -82 27 -128 49
-45 23 -88 41 -94 41 -6 0 -32 13 -57 29 -25 16 -58 31 -73 35 -38 9 -63 48
-48 75 l11 21 101 0 100 0 72 -35z m-1044 -685 c47 -16 94 -30 105 -30 38 0
130 -38 143 -59 21 -31 6 -41 -61 -41 -85 0 -263 59 -361 118 -30 18 -36 26
-25 33 29 18 115 9 199 -21z m2040 -499 c5 -11 10 -36 10 -55 l0 -36 -32 -21
c-21 -12 -42 -18 -58 -14 -14 3 -44 8 -68 12 -65 9 -92 61 -56 111 l15 22 89
0 89 0 11 -19z"/>
</g>
</svg>
