<?xml version="1.0" standalone="no"?>
<!DOCTYPE svg PUBLIC "-//W3C//DTD SVG 20010904//EN"
 "http://www.w3.org/TR/2001/REC-SVG-20010904/DTD/svg10.dtd">
<svg version="1.0" xmlns="http://www.w3.org/2000/svg"
 width="213.000000pt" height="312.000000pt" viewBox="0 0 213.000000 312.000000"
 preserveAspectRatio="xMidYMid meet">
<metadata>
Created by potrace 1.16, written by Peter Selinger 2001-2019
</metadata>
<g transform="translate(0.000000,312.000000) scale(0.100000,-0.100000)"
fill="#000000" stroke="none">
<path d="M125 3110 c-3 -5 -14 -10 -24 -10 -9 0 -36 -14 -59 -31 l-42 -31 0
-58 0 -58 53 -56 c29 -31 61 -56 71 -56 10 0 47 -13 83 -30 35 -16 74 -30 86
-30 12 0 42 -6 67 -14 60 -19 125 -35 182 -46 26 -5 56 -13 67 -19 11 -6 38
-11 61 -11 22 0 57 -7 77 -15 24 -10 69 -15 138 -15 l103 0 13 -17 c20 -24 16
-165 -5 -198 -9 -14 -35 -34 -59 -46 -62 -32 -77 -48 -77 -86 0 -46 14 -69 60
-98 22 -14 51 -43 64 -64 15 -23 46 -50 80 -69 39 -22 63 -45 82 -78 15 -26
45 -57 69 -72 66 -42 202 -196 215 -242 7 -27 24 -50 50 -71 41 -33 110 -152
129 -224 6 -22 27 -67 47 -100 48 -80 74 -158 74 -221 0 -28 7 -68 15 -87 24
-57 20 -235 -6 -311 -26 -79 -32 -86 -115 -140 l-69 -46 -48 0 c-38 0 -53 -5
-73 -25 l-25 -25 11 -20 c6 -11 19 -24 30 -30 28 -15 102 -12 143 5 20 8 48
15 62 15 47 0 103 37 138 93 19 28 42 58 51 66 24 20 56 85 56 115 0 14 7 43
15 64 l16 39 -4 169 c-2 96 -9 189 -16 214 -38 132 -54 175 -76 208 -14 20
-25 43 -25 52 0 8 -14 35 -30 60 -16 25 -30 51 -30 58 0 21 -36 85 -60 107
-12 11 -34 40 -48 65 -14 25 -44 66 -66 91 -23 25 -58 67 -79 93 -22 26 -62
65 -90 88 -62 48 -307 279 -307 289 0 3 15 32 34 63 18 31 46 94 61 141 17 54
35 91 48 100 28 19 117 19 164 0 22 -9 67 -15 119 -15 54 0 98 -6 125 -17 l41
-16 48 17 48 17 37 -15 c51 -22 234 -22 275 -1 l30 16 0 39 c0 45 -4 48 -97
79 l-62 21 -291 0 -291 0 -36 15 c-19 8 -55 15 -80 15 l-45 0 -26 28 c-15 16
-69 74 -120 130 -58 64 -103 104 -120 108 -15 4 -50 17 -79 30 -92 41 -262 94
-303 94 -21 0 -42 5 -45 10 -4 6 -83 10 -205 10 -122 0 -201 -4 -205 -10z
m220 -140 c33 -5 88 -10 123 -10 34 0 79 -7 99 -15 19 -8 45 -15 56 -15 31 0
148 -41 180 -63 19 -13 27 -26 25 -41 l-3 -21 -62 -3 c-39 -2 -75 3 -98 13
-21 8 -67 15 -104 15 -41 0 -90 8 -126 20 -66 23 -169 71 -200 93 l-19 15 14
17 c9 10 21 14 34 10 12 -3 48 -10 81 -15z"/>
<path d="M408 689 c-42 -24 -4 -106 64 -140 24 -11 63 -38 88 -59 51 -42 168
-104 217 -114 17 -4 51 -24 75 -45 43 -39 142 -93 188 -104 14 -4 46 -24 72
-45 26 -22 63 -43 82 -46 18 -4 54 -24 79 -46 25 -22 52 -40 61 -40 10 0 28
-11 42 -25 34 -35 69 -33 89 5 25 49 19 68 -50 139 l-65 67 -112 58 c-62 31
-138 73 -168 92 -30 19 -71 39 -90 44 -49 13 -133 55 -182 90 -22 17 -48 30
-57 30 -24 0 -191 83 -241 119 -45 33 -64 37 -92 20z"/>
</g>
</svg>
