<?xml version="1.0" standalone="no"?>
<!DOCTYPE svg PUBLIC "-//W3C//DTD SVG 20010904//EN"
 "http://www.w3.org/TR/2001/REC-SVG-20010904/DTD/svg10.dtd">
<svg version="1.0" xmlns="http://www.w3.org/2000/svg"
 width="234.000000pt" height="258.000000pt" viewBox="0 0 234.000000 258.000000"
 preserveAspectRatio="xMidYMid meet">
<metadata>
Created by potrace 1.16, written by Peter Selinger 2001-2019
</metadata>
<g transform="translate(0.000000,258.000000) scale(0.100000,-0.100000)"
fill="#000000" stroke="none">
<path d="M272 2547 c-18 -51 -15 -142 7 -185 31 -61 235 -212 287 -212 17 0
72 -20 123 -45 59 -29 106 -45 130 -45 50 0 152 -36 174 -62 10 -12 17 -37 17
-62 l0 -41 -50 -43 c-57 -49 -100 -125 -100 -177 0 -46 57 -111 111 -125 21
-6 61 -31 91 -59 29 -26 72 -58 94 -69 48 -25 168 -104 204 -136 14 -12 38
-31 55 -41 95 -59 303 -273 389 -399 59 -87 81 -130 111 -219 32 -93 35 -240
6 -302 -24 -53 -65 -92 -108 -104 -63 -18 -93 -67 -61 -99 19 -19 104 -14 147
8 50 25 140 125 180 199 l31 59 0 131 0 132 -21 61 c-11 33 -37 82 -59 107
-21 25 -49 69 -63 96 -28 54 -318 349 -393 398 -22 15 -55 43 -74 62 -19 20
-50 40 -70 45 -19 5 -56 27 -81 47 -25 21 -79 53 -120 72 -41 18 -87 40 -104
47 -38 18 -75 72 -75 109 0 18 21 60 60 117 34 49 66 106 73 126 7 21 23 43
39 51 l27 15 43 -13 c54 -17 92 -17 146 0 l43 13 49 -27 48 -27 27 10 c40 15
180 12 222 -5 50 -21 386 -21 423 0 14 8 40 14 58 15 l32 0 0 40 0 40 -235 0
-235 0 -41 16 c-31 13 -59 16 -123 11 l-82 -6 -30 20 c-34 22 -130 26 -183 8
l-33 -12 -38 22 -37 21 -32 -11 -32 -11 -38 25 c-21 14 -54 49 -73 79 -65 96
-260 258 -312 258 -17 0 -56 12 -86 26 -30 14 -82 34 -115 45 -33 11 -68 24
-77 29 -10 6 -71 10 -136 10 l-118 0 -12 -33z m363 -147 c122 -61 235 -132
247 -154 45 -81 -132 -51 -263 43 -25 19 -54 31 -73 31 -41 0 -73 23 -91 67
-34 80 36 85 180 13z"/>
<path d="M28 864 l-28 -15 0 -83 0 -84 40 -32 c22 -18 60 -58 85 -90 30 -39
53 -59 73 -63 16 -3 54 -28 84 -56 61 -55 147 -91 222 -91 l44 0 48 40 c27 22
54 40 61 40 19 0 65 -22 107 -52 21 -16 52 -28 68 -28 21 0 44 -13 76 -41 60
-53 133 -95 199 -114 31 -9 75 -34 107 -60 30 -24 79 -56 108 -71 29 -15 65
-36 80 -46 15 -10 44 -18 67 -18 l41 0 10 26 c21 53 -42 115 -190 189 -41 20
-95 54 -120 75 -47 39 -120 80 -142 80 -16 0 -140 81 -185 121 -23 19 -44 29
-67 29 -21 0 -47 11 -72 30 -21 16 -82 59 -136 95 -64 44 -110 84 -137 120
-23 30 -49 55 -59 55 -9 0 -37 14 -62 30 l-45 30 -125 0 c-91 -1 -132 -5 -152
-16z m257 -184 c11 -22 23 -30 42 -30 37 0 86 -33 118 -80 34 -49 26 -63 -29
-50 -46 10 -103 62 -111 102 -5 20 -17 33 -41 43 -37 15 -46 45 -14 45 12 0
26 -12 35 -30z"/>
</g>
</svg>
