<?xml version="1.0" standalone="no"?>
<!DOCTYPE svg PUBLIC "-//W3C//DTD SVG 20010904//EN"
 "http://www.w3.org/TR/2001/REC-SVG-20010904/DTD/svg10.dtd">
<svg version="1.0" xmlns="http://www.w3.org/2000/svg"
 width="351.000000pt" height="519.000000pt" viewBox="0 0 351.000000 519.000000"
 preserveAspectRatio="xMidYMid meet">
<metadata>
Created by potrace 1.16, written by Peter Selinger 2001-2019
</metadata>
<g transform="translate(0.000000,519.000000) scale(0.100000,-0.100000)"
fill="#000000" stroke="none">
<path d="M163 5167 c-18 -12 -47 -31 -65 -42 -23 -14 -37 -34 -48 -66 -8 -25
-23 -58 -32 -72 -26 -39 -24 -130 3 -168 12 -17 23 -49 26 -72 12 -91 90 -215
240 -377 45 -49 89 -103 98 -120 9 -16 33 -41 55 -55 22 -14 51 -42 64 -63 29
-46 81 -92 104 -92 9 0 35 -19 57 -41 22 -23 60 -58 85 -77 25 -20 73 -61 107
-92 33 -30 89 -75 123 -100 34 -25 85 -63 114 -85 28 -22 74 -55 101 -74 28
-19 66 -49 85 -66 19 -18 55 -43 80 -55 72 -36 97 -58 103 -89 4 -18 22 -42
47 -62 32 -26 40 -39 40 -64 0 -19 11 -48 28 -71 37 -52 62 -107 62 -137 0
-14 20 -67 45 -119 l45 -93 0 -90 c0 -107 9 -124 80 -160 36 -18 65 -25 107
-25 63 0 78 -7 154 -74 46 -41 101 -82 186 -142 25 -17 88 -73 141 -125 54
-52 114 -105 134 -119 20 -14 49 -44 65 -68 15 -24 48 -57 73 -74 25 -16 54
-42 65 -58 12 -16 50 -60 86 -98 36 -38 86 -101 111 -138 25 -38 66 -93 91
-123 25 -29 49 -68 53 -85 3 -17 22 -48 40 -68 40 -45 114 -195 114 -231 0
-14 14 -55 30 -90 17 -36 30 -77 30 -90 0 -14 14 -55 30 -90 l30 -65 0 -139 0
-138 -33 -98 c-19 -53 -45 -110 -58 -125 -14 -15 -37 -45 -51 -68 -28 -44
-177 -150 -234 -165 -18 -6 -43 -22 -54 -37 l-22 -27 98 -3 c55 -1 108 1 119
6 11 5 40 18 63 28 24 10 56 33 70 52 14 19 43 45 64 58 30 19 49 45 87 123
55 108 91 206 91 245 0 14 5 28 10 31 6 4 10 73 10 175 0 102 -4 171 -10 175
-5 3 -10 26 -10 50 0 27 -11 68 -30 108 -16 36 -30 70 -30 75 0 6 -13 40 -30
75 -16 36 -30 70 -30 77 0 20 -42 94 -77 135 -18 22 -36 51 -40 65 -13 54 -55
121 -103 162 -27 24 -50 49 -50 56 0 33 -53 113 -90 137 -22 14 -47 37 -57 52
-9 16 -69 79 -132 141 -174 168 -173 168 -210 212 -18 22 -45 43 -60 47 -14 3
-55 37 -89 75 -36 38 -76 71 -90 74 -15 4 -47 29 -71 56 -32 36 -70 62 -142
99 -55 27 -117 65 -138 84 -21 19 -45 35 -54 35 -26 0 -52 49 -95 182 -23 70
-55 156 -72 191 -16 35 -30 69 -30 75 0 16 65 15 120 -2 78 -25 133 -37 195
-45 34 -5 71 -13 83 -20 28 -15 197 -10 262 9 175 48 178 50 205 110 l18 39
-23 70 -22 70 -52 46 c-80 73 -178 145 -195 145 -9 0 -36 14 -61 30 -25 16
-52 30 -60 30 -8 0 -28 9 -45 21 -42 29 -242 129 -257 129 -21 0 -132 55 -178
89 -24 18 -55 31 -72 31 -16 0 -45 7 -65 15 -90 38 -223 -6 -223 -73 0 -14 -5
-42 -12 -63 -8 -29 -8 -49 0 -75 13 -45 7 -62 -26 -71 -28 -7 -24 -9 -124 72
-40 33 -86 69 -103 79 -16 11 -50 38 -75 61 -25 22 -57 49 -72 58 -14 9 -69
54 -120 100 -52 45 -103 89 -115 97 -11 8 -34 36 -51 61 -17 25 -50 58 -74 73
-24 15 -54 44 -68 64 -14 20 -60 73 -103 117 -68 69 -146 172 -182 240 -14 25
-49 142 -65 213 l-12 54 28 30 c59 62 148 83 221 53 20 -8 66 -15 105 -15 38
0 84 -7 105 -15 19 -8 60 -15 90 -15 29 0 70 -7 90 -15 25 -11 72 -15 165 -15
92 0 139 -4 165 -15 19 -8 65 -15 102 -15 79 0 160 -26 199 -63 44 -42 122
-32 122 16 0 62 -82 127 -160 127 -22 0 -57 7 -77 15 -19 8 -60 15 -90 15 -29
0 -70 7 -90 15 -19 8 -60 15 -90 15 -29 0 -70 7 -90 15 -20 8 -66 15 -105 15
-38 0 -84 7 -105 15 -19 8 -53 15 -75 15 -21 0 -55 7 -75 15 -22 9 -67 15
-117 15 -74 0 -171 22 -193 43 -3 4 -34 7 -67 6 -45 0 -69 -6 -93 -22z m1484
-1412 c19 -8 55 -15 78 -15 34 0 81 -19 225 -90 100 -50 196 -101 214 -114 17
-13 64 -40 104 -60 84 -42 152 -90 202 -141 l34 -37 -19 -35 c-16 -28 -32 -39
-75 -54 -66 -23 -167 -25 -217 -4 -19 8 -54 15 -77 15 -29 0 -69 13 -127 41
-46 22 -118 52 -160 65 -74 24 -169 90 -203 140 -49 74 -75 272 -38 293 22 13
17 13 59 -4z"/>
</g>
</svg>
