<?xml version="1.0" standalone="no"?>
<!DOCTYPE svg PUBLIC "-//W3C//DTD SVG 20010904//EN"
 "http://www.w3.org/TR/2001/REC-SVG-20010904/DTD/svg10.dtd">
<svg version="1.0" xmlns="http://www.w3.org/2000/svg"
 width="717.000000pt" height="264.000000pt" viewBox="0 0 717.000000 264.000000"
 preserveAspectRatio="xMidYMid meet">
<metadata>
Created by potrace 1.16, written by Peter Selinger 2001-2019
</metadata>
<g transform="translate(0.000000,264.000000) scale(0.100000,-0.100000)"
fill="#000000" stroke="none">
<path d="M3948 2596 c-18 -28 -28 -57 -28 -81 l0 -38 44 -43 43 -44 40 0 c56
0 88 28 107 94 12 40 13 61 6 81 -5 14 -10 37 -10 51 l0 24 -87 0 -88 -1 -27
-43z"/>
<path d="M1084 2096 c-64 -64 -59 -98 23 -140 24 -12 61 -16 148 -16 l117 0
65 -30 c35 -16 79 -41 96 -54 18 -13 61 -39 96 -56 35 -18 80 -47 100 -65 20
-18 48 -35 62 -38 14 -4 66 -42 115 -86 49 -43 114 -98 144 -123 30 -24 74
-68 97 -98 50 -64 71 -90 120 -148 85 -100 116 -286 71 -421 l-22 -66 -57 -56
c-32 -32 -76 -64 -101 -73 l-43 -17 -365 5 c-515 7 -496 5 -697 72 -73 24
-140 44 -150 44 -24 0 -152 44 -202 69 -60 31 -121 26 -121 -8 0 -10 35 -52
79 -94 60 -59 85 -77 107 -77 15 0 88 -20 161 -45 73 -25 143 -45 155 -45 13
0 48 -12 78 -27 l55 -26 121 -3 c83 -1 132 -7 158 -18 l38 -16 223 0 c175 0
230 3 258 15 20 8 54 15 77 15 56 0 289 116 348 173 78 75 122 191 122 320 l0
85 -25 56 c-14 31 -25 71 -25 89 l0 32 -74 83 c-46 51 -79 99 -88 124 -10 32
-25 50 -65 78 -29 20 -86 67 -127 106 -102 95 -229 189 -323 239 -28 14 -59
35 -69 46 l-18 20 14 9 c8 6 106 10 218 10 158 0 211 -3 239 -15 24 -10 71
-15 150 -15 78 0 125 -5 150 -15 26 -11 76 -15 194 -15 87 0 170 -5 185 -10
19 -7 37 -7 60 0 25 9 40 8 69 -5 22 -8 67 -15 107 -15 38 0 84 -7 105 -15 28
-12 84 -15 270 -15 185 0 241 -3 270 -15 19 -8 61 -15 93 -15 34 0 61 -5 67
-12 5 -7 20 -44 32 -81 30 -96 45 -121 90 -154 21 -15 48 -42 60 -59 12 -17
53 -55 92 -85 39 -30 94 -72 123 -94 99 -77 146 -106 264 -165 135 -67 226
-100 277 -100 20 0 52 -7 72 -15 27 -11 76 -15 200 -15 l164 0 42 21 c96 48
147 129 147 232 l0 64 -29 40 c-16 22 -39 60 -52 84 -12 24 -46 79 -75 122
-30 43 -52 83 -49 88 10 14 122 10 162 -6 50 -21 227 -20 278 1 l38 16 41 -16
c32 -12 80 -16 199 -16 118 0 167 -4 194 -15 19 -8 52 -15 72 -15 20 0 75 -13
121 -30 66 -23 102 -30 163 -30 l79 0 29 29 c17 18 29 40 29 55 0 39 -68 107
-181 182 -87 58 -149 121 -149 151 0 14 124 5 169 -13 18 -8 52 -14 75 -14 42
0 69 -13 116 -56 14 -12 61 -41 106 -63 72 -36 144 -92 144 -113 0 -14 109
-88 130 -88 37 0 60 19 60 50 0 16 -4 31 -9 34 -4 3 -11 18 -14 34 -3 17 -23
43 -47 63 -23 19 -65 57 -93 84 -36 35 -81 63 -147 94 -106 48 -133 62 -205
102 -33 19 -65 29 -93 29 -23 0 -59 7 -79 15 -52 22 -292 21 -336 -1 -53 -27
-67 -44 -67 -82 l0 -36 48 -46 c58 -57 137 -157 137 -173 0 -8 -14 -11 -40 -9
-22 1 -53 -3 -70 -8 -31 -11 -79 -4 -181 27 -38 11 -75 14 -150 9 -54 -3 -110
-6 -124 -6 -418 9 -588 17 -613 29 l-28 15 -48 -18 -49 -17 -37 15 c-21 9 -55
16 -77 16 -21 0 -55 7 -75 15 -19 8 -53 15 -75 15 -21 0 -55 7 -75 15 -22 9
-67 15 -119 15 -45 0 -95 5 -111 12 -15 7 -82 15 -148 19 -66 4 -145 12 -175
18 -30 5 -234 10 -453 10 l-398 1 -36 15 c-27 12 -81 15 -240 15 -158 0 -212
3 -240 15 -25 11 -72 15 -165 15 -92 0 -139 4 -165 15 -24 10 -71 15 -150 15
-78 0 -125 5 -150 15 -23 10 -69 15 -135 15 -65 0 -111 5 -135 15 -28 12 -86
15 -285 15 -198 0 -256 3 -285 15 -19 8 -51 15 -71 15 l-35 0 -43 -44z m3266
-386 c41 -5 156 -9 254 -9 l179 -1 110 -37 109 -37 52 -46 c28 -25 67 -56 87
-70 21 -13 51 -44 68 -69 17 -26 45 -64 61 -85 50 -65 36 -151 -30 -190 -21
-12 -53 -16 -122 -16 l-94 0 -84 30 c-47 16 -96 30 -109 30 -38 0 -210 87
-270 136 -29 24 -61 44 -70 44 -9 0 -34 20 -54 45 -21 25 -59 59 -85 76 -27
17 -59 47 -72 68 -14 20 -37 52 -52 71 -16 19 -28 40 -28 47 0 18 32 34 55 27
11 -3 54 -9 95 -14z"/>
<path d="M22 739 l-22 -8 0 -55 0 -54 25 -6 c13 -3 36 -22 51 -42 15 -19 46
-45 68 -56 23 -12 55 -32 73 -45 17 -13 47 -28 65 -34 19 -5 52 -24 75 -44 22
-19 72 -50 112 -70 39 -20 106 -60 148 -89 43 -29 99 -64 125 -78 26 -14 77
-55 113 -92 l65 -66 40 0 40 0 0 66 0 66 -80 83 c-56 57 -96 89 -133 105 -68
29 -65 27 -133 83 -33 26 -73 51 -91 56 -17 5 -67 33 -110 62 -43 29 -139 83
-213 121 -74 38 -148 77 -165 88 -22 13 -36 16 -53 9z"/>
</g>
</svg>
