<?xml version="1.0" standalone="no"?>
<!DOCTYPE svg PUBLIC "-//W3C//DTD SVG 20010904//EN"
 "http://www.w3.org/TR/2001/REC-SVG-20010904/DTD/svg10.dtd">
<svg version="1.0" xmlns="http://www.w3.org/2000/svg"
 width="741.000000pt" height="174.000000pt" viewBox="0 0 741.000000 174.000000"
 preserveAspectRatio="xMidYMid meet">
<metadata>
Created by potrace 1.16, written by Peter Selinger 2001-2019
</metadata>
<g transform="translate(0.000000,174.000000) scale(0.100000,-0.100000)"
fill="#000000" stroke="none">
<path d="M80 1725 c0 -9 -18 -35 -40 -59 l-40 -43 0 -82 c0 -45 4 -89 9 -99
28 -53 71 -161 71 -177 0 -28 177 -203 235 -232 28 -14 70 -42 95 -63 47 -38
165 -102 210 -113 14 -4 44 -22 66 -41 44 -38 229 -106 287 -106 17 0 52 -6
77 -14 87 -28 136 -38 205 -45 l70 -7 58 -37 c31 -21 72 -50 90 -65 74 -62
190 -132 220 -132 7 0 26 -13 42 -30 16 -16 36 -30 44 -30 9 0 41 -12 71 -26
72 -33 164 -64 192 -64 13 0 48 -12 78 -26 51 -24 208 -76 310 -104 25 -7 86
-15 135 -19 50 -4 100 -12 112 -19 12 -7 40 -12 63 -12 22 0 57 -7 77 -15 19
-8 60 -15 90 -15 29 0 70 -7 90 -15 19 -8 62 -15 94 -15 32 0 61 -4 64 -10 8
-13 222 -13 230 0 8 13 122 13 130 0 8 -14 912 -14 920 0 3 6 46 10 94 10 56
0 102 6 124 15 21 8 67 15 106 15 l70 0 64 30 c36 16 76 30 89 30 33 1 159 46
185 67 12 10 57 46 101 80 49 38 82 71 84 84 5 35 31 45 80 31 24 -7 64 -17
90 -22 26 -5 56 -13 67 -19 11 -6 45 -11 76 -11 30 0 72 -7 92 -15 24 -10 71
-15 150 -15 78 0 125 -5 150 -15 27 -11 77 -15 209 -15 105 0 184 -4 201 -11
15 -7 90 -13 167 -16 91 -2 150 -9 173 -18 49 -21 67 -19 102 11 71 59 63 83
-75 225 -97 101 -133 161 -113 185 17 20 43 17 106 -12 31 -14 91 -36 132 -50
106 -34 128 -46 199 -106 77 -66 102 -102 102 -150 0 -41 19 -58 65 -58 47 0
85 27 85 60 0 16 -5 32 -10 35 -6 3 -10 21 -10 39 0 24 -13 49 -47 94 -27 33
-56 72 -66 86 -10 14 -34 30 -55 36 -21 5 -56 25 -78 44 -48 41 -242 107 -396
136 -26 5 -56 13 -67 19 -60 32 -178 -4 -239 -74 -51 -58 -39 -96 52 -158 14
-10 40 -44 56 -77 16 -32 35 -60 41 -62 7 -2 10 -12 6 -21 l-6 -17 -141 0
c-102 0 -150 4 -177 15 -27 12 -79 15 -225 15 -145 0 -197 3 -225 15 -19 8
-65 15 -102 15 -36 0 -86 6 -111 14 -61 19 -126 36 -179 45 -53 10 -81 40 -81
86 0 62 -144 222 -248 274 l-61 31 -76 0 c-89 0 -152 -26 -203 -85 l-32 -36 0
-83 0 -83 18 -15 c9 -9 35 -25 57 -36 22 -11 62 -39 89 -61 34 -29 58 -41 80
-41 41 0 180 -70 184 -93 2 -11 -8 -23 -28 -35 -18 -9 -57 -32 -89 -50 -60
-36 -153 -72 -186 -72 -11 0 -58 -14 -105 -30 l-84 -30 -112 0 c-77 0 -123 -5
-147 -15 l-36 -15 -455 0 -456 0 -41 17 -41 16 -47 -16 c-57 -21 -130 -22
-178 -2 -22 9 -67 15 -117 15 -44 0 -101 6 -126 14 -77 24 -133 37 -190 45
-30 4 -71 12 -90 18 -81 26 -130 36 -215 43 -90 8 -130 19 -235 64 -80 34
-159 66 -205 83 -22 7 -62 24 -90 37 -27 13 -61 26 -75 29 -14 3 -43 22 -65
40 -22 19 -62 46 -90 60 -101 51 -205 163 -205 222 0 18 -8 39 -18 48 -23 21
-97 22 -145 2 -48 -20 -186 -20 -234 0 -19 8 -45 15 -57 15 -22 0 -212 61
-256 83 -14 6 -38 21 -55 33 -16 12 -64 39 -105 60 -41 20 -93 51 -115 68 -81
62 -135 111 -135 123 0 6 32 33 71 59 l71 47 -6 45 c-3 25 -20 66 -36 92 -17
26 -30 52 -30 59 0 28 -43 92 -79 118 -22 15 -45 38 -52 51 l-12 22 -89 0 -88
0 0 -15z m174 -236 c30 -40 35 -53 25 -60 -23 -14 -37 -10 -74 22 -36 32 -44
56 -23 77 20 20 32 14 72 -39z m4780 -769 c18 -11 52 -42 76 -71 34 -40 40
-53 29 -60 -20 -13 -22 -12 -96 22 -71 33 -123 74 -123 95 0 35 67 43 114 14z"/>
<path d="M4654 1436 l-44 -43 0 -42 0 -42 47 -50 c51 -55 108 -89 146 -89 13
0 39 10 58 23 l34 23 3 102 3 103 -30 29 -29 30 -73 0 -72 0 -43 -44z"/>
</g>
</svg>
