<?xml version="1.0" standalone="no"?>
<!DOCTYPE svg PUBLIC "-//W3C//DTD SVG 20010904//EN"
 "http://www.w3.org/TR/2001/REC-SVG-20010904/DTD/svg10.dtd">
<svg version="1.0" xmlns="http://www.w3.org/2000/svg"
 width="429.000000pt" height="105.000000pt" viewBox="0 0 429.000000 105.000000"
 preserveAspectRatio="xMidYMid meet">
<metadata>
Created by potrace 1.16, written by Peter Selinger 2001-2019
</metadata>
<g transform="translate(0.000000,105.000000) scale(0.100000,-0.100000)"
fill="#000000" stroke="none">
<path d="M2722 1004 c-57 -50 -64 -73 -35 -127 19 -38 70 -113 114 -168 l31
-39 -12 -15 c-17 -21 -187 -21 -237 0 -24 10 -71 15 -150 15 -78 0 -125 5
-150 15 -24 10 -71 15 -150 15 -78 0 -125 5 -150 15 -19 8 -60 15 -90 15 -29
0 -70 7 -90 15 -23 10 -69 15 -135 15 -65 0 -111 5 -135 15 -46 20 -123 19
-151 -1 -24 -17 -72 -103 -72 -130 0 -27 60 -131 99 -171 65 -67 172 -153 189
-153 28 0 58 -27 82 -71 17 -34 19 -44 8 -50 -7 -5 -104 -9 -216 -9 -158 0
-211 3 -239 15 -24 10 -71 15 -150 15 -78 0 -125 5 -150 15 -23 10 -69 15
-135 15 -65 0 -111 5 -135 15 -27 12 -79 15 -225 15 -145 0 -197 3 -225 15
-46 19 -146 19 -183 0 l-30 -16 0 -39 0 -39 30 -16 29 -15 236 0 c187 0 243
-3 272 -15 23 -10 69 -15 135 -15 65 0 111 -5 135 -15 23 -10 69 -15 135 -15
65 0 111 -5 135 -15 23 -10 69 -15 135 -15 65 0 111 -5 135 -15 20 -8 66 -15
105 -15 38 0 84 -7 105 -15 28 -12 85 -15 274 -15 148 0 240 -4 244 -10 3 -6
40 -10 81 -10 l74 0 0 48 c0 27 -7 57 -16 70 -20 29 -105 72 -141 72 -16 0
-46 12 -67 26 -21 14 -88 51 -148 81 -80 40 -123 68 -152 101 -23 24 -67 70
-98 100 -63 60 -70 82 -36 106 31 22 263 23 315 1 19 -8 53 -15 75 -15 21 0
55 -7 75 -15 24 -10 71 -15 150 -15 78 0 125 -5 150 -15 24 -10 71 -15 150
-15 78 0 125 -5 150 -15 27 -11 78 -15 218 -15 l182 0 16 18 c10 10 17 35 17
55 l0 37 -47 54 c-139 156 -161 189 -142 212 15 18 70 18 116 -1 19 -8 46 -15
60 -15 13 0 54 -18 91 -40 36 -22 84 -45 105 -51 21 -5 41 -17 44 -25 3 -9 -1
-42 -10 -73 l-16 -57 14 -49 c19 -60 25 -67 89 -103 29 -17 64 -45 78 -64 15
-19 48 -43 79 -57 72 -31 66 -27 159 -103 63 -51 91 -68 114 -68 18 0 50 -13
76 -30 25 -16 52 -30 60 -30 8 0 44 -14 78 -30 87 -41 143 -41 200 1 l42 31 0
103 0 104 -83 83 c-46 46 -105 99 -132 118 -124 90 -170 119 -200 124 -18 4
-52 24 -76 45 -54 47 -124 83 -224 116 -42 13 -89 34 -104 45 -16 10 -74 42
-129 70 l-102 50 -56 0 c-41 0 -73 8 -121 30 -35 17 -71 30 -78 30 -8 0 -17 5
-20 10 -3 6 -48 10 -98 10 l-92 0 -53 -46z m887 -404 c20 -5 53 -12 74 -15 29
-5 51 -20 92 -61 l54 -54 34 0 c21 0 48 -10 73 -28 57 -42 152 -148 169 -190
l16 -36 -15 -14 -14 -14 -38 18 c-22 9 -59 34 -84 54 -47 38 -120 80 -141 80
-16 0 -98 52 -167 104 -130 100 -149 125 -120 154 14 14 20 15 67 2z"/>
</g>
</svg>
