<?xml version="1.0" standalone="no"?>
<!DOCTYPE svg PUBLIC "-//W3C//DTD SVG 20010904//EN"
 "http://www.w3.org/TR/2001/REC-SVG-20010904/DTD/svg10.dtd">
<svg version="1.0" xmlns="http://www.w3.org/2000/svg"
 width="546.000000pt" height="159.000000pt" viewBox="0 0 546.000000 159.000000"
 preserveAspectRatio="xMidYMid meet">
<metadata>
Created by potrace 1.16, written by Peter Selinger 2001-2019
</metadata>
<g transform="translate(0.000000,159.000000) scale(0.100000,-0.100000)"
fill="#000000" stroke="none">
<path d="M185 1570 c-10 -11 -35 -25 -56 -30 -42 -11 -109 -79 -109 -109 0
-11 -4 -23 -10 -26 -5 -3 -10 -34 -10 -68 l1 -62 41 -25 c23 -14 65 -44 94
-67 61 -49 184 -113 216 -113 13 0 43 -7 68 -15 25 -8 61 -17 80 -20 20 -3 60
-21 89 -40 39 -25 61 -33 80 -29 17 4 40 -2 61 -15 l35 -20 41 11 42 12 44
-17 c28 -11 73 -17 126 -17 51 0 96 -6 119 -15 19 -8 53 -15 75 -15 21 0 55
-7 75 -15 19 -8 60 -15 90 -15 29 0 70 -7 90 -15 28 -12 86 -15 284 -15 144 0
259 -4 275 -10 l26 -10 44 25 c23 14 54 25 69 25 32 0 161 64 198 99 16 14 35
38 43 53 8 15 25 35 39 44 l25 16 31 -11 c18 -6 75 -40 128 -75 53 -35 116
-74 140 -87 25 -14 58 -44 76 -69 21 -30 45 -50 71 -60 22 -8 47 -19 56 -25
20 -13 68 -84 68 -101 0 -8 -17 -22 -38 -33 -47 -24 -102 -84 -102 -112 0 -41
77 -173 126 -217 172 -152 331 -232 461 -232 72 0 95 15 129 82 l26 50 -5 67
c-2 36 -13 88 -23 114 l-19 48 19 15 c26 19 146 18 193 -1 20 -8 66 -15 105
-15 38 0 84 -7 105 -15 19 -8 53 -15 75 -15 21 0 55 -7 75 -15 19 -8 53 -15
75 -15 21 0 55 -7 75 -15 19 -8 60 -15 90 -15 29 0 70 -7 90 -15 51 -21 71
-19 104 14 48 49 41 71 -57 169 -81 82 -164 193 -164 220 0 7 11 17 24 24 l25
11 49 -32 c27 -17 55 -31 63 -31 8 0 34 -14 59 -30 33 -22 57 -30 90 -30 26 0
56 -7 71 -18 42 -28 99 -81 99 -92 0 -5 -15 -16 -34 -24 -40 -17 -66 -51 -66
-88 0 -15 10 -57 21 -93 23 -68 33 -80 149 -168 96 -73 164 -117 182 -117 9 0
20 -5 23 -10 4 -6 58 -10 129 -10 l122 0 37 38 37 38 0 57 c0 32 -4 65 -9 75
-5 9 -17 37 -27 62 -26 63 -166 207 -215 220 -20 6 -63 34 -95 63 -33 28 -79
60 -104 70 -25 10 -58 26 -75 34 -86 46 -144 80 -179 105 -23 16 -52 28 -70
28 -17 0 -60 14 -94 30 -35 17 -69 30 -75 30 -7 0 -41 14 -75 30 -50 24 -77
30 -128 30 l-64 0 -46 -42 c-66 -61 -68 -68 -39 -132 14 -30 25 -61 25 -68 0
-8 13 -27 30 -43 36 -34 62 -88 54 -109 -10 -25 -51 -30 -97 -12 -29 11 -74
16 -140 16 -64 0 -110 5 -134 15 -19 8 -60 15 -90 15 -29 0 -70 7 -90 15 -24
10 -71 15 -152 15 l-116 0 -45 30 c-25 16 -53 30 -62 30 -9 0 -26 14 -38 30
-12 17 -60 56 -107 87 -47 31 -100 68 -117 83 -17 14 -65 48 -106 75 -41 27
-95 68 -120 91 -25 23 -65 52 -90 64 -25 12 -65 39 -90 59 -25 20 -79 59 -120
86 -41 27 -103 76 -137 107 -34 32 -65 58 -68 58 -17 0 -84 -42 -109 -68 l-28
-31 6 -33 c4 -18 9 -61 13 -95 7 -81 -5 -99 -101 -151 l-75 -41 -76 6 c-59 5
-88 2 -131 -13 l-55 -18 -48 17 c-31 11 -79 17 -130 17 -50 0 -96 6 -118 15
-19 8 -60 15 -90 15 -29 0 -70 7 -90 15 -19 8 -59 15 -87 15 -28 0 -71 6 -96
14 -102 32 -141 39 -270 47 -126 7 -182 13 -238 25 -12 2 -36 23 -52 46 l-30
41 0 77 0 77 -29 40 c-16 23 -41 63 -55 90 -13 27 -40 62 -60 76 l-35 27 -84
0 -84 0 -18 -20z m135 -157 c33 -23 46 -40 70 -90 23 -48 25 -69 8 -79 -20
-13 -91 -4 -119 14 -44 28 -99 81 -99 94 0 14 87 78 105 78 6 0 22 -8 35 -17z
m3012 -968 c41 -28 138 -169 138 -202 0 -19 -23 -53 -36 -53 -18 0 -85 37
-123 67 -25 21 -60 48 -79 61 -46 31 -69 60 -78 96 -9 40 15 56 86 56 42 0 64
-6 92 -25z m1823 -119 l60 -22 37 -54 c20 -30 37 -60 37 -66 2 -30 -76 -32
-137 -4 -46 21 -152 122 -152 145 0 31 72 32 155 1z"/>
</g>
</svg>
