<?xml version="1.0" standalone="no"?>
<!DOCTYPE svg PUBLIC "-//W3C//DTD SVG 20010904//EN"
 "http://www.w3.org/TR/2001/REC-SVG-20010904/DTD/svg10.dtd">
<svg version="1.0" xmlns="http://www.w3.org/2000/svg"
 width="522.000000pt" height="177.000000pt" viewBox="0 0 522.000000 177.000000"
 preserveAspectRatio="xMidYMid meet">
<metadata>
Created by potrace 1.16, written by Peter Selinger 2001-2019
</metadata>
<g transform="translate(0.000000,177.000000) scale(0.100000,-0.100000)"
fill="#000000" stroke="none">
<path d="M468 1743 c-24 -26 -48 -65 -48 -77 0 -3 23 -31 51 -63 60 -69 85
-119 68 -139 -17 -21 -138 -19 -169 3 -14 9 -59 49 -101 90 l-77 73 -42 0 -43
0 -43 -44 c-24 -24 -44 -53 -44 -64 0 -11 -5 -24 -10 -27 -12 -8 -13 -59 -1
-83 4 -9 33 -69 64 -133 l56 -117 43 -29 c31 -21 47 -40 58 -73 12 -34 27 -52
66 -79 28 -19 66 -57 85 -85 27 -39 45 -54 79 -66 31 -11 52 -27 75 -60 22
-31 43 -49 70 -58 37 -12 67 -33 190 -132 28 -22 69 -45 92 -51 23 -6 64 -30
91 -53 27 -24 63 -47 78 -53 16 -6 50 -18 75 -27 26 -9 73 -41 106 -71 l61
-55 92 -29 c101 -33 162 -65 199 -105 14 -14 35 -26 49 -26 34 0 241 -69 274
-92 36 -25 104 -24 118 1 15 30 12 66 -8 84 -9 9 -60 30 -112 46 -54 18 -117
46 -144 66 -29 21 -61 35 -79 35 -42 0 -154 55 -216 106 -37 31 -63 44 -84 44
-32 0 -104 40 -177 100 -49 40 -109 73 -152 84 -14 3 -50 28 -80 54 -29 27
-107 84 -173 127 -158 104 -324 264 -443 428 -25 36 -29 75 -7 83 8 3 37 -2
64 -12 l49 -17 41 16 c23 10 69 17 103 17 l62 0 85 85 84 86 30 -11 c16 -5 59
-10 96 -10 44 0 94 -9 156 -29 99 -32 160 -48 220 -60 22 -4 56 -12 75 -18 84
-27 131 -36 215 -42 50 -4 100 -12 112 -19 12 -7 40 -12 63 -12 22 0 57 -7 77
-15 19 -8 59 -15 87 -15 28 0 71 -6 96 -14 94 -30 138 -38 225 -45 50 -4 100
-12 112 -19 14 -8 76 -12 182 -12 122 0 170 -4 200 -16 l39 -15 423 4 c296 3
438 8 469 17 159 44 266 84 318 119 63 44 119 120 172 236 59 128 53 120 86
117 16 -2 173 -7 349 -11 237 -5 328 -10 351 -21 l31 -13 42 16 c23 10 66 17
96 17 l55 0 0 27 c0 16 -11 39 -27 55 -21 22 -36 28 -70 28 -24 0 -60 7 -80
15 -26 11 -74 15 -180 15 -105 0 -153 4 -180 15 -27 11 -78 15 -214 15 -108 0
-180 4 -184 10 -4 6 -62 10 -143 10 l-137 0 -23 -53 -23 -53 25 -55 c14 -30
26 -71 26 -92 0 -42 -22 -101 -48 -130 -16 -18 -92 -57 -111 -57 -5 0 -39 -14
-74 -30 -38 -17 -82 -30 -105 -30 -22 0 -56 -7 -75 -15 l-36 -15 -366 0 -366
0 -36 15 c-23 10 -69 15 -135 15 -65 0 -111 5 -135 15 -24 10 -71 15 -150 15
-78 0 -125 5 -150 15 -19 8 -59 15 -87 15 -28 0 -71 6 -96 14 -86 27 -135 38
-210 46 -41 4 -106 20 -145 34 -42 15 -91 26 -123 26 -29 0 -69 7 -89 15 -19
8 -47 15 -60 15 -14 0 -54 14 -90 30 -35 17 -76 30 -90 30 -13 0 -54 14 -90
30 -35 17 -75 30 -89 30 -14 0 -41 7 -61 15 -19 8 -54 15 -76 15 -44 0 -144
44 -211 92 -21 15 -47 28 -57 28 -10 0 -21 5 -24 10 -3 6 -34 10 -69 10 l-62
0 -26 -27z"/>
</g>
</svg>
