<?xml version="1.0" standalone="no"?>
<!DOCTYPE svg PUBLIC "-//W3C//DTD SVG 20010904//EN"
 "http://www.w3.org/TR/2001/REC-SVG-20010904/DTD/svg10.dtd">
<svg version="1.0" xmlns="http://www.w3.org/2000/svg"
 width="927.000000pt" height="117.000000pt" viewBox="0 0 927.000000 117.000000"
 preserveAspectRatio="xMidYMid meet">
<metadata>
Created by potrace 1.16, written by Peter Selinger 2001-2019
</metadata>
<g transform="translate(0.000000,117.000000) scale(0.100000,-0.100000)"
fill="#000000" stroke="none">
<path d="M3875 1160 c-3 -5 -28 -10 -54 -10 -37 0 -57 -7 -88 -29 -22 -16 -55
-37 -74 -46 -19 -10 -66 -46 -105 -81 l-71 -63 -21 -66 c-12 -36 -22 -81 -22
-100 0 -45 38 -160 59 -179 28 -25 256 -134 322 -155 107 -32 151 -42 214 -50
34 -5 70 -13 82 -19 12 -7 54 -12 93 -12 40 0 86 -6 107 -15 25 -10 71 -15
153 -15 117 0 150 -4 150 -20 0 -4 -12 -13 -27 -18 -16 -6 -59 -22 -97 -36
-38 -14 -79 -26 -91 -26 -13 0 -39 -7 -58 -15 -20 -8 -54 -15 -75 -15 -22 0
-57 -7 -77 -16 l-38 -16 -41 16 c-33 13 -84 16 -244 16 -158 0 -211 3 -239 15
-22 9 -67 15 -120 15 -52 0 -97 6 -120 15 -23 10 -69 15 -135 15 -65 0 -111 5
-135 15 -19 8 -65 15 -102 15 -49 0 -90 8 -151 30 -47 16 -102 30 -123 30 -21
0 -54 7 -74 15 -22 9 -67 15 -120 15 -52 0 -97 6 -120 15 -22 9 -67 15 -120
15 -52 0 -97 6 -120 15 l-35 15 -337 0 -336 0 -59 -17 -58 -18 -32 -42 c-17
-22 -43 -48 -58 -57 -48 -29 -72 -22 -209 62 -30 18 -65 35 -79 38 -39 10
-209 92 -244 119 -34 25 -142 65 -178 65 -13 0 -36 9 -53 21 -16 11 -93 52
-170 91 -77 39 -153 81 -170 93 -49 37 -112 65 -145 65 l-30 0 0 -70 0 -69 30
-16 c16 -8 42 -15 57 -15 18 0 60 -21 112 -55 46 -31 115 -72 154 -92 40 -20
85 -46 102 -58 35 -26 169 -95 186 -95 17 0 80 -31 114 -56 37 -28 230 -124
248 -124 7 0 24 -12 38 -26 26 -28 78 -57 119 -67 14 -4 52 -29 85 -56 l60
-50 75 0 75 0 28 43 27 44 0 60 c0 38 5 64 13 69 22 14 111 43 133 43 12 0 38
7 57 15 50 21 244 21 294 0 26 -11 74 -15 180 -15 105 0 153 -4 180 -15 25
-11 72 -15 165 -15 92 0 139 -4 165 -15 19 -8 54 -15 77 -15 28 0 71 -15 134
-45 l94 -45 84 0 c53 0 98 -6 121 -15 26 -11 74 -15 180 -15 105 0 153 -4 180
-15 25 -11 72 -15 165 -15 92 0 139 -4 165 -15 45 -19 77 -19 129 1 l41 16 38
-16 c26 -11 69 -16 139 -16 l101 0 85 30 c46 17 99 30 117 30 36 0 136 31 188
57 16 9 50 33 75 54 25 21 75 51 112 68 l66 31 111 0 c77 0 123 -5 148 -15 24
-10 71 -15 150 -15 78 0 125 -5 150 -15 27 -12 79 -15 225 -15 145 0 197 -3
225 -15 l35 -15 297 0 296 0 63 -30 64 -30 279 0 280 0 36 -15 c25 -11 72 -15
165 -15 92 0 139 -4 165 -15 91 -38 182 -7 238 80 l35 55 205 0 c160 0 214 -3
242 -15 27 -11 77 -15 210 -15 132 0 182 -4 210 -15 54 -23 338 -21 404 2 64
23 66 49 7 92 l-42 31 -208 0 c-163 0 -217 3 -245 15 -27 12 -79 15 -225 15
-145 0 -197 3 -225 15 -26 11 -74 15 -180 15 -105 0 -153 4 -180 15 -19 8 -53
15 -75 15 -21 0 -55 7 -75 15 -26 11 -75 15 -188 15 l-152 0 -16 -18 c-11 -12
-17 -36 -17 -63 0 -25 -5 -50 -12 -57 -19 -19 -608 -17 -668 2 -116 37 -144
40 -420 47 -157 4 -319 12 -360 17 -41 6 -129 11 -195 11 l-121 1 -84 30 -85
30 -207 0 -207 0 -11 19 c-5 11 -10 47 -10 81 0 112 -89 320 -138 320 -7 0
-35 18 -60 41 -26 23 -66 52 -90 66 -48 28 -167 72 -197 73 -10 0 -60 13 -110
29 -103 33 -160 49 -228 61 -26 5 -60 18 -76 29 l-29 21 -105 0 c-60 0 -109
-4 -112 -10z m205 -164 c58 -18 123 -35 180 -46 25 -5 63 -18 86 -29 22 -11
96 -38 165 -61 68 -22 139 -48 157 -56 59 -28 106 -84 131 -158 25 -76 23
-111 -10 -157 l-20 -29 -175 0 c-133 0 -183 4 -211 15 -23 10 -69 15 -137 15
l-101 0 -45 30 -45 30 -58 0 c-32 0 -74 7 -94 15 -19 8 -46 15 -60 15 -13 0
-58 20 -99 45 -40 25 -78 45 -83 45 -22 0 -51 54 -51 95 0 92 141 215 248 215
22 0 55 7 73 15 43 18 92 19 149 1z"/>
</g>
</svg>
