<?xml version="1.0" standalone="no"?>
<!DOCTYPE svg PUBLIC "-//W3C//DTD SVG 20010904//EN"
 "http://www.w3.org/TR/2001/REC-SVG-20010904/DTD/svg10.dtd">
<svg version="1.0" xmlns="http://www.w3.org/2000/svg"
 width="936.000000pt" height="291.000000pt" viewBox="0 0 936.000000 291.000000"
 preserveAspectRatio="xMidYMid meet">
<metadata>
Created by potrace 1.16, written by Peter Selinger 2001-2019
</metadata>
<g transform="translate(0.000000,291.000000) scale(0.100000,-0.100000)"
fill="#000000" stroke="none">
<path d="M0 2875 l0 -34 32 -17 c18 -9 47 -27 63 -39 17 -13 50 -33 75 -45 25
-12 65 -39 90 -60 47 -39 120 -80 142 -80 8 0 51 -25 97 -55 46 -31 113 -71
150 -89 36 -19 107 -61 156 -95 49 -34 96 -61 103 -61 13 0 93 -45 202 -113
30 -19 74 -39 98 -46 23 -7 67 -32 97 -56 29 -24 100 -67 157 -96 56 -28 116
-62 133 -74 16 -13 64 -40 105 -60 41 -21 88 -48 105 -60 37 -28 170 -95 188
-95 7 0 50 -25 95 -55 91 -61 144 -89 182 -98 14 -4 43 -22 65 -40 22 -19 87
-58 143 -86 57 -29 120 -64 141 -79 21 -15 71 -42 112 -60 41 -19 90 -43 109
-53 19 -11 114 -60 210 -110 96 -49 200 -106 230 -125 30 -19 72 -39 94 -45
49 -13 70 -25 126 -70 47 -37 121 -79 140 -79 27 0 149 -65 199 -106 38 -31
62 -44 85 -44 22 0 58 -18 116 -56 47 -32 117 -73 155 -92 39 -19 89 -50 113
-70 63 -50 131 -96 182 -122 25 -12 65 -39 90 -60 25 -20 63 -46 85 -58 22
-11 83 -49 135 -84 52 -35 111 -69 130 -77 19 -7 43 -17 52 -22 24 -12 165
-12 173 1 3 5 14 10 24 10 37 0 68 38 91 110 l23 71 -24 51 c-15 33 -52 77
-107 129 -54 51 -82 85 -80 97 l3 17 263 3 262 2 30 -15 c23 -12 69 -15 212
-15 140 -1 189 -4 208 -15 19 -11 66 -14 188 -15 121 0 172 -4 199 -15 46 -19
111 -19 158 1 l38 16 41 -16 c23 -9 65 -16 94 -16 28 0 70 -7 92 -16 l41 -16
42 11 c31 9 50 9 70 2 16 -6 80 -11 143 -11 79 0 126 -5 151 -15 19 -8 53 -15
75 -15 21 0 55 -7 75 -15 28 -12 84 -15 272 -15 l236 0 40 -27 c22 -15 58 -30
80 -34 22 -3 51 -9 65 -13 57 -15 135 76 128 152 l-3 36 33 19 33 19 42 -16
c32 -12 78 -16 185 -16 104 0 152 -4 179 -15 26 -11 74 -15 177 -15 l142 0 84
-30 c96 -34 129 -36 170 -15 57 29 30 95 -57 139 -25 12 -62 16 -163 16 -93 0
-141 4 -167 15 -26 11 -74 15 -180 15 -105 0 -153 4 -180 15 -24 10 -71 15
-150 15 -78 0 -125 5 -150 15 -24 10 -70 15 -147 15 -80 0 -124 5 -159 17
l-48 17 -57 -29 c-45 -24 -61 -39 -77 -72 l-19 -42 -36 -1 c-19 0 -85 -3 -146
-6 -88 -4 -118 -2 -149 10 l-37 16 -475 0 -474 0 -36 15 c-28 12 -84 15 -262
15 -177 1 -231 4 -251 15 -19 11 -67 14 -195 15 -128 1 -176 4 -195 15 -20 11
-79 14 -290 15 -200 0 -276 3 -310 14 -105 33 -143 39 -285 45 -82 3 -156 10
-163 14 -8 5 -44 -1 -91 -17 l-77 -26 -60 20 c-80 28 -95 36 -194 103 -53 36
-95 57 -113 57 -27 0 -99 38 -218 114 -33 22 -68 36 -86 36 -21 0 -46 12 -75
35 -46 37 -189 115 -210 115 -7 0 -33 14 -58 30 -25 16 -51 30 -58 30 -7 0
-43 18 -80 40 -36 22 -83 45 -102 50 -20 5 -54 25 -76 43 -38 33 -173 107
-194 107 -24 0 -97 41 -144 79 -26 23 -55 41 -64 41 -28 0 -180 78 -218 113
-45 39 -85 62 -132 72 -17 3 -54 22 -81 40 -27 19 -117 68 -200 109 -83 42
-169 92 -190 111 -26 24 -48 35 -69 35 -20 0 -46 12 -74 35 -45 36 -248 145
-271 145 -7 0 -24 12 -38 26 -13 14 -81 54 -150 89 -69 35 -163 89 -208 120
-46 31 -105 63 -132 71 -27 8 -75 36 -110 64 -34 28 -69 50 -76 50 -15 0 -106
51 -204 114 -35 23 -67 36 -89 36 -26 0 -42 9 -74 44 -23 24 -54 47 -70 50
-17 4 -42 16 -57 27 -18 13 -44 19 -78 19 l-51 0 0 -35z m4740 -2421 c52 -26
117 -65 143 -86 26 -22 63 -44 81 -49 42 -12 84 -52 108 -106 30 -67 4 -96
-60 -66 -35 16 -67 38 -194 138 -31 24 -78 55 -105 69 -51 27 -83 53 -123 99
l-24 28 14 9 c28 18 65 10 160 -36z"/>
</g>
</svg>
