<?xml version="1.0" standalone="no"?>
<!DOCTYPE svg PUBLIC "-//W3C//DTD SVG 20010904//EN"
 "http://www.w3.org/TR/2001/REC-SVG-20010904/DTD/svg10.dtd">
<svg version="1.0" xmlns="http://www.w3.org/2000/svg"
 width="672.000000pt" height="117.000000pt" viewBox="0 0 672.000000 117.000000"
 preserveAspectRatio="xMidYMid meet">
<metadata>
Created by potrace 1.16, written by Peter Selinger 2001-2019
</metadata>
<g transform="translate(0.000000,117.000000) scale(0.100000,-0.100000)"
fill="#000000" stroke="none">
<path d="M5747 1142 c-22 -22 -27 -38 -27 -75 0 -65 39 -140 89 -172 45 -28
51 -35 61 -81 5 -22 4 -37 -4 -43 -11 -9 -121 -23 -166 -21 -14 1 -171 4 -350
8 -230 5 -331 11 -347 20 -13 7 -57 12 -108 12 -53 0 -99 6 -122 15 -19 8 -53
15 -75 15 -21 0 -55 7 -75 15 -19 8 -49 15 -65 15 -41 0 -119 -42 -156 -85
l-32 -36 0 -54 0 -54 48 -36 c58 -44 95 -90 90 -111 l-3 -16 -449 1 -449 2
-35 15 c-26 10 -81 14 -224 14 -145 0 -197 3 -225 15 -28 12 -84 15 -270 15
-171 0 -242 4 -266 13 -23 10 -103 14 -286 16 -195 1 -262 5 -289 17 -27 11
-89 14 -284 14 -198 0 -256 3 -285 15 -21 9 -67 15 -115 15 l-79 0 -25 -25
-25 -25 11 -20 c13 -25 100 -70 135 -70 14 0 42 -7 62 -15 27 -12 80 -15 236
-15 122 0 215 -4 238 -12 30 -8 48 -8 79 1 l39 12 37 -16 c29 -12 80 -15 241
-15 158 0 212 -3 240 -15 27 -11 77 -15 210 -15 132 0 182 -4 210 -15 28 -12
82 -15 255 -15 172 0 226 -3 255 -15 28 -12 82 -15 255 -15 161 0 227 -4 251
-14 25 -10 123 -14 436 -15 l404 -2 35 -15 c19 -7 46 -14 59 -14 14 0 54 -13
90 -30 35 -16 73 -30 84 -30 31 0 99 68 99 100 0 47 -39 90 -100 111 -30 10
-64 18 -75 19 -60 1 -213 78 -261 131 -32 37 -36 47 -24 69 12 23 71 28 117 8
15 -6 71 -15 123 -20 119 -11 124 -11 185 -3 36 5 61 3 89 -9 l38 -16 322 0
c249 0 331 -3 366 -14 159 -50 196 -53 258 -22 28 14 56 35 62 46 14 26 -8 69
-65 130 -23 25 -50 59 -60 75 -10 17 -39 49 -63 73 l-45 43 16 17 17 16 95
-32 c52 -18 105 -32 117 -32 13 0 37 -9 53 -21 17 -11 55 -33 85 -49 73 -38
130 -88 174 -154 19 -29 42 -56 50 -59 7 -3 30 6 50 19 l36 25 0 44 c0 24 -5
47 -10 50 -6 4 -21 27 -34 53 -13 26 -35 57 -48 69 -38 35 -142 103 -158 103
-8 0 -28 9 -45 21 -55 37 -124 69 -151 69 -14 0 -53 13 -87 28 -34 16 -75 32
-91 36 -17 4 -42 16 -57 27 l-27 19 -119 0 -119 0 -27 -28z"/>
<path d="M0 675 l0 -55 50 -25 c28 -14 87 -37 131 -52 45 -14 112 -41 150 -59
82 -40 179 -74 212 -74 13 0 36 -13 52 -30 16 -16 36 -30 44 -30 9 0 43 -13
77 -29 34 -16 75 -32 93 -36 17 -3 53 -22 79 -40 73 -50 188 -105 219 -105 31
0 72 -21 189 -93 l77 -47 83 0 84 0 0 33 c0 18 -7 43 -16 55 -15 22 -102 72
-125 72 -17 0 -80 31 -114 56 -17 13 -64 34 -105 47 -41 14 -102 41 -135 61
-33 20 -71 39 -85 43 -14 3 -46 18 -71 34 -25 16 -52 29 -60 29 -22 0 -191 84
-239 119 -24 17 -55 31 -69 31 -29 0 -121 30 -187 60 -79 36 -255 90 -294 90
l-40 0 0 -55z"/>
</g>
</svg>
