<?xml version="1.0" standalone="no"?>
<!DOCTYPE svg PUBLIC "-//W3C//DTD SVG 20010904//EN"
 "http://www.w3.org/TR/2001/REC-SVG-20010904/DTD/svg10.dtd">
<svg version="1.0" xmlns="http://www.w3.org/2000/svg"
 width="582.000000pt" height="234.000000pt" viewBox="0 0 582.000000 234.000000"
 preserveAspectRatio="xMidYMid meet">
<metadata>
Created by potrace 1.16, written by Peter Selinger 2001-2019
</metadata>
<g transform="translate(0.000000,234.000000) scale(0.100000,-0.100000)"
fill="#000000" stroke="none">
<path d="M4160 2289 l0 -51 29 -29 c20 -20 40 -29 61 -29 17 0 47 -7 67 -15
19 -8 48 -15 63 -15 17 0 45 -14 72 -35 46 -37 189 -115 211 -115 7 0 50 -25
95 -55 46 -30 100 -64 121 -75 48 -24 168 -105 201 -135 14 -13 40 -30 58 -39
18 -10 61 -45 96 -79 34 -34 74 -70 89 -80 15 -10 39 -41 53 -70 15 -28 44
-72 65 -97 63 -75 69 -99 69 -277 l0 -158 -18 -27 c-10 -15 -54 -65 -98 -110
l-80 -83 -71 -22 c-39 -13 -87 -23 -106 -23 -19 0 -51 -7 -70 -15 -20 -8 -54
-15 -75 -15 -22 0 -56 -7 -75 -15 -51 -21 -303 -21 -354 0 -19 8 -60 15 -90
15 -29 0 -70 7 -90 15 -19 8 -60 15 -90 15 -29 0 -70 7 -90 15 -19 8 -60 15
-90 15 -61 0 -149 35 -224 89 -23 17 -49 31 -58 31 -30 0 -60 30 -71 69 -6 24
-25 53 -50 75 l-40 36 -64 0 c-35 0 -80 -7 -99 -15 l-36 -15 -426 0 -426 0
-35 15 -35 15 -308 -1 -307 -1 -38 16 c-30 13 -75 16 -210 16 -120 0 -184 4
-216 14 -87 27 -136 38 -210 45 -99 11 -190 57 -235 121 -22 32 -43 49 -71 58
-56 18 -78 30 -174 95 l-85 57 -40 0 c-23 0 -79 13 -125 30 l-85 30 -145 -1
c-159 0 -228 -15 -275 -59 l-25 -23 0 -58 0 -58 30 -16 c16 -8 35 -15 43 -15
7 0 26 -13 41 -29 15 -16 46 -36 69 -46 23 -9 62 -27 87 -40 25 -12 74 -26
109 -30 35 -4 100 -20 145 -36 44 -16 92 -29 106 -29 14 0 50 -12 80 -27 52
-25 85 -32 220 -49 65 -8 102 -37 126 -100 l16 -42 -20 -43 c-10 -24 -32 -57
-48 -73 -42 -42 -163 -96 -215 -96 -24 -1 -55 -7 -69 -15 -14 -8 -38 -14 -53
-15 -39 0 -67 -17 -67 -40 0 -23 28 -40 65 -40 14 0 40 -7 57 -16 33 -17 101
-15 178 6 160 44 177 51 223 98 51 53 147 235 147 280 0 15 5 33 12 40 18 18
259 16 305 -3 24 -10 71 -15 150 -15 78 0 125 -5 150 -15 25 -11 72 -15 164
-15 80 0 138 -5 156 -12 22 -10 425 -28 598 -27 11 1 151 3 312 5 l292 5 37
-16 c20 -8 48 -15 63 -15 16 0 61 -23 109 -55 106 -70 125 -80 223 -112 45
-14 117 -43 161 -64 l79 -39 85 0 c53 0 98 -6 121 -15 19 -8 53 -15 75 -15 21
0 55 -7 75 -15 52 -22 464 -22 516 0 21 8 67 15 105 15 39 0 85 7 105 15 20 8
55 15 77 15 48 0 91 21 214 103 137 92 170 127 232 249 l54 108 0 115 c0 91
-5 129 -21 177 -30 91 -46 117 -109 183 -31 33 -68 78 -82 100 -29 45 -179
190 -259 250 -62 47 -128 84 -149 85 -9 0 -53 25 -99 56 -46 30 -105 66 -130
80 -55 28 -116 88 -107 103 11 17 209 14 253 -4 23 -10 69 -15 135 -15 65 0
111 -5 135 -15 51 -21 375 -21 426 0 20 8 48 15 62 15 l25 0 0 70 0 70 -44 0
c-24 0 -61 -7 -82 -16 -29 -12 -57 -15 -118 -10 -109 8 -113 8 -171 1 -36 -5
-61 -3 -89 9 -25 10 -68 16 -123 16 -52 0 -97 6 -120 15 -24 10 -71 15 -150
15 -78 0 -125 5 -150 15 -24 10 -70 15 -139 15 -58 0 -106 4 -109 10 -4 6 -77
10 -186 10 l-179 0 0 -51z m-3773 -948 c29 -6 61 -15 72 -20 11 -6 32 -11 48
-11 15 0 48 -14 73 -30 25 -16 52 -30 61 -30 21 0 114 -67 114 -83 0 -29 -96
-10 -211 43 -64 29 -160 60 -189 60 -34 0 -90 51 -82 75 6 13 14 16 35 11 15
-3 50 -10 79 -15z"/>
<path d="M629 256 c-61 -19 -69 -31 -69 -103 l0 -65 28 -44 27 -43 58 -1 58 0
35 27 c36 27 84 108 84 141 0 24 -22 43 -87 76 -57 28 -78 30 -134 12z"/>
</g>
</svg>
