<?xml version="1.0" standalone="no"?>
<!DOCTYPE svg PUBLIC "-//W3C//DTD SVG 20010904//EN"
 "http://www.w3.org/TR/2001/REC-SVG-20010904/DTD/svg10.dtd">
<svg version="1.0" xmlns="http://www.w3.org/2000/svg"
 width="537.000000pt" height="225.000000pt" viewBox="0 0 537.000000 225.000000"
 preserveAspectRatio="xMidYMid meet">
<metadata>
Created by potrace 1.16, written by Peter Selinger 2001-2019
</metadata>
<g transform="translate(0.000000,225.000000) scale(0.100000,-0.100000)"
fill="#000000" stroke="none">
<path d="M1642 2212 l-21 -38 11 -40 c15 -52 23 -61 77 -90 154 -84 313 -192
349 -238 18 -22 51 -63 73 -91 61 -75 79 -119 79 -199 0 -84 -18 -117 -95
-175 -39 -29 -55 -48 -55 -65 0 -36 30 -56 86 -56 l50 0 69 48 69 48 23 64
c16 48 23 88 23 151 l0 87 -36 77 c-42 87 -38 104 19 80 20 -8 60 -15 89 -15
51 0 165 -32 226 -64 32 -17 223 -78 294 -95 33 -7 56 -8 75 0 21 8 37 6 69
-6 l42 -16 254 5 c139 3 273 6 298 8 69 5 146 51 238 143 l82 83 0 81 0 82 25
24 c29 30 86 33 142 10 19 -8 60 -15 90 -15 29 0 70 -7 90 -15 22 -9 67 -15
120 -15 52 0 97 -6 120 -15 22 -9 67 -15 120 -15 52 0 97 -6 120 -15 28 -12
85 -15 274 -15 l239 0 0 55 0 55 -40 0 c-22 0 -57 7 -77 15 -24 10 -71 15
-150 15 -78 0 -125 5 -150 15 -27 11 -77 15 -210 15 -132 0 -182 4 -210 15
-19 8 -53 15 -75 15 -21 0 -55 7 -75 15 -19 8 -60 15 -90 15 -29 0 -70 7 -90
15 -19 8 -59 15 -87 15 -28 0 -71 6 -96 14 -25 8 -71 20 -102 27 l-58 12 -41
-18 c-47 -22 -79 -58 -79 -90 0 -13 20 -47 44 -76 24 -30 49 -70 56 -89 l12
-35 -15 -35 c-28 -66 -117 -130 -180 -130 -14 0 -42 -7 -63 -16 l-39 -17 -194
1 c-141 1 -207 5 -240 16 -68 21 -137 35 -216 42 -80 7 -186 39 -272 83 -70
35 -173 71 -204 71 -11 0 -50 14 -86 30 -35 17 -70 30 -76 30 -7 0 -25 9 -42
21 -55 37 -124 69 -150 69 -43 0 -107 35 -173 94 -35 31 -71 56 -82 56 -10 0
-22 5 -25 10 -3 6 -34 10 -69 10 l-62 0 -22 -38z"/>
<path d="M28 1164 l-28 -15 0 -38 0 -37 63 -51 c34 -28 90 -74 124 -102 34
-27 84 -61 110 -75 26 -13 76 -48 110 -77 80 -69 148 -120 248 -187 44 -30 98
-71 120 -92 22 -21 60 -48 85 -60 59 -30 128 -83 163 -126 17 -20 43 -38 67
-44 23 -6 47 -22 57 -36 43 -62 80 -97 124 -120 63 -31 84 -30 120 5 l29 29 0
54 c0 41 -6 62 -26 91 -14 21 -24 46 -22 55 4 23 127 102 159 102 15 0 43 7
62 15 52 22 392 22 444 0 19 -8 60 -15 90 -15 29 0 70 -7 90 -15 19 -8 53 -15
74 -15 21 0 50 -5 65 -10 19 -7 37 -7 60 0 25 9 40 8 69 -5 21 -8 47 -15 59
-15 12 0 60 -13 106 -30 47 -16 96 -30 110 -30 14 0 50 -12 80 -27 30 -14 80
-30 110 -34 167 -22 277 -51 369 -98 22 -12 45 -21 51 -21 6 0 36 -11 66 -25
30 -14 67 -25 82 -25 15 0 47 -9 71 -20 24 -11 54 -20 66 -20 24 0 55 -23 55
-41 0 -5 33 -9 73 -9 l74 0 13 41 c10 28 11 46 4 57 -11 18 -200 121 -222 122
-8 0 -43 13 -79 30 -45 21 -80 30 -116 30 -50 0 -165 33 -224 64 -16 8 -77 30
-136 50 -79 27 -124 36 -172 36 -36 0 -82 7 -102 15 -19 8 -47 15 -62 15 -14
0 -51 12 -81 26 -104 49 -141 58 -335 83 -44 5 -122 10 -172 10 -59 1 -107 7
-131 16 l-38 16 -230 -4 c-147 -2 -245 -8 -274 -16 -139 -40 -177 -55 -219
-84 -25 -18 -53 -41 -62 -51 l-16 -20 -59 24 c-32 13 -81 43 -110 66 -28 23
-67 50 -85 60 -19 9 -52 36 -74 60 -24 26 -72 59 -121 83 -45 22 -106 62 -135
89 -30 27 -74 59 -99 72 -25 12 -65 39 -90 60 -25 20 -68 49 -96 63 -28 14
-75 48 -105 75 -57 52 -126 92 -156 92 -10 -1 -30 -8 -45 -16z"/>
</g>
</svg>
