<?xml version="1.0" standalone="no"?>
<!DOCTYPE svg PUBLIC "-//W3C//DTD SVG 20010904//EN"
 "http://www.w3.org/TR/2001/REC-SVG-20010904/DTD/svg10.dtd">
<svg version="1.0" xmlns="http://www.w3.org/2000/svg"
 width="312.000000pt" height="129.000000pt" viewBox="0 0 312.000000 129.000000"
 preserveAspectRatio="xMidYMid meet">
<metadata>
Created by potrace 1.16, written by Peter Selinger 2001-2019
</metadata>
<g transform="translate(0.000000,129.000000) scale(0.100000,-0.100000)"
fill="#000000" stroke="none">
<path d="M1355 1280 c-3 -5 -15 -10 -25 -10 -10 0 -32 -12 -49 -26 -44 -37
-121 -155 -121 -186 0 -15 -5 -39 -10 -53 -13 -34 9 -114 43 -159 13 -17 34
-51 47 -76 12 -25 33 -60 47 -78 13 -17 21 -37 18 -42 -10 -17 -240 -12 -282
5 -23 10 -69 15 -135 15 -65 0 -111 5 -135 15 -26 11 -74 15 -180 15 -105 0
-153 4 -180 15 -51 22 -322 21 -363 0 l-30 -16 0 -54 0 -55 85 0 c54 0 99 -6
122 -15 26 -11 74 -15 180 -15 105 0 153 -4 180 -15 23 -10 69 -15 135 -15 65
0 111 -5 135 -15 23 -10 69 -15 135 -15 65 0 111 -5 135 -15 19 -8 53 -15 75
-15 21 0 55 -7 75 -15 24 -10 70 -15 146 -15 156 0 215 -21 313 -112 41 -37
82 -68 92 -68 10 0 55 -25 100 -55 92 -61 154 -95 174 -95 7 0 31 -12 53 -27
22 -15 61 -30 87 -34 27 -4 61 -17 77 -28 l29 -21 209 0 210 0 10 37 c28 100
32 130 21 169 -15 52 -24 61 -77 89 -25 13 -68 42 -95 64 -30 26 -58 41 -75
41 -15 0 -65 13 -111 30 -47 16 -101 30 -120 30 -19 0 -75 13 -125 29 -122 39
-170 51 -240 60 -34 5 -70 13 -82 19 -12 7 -47 12 -78 12 -68 0 -131 27 -171
71 -16 18 -51 56 -79 84 -71 74 -130 154 -145 196 l-13 37 19 32 c37 63 124
87 201 55 27 -12 81 -15 240 -15 158 0 212 -3 240 -15 20 -8 66 -15 105 -15
38 0 84 -7 105 -15 20 -8 66 -15 105 -15 38 0 84 -7 105 -15 19 -8 52 -15 72
-15 20 0 56 -6 81 -14 78 -25 133 -37 195 -45 34 -5 70 -13 82 -19 12 -7 49
-12 83 -12 122 0 154 50 82 128 -30 32 -46 42 -71 42 -17 0 -48 7 -68 15 -19
8 -60 15 -90 15 -29 0 -70 7 -90 15 -19 8 -53 15 -75 15 -21 0 -55 7 -75 15
-19 8 -53 15 -75 15 -21 0 -55 7 -75 15 -19 8 -60 15 -90 15 -29 0 -70 7 -90
15 -19 8 -60 15 -90 15 -29 0 -70 7 -90 15 -26 11 -74 15 -180 15 -105 0 -153
4 -180 15 -22 9 -67 15 -117 15 -74 0 -171 22 -193 43 -10 11 -71 8 -78 -3z
m844 -981 c20 -6 51 -18 69 -25 18 -8 54 -14 81 -14 l47 0 50 -35 c53 -38 62
-58 26 -63 -26 -4 -123 28 -193 63 -26 14 -57 25 -67 25 -21 0 -72 36 -72 51
0 12 16 11 59 -2z"/>
</g>
</svg>
