<?xml version="1.0" standalone="no"?>
<!DOCTYPE svg PUBLIC "-//W3C//DTD SVG 20010904//EN"
 "http://www.w3.org/TR/2001/REC-SVG-20010904/DTD/svg10.dtd">
<svg version="1.0" xmlns="http://www.w3.org/2000/svg"
 width="609.000000pt" height="333.000000pt" viewBox="0 0 609.000000 333.000000"
 preserveAspectRatio="xMidYMid meet">
<metadata>
Created by potrace 1.16, written by Peter Selinger 2001-2019
</metadata>
<g transform="translate(0.000000,333.000000) scale(0.100000,-0.100000)"
fill="#000000" stroke="none">
<path d="M23 3304 l-23 -25 0 -81 0 -80 28 -33 c15 -19 47 -61 72 -95 63 -87
235 -265 295 -305 28 -19 72 -57 100 -85 31 -32 64 -54 87 -61 24 -6 65 -35
113 -79 41 -39 82 -70 91 -70 31 0 149 -62 203 -106 29 -24 61 -44 70 -44 24
0 191 -83 241 -119 l43 -31 56 0 c57 0 165 -31 240 -69 28 -15 59 -21 103 -21
l63 0 45 30 c57 38 111 40 161 5 20 -13 65 -38 100 -56 75 -37 219 -131 244
-159 10 -11 35 -25 56 -30 21 -6 61 -32 91 -59 29 -26 69 -56 88 -66 51 -25
195 -123 215 -145 10 -11 35 -25 56 -30 21 -6 61 -32 92 -60 29 -27 87 -65
128 -86 41 -20 94 -53 119 -74 47 -39 120 -80 142 -80 16 0 140 -81 185 -121
23 -19 45 -29 66 -29 23 0 58 -17 117 -56 47 -32 115 -72 152 -91 37 -18 106
-60 155 -93 48 -33 94 -60 101 -60 25 0 86 -33 132 -70 46 -38 120 -80 141
-80 21 0 84 -34 169 -92 47 -32 91 -58 98 -58 19 0 161 -86 197 -120 17 -15
42 -30 58 -34 15 -3 58 -35 95 -71 49 -46 97 -78 170 -114 56 -28 109 -51 117
-51 9 0 27 -11 41 -25 l25 -25 114 0 115 0 0 46 c0 58 -11 78 -61 109 -21 14
-63 47 -92 73 -28 26 -72 55 -97 65 -90 37 -107 49 -135 94 -42 65 -58 73
-145 73 -88 0 -90 1 -205 107 -44 40 -92 84 -107 97 l-28 25 0 66 c0 36 5 75
10 86 l11 19 114 0 c62 0 126 -5 141 -10 19 -7 37 -7 60 0 25 9 40 8 69 -5 25
-10 70 -15 137 -15 65 0 111 -5 135 -15 22 -9 67 -15 120 -15 52 0 97 -6 120
-15 24 -10 70 -15 144 -15 60 0 129 -5 154 -12 l45 -12 55 54 c41 40 55 62 55
82 l0 28 -55 0 c-31 0 -72 7 -92 15 -25 11 -72 15 -165 15 -92 0 -139 4 -165
15 -23 10 -69 15 -135 15 -65 0 -111 5 -135 15 -22 9 -67 15 -120 15 -52 0
-97 6 -120 15 -26 11 -74 15 -180 15 -105 0 -153 4 -180 15 -50 21 -133 19
-206 -6 -76 -26 -82 -30 -114 -93 l-26 -51 12 -43 c15 -57 14 -62 -9 -62 -28
0 -87 33 -144 80 -26 22 -55 40 -63 40 -22 0 -139 56 -176 84 -18 13 -66 41
-107 62 -41 20 -88 47 -105 60 -16 12 -76 46 -133 74 -57 28 -139 76 -183 107
-44 30 -115 72 -157 93 -42 21 -99 57 -126 79 -26 23 -56 41 -66 41 -9 0 -37
15 -60 33 -104 77 -155 110 -186 119 -18 5 -57 30 -86 57 -29 26 -72 58 -94
69 -23 12 -78 46 -123 77 -44 30 -117 74 -161 96 -50 26 -91 55 -107 76 -15
20 -55 49 -93 68 -37 19 -103 58 -146 88 -44 30 -102 66 -129 80 -28 14 -78
50 -113 81 -34 31 -70 56 -80 56 -19 0 -138 76 -189 121 -19 16 -42 29 -52 29
-10 0 -38 15 -61 33 -104 77 -155 110 -186 119 -18 5 -57 30 -86 57 -52 48
-124 91 -151 91 -8 0 -34 15 -57 33 -104 77 -155 110 -186 119 -18 5 -57 31
-87 58 -29 27 -85 65 -125 84 -39 20 -110 63 -159 96 -48 33 -95 60 -105 60
-9 0 -20 5 -23 10 -4 6 -56 10 -128 9 l-122 -1 -22 -24z m363 -269 c31 -25 64
-45 72 -45 29 0 149 -63 201 -106 29 -24 60 -44 68 -44 26 0 86 -32 133 -70
25 -21 64 -47 86 -58 51 -26 168 -105 212 -143 18 -16 41 -29 50 -29 10 0 56
-25 102 -56 47 -32 117 -73 155 -92 39 -19 90 -51 115 -72 25 -21 69 -50 97
-64 66 -35 80 -51 63 -71 -19 -22 -74 -18 -136 10 -85 39 -170 65 -211 65 -25
0 -53 10 -83 30 -25 16 -51 30 -58 30 -7 0 -43 18 -80 40 -36 22 -83 45 -104
50 -20 6 -61 32 -90 59 -29 26 -69 56 -88 66 -51 25 -195 123 -215 145 -10 11
-35 25 -56 30 -39 11 -72 40 -112 100 -15 23 -36 39 -62 48 -44 14 -75 44 -75
72 0 10 -18 41 -41 70 l-40 51 12 15 c17 20 20 19 85 -31z"/>
</g>
</svg>
