<?xml version="1.0" standalone="no"?>
<!DOCTYPE svg PUBLIC "-//W3C//DTD SVG 20010904//EN"
 "http://www.w3.org/TR/2001/REC-SVG-20010904/DTD/svg10.dtd">
<svg version="1.0" xmlns="http://www.w3.org/2000/svg"
 width="222.000000pt" height="126.000000pt" viewBox="0 0 222.000000 126.000000"
 preserveAspectRatio="xMidYMid meet">
<metadata>
Created by potrace 1.16, written by Peter Selinger 2001-2019
</metadata>
<g transform="translate(0.000000,126.000000) scale(0.100000,-0.100000)"
fill="#000000" stroke="none">
<path d="M40 1246 c0 -7 -9 -25 -20 -39 -21 -27 -28 -111 -10 -122 6 -3 10
-33 10 -66 l0 -59 49 -98 c27 -53 61 -108 75 -121 14 -14 26 -31 26 -38 0 -26
42 -98 84 -143 23 -25 64 -79 91 -120 27 -41 61 -89 75 -106 15 -17 52 -70 83
-117 31 -47 70 -95 87 -107 16 -12 30 -29 30 -39 0 -9 13 -29 28 -44 39 -38
82 -36 116 4 35 41 33 59 -15 115 -22 27 -62 92 -89 144 -28 52 -73 121 -100
154 -28 32 -58 73 -67 90 -9 17 -33 51 -54 76 -20 25 -60 92 -89 150 -29 58
-61 116 -70 130 -10 14 -27 52 -39 83 -33 95 -11 112 86 67 35 -16 72 -30 80
-30 9 0 33 -18 54 -41 20 -22 60 -57 88 -78 64 -48 177 -173 203 -226 11 -22
27 -48 36 -57 l15 -18 224 0 c176 0 231 -3 260 -15 28 -12 82 -15 255 -15 172
0 226 -3 255 -15 25 -11 72 -15 164 -15 70 0 140 -5 154 -10 19 -7 39 -7 66 1
l39 12 0 53 0 53 -30 16 c-16 8 -54 15 -84 15 -30 0 -67 5 -83 12 -15 6 -75
15 -133 19 -58 5 -130 12 -160 18 -30 5 -119 10 -198 10 -103 1 -153 5 -179
16 -26 11 -74 15 -182 15 l-146 0 -108 71 c-69 45 -116 84 -131 107 -30 46
-53 67 -143 126 -40 26 -91 63 -114 82 -22 19 -47 34 -55 34 -19 0 -101 37
-136 61 l-26 19 -136 0 c-108 0 -136 -3 -136 -14z"/>
</g>
</svg>
