<?xml version="1.0" standalone="no"?>
<!DOCTYPE svg PUBLIC "-//W3C//DTD SVG 20010904//EN"
 "http://www.w3.org/TR/2001/REC-SVG-20010904/DTD/svg10.dtd">
<svg version="1.0" xmlns="http://www.w3.org/2000/svg"
 width="264.000000pt" height="162.000000pt" viewBox="0 0 264.000000 162.000000"
 preserveAspectRatio="xMidYMid meet">
<metadata>
Created by potrace 1.16, written by Peter Selinger 2001-2019
</metadata>
<g transform="translate(0.000000,162.000000) scale(0.100000,-0.100000)"
fill="#000000" stroke="none">
<path d="M616 1567 l-56 -53 0 -36 c0 -23 17 -71 45 -129 25 -51 45 -100 45
-109 0 -9 10 -25 21 -36 30 -27 92 -112 117 -160 11 -22 37 -53 57 -68 19 -15
49 -53 65 -84 16 -31 57 -88 90 -127 33 -38 74 -94 91 -123 17 -29 46 -64 64
-78 18 -13 48 -52 66 -85 19 -34 39 -71 46 -82 7 -12 10 -23 8 -25 -6 -7 -253
116 -294 146 -21 15 -58 36 -82 46 -24 10 -53 22 -64 27 -19 9 -105 59 -216
127 -30 18 -65 35 -79 38 -14 4 -38 19 -55 34 -16 16 -72 49 -122 75 -51 25
-132 73 -180 105 l-88 60 -47 0 -48 0 0 -43 0 -43 37 -38 c69 -69 154 -127
276 -189 66 -33 137 -75 158 -94 20 -18 43 -33 50 -33 20 0 158 -77 258 -142
31 -21 63 -38 71 -38 9 0 54 -25 100 -56 47 -32 119 -74 160 -95 41 -21 97
-56 124 -78 26 -23 55 -41 63 -41 28 0 88 -34 154 -87 l66 -53 44 0 44 1 28
43 c34 55 34 77 -2 118 -36 42 -116 160 -140 207 -11 20 -31 47 -45 60 -14 14
-26 32 -26 41 0 9 -12 27 -26 41 -14 13 -43 53 -64 89 -21 36 -80 112 -130
169 -50 57 -107 128 -126 159 -20 31 -60 79 -89 107 -40 38 -57 63 -69 103 -8
29 -31 71 -50 93 -19 22 -41 62 -50 88 -8 26 -18 54 -20 62 -3 7 -2 20 3 27
l8 14 52 -16 c28 -8 65 -25 81 -36 17 -12 43 -25 59 -30 16 -4 78 -41 139 -81
80 -53 118 -85 138 -117 15 -23 43 -56 61 -73 l34 -29 62 0 c34 0 81 8 105 17
l44 17 43 -12 c31 -8 52 -8 73 -1 23 8 39 7 67 -5 29 -13 76 -16 212 -16 132
0 182 -4 210 -15 24 -10 69 -15 138 -15 69 0 114 5 138 15 20 8 55 15 77 15
23 0 54 7 70 15 l30 16 0 69 0 70 -29 0 c-16 0 -45 -7 -64 -15 -52 -22 -422
-22 -474 0 l-35 15 -265 0 -264 0 -44 20 c-24 11 -56 36 -71 56 -27 34 -89 74
-117 74 -7 0 -24 12 -38 26 -30 32 -210 154 -228 154 -7 0 -42 14 -78 30 -35
17 -71 30 -78 30 -8 0 -17 5 -20 10 -3 6 -42 10 -85 10 l-78 0 -56 -53z"/>
</g>
</svg>
