<?xml version="1.0" standalone="no"?>
<!DOCTYPE svg PUBLIC "-//W3C//DTD SVG 20010904//EN"
 "http://www.w3.org/TR/2001/REC-SVG-20010904/DTD/svg10.dtd">
<svg version="1.0" xmlns="http://www.w3.org/2000/svg"
 width="471.000000pt" height="234.000000pt" viewBox="0 0 471.000000 234.000000"
 preserveAspectRatio="xMidYMid meet">
<metadata>
Created by potrace 1.16, written by Peter Selinger 2001-2019
</metadata>
<g transform="translate(0.000000,234.000000) scale(0.100000,-0.100000)"
fill="#000000" stroke="none">
<path d="M125 2330 c-3 -5 -14 -10 -24 -10 -9 0 -36 -14 -59 -31 l-42 -31 0
-99 c0 -55 4 -107 9 -117 5 -9 14 -29 20 -44 5 -15 28 -38 50 -52 21 -14 49
-39 61 -56 12 -17 52 -46 92 -66 38 -19 88 -48 110 -65 23 -16 48 -29 57 -29
9 0 36 -14 61 -30 32 -22 57 -30 88 -30 23 0 59 -7 79 -15 19 -8 45 -15 57
-15 42 0 216 -67 244 -93 l28 -27 57 0 c32 0 74 -7 94 -15 21 -9 67 -15 117
-15 l81 0 105 -35 c160 -54 206 -80 290 -164 41 -42 93 -92 115 -111 59 -52
133 -147 167 -215 17 -33 43 -78 59 -100 34 -48 79 -176 79 -226 0 -20 7 -53
15 -72 10 -24 15 -70 15 -134 l0 -99 -33 -69 c-19 -39 -40 -75 -48 -82 -20
-16 -129 -53 -157 -53 -12 0 -41 -9 -62 -20 -41 -21 -47 -37 -34 -87 l6 -23
69 0 68 0 25 25 c14 14 32 25 40 25 8 0 44 13 79 30 36 16 71 30 79 30 28 0
60 34 95 103 38 73 38 77 59 286 7 64 -3 133 -32 221 -8 25 -14 62 -14 83 0
39 -26 100 -65 152 -12 17 -30 46 -40 65 -10 19 -33 52 -51 72 -18 20 -42 55
-53 77 -11 22 -40 52 -63 68 -25 16 -51 45 -61 67 l-18 39 14 14 14 14 38 -15
37 -16 223 0 c175 0 230 3 258 15 25 10 72 15 150 15 79 0 126 5 150 15 20 8
52 15 72 15 45 0 139 31 224 75 80 41 231 144 241 165 12 23 51 121 67 165 20
58 45 75 109 75 30 0 71 -7 91 -15 22 -9 67 -15 120 -15 52 0 97 -6 120 -15
25 -11 72 -15 165 -15 92 0 139 -4 165 -15 51 -21 375 -21 426 0 20 8 48 15
62 15 l25 0 0 70 0 70 -250 0 c-200 0 -258 3 -287 15 l-35 15 -265 0 -264 0
-36 15 c-19 8 -60 15 -90 15 -29 0 -70 7 -90 15 -19 8 -64 15 -100 15 l-65 0
-29 -29 -29 -29 0 -54 c0 -40 6 -62 25 -90 14 -20 25 -42 25 -48 0 -6 -13 -39
-29 -74 -27 -60 -60 -96 -88 -96 -7 0 -36 -11 -65 -24 -29 -14 -80 -34 -113
-45 l-59 -21 -127 0 c-90 0 -137 -4 -162 -15 -53 -22 -481 -22 -534 0 -26 11
-76 15 -199 15 -92 0 -165 4 -169 10 -8 12 -140 118 -193 154 -24 16 -62 46
-86 67 -23 21 -61 47 -85 59 -23 13 -54 38 -68 57 -15 19 -52 47 -83 63 -31
16 -83 51 -116 79 -32 28 -86 65 -119 82 -33 17 -80 48 -105 69 -78 65 -194
110 -280 110 -28 0 -67 7 -87 15 -19 8 -48 15 -64 15 -15 0 -31 5 -34 10 -4 6
-53 10 -115 10 -62 0 -111 -4 -115 -10z m385 -185 c140 -48 206 -79 260 -124
25 -21 64 -48 86 -59 48 -24 168 -104 204 -136 14 -12 45 -35 69 -51 61 -41
101 -80 101 -99 l0 -16 -67 0 c-38 0 -88 6 -113 14 -59 19 -125 35 -175 45
-22 4 -58 19 -80 34 -22 15 -52 27 -68 27 -15 0 -44 7 -64 15 -19 8 -47 15
-62 15 -37 0 -207 84 -261 128 -25 21 -61 48 -82 62 -61 41 -85 109 -58 161
l11 19 97 0 97 0 105 -35z"/>
</g>
</svg>
