<?xml version="1.0" standalone="no"?>
<!DOCTYPE svg PUBLIC "-//W3C//DTD SVG 20010904//EN"
 "http://www.w3.org/TR/2001/REC-SVG-20010904/DTD/svg10.dtd">
<svg version="1.0" xmlns="http://www.w3.org/2000/svg"
 width="381.000000pt" height="312.000000pt" viewBox="0 0 381.000000 312.000000"
 preserveAspectRatio="xMidYMid meet">
<metadata>
Created by potrace 1.16, written by Peter Selinger 2001-2019
</metadata>
<g transform="translate(0.000000,312.000000) scale(0.100000,-0.100000)"
fill="#000000" stroke="none">
<path d="M2102 3087 c-23 -64 -16 -117 26 -178 49 -71 194 -221 248 -255 22
-14 55 -47 72 -74 17 -26 44 -58 59 -69 16 -12 53 -40 83 -64 30 -23 71 -53
90 -66 20 -13 47 -40 62 -60 15 -20 70 -83 122 -140 53 -58 96 -108 96 -113 0
-4 22 -32 49 -62 27 -30 65 -79 85 -110 19 -30 50 -72 69 -93 19 -21 37 -49
40 -63 4 -14 22 -50 41 -80 80 -126 146 -290 146 -360 0 -16 5 -41 10 -56 7
-19 7 -37 0 -59 -7 -22 -7 -40 0 -60 8 -21 6 -40 -7 -82 -26 -80 -54 -96 -171
-103 l-94 -5 -24 -28 -24 -28 0 -78 c0 -48 6 -93 15 -115 19 -46 13 -57 -28
-50 -37 7 -92 40 -145 88 -20 18 -53 41 -72 51 -19 9 -55 34 -80 55 -54 45
-104 70 -188 96 -95 29 -99 48 -27 133 l35 43 0 109 0 109 -51 101 c-61 123
-121 212 -160 240 -16 11 -29 29 -29 40 0 11 -29 50 -64 88 -35 37 -75 86 -90
109 -17 28 -43 50 -77 68 -28 14 -69 39 -92 55 -22 16 -46 29 -54 29 -8 0 -44
18 -81 40 -37 23 -78 43 -92 46 -14 2 -43 9 -65 15 -22 6 -61 14 -87 19 -26 5
-56 13 -67 19 -11 6 -72 11 -136 11 -91 0 -129 -4 -177 -21 -88 -29 -111 -43
-142 -83 -31 -41 -47 -44 -84 -17 -15 10 -47 29 -72 41 -25 12 -65 39 -89 58
-70 57 -155 112 -172 112 -8 0 -26 12 -40 26 -13 14 -41 35 -63 46 -21 11 -57
33 -79 49 -22 16 -47 29 -56 29 -9 0 -41 25 -71 56 -53 54 -114 94 -143 94 -7
0 -24 12 -38 26 -28 31 -130 84 -159 84 -42 0 -60 -18 -60 -59 l0 -39 23 -6
c12 -3 42 -21 67 -41 25 -19 70 -55 101 -79 31 -24 70 -51 87 -60 17 -9 51
-34 76 -55 48 -42 159 -118 236 -163 25 -14 54 -36 65 -48 11 -12 46 -35 78
-51 32 -16 74 -45 95 -63 20 -18 48 -39 62 -46 47 -24 185 -119 239 -165 29
-25 57 -45 61 -45 8 0 63 -51 182 -167 18 -17 46 -48 62 -68 16 -20 46 -45 68
-56 21 -11 56 -35 76 -53 20 -18 51 -41 68 -49 54 -28 167 -107 209 -147 22
-21 63 -49 90 -63 28 -14 78 -50 113 -81 34 -31 71 -56 81 -56 9 0 28 -12 42
-26 13 -14 42 -35 64 -46 22 -12 54 -32 72 -45 17 -13 47 -28 66 -34 19 -5 61
-33 94 -62 32 -28 78 -60 103 -70 83 -34 107 -48 156 -91 27 -24 73 -55 102
-70 29 -15 69 -42 90 -60 20 -18 53 -41 72 -51 19 -9 55 -34 80 -55 25 -20 60
-45 78 -54 18 -9 50 -32 70 -50 20 -18 49 -36 64 -39 14 -4 51 -29 81 -57 30
-27 72 -55 93 -62 27 -9 47 -26 67 -56 16 -23 41 -49 57 -57 16 -8 35 -24 43
-35 l15 -21 78 3 79 3 3 77 3 76 -30 7 c-35 8 -375 342 -384 377 -4 13 -25 53
-47 91 -32 53 -39 71 -31 86 11 19 68 51 93 51 24 0 127 79 142 108 28 55 86
243 86 281 0 21 -7 55 -15 74 -8 20 -15 54 -15 76 0 23 -12 66 -30 103 -16 34
-30 69 -30 76 0 25 -63 137 -101 181 -21 24 -41 59 -45 78 -4 19 -22 52 -40
75 -19 22 -63 84 -98 137 -35 53 -82 119 -105 145 -23 26 -50 65 -61 85 -10
21 -35 51 -55 67 -20 16 -50 43 -66 59 -42 43 -119 120 -154 154 -16 16 -41
43 -53 60 -13 17 -82 70 -154 117 -89 59 -137 98 -153 124 -13 21 -44 55 -69
75 -46 39 -73 82 -59 96 10 10 88 -12 149 -41 59 -27 160 -60 185 -60 34 0 75
-30 105 -77 57 -90 121 -125 157 -85 40 44 -2 162 -72 207 -22 13 -54 37 -73
53 -42 37 -110 72 -140 72 -43 0 -188 55 -240 91 l-26 19 -134 0 -134 0 -12
-33z m-485 -1052 c39 -13 90 -33 112 -44 22 -12 46 -21 53 -21 31 0 198 -93
221 -123 14 -18 44 -45 68 -60 30 -19 62 -55 99 -110 30 -45 71 -102 91 -127
45 -55 102 -168 136 -267 l25 -74 -16 -25 c-9 -13 -23 -24 -32 -24 -43 0 -249
116 -349 197 -48 39 -162 125 -209 158 -24 17 -60 45 -80 63 -21 18 -83 63
-139 100 -56 36 -122 85 -147 107 -25 22 -61 52 -82 65 -47 31 -68 68 -68 118
0 45 4 49 70 74 68 25 162 22 247 -7z"/>
</g>
</svg>
