<?xml version="1.0" standalone="no"?>
<!DOCTYPE svg PUBLIC "-//W3C//DTD SVG 20010904//EN"
 "http://www.w3.org/TR/2001/REC-SVG-20010904/DTD/svg10.dtd">
<svg version="1.0" xmlns="http://www.w3.org/2000/svg"
 width="288.000000pt" height="258.000000pt" viewBox="0 0 288.000000 258.000000"
 preserveAspectRatio="xMidYMid meet">
<metadata>
Created by potrace 1.16, written by Peter Selinger 2001-2019
</metadata>
<g transform="translate(0.000000,258.000000) scale(0.100000,-0.100000)"
fill="#000000" stroke="none">
<path d="M1235 2570 c-3 -5 -14 -10 -24 -10 -31 0 -71 -39 -71 -68 1 -46 60
-133 176 -261 34 -37 73 -85 87 -107 13 -22 45 -52 69 -68 25 -16 58 -48 74
-73 16 -25 52 -60 83 -81 66 -44 168 -147 216 -218 18 -27 53 -63 77 -78 24
-15 54 -43 67 -62 13 -19 45 -50 71 -69 26 -19 60 -54 76 -77 27 -40 50 -70
153 -203 21 -27 46 -66 56 -85 10 -19 33 -52 51 -72 19 -21 59 -88 90 -150 31
-62 69 -126 84 -143 15 -16 30 -46 33 -65 6 -40 22 -105 43 -170 30 -95 11
-223 -37 -253 -20 -13 -103 26 -126 59 -42 59 -69 87 -107 112 -23 14 -68 51
-101 82 -33 30 -79 69 -103 84 -23 16 -70 57 -105 91 -34 34 -77 70 -95 79
-18 9 -61 46 -96 82 -34 35 -71 64 -82 64 -10 0 -38 22 -62 50 -24 28 -62 60
-85 72 -23 11 -64 45 -92 76 -27 30 -71 65 -97 78 l-47 24 -326 0 -326 0 -36
15 c-19 8 -60 15 -90 15 -29 0 -70 7 -90 15 -19 8 -60 15 -90 15 -29 0 -70 7
-90 15 -22 9 -67 15 -117 15 -51 0 -98 6 -128 17 l-48 17 -35 -17 -35 -17 0
-39 c0 -46 4 -49 97 -80 37 -13 88 -21 125 -21 35 0 83 -6 108 -14 94 -30 138
-38 225 -45 50 -4 100 -12 112 -19 12 -7 40 -12 63 -12 22 0 57 -7 77 -15 26
-11 74 -15 177 -15 l142 0 59 -21 c33 -11 84 -31 113 -45 29 -13 64 -24 78
-24 57 0 254 -114 295 -171 11 -16 43 -41 70 -54 27 -14 79 -54 116 -88 38
-35 80 -71 96 -80 15 -10 38 -35 52 -57 14 -22 42 -48 62 -59 21 -11 115 -95
208 -188 137 -134 174 -177 184 -210 l14 -43 91 0 92 0 17 29 c9 16 40 46 68
66 37 28 59 55 84 105 19 38 39 71 45 75 13 8 13 102 0 110 -5 3 -10 32 -10
63 0 37 -11 86 -30 142 -17 46 -30 95 -30 107 0 31 -30 90 -97 186 -29 44 -63
98 -75 121 -11 22 -38 61 -58 86 -21 25 -48 65 -60 90 -13 25 -51 75 -86 112
-35 37 -70 80 -78 95 -8 16 -73 85 -145 155 -72 70 -139 145 -150 166 -11 22
-36 52 -56 68 -44 35 -87 78 -139 139 -21 25 -44 45 -51 45 -15 0 -55 42 -55
58 0 16 -77 92 -93 92 -20 0 -46 32 -74 91 -13 29 -33 59 -43 66 -11 8 -20 19
-20 24 0 12 65 -25 95 -54 11 -10 41 -31 66 -47 35 -21 48 -35 53 -61 9 -44
88 -119 127 -119 34 0 69 41 69 82 0 16 -9 57 -21 91 -25 75 -66 121 -169 187
-81 53 -130 87 -170 120 -35 28 -157 70 -207 70 -23 0 -45 5 -48 10 -3 6 -21
10 -40 10 -19 0 -37 -4 -40 -10z"/>
</g>
</svg>
