<?xml version="1.0" standalone="no"?>
<!DOCTYPE svg PUBLIC "-//W3C//DTD SVG 20010904//EN"
 "http://www.w3.org/TR/2001/REC-SVG-20010904/DTD/svg10.dtd">
<svg version="1.0" xmlns="http://www.w3.org/2000/svg"
 width="207.000000pt" height="39.000000pt" viewBox="0 0 207.000000 39.000000"
 preserveAspectRatio="xMidYMid meet">
<metadata>
Created by potrace 1.16, written by Peter Selinger 2001-2019
</metadata>
<g transform="translate(0.000000,39.000000) scale(0.100000,-0.100000)"
fill="#000000" stroke="none">
<path d="M1475 380 c-3 -5 -17 -10 -31 -10 -56 0 -148 -41 -202 -91 -65 -60
-91 -67 -153 -46 -26 10 -77 17 -113 17 -37 0 -83 7 -103 15 -20 8 -66 15
-105 15 -38 0 -84 7 -105 15 -20 8 -66 15 -105 15 -38 0 -84 7 -105 15 -26 11
-74 15 -180 15 -105 0 -153 4 -180 15 -19 8 -48 15 -64 15 l-29 0 0 -53 0 -53
95 -32 c52 -18 110 -32 130 -32 20 0 52 -7 72 -15 20 -8 66 -15 105 -15 38 0
84 -7 105 -15 25 -11 72 -15 165 -15 92 0 139 -4 165 -15 20 -8 66 -15 105
-15 38 0 84 -7 105 -15 19 -8 53 -15 75 -15 21 0 55 -7 75 -15 20 -8 66 -15
105 -15 38 0 84 -7 105 -15 19 -8 62 -15 94 -15 32 0 61 -5 64 -10 8 -13 435
-14 435 -1 0 5 16 24 35 42 l35 33 0 51 c0 97 -24 126 -187 228 l-43 27 -179
0 c-109 0 -182 -4 -186 -10z m232 -135 c19 -8 48 -15 64 -15 33 0 52 -27 38
-53 -12 -20 -73 -23 -116 -5 -15 6 -59 14 -97 17 -40 4 -71 11 -73 18 -6 18
66 52 110 53 21 0 54 -7 74 -15z"/>
</g>
</svg>
