<?xml version="1.0" standalone="no"?>
<!DOCTYPE svg PUBLIC "-//W3C//DTD SVG 20010904//EN"
 "http://www.w3.org/TR/2001/REC-SVG-20010904/DTD/svg10.dtd">
<svg version="1.0" xmlns="http://www.w3.org/2000/svg"
 width="309.000000pt" height="189.000000pt" viewBox="0 0 309.000000 189.000000"
 preserveAspectRatio="xMidYMid meet">
<metadata>
Created by potrace 1.16, written by Peter Selinger 2001-2019
</metadata>
<g transform="translate(0.000000,189.000000) scale(0.100000,-0.100000)"
fill="#000000" stroke="none">
<path d="M1925 1880 c-3 -5 -15 -10 -26 -10 -11 0 -34 -13 -50 -29 l-29 -29 0
-99 0 -99 35 -50 c20 -27 42 -70 50 -97 16 -53 57 -116 128 -196 26 -30 59
-75 72 -101 13 -25 39 -59 59 -73 20 -16 39 -41 44 -61 9 -29 33 -65 125 -181
13 -16 45 -61 71 -100 27 -38 60 -83 76 -100 32 -35 110 -161 110 -179 0 -25
-103 -127 -178 -175 l-77 -51 -71 0 c-41 0 -87 -6 -107 -15 -27 -11 -75 -15
-180 -15 -106 0 -154 -4 -180 -15 -52 -21 -362 -21 -414 0 -22 9 -67 15 -120
15 -52 0 -97 6 -120 15 -19 8 -60 15 -90 15 -29 0 -70 7 -90 15 -19 8 -47 15
-60 15 -14 0 -52 13 -86 28 -34 16 -75 32 -91 36 -47 12 -86 44 -86 71 0 14 7
43 16 65 l16 40 -22 69 c-24 77 -63 121 -165 190 l-60 41 -58 0 c-32 0 -74 7
-94 15 -19 8 -46 15 -60 15 -38 0 -143 -39 -179 -67 l-34 -25 0 -101 0 -100
74 -73 c84 -82 151 -134 175 -134 9 0 36 -14 61 -30 25 -16 52 -30 60 -30 9 0
32 -11 52 -25 42 -29 175 -71 293 -94 22 -4 95 -26 162 -49 80 -28 140 -42
173 -42 28 0 67 -7 87 -15 22 -10 68 -15 125 -15 l89 0 25 -25 25 -25 59 0
c32 0 62 5 65 10 4 6 56 10 124 10 83 0 129 5 154 15 28 12 80 15 225 15 146
0 198 3 225 15 20 8 49 15 64 15 15 0 48 14 73 30 25 16 50 30 57 30 6 0 53
20 105 45 51 25 100 45 107 45 21 0 149 88 161 110 5 10 10 47 10 82 l0 64
-29 28 c-16 15 -46 53 -67 84 -21 31 -57 77 -79 102 -23 25 -50 59 -61 75 -10
17 -38 55 -61 85 -24 30 -60 78 -82 105 -21 28 -46 66 -56 85 -9 19 -32 51
-50 70 -17 19 -47 58 -66 85 -18 28 -43 61 -55 75 -45 51 -133 192 -139 223
-4 18 -20 53 -36 78 -16 25 -29 55 -29 67 0 25 25 52 49 52 46 0 258 -90 267
-114 3 -8 -8 -38 -25 -68 -17 -30 -31 -64 -31 -76 0 -26 65 -115 130 -178 25
-24 65 -63 90 -88 25 -24 63 -52 85 -61 54 -23 54 -24 120 -77 100 -80 231
-108 336 -71 l49 18 0 100 0 100 -57 57 c-32 31 -83 85 -113 118 -30 34 -77
77 -105 95 -27 19 -72 57 -100 85 -31 31 -64 54 -86 60 -20 6 -64 34 -98 65
-34 30 -69 55 -77 55 -23 0 -140 56 -177 84 -36 27 -143 66 -181 66 -14 0 -28
5 -31 10 -3 6 -35 10 -70 10 -35 0 -67 -4 -70 -10z m669 -460 c14 -5 54 -39
89 -75 38 -39 72 -65 84 -65 29 0 111 -109 92 -121 -22 -14 -33 -11 -77 21
-23 17 -44 30 -48 30 -3 0 -30 20 -61 45 -30 25 -63 45 -74 45 -22 0 -69 65
-69 96 0 35 17 42 64 24z m-2186 -798 c33 -24 40 -49 22 -83 -15 -26 -82 -26
-125 1 -41 25 -88 86 -79 101 4 7 33 10 78 7 54 -2 79 -9 104 -26z"/>
</g>
</svg>
