<?xml version="1.0" standalone="no"?>
<!DOCTYPE svg PUBLIC "-//W3C//DTD SVG 20010904//EN"
 "http://www.w3.org/TR/2001/REC-SVG-20010904/DTD/svg10.dtd">
<svg version="1.0" xmlns="http://www.w3.org/2000/svg"
 width="477.000000pt" height="180.000000pt" viewBox="0 0 477.000000 180.000000"
 preserveAspectRatio="xMidYMid meet">
<metadata>
Created by potrace 1.16, written by Peter Selinger 2001-2019
</metadata>
<g transform="translate(0.000000,180.000000) scale(0.100000,-0.100000)"
fill="#000000" stroke="none">
<path d="M3695 1790 c-3 -5 -43 -10 -87 -10 l-81 0 -43 -44 -44 -43 0 -52 c0
-58 23 -112 64 -150 14 -14 26 -33 26 -44 0 -20 63 -86 113 -120 15 -10 30
-32 35 -50 5 -20 20 -39 40 -52 18 -11 47 -29 65 -40 18 -11 44 -44 59 -72 16
-28 45 -63 65 -79 48 -35 57 -47 90 -109 14 -27 43 -70 63 -95 21 -25 55 -79
75 -120 22 -45 56 -93 85 -122 59 -56 71 -98 46 -162 -9 -24 -24 -51 -34 -59
-24 -22 -402 -147 -444 -147 -20 0 -52 -7 -71 -15 l-36 -15 -336 0 -336 0 -36
15 c-19 8 -53 15 -75 15 -21 0 -55 7 -75 15 -19 8 -53 15 -75 15 -21 0 -55 7
-75 15 -19 8 -45 15 -57 15 -11 0 -73 18 -136 39 -82 27 -127 49 -155 73 -45
39 -96 68 -120 68 -19 0 -93 -36 -118 -58 -9 -8 -22 -34 -28 -56 -17 -62 -43
-92 -112 -125 l-64 -31 -364 0 -365 0 -84 30 c-47 16 -102 30 -123 30 -22 0
-68 13 -104 30 -35 16 -75 30 -89 30 -14 0 -41 7 -61 15 -19 8 -47 15 -60 15
-14 0 -54 14 -90 30 -35 17 -70 30 -76 30 -7 0 -41 14 -75 30 -35 17 -68 30
-74 30 -16 0 -80 32 -113 56 -56 41 -114 64 -160 64 l-45 0 0 -55 0 -54 33
-17 c17 -9 52 -33 77 -54 57 -47 90 -64 187 -95 43 -14 124 -48 181 -75 120
-59 209 -90 253 -90 18 0 113 -27 211 -60 l178 -60 174 0 c106 0 177 -4 181
-10 8 -14 402 -14 410 0 3 6 27 10 51 10 47 0 155 46 219 94 76 56 168 72 242
41 19 -8 52 -15 72 -15 20 0 56 -6 81 -14 87 -28 136 -38 210 -45 41 -4 85
-13 97 -19 12 -7 47 -12 78 -12 30 0 72 -7 92 -15 l35 -15 313 0 313 0 35 15
c20 8 55 15 77 15 23 0 51 5 63 12 12 6 48 14 82 19 71 9 113 19 258 65 81 26
121 45 162 77 29 23 64 50 78 59 16 11 32 40 46 86 l22 69 -21 63 c-17 50 -36
79 -86 132 -43 46 -79 98 -109 157 -28 56 -57 99 -77 115 -24 18 -38 42 -53
87 -13 42 -26 64 -41 71 -12 6 -40 36 -61 67 -21 31 -88 108 -150 171 -61 63
-122 129 -134 145 -13 17 -38 47 -56 68 -37 42 -42 71 -14 87 34 18 91 11 158
-20 35 -16 69 -30 75 -30 5 0 39 -13 75 -30 35 -16 68 -30 72 -30 5 0 14 -7
21 -15 l12 -15 -34 -42 c-19 -24 -42 -57 -52 -75 l-16 -32 15 -58 c10 -39 26
-68 50 -93 18 -19 41 -51 49 -71 11 -26 24 -39 43 -44 15 -3 49 -24 74 -45 65
-54 232 -110 330 -110 75 0 114 14 162 58 l27 26 0 71 c0 79 -15 120 -60 170
-15 17 -46 57 -68 91 -25 36 -60 72 -89 91 -27 17 -69 49 -93 71 -25 22 -74
54 -110 72 -36 18 -78 43 -95 55 -46 35 -146 82 -232 110 -43 14 -102 37 -131
50 -29 14 -66 25 -82 25 -16 0 -32 5 -35 10 -3 6 -21 10 -40 10 -19 0 -37 -4
-40 -10z m675 -467 c15 -9 41 -36 56 -61 16 -24 45 -55 65 -67 36 -23 89 -79
89 -95 0 -17 -33 -41 -48 -35 -9 3 -39 13 -66 22 -81 26 -108 46 -148 104 -43
63 -45 73 -18 117 22 37 31 38 70 15z"/>
</g>
</svg>
