<?xml version="1.0" standalone="no"?>
<!DOCTYPE svg PUBLIC "-//W3C//DTD SVG 20010904//EN"
 "http://www.w3.org/TR/2001/REC-SVG-20010904/DTD/svg10.dtd">
<svg version="1.0" xmlns="http://www.w3.org/2000/svg"
 width="528.000000pt" height="144.000000pt" viewBox="0 0 528.000000 144.000000"
 preserveAspectRatio="xMidYMid meet">
<metadata>
Created by potrace 1.16, written by Peter Selinger 2001-2019
</metadata>
<g transform="translate(0.000000,144.000000) scale(0.100000,-0.100000)"
fill="#000000" stroke="none">
<path d="M362 1407 c-23 -63 -16 -89 36 -140 35 -35 55 -47 78 -47 33 0 57
-14 125 -74 26 -23 59 -49 74 -60 37 -26 69 -99 55 -126 l-11 -20 -57 0 -57 0
-45 30 c-25 16 -51 30 -58 30 -35 0 -124 55 -197 120 -16 15 -42 30 -56 34
-14 3 -54 30 -88 61 l-62 55 -49 0 -50 0 0 -69 0 -69 24 -6 c22 -5 70 -54 109
-110 10 -15 34 -30 57 -36 26 -7 49 -23 67 -46 25 -33 144 -104 175 -104 7 0
55 -20 106 -45 108 -52 142 -55 235 -24 83 28 151 92 172 165 l15 52 -25 54
c-14 29 -25 60 -25 70 0 9 -21 42 -46 73 -53 65 -48 80 21 70 97 -15 247 -21
365 -16 69 4 265 -15 287 -27 14 -8 69 -12 153 -12 93 0 141 -4 167 -15 24
-10 71 -15 149 -15 67 0 124 -5 141 -12 17 -8 111 -16 243 -20 310 -11 494
-27 521 -44 13 -8 164 -21 324 -27 71 -3 140 -32 205 -85 25 -21 58 -46 75
-56 27 -18 78 -62 230 -200 103 -94 158 -141 203 -170 23 -16 59 -51 78 -78
20 -27 53 -57 74 -68 45 -23 165 -104 200 -134 14 -12 38 -31 54 -40 16 -10
49 -37 74 -60 24 -22 70 -55 101 -71 38 -21 61 -41 71 -63 l15 -32 81 0 81 0
12 40 12 40 -17 32 c-9 18 -34 53 -54 78 -21 25 -49 68 -63 96 -14 27 -32 56
-41 63 -27 23 -56 78 -50 95 12 33 51 28 206 -24 84 -28 177 -62 206 -75 29
-14 59 -25 67 -25 9 0 29 -21 44 -48 72 -117 93 -131 144 -96 l37 25 0 52 c0
75 -29 131 -83 158 -23 12 -64 39 -91 60 -28 23 -59 39 -75 39 -14 0 -55 14
-90 30 -36 17 -111 46 -168 65 l-103 35 -118 0 c-91 0 -123 -4 -140 -16 -25
-17 -62 -84 -71 -129 -11 -50 -46 -45 -116 17 -33 29 -76 64 -95 77 -20 13
-48 41 -63 62 -15 21 -51 51 -80 66 -32 17 -62 44 -80 71 -16 23 -46 51 -66
62 -21 10 -94 74 -163 142 -68 68 -145 135 -171 150 -29 17 -47 34 -47 45 0
29 -28 61 -70 83 -51 26 -67 25 -132 -5 l-53 -25 -113 0 c-78 0 -124 5 -149
15 -25 11 -72 15 -165 15 -92 0 -139 4 -165 15 l-35 15 -265 0 -264 0 -36 15
c-24 10 -71 15 -150 15 -78 0 -125 5 -150 15 -23 10 -69 15 -134 15 -67 0
-111 5 -139 16 -31 13 -59 15 -127 10 -111 -8 -112 -8 -268 2 -71 4 -140 13
-152 20 -13 7 -63 12 -127 12 -59 0 -108 4 -111 10 -4 6 -63 10 -144 10 l-137
0 -12 -33z"/>
</g>
</svg>
