<?xml version="1.0" standalone="no"?>
<!DOCTYPE svg PUBLIC "-//W3C//DTD SVG 20010904//EN"
 "http://www.w3.org/TR/2001/REC-SVG-20010904/DTD/svg10.dtd">
<svg version="1.0" xmlns="http://www.w3.org/2000/svg"
 width="732.000000pt" height="291.000000pt" viewBox="0 0 732.000000 291.000000"
 preserveAspectRatio="xMidYMid meet">
<metadata>
Created by potrace 1.16, written by Peter Selinger 2001-2019
</metadata>
<g transform="translate(0.000000,291.000000) scale(0.100000,-0.100000)"
fill="#000000" stroke="none">
<path d="M3665 2900 c-3 -5 -27 -10 -53 -10 l-47 0 -60 -41 c-82 -56 -145
-129 -194 -228 l-42 -83 10 -31 c6 -16 11 -45 11 -64 0 -44 35 -147 66 -192
13 -19 24 -42 24 -49 0 -25 33 -77 76 -122 24 -25 126 -129 226 -232 100 -103
200 -199 222 -213 23 -14 57 -49 76 -78 28 -40 46 -55 80 -67 33 -11 52 -27
73 -58 27 -40 106 -92 140 -92 7 0 30 -20 51 -45 21 -25 56 -58 79 -72 23 -14
69 -52 102 -83 33 -32 83 -69 112 -84 28 -14 85 -56 127 -93 100 -90 175 -147
228 -174 42 -21 114 -73 185 -135 41 -35 40 -59 -4 -70 -15 -4 -50 -17 -78
-30 -90 -41 -168 -64 -221 -64 -28 0 -68 -7 -87 -15 -20 -8 -61 -15 -90 -15
-30 0 -71 -7 -90 -15 -20 -8 -54 -15 -75 -15 -22 0 -56 -7 -75 -15 -20 -8 -54
-15 -75 -15 -22 0 -56 -7 -75 -15 -23 -9 -68 -15 -120 -15 -53 0 -98 -6 -120
-15 l-36 -15 -396 0 -396 0 -36 15 c-20 8 -66 15 -105 15 -38 0 -84 7 -105 15
-19 8 -60 15 -90 15 -29 0 -70 7 -90 15 -19 8 -60 15 -90 15 -29 0 -70 7 -90
15 -19 8 -52 15 -73 15 -20 0 -68 12 -106 26 -38 14 -81 30 -96 36 -16 5 -28
13 -28 17 0 9 154 81 173 81 8 0 42 35 76 77 l61 77 0 64 0 64 -37 42 c-20 23
-44 64 -52 91 l-16 49 -55 38 c-30 21 -76 56 -102 78 -26 22 -53 40 -60 40 -7
0 -26 9 -43 21 -50 34 -159 87 -223 108 l-61 21 -141 0 -141 0 -62 -21 c-93
-31 -138 -82 -173 -198 -10 -36 -11 -54 -2 -83 8 -29 8 -48 -1 -77 -8 -27 -8
-47 -1 -66 5 -14 10 -37 10 -51 0 -32 37 -105 62 -122 28 -20 20 -57 -12 -55
-14 1 -40 -3 -58 -9 l-33 -10 -48 31 -48 31 -147 0 c-108 0 -156 4 -183 15
-24 10 -71 15 -150 15 -78 0 -125 5 -150 15 -20 8 -66 15 -104 15 -37 0 -80 5
-96 12 -24 10 -169 27 -243 29 -14 0 -48 5 -76 11 l-50 10 -62 -31 -62 -31 0
-40 0 -40 38 -20 c20 -12 61 -36 90 -54 29 -19 90 -46 136 -61 47 -14 148 -57
225 -96 78 -38 147 -69 154 -69 16 0 117 -122 117 -141 0 -52 -76 -109 -147
-109 -42 -1 -133 -29 -157 -49 -21 -18 -20 -54 2 -73 54 -48 138 -61 205 -33
20 8 48 15 62 15 66 0 181 91 224 177 26 53 27 122 2 171 -25 47 -94 114 -147
142 -23 11 -50 30 -60 41 l-18 20 14 9 c24 15 147 12 187 -5 27 -11 78 -15
212 -15 l177 0 29 -30 29 -30 163 0 c123 0 173 -4 200 -15 19 -8 53 -15 75
-15 22 0 65 -12 95 -26 31 -14 91 -36 132 -50 42 -13 100 -36 129 -49 29 -14
70 -25 90 -25 21 0 76 -13 122 -30 68 -24 102 -30 168 -30 50 0 97 -6 119 -15
19 -8 53 -15 75 -15 21 0 55 -7 75 -15 19 -8 53 -15 75 -15 21 0 55 -7 75 -15
22 -9 67 -15 120 -15 52 0 97 -6 120 -15 l35 -15 283 0 283 0 35 15 c26 11 73
15 165 15 94 0 140 4 167 15 29 13 44 14 69 5 23 -7 41 -7 60 0 15 5 44 10 65
10 21 0 55 7 74 15 20 8 61 15 90 15 30 0 71 7 90 15 20 8 62 15 92 15 31 0
66 5 78 12 12 6 56 15 97 19 41 4 95 13 120 19 116 31 175 52 208 75 28 19 49
25 93 25 31 0 73 7 92 15 20 8 46 15 58 15 26 0 140 -52 182 -84 18 -13 79
-48 137 -77 58 -29 119 -62 135 -75 31 -23 141 -64 173 -64 21 0 120 -33 180
-61 40 -18 111 -42 212 -69 25 -7 74 -15 110 -17 36 -3 69 -9 75 -14 13 -13
402 -12 410 1 3 6 23 10 43 10 l37 0 82 85 83 85 0 75 c0 41 -4 83 -9 93 -5 9
-15 32 -22 50 -16 45 -47 82 -68 82 -9 0 -54 25 -99 55 -106 71 -155 95 -188
95 -15 0 -83 27 -151 60 l-124 60 -85 0 c-53 0 -98 6 -121 15 -19 8 -60 15
-89 15 -29 0 -71 7 -93 16 l-38 15 -209 -5 c-293 -7 -333 -12 -449 -53 -38
-14 -86 -30 -106 -36 l-36 -10 -84 37 c-103 47 -95 42 -163 97 -31 25 -87 60
-124 79 -44 22 -85 53 -121 92 -37 40 -66 61 -92 68 -22 6 -46 22 -56 37 -40
58 -71 83 -104 83 -24 0 -42 10 -75 43 -81 79 -277 255 -354 315 -25 20 -121
109 -215 199 -93 90 -183 176 -200 192 -16 15 -50 56 -75 90 -25 33 -60 80
-79 103 -65 83 -102 150 -136 251 -19 56 -35 118 -35 138 0 46 53 153 90 179
36 26 173 90 192 90 18 0 40 24 62 68 l17 32 -105 0 c-59 0 -108 -4 -111 -10z
m-1670 -1700 c84 -29 104 -39 155 -80 25 -20 66 -48 92 -63 25 -15 56 -44 69
-64 12 -21 37 -55 56 -75 43 -49 50 -80 27 -119 l-19 -31 -100 -34 -100 -34
-138 0 -138 0 -44 20 c-49 22 -154 115 -197 174 l-28 39 0 101 c0 117 8 135
73 166 60 28 210 28 292 0z m4092 -535 c19 -8 60 -15 90 -15 29 0 70 -7 90
-15 19 -8 60 -15 90 -15 29 0 70 -7 90 -15 19 -8 60 -15 90 -15 40 0 73 -8
120 -30 35 -16 69 -30 75 -30 5 0 39 -13 75 -30 35 -16 69 -30 76 -30 20 0
213 -98 229 -117 8 -10 21 -34 28 -54 l13 -37 -19 -32 c-10 -18 -35 -41 -54
-51 l-35 -19 -173 0 c-131 0 -181 4 -209 15 -20 8 -66 15 -105 15 l-70 0 -65
30 c-35 17 -76 30 -89 30 -14 0 -51 12 -82 26 -31 14 -92 37 -135 51 -42 14
-127 49 -187 79 -61 30 -115 54 -121 54 -6 0 -37 28 -69 61 l-59 61 10 19 10
19 58 0 c32 0 75 7 94 15 20 8 54 15 76 15 21 0 54 7 72 15 43 18 42 18 86 0z"/>
</g>
</svg>
