<?xml version="1.0" standalone="no"?>
<!DOCTYPE svg PUBLIC "-//W3C//DTD SVG 20010904//EN"
 "http://www.w3.org/TR/2001/REC-SVG-20010904/DTD/svg10.dtd">
<svg version="1.0" xmlns="http://www.w3.org/2000/svg"
 width="1164.000000pt" height="294.000000pt" viewBox="0 0 1164.000000 294.000000"
 preserveAspectRatio="xMidYMid meet">
<metadata>
Created by potrace 1.16, written by Peter Selinger 2001-2019
</metadata>
<g transform="translate(0.000000,294.000000) scale(0.100000,-0.100000)"
fill="#000000" stroke="none">
<path d="M8225 2930 c-4 -6 -25 -20 -48 -32 -58 -29 -183 -153 -213 -210 -14
-27 -24 -64 -24 -87 0 -23 -7 -58 -16 -80 -18 -45 -15 -166 6 -241 41 -148 52
-173 144 -310 l96 -142 207 -208 c150 -149 223 -215 260 -234 29 -14 60 -38
70 -52 31 -45 121 -122 208 -178 16 -11 50 -38 75 -61 25 -23 65 -53 90 -67
25 -14 55 -40 68 -57 12 -17 40 -40 62 -51 22 -11 56 -34 76 -52 20 -17 53
-43 74 -57 21 -14 71 -53 112 -86 90 -74 150 -116 208 -145 53 -26 90 -58 90
-77 0 -7 -17 -21 -37 -29 -21 -9 -63 -27 -93 -40 -117 -50 -172 -64 -256 -64
-50 0 -95 -6 -117 -15 -25 -10 -72 -15 -150 -15 -79 0 -126 -5 -150 -15 -26
-11 -73 -15 -165 -15 -93 0 -140 -4 -165 -15 l-36 -15 -336 0 -336 0 -36 15
c-23 10 -69 15 -135 15 -65 0 -111 5 -135 15 -25 11 -72 15 -162 15 l-127 0
-84 30 c-47 16 -94 30 -105 30 -32 0 -152 44 -181 66 l-27 20 12 35 c8 26 9
44 1 63 -5 15 -10 61 -10 102 l0 75 -57 61 c-32 33 -87 80 -124 104 l-65 44
-72 0 c-55 0 -96 -8 -179 -35 -109 -36 -153 -66 -153 -104 0 -50 -81 -57 -150
-11 -25 16 -52 30 -60 30 -8 0 -28 9 -45 21 -16 11 -93 52 -170 91 -77 39
-154 81 -171 95 -18 13 -48 28 -66 34 -19 5 -52 24 -74 43 -41 35 -160 99
-206 110 -14 3 -40 23 -57 45 -32 41 -51 50 -171 91 l-74 25 -29 43 c-27 40
-106 92 -139 92 -7 0 -33 14 -58 30 -25 16 -51 30 -58 30 -7 0 -43 18 -80 40
-36 22 -83 45 -102 50 -20 5 -54 25 -76 43 -38 33 -173 107 -194 107 -11 0
-91 45 -200 112 -30 19 -82 43 -115 53 -33 10 -73 31 -90 46 -36 32 -121 76
-186 95 -27 8 -76 36 -110 64 -34 28 -69 50 -78 50 -9 0 -36 14 -61 30 -25 16
-52 30 -60 30 -8 0 -40 12 -70 26 -30 14 -101 41 -158 60 l-104 35 -331 -4
c-235 -2 -345 -7 -377 -16 -128 -37 -261 -82 -310 -105 -31 -15 -73 -26 -96
-26 -23 0 -58 -7 -77 -15 -20 -8 -54 -15 -75 -15 -22 0 -56 -7 -75 -15 -20 -8
-61 -15 -90 -15 -30 0 -71 -7 -90 -15 -53 -22 -511 -22 -564 0 -19 8 -61 15
-92 15 -41 0 -72 8 -119 30 l-64 30 -89 0 -90 0 -24 25 c-14 13 -25 31 -25 40
0 29 -62 138 -109 193 -25 30 -63 62 -83 73 l-37 19 -48 -11 c-26 -6 -85 -23
-130 -37 l-83 -26 0 -121 0 -121 27 -26 c59 -55 221 -116 395 -148 26 -5 56
-13 67 -19 11 -6 57 -11 103 -11 46 0 103 -6 128 -14 108 -34 145 -39 315 -45
115 -4 188 -10 202 -18 33 -19 280 -17 326 2 20 8 61 15 90 15 30 0 71 7 90
15 20 8 61 15 90 15 30 0 71 7 90 15 20 8 55 15 77 15 27 0 65 12 111 36 112
56 205 84 280 84 38 0 83 7 104 16 l38 15 226 1 227 0 38 -16 c21 -9 51 -16
67 -16 47 0 87 -72 69 -124 -8 -24 -6 -44 7 -86 l18 -54 53 -37 c30 -20 70
-53 90 -72 27 -26 61 -44 127 -65 50 -16 117 -43 151 -60 93 -47 177 -72 241
-72 l58 0 50 57 51 56 68 -18 c39 -11 93 -35 125 -57 31 -21 62 -38 69 -38 13
0 88 -42 202 -112 30 -19 82 -43 115 -53 33 -10 74 -31 90 -47 17 -15 37 -28
44 -28 6 0 42 -18 79 -40 36 -22 83 -45 104 -50 20 -6 61 -32 90 -59 29 -26
73 -58 97 -70 24 -13 62 -36 84 -52 22 -16 47 -29 57 -29 9 0 29 -14 45 -30
16 -16 36 -30 44 -30 29 0 145 -61 192 -100 26 -22 68 -49 95 -61 89 -39 203
-101 258 -141 21 -15 46 -28 55 -28 9 0 54 -25 99 -55 106 -70 155 -95 188
-95 36 0 86 -25 119 -60 16 -17 36 -30 44 -30 9 0 45 -14 79 -30 35 -17 69
-30 76 -30 7 0 54 -20 105 -45 51 -25 98 -45 104 -45 7 0 41 -14 75 -30 35
-17 73 -30 85 -30 12 0 62 -13 112 -29 122 -39 170 -51 240 -60 34 -5 70 -13
82 -19 12 -7 40 -12 63 -12 22 0 57 -7 77 -15 26 -11 76 -15 195 -15 118 0
168 -4 195 -15 l35 -15 373 0 373 0 35 15 c28 11 78 15 210 15 133 0 183 4
210 15 23 9 68 15 120 15 53 0 98 6 120 15 20 8 67 15 104 15 49 0 91 9 153
30 46 17 94 30 106 30 12 0 38 7 57 15 20 8 47 15 61 15 13 0 53 13 88 30 44
21 78 30 113 30 63 0 275 -70 330 -109 71 -50 196 -101 247 -101 13 0 43 -14
68 -30 25 -17 58 -30 75 -30 17 0 59 -14 93 -30 41 -19 80 -30 107 -30 24 0
47 -4 50 -10 4 -6 101 -10 259 -10 l252 0 40 19 c27 13 51 36 72 71 l32 51 0
83 0 83 -25 11 c-14 6 -25 19 -25 27 0 37 -51 116 -92 141 -23 15 -62 46 -87
69 -25 23 -92 66 -149 94 -57 29 -122 65 -144 81 -23 17 -53 30 -67 30 -31 0
-153 41 -210 69 -22 12 -59 21 -81 21 -22 0 -57 7 -77 15 -60 25 -142 19 -215
-15 -34 -16 -68 -30 -75 -30 -6 0 -40 -13 -75 -30 -34 -16 -70 -30 -79 -30 -9
0 -24 -10 -35 -21 -28 -31 -114 -93 -150 -108 l-32 -13 -68 21 c-46 14 -101
43 -164 86 -52 36 -101 65 -108 65 -8 0 -34 18 -58 39 -24 21 -70 55 -102 75
-31 21 -69 55 -85 76 -15 21 -60 60 -100 87 -39 26 -92 66 -117 88 -25 23 -65
53 -90 67 -25 14 -70 54 -100 87 -30 34 -69 70 -87 81 -18 10 -43 36 -57 58
-15 24 -46 51 -80 71 -44 24 -63 43 -87 86 -31 56 -62 85 -87 85 -8 0 -44 32
-80 71 -42 45 -75 72 -94 76 -16 3 -37 17 -47 32 -23 32 -61 115 -61 133 0 7
-17 38 -38 69 -36 56 -74 119 -119 203 l-23 41 0 129 0 129 30 63 c20 39 57
89 105 138 41 41 75 83 75 91 0 9 -7 29 -15 45 l-16 30 -59 0 c-32 0 -62 -5
-65 -10z m-4636 -950 c77 -38 120 -70 68 -51 -40 15 -167 81 -167 86 0 11 25
3 99 -35z m3049 -1200 c24 -11 57 -29 73 -41 l29 -20 0 -53 c0 -74 -13 -83
-81 -53 -30 13 -66 27 -80 30 -29 7 -89 69 -89 92 0 19 63 62 95 64 6 0 29 -8
53 -19z m4039 -115 c19 -8 52 -15 72 -15 20 0 75 -13 121 -30 47 -16 103 -30
125 -30 24 0 52 -9 70 -21 17 -11 82 -46 145 -78 63 -32 128 -72 144 -87 34
-34 96 -161 96 -197 0 -16 -8 -31 -19 -37 -32 -17 -315 -13 -358 5 -19 8 -59
15 -87 15 -56 0 -241 58 -286 90 -15 10 -83 38 -153 60 -92 31 -136 51 -166
77 -23 19 -57 39 -77 44 -45 13 -53 34 -24 64 24 26 132 95 148 95 6 0 39 13
74 30 70 33 120 38 175 15z"/>
</g>
</svg>
