<?xml version="1.0" standalone="no"?>
<!DOCTYPE svg PUBLIC "-//W3C//DTD SVG 20010904//EN"
 "http://www.w3.org/TR/2001/REC-SVG-20010904/DTD/svg10.dtd">
<svg version="1.0" xmlns="http://www.w3.org/2000/svg"
 width="315.000000pt" height="546.000000pt" viewBox="0 0 315.000000 546.000000"
 preserveAspectRatio="xMidYMid meet">
<metadata>
Created by potrace 1.16, written by Peter Selinger 2001-2019
</metadata>
<g transform="translate(0.000000,546.000000) scale(0.100000,-0.100000)"
fill="#000000" stroke="none">
<path d="M285 5430 c-4 -19 -37 -61 -88 -114 -116 -118 -177 -201 -177 -242 0
-18 -4 -36 -10 -39 -13 -8 -13 -72 0 -80 5 -3 10 -26 10 -51 l0 -45 74 -147
c46 -90 94 -168 123 -202 27 -30 61 -73 77 -95 16 -22 49 -60 73 -85 58 -60
131 -134 168 -169 17 -16 41 -43 54 -61 13 -17 41 -42 62 -56 22 -13 50 -41
63 -62 13 -20 43 -50 68 -66 24 -15 59 -49 76 -76 34 -51 60 -75 134 -120 30
-18 48 -37 50 -52 2 -14 20 -34 48 -53 93 -63 320 -305 361 -386 21 -43 42
-66 77 -90 37 -24 67 -59 123 -143 41 -61 75 -117 77 -123 9 -35 -98 7 -232
90 -25 16 -76 40 -114 53 l-67 24 -152 0 -152 0 -40 -52 c-21 -29 -48 -72 -60
-95 l-21 -42 0 -137 0 -136 80 -89 c44 -49 91 -106 104 -127 30 -46 53 -67
143 -126 40 -26 91 -63 114 -82 22 -19 48 -34 56 -34 8 0 40 -12 71 -27 l57
-27 125 -8 c167 -11 158 -10 215 -3 101 13 182 45 220 86 19 22 35 48 35 59 0
23 56 90 76 90 30 0 143 -84 170 -128 16 -24 49 -57 74 -74 25 -17 57 -46 70
-67 13 -20 49 -63 80 -96 31 -33 82 -98 113 -145 32 -47 71 -103 87 -124 17
-21 30 -45 30 -53 0 -19 36 -89 71 -138 74 -105 100 -281 58 -400 -11 -33 -26
-66 -31 -73 -6 -7 -43 -28 -83 -47 l-72 -35 -187 0 c-143 0 -195 3 -223 15
-22 9 -67 15 -117 15 -82 0 -146 16 -244 61 -62 28 -207 71 -304 89 -26 5 -56
13 -67 19 -11 6 -32 11 -46 11 -14 0 -51 11 -81 25 -30 14 -105 42 -167 62
-65 21 -123 46 -139 61 l-27 24 -35 -6 c-40 -8 -117 12 -195 49 l-51 25 -93 0
c-106 0 -126 -9 -157 -70 -27 -53 -25 -76 11 -139 41 -71 102 -129 180 -171
35 -18 82 -46 103 -62 21 -15 46 -28 56 -28 9 0 29 -13 45 -30 16 -16 35 -30
43 -30 24 0 69 -31 86 -60 9 -16 16 -44 16 -64 0 -45 35 -150 62 -189 71 -100
215 -227 256 -227 25 0 87 -33 134 -72 31 -25 75 -47 129 -64 45 -15 117 -44
161 -65 43 -22 90 -39 104 -39 13 0 41 -7 61 -15 19 -8 48 -15 64 -15 15 0 31
-5 34 -10 3 -6 33 -10 66 -10 l59 0 0 35 c0 24 -9 45 -32 70 -35 40 -115 85
-151 85 -35 0 -131 36 -252 94 -60 29 -122 56 -137 60 -15 3 -39 22 -54 42
-15 19 -48 46 -74 59 -62 31 -98 71 -140 151 -27 54 -31 69 -20 72 8 3 30 20
48 38 l32 32 0 55 c0 37 -5 59 -16 68 -25 20 -115 48 -159 49 -43 0 -204 73
-265 120 -19 15 -54 37 -77 49 -65 32 -51 60 17 36 69 -24 212 -62 282 -75 26
-5 56 -13 67 -19 11 -6 30 -11 43 -11 35 0 135 -37 177 -66 19 -13 48 -24 64
-24 15 0 44 -7 64 -15 19 -8 53 -15 75 -15 22 0 64 -12 95 -26 76 -34 211 -75
315 -94 26 -5 56 -13 67 -19 12 -7 111 -11 271 -11 l251 0 61 21 c34 11 75 27
91 35 53 28 165 125 177 154 7 16 18 35 26 41 l14 11 0 225 0 224 -18 27 c-38
55 -92 150 -92 161 0 25 -41 90 -69 110 -27 20 -101 121 -131 181 -14 27 -20
34 -272 290 -189 192 -302 289 -376 321 -26 12 -53 25 -61 28 -8 4 -24 37 -36
74 -12 37 -33 80 -47 95 -33 35 -118 176 -118 196 0 8 -24 43 -54 76 -30 34
-60 79 -68 103 -9 28 -24 49 -48 65 -59 39 -90 72 -120 131 -31 62 -148 179
-244 246 -31 21 -67 55 -79 75 -22 36 -112 127 -215 217 -33 29 -76 77 -96
108 -21 30 -51 62 -69 71 -40 21 -341 314 -389 379 -20 27 -48 64 -62 81 -40
49 -176 257 -176 270 0 7 -13 41 -30 76 -16 34 -30 74 -30 87 0 13 -7 44 -17
70 -9 26 -13 58 -10 71 11 43 77 121 192 226 67 62 59 102 -27 138 -20 9 -39
20 -43 26 -3 5 -17 10 -30 10 -18 0 -25 -7 -30 -30z m1016 -2570 c105 -33 130
-45 174 -76 17 -13 66 -40 110 -62 44 -22 107 -63 140 -91 33 -28 80 -62 105
-75 94 -52 110 -78 110 -171 0 -79 -23 -142 -61 -169 -17 -11 -46 -16 -103
-16 l-79 0 -154 52 -154 51 -24 32 c-14 17 -51 50 -83 74 -62 44 -69 52 -147
166 -62 91 -75 123 -75 189 l0 55 28 19 c29 21 90 50 108 51 6 1 53 -12 105
-29z"/>
</g>
</svg>
