<?xml version="1.0" standalone="no"?>
<!DOCTYPE svg PUBLIC "-//W3C//DTD SVG 20010904//EN"
 "http://www.w3.org/TR/2001/REC-SVG-20010904/DTD/svg10.dtd">
<svg version="1.0" xmlns="http://www.w3.org/2000/svg"
 width="387.000000pt" height="519.000000pt" viewBox="0 0 387.000000 519.000000"
 preserveAspectRatio="xMidYMid meet">
<metadata>
Created by potrace 1.16, written by Peter Selinger 2001-2019
</metadata>
<g transform="translate(0.000000,519.000000) scale(0.100000,-0.100000)"
fill="#000000" stroke="none">
<path d="M215 5180 c-3 -5 -15 -10 -25 -10 -10 0 -31 -16 -47 -36 -15 -20 -44
-47 -65 -61 -22 -13 -44 -36 -49 -51 -6 -15 -15 -35 -20 -44 -12 -24 -11 -255
1 -263 6 -3 10 -20 10 -36 0 -37 62 -161 107 -213 18 -22 38 -57 43 -78 7 -24
24 -48 49 -68 21 -17 48 -50 61 -73 13 -23 49 -69 80 -102 31 -33 68 -78 82
-100 14 -22 46 -53 70 -69 25 -16 58 -48 74 -73 15 -24 51 -60 78 -78 64 -43
176 -155 225 -226 29 -43 46 -57 80 -68 27 -9 68 -37 110 -75 36 -34 100 -84
141 -111 41 -27 88 -61 105 -76 16 -14 48 -35 70 -47 22 -11 96 -58 165 -104
69 -46 145 -96 170 -110 25 -15 61 -43 80 -63 27 -29 32 -40 24 -53 -15 -23
-93 -62 -125 -62 -15 0 -43 -7 -62 -15 -24 -10 -70 -15 -135 -15 -66 0 -112
-5 -135 -15 -47 -19 -157 -19 -204 0 -20 9 -66 15 -107 15 l-71 0 -77 51 c-47
30 -89 67 -105 92 -47 70 -108 127 -135 127 -34 0 -138 -76 -138 -100 0 -11
11 -36 25 -56 14 -20 25 -43 25 -51 0 -32 42 -93 87 -126 61 -45 182 -170 215
-222 14 -22 45 -53 69 -68 24 -15 60 -51 79 -80 28 -40 46 -55 80 -67 30 -10
52 -27 68 -50 35 -52 52 -69 107 -105 66 -45 297 -276 341 -342 19 -28 48 -62
65 -75 59 -44 89 -77 89 -96 0 -11 18 -42 40 -68 23 -27 43 -60 46 -74 4 -14
22 -50 41 -80 79 -125 105 -170 153 -264 28 -56 50 -113 50 -130 0 -17 11 -48
24 -67 28 -41 66 -142 66 -175 0 -12 7 -38 15 -57 8 -20 15 -61 15 -90 0 -30
7 -72 16 -92 l16 -38 -16 -41 c-10 -26 -16 -73 -16 -123 l0 -82 -75 -75 c-41
-42 -81 -76 -88 -76 -23 0 -47 -35 -47 -68 l0 -32 54 0 55 0 52 33 c88 53 199
188 229 276 l20 60 0 159 c0 119 -4 169 -15 195 -8 20 -15 54 -15 75 0 22 -7
56 -15 75 -8 20 -15 47 -15 61 0 14 -20 66 -45 117 -25 51 -45 105 -45 121 0
34 -67 167 -115 226 -22 28 -35 54 -35 73 0 41 -34 105 -85 159 -23 25 -50 59
-60 75 -10 17 -44 57 -75 90 -31 33 -68 78 -82 100 -28 43 -411 419 -493 483
-65 51 -197 192 -192 206 2 7 77 13 228 17 135 3 242 11 269 18 116 34 173 52
212 70 103 47 161 61 258 61 l95 0 38 -25 c62 -43 227 -120 311 -146 55 -17
92 -35 121 -61 24 -21 53 -38 66 -38 13 0 83 -20 156 -45 73 -25 142 -45 154
-45 11 0 50 -13 86 -30 35 -16 75 -30 89 -30 14 0 41 -7 61 -15 27 -12 80 -15
230 -15 l194 0 42 21 c23 12 57 33 75 47 l32 24 0 104 c0 59 -4 106 -10 109
-6 4 -20 25 -31 48 -12 22 -32 49 -45 60 -13 10 -24 26 -24 36 0 22 -31 51
-55 51 -10 0 -37 20 -59 44 -30 32 -76 62 -166 107 -69 34 -138 72 -155 85
-33 24 -142 64 -176 64 -12 0 -52 13 -88 29 -93 40 -166 69 -241 97 l-65 24
-146 0 c-108 0 -156 -4 -182 -15 -20 -8 -50 -15 -66 -15 -22 0 -46 -14 -93
-56 -34 -30 -74 -58 -89 -61 -15 -3 -40 -18 -55 -34 -21 -22 -37 -29 -67 -29
-55 0 -170 57 -237 116 -66 59 -129 103 -190 134 -25 12 -67 40 -95 62 -74 58
-180 138 -234 178 -27 19 -71 53 -98 75 -27 22 -90 66 -139 99 -53 34 -100 73
-114 95 -13 20 -43 56 -65 81 -22 25 -63 79 -90 120 -27 41 -71 99 -97 129
-27 29 -55 65 -63 80 -7 14 -40 51 -74 82 -44 42 -61 66 -66 93 -5 26 -19 45
-47 67 -21 17 -52 57 -68 88 -16 31 -38 70 -49 86 -12 17 -21 42 -21 56 0 15
-7 43 -15 62 -9 23 -15 68 -15 119 0 101 20 151 79 197 44 35 48 47 29 98
l-12 33 -77 0 c-43 0 -81 -4 -84 -10z m2542 -2115 c19 -8 61 -15 92 -15 41 0
72 -8 119 -30 35 -17 69 -30 75 -30 7 0 54 -20 105 -45 52 -25 106 -45 121
-45 17 0 37 -10 52 -26 13 -14 40 -34 60 -45 36 -18 152 -95 199 -131 40 -31
120 -130 136 -167 18 -44 14 -54 -29 -74 -45 -22 -232 -24 -297 -3 -57 18
-123 35 -175 45 -49 10 -126 35 -182 61 -23 11 -97 38 -165 60 -142 47 -211
77 -269 120 -23 16 -49 30 -58 30 -19 0 -199 87 -223 108 -10 8 -18 23 -18 33
0 18 120 130 166 154 40 21 241 21 291 0z"/>
</g>
</svg>
