<?xml version="1.0" standalone="no"?>
<!DOCTYPE svg PUBLIC "-//W3C//DTD SVG 20010904//EN"
 "http://www.w3.org/TR/2001/REC-SVG-20010904/DTD/svg10.dtd">
<svg version="1.0" xmlns="http://www.w3.org/2000/svg"
 width="264.000000pt" height="351.000000pt" viewBox="0 0 264.000000 351.000000"
 preserveAspectRatio="xMidYMid meet">
<metadata>
Created by potrace 1.16, written by Peter Selinger 2001-2019
</metadata>
<g transform="translate(0.000000,351.000000) scale(0.100000,-0.100000)"
fill="#000000" stroke="none">
<path d="M333 3436 c-74 -79 -133 -177 -133 -220 0 -15 -7 -43 -15 -63 -10
-23 -15 -69 -15 -134 l0 -99 36 -107 36 -108 42 -45 c24 -25 51 -59 61 -75 36
-57 379 -396 406 -402 15 -3 43 -25 63 -49 20 -24 76 -70 124 -101 48 -32 107
-76 132 -98 25 -23 57 -49 72 -58 15 -9 60 -46 100 -80 40 -35 85 -67 100 -70
15 -4 61 -39 102 -77 42 -39 83 -70 92 -70 10 0 42 -27 72 -61 31 -33 74 -72
96 -87 23 -14 68 -51 101 -82 33 -30 79 -68 101 -83 37 -25 140 -117 217 -194
104 -105 207 -252 207 -297 0 -16 13 -50 29 -75 58 -92 50 -216 -20 -295 -22
-24 -39 -51 -39 -59 0 -19 -46 -53 -86 -63 -16 -4 -51 -17 -79 -30 -27 -13
-77 -32 -110 -43 l-59 -21 -127 0 c-93 0 -137 -4 -164 -16 l-38 -16 -41 16
c-23 9 -72 16 -109 16 -38 0 -84 7 -104 15 -20 8 -66 15 -105 15 -70 0 -135
20 -144 45 -9 21 25 82 61 111 25 20 42 47 55 84 24 67 24 97 5 143 -8 20 -15
49 -15 64 0 19 -14 41 -45 73 -25 25 -65 65 -89 90 -82 85 -208 169 -255 170
-14 0 -85 20 -158 45 l-132 45 -109 0 c-60 0 -124 5 -142 12 -25 8 -45 8 -84
-2 -119 -30 -206 -100 -206 -165 0 -18 -5 -37 -10 -40 -13 -8 -13 -102 0 -110
6 -3 10 -20 10 -36 0 -16 18 -64 39 -107 l39 -77 95 -90 c52 -49 120 -109 150
-132 55 -42 186 -113 208 -113 6 0 40 -13 76 -30 35 -16 69 -30 75 -30 5 0 39
-13 75 -30 37 -17 81 -30 104 -30 22 0 56 -7 76 -15 19 -8 59 -15 87 -15 28 0
71 -6 96 -14 108 -34 143 -40 275 -43 77 -2 144 -8 149 -14 13 -12 313 -12
321 1 3 6 25 10 48 10 23 0 80 14 127 30 46 17 94 30 106 30 12 0 38 7 57 15
20 8 50 15 67 15 22 0 44 13 85 50 30 27 72 60 92 74 46 28 59 43 112 121 27
39 41 71 41 92 0 17 5 35 10 38 13 8 13 102 0 110 -5 3 -10 25 -10 48 0 23 -8
56 -18 72 -12 19 -17 43 -15 65 l5 35 -51 65 c-28 36 -73 92 -101 125 -28 33
-59 74 -69 90 -23 37 -203 211 -251 244 -20 13 -48 41 -63 62 -15 21 -51 51
-80 66 -32 17 -62 44 -80 71 -20 30 -47 52 -88 72 -32 17 -89 59 -126 94 -38
35 -91 75 -118 89 -28 13 -78 49 -112 78 -57 50 -112 93 -249 194 -30 22 -88
67 -130 100 -126 100 -177 139 -216 165 -20 14 -49 44 -64 68 -15 23 -52 60
-83 81 -31 20 -75 62 -98 92 -23 30 -65 81 -93 114 -28 32 -54 71 -57 86 -3
15 -18 40 -34 55 l-29 28 0 126 0 126 21 58 c11 32 31 75 45 95 13 19 24 42
24 51 0 8 14 35 30 60 23 34 30 56 30 93 l0 47 -74 0 -74 0 -69 -74z m278
-2536 c190 -63 295 -130 371 -234 l28 -39 0 -56 c0 -57 -22 -116 -52 -134 -26
-17 -160 55 -311 167 -15 11 -41 42 -57 68 -31 49 -72 78 -113 78 -31 0 -91
-40 -95 -64 -4 -20 22 -86 51 -129 10 -15 17 -34 15 -43 -2 -13 -14 -7 -53 25
-27 22 -54 41 -60 41 -13 0 -60 44 -80 73 -18 28 -65 166 -65 192 0 61 79 104
194 105 l79 0 148 -50z"/>
</g>
</svg>
