<?xml version="1.0" standalone="no"?>
<!DOCTYPE svg PUBLIC "-//W3C//DTD SVG 20010904//EN"
 "http://www.w3.org/TR/2001/REC-SVG-20010904/DTD/svg10.dtd">
<svg version="1.0" xmlns="http://www.w3.org/2000/svg"
 width="786.000000pt" height="294.000000pt" viewBox="0 0 786.000000 294.000000"
 preserveAspectRatio="xMidYMid meet">
<metadata>
Created by potrace 1.16, written by Peter Selinger 2001-2019
</metadata>
<g transform="translate(0.000000,294.000000) scale(0.100000,-0.100000)"
fill="#000000" stroke="none">
<path d="M4260 2930 c-8 -4 -35 -16 -59 -26 -25 -10 -54 -29 -66 -42 -11 -12
-43 -37 -69 -55 l-48 -32 -19 -55 c-36 -107 -21 -261 38 -374 29 -56 137 -211
179 -257 23 -25 53 -63 66 -85 14 -21 55 -66 90 -100 36 -33 75 -79 87 -101
22 -44 55 -73 82 -73 9 0 28 -16 43 -35 14 -19 54 -49 88 -67 40 -21 73 -48
92 -75 17 -24 49 -55 71 -69 22 -14 72 -56 110 -94 39 -37 90 -78 115 -90 107
-54 152 -110 143 -177 l-5 -42 25 -6 c17 -5 38 1 65 16 l40 24 23 -20 c12 -11
32 -37 45 -57 15 -23 43 -47 72 -62 26 -13 88 -52 137 -85 50 -34 98 -61 107
-61 23 0 162 -136 153 -149 -3 -6 -14 -11 -24 -11 -10 0 -35 -7 -54 -15 -20
-8 -61 -15 -90 -15 -30 0 -71 -7 -90 -15 -47 -19 -157 -19 -204 0 -24 10 -71
15 -150 15 -78 0 -125 5 -150 15 -19 8 -60 15 -90 15 -29 0 -70 7 -90 15 -25
11 -72 15 -165 15 -92 0 -139 4 -165 15 -19 8 -54 15 -77 15 -29 0 -69 13
-126 40 -90 44 -188 80 -218 80 -10 0 -56 13 -102 30 -47 16 -96 30 -110 30
-14 0 -54 14 -88 30 -37 18 -80 30 -103 30 -22 0 -56 7 -76 15 -19 8 -53 15
-75 15 -21 0 -55 7 -75 15 -23 10 -69 15 -135 15 -65 0 -111 5 -135 15 -19 8
-52 15 -72 15 -20 0 -56 6 -81 14 -78 25 -133 37 -195 45 -34 5 -70 13 -82 19
-12 7 -60 12 -108 12 -53 0 -99 6 -122 15 -26 11 -76 15 -194 15 -103 0 -167
4 -186 12 -18 8 -113 15 -258 20 -126 4 -240 7 -252 8 -44 1 -98 1 -128 -1
-38 -3 -356 -2 -415 1 -61 3 -198 -14 -233 -28 -16 -7 -72 -12 -126 -12 -65 0
-111 -5 -134 -15 -20 -8 -54 -15 -76 -15 -23 0 -66 -12 -103 -30 -34 -16 -70
-30 -78 -30 -8 0 -35 -14 -60 -30 -25 -16 -52 -30 -61 -30 -16 0 -111 -69
-190 -139 -64 -57 -119 -152 -119 -207 0 -24 5 -46 10 -49 6 -3 10 -20 10 -36
0 -31 31 -101 58 -131 23 -27 67 -23 91 8 l21 27 0 92 0 92 40 32 c23 19 43
45 48 64 7 25 24 42 83 79 136 87 207 118 270 118 31 0 73 7 92 15 20 8 52 15
71 15 20 0 70 11 113 26 53 17 89 23 112 19 18 -4 55 -1 81 6 l48 12 44 -16
c55 -21 173 -22 221 -2 l36 15 276 0 276 0 36 -15 c24 -10 71 -15 150 -15 78
0 125 -5 150 -15 25 -11 72 -15 165 -15 92 0 139 -4 165 -15 24 -10 70 -15
147 -15 68 0 128 -5 156 -14 78 -25 133 -37 195 -45 34 -5 70 -13 82 -19 12
-7 40 -12 63 -12 22 0 57 -7 77 -15 19 -8 60 -15 90 -15 29 0 70 -7 90 -15 19
-8 52 -15 72 -15 20 0 75 -13 121 -30 47 -16 96 -30 110 -30 37 -1 105 -34
124 -61 9 -14 16 -43 16 -70 l0 -47 44 -58 c79 -107 202 -215 289 -253 50 -22
139 -59 185 -75 18 -7 45 -24 60 -37 15 -14 66 -38 113 -53 l86 -27 27 11 c15
5 41 10 58 10 23 0 42 11 74 44 l44 43 0 55 0 54 -51 74 c-29 41 -60 86 -71
99 -23 30 -11 45 26 31 16 -6 116 -10 234 -10 l207 0 45 -30 c51 -34 64 -36
113 -15 25 10 72 15 150 15 79 0 126 5 150 15 20 8 54 15 75 15 22 0 56 7 75
15 24 10 70 15 134 15 l99 0 83 -55 c48 -33 114 -66 158 -80 41 -14 86 -33
101 -44 37 -26 229 -121 244 -121 7 0 33 -14 58 -30 25 -17 58 -30 75 -30 17
0 47 -11 66 -24 45 -31 148 -66 192 -66 18 0 71 -13 117 -30 56 -19 105 -30
142 -30 31 0 60 -4 63 -10 8 -13 192 -13 200 0 3 6 12 10 20 10 7 0 43 14 78
30 36 17 70 30 76 30 7 0 11 36 11 103 l0 104 -23 12 c-12 6 -33 28 -46 49
-38 57 -90 109 -152 152 -65 44 -132 80 -152 80 -7 0 -26 14 -42 30 -16 17
-35 30 -43 30 -8 0 -40 16 -71 35 -63 39 -182 84 -222 85 -14 0 -63 19 -110
41 l-84 41 -195 2 c-138 1 -208 -3 -240 -12 -98 -30 -187 -61 -236 -82 l-51
-23 -69 41 c-38 22 -94 56 -124 75 -30 19 -74 44 -96 56 -23 11 -56 38 -73 59
-21 28 -42 42 -65 46 -19 4 -57 22 -84 40 -26 19 -71 45 -98 59 -54 28 -143
101 -195 161 -18 21 -50 49 -71 62 -21 14 -63 47 -93 74 -30 28 -64 50 -74 50
-10 0 -45 30 -77 66 -33 36 -71 72 -86 80 -15 7 -60 44 -101 81 -41 38 -86 76
-100 85 -14 10 -38 41 -54 70 -15 28 -35 54 -43 58 -62 28 -78 40 -100 81 -14
25 -40 63 -57 83 -18 20 -42 54 -53 76 -11 21 -35 51 -55 65 -23 18 -49 57
-80 119 -25 50 -45 98 -45 106 0 8 -14 35 -30 60 l-30 45 0 85 c0 120 17 144
135 181 94 30 105 41 105 101 l0 48 -102 -1 c-57 0 -110 -4 -118 -9z m2667
-2275 c40 -13 86 -31 102 -40 16 -8 70 -28 118 -44 93 -30 218 -89 268 -126
16 -13 50 -33 75 -45 51 -26 200 -169 200 -193 0 -21 -44 -54 -92 -69 l-40
-12 -94 32 c-51 18 -101 32 -111 32 -9 0 -77 20 -150 45 -73 25 -140 45 -150
45 -32 0 -126 37 -188 74 -33 20 -78 41 -99 47 -61 17 -172 75 -215 114 -21
19 -43 35 -49 35 -6 0 -27 8 -47 17 -52 25 -45 46 27 82 l61 31 156 0 156 0
72 -25z m-2433 -118 c47 -18 66 -31 91 -66 18 -26 51 -55 80 -71 67 -36 106
-100 69 -114 -19 -7 -88 27 -106 52 -14 20 -88 62 -109 62 -33 0 -179 111
-179 136 0 30 74 30 154 1z"/>
</g>
</svg>
