<?xml version="1.0" standalone="no"?>
<!DOCTYPE svg PUBLIC "-//W3C//DTD SVG 20010904//EN"
 "http://www.w3.org/TR/2001/REC-SVG-20010904/DTD/svg10.dtd">
<svg version="1.0" xmlns="http://www.w3.org/2000/svg"
 width="387.000000pt" height="609.000000pt" viewBox="0 0 387.000000 609.000000"
 preserveAspectRatio="xMidYMid meet">
<metadata>
Created by potrace 1.16, written by Peter Selinger 2001-2019
</metadata>
<g transform="translate(0.000000,609.000000) scale(0.100000,-0.100000)"
fill="#000000" stroke="none">
<path d="M230 6064 c-14 -13 -51 -47 -83 -76 -42 -37 -60 -62 -68 -92 -6 -22
-22 -62 -35 -88 -13 -26 -24 -61 -24 -77 0 -16 -5 -33 -10 -36 -12 -8 -13
-179 -1 -203 35 -66 71 -163 71 -189 0 -20 15 -49 48 -91 26 -33 67 -88 92
-121 79 -108 93 -122 132 -147 21 -13 49 -42 62 -63 14 -21 62 -70 107 -107
46 -38 120 -103 165 -144 92 -84 167 -142 234 -181 25 -15 55 -41 68 -58 12
-17 40 -40 61 -50 21 -11 65 -43 97 -70 32 -28 85 -65 118 -82 68 -37 177
-110 224 -150 18 -16 41 -29 51 -29 9 0 28 -12 42 -26 13 -14 41 -35 63 -46
21 -11 57 -33 79 -49 22 -16 48 -29 57 -29 21 0 92 -50 143 -101 37 -36 42
-59 12 -59 -7 0 -43 -13 -78 -30 l-65 -30 -98 0 c-65 0 -112 -5 -140 -16 l-41
-16 -38 16 c-26 11 -70 16 -149 16 -68 0 -128 5 -156 14 -60 19 -125 35 -182
46 -26 5 -56 13 -67 19 -11 6 -30 11 -43 11 -50 0 -252 77 -292 111 -39 33
-100 59 -142 59 -27 0 -54 -30 -54 -61 0 -37 42 -102 75 -118 40 -18 74 -36
170 -88 44 -23 93 -43 108 -43 15 0 44 -7 64 -15 19 -8 53 -15 75 -15 21 0 55
-7 75 -15 19 -8 53 -15 75 -15 21 0 55 -7 75 -15 19 -8 60 -15 90 -15 29 0 70
-7 90 -15 25 -11 72 -15 164 -15 96 0 139 -4 170 -17 l41 -16 47 16 c25 10 69
17 97 17 28 0 68 7 87 15 20 8 47 15 61 15 14 0 54 14 89 30 l65 30 100 0 100
0 44 -35 c24 -19 54 -40 68 -46 14 -6 37 -17 53 -25 15 -8 41 -21 57 -29 46
-23 88 -45 165 -86 77 -41 181 -79 218 -79 13 0 34 -12 48 -26 13 -14 36 -32
51 -40 40 -21 191 -65 288 -84 25 -5 77 -20 115 -34 l70 -26 151 0 150 0 42
31 42 31 0 127 0 127 -19 40 c-11 23 -35 51 -53 63 -18 13 -46 41 -62 62 -15
22 -49 50 -76 64 -26 13 -62 42 -80 65 -17 22 -39 40 -49 40 -9 0 -54 25 -100
55 -84 57 -211 125 -232 125 -6 0 -40 14 -76 30 -35 17 -70 30 -76 30 -7 0
-32 14 -57 30 -25 16 -57 30 -71 30 -14 0 -41 5 -59 11 -24 9 -46 9 -89 -1
-31 -6 -65 -13 -76 -15 -11 -3 -47 -21 -80 -40 -33 -20 -76 -42 -97 -49 -20
-7 -57 -26 -83 -42 -85 -52 -130 -74 -154 -74 -47 0 -322 150 -388 211 -15 15
-44 35 -63 44 -19 10 -54 33 -78 53 -73 59 -144 104 -176 113 -18 5 -59 31
-91 59 -33 27 -81 61 -106 74 -25 14 -70 47 -100 74 -30 27 -77 61 -105 75
-51 26 -110 76 -261 224 -45 44 -97 90 -116 103 -19 13 -48 45 -65 70 -17 25
-50 58 -74 73 -24 16 -54 45 -68 65 -14 20 -41 57 -61 82 -20 25 -47 64 -58
88 -12 24 -44 76 -71 116 -32 47 -62 110 -85 177 l-35 104 0 93 c0 100 10 134
57 199 16 22 37 59 47 82 l19 41 -13 40 -13 40 -61 -1 -61 -1 -25 -24z m2727
-2260 c31 -14 91 -36 132 -50 106 -34 163 -62 260 -129 46 -32 99 -62 117 -67
19 -5 42 -21 51 -35 23 -34 92 -103 127 -127 34 -23 71 -99 58 -121 -18 -33
-105 -85 -141 -85 -39 0 -214 56 -299 95 -29 14 -64 25 -78 25 -14 0 -55 14
-91 30 -35 17 -69 30 -76 30 -6 0 -25 13 -42 28 -16 15 -57 36 -90 47 -93 29
-136 50 -189 94 -26 23 -56 41 -65 41 -24 0 -103 43 -115 63 -16 26 3 49 57
68 26 9 68 30 93 45 137 85 191 94 291 48z"/>
<path d="M473 3243 c-25 -10 -12 -41 35 -85 30 -28 61 -47 84 -52 21 -4 55
-23 81 -46 25 -22 51 -40 59 -40 19 0 147 -85 193 -130 22 -21 63 -50 90 -64
62 -31 73 -41 110 -89 15 -21 50 -49 76 -63 26 -13 56 -36 66 -51 10 -14 38
-45 62 -69 24 -23 57 -55 73 -72 17 -16 50 -49 74 -73 24 -24 58 -57 74 -74
62 -60 171 -187 185 -216 9 -16 33 -40 55 -54 22 -14 47 -37 57 -52 10 -16 39
-53 66 -83 l48 -55 -6 -46 -7 -47 30 -20 29 -21 -5 -31 c-7 -47 20 -70 79 -70
l49 0 27 -42 c14 -24 43 -69 64 -101 21 -32 41 -72 44 -90 4 -18 19 -45 34
-62 16 -16 38 -61 50 -98 12 -38 28 -82 37 -98 27 -54 64 -173 64 -210 0 -20
7 -53 15 -72 11 -28 15 -79 15 -219 l0 -183 -24 -69 c-13 -39 -38 -88 -57
-110 -19 -22 -45 -60 -59 -85 -14 -25 -39 -55 -57 -66 -18 -11 -47 -29 -65
-40 -26 -16 -34 -28 -36 -58 l-3 -37 90 0 c50 0 91 4 91 9 0 5 14 22 32 38
108 97 138 128 138 143 0 9 14 29 30 45 17 16 30 36 30 44 0 9 12 41 26 71 14
30 34 81 45 112 l19 57 0 216 0 216 -20 58 c-10 31 -37 95 -60 141 -22 46 -40
94 -40 107 0 26 -34 132 -56 175 -8 15 -56 90 -107 167 -50 76 -100 152 -109
167 -21 34 -73 103 -120 158 -45 53 -88 118 -88 135 0 7 -36 53 -80 102 -44
49 -91 106 -104 127 -25 39 -55 68 -97 95 -15 9 -48 47 -73 86 -68 101 -272
307 -343 346 -38 20 -68 46 -86 73 -18 26 -47 52 -76 67 -27 13 -84 48 -127
78 -83 57 -155 97 -175 97 -17 0 -80 31 -114 56 -16 12 -49 31 -72 43 l-42 21
-103 -1 c-57 0 -109 -3 -115 -6z"/>
</g>
</svg>
