<?xml version="1.0" standalone="no"?>
<!DOCTYPE svg PUBLIC "-//W3C//DTD SVG 20010904//EN"
 "http://www.w3.org/TR/2001/REC-SVG-20010904/DTD/svg10.dtd">
<svg version="1.0" xmlns="http://www.w3.org/2000/svg"
 width="372.000000pt" height="513.000000pt" viewBox="0 0 372.000000 513.000000"
 preserveAspectRatio="xMidYMid meet">
<metadata>
Created by potrace 1.16, written by Peter Selinger 2001-2019
</metadata>
<g transform="translate(0.000000,513.000000) scale(0.100000,-0.100000)"
fill="#000000" stroke="none">
<path d="M168 5077 c-86 -87 -148 -175 -148 -213 0 -18 -5 -36 -10 -39 -13 -8
-13 -252 0 -260 6 -3 10 -17 10 -31 0 -37 38 -142 66 -183 13 -19 24 -41 24
-49 0 -31 82 -172 115 -197 19 -15 35 -34 35 -42 0 -26 42 -97 80 -138 21 -22
51 -58 67 -81 67 -97 102 -141 173 -218 42 -44 86 -95 97 -112 12 -17 37 -41
56 -54 19 -13 44 -39 58 -58 13 -19 41 -46 64 -59 22 -14 58 -45 79 -70 21
-24 56 -55 77 -69 21 -13 71 -52 111 -87 40 -35 92 -74 115 -85 23 -12 54 -38
69 -58 15 -19 54 -49 86 -65 32 -16 75 -44 96 -62 60 -53 102 -82 180 -123 44
-23 85 -53 103 -76 20 -24 44 -41 67 -48 63 -16 156 -66 189 -100 18 -19 40
-54 49 -79 9 -25 21 -59 27 -75 6 -15 30 -51 53 -78 24 -28 46 -65 49 -82 7
-34 56 -111 122 -193 23 -29 49 -75 57 -102 8 -27 40 -86 71 -132 31 -45 72
-114 92 -153 19 -38 52 -91 73 -116 21 -25 56 -82 79 -127 25 -51 53 -91 75
-108 18 -14 36 -38 39 -53 3 -15 22 -52 41 -82 19 -30 46 -75 59 -100 14 -25
37 -56 51 -69 14 -14 26 -31 26 -38 0 -29 51 -113 85 -139 19 -14 35 -33 35
-41 0 -23 40 -95 81 -143 44 -53 131 -228 117 -236 -21 -13 -154 68 -197 120
-7 9 -21 16 -30 16 -9 0 -75 39 -146 86 -72 48 -142 90 -157 95 -15 4 -62 31
-105 60 -43 29 -112 69 -153 90 -41 21 -97 56 -124 78 -26 23 -56 41 -65 41
-9 0 -29 9 -46 21 -137 93 -242 91 -194 -4 24 -46 163 -177 200 -187 19 -5 54
-26 77 -46 23 -19 57 -40 75 -45 17 -5 53 -26 79 -48 26 -21 63 -42 82 -45 18
-4 53 -24 77 -45 24 -21 60 -46 79 -56 19 -10 54 -33 78 -53 75 -60 144 -104
178 -114 18 -5 57 -30 86 -57 29 -27 76 -60 103 -74 28 -13 78 -50 113 -81 47
-42 70 -56 93 -56 16 0 46 -7 66 -15 19 -8 48 -15 64 -15 15 0 31 -4 34 -10 8
-13 72 -13 80 0 3 5 19 10 36 10 l29 0 0 83 0 83 -35 33 c-20 18 -47 57 -62
85 -14 28 -35 65 -48 81 -12 17 -32 50 -45 75 -31 61 -75 124 -132 188 -26 29
-52 69 -57 88 -5 20 -21 50 -34 67 -13 18 -32 48 -42 67 -10 19 -33 52 -51 72
-18 21 -48 65 -65 100 -17 34 -56 98 -86 141 -30 44 -69 110 -88 146 -18 36
-43 75 -55 86 -19 17 -48 61 -123 187 -11 18 -35 58 -53 90 -19 31 -34 62 -34
70 0 7 -27 54 -61 103 -34 49 -81 130 -106 180 -25 49 -61 107 -80 129 -38 41
-67 101 -58 116 8 14 115 12 167 -1 l43 -11 55 16 c30 9 69 25 87 36 33 20 73
85 73 118 0 19 -116 172 -130 172 -4 0 -41 31 -82 69 -41 38 -103 84 -138 102
-35 17 -80 47 -100 65 -21 19 -43 34 -50 34 -6 0 -41 14 -77 30 -76 36 -150
39 -230 11 -68 -23 -83 -37 -83 -76 0 -18 -8 -43 -18 -55 -24 -30 -59 -22
-110 24 -20 18 -65 48 -100 66 -35 18 -77 50 -93 71 -19 25 -44 42 -67 49 -42
11 -114 63 -181 131 -25 26 -64 56 -86 68 -51 26 -65 38 -100 84 -15 21 -40
44 -55 52 -38 19 -370 354 -370 373 0 9 -29 44 -64 78 -36 35 -73 78 -82 96
-9 18 -34 53 -54 78 -21 25 -49 68 -63 95 -14 28 -35 64 -46 80 -12 17 -21 38
-21 48 0 10 -24 42 -52 71 l-53 52 -24 80 c-14 43 -38 106 -53 139 -15 33 -28
71 -28 85 0 13 -7 43 -16 67 l-16 42 30 64 c16 36 33 78 36 93 12 51 40 76
112 100 38 12 73 29 78 37 6 9 5 31 -4 61 l-13 46 -102 0 -103 0 -54 -53z
m2054 -2330 c29 -13 65 -27 79 -30 23 -6 58 -33 197 -153 33 -29 42 -43 40
-63 l-3 -26 -33 -3 c-45 -4 -273 107 -300 146 -22 30 -54 131 -46 144 7 11 7
11 66 -15z"/>
</g>
</svg>
