<?xml version="1.0" standalone="no"?>
<!DOCTYPE svg PUBLIC "-//W3C//DTD SVG 20010904//EN"
 "http://www.w3.org/TR/2001/REC-SVG-20010904/DTD/svg10.dtd">
<svg version="1.0" xmlns="http://www.w3.org/2000/svg"
 width="321.000000pt" height="588.000000pt" viewBox="0 0 321.000000 588.000000"
 preserveAspectRatio="xMidYMid meet">
<metadata>
Created by potrace 1.16, written by Peter Selinger 2001-2019
</metadata>
<g transform="translate(0.000000,588.000000) scale(0.100000,-0.100000)"
fill="#000000" stroke="none">
<path d="M330 5870 c-8 -4 -35 -16 -59 -26 -25 -10 -63 -34 -85 -53 -23 -18
-58 -45 -79 -58 -26 -16 -45 -40 -64 -81 -14 -31 -30 -65 -34 -74 -5 -10 -9
-98 -9 -197 l0 -179 15 -12 c8 -7 21 -34 29 -60 21 -70 43 -109 97 -168 27
-29 53 -69 58 -89 8 -26 47 -74 143 -173 73 -75 149 -154 169 -176 47 -50 174
-163 220 -193 19 -13 51 -47 70 -75 27 -40 44 -54 78 -65 28 -9 67 -36 110
-76 36 -34 89 -74 117 -88 28 -14 75 -48 105 -75 30 -27 74 -59 99 -72 25 -12
65 -39 90 -60 25 -20 65 -47 90 -60 25 -12 66 -40 92 -61 25 -21 88 -60 139
-86 51 -25 109 -61 128 -78 38 -34 92 -65 112 -65 19 0 155 -68 169 -85 24
-29 -5 -45 -80 -45 -38 0 -84 -7 -104 -15 l-37 -16 -39 12 c-31 9 -49 9 -80 0
l-39 -12 -37 16 c-28 12 -78 15 -226 15 -145 0 -197 3 -225 15 -19 8 -52 15
-72 15 -40 0 -126 27 -209 66 -29 13 -65 24 -81 24 -27 0 -92 40 -120 74 -28
34 -147 104 -199 117 l-54 13 -36 -19 c-20 -11 -45 -35 -55 -53 l-19 -33 12
-29 c13 -32 127 -128 191 -160 23 -12 60 -35 82 -51 22 -16 48 -29 57 -29 10
0 30 -16 44 -35 15 -20 53 -48 84 -64 31 -16 85 -53 119 -82 69 -60 153 -125
195 -151 15 -10 39 -35 53 -57 14 -23 42 -49 63 -60 49 -25 388 -363 413 -412
10 -21 38 -50 61 -66 30 -20 47 -40 56 -68 7 -22 24 -51 36 -65 38 -41 115
-158 153 -234 20 -39 50 -88 68 -109 24 -27 45 -75 75 -164 29 -91 50 -137 75
-165 41 -49 66 -120 77 -223 12 -102 12 -116 1 -195 -5 -41 -17 -78 -31 -98
-45 -62 -151 -132 -202 -132 -33 0 -89 28 -141 71 -63 52 -130 83 -161 76 -13
-4 -40 -17 -59 -30 l-34 -23 -3 -43 -3 -44 122 -121 c140 -139 179 -188 179
-226 0 -15 7 -44 15 -63 21 -50 20 -188 -1 -233 -9 -20 -41 -52 -72 -74 l-55
-40 -137 0 -137 0 -17 -19 c-29 -32 -16 -62 44 -103 l55 -37 122 0 c71 -1 124
3 128 9 3 6 20 10 36 10 86 0 211 116 288 267 l21 42 0 109 0 108 -35 50 c-19
27 -40 64 -46 82 l-11 33 16 24 c9 14 38 36 64 49 26 13 58 36 71 50 14 14 33
26 43 26 31 0 97 68 109 113 6 23 22 63 35 89 13 26 24 59 24 73 0 14 7 42 15
62 18 42 19 86 4 114 -6 11 -14 41 -19 67 -20 105 -60 238 -94 312 -14 30 -26
62 -26 71 0 9 -13 34 -29 57 -17 22 -46 72 -65 110 -38 75 -198 319 -258 393
-19 24 -47 67 -61 95 -14 28 -42 64 -62 80 -48 38 -95 85 -124 124 -13 17 -41
42 -62 56 -22 13 -50 41 -63 62 -13 21 -57 66 -98 101 -203 172 -266 228 -351
319 l-21 23 13 9 c8 5 30 2 54 -6 22 -8 57 -14 79 -14 21 0 55 -7 75 -15 l35
-15 298 0 298 0 35 15 c21 8 67 15 105 15 39 0 85 7 105 15 63 26 180 20 277
-15 68 -24 102 -30 168 -30 50 0 97 -6 119 -15 65 -27 198 -11 285 36 40 22 1
168 -47 178 -11 2 -42 28 -70 57 l-50 54 -132 65 -132 65 -64 0 -64 0 -60 -48
c-33 -27 -85 -59 -116 -71 l-56 -23 -99 31 c-65 21 -113 43 -138 64 -65 54
-147 105 -181 112 -17 3 -52 24 -76 46 -25 21 -50 39 -57 39 -10 0 -93 46
-186 104 -22 14 -60 42 -85 64 -24 21 -56 42 -71 45 -14 4 -40 24 -57 45 -16
21 -49 46 -73 56 -58 24 -57 23 -140 91 -40 33 -86 69 -103 79 -16 11 -64 51
-105 91 -41 39 -95 84 -119 100 -55 37 -132 108 -255 236 -24 24 -54 52 -69
62 -16 10 -31 33 -37 57 -6 24 -21 47 -37 57 -39 26 -143 136 -143 151 0 22
-61 136 -88 164 -30 33 -62 119 -62 169 0 20 -7 53 -15 72 -8 20 -15 51 -15
70 0 42 52 192 76 218 19 21 141 82 184 93 43 10 90 44 90 66 0 43 -156 80
-210 50z m2444 -2493 c17 -12 60 -38 96 -56 80 -42 89 -49 70 -61 -9 -5 -27
-3 -48 6 -19 8 -48 14 -64 14 -16 0 -45 7 -65 15 -19 8 -46 15 -58 15 -12 0
-28 7 -35 15 l-13 16 28 29 c34 36 49 37 89 7z"/>
</g>
</svg>
