<?xml version="1.0" standalone="no"?>
<!DOCTYPE svg PUBLIC "-//W3C//DTD SVG 20010904//EN"
 "http://www.w3.org/TR/2001/REC-SVG-20010904/DTD/svg10.dtd">
<svg version="1.0" xmlns="http://www.w3.org/2000/svg"
 width="483.000000pt" height="522.000000pt" viewBox="0 0 483.000000 522.000000"
 preserveAspectRatio="xMidYMid meet">
<metadata>
Created by potrace 1.16, written by Peter Selinger 2001-2019
</metadata>
<g transform="translate(0.000000,522.000000) scale(0.100000,-0.100000)"
fill="#000000" stroke="none">
<path d="M2137 5168 c-42 -31 -75 -65 -88 -90 -11 -22 -34 -59 -50 -81 l-29
-40 0 -59 c0 -32 -7 -75 -15 -95 -8 -19 -15 -61 -15 -93 0 -32 7 -74 15 -93 8
-20 15 -52 15 -72 0 -67 38 -157 84 -200 24 -22 51 -56 61 -75 10 -19 53 -73
97 -118 l78 -84 -2 -51 -3 -52 54 0 53 0 60 -50 c34 -27 81 -71 107 -96 25
-26 69 -58 98 -73 28 -14 72 -43 98 -66 25 -22 50 -40 54 -40 4 0 31 -20 60
-45 55 -47 162 -121 242 -167 25 -15 58 -43 73 -62 15 -20 39 -39 54 -42 15
-4 56 -24 92 -46 36 -21 76 -42 90 -45 14 -3 54 -24 90 -45 36 -22 77 -42 92
-45 15 -3 38 -18 52 -33 13 -16 32 -33 42 -38 9 -5 15 -16 11 -24 -9 -24 -110
-68 -154 -68 -22 0 -56 -6 -74 -14 -25 -10 -105 -16 -289 -21 -140 -4 -266 -7
-280 -6 -61 0 -197 19 -217 29 -12 7 -40 12 -63 12 -22 0 -57 7 -77 15 -19 8
-60 15 -90 15 -29 0 -70 7 -90 15 -19 8 -47 15 -60 15 -29 0 -86 25 -128 56
-40 29 -153 67 -180 60 -32 -8 -95 -81 -95 -111 0 -18 14 -35 53 -64 53 -40
246 -141 270 -141 7 0 51 -25 97 -56 47 -31 112 -70 144 -87 33 -16 75 -44 95
-62 20 -18 59 -44 88 -58 28 -15 73 -45 99 -68 26 -23 91 -70 145 -105 53 -35
108 -79 123 -99 15 -19 35 -35 45 -35 10 0 36 -13 57 -28 64 -47 324 -312 344
-352 11 -21 41 -56 67 -80 26 -23 62 -63 78 -89 17 -27 45 -68 63 -91 17 -24
32 -50 32 -59 0 -9 11 -33 25 -54 14 -20 37 -71 51 -113 13 -42 31 -89 40
-105 8 -16 26 -62 39 -102 l25 -72 0 -180 0 -181 -20 -58 c-12 -31 -31 -74
-44 -94 -13 -20 -27 -52 -31 -69 -5 -23 -34 -60 -99 -125 l-93 -93 -79 -25
c-43 -13 -119 -43 -169 -67 l-90 -43 -71 0 c-41 0 -87 -6 -107 -15 -52 -22
-422 -22 -474 0 -27 12 -79 15 -225 15 -145 0 -197 3 -225 15 -19 8 -52 15
-72 15 -20 0 -56 6 -81 14 -58 18 -124 35 -175 45 -22 4 -56 12 -75 18 -83 26
-130 36 -215 43 -67 5 -104 14 -142 34 -29 14 -63 26 -74 26 -26 0 -304 92
-366 120 -23 11 -119 45 -215 77 -95 31 -185 64 -199 72 -14 9 -48 29 -74 45
-26 16 -86 42 -132 58 -51 17 -117 50 -167 83 l-82 55 -47 0 -47 0 0 -54 0
-54 32 -24 c18 -14 56 -37 83 -51 28 -14 72 -44 99 -66 26 -23 55 -41 63 -41
20 0 143 -61 213 -106 30 -19 66 -37 80 -40 14 -2 43 -9 65 -15 22 -6 58 -14
81 -18 22 -4 54 -17 70 -28 49 -35 172 -93 197 -93 13 0 61 -13 107 -30 47
-16 94 -30 105 -30 26 0 124 -33 193 -66 29 -13 64 -24 78 -24 13 0 41 -7 61
-15 19 -8 60 -15 90 -15 29 0 70 -7 90 -15 19 -8 52 -15 72 -15 20 0 75 -13
121 -30 53 -18 105 -30 138 -30 29 0 69 -7 89 -15 20 -9 66 -15 109 -15 40 0
76 -4 79 -10 8 -14 942 -14 950 0 3 6 17 10 31 10 30 0 123 31 198 65 30 14
68 25 84 25 16 0 47 13 69 29 22 16 58 38 79 49 22 11 48 30 59 42 11 12 40
34 65 48 61 34 98 70 121 114 11 21 33 54 51 73 23 26 45 77 80 181 l48 145 0
128 c0 92 -4 139 -15 164 -8 20 -15 67 -15 104 -1 83 -59 264 -114 353 -20 32
-36 65 -36 73 0 7 -13 32 -29 54 -16 22 -37 55 -46 74 -10 19 -38 55 -64 80
-25 25 -66 74 -91 108 -106 147 -128 173 -175 209 -27 20 -79 66 -115 102 -77
78 -184 164 -295 239 -44 29 -93 64 -110 78 -99 79 -150 115 -199 143 -39 22
-56 38 -56 52 0 16 4 18 18 12 9 -5 122 -10 251 -12 l235 -3 38 16 c21 8 63
15 94 15 30 0 65 5 77 12 12 6 48 14 82 19 117 15 270 62 343 106 l57 35 45
-17 c102 -39 233 -78 315 -94 22 -4 56 -12 75 -18 89 -28 131 -36 208 -40 l83
-4 48 30 c26 17 53 31 59 31 8 0 12 30 12 99 l0 99 -24 6 c-14 3 -46 31 -72
61 -26 30 -54 55 -62 55 -20 0 -81 30 -126 62 -21 15 -52 28 -68 28 -17 0 -59
14 -95 30 -36 17 -81 30 -103 30 -21 0 -51 5 -65 10 -46 17 -156 -24 -224 -82
-55 -49 -72 -53 -122 -30 -24 12 -66 39 -93 61 -26 23 -55 41 -63 41 -27 0
-137 57 -221 114 -46 32 -118 75 -160 96 -42 21 -99 57 -126 79 -26 23 -57 41
-69 41 -11 0 -39 20 -61 44 -50 53 -123 106 -147 106 -10 0 -27 14 -39 31 -12
16 -40 42 -63 56 -22 14 -61 44 -86 67 -25 23 -62 52 -82 65 -20 14 -46 39
-59 58 -12 18 -44 49 -69 67 -104 76 -239 249 -267 341 -7 25 -24 61 -38 82
-14 21 -26 50 -26 64 0 15 -7 43 -15 62 -8 21 -15 67 -15 105 l0 69 30 60 c21
42 52 80 100 124 78 70 83 87 48 143 l-23 35 -60 0 -60 0 -68 -51z m2250
-2087 c22 -16 59 -39 82 -50 63 -32 48 -61 -18 -35 -18 8 -45 14 -60 14 -34 0
-142 37 -160 55 l-14 14 13 15 c8 11 30 16 65 16 l52 0 40 -29z"/>
</g>
</svg>
