<?xml version="1.0" standalone="no"?>
<!DOCTYPE svg PUBLIC "-//W3C//DTD SVG 20010904//EN"
 "http://www.w3.org/TR/2001/REC-SVG-20010904/DTD/svg10.dtd">
<svg version="1.0" xmlns="http://www.w3.org/2000/svg"
 width="429.000000pt" height="348.000000pt" viewBox="0 0 429.000000 348.000000"
 preserveAspectRatio="xMidYMid meet">
<metadata>
Created by potrace 1.16, written by Peter Selinger 2001-2019
</metadata>
<g transform="translate(0.000000,348.000000) scale(0.100000,-0.100000)"
fill="#000000" stroke="none">
<path d="M2001 3444 c-73 -45 -99 -71 -127 -126 l-24 -47 0 -116 c0 -126 19
-205 66 -274 13 -19 24 -43 24 -52 0 -9 13 -34 29 -56 16 -22 39 -60 52 -84
12 -24 33 -58 48 -74 14 -17 61 -82 103 -146 43 -64 94 -128 113 -143 19 -15
49 -54 65 -86 16 -32 45 -71 65 -86 19 -14 35 -34 35 -44 0 -9 36 -53 80 -96
120 -119 152 -153 206 -224 27 -36 142 -160 256 -277 115 -117 208 -218 208
-224 0 -7 92 -105 204 -218 112 -113 210 -220 219 -237 9 -17 23 -34 32 -37 8
-4 15 -13 15 -22 0 -25 -55 -18 -127 15 -35 16 -75 30 -89 30 -14 0 -41 7 -61
15 -19 8 -53 15 -75 15 -23 0 -67 13 -105 30 -35 16 -69 30 -75 30 -5 0 -39
13 -75 30 -35 16 -74 30 -85 30 -32 0 -317 98 -347 120 -31 22 -141 60 -172
60 -12 0 -61 18 -108 41 -47 22 -160 65 -249 95 -90 30 -176 63 -191 73 -15
11 -82 38 -150 60 -67 23 -135 49 -149 60 -47 33 -149 80 -229 106 -43 14
-102 37 -131 50 -29 14 -58 25 -65 25 -7 0 -29 11 -49 25 -21 14 -73 37 -117
51 -45 14 -144 57 -221 95 -77 38 -151 69 -166 69 -14 0 -55 18 -92 40 -36 22
-82 45 -102 50 -19 5 -59 21 -88 35 -28 14 -58 25 -64 25 -7 0 -38 12 -68 26
-75 35 -164 64 -195 64 l-25 0 0 -39 0 -39 33 -24 c17 -14 52 -35 77 -48 25
-12 66 -40 92 -61 30 -25 73 -47 125 -64 108 -35 157 -59 202 -100 24 -22 49
-35 66 -35 15 0 56 -14 92 -30 35 -17 69 -30 75 -30 7 0 67 -27 135 -60 69
-33 137 -60 151 -60 15 0 44 -11 65 -25 65 -45 235 -125 264 -125 16 0 48 -14
73 -30 25 -16 51 -30 58 -30 7 0 39 -12 69 -26 31 -14 91 -36 132 -50 42 -13
122 -47 179 -74 57 -28 158 -68 225 -90 67 -22 155 -56 196 -76 41 -19 128
-53 195 -75 67 -22 139 -48 162 -59 23 -10 137 -51 255 -90 118 -38 251 -88
297 -110 57 -27 97 -40 125 -40 59 0 165 -55 190 -98 l20 -33 -12 -38 c-6 -21
-11 -72 -11 -114 l0 -75 44 -58 c81 -107 119 -142 193 -179 50 -24 85 -35 117
-35 24 0 48 -5 51 -10 8 -12 119 -13 143 -1 9 5 41 19 71 32 35 15 69 41 97
74 l44 50 0 87 c0 49 -4 96 -9 106 -4 9 -16 33 -25 53 -10 20 -37 58 -60 85
-24 27 -46 61 -49 76 -4 14 -38 55 -75 90 -38 34 -72 75 -75 89 -6 25 -53 72
-111 112 -14 10 -37 40 -51 67 -14 27 -42 61 -64 77 -22 15 -53 48 -69 73 -17
25 -50 58 -74 74 -25 15 -58 49 -75 75 -17 26 -51 59 -75 75 -25 15 -58 49
-75 75 -17 26 -51 59 -75 74 -24 16 -54 45 -68 65 -14 20 -74 88 -134 149 -61
62 -122 131 -138 154 -38 56 -170 207 -280 319 -32 32 -58 67 -58 76 0 10 -29
46 -65 80 -35 35 -76 87 -91 116 -14 29 -41 69 -59 88 -18 19 -50 60 -71 91
-22 30 -54 75 -71 99 -18 23 -33 50 -33 59 0 8 -13 29 -28 46 -16 16 -39 60
-51 98 -12 38 -28 82 -37 99 -8 16 -26 63 -40 103 l-25 74 15 35 c21 51 63
102 101 126 25 15 50 20 107 20 l75 0 27 21 c26 20 31 44 20 87 l-6 22 -182
-1 -181 -1 -54 -34z m1898 -3000 c24 -5 42 -21 71 -61 47 -66 61 -130 36 -168
-20 -30 -44 -31 -116 -6 -59 21 -87 52 -116 128 l-17 43 17 25 c26 40 63 51
125 39z"/>
</g>
</svg>
