<?xml version="1.0" standalone="no"?>
<!DOCTYPE svg PUBLIC "-//W3C//DTD SVG 20010904//EN"
 "http://www.w3.org/TR/2001/REC-SVG-20010904/DTD/svg10.dtd">
<svg version="1.0" xmlns="http://www.w3.org/2000/svg"
 width="225.000000pt" height="531.000000pt" viewBox="0 0 225.000000 531.000000"
 preserveAspectRatio="xMidYMid meet">
<metadata>
Created by potrace 1.16, written by Peter Selinger 2001-2019
</metadata>
<g transform="translate(0.000000,531.000000) scale(0.100000,-0.100000)"
fill="#000000" stroke="none">
<path d="M128 5250 l-65 -59 -23 -73 c-13 -40 -27 -77 -32 -82 -12 -14 -10
-283 2 -291 5 -3 10 -19 10 -34 0 -16 7 -45 15 -64 8 -20 15 -49 15 -65 0 -18
10 -38 30 -57 16 -16 30 -36 30 -45 0 -10 13 -35 29 -57 16 -23 41 -64 55 -91
14 -28 41 -62 59 -76 19 -14 46 -48 60 -74 14 -27 51 -71 80 -98 30 -27 64
-68 76 -92 12 -24 37 -52 55 -63 18 -10 53 -43 77 -72 24 -28 278 -288 566
-577 523 -526 542 -546 577 -609 l18 -33 -13 -9 c-31 -20 -120 -10 -186 21
-35 17 -69 30 -74 30 -6 0 -36 12 -67 26 -31 14 -93 38 -137 52 -44 14 -92 33
-106 41 -109 67 -138 82 -169 91 -60 16 -143 60 -192 101 -52 44 -236 139
-269 139 -11 0 -34 -13 -50 -29 l-29 -29 0 -52 c0 -65 28 -120 79 -157 22 -15
52 -48 67 -71 16 -24 49 -57 74 -74 25 -16 58 -47 73 -69 27 -37 90 -79 119
-79 7 0 32 -23 56 -50 24 -28 61 -59 83 -71 41 -20 91 -66 276 -252 179 -178
223 -226 223 -241 0 -9 31 -50 70 -92 38 -41 73 -87 76 -102 4 -15 22 -44 41
-65 35 -39 203 -366 203 -395 0 -10 14 -37 30 -62 21 -32 30 -57 30 -86 0 -23
7 -58 15 -77 8 -20 15 -61 15 -90 0 -30 7 -71 15 -90 20 -49 20 -215 0 -264
-8 -19 -15 -58 -15 -86 0 -73 -37 -174 -73 -200 -16 -12 -44 -45 -62 -73 -35
-55 -84 -85 -204 -125 l-65 -22 -158 1 c-112 0 -173 5 -206 15 -65 21 -131 38
-172 44 -47 7 -57 17 -63 61 -6 40 -18 88 -49 193 l-20 66 -61 59 c-267 257
-576 260 -577 6 0 -89 30 -142 130 -233 44 -40 100 -84 124 -98 24 -14 68 -41
98 -59 29 -18 65 -35 80 -38 14 -4 39 -19 54 -35 22 -23 37 -29 69 -29 22 0
79 -13 125 -30 47 -16 104 -30 127 -30 23 0 45 -4 48 -10 4 -6 117 -10 305
-10 l299 0 53 32 c29 18 59 41 66 51 8 10 38 31 68 48 29 17 66 47 81 66 15
20 49 57 76 82 26 26 47 54 47 62 0 8 14 43 30 77 17 35 30 75 30 88 0 13 7
41 15 62 l16 39 -4 184 c-3 175 -7 206 -43 319 -8 25 -14 61 -14 81 0 20 -7
53 -15 72 -8 20 -15 48 -15 63 0 15 -13 48 -29 73 -16 25 -31 57 -34 71 -4 14
-24 55 -47 92 -22 37 -40 73 -40 82 0 8 -15 33 -34 55 -19 23 -56 74 -82 114
-26 39 -65 93 -86 118 -21 26 -38 51 -38 56 0 5 -13 22 -30 36 -20 18 -30 36
-30 55 l1 27 32 -36 c18 -20 55 -50 83 -67 l51 -32 128 0 128 0 41 44 c22 24
53 60 69 79 l27 35 0 85 c0 63 -4 88 -15 97 -8 7 -21 33 -29 59 -7 26 -30 79
-50 119 -28 56 -46 78 -84 103 -26 17 -59 47 -72 68 -13 20 -81 93 -150 162
-70 70 -130 138 -134 152 -3 13 -24 40 -46 58 -23 19 -54 48 -70 64 -27 27
-63 63 -150 150 -16 17 -51 51 -76 76 -37 38 -100 100 -151 152 -25 24 -59 58
-75 75 -17 16 -51 50 -75 75 -25 24 -59 58 -75 75 -17 16 -49 49 -72 73 -24
24 -55 52 -69 62 -15 10 -38 40 -52 67 -14 27 -42 61 -64 76 -21 16 -49 44
-62 64 -13 19 -59 71 -102 115 -43 44 -102 116 -132 160 -29 44 -65 91 -79
104 -17 16 -26 35 -26 56 0 22 -9 40 -30 60 -19 18 -30 39 -30 56 0 15 -13 56
-30 91 l-30 63 0 131 0 131 32 44 c17 24 71 83 120 131 54 53 88 95 88 107 l0
21 -134 0 -133 0 -65 -60z m962 -2595 c13 -14 33 -25 44 -25 12 0 52 -14 91
-30 38 -17 80 -30 93 -30 13 0 53 -13 89 -30 35 -16 70 -30 76 -30 7 0 32 -14
57 -30 26 -17 58 -30 76 -30 17 0 36 -6 42 -12 11 -14 21 -328 10 -328 -4 0
-55 47 -114 105 -58 58 -114 105 -123 105 -9 0 -34 20 -55 45 -21 25 -55 57
-76 70 -21 13 -54 48 -74 77 -31 47 -122 118 -151 118 -11 0 -45 31 -45 42 0
17 38 7 60 -17z m878 -262 c23 -35 62 -150 62 -187 0 -48 -16 -66 -61 -66 -51
0 -93 24 -115 65 -24 44 -16 140 15 183 29 42 71 44 99 5z m-1343 -1823 c18
-11 45 -37 60 -58 16 -20 40 -50 55 -67 24 -27 50 -92 50 -125 0 -26 -115 12
-158 52 -15 14 -45 35 -67 47 -68 35 -93 63 -105 115 -5 22 -4 38 3 45 19 19
126 13 162 -9z"/>
</g>
</svg>
