<?xml version="1.0" standalone="no"?>
<!DOCTYPE svg PUBLIC "-//W3C//DTD SVG 20010904//EN"
 "http://www.w3.org/TR/2001/REC-SVG-20010904/DTD/svg10.dtd">
<svg version="1.0" xmlns="http://www.w3.org/2000/svg"
 width="357.000000pt" height="615.000000pt" viewBox="0 0 357.000000 615.000000"
 preserveAspectRatio="xMidYMid meet">
<metadata>
Created by potrace 1.16, written by Peter Selinger 2001-2019
</metadata>
<g transform="translate(0.000000,615.000000) scale(0.100000,-0.100000)"
fill="#000000" stroke="none">
<path d="M230 6140 c0 -6 -10 -21 -23 -33 -12 -13 -31 -36 -41 -52 -11 -16
-38 -50 -62 -75 -50 -54 -84 -144 -84 -224 0 -30 -5 -58 -10 -61 -13 -8 -13
-222 0 -230 6 -3 10 -31 10 -61 0 -63 32 -166 65 -209 12 -17 45 -75 73 -130
l50 -100 126 -133 c69 -73 136 -152 147 -175 12 -23 41 -62 65 -87 357 -367
566 -575 600 -596 23 -15 54 -47 70 -72 16 -24 47 -56 69 -70 22 -14 67 -51
100 -82 33 -32 74 -65 91 -73 17 -9 58 -39 90 -66 33 -28 86 -65 119 -82 33
-17 80 -48 105 -69 25 -20 65 -47 90 -60 70 -38 79 -48 132 -155 28 -55 62
-112 76 -127 27 -29 62 -117 62 -155 l0 -23 -47 21 c-64 29 -62 28 -126 79
-31 25 -95 65 -142 89 -57 28 -95 55 -116 82 -17 21 -37 39 -46 39 -28 0 -138
57 -228 119 l-90 61 -53 0 -54 0 -29 -29 c-33 -33 -35 -53 -14 -104 8 -20 15
-48 15 -62 0 -34 24 -81 66 -127 19 -21 55 -79 80 -130 26 -51 62 -111 80
-134 25 -30 34 -51 34 -77 l0 -37 23 -5 c28 -7 89 -77 159 -182 56 -83 161
-217 178 -228 5 -3 10 -15 10 -25 0 -10 19 -33 43 -52 54 -42 64 -55 76 -97 6
-19 31 -55 58 -80 26 -26 75 -87 108 -136 32 -50 76 -110 96 -135 20 -25 53
-76 72 -115 19 -38 45 -79 57 -90 12 -11 34 -40 48 -65 15 -25 45 -68 67 -97
22 -28 56 -72 75 -97 19 -25 41 -62 48 -82 7 -20 35 -61 62 -91 28 -30 53 -67
57 -81 3 -15 21 -44 39 -64 18 -20 40 -50 48 -66 8 -16 31 -41 51 -56 19 -15
47 -51 61 -79 14 -29 48 -73 74 -99 34 -32 51 -58 56 -83 3 -20 24 -57 46 -83
22 -26 50 -68 64 -95 39 -76 204 -317 256 -375 26 -30 48 -58 48 -63 0 -6 23
-9 53 -7 l52 3 3 49 c2 31 -2 54 -11 65 -8 9 -23 32 -32 51 -10 19 -35 55 -55
80 -21 25 -48 64 -60 88 -11 24 -60 101 -107 170 -47 70 -93 143 -104 163 -10
20 -68 112 -130 204 -61 91 -115 181 -120 199 -13 49 -52 101 -76 104 -31 5
-111 116 -129 179 -11 38 -26 61 -52 82 -35 30 -94 116 -148 216 -14 28 -36
64 -49 80 -12 17 -32 50 -45 75 -13 25 -45 69 -71 98 -27 30 -52 66 -55 80 -4
15 -21 43 -38 62 -45 49 -79 98 -104 147 -12 23 -39 54 -61 69 -36 26 -117
137 -154 210 -9 17 -32 43 -51 58 -23 17 -39 40 -46 65 -5 21 -19 46 -30 56
-28 25 -123 170 -160 244 -18 36 -44 82 -58 103 l-25 39 15 15 16 16 30 -16
c17 -9 37 -24 44 -35 7 -10 32 -28 54 -39 64 -32 174 -110 220 -153 22 -22 57
-44 77 -50 23 -6 47 -23 64 -45 15 -21 54 -49 93 -69 71 -36 189 -113 230
-150 14 -13 45 -33 70 -45 25 -12 65 -39 90 -60 67 -55 122 -80 178 -80 63 0
78 17 87 97 l7 62 -26 6 c-14 3 -37 7 -51 10 -13 3 -32 17 -42 32 -10 15 -44
53 -75 85 -32 31 -58 63 -58 70 0 7 -36 51 -81 97 -44 47 -87 98 -96 115 -9
17 -37 55 -64 83 -32 36 -52 70 -63 105 l-15 53 12 13 13 12 84 -30 c144 -50
253 -35 300 43 27 43 25 67 -9 135 -21 42 -46 71 -92 107 -95 73 -172 125
-189 125 -8 0 -57 20 -108 45 l-94 45 -78 0 -78 0 -48 -40 c-27 -22 -54 -40
-62 -40 -32 0 -142 61 -192 107 -30 28 -70 58 -89 68 -18 9 -62 44 -98 78 -35
34 -78 66 -95 72 -20 6 -43 26 -61 52 -15 23 -41 52 -58 65 -17 13 -45 38 -62
55 -175 180 -257 261 -282 278 -18 12 -36 38 -45 65 -12 34 -27 52 -66 79 -28
19 -62 51 -75 70 -13 20 -48 63 -79 96 -31 33 -65 74 -75 90 -11 17 -47 60
-82 98 -36 38 -79 98 -99 140 -20 39 -53 91 -73 113 -24 28 -44 67 -60 120
-14 44 -38 106 -53 139 -15 33 -28 72 -28 86 0 15 -7 43 -15 62 -10 25 -15 71
-15 144 l0 108 26 75 c25 76 82 169 120 199 32 25 55 77 48 106 l-6 25 -104 0
c-66 0 -104 -4 -104 -10z m2023 -2700 c19 -16 43 -30 54 -30 10 0 43 -9 73
-19 53 -19 80 -42 80 -68 0 -34 -114 3 -159 51 -19 20 -34 26 -67 26 -51 0
-75 27 -48 54 21 22 28 20 67 -14z"/>
</g>
</svg>
