<?xml version="1.0" standalone="no"?>
<!DOCTYPE svg PUBLIC "-//W3C//DTD SVG 20010904//EN"
 "http://www.w3.org/TR/2001/REC-SVG-20010904/DTD/svg10.dtd">
<svg version="1.0" xmlns="http://www.w3.org/2000/svg"
 width="378.000000pt" height="336.000000pt" viewBox="0 0 378.000000 336.000000"
 preserveAspectRatio="xMidYMid meet">
<metadata>
Created by potrace 1.16, written by Peter Selinger 2001-2019
</metadata>
<g transform="translate(0.000000,336.000000) scale(0.100000,-0.100000)"
fill="#000000" stroke="none">
<path d="M1161 3319 c-30 -21 -62 -39 -71 -39 -52 0 -87 -135 -90 -355 -2
-104 24 -217 74 -325 14 -30 26 -62 26 -70 0 -8 14 -35 30 -60 16 -25 30 -52
30 -60 0 -21 186 -296 242 -359 27 -29 58 -72 70 -95 27 -54 47 -76 70 -76 12
0 29 -17 46 -47 15 -26 47 -66 71 -89 24 -23 56 -55 72 -70 99 -99 127 -127
154 -153 17 -16 41 -43 54 -61 13 -17 42 -43 64 -57 22 -14 71 -53 108 -87 78
-70 141 -119 254 -194 44 -30 91 -64 105 -77 14 -12 58 -40 99 -61 54 -28 80
-49 99 -79 32 -49 50 -65 75 -65 21 0 111 -41 138 -62 21 -17 105 -141 114
-167 10 -33 -13 -34 -63 -2 -77 49 -169 91 -200 91 -18 0 -37 10 -53 26 -32
34 -211 124 -248 124 -21 0 -36 9 -55 35 -30 39 -92 75 -128 75 -29 0 -178
-146 -178 -174 0 -11 19 -36 41 -57 l41 -38 -6 -27 c-17 -66 -73 -107 -211
-154 -76 -26 -284 -29 -342 -5 -19 8 -65 15 -102 15 -36 0 -86 6 -111 14 -76
24 -133 37 -190 45 -52 7 -389 115 -457 147 -38 17 -63 50 -63 82 0 41 -41
146 -68 175 -34 36 -93 67 -127 67 -14 0 -42 7 -63 16 -105 44 -152 54 -252
54 -71 0 -110 -5 -130 -15 l-30 -16 0 -60 0 -61 86 -84 c48 -46 94 -84 103
-84 9 0 30 -9 46 -21 83 -56 256 -129 307 -129 13 0 75 -25 138 -56 136 -66
216 -94 267 -94 25 0 53 -10 83 -30 25 -16 56 -30 70 -30 14 0 64 -13 110 -30
47 -16 102 -30 123 -30 21 0 54 -7 74 -15 l35 -15 283 0 283 0 35 15 c20 8 50
15 66 15 57 0 214 140 257 229 9 20 20 43 24 51 4 9 24 16 48 18 45 3 145 -37
205 -82 38 -29 171 -96 190 -96 7 0 50 -25 96 -56 51 -34 114 -65 161 -80 45
-15 94 -39 116 -58 22 -17 52 -40 69 -51 16 -10 50 -37 75 -59 56 -52 119 -95
188 -131 30 -15 59 -36 65 -46 28 -46 177 2 177 56 0 46 -39 104 -86 128 -26
13 -74 47 -108 75 -33 29 -86 71 -116 95 -52 41 -95 90 -167 191 -37 51 -44
82 -15 71 9 -4 47 -11 83 -15 36 -4 75 -12 86 -19 12 -6 50 -11 85 -11 l64 0
29 30 c16 17 36 30 45 30 37 0 47 31 53 157 l5 122 -33 11 c-19 6 -61 35 -94
63 -104 89 -172 139 -202 147 -16 5 -41 17 -56 28 -89 62 -188 80 -266 47 -20
-8 -48 -15 -62 -15 -42 0 -181 -75 -210 -115 -34 -43 -71 -47 -106 -9 -26 28
-89 64 -112 64 -7 0 -24 12 -38 26 -13 14 -55 47 -94 72 -38 26 -94 68 -123
94 -29 27 -56 48 -61 48 -4 0 -55 43 -112 96 -57 52 -121 108 -141 122 -20 15
-49 47 -64 70 -16 24 -49 57 -74 74 -25 17 -57 46 -70 67 -13 20 -43 56 -65
81 -23 25 -50 59 -60 75 -11 17 -37 51 -60 76 -81 92 -125 148 -125 159 0 21
-42 92 -85 146 -24 30 -51 75 -58 102 -16 52 -68 161 -97 202 -10 14 -28 52
-39 85 l-21 59 0 156 0 155 25 37 c37 55 82 78 152 78 45 0 64 4 76 18 20 22
21 35 5 79 l-12 33 -121 -1 -120 -1 -54 -39z m2064 -2269 c33 -12 96 -39 141
-61 l81 -39 54 -66 c62 -76 74 -101 57 -121 -18 -22 -119 -7 -196 28 -35 16
-75 29 -89 29 -13 0 -54 14 -90 30 -35 17 -71 30 -79 30 -24 0 -64 47 -64 76
0 52 56 113 105 114 12 0 48 -9 80 -20z m-2856 -125 c30 -15 46 -41 32 -49
-11 -7 -94 36 -99 52 -5 17 32 15 67 -3z"/>
</g>
</svg>
