<?xml version="1.0" standalone="no"?>
<!DOCTYPE svg PUBLIC "-//W3C//DTD SVG 20010904//EN"
 "http://www.w3.org/TR/2001/REC-SVG-20010904/DTD/svg10.dtd">
<svg version="1.0" xmlns="http://www.w3.org/2000/svg"
 width="852.000000pt" height="339.000000pt" viewBox="0 0 852.000000 339.000000"
 preserveAspectRatio="xMidYMid meet">
<metadata>
Created by potrace 1.16, written by Peter Selinger 2001-2019
</metadata>
<g transform="translate(0.000000,339.000000) scale(0.100000,-0.100000)"
fill="#000000" stroke="none">
<path d="M5841 3352 c-35 -24 -57 -47 -62 -64 -4 -15 -16 -40 -27 -55 -11 -15
-36 -61 -56 -100 l-36 -73 0 -130 0 -131 21 -61 c11 -34 36 -80 55 -102 19
-22 38 -52 41 -66 3 -14 19 -52 35 -85 15 -33 28 -67 28 -76 0 -9 18 -39 40
-65 23 -27 43 -60 47 -74 9 -38 43 -102 68 -130 33 -36 112 -155 140 -211 14
-26 41 -60 60 -75 19 -14 35 -33 35 -41 0 -30 41 -93 79 -120 21 -15 49 -43
62 -63 13 -19 43 -59 66 -88 24 -29 43 -57 43 -62 0 -4 12 -23 26 -40 15 -17
24 -34 20 -37 -4 -4 -28 1 -54 11 -26 10 -67 26 -92 34 -25 9 -80 33 -123 54
-43 21 -82 38 -88 38 -5 0 -40 18 -77 40 -91 55 -107 58 -161 29 -63 -34 -68
-47 -46 -111 35 -104 -3 -150 -170 -207 l-59 -21 -198 0 c-154 0 -207 3 -235
15 -22 9 -67 15 -120 15 -52 0 -97 6 -120 15 -19 8 -47 15 -62 15 -14 0 -51
12 -81 26 -86 40 -230 82 -323 93 -43 5 -64 13 -85 34 l-27 28 23 39 c17 30
22 55 22 105 l0 67 -62 65 c-92 95 -118 106 -268 115 -163 10 -153 10 -245 1
-126 -13 -165 -41 -165 -117 l0 -51 57 -51 58 -51 -14 -17 c-18 -22 -156 -22
-208 -1 -22 9 -67 15 -117 15 -44 0 -101 6 -126 14 -94 30 -138 38 -225 45
-49 4 -100 12 -112 19 -12 7 -47 12 -78 12 -30 0 -72 7 -92 15 -25 11 -72 15
-165 15 -92 0 -139 4 -165 15 -19 8 -64 15 -100 15 l-65 0 -29 -29 c-34 -34
-35 -46 -12 -110 9 -27 13 -58 10 -72 -20 -78 -174 -149 -323 -149 -50 0 -95
-6 -117 -15 -52 -21 -362 -21 -414 0 -20 8 -66 15 -105 15 -38 0 -84 7 -105
15 -22 9 -67 15 -117 15 -85 0 -147 16 -254 66 -29 13 -57 24 -63 24 -6 0 -40
13 -76 30 -35 16 -76 30 -90 30 -29 0 -138 64 -159 94 -9 13 -14 47 -14 95 l0
75 -44 65 c-59 88 -80 106 -153 130 -91 31 -160 28 -233 -9 l-60 -30 0 -83 0
-83 35 -33 c20 -18 42 -46 50 -62 8 -15 39 -44 69 -64 29 -19 74 -53 99 -75
25 -22 51 -40 58 -40 7 0 82 -34 166 -75 85 -41 165 -75 179 -75 13 0 41 -7
61 -15 19 -8 46 -15 60 -15 13 0 49 -11 79 -25 50 -23 201 -74 314 -105 26 -8
135 -16 255 -19 140 -4 217 -10 232 -18 32 -19 221 -17 266 2 22 9 69 15 119
15 l83 1 98 33 c56 19 110 45 125 59 15 14 49 38 77 54 50 30 78 66 100 132 8
22 25 43 45 55 l31 19 38 -12 c21 -6 62 -11 90 -11 28 0 68 -7 88 -15 26 -11
74 -15 180 -15 105 0 153 -4 180 -15 20 -8 66 -15 105 -15 38 0 84 -7 105 -15
19 -8 53 -15 75 -15 21 0 55 -7 75 -15 24 -10 71 -15 150 -15 78 0 125 -5 150
-15 22 -9 67 -15 120 -15 52 0 97 -6 120 -15 19 -8 61 -15 92 -15 l56 0 45
-30 c25 -16 52 -30 60 -30 8 0 39 -11 68 -25 33 -15 73 -25 100 -25 26 -1 72
-9 102 -20 30 -11 71 -19 89 -20 19 0 95 -20 168 -45 73 -25 148 -45 168 -45
20 0 52 -7 72 -15 19 -8 53 -15 75 -15 21 0 55 -7 75 -15 51 -22 405 -22 456
0 20 8 48 15 62 15 59 0 261 123 323 196 24 30 44 44 61 44 13 0 63 -18 110
-41 47 -22 118 -51 156 -64 67 -22 126 -53 245 -128 30 -19 69 -38 86 -42 17
-3 54 -25 82 -49 27 -23 65 -48 83 -55 19 -7 44 -17 55 -21 12 -5 35 -28 51
-52 21 -32 39 -46 73 -57 32 -10 70 -40 146 -113 56 -54 107 -98 112 -98 6 0
43 -30 83 -68 41 -37 92 -80 115 -95 22 -15 65 -48 95 -74 30 -25 97 -75 150
-109 54 -35 116 -80 139 -99 23 -19 48 -35 56 -35 9 0 45 -18 82 -40 36 -22
82 -45 102 -50 19 -5 59 -21 88 -35 28 -14 58 -25 65 -25 7 0 18 -5 23 -10 6
-6 44 -10 90 -8 l79 3 3 43 3 43 -28 35 c-64 81 -211 227 -247 246 -21 11 -67
47 -103 81 -63 61 -114 96 -141 97 -8 0 -37 20 -65 45 -28 24 -77 58 -110 76
-33 17 -95 56 -139 86 -44 30 -114 72 -156 94 -42 22 -102 56 -132 75 -30 19
-74 40 -97 45 -23 6 -63 30 -91 53 -27 24 -65 48 -83 55 -76 28 -102 48 -221
170 -146 150 -208 224 -208 247 0 9 -22 38 -49 64 -27 27 -59 66 -70 88 -11
22 -34 51 -50 64 -37 29 -91 100 -121 158 -13 25 -40 65 -60 90 -21 25 -56 82
-79 127 -25 49 -53 91 -73 107 -25 18 -38 41 -52 88 -11 35 -28 80 -38 100
-10 21 -18 57 -18 81 l0 45 -35 27 c-21 15 -38 39 -41 55 -4 16 -19 41 -35 56
-18 17 -29 38 -29 55 0 14 -11 51 -24 81 -14 31 -25 75 -25 99 -1 24 -2 55 -2
69 -2 64 20 145 65 240 12 25 87 70 117 70 29 0 49 34 49 83 l0 47 -117 -1
-118 0 -54 -37z m-5563 -1496 c5 -23 -35 -21 -47 3 -6 10 -8 21 -5 24 10 10
49 -10 52 -27z m3889 -127 c75 -36 92 -59 69 -94 -22 -34 -49 -39 -93 -18 -51
25 -146 87 -163 108 l-14 17 15 9 c32 20 121 10 186 -22z m3701 -1261 c19 -19
14 -30 -10 -26 -13 2 -24 11 -26 21 -4 20 18 23 36 5z"/>
</g>
</svg>
