<?xml version="1.0" standalone="no"?>
<!DOCTYPE svg PUBLIC "-//W3C//DTD SVG 20010904//EN"
 "http://www.w3.org/TR/2001/REC-SVG-20010904/DTD/svg10.dtd">
<svg version="1.0" xmlns="http://www.w3.org/2000/svg"
 width="594.000000pt" height="330.000000pt" viewBox="0 0 594.000000 330.000000"
 preserveAspectRatio="xMidYMid meet">
<metadata>
Created by potrace 1.16, written by Peter Selinger 2001-2019
</metadata>
<g transform="translate(0.000000,330.000000) scale(0.100000,-0.100000)"
fill="#000000" stroke="none">
<path d="M3090 3232 l-70 -67 0 -33 c0 -18 -7 -49 -15 -69 -10 -25 -15 -71
-15 -153 0 -82 5 -128 15 -153 8 -20 15 -49 15 -64 0 -15 14 -48 30 -73 16
-25 30 -52 30 -61 0 -9 13 -34 29 -57 17 -22 45 -71 64 -109 19 -37 47 -79 61
-92 14 -14 26 -34 26 -45 0 -12 25 -44 60 -78 33 -31 60 -64 60 -73 0 -10 32
-48 72 -85 41 -40 76 -82 82 -101 8 -23 28 -45 63 -69 29 -19 65 -55 80 -79
15 -24 45 -54 65 -68 21 -13 62 -45 92 -71 30 -26 78 -64 109 -85 30 -21 64
-51 75 -67 12 -16 43 -40 70 -55 27 -15 66 -46 86 -71 20 -24 74 -68 119 -98
45 -30 95 -68 112 -86 l30 -31 -15 -9 c-22 -14 -56 -12 -97 5 -27 12 -79 15
-225 15 -145 0 -197 3 -225 15 -22 9 -67 15 -120 15 -52 0 -97 6 -120 15 -19
8 -60 15 -90 15 -29 0 -70 7 -90 15 -22 9 -67 15 -120 15 -52 0 -97 6 -120 15
-19 8 -60 15 -90 15 -29 0 -70 7 -90 15 l-35 15 -280 0 -280 0 -48 -17 -48
-17 -62 20 c-42 13 -68 28 -81 46 -23 32 -114 95 -198 138 -34 17 -78 46 -99
64 -20 18 -66 48 -102 66 -36 18 -86 49 -111 71 -29 24 -73 47 -115 60 l-69
22 -44 49 c-24 27 -62 58 -85 69 -56 29 -200 125 -221 149 -10 11 -35 25 -56
30 -25 7 -48 23 -65 46 -15 19 -43 44 -63 54 -20 10 -93 56 -163 103 -69 47
-146 96 -170 108 -24 12 -50 27 -58 35 -9 7 -46 30 -82 51 -133 76 -204 122
-227 147 -14 14 -32 26 -40 26 -9 0 -54 18 -100 39 -93 44 -124 43 -129 -2 -3
-20 3 -29 26 -41 16 -8 41 -31 56 -51 18 -23 56 -50 108 -76 82 -41 171 -101
197 -133 17 -20 74 -50 113 -60 14 -3 50 -28 80 -54 50 -45 270 -197 368 -254
25 -14 55 -40 68 -57 12 -17 41 -40 65 -52 57 -29 200 -125 222 -149 10 -11
35 -25 56 -30 22 -6 46 -22 56 -37 40 -58 71 -83 105 -83 49 -1 105 -30 174
-92 39 -35 74 -58 96 -62 21 -4 60 -28 99 -61 35 -30 91 -69 124 -87 66 -35
152 -95 174 -122 16 -19 83 -56 101 -56 7 0 35 -20 63 -45 29 -25 93 -66 142
-91 50 -26 110 -63 135 -84 46 -38 120 -80 140 -80 7 0 35 -20 63 -45 29 -25
87 -64 131 -86 43 -23 95 -56 115 -74 20 -18 63 -46 97 -63 34 -17 97 -55 140
-85 44 -30 98 -64 121 -75 22 -12 76 -46 120 -76 44 -30 121 -75 172 -100 50
-26 108 -61 129 -79 25 -22 70 -43 142 -67 58 -18 109 -37 114 -42 6 -4 56 -8
112 -8 l103 0 36 23 c19 12 50 31 67 42 24 15 38 36 55 85 26 76 29 133 8 183
-8 20 -15 48 -15 62 0 14 -9 42 -19 63 -22 42 -190 219 -236 247 -16 10 -50
37 -75 60 -43 40 -332 195 -390 209 -14 3 -41 15 -60 27 l-35 22 20 7 c11 4
35 2 54 -6 21 -9 72 -14 138 -14 69 0 115 -5 140 -15 20 -8 66 -15 105 -15 38
0 84 -7 105 -15 27 -11 77 -15 210 -15 131 0 182 -4 209 -15 25 -10 65 -14
134 -12 l99 2 33 -31 c41 -40 148 -94 185 -94 15 0 48 -14 73 -30 25 -16 52
-30 61 -30 8 0 57 -20 108 -45 59 -29 106 -45 129 -45 20 0 57 -6 82 -14 99
-31 138 -39 218 -43 l82 -4 45 28 44 28 0 75 0 75 -41 25 c-23 14 -68 46 -101
73 -33 26 -67 47 -76 47 -9 0 -45 14 -79 30 -48 22 -78 30 -120 30 -43 0 -73
8 -120 30 -37 18 -80 30 -103 30 -22 0 -56 7 -76 15 -24 10 -71 15 -150 15
-78 0 -125 5 -150 15 -19 8 -45 15 -57 15 -36 0 -139 40 -175 68 -73 58 -157
112 -172 112 -9 0 -29 16 -43 35 -15 19 -44 44 -64 54 -42 21 -124 87 -217
172 -33 30 -73 64 -90 74 -16 10 -50 37 -75 60 -25 22 -64 54 -88 69 -23 16
-58 50 -77 76 -19 26 -50 58 -69 71 -19 13 -47 43 -63 68 -15 24 -44 54 -64
67 -21 13 -58 55 -85 96 -26 40 -64 93 -84 118 -47 57 -100 143 -100 160 0 7
-16 30 -35 51 -41 45 -65 94 -100 202 -14 42 -37 95 -51 117 l-26 39 11 34 c8
24 8 42 1 64 -9 24 -8 39 4 68 9 21 16 49 16 64 0 39 26 69 70 81 43 12 80 51
80 84 0 12 -13 34 -28 49 l-28 27 -77 0 -76 0 -71 -68z m-345 -2143 c11 1 68
4 127 7 l106 6 75 -25 c41 -14 102 -39 135 -56 65 -33 164 -66 223 -76 19 -3
65 -25 101 -48 36 -24 81 -49 100 -56 18 -7 56 -22 83 -33 28 -11 68 -27 91
-35 23 -8 62 -32 89 -54 26 -21 54 -39 62 -39 36 0 268 -221 279 -266 3 -16
19 -50 35 -75 36 -56 40 -122 10 -139 -28 -14 -76 -12 -118 5 -19 8 -45 15
-56 15 -41 0 -147 43 -184 75 -21 18 -70 48 -109 68 -39 20 -107 60 -150 90
-85 58 -155 97 -176 97 -6 0 -25 12 -40 27 -27 25 -46 38 -168 108 -29 17 -74
44 -100 62 -26 17 -80 48 -121 68 -41 21 -81 43 -89 51 -9 7 -46 30 -82 51
-204 117 -249 153 -217 175 8 4 28 6 44 2 17 -4 39 -6 50 -5z"/>
</g>
</svg>
