<?xml version="1.0" standalone="no"?>
<!DOCTYPE svg PUBLIC "-//W3C//DTD SVG 20010904//EN"
 "http://www.w3.org/TR/2001/REC-SVG-20010904/DTD/svg10.dtd">
<svg version="1.0" xmlns="http://www.w3.org/2000/svg"
 width="231.000000pt" height="336.000000pt" viewBox="0 0 231.000000 336.000000"
 preserveAspectRatio="xMidYMid meet">
<metadata>
Created by potrace 1.16, written by Peter Selinger 2001-2019
</metadata>
<g transform="translate(0.000000,336.000000) scale(0.100000,-0.100000)"
fill="#000000" stroke="none">
<path d="M501 3324 c-74 -46 -99 -71 -128 -128 -13 -26 -38 -66 -54 -89 l-29
-40 0 -89 c0 -63 6 -106 20 -149 24 -71 162 -350 194 -394 13 -16 44 -70 69
-120 26 -49 70 -116 97 -149 28 -32 58 -72 66 -89 9 -16 35 -53 57 -82 23 -30
62 -81 87 -115 25 -34 90 -108 145 -166 55 -57 111 -121 125 -142 14 -20 52
-70 85 -110 33 -40 75 -97 93 -125 18 -29 50 -68 71 -87 21 -19 46 -51 56 -70
10 -19 47 -66 83 -104 74 -79 131 -188 111 -212 -19 -23 -47 -16 -168 42 -64
31 -149 67 -189 80 -40 13 -85 32 -100 43 -47 33 -149 80 -229 106 -94 31
-175 68 -217 100 -17 13 -87 42 -156 64 -69 23 -149 53 -178 66 -29 14 -57 25
-63 25 -6 0 -40 14 -76 30 -85 39 -135 39 -213 0 l-60 -30 0 -74 0 -74 67 -72
c37 -40 85 -84 107 -97 22 -14 60 -44 85 -67 25 -23 65 -54 87 -69 23 -16 61
-45 84 -65 46 -39 125 -71 176 -72 36 0 64 26 64 60 0 27 -77 104 -147 149
-55 34 -159 159 -140 167 7 2 36 -5 63 -16 27 -12 83 -33 124 -46 88 -28 111
-39 164 -76 21 -16 45 -28 53 -28 8 0 44 -13 80 -30 35 -16 70 -30 76 -30 7 0
32 -14 57 -30 25 -16 52 -30 60 -30 9 0 32 -11 52 -25 20 -14 69 -36 110 -49
71 -23 133 -56 249 -130 30 -20 68 -36 83 -36 56 0 128 -65 162 -145 8 -20 14
-67 14 -115 0 -55 7 -100 21 -142 41 -123 64 -153 163 -213 l58 -35 74 0 c40
0 76 4 79 10 3 5 21 10 38 10 44 0 73 22 102 80 14 27 29 51 35 55 5 3 10 44
10 92 l0 85 -25 30 c-14 16 -25 36 -25 44 0 8 -9 33 -20 55 -26 49 -194 303
-230 344 -14 17 -47 63 -73 102 -26 39 -63 83 -82 97 -19 15 -46 49 -60 76
-14 27 -42 61 -64 76 -21 16 -49 44 -62 64 -13 19 -48 62 -79 95 -31 33 -65
74 -75 90 -21 32 -83 111 -126 160 -15 17 -29 42 -33 56 -3 15 -40 57 -87 100
-44 41 -90 90 -102 109 -11 19 -35 52 -53 72 -18 20 -40 52 -50 70 -9 18 -33
51 -54 73 -21 22 -103 137 -182 257 -198 299 -248 386 -248 432 0 16 -14 50
-30 76 l-31 48 -2 95 -2 96 31 33 c16 18 42 52 57 76 l27 42 49 0 c34 0 53 5
64 18 25 28 21 76 -9 111 l-26 31 -76 -1 -77 -1 -54 -34z m1498 -2883 c53 -75
78 -188 51 -231 l-10 -15 -36 20 c-29 16 -40 31 -55 75 -18 52 -26 160 -12
173 15 15 43 5 62 -22z"/>
</g>
</svg>
