<?xml version="1.0" standalone="no"?>
<!DOCTYPE svg PUBLIC "-//W3C//DTD SVG 20010904//EN"
 "http://www.w3.org/TR/2001/REC-SVG-20010904/DTD/svg10.dtd">
<svg version="1.0" xmlns="http://www.w3.org/2000/svg"
 width="630.000000pt" height="336.000000pt" viewBox="0 0 630.000000 336.000000"
 preserveAspectRatio="xMidYMid meet">
<metadata>
Created by potrace 1.16, written by Peter Selinger 2001-2019
</metadata>
<g transform="translate(0.000000,336.000000) scale(0.100000,-0.100000)"
fill="#000000" stroke="none">
<path d="M4124 3313 c-21 -25 -55 -72 -76 -102 l-38 -56 0 -61 c0 -34 7 -78
15 -97 8 -20 15 -47 15 -61 0 -14 14 -54 30 -89 17 -36 30 -70 30 -75 0 -6 14
-40 30 -75 17 -36 30 -72 30 -80 0 -8 15 -33 34 -55 18 -23 68 -92 109 -155
42 -63 92 -126 111 -141 23 -17 39 -40 46 -66 8 -28 26 -53 65 -87 30 -26 55
-56 55 -66 0 -10 54 -74 120 -143 66 -68 120 -129 120 -135 0 -5 29 -40 64
-78 35 -37 75 -86 90 -109 14 -23 35 -46 47 -53 12 -6 68 -59 124 -117 57 -59
125 -129 151 -157 126 -131 214 -229 214 -239 0 -7 13 -27 30 -46 16 -19 29
-38 30 -42 1 -28 -126 28 -198 87 -30 25 -62 45 -71 45 -9 0 -45 14 -79 30
-35 17 -70 30 -77 30 -28 0 -332 160 -379 199 -26 23 -56 41 -65 41 -29 0
-145 60 -191 99 -89 75 -129 85 -195 48 -45 -26 -94 -104 -95 -152 -1 -35 -20
-77 -73 -157 -52 -81 -69 -93 -159 -122 -43 -14 -92 -33 -109 -41 -53 -28
-173 -65 -210 -65 -20 0 -53 -7 -72 -15 -25 -10 -72 -15 -150 -15 -79 0 -126
-5 -150 -15 l-36 -15 -590 0 -591 0 -41 17 -41 16 -48 -17 -48 -17 -37 15
c-27 12 -72 16 -167 16 -92 0 -139 4 -165 15 -19 8 -53 15 -75 15 -21 0 -55 7
-75 15 -19 8 -45 15 -57 15 -12 0 -60 13 -106 30 -47 16 -102 30 -123 30 -21
0 -54 7 -74 15 -19 8 -47 15 -62 15 -14 0 -55 14 -89 30 -35 17 -69 30 -75 30
-7 0 -32 14 -57 30 -31 21 -57 30 -85 30 -57 0 -162 38 -313 114 -73 36 -144
66 -160 66 -18 0 -38 11 -57 30 l-29 30 -48 0 -48 0 0 -40 0 -39 28 -15 c16
-8 41 -31 56 -51 31 -41 169 -115 213 -115 18 0 62 -22 118 -60 50 -33 101
-60 115 -60 28 0 243 -71 289 -94 44 -23 198 -68 293 -86 26 -5 56 -13 67 -19
11 -6 30 -11 43 -11 13 0 62 -13 108 -30 53 -18 105 -30 138 -30 29 0 69 -7
89 -15 20 -8 66 -15 105 -15 38 0 84 -7 105 -15 l35 -15 429 0 429 0 41 -17
41 -16 47 16 46 17 336 0 337 0 35 15 c20 8 55 15 77 15 23 0 50 5 61 11 11 6
41 14 67 19 133 25 354 97 416 136 28 18 72 44 97 58 58 31 153 135 182 198
12 27 25 48 28 48 3 0 47 -13 97 -29 61 -20 118 -47 169 -81 42 -29 96 -58
120 -65 23 -7 87 -43 141 -79 l98 -66 45 0 45 0 29 -30 c16 -17 37 -30 46 -30
10 0 37 -16 61 -35 49 -39 130 -85 151 -85 8 0 22 -9 33 -21 10 -11 49 -43 86
-71 l68 -50 0 -86 c1 -106 22 -172 74 -233 20 -24 50 -63 65 -85 15 -23 59
-76 97 -118 l71 -76 141 0 141 0 26 25 25 26 0 115 c0 63 -4 122 -9 132 -5 9
-17 37 -27 61 -10 25 -33 62 -51 83 -17 21 -52 69 -77 107 -25 38 -62 81 -81
95 -19 15 -46 48 -59 74 -14 27 -87 113 -170 200 -80 84 -146 158 -146 163 0
17 -111 128 -160 161 -25 17 -51 39 -58 49 -7 11 -43 55 -80 98 -37 43 -98
115 -136 160 -37 45 -86 93 -107 107 -21 13 -50 42 -64 63 -13 22 -44 56 -68
76 -25 21 -55 56 -67 79 -13 22 -45 65 -72 95 -27 30 -60 75 -73 102 -14 26
-42 60 -64 75 -21 16 -62 65 -92 109 -29 44 -75 104 -102 134 -26 30 -60 77
-74 105 -14 28 -36 65 -49 82 -12 17 -34 56 -48 85 -33 70 -96 258 -96 285 0
12 -7 38 -15 57 -30 72 -13 146 45 202 l30 29 0 63 0 63 -84 0 -84 0 -38 -47z
m1862 -2876 c31 -43 114 -206 114 -225 0 -14 -27 -23 -47 -15 -37 13 -73 45
-73 65 0 11 -22 41 -49 68 -65 63 -71 85 -35 120 16 15 36 28 44 29 8 0 29
-19 46 -42z"/>
</g>
</svg>
