<?xml version="1.0" standalone="no"?>
<!DOCTYPE svg PUBLIC "-//W3C//DTD SVG 20010904//EN"
 "http://www.w3.org/TR/2001/REC-SVG-20010904/DTD/svg10.dtd">
<svg version="1.0" xmlns="http://www.w3.org/2000/svg"
 width="627.000000pt" height="408.000000pt" viewBox="0 0 627.000000 408.000000"
 preserveAspectRatio="xMidYMid meet">
<metadata>
Created by potrace 1.16, written by Peter Selinger 2001-2019
</metadata>
<g transform="translate(0.000000,408.000000) scale(0.100000,-0.100000)"
fill="#000000" stroke="none">
<path d="M2675 4070 c-3 -5 -23 -10 -42 -10 l-37 0 -54 -57 c-61 -67 -73 -86
-101 -171 l-21 -63 6 -82 c5 -53 16 -100 31 -132 12 -27 23 -57 23 -65 0 -8
14 -35 30 -60 16 -25 30 -52 30 -61 0 -9 10 -24 21 -35 12 -10 36 -41 54 -69
18 -27 42 -59 54 -69 11 -11 21 -27 21 -36 0 -23 53 -97 101 -140 21 -19 44
-52 51 -74 9 -27 27 -49 55 -70 46 -33 211 -217 248 -275 12 -20 42 -49 67
-64 24 -16 53 -42 63 -59 11 -16 40 -45 65 -65 25 -19 101 -89 170 -156 69
-68 138 -131 155 -141 16 -11 59 -47 96 -80 37 -34 88 -74 113 -91 25 -16 79
-56 121 -89 l75 -58 0 -33 c0 -18 10 -44 22 -60 l21 -27 45 6 c70 9 140 -16
214 -79 115 -98 118 -101 118 -137 0 -19 11 -49 26 -72 19 -27 25 -46 21 -66
-5 -21 0 -33 18 -50 13 -13 22 -27 19 -32 -8 -13 -46 2 -71 28 -15 16 -33 24
-55 24 -20 0 -51 12 -78 30 -25 16 -52 30 -60 30 -8 0 -35 14 -60 30 -25 16
-52 30 -60 30 -16 0 -70 28 -145 74 -26 16 -86 42 -133 58 -46 16 -97 37 -111
47 -36 26 -168 91 -183 91 -7 0 -82 34 -166 75 -85 41 -158 75 -164 75 -16 0
-205 95 -268 136 -30 19 -71 39 -90 44 -49 13 -133 55 -182 90 -22 17 -48 30
-57 30 -22 0 -195 84 -234 114 -35 26 -142 66 -179 66 -23 0 -69 22 -153 74
-26 16 -65 35 -88 43 -22 8 -53 23 -69 34 -16 12 -43 25 -61 30 -18 5 -54 27
-81 49 -26 22 -55 40 -63 40 -21 0 -81 29 -127 62 -21 15 -46 28 -56 28 -9 0
-29 14 -45 30 -16 17 -36 30 -44 30 -22 0 -155 73 -258 142 -31 20 -70 39 -88
42 -18 4 -53 24 -77 45 -24 21 -86 60 -138 86 -52 26 -116 65 -142 86 -25 21
-79 55 -119 75 -40 20 -91 50 -113 65 -21 16 -46 29 -55 29 -9 0 -32 11 -52
24 -53 37 -240 96 -300 96 -28 0 -73 -8 -100 -17 l-49 -18 0 -52 c0 -61 23
-105 91 -172 25 -25 53 -58 62 -73 10 -15 35 -37 56 -48 22 -11 60 -37 85 -59
111 -96 310 -211 366 -211 43 0 102 32 133 74 15 19 36 38 47 41 27 8 178 -65
229 -110 21 -19 44 -35 51 -35 26 0 148 -64 191 -100 30 -25 73 -48 115 -61
38 -12 83 -34 99 -49 63 -56 102 -79 178 -104 43 -14 91 -35 106 -46 37 -26
219 -115 251 -123 14 -4 44 -22 66 -41 30 -25 74 -46 162 -75 67 -22 139 -52
159 -66 21 -14 44 -25 51 -25 7 0 43 -18 80 -40 36 -22 82 -45 102 -50 49 -13
133 -55 182 -90 22 -17 48 -30 55 -30 21 0 82 -29 118 -56 51 -38 233 -124
262 -124 28 0 66 -18 164 -78 30 -17 70 -36 89 -42 50 -13 134 -55 182 -90 22
-17 47 -30 55 -30 8 0 43 -13 77 -29 34 -16 76 -32 93 -35 18 -4 51 -24 75
-45 53 -47 81 -61 182 -92 55 -17 92 -35 121 -61 24 -21 48 -38 55 -38 6 0 39
-13 73 -28 34 -16 73 -32 87 -35 14 -4 51 -28 84 -54 81 -67 126 -93 161 -93
47 0 115 -41 149 -88 17 -23 54 -57 81 -74 28 -18 103 -86 167 -150 65 -65
137 -129 160 -144 24 -14 61 -46 84 -70 l41 -44 38 0 38 0 41 -44 c23 -24 59
-54 81 -65 22 -12 65 -38 95 -57 30 -19 66 -37 80 -41 14 -3 39 -18 55 -34 40
-37 147 -89 184 -89 16 0 33 -4 36 -10 8 -13 72 -13 80 0 3 6 19 10 36 10 l29
0 0 68 0 69 -24 11 c-13 6 -26 22 -29 39 -6 31 -75 98 -177 173 -34 25 -86 64
-115 87 -29 23 -73 51 -96 63 -24 13 -63 38 -87 58 -88 70 -204 142 -232 142
-6 0 -41 18 -78 40 -37 23 -78 43 -92 47 -14 3 -38 18 -55 33 -16 15 -48 38
-70 49 -101 55 -177 112 -242 181 -93 99 -163 205 -163 248 0 39 5 39 104 7
42 -14 85 -25 94 -25 26 0 113 -32 141 -52 25 -17 51 -10 51 15 0 5 20 28 45
51 l45 42 0 73 0 72 -27 25 c-60 54 -158 125 -290 208 l-43 26 0 34 c0 46 -26
66 -86 66 -36 0 -59 -7 -86 -25 -46 -31 -49 -31 -78 0 -24 26 -71 33 -100 15
l-14 -9 12 -34 c17 -48 15 -57 -14 -57 -14 0 -37 -9 -51 -20 -29 -22 -63 -12
-63 19 0 26 -32 51 -66 51 -16 0 -42 9 -59 21 -16 11 -55 33 -86 49 -31 16
-80 51 -110 78 -30 27 -78 62 -107 77 -61 32 -88 62 -104 119 -17 61 -26 69
-72 63 l-39 -6 -44 50 c-30 33 -57 52 -84 59 -22 6 -46 21 -56 37 -10 14 -114
122 -230 240 -117 117 -222 231 -233 253 -11 21 -39 51 -62 67 -25 16 -54 48
-68 74 -14 25 -40 63 -57 83 -18 20 -40 51 -49 69 -25 49 -74 116 -127 175
-26 30 -50 66 -54 80 -3 15 -19 54 -35 87 -16 36 -28 77 -28 101 0 23 -7 58
-15 77 -8 20 -15 61 -15 90 l0 54 41 56 40 57 30 0 c31 0 82 22 112 48 12 10
17 30 17 64 l0 48 -104 0 c-59 0 -108 -4 -111 -10z m-2220 -921 c17 -7 46 -26
66 -41 20 -15 40 -28 44 -28 6 0 63 -41 98 -70 12 -10 -3 -40 -21 -40 -31 0
-118 50 -157 90 -22 22 -59 52 -82 66 -27 16 -43 33 -43 45 l0 19 33 -14 c17
-7 46 -19 62 -27z m4561 -1660 l17 -19 -16 -6 c-17 -6 -77 21 -77 35 0 25 50
19 76 -10z"/>
</g>
</svg>
