<?xml version="1.0" standalone="no"?>
<!DOCTYPE svg PUBLIC "-//W3C//DTD SVG 20010904//EN"
 "http://www.w3.org/TR/2001/REC-SVG-20010904/DTD/svg10.dtd">
<svg version="1.0" xmlns="http://www.w3.org/2000/svg"
 width="531.000000pt" height="492.000000pt" viewBox="0 0 531.000000 492.000000"
 preserveAspectRatio="xMidYMid meet">
<metadata>
Created by potrace 1.16, written by Peter Selinger 2001-2019
</metadata>
<g transform="translate(0.000000,492.000000) scale(0.100000,-0.100000)"
fill="#000000" stroke="none">
<path d="M2610 4910 c-8 -4 -35 -16 -60 -26 -26 -11 -74 -47 -112 -84 l-66
-65 -20 -60 c-44 -134 -44 -276 0 -410 25 -77 40 -105 72 -134 14 -14 26 -32
26 -41 0 -9 13 -35 29 -57 16 -22 39 -60 51 -83 30 -58 94 -141 167 -216 34
-34 69 -78 79 -96 9 -18 125 -142 258 -275 178 -178 252 -246 279 -255 44 -15
110 -63 182 -133 28 -27 98 -88 155 -135 57 -47 131 -110 165 -141 33 -30 73
-64 90 -74 16 -10 50 -37 75 -60 25 -24 64 -52 86 -63 50 -25 169 -106 204
-137 14 -13 48 -35 76 -49 32 -17 72 -51 104 -89 59 -69 130 -206 130 -249 l0
-29 -130 7 c-101 5 -133 4 -145 -6 -21 -17 -55 -84 -55 -107 0 -10 28 -59 61
-108 70 -102 119 -199 119 -234 0 -13 8 -45 17 -72 l18 -49 -18 -49 c-9 -27
-17 -67 -17 -89 0 -52 -15 -68 -135 -147 l-100 -65 -71 0 c-41 0 -87 -6 -107
-15 -28 -11 -78 -15 -210 -15 -133 0 -183 -4 -210 -15 -23 -9 -68 -15 -120
-15 -54 0 -98 -6 -122 -16 l-38 -16 -41 15 c-29 10 -92 15 -214 16 -94 1 -184
6 -200 12 -15 6 -90 13 -167 16 -83 3 -154 11 -174 19 -22 9 -76 14 -163 14
-92 0 -139 4 -165 15 -19 8 -52 15 -72 15 -20 0 -75 13 -121 30 -47 16 -101
30 -120 30 -19 0 -55 6 -80 14 -58 18 -124 35 -175 45 -22 4 -56 12 -75 18
-50 16 -118 33 -170 43 -86 16 -184 86 -224 159 -18 34 -44 62 -75 82 -27 18
-62 53 -79 79 -21 31 -50 58 -85 78 -29 16 -65 46 -80 66 -18 22 -41 39 -65
45 -20 6 -101 42 -179 81 -106 52 -154 70 -183 70 -22 0 -57 7 -77 15 -79 33
-218 0 -278 -66 -40 -45 -41 -54 -16 -129 20 -59 64 -100 107 -100 22 0 115
-48 224 -116 30 -19 71 -39 90 -44 42 -11 134 -57 206 -104 29 -18 105 -50
170 -71 l119 -38 43 -41 c64 -62 102 -125 102 -173 0 -22 7 -57 15 -76 16 -40
21 -183 6 -206 -13 -20 -37 -7 -64 36 -27 41 -55 69 -102 98 -16 10 -67 53
-112 94 -45 42 -106 95 -137 118 -56 43 -185 113 -208 113 -7 0 -42 14 -76 30
l-64 30 -93 0 -92 0 -87 -84 -86 -84 0 -91 c0 -50 4 -99 10 -109 5 -9 19 -46
31 -82 23 -71 48 -110 118 -182 25 -26 57 -59 71 -73 34 -35 130 -110 168
-129 17 -9 66 -27 109 -41 43 -14 102 -37 131 -50 l53 -25 115 0 116 0 89 31
89 31 33 -21 c31 -19 80 -68 267 -269 l85 -92 58 0 57 0 0 50 0 51 -63 67
c-35 37 -72 81 -83 97 -10 17 -35 50 -55 75 -63 79 -99 145 -99 181 0 19 13
73 30 119 l30 85 0 147 c0 81 -5 159 -10 174 -8 21 -8 31 2 41 l13 13 132 -45
c73 -25 148 -45 168 -45 20 0 52 -7 72 -15 19 -8 52 -15 72 -15 20 0 56 -6 81
-14 86 -27 135 -38 210 -46 41 -4 89 -12 105 -18 78 -27 130 -35 255 -41 77
-4 144 -12 157 -19 16 -9 95 -12 288 -12 l266 0 36 -15 c19 -8 55 -15 78 -15
23 0 59 7 78 15 l36 15 279 0 280 0 35 15 c20 8 59 15 87 15 48 0 228 53 295
87 40 21 113 71 148 103 35 31 77 110 77 145 0 14 7 42 15 62 9 22 15 68 15
123 0 55 -6 101 -15 123 -8 20 -15 47 -15 60 0 14 -11 50 -26 82 -14 32 -23
64 -20 71 6 16 114 -35 176 -85 25 -20 57 -44 73 -54 15 -10 38 -34 51 -55 13
-21 44 -50 68 -66 25 -16 58 -49 74 -73 38 -60 59 -73 120 -73 72 0 86 18 84
107 -1 37 0 77 2 87 2 13 -9 25 -38 41 -96 51 -129 79 -143 123 -9 30 -29 57
-67 90 l-54 47 0 31 c0 22 -12 46 -41 80 -22 27 -47 64 -55 83 l-15 35 16 15
15 15 42 -13 c24 -7 70 -16 103 -20 34 -5 70 -13 82 -19 32 -17 100 -14 163 7
l55 19 22 38 c12 22 22 58 22 81 l1 42 -29 20 c-16 12 -46 44 -66 72 -21 28
-55 59 -79 71 -22 11 -54 31 -71 44 -34 26 -229 124 -246 124 -6 0 -37 16 -68
35 -69 43 -183 84 -231 85 l-34 0 -58 -60 c-64 -68 -91 -75 -129 -34 -13 14
-76 60 -139 102 -63 42 -138 97 -166 122 -29 25 -77 63 -108 84 -31 22 -63 50
-71 63 -9 13 -33 34 -55 48 -22 14 -51 43 -65 65 -17 27 -43 49 -83 69 -31 16
-91 59 -132 96 -41 37 -104 91 -140 120 -85 68 -283 272 -303 312 -9 17 -36
44 -59 60 -30 20 -47 40 -56 67 -7 21 -35 63 -63 94 -27 30 -61 77 -75 104
-14 28 -44 73 -68 102 -33 41 -52 80 -84 178 -23 69 -42 135 -42 146 0 11 -7
36 -15 55 -31 74 -16 138 53 228 31 41 50 55 93 70 29 11 73 19 97 19 35 0 49
6 73 29 32 32 35 48 17 98 l-12 33 -136 -1 c-74 0 -142 -4 -150 -9z m2125
-2520 c19 -20 39 -30 58 -30 55 0 144 -54 220 -134 39 -41 42 -55 9 -37 -12 6
-37 11 -57 11 -19 0 -52 7 -72 15 -19 8 -47 15 -62 15 -29 0 -54 15 -121 73
-77 67 -93 117 -37 117 24 0 41 -8 62 -30z m-4316 -660 c22 0 63 -24 205 -120
12 -8 48 -32 79 -52 63 -43 74 -56 54 -64 -8 -3 -79 26 -158 64 -79 38 -155
72 -169 75 -14 3 -41 21 -60 39 -19 18 -46 41 -60 50 l-25 17 14 10 c9 6 28 4
54 -5 22 -8 51 -14 66 -14z m-74 -620 c86 -29 104 -39 158 -83 26 -21 63 -43
82 -48 20 -6 45 -24 60 -42 13 -18 51 -52 84 -76 32 -24 78 -70 102 -102 24
-33 58 -71 77 -86 43 -32 77 -105 63 -132 -18 -33 -73 -51 -158 -51 l-78 0
-105 35 c-58 20 -116 41 -130 47 -36 18 -99 66 -146 113 -22 22 -52 48 -67 58
-14 10 -30 33 -36 53 -5 20 -22 51 -36 70 -74 97 -72 200 4 247 34 22 55 21
126 -3z"/>
</g>
</svg>
