<?xml version="1.0" standalone="no"?>
<!DOCTYPE svg PUBLIC "-//W3C//DTD SVG 20010904//EN"
 "http://www.w3.org/TR/2001/REC-SVG-20010904/DTD/svg10.dtd">
<svg version="1.0" xmlns="http://www.w3.org/2000/svg"
 width="810.000000pt" height="354.000000pt" viewBox="0 0 810.000000 354.000000"
 preserveAspectRatio="xMidYMid meet">
<metadata>
Created by potrace 1.16, written by Peter Selinger 2001-2019
</metadata>
<g transform="translate(0.000000,354.000000) scale(0.100000,-0.100000)"
fill="#000000" stroke="none">
<path d="M4950 3530 c-8 -4 -30 -14 -49 -21 -18 -7 -67 -34 -107 -61 l-74 -49
-55 -109 c-30 -60 -55 -121 -55 -135 0 -14 -7 -42 -15 -62 -33 -79 -15 -205
49 -343 14 -30 26 -65 26 -77 0 -38 100 -326 124 -358 13 -16 33 -49 45 -73
30 -60 114 -183 162 -238 21 -25 47 -60 55 -77 9 -18 35 -53 58 -78 22 -25 69
-79 103 -120 66 -79 302 -313 345 -341 14 -9 35 -34 46 -56 l20 -39 -42 7
c-58 10 -139 38 -218 77 -79 38 -178 73 -209 73 -11 0 -50 14 -86 30 -35 17
-70 30 -76 30 -7 0 -32 14 -57 30 -58 38 -111 40 -145 5 -30 -29 -30 -31 -5
-72 20 -34 73 -66 128 -78 17 -3 54 -22 81 -40 49 -34 241 -105 284 -105 12 0
42 -14 67 -30 25 -16 52 -30 60 -30 8 0 35 -14 60 -30 25 -16 58 -30 73 -30
15 0 44 -7 64 -15 19 -8 54 -15 77 -15 29 0 54 -9 86 -30 25 -16 52 -30 60
-30 8 0 57 -20 108 -45 52 -25 98 -45 104 -45 17 0 138 -59 171 -84 18 -13 55
-35 83 -49 28 -14 75 -48 105 -74 65 -58 129 -103 189 -133 25 -12 65 -39 90
-59 25 -20 65 -49 90 -63 25 -14 54 -36 65 -48 22 -24 86 -60 107 -60 16 0
140 -81 185 -121 19 -16 41 -29 50 -29 23 0 196 -85 244 -120 23 -16 55 -30
70 -30 15 0 40 -5 56 -12 15 -6 56 -14 89 -18 38 -4 74 -16 92 -29 l30 -21
116 0 c64 0 124 4 134 9 9 5 34 16 55 25 l37 16 0 100 c0 55 -4 108 -9 118 -5
9 -19 40 -31 69 -17 39 -48 76 -124 147 -56 53 -121 115 -146 140 -45 44 -97
76 -123 76 -7 0 -24 11 -37 25 -29 31 -180 134 -241 165 -24 13 -57 33 -74 46
-16 12 -77 46 -135 75 -58 29 -119 62 -135 75 -17 12 -66 34 -110 49 -44 14
-104 37 -133 50 l-53 25 -96 0 -96 0 -43 -44 -44 -43 0 -51 c0 -70 -16 -78
-101 -50 -35 12 -76 29 -90 37 -120 72 -158 99 -208 149 -52 52 -80 75 -195
156 -23 16 -85 71 -140 123 -54 51 -116 106 -137 121 -21 15 -50 47 -66 71
-15 24 -44 54 -65 67 -21 13 -45 36 -55 51 -9 16 -29 42 -43 58 -14 17 -61 84
-104 150 -44 66 -100 141 -127 166 -29 29 -50 59 -54 80 -10 46 -34 92 -100
191 -30 45 -55 94 -55 108 0 14 -14 63 -30 110 -17 46 -30 96 -30 110 0 14
-14 45 -30 70 l-30 45 0 145 c0 157 4 170 51 170 36 0 54 22 40 49 -20 37 10
83 74 110 22 10 67 26 100 36 100 32 116 58 69 114 l-26 31 -76 -1 c-43 0 -84
-4 -92 -9z m1905 -2540 c74 -25 219 -96 260 -126 17 -12 62 -33 100 -45 39
-12 82 -34 98 -48 15 -13 47 -36 71 -50 128 -74 183 -112 203 -139 12 -17 44
-42 71 -57 27 -15 66 -47 86 -71 21 -25 55 -56 76 -69 37 -24 100 -106 127
-169 20 -43 3 -56 -74 -56 -35 0 -80 7 -100 15 -19 8 -45 15 -57 15 -22 0
-212 61 -256 83 -14 6 -38 21 -55 33 -16 12 -72 44 -124 70 -52 26 -111 62
-130 79 -20 18 -65 47 -100 65 -35 19 -65 39 -68 46 -2 7 7 30 21 51 l26 38 0
66 c0 80 -6 86 -110 119 l-75 24 -52 53 c-87 89 -64 116 62 73z"/>
<path d="M22 1340 c-17 -8 -22 -17 -22 -49 l0 -39 25 -6 c13 -3 36 -22 51 -42
31 -41 109 -83 219 -119 42 -13 88 -33 103 -44 45 -31 110 -61 133 -61 12 0
103 -27 201 -60 98 -33 187 -60 199 -60 11 0 50 -13 86 -30 51 -24 78 -30 131
-30 37 0 87 -6 112 -14 58 -18 124 -35 175 -45 22 -4 56 -12 75 -18 78 -25
129 -35 200 -42 41 -4 85 -13 97 -19 12 -7 63 -12 120 -12 57 0 117 -6 143
-14 87 -28 136 -38 210 -45 41 -4 85 -13 97 -19 30 -17 67 -15 124 5 l49 18
49 -18 c36 -13 81 -17 175 -17 90 0 137 -4 163 -15 27 -12 79 -15 225 -15 145
0 197 -3 225 -15 l35 -15 328 0 328 0 35 15 c20 8 59 15 87 15 59 0 246 60
299 96 20 13 48 24 64 24 49 0 119 45 183 116 33 38 66 78 72 89 26 49 52 149
52 197 0 54 -35 169 -64 213 -38 58 -172 88 -209 47 -22 -24 -23 -126 -2 -175
8 -20 15 -67 15 -105 0 -97 -26 -145 -110 -199 -36 -24 -71 -43 -78 -43 -6 0
-36 -12 -65 -26 -99 -49 -212 -57 -824 -61 l-553 -3 -36 15 c-24 10 -70 15
-136 15 -65 0 -111 5 -135 15 -26 11 -74 15 -180 15 -105 0 -153 4 -180 15
-22 9 -67 15 -120 15 -52 0 -97 6 -120 15 -19 8 -60 15 -90 15 -29 0 -70 7
-90 15 -23 10 -69 15 -132 15 l-97 0 -84 30 c-53 18 -105 30 -138 30 -38 0
-73 9 -119 30 -47 22 -79 30 -119 30 -30 0 -71 7 -91 15 -19 8 -52 15 -72 15
-39 0 -214 56 -299 95 -29 14 -71 25 -93 25 -22 0 -56 7 -76 15 -19 8 -47 15
-62 15 -14 0 -46 14 -71 30 -25 16 -52 30 -60 30 -8 0 -57 20 -108 45 -52 25
-98 45 -104 45 -5 0 -34 11 -64 25 -30 14 -56 25 -57 24 -1 0 -12 -4 -25 -9z"/>
</g>
</svg>
