<?xml version="1.0" standalone="no"?>
<!DOCTYPE svg PUBLIC "-//W3C//DTD SVG 20010904//EN"
 "http://www.w3.org/TR/2001/REC-SVG-20010904/DTD/svg10.dtd">
<svg version="1.0" xmlns="http://www.w3.org/2000/svg"
 width="624.000000pt" height="462.000000pt" viewBox="0 0 624.000000 462.000000"
 preserveAspectRatio="xMidYMid meet">
<metadata>
Created by potrace 1.16, written by Peter Selinger 2001-2019
</metadata>
<g transform="translate(0.000000,462.000000) scale(0.100000,-0.100000)"
fill="#000000" stroke="none">
<path d="M2581 4597 c-7 -13 -35 -38 -62 -56 -34 -22 -57 -47 -74 -81 l-25
-49 0 -164 c0 -124 4 -173 15 -200 8 -20 15 -48 15 -62 0 -27 88 -211 125
-260 12 -16 32 -50 44 -74 12 -23 41 -67 64 -96 23 -29 62 -81 87 -115 42 -58
190 -228 242 -278 212 -206 368 -352 376 -352 5 0 43 -31 83 -68 41 -37 87
-76 104 -87 16 -10 50 -37 75 -60 25 -23 66 -53 92 -68 26 -15 56 -41 68 -57
12 -17 43 -41 69 -55 56 -28 172 -106 219 -146 18 -16 40 -29 50 -29 29 0 171
-100 197 -138 14 -20 25 -49 25 -64 0 -15 20 -69 45 -119 24 -51 42 -95 40
-97 -6 -6 -118 25 -147 41 -13 7 -37 22 -53 33 -37 27 -171 94 -186 94 -17 0
-80 31 -114 56 -42 31 -164 90 -202 98 -17 4 -51 24 -75 45 -54 47 -67 54
-162 86 -43 13 -89 33 -104 44 -38 26 -169 91 -185 91 -7 0 -96 41 -196 90
-100 50 -188 90 -194 90 -7 0 -25 9 -42 21 -54 36 -163 89 -237 113 -40 13
-99 40 -130 59 -32 19 -96 47 -144 62 -99 32 -225 91 -285 135 -23 16 -49 30
-58 30 -24 0 -191 83 -241 119 -24 17 -50 31 -59 31 -24 0 -191 83 -241 119
-24 17 -50 31 -58 31 -29 0 -180 79 -220 114 -21 20 -45 36 -52 36 -19 0 -138
58 -173 84 -39 29 -171 96 -190 96 -7 0 -24 12 -38 26 -13 14 -41 35 -63 46
-21 11 -56 32 -77 48 -21 15 -54 31 -73 34 -18 4 -53 24 -77 45 -53 45 -75 58
-140 77 -27 8 -75 36 -110 64 -47 38 -70 50 -96 50 l-34 0 3 -41 3 -42 70 -48
c39 -27 91 -66 116 -88 25 -21 90 -62 145 -91 117 -61 173 -94 300 -177 52
-35 127 -79 167 -99 39 -20 85 -47 102 -59 16 -13 90 -53 163 -89 73 -37 152
-80 174 -96 23 -17 48 -30 57 -30 22 0 195 -84 234 -114 35 -27 230 -126 247
-126 6 0 41 -18 78 -40 36 -22 81 -44 98 -49 18 -5 67 -32 108 -60 75 -50 173
-91 218 -91 24 0 69 -22 153 -74 26 -16 86 -42 134 -58 98 -32 124 -44 166
-74 39 -28 171 -94 188 -94 7 0 82 -34 166 -75 84 -41 157 -75 163 -75 6 0 32
-13 57 -29 25 -16 91 -50 146 -76 55 -26 116 -56 135 -66 108 -59 251 -129
263 -129 7 0 50 -25 97 -56 56 -37 112 -65 168 -83 59 -18 97 -37 126 -62 23
-20 83 -58 134 -83 50 -26 131 -74 179 -106 48 -33 95 -60 103 -60 21 0 40
-20 40 -42 0 -9 25 -45 55 -79 30 -33 59 -77 64 -95 5 -19 33 -60 61 -91 28
-31 62 -77 75 -102 13 -25 55 -79 94 -119 39 -40 71 -77 71 -83 0 -31 54 -110
92 -136 27 -18 54 -48 71 -80 15 -29 45 -65 66 -80 21 -15 54 -50 72 -77 27
-39 45 -54 79 -66 32 -11 52 -27 73 -57 15 -23 42 -52 59 -65 17 -13 54 -45
82 -73 97 -95 214 -180 286 -209 25 -10 53 -22 62 -27 10 -5 37 -9 61 -9 48 0
71 18 101 79 18 38 23 218 7 249 -5 9 -15 33 -22 52 -7 19 -44 82 -83 140 -52
79 -111 147 -240 278 -94 96 -188 185 -208 198 -20 13 -60 44 -88 69 -31 27
-60 45 -75 45 -18 0 -32 11 -50 40 -16 25 -43 49 -73 64 -45 23 -295 185 -375
243 -22 15 -61 44 -88 63 -28 19 -63 55 -78 80 -16 25 -38 54 -50 64 -11 11
-21 27 -21 36 0 9 -13 35 -29 57 -16 22 -39 60 -51 84 -12 24 -33 58 -46 76
-13 17 -24 41 -24 53 l0 22 28 -7 c15 -4 89 -10 165 -12 l138 -5 45 45 44 44
0 73 0 73 -59 56 c-74 71 -156 133 -213 162 -23 12 -56 32 -73 45 -54 41 -233
124 -267 124 -75 -1 -157 -83 -158 -157 0 -46 -28 -59 -77 -36 -84 40 -349
226 -376 264 -16 22 -50 50 -78 64 -26 14 -59 39 -71 56 -13 17 -53 53 -90 81
-41 30 -68 57 -68 68 0 11 -26 38 -62 67 -57 43 -107 89 -210 191 -115 114
-161 168 -187 220 -16 32 -46 71 -65 86 -20 15 -48 50 -62 79 -15 28 -51 87
-81 130 -69 102 -90 143 -124 247 -15 47 -39 110 -53 140 l-26 55 0 98 c0 100
13 151 48 190 18 20 92 57 115 57 17 0 47 32 47 50 0 8 -5 29 -12 47 l-12 33
-121 0 -122 0 -12 -23z m2014 -2256 c46 -22 102 -53 126 -70 23 -17 50 -31 59
-31 22 0 35 -17 44 -54 5 -20 3 -32 -6 -37 -24 -16 -121 -9 -184 12 l-62 21
-46 53 c-45 53 -56 87 -40 129 9 22 15 21 109 -23z m642 -1222 c24 -11 51 -31
60 -42 10 -12 31 -31 48 -41 16 -11 50 -38 75 -61 46 -43 117 -85 144 -85 9 0
20 -9 26 -20 14 -26 2 -49 -45 -84 -19 -15 -35 -36 -35 -46 0 -41 -24 -31 -87
36 -35 38 -93 113 -128 166 -36 53 -79 106 -95 118 -22 15 -30 30 -30 51 0 35
10 36 67 8z m580 -482 c22 -17 58 -53 80 -78 99 -119 119 -146 129 -174 7 -16
22 -53 34 -81 22 -50 22 -104 0 -104 -13 0 -112 64 -153 98 -17 15 -49 39 -69
52 -20 14 -49 44 -65 69 -15 24 -43 54 -63 66 -75 48 -88 88 -33 101 36 9 60
29 67 60 8 32 23 30 73 -9z"/>
</g>
</svg>
