<?xml version="1.0" standalone="no"?>
<!DOCTYPE svg PUBLIC "-//W3C//DTD SVG 20010904//EN"
 "http://www.w3.org/TR/2001/REC-SVG-20010904/DTD/svg10.dtd">
<svg version="1.0" xmlns="http://www.w3.org/2000/svg"
 width="288.000000pt" height="501.000000pt" viewBox="0 0 288.000000 501.000000"
 preserveAspectRatio="xMidYMid meet">
<metadata>
Created by potrace 1.16, written by Peter Selinger 2001-2019
</metadata>
<g transform="translate(0.000000,501.000000) scale(0.100000,-0.100000)"
fill="#000000" stroke="none">
<path d="M405 4971 c-44 -28 -67 -51 -87 -87 l-28 -49 0 -185 0 -185 29 -50
c59 -105 121 -240 121 -264 0 -26 41 -89 74 -115 22 -17 39 -40 46 -64 14 -51
59 -127 115 -191 25 -30 55 -71 65 -91 11 -21 42 -57 69 -81 27 -24 61 -64 75
-89 14 -25 44 -59 68 -76 25 -18 55 -52 71 -82 15 -28 45 -64 67 -79 21 -15
52 -48 68 -73 17 -25 50 -59 75 -74 24 -16 57 -48 73 -73 15 -24 51 -60 79
-79 29 -18 75 -61 104 -94 29 -33 59 -60 67 -60 8 0 14 -4 14 -10 0 -5 -4 -10
-9 -10 -6 0 -13 5 -16 10 -3 6 -32 10 -63 10 -31 0 -77 6 -102 14 -103 33
-142 39 -270 45 -77 4 -144 12 -157 19 -12 6 -54 12 -93 12 -39 0 -86 6 -104
14 -40 17 -215 15 -259 -3 -16 -6 -59 -11 -96 -11 -38 0 -84 -7 -104 -15 -20
-8 -48 -15 -62 -15 -42 0 -178 -74 -208 -114 l-27 -35 0 -191 0 -191 18 -27
c38 -55 92 -150 92 -161 0 -24 44 -98 85 -141 23 -25 50 -59 61 -75 10 -17 46
-63 79 -103 33 -40 76 -98 95 -128 19 -31 53 -68 75 -83 28 -18 44 -39 53 -66
7 -23 31 -57 56 -80 24 -22 51 -56 61 -75 10 -19 43 -62 74 -95 83 -90 150
-174 172 -217 10 -20 35 -49 54 -64 20 -15 35 -35 35 -47 0 -12 26 -46 64 -83
36 -35 73 -78 82 -96 9 -18 59 -76 110 -128 51 -52 109 -115 128 -140 19 -25
47 -54 63 -64 16 -10 40 -35 53 -55 30 -44 184 -201 198 -201 6 0 65 -52 132
-115 l122 -115 107 0 107 0 12 33 c24 67 9 145 -52 277 -14 30 -26 63 -26 73
0 10 -29 48 -63 85 -35 37 -72 81 -82 97 -26 42 -192 203 -240 233 -22 13 -56
42 -75 63 -20 21 -68 55 -110 75 -41 21 -88 47 -105 59 -16 13 -63 39 -102 59
-58 29 -84 36 -129 36 -66 0 -100 17 -134 68 -14 21 -43 60 -65 89 -85 110
-115 151 -121 166 -11 30 18 28 92 -7 l75 -36 124 0 124 0 25 22 c25 22 66
127 66 168 0 11 -16 68 -36 126 -25 76 -51 129 -90 186 -30 44 -64 97 -74 118
-11 21 -37 51 -59 67 -21 15 -49 43 -62 63 -34 53 -89 109 -134 138 -22 14
-67 51 -100 82 -33 31 -93 78 -132 104 -40 26 -82 61 -94 77 -20 29 -85 69
-111 69 -7 0 -30 11 -49 24 -41 28 -146 66 -183 66 -29 0 -56 9 -56 19 0 4 12
13 26 20 15 6 35 22 45 35 10 13 34 31 53 40 l34 16 201 0 c157 0 210 -3 238
-15 20 -8 66 -15 105 -15 38 0 84 -7 105 -15 19 -8 52 -15 72 -15 20 0 56 -6
81 -14 97 -31 139 -39 240 -46 101 -7 148 -19 236 -60 60 -27 160 -60 185 -60
27 0 83 -26 133 -62 21 -15 47 -28 56 -28 9 0 27 -12 41 -26 13 -14 42 -35 64
-46 22 -12 54 -31 70 -44 37 -27 220 -119 257 -128 14 -3 51 -29 82 -57 30
-28 71 -55 91 -60 21 -6 45 -24 61 -45 28 -37 90 -74 122 -74 10 0 31 13 46
29 l27 28 -3 73 -3 73 -120 61 c-66 34 -156 85 -200 115 -44 30 -93 58 -110
62 -16 5 -51 26 -76 46 -25 21 -79 53 -120 72 -41 18 -87 40 -104 49 -115 60
-160 88 -205 128 -28 26 -69 59 -91 74 -22 14 -84 69 -137 121 -53 52 -118
107 -144 122 -30 17 -57 44 -73 71 -14 25 -52 63 -83 87 -72 53 -232 215 -232
234 0 8 -20 29 -44 47 -24 18 -54 49 -67 68 -12 19 -46 60 -75 90 -29 30 -65
73 -81 96 -15 22 -43 60 -60 84 -18 24 -33 50 -33 60 0 9 -13 29 -30 45 -16
16 -30 36 -30 45 0 10 -14 36 -31 60 -33 46 -119 216 -119 236 0 7 -13 41 -30
76 -16 34 -30 73 -30 85 0 12 -12 58 -26 102 l-26 81 11 32 c6 18 8 52 5 79
l-6 47 43 46 c24 26 65 60 92 76 47 30 53 42 41 88 l-6 22 -107 -1 -106 -1
-60 -37z m-68 -2479 c28 -10 66 -31 85 -48 19 -16 50 -36 69 -43 44 -16 46
-18 110 -69 244 -196 270 -219 325 -286 27 -32 88 -103 135 -158 52 -58 93
-115 102 -141 8 -23 25 -66 38 -94 18 -42 21 -59 13 -80 l-9 -28 -88 -3 c-100
-3 -134 8 -209 70 -25 21 -82 56 -125 77 -124 62 -247 180 -357 343 -31 46
-70 101 -86 122 -17 21 -30 45 -30 52 0 7 -13 41 -30 76 -16 34 -30 75 -30 89
0 15 -7 43 -15 62 -18 44 -18 42 1 61 20 20 38 20 101 -2z m1132 -1716 c24
-24 67 -56 96 -71 30 -15 65 -41 78 -59 14 -17 45 -44 70 -60 24 -16 57 -48
73 -73 15 -24 46 -56 68 -71 24 -16 45 -40 51 -58 6 -17 25 -48 44 -69 101
-115 59 -174 -48 -67 -32 31 -107 105 -167 164 -127 125 -208 219 -231 267 -9
19 -38 49 -65 68 -28 21 -48 43 -48 54 0 32 33 22 79 -25z"/>
</g>
</svg>
