<?xml version="1.0" standalone="no"?>
<!DOCTYPE svg PUBLIC "-//W3C//DTD SVG 20010904//EN"
 "http://www.w3.org/TR/2001/REC-SVG-20010904/DTD/svg10.dtd">
<svg version="1.0" xmlns="http://www.w3.org/2000/svg"
 width="630.000000pt" height="381.000000pt" viewBox="0 0 630.000000 381.000000"
 preserveAspectRatio="xMidYMid meet">
<metadata>
Created by potrace 1.16, written by Peter Selinger 2001-2019
</metadata>
<g transform="translate(0.000000,381.000000) scale(0.100000,-0.100000)"
fill="#000000" stroke="none">
<path d="M3837 3785 c-15 -14 -37 -25 -48 -25 -29 0 -146 -116 -175 -172 -44
-87 -31 -205 41 -362 14 -30 25 -60 25 -66 0 -18 41 -93 65 -120 30 -33 111
-153 134 -199 11 -20 29 -45 41 -56 12 -11 34 -40 48 -65 14 -25 51 -72 82
-105 31 -33 68 -78 82 -100 14 -22 46 -53 70 -69 25 -16 58 -47 72 -71 15 -23
145 -157 289 -298 144 -141 282 -276 307 -301 25 -24 64 -53 87 -65 24 -12 53
-35 65 -52 13 -17 52 -53 88 -80 189 -143 241 -191 226 -206 -7 -7 -99 11
-167 32 -26 8 -63 15 -83 15 -20 0 -53 7 -73 15 l-35 15 -302 0 -301 -1 -80
-42 -80 -42 -27 -50 c-15 -27 -28 -63 -28 -78 0 -15 -7 -44 -15 -64 -9 -22
-15 -68 -15 -123 l0 -87 -31 -44 c-82 -115 -240 -219 -335 -219 -23 0 -58 -7
-77 -15 -20 -8 -54 -15 -75 -15 -22 0 -56 -7 -75 -15 -21 -8 -67 -15 -105 -15
-39 0 -85 -7 -105 -15 l-36 -15 -366 0 -366 0 -36 15 c-24 10 -71 15 -150 15
-78 0 -125 5 -150 15 -19 8 -60 15 -90 15 -29 0 -70 7 -90 15 -23 10 -69 15
-132 15 l-97 0 -84 30 c-47 16 -103 30 -126 30 -44 0 -142 44 -151 67 -7 17
38 66 89 99 126 80 112 301 -30 480 -95 120 -155 175 -235 215 -43 22 -97 53
-119 70 -23 16 -54 29 -70 29 -16 0 -45 7 -65 15 -19 8 -53 15 -75 15 -21 0
-55 7 -75 15 -22 9 -67 15 -119 15 -53 0 -98 6 -123 16 -46 18 -228 15 -301
-6 -204 -57 -230 -71 -266 -140 -13 -25 -33 -52 -44 -62 l-20 -16 0 -89 0 -90
23 -12 c12 -6 33 -28 46 -49 44 -66 124 -143 210 -200 46 -30 98 -67 115 -82
37 -33 158 -95 204 -105 17 -3 54 -21 80 -40 67 -45 127 -75 154 -75 49 0 263
-80 428 -160 8 -4 18 -25 21 -46 3 -21 18 -65 32 -96 15 -31 27 -73 27 -94 0
-20 5 -53 11 -74 l11 -37 -27 -56 c-14 -31 -39 -66 -55 -77 -31 -22 -115 -40
-186 -40 -84 0 -146 -77 -92 -114 12 -9 41 -16 65 -16 23 0 45 -4 48 -10 3 -5
40 -10 81 -10 60 0 80 4 103 21 15 11 50 23 77 27 l49 7 20 33 c11 18 35 56
53 83 38 58 57 117 67 205 5 48 2 73 -15 123 -27 80 -24 107 10 104 118 -10
199 -21 217 -31 12 -7 40 -12 63 -12 22 0 57 -7 77 -15 19 -8 60 -15 90 -15
29 0 70 -7 90 -15 26 -11 76 -15 195 -15 118 0 168 -4 195 -15 20 -8 66 -15
104 -15 39 0 86 -7 107 -15 l39 -16 184 4 c175 3 206 7 319 43 32 10 98 14
231 14 143 0 195 3 222 15 20 8 56 15 79 15 31 0 56 8 88 30 25 16 50 30 57
30 6 0 53 20 104 45 51 25 101 45 110 45 16 0 82 76 165 190 40 54 64 156 61
256 -2 107 0 111 86 154 l60 30 174 0 c132 0 182 -4 210 -15 19 -8 60 -15 90
-15 29 0 70 -7 90 -15 20 -9 66 -15 107 -15 55 0 83 -6 125 -26 72 -33 346
-124 374 -124 26 0 135 -53 217 -106 30 -19 74 -40 97 -46 24 -5 62 -27 85
-48 24 -20 52 -42 63 -48 25 -13 141 -52 155 -52 6 0 10 38 10 100 0 63 -4
100 -11 100 -10 0 -102 52 -199 113 -30 19 -66 37 -80 40 -14 4 -43 22 -65 40
-22 19 -74 51 -115 72 -78 39 -124 70 -175 116 -16 15 -51 43 -77 61 -26 18
-75 54 -110 80 -35 26 -89 66 -121 90 -32 24 -82 61 -110 83 -29 22 -68 51
-88 64 -19 13 -51 47 -70 75 -27 39 -45 54 -79 66 -32 11 -52 27 -73 57 -15
23 -41 52 -58 65 -17 13 -45 38 -62 56 -18 18 -71 72 -120 120 -48 48 -87 95
-87 104 0 10 -20 32 -44 50 -25 18 -57 53 -73 77 -15 24 -45 54 -66 68 -21 13
-45 36 -55 51 -18 29 -73 103 -135 179 -21 27 -41 60 -44 75 -3 15 -38 61 -79
103 -56 58 -74 83 -74 104 0 15 -13 46 -28 67 -32 44 -62 106 -62 126 0 7 -14
33 -30 58 l-30 45 0 113 c0 127 8 152 65 191 19 13 56 29 84 38 64 18 115 53
119 80 2 12 -4 35 -13 52 l-16 31 -127 0 -127 -1 -28 -24z m-3060 -2160 c19
-8 51 -15 71 -15 51 0 187 -48 237 -84 127 -90 194 -149 219 -194 15 -26 43
-66 61 -90 l35 -44 0 -59 0 -60 -25 -24 c-13 -14 -35 -25 -47 -25 -33 0 -136
38 -170 61 -15 11 -50 27 -77 35 l-51 15 -40 -21 c-53 -27 -74 -60 -66 -105
l7 -35 -17 0 c-54 0 -192 57 -263 108 -21 15 -58 36 -82 46 -83 34 -112 51
-158 92 -25 23 -62 49 -81 59 -39 19 -80 54 -80 67 0 5 -20 42 -45 82 -60 100
-58 146 6 146 15 0 56 13 91 30 l63 30 188 0 c144 0 196 -3 224 -15z"/>
</g>
</svg>
