<?xml version="1.0" standalone="no"?>
<!DOCTYPE svg PUBLIC "-//W3C//DTD SVG 20010904//EN"
 "http://www.w3.org/TR/2001/REC-SVG-20010904/DTD/svg10.dtd">
<svg version="1.0" xmlns="http://www.w3.org/2000/svg"
 width="276.000000pt" height="426.000000pt" viewBox="0 0 276.000000 426.000000"
 preserveAspectRatio="xMidYMid meet">
<metadata>
Created by potrace 1.16, written by Peter Selinger 2001-2019
</metadata>
<g transform="translate(0.000000,426.000000) scale(0.100000,-0.100000)"
fill="#000000" stroke="none">
<path d="M575 4250 c-3 -5 -34 -10 -68 -10 l-61 0 -67 -45 c-81 -54 -119 -97
-119 -133 0 -15 -12 -60 -25 -101 l-26 -75 11 -29 c5 -17 10 -46 10 -66 0 -20
14 -74 30 -121 17 -46 30 -95 30 -107 0 -28 29 -88 75 -155 19 -26 37 -63 40
-80 10 -43 39 -101 61 -119 26 -21 88 -109 114 -159 12 -25 41 -65 65 -90 23
-25 50 -59 60 -75 10 -17 44 -57 75 -90 31 -33 68 -78 82 -100 28 -44 46 -62
98 -97 23 -16 40 -38 50 -68 12 -34 27 -52 67 -80 29 -19 64 -53 78 -75 14
-22 55 -67 90 -100 138 -128 211 -201 227 -225 8 -14 36 -38 60 -54 24 -15 58
-49 75 -75 17 -26 51 -59 75 -74 23 -15 59 -51 78 -80 20 -28 46 -57 58 -63
27 -13 62 -44 62 -55 0 -17 -40 -19 -75 -4 -21 8 -47 15 -59 15 -12 0 -60 13
-106 30 -47 16 -102 30 -123 30 -21 0 -54 7 -74 15 -23 10 -69 15 -135 15 -65
0 -111 5 -135 15 -20 8 -66 15 -104 15 -37 0 -80 5 -96 12 -15 7 -91 16 -168
20 -175 10 -183 10 -335 0 -99 -7 -145 -15 -218 -40 -128 -44 -164 -64 -211
-119 l-41 -48 0 -135 1 -135 49 -59 c36 -44 56 -80 75 -139 24 -76 68 -150
114 -191 13 -12 21 -31 21 -51 0 -22 9 -40 30 -60 37 -36 90 -116 90 -137 0
-8 13 -33 29 -55 16 -22 38 -58 49 -79 11 -22 30 -48 42 -59 12 -11 34 -40 48
-65 14 -25 35 -55 46 -68 11 -13 59 -80 106 -149 47 -69 94 -131 105 -136 11
-6 27 -13 35 -17 8 -4 16 -21 18 -39 l3 -31 39 0 c42 0 60 18 60 60 0 39 -63
145 -127 214 -48 50 -78 95 -114 170 -27 55 -49 102 -49 104 0 11 37 -3 64
-23 18 -14 37 -25 41 -25 5 0 29 -17 54 -38 25 -22 60 -46 76 -55 45 -23 151
-57 177 -57 13 0 43 -14 68 -30 27 -18 58 -30 78 -30 45 0 182 71 220 115 l32
36 0 110 0 109 -34 68 c-19 37 -46 78 -60 91 -14 14 -26 31 -26 38 0 22 -36
86 -60 108 -12 10 -42 48 -66 82 -32 45 -59 70 -94 88 -27 14 -57 37 -67 52
-34 51 -100 113 -120 113 -12 0 -32 15 -47 35 -15 19 -51 47 -79 62 -29 14
-65 36 -82 48 -39 30 -206 113 -264 132 -25 9 -68 18 -95 22 -27 3 -51 11 -53
18 -7 20 58 53 103 53 23 0 58 7 77 15 43 18 240 21 283 5 15 -6 77 -13 138
-17 61 -3 126 -12 145 -19 18 -8 51 -14 73 -14 21 0 55 -7 75 -15 19 -8 53
-15 75 -15 21 0 55 -7 75 -15 19 -8 53 -15 75 -15 21 0 55 -7 75 -15 22 -9 68
-15 122 -15 l86 0 55 -26 c66 -30 253 -94 278 -94 19 0 119 -33 162 -52 14 -7
45 -28 70 -49 25 -20 65 -46 90 -59 25 -12 65 -39 90 -60 103 -86 170 -99 238
-49 l42 31 0 53 0 53 -23 6 c-12 3 -40 21 -62 39 -51 43 -85 61 -178 91 -96
31 -257 136 -357 232 -41 39 -90 79 -109 89 -18 9 -97 79 -175 155 -77 77
-154 153 -171 169 -16 16 -41 43 -54 61 -13 17 -41 42 -62 56 -22 13 -50 41
-63 62 -13 20 -43 50 -68 66 -24 15 -59 49 -76 76 -17 26 -46 59 -63 72 -17
12 -45 38 -62 56 -18 18 -60 61 -94 97 -34 35 -71 82 -83 104 -11 22 -33 50
-49 62 -16 12 -47 46 -68 76 -21 30 -62 83 -92 116 -29 34 -69 94 -88 132 -20
39 -51 87 -69 107 -38 42 -97 154 -113 214 -6 21 -27 66 -47 99 -59 100 -74
154 -74 280 1 176 42 237 194 287 21 7 45 22 52 33 l14 21 -38 51 -37 52 -32
0 c-17 1 -35 -3 -38 -9z m-175 -2820 c47 -16 96 -30 108 -30 35 0 91 -28 142
-70 25 -21 65 -47 90 -60 67 -34 98 -60 137 -113 19 -26 48 -54 63 -62 37 -19
144 -125 202 -200 25 -34 53 -67 62 -74 9 -7 16 -21 16 -31 0 -9 14 -36 31
-60 45 -61 59 -102 59 -164 l0 -55 -31 -36 c-17 -19 -38 -35 -46 -35 -8 0 -53
18 -100 40 -47 22 -90 40 -96 40 -29 0 -140 66 -164 97 -15 19 -54 48 -87 65
-65 33 -261 216 -313 291 -15 23 -55 75 -88 115 -33 41 -63 79 -66 85 -24 43
-99 214 -99 225 0 21 47 62 73 62 12 0 61 -13 107 -30z"/>
</g>
</svg>
