<?xml version="1.0" standalone="no"?>
<!DOCTYPE svg PUBLIC "-//W3C//DTD SVG 20010904//EN"
 "http://www.w3.org/TR/2001/REC-SVG-20010904/DTD/svg10.dtd">
<svg version="1.0" xmlns="http://www.w3.org/2000/svg"
 width="885.000000pt" height="297.000000pt" viewBox="0 0 885.000000 297.000000"
 preserveAspectRatio="xMidYMid meet">
<metadata>
Created by potrace 1.16, written by Peter Selinger 2001-2019
</metadata>
<g transform="translate(0.000000,297.000000) scale(0.100000,-0.100000)"
fill="#000000" stroke="none">
<path d="M6580 2961 c0 -5 -22 -33 -49 -63 -55 -60 -83 -111 -101 -183 l-12
-50 16 -55 c20 -69 62 -141 115 -202 22 -25 41 -54 41 -63 0 -20 203 -230 243
-251 15 -8 58 -43 95 -77 37 -35 79 -71 94 -80 15 -9 60 -46 100 -81 40 -35
92 -73 115 -84 23 -12 54 -38 69 -58 15 -19 53 -48 84 -64 31 -16 83 -51 116
-79 32 -28 89 -67 126 -86 37 -20 91 -57 120 -83 29 -27 73 -60 98 -74 25 -14
55 -40 68 -57 21 -29 107 -81 133 -81 6 0 30 -19 53 -42 39 -40 79 -71 180
-141 23 -16 59 -46 81 -66 22 -20 60 -50 85 -67 88 -58 180 -168 180 -216 0
-17 -10 -39 -25 -53 l-24 -25 -56 0 c-80 0 -154 36 -222 109 -29 32 -71 66
-92 76 l-40 18 -33 -20 c-18 -10 -41 -33 -51 -51 l-19 -32 27 -81 27 -82 -39
-76 -38 -76 -65 -42 c-36 -24 -71 -43 -77 -43 -7 0 -36 -11 -65 -24 -29 -14
-80 -34 -113 -45 l-59 -21 -543 0 -544 0 -36 15 c-19 8 -52 15 -71 15 -20 0
-96 20 -169 45 -73 25 -148 45 -168 45 -20 0 -52 7 -72 15 -19 8 -54 15 -76
15 -40 0 -187 63 -187 80 0 4 13 31 30 61 l30 54 0 78 0 77 -46 93 c-25 50
-58 106 -74 122 -15 17 -30 42 -34 56 -7 31 -108 129 -133 129 -10 0 -37 23
-61 50 -39 45 -123 100 -153 100 -7 0 -51 18 -98 41 l-86 41 -35 -7 c-19 -4
-60 -10 -90 -14 -61 -8 -169 -58 -213 -100 -30 -27 -77 -110 -77 -135 0 -31
-35 -36 -96 -15 -81 28 -217 94 -266 129 -23 17 -47 30 -55 30 -28 0 -123 50
-161 85 l-39 35 -52 0 -53 0 -29 -29 c-37 -37 -38 -76 -3 -157 l26 -61 -17
-56 c-11 -37 -25 -63 -41 -75 -14 -9 -46 -34 -72 -55 -82 -66 -194 -107 -293
-107 -37 0 -83 -7 -102 -15 l-36 -15 -366 0 -366 0 -36 15 c-24 10 -71 15
-150 15 -78 0 -125 5 -150 15 -19 8 -52 15 -72 15 -20 0 -56 6 -81 14 -78 25
-133 37 -195 45 -34 5 -70 13 -82 19 -12 7 -40 12 -63 12 -22 0 -57 7 -77 15
-20 8 -66 15 -105 15 -38 0 -84 7 -105 15 -19 8 -48 15 -64 15 -18 0 -32 7
-39 21 l-11 20 30 48 c17 26 31 55 31 65 0 9 -25 65 -55 125 l-54 109 -43 29
c-30 20 -47 40 -56 68 -17 52 -37 73 -84 85 -23 7 -47 23 -60 41 -27 37 -125
109 -147 109 -9 0 -57 27 -106 60 -50 33 -101 60 -115 60 -14 0 -64 13 -110
30 -47 16 -102 30 -123 30 -21 0 -54 7 -74 15 -22 9 -67 15 -119 15 l-83 0
-111 -37 -112 -37 -59 -64 -59 -65 0 -78 c0 -43 5 -81 10 -84 6 -4 28 -42 50
-85 l40 -79 54 -35 c29 -20 73 -54 97 -75 55 -48 69 -55 169 -87 46 -15 113
-42 151 -60 74 -36 268 -104 297 -104 21 0 121 -34 181 -61 23 -11 78 -31 122
-45 74 -24 139 -70 139 -97 0 -6 32 -40 71 -78 56 -52 76 -79 90 -120 24 -67
24 -113 0 -165 -29 -64 -51 -74 -156 -74 -57 0 -95 -4 -103 -12 -23 -23 -13
-55 28 -92 l40 -36 97 0 97 0 68 46 c45 30 75 58 87 83 25 49 61 155 61 180 0
11 -16 70 -37 131 -20 60 -33 113 -29 117 4 4 27 2 51 -5 25 -7 61 -12 80 -12
20 0 52 -7 72 -15 22 -9 67 -15 117 -15 44 0 101 -6 126 -14 87 -28 136 -38
210 -45 41 -4 85 -13 97 -19 12 -7 40 -12 63 -12 22 0 57 -7 77 -15 20 -8 66
-15 105 -15 38 0 84 -7 105 -15 l35 -15 388 0 388 0 35 15 c20 8 52 15 72 15
46 0 238 65 284 96 20 13 44 24 55 24 23 0 194 166 232 225 15 24 42 52 60 61
l34 18 33 -32 c18 -18 39 -32 47 -32 8 0 35 -14 60 -30 25 -16 51 -30 59 -30
24 0 241 -109 314 -157 37 -25 75 -57 84 -72 31 -50 78 -91 113 -101 20 -5 54
-25 76 -43 40 -35 173 -107 196 -107 7 0 33 -14 58 -30 25 -16 52 -30 60 -30
8 0 57 -20 108 -45 52 -25 104 -45 115 -45 28 0 243 -73 296 -99 22 -12 52
-21 66 -21 14 0 42 -7 62 -15 19 -8 60 -15 90 -15 40 0 73 -8 120 -30 47 -22
79 -30 119 -30 30 0 71 -7 91 -15 19 -8 53 -15 75 -15 21 0 55 -7 75 -15 24
-10 70 -15 139 -15 58 0 106 -4 109 -10 8 -14 552 -14 560 0 3 5 46 10 94 10
56 0 102 6 124 15 20 8 52 15 72 15 44 0 132 29 227 75 40 20 85 39 99 43 37
10 172 133 211 192 18 27 47 57 65 67 l32 17 43 -13 c24 -8 80 -16 124 -18
l82 -4 79 40 c82 41 143 97 143 131 0 10 5 22 10 25 6 3 10 28 10 55 0 27 -4
52 -10 55 -5 3 -10 15 -10 27 0 24 -155 187 -211 224 -21 12 -50 42 -66 66
-21 32 -40 47 -71 56 -23 8 -65 35 -93 60 -28 25 -73 59 -100 76 -26 17 -82
59 -123 93 -41 34 -98 74 -126 89 -28 15 -63 42 -77 61 -27 35 -76 65 -125 77
-14 3 -50 28 -80 54 -29 26 -92 74 -139 105 -47 31 -105 74 -129 95 -24 20
-57 42 -74 47 -18 6 -42 27 -59 53 -20 29 -47 52 -85 71 -32 16 -91 59 -132
96 -41 37 -104 91 -140 120 -90 73 -210 199 -253 267 -20 31 -51 74 -70 95
l-35 38 -7 62 -7 63 61 91 c61 91 66 104 55 147 l-6 22 -79 0 c-44 0 -79 -4
-79 -9z m-5856 -1278 l141 -47 50 -43 c45 -39 141 -94 187 -107 10 -3 32 -30
49 -61 20 -35 47 -66 71 -81 22 -14 47 -39 56 -56 10 -16 32 -55 50 -85 36
-62 38 -75 17 -93 l-15 -13 -48 13 c-26 7 -60 25 -77 40 -47 43 -116 90 -132
90 -22 0 -143 58 -180 86 -17 13 -43 24 -56 24 -32 0 -91 -40 -96 -65 -6 -34
-22 -45 -65 -45 -28 0 -54 8 -79 25 -43 30 -232 125 -247 125 -5 0 -48 39 -95
86 -60 62 -86 95 -91 119 -7 37 9 75 31 75 7 0 42 13 77 30 l63 29 124 1 124
0 141 -47z m4451 -543 c111 -38 180 -77 251 -141 92 -84 133 -130 188 -214
l46 -70 0 -67 c0 -100 -37 -124 -112 -73 -20 14 -71 36 -113 50 -43 14 -108
46 -153 76 -42 29 -125 77 -185 107 -112 56 -138 80 -158 139 -24 74 11 136
104 182 34 17 64 31 67 31 3 0 33 -9 65 -20z"/>
</g>
</svg>
