<?xml version="1.0" standalone="no"?>
<!DOCTYPE svg PUBLIC "-//W3C//DTD SVG 20010904//EN"
 "http://www.w3.org/TR/2001/REC-SVG-20010904/DTD/svg10.dtd">
<svg version="1.0" xmlns="http://www.w3.org/2000/svg"
 width="897.000000pt" height="330.000000pt" viewBox="0 0 897.000000 330.000000"
 preserveAspectRatio="xMidYMid meet">
<metadata>
Created by potrace 1.16, written by Peter Selinger 2001-2019
</metadata>
<g transform="translate(0.000000,330.000000) scale(0.100000,-0.100000)"
fill="#000000" stroke="none">
<path d="M6570 3290 c-8 -5 -23 -11 -33 -14 -10 -3 -25 -20 -35 -37 -9 -17
-31 -53 -48 -78 -63 -93 -74 -125 -74 -206 l0 -75 51 -101 c60 -121 121 -212
158 -238 15 -11 43 -48 61 -83 41 -78 58 -98 82 -98 20 0 52 -30 97 -90 13
-17 41 -42 62 -56 22 -13 50 -42 64 -64 15 -23 43 -49 67 -61 24 -12 65 -47
93 -77 28 -31 74 -66 106 -83 31 -15 80 -50 110 -76 30 -27 66 -56 81 -66 15
-9 60 -46 100 -81 40 -35 92 -73 115 -85 24 -11 53 -35 65 -52 28 -38 125
-109 148 -109 10 0 30 -16 44 -35 15 -19 49 -46 75 -60 56 -28 175 -107 211
-140 14 -13 45 -33 70 -45 25 -12 65 -39 89 -58 25 -20 59 -46 75 -58 17 -11
46 -35 65 -52 18 -18 39 -32 45 -32 7 0 27 -16 46 -35 l34 -35 -16 -16 -15
-16 -39 20 c-22 11 -49 32 -61 46 -26 30 -51 33 -96 10 -72 -37 -81 -66 -50
-155 l18 -49 -18 -49 c-9 -27 -17 -67 -17 -89 l0 -40 -57 -42 c-32 -24 -76
-63 -99 -86 -22 -24 -50 -44 -61 -44 -11 0 -39 -14 -62 -30 -69 -50 -195 -103
-286 -121 -52 -10 -118 -27 -175 -45 -25 -8 -75 -14 -111 -14 -37 0 -83 -7
-102 -15 -20 -8 -61 -15 -90 -15 -30 0 -71 -7 -90 -15 l-36 -15 -291 0 -291 0
-36 15 c-23 10 -69 15 -135 15 -65 0 -111 5 -135 15 -19 8 -65 15 -102 15 -49
0 -90 8 -151 30 -47 16 -102 30 -123 30 -21 0 -54 7 -74 15 -19 8 -53 15 -75
15 -21 0 -55 7 -75 15 -19 8 -46 15 -60 15 -13 0 -45 10 -71 22 -26 12 -103
41 -172 64 -72 24 -128 49 -132 58 -5 9 -12 24 -16 34 -16 31 -83 62 -138 62
l-51 0 -42 -31 c-24 -17 -71 -44 -106 -60 l-63 -29 -156 0 c-117 0 -166 4
-193 15 -19 8 -53 15 -75 15 -22 0 -64 11 -94 25 -31 14 -110 43 -177 65 -67
22 -173 65 -235 95 -62 30 -117 55 -123 55 -26 0 -149 66 -198 106 -29 24 -60
44 -68 44 -26 0 -86 32 -133 70 -25 20 -82 60 -126 90 -45 29 -90 67 -100 83
-11 16 -47 51 -82 77 -35 27 -82 70 -104 95 -60 68 -106 89 -213 96 -49 3
-103 11 -120 17 -16 6 -56 16 -87 23 l-57 12 -59 -26 c-33 -15 -78 -27 -100
-27 -22 0 -56 -7 -75 -15 -25 -10 -72 -15 -150 -15 -83 0 -125 -5 -153 -16
-28 -12 -55 -14 -104 -10 -36 4 -85 8 -110 10 -98 9 -176 23 -196 36 -25 16
-54 61 -54 85 0 33 -116 138 -263 236 -175 117 -215 139 -258 139 -25 0 -41 9
-70 41 l-38 42 -98 33 c-54 18 -109 33 -121 34 -13 0 -53 13 -89 30 -37 17
-81 30 -104 30 -22 0 -56 7 -76 15 -24 10 -70 15 -143 15 l-107 0 -41 -49 -42
-50 0 -50 0 -51 42 -62 c52 -75 105 -128 187 -188 35 -25 90 -66 123 -93 44
-33 70 -47 93 -47 21 0 40 -9 56 -26 33 -35 58 -47 185 -87 125 -40 180 -55
246 -67 26 -5 56 -13 67 -19 11 -6 30 -11 43 -11 13 0 62 -13 108 -30 52 -18
105 -30 137 -30 29 0 70 -7 91 -15 l38 -15 424 3 c313 2 437 6 470 16 138 40
176 54 201 72 27 19 110 49 138 49 7 0 77 -62 155 -138 77 -77 160 -149 182
-162 23 -12 58 -42 77 -65 38 -45 124 -108 198 -145 24 -12 66 -40 92 -62 26
-22 62 -44 81 -49 18 -5 50 -24 72 -43 39 -34 173 -106 196 -106 7 0 55 -20
106 -45 52 -25 98 -45 104 -45 5 0 39 -13 75 -30 35 -16 76 -30 91 -30 15 0
69 -20 120 -45 61 -29 107 -45 132 -45 21 0 51 -5 67 -12 22 -10 192 -26 298
-28 45 -2 182 17 208 28 16 7 44 12 64 12 20 0 52 5 72 11 l36 11 59 -26 c32
-14 69 -26 83 -26 13 0 40 -7 60 -15 19 -8 47 -15 60 -15 14 0 54 -14 90 -30
38 -18 81 -30 105 -30 23 0 67 -12 105 -30 37 -17 81 -30 104 -30 22 0 56 -7
76 -15 23 -10 69 -15 135 -15 65 0 111 -5 135 -15 23 -10 69 -15 134 -15 68 0
111 -5 140 -17 l41 -16 47 17 46 16 53 -18 c28 -10 55 -22 59 -25 11 -11 671
-8 678 3 3 6 32 10 64 10 32 0 75 7 94 15 20 8 54 15 75 15 22 0 56 7 75 15
20 8 66 15 102 15 68 0 140 20 239 65 30 14 61 25 68 25 7 0 33 14 58 30 25
16 51 30 58 30 7 0 48 18 92 40 61 31 86 50 105 80 14 22 37 47 52 57 69 42
119 111 137 187 12 47 44 86 73 86 13 0 54 -13 90 -30 l64 -30 93 0 92 0 27
28 27 28 0 76 0 76 -54 54 c-67 67 -150 129 -214 162 -27 14 -73 47 -103 73
-30 27 -92 74 -139 106 -47 31 -101 72 -120 92 -19 19 -51 40 -72 45 -20 6
-61 32 -90 59 -29 26 -71 57 -94 69 -86 44 -237 156 -371 275 -29 26 -61 47
-71 47 -9 0 -39 25 -65 55 -34 39 -59 57 -87 65 -23 6 -47 22 -57 36 -38 55
-77 96 -105 110 -16 8 -69 52 -118 97 -49 45 -113 100 -142 122 -29 22 -71 64
-93 93 -22 29 -86 102 -141 162 -74 79 -106 122 -119 157 -9 26 -30 78 -46
114 l-29 66 0 84 0 84 60 90 c42 63 60 100 60 123 l0 32 -87 -1 c-49 0 -95 -4
-103 -9z m-6243 -1395 c19 -8 54 -15 77 -15 43 0 66 -13 66 -39 0 -34 31 -51
92 -51 64 0 157 -36 221 -84 18 -14 95 -57 172 -96 192 -98 282 -155 301 -192
l16 -30 -16 -16 -16 -16 -42 13 c-24 7 -63 16 -88 21 -25 5 -63 18 -85 28 -52
26 -159 62 -183 62 -23 0 -122 34 -190 66 -29 13 -58 24 -64 24 -7 0 -26 13
-43 28 -16 15 -57 37 -90 47 l-59 20 -83 84 c-46 46 -83 87 -83 91 0 5 -3 15
-6 23 -7 18 22 47 47 47 11 0 36 -7 56 -15z"/>
</g>
</svg>
