<?xml version="1.0" standalone="no"?>
<!DOCTYPE svg PUBLIC "-//W3C//DTD SVG 20010904//EN"
 "http://www.w3.org/TR/2001/REC-SVG-20010904/DTD/svg10.dtd">
<svg version="1.0" xmlns="http://www.w3.org/2000/svg"
 width="318.000000pt" height="501.000000pt" viewBox="0 0 318.000000 501.000000"
 preserveAspectRatio="xMidYMid meet">
<metadata>
Created by potrace 1.16, written by Peter Selinger 2001-2019
</metadata>
<g transform="translate(0.000000,501.000000) scale(0.100000,-0.100000)"
fill="#000000" stroke="none">
<path d="M360 5001 c-8 -5 -38 -19 -67 -31 -68 -30 -231 -194 -257 -260 -10
-25 -22 -53 -27 -62 -12 -23 -12 -363 0 -386 25 -48 71 -160 71 -173 0 -8 11
-31 24 -50 30 -43 66 -143 66 -180 0 -17 15 -45 41 -75 22 -27 60 -87 84 -134
24 -47 53 -98 64 -115 12 -16 21 -37 21 -46 0 -8 13 -28 30 -44 17 -16 30 -35
30 -42 0 -23 30 -76 65 -113 43 -46 85 -111 85 -130 0 -9 14 -29 30 -45 17
-16 30 -37 30 -48 0 -10 25 -43 55 -73 30 -30 55 -59 55 -65 0 -5 17 -28 39
-52 54 -59 144 -196 138 -210 -3 -7 -38 -30 -78 -51 -41 -20 -84 -49 -96 -62
l-23 -25 0 -75 c0 -48 7 -96 20 -134 24 -71 208 -350 250 -380 17 -12 30 -28
30 -36 0 -24 30 -76 65 -114 18 -19 48 -58 67 -87 38 -55 92 -125 145 -185 18
-21 46 -63 62 -95 16 -32 39 -67 51 -78 12 -11 34 -40 48 -65 14 -25 54 -75
89 -113 40 -42 78 -98 104 -150 25 -49 59 -100 88 -127 25 -25 59 -66 76 -90
16 -25 46 -65 67 -90 50 -60 72 -114 58 -140 l-11 -20 -62 0 -63 0 -47 -48
-47 -48 0 -50 0 -50 48 -69 c52 -76 208 -221 270 -250 20 -10 45 -22 54 -26
10 -5 71 -9 136 -9 l118 0 26 28 c34 36 58 85 58 117 0 50 -41 147 -96 227
-30 44 -64 99 -76 122 -11 22 -43 65 -70 95 -27 30 -61 77 -75 105 -14 28 -48
75 -75 105 -27 30 -61 77 -75 105 -14 28 -42 71 -63 96 -50 62 -100 143 -100
164 0 10 -25 42 -55 72 -30 30 -55 59 -55 65 0 5 -17 28 -38 52 -21 23 -54 64
-73 92 -32 46 -64 89 -158 210 -21 28 -46 66 -56 85 -9 19 -32 51 -50 70 -35
37 -165 227 -165 241 0 4 -20 31 -44 59 -25 29 -48 67 -52 84 -4 17 -23 50
-44 73 -26 29 -42 63 -55 109 l-18 67 23 19 c39 31 99 24 157 -19 120 -90 187
-149 229 -204 25 -33 49 -59 55 -59 5 0 61 -51 125 -112 68 -66 140 -126 173
-144 35 -19 66 -45 84 -72 16 -24 48 -52 77 -68 28 -15 61 -42 75 -59 13 -18
48 -47 77 -64 29 -17 78 -53 110 -79 31 -26 100 -69 154 -96 53 -27 114 -64
134 -82 21 -19 44 -34 51 -34 8 0 34 -14 59 -30 25 -16 52 -30 60 -30 8 0 57
-20 108 -45 62 -30 107 -45 133 -45 22 0 56 -7 76 -15 82 -35 209 2 242 70 8
17 18 38 23 47 11 25 10 106 -2 113 -5 3 -10 15 -10 25 0 11 -22 45 -50 75
-27 30 -60 72 -73 93 -14 20 -44 50 -68 65 -24 16 -57 46 -72 68 -27 37 -90
79 -120 79 -7 0 -27 17 -44 37 -19 25 -58 52 -109 77 -75 37 -174 105 -203
140 -7 9 -20 16 -28 16 -26 0 -86 32 -133 70 -56 46 -90 64 -177 91 -37 12
-81 34 -98 50 -39 35 -115 73 -209 104 -42 13 -93 36 -113 50 -21 14 -44 25
-53 25 -8 0 -35 14 -60 30 -32 22 -57 30 -88 30 -23 0 -59 7 -79 15 -19 8 -49
15 -65 15 -20 0 -38 10 -56 30 -15 17 -45 50 -67 73 -23 23 -56 62 -75 87 -19
25 -65 81 -103 124 -37 43 -83 109 -102 145 -19 36 -58 93 -86 125 -28 33 -71
100 -96 150 -25 50 -55 105 -68 121 -12 17 -32 50 -44 74 -12 23 -42 67 -66
97 -24 30 -51 75 -59 101 -7 27 -26 73 -40 103 -14 30 -26 62 -26 70 0 8 -18
41 -40 73 -22 33 -42 75 -45 95 -3 21 -19 78 -35 127 -17 50 -30 100 -30 112
0 12 -13 50 -30 85 l-30 63 0 70 0 70 76 114 c82 125 92 136 143 150 43 13
101 68 101 95 0 12 -3 31 -6 44 l-6 22 -77 -1 c-42 0 -83 -4 -91 -8z m1305
-2704 c22 -15 46 -27 54 -27 21 0 196 -86 242 -120 23 -16 49 -30 56 -30 24 0
83 -31 163 -86 83 -56 152 -94 173 -94 7 0 26 -13 42 -30 20 -21 38 -30 61
-30 25 0 38 -7 54 -31 12 -16 40 -42 63 -56 22 -14 61 -45 86 -68 25 -23 70
-55 99 -70 29 -15 61 -39 70 -53 9 -14 38 -47 64 -72 25 -26 58 -66 73 -88
l27 -40 -12 -21 c-13 -26 -73 -29 -127 -6 -19 8 -47 15 -62 15 -28 0 -58 17
-101 56 -14 12 -71 45 -126 73 -116 58 -310 184 -369 241 -22 21 -60 48 -85
60 -55 28 -141 93 -157 118 -7 11 -35 36 -64 55 -60 40 -351 325 -344 337 8
14 80 -6 120 -33z m409 -1936 c52 -24 93 -64 112 -110 l15 -35 -14 -14 -14
-14 -48 22 c-52 24 -145 110 -145 134 0 14 25 35 43 36 4 0 27 -9 51 -19z"/>
</g>
</svg>
