<?xml version="1.0" standalone="no"?>
<!DOCTYPE svg PUBLIC "-//W3C//DTD SVG 20010904//EN"
 "http://www.w3.org/TR/2001/REC-SVG-20010904/DTD/svg10.dtd">
<svg version="1.0" xmlns="http://www.w3.org/2000/svg"
 width="480.000000pt" height="111.000000pt" viewBox="0 0 480.000000 111.000000"
 preserveAspectRatio="xMidYMid meet">
<metadata>
Created by potrace 1.16, written by Peter Selinger 2001-2019
</metadata>
<g transform="translate(0.000000,111.000000) scale(0.100000,-0.100000)"
fill="#000000" stroke="none">
<path d="M3842 1077 c-7 -18 -12 -55 -12 -82 l0 -48 118 -119 c64 -66 139
-135 166 -153 57 -38 388 -365 417 -411 20 -33 18 -59 -6 -68 -25 -9 -126 34
-210 90 -45 30 -87 54 -94 54 -23 0 -84 33 -171 92 -47 32 -96 58 -110 58 -41
0 -172 48 -216 80 -47 33 -149 70 -196 70 -18 0 -53 6 -78 14 -94 30 -138 38
-225 45 -49 4 -100 12 -112 19 -34 19 -340 16 -386 -3 -20 -8 -54 -15 -75 -15
-22 0 -56 -7 -75 -15 -21 -8 -67 -15 -105 -15 -39 0 -85 -7 -105 -15 -21 -8
-67 -15 -105 -15 -39 0 -85 -7 -105 -15 -20 -8 -47 -15 -61 -15 -14 0 -54 -13
-89 -30 -38 -17 -82 -30 -105 -30 -22 0 -56 -7 -75 -15 l-36 -15 -381 0 -381
0 -36 15 c-24 10 -70 15 -146 15 l-111 0 -91 29 c-132 43 -172 52 -255 61 -58
6 -94 17 -160 50 -47 23 -99 53 -117 66 -17 13 -40 24 -51 24 -32 0 -62 -42
-62 -87 l0 -41 23 -6 c12 -3 40 -21 62 -39 50 -43 176 -107 210 -107 14 0 42
-7 62 -15 19 -8 60 -15 90 -15 29 0 70 -7 90 -15 19 -8 53 -15 75 -15 21 0 55
-7 75 -15 19 -8 53 -15 75 -15 21 0 55 -7 75 -15 22 -9 67 -15 120 -15 52 0
97 -6 120 -15 l35 -15 298 0 298 0 35 15 c20 8 54 15 75 15 22 0 56 7 75 15
20 8 53 15 74 15 21 0 76 14 123 30 52 19 104 30 136 30 28 0 68 7 87 15 20 8
54 15 75 15 22 0 56 7 75 15 20 8 54 15 75 15 22 0 56 7 75 15 20 8 61 15 90
15 30 0 71 7 90 15 50 21 244 21 294 0 19 -8 65 -15 102 -15 49 0 90 -8 151
-30 47 -16 101 -30 120 -30 39 0 126 -27 208 -66 29 -13 58 -24 65 -24 6 0 54
-20 105 -45 52 -25 99 -45 106 -45 6 0 49 -25 94 -55 91 -61 144 -89 182 -98
14 -4 43 -22 65 -40 22 -19 54 -41 70 -50 47 -23 151 -57 179 -57 14 0 28 -5
31 -10 8 -13 162 -13 170 0 3 6 19 10 36 10 l29 0 0 83 0 84 -20 18 c-10 9
-31 40 -46 69 -24 46 -55 79 -259 275 -16 16 -40 43 -53 60 -13 17 -48 47 -78
67 -66 44 -258 244 -245 257 5 5 34 1 67 -9 64 -18 78 -25 138 -66 22 -16 52
-28 70 -28 35 0 147 -69 211 -130 22 -21 55 -45 73 -55 l34 -16 24 15 c26 18
39 54 30 84 -7 21 -83 93 -170 159 -54 42 -185 113 -207 113 -16 0 -157 68
-191 91 l-26 19 -149 0 -149 0 -12 -33z"/>
</g>
</svg>
