<?xml version="1.0" standalone="no"?>
<!DOCTYPE svg PUBLIC "-//W3C//DTD SVG 20010904//EN"
 "http://www.w3.org/TR/2001/REC-SVG-20010904/DTD/svg10.dtd">
<svg version="1.0" xmlns="http://www.w3.org/2000/svg"
 width="564.000000pt" height="171.000000pt" viewBox="0 0 564.000000 171.000000"
 preserveAspectRatio="xMidYMid meet">
<metadata>
Created by potrace 1.16, written by Peter Selinger 2001-2019
</metadata>
<g transform="translate(0.000000,171.000000) scale(0.100000,-0.100000)"
fill="#000000" stroke="none">
<path d="M3433 1677 c-16 -18 -35 -48 -42 -65 l-14 -33 22 -65 c31 -96 124
-219 274 -362 31 -30 57 -63 57 -73 0 -30 -39 -49 -101 -49 -31 0 -73 -7 -92
-15 -29 -12 -86 -15 -282 -15 -196 0 -253 3 -282 15 -22 9 -67 15 -120 15 -52
0 -97 6 -120 15 -26 11 -76 15 -195 15 -118 0 -168 4 -195 15 -19 8 -60 15
-90 15 -29 0 -70 7 -90 15 -19 8 -53 15 -75 15 -21 0 -55 7 -75 15 -19 8 -53
15 -75 15 -21 0 -55 7 -75 15 -19 8 -60 15 -90 15 -29 0 -70 7 -90 15 -24 10
-71 15 -150 15 -78 0 -125 5 -150 15 -19 8 -53 15 -75 15 -21 0 -55 7 -75 15
-19 8 -60 15 -90 15 -29 0 -70 7 -90 15 -19 8 -60 15 -90 15 -29 0 -70 7 -90
15 -20 8 -66 15 -105 15 -38 0 -84 7 -105 15 -28 12 -86 15 -290 15 l-254 0
-32 -16 c-18 -9 -44 -28 -59 -42 l-28 -26 0 -62 c0 -35 5 -66 10 -69 6 -4 21
-27 34 -53 22 -44 120 -145 179 -185 37 -25 43 -60 22 -124 l-19 -54 35 -71
c20 -42 47 -81 67 -96 18 -14 45 -43 60 -66 20 -29 40 -45 71 -56 32 -11 53
-28 75 -58 19 -26 54 -56 87 -75 111 -62 162 -92 218 -129 31 -21 67 -38 81
-38 14 0 47 -8 73 -17 l48 -17 47 24 c37 20 47 30 47 50 l0 25 -50 24 c-67 32
-136 66 -198 98 -161 83 -209 119 -338 259 -96 103 -106 125 -81 162 10 15 23
45 30 66 13 47 4 69 -38 91 -16 8 -41 30 -55 49 -14 18 -44 46 -66 62 -22 15
-49 41 -61 57 -27 37 -40 93 -24 106 10 8 160 22 226 21 266 -5 499 -17 517
-27 12 -7 47 -13 78 -13 30 0 72 -7 92 -15 19 -8 65 -15 102 -15 36 0 86 -6
111 -14 60 -19 125 -35 182 -46 26 -5 56 -13 67 -19 11 -6 72 -11 136 -11 80
0 127 -5 152 -15 19 -8 65 -15 102 -15 49 0 90 -8 151 -30 47 -16 102 -30 123
-30 21 0 54 -7 74 -15 19 -8 60 -15 90 -15 29 0 70 -7 90 -15 26 -11 76 -15
195 -15 109 0 169 -4 191 -13 24 -10 111 -14 347 -16 l315 -2 37 15 c28 12 74
16 178 16 l141 0 45 -20 c24 -11 75 -50 113 -85 39 -37 84 -70 107 -77 27 -9
47 -26 67 -56 20 -29 47 -52 85 -71 32 -16 85 -53 119 -82 34 -30 90 -74 124
-99 33 -25 84 -63 112 -85 29 -22 65 -48 80 -58 15 -10 53 -40 83 -68 30 -27
62 -49 71 -49 18 0 87 -41 170 -102 l52 -38 119 0 119 0 13 41 14 41 -34 66
c-18 35 -54 84 -79 108 -118 110 -180 163 -221 188 -97 58 -218 174 -205 196
9 15 83 12 135 -4 75 -24 132 -37 195 -46 73 -11 169 -43 210 -71 17 -12 43
-39 58 -60 28 -38 90 -79 122 -79 l15 0 0 85 0 85 -50 25 c-28 14 -68 41 -89
60 -21 19 -45 35 -52 35 -8 0 -43 14 -77 30 -35 17 -75 30 -88 30 -14 0 -41 7
-61 15 -19 8 -60 15 -90 15 -29 0 -70 7 -90 15 -26 11 -74 15 -175 15 l-140 0
-29 -29 -29 -29 0 -55 0 -54 29 -40 c28 -39 80 -83 97 -83 5 0 29 -19 54 -43
25 -24 65 -52 90 -62 54 -23 79 -43 91 -72 5 -13 34 -35 69 -53 53 -27 88 -64
74 -79 -6 -6 -84 38 -114 64 -14 12 -45 30 -70 40 -55 23 -79 43 -91 73 -5 13
-29 32 -58 46 -27 12 -77 48 -111 79 -34 31 -66 57 -71 57 -6 0 -25 11 -42 24
-18 13 -52 34 -77 46 -25 12 -65 39 -90 59 -25 20 -58 45 -75 55 -16 11 -50
38 -75 61 -25 23 -65 53 -90 68 -25 14 -69 48 -97 75 l-53 49 0 42 c0 23 7 58
15 78 22 53 19 145 -6 195 -38 75 -101 158 -130 174 -16 8 -60 43 -97 79 -64
59 -189 135 -226 135 -8 0 -18 5 -21 10 -3 6 -35 10 -70 10 l-63 0 -29 -33z
m228 -190 c63 -35 215 -193 225 -232 11 -44 1 -70 -29 -73 l-28 -3 -118 118
c-110 109 -151 166 -151 209 0 23 41 15 101 -19z"/>
</g>
</svg>
