<?xml version="1.0" standalone="no"?>
<!DOCTYPE svg PUBLIC "-//W3C//DTD SVG 20010904//EN"
 "http://www.w3.org/TR/2001/REC-SVG-20010904/DTD/svg10.dtd">
<svg version="1.0" xmlns="http://www.w3.org/2000/svg"
 width="228.000000pt" height="201.000000pt" viewBox="0 0 228.000000 201.000000"
 preserveAspectRatio="xMidYMid meet">
<metadata>
Created by potrace 1.16, written by Peter Selinger 2001-2019
</metadata>
<g transform="translate(0.000000,201.000000) scale(0.100000,-0.100000)"
fill="#000000" stroke="none">
<path d="M23 1996 l-23 -11 0 -68 c0 -37 4 -75 9 -85 5 -9 19 -41 32 -71 15
-34 42 -71 74 -100 37 -33 55 -59 64 -90 l13 -44 -14 -8 c-7 -5 -23 -9 -36 -9
-12 0 -41 -9 -62 -20 -55 -28 -80 -82 -80 -176 l0 -72 65 -70 c131 -141 343
-252 482 -252 l58 0 45 30 c59 39 92 39 120 -1 12 -16 41 -42 64 -56 22 -15
66 -50 97 -79 30 -30 75 -66 98 -82 24 -16 96 -81 161 -145 65 -65 123 -117
129 -117 6 0 57 -44 113 -98 57 -54 116 -106 133 -117 16 -10 50 -37 75 -60
25 -24 68 -54 95 -68 28 -14 72 -44 99 -66 35 -30 57 -41 81 -41 19 0 37 -4
40 -10 8 -13 72 -13 80 0 3 6 14 10 24 10 24 0 45 27 60 77 l12 42 -32 63
c-17 35 -45 78 -61 96 -16 19 -39 50 -52 70 -13 21 -44 50 -68 66 -25 16 -58
48 -74 73 -26 42 -62 77 -118 116 -46 32 -87 137 -53 137 36 0 116 -35 182
-79 82 -56 147 -91 167 -91 7 0 51 -40 99 -90 l85 -90 37 0 37 0 0 69 0 70
-42 28 c-23 15 -63 49 -88 74 -61 62 -100 90 -195 139 -44 23 -103 56 -132 74
-77 49 -170 76 -258 76 l-75 0 -40 -36 c-28 -25 -40 -44 -40 -63 1 -57 68
-145 278 -362 89 -93 162 -174 162 -180 0 -6 9 -24 21 -40 11 -16 19 -37 17
-46 -2 -13 -17 -4 -62 35 -33 29 -83 63 -112 77 -29 14 -87 57 -128 95 -42 39
-80 70 -86 70 -6 0 -73 61 -149 135 -77 74 -144 135 -150 135 -5 0 -50 37 -98
83 -48 45 -100 91 -116 100 -15 10 -38 34 -51 55 -13 21 -44 50 -68 66 -69 44
-78 65 -78 199 0 79 -5 126 -15 150 -8 20 -15 49 -15 64 -1 15 -33 91 -73 168
l-72 140 -50 28 c-27 16 -63 42 -80 57 -40 39 -206 120 -244 120 -16 0 -33 5
-36 10 -8 13 -154 10 -182 -4z m282 -197 c53 -24 154 -111 183 -157 12 -20 31
-66 43 -102 11 -36 24 -78 29 -93 l9 -29 -42 39 c-23 21 -64 49 -91 62 -35 17
-57 38 -81 76 -19 28 -45 59 -59 68 -14 9 -35 27 -46 39 -26 28 -62 107 -55
119 7 11 60 1 110 -22z m82 -469 c46 -30 73 -57 103 -103 22 -34 40 -72 40
-84 0 -27 -25 -53 -52 -53 -25 0 -83 26 -123 56 -16 12 -54 34 -83 49 -29 15
-59 37 -67 48 -22 32 -18 74 10 102 38 39 95 34 172 -15z"/>
</g>
</svg>
