<?xml version="1.0" standalone="no"?>
<!DOCTYPE svg PUBLIC "-//W3C//DTD SVG 20010904//EN"
 "http://www.w3.org/TR/2001/REC-SVG-20010904/DTD/svg10.dtd">
<svg version="1.0" xmlns="http://www.w3.org/2000/svg"
 width="339.000000pt" height="396.000000pt" viewBox="0 0 339.000000 396.000000"
 preserveAspectRatio="xMidYMid meet">
<metadata>
Created by potrace 1.16, written by Peter Selinger 2001-2019
</metadata>
<g transform="translate(0.000000,396.000000) scale(0.100000,-0.100000)"
fill="#000000" stroke="none">
<path d="M155 3950 c-3 -5 -15 -10 -26 -10 -22 0 -109 -112 -109 -141 0 -10
-4 -21 -10 -24 -13 -8 -13 -162 0 -170 6 -3 10 -14 10 -23 0 -9 14 -37 30 -62
16 -25 30 -53 30 -62 0 -10 34 -55 75 -99 41 -45 75 -86 75 -92 0 -15 200
-216 242 -243 21 -13 49 -41 62 -62 13 -20 43 -50 67 -65 25 -16 55 -45 69
-65 14 -20 41 -57 61 -82 58 -73 99 -145 99 -174 0 -29 58 -152 95 -201 12
-17 39 -63 59 -104 38 -75 140 -232 186 -286 14 -17 48 -64 75 -105 26 -41 74
-102 105 -135 31 -33 65 -73 75 -90 11 -16 47 -60 82 -97 34 -37 69 -81 78
-98 9 -16 33 -41 55 -55 22 -14 47 -37 57 -52 22 -36 219 -231 264 -262 19
-13 47 -41 63 -62 15 -22 49 -51 74 -64 59 -31 71 -41 107 -88 15 -21 45 -47
66 -57 20 -11 72 -44 116 -74 44 -29 113 -71 154 -91 41 -20 94 -54 119 -75
47 -38 165 -102 210 -113 14 -4 45 -23 69 -44 30 -25 57 -39 85 -43 l41 -5 9
-28 c11 -31 -5 -73 -34 -88 -8 -5 -50 -29 -92 -54 -42 -25 -88 -45 -101 -45
-14 0 -41 -7 -60 -15 -51 -21 -333 -21 -384 0 -19 8 -45 15 -57 15 -12 0 -60
13 -106 30 -47 16 -102 30 -123 30 -21 0 -54 7 -74 15 -19 8 -54 15 -77 15
-25 0 -66 12 -104 30 -35 17 -69 30 -76 30 -6 0 -28 11 -48 25 -20 14 -79 38
-130 55 -51 17 -111 43 -133 59 -53 38 -98 60 -155 77 -45 13 -112 57 -175
114 -17 15 -54 34 -84 41 l-53 13 -14 -19 c-8 -10 -14 -27 -14 -37 0 -33 62
-89 144 -130 45 -22 102 -58 128 -80 26 -21 69 -45 95 -53 27 -8 70 -30 97
-50 27 -19 57 -35 65 -35 9 0 36 -14 61 -30 25 -16 51 -30 59 -30 8 0 44 -13
80 -29 193 -84 298 -121 344 -121 21 0 54 -7 74 -15 19 -8 53 -15 75 -15 21 0
55 -7 75 -15 20 -9 66 -15 109 -15 40 0 76 -5 79 -10 4 -6 73 -10 175 -10 102
0 171 4 175 10 3 5 26 10 50 10 27 0 68 11 108 30 36 16 70 30 76 30 31 0 172
83 196 115 15 19 36 35 47 35 26 0 78 53 78 79 0 11 5 23 10 26 6 3 10 21 10
39 0 55 -83 116 -160 116 -22 0 -57 7 -77 15 -19 8 -45 15 -57 15 -30 0 -135
38 -166 60 -36 26 -227 120 -243 120 -7 0 -24 12 -38 26 -13 14 -51 44 -84 65
-57 38 -85 59 -208 154 -29 22 -68 51 -87 64 -19 13 -50 43 -68 67 -18 24 -40
44 -48 44 -29 0 -72 33 -98 75 -26 41 -190 203 -240 238 -14 10 -37 40 -51 66
-15 31 -42 62 -73 85 -27 19 -62 55 -78 78 -15 24 -47 63 -69 88 -22 25 -63
79 -90 120 -27 41 -70 99 -97 128 -26 29 -52 68 -57 87 -5 19 -27 56 -49 82
-40 48 -102 164 -102 193 0 8 -14 35 -30 60 -33 50 -33 50 -21 68 l8 13 57
-16 c31 -9 106 -41 167 -71 l110 -54 105 0 c126 0 142 7 231 96 l63 63 0 91 0
90 -49 99 -50 99 -48 35 c-27 19 -63 56 -81 81 -19 26 -52 55 -75 67 -23 12
-63 39 -89 60 -26 22 -93 63 -150 91 -57 28 -116 61 -133 73 -16 13 -49 32
-72 44 l-42 21 -108 0 -108 0 -40 -23 c-51 -29 -114 -140 -115 -204 0 -38 -19
-73 -38 -73 -20 0 -55 37 -77 80 -15 30 -43 61 -73 84 -71 52 -213 267 -249
376 l-27 81 19 57 c10 31 23 63 28 70 14 18 198 16 244 -3 19 -8 48 -15 63
-15 15 0 109 -41 209 -90 l182 -91 27 -46 c56 -96 108 -126 145 -85 41 45 6
139 -70 195 -26 19 -59 47 -73 62 -35 38 -197 117 -326 159 -60 20 -117 41
-126 46 -23 13 -375 13 -383 0z m880 -741 c32 -11 91 -42 131 -69 82 -55 136
-84 176 -94 14 -3 50 -28 80 -54 29 -26 74 -60 99 -75 28 -16 66 -52 97 -94
28 -37 63 -83 78 -100 35 -43 44 -113 20 -158 -29 -53 -61 -65 -173 -65 l-99
0 -69 35 c-83 42 -145 79 -267 160 -94 62 -112 82 -190 219 l-38 65 0 101 0
101 25 24 c29 30 53 31 130 4z"/>
</g>
</svg>
