<?xml version="1.0" standalone="no"?>
<!DOCTYPE svg PUBLIC "-//W3C//DTD SVG 20010904//EN"
 "http://www.w3.org/TR/2001/REC-SVG-20010904/DTD/svg10.dtd">
<svg version="1.0" xmlns="http://www.w3.org/2000/svg"
 width="255.000000pt" height="273.000000pt" viewBox="0 0 255.000000 273.000000"
 preserveAspectRatio="xMidYMid meet">
<metadata>
Created by potrace 1.16, written by Peter Selinger 2001-2019
</metadata>
<g transform="translate(0.000000,273.000000) scale(0.100000,-0.100000)"
fill="#000000" stroke="none">
<path d="M215 2720 c-3 -5 -21 -10 -40 -10 l-34 0 -70 -62 -71 -62 0 -118 c0
-74 4 -119 11 -124 15 -9 69 -124 69 -146 0 -10 25 -46 56 -80 31 -35 67 -84
80 -109 14 -29 42 -61 72 -83 28 -20 56 -46 64 -59 9 -12 47 -59 86 -104 80
-93 92 -112 92 -146 0 -14 13 -54 30 -89 16 -34 30 -70 30 -79 0 -9 18 -39 40
-65 22 -27 45 -65 51 -84 18 -65 75 -147 184 -268 34 -37 86 -106 117 -153 32
-48 75 -102 98 -121 22 -19 62 -65 90 -101 28 -37 58 -67 67 -67 9 0 41 -27
71 -61 31 -33 74 -72 96 -87 23 -14 68 -51 101 -82 33 -31 93 -78 132 -104 40
-26 91 -63 114 -82 22 -19 48 -34 58 -34 9 0 33 -11 53 -25 79 -54 175 -95
222 -95 24 0 48 -4 51 -10 8 -13 102 -13 110 0 3 6 43 10 87 10 l81 0 59 60
c33 33 64 60 69 60 5 0 9 50 9 111 l0 111 -27 35 c-77 97 -181 197 -233 223
-30 15 -83 53 -118 84 -34 31 -70 56 -78 56 -16 0 -112 53 -194 108 -27 17
-85 43 -127 57 -94 30 -117 41 -164 77 -20 15 -42 28 -49 28 -6 0 -21 5 -33
12 l-22 11 20 8 c11 4 66 8 122 8 l102 1 36 32 c59 51 85 114 85 203 0 57 -5
86 -21 117 -30 58 -190 216 -276 272 -40 26 -91 63 -114 82 -22 19 -48 34 -56
34 -21 0 -81 29 -127 62 -21 15 -46 28 -55 28 -9 0 -29 9 -46 21 -53 36 -124
69 -147 69 -13 0 -43 6 -68 14 -25 8 -70 20 -100 26 l-55 12 -53 -15 c-28 -9
-88 -35 -132 -57 l-79 -42 -34 21 c-18 11 -51 45 -72 77 -22 31 -52 70 -67 88
-58 70 -118 171 -118 201 0 17 -14 50 -30 75 -39 59 -41 120 -5 155 l24 25
146 0 c107 0 155 -4 182 -15 19 -8 47 -15 62 -15 14 0 40 -9 56 -21 17 -11 82
-47 146 -79 93 -47 134 -75 205 -141 49 -45 92 -93 96 -107 16 -57 76 -83 98
-43 35 67 -38 198 -168 299 -120 93 -133 102 -176 113 -22 6 -84 33 -137 59
-135 68 -205 90 -288 90 -38 0 -73 5 -76 10 -3 6 -42 10 -85 10 -43 0 -82 -4
-85 -10z m742 -870 c35 -16 69 -30 75 -30 5 0 37 -13 71 -28 34 -16 73 -32 87
-35 14 -4 46 -24 72 -45 26 -22 63 -43 82 -46 18 -4 53 -24 77 -45 24 -21 55
-44 69 -51 69 -35 195 -128 216 -159 l24 -36 0 -70 c0 -42 -5 -76 -12 -83 -8
-8 -50 -12 -123 -12 l-110 0 -75 25 c-41 14 -94 39 -116 55 -23 16 -77 47
-120 69 -44 22 -105 62 -138 88 -32 26 -81 62 -109 78 -29 17 -64 49 -79 71
-15 22 -47 53 -71 68 -54 35 -77 72 -77 125 0 31 6 48 25 66 l24 25 71 0 72 0
65 -30z m16 -542 c17 -13 39 -27 48 -33 98 -60 130 -77 163 -86 63 -17 126
-60 126 -85 0 -20 -39 -37 -105 -46 -33 -4 -72 -10 -87 -14 l-26 -6 -40 40
c-23 23 -45 57 -51 77 -5 19 -28 57 -50 84 -64 76 -49 120 22 69z m464 -403
c19 -8 54 -15 77 -15 25 0 53 -8 71 -21 42 -29 182 -99 197 -99 28 0 216 -100
262 -139 26 -23 57 -41 69 -41 11 0 37 -18 58 -41 20 -22 60 -57 88 -78 50
-37 109 -99 144 -151 21 -31 22 -64 1 -100 -29 -48 -62 -60 -166 -60 -131 0
-233 37 -408 148 l-75 48 -3 31 -3 32 58 38 c64 42 77 71 46 105 l-18 20 -82
-6 -82 -6 -83 27 c-95 30 -138 56 -138 83 0 12 -22 36 -53 59 -89 67 -129 140
-92 168 25 17 87 17 132 -2z"/>
</g>
</svg>
