<?xml version="1.0" standalone="no"?>
<!DOCTYPE svg PUBLIC "-//W3C//DTD SVG 20010904//EN"
 "http://www.w3.org/TR/2001/REC-SVG-20010904/DTD/svg10.dtd">
<svg version="1.0" xmlns="http://www.w3.org/2000/svg"
 width="2520.000000pt" height="792.000000pt" viewBox="0 0 2520.000000 792.000000"
 preserveAspectRatio="xMidYMid meet">
<metadata>
Created by potrace 1.16, written by Peter Selinger 2001-2019
</metadata>
<g transform="translate(0.000000,792.000000) scale(0.100000,-0.100000)"
fill="#000000" stroke="none">
<path d="M2767 7072 c-12 -13 -17 -37 -17 -80 l0 -61 -19 -11 c-13 -6 -144
-10 -359 -10 l-339 0 -16 -18 c-13 -14 -17 -38 -17 -95 l0 -76 -19 -11 c-11
-6 -88 -10 -179 -10 l-159 0 -16 -18 c-12 -13 -17 -37 -17 -80 l0 -61 -19 -11
c-11 -5 -44 -10 -74 -10 -72 0 -87 -17 -87 -98 l0 -61 -19 -11 c-11 -5 -51
-10 -89 -10 -92 0 -102 -11 -102 -113 l0 -76 -19 -11 c-11 -5 -44 -10 -74 -10
-72 0 -87 -17 -87 -98 l0 -61 -19 -11 c-11 -5 -44 -10 -74 -10 -40 0 -58 -5
-70 -18 l-17 -19 0 -350 0 -350 18 -16 c12 -11 36 -17 71 -17 29 0 61 -5 72
-10 l19 -11 0 -63 c0 -80 15 -96 89 -96 29 0 61 -5 72 -10 l19 -11 0 -168 0
-168 18 -16 c13 -12 37 -17 86 -17 37 0 76 -5 87 -10 l19 -11 0 -63 c0 -48 4
-67 18 -79 l19 -17 142 0 c79 0 151 -5 162 -10 l19 -11 0 -78 0 -78 18 -16 19
-17 247 0 c151 0 255 -4 267 -10 l19 -11 0 -63 c0 -48 4 -67 18 -79 l19 -17
247 0 c151 0 255 -4 267 -10 l19 -11 0 -63 c0 -48 4 -67 18 -79 l19 -17 247 0
c151 0 255 -4 267 -10 l19 -11 0 -63 c0 -48 4 -67 18 -79 l19 -17 337 0 c213
0 344 -4 357 -10 l19 -11 0 -78 0 -78 18 -16 19 -17 442 0 c286 0 449 -4 462
-10 l19 -11 0 -63 c0 -48 4 -67 18 -79 l19 -17 517 0 c337 0 524 -4 537 -10
l19 -11 0 -63 c0 -48 4 -67 18 -79 l19 -17 352 0 c224 0 359 -4 372 -10 l19
-11 0 -78 0 -78 18 -16 19 -17 337 0 c213 0 344 -4 357 -10 l19 -11 0 -63 c0
-48 4 -67 18 -79 l19 -17 350 0 350 0 16 18 c12 13 17 37 17 80 l0 61 19 11
c27 14 665 14 692 0 l19 -11 0 -63 c0 -48 4 -67 18 -79 l19 -17 1297 0 c875 0
1304 -3 1317 -10 l19 -11 0 -63 c0 -48 4 -67 18 -79 l19 -17 350 0 350 0 16
18 c12 13 17 37 17 80 l0 61 19 11 c25 13 97 13 122 0 l19 -11 0 -63 c0 -48 4
-67 18 -79 l19 -17 170 0 170 0 16 18 c12 13 17 37 17 80 l0 61 19 11 c25 13
97 13 122 0 l19 -11 0 -63 c0 -48 4 -67 18 -79 l19 -17 2602 0 c1775 0 2608
-3 2622 -10 l19 -11 0 -78 0 -78 18 -16 19 -17 727 0 c482 0 734 -3 747 -10
l19 -11 0 -63 c0 -48 4 -67 18 -79 l19 -17 142 0 c79 0 151 -5 162 -10 l19
-11 0 -63 c0 -48 4 -67 18 -79 l19 -17 157 0 c89 0 166 -4 177 -10 l19 -11 0
-63 c0 -48 4 -67 18 -79 l19 -17 157 0 c89 0 166 -4 177 -10 l19 -11 0 -78 0
-78 18 -16 19 -17 142 0 c79 0 151 -5 162 -10 l19 -11 0 -63 c0 -48 4 -67 18
-79 l19 -17 157 0 c89 0 166 -4 177 -10 l19 -11 0 -63 c0 -48 4 -67 18 -79
l19 -17 337 0 c213 0 344 -4 357 -10 l19 -11 0 -78 0 -78 18 -16 19 -17 442 0
c286 0 449 -4 462 -10 l19 -11 0 -63 c0 -83 14 -96 102 -96 84 0 98 14 98 98
l0 61 19 11 c11 6 88 10 179 10 l159 0 16 18 c13 14 17 38 17 95 l0 76 19 11
c11 5 44 10 74 10 73 0 87 16 87 102 0 82 -15 98 -89 98 -29 0 -61 5 -72 10
l-19 11 0 258 0 258 -18 16 -19 17 -157 0 c-89 0 -166 4 -177 10 l-19 11 0 63
c0 48 -4 67 -18 79 l-19 17 -157 0 c-89 0 -166 4 -177 10 l-19 11 0 63 c0 48
-4 67 -18 79 l-19 17 -337 0 c-213 0 -344 4 -357 10 l-19 11 0 78 0 78 -18 16
-19 17 -427 0 c-275 0 -434 4 -447 10 l-19 11 0 63 c0 48 -4 67 -18 79 l-19
17 -817 0 c-544 0 -824 3 -837 10 l-19 11 0 63 c0 48 -4 67 -18 79 l-19 17
-157 0 c-89 0 -166 4 -177 10 l-19 11 0 78 0 78 -18 16 -19 17 -142 0 c-79 0
-151 5 -162 10 l-19 11 0 63 c0 84 -13 96 -104 96 -37 0 -76 5 -87 10 l-19 11
0 63 c0 80 -15 96 -89 96 -29 0 -61 5 -72 10 l-19 11 0 78 0 78 -18 16 -19 17
-157 0 c-89 0 -166 4 -177 10 l-19 11 0 63 c0 80 -15 96 -89 96 -29 0 -61 5
-72 10 l-19 11 0 63 c0 80 -15 96 -89 96 -29 0 -61 5 -72 10 l-19 11 0 63 c0
80 -15 96 -89 96 -29 0 -61 5 -72 10 l-19 11 0 168 0 168 -18 16 c-13 12 -37
17 -86 17 -37 0 -76 5 -87 10 l-19 11 0 59 0 59 19 11 c11 5 51 10 89 10 92 0
102 11 102 113 l0 76 19 11 c27 14 845 14 872 0 l19 -11 0 -78 0 -78 18 -16
19 -17 157 0 c89 0 166 -4 177 -10 l19 -11 0 -63 c0 -80 15 -96 89 -96 29 0
61 -5 72 -10 l19 -11 0 -63 c0 -80 15 -96 89 -96 29 0 61 -5 72 -10 l19 -11 0
-78 0 -78 18 -16 c14 -13 38 -17 99 -17 l80 0 16 18 c13 14 17 38 17 95 l0 76
19 11 c11 5 44 10 74 10 73 0 87 16 87 102 0 82 -15 98 -89 98 -29 0 -61 5
-72 10 l-19 11 0 63 c0 84 -13 96 -104 96 -37 0 -76 5 -87 10 l-19 11 0 78 0
78 -18 16 c-12 11 -36 17 -71 17 -29 0 -61 5 -72 10 l-19 11 0 63 c0 48 -4 67
-18 79 l-19 17 -247 0 c-151 0 -255 4 -267 10 l-19 11 0 63 c0 48 -4 67 -18
79 l-19 17 -725 0 -725 0 -16 -18 c-12 -13 -17 -37 -17 -80 l0 -61 -19 -11
c-11 -5 -51 -10 -89 -10 -54 0 -72 -4 -85 -18 l-17 -19 0 -260 0 -260 18 -16
c13 -12 37 -17 86 -17 37 0 76 -5 87 -10 l19 -11 0 -168 0 -168 18 -16 c12
-11 36 -17 71 -17 29 0 61 -5 72 -10 l19 -11 0 -63 c0 -80 15 -96 89 -96 29 0
61 -5 72 -10 l19 -11 0 -63 c0 -84 13 -96 104 -96 37 0 76 -5 87 -10 l19 -11
0 -63 c0 -80 15 -96 89 -96 29 0 61 -5 72 -10 l19 -11 0 -78 0 -78 18 -16 c12
-11 36 -17 71 -17 29 0 61 -5 72 -10 l19 -11 0 -63 c0 -80 15 -96 89 -96 29 0
61 -5 72 -10 l19 -11 0 -63 c0 -48 4 -67 18 -79 l19 -17 157 0 c89 0 166 -4
177 -10 l19 -11 0 -74 0 -74 -19 -11 c-12 -6 -116 -10 -269 -10 l-249 0 -16
-18 c-12 -13 -17 -37 -17 -80 l0 -61 -19 -11 c-25 -13 -97 -13 -122 0 l-19 11
0 63 c0 48 -4 67 -18 79 l-19 17 -2422 0 c-1651 0 -2428 3 -2442 10 l-19 11 0
78 0 78 -18 16 -19 17 -170 0 -170 0 -16 -18 c-13 -14 -17 -38 -17 -95 l0 -76
-19 -11 c-25 -13 -97 -13 -122 0 l-19 11 0 78 0 78 -18 16 -19 17 -1477 0
c-999 0 -1484 3 -1497 10 l-19 11 0 63 c0 48 -4 67 -18 79 l-19 17 -247 0
c-151 0 -255 4 -267 10 l-19 11 0 164 0 164 19 11 c11 5 51 10 89 10 90 0 102
12 102 102 0 86 -13 98 -104 98 -37 0 -76 5 -87 10 l-19 11 0 153 0 153 -18
16 c-12 11 -36 17 -71 17 -29 0 -61 5 -72 10 l-19 11 0 78 0 78 -18 16 c-12
11 -36 17 -71 17 -29 0 -61 5 -72 10 l-19 11 0 63 c0 84 -13 96 -104 96 -37 0
-76 5 -87 10 l-19 11 0 63 c0 80 -15 96 -89 96 -29 0 -61 5 -72 10 l-19 11 0
78 0 78 -18 16 c-12 11 -36 17 -71 17 -29 0 -61 5 -72 10 l-19 11 0 63 c0 48
-4 67 -18 79 l-19 17 -157 0 c-89 0 -166 4 -177 10 l-19 11 0 63 c0 80 -15 96
-89 96 -29 0 -61 5 -72 10 l-19 11 0 78 0 78 -18 16 c-12 11 -36 17 -71 17
-29 0 -61 5 -72 10 l-19 11 0 63 c0 48 -4 67 -18 79 l-19 17 -157 0 c-89 0
-166 4 -177 10 l-19 11 0 63 c0 48 -4 67 -18 79 l-19 17 -247 0 c-151 0 -255
4 -267 10 l-19 11 0 63 c0 48 -4 67 -18 79 l-19 17 -157 0 c-89 0 -166 4 -177
10 l-19 11 0 78 0 78 -18 16 -19 17 -142 0 c-79 0 -151 5 -162 10 l-19 11 0
63 c0 48 -4 67 -18 79 l-19 17 -337 0 c-213 0 -344 4 -357 10 l-19 11 0 63 c0
48 -4 67 -18 79 l-19 17 -352 0 c-224 0 -359 4 -372 10 l-19 11 0 78 0 78 -18
16 -19 17 -622 0 c-410 0 -629 4 -642 10 l-19 11 0 63 c0 48 -4 67 -18 79
l-19 17 -155 0 -155 0 -16 -18z m1854 -582 l19 -11 0 -61 c0 -43 5 -67 17 -80
l16 -18 249 0 c153 0 257 -4 269 -10 l19 -11 0 -76 c0 -57 4 -81 17 -95 l16
-18 249 0 c153 0 257 -4 269 -10 l19 -11 0 -61 c0 -43 5 -67 17 -80 l16 -18
234 0 c142 0 242 -4 254 -10 l19 -11 0 -61 c0 -43 5 -67 17 -80 l16 -18 159 0
c91 0 168 -4 179 -10 l19 -11 0 -61 c0 -43 5 -67 17 -80 l16 -18 159 0 c91 0
168 -4 179 -10 l19 -11 0 -76 c0 -98 12 -113 87 -113 30 0 63 -5 74 -10 l19
-11 0 -61 c0 -43 5 -67 17 -80 l16 -18 159 0 c91 0 168 -4 179 -10 l19 -11 0
-61 c0 -81 15 -98 87 -98 30 0 63 -5 74 -10 l19 -11 0 -76 c0 -98 12 -113 87
-113 30 0 63 -5 74 -10 l19 -11 0 -61 c0 -85 13 -98 102 -98 38 0 78 -5 89
-10 l19 -11 0 -61 c0 -81 15 -98 87 -98 30 0 63 -5 74 -10 l19 -11 0 -76 c0
-98 12 -113 87 -113 30 0 63 -5 74 -10 l19 -11 0 -61 c0 -81 15 -98 87 -98 30
0 63 -5 74 -10 l19 -11 0 -254 0 -254 -19 -11 c-11 -5 -43 -10 -72 -10 -74 0
-89 -16 -89 -96 l0 -63 -19 -11 c-26 -14 -486 -14 -512 0 l-19 11 0 61 c0 43
-5 67 -17 80 l-16 18 -429 0 c-277 0 -436 4 -449 10 l-19 11 0 76 c0 102 -10
113 -102 113 -38 0 -78 5 -89 10 l-19 11 0 61 c0 81 -15 98 -87 98 -30 0 -63
5 -74 10 l-19 11 0 61 c0 81 -15 98 -87 98 -30 0 -63 5 -74 10 l-19 11 0 61
c0 85 -13 98 -102 98 -38 0 -78 5 -89 10 l-19 11 0 76 c0 98 -12 113 -87 113
-30 0 -63 5 -74 10 l-19 11 0 61 c0 43 -5 67 -17 80 l-16 18 -155 0 -155 0
-19 -17 -18 -16 0 -170 0 -170 17 -19 c12 -13 30 -18 70 -18 30 0 63 -5 74
-10 l19 -11 0 -239 0 -239 -19 -11 c-12 -6 -114 -10 -263 -10 l-243 0 -60 31
c-33 18 -79 45 -102 61 -23 16 -71 42 -105 58 l-63 30 -308 0 c-193 0 -316 4
-328 10 l-19 11 0 61 c0 43 -5 67 -17 80 l-16 18 -339 0 c-215 0 -346 4 -359
10 l-19 11 0 61 c0 43 -5 67 -17 80 l-16 18 -249 0 c-153 0 -257 4 -269 10
l-19 11 0 76 c0 57 -4 81 -17 95 l-16 18 -249 0 c-153 0 -257 4 -269 10 l-19
11 0 61 c0 43 -5 67 -17 80 l-16 18 -144 0 c-80 0 -153 5 -164 10 l-19 11 0
61 c0 43 -5 67 -17 80 l-16 18 -159 0 c-91 0 -168 4 -179 10 l-19 11 0 76 c0
98 -12 113 -87 113 -30 0 -63 5 -74 10 l-19 11 0 61 c0 81 -15 98 -87 98 -30
0 -63 5 -74 10 l-19 11 0 344 0 344 19 11 c11 5 43 10 72 10 74 0 89 16 89 96
l0 63 19 11 c11 6 88 10 177 10 l157 0 19 17 18 16 0 78 0 78 19 11 c11 5 43
10 72 10 74 0 89 16 89 96 0 49 4 65 18 73 24 14 2376 15 2403 1z m17190
-4170 l19 -11 0 -61 c0 -43 5 -67 17 -80 l16 -18 534 0 c349 0 541 -4 554 -10
l19 -11 0 -61 c0 -43 5 -67 17 -80 l16 -18 249 0 c153 0 257 -4 269 -10 l19
-11 0 -61 c0 -43 5 -67 17 -80 l16 -18 159 0 c91 0 168 -4 179 -10 l19 -11 0
-76 c0 -98 12 -113 87 -113 30 0 63 -5 74 -10 l19 -11 0 -59 0 -59 -19 -11
c-27 -14 -1235 -14 -1262 0 l-19 11 0 61 c0 43 -5 67 -17 80 l-16 18 -159 0
c-91 0 -168 4 -179 10 l-19 11 0 76 c0 57 -4 81 -17 95 l-16 18 -249 0 c-153
0 -257 4 -269 10 l-19 11 0 61 c0 81 -15 98 -87 98 -30 0 -63 5 -74 10 l-19
11 0 61 c0 81 -15 98 -87 98 -30 0 -63 5 -74 10 l-19 11 0 59 c0 46 4 61 18
69 23 14 278 14 303 1z"/>
</g>
</svg>
