<?xml version="1.0" encoding="UTF-8" standalone="no"?>
<!-- Created with Inkscape (http://www.inkscape.org/) -->

<svg
   version="1.1"
   id="svg1"
   width="311.65805"
   height="376.97626"
   viewBox="0 0 311.65805 376.97626"
   xmlns="http://www.w3.org/2000/svg"
   xmlns:svg="http://www.w3.org/2000/svg">
  <defs
     id="defs1" />
  <g
     id="g1"
     transform="translate(1.049315,0.07630882)">
    <path
       style="fill:#000000"
       d="M 269.46716,374.59483 C 261.40902,370.92835 256,361.9812 256,352.3186 c 0,-9.97394 13.70965,-13.10976 29.41498,-6.72811 6.79023,2.75912 6.67502,2.81388 9.65705,-4.59049 C 311.07122,301.27418 274.83493,229.55251 215.5,183.50488 161.7713,141.80804 122.61369,118.0772 88.5,106.53859 44.631154,91.700393 -15.286996,19.286996 2,2 13.095837,-9.0958371 70.726265,27.033251 70.989176,45.25 71.024767,47.716099 60.253861,43.410937 59.417302,40.624688 57.309445,33.604255 27.078371,13.039882 18.821429,13.009769 5.4943531,12.961164 13.498928,31.48393 39.696662,61.315529 51.185116,74.397536 55.300539,77.672336 53.906252,72.622645 49.921065,58.189486 69.567088,56.968999 88.005789,70.50425 c 9.090122,6.672762 16.418171,20.046149 16.197891,29.56049 -0.0535,2.30862 1.0822,3.09597 11.3721,7.88433 44.93407,20.90987 115.83553,71.46144 143.13224,102.05093 37.8651,42.43273 61.99213,116.39176 47.77399,146.44645 -8.19656,17.3261 -22.93753,24.5536 -37.01485,18.14838 z m 9.71762,-13.49706 c 6.22311,-3.94658 6.51637,-4.80352 1.91016,-5.58173 C 275.3007,354.53711 269,358.40153 269,362.93426 c 0,2.05648 5.65374,1.03701 10.18478,-1.83649 z M 89.8,92.8 C 93.096568,89.503432 89.994142,83.368239 82.100417,77.573713 74.716037,72.15308 68.623857,72.928598 66.61601,79.544835 64.803891,85.51611 85.341666,97.258334 89.8,92.8 Z"
       id="path1" />
  </g>
</svg>
