<?xml version="1.0" standalone="no"?>
<!DOCTYPE svg PUBLIC "-//W3C//DTD SVG 20010904//EN"
 "http://www.w3.org/TR/2001/REC-SVG-20010904/DTD/svg10.dtd">
<svg version="1.0" xmlns="http://www.w3.org/2000/svg"
 width="615.000000pt" height="108.000000pt" viewBox="0 0 615.000000 108.000000"
 preserveAspectRatio="xMidYMid meet">
<metadata>
Created by potrace 1.16, written by Peter Selinger 2001-2019
</metadata>
<g transform="translate(0.000000,108.000000) scale(0.100000,-0.100000)"
fill="#000000" stroke="none">
<path d="M4145 1072 c-6 -5 -37 -17 -70 -27 -67 -21 -95 -40 -95 -64 0 -9 -9
-29 -21 -46 -49 -73 -69 -124 -69 -181 0 -75 -17 -100 -108 -161 -111 -74
-180 -103 -245 -103 -30 0 -71 -7 -90 -15 -21 -8 -67 -15 -105 -15 -39 0 -85
-7 -105 -15 -20 -8 -54 -15 -75 -15 -22 0 -56 -7 -75 -15 -25 -10 -72 -15
-150 -15 -82 0 -125 -5 -153 -16 -30 -12 -58 -15 -133 -10 -149 10 -284 15
-576 21 -199 5 -278 10 -303 21 -19 8 -66 14 -104 14 -38 0 -84 7 -105 15 -23
10 -69 15 -135 15 -65 0 -111 5 -135 15 -23 10 -69 15 -137 15 l-101 0 -63 30
c-35 17 -73 30 -85 30 -11 0 -81 20 -154 45 -73 25 -142 45 -154 45 -28 0
-137 51 -190 89 -23 17 -49 31 -58 31 -26 0 -131 54 -219 113 -100 67 -125 67
-130 -3 -4 -55 18 -79 118 -130 41 -21 97 -57 124 -79 34 -29 58 -41 80 -41
18 0 50 -13 76 -30 25 -16 52 -30 60 -30 9 0 32 -11 51 -24 52 -36 150 -66
211 -66 38 0 71 -8 116 -30 35 -17 74 -30 86 -30 12 0 60 -13 106 -30 53 -18
105 -30 138 -30 29 0 69 -7 89 -15 25 -11 72 -15 165 -15 92 0 139 -4 165 -15
24 -10 71 -15 149 -15 68 0 124 -5 141 -12 23 -11 320 -22 718 -27 127 -1 456
17 478 27 16 6 66 12 111 12 52 0 97 6 119 15 23 9 68 15 120 15 53 0 98 6
120 15 20 8 56 15 79 15 28 0 60 10 93 29 78 44 107 58 155 78 67 27 107 68
151 154 l39 79 0 56 c0 97 47 159 127 170 21 3 55 12 76 20 49 18 128 18 174
-1 23 -10 69 -15 137 -15 l101 0 63 -30 c35 -17 76 -30 91 -30 14 0 43 -11 63
-25 21 -14 74 -37 120 -52 101 -32 138 -56 138 -89 0 -39 39 -147 63 -173 12
-13 39 -34 59 -47 21 -13 49 -42 63 -64 19 -30 41 -47 83 -66 31 -15 73 -35
92 -45 19 -11 83 -44 142 -74 l108 -55 52 0 c29 0 74 -7 99 -17 l47 -16 41 16
c23 10 53 17 67 17 14 0 38 7 54 15 l30 16 0 69 c0 70 1 67 -65 172 -12 19
-37 39 -60 48 -49 18 -128 62 -204 112 -33 23 -68 38 -86 38 -17 0 -50 14 -75
30 -25 16 -52 30 -61 30 -8 0 -57 20 -108 45 -51 25 -97 45 -103 45 -5 0 -39
14 -75 30 -35 17 -69 30 -74 30 -6 0 -35 11 -65 25 -73 33 -168 65 -196 65
-13 0 -48 12 -78 26 -74 34 -255 94 -285 94 -13 0 -27 5 -30 10 -8 12 -427 14
-440 2z m1372 -482 c35 -16 69 -30 74 -30 6 0 43 -19 82 -42 40 -24 90 -52
112 -63 78 -38 185 -131 185 -160 0 -12 -43 -3 -96 20 -31 14 -75 25 -98 25
-50 1 -82 16 -216 104 -103 68 -180 138 -180 163 0 23 70 14 137 -17z"/>
<path d="M135 257 c-46 -26 -85 -87 -85 -136 0 -20 11 -51 27 -77 l28 -43 90
0 90 0 28 43 c17 28 27 57 27 81 l0 38 -58 59 c-66 65 -85 70 -147 35z"/>
</g>
</svg>
