<?xml version="1.0" standalone="no"?>
<!DOCTYPE svg PUBLIC "-//W3C//DTD SVG 20010904//EN"
 "http://www.w3.org/TR/2001/REC-SVG-20010904/DTD/svg10.dtd">
<svg version="1.0" xmlns="http://www.w3.org/2000/svg"
 width="639.000000pt" height="219.000000pt" viewBox="0 0 639.000000 219.000000"
 preserveAspectRatio="xMidYMid meet">
<metadata>
Created by potrace 1.16, written by Peter Selinger 2001-2019
</metadata>
<g transform="translate(0.000000,219.000000) scale(0.100000,-0.100000)"
fill="#000000" stroke="none">
<path d="M5298 2146 l-28 -44 0 -64 c0 -49 4 -69 18 -80 27 -24 119 -68 142
-68 23 0 115 44 143 68 12 10 17 30 17 64 0 54 -18 98 -58 141 l-26 27 -90 0
-91 -1 -27 -43z"/>
<path d="M3212 2004 c-24 -16 -72 -103 -72 -129 0 -18 91 -201 127 -256 l25
-37 -12 -21 -11 -21 -115 0 c-79 0 -126 5 -151 15 -19 8 -60 15 -90 15 -29 0
-70 7 -90 15 -19 8 -53 15 -75 15 -21 0 -55 7 -75 15 -20 8 -66 15 -105 15
-38 0 -84 7 -105 15 -22 9 -67 15 -120 15 -52 0 -97 6 -120 15 -26 11 -76 15
-195 15 -118 0 -168 4 -195 15 -20 8 -66 15 -105 15 -38 0 -84 7 -105 15 -20
8 -66 15 -105 15 -38 0 -84 7 -105 15 -25 11 -72 15 -165 15 -92 0 -139 4
-165 15 -20 8 -66 15 -105 15 -38 0 -84 7 -105 15 -25 11 -72 15 -165 15 -92
0 -139 4 -165 15 -20 8 -66 15 -105 15 -38 0 -84 7 -105 15 -19 8 -53 15 -75
15 -21 0 -55 7 -75 15 -20 9 -66 15 -109 15 l-74 0 0 -53 0 -52 49 -18 c27 -9
65 -17 85 -17 20 0 53 -7 73 -15 19 -8 60 -15 90 -15 29 0 70 -7 90 -15 20 -8
66 -15 105 -15 38 0 84 -7 105 -15 19 -8 53 -15 75 -15 21 0 55 -7 75 -15 20
-8 66 -15 105 -15 38 0 84 -7 105 -15 26 -11 74 -15 180 -15 105 0 153 -4 180
-15 19 -8 60 -15 90 -15 29 0 70 -7 90 -15 19 -8 60 -15 90 -15 29 0 70 -7 90
-15 20 -8 66 -15 105 -15 38 0 84 -7 105 -15 22 -9 67 -15 120 -15 52 0 97 -6
120 -15 26 -11 76 -15 195 -15 118 0 168 -4 195 -15 19 -8 53 -15 75 -15 21 0
55 -7 75 -15 19 -8 60 -15 90 -15 29 0 70 -7 90 -15 19 -8 60 -15 90 -15 29 0
70 -7 90 -15 19 -8 60 -15 90 -15 29 0 70 -7 90 -15 22 -9 68 -15 122 -15 l86
0 38 -26 c29 -19 113 -53 135 -54 2 0 25 21 52 46 54 50 61 74 36 122 -14 27
-90 103 -132 132 -25 18 -111 141 -130 187 -14 32 -10 63 7 63 20 0 301 -194
317 -218 9 -15 87 -98 173 -184 l155 -158 43 0 c90 0 134 99 75 169 -14 17
-50 47 -80 67 -72 48 -119 104 -161 191 l-35 71 12 21 11 21 57 0 c60 0 77 -8
140 -62 18 -15 41 -28 50 -28 10 0 76 -39 146 -86 71 -47 150 -96 176 -109 26
-13 71 -46 101 -73 30 -27 77 -61 104 -75 28 -13 78 -50 113 -81 34 -31 71
-56 81 -56 9 0 28 -12 42 -26 13 -14 51 -44 84 -65 96 -64 155 -111 204 -160
25 -26 64 -56 86 -67 48 -24 65 -43 94 -100 12 -23 51 -85 86 -138 35 -52 67
-109 70 -127 9 -39 32 -67 57 -67 12 0 29 -17 46 -47 15 -26 47 -66 71 -89 24
-23 57 -55 73 -72 38 -37 109 -107 168 -166 25 -24 63 -52 85 -61 22 -10 48
-21 57 -26 24 -12 105 -11 113 1 8 13 62 13 70 0 3 -5 24 -10 46 -10 l40 0 -3
51 -3 51 -34 12 -35 11 -27 78 c-15 43 -34 89 -43 101 -26 41 -300 317 -329
332 -15 8 -58 43 -95 77 -37 35 -106 89 -154 121 -126 84 -168 147 -168 251
l0 56 25 24 c13 14 36 25 50 25 71 0 281 -132 345 -216 41 -55 62 -64 100 -44
42 22 43 45 6 117 -43 86 -106 143 -226 203 -25 13 -58 33 -75 45 -49 37 -112
65 -145 65 -44 0 -181 -72 -218 -115 -18 -19 -32 -46 -32 -60 0 -31 -10 -55
-22 -55 -5 0 -31 16 -56 35 -26 20 -68 50 -94 68 -26 18 -75 53 -110 79 -35
26 -89 66 -121 90 -32 24 -82 61 -110 83 -29 23 -126 90 -217 150 -91 61 -189
131 -218 158 -29 26 -60 47 -70 47 -9 0 -30 9 -47 21 -50 34 -159 87 -223 108
-46 16 -87 21 -163 21 l-102 0 -64 -35 c-35 -19 -69 -35 -76 -35 -7 0 -58 23
-115 50 l-103 50 -92 0 c-68 0 -99 -4 -115 -16z"/>
</g>
</svg>
