<?xml version="1.0" standalone="no"?>
<!DOCTYPE svg PUBLIC "-//W3C//DTD SVG 20010904//EN"
 "http://www.w3.org/TR/2001/REC-SVG-20010904/DTD/svg10.dtd">
<svg version="1.0" xmlns="http://www.w3.org/2000/svg"
 width="264.000000pt" height="177.000000pt" viewBox="0 0 264.000000 177.000000"
 preserveAspectRatio="xMidYMid meet">
<metadata>
Created by potrace 1.16, written by Peter Selinger 2001-2019
</metadata>
<g transform="translate(0.000000,177.000000) scale(0.100000,-0.100000)"
fill="#000000" stroke="none">
<path d="M1680 1760 c-8 -4 -30 -14 -48 -21 -110 -41 -266 -182 -368 -334 -86
-128 -94 -158 -76 -320 10 -96 52 -188 106 -229 20 -15 48 -50 62 -79 15 -28
37 -60 51 -70 15 -12 23 -27 21 -41 l-3 -21 -137 -3 c-106 -2 -146 1 -174 13
-20 8 -54 15 -76 15 -21 0 -55 7 -75 15 -20 8 -66 15 -105 15 -38 0 -84 7
-105 15 -19 8 -45 15 -57 15 -36 0 -226 68 -324 116 -53 26 -100 56 -110 71
-9 14 -29 39 -44 54 l-26 29 -54 0 -54 0 -42 -31 -42 -31 0 -113 0 -114 18 -5
c10 -4 40 -36 66 -71 34 -47 62 -73 97 -90 26 -14 56 -37 66 -51 41 -59 87
-105 112 -111 26 -6 110 -52 211 -116 67 -43 175 -97 192 -97 7 0 55 -20 106
-45 52 -25 105 -45 118 -45 14 0 41 -7 61 -15 19 -8 52 -15 72 -15 35 0 133
-29 148 -43 3 -4 62 -7 129 -7 l123 0 7 35 c8 43 -8 65 -45 65 -15 0 -65 13
-111 30 -47 16 -96 30 -110 30 -14 0 -45 14 -70 30 -25 16 -56 30 -69 30 -35
0 -144 38 -234 82 -43 21 -83 38 -89 38 -6 0 -32 13 -57 29 -25 16 -58 31 -72
35 -14 3 -54 30 -88 61 -34 30 -66 55 -71 55 -14 0 -110 101 -110 116 0 22 25
17 167 -31 73 -25 148 -45 168 -45 20 0 52 -7 72 -15 23 -10 69 -15 135 -15
65 0 111 -5 135 -15 23 -10 69 -15 135 -15 65 0 111 -5 135 -15 24 -10 71 -15
150 -15 78 0 125 -5 150 -15 43 -18 116 -20 146 -3 12 6 56 15 97 19 74 7 123
17 210 45 25 8 62 14 83 14 43 0 161 55 192 90 11 12 39 33 62 47 52 30 99 93
148 198 21 44 42 88 46 97 12 24 11 135 -1 143 -5 3 -10 17 -10 31 0 29 -34
132 -60 183 -10 20 -23 55 -29 78 -8 30 -26 55 -64 88 -28 26 -54 57 -57 69
-7 25 -59 62 -106 75 -18 5 -46 18 -62 29 -54 39 -170 92 -201 92 -16 0 -33 5
-36 10 -8 12 -304 13 -325 0z m344 -171 c34 -11 92 -42 131 -68 76 -51 138
-131 200 -256 l35 -69 0 -147 0 -146 -28 -39 c-62 -85 -176 -164 -236 -164
-13 0 -54 -14 -89 -30 l-65 -30 -130 0 -129 0 -39 28 c-43 32 -103 96 -130
139 -10 15 -28 39 -40 53 -12 14 -35 43 -50 66 -16 22 -44 60 -61 84 l-33 43
0 86 0 86 75 115 c89 136 145 191 240 236 l70 34 109 0 c85 0 123 -5 170 -21z"/>
</g>
</svg>
