<?xml version="1.0" standalone="no"?>
<!DOCTYPE svg PUBLIC "-//W3C//DTD SVG 20010904//EN"
 "http://www.w3.org/TR/2001/REC-SVG-20010904/DTD/svg10.dtd">
<svg version="1.0" xmlns="http://www.w3.org/2000/svg"
 width="489.000000pt" height="150.000000pt" viewBox="0 0 489.000000 150.000000"
 preserveAspectRatio="xMidYMid meet">
<metadata>
Created by potrace 1.16, written by Peter Selinger 2001-2019
</metadata>
<g transform="translate(0.000000,150.000000) scale(0.100000,-0.100000)"
fill="#000000" stroke="none">
<path d="M352 1446 l-24 -54 17 -31 c20 -40 58 -63 149 -91 92 -29 207 -83
230 -109 10 -10 16 -30 14 -43 l-3 -23 -92 -3 c-66 -2 -102 2 -129 13 -20 8
-61 15 -91 15 -29 0 -70 7 -90 15 -19 8 -47 15 -60 15 -14 0 -54 14 -90 30
-49 23 -79 30 -124 30 l-59 0 0 -43 c0 -34 6 -49 27 -69 16 -14 39 -28 53 -31
14 -4 47 -24 74 -47 32 -27 58 -40 78 -40 16 0 59 -14 95 -30 l64 -30 85 0
c53 0 98 -6 121 -15 52 -22 160 -19 238 6 l65 22 50 53 c35 37 50 61 50 81 0
15 4 34 9 42 l9 15 69 -28 c37 -15 78 -32 89 -36 12 -5 37 -21 55 -37 51 -43
118 -87 174 -116 67 -34 161 -115 203 -176 l34 -49 -11 -21 c-8 -15 -21 -21
-44 -21 -44 0 -73 -22 -102 -80 -34 -67 -32 -97 14 -188 49 -96 144 -191 286
-285 l101 -67 61 0 c34 0 65 -4 68 -10 3 -5 34 -10 68 -10 l62 1 28 62 c36 81
36 139 1 190 -20 31 -23 41 -14 53 16 19 100 18 147 -1 19 -8 52 -15 72 -15
20 0 56 -6 81 -14 60 -19 125 -35 182 -46 26 -5 56 -13 67 -19 11 -6 72 -11
136 -11 80 0 127 -5 152 -15 l35 -15 463 0 463 0 35 15 c20 8 66 15 102 15 74
0 253 54 314 96 20 13 49 24 65 24 36 0 156 77 186 120 12 17 30 30 40 30 34
0 90 61 130 141 22 43 44 80 50 84 6 4 10 58 10 137 l0 132 -19 20 c-11 12
-26 39 -33 61 -10 29 -26 48 -63 73 -27 19 -64 53 -81 76 l-31 41 -78 24 c-42
13 -126 47 -186 77 -61 30 -121 54 -135 54 -13 0 -41 7 -61 15 -48 20 -198 20
-246 0 -20 -8 -48 -15 -62 -15 -40 0 -121 -46 -151 -85 -14 -19 -34 -35 -43
-35 -49 0 -81 -50 -136 -215 -45 -136 -44 -152 16 -353 27 -87 44 -118 101
-181 56 -62 91 -123 86 -154 l-3 -22 -317 -3 -318 -2 -36 15 c-27 11 -76 15
-196 15 -118 0 -168 4 -195 15 -19 8 -52 15 -72 15 -20 0 -56 6 -81 14 -58 18
-124 35 -175 45 -22 4 -56 12 -75 18 -47 15 -116 32 -170 43 -25 5 -61 15 -80
22 -42 15 -153 126 -203 201 -20 29 -55 66 -79 81 -24 15 -56 45 -71 67 -16
22 -50 50 -77 64 -27 14 -61 41 -76 61 -15 19 -46 45 -68 56 -23 12 -54 31
-71 43 -16 13 -52 34 -80 48 -27 14 -72 44 -99 66 -34 29 -58 41 -80 41 -17 0
-44 9 -61 21 -87 59 -308 147 -408 162 -20 3 -50 15 -66 26 l-29 21 -104 0
-103 0 -23 -54z m3845 -211 c19 -8 54 -15 77 -15 49 -1 83 -17 201 -95 127
-84 164 -113 196 -158 l29 -40 0 -86 c0 -107 -16 -144 -96 -231 -77 -82 -129
-120 -168 -120 -18 0 -50 -13 -76 -30 -25 -16 -50 -30 -57 -30 -6 0 -41 -13
-76 -30 -77 -35 -154 -40 -204 -12 -31 16 -108 99 -142 152 -9 14 -35 49 -58
77 -23 29 -48 72 -54 95 -7 24 -25 57 -41 73 l-28 31 0 55 0 56 49 101 c60
122 105 170 187 199 74 26 207 30 261 8z m-2399 -782 c53 -24 136 -89 150
-115 7 -13 19 -45 27 -73 l14 -50 -13 -13 -13 -14 -45 21 c-47 21 -185 138
-205 174 -18 33 -16 54 9 71 28 20 32 20 76 -1z"/>
</g>
</svg>
