<?xml version="1.0" standalone="no"?>
<!DOCTYPE svg PUBLIC "-//W3C//DTD SVG 20010904//EN"
 "http://www.w3.org/TR/2001/REC-SVG-20010904/DTD/svg10.dtd">
<svg version="1.0" xmlns="http://www.w3.org/2000/svg"
 width="267.000000pt" height="246.000000pt" viewBox="0 0 267.000000 246.000000"
 preserveAspectRatio="xMidYMid meet">
<metadata>
Created by potrace 1.16, written by Peter Selinger 2001-2019
</metadata>
<g transform="translate(0.000000,246.000000) scale(0.100000,-0.100000)"
fill="#000000" stroke="none">
<path d="M1855 2444 c-26 -21 -120 -64 -137 -64 -8 0 -27 -13 -43 -30 -16 -16
-37 -30 -46 -30 -24 0 -76 -46 -106 -93 -14 -22 -45 -61 -68 -86 -49 -53 -85
-119 -85 -156 0 -14 -7 -42 -15 -62 -23 -54 -18 -103 21 -220 l35 -108 43 -40
c24 -22 53 -59 65 -82 13 -27 39 -54 70 -74 27 -18 62 -53 77 -77 16 -24 40
-51 54 -60 35 -22 70 -54 70 -64 0 -5 -19 -18 -42 -28 l-43 -20 -203 0 c-158
0 -211 3 -239 15 -19 8 -53 15 -75 15 -21 0 -55 7 -75 15 -19 8 -52 15 -71 15
-20 0 -77 13 -127 29 -103 33 -160 49 -227 61 -26 5 -56 13 -67 19 -11 6 -31
11 -46 11 -14 0 -56 18 -93 40 -37 23 -78 43 -92 47 -78 18 -134 57 -175 123
-14 22 -33 44 -44 50 -29 15 -108 12 -141 -5 l-30 -16 0 -117 c0 -65 4 -122 8
-127 5 -6 19 -43 32 -83 l23 -73 53 -47 c30 -26 54 -55 54 -64 0 -25 57 -86
101 -109 21 -10 85 -66 141 -123 57 -57 117 -111 135 -120 17 -8 53 -34 79
-57 26 -23 89 -68 138 -100 50 -32 108 -71 129 -86 89 -64 185 -127 237 -153
25 -12 66 -40 92 -61 25 -21 82 -57 125 -80 43 -22 101 -55 130 -73 55 -35
168 -76 208 -76 13 0 27 -4 30 -10 3 -5 47 -10 96 -10 l90 0 -3 37 c-2 30 -10
42 -37 60 -19 13 -46 26 -60 30 -14 3 -47 18 -72 34 -25 16 -51 29 -58 29 -25
0 -138 58 -216 112 -44 30 -96 63 -115 73 -51 26 -195 123 -215 145 -10 11
-35 25 -56 30 -25 7 -65 35 -114 80 -41 39 -83 70 -92 70 -10 0 -37 23 -61 50
-24 28 -61 59 -83 71 -22 11 -69 48 -104 82 -35 34 -78 76 -95 92 -100 97
-182 217 -162 237 5 5 84 -15 178 -45 208 -67 243 -77 319 -86 34 -5 70 -13
82 -19 12 -7 40 -12 63 -12 22 0 57 -7 77 -15 19 -8 52 -15 72 -15 20 0 56 -6
81 -14 119 -38 139 -40 394 -43 l260 -4 38 16 c21 8 63 15 94 15 l55 0 182 91
c193 96 217 112 217 140 0 10 13 27 29 38 40 29 110 133 127 191 8 26 21 53
29 60 12 10 15 40 15 150 0 75 -3 140 -7 143 -12 13 -43 111 -43 137 0 16 -11
37 -26 51 -14 13 -39 47 -55 74 -45 80 -191 217 -279 261 -41 21 -93 51 -114
66 -24 17 -52 28 -72 28 -18 0 -36 5 -39 10 -10 17 -157 12 -180 -6z m215
-162 c75 -37 181 -116 208 -154 15 -23 45 -62 68 -87 62 -71 74 -92 74 -137 0
-23 7 -58 15 -77 10 -24 15 -70 15 -132 0 -62 -5 -108 -15 -132 -8 -19 -15
-48 -15 -62 0 -16 -10 -37 -25 -51 -14 -13 -36 -42 -50 -65 -24 -42 -117 -115
-145 -115 -8 0 -35 -14 -60 -30 -56 -37 -89 -38 -121 -4 -13 14 -45 37 -71 50
-26 13 -55 36 -65 51 -10 14 -37 45 -60 67 -179 172 -233 235 -274 319 -31 64
-39 92 -39 137 0 115 100 261 243 357 110 73 133 82 212 82 46 0 82 -6 105
-17z"/>
</g>
</svg>
