<?xml version="1.0" standalone="no"?>
<!DOCTYPE svg PUBLIC "-//W3C//DTD SVG 20010904//EN"
 "http://www.w3.org/TR/2001/REC-SVG-20010904/DTD/svg10.dtd">
<svg version="1.0" xmlns="http://www.w3.org/2000/svg"
 width="261.000000pt" height="390.000000pt" viewBox="0 0 261.000000 390.000000"
 preserveAspectRatio="xMidYMid meet">
<metadata>
Created by potrace 1.16, written by Peter Selinger 2001-2019
</metadata>
<g transform="translate(0.000000,390.000000) scale(0.100000,-0.100000)"
fill="#000000" stroke="none">
<path d="M1262 3862 c-23 -22 -42 -46 -42 -55 0 -9 10 -46 21 -82 16 -48 32
-75 60 -100 59 -53 79 -48 166 38 87 88 90 104 33 173 -22 27 -40 52 -40 56 0
5 -35 8 -78 8 l-79 0 -41 -38z"/>
<path d="M1297 3262 c-13 -14 -17 -38 -17 -96 l0 -78 40 -46 c42 -47 56 -81
46 -107 -8 -23 -42 -18 -64 9 -31 40 -222 126 -278 126 -9 0 -53 12 -97 27
l-80 26 -44 -11 c-24 -7 -54 -12 -67 -12 -33 0 -69 -32 -91 -80 l-19 -41 14
-52 c26 -104 100 -207 148 -207 10 0 31 -13 47 -30 16 -16 36 -30 44 -30 9 0
36 -14 61 -30 25 -16 58 -30 73 -30 15 0 44 -7 64 -15 25 -10 71 -15 153 -15
82 0 128 5 153 15 113 47 190 -1 459 -282 119 -126 171 -187 213 -253 17 -26
45 -67 63 -90 17 -24 32 -51 32 -60 0 -9 13 -35 29 -57 16 -22 38 -58 49 -79
11 -22 32 -50 46 -63 20 -19 26 -34 26 -68 0 -25 5 -54 11 -65 20 -37 39 -246
28 -297 -36 -158 -67 -218 -142 -272 l-40 -29 -59 0 c-74 0 -110 -18 -168 -82
l-45 -51 -34 8 c-25 5 -69 41 -165 134 -72 70 -147 137 -166 150 -20 13 -48
41 -63 62 -18 25 -53 51 -97 75 -38 20 -81 51 -95 70 -14 19 -44 43 -65 54
-21 11 -71 53 -112 93 -89 89 -212 188 -267 216 -28 15 -59 21 -104 21 -75 0
-97 -16 -97 -73 0 -44 27 -76 91 -109 46 -24 189 -156 189 -176 0 -5 -14 -22
-31 -36 l-31 -26 -55 0 c-40 0 -72 8 -120 30 -35 16 -69 30 -75 30 -6 0 -32
13 -57 29 -25 16 -61 32 -80 36 -21 5 -52 26 -87 61 -29 30 -62 54 -73 54 -11
0 -22 4 -26 10 -3 5 -39 36 -79 69 -76 61 -143 101 -171 101 l-15 0 0 -75 0
-74 47 -38 c26 -21 74 -63 108 -94 33 -30 73 -63 88 -73 15 -9 53 -39 83 -67
30 -27 62 -49 71 -49 8 0 55 -18 102 -41 147 -69 186 -79 320 -79 l120 0 33
28 c79 68 127 78 203 43 42 -21 140 -99 214 -172 25 -25 66 -61 91 -80 24 -19
94 -84 155 -145 70 -71 129 -122 163 -139 29 -15 61 -39 70 -52 40 -57 68 -86
103 -109 21 -13 55 -50 75 -81 38 -59 48 -70 263 -290 l130 -133 58 0 c33 0
71 6 86 13 l27 12 0 53 c0 42 -5 61 -27 88 -14 19 -38 41 -52 49 -15 7 -54 37
-88 67 -34 29 -73 61 -87 71 -14 9 -30 33 -35 53 -5 20 -30 58 -55 84 -26 27
-51 62 -57 77 -6 15 -25 58 -41 95 -19 44 -26 73 -21 82 5 9 33 33 63 55 237
173 263 197 311 293 21 43 39 89 39 103 0 14 7 42 15 62 9 22 15 67 15 119 l0
84 -34 103 c-19 56 -46 127 -60 157 -14 30 -26 62 -26 71 0 9 -18 39 -40 65
-23 27 -43 60 -47 74 -3 14 -18 46 -34 71 -16 25 -29 54 -29 64 0 10 -29 47
-65 81 -35 35 -73 81 -85 104 -11 22 -38 51 -60 65 -22 14 -51 42 -64 64 -14
21 -39 49 -57 62 -17 13 -66 59 -107 102 -58 60 -81 77 -103 77 -22 0 -45 17
-104 75 l-75 76 0 83 c0 52 -6 97 -15 119 -8 20 -15 48 -15 61 l0 25 53 -6
c64 -7 203 -71 255 -117 72 -64 117 -73 151 -30 25 32 26 55 5 97 -23 44 -44
67 -63 67 -9 0 -54 25 -99 55 -80 53 -178 95 -223 95 -11 0 -50 14 -86 30
l-64 30 -93 0 -93 0 -16 -18z m-361 -337 c31 -14 66 -25 78 -25 60 0 216 -79
230 -116 7 -18 -20 -44 -45 -44 -11 0 -36 7 -56 15 -19 8 -45 15 -56 15 -48 0
-148 44 -199 87 -61 52 -64 58 -48 78 17 20 31 19 96 -10z"/>
</g>
</svg>
