<?xml version="1.0" standalone="no"?>
<!DOCTYPE svg PUBLIC "-//W3C//DTD SVG 20010904//EN"
 "http://www.w3.org/TR/2001/REC-SVG-20010904/DTD/svg10.dtd">
<svg version="1.0" xmlns="http://www.w3.org/2000/svg"
 width="375.000000pt" height="426.000000pt" viewBox="0 0 375.000000 426.000000"
 preserveAspectRatio="xMidYMid meet">
<metadata>
Created by potrace 1.16, written by Peter Selinger 2001-2019
</metadata>
<g transform="translate(0.000000,426.000000) scale(0.100000,-0.100000)"
fill="#000000" stroke="none">
<path d="M50 4236 c0 -24 -23 -56 -41 -56 -5 0 -9 -20 -9 -44 l0 -44 53 -56
53 -56 57 0 56 0 36 32 c40 34 75 95 75 129 0 11 -16 39 -35 62 -19 22 -35 44
-35 49 0 4 -47 8 -105 8 l-105 0 0 -24z"/>
<path d="M274 3626 l-44 -43 0 -86 0 -85 40 -32 c25 -20 43 -44 49 -67 6 -20
35 -62 68 -97 32 -34 89 -100 128 -145 38 -46 86 -94 107 -107 20 -13 42 -32
48 -43 15 -29 12 -115 -6 -160 -18 -45 -15 -135 6 -211 29 -106 50 -168 74
-220 14 -30 26 -68 26 -85 0 -16 14 -50 30 -75 16 -25 30 -52 30 -60 0 -8 14
-35 30 -60 16 -25 30 -52 30 -61 0 -9 18 -39 41 -65 22 -27 54 -75 70 -106 16
-31 44 -69 64 -84 20 -15 35 -35 35 -47 0 -11 19 -39 43 -61 24 -23 64 -69 90
-103 26 -34 94 -111 150 -170 57 -59 113 -121 126 -138 52 -69 187 -208 224
-232 22 -14 71 -54 108 -89 38 -35 72 -64 77 -64 5 0 46 -34 91 -75 44 -41 88
-75 97 -75 8 0 41 -27 72 -60 34 -35 66 -60 78 -60 11 0 31 -12 45 -26 13 -14
42 -35 64 -46 22 -12 54 -31 70 -44 17 -12 64 -39 105 -60 41 -20 89 -47 105
-59 50 -38 173 -95 203 -95 26 0 101 -44 116 -68 8 -13 172 -61 276 -82 25 -5
77 -20 115 -34 39 -14 81 -26 96 -26 14 0 30 -5 35 -10 7 -7 59 -10 135 -8
l124 3 3 45 3 45 -49 17 c-34 13 -80 18 -147 18 l-98 0 -86 41 c-47 22 -140
58 -206 80 -139 46 -208 76 -266 119 -23 16 -48 30 -56 30 -28 0 -149 62 -193
99 -48 41 -120 81 -144 81 -8 0 -24 13 -36 30 -21 29 -114 96 -200 142 -24 13
-58 43 -75 67 -16 23 -50 53 -75 67 -25 14 -65 48 -89 75 -24 27 -60 58 -81
69 -49 25 -196 171 -204 203 -3 13 -24 40 -46 58 -96 80 -232 235 -267 302
-14 29 -38 66 -52 82 -15 17 -49 64 -76 105 -27 41 -70 99 -97 128 -26 29 -51
68 -56 86 -5 18 -25 56 -45 84 -19 29 -38 67 -42 84 -4 18 -18 50 -31 70 -27
42 -64 142 -64 174 0 12 -13 51 -30 86 -18 38 -30 79 -30 104 0 23 -5 55 -11
71 -12 36 8 116 47 195 13 26 24 56 24 68 0 27 -66 99 -99 106 -49 12 -170 74
-186 97 -8 12 -37 50 -63 85 -26 35 -62 84 -80 110 -19 26 -44 58 -57 72 -37
41 -48 69 -34 86 6 8 19 14 28 14 22 0 123 -35 189 -66 29 -13 57 -24 63 -24
6 0 45 -16 86 -35 87 -41 196 -141 233 -215 33 -67 48 -80 90 -80 50 0 70 24
70 85 l0 49 -47 70 c-69 105 -103 146 -120 146 -26 0 -86 32 -133 70 -57 47
-122 80 -155 80 -15 0 -51 11 -81 25 -111 51 -169 65 -265 65 l-92 0 -43 -44z"/>
</g>
</svg>
