<?xml version="1.0" standalone="no"?>
<!DOCTYPE svg PUBLIC "-//W3C//DTD SVG 20010904//EN"
 "http://www.w3.org/TR/2001/REC-SVG-20010904/DTD/svg10.dtd">
<svg version="1.0" xmlns="http://www.w3.org/2000/svg"
 width="183.000000pt" height="156.000000pt" viewBox="0 0 183.000000 156.000000"
 preserveAspectRatio="xMidYMid meet">
<metadata>
Created by potrace 1.16, written by Peter Selinger 2001-2019
</metadata>
<g transform="translate(0.000000,156.000000) scale(0.100000,-0.100000)"
fill="#000000" stroke="none">
<path d="M185 1550 c-3 -5 -20 -10 -36 -10 -16 0 -56 -14 -89 -30 l-60 -30 0
-90 c0 -49 5 -92 10 -95 6 -3 10 -20 10 -38 0 -32 81 -163 177 -287 24 -30 62
-80 85 -110 47 -61 107 -125 253 -270 17 -16 48 -50 70 -76 22 -26 58 -58 80
-72 22 -14 67 -51 100 -82 33 -30 79 -69 103 -85 24 -16 62 -45 85 -65 23 -20
70 -52 105 -70 35 -18 71 -44 81 -56 10 -13 40 -33 67 -45 27 -12 57 -26 66
-30 27 -14 364 -11 391 3 12 6 29 14 37 18 8 3 31 36 50 73 20 37 41 72 48 79
15 15 17 300 2 326 -5 9 -19 46 -31 81 -11 36 -29 81 -39 100 -24 44 -168 187
-236 234 -73 50 -189 107 -219 107 -14 0 -42 7 -62 15 -19 8 -47 15 -62 15
-40 0 -113 41 -136 77 -11 18 -29 47 -40 64 -12 19 -34 36 -55 43 -23 7 -44
25 -63 54 -16 23 -46 52 -68 63 -22 11 -57 35 -77 53 -67 60 -224 126 -301
126 -22 0 -43 5 -46 10 -3 6 -48 10 -100 10 -52 0 -97 -4 -100 -10z m202 -165
c19 -8 47 -15 60 -15 42 0 165 -64 223 -116 30 -27 71 -60 90 -73 55 -37 187
-206 196 -250 l6 -29 -40 -26 c-62 -39 -78 -82 -45 -118 l16 -18 84 0 83 0 40
36 c22 20 43 48 47 63 9 41 22 51 68 51 31 0 52 -8 81 -30 21 -16 63 -46 92
-66 29 -20 65 -54 80 -76 15 -22 43 -60 64 -85 20 -25 46 -74 58 -110 l22 -64
-4 -117 -3 -117 -22 -31 c-13 -17 -39 -39 -59 -49 l-36 -17 -42 16 c-23 9 -52
16 -65 16 -34 0 -150 57 -201 98 -24 20 -66 51 -91 67 -26 17 -71 49 -101 73
-29 24 -82 67 -118 95 -56 45 -205 179 -295 266 -28 27 -113 130 -200 245 -22
29 -57 72 -77 95 -20 24 -40 57 -44 75 -3 17 -22 48 -41 69 -42 47 -56 82 -43
106 24 47 144 66 217 36z"/>
</g>
</svg>
