<?xml version="1.0" standalone="no"?>
<!DOCTYPE svg PUBLIC "-//W3C//DTD SVG 20010904//EN"
 "http://www.w3.org/TR/2001/REC-SVG-20010904/DTD/svg10.dtd">
<svg version="1.0" xmlns="http://www.w3.org/2000/svg"
 width="474.000000pt" height="255.000000pt" viewBox="0 0 474.000000 255.000000"
 preserveAspectRatio="xMidYMid meet">
<metadata>
Created by potrace 1.16, written by Peter Selinger 2001-2019
</metadata>
<g transform="translate(0.000000,255.000000) scale(0.100000,-0.100000)"
fill="#000000" stroke="none">
<path d="M425 2540 c-3 -5 -31 -10 -60 -10 -104 0 -307 -88 -334 -145 -8 -16
-18 -38 -23 -47 -28 -59 18 -128 85 -128 l38 0 54 54 c40 41 63 56 92 61 21 3
61 12 88 20 58 17 250 33 345 29 112 -5 264 -21 295 -32 61 -21 122 -34 190
-41 41 -4 139 -30 240 -63 178 -58 233 -74 301 -87 22 -4 54 -17 70 -28 49
-34 149 -82 229 -108 42 -14 108 -46 150 -74 81 -55 147 -91 167 -91 21 -1 78
-32 168 -92 47 -31 99 -59 116 -63 17 -3 56 -27 85 -52 30 -25 79 -62 109 -81
30 -20 75 -54 100 -77 25 -23 66 -53 91 -68 44 -25 119 -116 119 -145 0 -23
62 -137 95 -173 18 -20 51 -72 74 -115 22 -44 64 -106 92 -138 27 -32 59 -76
69 -97 11 -21 42 -57 70 -81 27 -24 50 -51 50 -62 0 -19 63 -85 113 -119 15
-10 38 -40 52 -68 17 -33 39 -58 68 -75 23 -15 62 -49 86 -76 24 -27 61 -58
83 -69 21 -11 56 -35 76 -53 39 -36 138 -89 186 -100 17 -4 42 -16 57 -27 l27
-19 135 0 135 0 56 53 56 53 0 36 c0 20 5 40 10 43 12 8 13 119 1 143 -5 9
-24 51 -42 92 -19 41 -55 98 -81 127 -26 29 -58 70 -72 90 -28 44 -326 339
-371 367 -16 11 -60 48 -97 83 -37 34 -75 63 -85 63 -10 0 -31 9 -48 21 -51
34 -183 99 -204 99 -10 0 -41 -18 -67 -40 -27 -22 -54 -40 -62 -40 -25 0 -151
92 -200 145 -70 76 -92 148 -92 294 l0 112 25 24 c32 33 63 31 142 -5 35 -16
70 -30 76 -30 36 -1 166 -87 192 -127 9 -13 33 -34 55 -48 78 -49 110 -100
119 -190 l6 -59 34 -23 c42 -29 50 -29 92 0 l34 23 3 66 3 67 -32 63 c-17 35
-52 84 -78 109 -25 25 -57 60 -70 78 -13 18 -42 44 -64 58 -22 14 -61 45 -86
68 -45 42 -118 85 -143 85 -7 0 -55 20 -106 45 -108 52 -142 55 -235 24 -95
-32 -152 -79 -192 -160 -19 -38 -35 -77 -35 -88 0 -27 -10 -51 -22 -51 -24 0
-130 59 -251 141 -72 49 -139 89 -148 89 -8 0 -26 12 -40 26 -27 29 -197 118
-246 128 -17 4 -52 25 -76 47 -25 21 -50 39 -57 39 -6 0 -41 14 -77 30 -35 17
-69 30 -75 30 -5 0 -39 14 -75 30 -35 17 -70 30 -76 30 -7 0 -29 11 -48 24
-45 31 -147 66 -190 66 -18 0 -113 27 -213 59 -245 80 -256 82 -376 90 -58 4
-115 12 -127 19 -12 7 -35 12 -52 12 -16 0 -33 5 -36 10 -4 6 -88 10 -220 10
-132 0 -216 -4 -220 -10z m3503 -1564 c13 -11 37 -25 55 -31 19 -6 42 -26 59
-52 17 -24 50 -53 81 -71 69 -39 200 -170 239 -239 19 -33 46 -64 70 -79 21
-14 44 -37 50 -52 6 -15 23 -57 39 -93 37 -84 38 -141 4 -174 -32 -33 -63 -31
-142 5 -35 17 -69 30 -75 30 -21 0 -85 34 -128 69 -25 20 -58 45 -75 56 -41
26 -163 142 -262 249 -98 105 -103 125 -40 157 23 12 50 28 60 37 21 19 22 67
2 115 -19 46 -19 72 1 91 17 17 26 15 62 -18z"/>
</g>
</svg>
