<?xml version="1.0" standalone="no"?>
<!DOCTYPE svg PUBLIC "-//W3C//DTD SVG 20010904//EN"
 "http://www.w3.org/TR/2001/REC-SVG-20010904/DTD/svg10.dtd">
<svg version="1.0" xmlns="http://www.w3.org/2000/svg"
 width="672.000000pt" height="393.000000pt" viewBox="0 0 672.000000 393.000000"
 preserveAspectRatio="xMidYMid meet">
<metadata>
Created by potrace 1.16, written by Peter Selinger 2001-2019
</metadata>
<g transform="translate(0.000000,393.000000) scale(0.100000,-0.100000)"
fill="#000000" stroke="none">
<path d="M0 3880 c0 -36 4 -50 14 -50 8 0 42 -21 76 -47 108 -83 123 -93 149
-100 14 -3 47 -29 72 -57 32 -36 70 -63 125 -90 43 -21 99 -55 124 -76 48 -39
120 -80 143 -80 7 0 27 -17 44 -37 21 -26 63 -55 137 -92 73 -37 115 -65 135
-90 19 -23 57 -50 107 -75 44 -21 99 -55 124 -76 48 -40 120 -80 143 -80 8 0
34 -15 57 -32 97 -73 153 -110 211 -140 34 -17 78 -45 98 -63 20 -18 50 -36
68 -39 17 -4 51 -24 75 -45 45 -40 98 -71 120 -71 7 0 33 -14 58 -30 25 -16
52 -30 60 -30 9 0 53 -25 98 -55 91 -61 144 -89 182 -98 14 -4 43 -22 65 -40
41 -35 115 -77 136 -77 26 0 182 -82 218 -115 21 -19 44 -35 51 -35 19 0 199
-88 234 -115 73 -55 244 -84 293 -50 11 8 35 40 52 70 18 31 38 58 46 61 16 6
132 -49 215 -101 30 -20 69 -39 87 -44 17 -5 65 -32 107 -60 84 -56 148 -91
168 -91 8 0 52 -25 98 -57 47 -31 125 -76 174 -101 49 -25 106 -60 125 -77 20
-18 50 -36 67 -39 17 -4 55 -27 84 -52 28 -24 55 -44 60 -44 4 0 31 -16 60
-36 29 -20 68 -40 85 -45 18 -5 61 -34 94 -64 34 -30 69 -55 77 -55 25 0 83
-30 164 -86 83 -57 152 -94 173 -94 8 0 22 -9 33 -21 10 -11 48 -42 84 -69 40
-30 75 -65 89 -92 13 -24 45 -63 70 -88 25 -25 64 -68 86 -95 63 -79 159 -171
196 -190 19 -9 55 -38 80 -63 68 -69 158 -144 209 -174 25 -14 54 -36 65 -48
22 -24 86 -60 108 -60 8 0 39 -18 71 -40 l57 -40 84 0 84 0 26 25 25 26 0 83
0 84 -54 41 c-30 23 -62 53 -70 67 -9 13 -34 33 -57 44 -22 12 -57 36 -77 54
-20 18 -53 41 -72 51 -19 9 -55 34 -80 54 -25 20 -63 49 -86 64 -22 15 -63 47
-91 71 -28 23 -66 48 -84 55 -44 16 -46 18 -112 71 -31 25 -90 63 -133 84 -58
30 -82 50 -102 80 -14 23 -40 64 -58 91 -50 75 -80 153 -67 174 17 26 36 24
98 -14 33 -19 76 -40 97 -46 22 -6 45 -21 55 -37 33 -50 167 -172 189 -172 12
0 33 9 48 21 55 43 26 107 -106 234 -60 59 -109 97 -138 109 -48 19 -75 33
-155 77 -60 34 -85 35 -170 8 -48 -16 -75 -32 -100 -60 l-35 -39 0 -44 c0 -41
-18 -76 -39 -76 -3 0 -45 25 -91 56 -47 32 -115 72 -152 91 -37 18 -106 60
-155 93 -48 33 -95 60 -103 60 -18 0 -139 78 -187 121 -19 16 -42 29 -51 29
-10 0 -56 25 -102 56 -47 32 -119 74 -160 95 -41 21 -97 56 -124 78 -26 23
-55 41 -64 41 -8 0 -36 13 -61 29 -25 16 -57 31 -71 34 -14 4 -47 24 -74 47
-26 22 -55 40 -64 40 -20 0 -201 90 -272 136 -30 19 -67 38 -82 41 -14 3 -39
18 -54 34 -15 16 -34 29 -42 29 -7 0 -46 20 -85 44 -40 24 -83 46 -96 51 -13
4 -44 29 -70 55 -63 66 -152 110 -223 110 -59 0 -72 -8 -102 -68 l-17 -33 13
-36 c17 -47 61 -83 101 -83 20 0 41 -9 57 -24 52 -51 116 -103 135 -111 14 -5
16 -9 7 -12 -8 -3 -19 0 -25 6 -6 6 -24 11 -39 11 -33 0 -151 53 -191 86 -28
23 -111 64 -130 64 -24 0 -181 84 -216 115 -24 22 -49 35 -65 35 -26 0 -98 38
-216 114 -30 19 -100 58 -155 86 -55 28 -125 67 -155 86 -30 19 -66 37 -80 41
-14 3 -38 18 -55 33 -16 15 -46 36 -65 45 -19 10 -48 28 -65 40 -16 13 -52 34
-80 48 -27 14 -72 44 -99 66 -26 23 -56 41 -65 41 -9 0 -29 9 -46 21 -16 11
-52 32 -80 46 -27 14 -72 43 -98 65 -26 22 -63 44 -81 49 -19 5 -62 34 -95 64
-34 30 -69 55 -77 55 -20 0 -161 85 -199 120 -33 30 -86 60 -108 60 -7 0 -24
12 -38 26 -13 14 -42 35 -64 46 -22 12 -54 32 -72 45 -17 13 -47 28 -66 34
-19 5 -63 34 -96 64 -34 30 -70 55 -80 55 -10 0 -43 18 -75 40 l-57 40 -49 0
-50 0 0 -50z m6094 -3336 c39 -25 85 -57 103 -72 18 -15 60 -47 93 -72 65 -48
167 -124 213 -161 56 -43 69 -89 30 -103 -17 -7 -85 33 -168 96 -78 60 -170
129 -237 178 -74 54 -148 123 -148 138 0 12 28 42 38 42 4 0 38 -21 76 -46z"/>
</g>
</svg>
