<?xml version="1.0" standalone="no"?>
<!DOCTYPE svg PUBLIC "-//W3C//DTD SVG 20010904//EN"
 "http://www.w3.org/TR/2001/REC-SVG-20010904/DTD/svg10.dtd">
<svg version="1.0" xmlns="http://www.w3.org/2000/svg"
 width="558.000000pt" height="198.000000pt" viewBox="0 0 558.000000 198.000000"
 preserveAspectRatio="xMidYMid meet">
<metadata>
Created by potrace 1.16, written by Peter Selinger 2001-2019
</metadata>
<g transform="translate(0.000000,198.000000) scale(0.100000,-0.100000)"
fill="#000000" stroke="none">
<path d="M71 1962 c-18 -33 -51 -141 -51 -166 0 -14 -5 -28 -10 -31 -6 -4 -10
-83 -10 -205 0 -122 4 -201 10 -205 6 -3 10 -24 10 -46 0 -22 9 -67 21 -101
25 -76 102 -230 123 -247 9 -7 39 -44 67 -82 35 -48 72 -83 122 -116 40 -26
95 -69 123 -94 32 -28 65 -49 86 -53 20 -4 55 -24 79 -45 55 -47 68 -54 163
-85 41 -14 93 -37 113 -51 21 -14 45 -25 53 -25 9 0 54 -18 101 -41 46 -22
122 -53 169 -68 47 -16 118 -45 157 -65 48 -24 86 -36 113 -36 22 0 57 -7 77
-15 19 -8 52 -15 71 -15 20 0 77 -13 127 -29 103 -33 160 -49 227 -61 26 -5
56 -13 67 -19 11 -6 52 -11 91 -11 40 0 86 -6 107 -15 26 -11 75 -15 184 -15
88 0 150 -4 154 -10 8 -14 1062 -14 1070 0 4 6 81 10 199 10 149 0 202 3 229
15 24 10 70 15 135 15 66 0 112 5 135 15 20 8 52 15 72 15 20 0 95 20 168 45
162 55 206 57 295 15 35 -17 75 -30 88 -30 14 0 41 -7 61 -15 19 -8 60 -15 90
-15 29 0 70 -7 90 -15 47 -20 72 -19 146 6 69 23 84 30 144 68 l42 26 1 91 0
92 -25 6 c-13 3 -49 26 -79 50 -104 85 -193 116 -338 116 l-102 0 -97 -65
c-123 -83 -147 -92 -192 -70 -19 9 -47 29 -62 45 -16 17 -36 30 -45 30 -38 0
-161 72 -235 138 -162 144 -255 242 -255 270 0 42 25 52 124 52 103 0 170 -19
254 -70 27 -18 67 -38 88 -45 21 -7 42 -20 46 -29 5 -9 12 -24 17 -34 4 -9 22
-25 40 -36 l31 -18 25 16 c14 9 27 27 31 39 5 24 -29 141 -49 165 -6 8 -59 38
-119 68 -80 40 -119 54 -150 54 -31 0 -56 9 -88 30 l-45 30 -57 0 c-32 0 -76
7 -98 16 l-40 16 -68 -21 c-96 -31 -143 -61 -170 -106 -23 -41 -24 -46 -4
-155 11 -61 88 -171 128 -185 17 -5 56 -37 86 -70 31 -34 88 -81 128 -105 39
-25 90 -60 113 -78 23 -18 61 -45 84 -60 24 -15 42 -33 40 -40 -1 -7 -36 -28
-77 -47 l-75 -35 -86 0 c-54 0 -100 -6 -122 -15 -24 -10 -70 -15 -137 -15 -62
0 -110 -5 -123 -12 -14 -8 -96 -15 -232 -19 -115 -4 -223 -12 -238 -18 -38
-15 -535 -15 -574 0 -15 6 -91 13 -168 16 -83 3 -154 11 -174 19 -19 8 -69 14
-118 14 -52 0 -97 6 -120 15 -22 9 -67 15 -120 15 -52 0 -97 6 -120 15 -19 8
-45 15 -56 15 -11 0 -82 20 -156 44 -148 48 -201 63 -273 76 -26 5 -56 13 -67
19 -11 6 -33 11 -49 11 -15 0 -70 20 -121 45 -51 25 -102 45 -114 45 -42 0
-165 49 -325 129 -89 45 -168 81 -175 81 -7 0 -26 13 -41 29 -15 16 -41 32
-58 35 -21 4 -73 48 -175 148 -155 153 -199 210 -208 267 -3 20 -19 77 -35
126 -17 50 -30 107 -30 127 0 19 -7 52 -15 71 -8 20 -15 52 -15 72 0 20 7 52
15 72 8 19 15 47 15 62 0 14 14 55 30 89 34 71 37 109 15 152 l-16 30 -39 0
c-27 0 -42 -5 -49 -18z m5207 -1628 c41 -16 102 -71 102 -90 0 -18 -25 -24
-109 -24 l-78 0 -62 31 c-72 36 -84 54 -52 81 30 23 145 25 199 2z"/>
</g>
</svg>
