<?xml version="1.0" encoding="UTF-8" standalone="no"?>
<!-- Created with Inkscape (http://www.inkscape.org/) -->

<svg
   version="1.1"
   id="svg1"
   width="805.12646"
   height="62.306892"
   viewBox="0 0 805.12646 62.306892"
   xmlns="http://www.w3.org/2000/svg"
   xmlns:svg="http://www.w3.org/2000/svg">
  <defs
     id="defs1" />
  <g
     id="g1"
     transform="translate(-0.55197519,-0.36322963)">
    <path
       style="fill:#000000"
       d="m 464,61.532679 c -19.28895,-3.144663 -60.06159,-12.9537 -65.3007,-15.709971 -1.03802,-0.546099 -32.38028,-1.323677 -74,-1.835886 C 257.39745,43.158548 217.60882,41.708828 159.29694,37.960299 150.38526,37.387419 117.53526,36.50295 86.296942,35.994813 36.248049,35.180693 9.5763338,34.058844 2.2725634,32.46063 0.09394046,31.983903 0.08114641,31.897688 1.6887529,28.526502 c 1.8636956,-3.90821 5.9684902,-5.833173 10.7427691,-5.037873 10.303438,1.716349 33.697203,2.695791 83.788207,3.508016 31.195851,0.505841 64.270851,1.400455 73.500001,1.988032 60.26995,3.837107 95.81326,5.192693 150.03027,5.722004 32.0375,0.312777 58.25,0.252144 58.25,-0.13474 0,-0.386883 -0.43687,-1.519719 -0.97082,-2.517413 -0.72468,-1.354081 -0.28099,-3.175538 1.75,-7.184259 2.40732,-4.751499 3.35454,-5.625977 8.22082,-7.589547 10.6318,-4.289987 22.39373,-2.355244 28.29137,4.653705 3.34078,3.970285 3.35204,4.862354 0.1414,11.198251 -1.41198,2.786404 -2.42448,5.179754 -2.25,5.318554 0.99748,0.793512 25.69732,6.967359 39.81723,9.952515 25.07514,5.30125 31.61583,5.910229 56.97044,5.304297 23.65354,-0.565279 32.30191,-1.84062 36.17752,-5.334955 3.15826,-2.847556 2.09357,-11.727373 -2.26921,-18.92593 C 542.06302,26.451221 540.22979,24 539.80489,24 c -0.42489,0 -0.0176,-1.583059 0.90504,-3.517908 2.42851,-5.092633 7.55525,-6.515441 13.4775,-3.740368 17.13256,8.02805 65.46232,16.894671 115.81257,21.24708 23.69906,2.048609 86.80733,0.806027 105,-2.067417 8.03308,-1.268787 16.26932,-6.321291 18.73573,-11.49339 1.50293,-3.151676 1.52534,-3.938363 0.21919,-7.693162 -1.04021,-2.990317 -2.4842,-4.76003 -5.06594,-6.208663 L 785.27796,8.5 786.82825,5.2334343 c 2.11364,-4.45356219 7.47612,-6.16163781 11.99997,-3.8222663 3.80597,1.9681437 6.07957,5.2236927 6.79735,9.733061 0.7302,4.587448 -6.25413,18.570168 -11.41923,22.861442 -5.49184,4.562742 -14.79181,8.826172 -22.70634,10.409383 -16.29967,3.26056 -85.44406,4.821283 -112,2.528057 -29.87497,-2.57984 -72.45657,-8.916444 -92.75,-13.802206 l -7.75,-1.865858 -0.01,3.612476 c -0.0111,4.098899 -4.03833,13.447031 -7.30642,16.959795 -3.07423,3.304402 -8.60794,5.941629 -17.51473,8.347082 -6.67777,1.803461 -11.15912,2.113377 -34.66908,2.397605 -19.62599,0.237273 -29.32145,-0.05204 -35.5,-1.059326 z M 407,34.076725 c 0,-0.507801 -1.1378,-2.27547 -2.52844,-3.928153 -2.90657,-3.454262 -9.91279,-6.462075 -13.92712,-5.979 L 387.7986,24.5 l 2.1205,2.682904 C 393.50677,31.722092 407,37.167937 407,34.076725 Z"
       id="path1" />
  </g>
</svg>
