<?xml version="1.0" standalone="no"?>
<!DOCTYPE svg PUBLIC "-//W3C//DTD SVG 20010904//EN"
 "http://www.w3.org/TR/2001/REC-SVG-20010904/DTD/svg10.dtd">
<svg version="1.0" xmlns="http://www.w3.org/2000/svg"
 width="678.000000pt" height="129.000000pt" viewBox="0 0 678.000000 129.000000"
 preserveAspectRatio="xMidYMid meet">
<metadata>
Created by potrace 1.16, written by Peter Selinger 2001-2019
</metadata>
<g transform="translate(0.000000,129.000000) scale(0.100000,-0.100000)"
fill="#000000" stroke="none">
<path d="M5495 1280 c-3 -5 -14 -10 -23 -10 -10 0 -39 -22 -65 -48 l-47 -48 0
-57 c0 -72 33 -173 68 -210 15 -16 44 -38 65 -48 58 -30 80 -55 67 -79 -7 -13
-21 -20 -39 -20 -16 0 -45 -7 -64 -15 -21 -8 -67 -15 -105 -15 -39 0 -85 -7
-105 -15 -20 -8 -61 -15 -90 -15 -30 0 -71 -7 -90 -15 -20 -8 -61 -15 -90 -15
-30 0 -71 -7 -90 -15 -26 -11 -72 -15 -158 -15 l-122 0 -43 -44 -44 -43 0 -37
c0 -39 -1 -41 -105 -129 -81 -69 -85 -71 -144 -78 -58 -7 -113 -20 -191 -45
-25 -8 -61 -14 -81 -14 -20 0 -53 -7 -72 -15 -20 -8 -54 -15 -75 -15 -22 0
-56 -7 -75 -15 -21 -8 -67 -15 -105 -15 -39 0 -85 -7 -105 -15 l-36 -15 -591
0 -591 0 -36 15 c-20 8 -66 15 -105 15 -38 0 -84 7 -105 15 -19 8 -60 15 -90
15 -29 0 -70 7 -90 15 -19 8 -60 15 -90 15 -29 0 -70 7 -90 15 -19 8 -65 15
-102 15 -36 0 -86 6 -111 14 -56 18 -123 35 -175 45 -55 11 -153 45 -203 70
-23 11 -52 21 -64 21 -13 0 -43 6 -68 14 -69 22 -131 37 -172 43 -22 3 -47 16
-64 34 -15 16 -35 29 -43 29 -9 0 -45 14 -79 30 -35 17 -70 30 -77 30 -19 0
-371 176 -409 204 -49 38 -113 66 -146 66 l-30 0 0 -55 c0 -32 4 -55 11 -55
11 0 104 -53 199 -113 68 -43 175 -97 193 -97 7 0 26 -14 42 -30 16 -17 36
-30 44 -30 9 0 41 -12 71 -26 30 -14 90 -37 134 -51 43 -14 110 -41 148 -59
88 -43 298 -111 413 -133 22 -4 76 -19 120 -33 124 -40 164 -49 245 -57 41 -4
85 -13 97 -19 12 -7 47 -12 78 -12 30 0 72 -7 92 -15 20 -8 66 -15 105 -15 38
0 84 -7 105 -15 23 -10 69 -15 135 -15 65 0 111 -5 135 -15 24 -10 70 -15 139
-15 58 0 106 -4 109 -10 9 -15 218 -13 233 2 10 10 17 10 32 0 24 -15 286 -17
295 -2 4 6 61 10 139 10 96 0 144 4 169 15 21 8 67 15 105 15 39 0 85 7 105
15 25 10 72 15 150 15 79 0 126 5 150 15 20 8 61 15 90 15 30 0 71 7 90 15 20
8 54 15 76 15 23 0 66 12 103 30 34 16 69 30 76 30 7 0 57 23 112 50 l100 50
26 43 c43 69 151 157 194 157 15 0 44 7 63 15 20 8 54 15 75 15 22 0 56 7 75
15 26 11 73 15 165 15 93 0 140 4 165 15 20 8 60 15 88 15 28 0 72 6 98 14 25
8 69 20 96 26 l50 11 78 -26 c43 -14 92 -25 109 -25 42 0 144 -35 241 -82 50
-25 92 -38 118 -38 22 0 56 -7 76 -15 25 -11 73 -15 170 -15 l134 0 59 30 60
30 0 115 0 115 -50 25 c-28 14 -68 41 -89 60 l-38 35 -42 0 c-23 0 -58 7 -78
15 -51 22 -405 22 -456 0 -51 -21 -191 -20 -237 3 -72 35 -182 116 -205 151
-31 45 -32 85 -4 105 18 12 43 14 123 10 103 -6 177 -25 274 -69 68 -32 87
-31 123 4 33 33 37 70 12 93 -43 38 -216 108 -267 108 -14 0 -28 5 -31 10 -4
6 -68 10 -160 10 -92 0 -156 -4 -160 -10z m980 -595 c73 -26 102 -46 91 -64
-11 -17 -189 -14 -233 4 -19 8 -48 15 -64 15 -33 0 -86 41 -75 58 5 8 43 12
110 12 l103 0 68 -25z"/>
</g>
</svg>
