<?xml version="1.0" standalone="no"?>
<!DOCTYPE svg PUBLIC "-//W3C//DTD SVG 20010904//EN"
 "http://www.w3.org/TR/2001/REC-SVG-20010904/DTD/svg10.dtd">
<svg version="1.0" xmlns="http://www.w3.org/2000/svg"
 width="1404.000000pt" height="924.000000pt" viewBox="0 0 1404.000000 924.000000"
 preserveAspectRatio="xMidYMid meet">
<metadata>
Created by potrace 1.16, written by Peter Selinger 2001-2019
</metadata>
<g transform="translate(0.000000,924.000000) scale(0.100000,-0.100000)"
fill="#000000" stroke="none">
<path d="M1897 8332 c-13 -14 -17 -38 -17 -95 l0 -76 -19 -11 c-11 -5 -44 -10
-74 -10 -72 0 -87 -17 -87 -98 l0 -61 -19 -11 c-11 -5 -51 -10 -89 -10 -90 0
-102 -12 -102 -102 0 -86 13 -98 104 -98 37 0 76 -5 87 -10 l19 -11 0 -168 0
-168 18 -16 c12 -11 36 -17 71 -17 29 0 61 -5 72 -10 l19 -11 0 -258 0 -258
18 -16 c12 -11 36 -17 71 -17 29 0 61 -5 72 -10 l19 -11 0 -78 0 -78 18 -16
c13 -12 37 -17 86 -17 37 0 76 -5 87 -10 l19 -11 0 -63 c0 -80 15 -96 89 -96
29 0 61 -5 72 -10 l19 -11 0 -168 0 -168 18 -16 19 -17 157 0 c89 0 166 -4
177 -10 l19 -11 0 -63 c0 -48 4 -67 18 -79 l19 -17 170 0 170 0 16 18 17 19 0
170 0 170 -18 16 c-13 12 -37 17 -86 17 -37 0 -76 5 -87 10 l-19 11 0 63 c0
80 -15 96 -89 96 -29 0 -61 5 -72 10 l-19 11 0 168 0 168 -18 16 c-13 12 -37
17 -86 17 -37 0 -76 5 -87 10 l-19 11 0 168 0 168 -18 16 c-12 11 -36 17 -71
17 -29 0 -61 5 -72 10 l-19 11 0 254 0 254 19 11 c11 5 84 10 166 10 82 0 155
-5 166 -10 l19 -11 0 -78 0 -78 18 -16 19 -17 247 0 c151 0 255 -4 267 -10
l19 -11 0 -63 c0 -80 15 -96 89 -96 29 0 61 -5 72 -10 l19 -11 0 -63 c0 -48 4
-67 18 -79 l19 -17 157 0 c89 0 166 -4 177 -10 l19 -11 0 -78 0 -78 18 -16
c12 -11 36 -17 71 -17 29 0 61 -5 72 -10 l19 -11 0 -63 c0 -84 13 -96 104 -96
37 0 76 -5 87 -10 l19 -11 0 -78 0 -78 18 -16 c12 -11 36 -17 71 -17 29 0 61
-5 72 -10 l19 -11 0 -153 0 -153 18 -16 c12 -11 36 -17 71 -17 29 0 61 -5 72
-10 l19 -11 0 -78 0 -78 18 -16 19 -17 170 0 170 0 16 18 c13 14 17 38 17 95
l0 76 19 11 c11 5 44 10 74 10 72 0 87 17 87 98 l0 61 19 11 c27 14 695 14
722 0 l19 -11 0 -63 c0 -48 4 -67 18 -79 l19 -17 247 0 c151 0 255 -4 267 -10
l19 -11 0 -78 0 -78 18 -16 19 -17 157 0 c89 0 166 -4 177 -10 l19 -11 0 -63
c0 -48 4 -67 18 -79 l19 -17 142 0 c79 0 151 -5 162 -10 l19 -11 0 -63 c0 -48
4 -67 18 -79 l19 -17 247 0 c151 0 255 -4 267 -10 l19 -11 0 -78 0 -78 18 -16
19 -17 157 0 c89 0 166 -4 177 -10 l19 -11 0 -63 c0 -80 15 -96 89 -96 29 0
61 -5 72 -10 l19 -11 0 -63 c0 -48 4 -67 18 -79 l19 -17 157 0 c89 0 166 -4
177 -10 l19 -11 0 -78 0 -78 18 -16 19 -17 157 0 c89 0 166 -4 177 -10 l19
-11 0 -63 c0 -80 15 -96 89 -96 29 0 61 -5 72 -10 l19 -11 0 -63 c0 -84 13
-96 104 -96 37 0 76 -5 87 -10 l19 -11 0 -78 0 -78 18 -16 c12 -11 36 -17 71
-17 29 0 61 -5 72 -10 l19 -11 0 -59 0 -59 -19 -11 c-11 -6 -88 -10 -179 -10
l-159 0 -16 -18 -17 -19 0 -166 0 -166 -19 -11 c-11 -5 -44 -10 -74 -10 -40 0
-58 -5 -70 -18 l-17 -19 0 -170 0 -170 18 -16 c12 -11 36 -17 71 -17 29 0 61
-5 72 -10 l19 -11 0 -153 0 -153 18 -16 c13 -12 37 -17 86 -17 37 0 76 -5 87
-10 l19 -11 0 -78 0 -78 18 -16 c12 -11 36 -17 71 -17 29 0 61 -5 72 -10 l19
-11 0 -63 c0 -80 15 -96 89 -96 29 0 61 -5 72 -10 l19 -11 0 -63 c0 -84 13
-96 104 -96 37 0 76 -5 87 -10 l19 -11 0 -78 0 -78 18 -16 c12 -11 36 -17 71
-17 29 0 61 -5 72 -10 l19 -11 0 -63 c0 -80 15 -96 89 -96 29 0 61 -5 72 -10
l19 -11 0 -63 c0 -48 4 -67 18 -79 l19 -17 157 0 c89 0 166 -4 177 -10 l19
-11 0 -78 0 -78 18 -16 19 -17 157 0 c89 0 166 -4 177 -10 l19 -11 0 -63 c0
-48 4 -67 18 -79 l19 -17 440 0 440 0 16 18 17 19 0 455 0 455 -18 16 c-12 11
-36 17 -71 17 -29 0 -61 5 -72 10 l-19 11 0 63 c0 80 -15 96 -89 96 -29 0 -61
5 -72 10 l-19 11 0 168 0 168 -18 16 c-13 12 -37 17 -86 17 -37 0 -76 5 -87
10 l-19 11 0 63 c0 80 -15 96 -89 96 -29 0 -61 5 -72 10 l-19 11 0 63 c0 80
-15 96 -89 96 -29 0 -61 5 -72 10 l-19 11 0 168 0 168 -18 16 c-13 12 -37 17
-86 17 -37 0 -76 5 -87 10 l-19 11 0 78 0 78 -18 16 c-12 11 -36 17 -71 17
-29 0 -61 5 -72 10 l-19 11 0 63 c0 80 -15 96 -89 96 -29 0 -61 5 -72 10 l-19
11 0 63 c0 84 -13 96 -104 96 -37 0 -76 5 -87 10 l-19 11 0 78 0 78 -18 16
c-12 11 -36 17 -71 17 -29 0 -61 5 -72 10 l-19 11 0 63 c0 48 -4 67 -18 79
l-19 17 -157 0 c-89 0 -166 4 -177 10 l-19 11 0 63 c0 80 -15 96 -89 96 -29 0
-61 5 -72 10 l-19 11 0 78 0 78 -18 16 c-12 11 -36 17 -71 17 -29 0 -61 5 -72
10 l-19 11 0 63 c0 48 -4 67 -18 79 l-19 17 -157 0 c-89 0 -166 4 -177 10
l-19 11 0 63 c0 48 -4 67 -18 79 l-19 17 -157 0 c-89 0 -166 4 -177 10 l-19
11 0 78 0 78 -18 16 -19 17 -157 0 c-89 0 -166 4 -177 10 l-19 11 0 63 c0 80
-15 96 -89 96 -29 0 -61 5 -72 10 l-19 11 0 63 c0 48 -4 67 -18 79 l-19 17
-157 0 c-89 0 -166 4 -177 10 l-19 11 0 78 0 78 -18 16 -19 17 -247 0 c-151 0
-255 4 -267 10 l-19 11 0 63 c0 48 -4 67 -18 79 l-19 17 -142 0 c-79 0 -151 5
-162 10 l-19 11 0 63 c0 48 -4 67 -18 79 l-19 17 -247 0 c-151 0 -255 4 -267
10 l-19 11 0 78 0 78 -18 16 -19 17 -262 0 c-162 0 -270 4 -282 10 l-19 11 0
63 c0 48 -4 67 -18 79 l-19 17 -532 0 c-348 0 -539 4 -552 10 l-19 11 0 78 0
78 -18 16 c-12 11 -36 17 -71 17 -29 0 -61 5 -72 10 l-19 11 0 63 c0 48 -4 67
-18 79 l-19 17 -157 0 c-89 0 -166 4 -177 10 l-19 11 0 63 c0 80 -15 96 -89
96 -29 0 -61 5 -72 10 l-19 11 0 78 0 78 -18 16 -19 17 -157 0 c-89 0 -166 4
-177 10 l-19 11 0 63 c0 48 -4 67 -18 79 l-19 17 -142 0 c-79 0 -151 5 -162
10 l-19 11 0 63 c0 48 -4 67 -18 79 l-19 17 -157 0 c-89 0 -166 4 -177 10
l-19 11 0 78 0 78 -18 16 -19 17 -455 0 -455 0 -16 -18z m8724 -4602 l19 -11
0 -61 c0 -85 13 -98 102 -98 38 0 78 -5 89 -10 l19 -11 0 -76 c0 -98 12 -113
87 -113 30 0 63 -5 74 -10 l19 -11 0 -61 c0 -81 15 -98 87 -98 30 0 63 -5 74
-10 l19 -11 0 -61 c0 -85 13 -98 102 -98 38 0 78 -5 89 -10 l19 -11 0 -166 0
-166 17 -19 c12 -13 30 -18 70 -18 30 0 63 -5 74 -10 l19 -11 0 -61 c0 -81 15
-98 87 -98 30 0 63 -5 74 -10 l19 -11 0 -254 0 -254 -19 -11 c-25 -13 -97 -13
-122 0 l-19 11 0 61 c0 43 -5 67 -17 80 l-16 18 -159 0 c-91 0 -168 4 -179 10
l-19 11 0 61 c0 81 -15 98 -87 98 -30 0 -63 5 -74 10 l-19 11 0 76 c0 98 -12
113 -87 113 -30 0 -63 5 -74 10 l-19 11 0 61 c0 43 -5 67 -17 80 l-16 18 -159
0 c-91 0 -168 4 -179 10 l-19 11 0 166 0 166 -17 19 c-12 13 -30 18 -70 18
-30 0 -63 5 -74 10 l-19 11 0 61 c0 85 -13 98 -102 98 -38 0 -78 5 -89 10
l-19 11 0 254 0 254 18 10 c23 14 487 14 513 1z"/>
</g>
</svg>
