<?xml version="1.0" standalone="no"?>
<!DOCTYPE svg PUBLIC "-//W3C//DTD SVG 20010904//EN"
 "http://www.w3.org/TR/2001/REC-SVG-20010904/DTD/svg10.dtd">
<svg version="1.0" xmlns="http://www.w3.org/2000/svg"
 width="960.000000pt" height="291.000000pt" viewBox="0 0 960.000000 291.000000"
 preserveAspectRatio="xMidYMid meet">
<metadata>
Created by potrace 1.16, written by Peter Selinger 2001-2019
</metadata>
<g transform="translate(0.000000,291.000000) scale(0.100000,-0.100000)"
fill="#000000" stroke="none">
<path d="M3708 2866 c-17 -26 -28 -58 -28 -78 0 -57 29 -82 127 -113 l88 -28
53 -54 c28 -30 52 -62 52 -71 0 -10 -15 -32 -32 -48 -38 -35 -129 -94 -146
-94 -6 0 -40 -13 -75 -30 -36 -16 -76 -30 -89 -30 -12 0 -61 -14 -108 -30
l-84 -30 -144 0 c-88 0 -152 -4 -165 -11 -52 -28 -197 -39 -619 -45 l-337 -5
-37 16 c-23 9 -67 15 -121 15 -52 0 -97 6 -120 15 -24 10 -71 15 -150 15 -78
0 -125 5 -150 15 -19 8 -53 15 -75 15 -22 0 -64 11 -94 25 -84 38 -170 65
-209 65 -20 0 -52 7 -72 15 -19 8 -45 15 -56 15 -33 0 -236 71 -320 112 -43
21 -90 38 -105 38 -15 0 -40 9 -57 21 -43 29 -242 129 -258 129 -7 0 -26 14
-42 30 -16 17 -37 30 -46 30 -10 0 -37 16 -61 35 -70 56 -132 85 -183 85 l-45
0 0 -29 c0 -40 124 -172 194 -208 28 -14 65 -36 81 -48 35 -27 169 -95 186
-95 17 0 80 -31 114 -56 50 -36 173 -94 201 -94 14 0 55 -13 91 -30 35 -16 76
-30 91 -30 15 0 47 -14 72 -30 25 -16 58 -30 73 -30 15 0 44 -7 64 -15 19 -8
53 -15 75 -15 21 0 55 -7 75 -15 19 -8 45 -15 56 -15 12 0 62 -13 112 -29 122
-39 170 -51 240 -60 34 -5 70 -13 82 -19 14 -8 88 -12 213 -12 147 0 199 -3
227 -15 51 -22 286 -21 338 1 l38 16 41 -16 c53 -20 172 -21 219 -1 27 11 75
15 180 15 106 0 154 4 180 15 20 8 54 15 75 15 22 0 56 7 75 15 23 9 68 15
121 15 l85 0 53 24 c81 38 169 66 205 66 18 0 62 10 99 22 49 16 72 30 92 56
14 19 50 48 80 64 30 18 63 46 76 67 13 20 33 44 44 54 l20 18 49 -6 c26 -4
68 -13 93 -20 66 -20 129 -35 182 -45 26 -5 56 -13 67 -19 11 -6 38 -11 61
-11 22 0 57 -7 77 -15 26 -11 76 -15 195 -15 118 0 168 -4 195 -15 25 -10 71
-15 153 -15 82 0 128 5 153 15 20 8 62 15 94 15 l57 0 67 45 c37 25 92 72 122
105 30 33 57 60 61 60 35 0 260 -135 301 -180 10 -11 35 -25 56 -30 21 -6 61
-32 91 -59 29 -26 73 -58 98 -71 60 -31 141 -93 168 -129 14 -19 37 -34 62
-41 26 -7 49 -23 66 -46 15 -20 53 -48 85 -64 31 -16 77 -46 101 -67 25 -21
68 -56 97 -78 29 -22 76 -58 104 -80 29 -22 85 -62 125 -89 43 -28 83 -64 98
-87 13 -21 42 -48 64 -59 23 -12 58 -36 78 -54 20 -18 65 -55 100 -82 132
-102 150 -118 257 -223 65 -64 133 -120 163 -136 29 -15 61 -39 70 -53 9 -14
42 -52 73 -84 l56 -58 51 0 c35 0 70 9 115 30 84 39 129 39 187 0 25 -16 52
-30 60 -30 8 0 35 -14 60 -30 25 -16 58 -30 74 -30 59 0 216 -92 216 -126 0
-6 -15 -23 -33 -36 -22 -17 -36 -40 -44 -70 l-12 -45 14 -46 c16 -53 70 -127
177 -241 61 -64 94 -90 152 -119 41 -20 82 -37 90 -37 8 0 18 -5 21 -10 3 -6
46 -10 95 -10 l88 0 41 27 41 27 0 113 0 114 -57 75 c-32 41 -73 96 -90 122
-18 26 -39 56 -46 67 -8 11 -53 40 -101 64 -56 28 -96 55 -113 78 -26 33 -88
73 -116 73 -7 0 -26 14 -42 30 -16 17 -36 30 -44 30 -9 0 -58 20 -109 45 -52
25 -105 45 -119 45 -14 0 -65 18 -112 41 -132 62 -190 79 -277 79 -105 0 -196
30 -231 77 -15 19 -53 48 -86 65 -39 19 -83 54 -126 100 -36 38 -78 76 -92 84
-15 7 -61 45 -102 82 -50 47 -85 71 -108 76 -46 9 -80 37 -93 77 -8 22 -28 45
-66 71 -30 21 -75 55 -100 77 -25 21 -64 48 -85 59 -22 11 -68 44 -102 73 -34
30 -90 74 -124 99 -33 25 -84 63 -112 85 -29 22 -73 53 -99 68 -26 15 -56 41
-68 57 -21 29 -105 80 -132 80 -7 0 -32 23 -56 50 -42 49 -108 90 -164 104
-15 3 -61 38 -102 76 -42 39 -84 70 -95 70 -11 0 -39 16 -63 35 -24 19 -69 48
-100 65 -34 18 -106 76 -174 140 l-115 110 -46 0 c-55 0 -123 -47 -123 -85 0
-13 19 -62 42 -110 l42 -88 -15 -26 c-9 -16 -43 -40 -87 -62 l-72 -37 -98 -6
c-53 -4 -111 -12 -129 -17 -24 -8 -40 -6 -68 6 -25 10 -70 15 -137 15 -65 0
-111 5 -135 15 -19 8 -60 15 -90 15 -29 0 -70 7 -90 15 -20 8 -66 15 -105 15
l-70 0 -65 30 c-35 17 -70 30 -76 30 -7 0 -32 14 -57 30 -25 16 -58 30 -73 30
-15 0 -44 7 -64 15 -19 8 -47 15 -60 15 -29 0 -86 25 -128 56 -16 12 -68 41
-115 65 -47 23 -97 51 -112 61 -16 11 -43 18 -70 18 l-43 -1 -27 -43z m5602
-2479 c89 -44 160 -195 114 -241 -23 -24 -31 -20 -82 32 -26 26 -63 54 -82 61
-56 20 -64 26 -71 54 -4 14 -17 40 -29 57 l-22 31 12 14 c19 23 107 19 160 -8z"/>
</g>
</svg>
