<?xml version="1.0" standalone="no"?>
<!DOCTYPE svg PUBLIC "-//W3C//DTD SVG 20010904//EN"
 "http://www.w3.org/TR/2001/REC-SVG-20010904/DTD/svg10.dtd">
<svg version="1.0" xmlns="http://www.w3.org/2000/svg"
 width="588.000000pt" height="93.000000pt" viewBox="0 0 588.000000 93.000000"
 preserveAspectRatio="xMidYMid meet">
<metadata>
Created by potrace 1.16, written by Peter Selinger 2001-2019
</metadata>
<g transform="translate(0.000000,93.000000) scale(0.100000,-0.100000)"
fill="#000000" stroke="none">
<path d="M4320 892 l-40 -39 0 -37 c0 -36 28 -100 69 -161 12 -16 21 -37 21
-46 0 -9 14 -35 31 -59 49 -68 89 -160 89 -207 l0 -42 -27 -19 c-59 -41 -180
-92 -220 -92 -22 0 -57 -7 -76 -15 -20 -8 -54 -15 -75 -15 -22 0 -56 -7 -75
-15 l-36 -15 -456 0 -456 0 -36 15 c-24 10 -71 15 -150 15 -78 0 -125 5 -150
15 -20 8 -66 15 -105 15 -38 0 -84 7 -105 15 -19 8 -60 15 -90 15 -29 0 -70 7
-90 15 -22 9 -67 15 -120 15 -52 0 -97 6 -120 15 -22 9 -67 15 -120 15 -52 0
-97 6 -120 15 -19 8 -52 15 -71 15 -20 0 -77 13 -127 29 -122 39 -170 51 -240
60 -34 5 -70 13 -82 19 -12 7 -39 12 -60 12 -41 0 -245 65 -312 99 -22 12 -52
21 -66 21 -14 0 -42 7 -62 15 -19 8 -47 15 -62 15 -14 0 -55 14 -89 30 -35 17
-69 30 -76 30 -6 0 -28 11 -48 25 -20 14 -76 38 -125 54 -48 15 -148 58 -220
95 -105 52 -142 66 -178 66 l-45 0 0 -40 c0 -27 4 -40 13 -40 8 0 24 -12 38
-26 28 -30 347 -193 438 -224 33 -11 71 -20 83 -20 13 0 43 -14 68 -30 25 -16
52 -30 60 -30 8 0 44 -14 78 -30 35 -17 73 -30 84 -30 12 0 122 -34 245 -75
123 -41 239 -75 258 -75 20 0 52 -7 72 -15 19 -8 60 -15 90 -15 29 0 70 -7 90
-15 19 -8 45 -15 57 -15 12 0 60 -13 106 -30 53 -18 105 -30 138 -30 29 0 69
-7 89 -15 19 -8 60 -15 90 -15 29 0 70 -7 90 -15 25 -11 72 -15 165 -15 92 0
139 -4 165 -15 20 -8 66 -15 105 -15 38 0 84 -7 105 -15 22 -9 68 -15 124 -15
48 0 91 -5 94 -10 8 -13 1027 -14 1041 -1 5 6 65 12 134 14 69 2 145 10 170
17 25 7 91 26 148 44 l103 31 32 40 c17 22 50 61 74 87 l43 47 0 51 c0 56 -42
154 -88 202 -29 31 -64 122 -55 144 4 11 13 14 27 9 11 -3 39 -9 61 -12 24 -3
52 -17 70 -33 17 -15 41 -33 55 -40 77 -39 181 -118 208 -160 17 -25 50 -58
74 -74 23 -15 58 -47 76 -72 40 -54 70 -58 113 -15 37 37 37 67 0 118 -16 22
-38 58 -49 80 -11 22 -28 46 -38 54 -24 19 -87 108 -102 143 -14 32 -2 56 27
56 25 0 220 -68 279 -97 29 -14 66 -43 83 -64 20 -26 43 -42 69 -49 24 -6 47
-21 57 -37 10 -15 46 -56 81 -90 65 -66 82 -95 82 -142 0 -44 27 -61 98 -61
l62 0 0 84 0 85 -35 26 c-19 15 -50 51 -70 80 -19 30 -49 64 -67 77 -17 13
-51 43 -75 68 -25 25 -64 56 -88 70 -23 14 -66 39 -95 55 -29 17 -74 45 -101
62 -44 30 -90 47 -219 83 -25 7 -83 15 -130 17 l-85 3 -39 -22 c-22 -13 -43
-31 -48 -40 -4 -10 -12 -26 -17 -35 -14 -31 -57 -27 -119 12 -65 40 -183 84
-224 85 -15 0 -30 5 -33 10 -3 6 -21 10 -40 10 -26 0 -44 -9 -75 -38z"/>
</g>
</svg>
