<?xml version="1.0" standalone="no"?>
<!DOCTYPE svg PUBLIC "-//W3C//DTD SVG 20010904//EN"
 "http://www.w3.org/TR/2001/REC-SVG-20010904/DTD/svg10.dtd">
<svg version="1.0" xmlns="http://www.w3.org/2000/svg"
 width="516.000000pt" height="285.000000pt" viewBox="0 0 516.000000 285.000000"
 preserveAspectRatio="xMidYMid meet">
<metadata>
Created by potrace 1.16, written by Peter Selinger 2001-2019
</metadata>
<g transform="translate(0.000000,285.000000) scale(0.100000,-0.100000)"
fill="#000000" stroke="none">
<path d="M37 2822 l-37 -25 0 -68 0 -67 28 -17 c15 -10 43 -35 62 -56 l35 -38
198 -66 c109 -36 205 -65 214 -65 10 0 77 -20 150 -45 73 -25 142 -45 153 -45
28 0 102 -34 122 -57 9 -10 31 -49 49 -86 l31 -68 -4 -63 c-2 -42 -10 -71 -24
-90 -26 -36 -111 -66 -185 -66 -60 0 -89 -18 -89 -57 0 -42 76 -83 155 -83 82
0 172 33 223 83 60 58 85 109 93 192 17 170 30 191 104 161 20 -9 61 -16 89
-16 28 0 71 -6 96 -14 60 -19 125 -35 182 -46 26 -5 56 -13 67 -19 11 -6 38
-11 61 -11 22 0 57 -7 77 -15 19 -8 53 -15 75 -15 21 0 55 -7 75 -15 19 -8 60
-15 90 -15 29 0 70 -7 90 -15 19 -8 51 -15 71 -15 20 0 64 -10 100 -22 l64
-21 91 -84 c50 -46 96 -92 103 -101 7 -10 32 -30 56 -46 24 -15 54 -43 68 -63
14 -20 46 -49 72 -65 28 -18 65 -54 89 -89 23 -32 67 -77 98 -101 31 -23 75
-60 98 -82 23 -23 57 -55 75 -73 18 -17 44 -45 57 -63 13 -17 41 -42 62 -56
22 -13 50 -42 64 -64 14 -23 43 -49 67 -61 23 -12 69 -51 102 -87 34 -35 79
-76 100 -90 22 -13 60 -43 85 -66 25 -23 58 -50 74 -59 15 -10 38 -35 52 -57
14 -22 39 -47 57 -56 18 -9 82 -65 143 -123 60 -59 129 -119 152 -135 52 -34
151 -138 185 -192 15 -22 52 -64 84 -92 l58 -52 73 0 73 0 0 49 0 48 -104 107
c-82 84 -106 116 -116 151 l-13 45 16 24 16 24 43 -5 c45 -5 229 -63 285 -89
18 -8 44 -30 58 -48 14 -19 43 -46 65 -61 22 -15 58 -51 80 -81 44 -58 61 -64
110 -39 l30 16 0 53 0 54 -34 22 c-19 11 -48 43 -65 70 -21 33 -44 56 -73 71
-24 12 -63 38 -88 59 -56 46 -91 64 -172 89 -128 38 -155 44 -235 48 l-81 4
-43 -22 c-24 -12 -60 -33 -81 -46 -25 -17 -43 -23 -58 -18 -12 4 -62 45 -110
91 -49 46 -94 84 -99 84 -6 0 -57 44 -113 98 -57 54 -115 106 -131 115 -15 10
-38 35 -52 57 -14 22 -38 46 -54 55 -29 14 -156 123 -215 183 -43 44 -117 118
-151 151 -16 16 -41 43 -53 60 -13 17 -45 45 -71 62 -26 17 -58 47 -71 66 -13
20 -42 46 -63 60 -22 14 -96 82 -166 152 -69 71 -147 140 -172 154 -90 51
-107 112 -60 213 36 77 37 90 14 168 l-18 58 -60 46 c-33 25 -72 57 -87 70
-15 14 -60 36 -98 48 -39 13 -83 32 -98 42 -15 11 -46 29 -69 41 l-42 21 -97
0 -97 0 -43 -44 -44 -43 0 -43 0 -43 43 -41 c24 -22 55 -49 69 -58 14 -9 32
-36 40 -60 8 -24 18 -50 22 -60 11 -24 -26 -32 -69 -13 -24 9 -68 15 -122 15
-52 0 -97 6 -120 15 -19 8 -52 15 -71 15 -20 0 -77 13 -127 29 -122 39 -170
51 -240 60 -34 5 -70 13 -82 19 -12 7 -42 12 -66 12 -47 0 -94 28 -152 90 -16
17 -53 47 -81 66 -28 19 -72 52 -97 74 -25 22 -51 40 -59 40 -8 0 -83 34 -167
75 -84 41 -164 75 -177 75 -14 0 -41 7 -61 15 -19 8 -62 15 -94 15 -32 0 -61
5 -64 10 -3 6 -41 10 -83 9 l-77 -1 -38 -26z m364 -165 c24 -13 61 -27 81 -31
21 -4 40 -11 43 -16 11 -19 -42 -10 -86 13 -24 13 -61 27 -81 31 -21 4 -40 11
-43 16 -11 19 42 10 86 -13z m239 -107 c0 -5 -4 -10 -9 -10 -6 0 -13 5 -16 10
-3 6 1 10 9 10 9 0 16 -4 16 -10z m1618 -130 c23 -16 44 -30 46 -30 2 0 31
-18 64 -41 96 -64 130 -115 103 -158 l-9 -13 -37 13 c-40 15 -208 163 -239
211 l-19 30 14 9 c22 14 33 11 77 -21z"/>
</g>
</svg>
