<?xml version="1.0" standalone="no"?>
<!DOCTYPE svg PUBLIC "-//W3C//DTD SVG 20010904//EN"
 "http://www.w3.org/TR/2001/REC-SVG-20010904/DTD/svg10.dtd">
<svg version="1.0" xmlns="http://www.w3.org/2000/svg"
 width="405.000000pt" height="198.000000pt" viewBox="0 0 405.000000 198.000000"
 preserveAspectRatio="xMidYMid meet">
<metadata>
Created by potrace 1.16, written by Peter Selinger 2001-2019
</metadata>
<g transform="translate(0.000000,198.000000) scale(0.100000,-0.100000)"
fill="#000000" stroke="none">
<path d="M2612 1942 c-23 -22 -42 -48 -42 -60 0 -11 13 -49 30 -84 16 -34 30
-68 30 -75 0 -6 20 -53 45 -104 25 -51 45 -99 45 -107 0 -8 30 -47 66 -87 l65
-74 52 -15 52 -15 22 15 c14 9 23 25 23 40 0 37 -35 100 -74 129 -18 14 -36
38 -39 53 -3 15 -22 54 -42 87 -21 33 -43 80 -51 105 l-13 45 13 13 14 14 67
-31 c36 -17 78 -31 92 -31 35 0 88 -26 153 -76 56 -43 84 -70 213 -206 54 -57
80 -78 99 -78 38 0 58 29 58 84 0 56 -18 95 -74 157 -58 64 -80 110 -72 144
l7 27 22 -6 c12 -4 45 -11 72 -16 52 -9 73 -18 140 -61 22 -15 59 -37 82 -50
172 -98 201 -122 217 -179 22 -73 50 -140 59 -140 6 0 32 10 58 23 l48 22 1
67 0 67 -25 38 c-46 72 -56 83 -71 83 -9 0 -37 19 -62 41 -56 49 -133 95 -183
109 -19 5 -53 25 -75 43 -21 19 -53 41 -69 50 -47 23 -151 57 -179 57 -14 0
-28 5 -31 10 -3 6 -46 10 -96 10 l-89 0 -49 -35 c-26 -19 -53 -35 -59 -35 -11
0 -122 44 -154 61 -10 5 -71 9 -136 9 l-119 0 -41 -38z"/>
<path d="M2681 1114 c-12 -15 -21 -41 -21 -61 0 -48 61 -164 104 -197 20 -15
48 -51 62 -79 15 -29 45 -73 68 -98 22 -25 70 -80 106 -123 118 -141 165 -171
203 -128 33 36 15 82 -73 182 -61 69 -139 178 -169 239 -11 20 -31 47 -45 60
-14 14 -26 32 -26 40 0 18 -69 123 -108 164 -34 35 -74 36 -101 1z"/>
<path d="M2371 655 c-17 -20 -31 -37 -31 -39 0 -2 11 -28 25 -58 l25 -53 0
-101 0 -102 -52 -39 c-29 -21 -76 -53 -104 -71 l-51 -32 -232 0 c-183 0 -239
3 -268 15 -19 8 -53 15 -75 15 -21 0 -55 7 -75 15 -19 8 -53 15 -75 15 -21 0
-55 7 -75 15 -19 8 -52 15 -72 15 -20 0 -56 6 -81 14 -87 28 -136 38 -210 45
-41 4 -85 13 -97 19 -12 7 -34 12 -50 12 -15 0 -53 12 -83 26 -30 14 -114 45
-186 69 -71 23 -149 52 -172 64 -23 11 -47 21 -54 21 -7 0 -33 14 -58 30 -25
16 -52 30 -61 30 -8 0 -57 20 -108 45 -51 25 -106 45 -122 45 l-29 0 0 -55 c0
-38 4 -55 13 -55 7 0 50 -25 96 -56 56 -37 114 -65 175 -85 50 -16 109 -42
132 -58 40 -29 147 -71 182 -71 10 0 56 -13 102 -30 47 -16 94 -30 104 -30 11
0 81 -20 155 -44 190 -61 214 -67 316 -75 50 -4 100 -12 112 -19 12 -7 40 -12
63 -12 22 0 57 -7 77 -15 19 -8 60 -15 90 -15 29 0 70 -7 90 -15 25 -11 73
-15 169 -15 78 0 135 -4 139 -10 8 -13 72 -13 80 0 3 6 41 10 84 10 l78 0 39
27 c21 16 59 39 84 52 62 33 157 126 186 183 l24 47 0 91 c0 107 -16 149 -88
223 -58 59 -87 62 -131 12z"/>
</g>
</svg>
