<?xml version="1.0" encoding="UTF-8" standalone="no"?>
<!-- Created with Inkscape (http://www.inkscape.org/) -->

<svg
   width="103.44636mm"
   height="101.02308mm"
   viewBox="0 0 103.44636 101.02308"
   version="1.1"
   id="svg1"
   xml:space="preserve"
   xmlns="http://www.w3.org/2000/svg"
   xmlns:svg="http://www.w3.org/2000/svg"><defs
     id="defs1" /><g
     id="layer1"
     transform="translate(-81.912803,-83.126923)"><path
       style="fill:#000000"
       d="m 124.51605,182.44331 c -4.0181,-2.68646 -6.24423,-4.61305 -12.22771,-10.58237 -7.89784,-7.87916 -12.22845,-13.24621 -18.332195,-22.71969 -6.355712,-9.86454 -8.492598,-13.82521 -10.09988,-18.71993 -1.635298,-4.98004 -1.958679,-7.09079 -1.942921,-12.68173 0.02573,-9.12934 1.883835,-15.48134 6.269131,-21.431253 1.562325,-2.119743 5.891581,-6.489439 7.728982,-7.801179 4.969313,-3.547643 12.312363,-5.748863 17.777533,-5.329157 3.01431,0.231489 4.98744,0.6852 10.92976,2.513241 7.35253,2.261868 9.46821,3.03925 13.42097,4.931382 7.93402,3.797909 15.62976,9.851876 24.35426,19.158636 8.20779,8.75558 12.60983,14.57299 17.28779,22.84628 4.48575,7.93335 6.20133,14.37894 5.54068,20.81678 -0.31709,3.08998 -0.92109,5.9401 -1.65706,7.81922 -0.69412,1.77227 -2.8988,5.38435 -3.82687,6.26982 -0.70212,0.66989 -2.38446,1.53539 -2.98447,1.53539 -0.47612,0 0.66179,-1.5597 1.5963,-2.18799 1.82927,-1.22985 3.37995,-5.65084 3.95807,-11.28453 0.66458,-6.47618 -1.0416,-12.90148 -5.53706,-20.85202 -4.67394,-8.26617 -9.08171,-14.09254 -17.2665,-22.82354 C 148.8568,100.562 139.44431,93.915641 128.85208,90.276073 c -3.96445,-1.362217 -12.39627,-3.891645 -14.41979,-4.325737 -2.50924,-0.53829 -7.79518,-0.396538 -10.31875,0.276716 -4.410932,1.176778 -7.846412,3.270306 -11.396084,6.944598 -3.805527,3.93913 -4.927562,5.774247 -6.303119,10.30892 -1.200568,3.9578 -1.577635,6.83455 -1.591545,12.14235 -0.01465,5.59071 0.309218,7.7036 1.94389,12.68173 1.607282,4.89472 3.744168,8.8554 10.099879,18.71994 6.071839,9.42394 10.433619,14.83801 18.200089,22.59089 5.77428,5.76419 8.44566,8.0602 12.36881,10.63084 l 2.41984,1.58559 -0.51528,0.87335 c -0.3987,0.67574 -1.57654,1.44474 -2.21285,1.44474 -0.0321,0 -1.20715,-0.76801 -2.61112,-1.70669 z"
       id="path1" /></g></svg>
