<?xml version="1.0" standalone="no"?>
<!DOCTYPE svg PUBLIC "-//W3C//DTD SVG 20010904//EN"
 "http://www.w3.org/TR/2001/REC-SVG-20010904/DTD/svg10.dtd">
<svg version="1.0" xmlns="http://www.w3.org/2000/svg"
 width="321.000000pt" height="237.000000pt" viewBox="0 0 321.000000 237.000000"
 preserveAspectRatio="xMidYMid meet">
<metadata>
Created by potrace 1.16, written by Peter Selinger 2001-2019
</metadata>
<g transform="translate(0.000000,237.000000) scale(0.100000,-0.100000)"
fill="#000000" stroke="none">
<path d="M812 2332 l-42 -39 0 -37 c0 -47 42 -131 78 -153 41 -25 102 -85 102
-100 0 -24 -45 -37 -81 -24 -17 6 -49 11 -71 11 -21 0 -55 7 -75 15 -23 10
-69 15 -135 15 -65 0 -111 5 -135 15 -20 8 -66 15 -105 15 -38 0 -84 7 -105
15 -19 8 -63 15 -97 15 l-62 0 -42 -31 -42 -31 0 -54 c0 -30 4 -62 9 -72 25
-49 71 -160 71 -174 0 -18 72 -113 168 -220 39 -44 72 -85 72 -91 0 -5 33 -44
74 -86 40 -42 87 -94 102 -117 78 -110 107 -146 214 -257 63 -65 132 -130 152
-143 38 -24 105 -117 118 -165 8 -27 118 -197 156 -239 43 -48 133 -191 139
-222 4 -17 32 -60 61 -95 30 -35 54 -68 54 -73 0 -6 27 -10 60 -10 l60 0 0 46
0 46 -40 45 c-22 25 -42 61 -46 79 -3 19 -24 56 -46 82 -22 26 -58 83 -80 127
-22 44 -62 104 -89 133 -27 29 -52 68 -57 86 -6 18 -29 58 -53 89 -24 30 -64
83 -89 117 -25 34 -73 92 -106 129 -34 37 -73 86 -87 109 -15 22 -46 57 -70
77 -25 21 -55 56 -67 79 -13 22 -40 59 -60 81 -21 22 -51 58 -67 81 -54 78
-98 136 -151 196 -28 33 -67 88 -85 122 -19 33 -42 75 -52 92 -40 67 7 111 88
80 30 -11 76 -16 155 -16 78 0 124 -5 149 -15 19 -8 65 -15 101 -15 43 0 91
-9 145 -27 l80 -26 44 11 44 12 35 -15 c20 -8 54 -15 76 -15 23 0 67 -12 101
-28 34 -16 73 -32 87 -35 14 -3 43 -22 65 -40 52 -44 117 -77 152 -77 15 0 80
-25 143 -56 153 -74 216 -94 295 -94 36 0 82 -7 102 -15 19 -8 54 -15 77 -15
25 -1 56 -10 80 -25 26 -16 48 -22 66 -19 16 4 39 -2 60 -15 l35 -20 41 11 42
12 44 -17 c31 -12 75 -17 149 -17 l106 0 41 30 c49 35 133 77 183 90 42 12
109 79 109 110 0 12 10 25 25 32 l25 11 0 142 0 143 -32 24 c-44 34 -113 68
-136 68 -22 0 -52 -30 -52 -52 0 -9 13 -45 30 -80 34 -72 38 -128 13 -175 -10
-17 -52 -62 -93 -98 l-75 -67 -33 6 c-23 3 -50 -2 -87 -19 -63 -29 -81 -30
-135 -9 -29 12 -55 15 -91 10 l-50 -7 -34 21 -35 21 -77 -2 c-78 -3 -113 5
-185 42 -20 10 -55 19 -78 19 -22 0 -57 7 -77 15 -19 8 -45 15 -57 15 -39 0
-220 68 -281 105 -33 20 -73 39 -88 42 -34 7 -52 36 -38 62 6 10 26 37 46 60
l35 43 0 53 c0 43 -5 60 -25 84 -42 49 -202 151 -237 151 -7 0 -29 11 -49 24
-40 27 -236 96 -274 96 -13 0 -27 5 -30 10 -3 6 -34 10 -69 10 l-63 0 -41 -38z
m287 -162 c24 -11 48 -20 53 -20 5 0 43 -20 84 -45 40 -25 77 -45 82 -45 15 0
54 -48 48 -58 -3 -5 -26 -13 -51 -16 l-46 -7 -33 20 c-18 12 -40 21 -48 21 -8
0 -27 14 -43 30 -16 17 -37 30 -47 30 -24 0 -88 58 -88 79 0 37 25 40 89 11z"/>
</g>
</svg>
