<?xml version="1.0" standalone="no"?>
<!DOCTYPE svg PUBLIC "-//W3C//DTD SVG 20010904//EN"
 "http://www.w3.org/TR/2001/REC-SVG-20010904/DTD/svg10.dtd">
<svg version="1.0" xmlns="http://www.w3.org/2000/svg"
 width="900.000000pt" height="153.000000pt" viewBox="0 0 900.000000 153.000000"
 preserveAspectRatio="xMidYMid meet">
<metadata>
Created by potrace 1.16, written by Peter Selinger 2001-2019
</metadata>
<g transform="translate(0.000000,153.000000) scale(0.100000,-0.100000)"
fill="#000000" stroke="none">
<path d="M6572 1492 c-23 -22 -42 -47 -42 -57 0 -9 -12 -43 -26 -75 l-26 -58
17 -33 c10 -19 27 -47 39 -64 65 -90 55 -115 -44 -115 -37 0 -84 -7 -103 -15
-21 -8 -67 -15 -105 -15 -39 0 -85 -7 -105 -15 -20 -8 -61 -15 -91 -15 -39 0
-71 -8 -118 -30 l-63 -30 -86 0 c-54 0 -100 -6 -122 -15 -25 -10 -72 -15 -152
-15 -64 0 -125 -5 -136 -11 -11 -6 -41 -14 -67 -19 -57 -11 -122 -27 -182 -46
-25 -8 -68 -14 -96 -14 -28 0 -68 -7 -87 -15 -21 -8 -67 -15 -105 -15 -39 0
-85 -7 -105 -15 -25 -10 -72 -15 -150 -15 -81 0 -125 -5 -152 -16 l-37 -15
-49 17 -48 18 -51 -24 c-27 -13 -57 -31 -65 -40 -21 -23 -45 -108 -39 -139 17
-86 -150 -251 -253 -251 -16 0 -45 -11 -64 -24 -40 -27 -142 -66 -174 -66 -11
0 -58 -14 -105 -30 l-84 -30 -95 0 c-64 0 -109 -5 -139 -17 l-43 -16 -55 13
-56 14 -21 -13 c-16 -11 -111 -13 -440 -12 l-420 2 -35 15 c-26 10 -79 14
-209 14 -132 0 -182 4 -210 15 -19 8 -60 15 -90 15 -29 0 -70 7 -90 15 -19 8
-44 15 -55 15 -11 0 -95 25 -185 55 -102 34 -174 53 -188 49 -30 -8 -115 19
-162 50 -21 14 -44 26 -53 26 -8 0 -44 14 -78 30 -35 17 -75 30 -89 30 -38 0
-152 56 -206 102 -26 22 -62 44 -81 49 -18 5 -50 24 -72 43 -53 45 -356 196
-394 196 l-30 0 0 -40 0 -40 39 -20 c22 -11 52 -36 67 -56 26 -33 145 -104
177 -104 7 0 71 -38 141 -85 71 -47 147 -95 170 -107 22 -11 55 -31 71 -44 39
-29 144 -64 193 -64 25 0 70 -15 131 -45 51 -25 98 -45 104 -45 7 0 32 -14 57
-30 l45 -30 84 0 84 0 136 -44 c190 -61 214 -67 316 -75 50 -4 100 -12 112
-19 14 -8 70 -12 157 -12 79 0 137 -4 141 -10 8 -14 792 -14 800 0 8 13 122
13 130 0 8 -13 132 -13 140 0 4 6 57 10 125 10 l119 0 64 30 c36 16 76 30 90
30 13 0 41 7 60 15 20 8 47 15 61 15 14 0 54 13 89 30 36 16 77 30 91 30 15 0
58 16 97 36 154 77 246 159 339 300 30 45 63 88 74 95 13 9 65 16 136 20 110
6 148 13 250 45 25 8 62 14 83 14 21 0 47 5 58 11 11 6 41 14 67 19 57 11 122
27 182 46 31 10 94 14 200 14 l155 0 85 30 c46 17 101 30 121 30 20 0 53 7 72
15 21 8 67 15 105 15 39 0 85 7 105 15 20 8 54 15 75 15 22 0 56 7 75 15 26
11 73 15 165 15 93 0 140 4 165 15 20 8 61 15 90 15 30 0 68 5 84 11 44 15
110 -7 281 -91 78 -39 153 -70 167 -70 14 0 42 -7 62 -15 19 -8 53 -15 75 -15
21 0 55 -7 75 -15 19 -8 53 -15 75 -15 21 0 55 -7 75 -15 19 -8 53 -15 74 -15
21 0 50 -5 66 -12 25 -11 265 -30 338 -27 40 2 149 1 205 -1 97 -5 205 21 320
74 30 14 68 26 83 26 15 0 49 11 75 24 57 30 182 156 211 213 11 23 25 44 31
48 6 4 10 55 10 124 l0 119 -56 46 -56 46 -67 0 c-105 0 -115 -27 -51 -133
l40 -66 0 -69 0 -69 -28 -39 c-59 -81 -114 -119 -230 -158 l-109 -36 -110 0
c-78 0 -122 -5 -148 -16 l-38 -16 -41 16 c-29 11 -76 16 -154 16 -78 0 -124 5
-149 15 -19 8 -60 15 -90 15 -29 0 -70 7 -90 15 -19 8 -45 15 -57 15 -12 0
-60 13 -106 30 -47 16 -100 30 -119 30 -19 0 -64 10 -100 22 -124 41 -163 75
-125 107 28 22 58 82 74 146 l12 50 -16 56 c-19 65 -69 119 -160 174 l-58 35
-178 0 -177 0 -41 -38z m396 -165 c74 -77 48 -138 -66 -151 l-63 -7 -52 25
c-61 30 -77 42 -100 76 -23 33 -21 46 8 75 l24 25 103 0 103 0 43 -43z"/>
</g>
</svg>
