<?xml version="1.0" standalone="no"?>
<!DOCTYPE svg PUBLIC "-//W3C//DTD SVG 20010904//EN"
 "http://www.w3.org/TR/2001/REC-SVG-20010904/DTD/svg10.dtd">
<svg version="1.0" xmlns="http://www.w3.org/2000/svg"
 width="2676.000000pt" height="948.000000pt" viewBox="0 0 2676.000000 948.000000"
 preserveAspectRatio="xMidYMid meet">
<metadata>
Created by potrace 1.16, written by Peter Selinger 2001-2019
</metadata>
<g transform="translate(0.000000,948.000000) scale(0.100000,-0.100000)"
fill="#000000" stroke="none">
<path d="M1777 7162 c-12 -13 -17 -37 -17 -86 0 -37 -5 -76 -10 -87 l-11 -19
-168 0 -168 0 -16 -18 -17 -19 0 -350 0 -350 18 -16 c13 -12 37 -17 80 -17
l61 0 11 -19 c5 -11 10 -44 10 -74 0 -75 15 -87 113 -87 l76 0 11 -19 c5 -11
10 -51 10 -89 0 -89 13 -102 98 -102 l61 0 11 -19 c5 -11 10 -44 10 -74 0 -72
17 -87 98 -87 l61 0 11 -19 c5 -11 10 -44 10 -74 0 -40 5 -58 18 -70 l19 -17
166 0 166 0 11 -19 c5 -11 10 -51 10 -89 0 -54 4 -72 18 -85 l19 -17 166 0
166 0 11 -19 c5 -11 10 -44 10 -74 0 -72 17 -87 98 -87 l61 0 11 -19 c5 -11
10 -44 10 -74 0 -40 5 -58 18 -70 l19 -17 166 0 166 0 11 -19 c5 -11 10 -51
10 -89 0 -54 4 -72 18 -85 l19 -17 166 0 166 0 11 -19 c5 -11 10 -44 10 -74 0
-40 5 -58 18 -70 l19 -17 151 0 151 0 11 -19 c5 -11 10 -44 10 -74 0 -40 5
-58 18 -70 l19 -17 166 0 166 0 11 -19 c5 -11 10 -51 10 -89 0 -54 4 -72 18
-85 l19 -17 256 0 256 0 11 -19 c5 -11 10 -44 10 -74 0 -40 5 -58 18 -70 l19
-17 256 0 256 0 11 -19 c5 -11 10 -51 10 -89 0 -54 4 -72 18 -85 l19 -17 361
0 361 0 11 -19 c5 -11 10 -44 10 -74 0 -40 5 -58 18 -70 l19 -17 346 0 346 0
11 -19 c5 -11 10 -44 10 -74 0 -40 5 -58 18 -70 l19 -17 256 0 256 0 11 -19
c5 -11 10 -51 10 -89 0 -54 4 -72 18 -85 l19 -17 451 0 451 0 11 -19 c5 -11
10 -44 10 -74 0 -40 5 -58 18 -70 l19 -17 346 0 346 0 11 -19 c5 -11 10 -44
10 -74 0 -40 5 -58 18 -70 l19 -17 451 0 451 0 11 -19 c5 -11 10 -51 10 -89 0
-54 4 -72 18 -85 l19 -17 541 0 541 0 11 -19 c5 -11 10 -44 10 -74 0 -40 5
-58 18 -70 l19 -17 826 0 826 0 11 -19 c5 -11 10 -44 10 -74 0 -40 5 -58 18
-70 l19 -17 1021 0 1021 0 11 -19 c5 -11 10 -51 10 -89 0 -54 4 -72 18 -85
l19 -17 1685 0 1685 0 16 18 c12 13 17 37 17 86 0 37 5 76 10 87 l11 19 648 0
648 0 16 18 c11 12 17 36 17 71 0 29 5 61 10 72 l11 19 348 0 348 0 16 18 c11
12 17 36 17 71 0 29 5 61 10 72 l11 19 258 0 258 0 16 18 c12 13 17 37 17 86
0 37 5 76 10 87 l11 19 168 0 168 0 16 18 c11 12 17 36 17 71 0 29 5 61 10 72
l11 19 168 0 168 0 16 18 c11 12 17 36 17 71 0 29 5 61 10 72 l11 19 63 0 c84
0 96 13 96 104 0 37 5 76 10 87 l11 19 63 0 c48 0 67 4 79 18 l17 19 0 545 0
545 -18 16 c-13 12 -37 17 -80 17 l-61 0 -11 19 c-5 11 -10 44 -10 74 0 72
-17 87 -98 87 l-61 0 -11 19 c-5 11 -10 51 -10 89 0 92 -11 102 -113 102 l-76
0 -11 19 c-5 11 -10 84 -10 164 l0 144 -18 16 c-13 12 -37 17 -80 17 l-61 0
-11 19 c-5 11 -10 51 -10 89 0 89 -13 102 -98 102 l-61 0 -11 19 c-13 25 -13
97 0 122 l11 19 254 0 254 0 11 -19 c5 -11 10 -44 10 -74 0 -40 5 -58 18 -70
l19 -17 346 0 346 0 11 -19 c5 -11 10 -51 10 -89 0 -54 4 -72 18 -85 l19 -17
256 0 256 0 11 -19 c5 -11 10 -44 10 -74 0 -40 5 -58 18 -70 l19 -17 166 0
166 0 11 -19 c5 -11 10 -44 10 -74 0 -40 5 -58 18 -70 l19 -17 166 0 166 0 11
-19 c5 -11 10 -51 10 -89 0 -54 4 -72 18 -85 l19 -17 151 0 151 0 11 -19 c5
-11 10 -44 10 -74 0 -75 15 -87 113 -87 l76 0 11 -19 c5 -11 10 -44 10 -74 0
-72 17 -87 98 -87 l61 0 11 -19 c5 -11 10 -51 10 -89 0 -89 13 -102 98 -102
l61 0 11 -19 c5 -11 10 -44 10 -74 0 -40 5 -58 18 -70 l19 -17 170 0 170 0 16
18 17 19 0 170 0 170 -18 16 c-13 12 -37 17 -80 17 l-61 0 -11 19 c-5 11 -10
44 -10 74 0 75 -15 87 -113 87 l-76 0 -11 19 c-5 11 -10 44 -10 74 0 72 -17
87 -98 87 l-61 0 -11 19 c-5 11 -10 51 -10 89 0 89 -13 102 -98 102 l-61 0
-11 19 c-5 11 -10 44 -10 74 0 40 -5 58 -18 70 l-19 17 -166 0 -166 0 -11 19
c-5 11 -10 44 -10 74 0 40 -5 58 -18 70 l-19 17 -166 0 -166 0 -11 19 c-5 11
-10 51 -10 89 0 54 -4 72 -18 85 l-19 17 -151 0 -151 0 -11 19 c-5 11 -10 44
-10 74 0 40 -5 58 -18 70 l-19 17 -256 0 -256 0 -11 19 c-5 11 -10 44 -10 74
0 40 -5 58 -18 70 l-19 17 -271 0 -271 0 -11 19 c-5 11 -10 51 -10 89 0 54 -4
72 -18 85 l-19 17 -725 0 -725 0 -16 -18 c-12 -13 -17 -37 -17 -86 0 -37 -5
-76 -10 -87 l-11 -19 -78 0 -78 0 -16 -18 c-12 -13 -17 -37 -17 -84 0 -88 12
-98 113 -98 l76 0 11 -19 c6 -11 10 -88 10 -179 l0 -159 18 -16 c13 -12 37
-17 80 -17 l61 0 11 -19 c5 -11 10 -44 10 -74 0 -72 17 -87 98 -87 l61 0 11
-19 c5 -11 10 -44 10 -74 0 -75 15 -87 113 -87 l76 0 11 -19 c5 -11 10 -51 10
-89 0 -89 13 -102 98 -102 l61 0 11 -19 c5 -11 10 -44 10 -74 0 -72 17 -87 98
-87 l61 0 11 -19 c6 -13 10 -201 10 -541 0 -340 -4 -528 -10 -541 l-11 -19
-63 0 c-84 0 -96 -13 -96 -104 0 -37 -5 -76 -10 -87 l-11 -19 -168 0 -168 0
-16 -18 c-11 -12 -17 -36 -17 -71 0 -29 -5 -61 -10 -72 l-11 -19 -258 0 -258
0 -16 -18 c-11 -12 -17 -36 -17 -71 0 -29 -5 -61 -10 -72 l-11 -19 -438 0
-438 0 -16 -18 c-12 -13 -17 -37 -17 -86 0 -37 -5 -76 -10 -87 l-11 -19 -558
0 -558 0 -16 -18 c-11 -12 -17 -36 -17 -71 0 -29 -5 -61 -10 -72 l-11 -19
-1394 0 -1394 0 -11 19 c-5 11 -10 44 -10 74 0 40 -5 58 -18 70 l-19 17 -1201
0 -1201 0 -11 19 c-5 11 -10 51 -10 89 0 54 -4 72 -18 85 l-19 17 -646 0 -646
0 -11 19 c-5 11 -10 44 -10 74 0 40 -5 58 -18 70 l-19 17 -736 0 -736 0 -11
19 c-5 11 -10 44 -10 74 0 40 -5 58 -18 70 l-19 17 -436 0 -436 0 -11 19 c-5
11 -10 51 -10 89 0 54 -4 72 -18 85 l-19 17 -451 0 -451 0 -11 19 c-5 11 -10
44 -10 74 0 40 -5 58 -18 70 l-19 17 -361 0 -361 0 -11 19 c-5 11 -10 44 -10
74 0 40 -5 58 -18 70 l-19 17 -346 0 -346 0 -11 19 c-5 11 -10 51 -10 89 0 54
-4 72 -18 85 l-19 17 -346 0 -346 0 -11 19 c-5 11 -10 44 -10 74 0 40 -5 58
-18 70 l-19 17 -271 0 -271 0 -11 19 c-5 11 -10 51 -10 89 0 54 -4 72 -18 85
l-19 17 -256 0 -256 0 -11 19 c-5 11 -10 44 -10 74 0 40 -5 58 -18 70 l-19 17
-151 0 -151 0 -11 19 c-5 11 -10 44 -10 74 0 40 -5 58 -18 70 l-19 17 -256 0
-256 0 -11 19 c-5 11 -10 51 -10 89 0 92 -11 102 -113 102 l-76 0 -11 19 c-13
26 -13 276 0 302 l11 19 78 0 78 0 16 18 c12 13 17 37 17 86 0 37 5 76 10 87
l11 19 63 0 c48 0 67 4 79 18 l17 19 0 440 0 440 -18 16 c-13 12 -37 17 -80
17 l-61 0 -11 19 c-5 11 -10 51 -10 89 0 92 -11 102 -113 102 l-76 0 -11 19
c-5 11 -10 44 -10 74 0 40 -5 58 -18 70 l-19 17 -151 0 -151 0 -11 19 c-5 11
-10 44 -10 74 0 40 -5 58 -18 70 l-19 17 -166 0 -166 0 -11 19 c-5 11 -10 51
-10 89 0 54 -4 72 -18 85 l-19 17 -830 0 -830 0 -16 -18z m1293 -411 c5 -11
10 -43 10 -72 0 -35 6 -59 17 -71 l16 -18 168 0 168 0 11 -19 c5 -11 10 -50
10 -87 0 -91 12 -104 96 -104 l63 0 11 -19 c5 -11 10 -43 10 -72 0 -35 6 -59
17 -71 l16 -18 78 0 78 0 11 -19 c5 -11 10 -43 10 -72 0 -74 16 -89 96 -89
l63 0 11 -19 c14 -26 14 -486 0 -512 l-11 -19 -61 0 c-85 0 -98 -13 -98 -102
0 -38 -5 -78 -10 -89 l-11 -19 -164 0 -164 0 -11 19 c-5 11 -10 50 -10 87 0
49 -5 73 -17 86 l-16 18 -168 0 -168 0 -11 19 c-5 11 -10 43 -10 72 0 35 -6
59 -17 71 l-16 18 -168 0 -168 0 -11 19 c-5 11 -10 43 -10 72 0 74 -16 89 -96
89 l-63 0 -11 19 c-5 11 -10 50 -10 87 0 91 -12 104 -96 104 l-63 0 -11 19
c-5 11 -10 43 -10 72 0 35 -6 59 -17 71 l-16 18 -78 0 -78 0 -11 19 c-5 11
-10 43 -10 72 0 74 -16 89 -96 89 l-63 0 -11 19 c-5 11 -10 84 -10 166 0 82 5
155 10 166 l11 19 539 0 539 0 11 -19z"/>
</g>
</svg>
