<?xml version="1.0" standalone="no"?>
<!DOCTYPE svg PUBLIC "-//W3C//DTD SVG 20010904//EN"
 "http://www.w3.org/TR/2001/REC-SVG-20010904/DTD/svg10.dtd">
<svg version="1.0" xmlns="http://www.w3.org/2000/svg"
 width="234.000000pt" height="378.000000pt" viewBox="0 0 234.000000 378.000000"
 preserveAspectRatio="xMidYMid meet">
<metadata>
Created by potrace 1.16, written by Peter Selinger 2001-2019
</metadata>
<g transform="translate(0.000000,378.000000) scale(0.100000,-0.100000)"
fill="#000000" stroke="none">
<path d="M92 3747 c-7 -18 -12 -40 -12 -49 0 -27 35 -48 81 -48 48 0 72 -12
134 -70 22 -20 60 -48 85 -62 46 -27 56 -38 131 -148 54 -79 73 -120 61 -132
-5 -5 -42 3 -85 17 -43 14 -93 25 -113 25 -19 0 -51 7 -71 15 -19 8 -53 15
-75 15 -51 0 -152 -35 -194 -67 l-34 -25 0 -89 c0 -49 5 -91 10 -94 6 -4 21
-28 35 -55 27 -53 91 -103 214 -164 l71 -36 90 0 c96 0 135 13 208 67 18 13
47 27 66 30 l33 5 39 -35 c22 -19 55 -42 74 -52 19 -10 61 -43 92 -74 31 -31
62 -60 68 -66 6 -5 27 -28 48 -50 20 -22 58 -57 83 -77 25 -20 63 -61 83 -92
20 -30 50 -65 67 -78 65 -49 161 -158 232 -264 26 -39 62 -83 81 -97 21 -17
39 -42 47 -69 10 -30 26 -50 59 -73 30 -21 49 -43 57 -69 7 -20 24 -53 38 -74
14 -20 25 -51 25 -68 0 -23 12 -46 41 -80 46 -54 78 -117 79 -151 0 -36 66
-223 110 -314 l40 -83 0 -57 c0 -31 7 -73 15 -92 12 -28 15 -81 15 -236 l0
-200 -16 -15 c-8 -9 -20 -16 -27 -16 -6 0 -38 28 -71 63 -34 34 -77 69 -96 76
-37 13 -62 25 -145 72 l-50 29 -110 0 -110 0 -40 -23 c-52 -30 -85 -87 -85
-152 l0 -49 67 -101 c79 -120 120 -165 191 -212 30 -20 64 -51 75 -69 l22 -34
103 0 102 0 0 35 0 34 -44 34 c-25 19 -78 65 -119 103 -109 102 -196 254 -145
254 6 0 57 -23 115 -50 113 -55 180 -109 220 -180 38 -66 113 -140 141 -140
12 0 36 7 52 15 31 16 110 119 110 143 0 14 46 125 71 174 13 25 12 435 -1
443 -5 3 -10 20 -10 36 0 17 -5 39 -11 50 -6 11 -14 41 -19 67 -24 131 -67
259 -151 453 -16 36 -29 71 -29 78 0 18 -67 148 -105 203 -18 26 -36 63 -40
80 -4 19 -26 52 -52 78 -97 97 -185 205 -212 258 -29 56 -90 122 -144 156 -15
9 -33 29 -39 44 -31 80 -43 101 -84 142 -82 83 -139 140 -169 169 -16 16 -43
46 -58 65 -16 20 -51 48 -78 62 -27 15 -61 42 -75 61 -14 18 -43 42 -64 53
-47 24 -177 152 -191 187 -5 13 -9 62 -9 109 l0 84 -49 98 c-34 68 -61 107
-85 126 -20 15 -43 40 -51 55 -21 42 -188 151 -230 151 -9 0 -27 11 -41 25
l-25 25 -102 0 -103 0 -12 -33z m233 -636 c50 -9 144 -51 178 -79 46 -39 2
-82 -84 -82 l-56 0 -43 33 c-24 17 -60 43 -79 57 -20 14 -37 34 -39 43 -6 28
18 49 47 43 14 -3 49 -10 76 -15z"/>
</g>
</svg>
